<svg width="182" height="40" viewBox="0 0 182 40" fill="none" xmlns="http://www.w3.org/2000/svg">
<g clip-path="url(#clip0_1_56)">
<rect width="182.001" height="40.0014" rx="8" fill="url(#paint0_linear_1_56)"/>
<g filter="url(#filter0_d_1_56)">
<path fill-rule="evenodd" clip-rule="evenodd" d="M33.0161 27.5702C33.2677 30.8019 33.2677 32.3168 33.2677 33.9704H25.7905C25.7905 33.6102 25.7969 33.2808 25.8034 32.9466C25.8237 31.908 25.8448 30.8249 25.6765 28.6377C25.4541 25.4354 24.0751 24.7239 21.5396 24.7239H19.2932H9.77956V18.8977H21.8955C25.0982 18.8977 26.6996 17.9234 26.6996 15.3438C26.6996 13.0756 25.0982 11.7011 21.8955 11.7011H9.77956V6H23.23C30.4806 6 34.0837 9.42457 34.0837 14.895C34.0837 18.9866 31.5482 21.6551 28.123 22.0999C31.0144 22.678 32.7047 24.3236 33.0161 27.5702Z" fill="white"/>
<path d="M9.77956 33.9704V29.6272H17.6856C19.0062 29.6272 19.2929 30.6067 19.2929 31.1908V33.9704H9.77956Z" fill="white"/>
<path d="M9.75 33.9704V34H9.77957H19.2929H19.3225V33.9704V31.1908C19.3225 30.8948 19.25 30.4969 19.0082 30.1722C18.7653 29.8461 18.3542 29.5976 17.6856 29.5976H9.77957H9.75V29.6272V33.9704Z" stroke="white" stroke-opacity="0.8"/>
</g>
<g filter="url(#filter1_d_1_56)">
<path d="M43.3597 26.5007V14.1371H47.8874C48.7648 14.1371 49.4912 14.282 50.0667 14.5717C50.6423 14.8575 51.0729 15.2458 51.3586 15.7369C51.6444 16.2238 51.7873 16.7732 51.7873 17.3849C51.7873 17.9001 51.6927 18.3347 51.5035 18.6889C51.3144 19.0391 51.0608 19.3208 50.7429 19.5341C50.429 19.7434 50.0828 19.8963 49.7045 19.9929V20.1136C50.115 20.1337 50.5155 20.2666 50.9059 20.5121C51.3003 20.7535 51.6263 21.0976 51.8839 21.5444C52.1414 21.9911 52.2702 22.5344 52.2702 23.1743C52.2702 23.8062 52.1213 24.3737 51.8235 24.8768C51.5297 25.3758 51.0749 25.7722 50.4591 26.066C49.8434 26.3558 49.0566 26.5007 48.0987 26.5007H43.3597ZM45.2251 24.9009H47.9176C48.8111 24.9009 49.451 24.7279 49.8373 24.3817C50.2237 24.0356 50.4169 23.603 50.4169 23.0838C50.4169 22.6934 50.3183 22.3352 50.1211 22.0092C49.9239 21.6832 49.6421 21.4236 49.2759 21.2305C48.9137 21.0373 48.483 20.9407 47.984 20.9407H45.2251V24.9009ZM45.2251 19.4858H47.7244C48.143 19.4858 48.5193 19.4053 48.8533 19.2443C49.1914 19.0833 49.459 18.8579 49.6562 18.5682C49.8575 18.2744 49.9581 17.9283 49.9581 17.5298C49.9581 17.0187 49.779 16.5901 49.4208 16.244C49.0626 15.8978 48.5132 15.7248 47.7727 15.7248H45.2251V19.4858ZM60.2118 22.6552V17.228H62.0229V26.5007H60.248V24.8949H60.1514C59.9381 25.3899 59.596 25.8024 59.1251 26.1324C58.6583 26.4584 58.0767 26.6214 57.3805 26.6214C56.7848 26.6214 56.2576 26.4906 55.7988 26.229C55.344 25.9634 54.9858 25.571 54.7242 25.0518C54.4667 24.5327 54.3379 23.8907 54.3379 23.1261V17.228H56.1429V22.9087C56.1429 23.5406 56.318 24.0437 56.6681 24.418C57.0183 24.7922 57.473 24.9794 58.0325 24.9794C58.3705 24.9794 58.7066 24.8949 59.0406 24.7258C59.3787 24.5568 59.6584 24.3012 59.8798 23.9591C60.1051 23.6171 60.2158 23.1824 60.2118 22.6552ZM64.4482 26.5007V17.228H66.2533V26.5007H64.4482ZM65.3598 15.7972C65.0459 15.7972 64.7762 15.6926 64.5508 15.4833C64.3295 15.27 64.2188 15.0164 64.2188 14.7226C64.2188 14.4248 64.3295 14.1713 64.5508 13.962C64.7762 13.7487 65.0459 13.642 65.3598 13.642C65.6737 13.642 65.9413 13.7487 66.1627 13.962C66.3881 14.1713 66.5008 14.4248 66.5008 14.7226C66.5008 15.0164 66.3881 15.27 66.1627 15.4833C65.9413 15.6926 65.6737 15.7972 65.3598 15.7972ZM70.4867 14.1371V26.5007H68.6816V14.1371H70.4867ZM77.2435 17.228V18.6768H72.1785V17.228H77.2435ZM73.5368 15.0064H75.3419V23.778C75.3419 24.1282 75.3942 24.3918 75.4988 24.5689C75.6035 24.7419 75.7383 24.8607 75.9033 24.9251C76.0723 24.9854 76.2554 25.0156 76.4526 25.0156C76.5975 25.0156 76.7243 25.0056 76.833 24.9854C76.9416 24.9653 77.0262 24.9492 77.0865 24.9371L77.4125 26.4283C77.3079 26.4685 77.159 26.5087 76.9658 26.549C76.7726 26.5933 76.5311 26.6174 76.2414 26.6214C75.7664 26.6295 75.3237 26.545 74.9132 26.3679C74.5027 26.1908 74.1707 25.9171 73.9171 25.5469C73.6636 25.1766 73.5368 24.7118 73.5368 24.1523V15.0064ZM85.7495 26.5007L83.0208 17.228H84.8862L86.7034 24.0376H86.7939L88.6171 17.228H90.4825L92.2936 24.0074H92.3841L94.1891 17.228H96.0546L93.3319 26.5007H91.4906L89.6071 19.8057H89.4683L87.5847 26.5007H85.7495ZM97.7675 26.5007V17.228H99.5726V26.5007H97.7675ZM98.6791 15.7972C98.3652 15.7972 98.0955 15.6926 97.8702 15.4833C97.6488 15.27 97.5381 15.0164 97.5381 14.7226C97.5381 14.4248 97.6488 14.1713 97.8702 13.962C98.0955 13.7487 98.3652 13.642 98.6791 13.642C98.993 13.642 99.2607 13.7487 99.482 13.962C99.7074 14.1713 99.8201 14.4248 99.8201 14.7226C99.8201 15.0164 99.7074 15.27 99.482 15.4833C99.2607 15.6926 98.993 15.7972 98.6791 15.7972ZM106.329 17.228V18.6768H101.264V17.228H106.329ZM102.623 15.0064H104.428V23.778C104.428 24.1282 104.48 24.3918 104.585 24.5689C104.689 24.7419 104.824 24.8607 104.989 24.9251C105.158 24.9854 105.341 25.0156 105.539 25.0156C105.683 25.0156 105.81 25.0056 105.919 24.9854C106.028 24.9653 106.112 24.9492 106.172 24.9371L106.498 26.4283C106.394 26.4685 106.245 26.5087 106.052 26.549C105.859 26.5933 105.617 26.6174 105.327 26.6214C104.852 26.6295 104.41 26.545 103.999 26.3679C103.589 26.1908 103.257 25.9171 103.003 25.5469C102.75 25.1766 102.623 24.7118 102.623 24.1523V15.0064ZM110.33 20.995V26.5007H108.525V14.1371H110.306V18.7372H110.421C110.638 18.2382 110.97 17.8417 111.417 17.5479C111.864 17.2541 112.447 17.1072 113.168 17.1072C113.804 17.1072 114.359 17.238 114.834 17.4996C115.313 17.7612 115.683 18.1516 115.945 18.6708C116.21 19.1859 116.343 19.8299 116.343 20.6026V26.5007H114.538V20.8199C114.538 20.1398 114.363 19.6126 114.013 19.2383C113.663 18.86 113.176 18.6708 112.552 18.6708C112.125 18.6708 111.743 18.7614 111.405 18.9425C111.071 19.1236 110.807 19.3892 110.614 19.7393C110.425 20.0855 110.33 20.504 110.33 20.995Z" fill="#E8E8E8"/>
<path d="M122.937 26.0007V13.6371H128.044C128.97 13.6371 129.769 13.8041 130.441 14.1381C131.117 14.4681 131.638 14.9431 132.005 15.5628C132.371 16.1786 132.554 16.9091 132.554 17.7543C132.554 18.6115 132.367 19.34 131.992 19.9396C131.618 20.5353 131.087 20.99 130.399 21.304C129.711 21.6139 128.896 21.7688 127.954 21.7688H124.724V19.4144H127.398C127.849 19.4144 128.225 19.356 128.527 19.2393C128.833 19.1186 129.065 18.9375 129.222 18.696C129.379 18.4505 129.457 18.1366 129.457 17.7543C129.457 17.3719 129.379 17.056 129.222 16.8065C129.065 16.5529 128.833 16.3637 128.527 16.239C128.221 16.1102 127.845 16.0458 127.398 16.0458H125.925V26.0007H122.937ZM129.898 20.3501L132.977 26.0007H129.717L126.698 20.3501H129.898Z" fill="#357CD4"/>
<path d="M138.345 26.1758C137.375 26.1758 136.538 25.9846 135.833 25.6023C135.133 25.2159 134.594 24.6665 134.216 23.9542C133.841 23.2378 133.654 22.3866 133.654 21.4006C133.654 20.4427 133.843 19.6056 134.222 18.8892C134.6 18.1688 135.133 17.6094 135.821 17.2109C136.51 16.8085 137.321 16.6072 138.254 16.6072C138.914 16.6072 139.518 16.7099 140.065 16.9151C140.613 17.1204 141.086 17.4242 141.484 17.8267C141.882 18.2292 142.192 18.7262 142.414 19.3178C142.635 19.9054 142.746 20.5795 142.746 21.3402V22.0767H134.686V20.3622H139.999C139.995 20.0483 139.92 19.7686 139.776 19.5231C139.631 19.2776 139.431 19.0864 139.178 18.9496C138.928 18.8087 138.641 18.7383 138.315 18.7383C137.985 18.7383 137.689 18.8127 137.427 18.9616C137.166 19.1065 136.958 19.3057 136.805 19.5593C136.652 19.8088 136.572 20.0926 136.564 20.4105V22.1552C136.564 22.5335 136.638 22.8655 136.787 23.1513C136.936 23.433 137.148 23.6523 137.421 23.8093C137.695 23.9663 138.021 24.0447 138.399 24.0447C138.661 24.0447 138.898 24.0085 139.112 23.9361C139.325 23.8636 139.508 23.757 139.661 23.6161C139.814 23.4752 139.929 23.3022 140.005 23.0969L142.716 23.1754C142.603 23.7831 142.355 24.3124 141.973 24.7631C141.595 25.2099 141.098 25.558 140.482 25.8075C139.866 26.053 139.154 26.1758 138.345 26.1758Z" fill="#62C25F"/>
<path d="M144.253 26.0007V16.728H147.061V18.4304H147.163C147.356 17.8669 147.682 17.4222 148.141 17.0962C148.6 16.7702 149.147 16.6072 149.783 16.6072C150.427 16.6072 150.979 16.7722 151.437 17.1023C151.896 17.4323 152.188 17.875 152.313 18.4304H152.409C152.582 17.879 152.921 17.4383 153.424 17.1083C153.927 16.7743 154.52 16.6072 155.204 16.6072C156.082 16.6072 156.794 16.889 157.342 17.4524C157.889 18.0118 158.163 18.7805 158.163 19.7585V26.0007H155.211V20.4346C155.211 19.9718 155.092 19.6197 154.854 19.3782C154.617 19.1327 154.309 19.0099 153.931 19.0099C153.524 19.0099 153.204 19.1427 152.971 19.4084C152.741 19.67 152.627 20.0221 152.627 20.4648V26.0007H149.789V20.4045C149.789 19.9738 149.673 19.6337 149.439 19.3842C149.206 19.1347 148.898 19.0099 148.516 19.0099C148.258 19.0099 148.031 19.0723 147.833 19.1971C147.636 19.3178 147.481 19.4909 147.369 19.7163C147.26 19.9416 147.206 20.2073 147.206 20.5131V26.0007H144.253Z" fill="#EFC01C"/>
<path d="M159.992 26.0007V16.728H162.944V26.0007H159.992ZM161.471 15.6474C161.056 15.6474 160.7 15.5105 160.402 15.2369C160.104 14.9592 159.956 14.6251 159.956 14.2347C159.956 13.8484 160.104 13.5183 160.402 13.2447C160.7 12.967 161.056 12.8281 161.471 12.8281C161.889 12.8281 162.246 12.967 162.539 13.2447C162.837 13.5183 162.986 13.8484 162.986 14.2347C162.986 14.6251 162.837 14.9592 162.539 15.2369C162.246 15.5105 161.889 15.6474 161.471 15.6474Z" fill="#BA37B6"/>
<path d="M167.334 16.728L168.862 19.7827L170.443 16.728H173.419L170.83 21.3643L173.516 26.0007H170.564L168.862 22.9219L167.201 26.0007H164.207L166.9 21.3643L164.34 16.728H167.334Z" fill="#CB303C"/>
</g>
</g>
<rect x="1.07143" y="1.07143" width="179.858" height="37.8585" rx="6.92857" stroke="white" stroke-opacity="0.15" stroke-width="2.14286"/>
<defs>
<filter id="filter0_d_1_56" x="2.39972" y="0.39972" width="39.202" height="39.7006" filterUnits="userSpaceOnUse" color-interpolation-filters="sRGB">
<feFlood flood-opacity="0" result="BackgroundImageFix"/>
<feColorMatrix in="SourceAlpha" type="matrix" values="0 0 0 0 0 0 0 0 0 0 0 0 0 0 0 0 0 0 127 0" result="hardAlpha"/>
<feOffset/>
<feGaussianBlur stdDeviation="2.80014"/>
<feComposite in2="hardAlpha" operator="out"/>
<feColorMatrix type="matrix" values="0 0 0 0 0 0 0 0 0 0 0 0 0 0 0 0 0 0 0.25 0"/>
<feBlend mode="normal" in2="BackgroundImageFix" result="effect1_dropShadow_1_56"/>
<feBlend mode="normal" in="SourceGraphic" in2="effect1_dropShadow_1_56" result="shape"/>
</filter>
<filter id="filter1_d_1_56" x="36.2871" y="3.78642" width="143.429" height="32.4286" filterUnits="userSpaceOnUse" color-interpolation-filters="sRGB">
<feFlood flood-opacity="0" result="BackgroundImageFix"/>
<feColorMatrix in="SourceAlpha" type="matrix" values="0 0 0 0 0 0 0 0 0 0 0 0 0 0 0 0 0 0 127 0" result="hardAlpha"/>
<feOffset/>
<feGaussianBlur stdDeviation="2.85714"/>
<feComposite in2="hardAlpha" operator="out"/>
<feColorMatrix type="matrix" values="0 0 0 0 0 0 0 0 0 0 0 0 0 0 0 0 0 0 0.25 0"/>
<feBlend mode="normal" in2="BackgroundImageFix" result="effect1_dropShadow_1_56"/>
<feBlend mode="normal" in="SourceGraphic" in2="effect1_dropShadow_1_56" result="shape"/>
</filter>
<linearGradient id="paint0_linear_1_56" x1="91.0007" y1="0" x2="91.0007" y2="40.0014" gradientUnits="userSpaceOnUse">
<stop stop-color="#212121"/>
<stop offset="1" stop-color="#1B1B1B"/>
</linearGradient>
<clipPath id="clip0_1_56">
<rect width="182.001" height="40.0014" rx="8" fill="white"/>
</clipPath>
</defs>
</svg>
