<svg width="40" height="40" viewBox="0 0 40 40" fill="none" xmlns="http://www.w3.org/2000/svg">
<rect width="40" height="40" rx="8" fill="url(#paint0_linear_1_68)"/>
<rect x="1.05" y="1.05" width="37.9" height="37.9" rx="6.95" stroke="white" stroke-opacity="0.15" stroke-width="2.1"/>
<g filter="url(#filter0_d_1_68)">
<path fill-rule="evenodd" clip-rule="evenodd" d="M31.0161 27.5702C31.2677 30.8019 31.2677 32.3168 31.2677 33.9704H23.7905C23.7905 33.6102 23.7969 33.2808 23.8034 32.9466C23.8237 31.908 23.8448 30.8249 23.6765 28.6377C23.4541 25.4354 22.0751 24.7239 19.5396 24.7239H17.2932H7.77957V18.8977H19.8955C23.0982 18.8977 24.6996 17.9234 24.6996 15.3438C24.6996 13.0756 23.0982 11.7011 19.8955 11.7011H7.77957V6H21.23C28.4806 6 32.0837 9.42457 32.0837 14.895C32.0837 18.9866 29.5482 21.6551 26.123 22.0999C29.0144 22.678 30.7047 24.3236 31.0161 27.5702Z" fill="white"/>
<path d="M7.77957 33.9704V29.6272H15.6856C17.0062 29.6272 17.2929 30.6067 17.2929 31.1908V33.9704H7.77957Z" fill="white"/>
<path d="M7.75 33.9704V34H7.77957H17.2929H17.3225V33.9704V31.1908C17.3225 30.8948 17.25 30.4969 17.0082 30.1722C16.7653 29.8461 16.3542 29.5976 15.6856 29.5976H7.77957H7.75V29.6272V33.9704Z" stroke="white" stroke-opacity="0.8"/>
</g>
<defs>
<filter id="filter0_d_1_68" x="2" y="2" width="36" height="36.5" filterUnits="userSpaceOnUse" color-interpolation-filters="sRGB">
<feFlood flood-opacity="0" result="BackgroundImageFix"/>
<feColorMatrix in="SourceAlpha" type="matrix" values="0 0 0 0 0 0 0 0 0 0 0 0 0 0 0 0 0 0 127 0" result="hardAlpha"/>
<feOffset/>
<feGaussianBlur stdDeviation="2"/>
<feComposite in2="hardAlpha" operator="out"/>
<feColorMatrix type="matrix" values="0 0 0 0 0 0 0 0 0 0 0 0 0 0 0 0 0 0 0.25 0"/>
<feBlend mode="normal" in2="BackgroundImageFix" result="effect1_dropShadow_1_68"/>
<feBlend mode="normal" in="SourceGraphic" in2="effect1_dropShadow_1_68" result="shape"/>
</filter>
<linearGradient id="paint0_linear_1_68" x1="20" y1="0" x2="20" y2="40" gradientUnits="userSpaceOnUse">
<stop stop-color="#212121"/>
<stop offset="1" stop-color="#1B1B1B"/>
</linearGradient>
</defs>
</svg>
