<svg width="144" height="56" viewBox="0 0 144 56" fill="none" xmlns="http://www.w3.org/2000/svg">
<rect width="144" height="56" rx="8" fill="url(#paint0_linear_1_50)"/>
<rect x="1.05" y="1.05" width="141.9" height="53.9" rx="6.95" stroke="white" stroke-opacity="0.15" stroke-width="2.1"/>
<g filter="url(#filter0_d_1_50)">
<path fill-rule="evenodd" clip-rule="evenodd" d="M47.7373 38.8146C48.0967 43.4313 48.0967 45.5954 48.0967 47.9578H37.415C37.415 47.4432 37.4242 46.9725 37.4335 46.4952C37.4624 45.0114 37.4925 43.4642 37.2521 40.3395C36.9344 35.7649 34.9645 34.7484 31.3423 34.7484H28.1332H14.5422V26.4253H31.8507C36.426 26.4253 38.7137 25.0334 38.7137 21.3483C38.7137 18.108 36.426 16.1445 31.8507 16.1445H14.5422V8H33.7571C44.1151 8 49.2624 12.8922 49.2624 20.7071C49.2624 26.5523 45.6403 30.3644 40.7472 30.9998C44.8777 31.8257 47.2925 34.1766 47.7373 38.8146Z" fill="white"/>
<path d="M14.5422 47.9578V41.7532H25.8366C27.7231 41.7532 28.1328 43.1524 28.1328 43.9868V47.9578H14.5422Z" fill="white"/>
<path d="M14.5 47.9578V48H14.5422H28.1328H28.175V47.9578V43.9868C28.175 43.5639 28.0714 42.9956 27.726 42.5318C27.379 42.0659 26.7918 41.7109 25.8366 41.7109H14.5422H14.5V41.7532V47.9578Z" stroke="white" stroke-opacity="0.8"/>
</g>
<g filter="url(#filter1_d_1_50)">
<path d="M61.2784 24.5V12.8636H65.5398C66.3655 12.8636 67.0492 13 67.5909 13.2727C68.1326 13.5417 68.5379 13.9072 68.8068 14.3693C69.0757 14.8276 69.2102 15.3447 69.2102 15.9204C69.2102 16.4053 69.1212 16.8144 68.9432 17.1477C68.7651 17.4773 68.5265 17.7424 68.2273 17.9432C67.9318 18.1401 67.606 18.2841 67.25 18.375V18.4886C67.6363 18.5076 68.0132 18.6326 68.3807 18.8636C68.7519 19.0909 69.0587 19.4148 69.3011 19.8352C69.5435 20.2557 69.6648 20.767 69.6648 21.3693C69.6648 21.964 69.5246 22.4981 69.2443 22.9716C68.9678 23.4413 68.5398 23.8144 67.9602 24.0909C67.3807 24.3636 66.6401 24.5 65.7386 24.5H61.2784ZM63.0341 22.9943H65.5682C66.4091 22.9943 67.0113 22.8314 67.375 22.5057C67.7386 22.1799 67.9204 21.7727 67.9204 21.2841C67.9204 20.9167 67.8276 20.5795 67.642 20.2727C67.4564 19.9659 67.1913 19.7216 66.8466 19.5398C66.5057 19.3579 66.1004 19.267 65.6307 19.267H63.0341V22.9943ZM63.0341 17.8977H65.3863C65.7803 17.8977 66.1345 17.822 66.4488 17.6704C66.767 17.5189 67.0189 17.3068 67.2045 17.0341C67.3939 16.7576 67.4886 16.4318 67.4886 16.0568C67.4886 15.5758 67.3201 15.1723 66.9829 14.8466C66.6458 14.5208 66.1288 14.3579 65.4318 14.3579H63.0341V17.8977ZM77.1392 20.8807V15.7727H78.8437V24.5H77.1733V22.9886H77.0824C76.8816 23.4545 76.5596 23.8428 76.1165 24.1534C75.6771 24.4602 75.1297 24.6136 74.4744 24.6136C73.9138 24.6136 73.4176 24.4905 72.9858 24.2443C72.5577 23.9943 72.2206 23.625 71.9744 23.1364C71.732 22.6477 71.6108 22.0436 71.6108 21.3239V15.7727H73.3096V21.1193C73.3096 21.714 73.4744 22.1875 73.804 22.5398C74.1335 22.892 74.5615 23.0682 75.088 23.0682C75.4062 23.0682 75.7225 22.9886 76.0369 22.8295C76.3551 22.6704 76.6184 22.4299 76.8267 22.1079C77.0388 21.786 77.143 21.3769 77.1392 20.8807ZM81.1264 24.5V15.7727H82.8253V24.5H81.1264ZM81.9844 14.4261C81.6889 14.4261 81.4351 14.3276 81.223 14.1307C81.0147 13.9299 80.9105 13.6913 80.9105 13.4148C80.9105 13.1345 81.0147 12.8958 81.223 12.6989C81.4351 12.4981 81.6889 12.3977 81.9844 12.3977C82.2798 12.3977 82.5317 12.4981 82.74 12.6989C82.9522 12.8958 83.0582 13.1345 83.0582 13.4148C83.0582 13.6913 82.9522 13.9299 82.74 14.1307C82.5317 14.3276 82.2798 14.4261 81.9844 14.4261ZM86.8096 12.8636V24.5H85.1108V12.8636H86.8096ZM93.169 15.7727V17.1364H88.402V15.7727H93.169ZM89.6804 13.6818H91.3792V21.9375C91.3792 22.267 91.4285 22.5151 91.527 22.6818C91.6254 22.8447 91.7523 22.9564 91.9076 23.017C92.0667 23.0739 92.2391 23.1023 92.4247 23.1023C92.5611 23.1023 92.6804 23.0928 92.7826 23.0739C92.8849 23.0549 92.9645 23.0398 93.0213 23.0284L93.3281 24.4318C93.2296 24.4697 93.0895 24.5076 92.9076 24.5454C92.7258 24.5871 92.4986 24.6098 92.2258 24.6136C91.7789 24.6212 91.3622 24.5417 90.9758 24.375C90.5895 24.2083 90.277 23.9508 90.0383 23.6023C89.7997 23.2538 89.6804 22.8163 89.6804 22.2898V13.6818ZM101.175 24.5L98.6065 15.7727H100.362L102.072 22.1818H102.158L103.874 15.7727H105.629L107.334 22.1534H107.419L109.118 15.7727H110.874L108.311 24.5H106.578L104.805 18.1989H104.675L102.902 24.5H101.175ZM112.486 24.5V15.7727H114.185V24.5H112.486ZM113.344 14.4261C113.048 14.4261 112.794 14.3276 112.582 14.1307C112.374 13.9299 112.27 13.6913 112.27 13.4148C112.27 13.1345 112.374 12.8958 112.582 12.6989C112.794 12.4981 113.048 12.3977 113.344 12.3977C113.639 12.3977 113.891 12.4981 114.099 12.6989C114.312 12.8958 114.418 13.1345 114.418 13.4148C114.418 13.6913 114.312 13.9299 114.099 14.1307C113.891 14.3276 113.639 14.4261 113.344 14.4261ZM120.544 15.7727V17.1364H115.777V15.7727H120.544ZM117.055 13.6818H118.754V21.9375C118.754 22.267 118.803 22.5151 118.902 22.6818C119 22.8447 119.127 22.9564 119.283 23.017C119.442 23.0739 119.614 23.1023 119.8 23.1023C119.936 23.1023 120.055 23.0928 120.158 23.0739C120.26 23.0549 120.339 23.0398 120.396 23.0284L120.703 24.4318C120.605 24.4697 120.464 24.5076 120.283 24.5454C120.101 24.5871 119.874 24.6098 119.601 24.6136C119.154 24.6212 118.737 24.5417 118.351 24.375C117.964 24.2083 117.652 23.9508 117.413 23.6023C117.175 23.2538 117.055 22.8163 117.055 22.2898V13.6818ZM124.31 19.3182V24.5H122.611V12.8636H124.287V17.1932H124.395C124.599 16.7235 124.912 16.3504 125.332 16.0739C125.753 15.7973 126.302 15.6591 126.98 15.6591C127.579 15.6591 128.101 15.7822 128.548 16.0284C128.999 16.2746 129.348 16.642 129.594 17.1307C129.844 17.6155 129.969 18.2216 129.969 18.9489V24.5H128.27V19.1534C128.27 18.5133 128.105 18.017 127.776 17.6648C127.446 17.3087 126.988 17.1307 126.401 17.1307C125.999 17.1307 125.639 17.2159 125.321 17.3864C125.007 17.5568 124.758 17.8068 124.577 18.1364C124.399 18.4621 124.31 18.8561 124.31 19.3182Z" fill="#E8E8E8"/>
<path d="M60.9357 43.5V31.1364H66.043C66.9686 31.1364 67.7675 31.3034 68.4396 31.6374C69.1157 31.9674 69.6369 32.4423 70.0032 33.0621C70.3694 33.6779 70.5525 34.4084 70.5525 35.2535C70.5525 36.1108 70.3654 36.8392 69.9911 37.4389C69.6168 38.0346 69.0856 38.4893 68.3974 38.8033C67.7091 39.1132 66.8942 39.2681 65.9524 39.2681H62.7226V36.9137H65.397C65.8478 36.9137 66.2241 36.8553 66.5259 36.7386C66.8318 36.6179 67.0632 36.4368 67.2202 36.1953C67.3771 35.9498 67.4556 35.6359 67.4556 35.2535C67.4556 34.8712 67.3771 34.5553 67.2202 34.3057C67.0632 34.0522 66.8318 33.863 66.5259 33.7383C66.22 33.6095 65.8437 33.5451 65.397 33.5451H63.924V43.5H60.9357ZM67.8963 37.8494L70.9751 43.5H67.7152L64.6967 37.8494H67.8963Z" fill="#357CD4"/>
<path d="M76.3435 43.6751C75.3735 43.6751 74.5364 43.4839 73.8321 43.1016C73.1318 42.7152 72.5925 42.1658 72.2142 41.4535C71.8399 40.7371 71.6528 39.8859 71.6528 38.8998C71.6528 37.942 71.8419 37.1049 72.2202 36.3885C72.5986 35.6681 73.1318 35.1087 73.82 34.7102C74.5082 34.3078 75.3192 34.1065 76.2529 34.1065C76.9129 34.1065 77.5166 34.2092 78.064 34.4144C78.6113 34.6197 79.0842 34.9235 79.4827 35.326C79.8811 35.7284 80.191 36.2255 80.4124 36.8171C80.6337 37.4047 80.7444 38.0788 80.7444 38.8395V39.576H72.6851V37.8615H77.9976C77.9936 37.5476 77.9191 37.2679 77.7742 37.0224C77.6293 36.7769 77.4301 36.5857 77.1766 36.4489C76.927 36.308 76.6393 36.2376 76.3133 36.2376C75.9833 36.2376 75.6875 36.312 75.4259 36.4609C75.1642 36.6058 74.957 36.805 74.804 37.0586C74.6511 37.3081 74.5706 37.5918 74.5626 37.9098V39.6545C74.5626 40.0328 74.637 40.3648 74.7859 40.6506C74.9348 40.9323 75.1461 41.1516 75.4198 41.3086C75.6935 41.4655 76.0195 41.544 76.3978 41.544C76.6594 41.544 76.8968 41.5078 77.1102 41.4354C77.3235 41.3629 77.5066 41.2563 77.6595 41.1154C77.8125 40.9745 77.9272 40.8015 78.0036 40.5962L80.7142 40.6747C80.6015 41.2824 80.354 41.8117 79.9717 42.2624C79.5933 42.7092 79.0963 43.0573 78.4805 43.3068C77.8648 43.5523 77.1524 43.6751 76.3435 43.6751Z" fill="#62C25F"/>
<path d="M82.2521 43.5V34.2273H85.0593V35.9297H85.1619C85.3551 35.3662 85.6811 34.9215 86.1399 34.5955C86.5987 34.2695 87.146 34.1065 87.7819 34.1065C88.4259 34.1065 88.9772 34.2715 89.4361 34.6016C89.8949 34.9316 90.1866 35.3743 90.3114 35.9297H90.408C90.5811 35.3783 90.9191 34.9376 91.4222 34.6076C91.9253 34.2735 92.5189 34.1065 93.2031 34.1065C94.0805 34.1065 94.7928 34.3882 95.3402 34.9517C95.8875 35.5111 96.1612 36.2798 96.1612 37.2578V43.5H93.2091V37.9339C93.2091 37.4711 93.0904 37.119 92.853 36.8775C92.6155 36.632 92.3076 36.5092 91.9293 36.5092C91.5228 36.5092 91.2029 36.642 90.9694 36.9077C90.74 37.1693 90.6253 37.5214 90.6253 37.9641V43.5H87.788V37.9038C87.788 37.4731 87.6713 37.133 87.4378 36.8835C87.2044 36.634 86.8965 36.5092 86.5142 36.5092C86.2566 36.5092 86.0292 36.5716 85.832 36.6964C85.6348 36.8171 85.4799 36.9902 85.3672 37.2155C85.2585 37.4409 85.2042 37.7065 85.2042 38.0124V43.5H82.2521Z" fill="#EFC01C"/>
<path d="M97.9904 43.5V34.2273H100.942V43.5H97.9904ZM99.4694 33.1467C99.0549 33.1467 98.6987 33.0098 98.4009 32.7361C98.1031 32.4584 97.9542 32.1244 97.9542 31.734C97.9542 31.3476 98.1031 31.0176 98.4009 30.744C98.6987 30.4663 99.0549 30.3274 99.4694 30.3274C99.888 30.3274 100.244 30.4663 100.538 30.744C100.836 31.0176 100.985 31.3476 100.985 31.734C100.985 32.1244 100.836 32.4584 100.538 32.7361C100.244 33.0098 99.888 33.1467 99.4694 33.1467Z" fill="#BA37B6"/>
<path d="M105.333 34.2273L106.86 37.2819L108.442 34.2273H111.418L108.828 38.8636L111.515 43.5H108.563L106.86 40.4212L105.2 43.5H102.206L104.898 38.8636L102.338 34.2273H105.333Z" fill="#CB303C"/>
</g>
<defs>
<filter id="filter0_d_1_50" x="6.28571" y="2.28571" width="51.4286" height="51.9286" filterUnits="userSpaceOnUse" color-interpolation-filters="sRGB">
<feFlood flood-opacity="0" result="BackgroundImageFix"/>
<feColorMatrix in="SourceAlpha" type="matrix" values="0 0 0 0 0 0 0 0 0 0 0 0 0 0 0 0 0 0 127 0" result="hardAlpha"/>
<feOffset/>
<feGaussianBlur stdDeviation="2.85714"/>
<feComposite in2="hardAlpha" operator="out"/>
<feColorMatrix type="matrix" values="0 0 0 0 0 0 0 0 0 0 0 0 0 0 0 0 0 0 0.25 0"/>
<feBlend mode="normal" in2="BackgroundImageFix" result="effect1_dropShadow_1_50"/>
<feBlend mode="normal" in="SourceGraphic" in2="effect1_dropShadow_1_50" result="shape"/>
</filter>
<filter id="filter1_d_1_50" x="54.4" y="3.9" width="83.2" height="48.2" filterUnits="userSpaceOnUse" color-interpolation-filters="sRGB">
<feFlood flood-opacity="0" result="BackgroundImageFix"/>
<feColorMatrix in="SourceAlpha" type="matrix" values="0 0 0 0 0 0 0 0 0 0 0 0 0 0 0 0 0 0 127 0" result="hardAlpha"/>
<feOffset/>
<feGaussianBlur stdDeviation="2.8"/>
<feComposite in2="hardAlpha" operator="out"/>
<feColorMatrix type="matrix" values="0 0 0 0 0 0 0 0 0 0 0 0 0 0 0 0 0 0 0.25 0"/>
<feBlend mode="normal" in2="BackgroundImageFix" result="effect1_dropShadow_1_50"/>
<feBlend mode="normal" in="SourceGraphic" in2="effect1_dropShadow_1_50" result="shape"/>
</filter>
<linearGradient id="paint0_linear_1_50" x1="72" y1="0" x2="72" y2="56" gradientUnits="userSpaceOnUse">
<stop stop-color="#212121"/>
<stop offset="1" stop-color="#1B1B1B"/>
</linearGradient>
</defs>
</svg>
