<svg width="197" height="56" viewBox="0 0 197 56" fill="none" xmlns="http://www.w3.org/2000/svg">
<rect width="197" height="56" rx="8" fill="url(#paint0_linear_1_50)"/>
<rect x="1.05" y="1.05" width="194.9" height="53.9" rx="6.95" stroke="white" stroke-opacity="0.15" stroke-width="2.1"/>
<g filter="url(#filter0_d_1_50)">
<path d="M35.8093 24.9392L50.7027 8H47.1747L34.2373 22.7051L23.912 8H12L27.6173 30.2388L12 48H15.528L29.1813 32.4676L40.088 48H52M16.8013 10.6032H22.2213L47.172 45.5247H41.7507" fill="white"/>
</g>
<g filter="url(#filter1_d_1_50)">
<path d="M70.9432 16.6477H69.1704C69.1023 16.2689 68.9754 15.9356 68.7898 15.6477C68.6041 15.3598 68.3769 15.1155 68.1079 14.9148C67.839 14.714 67.5379 14.5625 67.2045 14.4602C66.875 14.358 66.5246 14.3068 66.1534 14.3068C65.4829 14.3068 64.8826 14.4754 64.3523 14.8125C63.8257 15.1496 63.4091 15.6439 63.1023 16.2954C62.7992 16.947 62.6477 17.7424 62.6477 18.6818C62.6477 19.6288 62.7992 20.428 63.1023 21.0795C63.4091 21.7311 63.8276 22.2235 64.3579 22.5568C64.8882 22.8901 65.4848 23.0568 66.1477 23.0568C66.5151 23.0568 66.8636 23.0076 67.1932 22.9091C67.5265 22.8068 67.8276 22.6572 68.0966 22.4602C68.3655 22.2633 68.5928 22.0227 68.7784 21.7386C68.9678 21.4508 69.0985 21.1212 69.1704 20.75L70.9432 20.7557C70.8485 21.3276 70.6648 21.8542 70.392 22.3352C70.1231 22.8125 69.7765 23.2254 69.3523 23.5739C68.9318 23.9186 68.4507 24.1856 67.9091 24.375C67.3674 24.5644 66.7765 24.6591 66.1363 24.6591C65.1288 24.6591 64.231 24.4204 63.4432 23.9432C62.6553 23.4621 62.0341 22.7746 61.5795 21.8807C61.1288 20.9867 60.9034 19.9204 60.9034 18.6818C60.9034 17.4394 61.1307 16.3731 61.5852 15.4829C62.0398 14.589 62.661 13.9034 63.4488 13.4261C64.2367 12.9451 65.1326 12.7045 66.1363 12.7045C66.7538 12.7045 67.3295 12.7936 67.8636 12.9716C68.4015 13.1458 68.8845 13.4034 69.3125 13.7443C69.7405 14.0814 70.0947 14.4943 70.375 14.9829C70.6553 15.4678 70.8447 16.0227 70.9432 16.6477ZM74.6065 19.3182V24.5H72.9077V12.8636H74.5838V17.1932H74.6917C74.8963 16.7235 75.2088 16.3504 75.6292 16.0739C76.0497 15.7973 76.5989 15.6591 77.277 15.6591C77.8755 15.6591 78.3982 15.7822 78.8451 16.0284C79.2959 16.2746 79.6444 16.642 79.8906 17.1307C80.1406 17.6155 80.2656 18.2216 80.2656 18.9489V24.5H78.5667V19.1534C78.5667 18.5133 78.402 18.017 78.0724 17.6648C77.7429 17.3087 77.2845 17.1307 76.6974 17.1307C76.2959 17.1307 75.9361 17.2159 75.6179 17.3864C75.3035 17.5568 75.0554 17.8068 74.8736 18.1364C74.6955 18.4621 74.6065 18.8561 74.6065 19.3182ZM85.0724 24.6932C84.5194 24.6932 84.0194 24.5909 83.5724 24.3864C83.1255 24.178 82.7713 23.8769 82.5099 23.4829C82.2523 23.089 82.1236 22.6061 82.1236 22.0341C82.1236 21.5417 82.2183 21.1364 82.4076 20.8182C82.597 20.5 82.8527 20.2481 83.1747 20.0625C83.4967 19.8769 83.8565 19.7367 84.2542 19.642C84.652 19.5473 85.0573 19.4754 85.4701 19.4261C85.9929 19.3655 86.4171 19.3163 86.7429 19.2784C87.0686 19.2367 87.3054 19.1704 87.4531 19.0795C87.6008 18.9886 87.6747 18.8409 87.6747 18.6364V18.5966C87.6747 18.1004 87.5345 17.7159 87.2542 17.4432C86.9777 17.1704 86.5648 17.0341 86.0156 17.0341C85.4436 17.0341 84.9929 17.161 84.6633 17.4148C84.3376 17.6648 84.1122 17.9432 83.9872 18.25L82.3906 17.8864C82.58 17.3561 82.8565 16.928 83.2201 16.6023C83.5876 16.2727 84.0099 16.0341 84.4872 15.8864C84.9645 15.7348 85.4664 15.6591 85.9929 15.6591C86.3414 15.6591 86.7107 15.7008 87.1008 15.7841C87.4948 15.8636 87.8622 16.0114 88.2031 16.2273C88.5478 16.4432 88.83 16.7519 89.0497 17.1534C89.2694 17.5511 89.3792 18.0682 89.3792 18.7045V24.5H87.7201V23.3068H87.652C87.5421 23.5265 87.3773 23.7424 87.1576 23.9545C86.938 24.1667 86.6558 24.3428 86.3111 24.4829C85.9664 24.6231 85.5535 24.6932 85.0724 24.6932ZM85.4417 23.3295C85.9114 23.3295 86.313 23.2367 86.6463 23.0511C86.9834 22.8655 87.2391 22.6231 87.4133 22.3239C87.5914 22.0208 87.6804 21.697 87.6804 21.3523V20.2273C87.6198 20.2879 87.5023 20.3447 87.3281 20.3977C87.1576 20.447 86.9626 20.4905 86.7429 20.5284C86.5232 20.5625 86.3092 20.5947 86.1008 20.625C85.8925 20.6515 85.7183 20.6742 85.5781 20.6932C85.2486 20.7348 84.9474 20.8049 84.6747 20.9034C84.4058 21.0019 84.1898 21.1439 84.027 21.3295C83.8679 21.5114 83.7883 21.7538 83.7883 22.0568C83.7883 22.4773 83.9436 22.7954 84.2542 23.0114C84.5648 23.2235 84.9607 23.3295 85.4417 23.3295ZM95.7159 15.7727V17.1364H90.9488V15.7727H95.7159ZM92.2272 13.6818H93.9261V21.9375C93.9261 22.267 93.9754 22.5151 94.0738 22.6818C94.1723 22.8447 94.2992 22.9564 94.4545 23.017C94.6136 23.0739 94.786 23.1023 94.9716 23.1023C95.1079 23.1023 95.2272 23.0928 95.3295 23.0739C95.4318 23.0549 95.5113 23.0398 95.5682 23.0284L95.875 24.4318C95.7765 24.4697 95.6363 24.5076 95.4545 24.5454C95.2727 24.5871 95.0454 24.6098 94.7727 24.6136C94.3257 24.6212 93.9091 24.5417 93.5227 24.375C93.1363 24.2083 92.8238 23.9508 92.5852 23.6023C92.3466 23.2538 92.2272 22.8163 92.2272 22.2898V13.6818ZM103.722 24.5L101.153 15.7727H102.909L104.619 22.1818H104.705L106.42 15.7727H108.176L109.881 22.1534H109.966L111.665 15.7727H113.42L110.858 24.5H109.125L107.352 18.1989H107.222L105.449 24.5H103.722ZM115.033 24.5V15.7727H116.732V24.5H115.033ZM115.891 14.4261C115.595 14.4261 115.341 14.3276 115.129 14.1307C114.921 13.9299 114.817 13.6913 114.817 13.4148C114.817 13.1345 114.921 12.8958 115.129 12.6989C115.341 12.4981 115.595 12.3977 115.891 12.3977C116.186 12.3977 116.438 12.4981 116.646 12.6989C116.858 12.8958 116.964 13.1345 116.964 13.4148C116.964 13.6913 116.858 13.9299 116.646 14.1307C116.438 14.3276 116.186 14.4261 115.891 14.4261ZM123.091 15.7727V17.1364H118.324V15.7727H123.091ZM119.602 13.6818H121.301V21.9375C121.301 22.267 121.35 22.5151 121.449 22.6818C121.547 22.8447 121.674 22.9564 121.83 23.017C121.989 23.0739 122.161 23.1023 122.347 23.1023C122.483 23.1023 122.602 23.0928 122.705 23.0739C122.807 23.0549 122.886 23.0398 122.943 23.0284L123.25 24.4318C123.151 24.4697 123.011 24.5076 122.83 24.5454C122.648 24.5871 122.42 24.6098 122.148 24.6136C121.701 24.6212 121.284 24.5417 120.898 24.375C120.511 24.2083 120.199 23.9508 119.96 23.6023C119.722 23.2538 119.602 22.8163 119.602 22.2898V13.6818ZM126.856 19.3182V24.5H125.158V12.8636H126.834V17.1932H126.942C127.146 16.7235 127.459 16.3504 127.879 16.0739C128.3 15.7973 128.849 15.6591 129.527 15.6591C130.125 15.6591 130.648 15.7822 131.095 16.0284C131.546 16.2746 131.894 16.642 132.141 17.1307C132.391 17.6155 132.516 18.2216 132.516 18.9489V24.5H130.817V19.1534C130.817 18.5133 130.652 18.017 130.322 17.6648C129.993 17.3087 129.535 17.1307 128.947 17.1307C128.546 17.1307 128.186 17.2159 127.868 17.3864C127.553 17.5568 127.305 17.8068 127.124 18.1364C126.946 18.4621 126.856 18.8561 126.856 19.3182ZM139.017 24.5V15.7727H140.648V17.1932H140.756C140.937 16.7121 141.235 16.3371 141.648 16.0682C142.061 15.7954 142.555 15.6591 143.131 15.6591C143.714 15.6591 144.203 15.7954 144.597 16.0682C144.994 16.3409 145.288 16.7159 145.477 17.1932H145.568C145.776 16.7273 146.108 16.3561 146.562 16.0795C147.017 15.7992 147.559 15.6591 148.187 15.6591C148.979 15.6591 149.625 15.9072 150.125 16.4034C150.629 16.8996 150.881 17.6477 150.881 18.6477V24.5H149.182V18.8068C149.182 18.2159 149.021 17.7879 148.699 17.5227C148.377 17.2576 147.992 17.125 147.545 17.125C146.992 17.125 146.562 17.2954 146.256 17.6364C145.949 17.9735 145.795 18.4072 145.795 18.9375V24.5H144.102V18.6989C144.102 18.2254 143.955 17.8447 143.659 17.5568C143.364 17.2689 142.979 17.125 142.506 17.125C142.184 17.125 141.886 17.2102 141.614 17.3807C141.345 17.5473 141.127 17.7803 140.96 18.0795C140.797 18.3788 140.716 18.7254 140.716 19.1193V24.5H139.017ZM156.919 24.6761C156.059 24.6761 155.319 24.4924 154.697 24.125C154.08 23.7538 153.603 23.2329 153.266 22.5625C152.932 21.8883 152.766 21.0985 152.766 20.1932C152.766 19.2992 152.932 18.5114 153.266 17.8295C153.603 17.1477 154.072 16.6155 154.675 16.2329C155.281 15.8504 155.989 15.6591 156.8 15.6591C157.292 15.6591 157.769 15.7405 158.231 15.9034C158.694 16.0663 159.108 16.322 159.476 16.6704C159.843 17.0189 160.133 17.4716 160.345 18.0284C160.557 18.5814 160.663 19.2538 160.663 20.0454V20.6477H153.726V19.375H158.999C158.999 18.928 158.908 18.5322 158.726 18.1875C158.544 17.839 158.288 17.5644 157.959 17.3636C157.633 17.1629 157.25 17.0625 156.811 17.0625C156.334 17.0625 155.917 17.1799 155.561 17.4148C155.209 17.6458 154.936 17.9489 154.743 18.3239C154.553 18.6951 154.459 19.0985 154.459 19.5341V20.5284C154.459 21.1117 154.561 21.6079 154.766 22.017C154.974 22.4261 155.264 22.7386 155.635 22.9545C156.006 23.1667 156.44 23.2727 156.936 23.2727C157.258 23.2727 157.552 23.2273 157.817 23.1364C158.082 23.0417 158.311 22.9015 158.504 22.7159C158.697 22.5303 158.845 22.3011 158.947 22.0284L160.555 22.3182C160.427 22.7917 160.196 23.2064 159.862 23.5625C159.533 23.9148 159.118 24.1894 158.618 24.3864C158.122 24.5795 157.555 24.6761 156.919 24.6761ZM170.459 24.6761C169.641 24.6761 168.927 24.4886 168.317 24.1136C167.707 23.7386 167.233 23.214 166.896 22.5398C166.559 21.8655 166.391 21.0776 166.391 20.1761C166.391 19.2708 166.559 18.4792 166.896 17.8011C167.233 17.1231 167.707 16.5966 168.317 16.2216C168.927 15.8466 169.641 15.6591 170.459 15.6591C171.277 15.6591 171.991 15.8466 172.601 16.2216C173.211 16.5966 173.684 17.1231 174.021 17.8011C174.358 18.4792 174.527 19.2708 174.527 20.1761C174.527 21.0776 174.358 21.8655 174.021 22.5398C173.684 23.214 173.211 23.7386 172.601 24.1136C171.991 24.4886 171.277 24.6761 170.459 24.6761ZM170.464 23.25C170.995 23.25 171.434 23.1098 171.783 22.8295C172.131 22.5492 172.389 22.1761 172.555 21.7102C172.726 21.2443 172.811 20.7311 172.811 20.1704C172.811 19.6136 172.726 19.1023 172.555 18.6364C172.389 18.1667 172.131 17.7898 171.783 17.5057C171.434 17.2216 170.995 17.0795 170.464 17.0795C169.93 17.0795 169.487 17.2216 169.135 17.5057C168.786 17.7898 168.527 18.1667 168.356 18.6364C168.19 19.1023 168.106 19.6136 168.106 20.1704C168.106 20.7311 168.19 21.2443 168.356 21.7102C168.527 22.1761 168.786 22.5492 169.135 22.8295C169.487 23.1098 169.93 23.25 170.464 23.25ZM178.122 19.3182V24.5H176.423V15.7727H178.054V17.1932H178.162C178.363 16.7311 178.677 16.3598 179.105 16.0795C179.537 15.7992 180.08 15.6591 180.736 15.6591C181.33 15.6591 181.851 15.7841 182.298 16.0341C182.745 16.2803 183.092 16.6477 183.338 17.1364C183.584 17.625 183.707 18.2292 183.707 18.9489V24.5H182.008V19.1534C182.008 18.5208 181.844 18.0265 181.514 17.6704C181.185 17.3106 180.732 17.1307 180.156 17.1307C179.762 17.1307 179.412 17.2159 179.105 17.3864C178.802 17.5568 178.562 17.8068 178.383 18.1364C178.209 18.4621 178.122 18.8561 178.122 19.3182Z" fill="#E8E8E8"/>
<path d="M63.9602 31.1364L66.218 35.0422H66.3146L68.5966 31.1364H71.941L68.2102 37.3182L72.0618 43.5H68.6328L66.3146 39.5518H66.218L63.8998 43.5H60.495L64.3285 37.3182L60.5916 31.1364H63.9602Z" fill="white"/>
</g>
<defs>
<filter id="filter0_d_1_50" x="6.28571" y="2.28571" width="51.4286" height="51.4286" filterUnits="userSpaceOnUse" color-interpolation-filters="sRGB">
<feFlood flood-opacity="0" result="BackgroundImageFix"/>
<feColorMatrix in="SourceAlpha" type="matrix" values="0 0 0 0 0 0 0 0 0 0 0 0 0 0 0 0 0 0 127 0" result="hardAlpha"/>
<feOffset/>
<feGaussianBlur stdDeviation="2.85714"/>
<feComposite in2="hardAlpha" operator="out"/>
<feColorMatrix type="matrix" values="0 0 0 0 0 0 0 0 0 0 0 0 0 0 0 0 0 0 0.25 0"/>
<feBlend mode="normal" in2="BackgroundImageFix" result="effect1_dropShadow_1_50"/>
<feBlend mode="normal" in="SourceGraphic" in2="effect1_dropShadow_1_50" result="shape"/>
</filter>
<filter id="filter1_d_1_50" x="54.4" y="3.9" width="136.2" height="48.2" filterUnits="userSpaceOnUse" color-interpolation-filters="sRGB">
<feFlood flood-opacity="0" result="BackgroundImageFix"/>
<feColorMatrix in="SourceAlpha" type="matrix" values="0 0 0 0 0 0 0 0 0 0 0 0 0 0 0 0 0 0 127 0" result="hardAlpha"/>
<feOffset/>
<feGaussianBlur stdDeviation="2.8"/>
<feComposite in2="hardAlpha" operator="out"/>
<feColorMatrix type="matrix" values="0 0 0 0 0 0 0 0 0 0 0 0 0 0 0 0 0 0 0.25 0"/>
<feBlend mode="normal" in2="BackgroundImageFix" result="effect1_dropShadow_1_50"/>
<feBlend mode="normal" in="SourceGraphic" in2="effect1_dropShadow_1_50" result="shape"/>
</filter>
<linearGradient id="paint0_linear_1_50" x1="98.5" y1="0" x2="98.5" y2="56" gradientUnits="userSpaceOnUse">
<stop stop-color="#202020"/>
<stop offset="1"/>
</linearGradient>
</defs>
</svg>
