<svg width="182" height="40" viewBox="0 0 182 40" fill="none" xmlns="http://www.w3.org/2000/svg">
<rect width="182.001" height="40.0014" rx="8" fill="url(#paint0_linear_1_56)"/>
<rect x="1.07143" y="1.07143" width="179.858" height="37.8585" rx="6.92857" stroke="white" stroke-opacity="0.15" stroke-width="2.14286"/>
<g filter="url(#filter0_d_1_56)">
<path d="M34.2874 24.8661C34.2874 24.8661 34.2466 24.6157 34.2228 24.618L29.6784 25.0564C29.3168 25.0913 29.036 25.3797 29.0106 25.742L28.8858 27.5314L25.3701 27.7822L25.131 26.1605C25.0777 25.7998 24.7627 25.5279 24.3981 25.5279H19.6019C19.2374 25.5279 18.9224 25.7998 18.8691 26.1605L18.6299 27.7822L15.1142 27.5314L14.9894 25.742C14.964 25.3796 14.6832 25.0912 14.3216 25.0563L9.77498 24.618C9.7515 24.6157 9.73429 24.8664 9.71081 24.8664L9.70465 25.8498L13.5552 26.4707L13.6813 28.2761C13.7068 28.6415 14.0017 28.9371 14.3674 28.9633L19.2093 29.3087C19.2276 29.31 19.2457 29.3107 19.2638 29.3107C19.6276 29.3107 19.9421 29.0387 19.9954 28.678L20.2414 27.0093H23.7587L24.0048 28.678C24.0579 29.0386 24.3728 29.3106 24.7371 29.3106C24.7549 29.3106 24.7728 29.31 24.7902 29.3087L29.6327 28.9633C29.9983 28.9371 30.2934 28.6415 30.3189 28.2761L30.4448 26.4707L34.2937 25.847L34.2874 24.8661Z" fill="white"/>
<path d="M9.71074 17.4508V23.4184V24.1763V24.8661C9.72431 24.8662 9.73787 24.8667 9.75131 24.868L14.2974 25.3063C14.5355 25.3293 14.7222 25.521 14.7387 25.7596L14.8789 27.7664L18.8445 28.0493L19.1176 26.1972C19.1531 25.957 19.359 25.7791 19.6019 25.7791H24.3982C24.641 25.7791 24.8469 25.957 24.8824 26.1972L25.1555 28.0493L29.1212 27.7664L29.2613 25.7596C29.278 25.521 29.4645 25.3294 29.7026 25.3063L34.2469 24.868C34.2604 24.8667 34.2738 24.8662 34.2874 24.8661V24.2744L34.2893 24.2738V17.4508C34.9294 16.6449 35.5356 15.756 36 15.0081C35.2903 13.7998 34.4206 12.7201 33.4911 11.7197C32.629 12.1537 31.7917 12.6452 31.0008 13.1683C30.605 12.775 30.1593 12.4532 29.7215 12.1169C29.2913 11.7713 28.8065 11.518 28.3467 11.2229C28.4836 10.2034 28.5513 9.19976 28.5785 8.15229C27.3922 7.55521 26.127 7.15933 24.8473 6.87498C24.3364 7.73368 23.8692 8.6636 23.4623 9.57266C22.9797 9.49203 22.4949 9.46214 22.0095 9.45636V9.4556C22.0061 9.4556 22.003 9.45636 22.0001 9.45636C21.997 9.45636 21.9939 9.4556 21.9909 9.4556V9.45636C21.5046 9.46214 21.0202 9.49203 20.5375 9.57266C20.1308 8.6636 19.6639 7.73368 19.1522 6.87498C17.8731 7.15933 16.6078 7.55521 15.4216 8.15229C15.4487 9.19976 15.5164 10.2034 15.6537 11.2229C15.193 11.518 14.7088 11.7713 14.2785 12.1169C13.8413 12.4532 13.3949 12.775 12.999 13.1683C12.2081 12.6452 11.371 12.1537 10.5087 11.7197C9.57912 12.7201 8.70999 13.7998 8 15.0081C8.55798 15.8839 9.15648 16.7643 9.71074 17.4508Z" fill="#478CBF"/>
<path d="M30.209 26.2411L30.0683 28.2585C30.0513 28.5017 29.8579 28.6952 29.6147 28.7127L24.7724 29.0582C24.7606 29.0591 24.7488 29.0595 24.7371 29.0595C24.4964 29.0595 24.2888 28.8829 24.2533 28.6412L23.9756 26.7581H20.0245L19.7468 28.6412C19.7095 28.8947 19.4829 29.0769 19.2277 29.0582L14.3853 28.7127C14.1422 28.6952 13.9488 28.5017 13.9318 28.2585L13.791 26.2411L9.70324 25.847C9.70512 26.2863 9.71078 26.7676 9.71078 26.8634C9.71078 31.1807 15.1874 33.2558 21.9917 33.2796H22H22.0084C28.8127 33.2558 34.2874 31.1807 34.2874 26.8634C34.2874 26.7658 34.2933 26.2866 34.2953 25.847L30.209 26.2411Z" fill="#478CBF"/>
<path d="M18.2953 20.4609C18.2953 21.9746 17.0688 23.2008 15.5556 23.2008C14.0432 23.2008 12.8164 21.9746 12.8164 20.4609C12.8164 18.9483 14.0432 17.7227 15.5556 17.7227C17.0688 17.7227 18.2953 18.9483 18.2953 20.4609Z" fill="white"/>
<path d="M17.6361 20.6234C17.6361 21.6274 16.8223 22.4412 15.8176 22.4412C14.8133 22.4412 13.9991 21.6274 13.9991 20.6234C13.9991 19.6194 14.8133 18.8049 15.8176 18.8049C16.8223 18.8049 17.6361 19.6194 17.6361 20.6234Z" fill="#414042"/>
<path d="M21.9998 23.4501C21.5127 23.4501 21.118 23.0911 21.118 22.6486V20.1265C21.118 19.6844 21.5127 19.3251 21.9998 19.3251C22.4869 19.3251 22.8825 19.6844 22.8825 20.1265V22.6486C22.8825 23.0911 22.4869 23.4501 21.9998 23.4501Z" fill="white"/>
<path d="M25.7048 20.4609C25.7048 21.9746 26.9312 23.2008 28.4447 23.2008C29.957 23.2008 31.1837 21.9746 31.1837 20.4609C31.1837 18.9483 29.957 17.7227 28.4447 17.7227C26.9312 17.7227 25.7048 18.9483 25.7048 20.4609Z" fill="white"/>
<path d="M26.3642 20.6234C26.3642 21.6274 27.1776 22.4412 28.1817 22.4412C29.1867 22.4412 30.0002 21.6274 30.0002 20.6234C30.0002 19.6194 29.1867 18.8049 28.1817 18.8049C27.1776 18.8049 26.3642 19.6194 26.3642 20.6234Z" fill="#414042"/>
</g>
<g filter="url(#filter1_d_1_56)">
<path d="M43.3597 26.5007V14.1371H47.8874C48.7648 14.1371 49.4912 14.282 50.0667 14.5717C50.6423 14.8575 51.0729 15.2458 51.3586 15.7369C51.6444 16.2238 51.7873 16.7732 51.7873 17.3849C51.7873 17.9001 51.6927 18.3347 51.5035 18.6889C51.3144 19.0391 51.0608 19.3208 50.7429 19.5341C50.429 19.7434 50.0828 19.8963 49.7045 19.9929V20.1136C50.115 20.1337 50.5155 20.2666 50.9059 20.5121C51.3003 20.7535 51.6263 21.0976 51.8839 21.5444C52.1414 21.9911 52.2702 22.5344 52.2702 23.1743C52.2702 23.8062 52.1213 24.3737 51.8235 24.8768C51.5297 25.3758 51.0749 25.7722 50.4591 26.066C49.8434 26.3558 49.0566 26.5007 48.0987 26.5007H43.3597ZM45.2251 24.9009H47.9176C48.8111 24.9009 49.451 24.7279 49.8373 24.3817C50.2237 24.0356 50.4169 23.603 50.4169 23.0838C50.4169 22.6934 50.3183 22.3352 50.1211 22.0092C49.9239 21.6832 49.6421 21.4236 49.2759 21.2305C48.9137 21.0373 48.483 20.9407 47.984 20.9407H45.2251V24.9009ZM45.2251 19.4858H47.7244C48.143 19.4858 48.5193 19.4053 48.8533 19.2443C49.1914 19.0833 49.459 18.8579 49.6562 18.5682C49.8575 18.2744 49.9581 17.9283 49.9581 17.5298C49.9581 17.0187 49.779 16.5901 49.4208 16.244C49.0626 15.8978 48.5132 15.7248 47.7727 15.7248H45.2251V19.4858ZM60.2118 22.6552V17.228H62.0229V26.5007H60.248V24.8949H60.1514C59.9381 25.3899 59.596 25.8024 59.1251 26.1324C58.6583 26.4584 58.0767 26.6214 57.3805 26.6214C56.7848 26.6214 56.2576 26.4906 55.7988 26.229C55.344 25.9634 54.9858 25.571 54.7242 25.0518C54.4667 24.5327 54.3379 23.8907 54.3379 23.1261V17.228H56.1429V22.9087C56.1429 23.5406 56.318 24.0437 56.6681 24.418C57.0183 24.7922 57.473 24.9794 58.0325 24.9794C58.3705 24.9794 58.7066 24.8949 59.0406 24.7258C59.3787 24.5568 59.6584 24.3012 59.8798 23.9591C60.1051 23.6171 60.2158 23.1824 60.2118 22.6552ZM64.4482 26.5007V17.228H66.2533V26.5007H64.4482ZM65.3598 15.7972C65.0459 15.7972 64.7762 15.6926 64.5508 15.4833C64.3295 15.27 64.2188 15.0164 64.2188 14.7226C64.2188 14.4248 64.3295 14.1713 64.5508 13.962C64.7762 13.7487 65.0459 13.642 65.3598 13.642C65.6737 13.642 65.9413 13.7487 66.1627 13.962C66.3881 14.1713 66.5008 14.4248 66.5008 14.7226C66.5008 15.0164 66.3881 15.27 66.1627 15.4833C65.9413 15.6926 65.6737 15.7972 65.3598 15.7972ZM70.4867 14.1371V26.5007H68.6816V14.1371H70.4867ZM77.2435 17.228V18.6768H72.1785V17.228H77.2435ZM73.5368 15.0064H75.3419V23.778C75.3419 24.1282 75.3942 24.3918 75.4988 24.5689C75.6035 24.7419 75.7383 24.8607 75.9033 24.9251C76.0723 24.9854 76.2554 25.0156 76.4526 25.0156C76.5975 25.0156 76.7243 25.0056 76.833 24.9854C76.9416 24.9653 77.0262 24.9492 77.0865 24.9371L77.4125 26.4283C77.3079 26.4685 77.159 26.5087 76.9658 26.549C76.7726 26.5933 76.5311 26.6174 76.2414 26.6214C75.7664 26.6295 75.3237 26.545 74.9132 26.3679C74.5027 26.1908 74.1707 25.9171 73.9171 25.5469C73.6636 25.1766 73.5368 24.7118 73.5368 24.1523V15.0064ZM85.7495 26.5007L83.0208 17.228H84.8862L86.7034 24.0376H86.7939L88.6171 17.228H90.4825L92.2936 24.0074H92.3841L94.1891 17.228H96.0546L93.3319 26.5007H91.4906L89.6071 19.8057H89.4683L87.5847 26.5007H85.7495ZM97.7675 26.5007V17.228H99.5726V26.5007H97.7675ZM98.6791 15.7972C98.3652 15.7972 98.0955 15.6926 97.8702 15.4833C97.6488 15.27 97.5381 15.0164 97.5381 14.7226C97.5381 14.4248 97.6488 14.1713 97.8702 13.962C98.0955 13.7487 98.3652 13.642 98.6791 13.642C98.993 13.642 99.2607 13.7487 99.482 13.962C99.7074 14.1713 99.8201 14.4248 99.8201 14.7226C99.8201 15.0164 99.7074 15.27 99.482 15.4833C99.2607 15.6926 98.993 15.7972 98.6791 15.7972ZM106.329 17.228V18.6768H101.264V17.228H106.329ZM102.623 15.0064H104.428V23.778C104.428 24.1282 104.48 24.3918 104.585 24.5689C104.689 24.7419 104.824 24.8607 104.989 24.9251C105.158 24.9854 105.341 25.0156 105.539 25.0156C105.683 25.0156 105.81 25.0056 105.919 24.9854C106.028 24.9653 106.112 24.9492 106.172 24.9371L106.498 26.4283C106.394 26.4685 106.245 26.5087 106.052 26.549C105.859 26.5933 105.617 26.6174 105.327 26.6214C104.852 26.6295 104.41 26.545 103.999 26.3679C103.589 26.1908 103.257 25.9171 103.003 25.5469C102.75 25.1766 102.623 24.7118 102.623 24.1523V15.0064ZM110.33 20.995V26.5007H108.525V14.1371H110.306V18.7372H110.421C110.638 18.2382 110.97 17.8417 111.417 17.5479C111.864 17.2541 112.447 17.1072 113.168 17.1072C113.804 17.1072 114.359 17.238 114.834 17.4996C115.313 17.7612 115.683 18.1516 115.945 18.6708C116.21 19.1859 116.343 19.8299 116.343 20.6026V26.5007H114.538V20.8199C114.538 20.1398 114.363 19.6126 114.013 19.2383C113.663 18.86 113.176 18.6708 112.552 18.6708C112.125 18.6708 111.743 18.7614 111.405 18.9425C111.071 19.1236 110.807 19.3892 110.614 19.7393C110.425 20.0855 110.33 20.504 110.33 20.995Z" fill="#E8E8E8"/>
<path d="M131.051 17.6758C130.982 17.4222 130.882 17.1989 130.749 17.0057C130.616 16.8085 130.453 16.6414 130.26 16.5046C130.067 16.3678 129.845 16.2651 129.596 16.1967C129.346 16.1243 129.073 16.0881 128.775 16.0881C128.175 16.0881 127.656 16.2329 127.217 16.5227C126.783 16.8125 126.447 17.2351 126.209 17.7905C125.972 18.3418 125.853 19.0119 125.853 19.8008C125.853 20.5936 125.968 21.2698 126.197 21.8292C126.426 22.3886 126.758 22.8152 127.193 23.109C127.628 23.4028 128.155 23.5497 128.775 23.5497C129.322 23.5497 129.785 23.4612 130.163 23.2841C130.546 23.103 130.835 22.8474 131.033 22.5174C131.23 22.1874 131.328 21.799 131.328 21.3523L131.884 21.4187H128.877V19.2393H134.208V20.8753C134.208 21.9821 133.973 22.9299 133.502 23.7187C133.035 24.5076 132.391 25.1133 131.57 25.5359C130.753 25.9584 129.813 26.1697 128.751 26.1697C127.571 26.1697 126.535 25.9142 125.642 25.403C124.748 24.8919 124.052 24.1635 123.553 23.2177C123.054 22.2679 122.804 21.141 122.804 19.837C122.804 18.8228 122.955 17.9233 123.257 17.1385C123.559 16.3497 123.979 15.6816 124.519 15.1342C125.062 14.5869 125.69 14.1723 126.402 13.8906C127.119 13.6089 127.889 13.468 128.714 13.468C129.431 13.468 130.097 13.5707 130.713 13.7759C131.332 13.9812 131.88 14.2709 132.355 14.6452C132.834 15.0195 133.222 15.4642 133.52 15.9794C133.818 16.4945 134.003 17.06 134.075 17.6758H131.051ZM140.298 26.1758C139.324 26.1758 138.487 25.9765 137.786 25.5781C137.09 25.1757 136.553 24.6162 136.175 23.8998C135.8 23.1794 135.613 22.3443 135.613 21.3945C135.613 20.4407 135.8 19.6056 136.175 18.8892C136.553 18.1688 137.09 17.6094 137.786 17.2109C138.487 16.8085 139.324 16.6072 140.298 16.6072C141.272 16.6072 142.107 16.8085 142.803 17.2109C143.503 17.6094 144.041 18.1688 144.415 18.8892C144.793 19.6056 144.982 20.4407 144.982 21.3945C144.982 22.3443 144.793 23.1794 144.415 23.8998C144.041 24.6162 143.503 25.1757 142.803 25.5781C142.107 25.9765 141.272 26.1758 140.298 26.1758ZM140.316 23.9481C140.67 23.9481 140.97 23.8395 141.215 23.6221C141.461 23.4048 141.648 23.103 141.777 22.7166C141.91 22.3302 141.976 21.8835 141.976 21.3764C141.976 20.8613 141.91 20.4105 141.777 20.0241C141.648 19.6378 141.461 19.3359 141.215 19.1186C140.97 18.9013 140.67 18.7926 140.316 18.7926C139.95 18.7926 139.64 18.9013 139.386 19.1186C139.137 19.3359 138.946 19.6378 138.813 20.0241C138.684 20.4105 138.62 20.8613 138.62 21.3764C138.62 21.8835 138.684 22.3302 138.813 22.7166C138.946 23.103 139.137 23.4048 139.386 23.6221C139.64 23.8395 139.95 23.9481 140.316 23.9481ZM149.881 26.1335C149.197 26.1335 148.575 25.9564 148.016 25.6023C147.457 25.2481 147.01 24.7168 146.676 24.0085C146.342 23.3002 146.175 22.4208 146.175 21.3704C146.175 20.2797 146.348 19.3822 146.694 18.6779C147.04 17.9736 147.493 17.4524 148.052 17.1143C148.616 16.7763 149.221 16.6072 149.869 16.6072C150.356 16.6072 150.773 16.6918 151.119 16.8608C151.465 17.0258 151.751 17.2391 151.976 17.5007C152.202 17.7623 152.373 18.034 152.489 18.3157H152.55V13.6371H155.502V26.0007H152.58V24.4975H152.489C152.365 24.7832 152.188 25.0509 151.958 25.3004C151.729 25.5499 151.441 25.7512 151.095 25.9041C150.753 26.057 150.348 26.1335 149.881 26.1335ZM150.908 23.8334C151.266 23.8334 151.572 23.7328 151.825 23.5316C152.079 23.3263 152.274 23.0386 152.411 22.6683C152.548 22.298 152.616 21.8634 152.616 21.3643C152.616 20.8572 152.548 20.4206 152.411 20.0543C152.278 19.6881 152.083 19.4064 151.825 19.2092C151.572 19.0119 151.266 18.9133 150.908 18.9133C150.541 18.9133 150.232 19.014 149.978 19.2152C149.724 19.4164 149.531 19.7002 149.398 20.0664C149.27 20.4326 149.205 20.8653 149.205 21.3643C149.205 21.8634 149.272 22.298 149.405 22.6683C149.537 23.0386 149.728 23.3263 149.978 23.5316C150.232 23.7328 150.541 23.8334 150.908 23.8334ZM161.697 26.1758C160.723 26.1758 159.886 25.9765 159.186 25.5781C158.49 25.1757 157.952 24.6162 157.574 23.8998C157.2 23.1794 157.013 22.3443 157.013 21.3945C157.013 20.4407 157.2 19.6056 157.574 18.8892C157.952 18.1688 158.49 17.6094 159.186 17.2109C159.886 16.8085 160.723 16.6072 161.697 16.6072C162.671 16.6072 163.506 16.8085 164.203 17.2109C164.903 17.6094 165.44 18.1688 165.814 18.8892C166.193 19.6056 166.382 20.4407 166.382 21.3945C166.382 22.3443 166.193 23.1794 165.814 23.8998C165.44 24.6162 164.903 25.1757 164.203 25.5781C163.506 25.9765 162.671 26.1758 161.697 26.1758ZM161.715 23.9481C162.069 23.9481 162.369 23.8395 162.615 23.6221C162.86 23.4048 163.047 23.103 163.176 22.7166C163.309 22.3302 163.375 21.8835 163.375 21.3764C163.375 20.8613 163.309 20.4105 163.176 20.0241C163.047 19.6378 162.86 19.3359 162.615 19.1186C162.369 18.9013 162.069 18.7926 161.715 18.7926C161.349 18.7926 161.039 18.9013 160.786 19.1186C160.536 19.3359 160.345 19.6378 160.212 20.0241C160.083 20.4105 160.019 20.8613 160.019 21.3764C160.019 21.8835 160.083 22.3302 160.212 22.7166C160.345 23.103 160.536 23.4048 160.786 23.6221C161.039 23.8395 161.349 23.9481 161.715 23.9481ZM173.128 16.728V18.9013H167.278V16.728H173.128ZM168.504 14.5064H171.456V23.0849C171.456 23.266 171.484 23.4129 171.54 23.5256C171.601 23.6342 171.687 23.7127 171.8 23.761C171.913 23.8053 172.048 23.8274 172.204 23.8274C172.317 23.8274 172.436 23.8173 172.561 23.7972C172.689 23.7731 172.786 23.7529 172.85 23.7368L173.297 25.8679C173.156 25.9081 172.957 25.9584 172.7 26.0188C172.446 26.0792 172.142 26.1174 171.788 26.1335C171.096 26.1657 170.502 26.0852 170.007 25.892C169.516 25.6948 169.14 25.389 168.878 24.9744C168.621 24.5599 168.496 24.0387 168.504 23.4109V14.5064Z" fill="#478CBF"/>
</g>
<defs>
<filter id="filter0_d_1_56" x="2.39972" y="0.39972" width="39.202" height="39.202" filterUnits="userSpaceOnUse" color-interpolation-filters="sRGB">
<feFlood flood-opacity="0" result="BackgroundImageFix"/>
<feColorMatrix in="SourceAlpha" type="matrix" values="0 0 0 0 0 0 0 0 0 0 0 0 0 0 0 0 0 0 127 0" result="hardAlpha"/>
<feOffset/>
<feGaussianBlur stdDeviation="2.80014"/>
<feComposite in2="hardAlpha" operator="out"/>
<feColorMatrix type="matrix" values="0 0 0 0 0 0 0 0 0 0 0 0 0 0 0 0 0 0 0.25 0"/>
<feBlend mode="normal" in2="BackgroundImageFix" result="effect1_dropShadow_1_56"/>
<feBlend mode="normal" in="SourceGraphic" in2="effect1_dropShadow_1_56" result="shape"/>
</filter>
<filter id="filter1_d_1_56" x="36.2871" y="3.78642" width="143.429" height="32.4286" filterUnits="userSpaceOnUse" color-interpolation-filters="sRGB">
<feFlood flood-opacity="0" result="BackgroundImageFix"/>
<feColorMatrix in="SourceAlpha" type="matrix" values="0 0 0 0 0 0 0 0 0 0 0 0 0 0 0 0 0 0 127 0" result="hardAlpha"/>
<feOffset/>
<feGaussianBlur stdDeviation="2.85714"/>
<feComposite in2="hardAlpha" operator="out"/>
<feColorMatrix type="matrix" values="0 0 0 0 0 0 0 0 0 0 0 0 0 0 0 0 0 0 0.25 0"/>
<feBlend mode="normal" in2="BackgroundImageFix" result="effect1_dropShadow_1_56"/>
<feBlend mode="normal" in="SourceGraphic" in2="effect1_dropShadow_1_56" result="shape"/>
</filter>
<linearGradient id="paint0_linear_1_56" x1="91.0007" y1="0" x2="91.0007" y2="40.0014" gradientUnits="userSpaceOnUse">
<stop stop-color="#224661"/>
<stop offset="1" stop-color="#183144"/>
</linearGradient>
</defs>
</svg>
