<svg width="40" height="40" viewBox="0 0 40 40" fill="none" xmlns="http://www.w3.org/2000/svg">
<rect width="40" height="40" rx="8" fill="url(#paint0_linear_1_68)"/>
<rect x="1.05" y="1.05" width="37.9" height="37.9" rx="6.95" stroke="white" stroke-opacity="0.15" stroke-width="2.1"/>
<g filter="url(#filter0_d_1_68)">
<path d="M32.2874 24.8661C32.2874 24.8661 32.2466 24.6157 32.2228 24.618L27.6784 25.0564C27.3169 25.0913 27.036 25.3797 27.0106 25.742L26.8858 27.5314L23.3701 27.7822L23.131 26.1605C23.0777 25.7998 22.7627 25.5279 22.3981 25.5279H17.6019C17.2374 25.5279 16.9224 25.7998 16.8691 26.1605L16.6299 27.7822L13.1142 27.5314L12.9894 25.742C12.964 25.3796 12.6832 25.0912 12.3216 25.0563L7.77499 24.618C7.7515 24.6157 7.73429 24.8664 7.71081 24.8664L7.70465 25.8498L11.5552 26.4707L11.6813 28.2761C11.7068 28.6415 12.0017 28.9371 12.3674 28.9633L17.2093 29.3087C17.2276 29.31 17.2457 29.3107 17.2638 29.3107C17.6276 29.3107 17.9421 29.0387 17.9954 28.678L18.2414 27.0093H21.7587L22.0048 28.678C22.0579 29.0386 22.3728 29.3106 22.7371 29.3106C22.755 29.3106 22.7728 29.31 22.7902 29.3087L27.6327 28.9633C27.9983 28.9371 28.2934 28.6415 28.3189 28.2761L28.4448 26.4707L32.2937 25.847L32.2874 24.8661Z" fill="white"/>
<path d="M7.71074 17.4508V23.4184V24.1763V24.8661C7.72431 24.8662 7.73787 24.8667 7.75131 24.868L12.2974 25.3063C12.5355 25.3293 12.7222 25.521 12.7387 25.7596L12.8789 27.7664L16.8445 28.0493L17.1176 26.1972C17.1531 25.957 17.359 25.7791 17.6019 25.7791H22.3982C22.641 25.7791 22.8469 25.957 22.8824 26.1972L23.1555 28.0493L27.1212 27.7664L27.2613 25.7596C27.278 25.521 27.4645 25.3294 27.7026 25.3063L32.2469 24.868C32.2604 24.8667 32.2738 24.8662 32.2874 24.8661V24.2744L32.2893 24.2738V17.4508C32.9294 16.6449 33.5356 15.756 34 15.0081C33.2903 13.7998 32.4206 12.7201 31.4911 11.7197C30.629 12.1537 29.7917 12.6452 29.0008 13.1683C28.605 12.775 28.1593 12.4532 27.7215 12.1169C27.2913 11.7713 26.8065 11.518 26.3467 11.2229C26.4836 10.2034 26.5513 9.19976 26.5785 8.15229C25.3922 7.55521 24.127 7.15933 22.8473 6.87498C22.3364 7.73368 21.8692 8.6636 21.4623 9.57266C20.9797 9.49203 20.4949 9.46214 20.0095 9.45636V9.4556C20.0061 9.4556 20.003 9.45636 20.0001 9.45636C19.997 9.45636 19.9939 9.4556 19.9909 9.4556V9.45636C19.5046 9.46214 19.0202 9.49203 18.5375 9.57266C18.1308 8.6636 17.6639 7.73368 17.1522 6.87498C15.8731 7.15933 14.6078 7.55521 13.4216 8.15229C13.4487 9.19976 13.5164 10.2034 13.6537 11.2229C13.193 11.518 12.7088 11.7713 12.2785 12.1169C11.8413 12.4532 11.3949 12.775 10.999 13.1683C10.2081 12.6452 9.371 12.1537 8.50866 11.7197C7.57912 12.7201 6.70999 13.7998 6 15.0081C6.55798 15.8839 7.15648 16.7643 7.71074 17.4508Z" fill="#478CBF"/>
<path d="M28.209 26.2411L28.0683 28.2585C28.0513 28.5017 27.8579 28.6952 27.6147 28.7127L22.7724 29.0582C22.7606 29.0591 22.7488 29.0595 22.7371 29.0595C22.4964 29.0595 22.2888 28.8829 22.2533 28.6412L21.9756 26.7581H18.0245L17.7468 28.6412C17.7095 28.8947 17.4829 29.0769 17.2277 29.0582L12.3853 28.7127C12.1422 28.6952 11.9488 28.5017 11.9318 28.2585L11.791 26.2411L7.70324 25.847C7.70512 26.2863 7.71078 26.7676 7.71078 26.8634C7.71078 31.1807 13.1874 33.2558 19.9917 33.2796H20H20.0084C26.8127 33.2558 32.2874 31.1807 32.2874 26.8634C32.2874 26.7658 32.2933 26.2866 32.2953 25.847L28.209 26.2411Z" fill="#478CBF"/>
<path d="M16.2953 20.4609C16.2953 21.9746 15.0688 23.2008 13.5556 23.2008C12.0432 23.2008 10.8164 21.9746 10.8164 20.4609C10.8164 18.9483 12.0432 17.7227 13.5556 17.7227C15.0688 17.7227 16.2953 18.9483 16.2953 20.4609Z" fill="white"/>
<path d="M15.6361 20.6234C15.6361 21.6274 14.8223 22.4412 13.8176 22.4412C12.8133 22.4412 11.9991 21.6274 11.9991 20.6234C11.9991 19.6194 12.8133 18.8049 13.8176 18.8049C14.8223 18.8049 15.6361 19.6194 15.6361 20.6234Z" fill="#414042"/>
<path d="M19.9998 23.4501C19.5127 23.4501 19.118 23.0911 19.118 22.6486V20.1265C19.118 19.6844 19.5127 19.3251 19.9998 19.3251C20.4869 19.3251 20.8825 19.6844 20.8825 20.1265V22.6486C20.8825 23.0911 20.4869 23.4501 19.9998 23.4501Z" fill="white"/>
<path d="M23.7048 20.4609C23.7048 21.9746 24.9312 23.2008 26.4447 23.2008C27.957 23.2008 29.1837 21.9746 29.1837 20.4609C29.1837 18.9483 27.957 17.7227 26.4447 17.7227C24.9312 17.7227 23.7048 18.9483 23.7048 20.4609Z" fill="white"/>
<path d="M24.3642 20.6234C24.3642 21.6274 25.1776 22.4412 26.1817 22.4412C27.1867 22.4412 28.0002 21.6274 28.0002 20.6234C28.0002 19.6194 27.1867 18.8049 26.1817 18.8049C25.1776 18.8049 24.3642 19.6194 24.3642 20.6234Z" fill="#414042"/>
</g>
<defs>
<filter id="filter0_d_1_68" x="2" y="2" width="36" height="36" filterUnits="userSpaceOnUse" color-interpolation-filters="sRGB">
<feFlood flood-opacity="0" result="BackgroundImageFix"/>
<feColorMatrix in="SourceAlpha" type="matrix" values="0 0 0 0 0 0 0 0 0 0 0 0 0 0 0 0 0 0 127 0" result="hardAlpha"/>
<feOffset/>
<feGaussianBlur stdDeviation="2"/>
<feComposite in2="hardAlpha" operator="out"/>
<feColorMatrix type="matrix" values="0 0 0 0 0 0 0 0 0 0 0 0 0 0 0 0 0 0 0.25 0"/>
<feBlend mode="normal" in2="BackgroundImageFix" result="effect1_dropShadow_1_68"/>
<feBlend mode="normal" in="SourceGraphic" in2="effect1_dropShadow_1_68" result="shape"/>
</filter>
<linearGradient id="paint0_linear_1_68" x1="20" y1="0" x2="20" y2="40" gradientUnits="userSpaceOnUse">
<stop stop-color="#224661"/>
<stop offset="1" stop-color="#183144"/>
</linearGradient>
</defs>
</svg>
