<svg width="56" height="56" viewBox="0 0 56 56" fill="none" xmlns="http://www.w3.org/2000/svg">
<rect width="56" height="56" rx="8.4" fill="url(#paint0_linear_1_62)"/>
<rect x="1.05" y="1.05" width="53.9" height="53.9" rx="7.35" stroke="white" stroke-opacity="0.15" stroke-width="2.1"/>
<g filter="url(#filter0_d_1_62)">
<path d="M45.5535 34.9516C45.5535 34.9516 45.4952 34.5938 45.4611 34.5971L38.9692 35.2234C38.4526 35.2733 38.0514 35.6853 38.0152 36.2029L37.8369 38.7592L32.8145 39.1175L32.4728 36.8008C32.3968 36.2854 31.9468 35.897 31.4259 35.897H24.5741C24.0534 35.897 23.6034 36.2854 23.5273 36.8008L23.1855 39.1175L18.1631 38.7592L17.9848 36.2029C17.9486 35.6851 17.5474 35.2731 17.0308 35.2233L10.5357 34.5971C10.5021 34.5938 10.4776 34.952 10.444 34.952L10.4352 36.3569L15.936 37.2439L16.1161 39.823C16.1525 40.3451 16.5738 40.7673 17.0963 40.8048L24.0132 41.2982C24.0394 41.3 24.0653 41.301 24.0911 41.301C24.6109 41.301 25.0602 40.9124 25.1362 40.3971L25.4877 38.0133H30.5125L30.8639 40.3971C30.9398 40.9122 31.3897 41.3009 31.9102 41.3009C31.9356 41.3009 31.9611 41.3 31.9861 41.2982L38.9039 40.8048C39.4262 40.7673 39.8477 40.3451 39.8841 39.823L40.064 37.2439L45.5625 36.3529L45.5535 34.9516Z" fill="white"/>
<path d="M10.4439 24.3583V32.8834V33.9662V34.9516C10.4633 34.9518 10.4827 34.9525 10.5019 34.9543L16.9963 35.5805C17.3364 35.6133 17.6031 35.8871 17.6268 36.228L17.827 39.0948L23.4921 39.4991L23.8823 36.8531C23.9329 36.5101 24.2272 36.2558 24.5742 36.2558H31.426C31.7728 36.2558 32.0671 36.5101 32.1177 36.8531L32.5079 39.4991L38.1732 39.0948L38.3732 36.228C38.3971 35.8871 38.6636 35.6135 39.0037 35.5805L45.4956 34.9543C45.5148 34.9525 45.534 34.9518 45.5534 34.9516V34.1063L45.5561 34.1054V24.3583C46.4706 23.207 47.3365 21.9371 48 20.8687C46.9861 19.1426 45.7438 17.6001 44.4158 16.171C43.1843 16.7909 41.9881 17.4932 40.8583 18.2405C40.2929 17.6786 39.6561 17.2189 39.0307 16.7384C38.4161 16.2448 37.7236 15.8829 37.0667 15.4612C37.2623 14.0049 37.359 12.5711 37.3979 11.0747C35.7031 10.2217 33.8957 9.6562 32.0676 9.24998C31.3377 10.4767 30.6703 11.8051 30.0889 13.1038C29.3996 12.9886 28.707 12.9459 28.0135 12.9377V12.9366C28.0087 12.9366 28.0042 12.9377 28.0001 12.9377C27.9958 12.9377 27.9913 12.9366 27.987 12.9366V12.9377C27.2923 12.9459 26.6002 12.9886 25.9107 13.1038C25.3297 11.8051 24.6626 10.4767 23.9317 9.24998C22.1044 9.6562 20.2969 10.2217 18.6023 11.0747C18.641 12.5711 18.7377 14.0049 18.9339 15.4612C18.2757 15.8829 17.5841 16.2448 16.9693 16.7384C16.3448 17.2189 15.7069 17.6786 15.1414 18.2405C14.0116 17.4932 12.8157 16.7909 11.5838 16.171C10.2559 17.6001 9.01428 19.1426 8 20.8687C8.79711 22.1199 9.65212 23.3775 10.4439 24.3583Z" fill="#478CBF"/>
<path d="M39.7272 36.9159L39.5261 39.7979C39.5019 40.1453 39.2256 40.4218 38.8782 40.4467L31.9605 40.9403C31.9437 40.9416 31.9268 40.9421 31.9101 40.9421C31.5663 40.9421 31.2698 40.6898 31.219 40.3446L30.8223 37.6544H25.1778L24.7811 40.3446C24.7278 40.7067 24.4041 40.9671 24.0396 40.9403L17.1219 40.4467C16.7745 40.4218 16.4982 40.1453 16.474 39.7979L16.2729 36.9159L10.4332 36.3528C10.4359 36.9805 10.444 37.668 10.444 37.8049C10.444 43.9724 18.2677 46.9368 27.9881 46.9709H28H28.012C37.7324 46.9368 45.5534 43.9724 45.5534 37.8049C45.5534 37.6655 45.5619 36.9808 45.5647 36.3528L39.7272 36.9159Z" fill="#478CBF"/>
<path d="M22.7075 28.6585C22.7075 30.8209 20.9555 32.5726 18.7938 32.5726C16.6332 32.5726 14.8806 30.8209 14.8806 28.6585C14.8806 26.4975 16.6332 24.7467 18.7938 24.7467C20.9555 24.7467 22.7075 26.4975 22.7075 28.6585Z" fill="white"/>
<path d="M21.7658 28.8906C21.7658 30.3249 20.6033 31.4874 19.168 31.4874C17.7333 31.4874 16.5701 30.3249 16.5701 28.8906C16.5701 27.4563 17.7333 26.2927 19.168 26.2927C20.6033 26.2927 21.7658 27.4563 21.7658 28.8906Z" fill="#414042"/>
<path d="M27.9997 32.9286C27.3039 32.9286 26.74 32.4159 26.74 31.7838V28.1808C26.74 27.5492 27.3039 27.0359 27.9997 27.0359C28.6955 27.0359 29.2607 27.5492 29.2607 28.1808V31.7838C29.2607 32.4159 28.6955 32.9286 27.9997 32.9286Z" fill="white"/>
<path d="M33.2925 28.6585C33.2925 30.8209 35.0446 32.5726 37.2067 32.5726C39.3671 32.5726 41.1195 30.8209 41.1195 28.6585C41.1195 26.4975 39.3671 24.7467 37.2067 24.7467C35.0446 24.7467 33.2925 26.4975 33.2925 28.6585Z" fill="white"/>
<path d="M34.2345 28.8906C34.2345 30.3249 35.3966 31.4874 36.8309 31.4874C38.2667 31.4874 39.4288 30.3249 39.4288 28.8906C39.4288 27.4563 38.2667 26.2927 36.8309 26.2927C35.3966 26.2927 34.2345 27.4563 34.2345 28.8906Z" fill="#414042"/>
</g>
<defs>
<filter id="filter0_d_1_62" x="2.28571" y="2.28571" width="51.4286" height="51.4286" filterUnits="userSpaceOnUse" color-interpolation-filters="sRGB">
<feFlood flood-opacity="0" result="BackgroundImageFix"/>
<feColorMatrix in="SourceAlpha" type="matrix" values="0 0 0 0 0 0 0 0 0 0 0 0 0 0 0 0 0 0 127 0" result="hardAlpha"/>
<feOffset/>
<feGaussianBlur stdDeviation="2.85714"/>
<feComposite in2="hardAlpha" operator="out"/>
<feColorMatrix type="matrix" values="0 0 0 0 0 0 0 0 0 0 0 0 0 0 0 0 0 0 0.25 0"/>
<feBlend mode="normal" in2="BackgroundImageFix" result="effect1_dropShadow_1_62"/>
<feBlend mode="normal" in="SourceGraphic" in2="effect1_dropShadow_1_62" result="shape"/>
</filter>
<linearGradient id="paint0_linear_1_62" x1="28" y1="0" x2="28" y2="56" gradientUnits="userSpaceOnUse">
<stop stop-color="#224661"/>
<stop offset="1" stop-color="#183144"/>
</linearGradient>
</defs>
</svg>
