<svg width="40" height="40" viewBox="0 0 40 40" fill="none" xmlns="http://www.w3.org/2000/svg">
<rect width="40" height="40" rx="8" fill="url(#paint0_linear_1_68)"/>
<rect x="1.05" y="1.05" width="37.9" height="37.9" rx="6.95" stroke="white" stroke-opacity="0.15" stroke-width="2.1"/>
<g filter="url(#filter0_d_1_68)">
<path d="M19.1232 9.29787C19.1232 9.1886 19.1448 9.08039 19.1866 8.97943C19.2284 8.87848 19.2897 8.78674 19.367 8.70947C19.4442 8.6322 19.536 8.57091 19.6369 8.52909C19.7379 8.48727 19.8461 8.46575 19.9554 8.46575C20.0647 8.46575 20.1729 8.48727 20.2738 8.52909C20.3748 8.57091 20.4665 8.6322 20.5438 8.70947C20.621 8.78674 20.6823 8.87848 20.7242 8.97943C20.766 9.08039 20.7875 9.1886 20.7875 9.29787C20.7875 9.51857 20.6998 9.73022 20.5438 9.88628C20.3877 10.0423 20.1761 10.13 19.9554 10.13C19.7347 10.13 19.523 10.0423 19.367 9.88628C19.2109 9.73022 19.1232 9.51857 19.1232 9.29787ZM9.1955 16.8316C9.1955 16.7223 9.21702 16.6141 9.25884 16.5132C9.30066 16.4122 9.36195 16.3205 9.43922 16.2432C9.51649 16.166 9.60823 16.1047 9.70918 16.0628C9.81014 16.021 9.91835 15.9995 10.0276 15.9995C10.1369 15.9995 10.2451 16.021 10.3461 16.0628C10.447 16.1047 10.5388 16.166 10.616 16.2432C10.6933 16.3205 10.7546 16.4122 10.7964 16.5132C10.8382 16.6141 10.8598 16.7223 10.8598 16.8316C10.8598 17.0523 10.7721 17.264 10.616 17.42C10.46 17.5761 10.2483 17.6637 10.0276 17.6637C9.80693 17.6637 9.59528 17.5761 9.43922 17.42C9.28317 17.264 9.1955 17.0523 9.1955 16.8316ZM29.051 16.8701C29.051 16.6494 29.1387 16.4378 29.2947 16.2817C29.4508 16.1257 29.6624 16.038 29.8831 16.038C30.1038 16.038 30.3155 16.1257 30.4715 16.2817C30.6276 16.4378 30.7152 16.6494 30.7152 16.8701C30.7152 17.0908 30.6276 17.3025 30.4715 17.4585C30.3155 17.6146 30.1038 17.7022 29.8831 17.7022C29.6624 17.7022 29.4508 17.6146 29.2947 17.4585C29.1387 17.3025 29.051 17.0908 29.051 16.8701ZM11.6035 18.0129C11.7874 17.9308 11.9312 17.7791 12.0035 17.5912C12.0759 17.4033 12.0708 17.1943 11.9894 17.0101L11.6201 16.1754H13.0726V22.7204H10.1423C9.78068 21.4502 9.66807 20.1221 9.81062 18.8091L11.6035 18.0129ZM17.6777 18.1739V16.2445H21.1357C21.3142 16.2445 22.3957 16.451 22.3957 17.2595C22.3957 17.9315 21.5645 18.173 20.882 18.173L17.6777 18.1739ZM12.9563 28.561C12.9563 28.4517 12.9778 28.3435 13.0196 28.2426C13.0614 28.1416 13.1227 28.0499 13.2 27.9726C13.2772 27.8953 13.369 27.834 13.4699 27.7922C13.5709 27.7504 13.6791 27.7289 13.7884 27.7289C13.8977 27.7289 14.0059 27.7504 14.1068 27.7922C14.2078 27.834 14.2995 27.8953 14.3768 27.9726C14.454 28.0499 14.5153 28.1416 14.5572 28.2426C14.599 28.3435 14.6205 28.4517 14.6205 28.561C14.6205 28.7817 14.5328 28.9933 14.3768 29.1494C14.2207 29.3055 14.0091 29.3931 13.7884 29.3931C13.5677 29.3931 13.356 29.3055 13.2 29.1494C13.0439 28.9933 12.9563 28.7817 12.9563 28.561ZM25.2876 28.5995C25.2876 28.3788 25.3753 28.1672 25.5313 28.0111C25.6874 27.855 25.8991 27.7674 26.1197 27.7674C26.3404 27.7674 26.5521 27.855 26.7082 28.0111C26.8642 28.1672 26.9519 28.3788 26.9519 28.5995C26.9519 28.8202 26.8642 29.0318 26.7082 29.1879C26.5521 29.344 26.3404 29.4316 26.1197 29.4316C25.8991 29.4316 25.6874 29.344 25.5313 29.1879C25.3753 29.0318 25.2876 28.8202 25.2876 28.5995ZM25.5449 26.7121C25.1336 26.6246 24.7311 26.8854 24.6436 27.2958L24.2262 29.2452C22.883 29.8537 21.4242 30.1649 19.9496 30.1578C18.475 30.1507 17.0192 29.8254 15.6819 29.2041L15.2645 27.2546C15.177 26.8434 14.7745 26.5826 14.3633 26.671L12.6421 27.0403C12.3223 26.7109 12.025 26.3604 11.7523 25.9911H20.126C20.2205 25.9911 20.2835 25.9736 20.2835 25.8879V22.926C20.2835 22.8385 20.2205 22.8227 20.126 22.8227H17.676V20.945H20.3246C20.5661 20.945 21.617 21.015 21.9539 22.3572L22.4482 24.5447C22.6057 25.026 23.2471 25.9911 23.9296 25.9911H28.2521C27.962 26.3792 27.6448 26.7461 27.3027 27.0893L25.5449 26.7121ZM30.1946 18.8914C30.2535 19.4826 30.2608 20.0778 30.2165 20.6703H29.1665C29.0615 20.6703 29.0177 20.7403 29.0177 20.8426V21.3256C29.0177 22.4631 28.3772 22.7081 27.8155 22.772C27.2817 22.8333 26.6867 22.548 26.615 22.2207C26.3 20.4462 25.775 20.0682 24.9525 19.412C25.9824 18.7575 27.0542 17.7932 27.0542 16.5009C27.0542 15.1061 26.0979 14.2276 25.446 13.7971C24.5316 13.1934 23.5192 13.0735 23.2462 13.0735H12.3656C13.8686 11.3942 15.8833 10.2572 18.0977 9.83862L19.3796 11.1835C19.6684 11.4871 20.1496 11.4985 20.4524 11.208L21.8874 9.83688C23.3491 10.1106 24.7337 10.6992 25.9451 11.5618C27.1565 12.4244 28.1655 13.5404 28.9022 14.8322L27.9205 17.0495C27.8391 17.2337 27.834 17.4426 27.9063 17.6306C27.9787 17.8185 28.1225 17.9701 28.3064 18.0522L30.1946 18.8914ZM32.6429 18.9264L32.6096 18.5834L33.6211 17.6401C33.8267 17.4476 33.7497 17.0626 33.4872 16.9646L32.1949 16.4816L32.0934 16.1491L32.8984 15.0291C33.0629 14.8016 32.9115 14.4385 32.6359 14.393L31.2726 14.1716L31.109 13.8654L31.6821 12.608C31.7994 12.3516 31.5815 12.0244 31.2997 12.0349L29.9172 12.083L29.6985 11.8179L30.0161 10.4704C30.08 10.1965 29.8026 9.91912 29.5287 9.983L28.1812 10.3006L27.9152 10.0819L27.9634 8.69937C27.9739 8.41937 27.6466 8.20062 27.3911 8.317L26.1346 8.89012L25.8284 8.72562L25.6061 7.36237C25.5624 7.08587 25.1975 6.93537 24.97 7.09987L23.85 7.90487L23.5175 7.80425L23.0345 6.51188C22.9365 6.24938 22.5506 6.17238 22.359 6.37713L21.4157 7.38863L21.0727 7.35537L20.3447 6.1785C20.1977 5.9405 19.8022 5.9405 19.6561 6.1785L18.9281 7.35537L18.5851 7.38863L17.6401 6.37538C17.4476 6.17063 17.0626 6.24675 16.9646 6.51012L16.4816 7.8025L16.1491 7.90313L15.0291 7.09813C14.8016 6.93363 14.4376 7.085 14.393 7.36063L14.1708 8.72388L13.8645 8.88838L12.608 8.31525C12.3525 8.19888 12.0244 8.41763 12.0358 8.69763L12.0839 10.0801L11.8179 10.2989L10.4704 9.98125C10.1965 9.91738 9.91912 10.1947 9.983 10.4686L10.3006 11.8161L10.0819 12.0813L8.69937 12.0331C8.41937 12.0244 8.20062 12.3499 8.317 12.6062L8.89012 13.8636L8.72562 14.1699L7.36238 14.3912C7.08587 14.435 6.93537 14.7999 7.09987 15.0274L7.90487 16.1474L7.80337 16.4799L6.511 16.9629C6.2485 17.0609 6.1715 17.4467 6.37712 17.6384L7.38862 18.5816L7.35537 18.9246L6.1785 19.6526C5.9405 19.7996 5.9405 20.1951 6.1785 20.3413L7.35537 21.0692L7.38862 21.4122L6.3745 22.359C6.16975 22.5515 6.24588 22.9365 6.50838 23.0345L7.80075 23.5175L7.90225 23.85L7.09725 24.97C6.93363 25.1975 7.08412 25.5615 7.35975 25.6061L8.72212 25.8275L8.88662 26.1337L8.3135 27.3903C8.19712 27.6458 8.41675 27.9739 8.69587 27.9634L10.0784 27.9153L10.2971 28.1812L9.9795 29.5288C9.91563 29.8018 10.193 30.08 10.4669 30.0153L11.8144 29.6976L12.0804 29.9164L12.0322 31.2989C12.0217 31.5789 12.349 31.7976 12.6045 31.6812L13.861 31.1081L14.1673 31.2726L14.3895 32.635C14.4333 32.9124 14.7981 33.062 15.0256 32.8992L16.1456 32.0925L16.4781 32.194L16.9611 33.4864C17.0591 33.7489 17.445 33.8259 17.6366 33.6202L18.5799 32.6087L18.9229 32.6437L19.6509 33.8206C19.7979 34.0569 20.1916 34.0586 20.3395 33.8206L21.0675 32.6437L21.4105 32.6087L22.3537 33.6202C22.5462 33.8259 22.9312 33.7489 23.0292 33.4864L23.5122 32.194L23.8447 32.0925L24.9647 32.8992C25.1922 33.0629 25.5562 32.9124 25.6009 32.635L25.8231 31.2726L26.1294 31.1081L27.3859 31.6812C27.6414 31.7976 27.9686 31.5797 27.9581 31.2989L27.91 29.9164L28.1751 29.6976L29.5226 30.0153C29.7965 30.0791 30.0739 29.8018 30.01 29.5288L29.6924 28.1812L29.9111 27.9153L31.2936 27.9634C31.5736 27.9747 31.7924 27.6458 31.676 27.3903L31.1029 26.1337L31.2665 25.8275L32.6297 25.6061C32.9071 25.5624 33.0585 25.1984 32.8922 24.97L32.0872 23.85L32.1887 23.5175L33.4811 23.0345C33.7436 22.9356 33.8206 22.5506 33.615 22.359L32.6035 21.4157L32.6367 21.0727L33.8136 20.3448C34.0516 20.1978 34.0525 19.804 33.8136 19.6561L32.6429 18.9264Z" fill="white"/>
</g>
<defs>
<filter id="filter0_d_1_68" x="2" y="2" width="36" height="36" filterUnits="userSpaceOnUse" color-interpolation-filters="sRGB">
<feFlood flood-opacity="0" result="BackgroundImageFix"/>
<feColorMatrix in="SourceAlpha" type="matrix" values="0 0 0 0 0 0 0 0 0 0 0 0 0 0 0 0 0 0 127 0" result="hardAlpha"/>
<feOffset/>
<feGaussianBlur stdDeviation="2"/>
<feComposite in2="hardAlpha" operator="out"/>
<feColorMatrix type="matrix" values="0 0 0 0 0 0 0 0 0 0 0 0 0 0 0 0 0 0 0.25 0"/>
<feBlend mode="normal" in2="BackgroundImageFix" result="effect1_dropShadow_1_68"/>
<feBlend mode="normal" in="SourceGraphic" in2="effect1_dropShadow_1_68" result="shape"/>
</filter>
<linearGradient id="paint0_linear_1_68" x1="20" y1="0" x2="20" y2="40" gradientUnits="userSpaceOnUse">
<stop stop-color="#693D23"/>
<stop offset="0.9997" stop-color="#292624"/>
<stop offset="0.9998" stop-color="#380D09"/>
<stop offset="0.9999" stop-color="#3D1756"/>
</linearGradient>
</defs>
</svg>
