<svg width="169" height="40" viewBox="0 0 169 40" fill="none" xmlns="http://www.w3.org/2000/svg">
<rect width="169.001" height="40.0014" rx="8" fill="url(#paint0_linear_1_56)"/>
<rect x="1.07143" y="1.07143" width="166.859" height="37.8585" rx="6.92857" stroke="white" stroke-opacity="0.15" stroke-width="2.14286"/>
<g filter="url(#filter0_d_1_56)">
<path d="M21.1232 9.29787C21.1232 9.1886 21.1448 9.08039 21.1866 8.97943C21.2284 8.87848 21.2897 8.78674 21.367 8.70947C21.4442 8.6322 21.536 8.57091 21.6369 8.52909C21.7379 8.48727 21.8461 8.46575 21.9554 8.46575C22.0647 8.46575 22.1729 8.48727 22.2738 8.52909C22.3748 8.57091 22.4665 8.6322 22.5438 8.70947C22.621 8.78674 22.6823 8.87848 22.7242 8.97943C22.766 9.08039 22.7875 9.1886 22.7875 9.29787C22.7875 9.51857 22.6998 9.73022 22.5438 9.88628C22.3877 10.0423 22.1761 10.13 21.9554 10.13C21.7347 10.13 21.523 10.0423 21.367 9.88628C21.2109 9.73022 21.1232 9.51857 21.1232 9.29787ZM11.1955 16.8316C11.1955 16.7223 11.217 16.6141 11.2588 16.5132C11.3007 16.4122 11.362 16.3205 11.4392 16.2432C11.5165 16.166 11.6082 16.1047 11.7092 16.0628C11.8101 16.021 11.9183 15.9995 12.0276 15.9995C12.1369 15.9995 12.2451 16.021 12.3461 16.0628C12.447 16.1047 12.5388 16.166 12.616 16.2432C12.6933 16.3205 12.7546 16.4122 12.7964 16.5132C12.8382 16.6141 12.8598 16.7223 12.8598 16.8316C12.8598 17.0523 12.7721 17.264 12.616 17.42C12.46 17.5761 12.2483 17.6637 12.0276 17.6637C11.8069 17.6637 11.5953 17.5761 11.4392 17.42C11.2832 17.264 11.1955 17.0523 11.1955 16.8316ZM31.051 16.8701C31.051 16.6494 31.1387 16.4378 31.2947 16.2817C31.4508 16.1257 31.6624 16.038 31.8831 16.038C32.1038 16.038 32.3155 16.1257 32.4715 16.2817C32.6276 16.4378 32.7152 16.6494 32.7152 16.8701C32.7152 17.0908 32.6276 17.3025 32.4715 17.4585C32.3155 17.6146 32.1038 17.7022 31.8831 17.7022C31.6624 17.7022 31.4508 17.6146 31.2947 17.4585C31.1387 17.3025 31.051 17.0908 31.051 16.8701ZM13.6035 18.0129C13.7874 17.9308 13.9312 17.7791 14.0035 17.5912C14.0759 17.4033 14.0708 17.1943 13.9894 17.0101L13.6201 16.1754H15.0726V22.7204H12.1423C11.7807 21.4502 11.6681 20.1221 11.8106 18.8091L13.6035 18.0129ZM19.6777 18.1739V16.2445H23.1357C23.3142 16.2445 24.3957 16.451 24.3957 17.2595C24.3957 17.9315 23.5645 18.173 22.882 18.173L19.6777 18.1739ZM14.9563 28.561C14.9563 28.4517 14.9778 28.3435 15.0196 28.2426C15.0614 28.1416 15.1227 28.0499 15.2 27.9726C15.2772 27.8953 15.369 27.834 15.4699 27.7922C15.5709 27.7504 15.6791 27.7289 15.7884 27.7289C15.8977 27.7289 16.0059 27.7504 16.1068 27.7922C16.2078 27.834 16.2995 27.8953 16.3768 27.9726C16.454 28.0499 16.5153 28.1416 16.5572 28.2426C16.599 28.3435 16.6205 28.4517 16.6205 28.561C16.6205 28.7817 16.5328 28.9933 16.3768 29.1494C16.2207 29.3055 16.0091 29.3931 15.7884 29.3931C15.5677 29.3931 15.356 29.3055 15.2 29.1494C15.0439 28.9933 14.9563 28.7817 14.9563 28.561ZM27.2876 28.5995C27.2876 28.3788 27.3753 28.1672 27.5313 28.0111C27.6874 27.855 27.8991 27.7674 28.1197 27.7674C28.3404 27.7674 28.5521 27.855 28.7082 28.0111C28.8642 28.1672 28.9519 28.3788 28.9519 28.5995C28.9519 28.8202 28.8642 29.0318 28.7082 29.1879C28.5521 29.344 28.3404 29.4316 28.1197 29.4316C27.8991 29.4316 27.6874 29.344 27.5313 29.1879C27.3753 29.0318 27.2876 28.8202 27.2876 28.5995ZM27.5449 26.7121C27.1336 26.6246 26.7311 26.8854 26.6436 27.2958L26.2262 29.2452C24.883 29.8537 23.4242 30.1649 21.9496 30.1578C20.475 30.1507 19.0192 29.8254 17.6819 29.2041L17.2645 27.2546C17.177 26.8434 16.7745 26.5826 16.3633 26.671L14.6421 27.0403C14.3223 26.7109 14.025 26.3604 13.7523 25.9911H22.126C22.2205 25.9911 22.2835 25.9736 22.2835 25.8879V22.926C22.2835 22.8385 22.2205 22.8227 22.126 22.8227H19.676V20.945H22.3246C22.5661 20.945 23.617 21.015 23.9539 22.3572L24.4482 24.5447C24.6057 25.026 25.2471 25.9911 25.9296 25.9911H30.2521C29.962 26.3792 29.6448 26.7461 29.3027 27.0893L27.5449 26.7121ZM32.1946 18.8914C32.2535 19.4826 32.2608 20.0778 32.2165 20.6703H31.1665C31.0615 20.6703 31.0177 20.7403 31.0177 20.8426V21.3256C31.0177 22.4631 30.3772 22.7081 29.8155 22.772C29.2817 22.8333 28.6867 22.548 28.615 22.2207C28.3 20.4462 27.775 20.0682 26.9525 19.412C27.9824 18.7575 29.0542 17.7932 29.0542 16.5009C29.0542 15.1061 28.0979 14.2276 27.446 13.7971C26.5316 13.1934 25.5192 13.0735 25.2462 13.0735H14.3656C15.8686 11.3942 17.8833 10.2572 20.0977 9.83862L21.3796 11.1835C21.6684 11.4871 22.1496 11.4985 22.4524 11.208L23.8874 9.83688C25.3491 10.1106 26.7337 10.6992 27.9451 11.5618C29.1565 12.4244 30.1655 13.5404 30.9022 14.8322L29.9205 17.0495C29.8391 17.2337 29.834 17.4426 29.9063 17.6306C29.9787 17.8185 30.1225 17.9701 30.3064 18.0522L32.1946 18.8914ZM34.6429 18.9264L34.6096 18.5834L35.6211 17.6401C35.8267 17.4476 35.7497 17.0626 35.4872 16.9646L34.1949 16.4816L34.0934 16.1491L34.8984 15.0291C35.0629 14.8016 34.9115 14.4385 34.6359 14.393L33.2726 14.1716L33.109 13.8654L33.6821 12.608C33.7994 12.3516 33.5815 12.0244 33.2997 12.0349L31.9172 12.083L31.6985 11.8179L32.0161 10.4704C32.08 10.1965 31.8026 9.91912 31.5287 9.983L30.1812 10.3006L29.9152 10.0819L29.9634 8.69937C29.9739 8.41937 29.6466 8.20062 29.3911 8.317L28.1346 8.89012L27.8284 8.72562L27.6061 7.36237C27.5624 7.08587 27.1975 6.93537 26.97 7.09987L25.85 7.90487L25.5175 7.80425L25.0345 6.51188C24.9365 6.24938 24.5506 6.17238 24.359 6.37713L23.4157 7.38863L23.0727 7.35537L22.3447 6.1785C22.1977 5.9405 21.8022 5.9405 21.6561 6.1785L20.9281 7.35537L20.5851 7.38863L19.6401 6.37538C19.4476 6.17063 19.0626 6.24675 18.9646 6.51012L18.4816 7.8025L18.1491 7.90313L17.0291 7.09813C16.8016 6.93363 16.4376 7.085 16.393 7.36063L16.1708 8.72388L15.8645 8.88838L14.608 8.31525C14.3525 8.19888 14.0244 8.41763 14.0358 8.69763L14.0839 10.0801L13.8179 10.2989L12.4704 9.98125C12.1965 9.91738 11.9191 10.1947 11.983 10.4686L12.3006 11.8161L12.0819 12.0813L10.6994 12.0331C10.4194 12.0244 10.2006 12.3499 10.317 12.6062L10.8901 13.8636L10.7256 14.1699L9.36238 14.3912C9.08587 14.435 8.93537 14.7999 9.09987 15.0274L9.90487 16.1474L9.80337 16.4799L8.511 16.9629C8.2485 17.0609 8.1715 17.4467 8.37712 17.6384L9.38862 18.5816L9.35537 18.9246L8.1785 19.6526C7.9405 19.7996 7.9405 20.1951 8.1785 20.3413L9.35537 21.0692L9.38862 21.4122L8.3745 22.359C8.16975 22.5515 8.24588 22.9365 8.50838 23.0345L9.80075 23.5175L9.90225 23.85L9.09725 24.97C8.93363 25.1975 9.08412 25.5615 9.35975 25.6061L10.7221 25.8275L10.8866 26.1337L10.3135 27.3903C10.1971 27.6458 10.4167 27.9739 10.6959 27.9634L12.0784 27.9153L12.2971 28.1812L11.9795 29.5288C11.9156 29.8018 12.193 30.08 12.4669 30.0153L13.8144 29.6976L14.0804 29.9164L14.0322 31.2989C14.0217 31.5789 14.349 31.7976 14.6045 31.6812L15.861 31.1081L16.1673 31.2726L16.3895 32.635C16.4333 32.9124 16.7981 33.062 17.0256 32.8992L18.1456 32.0925L18.4781 32.194L18.9611 33.4864C19.0591 33.7489 19.445 33.8259 19.6366 33.6202L20.5799 32.6087L20.9229 32.6437L21.6509 33.8206C21.7979 34.0569 22.1916 34.0586 22.3395 33.8206L23.0675 32.6437L23.4105 32.6087L24.3537 33.6202C24.5462 33.8259 24.9312 33.7489 25.0292 33.4864L25.5122 32.194L25.8447 32.0925L26.9647 32.8992C27.1922 33.0629 27.5562 32.9124 27.6009 32.635L27.8231 31.2726L28.1294 31.1081L29.3859 31.6812C29.6414 31.7976 29.9686 31.5797 29.9581 31.2989L29.91 29.9164L30.1751 29.6976L31.5226 30.0153C31.7965 30.0791 32.0739 29.8018 32.01 29.5288L31.6924 28.1812L31.9111 27.9153L33.2936 27.9634C33.5736 27.9747 33.7924 27.6458 33.676 27.3903L33.1029 26.1337L33.2665 25.8275L34.6297 25.6061C34.9071 25.5624 35.0585 25.1984 34.8922 24.97L34.0872 23.85L34.1887 23.5175L35.4811 23.0345C35.7436 22.9356 35.8206 22.5506 35.615 22.359L34.6035 21.4157L34.6367 21.0727L35.8136 20.3448C36.0516 20.1978 36.0525 19.804 35.8136 19.6561L34.6429 18.9264Z" fill="white"/>
</g>
<g filter="url(#filter1_d_1_56)">
<path d="M43.3597 26.5007V14.1371H47.8874C48.7648 14.1371 49.4912 14.282 50.0667 14.5717C50.6423 14.8575 51.0729 15.2458 51.3586 15.7369C51.6444 16.2238 51.7873 16.7732 51.7873 17.3849C51.7873 17.9001 51.6927 18.3347 51.5035 18.6889C51.3144 19.0391 51.0608 19.3208 50.7429 19.5341C50.429 19.7434 50.0828 19.8963 49.7045 19.9929V20.1136C50.115 20.1337 50.5155 20.2666 50.9059 20.5121C51.3003 20.7535 51.6263 21.0976 51.8839 21.5444C52.1414 21.9911 52.2702 22.5344 52.2702 23.1743C52.2702 23.8062 52.1213 24.3737 51.8235 24.8768C51.5297 25.3758 51.0749 25.7722 50.4591 26.066C49.8434 26.3558 49.0566 26.5007 48.0987 26.5007H43.3597ZM45.2251 24.9009H47.9176C48.8111 24.9009 49.451 24.7279 49.8373 24.3817C50.2237 24.0356 50.4169 23.603 50.4169 23.0838C50.4169 22.6934 50.3183 22.3352 50.1211 22.0092C49.9239 21.6832 49.6421 21.4236 49.2759 21.2305C48.9137 21.0373 48.483 20.9407 47.984 20.9407H45.2251V24.9009ZM45.2251 19.4858H47.7244C48.143 19.4858 48.5193 19.4053 48.8533 19.2443C49.1914 19.0833 49.459 18.8579 49.6562 18.5682C49.8575 18.2744 49.9581 17.9283 49.9581 17.5298C49.9581 17.0187 49.779 16.5901 49.4208 16.244C49.0626 15.8978 48.5132 15.7248 47.7727 15.7248H45.2251V19.4858ZM60.2118 22.6552V17.228H62.0229V26.5007H60.248V24.8949H60.1514C59.9381 25.3899 59.596 25.8024 59.1251 26.1324C58.6583 26.4584 58.0767 26.6214 57.3805 26.6214C56.7848 26.6214 56.2576 26.4906 55.7988 26.229C55.344 25.9634 54.9858 25.571 54.7242 25.0518C54.4667 24.5327 54.3379 23.8907 54.3379 23.1261V17.228H56.1429V22.9087C56.1429 23.5406 56.318 24.0437 56.6681 24.418C57.0183 24.7922 57.473 24.9794 58.0325 24.9794C58.3705 24.9794 58.7066 24.8949 59.0406 24.7258C59.3787 24.5568 59.6584 24.3012 59.8798 23.9591C60.1051 23.6171 60.2158 23.1824 60.2118 22.6552ZM64.4482 26.5007V17.228H66.2533V26.5007H64.4482ZM65.3598 15.7972C65.0459 15.7972 64.7762 15.6926 64.5508 15.4833C64.3295 15.27 64.2188 15.0164 64.2188 14.7226C64.2188 14.4248 64.3295 14.1713 64.5508 13.962C64.7762 13.7487 65.0459 13.642 65.3598 13.642C65.6737 13.642 65.9413 13.7487 66.1627 13.962C66.3881 14.1713 66.5008 14.4248 66.5008 14.7226C66.5008 15.0164 66.3881 15.27 66.1627 15.4833C65.9413 15.6926 65.6737 15.7972 65.3598 15.7972ZM70.4867 14.1371V26.5007H68.6816V14.1371H70.4867ZM77.2435 17.228V18.6768H72.1785V17.228H77.2435ZM73.5368 15.0064H75.3419V23.778C75.3419 24.1282 75.3942 24.3918 75.4988 24.5689C75.6035 24.7419 75.7383 24.8607 75.9033 24.9251C76.0723 24.9854 76.2554 25.0156 76.4526 25.0156C76.5975 25.0156 76.7243 25.0056 76.833 24.9854C76.9416 24.9653 77.0262 24.9492 77.0865 24.9371L77.4125 26.4283C77.3079 26.4685 77.159 26.5087 76.9658 26.549C76.7726 26.5933 76.5311 26.6174 76.2414 26.6214C75.7664 26.6295 75.3237 26.545 74.9132 26.3679C74.5027 26.1908 74.1707 25.9171 73.9171 25.5469C73.6636 25.1766 73.5368 24.7118 73.5368 24.1523V15.0064ZM85.7495 26.5007L83.0208 17.228H84.8862L86.7034 24.0376H86.7939L88.6171 17.228H90.4825L92.2936 24.0074H92.3841L94.1891 17.228H96.0546L93.3319 26.5007H91.4906L89.6071 19.8057H89.4683L87.5847 26.5007H85.7495ZM97.7675 26.5007V17.228H99.5726V26.5007H97.7675ZM98.6791 15.7972C98.3652 15.7972 98.0955 15.6926 97.8702 15.4833C97.6488 15.27 97.5381 15.0164 97.5381 14.7226C97.5381 14.4248 97.6488 14.1713 97.8702 13.962C98.0955 13.7487 98.3652 13.642 98.6791 13.642C98.993 13.642 99.2607 13.7487 99.482 13.962C99.7074 14.1713 99.8201 14.4248 99.8201 14.7226C99.8201 15.0164 99.7074 15.27 99.482 15.4833C99.2607 15.6926 98.993 15.7972 98.6791 15.7972ZM106.329 17.228V18.6768H101.264V17.228H106.329ZM102.623 15.0064H104.428V23.778C104.428 24.1282 104.48 24.3918 104.585 24.5689C104.689 24.7419 104.824 24.8607 104.989 24.9251C105.158 24.9854 105.341 25.0156 105.539 25.0156C105.683 25.0156 105.81 25.0056 105.919 24.9854C106.028 24.9653 106.112 24.9492 106.172 24.9371L106.498 26.4283C106.394 26.4685 106.245 26.5087 106.052 26.549C105.859 26.5933 105.617 26.6174 105.327 26.6214C104.852 26.6295 104.41 26.545 103.999 26.3679C103.589 26.1908 103.257 25.9171 103.003 25.5469C102.75 25.1766 102.623 24.7118 102.623 24.1523V15.0064ZM110.33 20.995V26.5007H108.525V14.1371H110.306V18.7372H110.421C110.638 18.2382 110.97 17.8417 111.417 17.5479C111.864 17.2541 112.447 17.1072 113.168 17.1072C113.804 17.1072 114.359 17.238 114.834 17.4996C115.313 17.7612 115.683 18.1516 115.945 18.6708C116.21 19.1859 116.343 19.8299 116.343 20.6026V26.5007H114.538V20.8199C114.538 20.1398 114.363 19.6126 114.013 19.2383C113.663 18.86 113.176 18.6708 112.552 18.6708C112.125 18.6708 111.743 18.7614 111.405 18.9425C111.071 19.1236 110.807 19.3892 110.614 19.7393C110.425 20.0855 110.33 20.504 110.33 20.995Z" fill="#E8E8E8"/>
<path d="M122.937 26.5007V14.1371H128.044C128.97 14.1371 129.769 14.3041 130.441 14.6381C131.117 14.9681 131.638 15.4431 132.005 16.0628C132.371 16.6786 132.554 17.4091 132.554 18.2543C132.554 19.1115 132.367 19.84 131.992 20.4396C131.618 21.0353 131.087 21.49 130.399 21.804C129.711 22.1139 128.896 22.2688 127.954 22.2688H124.724V19.9144H127.398C127.849 19.9144 128.225 19.856 128.527 19.7393C128.833 19.6186 129.065 19.4375 129.222 19.196C129.379 18.9505 129.457 18.6366 129.457 18.2543C129.457 17.8719 129.379 17.556 129.222 17.3065C129.065 17.0529 128.833 16.8637 128.527 16.739C128.221 16.6102 127.845 16.5458 127.398 16.5458H125.925V26.5007H122.937ZM129.898 20.8501L132.977 26.5007H129.717L126.698 20.8501H129.898ZM140.176 22.4982V17.228H143.122V26.5007H140.308V24.7741H140.212C140.007 25.3416 139.656 25.7924 139.161 26.1264C138.67 26.4564 138.077 26.6214 137.38 26.6214C136.749 26.6214 136.193 26.4765 135.714 26.1868C135.235 25.897 134.863 25.4925 134.597 24.9734C134.332 24.4502 134.197 23.8384 134.193 23.1381V17.228H137.145V22.5586C137.149 23.0617 137.282 23.4581 137.543 23.7479C137.805 24.0376 138.161 24.1825 138.612 24.1825C138.906 24.1825 139.169 24.1181 139.403 23.9893C139.64 23.8565 139.827 23.6654 139.964 23.4158C140.105 23.1623 140.176 22.8564 140.176 22.4982ZM153.096 20.0593L150.386 20.1317C150.357 19.9386 150.281 19.7675 150.156 19.6186C150.031 19.4657 149.868 19.3469 149.667 19.2624C149.47 19.1739 149.241 19.1296 148.979 19.1296C148.637 19.1296 148.345 19.198 148.104 19.3349C147.866 19.4717 147.749 19.6568 147.753 19.8903C147.749 20.0714 147.822 20.2283 147.971 20.3611C148.124 20.494 148.395 20.6006 148.786 20.6811L150.573 21.0192C151.498 21.1962 152.187 21.49 152.637 21.9006C153.092 22.3111 153.321 22.8544 153.325 23.5305C153.321 24.1664 153.132 24.7198 152.758 25.1907C152.388 25.6616 151.881 26.0278 151.237 26.2894C150.593 26.547 149.856 26.6758 149.027 26.6758C147.703 26.6758 146.659 26.4041 145.894 25.8608C145.133 25.3134 144.699 24.581 144.59 23.6633L147.506 23.5909C147.57 23.929 147.737 24.1865 148.007 24.3636C148.277 24.5407 148.621 24.6292 149.039 24.6292C149.418 24.6292 149.725 24.5588 149.963 24.418C150.2 24.2771 150.321 24.0899 150.325 23.8565C150.321 23.6472 150.229 23.4802 150.047 23.3555C149.866 23.2267 149.583 23.1261 149.196 23.0536L147.578 22.7457C146.649 22.5767 145.956 22.2648 145.502 21.81C145.047 21.3512 144.821 20.7676 144.825 20.0593C144.821 19.4395 144.986 18.9103 145.321 18.4716C145.655 18.0289 146.129 17.6908 146.745 17.4574C147.361 17.2239 148.087 17.1072 148.925 17.1072C150.18 17.1072 151.17 17.3708 151.895 17.8981C152.619 18.4213 153.02 19.1417 153.096 20.0593ZM160.013 17.228V19.4013H154.163V17.228H160.013ZM155.389 15.0064H158.341V23.5849C158.341 23.766 158.369 23.9129 158.425 24.0256C158.486 24.1342 158.572 24.2127 158.685 24.261C158.797 24.3053 158.932 24.3274 159.089 24.3274C159.202 24.3274 159.321 24.3173 159.445 24.2972C159.574 24.2731 159.671 24.2529 159.735 24.2368L160.182 26.3679C160.041 26.4081 159.842 26.4584 159.584 26.5188C159.331 26.5792 159.027 26.6174 158.673 26.6335C157.98 26.6657 157.387 26.5852 156.892 26.392C156.401 26.1948 156.025 25.889 155.763 25.4744C155.505 25.0599 155.381 24.5387 155.389 23.9109V15.0064Z" fill="#F1F1F1"/>
</g>
<defs>
<filter id="filter0_d_1_56" x="2.39972" y="0.39972" width="39.202" height="39.202" filterUnits="userSpaceOnUse" color-interpolation-filters="sRGB">
<feFlood flood-opacity="0" result="BackgroundImageFix"/>
<feColorMatrix in="SourceAlpha" type="matrix" values="0 0 0 0 0 0 0 0 0 0 0 0 0 0 0 0 0 0 127 0" result="hardAlpha"/>
<feOffset/>
<feGaussianBlur stdDeviation="2.80014"/>
<feComposite in2="hardAlpha" operator="out"/>
<feColorMatrix type="matrix" values="0 0 0 0 0 0 0 0 0 0 0 0 0 0 0 0 0 0 0.25 0"/>
<feBlend mode="normal" in2="BackgroundImageFix" result="effect1_dropShadow_1_56"/>
<feBlend mode="normal" in="SourceGraphic" in2="effect1_dropShadow_1_56" result="shape"/>
</filter>
<filter id="filter1_d_1_56" x="36.2871" y="3.78642" width="130.429" height="32.4286" filterUnits="userSpaceOnUse" color-interpolation-filters="sRGB">
<feFlood flood-opacity="0" result="BackgroundImageFix"/>
<feColorMatrix in="SourceAlpha" type="matrix" values="0 0 0 0 0 0 0 0 0 0 0 0 0 0 0 0 0 0 127 0" result="hardAlpha"/>
<feOffset/>
<feGaussianBlur stdDeviation="2.85714"/>
<feComposite in2="hardAlpha" operator="out"/>
<feColorMatrix type="matrix" values="0 0 0 0 0 0 0 0 0 0 0 0 0 0 0 0 0 0 0.25 0"/>
<feBlend mode="normal" in2="BackgroundImageFix" result="effect1_dropShadow_1_56"/>
<feBlend mode="normal" in="SourceGraphic" in2="effect1_dropShadow_1_56" result="shape"/>
</filter>
<linearGradient id="paint0_linear_1_56" x1="84.5007" y1="0" x2="84.5007" y2="40.0014" gradientUnits="userSpaceOnUse">
<stop stop-color="#693D23"/>
<stop offset="0.9999" stop-color="#292624"/>
<stop offset="1" stop-color="#380D09"/>
</linearGradient>
</defs>
</svg>
