<svg width="144" height="56" viewBox="0 0 144 56" fill="none" xmlns="http://www.w3.org/2000/svg">
<rect width="144" height="56" rx="8" fill="url(#paint0_linear_1_50)"/>
<rect x="1.05" y="1.05" width="141.9" height="53.9" rx="6.95" stroke="white" stroke-opacity="0.15" stroke-width="2.1"/>
<g filter="url(#filter0_d_1_50)">
<path d="M30.7475 12.7113C30.7475 12.5551 30.7782 12.4006 30.838 12.2563C30.8977 12.1121 30.9853 11.9811 31.0957 11.8707C31.2061 11.7603 31.3371 11.6727 31.4813 11.613C31.6256 11.5532 31.7801 11.5225 31.9363 11.5225C32.0924 11.5225 32.2469 11.5532 32.3912 11.613C32.5354 11.6727 32.6664 11.7603 32.7768 11.8707C32.8872 11.9811 32.9748 12.1121 33.0345 12.2563C33.0943 12.4006 33.125 12.5551 33.125 12.7113C33.125 13.0265 32.9998 13.3289 32.7768 13.5518C32.5539 13.7748 32.2515 13.9 31.9363 13.9C31.621 13.9 31.3186 13.7748 31.0957 13.5518C30.8727 13.3289 30.7475 13.0265 30.7475 12.7113ZM16.565 23.4737C16.565 23.3176 16.5957 23.1631 16.6555 23.0188C16.7152 22.8746 16.8028 22.7436 16.9132 22.6332C17.0236 22.5228 17.1546 22.4352 17.2988 22.3755C17.4431 22.3157 17.5976 22.285 17.7538 22.285C17.9099 22.285 18.0644 22.3157 18.2087 22.3755C18.3529 22.4352 18.4839 22.5228 18.5943 22.6332C18.7047 22.7436 18.7923 22.8746 18.852 23.0188C18.9118 23.1631 18.9425 23.3176 18.9425 23.4737C18.9425 23.789 18.8173 24.0914 18.5943 24.3143C18.3714 24.5373 18.069 24.6625 17.7538 24.6625C17.4385 24.6625 17.1361 24.5373 16.9132 24.3143C16.6902 24.0914 16.565 23.789 16.565 23.4737ZM44.93 23.5287C44.93 23.2135 45.0552 22.9111 45.2782 22.6882C45.5011 22.4652 45.8035 22.34 46.1187 22.34C46.434 22.34 46.7364 22.4652 46.9593 22.6882C47.1823 22.9111 47.3075 23.2135 47.3075 23.5287C47.3075 23.844 47.1823 24.1464 46.9593 24.3693C46.7364 24.5923 46.434 24.7175 46.1187 24.7175C45.8035 24.7175 45.5011 24.5923 45.2782 24.3693C45.0552 24.1464 44.93 23.844 44.93 23.5287ZM20.005 25.1612C20.2677 25.0439 20.4732 24.8273 20.5765 24.5588C20.6798 24.2904 20.6725 23.9919 20.5563 23.7287L20.0288 22.5362H22.1038V31.8863H17.9175C17.401 30.0717 17.2401 28.1744 17.4437 26.2987L20.005 25.1612ZM28.6825 25.3912V22.635H33.6225C33.8775 22.635 35.4225 22.93 35.4225 24.085C35.4225 25.045 34.235 25.39 33.26 25.39L28.6825 25.3912ZM21.9375 40.23C21.9375 40.0739 21.9682 39.9193 22.028 39.7751C22.0877 39.6309 22.1753 39.4998 22.2857 39.3894C22.3961 39.279 22.5271 39.1915 22.6713 39.1317C22.8156 39.072 22.9701 39.0412 23.1262 39.0412C23.2824 39.0412 23.4369 39.072 23.5812 39.1317C23.7254 39.1915 23.8564 39.279 23.9668 39.3894C24.0772 39.4998 24.1648 39.6309 24.2245 39.7751C24.2843 39.9193 24.315 40.0739 24.315 40.23C24.315 40.5453 24.1898 40.8476 23.9668 41.0706C23.7439 41.2935 23.4415 41.4188 23.1262 41.4188C22.811 41.4188 22.5086 41.2935 22.2857 41.0706C22.0627 40.8476 21.9375 40.5453 21.9375 40.23ZM39.5537 40.285C39.5537 39.9697 39.679 39.6674 39.9019 39.4444C40.1249 39.2215 40.4272 39.0963 40.7425 39.0963C41.0578 39.0963 41.3601 39.2215 41.5831 39.4444C41.806 39.6674 41.9312 39.9697 41.9312 40.285C41.9312 40.6003 41.806 40.9026 41.5831 41.1256C41.3601 41.3485 41.0578 41.4738 40.7425 41.4738C40.4272 41.4738 40.1249 41.3485 39.9019 41.1256C39.679 40.9026 39.5537 40.6003 39.5537 40.285ZM39.9212 37.5888C39.3337 37.4638 38.7587 37.8363 38.6337 38.4225L38.0375 41.2075C36.1185 42.0766 34.0346 42.5213 31.928 42.5112C29.8214 42.5011 27.7418 42.0363 25.8313 41.1488L25.235 38.3638C25.11 37.7763 24.535 37.4038 23.9475 37.53L21.4887 38.0575C21.0319 37.587 20.6072 37.0862 20.2175 36.5587H32.18C32.315 36.5587 32.405 36.5337 32.405 36.4112V32.18C32.405 32.055 32.315 32.0325 32.18 32.0325H28.68V29.35H32.4637C32.8087 29.35 34.31 29.45 34.7912 31.3675L35.4975 34.4925C35.7225 35.18 36.6387 36.5587 37.6137 36.5587H43.7887C43.3743 37.1131 42.9211 37.6373 42.4325 38.1275L39.9212 37.5888ZM46.5637 26.4162C46.6478 27.2608 46.6583 28.1111 46.595 28.9575H45.095C44.945 28.9575 44.8825 29.0575 44.8825 29.2038V29.8938C44.8825 31.5188 43.9675 31.8688 43.165 31.96C42.4025 32.0475 41.5525 31.64 41.45 31.1725C41 28.6375 40.25 28.0975 39.075 27.16C40.5462 26.225 42.0775 24.8475 42.0775 23.0012C42.0775 21.0087 40.7112 19.7537 39.78 19.1387C38.4737 18.2762 37.0275 18.105 36.6375 18.105H21.0938C23.2408 15.7059 26.119 14.0817 29.2825 13.4838L31.1138 15.405C31.5263 15.8388 32.2137 15.855 32.6462 15.44L34.6962 13.4813C36.7844 13.8722 38.7625 14.7131 40.493 15.9454C42.2235 17.1778 43.6651 18.772 44.7175 20.6175L43.315 23.785C43.1987 24.0481 43.1915 24.3466 43.2948 24.6151C43.3981 24.8836 43.6036 25.1002 43.8662 25.2175L46.5637 26.4162ZM50.0612 26.4662L50.0137 25.9762L51.4587 24.6287C51.7525 24.3537 51.6425 23.8037 51.2675 23.6637L49.4212 22.9737L49.2762 22.4987L50.4262 20.8987C50.6612 20.5737 50.445 20.055 50.0512 19.99L48.1037 19.6737L47.87 19.2362L48.6887 17.44C48.8562 17.0737 48.545 16.6062 48.1425 16.6212L46.1675 16.69L45.855 16.3113L46.3087 14.3863C46.4 13.995 46.0037 13.5987 45.6125 13.69L43.6875 14.1437L43.3075 13.8312L43.3762 11.8563C43.3912 11.4563 42.9237 11.1437 42.5587 11.31L40.7637 12.1287L40.3262 11.8937L40.0087 9.94625C39.9462 9.55125 39.425 9.33625 39.1 9.57125L37.5 10.7213L37.025 10.5775L36.335 8.73125C36.195 8.35625 35.6437 8.24625 35.37 8.53875L34.0225 9.98375L33.5325 9.93625L32.4925 8.255C32.2825 7.915 31.7175 7.915 31.5088 8.255L30.4688 9.93625L29.9788 9.98375L28.6288 8.53625C28.3538 8.24375 27.8037 8.3525 27.6637 8.72875L26.9737 10.575L26.4987 10.7188L24.8988 9.56875C24.5738 9.33375 24.0537 9.55 23.99 9.94375L23.6725 11.8913L23.235 12.1263L21.44 11.3075C21.075 11.1413 20.6063 11.4538 20.6225 11.8538L20.6912 13.8288L20.3113 14.1413L18.3863 13.6875C17.995 13.5963 17.5987 13.9925 17.69 14.3837L18.1437 16.3087L17.8312 16.6875L15.8562 16.6187C15.4562 16.6062 15.1437 17.0713 15.31 17.4375L16.1287 19.2337L15.8937 19.6712L13.9463 19.9875C13.5513 20.05 13.3362 20.5712 13.5712 20.8962L14.7212 22.4962L14.5762 22.9712L12.73 23.6612C12.355 23.8012 12.245 24.3525 12.5387 24.6262L13.9837 25.9737L13.9363 26.4637L12.255 27.5037C11.915 27.7137 11.915 28.2788 12.255 28.4875L13.9363 29.5275L13.9837 30.0175L12.535 31.37C12.2425 31.645 12.3513 32.195 12.7263 32.335L14.5725 33.025L14.7175 33.5L13.5675 35.1C13.3338 35.425 13.5488 35.945 13.9425 36.0088L15.8887 36.325L16.1237 36.7625L15.305 38.5575C15.1387 38.9225 15.4525 39.3912 15.8512 39.3762L17.8263 39.3075L18.1388 39.6875L17.685 41.6125C17.5938 42.0025 17.99 42.4 18.3812 42.3075L20.3062 41.8537L20.6863 42.1662L20.6175 44.1412C20.6025 44.5412 21.07 44.8538 21.435 44.6875L23.23 43.8687L23.6675 44.1038L23.985 46.05C24.0475 46.4463 24.5688 46.66 24.8938 46.4275L26.4938 45.275L26.9688 45.42L27.6588 47.2662C27.7988 47.6412 28.35 47.7512 28.6237 47.4575L29.9712 46.0125L30.4612 46.0625L31.5012 47.7437C31.7112 48.0812 32.2737 48.0837 32.485 47.7437L33.525 46.0625L34.015 46.0125L35.3625 47.4575C35.6375 47.7512 36.1875 47.6412 36.3275 47.2662L37.0175 45.42L37.4925 45.275L39.0925 46.4275C39.4175 46.6613 39.9375 46.4463 40.0012 46.05L40.3187 44.1038L40.7562 43.8687L42.5512 44.6875C42.9162 44.8538 43.3837 44.5425 43.3687 44.1412L43.3 42.1662L43.6787 41.8537L45.6037 42.3075C45.995 42.3988 46.3912 42.0025 46.3 41.6125L45.8462 39.6875L46.1587 39.3075L48.1337 39.3762C48.5337 39.3925 48.8462 38.9225 48.68 38.5575L47.8612 36.7625L48.095 36.325L50.0425 36.0088C50.4387 35.9463 50.655 35.4263 50.4175 35.1L49.2675 33.5L49.4125 33.025L51.2587 32.335C51.6337 32.1938 51.7437 31.6438 51.45 31.37L50.005 30.0225L50.0525 29.5325L51.7337 28.4925C52.0737 28.2825 52.075 27.72 51.7337 27.5087L50.0612 26.4662Z" fill="white"/>
</g>
<g filter="url(#filter1_d_1_50)">
<path d="M61.2784 24.5V12.8636H65.5398C66.3655 12.8636 67.0492 13 67.5909 13.2727C68.1326 13.5417 68.5379 13.9072 68.8068 14.3693C69.0757 14.8276 69.2102 15.3447 69.2102 15.9204C69.2102 16.4053 69.1212 16.8144 68.9432 17.1477C68.7651 17.4773 68.5265 17.7424 68.2273 17.9432C67.9318 18.1401 67.606 18.2841 67.25 18.375V18.4886C67.6363 18.5076 68.0132 18.6326 68.3807 18.8636C68.7519 19.0909 69.0587 19.4148 69.3011 19.8352C69.5435 20.2557 69.6648 20.767 69.6648 21.3693C69.6648 21.964 69.5246 22.4981 69.2443 22.9716C68.9678 23.4413 68.5398 23.8144 67.9602 24.0909C67.3807 24.3636 66.6401 24.5 65.7386 24.5H61.2784ZM63.0341 22.9943H65.5682C66.4091 22.9943 67.0113 22.8314 67.375 22.5057C67.7386 22.1799 67.9204 21.7727 67.9204 21.2841C67.9204 20.9167 67.8276 20.5795 67.642 20.2727C67.4564 19.9659 67.1913 19.7216 66.8466 19.5398C66.5057 19.3579 66.1004 19.267 65.6307 19.267H63.0341V22.9943ZM63.0341 17.8977H65.3863C65.7803 17.8977 66.1345 17.822 66.4488 17.6704C66.767 17.5189 67.0189 17.3068 67.2045 17.0341C67.3939 16.7576 67.4886 16.4318 67.4886 16.0568C67.4886 15.5758 67.3201 15.1723 66.9829 14.8466C66.6458 14.5208 66.1288 14.3579 65.4318 14.3579H63.0341V17.8977ZM77.1392 20.8807V15.7727H78.8437V24.5H77.1733V22.9886H77.0824C76.8816 23.4545 76.5596 23.8428 76.1165 24.1534C75.6771 24.4602 75.1297 24.6136 74.4744 24.6136C73.9138 24.6136 73.4176 24.4905 72.9858 24.2443C72.5577 23.9943 72.2206 23.625 71.9744 23.1364C71.732 22.6477 71.6108 22.0436 71.6108 21.3239V15.7727H73.3096V21.1193C73.3096 21.714 73.4744 22.1875 73.804 22.5398C74.1335 22.892 74.5615 23.0682 75.088 23.0682C75.4062 23.0682 75.7225 22.9886 76.0369 22.8295C76.3551 22.6704 76.6184 22.4299 76.8267 22.1079C77.0388 21.786 77.143 21.3769 77.1392 20.8807ZM81.1264 24.5V15.7727H82.8253V24.5H81.1264ZM81.9844 14.4261C81.6889 14.4261 81.4351 14.3276 81.223 14.1307C81.0147 13.9299 80.9105 13.6913 80.9105 13.4148C80.9105 13.1345 81.0147 12.8958 81.223 12.6989C81.4351 12.4981 81.6889 12.3977 81.9844 12.3977C82.2798 12.3977 82.5317 12.4981 82.74 12.6989C82.9522 12.8958 83.0582 13.1345 83.0582 13.4148C83.0582 13.6913 82.9522 13.9299 82.74 14.1307C82.5317 14.3276 82.2798 14.4261 81.9844 14.4261ZM86.8096 12.8636V24.5H85.1108V12.8636H86.8096ZM93.169 15.7727V17.1364H88.402V15.7727H93.169ZM89.6804 13.6818H91.3792V21.9375C91.3792 22.267 91.4285 22.5151 91.527 22.6818C91.6254 22.8447 91.7523 22.9564 91.9076 23.017C92.0667 23.0739 92.2391 23.1023 92.4247 23.1023C92.5611 23.1023 92.6804 23.0928 92.7826 23.0739C92.8849 23.0549 92.9645 23.0398 93.0213 23.0284L93.3281 24.4318C93.2296 24.4697 93.0895 24.5076 92.9076 24.5454C92.7258 24.5871 92.4986 24.6098 92.2258 24.6136C91.7789 24.6212 91.3622 24.5417 90.9758 24.375C90.5895 24.2083 90.277 23.9508 90.0383 23.6023C89.7997 23.2538 89.6804 22.8163 89.6804 22.2898V13.6818ZM101.175 24.5L98.6065 15.7727H100.362L102.072 22.1818H102.158L103.874 15.7727H105.629L107.334 22.1534H107.419L109.118 15.7727H110.874L108.311 24.5H106.578L104.805 18.1989H104.675L102.902 24.5H101.175ZM112.486 24.5V15.7727H114.185V24.5H112.486ZM113.344 14.4261C113.048 14.4261 112.794 14.3276 112.582 14.1307C112.374 13.9299 112.27 13.6913 112.27 13.4148C112.27 13.1345 112.374 12.8958 112.582 12.6989C112.794 12.4981 113.048 12.3977 113.344 12.3977C113.639 12.3977 113.891 12.4981 114.099 12.6989C114.312 12.8958 114.418 13.1345 114.418 13.4148C114.418 13.6913 114.312 13.9299 114.099 14.1307C113.891 14.3276 113.639 14.4261 113.344 14.4261ZM120.544 15.7727V17.1364H115.777V15.7727H120.544ZM117.055 13.6818H118.754V21.9375C118.754 22.267 118.803 22.5151 118.902 22.6818C119 22.8447 119.127 22.9564 119.283 23.017C119.442 23.0739 119.614 23.1023 119.8 23.1023C119.936 23.1023 120.055 23.0928 120.158 23.0739C120.26 23.0549 120.339 23.0398 120.396 23.0284L120.703 24.4318C120.605 24.4697 120.464 24.5076 120.283 24.5454C120.101 24.5871 119.874 24.6098 119.601 24.6136C119.154 24.6212 118.737 24.5417 118.351 24.375C117.964 24.2083 117.652 23.9508 117.413 23.6023C117.175 23.2538 117.055 22.8163 117.055 22.2898V13.6818ZM124.31 19.3182V24.5H122.611V12.8636H124.287V17.1932H124.395C124.599 16.7235 124.912 16.3504 125.332 16.0739C125.753 15.7973 126.302 15.6591 126.98 15.6591C127.579 15.6591 128.101 15.7822 128.548 16.0284C128.999 16.2746 129.348 16.642 129.594 17.1307C129.844 17.6155 129.969 18.2216 129.969 18.9489V24.5H128.27V19.1534C128.27 18.5133 128.105 18.017 127.776 17.6648C127.446 17.3087 126.988 17.1307 126.401 17.1307C125.999 17.1307 125.639 17.2159 125.321 17.3864C125.007 17.5568 124.758 17.8068 124.577 18.1364C124.399 18.4621 124.31 18.8561 124.31 19.3182Z" fill="#E8E8E8"/>
<path d="M60.9357 43.5V31.1364H66.043C66.9686 31.1364 67.7675 31.3034 68.4396 31.6374C69.1157 31.9674 69.6369 32.4423 70.0032 33.0621C70.3694 33.6779 70.5525 34.4084 70.5525 35.2535C70.5525 36.1108 70.3654 36.8392 69.9911 37.4389C69.6168 38.0346 69.0856 38.4893 68.3974 38.8033C67.7091 39.1132 66.8942 39.2681 65.9524 39.2681H62.7226V36.9137H65.397C65.8478 36.9137 66.2241 36.8553 66.5259 36.7386C66.8318 36.6179 67.0632 36.4368 67.2202 36.1953C67.3771 35.9498 67.4556 35.6359 67.4556 35.2535C67.4556 34.8712 67.3771 34.5553 67.2202 34.3057C67.0632 34.0522 66.8318 33.863 66.5259 33.7383C66.22 33.6095 65.8437 33.5451 65.397 33.5451H63.924V43.5H60.9357ZM67.8963 37.8494L70.9751 43.5H67.7152L64.6967 37.8494H67.8963ZM78.1742 39.4975V34.2273H81.1202V43.5H78.307V41.7734H78.2104C78.0051 42.3409 77.655 42.7917 77.16 43.1257C76.669 43.4557 76.0753 43.6207 75.3791 43.6207C74.7472 43.6207 74.1918 43.4758 73.7129 43.1861C73.2339 42.8963 72.8617 42.4918 72.596 41.9726C72.3304 41.4494 72.1956 40.8377 72.1916 40.1374V34.2273H75.1436V39.5579C75.1476 40.061 75.2805 40.4574 75.5421 40.7471C75.8037 41.0369 76.1598 41.1818 76.6106 41.1818C76.9044 41.1818 77.168 41.1174 77.4014 40.9886C77.6389 40.8558 77.826 40.6646 77.9629 40.4151C78.1037 40.1616 78.1742 39.8557 78.1742 39.4975ZM91.0947 37.0586L88.3841 37.131C88.3559 36.9378 88.2795 36.7668 88.1547 36.6179C88.03 36.465 87.867 36.3462 87.6657 36.2617C87.4685 36.1732 87.2391 36.1289 86.9775 36.1289C86.6354 36.1289 86.3436 36.1973 86.1022 36.3342C85.8647 36.471 85.748 36.6561 85.752 36.8895C85.748 37.0707 85.8204 37.2276 85.9693 37.3604C86.1223 37.4932 86.3939 37.5999 86.7843 37.6804L88.5713 38.0185C89.4969 38.1955 90.1851 38.4893 90.6359 38.8998C91.0907 39.3104 91.3201 39.8537 91.3241 40.5298C91.3201 41.1657 91.1309 41.7191 90.7566 42.19C90.3864 42.6609 89.8793 43.0271 89.2353 43.2887C88.5914 43.5463 87.8549 43.6751 87.0258 43.6751C85.7017 43.6751 84.6573 43.4034 83.8926 42.8601C83.132 42.3127 82.6973 41.5802 82.5887 40.6626L85.5045 40.5902C85.5689 40.9283 85.7359 41.1858 86.0056 41.3629C86.2752 41.54 86.6193 41.6285 87.0379 41.6285C87.4162 41.6285 87.7241 41.5581 87.9615 41.4172C88.199 41.2764 88.3197 41.0892 88.3238 40.8558C88.3197 40.6465 88.2272 40.4795 88.0461 40.3547C87.8649 40.226 87.5812 40.1253 87.1948 40.0529L85.5769 39.745C84.6473 39.576 83.955 39.2641 83.5002 38.8093C83.0455 38.3505 82.8201 37.7669 82.8241 37.0586C82.8201 36.4388 82.9851 35.9096 83.3191 35.4709C83.6532 35.0282 84.1281 34.6901 84.7439 34.4567C85.3596 34.2232 86.0861 34.1065 86.9232 34.1065C88.1789 34.1065 89.1689 34.3701 89.8934 34.8974C90.6178 35.4206 91.0182 36.141 91.0947 37.0586ZM98.0115 34.2273V36.4006H92.1617V34.2273H98.0115ZM93.3872 32.0057H96.3393V40.5842C96.3393 40.7653 96.3675 40.9122 96.4238 41.0248C96.4842 41.1335 96.5707 41.212 96.6834 41.2603C96.7961 41.3046 96.9309 41.3267 97.0879 41.3267C97.2006 41.3267 97.3193 41.3166 97.444 41.2965C97.5728 41.2724 97.6694 41.2522 97.7338 41.2361L98.1805 43.3672C98.0397 43.4074 97.8405 43.4577 97.5829 43.5181C97.3293 43.5785 97.0255 43.6167 96.6713 43.6328C95.9791 43.665 95.3855 43.5845 94.8904 43.3913C94.3994 43.1941 94.0231 42.8882 93.7615 42.4737C93.5039 42.0592 93.3792 41.538 93.3872 40.9101V32.0057Z" fill="#F1F1F1"/>
</g>
<defs>
<filter id="filter0_d_1_50" x="6.28571" y="2.28571" width="51.4286" height="51.4286" filterUnits="userSpaceOnUse" color-interpolation-filters="sRGB">
<feFlood flood-opacity="0" result="BackgroundImageFix"/>
<feColorMatrix in="SourceAlpha" type="matrix" values="0 0 0 0 0 0 0 0 0 0 0 0 0 0 0 0 0 0 127 0" result="hardAlpha"/>
<feOffset/>
<feGaussianBlur stdDeviation="2.85714"/>
<feComposite in2="hardAlpha" operator="out"/>
<feColorMatrix type="matrix" values="0 0 0 0 0 0 0 0 0 0 0 0 0 0 0 0 0 0 0.25 0"/>
<feBlend mode="normal" in2="BackgroundImageFix" result="effect1_dropShadow_1_50"/>
<feBlend mode="normal" in="SourceGraphic" in2="effect1_dropShadow_1_50" result="shape"/>
</filter>
<filter id="filter1_d_1_50" x="54.4" y="3.9" width="83.2" height="48.2" filterUnits="userSpaceOnUse" color-interpolation-filters="sRGB">
<feFlood flood-opacity="0" result="BackgroundImageFix"/>
<feColorMatrix in="SourceAlpha" type="matrix" values="0 0 0 0 0 0 0 0 0 0 0 0 0 0 0 0 0 0 127 0" result="hardAlpha"/>
<feOffset/>
<feGaussianBlur stdDeviation="2.8"/>
<feComposite in2="hardAlpha" operator="out"/>
<feColorMatrix type="matrix" values="0 0 0 0 0 0 0 0 0 0 0 0 0 0 0 0 0 0 0.25 0"/>
<feBlend mode="normal" in2="BackgroundImageFix" result="effect1_dropShadow_1_50"/>
<feBlend mode="normal" in="SourceGraphic" in2="effect1_dropShadow_1_50" result="shape"/>
</filter>
<linearGradient id="paint0_linear_1_50" x1="72" y1="0" x2="72" y2="56" gradientUnits="userSpaceOnUse">
<stop offset="0.0003" stop-color="#C92E1E"/>
<stop offset="0.0004" stop-color="#FFA83D"/>
<stop offset="0.0005" stop-color="#693D23"/>
<stop offset="1" stop-color="#292624"/>
</linearGradient>
</defs>
</svg>
