<svg width="56" height="56" viewBox="0 0 56 56" fill="none" xmlns="http://www.w3.org/2000/svg">
<rect width="56" height="56" rx="8.4" fill="url(#paint0_linear_1_62)"/>
<rect x="1.05" y="1.05" width="53.9" height="53.9" rx="7.35" stroke="white" stroke-opacity="0.15" stroke-width="2.1"/>
<g filter="url(#filter0_d_1_62)">
<path d="M26.7475 12.7113C26.7475 12.5551 26.7782 12.4006 26.838 12.2563C26.8977 12.1121 26.9853 11.9811 27.0957 11.8707C27.2061 11.7603 27.3371 11.6727 27.4813 11.613C27.6256 11.5532 27.7801 11.5225 27.9363 11.5225C28.0924 11.5225 28.2469 11.5532 28.3912 11.613C28.5354 11.6727 28.6664 11.7603 28.7768 11.8707C28.8872 11.9811 28.9748 12.1121 29.0345 12.2563C29.0943 12.4006 29.125 12.5551 29.125 12.7113C29.125 13.0265 28.9998 13.3289 28.7768 13.5518C28.5539 13.7748 28.2515 13.9 27.9363 13.9C27.621 13.9 27.3186 13.7748 27.0957 13.5518C26.8727 13.3289 26.7475 13.0265 26.7475 12.7113ZM12.565 23.4737C12.565 23.3176 12.5957 23.1631 12.6555 23.0188C12.7152 22.8746 12.8028 22.7436 12.9132 22.6332C13.0236 22.5228 13.1546 22.4352 13.2988 22.3755C13.4431 22.3157 13.5976 22.285 13.7538 22.285C13.9099 22.285 14.0644 22.3157 14.2087 22.3755C14.3529 22.4352 14.4839 22.5228 14.5943 22.6332C14.7047 22.7436 14.7923 22.8746 14.852 23.0188C14.9118 23.1631 14.9425 23.3176 14.9425 23.4737C14.9425 23.789 14.8173 24.0914 14.5943 24.3143C14.3714 24.5373 14.069 24.6625 13.7538 24.6625C13.4385 24.6625 13.1361 24.5373 12.9132 24.3143C12.6902 24.0914 12.565 23.789 12.565 23.4737ZM40.93 23.5287C40.93 23.2135 41.0552 22.9111 41.2782 22.6882C41.5011 22.4652 41.8035 22.34 42.1187 22.34C42.434 22.34 42.7364 22.4652 42.9593 22.6882C43.1823 22.9111 43.3075 23.2135 43.3075 23.5287C43.3075 23.844 43.1823 24.1464 42.9593 24.3693C42.7364 24.5923 42.434 24.7175 42.1187 24.7175C41.8035 24.7175 41.5011 24.5923 41.2782 24.3693C41.0552 24.1464 40.93 23.844 40.93 23.5287ZM16.005 25.1612C16.2677 25.0439 16.4732 24.8273 16.5765 24.5588C16.6798 24.2904 16.6725 23.9919 16.5563 23.7287L16.0288 22.5362H18.1038V31.8863H13.9175C13.401 30.0717 13.2401 28.1744 13.4437 26.2987L16.005 25.1612ZM24.6825 25.3912V22.635H29.6225C29.8775 22.635 31.4225 22.93 31.4225 24.085C31.4225 25.045 30.235 25.39 29.26 25.39L24.6825 25.3912ZM17.9375 40.23C17.9375 40.0739 17.9682 39.9193 18.028 39.7751C18.0877 39.6309 18.1753 39.4998 18.2857 39.3894C18.3961 39.279 18.5271 39.1915 18.6713 39.1317C18.8156 39.072 18.9701 39.0412 19.1262 39.0412C19.2824 39.0412 19.4369 39.072 19.5812 39.1317C19.7254 39.1915 19.8564 39.279 19.9668 39.3894C20.0772 39.4998 20.1648 39.6309 20.2245 39.7751C20.2843 39.9193 20.315 40.0739 20.315 40.23C20.315 40.5453 20.1898 40.8476 19.9668 41.0706C19.7439 41.2935 19.4415 41.4188 19.1262 41.4188C18.811 41.4188 18.5086 41.2935 18.2857 41.0706C18.0627 40.8476 17.9375 40.5453 17.9375 40.23ZM35.5537 40.285C35.5537 39.9697 35.679 39.6674 35.9019 39.4444C36.1249 39.2215 36.4272 39.0963 36.7425 39.0963C37.0578 39.0963 37.3601 39.2215 37.5831 39.4444C37.806 39.6674 37.9312 39.9697 37.9312 40.285C37.9312 40.6003 37.806 40.9026 37.5831 41.1256C37.3601 41.3485 37.0578 41.4738 36.7425 41.4738C36.4272 41.4738 36.1249 41.3485 35.9019 41.1256C35.679 40.9026 35.5537 40.6003 35.5537 40.285ZM35.9212 37.5888C35.3337 37.4638 34.7587 37.8363 34.6337 38.4225L34.0375 41.2075C32.1185 42.0766 30.0346 42.5213 27.928 42.5112C25.8214 42.5011 23.7418 42.0363 21.8313 41.1488L21.235 38.3638C21.11 37.7763 20.535 37.4038 19.9475 37.53L17.4887 38.0575C17.0319 37.587 16.6072 37.0862 16.2175 36.5587H28.18C28.315 36.5587 28.405 36.5337 28.405 36.4112V32.18C28.405 32.055 28.315 32.0325 28.18 32.0325H24.68V29.35H28.4637C28.8087 29.35 30.31 29.45 30.7912 31.3675L31.4975 34.4925C31.7225 35.18 32.6387 36.5587 33.6137 36.5587H39.7887C39.3743 37.1131 38.9211 37.6373 38.4325 38.1275L35.9212 37.5888ZM42.5637 26.4162C42.6478 27.2608 42.6583 28.1111 42.595 28.9575H41.095C40.945 28.9575 40.8825 29.0575 40.8825 29.2038V29.8938C40.8825 31.5188 39.9675 31.8688 39.165 31.96C38.4025 32.0475 37.5525 31.64 37.45 31.1725C37 28.6375 36.25 28.0975 35.075 27.16C36.5462 26.225 38.0775 24.8475 38.0775 23.0012C38.0775 21.0087 36.7112 19.7537 35.78 19.1387C34.4737 18.2762 33.0275 18.105 32.6375 18.105H17.0938C19.2408 15.7059 22.119 14.0817 25.2825 13.4838L27.1138 15.405C27.5263 15.8388 28.2137 15.855 28.6462 15.44L30.6962 13.4813C32.7844 13.8722 34.7625 14.7131 36.493 15.9454C38.2235 17.1778 39.6651 18.772 40.7175 20.6175L39.315 23.785C39.1987 24.0481 39.1915 24.3466 39.2948 24.6151C39.3981 24.8836 39.6036 25.1002 39.8662 25.2175L42.5637 26.4162ZM46.0612 26.4662L46.0137 25.9762L47.4587 24.6287C47.7525 24.3537 47.6425 23.8037 47.2675 23.6637L45.4212 22.9737L45.2762 22.4987L46.4262 20.8987C46.6612 20.5737 46.445 20.055 46.0512 19.99L44.1037 19.6737L43.87 19.2362L44.6887 17.44C44.8562 17.0737 44.545 16.6062 44.1425 16.6212L42.1675 16.69L41.855 16.3113L42.3087 14.3863C42.4 13.995 42.0037 13.5987 41.6125 13.69L39.6875 14.1437L39.3075 13.8312L39.3762 11.8563C39.3912 11.4563 38.9237 11.1437 38.5587 11.31L36.7637 12.1287L36.3262 11.8937L36.0087 9.94625C35.9462 9.55125 35.425 9.33625 35.1 9.57125L33.5 10.7213L33.025 10.5775L32.335 8.73125C32.195 8.35625 31.6437 8.24625 31.37 8.53875L30.0225 9.98375L29.5325 9.93625L28.4925 8.255C28.2825 7.915 27.7175 7.915 27.5088 8.255L26.4688 9.93625L25.9788 9.98375L24.6288 8.53625C24.3538 8.24375 23.8037 8.3525 23.6637 8.72875L22.9737 10.575L22.4987 10.7188L20.8988 9.56875C20.5738 9.33375 20.0537 9.55 19.99 9.94375L19.6725 11.8913L19.235 12.1263L17.44 11.3075C17.075 11.1413 16.6063 11.4538 16.6225 11.8538L16.6912 13.8288L16.3113 14.1413L14.3863 13.6875C13.995 13.5963 13.5987 13.9925 13.69 14.3837L14.1437 16.3087L13.8312 16.6875L11.8562 16.6187C11.4562 16.6062 11.1437 17.0713 11.31 17.4375L12.1287 19.2337L11.8937 19.6712L9.94625 19.9875C9.55125 20.05 9.33625 20.5712 9.57125 20.8962L10.7212 22.4962L10.5762 22.9712L8.73 23.6612C8.355 23.8012 8.245 24.3525 8.53875 24.6262L9.98375 25.9737L9.93625 26.4637L8.255 27.5037C7.915 27.7137 7.915 28.2788 8.255 28.4875L9.93625 29.5275L9.98375 30.0175L8.535 31.37C8.2425 31.645 8.35125 32.195 8.72625 32.335L10.5725 33.025L10.7175 33.5L9.5675 35.1C9.33375 35.425 9.54875 35.945 9.9425 36.0088L11.8887 36.325L12.1237 36.7625L11.305 38.5575C11.1387 38.9225 11.4525 39.3912 11.8512 39.3762L13.8263 39.3075L14.1388 39.6875L13.685 41.6125C13.5938 42.0025 13.99 42.4 14.3812 42.3075L16.3062 41.8537L16.6863 42.1662L16.6175 44.1412C16.6025 44.5412 17.07 44.8538 17.435 44.6875L19.23 43.8687L19.6675 44.1038L19.985 46.05C20.0475 46.4463 20.5688 46.66 20.8938 46.4275L22.4938 45.275L22.9688 45.42L23.6588 47.2662C23.7988 47.6412 24.35 47.7512 24.6237 47.4575L25.9712 46.0125L26.4612 46.0625L27.5012 47.7437C27.7112 48.0812 28.2737 48.0837 28.485 47.7437L29.525 46.0625L30.015 46.0125L31.3625 47.4575C31.6375 47.7512 32.1875 47.6412 32.3275 47.2662L33.0175 45.42L33.4925 45.275L35.0925 46.4275C35.4175 46.6613 35.9375 46.4463 36.0012 46.05L36.3187 44.1038L36.7562 43.8687L38.5512 44.6875C38.9162 44.8538 39.3837 44.5425 39.3687 44.1412L39.3 42.1662L39.6787 41.8537L41.6037 42.3075C41.995 42.3988 42.3912 42.0025 42.3 41.6125L41.8462 39.6875L42.1587 39.3075L44.1337 39.3762C44.5337 39.3925 44.8462 38.9225 44.68 38.5575L43.8612 36.7625L44.095 36.325L46.0425 36.0088C46.4387 35.9463 46.655 35.4263 46.4175 35.1L45.2675 33.5L45.4125 33.025L47.2587 32.335C47.6337 32.1938 47.7437 31.6438 47.45 31.37L46.005 30.0225L46.0525 29.5325L47.7337 28.4925C48.0737 28.2825 48.075 27.72 47.7337 27.5087L46.0612 26.4662Z" fill="white"/>
</g>
<defs>
<filter id="filter0_d_1_62" x="2.28571" y="2.28571" width="51.4286" height="51.4286" filterUnits="userSpaceOnUse" color-interpolation-filters="sRGB">
<feFlood flood-opacity="0" result="BackgroundImageFix"/>
<feColorMatrix in="SourceAlpha" type="matrix" values="0 0 0 0 0 0 0 0 0 0 0 0 0 0 0 0 0 0 127 0" result="hardAlpha"/>
<feOffset/>
<feGaussianBlur stdDeviation="2.85714"/>
<feComposite in2="hardAlpha" operator="out"/>
<feColorMatrix type="matrix" values="0 0 0 0 0 0 0 0 0 0 0 0 0 0 0 0 0 0 0.25 0"/>
<feBlend mode="normal" in2="BackgroundImageFix" result="effect1_dropShadow_1_62"/>
<feBlend mode="normal" in="SourceGraphic" in2="effect1_dropShadow_1_62" result="shape"/>
</filter>
<linearGradient id="paint0_linear_1_62" x1="28" y1="0" x2="28" y2="56" gradientUnits="userSpaceOnUse">
<stop stop-color="#693D23"/>
<stop offset="0.9994" stop-color="#292624"/>
<stop offset="0.9995" stop-color="#380D09"/>
<stop offset="0.9996" stop-color="#3D1756"/>
<stop offset="0.9997" stop-color="#023E6D"/>
<stop offset="0.9998" stop-color="#2B253E"/>
<stop offset="0.9999" stop-color="#260300"/>
<stop offset="1" stop-color="#00002D"/>
</linearGradient>
</defs>
</svg>
