<svg width="40" height="40" viewBox="0 0 40 40" fill="none" xmlns="http://www.w3.org/2000/svg">
<rect width="40" height="40" rx="8" fill="url(#paint0_linear_1_68)"/>
<rect x="1.05" y="1.05" width="37.9" height="37.9" rx="6.95" stroke="white" stroke-opacity="0.15" stroke-width="2.1"/>
<g filter="url(#filter0_d_1_68)">
<mask id="mask0_1_68" style="mask-type:luminance" maskUnits="userSpaceOnUse" x="6" y="11" width="28" height="18">
<path d="M6 11.25H34V28.05H6V11.25Z" fill="white"/>
</mask>
<g mask="url(#mask0_1_68)">
<path fill-rule="evenodd" clip-rule="evenodd" d="M20 11.25C16.2667 11.25 13.9333 13.1167 13 16.85C14.4 14.9833 16.0333 14.2833 17.9 14.75C18.965 15.016 19.7262 15.7891 20.5688 16.6441C21.9413 18.0374 23.5301 19.65 27 19.65C30.7333 19.65 33.0667 17.7833 34 14.05C32.6 15.9167 30.9667 16.6167 29.1 16.15C28.035 15.884 27.2738 15.1109 26.4312 14.2559C25.0587 12.8626 23.4699 11.25 20 11.25ZM13 19.65C9.26667 19.65 6.93333 21.5167 6 25.25C7.4 23.3833 9.03333 22.6833 10.9 23.15C11.965 23.4165 12.7262 24.1891 13.5688 25.0441C14.9413 26.4374 16.5301 28.05 20 28.05C23.7333 28.05 26.0667 26.1833 27 22.45C25.6 24.3167 23.9667 25.0167 22.1 24.55C21.035 24.284 20.2738 23.5109 19.4312 22.6559C18.0587 21.2626 16.4699 19.65 13 19.65Z" fill="#38BDF8"/>
</g>
</g>
<defs>
<filter id="filter0_d_1_68" x="2" y="2" width="36" height="36" filterUnits="userSpaceOnUse" color-interpolation-filters="sRGB">
<feFlood flood-opacity="0" result="BackgroundImageFix"/>
<feColorMatrix in="SourceAlpha" type="matrix" values="0 0 0 0 0 0 0 0 0 0 0 0 0 0 0 0 0 0 127 0" result="hardAlpha"/>
<feOffset/>
<feGaussianBlur stdDeviation="2"/>
<feComposite in2="hardAlpha" operator="out"/>
<feColorMatrix type="matrix" values="0 0 0 0 0 0 0 0 0 0 0 0 0 0 0 0 0 0 0.25 0"/>
<feBlend mode="normal" in2="BackgroundImageFix" result="effect1_dropShadow_1_68"/>
<feBlend mode="normal" in="SourceGraphic" in2="effect1_dropShadow_1_68" result="shape"/>
</filter>
<linearGradient id="paint0_linear_1_68" x1="20" y1="0" x2="20" y2="40" gradientUnits="userSpaceOnUse">
<stop stop-color="#067CB0"/>
<stop offset="0.9994" stop-color="#045375"/>
<stop offset="0.9995"/>
<stop offset="0.9996" stop-color="#00566B"/>
</linearGradient>
</defs>
</svg>
