<svg width="237" height="40" viewBox="0 0 237 40" fill="none" xmlns="http://www.w3.org/2000/svg">
<rect width="237.001" height="40.0014" rx="8" fill="url(#paint0_linear_1_56)"/>
<rect x="1.07143" y="1.07143" width="234.858" height="37.8585" rx="6.92857" stroke="white" stroke-opacity="0.15" stroke-width="2.14286"/>
<g filter="url(#filter0_d_1_56)">
<mask id="mask0_1_56" style="mask-type:luminance" maskUnits="userSpaceOnUse" x="8" y="11" width="28" height="18">
<path d="M8 11.25H36V28.05H8V11.25Z" fill="white"/>
</mask>
<g mask="url(#mask0_1_56)">
<path fill-rule="evenodd" clip-rule="evenodd" d="M22 11.25C18.2667 11.25 15.9333 13.1167 15 16.85C16.4 14.9833 18.0333 14.2833 19.9 14.75C20.965 15.016 21.7262 15.7891 22.5688 16.6441C23.9413 18.0374 25.5301 19.65 29 19.65C32.7333 19.65 35.0667 17.7833 36 14.05C34.6 15.9167 32.9667 16.6167 31.1 16.15C30.035 15.884 29.2738 15.1109 28.4312 14.2559C27.0587 12.8626 25.4699 11.25 22 11.25ZM15 19.65C11.2667 19.65 8.93333 21.5167 8 25.25C9.4 23.3833 11.0333 22.6833 12.9 23.15C13.965 23.4165 14.7262 24.1891 15.5688 25.0441C16.9413 26.4374 18.5301 28.05 22 28.05C25.7333 28.05 28.0667 26.1833 29 22.45C27.6 24.3167 25.9667 25.0167 24.1 24.55C23.035 24.284 22.2738 23.5109 21.4312 22.6559C20.0587 21.2626 18.4699 19.65 15 19.65Z" fill="#38BDF8"/>
</g>
</g>
<g filter="url(#filter1_d_1_56)">
<path d="M43.3597 26.5007V14.1371H47.8874C48.7648 14.1371 49.4912 14.282 50.0667 14.5717C50.6423 14.8575 51.0729 15.2458 51.3586 15.7369C51.6444 16.2238 51.7873 16.7732 51.7873 17.3849C51.7873 17.9001 51.6927 18.3347 51.5035 18.6889C51.3144 19.0391 51.0608 19.3208 50.7429 19.5341C50.429 19.7434 50.0828 19.8963 49.7045 19.9929V20.1136C50.115 20.1337 50.5155 20.2666 50.9059 20.5121C51.3003 20.7535 51.6263 21.0976 51.8839 21.5444C52.1414 21.9911 52.2702 22.5344 52.2702 23.1743C52.2702 23.8062 52.1213 24.3737 51.8235 24.8768C51.5297 25.3758 51.0749 25.7722 50.4591 26.066C49.8434 26.3558 49.0566 26.5007 48.0987 26.5007H43.3597ZM45.2251 24.9009H47.9176C48.8111 24.9009 49.451 24.7279 49.8373 24.3817C50.2237 24.0356 50.4169 23.603 50.4169 23.0838C50.4169 22.6934 50.3183 22.3352 50.1211 22.0092C49.9239 21.6832 49.6421 21.4236 49.2759 21.2305C48.9137 21.0373 48.483 20.9407 47.984 20.9407H45.2251V24.9009ZM45.2251 19.4858H47.7244C48.143 19.4858 48.5193 19.4053 48.8533 19.2443C49.1914 19.0833 49.459 18.8579 49.6562 18.5682C49.8575 18.2744 49.9581 17.9283 49.9581 17.5298C49.9581 17.0187 49.779 16.5901 49.4208 16.244C49.0626 15.8978 48.5132 15.7248 47.7727 15.7248H45.2251V19.4858ZM60.2118 22.6552V17.228H62.0229V26.5007H60.248V24.8949H60.1514C59.9381 25.3899 59.596 25.8024 59.1251 26.1324C58.6583 26.4584 58.0767 26.6214 57.3805 26.6214C56.7848 26.6214 56.2576 26.4906 55.7988 26.229C55.344 25.9634 54.9858 25.571 54.7242 25.0518C54.4667 24.5327 54.3379 23.8907 54.3379 23.1261V17.228H56.1429V22.9087C56.1429 23.5406 56.318 24.0437 56.6681 24.418C57.0183 24.7922 57.473 24.9794 58.0325 24.9794C58.3705 24.9794 58.7066 24.8949 59.0406 24.7258C59.3787 24.5568 59.6584 24.3012 59.8798 23.9591C60.1051 23.6171 60.2158 23.1824 60.2118 22.6552ZM64.4482 26.5007V17.228H66.2533V26.5007H64.4482ZM65.3598 15.7972C65.0459 15.7972 64.7762 15.6926 64.5508 15.4833C64.3295 15.27 64.2188 15.0164 64.2188 14.7226C64.2188 14.4248 64.3295 14.1713 64.5508 13.962C64.7762 13.7487 65.0459 13.642 65.3598 13.642C65.6737 13.642 65.9413 13.7487 66.1627 13.962C66.3881 14.1713 66.5008 14.4248 66.5008 14.7226C66.5008 15.0164 66.3881 15.27 66.1627 15.4833C65.9413 15.6926 65.6737 15.7972 65.3598 15.7972ZM70.4867 14.1371V26.5007H68.6816V14.1371H70.4867ZM77.2435 17.228V18.6768H72.1785V17.228H77.2435ZM73.5368 15.0064H75.3419V23.778C75.3419 24.1282 75.3942 24.3918 75.4988 24.5689C75.6035 24.7419 75.7383 24.8607 75.9033 24.9251C76.0723 24.9854 76.2554 25.0156 76.4526 25.0156C76.5975 25.0156 76.7243 25.0056 76.833 24.9854C76.9416 24.9653 77.0262 24.9492 77.0865 24.9371L77.4125 26.4283C77.3079 26.4685 77.159 26.5087 76.9658 26.549C76.7726 26.5933 76.5311 26.6174 76.2414 26.6214C75.7664 26.6295 75.3237 26.545 74.9132 26.3679C74.5027 26.1908 74.1707 25.9171 73.9171 25.5469C73.6636 25.1766 73.5368 24.7118 73.5368 24.1523V15.0064ZM85.7495 26.5007L83.0208 17.228H84.8862L86.7034 24.0376H86.7939L88.6171 17.228H90.4825L92.2936 24.0074H92.3841L94.1891 17.228H96.0546L93.3319 26.5007H91.4906L89.6071 19.8057H89.4683L87.5847 26.5007H85.7495ZM97.7675 26.5007V17.228H99.5726V26.5007H97.7675ZM98.6791 15.7972C98.3652 15.7972 98.0955 15.6926 97.8702 15.4833C97.6488 15.27 97.5381 15.0164 97.5381 14.7226C97.5381 14.4248 97.6488 14.1713 97.8702 13.962C98.0955 13.7487 98.3652 13.642 98.6791 13.642C98.993 13.642 99.2607 13.7487 99.482 13.962C99.7074 14.1713 99.8201 14.4248 99.8201 14.7226C99.8201 15.0164 99.7074 15.27 99.482 15.4833C99.2607 15.6926 98.993 15.7972 98.6791 15.7972ZM106.329 17.228V18.6768H101.264V17.228H106.329ZM102.623 15.0064H104.428V23.778C104.428 24.1282 104.48 24.3918 104.585 24.5689C104.689 24.7419 104.824 24.8607 104.989 24.9251C105.158 24.9854 105.341 25.0156 105.539 25.0156C105.683 25.0156 105.81 25.0056 105.919 24.9854C106.028 24.9653 106.112 24.9492 106.172 24.9371L106.498 26.4283C106.394 26.4685 106.245 26.5087 106.052 26.549C105.859 26.5933 105.617 26.6174 105.327 26.6214C104.852 26.6295 104.41 26.545 103.999 26.3679C103.589 26.1908 103.257 25.9171 103.003 25.5469C102.75 25.1766 102.623 24.7118 102.623 24.1523V15.0064ZM110.33 20.995V26.5007H108.525V14.1371H110.306V18.7372H110.421C110.638 18.2382 110.97 17.8417 111.417 17.5479C111.864 17.2541 112.447 17.1072 113.168 17.1072C113.804 17.1072 114.359 17.238 114.834 17.4996C115.313 17.7612 115.683 18.1516 115.945 18.6708C116.21 19.1859 116.343 19.8299 116.343 20.6026V26.5007H114.538V20.8199C114.538 20.1398 114.363 19.6126 114.013 19.2383C113.663 18.86 113.176 18.6708 112.552 18.6708C112.125 18.6708 111.743 18.7614 111.405 18.9425C111.071 19.1236 110.807 19.3892 110.614 19.7393C110.425 20.0855 110.33 20.504 110.33 20.995Z" fill="#E8E8E8"/>
<path d="M122.533 16.5639V14.1371H132.983V16.5639H129.234V26.5007H126.288V16.5639H122.533ZM135.794 26.6577C135.203 26.6577 134.677 26.5591 134.219 26.3618C133.764 26.1606 133.404 25.8588 133.138 25.4563C132.876 25.0498 132.746 24.5407 132.746 23.929C132.746 23.4138 132.836 22.9792 133.017 22.625C133.198 22.2708 133.448 21.9831 133.766 21.7617C134.084 21.5404 134.45 21.3733 134.865 21.2606C135.279 21.1439 135.722 21.0654 136.193 21.0252C136.72 20.9769 137.145 20.9266 137.466 20.8743C137.788 20.8179 138.022 20.7395 138.167 20.6388C138.316 20.5342 138.39 20.3873 138.39 20.1981V20.168C138.39 19.8581 138.283 19.6186 138.07 19.4496C137.857 19.2805 137.569 19.196 137.207 19.196C136.817 19.196 136.503 19.2805 136.265 19.4496C136.028 19.6186 135.877 19.852 135.812 20.1498L133.09 20.0533C133.17 19.4898 133.377 18.9867 133.712 18.544C134.05 18.0973 134.512 17.7471 135.1 17.4936C135.692 17.236 136.402 17.1072 137.231 17.1072C137.823 17.1072 138.368 17.1777 138.867 17.3185C139.366 17.4554 139.801 17.6566 140.171 17.9222C140.541 18.1838 140.827 18.5058 141.028 18.8881C141.234 19.2705 141.336 19.7071 141.336 20.1981V26.5007H138.559V25.2088H138.487C138.322 25.5227 138.11 25.7883 137.853 26.0057C137.599 26.223 137.299 26.386 136.953 26.4947C136.611 26.6033 136.225 26.6577 135.794 26.6577ZM136.706 24.7258C137.024 24.7258 137.31 24.6614 137.563 24.5327C137.821 24.4039 138.026 24.2268 138.179 24.0014C138.332 23.772 138.408 23.5064 138.408 23.2045V22.3231C138.324 22.3674 138.221 22.4077 138.1 22.4439C137.984 22.4801 137.855 22.5143 137.714 22.5465C137.573 22.5787 137.428 22.6069 137.279 22.631C137.13 22.6552 136.988 22.6773 136.851 22.6974C136.573 22.7417 136.336 22.8101 136.138 22.9027C135.945 22.9953 135.796 23.116 135.692 23.2649C135.591 23.4098 135.541 23.5828 135.541 23.7841C135.541 24.0899 135.649 24.3234 135.867 24.4844C136.088 24.6453 136.368 24.7258 136.706 24.7258ZM143.141 26.5007V17.228H146.093V26.5007H143.141ZM144.62 16.1474C144.206 16.1474 143.85 16.0105 143.552 15.7369C143.254 15.4592 143.105 15.1251 143.105 14.7347C143.105 14.3484 143.254 14.0183 143.552 13.7447C143.85 13.467 144.206 13.3281 144.62 13.3281C145.039 13.3281 145.395 13.467 145.689 13.7447C145.987 14.0183 146.136 14.3484 146.136 14.7347C146.136 15.1251 145.987 15.4592 145.689 15.7369C145.395 16.0105 145.039 16.1474 144.62 16.1474ZM150.924 14.1371V26.5007H147.972V14.1371H150.924ZM154.536 26.5007L152.121 17.228H155.085L156.335 23.1683H156.413L157.754 17.228H160.645L162.022 23.1261H162.1L163.314 17.228H166.278L163.857 26.5007H160.7L159.251 21.0976H159.148L157.699 26.5007H154.536ZM167.462 26.5007V17.228H170.415V26.5007H167.462ZM168.942 16.1474C168.527 16.1474 168.171 16.0105 167.873 15.7369C167.575 15.4592 167.426 15.1251 167.426 14.7347C167.426 14.3484 167.575 14.0183 167.873 13.7447C168.171 13.467 168.527 13.3281 168.942 13.3281C169.36 13.3281 169.716 13.467 170.01 13.7447C170.308 14.0183 170.457 14.3484 170.457 14.7347C170.457 15.1251 170.308 15.4592 170.01 15.7369C169.716 16.0105 169.36 16.1474 168.942 16.1474ZM175.246 21.2123V26.5007H172.294V17.228H175.101V18.9304H175.203C175.409 18.3629 175.759 17.9182 176.254 17.5962C176.749 17.2702 177.338 17.1072 178.023 17.1072C178.675 17.1072 179.24 17.2541 179.719 17.5479C180.202 17.8377 180.576 18.2442 180.842 18.7674C181.111 19.2866 181.244 19.8943 181.24 20.5905V26.5007H178.288V21.1701C178.292 20.6549 178.161 20.2525 177.896 19.9627C177.634 19.6729 177.27 19.528 176.803 19.528C176.493 19.528 176.22 19.5965 175.982 19.7333C175.749 19.8661 175.568 20.0573 175.439 20.3068C175.314 20.5563 175.25 20.8582 175.246 21.2123ZM186.455 26.6335C185.77 26.6335 185.149 26.4564 184.589 26.1023C184.03 25.7481 183.583 25.2168 183.249 24.5085C182.915 23.8002 182.748 22.9208 182.748 21.8704C182.748 20.7797 182.921 19.8822 183.267 19.1779C183.613 18.4736 184.066 17.9524 184.625 17.6143C185.189 17.2763 185.795 17.1072 186.443 17.1072C186.93 17.1072 187.346 17.1918 187.692 17.3608C188.038 17.5258 188.324 17.7391 188.549 18.0007C188.775 18.2623 188.946 18.534 189.063 18.8157H189.123V14.1371H192.075V26.5007H189.153V24.9975H189.063C188.938 25.2832 188.761 25.5509 188.531 25.8004C188.302 26.0499 188.014 26.2512 187.668 26.4041C187.326 26.557 186.922 26.6335 186.455 26.6335ZM187.481 24.3334C187.839 24.3334 188.145 24.2328 188.399 24.0316C188.652 23.8263 188.847 23.5386 188.984 23.1683C189.121 22.798 189.189 22.3634 189.189 21.8643C189.189 21.3572 189.121 20.9206 188.984 20.5543C188.851 20.1881 188.656 19.9064 188.399 19.7092C188.145 19.5119 187.839 19.4133 187.481 19.4133C187.115 19.4133 186.805 19.514 186.551 19.7152C186.298 19.9164 186.105 20.2002 185.972 20.5664C185.843 20.9326 185.779 21.3653 185.779 21.8643C185.779 22.3634 185.845 22.798 185.978 23.1683C186.111 23.5386 186.302 23.8263 186.551 24.0316C186.805 24.2328 187.115 24.3334 187.481 24.3334ZM205.165 18.6165H202.146C202.106 18.3066 202.023 18.0269 201.899 17.7773C201.774 17.5278 201.609 17.3145 201.404 17.1374C201.198 16.9603 200.955 16.8255 200.673 16.7329C200.395 16.6364 200.088 16.5881 199.749 16.5881C199.15 16.5881 198.633 16.735 198.198 17.0288C197.767 17.3226 197.435 17.7471 197.202 18.3025C196.972 18.8579 196.858 19.5301 196.858 20.3189C196.858 21.1399 196.975 21.8281 197.208 22.3835C197.445 22.9349 197.777 23.3514 198.204 23.6332C198.635 23.9109 199.144 24.0497 199.731 24.0497C200.061 24.0497 200.361 24.0074 200.631 23.9229C200.905 23.8384 201.144 23.7157 201.349 23.5547C201.559 23.3897 201.73 23.1904 201.862 22.957C201.999 22.7196 202.094 22.4519 202.146 22.1541L205.165 22.1722C205.112 22.7196 204.953 23.2589 204.688 23.7901C204.426 24.3214 204.066 24.8063 203.607 25.245C203.148 25.6797 202.589 26.0258 201.929 26.2834C201.273 26.5409 200.52 26.6697 199.671 26.6697C198.552 26.6697 197.55 26.4242 196.665 25.9332C195.783 25.4382 195.087 24.7178 194.576 23.772C194.065 22.8262 193.809 21.6752 193.809 20.3189C193.809 18.9586 194.069 17.8055 194.588 16.8597C195.107 15.9139 195.809 15.1955 196.695 14.7045C197.58 14.2135 198.572 13.968 199.671 13.968C200.42 13.968 201.112 14.0727 201.748 14.282C202.384 14.4872 202.943 14.7891 203.426 15.1875C203.909 15.5819 204.301 16.0669 204.603 16.6424C204.905 17.2179 205.092 17.8759 205.165 18.6165ZM213.557 17.8437C213.517 17.401 213.338 17.0569 213.02 16.8114C212.706 16.5619 212.258 16.4371 211.674 16.4371C211.288 16.4371 210.966 16.4874 210.708 16.5881C210.45 16.6887 210.257 16.8275 210.128 17.0046C210 17.1777 209.933 17.3769 209.929 17.6023C209.921 17.7874 209.957 17.9504 210.038 18.0913C210.122 18.2321 210.243 18.3569 210.4 18.4655C210.561 18.5702 210.754 18.6627 210.98 18.7432C211.205 18.8237 211.459 18.8942 211.74 18.9545L212.803 19.196C213.415 19.3288 213.954 19.5059 214.421 19.7273C214.892 19.9486 215.286 20.2122 215.604 20.5181C215.926 20.824 216.169 21.1761 216.334 21.5746C216.499 21.973 216.584 22.4197 216.588 22.9148C216.584 23.6955 216.387 24.3656 215.996 24.9251C215.606 25.4845 215.045 25.9131 214.312 26.2109C213.584 26.5087 212.704 26.6577 211.674 26.6577C210.64 26.6577 209.738 26.5027 208.969 26.1928C208.201 25.8829 207.603 25.412 207.176 24.7802C206.75 24.1483 206.53 23.3494 206.518 22.3835H209.38C209.404 22.7819 209.511 23.114 209.7 23.3796C209.889 23.6452 210.149 23.8465 210.479 23.9833C210.813 24.1201 211.199 24.1886 211.638 24.1886C212.04 24.1886 212.382 24.1342 212.664 24.0256C212.95 23.9169 213.169 23.766 213.322 23.5728C213.475 23.3796 213.553 23.1582 213.557 22.9087C213.553 22.6753 213.481 22.4761 213.34 22.3111C213.199 22.142 212.982 21.9971 212.688 21.8764C212.398 21.7516 212.028 21.6369 211.577 21.5323L210.285 21.2305C209.215 20.985 208.372 20.5885 207.756 20.0412C207.14 19.4898 206.834 18.7453 206.838 17.8075C206.834 17.0428 207.04 16.3727 207.454 15.7972C207.869 15.2217 208.442 14.773 209.175 14.451C209.907 14.129 210.742 13.968 211.68 13.968C212.638 13.968 213.469 14.131 214.173 14.457C214.882 14.779 215.431 15.2318 215.821 15.8153C216.212 16.3989 216.411 17.075 216.419 17.8437H213.557ZM224.78 17.8437C224.74 17.401 224.561 17.0569 224.243 16.8114C223.929 16.5619 223.48 16.4371 222.897 16.4371C222.51 16.4371 222.188 16.4874 221.931 16.5881C221.673 16.6887 221.48 16.8275 221.351 17.0046C221.222 17.1777 221.156 17.3769 221.152 17.6023C221.144 17.7874 221.18 17.9504 221.261 18.0913C221.345 18.2321 221.466 18.3569 221.623 18.4655C221.784 18.5702 221.977 18.6627 222.202 18.7432C222.428 18.8237 222.681 18.8942 222.963 18.9545L224.025 19.196C224.637 19.3288 225.177 19.5059 225.643 19.7273C226.114 19.9486 226.509 20.2122 226.827 20.5181C227.149 20.824 227.392 21.1761 227.557 21.5746C227.722 21.973 227.807 22.4197 227.811 22.9148C227.807 23.6955 227.609 24.3656 227.219 24.9251C226.829 25.4845 226.267 25.9131 225.535 26.2109C224.806 26.5087 223.927 26.6577 222.897 26.6577C221.862 26.6577 220.961 26.5027 220.192 26.1928C219.423 25.8829 218.826 25.412 218.399 24.7802C217.972 24.1483 217.753 23.3494 217.741 22.3835H220.603C220.627 22.7819 220.733 23.114 220.923 23.3796C221.112 23.6452 221.371 23.8465 221.701 23.9833C222.035 24.1201 222.422 24.1886 222.86 24.1886C223.263 24.1886 223.605 24.1342 223.887 24.0256C224.172 23.9169 224.392 23.766 224.545 23.5728C224.698 23.3796 224.776 23.1582 224.78 22.9087C224.776 22.6753 224.704 22.4761 224.563 22.3111C224.422 22.142 224.205 21.9971 223.911 21.8764C223.621 21.7516 223.251 21.6369 222.8 21.5323L221.508 21.2305C220.438 20.985 219.594 20.5885 218.979 20.0412C218.363 19.4898 218.057 18.7453 218.061 17.8075C218.057 17.0428 218.262 16.3727 218.677 15.7972C219.091 15.2217 219.665 14.773 220.397 14.451C221.13 14.129 221.965 13.968 222.903 13.968C223.86 13.968 224.692 14.131 225.396 14.457C226.104 14.779 226.654 15.2318 227.044 15.8153C227.434 16.3989 227.634 17.075 227.642 17.8437H224.78Z" fill="#38BDF8"/>
</g>
<defs>
<filter id="filter0_d_1_56" x="2.39972" y="0.39972" width="39.202" height="39.202" filterUnits="userSpaceOnUse" color-interpolation-filters="sRGB">
<feFlood flood-opacity="0" result="BackgroundImageFix"/>
<feColorMatrix in="SourceAlpha" type="matrix" values="0 0 0 0 0 0 0 0 0 0 0 0 0 0 0 0 0 0 127 0" result="hardAlpha"/>
<feOffset/>
<feGaussianBlur stdDeviation="2.80014"/>
<feComposite in2="hardAlpha" operator="out"/>
<feColorMatrix type="matrix" values="0 0 0 0 0 0 0 0 0 0 0 0 0 0 0 0 0 0 0.25 0"/>
<feBlend mode="normal" in2="BackgroundImageFix" result="effect1_dropShadow_1_56"/>
<feBlend mode="normal" in="SourceGraphic" in2="effect1_dropShadow_1_56" result="shape"/>
</filter>
<filter id="filter1_d_1_56" x="36.2871" y="3.78642" width="198.429" height="32.4286" filterUnits="userSpaceOnUse" color-interpolation-filters="sRGB">
<feFlood flood-opacity="0" result="BackgroundImageFix"/>
<feColorMatrix in="SourceAlpha" type="matrix" values="0 0 0 0 0 0 0 0 0 0 0 0 0 0 0 0 0 0 127 0" result="hardAlpha"/>
<feOffset/>
<feGaussianBlur stdDeviation="2.85714"/>
<feComposite in2="hardAlpha" operator="out"/>
<feColorMatrix type="matrix" values="0 0 0 0 0 0 0 0 0 0 0 0 0 0 0 0 0 0 0.25 0"/>
<feBlend mode="normal" in2="BackgroundImageFix" result="effect1_dropShadow_1_56"/>
<feBlend mode="normal" in="SourceGraphic" in2="effect1_dropShadow_1_56" result="shape"/>
</filter>
<linearGradient id="paint0_linear_1_56" x1="118.501" y1="0" x2="118.501" y2="40.0014" gradientUnits="userSpaceOnUse">
<stop stop-color="#067CB0"/>
<stop offset="0.9995" stop-color="#045375"/>
<stop offset="0.9996"/>
<stop offset="0.9997" stop-color="#0672A1"/>
</linearGradient>
</defs>
</svg>
