<svg width="179" height="56" viewBox="0 0 179 56" fill="none" xmlns="http://www.w3.org/2000/svg">
<rect width="179" height="56" rx="8" fill="url(#paint0_linear_1_50)"/>
<rect x="1.05" y="1.05" width="176.9" height="53.9" rx="6.95" stroke="white" stroke-opacity="0.15" stroke-width="2.1"/>
<g filter="url(#filter0_d_1_50)">
<mask id="mask0_1_50" style="mask-type:luminance" maskUnits="userSpaceOnUse" x="12" y="15" width="40" height="25">
<path d="M12 15.5H52V39.5H12V15.5Z" fill="white"/>
</mask>
<g mask="url(#mask0_1_50)">
<path fill-rule="evenodd" clip-rule="evenodd" d="M32 15.5C26.6667 15.5 23.3333 18.1667 22 23.5C24 20.8333 26.3333 19.8333 29 20.5C30.5215 20.88 31.6089 21.9844 32.8126 23.2059C34.7733 25.1963 37.043 27.5 42 27.5C47.3333 27.5 50.6667 24.8333 52 19.5C50 22.1667 47.6667 23.1667 45 22.5C43.4785 22.12 42.3911 21.0156 41.1874 19.7941C39.2267 17.8037 36.957 15.5 32 15.5ZM22 27.5C16.6667 27.5 13.3333 30.1667 12 35.5C14 32.8333 16.3333 31.8333 19 32.5C20.5215 32.8807 21.6089 33.9844 22.8126 35.2059C24.7733 37.1963 27.043 39.5 32 39.5C37.3333 39.5 40.6667 36.8333 42 31.5C40 34.1667 37.6667 35.1667 35 34.5C33.4785 34.12 32.3911 33.0156 31.1874 31.7941C29.2267 29.8037 26.957 27.5 22 27.5Z" fill="#38BDF8"/>
</g>
</g>
<g filter="url(#filter1_d_1_50)">
<path d="M61.2784 24.5V12.8636H65.5398C66.3655 12.8636 67.0492 13 67.5909 13.2727C68.1326 13.5417 68.5379 13.9072 68.8068 14.3693C69.0757 14.8276 69.2102 15.3447 69.2102 15.9204C69.2102 16.4053 69.1212 16.8144 68.9432 17.1477C68.7651 17.4773 68.5265 17.7424 68.2273 17.9432C67.9318 18.1401 67.606 18.2841 67.25 18.375V18.4886C67.6363 18.5076 68.0132 18.6326 68.3807 18.8636C68.7519 19.0909 69.0587 19.4148 69.3011 19.8352C69.5435 20.2557 69.6648 20.767 69.6648 21.3693C69.6648 21.964 69.5246 22.4981 69.2443 22.9716C68.9678 23.4413 68.5398 23.8144 67.9602 24.0909C67.3807 24.3636 66.6401 24.5 65.7386 24.5H61.2784ZM63.0341 22.9943H65.5682C66.4091 22.9943 67.0113 22.8314 67.375 22.5057C67.7386 22.1799 67.9204 21.7727 67.9204 21.2841C67.9204 20.9167 67.8276 20.5795 67.642 20.2727C67.4564 19.9659 67.1913 19.7216 66.8466 19.5398C66.5057 19.3579 66.1004 19.267 65.6307 19.267H63.0341V22.9943ZM63.0341 17.8977H65.3863C65.7803 17.8977 66.1345 17.822 66.4488 17.6704C66.767 17.5189 67.0189 17.3068 67.2045 17.0341C67.3939 16.7576 67.4886 16.4318 67.4886 16.0568C67.4886 15.5758 67.3201 15.1723 66.9829 14.8466C66.6458 14.5208 66.1288 14.3579 65.4318 14.3579H63.0341V17.8977ZM77.1392 20.8807V15.7727H78.8437V24.5H77.1733V22.9886H77.0824C76.8816 23.4545 76.5596 23.8428 76.1165 24.1534C75.6771 24.4602 75.1297 24.6136 74.4744 24.6136C73.9138 24.6136 73.4176 24.4905 72.9858 24.2443C72.5577 23.9943 72.2206 23.625 71.9744 23.1364C71.732 22.6477 71.6108 22.0436 71.6108 21.3239V15.7727H73.3096V21.1193C73.3096 21.714 73.4744 22.1875 73.804 22.5398C74.1335 22.892 74.5615 23.0682 75.088 23.0682C75.4062 23.0682 75.7225 22.9886 76.0369 22.8295C76.3551 22.6704 76.6184 22.4299 76.8267 22.1079C77.0388 21.786 77.143 21.3769 77.1392 20.8807ZM81.1264 24.5V15.7727H82.8253V24.5H81.1264ZM81.9844 14.4261C81.6889 14.4261 81.4351 14.3276 81.223 14.1307C81.0147 13.9299 80.9105 13.6913 80.9105 13.4148C80.9105 13.1345 81.0147 12.8958 81.223 12.6989C81.4351 12.4981 81.6889 12.3977 81.9844 12.3977C82.2798 12.3977 82.5317 12.4981 82.74 12.6989C82.9522 12.8958 83.0582 13.1345 83.0582 13.4148C83.0582 13.6913 82.9522 13.9299 82.74 14.1307C82.5317 14.3276 82.2798 14.4261 81.9844 14.4261ZM86.8096 12.8636V24.5H85.1108V12.8636H86.8096ZM93.169 15.7727V17.1364H88.402V15.7727H93.169ZM89.6804 13.6818H91.3792V21.9375C91.3792 22.267 91.4285 22.5151 91.527 22.6818C91.6254 22.8447 91.7523 22.9564 91.9076 23.017C92.0667 23.0739 92.2391 23.1023 92.4247 23.1023C92.5611 23.1023 92.6804 23.0928 92.7826 23.0739C92.8849 23.0549 92.9645 23.0398 93.0213 23.0284L93.3281 24.4318C93.2296 24.4697 93.0895 24.5076 92.9076 24.5454C92.7258 24.5871 92.4986 24.6098 92.2258 24.6136C91.7789 24.6212 91.3622 24.5417 90.9758 24.375C90.5895 24.2083 90.277 23.9508 90.0383 23.6023C89.7997 23.2538 89.6804 22.8163 89.6804 22.2898V13.6818ZM101.175 24.5L98.6065 15.7727H100.362L102.072 22.1818H102.158L103.874 15.7727H105.629L107.334 22.1534H107.419L109.118 15.7727H110.874L108.311 24.5H106.578L104.805 18.1989H104.675L102.902 24.5H101.175ZM112.486 24.5V15.7727H114.185V24.5H112.486ZM113.344 14.4261C113.048 14.4261 112.794 14.3276 112.582 14.1307C112.374 13.9299 112.27 13.6913 112.27 13.4148C112.27 13.1345 112.374 12.8958 112.582 12.6989C112.794 12.4981 113.048 12.3977 113.344 12.3977C113.639 12.3977 113.891 12.4981 114.099 12.6989C114.312 12.8958 114.418 13.1345 114.418 13.4148C114.418 13.6913 114.312 13.9299 114.099 14.1307C113.891 14.3276 113.639 14.4261 113.344 14.4261ZM120.544 15.7727V17.1364H115.777V15.7727H120.544ZM117.055 13.6818H118.754V21.9375C118.754 22.267 118.803 22.5151 118.902 22.6818C119 22.8447 119.127 22.9564 119.283 23.017C119.442 23.0739 119.614 23.1023 119.8 23.1023C119.936 23.1023 120.055 23.0928 120.158 23.0739C120.26 23.0549 120.339 23.0398 120.396 23.0284L120.703 24.4318C120.605 24.4697 120.464 24.5076 120.283 24.5454C120.101 24.5871 119.874 24.6098 119.601 24.6136C119.154 24.6212 118.737 24.5417 118.351 24.375C117.964 24.2083 117.652 23.9508 117.413 23.6023C117.175 23.2538 117.055 22.8163 117.055 22.2898V13.6818ZM124.31 19.3182V24.5H122.611V12.8636H124.287V17.1932H124.395C124.599 16.7235 124.912 16.3504 125.332 16.0739C125.753 15.7973 126.302 15.6591 126.98 15.6591C127.579 15.6591 128.101 15.7822 128.548 16.0284C128.999 16.2746 129.348 16.642 129.594 17.1307C129.844 17.6155 129.969 18.2216 129.969 18.9489V24.5H128.27V19.1534C128.27 18.5133 128.105 18.017 127.776 17.6648C127.446 17.3087 126.988 17.1307 126.401 17.1307C125.999 17.1307 125.639 17.2159 125.321 17.3864C125.007 17.5568 124.758 17.8068 124.577 18.1364C124.399 18.4621 124.31 18.8561 124.31 19.3182Z" fill="#E8E8E8"/>
<path d="M60.5312 33.5632V31.1364H70.9812V33.5632H67.2322V43.5H64.2862V33.5632H60.5312ZM73.7929 43.6569C73.2012 43.6569 72.676 43.5583 72.2172 43.3611C71.7624 43.1599 71.4022 42.8581 71.1366 42.4556C70.875 42.0491 70.7442 41.54 70.7442 40.9283C70.7442 40.4131 70.8348 39.9784 71.0159 39.6243C71.197 39.2701 71.4465 38.9824 71.7645 38.761C72.0824 38.5396 72.4486 38.3726 72.8632 38.2599C73.2777 38.1432 73.7204 38.0647 74.1913 38.0245C74.7185 37.9762 75.1431 37.9259 75.4651 37.8736C75.7871 37.8172 76.0205 37.7387 76.1654 37.6381C76.3143 37.5335 76.3887 37.3866 76.3887 37.1974V37.1672C76.3887 36.8574 76.2821 36.6179 76.0688 36.4489C75.8555 36.2798 75.5677 36.1953 75.2055 36.1953C74.8151 36.1953 74.5012 36.2798 74.2637 36.4489C74.0263 36.6179 73.8754 36.8513 73.811 37.1491L71.0883 37.0525C71.1688 36.4891 71.3761 35.986 71.7101 35.5433C72.0482 35.0966 72.511 34.7464 73.0986 34.4929C73.6902 34.2353 74.4006 34.1065 75.2297 34.1065C75.8213 34.1065 76.3666 34.177 76.8657 34.3178C77.3647 34.4547 77.7994 34.6559 78.1696 34.9215C78.5399 35.1831 78.8256 35.5051 79.0269 35.8874C79.2321 36.2698 79.3348 36.7064 79.3348 37.1974V43.5H76.5578V42.2081H76.4853C76.3203 42.522 76.109 42.7876 75.8515 43.005C75.5979 43.2223 75.2981 43.3853 74.952 43.494C74.6099 43.6026 74.2235 43.6569 73.7929 43.6569ZM74.7044 41.7251C75.0224 41.7251 75.3081 41.6607 75.5617 41.5319C75.8193 41.4032 76.0245 41.2261 76.1774 41.0007C76.3304 40.7713 76.4069 40.5057 76.4069 40.2038V39.3224C76.3223 39.3667 76.2197 39.4069 76.099 39.4432C75.9823 39.4794 75.8535 39.5136 75.7126 39.5458C75.5717 39.578 75.4269 39.6062 75.2779 39.6303C75.129 39.6545 74.9862 39.6766 74.8493 39.6967C74.5716 39.741 74.3342 39.8094 74.137 39.902C73.9438 39.9945 73.7949 40.1153 73.6902 40.2642C73.5896 40.4091 73.5393 40.5821 73.5393 40.7834C73.5393 41.0892 73.648 41.3227 73.8653 41.4837C74.0867 41.6446 74.3664 41.7251 74.7044 41.7251ZM81.1398 43.5V34.2273H84.0919V43.5H81.1398ZM82.6189 33.1467C82.2043 33.1467 81.8481 33.0098 81.5503 32.7361C81.2525 32.4584 81.1036 32.1244 81.1036 31.734C81.1036 31.3476 81.2525 31.0176 81.5503 30.744C81.8481 30.4663 82.2043 30.3274 82.6189 30.3274C83.0374 30.3274 83.3936 30.4663 83.6874 30.744C83.9852 31.0176 84.1341 31.3476 84.1341 31.734C84.1341 32.1244 83.9852 32.4584 83.6874 32.7361C83.3936 33.0098 83.0374 33.1467 82.6189 33.1467ZM88.9229 31.1364V43.5H85.9709V31.1364H88.9229ZM92.5345 43.5L90.1197 34.2273H93.0839L94.3335 40.1676H94.412L95.7522 34.2273H98.6439L100.02 40.1253H100.099L101.312 34.2273H104.276L101.856 43.5H98.6982L97.2494 38.0969H97.1467L95.6979 43.5H92.5345ZM105.461 43.5V34.2273H108.413V43.5H105.461ZM106.94 33.1467C106.526 33.1467 106.169 33.0098 105.872 32.7361C105.574 32.4584 105.425 32.1244 105.425 31.734C105.425 31.3476 105.574 31.0176 105.872 30.744C106.169 30.4663 106.526 30.3274 106.94 30.3274C107.359 30.3274 107.715 30.4663 108.009 30.744C108.306 31.0176 108.455 31.3476 108.455 31.734C108.455 32.1244 108.306 32.4584 108.009 32.7361C107.715 33.0098 107.359 33.1467 106.94 33.1467ZM113.244 38.2116V43.5H110.292V34.2273H113.099V35.9297H113.202C113.407 35.3622 113.757 34.9175 114.252 34.5955C114.747 34.2695 115.337 34.1065 116.021 34.1065C116.673 34.1065 117.239 34.2534 117.718 34.5472C118.201 34.837 118.575 35.2435 118.84 35.7667C119.11 36.2859 119.243 36.8936 119.239 37.5898V43.5H116.287V38.1694C116.291 37.6542 116.16 37.2518 115.894 36.962C115.633 36.6722 115.269 36.5273 114.802 36.5273C114.492 36.5273 114.218 36.5958 113.981 36.7326C113.747 36.8654 113.566 37.0566 113.437 37.3061C113.313 37.5556 113.248 37.8575 113.244 38.2116ZM124.453 43.6328C123.769 43.6328 123.147 43.4557 122.588 43.1016C122.028 42.7474 121.582 42.2161 121.248 41.5078C120.914 40.7995 120.747 39.9201 120.747 38.8697C120.747 37.779 120.92 36.8815 121.266 36.1772C121.612 35.4729 122.065 34.9517 122.624 34.6136C123.188 34.2756 123.793 34.1065 124.441 34.1065C124.928 34.1065 125.345 34.191 125.691 34.3601C126.037 34.5251 126.323 34.7384 126.548 35C126.773 35.2616 126.945 35.5333 127.061 35.815H127.122V31.1364H130.074V43.5H127.152V41.9968H127.061C126.936 42.2825 126.759 42.5502 126.53 42.7997C126.301 43.0492 126.013 43.2505 125.667 43.4034C125.325 43.5563 124.92 43.6328 124.453 43.6328ZM125.48 41.3327C125.838 41.3327 126.144 41.2321 126.397 41.0309C126.651 40.8256 126.846 40.5379 126.983 40.1676C127.12 39.7973 127.188 39.3627 127.188 38.8636C127.188 38.3565 127.12 37.9199 126.983 37.5536C126.85 37.1874 126.655 36.9056 126.397 36.7084C126.144 36.5112 125.838 36.4126 125.48 36.4126C125.113 36.4126 124.803 36.5132 124.55 36.7145C124.296 36.9157 124.103 37.1994 123.97 37.5657C123.842 37.9319 123.777 38.3646 123.777 38.8636C123.777 39.3627 123.844 39.7973 123.976 40.1676C124.109 40.5379 124.3 40.8256 124.55 41.0309C124.803 41.2321 125.113 41.3327 125.48 41.3327ZM143.163 35.6158H140.145C140.105 35.3059 140.022 35.0261 139.897 34.7766C139.772 34.5271 139.607 34.3138 139.402 34.1367C139.197 33.9596 138.953 33.8248 138.672 33.7322C138.394 33.6356 138.086 33.5873 137.748 33.5873C137.148 33.5873 136.631 33.7342 136.197 34.028C135.766 34.3218 135.434 34.7464 135.201 35.3018C134.971 35.8572 134.856 36.5293 134.856 37.3182C134.856 38.1392 134.973 38.8274 135.207 39.3828C135.444 39.9342 135.776 40.3507 136.203 40.6324C136.633 40.9101 137.142 41.049 137.73 41.049C138.06 41.049 138.36 41.0067 138.629 40.9222C138.903 40.8377 139.143 40.715 139.348 40.554C139.557 40.389 139.728 40.1897 139.861 39.9563C139.998 39.7189 140.092 39.4512 140.145 39.1534L143.163 39.1715C143.111 39.7189 142.952 40.2582 142.686 40.7894C142.425 41.3207 142.065 41.8056 141.606 42.2443C141.147 42.679 140.587 43.0251 139.927 43.2827C139.271 43.5402 138.519 43.669 137.67 43.669C136.551 43.669 135.549 43.4235 134.663 42.9325C133.782 42.4375 133.086 41.7171 132.574 40.7713C132.063 39.8255 131.808 38.6745 131.808 37.3182C131.808 35.9578 132.067 34.8048 132.587 33.859C133.106 32.9132 133.808 32.1948 134.693 31.7038C135.579 31.2128 136.571 30.9673 137.67 30.9673C138.418 30.9673 139.11 31.072 139.746 31.2812C140.382 31.4865 140.942 31.7883 141.425 32.1868C141.908 32.5812 142.3 33.0662 142.602 33.6417C142.904 34.2172 143.091 34.8752 143.163 35.6158ZM151.556 34.843C151.516 34.4003 151.337 34.0562 151.019 33.8107C150.705 33.5612 150.256 33.4364 149.673 33.4364C149.286 33.4364 148.964 33.4867 148.707 33.5873C148.449 33.688 148.256 33.8268 148.127 34.0039C147.998 34.177 147.932 34.3762 147.928 34.6016C147.92 34.7867 147.956 34.9497 148.037 35.0905C148.121 35.2314 148.242 35.3562 148.399 35.4648C148.56 35.5695 148.753 35.662 148.978 35.7425C149.204 35.823 149.457 35.8935 149.739 35.9538L150.801 36.1953C151.413 36.3281 151.952 36.5052 152.419 36.7266C152.89 36.9479 153.285 37.2115 153.603 37.5174C153.925 37.8233 154.168 38.1754 154.333 38.5739C154.498 38.9723 154.583 39.419 154.587 39.9141C154.583 40.6948 154.385 41.3649 153.995 41.9243C153.605 42.4838 153.043 42.9124 152.311 43.2102C151.582 43.508 150.703 43.6569 149.673 43.6569C148.638 43.6569 147.737 43.502 146.968 43.1921C146.199 42.8822 145.602 42.4113 145.175 41.7795C144.748 41.1476 144.529 40.3487 144.517 39.3828H147.379C147.403 39.7812 147.509 40.1133 147.698 40.3789C147.888 40.6445 148.147 40.8458 148.477 40.9826C148.811 41.1194 149.198 41.1878 149.636 41.1878C150.039 41.1878 150.381 41.1335 150.663 41.0248C150.948 40.9162 151.168 40.7653 151.321 40.5721C151.474 40.3789 151.552 40.1575 151.556 39.908C151.552 39.6746 151.48 39.4754 151.339 39.3104C151.198 39.1413 150.981 38.9964 150.687 38.8757C150.397 38.7509 150.027 38.6362 149.576 38.5316L148.284 38.2297C147.214 37.9842 146.37 37.5878 145.755 37.0405C145.139 36.4891 144.833 35.7445 144.837 34.8068C144.833 34.0421 145.038 33.372 145.453 32.7965C145.867 32.221 146.441 31.7722 147.173 31.4503C147.906 31.1283 148.741 30.9673 149.679 30.9673C150.636 30.9673 151.468 31.1303 152.172 31.4563C152.88 31.7783 153.43 32.2311 153.82 32.8146C154.21 33.3982 154.41 34.0743 154.418 34.843H151.556ZM162.779 34.843C162.738 34.4003 162.559 34.0562 162.241 33.8107C161.928 33.5612 161.479 33.4364 160.895 33.4364C160.509 33.4364 160.187 33.4867 159.929 33.5873C159.672 33.688 159.479 33.8268 159.35 34.0039C159.221 34.177 159.155 34.3762 159.151 34.6016C159.142 34.7867 159.179 34.9497 159.259 35.0905C159.344 35.2314 159.464 35.3562 159.621 35.4648C159.782 35.5695 159.976 35.662 160.201 35.7425C160.426 35.823 160.68 35.8935 160.962 35.9538L162.024 36.1953C162.636 36.3281 163.175 36.5052 163.642 36.7266C164.113 36.9479 164.507 37.2115 164.825 37.5174C165.147 37.8233 165.391 38.1754 165.556 38.5739C165.721 38.9723 165.805 39.419 165.809 39.9141C165.805 40.6948 165.608 41.3649 165.218 41.9243C164.827 42.4838 164.266 42.9124 163.533 43.2102C162.805 43.508 161.925 43.6569 160.895 43.6569C159.861 43.6569 158.959 43.502 158.191 43.1921C157.422 42.8822 156.824 42.4113 156.398 41.7795C155.971 41.1476 155.752 40.3487 155.74 39.3828H158.601C158.625 39.7812 158.732 40.1133 158.921 40.3789C159.11 40.6445 159.37 40.8458 159.7 40.9826C160.034 41.1194 160.42 41.1878 160.859 41.1878C161.261 41.1878 161.604 41.1335 161.885 41.0248C162.171 40.9162 162.39 40.7653 162.543 40.5721C162.696 40.3789 162.775 40.1575 162.779 39.908C162.775 39.6746 162.702 39.4754 162.561 39.3104C162.421 39.1413 162.203 38.9964 161.909 38.8757C161.62 38.7509 161.249 38.6362 160.799 38.5316L159.507 38.2297C158.436 37.9842 157.593 37.5878 156.977 37.0405C156.361 36.4891 156.056 35.7445 156.06 34.8068C156.056 34.0421 156.261 33.372 156.675 32.7965C157.09 32.221 157.663 31.7722 158.396 31.4503C159.128 31.1283 159.963 30.9673 160.901 30.9673C161.859 30.9673 162.69 31.1303 163.394 31.4563C164.103 31.7783 164.652 32.2311 165.043 32.8146C165.433 33.3982 165.632 34.0743 165.64 34.843H162.779Z" fill="#38BDF8"/>
</g>
<defs>
<filter id="filter0_d_1_50" x="6.28571" y="2.28571" width="51.4286" height="51.4286" filterUnits="userSpaceOnUse" color-interpolation-filters="sRGB">
<feFlood flood-opacity="0" result="BackgroundImageFix"/>
<feColorMatrix in="SourceAlpha" type="matrix" values="0 0 0 0 0 0 0 0 0 0 0 0 0 0 0 0 0 0 127 0" result="hardAlpha"/>
<feOffset/>
<feGaussianBlur stdDeviation="2.85714"/>
<feComposite in2="hardAlpha" operator="out"/>
<feColorMatrix type="matrix" values="0 0 0 0 0 0 0 0 0 0 0 0 0 0 0 0 0 0 0.25 0"/>
<feBlend mode="normal" in2="BackgroundImageFix" result="effect1_dropShadow_1_50"/>
<feBlend mode="normal" in="SourceGraphic" in2="effect1_dropShadow_1_50" result="shape"/>
</filter>
<filter id="filter1_d_1_50" x="54.4" y="3.9" width="118.2" height="48.2" filterUnits="userSpaceOnUse" color-interpolation-filters="sRGB">
<feFlood flood-opacity="0" result="BackgroundImageFix"/>
<feColorMatrix in="SourceAlpha" type="matrix" values="0 0 0 0 0 0 0 0 0 0 0 0 0 0 0 0 0 0 127 0" result="hardAlpha"/>
<feOffset/>
<feGaussianBlur stdDeviation="2.8"/>
<feComposite in2="hardAlpha" operator="out"/>
<feColorMatrix type="matrix" values="0 0 0 0 0 0 0 0 0 0 0 0 0 0 0 0 0 0 0.25 0"/>
<feBlend mode="normal" in2="BackgroundImageFix" result="effect1_dropShadow_1_50"/>
<feBlend mode="normal" in="SourceGraphic" in2="effect1_dropShadow_1_50" result="shape"/>
</filter>
<linearGradient id="paint0_linear_1_50" x1="89.5" y1="0" x2="89.5" y2="56" gradientUnits="userSpaceOnUse">
<stop offset="0.0005" stop-color="#693D23"/>
<stop offset="0.0006" stop-color="#0081A1"/>
<stop offset="0.0007" stop-color="#067CB0"/>
<stop offset="0.9996" stop-color="#045375"/>
<stop offset="0.9997" stop-color="#045375"/>
</linearGradient>
</defs>
</svg>
