<svg width="220" height="40" viewBox="0 0 220 40" fill="none" xmlns="http://www.w3.org/2000/svg">
<rect width="220.001" height="40.0014" rx="8" fill="url(#paint0_linear_1_56)"/>
<rect x="1.07143" y="1.07143" width="217.858" height="37.8585" rx="6.92857" stroke="white" stroke-opacity="0.15" stroke-width="2.14286"/>
<g filter="url(#filter0_d_1_56)">
<path d="M22.0046 6C16.1597 6 14.4503 6.00603 14.118 6.03359C12.9186 6.1333 12.1722 6.32215 11.359 6.727C10.7324 7.03817 10.2382 7.39888 9.75041 7.9045C8.86212 8.82661 8.32376 9.96104 8.12887 11.3095C8.03412 11.9642 8.00656 12.0977 8.00096 15.4415C7.9988 16.5562 8.00096 18.0231 8.00096 19.9907C8.00096 25.8308 8.00742 27.5385 8.03541 27.8701C8.13232 29.0373 8.31536 29.7716 8.70298 30.5749C9.44376 32.1124 10.8586 33.2667 12.5253 33.6973C13.1025 33.8459 13.7399 33.9278 14.5582 33.9665C14.9049 33.9816 18.4387 33.9924 21.9746 33.9924C25.5106 33.9924 29.0465 33.9881 29.3846 33.9708C30.3321 33.9263 30.8823 33.8524 31.4907 33.6952C33.1682 33.2623 34.5572 32.1253 35.3131 30.5662C35.6931 29.7824 35.8859 29.0201 35.9731 27.9138C35.992 27.6727 36 23.8273 36 19.987C36 16.1462 35.9914 12.3079 35.9724 12.0667C35.8841 10.9426 35.6914 10.1867 35.2991 9.38779C34.9771 8.73379 34.6196 8.24539 34.1007 7.74601C33.1745 6.86138 32.0418 6.32302 30.692 6.12835C30.038 6.03381 29.9077 6.00581 26.5613 6H22.0046Z" fill="url(#paint1_radial_1_56)"/>
<path d="M22.0046 6C16.1597 6 14.4503 6.00603 14.118 6.03359C12.9186 6.1333 12.1722 6.32215 11.359 6.727C10.7324 7.03817 10.2382 7.39888 9.75041 7.9045C8.86212 8.82661 8.32376 9.96104 8.12887 11.3095C8.03412 11.9642 8.00656 12.0977 8.00096 15.4415C7.9988 16.5562 8.00096 18.0231 8.00096 19.9907C8.00096 25.8308 8.00742 27.5385 8.03541 27.8701C8.13232 29.0373 8.31536 29.7716 8.70298 30.5749C9.44376 32.1124 10.8586 33.2667 12.5253 33.6973C13.1025 33.8459 13.7399 33.9278 14.5582 33.9665C14.9049 33.9816 18.4387 33.9924 21.9746 33.9924C25.5106 33.9924 29.0465 33.9881 29.3846 33.9708C30.3321 33.9263 30.8823 33.8524 31.4907 33.6952C33.1682 33.2623 34.5572 32.1253 35.3131 30.5662C35.6931 29.7824 35.8859 29.0201 35.9731 27.9138C35.992 27.6727 36 23.8273 36 19.987C36 16.1462 35.9914 12.3079 35.9724 12.0667C35.8841 10.9426 35.6914 10.1867 35.2991 9.38779C34.9771 8.73379 34.6196 8.24539 34.1007 7.74601C33.1745 6.86138 32.0418 6.32302 30.692 6.12835C30.038 6.03381 29.9077 6.00581 26.5613 6H22.0046Z" fill="url(#paint2_radial_1_56)"/>
<path d="M21.9981 9.66085C19.1909 9.66085 18.8386 9.67313 17.736 9.7233C16.6356 9.77369 15.8845 9.9479 15.2273 10.2035C14.5474 10.4675 13.9707 10.8207 13.3962 11.3954C12.8212 11.97 12.4681 12.5467 12.2032 13.2263C11.9469 13.8837 11.7725 14.6351 11.723 15.7351C11.6736 16.8376 11.6607 17.1901 11.6607 19.9974C11.6607 22.8046 11.6732 23.1558 11.7232 24.2584C11.7738 25.3588 11.948 26.1099 12.2034 26.7671C12.4676 27.447 12.8208 28.0237 13.3955 28.5982C13.9699 29.1732 14.5466 29.5272 15.226 29.7912C15.8836 30.0468 16.635 30.221 17.7352 30.2714C18.8377 30.3216 19.1898 30.3339 21.9968 30.3339C24.8043 30.3339 25.1555 30.3216 26.258 30.2714C27.3585 30.221 28.1104 30.0468 28.7681 29.7912C29.4477 29.5272 30.0236 29.1732 30.5979 28.5982C31.1728 28.0237 31.526 27.447 31.7909 26.7674C32.045 26.1099 32.2194 25.3586 32.2711 24.2586C32.3206 23.156 32.3335 22.8046 32.3335 19.9974C32.3335 17.1901 32.3206 16.8378 32.2711 15.7353C32.2194 14.6349 32.045 13.8837 31.7909 13.2265C31.526 12.5467 31.1728 11.97 30.5979 11.3954C30.0229 10.8205 29.4479 10.4673 28.7675 10.2035C28.1085 9.9479 27.3569 9.77369 26.2565 9.7233C25.154 9.67313 24.803 9.66085 21.9949 9.66085H21.9981ZM21.0708 11.5236C21.346 11.5231 21.6531 11.5236 21.9981 11.5236C24.758 11.5236 25.0851 11.5335 26.1749 11.583C27.1827 11.6291 27.7297 11.7975 28.0941 11.939C28.5764 12.1263 28.9203 12.3503 29.2819 12.7121C29.6437 13.0738 29.8676 13.4184 30.0554 13.9008C30.1969 14.2647 30.3655 14.8117 30.4114 15.8195C30.4609 16.9091 30.4717 17.2364 30.4717 19.995C30.4717 22.7536 30.4609 23.0809 30.4114 24.1705C30.3653 25.1783 30.1969 25.7253 30.0554 26.0892C29.8681 26.5716 29.6437 26.9151 29.2819 27.2766C28.9201 27.6384 28.5767 27.8624 28.0941 28.0497C27.7301 28.1919 27.1827 28.3598 26.1749 28.4059C25.0853 28.4554 24.758 28.4662 21.9981 28.4662C19.238 28.4662 18.9109 28.4554 17.8213 28.4059C16.8135 28.3594 16.2665 28.191 15.9019 28.0495C15.4196 27.8622 15.075 27.6382 14.7132 27.2764C14.3515 26.9147 14.1275 26.571 13.9397 26.0884C13.7982 25.7244 13.6296 25.1775 13.5838 24.1697C13.5342 23.08 13.5243 22.7527 13.5243 19.9924C13.5243 17.2321 13.5342 16.9065 13.5838 15.8169C13.6298 14.8091 13.7982 14.2621 13.9397 13.8977C14.1271 13.4154 14.3515 13.0708 14.7132 12.709C15.075 12.3473 15.4196 12.1233 15.9019 11.9355C16.2663 11.7934 16.8135 11.6254 17.8213 11.5791C18.7748 11.5361 19.1444 11.5231 21.0708 11.521V11.5236ZM27.5157 13.2399C26.8309 13.2399 26.2753 13.7948 26.2753 14.4798C26.2753 15.1646 26.8309 15.7202 27.5157 15.7202C28.2004 15.7202 28.756 15.1646 28.756 14.4798C28.756 13.795 28.2004 13.2394 27.5157 13.2394V13.2399ZM21.9981 14.6891C19.0666 14.6891 16.6899 17.0659 16.6899 19.9974C16.6899 22.9288 19.0666 25.3045 21.9981 25.3045C24.9296 25.3045 27.3055 22.9288 27.3055 19.9974C27.3055 17.0659 24.9296 14.6891 21.9981 14.6891ZM21.9981 16.5519C23.9009 16.5519 25.4436 18.0944 25.4436 19.9974C25.4436 21.9001 23.9009 23.4429 21.9981 23.4429C20.0951 23.4429 18.5526 21.9001 18.5526 19.9974C18.5526 18.0944 20.0951 16.5519 21.9981 16.5519Z" fill="white"/>
</g>
<g filter="url(#filter1_d_1_56)">
<path d="M50.103 17.3849C50.0386 16.8134 49.7729 16.3707 49.3061 16.0568C48.8392 15.7389 48.2516 15.5799 47.5433 15.5799C47.0362 15.5799 46.5975 15.6604 46.2272 15.8214C45.857 15.9783 45.5692 16.1957 45.364 16.4734C45.1627 16.747 45.0621 17.0589 45.0621 17.4091C45.0621 17.7029 45.1305 17.9564 45.2674 18.1697C45.4082 18.383 45.5914 18.5621 45.8167 18.707C46.0461 18.8479 46.2916 18.9666 46.5532 19.0632C46.8148 19.1558 47.0664 19.2322 47.3079 19.2926L48.5152 19.6065C48.9097 19.7031 49.3141 19.8339 49.7287 19.9989C50.1432 20.1639 50.5276 20.3813 50.8817 20.6509C51.2359 20.9206 51.5216 21.2546 51.739 21.653C51.9603 22.0515 52.071 22.5284 52.071 23.0838C52.071 23.7841 51.8899 24.4059 51.5277 24.9492C51.1695 25.4925 50.6483 25.9212 49.9641 26.2351C49.2839 26.549 48.4609 26.706 47.495 26.706C46.5693 26.706 45.7684 26.5591 45.0923 26.2653C44.4162 25.9715 43.8869 25.5549 43.5046 25.0156C43.1223 24.4723 42.911 23.8283 42.8707 23.0838H44.7422C44.7784 23.5305 44.9233 23.9028 45.1768 24.2006C45.4344 24.4944 45.7624 24.7138 46.1608 24.8587C46.5633 24.9995 47.004 25.0699 47.4829 25.0699C48.0102 25.0699 48.479 24.9874 48.8895 24.8224C49.3041 24.6534 49.6301 24.42 49.8675 24.1221C50.105 23.8203 50.2237 23.4681 50.2237 23.0657C50.2237 22.6994 50.1191 22.3996 49.9098 22.1662C49.7045 21.9328 49.4248 21.7396 49.0706 21.5866C48.7205 21.4337 48.3241 21.2989 47.8814 21.1822L46.4204 20.7837C45.4304 20.5141 44.6456 20.1176 44.066 19.5944C43.4905 19.0712 43.2027 18.379 43.2027 17.5177C43.2027 16.8054 43.3959 16.1836 43.7823 15.6523C44.1687 15.1211 44.6919 14.7086 45.3519 14.4148C46.0119 14.1169 46.7565 13.968 47.5856 13.968C48.4227 13.968 49.1612 14.1149 49.8011 14.4087C50.445 14.7025 50.9522 15.107 51.3224 15.6221C51.6927 16.1333 51.8859 16.7209 51.902 17.3849H50.103ZM58.1517 26.6878C57.2381 26.6878 56.4513 26.4926 55.7913 26.1023C55.1352 25.7078 54.6281 25.1545 54.2699 24.4421C53.9158 23.7257 53.7387 22.8866 53.7387 21.9247C53.7387 20.9749 53.9158 20.1378 54.2699 19.4133C54.6281 18.6889 55.1272 18.1234 55.7671 17.717C56.411 17.3105 57.1636 17.1072 58.0249 17.1072C58.5481 17.1072 59.0552 17.1938 59.5462 17.3668C60.0372 17.5399 60.4779 17.8115 60.8683 18.1818C61.2587 18.5521 61.5666 19.033 61.792 19.6246C62.0173 20.2122 62.13 20.9266 62.13 21.7677V22.4077H54.7589V21.0554H60.3612C60.3612 20.5805 60.2646 20.1599 60.0714 19.7937C59.8783 19.4234 59.6066 19.1316 59.2565 18.9183C58.9103 18.705 58.5038 18.5984 58.037 18.5984C57.5299 18.5984 57.0872 18.7231 56.7089 18.9726C56.3346 19.2181 56.0448 19.5401 55.8395 19.9386C55.6383 20.333 55.5377 20.7616 55.5377 21.2244V22.2809C55.5377 22.9007 55.6464 23.4279 55.8637 23.8626C56.0851 24.2972 56.3929 24.6292 56.7873 24.8587C57.1818 25.084 57.6426 25.1967 58.1698 25.1967C58.5119 25.1967 58.8238 25.1484 59.1055 25.0518C59.3873 24.9512 59.6307 24.8023 59.836 24.6051C60.0413 24.4079 60.1982 24.1644 60.3069 23.8746L62.0153 24.1825C61.8785 24.6856 61.633 25.1263 61.2788 25.5046C60.9287 25.8789 60.488 26.1707 59.9567 26.38C59.4295 26.5852 58.8278 26.6878 58.1517 26.6878ZM68.1292 26.6878C67.2156 26.6878 66.4288 26.4926 65.7688 26.1023C65.1128 25.7078 64.6057 25.1545 64.2475 24.4421C63.8933 23.7257 63.7162 22.8866 63.7162 21.9247C63.7162 20.9749 63.8933 20.1378 64.2475 19.4133C64.6057 18.6889 65.1047 18.1234 65.7446 17.717C66.3886 17.3105 67.1412 17.1072 68.0025 17.1072C68.5257 17.1072 69.0328 17.1938 69.5238 17.3668C70.0148 17.5399 70.4555 17.8115 70.8458 18.1818C71.2362 18.5521 71.5441 19.033 71.7695 19.6246C71.9949 20.2122 72.1076 20.9266 72.1076 21.7677V22.4077H64.7365V21.0554H70.3387C70.3387 20.5805 70.2422 20.1599 70.049 19.7937C69.8558 19.4234 69.5841 19.1316 69.234 18.9183C68.8879 18.705 68.4814 18.5984 68.0145 18.5984C67.5074 18.5984 67.0647 18.7231 66.6864 18.9726C66.3121 19.2181 66.0223 19.5401 65.8171 19.9386C65.6159 20.333 65.5152 20.7616 65.5152 21.2244V22.2809C65.5152 22.9007 65.6239 23.4279 65.8412 23.8626C66.0626 24.2972 66.3705 24.6292 66.7649 24.8587C67.1593 25.084 67.6201 25.1967 68.1473 25.1967C68.4894 25.1967 68.8013 25.1484 69.0831 25.0518C69.3648 24.9512 69.6083 24.8023 69.8135 24.6051C70.0188 24.4079 70.1757 24.1644 70.2844 23.8746L71.9929 24.1825C71.856 24.6856 71.6105 25.1263 71.2564 25.5046C70.9062 25.8789 70.4655 26.1707 69.9343 26.38C69.407 26.5852 68.8054 26.6878 68.1292 26.6878ZM84.4833 22.6552V17.228H86.2944V26.5007H84.5195V24.8949H84.4229C84.2096 25.3899 83.8675 25.8024 83.3966 26.1324C82.9298 26.4584 82.3482 26.6214 81.652 26.6214C81.0563 26.6214 80.5291 26.4906 80.0703 26.229C79.6155 25.9634 79.2573 25.571 78.9957 25.0518C78.7381 24.5327 78.6093 23.8907 78.6093 23.1261V17.228H80.4144V22.9087C80.4144 23.5406 80.5895 24.0437 80.9396 24.418C81.2897 24.7922 81.7445 24.9794 82.3039 24.9794C82.642 24.9794 82.9781 24.8949 83.3121 24.7258C83.6502 24.5568 83.9299 24.3012 84.1512 23.9591C84.3766 23.6171 84.4873 23.1824 84.4833 22.6552ZM95.6682 19.4918L94.0322 19.7816C93.9638 19.5723 93.8551 19.3731 93.7062 19.1839C93.5613 18.9948 93.3641 18.8398 93.1146 18.7191C92.865 18.5984 92.5531 18.538 92.1788 18.538C91.6677 18.538 91.2411 18.6527 90.899 18.8821C90.5569 19.1075 90.3859 19.3993 90.3859 19.7574C90.3859 20.0673 90.5006 20.3169 90.73 20.506C90.9594 20.6952 91.3297 20.8501 91.8408 20.9709L93.3138 21.3089C94.167 21.5061 94.8029 21.81 95.2215 22.2205C95.64 22.631 95.8493 23.1643 95.8493 23.8203C95.8493 24.3757 95.6883 24.8707 95.3663 25.3054C95.0484 25.736 94.6037 26.0741 94.0322 26.3196C93.4647 26.5651 92.8067 26.6878 92.0581 26.6878C91.0198 26.6878 90.1726 26.4665 89.5166 26.0238C88.8606 25.577 88.4581 24.9432 88.3092 24.1221L90.0538 23.8565C90.1625 24.3113 90.3859 24.6554 90.7239 24.8888C91.062 25.1182 91.5027 25.2329 92.046 25.2329C92.6377 25.2329 93.1105 25.1102 93.4647 24.8647C93.8189 24.6152 93.996 24.3113 93.996 23.9531C93.996 23.6633 93.8873 23.4199 93.67 23.2226C93.4567 23.0254 93.1287 22.8765 92.686 22.7759L91.1163 22.4318C90.2511 22.2346 89.6111 21.9207 89.1966 21.49C88.7861 21.0594 88.5808 20.5141 88.5808 19.854C88.5808 19.3067 88.7338 18.8278 89.0396 18.4172C89.3455 18.0067 89.7681 17.6868 90.3074 17.4574C90.8467 17.2239 91.4645 17.1072 92.1607 17.1072C93.1629 17.1072 93.9517 17.3246 94.5272 17.7592C95.1027 18.1899 95.4831 18.7674 95.6682 19.4918ZM106.239 26.6878C105.37 26.6878 104.611 26.4886 103.963 26.0902C103.315 25.6917 102.812 25.1343 102.454 24.418C102.096 23.7016 101.916 22.8645 101.916 21.9066C101.916 20.9447 102.096 20.1036 102.454 19.3832C102.812 18.6627 103.315 18.1033 103.963 17.7049C104.611 17.3065 105.37 17.1072 106.239 17.1072C107.108 17.1072 107.867 17.3065 108.515 17.7049C109.163 18.1033 109.666 18.6627 110.024 19.3832C110.382 20.1036 110.561 20.9447 110.561 21.9066C110.561 22.8645 110.382 23.7016 110.024 24.418C109.666 25.1343 109.163 25.6917 108.515 26.0902C107.867 26.4886 107.108 26.6878 106.239 26.6878ZM106.245 25.1726C106.808 25.1726 107.275 25.0237 107.645 24.7258C108.016 24.428 108.289 24.0316 108.466 23.5366C108.648 23.0415 108.738 22.4962 108.738 21.9006C108.738 21.3089 108.648 20.7656 108.466 20.2706C108.289 19.7715 108.016 19.3711 107.645 19.0692C107.275 18.7674 106.808 18.6165 106.245 18.6165C105.677 18.6165 105.207 18.7674 104.832 19.0692C104.462 19.3711 104.186 19.7715 104.005 20.2706C103.828 20.7656 103.74 21.3089 103.74 21.9006C103.74 22.4962 103.828 23.0415 104.005 23.5366C104.186 24.0316 104.462 24.428 104.832 24.7258C105.207 25.0237 105.677 25.1726 106.245 25.1726ZM114.381 20.995V26.5007H112.576V17.228H114.309V18.7372H114.423C114.637 18.2462 114.971 17.8518 115.426 17.554C115.884 17.2561 116.462 17.1072 117.158 17.1072C117.79 17.1072 118.343 17.24 118.818 17.5057C119.293 17.7673 119.661 18.1577 119.923 18.6768C120.185 19.196 120.315 19.8379 120.315 20.6026V26.5007H118.51V20.8199C118.51 20.1478 118.335 19.6226 117.985 19.2443C117.635 18.862 117.154 18.6708 116.542 18.6708C116.124 18.6708 115.752 18.7614 115.426 18.9425C115.104 19.1236 114.848 19.3892 114.659 19.7393C114.474 20.0855 114.381 20.504 114.381 20.995Z" fill="#E8E8E8"/>
<path d="M129.925 13.6371V26.0007H126.937V13.6371H129.925ZM134.753 20.7123V26.0007H131.801V16.728H134.609V18.4304H134.711C134.916 17.8629 135.267 17.4182 135.762 17.0962C136.257 16.7702 136.846 16.6072 137.53 16.6072C138.182 16.6072 138.748 16.7541 139.227 17.0479C139.71 17.3377 140.084 17.7442 140.35 18.2674C140.619 18.7866 140.752 19.3943 140.748 20.0905V26.0007H137.796V20.6701C137.8 20.1549 137.669 19.7525 137.404 19.4627C137.142 19.1729 136.778 19.028 136.311 19.028C136.001 19.028 135.727 19.0965 135.49 19.2333C135.256 19.3661 135.075 19.5573 134.947 19.8068C134.822 20.0563 134.757 20.3582 134.753 20.7123ZM150.671 19.5593L147.961 19.6317C147.933 19.4386 147.856 19.2675 147.731 19.1186C147.607 18.9657 147.444 18.8469 147.242 18.7624C147.045 18.6739 146.816 18.6296 146.554 18.6296C146.212 18.6296 145.92 18.698 145.679 18.8349C145.441 18.9717 145.325 19.1568 145.329 19.3903C145.325 19.5714 145.397 19.7283 145.546 19.8611C145.699 19.994 145.971 20.1006 146.361 20.1811L148.148 20.5192C149.074 20.6962 149.762 20.99 150.212 21.4006C150.667 21.8111 150.897 22.3544 150.901 23.0305C150.897 23.6664 150.708 24.2198 150.333 24.6907C149.963 25.1616 149.456 25.5278 148.812 25.7894C148.168 26.047 147.431 26.1758 146.602 26.1758C145.278 26.1758 144.234 25.9041 143.469 25.3608C142.709 24.8134 142.274 24.081 142.165 23.1633L145.081 23.0909C145.145 23.429 145.313 23.6865 145.582 23.8636C145.852 24.0407 146.196 24.1292 146.614 24.1292C146.993 24.1292 147.301 24.0588 147.538 23.918C147.776 23.7771 147.896 23.5899 147.9 23.3565C147.896 23.1472 147.804 22.9802 147.623 22.8555C147.442 22.7267 147.158 22.6261 146.771 22.5536L145.154 22.2457C144.224 22.0767 143.532 21.7648 143.077 21.31C142.622 20.8512 142.397 20.2676 142.401 19.5593C142.397 18.9395 142.562 18.4103 142.896 17.9716C143.23 17.5289 143.705 17.1908 144.32 16.9574C144.936 16.7239 145.663 16.6072 146.5 16.6072C147.755 16.6072 148.746 16.8708 149.47 17.3981C150.194 17.9213 150.595 18.6417 150.671 19.5593ZM157.588 16.728V18.9013H151.738V16.728H157.588ZM152.964 14.5064H155.916V23.0849C155.916 23.266 155.944 23.4129 156 23.5256C156.061 23.6342 156.147 23.7127 156.26 23.761C156.373 23.8053 156.507 23.8274 156.664 23.8274C156.777 23.8274 156.896 23.8173 157.021 23.7972C157.149 23.7731 157.246 23.7529 157.31 23.7368L157.757 25.8679C157.616 25.9081 157.417 25.9584 157.159 26.0188C156.906 26.0792 156.602 26.1174 156.248 26.1335C155.556 26.1657 154.962 26.0852 154.467 25.892C153.976 25.6948 153.6 25.389 153.338 24.9744C153.081 24.5599 152.956 24.0387 152.964 23.4109V14.5064ZM161.708 26.1577C161.117 26.1577 160.591 26.0591 160.133 25.8618C159.678 25.6606 159.318 25.3588 159.052 24.9563C158.79 24.5498 158.66 24.0407 158.66 23.429C158.66 22.9138 158.75 22.4792 158.931 22.125C159.112 21.7708 159.362 21.4831 159.68 21.2617C159.998 21.0404 160.364 20.8733 160.779 20.7606C161.193 20.6439 161.636 20.5654 162.107 20.5252C162.634 20.4769 163.059 20.4266 163.381 20.3743C163.703 20.3179 163.936 20.2395 164.081 20.1388C164.23 20.0342 164.304 19.8873 164.304 19.6981V19.668C164.304 19.3581 164.198 19.1186 163.984 18.9496C163.771 18.7805 163.483 18.696 163.121 18.696C162.731 18.696 162.417 18.7805 162.179 18.9496C161.942 19.1186 161.791 19.352 161.726 19.6498L159.004 19.5533C159.084 18.9898 159.292 18.4867 159.626 18.044C159.964 17.5973 160.426 17.2471 161.014 16.9936C161.606 16.736 162.316 16.6072 163.145 16.6072C163.737 16.6072 164.282 16.6777 164.781 16.8185C165.28 16.9554 165.715 17.1566 166.085 17.4222C166.455 17.6838 166.741 18.0058 166.942 18.3881C167.148 18.7705 167.25 19.2071 167.25 19.6981V26.0007H164.473V24.7088H164.401C164.236 25.0227 164.024 25.2883 163.767 25.5057C163.513 25.723 163.214 25.886 162.867 25.9947C162.525 26.1033 162.139 26.1577 161.708 26.1577ZM162.62 24.2258C162.938 24.2258 163.224 24.1614 163.477 24.0327C163.735 23.9039 163.94 23.7268 164.093 23.5014C164.246 23.272 164.322 23.0064 164.322 22.7045V21.8231C164.238 21.8674 164.135 21.9077 164.014 21.9439C163.898 21.9801 163.769 22.0143 163.628 22.0465C163.487 22.0787 163.342 22.1069 163.193 22.131C163.044 22.1552 162.902 22.1773 162.765 22.1974C162.487 22.2417 162.25 22.3101 162.052 22.4027C161.859 22.4953 161.71 22.616 161.606 22.7649C161.505 22.9098 161.455 23.0828 161.455 23.2841C161.455 23.59 161.563 23.8234 161.781 23.9844C162.002 24.1453 162.282 24.2258 162.62 24.2258ZM173.378 29.6712C172.496 29.6712 171.742 29.5484 171.114 29.3029C170.486 29.0574 169.993 28.7213 169.635 28.2947C169.277 27.8681 169.061 27.3852 168.989 26.8459L171.784 26.6889C171.836 26.8781 171.933 27.0431 172.074 27.1839C172.219 27.3248 172.406 27.4335 172.635 27.5099C172.869 27.5864 173.142 27.6246 173.456 27.6246C173.951 27.6246 174.36 27.5039 174.682 27.2624C175.008 27.025 175.171 26.6084 175.171 26.0128V24.3828H175.068C174.951 24.6685 174.774 24.9241 174.537 25.1495C174.299 25.3749 174.004 25.552 173.649 25.6807C173.299 25.8095 172.897 25.8739 172.442 25.8739C171.766 25.8739 171.146 25.717 170.583 25.403C170.023 25.0851 169.574 24.5941 169.236 23.93C168.902 23.2619 168.735 22.4027 168.735 21.3523C168.735 20.2696 168.908 19.3782 169.254 18.6779C169.601 17.9736 170.053 17.4524 170.613 17.1143C171.176 16.7763 171.782 16.6072 172.43 16.6072C172.917 16.6072 173.333 16.6918 173.68 16.8608C174.03 17.0258 174.317 17.2391 174.543 17.5007C174.768 17.7623 174.939 18.034 175.056 18.3157H175.14V16.728H178.08V26.0369C178.08 26.8217 177.883 27.4838 177.489 28.0231C177.094 28.5624 176.543 28.9709 175.835 29.2486C175.126 29.5303 174.307 29.6712 173.378 29.6712ZM173.468 23.7248C173.826 23.7248 174.132 23.6302 174.386 23.441C174.639 23.2519 174.835 22.9802 174.971 22.6261C175.108 22.2719 175.177 21.8473 175.177 21.3523C175.177 20.8492 175.108 20.4165 174.971 20.0543C174.839 19.6881 174.643 19.4064 174.386 19.2092C174.132 19.0119 173.826 18.9133 173.468 18.9133C173.102 18.9133 172.792 19.014 172.539 19.2152C172.285 19.4164 172.092 19.7002 171.959 20.0664C171.83 20.4286 171.766 20.8572 171.766 21.3523C171.766 21.8473 171.832 22.2719 171.965 22.6261C172.098 22.9802 172.289 23.2519 172.539 23.441C172.792 23.6302 173.102 23.7248 173.468 23.7248ZM179.962 26.0007V16.728H182.83V18.4183H182.927C183.096 17.8066 183.371 17.3518 183.754 17.054C184.136 16.7521 184.581 16.6012 185.088 16.6012C185.225 16.6012 185.366 16.6113 185.51 16.6314C185.655 16.6475 185.79 16.6736 185.915 16.7099V19.2756C185.774 19.2273 185.589 19.189 185.359 19.1609C185.134 19.1327 184.933 19.1186 184.756 19.1186C184.406 19.1186 184.09 19.1971 183.808 19.354C183.53 19.507 183.311 19.7223 183.15 20C182.993 20.2737 182.915 20.5956 182.915 20.9659V26.0007H179.962ZM189.383 26.1577C188.791 26.1577 188.266 26.0591 187.807 25.8618C187.353 25.6606 186.992 25.3588 186.727 24.9563C186.465 24.5498 186.334 24.0407 186.334 23.429C186.334 22.9138 186.425 22.4792 186.606 22.125C186.787 21.7708 187.037 21.4831 187.355 21.2617C187.673 21.0404 188.039 20.8733 188.453 20.7606C188.868 20.6439 189.311 20.5654 189.782 20.5252C190.309 20.4769 190.733 20.4266 191.055 20.3743C191.377 20.3179 191.611 20.2395 191.756 20.1388C191.905 20.0342 191.979 19.8873 191.979 19.6981V19.668C191.979 19.3581 191.872 19.1186 191.659 18.9496C191.446 18.7805 191.158 18.696 190.796 18.696C190.405 18.696 190.091 18.7805 189.854 18.9496C189.617 19.1186 189.466 19.352 189.401 19.6498L186.679 19.5533C186.759 18.9898 186.966 18.4867 187.3 18.044C187.638 17.5973 188.101 17.2471 188.689 16.9936C189.28 16.736 189.991 16.6072 190.82 16.6072C191.412 16.6072 191.957 16.6777 192.456 16.8185C192.955 16.9554 193.39 17.1566 193.76 17.4222C194.13 17.6838 194.416 18.0058 194.617 18.3881C194.822 18.7705 194.925 19.2071 194.925 19.6981V26.0007H192.148V24.7088H192.076C191.911 25.0227 191.699 25.2883 191.442 25.5057C191.188 25.723 190.888 25.886 190.542 25.9947C190.2 26.1033 189.814 26.1577 189.383 26.1577ZM190.295 24.2258C190.613 24.2258 190.898 24.1614 191.152 24.0327C191.409 23.9039 191.615 23.7268 191.768 23.5014C191.921 23.272 191.997 23.0064 191.997 22.7045V21.8231C191.913 21.8674 191.81 21.9077 191.689 21.9439C191.572 21.9801 191.444 22.0143 191.303 22.0465C191.162 22.0787 191.017 22.1069 190.868 22.131C190.719 22.1552 190.576 22.1773 190.44 22.1974C190.162 22.2417 189.924 22.3101 189.727 22.4027C189.534 22.4953 189.385 22.616 189.28 22.7649C189.18 22.9098 189.13 23.0828 189.13 23.2841C189.13 23.59 189.238 23.8234 189.456 23.9844C189.677 24.1453 189.957 24.2258 190.295 24.2258ZM196.73 26.0007V16.728H199.537V18.4304H199.64C199.833 17.8669 200.159 17.4222 200.618 17.0962C201.077 16.7702 201.624 16.6072 202.26 16.6072C202.904 16.6072 203.455 16.7722 203.914 17.1023C204.373 17.4323 204.665 17.875 204.789 18.4304H204.886C205.059 17.879 205.397 17.4383 205.9 17.1083C206.403 16.7743 206.997 16.6072 207.681 16.6072C208.558 16.6072 209.271 16.889 209.818 17.4524C210.365 18.0118 210.639 18.7805 210.639 19.7585V26.0007H207.687V20.4346C207.687 19.9718 207.568 19.6197 207.331 19.3782C207.093 19.1327 206.786 19.0099 206.407 19.0099C206.001 19.0099 205.681 19.1427 205.447 19.4084C205.218 19.67 205.103 20.0221 205.103 20.4648V26.0007H202.266V20.4045C202.266 19.9738 202.149 19.6337 201.916 19.3842C201.682 19.1347 201.374 19.0099 200.992 19.0099C200.735 19.0099 200.507 19.0723 200.31 19.1971C200.113 19.3178 199.958 19.4909 199.845 19.7163C199.736 19.9416 199.682 20.2073 199.682 20.5131V26.0007H196.73Z" fill="url(#paint3_linear_1_56)"/>
</g>
<defs>
<filter id="filter0_d_1_56" x="2.39972" y="0.39972" width="39.202" height="39.202" filterUnits="userSpaceOnUse" color-interpolation-filters="sRGB">
<feFlood flood-opacity="0" result="BackgroundImageFix"/>
<feColorMatrix in="SourceAlpha" type="matrix" values="0 0 0 0 0 0 0 0 0 0 0 0 0 0 0 0 0 0 127 0" result="hardAlpha"/>
<feOffset/>
<feGaussianBlur stdDeviation="2.80014"/>
<feComposite in2="hardAlpha" operator="out"/>
<feColorMatrix type="matrix" values="0 0 0 0 0 0 0 0 0 0 0 0 0 0 0 0 0 0 0.25 0"/>
<feBlend mode="normal" in2="BackgroundImageFix" result="effect1_dropShadow_1_56"/>
<feBlend mode="normal" in="SourceGraphic" in2="effect1_dropShadow_1_56" result="shape"/>
</filter>
<filter id="filter1_d_1_56" x="36.2871" y="3.78642" width="181.429" height="32.4286" filterUnits="userSpaceOnUse" color-interpolation-filters="sRGB">
<feFlood flood-opacity="0" result="BackgroundImageFix"/>
<feColorMatrix in="SourceAlpha" type="matrix" values="0 0 0 0 0 0 0 0 0 0 0 0 0 0 0 0 0 0 127 0" result="hardAlpha"/>
<feOffset/>
<feGaussianBlur stdDeviation="2.85714"/>
<feComposite in2="hardAlpha" operator="out"/>
<feColorMatrix type="matrix" values="0 0 0 0 0 0 0 0 0 0 0 0 0 0 0 0 0 0 0.25 0"/>
<feBlend mode="normal" in2="BackgroundImageFix" result="effect1_dropShadow_1_56"/>
<feBlend mode="normal" in="SourceGraphic" in2="effect1_dropShadow_1_56" result="shape"/>
</filter>
<linearGradient id="paint0_linear_1_56" x1="110.001" y1="0" x2="110.001" y2="40.0014" gradientUnits="userSpaceOnUse">
<stop stop-color="#50227A"/>
<stop offset="1" stop-color="#1B0B29"/>
</linearGradient>
<radialGradient id="paint1_radial_1_56" cx="0" cy="0" r="1" gradientUnits="userSpaceOnUse" gradientTransform="translate(15.4375 36.1484) rotate(-90) scale(27.7425 25.8097)">
<stop stop-color="#FFDD55"/>
<stop offset="0.1" stop-color="#FFDD55"/>
<stop offset="0.5" stop-color="#FF543E"/>
<stop offset="1" stop-color="#C837AB"/>
</radialGradient>
<radialGradient id="paint2_radial_1_56" cx="0" cy="0" r="1" gradientUnits="userSpaceOnUse" gradientTransform="translate(3.30985 8.01652) rotate(78.6776) scale(12.4011 51.1309)">
<stop stop-color="#3771C8"/>
<stop offset="0.128" stop-color="#3771C8"/>
<stop offset="1" stop-color="#6600FF" stop-opacity="0"/>
</radialGradient>
<linearGradient id="paint3_linear_1_56" x1="127.409" y1="19.5" x2="209.885" y2="19.5" gradientUnits="userSpaceOnUse">
<stop stop-color="#F9CE34"/>
<stop offset="0.5" stop-color="#EE2A7B"/>
<stop offset="1" stop-color="#6228D7"/>
</linearGradient>
</defs>
</svg>
