<svg width="177" height="40" viewBox="0 0 177 40" fill="none" xmlns="http://www.w3.org/2000/svg">
<rect width="177.001" height="40.0014" rx="8" fill="url(#paint0_linear_1_56)"/>
<rect x="1.07143" y="1.07143" width="174.859" height="37.8585" rx="6.92857" stroke="white" stroke-opacity="0.15" stroke-width="2.14286"/>
<g filter="url(#filter0_d_1_56)">
<path d="M18.2822 29.8488C17.0172 28.6925 16.6479 26.263 17.175 24.5028C18.0887 25.6126 19.3549 25.9641 20.6664 26.1625C22.691 26.4688 24.6794 26.3542 26.5602 25.4288C26.7753 25.3229 26.9741 25.182 27.2092 25.0393C27.3857 25.5513 27.4316 26.0682 27.37 26.5943C27.2201 27.8755 26.5825 28.8652 25.5684 29.6155C25.1629 29.9156 24.7337 30.1838 24.3149 30.4667C23.0282 31.3364 22.6801 32.3561 23.1636 33.8393C23.1751 33.8757 23.1854 33.9118 23.2114 34C22.5544 33.7059 22.0745 33.2778 21.7089 32.7149C21.3227 32.1209 21.139 31.4638 21.1293 30.7528C21.1245 30.4067 21.1245 30.0576 21.0779 29.7165C20.9643 28.8848 20.5739 28.5124 19.8384 28.491C19.0835 28.469 18.4864 28.9356 18.3281 29.6706C18.316 29.7269 18.2985 29.7826 18.2809 29.8482L18.2822 29.8488Z" fill="white"/>
<path d="M18.2822 29.8488C17.0172 28.6925 16.6479 26.263 17.175 24.5028C18.0887 25.6126 19.3549 25.9641 20.6664 26.1625C22.691 26.4688 24.6794 26.3542 26.5602 25.4288C26.7753 25.3229 26.9741 25.182 27.2092 25.0393C27.3857 25.5513 27.4316 26.0682 27.37 26.5943C27.2201 27.8755 26.5825 28.8652 25.5684 29.6155C25.1629 29.9156 24.7337 30.1838 24.3149 30.4667C23.0282 31.3364 22.6801 32.3561 23.1636 33.8393C23.1751 33.8757 23.1854 33.9118 23.2114 34C22.5544 33.7059 22.0745 33.2778 21.7089 32.7149C21.3227 32.1209 21.139 31.4638 21.1293 30.7528C21.1245 30.4067 21.1245 30.0576 21.0779 29.7165C20.9643 28.8848 20.5739 28.5124 19.8384 28.491C19.0835 28.469 18.4864 28.9356 18.3281 29.6706C18.316 29.7269 18.2985 29.7826 18.2809 29.8482L18.2822 29.8488Z" fill="url(#paint1_linear_1_56)"/>
<path d="M11.0625 24.2096C11.0625 24.2096 14.8082 22.3849 18.5644 22.3849L21.3964 13.6203C21.5024 13.1964 21.812 12.9084 22.1615 12.9084C22.511 12.9084 22.8205 13.1964 22.9266 13.6203L25.7586 22.3849C30.2072 22.3849 33.2604 24.2096 33.2604 24.2096C33.2604 24.2096 26.8981 6.87725 26.8856 6.84247C26.703 6.33003 26.3947 6 25.9791 6H18.3444C17.9288 6 17.633 6.33003 17.438 6.84247C17.4242 6.87659 11.0625 24.2096 11.0625 24.2096Z" fill="white"/>
</g>
<g filter="url(#filter1_d_1_56)">
<path d="M43.3597 26.5007V14.1371H47.8874C48.7648 14.1371 49.4912 14.282 50.0667 14.5717C50.6423 14.8575 51.0729 15.2458 51.3586 15.7369C51.6444 16.2238 51.7873 16.7732 51.7873 17.3849C51.7873 17.9001 51.6927 18.3347 51.5035 18.6889C51.3144 19.0391 51.0608 19.3208 50.7429 19.5341C50.429 19.7434 50.0828 19.8963 49.7045 19.9929V20.1136C50.115 20.1337 50.5155 20.2666 50.9059 20.5121C51.3003 20.7535 51.6263 21.0976 51.8839 21.5444C52.1414 21.9911 52.2702 22.5344 52.2702 23.1743C52.2702 23.8062 52.1213 24.3737 51.8235 24.8768C51.5297 25.3758 51.0749 25.7722 50.4591 26.066C49.8434 26.3558 49.0566 26.5007 48.0987 26.5007H43.3597ZM45.2251 24.9009H47.9176C48.8111 24.9009 49.451 24.7279 49.8373 24.3817C50.2237 24.0356 50.4169 23.603 50.4169 23.0838C50.4169 22.6934 50.3183 22.3352 50.1211 22.0092C49.9239 21.6832 49.6421 21.4236 49.2759 21.2305C48.9137 21.0373 48.483 20.9407 47.984 20.9407H45.2251V24.9009ZM45.2251 19.4858H47.7244C48.143 19.4858 48.5193 19.4053 48.8533 19.2443C49.1914 19.0833 49.459 18.8579 49.6562 18.5682C49.8575 18.2744 49.9581 17.9283 49.9581 17.5298C49.9581 17.0187 49.779 16.5901 49.4208 16.244C49.0626 15.8978 48.5132 15.7248 47.7727 15.7248H45.2251V19.4858ZM60.2118 22.6552V17.228H62.0229V26.5007H60.248V24.8949H60.1514C59.9381 25.3899 59.596 25.8024 59.1251 26.1324C58.6583 26.4584 58.0767 26.6214 57.3805 26.6214C56.7848 26.6214 56.2576 26.4906 55.7988 26.229C55.344 25.9634 54.9858 25.571 54.7242 25.0518C54.4667 24.5327 54.3379 23.8907 54.3379 23.1261V17.228H56.1429V22.9087C56.1429 23.5406 56.318 24.0437 56.6681 24.418C57.0183 24.7922 57.473 24.9794 58.0325 24.9794C58.3705 24.9794 58.7066 24.8949 59.0406 24.7258C59.3787 24.5568 59.6584 24.3012 59.8798 23.9591C60.1051 23.6171 60.2158 23.1824 60.2118 22.6552ZM64.4482 26.5007V17.228H66.2533V26.5007H64.4482ZM65.3598 15.7972C65.0459 15.7972 64.7762 15.6926 64.5508 15.4833C64.3295 15.27 64.2188 15.0164 64.2188 14.7226C64.2188 14.4248 64.3295 14.1713 64.5508 13.962C64.7762 13.7487 65.0459 13.642 65.3598 13.642C65.6737 13.642 65.9413 13.7487 66.1627 13.962C66.3881 14.1713 66.5008 14.4248 66.5008 14.7226C66.5008 15.0164 66.3881 15.27 66.1627 15.4833C65.9413 15.6926 65.6737 15.7972 65.3598 15.7972ZM70.4867 14.1371V26.5007H68.6816V14.1371H70.4867ZM77.2435 17.228V18.6768H72.1785V17.228H77.2435ZM73.5368 15.0064H75.3419V23.778C75.3419 24.1282 75.3942 24.3918 75.4988 24.5689C75.6035 24.7419 75.7383 24.8607 75.9033 24.9251C76.0723 24.9854 76.2554 25.0156 76.4526 25.0156C76.5975 25.0156 76.7243 25.0056 76.833 24.9854C76.9416 24.9653 77.0262 24.9492 77.0865 24.9371L77.4125 26.4283C77.3079 26.4685 77.159 26.5087 76.9658 26.549C76.7726 26.5933 76.5311 26.6174 76.2414 26.6214C75.7664 26.6295 75.3237 26.545 74.9132 26.3679C74.5027 26.1908 74.1707 25.9171 73.9171 25.5469C73.6636 25.1766 73.5368 24.7118 73.5368 24.1523V15.0064ZM85.7495 26.5007L83.0208 17.228H84.8862L86.7034 24.0376H86.7939L88.6171 17.228H90.4825L92.2936 24.0074H92.3841L94.1891 17.228H96.0546L93.3319 26.5007H91.4906L89.6071 19.8057H89.4683L87.5847 26.5007H85.7495ZM97.7675 26.5007V17.228H99.5726V26.5007H97.7675ZM98.6791 15.7972C98.3652 15.7972 98.0955 15.6926 97.8702 15.4833C97.6488 15.27 97.5381 15.0164 97.5381 14.7226C97.5381 14.4248 97.6488 14.1713 97.8702 13.962C98.0955 13.7487 98.3652 13.642 98.6791 13.642C98.993 13.642 99.2607 13.7487 99.482 13.962C99.7074 14.1713 99.8201 14.4248 99.8201 14.7226C99.8201 15.0164 99.7074 15.27 99.482 15.4833C99.2607 15.6926 98.993 15.7972 98.6791 15.7972ZM106.329 17.228V18.6768H101.264V17.228H106.329ZM102.623 15.0064H104.428V23.778C104.428 24.1282 104.48 24.3918 104.585 24.5689C104.689 24.7419 104.824 24.8607 104.989 24.9251C105.158 24.9854 105.341 25.0156 105.539 25.0156C105.683 25.0156 105.81 25.0056 105.919 24.9854C106.028 24.9653 106.112 24.9492 106.172 24.9371L106.498 26.4283C106.394 26.4685 106.245 26.5087 106.052 26.549C105.859 26.5933 105.617 26.6174 105.327 26.6214C104.852 26.6295 104.41 26.545 103.999 26.3679C103.589 26.1908 103.257 25.9171 103.003 25.5469C102.75 25.1766 102.623 24.7118 102.623 24.1523V15.0064ZM110.33 20.995V26.5007H108.525V14.1371H110.306V18.7372H110.421C110.638 18.2382 110.97 17.8417 111.417 17.5479C111.864 17.2541 112.447 17.1072 113.168 17.1072C113.804 17.1072 114.359 17.238 114.834 17.4996C115.313 17.7612 115.683 18.1516 115.945 18.6708C116.21 19.1859 116.343 19.8299 116.343 20.6026V26.5007H114.538V20.8199C114.538 20.1398 114.363 19.6126 114.013 19.2383C113.663 18.86 113.176 18.6708 112.552 18.6708C112.125 18.6708 111.743 18.7614 111.405 18.9425C111.071 19.1236 110.807 19.3892 110.614 19.7393C110.425 20.0855 110.33 20.504 110.33 20.995Z" fill="#E8E8E8"/>
<path d="M125.611 26.0007H122.4L126.571 13.6371H130.55L134.721 26.0007H131.51L128.606 16.7521H128.509L125.611 26.0007ZM125.183 21.1349H131.896V23.4048H125.183V21.1349ZM143.866 19.5593L141.155 19.6317C141.127 19.4386 141.05 19.2675 140.926 19.1186C140.801 18.9657 140.638 18.8469 140.437 18.7624C140.239 18.6739 140.01 18.6296 139.748 18.6296C139.406 18.6296 139.115 18.698 138.873 18.8349C138.636 18.9717 138.519 19.1568 138.523 19.3903C138.519 19.5714 138.591 19.7283 138.74 19.8611C138.893 19.994 139.165 20.1006 139.555 20.1811L141.342 20.5192C142.268 20.6962 142.956 20.99 143.407 21.4006C143.862 21.8111 144.091 22.3544 144.095 23.0305C144.091 23.6664 143.902 24.2198 143.528 24.6907C143.157 25.1616 142.65 25.5278 142.006 25.7894C141.362 26.047 140.626 26.1758 139.797 26.1758C138.473 26.1758 137.428 25.9041 136.664 25.3608C135.903 24.8134 135.468 24.081 135.36 23.1633L138.275 23.0909C138.34 23.429 138.507 23.6865 138.776 23.8636C139.046 24.0407 139.39 24.1292 139.809 24.1292C140.187 24.1292 140.495 24.0588 140.732 23.918C140.97 23.7771 141.091 23.5899 141.095 23.3565C141.091 23.1472 140.998 22.9802 140.817 22.8555C140.636 22.7267 140.352 22.6261 139.966 22.5536L138.348 22.2457C137.418 22.0767 136.726 21.7648 136.271 21.31C135.816 20.8512 135.591 20.2676 135.595 19.5593C135.591 18.9395 135.756 18.4103 136.09 17.9716C136.424 17.5289 136.899 17.1908 137.515 16.9574C138.131 16.7239 138.857 16.6072 139.694 16.6072C140.95 16.6072 141.94 16.8708 142.664 17.3981C143.389 17.9213 143.789 18.6417 143.866 19.5593ZM150.782 16.728V18.9013H144.933V16.728H150.782ZM146.158 14.5064H149.11V23.0849C149.11 23.266 149.138 23.4129 149.195 23.5256C149.255 23.6342 149.342 23.7127 149.454 23.761C149.567 23.8053 149.702 23.8274 149.859 23.8274C149.971 23.8274 150.09 23.8173 150.215 23.7972C150.344 23.7731 150.44 23.7529 150.505 23.7368L150.951 25.8679C150.811 25.9081 150.611 25.9584 150.354 26.0188C150.1 26.0792 149.796 26.1174 149.442 26.1335C148.75 26.1657 148.156 26.0852 147.661 25.892C147.17 25.6948 146.794 25.389 146.532 24.9744C146.275 24.5599 146.15 24.0387 146.158 23.4109V14.5064ZM152.289 26.0007V16.728H155.156V18.4183H155.253C155.422 17.8066 155.698 17.3518 156.08 17.054C156.462 16.7521 156.907 16.6012 157.414 16.6012C157.551 16.6012 157.692 16.6113 157.837 16.6314C157.981 16.6475 158.116 16.6736 158.241 16.7099V19.2756C158.1 19.2273 157.915 19.189 157.686 19.1609C157.46 19.1327 157.259 19.1186 157.082 19.1186C156.732 19.1186 156.416 19.1971 156.134 19.354C155.856 19.507 155.637 19.7223 155.476 20C155.319 20.2737 155.241 20.5956 155.241 20.9659V26.0007H152.289ZM163.291 26.1758C162.317 26.1758 161.48 25.9765 160.78 25.5781C160.083 25.1757 159.546 24.6162 159.168 23.8998C158.793 23.1794 158.606 22.3443 158.606 21.3945C158.606 20.4407 158.793 19.6056 159.168 18.8892C159.546 18.1688 160.083 17.6094 160.78 17.2109C161.48 16.8085 162.317 16.6072 163.291 16.6072C164.265 16.6072 165.1 16.8085 165.796 17.2109C166.497 17.6094 167.034 18.1688 167.408 18.8892C167.786 19.6056 167.976 20.4407 167.976 21.3945C167.976 22.3443 167.786 23.1794 167.408 23.8998C167.034 24.6162 166.497 25.1757 165.796 25.5781C165.1 25.9765 164.265 26.1758 163.291 26.1758ZM163.309 23.9481C163.663 23.9481 163.963 23.8395 164.209 23.6221C164.454 23.4048 164.641 23.103 164.77 22.7166C164.903 22.3302 164.969 21.8835 164.969 21.3764C164.969 20.8613 164.903 20.4105 164.77 20.0241C164.641 19.6378 164.454 19.3359 164.209 19.1186C163.963 18.9013 163.663 18.7926 163.309 18.7926C162.943 18.7926 162.633 18.9013 162.379 19.1186C162.13 19.3359 161.939 19.6378 161.806 20.0241C161.677 20.4105 161.613 20.8613 161.613 21.3764C161.613 21.8835 161.677 22.3302 161.806 22.7166C161.939 23.103 162.13 23.4048 162.379 23.6221C162.633 23.8395 162.943 23.9481 163.309 23.9481Z" fill="url(#paint2_linear_1_56)"/>
</g>
<defs>
<filter id="filter0_d_1_56" x="2.39972" y="0.39972" width="39.202" height="39.202" filterUnits="userSpaceOnUse" color-interpolation-filters="sRGB">
<feFlood flood-opacity="0" result="BackgroundImageFix"/>
<feColorMatrix in="SourceAlpha" type="matrix" values="0 0 0 0 0 0 0 0 0 0 0 0 0 0 0 0 0 0 127 0" result="hardAlpha"/>
<feOffset/>
<feGaussianBlur stdDeviation="2.80014"/>
<feComposite in2="hardAlpha" operator="out"/>
<feColorMatrix type="matrix" values="0 0 0 0 0 0 0 0 0 0 0 0 0 0 0 0 0 0 0.25 0"/>
<feBlend mode="normal" in2="BackgroundImageFix" result="effect1_dropShadow_1_56"/>
<feBlend mode="normal" in="SourceGraphic" in2="effect1_dropShadow_1_56" result="shape"/>
</filter>
<filter id="filter1_d_1_56" x="36.2871" y="3.78642" width="138.429" height="32.4286" filterUnits="userSpaceOnUse" color-interpolation-filters="sRGB">
<feFlood flood-opacity="0" result="BackgroundImageFix"/>
<feColorMatrix in="SourceAlpha" type="matrix" values="0 0 0 0 0 0 0 0 0 0 0 0 0 0 0 0 0 0 127 0" result="hardAlpha"/>
<feOffset/>
<feGaussianBlur stdDeviation="2.85714"/>
<feComposite in2="hardAlpha" operator="out"/>
<feColorMatrix type="matrix" values="0 0 0 0 0 0 0 0 0 0 0 0 0 0 0 0 0 0 0.25 0"/>
<feBlend mode="normal" in2="BackgroundImageFix" result="effect1_dropShadow_1_56"/>
<feBlend mode="normal" in="SourceGraphic" in2="effect1_dropShadow_1_56" result="shape"/>
</filter>
<linearGradient id="paint0_linear_1_56" x1="88.5007" y1="0" x2="88.5007" y2="40.0014" gradientUnits="userSpaceOnUse">
<stop stop-color="#A82020"/>
<stop offset="1" stop-color="#580060"/>
</linearGradient>
<linearGradient id="paint1_linear_1_56" x1="16.9426" y1="34" x2="29.1565" y2="28.2291" gradientUnits="userSpaceOnUse">
<stop stop-color="#D83333"/>
<stop offset="1" stop-color="#F041FF"/>
</linearGradient>
<linearGradient id="paint2_linear_1_56" x1="122" y1="20" x2="168" y2="20" gradientUnits="userSpaceOnUse">
<stop stop-color="#D83333"/>
<stop offset="1" stop-color="#F041FF"/>
</linearGradient>
</defs>
</svg>
