<svg width="40" height="40" viewBox="0 0 40 40" fill="none" xmlns="http://www.w3.org/2000/svg">
<rect width="40" height="40" rx="8" fill="url(#paint0_linear_1_68)"/>
<rect x="1.05" y="1.05" width="37.9" height="37.9" rx="6.95" stroke="white" stroke-opacity="0.15" stroke-width="2.1"/>
<g filter="url(#filter0_d_1_68)">
<path d="M16.2822 29.8488C15.0172 28.6925 14.648 26.263 15.175 24.5028C16.0887 25.6126 17.3549 25.9641 18.6664 26.1625C20.691 26.4688 22.6794 26.3542 24.5602 25.4288C24.7753 25.3229 24.9741 25.182 25.2092 25.0393C25.3857 25.5513 25.4316 26.0682 25.37 26.5943C25.2201 27.8755 24.5825 28.8652 23.5684 29.6155C23.1629 29.9156 22.7337 30.1838 22.3149 30.4667C21.0282 31.3364 20.6801 32.3561 21.1636 33.8393C21.1751 33.8757 21.1854 33.9118 21.2114 34C20.5544 33.7059 20.0745 33.2778 19.7089 32.7149C19.3227 32.1209 19.139 31.4638 19.1293 30.7528C19.1245 30.4067 19.1245 30.0576 19.0779 29.7165C18.9643 28.8848 18.5739 28.5124 17.8384 28.491C17.0835 28.469 16.4864 28.9356 16.3281 29.6706C16.316 29.7269 16.2985 29.7826 16.2809 29.8482L16.2822 29.8488Z" fill="white"/>
<path d="M16.2822 29.8488C15.0172 28.6925 14.648 26.263 15.175 24.5028C16.0887 25.6126 17.3549 25.9641 18.6664 26.1625C20.691 26.4688 22.6794 26.3542 24.5602 25.4288C24.7753 25.3229 24.9741 25.182 25.2092 25.0393C25.3857 25.5513 25.4316 26.0682 25.37 26.5943C25.2201 27.8755 24.5825 28.8652 23.5684 29.6155C23.1629 29.9156 22.7337 30.1838 22.3149 30.4667C21.0282 31.3364 20.6801 32.3561 21.1636 33.8393C21.1751 33.8757 21.1854 33.9118 21.2114 34C20.5544 33.7059 20.0745 33.2778 19.7089 32.7149C19.3227 32.1209 19.139 31.4638 19.1293 30.7528C19.1245 30.4067 19.1245 30.0576 19.0779 29.7165C18.9643 28.8848 18.5739 28.5124 17.8384 28.491C17.0835 28.469 16.4864 28.9356 16.3281 29.6706C16.316 29.7269 16.2985 29.7826 16.2809 29.8482L16.2822 29.8488Z" fill="url(#paint1_linear_1_68)"/>
<path d="M9.0625 24.2096C9.0625 24.2096 12.8082 22.3849 16.5644 22.3849L19.3964 13.6203C19.5024 13.1964 19.812 12.9084 20.1615 12.9084C20.511 12.9084 20.8205 13.1964 20.9266 13.6203L23.7586 22.3849C28.2072 22.3849 31.2604 24.2096 31.2604 24.2096C31.2604 24.2096 24.8981 6.87725 24.8856 6.84247C24.703 6.33003 24.3947 6 23.9791 6H16.3444C15.9288 6 15.633 6.33003 15.438 6.84247C15.4242 6.87659 9.0625 24.2096 9.0625 24.2096Z" fill="white"/>
</g>
<defs>
<filter id="filter0_d_1_68" x="2" y="2" width="36" height="36" filterUnits="userSpaceOnUse" color-interpolation-filters="sRGB">
<feFlood flood-opacity="0" result="BackgroundImageFix"/>
<feColorMatrix in="SourceAlpha" type="matrix" values="0 0 0 0 0 0 0 0 0 0 0 0 0 0 0 0 0 0 127 0" result="hardAlpha"/>
<feOffset/>
<feGaussianBlur stdDeviation="2"/>
<feComposite in2="hardAlpha" operator="out"/>
<feColorMatrix type="matrix" values="0 0 0 0 0 0 0 0 0 0 0 0 0 0 0 0 0 0 0.25 0"/>
<feBlend mode="normal" in2="BackgroundImageFix" result="effect1_dropShadow_1_68"/>
<feBlend mode="normal" in="SourceGraphic" in2="effect1_dropShadow_1_68" result="shape"/>
</filter>
<linearGradient id="paint0_linear_1_68" x1="20" y1="0" x2="20" y2="40" gradientUnits="userSpaceOnUse">
<stop stop-color="#A82020"/>
<stop offset="1" stop-color="#580060"/>
</linearGradient>
<linearGradient id="paint1_linear_1_68" x1="14.9426" y1="34" x2="27.1565" y2="28.2291" gradientUnits="userSpaceOnUse">
<stop stop-color="#D83333"/>
<stop offset="1" stop-color="#F041FF"/>
</linearGradient>
</defs>
</svg>
