<svg width="56" height="56" viewBox="0 0 56 56" fill="none" xmlns="http://www.w3.org/2000/svg">
<rect width="56" height="56" rx="8.4" fill="url(#paint0_linear_1_62)"/>
<rect x="1.05" y="1.05" width="53.9" height="53.9" rx="7.35" stroke="white" stroke-opacity="0.15" stroke-width="2.1"/>
<g filter="url(#filter0_d_1_62)">
<path d="M22.6888 42.0697C20.8817 40.4179 20.3542 36.9471 21.1071 34.4326C22.4125 36.0179 24.2213 36.5201 26.0948 36.8036C28.9872 37.2411 31.8277 37.0775 34.5145 35.7555C34.8219 35.6041 35.1059 35.4029 35.4418 35.199C35.6939 35.9305 35.7595 36.6689 35.6714 37.4204C35.4573 39.2507 34.5464 40.6646 33.0977 41.7364C32.5184 42.1651 31.9054 42.5483 31.307 42.9525C29.4689 44.1949 28.9716 45.6516 29.6623 47.7705C29.6787 47.8224 29.6934 47.874 29.7305 48C28.792 47.5798 28.1065 46.9682 27.5842 46.1641C27.0325 45.3156 26.77 44.3769 26.7562 43.3611C26.7492 42.8668 26.7492 42.368 26.6828 41.8807C26.5205 40.6926 25.9627 40.1606 24.912 40.13C23.8336 40.0985 22.9806 40.7652 22.7544 41.8151C22.7371 41.8956 22.7121 41.9752 22.687 42.0688L22.6888 42.0697Z" fill="white"/>
<path d="M22.6888 42.0697C20.8817 40.4179 20.3542 36.9471 21.1071 34.4326C22.4125 36.0179 24.2213 36.5201 26.0948 36.8036C28.9872 37.2411 31.8277 37.0775 34.5145 35.7555C34.8219 35.6041 35.1059 35.4029 35.4418 35.199C35.6939 35.9305 35.7595 36.6689 35.6714 37.4204C35.4573 39.2507 34.5464 40.6646 33.0977 41.7364C32.5184 42.1651 31.9054 42.5483 31.307 42.9525C29.4689 44.1949 28.9716 45.6516 29.6623 47.7705C29.6787 47.8224 29.6934 47.874 29.7305 48C28.792 47.5798 28.1065 46.9682 27.5842 46.1641C27.0325 45.3156 26.77 44.3769 26.7562 43.3611C26.7492 42.8668 26.7492 42.368 26.6828 41.8807C26.5205 40.6926 25.9627 40.1606 24.912 40.13C23.8336 40.0985 22.9806 40.7652 22.7544 41.8151C22.7371 41.8956 22.7121 41.9752 22.687 42.0688L22.6888 42.0697Z" fill="url(#paint1_linear_1_62)"/>
<path d="M12.375 34.0137C12.375 34.0137 17.726 31.407 23.0919 31.407L27.1377 18.8861C27.2891 18.2806 27.7314 17.8691 28.2307 17.8691C28.73 17.8691 29.1722 18.2806 29.3237 18.8861L33.3694 31.407C39.7246 31.407 44.0863 34.0137 44.0863 34.0137C44.0863 34.0137 34.9972 9.25321 34.9795 9.20353C34.7186 8.47148 34.2782 8 33.6845 8H22.7778C22.184 8 21.7614 8.47148 21.4828 9.20353C21.4631 9.25227 12.375 34.0137 12.375 34.0137Z" fill="white"/>
</g>
<defs>
<filter id="filter0_d_1_62" x="2.28571" y="2.28571" width="51.4286" height="51.4286" filterUnits="userSpaceOnUse" color-interpolation-filters="sRGB">
<feFlood flood-opacity="0" result="BackgroundImageFix"/>
<feColorMatrix in="SourceAlpha" type="matrix" values="0 0 0 0 0 0 0 0 0 0 0 0 0 0 0 0 0 0 127 0" result="hardAlpha"/>
<feOffset/>
<feGaussianBlur stdDeviation="2.85714"/>
<feComposite in2="hardAlpha" operator="out"/>
<feColorMatrix type="matrix" values="0 0 0 0 0 0 0 0 0 0 0 0 0 0 0 0 0 0 0.25 0"/>
<feBlend mode="normal" in2="BackgroundImageFix" result="effect1_dropShadow_1_62"/>
<feBlend mode="normal" in="SourceGraphic" in2="effect1_dropShadow_1_62" result="shape"/>
</filter>
<linearGradient id="paint0_linear_1_62" x1="28" y1="0" x2="28" y2="56" gradientUnits="userSpaceOnUse">
<stop stop-color="#A82020"/>
<stop offset="1" stop-color="#580060"/>
</linearGradient>
<linearGradient id="paint1_linear_1_62" x1="20.7751" y1="48" x2="38.2236" y2="39.7558" gradientUnits="userSpaceOnUse">
<stop stop-color="#D83333"/>
<stop offset="1" stop-color="#F041FF"/>
</linearGradient>
</defs>
</svg>
