<svg width="173" height="40" viewBox="0 0 173 40" fill="none" xmlns="http://www.w3.org/2000/svg">
<rect width="173.001" height="40.0014" rx="8" fill="url(#paint0_linear_1_56)"/>
<rect x="1.07143" y="1.07143" width="170.859" height="37.8585" rx="6.92857" stroke="white" stroke-opacity="0.15" stroke-width="2.14286"/>
<g filter="url(#filter0_d_1_56)">
<path d="M22 6C25.713 6 29.274 7.475 31.8995 10.1005C34.525 12.726 36 16.287 36 20C36 23.713 34.525 27.274 31.8995 29.8995C29.274 32.525 25.713 34 22 34C18.287 34 14.726 32.525 12.1005 29.8995C9.475 27.274 8 23.713 8 20C8 16.287 9.475 12.726 12.1005 10.1005C14.726 7.475 18.287 6 22 6Z" fill="black"/>
<path d="M21.4531 13.9242C17.3844 13.9242 14.2125 16.4891 14.2125 19.6773C14.2125 22.6852 17.1273 24.6047 21.6445 24.5117L21.7813 24.5062L22.2789 24.4898L22.1531 24.818L22.1695 24.8508C22.2056 24.9352 22.2384 25.0209 22.268 25.1078L22.2789 25.1406L22.2953 25.1953L22.3172 25.2719L22.3336 25.3211L22.3555 25.3758L22.3719 25.4359L22.3938 25.5234L22.4211 25.6164L22.4375 25.6766L22.4648 25.775L22.4922 25.8789L22.5141 25.9828L22.5414 26.0922L22.5633 26.1687L22.5906 26.2891L22.618 26.4094L22.6563 26.5734L22.6727 26.6609L22.7 26.7922L22.7273 26.9289L22.7602 27.0711L22.7984 27.2734L22.8313 27.4375L22.875 27.6672L22.8969 27.782L22.9352 27.9625L22.968 28.1484L23.0117 28.4L23.0609 28.6625L23.1047 28.9359L23.1539 29.2148L23.2031 29.4992L23.2523 29.7945L23.3016 30.1008L23.3398 30.3359L23.4 30.7352L23.4273 30.8992L23.493 31.3203L23.5422 31.6648L23.5859 31.9273L23.6352 32.2883L23.6625 32.4687C26.6648 32.0695 29.3336 30.6148 31.2805 28.4875L31.3406 28.4219L31.0617 27.3828L30.3234 24.6211L29.8641 22.9039L29.4594 21.3945L29.2078 20.4758L29.0492 19.8961L28.9563 19.5461L28.8688 19.2398L28.8359 19.1086L28.8141 19.0375L28.8031 18.9992L28.7922 18.9664C28.3656 17.5937 27.5398 16.3797 26.4133 15.4992C25.0898 14.4656 23.4109 13.9242 21.4531 13.9242ZM17.8766 28.5203C17.5211 28.4219 17.1492 28.6297 17.0453 28.9852L17.0398 29.0016L16.4273 31.2766C16.8103 31.4661 17.2028 31.6358 17.6031 31.7852L17.6961 31.8234L18.3578 29.357L18.3633 29.3406C18.4508 28.9797 18.2375 28.6133 17.8766 28.5203ZM21.6883 26.8523C21.3273 26.7539 20.9555 26.9617 20.8516 27.3172L20.8461 27.3336L19.9164 30.7789V30.7953C19.8804 30.9663 19.9112 31.1445 20.0025 31.2935C20.0938 31.4424 20.2386 31.5508 20.4073 31.5963C20.576 31.6418 20.7557 31.621 20.9095 31.5381C21.0633 31.4553 21.1796 31.3167 21.2344 31.1508L21.2398 31.1344L22.1695 27.6891V27.6727L22.1859 27.5961L22.1914 27.5687L22.1695 27.4539L22.1367 27.2953L22.1148 27.1969C22.0714 27.1131 22.011 27.0393 21.9376 26.98C21.8642 26.9207 21.7793 26.8772 21.6883 26.8523ZM15.2078 23.3031L15.1641 23.407L15.1586 23.4289L14.2289 26.8742L14.2234 26.8906C14.182 27.0633 14.2094 27.2453 14.2997 27.3981C14.3901 27.5509 14.5364 27.6626 14.7076 27.7095C14.8788 27.7564 15.0616 27.7348 15.2172 27.6493C15.3728 27.5639 15.4891 27.4212 15.5414 27.2516L15.5469 27.2352L16.3891 24.107C15.9516 23.8773 15.5523 23.6039 15.2078 23.3031ZM12.993 19.3383C12.632 19.2453 12.2602 19.4531 12.1563 19.8031L12.1508 19.8195L11.2211 23.2648V23.2812C11.1797 23.4539 11.207 23.6359 11.2974 23.7887C11.3877 23.9415 11.534 24.0532 11.7053 24.1001C11.8765 24.147 12.0593 24.1254 12.2149 24.04C12.3705 23.9545 12.4868 23.8118 12.5391 23.6422L12.5445 23.6258L13.4742 20.1805V20.1641C13.5617 19.8031 13.3484 19.4367 12.993 19.3383ZM33.8344 18.5562C33.4789 18.4633 33.107 18.6711 33.0031 19.0211L32.9977 19.0375L32.068 22.4828L32.0625 22.4992C32.0146 22.6747 32.0385 22.862 32.1287 23.02C32.219 23.1779 32.3683 23.2935 32.5438 23.3414C32.7192 23.3893 32.9066 23.3655 33.0645 23.2752C33.2225 23.185 33.3381 23.0357 33.3859 22.8602V22.8437L34.3211 19.3984V19.3766C34.4086 19.0211 34.1953 18.6547 33.8344 18.5562ZM10.9641 13.957C10.185 15.3756 9.68913 16.9321 9.50391 18.5398C9.59362 18.6414 9.71172 18.7138 9.84297 18.7477C10.1984 18.8406 10.5703 18.6328 10.6742 18.2828L10.6797 18.2664L11.6094 14.8211L11.6148 14.8047C11.7023 14.4437 11.4891 14.0773 11.1281 13.9789C11.0745 13.9651 11.0194 13.9578 10.9641 13.957ZM31.4828 13.9789C31.1219 13.8859 30.7555 14.0937 30.6461 14.4437V14.4602L29.7164 17.9055L29.7109 17.9219C29.6695 18.0945 29.6969 18.2765 29.7872 18.4293C29.8776 18.5822 30.0239 18.6938 30.1951 18.7407C30.3663 18.7876 30.5491 18.7661 30.7047 18.6806C30.8603 18.5951 30.9766 18.4525 31.0289 18.2828L31.0344 18.2664L31.9641 14.8211L31.9695 14.8047C32.057 14.4437 31.8383 14.0773 31.4828 13.9789Z" fill="white"/>
<path d="M22.3281 16.2266C22.5602 16.2266 22.7827 16.3187 22.9468 16.4828C23.1109 16.6469 23.2031 16.8695 23.2031 17.1016C23.2031 17.3336 23.1109 17.5562 22.9468 17.7203C22.7827 17.8844 22.5602 17.9766 22.3281 17.9766C22.0961 17.9766 21.8735 17.8844 21.7094 17.7203C21.5453 17.5562 21.4531 17.3336 21.4531 17.1016C21.4531 16.8695 21.5453 16.6469 21.7094 16.4828C21.8735 16.3187 22.0961 16.2266 22.3281 16.2266Z" fill="black"/>
<path d="M15.0109 10.7031C14.6555 10.6102 14.2836 10.818 14.1797 11.168L14.1742 11.1844L13.2445 14.6297L13.2391 14.6461C13.1976 14.8187 13.225 15.0007 13.3153 15.1535C13.4057 15.3064 13.552 15.418 13.7232 15.4649C13.8945 15.5118 14.0772 15.4903 14.2328 15.4048C14.3885 15.3193 14.5047 15.1767 14.557 15.007L14.5625 14.9906L15.4922 11.5453L15.4977 11.5234C15.5852 11.168 15.3719 10.8016 15.0109 10.7031ZM26.9602 11.3539C26.5992 11.2609 26.2273 11.4687 26.1234 11.8187L26.118 11.8352L25.4945 14.1539C25.899 14.3528 26.2852 14.587 26.6484 14.8539L26.7086 14.9031L27.4414 12.1961V12.1797C27.5289 11.8187 27.3156 11.4523 26.9602 11.3539ZM20.8789 7.47109C20.4421 7.51033 20.0077 7.57239 19.5773 7.65703L19.4844 7.67344L18.6203 10.8836L18.6148 10.9C18.5788 11.071 18.6096 11.2492 18.7009 11.3982C18.7922 11.5471 18.9371 11.6555 19.1057 11.701C19.2744 11.7465 19.4541 11.7256 19.6079 11.6428C19.7617 11.5599 19.878 11.4213 19.9328 11.2555L19.9383 11.2391L20.868 7.79375L20.8734 7.77734C20.8986 7.67701 20.9005 7.57226 20.8789 7.47109ZM29.432 9.85L29.2516 10.5281L29.2461 10.5445C29.2101 10.7155 29.2409 10.8937 29.3322 11.0427C29.4234 11.1917 29.5683 11.3 29.737 11.3455C29.9057 11.391 30.0854 11.3702 30.2392 11.2873C30.393 11.2045 30.5092 11.0659 30.5641 10.9L30.5695 10.8836L30.5914 10.8125C30.2493 10.492 29.8896 10.1907 29.5141 9.91015L29.432 9.85ZM24.0234 7.58594L23.6953 8.80547L23.6898 8.82187C23.6538 8.99283 23.6846 9.17108 23.7759 9.32004C23.8672 9.469 24.0121 9.57735 24.1807 9.62285C24.3494 9.66834 24.5291 9.64752 24.6829 9.56467C24.8367 9.48182 24.953 9.34323 25.0078 9.17734L25.0133 9.16094L25.3578 7.87578C24.9507 7.76382 24.5382 7.67256 24.1219 7.60234L24.0234 7.58594Z" fill="white"/>
</g>
<g filter="url(#filter1_d_1_56)">
<path d="M50.103 17.3849C50.0386 16.8134 49.7729 16.3707 49.3061 16.0568C48.8392 15.7389 48.2516 15.5799 47.5433 15.5799C47.0362 15.5799 46.5975 15.6604 46.2272 15.8214C45.857 15.9783 45.5692 16.1957 45.364 16.4734C45.1627 16.747 45.0621 17.0589 45.0621 17.4091C45.0621 17.7029 45.1305 17.9564 45.2674 18.1697C45.4082 18.383 45.5914 18.5621 45.8167 18.707C46.0461 18.8479 46.2916 18.9666 46.5532 19.0632C46.8148 19.1558 47.0664 19.2322 47.3079 19.2926L48.5152 19.6065C48.9097 19.7031 49.3141 19.8339 49.7287 19.9989C50.1432 20.1639 50.5276 20.3813 50.8817 20.6509C51.2359 20.9206 51.5216 21.2546 51.739 21.653C51.9603 22.0515 52.071 22.5284 52.071 23.0838C52.071 23.7841 51.8899 24.4059 51.5277 24.9492C51.1695 25.4925 50.6483 25.9212 49.9641 26.2351C49.2839 26.549 48.4609 26.706 47.495 26.706C46.5693 26.706 45.7684 26.5591 45.0923 26.2653C44.4162 25.9715 43.8869 25.5549 43.5046 25.0156C43.1223 24.4723 42.911 23.8283 42.8707 23.0838H44.7422C44.7784 23.5305 44.9233 23.9028 45.1768 24.2006C45.4344 24.4944 45.7624 24.7138 46.1608 24.8587C46.5633 24.9995 47.004 25.0699 47.4829 25.0699C48.0102 25.0699 48.479 24.9874 48.8895 24.8224C49.3041 24.6534 49.6301 24.42 49.8675 24.1221C50.105 23.8203 50.2237 23.4681 50.2237 23.0657C50.2237 22.6994 50.1191 22.3996 49.9098 22.1662C49.7045 21.9328 49.4248 21.7396 49.0706 21.5866C48.7205 21.4337 48.3241 21.2989 47.8814 21.1822L46.4204 20.7837C45.4304 20.5141 44.6456 20.1176 44.066 19.5944C43.4905 19.0712 43.2027 18.379 43.2027 17.5177C43.2027 16.8054 43.3959 16.1836 43.7823 15.6523C44.1687 15.1211 44.6919 14.7086 45.3519 14.4148C46.0119 14.1169 46.7565 13.968 47.5856 13.968C48.4227 13.968 49.1612 14.1149 49.8011 14.4087C50.445 14.7025 50.9522 15.107 51.3224 15.6221C51.6927 16.1333 51.8859 16.7209 51.902 17.3849H50.103ZM60.0292 22.6552V17.228H61.8403V26.5007H60.0654V24.8949H59.9688C59.7555 25.3899 59.4134 25.8024 58.9425 26.1324C58.4757 26.4584 57.8941 26.6214 57.1979 26.6214C56.6022 26.6214 56.075 26.4906 55.6162 26.229C55.1614 25.9634 54.8032 25.571 54.5416 25.0518C54.284 24.5327 54.1552 23.8907 54.1552 23.1261V17.228H55.9603V22.9087C55.9603 23.5406 56.1354 24.0437 56.4855 24.418C56.8356 24.7922 57.2904 24.9794 57.8498 24.9794C58.1879 24.9794 58.524 24.8949 58.858 24.7258C59.1961 24.5568 59.4758 24.3012 59.6971 23.9591C59.9225 23.6171 60.0332 23.1824 60.0292 22.6552ZM64.2656 29.978V17.228H66.0284V18.7312H66.1793C66.2839 18.538 66.4349 18.3146 66.6321 18.0611C66.8293 17.8075 67.103 17.5862 67.4531 17.397C67.8032 17.2038 68.2661 17.1072 68.8416 17.1072C69.5902 17.1072 70.2583 17.2964 70.8458 17.6747C71.4334 18.053 71.8943 18.5984 72.2283 19.3107C72.5664 20.0231 72.7354 20.8803 72.7354 21.8824C72.7354 22.8846 72.5684 23.7438 72.2343 24.4602C71.9003 25.1726 71.4415 25.7219 70.8579 26.1083C70.2744 26.4906 69.6083 26.6818 68.8597 26.6818C68.2963 26.6818 67.8354 26.5872 67.4772 26.3981C67.1231 26.2089 66.8454 25.9876 66.6441 25.734C66.4429 25.4805 66.288 25.2551 66.1793 25.0579H66.0706V29.978H64.2656ZM66.0344 21.8643C66.0344 22.5163 66.129 23.0878 66.3182 23.5788C66.5073 24.0698 66.781 24.4542 67.1392 24.7319C67.4974 25.0056 67.936 25.1424 68.4552 25.1424C68.9945 25.1424 69.4453 24.9995 69.8075 24.7138C70.1697 24.424 70.4434 24.0316 70.6285 23.5366C70.8177 23.0415 70.9123 22.4841 70.9123 21.8643C70.9123 21.2526 70.8197 20.7032 70.6346 20.2163C70.4534 19.7293 70.1798 19.3449 69.8135 19.0632C69.4513 18.7815 68.9985 18.6406 68.4552 18.6406C67.932 18.6406 67.4893 18.7754 67.1271 19.0451C66.7689 19.3147 66.4972 19.691 66.3121 20.174C66.127 20.6569 66.0344 21.2204 66.0344 21.8643ZM74.7578 29.978V17.228H76.5206V18.7312H76.6715C76.7761 18.538 76.927 18.3146 77.1243 18.0611C77.3215 17.8075 77.5951 17.5862 77.9453 17.397C78.2954 17.2038 78.7583 17.1072 79.3338 17.1072C80.0824 17.1072 80.7504 17.2964 81.338 17.6747C81.9256 18.053 82.3864 18.5984 82.7205 19.3107C83.0586 20.0231 83.2276 20.8803 83.2276 21.8824C83.2276 22.8846 83.0606 23.7438 82.7265 24.4602C82.3925 25.1726 81.9337 25.7219 81.3501 26.1083C80.7665 26.4906 80.1005 26.6818 79.3519 26.6818C78.7884 26.6818 78.3276 26.5872 77.9694 26.3981C77.6153 26.2089 77.3376 25.9876 77.1363 25.734C76.9351 25.4805 76.7802 25.2551 76.6715 25.0579H76.5628V29.978H74.7578ZM76.5266 21.8643C76.5266 22.5163 76.6212 23.0878 76.8103 23.5788C76.9995 24.0698 77.2732 24.4542 77.6314 24.7319C77.9895 25.0056 78.4282 25.1424 78.9474 25.1424C79.4867 25.1424 79.9375 24.9995 80.2997 24.7138C80.6619 24.424 80.9356 24.0316 81.1207 23.5366C81.3099 23.0415 81.4044 22.4841 81.4044 21.8643C81.4044 21.2526 81.3119 20.7032 81.1267 20.2163C80.9456 19.7293 80.672 19.3449 80.3057 19.0632C79.9435 18.7815 79.4907 18.6406 78.9474 18.6406C78.4242 18.6406 77.9815 18.7754 77.6193 19.0451C77.2611 19.3147 76.9894 19.691 76.8043 20.174C76.6192 20.6569 76.5266 21.2204 76.5266 21.8643ZM89.1559 26.6878C88.2865 26.6878 87.5279 26.4886 86.8799 26.0902C86.232 25.6917 85.7289 25.1343 85.3707 24.418C85.0125 23.7016 84.8334 22.8645 84.8334 21.9066C84.8334 20.9447 85.0125 20.1036 85.3707 19.3832C85.7289 18.6627 86.232 18.1033 86.8799 17.7049C87.5279 17.3065 88.2865 17.1072 89.1559 17.1072C90.0252 17.1072 90.7838 17.3065 91.4318 17.7049C92.0797 18.1033 92.5828 18.6627 92.941 19.3832C93.2992 20.1036 93.4783 20.9447 93.4783 21.9066C93.4783 22.8645 93.2992 23.7016 92.941 24.418C92.5828 25.1343 92.0797 25.6917 91.4318 26.0902C90.7838 26.4886 90.0252 26.6878 89.1559 26.6878ZM89.1619 25.1726C89.7253 25.1726 90.1922 25.0237 90.5625 24.7258C90.9327 24.428 91.2064 24.0316 91.3835 23.5366C91.5646 23.0415 91.6551 22.4962 91.6551 21.9006C91.6551 21.3089 91.5646 20.7656 91.3835 20.2706C91.2064 19.7715 90.9327 19.3711 90.5625 19.0692C90.1922 18.7674 89.7253 18.6165 89.1619 18.6165C88.5944 18.6165 88.1235 18.7674 87.7493 19.0692C87.379 19.3711 87.1033 19.7715 86.9222 20.2706C86.7451 20.7656 86.6566 21.3089 86.6566 21.9006C86.6566 22.4962 86.7451 23.0415 86.9222 23.5366C87.1033 24.0316 87.379 24.428 87.7493 24.7258C88.1235 25.0237 88.5944 25.1726 89.1619 25.1726ZM95.4931 26.5007V17.228H97.2378V18.701H97.3344C97.5034 18.2019 97.8012 17.8095 98.2279 17.5238C98.6585 17.234 99.1455 17.0891 99.6888 17.0891C99.8015 17.0891 99.9343 17.0931 100.087 17.1012C100.244 17.1092 100.367 17.1193 100.455 17.1314V18.8579C100.383 18.8378 100.254 18.8157 100.069 18.7915C99.884 18.7634 99.6989 18.7493 99.5137 18.7493C99.0871 18.7493 98.7068 18.8398 98.3727 19.0209C98.0427 19.198 97.7811 19.4455 97.5879 19.7635C97.3948 20.0774 97.2982 20.4356 97.2982 20.8381V26.5007H95.4931ZM106.894 17.228V18.6768H101.829V17.228H106.894ZM103.187 15.0064H104.992V23.778C104.992 24.1282 105.045 24.3918 105.149 24.5689C105.254 24.7419 105.389 24.8607 105.554 24.9251C105.723 24.9854 105.906 25.0156 106.103 25.0156C106.248 25.0156 106.375 25.0056 106.483 24.9854C106.592 24.9653 106.677 24.9492 106.737 24.9371L107.063 26.4283C106.958 26.4685 106.809 26.5087 106.616 26.549C106.423 26.5933 106.182 26.6174 105.892 26.6214C105.417 26.6295 104.974 26.545 104.564 26.3679C104.153 26.1908 103.821 25.9171 103.568 25.5469C103.314 25.1766 103.187 24.7118 103.187 24.1523V15.0064ZM115.69 19.4918L114.054 19.7816C113.985 19.5723 113.877 19.3731 113.728 19.1839C113.583 18.9948 113.386 18.8398 113.136 18.7191C112.887 18.5984 112.575 18.538 112.2 18.538C111.689 18.538 111.263 18.6527 110.92 18.8821C110.578 19.1075 110.407 19.3993 110.407 19.7574C110.407 20.0673 110.522 20.3169 110.751 20.506C110.981 20.6952 111.351 20.8501 111.862 20.9709L113.335 21.3089C114.188 21.5061 114.824 21.81 115.243 22.2205C115.662 22.631 115.871 23.1643 115.871 23.8203C115.871 24.3757 115.71 24.8707 115.388 25.3054C115.07 25.736 114.625 26.0741 114.054 26.3196C113.486 26.5651 112.828 26.6878 112.08 26.6878C111.041 26.6878 110.194 26.4665 109.538 26.0238C108.882 25.577 108.48 24.9432 108.331 24.1221L110.075 23.8565C110.184 24.3113 110.407 24.6554 110.745 24.8888C111.083 25.1182 111.524 25.2329 112.068 25.2329C112.659 25.2329 113.132 25.1102 113.486 24.8647C113.84 24.6152 114.017 24.3113 114.017 23.9531C114.017 23.6633 113.909 23.4199 113.691 23.2226C113.478 23.0254 113.15 22.8765 112.707 22.7759L111.138 22.4318C110.273 22.2346 109.633 21.9207 109.218 21.49C108.808 21.0594 108.602 20.5141 108.602 19.854C108.602 19.3067 108.755 18.8278 109.061 18.4172C109.367 18.0067 109.79 17.6868 110.329 17.4574C110.868 17.2239 111.486 17.1072 112.182 17.1072C113.184 17.1072 113.973 17.3246 114.549 17.7592C115.124 18.1899 115.505 18.7674 115.69 19.4918Z" fill="#E8E8E8"/>
<path d="M126.507 26.0007H121.937V13.6371H126.501C127.761 13.6371 128.845 13.8846 129.755 14.3796C130.669 14.8706 131.373 15.5789 131.868 16.5046C132.363 17.4262 132.61 18.529 132.61 19.8128C132.61 21.1007 132.363 22.2075 131.868 23.1332C131.377 24.0588 130.675 24.7692 129.761 25.2642C128.847 25.7552 127.763 26.0007 126.507 26.0007ZM124.925 23.4531H126.392C127.085 23.4531 127.67 23.3364 128.149 23.103C128.632 22.8655 128.996 22.4812 129.242 21.9499C129.491 21.4146 129.616 20.7023 129.616 19.8128C129.616 18.9234 129.491 18.2151 129.242 17.6878C128.992 17.1566 128.624 16.7743 128.137 16.5408C127.654 16.3034 127.058 16.1846 126.35 16.1846H124.925V23.4531ZM138.69 26.1758C137.72 26.1758 136.883 25.9846 136.178 25.6023C135.478 25.2159 134.939 24.6665 134.56 23.9542C134.186 23.2378 133.999 22.3866 133.999 21.4006C133.999 20.4427 134.188 19.6056 134.566 18.8892C134.945 18.1688 135.478 17.6094 136.166 17.2109C136.854 16.8085 137.665 16.6072 138.599 16.6072C139.259 16.6072 139.863 16.7099 140.41 16.9151C140.957 17.1204 141.43 17.4242 141.829 17.8267C142.227 18.2292 142.537 18.7262 142.758 19.3178C142.98 19.9054 143.091 20.5795 143.091 21.3402V22.0767H135.031V20.3622H140.344C140.34 20.0483 140.265 19.7686 140.12 19.5231C139.975 19.2776 139.776 19.0864 139.523 18.9496C139.273 18.8087 138.985 18.7383 138.659 18.7383C138.329 18.7383 138.034 18.8127 137.772 18.9616C137.51 19.1065 137.303 19.3057 137.15 19.5593C136.997 19.8088 136.917 20.0926 136.909 20.4105V22.1552C136.909 22.5335 136.983 22.8655 137.132 23.1513C137.281 23.433 137.492 23.6523 137.766 23.8093C138.04 23.9663 138.366 24.0447 138.744 24.0447C139.006 24.0447 139.243 24.0085 139.456 23.9361C139.67 23.8636 139.853 23.757 140.006 23.6161C140.159 23.4752 140.273 23.3022 140.35 23.0969L143.06 23.1754C142.948 23.7831 142.7 24.3124 142.318 24.7631C141.939 25.2099 141.442 25.558 140.827 25.8075C140.211 26.053 139.499 26.1758 138.69 26.1758ZM147.55 20.7123V26.0007H144.598V16.728H147.405V18.4304H147.508C147.713 17.8629 148.063 17.4182 148.558 17.0962C149.053 16.7702 149.643 16.6072 150.327 16.6072C150.979 16.6072 151.545 16.7541 152.024 17.0479C152.507 17.3377 152.881 17.7442 153.147 18.2674C153.416 18.7866 153.549 19.3943 153.545 20.0905V26.0007H150.593V20.6701C150.597 20.1549 150.466 19.7525 150.2 19.4627C149.939 19.1729 149.575 19.028 149.108 19.028C148.798 19.028 148.524 19.0965 148.287 19.2333C148.053 19.3661 147.872 19.5573 147.743 19.8068C147.619 20.0563 147.554 20.3582 147.55 20.7123ZM159.701 26.1758C158.727 26.1758 157.89 25.9765 157.19 25.5781C156.493 25.1757 155.956 24.6162 155.578 23.8998C155.204 23.1794 155.016 22.3443 155.016 21.3945C155.016 20.4407 155.204 19.6056 155.578 18.8892C155.956 18.1688 156.493 17.6094 157.19 17.2109C157.89 16.8085 158.727 16.6072 159.701 16.6072C160.675 16.6072 161.51 16.8085 162.206 17.2109C162.907 17.6094 163.444 18.1688 163.818 18.8892C164.197 19.6056 164.386 20.4407 164.386 21.3945C164.386 22.3443 164.197 23.1794 163.818 23.8998C163.444 24.6162 162.907 25.1757 162.206 25.5781C161.51 25.9765 160.675 26.1758 159.701 26.1758ZM159.719 23.9481C160.073 23.9481 160.373 23.8395 160.619 23.6221C160.864 23.4048 161.051 23.103 161.18 22.7166C161.313 22.3302 161.379 21.8835 161.379 21.3764C161.379 20.8613 161.313 20.4105 161.18 20.0241C161.051 19.6378 160.864 19.3359 160.619 19.1186C160.373 18.9013 160.073 18.7926 159.719 18.7926C159.353 18.7926 159.043 18.9013 158.79 19.1186C158.54 19.3359 158.349 19.6378 158.216 20.0241C158.087 20.4105 158.023 20.8613 158.023 21.3764C158.023 21.8835 158.087 22.3302 158.216 22.7166C158.349 23.103 158.54 23.4048 158.79 23.6221C159.043 23.8395 159.353 23.9481 159.719 23.9481Z" fill="#EFEFEF"/>
</g>
<defs>
<filter id="filter0_d_1_56" x="2.39972" y="0.39972" width="39.202" height="39.202" filterUnits="userSpaceOnUse" color-interpolation-filters="sRGB">
<feFlood flood-opacity="0" result="BackgroundImageFix"/>
<feColorMatrix in="SourceAlpha" type="matrix" values="0 0 0 0 0 0 0 0 0 0 0 0 0 0 0 0 0 0 127 0" result="hardAlpha"/>
<feOffset/>
<feGaussianBlur stdDeviation="2.80014"/>
<feComposite in2="hardAlpha" operator="out"/>
<feColorMatrix type="matrix" values="0 0 0 0 0 0 0 0 0 0 0 0 0 0 0 0 0 0 0.25 0"/>
<feBlend mode="normal" in2="BackgroundImageFix" result="effect1_dropShadow_1_56"/>
<feBlend mode="normal" in="SourceGraphic" in2="effect1_dropShadow_1_56" result="shape"/>
</filter>
<filter id="filter1_d_1_56" x="36.2871" y="3.78642" width="134.429" height="32.4286" filterUnits="userSpaceOnUse" color-interpolation-filters="sRGB">
<feFlood flood-opacity="0" result="BackgroundImageFix"/>
<feColorMatrix in="SourceAlpha" type="matrix" values="0 0 0 0 0 0 0 0 0 0 0 0 0 0 0 0 0 0 127 0" result="hardAlpha"/>
<feOffset/>
<feGaussianBlur stdDeviation="2.85714"/>
<feComposite in2="hardAlpha" operator="out"/>
<feColorMatrix type="matrix" values="0 0 0 0 0 0 0 0 0 0 0 0 0 0 0 0 0 0 0.25 0"/>
<feBlend mode="normal" in2="BackgroundImageFix" result="effect1_dropShadow_1_56"/>
<feBlend mode="normal" in="SourceGraphic" in2="effect1_dropShadow_1_56" result="shape"/>
</filter>
<linearGradient id="paint0_linear_1_56" x1="86.5007" y1="0" x2="86.5007" y2="40.0014" gradientUnits="userSpaceOnUse">
<stop stop-color="#282828"/>
<stop offset="1" stop-color="#1A1A1A"/>
</linearGradient>
</defs>
</svg>
