<svg width="143" height="56" viewBox="0 0 143 56" fill="none" xmlns="http://www.w3.org/2000/svg">
<rect width="143" height="56" rx="8" fill="url(#paint0_linear_1_50)"/>
<rect x="1.05" y="1.05" width="140.9" height="53.9" rx="6.95" stroke="white" stroke-opacity="0.15" stroke-width="2.1"/>
<g filter="url(#filter0_d_1_50)">
<path d="M32 8C37.3043 8 42.3914 10.1071 46.1421 13.8579C49.8929 17.6086 52 22.6957 52 28C52 33.3043 49.8929 38.3914 46.1421 42.1421C42.3914 45.8929 37.3043 48 32 48C26.6957 48 21.6086 45.8929 17.8579 42.1421C14.1071 38.3914 12 33.3043 12 28C12 22.6957 14.1071 17.6086 17.8579 13.8579C21.6086 10.1071 26.6957 8 32 8Z" fill="black"/>
<path d="M31.2188 19.3203C25.4063 19.3203 20.875 22.9844 20.875 27.5391C20.875 31.8359 25.0391 34.5781 31.4922 34.4453L31.6875 34.4375L32.3984 34.4141L32.2188 34.8828L32.2422 34.9297C32.2937 35.0503 32.3406 35.1728 32.3828 35.2969L32.3984 35.3437L32.4219 35.4219L32.4531 35.5312L32.4766 35.6016L32.5078 35.6797L32.5313 35.7656L32.5625 35.8906L32.6016 36.0234L32.625 36.1094L32.6641 36.25L32.7031 36.3984L32.7344 36.5469L32.7734 36.7031L32.8047 36.8125L32.8438 36.9844L32.8828 37.1562L32.9375 37.3906L32.9609 37.5156L33 37.7031L33.0391 37.8984L33.0859 38.1016L33.1406 38.3906L33.1875 38.625L33.25 38.9531L33.2813 39.1172L33.3359 39.375L33.3828 39.6406L33.4453 40L33.5156 40.375L33.5781 40.7656L33.6484 41.1641L33.7188 41.5703L33.7891 41.9922L33.8594 42.4297L33.9141 42.7656L34 43.3359L34.0391 43.5703L34.1328 44.1719L34.2031 44.6641L34.2656 45.0391L34.3359 45.5547L34.375 45.8125C38.6641 45.2422 42.4766 43.1641 45.2578 40.125L45.3438 40.0312L44.9453 38.5469L43.8906 34.6016L43.2344 32.1484L42.6563 29.9922L42.2969 28.6797L42.0703 27.8516L41.9375 27.3516L41.8125 26.9141L41.7656 26.7266L41.7344 26.625L41.7188 26.5703L41.7031 26.5234C41.0938 24.5625 39.9141 22.8281 38.3047 21.5703C36.4141 20.0937 34.0156 19.3203 31.2188 19.3203ZM26.1094 40.1719C25.6016 40.0312 25.0703 40.3281 24.9219 40.8359L24.9141 40.8594L24.0391 44.1094C24.5862 44.3801 25.1468 44.6226 25.7188 44.8359L25.8516 44.8906L26.7969 41.3672L26.8047 41.3437C26.9297 40.8281 26.625 40.3047 26.1094 40.1719ZM31.5547 37.7891C31.0391 37.6484 30.5078 37.9453 30.3594 38.4531L30.3516 38.4766L29.0234 43.3984V43.4219C28.972 43.6661 29.016 43.9207 29.1464 44.1335C29.2768 44.3463 29.4837 44.5011 29.7247 44.5661C29.9657 44.6311 30.2224 44.6014 30.4421 44.483C30.6619 44.3647 30.8279 44.1667 30.9063 43.9297L30.9141 43.9062L32.2422 38.9844V38.9609L32.2656 38.8516L32.2734 38.8125L32.2422 38.6484L32.1953 38.4219L32.1641 38.2812C32.102 38.1616 32.0158 38.0561 31.9109 37.9714C31.806 37.8867 31.6847 37.8246 31.5547 37.7891ZM22.2969 32.7187L22.2344 32.8672L22.2266 32.8984L20.8984 37.8203L20.8906 37.8437C20.8314 38.0904 20.8705 38.3504 20.9996 38.5687C21.1287 38.787 21.3377 38.9465 21.5823 39.0135C21.8269 39.0805 22.088 39.0497 22.3103 38.9276C22.5326 38.8055 22.6987 38.6017 22.7734 38.3594L22.7813 38.3359L23.9844 33.8672C23.3594 33.5391 22.7891 33.1484 22.2969 32.7187ZM19.1328 27.0547C18.6172 26.9219 18.0859 27.2187 17.9375 27.7187L17.9297 27.7422L16.6016 32.6641V32.6875C16.5424 32.9341 16.5815 33.1941 16.7105 33.4124C16.8396 33.6308 17.0486 33.7903 17.2932 33.8573C17.5378 33.9243 17.7989 33.8935 18.0212 33.7714C18.2436 33.6493 18.4096 33.4455 18.4844 33.2031L18.4922 33.1797L19.8203 28.2578V28.2344C19.9453 27.7187 19.6406 27.1953 19.1328 27.0547ZM48.9063 25.9375C48.3984 25.8047 47.8672 26.1016 47.7188 26.6016L47.7109 26.625L46.3828 31.5469L46.375 31.5703C46.3066 31.821 46.3406 32.0886 46.4696 32.3143C46.5985 32.5399 46.8118 32.7051 47.0625 32.7734C47.3132 32.8418 47.5808 32.8078 47.8065 32.6789C48.0321 32.5499 48.1973 32.3366 48.2656 32.0859V32.0625L49.6016 27.1406V27.1094C49.7266 26.6016 49.4219 26.0781 48.9063 25.9375ZM16.2344 19.3672C15.1215 21.3937 14.413 23.6172 14.1484 25.9141C14.2766 26.0592 14.4453 26.1626 14.6328 26.2109C15.1406 26.3437 15.6719 26.0469 15.8203 25.5469L15.8281 25.5234L17.1563 20.6016L17.1641 20.5781C17.2891 20.0625 16.9844 19.5391 16.4688 19.3984C16.3922 19.3787 16.3135 19.3682 16.2344 19.3672ZM45.5469 19.3984C45.0313 19.2656 44.5078 19.5625 44.3516 20.0625V20.0859L43.0234 25.0078L43.0156 25.0312C42.9564 25.2779 42.9955 25.5379 43.1246 25.7562C43.2537 25.9745 43.4627 26.134 43.7073 26.201C43.9519 26.268 44.213 26.2372 44.4353 26.1151C44.6576 25.993 44.8237 25.7892 44.8984 25.5469L44.9063 25.5234L46.2344 20.6016L46.2422 20.5781C46.3672 20.0625 46.0547 19.5391 45.5469 19.3984Z" fill="white"/>
<path d="M32.4687 22.6094C32.8003 22.6094 33.1182 22.7411 33.3526 22.9755C33.5871 23.2099 33.7187 23.5279 33.7187 23.8594C33.7187 24.1909 33.5871 24.5088 33.3526 24.7433C33.1182 24.9777 32.8003 25.1094 32.4687 25.1094C32.1372 25.1094 31.8193 24.9777 31.5849 24.7433C31.3504 24.5088 31.2188 24.1909 31.2188 23.8594C31.2188 23.5279 31.3504 23.2099 31.5849 22.9755C31.8193 22.7411 32.1372 22.6094 32.4687 22.6094Z" fill="black"/>
<path d="M22.0156 14.7188C21.5078 14.5859 20.9766 14.8828 20.8281 15.3828L20.8203 15.4063L19.4922 20.3281L19.4844 20.3516C19.4252 20.5982 19.4643 20.8582 19.5934 21.0765C19.7224 21.2948 19.9314 21.4544 20.176 21.5214C20.4207 21.5883 20.6817 21.5575 20.9041 21.4354C21.1264 21.3134 21.2925 21.1096 21.3672 20.8672L21.375 20.8438L22.7031 15.9219L22.7109 15.8906C22.8359 15.3828 22.5312 14.8594 22.0156 14.7188ZM39.0859 15.6484C38.5703 15.5156 38.0391 15.8125 37.8906 16.3125L37.8828 16.3359L36.9922 19.6484C37.5701 19.9326 38.1217 20.2672 38.6406 20.6484L38.7266 20.7188L39.7734 16.8516V16.8281C39.8984 16.3125 39.5938 15.7891 39.0859 15.6484ZM30.3984 10.1016C29.7744 10.1576 29.1538 10.2463 28.5391 10.3672L28.4063 10.3906L27.1719 14.9766L27.1641 15C27.1126 15.2442 27.1566 15.4989 27.287 15.7117C27.4174 15.9245 27.6244 16.0793 27.8653 16.1442C28.1063 16.2092 28.363 16.1795 28.5827 16.0611C28.8025 15.9428 28.9686 15.7448 29.0469 15.5078L29.0547 15.4844L30.3828 10.5625L30.3906 10.5391C30.4266 10.3957 30.4292 10.2461 30.3984 10.1016ZM42.6172 13.5L42.3594 14.4688L42.3516 14.4922C42.3001 14.7364 42.3441 14.9911 42.4745 15.2039C42.6049 15.4167 42.8119 15.5714 43.0528 15.6364C43.2938 15.7014 43.5505 15.6717 43.7702 15.5533C43.99 15.435 44.1561 15.237 44.2344 15L44.2422 14.9766L44.2734 14.875C43.7847 14.4171 43.2709 13.9868 42.7344 13.5859L42.6172 13.5ZM34.8906 10.2656L34.4219 12.0078L34.4141 12.0313C34.3626 12.2755 34.4066 12.5301 34.537 12.7429C34.6674 12.9557 34.8744 13.1105 35.1153 13.1755C35.3563 13.2405 35.613 13.2108 35.8327 13.0924C36.0525 12.974 36.2186 12.776 36.2969 12.5391L36.3047 12.5156L36.7969 10.6797C36.2153 10.5197 35.626 10.3894 35.0313 10.2891L34.8906 10.2656Z" fill="white"/>
</g>
<g filter="url(#filter1_d_1_50)">
<path d="M67.625 15.9204C67.5644 15.3826 67.3144 14.9659 66.875 14.6704C66.4356 14.3712 65.8826 14.2216 65.2159 14.2216C64.7386 14.2216 64.3257 14.2973 63.9773 14.4489C63.6288 14.5966 63.3579 14.8011 63.1648 15.0625C62.9754 15.3201 62.8807 15.6136 62.8807 15.9432C62.8807 16.2197 62.9451 16.4583 63.0738 16.6591C63.2064 16.8598 63.3788 17.0284 63.5909 17.1648C63.8068 17.2973 64.0379 17.4091 64.2841 17.5C64.5303 17.5871 64.767 17.6591 64.9943 17.7159L66.1307 18.0114C66.5019 18.1023 66.8826 18.2254 67.2727 18.3807C67.6629 18.536 68.0246 18.7405 68.3579 18.9943C68.6913 19.2481 68.9602 19.5625 69.1648 19.9375C69.3731 20.3125 69.4773 20.7614 69.4773 21.2841C69.4773 21.9432 69.3068 22.5284 68.9659 23.0398C68.6288 23.5511 68.1382 23.9545 67.4943 24.25C66.8541 24.5454 66.0795 24.6932 65.1704 24.6932C64.2992 24.6932 63.5454 24.5549 62.9091 24.2784C62.2727 24.0019 61.7746 23.6098 61.4148 23.1023C61.0549 22.5909 60.856 21.9848 60.8182 21.2841H62.5795C62.6136 21.7045 62.75 22.0549 62.9886 22.3352C63.231 22.6117 63.5398 22.8182 63.9148 22.9545C64.2935 23.0871 64.7083 23.1534 65.1591 23.1534C65.6553 23.1534 66.0966 23.0758 66.4829 22.9204C66.8731 22.7614 67.1799 22.5417 67.4034 22.2614C67.6269 21.9773 67.7386 21.6458 67.7386 21.267C67.7386 20.9223 67.6401 20.6401 67.4432 20.4204C67.25 20.2008 66.9867 20.0189 66.6534 19.875C66.3238 19.7311 65.9507 19.6042 65.5341 19.4943L64.1591 19.1193C63.2273 18.8655 62.4886 18.4924 61.9432 18C61.4015 17.5076 61.1307 16.8561 61.1307 16.0454C61.1307 15.375 61.3125 14.7898 61.6761 14.2898C62.0398 13.7898 62.5322 13.4015 63.1534 13.125C63.7746 12.8447 64.4754 12.7045 65.2557 12.7045C66.0435 12.7045 66.7386 12.8428 67.3409 13.1193C67.947 13.3958 68.4242 13.7765 68.7727 14.2614C69.1212 14.7424 69.303 15.2954 69.3182 15.9204H67.625ZM76.9673 20.8807V15.7727H78.6719V24.5H77.0014V22.9886H76.9105C76.7097 23.4545 76.3878 23.8428 75.9446 24.1534C75.5052 24.4602 74.9578 24.6136 74.3025 24.6136C73.7419 24.6136 73.2457 24.4905 72.8139 24.2443C72.3859 23.9943 72.0488 23.625 71.8025 23.1364C71.5601 22.6477 71.4389 22.0436 71.4389 21.3239V15.7727H73.1378V21.1193C73.1378 21.714 73.3025 22.1875 73.6321 22.5398C73.9616 22.892 74.3897 23.0682 74.9162 23.0682C75.2344 23.0682 75.5506 22.9886 75.865 22.8295C76.1832 22.6704 76.4465 22.4299 76.6548 22.1079C76.8669 21.786 76.9711 21.3769 76.9673 20.8807ZM80.9545 27.7727V15.7727H82.6136V17.1875H82.7557C82.8541 17.0057 82.9962 16.7954 83.1818 16.5568C83.3674 16.3182 83.625 16.1098 83.9545 15.9318C84.2841 15.75 84.7197 15.6591 85.2613 15.6591C85.9659 15.6591 86.5947 15.8371 87.1477 16.1932C87.7007 16.5492 88.1344 17.0625 88.4488 17.7329C88.767 18.4034 88.9261 19.2102 88.9261 20.1534C88.9261 21.0966 88.7689 21.9053 88.4545 22.5795C88.1401 23.25 87.7083 23.767 87.1591 24.1307C86.6098 24.4905 85.9829 24.6704 85.2784 24.6704C84.7481 24.6704 84.3144 24.5814 83.9773 24.4034C83.6439 24.2254 83.3826 24.017 83.1932 23.7784C83.0038 23.5398 82.8579 23.3276 82.7557 23.142H82.6534V27.7727H80.9545ZM82.6193 20.1364C82.6193 20.75 82.7083 21.2879 82.8863 21.75C83.0644 22.2121 83.3219 22.5739 83.6591 22.8352C83.9962 23.0928 84.4091 23.2216 84.8977 23.2216C85.4053 23.2216 85.8295 23.0871 86.1704 22.8182C86.5113 22.5454 86.7689 22.1761 86.9432 21.7102C87.1212 21.2443 87.2102 20.7197 87.2102 20.1364C87.2102 19.5606 87.1231 19.0436 86.9488 18.5852C86.7784 18.1269 86.5208 17.7651 86.1761 17.5C85.8352 17.2348 85.4091 17.1023 84.8977 17.1023C84.4053 17.1023 83.9886 17.2292 83.6477 17.4829C83.3106 17.7367 83.0549 18.0909 82.8807 18.5454C82.7064 19 82.6193 19.5303 82.6193 20.1364ZM90.8295 27.7727V15.7727H92.4886V17.1875H92.6307C92.7291 17.0057 92.8712 16.7954 93.0568 16.5568C93.2424 16.3182 93.5 16.1098 93.8295 15.9318C94.1591 15.75 94.5947 15.6591 95.1363 15.6591C95.8409 15.6591 96.4697 15.8371 97.0227 16.1932C97.5757 16.5492 98.0094 17.0625 98.3238 17.7329C98.642 18.4034 98.8011 19.2102 98.8011 20.1534C98.8011 21.0966 98.6439 21.9053 98.3295 22.5795C98.0151 23.25 97.5833 23.767 97.0341 24.1307C96.4848 24.4905 95.8579 24.6704 95.1534 24.6704C94.6231 24.6704 94.1894 24.5814 93.8522 24.4034C93.5189 24.2254 93.2576 24.017 93.0682 23.7784C92.8788 23.5398 92.7329 23.3276 92.6307 23.142H92.5284V27.7727H90.8295ZM92.4943 20.1364C92.4943 20.75 92.5833 21.2879 92.7613 21.75C92.9394 22.2121 93.1969 22.5739 93.5341 22.8352C93.8712 23.0928 94.2841 23.2216 94.7727 23.2216C95.2803 23.2216 95.7045 23.0871 96.0454 22.8182C96.3863 22.5454 96.6439 22.1761 96.8182 21.7102C96.9962 21.2443 97.0852 20.7197 97.0852 20.1364C97.0852 19.5606 96.9981 19.0436 96.8238 18.5852C96.6534 18.1269 96.3958 17.7651 96.0511 17.5C95.7102 17.2348 95.2841 17.1023 94.7727 17.1023C94.2803 17.1023 93.8636 17.2292 93.5227 17.4829C93.1856 17.7367 92.9299 18.0909 92.7557 18.5454C92.5814 19 92.4943 19.5303 92.4943 20.1364ZM104.381 24.6761C103.562 24.6761 102.848 24.4886 102.239 24.1136C101.629 23.7386 101.155 23.214 100.818 22.5398C100.481 21.8655 100.312 21.0776 100.312 20.1761C100.312 19.2708 100.481 18.4792 100.818 17.8011C101.155 17.1231 101.629 16.5966 102.239 16.2216C102.848 15.8466 103.562 15.6591 104.381 15.6591C105.199 15.6591 105.913 15.8466 106.523 16.2216C107.133 16.5966 107.606 17.1231 107.943 17.8011C108.28 18.4792 108.449 19.2708 108.449 20.1761C108.449 21.0776 108.28 21.8655 107.943 22.5398C107.606 23.214 107.133 23.7386 106.523 24.1136C105.913 24.4886 105.199 24.6761 104.381 24.6761ZM104.386 23.25C104.917 23.25 105.356 23.1098 105.705 22.8295C106.053 22.5492 106.311 22.1761 106.477 21.7102C106.648 21.2443 106.733 20.7311 106.733 20.1704C106.733 19.6136 106.648 19.1023 106.477 18.6364C106.311 18.1667 106.053 17.7898 105.705 17.5057C105.356 17.2216 104.917 17.0795 104.386 17.0795C103.852 17.0795 103.409 17.2216 103.057 17.5057C102.708 17.7898 102.449 18.1667 102.278 18.6364C102.112 19.1023 102.028 19.6136 102.028 20.1704C102.028 20.7311 102.112 21.2443 102.278 21.7102C102.449 22.1761 102.708 22.5492 103.057 22.8295C103.409 23.1098 103.852 23.25 104.386 23.25ZM110.345 24.5V15.7727H111.987V17.1591H112.078C112.237 16.6894 112.517 16.3201 112.919 16.0511C113.324 15.7784 113.783 15.642 114.294 15.642C114.4 15.642 114.525 15.6458 114.669 15.6534C114.817 15.661 114.932 15.6704 115.016 15.6818V17.3068C114.947 17.2879 114.826 17.267 114.652 17.2443C114.478 17.2178 114.303 17.2045 114.129 17.2045C113.728 17.2045 113.37 17.2898 113.055 17.4602C112.745 17.6269 112.499 17.8598 112.317 18.1591C112.135 18.4545 112.044 18.7917 112.044 19.1704V24.5H110.345ZM121.075 15.7727V17.1364H116.308V15.7727H121.075ZM117.587 13.6818H119.285V21.9375C119.285 22.267 119.335 22.5151 119.433 22.6818C119.532 22.8447 119.659 22.9564 119.814 23.017C119.973 23.0739 120.145 23.1023 120.331 23.1023C120.467 23.1023 120.587 23.0928 120.689 23.0739C120.791 23.0549 120.871 23.0398 120.928 23.0284L121.234 24.4318C121.136 24.4697 120.996 24.5076 120.814 24.5454C120.632 24.5871 120.405 24.6098 120.132 24.6136C119.685 24.6212 119.268 24.5417 118.882 24.375C118.496 24.2083 118.183 23.9508 117.945 23.6023C117.706 23.2538 117.587 22.8163 117.587 22.2898V13.6818ZM129.354 17.9034L127.814 18.1761C127.749 17.9792 127.647 17.7917 127.507 17.6136C127.371 17.4356 127.185 17.2898 126.95 17.1761C126.715 17.0625 126.422 17.0057 126.07 17.0057C125.589 17.0057 125.187 17.1136 124.865 17.3295C124.543 17.5417 124.382 17.8163 124.382 18.1534C124.382 18.4451 124.49 18.6799 124.706 18.8579C124.922 19.036 125.27 19.1818 125.751 19.2954L127.138 19.6136C127.941 19.7992 128.539 20.0852 128.933 20.4716C129.327 20.8579 129.524 21.3598 129.524 21.9773C129.524 22.5 129.373 22.9659 129.07 23.375C128.77 23.7803 128.352 24.0985 127.814 24.3295C127.28 24.5606 126.66 24.6761 125.956 24.6761C124.979 24.6761 124.181 24.4678 123.564 24.0511C122.946 23.6307 122.568 23.0341 122.428 22.2614L124.07 22.0114C124.172 22.4394 124.382 22.7633 124.7 22.9829C125.018 23.1989 125.433 23.3068 125.945 23.3068C126.501 23.3068 126.946 23.1913 127.28 22.9602C127.613 22.7254 127.78 22.4394 127.78 22.1023C127.78 21.8295 127.678 21.6004 127.473 21.4148C127.272 21.2292 126.964 21.089 126.547 20.9943L125.07 20.6704C124.255 20.4848 123.653 20.1894 123.263 19.7841C122.876 19.3788 122.683 18.8655 122.683 18.2443C122.683 17.7292 122.827 17.2784 123.115 16.892C123.403 16.5057 123.801 16.2045 124.308 15.9886C124.816 15.7689 125.397 15.6591 126.053 15.6591C126.996 15.6591 127.738 15.8636 128.28 16.2727C128.821 16.678 129.179 17.2216 129.354 17.9034Z" fill="#E8E8E8"/>
<path d="M65.5057 43.5H60.9357V31.1364H65.4996C66.7593 31.1364 67.844 31.3839 68.7535 31.8789C69.6671 32.3699 70.3714 33.0782 70.8665 34.0039C71.3615 34.9255 71.609 36.0283 71.609 37.3121C71.609 38.6 71.3615 39.7068 70.8665 40.6324C70.3755 41.5581 69.6732 42.2685 68.7596 42.7635C67.846 43.2545 66.7613 43.5 65.5057 43.5ZM63.924 40.9524H65.391C66.0832 40.9524 66.6688 40.8357 67.1477 40.6023C67.6307 40.3648 67.9949 39.9805 68.2404 39.4492C68.4899 38.9139 68.6147 38.2016 68.6147 37.3121C68.6147 36.4227 68.4899 35.7144 68.2404 35.1871C67.9909 34.6559 67.6226 34.2735 67.1356 34.0401C66.6527 33.8027 66.057 33.6839 65.3487 33.6839H63.924V40.9524ZM77.6882 43.6751C76.7183 43.6751 75.8811 43.4839 75.1768 43.1016C74.4765 42.7152 73.9372 42.1658 73.5589 41.4535C73.1846 40.7371 72.9975 39.8859 72.9975 38.8998C72.9975 37.942 73.1867 37.1049 73.565 36.3885C73.9433 35.6681 74.4765 35.1087 75.1648 34.7102C75.853 34.3078 76.6639 34.1065 77.5976 34.1065C78.2577 34.1065 78.8614 34.2092 79.4087 34.4144C79.9561 34.6197 80.429 34.9235 80.8274 35.326C81.2258 35.7284 81.5357 36.2255 81.7571 36.8171C81.9784 37.4047 82.0891 38.0788 82.0891 38.8395V39.576H74.0298V37.8615H79.3423C79.3383 37.5476 79.2638 37.2679 79.1189 37.0224C78.9741 36.7769 78.7748 36.5857 78.5213 36.4489C78.2718 36.308 77.984 36.2376 77.658 36.2376C77.328 36.2376 77.0322 36.312 76.7706 36.4609C76.509 36.6058 76.3017 36.805 76.1488 37.0586C75.9958 37.3081 75.9153 37.5918 75.9073 37.9098V39.6545C75.9073 40.0328 75.9818 40.3648 76.1307 40.6506C76.2796 40.9323 76.4909 41.1516 76.7645 41.3086C77.0382 41.4655 77.3642 41.544 77.7425 41.544C78.0041 41.544 78.2416 41.5078 78.4549 41.4354C78.6682 41.3629 78.8513 41.2563 79.0042 41.1154C79.1572 40.9745 79.2719 40.8015 79.3483 40.5962L82.0589 40.6747C81.9462 41.2824 81.6987 41.8117 81.3164 42.2624C80.9381 42.7092 80.441 43.0573 79.8253 43.3068C79.2095 43.5523 78.4971 43.6751 77.6882 43.6751ZM86.5489 38.2116V43.5H83.5968V34.2273H86.404V35.9297H86.5066C86.7119 35.3622 87.062 34.9175 87.5571 34.5955C88.0521 34.2695 88.6417 34.1065 89.3259 34.1065C89.9779 34.1065 90.5433 34.2534 91.0223 34.5472C91.5052 34.837 91.8795 35.2435 92.1451 35.7667C92.4148 36.2859 92.5476 36.8936 92.5436 37.5898V43.5H89.5915V38.1694C89.5955 37.6542 89.4647 37.2518 89.1991 36.962C88.9375 36.6722 88.5733 36.5273 88.1064 36.5273C87.7965 36.5273 87.5229 36.5958 87.2854 36.7326C87.052 36.8654 86.8709 37.0566 86.7421 37.3061C86.6173 37.5556 86.5529 37.8575 86.5489 38.2116ZM98.6997 43.6751C97.7258 43.6751 96.8886 43.4758 96.1884 43.0774C95.4921 42.6749 94.9548 42.1155 94.5765 41.3991C94.2022 40.6787 94.0151 39.8436 94.0151 38.8938C94.0151 37.94 94.2022 37.1049 94.5765 36.3885C94.9548 35.6681 95.4921 35.1087 96.1884 34.7102C96.8886 34.3078 97.7258 34.1065 98.6997 34.1065C99.6737 34.1065 100.509 34.3078 101.205 34.7102C101.905 35.1087 102.443 35.6681 102.817 36.3885C103.195 37.1049 103.384 37.94 103.384 38.8938C103.384 39.8436 103.195 40.6787 102.817 41.3991C102.443 42.1155 101.905 42.6749 101.205 43.0774C100.509 43.4758 99.6737 43.6751 98.6997 43.6751ZM98.7178 41.4474C99.072 41.4474 99.3718 41.3388 99.6173 41.1214C99.8628 40.9041 100.05 40.6023 100.179 40.2159C100.312 39.8295 100.378 39.3828 100.378 38.8757C100.378 38.3605 100.312 37.9098 100.179 37.5234C100.05 37.1371 99.8628 36.8352 99.6173 36.6179C99.3718 36.4006 99.072 36.2919 98.7178 36.2919C98.3516 36.2919 98.0417 36.4006 97.7881 36.6179C97.5386 36.8352 97.3475 37.1371 97.2146 37.5234C97.0859 37.9098 97.0215 38.3605 97.0215 38.8757C97.0215 39.3828 97.0859 39.8295 97.2146 40.2159C97.3475 40.6023 97.5386 40.9041 97.7881 41.1214C98.0417 41.3388 98.3516 41.4474 98.7178 41.4474Z" fill="#EFEFEF"/>
</g>
<defs>
<filter id="filter0_d_1_50" x="6.28571" y="2.28571" width="51.4286" height="51.4286" filterUnits="userSpaceOnUse" color-interpolation-filters="sRGB">
<feFlood flood-opacity="0" result="BackgroundImageFix"/>
<feColorMatrix in="SourceAlpha" type="matrix" values="0 0 0 0 0 0 0 0 0 0 0 0 0 0 0 0 0 0 127 0" result="hardAlpha"/>
<feOffset/>
<feGaussianBlur stdDeviation="2.85714"/>
<feComposite in2="hardAlpha" operator="out"/>
<feColorMatrix type="matrix" values="0 0 0 0 0 0 0 0 0 0 0 0 0 0 0 0 0 0 0.25 0"/>
<feBlend mode="normal" in2="BackgroundImageFix" result="effect1_dropShadow_1_50"/>
<feBlend mode="normal" in="SourceGraphic" in2="effect1_dropShadow_1_50" result="shape"/>
</filter>
<filter id="filter1_d_1_50" x="54.4" y="3.9" width="82.2" height="48.2" filterUnits="userSpaceOnUse" color-interpolation-filters="sRGB">
<feFlood flood-opacity="0" result="BackgroundImageFix"/>
<feColorMatrix in="SourceAlpha" type="matrix" values="0 0 0 0 0 0 0 0 0 0 0 0 0 0 0 0 0 0 127 0" result="hardAlpha"/>
<feOffset/>
<feGaussianBlur stdDeviation="2.8"/>
<feComposite in2="hardAlpha" operator="out"/>
<feColorMatrix type="matrix" values="0 0 0 0 0 0 0 0 0 0 0 0 0 0 0 0 0 0 0.25 0"/>
<feBlend mode="normal" in2="BackgroundImageFix" result="effect1_dropShadow_1_50"/>
<feBlend mode="normal" in="SourceGraphic" in2="effect1_dropShadow_1_50" result="shape"/>
</filter>
<linearGradient id="paint0_linear_1_50" x1="71.5" y1="0" x2="71.5" y2="56" gradientUnits="userSpaceOnUse">
<stop stop-color="#282828"/>
<stop offset="1" stop-color="#1A1A1A"/>
</linearGradient>
</defs>
</svg>
