<svg width="56" height="56" viewBox="0 0 56 56" fill="none" xmlns="http://www.w3.org/2000/svg">
<rect width="56" height="56" rx="8.4" fill="url(#paint0_linear_1_62)"/>
<rect x="1.05" y="1.05" width="53.9" height="53.9" rx="7.35" stroke="white" stroke-opacity="0.15" stroke-width="2.1"/>
<g filter="url(#filter0_d_1_62)">
<path d="M28 8C33.3043 8 38.3914 10.1071 42.1421 13.8579C45.8929 17.6086 48 22.6957 48 28C48 33.3043 45.8929 38.3914 42.1421 42.1421C38.3914 45.8929 33.3043 48 28 48C22.6957 48 17.6086 45.8929 13.8579 42.1421C10.1071 38.3914 8 33.3043 8 28C8 22.6957 10.1071 17.6086 13.8579 13.8579C17.6086 10.1071 22.6957 8 28 8Z" fill="black"/>
<path d="M27.2188 19.3203C21.4063 19.3203 16.875 22.9844 16.875 27.5391C16.875 31.8359 21.0391 34.5781 27.4922 34.4453L27.6875 34.4375L28.3984 34.4141L28.2188 34.8828L28.2422 34.9297C28.2937 35.0503 28.3406 35.1728 28.3828 35.2969L28.3984 35.3437L28.4219 35.4219L28.4531 35.5312L28.4766 35.6016L28.5078 35.6797L28.5313 35.7656L28.5625 35.8906L28.6016 36.0234L28.625 36.1094L28.6641 36.25L28.7031 36.3984L28.7344 36.5469L28.7734 36.7031L28.8047 36.8125L28.8438 36.9844L28.8828 37.1562L28.9375 37.3906L28.9609 37.5156L29 37.7031L29.0391 37.8984L29.0859 38.1016L29.1406 38.3906L29.1875 38.625L29.25 38.9531L29.2813 39.1172L29.3359 39.375L29.3828 39.6406L29.4453 40L29.5156 40.375L29.5781 40.7656L29.6484 41.1641L29.7188 41.5703L29.7891 41.9922L29.8594 42.4297L29.9141 42.7656L30 43.3359L30.0391 43.5703L30.1328 44.1719L30.2031 44.6641L30.2656 45.0391L30.3359 45.5547L30.375 45.8125C34.6641 45.2422 38.4766 43.1641 41.2578 40.125L41.3438 40.0312L40.9453 38.5469L39.8906 34.6016L39.2344 32.1484L38.6563 29.9922L38.2969 28.6797L38.0703 27.8516L37.9375 27.3516L37.8125 26.9141L37.7656 26.7266L37.7344 26.625L37.7188 26.5703L37.7031 26.5234C37.0938 24.5625 35.9141 22.8281 34.3047 21.5703C32.4141 20.0937 30.0156 19.3203 27.2188 19.3203ZM22.1094 40.1719C21.6016 40.0312 21.0703 40.3281 20.9219 40.8359L20.9141 40.8594L20.0391 44.1094C20.5862 44.3801 21.1468 44.6226 21.7188 44.8359L21.8516 44.8906L22.7969 41.3672L22.8047 41.3437C22.9297 40.8281 22.625 40.3047 22.1094 40.1719ZM27.5547 37.7891C27.0391 37.6484 26.5078 37.9453 26.3594 38.4531L26.3516 38.4766L25.0234 43.3984V43.4219C24.972 43.6661 25.016 43.9207 25.1464 44.1335C25.2768 44.3463 25.4837 44.5011 25.7247 44.5661C25.9657 44.6311 26.2224 44.6014 26.4421 44.483C26.6619 44.3647 26.8279 44.1667 26.9063 43.9297L26.9141 43.9062L28.2422 38.9844V38.9609L28.2656 38.8516L28.2734 38.8125L28.2422 38.6484L28.1953 38.4219L28.1641 38.2812C28.102 38.1616 28.0158 38.0561 27.9109 37.9714C27.806 37.8867 27.6847 37.8246 27.5547 37.7891ZM18.2969 32.7187L18.2344 32.8672L18.2266 32.8984L16.8984 37.8203L16.8906 37.8437C16.8314 38.0904 16.8705 38.3504 16.9996 38.5687C17.1287 38.787 17.3377 38.9465 17.5823 39.0135C17.8269 39.0805 18.088 39.0497 18.3103 38.9276C18.5326 38.8055 18.6987 38.6017 18.7734 38.3594L18.7813 38.3359L19.9844 33.8672C19.3594 33.5391 18.7891 33.1484 18.2969 32.7187ZM15.1328 27.0547C14.6172 26.9219 14.0859 27.2187 13.9375 27.7187L13.9297 27.7422L12.6016 32.6641V32.6875C12.5424 32.9341 12.5815 33.1941 12.7105 33.4124C12.8396 33.6308 13.0486 33.7903 13.2932 33.8573C13.5378 33.9243 13.7989 33.8935 14.0212 33.7714C14.2436 33.6493 14.4096 33.4455 14.4844 33.2031L14.4922 33.1797L15.8203 28.2578V28.2344C15.9453 27.7187 15.6406 27.1953 15.1328 27.0547ZM44.9063 25.9375C44.3984 25.8047 43.8672 26.1016 43.7188 26.6016L43.7109 26.625L42.3828 31.5469L42.375 31.5703C42.3066 31.821 42.3406 32.0886 42.4696 32.3143C42.5985 32.5399 42.8118 32.7051 43.0625 32.7734C43.3132 32.8418 43.5808 32.8078 43.8065 32.6789C44.0321 32.5499 44.1973 32.3366 44.2656 32.0859V32.0625L45.6016 27.1406V27.1094C45.7266 26.6016 45.4219 26.0781 44.9063 25.9375ZM12.2344 19.3672C11.1215 21.3937 10.413 23.6172 10.1484 25.9141C10.2766 26.0592 10.4453 26.1626 10.6328 26.2109C11.1406 26.3437 11.6719 26.0469 11.8203 25.5469L11.8281 25.5234L13.1563 20.6016L13.1641 20.5781C13.2891 20.0625 12.9844 19.5391 12.4688 19.3984C12.3922 19.3787 12.3135 19.3682 12.2344 19.3672ZM41.5469 19.3984C41.0313 19.2656 40.5078 19.5625 40.3516 20.0625V20.0859L39.0234 25.0078L39.0156 25.0312C38.9564 25.2779 38.9955 25.5379 39.1246 25.7562C39.2537 25.9745 39.4627 26.134 39.7073 26.201C39.9519 26.268 40.213 26.2372 40.4353 26.1151C40.6576 25.993 40.8237 25.7892 40.8984 25.5469L40.9063 25.5234L42.2344 20.6016L42.2422 20.5781C42.3672 20.0625 42.0547 19.5391 41.5469 19.3984Z" fill="white"/>
<path d="M28.4687 22.6094C28.8003 22.6094 29.1182 22.7411 29.3526 22.9755C29.5871 23.2099 29.7187 23.5279 29.7187 23.8594C29.7187 24.1909 29.5871 24.5088 29.3526 24.7433C29.1182 24.9777 28.8003 25.1094 28.4687 25.1094C28.1372 25.1094 27.8193 24.9777 27.5849 24.7433C27.3504 24.5088 27.2188 24.1909 27.2188 23.8594C27.2188 23.5279 27.3504 23.2099 27.5849 22.9755C27.8193 22.7411 28.1372 22.6094 28.4687 22.6094Z" fill="black"/>
<path d="M18.0156 14.7188C17.5078 14.5859 16.9766 14.8828 16.8281 15.3828L16.8203 15.4063L15.4922 20.3281L15.4844 20.3516C15.4252 20.5982 15.4643 20.8582 15.5934 21.0765C15.7224 21.2948 15.9314 21.4544 16.176 21.5214C16.4207 21.5883 16.6817 21.5575 16.9041 21.4354C17.1264 21.3134 17.2925 21.1096 17.3672 20.8672L17.375 20.8438L18.7031 15.9219L18.7109 15.8906C18.8359 15.3828 18.5312 14.8594 18.0156 14.7188ZM35.0859 15.6484C34.5703 15.5156 34.0391 15.8125 33.8906 16.3125L33.8828 16.3359L32.9922 19.6484C33.5701 19.9326 34.1217 20.2672 34.6406 20.6484L34.7266 20.7188L35.7734 16.8516V16.8281C35.8984 16.3125 35.5938 15.7891 35.0859 15.6484ZM26.3984 10.1016C25.7744 10.1576 25.1538 10.2463 24.5391 10.3672L24.4063 10.3906L23.1719 14.9766L23.1641 15C23.1126 15.2442 23.1566 15.4989 23.287 15.7117C23.4174 15.9245 23.6244 16.0793 23.8653 16.1442C24.1063 16.2092 24.363 16.1795 24.5827 16.0611C24.8025 15.9428 24.9686 15.7448 25.0469 15.5078L25.0547 15.4844L26.3828 10.5625L26.3906 10.5391C26.4266 10.3957 26.4292 10.2461 26.3984 10.1016ZM38.6172 13.5L38.3594 14.4688L38.3516 14.4922C38.3001 14.7364 38.3441 14.9911 38.4745 15.2039C38.6049 15.4167 38.8119 15.5714 39.0528 15.6364C39.2938 15.7014 39.5505 15.6717 39.7702 15.5533C39.99 15.435 40.1561 15.237 40.2344 15L40.2422 14.9766L40.2734 14.875C39.7847 14.4171 39.2709 13.9868 38.7344 13.5859L38.6172 13.5ZM30.8906 10.2656L30.4219 12.0078L30.4141 12.0313C30.3626 12.2755 30.4066 12.5301 30.537 12.7429C30.6674 12.9557 30.8744 13.1105 31.1153 13.1755C31.3563 13.2405 31.613 13.2108 31.8327 13.0924C32.0525 12.974 32.2186 12.776 32.2969 12.5391L32.3047 12.5156L32.7969 10.6797C32.2153 10.5197 31.626 10.3894 31.0313 10.2891L30.8906 10.2656Z" fill="white"/>
</g>
<defs>
<filter id="filter0_d_1_62" x="2.28571" y="2.28571" width="51.4286" height="51.4286" filterUnits="userSpaceOnUse" color-interpolation-filters="sRGB">
<feFlood flood-opacity="0" result="BackgroundImageFix"/>
<feColorMatrix in="SourceAlpha" type="matrix" values="0 0 0 0 0 0 0 0 0 0 0 0 0 0 0 0 0 0 127 0" result="hardAlpha"/>
<feOffset/>
<feGaussianBlur stdDeviation="2.85714"/>
<feComposite in2="hardAlpha" operator="out"/>
<feColorMatrix type="matrix" values="0 0 0 0 0 0 0 0 0 0 0 0 0 0 0 0 0 0 0.25 0"/>
<feBlend mode="normal" in2="BackgroundImageFix" result="effect1_dropShadow_1_62"/>
<feBlend mode="normal" in="SourceGraphic" in2="effect1_dropShadow_1_62" result="shape"/>
</filter>
<linearGradient id="paint0_linear_1_62" x1="28" y1="0" x2="28" y2="56" gradientUnits="userSpaceOnUse">
<stop stop-color="#282828"/>
<stop offset="1" stop-color="#1A1A1A"/>
</linearGradient>
</defs>
</svg>
