<svg width="251" height="40" viewBox="0 0 251 40" fill="none" xmlns="http://www.w3.org/2000/svg">
<rect width="251.001" height="40.0014" rx="8" fill="url(#paint0_linear_1_56)"/>
<rect x="1.07143" y="1.07143" width="248.858" height="37.8585" rx="6.92857" stroke="white" stroke-opacity="0.15" stroke-width="2.14286"/>
<g filter="url(#filter0_d_1_56)">
<path d="M33.2687 9.0625H21.2297C21.2297 10.5038 21.8022 11.8862 22.8214 12.9053C23.8406 13.9245 25.2229 14.4971 26.6643 14.4971H28.882V16.6383C28.8839 19.637 31.3143 22.0675 34.3131 22.0695V10.1069C34.3131 9.53025 33.8456 9.0625 33.2687 9.0625Z" fill="#2684FF"/>
<path d="M27.3118 15.0611H15.2729C15.2748 18.0598 17.7052 20.4903 20.704 20.4923H22.9217V22.6404C22.9255 25.6391 25.3576 28.0679 28.3563 28.0679V16.1057C28.3563 15.5288 27.8886 15.0611 27.3118 15.0611Z" fill="url(#paint1_linear_1_56)"/>
<path d="M21.3515 21.0563H9.3125C9.3125 24.0577 11.7457 26.4908 14.7471 26.4908H16.9718V28.632C16.9737 31.628 19.3999 34.0574 22.396 34.0631V22.1007C22.396 21.5239 21.9283 21.0563 21.3515 21.0563Z" fill="url(#paint2_linear_1_56)"/>
</g>
<g filter="url(#filter1_d_1_56)">
<g filter="url(#filter2_d_1_56)">
<path d="M50.103 17.3849C50.0386 16.8134 49.7729 16.3707 49.3061 16.0568C48.8392 15.7389 48.2516 15.5799 47.5433 15.5799C47.0362 15.5799 46.5975 15.6604 46.2272 15.8214C45.857 15.9783 45.5692 16.1957 45.364 16.4734C45.1627 16.747 45.0621 17.0589 45.0621 17.4091C45.0621 17.7029 45.1305 17.9564 45.2674 18.1697C45.4082 18.383 45.5914 18.5621 45.8167 18.707C46.0461 18.8479 46.2916 18.9666 46.5532 19.0632C46.8148 19.1558 47.0664 19.2322 47.3079 19.2926L48.5152 19.6065C48.9097 19.7031 49.3141 19.8339 49.7287 19.9989C50.1432 20.1639 50.5276 20.3813 50.8817 20.6509C51.2359 20.9206 51.5216 21.2546 51.739 21.653C51.9603 22.0515 52.071 22.5284 52.071 23.0838C52.071 23.7841 51.8899 24.4059 51.5277 24.9492C51.1695 25.4925 50.6483 25.9212 49.9641 26.2351C49.2839 26.549 48.4609 26.706 47.495 26.706C46.5693 26.706 45.7684 26.5591 45.0923 26.2653C44.4162 25.9715 43.8869 25.5549 43.5046 25.0156C43.1223 24.4723 42.911 23.8283 42.8707 23.0838H44.7422C44.7784 23.5305 44.9233 23.9028 45.1768 24.2006C45.4344 24.4944 45.7624 24.7138 46.1608 24.8587C46.5633 24.9995 47.004 25.0699 47.4829 25.0699C48.0102 25.0699 48.479 24.9874 48.8895 24.8224C49.3041 24.6534 49.6301 24.42 49.8675 24.1221C50.105 23.8203 50.2237 23.4681 50.2237 23.0657C50.2237 22.6994 50.1191 22.3996 49.9098 22.1662C49.7045 21.9328 49.4248 21.7396 49.0706 21.5866C48.7205 21.4337 48.3241 21.2989 47.8814 21.1822L46.4204 20.7837C45.4304 20.5141 44.6456 20.1176 44.066 19.5944C43.4905 19.0712 43.2027 18.379 43.2027 17.5177C43.2027 16.8054 43.3959 16.1836 43.7823 15.6523C44.1687 15.1211 44.6919 14.7086 45.3519 14.4148C46.0119 14.1169 46.7565 13.968 47.5856 13.968C48.4227 13.968 49.1612 14.1149 49.8011 14.4087C50.445 14.7025 50.9522 15.107 51.3224 15.6221C51.6927 16.1333 51.8859 16.7209 51.902 17.3849H50.103ZM60.0292 22.6552V17.228H61.8403V26.5007H60.0654V24.8949H59.9688C59.7555 25.3899 59.4134 25.8024 58.9425 26.1324C58.4757 26.4584 57.8941 26.6214 57.1979 26.6214C56.6022 26.6214 56.075 26.4906 55.6162 26.229C55.1614 25.9634 54.8032 25.571 54.5416 25.0518C54.284 24.5327 54.1552 23.8907 54.1552 23.1261V17.228H55.9603V22.9087C55.9603 23.5406 56.1354 24.0437 56.4855 24.418C56.8356 24.7922 57.2904 24.9794 57.8498 24.9794C58.1879 24.9794 58.524 24.8949 58.858 24.7258C59.1961 24.5568 59.4758 24.3012 59.6971 23.9591C59.9225 23.6171 60.0332 23.1824 60.0292 22.6552ZM68.1534 30.1712C67.4169 30.1712 66.783 30.0746 66.2517 29.8814C65.7245 29.6882 65.2939 29.4326 64.9598 29.1147C64.6258 28.7967 64.3763 28.4486 64.2113 28.0703L65.7628 27.4304C65.8714 27.6075 66.0163 27.7946 66.1974 27.9918C66.3825 28.193 66.6321 28.3641 66.946 28.505C67.2639 28.6458 67.6724 28.7163 68.1715 28.7163C68.8557 28.7163 69.4211 28.5492 69.8679 28.2152C70.3146 27.8852 70.538 27.3579 70.538 26.6335V24.8104H70.4233C70.3146 25.0076 70.1576 25.2269 69.9524 25.4684C69.7512 25.7099 69.4735 25.9191 69.1193 26.0962C68.7651 26.2733 68.3043 26.3618 67.7368 26.3618C67.0043 26.3618 66.3443 26.1908 65.7567 25.8487C65.1731 25.5026 64.7103 24.9935 64.3682 24.3214C64.0302 23.6452 63.8611 22.8141 63.8611 21.8281C63.8611 20.8421 64.0281 19.9969 64.3622 19.2926C64.7003 18.5883 65.1631 18.049 65.7507 17.6747C66.3383 17.2964 67.0043 17.1072 67.7489 17.1072C68.3244 17.1072 68.7893 17.2038 69.1434 17.397C69.4976 17.5862 69.7733 17.8075 69.9705 18.0611C70.1717 18.3146 70.3267 18.538 70.4353 18.7312H70.5681V17.228H72.337V26.706C72.337 27.5028 72.1518 28.1568 71.7816 28.668C71.4113 29.1791 70.9102 29.5574 70.2784 29.8029C69.6505 30.0484 68.9422 30.1712 68.1534 30.1712ZM68.1353 24.8647C68.6544 24.8647 69.0931 24.744 69.4513 24.5025C69.8135 24.257 70.0872 23.9068 70.2723 23.452C70.4615 22.9932 70.5561 22.4439 70.5561 21.804C70.5561 21.1801 70.4635 20.6308 70.2784 20.1559C70.0932 19.681 69.8216 19.3107 69.4634 19.0451C69.1052 18.7754 68.6625 18.6406 68.1353 18.6406C67.5919 18.6406 67.1392 18.7815 66.777 19.0632C66.4147 19.3409 66.1411 19.7192 65.9559 20.1981C65.7748 20.6771 65.6843 21.2123 65.6843 21.804C65.6843 22.4117 65.7768 22.9449 65.962 23.4038C66.1471 23.8626 66.4208 24.2207 66.783 24.4783C67.1492 24.7359 67.6 24.8647 68.1353 24.8647ZM78.6456 30.1712C77.9091 30.1712 77.2752 30.0746 76.7439 29.8814C76.2167 29.6882 75.7861 29.4326 75.452 29.1147C75.118 28.7967 74.8685 28.4486 74.7034 28.0703L76.2549 27.4304C76.3636 27.6075 76.5085 27.7946 76.6896 27.9918C76.8747 28.193 77.1243 28.3641 77.4382 28.505C77.7561 28.6458 78.1646 28.7163 78.6637 28.7163C79.3479 28.7163 79.9133 28.5492 80.36 28.2152C80.8068 27.8852 81.0301 27.3579 81.0301 26.6335V24.8104H80.9154C80.8068 25.0076 80.6498 25.2269 80.4446 25.4684C80.2433 25.7099 79.9656 25.9191 79.6115 26.0962C79.2573 26.2733 78.7965 26.3618 78.229 26.3618C77.4965 26.3618 76.8365 26.1908 76.2489 25.8487C75.6653 25.5026 75.2025 24.9935 74.8604 24.3214C74.5223 23.6452 74.3533 22.8141 74.3533 21.8281C74.3533 20.8421 74.5203 19.9969 74.8544 19.2926C75.1924 18.5883 75.6553 18.049 76.2429 17.6747C76.8305 17.2964 77.4965 17.1072 78.2411 17.1072C78.8166 17.1072 79.2815 17.2038 79.6356 17.397C79.9898 17.5862 80.2655 17.8075 80.4627 18.0611C80.6639 18.3146 80.8189 18.538 80.9275 18.7312H81.0603V17.228H82.8292V26.706C82.8292 27.5028 82.644 28.1568 82.2738 28.668C81.9035 29.1791 81.4024 29.5574 80.7706 29.8029C80.1427 30.0484 79.4344 30.1712 78.6456 30.1712ZM78.6275 24.8647C79.1466 24.8647 79.5853 24.744 79.9435 24.5025C80.3057 24.257 80.5794 23.9068 80.7645 23.452C80.9537 22.9932 81.0483 22.4439 81.0483 21.804C81.0483 21.1801 80.9557 20.6308 80.7706 20.1559C80.5854 19.681 80.3138 19.3107 79.9556 19.0451C79.5974 18.7754 79.1547 18.6406 78.6275 18.6406C78.0841 18.6406 77.6314 18.7815 77.2691 19.0632C76.9069 19.3409 76.6333 19.7192 76.4481 20.1981C76.267 20.6771 76.1765 21.2123 76.1765 21.804C76.1765 22.4117 76.269 22.9449 76.4542 23.4038C76.6393 23.8626 76.913 24.2207 77.2752 24.4783C77.6414 24.7359 78.0922 24.8647 78.6275 24.8647ZM89.2464 26.6878C88.3328 26.6878 87.546 26.4926 86.886 26.1023C86.23 25.7078 85.7229 25.1545 85.3647 24.4421C85.0105 23.7257 84.8334 22.8866 84.8334 21.9247C84.8334 20.9749 85.0105 20.1378 85.3647 19.4133C85.7229 18.6889 86.2219 18.1234 86.8618 17.717C87.5058 17.3105 88.2584 17.1072 89.1196 17.1072C89.6428 17.1072 90.1499 17.1938 90.6409 17.3668C91.1319 17.5399 91.5726 17.8115 91.963 18.1818C92.3534 18.5521 92.6613 19.033 92.8867 19.6246C93.1121 20.2122 93.2247 20.9266 93.2247 21.7677V22.4077H85.8537V21.0554H91.4559C91.4559 20.5805 91.3593 20.1599 91.1662 19.7937C90.973 19.4234 90.7013 19.1316 90.3512 18.9183C90.0051 18.705 89.5986 18.5984 89.1317 18.5984C88.6246 18.5984 88.1819 18.7231 87.8036 18.9726C87.4293 19.2181 87.1395 19.5401 86.9343 19.9386C86.733 20.333 86.6324 20.7616 86.6324 21.2244V22.2809C86.6324 22.9007 86.7411 23.4279 86.9584 23.8626C87.1798 24.2972 87.4877 24.6292 87.8821 24.8587C88.2765 25.084 88.7373 25.1967 89.2645 25.1967C89.6066 25.1967 89.9185 25.1484 90.2002 25.0518C90.482 24.9512 90.7255 24.8023 90.9307 24.6051C91.136 24.4079 91.2929 24.1644 91.4016 23.8746L93.11 24.1825C92.9732 24.6856 92.7277 25.1263 92.3735 25.5046C92.0234 25.8789 91.5827 26.1707 91.0515 26.38C90.5242 26.5852 89.9225 26.6878 89.2464 26.6878ZM102.176 19.4918L100.54 19.7816C100.472 19.5723 100.363 19.3731 100.214 19.1839C100.069 18.9948 99.8719 18.8398 99.6224 18.7191C99.3729 18.5984 99.0609 18.538 98.6867 18.538C98.1755 18.538 97.7489 18.6527 97.4068 18.8821C97.0647 19.1075 96.8937 19.3993 96.8937 19.7574C96.8937 20.0673 97.0084 20.3169 97.2378 20.506C97.4672 20.6952 97.8375 20.8501 98.3486 20.9709L99.8216 21.3089C100.675 21.5061 101.311 21.81 101.729 22.2205C102.148 22.631 102.357 23.1643 102.357 23.8203C102.357 24.3757 102.196 24.8707 101.874 25.3054C101.556 25.736 101.111 26.0741 100.54 26.3196C99.9725 26.5651 99.3145 26.6878 98.5659 26.6878C97.5276 26.6878 96.6804 26.4665 96.0244 26.0238C95.3684 25.577 94.9659 24.9432 94.817 24.1221L96.5617 23.8565C96.6703 24.3113 96.8937 24.6554 97.2318 24.8888C97.5698 25.1182 98.0105 25.2329 98.5538 25.2329C99.1455 25.2329 99.6184 25.1102 99.9725 24.8647C100.327 24.6152 100.504 24.3113 100.504 23.9531C100.504 23.6633 100.395 23.4199 100.178 23.2226C99.9645 23.0254 99.6365 22.8765 99.1938 22.7759L97.6242 22.4318C96.7589 22.2346 96.119 21.9207 95.7044 21.49C95.2939 21.0594 95.0886 20.5141 95.0886 19.854C95.0886 19.3067 95.2416 18.8278 95.5475 18.4172C95.8533 18.0067 96.2759 17.6868 96.8152 17.4574C97.3545 17.2239 97.9723 17.1072 98.6685 17.1072C99.6707 17.1072 100.46 17.3246 101.035 17.7592C101.611 18.1899 101.991 18.7674 102.176 19.4918ZM108.67 17.228V18.6768H103.605V17.228H108.67ZM104.964 15.0064H106.769V23.778C106.769 24.1282 106.821 24.3918 106.926 24.5689C107.03 24.7419 107.165 24.8607 107.33 24.9251C107.499 24.9854 107.682 25.0156 107.879 25.0156C108.024 25.0156 108.151 25.0056 108.26 24.9854C108.368 24.9653 108.453 24.9492 108.513 24.9371L108.839 26.4283C108.735 26.4685 108.586 26.5087 108.393 26.549C108.199 26.5933 107.958 26.6174 107.668 26.6214C107.193 26.6295 106.75 26.545 106.34 26.3679C105.929 26.1908 105.597 25.9171 105.344 25.5469C105.09 25.1766 104.964 24.7118 104.964 24.1523V15.0064ZM119.579 17.228V18.6768H114.339V17.228H119.579ZM115.776 26.5007V16.1534C115.776 15.5739 115.902 15.0929 116.156 14.7106C116.41 14.3242 116.746 14.0364 117.164 13.8473C117.583 13.6541 118.038 13.5575 118.529 13.5575C118.891 13.5575 119.201 13.5877 119.458 13.6481C119.716 13.7044 119.907 13.7567 120.032 13.805L119.609 15.266C119.525 15.2418 119.416 15.2136 119.283 15.1815C119.15 15.1452 118.989 15.1271 118.8 15.1271C118.362 15.1271 118.048 15.2358 117.858 15.4531C117.673 15.6704 117.581 15.9844 117.581 16.3949V26.5007H115.776ZM125.073 26.6878C124.159 26.6878 123.372 26.4926 122.712 26.1023C122.056 25.7078 121.549 25.1545 121.191 24.4421C120.837 23.7257 120.66 22.8866 120.66 21.9247C120.66 20.9749 120.837 20.1378 121.191 19.4133C121.549 18.6889 122.048 18.1234 122.688 17.717C123.332 17.3105 124.085 17.1072 124.946 17.1072C125.469 17.1072 125.976 17.1938 126.467 17.3668C126.958 17.5399 127.399 17.8115 127.789 18.1818C128.18 18.5521 128.487 19.033 128.713 19.6246C128.938 20.2122 129.051 20.9266 129.051 21.7677V22.4077H121.68V21.0554H127.282C127.282 20.5805 127.185 20.1599 126.992 19.7937C126.799 19.4234 126.527 19.1316 126.177 18.9183C125.831 18.705 125.425 18.5984 124.958 18.5984C124.451 18.5984 124.008 18.7231 123.63 18.9726C123.255 19.2181 122.966 19.5401 122.76 19.9386C122.559 20.333 122.459 20.7616 122.459 21.2244V22.2809C122.459 22.9007 122.567 23.4279 122.785 23.8626C123.006 24.2972 123.314 24.6292 123.708 24.8587C124.103 25.084 124.563 25.1967 125.091 25.1967C125.433 25.1967 125.745 25.1484 126.026 25.0518C126.308 24.9512 126.552 24.8023 126.757 24.6051C126.962 24.4079 127.119 24.1644 127.228 23.8746L128.936 24.1825C128.799 24.6856 128.554 25.1263 128.2 25.5046C127.85 25.8789 127.409 26.1707 126.878 26.38C126.35 26.5852 125.749 26.6878 125.073 26.6878ZM133.752 26.706C133.165 26.706 132.633 26.5973 132.158 26.38C131.684 26.1586 131.307 25.8386 131.03 25.4201C130.756 25.0015 130.619 24.4884 130.619 23.8807C130.619 23.3575 130.72 22.9268 130.921 22.5888C131.122 22.2507 131.394 21.9831 131.736 21.7859C132.078 21.5886 132.46 21.4397 132.883 21.3391C133.305 21.2385 133.736 21.162 134.175 21.1097C134.73 21.0453 135.181 20.993 135.527 20.9528C135.873 20.9085 136.125 20.8381 136.282 20.7415C136.439 20.6449 136.517 20.4879 136.517 20.2706V20.2283C136.517 19.7011 136.368 19.2926 136.07 19.0028C135.777 18.7131 135.338 18.5682 134.754 18.5682C134.147 18.5682 133.668 18.703 133.318 18.9726C132.971 19.2383 132.732 19.5341 132.599 19.8601L130.903 19.4737C131.104 18.9103 131.398 18.4555 131.784 18.1094C132.175 17.7592 132.623 17.5057 133.13 17.3487C133.637 17.1877 134.171 17.1072 134.73 17.1072C135.1 17.1072 135.493 17.1515 135.907 17.24C136.326 17.3246 136.716 17.4815 137.079 17.7109C137.445 17.9403 137.745 18.2683 137.978 18.6949C138.211 19.1175 138.328 19.6669 138.328 20.343V26.5007H136.565V25.2329H136.493C136.376 25.4664 136.201 25.6958 135.968 25.9212C135.734 26.1465 135.434 26.3337 135.068 26.4826C134.702 26.6315 134.263 26.706 133.752 26.706ZM134.145 25.2571C134.644 25.2571 135.07 25.1585 135.424 24.9613C135.783 24.7641 136.054 24.5065 136.239 24.1886C136.429 23.8666 136.523 23.5225 136.523 23.1562V21.9609C136.459 22.0253 136.334 22.0857 136.149 22.142C135.968 22.1944 135.76 22.2406 135.527 22.2809C135.294 22.3171 135.066 22.3513 134.845 22.3835C134.623 22.4117 134.438 22.4358 134.289 22.456C133.939 22.5002 133.619 22.5747 133.33 22.6793C133.044 22.784 132.814 22.9349 132.641 23.1321C132.472 23.3253 132.388 23.5828 132.388 23.9048C132.388 24.3515 132.553 24.6896 132.883 24.919C133.213 25.1444 133.633 25.2571 134.145 25.2571ZM145.061 17.228V18.6768H139.996V17.228H145.061ZM141.354 15.0064H143.159V23.778C143.159 24.1282 143.212 24.3918 143.316 24.5689C143.421 24.7419 143.556 24.8607 143.721 24.9251C143.89 24.9854 144.073 25.0156 144.27 25.0156C144.415 25.0156 144.542 25.0056 144.65 24.9854C144.759 24.9653 144.844 24.9492 144.904 24.9371L145.23 26.4283C145.125 26.4685 144.976 26.5087 144.783 26.549C144.59 26.5933 144.348 26.6174 144.059 26.6214C143.584 26.6295 143.141 26.545 142.731 26.3679C142.32 26.1908 141.988 25.9171 141.734 25.5469C141.481 25.1766 141.354 24.7118 141.354 24.1523V15.0064ZM152.931 22.6552V17.228H154.743V26.5007H152.968V24.8949H152.871C152.658 25.3899 152.316 25.8024 151.845 26.1324C151.378 26.4584 150.796 26.6214 150.1 26.6214C149.505 26.6214 148.977 26.4906 148.518 26.229C148.064 25.9634 147.706 25.571 147.444 25.0518C147.186 24.5327 147.058 23.8907 147.058 23.1261V17.228H148.863V22.9087C148.863 23.5406 149.038 24.0437 149.388 24.418C149.738 24.7922 150.193 24.9794 150.752 24.9794C151.09 24.9794 151.426 24.8949 151.76 24.7258C152.098 24.5568 152.378 24.3012 152.599 23.9591C152.825 23.6171 152.936 23.1824 152.931 22.6552ZM157.168 26.5007V17.228H158.913V18.701H159.009C159.178 18.2019 159.476 17.8095 159.903 17.5238C160.333 17.234 160.82 17.0891 161.364 17.0891C161.476 17.0891 161.609 17.0931 161.762 17.1012C161.919 17.1092 162.042 17.1193 162.13 17.1314V18.8579C162.058 18.8378 161.929 18.8157 161.744 18.7915C161.559 18.7634 161.374 18.7493 161.189 18.7493C160.762 18.7493 160.382 18.8398 160.048 19.0209C159.718 19.198 159.456 19.4455 159.263 19.7635C159.07 20.0774 158.973 20.4356 158.973 20.8381V26.5007H157.168ZM167.357 26.6878C166.443 26.6878 165.656 26.4926 164.996 26.1023C164.34 25.7078 163.833 25.1545 163.475 24.4421C163.121 23.7257 162.944 22.8866 162.944 21.9247C162.944 20.9749 163.121 20.1378 163.475 19.4133C163.833 18.6889 164.332 18.1234 164.972 17.717C165.616 17.3105 166.369 17.1072 167.23 17.1072C167.753 17.1072 168.26 17.1938 168.751 17.3668C169.242 17.5399 169.683 17.8115 170.073 18.1818C170.464 18.5521 170.772 19.033 170.997 19.6246C171.222 20.2122 171.335 20.9266 171.335 21.7677V22.4077H163.964V21.0554H169.566C169.566 20.5805 169.47 20.1599 169.276 19.7937C169.083 19.4234 168.812 19.1316 168.461 18.9183C168.115 18.705 167.709 18.5984 167.242 18.5984C166.735 18.5984 166.292 18.7231 165.914 18.9726C165.54 19.2181 165.25 19.5401 165.045 19.9386C164.843 20.333 164.743 20.7616 164.743 21.2244V22.2809C164.743 22.9007 164.851 23.4279 165.069 23.8626C165.29 24.2972 165.598 24.6292 165.992 24.8587C166.387 25.084 166.848 25.1967 167.375 25.1967C167.717 25.1967 168.029 25.1484 168.311 25.0518C168.592 24.9512 168.836 24.8023 169.041 24.6051C169.246 24.4079 169.403 24.1644 169.512 23.8746L171.22 24.1825C171.084 24.6856 170.838 25.1263 170.484 25.5046C170.134 25.8789 169.693 26.1707 169.162 26.38C168.635 26.5852 168.033 26.6878 167.357 26.6878ZM180.286 19.4918L178.65 19.7816C178.582 19.5723 178.473 19.3731 178.324 19.1839C178.179 18.9948 177.982 18.8398 177.733 18.7191C177.483 18.5984 177.171 18.538 176.797 18.538C176.286 18.538 175.859 18.6527 175.517 18.8821C175.175 19.1075 175.004 19.3993 175.004 19.7574C175.004 20.0673 175.119 20.3169 175.348 20.506C175.578 20.6952 175.948 20.8501 176.459 20.9709L177.932 21.3089C178.785 21.5061 179.421 21.81 179.84 22.2205C180.258 22.631 180.467 23.1643 180.467 23.8203C180.467 24.3757 180.306 24.8707 179.984 25.3054C179.667 25.736 179.222 26.0741 178.65 26.3196C178.083 26.5651 177.425 26.6878 176.676 26.6878C175.638 26.6878 174.791 26.4665 174.135 26.0238C173.479 25.577 173.076 24.9432 172.927 24.1221L174.672 23.8565C174.781 24.3113 175.004 24.6554 175.342 24.8888C175.68 25.1182 176.121 25.2329 176.664 25.2329C177.256 25.2329 177.729 25.1102 178.083 24.8647C178.437 24.6152 178.614 24.3113 178.614 23.9531C178.614 23.6633 178.505 23.4199 178.288 23.2226C178.075 23.0254 177.747 22.8765 177.304 22.7759L175.734 22.4318C174.869 22.2346 174.229 21.9207 173.815 21.49C173.404 21.0594 173.199 20.5141 173.199 19.854C173.199 19.3067 173.352 18.8278 173.658 18.4172C173.964 18.0067 174.386 17.6868 174.926 17.4574C175.465 17.2239 176.083 17.1072 176.779 17.1072C177.781 17.1072 178.57 17.3246 179.145 17.7592C179.721 18.1899 180.101 18.7674 180.286 19.4918ZM190.857 26.6878C189.988 26.6878 189.229 26.4886 188.581 26.0902C187.933 25.6917 187.43 25.1343 187.072 24.418C186.714 23.7016 186.535 22.8645 186.535 21.9066C186.535 20.9447 186.714 20.1036 187.072 19.3832C187.43 18.6627 187.933 18.1033 188.581 17.7049C189.229 17.3065 189.988 17.1072 190.857 17.1072C191.726 17.1072 192.485 17.3065 193.133 17.7049C193.781 18.1033 194.284 18.6627 194.642 19.3832C195 20.1036 195.179 20.9447 195.179 21.9066C195.179 22.8645 195 23.7016 194.642 24.418C194.284 25.1343 193.781 25.6917 193.133 26.0902C192.485 26.4886 191.726 26.6878 190.857 26.6878ZM190.863 25.1726C191.426 25.1726 191.893 25.0237 192.264 24.7258C192.634 24.428 192.908 24.0316 193.085 23.5366C193.266 23.0415 193.356 22.4962 193.356 21.9006C193.356 21.3089 193.266 20.7656 193.085 20.2706C192.908 19.7715 192.634 19.3711 192.264 19.0692C191.893 18.7674 191.426 18.6165 190.863 18.6165C190.296 18.6165 189.825 18.7674 189.45 19.0692C189.08 19.3711 188.804 19.7715 188.623 20.2706C188.446 20.7656 188.358 21.3089 188.358 21.9006C188.358 22.4962 188.446 23.0415 188.623 23.5366C188.804 24.0316 189.08 24.428 189.45 24.7258C189.825 25.0237 190.296 25.1726 190.863 25.1726ZM198.999 20.995V26.5007H197.194V17.228H198.927V18.7372H199.042C199.255 18.2462 199.589 17.8518 200.044 17.554C200.503 17.2561 201.08 17.1072 201.776 17.1072C202.408 17.1072 202.962 17.24 203.436 17.5057C203.911 17.7673 204.28 18.1577 204.541 18.6768C204.803 19.196 204.934 19.8379 204.934 20.6026V26.5007H203.129V20.8199C203.129 20.1478 202.953 19.6226 202.603 19.2443C202.253 18.862 201.772 18.6708 201.161 18.6708C200.742 18.6708 200.37 18.7614 200.044 18.9425C199.722 19.1236 199.466 19.3892 199.277 19.7393C199.092 20.0855 198.999 20.504 198.999 20.995Z" fill="#E8E8E8"/>
</g>
<path d="M216.96 14.1371H219.906V22.6854C219.902 23.4863 219.711 24.1865 219.332 24.7862C218.954 25.3819 218.431 25.8447 217.763 26.1747C217.099 26.5047 216.33 26.6697 215.457 26.6697C214.684 26.6697 213.982 26.5349 213.35 26.2653C212.722 25.9956 212.221 25.577 211.847 25.0096C211.476 24.4421 211.293 23.7157 211.297 22.8302H214.273C214.285 23.1482 214.346 23.4199 214.454 23.6452C214.567 23.8666 214.722 24.0336 214.919 24.1463C215.117 24.259 215.352 24.3153 215.626 24.3153C215.911 24.3153 216.153 24.255 216.35 24.1342C216.547 24.0095 216.696 23.8263 216.797 23.5849C216.901 23.3434 216.956 23.0435 216.96 22.6854V14.1371ZM221.782 26.5007V17.228H224.734V26.5007H221.782ZM223.261 16.1474C222.846 16.1474 222.49 16.0105 222.192 15.7369C221.894 15.4592 221.746 15.1251 221.746 14.7347C221.746 14.3484 221.894 14.0183 222.192 13.7447C222.49 13.467 222.846 13.3281 223.261 13.3281C223.679 13.3281 224.036 13.467 224.329 13.7447C224.627 14.0183 224.776 14.3484 224.776 14.7347C224.776 15.1251 224.627 15.4592 224.329 15.7369C224.036 16.0105 223.679 16.1474 223.261 16.1474ZM226.613 26.5007V17.228H229.48V18.9183H229.577C229.746 18.3066 230.022 17.8518 230.404 17.554C230.786 17.2521 231.231 17.1012 231.738 17.1012C231.875 17.1012 232.016 17.1113 232.161 17.1314C232.306 17.1475 232.44 17.1736 232.565 17.2099V19.7756C232.424 19.7273 232.239 19.689 232.01 19.6609C231.784 19.6327 231.583 19.6186 231.406 19.6186C231.056 19.6186 230.74 19.6971 230.458 19.854C230.181 20.007 229.961 20.2223 229.8 20.5C229.643 20.7737 229.565 21.0956 229.565 21.4659V26.5007H226.613ZM236.033 26.6577C235.442 26.6577 234.917 26.5591 234.458 26.3618C234.003 26.1606 233.643 25.8588 233.377 25.4563C233.116 25.0498 232.985 24.5407 232.985 23.929C232.985 23.4138 233.075 22.9792 233.256 22.625C233.438 22.2708 233.687 21.9831 234.005 21.7617C234.323 21.5404 234.689 21.3733 235.104 21.2606C235.518 21.1439 235.961 21.0654 236.432 21.0252C236.959 20.9769 237.384 20.9266 237.706 20.8743C238.028 20.8179 238.261 20.7395 238.406 20.6388C238.555 20.5342 238.629 20.3873 238.629 20.1981V20.168C238.629 19.8581 238.523 19.6186 238.309 19.4496C238.096 19.2805 237.808 19.196 237.446 19.196C237.056 19.196 236.742 19.2805 236.504 19.4496C236.267 19.6186 236.116 19.852 236.052 20.1498L233.329 20.0533C233.409 19.4898 233.617 18.9867 233.951 18.544C234.289 18.0973 234.752 17.7471 235.339 17.4936C235.931 17.236 236.641 17.1072 237.47 17.1072C238.062 17.1072 238.607 17.1777 239.106 17.3185C239.605 17.4554 240.04 17.6566 240.41 17.9222C240.781 18.1838 241.066 18.5058 241.267 18.8881C241.473 19.2705 241.575 19.7071 241.575 20.1981V26.5007H238.798V25.2088H238.726C238.561 25.5227 238.35 25.7883 238.092 26.0057C237.839 26.223 237.539 26.386 237.193 26.4947C236.85 26.6033 236.464 26.6577 236.033 26.6577ZM236.945 24.7258C237.263 24.7258 237.549 24.6614 237.802 24.5327C238.06 24.4039 238.265 24.2268 238.418 24.0014C238.571 23.772 238.647 23.5064 238.647 23.2045V22.3231C238.563 22.3674 238.46 22.4077 238.34 22.4439C238.223 22.4801 238.094 22.5143 237.953 22.5465C237.812 22.5787 237.667 22.6069 237.519 22.631C237.37 22.6552 237.227 22.6773 237.09 22.6974C236.812 22.7417 236.575 22.8101 236.378 22.9027C236.184 22.9953 236.035 23.116 235.931 23.2649C235.83 23.4098 235.78 23.5828 235.78 23.7841C235.78 24.0899 235.889 24.3234 236.106 24.4844C236.327 24.6453 236.607 24.7258 236.945 24.7258Z" fill="#EFEFEF"/>
</g>
<defs>
<filter id="filter0_d_1_56" x="2.39972" y="0.39972" width="39.202" height="39.2636" filterUnits="userSpaceOnUse" color-interpolation-filters="sRGB">
<feFlood flood-opacity="0" result="BackgroundImageFix"/>
<feColorMatrix in="SourceAlpha" type="matrix" values="0 0 0 0 0 0 0 0 0 0 0 0 0 0 0 0 0 0 127 0" result="hardAlpha"/>
<feOffset/>
<feGaussianBlur stdDeviation="2.80014"/>
<feComposite in2="hardAlpha" operator="out"/>
<feColorMatrix type="matrix" values="0 0 0 0 0 0 0 0 0 0 0 0 0 0 0 0 0 0 0.25 0"/>
<feBlend mode="normal" in2="BackgroundImageFix" result="effect1_dropShadow_1_56"/>
<feBlend mode="normal" in="SourceGraphic" in2="effect1_dropShadow_1_56" result="shape"/>
</filter>
<filter id="filter1_d_1_56" x="36.2871" y="3.78642" width="212.429" height="32.4286" filterUnits="userSpaceOnUse" color-interpolation-filters="sRGB">
<feFlood flood-opacity="0" result="BackgroundImageFix"/>
<feColorMatrix in="SourceAlpha" type="matrix" values="0 0 0 0 0 0 0 0 0 0 0 0 0 0 0 0 0 0 127 0" result="hardAlpha"/>
<feOffset/>
<feGaussianBlur stdDeviation="2.85714"/>
<feComposite in2="hardAlpha" operator="out"/>
<feColorMatrix type="matrix" values="0 0 0 0 0 0 0 0 0 0 0 0 0 0 0 0 0 0 0.25 0"/>
<feBlend mode="normal" in2="BackgroundImageFix" result="effect1_dropShadow_1_56"/>
<feBlend mode="normal" in="SourceGraphic" in2="effect1_dropShadow_1_56" result="shape"/>
</filter>
<filter id="filter2_d_1_56" x="38.8707" y="13.5575" width="170.063" height="24.6136" filterUnits="userSpaceOnUse" color-interpolation-filters="sRGB">
<feFlood flood-opacity="0" result="BackgroundImageFix"/>
<feColorMatrix in="SourceAlpha" type="matrix" values="0 0 0 0 0 0 0 0 0 0 0 0 0 0 0 0 0 0 127 0" result="hardAlpha"/>
<feOffset dy="4"/>
<feGaussianBlur stdDeviation="2"/>
<feComposite in2="hardAlpha" operator="out"/>
<feColorMatrix type="matrix" values="0 0 0 0 0 0 0 0 0 0 0 0 0 0 0 0 0 0 0.25 0"/>
<feBlend mode="normal" in2="BackgroundImageFix" result="effect1_dropShadow_1_56"/>
<feBlend mode="normal" in="SourceGraphic" in2="effect1_dropShadow_1_56" result="shape"/>
</filter>
<linearGradient id="paint0_linear_1_56" x1="125.501" y1="0" x2="125.501" y2="40.0014" gradientUnits="userSpaceOnUse">
<stop stop-color="#003F92"/>
<stop offset="1" stop-color="#00132C"/>
</linearGradient>
<linearGradient id="paint1_linear_1_56" x1="3290" y1="21.0494" x2="1991.24" y2="1538.84" gradientUnits="userSpaceOnUse">
<stop offset="0.18" stop-color="#0052CC"/>
<stop offset="1" stop-color="#2684FF"/>
</linearGradient>
<linearGradient id="paint2_linear_1_56" x1="3372.05" y1="37.9795" x2="1869.72" y2="1693.42" gradientUnits="userSpaceOnUse">
<stop offset="0.18" stop-color="#0052CC"/>
<stop offset="1" stop-color="#2684FF"/>
</linearGradient>
</defs>
</svg>
