<svg width="216" height="40" viewBox="0 0 216 40" fill="none" xmlns="http://www.w3.org/2000/svg">
<rect width="216.001" height="40.0014" rx="8" fill="url(#paint0_linear_1_56)"/>
<rect x="1.07143" y="1.07143" width="213.858" height="37.8585" rx="6.92857" stroke="white" stroke-opacity="0.15" stroke-width="2.14286"/>
<g filter="url(#filter0_d_1_56)">
<path d="M8.89885 7.3125C8.33937 7.3125 7.91977 7.82536 8.01301 8.33821L11.7895 31.4633C11.8827 32.0695 12.3956 32.4891 13.0017 32.4891H31.2781C31.6977 32.4891 32.0707 32.1628 32.1639 31.7431L35.987 8.38484C36.0803 7.82536 35.6607 7.35913 35.1012 7.35913L8.89885 7.3125ZM24.9373 24.0037H19.1094L17.5708 15.7514H26.3826L24.9373 24.0037Z" fill="#2684FF"/>
<path d="M34.7281 15.7514H26.3359L24.9372 24.0037H19.1092L12.2557 32.1628C12.2557 32.1628 12.582 32.4425 13.0482 32.4425H31.3246C31.7443 32.4425 32.1172 32.1161 32.2105 31.6964L34.7281 15.7514Z" fill="url(#paint1_linear_1_56)"/>
</g>
<g filter="url(#filter1_d_1_56)">
<path d="M50.103 17.3849C50.0386 16.8134 49.7729 16.3707 49.3061 16.0568C48.8392 15.7389 48.2516 15.5799 47.5433 15.5799C47.0362 15.5799 46.5975 15.6604 46.2272 15.8214C45.857 15.9783 45.5692 16.1957 45.364 16.4734C45.1627 16.747 45.0621 17.0589 45.0621 17.4091C45.0621 17.7029 45.1305 17.9564 45.2674 18.1697C45.4082 18.383 45.5914 18.5621 45.8167 18.707C46.0461 18.8479 46.2916 18.9666 46.5532 19.0632C46.8148 19.1558 47.0664 19.2322 47.3079 19.2926L48.5152 19.6065C48.9097 19.7031 49.3141 19.8339 49.7287 19.9989C50.1432 20.1639 50.5276 20.3813 50.8817 20.6509C51.2359 20.9206 51.5216 21.2546 51.739 21.653C51.9603 22.0515 52.071 22.5284 52.071 23.0838C52.071 23.7841 51.8899 24.4059 51.5277 24.9492C51.1695 25.4925 50.6483 25.9212 49.9641 26.2351C49.2839 26.549 48.4609 26.706 47.495 26.706C46.5693 26.706 45.7684 26.5591 45.0923 26.2653C44.4162 25.9715 43.8869 25.5549 43.5046 25.0156C43.1223 24.4723 42.911 23.8283 42.8707 23.0838H44.7422C44.7784 23.5305 44.9233 23.9028 45.1768 24.2006C45.4344 24.4944 45.7624 24.7138 46.1608 24.8587C46.5633 24.9995 47.004 25.0699 47.4829 25.0699C48.0102 25.0699 48.479 24.9874 48.8895 24.8224C49.3041 24.6534 49.6301 24.42 49.8675 24.1221C50.105 23.8203 50.2237 23.4681 50.2237 23.0657C50.2237 22.6994 50.1191 22.3996 49.9098 22.1662C49.7045 21.9328 49.4248 21.7396 49.0706 21.5866C48.7205 21.4337 48.3241 21.2989 47.8814 21.1822L46.4204 20.7837C45.4304 20.5141 44.6456 20.1176 44.066 19.5944C43.4905 19.0712 43.2027 18.379 43.2027 17.5177C43.2027 16.8054 43.3959 16.1836 43.7823 15.6523C44.1687 15.1211 44.6919 14.7086 45.3519 14.4148C46.0119 14.1169 46.7565 13.968 47.5856 13.968C48.4227 13.968 49.1612 14.1149 49.8011 14.4087C50.445 14.7025 50.9522 15.107 51.3224 15.6221C51.6927 16.1333 51.8859 16.7209 51.902 17.3849H50.103ZM58.1517 26.6878C57.2381 26.6878 56.4513 26.4926 55.7913 26.1023C55.1352 25.7078 54.6281 25.1545 54.2699 24.4421C53.9158 23.7257 53.7387 22.8866 53.7387 21.9247C53.7387 20.9749 53.9158 20.1378 54.2699 19.4133C54.6281 18.6889 55.1272 18.1234 55.7671 17.717C56.411 17.3105 57.1636 17.1072 58.0249 17.1072C58.5481 17.1072 59.0552 17.1938 59.5462 17.3668C60.0372 17.5399 60.4779 17.8115 60.8683 18.1818C61.2587 18.5521 61.5666 19.033 61.792 19.6246C62.0173 20.2122 62.13 20.9266 62.13 21.7677V22.4077H54.7589V21.0554H60.3612C60.3612 20.5805 60.2646 20.1599 60.0714 19.7937C59.8783 19.4234 59.6066 19.1316 59.2565 18.9183C58.9103 18.705 58.5038 18.5984 58.037 18.5984C57.5299 18.5984 57.0872 18.7231 56.7089 18.9726C56.3346 19.2181 56.0448 19.5401 55.8395 19.9386C55.6383 20.333 55.5377 20.7616 55.5377 21.2244V22.2809C55.5377 22.9007 55.6464 23.4279 55.8637 23.8626C56.0851 24.2972 56.3929 24.6292 56.7873 24.8587C57.1818 25.084 57.6426 25.1967 58.1698 25.1967C58.5119 25.1967 58.8238 25.1484 59.1055 25.0518C59.3873 24.9512 59.6307 24.8023 59.836 24.6051C60.0413 24.4079 60.1982 24.1644 60.3069 23.8746L62.0153 24.1825C61.8785 24.6856 61.633 25.1263 61.2788 25.5046C60.9287 25.8789 60.488 26.1707 59.9567 26.38C59.4295 26.5852 58.8278 26.6878 58.1517 26.6878ZM68.1292 26.6878C67.2156 26.6878 66.4288 26.4926 65.7688 26.1023C65.1128 25.7078 64.6057 25.1545 64.2475 24.4421C63.8933 23.7257 63.7162 22.8866 63.7162 21.9247C63.7162 20.9749 63.8933 20.1378 64.2475 19.4133C64.6057 18.6889 65.1047 18.1234 65.7446 17.717C66.3886 17.3105 67.1412 17.1072 68.0025 17.1072C68.5257 17.1072 69.0328 17.1938 69.5238 17.3668C70.0148 17.5399 70.4555 17.8115 70.8458 18.1818C71.2362 18.5521 71.5441 19.033 71.7695 19.6246C71.9949 20.2122 72.1076 20.9266 72.1076 21.7677V22.4077H64.7365V21.0554H70.3387C70.3387 20.5805 70.2422 20.1599 70.049 19.7937C69.8558 19.4234 69.5841 19.1316 69.234 18.9183C68.8879 18.705 68.4814 18.5984 68.0145 18.5984C67.5074 18.5984 67.0647 18.7231 66.6864 18.9726C66.3121 19.2181 66.0223 19.5401 65.8171 19.9386C65.6159 20.333 65.5152 20.7616 65.5152 21.2244V22.2809C65.5152 22.9007 65.6239 23.4279 65.8412 23.8626C66.0626 24.2972 66.3705 24.6292 66.7649 24.8587C67.1593 25.084 67.6201 25.1967 68.1473 25.1967C68.4894 25.1967 68.8013 25.1484 69.0831 25.0518C69.3648 24.9512 69.6083 24.8023 69.8135 24.6051C70.0188 24.4079 70.1757 24.1644 70.2844 23.8746L71.9929 24.1825C71.856 24.6856 71.6105 25.1263 71.2564 25.5046C70.9062 25.8789 70.4655 26.1707 69.9343 26.38C69.407 26.5852 68.8054 26.6878 68.1292 26.6878ZM84.4833 22.6552V17.228H86.2944V26.5007H84.5195V24.8949H84.4229C84.2096 25.3899 83.8675 25.8024 83.3966 26.1324C82.9298 26.4584 82.3482 26.6214 81.652 26.6214C81.0563 26.6214 80.5291 26.4906 80.0703 26.229C79.6155 25.9634 79.2573 25.571 78.9957 25.0518C78.7381 24.5327 78.6093 23.8907 78.6093 23.1261V17.228H80.4144V22.9087C80.4144 23.5406 80.5895 24.0437 80.9396 24.418C81.2897 24.7922 81.7445 24.9794 82.3039 24.9794C82.642 24.9794 82.9781 24.8949 83.3121 24.7258C83.6502 24.5568 83.9299 24.3012 84.1512 23.9591C84.3766 23.6171 84.4873 23.1824 84.4833 22.6552ZM95.6682 19.4918L94.0322 19.7816C93.9638 19.5723 93.8551 19.3731 93.7062 19.1839C93.5613 18.9948 93.3641 18.8398 93.1146 18.7191C92.865 18.5984 92.5531 18.538 92.1788 18.538C91.6677 18.538 91.2411 18.6527 90.899 18.8821C90.5569 19.1075 90.3859 19.3993 90.3859 19.7574C90.3859 20.0673 90.5006 20.3169 90.73 20.506C90.9594 20.6952 91.3297 20.8501 91.8408 20.9709L93.3138 21.3089C94.167 21.5061 94.8029 21.81 95.2215 22.2205C95.64 22.631 95.8493 23.1643 95.8493 23.8203C95.8493 24.3757 95.6883 24.8707 95.3663 25.3054C95.0484 25.736 94.6037 26.0741 94.0322 26.3196C93.4647 26.5651 92.8067 26.6878 92.0581 26.6878C91.0198 26.6878 90.1726 26.4665 89.5166 26.0238C88.8606 25.577 88.4581 24.9432 88.3092 24.1221L90.0538 23.8565C90.1625 24.3113 90.3859 24.6554 90.7239 24.8888C91.062 25.1182 91.5027 25.2329 92.046 25.2329C92.6377 25.2329 93.1105 25.1102 93.4647 24.8647C93.8189 24.6152 93.996 24.3113 93.996 23.9531C93.996 23.6633 93.8873 23.4199 93.67 23.2226C93.4567 23.0254 93.1287 22.8765 92.686 22.7759L91.1163 22.4318C90.2511 22.2346 89.6111 21.9207 89.1966 21.49C88.7861 21.0594 88.5808 20.5141 88.5808 19.854C88.5808 19.3067 88.7338 18.8278 89.0396 18.4172C89.3455 18.0067 89.7681 17.6868 90.3074 17.4574C90.8467 17.2239 91.4645 17.1072 92.1607 17.1072C93.1629 17.1072 93.9517 17.3246 94.5272 17.7592C95.1027 18.1899 95.4831 18.7674 95.6682 19.4918ZM106.239 26.6878C105.37 26.6878 104.611 26.4886 103.963 26.0902C103.315 25.6917 102.812 25.1343 102.454 24.418C102.096 23.7016 101.916 22.8645 101.916 21.9066C101.916 20.9447 102.096 20.1036 102.454 19.3832C102.812 18.6627 103.315 18.1033 103.963 17.7049C104.611 17.3065 105.37 17.1072 106.239 17.1072C107.108 17.1072 107.867 17.3065 108.515 17.7049C109.163 18.1033 109.666 18.6627 110.024 19.3832C110.382 20.1036 110.561 20.9447 110.561 21.9066C110.561 22.8645 110.382 23.7016 110.024 24.418C109.666 25.1343 109.163 25.6917 108.515 26.0902C107.867 26.4886 107.108 26.6878 106.239 26.6878ZM106.245 25.1726C106.808 25.1726 107.275 25.0237 107.645 24.7258C108.016 24.428 108.289 24.0316 108.466 23.5366C108.648 23.0415 108.738 22.4962 108.738 21.9006C108.738 21.3089 108.648 20.7656 108.466 20.2706C108.289 19.7715 108.016 19.3711 107.645 19.0692C107.275 18.7674 106.808 18.6165 106.245 18.6165C105.677 18.6165 105.207 18.7674 104.832 19.0692C104.462 19.3711 104.186 19.7715 104.005 20.2706C103.828 20.7656 103.74 21.3089 103.74 21.9006C103.74 22.4962 103.828 23.0415 104.005 23.5366C104.186 24.0316 104.462 24.428 104.832 24.7258C105.207 25.0237 105.677 25.1726 106.245 25.1726ZM114.381 20.995V26.5007H112.576V17.228H114.309V18.7372H114.423C114.637 18.2462 114.971 17.8518 115.426 17.554C115.884 17.2561 116.462 17.1072 117.158 17.1072C117.79 17.1072 118.343 17.24 118.818 17.5057C119.293 17.7673 119.661 18.1577 119.923 18.6768C120.185 19.196 120.315 19.8379 120.315 20.6026V26.5007H118.51V20.8199C118.51 20.1478 118.335 19.6226 117.985 19.2443C117.635 18.862 117.154 18.6708 116.542 18.6708C116.124 18.6708 115.752 18.7614 115.426 18.9425C115.104 19.1236 114.848 19.3892 114.659 19.7393C114.474 20.0855 114.381 20.504 114.381 20.995Z" fill="#E8E8E8"/>
<path d="M126.937 26.0007V13.6371H132.093C133.018 13.6371 133.793 13.7679 134.417 14.0295C135.045 14.2911 135.516 14.6573 135.829 15.1282C136.147 15.5991 136.306 16.1444 136.306 16.7642C136.306 17.2351 136.208 17.6556 136.011 18.0259C135.813 18.3922 135.542 18.696 135.196 18.9375C134.85 19.179 134.449 19.348 133.994 19.4446V19.5653C134.493 19.5895 134.954 19.7243 135.377 19.9698C135.803 20.2153 136.145 20.5574 136.403 20.9961C136.661 21.4307 136.789 21.9459 136.789 22.5415C136.789 23.2056 136.62 23.7992 136.282 24.3224C135.944 24.8416 135.455 25.2521 134.815 25.554C134.175 25.8518 133.399 26.0007 132.485 26.0007H126.937ZM129.925 23.592H131.773C132.421 23.592 132.898 23.4692 133.203 23.2237C133.513 22.9782 133.668 22.6361 133.668 22.1974C133.668 21.8795 133.594 21.6058 133.445 21.3764C133.296 21.143 133.085 20.9639 132.811 20.8391C132.537 20.7103 132.209 20.6459 131.827 20.6459H129.925V23.592ZM129.925 18.7202H131.579C131.905 18.7202 132.195 18.6658 132.449 18.5572C132.702 18.4485 132.9 18.2915 133.04 18.0863C133.185 17.881 133.258 17.6335 133.258 17.3437C133.258 16.9292 133.111 16.6032 132.817 16.3658C132.523 16.1283 132.127 16.0096 131.628 16.0096H129.925V18.7202ZM138.226 26.0007V16.728H141.178V26.0007H138.226ZM139.705 15.6474C139.291 15.6474 138.934 15.5105 138.637 15.2369C138.339 14.9592 138.19 14.6251 138.19 14.2347C138.19 13.8484 138.339 13.5183 138.637 13.2447C138.934 12.967 139.291 12.8281 139.705 12.8281C140.124 12.8281 140.48 12.967 140.774 13.2447C141.072 13.5183 141.22 13.8484 141.22 14.2347C141.22 14.6251 141.072 14.9592 140.774 15.2369C140.48 15.5105 140.124 15.6474 139.705 15.6474ZM148.291 16.728V18.9013H142.441V16.728H148.291ZM143.667 14.5064H146.619V23.0849C146.619 23.266 146.647 23.4129 146.704 23.5256C146.764 23.6342 146.85 23.7127 146.963 23.761C147.076 23.8053 147.211 23.8274 147.368 23.8274C147.48 23.8274 147.599 23.8173 147.724 23.7972C147.853 23.7731 147.949 23.7529 148.014 23.7368L148.46 25.8679C148.319 25.9081 148.12 25.9584 147.863 26.0188C147.609 26.0792 147.305 26.1174 146.951 26.1335C146.259 26.1657 145.665 26.0852 145.17 25.892C144.679 25.6948 144.303 25.389 144.041 24.9744C143.784 24.5599 143.659 24.0387 143.667 23.4109V14.5064ZM149.997 26.0007V13.6371H152.949V18.3157H153.009C153.13 18.034 153.301 17.7623 153.522 17.5007C153.748 17.2391 154.033 17.0258 154.379 16.8608C154.73 16.6918 155.148 16.6072 155.635 16.6072C156.279 16.6072 156.881 16.7763 157.44 17.1143C158.004 17.4524 158.458 17.9736 158.805 18.6779C159.151 19.3822 159.324 20.2797 159.324 21.3704C159.324 22.4208 159.157 23.3002 158.823 24.0085C158.493 24.7168 158.046 25.2481 157.482 25.6023C156.923 25.9564 156.301 26.1335 155.617 26.1335C155.15 26.1335 154.746 26.057 154.404 25.9041C154.062 25.7512 153.774 25.5499 153.54 25.3004C153.311 25.0509 153.134 24.7832 153.009 24.4975H152.919V26.0007H149.997ZM152.888 21.3643C152.888 21.8634 152.955 22.298 153.088 22.6683C153.224 23.0386 153.42 23.3263 153.673 23.5316C153.931 23.7328 154.239 23.8334 154.597 23.8334C154.959 23.8334 155.267 23.7328 155.52 23.5316C155.774 23.3263 155.965 23.0386 156.094 22.6683C156.227 22.298 156.293 21.8634 156.293 21.3643C156.293 20.8653 156.227 20.4326 156.094 20.0664C155.965 19.7002 155.774 19.4164 155.52 19.2152C155.271 19.014 154.963 18.9133 154.597 18.9133C154.235 18.9133 153.927 19.0119 153.673 19.2092C153.42 19.4064 153.224 19.6881 153.088 20.0543C152.955 20.4206 152.888 20.8572 152.888 21.3643ZM166.853 21.9982V16.728H169.799V26.0007H166.986V24.2741H166.89C166.684 24.8416 166.334 25.2924 165.839 25.6264C165.348 25.9564 164.754 26.1214 164.058 26.1214C163.426 26.1214 162.871 25.9765 162.392 25.6868C161.913 25.397 161.541 24.9925 161.275 24.4734C161.01 23.9502 160.875 23.3384 160.871 22.6381V16.728H163.823V22.0586C163.827 22.5617 163.96 22.9581 164.221 23.2479C164.483 23.5376 164.839 23.6825 165.29 23.6825C165.584 23.6825 165.847 23.6181 166.081 23.4893C166.318 23.3565 166.505 23.1654 166.642 22.9158C166.783 22.6623 166.853 22.3564 166.853 21.9982ZM176.007 26.1758C175.029 26.1758 174.19 25.9745 173.489 25.5721C172.793 25.1696 172.258 24.6102 171.884 23.8938C171.509 23.1734 171.322 22.3403 171.322 21.3945C171.322 20.4447 171.509 19.6116 171.884 18.8952C172.262 18.1748 172.799 17.6134 173.495 17.2109C174.196 16.8085 175.031 16.6072 176.001 16.6072C176.858 16.6072 177.605 16.7622 178.24 17.0721C178.88 17.382 179.379 17.8207 179.738 18.3881C180.1 18.9516 180.291 19.6136 180.311 20.3743H177.552C177.496 19.8994 177.335 19.5271 177.069 19.2574C176.808 18.9878 176.466 18.853 176.043 18.853C175.701 18.853 175.401 18.9496 175.143 19.1427C174.886 19.3319 174.685 19.6136 174.54 19.9879C174.399 20.3582 174.329 20.817 174.329 21.3643C174.329 21.9117 174.399 22.3745 174.54 22.7528C174.685 23.1271 174.886 23.4109 175.143 23.604C175.401 23.7932 175.701 23.8878 176.043 23.8878C176.317 23.8878 176.558 23.8294 176.767 23.7127C176.981 23.596 177.156 23.4249 177.293 23.1996C177.429 22.9702 177.516 22.6925 177.552 22.3665H180.311C180.283 23.1311 180.092 23.7992 179.738 24.3707C179.387 24.9422 178.894 25.3869 178.259 25.7049C177.627 26.0188 176.876 26.1758 176.007 26.1758ZM184.484 23.5678L184.496 20.0483H184.907L187.515 16.728H190.859L186.983 21.4851H186.205L184.484 23.5678ZM181.822 26.0007V13.6371H184.774V26.0007H181.822ZM187.581 26.0007L185.154 22.1491L187.098 20.0543L190.992 26.0007H187.581ZM195.868 26.1758C194.898 26.1758 194.061 25.9846 193.357 25.6023C192.657 25.2159 192.117 24.6665 191.739 23.9542C191.365 23.2378 191.178 22.3866 191.178 21.4006C191.178 20.4427 191.367 19.6056 191.745 18.8892C192.123 18.1688 192.657 17.6094 193.345 17.2109C194.033 16.8085 194.844 16.6072 195.778 16.6072C196.438 16.6072 197.041 16.7099 197.589 16.9151C198.136 17.1204 198.609 17.4242 199.007 17.8267C199.406 18.2292 199.716 18.7262 199.937 19.3178C200.159 19.9054 200.269 20.5795 200.269 21.3402V22.0767H192.21V20.3622H197.522C197.518 20.0483 197.444 19.7686 197.299 19.5231C197.154 19.2776 196.955 19.0864 196.701 18.9496C196.452 18.8087 196.164 18.7383 195.838 18.7383C195.508 18.7383 195.212 18.8127 194.951 18.9616C194.689 19.1065 194.482 19.3057 194.329 19.5593C194.176 19.8088 194.095 20.0926 194.087 20.4105V22.1552C194.087 22.5335 194.162 22.8655 194.311 23.1513C194.46 23.433 194.671 23.6523 194.945 23.8093C195.218 23.9663 195.544 24.0447 195.923 24.0447C196.184 24.0447 196.422 24.0085 196.635 23.9361C196.848 23.8636 197.031 23.757 197.184 23.6161C197.337 23.4752 197.452 23.3022 197.528 23.0969L200.239 23.1754C200.126 23.7831 199.879 24.3124 199.496 24.7631C199.118 25.2099 198.621 25.558 198.005 25.8075C197.39 26.053 196.677 26.1758 195.868 26.1758ZM207.011 16.728V18.9013H201.161V16.728H207.011ZM202.387 14.5064H205.339V23.0849C205.339 23.266 205.367 23.4129 205.423 23.5256C205.484 23.6342 205.57 23.7127 205.683 23.761C205.796 23.8053 205.93 23.8274 206.087 23.8274C206.2 23.8274 206.319 23.8173 206.443 23.7972C206.572 23.7731 206.669 23.7529 206.733 23.7368L207.18 25.8679C207.039 25.9081 206.84 25.9584 206.582 26.0188C206.329 26.0792 206.025 26.1174 205.671 26.1335C204.979 26.1657 204.385 26.0852 203.89 25.892C203.399 25.6948 203.023 25.389 202.761 24.9744C202.503 24.5599 202.379 24.0387 202.387 23.4109V14.5064Z" fill="#2684FF"/>
</g>
<defs>
<filter id="filter0_d_1_56" x="2.39972" y="0.39972" width="39.202" height="39.202" filterUnits="userSpaceOnUse" color-interpolation-filters="sRGB">
<feFlood flood-opacity="0" result="BackgroundImageFix"/>
<feColorMatrix in="SourceAlpha" type="matrix" values="0 0 0 0 0 0 0 0 0 0 0 0 0 0 0 0 0 0 127 0" result="hardAlpha"/>
<feOffset/>
<feGaussianBlur stdDeviation="2.80014"/>
<feComposite in2="hardAlpha" operator="out"/>
<feColorMatrix type="matrix" values="0 0 0 0 0 0 0 0 0 0 0 0 0 0 0 0 0 0 0.25 0"/>
<feBlend mode="normal" in2="BackgroundImageFix" result="effect1_dropShadow_1_56"/>
<feBlend mode="normal" in="SourceGraphic" in2="effect1_dropShadow_1_56" result="shape"/>
</filter>
<filter id="filter1_d_1_56" x="36.2871" y="3.78642" width="177.429" height="32.4286" filterUnits="userSpaceOnUse" color-interpolation-filters="sRGB">
<feFlood flood-opacity="0" result="BackgroundImageFix"/>
<feColorMatrix in="SourceAlpha" type="matrix" values="0 0 0 0 0 0 0 0 0 0 0 0 0 0 0 0 0 0 127 0" result="hardAlpha"/>
<feOffset/>
<feGaussianBlur stdDeviation="2.85714"/>
<feComposite in2="hardAlpha" operator="out"/>
<feColorMatrix type="matrix" values="0 0 0 0 0 0 0 0 0 0 0 0 0 0 0 0 0 0 0.25 0"/>
<feBlend mode="normal" in2="BackgroundImageFix" result="effect1_dropShadow_1_56"/>
<feBlend mode="normal" in="SourceGraphic" in2="effect1_dropShadow_1_56" result="shape"/>
</filter>
<linearGradient id="paint0_linear_1_56" x1="108.001" y1="0" x2="108.001" y2="40.0014" gradientUnits="userSpaceOnUse">
<stop stop-color="#003C8B"/>
<stop offset="1" stop-color="#001531"/>
</linearGradient>
<linearGradient id="paint1_linear_1_56" x1="36.6913" y1="18.0768" x2="22.784" y2="28.9327" gradientUnits="userSpaceOnUse">
<stop offset="0.176" stop-color="#0052CC"/>
<stop offset="1" stop-color="#2684FF"/>
</linearGradient>
</defs>
</svg>
