<svg width="222" height="40" viewBox="0 0 222 40" fill="none" xmlns="http://www.w3.org/2000/svg">
<rect width="222.001" height="40.0014" rx="8" fill="url(#paint0_linear_1_56)"/>
<rect x="1.07143" y="1.07143" width="219.858" height="37.8585" rx="6.92857" stroke="white" stroke-opacity="0.15" stroke-width="2.14286"/>
<g filter="url(#filter0_d_1_56)">
<path d="M8.13005 17.9814C8.06334 18.4489 8.01994 18.9194 8 19.3912H29.2679C29.1937 19.2461 29.0939 19.1153 28.9933 18.9873C25.3574 14.2899 23.4015 14.6972 20.6037 14.5778C19.6709 14.5395 19.0383 14.524 15.3253 14.524C13.3381 14.524 11.1776 14.5291 9.07379 14.5347C8.80145 15.2698 8.53878 15.9823 8.41089 16.562H19.3093V17.9814H8.13005ZM29.4356 20.812H8.01091C8.03333 21.1907 8.06866 21.5644 8.11968 21.9331H27.8999C28.7817 21.9331 29.2753 21.4328 29.4356 20.812ZM9.23093 25.8053C9.23093 25.8053 12.5101 33.857 21.9852 34C27.6485 34 32.5145 30.6366 34.7249 25.8053H9.23093Z" fill="white"/>
<path d="M21.9851 6C16.7487 6 12.1921 8.87547 9.78583 13.1261C11.6663 13.1222 15.3285 13.1199 15.3285 13.1199H15.3294V13.1185C19.6581 13.1185 19.819 13.1379 20.6646 13.1732L21.1882 13.1925C23.0121 13.2533 25.2538 13.4491 27.0176 14.7836C27.9751 15.5074 29.3575 17.105 30.1815 18.2431C30.9434 19.2958 31.1625 20.506 30.6445 21.6654C30.1678 22.731 29.1419 23.3666 27.8997 23.3666H8.45638C8.45638 23.3666 8.57212 23.8573 8.74567 24.3989H35.2864C35.7577 22.9822 35.9987 21.499 36 20.006C36.0003 12.2714 29.7255 6 21.9851 6Z" fill="white"/>
</g>
<g filter="url(#filter1_d_1_56)">
<path d="M47.3622 26.5007H43.3597V14.1371H47.489C48.7004 14.1371 49.7407 14.3846 50.6101 14.8796C51.4794 15.3706 52.1455 16.0769 52.6083 16.9986C53.0751 17.9162 53.3086 19.0169 53.3086 20.3008C53.3086 21.5886 53.0731 22.6954 52.6022 23.6211C52.1354 24.5467 51.4593 25.2591 50.5738 25.7582C49.6884 26.2532 48.6179 26.5007 47.3622 26.5007ZM45.2251 24.8707H47.2596C48.2013 24.8707 48.9841 24.6936 49.6079 24.3395C50.2317 23.9813 50.6986 23.4641 51.0085 22.788C51.3184 22.1078 51.4733 21.2788 51.4733 20.3008C51.4733 19.3308 51.3184 18.5078 51.0085 17.8317C50.7026 17.1555 50.2458 16.6424 49.6381 16.2922C49.0304 15.9421 48.2758 15.767 47.3743 15.767H45.2251V24.8707ZM59.4798 26.6878C58.5662 26.6878 57.7794 26.4926 57.1194 26.1023C56.4634 25.7078 55.9563 25.1545 55.5981 24.4421C55.2439 23.7257 55.0668 22.8866 55.0668 21.9247C55.0668 20.9749 55.2439 20.1378 55.5981 19.4133C55.9563 18.6889 56.4553 18.1234 57.0952 17.717C57.7392 17.3105 58.4918 17.1072 59.353 17.1072C59.8762 17.1072 60.3833 17.1938 60.8743 17.3668C61.3654 17.5399 61.806 17.8115 62.1964 18.1818C62.5868 18.5521 62.8947 19.033 63.1201 19.6246C63.3455 20.2122 63.4582 20.9266 63.4582 21.7677V22.4077H56.0871V21.0554H61.6893C61.6893 20.5805 61.5927 20.1599 61.3996 19.7937C61.2064 19.4234 60.9347 19.1316 60.5846 18.9183C60.2385 18.705 59.832 18.5984 59.3651 18.5984C58.858 18.5984 58.4153 18.7231 58.037 18.9726C57.6627 19.2181 57.3729 19.5401 57.1677 19.9386C56.9664 20.333 56.8658 20.7616 56.8658 21.2244V22.2809C56.8658 22.9007 56.9745 23.4279 57.1918 23.8626C57.4132 24.2972 57.7211 24.6292 58.1155 24.8587C58.5099 25.084 58.9707 25.1967 59.4979 25.1967C59.84 25.1967 60.1519 25.1484 60.4337 25.0518C60.7154 24.9512 60.9589 24.8023 61.1641 24.6051C61.3694 24.4079 61.5263 24.1644 61.635 23.8746L63.3435 24.1825C63.2066 24.6856 62.9611 25.1263 62.6069 25.5046C62.2568 25.8789 61.8161 26.1707 61.2849 26.38C60.7576 26.5852 60.156 26.6878 59.4798 26.6878ZM65.4609 29.978V17.228H67.2237V18.7312H67.3746C67.4793 18.538 67.6302 18.3146 67.8274 18.0611C68.0246 17.8075 68.2983 17.5862 68.6484 17.397C68.9985 17.2038 69.4614 17.1072 70.0369 17.1072C70.7855 17.1072 71.4536 17.2964 72.0412 17.6747C72.6288 18.053 73.0896 18.5984 73.4236 19.3107C73.7617 20.0231 73.9307 20.8803 73.9307 21.8824C73.9307 22.8846 73.7637 23.7438 73.4297 24.4602C73.0956 25.1726 72.6368 25.7219 72.0532 26.1083C71.4697 26.4906 70.8036 26.6818 70.055 26.6818C69.4916 26.6818 69.0307 26.5872 68.6726 26.3981C68.3184 26.2089 68.0407 25.9876 67.8395 25.734C67.6382 25.4805 67.4833 25.2551 67.3746 25.0579H67.2659V29.978H65.4609ZM67.2297 21.8643C67.2297 22.5163 67.3243 23.0878 67.5135 23.5788C67.7026 24.0698 67.9763 24.4542 68.3345 24.7319C68.6927 25.0056 69.1314 25.1424 69.6505 25.1424C70.1898 25.1424 70.6406 24.9995 71.0028 24.7138C71.365 24.424 71.6387 24.0316 71.8238 23.5366C72.013 23.0415 72.1076 22.4841 72.1076 21.8643C72.1076 21.2526 72.015 20.7032 71.8299 20.2163C71.6488 19.7293 71.3751 19.3449 71.0088 19.0632C70.6466 18.7815 70.1939 18.6406 69.6505 18.6406C69.1273 18.6406 68.6846 18.7754 68.3224 19.0451C67.9642 19.3147 67.6926 19.691 67.5074 20.174C67.3223 20.6569 67.2297 21.2204 67.2297 21.8643ZM77.7581 14.1371V26.5007H75.9531V14.1371H77.7581ZM84.0924 26.6878C83.2231 26.6878 82.4644 26.4886 81.8165 26.0902C81.1685 25.6917 80.6654 25.1343 80.3072 24.418C79.949 23.7016 79.7699 22.8645 79.7699 21.9066C79.7699 20.9447 79.949 20.1036 80.3072 19.3832C80.6654 18.6627 81.1685 18.1033 81.8165 17.7049C82.4644 17.3065 83.2231 17.1072 84.0924 17.1072C84.9617 17.1072 85.7203 17.3065 86.3683 17.7049C87.0163 18.1033 87.5193 18.6627 87.8775 19.3832C88.2357 20.1036 88.4148 20.9447 88.4148 21.9066C88.4148 22.8645 88.2357 23.7016 87.8775 24.418C87.5193 25.1343 87.0163 25.6917 86.3683 26.0902C85.7203 26.4886 84.9617 26.6878 84.0924 26.6878ZM84.0984 25.1726C84.6619 25.1726 85.1287 25.0237 85.499 24.7258C85.8693 24.428 86.1429 24.0316 86.32 23.5366C86.5011 23.0415 86.5917 22.4962 86.5917 21.9006C86.5917 21.3089 86.5011 20.7656 86.32 20.2706C86.1429 19.7715 85.8693 19.3711 85.499 19.0692C85.1287 18.7674 84.6619 18.6165 84.0984 18.6165C83.5309 18.6165 83.0601 18.7674 82.6858 19.0692C82.3155 19.3711 82.0398 19.7715 81.8587 20.2706C81.6816 20.7656 81.5931 21.3089 81.5931 21.9006C81.5931 22.4962 81.6816 23.0415 81.8587 23.5366C82.0398 24.0316 82.3155 24.428 82.6858 24.7258C83.0601 25.0237 83.5309 25.1726 84.0984 25.1726ZM91.2552 29.978C90.9855 29.978 90.74 29.9558 90.5187 29.9116C90.2973 29.8713 90.1323 29.827 90.0237 29.7787L90.4583 28.2997C90.7883 28.3882 91.0821 28.4265 91.3397 28.4144C91.5973 28.4023 91.8247 28.3057 92.0219 28.1246C92.2231 27.9435 92.4002 27.6477 92.5531 27.2372L92.7765 26.6214L89.3838 17.228H91.3156L93.6639 24.424H93.7605L96.1089 17.228H98.0467L94.2254 27.7383C94.0483 28.2212 93.8229 28.6297 93.5492 28.9638C93.2756 29.3018 92.9496 29.5554 92.5712 29.7244C92.1929 29.8935 91.7543 29.978 91.2552 29.978ZM103.424 26.6878C102.511 26.6878 101.724 26.4926 101.064 26.1023C100.408 25.7078 99.9006 25.1545 99.5424 24.4421C99.1882 23.7257 99.0111 22.8866 99.0111 21.9247C99.0111 20.9749 99.1882 20.1378 99.5424 19.4133C99.9006 18.6889 100.4 18.1234 101.04 17.717C101.683 17.3105 102.436 17.1072 103.297 17.1072C103.821 17.1072 104.328 17.1938 104.819 17.3668C105.31 17.5399 105.75 17.8115 106.141 18.1818C106.531 18.5521 106.839 19.033 107.064 19.6246C107.29 20.2122 107.402 20.9266 107.402 21.7677V22.4077H100.031V21.0554H105.634C105.634 20.5805 105.537 20.1599 105.344 19.7937C105.151 19.4234 104.879 19.1316 104.529 18.9183C104.183 18.705 103.776 18.5984 103.309 18.5984C102.802 18.5984 102.36 18.7231 101.981 18.9726C101.607 19.2181 101.317 19.5401 101.112 19.9386C100.911 20.333 100.81 20.7616 100.81 21.2244V22.2809C100.81 22.9007 100.919 23.4279 101.136 23.8626C101.357 24.2972 101.665 24.6292 102.06 24.8587C102.454 25.084 102.915 25.1967 103.442 25.1967C103.784 25.1967 104.096 25.1484 104.378 25.0518C104.66 24.9512 104.903 24.8023 105.108 24.6051C105.314 24.4079 105.471 24.1644 105.579 23.8746L107.288 24.1825C107.151 24.6856 106.905 25.1263 106.551 25.5046C106.201 25.8789 105.76 26.1707 105.229 26.38C104.702 26.5852 104.1 26.6878 103.424 26.6878ZM112.876 26.6818C112.128 26.6818 111.46 26.4906 110.872 26.1083C110.289 25.7219 109.83 25.1726 109.496 24.4602C109.166 23.7438 109.001 22.8846 109.001 21.8824C109.001 20.8803 109.168 20.0231 109.502 19.3107C109.84 18.5984 110.303 18.053 110.89 17.6747C111.478 17.2964 112.144 17.1072 112.889 17.1072C113.464 17.1072 113.927 17.2038 114.277 17.397C114.631 17.5862 114.905 17.8075 115.098 18.0611C115.295 18.3146 115.448 18.538 115.557 18.7312H115.666V14.1371H117.471V26.5007H115.708V25.0579H115.557C115.448 25.2551 115.291 25.4805 115.086 25.734C114.885 25.9876 114.607 26.2089 114.253 26.3981C113.899 26.5872 113.44 26.6818 112.876 26.6818ZM113.275 25.1424C113.794 25.1424 114.233 25.0056 114.591 24.7319C114.953 24.4542 115.227 24.0698 115.412 23.5788C115.601 23.0878 115.696 22.5163 115.696 21.8643C115.696 21.2204 115.603 20.6569 115.418 20.174C115.233 19.691 114.961 19.3147 114.603 19.0451C114.245 18.7754 113.802 18.6406 113.275 18.6406C112.732 18.6406 112.279 18.7815 111.917 19.0632C111.554 19.3449 111.281 19.7293 111.096 20.2163C110.914 20.7032 110.824 21.2526 110.824 21.8643C110.824 22.4841 110.916 23.0415 111.102 23.5366C111.287 24.0316 111.56 24.424 111.923 24.7138C112.289 24.9995 112.74 25.1424 113.275 25.1424ZM128.452 26.6878C127.582 26.6878 126.824 26.4886 126.176 26.0902C125.528 25.6917 125.025 25.1343 124.667 24.418C124.308 23.7016 124.129 22.8645 124.129 21.9066C124.129 20.9447 124.308 20.1036 124.667 19.3832C125.025 18.6627 125.528 18.1033 126.176 17.7049C126.824 17.3065 127.582 17.1072 128.452 17.1072C129.321 17.1072 130.08 17.3065 130.728 17.7049C131.376 18.1033 131.879 18.6627 132.237 19.3832C132.595 20.1036 132.774 20.9447 132.774 21.9066C132.774 22.8645 132.595 23.7016 132.237 24.418C131.879 25.1343 131.376 25.6917 130.728 26.0902C130.08 26.4886 129.321 26.6878 128.452 26.6878ZM128.458 25.1726C129.021 25.1726 129.488 25.0237 129.858 24.7258C130.229 24.428 130.502 24.0316 130.679 23.5366C130.86 23.0415 130.951 22.4962 130.951 21.9006C130.951 21.3089 130.86 20.7656 130.679 20.2706C130.502 19.7715 130.229 19.3711 129.858 19.0692C129.488 18.7674 129.021 18.6165 128.458 18.6165C127.89 18.6165 127.419 18.7674 127.045 19.0692C126.675 19.3711 126.399 19.7715 126.218 20.2706C126.041 20.7656 125.952 21.3089 125.952 21.9006C125.952 22.4962 126.041 23.0415 126.218 23.5366C126.399 24.0316 126.675 24.428 127.045 24.7258C127.419 25.0237 127.89 25.1726 128.458 25.1726ZM136.594 20.995V26.5007H134.789V17.228H136.522V18.7372H136.636C136.85 18.2462 137.184 17.8518 137.638 17.554C138.097 17.2561 138.675 17.1072 139.371 17.1072C140.003 17.1072 140.556 17.24 141.031 17.5057C141.506 17.7673 141.874 18.1577 142.136 18.6768C142.398 19.196 142.528 19.8379 142.528 20.6026V26.5007H140.723V20.8199C140.723 20.1478 140.548 19.6226 140.198 19.2443C139.848 18.862 139.367 18.6708 138.755 18.6708C138.337 18.6708 137.964 18.7614 137.638 18.9425C137.316 19.1236 137.061 19.3892 136.872 19.7393C136.687 20.0855 136.594 20.504 136.594 20.995Z" fill="#E8E8E8"/>
<path d="M148.937 26.0007V13.6371H154.044C154.97 13.6371 155.769 13.8041 156.441 14.1381C157.117 14.4681 157.638 14.9431 158.005 15.5628C158.371 16.1786 158.554 16.9091 158.554 17.7543C158.554 18.6115 158.367 19.34 157.992 19.9396C157.618 20.5353 157.087 20.99 156.399 21.304C155.711 21.6139 154.896 21.7688 153.954 21.7688H150.724V19.4144H153.398C153.849 19.4144 154.225 19.356 154.527 19.2393C154.833 19.1186 155.065 18.9375 155.222 18.696C155.378 18.4505 155.457 18.1366 155.457 17.7543C155.457 17.3719 155.378 17.056 155.222 16.8065C155.065 16.5529 154.833 16.3637 154.527 16.239C154.221 16.1102 153.845 16.0458 153.398 16.0458H151.925V26.0007H148.937ZM155.898 20.3501L158.976 26.0007H155.717L152.698 20.3501H155.898ZM162.807 26.1577C162.215 26.1577 161.69 26.0591 161.231 25.8618C160.777 25.6606 160.416 25.3588 160.151 24.9563C159.889 24.5498 159.758 24.0407 159.758 23.429C159.758 22.9138 159.849 22.4792 160.03 22.125C160.211 21.7708 160.461 21.4831 160.779 21.2617C161.096 21.0404 161.463 20.8733 161.877 20.7606C162.292 20.6439 162.734 20.5654 163.205 20.5252C163.733 20.4769 164.157 20.4266 164.479 20.3743C164.801 20.3179 165.035 20.2395 165.179 20.1388C165.328 20.0342 165.403 19.8873 165.403 19.6981V19.668C165.403 19.3581 165.296 19.1186 165.083 18.9496C164.87 18.7805 164.582 18.696 164.22 18.696C163.829 18.696 163.515 18.7805 163.278 18.9496C163.04 19.1186 162.889 19.352 162.825 19.6498L160.102 19.5533C160.183 18.9898 160.39 18.4867 160.724 18.044C161.062 17.5973 161.525 17.2471 162.113 16.9936C162.704 16.736 163.415 16.6072 164.244 16.6072C164.835 16.6072 165.381 16.6777 165.88 16.8185C166.379 16.9554 166.813 17.1566 167.184 17.4222C167.554 17.6838 167.84 18.0058 168.041 18.3881C168.246 18.7705 168.349 19.2071 168.349 19.6981V26.0007H165.572V24.7088H165.499C165.334 25.0227 165.123 25.2883 164.866 25.5057C164.612 25.723 164.312 25.886 163.966 25.9947C163.624 26.1033 163.238 26.1577 162.807 26.1577ZM163.719 24.2258C164.036 24.2258 164.322 24.1614 164.576 24.0327C164.833 23.9039 165.039 23.7268 165.192 23.5014C165.344 23.272 165.421 23.0064 165.421 22.7045V21.8231C165.336 21.8674 165.234 21.9077 165.113 21.9439C164.996 21.9801 164.868 22.0143 164.727 22.0465C164.586 22.0787 164.441 22.1069 164.292 22.131C164.143 22.1552 164 22.1773 163.863 22.1974C163.586 22.2417 163.348 22.3101 163.151 22.4027C162.958 22.4953 162.809 22.616 162.704 22.7649C162.604 22.9098 162.553 23.0828 162.553 23.2841C162.553 23.59 162.662 23.8234 162.879 23.9844C163.101 24.1453 163.38 24.2258 163.719 24.2258ZM170.154 26.0007V16.728H173.106V26.0007H170.154ZM171.633 15.6474C171.218 15.6474 170.862 15.5105 170.564 15.2369C170.267 14.9592 170.118 14.6251 170.118 14.2347C170.118 13.8484 170.267 13.5183 170.564 13.2447C170.862 12.967 171.218 12.8281 171.633 12.8281C172.051 12.8281 172.408 12.967 172.701 13.2447C172.999 13.5183 173.148 13.8484 173.148 14.2347C173.148 14.6251 172.999 14.9592 172.701 15.2369C172.408 15.5105 172.051 15.6474 171.633 15.6474ZM177.937 13.6371V26.0007H174.985V13.6371H177.937ZM181.549 26.0007L179.134 16.728H182.098L183.348 22.6683H183.426L184.766 16.728H187.658L189.034 22.6261H189.113L190.326 16.728H193.29L190.87 26.0007H187.712L186.263 20.5976H186.161L184.712 26.0007H181.549ZM197.089 26.1577C196.498 26.1577 195.972 26.0591 195.514 25.8618C195.059 25.6606 194.699 25.3588 194.433 24.9563C194.171 24.5498 194.04 24.0407 194.04 23.429C194.04 22.9138 194.131 22.4792 194.312 22.125C194.493 21.7708 194.743 21.4831 195.061 21.2617C195.379 21.0404 195.745 20.8733 196.159 20.7606C196.574 20.6439 197.017 20.5654 197.488 20.5252C198.015 20.4769 198.439 20.4266 198.761 20.3743C199.083 20.3179 199.317 20.2395 199.462 20.1388C199.611 20.0342 199.685 19.8873 199.685 19.6981V19.668C199.685 19.3581 199.578 19.1186 199.365 18.9496C199.152 18.7805 198.864 18.696 198.502 18.696C198.111 18.696 197.797 18.7805 197.56 18.9496C197.323 19.1186 197.172 19.352 197.107 19.6498L194.385 19.5533C194.465 18.9898 194.672 18.4867 195.006 18.044C195.344 17.5973 195.807 17.2471 196.395 16.9936C196.987 16.736 197.697 16.6072 198.526 16.6072C199.118 16.6072 199.663 16.6777 200.162 16.8185C200.661 16.9554 201.096 17.1566 201.466 17.4222C201.836 17.6838 202.122 18.0058 202.323 18.3881C202.528 18.7705 202.631 19.2071 202.631 19.6981V26.0007H199.854V24.7088H199.782C199.617 25.0227 199.405 25.2883 199.148 25.5057C198.894 25.723 198.594 25.886 198.248 25.9947C197.906 26.1033 197.52 26.1577 197.089 26.1577ZM198.001 24.2258C198.319 24.2258 198.604 24.1614 198.858 24.0327C199.116 23.9039 199.321 23.7268 199.474 23.5014C199.627 23.272 199.703 23.0064 199.703 22.7045V21.8231C199.619 21.8674 199.516 21.9077 199.395 21.9439C199.279 21.9801 199.15 22.0143 199.009 22.0465C198.868 22.0787 198.723 22.1069 198.574 22.131C198.425 22.1552 198.282 22.1773 198.146 22.1974C197.868 22.2417 197.63 22.3101 197.433 22.4027C197.24 22.4953 197.091 22.616 196.987 22.7649C196.886 22.9098 196.836 23.0828 196.836 23.2841C196.836 23.59 196.944 23.8234 197.162 23.9844C197.383 24.1453 197.663 24.2258 198.001 24.2258ZM205.909 29.478C205.555 29.478 205.221 29.4498 204.907 29.3935C204.593 29.3411 204.323 29.2707 204.098 29.1822L204.75 27.039C205.04 27.1356 205.301 27.192 205.535 27.2081C205.772 27.2242 205.976 27.1859 206.145 27.0934C206.318 27.0048 206.45 26.8459 206.543 26.6165L206.658 26.3388L203.362 16.728H206.452L208.161 23.3444H208.257L209.99 16.728H213.099L209.604 26.8881C209.435 27.3952 209.195 27.842 208.885 28.2283C208.579 28.6187 208.183 28.9246 207.696 29.1459C207.213 29.3673 206.617 29.478 205.909 29.478Z" fill="url(#paint1_linear_1_56)"/>
</g>
<defs>
<filter id="filter0_d_1_56" x="2.39972" y="0.39972" width="39.202" height="39.202" filterUnits="userSpaceOnUse" color-interpolation-filters="sRGB">
<feFlood flood-opacity="0" result="BackgroundImageFix"/>
<feColorMatrix in="SourceAlpha" type="matrix" values="0 0 0 0 0 0 0 0 0 0 0 0 0 0 0 0 0 0 127 0" result="hardAlpha"/>
<feOffset/>
<feGaussianBlur stdDeviation="2.80014"/>
<feComposite in2="hardAlpha" operator="out"/>
<feColorMatrix type="matrix" values="0 0 0 0 0 0 0 0 0 0 0 0 0 0 0 0 0 0 0.25 0"/>
<feBlend mode="normal" in2="BackgroundImageFix" result="effect1_dropShadow_1_56"/>
<feBlend mode="normal" in="SourceGraphic" in2="effect1_dropShadow_1_56" result="shape"/>
</filter>
<filter id="filter1_d_1_56" x="36.2871" y="3.78642" width="183.429" height="32.4286" filterUnits="userSpaceOnUse" color-interpolation-filters="sRGB">
<feFlood flood-opacity="0" result="BackgroundImageFix"/>
<feColorMatrix in="SourceAlpha" type="matrix" values="0 0 0 0 0 0 0 0 0 0 0 0 0 0 0 0 0 0 127 0" result="hardAlpha"/>
<feOffset/>
<feGaussianBlur stdDeviation="2.85714"/>
<feComposite in2="hardAlpha" operator="out"/>
<feColorMatrix type="matrix" values="0 0 0 0 0 0 0 0 0 0 0 0 0 0 0 0 0 0 0.25 0"/>
<feBlend mode="normal" in2="BackgroundImageFix" result="effect1_dropShadow_1_56"/>
<feBlend mode="normal" in="SourceGraphic" in2="effect1_dropShadow_1_56" result="shape"/>
</filter>
<linearGradient id="paint0_linear_1_56" x1="111.001" y1="0" x2="111.001" y2="40.0014" gradientUnits="userSpaceOnUse">
<stop stop-color="#13111C"/>
<stop offset="1" stop-color="#0C0B12"/>
</linearGradient>
<linearGradient id="paint1_linear_1_56" x1="149" y1="19.5" x2="213.5" y2="19.5" gradientUnits="userSpaceOnUse">
<stop stop-color="#B63BCE"/>
<stop offset="1" stop-color="#7C26B5"/>
</linearGradient>
</defs>
</svg>
