<svg width="40" height="40" viewBox="0 0 40 40" fill="none" xmlns="http://www.w3.org/2000/svg">
<rect width="40" height="40" rx="8" fill="url(#paint0_linear_1_68)"/>
<rect x="1.05" y="1.05" width="37.9" height="37.9" rx="6.95" stroke="white" stroke-opacity="0.15" stroke-width="2.1"/>
<g filter="url(#filter0_d_1_68)">
<path d="M6.13005 17.9814C6.06334 18.4489 6.01994 18.9194 6 19.3912H27.2679C27.1937 19.2461 27.0939 19.1153 26.9933 18.9873C23.3574 14.2899 21.4015 14.6972 18.6037 14.5778C17.6709 14.5395 17.0383 14.524 13.3253 14.524C11.3381 14.524 9.17762 14.5291 7.07379 14.5347C6.80145 15.2698 6.53878 15.9823 6.41089 16.562H17.3093V17.9814H6.13005ZM27.4356 20.812H6.01091C6.03333 21.1907 6.06866 21.5644 6.11968 21.9331H25.8999C26.7817 21.9331 27.2753 21.4328 27.4356 20.812ZM7.23093 25.8053C7.23093 25.8053 10.5101 33.857 19.9852 34C25.6485 34 30.5145 30.6366 32.7249 25.8053H7.23093Z" fill="white"/>
<path d="M19.9851 6C14.7487 6 10.1921 8.87547 7.78583 13.1261C9.66629 13.1222 13.3285 13.1199 13.3285 13.1199H13.3294V13.1185C17.6581 13.1185 17.819 13.1379 18.6646 13.1732L19.1882 13.1925C21.0121 13.2533 23.2538 13.4491 25.0176 14.7836C25.9751 15.5074 27.3575 17.105 28.1815 18.2431C28.9434 19.2958 29.1625 20.506 28.6445 21.6654C28.1678 22.731 27.142 23.3666 25.8997 23.3666H6.45638C6.45638 23.3666 6.57213 23.8573 6.74568 24.3989H33.2864C33.7577 22.9822 33.9987 21.499 34 20.006C34.0003 12.2714 27.7255 6 19.9851 6Z" fill="white"/>
</g>
<defs>
<filter id="filter0_d_1_68" x="2" y="2" width="36" height="36" filterUnits="userSpaceOnUse" color-interpolation-filters="sRGB">
<feFlood flood-opacity="0" result="BackgroundImageFix"/>
<feColorMatrix in="SourceAlpha" type="matrix" values="0 0 0 0 0 0 0 0 0 0 0 0 0 0 0 0 0 0 127 0" result="hardAlpha"/>
<feOffset/>
<feGaussianBlur stdDeviation="2"/>
<feComposite in2="hardAlpha" operator="out"/>
<feColorMatrix type="matrix" values="0 0 0 0 0 0 0 0 0 0 0 0 0 0 0 0 0 0 0.25 0"/>
<feBlend mode="normal" in2="BackgroundImageFix" result="effect1_dropShadow_1_68"/>
<feBlend mode="normal" in="SourceGraphic" in2="effect1_dropShadow_1_68" result="shape"/>
</filter>
<linearGradient id="paint0_linear_1_68" x1="20" y1="0" x2="20" y2="40" gradientUnits="userSpaceOnUse">
<stop stop-color="#13111C"/>
<stop offset="1" stop-color="#0C0B12"/>
</linearGradient>
</defs>
</svg>
