<svg width="56" height="56" viewBox="0 0 56 56" fill="none" xmlns="http://www.w3.org/2000/svg">
<rect width="56" height="56" rx="8.4" fill="url(#paint0_linear_1_62)"/>
<rect x="1.05" y="1.05" width="53.9" height="53.9" rx="7.35" stroke="white" stroke-opacity="0.15" stroke-width="2.1"/>
<g filter="url(#filter0_d_1_62)">
<path d="M8.18578 25.1162C8.09049 25.7841 8.02849 26.4563 8 27.1303H38.3828C38.2767 26.923 38.1341 26.7361 37.9904 26.5533C32.7963 19.8427 30.0022 20.4245 26.0053 20.254C24.6727 20.1992 23.769 20.1772 18.4648 20.1772C15.6258 20.1772 12.5395 20.1844 9.53398 20.1924C9.14492 21.2426 8.76969 22.2605 8.58699 23.0885H24.1562V25.1162H8.18578ZM38.6223 29.16H8.01559C8.04762 29.7011 8.09809 30.2349 8.17098 30.7615H36.4284C37.6881 30.7615 38.3932 30.0468 38.6223 29.16ZM9.75848 36.2932C9.75848 36.2932 14.443 47.7957 27.9789 48C36.0692 48 43.0207 43.1951 46.1784 36.2932H9.75848Z" fill="white"/>
<path d="M27.9787 8C20.4982 8 13.9887 12.1078 10.5512 18.1802C13.2376 18.1745 18.4693 18.1713 18.4693 18.1713H18.4705V18.1693C24.6545 18.1693 24.8843 18.197 26.0923 18.2474L26.8403 18.275C29.4458 18.3618 32.6483 18.6415 35.1681 20.548C36.5358 21.582 38.5107 23.8643 39.6879 25.4902C40.7762 26.9941 41.0893 28.7229 40.3494 30.3792C39.6683 31.9014 38.2028 32.8095 36.4281 32.8095H8.65197C8.65197 32.8095 8.81732 33.5104 9.06525 34.2841H46.9806C47.6539 32.2602 47.9981 30.1414 48 28.0085C48.0004 16.9592 39.0364 8 27.9787 8Z" fill="white"/>
</g>
<defs>
<filter id="filter0_d_1_62" x="2.28571" y="2.28571" width="51.4286" height="51.4286" filterUnits="userSpaceOnUse" color-interpolation-filters="sRGB">
<feFlood flood-opacity="0" result="BackgroundImageFix"/>
<feColorMatrix in="SourceAlpha" type="matrix" values="0 0 0 0 0 0 0 0 0 0 0 0 0 0 0 0 0 0 127 0" result="hardAlpha"/>
<feOffset/>
<feGaussianBlur stdDeviation="2.85714"/>
<feComposite in2="hardAlpha" operator="out"/>
<feColorMatrix type="matrix" values="0 0 0 0 0 0 0 0 0 0 0 0 0 0 0 0 0 0 0.25 0"/>
<feBlend mode="normal" in2="BackgroundImageFix" result="effect1_dropShadow_1_62"/>
<feBlend mode="normal" in="SourceGraphic" in2="effect1_dropShadow_1_62" result="shape"/>
</filter>
<linearGradient id="paint0_linear_1_62" x1="28" y1="0" x2="28" y2="56" gradientUnits="userSpaceOnUse">
<stop stop-color="#13111C"/>
<stop offset="1" stop-color="#0C0B12"/>
</linearGradient>
</defs>
</svg>
