<svg width="168" height="56" viewBox="0 0 168 56" fill="none" xmlns="http://www.w3.org/2000/svg">
<rect width="168" height="56" rx="8" fill="url(#paint0_linear_1_50)"/>
<rect x="1.05" y="1.05" width="165.9" height="53.9" rx="6.95" stroke="white" stroke-opacity="0.15" stroke-width="2.1"/>
<g filter="url(#filter0_d_1_50)">
<path d="M12.1858 25.1162C12.0905 25.7841 12.0285 26.4563 12 27.1303H42.3828C42.2767 26.923 42.1341 26.7361 41.9904 26.5533C36.7963 19.8427 34.0022 20.4245 30.0053 20.254C28.6727 20.1992 27.769 20.1772 22.4648 20.1772C19.6258 20.1772 16.5395 20.1844 13.534 20.1924C13.1449 21.2426 12.7697 22.2605 12.587 23.0885H28.1562V25.1162H12.1858ZM42.6223 29.16H12.0156C12.0476 29.7011 12.0981 30.2349 12.171 30.7615H40.4284C41.6881 30.7615 42.3932 30.0468 42.6223 29.16ZM13.7585 36.2932C13.7585 36.2932 18.443 47.7957 31.9789 48C40.0692 48 47.0207 43.1951 50.1784 36.2932H13.7585Z" fill="white"/>
<path d="M31.9787 8C24.4982 8 17.9887 12.1078 14.5512 18.1802C17.2376 18.1745 22.4693 18.1713 22.4693 18.1713H22.4705V18.1693C28.6545 18.1693 28.8843 18.197 30.0923 18.2474L30.8403 18.275C33.4458 18.3618 36.6483 18.6415 39.1681 20.548C40.5358 21.582 42.5107 23.8643 43.6879 25.4902C44.7762 26.9941 45.0893 28.7229 44.3494 30.3792C43.6683 31.9014 42.2028 32.8095 40.4281 32.8095H12.652C12.652 32.8095 12.8173 33.5104 13.0653 34.2841H50.9806C51.6539 32.2602 51.9981 30.1414 52 28.0085C52.0004 16.9592 43.0364 8 31.9787 8Z" fill="white"/>
</g>
<g filter="url(#filter1_d_1_50)">
<path d="M65.0454 24.5H61.2784V12.8636H65.1648C66.3049 12.8636 67.2841 13.0966 68.1023 13.5625C68.9204 14.0246 69.5473 14.6894 69.9829 15.5568C70.4223 16.4204 70.642 17.4564 70.642 18.6648C70.642 19.8769 70.4204 20.9186 69.9773 21.7898C69.5379 22.661 68.9015 23.3314 68.0682 23.8011C67.2348 24.267 66.2273 24.5 65.0454 24.5ZM63.0341 22.9659H64.9488C65.8352 22.9659 66.572 22.7992 67.1591 22.4659C67.7462 22.1288 68.1856 21.642 68.4773 21.0057C68.7689 20.3655 68.9148 19.5852 68.9148 18.6648C68.9148 17.7519 68.7689 16.9773 68.4773 16.3409C68.1894 15.7045 67.7595 15.2216 67.1875 14.892C66.6155 14.5625 65.9053 14.3977 65.0568 14.3977H63.0341V22.9659ZM76.4503 24.6761C75.5904 24.6761 74.8499 24.4924 74.2287 24.125C73.6112 23.7538 73.134 23.2329 72.7969 22.5625C72.4635 21.8883 72.2969 21.0985 72.2969 20.1932C72.2969 19.2992 72.4635 18.5114 72.7969 17.8295C73.134 17.1477 73.6037 16.6155 74.2059 16.2329C74.812 15.8504 75.5203 15.6591 76.3309 15.6591C76.8234 15.6591 77.3006 15.7405 77.7628 15.9034C78.2249 16.0663 78.6397 16.322 79.0071 16.6704C79.3745 17.0189 79.6643 17.4716 79.8764 18.0284C80.0885 18.5814 80.1946 19.2538 80.1946 20.0454V20.6477H73.2571V19.375H78.5298C78.5298 18.928 78.4389 18.5322 78.2571 18.1875C78.0753 17.839 77.8196 17.5644 77.49 17.3636C77.1643 17.1629 76.7817 17.0625 76.3423 17.0625C75.865 17.0625 75.4484 17.1799 75.0923 17.4148C74.74 17.6458 74.4673 17.9489 74.2741 18.3239C74.0847 18.6951 73.99 19.0985 73.99 19.5341V20.5284C73.99 21.1117 74.0923 21.6079 74.2969 22.017C74.5052 22.4261 74.795 22.7386 75.1662 22.9545C75.5374 23.1667 75.9711 23.2727 76.4673 23.2727C76.7893 23.2727 77.0828 23.2273 77.348 23.1364C77.6131 23.0417 77.8423 22.9015 78.0355 22.7159C78.2287 22.5303 78.3764 22.3011 78.4787 22.0284L80.0866 22.3182C79.9578 22.7917 79.7268 23.2064 79.3934 23.5625C79.0639 23.9148 78.6491 24.1894 78.1491 24.3864C77.6529 24.5795 77.0866 24.6761 76.4503 24.6761ZM82.0795 27.7727V15.7727H83.7386V17.1875H83.8807C83.9791 17.0057 84.1212 16.7954 84.3068 16.5568C84.4924 16.3182 84.75 16.1098 85.0795 15.9318C85.4091 15.75 85.8447 15.6591 86.3863 15.6591C87.0909 15.6591 87.7197 15.8371 88.2727 16.1932C88.8257 16.5492 89.2594 17.0625 89.5738 17.7329C89.892 18.4034 90.0511 19.2102 90.0511 20.1534C90.0511 21.0966 89.8939 21.9053 89.5795 22.5795C89.2651 23.25 88.8333 23.767 88.2841 24.1307C87.7348 24.4905 87.1079 24.6704 86.4034 24.6704C85.8731 24.6704 85.4394 24.5814 85.1023 24.4034C84.7689 24.2254 84.5076 24.017 84.3182 23.7784C84.1288 23.5398 83.9829 23.3276 83.8807 23.142H83.7784V27.7727H82.0795ZM83.7443 20.1364C83.7443 20.75 83.8333 21.2879 84.0113 21.75C84.1894 22.2121 84.4469 22.5739 84.7841 22.8352C85.1212 23.0928 85.5341 23.2216 86.0227 23.2216C86.5303 23.2216 86.9545 23.0871 87.2954 22.8182C87.6363 22.5454 87.8939 22.1761 88.0682 21.7102C88.2462 21.2443 88.3352 20.7197 88.3352 20.1364C88.3352 19.5606 88.2481 19.0436 88.0738 18.5852C87.9034 18.1269 87.6458 17.7651 87.3011 17.5C86.9602 17.2348 86.5341 17.1023 86.0227 17.1023C85.5303 17.1023 85.1136 17.2292 84.7727 17.4829C84.4356 17.7367 84.1799 18.0909 84.0057 18.5454C83.8314 19 83.7443 19.5303 83.7443 20.1364ZM93.6534 12.8636V24.5H91.9545V12.8636H93.6534ZM99.615 24.6761C98.7968 24.6761 98.0828 24.4886 97.473 24.1136C96.8631 23.7386 96.3897 23.214 96.0525 22.5398C95.7154 21.8655 95.5468 21.0776 95.5468 20.1761C95.5468 19.2708 95.7154 18.4792 96.0525 17.8011C96.3897 17.1231 96.8631 16.5966 97.473 16.2216C98.0828 15.8466 98.7968 15.6591 99.615 15.6591C100.433 15.6591 101.147 15.8466 101.757 16.2216C102.367 16.5966 102.84 17.1231 103.178 17.8011C103.515 18.4792 103.683 19.2708 103.683 20.1761C103.683 21.0776 103.515 21.8655 103.178 22.5398C102.84 23.214 102.367 23.7386 101.757 24.1136C101.147 24.4886 100.433 24.6761 99.615 24.6761ZM99.6207 23.25C100.151 23.25 100.59 23.1098 100.939 22.8295C101.287 22.5492 101.545 22.1761 101.712 21.7102C101.882 21.2443 101.967 20.7311 101.967 20.1704C101.967 19.6136 101.882 19.1023 101.712 18.6364C101.545 18.1667 101.287 17.7898 100.939 17.5057C100.59 17.2216 100.151 17.0795 99.6207 17.0795C99.0866 17.0795 98.6434 17.2216 98.2912 17.5057C97.9427 17.7898 97.6832 18.1667 97.5128 18.6364C97.3461 19.1023 97.2628 19.6136 97.2628 20.1704C97.2628 20.7311 97.3461 21.2443 97.5128 21.7102C97.6832 22.1761 97.9427 22.5492 98.2912 22.8295C98.6434 23.1098 99.0866 23.25 99.6207 23.25ZM106.357 27.7727C106.103 27.7727 105.872 27.7519 105.663 27.7102C105.455 27.6723 105.3 27.6307 105.197 27.5852L105.607 26.1932C105.917 26.2765 106.194 26.3125 106.436 26.3011C106.678 26.2898 106.892 26.1989 107.078 26.0284C107.267 25.8579 107.434 25.5795 107.578 25.1932L107.788 24.6136L104.595 15.7727H106.413L108.624 22.5454H108.714L110.925 15.7727H112.749L109.152 25.6648C108.985 26.1193 108.773 26.5038 108.516 26.8182C108.258 27.1364 107.951 27.375 107.595 27.5341C107.239 27.6932 106.826 27.7727 106.357 27.7727ZM117.81 24.6761C116.95 24.6761 116.209 24.4924 115.588 24.125C114.971 23.7538 114.493 23.2329 114.156 22.5625C113.823 21.8883 113.656 21.0985 113.656 20.1932C113.656 19.2992 113.823 18.5114 114.156 17.8295C114.493 17.1477 114.963 16.6155 115.565 16.2329C116.171 15.8504 116.88 15.6591 117.69 15.6591C118.183 15.6591 118.66 15.7405 119.122 15.9034C119.584 16.0663 119.999 16.322 120.366 16.6704C120.734 17.0189 121.024 17.4716 121.236 18.0284C121.448 18.5814 121.554 19.2538 121.554 20.0454V20.6477H114.616V19.375H119.889C119.889 18.928 119.798 18.5322 119.616 18.1875C119.435 17.839 119.179 17.5644 118.849 17.3636C118.524 17.1629 118.141 17.0625 117.702 17.0625C117.224 17.0625 116.808 17.1799 116.452 17.4148C116.099 17.6458 115.827 17.9489 115.633 18.3239C115.444 18.6951 115.349 19.0985 115.349 19.5341V20.5284C115.349 21.1117 115.452 21.6079 115.656 22.017C115.865 22.4261 116.154 22.7386 116.526 22.9545C116.897 23.1667 117.33 23.2727 117.827 23.2727C118.149 23.2727 118.442 23.2273 118.707 23.1364C118.973 23.0417 119.202 22.9015 119.395 22.7159C119.588 22.5303 119.736 22.3011 119.838 22.0284L121.446 22.3182C121.317 22.7917 121.086 23.2064 120.753 23.5625C120.423 23.9148 120.008 24.1894 119.508 24.3864C119.012 24.5795 118.446 24.6761 117.81 24.6761ZM126.706 24.6704C126.001 24.6704 125.373 24.4905 124.82 24.1307C124.27 23.767 123.839 23.25 123.524 22.5795C123.214 21.9053 123.058 21.0966 123.058 20.1534C123.058 19.2102 123.215 18.4034 123.53 17.7329C123.848 17.0625 124.284 16.5492 124.837 16.1932C125.39 15.8371 126.017 15.6591 126.717 15.6591C127.259 15.6591 127.695 15.75 128.024 15.9318C128.357 16.1098 128.615 16.3182 128.797 16.5568C128.982 16.7954 129.126 17.0057 129.229 17.1875H129.331V12.8636H131.03V24.5H129.371V23.142H129.229C129.126 23.3276 128.979 23.5398 128.785 23.7784C128.596 24.017 128.335 24.2254 128.001 24.4034C127.668 24.5814 127.236 24.6704 126.706 24.6704ZM127.081 23.2216C127.57 23.2216 127.982 23.0928 128.32 22.8352C128.66 22.5739 128.918 22.2121 129.092 21.75C129.27 21.2879 129.359 20.75 129.359 20.1364C129.359 19.5303 129.272 19 129.098 18.5454C128.924 18.0909 128.668 17.7367 128.331 17.4829C127.994 17.2292 127.577 17.1023 127.081 17.1023C126.57 17.1023 126.143 17.2348 125.803 17.5C125.462 17.7651 125.204 18.1269 125.03 18.5852C124.859 19.0436 124.774 19.5606 124.774 20.1364C124.774 20.7197 124.861 21.2443 125.035 21.7102C125.21 22.1761 125.467 22.5454 125.808 22.8182C126.153 23.0871 126.577 23.2216 127.081 23.2216ZM141.365 24.6761C140.547 24.6761 139.833 24.4886 139.223 24.1136C138.613 23.7386 138.14 23.214 137.803 22.5398C137.465 21.8655 137.297 21.0776 137.297 20.1761C137.297 19.2708 137.465 18.4792 137.803 17.8011C138.14 17.1231 138.613 16.5966 139.223 16.2216C139.833 15.8466 140.547 15.6591 141.365 15.6591C142.183 15.6591 142.897 15.8466 143.507 16.2216C144.117 16.5966 144.59 17.1231 144.928 17.8011C145.265 18.4792 145.433 19.2708 145.433 20.1761C145.433 21.0776 145.265 21.8655 144.928 22.5398C144.59 23.214 144.117 23.7386 143.507 24.1136C142.897 24.4886 142.183 24.6761 141.365 24.6761ZM141.371 23.25C141.901 23.25 142.34 23.1098 142.689 22.8295C143.037 22.5492 143.295 22.1761 143.462 21.7102C143.632 21.2443 143.717 20.7311 143.717 20.1704C143.717 19.6136 143.632 19.1023 143.462 18.6364C143.295 18.1667 143.037 17.7898 142.689 17.5057C142.34 17.2216 141.901 17.0795 141.371 17.0795C140.837 17.0795 140.393 17.2216 140.041 17.5057C139.693 17.7898 139.433 18.1667 139.263 18.6364C139.096 19.1023 139.013 19.6136 139.013 20.1704C139.013 20.7311 139.096 21.2443 139.263 21.7102C139.433 22.1761 139.693 22.5492 140.041 22.8295C140.393 23.1098 140.837 23.25 141.371 23.25ZM149.028 19.3182V24.5H147.33V15.7727H148.96V17.1932H149.068C149.269 16.7311 149.583 16.3598 150.011 16.0795C150.443 15.7992 150.987 15.6591 151.642 15.6591C152.237 15.6591 152.758 15.7841 153.205 16.0341C153.651 16.2803 153.998 16.6477 154.244 17.1364C154.49 17.625 154.614 18.2292 154.614 18.9489V24.5H152.915V19.1534C152.915 18.5208 152.75 18.0265 152.42 17.6704C152.091 17.3106 151.638 17.1307 151.062 17.1307C150.669 17.1307 150.318 17.2159 150.011 17.3864C149.708 17.5568 149.468 17.8068 149.29 18.1364C149.115 18.4621 149.028 18.8561 149.028 19.3182Z" fill="#E8E8E8"/>
<path d="M60.9357 43.5V31.1364H66.043C66.9686 31.1364 67.7675 31.3034 68.4396 31.6374C69.1157 31.9674 69.6369 32.4423 70.0032 33.0621C70.3694 33.6779 70.5525 34.4084 70.5525 35.2535C70.5525 36.1108 70.3654 36.8392 69.9911 37.4389C69.6168 38.0346 69.0856 38.4893 68.3974 38.8033C67.7091 39.1132 66.8942 39.2681 65.9524 39.2681H62.7226V36.9137H65.397C65.8478 36.9137 66.2241 36.8553 66.5259 36.7386C66.8318 36.6179 67.0632 36.4368 67.2202 36.1953C67.3771 35.9498 67.4556 35.6359 67.4556 35.2535C67.4556 34.8712 67.3771 34.5553 67.2202 34.3057C67.0632 34.0522 66.8318 33.863 66.5259 33.7383C66.22 33.6095 65.8437 33.5451 65.397 33.5451H63.924V43.5H60.9357ZM67.8963 37.8494L70.9751 43.5H67.7152L64.6967 37.8494H67.8963ZM74.8056 43.6569C74.2139 43.6569 73.6887 43.5583 73.2299 43.3611C72.7751 43.1599 72.4149 42.8581 72.1493 42.4556C71.8877 42.0491 71.7569 41.54 71.7569 40.9283C71.7569 40.4131 71.8475 39.9784 72.0286 39.6243C72.2097 39.2701 72.4592 38.9824 72.7771 38.761C73.0951 38.5396 73.4613 38.3726 73.8759 38.2599C74.2904 38.1432 74.7331 38.0647 75.204 38.0245C75.7312 37.9762 76.1558 37.9259 76.4778 37.8736C76.7998 37.8172 77.0332 37.7387 77.1781 37.6381C77.327 37.5335 77.4014 37.3866 77.4014 37.1974V37.1672C77.4014 36.8574 77.2948 36.6179 77.0815 36.4489C76.8682 36.2798 76.5804 36.1953 76.2182 36.1953C75.8278 36.1953 75.5139 36.2798 75.2764 36.4489C75.039 36.6179 74.8881 36.8513 74.8237 37.1491L72.101 37.0525C72.1815 36.4891 72.3888 35.986 72.7228 35.5433C73.0609 35.0966 73.5237 34.7464 74.1113 34.4929C74.7029 34.2353 75.4133 34.1065 76.2423 34.1065C76.834 34.1065 77.3793 34.177 77.8784 34.3178C78.3774 34.4547 78.8121 34.6559 79.1823 34.9215C79.5526 35.1831 79.8383 35.5051 80.0396 35.8874C80.2448 36.2698 80.3475 36.7064 80.3475 37.1974V43.5H77.5705V42.2081H77.498C77.333 42.522 77.1217 42.7876 76.8641 43.005C76.6106 43.2223 76.3108 43.3853 75.9646 43.494C75.6226 43.6026 75.2362 43.6569 74.8056 43.6569ZM75.7171 41.7251C76.0351 41.7251 76.3208 41.6607 76.5744 41.5319C76.832 41.4032 77.0372 41.2261 77.1901 41.0007C77.3431 40.7713 77.4195 40.5057 77.4195 40.2038V39.3224C77.335 39.3667 77.2324 39.4069 77.1117 39.4432C76.9949 39.4794 76.8662 39.5136 76.7253 39.5458C76.5844 39.578 76.4396 39.6062 76.2906 39.6303C76.1417 39.6545 75.9989 39.6766 75.862 39.6967C75.5843 39.741 75.3469 39.8094 75.1497 39.902C74.9565 39.9945 74.8076 40.1153 74.7029 40.2642C74.6023 40.4091 74.552 40.5821 74.552 40.7834C74.552 41.0892 74.6607 41.3227 74.878 41.4837C75.0994 41.6446 75.3791 41.7251 75.7171 41.7251ZM82.1525 43.5V34.2273H85.1046V43.5H82.1525ZM83.6315 33.1467C83.217 33.1467 82.8608 33.0098 82.563 32.7361C82.2652 32.4584 82.1163 32.1244 82.1163 31.734C82.1163 31.3476 82.2652 31.0176 82.563 30.744C82.8608 30.4663 83.217 30.3274 83.6315 30.3274C84.0501 30.3274 84.4063 30.4663 84.7001 30.744C84.9979 31.0176 85.1468 31.3476 85.1468 31.734C85.1468 32.1244 84.9979 32.4584 84.7001 32.7361C84.4063 33.0098 84.0501 33.1467 83.6315 33.1467ZM89.9356 31.1364V43.5H86.9836V31.1364H89.9356ZM93.5472 43.5L91.1324 34.2273H94.0966L95.3462 40.1676H95.4247L96.7649 34.2273H99.6566L101.033 40.1253H101.111L102.325 34.2273H105.289L102.868 43.5H99.7109L98.262 38.0969H98.1594L96.7106 43.5H93.5472ZM109.088 43.6569C108.496 43.6569 107.971 43.5583 107.512 43.3611C107.057 43.1599 106.697 42.8581 106.432 42.4556C106.17 42.0491 106.039 41.54 106.039 40.9283C106.039 40.4131 106.13 39.9784 106.311 39.6243C106.492 39.2701 106.741 38.9824 107.059 38.761C107.377 38.5396 107.744 38.3726 108.158 38.2599C108.573 38.1432 109.015 38.0647 109.486 38.0245C110.013 37.9762 110.438 37.9259 110.76 37.8736C111.082 37.8172 111.315 37.7387 111.46 37.6381C111.609 37.5335 111.684 37.3866 111.684 37.1974V37.1672C111.684 36.8574 111.577 36.6179 111.364 36.4489C111.15 36.2798 110.863 36.1953 110.5 36.1953C110.11 36.1953 109.796 36.2798 109.559 36.4489C109.321 36.6179 109.17 36.8513 109.106 37.1491L106.383 37.0525C106.464 36.4891 106.671 35.986 107.005 35.5433C107.343 35.0966 107.806 34.7464 108.394 34.4929C108.985 34.2353 109.695 34.1065 110.525 34.1065C111.116 34.1065 111.662 34.177 112.161 34.3178C112.66 34.4547 113.094 34.6559 113.465 34.9215C113.835 35.1831 114.121 35.5051 114.322 35.8874C114.527 36.2698 114.63 36.7064 114.63 37.1974V43.5H111.853V42.2081H111.78C111.615 42.522 111.404 42.7876 111.146 43.005C110.893 43.2223 110.593 43.3853 110.247 43.494C109.905 43.6026 109.518 43.6569 109.088 43.6569ZM109.999 41.7251C110.317 41.7251 110.603 41.6607 110.857 41.5319C111.114 41.4032 111.319 41.2261 111.472 41.0007C111.625 40.7713 111.702 40.5057 111.702 40.2038V39.3224C111.617 39.3667 111.515 39.4069 111.394 39.4432C111.277 39.4794 111.148 39.5136 111.008 39.5458C110.867 39.578 110.722 39.6062 110.573 39.6303C110.424 39.6545 110.281 39.6766 110.144 39.6967C109.867 39.741 109.629 39.8094 109.432 39.902C109.239 39.9945 109.09 40.1153 108.985 40.2642C108.885 40.4091 108.834 40.5821 108.834 40.7834C108.834 41.0892 108.943 41.3227 109.16 41.4837C109.382 41.6446 109.661 41.7251 109.999 41.7251ZM117.908 46.9773C117.554 46.9773 117.22 46.9491 116.906 46.8927C116.592 46.8404 116.322 46.77 116.097 46.6815L116.749 44.5383C117.038 44.6349 117.3 44.6913 117.533 44.7074C117.771 44.7235 117.974 44.6852 118.143 44.5927C118.316 44.5041 118.449 44.3452 118.542 44.1158L118.656 43.8381L115.36 34.2273H118.451L120.16 40.8437H120.256L121.989 34.2273H125.098L121.602 44.3874C121.433 44.8945 121.194 45.3413 120.884 45.7276C120.578 46.118 120.182 46.4239 119.695 46.6452C119.212 46.8666 118.616 46.9773 117.908 46.9773Z" fill="url(#paint1_linear_1_50)"/>
</g>
<defs>
<filter id="filter0_d_1_50" x="6.28571" y="2.28571" width="51.4286" height="51.4286" filterUnits="userSpaceOnUse" color-interpolation-filters="sRGB">
<feFlood flood-opacity="0" result="BackgroundImageFix"/>
<feColorMatrix in="SourceAlpha" type="matrix" values="0 0 0 0 0 0 0 0 0 0 0 0 0 0 0 0 0 0 127 0" result="hardAlpha"/>
<feOffset/>
<feGaussianBlur stdDeviation="2.85714"/>
<feComposite in2="hardAlpha" operator="out"/>
<feColorMatrix type="matrix" values="0 0 0 0 0 0 0 0 0 0 0 0 0 0 0 0 0 0 0.25 0"/>
<feBlend mode="normal" in2="BackgroundImageFix" result="effect1_dropShadow_1_50"/>
<feBlend mode="normal" in="SourceGraphic" in2="effect1_dropShadow_1_50" result="shape"/>
</filter>
<filter id="filter1_d_1_50" x="54.4" y="3.9" width="107.2" height="48.6773" filterUnits="userSpaceOnUse" color-interpolation-filters="sRGB">
<feFlood flood-opacity="0" result="BackgroundImageFix"/>
<feColorMatrix in="SourceAlpha" type="matrix" values="0 0 0 0 0 0 0 0 0 0 0 0 0 0 0 0 0 0 127 0" result="hardAlpha"/>
<feOffset/>
<feGaussianBlur stdDeviation="2.8"/>
<feComposite in2="hardAlpha" operator="out"/>
<feColorMatrix type="matrix" values="0 0 0 0 0 0 0 0 0 0 0 0 0 0 0 0 0 0 0.25 0"/>
<feBlend mode="normal" in2="BackgroundImageFix" result="effect1_dropShadow_1_50"/>
<feBlend mode="normal" in="SourceGraphic" in2="effect1_dropShadow_1_50" result="shape"/>
</filter>
<linearGradient id="paint0_linear_1_50" x1="84" y1="0" x2="84" y2="56" gradientUnits="userSpaceOnUse">
<stop stop-color="#13111C"/>
<stop offset="1" stop-color="#0C0B12"/>
</linearGradient>
<linearGradient id="paint1_linear_1_50" x1="61" y1="37" x2="125" y2="37" gradientUnits="userSpaceOnUse">
<stop stop-color="#B63BCE"/>
<stop offset="1" stop-color="#7C26B5"/>
</linearGradient>
</defs>
</svg>
