<svg width="173" height="40" viewBox="0 0 173 40" fill="none" xmlns="http://www.w3.org/2000/svg">
<rect width="173.001" height="40.0014" rx="8" fill="url(#paint0_linear_1_56)"/>
<rect x="1.07143" y="1.07143" width="170.859" height="37.8585" rx="6.92857" stroke="white" stroke-opacity="0.15" stroke-width="2.14286"/>
<g filter="url(#filter0_d_1_56)">
<path d="M21.9997 9.49991L14.1566 8.78319L8.00002 6.00003H14.9997L21.9997 9.4965" fill="#FBC712"/>
<path d="M21.9997 9.49988L30.312 8.53708L36 6H28.9994L21.9997 9.49647" fill="#FBC712"/>
<path d="M21.9997 30.4996L28.9994 31.3328L36 33.9992H28.9994L21.9997 30.4956" fill="#F6871F"/>
<path d="M21.9997 30.4996L14.9997 31.2519L8 33.9992H14.9997L21.9997 30.4956" fill="#F15E22"/>
<path d="M11.4998 19.9997L10.4667 28.2183L8.00001 33.9992V26.9998L11.4998 19.9957" fill="#FCEE23"/>
<path d="M11.4998 19.9997L10.7128 12.4731L8.00002 6.00003V12.9998L11.4998 19.9957" fill="#FCEE23"/>
<path d="M32.4996 19.9997L33.5096 12.391L35.9994 6.00001V12.9998L32.4996 19.9957" fill="#F04923"/>
<path d="M32.4996 19.9997L33.1824 27.7261L35.9994 33.9992V26.9998L32.4996 19.9957" fill="#F04923"/>
<path d="M8.00002 6.00003L21.9997 9.49991V19.9938H11.4998L8.00002 6.00718" fill="#F8B218"/>
<path d="M8.00001 33.9992L11.4998 19.9997L21.9997 19.9938V30.4916L8.00001 33.9849" fill="#F89D1C"/>
<path d="M36 6.00001L32.4996 19.9992L21.9997 19.9938V9.49933L36 6.00716" fill="#F37321"/>
<path d="M36 33.9992L21.9997 30.4996V19.9938L32.4996 19.9997L36 33.9849" fill="#F15E22"/>
<path d="M21.9997 9.49988L11.4998 19.9997L21.9997 30.4996L32.4996 19.9992L21.9997 9.49647" fill="#F6871F"/>
</g>
<g filter="url(#filter1_d_1_56)">
<path d="M43.3597 26.5007V14.1371H47.8874C48.7648 14.1371 49.4912 14.282 50.0667 14.5717C50.6423 14.8575 51.0729 15.2458 51.3586 15.7369C51.6444 16.2238 51.7873 16.7732 51.7873 17.3849C51.7873 17.9001 51.6927 18.3347 51.5035 18.6889C51.3144 19.0391 51.0608 19.3208 50.7429 19.5341C50.429 19.7434 50.0828 19.8963 49.7045 19.9929V20.1136C50.115 20.1337 50.5155 20.2666 50.9059 20.5121C51.3003 20.7535 51.6263 21.0976 51.8839 21.5444C52.1414 21.9911 52.2702 22.5344 52.2702 23.1743C52.2702 23.8062 52.1213 24.3737 51.8235 24.8768C51.5297 25.3758 51.0749 25.7722 50.4591 26.066C49.8434 26.3558 49.0566 26.5007 48.0987 26.5007H43.3597ZM45.2251 24.9009H47.9176C48.8111 24.9009 49.451 24.7279 49.8373 24.3817C50.2237 24.0356 50.4169 23.603 50.4169 23.0838C50.4169 22.6934 50.3183 22.3352 50.1211 22.0092C49.9239 21.6832 49.6421 21.4236 49.2759 21.2305C48.9137 21.0373 48.483 20.9407 47.984 20.9407H45.2251V24.9009ZM45.2251 19.4858H47.7244C48.143 19.4858 48.5193 19.4053 48.8533 19.2443C49.1914 19.0833 49.459 18.8579 49.6562 18.5682C49.8575 18.2744 49.9581 17.9283 49.9581 17.5298C49.9581 17.0187 49.779 16.5901 49.4208 16.244C49.0626 15.8978 48.5132 15.7248 47.7727 15.7248H45.2251V19.4858ZM60.2118 22.6552V17.228H62.0229V26.5007H60.248V24.8949H60.1514C59.9381 25.3899 59.596 25.8024 59.1251 26.1324C58.6583 26.4584 58.0767 26.6214 57.3805 26.6214C56.7848 26.6214 56.2576 26.4906 55.7988 26.229C55.344 25.9634 54.9858 25.571 54.7242 25.0518C54.4667 24.5327 54.3379 23.8907 54.3379 23.1261V17.228H56.1429V22.9087C56.1429 23.5406 56.318 24.0437 56.6681 24.418C57.0183 24.7922 57.473 24.9794 58.0325 24.9794C58.3705 24.9794 58.7066 24.8949 59.0406 24.7258C59.3787 24.5568 59.6584 24.3012 59.8798 23.9591C60.1051 23.6171 60.2158 23.1824 60.2118 22.6552ZM64.4482 26.5007V17.228H66.2533V26.5007H64.4482ZM65.3598 15.7972C65.0459 15.7972 64.7762 15.6926 64.5508 15.4833C64.3295 15.27 64.2188 15.0164 64.2188 14.7226C64.2188 14.4248 64.3295 14.1713 64.5508 13.962C64.7762 13.7487 65.0459 13.642 65.3598 13.642C65.6737 13.642 65.9413 13.7487 66.1627 13.962C66.3881 14.1713 66.5008 14.4248 66.5008 14.7226C66.5008 15.0164 66.3881 15.27 66.1627 15.4833C65.9413 15.6926 65.6737 15.7972 65.3598 15.7972ZM70.4867 14.1371V26.5007H68.6816V14.1371H70.4867ZM77.2435 17.228V18.6768H72.1785V17.228H77.2435ZM73.5368 15.0064H75.3419V23.778C75.3419 24.1282 75.3942 24.3918 75.4988 24.5689C75.6035 24.7419 75.7383 24.8607 75.9033 24.9251C76.0723 24.9854 76.2554 25.0156 76.4526 25.0156C76.5975 25.0156 76.7243 25.0056 76.833 24.9854C76.9416 24.9653 77.0262 24.9492 77.0865 24.9371L77.4125 26.4283C77.3079 26.4685 77.159 26.5087 76.9658 26.549C76.7726 26.5933 76.5311 26.6174 76.2414 26.6214C75.7664 26.6295 75.3237 26.545 74.9132 26.3679C74.5027 26.1908 74.1707 25.9171 73.9171 25.5469C73.6636 25.1766 73.5368 24.7118 73.5368 24.1523V15.0064ZM85.7495 26.5007L83.0208 17.228H84.8862L86.7034 24.0376H86.7939L88.6171 17.228H90.4825L92.2936 24.0074H92.3841L94.1891 17.228H96.0546L93.3319 26.5007H91.4906L89.6071 19.8057H89.4683L87.5847 26.5007H85.7495ZM97.7675 26.5007V17.228H99.5726V26.5007H97.7675ZM98.6791 15.7972C98.3652 15.7972 98.0955 15.6926 97.8702 15.4833C97.6488 15.27 97.5381 15.0164 97.5381 14.7226C97.5381 14.4248 97.6488 14.1713 97.8702 13.962C98.0955 13.7487 98.3652 13.642 98.6791 13.642C98.993 13.642 99.2607 13.7487 99.482 13.962C99.7074 14.1713 99.8201 14.4248 99.8201 14.7226C99.8201 15.0164 99.7074 15.27 99.482 15.4833C99.2607 15.6926 98.993 15.7972 98.6791 15.7972ZM106.329 17.228V18.6768H101.264V17.228H106.329ZM102.623 15.0064H104.428V23.778C104.428 24.1282 104.48 24.3918 104.585 24.5689C104.689 24.7419 104.824 24.8607 104.989 24.9251C105.158 24.9854 105.341 25.0156 105.539 25.0156C105.683 25.0156 105.81 25.0056 105.919 24.9854C106.028 24.9653 106.112 24.9492 106.172 24.9371L106.498 26.4283C106.394 26.4685 106.245 26.5087 106.052 26.549C105.859 26.5933 105.617 26.6174 105.327 26.6214C104.852 26.6295 104.41 26.545 103.999 26.3679C103.589 26.1908 103.257 25.9171 103.003 25.5469C102.75 25.1766 102.623 24.7118 102.623 24.1523V15.0064ZM110.33 20.995V26.5007H108.525V14.1371H110.306V18.7372H110.421C110.638 18.2382 110.97 17.8417 111.417 17.5479C111.864 17.2541 112.447 17.1072 113.168 17.1072C113.804 17.1072 114.359 17.238 114.834 17.4996C115.313 17.7612 115.683 18.1516 115.945 18.6708C116.21 19.1859 116.343 19.8299 116.343 20.6026V26.5007H114.538V20.8199C114.538 20.1398 114.363 19.6126 114.013 19.2383C113.663 18.86 113.176 18.6708 112.552 18.6708C112.125 18.6708 111.743 18.7614 111.405 18.9425C111.071 19.1236 110.807 19.3892 110.614 19.7393C110.425 20.0855 110.33 20.504 110.33 20.995Z" fill="#E8E8E8"/>
<path d="M122.937 26.0007V13.6371H125.925V18.5994H130.797V13.6371H133.779V26.0007H130.797V21.0323H125.925V26.0007H122.937ZM138.268 26.1577C137.676 26.1577 137.151 26.0591 136.692 25.8618C136.237 25.6606 135.877 25.3588 135.612 24.9563C135.35 24.5498 135.219 24.0407 135.219 23.429C135.219 22.9138 135.31 22.4792 135.491 22.125C135.672 21.7708 135.922 21.4831 136.239 21.2617C136.557 21.0404 136.924 20.8733 137.338 20.7606C137.753 20.6439 138.195 20.5654 138.666 20.5252C139.194 20.4769 139.618 20.4266 139.94 20.3743C140.262 20.3179 140.496 20.2395 140.64 20.1388C140.789 20.0342 140.864 19.8873 140.864 19.6981V19.668C140.864 19.3581 140.757 19.1186 140.544 18.9496C140.33 18.7805 140.043 18.696 139.681 18.696C139.29 18.696 138.976 18.7805 138.739 18.9496C138.501 19.1186 138.35 19.352 138.286 19.6498L135.563 19.5533C135.644 18.9898 135.851 18.4867 136.185 18.044C136.523 17.5973 136.986 17.2471 137.574 16.9936C138.165 16.736 138.876 16.6072 139.705 16.6072C140.296 16.6072 140.842 16.6777 141.341 16.8185C141.84 16.9554 142.274 17.1566 142.645 17.4222C143.015 17.6838 143.301 18.0058 143.502 18.3881C143.707 18.7705 143.81 19.2071 143.81 19.6981V26.0007H141.033V24.7088H140.96C140.795 25.0227 140.584 25.2883 140.326 25.5057C140.073 25.723 139.773 25.886 139.427 25.9947C139.085 26.1033 138.699 26.1577 138.268 26.1577ZM139.179 24.2258C139.497 24.2258 139.783 24.1614 140.037 24.0327C140.294 23.9039 140.5 23.7268 140.652 23.5014C140.805 23.272 140.882 23.0064 140.882 22.7045V21.8231C140.797 21.8674 140.695 21.9077 140.574 21.9439C140.457 21.9801 140.328 22.0143 140.188 22.0465C140.047 22.0787 139.902 22.1069 139.753 22.131C139.604 22.1552 139.461 22.1773 139.324 22.1974C139.047 22.2417 138.809 22.3101 138.612 22.4027C138.419 22.4953 138.27 22.616 138.165 22.7649C138.065 22.9098 138.014 23.0828 138.014 23.2841C138.014 23.59 138.123 23.8234 138.34 23.9844C138.562 24.1453 138.841 24.2258 139.179 24.2258ZM148.126 16.728L149.654 19.7827L151.235 16.728H154.211L151.622 21.3643L154.308 26.0007H151.356L149.654 22.9219L147.993 26.0007H144.999L147.692 21.3643L145.132 16.728H148.126ZM159.562 26.1758C158.592 26.1758 157.755 25.9846 157.05 25.6023C156.35 25.2159 155.811 24.6665 155.432 23.9542C155.058 23.2378 154.871 22.3866 154.871 21.4006C154.871 20.4427 155.06 19.6056 155.438 18.8892C155.817 18.1688 156.35 17.6094 157.038 17.2109C157.726 16.8085 158.537 16.6072 159.471 16.6072C160.131 16.6072 160.735 16.7099 161.282 16.9151C161.83 17.1204 162.302 17.4242 162.701 17.8267C163.099 18.2292 163.409 18.7262 163.631 19.3178C163.852 19.9054 163.963 20.5795 163.963 21.3402V22.0767H155.903V20.3622H161.216C161.212 20.0483 161.137 19.7686 160.992 19.5231C160.848 19.2776 160.648 19.0864 160.395 18.9496C160.145 18.8087 159.857 18.7383 159.531 18.7383C159.201 18.7383 158.906 18.8127 158.644 18.9616C158.382 19.1065 158.175 19.3057 158.022 19.5593C157.869 19.8088 157.789 20.0926 157.781 20.4105V22.1552C157.781 22.5335 157.855 22.8655 158.004 23.1513C158.153 23.433 158.364 23.6523 158.638 23.8093C158.912 23.9663 159.238 24.0447 159.616 24.0447C159.878 24.0447 160.115 24.0085 160.328 23.9361C160.542 23.8636 160.725 23.757 160.878 23.6161C161.031 23.4752 161.145 23.3022 161.222 23.0969L163.932 23.1754C163.82 23.7831 163.572 24.3124 163.19 24.7631C162.812 25.2099 162.314 25.558 161.699 25.8075C161.083 26.053 160.371 26.1758 159.562 26.1758Z" fill="#EA8220"/>
</g>
<defs>
<filter id="filter0_d_1_56" x="2.39972" y="0.39972" width="39.202" height="39.202" filterUnits="userSpaceOnUse" color-interpolation-filters="sRGB">
<feFlood flood-opacity="0" result="BackgroundImageFix"/>
<feColorMatrix in="SourceAlpha" type="matrix" values="0 0 0 0 0 0 0 0 0 0 0 0 0 0 0 0 0 0 127 0" result="hardAlpha"/>
<feOffset/>
<feGaussianBlur stdDeviation="2.80014"/>
<feComposite in2="hardAlpha" operator="out"/>
<feColorMatrix type="matrix" values="0 0 0 0 0 0 0 0 0 0 0 0 0 0 0 0 0 0 0.25 0"/>
<feBlend mode="normal" in2="BackgroundImageFix" result="effect1_dropShadow_1_56"/>
<feBlend mode="normal" in="SourceGraphic" in2="effect1_dropShadow_1_56" result="shape"/>
</filter>
<filter id="filter1_d_1_56" x="36.2871" y="3.78642" width="134.429" height="32.4286" filterUnits="userSpaceOnUse" color-interpolation-filters="sRGB">
<feFlood flood-opacity="0" result="BackgroundImageFix"/>
<feColorMatrix in="SourceAlpha" type="matrix" values="0 0 0 0 0 0 0 0 0 0 0 0 0 0 0 0 0 0 127 0" result="hardAlpha"/>
<feOffset/>
<feGaussianBlur stdDeviation="2.85714"/>
<feComposite in2="hardAlpha" operator="out"/>
<feColorMatrix type="matrix" values="0 0 0 0 0 0 0 0 0 0 0 0 0 0 0 0 0 0 0.25 0"/>
<feBlend mode="normal" in2="BackgroundImageFix" result="effect1_dropShadow_1_56"/>
<feBlend mode="normal" in="SourceGraphic" in2="effect1_dropShadow_1_56" result="shape"/>
</filter>
<linearGradient id="paint0_linear_1_56" x1="86.5007" y1="0" x2="86.5007" y2="40.0014" gradientUnits="userSpaceOnUse">
<stop stop-color="#552D08"/>
<stop offset="1" stop-color="#311A05"/>
</linearGradient>
</defs>
</svg>
