<svg width="144" height="56" viewBox="0 0 144 56" fill="none" xmlns="http://www.w3.org/2000/svg">
<rect width="144" height="56" rx="8" fill="url(#paint0_linear_1_50)"/>
<rect x="1.05" y="1.05" width="141.9" height="53.9" rx="6.95" stroke="white" stroke-opacity="0.15" stroke-width="2.1"/>
<g filter="url(#filter0_d_1_50)">
<path d="M31.9996 12.9999L20.7951 11.976L12 8.00003H21.9996L31.9996 12.995" fill="#FBC712"/>
<path d="M31.9995 12.9998L43.8743 11.6244L52 8H41.9992L31.9995 12.995" fill="#FBC712"/>
<path d="M31.9995 42.9994L41.9992 44.1897L52 47.9989H41.9992L31.9995 42.9937" fill="#F6871F"/>
<path d="M31.9995 42.9994L21.9995 44.0742L12 47.9989H21.9995L31.9995 42.9937" fill="#F15E22"/>
<path d="M16.9997 27.9995L15.5239 39.7404L12 47.9989V37.9997L16.9997 27.9939" fill="#FCEE23"/>
<path d="M16.9997 27.9996L15.8754 17.2472L12 8.00003V17.9997L16.9997 27.9939" fill="#FCEE23"/>
<path d="M46.9994 27.9995L48.4423 17.13L51.9992 8.00001V17.9997L46.9994 27.9939" fill="#F04923"/>
<path d="M46.9994 27.9995L47.9748 39.0373L51.9992 47.9989V37.9997L46.9994 27.9939" fill="#F04923"/>
<path d="M12 8.00003L31.9996 12.9999V27.9912H16.9997L12 8.01025" fill="#F8B218"/>
<path d="M12 47.9989L16.9997 27.9995L31.9995 27.9912V42.988L12 47.9784" fill="#F89D1C"/>
<path d="M52 8.00001L46.9994 27.9989L31.9995 27.9911V12.999L52 8.01022" fill="#F37321"/>
<path d="M52 47.9989L31.9995 42.9994V27.9912L46.9994 27.9995L52 47.9784" fill="#F15E22"/>
<path d="M31.9995 12.9998L16.9997 27.9995L31.9995 42.9994L46.9994 27.9989L31.9995 12.995" fill="#F6871F"/>
</g>
<g filter="url(#filter1_d_1_50)">
<path d="M61.2784 24.5V12.8636H65.5398C66.3655 12.8636 67.0492 13 67.5909 13.2727C68.1326 13.5417 68.5379 13.9072 68.8068 14.3693C69.0757 14.8276 69.2102 15.3447 69.2102 15.9204C69.2102 16.4053 69.1212 16.8144 68.9432 17.1477C68.7651 17.4773 68.5265 17.7424 68.2273 17.9432C67.9318 18.1401 67.606 18.2841 67.25 18.375V18.4886C67.6363 18.5076 68.0132 18.6326 68.3807 18.8636C68.7519 19.0909 69.0587 19.4148 69.3011 19.8352C69.5435 20.2557 69.6648 20.767 69.6648 21.3693C69.6648 21.964 69.5246 22.4981 69.2443 22.9716C68.9678 23.4413 68.5398 23.8144 67.9602 24.0909C67.3807 24.3636 66.6401 24.5 65.7386 24.5H61.2784ZM63.0341 22.9943H65.5682C66.4091 22.9943 67.0113 22.8314 67.375 22.5057C67.7386 22.1799 67.9204 21.7727 67.9204 21.2841C67.9204 20.9167 67.8276 20.5795 67.642 20.2727C67.4564 19.9659 67.1913 19.7216 66.8466 19.5398C66.5057 19.3579 66.1004 19.267 65.6307 19.267H63.0341V22.9943ZM63.0341 17.8977H65.3863C65.7803 17.8977 66.1345 17.822 66.4488 17.6704C66.767 17.5189 67.0189 17.3068 67.2045 17.0341C67.3939 16.7576 67.4886 16.4318 67.4886 16.0568C67.4886 15.5758 67.3201 15.1723 66.9829 14.8466C66.6458 14.5208 66.1288 14.3579 65.4318 14.3579H63.0341V17.8977ZM77.1392 20.8807V15.7727H78.8437V24.5H77.1733V22.9886H77.0824C76.8816 23.4545 76.5596 23.8428 76.1165 24.1534C75.6771 24.4602 75.1297 24.6136 74.4744 24.6136C73.9138 24.6136 73.4176 24.4905 72.9858 24.2443C72.5577 23.9943 72.2206 23.625 71.9744 23.1364C71.732 22.6477 71.6108 22.0436 71.6108 21.3239V15.7727H73.3096V21.1193C73.3096 21.714 73.4744 22.1875 73.804 22.5398C74.1335 22.892 74.5615 23.0682 75.088 23.0682C75.4062 23.0682 75.7225 22.9886 76.0369 22.8295C76.3551 22.6704 76.6184 22.4299 76.8267 22.1079C77.0388 21.786 77.143 21.3769 77.1392 20.8807ZM81.1264 24.5V15.7727H82.8253V24.5H81.1264ZM81.9844 14.4261C81.6889 14.4261 81.4351 14.3276 81.223 14.1307C81.0147 13.9299 80.9105 13.6913 80.9105 13.4148C80.9105 13.1345 81.0147 12.8958 81.223 12.6989C81.4351 12.4981 81.6889 12.3977 81.9844 12.3977C82.2798 12.3977 82.5317 12.4981 82.74 12.6989C82.9522 12.8958 83.0582 13.1345 83.0582 13.4148C83.0582 13.6913 82.9522 13.9299 82.74 14.1307C82.5317 14.3276 82.2798 14.4261 81.9844 14.4261ZM86.8096 12.8636V24.5H85.1108V12.8636H86.8096ZM93.169 15.7727V17.1364H88.402V15.7727H93.169ZM89.6804 13.6818H91.3792V21.9375C91.3792 22.267 91.4285 22.5151 91.527 22.6818C91.6254 22.8447 91.7523 22.9564 91.9076 23.017C92.0667 23.0739 92.2391 23.1023 92.4247 23.1023C92.5611 23.1023 92.6804 23.0928 92.7826 23.0739C92.8849 23.0549 92.9645 23.0398 93.0213 23.0284L93.3281 24.4318C93.2296 24.4697 93.0895 24.5076 92.9076 24.5454C92.7258 24.5871 92.4986 24.6098 92.2258 24.6136C91.7789 24.6212 91.3622 24.5417 90.9758 24.375C90.5895 24.2083 90.277 23.9508 90.0383 23.6023C89.7997 23.2538 89.6804 22.8163 89.6804 22.2898V13.6818ZM101.175 24.5L98.6065 15.7727H100.362L102.072 22.1818H102.158L103.874 15.7727H105.629L107.334 22.1534H107.419L109.118 15.7727H110.874L108.311 24.5H106.578L104.805 18.1989H104.675L102.902 24.5H101.175ZM112.486 24.5V15.7727H114.185V24.5H112.486ZM113.344 14.4261C113.048 14.4261 112.794 14.3276 112.582 14.1307C112.374 13.9299 112.27 13.6913 112.27 13.4148C112.27 13.1345 112.374 12.8958 112.582 12.6989C112.794 12.4981 113.048 12.3977 113.344 12.3977C113.639 12.3977 113.891 12.4981 114.099 12.6989C114.312 12.8958 114.418 13.1345 114.418 13.4148C114.418 13.6913 114.312 13.9299 114.099 14.1307C113.891 14.3276 113.639 14.4261 113.344 14.4261ZM120.544 15.7727V17.1364H115.777V15.7727H120.544ZM117.055 13.6818H118.754V21.9375C118.754 22.267 118.803 22.5151 118.902 22.6818C119 22.8447 119.127 22.9564 119.283 23.017C119.442 23.0739 119.614 23.1023 119.8 23.1023C119.936 23.1023 120.055 23.0928 120.158 23.0739C120.26 23.0549 120.339 23.0398 120.396 23.0284L120.703 24.4318C120.605 24.4697 120.464 24.5076 120.283 24.5454C120.101 24.5871 119.874 24.6098 119.601 24.6136C119.154 24.6212 118.737 24.5417 118.351 24.375C117.964 24.2083 117.652 23.9508 117.413 23.6023C117.175 23.2538 117.055 22.8163 117.055 22.2898V13.6818ZM124.31 19.3182V24.5H122.611V12.8636H124.287V17.1932H124.395C124.599 16.7235 124.912 16.3504 125.332 16.0739C125.753 15.7973 126.302 15.6591 126.98 15.6591C127.579 15.6591 128.101 15.7822 128.548 16.0284C128.999 16.2746 129.348 16.642 129.594 17.1307C129.844 17.6155 129.969 18.2216 129.969 18.9489V24.5H128.27V19.1534C128.27 18.5133 128.105 18.017 127.776 17.6648C127.446 17.3087 126.988 17.1307 126.401 17.1307C125.999 17.1307 125.639 17.2159 125.321 17.3864C125.007 17.5568 124.758 17.8068 124.577 18.1364C124.399 18.4621 124.31 18.8561 124.31 19.3182Z" fill="#E8E8E8"/>
<path d="M60.9357 43.5V31.1364H63.924V36.0987H68.7958V31.1364H71.778V43.5H68.7958V38.5316H63.924V43.5H60.9357ZM76.2665 43.6569C75.6749 43.6569 75.1497 43.5583 74.6909 43.3611C74.2361 43.1599 73.8759 42.8581 73.6102 42.4556C73.3486 42.0491 73.2178 41.54 73.2178 40.9283C73.2178 40.4131 73.3084 39.9784 73.4895 39.6243C73.6706 39.2701 73.9201 38.9824 74.2381 38.761C74.556 38.5396 74.9223 38.3726 75.3368 38.2599C75.7513 38.1432 76.194 38.0647 76.6649 38.0245C77.1922 37.9762 77.6168 37.9259 77.9387 37.8736C78.2607 37.8172 78.4941 37.7387 78.639 37.6381C78.7879 37.5335 78.8624 37.3866 78.8624 37.1974V37.1672C78.8624 36.8574 78.7557 36.6179 78.5424 36.4489C78.3291 36.2798 78.0414 36.1953 77.6791 36.1953C77.2887 36.1953 76.9748 36.2798 76.7374 36.4489C76.4999 36.6179 76.349 36.8513 76.2846 37.1491L73.5619 37.0525C73.6424 36.4891 73.8497 35.986 74.1838 35.5433C74.5218 35.0966 74.9847 34.7464 75.5722 34.4929C76.1639 34.2353 76.8742 34.1065 77.7033 34.1065C78.2949 34.1065 78.8402 34.177 79.3393 34.3178C79.8383 34.4547 80.273 34.6559 80.6433 34.9215C81.0135 35.1831 81.2993 35.5051 81.5005 35.8874C81.7058 36.2698 81.8084 36.7064 81.8084 37.1974V43.5H79.0314V42.2081H78.959C78.794 42.522 78.5827 42.7876 78.3251 43.005C78.0715 43.2223 77.7717 43.3853 77.4256 43.494C77.0835 43.6026 76.6971 43.6569 76.2665 43.6569ZM77.1781 41.7251C77.496 41.7251 77.7818 41.6607 78.0353 41.5319C78.2929 41.4032 78.4981 41.2261 78.6511 41.0007C78.804 40.7713 78.8805 40.5057 78.8805 40.2038V39.3224C78.796 39.3667 78.6933 39.4069 78.5726 39.4432C78.4559 39.4794 78.3271 39.5136 78.1862 39.5458C78.0454 39.578 77.9005 39.6062 77.7516 39.6303C77.6027 39.6545 77.4598 39.6766 77.323 39.6967C77.0453 39.741 76.8078 39.8094 76.6106 39.902C76.4174 39.9945 76.2685 40.1153 76.1639 40.2642C76.0632 40.4091 76.0129 40.5821 76.0129 40.7834C76.0129 41.0892 76.1216 41.3227 76.3389 41.4837C76.5603 41.6446 76.84 41.7251 77.1781 41.7251ZM86.1248 34.2273L87.6521 37.2819L89.2338 34.2273H92.21L89.6202 38.8636L92.3066 43.5H89.3546L87.6521 40.4212L85.992 43.5H82.9977L85.6901 38.8636L83.1305 34.2273H86.1248ZM97.5603 43.6751C96.5903 43.6751 95.7532 43.4839 95.0489 43.1016C94.3486 42.7152 93.8093 42.1658 93.431 41.4535C93.0567 40.7371 92.8696 39.8859 92.8696 38.8998C92.8696 37.942 93.0587 37.1049 93.437 36.3885C93.8153 35.6681 94.3486 35.1087 95.0368 34.7102C95.725 34.3078 96.536 34.1065 97.4697 34.1065C98.1297 34.1065 98.7334 34.2092 99.2808 34.4144C99.8281 34.6197 100.301 34.9235 100.699 35.326C101.098 35.7284 101.408 36.2255 101.629 36.8171C101.85 37.4047 101.961 38.0788 101.961 38.8395V39.576H93.9019V37.8615H99.2144C99.2103 37.5476 99.1359 37.2679 98.991 37.0224C98.8461 36.7769 98.6469 36.5857 98.3934 36.4489C98.1438 36.308 97.8561 36.2376 97.5301 36.2376C97.2001 36.2376 96.9042 36.312 96.6426 36.4609C96.381 36.6058 96.1738 36.805 96.0208 37.0586C95.8679 37.3081 95.7874 37.5918 95.7794 37.9098V39.6545C95.7794 40.0328 95.8538 40.3648 96.0027 40.6506C96.1516 40.9323 96.3629 41.1516 96.6366 41.3086C96.9103 41.4655 97.2363 41.544 97.6146 41.544C97.8762 41.544 98.1136 41.5078 98.3269 41.4354C98.5402 41.3629 98.7234 41.2563 98.8763 41.1154C99.0292 40.9745 99.1439 40.8015 99.2204 40.5962L101.931 40.6747C101.818 41.2824 101.571 41.8117 101.188 42.2624C100.81 42.7092 100.313 43.0573 99.6973 43.3068C99.0816 43.5523 98.3692 43.6751 97.5603 43.6751Z" fill="#EA8220"/>
</g>
<defs>
<filter id="filter0_d_1_50" x="6.28571" y="2.28571" width="51.4286" height="51.4286" filterUnits="userSpaceOnUse" color-interpolation-filters="sRGB">
<feFlood flood-opacity="0" result="BackgroundImageFix"/>
<feColorMatrix in="SourceAlpha" type="matrix" values="0 0 0 0 0 0 0 0 0 0 0 0 0 0 0 0 0 0 127 0" result="hardAlpha"/>
<feOffset/>
<feGaussianBlur stdDeviation="2.85714"/>
<feComposite in2="hardAlpha" operator="out"/>
<feColorMatrix type="matrix" values="0 0 0 0 0 0 0 0 0 0 0 0 0 0 0 0 0 0 0.25 0"/>
<feBlend mode="normal" in2="BackgroundImageFix" result="effect1_dropShadow_1_50"/>
<feBlend mode="normal" in="SourceGraphic" in2="effect1_dropShadow_1_50" result="shape"/>
</filter>
<filter id="filter1_d_1_50" x="54.4" y="3.9" width="83.2" height="48.2" filterUnits="userSpaceOnUse" color-interpolation-filters="sRGB">
<feFlood flood-opacity="0" result="BackgroundImageFix"/>
<feColorMatrix in="SourceAlpha" type="matrix" values="0 0 0 0 0 0 0 0 0 0 0 0 0 0 0 0 0 0 127 0" result="hardAlpha"/>
<feOffset/>
<feGaussianBlur stdDeviation="2.8"/>
<feComposite in2="hardAlpha" operator="out"/>
<feColorMatrix type="matrix" values="0 0 0 0 0 0 0 0 0 0 0 0 0 0 0 0 0 0 0.25 0"/>
<feBlend mode="normal" in2="BackgroundImageFix" result="effect1_dropShadow_1_50"/>
<feBlend mode="normal" in="SourceGraphic" in2="effect1_dropShadow_1_50" result="shape"/>
</filter>
<linearGradient id="paint0_linear_1_50" x1="72" y1="0" x2="72" y2="56" gradientUnits="userSpaceOnUse">
<stop stop-color="#552D08"/>
<stop offset="1" stop-color="#311A05"/>
</linearGradient>
</defs>
</svg>
