<svg width="56" height="56" viewBox="0 0 56 56" fill="none" xmlns="http://www.w3.org/2000/svg">
<rect width="56" height="56" rx="8.4" fill="url(#paint0_linear_1_62)"/>
<rect x="1.05" y="1.05" width="53.9" height="53.9" rx="7.35" stroke="white" stroke-opacity="0.15" stroke-width="2.1"/>
<g filter="url(#filter0_d_1_62)">
<path d="M27.9996 12.9999L16.7951 11.976L8.00002 8.00003H17.9996L27.9996 12.995" fill="#FBC712"/>
<path d="M27.9995 12.9998L39.8743 11.6244L48 8H37.9992L27.9995 12.995" fill="#FBC712"/>
<path d="M27.9995 42.9994L37.9992 44.1897L48 47.9989H37.9992L27.9995 42.9937" fill="#F6871F"/>
<path d="M27.9995 42.9994L17.9995 44.0742L8 47.9989H17.9995L27.9995 42.9937" fill="#F15E22"/>
<path d="M12.9997 27.9995L11.5239 39.7404L8.00001 47.9989V37.9997L12.9997 27.9939" fill="#FCEE23"/>
<path d="M12.9997 27.9996L11.8754 17.2472L8.00002 8.00003V17.9997L12.9997 27.9939" fill="#FCEE23"/>
<path d="M42.9994 27.9995L44.4423 17.13L47.9992 8.00001V17.9997L42.9994 27.9939" fill="#F04923"/>
<path d="M42.9994 27.9995L43.9748 39.0373L47.9992 47.9989V37.9997L42.9994 27.9939" fill="#F04923"/>
<path d="M8.00002 8.00003L27.9996 12.9999V27.9912H12.9997L8.00002 8.01025" fill="#F8B218"/>
<path d="M8.00001 47.9989L12.9997 27.9995L27.9995 27.9912V42.988L8.00001 47.9784" fill="#F89D1C"/>
<path d="M48 8.00001L42.9994 27.9989L27.9995 27.9911V12.999L48 8.01022" fill="#F37321"/>
<path d="M48 47.9989L27.9995 42.9994V27.9912L42.9994 27.9995L48 47.9784" fill="#F15E22"/>
<path d="M27.9995 12.9998L12.9997 27.9995L27.9995 42.9994L42.9994 27.9989L27.9995 12.995" fill="#F6871F"/>
</g>
<defs>
<filter id="filter0_d_1_62" x="2.28571" y="2.28571" width="51.4286" height="51.4286" filterUnits="userSpaceOnUse" color-interpolation-filters="sRGB">
<feFlood flood-opacity="0" result="BackgroundImageFix"/>
<feColorMatrix in="SourceAlpha" type="matrix" values="0 0 0 0 0 0 0 0 0 0 0 0 0 0 0 0 0 0 127 0" result="hardAlpha"/>
<feOffset/>
<feGaussianBlur stdDeviation="2.85714"/>
<feComposite in2="hardAlpha" operator="out"/>
<feColorMatrix type="matrix" values="0 0 0 0 0 0 0 0 0 0 0 0 0 0 0 0 0 0 0.25 0"/>
<feBlend mode="normal" in2="BackgroundImageFix" result="effect1_dropShadow_1_62"/>
<feBlend mode="normal" in="SourceGraphic" in2="effect1_dropShadow_1_62" result="shape"/>
</filter>
<linearGradient id="paint0_linear_1_62" x1="28" y1="0" x2="28" y2="56" gradientUnits="userSpaceOnUse">
<stop stop-color="#552D08"/>
<stop offset="1" stop-color="#311A05"/>
</linearGradient>
</defs>
</svg>
