<svg width="164" height="56" viewBox="0 0 164 56" fill="none" xmlns="http://www.w3.org/2000/svg">
<rect width="164" height="56" rx="8" fill="url(#paint0_linear_1_50)"/>
<rect x="1.05" y="1.05" width="161.9" height="53.9" rx="6.95" stroke="white" stroke-opacity="0.15" stroke-width="2.1"/>
<g filter="url(#filter0_d_1_50)">
<path d="M30.9599 8H12V26.9599H30.9599V8Z" fill="#0078D4"/>
<path d="M52 8H33.0401V26.9599H52V8Z" fill="#0078D4"/>
<path d="M30.9599 29.0417H12V48.0016H30.9599V29.0417Z" fill="#0078D4"/>
<path d="M52 29.0417H33.0401V48.0016H52V29.0417Z" fill="#0078D4"/>
</g>
<g filter="url(#filter1_d_1_50)">
<path d="M62.2613 24.5H60.3977L64.5852 12.8636H66.6136L70.8011 24.5H68.9375L65.6477 14.9773H65.5568L62.2613 24.5ZM62.5738 19.9432H68.6193V21.4204H62.5738V19.9432ZM78.7173 15.7727L75.5525 24.5H73.7344L70.5639 15.7727H72.3878L74.598 22.4886H74.6889L76.8934 15.7727H78.7173ZM82.6037 24.6932C82.0506 24.6932 81.5506 24.5909 81.1037 24.3864C80.6567 24.178 80.3025 23.8769 80.0412 23.4829C79.7836 23.089 79.6548 22.6061 79.6548 22.0341C79.6548 21.5417 79.7495 21.1364 79.9389 20.8182C80.1283 20.5 80.384 20.2481 80.7059 20.0625C81.0279 19.8769 81.3878 19.7367 81.7855 19.642C82.1832 19.5473 82.5885 19.4754 83.0014 19.4261C83.5241 19.3655 83.9484 19.3163 84.2741 19.2784C84.5999 19.2367 84.8366 19.1704 84.9844 19.0795C85.1321 18.9886 85.2059 18.8409 85.2059 18.6364V18.5966C85.2059 18.1004 85.0658 17.7159 84.7855 17.4432C84.509 17.1704 84.0961 17.0341 83.5469 17.0341C82.9749 17.0341 82.5241 17.161 82.1946 17.4148C81.8688 17.6648 81.6434 17.9432 81.5184 18.25L79.9219 17.8864C80.1112 17.3561 80.3878 16.928 80.7514 16.6023C81.1188 16.2727 81.5412 16.0341 82.0184 15.8864C82.4957 15.7348 82.9976 15.6591 83.5241 15.6591C83.8726 15.6591 84.2419 15.7008 84.6321 15.7841C85.026 15.8636 85.3934 16.0114 85.7344 16.2273C86.079 16.4432 86.3612 16.7519 86.5809 17.1534C86.8006 17.5511 86.9105 18.0682 86.9105 18.7045V24.5H85.2514V23.3068H85.1832C85.0734 23.5265 84.9086 23.7424 84.6889 23.9545C84.4692 24.1667 84.187 24.3428 83.8423 24.4829C83.4976 24.6231 83.0847 24.6932 82.6037 24.6932ZM82.973 23.3295C83.4427 23.3295 83.8442 23.2367 84.1775 23.0511C84.5147 22.8655 84.7703 22.6231 84.9446 22.3239C85.1226 22.0208 85.2116 21.697 85.2116 21.3523V20.2273C85.151 20.2879 85.0336 20.3447 84.8594 20.3977C84.6889 20.447 84.4938 20.4905 84.2741 20.5284C84.0544 20.5625 83.8404 20.5947 83.6321 20.625C83.4237 20.6515 83.2495 20.6742 83.1094 20.6932C82.7798 20.7348 82.4787 20.8049 82.2059 20.9034C81.937 21.0019 81.7211 21.1439 81.5582 21.3295C81.3991 21.5114 81.3196 21.7538 81.3196 22.0568C81.3196 22.4773 81.4749 22.7954 81.7855 23.0114C82.0961 23.2235 82.4919 23.3295 82.973 23.3295ZM89.1733 24.5V15.7727H90.8721V24.5H89.1733ZM90.0312 14.4261C89.7358 14.4261 89.482 14.3276 89.2699 14.1307C89.0615 13.9299 88.9574 13.6913 88.9574 13.4148C88.9574 13.1345 89.0615 12.8958 89.2699 12.6989C89.482 12.4981 89.7358 12.3977 90.0312 12.3977C90.3267 12.3977 90.5786 12.4981 90.7869 12.6989C90.999 12.8958 91.1051 13.1345 91.1051 13.4148C91.1051 13.6913 90.999 13.9299 90.7869 14.1307C90.5786 14.3276 90.3267 14.4261 90.0312 14.4261ZM94.8565 12.8636V24.5H93.1576V12.8636H94.8565ZM99.6818 24.6932C99.1288 24.6932 98.6288 24.5909 98.1818 24.3864C97.7348 24.178 97.3807 23.8769 97.1193 23.4829C96.8617 23.089 96.7329 22.6061 96.7329 22.0341C96.7329 21.5417 96.8276 21.1364 97.017 20.8182C97.2064 20.5 97.4621 20.2481 97.7841 20.0625C98.106 19.8769 98.4659 19.7367 98.8636 19.642C99.2613 19.5473 99.6666 19.4754 100.08 19.4261C100.602 19.3655 101.026 19.3163 101.352 19.2784C101.678 19.2367 101.915 19.1704 102.062 19.0795C102.21 18.9886 102.284 18.8409 102.284 18.6364V18.5966C102.284 18.1004 102.144 17.7159 101.864 17.4432C101.587 17.1704 101.174 17.0341 100.625 17.0341C100.053 17.0341 99.6022 17.161 99.2727 17.4148C98.9469 17.6648 98.7216 17.9432 98.5966 18.25L97 17.8864C97.1894 17.3561 97.4659 16.928 97.8295 16.6023C98.1969 16.2727 98.6193 16.0341 99.0966 15.8864C99.5738 15.7348 100.076 15.6591 100.602 15.6591C100.951 15.6591 101.32 15.7008 101.71 15.7841C102.104 15.8636 102.472 16.0114 102.812 16.2273C103.157 16.4432 103.439 16.7519 103.659 17.1534C103.879 17.5511 103.989 18.0682 103.989 18.7045V24.5H102.33V23.3068H102.261C102.151 23.5265 101.987 23.7424 101.767 23.9545C101.547 24.1667 101.265 24.3428 100.92 24.4829C100.576 24.6231 100.163 24.6932 99.6818 24.6932ZM100.051 23.3295C100.521 23.3295 100.922 23.2367 101.256 23.0511C101.593 22.8655 101.848 22.6231 102.023 22.3239C102.201 22.0208 102.29 21.697 102.29 21.3523V20.2273C102.229 20.2879 102.112 20.3447 101.937 20.3977C101.767 20.447 101.572 20.4905 101.352 20.5284C101.133 20.5625 100.919 20.5947 100.71 20.625C100.502 20.6515 100.328 20.6742 100.187 20.6932C99.8579 20.7348 99.5568 20.8049 99.2841 20.9034C99.0151 21.0019 98.7992 21.1439 98.6363 21.3295C98.4772 21.5114 98.3977 21.7538 98.3977 22.0568C98.3977 22.4773 98.553 22.7954 98.8636 23.0114C99.1742 23.2235 99.57 23.3295 100.051 23.3295ZM106.388 24.5V12.8636H108.087V17.1875H108.189C108.287 17.0057 108.429 16.7954 108.615 16.5568C108.801 16.3182 109.058 16.1098 109.388 15.9318C109.717 15.75 110.153 15.6591 110.695 15.6591C111.399 15.6591 112.028 15.8371 112.581 16.1932C113.134 16.5492 113.568 17.0625 113.882 17.7329C114.2 18.4034 114.359 19.2102 114.359 20.1534C114.359 21.0966 114.202 21.9053 113.888 22.5795C113.573 23.25 113.142 23.767 112.592 24.1307C112.043 24.4905 111.416 24.6704 110.712 24.6704C110.181 24.6704 109.748 24.5814 109.41 24.4034C109.077 24.2254 108.816 24.017 108.626 23.7784C108.437 23.5398 108.291 23.3276 108.189 23.142H108.047V24.5H106.388ZM108.053 20.1364C108.053 20.75 108.142 21.2879 108.32 21.75C108.498 22.2121 108.755 22.5739 109.092 22.8352C109.429 23.0928 109.842 23.2216 110.331 23.2216C110.839 23.2216 111.263 23.0871 111.604 22.8182C111.945 22.5454 112.202 22.1761 112.376 21.7102C112.554 21.2443 112.643 20.7197 112.643 20.1364C112.643 19.5606 112.556 19.0436 112.382 18.5852C112.212 18.1269 111.954 17.7651 111.609 17.5C111.268 17.2348 110.842 17.1023 110.331 17.1023C109.839 17.1023 109.422 17.2292 109.081 17.4829C108.744 17.7367 108.488 18.0909 108.314 18.5454C108.14 19 108.053 19.5303 108.053 20.1364ZM117.966 12.8636V24.5H116.267V12.8636H117.966ZM124.013 24.6761C123.153 24.6761 122.412 24.4924 121.791 24.125C121.174 23.7538 120.696 23.2329 120.359 22.5625C120.026 21.8883 119.859 21.0985 119.859 20.1932C119.859 19.2992 120.026 18.5114 120.359 17.8295C120.696 17.1477 121.166 16.6155 121.768 16.2329C122.374 15.8504 123.083 15.6591 123.893 15.6591C124.386 15.6591 124.863 15.7405 125.325 15.9034C125.787 16.0663 126.202 16.322 126.57 16.6704C126.937 17.0189 127.227 17.4716 127.439 18.0284C127.651 18.5814 127.757 19.2538 127.757 20.0454V20.6477H120.82V19.375H126.092C126.092 18.928 126.001 18.5322 125.82 18.1875C125.638 17.839 125.382 17.5644 125.053 17.3636C124.727 17.1629 124.344 17.0625 123.905 17.0625C123.428 17.0625 123.011 17.1799 122.655 17.4148C122.303 17.6458 122.03 17.9489 121.837 18.3239C121.647 18.6951 121.553 19.0985 121.553 19.5341V20.5284C121.553 21.1117 121.655 21.6079 121.859 22.017C122.068 22.4261 122.357 22.7386 122.729 22.9545C123.1 23.1667 123.534 23.2727 124.03 23.2727C124.352 23.2727 124.645 23.2273 124.91 23.1364C125.176 23.0417 125.405 22.9015 125.598 22.7159C125.791 22.5303 125.939 22.3011 126.041 22.0284L127.649 22.3182C127.52 22.7917 127.289 23.2064 126.956 23.5625C126.626 23.9148 126.212 24.1894 125.712 24.3864C125.215 24.5795 124.649 24.6761 124.013 24.6761ZM137.553 24.6761C136.734 24.6761 136.02 24.4886 135.41 24.1136C134.801 23.7386 134.327 23.214 133.99 22.5398C133.653 21.8655 133.484 21.0776 133.484 20.1761C133.484 19.2708 133.653 18.4792 133.99 17.8011C134.327 17.1231 134.801 16.5966 135.41 16.2216C136.02 15.8466 136.734 15.6591 137.553 15.6591C138.371 15.6591 139.085 15.8466 139.695 16.2216C140.304 16.5966 140.778 17.1231 141.115 17.8011C141.452 18.4792 141.621 19.2708 141.621 20.1761C141.621 21.0776 141.452 21.8655 141.115 22.5398C140.778 23.214 140.304 23.7386 139.695 24.1136C139.085 24.4886 138.371 24.6761 137.553 24.6761ZM137.558 23.25C138.089 23.25 138.528 23.1098 138.876 22.8295C139.225 22.5492 139.482 22.1761 139.649 21.7102C139.82 21.2443 139.905 20.7311 139.905 20.1704C139.905 19.6136 139.82 19.1023 139.649 18.6364C139.482 18.1667 139.225 17.7898 138.876 17.5057C138.528 17.2216 138.089 17.0795 137.558 17.0795C137.024 17.0795 136.581 17.2216 136.229 17.5057C135.88 17.7898 135.621 18.1667 135.45 18.6364C135.284 19.1023 135.2 19.6136 135.2 20.1704C135.2 20.7311 135.284 21.2443 135.45 21.7102C135.621 22.1761 135.88 22.5492 136.229 22.8295C136.581 23.1098 137.024 23.25 137.558 23.25ZM145.216 19.3182V24.5H143.517V15.7727H145.148V17.1932H145.256C145.456 16.7311 145.771 16.3598 146.199 16.0795C146.631 15.7992 147.174 15.6591 147.83 15.6591C148.424 15.6591 148.945 15.7841 149.392 16.0341C149.839 16.2803 150.186 16.6477 150.432 17.1364C150.678 17.625 150.801 18.2292 150.801 18.9489V24.5H149.102V19.1534C149.102 18.5208 148.937 18.0265 148.608 17.6704C148.278 17.3106 147.826 17.1307 147.25 17.1307C146.856 17.1307 146.506 17.2159 146.199 17.3864C145.896 17.5568 145.655 17.8068 145.477 18.1364C145.303 18.4621 145.216 18.8561 145.216 19.3182Z" fill="#E8E8E8"/>
<path d="M63.8998 43.5L60.3018 31.1364H63.604L65.4694 39.2379H65.5721L67.7031 31.1364H70.3956L72.5266 39.256H72.6292L74.5007 31.1364H77.7969L74.2049 43.5H71.3253L69.0976 36.0021H69.001L66.7734 43.5H63.8998ZM79.0314 43.5V34.2273H81.9835V43.5H79.0314ZM80.5105 33.1467C80.0959 33.1467 79.7397 33.0098 79.4419 32.7361C79.1441 32.4584 78.9952 32.1244 78.9952 31.734C78.9952 31.3476 79.1441 31.0176 79.4419 30.744C79.7397 30.4663 80.0959 30.3274 80.5105 30.3274C80.929 30.3274 81.2852 30.4663 81.579 30.744C81.8768 31.0176 82.0257 31.3476 82.0257 31.734C82.0257 32.1244 81.8768 32.4584 81.579 32.7361C81.2852 33.0098 80.929 33.1467 80.5105 33.1467ZM86.8145 38.2116V43.5H83.8625V34.2273H86.6696V35.9297H86.7723C86.9775 35.3622 87.3277 34.9175 87.8227 34.5955C88.3177 34.2695 88.9073 34.1065 89.5915 34.1065C90.2435 34.1065 90.809 34.2534 91.2879 34.5472C91.7708 34.837 92.1451 35.2435 92.4108 35.7667C92.6804 36.2859 92.8132 36.8936 92.8092 37.5898V43.5H89.8571V38.1694C89.8612 37.6542 89.7304 37.2518 89.4647 36.962C89.2031 36.6722 88.8389 36.5273 88.372 36.5273C88.0622 36.5273 87.7885 36.5958 87.551 36.7326C87.3176 36.8654 87.1365 37.0566 87.0077 37.3061C86.8829 37.5556 86.8185 37.8575 86.8145 38.2116ZM98.0236 43.6328C97.3394 43.6328 96.7176 43.4557 96.1582 43.1016C95.5988 42.7474 95.152 42.2161 94.818 41.5078C94.4839 40.7995 94.3169 39.9201 94.3169 38.8697C94.3169 37.779 94.49 36.8815 94.8361 36.1772C95.1822 35.4729 95.635 34.9517 96.1944 34.6136C96.7578 34.2756 97.3636 34.1065 98.0115 34.1065C98.4985 34.1065 98.915 34.191 99.2612 34.3601C99.6073 34.5251 99.893 34.7384 100.118 35C100.344 35.2616 100.515 35.5333 100.632 35.815H100.692V31.1364H103.644V43.5H100.722V41.9968H100.632C100.507 42.2825 100.33 42.5502 100.1 42.7997C99.8709 43.0492 99.5831 43.2505 99.237 43.4034C98.8949 43.5563 98.4904 43.6328 98.0236 43.6328ZM99.0499 41.3327C99.4081 41.3327 99.7139 41.2321 99.9675 41.0309C100.221 40.8256 100.416 40.5379 100.553 40.1676C100.69 39.7973 100.758 39.3627 100.758 38.8636C100.758 38.3565 100.69 37.9199 100.553 37.5536C100.42 37.1874 100.225 36.9056 99.9675 36.7084C99.7139 36.5112 99.4081 36.4126 99.0499 36.4126C98.6836 36.4126 98.3737 36.5132 98.1202 36.7145C97.8666 36.9157 97.6734 37.1994 97.5406 37.5657C97.4118 37.9319 97.3475 38.3646 97.3475 38.8636C97.3475 39.3627 97.4139 39.7973 97.5467 40.1676C97.6795 40.5379 97.8707 40.8256 98.1202 41.0309C98.3737 41.2321 98.6836 41.3327 99.0499 41.3327ZM109.839 43.6751C108.865 43.6751 108.028 43.4758 107.328 43.0774C106.632 42.6749 106.094 42.1155 105.716 41.3991C105.342 40.6787 105.155 39.8436 105.155 38.8938C105.155 37.94 105.342 37.1049 105.716 36.3885C106.094 35.6681 106.632 35.1087 107.328 34.7102C108.028 34.3078 108.865 34.1065 109.839 34.1065C110.813 34.1065 111.648 34.3078 112.345 34.7102C113.045 35.1087 113.582 35.6681 113.957 36.3885C114.335 37.1049 114.524 37.94 114.524 38.8938C114.524 39.8436 114.335 40.6787 113.957 41.3991C113.582 42.1155 113.045 42.6749 112.345 43.0774C111.648 43.4758 110.813 43.6751 109.839 43.6751ZM109.857 41.4474C110.212 41.4474 110.511 41.3388 110.757 41.1214C111.002 40.9041 111.19 40.6023 111.318 40.2159C111.451 39.8295 111.518 39.3828 111.518 38.8757C111.518 38.3605 111.451 37.9098 111.318 37.5234C111.19 37.1371 111.002 36.8352 110.757 36.6179C110.511 36.4006 110.212 36.2919 109.857 36.2919C109.491 36.2919 109.181 36.4006 108.928 36.6179C108.678 36.8352 108.487 37.1371 108.354 37.5234C108.225 37.9098 108.161 38.3605 108.161 38.8757C108.161 39.3828 108.225 39.8295 108.354 40.2159C108.487 40.6023 108.678 40.9041 108.928 41.1214C109.181 41.3388 109.491 41.4474 109.857 41.4474ZM117.57 43.5L115.155 34.2273H118.119L119.369 40.1676H119.447L120.787 34.2273H123.679L125.055 40.1253H125.134L126.347 34.2273H129.311L126.891 43.5H123.733L122.285 38.0969H122.182L120.733 43.5H117.57ZM138.592 37.0586L135.881 37.131C135.853 36.9378 135.777 36.7668 135.652 36.6179C135.527 36.465 135.364 36.3462 135.163 36.2617C134.966 36.1732 134.736 36.1289 134.475 36.1289C134.132 36.1289 133.841 36.1973 133.599 36.3342C133.362 36.471 133.245 36.6561 133.249 36.8895C133.245 37.0707 133.317 37.2276 133.466 37.3604C133.619 37.4932 133.891 37.5999 134.281 37.6804L136.068 38.0185C136.994 38.1955 137.682 38.4893 138.133 38.8998C138.588 39.3104 138.817 39.8537 138.821 40.5298C138.817 41.1657 138.628 41.7191 138.254 42.19C137.883 42.6609 137.376 43.0271 136.732 43.2887C136.088 43.5463 135.352 43.6751 134.523 43.6751C133.199 43.6751 132.154 43.4034 131.39 42.8601C130.629 42.3127 130.194 41.5802 130.086 40.6626L133.002 40.5902C133.066 40.9283 133.233 41.1858 133.503 41.3629C133.772 41.54 134.116 41.6285 134.535 41.6285C134.913 41.6285 135.221 41.5581 135.459 41.4172C135.696 41.2764 135.817 41.0892 135.821 40.8558C135.817 40.6465 135.724 40.4795 135.543 40.3547C135.362 40.226 135.078 40.1253 134.692 40.0529L133.074 39.745C132.144 39.576 131.452 39.2641 130.997 38.8093C130.543 38.3505 130.317 37.7669 130.321 37.0586C130.317 36.4388 130.482 35.9096 130.816 35.4709C131.15 35.0282 131.625 34.6901 132.241 34.4567C132.857 34.2232 133.583 34.1065 134.42 34.1065C135.676 34.1065 136.666 34.3701 137.39 34.8974C138.115 35.4206 138.515 36.141 138.592 37.0586Z" fill="#0078D4"/>
</g>
<defs>
<filter id="filter0_d_1_50" x="6.28571" y="2.28571" width="51.4286" height="51.4302" filterUnits="userSpaceOnUse" color-interpolation-filters="sRGB">
<feFlood flood-opacity="0" result="BackgroundImageFix"/>
<feColorMatrix in="SourceAlpha" type="matrix" values="0 0 0 0 0 0 0 0 0 0 0 0 0 0 0 0 0 0 127 0" result="hardAlpha"/>
<feOffset/>
<feGaussianBlur stdDeviation="2.85714"/>
<feComposite in2="hardAlpha" operator="out"/>
<feColorMatrix type="matrix" values="0 0 0 0 0 0 0 0 0 0 0 0 0 0 0 0 0 0 0.25 0"/>
<feBlend mode="normal" in2="BackgroundImageFix" result="effect1_dropShadow_1_50"/>
<feBlend mode="normal" in="SourceGraphic" in2="effect1_dropShadow_1_50" result="shape"/>
</filter>
<filter id="filter1_d_1_50" x="54.4" y="3.9" width="103.2" height="48.2" filterUnits="userSpaceOnUse" color-interpolation-filters="sRGB">
<feFlood flood-opacity="0" result="BackgroundImageFix"/>
<feColorMatrix in="SourceAlpha" type="matrix" values="0 0 0 0 0 0 0 0 0 0 0 0 0 0 0 0 0 0 127 0" result="hardAlpha"/>
<feOffset/>
<feGaussianBlur stdDeviation="2.8"/>
<feComposite in2="hardAlpha" operator="out"/>
<feColorMatrix type="matrix" values="0 0 0 0 0 0 0 0 0 0 0 0 0 0 0 0 0 0 0.25 0"/>
<feBlend mode="normal" in2="BackgroundImageFix" result="effect1_dropShadow_1_50"/>
<feBlend mode="normal" in="SourceGraphic" in2="effect1_dropShadow_1_50" result="shape"/>
</filter>
<linearGradient id="paint0_linear_1_50" x1="82" y1="0" x2="82" y2="56" gradientUnits="userSpaceOnUse">
<stop stop-color="#003055"/>
<stop offset="1" stop-color="#00182A"/>
</linearGradient>
</defs>
</svg>
