<svg width="280" height="40" viewBox="0 0 280 40" fill="none" xmlns="http://www.w3.org/2000/svg">
<rect width="280" height="40" rx="8" fill="url(#paint0_linear_1_56)"/>
<rect x="1.07143" y="1.07143" width="277.857" height="37.8571" rx="6.92857" stroke="white" stroke-opacity="0.15" stroke-width="2.14286"/>
<g clip-path="url(#clip0_1_56)">
<path d="M33.2766 26.8359C32.9011 27.0311 32.5139 27.2027 32.1172 27.35C30.8611 27.8175 29.5309 28.0547 28.1906 28.05C23.0172 28.05 18.5109 24.4953 18.5109 19.9234C18.5177 19.3112 18.6874 18.7119 19.0027 18.1871C19.3179 17.6623 19.7674 17.2309 20.3047 16.9375C15.6234 17.1344 14.4203 22.0125 14.4203 24.8672C14.4203 32.9609 21.8687 33.7703 23.4766 33.7703C24.3406 33.7703 25.6422 33.5188 26.4297 33.2672L26.5719 33.2234C29.5856 32.1819 32.1548 30.1451 33.8562 27.4484C33.9057 27.3665 33.9269 27.2706 33.9167 27.1755C33.9064 27.0803 33.8652 26.9912 33.7994 26.9216C33.7337 26.8521 33.6469 26.8061 33.5524 26.7906C33.458 26.7752 33.3611 26.7911 33.2766 26.8359Z" fill="url(#paint1_linear_1_56)"/>
<path opacity="0.35" d="M33.2766 26.8359C32.9011 27.0311 32.5139 27.2027 32.1172 27.35C30.8611 27.8175 29.5309 28.0547 28.1906 28.05C23.0172 28.05 18.5109 24.4953 18.5109 19.9234C18.5177 19.3112 18.6874 18.7119 19.0027 18.1871C19.3179 17.6623 19.7674 17.2309 20.3047 16.9375C15.6234 17.1344 14.4203 22.0125 14.4203 24.8672C14.4203 32.9609 21.8687 33.7703 23.4766 33.7703C24.3406 33.7703 25.6422 33.5188 26.4297 33.2672L26.5719 33.2234C29.5856 32.1819 32.1548 30.1451 33.8562 27.4484C33.9057 27.3665 33.9269 27.2706 33.9167 27.1755C33.9064 27.0803 33.8652 26.9912 33.7994 26.9216C33.7337 26.8521 33.6469 26.8061 33.5524 26.7906C33.458 26.7752 33.3611 26.7911 33.2766 26.8359Z" fill="url(#paint2_radial_1_56)"/>
<path d="M19.5609 32.3922C18.5874 31.7875 17.7435 30.9957 17.0781 30.0625C16.3183 29.0226 15.7953 27.8289 15.5458 26.5654C15.2963 25.3019 15.3264 23.999 15.6338 22.7483C15.9413 21.4977 16.5187 20.3294 17.3256 19.3256C18.1325 18.3217 19.1493 17.5066 20.3047 16.9375C20.6547 16.7734 21.2344 16.4891 22.0109 16.5C22.5574 16.5042 23.0954 16.6348 23.5831 16.8814C24.0707 17.1281 24.4947 17.4842 24.8219 17.9219C25.2619 18.5137 25.5032 19.2297 25.5109 19.9672C25.5109 19.9453 28.1906 11.2609 16.7609 11.2609C11.9594 11.2609 8.01093 15.8109 8.01093 19.8141C7.99184 21.9287 8.44393 24.021 9.33437 25.9391C10.7926 29.0443 13.3403 31.5059 16.4937 32.8568C19.647 34.2077 23.1867 34.3537 26.4406 33.2672C25.3006 33.6272 24.096 33.7355 22.9101 33.5844C21.7242 33.4333 20.5852 33.0266 19.5719 32.3922H19.5609Z" fill="url(#paint3_linear_1_56)"/>
<path opacity="0.41" d="M19.5609 32.3922C18.5874 31.7875 17.7435 30.9957 17.0781 30.0625C16.3183 29.0226 15.7953 27.8289 15.5458 26.5654C15.2963 25.3019 15.3264 23.999 15.6338 22.7483C15.9413 21.4977 16.5187 20.3294 17.3256 19.3256C18.1325 18.3217 19.1493 17.5066 20.3047 16.9375C20.6547 16.7734 21.2344 16.4891 22.0109 16.5C22.5574 16.5042 23.0954 16.6348 23.5831 16.8814C24.0707 17.1281 24.4947 17.4842 24.8219 17.9219C25.2619 18.5137 25.5032 19.2297 25.5109 19.9672C25.5109 19.9453 28.1906 11.2609 16.7609 11.2609C11.9594 11.2609 8.01093 15.8109 8.01093 19.8141C7.99184 21.9287 8.44393 24.021 9.33437 25.9391C10.7926 29.0443 13.3403 31.5059 16.4937 32.8568C19.647 34.2077 23.1867 34.3537 26.4406 33.2672C25.3006 33.6272 24.096 33.7355 22.9101 33.5844C21.7242 33.4333 20.5852 33.0266 19.5719 32.3922H19.5609Z" fill="url(#paint4_radial_1_56)"/>
<path d="M24.6687 22.275C24.5703 22.3844 24.2969 22.5484 24.2969 22.8875C24.2969 23.1719 24.4828 23.4563 24.8219 23.6859C26.3859 24.7797 29.35 24.6266 29.3609 24.6266C30.5269 24.6258 31.6714 24.3123 32.675 23.7188C33.6854 23.1278 34.5238 22.2829 35.107 21.268C35.6903 20.2531 35.9981 19.1034 36 17.9328C36.0328 15.4828 35.125 13.8531 34.7641 13.1313C32.4344 8.60312 27.4359 6 22 6C18.3208 5.99964 14.7894 7.44758 12.1695 10.0307C9.54954 12.6137 8.05174 16.1243 8 19.8031C8.05469 15.8109 12.025 12.5844 16.75 12.5844C17.1328 12.5844 19.3203 12.6172 21.3438 13.6781C22.7653 14.3845 23.9425 15.5008 24.7234 16.8828C25.3906 18.0422 25.5109 19.5188 25.5109 20.1094C25.5109 20.7 25.2156 21.5641 24.6578 22.2859L24.6687 22.275Z" fill="url(#paint5_radial_1_56)"/>
<path d="M24.6687 22.275C24.5703 22.3844 24.2969 22.5484 24.2969 22.8875C24.2969 23.1719 24.4828 23.4563 24.8219 23.6859C26.3859 24.7797 29.35 24.6266 29.3609 24.6266C30.5269 24.6258 31.6714 24.3123 32.675 23.7188C33.6854 23.1278 34.5238 22.2829 35.107 21.268C35.6903 20.2531 35.9981 19.1034 36 17.9328C36.0328 15.4828 35.125 13.8531 34.7641 13.1313C32.4344 8.60312 27.4359 6 22 6C18.3208 5.99964 14.7894 7.44758 12.1695 10.0307C9.54954 12.6137 8.05174 16.1243 8 19.8031C8.05469 15.8109 12.025 12.5844 16.75 12.5844C17.1328 12.5844 19.3203 12.6172 21.3438 13.6781C22.7653 14.3845 23.9425 15.5008 24.7234 16.8828C25.3906 18.0422 25.5109 19.5188 25.5109 20.1094C25.5109 20.7 25.2156 21.5641 24.6578 22.2859L24.6687 22.275Z" fill="url(#paint6_radial_1_56)"/>
</g>
<g filter="url(#filter0_d_1_56)">
<path d="M44.4027 26.5H42.4226L46.8718 14.1364H49.027L53.4762 26.5H51.4961L48.0007 16.3821H47.9041L44.4027 26.5ZM44.7347 21.6584H51.158V23.228H44.7347V21.6584ZM61.8871 17.2273L58.5246 26.5H56.5928L53.2242 17.2273H55.162L57.5104 24.3629H57.607L59.9493 17.2273H61.8871ZM66.0164 26.7053C65.4288 26.7053 64.8976 26.5966 64.4227 26.3793C63.9478 26.1579 63.5715 25.8379 63.2938 25.4194C63.0201 25.0008 62.8832 24.4877 62.8832 23.88C62.8832 23.3568 62.9839 22.9261 63.1851 22.5881C63.3863 22.25 63.658 21.9824 64.0001 21.7852C64.3422 21.5879 64.7245 21.439 65.1471 21.3384C65.5697 21.2378 66.0003 21.1613 66.439 21.109C66.9944 21.0446 67.4451 20.9923 67.7913 20.9521C68.1374 20.9078 68.3889 20.8374 68.5459 20.7408C68.7028 20.6442 68.7813 20.4872 68.7813 20.2699V20.2276C68.7813 19.7004 68.6324 19.2919 68.3346 19.0021C68.0408 18.7124 67.6021 18.5675 67.0185 18.5675C66.4108 18.5675 65.9319 18.7023 65.5818 18.9719C65.2356 19.2376 64.9962 19.5334 64.8634 19.8594L63.167 19.473C63.3682 18.9096 63.662 18.4548 64.0484 18.1087C64.4388 17.7585 64.8875 17.505 65.3946 17.348C65.9017 17.187 66.435 17.1065 66.9944 17.1065C67.3647 17.1065 67.7571 17.1508 68.1716 17.2393C68.5902 17.3239 68.9805 17.4808 69.3428 17.7102C69.709 17.9396 70.0088 18.2676 70.2423 18.6942C70.4757 19.1168 70.5924 19.6662 70.5924 20.3423V26.5H68.8296V25.2322H68.7572C68.6405 25.4657 68.4654 25.6951 68.232 25.9204C67.9985 26.1458 67.6987 26.333 67.3325 26.4819C66.9662 26.6308 66.5275 26.7053 66.0164 26.7053ZM66.4088 25.2564C66.9079 25.2564 67.3345 25.1578 67.6886 24.9606C68.0468 24.7634 68.3185 24.5058 68.5036 24.1879C68.6928 23.8659 68.7874 23.5218 68.7874 23.1555V21.9602C68.723 22.0246 68.5982 22.085 68.4131 22.1413C68.232 22.1937 68.0247 22.2399 67.7913 22.2802C67.5578 22.3164 67.3304 22.3506 67.1091 22.3828C66.8877 22.411 66.7026 22.4351 66.5537 22.4553C66.2036 22.4995 65.8836 22.574 65.5938 22.6786C65.3081 22.7833 65.0787 22.9342 64.9056 23.1314C64.7366 23.3246 64.6521 23.5821 64.6521 23.9041C64.6521 24.3508 64.8171 24.6889 65.1471 24.9183C65.4771 25.1437 65.8977 25.2564 66.4088 25.2564ZM72.9966 26.5V17.2273H74.8017V26.5H72.9966ZM73.9082 15.7965C73.5943 15.7965 73.3246 15.6919 73.0992 15.4826C72.8779 15.2693 72.7672 15.0157 72.7672 14.7219C72.7672 14.4241 72.8779 14.1706 73.0992 13.9613C73.3246 13.748 73.5943 13.6413 73.9082 13.6413C74.2221 13.6413 74.4897 13.748 74.7111 13.9613C74.9365 14.1706 75.0492 14.4241 75.0492 14.7219C75.0492 15.0157 74.9365 15.2693 74.7111 15.4826C74.4897 15.6919 74.2221 15.7965 73.9082 15.7965ZM79.035 14.1364V26.5H77.23V14.1364H79.035ZM84.1619 26.7053C83.5743 26.7053 83.0431 26.5966 82.5682 26.3793C82.0933 26.1579 81.717 25.8379 81.4393 25.4194C81.1656 25.0008 81.0287 24.4877 81.0287 23.88C81.0287 23.3568 81.1294 22.9261 81.3306 22.5881C81.5318 22.25 81.8035 21.9824 82.1456 21.7852C82.4877 21.5879 82.87 21.439 83.2926 21.3384C83.7152 21.2378 84.1458 21.1613 84.5845 21.109C85.1399 21.0446 85.5907 20.9923 85.9368 20.9521C86.2829 20.9078 86.5344 20.8374 86.6914 20.7408C86.8483 20.6442 86.9268 20.4872 86.9268 20.2699V20.2276C86.9268 19.7004 86.7779 19.2919 86.4801 19.0021C86.1863 18.7124 85.7476 18.5675 85.164 18.5675C84.5563 18.5675 84.0774 18.7023 83.7273 18.9719C83.3811 19.2376 83.1417 19.5334 83.0089 19.8594L81.3125 19.473C81.5137 18.9096 81.8075 18.4548 82.1939 18.1087C82.5843 17.7585 83.033 17.505 83.5401 17.348C84.0472 17.187 84.5805 17.1065 85.1399 17.1065C85.5102 17.1065 85.9026 17.1508 86.3171 17.2393C86.7357 17.3239 87.126 17.4808 87.4883 17.7102C87.8545 17.9396 88.1543 18.2676 88.3878 18.6942C88.6212 19.1168 88.7379 19.6662 88.7379 20.3423V26.5H86.9751V25.2322H86.9027C86.786 25.4657 86.6109 25.6951 86.3775 25.9204C86.144 26.1458 85.8442 26.333 85.478 26.4819C85.1117 26.6308 84.673 26.7053 84.1619 26.7053ZM84.5543 25.2564C85.0534 25.2564 85.48 25.1578 85.8341 24.9606C86.1923 24.7634 86.464 24.5058 86.6491 24.1879C86.8383 23.8659 86.9329 23.5218 86.9329 23.1555V21.9602C86.8685 22.0246 86.7437 22.085 86.5586 22.1413C86.3775 22.1937 86.1702 22.2399 85.9368 22.2802C85.7033 22.3164 85.476 22.3506 85.2546 22.3828C85.0332 22.411 84.8481 22.4351 84.6992 22.4553C84.3491 22.4995 84.0291 22.574 83.7393 22.6786C83.4536 22.7833 83.2242 22.9342 83.0511 23.1314C82.8821 23.3246 82.7976 23.5821 82.7976 23.9041C82.7976 24.3508 82.9626 24.6889 83.2926 24.9183C83.6226 25.1437 84.0432 25.2564 84.5543 25.2564ZM91.287 26.5V14.1364H93.092V18.7305H93.2007C93.3053 18.5373 93.4563 18.3139 93.6535 18.0604C93.8507 17.8068 94.1244 17.5855 94.4745 17.3963C94.8246 17.2031 95.2875 17.1065 95.863 17.1065C96.6116 17.1065 97.2797 17.2957 97.8673 17.674C98.4548 18.0523 98.9157 18.5977 99.2497 19.31C99.5878 20.0224 99.7568 20.8796 99.7568 21.8817C99.7568 22.8839 99.5898 23.7431 99.2557 24.4595C98.9217 25.1719 98.4629 25.7212 97.8793 26.1076C97.2958 26.4899 96.6297 26.6811 95.8811 26.6811C95.3177 26.6811 94.8568 26.5865 94.4986 26.3974C94.1445 26.2082 93.8668 25.9869 93.6655 25.7333C93.4643 25.4798 93.3094 25.2544 93.2007 25.0572H93.0498V26.5H91.287ZM93.0558 21.8636C93.0558 22.5156 93.1504 23.0871 93.3396 23.5781C93.5287 24.0691 93.8024 24.4535 94.1606 24.7312C94.5188 25.0048 94.9575 25.1417 95.4766 25.1417C96.0159 25.1417 96.4667 24.9988 96.8289 24.7131C97.1911 24.4233 97.4648 24.0309 97.6499 23.5359C97.8391 23.0408 97.9337 22.4834 97.9337 21.8636C97.9337 21.2519 97.8411 20.7025 97.656 20.2156C97.4749 19.7286 97.2012 19.3442 96.8349 19.0625C96.4727 18.7808 96.02 18.6399 95.4766 18.6399C94.9534 18.6399 94.5107 18.7747 94.1485 19.0444C93.7903 19.314 93.5187 19.6903 93.3335 20.1733C93.1484 20.6562 93.0558 21.2197 93.0558 21.8636ZM103.589 14.1364V26.5H101.784V14.1364H103.589ZM110.014 26.6871C109.1 26.6871 108.313 26.4919 107.653 26.1016C106.997 25.7071 106.49 25.1538 106.132 24.4414C105.778 23.725 105.601 22.8859 105.601 21.924C105.601 20.9742 105.778 20.1371 106.132 19.4126C106.49 18.6882 106.989 18.1227 107.629 17.7163C108.273 17.3098 109.026 17.1065 109.887 17.1065C110.41 17.1065 110.917 17.1931 111.408 17.3661C111.899 17.5392 112.34 17.8108 112.73 18.1811C113.121 18.5514 113.428 19.0323 113.654 19.6239C113.879 20.2115 113.992 20.9259 113.992 21.767V22.407H106.621V21.0547H112.223C112.223 20.5798 112.126 20.1592 111.933 19.793C111.74 19.4227 111.468 19.1309 111.118 18.9176C110.772 18.7043 110.366 18.5977 109.899 18.5977C109.392 18.5977 108.949 18.7224 108.571 18.9719C108.196 19.2174 107.907 19.5394 107.701 19.9379C107.5 20.3323 107.4 20.7609 107.4 21.2237V22.2802C107.4 22.9 107.508 23.4272 107.726 23.8619C107.947 24.2965 108.255 24.6285 108.649 24.8579C109.044 25.0833 109.504 25.196 110.032 25.196C110.374 25.196 110.686 25.1477 110.967 25.0511C111.249 24.9505 111.493 24.8016 111.698 24.6044C111.903 24.4072 112.06 24.1637 112.169 23.8739L113.877 24.1818C113.74 24.6849 113.495 25.1256 113.141 25.5039C112.791 25.8782 112.35 26.17 111.819 26.3793C111.291 26.5845 110.69 26.6871 110.014 26.6871ZM124.4 26.6871C123.53 26.6871 122.772 26.4879 122.124 26.0895C121.476 25.691 120.973 25.1336 120.614 24.4173C120.256 23.7009 120.077 22.8638 120.077 21.9059C120.077 20.944 120.256 20.1029 120.614 19.3825C120.973 18.662 121.476 18.1026 122.124 17.7042C122.772 17.3058 123.53 17.1065 124.4 17.1065C125.269 17.1065 126.028 17.3058 126.675 17.7042C127.323 18.1026 127.827 18.662 128.185 19.3825C128.543 20.1029 128.722 20.944 128.722 21.9059C128.722 22.8638 128.543 23.7009 128.185 24.4173C127.827 25.1336 127.323 25.691 126.675 26.0895C126.028 26.4879 125.269 26.6871 124.4 26.6871ZM124.406 25.1719C124.969 25.1719 125.436 25.023 125.806 24.7251C126.176 24.4273 126.45 24.0309 126.627 23.5359C126.808 23.0408 126.899 22.4955 126.899 21.8999C126.899 21.3082 126.808 20.7649 126.627 20.2699C126.45 19.7708 126.176 19.3704 125.806 19.0685C125.436 18.7667 124.969 18.6158 124.406 18.6158C123.838 18.6158 123.367 18.7667 122.993 19.0685C122.623 19.3704 122.347 19.7708 122.166 20.2699C121.989 20.7649 121.9 21.3082 121.9 21.8999C121.9 22.4955 121.989 23.0408 122.166 23.5359C122.347 24.0309 122.623 24.4273 122.993 24.7251C123.367 25.023 123.838 25.1719 124.406 25.1719ZM132.542 20.9943V26.5H130.737V17.2273H132.469V18.7365H132.584C132.797 18.2455 133.131 17.8511 133.586 17.5533C134.045 17.2554 134.623 17.1065 135.319 17.1065C135.951 17.1065 136.504 17.2393 136.979 17.505C137.454 17.7666 137.822 18.157 138.084 18.6761C138.345 19.1953 138.476 19.8372 138.476 20.6019V26.5H136.671V20.8192C136.671 20.1471 136.496 19.6219 136.146 19.2436C135.796 18.8613 135.315 18.6701 134.703 18.6701C134.285 18.6701 133.912 18.7607 133.586 18.9418C133.264 19.1229 133.009 19.3885 132.82 19.7386C132.634 20.0848 132.542 20.5033 132.542 20.9943Z" fill="#E8E8E8"/>
<path d="M144.936 14.1364H148.636L151.776 21.7912H151.92L155.06 14.1364H158.76V26.5H155.85V18.9055H155.748L152.778 26.4215H150.918L147.948 18.8633H147.845V26.5H144.936V14.1364ZM160.624 26.5V17.2273H163.576V26.5H160.624ZM162.103 16.1467C161.689 16.1467 161.332 16.0098 161.035 15.7361C160.737 15.4584 160.588 15.1244 160.588 14.734C160.588 14.3477 160.737 14.0176 161.035 13.744C161.332 13.4663 161.689 13.3274 162.103 13.3274C162.522 13.3274 162.878 13.4663 163.172 13.744C163.47 14.0176 163.618 14.3477 163.618 14.734C163.618 15.1244 163.47 15.4584 163.172 15.7361C162.878 16.0098 162.522 16.1467 162.103 16.1467ZM169.784 26.6751C168.806 26.6751 167.967 26.4738 167.266 26.0714C166.57 25.6689 166.035 25.1095 165.66 24.3931C165.286 23.6727 165.099 22.8396 165.099 21.8938C165.099 20.944 165.286 20.1109 165.66 19.3945C166.039 18.6741 166.576 18.1127 167.272 17.7102C167.973 17.3078 168.808 17.1065 169.778 17.1065C170.635 17.1065 171.381 17.2615 172.017 17.5714C172.657 17.8813 173.156 18.32 173.515 18.8874C173.877 19.4509 174.068 20.1129 174.088 20.8736H171.329C171.273 20.3987 171.112 20.0264 170.846 19.7567C170.585 19.4871 170.243 19.3523 169.82 19.3523C169.478 19.3523 169.178 19.4489 168.92 19.642C168.663 19.8312 168.462 20.1129 168.317 20.4872C168.176 20.8575 168.105 21.3163 168.105 21.8636C168.105 22.411 168.176 22.8738 168.317 23.2521C168.462 23.6264 168.663 23.9102 168.92 24.1033C169.178 24.2925 169.478 24.3871 169.82 24.3871C170.094 24.3871 170.335 24.3287 170.544 24.212C170.758 24.0953 170.933 23.9242 171.07 23.6989C171.206 23.4695 171.293 23.1918 171.329 22.8658H174.088C174.06 23.6304 173.869 24.2985 173.515 24.87C173.164 25.4415 172.671 25.8862 172.035 26.2042C171.404 26.5181 170.653 26.6751 169.784 26.6751ZM175.599 26.5V17.2273H178.466V18.9176H178.563C178.732 18.3059 179.008 17.8511 179.39 17.5533C179.772 17.2514 180.217 17.1005 180.724 17.1005C180.861 17.1005 181.002 17.1106 181.147 17.1307C181.292 17.1468 181.426 17.1729 181.551 17.2092V19.7749C181.41 19.7266 181.225 19.6883 180.996 19.6602C180.77 19.632 180.569 19.6179 180.392 19.6179C180.042 19.6179 179.726 19.6964 179.444 19.8533C179.167 20.0063 178.947 20.2216 178.786 20.4993C178.629 20.773 178.551 21.0949 178.551 21.4652V26.5H175.599ZM186.601 26.6751C185.627 26.6751 184.79 26.4758 184.09 26.0774C183.393 25.6749 182.856 25.1155 182.478 24.3991C182.104 23.6787 181.916 22.8436 181.916 21.8938C181.916 20.94 182.104 20.1049 182.478 19.3885C182.856 18.6681 183.393 18.1087 184.09 17.7102C184.79 17.3078 185.627 17.1065 186.601 17.1065C187.575 17.1065 188.41 17.3078 189.106 17.7102C189.807 18.1087 190.344 18.6681 190.718 19.3885C191.097 20.1049 191.286 20.94 191.286 21.8938C191.286 22.8436 191.097 23.6787 190.718 24.3991C190.344 25.1155 189.807 25.6749 189.106 26.0774C188.41 26.4758 187.575 26.6751 186.601 26.6751ZM186.619 24.4474C186.973 24.4474 187.273 24.3388 187.519 24.1214C187.764 23.9041 187.951 23.6023 188.08 23.2159C188.213 22.8295 188.279 22.3828 188.279 21.8757C188.279 21.3606 188.213 20.9098 188.08 20.5234C187.951 20.1371 187.764 19.8352 187.519 19.6179C187.273 19.4006 186.973 19.2919 186.619 19.2919C186.253 19.2919 185.943 19.4006 185.689 19.6179C185.44 19.8352 185.249 20.1371 185.116 20.5234C184.987 20.9098 184.923 21.3606 184.923 21.8757C184.923 22.3828 184.987 22.8295 185.116 23.2159C185.249 23.6023 185.44 23.9041 185.689 24.1214C185.943 24.3388 186.253 24.4474 186.619 24.4474ZM200.894 20.0586L198.183 20.131C198.155 19.9379 198.078 19.7668 197.954 19.6179C197.829 19.465 197.666 19.3462 197.465 19.2617C197.267 19.1732 197.038 19.1289 196.776 19.1289C196.434 19.1289 196.142 19.1973 195.901 19.3342C195.664 19.471 195.547 19.6561 195.551 19.8896C195.547 20.0707 195.619 20.2276 195.768 20.3604C195.921 20.4932 196.193 20.5999 196.583 20.6804L198.37 21.0185C199.296 21.1955 199.984 21.4893 200.435 21.8999C200.889 22.3104 201.119 22.8537 201.123 23.5298C201.119 24.1657 200.93 24.7191 200.555 25.19C200.185 25.6609 199.678 26.0271 199.034 26.2887C198.39 26.5463 197.654 26.6751 196.825 26.6751C195.501 26.6751 194.456 26.4034 193.691 25.8601C192.931 25.3127 192.496 24.5803 192.387 23.6626L195.303 23.5902C195.368 23.9283 195.535 24.1858 195.804 24.3629C196.074 24.54 196.418 24.6285 196.837 24.6285C197.215 24.6285 197.523 24.5581 197.76 24.4173C197.998 24.2764 198.119 24.0892 198.123 23.8558C198.119 23.6465 198.026 23.4795 197.845 23.3548C197.664 23.226 197.38 23.1254 196.994 23.0529L195.376 22.745C194.446 22.576 193.754 22.2641 193.299 21.8093C192.844 21.3505 192.619 20.7669 192.623 20.0586C192.619 19.4388 192.784 18.9096 193.118 18.4709C193.452 18.0282 193.927 17.6901 194.543 17.4567C195.158 17.2232 195.885 17.1065 196.722 17.1065C197.978 17.1065 198.968 17.3701 199.692 17.8974C200.417 18.4206 200.817 19.141 200.894 20.0586ZM206.905 26.6751C205.931 26.6751 205.094 26.4758 204.393 26.0774C203.697 25.6749 203.16 25.1155 202.782 24.3991C202.407 23.6787 202.22 22.8436 202.22 21.8938C202.22 20.94 202.407 20.1049 202.782 19.3885C203.16 18.6681 203.697 18.1087 204.393 17.7102C205.094 17.3078 205.931 17.1065 206.905 17.1065C207.879 17.1065 208.714 17.3078 209.41 17.7102C210.11 18.1087 210.648 18.6681 211.022 19.3885C211.4 20.1049 211.589 20.94 211.589 21.8938C211.589 22.8436 211.4 23.6787 211.022 24.3991C210.648 25.1155 210.11 25.6749 209.41 26.0774C208.714 26.4758 207.879 26.6751 206.905 26.6751ZM206.923 24.4474C207.277 24.4474 207.577 24.3388 207.822 24.1214C208.068 23.9041 208.255 23.6023 208.384 23.2159C208.517 22.8295 208.583 22.3828 208.583 21.8757C208.583 21.3606 208.517 20.9098 208.384 20.5234C208.255 20.1371 208.068 19.8352 207.822 19.6179C207.577 19.4006 207.277 19.2919 206.923 19.2919C206.557 19.2919 206.247 19.4006 205.993 19.6179C205.744 19.8352 205.553 20.1371 205.42 20.5234C205.291 20.9098 205.227 21.3606 205.227 21.8757C205.227 22.3828 205.291 22.8295 205.42 23.2159C205.553 23.6023 205.744 23.9041 205.993 24.1214C206.247 24.3388 206.557 24.4474 206.923 24.4474ZM218.372 17.2273V19.4006H212.407V17.2273H218.372ZM213.651 26.5V16.7564C213.651 16.04 213.786 15.4464 214.056 14.9755C214.325 14.5006 214.699 14.1464 215.178 13.913C215.657 13.6755 216.211 13.5568 216.839 13.5568C217.249 13.5568 217.635 13.589 217.998 13.6534C218.364 13.7138 218.636 13.7681 218.813 13.8164L218.342 15.9776C218.233 15.9414 218.1 15.9112 217.943 15.8871C217.79 15.8629 217.645 15.8508 217.509 15.8508C217.163 15.8508 216.925 15.9273 216.796 16.0803C216.668 16.2332 216.603 16.4425 216.603 16.7081V26.5H213.651ZM225.026 17.2273V19.4006H219.176V17.2273H225.026ZM220.402 15.0057H223.354V23.5842C223.354 23.7653 223.382 23.9122 223.438 24.0249C223.499 24.1335 223.585 24.212 223.698 24.2603C223.811 24.3046 223.946 24.3267 224.102 24.3267C224.215 24.3267 224.334 24.3166 224.459 24.2965C224.587 24.2724 224.684 24.2522 224.748 24.2361L225.195 26.3672C225.054 26.4074 224.855 26.4577 224.598 26.5181C224.344 26.5785 224.04 26.6167 223.686 26.6328C222.994 26.665 222.4 26.5845 221.905 26.3913C221.414 26.1941 221.038 25.8883 220.776 25.4737C220.519 25.0592 220.394 24.538 220.402 23.9102V15.0057ZM230.185 26.5V14.1364H238.805V16.5632H233.173V19.0987H238.365V21.5316H233.173V24.0731H238.805V26.5H230.185ZM244.064 26.6328C243.379 26.6328 242.758 26.4557 242.198 26.1016C241.639 25.7474 241.192 25.2161 240.858 24.5078C240.524 23.7995 240.357 22.9201 240.357 21.8697C240.357 20.779 240.53 19.8815 240.876 19.1772C241.222 18.4729 241.675 17.9517 242.234 17.6136C242.798 17.2756 243.404 17.1065 244.052 17.1065C244.538 17.1065 244.955 17.191 245.301 17.3601C245.647 17.5251 245.933 17.7384 246.158 18C246.384 18.2616 246.555 18.5333 246.672 18.815H246.732V14.1364H249.684V26.5H246.762V24.9968H246.672C246.547 25.2825 246.37 25.5502 246.14 25.7997C245.911 26.0492 245.623 26.2505 245.277 26.4034C244.935 26.5563 244.53 26.6328 244.064 26.6328ZM245.09 24.3327C245.448 24.3327 245.754 24.2321 246.007 24.0309C246.261 23.8256 246.456 23.5379 246.593 23.1676C246.73 22.7973 246.798 22.3627 246.798 21.8636C246.798 21.3565 246.73 20.9199 246.593 20.5536C246.46 20.1874 246.265 19.9057 246.007 19.7084C245.754 19.5112 245.448 19.4126 245.09 19.4126C244.724 19.4126 244.414 19.5133 244.16 19.7145C243.907 19.9157 243.713 20.1995 243.581 20.5657C243.452 20.9319 243.387 21.3646 243.387 21.8636C243.387 22.3627 243.454 22.7973 243.587 23.1676C243.719 23.5379 243.911 23.8256 244.16 24.0309C244.414 24.2321 244.724 24.3327 245.09 24.3327ZM255.873 30.1704C254.992 30.1704 254.237 30.0477 253.609 29.8022C252.982 29.5567 252.489 29.2206 252.13 28.794C251.772 28.3674 251.557 27.8845 251.484 27.3452L254.28 27.1882C254.332 27.3774 254.428 27.5424 254.569 27.6832C254.714 27.8241 254.901 27.9328 255.131 28.0092C255.364 28.0857 255.638 28.1239 255.952 28.1239C256.447 28.1239 256.855 28.0032 257.177 27.7617C257.503 27.5243 257.666 27.1077 257.666 26.5121V24.8821H257.564C257.447 25.1678 257.27 25.4234 257.032 25.6488C256.795 25.8742 256.499 26.0512 256.145 26.18C255.795 26.3088 255.392 26.3732 254.938 26.3732C254.261 26.3732 253.642 26.2163 253.078 25.9023C252.519 25.5844 252.07 25.0934 251.732 24.4293C251.398 23.7612 251.231 22.902 251.231 21.8516C251.231 20.7689 251.404 19.8775 251.75 19.1772C252.096 18.4729 252.549 17.9517 253.108 17.6136C253.672 17.2756 254.278 17.1065 254.926 17.1065C255.413 17.1065 255.829 17.191 256.175 17.3601C256.525 17.5251 256.813 17.7384 257.038 18C257.264 18.2616 257.435 18.5333 257.552 18.815H257.636V17.2273H260.576V26.5362C260.576 27.321 260.379 27.9831 259.984 28.5224C259.59 29.0617 259.039 29.4702 258.33 29.7479C257.622 30.0296 256.803 30.1704 255.873 30.1704ZM255.964 24.2241C256.322 24.2241 256.628 24.1295 256.882 23.9403C257.135 23.7512 257.33 23.4795 257.467 23.1254C257.604 22.7712 257.672 22.3466 257.672 21.8516C257.672 21.3485 257.604 20.9158 257.467 20.5536C257.334 20.1874 257.139 19.9057 256.882 19.7084C256.628 19.5112 256.322 19.4126 255.964 19.4126C255.598 19.4126 255.288 19.5133 255.034 19.7145C254.781 19.9157 254.587 20.1995 254.455 20.5657C254.326 20.9279 254.261 21.3565 254.261 21.8516C254.261 22.3466 254.328 22.7712 254.461 23.1254C254.594 23.4795 254.785 23.7512 255.034 23.9403C255.288 24.1295 255.598 24.2241 255.964 24.2241ZM266.793 26.6751C265.823 26.6751 264.986 26.4839 264.281 26.1016C263.581 25.7152 263.042 25.1658 262.663 24.4535C262.289 23.7371 262.102 22.8859 262.102 21.8999C262.102 20.942 262.291 20.1049 262.669 19.3885C263.048 18.6681 263.581 18.1087 264.269 17.7102C264.957 17.3078 265.768 17.1065 266.702 17.1065C267.362 17.1065 267.966 17.2092 268.513 17.4144C269.061 17.6197 269.533 17.9235 269.932 18.326C270.33 18.7285 270.64 19.2255 270.862 19.8171C271.083 20.4047 271.194 21.0788 271.194 21.8395V22.576H263.134V20.8615H268.447C268.443 20.5476 268.368 20.2679 268.223 20.0224C268.079 19.7769 267.879 19.5857 267.626 19.4489C267.376 19.308 267.088 19.2376 266.762 19.2376C266.432 19.2376 266.137 19.312 265.875 19.4609C265.613 19.6058 265.406 19.805 265.253 20.0586C265.1 20.3081 265.02 20.5919 265.012 20.9098V22.6545C265.012 23.0328 265.086 23.3648 265.235 23.6506C265.384 23.9323 265.595 24.1516 265.869 24.3086C266.143 24.4655 266.469 24.544 266.847 24.544C267.109 24.544 267.346 24.5078 267.559 24.4354C267.773 24.3629 267.956 24.2563 268.109 24.1154C268.262 23.9745 268.376 23.8015 268.453 23.5962L271.163 23.6747C271.051 24.2824 270.803 24.8117 270.421 25.2624C270.043 25.7092 269.545 26.0573 268.93 26.3068C268.314 26.5523 267.602 26.6751 266.793 26.6751Z" fill="url(#paint7_linear_1_56)"/>
</g>
<defs>
<filter id="filter0_d_1_56" x="36.2857" y="3.78571" width="241.429" height="32.4286" filterUnits="userSpaceOnUse" color-interpolation-filters="sRGB">
<feFlood flood-opacity="0" result="BackgroundImageFix"/>
<feColorMatrix in="SourceAlpha" type="matrix" values="0 0 0 0 0 0 0 0 0 0 0 0 0 0 0 0 0 0 127 0" result="hardAlpha"/>
<feOffset/>
<feGaussianBlur stdDeviation="2.85714"/>
<feComposite in2="hardAlpha" operator="out"/>
<feColorMatrix type="matrix" values="0 0 0 0 0 0 0 0 0 0 0 0 0 0 0 0 0 0 0.25 0"/>
<feBlend mode="normal" in2="BackgroundImageFix" result="effect1_dropShadow_1_56"/>
<feBlend mode="normal" in="SourceGraphic" in2="effect1_dropShadow_1_56" result="shape"/>
</filter>
<linearGradient id="paint0_linear_1_56" x1="140" y1="0" x2="140" y2="40" gradientUnits="userSpaceOnUse">
<stop stop-color="#08200E"/>
<stop offset="1" stop-color="#0C1D30"/>
</linearGradient>
<linearGradient id="paint1_linear_1_56" x1="14.4203" y1="25.3594" x2="33.9328" y2="25.3594" gradientUnits="userSpaceOnUse">
<stop stop-color="#0C59A4"/>
<stop offset="1" stop-color="#114A8B"/>
</linearGradient>
<radialGradient id="paint2_radial_1_56" cx="0" cy="0" r="1" gradientUnits="userSpaceOnUse" gradientTransform="translate(25.1937 25.5065) scale(10.4344 9.91266)">
<stop offset="0.7" stop-opacity="0"/>
<stop offset="0.9" stop-opacity="0.5"/>
<stop offset="1"/>
</radialGradient>
<linearGradient id="paint3_linear_1_56" x1="24.7016" y1="16.8938" x2="12.5281" y2="30.1609" gradientUnits="userSpaceOnUse">
<stop stop-color="#1B9DE2"/>
<stop offset="0.2" stop-color="#1595DF"/>
<stop offset="0.7" stop-color="#0680D7"/>
<stop offset="1" stop-color="#0078D4"/>
</linearGradient>
<radialGradient id="paint4_radial_1_56" cx="0" cy="0" r="1" gradientUnits="userSpaceOnUse" gradientTransform="translate(15.7169 27.7587) rotate(-81.3844) scale(15.6828 12.6702)">
<stop offset="0.8" stop-opacity="0"/>
<stop offset="0.9" stop-opacity="0.5"/>
<stop offset="1"/>
</radialGradient>
<radialGradient id="paint5_radial_1_56" cx="0" cy="0" r="1" gradientUnits="userSpaceOnUse" gradientTransform="translate(10.8317 11.1752) rotate(92.2906) scale(22.1552 47.186)">
<stop stop-color="#35C1F1"/>
<stop offset="0.1" stop-color="#34C1ED"/>
<stop offset="0.2" stop-color="#2FC2DF"/>
<stop offset="0.3" stop-color="#2BC3D2"/>
<stop offset="0.7" stop-color="#36C752"/>
</radialGradient>
<radialGradient id="paint6_radial_1_56" cx="0" cy="0" r="1" gradientUnits="userSpaceOnUse" gradientTransform="translate(34.2566 14.4547) rotate(73.7398) scale(10.6422 8.65423)">
<stop stop-color="#66EB6E"/>
<stop offset="1" stop-color="#66EB6E" stop-opacity="0"/>
</radialGradient>
<linearGradient id="paint7_linear_1_56" x1="144" y1="20" x2="272" y2="20" gradientUnits="userSpaceOnUse">
<stop offset="0.25" stop-color="#057FD7"/>
<stop offset="0.75" stop-color="#35C1EF"/>
<stop offset="1" stop-color="#40CF62"/>
</linearGradient>
<clipPath id="clip0_1_56">
<rect width="28" height="28" fill="white" transform="translate(8 6)"/>
</clipPath>
</defs>
</svg>
