<svg width="40" height="40" viewBox="0 0 40 40" fill="none" xmlns="http://www.w3.org/2000/svg">
<rect width="40" height="40" rx="8" fill="url(#paint0_linear_1_68)"/>
<rect x="1.05" y="1.05" width="37.9" height="37.9" rx="6.95" stroke="white" stroke-opacity="0.15" stroke-width="2.1"/>
<g clip-path="url(#clip0_1_68)">
<path d="M31.2766 26.8359C30.9011 27.0311 30.5139 27.2027 30.1172 27.35C28.8611 27.8175 27.5309 28.0547 26.1906 28.05C21.0172 28.05 16.5109 24.4953 16.5109 19.9234C16.5177 19.3112 16.6874 18.7119 17.0027 18.1871C17.3179 17.6623 17.7674 17.2309 18.3047 16.9375C13.6234 17.1344 12.4203 22.0125 12.4203 24.8672C12.4203 32.9609 19.8687 33.7703 21.4766 33.7703C22.3406 33.7703 23.6422 33.5188 24.4297 33.2672L24.5719 33.2234C27.5856 32.1819 30.1548 30.1451 31.8562 27.4484C31.9057 27.3665 31.9269 27.2706 31.9167 27.1755C31.9064 27.0803 31.8652 26.9912 31.7994 26.9216C31.7337 26.8521 31.6469 26.8061 31.5524 26.7906C31.458 26.7752 31.3611 26.7911 31.2766 26.8359Z" fill="url(#paint1_linear_1_68)"/>
<path opacity="0.35" d="M31.2766 26.8359C30.9011 27.0311 30.5139 27.2027 30.1172 27.35C28.8611 27.8175 27.5309 28.0547 26.1906 28.05C21.0172 28.05 16.5109 24.4953 16.5109 19.9234C16.5177 19.3112 16.6874 18.7119 17.0027 18.1871C17.3179 17.6623 17.7674 17.2309 18.3047 16.9375C13.6234 17.1344 12.4203 22.0125 12.4203 24.8672C12.4203 32.9609 19.8687 33.7703 21.4766 33.7703C22.3406 33.7703 23.6422 33.5188 24.4297 33.2672L24.5719 33.2234C27.5856 32.1819 30.1548 30.1451 31.8562 27.4484C31.9057 27.3665 31.9269 27.2706 31.9167 27.1755C31.9064 27.0803 31.8652 26.9912 31.7994 26.9216C31.7337 26.8521 31.6469 26.8061 31.5524 26.7906C31.458 26.7752 31.3611 26.7911 31.2766 26.8359Z" fill="url(#paint2_radial_1_68)"/>
<path d="M17.5609 32.3922C16.5874 31.7875 15.7435 30.9957 15.0781 30.0625C14.3183 29.0226 13.7953 27.8289 13.5458 26.5654C13.2963 25.3019 13.3264 23.999 13.6338 22.7483C13.9413 21.4977 14.5187 20.3294 15.3256 19.3256C16.1325 18.3217 17.1493 17.5066 18.3047 16.9375C18.6547 16.7734 19.2344 16.4891 20.0109 16.5C20.5574 16.5042 21.0954 16.6348 21.5831 16.8814C22.0707 17.1281 22.4947 17.4842 22.8219 17.9219C23.262 18.5137 23.5032 19.2297 23.5109 19.9672C23.5109 19.9453 26.1906 11.2609 14.7609 11.2609C9.95937 11.2609 6.01094 15.8109 6.01094 19.8141C5.99184 21.9287 6.44393 24.021 7.33437 25.9391C8.79264 29.0443 11.3403 31.5059 14.4937 32.8568C17.647 34.2077 21.1867 34.3537 24.4406 33.2672C23.3006 33.6272 22.096 33.7355 20.9101 33.5844C19.7242 33.4333 18.5852 33.0266 17.5719 32.3922H17.5609Z" fill="url(#paint3_linear_1_68)"/>
<path opacity="0.41" d="M17.5609 32.3922C16.5874 31.7875 15.7435 30.9957 15.0781 30.0625C14.3183 29.0226 13.7953 27.8289 13.5458 26.5654C13.2963 25.3019 13.3264 23.999 13.6338 22.7483C13.9413 21.4977 14.5187 20.3294 15.3256 19.3256C16.1325 18.3217 17.1493 17.5066 18.3047 16.9375C18.6547 16.7734 19.2344 16.4891 20.0109 16.5C20.5574 16.5042 21.0954 16.6348 21.5831 16.8814C22.0707 17.1281 22.4947 17.4842 22.8219 17.9219C23.262 18.5137 23.5032 19.2297 23.5109 19.9672C23.5109 19.9453 26.1906 11.2609 14.7609 11.2609C9.95937 11.2609 6.01094 15.8109 6.01094 19.8141C5.99184 21.9287 6.44393 24.021 7.33437 25.9391C8.79264 29.0443 11.3403 31.5059 14.4937 32.8568C17.647 34.2077 21.1867 34.3537 24.4406 33.2672C23.3006 33.6272 22.096 33.7355 20.9101 33.5844C19.7242 33.4333 18.5852 33.0266 17.5719 32.3922H17.5609Z" fill="url(#paint4_radial_1_68)"/>
<path d="M22.6687 22.275C22.5703 22.3844 22.2969 22.5484 22.2969 22.8875C22.2969 23.1719 22.4828 23.4563 22.8219 23.6859C24.3859 24.7797 27.35 24.6266 27.3609 24.6266C28.5269 24.6258 29.6714 24.3123 30.675 23.7188C31.6854 23.1278 32.5238 22.2829 33.107 21.268C33.6903 20.2531 33.9981 19.1034 34 17.9328C34.0328 15.4828 33.125 13.8531 32.7641 13.1313C30.4344 8.60312 25.4359 6 20 6C16.3208 5.99964 12.7894 7.44758 10.1695 10.0307C7.54954 12.6137 6.05174 16.1243 6 19.8031C6.05469 15.8109 10.025 12.5844 14.75 12.5844C15.1328 12.5844 17.3203 12.6172 19.3437 13.6781C20.7653 14.3845 21.9425 15.5008 22.7234 16.8828C23.3906 18.0422 23.5109 19.5188 23.5109 20.1094C23.5109 20.7 23.2156 21.5641 22.6578 22.2859L22.6687 22.275Z" fill="url(#paint5_radial_1_68)"/>
<path d="M22.6687 22.275C22.5703 22.3844 22.2969 22.5484 22.2969 22.8875C22.2969 23.1719 22.4828 23.4563 22.8219 23.6859C24.3859 24.7797 27.35 24.6266 27.3609 24.6266C28.5269 24.6258 29.6714 24.3123 30.675 23.7188C31.6854 23.1278 32.5238 22.2829 33.107 21.268C33.6903 20.2531 33.9981 19.1034 34 17.9328C34.0328 15.4828 33.125 13.8531 32.7641 13.1313C30.4344 8.60312 25.4359 6 20 6C16.3208 5.99964 12.7894 7.44758 10.1695 10.0307C7.54954 12.6137 6.05174 16.1243 6 19.8031C6.05469 15.8109 10.025 12.5844 14.75 12.5844C15.1328 12.5844 17.3203 12.6172 19.3437 13.6781C20.7653 14.3845 21.9425 15.5008 22.7234 16.8828C23.3906 18.0422 23.5109 19.5188 23.5109 20.1094C23.5109 20.7 23.2156 21.5641 22.6578 22.2859L22.6687 22.275Z" fill="url(#paint6_radial_1_68)"/>
</g>
<defs>
<linearGradient id="paint0_linear_1_68" x1="20" y1="0" x2="20" y2="40" gradientUnits="userSpaceOnUse">
<stop stop-color="#08200E"/>
<stop offset="1" stop-color="#0C1D30"/>
</linearGradient>
<linearGradient id="paint1_linear_1_68" x1="12.4203" y1="25.3594" x2="31.9328" y2="25.3594" gradientUnits="userSpaceOnUse">
<stop stop-color="#0C59A4"/>
<stop offset="1" stop-color="#114A8B"/>
</linearGradient>
<radialGradient id="paint2_radial_1_68" cx="0" cy="0" r="1" gradientUnits="userSpaceOnUse" gradientTransform="translate(23.1937 25.5065) scale(10.4344 9.91266)">
<stop offset="0.7" stop-opacity="0"/>
<stop offset="0.9" stop-opacity="0.5"/>
<stop offset="1"/>
</radialGradient>
<linearGradient id="paint3_linear_1_68" x1="22.7016" y1="16.8938" x2="10.5281" y2="30.1609" gradientUnits="userSpaceOnUse">
<stop stop-color="#1B9DE2"/>
<stop offset="0.2" stop-color="#1595DF"/>
<stop offset="0.7" stop-color="#0680D7"/>
<stop offset="1" stop-color="#0078D4"/>
</linearGradient>
<radialGradient id="paint4_radial_1_68" cx="0" cy="0" r="1" gradientUnits="userSpaceOnUse" gradientTransform="translate(13.717 27.7587) rotate(-81.3844) scale(15.6828 12.6702)">
<stop offset="0.8" stop-opacity="0"/>
<stop offset="0.9" stop-opacity="0.5"/>
<stop offset="1"/>
</radialGradient>
<radialGradient id="paint5_radial_1_68" cx="0" cy="0" r="1" gradientUnits="userSpaceOnUse" gradientTransform="translate(8.83172 11.1752) rotate(92.2906) scale(22.1552 47.186)">
<stop stop-color="#35C1F1"/>
<stop offset="0.1" stop-color="#34C1ED"/>
<stop offset="0.2" stop-color="#2FC2DF"/>
<stop offset="0.3" stop-color="#2BC3D2"/>
<stop offset="0.7" stop-color="#36C752"/>
</radialGradient>
<radialGradient id="paint6_radial_1_68" cx="0" cy="0" r="1" gradientUnits="userSpaceOnUse" gradientTransform="translate(32.2566 14.4547) rotate(73.7398) scale(10.6422 8.65423)">
<stop stop-color="#66EB6E"/>
<stop offset="1" stop-color="#66EB6E" stop-opacity="0"/>
</radialGradient>
<clipPath id="clip0_1_68">
<rect width="28" height="28" fill="white" transform="translate(6 6)"/>
</clipPath>
</defs>
</svg>
