<svg width="56" height="56" viewBox="0 0 56 56" fill="none" xmlns="http://www.w3.org/2000/svg">
<rect width="56" height="56" rx="8.4" fill="url(#paint0_linear_1_62)"/>
<rect x="1.05" y="1.05" width="53.9" height="53.9" rx="7.35" stroke="white" stroke-opacity="0.15" stroke-width="2.1"/>
<g clip-path="url(#clip0_1_62)">
<path d="M44.1094 37.7656C43.573 38.0444 43.0198 38.2896 42.4531 38.5C40.6587 39.1679 38.7585 39.5067 36.8437 39.5C29.4531 39.5 23.0156 34.4219 23.0156 27.8906C23.0252 27.0161 23.2677 26.1599 23.7181 25.4101C24.1685 24.6604 24.8105 24.0442 25.5781 23.625C18.8906 23.9062 17.1719 30.875 17.1719 34.9531C17.1719 46.5156 27.8125 47.6719 30.1094 47.6719C31.3437 47.6719 33.2031 47.3125 34.3281 46.9531L34.5312 46.8906C38.8366 45.4028 42.5068 42.493 44.9375 38.6406C45.0081 38.5236 45.0385 38.3866 45.0238 38.2507C45.0091 38.1147 44.9503 37.9874 44.8563 37.8881C44.7624 37.7888 44.6384 37.723 44.5035 37.7009C44.3686 37.6788 44.2301 37.7015 44.1094 37.7656Z" fill="url(#paint1_linear_1_62)"/>
<path opacity="0.35" d="M44.1094 37.7656C43.573 38.0444 43.0198 38.2896 42.4531 38.5C40.6587 39.1679 38.7585 39.5067 36.8437 39.5C29.4531 39.5 23.0156 34.4219 23.0156 27.8906C23.0252 27.0161 23.2677 26.1599 23.7181 25.4101C24.1685 24.6604 24.8105 24.0442 25.5781 23.625C18.8906 23.9062 17.1719 30.875 17.1719 34.9531C17.1719 46.5156 27.8125 47.6719 30.1094 47.6719C31.3437 47.6719 33.2031 47.3125 34.3281 46.9531L34.5312 46.8906C38.8366 45.4028 42.5068 42.493 44.9375 38.6406C45.0081 38.5236 45.0385 38.3866 45.0238 38.2507C45.0091 38.1147 44.9503 37.9874 44.8563 37.8881C44.7624 37.7888 44.6384 37.723 44.5035 37.7009C44.3686 37.6788 44.2301 37.7015 44.1094 37.7656Z" fill="url(#paint2_radial_1_62)"/>
<path d="M24.5156 45.7031C23.1248 44.8393 21.9192 43.7081 20.9687 42.375C19.8833 40.8894 19.1362 39.1842 18.7798 37.3791C18.4233 35.5741 18.4662 33.7129 18.9055 31.9262C19.3447 30.1395 20.1696 28.4706 21.3223 27.0365C22.475 25.6025 23.9276 24.4381 25.5781 23.625C26.0781 23.3906 26.9062 22.9844 28.0156 23C28.7963 23.006 29.5649 23.1925 30.2615 23.5449C30.9582 23.8973 31.5638 24.406 32.0312 25.0312C32.6599 25.8767 33.0046 26.8996 33.0156 27.9531C33.0156 27.9219 36.8437 15.5156 20.5156 15.5156C13.6562 15.5156 8.01562 22.0156 8.01562 27.7344C7.98834 30.7552 8.63418 33.7443 9.90625 36.4844C11.9895 40.9204 15.629 44.437 20.1338 46.3669C24.6386 48.2967 29.6952 48.5053 34.3437 46.9531C32.7152 47.4675 30.9943 47.6221 29.3002 47.4063C27.606 47.1905 25.9789 46.6094 24.5312 45.7031H24.5156Z" fill="url(#paint3_linear_1_62)"/>
<path opacity="0.41" d="M24.5156 45.7031C23.1248 44.8393 21.9192 43.7081 20.9687 42.375C19.8833 40.8894 19.1362 39.1842 18.7798 37.3791C18.4233 35.5741 18.4662 33.7129 18.9055 31.9262C19.3447 30.1395 20.1696 28.4706 21.3223 27.0365C22.475 25.6025 23.9276 24.4381 25.5781 23.625C26.0781 23.3906 26.9062 22.9844 28.0156 23C28.7963 23.006 29.5649 23.1925 30.2615 23.5449C30.9582 23.8973 31.5638 24.406 32.0312 25.0312C32.6599 25.8767 33.0046 26.8996 33.0156 27.9531C33.0156 27.9219 36.8437 15.5156 20.5156 15.5156C13.6562 15.5156 8.01562 22.0156 8.01562 27.7344C7.98834 30.7552 8.63418 33.7443 9.90625 36.4844C11.9895 40.9204 15.629 44.437 20.1338 46.3669C24.6386 48.2967 29.6952 48.5053 34.3437 46.9531C32.7152 47.4675 30.9943 47.6221 29.3002 47.4063C27.606 47.1905 25.9789 46.6094 24.5312 45.7031H24.5156Z" fill="url(#paint4_radial_1_62)"/>
<path d="M31.8125 31.25C31.6719 31.4062 31.2812 31.6406 31.2812 32.125C31.2812 32.5312 31.5469 32.9375 32.0312 33.2656C34.2656 34.8281 38.5 34.6094 38.5156 34.6094C40.1813 34.6083 41.8163 34.1604 43.25 33.3125C44.6934 32.4682 45.8911 31.2613 46.7243 29.8114C47.5575 28.3616 47.9973 26.7191 48 25.0469C48.0469 21.5469 46.75 19.2187 46.2344 18.1875C42.9062 11.7187 35.7656 8 28 8C22.744 7.99948 17.6991 10.068 13.9564 13.7581C10.2136 17.4482 8.07391 22.4633 8 27.7187C8.07812 22.0156 13.75 17.4062 20.5 17.4062C21.0469 17.4062 24.1719 17.4531 27.0625 18.9687C29.0933 19.9779 30.775 21.5725 31.8906 23.5469C32.8437 25.2031 33.0156 27.3125 33.0156 28.1562C33.0156 29 32.5937 30.2344 31.7969 31.2656L31.8125 31.25Z" fill="url(#paint5_radial_1_62)"/>
<path d="M31.8125 31.25C31.6719 31.4062 31.2812 31.6406 31.2812 32.125C31.2812 32.5312 31.5469 32.9375 32.0312 33.2656C34.2656 34.8281 38.5 34.6094 38.5156 34.6094C40.1813 34.6083 41.8163 34.1604 43.25 33.3125C44.6934 32.4682 45.8911 31.2613 46.7243 29.8114C47.5575 28.3616 47.9973 26.7191 48 25.0469C48.0469 21.5469 46.75 19.2187 46.2344 18.1875C42.9062 11.7187 35.7656 8 28 8C22.744 7.99948 17.6991 10.068 13.9564 13.7581C10.2136 17.4482 8.07391 22.4633 8 27.7187C8.07812 22.0156 13.75 17.4062 20.5 17.4062C21.0469 17.4062 24.1719 17.4531 27.0625 18.9687C29.0933 19.9779 30.775 21.5725 31.8906 23.5469C32.8437 25.2031 33.0156 27.3125 33.0156 28.1562C33.0156 29 32.5937 30.2344 31.7969 31.2656L31.8125 31.25Z" fill="url(#paint6_radial_1_62)"/>
</g>
<defs>
<linearGradient id="paint0_linear_1_62" x1="28" y1="0" x2="28" y2="56" gradientUnits="userSpaceOnUse">
<stop stop-color="#08200E"/>
<stop offset="1" stop-color="#0C1D30"/>
</linearGradient>
<linearGradient id="paint1_linear_1_62" x1="17.1719" y1="35.6562" x2="45.0469" y2="35.6562" gradientUnits="userSpaceOnUse">
<stop stop-color="#0C59A4"/>
<stop offset="1" stop-color="#114A8B"/>
</linearGradient>
<radialGradient id="paint2_radial_1_62" cx="0" cy="0" r="1" gradientUnits="userSpaceOnUse" gradientTransform="translate(32.5625 35.8664) scale(14.9063 14.1609)">
<stop offset="0.7" stop-opacity="0"/>
<stop offset="0.9" stop-opacity="0.5"/>
<stop offset="1"/>
</radialGradient>
<linearGradient id="paint3_linear_1_62" x1="31.8594" y1="23.5625" x2="14.4687" y2="42.5156" gradientUnits="userSpaceOnUse">
<stop stop-color="#1B9DE2"/>
<stop offset="0.2" stop-color="#1595DF"/>
<stop offset="0.7" stop-color="#0680D7"/>
<stop offset="1" stop-color="#0078D4"/>
</linearGradient>
<radialGradient id="paint4_radial_1_62" cx="0" cy="0" r="1" gradientUnits="userSpaceOnUse" gradientTransform="translate(19.0242 39.0839) rotate(-81.3844) scale(22.4041 18.1002)">
<stop offset="0.8" stop-opacity="0"/>
<stop offset="0.9" stop-opacity="0.5"/>
<stop offset="1"/>
</radialGradient>
<radialGradient id="paint5_radial_1_62" cx="0" cy="0" r="1" gradientUnits="userSpaceOnUse" gradientTransform="translate(12.0453 15.3931) rotate(92.2906) scale(31.6503 67.4085)">
<stop stop-color="#35C1F1"/>
<stop offset="0.1" stop-color="#34C1ED"/>
<stop offset="0.2" stop-color="#2FC2DF"/>
<stop offset="0.3" stop-color="#2BC3D2"/>
<stop offset="0.7" stop-color="#36C752"/>
</radialGradient>
<radialGradient id="paint6_radial_1_62" cx="0" cy="0" r="1" gradientUnits="userSpaceOnUse" gradientTransform="translate(45.5094 20.0781) rotate(73.7398) scale(15.2031 12.3632)">
<stop stop-color="#66EB6E"/>
<stop offset="1" stop-color="#66EB6E" stop-opacity="0"/>
</radialGradient>
<clipPath id="clip0_1_62">
<rect width="40" height="40" fill="white" transform="translate(8 8)"/>
</clipPath>
</defs>
</svg>
