<svg width="285" height="40" viewBox="0 0 285 40" fill="none" xmlns="http://www.w3.org/2000/svg">
<g clip-path="url(#clip0_1_56)">
<rect width="285.001" height="40.0014" rx="8" fill="url(#paint0_linear_1_56)"/>
<g filter="url(#filter0_d_1_56)">
<path d="M22.0009 6.0009C14.0246 6.0009 7.5625 12.4304 7.5625 20.3545C7.5625 26.6996 11.6991 32.0778 17.4321 33.9751C18.1567 34.1106 18.4184 33.6665 18.4184 33.2826C18.4184 32.9417 18.4103 32.0401 18.4048 30.8433C14.3864 31.7081 13.54 28.9137 13.54 28.9137C12.8821 27.2594 11.9328 26.8154 11.9328 26.8154C10.6261 25.9281 12.0366 25.947 12.0366 25.947C13.484 26.0448 14.2457 27.4227 14.2457 27.4227C15.5334 29.6188 17.6243 28.9837 18.4518 28.6141C18.5781 27.6891 18.9544 27.0531 19.3641 26.6988C16.1588 26.339 12.7883 25.1055 12.7883 19.6054C12.7883 18.0346 13.3478 16.7553 14.2727 15.7506C14.113 15.3908 13.6239 13.9286 14.4 11.9514C14.4 11.9514 15.6083 11.5683 18.3705 13.4235C19.5265 13.105 20.7538 12.9462 21.9801 12.9382C23.2074 12.9462 24.4338 13.1059 25.5897 13.4235C28.3358 11.5683 29.5432 11.9514 29.5432 11.9514C30.3183 13.9286 29.8292 15.3899 29.6884 15.7506C30.6044 16.7553 31.1639 18.0355 31.1639 19.6054C31.1639 25.1181 27.7889 26.3336 24.58 26.6844C25.0817 27.1141 25.5518 27.9977 25.5518 29.3389C25.5518 31.2587 25.5338 32.8053 25.5338 33.2727C25.5338 33.6459 25.7865 34.0944 26.53 33.95C32.3054 32.0724 36.4375 26.6898 36.4375 20.3536C36.4375 12.4295 29.9754 6 21.9991 6L22.0009 6.0009Z" fill="white"/>
</g>
<g filter="url(#filter1_d_1_56)">
<g filter="url(#filter2_d_1_56)">
<path d="M43.3597 26.5007V14.1371H47.8874C48.7648 14.1371 49.4912 14.282 50.0667 14.5717C50.6423 14.8575 51.0729 15.2458 51.3586 15.7369C51.6444 16.2238 51.7873 16.7732 51.7873 17.3849C51.7873 17.9001 51.6927 18.3347 51.5035 18.6889C51.3144 19.0391 51.0608 19.3208 50.7429 19.5341C50.429 19.7434 50.0828 19.8963 49.7045 19.9929V20.1136C50.115 20.1337 50.5155 20.2666 50.9059 20.5121C51.3003 20.7535 51.6263 21.0976 51.8839 21.5444C52.1414 21.9911 52.2702 22.5344 52.2702 23.1743C52.2702 23.8062 52.1213 24.3737 51.8235 24.8768C51.5297 25.3758 51.0749 25.7722 50.4591 26.066C49.8434 26.3558 49.0566 26.5007 48.0987 26.5007H43.3597ZM45.2251 24.9009H47.9176C48.8111 24.9009 49.451 24.7279 49.8373 24.3817C50.2237 24.0356 50.4169 23.603 50.4169 23.0838C50.4169 22.6934 50.3183 22.3352 50.1211 22.0092C49.9239 21.6832 49.6421 21.4236 49.2759 21.2305C48.9137 21.0373 48.483 20.9407 47.984 20.9407H45.2251V24.9009ZM45.2251 19.4858H47.7244C48.143 19.4858 48.5193 19.4053 48.8533 19.2443C49.1914 19.0833 49.459 18.8579 49.6562 18.5682C49.8575 18.2744 49.9581 17.9283 49.9581 17.5298C49.9581 17.0187 49.779 16.5901 49.4208 16.244C49.0626 15.8978 48.5132 15.7248 47.7727 15.7248H45.2251V19.4858ZM60.2118 22.6552V17.228H62.0229V26.5007H60.248V24.8949H60.1514C59.9381 25.3899 59.596 25.8024 59.1251 26.1324C58.6583 26.4584 58.0767 26.6214 57.3805 26.6214C56.7848 26.6214 56.2576 26.4906 55.7988 26.229C55.344 25.9634 54.9858 25.571 54.7242 25.0518C54.4667 24.5327 54.3379 23.8907 54.3379 23.1261V17.228H56.1429V22.9087C56.1429 23.5406 56.318 24.0437 56.6681 24.418C57.0183 24.7922 57.473 24.9794 58.0325 24.9794C58.3705 24.9794 58.7066 24.8949 59.0406 24.7258C59.3787 24.5568 59.6584 24.3012 59.8798 23.9591C60.1051 23.6171 60.2158 23.1824 60.2118 22.6552ZM64.4482 26.5007V17.228H66.2533V26.5007H64.4482ZM65.3598 15.7972C65.0459 15.7972 64.7762 15.6926 64.5508 15.4833C64.3295 15.27 64.2188 15.0164 64.2188 14.7226C64.2188 14.4248 64.3295 14.1713 64.5508 13.962C64.7762 13.7487 65.0459 13.642 65.3598 13.642C65.6737 13.642 65.9413 13.7487 66.1627 13.962C66.3881 14.1713 66.5008 14.4248 66.5008 14.7226C66.5008 15.0164 66.3881 15.27 66.1627 15.4833C65.9413 15.6926 65.6737 15.7972 65.3598 15.7972ZM70.4867 14.1371V26.5007H68.6816V14.1371H70.4867ZM77.2435 17.228V18.6768H72.1785V17.228H77.2435ZM73.5368 15.0064H75.3419V23.778C75.3419 24.1282 75.3942 24.3918 75.4988 24.5689C75.6035 24.7419 75.7383 24.8607 75.9033 24.9251C76.0723 24.9854 76.2554 25.0156 76.4526 25.0156C76.5975 25.0156 76.7243 25.0056 76.833 24.9854C76.9416 24.9653 77.0262 24.9492 77.0865 24.9371L77.4125 26.4283C77.3079 26.4685 77.159 26.5087 76.9658 26.549C76.7726 26.5933 76.5311 26.6174 76.2414 26.6214C75.7664 26.6295 75.3237 26.545 74.9132 26.3679C74.5027 26.1908 74.1707 25.9171 73.9171 25.5469C73.6636 25.1766 73.5368 24.7118 73.5368 24.1523V15.0064ZM85.7495 26.5007L83.0208 17.228H84.8862L86.7034 24.0376H86.7939L88.6171 17.228H90.4825L92.2936 24.0074H92.3841L94.1891 17.228H96.0546L93.3319 26.5007H91.4906L89.6071 19.8057H89.4683L87.5847 26.5007H85.7495ZM97.7675 26.5007V17.228H99.5726V26.5007H97.7675ZM98.6791 15.7972C98.3652 15.7972 98.0955 15.6926 97.8702 15.4833C97.6488 15.27 97.5381 15.0164 97.5381 14.7226C97.5381 14.4248 97.6488 14.1713 97.8702 13.962C98.0955 13.7487 98.3652 13.642 98.6791 13.642C98.993 13.642 99.2607 13.7487 99.482 13.962C99.7074 14.1713 99.8201 14.4248 99.8201 14.7226C99.8201 15.0164 99.7074 15.27 99.482 15.4833C99.2607 15.6926 98.993 15.7972 98.6791 15.7972ZM106.329 17.228V18.6768H101.264V17.228H106.329ZM102.623 15.0064H104.428V23.778C104.428 24.1282 104.48 24.3918 104.585 24.5689C104.689 24.7419 104.824 24.8607 104.989 24.9251C105.158 24.9854 105.341 25.0156 105.539 25.0156C105.683 25.0156 105.81 25.0056 105.919 24.9854C106.028 24.9653 106.112 24.9492 106.172 24.9371L106.498 26.4283C106.394 26.4685 106.245 26.5087 106.052 26.549C105.859 26.5933 105.617 26.6174 105.327 26.6214C104.852 26.6295 104.41 26.545 103.999 26.3679C103.589 26.1908 103.257 25.9171 103.003 25.5469C102.75 25.1766 102.623 24.7118 102.623 24.1523V15.0064ZM110.33 20.995V26.5007H108.525V14.1371H110.306V18.7372H110.421C110.638 18.2382 110.97 17.8417 111.417 17.5479C111.864 17.2541 112.447 17.1072 113.168 17.1072C113.804 17.1072 114.359 17.238 114.834 17.4996C115.313 17.7612 115.683 18.1516 115.945 18.6708C116.21 19.1859 116.343 19.8299 116.343 20.6026V26.5007H114.538V20.8199C114.538 20.1398 114.363 19.6126 114.013 19.2383C113.663 18.86 113.176 18.6708 112.552 18.6708C112.125 18.6708 111.743 18.7614 111.405 18.9425C111.071 19.1236 110.807 19.3892 110.614 19.7393C110.425 20.0855 110.33 20.504 110.33 20.995Z" fill="#E8E8E8"/>
</g>
<path d="M131.051 18.1758C130.982 17.9222 130.882 17.6989 130.749 17.5057C130.616 17.3085 130.453 17.1414 130.26 17.0046C130.067 16.8678 129.845 16.7651 129.596 16.6967C129.346 16.6243 129.073 16.5881 128.775 16.5881C128.175 16.5881 127.656 16.7329 127.217 17.0227C126.783 17.3125 126.447 17.7351 126.209 18.2905C125.972 18.8418 125.853 19.5119 125.853 20.3008C125.853 21.0936 125.968 21.7698 126.197 22.3292C126.426 22.8886 126.758 23.3152 127.193 23.609C127.628 23.9028 128.155 24.0497 128.775 24.0497C129.322 24.0497 129.785 23.9612 130.163 23.7841C130.546 23.603 130.835 23.3474 131.033 23.0174C131.23 22.6874 131.328 22.299 131.328 21.8523L131.884 21.9187H128.877V19.7393H134.208V21.3753C134.208 22.4821 133.973 23.4299 133.502 24.2187C133.035 25.0076 132.391 25.6133 131.57 26.0359C130.753 26.4584 129.813 26.6697 128.751 26.6697C127.571 26.6697 126.535 26.4142 125.642 25.903C124.748 25.3919 124.052 24.6635 123.553 23.7177C123.054 22.7679 122.804 21.641 122.804 20.337C122.804 19.3228 122.955 18.4233 123.257 17.6385C123.559 16.8497 123.979 16.1816 124.519 15.6342C125.062 15.0869 125.69 14.6723 126.402 14.3906C127.119 14.1089 127.889 13.968 128.714 13.968C129.431 13.968 130.097 14.0707 130.713 14.2759C131.332 14.4812 131.88 14.7709 132.355 15.1452C132.834 15.5195 133.222 15.9642 133.52 16.4794C133.818 16.9945 134.003 17.56 134.075 18.1758H131.051ZM136.55 26.5007V17.228H139.502V26.5007H136.55ZM138.029 16.1474C137.615 16.1474 137.259 16.0105 136.961 15.7369C136.663 15.4592 136.514 15.1251 136.514 14.7347C136.514 14.3484 136.663 14.0183 136.961 13.7447C137.259 13.467 137.615 13.3281 138.029 13.3281C138.448 13.3281 138.804 13.467 139.098 13.7447C139.396 14.0183 139.545 14.3484 139.545 14.7347C139.545 15.1251 139.396 15.4592 139.098 15.7369C138.804 16.0105 138.448 16.1474 138.029 16.1474ZM146.615 17.228V19.4013H140.766V17.228H146.615ZM141.991 15.0064H144.943V23.5849C144.943 23.766 144.971 23.9129 145.028 24.0256C145.088 24.1342 145.175 24.2127 145.287 24.261C145.4 24.3053 145.535 24.3274 145.692 24.3274C145.804 24.3274 145.923 24.3173 146.048 24.2972C146.177 24.2731 146.273 24.2529 146.338 24.2368L146.784 26.3679C146.644 26.4081 146.444 26.4584 146.187 26.5188C145.933 26.5792 145.629 26.6174 145.275 26.6335C144.583 26.6657 143.989 26.5852 143.494 26.392C143.003 26.1948 142.627 25.889 142.365 25.4744C142.108 25.0599 141.983 24.5387 141.991 23.9109V15.0064ZM148.321 26.5007V14.1371H151.309V19.0994H156.181V14.1371H159.163V26.5007H156.181V21.5323H151.309V26.5007H148.321ZM167.02 22.4982V17.228H169.966V26.5007H167.153V24.7741H167.056C166.851 25.3416 166.501 25.7924 166.006 26.1264C165.515 26.4564 164.921 26.6214 164.225 26.6214C163.593 26.6214 163.038 26.4765 162.559 26.1868C162.08 25.897 161.708 25.4925 161.442 24.9734C161.177 24.4502 161.042 23.8384 161.038 23.1381V17.228H163.99V22.5586C163.994 23.0617 164.127 23.4581 164.388 23.7479C164.65 24.0376 165.006 24.1825 165.457 24.1825C165.751 24.1825 166.014 24.1181 166.248 23.9893C166.485 23.8565 166.672 23.6654 166.809 23.4158C166.95 23.1623 167.02 22.8564 167.02 22.4982ZM171.845 26.5007V14.1371H174.797V18.8157H174.858C174.978 18.534 175.149 18.2623 175.371 18.0007C175.596 17.7391 175.882 17.5258 176.228 17.3608C176.578 17.1918 176.997 17.1072 177.484 17.1072C178.128 17.1072 178.729 17.2763 179.289 17.6143C179.852 17.9524 180.307 18.4736 180.653 19.1779C180.999 19.8822 181.172 20.7797 181.172 21.8704C181.172 22.9208 181.005 23.8002 180.671 24.5085C180.341 25.2168 179.895 25.7481 179.331 26.1023C178.772 26.4564 178.15 26.6335 177.466 26.6335C176.999 26.6335 176.594 26.557 176.252 26.4041C175.91 26.2512 175.622 26.0499 175.389 25.8004C175.16 25.5509 174.982 25.2832 174.858 24.9975H174.767V26.5007H171.845ZM174.737 21.8643C174.737 22.3634 174.803 22.798 174.936 23.1683C175.073 23.5386 175.268 23.8263 175.522 24.0316C175.779 24.2328 176.087 24.3334 176.445 24.3334C176.808 24.3334 177.116 24.2328 177.369 24.0316C177.623 23.8263 177.814 23.5386 177.943 23.1683C178.075 22.798 178.142 22.3634 178.142 21.8643C178.142 21.3653 178.075 20.9326 177.943 20.5664C177.814 20.2002 177.623 19.9164 177.369 19.7152C177.12 19.514 176.812 19.4133 176.445 19.4133C176.083 19.4133 175.775 19.5119 175.522 19.7092C175.268 19.9064 175.073 20.1881 174.936 20.5543C174.803 20.9206 174.737 21.3572 174.737 21.8643ZM189.336 26.5007L185.738 14.1371H189.04L190.905 22.2386H191.008L193.139 14.1371H195.832L197.963 22.2567H198.065L199.937 14.1371H203.233L199.641 26.5007H196.761L194.534 19.0028H194.437L192.209 26.5007H189.336ZM207.767 26.6758C206.793 26.6758 205.955 26.4765 205.255 26.0781C204.559 25.6756 204.022 25.1162 203.643 24.3998C203.269 23.6794 203.082 22.8443 203.082 21.8945C203.082 20.9407 203.269 20.1056 203.643 19.3892C204.022 18.6688 204.559 18.1094 205.255 17.7109C205.955 17.3085 206.793 17.1072 207.767 17.1072C208.74 17.1072 209.576 17.3085 210.272 17.7109C210.972 18.1094 211.509 18.6688 211.884 19.3892C212.262 20.1056 212.451 20.9407 212.451 21.8945C212.451 22.8443 212.262 23.6794 211.884 24.3998C211.509 25.1162 210.972 25.6756 210.272 26.0781C209.576 26.4765 208.74 26.6758 207.767 26.6758ZM207.785 24.4481C208.139 24.4481 208.439 24.3395 208.684 24.1221C208.93 23.9048 209.117 23.603 209.246 23.2166C209.378 22.8302 209.445 22.3835 209.445 21.8764C209.445 21.3613 209.378 20.9105 209.246 20.5241C209.117 20.1378 208.93 19.8359 208.684 19.6186C208.439 19.4013 208.139 19.2926 207.785 19.2926C207.418 19.2926 207.109 19.4013 206.855 19.6186C206.605 19.8359 206.414 20.1378 206.281 20.5241C206.153 20.9105 206.088 21.3613 206.088 21.8764C206.088 22.3835 206.153 22.8302 206.281 23.2166C206.414 23.603 206.605 23.9048 206.855 24.1221C207.109 24.3395 207.418 24.4481 207.785 24.4481ZM213.963 26.5007V17.228H216.831V18.9183H216.928C217.097 18.3066 217.372 17.8518 217.755 17.554C218.137 17.2521 218.582 17.1012 219.089 17.1012C219.226 17.1012 219.366 17.1113 219.511 17.1314C219.656 17.1475 219.791 17.1736 219.916 17.2099V19.7756C219.775 19.7273 219.59 19.689 219.36 19.6609C219.135 19.6327 218.934 19.6186 218.757 19.6186C218.407 19.6186 218.091 19.6971 217.809 19.854C217.531 20.007 217.312 20.2223 217.151 20.5C216.994 20.7737 216.915 21.0956 216.915 21.4659V26.5007H213.963ZM223.781 24.0678L223.793 20.5483H224.204L226.812 17.228H230.156L226.28 21.9851H225.502L223.781 24.0678ZM221.119 26.5007V14.1371H224.071V26.5007H221.119ZM226.878 26.5007L224.451 22.6491L226.395 20.5543L230.289 26.5007H226.878ZM236.483 17.228V19.4013H230.518V17.228H236.483ZM231.762 26.5007V16.7571C231.762 16.0407 231.897 15.4471 232.166 14.9762C232.436 14.5013 232.81 14.1471 233.289 13.9137C233.768 13.6762 234.321 13.5575 234.949 13.5575C235.36 13.5575 235.746 13.5897 236.108 13.6541C236.475 13.7145 236.746 13.7688 236.923 13.8171L236.453 15.9783C236.344 15.9421 236.211 15.9119 236.054 15.8878C235.901 15.8636 235.756 15.8516 235.619 15.8516C235.273 15.8516 235.036 15.928 234.907 16.081C234.778 16.2339 234.714 16.4432 234.714 16.7088V26.5007H231.762ZM240.855 14.1371V26.5007H237.903V14.1371H240.855ZM247.062 26.6758C246.088 26.6758 245.251 26.4765 244.551 26.0781C243.855 25.6756 243.318 25.1162 242.939 24.3998C242.565 23.6794 242.378 22.8443 242.378 21.8945C242.378 20.9407 242.565 20.1056 242.939 19.3892C243.318 18.6688 243.855 18.1094 244.551 17.7109C245.251 17.3085 246.088 17.1072 247.062 17.1072C248.036 17.1072 248.871 17.3085 249.568 17.7109C250.268 18.1094 250.805 18.6688 251.18 19.3892C251.558 20.1056 251.747 20.9407 251.747 21.8945C251.747 22.8443 251.558 23.6794 251.18 24.3998C250.805 25.1162 250.268 25.6756 249.568 26.0781C248.871 26.4765 248.036 26.6758 247.062 26.6758ZM247.081 24.4481C247.435 24.4481 247.735 24.3395 247.98 24.1221C248.226 23.9048 248.413 23.603 248.541 23.2166C248.674 22.8302 248.741 22.3835 248.741 21.8764C248.741 21.3613 248.674 20.9105 248.541 20.5241C248.413 20.1378 248.226 19.8359 247.98 19.6186C247.735 19.4013 247.435 19.2926 247.081 19.2926C246.714 19.2926 246.404 19.4013 246.151 19.6186C245.901 19.8359 245.71 20.1378 245.577 20.5241C245.449 20.9105 245.384 21.3613 245.384 21.8764C245.384 22.3835 245.449 22.8302 245.577 23.2166C245.71 23.603 245.901 23.9048 246.151 24.1221C246.404 24.3395 246.714 24.4481 247.081 24.4481ZM254.793 26.5007L252.378 17.228H255.342L256.592 23.1683H256.67L258.01 17.228H260.902L262.278 23.1261H262.357L263.57 17.228H266.535L264.114 26.5007H260.956L259.508 21.0976H259.405L257.956 26.5007H254.793ZM275.815 20.0593L273.104 20.1317C273.076 19.9386 273 19.7675 272.875 19.6186C272.75 19.4657 272.587 19.3469 272.386 19.2624C272.189 19.1739 271.959 19.1296 271.698 19.1296C271.356 19.1296 271.064 19.198 270.822 19.3349C270.585 19.4717 270.468 19.6568 270.472 19.8903C270.468 20.0714 270.541 20.2283 270.689 20.3611C270.842 20.494 271.114 20.6006 271.504 20.6811L273.291 21.0192C274.217 21.1962 274.905 21.49 275.356 21.9006C275.811 22.3111 276.04 22.8544 276.044 23.5305C276.04 24.1664 275.851 24.7198 275.477 25.1907C275.106 25.6616 274.599 26.0278 273.955 26.2894C273.311 26.547 272.575 26.6758 271.746 26.6758C270.422 26.6758 269.377 26.4041 268.613 25.8608C267.852 25.3134 267.417 24.581 267.309 23.6633L270.225 23.5909C270.289 23.929 270.456 24.1865 270.726 24.3636C270.995 24.5407 271.339 24.6292 271.758 24.6292C272.136 24.6292 272.444 24.5588 272.682 24.418C272.919 24.2771 273.04 24.0899 273.044 23.8565C273.04 23.6472 272.947 23.4802 272.766 23.3555C272.585 23.2267 272.301 23.1261 271.915 23.0536L270.297 22.7457C269.367 22.5767 268.675 22.2648 268.22 21.81C267.766 21.3512 267.54 20.7676 267.544 20.0593C267.54 19.4395 267.705 18.9103 268.039 18.4716C268.373 18.0289 268.848 17.6908 269.464 17.4574C270.08 17.2239 270.806 17.1072 271.643 17.1072C272.899 17.1072 273.889 17.3708 274.613 17.8981C275.338 18.4213 275.738 19.1417 275.815 20.0593Z" fill="#EFEFEF"/>
</g>
</g>
<rect x="1.07143" y="1.07143" width="282.858" height="37.8585" rx="6.92857" stroke="white" stroke-opacity="0.15" stroke-width="2.14286"/>
<defs>
<filter id="filter0_d_1_56" x="1.96222" y="0.39972" width="187.638" height="144.2" filterUnits="userSpaceOnUse" color-interpolation-filters="sRGB">
<feFlood flood-opacity="0" result="BackgroundImageFix"/>
<feColorMatrix in="SourceAlpha" type="matrix" values="0 0 0 0 0 0 0 0 0 0 0 0 0 0 0 0 0 0 127 0" result="hardAlpha"/>
<feOffset/>
<feGaussianBlur stdDeviation="2.80014"/>
<feComposite in2="hardAlpha" operator="out"/>
<feColorMatrix type="matrix" values="0 0 0 0 0 0 0 0 0 0 0 0 0 0 0 0 0 0 0.25 0"/>
<feBlend mode="normal" in2="BackgroundImageFix" result="effect1_dropShadow_1_56"/>
<feBlend mode="normal" in="SourceGraphic" in2="effect1_dropShadow_1_56" result="shape"/>
</filter>
<filter id="filter1_d_1_56" x="36.2871" y="3.78642" width="246.428" height="32.4286" filterUnits="userSpaceOnUse" color-interpolation-filters="sRGB">
<feFlood flood-opacity="0" result="BackgroundImageFix"/>
<feColorMatrix in="SourceAlpha" type="matrix" values="0 0 0 0 0 0 0 0 0 0 0 0 0 0 0 0 0 0 127 0" result="hardAlpha"/>
<feOffset/>
<feGaussianBlur stdDeviation="2.85714"/>
<feComposite in2="hardAlpha" operator="out"/>
<feColorMatrix type="matrix" values="0 0 0 0 0 0 0 0 0 0 0 0 0 0 0 0 0 0 0.25 0"/>
<feBlend mode="normal" in2="BackgroundImageFix" result="effect1_dropShadow_1_56"/>
<feBlend mode="normal" in="SourceGraphic" in2="effect1_dropShadow_1_56" result="shape"/>
</filter>
<filter id="filter2_d_1_56" x="39.3597" y="13.642" width="80.9835" height="20.9915" filterUnits="userSpaceOnUse" color-interpolation-filters="sRGB">
<feFlood flood-opacity="0" result="BackgroundImageFix"/>
<feColorMatrix in="SourceAlpha" type="matrix" values="0 0 0 0 0 0 0 0 0 0 0 0 0 0 0 0 0 0 127 0" result="hardAlpha"/>
<feOffset dy="4"/>
<feGaussianBlur stdDeviation="2"/>
<feComposite in2="hardAlpha" operator="out"/>
<feColorMatrix type="matrix" values="0 0 0 0 0 0 0 0 0 0 0 0 0 0 0 0 0 0 0.25 0"/>
<feBlend mode="normal" in2="BackgroundImageFix" result="effect1_dropShadow_1_56"/>
<feBlend mode="normal" in="SourceGraphic" in2="effect1_dropShadow_1_56" result="shape"/>
</filter>
<linearGradient id="paint0_linear_1_56" x1="142.501" y1="0" x2="142.501" y2="40.0014" gradientUnits="userSpaceOnUse">
<stop stop-color="#181F29"/>
<stop offset="1" stop-color="#0F131A"/>
</linearGradient>
<clipPath id="clip0_1_56">
<rect width="285.001" height="40.0014" rx="8" fill="white"/>
</clipPath>
</defs>
</svg>
