<svg width="227" height="56" viewBox="0 0 227 56" fill="none" xmlns="http://www.w3.org/2000/svg">
<g clip-path="url(#clip0_1_50)">
<rect width="227" height="56" rx="8" fill="url(#paint0_linear_1_50)"/>
<g filter="url(#filter0_d_1_50)">
<path d="M32.0013 8.00128C20.6066 8.00128 11.375 17.1863 11.375 28.5064C11.375 37.5709 17.2844 45.2539 25.4744 47.9645C26.5095 48.158 26.8834 47.5236 26.8834 46.9751C26.8834 46.4881 26.8718 45.2001 26.8641 43.4905C21.1235 44.7259 19.9143 40.7338 19.9143 40.7338C18.9745 38.3706 17.6183 37.7362 17.6183 37.7362C15.7516 36.4688 17.7666 36.4957 17.7666 36.4957C19.8344 36.6354 20.9224 38.6039 20.9224 38.6039C22.762 41.7412 25.7489 40.8338 26.9311 40.3058C27.1116 38.9845 27.6491 38.0759 28.2344 37.5696C23.6554 37.0557 18.8404 35.2936 18.8404 27.4363C18.8404 25.1923 19.6397 23.3647 20.9611 21.9294C20.7329 21.4155 20.0342 19.3265 21.1428 16.5019C21.1428 16.5019 22.869 15.9547 26.8151 18.605C28.4665 18.15 30.2197 17.9232 31.9716 17.9117C33.7249 17.9232 35.4768 18.1513 37.1282 18.605C41.0511 15.9547 42.7759 16.5019 42.7759 16.5019C43.8833 19.3265 43.1846 21.4142 42.9835 21.9294C44.292 23.3647 45.0912 25.1935 45.0912 27.4363C45.0912 35.3115 40.2699 37.048 35.6857 37.5491C36.4024 38.163 37.0741 39.4254 37.0741 41.3413C37.0741 44.0839 37.0483 46.2933 37.0483 46.961C37.0483 47.4941 37.4092 48.1349 38.4715 47.9286C46.722 45.2462 52.625 37.5568 52.625 28.5051C52.625 17.185 43.3934 8 31.9987 8L32.0013 8.00128Z" fill="white"/>
</g>
<g filter="url(#filter1_d_1_50)">
<path d="M61.2784 24.5V12.8636H65.5398C66.3655 12.8636 67.0492 13 67.5909 13.2727C68.1326 13.5417 68.5379 13.9072 68.8068 14.3693C69.0757 14.8276 69.2102 15.3447 69.2102 15.9204C69.2102 16.4053 69.1212 16.8144 68.9432 17.1477C68.7651 17.4773 68.5265 17.7424 68.2273 17.9432C67.9318 18.1401 67.606 18.2841 67.25 18.375V18.4886C67.6363 18.5076 68.0132 18.6326 68.3807 18.8636C68.7519 19.0909 69.0587 19.4148 69.3011 19.8352C69.5435 20.2557 69.6648 20.767 69.6648 21.3693C69.6648 21.964 69.5246 22.4981 69.2443 22.9716C68.9678 23.4413 68.5398 23.8144 67.9602 24.0909C67.3807 24.3636 66.6401 24.5 65.7386 24.5H61.2784ZM63.0341 22.9943H65.5682C66.4091 22.9943 67.0113 22.8314 67.375 22.5057C67.7386 22.1799 67.9204 21.7727 67.9204 21.2841C67.9204 20.9167 67.8276 20.5795 67.642 20.2727C67.4564 19.9659 67.1913 19.7216 66.8466 19.5398C66.5057 19.3579 66.1004 19.267 65.6307 19.267H63.0341V22.9943ZM63.0341 17.8977H65.3863C65.7803 17.8977 66.1345 17.822 66.4488 17.6704C66.767 17.5189 67.0189 17.3068 67.2045 17.0341C67.3939 16.7576 67.4886 16.4318 67.4886 16.0568C67.4886 15.5758 67.3201 15.1723 66.9829 14.8466C66.6458 14.5208 66.1288 14.3579 65.4318 14.3579H63.0341V17.8977ZM77.1392 20.8807V15.7727H78.8437V24.5H77.1733V22.9886H77.0824C76.8816 23.4545 76.5596 23.8428 76.1165 24.1534C75.6771 24.4602 75.1297 24.6136 74.4744 24.6136C73.9138 24.6136 73.4176 24.4905 72.9858 24.2443C72.5577 23.9943 72.2206 23.625 71.9744 23.1364C71.732 22.6477 71.6108 22.0436 71.6108 21.3239V15.7727H73.3096V21.1193C73.3096 21.714 73.4744 22.1875 73.804 22.5398C74.1335 22.892 74.5615 23.0682 75.088 23.0682C75.4062 23.0682 75.7225 22.9886 76.0369 22.8295C76.3551 22.6704 76.6184 22.4299 76.8267 22.1079C77.0388 21.786 77.143 21.3769 77.1392 20.8807ZM81.1264 24.5V15.7727H82.8253V24.5H81.1264ZM81.9844 14.4261C81.6889 14.4261 81.4351 14.3276 81.223 14.1307C81.0147 13.9299 80.9105 13.6913 80.9105 13.4148C80.9105 13.1345 81.0147 12.8958 81.223 12.6989C81.4351 12.4981 81.6889 12.3977 81.9844 12.3977C82.2798 12.3977 82.5317 12.4981 82.74 12.6989C82.9522 12.8958 83.0582 13.1345 83.0582 13.4148C83.0582 13.6913 82.9522 13.9299 82.74 14.1307C82.5317 14.3276 82.2798 14.4261 81.9844 14.4261ZM86.8096 12.8636V24.5H85.1108V12.8636H86.8096ZM93.169 15.7727V17.1364H88.402V15.7727H93.169ZM89.6804 13.6818H91.3792V21.9375C91.3792 22.267 91.4285 22.5151 91.527 22.6818C91.6254 22.8447 91.7523 22.9564 91.9076 23.017C92.0667 23.0739 92.2391 23.1023 92.4247 23.1023C92.5611 23.1023 92.6804 23.0928 92.7826 23.0739C92.8849 23.0549 92.9645 23.0398 93.0213 23.0284L93.3281 24.4318C93.2296 24.4697 93.0895 24.5076 92.9076 24.5454C92.7258 24.5871 92.4986 24.6098 92.2258 24.6136C91.7789 24.6212 91.3622 24.5417 90.9758 24.375C90.5895 24.2083 90.277 23.9508 90.0383 23.6023C89.7997 23.2538 89.6804 22.8163 89.6804 22.2898V13.6818ZM101.175 24.5L98.6065 15.7727H100.362L102.072 22.1818H102.158L103.874 15.7727H105.629L107.334 22.1534H107.419L109.118 15.7727H110.874L108.311 24.5H106.578L104.805 18.1989H104.675L102.902 24.5H101.175ZM112.486 24.5V15.7727H114.185V24.5H112.486ZM113.344 14.4261C113.048 14.4261 112.794 14.3276 112.582 14.1307C112.374 13.9299 112.27 13.6913 112.27 13.4148C112.27 13.1345 112.374 12.8958 112.582 12.6989C112.794 12.4981 113.048 12.3977 113.344 12.3977C113.639 12.3977 113.891 12.4981 114.099 12.6989C114.312 12.8958 114.418 13.1345 114.418 13.4148C114.418 13.6913 114.312 13.9299 114.099 14.1307C113.891 14.3276 113.639 14.4261 113.344 14.4261ZM120.544 15.7727V17.1364H115.777V15.7727H120.544ZM117.055 13.6818H118.754V21.9375C118.754 22.267 118.803 22.5151 118.902 22.6818C119 22.8447 119.127 22.9564 119.283 23.017C119.442 23.0739 119.614 23.1023 119.8 23.1023C119.936 23.1023 120.055 23.0928 120.158 23.0739C120.26 23.0549 120.339 23.0398 120.396 23.0284L120.703 24.4318C120.605 24.4697 120.464 24.5076 120.283 24.5454C120.101 24.5871 119.874 24.6098 119.601 24.6136C119.154 24.6212 118.737 24.5417 118.351 24.375C117.964 24.2083 117.652 23.9508 117.413 23.6023C117.175 23.2538 117.055 22.8163 117.055 22.2898V13.6818ZM124.31 19.3182V24.5H122.611V12.8636H124.287V17.1932H124.395C124.599 16.7235 124.912 16.3504 125.332 16.0739C125.753 15.7973 126.302 15.6591 126.98 15.6591C127.579 15.6591 128.101 15.7822 128.548 16.0284C128.999 16.2746 129.348 16.642 129.594 17.1307C129.844 17.6155 129.969 18.2216 129.969 18.9489V24.5H128.27V19.1534C128.27 18.5133 128.105 18.017 127.776 17.6648C127.446 17.3087 126.988 17.1307 126.401 17.1307C125.999 17.1307 125.639 17.2159 125.321 17.3864C125.007 17.5568 124.758 17.8068 124.577 18.1364C124.399 18.4621 124.31 18.8561 124.31 19.3182Z" fill="#E8E8E8"/>
<path d="M69.0493 35.1751C68.9809 34.9215 68.8803 34.6981 68.7475 34.505C68.6147 34.3078 68.4517 34.1407 68.2585 34.0039C68.0653 33.8671 67.844 33.7644 67.5944 33.696C67.3449 33.6236 67.0712 33.5873 66.7734 33.5873C66.1738 33.5873 65.6546 33.7322 65.2159 34.022C64.7812 34.3118 64.4452 34.7344 64.2077 35.2898C63.9703 35.8411 63.8515 36.5112 63.8515 37.3001C63.8515 38.0929 63.9662 38.769 64.1957 39.3285C64.4251 39.8879 64.7571 40.3145 65.1917 40.6083C65.6264 40.9021 66.1536 41.049 66.7734 41.049C67.3208 41.049 67.7836 40.9605 68.1619 40.7834C68.5443 40.6023 68.834 40.3467 69.0312 40.0167C69.2284 39.6867 69.327 39.2983 69.327 38.8516L69.8824 38.918H66.876V36.7386H72.2067V38.3746C72.2067 39.4814 71.9712 40.4292 71.5003 41.218C71.0335 42.0069 70.3895 42.6126 69.5685 43.0351C68.7515 43.4577 67.8118 43.669 66.7493 43.669C65.5701 43.669 64.5337 43.4135 63.6403 42.9023C62.7468 42.3912 62.0505 41.6627 61.5515 40.717C61.0524 39.7672 60.8029 38.6403 60.8029 37.3363C60.8029 36.3221 60.9538 35.4226 61.2557 34.6378C61.5575 33.8489 61.9781 33.1809 62.5174 32.6335C63.0607 32.0862 63.6885 31.6716 64.4009 31.3899C65.1173 31.1082 65.888 30.9673 66.7131 30.9673C67.4294 30.9673 68.0955 31.0699 68.7113 31.2752C69.3311 31.4805 69.8784 31.7702 70.3533 32.1445C70.8322 32.5188 71.2206 32.9635 71.5184 33.4787C71.8163 33.9938 72.0014 34.5593 72.0738 35.1751H69.0493ZM74.549 43.5V34.2273H77.501V43.5H74.549ZM76.028 33.1467C75.6135 33.1467 75.2573 33.0098 74.9595 32.7361C74.6617 32.4584 74.5128 32.1244 74.5128 31.734C74.5128 31.3476 74.6617 31.0176 74.9595 30.744C75.2573 30.4663 75.6135 30.3274 76.028 30.3274C76.4466 30.3274 76.8028 30.4663 77.0966 30.744C77.3944 31.0176 77.5433 31.3476 77.5433 31.734C77.5433 32.1244 77.3944 32.4584 77.0966 32.7361C76.8028 33.0098 76.4466 33.1467 76.028 33.1467ZM84.6141 34.2273V36.4006H78.7643V34.2273H84.6141ZM79.9898 32.0057H82.9418V40.5842C82.9418 40.7653 82.97 40.9122 83.0263 41.0248C83.0867 41.1335 83.1732 41.212 83.2859 41.2603C83.3986 41.3046 83.5334 41.3267 83.6904 41.3267C83.8031 41.3267 83.9218 41.3166 84.0466 41.2965C84.1754 41.2724 84.272 41.2522 84.3364 41.2361L84.7831 43.3672C84.6422 43.4074 84.443 43.4577 84.1854 43.5181C83.9319 43.5785 83.628 43.6167 83.2739 43.6328C82.5816 43.665 81.988 43.5845 81.493 43.3913C81.002 43.1941 80.6257 42.8882 80.3641 42.4737C80.1065 42.0592 79.9817 41.538 79.9898 40.9101V32.0057ZM86.3195 43.5V31.1364H89.3078V36.0987H94.1796V31.1364H97.1618V43.5H94.1796V38.5316H89.3078V43.5H86.3195ZM105.019 39.4975V34.2273H107.965V43.5H105.152V41.7734H105.055C104.85 42.3409 104.5 42.7917 104.005 43.1257C103.514 43.4557 102.92 43.6207 102.224 43.6207C101.592 43.6207 101.037 43.4758 100.558 43.1861C100.079 42.8963 99.7064 42.4918 99.4408 41.9726C99.1751 41.4494 99.0403 40.8377 99.0363 40.1374V34.2273H101.988V39.5579C101.992 40.061 102.125 40.4574 102.387 40.7471C102.648 41.0369 103.005 41.1818 103.455 41.1818C103.749 41.1818 104.013 41.1174 104.246 40.9886C104.484 40.8558 104.671 40.6646 104.808 40.4151C104.948 40.1616 105.019 39.8557 105.019 39.4975ZM109.844 43.5V31.1364H112.796V35.815H112.856C112.977 35.5333 113.148 35.2616 113.369 35C113.595 34.7384 113.881 34.5251 114.227 34.3601C114.577 34.191 114.995 34.1065 115.482 34.1065C116.126 34.1065 116.728 34.2756 117.287 34.6136C117.851 34.9517 118.306 35.4729 118.652 36.1772C118.998 36.8815 119.171 37.779 119.171 38.8697C119.171 39.9201 119.004 40.7995 118.67 41.5078C118.34 42.2161 117.893 42.7474 117.33 43.1016C116.77 43.4557 116.148 43.6328 115.464 43.6328C114.997 43.6328 114.593 43.5563 114.251 43.4034C113.909 43.2505 113.621 43.0492 113.388 42.7997C113.158 42.5502 112.981 42.2825 112.856 41.9968H112.766V43.5H109.844ZM112.736 38.8636C112.736 39.3627 112.802 39.7973 112.935 40.1676C113.072 40.5379 113.267 40.8256 113.52 41.0309C113.778 41.2321 114.086 41.3327 114.444 41.3327C114.806 41.3327 115.114 41.2321 115.368 41.0309C115.621 40.8256 115.812 40.5379 115.941 40.1676C116.074 39.7973 116.14 39.3627 116.14 38.8636C116.14 38.3646 116.074 37.9319 115.941 37.5657C115.812 37.1994 115.621 36.9157 115.368 36.7145C115.118 36.5132 114.81 36.4126 114.444 36.4126C114.082 36.4126 113.774 36.5112 113.52 36.7084C113.267 36.9056 113.072 37.1874 112.935 37.5536C112.802 37.9199 112.736 38.3565 112.736 38.8636ZM127.334 43.5L123.736 31.1364H127.039L128.904 39.2379H129.007L131.138 31.1364H133.83L135.961 39.256H136.064L137.935 31.1364H141.231L137.639 43.5H134.76L132.532 36.0021H132.436L130.208 43.5H127.334ZM145.765 43.6751C144.791 43.6751 143.954 43.4758 143.254 43.0774C142.558 42.6749 142.02 42.1155 141.642 41.3991C141.268 40.6787 141.08 39.8436 141.08 38.8938C141.08 37.94 141.268 37.1049 141.642 36.3885C142.02 35.6681 142.558 35.1087 143.254 34.7102C143.954 34.3078 144.791 34.1065 145.765 34.1065C146.739 34.1065 147.574 34.3078 148.27 34.7102C148.971 35.1087 149.508 35.6681 149.882 36.3885C150.261 37.1049 150.45 37.94 150.45 38.8938C150.45 39.8436 150.261 40.6787 149.882 41.3991C149.508 42.1155 148.971 42.6749 148.27 43.0774C147.574 43.4758 146.739 43.6751 145.765 43.6751ZM145.783 41.4474C146.137 41.4474 146.437 41.3388 146.683 41.1214C146.928 40.9041 147.115 40.6023 147.244 40.2159C147.377 39.8295 147.443 39.3828 147.443 38.8757C147.443 38.3605 147.377 37.9098 147.244 37.5234C147.115 37.1371 146.928 36.8352 146.683 36.6179C146.437 36.4006 146.137 36.2919 145.783 36.2919C145.417 36.2919 145.107 36.4006 144.854 36.6179C144.604 36.8352 144.413 37.1371 144.28 37.5234C144.151 37.9098 144.087 38.3605 144.087 38.8757C144.087 39.3828 144.151 39.8295 144.28 40.2159C144.413 40.6023 144.604 40.9041 144.854 41.1214C145.107 41.3388 145.417 41.4474 145.783 41.4474ZM151.962 43.5V34.2273H154.83V35.9176H154.926C155.095 35.3059 155.371 34.8511 155.753 34.5533C156.136 34.2514 156.58 34.1005 157.087 34.1005C157.224 34.1005 157.365 34.1105 157.51 34.1307C157.655 34.1468 157.79 34.1729 157.914 34.2092V36.7748C157.774 36.7266 157.588 36.6883 157.359 36.6601C157.134 36.632 156.932 36.6179 156.755 36.6179C156.405 36.6179 156.089 36.6964 155.808 36.8533C155.53 37.0063 155.311 37.2216 155.15 37.4993C154.993 37.773 154.914 38.0949 154.914 38.4652V43.5H151.962ZM161.78 41.0671L161.792 37.5476H162.202L164.81 34.2273H168.155L164.279 38.9844H163.5L161.78 41.0671ZM159.117 43.5V31.1364H162.069V43.5H159.117ZM164.877 43.5L162.45 39.6484L164.394 37.5536L168.287 43.5H164.877ZM174.481 34.2273V36.4006H168.517V34.2273H174.481ZM169.76 43.5V33.7564C169.76 33.04 169.895 32.4464 170.165 31.9755C170.435 31.5006 170.809 31.1464 171.288 30.913C171.767 30.6755 172.32 30.5568 172.948 30.5568C173.358 30.5568 173.745 30.589 174.107 30.6534C174.473 30.7138 174.745 30.7681 174.922 30.8164L174.451 32.9776C174.342 32.9414 174.21 32.9112 174.053 32.8871C173.9 32.8629 173.755 32.8508 173.618 32.8508C173.272 32.8508 173.034 32.9273 172.906 33.0802C172.777 33.2332 172.712 33.4425 172.712 33.7081V43.5H169.76ZM178.854 31.1364V43.5H175.901V31.1364H178.854ZM185.061 43.6751C184.087 43.6751 183.25 43.4758 182.55 43.0774C181.853 42.6749 181.316 42.1155 180.938 41.3991C180.564 40.6787 180.376 39.8436 180.376 38.8938C180.376 37.94 180.564 37.1049 180.938 36.3885C181.316 35.6681 181.853 35.1087 182.55 34.7102C183.25 34.3078 184.087 34.1065 185.061 34.1065C186.035 34.1065 186.87 34.3078 187.566 34.7102C188.267 35.1087 188.804 35.6681 189.178 36.3885C189.557 37.1049 189.746 37.94 189.746 38.8938C189.746 39.8436 189.557 40.6787 189.178 41.3991C188.804 42.1155 188.267 42.6749 187.566 43.0774C186.87 43.4758 186.035 43.6751 185.061 43.6751ZM185.079 41.4474C185.433 41.4474 185.733 41.3388 185.979 41.1214C186.224 40.9041 186.411 40.6023 186.54 40.2159C186.673 39.8295 186.739 39.3828 186.739 38.8757C186.739 38.3605 186.673 37.9098 186.54 37.5234C186.411 37.1371 186.224 36.8352 185.979 36.6179C185.733 36.4006 185.433 36.2919 185.079 36.2919C184.713 36.2919 184.403 36.4006 184.149 36.6179C183.9 36.8352 183.709 37.1371 183.576 37.5234C183.447 37.9098 183.383 38.3605 183.383 38.8757C183.383 39.3828 183.447 39.8295 183.576 40.2159C183.709 40.6023 183.9 40.9041 184.149 41.1214C184.403 41.3388 184.713 41.4474 185.079 41.4474ZM192.791 43.5L190.377 34.2273H193.341L194.59 40.1676H194.669L196.009 34.2273H198.901L200.277 40.1253H200.356L201.569 34.2273H204.533L202.112 43.5H198.955L197.506 38.0969H197.404L195.955 43.5H192.791ZM213.813 37.0586L211.103 37.131C211.075 36.9378 210.998 36.7668 210.873 36.6179C210.749 36.465 210.586 36.3462 210.384 36.2617C210.187 36.1732 209.958 36.1289 209.696 36.1289C209.354 36.1289 209.062 36.1973 208.821 36.3342C208.583 36.471 208.467 36.6561 208.471 36.8895C208.467 37.0707 208.539 37.2276 208.688 37.3604C208.841 37.4932 209.113 37.5999 209.503 37.6804L211.29 38.0185C212.216 38.1955 212.904 38.4893 213.355 38.8998C213.809 39.3104 214.039 39.8537 214.043 40.5298C214.039 41.1657 213.85 41.7191 213.475 42.19C213.105 42.6609 212.598 43.0271 211.954 43.2887C211.31 43.5463 210.574 43.6751 209.745 43.6751C208.42 43.6751 207.376 43.4034 206.611 42.8601C205.851 42.3127 205.416 41.5802 205.307 40.6626L208.223 40.5902C208.288 40.9283 208.455 41.1858 208.724 41.3629C208.994 41.54 209.338 41.6285 209.757 41.6285C210.135 41.6285 210.443 41.5581 210.68 41.4172C210.918 41.2764 211.038 41.0892 211.042 40.8558C211.038 40.6465 210.946 40.4795 210.765 40.3547C210.584 40.226 210.3 40.1253 209.914 40.0529L208.296 39.745C207.366 39.576 206.674 39.2641 206.219 38.8093C205.764 38.3505 205.539 37.7669 205.543 37.0586C205.539 36.4388 205.704 35.9096 206.038 35.4709C206.372 35.0282 206.847 34.6901 207.463 34.4567C208.078 34.2232 208.805 34.1065 209.642 34.1065C210.898 34.1065 211.888 34.3701 212.612 34.8974C213.336 35.4206 213.737 36.141 213.813 37.0586Z" fill="#EFEFEF"/>
</g>
</g>
<rect x="1.05" y="1.05" width="224.9" height="53.9" rx="6.95" stroke="white" stroke-opacity="0.15" stroke-width="2.1"/>
<defs>
<filter id="filter0_d_1_50" x="5.66071" y="2.28571" width="194.053" height="150.428" filterUnits="userSpaceOnUse" color-interpolation-filters="sRGB">
<feFlood flood-opacity="0" result="BackgroundImageFix"/>
<feColorMatrix in="SourceAlpha" type="matrix" values="0 0 0 0 0 0 0 0 0 0 0 0 0 0 0 0 0 0 127 0" result="hardAlpha"/>
<feOffset/>
<feGaussianBlur stdDeviation="2.85714"/>
<feComposite in2="hardAlpha" operator="out"/>
<feColorMatrix type="matrix" values="0 0 0 0 0 0 0 0 0 0 0 0 0 0 0 0 0 0 0.25 0"/>
<feBlend mode="normal" in2="BackgroundImageFix" result="effect1_dropShadow_1_50"/>
<feBlend mode="normal" in="SourceGraphic" in2="effect1_dropShadow_1_50" result="shape"/>
</filter>
<filter id="filter1_d_1_50" x="54.4" y="3.9" width="166.2" height="48.2" filterUnits="userSpaceOnUse" color-interpolation-filters="sRGB">
<feFlood flood-opacity="0" result="BackgroundImageFix"/>
<feColorMatrix in="SourceAlpha" type="matrix" values="0 0 0 0 0 0 0 0 0 0 0 0 0 0 0 0 0 0 127 0" result="hardAlpha"/>
<feOffset/>
<feGaussianBlur stdDeviation="2.8"/>
<feComposite in2="hardAlpha" operator="out"/>
<feColorMatrix type="matrix" values="0 0 0 0 0 0 0 0 0 0 0 0 0 0 0 0 0 0 0.25 0"/>
<feBlend mode="normal" in2="BackgroundImageFix" result="effect1_dropShadow_1_50"/>
<feBlend mode="normal" in="SourceGraphic" in2="effect1_dropShadow_1_50" result="shape"/>
</filter>
<linearGradient id="paint0_linear_1_50" x1="113.5" y1="0" x2="113.5" y2="56" gradientUnits="userSpaceOnUse">
<stop stop-color="#181F29"/>
<stop offset="1" stop-color="#0F131A"/>
</linearGradient>
<clipPath id="clip0_1_50">
<rect width="227" height="56" rx="8" fill="white"/>
</clipPath>
</defs>
</svg>
