<svg width="214" height="40" viewBox="0 0 214 40" fill="none" xmlns="http://www.w3.org/2000/svg">
<rect width="214.001" height="40.0014" rx="8" fill="url(#paint0_linear_1_56)"/>
<rect x="1.07143" y="1.07143" width="211.858" height="37.8585" rx="6.92857" stroke="white" stroke-opacity="0.15" stroke-width="2.14286"/>
<g filter="url(#filter0_d_1_56)">
<path d="M15.6431 24.618C15.4362 24.7062 15.1466 24.8254 14.9132 24.8989C14.4188 25.0547 14.0222 25.1177 13.6157 25.1793C14.1044 26.7462 16.0189 28.2849 18.2515 28.1397C20.3561 28.1397 21.8132 27.1022 22.5884 25.5974C20.39 25.5663 17.1875 26.4816 15.6431 24.618ZM35.732 24.8764C34.9633 24.968 34.4143 24.8134 33.1547 25.2176C30.1056 26.4735 27.0879 25.4084 26.1272 25.2001C25.8117 25.1673 25.6671 24.7057 25.0198 25.4694L24.7042 25.8415C26.1943 27.3078 28.237 28.1493 30.3523 28.1493C33.2004 28.1493 35.1261 26.7738 35.7659 24.9055L35.732 24.8764Z" fill="#B75CFF"/>
<path d="M35.8937 22.4294C34.2189 21.2663 33.884 22.1072 33.0443 23.015C33.1219 23.2137 33.1639 23.4394 33.1639 23.7019C33.1639 24.9278 32.1787 25.7212 30.4243 25.7212C28.958 25.7212 27.444 25.0002 26.3146 23.9425L25.0196 25.4694C26.7731 25.5482 28.5481 26.001 30.3234 25.931C32.2664 25.854 34.833 25.2388 35.732 24.8766L35.7662 24.9055C35.9218 24.4484 36.0009 23.9687 36 23.4858C36 23.1036 35.9628 22.753 35.8937 22.4294ZM23.2443 22.4548C22.2953 21.731 21.3858 21.9775 20.5136 23.0002V23.1752C20.5136 24.5609 19.3938 25.6842 18.0126 25.6842C17.5888 25.6843 17.1719 25.5765 16.8012 25.371C16.4304 25.1655 16.1181 24.869 15.8936 24.5095C15.8936 24.5095 15.7844 24.5577 15.6431 24.6178C16.2968 25.4416 17.1 25.8675 18.694 25.931C19.9923 25.9824 21.2906 25.7549 22.5889 25.5974C23.0227 24.7561 23.2443 23.7691 23.2443 22.7342V22.4548Z" fill="#5C6CFF"/>
<path d="M23.2443 19.4833C22.3579 18.7035 21.4555 18.5462 20.5136 19.7362V23.0002C21.4269 22.7875 22.338 22.5714 23.2443 22.4548V19.4833ZM33.8123 19.7204C32.449 19.1237 28.3672 19.7207 27.6455 19.9941C27.9436 20.1698 28.2538 20.3244 28.5737 20.4565L30.7128 21.3941C31.8632 21.8736 32.7373 22.2312 33.0443 23.015C33.9273 22.8868 34.6888 22.711 35.1957 22.5944L35.8935 22.4294C35.6259 21.1802 34.8678 20.3415 33.8123 19.7204Z" fill="#5CFF9D"/>
<path d="M25.4048 16.4737C25.4766 18.2071 26.4802 19.3031 27.6508 19.9963C28.5441 20.1726 29.4375 20.3255 30.3309 20.3255C31.578 20.3255 32.8237 20.0284 33.8134 19.7209C33.4959 19.5361 33.1667 19.3724 32.8277 19.2309L30.7128 18.3414C29.6681 17.9157 28.6861 17.5364 28.3427 16.7653C26.2352 15.6952 27.6488 15.0199 25.4053 16.474L25.4048 16.4737ZM23.2443 16.6837C22.4428 16.1307 21.5384 16.2963 20.5134 17.1845L20.5136 19.7379C21.4236 19.6467 22.334 19.5255 23.2443 19.4833V16.6837Z" fill="#FFDB5C"/>
<path d="M26.3461 13.6731C25.7446 14.3961 25.4011 15.2901 25.4011 16.274C25.4011 16.3414 25.4027 16.4079 25.4053 16.4735C26.3796 16.4639 27.3598 16.572 28.3427 16.7656C28.2549 16.5653 28.2108 16.3485 28.2134 16.1299C28.2134 14.976 29.1746 14.2788 30.6649 14.2788C32.0104 14.2788 33.0922 14.7837 34.0774 15.6248L35.1237 14.3348C32.0662 13.3898 29.3334 12.7955 26.3466 13.6729L26.3461 13.6731ZM23.2443 14.2908C22.1164 13.3003 21.2506 14.031 20.5134 15.413V17.1845C21.4238 17.0434 22.3338 16.8373 23.2443 16.6835V14.2908Z" fill="#F79454"/>
<path d="M20.5134 11.8511V15.4133C21.4238 15.1059 22.3338 14.6513 23.2443 14.2906V11.8511H20.5134ZM30.6645 11.8511C28.8141 11.8511 27.2736 12.5588 26.3463 13.6724C27.6661 13.6775 28.9945 13.9441 30.3232 14.1027C32.2239 14.3298 34.1181 14.3346 35.1232 14.3346L35.5196 13.8461C34.2938 12.62 32.5151 11.8511 30.6645 11.8511Z" fill="#FF5C5C"/>
<path d="M8 11.8511V23.8828H12.555C13.749 23.8828 14.6633 23.6936 15.5125 23.2653C15.511 23.2358 15.511 23.2056 15.511 23.1756C15.511 21.7898 16.631 20.667 18.0126 20.667C18.0535 20.667 18.094 20.6678 18.1345 20.67C18.5678 19.7878 18.7426 18.913 18.7426 17.7637C18.7426 16.5779 18.5195 15.5458 18.0723 14.6524C17.6084 13.7759 16.9379 13.0884 16.0445 12.5896C15.1503 12.0915 14.0677 11.8511 12.7784 11.8511H8ZM10.8875 14.4291H12.6237C13.6381 14.4291 14.4113 14.7216 14.9272 15.3231C15.4428 15.9245 15.7004 16.7494 15.7004 17.8151C15.7004 18.8979 15.425 19.7406 14.8924 20.3592C14.3597 20.9951 13.5689 21.3044 12.5203 21.3044H10.8877L10.8875 14.4291ZM18.0198 21.5953C17.8096 21.5911 17.6006 21.6288 17.4051 21.7063C17.2096 21.7838 17.0316 21.8995 16.8814 22.0467C16.7312 22.1938 16.6118 22.3695 16.5304 22.5634C16.4489 22.7572 16.407 22.9654 16.407 23.1757C16.407 23.386 16.4489 23.5942 16.5304 23.788C16.6118 23.9819 16.7312 24.1576 16.8814 24.3047C17.0316 24.4519 17.2096 24.5676 17.4051 24.6451C17.6006 24.7226 17.8096 24.7603 18.0198 24.7561C18.4345 24.7492 18.8298 24.5796 19.1205 24.284C19.4113 23.9883 19.5742 23.5903 19.5742 23.1756C19.5742 22.7609 19.4113 22.3629 19.1205 22.0672C18.8298 21.7716 18.4345 21.6022 18.0198 21.5953Z" fill="#5865F2"/>
</g>
<g filter="url(#filter1_d_1_56)">
<g filter="url(#filter2_d_1_56)">
<path d="M43.3597 26.5007V14.1371H47.8874C48.7648 14.1371 49.4912 14.282 50.0667 14.5717C50.6423 14.8575 51.0729 15.2458 51.3586 15.7369C51.6444 16.2238 51.7873 16.7732 51.7873 17.3849C51.7873 17.9001 51.6927 18.3347 51.5035 18.6889C51.3144 19.0391 51.0608 19.3208 50.7429 19.5341C50.429 19.7434 50.0828 19.8963 49.7045 19.9929V20.1136C50.115 20.1337 50.5155 20.2666 50.9059 20.5121C51.3003 20.7535 51.6263 21.0976 51.8839 21.5444C52.1414 21.9911 52.2702 22.5344 52.2702 23.1743C52.2702 23.8062 52.1213 24.3737 51.8235 24.8768C51.5297 25.3758 51.0749 25.7722 50.4591 26.066C49.8434 26.3558 49.0566 26.5007 48.0987 26.5007H43.3597ZM45.2251 24.9009H47.9176C48.8111 24.9009 49.451 24.7279 49.8373 24.3817C50.2237 24.0356 50.4169 23.603 50.4169 23.0838C50.4169 22.6934 50.3183 22.3352 50.1211 22.0092C49.9239 21.6832 49.6421 21.4236 49.2759 21.2305C48.9137 21.0373 48.483 20.9407 47.984 20.9407H45.2251V24.9009ZM45.2251 19.4858H47.7244C48.143 19.4858 48.5193 19.4053 48.8533 19.2443C49.1914 19.0833 49.459 18.8579 49.6562 18.5682C49.8575 18.2744 49.9581 17.9283 49.9581 17.5298C49.9581 17.0187 49.779 16.5901 49.4208 16.244C49.0626 15.8978 48.5132 15.7248 47.7727 15.7248H45.2251V19.4858ZM60.2118 22.6552V17.228H62.0229V26.5007H60.248V24.8949H60.1514C59.9381 25.3899 59.596 25.8024 59.1251 26.1324C58.6583 26.4584 58.0767 26.6214 57.3805 26.6214C56.7848 26.6214 56.2576 26.4906 55.7988 26.229C55.344 25.9634 54.9858 25.571 54.7242 25.0518C54.4667 24.5327 54.3379 23.8907 54.3379 23.1261V17.228H56.1429V22.9087C56.1429 23.5406 56.318 24.0437 56.6681 24.418C57.0183 24.7922 57.473 24.9794 58.0325 24.9794C58.3705 24.9794 58.7066 24.8949 59.0406 24.7258C59.3787 24.5568 59.6584 24.3012 59.8798 23.9591C60.1051 23.6171 60.2158 23.1824 60.2118 22.6552ZM64.4482 26.5007V17.228H66.2533V26.5007H64.4482ZM65.3598 15.7972C65.0459 15.7972 64.7762 15.6926 64.5508 15.4833C64.3295 15.27 64.2188 15.0164 64.2188 14.7226C64.2188 14.4248 64.3295 14.1713 64.5508 13.962C64.7762 13.7487 65.0459 13.642 65.3598 13.642C65.6737 13.642 65.9413 13.7487 66.1627 13.962C66.3881 14.1713 66.5008 14.4248 66.5008 14.7226C66.5008 15.0164 66.3881 15.27 66.1627 15.4833C65.9413 15.6926 65.6737 15.7972 65.3598 15.7972ZM70.4867 14.1371V26.5007H68.6816V14.1371H70.4867ZM77.2435 17.228V18.6768H72.1785V17.228H77.2435ZM73.5368 15.0064H75.3419V23.778C75.3419 24.1282 75.3942 24.3918 75.4988 24.5689C75.6035 24.7419 75.7383 24.8607 75.9033 24.9251C76.0723 24.9854 76.2554 25.0156 76.4526 25.0156C76.5975 25.0156 76.7243 25.0056 76.833 24.9854C76.9416 24.9653 77.0262 24.9492 77.0865 24.9371L77.4125 26.4283C77.3079 26.4685 77.159 26.5087 76.9658 26.549C76.7726 26.5933 76.5311 26.6174 76.2414 26.6214C75.7664 26.6295 75.3237 26.545 74.9132 26.3679C74.5027 26.1908 74.1707 25.9171 73.9171 25.5469C73.6636 25.1766 73.5368 24.7118 73.5368 24.1523V15.0064ZM85.7495 26.5007L83.0208 17.228H84.8862L86.7034 24.0376H86.7939L88.6171 17.228H90.4825L92.2936 24.0074H92.3841L94.1891 17.228H96.0546L93.3319 26.5007H91.4906L89.6071 19.8057H89.4683L87.5847 26.5007H85.7495ZM97.7675 26.5007V17.228H99.5726V26.5007H97.7675ZM98.6791 15.7972C98.3652 15.7972 98.0955 15.6926 97.8702 15.4833C97.6488 15.27 97.5381 15.0164 97.5381 14.7226C97.5381 14.4248 97.6488 14.1713 97.8702 13.962C98.0955 13.7487 98.3652 13.642 98.6791 13.642C98.993 13.642 99.2607 13.7487 99.482 13.962C99.7074 14.1713 99.8201 14.4248 99.8201 14.7226C99.8201 15.0164 99.7074 15.27 99.482 15.4833C99.2607 15.6926 98.993 15.7972 98.6791 15.7972ZM106.329 17.228V18.6768H101.264V17.228H106.329ZM102.623 15.0064H104.428V23.778C104.428 24.1282 104.48 24.3918 104.585 24.5689C104.689 24.7419 104.824 24.8607 104.989 24.9251C105.158 24.9854 105.341 25.0156 105.539 25.0156C105.683 25.0156 105.81 25.0056 105.919 24.9854C106.028 24.9653 106.112 24.9492 106.172 24.9371L106.498 26.4283C106.394 26.4685 106.245 26.5087 106.052 26.549C105.859 26.5933 105.617 26.6174 105.327 26.6214C104.852 26.6295 104.41 26.545 103.999 26.3679C103.589 26.1908 103.257 25.9171 103.003 25.5469C102.75 25.1766 102.623 24.7118 102.623 24.1523V15.0064ZM110.33 20.995V26.5007H108.525V14.1371H110.306V18.7372H110.421C110.638 18.2382 110.97 17.8417 111.417 17.5479C111.864 17.2541 112.447 17.1072 113.168 17.1072C113.804 17.1072 114.359 17.238 114.834 17.4996C115.313 17.7612 115.683 18.1516 115.945 18.6708C116.21 19.1859 116.343 19.8299 116.343 20.6026V26.5007H114.538V20.8199C114.538 20.1398 114.363 19.6126 114.013 19.2383C113.663 18.86 113.176 18.6708 112.552 18.6708C112.125 18.6708 111.743 18.7614 111.405 18.9425C111.071 19.1236 110.807 19.3892 110.614 19.7393C110.425 20.0855 110.33 20.504 110.33 20.995Z" fill="#E8E8E8"/>
</g>
<path d="M126.324 26.1335C125.64 26.1335 125.018 25.9564 124.458 25.6023C123.899 25.2481 123.452 24.7168 123.118 24.0085C122.784 23.3002 122.617 22.4208 122.617 21.3704C122.617 20.2797 122.79 19.3822 123.136 18.6779C123.482 17.9736 123.935 17.4524 124.495 17.1143C125.058 16.7763 125.664 16.6072 126.312 16.6072C126.799 16.6072 127.215 16.6918 127.561 16.8608C127.908 17.0258 128.193 17.2391 128.419 17.5007C128.644 17.7623 128.815 18.034 128.932 18.3157H128.992V13.6371H131.944V26.0007H129.022V24.4975H128.932C128.807 24.7832 128.63 25.0509 128.401 25.3004C128.171 25.5499 127.883 25.7512 127.537 25.9041C127.195 26.057 126.791 26.1335 126.324 26.1335ZM127.35 23.8334C127.708 23.8334 128.014 23.7328 128.268 23.5316C128.521 23.3263 128.716 23.0386 128.853 22.6683C128.99 22.298 129.059 21.8634 129.059 21.3643C129.059 20.8572 128.99 20.4206 128.853 20.0543C128.72 19.6881 128.525 19.4064 128.268 19.2092C128.014 19.0119 127.708 18.9133 127.35 18.9133C126.984 18.9133 126.674 19.014 126.42 19.2152C126.167 19.4164 125.974 19.7002 125.841 20.0664C125.712 20.4326 125.648 20.8653 125.648 21.3643C125.648 21.8634 125.714 22.298 125.847 22.6683C125.98 23.0386 126.171 23.3263 126.42 23.5316C126.674 23.7328 126.984 23.8334 127.35 23.8334ZM133.811 26.0007V16.728H136.763V26.0007H133.811ZM135.29 15.6474C134.876 15.6474 134.519 15.5105 134.222 15.2369C133.924 14.9592 133.775 14.6251 133.775 14.2347C133.775 13.8484 133.924 13.5183 134.222 13.2447C134.519 12.967 134.876 12.8281 135.29 12.8281C135.709 12.8281 136.065 12.967 136.359 13.2447C136.657 13.5183 136.805 13.8484 136.805 14.2347C136.805 14.6251 136.657 14.9592 136.359 15.2369C136.065 15.5105 135.709 15.6474 135.29 15.6474ZM146.738 19.5593L144.027 19.6317C143.999 19.4386 143.922 19.2675 143.798 19.1186C143.673 18.9657 143.51 18.8469 143.309 18.7624C143.112 18.6739 142.882 18.6296 142.621 18.6296C142.278 18.6296 141.987 18.698 141.745 18.8349C141.508 18.9717 141.391 19.1568 141.395 19.3903C141.391 19.5714 141.463 19.7283 141.612 19.8611C141.765 19.994 142.037 20.1006 142.427 20.1811L144.214 20.5192C145.14 20.6962 145.828 20.99 146.279 21.4006C146.734 21.8111 146.963 22.3544 146.967 23.0305C146.963 23.6664 146.774 24.2198 146.4 24.6907C146.029 25.1616 145.522 25.5278 144.878 25.7894C144.234 26.047 143.498 26.1758 142.669 26.1758C141.345 26.1758 140.3 25.9041 139.536 25.3608C138.775 24.8134 138.34 24.081 138.232 23.1633L141.147 23.0909C141.212 23.429 141.379 23.6865 141.649 23.8636C141.918 24.0407 142.262 24.1292 142.681 24.1292C143.059 24.1292 143.367 24.0588 143.605 23.918C143.842 23.7771 143.963 23.5899 143.967 23.3565C143.963 23.1472 143.87 22.9802 143.689 22.8555C143.508 22.7267 143.224 22.6261 142.838 22.5536L141.22 22.2457C140.29 22.0767 139.598 21.7648 139.143 21.31C138.688 20.8512 138.463 20.2676 138.467 19.5593C138.463 18.9395 138.628 18.4103 138.962 17.9716C139.296 17.5289 139.771 17.1908 140.387 16.9574C141.003 16.7239 141.729 16.6072 142.566 16.6072C143.822 16.6072 144.812 16.8708 145.536 17.3981C146.261 17.9213 146.661 18.6417 146.738 19.5593ZM152.749 26.1758C151.771 26.1758 150.932 25.9745 150.232 25.5721C149.535 25.1696 149 24.6102 148.626 23.8938C148.251 23.1734 148.064 22.3403 148.064 21.3945C148.064 20.4447 148.251 19.6116 148.626 18.8952C149.004 18.1748 149.541 17.6134 150.238 17.2109C150.938 16.8085 151.773 16.6072 152.743 16.6072C153.6 16.6072 154.347 16.7622 154.983 17.0721C155.623 17.382 156.122 17.8207 156.48 18.3881C156.842 18.9516 157.033 19.6136 157.053 20.3743H154.294C154.238 19.8994 154.077 19.5271 153.811 19.2574C153.55 18.9878 153.208 18.853 152.785 18.853C152.443 18.853 152.143 18.9496 151.886 19.1427C151.628 19.3319 151.427 19.6136 151.282 19.9879C151.141 20.3582 151.071 20.817 151.071 21.3643C151.071 21.9117 151.141 22.3745 151.282 22.7528C151.427 23.1271 151.628 23.4109 151.886 23.604C152.143 23.7932 152.443 23.8878 152.785 23.8878C153.059 23.8878 153.3 23.8294 153.51 23.7127C153.723 23.596 153.898 23.4249 154.035 23.1996C154.172 22.9702 154.258 22.6925 154.294 22.3665H157.053C157.025 23.1311 156.834 23.7992 156.48 24.3707C156.13 24.9422 155.637 25.3869 155.001 25.7049C154.369 26.0188 153.618 26.1758 152.749 26.1758ZM162.893 26.1758C161.919 26.1758 161.081 25.9765 160.381 25.5781C159.685 25.1757 159.148 24.6162 158.769 23.8998C158.395 23.1794 158.208 22.3443 158.208 21.3945C158.208 20.4407 158.395 19.6056 158.769 18.8892C159.148 18.1688 159.685 17.6094 160.381 17.2109C161.081 16.8085 161.919 16.6072 162.893 16.6072C163.866 16.6072 164.702 16.8085 165.398 17.2109C166.098 17.6094 166.635 18.1688 167.01 18.8892C167.388 19.6056 167.577 20.4407 167.577 21.3945C167.577 22.3443 167.388 23.1794 167.01 23.8998C166.635 24.6162 166.098 25.1757 165.398 25.5781C164.702 25.9765 163.866 26.1758 162.893 26.1758ZM162.911 23.9481C163.265 23.9481 163.565 23.8395 163.81 23.6221C164.056 23.4048 164.243 23.103 164.372 22.7166C164.504 22.3302 164.571 21.8835 164.571 21.3764C164.571 20.8613 164.504 20.4105 164.372 20.0241C164.243 19.6378 164.056 19.3359 163.81 19.1186C163.565 18.9013 163.265 18.7926 162.911 18.7926C162.544 18.7926 162.234 18.9013 161.981 19.1186C161.731 19.3359 161.54 19.6378 161.407 20.0241C161.279 20.4105 161.214 20.8613 161.214 21.3764C161.214 21.8835 161.279 22.3302 161.407 22.7166C161.54 23.103 161.731 23.4048 161.981 23.6221C162.234 23.8395 162.544 23.9481 162.911 23.9481ZM169.089 26.0007V16.728H171.957V18.4183H172.054C172.223 17.8066 172.498 17.3518 172.881 17.054C173.263 16.7521 173.708 16.6012 174.215 16.6012C174.352 16.6012 174.492 16.6113 174.637 16.6314C174.782 16.6475 174.917 16.6736 175.042 16.7099V19.2756C174.901 19.2273 174.716 19.189 174.486 19.1609C174.261 19.1327 174.06 19.1186 173.883 19.1186C173.533 19.1186 173.217 19.1971 172.935 19.354C172.657 19.507 172.438 19.7223 172.277 20C172.12 20.2737 172.041 20.5956 172.041 20.9659V26.0007H169.089ZM179.15 26.1335C178.466 26.1335 177.844 25.9564 177.285 25.6023C176.725 25.2481 176.278 24.7168 175.944 24.0085C175.61 23.3002 175.443 22.4208 175.443 21.3704C175.443 20.2797 175.616 19.3822 175.962 18.6779C176.309 17.9736 176.761 17.4524 177.321 17.1143C177.884 16.7763 178.49 16.6072 179.138 16.6072C179.625 16.6072 180.041 16.6918 180.388 16.8608C180.734 17.0258 181.019 17.2391 181.245 17.5007C181.47 17.7623 181.641 18.034 181.758 18.3157H181.818V13.6371H184.77V26.0007H181.848V24.4975H181.758C181.633 24.7832 181.456 25.0509 181.227 25.3004C180.997 25.5499 180.71 25.7512 180.363 25.9041C180.021 26.057 179.617 26.1335 179.15 26.1335ZM180.176 23.8334C180.534 23.8334 180.84 23.7328 181.094 23.5316C181.347 23.3263 181.543 23.0386 181.679 22.6683C181.816 22.298 181.885 21.8634 181.885 21.3643C181.885 20.8572 181.816 20.4206 181.679 20.0543C181.547 19.6881 181.351 19.4064 181.094 19.2092C180.84 19.0119 180.534 18.9133 180.176 18.9133C179.81 18.9133 179.5 19.014 179.247 19.2152C178.993 19.4164 178.8 19.7002 178.667 20.0664C178.538 20.4326 178.474 20.8653 178.474 21.3643C178.474 21.8634 178.54 22.298 178.673 22.6683C178.806 23.0386 178.997 23.3263 179.247 23.5316C179.5 23.7328 179.81 23.8334 180.176 23.8334ZM188.297 26.1758C187.863 26.1758 187.49 26.0228 187.181 25.717C186.875 25.4111 186.724 25.0408 186.728 24.6062C186.724 24.1796 186.875 23.8153 187.181 23.5135C187.49 23.2076 187.863 23.0547 188.297 23.0547C188.708 23.0547 189.07 23.2076 189.384 23.5135C189.702 23.8153 189.863 24.1796 189.867 24.6062C189.863 24.8959 189.787 25.1596 189.638 25.397C189.493 25.6345 189.302 25.8236 189.064 25.9645C188.831 26.1053 188.575 26.1758 188.297 26.1758ZM191.817 16.728H194.769V26.3871C194.769 27.1517 194.612 27.7595 194.298 28.2102C193.988 28.661 193.55 28.985 192.982 29.1822C192.415 29.3794 191.745 29.478 190.972 29.478C190.867 29.478 190.769 29.476 190.676 29.4719C190.583 29.4679 190.483 29.4639 190.374 29.4599V27.2202C190.447 27.2282 190.511 27.2342 190.567 27.2383C190.624 27.2423 190.68 27.2443 190.736 27.2443C191.143 27.2443 191.425 27.1678 191.582 27.0149C191.738 26.866 191.817 26.6366 191.817 26.3267V16.728ZM193.29 15.6474C192.875 15.6474 192.519 15.5105 192.221 15.2369C191.924 14.9592 191.775 14.6251 191.775 14.2347C191.775 13.8484 191.924 13.5183 192.221 13.2447C192.519 12.967 192.875 12.8281 193.29 12.8281C193.709 12.8281 194.065 12.967 194.359 13.2447C194.656 13.5183 194.805 13.8484 194.805 14.2347C194.805 14.6251 194.656 14.9592 194.359 15.2369C194.065 15.5105 193.709 15.6474 193.29 15.6474ZM204.744 19.5593L202.033 19.6317C202.005 19.4386 201.928 19.2675 201.804 19.1186C201.679 18.9657 201.516 18.8469 201.315 18.7624C201.117 18.6739 200.888 18.6296 200.626 18.6296C200.284 18.6296 199.992 18.698 199.751 18.8349C199.514 18.9717 199.397 19.1568 199.401 19.3903C199.397 19.5714 199.469 19.7283 199.618 19.8611C199.771 19.994 200.043 20.1006 200.433 20.1811L202.22 20.5192C203.146 20.6962 203.834 20.99 204.285 21.4006C204.74 21.8111 204.969 22.3544 204.973 23.0305C204.969 23.6664 204.78 24.2198 204.405 24.6907C204.035 25.1616 203.528 25.5278 202.884 25.7894C202.24 26.047 201.504 26.1758 200.675 26.1758C199.351 26.1758 198.306 25.9041 197.541 25.3608C196.781 24.8134 196.346 24.081 196.238 23.1633L199.153 23.0909C199.218 23.429 199.385 23.6865 199.654 23.8636C199.924 24.0407 200.268 24.1292 200.687 24.1292C201.065 24.1292 201.373 24.0588 201.61 23.918C201.848 23.7771 201.969 23.5899 201.973 23.3565C201.969 23.1472 201.876 22.9802 201.695 22.8555C201.514 22.7267 201.23 22.6261 200.844 22.5536L199.226 22.2457C198.296 22.0767 197.604 21.7648 197.149 21.31C196.694 20.8512 196.469 20.2676 196.473 19.5593C196.469 18.9395 196.634 18.4103 196.968 17.9716C197.302 17.5289 197.777 17.1908 198.393 16.9574C199.008 16.7239 199.735 16.6072 200.572 16.6072C201.828 16.6072 202.818 16.8708 203.542 17.3981C204.267 17.9213 204.667 18.6417 204.744 19.5593Z" fill="url(#paint1_linear_1_56)"/>
</g>
<defs>
<filter id="filter0_d_1_56" x="2.39972" y="0.39972" width="39.202" height="39.202" filterUnits="userSpaceOnUse" color-interpolation-filters="sRGB">
<feFlood flood-opacity="0" result="BackgroundImageFix"/>
<feColorMatrix in="SourceAlpha" type="matrix" values="0 0 0 0 0 0 0 0 0 0 0 0 0 0 0 0 0 0 127 0" result="hardAlpha"/>
<feOffset/>
<feGaussianBlur stdDeviation="2.80014"/>
<feComposite in2="hardAlpha" operator="out"/>
<feColorMatrix type="matrix" values="0 0 0 0 0 0 0 0 0 0 0 0 0 0 0 0 0 0 0.25 0"/>
<feBlend mode="normal" in2="BackgroundImageFix" result="effect1_dropShadow_1_56"/>
<feBlend mode="normal" in="SourceGraphic" in2="effect1_dropShadow_1_56" result="shape"/>
</filter>
<filter id="filter1_d_1_56" x="36.2871" y="3.78642" width="175.429" height="32.4286" filterUnits="userSpaceOnUse" color-interpolation-filters="sRGB">
<feFlood flood-opacity="0" result="BackgroundImageFix"/>
<feColorMatrix in="SourceAlpha" type="matrix" values="0 0 0 0 0 0 0 0 0 0 0 0 0 0 0 0 0 0 127 0" result="hardAlpha"/>
<feOffset/>
<feGaussianBlur stdDeviation="2.85714"/>
<feComposite in2="hardAlpha" operator="out"/>
<feColorMatrix type="matrix" values="0 0 0 0 0 0 0 0 0 0 0 0 0 0 0 0 0 0 0.25 0"/>
<feBlend mode="normal" in2="BackgroundImageFix" result="effect1_dropShadow_1_56"/>
<feBlend mode="normal" in="SourceGraphic" in2="effect1_dropShadow_1_56" result="shape"/>
</filter>
<filter id="filter2_d_1_56" x="39.3597" y="13.642" width="80.9835" height="20.9915" filterUnits="userSpaceOnUse" color-interpolation-filters="sRGB">
<feFlood flood-opacity="0" result="BackgroundImageFix"/>
<feColorMatrix in="SourceAlpha" type="matrix" values="0 0 0 0 0 0 0 0 0 0 0 0 0 0 0 0 0 0 127 0" result="hardAlpha"/>
<feOffset dy="4"/>
<feGaussianBlur stdDeviation="2"/>
<feComposite in2="hardAlpha" operator="out"/>
<feColorMatrix type="matrix" values="0 0 0 0 0 0 0 0 0 0 0 0 0 0 0 0 0 0 0.25 0"/>
<feBlend mode="normal" in2="BackgroundImageFix" result="effect1_dropShadow_1_56"/>
<feBlend mode="normal" in="SourceGraphic" in2="effect1_dropShadow_1_56" result="shape"/>
</filter>
<linearGradient id="paint0_linear_1_56" x1="107.001" y1="0" x2="107.001" y2="40.0014" gradientUnits="userSpaceOnUse">
<stop stop-color="#11121D"/>
<stop offset="1" stop-color="#0E0E17"/>
</linearGradient>
<linearGradient id="paint1_linear_1_56" x1="164.001" y1="11.0007" x2="164.001" y2="29.0007" gradientUnits="userSpaceOnUse">
<stop stop-color="#FF5C5C"/>
<stop offset="0.2" stop-color="#F79454"/>
<stop offset="0.4" stop-color="#FFDB5C"/>
<stop offset="0.6" stop-color="#5CFF9D"/>
<stop offset="0.8" stop-color="#5C6CFF"/>
<stop offset="1" stop-color="#B75CFF"/>
</linearGradient>
</defs>
</svg>
