<svg width="40" height="40" viewBox="0 0 40 40" fill="none" xmlns="http://www.w3.org/2000/svg">
<rect width="40" height="40" rx="8" fill="url(#paint0_linear_1_68)"/>
<rect x="1.05" y="1.05" width="37.9" height="37.9" rx="6.95" stroke="white" stroke-opacity="0.15" stroke-width="2.1"/>
<g filter="url(#filter0_d_1_68)">
<path d="M13.6431 24.618C13.4362 24.7062 13.1466 24.8254 12.9132 24.8989C12.4188 25.0547 12.0222 25.1177 11.6157 25.1793C12.1044 26.7462 14.0189 28.2849 16.2515 28.1397C18.3561 28.1397 19.8132 27.1022 20.5884 25.5974C18.39 25.5663 15.1875 26.4816 13.6431 24.618ZM33.732 24.8764C32.9633 24.968 32.4143 24.8134 31.1547 25.2176C28.1056 26.4735 25.0879 25.4084 24.1272 25.2001C23.8117 25.1673 23.6671 24.7057 23.0198 25.4694L22.7042 25.8415C24.1943 27.3078 26.237 28.1493 28.3523 28.1493C31.2004 28.1493 33.1261 26.7738 33.7659 24.9055L33.732 24.8764Z" fill="#B75CFF"/>
<path d="M33.8937 22.4294C32.2189 21.2663 31.884 22.1072 31.0443 23.015C31.1219 23.2137 31.1639 23.4394 31.1639 23.7019C31.1639 24.9278 30.1787 25.7212 28.4243 25.7212C26.958 25.7212 25.444 25.0002 24.3146 23.9425L23.0196 25.4694C24.7731 25.5482 26.5481 26.001 28.3234 25.931C30.2664 25.854 32.833 25.2388 33.732 24.8766L33.7662 24.9055C33.9218 24.4484 34.0009 23.9687 34 23.4858C34 23.1036 33.9628 22.753 33.8937 22.4294ZM21.2443 22.4548C20.2953 21.731 19.3858 21.9775 18.5136 23.0002V23.1752C18.5136 24.5609 17.3938 25.6842 16.0126 25.6842C15.5888 25.6843 15.1719 25.5765 14.8012 25.371C14.4304 25.1655 14.1181 24.869 13.8936 24.5095C13.8936 24.5095 13.7844 24.5577 13.6431 24.6178C14.2968 25.4416 15.1 25.8675 16.694 25.931C17.9923 25.9824 19.2906 25.7549 20.5889 25.5974C21.0227 24.7561 21.2443 23.7691 21.2443 22.7342V22.4548Z" fill="#5C6CFF"/>
<path d="M21.2443 19.4833C20.3579 18.7035 19.4555 18.5462 18.5136 19.7362V23.0002C19.4269 22.7875 20.338 22.5714 21.2443 22.4548V19.4833ZM31.8123 19.7204C30.449 19.1237 26.3672 19.7207 25.6455 19.9941C25.9436 20.1698 26.2538 20.3244 26.5737 20.4565L28.7128 21.3941C29.8632 21.8736 30.7373 22.2312 31.0443 23.015C31.9273 22.8868 32.6888 22.711 33.1957 22.5944L33.8935 22.4294C33.6259 21.1802 32.8678 20.3415 31.8123 19.7204Z" fill="#5CFF9D"/>
<path d="M23.4048 16.4737C23.4766 18.2071 24.4802 19.3031 25.6508 19.9963C26.5441 20.1726 27.4375 20.3255 28.3309 20.3255C29.578 20.3255 30.8238 20.0284 31.8134 19.7209C31.4959 19.5361 31.1667 19.3724 30.8277 19.2309L28.7128 18.3414C27.6681 17.9157 26.6861 17.5364 26.3427 16.7653C24.2352 15.6952 25.6488 15.0199 23.4053 16.474L23.4048 16.4737ZM21.2443 16.6837C20.4428 16.1307 19.5384 16.2963 18.5134 17.1845L18.5136 19.7379C19.4236 19.6467 20.334 19.5255 21.2443 19.4833V16.6837Z" fill="#FFDB5C"/>
<path d="M24.3461 13.6731C23.7446 14.3961 23.4011 15.2901 23.4011 16.274C23.4011 16.3414 23.4027 16.4079 23.4053 16.4735C24.3796 16.4639 25.3598 16.572 26.3427 16.7656C26.2549 16.5653 26.2108 16.3485 26.2134 16.1299C26.2134 14.976 27.1746 14.2788 28.6649 14.2788C30.0104 14.2788 31.0922 14.7837 32.0774 15.6248L33.1237 14.3348C30.0662 13.3898 27.3334 12.7955 24.3466 13.6729L24.3461 13.6731ZM21.2443 14.2908C20.1164 13.3003 19.2506 14.031 18.5134 15.413V17.1845C19.4238 17.0434 20.3338 16.8373 21.2443 16.6835V14.2908Z" fill="#F79454"/>
<path d="M18.5134 11.8511V15.4133C19.4238 15.1059 20.3338 14.6513 21.2443 14.2906V11.8511H18.5134ZM28.6645 11.8511C26.8141 11.8511 25.2736 12.5588 24.3463 13.6724C25.6661 13.6775 26.9945 13.9441 28.3232 14.1027C30.2239 14.3298 32.1181 14.3346 33.1233 14.3346L33.5196 13.8461C32.2938 12.62 30.5151 11.8511 28.6645 11.8511Z" fill="#FF5C5C"/>
<path d="M6 11.8511V23.8828H10.555C11.749 23.8828 12.6633 23.6936 13.5125 23.2653C13.511 23.2358 13.511 23.2056 13.511 23.1756C13.511 21.7898 14.631 20.667 16.0126 20.667C16.0535 20.667 16.094 20.6678 16.1345 20.67C16.5678 19.7878 16.7426 18.913 16.7426 17.7637C16.7426 16.5779 16.5195 15.5458 16.0723 14.6524C15.6084 13.7759 14.9379 13.0884 14.0445 12.5896C13.1503 12.0915 12.0677 11.8511 10.7784 11.8511H6ZM8.8875 14.4291H10.6237C11.6381 14.4291 12.4113 14.7216 12.9272 15.3231C13.4428 15.9245 13.7004 16.7494 13.7004 17.8151C13.7004 18.8979 13.425 19.7406 12.8924 20.3592C12.3597 20.9951 11.5689 21.3044 10.5203 21.3044H8.88772L8.8875 14.4291ZM16.0198 21.5953C15.8096 21.5911 15.6006 21.6288 15.4051 21.7063C15.2096 21.7838 15.0316 21.8995 14.8814 22.0467C14.7312 22.1938 14.6118 22.3695 14.5304 22.5634C14.4489 22.7572 14.407 22.9654 14.407 23.1757C14.407 23.386 14.4489 23.5942 14.5304 23.788C14.6118 23.9819 14.7312 24.1576 14.8814 24.3047C15.0316 24.4519 15.2096 24.5676 15.4051 24.6451C15.6006 24.7226 15.8096 24.7603 16.0198 24.7561C16.4345 24.7492 16.8298 24.5796 17.1205 24.284C17.4113 23.9883 17.5742 23.5903 17.5742 23.1756C17.5742 22.7609 17.4113 22.3629 17.1205 22.0672C16.8298 21.7716 16.4345 21.6022 16.0198 21.5953Z" fill="#5865F2"/>
</g>
<defs>
<filter id="filter0_d_1_68" x="2" y="2" width="36" height="36" filterUnits="userSpaceOnUse" color-interpolation-filters="sRGB">
<feFlood flood-opacity="0" result="BackgroundImageFix"/>
<feColorMatrix in="SourceAlpha" type="matrix" values="0 0 0 0 0 0 0 0 0 0 0 0 0 0 0 0 0 0 127 0" result="hardAlpha"/>
<feOffset/>
<feGaussianBlur stdDeviation="2"/>
<feComposite in2="hardAlpha" operator="out"/>
<feColorMatrix type="matrix" values="0 0 0 0 0 0 0 0 0 0 0 0 0 0 0 0 0 0 0.25 0"/>
<feBlend mode="normal" in2="BackgroundImageFix" result="effect1_dropShadow_1_68"/>
<feBlend mode="normal" in="SourceGraphic" in2="effect1_dropShadow_1_68" result="shape"/>
</filter>
<linearGradient id="paint0_linear_1_68" x1="20" y1="0" x2="20" y2="40" gradientUnits="userSpaceOnUse">
<stop stop-color="#11121D"/>
<stop offset="1" stop-color="#0E0E17"/>
</linearGradient>
</defs>
</svg>
