<svg width="56" height="56" viewBox="0 0 56 56" fill="none" xmlns="http://www.w3.org/2000/svg">
<rect width="56" height="56" rx="8.4" fill="url(#paint0_linear_1_62)"/>
<rect x="1.05" y="1.05" width="53.9" height="53.9" rx="7.35" stroke="white" stroke-opacity="0.15" stroke-width="2.1"/>
<g filter="url(#filter0_d_1_62)">
<path d="M18.9187 34.5972C18.6231 34.7231 18.2094 34.8934 17.8759 34.9984C17.1697 35.2209 16.6031 35.3109 16.0225 35.3991C16.7206 37.6375 19.4556 39.8356 22.645 39.6281C25.6516 39.6281 27.7331 38.1459 28.8406 35.9962C25.7 35.9519 21.125 37.2594 18.9187 34.5972ZM47.6172 34.9662C46.5191 35.0972 45.7347 34.8762 43.9353 35.4537C39.5794 37.2478 35.2684 35.7262 33.8959 35.4287C33.4453 35.3819 33.2387 34.7225 32.3141 35.8134L31.8631 36.345C33.9919 38.4397 36.91 39.6419 39.9319 39.6419C44.0006 39.6419 46.7516 37.6769 47.6656 35.0078L47.6172 34.9662Z" fill="#B75CFF"/>
<path d="M47.8481 31.4706C45.4556 29.8091 44.9772 31.0103 43.7775 32.3072C43.8884 32.5909 43.9484 32.9134 43.9484 33.2884C43.9484 35.0397 42.5409 36.1731 40.0347 36.1731C37.94 36.1731 35.7772 35.1431 34.1638 33.6322L32.3138 35.8134C34.8188 35.9259 37.3544 36.5728 39.8906 36.4728C42.6663 36.3628 46.3328 35.4841 47.6172 34.9666L47.6659 35.0078C47.8883 34.3548 48.0012 33.6695 48 32.9797C48 32.4337 47.9469 31.9328 47.8481 31.4706ZM29.7775 31.5069C28.4219 30.4728 27.1225 30.825 25.8766 32.2859V32.5359C25.8766 34.5156 24.2769 36.1203 22.3038 36.1203C21.6982 36.1204 21.1027 35.9664 20.5731 35.6728C20.0435 35.3793 19.5973 34.9558 19.2766 34.4422C19.2766 34.4422 19.1206 34.5109 18.9188 34.5969C19.8525 35.7737 21 36.3822 23.2772 36.4728C25.1319 36.5462 26.9866 36.2212 28.8413 35.9962C29.4609 34.7944 29.7775 33.3844 29.7775 31.9059V31.5069Z" fill="#5C6CFF"/>
<path d="M29.7775 27.2619C28.5113 26.1478 27.2222 25.9231 25.8766 27.6231V32.2859C27.1813 31.9822 28.4828 31.6734 29.7775 31.5069V27.2619ZM44.8747 27.6006C42.9272 26.7481 37.0959 27.6009 36.065 27.9916C36.4909 28.2426 36.934 28.4634 37.3909 28.6522L40.4469 29.9916C42.0903 30.6766 43.3391 31.1875 43.7775 32.3072C45.0391 32.1241 46.1269 31.8728 46.8509 31.7063L47.8478 31.4706C47.4656 29.6859 46.3825 28.4878 44.8747 27.6006Z" fill="#5CFF9D"/>
<path d="M32.8641 22.9625C32.9666 25.4387 34.4003 27.0044 36.0725 27.9947C37.3488 28.2466 38.625 28.465 39.9013 28.465C41.6828 28.465 43.4625 28.0406 44.8763 27.6012C44.4228 27.3373 43.9524 27.1034 43.4681 26.9012L40.4469 25.6306C38.9544 25.0225 37.5516 24.4806 37.0609 23.3791C34.0503 21.8503 36.0697 20.8856 32.8647 22.9628L32.8641 22.9625ZM29.7775 23.2625C28.6325 22.4725 27.3406 22.7091 25.8763 23.9778L25.8766 27.6256C27.1766 27.4953 28.4772 27.3222 29.7775 27.2619V23.2625Z" fill="#FFDB5C"/>
<path d="M34.2088 18.9616C33.3494 19.9944 32.8588 21.2716 32.8588 22.6772C32.8588 22.7734 32.8609 22.8684 32.8647 22.9622C34.2566 22.9484 35.6569 23.1028 37.0609 23.3794C36.9355 23.0932 36.8726 22.7836 36.8763 22.4713C36.8763 20.8228 38.2494 19.8269 40.3784 19.8269C42.3006 19.8269 43.8459 20.5481 45.2534 21.7497L46.7481 19.9069C42.3803 18.5569 38.4763 17.7078 34.2094 18.9613L34.2088 18.9616ZM29.7775 19.8441C28.1663 18.4291 26.9294 19.4728 25.8763 21.4472V23.9778C27.1769 23.7763 28.4769 23.4819 29.7775 23.2622V19.8441Z" fill="#F79454"/>
<path d="M25.8763 16.3587V21.4475C27.1769 21.0084 28.4769 20.3591 29.7775 19.8437V16.3587H25.8763ZM40.3778 16.3587C37.7344 16.3587 35.5338 17.3697 34.2091 18.9606C36.0944 18.9678 37.9922 19.3487 39.8903 19.5753C42.6056 19.8997 45.3116 19.9066 46.7475 19.9066L47.3138 19.2087C45.5625 17.4572 43.0216 16.3587 40.3778 16.3587Z" fill="#FF5C5C"/>
<path d="M8 16.3588V33.5469H14.5072C16.2128 33.5469 17.5191 33.2766 18.7322 32.6647C18.73 32.6225 18.73 32.5794 18.73 32.5366C18.73 30.5569 20.33 28.9528 22.3037 28.9528C22.3622 28.9528 22.42 28.9541 22.4778 28.9572C23.0969 27.6969 23.3466 26.4472 23.3466 24.8053C23.3466 23.1113 23.0278 21.6369 22.3891 20.3606C21.7262 19.1084 20.7684 18.1263 19.4922 17.4138C18.2147 16.7022 16.6681 16.3588 14.8262 16.3588H8ZM12.125 20.0416H14.6053C16.0544 20.0416 17.1591 20.4594 17.8959 21.3188C18.6325 22.1778 19.0006 23.3563 19.0006 24.8788C19.0006 26.4256 18.6072 27.6294 17.8462 28.5131C17.0853 29.4216 15.9556 29.8634 14.4575 29.8634H12.1253L12.125 20.0416ZM22.3141 30.2791C22.0137 30.2729 21.7152 30.3268 21.4359 30.4375C21.1566 30.5482 20.9022 30.7136 20.6877 30.9238C20.4731 31.134 20.3026 31.385 20.1862 31.662C20.0699 31.9389 20.0099 32.2363 20.0099 32.5367C20.0099 32.8371 20.0699 33.1345 20.1862 33.4115C20.3026 33.6884 20.4731 33.9394 20.6877 34.1496C20.9022 34.3599 21.1566 34.5252 21.4359 34.6359C21.7152 34.7466 22.0137 34.8005 22.3141 34.7944C22.9064 34.7845 23.4711 34.5423 23.8865 34.12C24.3018 33.6976 24.5346 33.1289 24.5346 32.5366C24.5346 31.9442 24.3018 31.3755 23.8865 30.9532C23.4711 30.5308 22.9064 30.2889 22.3141 30.2791Z" fill="#5865F2"/>
</g>
<defs>
<filter id="filter0_d_1_62" x="2.28571" y="2.28571" width="51.4286" height="51.4286" filterUnits="userSpaceOnUse" color-interpolation-filters="sRGB">
<feFlood flood-opacity="0" result="BackgroundImageFix"/>
<feColorMatrix in="SourceAlpha" type="matrix" values="0 0 0 0 0 0 0 0 0 0 0 0 0 0 0 0 0 0 127 0" result="hardAlpha"/>
<feOffset/>
<feGaussianBlur stdDeviation="2.85714"/>
<feComposite in2="hardAlpha" operator="out"/>
<feColorMatrix type="matrix" values="0 0 0 0 0 0 0 0 0 0 0 0 0 0 0 0 0 0 0.25 0"/>
<feBlend mode="normal" in2="BackgroundImageFix" result="effect1_dropShadow_1_62"/>
<feBlend mode="normal" in="SourceGraphic" in2="effect1_dropShadow_1_62" result="shape"/>
</filter>
<linearGradient id="paint0_linear_1_62" x1="28" y1="0" x2="28" y2="56" gradientUnits="userSpaceOnUse">
<stop stop-color="#11121D"/>
<stop offset="1" stop-color="#0E0E17"/>
</linearGradient>
</defs>
</svg>
