<svg width="156" height="56" viewBox="0 0 156 56" fill="none" xmlns="http://www.w3.org/2000/svg">
<rect width="156" height="56" rx="8" fill="url(#paint0_linear_1_50)"/>
<rect x="1.05" y="1.05" width="153.9" height="53.9" rx="6.95" stroke="white" stroke-opacity="0.15" stroke-width="2.1"/>
<g filter="url(#filter0_d_1_50)">
<path d="M22.9187 34.5972C22.6231 34.7231 22.2094 34.8934 21.8759 34.9984C21.1697 35.2209 20.6031 35.3109 20.0225 35.3991C20.7206 37.6375 23.4556 39.8356 26.645 39.6281C29.6516 39.6281 31.7331 38.1459 32.8406 35.9962C29.7 35.9519 25.125 37.2594 22.9187 34.5972ZM51.6172 34.9662C50.5191 35.0972 49.7347 34.8762 47.9353 35.4537C43.5794 37.2478 39.2684 35.7262 37.8959 35.4287C37.4453 35.3819 37.2387 34.7225 36.3141 35.8134L35.8631 36.345C37.9919 38.4397 40.91 39.6419 43.9319 39.6419C48.0006 39.6419 50.7516 37.6769 51.6656 35.0078L51.6172 34.9662Z" fill="#B75CFF"/>
<path d="M51.8481 31.4706C49.4556 29.8091 48.9772 31.0103 47.7775 32.3072C47.8884 32.5909 47.9484 32.9134 47.9484 33.2884C47.9484 35.0397 46.5409 36.1731 44.0347 36.1731C41.94 36.1731 39.7772 35.1431 38.1637 33.6322L36.3137 35.8134C38.8187 35.9259 41.3544 36.5728 43.8906 36.4728C46.6662 36.3628 50.3328 35.4841 51.6172 34.9666L51.6659 35.0078C51.8883 34.3548 52.0012 33.6695 52 32.9797C52 32.4337 51.9469 31.9328 51.8481 31.4706ZM33.7775 31.5069C32.4219 30.4728 31.1225 30.825 29.8766 32.2859V32.5359C29.8766 34.5156 28.2769 36.1203 26.3037 36.1203C25.6982 36.1204 25.1027 35.9664 24.5731 35.6728C24.0435 35.3793 23.5973 34.9558 23.2766 34.4422C23.2766 34.4422 23.1206 34.5109 22.9187 34.5969C23.8525 35.7737 25 36.3822 27.2772 36.4728C29.1319 36.5462 30.9866 36.2212 32.8412 35.9962C33.4609 34.7944 33.7775 33.3844 33.7775 31.9059V31.5069Z" fill="#5C6CFF"/>
<path d="M33.7775 27.2619C32.5113 26.1478 31.2222 25.9231 29.8766 27.6231V32.2859C31.1813 31.9822 32.4828 31.6734 33.7775 31.5069V27.2619ZM48.8747 27.6006C46.9272 26.7481 41.0959 27.6009 40.065 27.9916C40.4909 28.2426 40.934 28.4634 41.3909 28.6522L44.4469 29.9916C46.0903 30.6766 47.3391 31.1875 47.7775 32.3072C49.0391 32.1241 50.1269 31.8728 50.8509 31.7063L51.8478 31.4706C51.4656 29.6859 50.3825 28.4878 48.8747 27.6006Z" fill="#5CFF9D"/>
<path d="M36.8641 22.9625C36.9666 25.4387 38.4003 27.0044 40.0725 27.9947C41.3488 28.2466 42.625 28.465 43.9013 28.465C45.6828 28.465 47.4625 28.0406 48.8762 27.6012C48.4228 27.3373 47.9524 27.1034 47.4681 26.9012L44.4469 25.6306C42.9544 25.0225 41.5516 24.4806 41.0609 23.3791C38.0503 21.8503 40.0697 20.8856 36.8647 22.9628L36.8641 22.9625ZM33.7775 23.2625C32.6325 22.4725 31.3406 22.7091 29.8763 23.9778L29.8766 27.6256C31.1766 27.4953 32.4772 27.3222 33.7775 27.2619V23.2625Z" fill="#FFDB5C"/>
<path d="M38.2088 18.9616C37.3494 19.9944 36.8588 21.2716 36.8588 22.6772C36.8588 22.7734 36.8609 22.8684 36.8647 22.9622C38.2566 22.9484 39.6569 23.1028 41.0609 23.3794C40.9355 23.0932 40.8726 22.7836 40.8763 22.4713C40.8763 20.8228 42.2494 19.8269 44.3784 19.8269C46.3006 19.8269 47.8459 20.5481 49.2534 21.7497L50.7481 19.9069C46.3803 18.5569 42.4763 17.7078 38.2094 18.9613L38.2088 18.9616ZM33.7775 19.8441C32.1663 18.4291 30.9294 19.4728 29.8763 21.4472V23.9778C31.1769 23.7763 32.4769 23.4819 33.7775 23.2622V19.8441Z" fill="#F79454"/>
<path d="M29.8763 16.3587V21.4475C31.1769 21.0084 32.4769 20.3591 33.7775 19.8437V16.3587H29.8763ZM44.3778 16.3587C41.7344 16.3587 39.5338 17.3697 38.2091 18.9606C40.0944 18.9678 41.9922 19.3487 43.8903 19.5753C46.6056 19.8997 49.3116 19.9066 50.7475 19.9066L51.3138 19.2087C49.5625 17.4572 47.0216 16.3587 44.3778 16.3587Z" fill="#FF5C5C"/>
<path d="M12 16.3588V33.5469H18.5072C20.2128 33.5469 21.5191 33.2766 22.7322 32.6647C22.73 32.6225 22.73 32.5794 22.73 32.5366C22.73 30.5569 24.33 28.9528 26.3037 28.9528C26.3622 28.9528 26.42 28.9541 26.4778 28.9572C27.0969 27.6969 27.3466 26.4472 27.3466 24.8053C27.3466 23.1113 27.0278 21.6369 26.3891 20.3606C25.7262 19.1084 24.7684 18.1263 23.4922 17.4138C22.2147 16.7022 20.6681 16.3588 18.8262 16.3588H12ZM16.125 20.0416H18.6053C20.0544 20.0416 21.1591 20.4594 21.8959 21.3188C22.6325 22.1778 23.0006 23.3563 23.0006 24.8788C23.0006 26.4256 22.6072 27.6294 21.8462 28.5131C21.0853 29.4216 19.9556 29.8634 18.4575 29.8634H16.1253L16.125 20.0416ZM26.3141 30.2791C26.0137 30.2729 25.7152 30.3268 25.4359 30.4375C25.1566 30.5482 24.9022 30.7136 24.6877 30.9238C24.4731 31.134 24.3026 31.385 24.1862 31.662C24.0699 31.9389 24.0099 32.2363 24.0099 32.5367C24.0099 32.8371 24.0699 33.1345 24.1862 33.4115C24.3026 33.6884 24.4731 33.9394 24.6877 34.1496C24.9022 34.3599 25.1566 34.5252 25.4359 34.6359C25.7152 34.7466 26.0137 34.8005 26.3141 34.7944C26.9064 34.7845 27.4711 34.5423 27.8865 34.12C28.3018 33.6976 28.5346 33.1289 28.5346 32.5366C28.5346 31.9442 28.3018 31.3755 27.8865 30.9532C27.4711 30.5308 26.9064 30.2889 26.3141 30.2791Z" fill="#5865F2"/>
</g>
<g filter="url(#filter1_d_1_50)">
<path d="M61.2784 24.5V12.8636H65.5398C66.3655 12.8636 67.0492 13 67.5909 13.2727C68.1326 13.5417 68.5379 13.9072 68.8068 14.3693C69.0757 14.8276 69.2102 15.3447 69.2102 15.9204C69.2102 16.4053 69.1212 16.8144 68.9432 17.1477C68.7651 17.4773 68.5265 17.7424 68.2273 17.9432C67.9318 18.1401 67.606 18.2841 67.25 18.375V18.4886C67.6363 18.5076 68.0132 18.6326 68.3807 18.8636C68.7519 19.0909 69.0587 19.4148 69.3011 19.8352C69.5435 20.2557 69.6648 20.767 69.6648 21.3693C69.6648 21.964 69.5246 22.4981 69.2443 22.9716C68.9678 23.4413 68.5398 23.8144 67.9602 24.0909C67.3807 24.3636 66.6401 24.5 65.7386 24.5H61.2784ZM63.0341 22.9943H65.5682C66.4091 22.9943 67.0113 22.8314 67.375 22.5057C67.7386 22.1799 67.9204 21.7727 67.9204 21.2841C67.9204 20.9167 67.8276 20.5795 67.642 20.2727C67.4564 19.9659 67.1913 19.7216 66.8466 19.5398C66.5057 19.3579 66.1004 19.267 65.6307 19.267H63.0341V22.9943ZM63.0341 17.8977H65.3863C65.7803 17.8977 66.1345 17.822 66.4488 17.6704C66.767 17.5189 67.0189 17.3068 67.2045 17.0341C67.3939 16.7576 67.4886 16.4318 67.4886 16.0568C67.4886 15.5758 67.3201 15.1723 66.9829 14.8466C66.6458 14.5208 66.1288 14.3579 65.4318 14.3579H63.0341V17.8977ZM77.1392 20.8807V15.7727H78.8437V24.5H77.1733V22.9886H77.0824C76.8816 23.4545 76.5596 23.8428 76.1165 24.1534C75.6771 24.4602 75.1297 24.6136 74.4744 24.6136C73.9138 24.6136 73.4176 24.4905 72.9858 24.2443C72.5577 23.9943 72.2206 23.625 71.9744 23.1364C71.732 22.6477 71.6108 22.0436 71.6108 21.3239V15.7727H73.3096V21.1193C73.3096 21.714 73.4744 22.1875 73.804 22.5398C74.1335 22.892 74.5615 23.0682 75.088 23.0682C75.4062 23.0682 75.7225 22.9886 76.0369 22.8295C76.3551 22.6704 76.6184 22.4299 76.8267 22.1079C77.0388 21.786 77.143 21.3769 77.1392 20.8807ZM81.1264 24.5V15.7727H82.8253V24.5H81.1264ZM81.9844 14.4261C81.6889 14.4261 81.4351 14.3276 81.223 14.1307C81.0147 13.9299 80.9105 13.6913 80.9105 13.4148C80.9105 13.1345 81.0147 12.8958 81.223 12.6989C81.4351 12.4981 81.6889 12.3977 81.9844 12.3977C82.2798 12.3977 82.5317 12.4981 82.74 12.6989C82.9522 12.8958 83.0582 13.1345 83.0582 13.4148C83.0582 13.6913 82.9522 13.9299 82.74 14.1307C82.5317 14.3276 82.2798 14.4261 81.9844 14.4261ZM86.8096 12.8636V24.5H85.1108V12.8636H86.8096ZM93.169 15.7727V17.1364H88.402V15.7727H93.169ZM89.6804 13.6818H91.3792V21.9375C91.3792 22.267 91.4285 22.5151 91.527 22.6818C91.6254 22.8447 91.7523 22.9564 91.9076 23.017C92.0667 23.0739 92.2391 23.1023 92.4247 23.1023C92.5611 23.1023 92.6804 23.0928 92.7826 23.0739C92.8849 23.0549 92.9645 23.0398 93.0213 23.0284L93.3281 24.4318C93.2296 24.4697 93.0895 24.5076 92.9076 24.5454C92.7258 24.5871 92.4986 24.6098 92.2258 24.6136C91.7789 24.6212 91.3622 24.5417 90.9758 24.375C90.5895 24.2083 90.277 23.9508 90.0383 23.6023C89.7997 23.2538 89.6804 22.8163 89.6804 22.2898V13.6818ZM101.175 24.5L98.6065 15.7727H100.362L102.072 22.1818H102.158L103.874 15.7727H105.629L107.334 22.1534H107.419L109.118 15.7727H110.874L108.311 24.5H106.578L104.805 18.1989H104.675L102.902 24.5H101.175ZM112.486 24.5V15.7727H114.185V24.5H112.486ZM113.344 14.4261C113.048 14.4261 112.794 14.3276 112.582 14.1307C112.374 13.9299 112.27 13.6913 112.27 13.4148C112.27 13.1345 112.374 12.8958 112.582 12.6989C112.794 12.4981 113.048 12.3977 113.344 12.3977C113.639 12.3977 113.891 12.4981 114.099 12.6989C114.312 12.8958 114.418 13.1345 114.418 13.4148C114.418 13.6913 114.312 13.9299 114.099 14.1307C113.891 14.3276 113.639 14.4261 113.344 14.4261ZM120.544 15.7727V17.1364H115.777V15.7727H120.544ZM117.055 13.6818H118.754V21.9375C118.754 22.267 118.803 22.5151 118.902 22.6818C119 22.8447 119.127 22.9564 119.283 23.017C119.442 23.0739 119.614 23.1023 119.8 23.1023C119.936 23.1023 120.055 23.0928 120.158 23.0739C120.26 23.0549 120.339 23.0398 120.396 23.0284L120.703 24.4318C120.605 24.4697 120.464 24.5076 120.283 24.5454C120.101 24.5871 119.874 24.6098 119.601 24.6136C119.154 24.6212 118.737 24.5417 118.351 24.375C117.964 24.2083 117.652 23.9508 117.413 23.6023C117.175 23.2538 117.055 22.8163 117.055 22.2898V13.6818ZM124.31 19.3182V24.5H122.611V12.8636H124.287V17.1932H124.395C124.599 16.7235 124.912 16.3504 125.332 16.0739C125.753 15.7973 126.302 15.6591 126.98 15.6591C127.579 15.6591 128.101 15.7822 128.548 16.0284C128.999 16.2746 129.348 16.642 129.594 17.1307C129.844 17.6155 129.969 18.2216 129.969 18.9489V24.5H128.27V19.1534C128.27 18.5133 128.105 18.017 127.776 17.6648C127.446 17.3087 126.988 17.1307 126.401 17.1307C125.999 17.1307 125.639 17.2159 125.321 17.3864C125.007 17.5568 124.758 17.8068 124.577 18.1364C124.399 18.4621 124.31 18.8561 124.31 19.3182Z" fill="#E8E8E8"/>
<path d="M64.3224 43.6328C63.6382 43.6328 63.0164 43.4557 62.457 43.1016C61.8976 42.7474 61.4509 42.2161 61.1168 41.5078C60.7828 40.7995 60.6158 39.9201 60.6158 38.8697C60.6158 37.779 60.7888 36.8815 61.1349 36.1772C61.481 35.4729 61.9338 34.9517 62.4932 34.6136C63.0567 34.2756 63.6624 34.1065 64.3104 34.1065C64.7973 34.1065 65.2139 34.191 65.56 34.3601C65.9061 34.5251 66.1919 34.7384 66.4172 35C66.6426 35.2616 66.8137 35.5333 66.9304 35.815H66.9907V31.1364H69.9428V43.5H67.0209V41.9968H66.9304C66.8056 42.2825 66.6285 42.5502 66.3991 42.7997C66.1697 43.0492 65.882 43.2505 65.5358 43.4034C65.1938 43.5563 64.7893 43.6328 64.3224 43.6328ZM65.3487 41.3327C65.7069 41.3327 66.0128 41.2321 66.2663 41.0309C66.5199 40.8256 66.7151 40.5379 66.8519 40.1676C66.9887 39.7973 67.0572 39.3627 67.0572 38.8636C67.0572 38.3565 66.9887 37.9199 66.8519 37.5536C66.7191 37.1874 66.5239 36.9056 66.2663 36.7084C66.0128 36.5112 65.7069 36.4126 65.3487 36.4126C64.9825 36.4126 64.6726 36.5132 64.419 36.7145C64.1655 36.9157 63.9723 37.1994 63.8395 37.5657C63.7107 37.9319 63.6463 38.3646 63.6463 38.8636C63.6463 39.3627 63.7127 39.7973 63.8455 40.1676C63.9783 40.5379 64.1695 40.8256 64.419 41.0309C64.6726 41.2321 64.9825 41.3327 65.3487 41.3327ZM71.8097 43.5V34.2273H74.7618V43.5H71.8097ZM73.2888 33.1467C72.8742 33.1467 72.5181 33.0098 72.2202 32.7361C71.9224 32.4584 71.7735 32.1244 71.7735 31.734C71.7735 31.3476 71.9224 31.0176 72.2202 30.744C72.5181 30.4663 72.8742 30.3274 73.2888 30.3274C73.7073 30.3274 74.0635 30.4663 74.3573 30.744C74.6551 31.0176 74.804 31.3476 74.804 31.734C74.804 32.1244 74.6551 32.4584 74.3573 32.7361C74.0635 33.0098 73.7073 33.1467 73.2888 33.1467ZM84.7363 37.0586L82.0257 37.131C81.9976 36.9378 81.9211 36.7668 81.7963 36.6179C81.6716 36.465 81.5086 36.3462 81.3073 36.2617C81.1101 36.1732 80.8807 36.1289 80.6191 36.1289C80.277 36.1289 79.9852 36.1973 79.7438 36.3342C79.5063 36.471 79.3896 36.6561 79.3936 36.8895C79.3896 37.0707 79.462 37.2276 79.611 37.3604C79.7639 37.4932 80.0355 37.5999 80.4259 37.6804L82.2129 38.0185C83.1385 38.1955 83.8267 38.4893 84.2775 38.8998C84.7323 39.3104 84.9617 39.8537 84.9657 40.5298C84.9617 41.1657 84.7725 41.7191 84.3982 42.19C84.028 42.6609 83.5209 43.0271 82.8769 43.2887C82.233 43.5463 81.4965 43.6751 80.6674 43.6751C79.3433 43.6751 78.2989 43.4034 77.5342 42.8601C76.7736 42.3127 76.3389 41.5802 76.2303 40.6626L79.1461 40.5902C79.2105 40.9283 79.3775 41.1858 79.6472 41.3629C79.9168 41.54 80.2609 41.6285 80.6795 41.6285C81.0578 41.6285 81.3657 41.5581 81.6031 41.4172C81.8406 41.2764 81.9613 41.0892 81.9654 40.8558C81.9613 40.6465 81.8688 40.4795 81.6877 40.3547C81.5065 40.226 81.2228 40.1253 80.8364 40.0529L79.2186 39.745C78.2889 39.576 77.5966 39.2641 77.1418 38.8093C76.6871 38.3505 76.4617 37.7669 76.4657 37.0586C76.4617 36.4388 76.6267 35.9096 76.9607 35.4709C77.2948 35.0282 77.7697 34.6901 78.3855 34.4567C79.0012 34.2232 79.7277 34.1065 80.5648 34.1065C81.8205 34.1065 82.8105 34.3701 83.535 34.8974C84.2594 35.4206 84.6598 36.141 84.7363 37.0586ZM90.7476 43.6751C89.7696 43.6751 88.9305 43.4738 88.2302 43.0714C87.5339 42.6689 86.9986 42.1095 86.6244 41.3931C86.2501 40.6727 86.0629 39.8396 86.0629 38.8938C86.0629 37.944 86.2501 37.1109 86.6244 36.3945C87.0027 35.6741 87.54 35.1127 88.2362 34.7102C88.9365 34.3078 89.7716 34.1065 90.7415 34.1065C91.5988 34.1065 92.3454 34.2615 92.9812 34.5714C93.6212 34.8813 94.1202 35.3199 94.4784 35.8874C94.8406 36.4509 95.0318 37.1129 95.0519 37.8736H92.293C92.2367 37.3987 92.0757 37.0264 91.8101 36.7567C91.5485 36.4871 91.2064 36.3523 90.7838 36.3523C90.4417 36.3523 90.1419 36.4489 89.8843 36.642C89.6267 36.8312 89.4255 37.1129 89.2806 37.4872C89.1397 37.8575 89.0693 38.3163 89.0693 38.8636C89.0693 39.411 89.1397 39.8738 89.2806 40.2521C89.4255 40.6264 89.6267 40.9101 89.8843 41.1033C90.1419 41.2925 90.4417 41.3871 90.7838 41.3871C91.0575 41.3871 91.299 41.3287 91.5082 41.212C91.7215 41.0953 91.8966 40.9242 92.0334 40.6989C92.1703 40.4694 92.2568 40.1918 92.293 39.8658H95.0519C95.0237 40.6304 94.8326 41.2985 94.4784 41.87C94.1283 42.4415 93.6352 42.8862 92.9994 43.2042C92.3675 43.5181 91.6169 43.6751 90.7476 43.6751ZM100.891 43.6751C99.9172 43.6751 99.0801 43.4758 98.3798 43.0774C97.6835 42.6749 97.1462 42.1155 96.7679 41.3991C96.3936 40.6787 96.2065 39.8436 96.2065 38.8938C96.2065 37.94 96.3936 37.1049 96.7679 36.3885C97.1462 35.6681 97.6835 35.1087 98.3798 34.7102C99.0801 34.3078 99.9172 34.1065 100.891 34.1065C101.865 34.1065 102.7 34.3078 103.396 34.7102C104.097 35.1087 104.634 35.6681 105.008 36.3885C105.387 37.1049 105.576 37.94 105.576 38.8938C105.576 39.8436 105.387 40.6787 105.008 41.3991C104.634 42.1155 104.097 42.6749 103.396 43.0774C102.7 43.4758 101.865 43.6751 100.891 43.6751ZM100.909 41.4474C101.263 41.4474 101.563 41.3388 101.809 41.1214C102.054 40.9041 102.241 40.6023 102.37 40.2159C102.503 39.8295 102.569 39.3828 102.569 38.8757C102.569 38.3605 102.503 37.9098 102.37 37.5234C102.241 37.1371 102.054 36.8352 101.809 36.6179C101.563 36.4006 101.263 36.2919 100.909 36.2919C100.543 36.2919 100.233 36.4006 99.9796 36.6179C99.73 36.8352 99.5389 37.1371 99.406 37.5234C99.2773 37.9098 99.2129 38.3605 99.2129 38.8757C99.2129 39.3828 99.2773 39.8295 99.406 40.2159C99.5389 40.6023 99.73 40.9041 99.9796 41.1214C100.233 41.3388 100.543 41.4474 100.909 41.4474ZM107.088 43.5V34.2273H109.956V35.9176H110.052C110.221 35.3059 110.497 34.8511 110.879 34.5533C111.262 34.2514 111.706 34.1005 112.213 34.1005C112.35 34.1005 112.491 34.1105 112.636 34.1307C112.781 34.1468 112.916 34.1729 113.04 34.2092V36.7748C112.9 36.7266 112.714 36.6883 112.485 36.6601C112.26 36.632 112.058 36.6179 111.881 36.6179C111.531 36.6179 111.215 36.6964 110.934 36.8533C110.656 37.0063 110.437 37.2216 110.276 37.4993C110.119 37.773 110.04 38.0949 110.04 38.4652V43.5H107.088ZM117.149 43.6328C116.464 43.6328 115.843 43.4557 115.283 43.1016C114.724 42.7474 114.277 42.2161 113.943 41.5078C113.609 40.7995 113.442 39.9201 113.442 38.8697C113.442 37.779 113.615 36.8815 113.961 36.1772C114.307 35.4729 114.76 34.9517 115.319 34.6136C115.883 34.2756 116.489 34.1065 117.137 34.1065C117.623 34.1065 118.04 34.191 118.386 34.3601C118.732 34.5251 119.018 34.7384 119.243 35C119.469 35.2616 119.64 35.5333 119.757 35.815H119.817V31.1364H122.769V43.5H119.847V41.9968H119.757C119.632 42.2825 119.455 42.5502 119.225 42.7997C118.996 43.0492 118.708 43.2505 118.362 43.4034C118.02 43.5563 117.615 43.6328 117.149 43.6328ZM118.175 41.3327C118.533 41.3327 118.839 41.2321 119.092 41.0309C119.346 40.8256 119.541 40.5379 119.678 40.1676C119.815 39.7973 119.883 39.3627 119.883 38.8636C119.883 38.3565 119.815 37.9199 119.678 37.5536C119.545 37.1874 119.35 36.9056 119.092 36.7084C118.839 36.5112 118.533 36.4126 118.175 36.4126C117.809 36.4126 117.499 36.5132 117.245 36.7145C116.992 36.9157 116.798 37.1994 116.666 37.5657C116.537 37.9319 116.472 38.3646 116.472 38.8636C116.472 39.3627 116.539 39.7973 116.672 40.1676C116.804 40.5379 116.996 40.8256 117.245 41.0309C117.499 41.2321 117.809 41.3327 118.175 41.3327ZM126.296 43.6751C125.861 43.6751 125.489 43.5221 125.179 43.2163C124.873 42.9104 124.722 42.5401 124.726 42.1055C124.722 41.6788 124.873 41.3146 125.179 41.0128C125.489 40.7069 125.861 40.554 126.296 40.554C126.707 40.554 127.069 40.7069 127.383 41.0128C127.701 41.3146 127.862 41.6788 127.866 42.1055C127.862 42.3952 127.785 42.6588 127.636 42.8963C127.491 43.1337 127.3 43.3229 127.063 43.4638C126.829 43.6046 126.574 43.6751 126.296 43.6751ZM129.816 34.2273H132.768V43.8864C132.768 44.651 132.611 45.2587 132.297 45.7095C131.987 46.1603 131.548 46.4842 130.981 46.6815C130.413 46.8787 129.743 46.9773 128.97 46.9773C128.866 46.9773 128.767 46.9752 128.675 46.9712C128.582 46.9672 128.481 46.9632 128.373 46.9591V44.7194C128.445 44.7275 128.51 44.7335 128.566 44.7376C128.622 44.7416 128.679 44.7436 128.735 44.7436C129.141 44.7436 129.423 44.6671 129.58 44.5142C129.737 44.3653 129.816 44.1359 129.816 43.826V34.2273ZM131.289 33.1467C130.874 33.1467 130.518 33.0098 130.22 32.7361C129.922 32.4584 129.773 32.1244 129.773 31.734C129.773 31.3476 129.922 31.0176 130.22 30.744C130.518 30.4663 130.874 30.3274 131.289 30.3274C131.707 30.3274 132.063 30.4663 132.357 30.744C132.655 31.0176 132.804 31.3476 132.804 31.734C132.804 32.1244 132.655 32.4584 132.357 32.7361C132.063 33.0098 131.707 33.1467 131.289 33.1467ZM142.742 37.0586L140.032 37.131C140.003 36.9378 139.927 36.7668 139.802 36.6179C139.677 36.465 139.514 36.3462 139.313 36.2617C139.116 36.1732 138.887 36.1289 138.625 36.1289C138.283 36.1289 137.991 36.1973 137.75 36.3342C137.512 36.471 137.395 36.6561 137.399 36.8895C137.395 37.0707 137.468 37.2276 137.617 37.3604C137.77 37.4932 138.041 37.5999 138.432 37.6804L140.219 38.0185C141.144 38.1955 141.833 38.4893 142.283 38.8998C142.738 39.3104 142.968 39.8537 142.972 40.5298C142.968 41.1657 142.778 41.7191 142.404 42.19C142.034 42.6609 141.527 43.0271 140.883 43.2887C140.239 43.5463 139.502 43.6751 138.673 43.6751C137.349 43.6751 136.305 43.4034 135.54 42.8601C134.779 42.3127 134.345 41.5802 134.236 40.6626L137.152 40.5902C137.216 40.9283 137.383 41.1858 137.653 41.3629C137.923 41.54 138.267 41.6285 138.685 41.6285C139.064 41.6285 139.372 41.5581 139.609 41.4172C139.846 41.2764 139.967 41.0892 139.971 40.8558C139.967 40.6465 139.875 40.4795 139.693 40.3547C139.512 40.226 139.229 40.1253 138.842 40.0529L137.224 39.745C136.295 39.576 135.602 39.2641 135.148 38.8093C134.693 38.3505 134.468 37.7669 134.472 37.0586C134.468 36.4388 134.633 35.9096 134.967 35.4709C135.301 35.0282 135.776 34.6901 136.391 34.4567C137.007 34.2232 137.734 34.1065 138.571 34.1065C139.826 34.1065 140.816 34.3701 141.541 34.8974C142.265 35.4206 142.666 36.141 142.742 37.0586Z" fill="url(#paint1_linear_1_50)"/>
</g>
<defs>
<filter id="filter0_d_1_50" x="6.28571" y="2.28571" width="51.4286" height="51.4286" filterUnits="userSpaceOnUse" color-interpolation-filters="sRGB">
<feFlood flood-opacity="0" result="BackgroundImageFix"/>
<feColorMatrix in="SourceAlpha" type="matrix" values="0 0 0 0 0 0 0 0 0 0 0 0 0 0 0 0 0 0 127 0" result="hardAlpha"/>
<feOffset/>
<feGaussianBlur stdDeviation="2.85714"/>
<feComposite in2="hardAlpha" operator="out"/>
<feColorMatrix type="matrix" values="0 0 0 0 0 0 0 0 0 0 0 0 0 0 0 0 0 0 0.25 0"/>
<feBlend mode="normal" in2="BackgroundImageFix" result="effect1_dropShadow_1_50"/>
<feBlend mode="normal" in="SourceGraphic" in2="effect1_dropShadow_1_50" result="shape"/>
</filter>
<filter id="filter1_d_1_50" x="54.4" y="3.9" width="95.2" height="48.6773" filterUnits="userSpaceOnUse" color-interpolation-filters="sRGB">
<feFlood flood-opacity="0" result="BackgroundImageFix"/>
<feColorMatrix in="SourceAlpha" type="matrix" values="0 0 0 0 0 0 0 0 0 0 0 0 0 0 0 0 0 0 127 0" result="hardAlpha"/>
<feOffset/>
<feGaussianBlur stdDeviation="2.8"/>
<feComposite in2="hardAlpha" operator="out"/>
<feColorMatrix type="matrix" values="0 0 0 0 0 0 0 0 0 0 0 0 0 0 0 0 0 0 0.25 0"/>
<feBlend mode="normal" in2="BackgroundImageFix" result="effect1_dropShadow_1_50"/>
<feBlend mode="normal" in="SourceGraphic" in2="effect1_dropShadow_1_50" result="shape"/>
</filter>
<linearGradient id="paint0_linear_1_50" x1="78" y1="0" x2="78" y2="56" gradientUnits="userSpaceOnUse">
<stop stop-color="#11121D"/>
<stop offset="1" stop-color="#0E0E17"/>
</linearGradient>
<linearGradient id="paint1_linear_1_50" x1="102" y1="28.5" x2="102" y2="46.5" gradientUnits="userSpaceOnUse">
<stop stop-color="#FF5C5C"/>
<stop offset="0.2" stop-color="#F79454"/>
<stop offset="0.4" stop-color="#FEDC65"/>
<stop offset="0.6" stop-color="#5CFF9D"/>
<stop offset="0.8" stop-color="#5C6CFF"/>
<stop offset="1" stop-color="#B75CFF"/>
</linearGradient>
</defs>
</svg>
