<svg width="165" height="40" viewBox="0 0 165 40" fill="none" xmlns="http://www.w3.org/2000/svg">
<rect width="165.001" height="40.0014" rx="8" fill="url(#paint0_linear_1_56)"/>
<rect x="1.07143" y="1.07143" width="162.859" height="37.8585" rx="6.92857" stroke="white" stroke-opacity="0.15" stroke-width="2.14286"/>
<g filter="url(#filter0_d_1_56)">
<mask id="mask0_1_56" style="mask-type:luminance" maskUnits="userSpaceOnUse" x="8" y="12" width="28" height="16">
<path d="M8.56693 20.0929C8.56693 24.0436 14.6588 27.2463 22.1732 27.2463C29.6876 27.2463 35.7795 24.0436 35.7795 20.0929C35.7795 16.1423 29.6876 12.9395 22.1732 12.9395C14.6588 12.9395 8.56693 16.1423 8.56693 20.0929Z" fill="white"/>
</mask>
<g mask="url(#mask0_1_56)">
<path d="M8.56693 20.0929C8.56693 24.0436 14.6588 27.2463 22.1732 27.2463C29.6876 27.2463 35.7795 24.0436 35.7795 20.0929C35.7795 16.1423 29.6876 12.9395 22.1732 12.9395C14.6588 12.9395 8.56693 16.1423 8.56693 20.0929Z" fill="url(#paint1_radial_1_56)"/>
</g>
<mask id="mask1_1_56" style="mask-type:luminance" maskUnits="userSpaceOnUse" x="8" y="12" width="29" height="17">
<path d="M8 12.125H36.3464V28.0609H8V12.125Z" fill="white"/>
</mask>
<g mask="url(#mask1_1_56)">
<path d="M22.1732 26.7152C29.3941 26.7152 35.248 23.7503 35.248 20.0929C35.248 16.4356 29.3941 13.4706 22.1732 13.4706C14.9523 13.4706 9.09843 16.4356 9.09843 20.0929C9.09843 23.7503 14.9523 26.7152 22.1732 26.7152Z" fill="#777BB3"/>
</g>
<mask id="mask2_1_56" style="mask-type:luminance" maskUnits="userSpaceOnUse" x="8" y="12" width="29" height="17">
<path d="M8 12.125H36.3464V28.0609H8V12.125Z" fill="white"/>
</mask>
<g mask="url(#mask2_1_56)">
<path d="M15.9594 20.914C16.5531 20.914 16.9964 20.8046 17.2768 20.5888C17.5543 20.3753 17.7459 20.0054 17.8464 19.4894C17.94 19.0071 17.9043 18.6703 17.7404 18.4886C17.5727 18.303 17.2102 18.2088 16.6629 18.2088H15.7141L15.188 20.914H15.9594ZM12.8559 24.2463C12.8118 24.2463 12.77 24.2266 12.742 24.1926C12.7139 24.1586 12.7026 24.1138 12.711 24.0706L14.1051 16.9019C14.1186 16.8326 14.1793 16.7825 14.25 16.7825H17.2546C18.1989 16.7825 18.9018 17.0387 19.3435 17.5442C19.7877 18.0523 19.9248 18.7626 19.7512 19.6553C19.6805 20.0189 19.559 20.3567 19.3899 20.6591C19.2207 20.9618 18.997 21.2419 18.725 21.4918C18.3994 21.7963 18.0309 22.0172 17.6307 22.1471C17.2369 22.2753 16.7311 22.3404 16.1274 22.3404H14.9107L14.5633 24.1269C14.5498 24.1962 14.4891 24.2463 14.4184 24.2463H12.8559Z" fill="black"/>
<path d="M15.8358 18.3564H16.663C17.3234 18.3564 17.5529 18.5012 17.6308 18.5875C17.7601 18.7309 17.7846 19.0331 17.7014 19.4614C17.608 19.941 17.4349 20.281 17.1868 20.4719C16.9327 20.6674 16.5197 20.7664 15.9594 20.7664H15.3671L15.8358 18.3564ZM17.2546 16.6349H14.25C14.1086 16.6349 13.9871 16.735 13.9602 16.8737L12.5661 24.0424C12.5492 24.129 12.572 24.2184 12.628 24.2864C12.6841 24.3545 12.7677 24.3938 12.8559 24.3938H14.4184C14.5598 24.3938 14.6813 24.2937 14.7082 24.155L15.0324 22.4879H16.1274C16.7466 22.4879 17.2678 22.4204 17.6765 22.2874C18.0969 22.1509 18.4836 21.9195 18.8258 21.5996C19.1089 21.3393 19.3421 21.0471 19.5188 20.7311C19.6955 20.415 19.8224 20.0625 19.8961 19.6834C20.0789 18.7438 19.9304 17.9913 19.4547 17.4471C18.9837 16.9082 18.2434 16.6349 17.2546 16.6349ZM15.0089 21.0615H15.9594C16.5893 21.0615 17.0586 20.943 17.3669 20.7057C17.6753 20.4685 17.8832 20.0725 17.9913 19.5176C18.0947 18.9848 18.0476 18.6088 17.85 18.3898C17.6522 18.1708 17.2566 18.0613 16.663 18.0613H15.5924L15.0089 21.0615ZM17.2546 16.93C18.1585 16.93 18.8179 17.1671 19.2324 17.6413C19.6468 18.1155 19.7716 18.7773 19.6063 19.6271C19.5382 19.9772 19.4231 20.2972 19.261 20.5872C19.0988 20.8773 18.8869 21.1426 18.6251 21.3832C18.3131 21.675 17.9665 21.8829 17.5851 22.0068C17.2037 22.131 16.7179 22.1928 16.1274 22.1928H14.789L14.4184 24.0987H12.8559L14.25 16.93H17.2546Z" fill="white"/>
<path d="M23.3338 22.3404C23.2897 22.3404 23.2479 22.3207 23.2199 22.2867C23.1918 22.2527 23.1804 22.208 23.1888 22.1647L23.8055 18.9928C23.8642 18.6911 23.8497 18.4746 23.7648 18.3832C23.7129 18.3272 23.5568 18.2334 23.0952 18.2334H21.978L21.2026 22.2209C21.1891 22.2903 21.1284 22.3404 21.0577 22.3404H19.5075C19.4634 22.3404 19.4216 22.3207 19.3936 22.2867C19.3655 22.2527 19.3542 22.2079 19.3626 22.1647L20.7567 14.9959C20.7701 14.9266 20.8309 14.8766 20.9016 14.8766H22.4518C22.4959 14.8766 22.5377 14.8962 22.5657 14.9302C22.5938 14.9643 22.6051 15.009 22.5967 15.0523L22.2603 16.7825H23.4622C24.3778 16.7825 24.9986 16.9438 25.3602 17.2757C25.7289 17.6143 25.8439 18.1557 25.7021 18.885L25.0535 22.2209C25.04 22.2903 24.9793 22.3404 24.9086 22.3404H23.3338Z" fill="black"/>
<path d="M22.4518 14.729H20.9016C20.7602 14.729 20.6387 14.8291 20.6117 14.9678L19.2176 22.1365C19.2008 22.223 19.2236 22.3125 19.2797 22.3805C19.3358 22.4486 19.4193 22.4879 19.5075 22.4879H21.0577C21.199 22.4879 21.3206 22.3878 21.3476 22.2491L22.0997 18.381H23.0952C23.556 18.381 23.6527 18.4793 23.6566 18.4836C23.6845 18.5136 23.7213 18.6528 23.6606 18.9646L23.0439 22.1365C23.0271 22.223 23.0498 22.3125 23.1059 22.3805C23.162 22.4486 23.2456 22.4879 23.3338 22.4879H24.9086C25.0499 22.4879 25.1715 22.3878 25.1984 22.2491L25.847 18.9131C25.9992 18.1301 25.869 17.5427 25.4602 17.1671C25.07 16.809 24.4165 16.6349 23.4622 16.6349H22.4393L22.7417 15.0804C22.7584 14.9939 22.7358 14.9044 22.6797 14.8364C22.6235 14.7684 22.54 14.729 22.4518 14.729ZM22.4518 15.0241L22.0812 16.93H23.4622C24.3311 16.93 24.9305 17.0816 25.2604 17.3844C25.5902 17.6874 25.689 18.1783 25.5572 18.8569L24.9086 22.1928H23.3338L23.9505 19.021C24.0206 18.6601 23.9949 18.414 23.873 18.2828C23.7511 18.1516 23.4918 18.0859 23.0952 18.0859H21.8562L21.0577 22.1928H19.5075L20.9016 15.0241H22.4518Z" fill="white"/>
<path d="M28.155 20.914C28.7487 20.914 29.192 20.8046 29.4724 20.5888C29.7499 20.3754 29.9415 20.0055 30.042 19.4894C30.1357 19.0071 30.1 18.6703 29.936 18.4886C29.7683 18.303 29.4058 18.2088 28.8586 18.2088H27.9097L27.3837 20.914H28.155ZM25.0515 24.2463C25.0075 24.2463 24.9657 24.2266 24.9377 24.1926C24.9096 24.1586 24.8982 24.1138 24.9066 24.0706L26.3007 16.9019C26.3142 16.8326 26.375 16.7825 26.4457 16.7825H29.4502C30.3946 16.7825 31.0974 17.0387 31.5392 17.5442C31.9834 18.0523 32.1205 18.7626 31.9468 19.6553C31.8761 20.0189 31.7546 20.3567 31.5855 20.6591C31.4163 20.9618 31.1926 21.2419 30.9206 21.4918C30.595 21.7963 30.2265 22.0172 29.8263 22.1471C29.4325 22.2753 28.9267 22.3404 28.323 22.3404H27.1063L26.759 24.1269C26.7455 24.1962 26.6847 24.2463 26.614 24.2463H25.0515Z" fill="black"/>
<path d="M28.0314 18.3564H28.8586C29.5191 18.3564 29.7485 18.5012 29.8264 18.5875C29.9558 18.7309 29.9802 19.0331 29.8971 19.4614C29.8037 19.941 29.6305 20.281 29.3824 20.4719C29.1284 20.6674 28.7154 20.7664 28.155 20.7664H27.5628L28.0314 18.3564ZM29.4503 16.6349H26.4456C26.3043 16.6349 26.1828 16.735 26.1558 16.8737L24.7617 24.0424C24.7449 24.129 24.7676 24.2184 24.8237 24.2864C24.8798 24.3545 24.9634 24.3938 25.0515 24.3938H26.614C26.7554 24.3938 26.8769 24.2937 26.9039 24.155L27.2281 22.4879H28.323C28.9422 22.4879 29.4634 22.4204 29.8722 22.2874C30.2925 22.1509 30.6793 21.9194 31.0216 21.5995C31.3046 21.3392 31.5377 21.0471 31.7144 20.7311C31.8911 20.415 32.0181 20.0625 32.0917 19.6834C32.2746 18.7437 32.126 17.9913 31.6504 17.4471C31.1793 16.9082 30.4391 16.6349 29.4503 16.6349ZM27.2046 21.0615H28.155C28.785 21.0615 29.2542 20.943 29.5625 20.7057C29.8709 20.4685 30.0788 20.0725 30.1869 19.5176C30.2904 18.9848 30.2433 18.6088 30.0456 18.3898C29.8478 18.1708 29.4522 18.0613 28.8586 18.0613H27.788L27.2046 21.0615ZM29.4503 16.93C30.3541 16.93 31.0135 17.1671 31.428 17.6413C31.8425 18.1155 31.9672 18.7773 31.8019 19.6271C31.7338 19.9772 31.6187 20.2972 31.4567 20.5872C31.2944 20.8773 31.0825 21.1426 30.8207 21.3832C30.5087 21.675 30.1621 21.8829 29.7807 22.0068C29.3993 22.131 28.9135 22.1928 28.323 22.1928H26.9846L26.614 24.0987H25.0515L26.4456 16.93H29.4503Z" fill="white"/>
</g>
</g>
<g filter="url(#filter1_d_1_56)">
<g filter="url(#filter2_d_1_56)">
<path d="M43.3597 26.5007V14.1371H47.8874C48.7648 14.1371 49.4912 14.282 50.0667 14.5717C50.6423 14.8575 51.0729 15.2458 51.3586 15.7369C51.6444 16.2238 51.7873 16.7732 51.7873 17.3849C51.7873 17.9001 51.6927 18.3347 51.5035 18.6889C51.3144 19.0391 51.0608 19.3208 50.7429 19.5341C50.429 19.7434 50.0828 19.8963 49.7045 19.9929V20.1136C50.115 20.1337 50.5155 20.2666 50.9059 20.5121C51.3003 20.7535 51.6263 21.0976 51.8839 21.5444C52.1414 21.9911 52.2702 22.5344 52.2702 23.1743C52.2702 23.8062 52.1213 24.3737 51.8235 24.8768C51.5297 25.3758 51.0749 25.7722 50.4591 26.066C49.8434 26.3558 49.0566 26.5007 48.0987 26.5007H43.3597ZM45.2251 24.9009H47.9176C48.8111 24.9009 49.451 24.7279 49.8373 24.3817C50.2237 24.0356 50.4169 23.603 50.4169 23.0838C50.4169 22.6934 50.3183 22.3352 50.1211 22.0092C49.9239 21.6832 49.6421 21.4236 49.2759 21.2305C48.9137 21.0373 48.483 20.9407 47.984 20.9407H45.2251V24.9009ZM45.2251 19.4858H47.7244C48.143 19.4858 48.5193 19.4053 48.8533 19.2443C49.1914 19.0833 49.459 18.8579 49.6562 18.5682C49.8575 18.2744 49.9581 17.9283 49.9581 17.5298C49.9581 17.0187 49.779 16.5901 49.4208 16.244C49.0626 15.8978 48.5132 15.7248 47.7727 15.7248H45.2251V19.4858ZM60.2118 22.6552V17.228H62.0229V26.5007H60.248V24.8949H60.1514C59.9381 25.3899 59.596 25.8024 59.1251 26.1324C58.6583 26.4584 58.0767 26.6214 57.3805 26.6214C56.7848 26.6214 56.2576 26.4906 55.7988 26.229C55.344 25.9634 54.9858 25.571 54.7242 25.0518C54.4667 24.5327 54.3379 23.8907 54.3379 23.1261V17.228H56.1429V22.9087C56.1429 23.5406 56.318 24.0437 56.6681 24.418C57.0183 24.7922 57.473 24.9794 58.0325 24.9794C58.3705 24.9794 58.7066 24.8949 59.0406 24.7258C59.3787 24.5568 59.6584 24.3012 59.8798 23.9591C60.1051 23.6171 60.2158 23.1824 60.2118 22.6552ZM64.4482 26.5007V17.228H66.2533V26.5007H64.4482ZM65.3598 15.7972C65.0459 15.7972 64.7762 15.6926 64.5508 15.4833C64.3295 15.27 64.2188 15.0164 64.2188 14.7226C64.2188 14.4248 64.3295 14.1713 64.5508 13.962C64.7762 13.7487 65.0459 13.642 65.3598 13.642C65.6737 13.642 65.9413 13.7487 66.1627 13.962C66.3881 14.1713 66.5008 14.4248 66.5008 14.7226C66.5008 15.0164 66.3881 15.27 66.1627 15.4833C65.9413 15.6926 65.6737 15.7972 65.3598 15.7972ZM70.4867 14.1371V26.5007H68.6816V14.1371H70.4867ZM77.2435 17.228V18.6768H72.1785V17.228H77.2435ZM73.5368 15.0064H75.3419V23.778C75.3419 24.1282 75.3942 24.3918 75.4988 24.5689C75.6035 24.7419 75.7383 24.8607 75.9033 24.9251C76.0723 24.9854 76.2554 25.0156 76.4526 25.0156C76.5975 25.0156 76.7243 25.0056 76.833 24.9854C76.9416 24.9653 77.0262 24.9492 77.0865 24.9371L77.4125 26.4283C77.3079 26.4685 77.159 26.5087 76.9658 26.549C76.7726 26.5933 76.5311 26.6174 76.2414 26.6214C75.7664 26.6295 75.3237 26.545 74.9132 26.3679C74.5027 26.1908 74.1707 25.9171 73.9171 25.5469C73.6636 25.1766 73.5368 24.7118 73.5368 24.1523V15.0064ZM85.7495 26.5007L83.0208 17.228H84.8862L86.7034 24.0376H86.7939L88.6171 17.228H90.4825L92.2936 24.0074H92.3841L94.1891 17.228H96.0546L93.3319 26.5007H91.4906L89.6071 19.8057H89.4683L87.5847 26.5007H85.7495ZM97.7675 26.5007V17.228H99.5726V26.5007H97.7675ZM98.6791 15.7972C98.3652 15.7972 98.0955 15.6926 97.8702 15.4833C97.6488 15.27 97.5381 15.0164 97.5381 14.7226C97.5381 14.4248 97.6488 14.1713 97.8702 13.962C98.0955 13.7487 98.3652 13.642 98.6791 13.642C98.993 13.642 99.2607 13.7487 99.482 13.962C99.7074 14.1713 99.8201 14.4248 99.8201 14.7226C99.8201 15.0164 99.7074 15.27 99.482 15.4833C99.2607 15.6926 98.993 15.7972 98.6791 15.7972ZM106.329 17.228V18.6768H101.264V17.228H106.329ZM102.623 15.0064H104.428V23.778C104.428 24.1282 104.48 24.3918 104.585 24.5689C104.689 24.7419 104.824 24.8607 104.989 24.9251C105.158 24.9854 105.341 25.0156 105.539 25.0156C105.683 25.0156 105.81 25.0056 105.919 24.9854C106.028 24.9653 106.112 24.9492 106.172 24.9371L106.498 26.4283C106.394 26.4685 106.245 26.5087 106.052 26.549C105.859 26.5933 105.617 26.6174 105.327 26.6214C104.852 26.6295 104.41 26.545 103.999 26.3679C103.589 26.1908 103.257 25.9171 103.003 25.5469C102.75 25.1766 102.623 24.7118 102.623 24.1523V15.0064ZM110.33 20.995V26.5007H108.525V14.1371H110.306V18.7372H110.421C110.638 18.2382 110.97 17.8417 111.417 17.5479C111.864 17.2541 112.447 17.1072 113.168 17.1072C113.804 17.1072 114.359 17.238 114.834 17.4996C115.313 17.7612 115.683 18.1516 115.945 18.6708C116.21 19.1859 116.343 19.8299 116.343 20.6026V26.5007H114.538V20.8199C114.538 20.1398 114.363 19.6126 114.013 19.2383C113.663 18.86 113.176 18.6708 112.552 18.6708C112.125 18.6708 111.743 18.7614 111.405 18.9425C111.071 19.1236 110.807 19.3892 110.614 19.7393C110.425 20.0855 110.33 20.504 110.33 20.995Z" fill="#E8E8E8"/>
</g>
<path d="M122.937 26.0007V13.6371H128.044C128.97 13.6371 129.769 13.8182 130.441 14.1804C131.117 14.5386 131.638 15.0396 132.005 15.6836C132.371 16.3235 132.554 17.0681 132.554 17.9172C132.554 18.7705 132.367 19.517 131.992 20.1569C131.622 20.7928 131.093 21.2859 130.405 21.636C129.717 21.9861 128.9 22.1612 127.954 22.1612H124.803V19.8068H127.398C127.849 19.8068 128.225 19.7283 128.527 19.5714C128.833 19.4144 129.065 19.1951 129.222 18.9133C129.379 18.6276 129.457 18.2956 129.457 17.9172C129.457 17.5349 129.379 17.2049 129.222 16.9272C129.065 16.6455 128.833 16.4281 128.527 16.2752C128.221 16.1223 127.845 16.0458 127.398 16.0458H125.925V26.0007H122.937ZM134.027 26.0007V13.6371H137.015V18.5994H141.887V13.6371H144.869V26.0007H141.887V21.0323H137.015V26.0007H134.027ZM146.744 26.0007V13.6371H151.851C152.777 13.6371 153.576 13.8182 154.248 14.1804C154.924 14.5386 155.445 15.0396 155.811 15.6836C156.177 16.3235 156.361 17.0681 156.361 17.9172C156.361 18.7705 156.173 19.517 155.799 20.1569C155.429 20.7928 154.9 21.2859 154.211 21.636C153.523 21.9861 152.706 22.1612 151.76 22.1612H148.609V19.8068H151.205C151.656 19.8068 152.032 19.7283 152.334 19.5714C152.64 19.4144 152.871 19.1951 153.028 18.9133C153.185 18.6276 153.264 18.2956 153.264 17.9172C153.264 17.5349 153.185 17.2049 153.028 16.9272C152.871 16.6455 152.64 16.4281 152.334 16.2752C152.028 16.1223 151.652 16.0458 151.205 16.0458H149.732V26.0007H146.744Z" fill="#777BB3"/>
</g>
<defs>
<filter id="filter0_d_1_56" x="2.39972" y="0.39972" width="39.202" height="39.202" filterUnits="userSpaceOnUse" color-interpolation-filters="sRGB">
<feFlood flood-opacity="0" result="BackgroundImageFix"/>
<feColorMatrix in="SourceAlpha" type="matrix" values="0 0 0 0 0 0 0 0 0 0 0 0 0 0 0 0 0 0 127 0" result="hardAlpha"/>
<feOffset/>
<feGaussianBlur stdDeviation="2.80014"/>
<feComposite in2="hardAlpha" operator="out"/>
<feColorMatrix type="matrix" values="0 0 0 0 0 0 0 0 0 0 0 0 0 0 0 0 0 0 0.25 0"/>
<feBlend mode="normal" in2="BackgroundImageFix" result="effect1_dropShadow_1_56"/>
<feBlend mode="normal" in="SourceGraphic" in2="effect1_dropShadow_1_56" result="shape"/>
</filter>
<filter id="filter1_d_1_56" x="36.2871" y="3.78642" width="126.429" height="32.4286" filterUnits="userSpaceOnUse" color-interpolation-filters="sRGB">
<feFlood flood-opacity="0" result="BackgroundImageFix"/>
<feColorMatrix in="SourceAlpha" type="matrix" values="0 0 0 0 0 0 0 0 0 0 0 0 0 0 0 0 0 0 127 0" result="hardAlpha"/>
<feOffset/>
<feGaussianBlur stdDeviation="2.85714"/>
<feComposite in2="hardAlpha" operator="out"/>
<feColorMatrix type="matrix" values="0 0 0 0 0 0 0 0 0 0 0 0 0 0 0 0 0 0 0.25 0"/>
<feBlend mode="normal" in2="BackgroundImageFix" result="effect1_dropShadow_1_56"/>
<feBlend mode="normal" in="SourceGraphic" in2="effect1_dropShadow_1_56" result="shape"/>
</filter>
<filter id="filter2_d_1_56" x="39.3597" y="13.642" width="80.9835" height="20.9915" filterUnits="userSpaceOnUse" color-interpolation-filters="sRGB">
<feFlood flood-opacity="0" result="BackgroundImageFix"/>
<feColorMatrix in="SourceAlpha" type="matrix" values="0 0 0 0 0 0 0 0 0 0 0 0 0 0 0 0 0 0 127 0" result="hardAlpha"/>
<feOffset dy="4"/>
<feGaussianBlur stdDeviation="2"/>
<feComposite in2="hardAlpha" operator="out"/>
<feColorMatrix type="matrix" values="0 0 0 0 0 0 0 0 0 0 0 0 0 0 0 0 0 0 0.25 0"/>
<feBlend mode="normal" in2="BackgroundImageFix" result="effect1_dropShadow_1_56"/>
<feBlend mode="normal" in="SourceGraphic" in2="effect1_dropShadow_1_56" result="shape"/>
</filter>
<linearGradient id="paint0_linear_1_56" x1="82.5007" y1="0" x2="82.5007" y2="40.0014" gradientUnits="userSpaceOnUse">
<stop stop-color="#4B4F86"/>
<stop offset="0.9999" stop-color="#323560"/>
<stop offset="1" stop-color="#323560"/>
</linearGradient>
<radialGradient id="paint1_radial_1_56" cx="0" cy="0" r="1" gradientUnits="userSpaceOnUse" gradientTransform="translate(16.7362 15.4545) scale(17.867 17.8569)">
<stop stop-color="#AEB2D5"/>
<stop offset="0.3" stop-color="#AEB2D5"/>
<stop offset="0.75" stop-color="#484C89"/>
<stop offset="1" stop-color="#484C89"/>
</radialGradient>
</defs>
</svg>
