<svg width="40" height="40" viewBox="0 0 40 40" fill="none" xmlns="http://www.w3.org/2000/svg">
<rect width="40" height="40" rx="8" fill="url(#paint0_linear_1_68)"/>
<rect x="1.05" y="1.05" width="37.9" height="37.9" rx="6.95" stroke="white" stroke-opacity="0.15" stroke-width="2.1"/>
<g filter="url(#filter0_d_1_68)">
<mask id="mask0_1_68" style="mask-type:luminance" maskUnits="userSpaceOnUse" x="6" y="12" width="28" height="16">
<path d="M6.56693 20.0929C6.56693 24.0436 12.6588 27.2463 20.1732 27.2463C27.6876 27.2463 33.7795 24.0436 33.7795 20.0929C33.7795 16.1423 27.6876 12.9395 20.1732 12.9395C12.6588 12.9395 6.56693 16.1423 6.56693 20.0929Z" fill="white"/>
</mask>
<g mask="url(#mask0_1_68)">
<path d="M6.56693 20.0929C6.56693 24.0436 12.6588 27.2463 20.1732 27.2463C27.6876 27.2463 33.7795 24.0436 33.7795 20.0929C33.7795 16.1423 27.6876 12.9395 20.1732 12.9395C12.6588 12.9395 6.56693 16.1423 6.56693 20.0929Z" fill="url(#paint1_radial_1_68)"/>
</g>
<mask id="mask1_1_68" style="mask-type:luminance" maskUnits="userSpaceOnUse" x="6" y="12" width="29" height="17">
<path d="M6 12.125H34.3464V28.0609H6V12.125Z" fill="white"/>
</mask>
<g mask="url(#mask1_1_68)">
<path d="M20.1732 26.7152C27.3941 26.7152 33.248 23.7503 33.248 20.0929C33.248 16.4356 27.3941 13.4706 20.1732 13.4706C12.9523 13.4706 7.09842 16.4356 7.09842 20.0929C7.09842 23.7503 12.9523 26.7152 20.1732 26.7152Z" fill="#777BB3"/>
</g>
<mask id="mask2_1_68" style="mask-type:luminance" maskUnits="userSpaceOnUse" x="6" y="12" width="29" height="17">
<path d="M6 12.125H34.3464V28.0609H6V12.125Z" fill="white"/>
</mask>
<g mask="url(#mask2_1_68)">
<path d="M13.9594 20.914C14.5531 20.914 14.9964 20.8046 15.2768 20.5888C15.5543 20.3753 15.7459 20.0054 15.8464 19.4894C15.94 19.0071 15.9043 18.6703 15.7404 18.4886C15.5727 18.303 15.2102 18.2088 14.6629 18.2088H13.7141L13.188 20.914H13.9594ZM10.8559 24.2463C10.8118 24.2463 10.77 24.2266 10.742 24.1926C10.7139 24.1586 10.7026 24.1138 10.711 24.0706L12.1051 16.9019C12.1186 16.8326 12.1793 16.7825 12.25 16.7825H15.2546C16.1989 16.7825 16.9018 17.0387 17.3436 17.5442C17.7877 18.0523 17.9249 18.7626 17.7512 19.6553C17.6805 20.0189 17.559 20.3567 17.3899 20.6591C17.2207 20.9618 16.997 21.2419 16.725 21.4918C16.3994 21.7963 16.0309 22.0172 15.6307 22.1471C15.2369 22.2753 14.7311 22.3404 14.1274 22.3404H12.9107L12.5633 24.1269C12.5498 24.1962 12.4891 24.2463 12.4184 24.2463H10.8559Z" fill="black"/>
<path d="M13.8358 18.3564H14.663C15.3234 18.3564 15.5529 18.5012 15.6308 18.5875C15.7602 18.7309 15.7846 19.0331 15.7014 19.4614C15.608 19.941 15.4349 20.281 15.1868 20.4719C14.9327 20.6674 14.5197 20.7664 13.9594 20.7664H13.3671L13.8358 18.3564ZM15.2546 16.6349H12.25C12.1086 16.6349 11.9871 16.735 11.9602 16.8737L10.5661 24.0424C10.5492 24.129 10.572 24.2184 10.628 24.2864C10.6841 24.3545 10.7677 24.3938 10.8559 24.3938H12.4184C12.5598 24.3938 12.6813 24.2937 12.7082 24.155L13.0324 22.4879H14.1274C14.7466 22.4879 15.2678 22.4204 15.6765 22.2874C16.0969 22.1509 16.4836 21.9195 16.8258 21.5996C17.1089 21.3393 17.3421 21.0471 17.5188 20.7311C17.6955 20.415 17.8224 20.0625 17.8961 19.6834C18.0789 18.7438 17.9304 17.9913 17.4547 17.4471C16.9837 16.9082 16.2434 16.6349 15.2546 16.6349ZM13.0089 21.0615H13.9594C14.5893 21.0615 15.0586 20.943 15.3669 20.7057C15.6753 20.4685 15.8832 20.0725 15.9913 19.5176C16.0947 18.9848 16.0476 18.6088 15.85 18.3898C15.6522 18.1708 15.2566 18.0613 14.663 18.0613H13.5924L13.0089 21.0615ZM15.2546 16.93C16.1585 16.93 16.8179 17.1671 17.2324 17.6413C17.6468 18.1155 17.7716 18.7773 17.6063 19.6271C17.5382 19.9772 17.4231 20.2972 17.261 20.5872C17.0988 20.8773 16.8869 21.1426 16.6251 21.3832C16.3131 21.675 15.9665 21.8829 15.5851 22.0068C15.2037 22.131 14.7179 22.1928 14.1274 22.1928H12.789L12.4184 24.0987H10.8559L12.25 16.93H15.2546Z" fill="white"/>
<path d="M21.3338 22.3404C21.2897 22.3404 21.2479 22.3207 21.2199 22.2867C21.1918 22.2527 21.1804 22.208 21.1889 22.1647L21.8055 18.9928C21.8642 18.6911 21.8497 18.4746 21.7648 18.3832C21.7129 18.3272 21.5568 18.2334 21.0952 18.2334H19.978L19.2026 22.2209C19.1891 22.2903 19.1284 22.3404 19.0577 22.3404H17.5075C17.4634 22.3404 17.4216 22.3207 17.3936 22.2867C17.3655 22.2527 17.3542 22.2079 17.3626 22.1647L18.7567 14.9959C18.7702 14.9266 18.8309 14.8766 18.9016 14.8766H20.4518C20.4959 14.8766 20.5377 14.8962 20.5657 14.9302C20.5938 14.9643 20.6051 15.009 20.5967 15.0523L20.2603 16.7825H21.4622C22.3778 16.7825 22.9986 16.9438 23.3603 17.2757C23.7289 17.6143 23.8439 18.1557 23.7021 18.885L23.0535 22.2209C23.04 22.2903 22.9793 22.3404 22.9086 22.3404H21.3338Z" fill="black"/>
<path d="M20.4518 14.729H18.9016C18.7602 14.729 18.6387 14.8291 18.6117 14.9678L17.2177 22.1365C17.2008 22.223 17.2236 22.3125 17.2797 22.3805C17.3358 22.4486 17.4193 22.4879 17.5075 22.4879H19.0577C19.199 22.4879 19.3206 22.3878 19.3476 22.2491L20.0997 18.381H21.0952C21.556 18.381 21.6527 18.4793 21.6566 18.4836C21.6845 18.5136 21.7213 18.6528 21.6606 18.9646L21.0439 22.1365C21.0271 22.223 21.0498 22.3125 21.1059 22.3805C21.162 22.4486 21.2456 22.4879 21.3338 22.4879H22.9086C23.0499 22.4879 23.1715 22.3878 23.1984 22.2491L23.847 18.9131C23.9992 18.1301 23.869 17.5427 23.4602 17.1671C23.07 16.809 22.4165 16.6349 21.4622 16.6349H20.4393L20.7417 15.0804C20.7584 14.9939 20.7358 14.9044 20.6797 14.8364C20.6236 14.7684 20.54 14.729 20.4518 14.729ZM20.4518 15.0241L20.0812 16.93H21.4622C22.3311 16.93 22.9305 17.0816 23.2604 17.3844C23.5902 17.6874 23.689 18.1783 23.5572 18.8569L22.9086 22.1928H21.3338L21.9505 19.021C22.0206 18.6601 21.9949 18.414 21.873 18.2828C21.7511 18.1516 21.4918 18.0859 21.0952 18.0859H19.8562L19.0577 22.1928H17.5075L18.9016 15.0241H20.4518Z" fill="white"/>
<path d="M26.155 20.914C26.7487 20.914 27.192 20.8046 27.4724 20.5888C27.7499 20.3754 27.9415 20.0055 28.042 19.4894C28.1357 19.0071 28.1 18.6703 27.936 18.4886C27.7683 18.303 27.4058 18.2088 26.8586 18.2088H25.9097L25.3837 20.914H26.155ZM23.0515 24.2463C23.0075 24.2463 22.9657 24.2266 22.9377 24.1926C22.9096 24.1586 22.8982 24.1138 22.9066 24.0706L24.3007 16.9019C24.3142 16.8326 24.375 16.7825 24.4457 16.7825H27.4502C28.3946 16.7825 29.0974 17.0387 29.5392 17.5442C29.9834 18.0523 30.1205 18.7626 29.9468 19.6553C29.8761 20.0189 29.7546 20.3567 29.5855 20.6591C29.4163 20.9618 29.1926 21.2419 28.9206 21.4918C28.595 21.7963 28.2265 22.0172 27.8263 22.1471C27.4325 22.2753 26.9267 22.3404 26.323 22.3404H25.1063L24.759 24.1269C24.7455 24.1962 24.6848 24.2463 24.614 24.2463H23.0515Z" fill="black"/>
<path d="M26.0314 18.3564H26.8586C27.5191 18.3564 27.7485 18.5012 27.8264 18.5875C27.9558 18.7309 27.9802 19.0331 27.8971 19.4614C27.8037 19.941 27.6305 20.281 27.3824 20.4719C27.1284 20.6674 26.7154 20.7664 26.155 20.7664H25.5628L26.0314 18.3564ZM27.4503 16.6349H24.4456C24.3043 16.6349 24.1828 16.735 24.1558 16.8737L22.7617 24.0424C22.7449 24.129 22.7676 24.2184 22.8237 24.2864C22.8798 24.3545 22.9634 24.3938 23.0515 24.3938H24.614C24.7554 24.3938 24.8769 24.2937 24.9039 24.155L25.2281 22.4879H26.323C26.9422 22.4879 27.4635 22.4204 27.8722 22.2874C28.2925 22.1509 28.6793 21.9194 29.0216 21.5995C29.3046 21.3392 29.5377 21.0471 29.7144 20.7311C29.8911 20.415 30.0181 20.0625 30.0917 19.6834C30.2746 18.7437 30.126 17.9913 29.6504 17.4471C29.1793 16.9082 28.4391 16.6349 27.4503 16.6349ZM25.2046 21.0615H26.155C26.785 21.0615 27.2542 20.943 27.5625 20.7057C27.8709 20.4685 28.0789 20.0725 28.1869 19.5176C28.2904 18.9848 28.2433 18.6088 28.0456 18.3898C27.8478 18.1708 27.4522 18.0613 26.8586 18.0613H25.788L25.2046 21.0615ZM27.4503 16.93C28.3541 16.93 29.0135 17.1671 29.428 17.6413C29.8425 18.1155 29.9672 18.7773 29.8019 19.6271C29.7338 19.9772 29.6187 20.2972 29.4567 20.5872C29.2944 20.8773 29.0825 21.1426 28.8207 21.3832C28.5087 21.675 28.1621 21.8829 27.7807 22.0068C27.3993 22.131 26.9136 22.1928 26.323 22.1928H24.9846L24.614 24.0987H23.0515L24.4456 16.93H27.4503Z" fill="white"/>
</g>
</g>
<defs>
<filter id="filter0_d_1_68" x="2" y="2" width="36" height="36" filterUnits="userSpaceOnUse" color-interpolation-filters="sRGB">
<feFlood flood-opacity="0" result="BackgroundImageFix"/>
<feColorMatrix in="SourceAlpha" type="matrix" values="0 0 0 0 0 0 0 0 0 0 0 0 0 0 0 0 0 0 127 0" result="hardAlpha"/>
<feOffset/>
<feGaussianBlur stdDeviation="2"/>
<feComposite in2="hardAlpha" operator="out"/>
<feColorMatrix type="matrix" values="0 0 0 0 0 0 0 0 0 0 0 0 0 0 0 0 0 0 0.25 0"/>
<feBlend mode="normal" in2="BackgroundImageFix" result="effect1_dropShadow_1_68"/>
<feBlend mode="normal" in="SourceGraphic" in2="effect1_dropShadow_1_68" result="shape"/>
</filter>
<linearGradient id="paint0_linear_1_68" x1="20" y1="0" x2="20" y2="40" gradientUnits="userSpaceOnUse">
<stop stop-color="#4B4F86"/>
<stop offset="0.9996" stop-color="#323560"/>
<stop offset="0.9997" stop-color="#1C0049"/>
<stop offset="0.9998" stop-color="#00305B"/>
<stop offset="0.9999" stop-color="#353B7D"/>
<stop offset="1" stop-color="#323560"/>
</linearGradient>
<radialGradient id="paint1_radial_1_68" cx="0" cy="0" r="1" gradientUnits="userSpaceOnUse" gradientTransform="translate(14.7362 15.4545) scale(17.867 17.8569)">
<stop stop-color="#AEB2D5"/>
<stop offset="0.3" stop-color="#AEB2D5"/>
<stop offset="0.75" stop-color="#484C89"/>
<stop offset="1" stop-color="#484C89"/>
</radialGradient>
</defs>
</svg>
