<svg width="56" height="56" viewBox="0 0 56 56" fill="none" xmlns="http://www.w3.org/2000/svg">
<rect width="56" height="56" rx="8.4" fill="url(#paint0_linear_1_62)"/>
<rect x="1.05" y="1.05" width="53.9" height="53.9" rx="7.35" stroke="white" stroke-opacity="0.15" stroke-width="2.1"/>
<g filter="url(#filter0_d_1_62)">
<mask id="mask0_1_62" style="mask-type:luminance" maskUnits="userSpaceOnUse" x="8" y="17" width="40" height="22">
<path d="M8.8099 28.1328C8.8099 33.7766 17.5126 38.3519 28.2474 38.3519C38.9823 38.3519 47.685 33.7766 47.685 28.1328C47.685 22.489 38.9823 17.9136 28.2474 17.9136C17.5126 17.9136 8.8099 22.489 8.8099 28.1328Z" fill="white"/>
</mask>
<g mask="url(#mask0_1_62)">
<path d="M8.8099 28.1328C8.8099 33.7766 17.5126 38.3519 28.2474 38.3519C38.9823 38.3519 47.685 33.7766 47.685 28.1328C47.685 22.489 38.9823 17.9136 28.2474 17.9136C17.5126 17.9136 8.8099 22.489 8.8099 28.1328Z" fill="url(#paint1_radial_1_62)"/>
</g>
<mask id="mask1_1_62" style="mask-type:luminance" maskUnits="userSpaceOnUse" x="8" y="16" width="41" height="24">
<path d="M8 16.75H48.4949V39.5156H8V16.75Z" fill="white"/>
</mask>
<g mask="url(#mask1_1_62)">
<path d="M28.2474 37.5932C38.563 37.5932 46.9257 33.3576 46.9257 28.1328C46.9257 22.908 38.563 18.6723 28.2474 18.6723C17.9319 18.6723 9.56918 22.908 9.56918 28.1328C9.56918 33.3576 17.9319 37.5932 28.2474 37.5932Z" fill="#777BB3"/>
</g>
<mask id="mask2_1_62" style="mask-type:luminance" maskUnits="userSpaceOnUse" x="8" y="16" width="41" height="24">
<path d="M8 16.75H48.4949V39.5156H8V16.75Z" fill="white"/>
</mask>
<g mask="url(#mask2_1_62)">
<path d="M19.3705 29.3057C20.2187 29.3057 20.8519 29.1494 21.2526 28.8412C21.649 28.5362 21.9227 28.0077 22.0662 27.2706C22.2 26.5816 22.149 26.1005 21.9148 25.8409C21.6753 25.5757 21.1574 25.4412 20.3756 25.4412H19.0201L18.2686 29.3057H19.3705ZM14.937 34.0661C14.874 34.0661 14.8143 34.038 14.7743 33.9894C14.7342 33.9408 14.718 33.8769 14.73 33.8151L16.7215 23.5741C16.7408 23.4751 16.8276 23.4035 16.9286 23.4035H21.2209C22.5699 23.4035 23.574 23.7696 24.2051 24.4917C24.8396 25.2176 25.0355 26.2323 24.7874 27.5075C24.6864 28.0271 24.5128 28.5096 24.2713 28.9416C24.0295 29.374 23.71 29.7742 23.3214 30.1311C22.8563 30.5662 22.3299 30.8817 21.7582 31.0673C21.1955 31.2505 20.4729 31.3434 19.6105 31.3434H17.8725L17.3761 33.8955C17.3569 33.9946 17.2701 34.0661 17.1692 34.0661H14.937Z" fill="black"/>
<path d="M19.194 25.652H20.3757C21.3192 25.652 21.647 25.8589 21.7583 25.9822C21.9431 26.1869 21.9779 26.6187 21.8592 27.2306C21.7258 27.9157 21.4784 28.4014 21.124 28.6742C20.7611 28.9534 20.1711 29.0949 19.3705 29.0949H18.5245L19.194 25.652ZM21.2209 23.1927H16.9285C16.7266 23.1927 16.553 23.3358 16.5145 23.5338L14.5229 33.7749C14.4989 33.8985 14.5314 34.0263 14.6115 34.1235C14.6916 34.2207 14.811 34.2769 14.937 34.2769H17.1691C17.3711 34.2769 17.5447 34.1338 17.5832 33.9357L18.0464 31.5541H19.6105C20.4951 31.5541 21.2398 31.4577 21.8236 31.2677C22.4241 31.0727 22.9765 30.7421 23.4655 30.2851C23.8699 29.9133 24.203 29.4959 24.4554 29.0444C24.7078 28.5929 24.8892 28.0893 24.9945 27.5477C25.2556 26.2054 25.0435 25.1305 24.3639 24.3531C23.691 23.5831 22.6335 23.1927 21.2209 23.1927ZM18.0127 29.5165H19.3705C20.2705 29.5165 20.9408 29.3471 21.3813 29.0082C21.8218 28.6692 22.1189 28.1035 22.2733 27.3108C22.421 26.5497 22.3537 26.0126 22.0714 25.6997C21.7888 25.3869 21.2237 25.2304 20.3757 25.2304H18.8463L18.0127 29.5165ZM21.2209 23.6143C22.5122 23.6143 23.4542 23.953 24.0463 24.6304C24.6383 25.3078 24.8166 26.2533 24.5804 27.4673C24.4831 27.9674 24.3187 28.4246 24.0872 28.8388C23.8554 29.2533 23.5527 29.6323 23.1787 29.9759C22.733 30.3928 22.2379 30.6899 21.693 30.8668C21.1481 31.0442 20.4542 31.1326 19.6105 31.1326H17.6986L17.1691 33.8553H14.937L16.9285 23.6143H21.2209Z" fill="white"/>
<path d="M29.9054 31.3434C29.8424 31.3434 29.7827 31.3153 29.7427 31.2667C29.7026 31.2181 29.6863 31.1542 29.6984 31.0924L30.5793 26.5611C30.6631 26.1302 30.6425 25.8209 30.5212 25.6902C30.447 25.6103 30.2239 25.4763 29.5646 25.4763H27.9685L26.8609 31.1728C26.8416 31.2719 26.7548 31.3434 26.6539 31.3434H24.4393C24.3763 31.3434 24.3166 31.3153 24.2765 31.2667C24.2365 31.2181 24.2202 31.1542 24.2323 31.0924L26.2238 20.8513C26.2431 20.7523 26.3299 20.6808 26.4309 20.6808H28.6454C28.7084 20.6808 28.7681 20.7089 28.8082 20.7575C28.8482 20.8061 28.8645 20.87 28.8525 20.9318L28.3719 23.4035H30.0888C31.3968 23.4035 32.2838 23.634 32.8004 24.1082C33.3269 24.5918 33.4912 25.3652 33.2888 26.4071L32.3622 31.1728C32.3429 31.2719 32.2561 31.3434 32.1551 31.3434H29.9054Z" fill="black"/>
<path d="M28.6454 20.47H26.4309C26.2289 20.47 26.0553 20.613 26.0168 20.8111L24.0252 31.0522C24.0012 31.1758 24.0337 31.3036 24.1138 31.4008C24.1939 31.4979 24.3133 31.5541 24.4393 31.5541H26.6539C26.8558 31.5541 27.0294 31.4111 27.068 31.213L28.1424 25.6871H29.5646C30.2228 25.6871 30.361 25.8276 30.3665 25.8337C30.4065 25.8766 30.459 26.0754 30.3723 26.5209L29.4913 31.0522C29.4673 31.1758 29.4998 31.3036 29.5799 31.4008C29.6601 31.4979 29.7794 31.5541 29.9054 31.5541H32.1551C32.357 31.5541 32.5307 31.4111 32.5692 31.213L33.4957 26.4473C33.7132 25.3287 33.5272 24.4895 32.9431 23.953C32.3857 23.4414 31.4521 23.1927 30.0888 23.1927H28.6276L29.0595 20.972C29.0835 20.8484 29.0511 20.7205 28.9709 20.6234C28.8908 20.5263 28.7714 20.47 28.6454 20.47ZM28.6454 20.8916L28.116 23.6143H30.0888C31.3302 23.6143 32.1864 23.8309 32.6577 24.2634C33.1289 24.6962 33.2701 25.3975 33.0817 26.367L32.1551 31.1326H29.9054L30.7864 26.6014C30.8866 26.0859 30.8498 25.7343 30.6757 25.5468C30.5016 25.3594 30.1312 25.2655 29.5646 25.2655H27.7946L26.6539 31.1326H24.4393L26.4309 20.8916H28.6454Z" fill="white"/>
<path d="M36.7928 29.3057C37.641 29.3057 38.2743 29.1494 38.6749 28.8412C39.0713 28.5363 39.345 28.0078 39.4886 27.2706C39.6224 26.5816 39.5714 26.1005 39.3371 25.8409C39.0976 25.5757 38.5797 25.4412 37.7979 25.4412H36.4424L35.6909 29.3057H36.7928ZM32.3593 34.0661C32.2964 34.0661 32.2367 34.038 32.1967 33.9894C32.1566 33.9408 32.1403 33.8769 32.1523 33.8151L34.1438 23.5741C34.1632 23.4751 34.2499 23.4035 34.351 23.4035H38.6432C39.9923 23.4035 40.9963 23.7696 41.6275 24.4917C42.2619 25.2176 42.4578 26.2322 42.2098 27.5075C42.1087 28.0271 41.9351 28.5096 41.6936 28.9416C41.4518 29.374 41.1323 29.7742 40.7437 30.1311C40.2786 30.5662 39.7522 30.8817 39.1805 31.0673C38.6178 31.2505 37.8952 31.3434 37.0328 31.3434H35.2947L34.7986 33.8955C34.7793 33.9946 34.6925 34.0661 34.5915 34.0661H32.3593Z" fill="black"/>
<path d="M36.6163 25.652H37.798C38.7415 25.652 39.0693 25.8589 39.1806 25.9822C39.3655 26.1869 39.4003 26.6187 39.2815 27.2305C39.1481 27.9157 38.9007 28.4014 38.5463 28.6742C38.1834 28.9534 37.5934 29.0949 36.7928 29.0949H35.9469L36.6163 25.652ZM38.6432 23.1927H34.3509C34.149 23.1927 33.9754 23.3358 33.9369 23.5338L31.9453 33.7749C31.9213 33.8985 31.9538 34.0263 32.0338 34.1235C32.114 34.2207 32.2334 34.2769 32.3594 34.2769H34.5915C34.7934 34.2769 34.9671 34.1338 35.0056 33.9357L35.4687 31.5541H37.0329C37.9174 31.5541 38.6621 31.4577 39.2459 31.2677C39.8464 31.0727 40.399 30.742 40.888 30.285C41.2923 29.9132 41.6253 29.4959 41.8777 29.0444C42.1301 28.5929 42.3115 28.0893 42.4168 27.5477C42.678 26.2053 42.4658 25.1304 41.7862 24.353C41.1133 23.5831 40.0558 23.1927 38.6432 23.1927ZM35.4351 29.5165H36.7928C37.6928 29.5165 38.3631 29.3471 38.8036 29.0082C39.2442 28.6692 39.5412 28.1035 39.6956 27.3108C39.8434 26.5497 39.7761 26.0126 39.4938 25.6997C39.2111 25.3869 38.646 25.2304 37.798 25.2304H36.2686L35.4351 29.5165ZM38.6432 23.6143C39.9345 23.6143 40.8765 23.953 41.4686 24.6304C42.0607 25.3078 42.2389 26.2533 42.0027 27.4673C41.9055 27.9674 41.741 28.4246 41.5095 28.8388C41.2777 29.2533 40.9751 29.6323 40.601 29.9759C40.1553 30.3928 39.6602 30.6899 39.1153 30.8668C38.5705 31.0442 37.8765 31.1326 37.0329 31.1326H35.1209L34.5915 33.8553H32.3594L34.3509 23.6143H38.6432Z" fill="white"/>
</g>
</g>
<defs>
<filter id="filter0_d_1_62" x="2.28571" y="2.28571" width="51.4286" height="51.4286" filterUnits="userSpaceOnUse" color-interpolation-filters="sRGB">
<feFlood flood-opacity="0" result="BackgroundImageFix"/>
<feColorMatrix in="SourceAlpha" type="matrix" values="0 0 0 0 0 0 0 0 0 0 0 0 0 0 0 0 0 0 127 0" result="hardAlpha"/>
<feOffset/>
<feGaussianBlur stdDeviation="2.85714"/>
<feComposite in2="hardAlpha" operator="out"/>
<feColorMatrix type="matrix" values="0 0 0 0 0 0 0 0 0 0 0 0 0 0 0 0 0 0 0.25 0"/>
<feBlend mode="normal" in2="BackgroundImageFix" result="effect1_dropShadow_1_62"/>
<feBlend mode="normal" in="SourceGraphic" in2="effect1_dropShadow_1_62" result="shape"/>
</filter>
<linearGradient id="paint0_linear_1_62" x1="28" y1="0" x2="28" y2="56" gradientUnits="userSpaceOnUse">
<stop stop-color="#2F3DFF"/>
<stop stop-color="#5B4000"/>
<stop offset="0.0001" stop-color="#292929"/>
<stop offset="0.0002" stop-color="#5B4000"/>
<stop offset="0.0003" stop-color="#316BA8"/>
<stop offset="0.0004" stop-color="#280065"/>
<stop offset="0.0005" stop-color="#4B4F86"/>
<stop offset="0.0006" stop-color="#4B4F86"/>
<stop offset="0.9996" stop-color="#323560"/>
<stop offset="0.9997" stop-color="#323560"/>
<stop offset="0.9998" stop-color="#1C0049"/>
<stop offset="0.9999" stop-color="#0B3C42"/>
<stop offset="1" stop-color="#323560"/>
</linearGradient>
<radialGradient id="paint1_radial_1_62" cx="0" cy="0" r="1" gradientUnits="userSpaceOnUse" gradientTransform="translate(20.4803 21.5064) scale(25.5243 25.5099)">
<stop stop-color="#AEB2D5"/>
<stop offset="0.3" stop-color="#AEB2D5"/>
<stop offset="0.75" stop-color="#484C89"/>
<stop offset="1" stop-color="#484C89"/>
</radialGradient>
</defs>
</svg>
