<svg width="144" height="56" viewBox="0 0 144 56" fill="none" xmlns="http://www.w3.org/2000/svg">
<rect width="144" height="56" rx="8" fill="url(#paint0_linear_1_50)"/>
<rect x="1.05" y="1.05" width="141.9" height="53.9" rx="6.95" stroke="white" stroke-opacity="0.15" stroke-width="2.1"/>
<g filter="url(#filter0_d_1_50)">
<mask id="mask0_1_50" style="mask-type:luminance" maskUnits="userSpaceOnUse" x="12" y="17" width="40" height="22">
<path d="M12.8099 28.1328C12.8099 33.7766 21.5126 38.3519 32.2474 38.3519C42.9823 38.3519 51.685 33.7766 51.685 28.1328C51.685 22.489 42.9823 17.9136 32.2474 17.9136C21.5126 17.9136 12.8099 22.489 12.8099 28.1328Z" fill="white"/>
</mask>
<g mask="url(#mask0_1_50)">
<path d="M12.8099 28.1328C12.8099 33.7766 21.5126 38.3519 32.2474 38.3519C42.9823 38.3519 51.685 33.7766 51.685 28.1328C51.685 22.489 42.9823 17.9136 32.2474 17.9136C21.5126 17.9136 12.8099 22.489 12.8099 28.1328Z" fill="url(#paint1_radial_1_50)"/>
</g>
<mask id="mask1_1_50" style="mask-type:luminance" maskUnits="userSpaceOnUse" x="12" y="16" width="41" height="24">
<path d="M12 16.75H52.4949V39.5156H12V16.75Z" fill="white"/>
</mask>
<g mask="url(#mask1_1_50)">
<path d="M32.2474 37.5932C42.563 37.5932 50.9257 33.3576 50.9257 28.1328C50.9257 22.908 42.563 18.6723 32.2474 18.6723C21.9319 18.6723 13.5692 22.908 13.5692 28.1328C13.5692 33.3576 21.9319 37.5932 32.2474 37.5932Z" fill="#777BB3"/>
</g>
<mask id="mask2_1_50" style="mask-type:luminance" maskUnits="userSpaceOnUse" x="12" y="16" width="41" height="24">
<path d="M12 16.75H52.4949V39.5156H12V16.75Z" fill="white"/>
</mask>
<g mask="url(#mask2_1_50)">
<path d="M23.3705 29.3057C24.2187 29.3057 24.8519 29.1494 25.2526 28.8412C25.649 28.5362 25.9227 28.0077 26.0662 27.2706C26.2 26.5816 26.149 26.1005 25.9148 25.8409C25.6753 25.5757 25.1574 25.4412 24.3756 25.4412H23.0201L22.2686 29.3057H23.3705ZM18.937 34.0661C18.874 34.0661 18.8143 34.038 18.7743 33.9894C18.7342 33.9408 18.718 33.8769 18.73 33.8151L20.7215 23.5741C20.7408 23.4751 20.8276 23.4035 20.9286 23.4035H25.2209C26.5699 23.4035 27.574 23.7696 28.2051 24.4917C28.8396 25.2176 29.0355 26.2323 28.7874 27.5075C28.6864 28.0271 28.5128 28.5096 28.2713 28.9416C28.0295 29.374 27.71 29.7742 27.3214 30.1311C26.8563 30.5662 26.3299 30.8817 25.7582 31.0673C25.1955 31.2505 24.4729 31.3434 23.6105 31.3434H21.8725L21.3761 33.8955C21.3569 33.9946 21.2701 34.0661 21.1692 34.0661H18.937Z" fill="black"/>
<path d="M23.194 25.652H24.3757C25.3192 25.652 25.647 25.8589 25.7583 25.9822C25.9431 26.1869 25.9779 26.6187 25.8592 27.2306C25.7258 27.9157 25.4784 28.4014 25.124 28.6742C24.7611 28.9534 24.1711 29.0949 23.3705 29.0949H22.5245L23.194 25.652ZM25.2209 23.1927H20.9285C20.7266 23.1927 20.553 23.3358 20.5145 23.5338L18.5229 33.7749C18.4989 33.8985 18.5314 34.0263 18.6115 34.1235C18.6916 34.2207 18.811 34.2769 18.937 34.2769H21.1691C21.3711 34.2769 21.5447 34.1338 21.5832 33.9357L22.0464 31.5541H23.6105C24.4951 31.5541 25.2398 31.4577 25.8236 31.2677C26.4241 31.0727 26.9765 30.7421 27.4655 30.2851C27.8699 29.9133 28.203 29.4959 28.4554 29.0444C28.7078 28.5929 28.8892 28.0893 28.9945 27.5477C29.2556 26.2054 29.0435 25.1305 28.3639 24.3531C27.691 23.5831 26.6335 23.1927 25.2209 23.1927ZM22.0127 29.5165H23.3705C24.2705 29.5165 24.9408 29.3471 25.3813 29.0082C25.8218 28.6692 26.1189 28.1035 26.2733 27.3108C26.421 26.5497 26.3537 26.0126 26.0714 25.6997C25.7888 25.3869 25.2237 25.2304 24.3757 25.2304H22.8463L22.0127 29.5165ZM25.2209 23.6143C26.5122 23.6143 27.4542 23.953 28.0463 24.6304C28.6383 25.3078 28.8166 26.2533 28.5804 27.4673C28.4831 27.9674 28.3187 28.4246 28.0872 28.8388C27.8554 29.2533 27.5527 29.6323 27.1787 29.9759C26.733 30.3928 26.2379 30.6899 25.693 30.8668C25.1481 31.0442 24.4542 31.1326 23.6105 31.1326H21.6986L21.1691 33.8553H18.937L20.9285 23.6143H25.2209Z" fill="white"/>
<path d="M33.9054 31.3434C33.8424 31.3434 33.7827 31.3153 33.7427 31.2667C33.7026 31.2181 33.6863 31.1542 33.6984 31.0924L34.5793 26.5611C34.6631 26.1302 34.6425 25.8209 34.5212 25.6902C34.447 25.6103 34.224 25.4763 33.5646 25.4763H31.9685L30.8609 31.1728C30.8416 31.2719 30.7548 31.3434 30.6539 31.3434H28.4393C28.3763 31.3434 28.3166 31.3153 28.2765 31.2667C28.2365 31.2181 28.2202 31.1542 28.2323 31.0924L30.2238 20.8513C30.2431 20.7523 30.3299 20.6808 30.4309 20.6808H32.6454C32.7084 20.6808 32.7681 20.7089 32.8082 20.7575C32.8483 20.8061 32.8645 20.87 32.8525 20.9318L32.3719 23.4035H34.0888C35.3968 23.4035 36.2838 23.634 36.8004 24.1082C37.3269 24.5918 37.4912 25.3652 37.2888 26.4071L36.3622 31.1728C36.3429 31.2719 36.2561 31.3434 36.1551 31.3434H33.9054Z" fill="black"/>
<path d="M32.6454 20.47H30.4309C30.2289 20.47 30.0553 20.613 30.0168 20.8111L28.0252 31.0522C28.0012 31.1758 28.0337 31.3036 28.1138 31.4008C28.1939 31.4979 28.3133 31.5541 28.4393 31.5541H30.6539C30.8558 31.5541 31.0294 31.4111 31.068 31.213L32.1424 25.6871H33.5646C34.2228 25.6871 34.361 25.8276 34.3665 25.8337C34.4065 25.8766 34.459 26.0754 34.3723 26.5209L33.4913 31.0522C33.4673 31.1758 33.4998 31.3036 33.5799 31.4008C33.66 31.4979 33.7794 31.5541 33.9054 31.5541H36.1551C36.357 31.5541 36.5307 31.4111 36.5692 31.213L37.4957 26.4473C37.7132 25.3287 37.5272 24.4895 36.9431 23.953C36.3857 23.4414 35.4521 23.1927 34.0888 23.1927H32.6276L33.0595 20.972C33.0835 20.8484 33.0511 20.7205 32.9709 20.6234C32.8908 20.5263 32.7714 20.47 32.6454 20.47ZM32.6454 20.8916L32.116 23.6143H34.0888C35.3302 23.6143 36.1864 23.8309 36.6577 24.2634C37.1289 24.6962 37.2701 25.3975 37.0817 26.367L36.1551 31.1326H33.9054L34.7864 26.6014C34.8866 26.0859 34.8498 25.7343 34.6757 25.5468C34.5016 25.3594 34.1312 25.2655 33.5646 25.2655H31.7946L30.6539 31.1326H28.4393L30.4309 20.8916H32.6454Z" fill="white"/>
<path d="M40.7928 29.3057C41.641 29.3057 42.2743 29.1494 42.6749 28.8412C43.0713 28.5363 43.3451 28.0078 43.4886 27.2706C43.6224 26.5816 43.5714 26.1005 43.3371 25.8409C43.0976 25.5757 42.5797 25.4412 41.798 25.4412H40.4424L39.691 29.3057H40.7928ZM36.3593 34.0661C36.2964 34.0661 36.2367 34.038 36.1967 33.9894C36.1566 33.9408 36.1403 33.8769 36.1523 33.8151L38.1439 23.5741C38.1632 23.4751 38.2499 23.4035 38.351 23.4035H42.6432C43.9923 23.4035 44.9963 23.7696 45.6275 24.4917C46.2619 25.2176 46.4578 26.2322 46.2098 27.5075C46.1087 28.0271 45.9351 28.5096 45.6936 28.9416C45.4518 29.374 45.1323 29.7742 44.7437 30.1311C44.2786 30.5662 43.7522 30.8817 43.1805 31.0673C42.6178 31.2505 41.8953 31.3434 41.0328 31.3434H39.2947L38.7986 33.8955C38.7793 33.9946 38.6925 34.0661 38.5915 34.0661H36.3593Z" fill="black"/>
<path d="M40.6163 25.652H41.798C42.7415 25.652 43.0693 25.8589 43.1806 25.9822C43.3655 26.1869 43.4003 26.6187 43.2815 27.2305C43.1481 27.9157 42.9007 28.4014 42.5463 28.6742C42.1834 28.9534 41.5934 29.0949 40.7928 29.0949H39.9469L40.6163 25.652ZM42.6432 23.1927H38.3509C38.149 23.1927 37.9754 23.3358 37.9369 23.5338L35.9453 33.7749C35.9213 33.8985 35.9538 34.0263 36.0338 34.1235C36.114 34.2207 36.2334 34.2769 36.3594 34.2769H38.5915C38.7934 34.2769 38.9671 34.1338 39.0056 33.9357L39.4687 31.5541H41.0329C41.9174 31.5541 42.6621 31.4577 43.2459 31.2677C43.8464 31.0727 44.399 30.742 44.888 30.285C45.2923 29.9132 45.6253 29.4959 45.8777 29.0444C46.1301 28.5929 46.3115 28.0893 46.4168 27.5477C46.6779 26.2053 46.4658 25.1304 45.7862 24.353C45.1133 23.5831 44.0558 23.1927 42.6432 23.1927ZM39.4351 29.5165H40.7928C41.6928 29.5165 42.3631 29.3471 42.8036 29.0082C43.2442 28.6692 43.5412 28.1035 43.6956 27.3108C43.8434 26.5497 43.7761 26.0126 43.4938 25.6997C43.2111 25.3869 42.646 25.2304 41.798 25.2304H40.2686L39.4351 29.5165ZM42.6432 23.6143C43.9345 23.6143 44.8765 23.953 45.4686 24.6304C46.0607 25.3078 46.2389 26.2533 46.0027 27.4673C45.9055 27.9674 45.741 28.4246 45.5095 28.8388C45.2777 29.2533 44.9751 29.6323 44.601 29.9759C44.1553 30.3928 43.6602 30.6899 43.1153 30.8668C42.5705 31.0442 41.8765 31.1326 41.0329 31.1326H39.1209L38.5915 33.8553H36.3594L38.3509 23.6143H42.6432Z" fill="white"/>
</g>
</g>
<g filter="url(#filter1_d_1_50)">
<path d="M61.2784 24.5V12.8636H65.5398C66.3655 12.8636 67.0492 13 67.5909 13.2727C68.1326 13.5417 68.5379 13.9072 68.8068 14.3693C69.0757 14.8276 69.2102 15.3447 69.2102 15.9204C69.2102 16.4053 69.1212 16.8144 68.9432 17.1477C68.7651 17.4773 68.5265 17.7424 68.2273 17.9432C67.9318 18.1401 67.606 18.2841 67.25 18.375V18.4886C67.6363 18.5076 68.0132 18.6326 68.3807 18.8636C68.7519 19.0909 69.0587 19.4148 69.3011 19.8352C69.5435 20.2557 69.6648 20.767 69.6648 21.3693C69.6648 21.964 69.5246 22.4981 69.2443 22.9716C68.9678 23.4413 68.5398 23.8144 67.9602 24.0909C67.3807 24.3636 66.6401 24.5 65.7386 24.5H61.2784ZM63.0341 22.9943H65.5682C66.4091 22.9943 67.0113 22.8314 67.375 22.5057C67.7386 22.1799 67.9204 21.7727 67.9204 21.2841C67.9204 20.9167 67.8276 20.5795 67.642 20.2727C67.4564 19.9659 67.1913 19.7216 66.8466 19.5398C66.5057 19.3579 66.1004 19.267 65.6307 19.267H63.0341V22.9943ZM63.0341 17.8977H65.3863C65.7803 17.8977 66.1345 17.822 66.4488 17.6704C66.767 17.5189 67.0189 17.3068 67.2045 17.0341C67.3939 16.7576 67.4886 16.4318 67.4886 16.0568C67.4886 15.5758 67.3201 15.1723 66.9829 14.8466C66.6458 14.5208 66.1288 14.3579 65.4318 14.3579H63.0341V17.8977ZM77.1392 20.8807V15.7727H78.8437V24.5H77.1733V22.9886H77.0824C76.8816 23.4545 76.5596 23.8428 76.1165 24.1534C75.6771 24.4602 75.1297 24.6136 74.4744 24.6136C73.9138 24.6136 73.4176 24.4905 72.9858 24.2443C72.5577 23.9943 72.2206 23.625 71.9744 23.1364C71.732 22.6477 71.6108 22.0436 71.6108 21.3239V15.7727H73.3096V21.1193C73.3096 21.714 73.4744 22.1875 73.804 22.5398C74.1335 22.892 74.5615 23.0682 75.088 23.0682C75.4062 23.0682 75.7225 22.9886 76.0369 22.8295C76.3551 22.6704 76.6184 22.4299 76.8267 22.1079C77.0388 21.786 77.143 21.3769 77.1392 20.8807ZM81.1264 24.5V15.7727H82.8253V24.5H81.1264ZM81.9844 14.4261C81.6889 14.4261 81.4351 14.3276 81.223 14.1307C81.0147 13.9299 80.9105 13.6913 80.9105 13.4148C80.9105 13.1345 81.0147 12.8958 81.223 12.6989C81.4351 12.4981 81.6889 12.3977 81.9844 12.3977C82.2798 12.3977 82.5317 12.4981 82.74 12.6989C82.9522 12.8958 83.0582 13.1345 83.0582 13.4148C83.0582 13.6913 82.9522 13.9299 82.74 14.1307C82.5317 14.3276 82.2798 14.4261 81.9844 14.4261ZM86.8096 12.8636V24.5H85.1108V12.8636H86.8096ZM93.169 15.7727V17.1364H88.402V15.7727H93.169ZM89.6804 13.6818H91.3792V21.9375C91.3792 22.267 91.4285 22.5151 91.527 22.6818C91.6254 22.8447 91.7523 22.9564 91.9076 23.017C92.0667 23.0739 92.2391 23.1023 92.4247 23.1023C92.5611 23.1023 92.6804 23.0928 92.7826 23.0739C92.8849 23.0549 92.9645 23.0398 93.0213 23.0284L93.3281 24.4318C93.2296 24.4697 93.0895 24.5076 92.9076 24.5454C92.7258 24.5871 92.4986 24.6098 92.2258 24.6136C91.7789 24.6212 91.3622 24.5417 90.9758 24.375C90.5895 24.2083 90.277 23.9508 90.0383 23.6023C89.7997 23.2538 89.6804 22.8163 89.6804 22.2898V13.6818ZM101.175 24.5L98.6065 15.7727H100.362L102.072 22.1818H102.158L103.874 15.7727H105.629L107.334 22.1534H107.419L109.118 15.7727H110.874L108.311 24.5H106.578L104.805 18.1989H104.675L102.902 24.5H101.175ZM112.486 24.5V15.7727H114.185V24.5H112.486ZM113.344 14.4261C113.048 14.4261 112.794 14.3276 112.582 14.1307C112.374 13.9299 112.27 13.6913 112.27 13.4148C112.27 13.1345 112.374 12.8958 112.582 12.6989C112.794 12.4981 113.048 12.3977 113.344 12.3977C113.639 12.3977 113.891 12.4981 114.099 12.6989C114.312 12.8958 114.418 13.1345 114.418 13.4148C114.418 13.6913 114.312 13.9299 114.099 14.1307C113.891 14.3276 113.639 14.4261 113.344 14.4261ZM120.544 15.7727V17.1364H115.777V15.7727H120.544ZM117.055 13.6818H118.754V21.9375C118.754 22.267 118.803 22.5151 118.902 22.6818C119 22.8447 119.127 22.9564 119.283 23.017C119.442 23.0739 119.614 23.1023 119.8 23.1023C119.936 23.1023 120.055 23.0928 120.158 23.0739C120.26 23.0549 120.339 23.0398 120.396 23.0284L120.703 24.4318C120.605 24.4697 120.464 24.5076 120.283 24.5454C120.101 24.5871 119.874 24.6098 119.601 24.6136C119.154 24.6212 118.737 24.5417 118.351 24.375C117.964 24.2083 117.652 23.9508 117.413 23.6023C117.175 23.2538 117.055 22.8163 117.055 22.2898V13.6818ZM124.31 19.3182V24.5H122.611V12.8636H124.287V17.1932H124.395C124.599 16.7235 124.912 16.3504 125.332 16.0739C125.753 15.7973 126.302 15.6591 126.98 15.6591C127.579 15.6591 128.101 15.7822 128.548 16.0284C128.999 16.2746 129.348 16.642 129.594 17.1307C129.844 17.6155 129.969 18.2216 129.969 18.9489V24.5H128.27V19.1534C128.27 18.5133 128.105 18.017 127.776 17.6648C127.446 17.3087 126.988 17.1307 126.401 17.1307C125.999 17.1307 125.639 17.2159 125.321 17.3864C125.007 17.5568 124.758 17.8068 124.577 18.1364C124.399 18.4621 124.31 18.8561 124.31 19.3182Z" fill="#E8E8E8"/>
<path d="M60.9357 43.5V31.1364H66.043C66.9686 31.1364 67.7675 31.3175 68.4396 31.6797C69.1157 32.0379 69.6369 32.5389 70.0032 33.1829C70.3694 33.8228 70.5525 34.5673 70.5525 35.4165C70.5525 36.2698 70.3654 37.0163 69.9911 37.6562C69.6208 38.2921 69.0916 38.7851 68.4034 39.1353C67.7152 39.4854 66.8982 39.6605 65.9524 39.6605H62.8011V37.3061H65.397C65.8478 37.3061 66.2241 37.2276 66.5259 37.0707C66.8318 36.9137 67.0632 36.6944 67.2202 36.4126C67.3771 36.1269 67.4556 35.7949 67.4556 35.4165C67.4556 35.0342 67.3771 34.7042 67.2202 34.4265C67.0632 34.1448 66.8318 33.9274 66.5259 33.7745C66.22 33.6216 65.8437 33.5451 65.397 33.5451H63.924V43.5H60.9357ZM72.0255 43.5V31.1364H75.0138V36.0987H79.8856V31.1364H82.8679V43.5H79.8856V38.5316H75.0138V43.5H72.0255ZM84.7423 43.5V31.1364H89.8496C90.7752 31.1364 91.5741 31.3175 92.2462 31.6797C92.9224 32.0379 93.4436 32.5389 93.8098 33.1829C94.1761 33.8228 94.3592 34.5673 94.3592 35.4165C94.3592 36.2698 94.172 37.0163 93.7977 37.6562C93.4275 38.2921 92.8982 38.7851 92.21 39.1353C91.5218 39.4854 90.7048 39.6605 89.759 39.6605H86.6078V37.3061H89.2036C89.6544 37.3061 90.0307 37.2276 90.3325 37.0707C90.6384 36.9137 90.8698 36.6944 91.0268 36.4126C91.1837 36.1269 91.2622 35.7949 91.2622 35.4165C91.2622 35.0342 91.1837 34.7042 91.0268 34.4265C90.8698 34.1448 90.6384 33.9274 90.3325 33.7745C90.0267 33.6216 89.6504 33.5451 89.2036 33.5451H87.7306V43.5H84.7423Z" fill="#777BB3"/>
</g>
<defs>
<filter id="filter0_d_1_50" x="6.28571" y="2.28571" width="51.4286" height="51.4286" filterUnits="userSpaceOnUse" color-interpolation-filters="sRGB">
<feFlood flood-opacity="0" result="BackgroundImageFix"/>
<feColorMatrix in="SourceAlpha" type="matrix" values="0 0 0 0 0 0 0 0 0 0 0 0 0 0 0 0 0 0 127 0" result="hardAlpha"/>
<feOffset/>
<feGaussianBlur stdDeviation="2.85714"/>
<feComposite in2="hardAlpha" operator="out"/>
<feColorMatrix type="matrix" values="0 0 0 0 0 0 0 0 0 0 0 0 0 0 0 0 0 0 0.25 0"/>
<feBlend mode="normal" in2="BackgroundImageFix" result="effect1_dropShadow_1_50"/>
<feBlend mode="normal" in="SourceGraphic" in2="effect1_dropShadow_1_50" result="shape"/>
</filter>
<filter id="filter1_d_1_50" x="54.4" y="3.9" width="83.2" height="48.2" filterUnits="userSpaceOnUse" color-interpolation-filters="sRGB">
<feFlood flood-opacity="0" result="BackgroundImageFix"/>
<feColorMatrix in="SourceAlpha" type="matrix" values="0 0 0 0 0 0 0 0 0 0 0 0 0 0 0 0 0 0 127 0" result="hardAlpha"/>
<feOffset/>
<feGaussianBlur stdDeviation="2.8"/>
<feComposite in2="hardAlpha" operator="out"/>
<feColorMatrix type="matrix" values="0 0 0 0 0 0 0 0 0 0 0 0 0 0 0 0 0 0 0.25 0"/>
<feBlend mode="normal" in2="BackgroundImageFix" result="effect1_dropShadow_1_50"/>
<feBlend mode="normal" in="SourceGraphic" in2="effect1_dropShadow_1_50" result="shape"/>
</filter>
<linearGradient id="paint0_linear_1_50" x1="72" y1="0" x2="72" y2="56" gradientUnits="userSpaceOnUse">
<stop stop-color="#4B4F86"/>
<stop offset="0.0001" stop-color="#280065"/>
<stop offset="0.0002" stop-color="#4B4F86"/>
<stop offset="0.9999" stop-color="#282A4B"/>
<stop offset="1" stop-color="#1C0049"/>
<stop offset="1" stop-color="#323560"/>
</linearGradient>
<radialGradient id="paint1_radial_1_50" cx="0" cy="0" r="1" gradientUnits="userSpaceOnUse" gradientTransform="translate(24.4803 21.5064) scale(25.5243 25.5099)">
<stop stop-color="#AEB2D5"/>
<stop offset="0.3" stop-color="#AEB2D5"/>
<stop offset="0.75" stop-color="#484C89"/>
<stop offset="1" stop-color="#484C89"/>
</radialGradient>
</defs>
</svg>
