<svg width="332" height="40" viewBox="0 0 332 40" fill="none" xmlns="http://www.w3.org/2000/svg">
<rect width="332.001" height="40.0014" rx="8" fill="url(#paint0_linear_1_56)"/>
<rect x="1.07143" y="1.07143" width="329.858" height="37.8585" rx="6.92857" stroke="white" stroke-opacity="0.15" stroke-width="2.14286"/>
<g filter="url(#filter0_d_1_56)">
<g clip-path="url(#clip0_1_56)">
<path fill-rule="evenodd" clip-rule="evenodd" d="M21.9974 5.99738C20.7505 9.05331 19.9989 11.0523 18.6111 14.0176C19.4621 14.9198 20.5064 15.9698 22.1986 17.1563C20.3751 16.4059 19.1361 15.6526 18.2016 14.8708C16.4254 18.5764 13.6429 23.8561 7.99606 34.0026C12.4384 31.4406 15.875 29.8613 19.0854 29.2575C18.9476 28.6651 18.8692 28.0246 18.8754 27.3566L18.8806 27.2144C18.9506 24.3706 20.4302 22.184 22.1824 22.3328C23.9346 22.4815 25.2966 24.9079 25.2261 27.7516C25.2155 28.2653 25.1555 28.7767 25.0472 29.2789C28.2191 29.8993 31.6228 31.4752 36.0009 34.0026L33.6296 29.6162C32.4702 28.7181 31.2614 27.5486 28.7952 26.2825C30.4906 26.7231 31.7046 27.231 32.6452 27.7993C25.164 13.8693 24.5576 12.0187 21.9921 5.99738H21.9974Z" fill="#1793D1"/>
</g>
</g>
<g filter="url(#filter1_d_1_56)">
<path d="M44.4041 26.5007H42.424L46.8732 14.1371H49.0284L53.4776 26.5007H51.4975L48.0021 16.3828H47.9055L44.4041 26.5007ZM44.7361 21.6591H51.1594V23.2287H44.7361V21.6591ZM61.8886 17.228L58.526 26.5007H56.5942L53.2256 17.228H55.1634L57.5118 24.3636H57.6084L59.9507 17.228H61.8886ZM66.0178 26.706C65.4302 26.706 64.899 26.5973 64.4241 26.38C63.9492 26.1586 63.5729 25.8386 63.2952 25.4201C63.0215 25.0015 62.8846 24.4884 62.8846 23.8807C62.8846 23.3575 62.9853 22.9268 63.1865 22.5888C63.3877 22.2507 63.6594 21.9831 64.0015 21.7859C64.3436 21.5886 64.7259 21.4397 65.1485 21.3391C65.5711 21.2385 66.0017 21.162 66.4404 21.1097C66.9958 21.0453 67.4466 20.993 67.7927 20.9528C68.1388 20.9085 68.3903 20.8381 68.5473 20.7415C68.7042 20.6449 68.7827 20.4879 68.7827 20.2706V20.2283C68.7827 19.7011 68.6338 19.2926 68.336 19.0028C68.0422 18.7131 67.6035 18.5682 67.0199 18.5682C66.4122 18.5682 65.9333 18.703 65.5832 18.9726C65.237 19.2383 64.9976 19.5341 64.8648 19.8601L63.1684 19.4737C63.3696 18.9103 63.6634 18.4555 64.0498 18.1094C64.4402 17.7592 64.8889 17.5057 65.396 17.3487C65.9031 17.1877 66.4364 17.1072 66.9958 17.1072C67.3661 17.1072 67.7585 17.1515 68.173 17.24C68.5916 17.3246 68.9819 17.4815 69.3442 17.7109C69.7104 17.9403 70.0102 18.2683 70.2437 18.6949C70.4771 19.1175 70.5938 19.6669 70.5938 20.343V26.5007H68.831V25.2329H68.7586C68.6419 25.4664 68.4668 25.6958 68.2334 25.9212C67.9999 26.1465 67.7001 26.3337 67.3339 26.4826C66.9676 26.6315 66.5289 26.706 66.0178 26.706ZM66.4102 25.2571C66.9093 25.2571 67.3359 25.1585 67.69 24.9613C68.0482 24.7641 68.3199 24.5065 68.505 24.1886C68.6942 23.8666 68.7888 23.5225 68.7888 23.1562V21.9609C68.7244 22.0253 68.5996 22.0857 68.4145 22.142C68.2334 22.1944 68.0261 22.2406 67.7927 22.2809C67.5592 22.3171 67.3319 22.3513 67.1105 22.3835C66.8891 22.4117 66.704 22.4358 66.5551 22.456C66.205 22.5002 65.885 22.5747 65.5952 22.6793C65.3095 22.784 65.0801 22.9349 64.907 23.1321C64.738 23.3253 64.6535 23.5828 64.6535 23.9048C64.6535 24.3515 64.8185 24.6896 65.1485 24.919C65.4785 25.1444 65.8991 25.2571 66.4102 25.2571ZM72.998 26.5007V17.228H74.8031V26.5007H72.998ZM73.9096 15.7972C73.5957 15.7972 73.326 15.6926 73.1006 15.4833C72.8793 15.27 72.7686 15.0164 72.7686 14.7226C72.7686 14.4248 72.8793 14.1713 73.1006 13.962C73.326 13.7487 73.5957 13.642 73.9096 13.642C74.2235 13.642 74.4911 13.7487 74.7125 13.962C74.9379 14.1713 75.0506 14.4248 75.0506 14.7226C75.0506 15.0164 74.9379 15.27 74.7125 15.4833C74.4911 15.6926 74.2235 15.7972 73.9096 15.7972ZM79.0365 14.1371V26.5007H77.2314V14.1371H79.0365ZM84.1633 26.706C83.5757 26.706 83.0445 26.5973 82.5696 26.38C82.0947 26.1586 81.7184 25.8386 81.4407 25.4201C81.167 25.0015 81.0301 24.4884 81.0301 23.8807C81.0301 23.3575 81.1308 22.9268 81.332 22.5888C81.5332 22.2507 81.8049 21.9831 82.147 21.7859C82.4891 21.5886 82.8714 21.4397 83.294 21.3391C83.7166 21.2385 84.1472 21.162 84.5859 21.1097C85.1413 21.0453 85.5921 20.993 85.9382 20.9528C86.2843 20.9085 86.5358 20.8381 86.6928 20.7415C86.8497 20.6449 86.9282 20.4879 86.9282 20.2706V20.2283C86.9282 19.7011 86.7793 19.2926 86.4815 19.0028C86.1877 18.7131 85.749 18.5682 85.1654 18.5682C84.5577 18.5682 84.0788 18.703 83.7287 18.9726C83.3825 19.2383 83.1431 19.5341 83.0103 19.8601L81.3139 19.4737C81.5151 18.9103 81.8089 18.4555 82.1953 18.1094C82.5857 17.7592 83.0344 17.5057 83.5415 17.3487C84.0486 17.1877 84.5819 17.1072 85.1413 17.1072C85.5116 17.1072 85.904 17.1515 86.3185 17.24C86.7371 17.3246 87.1274 17.4815 87.4897 17.7109C87.8559 17.9403 88.1557 18.2683 88.3892 18.6949C88.6226 19.1175 88.7393 19.6669 88.7393 20.343V26.5007H86.9765V25.2329H86.9041C86.7874 25.4664 86.6123 25.6958 86.3789 25.9212C86.1454 26.1465 85.8456 26.3337 85.4794 26.4826C85.1131 26.6315 84.6744 26.706 84.1633 26.706ZM84.5557 25.2571C85.0548 25.2571 85.4814 25.1585 85.8355 24.9613C86.1937 24.7641 86.4654 24.5065 86.6505 24.1886C86.8397 23.8666 86.9343 23.5225 86.9343 23.1562V21.9609C86.8699 22.0253 86.7451 22.0857 86.56 22.142C86.3789 22.1944 86.1716 22.2406 85.9382 22.2809C85.7047 22.3171 85.4774 22.3513 85.256 22.3835C85.0346 22.4117 84.8495 22.4358 84.7006 22.456C84.3505 22.5002 84.0305 22.5747 83.7407 22.6793C83.455 22.784 83.2256 22.9349 83.0525 23.1321C82.8835 23.3253 82.799 23.5828 82.799 23.9048C82.799 24.3515 82.964 24.6896 83.294 24.919C83.624 25.1444 84.0446 25.2571 84.5557 25.2571ZM91.2884 26.5007V14.1371H93.0934V18.7312H93.2021C93.3067 18.538 93.4577 18.3146 93.6549 18.0611C93.8521 17.8075 94.1258 17.5862 94.4759 17.397C94.826 17.2038 95.2889 17.1072 95.8644 17.1072C96.613 17.1072 97.2811 17.2964 97.8687 17.6747C98.4563 18.053 98.9171 18.5984 99.2511 19.3107C99.5892 20.0231 99.7582 20.8803 99.7582 21.8824C99.7582 22.8846 99.5912 23.7438 99.2571 24.4602C98.9231 25.1726 98.4643 25.7219 97.8807 26.1083C97.2972 26.4906 96.6311 26.6818 95.8825 26.6818C95.3191 26.6818 94.8582 26.5872 94.5 26.3981C94.1459 26.2089 93.8682 25.9876 93.667 25.734C93.4657 25.4805 93.3108 25.2551 93.2021 25.0579H93.0512V26.5007H91.2884ZM93.0572 21.8643C93.0572 22.5163 93.1518 23.0878 93.341 23.5788C93.5301 24.0698 93.8038 24.4542 94.162 24.7319C94.5202 25.0056 94.9589 25.1424 95.478 25.1424C96.0173 25.1424 96.4681 24.9995 96.8303 24.7138C97.1925 24.424 97.4662 24.0316 97.6513 23.5366C97.8405 23.0415 97.9351 22.4841 97.9351 21.8643C97.9351 21.2526 97.8425 20.7032 97.6574 20.2163C97.4763 19.7293 97.2026 19.3449 96.8363 19.0632C96.4741 18.7815 96.0214 18.6406 95.478 18.6406C94.9548 18.6406 94.5121 18.7754 94.1499 19.0451C93.7917 19.3147 93.5201 19.691 93.3349 20.174C93.1498 20.6569 93.0572 21.2204 93.0572 21.8643ZM103.59 14.1371V26.5007H101.785V14.1371H103.59ZM110.015 26.6878C109.101 26.6878 108.315 26.4926 107.655 26.1023C106.999 25.7078 106.491 25.1545 106.133 24.4421C105.779 23.7257 105.602 22.8866 105.602 21.9247C105.602 20.9749 105.779 20.1378 106.133 19.4133C106.491 18.6889 106.99 18.1234 107.63 17.717C108.274 17.3105 109.027 17.1072 109.888 17.1072C110.411 17.1072 110.918 17.1938 111.409 17.3668C111.9 17.5399 112.341 17.8115 112.732 18.1818C113.122 18.5521 113.43 19.033 113.655 19.6246C113.881 20.2122 113.993 20.9266 113.993 21.7677V22.4077H106.622V21.0554H112.224C112.224 20.5805 112.128 20.1599 111.935 19.7937C111.742 19.4234 111.47 19.1316 111.12 18.9183C110.774 18.705 110.367 18.5984 109.9 18.5984C109.393 18.5984 108.95 18.7231 108.572 18.9726C108.198 19.2181 107.908 19.5401 107.703 19.9386C107.502 20.333 107.401 20.7616 107.401 21.2244V22.2809C107.401 22.9007 107.51 23.4279 107.727 23.8626C107.948 24.2972 108.256 24.6292 108.651 24.8587C109.045 25.084 109.506 25.1967 110.033 25.1967C110.375 25.1967 110.687 25.1484 110.969 25.0518C111.251 24.9512 111.494 24.8023 111.699 24.6051C111.905 24.4079 112.061 24.1644 112.17 23.8746L113.879 24.1825C113.742 24.6856 113.496 25.1263 113.142 25.5046C112.792 25.8789 112.351 26.1707 111.82 26.38C111.293 26.5852 110.691 26.6878 110.015 26.6878ZM124.401 26.6878C123.532 26.6878 122.773 26.4886 122.125 26.0902C121.477 25.6917 120.974 25.1343 120.616 24.418C120.258 23.7016 120.079 22.8645 120.079 21.9066C120.079 20.9447 120.258 20.1036 120.616 19.3832C120.974 18.6627 121.477 18.1033 122.125 17.7049C122.773 17.3065 123.532 17.1072 124.401 17.1072C125.27 17.1072 126.029 17.3065 126.677 17.7049C127.325 18.1033 127.828 18.6627 128.186 19.3832C128.544 20.1036 128.723 20.9447 128.723 21.9066C128.723 22.8645 128.544 23.7016 128.186 24.418C127.828 25.1343 127.325 25.6917 126.677 26.0902C126.029 26.4886 125.27 26.6878 124.401 26.6878ZM124.407 25.1726C124.97 25.1726 125.437 25.0237 125.808 24.7258C126.178 24.428 126.452 24.0316 126.629 23.5366C126.81 23.0415 126.9 22.4962 126.9 21.9006C126.9 21.3089 126.81 20.7656 126.629 20.2706C126.452 19.7715 126.178 19.3711 125.808 19.0692C125.437 18.7674 124.97 18.6165 124.407 18.6165C123.84 18.6165 123.369 18.7674 122.994 19.0692C122.624 19.3711 122.348 19.7715 122.167 20.2706C121.99 20.7656 121.902 21.3089 121.902 21.9006C121.902 22.4962 121.99 23.0415 122.167 23.5366C122.348 24.0316 122.624 24.428 122.994 24.7258C123.369 25.0237 123.84 25.1726 124.407 25.1726ZM132.543 20.995V26.5007H130.738V17.228H132.471V18.7372H132.586C132.799 18.2462 133.133 17.8518 133.588 17.554C134.046 17.2561 134.624 17.1072 135.32 17.1072C135.952 17.1072 136.506 17.24 136.98 17.5057C137.455 17.7673 137.824 18.1577 138.085 18.6768C138.347 19.196 138.478 19.8379 138.478 20.6026V26.5007H136.673V20.8199C136.673 20.1478 136.497 19.6226 136.147 19.2443C135.797 18.862 135.316 18.6708 134.704 18.6708C134.286 18.6708 133.914 18.7614 133.588 18.9425C133.266 19.1236 133.01 19.3892 132.821 19.7393C132.636 20.0855 132.543 20.504 132.543 20.995Z" fill="#E8E8E8"/>
<path d="M147.611 26.0007H144.4L148.571 13.6371H152.55L156.721 26.0007H153.51L150.606 16.7521H150.509L147.611 26.0007ZM147.183 21.1349H153.896V23.4048H147.183V21.1349ZM158.052 26.0007V16.728H160.92V18.4183H161.016C161.185 17.8066 161.461 17.3518 161.844 17.054C162.226 16.7521 162.671 16.6012 163.178 16.6012C163.315 16.6012 163.455 16.6113 163.6 16.6314C163.745 16.6475 163.88 16.6736 164.005 16.7099V19.2756C163.864 19.2273 163.679 19.189 163.449 19.1609C163.224 19.1327 163.023 19.1186 162.846 19.1186C162.496 19.1186 162.18 19.1971 161.898 19.354C161.62 19.507 161.401 19.7223 161.24 20C161.083 20.2737 161.004 20.5956 161.004 20.9659V26.0007H158.052ZM169.055 26.1758C168.077 26.1758 167.238 25.9745 166.537 25.5721C165.841 25.1696 165.306 24.6102 164.931 23.8938C164.557 23.1734 164.37 22.3403 164.37 21.3945C164.37 20.4447 164.557 19.6116 164.931 18.8952C165.31 18.1748 165.847 17.6134 166.543 17.2109C167.244 16.8085 168.079 16.6072 169.049 16.6072C169.906 16.6072 170.652 16.7622 171.288 17.0721C171.928 17.382 172.427 17.8207 172.785 18.3881C173.148 18.9516 173.339 19.6136 173.359 20.3743H170.6C170.544 19.8994 170.383 19.5271 170.117 19.2574C169.856 18.9878 169.513 18.853 169.091 18.853C168.749 18.853 168.449 18.9496 168.191 19.1427C167.934 19.3319 167.733 19.6136 167.588 19.9879C167.447 20.3582 167.376 20.817 167.376 21.3643C167.376 21.9117 167.447 22.3745 167.588 22.7528C167.733 23.1271 167.934 23.4109 168.191 23.604C168.449 23.7932 168.749 23.8878 169.091 23.8878C169.365 23.8878 169.606 23.8294 169.815 23.7127C170.029 23.596 170.204 23.4249 170.34 23.1996C170.477 22.9702 170.564 22.6925 170.6 22.3665H173.359C173.331 23.1311 173.14 23.7992 172.785 24.3707C172.435 24.9422 171.942 25.3869 171.306 25.7049C170.675 26.0188 169.924 26.1758 169.055 26.1758ZM177.822 20.7123V26.0007H174.87V13.6371H177.725V18.4304H177.828C178.037 17.8589 178.379 17.4122 178.854 17.0902C179.333 16.7682 179.919 16.6072 180.611 16.6072C181.263 16.6072 181.83 16.7521 182.313 17.0419C182.796 17.3276 183.17 17.7321 183.436 18.2553C183.706 18.7785 183.839 19.3903 183.835 20.0905V26.0007H180.882V20.6701C180.887 20.1549 180.758 19.7525 180.496 19.4627C180.235 19.1729 179.866 19.028 179.391 19.028C179.081 19.028 178.808 19.0965 178.57 19.2333C178.337 19.3661 178.154 19.5573 178.021 19.8068C177.892 20.0563 177.826 20.3582 177.822 20.7123ZM196.809 13.6371H199.792V21.6118C199.792 22.5335 199.572 23.3364 199.134 24.0206C198.695 24.7007 198.083 25.228 197.298 25.6023C196.514 25.9725 195.602 26.1577 194.564 26.1577C193.513 26.1577 192.596 25.9725 191.811 25.6023C191.026 25.228 190.416 24.7007 189.982 24.0206C189.547 23.3364 189.33 22.5335 189.33 21.6118V13.6371H192.318V21.3523C192.318 21.7789 192.411 22.1592 192.596 22.4932C192.785 22.8273 193.048 23.0889 193.386 23.278C193.725 23.4672 194.117 23.5618 194.564 23.5618C195.01 23.5618 195.401 23.4672 195.735 23.278C196.073 23.0889 196.337 22.8273 196.526 22.4932C196.715 22.1592 196.809 21.7789 196.809 21.3523V13.6371ZM209.76 19.5593L207.05 19.6317C207.021 19.4386 206.945 19.2675 206.82 19.1186C206.695 18.9657 206.532 18.8469 206.331 18.7624C206.134 18.6739 205.905 18.6296 205.643 18.6296C205.301 18.6296 205.009 18.698 204.768 18.8349C204.53 18.9717 204.413 19.1568 204.417 19.3903C204.413 19.5714 204.486 19.7283 204.635 19.8611C204.788 19.994 205.059 20.1006 205.45 20.1811L207.237 20.5192C208.162 20.6962 208.851 20.99 209.301 21.4006C209.756 21.8111 209.986 22.3544 209.99 23.0305C209.986 23.6664 209.796 24.2198 209.422 24.6907C209.052 25.1616 208.545 25.5278 207.901 25.7894C207.257 26.047 206.52 26.1758 205.691 26.1758C204.367 26.1758 203.323 25.9041 202.558 25.3608C201.797 24.8134 201.363 24.081 201.254 23.1633L204.17 23.0909C204.234 23.429 204.401 23.6865 204.671 23.8636C204.941 24.0407 205.285 24.1292 205.703 24.1292C206.082 24.1292 206.39 24.0588 206.627 23.918C206.864 23.7771 206.985 23.5899 206.989 23.3565C206.985 23.1472 206.893 22.9802 206.711 22.8555C206.53 22.7267 206.247 22.6261 205.86 22.5536L204.242 22.2457C203.313 22.0767 202.62 21.7648 202.166 21.31C201.711 20.8512 201.486 20.2676 201.49 19.5593C201.486 18.9395 201.651 18.4103 201.985 17.9716C202.319 17.5289 202.794 17.1908 203.409 16.9574C204.025 16.7239 204.752 16.6072 205.589 16.6072C206.844 16.6072 207.834 16.8708 208.559 17.3981C209.283 17.9213 209.684 18.6417 209.76 19.5593ZM215.777 26.1758C214.808 26.1758 213.97 25.9846 213.266 25.6023C212.566 25.2159 212.027 24.6665 211.648 23.9542C211.274 23.2378 211.087 22.3866 211.087 21.4006C211.087 20.4427 211.276 19.6056 211.654 18.8892C212.033 18.1688 212.566 17.6094 213.254 17.2109C213.942 16.8085 214.753 16.6072 215.687 16.6072C216.347 16.6072 216.951 16.7099 217.498 16.9151C218.045 17.1204 218.518 17.4242 218.917 17.8267C219.315 18.2292 219.625 18.7262 219.846 19.3178C220.068 19.9054 220.178 20.5795 220.178 21.3402V22.0767H212.119V20.3622H217.432C217.428 20.0483 217.353 19.7686 217.208 19.5231C217.063 19.2776 216.864 19.0864 216.611 18.9496C216.361 18.8087 216.073 18.7383 215.747 18.7383C215.417 18.7383 215.121 18.8127 214.86 18.9616C214.598 19.1065 214.391 19.3057 214.238 19.5593C214.085 19.8088 214.005 20.0926 213.997 20.4105V22.1552C213.997 22.5335 214.071 22.8655 214.22 23.1513C214.369 23.433 214.58 23.6523 214.854 23.8093C215.127 23.9663 215.453 24.0447 215.832 24.0447C216.093 24.0447 216.331 24.0085 216.544 23.9361C216.757 23.8636 216.941 23.757 217.094 23.6161C217.246 23.4752 217.361 23.3022 217.438 23.0969L220.148 23.1754C220.036 23.7831 219.788 24.3124 219.406 24.7631C219.027 25.2099 218.53 25.558 217.915 25.8075C217.299 26.053 216.586 26.1758 215.777 26.1758ZM221.686 26.0007V16.728H224.554V18.4183H224.65C224.819 17.8066 225.095 17.3518 225.477 17.054C225.86 16.7521 226.304 16.6012 226.811 16.6012C226.948 16.6012 227.089 16.6113 227.234 16.6314C227.379 16.6475 227.514 16.6736 227.639 16.7099V19.2756C227.498 19.2273 227.313 19.189 227.083 19.1609C226.858 19.1327 226.657 19.1186 226.479 19.1186C226.129 19.1186 225.813 19.1971 225.532 19.354C225.254 19.507 225.035 19.7223 224.874 20C224.717 20.2737 224.638 20.5956 224.638 20.9659V26.0007H221.686ZM232.494 26.0007V13.6371H237.601C238.527 13.6371 239.326 13.8041 239.998 14.1381C240.674 14.4681 241.195 14.9431 241.561 15.5628C241.927 16.1786 242.111 16.9091 242.111 17.7543C242.111 18.6115 241.923 19.34 241.549 19.9396C241.175 20.5353 240.644 20.99 239.955 21.304C239.267 21.6139 238.452 21.7688 237.51 21.7688H234.281V19.4144H236.955C237.406 19.4144 237.782 19.356 238.084 19.2393C238.39 19.1186 238.621 18.9375 238.778 18.696C238.935 18.4505 239.014 18.1366 239.014 17.7543C239.014 17.3719 238.935 17.056 238.778 16.8065C238.621 16.5529 238.39 16.3637 238.084 16.239C237.778 16.1102 237.402 16.0458 236.955 16.0458H235.482V26.0007H232.494ZM239.454 20.3501L242.533 26.0007H239.273L236.255 20.3501H239.454ZM247.901 26.1758C246.932 26.1758 246.094 25.9846 245.39 25.6023C244.69 25.2159 244.151 24.6665 243.772 23.9542C243.398 23.2378 243.211 22.3866 243.211 21.4006C243.211 20.4427 243.4 19.6056 243.778 18.8892C244.157 18.1688 244.69 17.6094 245.378 17.2109C246.066 16.8085 246.877 16.6072 247.811 16.6072C248.471 16.6072 249.075 16.7099 249.622 16.9151C250.169 17.1204 250.642 17.4242 251.041 17.8267C251.439 18.2292 251.749 18.7262 251.97 19.3178C252.192 19.9054 252.302 20.5795 252.302 21.3402V22.0767H244.243V20.3622H249.556C249.552 20.0483 249.477 19.7686 249.332 19.5231C249.187 19.2776 248.988 19.0864 248.735 18.9496C248.485 18.8087 248.197 18.7383 247.871 18.7383C247.541 18.7383 247.245 18.8127 246.984 18.9616C246.722 19.1065 246.515 19.3057 246.362 19.5593C246.209 19.8088 246.129 20.0926 246.121 20.4105V22.1552C246.121 22.5335 246.195 22.8655 246.344 23.1513C246.493 23.433 246.704 23.6523 246.978 23.8093C247.251 23.9663 247.577 24.0447 247.956 24.0447C248.217 24.0447 248.455 24.0085 248.668 23.9361C248.881 23.8636 249.065 23.757 249.218 23.6161C249.37 23.4752 249.485 23.3022 249.562 23.0969L252.272 23.1754C252.16 23.7831 251.912 24.3124 251.53 24.7631C251.151 25.2099 250.654 25.558 250.039 25.8075C249.423 26.053 248.71 26.1758 247.901 26.1758ZM253.81 29.478V16.728H256.732V18.3157H256.823C256.943 18.034 257.114 17.7623 257.336 17.5007C257.561 17.2391 257.847 17.0258 258.193 16.8608C258.543 16.6918 258.962 16.6072 259.449 16.6072C260.093 16.6072 260.694 16.7763 261.254 17.1143C261.817 17.4524 262.272 17.9736 262.618 18.6779C262.964 19.3822 263.137 20.2797 263.137 21.3704C263.137 22.4208 262.97 23.3002 262.636 24.0085C262.306 24.7168 261.859 25.2481 261.296 25.6023C260.736 25.9564 260.115 26.1335 259.43 26.1335C258.964 26.1335 258.559 26.057 258.217 25.9041C257.875 25.7512 257.587 25.5499 257.354 25.3004C257.124 25.0509 256.947 24.7832 256.823 24.4975H256.762V29.478H253.81ZM256.702 21.3643C256.702 21.8634 256.768 22.298 256.901 22.6683C257.038 23.0386 257.233 23.3263 257.487 23.5316C257.744 23.7328 258.052 23.8334 258.41 23.8334C258.772 23.8334 259.08 23.7328 259.334 23.5316C259.587 23.3263 259.779 23.0386 259.907 22.6683C260.04 22.298 260.107 21.8634 260.107 21.3643C260.107 20.8653 260.04 20.4326 259.907 20.0664C259.779 19.7002 259.587 19.4164 259.334 19.2152C259.084 19.014 258.776 18.9133 258.41 18.9133C258.048 18.9133 257.74 19.0119 257.487 19.2092C257.233 19.4064 257.038 19.6881 256.901 20.0543C256.768 20.4206 256.702 20.8572 256.702 21.3643ZM269.013 26.1758C268.039 26.1758 267.202 25.9765 266.501 25.5781C265.805 25.1757 265.268 24.6162 264.889 23.8998C264.515 23.1794 264.328 22.3443 264.328 21.3945C264.328 20.4407 264.515 19.6056 264.889 18.8892C265.268 18.1688 265.805 17.6094 266.501 17.2109C267.202 16.8085 268.039 16.6072 269.013 16.6072C269.987 16.6072 270.822 16.8085 271.518 17.2109C272.218 17.6094 272.756 18.1688 273.13 18.8892C273.508 19.6056 273.697 20.4407 273.697 21.3945C273.697 22.3443 273.508 23.1794 273.13 23.8998C272.756 24.6162 272.218 25.1757 271.518 25.5781C270.822 25.9765 269.987 26.1758 269.013 26.1758ZM269.031 23.9481C269.385 23.9481 269.685 23.8395 269.93 23.6221C270.176 23.4048 270.363 23.103 270.492 22.7166C270.624 22.3302 270.691 21.8835 270.691 21.3764C270.691 20.8613 270.624 20.4105 270.492 20.0241C270.363 19.6378 270.176 19.3359 269.93 19.1186C269.685 18.9013 269.385 18.7926 269.031 18.7926C268.664 18.7926 268.355 18.9013 268.101 19.1186C267.852 19.3359 267.66 19.6378 267.528 20.0241C267.399 20.4105 267.334 20.8613 267.334 21.3764C267.334 21.8835 267.399 22.3302 267.528 22.7166C267.66 23.103 267.852 23.4048 268.101 23.6221C268.355 23.8395 268.664 23.9481 269.031 23.9481ZM283.305 19.5593L280.594 19.6317C280.566 19.4386 280.49 19.2675 280.365 19.1186C280.24 18.9657 280.077 18.8469 279.876 18.7624C279.679 18.6739 279.449 18.6296 279.188 18.6296C278.846 18.6296 278.554 18.698 278.313 18.8349C278.075 18.9717 277.958 19.1568 277.962 19.3903C277.958 19.5714 278.031 19.7283 278.18 19.8611C278.333 19.994 278.604 20.1006 278.995 20.1811L280.782 20.5192C281.707 20.6962 282.395 20.99 282.846 21.4006C283.301 21.8111 283.53 22.3544 283.534 23.0305C283.53 23.6664 283.341 24.2198 282.967 24.6907C282.597 25.1616 282.09 25.5278 281.446 25.7894C280.802 26.047 280.065 26.1758 279.236 26.1758C277.912 26.1758 276.868 25.9041 276.103 25.3608C275.342 24.8134 274.908 24.081 274.799 23.1633L277.715 23.0909C277.779 23.429 277.946 23.6865 278.216 23.8636C278.486 24.0407 278.83 24.1292 279.248 24.1292C279.627 24.1292 279.934 24.0588 280.172 23.918C280.409 23.7771 280.53 23.5899 280.534 23.3565C280.53 23.1472 280.438 22.9802 280.256 22.8555C280.075 22.7267 279.792 22.6261 279.405 22.5536L277.787 22.2457C276.858 22.0767 276.165 21.7648 275.711 21.31C275.256 20.8512 275.03 20.2676 275.034 19.5593C275.03 18.9395 275.195 18.4103 275.529 17.9716C275.864 17.5289 276.338 17.1908 276.954 16.9574C277.57 16.7239 278.296 16.6072 279.134 16.6072C280.389 16.6072 281.379 16.8708 282.104 17.3981C282.828 17.9213 283.229 18.6417 283.305 19.5593ZM284.988 26.0007V16.728H287.94V26.0007H284.988ZM286.467 15.6474C286.052 15.6474 285.696 15.5105 285.398 15.2369C285.101 14.9592 284.952 14.6251 284.952 14.2347C284.952 13.8484 285.101 13.5183 285.398 13.2447C285.696 12.967 286.052 12.8281 286.467 12.8281C286.885 12.8281 287.242 12.967 287.535 13.2447C287.833 13.5183 287.982 13.8484 287.982 14.2347C287.982 14.6251 287.833 14.9592 287.535 15.2369C287.242 15.5105 286.885 15.6474 286.467 15.6474ZM295.053 16.728V18.9013H289.203V16.728H295.053ZM290.429 14.5064H293.381V23.0849C293.381 23.266 293.409 23.4129 293.465 23.5256C293.526 23.6342 293.612 23.7127 293.725 23.761C293.837 23.8053 293.972 23.8274 294.129 23.8274C294.242 23.8274 294.361 23.8173 294.485 23.7972C294.614 23.7731 294.711 23.7529 294.775 23.7368L295.222 25.8679C295.081 25.9081 294.882 25.9584 294.624 26.0188C294.371 26.0792 294.067 26.1174 293.713 26.1335C293.02 26.1657 292.427 26.0852 291.932 25.892C291.441 25.6948 291.065 25.389 290.803 24.9744C290.545 24.5599 290.421 24.0387 290.429 23.4109V14.5064ZM300.788 26.1758C299.814 26.1758 298.977 25.9765 298.277 25.5781C297.58 25.1757 297.043 24.6162 296.665 23.8998C296.29 23.1794 296.103 22.3443 296.103 21.3945C296.103 20.4407 296.29 19.6056 296.665 18.8892C297.043 18.1688 297.58 17.6094 298.277 17.2109C298.977 16.8085 299.814 16.6072 300.788 16.6072C301.762 16.6072 302.597 16.8085 303.293 17.2109C303.994 17.6094 304.531 18.1688 304.905 18.8892C305.283 19.6056 305.473 20.4407 305.473 21.3945C305.473 22.3443 305.283 23.1794 304.905 23.8998C304.531 24.6162 303.994 25.1757 303.293 25.5781C302.597 25.9765 301.762 26.1758 300.788 26.1758ZM300.806 23.9481C301.16 23.9481 301.46 23.8395 301.706 23.6221C301.951 23.4048 302.138 23.103 302.267 22.7166C302.4 22.3302 302.466 21.8835 302.466 21.3764C302.466 20.8613 302.4 20.4105 302.267 20.0241C302.138 19.6378 301.951 19.3359 301.706 19.1186C301.46 18.9013 301.16 18.7926 300.806 18.7926C300.44 18.7926 300.13 18.9013 299.876 19.1186C299.627 19.3359 299.436 19.6378 299.303 20.0241C299.174 20.4105 299.11 20.8613 299.11 21.3764C299.11 21.8835 299.174 22.3302 299.303 22.7166C299.436 23.103 299.627 23.4048 299.876 23.6221C300.13 23.8395 300.44 23.9481 300.806 23.9481ZM306.985 26.0007V16.728H309.852V18.4183H309.949C310.118 17.8066 310.394 17.3518 310.776 17.054C311.158 16.7521 311.603 16.6012 312.11 16.6012C312.247 16.6012 312.388 16.6113 312.533 16.6314C312.678 16.6475 312.813 16.6736 312.937 16.7099V19.2756C312.796 19.2273 312.611 19.189 312.382 19.1609C312.157 19.1327 311.955 19.1186 311.778 19.1186C311.428 19.1186 311.112 19.1971 310.83 19.354C310.553 19.507 310.333 19.7223 310.172 20C310.015 20.2737 309.937 20.5956 309.937 20.9659V26.0007H306.985ZM316.227 29.478C315.873 29.478 315.539 29.4498 315.225 29.3935C314.911 29.3411 314.642 29.2707 314.416 29.1822L315.068 27.039C315.358 27.1356 315.62 27.192 315.853 27.2081C316.091 27.2242 316.294 27.1859 316.463 27.0934C316.636 27.0048 316.769 26.8459 316.861 26.6165L316.976 26.3388L313.68 16.728H316.771L318.479 23.3444H318.576L320.308 16.728H323.417L319.922 26.8881C319.753 27.3952 319.514 27.842 319.204 28.2283C318.898 28.6187 318.501 28.9246 318.014 29.1459C317.531 29.3673 316.936 29.478 316.227 29.478Z" fill="#1793D1"/>
</g>
<defs>
<filter id="filter0_d_1_56" x="2.39972" y="0.39972" width="39.202" height="39.202" filterUnits="userSpaceOnUse" color-interpolation-filters="sRGB">
<feFlood flood-opacity="0" result="BackgroundImageFix"/>
<feColorMatrix in="SourceAlpha" type="matrix" values="0 0 0 0 0 0 0 0 0 0 0 0 0 0 0 0 0 0 127 0" result="hardAlpha"/>
<feOffset/>
<feGaussianBlur stdDeviation="2.80014"/>
<feComposite in2="hardAlpha" operator="out"/>
<feColorMatrix type="matrix" values="0 0 0 0 0 0 0 0 0 0 0 0 0 0 0 0 0 0 0.25 0"/>
<feBlend mode="normal" in2="BackgroundImageFix" result="effect1_dropShadow_1_56"/>
<feBlend mode="normal" in="SourceGraphic" in2="effect1_dropShadow_1_56" result="shape"/>
</filter>
<filter id="filter1_d_1_56" x="36.2871" y="3.78642" width="293.428" height="32.4286" filterUnits="userSpaceOnUse" color-interpolation-filters="sRGB">
<feFlood flood-opacity="0" result="BackgroundImageFix"/>
<feColorMatrix in="SourceAlpha" type="matrix" values="0 0 0 0 0 0 0 0 0 0 0 0 0 0 0 0 0 0 127 0" result="hardAlpha"/>
<feOffset/>
<feGaussianBlur stdDeviation="2.85714"/>
<feComposite in2="hardAlpha" operator="out"/>
<feColorMatrix type="matrix" values="0 0 0 0 0 0 0 0 0 0 0 0 0 0 0 0 0 0 0.25 0"/>
<feBlend mode="normal" in2="BackgroundImageFix" result="effect1_dropShadow_1_56"/>
<feBlend mode="normal" in="SourceGraphic" in2="effect1_dropShadow_1_56" result="shape"/>
</filter>
<linearGradient id="paint0_linear_1_56" x1="166.001" y1="0" x2="166.001" y2="40.0014" gradientUnits="userSpaceOnUse">
<stop stop-color="#083349"/>
<stop offset="1" stop-color="#062534"/>
</linearGradient>
<clipPath id="clip0_1_56">
<rect width="28" height="28" fill="white" transform="translate(8 6)"/>
</clipPath>
</defs>
</svg>
