<svg width="252" height="56" viewBox="0 0 252 56" fill="none" xmlns="http://www.w3.org/2000/svg">
<rect width="252" height="56" rx="8" fill="url(#paint0_linear_1_50)"/>
<rect x="1.05" y="1.05" width="249.9" height="53.9" rx="6.95" stroke="white" stroke-opacity="0.15" stroke-width="2.1"/>
<g filter="url(#filter0_d_1_50)">
<g clip-path="url(#clip0_1_50)">
<path fill-rule="evenodd" clip-rule="evenodd" d="M31.9963 7.99625C30.215 12.3619 29.1413 15.2175 27.1588 19.4538C28.3744 20.7425 29.8663 22.2425 32.2838 23.9375C29.6788 22.8656 27.9088 21.7894 26.5738 20.6725C24.0363 25.9662 20.0613 33.5087 11.9944 48.0037C18.3406 44.3437 23.25 42.0875 27.8363 41.225C27.6394 40.3788 27.5275 39.4637 27.5363 38.5094L27.5438 38.3063C27.6438 34.2438 29.7575 31.12 32.2606 31.3325C34.7638 31.545 36.7094 35.0112 36.6088 39.0737C36.5935 39.8075 36.5079 40.5382 36.3531 41.2556C40.8844 42.1419 45.7469 44.3931 52.0013 48.0037L48.6138 41.7375C46.9575 40.4544 45.2306 38.7838 41.7075 36.975C44.1294 37.6044 45.8638 38.33 47.2075 39.1419C36.52 19.2419 35.6538 16.5981 31.9888 7.99625H31.9963Z" fill="#1793D1"/>
</g>
</g>
<g filter="url(#filter1_d_1_50)">
<path d="M62.2613 24.5H60.3977L64.5852 12.8636H66.6136L70.8011 24.5H68.9375L65.6477 14.9773H65.5568L62.2613 24.5ZM62.5738 19.9432H68.6193V21.4204H62.5738V19.9432ZM78.7173 15.7727L75.5525 24.5H73.7344L70.5639 15.7727H72.3878L74.598 22.4886H74.6889L76.8934 15.7727H78.7173ZM82.6037 24.6932C82.0506 24.6932 81.5506 24.5909 81.1037 24.3864C80.6567 24.178 80.3025 23.8769 80.0412 23.4829C79.7836 23.089 79.6548 22.6061 79.6548 22.0341C79.6548 21.5417 79.7495 21.1364 79.9389 20.8182C80.1283 20.5 80.384 20.2481 80.7059 20.0625C81.0279 19.8769 81.3878 19.7367 81.7855 19.642C82.1832 19.5473 82.5885 19.4754 83.0014 19.4261C83.5241 19.3655 83.9484 19.3163 84.2741 19.2784C84.5999 19.2367 84.8366 19.1704 84.9844 19.0795C85.1321 18.9886 85.2059 18.8409 85.2059 18.6364V18.5966C85.2059 18.1004 85.0658 17.7159 84.7855 17.4432C84.509 17.1704 84.0961 17.0341 83.5469 17.0341C82.9749 17.0341 82.5241 17.161 82.1946 17.4148C81.8688 17.6648 81.6434 17.9432 81.5184 18.25L79.9219 17.8864C80.1112 17.3561 80.3878 16.928 80.7514 16.6023C81.1188 16.2727 81.5412 16.0341 82.0184 15.8864C82.4957 15.7348 82.9976 15.6591 83.5241 15.6591C83.8726 15.6591 84.2419 15.7008 84.6321 15.7841C85.026 15.8636 85.3934 16.0114 85.7344 16.2273C86.079 16.4432 86.3612 16.7519 86.5809 17.1534C86.8006 17.5511 86.9105 18.0682 86.9105 18.7045V24.5H85.2514V23.3068H85.1832C85.0734 23.5265 84.9086 23.7424 84.6889 23.9545C84.4692 24.1667 84.187 24.3428 83.8423 24.4829C83.4976 24.6231 83.0847 24.6932 82.6037 24.6932ZM82.973 23.3295C83.4427 23.3295 83.8442 23.2367 84.1775 23.0511C84.5147 22.8655 84.7703 22.6231 84.9446 22.3239C85.1226 22.0208 85.2116 21.697 85.2116 21.3523V20.2273C85.151 20.2879 85.0336 20.3447 84.8594 20.3977C84.6889 20.447 84.4938 20.4905 84.2741 20.5284C84.0544 20.5625 83.8404 20.5947 83.6321 20.625C83.4237 20.6515 83.2495 20.6742 83.1094 20.6932C82.7798 20.7348 82.4787 20.8049 82.2059 20.9034C81.937 21.0019 81.7211 21.1439 81.5582 21.3295C81.3991 21.5114 81.3196 21.7538 81.3196 22.0568C81.3196 22.4773 81.4749 22.7954 81.7855 23.0114C82.0961 23.2235 82.4919 23.3295 82.973 23.3295ZM89.1733 24.5V15.7727H90.8721V24.5H89.1733ZM90.0312 14.4261C89.7358 14.4261 89.482 14.3276 89.2699 14.1307C89.0615 13.9299 88.9574 13.6913 88.9574 13.4148C88.9574 13.1345 89.0615 12.8958 89.2699 12.6989C89.482 12.4981 89.7358 12.3977 90.0312 12.3977C90.3267 12.3977 90.5786 12.4981 90.7869 12.6989C90.999 12.8958 91.1051 13.1345 91.1051 13.4148C91.1051 13.6913 90.999 13.9299 90.7869 14.1307C90.5786 14.3276 90.3267 14.4261 90.0312 14.4261ZM94.8565 12.8636V24.5H93.1576V12.8636H94.8565ZM99.6818 24.6932C99.1288 24.6932 98.6288 24.5909 98.1818 24.3864C97.7348 24.178 97.3807 23.8769 97.1193 23.4829C96.8617 23.089 96.7329 22.6061 96.7329 22.0341C96.7329 21.5417 96.8276 21.1364 97.017 20.8182C97.2064 20.5 97.4621 20.2481 97.7841 20.0625C98.106 19.8769 98.4659 19.7367 98.8636 19.642C99.2613 19.5473 99.6666 19.4754 100.08 19.4261C100.602 19.3655 101.026 19.3163 101.352 19.2784C101.678 19.2367 101.915 19.1704 102.062 19.0795C102.21 18.9886 102.284 18.8409 102.284 18.6364V18.5966C102.284 18.1004 102.144 17.7159 101.864 17.4432C101.587 17.1704 101.174 17.0341 100.625 17.0341C100.053 17.0341 99.6022 17.161 99.2727 17.4148C98.9469 17.6648 98.7216 17.9432 98.5966 18.25L97 17.8864C97.1894 17.3561 97.4659 16.928 97.8295 16.6023C98.1969 16.2727 98.6193 16.0341 99.0966 15.8864C99.5738 15.7348 100.076 15.6591 100.602 15.6591C100.951 15.6591 101.32 15.7008 101.71 15.7841C102.104 15.8636 102.472 16.0114 102.812 16.2273C103.157 16.4432 103.439 16.7519 103.659 17.1534C103.879 17.5511 103.989 18.0682 103.989 18.7045V24.5H102.33V23.3068H102.261C102.151 23.5265 101.987 23.7424 101.767 23.9545C101.547 24.1667 101.265 24.3428 100.92 24.4829C100.576 24.6231 100.163 24.6932 99.6818 24.6932ZM100.051 23.3295C100.521 23.3295 100.922 23.2367 101.256 23.0511C101.593 22.8655 101.848 22.6231 102.023 22.3239C102.201 22.0208 102.29 21.697 102.29 21.3523V20.2273C102.229 20.2879 102.112 20.3447 101.937 20.3977C101.767 20.447 101.572 20.4905 101.352 20.5284C101.133 20.5625 100.919 20.5947 100.71 20.625C100.502 20.6515 100.328 20.6742 100.187 20.6932C99.8579 20.7348 99.5568 20.8049 99.2841 20.9034C99.0151 21.0019 98.7992 21.1439 98.6363 21.3295C98.4772 21.5114 98.3977 21.7538 98.3977 22.0568C98.3977 22.4773 98.553 22.7954 98.8636 23.0114C99.1742 23.2235 99.57 23.3295 100.051 23.3295ZM106.388 24.5V12.8636H108.087V17.1875H108.189C108.287 17.0057 108.429 16.7954 108.615 16.5568C108.801 16.3182 109.058 16.1098 109.388 15.9318C109.717 15.75 110.153 15.6591 110.695 15.6591C111.399 15.6591 112.028 15.8371 112.581 16.1932C113.134 16.5492 113.568 17.0625 113.882 17.7329C114.2 18.4034 114.359 19.2102 114.359 20.1534C114.359 21.0966 114.202 21.9053 113.888 22.5795C113.573 23.25 113.142 23.767 112.592 24.1307C112.043 24.4905 111.416 24.6704 110.712 24.6704C110.181 24.6704 109.748 24.5814 109.41 24.4034C109.077 24.2254 108.816 24.017 108.626 23.7784C108.437 23.5398 108.291 23.3276 108.189 23.142H108.047V24.5H106.388ZM108.053 20.1364C108.053 20.75 108.142 21.2879 108.32 21.75C108.498 22.2121 108.755 22.5739 109.092 22.8352C109.429 23.0928 109.842 23.2216 110.331 23.2216C110.839 23.2216 111.263 23.0871 111.604 22.8182C111.945 22.5454 112.202 22.1761 112.376 21.7102C112.554 21.2443 112.643 20.7197 112.643 20.1364C112.643 19.5606 112.556 19.0436 112.382 18.5852C112.212 18.1269 111.954 17.7651 111.609 17.5C111.268 17.2348 110.842 17.1023 110.331 17.1023C109.839 17.1023 109.422 17.2292 109.081 17.4829C108.744 17.7367 108.488 18.0909 108.314 18.5454C108.14 19 108.053 19.5303 108.053 20.1364ZM117.966 12.8636V24.5H116.267V12.8636H117.966ZM124.013 24.6761C123.153 24.6761 122.412 24.4924 121.791 24.125C121.174 23.7538 120.696 23.2329 120.359 22.5625C120.026 21.8883 119.859 21.0985 119.859 20.1932C119.859 19.2992 120.026 18.5114 120.359 17.8295C120.696 17.1477 121.166 16.6155 121.768 16.2329C122.374 15.8504 123.083 15.6591 123.893 15.6591C124.386 15.6591 124.863 15.7405 125.325 15.9034C125.787 16.0663 126.202 16.322 126.57 16.6704C126.937 17.0189 127.227 17.4716 127.439 18.0284C127.651 18.5814 127.757 19.2538 127.757 20.0454V20.6477H120.82V19.375H126.092C126.092 18.928 126.001 18.5322 125.82 18.1875C125.638 17.839 125.382 17.5644 125.053 17.3636C124.727 17.1629 124.344 17.0625 123.905 17.0625C123.428 17.0625 123.011 17.1799 122.655 17.4148C122.303 17.6458 122.03 17.9489 121.837 18.3239C121.647 18.6951 121.553 19.0985 121.553 19.5341V20.5284C121.553 21.1117 121.655 21.6079 121.859 22.017C122.068 22.4261 122.357 22.7386 122.729 22.9545C123.1 23.1667 123.534 23.2727 124.03 23.2727C124.352 23.2727 124.645 23.2273 124.91 23.1364C125.176 23.0417 125.405 22.9015 125.598 22.7159C125.791 22.5303 125.939 22.3011 126.041 22.0284L127.649 22.3182C127.52 22.7917 127.289 23.2064 126.956 23.5625C126.626 23.9148 126.212 24.1894 125.712 24.3864C125.215 24.5795 124.649 24.6761 124.013 24.6761ZM137.553 24.6761C136.734 24.6761 136.02 24.4886 135.41 24.1136C134.801 23.7386 134.327 23.214 133.99 22.5398C133.653 21.8655 133.484 21.0776 133.484 20.1761C133.484 19.2708 133.653 18.4792 133.99 17.8011C134.327 17.1231 134.801 16.5966 135.41 16.2216C136.02 15.8466 136.734 15.6591 137.553 15.6591C138.371 15.6591 139.085 15.8466 139.695 16.2216C140.304 16.5966 140.778 17.1231 141.115 17.8011C141.452 18.4792 141.621 19.2708 141.621 20.1761C141.621 21.0776 141.452 21.8655 141.115 22.5398C140.778 23.214 140.304 23.7386 139.695 24.1136C139.085 24.4886 138.371 24.6761 137.553 24.6761ZM137.558 23.25C138.089 23.25 138.528 23.1098 138.876 22.8295C139.225 22.5492 139.482 22.1761 139.649 21.7102C139.82 21.2443 139.905 20.7311 139.905 20.1704C139.905 19.6136 139.82 19.1023 139.649 18.6364C139.482 18.1667 139.225 17.7898 138.876 17.5057C138.528 17.2216 138.089 17.0795 137.558 17.0795C137.024 17.0795 136.581 17.2216 136.229 17.5057C135.88 17.7898 135.621 18.1667 135.45 18.6364C135.284 19.1023 135.2 19.6136 135.2 20.1704C135.2 20.7311 135.284 21.2443 135.45 21.7102C135.621 22.1761 135.88 22.5492 136.229 22.8295C136.581 23.1098 137.024 23.25 137.558 23.25ZM145.216 19.3182V24.5H143.517V15.7727H145.148V17.1932H145.256C145.456 16.7311 145.771 16.3598 146.199 16.0795C146.631 15.7992 147.174 15.6591 147.83 15.6591C148.424 15.6591 148.945 15.7841 149.392 16.0341C149.839 16.2803 150.186 16.6477 150.432 17.1364C150.678 17.625 150.801 18.2292 150.801 18.9489V24.5H149.102V19.1534C149.102 18.5208 148.937 18.0265 148.608 17.6704C148.278 17.3106 147.826 17.1307 147.25 17.1307C146.856 17.1307 146.506 17.2159 146.199 17.3864C145.896 17.5568 145.655 17.8068 145.477 18.1364C145.303 18.4621 145.216 18.8561 145.216 19.3182Z" fill="#E8E8E8"/>
<path d="M63.6101 43.5H60.3984L64.5699 31.1364H68.5483L72.7198 43.5H69.5081L66.6044 34.2514H66.5078L63.6101 43.5ZM63.1814 38.6342H69.8945V40.9041H63.1814V38.6342ZM74.0509 43.5V34.2273H76.9185V35.9176H77.0151C77.1841 35.3059 77.4598 34.8511 77.8421 34.5533C78.2245 34.2514 78.6692 34.1005 79.1763 34.1005C79.3131 34.1005 79.454 34.1105 79.5989 34.1307C79.7438 34.1468 79.8786 34.1729 80.0034 34.2092V36.7748C79.8625 36.7266 79.6774 36.6883 79.448 36.6601C79.2226 36.632 79.0213 36.6179 78.8443 36.6179C78.4941 36.6179 78.1782 36.6964 77.8965 36.8533C77.6188 37.0063 77.3994 37.2216 77.2384 37.4993C77.0815 37.773 77.003 38.0949 77.003 38.4652V43.5H74.0509ZM85.0532 43.6751C84.0753 43.6751 83.2361 43.4738 82.5358 43.0714C81.8396 42.6689 81.3043 42.1095 80.93 41.3931C80.5557 40.6727 80.3686 39.8396 80.3686 38.8938C80.3686 37.944 80.5557 37.1109 80.93 36.3945C81.3083 35.6741 81.8456 35.1127 82.5419 34.7102C83.2422 34.3078 84.0773 34.1065 85.0472 34.1065C85.9045 34.1065 86.651 34.2615 87.2869 34.5714C87.9268 34.8813 88.4259 35.3199 88.7841 35.8874C89.1463 36.4509 89.3375 37.1129 89.3576 37.8736H86.5987C86.5424 37.3987 86.3814 37.0264 86.1157 36.7567C85.8541 36.4871 85.5121 36.3523 85.0895 36.3523C84.7474 36.3523 84.4475 36.4489 84.19 36.642C83.9324 36.8312 83.7312 37.1129 83.5863 37.4872C83.4454 37.8575 83.375 38.3163 83.375 38.8636C83.375 39.411 83.4454 39.8738 83.5863 40.2521C83.7312 40.6264 83.9324 40.9101 84.19 41.1033C84.4475 41.2925 84.7474 41.3871 85.0895 41.3871C85.3631 41.3871 85.6046 41.3287 85.8139 41.212C86.0272 41.0953 86.2023 40.9242 86.3391 40.6989C86.4759 40.4694 86.5625 40.1918 86.5987 39.8658H89.3576C89.3294 40.6304 89.1382 41.2985 88.7841 41.87C88.4339 42.4415 87.9409 42.8862 87.305 43.2042C86.6732 43.5181 85.9226 43.6751 85.0532 43.6751ZM93.8204 38.2116V43.5H90.8683V31.1364H93.7238V35.9297H93.8264C94.0357 35.3582 94.3778 34.9114 94.8527 34.5895C95.3316 34.2675 95.9172 34.1065 96.6094 34.1065C97.2614 34.1065 97.8289 34.2514 98.3119 34.5412C98.7948 34.8269 99.1691 35.2314 99.4347 35.7546C99.7044 36.2778 99.8372 36.8895 99.8332 37.5898V43.5H96.8811V38.1694C96.8851 37.6542 96.7563 37.2518 96.4947 36.962C96.2331 36.6722 95.8649 36.5273 95.39 36.5273C95.0801 36.5273 94.8064 36.5958 94.569 36.7326C94.3355 36.8654 94.1524 37.0566 94.0196 37.3061C93.8908 37.5556 93.8244 37.8575 93.8204 38.2116ZM112.808 31.1364H115.79V39.1111C115.79 40.0328 115.571 40.8357 115.132 41.5199C114.694 42.2 114.082 42.7273 113.297 43.1016C112.512 43.4718 111.601 43.6569 110.562 43.6569C109.512 43.6569 108.594 43.4718 107.809 43.1016C107.025 42.7273 106.415 42.2 105.98 41.5199C105.546 40.8357 105.328 40.0328 105.328 39.1111V31.1364H108.317V38.8516C108.317 39.2782 108.409 39.6585 108.594 39.9925C108.783 40.3266 109.047 40.5882 109.385 40.7773C109.723 40.9665 110.116 41.0611 110.562 41.0611C111.009 41.0611 111.399 40.9665 111.733 40.7773C112.072 40.5882 112.335 40.3266 112.524 39.9925C112.713 39.6585 112.808 39.2782 112.808 38.8516V31.1364ZM125.759 37.0586L123.048 37.131C123.02 36.9378 122.944 36.7668 122.819 36.6179C122.694 36.465 122.531 36.3462 122.33 36.2617C122.133 36.1732 121.903 36.1289 121.642 36.1289C121.299 36.1289 121.008 36.1973 120.766 36.3342C120.529 36.471 120.412 36.6561 120.416 36.8895C120.412 37.0707 120.484 37.2276 120.633 37.3604C120.786 37.4932 121.058 37.5999 121.448 37.6804L123.235 38.0185C124.161 38.1955 124.849 38.4893 125.3 38.8998C125.755 39.3104 125.984 39.8537 125.988 40.5298C125.984 41.1657 125.795 41.7191 125.421 42.19C125.05 42.6609 124.543 43.0271 123.899 43.2887C123.255 43.5463 122.519 43.6751 121.69 43.6751C120.366 43.6751 119.321 43.4034 118.557 42.8601C117.796 42.3127 117.361 41.5802 117.253 40.6626L120.169 40.5902C120.233 40.9283 120.4 41.1858 120.67 41.3629C120.939 41.54 121.283 41.6285 121.702 41.6285C122.08 41.6285 122.388 41.5581 122.626 41.4172C122.863 41.2764 122.984 41.0892 122.988 40.8558C122.984 40.6465 122.891 40.4795 122.71 40.3547C122.529 40.226 122.245 40.1253 121.859 40.0529L120.241 39.745C119.311 39.576 118.619 39.2641 118.164 38.8093C117.71 38.3505 117.484 37.7669 117.488 37.0586C117.484 36.4388 117.649 35.9096 117.983 35.4709C118.317 35.0282 118.792 34.6901 119.408 34.4567C120.024 34.2232 120.75 34.1065 121.587 34.1065C122.843 34.1065 123.833 34.3701 124.557 34.8974C125.282 35.4206 125.682 36.141 125.759 37.0586ZM131.776 43.6751C130.806 43.6751 129.969 43.4839 129.265 43.1016C128.564 42.7152 128.025 42.1658 127.647 41.4535C127.273 40.7371 127.085 39.8859 127.085 38.8998C127.085 37.942 127.275 37.1049 127.653 36.3885C128.031 35.6681 128.564 35.1087 129.253 34.7102C129.941 34.3078 130.752 34.1065 131.686 34.1065C132.346 34.1065 132.949 34.2092 133.497 34.4144C134.044 34.6197 134.517 34.9235 134.915 35.326C135.314 35.7284 135.624 36.2255 135.845 36.8171C136.066 37.4047 136.177 38.0788 136.177 38.8395V39.576H128.118V37.8615H133.43C133.426 37.5476 133.352 37.2679 133.207 37.0224C133.062 36.7769 132.863 36.5857 132.609 36.4489C132.36 36.308 132.072 36.2376 131.746 36.2376C131.416 36.2376 131.12 36.312 130.858 36.4609C130.597 36.6058 130.39 36.805 130.237 37.0586C130.084 37.3081 130.003 37.5918 129.995 37.9098V39.6545C129.995 40.0328 130.07 40.3648 130.219 40.6506C130.367 40.9323 130.579 41.1516 130.852 41.3086C131.126 41.4655 131.452 41.544 131.83 41.544C132.092 41.544 132.329 41.5078 132.543 41.4354C132.756 41.3629 132.939 41.2563 133.092 41.1154C133.245 40.9745 133.36 40.8015 133.436 40.5962L136.147 40.6747C136.034 41.2824 135.787 41.8117 135.404 42.2624C135.026 42.7092 134.529 43.0573 133.913 43.3068C133.297 43.5523 132.585 43.6751 131.776 43.6751ZM137.685 43.5V34.2273H140.552V35.9176H140.649C140.818 35.3059 141.094 34.8511 141.476 34.5533C141.858 34.2514 142.303 34.1005 142.81 34.1005C142.947 34.1005 143.088 34.1105 143.233 34.1307C143.378 34.1468 143.512 34.1729 143.637 34.2092V36.7748C143.496 36.7266 143.311 36.6883 143.082 36.6601C142.856 36.632 142.655 36.6179 142.478 36.6179C142.128 36.6179 141.812 36.6964 141.53 36.8533C141.253 37.0063 141.033 37.2216 140.872 37.4993C140.715 37.773 140.637 38.0949 140.637 38.4652V43.5H137.685ZM148.492 43.5V31.1364H153.6C154.525 31.1364 155.324 31.3034 155.996 31.6374C156.672 31.9674 157.194 32.4423 157.56 33.0621C157.926 33.6779 158.109 34.4084 158.109 35.2535C158.109 36.1108 157.922 36.8392 157.548 37.4389C157.173 38.0346 156.642 38.4893 155.954 38.8033C155.266 39.1132 154.451 39.2681 153.509 39.2681H150.279V36.9137H152.954C153.404 36.9137 153.781 36.8553 154.083 36.7386C154.388 36.6179 154.62 36.4368 154.777 36.1953C154.934 35.9498 155.012 35.6359 155.012 35.2535C155.012 34.8712 154.934 34.5553 154.777 34.3057C154.62 34.0522 154.388 33.863 154.083 33.7383C153.777 33.6095 153.4 33.5451 152.954 33.5451H151.481V43.5H148.492ZM155.453 37.8494L158.532 43.5H155.272L152.253 37.8494H155.453ZM163.9 43.6751C162.93 43.6751 162.093 43.4839 161.389 43.1016C160.688 42.7152 160.149 42.1658 159.771 41.4535C159.397 40.7371 159.209 39.8859 159.209 38.8998C159.209 37.942 159.399 37.1049 159.777 36.3885C160.155 35.6681 160.688 35.1087 161.377 34.7102C162.065 34.3078 162.876 34.1065 163.81 34.1065C164.47 34.1065 165.073 34.2092 165.621 34.4144C166.168 34.6197 166.641 34.9235 167.039 35.326C167.438 35.7284 167.748 36.2255 167.969 36.8171C168.19 37.4047 168.301 38.0788 168.301 38.8395V39.576H160.242V37.8615H165.554C165.55 37.5476 165.476 37.2679 165.331 37.0224C165.186 36.7769 164.987 36.5857 164.733 36.4489C164.484 36.308 164.196 36.2376 163.87 36.2376C163.54 36.2376 163.244 36.312 162.982 36.4609C162.721 36.6058 162.514 36.805 162.361 37.0586C162.208 37.3081 162.127 37.5918 162.119 37.9098V39.6545C162.119 40.0328 162.194 40.3648 162.343 40.6506C162.491 40.9323 162.703 41.1516 162.976 41.3086C163.25 41.4655 163.576 41.544 163.954 41.544C164.216 41.544 164.453 41.5078 164.667 41.4354C164.88 41.3629 165.063 41.2563 165.216 41.1154C165.369 40.9745 165.484 40.8015 165.56 40.5962L168.271 40.6747C168.158 41.2824 167.911 41.8117 167.528 42.2624C167.15 42.7092 166.653 43.0573 166.037 43.3068C165.421 43.5523 164.709 43.6751 163.9 43.6751ZM169.809 46.9773V34.2273H172.731V35.815H172.821C172.942 35.5333 173.113 35.2616 173.334 35C173.56 34.7384 173.845 34.5251 174.192 34.3601C174.542 34.191 174.96 34.1065 175.447 34.1065C176.091 34.1065 176.693 34.2756 177.252 34.6136C177.816 34.9517 178.27 35.4729 178.617 36.1772C178.963 36.8815 179.136 37.779 179.136 38.8697C179.136 39.9201 178.969 40.7995 178.635 41.5078C178.305 42.2161 177.858 42.7474 177.295 43.1016C176.735 43.4557 176.113 43.6328 175.429 43.6328C174.962 43.6328 174.558 43.5563 174.216 43.4034C173.874 43.2505 173.586 43.0492 173.352 42.7997C173.123 42.5502 172.946 42.2825 172.821 41.9968H172.761V46.9773H169.809ZM172.7 38.8636C172.7 39.3627 172.767 39.7973 172.9 40.1676C173.036 40.5379 173.232 40.8256 173.485 41.0309C173.743 41.2321 174.051 41.3327 174.409 41.3327C174.771 41.3327 175.079 41.2321 175.333 41.0309C175.586 40.8256 175.777 40.5379 175.906 40.1676C176.039 39.7973 176.105 39.3627 176.105 38.8636C176.105 38.3646 176.039 37.9319 175.906 37.5657C175.777 37.1994 175.586 36.9157 175.333 36.7145C175.083 36.5132 174.775 36.4126 174.409 36.4126C174.047 36.4126 173.739 36.5112 173.485 36.7084C173.232 36.9056 173.036 37.1874 172.9 37.5536C172.767 37.9199 172.7 38.3565 172.7 38.8636ZM185.011 43.6751C184.037 43.6751 183.2 43.4758 182.5 43.0774C181.804 42.6749 181.266 42.1155 180.888 41.3991C180.514 40.6787 180.327 39.8436 180.327 38.8938C180.327 37.94 180.514 37.1049 180.888 36.3885C181.266 35.6681 181.804 35.1087 182.5 34.7102C183.2 34.3078 184.037 34.1065 185.011 34.1065C185.985 34.1065 186.82 34.3078 187.517 34.7102C188.217 35.1087 188.754 35.6681 189.128 36.3885C189.507 37.1049 189.696 37.94 189.696 38.8938C189.696 39.8436 189.507 40.6787 189.128 41.3991C188.754 42.1155 188.217 42.6749 187.517 43.0774C186.82 43.4758 185.985 43.6751 185.011 43.6751ZM185.029 41.4474C185.383 41.4474 185.683 41.3388 185.929 41.1214C186.174 40.9041 186.361 40.6023 186.49 40.2159C186.623 39.8295 186.689 39.3828 186.689 38.8757C186.689 38.3605 186.623 37.9098 186.49 37.5234C186.361 37.1371 186.174 36.8352 185.929 36.6179C185.683 36.4006 185.383 36.2919 185.029 36.2919C184.663 36.2919 184.353 36.4006 184.1 36.6179C183.85 36.8352 183.659 37.1371 183.526 37.5234C183.397 37.9098 183.333 38.3605 183.333 38.8757C183.333 39.3828 183.397 39.8295 183.526 40.2159C183.659 40.6023 183.85 40.9041 184.1 41.1214C184.353 41.3388 184.663 41.4474 185.029 41.4474ZM199.304 37.0586L196.593 37.131C196.565 36.9378 196.488 36.7668 196.364 36.6179C196.239 36.465 196.076 36.3462 195.875 36.2617C195.677 36.1732 195.448 36.1289 195.186 36.1289C194.844 36.1289 194.553 36.1973 194.311 36.3342C194.074 36.471 193.957 36.6561 193.961 36.8895C193.957 37.0707 194.029 37.2276 194.178 37.3604C194.331 37.4932 194.603 37.5999 194.993 37.6804L196.78 38.0185C197.706 38.1955 198.394 38.4893 198.845 38.8998C199.3 39.3104 199.529 39.8537 199.533 40.5298C199.529 41.1657 199.34 41.7191 198.966 42.19C198.595 42.6609 198.088 43.0271 197.444 43.2887C196.8 43.5463 196.064 43.6751 195.235 43.6751C193.911 43.6751 192.866 43.4034 192.102 42.8601C191.341 42.3127 190.906 41.5802 190.798 40.6626L193.713 40.5902C193.778 40.9283 193.945 41.1858 194.215 41.3629C194.484 41.54 194.828 41.6285 195.247 41.6285C195.625 41.6285 195.933 41.5581 196.17 41.4172C196.408 41.2764 196.529 41.0892 196.533 40.8558C196.529 40.6465 196.436 40.4795 196.255 40.3547C196.074 40.226 195.79 40.1253 195.404 40.0529L193.786 39.745C192.856 39.576 192.164 39.2641 191.709 38.8093C191.254 38.3505 191.029 37.7669 191.033 37.0586C191.029 36.4388 191.194 35.9096 191.528 35.4709C191.862 35.0282 192.337 34.6901 192.953 34.4567C193.569 34.2232 194.295 34.1065 195.132 34.1065C196.388 34.1065 197.378 34.3701 198.102 34.8974C198.827 35.4206 199.227 36.141 199.304 37.0586ZM200.986 43.5V34.2273H203.939V43.5H200.986ZM202.465 33.1467C202.051 33.1467 201.695 33.0098 201.397 32.7361C201.099 32.4584 200.95 32.1244 200.95 31.734C200.95 31.3476 201.099 31.0176 201.397 30.744C201.695 30.4663 202.051 30.3274 202.465 30.3274C202.884 30.3274 203.24 30.4663 203.534 30.744C203.832 31.0176 203.981 31.3476 203.981 31.734C203.981 32.1244 203.832 32.4584 203.534 32.7361C203.24 33.0098 202.884 33.1467 202.465 33.1467ZM211.052 34.2273V36.4006H205.202V34.2273H211.052ZM206.427 32.0057H209.379V40.5842C209.379 40.7653 209.407 40.9122 209.464 41.0248C209.524 41.1335 209.611 41.212 209.723 41.2603C209.836 41.3046 209.971 41.3267 210.128 41.3267C210.241 41.3267 210.359 41.3166 210.484 41.2965C210.613 41.2724 210.709 41.2522 210.774 41.2361L211.221 43.3672C211.08 43.4074 210.88 43.4577 210.623 43.5181C210.369 43.5785 210.065 43.6167 209.711 43.6328C209.019 43.665 208.425 43.5845 207.93 43.3913C207.439 43.1941 207.063 42.8882 206.802 42.4737C206.544 42.0592 206.419 41.538 206.427 40.9101V32.0057ZM216.787 43.6751C215.813 43.6751 214.976 43.4758 214.275 43.0774C213.579 42.6749 213.042 42.1155 212.663 41.3991C212.289 40.6787 212.102 39.8436 212.102 38.8938C212.102 37.94 212.289 37.1049 212.663 36.3885C213.042 35.6681 213.579 35.1087 214.275 34.7102C214.976 34.3078 215.813 34.1065 216.787 34.1065C217.761 34.1065 218.596 34.3078 219.292 34.7102C219.992 35.1087 220.53 35.6681 220.904 36.3885C221.282 37.1049 221.471 37.94 221.471 38.8938C221.471 39.8436 221.282 40.6787 220.904 41.3991C220.53 42.1155 219.992 42.6749 219.292 43.0774C218.596 43.4758 217.761 43.6751 216.787 43.6751ZM216.805 41.4474C217.159 41.4474 217.459 41.3388 217.704 41.1214C217.95 40.9041 218.137 40.6023 218.266 40.2159C218.398 39.8295 218.465 39.3828 218.465 38.8757C218.465 38.3605 218.398 37.9098 218.266 37.5234C218.137 37.1371 217.95 36.8352 217.704 36.6179C217.459 36.4006 217.159 36.2919 216.805 36.2919C216.438 36.2919 216.129 36.4006 215.875 36.6179C215.626 36.8352 215.434 37.1371 215.302 37.5234C215.173 37.9098 215.108 38.3605 215.108 38.8757C215.108 39.3828 215.173 39.8295 215.302 40.2159C215.434 40.6023 215.626 40.9041 215.875 41.1214C216.129 41.3388 216.438 41.4474 216.805 41.4474ZM222.984 43.5V34.2273H225.851V35.9176H225.948C226.117 35.3059 226.392 34.8511 226.775 34.5533C227.157 34.2514 227.602 34.1005 228.109 34.1005C228.246 34.1005 228.387 34.1105 228.531 34.1307C228.676 34.1468 228.811 34.1729 228.936 34.2092V36.7748C228.795 36.7266 228.61 36.6883 228.381 36.6601C228.155 36.632 227.954 36.6179 227.777 36.6179C227.427 36.6179 227.111 36.6964 226.829 36.8533C226.551 37.0063 226.332 37.2216 226.171 37.4993C226.014 37.773 225.936 38.0949 225.936 38.4652V43.5H222.984ZM232.226 46.9773C231.872 46.9773 231.538 46.9491 231.224 46.8927C230.91 46.8404 230.64 46.77 230.415 46.6815L231.067 44.5383C231.357 44.6349 231.618 44.6913 231.852 44.7074C232.089 44.7235 232.292 44.6852 232.461 44.5927C232.635 44.5041 232.767 44.3452 232.86 44.1158L232.975 43.8381L229.678 34.2273H232.769L234.478 40.8437H234.574L236.307 34.2273H239.416L235.921 44.3874C235.752 44.8945 235.512 45.3413 235.202 45.7276C234.896 46.118 234.5 46.4239 234.013 46.6452C233.53 46.8666 232.934 46.9773 232.226 46.9773Z" fill="#1793D1"/>
</g>
<defs>
<filter id="filter0_d_1_50" x="6.28571" y="2.28571" width="51.4286" height="51.4286" filterUnits="userSpaceOnUse" color-interpolation-filters="sRGB">
<feFlood flood-opacity="0" result="BackgroundImageFix"/>
<feColorMatrix in="SourceAlpha" type="matrix" values="0 0 0 0 0 0 0 0 0 0 0 0 0 0 0 0 0 0 127 0" result="hardAlpha"/>
<feOffset/>
<feGaussianBlur stdDeviation="2.85714"/>
<feComposite in2="hardAlpha" operator="out"/>
<feColorMatrix type="matrix" values="0 0 0 0 0 0 0 0 0 0 0 0 0 0 0 0 0 0 0.25 0"/>
<feBlend mode="normal" in2="BackgroundImageFix" result="effect1_dropShadow_1_50"/>
<feBlend mode="normal" in="SourceGraphic" in2="effect1_dropShadow_1_50" result="shape"/>
</filter>
<filter id="filter1_d_1_50" x="54.4" y="3.9" width="191.2" height="48.6773" filterUnits="userSpaceOnUse" color-interpolation-filters="sRGB">
<feFlood flood-opacity="0" result="BackgroundImageFix"/>
<feColorMatrix in="SourceAlpha" type="matrix" values="0 0 0 0 0 0 0 0 0 0 0 0 0 0 0 0 0 0 127 0" result="hardAlpha"/>
<feOffset/>
<feGaussianBlur stdDeviation="2.8"/>
<feComposite in2="hardAlpha" operator="out"/>
<feColorMatrix type="matrix" values="0 0 0 0 0 0 0 0 0 0 0 0 0 0 0 0 0 0 0.25 0"/>
<feBlend mode="normal" in2="BackgroundImageFix" result="effect1_dropShadow_1_50"/>
<feBlend mode="normal" in="SourceGraphic" in2="effect1_dropShadow_1_50" result="shape"/>
</filter>
<linearGradient id="paint0_linear_1_50" x1="126" y1="0" x2="126" y2="56" gradientUnits="userSpaceOnUse">
<stop stop-color="#083349"/>
<stop offset="1" stop-color="#062534"/>
</linearGradient>
<clipPath id="clip0_1_50">
<rect width="40" height="40" fill="white" transform="translate(12 8)"/>
</clipPath>
</defs>
</svg>
