<svg width="260" height="40" viewBox="0 0 260 40" fill="none" xmlns="http://www.w3.org/2000/svg">
<rect width="260.001" height="40.0014" rx="8" fill="url(#paint0_linear_1_56)"/>
<rect x="1.07143" y="1.07143" width="257.858" height="37.8585" rx="6.92857" stroke="white" stroke-opacity="0.15" stroke-width="2.14286"/>
<g filter="url(#filter0_d_1_56)">
<path d="M21.9988 6C14.2697 6 8.007 12.2638 8.00233 19.9907H8V30.8255H8.00233C8.00388 31.668 8.33963 32.4754 8.93589 33.0706C9.53215 33.6657 10.3402 34 11.1827 34H22.0035C29.7338 33.9953 35.9953 27.7327 35.9953 20.0035C35.9953 12.2708 29.7303 6 21.9977 6H21.9988ZM24.835 11.7633C27.1858 11.7633 29.4048 13.5635 29.4048 16.0462C29.4048 16.276 29.406 16.507 29.3698 16.7683C29.3542 16.9251 29.3071 17.0771 29.2313 17.2152C29.1555 17.3533 29.0525 17.4747 28.9286 17.572C28.8047 17.6693 28.6624 17.7405 28.5103 17.7815C28.3582 17.8224 28.1993 17.8322 28.0433 17.8102C27.8874 17.7877 27.7377 17.7339 27.6031 17.6521C27.4685 17.5703 27.3518 17.4621 27.2601 17.3341C27.1683 17.206 27.1034 17.0608 27.0692 16.907C27.035 16.7533 27.0322 16.5942 27.061 16.4393C27.0745 16.3087 27.0796 16.1774 27.0762 16.0462C27.0762 14.638 25.9247 14.0955 24.8362 14.0955C23.7465 14.0955 22.7653 15.0102 22.763 16.0462C22.7817 17.2443 22.763 18.4332 22.763 19.6278L24.7837 19.6138C26.361 19.5812 26.3797 21.9577 24.8023 21.9448L22.763 21.96C22.7583 22.9237 22.77 22.7498 22.7653 23.2352C22.7653 23.2352 22.7828 24.4135 22.7467 25.3072C22.5028 27.9322 20.2687 30.0275 17.5853 30.0275C14.741 30.0275 12.396 27.7023 12.396 24.851C12.4812 21.9168 14.8203 19.6103 17.7662 19.6372L19.41 19.6255V21.9542L17.7662 21.9693H17.758C16.1387 22.016 14.7515 23.1173 14.7247 24.851C14.7245 25.226 14.7985 25.5973 14.9424 25.9436C15.0863 26.2899 15.2972 26.6043 15.5631 26.8688C15.829 27.1333 16.1445 27.3425 16.4916 27.4846C16.8386 27.6266 17.2103 27.6987 17.5853 27.6965C19.1673 27.6965 20.4332 26.545 20.4332 24.8533L20.432 16.0368C20.432 15.8735 20.4378 15.7428 20.4553 15.562C20.7237 13.406 22.6522 11.7633 24.835 11.7633Z" fill="#51A2DA"/>
</g>
<g filter="url(#filter1_d_1_56)">
<path d="M44.4041 26.5007H42.424L46.8732 14.1371H49.0284L53.4776 26.5007H51.4975L48.0021 16.3828H47.9055L44.4041 26.5007ZM44.7361 21.6591H51.1594V23.2287H44.7361V21.6591ZM61.8886 17.228L58.526 26.5007H56.5942L53.2256 17.228H55.1634L57.5118 24.3636H57.6084L59.9507 17.228H61.8886ZM66.0178 26.706C65.4302 26.706 64.899 26.5973 64.4241 26.38C63.9492 26.1586 63.5729 25.8386 63.2952 25.4201C63.0215 25.0015 62.8846 24.4884 62.8846 23.8807C62.8846 23.3575 62.9853 22.9268 63.1865 22.5888C63.3877 22.2507 63.6594 21.9831 64.0015 21.7859C64.3436 21.5886 64.7259 21.4397 65.1485 21.3391C65.5711 21.2385 66.0017 21.162 66.4404 21.1097C66.9958 21.0453 67.4466 20.993 67.7927 20.9528C68.1388 20.9085 68.3903 20.8381 68.5473 20.7415C68.7042 20.6449 68.7827 20.4879 68.7827 20.2706V20.2283C68.7827 19.7011 68.6338 19.2926 68.336 19.0028C68.0422 18.7131 67.6035 18.5682 67.0199 18.5682C66.4122 18.5682 65.9333 18.703 65.5832 18.9726C65.237 19.2383 64.9976 19.5341 64.8648 19.8601L63.1684 19.4737C63.3696 18.9103 63.6634 18.4555 64.0498 18.1094C64.4402 17.7592 64.8889 17.5057 65.396 17.3487C65.9031 17.1877 66.4364 17.1072 66.9958 17.1072C67.3661 17.1072 67.7585 17.1515 68.173 17.24C68.5916 17.3246 68.9819 17.4815 69.3442 17.7109C69.7104 17.9403 70.0102 18.2683 70.2437 18.6949C70.4771 19.1175 70.5938 19.6669 70.5938 20.343V26.5007H68.831V25.2329H68.7586C68.6419 25.4664 68.4668 25.6958 68.2334 25.9212C67.9999 26.1465 67.7001 26.3337 67.3339 26.4826C66.9676 26.6315 66.5289 26.706 66.0178 26.706ZM66.4102 25.2571C66.9093 25.2571 67.3359 25.1585 67.69 24.9613C68.0482 24.7641 68.3199 24.5065 68.505 24.1886C68.6942 23.8666 68.7888 23.5225 68.7888 23.1562V21.9609C68.7244 22.0253 68.5996 22.0857 68.4145 22.142C68.2334 22.1944 68.0261 22.2406 67.7927 22.2809C67.5592 22.3171 67.3319 22.3513 67.1105 22.3835C66.8891 22.4117 66.704 22.4358 66.5551 22.456C66.205 22.5002 65.885 22.5747 65.5952 22.6793C65.3095 22.784 65.0801 22.9349 64.907 23.1321C64.738 23.3253 64.6535 23.5828 64.6535 23.9048C64.6535 24.3515 64.8185 24.6896 65.1485 24.919C65.4785 25.1444 65.8991 25.2571 66.4102 25.2571ZM72.998 26.5007V17.228H74.8031V26.5007H72.998ZM73.9096 15.7972C73.5957 15.7972 73.326 15.6926 73.1006 15.4833C72.8793 15.27 72.7686 15.0164 72.7686 14.7226C72.7686 14.4248 72.8793 14.1713 73.1006 13.962C73.326 13.7487 73.5957 13.642 73.9096 13.642C74.2235 13.642 74.4911 13.7487 74.7125 13.962C74.9379 14.1713 75.0506 14.4248 75.0506 14.7226C75.0506 15.0164 74.9379 15.27 74.7125 15.4833C74.4911 15.6926 74.2235 15.7972 73.9096 15.7972ZM79.0365 14.1371V26.5007H77.2314V14.1371H79.0365ZM84.1633 26.706C83.5757 26.706 83.0445 26.5973 82.5696 26.38C82.0947 26.1586 81.7184 25.8386 81.4407 25.4201C81.167 25.0015 81.0301 24.4884 81.0301 23.8807C81.0301 23.3575 81.1308 22.9268 81.332 22.5888C81.5332 22.2507 81.8049 21.9831 82.147 21.7859C82.4891 21.5886 82.8714 21.4397 83.294 21.3391C83.7166 21.2385 84.1472 21.162 84.5859 21.1097C85.1413 21.0453 85.5921 20.993 85.9382 20.9528C86.2843 20.9085 86.5358 20.8381 86.6928 20.7415C86.8497 20.6449 86.9282 20.4879 86.9282 20.2706V20.2283C86.9282 19.7011 86.7793 19.2926 86.4815 19.0028C86.1877 18.7131 85.749 18.5682 85.1654 18.5682C84.5577 18.5682 84.0788 18.703 83.7287 18.9726C83.3825 19.2383 83.1431 19.5341 83.0103 19.8601L81.3139 19.4737C81.5151 18.9103 81.8089 18.4555 82.1953 18.1094C82.5857 17.7592 83.0344 17.5057 83.5415 17.3487C84.0486 17.1877 84.5819 17.1072 85.1413 17.1072C85.5116 17.1072 85.904 17.1515 86.3185 17.24C86.7371 17.3246 87.1274 17.4815 87.4897 17.7109C87.8559 17.9403 88.1557 18.2683 88.3892 18.6949C88.6226 19.1175 88.7393 19.6669 88.7393 20.343V26.5007H86.9765V25.2329H86.9041C86.7874 25.4664 86.6123 25.6958 86.3789 25.9212C86.1454 26.1465 85.8456 26.3337 85.4794 26.4826C85.1131 26.6315 84.6744 26.706 84.1633 26.706ZM84.5557 25.2571C85.0548 25.2571 85.4814 25.1585 85.8355 24.9613C86.1937 24.7641 86.4654 24.5065 86.6505 24.1886C86.8397 23.8666 86.9343 23.5225 86.9343 23.1562V21.9609C86.8699 22.0253 86.7451 22.0857 86.56 22.142C86.3789 22.1944 86.1716 22.2406 85.9382 22.2809C85.7047 22.3171 85.4774 22.3513 85.256 22.3835C85.0346 22.4117 84.8495 22.4358 84.7006 22.456C84.3505 22.5002 84.0305 22.5747 83.7407 22.6793C83.455 22.784 83.2256 22.9349 83.0525 23.1321C82.8835 23.3253 82.799 23.5828 82.799 23.9048C82.799 24.3515 82.964 24.6896 83.294 24.919C83.624 25.1444 84.0446 25.2571 84.5557 25.2571ZM91.2884 26.5007V14.1371H93.0934V18.7312H93.2021C93.3067 18.538 93.4577 18.3146 93.6549 18.0611C93.8521 17.8075 94.1258 17.5862 94.4759 17.397C94.826 17.2038 95.2889 17.1072 95.8644 17.1072C96.613 17.1072 97.2811 17.2964 97.8687 17.6747C98.4563 18.053 98.9171 18.5984 99.2511 19.3107C99.5892 20.0231 99.7582 20.8803 99.7582 21.8824C99.7582 22.8846 99.5912 23.7438 99.2571 24.4602C98.9231 25.1726 98.4643 25.7219 97.8807 26.1083C97.2972 26.4906 96.6311 26.6818 95.8825 26.6818C95.3191 26.6818 94.8582 26.5872 94.5 26.3981C94.1459 26.2089 93.8682 25.9876 93.667 25.734C93.4657 25.4805 93.3108 25.2551 93.2021 25.0579H93.0512V26.5007H91.2884ZM93.0572 21.8643C93.0572 22.5163 93.1518 23.0878 93.341 23.5788C93.5301 24.0698 93.8038 24.4542 94.162 24.7319C94.5202 25.0056 94.9589 25.1424 95.478 25.1424C96.0173 25.1424 96.4681 24.9995 96.8303 24.7138C97.1925 24.424 97.4662 24.0316 97.6513 23.5366C97.8405 23.0415 97.9351 22.4841 97.9351 21.8643C97.9351 21.2526 97.8425 20.7032 97.6574 20.2163C97.4763 19.7293 97.2026 19.3449 96.8363 19.0632C96.4741 18.7815 96.0214 18.6406 95.478 18.6406C94.9548 18.6406 94.5121 18.7754 94.1499 19.0451C93.7917 19.3147 93.5201 19.691 93.3349 20.174C93.1498 20.6569 93.0572 21.2204 93.0572 21.8643ZM103.59 14.1371V26.5007H101.785V14.1371H103.59ZM110.015 26.6878C109.101 26.6878 108.315 26.4926 107.655 26.1023C106.999 25.7078 106.491 25.1545 106.133 24.4421C105.779 23.7257 105.602 22.8866 105.602 21.9247C105.602 20.9749 105.779 20.1378 106.133 19.4133C106.491 18.6889 106.99 18.1234 107.63 17.717C108.274 17.3105 109.027 17.1072 109.888 17.1072C110.411 17.1072 110.918 17.1938 111.409 17.3668C111.9 17.5399 112.341 17.8115 112.732 18.1818C113.122 18.5521 113.43 19.033 113.655 19.6246C113.881 20.2122 113.993 20.9266 113.993 21.7677V22.4077H106.622V21.0554H112.224C112.224 20.5805 112.128 20.1599 111.935 19.7937C111.742 19.4234 111.47 19.1316 111.12 18.9183C110.774 18.705 110.367 18.5984 109.9 18.5984C109.393 18.5984 108.95 18.7231 108.572 18.9726C108.198 19.2181 107.908 19.5401 107.703 19.9386C107.502 20.333 107.401 20.7616 107.401 21.2244V22.2809C107.401 22.9007 107.51 23.4279 107.727 23.8626C107.948 24.2972 108.256 24.6292 108.651 24.8587C109.045 25.084 109.506 25.1967 110.033 25.1967C110.375 25.1967 110.687 25.1484 110.969 25.0518C111.251 24.9512 111.494 24.8023 111.699 24.6051C111.905 24.4079 112.061 24.1644 112.17 23.8746L113.879 24.1825C113.742 24.6856 113.496 25.1263 113.142 25.5046C112.792 25.8789 112.351 26.1707 111.82 26.38C111.293 26.5852 110.691 26.6878 110.015 26.6878ZM124.401 26.6878C123.532 26.6878 122.773 26.4886 122.125 26.0902C121.477 25.6917 120.974 25.1343 120.616 24.418C120.258 23.7016 120.079 22.8645 120.079 21.9066C120.079 20.9447 120.258 20.1036 120.616 19.3832C120.974 18.6627 121.477 18.1033 122.125 17.7049C122.773 17.3065 123.532 17.1072 124.401 17.1072C125.27 17.1072 126.029 17.3065 126.677 17.7049C127.325 18.1033 127.828 18.6627 128.186 19.3832C128.544 20.1036 128.723 20.9447 128.723 21.9066C128.723 22.8645 128.544 23.7016 128.186 24.418C127.828 25.1343 127.325 25.6917 126.677 26.0902C126.029 26.4886 125.27 26.6878 124.401 26.6878ZM124.407 25.1726C124.97 25.1726 125.437 25.0237 125.808 24.7258C126.178 24.428 126.452 24.0316 126.629 23.5366C126.81 23.0415 126.9 22.4962 126.9 21.9006C126.9 21.3089 126.81 20.7656 126.629 20.2706C126.452 19.7715 126.178 19.3711 125.808 19.0692C125.437 18.7674 124.97 18.6165 124.407 18.6165C123.84 18.6165 123.369 18.7674 122.994 19.0692C122.624 19.3711 122.348 19.7715 122.167 20.2706C121.99 20.7656 121.902 21.3089 121.902 21.9006C121.902 22.4962 121.99 23.0415 122.167 23.5366C122.348 24.0316 122.624 24.428 122.994 24.7258C123.369 25.0237 123.84 25.1726 124.407 25.1726ZM132.543 20.995V26.5007H130.738V17.228H132.471V18.7372H132.586C132.799 18.2462 133.133 17.8518 133.588 17.554C134.046 17.2561 134.624 17.1072 135.32 17.1072C135.952 17.1072 136.506 17.24 136.98 17.5057C137.455 17.7673 137.824 18.1577 138.085 18.6768C138.347 19.196 138.478 19.8379 138.478 20.6026V26.5007H136.673V20.8199C136.673 20.1478 136.497 19.6226 136.147 19.2443C135.797 18.862 135.316 18.6708 134.704 18.6708C134.286 18.6708 133.914 18.7614 133.588 18.9425C133.266 19.1236 133.01 19.3892 132.821 19.7393C132.636 20.0855 132.543 20.504 132.543 20.995Z" fill="#E8E8E8"/>
<path d="M144.937 26.0007V13.6371H153.377V16.0639H147.925V18.5994H152.839V21.0323H147.925V26.0007H144.937ZM158.535 26.1758C157.565 26.1758 156.728 25.9846 156.024 25.6023C155.324 25.2159 154.784 24.6665 154.406 23.9542C154.032 23.2378 153.845 22.3866 153.845 21.4006C153.845 20.4427 154.034 19.6056 154.412 18.8892C154.79 18.1688 155.324 17.6094 156.012 17.2109C156.7 16.8085 157.511 16.6072 158.445 16.6072C159.105 16.6072 159.708 16.7099 160.256 16.9151C160.803 17.1204 161.276 17.4242 161.674 17.8267C162.073 18.2292 162.383 18.7262 162.604 19.3178C162.826 19.9054 162.936 20.5795 162.936 21.3402V22.0767H154.877V20.3622H160.189C160.185 20.0483 160.111 19.7686 159.966 19.5231C159.821 19.2776 159.622 19.0864 159.368 18.9496C159.119 18.8087 158.831 18.7383 158.505 18.7383C158.175 18.7383 157.879 18.8127 157.618 18.9616C157.356 19.1065 157.149 19.3057 156.996 19.5593C156.843 19.8088 156.762 20.0926 156.754 20.4105V22.1552C156.754 22.5335 156.829 22.8655 156.978 23.1513C157.127 23.433 157.338 23.6523 157.612 23.8093C157.885 23.9663 158.211 24.0447 158.59 24.0447C158.851 24.0447 159.089 24.0085 159.302 23.9361C159.515 23.8636 159.698 23.757 159.851 23.6161C160.004 23.4752 160.119 23.3022 160.195 23.0969L162.906 23.1754C162.793 23.7831 162.546 24.3124 162.163 24.7631C161.785 25.2099 161.288 25.558 160.672 25.8075C160.057 26.053 159.344 26.1758 158.535 26.1758ZM167.831 26.1335C167.146 26.1335 166.525 25.9564 165.965 25.6023C165.406 25.2481 164.959 24.7168 164.625 24.0085C164.291 23.3002 164.124 22.4208 164.124 21.3704C164.124 20.2797 164.297 19.3822 164.643 18.6779C164.989 17.9736 165.442 17.4524 166.001 17.1143C166.565 16.7763 167.171 16.6072 167.819 16.6072C168.306 16.6072 168.722 16.6918 169.068 16.8608C169.414 17.0258 169.7 17.2391 169.925 17.5007C170.151 17.7623 170.322 18.034 170.439 18.3157H170.499V13.6371H173.451V26.0007H170.529V24.4975H170.439C170.314 24.7832 170.137 25.0509 169.907 25.3004C169.678 25.5499 169.39 25.7512 169.044 25.9041C168.702 26.057 168.298 26.1335 167.831 26.1335ZM168.857 23.8334C169.215 23.8334 169.521 23.7328 169.775 23.5316C170.028 23.3263 170.223 23.0386 170.36 22.6683C170.497 22.298 170.565 21.8634 170.565 21.3643C170.565 20.8572 170.497 20.4206 170.36 20.0543C170.227 19.6881 170.032 19.4064 169.775 19.2092C169.521 19.0119 169.215 18.9133 168.857 18.9133C168.491 18.9133 168.181 19.014 167.927 19.2152C167.674 19.4164 167.481 19.7002 167.348 20.0664C167.219 20.4326 167.155 20.8653 167.155 21.3643C167.155 21.8634 167.221 22.298 167.354 22.6683C167.487 23.0386 167.678 23.3263 167.927 23.5316C168.181 23.7328 168.491 23.8334 168.857 23.8334ZM179.646 26.1758C178.672 26.1758 177.835 25.9765 177.135 25.5781C176.439 25.1757 175.902 24.6162 175.523 23.8998C175.149 23.1794 174.962 22.3443 174.962 21.3945C174.962 20.4407 175.149 19.6056 175.523 18.8892C175.902 18.1688 176.439 17.6094 177.135 17.2109C177.835 16.8085 178.672 16.6072 179.646 16.6072C180.62 16.6072 181.455 16.8085 182.152 17.2109C182.852 17.6094 183.389 18.1688 183.764 18.8892C184.142 19.6056 184.331 20.4407 184.331 21.3945C184.331 22.3443 184.142 23.1794 183.764 23.8998C183.389 24.6162 182.852 25.1757 182.152 25.5781C181.455 25.9765 180.62 26.1758 179.646 26.1758ZM179.665 23.9481C180.019 23.9481 180.319 23.8395 180.564 23.6221C180.81 23.4048 180.997 23.103 181.125 22.7166C181.258 22.3302 181.325 21.8835 181.325 21.3764C181.325 20.8613 181.258 20.4105 181.125 20.0241C180.997 19.6378 180.81 19.3359 180.564 19.1186C180.319 18.9013 180.019 18.7926 179.665 18.7926C179.298 18.7926 178.988 18.9013 178.735 19.1186C178.485 19.3359 178.294 19.6378 178.161 20.0241C178.033 20.4105 177.968 20.8613 177.968 21.3764C177.968 21.8835 178.033 22.3302 178.161 22.7166C178.294 23.103 178.485 23.4048 178.735 23.6221C178.988 23.8395 179.298 23.9481 179.665 23.9481ZM185.843 26.0007V16.728H188.711V18.4183H188.807C188.977 17.8066 189.252 17.3518 189.635 17.054C190.017 16.7521 190.462 16.6012 190.969 16.6012C191.106 16.6012 191.246 16.6113 191.391 16.6314C191.536 16.6475 191.671 16.6736 191.796 16.7099V19.2756C191.655 19.2273 191.47 19.189 191.24 19.1609C191.015 19.1327 190.814 19.1186 190.637 19.1186C190.287 19.1186 189.971 19.1971 189.689 19.354C189.411 19.507 189.192 19.7223 189.031 20C188.874 20.2737 188.795 20.5956 188.795 20.9659V26.0007H185.843ZM195.264 26.1577C194.672 26.1577 194.147 26.0591 193.688 25.8618C193.234 25.6606 192.873 25.3588 192.608 24.9563C192.346 24.5498 192.215 24.0407 192.215 23.429C192.215 22.9138 192.306 22.4792 192.487 22.125C192.668 21.7708 192.918 21.4831 193.236 21.2617C193.554 21.0404 193.92 20.8733 194.334 20.7606C194.749 20.6439 195.192 20.5654 195.662 20.5252C196.19 20.4769 196.614 20.4266 196.936 20.3743C197.258 20.3179 197.492 20.2395 197.636 20.1388C197.785 20.0342 197.86 19.8873 197.86 19.6981V19.668C197.86 19.3581 197.753 19.1186 197.54 18.9496C197.327 18.7805 197.039 18.696 196.677 18.696C196.286 18.696 195.972 18.7805 195.735 18.9496C195.497 19.1186 195.346 19.352 195.282 19.6498L192.559 19.5533C192.64 18.9898 192.847 18.4867 193.181 18.044C193.519 17.5973 193.982 17.2471 194.57 16.9936C195.161 16.736 195.872 16.6072 196.701 16.6072C197.292 16.6072 197.838 16.6777 198.337 16.8185C198.836 16.9554 199.27 17.1566 199.641 17.4222C200.011 17.6838 200.297 18.0058 200.498 18.3881C200.703 18.7705 200.806 19.2071 200.806 19.6981V26.0007H198.029V24.7088H197.956C197.791 25.0227 197.58 25.2883 197.323 25.5057C197.069 25.723 196.769 25.886 196.423 25.9947C196.081 26.1033 195.695 26.1577 195.264 26.1577ZM196.176 24.2258C196.493 24.2258 196.779 24.1614 197.033 24.0327C197.29 23.9039 197.496 23.7268 197.649 23.5014C197.801 23.272 197.878 23.0064 197.878 22.7045V21.8231C197.793 21.8674 197.691 21.9077 197.57 21.9439C197.453 21.9801 197.325 22.0143 197.184 22.0465C197.043 22.0787 196.898 22.1069 196.749 22.131C196.6 22.1552 196.457 22.1773 196.32 22.1974C196.043 22.2417 195.805 22.3101 195.608 22.4027C195.415 22.4953 195.266 22.616 195.161 22.7649C195.061 22.9098 195.01 23.0828 195.01 23.2841C195.01 23.59 195.119 23.8234 195.336 23.9844C195.558 24.1453 195.837 24.2258 196.176 24.2258ZM206.263 26.0007V13.6371H209.252V23.5739H214.395V26.0007H206.263ZM215.942 26.0007V16.728H218.894V26.0007H215.942ZM217.421 15.6474C217.006 15.6474 216.65 15.5105 216.352 15.2369C216.055 14.9592 215.906 14.6251 215.906 14.2347C215.906 13.8484 216.055 13.5183 216.352 13.2447C216.65 12.967 217.006 12.8281 217.421 12.8281C217.84 12.8281 218.196 12.967 218.49 13.2447C218.787 13.5183 218.936 13.8484 218.936 14.2347C218.936 14.6251 218.787 14.9592 218.49 15.2369C218.196 15.5105 217.84 15.6474 217.421 15.6474ZM223.725 20.7123V26.0007H220.773V16.728H223.58V18.4304H223.683C223.888 17.8629 224.238 17.4182 224.733 17.0962C225.228 16.7702 225.818 16.6072 226.502 16.6072C227.154 16.6072 227.72 16.7541 228.198 17.0479C228.681 17.3377 229.056 17.7442 229.321 18.2674C229.591 18.7866 229.724 19.3943 229.72 20.0905V26.0007H226.768V20.6701C226.772 20.1549 226.641 19.7525 226.375 19.4627C226.114 19.1729 225.749 19.028 225.283 19.028C224.973 19.028 224.699 19.0965 224.462 19.2333C224.228 19.3661 224.047 19.5573 223.918 19.8068C223.793 20.0563 223.729 20.3582 223.725 20.7123ZM237.53 21.9982V16.728H240.476V26.0007H237.663V24.2741H237.566C237.361 24.8416 237.011 25.2924 236.516 25.6264C236.025 25.9564 235.431 26.1214 234.735 26.1214C234.103 26.1214 233.548 25.9765 233.069 25.6868C232.59 25.397 232.218 24.9925 231.952 24.4734C231.686 23.9502 231.551 23.3384 231.547 22.6381V16.728H234.499V22.0586C234.504 22.5617 234.636 22.9581 234.898 23.2479C235.16 23.5376 235.516 23.6825 235.966 23.6825C236.26 23.6825 236.524 23.6181 236.757 23.4893C236.995 23.3565 237.182 23.1654 237.319 22.9158C237.46 22.6623 237.53 22.3564 237.53 21.9982ZM244.866 16.728L246.394 19.7827L247.975 16.728H250.952L248.362 21.3643L251.048 26.0007H248.096L246.394 22.9219L244.734 26.0007H241.739L244.432 21.3643L241.872 16.728H244.866Z" fill="#51A2DA"/>
</g>
<defs>
<filter id="filter0_d_1_56" x="2.39972" y="0.39972" width="39.202" height="39.202" filterUnits="userSpaceOnUse" color-interpolation-filters="sRGB">
<feFlood flood-opacity="0" result="BackgroundImageFix"/>
<feColorMatrix in="SourceAlpha" type="matrix" values="0 0 0 0 0 0 0 0 0 0 0 0 0 0 0 0 0 0 127 0" result="hardAlpha"/>
<feOffset/>
<feGaussianBlur stdDeviation="2.80014"/>
<feComposite in2="hardAlpha" operator="out"/>
<feColorMatrix type="matrix" values="0 0 0 0 0 0 0 0 0 0 0 0 0 0 0 0 0 0 0.25 0"/>
<feBlend mode="normal" in2="BackgroundImageFix" result="effect1_dropShadow_1_56"/>
<feBlend mode="normal" in="SourceGraphic" in2="effect1_dropShadow_1_56" result="shape"/>
</filter>
<filter id="filter1_d_1_56" x="36.2871" y="3.78642" width="221.429" height="32.4286" filterUnits="userSpaceOnUse" color-interpolation-filters="sRGB">
<feFlood flood-opacity="0" result="BackgroundImageFix"/>
<feColorMatrix in="SourceAlpha" type="matrix" values="0 0 0 0 0 0 0 0 0 0 0 0 0 0 0 0 0 0 127 0" result="hardAlpha"/>
<feOffset/>
<feGaussianBlur stdDeviation="2.85714"/>
<feComposite in2="hardAlpha" operator="out"/>
<feColorMatrix type="matrix" values="0 0 0 0 0 0 0 0 0 0 0 0 0 0 0 0 0 0 0.25 0"/>
<feBlend mode="normal" in2="BackgroundImageFix" result="effect1_dropShadow_1_56"/>
<feBlend mode="normal" in="SourceGraphic" in2="effect1_dropShadow_1_56" result="shape"/>
</filter>
<linearGradient id="paint0_linear_1_56" x1="130.001" y1="0" x2="130.001" y2="40.0014" gradientUnits="userSpaceOnUse">
<stop stop-color="#184B6F"/>
<stop offset="1" stop-color="#10324A"/>
</linearGradient>
</defs>
</svg>
