<svg width="40" height="40" viewBox="0 0 40 40" fill="none" xmlns="http://www.w3.org/2000/svg">
<rect width="40" height="40" rx="8" fill="url(#paint0_linear_1_68)"/>
<rect x="1.05" y="1.05" width="37.9" height="37.9" rx="6.95" stroke="white" stroke-opacity="0.15" stroke-width="2.1"/>
<g filter="url(#filter0_d_1_68)">
<path d="M19.9988 6C12.2697 6 6.007 12.2638 6.00233 19.9907H6V30.8255H6.00233C6.00388 31.668 6.33963 32.4754 6.93589 33.0706C7.53215 33.6657 8.3402 34 9.18267 34H20.0035C27.7338 33.9953 33.9953 27.7327 33.9953 20.0035C33.9953 12.2708 27.7303 6 19.9977 6H19.9988ZM22.835 11.7633C25.1858 11.7633 27.4048 13.5635 27.4048 16.0462C27.4048 16.276 27.406 16.507 27.3698 16.7683C27.3542 16.9251 27.3071 17.0771 27.2313 17.2152C27.1555 17.3533 27.0525 17.4747 26.9286 17.572C26.8047 17.6693 26.6624 17.7405 26.5103 17.7815C26.3582 17.8224 26.1993 17.8322 26.0433 17.8102C25.8874 17.7877 25.7377 17.7339 25.6031 17.6521C25.4685 17.5703 25.3518 17.4621 25.2601 17.3341C25.1683 17.206 25.1034 17.0608 25.0692 16.907C25.035 16.7533 25.0322 16.5942 25.061 16.4393C25.0745 16.3087 25.0796 16.1774 25.0762 16.0462C25.0762 14.638 23.9247 14.0955 22.8362 14.0955C21.7465 14.0955 20.7653 15.0102 20.763 16.0462C20.7817 17.2443 20.763 18.4332 20.763 19.6278L22.7837 19.6138C24.361 19.5812 24.3797 21.9577 22.8023 21.9448L20.763 21.96C20.7583 22.9237 20.77 22.7498 20.7653 23.2352C20.7653 23.2352 20.7828 24.4135 20.7467 25.3072C20.5028 27.9322 18.2687 30.0275 15.5853 30.0275C12.741 30.0275 10.396 27.7023 10.396 24.851C10.4812 21.9168 12.8203 19.6103 15.7662 19.6372L17.41 19.6255V21.9542L15.7662 21.9693H15.758C14.1387 22.016 12.7515 23.1173 12.7247 24.851C12.7245 25.226 12.7985 25.5973 12.9424 25.9436C13.0863 26.2899 13.2972 26.6043 13.5631 26.8688C13.829 27.1333 14.1445 27.3425 14.4916 27.4846C14.8386 27.6266 15.2103 27.6987 15.5853 27.6965C17.1673 27.6965 18.4332 26.545 18.4332 24.8533L18.432 16.0368C18.432 15.8735 18.4378 15.7428 18.4553 15.562C18.7237 13.406 20.6522 11.7633 22.835 11.7633Z" fill="#51A2DA"/>
</g>
<defs>
<filter id="filter0_d_1_68" x="2" y="2" width="36" height="36" filterUnits="userSpaceOnUse" color-interpolation-filters="sRGB">
<feFlood flood-opacity="0" result="BackgroundImageFix"/>
<feColorMatrix in="SourceAlpha" type="matrix" values="0 0 0 0 0 0 0 0 0 0 0 0 0 0 0 0 0 0 127 0" result="hardAlpha"/>
<feOffset/>
<feGaussianBlur stdDeviation="2"/>
<feComposite in2="hardAlpha" operator="out"/>
<feColorMatrix type="matrix" values="0 0 0 0 0 0 0 0 0 0 0 0 0 0 0 0 0 0 0.25 0"/>
<feBlend mode="normal" in2="BackgroundImageFix" result="effect1_dropShadow_1_68"/>
<feBlend mode="normal" in="SourceGraphic" in2="effect1_dropShadow_1_68" result="shape"/>
</filter>
<linearGradient id="paint0_linear_1_68" x1="20" y1="0" x2="20" y2="40" gradientUnits="userSpaceOnUse">
<stop stop-color="#184B6F"/>
<stop offset="1" stop-color="#10324A"/>
</linearGradient>
</defs>
</svg>
