<svg width="180" height="56" viewBox="0 0 180 56" fill="none" xmlns="http://www.w3.org/2000/svg">
<rect width="180" height="56" rx="8" fill="url(#paint0_linear_1_50)"/>
<rect x="1.05" y="1.05" width="177.9" height="53.9" rx="6.95" stroke="white" stroke-opacity="0.15" stroke-width="2.1"/>
<g filter="url(#filter0_d_1_50)">
<path d="M31.9983 8C20.9567 8 12.01 16.9483 12.0033 27.9867H12V43.465H12.0033C12.0055 44.6685 12.4852 45.822 13.337 46.6722C14.1888 47.5225 15.3431 48 16.5467 48H32.005C43.0483 47.9933 51.9933 39.0467 51.9933 28.005C51.9933 16.9583 43.0433 8 31.9967 8H31.9983ZM36.05 16.2333C39.4083 16.2333 42.5783 18.805 42.5783 22.3517C42.5783 22.68 42.58 23.01 42.5283 23.3833C42.5061 23.6073 42.4387 23.8244 42.3304 24.0217C42.2221 24.219 42.075 24.3924 41.898 24.5314C41.721 24.6704 41.5178 24.7722 41.3004 24.8307C41.0831 24.8892 40.8562 24.9031 40.6333 24.8717C40.4106 24.8395 40.1967 24.7627 40.0044 24.6458C39.8121 24.529 39.6454 24.3744 39.5144 24.1915C39.3833 24.0086 39.2906 23.8011 39.2417 23.5815C39.1928 23.3618 39.1888 23.1346 39.23 22.9133C39.2493 22.7268 39.2566 22.5392 39.2517 22.3517C39.2517 20.34 37.6067 19.565 36.0517 19.565C34.495 19.565 33.0933 20.8717 33.09 22.3517C33.1167 24.0633 33.09 25.7617 33.09 27.4683L35.9767 27.4483C38.23 27.4017 38.2567 30.7967 36.0033 30.7783L33.09 30.8C33.0833 32.1767 33.1 31.9283 33.0933 32.6217C33.0933 32.6217 33.1183 34.305 33.0667 35.5817C32.7183 39.3317 29.5267 42.325 25.6933 42.325C21.63 42.325 18.28 39.0033 18.28 34.93C18.4017 30.7383 21.7433 27.4433 25.9517 27.4817L28.3 27.465V30.7917L25.9517 30.8133H25.94C23.6267 30.88 21.645 32.4533 21.6067 34.93C21.6064 35.4657 21.7121 35.9962 21.9177 36.4909C22.1233 36.9856 22.4246 37.4348 22.8044 37.8126C23.1842 38.1904 23.635 38.4893 24.1308 38.6923C24.6266 38.8952 25.1576 38.9981 25.6933 38.995C27.9533 38.995 29.7617 37.35 29.7617 34.9333L29.76 22.3383C29.76 22.105 29.7683 21.9183 29.7933 21.66C30.1767 18.58 32.9317 16.2333 36.05 16.2333Z" fill="#51A2DA"/>
</g>
<g filter="url(#filter1_d_1_50)">
<path d="M62.2613 24.5H60.3977L64.5852 12.8636H66.6136L70.8011 24.5H68.9375L65.6477 14.9773H65.5568L62.2613 24.5ZM62.5738 19.9432H68.6193V21.4204H62.5738V19.9432ZM78.7173 15.7727L75.5525 24.5H73.7344L70.5639 15.7727H72.3878L74.598 22.4886H74.6889L76.8934 15.7727H78.7173ZM82.6037 24.6932C82.0506 24.6932 81.5506 24.5909 81.1037 24.3864C80.6567 24.178 80.3025 23.8769 80.0412 23.4829C79.7836 23.089 79.6548 22.6061 79.6548 22.0341C79.6548 21.5417 79.7495 21.1364 79.9389 20.8182C80.1283 20.5 80.384 20.2481 80.7059 20.0625C81.0279 19.8769 81.3878 19.7367 81.7855 19.642C82.1832 19.5473 82.5885 19.4754 83.0014 19.4261C83.5241 19.3655 83.9484 19.3163 84.2741 19.2784C84.5999 19.2367 84.8366 19.1704 84.9844 19.0795C85.1321 18.9886 85.2059 18.8409 85.2059 18.6364V18.5966C85.2059 18.1004 85.0658 17.7159 84.7855 17.4432C84.509 17.1704 84.0961 17.0341 83.5469 17.0341C82.9749 17.0341 82.5241 17.161 82.1946 17.4148C81.8688 17.6648 81.6434 17.9432 81.5184 18.25L79.9219 17.8864C80.1112 17.3561 80.3878 16.928 80.7514 16.6023C81.1188 16.2727 81.5412 16.0341 82.0184 15.8864C82.4957 15.7348 82.9976 15.6591 83.5241 15.6591C83.8726 15.6591 84.2419 15.7008 84.6321 15.7841C85.026 15.8636 85.3934 16.0114 85.7344 16.2273C86.079 16.4432 86.3612 16.7519 86.5809 17.1534C86.8006 17.5511 86.9105 18.0682 86.9105 18.7045V24.5H85.2514V23.3068H85.1832C85.0734 23.5265 84.9086 23.7424 84.6889 23.9545C84.4692 24.1667 84.187 24.3428 83.8423 24.4829C83.4976 24.6231 83.0847 24.6932 82.6037 24.6932ZM82.973 23.3295C83.4427 23.3295 83.8442 23.2367 84.1775 23.0511C84.5147 22.8655 84.7703 22.6231 84.9446 22.3239C85.1226 22.0208 85.2116 21.697 85.2116 21.3523V20.2273C85.151 20.2879 85.0336 20.3447 84.8594 20.3977C84.6889 20.447 84.4938 20.4905 84.2741 20.5284C84.0544 20.5625 83.8404 20.5947 83.6321 20.625C83.4237 20.6515 83.2495 20.6742 83.1094 20.6932C82.7798 20.7348 82.4787 20.8049 82.2059 20.9034C81.937 21.0019 81.7211 21.1439 81.5582 21.3295C81.3991 21.5114 81.3196 21.7538 81.3196 22.0568C81.3196 22.4773 81.4749 22.7954 81.7855 23.0114C82.0961 23.2235 82.4919 23.3295 82.973 23.3295ZM89.1733 24.5V15.7727H90.8721V24.5H89.1733ZM90.0312 14.4261C89.7358 14.4261 89.482 14.3276 89.2699 14.1307C89.0615 13.9299 88.9574 13.6913 88.9574 13.4148C88.9574 13.1345 89.0615 12.8958 89.2699 12.6989C89.482 12.4981 89.7358 12.3977 90.0312 12.3977C90.3267 12.3977 90.5786 12.4981 90.7869 12.6989C90.999 12.8958 91.1051 13.1345 91.1051 13.4148C91.1051 13.6913 90.999 13.9299 90.7869 14.1307C90.5786 14.3276 90.3267 14.4261 90.0312 14.4261ZM94.8565 12.8636V24.5H93.1576V12.8636H94.8565ZM99.6818 24.6932C99.1288 24.6932 98.6288 24.5909 98.1818 24.3864C97.7348 24.178 97.3807 23.8769 97.1193 23.4829C96.8617 23.089 96.7329 22.6061 96.7329 22.0341C96.7329 21.5417 96.8276 21.1364 97.017 20.8182C97.2064 20.5 97.4621 20.2481 97.7841 20.0625C98.106 19.8769 98.4659 19.7367 98.8636 19.642C99.2613 19.5473 99.6666 19.4754 100.08 19.4261C100.602 19.3655 101.026 19.3163 101.352 19.2784C101.678 19.2367 101.915 19.1704 102.062 19.0795C102.21 18.9886 102.284 18.8409 102.284 18.6364V18.5966C102.284 18.1004 102.144 17.7159 101.864 17.4432C101.587 17.1704 101.174 17.0341 100.625 17.0341C100.053 17.0341 99.6022 17.161 99.2727 17.4148C98.9469 17.6648 98.7216 17.9432 98.5966 18.25L97 17.8864C97.1894 17.3561 97.4659 16.928 97.8295 16.6023C98.1969 16.2727 98.6193 16.0341 99.0966 15.8864C99.5738 15.7348 100.076 15.6591 100.602 15.6591C100.951 15.6591 101.32 15.7008 101.71 15.7841C102.104 15.8636 102.472 16.0114 102.812 16.2273C103.157 16.4432 103.439 16.7519 103.659 17.1534C103.879 17.5511 103.989 18.0682 103.989 18.7045V24.5H102.33V23.3068H102.261C102.151 23.5265 101.987 23.7424 101.767 23.9545C101.547 24.1667 101.265 24.3428 100.92 24.4829C100.576 24.6231 100.163 24.6932 99.6818 24.6932ZM100.051 23.3295C100.521 23.3295 100.922 23.2367 101.256 23.0511C101.593 22.8655 101.848 22.6231 102.023 22.3239C102.201 22.0208 102.29 21.697 102.29 21.3523V20.2273C102.229 20.2879 102.112 20.3447 101.937 20.3977C101.767 20.447 101.572 20.4905 101.352 20.5284C101.133 20.5625 100.919 20.5947 100.71 20.625C100.502 20.6515 100.328 20.6742 100.187 20.6932C99.8579 20.7348 99.5568 20.8049 99.2841 20.9034C99.0151 21.0019 98.7992 21.1439 98.6363 21.3295C98.4772 21.5114 98.3977 21.7538 98.3977 22.0568C98.3977 22.4773 98.553 22.7954 98.8636 23.0114C99.1742 23.2235 99.57 23.3295 100.051 23.3295ZM106.388 24.5V12.8636H108.087V17.1875H108.189C108.287 17.0057 108.429 16.7954 108.615 16.5568C108.801 16.3182 109.058 16.1098 109.388 15.9318C109.717 15.75 110.153 15.6591 110.695 15.6591C111.399 15.6591 112.028 15.8371 112.581 16.1932C113.134 16.5492 113.568 17.0625 113.882 17.7329C114.2 18.4034 114.359 19.2102 114.359 20.1534C114.359 21.0966 114.202 21.9053 113.888 22.5795C113.573 23.25 113.142 23.767 112.592 24.1307C112.043 24.4905 111.416 24.6704 110.712 24.6704C110.181 24.6704 109.748 24.5814 109.41 24.4034C109.077 24.2254 108.816 24.017 108.626 23.7784C108.437 23.5398 108.291 23.3276 108.189 23.142H108.047V24.5H106.388ZM108.053 20.1364C108.053 20.75 108.142 21.2879 108.32 21.75C108.498 22.2121 108.755 22.5739 109.092 22.8352C109.429 23.0928 109.842 23.2216 110.331 23.2216C110.839 23.2216 111.263 23.0871 111.604 22.8182C111.945 22.5454 112.202 22.1761 112.376 21.7102C112.554 21.2443 112.643 20.7197 112.643 20.1364C112.643 19.5606 112.556 19.0436 112.382 18.5852C112.212 18.1269 111.954 17.7651 111.609 17.5C111.268 17.2348 110.842 17.1023 110.331 17.1023C109.839 17.1023 109.422 17.2292 109.081 17.4829C108.744 17.7367 108.488 18.0909 108.314 18.5454C108.14 19 108.053 19.5303 108.053 20.1364ZM117.966 12.8636V24.5H116.267V12.8636H117.966ZM124.013 24.6761C123.153 24.6761 122.412 24.4924 121.791 24.125C121.174 23.7538 120.696 23.2329 120.359 22.5625C120.026 21.8883 119.859 21.0985 119.859 20.1932C119.859 19.2992 120.026 18.5114 120.359 17.8295C120.696 17.1477 121.166 16.6155 121.768 16.2329C122.374 15.8504 123.083 15.6591 123.893 15.6591C124.386 15.6591 124.863 15.7405 125.325 15.9034C125.787 16.0663 126.202 16.322 126.57 16.6704C126.937 17.0189 127.227 17.4716 127.439 18.0284C127.651 18.5814 127.757 19.2538 127.757 20.0454V20.6477H120.82V19.375H126.092C126.092 18.928 126.001 18.5322 125.82 18.1875C125.638 17.839 125.382 17.5644 125.053 17.3636C124.727 17.1629 124.344 17.0625 123.905 17.0625C123.428 17.0625 123.011 17.1799 122.655 17.4148C122.303 17.6458 122.03 17.9489 121.837 18.3239C121.647 18.6951 121.553 19.0985 121.553 19.5341V20.5284C121.553 21.1117 121.655 21.6079 121.859 22.017C122.068 22.4261 122.357 22.7386 122.729 22.9545C123.1 23.1667 123.534 23.2727 124.03 23.2727C124.352 23.2727 124.645 23.2273 124.91 23.1364C125.176 23.0417 125.405 22.9015 125.598 22.7159C125.791 22.5303 125.939 22.3011 126.041 22.0284L127.649 22.3182C127.52 22.7917 127.289 23.2064 126.956 23.5625C126.626 23.9148 126.212 24.1894 125.712 24.3864C125.215 24.5795 124.649 24.6761 124.013 24.6761ZM137.553 24.6761C136.734 24.6761 136.02 24.4886 135.41 24.1136C134.801 23.7386 134.327 23.214 133.99 22.5398C133.653 21.8655 133.484 21.0776 133.484 20.1761C133.484 19.2708 133.653 18.4792 133.99 17.8011C134.327 17.1231 134.801 16.5966 135.41 16.2216C136.02 15.8466 136.734 15.6591 137.553 15.6591C138.371 15.6591 139.085 15.8466 139.695 16.2216C140.304 16.5966 140.778 17.1231 141.115 17.8011C141.452 18.4792 141.621 19.2708 141.621 20.1761C141.621 21.0776 141.452 21.8655 141.115 22.5398C140.778 23.214 140.304 23.7386 139.695 24.1136C139.085 24.4886 138.371 24.6761 137.553 24.6761ZM137.558 23.25C138.089 23.25 138.528 23.1098 138.876 22.8295C139.225 22.5492 139.482 22.1761 139.649 21.7102C139.82 21.2443 139.905 20.7311 139.905 20.1704C139.905 19.6136 139.82 19.1023 139.649 18.6364C139.482 18.1667 139.225 17.7898 138.876 17.5057C138.528 17.2216 138.089 17.0795 137.558 17.0795C137.024 17.0795 136.581 17.2216 136.229 17.5057C135.88 17.7898 135.621 18.1667 135.45 18.6364C135.284 19.1023 135.2 19.6136 135.2 20.1704C135.2 20.7311 135.284 21.2443 135.45 21.7102C135.621 22.1761 135.88 22.5492 136.229 22.8295C136.581 23.1098 137.024 23.25 137.558 23.25ZM145.216 19.3182V24.5H143.517V15.7727H145.148V17.1932H145.256C145.456 16.7311 145.771 16.3598 146.199 16.0795C146.631 15.7992 147.174 15.6591 147.83 15.6591C148.424 15.6591 148.945 15.7841 149.392 16.0341C149.839 16.2803 150.186 16.6477 150.432 17.1364C150.678 17.625 150.801 18.2292 150.801 18.9489V24.5H149.102V19.1534C149.102 18.5208 148.937 18.0265 148.608 17.6704C148.278 17.3106 147.826 17.1307 147.25 17.1307C146.856 17.1307 146.506 17.2159 146.199 17.3864C145.896 17.5568 145.655 17.8068 145.477 18.1364C145.303 18.4621 145.216 18.8561 145.216 19.3182Z" fill="#E8E8E8"/>
<path d="M60.9357 43.5V31.1364H69.3753V33.5632H63.924V36.0987H68.8381V38.5316H63.924V43.5H60.9357ZM74.5339 43.6751C73.564 43.6751 72.7268 43.4839 72.0225 43.1016C71.3222 42.7152 70.7829 42.1658 70.4046 41.4535C70.0303 40.7371 69.8432 39.8859 69.8432 38.8998C69.8432 37.942 70.0324 37.1049 70.4107 36.3885C70.789 35.6681 71.3222 35.1087 72.0105 34.7102C72.6987 34.3078 73.5096 34.1065 74.4433 34.1065C75.1034 34.1065 75.7071 34.2092 76.2544 34.4144C76.8018 34.6197 77.2747 34.9235 77.6731 35.326C78.0715 35.7284 78.3814 36.2255 78.6028 36.8171C78.8241 37.4047 78.9348 38.0788 78.9348 38.8395V39.576H70.8755V37.8615H76.188C76.184 37.5476 76.1095 37.2679 75.9646 37.0224C75.8198 36.7769 75.6205 36.5857 75.367 36.4489C75.1175 36.308 74.8297 36.2376 74.5037 36.2376C74.1737 36.2376 73.8779 36.312 73.6163 36.4609C73.3547 36.6058 73.1474 36.805 72.9945 37.0586C72.8415 37.3081 72.761 37.5918 72.753 37.9098V39.6545C72.753 40.0328 72.8275 40.3648 72.9764 40.6506C73.1253 40.9323 73.3366 41.1516 73.6102 41.3086C73.8839 41.4655 74.2099 41.544 74.5882 41.544C74.8498 41.544 75.0873 41.5078 75.3006 41.4354C75.5139 41.3629 75.697 41.2563 75.8499 41.1154C76.0029 40.9745 76.1176 40.8015 76.194 40.5962L78.9046 40.6747C78.7919 41.2824 78.5444 41.8117 78.1621 42.2624C77.7838 42.7092 77.2867 43.0573 76.671 43.3068C76.0552 43.5523 75.3428 43.6751 74.5339 43.6751ZM83.8293 43.6328C83.1451 43.6328 82.5233 43.4557 81.9638 43.1016C81.4044 42.7474 80.9577 42.2161 80.6236 41.5078C80.2896 40.7995 80.1226 39.9201 80.1226 38.8697C80.1226 37.779 80.2956 36.8815 80.6418 36.1772C80.9879 35.4729 81.4406 34.9517 82.0001 34.6136C82.5635 34.2756 83.1692 34.1065 83.8172 34.1065C84.3042 34.1065 84.7207 34.191 85.0668 34.3601C85.4129 34.5251 85.6987 34.7384 85.9241 35C86.1495 35.2616 86.3205 35.5333 86.4372 35.815H86.4976V31.1364H89.4496V43.5H86.5278V41.9968H86.4372C86.3124 42.2825 86.1354 42.5502 85.906 42.7997C85.6766 43.0492 85.3888 43.2505 85.0427 43.4034C84.7006 43.5563 84.2961 43.6328 83.8293 43.6328ZM84.8555 41.3327C85.2137 41.3327 85.5196 41.2321 85.7731 41.0309C86.0267 40.8256 86.2219 40.5379 86.3587 40.1676C86.4956 39.7973 86.564 39.3627 86.564 38.8636C86.564 38.3565 86.4956 37.9199 86.3587 37.5536C86.2259 37.1874 86.0307 36.9056 85.7731 36.7084C85.5196 36.5112 85.2137 36.4126 84.8555 36.4126C84.4893 36.4126 84.1794 36.5132 83.9258 36.7145C83.6723 36.9157 83.4791 37.1994 83.3463 37.5657C83.2175 37.9319 83.1531 38.3646 83.1531 38.8636C83.1531 39.3627 83.2195 39.7973 83.3523 40.1676C83.4852 40.5379 83.6763 40.8256 83.9258 41.0309C84.1794 41.2321 84.4893 41.3327 84.8555 41.3327ZM95.645 43.6751C94.6711 43.6751 93.834 43.4758 93.1337 43.0774C92.4374 42.6749 91.9001 42.1155 91.5218 41.3991C91.1475 40.6787 90.9604 39.8436 90.9604 38.8938C90.9604 37.94 91.1475 37.1049 91.5218 36.3885C91.9001 35.6681 92.4374 35.1087 93.1337 34.7102C93.834 34.3078 94.6711 34.1065 95.645 34.1065C96.619 34.1065 97.4541 34.3078 98.1504 34.7102C98.8506 35.1087 99.3879 35.6681 99.7622 36.3885C100.141 37.1049 100.33 37.94 100.33 38.8938C100.33 39.8436 100.141 40.6787 99.7622 41.3991C99.3879 42.1155 98.8506 42.6749 98.1504 43.0774C97.4541 43.4758 96.619 43.6751 95.645 43.6751ZM95.6631 41.4474C96.0173 41.4474 96.3171 41.3388 96.5627 41.1214C96.8082 40.9041 96.9953 40.6023 97.1241 40.2159C97.2569 39.8295 97.3233 39.3828 97.3233 38.8757C97.3233 38.3605 97.2569 37.9098 97.1241 37.5234C96.9953 37.1371 96.8082 36.8352 96.5627 36.6179C96.3171 36.4006 96.0173 36.2919 95.6631 36.2919C95.2969 36.2919 94.987 36.4006 94.7335 36.6179C94.4839 36.8352 94.2928 37.1371 94.16 37.5234C94.0312 37.9098 93.9668 38.3605 93.9668 38.8757C93.9668 39.3828 94.0312 39.8295 94.16 40.2159C94.2928 40.6023 94.4839 40.9041 94.7335 41.1214C94.987 41.3388 95.2969 41.4474 95.6631 41.4474ZM101.842 43.5V34.2273H104.709V35.9176H104.806C104.975 35.3059 105.251 34.8511 105.633 34.5533C106.015 34.2514 106.46 34.1005 106.967 34.1005C107.104 34.1005 107.245 34.1105 107.39 34.1307C107.535 34.1468 107.67 34.1729 107.794 34.2092V36.7748C107.653 36.7266 107.468 36.6883 107.239 36.6601C107.014 36.632 106.812 36.6179 106.635 36.6179C106.285 36.6179 105.969 36.6964 105.687 36.8533C105.41 37.0063 105.19 37.2216 105.029 37.4993C104.872 37.773 104.794 38.0949 104.794 38.4652V43.5H101.842ZM111.263 43.6569C110.671 43.6569 110.146 43.5583 109.687 43.3611C109.232 43.1599 108.872 42.8581 108.606 42.4556C108.345 42.0491 108.214 41.54 108.214 40.9283C108.214 40.4131 108.304 39.9784 108.486 39.6243C108.667 39.2701 108.916 38.9824 109.234 38.761C109.552 38.5396 109.918 38.3726 110.333 38.2599C110.747 38.1432 111.19 38.0647 111.661 38.0245C112.188 37.9762 112.613 37.9259 112.935 37.8736C113.257 37.8172 113.49 37.7387 113.635 37.6381C113.784 37.5335 113.858 37.3866 113.858 37.1974V37.1672C113.858 36.8574 113.752 36.6179 113.538 36.4489C113.325 36.2798 113.037 36.1953 112.675 36.1953C112.285 36.1953 111.971 36.2798 111.733 36.4489C111.496 36.6179 111.345 36.8513 111.281 37.1491L108.558 37.0525C108.639 36.4891 108.846 35.986 109.18 35.5433C109.518 35.0966 109.981 34.7464 110.568 34.4929C111.16 34.2353 111.87 34.1065 112.699 34.1065C113.291 34.1065 113.836 34.177 114.335 34.3178C114.834 34.4547 115.269 34.6559 115.639 34.9215C116.01 35.1831 116.295 35.5051 116.497 35.8874C116.702 36.2698 116.804 36.7064 116.804 37.1974V43.5H114.027V42.2081H113.955C113.79 42.522 113.579 42.7876 113.321 43.005C113.068 43.2223 112.768 43.3853 112.422 43.494C112.08 43.6026 111.693 43.6569 111.263 43.6569ZM112.174 41.7251C112.492 41.7251 112.778 41.6607 113.031 41.5319C113.289 41.4032 113.494 41.2261 113.647 41.0007C113.8 40.7713 113.877 40.5057 113.877 40.2038V39.3224C113.792 39.3667 113.689 39.4069 113.569 39.4432C113.452 39.4794 113.323 39.5136 113.182 39.5458C113.041 39.578 112.897 39.6062 112.748 39.6303C112.599 39.6545 112.456 39.6766 112.319 39.6967C112.041 39.741 111.804 39.8094 111.607 39.902C111.413 39.9945 111.265 40.1153 111.16 40.2642C111.059 40.4091 111.009 40.5821 111.009 40.7834C111.009 41.0892 111.118 41.3227 111.335 41.4837C111.556 41.6446 111.836 41.7251 112.174 41.7251ZM122.262 43.5V31.1364H125.25V41.0731H130.394V43.5H122.262ZM131.941 43.5V34.2273H134.893V43.5H131.941ZM133.42 33.1467C133.005 33.1467 132.649 33.0098 132.351 32.7361C132.053 32.4584 131.904 32.1244 131.904 31.734C131.904 31.3476 132.053 31.0176 132.351 30.744C132.649 30.4663 133.005 30.3274 133.42 30.3274C133.838 30.3274 134.194 30.4663 134.488 30.744C134.786 31.0176 134.935 31.3476 134.935 31.734C134.935 32.1244 134.786 32.4584 134.488 32.7361C134.194 33.0098 133.838 33.1467 133.42 33.1467ZM139.724 38.2116V43.5H136.772V34.2273H139.579V35.9297H139.681C139.887 35.3622 140.237 34.9175 140.732 34.5955C141.227 34.2695 141.816 34.1065 142.501 34.1065C143.153 34.1065 143.718 34.2534 144.197 34.5472C144.68 34.837 145.054 35.2435 145.32 35.7667C145.59 36.2859 145.722 36.8936 145.718 37.5898V43.5H142.766V38.1694C142.77 37.6542 142.64 37.2518 142.374 36.962C142.112 36.6722 141.748 36.5273 141.281 36.5273C140.971 36.5273 140.698 36.5958 140.46 36.7326C140.227 36.8654 140.046 37.0566 139.917 37.3061C139.792 37.5556 139.728 37.8575 139.724 38.2116ZM153.529 39.4975V34.2273H156.475V43.5H153.661V41.7734H153.565C153.36 42.3409 153.009 42.7917 152.514 43.1257C152.023 43.4557 151.43 43.6207 150.734 43.6207C150.102 43.6207 149.546 43.4758 149.067 43.1861C148.588 42.8963 148.216 42.4918 147.951 41.9726C147.685 41.4494 147.55 40.8377 147.546 40.1374V34.2273H150.498V39.5579C150.502 40.061 150.635 40.4574 150.897 40.7471C151.158 41.0369 151.514 41.1818 151.965 41.1818C152.259 41.1818 152.522 41.1174 152.756 40.9886C152.993 40.8558 153.181 40.6646 153.317 40.4151C153.458 40.1616 153.529 39.8557 153.529 39.4975ZM160.865 34.2273L162.392 37.2819L163.974 34.2273H166.95L164.36 38.8636L167.047 43.5H164.095L162.392 40.4212L160.732 43.5H157.738L160.43 38.8636L157.871 34.2273H160.865Z" fill="#51A2DA"/>
</g>
<defs>
<filter id="filter0_d_1_50" x="6.28571" y="2.28571" width="51.4286" height="51.4286" filterUnits="userSpaceOnUse" color-interpolation-filters="sRGB">
<feFlood flood-opacity="0" result="BackgroundImageFix"/>
<feColorMatrix in="SourceAlpha" type="matrix" values="0 0 0 0 0 0 0 0 0 0 0 0 0 0 0 0 0 0 127 0" result="hardAlpha"/>
<feOffset/>
<feGaussianBlur stdDeviation="2.85714"/>
<feComposite in2="hardAlpha" operator="out"/>
<feColorMatrix type="matrix" values="0 0 0 0 0 0 0 0 0 0 0 0 0 0 0 0 0 0 0.25 0"/>
<feBlend mode="normal" in2="BackgroundImageFix" result="effect1_dropShadow_1_50"/>
<feBlend mode="normal" in="SourceGraphic" in2="effect1_dropShadow_1_50" result="shape"/>
</filter>
<filter id="filter1_d_1_50" x="54.4" y="3.9" width="119.2" height="48.2" filterUnits="userSpaceOnUse" color-interpolation-filters="sRGB">
<feFlood flood-opacity="0" result="BackgroundImageFix"/>
<feColorMatrix in="SourceAlpha" type="matrix" values="0 0 0 0 0 0 0 0 0 0 0 0 0 0 0 0 0 0 127 0" result="hardAlpha"/>
<feOffset/>
<feGaussianBlur stdDeviation="2.8"/>
<feComposite in2="hardAlpha" operator="out"/>
<feColorMatrix type="matrix" values="0 0 0 0 0 0 0 0 0 0 0 0 0 0 0 0 0 0 0.25 0"/>
<feBlend mode="normal" in2="BackgroundImageFix" result="effect1_dropShadow_1_50"/>
<feBlend mode="normal" in="SourceGraphic" in2="effect1_dropShadow_1_50" result="shape"/>
</filter>
<linearGradient id="paint0_linear_1_50" x1="90" y1="0" x2="90" y2="56" gradientUnits="userSpaceOnUse">
<stop stop-color="#184B6F"/>
<stop offset="1" stop-color="#10324A"/>
</linearGradient>
</defs>
</svg>
