<svg width="56" height="56" viewBox="0 0 56 56" fill="none" xmlns="http://www.w3.org/2000/svg">
<rect width="56" height="56" rx="8.4" fill="url(#paint0_linear_1_62)"/>
<rect x="1.05" y="1.05" width="53.9" height="53.9" rx="7.35" stroke="white" stroke-opacity="0.15" stroke-width="2.1"/>
<g filter="url(#filter0_d_1_62)">
<path d="M27.9983 8C16.9567 8 8.01 16.9483 8.00333 27.9867H8V43.465H8.00333C8.00554 44.6685 8.48519 45.822 9.33699 46.6722C10.1888 47.5225 11.3431 48 12.5467 48H28.005C39.0483 47.9933 47.9933 39.0467 47.9933 28.005C47.9933 16.9583 39.0433 8 27.9967 8H27.9983ZM32.05 16.2333C35.4083 16.2333 38.5783 18.805 38.5783 22.3517C38.5783 22.68 38.58 23.01 38.5283 23.3833C38.5061 23.6073 38.4387 23.8244 38.3304 24.0217C38.2221 24.219 38.075 24.3924 37.898 24.5314C37.721 24.6704 37.5178 24.7722 37.3004 24.8307C37.0831 24.8892 36.8562 24.9031 36.6333 24.8717C36.4106 24.8395 36.1967 24.7627 36.0044 24.6458C35.8121 24.529 35.6454 24.3744 35.5144 24.1915C35.3833 24.0086 35.2906 23.8011 35.2417 23.5815C35.1928 23.3618 35.1888 23.1346 35.23 22.9133C35.2493 22.7268 35.2566 22.5392 35.2517 22.3517C35.2517 20.34 33.6067 19.565 32.0517 19.565C30.495 19.565 29.0933 20.8717 29.09 22.3517C29.1167 24.0633 29.09 25.7617 29.09 27.4683L31.9767 27.4483C34.23 27.4017 34.2567 30.7967 32.0033 30.7783L29.09 30.8C29.0833 32.1767 29.1 31.9283 29.0933 32.6217C29.0933 32.6217 29.1183 34.305 29.0667 35.5817C28.7183 39.3317 25.5267 42.325 21.6933 42.325C17.63 42.325 14.28 39.0033 14.28 34.93C14.4017 30.7383 17.7433 27.4433 21.9517 27.4817L24.3 27.465V30.7917L21.9517 30.8133H21.94C19.6267 30.88 17.645 32.4533 17.6067 34.93C17.6064 35.4657 17.7121 35.9962 17.9177 36.4909C18.1233 36.9856 18.4246 37.4348 18.8044 37.8126C19.1842 38.1904 19.635 38.4893 20.1308 38.6923C20.6266 38.8952 21.1576 38.9981 21.6933 38.995C23.9533 38.995 25.7617 37.35 25.7617 34.9333L25.76 22.3383C25.76 22.105 25.7683 21.9183 25.7933 21.66C26.1767 18.58 28.9317 16.2333 32.05 16.2333Z" fill="#51A2DA"/>
</g>
<defs>
<filter id="filter0_d_1_62" x="2.28571" y="2.28571" width="51.4286" height="51.4286" filterUnits="userSpaceOnUse" color-interpolation-filters="sRGB">
<feFlood flood-opacity="0" result="BackgroundImageFix"/>
<feColorMatrix in="SourceAlpha" type="matrix" values="0 0 0 0 0 0 0 0 0 0 0 0 0 0 0 0 0 0 127 0" result="hardAlpha"/>
<feOffset/>
<feGaussianBlur stdDeviation="2.85714"/>
<feComposite in2="hardAlpha" operator="out"/>
<feColorMatrix type="matrix" values="0 0 0 0 0 0 0 0 0 0 0 0 0 0 0 0 0 0 0.25 0"/>
<feBlend mode="normal" in2="BackgroundImageFix" result="effect1_dropShadow_1_62"/>
<feBlend mode="normal" in="SourceGraphic" in2="effect1_dropShadow_1_62" result="shape"/>
</filter>
<linearGradient id="paint0_linear_1_62" x1="28" y1="0" x2="28" y2="56" gradientUnits="userSpaceOnUse">
<stop stop-color="#184B6F"/>
<stop offset="1" stop-color="#10324A"/>
</linearGradient>
</defs>
</svg>
