<svg width="184" height="40" viewBox="0 0 184 40" fill="none" xmlns="http://www.w3.org/2000/svg">
<rect width="184.001" height="40.0014" rx="8" fill="url(#paint0_linear_1_56)"/>
<rect x="1.07143" y="1.07143" width="181.858" height="37.8585" rx="6.92857" stroke="white" stroke-opacity="0.15" stroke-width="2.14286"/>
<g filter="url(#filter0_d_1_56)">
<path d="M35.8059 15.4178C35.2006 19.2125 33.2689 22.6693 30.3545 25.1734C27.4401 27.6774 23.732 29.0663 19.8899 29.0929C19.1116 29.1228 18.3324 29.0755 17.5635 28.9517C15.9554 28.6785 14.4896 27.8622 13.4106 26.639C12.3316 25.4158 11.7046 23.8596 11.6341 22.23C11.6496 20.4125 12.3792 18.6739 13.6653 17.3895C14.9513 16.1051 16.6909 15.3781 18.5083 15.3652C20.3258 15.3524 22.0755 16.0548 23.3795 17.3208C24.6837 18.5869 25.4377 20.315 25.479 22.1321C25.5081 23.2799 25.0109 24.2866 23.9892 24.3156C22.8975 24.3156 22.3858 23.5367 22.3858 22.4868V19.5697C22.3862 19.0979 22.2 18.6452 21.8679 18.3101C21.5358 17.9751 21.0847 17.785 20.613 17.7812H18.1678C17.4565 17.7763 16.7554 17.9497 16.1284 18.2857C15.5015 18.6216 14.9687 19.1093 14.5789 19.7042C14.189 20.2991 13.9543 20.9823 13.8964 21.6912C13.8386 22.4001 13.9592 23.1122 14.2474 23.7625C14.5356 24.4128 14.9822 24.9805 15.5463 25.4137C16.1104 25.847 16.7741 26.1319 17.4768 26.2426C18.1794 26.3532 18.8985 26.2859 19.5684 26.0469C20.2383 25.808 20.8376 25.4049 21.3116 24.8746L21.3971 24.7471L21.4827 24.8887C21.7768 25.2882 22.1651 25.6089 22.6131 25.8223C23.061 26.0356 23.5547 26.1349 24.0503 26.1114C24.9336 26.0472 25.7569 25.6403 26.3443 24.9774C26.9317 24.3145 27.2367 23.4483 27.1941 22.5636C27.2027 21.8045 27.1177 21.0472 26.9408 20.3088C26.4873 18.2231 25.2779 16.3791 23.5456 15.1324C21.8133 13.8857 19.6808 13.3244 17.5593 13.5568C15.4377 13.7892 13.4773 14.7988 12.056 16.3909C10.6346 17.9832 9.85285 20.0453 9.86149 22.1797C9.88877 24.4429 10.7922 26.6075 12.382 28.2186C13.9716 29.8296 16.1238 30.7617 18.3864 30.819C18.3864 30.819 19.0268 30.8772 19.7487 30.8606C23.258 30.8384 26.6881 29.815 29.6358 27.9106C29.6777 27.8814 29.7197 27.9397 29.6918 27.9822C28.2567 29.5282 26.5018 30.7427 24.5493 31.5412C22.5969 32.3397 20.4938 32.703 18.3867 32.6057C17.0091 32.6307 15.6408 32.3764 14.3642 31.8581C13.0876 31.3398 11.9292 30.5682 10.959 29.59C9.9887 28.6117 9.22658 27.447 8.71863 26.1662C8.21067 24.8853 7.96741 23.5149 8.0035 22.1375C8.00416 20.4953 8.38781 18.8759 9.12397 17.408C9.86012 15.9401 10.9285 14.6641 12.2442 13.6815C14.0123 12.3794 16.149 11.6739 18.3448 11.6674H21.6267C22.9087 11.6665 24.1764 11.3985 25.3492 10.8807C26.5219 10.3629 27.574 9.60647 28.4384 8.6597C28.4566 8.63945 28.4809 8.62559 28.5076 8.62016C28.5343 8.61438 28.5621 8.61714 28.5872 8.62806C28.6122 8.63898 28.6332 8.65749 28.6471 8.68098C28.6611 8.70456 28.6675 8.7319 28.6652 8.75933C28.526 10.2344 28.035 11.6546 27.2332 12.9006C27.2213 12.9223 27.216 12.9469 27.2179 12.9715C27.2197 12.9961 27.2287 13.0197 27.2438 13.0393C27.2587 13.0588 27.279 13.0736 27.3022 13.0819C27.3254 13.0901 27.3505 13.0915 27.3744 13.0858C28.8894 12.7435 30.3028 12.0505 31.5011 11.0623C32.6993 10.0742 33.6489 8.81855 34.2733 7.39648C34.2892 7.37107 34.3111 7.34997 34.3371 7.33501C34.3633 7.32025 34.3928 7.3125 34.4228 7.3125C34.4529 7.3125 34.4824 7.32025 34.5086 7.33501C34.5346 7.34988 34.5566 7.37098 34.5722 7.39648C35.8585 9.8605 36.2923 12.6812 35.8059 15.4178ZM18.378 19.5332C18.0004 19.5332 17.6276 19.6168 17.2863 19.7782C16.9451 19.9396 16.6438 20.1746 16.4043 20.4664C16.1648 20.7582 15.993 21.0995 15.9013 21.4657C15.8096 21.8319 15.8003 22.2139 15.874 22.5842C15.9725 23.0794 16.2156 23.5343 16.5726 23.8913C16.9296 24.2484 17.3845 24.4916 17.8797 24.5901C18.2499 24.6638 18.6319 24.6544 18.9981 24.5626C19.3642 24.4709 19.7055 24.299 19.9973 24.0595C20.289 23.82 20.524 23.5188 20.6854 23.1775C20.8467 22.8362 20.9303 22.4634 20.9303 22.0859V19.7027C20.928 19.6571 20.9088 19.614 20.8766 19.5817C20.8443 19.5494 20.8012 19.5303 20.7556 19.528L18.378 19.5332Z" fill="#702AF7"/>
</g>
<g filter="url(#filter1_d_1_56)">
<path d="M43.3597 26.5007V14.1371H47.8874C48.7648 14.1371 49.4912 14.282 50.0667 14.5717C50.6423 14.8575 51.0729 15.2458 51.3586 15.7369C51.6444 16.2238 51.7873 16.7732 51.7873 17.3849C51.7873 17.9001 51.6927 18.3347 51.5035 18.6889C51.3144 19.0391 51.0608 19.3208 50.7429 19.5341C50.429 19.7434 50.0828 19.8963 49.7045 19.9929V20.1136C50.115 20.1337 50.5155 20.2666 50.9059 20.5121C51.3003 20.7535 51.6263 21.0976 51.8839 21.5444C52.1414 21.9911 52.2702 22.5344 52.2702 23.1743C52.2702 23.8062 52.1213 24.3737 51.8235 24.8768C51.5297 25.3758 51.0749 25.7722 50.4591 26.066C49.8434 26.3558 49.0566 26.5007 48.0987 26.5007H43.3597ZM45.2251 24.9009H47.9176C48.8111 24.9009 49.451 24.7279 49.8373 24.3817C50.2237 24.0356 50.4169 23.603 50.4169 23.0838C50.4169 22.6934 50.3183 22.3352 50.1211 22.0092C49.9239 21.6832 49.6421 21.4236 49.2759 21.2305C48.9137 21.0373 48.483 20.9407 47.984 20.9407H45.2251V24.9009ZM45.2251 19.4858H47.7244C48.143 19.4858 48.5193 19.4053 48.8533 19.2443C49.1914 19.0833 49.459 18.8579 49.6562 18.5682C49.8575 18.2744 49.9581 17.9283 49.9581 17.5298C49.9581 17.0187 49.779 16.5901 49.4208 16.244C49.0626 15.8978 48.5132 15.7248 47.7727 15.7248H45.2251V19.4858ZM60.2118 22.6552V17.228H62.0229V26.5007H60.248V24.8949H60.1514C59.9381 25.3899 59.596 25.8024 59.1251 26.1324C58.6583 26.4584 58.0767 26.6214 57.3805 26.6214C56.7848 26.6214 56.2576 26.4906 55.7988 26.229C55.344 25.9634 54.9858 25.571 54.7242 25.0518C54.4667 24.5327 54.3379 23.8907 54.3379 23.1261V17.228H56.1429V22.9087C56.1429 23.5406 56.318 24.0437 56.6681 24.418C57.0183 24.7922 57.473 24.9794 58.0325 24.9794C58.3705 24.9794 58.7066 24.8949 59.0406 24.7258C59.3787 24.5568 59.6584 24.3012 59.8798 23.9591C60.1051 23.6171 60.2158 23.1824 60.2118 22.6552ZM64.4482 26.5007V17.228H66.2533V26.5007H64.4482ZM65.3598 15.7972C65.0459 15.7972 64.7762 15.6926 64.5508 15.4833C64.3295 15.27 64.2188 15.0164 64.2188 14.7226C64.2188 14.4248 64.3295 14.1713 64.5508 13.962C64.7762 13.7487 65.0459 13.642 65.3598 13.642C65.6737 13.642 65.9413 13.7487 66.1627 13.962C66.3881 14.1713 66.5008 14.4248 66.5008 14.7226C66.5008 15.0164 66.3881 15.27 66.1627 15.4833C65.9413 15.6926 65.6737 15.7972 65.3598 15.7972ZM70.4867 14.1371V26.5007H68.6816V14.1371H70.4867ZM77.2435 17.228V18.6768H72.1785V17.228H77.2435ZM73.5368 15.0064H75.3419V23.778C75.3419 24.1282 75.3942 24.3918 75.4988 24.5689C75.6035 24.7419 75.7383 24.8607 75.9033 24.9251C76.0723 24.9854 76.2554 25.0156 76.4526 25.0156C76.5975 25.0156 76.7243 25.0056 76.833 24.9854C76.9416 24.9653 77.0262 24.9492 77.0865 24.9371L77.4125 26.4283C77.3079 26.4685 77.159 26.5087 76.9658 26.549C76.7726 26.5933 76.5311 26.6174 76.2414 26.6214C75.7664 26.6295 75.3237 26.545 74.9132 26.3679C74.5027 26.1908 74.1707 25.9171 73.9171 25.5469C73.6636 25.1766 73.5368 24.7118 73.5368 24.1523V15.0064ZM85.7495 26.5007L83.0208 17.228H84.8862L86.7034 24.0376H86.7939L88.6171 17.228H90.4825L92.2936 24.0074H92.3841L94.1891 17.228H96.0546L93.3319 26.5007H91.4906L89.6071 19.8057H89.4683L87.5847 26.5007H85.7495ZM97.7675 26.5007V17.228H99.5726V26.5007H97.7675ZM98.6791 15.7972C98.3652 15.7972 98.0955 15.6926 97.8702 15.4833C97.6488 15.27 97.5381 15.0164 97.5381 14.7226C97.5381 14.4248 97.6488 14.1713 97.8702 13.962C98.0955 13.7487 98.3652 13.642 98.6791 13.642C98.993 13.642 99.2607 13.7487 99.482 13.962C99.7074 14.1713 99.8201 14.4248 99.8201 14.7226C99.8201 15.0164 99.7074 15.27 99.482 15.4833C99.2607 15.6926 98.993 15.7972 98.6791 15.7972ZM106.329 17.228V18.6768H101.264V17.228H106.329ZM102.623 15.0064H104.428V23.778C104.428 24.1282 104.48 24.3918 104.585 24.5689C104.689 24.7419 104.824 24.8607 104.989 24.9251C105.158 24.9854 105.341 25.0156 105.539 25.0156C105.683 25.0156 105.81 25.0056 105.919 24.9854C106.028 24.9653 106.112 24.9492 106.172 24.9371L106.498 26.4283C106.394 26.4685 106.245 26.5087 106.052 26.549C105.859 26.5933 105.617 26.6174 105.327 26.6214C104.852 26.6295 104.41 26.545 103.999 26.3679C103.589 26.1908 103.257 25.9171 103.003 25.5469C102.75 25.1766 102.623 24.7118 102.623 24.1523V15.0064ZM110.33 20.995V26.5007H108.525V14.1371H110.306V18.7372H110.421C110.638 18.2382 110.97 17.8417 111.417 17.5479C111.864 17.2541 112.447 17.1072 113.168 17.1072C113.804 17.1072 114.359 17.238 114.834 17.4996C115.313 17.7612 115.683 18.1516 115.945 18.6708C116.21 19.1859 116.343 19.8299 116.343 20.6026V26.5007H114.538V20.8199C114.538 20.1398 114.363 19.6126 114.013 19.2383C113.663 18.86 113.176 18.6708 112.552 18.6708C112.125 18.6708 111.743 18.7614 111.405 18.9425C111.071 19.1236 110.807 19.3892 110.614 19.7393C110.425 20.0855 110.33 20.504 110.33 20.995Z" fill="#E8E8E8"/>
<path d="M122.937 26.0007V13.6371H128.093C129.018 13.6371 129.793 13.7679 130.417 14.0295C131.045 14.2911 131.516 14.6573 131.829 15.1282C132.147 15.5991 132.306 16.1444 132.306 16.7642C132.306 17.2351 132.208 17.6556 132.011 18.0259C131.813 18.3922 131.542 18.696 131.196 18.9375C130.85 19.179 130.449 19.348 129.994 19.4446V19.5653C130.493 19.5895 130.954 19.7243 131.377 19.9698C131.803 20.2153 132.145 20.5574 132.403 20.9961C132.661 21.4307 132.789 21.9459 132.789 22.5415C132.789 23.2056 132.62 23.7992 132.282 24.3224C131.944 24.8416 131.455 25.2521 130.815 25.554C130.175 25.8518 129.399 26.0007 128.485 26.0007H122.937ZM125.925 23.592H127.773C128.421 23.592 128.898 23.4692 129.203 23.2237C129.513 22.9782 129.668 22.6361 129.668 22.1974C129.668 21.8795 129.594 21.6058 129.445 21.3764C129.296 21.143 129.085 20.9639 128.811 20.8391C128.537 20.7103 128.209 20.6459 127.827 20.6459H125.925V23.592ZM125.925 18.7202H127.579C127.905 18.7202 128.195 18.6658 128.449 18.5572C128.702 18.4485 128.9 18.2915 129.04 18.0863C129.185 17.881 129.258 17.6335 129.258 17.3437C129.258 16.9292 129.111 16.6032 128.817 16.3658C128.523 16.1283 128.127 16.0096 127.628 16.0096H125.925V18.7202ZM137.178 13.6371V26.0007H134.226V13.6371H137.178ZM141.671 26.1577C141.08 26.1577 140.554 26.0591 140.096 25.8618C139.641 25.6606 139.281 25.3588 139.015 24.9563C138.753 24.5498 138.623 24.0407 138.623 23.429C138.623 22.9138 138.713 22.4792 138.894 22.125C139.075 21.7708 139.325 21.4831 139.643 21.2617C139.961 21.0404 140.327 20.8733 140.742 20.7606C141.156 20.6439 141.599 20.5654 142.07 20.5252C142.597 20.4769 143.021 20.4266 143.343 20.3743C143.665 20.3179 143.899 20.2395 144.044 20.1388C144.193 20.0342 144.267 19.8873 144.267 19.6981V19.668C144.267 19.3581 144.16 19.1186 143.947 18.9496C143.734 18.7805 143.446 18.696 143.084 18.696C142.693 18.696 142.38 18.7805 142.142 18.9496C141.905 19.1186 141.754 19.352 141.689 19.6498L138.967 19.5533C139.047 18.9898 139.254 18.4867 139.588 18.044C139.927 17.5973 140.389 17.2471 140.977 16.9936C141.569 16.736 142.279 16.6072 143.108 16.6072C143.7 16.6072 144.245 16.6777 144.744 16.8185C145.243 16.9554 145.678 17.1566 146.048 17.4222C146.418 17.6838 146.704 18.0058 146.905 18.3881C147.11 18.7705 147.213 19.2071 147.213 19.6981V26.0007H144.436V24.7088H144.364C144.199 25.0227 143.987 25.2883 143.73 25.5057C143.476 25.723 143.176 25.886 142.83 25.9947C142.488 26.1033 142.102 26.1577 141.671 26.1577ZM142.583 24.2258C142.901 24.2258 143.186 24.1614 143.44 24.0327C143.698 23.9039 143.903 23.7268 144.056 23.5014C144.209 23.272 144.285 23.0064 144.285 22.7045V21.8231C144.201 21.8674 144.098 21.9077 143.977 21.9439C143.861 21.9801 143.732 22.0143 143.591 22.0465C143.45 22.0787 143.305 22.1069 143.156 22.131C143.007 22.1552 142.865 22.1773 142.728 22.1974C142.45 22.2417 142.213 22.3101 142.015 22.4027C141.822 22.4953 141.673 22.616 141.569 22.7649C141.468 22.9098 141.418 23.0828 141.418 23.2841C141.418 23.59 141.526 23.8234 141.744 23.9844C141.965 24.1453 142.245 24.2258 142.583 24.2258ZM149.042 26.0007V24.3164L153.341 19.0824V19.022H149.193V16.728H156.86V18.5753L152.876 23.6463V23.7067H157.005V26.0007H149.042ZM162.976 26.1758C162.002 26.1758 161.164 25.9765 160.464 25.5781C159.768 25.1757 159.231 24.6162 158.852 23.8998C158.478 23.1794 158.291 22.3443 158.291 21.3945C158.291 20.4407 158.478 19.6056 158.852 18.8892C159.231 18.1688 159.768 17.6094 160.464 17.2109C161.164 16.8085 162.002 16.6072 162.976 16.6072C163.949 16.6072 164.785 16.8085 165.481 17.2109C166.181 17.6094 166.718 18.1688 167.093 18.8892C167.471 19.6056 167.66 20.4407 167.66 21.3945C167.66 22.3443 167.471 23.1794 167.093 23.8998C166.718 24.6162 166.181 25.1757 165.481 25.5781C164.785 25.9765 163.949 26.1758 162.976 26.1758ZM162.994 23.9481C163.348 23.9481 163.648 23.8395 163.893 23.6221C164.139 23.4048 164.326 23.103 164.455 22.7166C164.587 22.3302 164.654 21.8835 164.654 21.3764C164.654 20.8613 164.587 20.4105 164.455 20.0241C164.326 19.6378 164.139 19.3359 163.893 19.1186C163.648 18.9013 163.348 18.7926 162.994 18.7926C162.627 18.7926 162.318 18.9013 162.064 19.1186C161.814 19.3359 161.623 19.6378 161.49 20.0241C161.362 20.4105 161.297 20.8613 161.297 21.3764C161.297 21.8835 161.362 22.3302 161.49 22.7166C161.623 23.103 161.814 23.4048 162.064 23.6221C162.318 23.8395 162.627 23.9481 162.994 23.9481ZM169.172 26.0007V16.728H172.04V18.4183H172.137C172.306 17.8066 172.581 17.3518 172.964 17.054C173.346 16.7521 173.791 16.6012 174.298 16.6012C174.435 16.6012 174.575 16.6113 174.72 16.6314C174.865 16.6475 175 16.6736 175.125 16.7099V19.2756C174.984 19.2273 174.799 19.189 174.569 19.1609C174.344 19.1327 174.143 19.1186 173.966 19.1186C173.616 19.1186 173.3 19.1971 173.018 19.354C172.74 19.507 172.521 19.7223 172.36 20C172.203 20.2737 172.124 20.5956 172.124 20.9659V26.0007H169.172Z" fill="#702AF7"/>
</g>
<defs>
<filter id="filter0_d_1_56" x="2.39972" y="0.39972" width="39.202" height="39.202" filterUnits="userSpaceOnUse" color-interpolation-filters="sRGB">
<feFlood flood-opacity="0" result="BackgroundImageFix"/>
<feColorMatrix in="SourceAlpha" type="matrix" values="0 0 0 0 0 0 0 0 0 0 0 0 0 0 0 0 0 0 127 0" result="hardAlpha"/>
<feOffset/>
<feGaussianBlur stdDeviation="2.80014"/>
<feComposite in2="hardAlpha" operator="out"/>
<feColorMatrix type="matrix" values="0 0 0 0 0 0 0 0 0 0 0 0 0 0 0 0 0 0 0.25 0"/>
<feBlend mode="normal" in2="BackgroundImageFix" result="effect1_dropShadow_1_56"/>
<feBlend mode="normal" in="SourceGraphic" in2="effect1_dropShadow_1_56" result="shape"/>
</filter>
<filter id="filter1_d_1_56" x="36.2871" y="3.78642" width="145.429" height="32.4286" filterUnits="userSpaceOnUse" color-interpolation-filters="sRGB">
<feFlood flood-opacity="0" result="BackgroundImageFix"/>
<feColorMatrix in="SourceAlpha" type="matrix" values="0 0 0 0 0 0 0 0 0 0 0 0 0 0 0 0 0 0 127 0" result="hardAlpha"/>
<feOffset/>
<feGaussianBlur stdDeviation="2.85714"/>
<feComposite in2="hardAlpha" operator="out"/>
<feColorMatrix type="matrix" values="0 0 0 0 0 0 0 0 0 0 0 0 0 0 0 0 0 0 0.25 0"/>
<feBlend mode="normal" in2="BackgroundImageFix" result="effect1_dropShadow_1_56"/>
<feBlend mode="normal" in="SourceGraphic" in2="effect1_dropShadow_1_56" result="shape"/>
</filter>
<linearGradient id="paint0_linear_1_56" x1="92.0007" y1="0" x2="92.0007" y2="40.0014" gradientUnits="userSpaceOnUse">
<stop stop-color="#1F0354"/>
<stop offset="1" stop-color="#0F022A"/>
</linearGradient>
</defs>
</svg>
