<svg width="40" height="40" viewBox="0 0 40 40" fill="none" xmlns="http://www.w3.org/2000/svg">
<rect width="40" height="40" rx="8" fill="url(#paint0_linear_1_68)"/>
<rect x="1.05" y="1.05" width="37.9" height="37.9" rx="6.95" stroke="white" stroke-opacity="0.15" stroke-width="2.1"/>
<g filter="url(#filter0_d_1_68)">
<path d="M33.8059 15.4178C33.2006 19.2125 31.2689 22.6693 28.3545 25.1734C25.4401 27.6774 21.732 29.0663 17.8899 29.0929C17.1116 29.1228 16.3324 29.0755 15.5635 28.9517C13.9554 28.6785 12.4896 27.8622 11.4106 26.639C10.3316 25.4158 9.70455 23.8596 9.63407 22.23C9.64961 20.4125 10.3792 18.6739 11.6653 17.3895C12.9513 16.1051 14.6909 15.3781 16.5083 15.3652C18.3258 15.3524 20.0755 16.0548 21.3795 17.3208C22.6837 18.5869 23.4377 20.315 23.479 22.1321C23.5081 23.2799 23.0109 24.2866 21.9892 24.3156C20.8975 24.3156 20.3858 23.5367 20.3858 22.4868V19.5697C20.3862 19.0979 20.2 18.6452 19.8679 18.3101C19.5358 17.9751 19.0847 17.785 18.613 17.7812H16.1678C15.4565 17.7763 14.7554 17.9497 14.1284 18.2857C13.5015 18.6216 12.9687 19.1093 12.5789 19.7042C12.189 20.2991 11.9543 20.9823 11.8964 21.6912C11.8386 22.4001 11.9592 23.1122 12.2474 23.7625C12.5356 24.4128 12.9822 24.9805 13.5463 25.4137C14.1104 25.847 14.7741 26.1319 15.4768 26.2426C16.1794 26.3532 16.8985 26.2859 17.5684 26.0469C18.2383 25.808 18.8376 25.4049 19.3116 24.8746L19.3971 24.7471L19.4827 24.8887C19.7768 25.2882 20.1651 25.6089 20.6131 25.8223C21.061 26.0356 21.5547 26.1349 22.0503 26.1114C22.9336 26.0472 23.7569 25.6403 24.3443 24.9774C24.9317 24.3145 25.2367 23.4483 25.1941 22.5636C25.2027 21.8045 25.1177 21.0472 24.9408 20.3088C24.4873 18.2231 23.2779 16.3791 21.5456 15.1324C19.8133 13.8857 17.6808 13.3244 15.5593 13.5568C13.4377 13.7892 11.4773 14.7988 10.056 16.3909C8.63458 17.9832 7.85285 20.0453 7.86149 22.1797C7.88877 24.4429 8.7922 26.6075 10.382 28.2186C11.9716 29.8296 14.1238 30.7617 16.3864 30.819C16.3864 30.819 17.0268 30.8772 17.7487 30.8606C21.258 30.8384 24.6881 29.815 27.6358 27.9106C27.6777 27.8814 27.7197 27.9397 27.6918 27.9822C26.2567 29.5282 24.5018 30.7427 22.5493 31.5412C20.5969 32.3397 18.4938 32.703 16.3867 32.6057C15.0091 32.6307 13.6408 32.3764 12.3642 31.8581C11.0876 31.3398 9.92925 30.5682 8.95902 29.59C7.9887 28.6117 7.22658 27.447 6.71863 26.1662C6.21067 24.8853 5.96741 23.5149 6.0035 22.1375C6.00416 20.4953 6.38781 18.8759 7.12397 17.408C7.86012 15.9401 8.92848 14.6641 10.2442 13.6815C12.0123 12.3794 14.149 11.6739 16.3448 11.6674H19.6267C20.9087 11.6665 22.1764 11.3985 23.3492 10.8807C24.5219 10.3629 25.574 9.60647 26.4384 8.6597C26.4566 8.63945 26.4809 8.62559 26.5076 8.62016C26.5343 8.61438 26.5621 8.61714 26.5872 8.62806C26.6122 8.63898 26.6332 8.65749 26.6471 8.68098C26.6611 8.70456 26.6675 8.7319 26.6652 8.75933C26.526 10.2344 26.035 11.6546 25.2332 12.9006C25.2213 12.9223 25.216 12.9469 25.2179 12.9715C25.2197 12.9961 25.2287 13.0197 25.2438 13.0393C25.2587 13.0588 25.279 13.0736 25.3022 13.0819C25.3254 13.0901 25.3505 13.0915 25.3744 13.0858C26.8894 12.7435 28.3028 12.0505 29.5011 11.0623C30.6993 10.0742 31.6489 8.81855 32.2733 7.39648C32.2892 7.37107 32.3111 7.34997 32.3371 7.33501C32.3633 7.32025 32.3928 7.3125 32.4228 7.3125C32.4529 7.3125 32.4824 7.32025 32.5086 7.33501C32.5346 7.34988 32.5566 7.37098 32.5722 7.39648C33.8585 9.8605 34.2923 12.6812 33.8059 15.4178ZM16.378 19.5332C16.0004 19.5332 15.6276 19.6168 15.2863 19.7782C14.9451 19.9396 14.6438 20.1746 14.4043 20.4664C14.1648 20.7582 13.993 21.0995 13.9013 21.4657C13.8096 21.8319 13.8003 22.2139 13.874 22.5842C13.9725 23.0794 14.2156 23.5343 14.5726 23.8913C14.9296 24.2484 15.3845 24.4916 15.8797 24.5901C16.2499 24.6638 16.6319 24.6544 16.9981 24.5626C17.3642 24.4709 17.7055 24.299 17.9973 24.0595C18.289 23.82 18.524 23.5188 18.6854 23.1775C18.8467 22.8362 18.9303 22.4634 18.9303 22.0859V19.7027C18.928 19.6571 18.9088 19.614 18.8766 19.5817C18.8443 19.5494 18.8012 19.5303 18.7556 19.528L16.378 19.5332Z" fill="#702AF7"/>
</g>
<defs>
<filter id="filter0_d_1_68" x="2" y="2" width="36" height="36" filterUnits="userSpaceOnUse" color-interpolation-filters="sRGB">
<feFlood flood-opacity="0" result="BackgroundImageFix"/>
<feColorMatrix in="SourceAlpha" type="matrix" values="0 0 0 0 0 0 0 0 0 0 0 0 0 0 0 0 0 0 127 0" result="hardAlpha"/>
<feOffset/>
<feGaussianBlur stdDeviation="2"/>
<feComposite in2="hardAlpha" operator="out"/>
<feColorMatrix type="matrix" values="0 0 0 0 0 0 0 0 0 0 0 0 0 0 0 0 0 0 0.25 0"/>
<feBlend mode="normal" in2="BackgroundImageFix" result="effect1_dropShadow_1_68"/>
<feBlend mode="normal" in="SourceGraphic" in2="effect1_dropShadow_1_68" result="shape"/>
</filter>
<linearGradient id="paint0_linear_1_68" x1="20" y1="0" x2="20" y2="40" gradientUnits="userSpaceOnUse">
<stop stop-color="#1F0354"/>
<stop offset="1" stop-color="#0F022A"/>
</linearGradient>
</defs>
</svg>
