<svg width="56" height="56" viewBox="0 0 56 56" fill="none" xmlns="http://www.w3.org/2000/svg">
<rect width="56" height="56" rx="8.4" fill="url(#paint0_linear_1_62)"/>
<rect x="1.05" y="1.05" width="53.9" height="53.9" rx="7.35" stroke="white" stroke-opacity="0.15" stroke-width="2.1"/>
<g filter="url(#filter0_d_1_62)">
<path d="M47.7228 21.454C46.858 26.875 44.0985 31.8133 39.935 35.3905C35.7716 38.9677 30.4743 40.9519 24.9856 40.9899C23.8738 41.0326 22.7605 40.965 21.6621 40.7882C19.3649 40.3978 17.2709 39.2317 15.7294 37.4843C14.188 35.7368 13.2922 33.5137 13.1915 31.1858C13.2137 28.5892 14.2559 26.1055 16.0932 24.2707C17.9305 22.4359 20.4155 21.3973 23.0119 21.3789C25.6083 21.3606 28.1078 22.364 29.9708 24.1726C31.8338 25.9813 32.9111 28.45 32.97 31.0459C33.0115 32.6855 32.3013 34.1237 30.8417 34.1652C29.2822 34.1652 28.5511 33.0524 28.5511 31.5526V27.3852C28.5517 26.7113 28.2858 26.0645 27.8113 25.5859C27.3369 25.1073 26.6925 24.8357 26.0186 24.8303H22.5254C21.5093 24.8233 20.5076 25.071 19.612 25.5509C18.7164 26.0308 17.9553 26.7276 17.3984 27.5775C16.8414 28.4274 16.5062 29.4032 16.4235 30.416C16.3408 31.4287 16.5132 32.4461 16.9249 33.375C17.3366 34.304 17.9746 35.115 18.7805 35.7339C19.5864 36.3528 20.5345 36.7599 21.5382 36.918C22.542 37.076 23.5693 36.9799 24.5263 36.6385C25.4833 36.2971 26.3395 35.7213 27.0166 34.9638L27.1388 34.7816L27.2611 34.9838C27.6812 35.5546 28.2359 36.0128 28.8758 36.3175C29.5157 36.6223 30.221 36.7642 30.929 36.7306C32.1909 36.6389 33.367 36.0575 34.2061 35.1105C35.0453 34.1636 35.481 32.9261 35.4202 31.6623C35.4325 30.5778 35.3109 29.4959 35.0583 28.4412C34.4105 25.4616 32.6827 22.8273 30.208 21.0463C27.7333 19.2653 24.6869 18.4635 21.6561 18.7955C18.6253 19.1274 15.8247 20.5697 13.7943 22.8442C11.7637 25.1189 10.6469 28.0647 10.6593 31.1138C10.6982 34.347 11.9889 37.4393 14.2599 39.7409C16.5308 42.0424 19.6055 43.3739 22.8377 43.4557C22.8377 43.4557 23.7525 43.5389 24.7838 43.5152C29.7972 43.4835 34.6972 42.0214 38.9083 39.3009C38.9682 39.2592 39.0281 39.3424 38.9882 39.4031C36.9381 41.6117 34.4311 43.3468 31.6419 44.4875C28.8527 45.6282 25.8483 46.1471 22.8381 46.0081C20.8702 46.0439 18.9154 45.6805 17.0917 44.9401C15.268 44.1997 13.6132 43.0975 12.2272 41.7C10.841 40.3024 9.75226 38.6386 9.02661 36.8088C8.30096 34.979 7.95344 33.0213 8.005 31.0535C8.00595 28.7076 8.55402 26.3942 9.60567 24.2972C10.6573 22.2002 12.1835 20.3773 14.0631 18.9735C16.589 17.1134 19.6414 16.1056 22.7783 16.0963H27.4667C29.2981 16.0949 31.1092 15.7122 32.7845 14.9724C34.4599 14.2327 35.9629 13.1521 37.1977 11.7996C37.2238 11.7706 37.2584 11.7508 37.2966 11.7431C37.3347 11.7348 37.3745 11.7388 37.4103 11.7544C37.446 11.77 37.476 11.7964 37.4958 11.83C37.5159 11.8637 37.5249 11.9027 37.5217 11.9419C37.3229 14.0492 36.6214 16.0781 35.476 17.8581C35.4591 17.889 35.4514 17.9241 35.4541 17.9593C35.4568 17.9945 35.4696 18.0281 35.4911 18.0561C35.5125 18.084 35.5415 18.1052 35.5746 18.117C35.6077 18.1288 35.6435 18.1307 35.6777 18.1225C37.842 17.6336 39.8612 16.6435 41.573 15.2319C43.2848 13.8202 44.6413 12.0265 45.5334 9.99497C45.556 9.95867 45.5872 9.92853 45.6244 9.90716C45.6618 9.88608 45.704 9.875 45.7469 9.875C45.7898 9.875 45.832 9.88608 45.8694 9.90716C45.9066 9.9284 45.9379 9.95854 45.9604 9.99497C47.7978 13.515 48.4176 17.5445 47.7228 21.454ZM22.8256 27.3332C22.2864 27.3331 21.7537 27.4526 21.2662 27.6831C20.7787 27.9137 20.3483 28.2495 20.0062 28.6663C19.664 29.0832 19.4186 29.5708 19.2876 30.0939C19.1566 30.6171 19.1433 31.1627 19.2486 31.6917C19.3893 32.3991 19.7366 33.049 20.2466 33.559C20.7566 34.0691 21.4064 34.4165 22.1139 34.5573C22.6428 34.6625 23.1884 34.6491 23.7115 34.518C24.2346 34.3869 24.7221 34.1415 25.1389 33.7993C25.5558 33.4571 25.8915 33.0268 26.122 32.5393C26.3524 32.0517 26.4719 31.5191 26.4718 30.9799V27.5753C26.4685 27.5101 26.4412 27.4485 26.3951 27.4024C26.349 27.3563 26.2874 27.329 26.2223 27.3257L22.8256 27.3332Z" fill="#702AF7"/>
</g>
<defs>
<filter id="filter0_d_1_62" x="2.28571" y="2.28571" width="51.4286" height="51.4286" filterUnits="userSpaceOnUse" color-interpolation-filters="sRGB">
<feFlood flood-opacity="0" result="BackgroundImageFix"/>
<feColorMatrix in="SourceAlpha" type="matrix" values="0 0 0 0 0 0 0 0 0 0 0 0 0 0 0 0 0 0 127 0" result="hardAlpha"/>
<feOffset/>
<feGaussianBlur stdDeviation="2.85714"/>
<feComposite in2="hardAlpha" operator="out"/>
<feColorMatrix type="matrix" values="0 0 0 0 0 0 0 0 0 0 0 0 0 0 0 0 0 0 0.25 0"/>
<feBlend mode="normal" in2="BackgroundImageFix" result="effect1_dropShadow_1_62"/>
<feBlend mode="normal" in="SourceGraphic" in2="effect1_dropShadow_1_62" result="shape"/>
</filter>
<linearGradient id="paint0_linear_1_62" x1="28" y1="0" x2="28" y2="56" gradientUnits="userSpaceOnUse">
<stop stop-color="#1F0354"/>
<stop offset="1" stop-color="#0F022A"/>
</linearGradient>
</defs>
</svg>
