<svg width="144" height="56" viewBox="0 0 144 56" fill="none" xmlns="http://www.w3.org/2000/svg">
<rect width="144" height="56" rx="8" fill="url(#paint0_linear_1_50)"/>
<rect x="1.05" y="1.05" width="141.9" height="53.9" rx="6.95" stroke="white" stroke-opacity="0.15" stroke-width="2.1"/>
<g filter="url(#filter0_d_1_50)">
<path d="M51.7228 21.454C50.858 26.875 48.0985 31.8133 43.935 35.3905C39.7716 38.9677 34.4743 40.9519 28.9856 40.9899C27.8738 41.0326 26.7605 40.965 25.6621 40.7882C23.3649 40.3978 21.2709 39.2317 19.7294 37.4843C18.188 35.7368 17.2922 33.5137 17.1915 31.1858C17.2137 28.5892 18.2559 26.1055 20.0932 24.2707C21.9305 22.4359 24.4155 21.3973 27.0119 21.3789C29.6083 21.3606 32.1078 22.364 33.9708 24.1726C35.8338 25.9813 36.9111 28.45 36.97 31.0459C37.0115 32.6855 36.3013 34.1237 34.8417 34.1652C33.2822 34.1652 32.5511 33.0524 32.5511 31.5526V27.3852C32.5517 26.7113 32.2858 26.0645 31.8113 25.5859C31.3369 25.1073 30.6925 24.8357 30.0186 24.8303H26.5254C25.5093 24.8233 24.5076 25.071 23.612 25.5509C22.7164 26.0308 21.9553 26.7276 21.3984 27.5775C20.8414 28.4274 20.5062 29.4032 20.4235 30.416C20.3408 31.4287 20.5132 32.4461 20.9249 33.375C21.3366 34.304 21.9746 35.115 22.7805 35.7339C23.5864 36.3528 24.5345 36.7599 25.5382 36.918C26.542 37.076 27.5693 36.9799 28.5263 36.6385C29.4833 36.2971 30.3395 35.7213 31.0166 34.9638L31.1388 34.7816L31.2611 34.9838C31.6812 35.5546 32.2359 36.0128 32.8758 36.3175C33.5157 36.6223 34.221 36.7642 34.929 36.7306C36.1909 36.6389 37.367 36.0575 38.2061 35.1105C39.0453 34.1636 39.481 32.9261 39.4202 31.6623C39.4325 30.5778 39.3109 29.4959 39.0583 28.4412C38.4105 25.4616 36.6827 22.8273 34.208 21.0463C31.7333 19.2653 28.6869 18.4635 25.6561 18.7955C22.6253 19.1274 19.8247 20.5697 17.7943 22.8442C15.7637 25.1189 14.6469 28.0647 14.6593 31.1138C14.6982 34.347 15.9889 37.4393 18.2599 39.7409C20.5308 42.0424 23.6055 43.3739 26.8377 43.4557C26.8377 43.4557 27.7525 43.5389 28.7838 43.5152C33.7972 43.4835 38.6972 42.0214 42.9083 39.3009C42.9682 39.2592 43.0281 39.3424 42.9882 39.4031C40.9381 41.6117 38.4311 43.3468 35.6419 44.4875C32.8527 45.6282 29.8483 46.1471 26.8381 46.0081C24.8702 46.0439 22.9154 45.6805 21.0917 44.9401C19.268 44.1997 17.6132 43.0975 16.2272 41.7C14.841 40.3024 13.7523 38.6386 13.0266 36.8088C12.301 34.979 11.9534 33.0213 12.005 31.0535C12.0059 28.7076 12.554 26.3942 13.6057 24.2972C14.6573 22.2002 16.1835 20.3773 18.0631 18.9735C20.589 17.1134 23.6414 16.1056 26.7783 16.0963H31.4667C33.2981 16.0949 35.1092 15.7122 36.7845 14.9724C38.4599 14.2327 39.9629 13.1521 41.1977 11.7996C41.2238 11.7706 41.2584 11.7508 41.2966 11.7431C41.3347 11.7348 41.3745 11.7388 41.4103 11.7544C41.446 11.77 41.476 11.7964 41.4958 11.83C41.5159 11.8637 41.5249 11.9027 41.5217 11.9419C41.3229 14.0492 40.6214 16.0781 39.476 17.8581C39.4591 17.889 39.4514 17.9241 39.4541 17.9593C39.4568 17.9945 39.4696 18.0281 39.4911 18.0561C39.5125 18.084 39.5415 18.1052 39.5746 18.117C39.6077 18.1288 39.6435 18.1307 39.6777 18.1225C41.842 17.6336 43.8612 16.6435 45.573 15.2319C47.2848 13.8202 48.6413 12.0265 49.5334 9.99497C49.556 9.95867 49.5872 9.92853 49.6244 9.90716C49.6618 9.88608 49.704 9.875 49.7469 9.875C49.7898 9.875 49.832 9.88608 49.8694 9.90716C49.9066 9.9284 49.9379 9.95854 49.9604 9.99497C51.7978 13.515 52.4176 17.5445 51.7228 21.454ZM26.8256 27.3332C26.2864 27.3331 25.7537 27.4526 25.2662 27.6831C24.7787 27.9137 24.3483 28.2495 24.0062 28.6663C23.664 29.0832 23.4186 29.5708 23.2876 30.0939C23.1566 30.6171 23.1433 31.1627 23.2486 31.6917C23.3893 32.3991 23.7366 33.049 24.2466 33.559C24.7566 34.0691 25.4064 34.4165 26.1139 34.5573C26.6428 34.6625 27.1884 34.6491 27.7115 34.518C28.2346 34.3869 28.7221 34.1415 29.1389 33.7993C29.5558 33.4571 29.8915 33.0268 30.122 32.5393C30.3524 32.0517 30.4719 31.5191 30.4718 30.9799V27.5753C30.4685 27.5101 30.4412 27.4485 30.3951 27.4024C30.349 27.3563 30.2874 27.329 30.2223 27.3257L26.8256 27.3332Z" fill="#702AF7"/>
</g>
<g filter="url(#filter1_d_1_50)">
<path d="M61.2784 24.5V12.8636H65.5398C66.3655 12.8636 67.0492 13 67.5909 13.2727C68.1326 13.5417 68.5379 13.9072 68.8068 14.3693C69.0757 14.8276 69.2102 15.3447 69.2102 15.9204C69.2102 16.4053 69.1212 16.8144 68.9432 17.1477C68.7651 17.4773 68.5265 17.7424 68.2273 17.9432C67.9318 18.1401 67.606 18.2841 67.25 18.375V18.4886C67.6363 18.5076 68.0132 18.6326 68.3807 18.8636C68.7519 19.0909 69.0587 19.4148 69.3011 19.8352C69.5435 20.2557 69.6648 20.767 69.6648 21.3693C69.6648 21.964 69.5246 22.4981 69.2443 22.9716C68.9678 23.4413 68.5398 23.8144 67.9602 24.0909C67.3807 24.3636 66.6401 24.5 65.7386 24.5H61.2784ZM63.0341 22.9943H65.5682C66.4091 22.9943 67.0113 22.8314 67.375 22.5057C67.7386 22.1799 67.9204 21.7727 67.9204 21.2841C67.9204 20.9167 67.8276 20.5795 67.642 20.2727C67.4564 19.9659 67.1913 19.7216 66.8466 19.5398C66.5057 19.3579 66.1004 19.267 65.6307 19.267H63.0341V22.9943ZM63.0341 17.8977H65.3863C65.7803 17.8977 66.1345 17.822 66.4488 17.6704C66.767 17.5189 67.0189 17.3068 67.2045 17.0341C67.3939 16.7576 67.4886 16.4318 67.4886 16.0568C67.4886 15.5758 67.3201 15.1723 66.9829 14.8466C66.6458 14.5208 66.1288 14.3579 65.4318 14.3579H63.0341V17.8977ZM77.1392 20.8807V15.7727H78.8437V24.5H77.1733V22.9886H77.0824C76.8816 23.4545 76.5596 23.8428 76.1165 24.1534C75.6771 24.4602 75.1297 24.6136 74.4744 24.6136C73.9138 24.6136 73.4176 24.4905 72.9858 24.2443C72.5577 23.9943 72.2206 23.625 71.9744 23.1364C71.732 22.6477 71.6108 22.0436 71.6108 21.3239V15.7727H73.3096V21.1193C73.3096 21.714 73.4744 22.1875 73.804 22.5398C74.1335 22.892 74.5615 23.0682 75.088 23.0682C75.4062 23.0682 75.7225 22.9886 76.0369 22.8295C76.3551 22.6704 76.6184 22.4299 76.8267 22.1079C77.0388 21.786 77.143 21.3769 77.1392 20.8807ZM81.1264 24.5V15.7727H82.8253V24.5H81.1264ZM81.9844 14.4261C81.6889 14.4261 81.4351 14.3276 81.223 14.1307C81.0147 13.9299 80.9105 13.6913 80.9105 13.4148C80.9105 13.1345 81.0147 12.8958 81.223 12.6989C81.4351 12.4981 81.6889 12.3977 81.9844 12.3977C82.2798 12.3977 82.5317 12.4981 82.74 12.6989C82.9522 12.8958 83.0582 13.1345 83.0582 13.4148C83.0582 13.6913 82.9522 13.9299 82.74 14.1307C82.5317 14.3276 82.2798 14.4261 81.9844 14.4261ZM86.8096 12.8636V24.5H85.1108V12.8636H86.8096ZM93.169 15.7727V17.1364H88.402V15.7727H93.169ZM89.6804 13.6818H91.3792V21.9375C91.3792 22.267 91.4285 22.5151 91.527 22.6818C91.6254 22.8447 91.7523 22.9564 91.9076 23.017C92.0667 23.0739 92.2391 23.1023 92.4247 23.1023C92.5611 23.1023 92.6804 23.0928 92.7826 23.0739C92.8849 23.0549 92.9645 23.0398 93.0213 23.0284L93.3281 24.4318C93.2296 24.4697 93.0895 24.5076 92.9076 24.5454C92.7258 24.5871 92.4986 24.6098 92.2258 24.6136C91.7789 24.6212 91.3622 24.5417 90.9758 24.375C90.5895 24.2083 90.277 23.9508 90.0383 23.6023C89.7997 23.2538 89.6804 22.8163 89.6804 22.2898V13.6818ZM101.175 24.5L98.6065 15.7727H100.362L102.072 22.1818H102.158L103.874 15.7727H105.629L107.334 22.1534H107.419L109.118 15.7727H110.874L108.311 24.5H106.578L104.805 18.1989H104.675L102.902 24.5H101.175ZM112.486 24.5V15.7727H114.185V24.5H112.486ZM113.344 14.4261C113.048 14.4261 112.794 14.3276 112.582 14.1307C112.374 13.9299 112.27 13.6913 112.27 13.4148C112.27 13.1345 112.374 12.8958 112.582 12.6989C112.794 12.4981 113.048 12.3977 113.344 12.3977C113.639 12.3977 113.891 12.4981 114.099 12.6989C114.312 12.8958 114.418 13.1345 114.418 13.4148C114.418 13.6913 114.312 13.9299 114.099 14.1307C113.891 14.3276 113.639 14.4261 113.344 14.4261ZM120.544 15.7727V17.1364H115.777V15.7727H120.544ZM117.055 13.6818H118.754V21.9375C118.754 22.267 118.803 22.5151 118.902 22.6818C119 22.8447 119.127 22.9564 119.283 23.017C119.442 23.0739 119.614 23.1023 119.8 23.1023C119.936 23.1023 120.055 23.0928 120.158 23.0739C120.26 23.0549 120.339 23.0398 120.396 23.0284L120.703 24.4318C120.605 24.4697 120.464 24.5076 120.283 24.5454C120.101 24.5871 119.874 24.6098 119.601 24.6136C119.154 24.6212 118.737 24.5417 118.351 24.375C117.964 24.2083 117.652 23.9508 117.413 23.6023C117.175 23.2538 117.055 22.8163 117.055 22.2898V13.6818ZM124.31 19.3182V24.5H122.611V12.8636H124.287V17.1932H124.395C124.599 16.7235 124.912 16.3504 125.332 16.0739C125.753 15.7973 126.302 15.6591 126.98 15.6591C127.579 15.6591 128.101 15.7822 128.548 16.0284C128.999 16.2746 129.348 16.642 129.594 17.1307C129.844 17.6155 129.969 18.2216 129.969 18.9489V24.5H128.27V19.1534C128.27 18.5133 128.105 18.017 127.776 17.6648C127.446 17.3087 126.988 17.1307 126.401 17.1307C125.999 17.1307 125.639 17.2159 125.321 17.3864C125.007 17.5568 124.758 17.8068 124.577 18.1364C124.399 18.4621 124.31 18.8561 124.31 19.3182Z" fill="#E8E8E8"/>
<path d="M60.9357 43.5V31.1364H66.0912C67.0169 31.1364 67.7916 31.2672 68.4155 31.5288C69.0433 31.7904 69.5142 32.1566 69.8281 32.6275C70.1461 33.0984 70.305 33.6437 70.305 34.2635C70.305 34.7344 70.2064 35.1549 70.0092 35.5252C69.812 35.8914 69.5403 36.1953 69.1942 36.4368C68.8481 36.6783 68.4477 36.8473 67.9929 36.9439V37.0646C68.4919 37.0888 68.9528 37.2236 69.3753 37.4691C69.8019 37.7146 70.144 38.0567 70.4016 38.4954C70.6592 38.93 70.788 39.4452 70.788 40.0408C70.788 40.7049 70.6189 41.2985 70.2809 41.8217C69.9428 42.3409 69.4538 42.7514 68.8139 43.0533C68.174 43.3511 67.3972 43.5 66.4836 43.5H60.9357ZM63.924 41.0913H65.7713C66.4193 41.0913 66.8962 40.9685 67.202 40.723C67.5119 40.4775 67.6669 40.1354 67.6669 39.6967C67.6669 39.3788 67.5924 39.1051 67.4435 38.8757C67.2946 38.6423 67.0833 38.4632 66.8096 38.3384C66.536 38.2096 66.208 38.1452 65.8256 38.1452H63.924V41.0913ZM63.924 36.2195H65.5781C65.9041 36.2195 66.1939 36.1651 66.4474 36.0565C66.701 35.9478 66.8982 35.7908 67.039 35.5856C67.1839 35.3803 67.2564 35.1328 67.2564 34.843C67.2564 34.4285 67.1095 34.1025 66.8157 33.865C66.5219 33.6276 66.1255 33.5089 65.6264 33.5089H63.924V36.2195ZM75.1768 31.1364V43.5H72.2248V31.1364H75.1768ZM79.6698 43.6569C79.0782 43.6569 78.553 43.5583 78.0942 43.3611C77.6394 43.1599 77.2792 42.8581 77.0136 42.4556C76.752 42.0491 76.6212 41.54 76.6212 40.9283C76.6212 40.4131 76.7117 39.9784 76.8928 39.6243C77.0739 39.2701 77.3235 38.9824 77.6414 38.761C77.9593 38.5396 78.3256 38.3726 78.7401 38.2599C79.1547 38.1432 79.5974 38.0647 80.0682 38.0245C80.5955 37.9762 81.0201 37.9259 81.342 37.8736C81.664 37.8172 81.8974 37.7387 82.0423 37.6381C82.1912 37.5335 82.2657 37.3866 82.2657 37.1974V37.1672C82.2657 36.8574 82.159 36.6179 81.9457 36.4489C81.7324 36.2798 81.4447 36.1953 81.0825 36.1953C80.6921 36.1953 80.3781 36.2798 80.1407 36.4489C79.9032 36.6179 79.7523 36.8513 79.6879 37.1491L76.9653 37.0525C77.0458 36.4891 77.253 35.986 77.5871 35.5433C77.9251 35.0966 78.388 34.7464 78.9756 34.4929C79.5672 34.2353 80.2775 34.1065 81.1066 34.1065C81.6982 34.1065 82.2436 34.177 82.7426 34.3178C83.2417 34.4547 83.6763 34.6559 84.0466 34.9215C84.4169 35.1831 84.7026 35.5051 84.9038 35.8874C85.1091 36.2698 85.2117 36.7064 85.2117 37.1974V43.5H82.4347V42.2081H82.3623C82.1973 42.522 81.986 42.7876 81.7284 43.005C81.4749 43.2223 81.175 43.3853 80.8289 43.494C80.4868 43.6026 80.1004 43.6569 79.6698 43.6569ZM80.5814 41.7251C80.8993 41.7251 81.1851 41.6607 81.4386 41.5319C81.6962 41.4032 81.9015 41.2261 82.0544 41.0007C82.2073 40.7713 82.2838 40.5057 82.2838 40.2038V39.3224C82.1993 39.3667 82.0967 39.4069 81.9759 39.4432C81.8592 39.4794 81.7304 39.5136 81.5896 39.5458C81.4487 39.578 81.3038 39.6062 81.1549 39.6303C81.006 39.6545 80.8631 39.6766 80.7263 39.6967C80.4486 39.741 80.2111 39.8094 80.0139 39.902C79.8207 39.9945 79.6718 40.1153 79.5672 40.2642C79.4666 40.4091 79.4163 40.5821 79.4163 40.7834C79.4163 41.0892 79.5249 41.3227 79.7423 41.4837C79.9636 41.6446 80.2433 41.7251 80.5814 41.7251ZM87.0409 43.5V41.8157L91.3392 36.5817V36.5213H87.1918V34.2273H94.8587V36.0746L90.8744 41.1456V41.206H95.0036V43.5H87.0409ZM100.974 43.6751C100 43.6751 99.1631 43.4758 98.4628 43.0774C97.7665 42.6749 97.2292 42.1155 96.8509 41.3991C96.4766 40.6787 96.2895 39.8436 96.2895 38.8938C96.2895 37.94 96.4766 37.1049 96.8509 36.3885C97.2292 35.6681 97.7665 35.1087 98.4628 34.7102C99.1631 34.3078 100 34.1065 100.974 34.1065C101.948 34.1065 102.783 34.3078 103.479 34.7102C104.18 35.1087 104.717 35.6681 105.091 36.3885C105.47 37.1049 105.659 37.94 105.659 38.8938C105.659 39.8436 105.47 40.6787 105.091 41.3991C104.717 42.1155 104.18 42.6749 103.479 43.0774C102.783 43.4758 101.948 43.6751 100.974 43.6751ZM100.992 41.4474C101.346 41.4474 101.646 41.3388 101.892 41.1214C102.137 40.9041 102.324 40.6023 102.453 40.2159C102.586 39.8295 102.652 39.3828 102.652 38.8757C102.652 38.3605 102.586 37.9098 102.453 37.5234C102.324 37.1371 102.137 36.8352 101.892 36.6179C101.646 36.4006 101.346 36.2919 100.992 36.2919C100.626 36.2919 100.316 36.4006 100.063 36.6179C99.813 36.8352 99.6219 37.1371 99.4891 37.5234C99.3603 37.9098 99.2959 38.3605 99.2959 38.8757C99.2959 39.3828 99.3603 39.8295 99.4891 40.2159C99.6219 40.6023 99.813 40.9041 100.063 41.1214C100.316 41.3388 100.626 41.4474 100.992 41.4474ZM107.171 43.5V34.2273H110.039V35.9176H110.135C110.304 35.3059 110.58 34.8511 110.962 34.5533C111.345 34.2514 111.789 34.1005 112.296 34.1005C112.433 34.1005 112.574 34.1105 112.719 34.1307C112.864 34.1468 112.999 34.1729 113.123 34.2092V36.7748C112.983 36.7266 112.797 36.6883 112.568 36.6601C112.343 36.632 112.141 36.6179 111.964 36.6179C111.614 36.6179 111.298 36.6964 111.017 36.8533C110.739 37.0063 110.52 37.2216 110.359 37.4993C110.202 37.773 110.123 38.0949 110.123 38.4652V43.5H107.171Z" fill="#702AF7"/>
</g>
<defs>
<filter id="filter0_d_1_50" x="6.28571" y="2.28571" width="51.4286" height="51.4286" filterUnits="userSpaceOnUse" color-interpolation-filters="sRGB">
<feFlood flood-opacity="0" result="BackgroundImageFix"/>
<feColorMatrix in="SourceAlpha" type="matrix" values="0 0 0 0 0 0 0 0 0 0 0 0 0 0 0 0 0 0 127 0" result="hardAlpha"/>
<feOffset/>
<feGaussianBlur stdDeviation="2.85714"/>
<feComposite in2="hardAlpha" operator="out"/>
<feColorMatrix type="matrix" values="0 0 0 0 0 0 0 0 0 0 0 0 0 0 0 0 0 0 0.25 0"/>
<feBlend mode="normal" in2="BackgroundImageFix" result="effect1_dropShadow_1_50"/>
<feBlend mode="normal" in="SourceGraphic" in2="effect1_dropShadow_1_50" result="shape"/>
</filter>
<filter id="filter1_d_1_50" x="54.4" y="3.9" width="83.2" height="48.2" filterUnits="userSpaceOnUse" color-interpolation-filters="sRGB">
<feFlood flood-opacity="0" result="BackgroundImageFix"/>
<feColorMatrix in="SourceAlpha" type="matrix" values="0 0 0 0 0 0 0 0 0 0 0 0 0 0 0 0 0 0 127 0" result="hardAlpha"/>
<feOffset/>
<feGaussianBlur stdDeviation="2.8"/>
<feComposite in2="hardAlpha" operator="out"/>
<feColorMatrix type="matrix" values="0 0 0 0 0 0 0 0 0 0 0 0 0 0 0 0 0 0 0.25 0"/>
<feBlend mode="normal" in2="BackgroundImageFix" result="effect1_dropShadow_1_50"/>
<feBlend mode="normal" in="SourceGraphic" in2="effect1_dropShadow_1_50" result="shape"/>
</filter>
<linearGradient id="paint0_linear_1_50" x1="72" y1="0" x2="72" y2="56" gradientUnits="userSpaceOnUse">
<stop stop-color="#1F0354"/>
<stop offset="1" stop-color="#0F022A"/>
</linearGradient>
</defs>
</svg>
