<svg width="272" height="40" viewBox="0 0 272 40" fill="none" xmlns="http://www.w3.org/2000/svg">
<rect width="272.001" height="40.0014" rx="8" fill="url(#paint0_linear_1_56)"/>
<rect x="1.07143" y="1.07143" width="269.858" height="37.8585" rx="6.92857" stroke="white" stroke-opacity="0.15" stroke-width="2.14286"/>
<g filter="url(#filter0_d_1_56)">
<path d="M22.0009 6.50087C14.2663 6.50087 8.00002 12.7008 8.00002 20.3418C8.00002 26.4604 12.0113 31.6464 17.5705 33.476C18.2732 33.6066 18.5269 33.1784 18.5269 32.8082C18.5269 32.4795 18.519 31.6101 18.5138 30.4561C14.6172 31.29 13.7964 28.5954 13.7964 28.5954C13.1585 27.0002 12.2379 26.572 12.2379 26.572C10.9708 25.7164 12.3385 25.7346 12.3385 25.7346C13.7421 25.8289 14.4807 27.1576 14.4807 27.1576C15.7294 29.2753 17.7569 28.6628 18.5593 28.3064C18.6818 27.4145 19.0467 26.8012 19.444 26.4595C16.3358 26.1126 13.0675 24.9232 13.0675 19.6195C13.0675 18.1048 13.61 16.8712 14.5069 15.9023C14.352 15.5554 13.8778 14.1454 14.6303 12.2388C14.6303 12.2388 15.802 11.8694 18.4805 13.6584C19.6015 13.3513 20.7916 13.1982 21.9808 13.1904C23.1708 13.1982 24.36 13.3521 25.481 13.6584C28.1438 11.8694 29.3146 12.2388 29.3146 12.2388C30.0663 14.1454 29.592 15.5546 29.4555 15.9023C30.3437 16.8712 30.8862 18.1056 30.8862 19.6195C30.8862 24.9353 27.6135 26.1074 24.5018 26.4457C24.9883 26.86 25.4442 27.7121 25.4442 29.0054C25.4442 30.8566 25.4267 32.348 25.4267 32.7987C25.4267 33.1585 25.6717 33.5911 26.3928 33.4518C31.9931 31.6412 36 26.4509 36 20.341C36 12.6999 29.7338 6.50001 21.9991 6.50001L22.0009 6.50087Z" fill="white"/>
</g>
<g filter="url(#filter1_d_1_56)">
<path d="M47.3622 26.5007H43.3597V14.1371H47.489C48.7004 14.1371 49.7407 14.3846 50.6101 14.8796C51.4794 15.3706 52.1455 16.0769 52.6083 16.9986C53.0751 17.9162 53.3086 19.0169 53.3086 20.3008C53.3086 21.5886 53.0731 22.6954 52.6022 23.6211C52.1354 24.5467 51.4593 25.2591 50.5738 25.7582C49.6884 26.2532 48.6179 26.5007 47.3622 26.5007ZM45.2251 24.8707H47.2596C48.2013 24.8707 48.9841 24.6936 49.6079 24.3395C50.2317 23.9813 50.6986 23.4641 51.0085 22.788C51.3184 22.1078 51.4733 21.2788 51.4733 20.3008C51.4733 19.3308 51.3184 18.5078 51.0085 17.8317C50.7026 17.1555 50.2458 16.6424 49.6381 16.2922C49.0304 15.9421 48.2758 15.767 47.3743 15.767H45.2251V24.8707ZM59.4798 26.6878C58.5662 26.6878 57.7794 26.4926 57.1194 26.1023C56.4634 25.7078 55.9563 25.1545 55.5981 24.4421C55.2439 23.7257 55.0668 22.8866 55.0668 21.9247C55.0668 20.9749 55.2439 20.1378 55.5981 19.4133C55.9563 18.6889 56.4553 18.1234 57.0952 17.717C57.7392 17.3105 58.4918 17.1072 59.353 17.1072C59.8762 17.1072 60.3833 17.1938 60.8743 17.3668C61.3654 17.5399 61.806 17.8115 62.1964 18.1818C62.5868 18.5521 62.8947 19.033 63.1201 19.6246C63.3455 20.2122 63.4582 20.9266 63.4582 21.7677V22.4077H56.0871V21.0554H61.6893C61.6893 20.5805 61.5927 20.1599 61.3996 19.7937C61.2064 19.4234 60.9347 19.1316 60.5846 18.9183C60.2385 18.705 59.832 18.5984 59.3651 18.5984C58.858 18.5984 58.4153 18.7231 58.037 18.9726C57.6627 19.2181 57.3729 19.5401 57.1677 19.9386C56.9664 20.333 56.8658 20.7616 56.8658 21.2244V22.2809C56.8658 22.9007 56.9745 23.4279 57.1918 23.8626C57.4132 24.2972 57.7211 24.6292 58.1155 24.8587C58.5099 25.084 58.9707 25.1967 59.4979 25.1967C59.84 25.1967 60.1519 25.1484 60.4337 25.0518C60.7154 24.9512 60.9589 24.8023 61.1641 24.6051C61.3694 24.4079 61.5263 24.1644 61.635 23.8746L63.3435 24.1825C63.2066 24.6856 62.9611 25.1263 62.6069 25.5046C62.2568 25.8789 61.8161 26.1707 61.2849 26.38C60.7576 26.5852 60.156 26.6878 59.4798 26.6878ZM65.4609 29.978V17.228H67.2237V18.7312H67.3746C67.4793 18.538 67.6302 18.3146 67.8274 18.0611C68.0246 17.8075 68.2983 17.5862 68.6484 17.397C68.9985 17.2038 69.4614 17.1072 70.0369 17.1072C70.7855 17.1072 71.4536 17.2964 72.0412 17.6747C72.6288 18.053 73.0896 18.5984 73.4236 19.3107C73.7617 20.0231 73.9307 20.8803 73.9307 21.8824C73.9307 22.8846 73.7637 23.7438 73.4297 24.4602C73.0956 25.1726 72.6368 25.7219 72.0532 26.1083C71.4697 26.4906 70.8036 26.6818 70.055 26.6818C69.4916 26.6818 69.0307 26.5872 68.6726 26.3981C68.3184 26.2089 68.0407 25.9876 67.8395 25.734C67.6382 25.4805 67.4833 25.2551 67.3746 25.0579H67.2659V29.978H65.4609ZM67.2297 21.8643C67.2297 22.5163 67.3243 23.0878 67.5135 23.5788C67.7026 24.0698 67.9763 24.4542 68.3345 24.7319C68.6927 25.0056 69.1314 25.1424 69.6505 25.1424C70.1898 25.1424 70.6406 24.9995 71.0028 24.7138C71.365 24.424 71.6387 24.0316 71.8238 23.5366C72.013 23.0415 72.1076 22.4841 72.1076 21.8643C72.1076 21.2526 72.015 20.7032 71.8299 20.2163C71.6488 19.7293 71.3751 19.3449 71.0088 19.0632C70.6466 18.7815 70.1939 18.6406 69.6505 18.6406C69.1273 18.6406 68.6846 18.7754 68.3224 19.0451C67.9642 19.3147 67.6926 19.691 67.5074 20.174C67.3223 20.6569 67.2297 21.2204 67.2297 21.8643ZM77.7581 14.1371V26.5007H75.9531V14.1371H77.7581ZM84.0924 26.6878C83.2231 26.6878 82.4644 26.4886 81.8165 26.0902C81.1685 25.6917 80.6654 25.1343 80.3072 24.418C79.949 23.7016 79.7699 22.8645 79.7699 21.9066C79.7699 20.9447 79.949 20.1036 80.3072 19.3832C80.6654 18.6627 81.1685 18.1033 81.8165 17.7049C82.4644 17.3065 83.2231 17.1072 84.0924 17.1072C84.9617 17.1072 85.7203 17.3065 86.3683 17.7049C87.0163 18.1033 87.5193 18.6627 87.8775 19.3832C88.2357 20.1036 88.4148 20.9447 88.4148 21.9066C88.4148 22.8645 88.2357 23.7016 87.8775 24.418C87.5193 25.1343 87.0163 25.6917 86.3683 26.0902C85.7203 26.4886 84.9617 26.6878 84.0924 26.6878ZM84.0984 25.1726C84.6619 25.1726 85.1287 25.0237 85.499 24.7258C85.8693 24.428 86.1429 24.0316 86.32 23.5366C86.5011 23.0415 86.5917 22.4962 86.5917 21.9006C86.5917 21.3089 86.5011 20.7656 86.32 20.2706C86.1429 19.7715 85.8693 19.3711 85.499 19.0692C85.1287 18.7674 84.6619 18.6165 84.0984 18.6165C83.5309 18.6165 83.0601 18.7674 82.6858 19.0692C82.3155 19.3711 82.0398 19.7715 81.8587 20.2706C81.6816 20.7656 81.5931 21.3089 81.5931 21.9006C81.5931 22.4962 81.6816 23.0415 81.8587 23.5366C82.0398 24.0316 82.3155 24.428 82.6858 24.7258C83.0601 25.0237 83.5309 25.1726 84.0984 25.1726ZM91.2552 29.978C90.9855 29.978 90.74 29.9558 90.5187 29.9116C90.2973 29.8713 90.1323 29.827 90.0237 29.7787L90.4583 28.2997C90.7883 28.3882 91.0821 28.4265 91.3397 28.4144C91.5973 28.4023 91.8247 28.3057 92.0219 28.1246C92.2231 27.9435 92.4002 27.6477 92.5531 27.2372L92.7765 26.6214L89.3838 17.228H91.3156L93.6639 24.424H93.7605L96.1089 17.228H98.0467L94.2254 27.7383C94.0483 28.2212 93.8229 28.6297 93.5492 28.9638C93.2756 29.3018 92.9496 29.5554 92.5712 29.7244C92.1929 29.8935 91.7543 29.978 91.2552 29.978ZM103.424 26.6878C102.511 26.6878 101.724 26.4926 101.064 26.1023C100.408 25.7078 99.9006 25.1545 99.5424 24.4421C99.1882 23.7257 99.0111 22.8866 99.0111 21.9247C99.0111 20.9749 99.1882 20.1378 99.5424 19.4133C99.9006 18.6889 100.4 18.1234 101.04 17.717C101.683 17.3105 102.436 17.1072 103.297 17.1072C103.821 17.1072 104.328 17.1938 104.819 17.3668C105.31 17.5399 105.75 17.8115 106.141 18.1818C106.531 18.5521 106.839 19.033 107.064 19.6246C107.29 20.2122 107.402 20.9266 107.402 21.7677V22.4077H100.031V21.0554H105.634C105.634 20.5805 105.537 20.1599 105.344 19.7937C105.151 19.4234 104.879 19.1316 104.529 18.9183C104.183 18.705 103.776 18.5984 103.309 18.5984C102.802 18.5984 102.36 18.7231 101.981 18.9726C101.607 19.2181 101.317 19.5401 101.112 19.9386C100.911 20.333 100.81 20.7616 100.81 21.2244V22.2809C100.81 22.9007 100.919 23.4279 101.136 23.8626C101.357 24.2972 101.665 24.6292 102.06 24.8587C102.454 25.084 102.915 25.1967 103.442 25.1967C103.784 25.1967 104.096 25.1484 104.378 25.0518C104.66 24.9512 104.903 24.8023 105.108 24.6051C105.314 24.4079 105.471 24.1644 105.579 23.8746L107.288 24.1825C107.151 24.6856 106.905 25.1263 106.551 25.5046C106.201 25.8789 105.76 26.1707 105.229 26.38C104.702 26.5852 104.1 26.6878 103.424 26.6878ZM112.876 26.6818C112.128 26.6818 111.46 26.4906 110.872 26.1083C110.289 25.7219 109.83 25.1726 109.496 24.4602C109.166 23.7438 109.001 22.8846 109.001 21.8824C109.001 20.8803 109.168 20.0231 109.502 19.3107C109.84 18.5984 110.303 18.053 110.89 17.6747C111.478 17.2964 112.144 17.1072 112.889 17.1072C113.464 17.1072 113.927 17.2038 114.277 17.397C114.631 17.5862 114.905 17.8075 115.098 18.0611C115.295 18.3146 115.448 18.538 115.557 18.7312H115.666V14.1371H117.471V26.5007H115.708V25.0579H115.557C115.448 25.2551 115.291 25.4805 115.086 25.734C114.885 25.9876 114.607 26.2089 114.253 26.3981C113.899 26.5872 113.44 26.6818 112.876 26.6818ZM113.275 25.1424C113.794 25.1424 114.233 25.0056 114.591 24.7319C114.953 24.4542 115.227 24.0698 115.412 23.5788C115.601 23.0878 115.696 22.5163 115.696 21.8643C115.696 21.2204 115.603 20.6569 115.418 20.174C115.233 19.691 114.961 19.3147 114.603 19.0451C114.245 18.7754 113.802 18.6406 113.275 18.6406C112.732 18.6406 112.279 18.7815 111.917 19.0632C111.554 19.3449 111.281 19.7293 111.096 20.2163C110.914 20.7032 110.824 21.2526 110.824 21.8643C110.824 22.4841 110.916 23.0415 111.102 23.5366C111.287 24.0316 111.56 24.424 111.923 24.7138C112.289 24.9995 112.74 25.1424 113.275 25.1424ZM128.452 26.6878C127.582 26.6878 126.824 26.4886 126.176 26.0902C125.528 25.6917 125.025 25.1343 124.667 24.418C124.308 23.7016 124.129 22.8645 124.129 21.9066C124.129 20.9447 124.308 20.1036 124.667 19.3832C125.025 18.6627 125.528 18.1033 126.176 17.7049C126.824 17.3065 127.582 17.1072 128.452 17.1072C129.321 17.1072 130.08 17.3065 130.728 17.7049C131.376 18.1033 131.879 18.6627 132.237 19.3832C132.595 20.1036 132.774 20.9447 132.774 21.9066C132.774 22.8645 132.595 23.7016 132.237 24.418C131.879 25.1343 131.376 25.6917 130.728 26.0902C130.08 26.4886 129.321 26.6878 128.452 26.6878ZM128.458 25.1726C129.021 25.1726 129.488 25.0237 129.858 24.7258C130.229 24.428 130.502 24.0316 130.679 23.5366C130.86 23.0415 130.951 22.4962 130.951 21.9006C130.951 21.3089 130.86 20.7656 130.679 20.2706C130.502 19.7715 130.229 19.3711 129.858 19.0692C129.488 18.7674 129.021 18.6165 128.458 18.6165C127.89 18.6165 127.419 18.7674 127.045 19.0692C126.675 19.3711 126.399 19.7715 126.218 20.2706C126.041 20.7656 125.952 21.3089 125.952 21.9006C125.952 22.4962 126.041 23.0415 126.218 23.5366C126.399 24.0316 126.675 24.428 127.045 24.7258C127.419 25.0237 127.89 25.1726 128.458 25.1726ZM136.594 20.995V26.5007H134.789V17.228H136.522V18.7372H136.636C136.85 18.2462 137.184 17.8518 137.638 17.554C138.097 17.2561 138.675 17.1072 139.371 17.1072C140.003 17.1072 140.556 17.24 141.031 17.5057C141.506 17.7673 141.874 18.1577 142.136 18.6768C142.398 19.196 142.528 19.8379 142.528 20.6026V26.5007H140.723V20.8199C140.723 20.1478 140.548 19.6226 140.198 19.2443C139.848 18.862 139.367 18.6708 138.755 18.6708C138.337 18.6708 137.964 18.7614 137.638 18.9425C137.316 19.1236 137.061 19.3892 136.872 19.7393C136.687 20.0855 136.594 20.504 136.594 20.995Z" fill="#E8E8E8"/>
<path d="M157.051 17.6758C156.982 17.4222 156.882 17.1989 156.749 17.0057C156.616 16.8085 156.453 16.6414 156.26 16.5046C156.067 16.3678 155.845 16.2651 155.596 16.1967C155.346 16.1243 155.073 16.0881 154.775 16.0881C154.175 16.0881 153.656 16.2329 153.217 16.5227C152.783 16.8125 152.447 17.2351 152.209 17.7905C151.972 18.3418 151.853 19.0119 151.853 19.8008C151.853 20.5936 151.968 21.2698 152.197 21.8292C152.426 22.3886 152.758 22.8152 153.193 23.109C153.628 23.4028 154.155 23.5497 154.775 23.5497C155.322 23.5497 155.785 23.4612 156.163 23.2841C156.546 23.103 156.835 22.8474 157.033 22.5174C157.23 22.1874 157.328 21.799 157.328 21.3523L157.884 21.4187H154.877V19.2393H160.208V20.8753C160.208 21.9821 159.973 22.9299 159.502 23.7187C159.035 24.5076 158.391 25.1133 157.57 25.5359C156.753 25.9584 155.813 26.1697 154.751 26.1697C153.571 26.1697 152.535 25.9142 151.642 25.403C150.748 24.8919 150.052 24.1635 149.553 23.2177C149.054 22.2679 148.804 21.141 148.804 19.837C148.804 18.8228 148.955 17.9233 149.257 17.1385C149.559 16.3497 149.979 15.6816 150.519 15.1342C151.062 14.5869 151.69 14.1723 152.402 13.8906C153.119 13.6089 153.889 13.468 154.714 13.468C155.431 13.468 156.097 13.5707 156.713 13.7759C157.332 13.9812 157.88 14.2709 158.355 14.6452C158.834 15.0195 159.222 15.4642 159.52 15.9794C159.818 16.4945 160.003 17.06 160.075 17.6758H157.051ZM162.55 26.0007V16.728H165.502V26.0007H162.55ZM164.029 15.6474C163.615 15.6474 163.259 15.5105 162.961 15.2369C162.663 14.9592 162.514 14.6251 162.514 14.2347C162.514 13.8484 162.663 13.5183 162.961 13.2447C163.259 12.967 163.615 12.8281 164.029 12.8281C164.448 12.8281 164.804 12.967 165.098 13.2447C165.396 13.5183 165.545 13.8484 165.545 14.2347C165.545 14.6251 165.396 14.9592 165.098 15.2369C164.804 15.5105 164.448 15.6474 164.029 15.6474ZM172.615 16.728V18.9013H166.766V16.728H172.615ZM167.991 14.5064H170.943V23.0849C170.943 23.266 170.971 23.4129 171.028 23.5256C171.088 23.6342 171.175 23.7127 171.287 23.761C171.4 23.8053 171.535 23.8274 171.692 23.8274C171.804 23.8274 171.923 23.8173 172.048 23.7972C172.177 23.7731 172.273 23.7529 172.338 23.7368L172.784 25.8679C172.644 25.9081 172.444 25.9584 172.187 26.0188C171.933 26.0792 171.629 26.1174 171.275 26.1335C170.583 26.1657 169.989 26.0852 169.494 25.892C169.003 25.6948 168.627 25.389 168.365 24.9744C168.108 24.5599 167.983 24.0387 167.991 23.4109V14.5064ZM174.321 26.0007V13.6371H177.309V18.5994H182.181V13.6371H185.163V26.0007H182.181V21.0323H177.309V26.0007H174.321ZM193.02 21.9982V16.728H195.966V26.0007H193.153V24.2741H193.056C192.851 24.8416 192.501 25.2924 192.006 25.6264C191.515 25.9564 190.921 26.1214 190.225 26.1214C189.593 26.1214 189.038 25.9765 188.559 25.6868C188.08 25.397 187.708 24.9925 187.442 24.4734C187.177 23.9502 187.042 23.3384 187.038 22.6381V16.728H189.99V22.0586C189.994 22.5617 190.127 22.9581 190.388 23.2479C190.65 23.5376 191.006 23.6825 191.457 23.6825C191.75 23.6825 192.014 23.6181 192.248 23.4893C192.485 23.3565 192.672 23.1654 192.809 22.9158C192.95 22.6623 193.02 22.3564 193.02 21.9982ZM197.845 26.0007V13.6371H200.797V18.3157H200.858C200.978 18.034 201.149 17.7623 201.371 17.5007C201.596 17.2391 201.882 17.0258 202.228 16.8608C202.578 16.6918 202.997 16.6072 203.484 16.6072C204.128 16.6072 204.729 16.7763 205.289 17.1143C205.852 17.4524 206.307 17.9736 206.653 18.6779C206.999 19.3822 207.172 20.2797 207.172 21.3704C207.172 22.4208 207.005 23.3002 206.671 24.0085C206.341 24.7168 205.895 25.2481 205.331 25.6023C204.772 25.9564 204.15 26.1335 203.466 26.1335C202.999 26.1335 202.594 26.057 202.252 25.9041C201.91 25.7512 201.622 25.5499 201.389 25.3004C201.16 25.0509 200.982 24.7832 200.858 24.4975H200.767V26.0007H197.845ZM200.737 21.3643C200.737 21.8634 200.803 22.298 200.936 22.6683C201.073 23.0386 201.268 23.3263 201.522 23.5316C201.779 23.7328 202.087 23.8334 202.445 23.8334C202.808 23.8334 203.116 23.7328 203.369 23.5316C203.623 23.3263 203.814 23.0386 203.943 22.6683C204.075 22.298 204.142 21.8634 204.142 21.3643C204.142 20.8653 204.075 20.4326 203.943 20.0664C203.814 19.7002 203.623 19.4164 203.369 19.2152C203.12 19.014 202.812 18.9133 202.445 18.9133C202.083 18.9133 201.775 19.0119 201.522 19.2092C201.268 19.4064 201.073 19.6881 200.936 20.0543C200.803 20.4206 200.737 20.8572 200.737 21.3643ZM212.372 26.0007V13.6371H217.479C218.405 13.6371 219.203 13.8182 219.876 14.1804C220.552 14.5386 221.073 15.0396 221.439 15.6836C221.805 16.3235 221.988 17.0681 221.988 17.9172C221.988 18.7705 221.801 19.517 221.427 20.1569C221.057 20.7928 220.528 21.2859 219.839 21.636C219.151 21.9861 218.334 22.1612 217.388 22.1612H214.237V19.8068H216.833C217.284 19.8068 217.66 19.7283 217.962 19.5714C218.268 19.4144 218.499 19.1951 218.656 18.9133C218.813 18.6276 218.892 18.2956 218.892 17.9172C218.892 17.5349 218.813 17.2049 218.656 16.9272C218.499 16.6455 218.268 16.4281 217.962 16.2752C217.656 16.1223 217.28 16.0458 216.833 16.0458H215.36V26.0007H212.372ZM225.743 26.1577C225.152 26.1577 224.627 26.0591 224.168 25.8618C223.713 25.6606 223.353 25.3588 223.087 24.9563C222.826 24.5498 222.695 24.0407 222.695 23.429C222.695 22.9138 222.785 22.4792 222.966 22.125C223.148 21.7708 223.397 21.4831 223.715 21.2617C224.033 21.0404 224.399 20.8733 224.814 20.7606C225.228 20.6439 225.671 20.5654 226.142 20.5252C226.669 20.4769 227.094 20.4266 227.416 20.3743C227.738 20.3179 227.971 20.2395 228.116 20.1388C228.265 20.0342 228.339 19.8873 228.339 19.6981V19.668C228.339 19.3581 228.233 19.1186 228.019 18.9496C227.806 18.7805 227.518 18.696 227.156 18.696C226.766 18.696 226.452 18.7805 226.214 18.9496C225.977 19.1186 225.826 19.352 225.762 19.6498L223.039 19.5533C223.119 18.9898 223.327 18.4867 223.661 18.044C223.999 17.5973 224.462 17.2471 225.049 16.9936C225.641 16.736 226.351 16.6072 227.18 16.6072C227.772 16.6072 228.317 16.6777 228.816 16.8185C229.315 16.9554 229.75 17.1566 230.12 17.4222C230.49 17.6838 230.776 18.0058 230.977 18.3881C231.183 18.7705 231.285 19.2071 231.285 19.6981V26.0007H228.508V24.7088H228.436C228.271 25.0227 228.06 25.2883 227.802 25.5057C227.548 25.723 227.249 25.886 226.903 25.9947C226.56 26.1033 226.174 26.1577 225.743 26.1577ZM226.655 24.2258C226.973 24.2258 227.259 24.1614 227.512 24.0327C227.77 23.9039 227.975 23.7268 228.128 23.5014C228.281 23.272 228.357 23.0064 228.357 22.7045V21.8231C228.273 21.8674 228.17 21.9077 228.05 21.9439C227.933 21.9801 227.804 22.0143 227.663 22.0465C227.522 22.0787 227.377 22.1069 227.229 22.131C227.08 22.1552 226.937 22.1773 226.8 22.1974C226.522 22.2417 226.285 22.3101 226.088 22.4027C225.894 22.4953 225.745 22.616 225.641 22.7649C225.54 22.9098 225.49 23.0828 225.49 23.2841C225.49 23.59 225.599 23.8234 225.816 23.9844C226.037 24.1453 226.317 24.2258 226.655 24.2258ZM237.413 29.6712C236.531 29.6712 235.777 29.5484 235.149 29.3029C234.521 29.0574 234.028 28.7213 233.67 28.2947C233.312 27.8681 233.096 27.3852 233.024 26.8459L235.819 26.6889C235.871 26.8781 235.968 27.0431 236.109 27.1839C236.254 27.3248 236.441 27.4335 236.67 27.5099C236.904 27.5864 237.177 27.6246 237.491 27.6246C237.986 27.6246 238.395 27.5039 238.717 27.2624C239.043 27.025 239.206 26.6084 239.206 26.0128V24.3828H239.103C238.986 24.6685 238.809 24.9241 238.572 25.1495C238.334 25.3749 238.039 25.552 237.684 25.6807C237.334 25.8095 236.932 25.8739 236.477 25.8739C235.801 25.8739 235.181 25.717 234.618 25.403C234.058 25.0851 233.61 24.5941 233.271 23.93C232.937 23.2619 232.77 22.4027 232.77 21.3523C232.77 20.2696 232.943 19.3782 233.29 18.6779C233.636 17.9736 234.088 17.4524 234.648 17.1143C235.211 16.7763 235.817 16.6072 236.465 16.6072C236.952 16.6072 237.369 16.6918 237.715 16.8608C238.065 17.0258 238.353 17.2391 238.578 17.5007C238.803 17.7623 238.974 18.034 239.091 18.3157H239.176V16.728H242.116V26.0369C242.116 26.8217 241.918 27.4838 241.524 28.0231C241.13 28.5624 240.578 28.9709 239.87 29.2486C239.162 29.5303 238.343 29.6712 237.413 29.6712ZM237.503 23.7248C237.862 23.7248 238.167 23.6302 238.421 23.441C238.675 23.2519 238.87 22.9802 239.007 22.6261C239.143 22.2719 239.212 21.8473 239.212 21.3523C239.212 20.8492 239.143 20.4165 239.007 20.0543C238.874 19.6881 238.679 19.4064 238.421 19.2092C238.167 19.0119 237.862 18.9133 237.503 18.9133C237.137 18.9133 236.827 19.014 236.574 19.2152C236.32 19.4164 236.127 19.7002 235.994 20.0664C235.865 20.4286 235.801 20.8572 235.801 21.3523C235.801 21.8473 235.867 22.2719 236 22.6261C236.133 22.9802 236.324 23.2519 236.574 23.441C236.827 23.6302 237.137 23.7248 237.503 23.7248ZM248.332 26.1758C247.362 26.1758 246.525 25.9846 245.821 25.6023C245.12 25.2159 244.581 24.6665 244.203 23.9542C243.829 23.2378 243.641 22.3866 243.641 21.4006C243.641 20.4427 243.831 19.6056 244.209 18.8892C244.587 18.1688 245.12 17.6094 245.809 17.2109C246.497 16.8085 247.308 16.6072 248.242 16.6072C248.902 16.6072 249.505 16.7099 250.053 16.9151C250.6 17.1204 251.073 17.4242 251.471 17.8267C251.87 18.2292 252.18 18.7262 252.401 19.3178C252.622 19.9054 252.733 20.5795 252.733 21.3402V22.0767H244.674V20.3622H249.986C249.982 20.0483 249.908 19.7686 249.763 19.5231C249.618 19.2776 249.419 19.0864 249.165 18.9496C248.916 18.8087 248.628 18.7383 248.302 18.7383C247.972 18.7383 247.676 18.8127 247.415 18.9616C247.153 19.1065 246.946 19.3057 246.793 19.5593C246.64 19.8088 246.559 20.0926 246.551 20.4105V22.1552C246.551 22.5335 246.626 22.8655 246.775 23.1513C246.923 23.433 247.135 23.6523 247.408 23.8093C247.682 23.9663 248.008 24.0447 248.386 24.0447C248.648 24.0447 248.886 24.0085 249.099 23.9361C249.312 23.8636 249.495 23.757 249.648 23.6161C249.801 23.4752 249.916 23.3022 249.992 23.0969L252.703 23.1754C252.59 23.7831 252.343 24.3124 251.96 24.7631C251.582 25.2099 251.085 25.558 250.469 25.8075C249.853 26.053 249.141 26.1758 248.332 26.1758ZM262.336 19.5593L259.626 19.6317C259.598 19.4386 259.521 19.2675 259.396 19.1186C259.272 18.9657 259.109 18.8469 258.907 18.7624C258.71 18.6739 258.481 18.6296 258.219 18.6296C257.877 18.6296 257.585 18.698 257.344 18.8349C257.106 18.9717 256.99 19.1568 256.994 19.3903C256.99 19.5714 257.062 19.7283 257.211 19.8611C257.364 19.994 257.636 20.1006 258.026 20.1811L259.813 20.5192C260.739 20.6962 261.427 20.99 261.877 21.4006C262.332 21.8111 262.562 22.3544 262.566 23.0305C262.562 23.6664 262.373 24.2198 261.998 24.6907C261.628 25.1616 261.121 25.5278 260.477 25.7894C259.833 26.047 259.096 26.1758 258.267 26.1758C256.943 26.1758 255.899 25.9041 255.134 25.3608C254.374 24.8134 253.939 24.081 253.83 23.1633L256.746 23.0909C256.81 23.429 256.978 23.6865 257.247 23.8636C257.517 24.0407 257.861 24.1292 258.279 24.1292C258.658 24.1292 258.966 24.0588 259.203 23.918C259.441 23.7771 259.561 23.5899 259.565 23.3565C259.561 23.1472 259.469 22.9802 259.288 22.8555C259.107 22.7267 258.823 22.6261 258.436 22.5536L256.819 22.2457C255.889 22.0767 255.197 21.7648 254.742 21.31C254.287 20.8512 254.062 20.2676 254.066 19.5593C254.062 18.9395 254.227 18.4103 254.561 17.9716C254.895 17.5289 255.37 17.1908 255.985 16.9574C256.601 16.7239 257.328 16.6072 258.165 16.6072C259.42 16.6072 260.411 16.8708 261.135 17.3981C261.859 17.9213 262.26 18.6417 262.336 19.5593Z" fill="white"/>
</g>
<defs>
<filter id="filter0_d_1_56" x="2.39972" y="0.39972" width="39.202" height="39.202" filterUnits="userSpaceOnUse" color-interpolation-filters="sRGB">
<feFlood flood-opacity="0" result="BackgroundImageFix"/>
<feColorMatrix in="SourceAlpha" type="matrix" values="0 0 0 0 0 0 0 0 0 0 0 0 0 0 0 0 0 0 127 0" result="hardAlpha"/>
<feOffset/>
<feGaussianBlur stdDeviation="2.80014"/>
<feComposite in2="hardAlpha" operator="out"/>
<feColorMatrix type="matrix" values="0 0 0 0 0 0 0 0 0 0 0 0 0 0 0 0 0 0 0.25 0"/>
<feBlend mode="normal" in2="BackgroundImageFix" result="effect1_dropShadow_1_56"/>
<feBlend mode="normal" in="SourceGraphic" in2="effect1_dropShadow_1_56" result="shape"/>
</filter>
<filter id="filter1_d_1_56" x="36.2871" y="3.78642" width="233.429" height="32.4286" filterUnits="userSpaceOnUse" color-interpolation-filters="sRGB">
<feFlood flood-opacity="0" result="BackgroundImageFix"/>
<feColorMatrix in="SourceAlpha" type="matrix" values="0 0 0 0 0 0 0 0 0 0 0 0 0 0 0 0 0 0 127 0" result="hardAlpha"/>
<feOffset/>
<feGaussianBlur stdDeviation="2.85714"/>
<feComposite in2="hardAlpha" operator="out"/>
<feColorMatrix type="matrix" values="0 0 0 0 0 0 0 0 0 0 0 0 0 0 0 0 0 0 0.25 0"/>
<feBlend mode="normal" in2="BackgroundImageFix" result="effect1_dropShadow_1_56"/>
<feBlend mode="normal" in="SourceGraphic" in2="effect1_dropShadow_1_56" result="shape"/>
</filter>
<linearGradient id="paint0_linear_1_56" x1="136.001" y1="0" x2="136.001" y2="40.0014" gradientUnits="userSpaceOnUse">
<stop stop-color="#181F29"/>
<stop offset="1" stop-color="#0F131A"/>
</linearGradient>
</defs>
</svg>
