<svg width="188" height="56" viewBox="0 0 188 56" fill="none" xmlns="http://www.w3.org/2000/svg">
<rect width="188" height="56" rx="8" fill="url(#paint0_linear_1_50)"/>
<rect x="1.05" y="1.05" width="185.9" height="53.9" rx="6.95" stroke="white" stroke-opacity="0.15" stroke-width="2.1"/>
<g filter="url(#filter0_d_1_50)">
<path d="M32.0013 8.71553C20.9518 8.71553 12 17.5725 12 28.4883C12 37.2291 17.7304 44.6377 25.6721 47.2514C26.6759 47.4381 27.0385 46.8263 27.0385 46.2974C27.0385 45.8278 27.0272 44.5858 27.0197 42.9373C21.4531 44.1286 20.2805 40.2791 20.2805 40.2791C19.3692 38.0003 18.0542 37.3885 18.0542 37.3885C16.244 36.1663 18.1979 36.1923 18.1979 36.1923C20.203 36.327 21.2581 38.2252 21.2581 38.2252C23.042 41.2504 25.9384 40.3755 27.0847 39.8663C27.2597 38.5922 27.781 37.716 28.3485 37.2279C23.9083 36.7323 19.2392 35.0331 19.2392 27.4564C19.2392 25.2925 20.0143 23.5303 21.2956 22.1462C21.0743 21.6506 20.3968 19.6363 21.4719 16.9126C21.4719 16.9126 23.1457 16.3849 26.9722 18.9405C28.5736 18.5018 30.2737 18.2831 31.9725 18.272C33.6726 18.2831 35.3715 18.5031 36.9728 18.9405C40.7768 16.3849 42.4494 16.9126 42.4494 16.9126C43.5232 19.6363 42.8457 21.6494 42.6507 22.1462C43.9195 23.5303 44.6946 25.2938 44.6946 27.4564C44.6946 35.0504 40.0193 36.7249 35.574 37.2081C36.269 37.8001 36.9203 39.0173 36.9203 40.8648C36.9203 43.5094 36.8953 45.64 36.8953 46.2838C36.8953 46.7979 37.2454 47.4158 38.2754 47.2168C46.2759 44.6303 52 37.2155 52 28.4871C52 17.5713 43.0482 8.71429 31.9988 8.71429L32.0013 8.71553Z" fill="white"/>
</g>
<g filter="url(#filter1_d_1_50)">
<path d="M65.0454 24.5H61.2784V12.8636H65.1648C66.3049 12.8636 67.2841 13.0966 68.1023 13.5625C68.9204 14.0246 69.5473 14.6894 69.9829 15.5568C70.4223 16.4204 70.642 17.4564 70.642 18.6648C70.642 19.8769 70.4204 20.9186 69.9773 21.7898C69.5379 22.661 68.9015 23.3314 68.0682 23.8011C67.2348 24.267 66.2273 24.5 65.0454 24.5ZM63.0341 22.9659H64.9488C65.8352 22.9659 66.572 22.7992 67.1591 22.4659C67.7462 22.1288 68.1856 21.642 68.4773 21.0057C68.7689 20.3655 68.9148 19.5852 68.9148 18.6648C68.9148 17.7519 68.7689 16.9773 68.4773 16.3409C68.1894 15.7045 67.7595 15.2216 67.1875 14.892C66.6155 14.5625 65.9053 14.3977 65.0568 14.3977H63.0341V22.9659ZM76.4503 24.6761C75.5904 24.6761 74.8499 24.4924 74.2287 24.125C73.6112 23.7538 73.134 23.2329 72.7969 22.5625C72.4635 21.8883 72.2969 21.0985 72.2969 20.1932C72.2969 19.2992 72.4635 18.5114 72.7969 17.8295C73.134 17.1477 73.6037 16.6155 74.2059 16.2329C74.812 15.8504 75.5203 15.6591 76.3309 15.6591C76.8234 15.6591 77.3006 15.7405 77.7628 15.9034C78.2249 16.0663 78.6397 16.322 79.0071 16.6704C79.3745 17.0189 79.6643 17.4716 79.8764 18.0284C80.0885 18.5814 80.1946 19.2538 80.1946 20.0454V20.6477H73.2571V19.375H78.5298C78.5298 18.928 78.4389 18.5322 78.2571 18.1875C78.0753 17.839 77.8196 17.5644 77.49 17.3636C77.1643 17.1629 76.7817 17.0625 76.3423 17.0625C75.865 17.0625 75.4484 17.1799 75.0923 17.4148C74.74 17.6458 74.4673 17.9489 74.2741 18.3239C74.0847 18.6951 73.99 19.0985 73.99 19.5341V20.5284C73.99 21.1117 74.0923 21.6079 74.2969 22.017C74.5052 22.4261 74.795 22.7386 75.1662 22.9545C75.5374 23.1667 75.9711 23.2727 76.4673 23.2727C76.7893 23.2727 77.0828 23.2273 77.348 23.1364C77.6131 23.0417 77.8423 22.9015 78.0355 22.7159C78.2287 22.5303 78.3764 22.3011 78.4787 22.0284L80.0866 22.3182C79.9578 22.7917 79.7268 23.2064 79.3934 23.5625C79.0639 23.9148 78.6491 24.1894 78.1491 24.3864C77.6529 24.5795 77.0866 24.6761 76.4503 24.6761ZM82.0795 27.7727V15.7727H83.7386V17.1875H83.8807C83.9791 17.0057 84.1212 16.7954 84.3068 16.5568C84.4924 16.3182 84.75 16.1098 85.0795 15.9318C85.4091 15.75 85.8447 15.6591 86.3863 15.6591C87.0909 15.6591 87.7197 15.8371 88.2727 16.1932C88.8257 16.5492 89.2594 17.0625 89.5738 17.7329C89.892 18.4034 90.0511 19.2102 90.0511 20.1534C90.0511 21.0966 89.8939 21.9053 89.5795 22.5795C89.2651 23.25 88.8333 23.767 88.2841 24.1307C87.7348 24.4905 87.1079 24.6704 86.4034 24.6704C85.8731 24.6704 85.4394 24.5814 85.1023 24.4034C84.7689 24.2254 84.5076 24.017 84.3182 23.7784C84.1288 23.5398 83.9829 23.3276 83.8807 23.142H83.7784V27.7727H82.0795ZM83.7443 20.1364C83.7443 20.75 83.8333 21.2879 84.0113 21.75C84.1894 22.2121 84.4469 22.5739 84.7841 22.8352C85.1212 23.0928 85.5341 23.2216 86.0227 23.2216C86.5303 23.2216 86.9545 23.0871 87.2954 22.8182C87.6363 22.5454 87.8939 22.1761 88.0682 21.7102C88.2462 21.2443 88.3352 20.7197 88.3352 20.1364C88.3352 19.5606 88.2481 19.0436 88.0738 18.5852C87.9034 18.1269 87.6458 17.7651 87.3011 17.5C86.9602 17.2348 86.5341 17.1023 86.0227 17.1023C85.5303 17.1023 85.1136 17.2292 84.7727 17.4829C84.4356 17.7367 84.1799 18.0909 84.0057 18.5454C83.8314 19 83.7443 19.5303 83.7443 20.1364ZM93.6534 12.8636V24.5H91.9545V12.8636H93.6534ZM99.615 24.6761C98.7968 24.6761 98.0828 24.4886 97.473 24.1136C96.8631 23.7386 96.3897 23.214 96.0525 22.5398C95.7154 21.8655 95.5468 21.0776 95.5468 20.1761C95.5468 19.2708 95.7154 18.4792 96.0525 17.8011C96.3897 17.1231 96.8631 16.5966 97.473 16.2216C98.0828 15.8466 98.7968 15.6591 99.615 15.6591C100.433 15.6591 101.147 15.8466 101.757 16.2216C102.367 16.5966 102.84 17.1231 103.178 17.8011C103.515 18.4792 103.683 19.2708 103.683 20.1761C103.683 21.0776 103.515 21.8655 103.178 22.5398C102.84 23.214 102.367 23.7386 101.757 24.1136C101.147 24.4886 100.433 24.6761 99.615 24.6761ZM99.6207 23.25C100.151 23.25 100.59 23.1098 100.939 22.8295C101.287 22.5492 101.545 22.1761 101.712 21.7102C101.882 21.2443 101.967 20.7311 101.967 20.1704C101.967 19.6136 101.882 19.1023 101.712 18.6364C101.545 18.1667 101.287 17.7898 100.939 17.5057C100.59 17.2216 100.151 17.0795 99.6207 17.0795C99.0866 17.0795 98.6434 17.2216 98.2912 17.5057C97.9427 17.7898 97.6832 18.1667 97.5128 18.6364C97.3461 19.1023 97.2628 19.6136 97.2628 20.1704C97.2628 20.7311 97.3461 21.2443 97.5128 21.7102C97.6832 22.1761 97.9427 22.5492 98.2912 22.8295C98.6434 23.1098 99.0866 23.25 99.6207 23.25ZM106.357 27.7727C106.103 27.7727 105.872 27.7519 105.663 27.7102C105.455 27.6723 105.3 27.6307 105.197 27.5852L105.607 26.1932C105.917 26.2765 106.194 26.3125 106.436 26.3011C106.678 26.2898 106.892 26.1989 107.078 26.0284C107.267 25.8579 107.434 25.5795 107.578 25.1932L107.788 24.6136L104.595 15.7727H106.413L108.624 22.5454H108.714L110.925 15.7727H112.749L109.152 25.6648C108.985 26.1193 108.773 26.5038 108.516 26.8182C108.258 27.1364 107.951 27.375 107.595 27.5341C107.239 27.6932 106.826 27.7727 106.357 27.7727ZM117.81 24.6761C116.95 24.6761 116.209 24.4924 115.588 24.125C114.971 23.7538 114.493 23.2329 114.156 22.5625C113.823 21.8883 113.656 21.0985 113.656 20.1932C113.656 19.2992 113.823 18.5114 114.156 17.8295C114.493 17.1477 114.963 16.6155 115.565 16.2329C116.171 15.8504 116.88 15.6591 117.69 15.6591C118.183 15.6591 118.66 15.7405 119.122 15.9034C119.584 16.0663 119.999 16.322 120.366 16.6704C120.734 17.0189 121.024 17.4716 121.236 18.0284C121.448 18.5814 121.554 19.2538 121.554 20.0454V20.6477H114.616V19.375H119.889C119.889 18.928 119.798 18.5322 119.616 18.1875C119.435 17.839 119.179 17.5644 118.849 17.3636C118.524 17.1629 118.141 17.0625 117.702 17.0625C117.224 17.0625 116.808 17.1799 116.452 17.4148C116.099 17.6458 115.827 17.9489 115.633 18.3239C115.444 18.6951 115.349 19.0985 115.349 19.5341V20.5284C115.349 21.1117 115.452 21.6079 115.656 22.017C115.865 22.4261 116.154 22.7386 116.526 22.9545C116.897 23.1667 117.33 23.2727 117.827 23.2727C118.149 23.2727 118.442 23.2273 118.707 23.1364C118.973 23.0417 119.202 22.9015 119.395 22.7159C119.588 22.5303 119.736 22.3011 119.838 22.0284L121.446 22.3182C121.317 22.7917 121.086 23.2064 120.753 23.5625C120.423 23.9148 120.008 24.1894 119.508 24.3864C119.012 24.5795 118.446 24.6761 117.81 24.6761ZM126.706 24.6704C126.001 24.6704 125.373 24.4905 124.82 24.1307C124.27 23.767 123.839 23.25 123.524 22.5795C123.214 21.9053 123.058 21.0966 123.058 20.1534C123.058 19.2102 123.215 18.4034 123.53 17.7329C123.848 17.0625 124.284 16.5492 124.837 16.1932C125.39 15.8371 126.017 15.6591 126.717 15.6591C127.259 15.6591 127.695 15.75 128.024 15.9318C128.357 16.1098 128.615 16.3182 128.797 16.5568C128.982 16.7954 129.126 17.0057 129.229 17.1875H129.331V12.8636H131.03V24.5H129.371V23.142H129.229C129.126 23.3276 128.979 23.5398 128.785 23.7784C128.596 24.017 128.335 24.2254 128.001 24.4034C127.668 24.5814 127.236 24.6704 126.706 24.6704ZM127.081 23.2216C127.57 23.2216 127.982 23.0928 128.32 22.8352C128.66 22.5739 128.918 22.2121 129.092 21.75C129.27 21.2879 129.359 20.75 129.359 20.1364C129.359 19.5303 129.272 19 129.098 18.5454C128.924 18.0909 128.668 17.7367 128.331 17.4829C127.994 17.2292 127.577 17.1023 127.081 17.1023C126.57 17.1023 126.143 17.2348 125.803 17.5C125.462 17.7651 125.204 18.1269 125.03 18.5852C124.859 19.0436 124.774 19.5606 124.774 20.1364C124.774 20.7197 124.861 21.2443 125.035 21.7102C125.21 22.1761 125.467 22.5454 125.808 22.8182C126.153 23.0871 126.577 23.2216 127.081 23.2216ZM141.365 24.6761C140.547 24.6761 139.833 24.4886 139.223 24.1136C138.613 23.7386 138.14 23.214 137.803 22.5398C137.465 21.8655 137.297 21.0776 137.297 20.1761C137.297 19.2708 137.465 18.4792 137.803 17.8011C138.14 17.1231 138.613 16.5966 139.223 16.2216C139.833 15.8466 140.547 15.6591 141.365 15.6591C142.183 15.6591 142.897 15.8466 143.507 16.2216C144.117 16.5966 144.59 17.1231 144.928 17.8011C145.265 18.4792 145.433 19.2708 145.433 20.1761C145.433 21.0776 145.265 21.8655 144.928 22.5398C144.59 23.214 144.117 23.7386 143.507 24.1136C142.897 24.4886 142.183 24.6761 141.365 24.6761ZM141.371 23.25C141.901 23.25 142.34 23.1098 142.689 22.8295C143.037 22.5492 143.295 22.1761 143.462 21.7102C143.632 21.2443 143.717 20.7311 143.717 20.1704C143.717 19.6136 143.632 19.1023 143.462 18.6364C143.295 18.1667 143.037 17.7898 142.689 17.5057C142.34 17.2216 141.901 17.0795 141.371 17.0795C140.837 17.0795 140.393 17.2216 140.041 17.5057C139.693 17.7898 139.433 18.1667 139.263 18.6364C139.096 19.1023 139.013 19.6136 139.013 20.1704C139.013 20.7311 139.096 21.2443 139.263 21.7102C139.433 22.1761 139.693 22.5492 140.041 22.8295C140.393 23.1098 140.837 23.25 141.371 23.25ZM149.028 19.3182V24.5H147.33V15.7727H148.96V17.1932H149.068C149.269 16.7311 149.583 16.3598 150.011 16.0795C150.443 15.7992 150.987 15.6591 151.642 15.6591C152.237 15.6591 152.758 15.7841 153.205 16.0341C153.651 16.2803 153.998 16.6477 154.244 17.1364C154.49 17.625 154.614 18.2292 154.614 18.9489V24.5H152.915V19.1534C152.915 18.5208 152.75 18.0265 152.42 17.6704C152.091 17.3106 151.638 17.1307 151.062 17.1307C150.669 17.1307 150.318 17.2159 150.011 17.3864C149.708 17.5568 149.468 17.8068 149.29 18.1364C149.115 18.4621 149.028 18.8561 149.028 19.3182Z" fill="#E8E8E8"/>
<path d="M69.0493 35.1751C68.9809 34.9215 68.8803 34.6981 68.7475 34.505C68.6147 34.3078 68.4517 34.1407 68.2585 34.0039C68.0653 33.8671 67.844 33.7644 67.5944 33.696C67.3449 33.6236 67.0712 33.5873 66.7734 33.5873C66.1738 33.5873 65.6546 33.7322 65.2159 34.022C64.7812 34.3118 64.4452 34.7344 64.2077 35.2898C63.9703 35.8411 63.8515 36.5112 63.8515 37.3001C63.8515 38.0929 63.9662 38.769 64.1957 39.3285C64.4251 39.8879 64.7571 40.3145 65.1917 40.6083C65.6264 40.9021 66.1536 41.049 66.7734 41.049C67.3208 41.049 67.7836 40.9605 68.1619 40.7834C68.5443 40.6023 68.834 40.3467 69.0312 40.0167C69.2284 39.6867 69.327 39.2983 69.327 38.8516L69.8824 38.918H66.876V36.7386H72.2067V38.3746C72.2067 39.4814 71.9712 40.4292 71.5003 41.218C71.0335 42.0069 70.3895 42.6126 69.5685 43.0351C68.7515 43.4577 67.8118 43.669 66.7493 43.669C65.5701 43.669 64.5337 43.4135 63.6403 42.9023C62.7468 42.3912 62.0505 41.6627 61.5515 40.717C61.0524 39.7672 60.8029 38.6403 60.8029 37.3363C60.8029 36.3221 60.9538 35.4226 61.2557 34.6378C61.5575 33.8489 61.9781 33.1809 62.5174 32.6335C63.0607 32.0862 63.6885 31.6716 64.4009 31.3899C65.1173 31.1082 65.888 30.9673 66.7131 30.9673C67.4294 30.9673 68.0955 31.0699 68.7113 31.2752C69.3311 31.4805 69.8784 31.7702 70.3533 32.1445C70.8322 32.5188 71.2206 32.9635 71.5184 33.4787C71.8163 33.9938 72.0014 34.5593 72.0738 35.1751H69.0493ZM74.549 43.5V34.2273H77.501V43.5H74.549ZM76.028 33.1467C75.6135 33.1467 75.2573 33.0098 74.9595 32.7361C74.6617 32.4584 74.5128 32.1244 74.5128 31.734C74.5128 31.3476 74.6617 31.0176 74.9595 30.744C75.2573 30.4663 75.6135 30.3274 76.028 30.3274C76.4466 30.3274 76.8028 30.4663 77.0966 30.744C77.3944 31.0176 77.5433 31.3476 77.5433 31.734C77.5433 32.1244 77.3944 32.4584 77.0966 32.7361C76.8028 33.0098 76.4466 33.1467 76.028 33.1467ZM84.6141 34.2273V36.4006H78.7643V34.2273H84.6141ZM79.9898 32.0057H82.9418V40.5842C82.9418 40.7653 82.97 40.9122 83.0263 41.0248C83.0867 41.1335 83.1732 41.212 83.2859 41.2603C83.3986 41.3046 83.5334 41.3267 83.6904 41.3267C83.8031 41.3267 83.9218 41.3166 84.0466 41.2965C84.1754 41.2724 84.272 41.2522 84.3364 41.2361L84.7831 43.3672C84.6422 43.4074 84.443 43.4577 84.1854 43.5181C83.9319 43.5785 83.628 43.6167 83.2739 43.6328C82.5816 43.665 81.988 43.5845 81.493 43.3913C81.002 43.1941 80.6257 42.8882 80.3641 42.4737C80.1065 42.0592 79.9817 41.538 79.9898 40.9101V32.0057ZM86.3195 43.5V31.1364H89.3078V36.0987H94.1796V31.1364H97.1618V43.5H94.1796V38.5316H89.3078V43.5H86.3195ZM105.019 39.4975V34.2273H107.965V43.5H105.152V41.7734H105.055C104.85 42.3409 104.5 42.7917 104.005 43.1257C103.514 43.4557 102.92 43.6207 102.224 43.6207C101.592 43.6207 101.037 43.4758 100.558 43.1861C100.079 42.8963 99.7064 42.4918 99.4408 41.9726C99.1751 41.4494 99.0403 40.8377 99.0363 40.1374V34.2273H101.988V39.5579C101.992 40.061 102.125 40.4574 102.387 40.7471C102.648 41.0369 103.005 41.1818 103.455 41.1818C103.749 41.1818 104.013 41.1174 104.246 40.9886C104.484 40.8558 104.671 40.6646 104.808 40.4151C104.948 40.1616 105.019 39.8557 105.019 39.4975ZM109.844 43.5V31.1364H112.796V35.815H112.856C112.977 35.5333 113.148 35.2616 113.369 35C113.595 34.7384 113.881 34.5251 114.227 34.3601C114.577 34.191 114.995 34.1065 115.482 34.1065C116.126 34.1065 116.728 34.2756 117.287 34.6136C117.851 34.9517 118.306 35.4729 118.652 36.1772C118.998 36.8815 119.171 37.779 119.171 38.8697C119.171 39.9201 119.004 40.7995 118.67 41.5078C118.34 42.2161 117.893 42.7474 117.33 43.1016C116.77 43.4557 116.148 43.6328 115.464 43.6328C114.997 43.6328 114.593 43.5563 114.251 43.4034C113.909 43.2505 113.621 43.0492 113.388 42.7997C113.158 42.5502 112.981 42.2825 112.856 41.9968H112.766V43.5H109.844ZM112.736 38.8636C112.736 39.3627 112.802 39.7973 112.935 40.1676C113.072 40.5379 113.267 40.8256 113.52 41.0309C113.778 41.2321 114.086 41.3327 114.444 41.3327C114.806 41.3327 115.114 41.2321 115.368 41.0309C115.621 40.8256 115.812 40.5379 115.941 40.1676C116.074 39.7973 116.14 39.3627 116.14 38.8636C116.14 38.3646 116.074 37.9319 115.941 37.5657C115.812 37.1994 115.621 36.9157 115.368 36.7145C115.118 36.5132 114.81 36.4126 114.444 36.4126C114.082 36.4126 113.774 36.5112 113.52 36.7084C113.267 36.9056 113.072 37.1874 112.935 37.5536C112.802 37.9199 112.736 38.3565 112.736 38.8636ZM124.37 43.5V31.1364H129.478C130.403 31.1364 131.202 31.3175 131.874 31.6797C132.55 32.0379 133.071 32.5389 133.438 33.1829C133.804 33.8228 133.987 34.5673 133.987 35.4165C133.987 36.2698 133.8 37.0163 133.426 37.6562C133.055 38.2921 132.526 38.7851 131.838 39.1353C131.15 39.4854 130.333 39.6605 129.387 39.6605H126.236V37.3061H128.832C129.282 37.3061 129.659 37.2276 129.96 37.0707C130.266 36.9137 130.498 36.6944 130.655 36.4126C130.812 36.1269 130.89 35.7949 130.89 35.4165C130.89 35.0342 130.812 34.7042 130.655 34.4265C130.498 34.1448 130.266 33.9274 129.96 33.7745C129.655 33.6216 129.278 33.5451 128.832 33.5451H127.359V43.5H124.37ZM137.742 43.6569C137.15 43.6569 136.625 43.5583 136.166 43.3611C135.712 43.1599 135.351 42.8581 135.086 42.4556C134.824 42.0491 134.693 41.54 134.693 40.9283C134.693 40.4131 134.784 39.9784 134.965 39.6243C135.146 39.2701 135.396 38.9824 135.714 38.761C136.032 38.5396 136.398 38.3726 136.812 38.2599C137.227 38.1432 137.67 38.0647 138.14 38.0245C138.668 37.9762 139.092 37.9259 139.414 37.8736C139.736 37.8172 139.97 37.7387 140.115 37.6381C140.263 37.5335 140.338 37.3866 140.338 37.1974V37.1672C140.338 36.8574 140.231 36.6179 140.018 36.4489C139.805 36.2798 139.517 36.1953 139.155 36.1953C138.764 36.1953 138.45 36.2798 138.213 36.4489C137.975 36.6179 137.825 36.8513 137.76 37.1491L135.038 37.0525C135.118 36.4891 135.325 35.986 135.659 35.5433C135.997 35.0966 136.46 34.7464 137.048 34.4929C137.639 34.2353 138.35 34.1065 139.179 34.1065C139.77 34.1065 140.316 34.177 140.815 34.3178C141.314 34.4547 141.749 34.6559 142.119 34.9215C142.489 35.1831 142.775 35.5051 142.976 35.8874C143.181 36.2698 143.284 36.7064 143.284 37.1974V43.5H140.507V42.2081H140.435C140.27 42.522 140.058 42.7876 139.801 43.005C139.547 43.2223 139.247 43.3853 138.901 43.494C138.559 43.6026 138.173 43.6569 137.742 43.6569ZM138.654 41.7251C138.972 41.7251 139.257 41.6607 139.511 41.5319C139.768 41.4032 139.974 41.2261 140.127 41.0007C140.28 40.7713 140.356 40.5057 140.356 40.2038V39.3224C140.272 39.3667 140.169 39.4069 140.048 39.4432C139.931 39.4794 139.803 39.5136 139.662 39.5458C139.521 39.578 139.376 39.6062 139.227 39.6303C139.078 39.6545 138.935 39.6766 138.799 39.6967C138.521 39.741 138.283 39.8094 138.086 39.902C137.893 39.9945 137.744 40.1153 137.639 40.2642C137.539 40.4091 137.489 40.5821 137.489 40.7834C137.489 41.0892 137.597 41.3227 137.815 41.4837C138.036 41.6446 138.316 41.7251 138.654 41.7251ZM149.411 47.1704C148.53 47.1704 147.775 47.0477 147.148 46.8022C146.52 46.5567 146.027 46.2206 145.669 45.794C145.31 45.3674 145.095 44.8845 145.023 44.3452L147.818 44.1882C147.87 44.3774 147.967 44.5424 148.107 44.6832C148.252 44.8241 148.44 44.9328 148.669 45.0092C148.902 45.0857 149.176 45.1239 149.49 45.1239C149.985 45.1239 150.393 45.0032 150.715 44.7617C151.041 44.5243 151.204 44.1077 151.204 43.5121V41.8821H151.102C150.985 42.1678 150.808 42.4234 150.571 42.6488C150.333 42.8742 150.037 43.0512 149.683 43.18C149.333 43.3088 148.931 43.3732 148.476 43.3732C147.8 43.3732 147.18 43.2163 146.616 42.9023C146.057 42.5844 145.608 42.0934 145.27 41.4293C144.936 40.7612 144.769 39.902 144.769 38.8516C144.769 37.7689 144.942 36.8775 145.288 36.1772C145.634 35.4729 146.087 34.9517 146.647 34.6136C147.21 34.2756 147.816 34.1065 148.464 34.1065C148.951 34.1065 149.367 34.191 149.713 34.3601C150.063 34.5251 150.351 34.7384 150.577 35C150.802 35.2616 150.973 35.5333 151.09 35.815H151.174V34.2273H154.114V43.5362C154.114 44.321 153.917 44.9831 153.523 45.5224C153.128 46.0617 152.577 46.4702 151.868 46.7479C151.16 47.0296 150.341 47.1704 149.411 47.1704ZM149.502 41.2241C149.86 41.2241 150.166 41.1295 150.42 40.9403C150.673 40.7512 150.868 40.4795 151.005 40.1253C151.142 39.7712 151.21 39.3466 151.21 38.8516C151.21 38.3485 151.142 37.9158 151.005 37.5536C150.872 37.1874 150.677 36.9056 150.42 36.7084C150.166 36.5112 149.86 36.4126 149.502 36.4126C149.136 36.4126 148.826 36.5132 148.572 36.7145C148.319 36.9157 148.126 37.1994 147.993 37.5657C147.864 37.9279 147.8 38.3565 147.8 38.8516C147.8 39.3466 147.866 39.7712 147.999 40.1253C148.132 40.4795 148.323 40.7512 148.572 40.9403C148.826 41.1295 149.136 41.2241 149.502 41.2241ZM160.331 43.6751C159.361 43.6751 158.524 43.4839 157.819 43.1016C157.119 42.7152 156.58 42.1658 156.201 41.4535C155.827 40.7371 155.64 39.8859 155.64 38.8998C155.64 37.942 155.829 37.1049 156.208 36.3885C156.586 35.6681 157.119 35.1087 157.807 34.7102C158.496 34.3078 159.306 34.1065 160.24 34.1065C160.9 34.1065 161.504 34.2092 162.051 34.4144C162.599 34.6197 163.072 34.9235 163.47 35.326C163.868 35.7284 164.178 36.2255 164.4 36.8171C164.621 37.4047 164.732 38.0788 164.732 38.8395V39.576H156.672V37.8615H161.985C161.981 37.5476 161.906 37.2679 161.761 37.0224C161.617 36.7769 161.417 36.5857 161.164 36.4489C160.914 36.308 160.627 36.2376 160.301 36.2376C159.971 36.2376 159.675 36.312 159.413 36.4609C159.152 36.6058 158.944 36.805 158.791 37.0586C158.638 37.3081 158.558 37.5918 158.55 37.9098V39.6545C158.55 40.0328 158.624 40.3648 158.773 40.6506C158.922 40.9323 159.133 41.1516 159.407 41.3086C159.681 41.4655 160.007 41.544 160.385 41.544C160.647 41.544 160.884 41.5078 161.097 41.4354C161.311 41.3629 161.494 41.2563 161.647 41.1154C161.8 40.9745 161.914 40.8015 161.991 40.5962L164.701 40.6747C164.589 41.2824 164.341 41.8117 163.959 42.2624C163.581 42.7092 163.084 43.0573 162.468 43.3068C161.852 43.5523 161.14 43.6751 160.331 43.6751ZM174.335 37.0586L171.624 37.131C171.596 36.9378 171.52 36.7668 171.395 36.6179C171.27 36.465 171.107 36.3462 170.906 36.2617C170.709 36.1732 170.479 36.1289 170.218 36.1289C169.876 36.1289 169.584 36.1973 169.342 36.3342C169.105 36.471 168.988 36.6561 168.992 36.8895C168.988 37.0707 169.061 37.2276 169.21 37.3604C169.362 37.4932 169.634 37.5999 170.025 37.6804L171.811 38.0185C172.737 38.1955 173.425 38.4893 173.876 38.8998C174.331 39.3104 174.56 39.8537 174.564 40.5298C174.56 41.1657 174.371 41.7191 173.997 42.19C173.627 42.6609 173.119 43.0271 172.476 43.2887C171.832 43.5463 171.095 43.6751 170.266 43.6751C168.942 43.6751 167.898 43.4034 167.133 42.8601C166.372 42.3127 165.938 41.5802 165.829 40.6626L168.745 40.5902C168.809 40.9283 168.976 41.1858 169.246 41.3629C169.515 41.54 169.86 41.6285 170.278 41.6285C170.656 41.6285 170.964 41.5581 171.202 41.4172C171.439 41.2764 171.56 41.0892 171.564 40.8558C171.56 40.6465 171.467 40.4795 171.286 40.3547C171.105 40.226 170.821 40.1253 170.435 40.0529L168.817 39.745C167.887 39.576 167.195 39.2641 166.74 38.8093C166.286 38.3505 166.06 37.7669 166.064 37.0586C166.06 36.4388 166.225 35.9096 166.559 35.4709C166.893 35.0282 167.368 34.6901 167.984 34.4567C168.6 34.2232 169.326 34.1065 170.163 34.1065C171.419 34.1065 172.409 34.3701 173.134 34.8974C173.858 35.4206 174.258 36.141 174.335 37.0586Z" fill="white"/>
</g>
<defs>
<filter id="filter0_d_1_50" x="6.28571" y="2.28571" width="51.4286" height="51.4286" filterUnits="userSpaceOnUse" color-interpolation-filters="sRGB">
<feFlood flood-opacity="0" result="BackgroundImageFix"/>
<feColorMatrix in="SourceAlpha" type="matrix" values="0 0 0 0 0 0 0 0 0 0 0 0 0 0 0 0 0 0 127 0" result="hardAlpha"/>
<feOffset/>
<feGaussianBlur stdDeviation="2.85714"/>
<feComposite in2="hardAlpha" operator="out"/>
<feColorMatrix type="matrix" values="0 0 0 0 0 0 0 0 0 0 0 0 0 0 0 0 0 0 0.25 0"/>
<feBlend mode="normal" in2="BackgroundImageFix" result="effect1_dropShadow_1_50"/>
<feBlend mode="normal" in="SourceGraphic" in2="effect1_dropShadow_1_50" result="shape"/>
</filter>
<filter id="filter1_d_1_50" x="54.4" y="3.9" width="127.2" height="48.8704" filterUnits="userSpaceOnUse" color-interpolation-filters="sRGB">
<feFlood flood-opacity="0" result="BackgroundImageFix"/>
<feColorMatrix in="SourceAlpha" type="matrix" values="0 0 0 0 0 0 0 0 0 0 0 0 0 0 0 0 0 0 127 0" result="hardAlpha"/>
<feOffset/>
<feGaussianBlur stdDeviation="2.8"/>
<feComposite in2="hardAlpha" operator="out"/>
<feColorMatrix type="matrix" values="0 0 0 0 0 0 0 0 0 0 0 0 0 0 0 0 0 0 0.25 0"/>
<feBlend mode="normal" in2="BackgroundImageFix" result="effect1_dropShadow_1_50"/>
<feBlend mode="normal" in="SourceGraphic" in2="effect1_dropShadow_1_50" result="shape"/>
</filter>
<linearGradient id="paint0_linear_1_50" x1="94" y1="0" x2="94" y2="56" gradientUnits="userSpaceOnUse">
<stop stop-color="#181F29"/>
<stop offset="1" stop-color="#0F131A"/>
</linearGradient>
</defs>
</svg>
