<svg width="222" height="40" viewBox="0 0 222 40" fill="none" xmlns="http://www.w3.org/2000/svg">
<rect width="222.001" height="40.0014" rx="8" fill="url(#paint0_linear_1_56)"/>
<rect x="1.07143" y="1.07143" width="219.858" height="37.8585" rx="6.92857" stroke="white" stroke-opacity="0.15" stroke-width="2.14286"/>
<g filter="url(#filter0_d_1_56)">
<path d="M8.89885 7.3125C8.33937 7.3125 7.91977 7.82536 8.01301 8.33821L11.7895 31.4633C11.8827 32.0695 12.3956 32.4891 13.0017 32.4891H31.2781C31.6977 32.4891 32.0707 32.1628 32.1639 31.7431L35.987 8.38484C36.0803 7.82536 35.6607 7.35913 35.1012 7.35913L8.89885 7.3125ZM24.9373 24.0037H19.1094L17.5708 15.7514H26.3826L24.9373 24.0037Z" fill="#2684FF"/>
<path d="M34.7281 15.7514H26.3359L24.9372 24.0037H19.1092L12.2557 32.1628C12.2557 32.1628 12.582 32.4425 13.0482 32.4425H31.3246C31.7443 32.4425 32.1172 32.1161 32.2105 31.6964L34.7281 15.7514Z" fill="url(#paint1_linear_1_56)"/>
</g>
<g filter="url(#filter1_d_1_56)">
<path d="M50.103 17.3849C50.0386 16.8134 49.7729 16.3707 49.3061 16.0568C48.8392 15.7389 48.2516 15.5799 47.5433 15.5799C47.0362 15.5799 46.5975 15.6604 46.2272 15.8214C45.857 15.9783 45.5692 16.1957 45.364 16.4734C45.1627 16.747 45.0621 17.0589 45.0621 17.4091C45.0621 17.7029 45.1305 17.9564 45.2674 18.1697C45.4082 18.383 45.5914 18.5621 45.8167 18.707C46.0461 18.8479 46.2916 18.9666 46.5532 19.0632C46.8148 19.1558 47.0664 19.2322 47.3079 19.2926L48.5152 19.6065C48.9097 19.7031 49.3141 19.8339 49.7287 19.9989C50.1432 20.1639 50.5276 20.3813 50.8817 20.6509C51.2359 20.9206 51.5216 21.2546 51.739 21.653C51.9603 22.0515 52.071 22.5284 52.071 23.0838C52.071 23.7841 51.8899 24.4059 51.5277 24.9492C51.1695 25.4925 50.6483 25.9212 49.9641 26.2351C49.2839 26.549 48.4609 26.706 47.495 26.706C46.5693 26.706 45.7684 26.5591 45.0923 26.2653C44.4162 25.9715 43.8869 25.5549 43.5046 25.0156C43.1223 24.4723 42.911 23.8283 42.8707 23.0838H44.7422C44.7784 23.5305 44.9233 23.9028 45.1768 24.2006C45.4344 24.4944 45.7624 24.7138 46.1608 24.8587C46.5633 24.9995 47.004 25.0699 47.4829 25.0699C48.0102 25.0699 48.479 24.9874 48.8895 24.8224C49.3041 24.6534 49.6301 24.42 49.8675 24.1221C50.105 23.8203 50.2237 23.4681 50.2237 23.0657C50.2237 22.6994 50.1191 22.3996 49.9098 22.1662C49.7045 21.9328 49.4248 21.7396 49.0706 21.5866C48.7205 21.4337 48.3241 21.2989 47.8814 21.1822L46.4204 20.7837C45.4304 20.5141 44.6456 20.1176 44.066 19.5944C43.4905 19.0712 43.2027 18.379 43.2027 17.5177C43.2027 16.8054 43.3959 16.1836 43.7823 15.6523C44.1687 15.1211 44.6919 14.7086 45.3519 14.4148C46.0119 14.1169 46.7565 13.968 47.5856 13.968C48.4227 13.968 49.1612 14.1149 49.8011 14.4087C50.445 14.7025 50.9522 15.107 51.3224 15.6221C51.6927 16.1333 51.8859 16.7209 51.902 17.3849H50.103ZM58.1517 26.6878C57.2381 26.6878 56.4513 26.4926 55.7913 26.1023C55.1352 25.7078 54.6281 25.1545 54.2699 24.4421C53.9158 23.7257 53.7387 22.8866 53.7387 21.9247C53.7387 20.9749 53.9158 20.1378 54.2699 19.4133C54.6281 18.6889 55.1272 18.1234 55.7671 17.717C56.411 17.3105 57.1636 17.1072 58.0249 17.1072C58.5481 17.1072 59.0552 17.1938 59.5462 17.3668C60.0372 17.5399 60.4779 17.8115 60.8683 18.1818C61.2587 18.5521 61.5666 19.033 61.792 19.6246C62.0173 20.2122 62.13 20.9266 62.13 21.7677V22.4077H54.7589V21.0554H60.3612C60.3612 20.5805 60.2646 20.1599 60.0714 19.7937C59.8783 19.4234 59.6066 19.1316 59.2565 18.9183C58.9103 18.705 58.5038 18.5984 58.037 18.5984C57.5299 18.5984 57.0872 18.7231 56.7089 18.9726C56.3346 19.2181 56.0448 19.5401 55.8395 19.9386C55.6383 20.333 55.5377 20.7616 55.5377 21.2244V22.2809C55.5377 22.9007 55.6464 23.4279 55.8637 23.8626C56.0851 24.2972 56.3929 24.6292 56.7873 24.8587C57.1818 25.084 57.6426 25.1967 58.1698 25.1967C58.5119 25.1967 58.8238 25.1484 59.1055 25.0518C59.3873 24.9512 59.6307 24.8023 59.836 24.6051C60.0413 24.4079 60.1982 24.1644 60.3069 23.8746L62.0153 24.1825C61.8785 24.6856 61.633 25.1263 61.2788 25.5046C60.9287 25.8789 60.488 26.1707 59.9567 26.38C59.4295 26.5852 58.8278 26.6878 58.1517 26.6878ZM68.1292 26.6878C67.2156 26.6878 66.4288 26.4926 65.7688 26.1023C65.1128 25.7078 64.6057 25.1545 64.2475 24.4421C63.8933 23.7257 63.7162 22.8866 63.7162 21.9247C63.7162 20.9749 63.8933 20.1378 64.2475 19.4133C64.6057 18.6889 65.1047 18.1234 65.7446 17.717C66.3886 17.3105 67.1412 17.1072 68.0025 17.1072C68.5257 17.1072 69.0328 17.1938 69.5238 17.3668C70.0148 17.5399 70.4555 17.8115 70.8458 18.1818C71.2362 18.5521 71.5441 19.033 71.7695 19.6246C71.9949 20.2122 72.1076 20.9266 72.1076 21.7677V22.4077H64.7365V21.0554H70.3387C70.3387 20.5805 70.2422 20.1599 70.049 19.7937C69.8558 19.4234 69.5841 19.1316 69.234 18.9183C68.8879 18.705 68.4814 18.5984 68.0145 18.5984C67.5074 18.5984 67.0647 18.7231 66.6864 18.9726C66.3121 19.2181 66.0223 19.5401 65.8171 19.9386C65.6159 20.333 65.5152 20.7616 65.5152 21.2244V22.2809C65.5152 22.9007 65.6239 23.4279 65.8412 23.8626C66.0626 24.2972 66.3705 24.6292 66.7649 24.8587C67.1593 25.084 67.6201 25.1967 68.1473 25.1967C68.4894 25.1967 68.8013 25.1484 69.0831 25.0518C69.3648 24.9512 69.6083 24.8023 69.8135 24.6051C70.0188 24.4079 70.1757 24.1644 70.2844 23.8746L71.9929 24.1825C71.856 24.6856 71.6105 25.1263 71.2564 25.5046C70.9062 25.8789 70.4655 26.1707 69.9343 26.38C69.407 26.5852 68.8054 26.6878 68.1292 26.6878ZM78.6093 26.5007V17.228H80.3419V18.7372H80.4566C80.6498 18.2261 80.9658 17.8276 81.4044 17.5419C81.8431 17.2521 82.3683 17.1072 82.9801 17.1072C83.5999 17.1072 84.119 17.2521 84.5376 17.5419C84.9602 17.8317 85.2721 18.2301 85.4733 18.7372H85.5699C85.7913 18.2422 86.1434 17.8478 86.6264 17.554C87.1093 17.2561 87.6849 17.1072 88.3529 17.1072C89.1941 17.1072 89.8803 17.3708 90.4115 17.8981C90.9468 18.4253 91.2144 19.2202 91.2144 20.2827V26.5007H89.4094V20.4517C89.4094 19.8239 89.2384 19.3691 88.8963 19.0873C88.5542 18.8056 88.1457 18.6648 87.6708 18.6648C87.0832 18.6648 86.6264 18.8459 86.3004 19.2081C85.9744 19.5663 85.8114 20.0271 85.8114 20.5905V26.5007H84.0124V20.337C84.0124 19.8339 83.8554 19.4294 83.5415 19.1236C83.2276 18.8177 82.8191 18.6648 82.316 18.6648C81.9739 18.6648 81.658 18.7553 81.3682 18.9364C81.0825 19.1135 80.8511 19.361 80.674 19.679C80.5009 19.9969 80.4144 20.3652 80.4144 20.7837V26.5007H78.6093ZM97.6302 26.6878C96.7166 26.6878 95.9298 26.4926 95.2698 26.1023C94.6137 25.7078 94.1066 25.1545 93.7485 24.4421C93.3943 23.7257 93.2172 22.8866 93.2172 21.9247C93.2172 20.9749 93.3943 20.1378 93.7485 19.4133C94.1066 18.6889 94.6057 18.1234 95.2456 17.717C95.8895 17.3105 96.6422 17.1072 97.5034 17.1072C98.0266 17.1072 98.5337 17.1938 99.0247 17.3668C99.5157 17.5399 99.9564 17.8115 100.347 18.1818C100.737 18.5521 101.045 19.033 101.27 19.6246C101.496 20.2122 101.609 20.9266 101.609 21.7677V22.4077H94.2374V21.0554H99.8397C99.8397 20.5805 99.7431 20.1599 99.5499 19.7937C99.3568 19.4234 99.0851 19.1316 98.735 18.9183C98.3888 18.705 97.9824 18.5984 97.5155 18.5984C97.0084 18.5984 96.5657 18.7231 96.1874 18.9726C95.8131 19.2181 95.5233 19.5401 95.3181 19.9386C95.1168 20.333 95.0162 20.7616 95.0162 21.2244V22.2809C95.0162 22.9007 95.1249 23.4279 95.3422 23.8626C95.5636 24.2972 95.8714 24.6292 96.2659 24.8587C96.6603 25.084 97.1211 25.1967 97.6483 25.1967C97.9904 25.1967 98.3023 25.1484 98.584 25.0518C98.8658 24.9512 99.1092 24.8023 99.3145 24.6051C99.5198 24.4079 99.6767 24.1644 99.7854 23.8746L101.494 24.1825C101.357 24.6856 101.111 25.1263 100.757 25.5046C100.407 25.8789 99.9665 26.1707 99.4352 26.38C98.908 26.5852 98.3063 26.6878 97.6302 26.6878ZM112.016 26.6878C111.147 26.6878 110.388 26.4886 109.74 26.0902C109.092 25.6917 108.589 25.1343 108.231 24.418C107.873 23.7016 107.694 22.8645 107.694 21.9066C107.694 20.9447 107.873 20.1036 108.231 19.3832C108.589 18.6627 109.092 18.1033 109.74 17.7049C110.388 17.3065 111.147 17.1072 112.016 17.1072C112.886 17.1072 113.644 17.3065 114.292 17.7049C114.94 18.1033 115.443 18.6627 115.801 19.3832C116.16 20.1036 116.339 20.9447 116.339 21.9066C116.339 22.8645 116.16 23.7016 115.801 24.418C115.443 25.1343 114.94 25.6917 114.292 26.0902C113.644 26.4886 112.886 26.6878 112.016 26.6878ZM112.022 25.1726C112.586 25.1726 113.053 25.0237 113.423 24.7258C113.793 24.428 114.067 24.0316 114.244 23.5366C114.425 23.0415 114.515 22.4962 114.515 21.9006C114.515 21.3089 114.425 20.7656 114.244 20.2706C114.067 19.7715 113.793 19.3711 113.423 19.0692C113.053 18.7674 112.586 18.6165 112.022 18.6165C111.455 18.6165 110.984 18.7674 110.61 19.0692C110.239 19.3711 109.964 19.7715 109.783 20.2706C109.605 20.7656 109.517 21.3089 109.517 21.9006C109.517 22.4962 109.605 23.0415 109.783 23.5366C109.964 24.0316 110.239 24.428 110.61 24.7258C110.984 25.0237 111.455 25.1726 112.022 25.1726ZM120.159 20.995V26.5007H118.353V17.228H120.086V18.7372H120.201C120.414 18.2462 120.748 17.8518 121.203 17.554C121.662 17.2561 122.239 17.1072 122.935 17.1072C123.567 17.1072 124.121 17.24 124.596 17.5057C125.071 17.7673 125.439 18.1577 125.7 18.6768C125.962 19.196 126.093 19.8379 126.093 20.6026V26.5007H124.288V20.8199C124.288 20.1478 124.113 19.6226 123.763 19.2443C123.412 18.862 122.931 18.6708 122.32 18.6708C121.901 18.6708 121.529 18.7614 121.203 18.9425C120.881 19.1236 120.625 19.3892 120.436 19.7393C120.251 20.0855 120.159 20.504 120.159 20.995Z" fill="#E8E8E8"/>
<path d="M132.937 26.0007V13.6371H138.093C139.018 13.6371 139.793 13.7679 140.417 14.0295C141.045 14.2911 141.516 14.6573 141.829 15.1282C142.147 15.5991 142.306 16.1444 142.306 16.7642C142.306 17.2351 142.208 17.6556 142.011 18.0259C141.813 18.3922 141.542 18.696 141.196 18.9375C140.85 19.179 140.449 19.348 139.994 19.4446V19.5653C140.493 19.5895 140.954 19.7243 141.377 19.9698C141.803 20.2153 142.145 20.5574 142.403 20.9961C142.661 21.4307 142.789 21.9459 142.789 22.5415C142.789 23.2056 142.62 23.7992 142.282 24.3224C141.944 24.8416 141.455 25.2521 140.815 25.554C140.175 25.8518 139.399 26.0007 138.485 26.0007H132.937ZM135.925 23.592H137.773C138.421 23.592 138.898 23.4692 139.203 23.2237C139.513 22.9782 139.668 22.6361 139.668 22.1974C139.668 21.8795 139.594 21.6058 139.445 21.3764C139.296 21.143 139.085 20.9639 138.811 20.8391C138.537 20.7103 138.209 20.6459 137.827 20.6459H135.925V23.592ZM135.925 18.7202H137.579C137.905 18.7202 138.195 18.6658 138.449 18.5572C138.702 18.4485 138.9 18.2915 139.04 18.0863C139.185 17.881 139.258 17.6335 139.258 17.3437C139.258 16.9292 139.111 16.6032 138.817 16.3658C138.523 16.1283 138.127 16.0096 137.628 16.0096H135.925V18.7202ZM144.226 26.0007V16.728H147.178V26.0007H144.226ZM145.705 15.6474C145.291 15.6474 144.934 15.5105 144.637 15.2369C144.339 14.9592 144.19 14.6251 144.19 14.2347C144.19 13.8484 144.339 13.5183 144.637 13.2447C144.934 12.967 145.291 12.8281 145.705 12.8281C146.124 12.8281 146.48 12.967 146.774 13.2447C147.072 13.5183 147.22 13.8484 147.22 14.2347C147.22 14.6251 147.072 14.9592 146.774 15.2369C146.48 15.5105 146.124 15.6474 145.705 15.6474ZM154.291 16.728V18.9013H148.441V16.728H154.291ZM149.667 14.5064H152.619V23.0849C152.619 23.266 152.647 23.4129 152.704 23.5256C152.764 23.6342 152.85 23.7127 152.963 23.761C153.076 23.8053 153.211 23.8274 153.368 23.8274C153.48 23.8274 153.599 23.8173 153.724 23.7972C153.853 23.7731 153.949 23.7529 154.014 23.7368L154.46 25.8679C154.319 25.9081 154.12 25.9584 153.863 26.0188C153.609 26.0792 153.305 26.1174 152.951 26.1335C152.259 26.1657 151.665 26.0852 151.17 25.892C150.679 25.6948 150.303 25.389 150.041 24.9744C149.784 24.5599 149.659 24.0387 149.667 23.4109V14.5064ZM155.997 26.0007V13.6371H158.949V18.3157H159.009C159.13 18.034 159.301 17.7623 159.522 17.5007C159.748 17.2391 160.033 17.0258 160.379 16.8608C160.73 16.6918 161.148 16.6072 161.635 16.6072C162.279 16.6072 162.881 16.7763 163.44 17.1143C164.004 17.4524 164.458 17.9736 164.805 18.6779C165.151 19.3822 165.324 20.2797 165.324 21.3704C165.324 22.4208 165.157 23.3002 164.823 24.0085C164.493 24.7168 164.046 25.2481 163.482 25.6023C162.923 25.9564 162.301 26.1335 161.617 26.1335C161.15 26.1335 160.746 26.057 160.404 25.9041C160.062 25.7512 159.774 25.5499 159.54 25.3004C159.311 25.0509 159.134 24.7832 159.009 24.4975H158.919V26.0007H155.997ZM158.888 21.3643C158.888 21.8634 158.955 22.298 159.088 22.6683C159.224 23.0386 159.42 23.3263 159.673 23.5316C159.931 23.7328 160.239 23.8334 160.597 23.8334C160.959 23.8334 161.267 23.7328 161.52 23.5316C161.774 23.3263 161.965 23.0386 162.094 22.6683C162.227 22.298 162.293 21.8634 162.293 21.3643C162.293 20.8653 162.227 20.4326 162.094 20.0664C161.965 19.7002 161.774 19.4164 161.52 19.2152C161.271 19.014 160.963 18.9133 160.597 18.9133C160.235 18.9133 159.927 19.0119 159.673 19.2092C159.42 19.4064 159.224 19.6881 159.088 20.0543C158.955 20.4206 158.888 20.8572 158.888 21.3643ZM172.853 21.9982V16.728H175.799V26.0007H172.986V24.2741H172.89C172.684 24.8416 172.334 25.2924 171.839 25.6264C171.348 25.9564 170.754 26.1214 170.058 26.1214C169.426 26.1214 168.871 25.9765 168.392 25.6868C167.913 25.397 167.541 24.9925 167.275 24.4734C167.01 23.9502 166.875 23.3384 166.871 22.6381V16.728H169.823V22.0586C169.827 22.5617 169.96 22.9581 170.221 23.2479C170.483 23.5376 170.839 23.6825 171.29 23.6825C171.584 23.6825 171.847 23.6181 172.081 23.4893C172.318 23.3565 172.505 23.1654 172.642 22.9158C172.783 22.6623 172.853 22.3564 172.853 21.9982ZM182.007 26.1758C181.029 26.1758 180.19 25.9745 179.489 25.5721C178.793 25.1696 178.258 24.6102 177.884 23.8938C177.509 23.1734 177.322 22.3403 177.322 21.3945C177.322 20.4447 177.509 19.6116 177.884 18.8952C178.262 18.1748 178.799 17.6134 179.495 17.2109C180.196 16.8085 181.031 16.6072 182.001 16.6072C182.858 16.6072 183.605 16.7622 184.24 17.0721C184.88 17.382 185.379 17.8207 185.738 18.3881C186.1 18.9516 186.291 19.6136 186.311 20.3743H183.552C183.496 19.8994 183.335 19.5271 183.069 19.2574C182.808 18.9878 182.466 18.853 182.043 18.853C181.701 18.853 181.401 18.9496 181.143 19.1427C180.886 19.3319 180.685 19.6136 180.54 19.9879C180.399 20.3582 180.329 20.817 180.329 21.3643C180.329 21.9117 180.399 22.3745 180.54 22.7528C180.685 23.1271 180.886 23.4109 181.143 23.604C181.401 23.7932 181.701 23.8878 182.043 23.8878C182.317 23.8878 182.558 23.8294 182.767 23.7127C182.981 23.596 183.156 23.4249 183.293 23.1996C183.429 22.9702 183.516 22.6925 183.552 22.3665H186.311C186.283 23.1311 186.092 23.7992 185.738 24.3707C185.387 24.9422 184.894 25.3869 184.259 25.7049C183.627 26.0188 182.876 26.1758 182.007 26.1758ZM190.484 23.5678L190.496 20.0483H190.907L193.515 16.728H196.859L192.983 21.4851H192.205L190.484 23.5678ZM187.822 26.0007V13.6371H190.774V26.0007H187.822ZM193.581 26.0007L191.154 22.1491L193.098 20.0543L196.992 26.0007H193.581ZM201.868 26.1758C200.898 26.1758 200.061 25.9846 199.357 25.6023C198.657 25.2159 198.117 24.6665 197.739 23.9542C197.365 23.2378 197.178 22.3866 197.178 21.4006C197.178 20.4427 197.367 19.6056 197.745 18.8892C198.123 18.1688 198.657 17.6094 199.345 17.2109C200.033 16.8085 200.844 16.6072 201.778 16.6072C202.438 16.6072 203.041 16.7099 203.589 16.9151C204.136 17.1204 204.609 17.4242 205.007 17.8267C205.406 18.2292 205.716 18.7262 205.937 19.3178C206.159 19.9054 206.269 20.5795 206.269 21.3402V22.0767H198.21V20.3622H203.522C203.518 20.0483 203.444 19.7686 203.299 19.5231C203.154 19.2776 202.955 19.0864 202.701 18.9496C202.452 18.8087 202.164 18.7383 201.838 18.7383C201.508 18.7383 201.212 18.8127 200.951 18.9616C200.689 19.1065 200.482 19.3057 200.329 19.5593C200.176 19.8088 200.095 20.0926 200.087 20.4105V22.1552C200.087 22.5335 200.162 22.8655 200.311 23.1513C200.46 23.433 200.671 23.6523 200.945 23.8093C201.218 23.9663 201.544 24.0447 201.923 24.0447C202.184 24.0447 202.422 24.0085 202.635 23.9361C202.848 23.8636 203.031 23.757 203.184 23.6161C203.337 23.4752 203.452 23.3022 203.528 23.0969L206.239 23.1754C206.126 23.7831 205.879 24.3124 205.496 24.7631C205.118 25.2099 204.621 25.558 204.005 25.8075C203.39 26.053 202.677 26.1758 201.868 26.1758ZM213.011 16.728V18.9013H207.161V16.728H213.011ZM208.387 14.5064H211.339V23.0849C211.339 23.266 211.367 23.4129 211.423 23.5256C211.484 23.6342 211.57 23.7127 211.683 23.761C211.796 23.8053 211.93 23.8274 212.087 23.8274C212.2 23.8274 212.319 23.8173 212.443 23.7972C212.572 23.7731 212.669 23.7529 212.733 23.7368L213.18 25.8679C213.039 25.9081 212.84 25.9584 212.582 26.0188C212.329 26.0792 212.025 26.1174 211.671 26.1335C210.979 26.1657 210.385 26.0852 209.89 25.892C209.399 25.6948 209.023 25.389 208.761 24.9744C208.503 24.5599 208.379 24.0387 208.387 23.4109V14.5064Z" fill="#2684FF"/>
</g>
<defs>
<filter id="filter0_d_1_56" x="2.39972" y="0.39972" width="39.202" height="39.202" filterUnits="userSpaceOnUse" color-interpolation-filters="sRGB">
<feFlood flood-opacity="0" result="BackgroundImageFix"/>
<feColorMatrix in="SourceAlpha" type="matrix" values="0 0 0 0 0 0 0 0 0 0 0 0 0 0 0 0 0 0 127 0" result="hardAlpha"/>
<feOffset/>
<feGaussianBlur stdDeviation="2.80014"/>
<feComposite in2="hardAlpha" operator="out"/>
<feColorMatrix type="matrix" values="0 0 0 0 0 0 0 0 0 0 0 0 0 0 0 0 0 0 0.25 0"/>
<feBlend mode="normal" in2="BackgroundImageFix" result="effect1_dropShadow_1_56"/>
<feBlend mode="normal" in="SourceGraphic" in2="effect1_dropShadow_1_56" result="shape"/>
</filter>
<filter id="filter1_d_1_56" x="36.2871" y="3.78642" width="183.429" height="32.4286" filterUnits="userSpaceOnUse" color-interpolation-filters="sRGB">
<feFlood flood-opacity="0" result="BackgroundImageFix"/>
<feColorMatrix in="SourceAlpha" type="matrix" values="0 0 0 0 0 0 0 0 0 0 0 0 0 0 0 0 0 0 127 0" result="hardAlpha"/>
<feOffset/>
<feGaussianBlur stdDeviation="2.85714"/>
<feComposite in2="hardAlpha" operator="out"/>
<feColorMatrix type="matrix" values="0 0 0 0 0 0 0 0 0 0 0 0 0 0 0 0 0 0 0.25 0"/>
<feBlend mode="normal" in2="BackgroundImageFix" result="effect1_dropShadow_1_56"/>
<feBlend mode="normal" in="SourceGraphic" in2="effect1_dropShadow_1_56" result="shape"/>
</filter>
<linearGradient id="paint0_linear_1_56" x1="111.001" y1="0" x2="111.001" y2="40.0014" gradientUnits="userSpaceOnUse">
<stop stop-color="#003C8B"/>
<stop offset="1" stop-color="#001531"/>
</linearGradient>
<linearGradient id="paint1_linear_1_56" x1="36.6913" y1="18.0768" x2="22.784" y2="28.9327" gradientUnits="userSpaceOnUse">
<stop offset="0.176" stop-color="#0052CC"/>
<stop offset="1" stop-color="#2684FF"/>
</linearGradient>
</defs>
</svg>
