<svg width="154" height="56" viewBox="0 0 154 56" fill="none" xmlns="http://www.w3.org/2000/svg">
<rect width="154" height="56" rx="8" fill="url(#paint0_linear_1_50)"/>
<rect x="1.05" y="1.05" width="151.9" height="53.9" rx="6.95" stroke="white" stroke-opacity="0.15" stroke-width="2.1"/>
<g filter="url(#filter0_d_1_50)">
<path d="M13.2841 9.875C12.4848 9.875 11.8854 10.6077 12.0186 11.3403L17.4136 44.3762C17.5468 45.2422 18.2794 45.8415 19.1453 45.8415H45.2544C45.8539 45.8415 46.3867 45.3754 46.5199 44.7759L51.9814 11.4069C52.1147 10.6077 51.5152 9.94162 50.716 9.94162L13.2841 9.875ZM36.1962 33.7195H27.8705L25.6725 21.9305H38.2609L36.1962 33.7195Z" fill="#2684FF"/>
<path d="M50.183 21.9305H38.1942L36.196 33.7195H27.8703L18.0795 45.3754C18.0795 45.3754 18.5457 45.775 19.2118 45.775H45.3209C45.9204 45.775 46.4532 45.3087 46.5864 44.7092L50.183 21.9305Z" fill="url(#paint1_linear_1_50)"/>
</g>
<g filter="url(#filter1_d_1_50)">
<path d="M67.625 15.9204C67.5644 15.3826 67.3144 14.9659 66.875 14.6704C66.4356 14.3712 65.8826 14.2216 65.2159 14.2216C64.7386 14.2216 64.3257 14.2973 63.9773 14.4489C63.6288 14.5966 63.3579 14.8011 63.1648 15.0625C62.9754 15.3201 62.8807 15.6136 62.8807 15.9432C62.8807 16.2197 62.9451 16.4583 63.0738 16.6591C63.2064 16.8598 63.3788 17.0284 63.5909 17.1648C63.8068 17.2973 64.0379 17.4091 64.2841 17.5C64.5303 17.5871 64.767 17.6591 64.9943 17.7159L66.1307 18.0114C66.5019 18.1023 66.8826 18.2254 67.2727 18.3807C67.6629 18.536 68.0246 18.7405 68.3579 18.9943C68.6913 19.2481 68.9602 19.5625 69.1648 19.9375C69.3731 20.3125 69.4773 20.7614 69.4773 21.2841C69.4773 21.9432 69.3068 22.5284 68.9659 23.0398C68.6288 23.5511 68.1382 23.9545 67.4943 24.25C66.8541 24.5454 66.0795 24.6932 65.1704 24.6932C64.2992 24.6932 63.5454 24.5549 62.9091 24.2784C62.2727 24.0019 61.7746 23.6098 61.4148 23.1023C61.0549 22.5909 60.856 21.9848 60.8182 21.2841H62.5795C62.6136 21.7045 62.75 22.0549 62.9886 22.3352C63.231 22.6117 63.5398 22.8182 63.9148 22.9545C64.2935 23.0871 64.7083 23.1534 65.1591 23.1534C65.6553 23.1534 66.0966 23.0758 66.4829 22.9204C66.8731 22.7614 67.1799 22.5417 67.4034 22.2614C67.6269 21.9773 67.7386 21.6458 67.7386 21.267C67.7386 20.9223 67.6401 20.6401 67.4432 20.4204C67.25 20.2008 66.9867 20.0189 66.6534 19.875C66.3238 19.7311 65.9507 19.6042 65.5341 19.4943L64.1591 19.1193C63.2273 18.8655 62.4886 18.4924 61.9432 18C61.4015 17.5076 61.1307 16.8561 61.1307 16.0454C61.1307 15.375 61.3125 14.7898 61.6761 14.2898C62.0398 13.7898 62.5322 13.4015 63.1534 13.125C63.7746 12.8447 64.4754 12.7045 65.2557 12.7045C66.0435 12.7045 66.7386 12.8428 67.3409 13.1193C67.947 13.3958 68.4242 13.7765 68.7727 14.2614C69.1212 14.7424 69.303 15.2954 69.3182 15.9204H67.625ZM75.2003 24.6761C74.3404 24.6761 73.5999 24.4924 72.9787 24.125C72.3613 23.7538 71.884 23.2329 71.5469 22.5625C71.2135 21.8883 71.0469 21.0985 71.0469 20.1932C71.0469 19.2992 71.2135 18.5114 71.5469 17.8295C71.884 17.1477 72.3537 16.6155 72.9559 16.2329C73.562 15.8504 74.2703 15.6591 75.0809 15.6591C75.5734 15.6591 76.0506 15.7405 76.5128 15.9034C76.9749 16.0663 77.3897 16.322 77.7571 16.6704C78.1245 17.0189 78.4143 17.4716 78.6264 18.0284C78.8385 18.5814 78.9446 19.2538 78.9446 20.0454V20.6477H72.0071V19.375H77.2798C77.2798 18.928 77.1889 18.5322 77.0071 18.1875C76.8253 17.839 76.5696 17.5644 76.24 17.3636C75.9143 17.1629 75.5317 17.0625 75.0923 17.0625C74.615 17.0625 74.1984 17.1799 73.8423 17.4148C73.49 17.6458 73.2173 17.9489 73.0241 18.3239C72.8347 18.6951 72.74 19.0985 72.74 19.5341V20.5284C72.74 21.1117 72.8423 21.6079 73.0469 22.017C73.2552 22.4261 73.545 22.7386 73.9162 22.9545C74.2874 23.1667 74.7211 23.2727 75.2173 23.2727C75.5393 23.2727 75.8328 23.2273 76.098 23.1364C76.3631 23.0417 76.5923 22.9015 76.7855 22.7159C76.9787 22.5303 77.1264 22.3011 77.2287 22.0284L78.8366 22.3182C78.7078 22.7917 78.4768 23.2064 78.1434 23.5625C77.8139 23.9148 77.3991 24.1894 76.8991 24.3864C76.4029 24.5795 75.8366 24.6761 75.2003 24.6761ZM84.5909 24.6761C83.731 24.6761 82.9905 24.4924 82.3693 24.125C81.7519 23.7538 81.2746 23.2329 80.9375 22.5625C80.6041 21.8883 80.4375 21.0985 80.4375 20.1932C80.4375 19.2992 80.6041 18.5114 80.9375 17.8295C81.2746 17.1477 81.7443 16.6155 82.3466 16.2329C82.9526 15.8504 83.661 15.6591 84.4716 15.6591C84.964 15.6591 85.4413 15.7405 85.9034 15.9034C86.3655 16.0663 86.7803 16.322 87.1477 16.6704C87.5151 17.0189 87.8049 17.4716 88.017 18.0284C88.2291 18.5814 88.3352 19.2538 88.3352 20.0454V20.6477H81.3977V19.375H86.6704C86.6704 18.928 86.5795 18.5322 86.3977 18.1875C86.2159 17.839 85.9602 17.5644 85.6307 17.3636C85.3049 17.1629 84.9223 17.0625 84.4829 17.0625C84.0057 17.0625 83.589 17.1799 83.2329 17.4148C82.8807 17.6458 82.6079 17.9489 82.4148 18.3239C82.2254 18.6951 82.1307 19.0985 82.1307 19.5341V20.5284C82.1307 21.1117 82.2329 21.6079 82.4375 22.017C82.6458 22.4261 82.9356 22.7386 83.3068 22.9545C83.678 23.1667 84.1117 23.2727 84.6079 23.2727C84.9299 23.2727 85.2235 23.2273 85.4886 23.1364C85.7538 23.0417 85.9829 22.9015 86.1761 22.7159C86.3693 22.5303 86.517 22.3011 86.6193 22.0284L88.2272 22.3182C88.0985 22.7917 87.8674 23.2064 87.5341 23.5625C87.2045 23.9148 86.7897 24.1894 86.2897 24.3864C85.7935 24.5795 85.2272 24.6761 84.5909 24.6761ZM94.4545 24.5V15.7727H96.0852V17.1932H96.1932C96.375 16.7121 96.6723 16.3371 97.0852 16.0682C97.4981 15.7954 97.9924 15.6591 98.5682 15.6591C99.1515 15.6591 99.6401 15.7954 100.034 16.0682C100.432 16.3409 100.725 16.7159 100.915 17.1932H101.006C101.214 16.7273 101.545 16.3561 102 16.0795C102.455 15.7992 102.996 15.6591 103.625 15.6591C104.417 15.6591 105.062 15.9072 105.562 16.4034C106.066 16.8996 106.318 17.6477 106.318 18.6477V24.5H104.619V18.8068C104.619 18.2159 104.458 17.7879 104.136 17.5227C103.814 17.2576 103.43 17.125 102.983 17.125C102.43 17.125 102 17.2954 101.693 17.6364C101.386 17.9735 101.233 18.4072 101.233 18.9375V24.5H99.5397V18.6989C99.5397 18.2254 99.392 17.8447 99.0966 17.5568C98.8011 17.2689 98.4166 17.125 97.9432 17.125C97.6212 17.125 97.3238 17.2102 97.0511 17.3807C96.7822 17.5473 96.5644 17.7803 96.3977 18.0795C96.2348 18.3788 96.1534 18.7254 96.1534 19.1193V24.5H94.4545ZM112.357 24.6761C111.497 24.6761 110.756 24.4924 110.135 24.125C109.517 23.7538 109.04 23.2329 108.703 22.5625C108.37 21.8883 108.203 21.0985 108.203 20.1932C108.203 19.2992 108.37 18.5114 108.703 17.8295C109.04 17.1477 109.51 16.6155 110.112 16.2329C110.718 15.8504 111.427 15.6591 112.237 15.6591C112.73 15.6591 113.207 15.7405 113.669 15.9034C114.131 16.0663 114.546 16.322 114.913 16.6704C115.281 17.0189 115.571 17.4716 115.783 18.0284C115.995 18.5814 116.101 19.2538 116.101 20.0454V20.6477H109.163V19.375H114.436C114.436 18.928 114.345 18.5322 114.163 18.1875C113.982 17.839 113.726 17.5644 113.396 17.3636C113.071 17.1629 112.688 17.0625 112.249 17.0625C111.771 17.0625 111.355 17.1799 110.999 17.4148C110.646 17.6458 110.374 17.9489 110.18 18.3239C109.991 18.6951 109.896 19.0985 109.896 19.5341V20.5284C109.896 21.1117 109.999 21.6079 110.203 22.017C110.411 22.4261 110.701 22.7386 111.072 22.9545C111.444 23.1667 111.877 23.2727 112.374 23.2727C112.696 23.2727 112.989 23.2273 113.254 23.1364C113.519 23.0417 113.749 22.9015 113.942 22.7159C114.135 22.5303 114.283 22.3011 114.385 22.0284L115.993 22.3182C115.864 22.7917 115.633 23.2064 115.3 23.5625C114.97 23.9148 114.555 24.1894 114.055 24.3864C113.559 24.5795 112.993 24.6761 112.357 24.6761ZM125.896 24.6761C125.078 24.6761 124.364 24.4886 123.754 24.1136C123.144 23.7386 122.671 23.214 122.334 22.5398C121.997 21.8655 121.828 21.0776 121.828 20.1761C121.828 19.2708 121.997 18.4792 122.334 17.8011C122.671 17.1231 123.144 16.5966 123.754 16.2216C124.364 15.8466 125.078 15.6591 125.896 15.6591C126.714 15.6591 127.428 15.8466 128.038 16.2216C128.648 16.5966 129.122 17.1231 129.459 17.8011C129.796 18.4792 129.964 19.2708 129.964 20.1761C129.964 21.0776 129.796 21.8655 129.459 22.5398C129.122 23.214 128.648 23.7386 128.038 24.1136C127.428 24.4886 126.714 24.6761 125.896 24.6761ZM125.902 23.25C126.432 23.25 126.872 23.1098 127.22 22.8295C127.569 22.5492 127.826 22.1761 127.993 21.7102C128.163 21.2443 128.249 20.7311 128.249 20.1704C128.249 19.6136 128.163 19.1023 127.993 18.6364C127.826 18.1667 127.569 17.7898 127.22 17.5057C126.872 17.2216 126.432 17.0795 125.902 17.0795C125.368 17.0795 124.925 17.2216 124.572 17.5057C124.224 17.7898 123.964 18.1667 123.794 18.6364C123.627 19.1023 123.544 19.6136 123.544 20.1704C123.544 20.7311 123.627 21.2443 123.794 21.7102C123.964 22.1761 124.224 22.5492 124.572 22.8295C124.925 23.1098 125.368 23.25 125.902 23.25ZM133.56 19.3182V24.5H131.861V15.7727H133.491V17.1932H133.599C133.8 16.7311 134.115 16.3598 134.543 16.0795C134.974 15.7992 135.518 15.6591 136.173 15.6591C136.768 15.6591 137.289 15.7841 137.736 16.0341C138.183 16.2803 138.529 16.6477 138.776 17.1364C139.022 17.625 139.145 18.2292 139.145 18.9489V24.5H137.446V19.1534C137.446 18.5208 137.281 18.0265 136.952 17.6704C136.622 17.3106 136.169 17.1307 135.594 17.1307C135.2 17.1307 134.849 17.2159 134.543 17.3864C134.24 17.5568 133.999 17.8068 133.821 18.1364C133.647 18.4621 133.56 18.8561 133.56 19.3182Z" fill="#E8E8E8"/>
<path d="M60.9357 43.5V31.1364H66.0912C67.0169 31.1364 67.7916 31.2672 68.4155 31.5288C69.0433 31.7904 69.5142 32.1566 69.8281 32.6275C70.1461 33.0984 70.305 33.6437 70.305 34.2635C70.305 34.7344 70.2064 35.1549 70.0092 35.5252C69.812 35.8914 69.5403 36.1953 69.1942 36.4368C68.8481 36.6783 68.4477 36.8473 67.9929 36.9439V37.0646C68.4919 37.0888 68.9528 37.2236 69.3753 37.4691C69.8019 37.7146 70.144 38.0567 70.4016 38.4954C70.6592 38.93 70.788 39.4452 70.788 40.0408C70.788 40.7049 70.6189 41.2985 70.2809 41.8217C69.9428 42.3409 69.4538 42.7514 68.8139 43.0533C68.174 43.3511 67.3972 43.5 66.4836 43.5H60.9357ZM63.924 41.0913H65.7713C66.4193 41.0913 66.8962 40.9685 67.202 40.723C67.5119 40.4775 67.6669 40.1354 67.6669 39.6967C67.6669 39.3788 67.5924 39.1051 67.4435 38.8757C67.2946 38.6423 67.0833 38.4632 66.8096 38.3384C66.536 38.2096 66.208 38.1452 65.8256 38.1452H63.924V41.0913ZM63.924 36.2195H65.5781C65.9041 36.2195 66.1939 36.1651 66.4474 36.0565C66.701 35.9478 66.8982 35.7908 67.039 35.5856C67.1839 35.3803 67.2564 35.1328 67.2564 34.843C67.2564 34.4285 67.1095 34.1025 66.8157 33.865C66.5219 33.6276 66.1255 33.5089 65.6264 33.5089H63.924V36.2195ZM72.2248 43.5V34.2273H75.1768V43.5H72.2248ZM73.7038 33.1467C73.2893 33.1467 72.9331 33.0098 72.6353 32.7361C72.3375 32.4584 72.1885 32.1244 72.1885 31.734C72.1885 31.3476 72.3375 31.0176 72.6353 30.744C72.9331 30.4663 73.2893 30.3274 73.7038 30.3274C74.1224 30.3274 74.4786 30.4663 74.7724 30.744C75.0702 31.0176 75.2191 31.3476 75.2191 31.734C75.2191 32.1244 75.0702 32.4584 74.7724 32.7361C74.4786 33.0098 74.1224 33.1467 73.7038 33.1467ZM82.2898 34.2273V36.4006H76.4401V34.2273H82.2898ZM77.6656 32.0057H80.6176V40.5842C80.6176 40.7653 80.6458 40.9122 80.7021 41.0248C80.7625 41.1335 80.849 41.212 80.9617 41.2603C81.0744 41.3046 81.2092 41.3267 81.3662 41.3267C81.4789 41.3267 81.5976 41.3166 81.7224 41.2965C81.8512 41.2724 81.9477 41.2522 82.0121 41.2361L82.4589 43.3672C82.318 43.4074 82.1188 43.4577 81.8612 43.5181C81.6077 43.5785 81.3038 43.6167 80.9496 43.6328C80.2574 43.665 79.6638 43.5845 79.1687 43.3913C78.6777 43.1941 78.3014 42.8882 78.0398 42.4737C77.7823 42.0592 77.6575 41.538 77.6656 40.9101V32.0057ZM83.9953 43.5V31.1364H86.9473V35.815H87.0077C87.1284 35.5333 87.2995 35.2616 87.5208 35C87.7462 34.7384 88.032 34.5251 88.3781 34.3601C88.7282 34.191 89.1468 34.1065 89.6338 34.1065C90.2777 34.1065 90.8794 34.2756 91.4388 34.6136C92.0023 34.9517 92.457 35.4729 92.8032 36.1772C93.1493 36.8815 93.3223 37.779 93.3223 38.8697C93.3223 39.9201 93.1553 40.7995 92.8213 41.5078C92.4912 42.2161 92.0445 42.7474 91.4811 43.1016C90.9216 43.4557 90.2998 43.6328 89.6157 43.6328C89.1488 43.6328 88.7443 43.5563 88.4022 43.4034C88.0601 43.2505 87.7724 43.0492 87.539 42.7997C87.3095 42.5502 87.1325 42.2825 87.0077 41.9968H86.9171V43.5H83.9953ZM86.887 38.8636C86.887 39.3627 86.9534 39.7973 87.0862 40.1676C87.223 40.5379 87.4182 40.8256 87.6718 41.0309C87.9293 41.2321 88.2372 41.3327 88.5954 41.3327C88.9576 41.3327 89.2655 41.2321 89.5191 41.0309C89.7726 40.8256 89.9638 40.5379 90.0926 40.1676C90.2254 39.7973 90.2918 39.3627 90.2918 38.8636C90.2918 38.3646 90.2254 37.9319 90.0926 37.5657C89.9638 37.1994 89.7726 36.9157 89.5191 36.7145C89.2695 36.5132 88.9617 36.4126 88.5954 36.4126C88.2332 36.4126 87.9253 36.5112 87.6718 36.7084C87.4182 36.9056 87.223 37.1874 87.0862 37.5536C86.9534 37.9199 86.887 38.3565 86.887 38.8636ZM100.852 39.4975V34.2273H103.798V43.5H100.985V41.7734H100.888C100.683 42.3409 100.333 42.7917 99.8377 43.1257C99.3467 43.4557 98.7531 43.6207 98.0568 43.6207C97.4249 43.6207 96.8695 43.4758 96.3906 43.1861C95.9117 42.8963 95.5394 42.4918 95.2738 41.9726C95.0081 41.4494 94.8733 40.8377 94.8693 40.1374V34.2273H97.8214V39.5579C97.8254 40.061 97.9582 40.4574 98.2198 40.7471C98.4814 41.0369 98.8376 41.1818 99.2883 41.1818C99.5821 41.1818 99.8457 41.1174 100.079 40.9886C100.317 40.8558 100.504 40.6646 100.641 40.4151C100.781 40.1616 100.852 39.8557 100.852 39.4975ZM110.005 43.6751C109.027 43.6751 108.188 43.4738 107.488 43.0714C106.792 42.6689 106.256 42.1095 105.882 41.3931C105.508 40.6727 105.321 39.8396 105.321 38.8938C105.321 37.944 105.508 37.1109 105.882 36.3945C106.26 35.6741 106.798 35.1127 107.494 34.7102C108.194 34.3078 109.029 34.1065 109.999 34.1065C110.857 34.1065 111.603 34.2615 112.239 34.5714C112.879 34.8813 113.378 35.3199 113.736 35.8874C114.098 36.4509 114.29 37.1129 114.31 37.8736H111.551C111.494 37.3987 111.334 37.0264 111.068 36.7567C110.806 36.4871 110.464 36.3523 110.042 36.3523C109.7 36.3523 109.4 36.4489 109.142 36.642C108.885 36.8312 108.683 37.1129 108.538 37.4872C108.398 37.8575 108.327 38.3163 108.327 38.8636C108.327 39.411 108.398 39.8738 108.538 40.2521C108.683 40.6264 108.885 40.9101 109.142 41.1033C109.4 41.2925 109.7 41.3871 110.042 41.3871C110.315 41.3871 110.557 41.3287 110.766 41.212C110.979 41.0953 111.154 40.9242 111.291 40.6989C111.428 40.4694 111.515 40.1918 111.551 39.8658H114.31C114.282 40.6304 114.09 41.2985 113.736 41.87C113.386 42.4415 112.893 42.8862 112.257 43.2042C111.625 43.5181 110.875 43.6751 110.005 43.6751ZM118.483 41.0671L118.495 37.5476H118.905L121.513 34.2273H124.858L120.982 38.9844H120.203L118.483 41.0671ZM115.82 43.5V31.1364H118.773V43.5H115.82ZM121.58 43.5L119.153 39.6484L121.097 37.5536L124.991 43.5H121.58ZM129.867 43.6751C128.897 43.6751 128.06 43.4839 127.356 43.1016C126.655 42.7152 126.116 42.1658 125.738 41.4535C125.363 40.7371 125.176 39.8859 125.176 38.8998C125.176 37.942 125.365 37.1049 125.744 36.3885C126.122 35.6681 126.655 35.1087 127.343 34.7102C128.032 34.3078 128.843 34.1065 129.776 34.1065C130.436 34.1065 131.04 34.2092 131.587 34.4144C132.135 34.6197 132.608 34.9235 133.006 35.326C133.405 35.7284 133.714 36.2255 133.936 36.8171C134.157 37.4047 134.268 38.0788 134.268 38.8395V39.576H126.209V37.8615H131.521C131.517 37.5476 131.443 37.2679 131.298 37.0224C131.153 36.7769 130.954 36.5857 130.7 36.4489C130.45 36.308 130.163 36.2376 129.837 36.2376C129.507 36.2376 129.211 36.312 128.949 36.4609C128.688 36.6058 128.48 36.805 128.327 37.0586C128.175 37.3081 128.094 37.5918 128.086 37.9098V39.6545C128.086 40.0328 128.16 40.3648 128.309 40.6506C128.458 40.9323 128.67 41.1516 128.943 41.3086C129.217 41.4655 129.543 41.544 129.921 41.544C130.183 41.544 130.42 41.5078 130.634 41.4354C130.847 41.3629 131.03 41.2563 131.183 41.1154C131.336 40.9745 131.451 40.8015 131.527 40.5962L134.238 40.6747C134.125 41.2824 133.877 41.8117 133.495 42.2624C133.117 42.7092 132.62 43.0573 132.004 43.3068C131.388 43.5523 130.676 43.6751 129.867 43.6751ZM141.01 34.2273V36.4006H135.16V34.2273H141.01ZM136.385 32.0057H139.337V40.5842C139.337 40.7653 139.365 40.9122 139.422 41.0248C139.482 41.1335 139.569 41.212 139.681 41.2603C139.794 41.3046 139.929 41.3267 140.086 41.3267C140.199 41.3267 140.317 41.3166 140.442 41.2965C140.571 41.2724 140.667 41.2522 140.732 41.2361L141.179 43.3672C141.038 43.4074 140.839 43.4577 140.581 43.5181C140.327 43.5785 140.024 43.6167 139.669 43.6328C138.977 43.665 138.383 43.5845 137.888 43.3913C137.397 43.1941 137.021 42.8882 136.76 42.4737C136.502 42.0592 136.377 41.538 136.385 40.9101V32.0057Z" fill="#2684FF"/>
</g>
<defs>
<filter id="filter0_d_1_50" x="6.28571" y="2.28571" width="51.4286" height="51.4286" filterUnits="userSpaceOnUse" color-interpolation-filters="sRGB">
<feFlood flood-opacity="0" result="BackgroundImageFix"/>
<feColorMatrix in="SourceAlpha" type="matrix" values="0 0 0 0 0 0 0 0 0 0 0 0 0 0 0 0 0 0 127 0" result="hardAlpha"/>
<feOffset/>
<feGaussianBlur stdDeviation="2.85714"/>
<feComposite in2="hardAlpha" operator="out"/>
<feColorMatrix type="matrix" values="0 0 0 0 0 0 0 0 0 0 0 0 0 0 0 0 0 0 0.25 0"/>
<feBlend mode="normal" in2="BackgroundImageFix" result="effect1_dropShadow_1_50"/>
<feBlend mode="normal" in="SourceGraphic" in2="effect1_dropShadow_1_50" result="shape"/>
</filter>
<filter id="filter1_d_1_50" x="54.4" y="3.9" width="93.2" height="48.2" filterUnits="userSpaceOnUse" color-interpolation-filters="sRGB">
<feFlood flood-opacity="0" result="BackgroundImageFix"/>
<feColorMatrix in="SourceAlpha" type="matrix" values="0 0 0 0 0 0 0 0 0 0 0 0 0 0 0 0 0 0 127 0" result="hardAlpha"/>
<feOffset/>
<feGaussianBlur stdDeviation="2.8"/>
<feComposite in2="hardAlpha" operator="out"/>
<feColorMatrix type="matrix" values="0 0 0 0 0 0 0 0 0 0 0 0 0 0 0 0 0 0 0.25 0"/>
<feBlend mode="normal" in2="BackgroundImageFix" result="effect1_dropShadow_1_50"/>
<feBlend mode="normal" in="SourceGraphic" in2="effect1_dropShadow_1_50" result="shape"/>
</filter>
<linearGradient id="paint0_linear_1_50" x1="77" y1="0" x2="77" y2="56" gradientUnits="userSpaceOnUse">
<stop stop-color="#003C8B"/>
<stop offset="1" stop-color="#001531"/>
</linearGradient>
<linearGradient id="paint1_linear_1_50" x1="52.9875" y1="25.2525" x2="33.12" y2="40.761" gradientUnits="userSpaceOnUse">
<stop offset="0.176" stop-color="#0052CC"/>
<stop offset="1" stop-color="#2684FF"/>
</linearGradient>
</defs>
</svg>
