<svg width="40" height="40" viewBox="0 0 40 40" fill="none" xmlns="http://www.w3.org/2000/svg">
<rect width="40" height="40" rx="8" fill="url(#paint0_linear_1_68)"/>
<rect x="1.05" y="1.05" width="37.9" height="37.9" rx="6.95" stroke="white" stroke-opacity="0.15" stroke-width="2.1"/>
<g filter="url(#filter0_d_1_68)">
<path d="M11.709 28.2877L6.92134 23.499C6.35373 22.9148 6 22.092 6 21.2877C6 20.9154 6.20977 20.3332 6.36812 19.9979L10.7877 10.7887L11.709 28.2877Z" fill="#01579B"/>
<path d="M28.0997 11.7103L23.3121 6.92154C22.8946 6.50191 22.0226 6 21.2864 6C20.653 6 20.0319 6.12753 19.6288 6.3682L10.7897 10.7887L28.0997 11.7103Z" fill="#40C4FF"/>
<path d="M17.418 33.9979H29.0211V29.0241L20.365 26.2615L12.4473 29.0241L17.418 33.9979Z" fill="#40C4FF"/>
<path d="M10.7897 25.7103C10.7897 27.1872 10.9748 27.5513 11.7111 28.2897L12.4473 29.0262H29.0211L20.9183 19.8169L10.7897 10.7908V25.7103Z" fill="#29B6F6"/>
<path d="M25.5208 10.7887H10.7877L29.019 29.0241H33.9918V17.6036L28.0997 11.7103C27.273 10.8792 26.5368 10.7887 25.5208 10.7887Z" fill="#01579B"/>
<path opacity="0.2" d="M11.8941 28.4728C11.1578 27.7323 10.9727 27.0041 10.9727 25.7102V10.9738L10.7877 10.7887V25.7082C10.7897 27.0041 10.7897 27.362 11.8941 28.4728Z" fill="white"/>
<path opacity="0.2" d="M33.8087 17.4205V28.841H28.836L29.0211 29.0241H33.9938V17.6056L33.8087 17.4205Z" fill="#263238"/>
<path opacity="0.2" d="M28.0997 11.71C27.1866 10.7969 26.4381 10.7887 25.3378 10.7887H10.7897L10.9748 10.9738H25.3399C25.8869 10.9738 27.2751 10.8813 28.0997 11.71Z" fill="white"/>
<path opacity="0.2" d="M33.8087 17.4205L28.0997 11.7103L23.3121 6.92154C22.8946 6.50191 22.0226 6 21.2864 6C20.653 6 20.0319 6.12753 19.6288 6.3682L10.7897 10.7887L6.37018 19.9979C6.21182 20.3332 6.00206 20.9154 6.00206 21.2877C6.00206 22.092 6.35578 22.9148 6.92339 23.499L11.3368 27.8804C11.4416 28.01 11.565 28.1416 11.7131 28.2877L11.8982 28.4728L12.4514 29.0262L17.2391 33.8149L17.4242 34H28.8422H29.0272V29.0262H34V29.0138V17.6056L33.8087 17.4205Z" fill="url(#paint1_radial_1_68)"/>
</g>
<defs>
<filter id="filter0_d_1_68" x="2" y="2" width="36" height="36" filterUnits="userSpaceOnUse" color-interpolation-filters="sRGB">
<feFlood flood-opacity="0" result="BackgroundImageFix"/>
<feColorMatrix in="SourceAlpha" type="matrix" values="0 0 0 0 0 0 0 0 0 0 0 0 0 0 0 0 0 0 127 0" result="hardAlpha"/>
<feOffset/>
<feGaussianBlur stdDeviation="2"/>
<feComposite in2="hardAlpha" operator="out"/>
<feColorMatrix type="matrix" values="0 0 0 0 0 0 0 0 0 0 0 0 0 0 0 0 0 0 0.25 0"/>
<feBlend mode="normal" in2="BackgroundImageFix" result="effect1_dropShadow_1_68"/>
<feBlend mode="normal" in="SourceGraphic" in2="effect1_dropShadow_1_68" result="shape"/>
</filter>
<linearGradient id="paint0_linear_1_68" x1="20" y1="0" x2="20" y2="40" gradientUnits="userSpaceOnUse">
<stop stop-color="#06628B"/>
<stop offset="1" stop-color="#023E6D"/>
</linearGradient>
<radialGradient id="paint1_radial_1_68" cx="0" cy="0" r="1" gradientUnits="userSpaceOnUse" gradientTransform="translate(20 19.9993) scale(13.9979 14.001)">
<stop stop-color="white" stop-opacity="0.1"/>
<stop offset="1" stop-color="white" stop-opacity="0"/>
</radialGradient>
</defs>
</svg>
