<svg width="167" height="40" viewBox="0 0 167 40" fill="none" xmlns="http://www.w3.org/2000/svg">
<rect width="167.001" height="40.0014" rx="8" fill="url(#paint0_linear_1_56)"/>
<rect x="1.07143" y="1.07143" width="164.859" height="37.8585" rx="6.92857" stroke="white" stroke-opacity="0.15" stroke-width="2.14286"/>
<g filter="url(#filter0_d_1_56)">
<path d="M13.709 28.2877L8.92134 23.499C8.35373 22.9148 8 22.092 8 21.2877C8 20.9154 8.20977 20.3332 8.36812 19.9979L12.7877 10.7887L13.709 28.2877Z" fill="#01579B"/>
<path d="M30.0998 11.7103L25.3121 6.92154C24.8946 6.50191 24.0226 6 23.2864 6C22.653 6 22.0319 6.12753 21.6288 6.3682L12.7897 10.7887L30.0998 11.7103Z" fill="#40C4FF"/>
<path d="M19.418 33.9979H31.0211V29.0241L22.365 26.2615L14.4473 29.0241L19.418 33.9979Z" fill="#40C4FF"/>
<path d="M12.7897 25.7103C12.7897 27.1872 12.9748 27.5513 13.7111 28.2897L14.4473 29.0262H31.0211L22.9183 19.8169L12.7897 10.7908V25.7103Z" fill="#29B6F6"/>
<path d="M27.5208 10.7887H12.7877L31.019 29.0241H35.9918V17.6036L30.0997 11.7103C29.273 10.8792 28.5368 10.7887 27.5208 10.7887Z" fill="#01579B"/>
<path opacity="0.2" d="M13.8941 28.4728C13.1578 27.7323 12.9727 27.0041 12.9727 25.7102V10.9738L12.7877 10.7887V25.7082C12.7897 27.0041 12.7897 27.362 13.8941 28.4728Z" fill="white"/>
<path opacity="0.2" d="M35.8087 17.4205V28.841H30.836L31.0211 29.0241H35.9938V17.6056L35.8087 17.4205Z" fill="#263238"/>
<path opacity="0.2" d="M30.0998 11.71C29.1866 10.7969 28.4381 10.7887 27.3378 10.7887H12.7897L12.9748 10.9738H27.3399C27.8869 10.9738 29.2751 10.8813 30.0998 11.71Z" fill="white"/>
<path opacity="0.2" d="M35.8087 17.4205L30.0997 11.7103L25.3121 6.92154C24.8946 6.50191 24.0226 6 23.2864 6C22.653 6 22.0319 6.12753 21.6288 6.3682L12.7897 10.7887L8.37018 19.9979C8.21182 20.3332 8.00205 20.9154 8.00205 21.2877C8.00205 22.092 8.35578 22.9148 8.92339 23.499L13.3368 27.8804C13.4416 28.01 13.565 28.1416 13.7131 28.2877L13.8982 28.4728L14.4514 29.0262L19.2391 33.8149L19.4242 34H30.8422H31.0272V29.0262H36V29.0138V17.6056L35.8087 17.4205Z" fill="url(#paint1_radial_1_56)"/>
</g>
<g filter="url(#filter1_d_1_56)">
<path d="M43.3597 26.5007V14.1371H47.8874C48.7648 14.1371 49.4912 14.282 50.0667 14.5717C50.6423 14.8575 51.0729 15.2458 51.3586 15.7369C51.6444 16.2238 51.7873 16.7732 51.7873 17.3849C51.7873 17.9001 51.6927 18.3347 51.5035 18.6889C51.3144 19.0391 51.0608 19.3208 50.7429 19.5341C50.429 19.7434 50.0828 19.8963 49.7045 19.9929V20.1136C50.115 20.1337 50.5155 20.2666 50.9059 20.5121C51.3003 20.7535 51.6263 21.0976 51.8839 21.5444C52.1414 21.9911 52.2702 22.5344 52.2702 23.1743C52.2702 23.8062 52.1213 24.3737 51.8235 24.8768C51.5297 25.3758 51.0749 25.7722 50.4591 26.066C49.8434 26.3558 49.0566 26.5007 48.0987 26.5007H43.3597ZM45.2251 24.9009H47.9176C48.8111 24.9009 49.451 24.7279 49.8373 24.3817C50.2237 24.0356 50.4169 23.603 50.4169 23.0838C50.4169 22.6934 50.3183 22.3352 50.1211 22.0092C49.9239 21.6832 49.6421 21.4236 49.2759 21.2305C48.9137 21.0373 48.483 20.9407 47.984 20.9407H45.2251V24.9009ZM45.2251 19.4858H47.7244C48.143 19.4858 48.5193 19.4053 48.8533 19.2443C49.1914 19.0833 49.459 18.8579 49.6562 18.5682C49.8575 18.2744 49.9581 17.9283 49.9581 17.5298C49.9581 17.0187 49.779 16.5901 49.4208 16.244C49.0626 15.8978 48.5132 15.7248 47.7727 15.7248H45.2251V19.4858ZM60.2118 22.6552V17.228H62.0229V26.5007H60.248V24.8949H60.1514C59.9381 25.3899 59.596 25.8024 59.1251 26.1324C58.6583 26.4584 58.0767 26.6214 57.3805 26.6214C56.7848 26.6214 56.2576 26.4906 55.7988 26.229C55.344 25.9634 54.9858 25.571 54.7242 25.0518C54.4667 24.5327 54.3379 23.8907 54.3379 23.1261V17.228H56.1429V22.9087C56.1429 23.5406 56.318 24.0437 56.6681 24.418C57.0183 24.7922 57.473 24.9794 58.0325 24.9794C58.3705 24.9794 58.7066 24.8949 59.0406 24.7258C59.3787 24.5568 59.6584 24.3012 59.8798 23.9591C60.1051 23.6171 60.2158 23.1824 60.2118 22.6552ZM64.4482 26.5007V17.228H66.2533V26.5007H64.4482ZM65.3598 15.7972C65.0459 15.7972 64.7762 15.6926 64.5508 15.4833C64.3295 15.27 64.2188 15.0164 64.2188 14.7226C64.2188 14.4248 64.3295 14.1713 64.5508 13.962C64.7762 13.7487 65.0459 13.642 65.3598 13.642C65.6737 13.642 65.9413 13.7487 66.1627 13.962C66.3881 14.1713 66.5008 14.4248 66.5008 14.7226C66.5008 15.0164 66.3881 15.27 66.1627 15.4833C65.9413 15.6926 65.6737 15.7972 65.3598 15.7972ZM70.4867 14.1371V26.5007H68.6816V14.1371H70.4867ZM77.2435 17.228V18.6768H72.1785V17.228H77.2435ZM73.5368 15.0064H75.3419V23.778C75.3419 24.1282 75.3942 24.3918 75.4988 24.5689C75.6035 24.7419 75.7383 24.8607 75.9033 24.9251C76.0723 24.9854 76.2554 25.0156 76.4526 25.0156C76.5975 25.0156 76.7243 25.0056 76.833 24.9854C76.9416 24.9653 77.0262 24.9492 77.0865 24.9371L77.4125 26.4283C77.3079 26.4685 77.159 26.5087 76.9658 26.549C76.7726 26.5933 76.5311 26.6174 76.2414 26.6214C75.7664 26.6295 75.3237 26.545 74.9132 26.3679C74.5027 26.1908 74.1707 25.9171 73.9171 25.5469C73.6636 25.1766 73.5368 24.7118 73.5368 24.1523V15.0064ZM85.7495 26.5007L83.0208 17.228H84.8862L86.7034 24.0376H86.7939L88.6171 17.228H90.4825L92.2936 24.0074H92.3841L94.1891 17.228H96.0546L93.3319 26.5007H91.4906L89.6071 19.8057H89.4683L87.5847 26.5007H85.7495ZM97.7675 26.5007V17.228H99.5726V26.5007H97.7675ZM98.6791 15.7972C98.3652 15.7972 98.0955 15.6926 97.8702 15.4833C97.6488 15.27 97.5381 15.0164 97.5381 14.7226C97.5381 14.4248 97.6488 14.1713 97.8702 13.962C98.0955 13.7487 98.3652 13.642 98.6791 13.642C98.993 13.642 99.2607 13.7487 99.482 13.962C99.7074 14.1713 99.8201 14.4248 99.8201 14.7226C99.8201 15.0164 99.7074 15.27 99.482 15.4833C99.2607 15.6926 98.993 15.7972 98.6791 15.7972ZM106.329 17.228V18.6768H101.264V17.228H106.329ZM102.623 15.0064H104.428V23.778C104.428 24.1282 104.48 24.3918 104.585 24.5689C104.689 24.7419 104.824 24.8607 104.989 24.9251C105.158 24.9854 105.341 25.0156 105.539 25.0156C105.683 25.0156 105.81 25.0056 105.919 24.9854C106.028 24.9653 106.112 24.9492 106.172 24.9371L106.498 26.4283C106.394 26.4685 106.245 26.5087 106.052 26.549C105.859 26.5933 105.617 26.6174 105.327 26.6214C104.852 26.6295 104.41 26.545 103.999 26.3679C103.589 26.1908 103.257 25.9171 103.003 25.5469C102.75 25.1766 102.623 24.7118 102.623 24.1523V15.0064ZM110.33 20.995V26.5007H108.525V14.1371H110.306V18.7372H110.421C110.638 18.2382 110.97 17.8417 111.417 17.5479C111.864 17.2541 112.447 17.1072 113.168 17.1072C113.804 17.1072 114.359 17.238 114.834 17.4996C115.313 17.7612 115.683 18.1516 115.945 18.6708C116.21 19.1859 116.343 19.8299 116.343 20.6026V26.5007H114.538V20.8199C114.538 20.1398 114.363 19.6126 114.013 19.2383C113.663 18.86 113.176 18.6708 112.552 18.6708C112.125 18.6708 111.743 18.7614 111.405 18.9425C111.071 19.1236 110.807 19.3892 110.614 19.7393C110.425 20.0855 110.33 20.504 110.33 20.995Z" fill="#E8E8E8"/>
<path d="M127.507 26.5007H122.937V14.1371H127.501C128.761 14.1371 129.845 14.3846 130.755 14.8796C131.669 15.3706 132.373 16.0789 132.868 17.0046C133.363 17.9262 133.61 19.029 133.61 20.3128C133.61 21.6007 133.363 22.7075 132.868 23.6332C132.377 24.5588 131.675 25.2692 130.761 25.7642C129.847 26.2552 128.763 26.5007 127.507 26.5007ZM125.925 23.9531H127.392C128.085 23.9531 128.67 23.8364 129.149 23.603C129.632 23.3655 129.996 22.9812 130.242 22.4499C130.491 21.9146 130.616 21.2023 130.616 20.3128C130.616 19.4234 130.491 18.7151 130.242 18.1878C129.992 17.6566 129.624 17.2743 129.137 17.0408C128.654 16.8034 128.058 16.6846 127.35 16.6846H125.925V23.9531ZM137.969 26.6577C137.377 26.6577 136.852 26.5591 136.393 26.3618C135.939 26.1606 135.578 25.8588 135.313 25.4563C135.051 25.0498 134.92 24.5407 134.92 23.929C134.92 23.4138 135.011 22.9792 135.192 22.625C135.373 22.2708 135.623 21.9831 135.941 21.7617C136.259 21.5404 136.625 21.3733 137.039 21.2606C137.454 21.1439 137.897 21.0654 138.367 21.0252C138.895 20.9769 139.319 20.9266 139.641 20.8743C139.963 20.8179 140.197 20.7395 140.342 20.6388C140.49 20.5342 140.565 20.3873 140.565 20.1981V20.168C140.565 19.8581 140.458 19.6186 140.245 19.4496C140.032 19.2805 139.744 19.196 139.382 19.196C138.991 19.196 138.677 19.2805 138.44 19.4496C138.202 19.6186 138.052 19.852 137.987 20.1498L135.265 20.0533C135.345 19.4898 135.552 18.9867 135.886 18.544C136.224 18.0973 136.687 17.7471 137.275 17.4936C137.866 17.236 138.577 17.1072 139.406 17.1072C139.997 17.1072 140.543 17.1777 141.042 17.3185C141.541 17.4554 141.976 17.6566 142.346 17.9222C142.716 18.1838 143.002 18.5058 143.203 18.8881C143.408 19.2705 143.511 19.7071 143.511 20.1981V26.5007H140.734V25.2088H140.662C140.497 25.5227 140.285 25.7883 140.028 26.0057C139.774 26.223 139.474 26.386 139.128 26.4947C138.786 26.6033 138.4 26.6577 137.969 26.6577ZM138.881 24.7258C139.199 24.7258 139.484 24.6614 139.738 24.5327C139.995 24.4039 140.201 24.2268 140.354 24.0014C140.507 23.772 140.583 23.5064 140.583 23.2045V22.3231C140.499 22.3674 140.396 22.4077 140.275 22.4439C140.158 22.4801 140.03 22.5143 139.889 22.5465C139.748 22.5787 139.603 22.6069 139.454 22.631C139.305 22.6552 139.162 22.6773 139.026 22.6974C138.748 22.7417 138.51 22.8101 138.313 22.9027C138.12 22.9953 137.971 23.116 137.866 23.2649C137.766 23.4098 137.716 23.5828 137.716 23.7841C137.716 24.0899 137.824 24.3234 138.041 24.4844C138.263 24.6453 138.543 24.7258 138.881 24.7258ZM145.316 26.5007V17.228H148.184V18.9183H148.28C148.449 18.3066 148.725 17.8518 149.107 17.554C149.49 17.2521 149.934 17.1012 150.441 17.1012C150.578 17.1012 150.719 17.1113 150.864 17.1314C151.009 17.1475 151.144 17.1736 151.268 17.2099V19.7756C151.128 19.7273 150.942 19.689 150.713 19.6609C150.488 19.6327 150.286 19.6186 150.109 19.6186C149.759 19.6186 149.443 19.6971 149.162 19.854C148.884 20.007 148.664 20.2223 148.503 20.5C148.347 20.7737 148.268 21.0956 148.268 21.4659V26.5007H145.316ZM158.137 17.228V19.4013H152.287V17.228H158.137ZM153.513 15.0064H156.465V23.5849C156.465 23.766 156.493 23.9129 156.549 24.0256C156.61 24.1342 156.696 24.2127 156.809 24.261C156.921 24.3053 157.056 24.3274 157.213 24.3274C157.326 24.3274 157.445 24.3173 157.569 24.2972C157.698 24.2731 157.795 24.2529 157.859 24.2368L158.306 26.3679C158.165 26.4081 157.966 26.4584 157.708 26.5188C157.455 26.5792 157.151 26.6174 156.797 26.6335C156.104 26.6657 155.511 26.5852 155.016 26.392C154.525 26.1948 154.149 25.889 153.887 25.4744C153.629 25.0599 153.505 24.5387 153.513 23.9109V15.0064Z" fill="#2BB7F6"/>
</g>
<defs>
<filter id="filter0_d_1_56" x="2.39972" y="0.39972" width="39.202" height="39.202" filterUnits="userSpaceOnUse" color-interpolation-filters="sRGB">
<feFlood flood-opacity="0" result="BackgroundImageFix"/>
<feColorMatrix in="SourceAlpha" type="matrix" values="0 0 0 0 0 0 0 0 0 0 0 0 0 0 0 0 0 0 127 0" result="hardAlpha"/>
<feOffset/>
<feGaussianBlur stdDeviation="2.80014"/>
<feComposite in2="hardAlpha" operator="out"/>
<feColorMatrix type="matrix" values="0 0 0 0 0 0 0 0 0 0 0 0 0 0 0 0 0 0 0.25 0"/>
<feBlend mode="normal" in2="BackgroundImageFix" result="effect1_dropShadow_1_56"/>
<feBlend mode="normal" in="SourceGraphic" in2="effect1_dropShadow_1_56" result="shape"/>
</filter>
<filter id="filter1_d_1_56" x="36.2871" y="3.78642" width="128.429" height="32.4286" filterUnits="userSpaceOnUse" color-interpolation-filters="sRGB">
<feFlood flood-opacity="0" result="BackgroundImageFix"/>
<feColorMatrix in="SourceAlpha" type="matrix" values="0 0 0 0 0 0 0 0 0 0 0 0 0 0 0 0 0 0 127 0" result="hardAlpha"/>
<feOffset/>
<feGaussianBlur stdDeviation="2.85714"/>
<feComposite in2="hardAlpha" operator="out"/>
<feColorMatrix type="matrix" values="0 0 0 0 0 0 0 0 0 0 0 0 0 0 0 0 0 0 0.25 0"/>
<feBlend mode="normal" in2="BackgroundImageFix" result="effect1_dropShadow_1_56"/>
<feBlend mode="normal" in="SourceGraphic" in2="effect1_dropShadow_1_56" result="shape"/>
</filter>
<linearGradient id="paint0_linear_1_56" x1="83.5007" y1="0" x2="83.5007" y2="40.0014" gradientUnits="userSpaceOnUse">
<stop stop-color="#06628B"/>
<stop offset="1" stop-color="#023E6D"/>
</linearGradient>
<radialGradient id="paint1_radial_1_56" cx="0" cy="0" r="1" gradientUnits="userSpaceOnUse" gradientTransform="translate(22 19.9993) scale(13.9979 14.001)">
<stop stop-color="white" stop-opacity="0.1"/>
<stop offset="1" stop-color="white" stop-opacity="0"/>
</radialGradient>
</defs>
</svg>
