<svg width="144" height="56" viewBox="0 0 144 56" fill="none" xmlns="http://www.w3.org/2000/svg">
<rect width="144" height="56" rx="8" fill="url(#paint0_linear_1_50)"/>
<rect x="1.05" y="1.05" width="141.9" height="53.9" rx="6.95" stroke="white" stroke-opacity="0.15" stroke-width="2.1"/>
<g filter="url(#filter0_d_1_50)">
<path d="M20.1557 39.8396L13.3162 32.9985C12.5053 32.164 12 30.9885 12 29.8396C12 29.3077 12.2997 28.476 12.5259 27.9971L18.8395 14.841L20.1557 39.8396Z" fill="#01579B"/>
<path d="M43.5711 16.1575L36.7316 9.31649C36.1352 8.71701 34.8895 8 33.8377 8C32.9328 8 32.0455 8.18219 31.4697 8.52601L18.8425 14.841L43.5711 16.1575Z" fill="#40C4FF"/>
<path d="M28.3114 47.9971H44.8873V40.8916L32.5215 36.945L21.2104 40.8916L28.3114 47.9971Z" fill="#40C4FF"/>
<path d="M18.8425 36.1575C18.8425 38.2674 19.1069 38.7875 20.1587 39.8425L21.2104 40.8945H44.8873L33.3118 27.7385L18.8425 14.844V36.1575Z" fill="#29B6F6"/>
<path d="M39.8869 14.841H18.8395L44.8843 40.8916H51.9882V24.5765L43.5711 16.1575C42.39 14.9703 41.3382 14.841 39.8869 14.841Z" fill="#01579B"/>
<path opacity="0.2" d="M20.4201 40.104C19.3683 39.0461 19.1039 38.0059 19.1039 36.1575V15.1055L18.8395 14.841V36.1546C18.8425 38.0059 18.8425 38.5172 20.4201 40.104Z" fill="white"/>
<path opacity="0.2" d="M51.7268 24.315V40.63H44.6228L44.8873 40.8916H51.9912V24.5795L51.7268 24.315Z" fill="#263238"/>
<path opacity="0.2" d="M43.5711 16.1572C42.2666 14.8528 41.1972 14.841 39.6254 14.841H18.8425L19.1069 15.1054H39.6284C40.4099 15.1054 42.393 14.9732 43.5711 16.1572Z" fill="white"/>
<path opacity="0.2" d="M51.7268 24.315L43.5711 16.1575L36.7315 9.31649C36.1351 8.71701 34.8895 8 33.8377 8C32.9328 8 32.0455 8.18219 31.4697 8.52601L18.8425 14.841L12.5288 27.9971C12.3026 28.476 12.0029 29.3077 12.0029 29.8396C12.0029 30.9885 12.5083 32.164 13.3191 32.9985L19.6239 39.2577C19.7738 39.4428 19.9501 39.6309 20.1616 39.8396L20.426 40.104L21.2163 40.8945L28.0558 47.7355L28.3202 48H44.6317H44.8961V40.8945H52V40.8769V24.5795L51.7268 24.315Z" fill="url(#paint1_radial_1_50)"/>
</g>
<g filter="url(#filter1_d_1_50)">
<path d="M61.2784 24.5V12.8636H65.5398C66.3655 12.8636 67.0492 13 67.5909 13.2727C68.1326 13.5417 68.5379 13.9072 68.8068 14.3693C69.0757 14.8276 69.2102 15.3447 69.2102 15.9204C69.2102 16.4053 69.1212 16.8144 68.9432 17.1477C68.7651 17.4773 68.5265 17.7424 68.2273 17.9432C67.9318 18.1401 67.606 18.2841 67.25 18.375V18.4886C67.6363 18.5076 68.0132 18.6326 68.3807 18.8636C68.7519 19.0909 69.0587 19.4148 69.3011 19.8352C69.5435 20.2557 69.6648 20.767 69.6648 21.3693C69.6648 21.964 69.5246 22.4981 69.2443 22.9716C68.9678 23.4413 68.5398 23.8144 67.9602 24.0909C67.3807 24.3636 66.6401 24.5 65.7386 24.5H61.2784ZM63.0341 22.9943H65.5682C66.4091 22.9943 67.0113 22.8314 67.375 22.5057C67.7386 22.1799 67.9204 21.7727 67.9204 21.2841C67.9204 20.9167 67.8276 20.5795 67.642 20.2727C67.4564 19.9659 67.1913 19.7216 66.8466 19.5398C66.5057 19.3579 66.1004 19.267 65.6307 19.267H63.0341V22.9943ZM63.0341 17.8977H65.3863C65.7803 17.8977 66.1345 17.822 66.4488 17.6704C66.767 17.5189 67.0189 17.3068 67.2045 17.0341C67.3939 16.7576 67.4886 16.4318 67.4886 16.0568C67.4886 15.5758 67.3201 15.1723 66.9829 14.8466C66.6458 14.5208 66.1288 14.3579 65.4318 14.3579H63.0341V17.8977ZM77.1392 20.8807V15.7727H78.8437V24.5H77.1733V22.9886H77.0824C76.8816 23.4545 76.5596 23.8428 76.1165 24.1534C75.6771 24.4602 75.1297 24.6136 74.4744 24.6136C73.9138 24.6136 73.4176 24.4905 72.9858 24.2443C72.5577 23.9943 72.2206 23.625 71.9744 23.1364C71.732 22.6477 71.6108 22.0436 71.6108 21.3239V15.7727H73.3096V21.1193C73.3096 21.714 73.4744 22.1875 73.804 22.5398C74.1335 22.892 74.5615 23.0682 75.088 23.0682C75.4062 23.0682 75.7225 22.9886 76.0369 22.8295C76.3551 22.6704 76.6184 22.4299 76.8267 22.1079C77.0388 21.786 77.143 21.3769 77.1392 20.8807ZM81.1264 24.5V15.7727H82.8253V24.5H81.1264ZM81.9844 14.4261C81.6889 14.4261 81.4351 14.3276 81.223 14.1307C81.0147 13.9299 80.9105 13.6913 80.9105 13.4148C80.9105 13.1345 81.0147 12.8958 81.223 12.6989C81.4351 12.4981 81.6889 12.3977 81.9844 12.3977C82.2798 12.3977 82.5317 12.4981 82.74 12.6989C82.9522 12.8958 83.0582 13.1345 83.0582 13.4148C83.0582 13.6913 82.9522 13.9299 82.74 14.1307C82.5317 14.3276 82.2798 14.4261 81.9844 14.4261ZM86.8096 12.8636V24.5H85.1108V12.8636H86.8096ZM93.169 15.7727V17.1364H88.402V15.7727H93.169ZM89.6804 13.6818H91.3792V21.9375C91.3792 22.267 91.4285 22.5151 91.527 22.6818C91.6254 22.8447 91.7523 22.9564 91.9076 23.017C92.0667 23.0739 92.2391 23.1023 92.4247 23.1023C92.5611 23.1023 92.6804 23.0928 92.7826 23.0739C92.8849 23.0549 92.9645 23.0398 93.0213 23.0284L93.3281 24.4318C93.2296 24.4697 93.0895 24.5076 92.9076 24.5454C92.7258 24.5871 92.4986 24.6098 92.2258 24.6136C91.7789 24.6212 91.3622 24.5417 90.9758 24.375C90.5895 24.2083 90.277 23.9508 90.0383 23.6023C89.7997 23.2538 89.6804 22.8163 89.6804 22.2898V13.6818ZM101.175 24.5L98.6065 15.7727H100.362L102.072 22.1818H102.158L103.874 15.7727H105.629L107.334 22.1534H107.419L109.118 15.7727H110.874L108.311 24.5H106.578L104.805 18.1989H104.675L102.902 24.5H101.175ZM112.486 24.5V15.7727H114.185V24.5H112.486ZM113.344 14.4261C113.048 14.4261 112.794 14.3276 112.582 14.1307C112.374 13.9299 112.27 13.6913 112.27 13.4148C112.27 13.1345 112.374 12.8958 112.582 12.6989C112.794 12.4981 113.048 12.3977 113.344 12.3977C113.639 12.3977 113.891 12.4981 114.099 12.6989C114.312 12.8958 114.418 13.1345 114.418 13.4148C114.418 13.6913 114.312 13.9299 114.099 14.1307C113.891 14.3276 113.639 14.4261 113.344 14.4261ZM120.544 15.7727V17.1364H115.777V15.7727H120.544ZM117.055 13.6818H118.754V21.9375C118.754 22.267 118.803 22.5151 118.902 22.6818C119 22.8447 119.127 22.9564 119.283 23.017C119.442 23.0739 119.614 23.1023 119.8 23.1023C119.936 23.1023 120.055 23.0928 120.158 23.0739C120.26 23.0549 120.339 23.0398 120.396 23.0284L120.703 24.4318C120.605 24.4697 120.464 24.5076 120.283 24.5454C120.101 24.5871 119.874 24.6098 119.601 24.6136C119.154 24.6212 118.737 24.5417 118.351 24.375C117.964 24.2083 117.652 23.9508 117.413 23.6023C117.175 23.2538 117.055 22.8163 117.055 22.2898V13.6818ZM124.31 19.3182V24.5H122.611V12.8636H124.287V17.1932H124.395C124.599 16.7235 124.912 16.3504 125.332 16.0739C125.753 15.7973 126.302 15.6591 126.98 15.6591C127.579 15.6591 128.101 15.7822 128.548 16.0284C128.999 16.2746 129.348 16.642 129.594 17.1307C129.844 17.6155 129.969 18.2216 129.969 18.9489V24.5H128.27V19.1534C128.27 18.5133 128.105 18.017 127.776 17.6648C127.446 17.3087 126.988 17.1307 126.401 17.1307C125.999 17.1307 125.639 17.2159 125.321 17.3864C125.007 17.5568 124.758 17.8068 124.577 18.1364C124.399 18.4621 124.31 18.8561 124.31 19.3182Z" fill="#E8E8E8"/>
<path d="M65.5057 43.5H60.9357V31.1364H65.4996C66.7593 31.1364 67.844 31.3839 68.7535 31.8789C69.6671 32.3699 70.3714 33.0782 70.8665 34.0039C71.3615 34.9255 71.609 36.0283 71.609 37.3121C71.609 38.6 71.3615 39.7068 70.8665 40.6324C70.3755 41.5581 69.6732 42.2685 68.7596 42.7635C67.846 43.2545 66.7613 43.5 65.5057 43.5ZM63.924 40.9524H65.391C66.0832 40.9524 66.6688 40.8357 67.1477 40.6023C67.6307 40.3648 67.9949 39.9805 68.2404 39.4492C68.4899 38.9139 68.6147 38.2016 68.6147 37.3121C68.6147 36.4227 68.4899 35.7144 68.2404 35.1871C67.9909 34.6559 67.6226 34.2735 67.1356 34.0401C66.6527 33.8027 66.057 33.6839 65.3487 33.6839H63.924V40.9524ZM75.9677 43.6569C75.376 43.6569 74.8508 43.5583 74.392 43.3611C73.9372 43.1599 73.577 42.8581 73.3114 42.4556C73.0498 42.0491 72.919 41.54 72.919 40.9283C72.919 40.4131 73.0096 39.9784 73.1907 39.6243C73.3718 39.2701 73.6213 38.9824 73.9393 38.761C74.2572 38.5396 74.6234 38.3726 75.038 38.2599C75.4525 38.1432 75.8952 38.0647 76.3661 38.0245C76.8933 37.9762 77.3179 37.9259 77.6399 37.8736C77.9619 37.8172 78.1953 37.7387 78.3402 37.6381C78.4891 37.5335 78.5635 37.3866 78.5635 37.1974V37.1672C78.5635 36.8574 78.4569 36.6179 78.2436 36.4489C78.0303 36.2798 77.7425 36.1953 77.3803 36.1953C76.9899 36.1953 76.676 36.2798 76.4385 36.4489C76.2011 36.6179 76.0502 36.8513 75.9858 37.1491L73.2631 37.0525C73.3436 36.4891 73.5509 35.986 73.8849 35.5433C74.223 35.0966 74.6858 34.7464 75.2734 34.4929C75.865 34.2353 76.5754 34.1065 77.4045 34.1065C77.9961 34.1065 78.5414 34.177 79.0405 34.3178C79.5395 34.4547 79.9742 34.6559 80.3444 34.9215C80.7147 35.1831 81.0005 35.5051 81.2017 35.8874C81.4069 36.2698 81.5096 36.7064 81.5096 37.1974V43.5H78.7326V42.2081H78.6601C78.4951 42.522 78.2838 42.7876 78.0263 43.005C77.7727 43.2223 77.4729 43.3853 77.1268 43.494C76.7847 43.6026 76.3983 43.6569 75.9677 43.6569ZM76.8792 41.7251C77.1972 41.7251 77.4829 41.6607 77.7365 41.5319C77.9941 41.4032 78.1993 41.2261 78.3523 41.0007C78.5052 40.7713 78.5817 40.5057 78.5817 40.2038V39.3224C78.4971 39.3667 78.3945 39.4069 78.2738 39.4432C78.1571 39.4794 78.0283 39.5136 77.8874 39.5458C77.7465 39.578 77.6017 39.6062 77.4527 39.6303C77.3038 39.6545 77.161 39.6766 77.0241 39.6967C76.7464 39.741 76.509 39.8094 76.3118 39.902C76.1186 39.9945 75.9697 40.1153 75.865 40.2642C75.7644 40.4091 75.7141 40.5821 75.7141 40.7834C75.7141 41.0892 75.8228 41.3227 76.0401 41.4837C76.2615 41.6446 76.5412 41.7251 76.8792 41.7251ZM83.3146 43.5V34.2273H86.1822V35.9176H86.2787C86.4478 35.3059 86.7235 34.8511 87.1058 34.5533C87.4881 34.2514 87.9329 34.1005 88.44 34.1005C88.5768 34.1005 88.7177 34.1105 88.8625 34.1307C89.0074 34.1468 89.1423 34.1729 89.267 34.2092V36.7748C89.1262 36.7266 88.941 36.6883 88.7116 36.6601C88.4862 36.632 88.285 36.6179 88.1079 36.6179C87.7578 36.6179 87.4419 36.6964 87.1601 36.8533C86.8824 37.0063 86.6631 37.2216 86.5021 37.4993C86.3451 37.773 86.2667 38.0949 86.2667 38.4652V43.5H83.3146ZM96.1355 34.2273V36.4006H90.2858V34.2273H96.1355ZM91.5113 32.0057H94.4633V40.5842C94.4633 40.7653 94.4915 40.9122 94.5478 41.0248C94.6082 41.1335 94.6947 41.212 94.8074 41.2603C94.9201 41.3046 95.0549 41.3267 95.2119 41.3267C95.3246 41.3267 95.4433 41.3166 95.5681 41.2965C95.6969 41.2724 95.7934 41.2522 95.8578 41.2361L96.3046 43.3672C96.1637 43.4074 95.9645 43.4577 95.7069 43.5181C95.4534 43.5785 95.1495 43.6167 94.7953 43.6328C94.1031 43.665 93.5095 43.5845 93.0144 43.3913C92.5234 43.1941 92.1471 42.8882 91.8855 42.4737C91.628 42.0592 91.5032 41.538 91.5113 40.9101V32.0057Z" fill="#2BB7F6"/>
</g>
<defs>
<filter id="filter0_d_1_50" x="6.28571" y="2.28571" width="51.4286" height="51.4286" filterUnits="userSpaceOnUse" color-interpolation-filters="sRGB">
<feFlood flood-opacity="0" result="BackgroundImageFix"/>
<feColorMatrix in="SourceAlpha" type="matrix" values="0 0 0 0 0 0 0 0 0 0 0 0 0 0 0 0 0 0 127 0" result="hardAlpha"/>
<feOffset/>
<feGaussianBlur stdDeviation="2.85714"/>
<feComposite in2="hardAlpha" operator="out"/>
<feColorMatrix type="matrix" values="0 0 0 0 0 0 0 0 0 0 0 0 0 0 0 0 0 0 0.25 0"/>
<feBlend mode="normal" in2="BackgroundImageFix" result="effect1_dropShadow_1_50"/>
<feBlend mode="normal" in="SourceGraphic" in2="effect1_dropShadow_1_50" result="shape"/>
</filter>
<filter id="filter1_d_1_50" x="54.4" y="3.9" width="83.2" height="48.2" filterUnits="userSpaceOnUse" color-interpolation-filters="sRGB">
<feFlood flood-opacity="0" result="BackgroundImageFix"/>
<feColorMatrix in="SourceAlpha" type="matrix" values="0 0 0 0 0 0 0 0 0 0 0 0 0 0 0 0 0 0 127 0" result="hardAlpha"/>
<feOffset/>
<feGaussianBlur stdDeviation="2.8"/>
<feComposite in2="hardAlpha" operator="out"/>
<feColorMatrix type="matrix" values="0 0 0 0 0 0 0 0 0 0 0 0 0 0 0 0 0 0 0.25 0"/>
<feBlend mode="normal" in2="BackgroundImageFix" result="effect1_dropShadow_1_50"/>
<feBlend mode="normal" in="SourceGraphic" in2="effect1_dropShadow_1_50" result="shape"/>
</filter>
<linearGradient id="paint0_linear_1_50" x1="72" y1="0" x2="72" y2="56" gradientUnits="userSpaceOnUse">
<stop stop-color="#06628B"/>
<stop offset="1" stop-color="#023E6D"/>
</linearGradient>
<radialGradient id="paint1_radial_1_50" cx="0" cy="0" r="1" gradientUnits="userSpaceOnUse" gradientTransform="translate(32 27.9989) scale(19.9971 20.0015)">
<stop stop-color="white" stop-opacity="0.1"/>
<stop offset="1" stop-color="white" stop-opacity="0"/>
</radialGradient>
</defs>
</svg>
