<svg width="375" height="40" viewBox="0 0 375 40" fill="none" xmlns="http://www.w3.org/2000/svg">
<rect width="375.001" height="40.0014" rx="8" fill="url(#paint0_linear_1_56)"/>
<rect x="1.07143" y="1.07143" width="372.858" height="37.8585" rx="6.92857" stroke="white" stroke-opacity="0.15" stroke-width="2.14286"/>
<g filter="url(#filter0_d_1_56)">
<path d="M22.7618 6.79543C23.1635 6.56102 23.6203 6.4375 24.0854 6.4375C24.5505 6.4375 25.0073 6.56102 25.409 6.79543L25.4172 6.8001L33.5337 11.7888C33.9334 12.023 34.265 12.3577 34.4954 12.7596C34.7259 13.1616 34.8472 13.6168 34.8473 14.0801V22.8488C34.8473 23.7938 34.3433 24.6688 33.5255 25.1448L33.5232 25.1459L19.5652 33.3558L19.5605 33.3593C18.7368 33.8376 17.7195 33.8376 16.8958 33.3593L16.8655 33.3418L9.27867 28.0894C8.88827 27.8538 8.5654 27.5213 8.34136 27.1241C8.11733 26.7269 7.99974 26.2786 8 25.8226V17.0108C8 16.5534 8.11667 16.1124 8.33133 15.7274L8.33483 15.7204L8.35117 15.6901C8.581 15.2911 8.91117 14.9586 9.30783 14.7253H9.31017L22.7618 6.79543ZM23.645 8.30627H23.6438L10.5072 16.0518L17.7965 21.0066C17.9326 21.0806 18.0853 21.1183 18.2402 21.1163C18.395 21.1142 18.5468 21.0724 18.6808 20.9949L32.2538 13.0569L24.52 8.30393C24.3867 8.22767 24.2356 8.18784 24.082 8.18846C23.9284 8.18907 23.7777 8.2301 23.645 8.30743V8.30627ZM17.3543 22.7181C17.1952 22.6627 17.0417 22.5924 16.8958 22.5081L16.869 22.4918L9.75 17.6536V25.8238C9.75 26.1446 9.91917 26.4398 10.1922 26.5984L10.2213 26.6148L17.3543 31.5521V22.7181ZM28.4178 17.3269L24.6262 19.5436V28.3496L28.4178 26.1189V17.3269ZM19.5628 22.5046L19.5605 22.5069C19.4154 22.5911 19.2626 22.6614 19.1043 22.7169V31.5976L22.8762 29.3786V20.5679L19.5628 22.5046ZM30.1678 16.3026V25.0899L32.6458 23.6316C32.7831 23.5521 32.897 23.4379 32.9762 23.3005C33.0555 23.1632 33.0972 23.0074 33.0973 22.8488V14.5899L30.1678 16.3026Z" fill="white"/>
</g>
<g filter="url(#filter1_d_1_56)">
<path d="M44.4041 26.5007H42.424L46.8732 14.1371H49.0284L53.4776 26.5007H51.4975L48.0021 16.3828H47.9055L44.4041 26.5007ZM44.7361 21.6591H51.1594V23.2287H44.7361V21.6591ZM61.8886 17.228L58.526 26.5007H56.5942L53.2256 17.228H55.1634L57.5118 24.3636H57.6084L59.9507 17.228H61.8886ZM66.0178 26.706C65.4302 26.706 64.899 26.5973 64.4241 26.38C63.9492 26.1586 63.5729 25.8386 63.2952 25.4201C63.0215 25.0015 62.8846 24.4884 62.8846 23.8807C62.8846 23.3575 62.9853 22.9268 63.1865 22.5888C63.3877 22.2507 63.6594 21.9831 64.0015 21.7859C64.3436 21.5886 64.7259 21.4397 65.1485 21.3391C65.5711 21.2385 66.0017 21.162 66.4404 21.1097C66.9958 21.0453 67.4466 20.993 67.7927 20.9528C68.1388 20.9085 68.3903 20.8381 68.5473 20.7415C68.7042 20.6449 68.7827 20.4879 68.7827 20.2706V20.2283C68.7827 19.7011 68.6338 19.2926 68.336 19.0028C68.0422 18.7131 67.6035 18.5682 67.0199 18.5682C66.4122 18.5682 65.9333 18.703 65.5832 18.9726C65.237 19.2383 64.9976 19.5341 64.8648 19.8601L63.1684 19.4737C63.3696 18.9103 63.6634 18.4555 64.0498 18.1094C64.4402 17.7592 64.8889 17.5057 65.396 17.3487C65.9031 17.1877 66.4364 17.1072 66.9958 17.1072C67.3661 17.1072 67.7585 17.1515 68.173 17.24C68.5916 17.3246 68.9819 17.4815 69.3442 17.7109C69.7104 17.9403 70.0102 18.2683 70.2437 18.6949C70.4771 19.1175 70.5938 19.6669 70.5938 20.343V26.5007H68.831V25.2329H68.7586C68.6419 25.4664 68.4668 25.6958 68.2334 25.9212C67.9999 26.1465 67.7001 26.3337 67.3339 26.4826C66.9676 26.6315 66.5289 26.706 66.0178 26.706ZM66.4102 25.2571C66.9093 25.2571 67.3359 25.1585 67.69 24.9613C68.0482 24.7641 68.3199 24.5065 68.505 24.1886C68.6942 23.8666 68.7888 23.5225 68.7888 23.1562V21.9609C68.7244 22.0253 68.5996 22.0857 68.4145 22.142C68.2334 22.1944 68.0261 22.2406 67.7927 22.2809C67.5592 22.3171 67.3319 22.3513 67.1105 22.3835C66.8891 22.4117 66.704 22.4358 66.5551 22.456C66.205 22.5002 65.885 22.5747 65.5952 22.6793C65.3095 22.784 65.0801 22.9349 64.907 23.1321C64.738 23.3253 64.6535 23.5828 64.6535 23.9048C64.6535 24.3515 64.8185 24.6896 65.1485 24.919C65.4785 25.1444 65.8991 25.2571 66.4102 25.2571ZM72.998 26.5007V17.228H74.8031V26.5007H72.998ZM73.9096 15.7972C73.5957 15.7972 73.326 15.6926 73.1006 15.4833C72.8793 15.27 72.7686 15.0164 72.7686 14.7226C72.7686 14.4248 72.8793 14.1713 73.1006 13.962C73.326 13.7487 73.5957 13.642 73.9096 13.642C74.2235 13.642 74.4911 13.7487 74.7125 13.962C74.9379 14.1713 75.0506 14.4248 75.0506 14.7226C75.0506 15.0164 74.9379 15.27 74.7125 15.4833C74.4911 15.6926 74.2235 15.7972 73.9096 15.7972ZM79.0365 14.1371V26.5007H77.2314V14.1371H79.0365ZM84.1633 26.706C83.5757 26.706 83.0445 26.5973 82.5696 26.38C82.0947 26.1586 81.7184 25.8386 81.4407 25.4201C81.167 25.0015 81.0301 24.4884 81.0301 23.8807C81.0301 23.3575 81.1308 22.9268 81.332 22.5888C81.5332 22.2507 81.8049 21.9831 82.147 21.7859C82.4891 21.5886 82.8714 21.4397 83.294 21.3391C83.7166 21.2385 84.1472 21.162 84.5859 21.1097C85.1413 21.0453 85.5921 20.993 85.9382 20.9528C86.2843 20.9085 86.5358 20.8381 86.6928 20.7415C86.8497 20.6449 86.9282 20.4879 86.9282 20.2706V20.2283C86.9282 19.7011 86.7793 19.2926 86.4815 19.0028C86.1877 18.7131 85.749 18.5682 85.1654 18.5682C84.5577 18.5682 84.0788 18.703 83.7287 18.9726C83.3825 19.2383 83.1431 19.5341 83.0103 19.8601L81.3139 19.4737C81.5151 18.9103 81.8089 18.4555 82.1953 18.1094C82.5857 17.7592 83.0344 17.5057 83.5415 17.3487C84.0486 17.1877 84.5819 17.1072 85.1413 17.1072C85.5116 17.1072 85.904 17.1515 86.3185 17.24C86.7371 17.3246 87.1274 17.4815 87.4897 17.7109C87.8559 17.9403 88.1557 18.2683 88.3892 18.6949C88.6226 19.1175 88.7393 19.6669 88.7393 20.343V26.5007H86.9765V25.2329H86.9041C86.7874 25.4664 86.6123 25.6958 86.3789 25.9212C86.1454 26.1465 85.8456 26.3337 85.4794 26.4826C85.1131 26.6315 84.6744 26.706 84.1633 26.706ZM84.5557 25.2571C85.0548 25.2571 85.4814 25.1585 85.8355 24.9613C86.1937 24.7641 86.4654 24.5065 86.6505 24.1886C86.8397 23.8666 86.9343 23.5225 86.9343 23.1562V21.9609C86.8699 22.0253 86.7451 22.0857 86.56 22.142C86.3789 22.1944 86.1716 22.2406 85.9382 22.2809C85.7047 22.3171 85.4774 22.3513 85.256 22.3835C85.0346 22.4117 84.8495 22.4358 84.7006 22.456C84.3505 22.5002 84.0305 22.5747 83.7407 22.6793C83.455 22.784 83.2256 22.9349 83.0525 23.1321C82.8835 23.3253 82.799 23.5828 82.799 23.9048C82.799 24.3515 82.964 24.6896 83.294 24.919C83.624 25.1444 84.0446 25.2571 84.5557 25.2571ZM91.2884 26.5007V14.1371H93.0934V18.7312H93.2021C93.3067 18.538 93.4577 18.3146 93.6549 18.0611C93.8521 17.8075 94.1258 17.5862 94.4759 17.397C94.826 17.2038 95.2889 17.1072 95.8644 17.1072C96.613 17.1072 97.2811 17.2964 97.8687 17.6747C98.4563 18.053 98.9171 18.5984 99.2511 19.3107C99.5892 20.0231 99.7582 20.8803 99.7582 21.8824C99.7582 22.8846 99.5912 23.7438 99.2571 24.4602C98.9231 25.1726 98.4643 25.7219 97.8807 26.1083C97.2972 26.4906 96.6311 26.6818 95.8825 26.6818C95.3191 26.6818 94.8582 26.5872 94.5 26.3981C94.1459 26.2089 93.8682 25.9876 93.667 25.734C93.4657 25.4805 93.3108 25.2551 93.2021 25.0579H93.0512V26.5007H91.2884ZM93.0572 21.8643C93.0572 22.5163 93.1518 23.0878 93.341 23.5788C93.5301 24.0698 93.8038 24.4542 94.162 24.7319C94.5202 25.0056 94.9589 25.1424 95.478 25.1424C96.0173 25.1424 96.4681 24.9995 96.8303 24.7138C97.1925 24.424 97.4662 24.0316 97.6513 23.5366C97.8405 23.0415 97.9351 22.4841 97.9351 21.8643C97.9351 21.2526 97.8425 20.7032 97.6574 20.2163C97.4763 19.7293 97.2026 19.3449 96.8363 19.0632C96.4741 18.7815 96.0214 18.6406 95.478 18.6406C94.9548 18.6406 94.5121 18.7754 94.1499 19.0451C93.7917 19.3147 93.5201 19.691 93.3349 20.174C93.1498 20.6569 93.0572 21.2204 93.0572 21.8643ZM103.59 14.1371V26.5007H101.785V14.1371H103.59ZM110.015 26.6878C109.101 26.6878 108.315 26.4926 107.655 26.1023C106.999 25.7078 106.491 25.1545 106.133 24.4421C105.779 23.7257 105.602 22.8866 105.602 21.9247C105.602 20.9749 105.779 20.1378 106.133 19.4133C106.491 18.6889 106.99 18.1234 107.63 17.717C108.274 17.3105 109.027 17.1072 109.888 17.1072C110.411 17.1072 110.918 17.1938 111.409 17.3668C111.9 17.5399 112.341 17.8115 112.732 18.1818C113.122 18.5521 113.43 19.033 113.655 19.6246C113.881 20.2122 113.993 20.9266 113.993 21.7677V22.4077H106.622V21.0554H112.224C112.224 20.5805 112.128 20.1599 111.935 19.7937C111.742 19.4234 111.47 19.1316 111.12 18.9183C110.774 18.705 110.367 18.5984 109.9 18.5984C109.393 18.5984 108.95 18.7231 108.572 18.9726C108.198 19.2181 107.908 19.5401 107.703 19.9386C107.502 20.333 107.401 20.7616 107.401 21.2244V22.2809C107.401 22.9007 107.51 23.4279 107.727 23.8626C107.948 24.2972 108.256 24.6292 108.651 24.8587C109.045 25.084 109.506 25.1967 110.033 25.1967C110.375 25.1967 110.687 25.1484 110.969 25.0518C111.251 24.9512 111.494 24.8023 111.699 24.6051C111.905 24.4079 112.061 24.1644 112.17 23.8746L113.879 24.1825C113.742 24.6856 113.496 25.1263 113.142 25.5046C112.792 25.8789 112.351 26.1707 111.82 26.38C111.293 26.5852 110.691 26.6878 110.015 26.6878ZM124.401 26.6878C123.532 26.6878 122.773 26.4886 122.125 26.0902C121.477 25.6917 120.974 25.1343 120.616 24.418C120.258 23.7016 120.079 22.8645 120.079 21.9066C120.079 20.9447 120.258 20.1036 120.616 19.3832C120.974 18.6627 121.477 18.1033 122.125 17.7049C122.773 17.3065 123.532 17.1072 124.401 17.1072C125.27 17.1072 126.029 17.3065 126.677 17.7049C127.325 18.1033 127.828 18.6627 128.186 19.3832C128.544 20.1036 128.723 20.9447 128.723 21.9066C128.723 22.8645 128.544 23.7016 128.186 24.418C127.828 25.1343 127.325 25.6917 126.677 26.0902C126.029 26.4886 125.27 26.6878 124.401 26.6878ZM124.407 25.1726C124.97 25.1726 125.437 25.0237 125.808 24.7258C126.178 24.428 126.452 24.0316 126.629 23.5366C126.81 23.0415 126.9 22.4962 126.9 21.9006C126.9 21.3089 126.81 20.7656 126.629 20.2706C126.452 19.7715 126.178 19.3711 125.808 19.0692C125.437 18.7674 124.97 18.6165 124.407 18.6165C123.84 18.6165 123.369 18.7674 122.994 19.0692C122.624 19.3711 122.348 19.7715 122.167 20.2706C121.99 20.7656 121.902 21.3089 121.902 21.9006C121.902 22.4962 121.99 23.0415 122.167 23.5366C122.348 24.0316 122.624 24.428 122.994 24.7258C123.369 25.0237 123.84 25.1726 124.407 25.1726ZM132.543 20.995V26.5007H130.738V17.228H132.471V18.7372H132.586C132.799 18.2462 133.133 17.8518 133.588 17.554C134.046 17.2561 134.624 17.1072 135.32 17.1072C135.952 17.1072 136.506 17.24 136.98 17.5057C137.455 17.7673 137.824 18.1577 138.085 18.6768C138.347 19.196 138.478 19.8379 138.478 20.6026V26.5007H136.673V20.8199C136.673 20.1478 136.497 19.6226 136.147 19.2443C135.797 18.862 135.316 18.6708 134.704 18.6708C134.286 18.6708 133.914 18.7614 133.588 18.9425C133.266 19.1236 133.01 19.3892 132.821 19.7393C132.636 20.0855 132.543 20.504 132.543 20.995Z" fill="#E8E8E8"/>
<path d="M153.051 17.6758C152.982 17.4222 152.882 17.1989 152.749 17.0057C152.616 16.8085 152.453 16.6414 152.26 16.5046C152.067 16.3678 151.845 16.2651 151.596 16.1967C151.346 16.1243 151.073 16.0881 150.775 16.0881C150.175 16.0881 149.656 16.2329 149.217 16.5227C148.783 16.8125 148.447 17.2351 148.209 17.7905C147.972 18.3418 147.853 19.0119 147.853 19.8008C147.853 20.5936 147.968 21.2698 148.197 21.8292C148.426 22.3886 148.758 22.8152 149.193 23.109C149.628 23.4028 150.155 23.5497 150.775 23.5497C151.322 23.5497 151.785 23.4612 152.163 23.2841C152.546 23.103 152.835 22.8474 153.033 22.5174C153.23 22.1874 153.328 21.799 153.328 21.3523L153.884 21.4187H150.877V19.2393H156.208V20.8753C156.208 21.9821 155.973 22.9299 155.502 23.7187C155.035 24.5076 154.391 25.1133 153.57 25.5359C152.753 25.9584 151.813 26.1697 150.751 26.1697C149.571 26.1697 148.535 25.9142 147.642 25.403C146.748 24.8919 146.052 24.1635 145.553 23.2177C145.054 22.2679 144.804 21.141 144.804 19.837C144.804 18.8228 144.955 17.9233 145.257 17.1385C145.559 16.3497 145.979 15.6816 146.519 15.1342C147.062 14.5869 147.69 14.1723 148.402 13.8906C149.119 13.6089 149.889 13.468 150.714 13.468C151.431 13.468 152.097 13.5707 152.713 13.7759C153.332 13.9812 153.88 14.2709 154.355 14.6452C154.834 15.0195 155.222 15.4642 155.52 15.9794C155.818 16.4945 156.003 17.06 156.075 17.6758H153.051ZM158.55 26.0007V16.728H161.502V26.0007H158.55ZM160.029 15.6474C159.615 15.6474 159.259 15.5105 158.961 15.2369C158.663 14.9592 158.514 14.6251 158.514 14.2347C158.514 13.8484 158.663 13.5183 158.961 13.2447C159.259 12.967 159.615 12.8281 160.029 12.8281C160.448 12.8281 160.804 12.967 161.098 13.2447C161.396 13.5183 161.545 13.8484 161.545 14.2347C161.545 14.6251 161.396 14.9592 161.098 15.2369C160.804 15.5105 160.448 15.6474 160.029 15.6474ZM168.615 16.728V18.9013H162.766V16.728H168.615ZM163.991 14.5064H166.943V23.0849C166.943 23.266 166.971 23.4129 167.028 23.5256C167.088 23.6342 167.175 23.7127 167.287 23.761C167.4 23.8053 167.535 23.8274 167.692 23.8274C167.804 23.8274 167.923 23.8173 168.048 23.7972C168.177 23.7731 168.273 23.7529 168.338 23.7368L168.784 25.8679C168.644 25.9081 168.444 25.9584 168.187 26.0188C167.933 26.0792 167.629 26.1174 167.275 26.1335C166.583 26.1657 165.989 26.0852 165.494 25.892C165.003 25.6948 164.627 25.389 164.365 24.9744C164.108 24.5599 163.983 24.0387 163.991 23.4109V14.5064ZM170.321 26.0007V13.6371H173.309V18.5994H178.181V13.6371H181.163V26.0007H178.181V21.0323H173.309V26.0007H170.321ZM189.02 21.9982V16.728H191.966V26.0007H189.153V24.2741H189.056C188.851 24.8416 188.501 25.2924 188.006 25.6264C187.515 25.9564 186.921 26.1214 186.225 26.1214C185.593 26.1214 185.038 25.9765 184.559 25.6868C184.08 25.397 183.708 24.9925 183.442 24.4734C183.177 23.9502 183.042 23.3384 183.038 22.6381V16.728H185.99V22.0586C185.994 22.5617 186.127 22.9581 186.388 23.2479C186.65 23.5376 187.006 23.6825 187.457 23.6825C187.751 23.6825 188.014 23.6181 188.248 23.4893C188.485 23.3565 188.672 23.1654 188.809 22.9158C188.95 22.6623 189.02 22.3564 189.02 21.9982ZM193.845 26.0007V13.6371H196.797V18.3157H196.858C196.978 18.034 197.149 17.7623 197.371 17.5007C197.596 17.2391 197.882 17.0258 198.228 16.8608C198.578 16.6918 198.997 16.6072 199.484 16.6072C200.128 16.6072 200.729 16.7763 201.289 17.1143C201.852 17.4524 202.307 17.9736 202.653 18.6779C202.999 19.3822 203.172 20.2797 203.172 21.3704C203.172 22.4208 203.005 23.3002 202.671 24.0085C202.341 24.7168 201.895 25.2481 201.331 25.6023C200.772 25.9564 200.15 26.1335 199.466 26.1335C198.999 26.1335 198.594 26.057 198.252 25.9041C197.91 25.7512 197.622 25.5499 197.389 25.3004C197.16 25.0509 196.982 24.7832 196.858 24.4975H196.767V26.0007H193.845ZM196.737 21.3643C196.737 21.8634 196.803 22.298 196.936 22.6683C197.073 23.0386 197.268 23.3263 197.522 23.5316C197.779 23.7328 198.087 23.8334 198.445 23.8334C198.808 23.8334 199.116 23.7328 199.369 23.5316C199.623 23.3263 199.814 23.0386 199.943 22.6683C200.075 22.298 200.142 21.8634 200.142 21.3643C200.142 20.8653 200.075 20.4326 199.943 20.0664C199.814 19.7002 199.623 19.4164 199.369 19.2152C199.12 19.014 198.812 18.9133 198.445 18.9133C198.083 18.9133 197.775 19.0119 197.522 19.2092C197.268 19.4064 197.073 19.6881 196.936 20.0543C196.803 20.4206 196.737 20.8572 196.737 21.3643ZM219.594 18.1165H216.576C216.536 17.8066 216.453 17.5269 216.328 17.2773C216.204 17.0278 216.039 16.8145 215.833 16.6374C215.628 16.4603 215.385 16.3255 215.103 16.2329C214.825 16.1364 214.517 16.0881 214.179 16.0881C213.58 16.0881 213.062 16.235 212.628 16.5288C212.197 16.8226 211.865 17.2471 211.632 17.8025C211.402 18.3579 211.287 19.0301 211.287 19.8189C211.287 20.6399 211.404 21.3281 211.638 21.8835C211.875 22.4349 212.207 22.8514 212.634 23.1332C213.064 23.4109 213.573 23.5497 214.161 23.5497C214.491 23.5497 214.791 23.5074 215.061 23.4229C215.334 23.3384 215.574 23.2157 215.779 23.0547C215.988 22.8897 216.159 22.6904 216.292 22.457C216.429 22.2196 216.524 21.9519 216.576 21.6541L219.594 21.6722C219.542 22.2196 219.383 22.7589 219.117 23.2901C218.856 23.8214 218.496 24.3063 218.037 24.745C217.578 25.1797 217.019 25.5258 216.359 25.7834C215.702 26.0409 214.95 26.1697 214.101 26.1697C212.982 26.1697 211.98 25.9242 211.094 25.4332C210.213 24.9382 209.517 24.2178 209.006 23.272C208.494 22.3262 208.239 21.1752 208.239 19.8189C208.239 18.4586 208.498 17.3055 209.018 16.3597C209.537 15.4139 210.239 14.6955 211.124 14.2045C212.01 13.7135 213.002 13.468 214.101 13.468C214.849 13.468 215.542 13.5727 216.177 13.782C216.813 13.9872 217.373 14.2891 217.856 14.6875C218.339 15.0819 218.731 15.5669 219.033 16.1424C219.335 16.7179 219.522 17.3759 219.594 18.1165ZM225.633 26.1758C224.659 26.1758 223.822 25.9765 223.121 25.5781C222.425 25.1757 221.888 24.6162 221.51 23.8998C221.135 23.1794 220.948 22.3443 220.948 21.3945C220.948 20.4407 221.135 19.6056 221.51 18.8892C221.888 18.1688 222.425 17.6094 223.121 17.2109C223.822 16.8085 224.659 16.6072 225.633 16.6072C226.607 16.6072 227.442 16.8085 228.138 17.2109C228.838 17.6094 229.376 18.1688 229.75 18.8892C230.128 19.6056 230.317 20.4407 230.317 21.3945C230.317 22.3443 230.128 23.1794 229.75 23.8998C229.376 24.6162 228.838 25.1757 228.138 25.5781C227.442 25.9765 226.607 26.1758 225.633 26.1758ZM225.651 23.9481C226.005 23.9481 226.305 23.8395 226.55 23.6221C226.796 23.4048 226.983 23.103 227.112 22.7166C227.245 22.3302 227.311 21.8835 227.311 21.3764C227.311 20.8613 227.245 20.4105 227.112 20.0241C226.983 19.6378 226.796 19.3359 226.55 19.1186C226.305 18.9013 226.005 18.7926 225.651 18.7926C225.285 18.7926 224.975 18.9013 224.721 19.1186C224.472 19.3359 224.28 19.6378 224.148 20.0241C224.019 20.4105 223.954 20.8613 223.954 21.3764C223.954 21.8835 224.019 22.3302 224.148 22.7166C224.28 23.103 224.472 23.4048 224.721 23.6221C224.975 23.8395 225.285 23.9481 225.651 23.9481ZM234.782 20.7123V26.0007H231.83V16.728H234.637V18.4304H234.739C234.945 17.8629 235.295 17.4182 235.79 17.0962C236.285 16.7702 236.875 16.6072 237.559 16.6072C238.211 16.6072 238.776 16.7541 239.255 17.0479C239.738 17.3377 240.112 17.7442 240.378 18.2674C240.648 18.7866 240.78 19.3943 240.776 20.0905V26.0007H237.824V20.6701C237.828 20.1549 237.698 19.7525 237.432 19.4627C237.17 19.1729 236.806 19.028 236.339 19.028C236.029 19.028 235.756 19.0965 235.518 19.2333C235.285 19.3661 235.104 19.5573 234.975 19.8068C234.85 20.0563 234.786 20.3582 234.782 20.7123ZM247.838 16.728V18.9013H241.988V16.728H247.838ZM243.214 14.5064H246.166V23.0849C246.166 23.266 246.194 23.4129 246.25 23.5256C246.311 23.6342 246.397 23.7127 246.51 23.761C246.623 23.8053 246.757 23.8274 246.914 23.8274C247.027 23.8274 247.146 23.8173 247.271 23.7972C247.399 23.7731 247.496 23.7529 247.56 23.7368L248.007 25.8679C247.866 25.9081 247.667 25.9584 247.409 26.0188C247.156 26.0792 246.852 26.1174 246.498 26.1335C245.806 26.1657 245.212 26.0852 244.717 25.892C244.226 25.6948 243.85 25.389 243.588 24.9744C243.331 24.5599 243.206 24.0387 243.214 23.4109V14.5064ZM251.958 26.1577C251.367 26.1577 250.841 26.0591 250.383 25.8618C249.928 25.6606 249.568 25.3588 249.302 24.9563C249.04 24.5498 248.91 24.0407 248.91 23.429C248.91 22.9138 249 22.4792 249.181 22.125C249.362 21.7708 249.612 21.4831 249.93 21.2617C250.248 21.0404 250.614 20.8733 251.029 20.7606C251.443 20.6439 251.886 20.5654 252.357 20.5252C252.884 20.4769 253.309 20.4266 253.631 20.3743C253.952 20.3179 254.186 20.2395 254.331 20.1388C254.48 20.0342 254.554 19.8873 254.554 19.6981V19.668C254.554 19.3581 254.448 19.1186 254.234 18.9496C254.021 18.7805 253.733 18.696 253.371 18.696C252.981 18.696 252.667 18.7805 252.429 18.9496C252.192 19.1186 252.041 19.352 251.976 19.6498L249.254 19.5533C249.334 18.9898 249.541 18.4867 249.876 18.044C250.214 17.5973 250.676 17.2471 251.264 16.9936C251.856 16.736 252.566 16.6072 253.395 16.6072C253.987 16.6072 254.532 16.6777 255.031 16.8185C255.53 16.9554 255.965 17.1566 256.335 17.4222C256.705 17.6838 256.991 18.0058 257.192 18.3881C257.398 18.7705 257.5 19.2071 257.5 19.6981V26.0007H254.723V24.7088H254.651C254.486 25.0227 254.274 25.2883 254.017 25.5057C253.763 25.723 253.463 25.886 253.117 25.9947C252.775 26.1033 252.389 26.1577 251.958 26.1577ZM252.87 24.2258C253.188 24.2258 253.474 24.1614 253.727 24.0327C253.985 23.9039 254.19 23.7268 254.343 23.5014C254.496 23.272 254.572 23.0064 254.572 22.7045V21.8231C254.488 21.8674 254.385 21.9077 254.264 21.9439C254.148 21.9801 254.019 22.0143 253.878 22.0465C253.737 22.0787 253.592 22.1069 253.443 22.131C253.294 22.1552 253.152 22.1773 253.015 22.1974C252.737 22.2417 252.5 22.3101 252.302 22.4027C252.109 22.4953 251.96 22.616 251.856 22.7649C251.755 22.9098 251.705 23.0828 251.705 23.2841C251.705 23.59 251.813 23.8234 252.031 23.9844C252.252 24.1453 252.532 24.2258 252.87 24.2258ZM259.305 26.0007V16.728H262.257V26.0007H259.305ZM260.784 15.6474C260.37 15.6474 260.014 15.5105 259.716 15.2369C259.418 14.9592 259.269 14.6251 259.269 14.2347C259.269 13.8484 259.418 13.5183 259.716 13.2447C260.014 12.967 260.37 12.8281 260.784 12.8281C261.203 12.8281 261.559 12.967 261.853 13.2447C262.151 13.5183 262.3 13.8484 262.3 14.2347C262.3 14.6251 262.151 14.9592 261.853 15.2369C261.559 15.5105 261.203 15.6474 260.784 15.6474ZM267.088 20.7123V26.0007H264.136V16.728H266.943V18.4304H267.046C267.251 17.8629 267.601 17.4182 268.097 17.0962C268.592 16.7702 269.181 16.6072 269.865 16.6072C270.517 16.6072 271.083 16.7541 271.562 17.0479C272.045 17.3377 272.419 17.7442 272.685 18.2674C272.954 18.7866 273.087 19.3943 273.083 20.0905V26.0007H270.131V20.6701C270.135 20.1549 270.004 19.7525 269.739 19.4627C269.477 19.1729 269.113 19.028 268.646 19.028C268.336 19.028 268.062 19.0965 267.825 19.2333C267.591 19.3661 267.41 19.5573 267.282 19.8068C267.157 20.0563 267.092 20.3582 267.088 20.7123ZM279.245 26.1758C278.275 26.1758 277.438 25.9846 276.734 25.6023C276.034 25.2159 275.494 24.6665 275.116 23.9542C274.742 23.2378 274.555 22.3866 274.555 21.4006C274.555 20.4427 274.744 19.6056 275.122 18.8892C275.5 18.1688 276.034 17.6094 276.722 17.2109C277.41 16.8085 278.221 16.6072 279.155 16.6072C279.815 16.6072 280.418 16.7099 280.966 16.9151C281.513 17.1204 281.986 17.4242 282.384 17.8267C282.783 18.2292 283.093 18.7262 283.314 19.3178C283.535 19.9054 283.646 20.5795 283.646 21.3402V22.0767H275.587V20.3622H280.899C280.895 20.0483 280.821 19.7686 280.676 19.5231C280.531 19.2776 280.332 19.0864 280.078 18.9496C279.829 18.8087 279.541 18.7383 279.215 18.7383C278.885 18.7383 278.589 18.8127 278.328 18.9616C278.066 19.1065 277.859 19.3057 277.706 19.5593C277.553 19.8088 277.472 20.0926 277.464 20.4105V22.1552C277.464 22.5335 277.539 22.8655 277.688 23.1513C277.837 23.433 278.048 23.6523 278.322 23.8093C278.595 23.9663 278.921 24.0447 279.3 24.0447C279.561 24.0447 279.799 24.0085 280.012 23.9361C280.225 23.8636 280.408 23.757 280.561 23.6161C280.714 23.4752 280.829 23.3022 280.905 23.0969L283.616 23.1754C283.503 23.7831 283.256 24.3124 282.873 24.7631C282.495 25.2099 281.998 25.558 281.382 25.8075C280.767 26.053 280.054 26.1758 279.245 26.1758ZM285.154 26.0007V16.728H288.021V18.4183H288.118C288.287 17.8066 288.563 17.3518 288.945 17.054C289.327 16.7521 289.772 16.6012 290.279 16.6012C290.416 16.6012 290.557 16.6113 290.702 16.6314C290.847 16.6475 290.982 16.6736 291.106 16.7099V19.2756C290.965 19.2273 290.78 19.189 290.551 19.1609C290.325 19.1327 290.124 19.1186 289.947 19.1186C289.597 19.1186 289.281 19.1971 288.999 19.354C288.722 19.507 288.502 19.7223 288.341 20C288.184 20.2737 288.106 20.5956 288.106 20.9659V26.0007H285.154ZM295.961 26.0007V13.6371H301.069C301.994 13.6371 302.793 13.8041 303.465 14.1381C304.142 14.4681 304.663 14.9431 305.029 15.5628C305.395 16.1786 305.578 16.9091 305.578 17.7543C305.578 18.6115 305.391 19.34 305.017 19.9396C304.643 20.5353 304.111 20.99 303.423 21.304C302.735 21.6139 301.92 21.7688 300.978 21.7688H297.748V19.4144H300.423C300.874 19.4144 301.25 19.356 301.552 19.2393C301.858 19.1186 302.089 18.9375 302.246 18.696C302.403 18.4505 302.481 18.1366 302.481 17.7543C302.481 17.3719 302.403 17.056 302.246 16.8065C302.089 16.5529 301.858 16.3637 301.552 16.239C301.246 16.1102 300.869 16.0458 300.423 16.0458H298.95V26.0007H295.961ZM302.922 20.3501L306.001 26.0007H302.741L299.722 20.3501H302.922ZM311.369 26.1758C310.399 26.1758 309.562 25.9846 308.858 25.6023C308.158 25.2159 307.618 24.6665 307.24 23.9542C306.866 23.2378 306.679 22.3866 306.679 21.4006C306.679 20.4427 306.868 19.6056 307.246 18.8892C307.624 18.1688 308.158 17.6094 308.846 17.2109C309.534 16.8085 310.345 16.6072 311.279 16.6072C311.939 16.6072 312.542 16.7099 313.09 16.9151C313.637 17.1204 314.11 17.4242 314.508 17.8267C314.907 18.2292 315.217 18.7262 315.438 19.3178C315.659 19.9054 315.77 20.5795 315.77 21.3402V22.0767H307.711V20.3622H313.023C313.019 20.0483 312.945 19.7686 312.8 19.5231C312.655 19.2776 312.456 19.0864 312.202 18.9496C311.953 18.8087 311.665 18.7383 311.339 18.7383C311.009 18.7383 310.713 18.8127 310.452 18.9616C310.19 19.1065 309.983 19.3057 309.83 19.5593C309.677 19.8088 309.596 20.0926 309.588 20.4105V22.1552C309.588 22.5335 309.663 22.8655 309.812 23.1513C309.961 23.433 310.172 23.6523 310.446 23.8093C310.719 23.9663 311.045 24.0447 311.424 24.0447C311.685 24.0447 311.923 24.0085 312.136 23.9361C312.349 23.8636 312.532 23.757 312.685 23.6161C312.838 23.4752 312.953 23.3022 313.029 23.0969L315.74 23.1754C315.627 23.7831 315.38 24.3124 314.997 24.7631C314.619 25.2099 314.122 25.558 313.506 25.8075C312.891 26.053 312.178 26.1758 311.369 26.1758ZM321.6 29.6712C320.719 29.6712 319.964 29.5484 319.336 29.3029C318.709 29.0574 318.216 28.7213 317.857 28.2947C317.499 27.8681 317.284 27.3852 317.211 26.8459L320.007 26.6889C320.059 26.8781 320.155 27.0431 320.296 27.1839C320.441 27.3248 320.628 27.4335 320.858 27.5099C321.091 27.5864 321.365 27.6246 321.679 27.6246C322.174 27.6246 322.582 27.5039 322.904 27.2624C323.23 27.025 323.393 26.6084 323.393 26.0128V24.3828H323.291C323.174 24.6685 322.997 24.9241 322.759 25.1495C322.522 25.3749 322.226 25.552 321.872 25.6807C321.522 25.8095 321.119 25.8739 320.665 25.8739C319.988 25.8739 319.369 25.717 318.805 25.403C318.246 25.0851 317.797 24.5941 317.459 23.93C317.125 23.2619 316.958 22.4027 316.958 21.3523C316.958 20.2696 317.131 19.3782 317.477 18.6779C317.823 17.9736 318.276 17.4524 318.835 17.1143C319.399 16.7763 320.005 16.6072 320.653 16.6072C321.139 16.6072 321.556 16.6918 321.902 16.8608C322.252 17.0258 322.54 17.2391 322.765 17.5007C322.991 17.7623 323.162 18.034 323.279 18.3157H323.363V16.728H326.303V26.0369C326.303 26.8217 326.106 27.4838 325.711 28.0231C325.317 28.5624 324.766 28.9709 324.057 29.2486C323.349 29.5303 322.53 29.6712 321.6 29.6712ZM321.691 23.7248C322.049 23.7248 322.355 23.6302 322.608 23.441C322.862 23.2519 323.057 22.9802 323.194 22.6261C323.331 22.2719 323.399 21.8473 323.399 21.3523C323.399 20.8492 323.331 20.4165 323.194 20.0543C323.061 19.6881 322.866 19.4064 322.608 19.2092C322.355 19.0119 322.049 18.9133 321.691 18.9133C321.325 18.9133 321.015 19.014 320.761 19.2152C320.508 19.4164 320.314 19.7002 320.182 20.0664C320.053 20.4286 319.988 20.8572 319.988 21.3523C319.988 21.8473 320.055 22.2719 320.188 22.6261C320.32 22.9802 320.512 23.2519 320.761 23.441C321.015 23.6302 321.325 23.7248 321.691 23.7248ZM328.185 26.0007V16.728H331.137V26.0007H328.185ZM329.664 15.6474C329.25 15.6474 328.893 15.5105 328.596 15.2369C328.298 14.9592 328.149 14.6251 328.149 14.2347C328.149 13.8484 328.298 13.5183 328.596 13.2447C328.893 12.967 329.25 12.8281 329.664 12.8281C330.083 12.8281 330.439 12.967 330.733 13.2447C331.03 13.5183 331.179 13.8484 331.179 14.2347C331.179 14.6251 331.03 14.9592 330.733 15.2369C330.439 15.5105 330.083 15.6474 329.664 15.6474ZM341.112 19.5593L338.401 19.6317C338.373 19.4386 338.296 19.2675 338.172 19.1186C338.047 18.9657 337.884 18.8469 337.683 18.7624C337.485 18.6739 337.256 18.6296 336.994 18.6296C336.652 18.6296 336.361 18.698 336.119 18.8349C335.882 18.9717 335.765 19.1568 335.769 19.3903C335.765 19.5714 335.837 19.7283 335.986 19.8611C336.139 19.994 336.411 20.1006 336.801 20.1811L338.588 20.5192C339.514 20.6962 340.202 20.99 340.653 21.4006C341.108 21.8111 341.337 22.3544 341.341 23.0305C341.337 23.6664 341.148 24.2198 340.774 24.6907C340.403 25.1616 339.896 25.5278 339.252 25.7894C338.608 26.047 337.872 26.1758 337.043 26.1758C335.719 26.1758 334.674 25.9041 333.91 25.3608C333.149 24.8134 332.714 24.081 332.606 23.1633L335.521 23.0909C335.586 23.429 335.753 23.6865 336.023 23.8636C336.292 24.0407 336.636 24.1292 337.055 24.1292C337.433 24.1292 337.741 24.0588 337.978 23.918C338.216 23.7771 338.337 23.5899 338.341 23.3565C338.337 23.1472 338.244 22.9802 338.063 22.8555C337.882 22.7267 337.598 22.6261 337.212 22.5536L335.594 22.2457C334.664 22.0767 333.972 21.7648 333.517 21.31C333.062 20.8512 332.837 20.2676 332.841 19.5593C332.837 18.9395 333.002 18.4103 333.336 17.9716C333.67 17.5289 334.145 17.1908 334.761 16.9574C335.377 16.7239 336.103 16.6072 336.94 16.6072C338.196 16.6072 339.186 16.8708 339.91 17.3981C340.635 17.9213 341.035 18.6417 341.112 19.5593ZM348.028 16.728V18.9013H342.179V16.728H348.028ZM343.404 14.5064H346.356V23.0849C346.356 23.266 346.384 23.4129 346.441 23.5256C346.501 23.6342 346.588 23.7127 346.7 23.761C346.813 23.8053 346.948 23.8274 347.105 23.8274C347.218 23.8274 347.336 23.8173 347.461 23.7972C347.59 23.7731 347.686 23.7529 347.751 23.7368L348.198 25.8679C348.057 25.9081 347.857 25.9584 347.6 26.0188C347.346 26.0792 347.042 26.1174 346.688 26.1335C345.996 26.1657 345.402 26.0852 344.907 25.892C344.416 25.6948 344.04 25.389 343.778 24.9744C343.521 24.5599 343.396 24.0387 343.404 23.4109V14.5064ZM349.535 26.0007V16.728H352.402V18.4183H352.499C352.668 17.8066 352.944 17.3518 353.326 17.054C353.708 16.7521 354.153 16.6012 354.66 16.6012C354.797 16.6012 354.938 16.6113 355.083 16.6314C355.228 16.6475 355.362 16.6736 355.487 16.7099V19.2756C355.346 19.2273 355.161 19.189 354.932 19.1609C354.706 19.1327 354.505 19.1186 354.328 19.1186C353.978 19.1186 353.662 19.1971 353.38 19.354C353.103 19.507 352.883 19.7223 352.722 20C352.565 20.2737 352.487 20.5956 352.487 20.9659V26.0007H349.535ZM358.777 29.478C358.423 29.478 358.089 29.4498 357.775 29.3935C357.461 29.3411 357.192 29.2707 356.966 29.1822L357.618 27.039C357.908 27.1356 358.17 27.192 358.403 27.2081C358.64 27.2242 358.844 27.1859 359.013 27.0934C359.186 27.0048 359.319 26.8459 359.411 26.6165L359.526 26.3388L356.23 16.728H359.321L361.029 23.3444H361.126L362.858 16.728H365.967L362.472 26.8881C362.303 27.3952 362.063 27.842 361.753 28.2283C361.448 28.6187 361.051 28.9246 360.564 29.1459C360.081 29.3673 359.486 29.478 358.777 29.478Z" fill="white"/>
</g>
<defs>
<filter id="filter0_d_1_56" x="2.39972" y="0.39972" width="39.202" height="39.202" filterUnits="userSpaceOnUse" color-interpolation-filters="sRGB">
<feFlood flood-opacity="0" result="BackgroundImageFix"/>
<feColorMatrix in="SourceAlpha" type="matrix" values="0 0 0 0 0 0 0 0 0 0 0 0 0 0 0 0 0 0 127 0" result="hardAlpha"/>
<feOffset/>
<feGaussianBlur stdDeviation="2.80014"/>
<feComposite in2="hardAlpha" operator="out"/>
<feColorMatrix type="matrix" values="0 0 0 0 0 0 0 0 0 0 0 0 0 0 0 0 0 0 0.25 0"/>
<feBlend mode="normal" in2="BackgroundImageFix" result="effect1_dropShadow_1_56"/>
<feBlend mode="normal" in="SourceGraphic" in2="effect1_dropShadow_1_56" result="shape"/>
</filter>
<filter id="filter1_d_1_56" x="36.2871" y="3.78642" width="336.428" height="32.4286" filterUnits="userSpaceOnUse" color-interpolation-filters="sRGB">
<feFlood flood-opacity="0" result="BackgroundImageFix"/>
<feColorMatrix in="SourceAlpha" type="matrix" values="0 0 0 0 0 0 0 0 0 0 0 0 0 0 0 0 0 0 127 0" result="hardAlpha"/>
<feOffset/>
<feGaussianBlur stdDeviation="2.85714"/>
<feComposite in2="hardAlpha" operator="out"/>
<feColorMatrix type="matrix" values="0 0 0 0 0 0 0 0 0 0 0 0 0 0 0 0 0 0 0.25 0"/>
<feBlend mode="normal" in2="BackgroundImageFix" result="effect1_dropShadow_1_56"/>
<feBlend mode="normal" in="SourceGraphic" in2="effect1_dropShadow_1_56" result="shape"/>
</filter>
<linearGradient id="paint0_linear_1_56" x1="187.501" y1="0" x2="187.501" y2="40.0014" gradientUnits="userSpaceOnUse">
<stop stop-color="#181F29"/>
<stop offset="1" stop-color="#0F131A"/>
</linearGradient>
</defs>
</svg>
