<svg width="40" height="40" viewBox="0 0 40 40" fill="none" xmlns="http://www.w3.org/2000/svg">
<rect width="40" height="40" rx="8" fill="url(#paint0_linear_1_68)"/>
<rect x="1.05" y="1.05" width="37.9" height="37.9" rx="6.95" stroke="white" stroke-opacity="0.15" stroke-width="2.1"/>
<g filter="url(#filter0_d_1_68)">
<path d="M20.7618 6.79543C21.1635 6.56102 21.6203 6.4375 22.0854 6.4375C22.5505 6.4375 23.0073 6.56102 23.409 6.79543L23.4172 6.8001L31.5337 11.7888C31.9334 12.023 32.265 12.3577 32.4954 12.7596C32.7259 13.1616 32.8472 13.6168 32.8473 14.0801V22.8488C32.8473 23.7938 32.3433 24.6688 31.5255 25.1448L31.5232 25.1459L17.5652 33.3558L17.5605 33.3593C16.7368 33.8376 15.7195 33.8376 14.8958 33.3593L14.8655 33.3418L7.27867 28.0894C6.88827 27.8538 6.5654 27.5213 6.34136 27.1241C6.11733 26.7269 5.99974 26.2786 6 25.8226V17.0108C6 16.5534 6.11667 16.1124 6.33133 15.7274L6.33483 15.7204L6.35117 15.6901C6.581 15.2911 6.91117 14.9586 7.30783 14.7253H7.31017L20.7618 6.79543ZM21.645 8.30627H21.6438L8.50717 16.0518L15.7965 21.0066C15.9326 21.0806 16.0853 21.1183 16.2402 21.1163C16.395 21.1142 16.5468 21.0724 16.6808 20.9949L30.2538 13.0569L22.52 8.30393C22.3867 8.22767 22.2356 8.18784 22.082 8.18846C21.9284 8.18907 21.7777 8.2301 21.645 8.30743V8.30627ZM15.3543 22.7181C15.1952 22.6627 15.0417 22.5924 14.8958 22.5081L14.869 22.4918L7.75 17.6536V25.8238C7.75 26.1446 7.91917 26.4398 8.19217 26.5984L8.22133 26.6148L15.3543 31.5521V22.7181ZM26.4178 17.3269L22.6262 19.5436V28.3496L26.4178 26.1189V17.3269ZM17.5628 22.5046L17.5605 22.5069C17.4154 22.5911 17.2626 22.6614 17.1043 22.7169V31.5976L20.8762 29.3786V20.5679L17.5628 22.5046ZM28.1678 16.3026V25.0899L30.6458 23.6316C30.7831 23.5521 30.897 23.4379 30.9762 23.3005C31.0555 23.1632 31.0972 23.0074 31.0973 22.8488V14.5899L28.1678 16.3026Z" fill="white"/>
</g>
<defs>
<filter id="filter0_d_1_68" x="2" y="2" width="36" height="36" filterUnits="userSpaceOnUse" color-interpolation-filters="sRGB">
<feFlood flood-opacity="0" result="BackgroundImageFix"/>
<feColorMatrix in="SourceAlpha" type="matrix" values="0 0 0 0 0 0 0 0 0 0 0 0 0 0 0 0 0 0 127 0" result="hardAlpha"/>
<feOffset/>
<feGaussianBlur stdDeviation="2"/>
<feComposite in2="hardAlpha" operator="out"/>
<feColorMatrix type="matrix" values="0 0 0 0 0 0 0 0 0 0 0 0 0 0 0 0 0 0 0.25 0"/>
<feBlend mode="normal" in2="BackgroundImageFix" result="effect1_dropShadow_1_68"/>
<feBlend mode="normal" in="SourceGraphic" in2="effect1_dropShadow_1_68" result="shape"/>
</filter>
<linearGradient id="paint0_linear_1_68" x1="20" y1="0" x2="20" y2="40" gradientUnits="userSpaceOnUse">
<stop stop-color="#181F29"/>
<stop offset="1" stop-color="#0F131A"/>
</linearGradient>
</defs>
</svg>
