<svg width="56" height="56" viewBox="0 0 56 56" fill="none" xmlns="http://www.w3.org/2000/svg">
<rect width="56" height="56" rx="8.4" fill="url(#paint0_linear_1_62)"/>
<rect x="1.05" y="1.05" width="53.9" height="53.9" rx="7.35" stroke="white" stroke-opacity="0.15" stroke-width="2.1"/>
<g filter="url(#filter0_d_1_62)">
<path d="M29.0883 9.13633C29.6622 8.80146 30.3147 8.625 30.9792 8.625C31.6436 8.625 32.2961 8.80146 32.87 9.13633L32.8817 9.143L44.4767 16.2697C45.0478 16.6042 45.5214 17.0824 45.8506 17.6566C46.1798 18.2308 46.3531 18.8811 46.3533 19.543V32.0697C46.3533 33.4197 45.6333 34.6697 44.465 35.3497L44.4617 35.3513L24.5217 47.0797L24.515 47.0847C23.3383 47.768 21.885 47.768 20.7083 47.0847L20.665 47.0597L9.82667 39.5563C9.26896 39.2197 8.80771 38.7447 8.48766 38.1773C8.16762 37.6099 7.99963 36.9694 8 36.318V23.7297C8 23.0763 8.16667 22.4463 8.47333 21.8963L8.47833 21.8863L8.50167 21.843C8.83 21.273 9.30167 20.798 9.86833 20.4647H9.87167L29.0883 9.13633ZM30.35 11.2947H30.3483L11.5817 22.3597L21.995 29.438C22.1894 29.5436 22.4076 29.5976 22.6288 29.5947C22.8501 29.5918 23.0668 29.5321 23.2583 29.4213L42.6483 18.0813L31.6 11.2913C31.4095 11.1824 31.1938 11.1255 30.9743 11.1264C30.7549 11.1272 30.5396 11.1859 30.35 11.2963V11.2947ZM21.3633 31.883C21.136 31.8039 20.9167 31.7035 20.7083 31.583L20.67 31.5597L10.5 24.648V36.3197C10.5 36.778 10.7417 37.1997 11.1317 37.4263L11.1733 37.4497L21.3633 44.503V31.883ZM37.1683 24.1813L31.7517 27.348V39.928L37.1683 36.7413V24.1813ZM24.5183 31.578L24.515 31.5813C24.3077 31.7015 24.0895 31.802 23.8633 31.8813V44.568L29.2517 41.398V28.8113L24.5183 31.578ZM39.6683 22.718V35.2713L43.2083 33.188C43.4044 33.0744 43.5672 32.9113 43.6803 32.7151C43.7935 32.5188 43.8532 32.2962 43.8533 32.0697V20.2713L39.6683 22.718Z" fill="white"/>
</g>
<defs>
<filter id="filter0_d_1_62" x="2.28571" y="2.28571" width="51.4286" height="51.4286" filterUnits="userSpaceOnUse" color-interpolation-filters="sRGB">
<feFlood flood-opacity="0" result="BackgroundImageFix"/>
<feColorMatrix in="SourceAlpha" type="matrix" values="0 0 0 0 0 0 0 0 0 0 0 0 0 0 0 0 0 0 127 0" result="hardAlpha"/>
<feOffset/>
<feGaussianBlur stdDeviation="2.85714"/>
<feComposite in2="hardAlpha" operator="out"/>
<feColorMatrix type="matrix" values="0 0 0 0 0 0 0 0 0 0 0 0 0 0 0 0 0 0 0.25 0"/>
<feBlend mode="normal" in2="BackgroundImageFix" result="effect1_dropShadow_1_62"/>
<feBlend mode="normal" in="SourceGraphic" in2="effect1_dropShadow_1_62" result="shape"/>
</filter>
<linearGradient id="paint0_linear_1_62" x1="28" y1="0" x2="28" y2="56" gradientUnits="userSpaceOnUse">
<stop stop-color="#181F29"/>
<stop offset="1" stop-color="#0F131A"/>
</linearGradient>
</defs>
</svg>
