<svg width="295" height="56" viewBox="0 0 295 56" fill="none" xmlns="http://www.w3.org/2000/svg">
<rect width="295" height="56" rx="8" fill="url(#paint0_linear_1_50)"/>
<rect x="1.05" y="1.05" width="292.9" height="53.9" rx="6.95" stroke="white" stroke-opacity="0.15" stroke-width="2.1"/>
<g filter="url(#filter0_d_1_50)">
<path d="M33.0883 9.13633C33.6622 8.80146 34.3147 8.625 34.9792 8.625C35.6436 8.625 36.2961 8.80146 36.87 9.13633L36.8817 9.143L48.4767 16.2697C49.0478 16.6042 49.5214 17.0824 49.8506 17.6566C50.1798 18.2308 50.3531 18.8811 50.3533 19.543V32.0697C50.3533 33.4197 49.6333 34.6697 48.465 35.3497L48.4617 35.3513L28.5217 47.0797L28.515 47.0847C27.3383 47.768 25.885 47.768 24.7083 47.0847L24.665 47.0597L13.8267 39.5563C13.269 39.2197 12.8077 38.7447 12.4877 38.1773C12.1676 37.6099 11.9996 36.9694 12 36.318V23.7297C12 23.0763 12.1667 22.4463 12.4733 21.8963L12.4783 21.8863L12.5017 21.843C12.83 21.273 13.3017 20.798 13.8683 20.4647H13.8717L33.0883 9.13633ZM34.35 11.2947H34.3483L15.5817 22.3597L25.995 29.438C26.1894 29.5436 26.4076 29.5976 26.6288 29.5947C26.8501 29.5918 27.0668 29.5321 27.2583 29.4213L46.6483 18.0813L35.6 11.2913C35.4095 11.1824 35.1938 11.1255 34.9743 11.1264C34.7549 11.1272 34.5396 11.1859 34.35 11.2963V11.2947ZM25.3633 31.883C25.136 31.8039 24.9167 31.7035 24.7083 31.583L24.67 31.5597L14.5 24.648V36.3197C14.5 36.778 14.7417 37.1997 15.1317 37.4263L15.1733 37.4497L25.3633 44.503V31.883ZM41.1683 24.1813L35.7517 27.348V39.928L41.1683 36.7413V24.1813ZM28.5183 31.578L28.515 31.5813C28.3077 31.7015 28.0895 31.802 27.8633 31.8813V44.568L33.2517 41.398V28.8113L28.5183 31.578ZM43.6683 22.718V35.2713L47.2083 33.188C47.4044 33.0744 47.5672 32.9113 47.6803 32.7151C47.7935 32.5188 47.8532 32.2962 47.8533 32.0697V20.2713L43.6683 22.718Z" fill="white"/>
</g>
<g filter="url(#filter1_d_1_50)">
<path d="M62.2613 24.5H60.3977L64.5852 12.8636H66.6136L70.8011 24.5H68.9375L65.6477 14.9773H65.5568L62.2613 24.5ZM62.5738 19.9432H68.6193V21.4204H62.5738V19.9432ZM78.7173 15.7727L75.5525 24.5H73.7344L70.5639 15.7727H72.3878L74.598 22.4886H74.6889L76.8934 15.7727H78.7173ZM82.6037 24.6932C82.0506 24.6932 81.5506 24.5909 81.1037 24.3864C80.6567 24.178 80.3025 23.8769 80.0412 23.4829C79.7836 23.089 79.6548 22.6061 79.6548 22.0341C79.6548 21.5417 79.7495 21.1364 79.9389 20.8182C80.1283 20.5 80.384 20.2481 80.7059 20.0625C81.0279 19.8769 81.3878 19.7367 81.7855 19.642C82.1832 19.5473 82.5885 19.4754 83.0014 19.4261C83.5241 19.3655 83.9484 19.3163 84.2741 19.2784C84.5999 19.2367 84.8366 19.1704 84.9844 19.0795C85.1321 18.9886 85.2059 18.8409 85.2059 18.6364V18.5966C85.2059 18.1004 85.0658 17.7159 84.7855 17.4432C84.509 17.1704 84.0961 17.0341 83.5469 17.0341C82.9749 17.0341 82.5241 17.161 82.1946 17.4148C81.8688 17.6648 81.6434 17.9432 81.5184 18.25L79.9219 17.8864C80.1112 17.3561 80.3878 16.928 80.7514 16.6023C81.1188 16.2727 81.5412 16.0341 82.0184 15.8864C82.4957 15.7348 82.9976 15.6591 83.5241 15.6591C83.8726 15.6591 84.2419 15.7008 84.6321 15.7841C85.026 15.8636 85.3934 16.0114 85.7344 16.2273C86.079 16.4432 86.3612 16.7519 86.5809 17.1534C86.8006 17.5511 86.9105 18.0682 86.9105 18.7045V24.5H85.2514V23.3068H85.1832C85.0734 23.5265 84.9086 23.7424 84.6889 23.9545C84.4692 24.1667 84.187 24.3428 83.8423 24.4829C83.4976 24.6231 83.0847 24.6932 82.6037 24.6932ZM82.973 23.3295C83.4427 23.3295 83.8442 23.2367 84.1775 23.0511C84.5147 22.8655 84.7703 22.6231 84.9446 22.3239C85.1226 22.0208 85.2116 21.697 85.2116 21.3523V20.2273C85.151 20.2879 85.0336 20.3447 84.8594 20.3977C84.6889 20.447 84.4938 20.4905 84.2741 20.5284C84.0544 20.5625 83.8404 20.5947 83.6321 20.625C83.4237 20.6515 83.2495 20.6742 83.1094 20.6932C82.7798 20.7348 82.4787 20.8049 82.2059 20.9034C81.937 21.0019 81.7211 21.1439 81.5582 21.3295C81.3991 21.5114 81.3196 21.7538 81.3196 22.0568C81.3196 22.4773 81.4749 22.7954 81.7855 23.0114C82.0961 23.2235 82.4919 23.3295 82.973 23.3295ZM89.1733 24.5V15.7727H90.8721V24.5H89.1733ZM90.0312 14.4261C89.7358 14.4261 89.482 14.3276 89.2699 14.1307C89.0615 13.9299 88.9574 13.6913 88.9574 13.4148C88.9574 13.1345 89.0615 12.8958 89.2699 12.6989C89.482 12.4981 89.7358 12.3977 90.0312 12.3977C90.3267 12.3977 90.5786 12.4981 90.7869 12.6989C90.999 12.8958 91.1051 13.1345 91.1051 13.4148C91.1051 13.6913 90.999 13.9299 90.7869 14.1307C90.5786 14.3276 90.3267 14.4261 90.0312 14.4261ZM94.8565 12.8636V24.5H93.1576V12.8636H94.8565ZM99.6818 24.6932C99.1288 24.6932 98.6288 24.5909 98.1818 24.3864C97.7348 24.178 97.3807 23.8769 97.1193 23.4829C96.8617 23.089 96.7329 22.6061 96.7329 22.0341C96.7329 21.5417 96.8276 21.1364 97.017 20.8182C97.2064 20.5 97.4621 20.2481 97.7841 20.0625C98.106 19.8769 98.4659 19.7367 98.8636 19.642C99.2613 19.5473 99.6666 19.4754 100.08 19.4261C100.602 19.3655 101.026 19.3163 101.352 19.2784C101.678 19.2367 101.915 19.1704 102.062 19.0795C102.21 18.9886 102.284 18.8409 102.284 18.6364V18.5966C102.284 18.1004 102.144 17.7159 101.864 17.4432C101.587 17.1704 101.174 17.0341 100.625 17.0341C100.053 17.0341 99.6022 17.161 99.2727 17.4148C98.9469 17.6648 98.7216 17.9432 98.5966 18.25L97 17.8864C97.1894 17.3561 97.4659 16.928 97.8295 16.6023C98.1969 16.2727 98.6193 16.0341 99.0966 15.8864C99.5738 15.7348 100.076 15.6591 100.602 15.6591C100.951 15.6591 101.32 15.7008 101.71 15.7841C102.104 15.8636 102.472 16.0114 102.812 16.2273C103.157 16.4432 103.439 16.7519 103.659 17.1534C103.879 17.5511 103.989 18.0682 103.989 18.7045V24.5H102.33V23.3068H102.261C102.151 23.5265 101.987 23.7424 101.767 23.9545C101.547 24.1667 101.265 24.3428 100.92 24.4829C100.576 24.6231 100.163 24.6932 99.6818 24.6932ZM100.051 23.3295C100.521 23.3295 100.922 23.2367 101.256 23.0511C101.593 22.8655 101.848 22.6231 102.023 22.3239C102.201 22.0208 102.29 21.697 102.29 21.3523V20.2273C102.229 20.2879 102.112 20.3447 101.937 20.3977C101.767 20.447 101.572 20.4905 101.352 20.5284C101.133 20.5625 100.919 20.5947 100.71 20.625C100.502 20.6515 100.328 20.6742 100.187 20.6932C99.8579 20.7348 99.5568 20.8049 99.2841 20.9034C99.0151 21.0019 98.7992 21.1439 98.6363 21.3295C98.4772 21.5114 98.3977 21.7538 98.3977 22.0568C98.3977 22.4773 98.553 22.7954 98.8636 23.0114C99.1742 23.2235 99.57 23.3295 100.051 23.3295ZM106.388 24.5V12.8636H108.087V17.1875H108.189C108.287 17.0057 108.429 16.7954 108.615 16.5568C108.801 16.3182 109.058 16.1098 109.388 15.9318C109.717 15.75 110.153 15.6591 110.695 15.6591C111.399 15.6591 112.028 15.8371 112.581 16.1932C113.134 16.5492 113.568 17.0625 113.882 17.7329C114.2 18.4034 114.359 19.2102 114.359 20.1534C114.359 21.0966 114.202 21.9053 113.888 22.5795C113.573 23.25 113.142 23.767 112.592 24.1307C112.043 24.4905 111.416 24.6704 110.712 24.6704C110.181 24.6704 109.748 24.5814 109.41 24.4034C109.077 24.2254 108.816 24.017 108.626 23.7784C108.437 23.5398 108.291 23.3276 108.189 23.142H108.047V24.5H106.388ZM108.053 20.1364C108.053 20.75 108.142 21.2879 108.32 21.75C108.498 22.2121 108.755 22.5739 109.092 22.8352C109.429 23.0928 109.842 23.2216 110.331 23.2216C110.839 23.2216 111.263 23.0871 111.604 22.8182C111.945 22.5454 112.202 22.1761 112.376 21.7102C112.554 21.2443 112.643 20.7197 112.643 20.1364C112.643 19.5606 112.556 19.0436 112.382 18.5852C112.212 18.1269 111.954 17.7651 111.609 17.5C111.268 17.2348 110.842 17.1023 110.331 17.1023C109.839 17.1023 109.422 17.2292 109.081 17.4829C108.744 17.7367 108.488 18.0909 108.314 18.5454C108.14 19 108.053 19.5303 108.053 20.1364ZM117.966 12.8636V24.5H116.267V12.8636H117.966ZM124.013 24.6761C123.153 24.6761 122.412 24.4924 121.791 24.125C121.174 23.7538 120.696 23.2329 120.359 22.5625C120.026 21.8883 119.859 21.0985 119.859 20.1932C119.859 19.2992 120.026 18.5114 120.359 17.8295C120.696 17.1477 121.166 16.6155 121.768 16.2329C122.374 15.8504 123.083 15.6591 123.893 15.6591C124.386 15.6591 124.863 15.7405 125.325 15.9034C125.787 16.0663 126.202 16.322 126.57 16.6704C126.937 17.0189 127.227 17.4716 127.439 18.0284C127.651 18.5814 127.757 19.2538 127.757 20.0454V20.6477H120.82V19.375H126.092C126.092 18.928 126.001 18.5322 125.82 18.1875C125.638 17.839 125.382 17.5644 125.053 17.3636C124.727 17.1629 124.344 17.0625 123.905 17.0625C123.428 17.0625 123.011 17.1799 122.655 17.4148C122.303 17.6458 122.03 17.9489 121.837 18.3239C121.647 18.6951 121.553 19.0985 121.553 19.5341V20.5284C121.553 21.1117 121.655 21.6079 121.859 22.017C122.068 22.4261 122.357 22.7386 122.729 22.9545C123.1 23.1667 123.534 23.2727 124.03 23.2727C124.352 23.2727 124.645 23.2273 124.91 23.1364C125.176 23.0417 125.405 22.9015 125.598 22.7159C125.791 22.5303 125.939 22.3011 126.041 22.0284L127.649 22.3182C127.52 22.7917 127.289 23.2064 126.956 23.5625C126.626 23.9148 126.212 24.1894 125.712 24.3864C125.215 24.5795 124.649 24.6761 124.013 24.6761ZM137.553 24.6761C136.734 24.6761 136.02 24.4886 135.41 24.1136C134.801 23.7386 134.327 23.214 133.99 22.5398C133.653 21.8655 133.484 21.0776 133.484 20.1761C133.484 19.2708 133.653 18.4792 133.99 17.8011C134.327 17.1231 134.801 16.5966 135.41 16.2216C136.02 15.8466 136.734 15.6591 137.553 15.6591C138.371 15.6591 139.085 15.8466 139.695 16.2216C140.304 16.5966 140.778 17.1231 141.115 17.8011C141.452 18.4792 141.621 19.2708 141.621 20.1761C141.621 21.0776 141.452 21.8655 141.115 22.5398C140.778 23.214 140.304 23.7386 139.695 24.1136C139.085 24.4886 138.371 24.6761 137.553 24.6761ZM137.558 23.25C138.089 23.25 138.528 23.1098 138.876 22.8295C139.225 22.5492 139.482 22.1761 139.649 21.7102C139.82 21.2443 139.905 20.7311 139.905 20.1704C139.905 19.6136 139.82 19.1023 139.649 18.6364C139.482 18.1667 139.225 17.7898 138.876 17.5057C138.528 17.2216 138.089 17.0795 137.558 17.0795C137.024 17.0795 136.581 17.2216 136.229 17.5057C135.88 17.7898 135.621 18.1667 135.45 18.6364C135.284 19.1023 135.2 19.6136 135.2 20.1704C135.2 20.7311 135.284 21.2443 135.45 21.7102C135.621 22.1761 135.88 22.5492 136.229 22.8295C136.581 23.1098 137.024 23.25 137.558 23.25ZM145.216 19.3182V24.5H143.517V15.7727H145.148V17.1932H145.256C145.456 16.7311 145.771 16.3598 146.199 16.0795C146.631 15.7992 147.174 15.6591 147.83 15.6591C148.424 15.6591 148.945 15.7841 149.392 16.0341C149.839 16.2803 150.186 16.6477 150.432 17.1364C150.678 17.625 150.801 18.2292 150.801 18.9489V24.5H149.102V19.1534C149.102 18.5208 148.937 18.0265 148.608 17.6704C148.278 17.3106 147.826 17.1307 147.25 17.1307C146.856 17.1307 146.506 17.2159 146.199 17.3864C145.896 17.5568 145.655 17.8068 145.477 18.1364C145.303 18.4621 145.216 18.8561 145.216 19.3182Z" fill="#E8E8E8"/>
<path d="M69.0493 35.1751C68.9809 34.9215 68.8803 34.6981 68.7475 34.505C68.6147 34.3078 68.4517 34.1407 68.2585 34.0039C68.0653 33.8671 67.844 33.7644 67.5944 33.696C67.3449 33.6236 67.0712 33.5873 66.7734 33.5873C66.1738 33.5873 65.6546 33.7322 65.2159 34.022C64.7812 34.3118 64.4452 34.7344 64.2077 35.2898C63.9703 35.8411 63.8515 36.5112 63.8515 37.3001C63.8515 38.0929 63.9662 38.769 64.1957 39.3285C64.4251 39.8879 64.7571 40.3145 65.1917 40.6083C65.6264 40.9021 66.1536 41.049 66.7734 41.049C67.3208 41.049 67.7836 40.9605 68.1619 40.7834C68.5443 40.6023 68.834 40.3467 69.0312 40.0167C69.2284 39.6867 69.327 39.2983 69.327 38.8516L69.8824 38.918H66.876V36.7386H72.2067V38.3746C72.2067 39.4814 71.9712 40.4292 71.5003 41.218C71.0335 42.0069 70.3895 42.6126 69.5685 43.0351C68.7515 43.4577 67.8118 43.669 66.7493 43.669C65.5701 43.669 64.5337 43.4135 63.6403 42.9023C62.7468 42.3912 62.0505 41.6627 61.5515 40.717C61.0524 39.7672 60.8029 38.6403 60.8029 37.3363C60.8029 36.3221 60.9538 35.4226 61.2557 34.6378C61.5575 33.8489 61.9781 33.1809 62.5174 32.6335C63.0607 32.0862 63.6885 31.6716 64.4009 31.3899C65.1173 31.1082 65.888 30.9673 66.7131 30.9673C67.4294 30.9673 68.0955 31.0699 68.7113 31.2752C69.3311 31.4805 69.8784 31.7702 70.3533 32.1445C70.8322 32.5188 71.2206 32.9635 71.5184 33.4787C71.8163 33.9938 72.0014 34.5593 72.0738 35.1751H69.0493ZM74.549 43.5V34.2273H77.501V43.5H74.549ZM76.028 33.1467C75.6135 33.1467 75.2573 33.0098 74.9595 32.7361C74.6617 32.4584 74.5128 32.1244 74.5128 31.734C74.5128 31.3476 74.6617 31.0176 74.9595 30.744C75.2573 30.4663 75.6135 30.3274 76.028 30.3274C76.4466 30.3274 76.8028 30.4663 77.0966 30.744C77.3944 31.0176 77.5433 31.3476 77.5433 31.734C77.5433 32.1244 77.3944 32.4584 77.0966 32.7361C76.8028 33.0098 76.4466 33.1467 76.028 33.1467ZM84.6141 34.2273V36.4006H78.7643V34.2273H84.6141ZM79.9898 32.0057H82.9418V40.5842C82.9418 40.7653 82.97 40.9122 83.0263 41.0248C83.0867 41.1335 83.1732 41.212 83.2859 41.2603C83.3986 41.3046 83.5334 41.3267 83.6904 41.3267C83.8031 41.3267 83.9218 41.3166 84.0466 41.2965C84.1754 41.2724 84.272 41.2522 84.3364 41.2361L84.7831 43.3672C84.6422 43.4074 84.443 43.4577 84.1854 43.5181C83.9319 43.5785 83.628 43.6167 83.2739 43.6328C82.5816 43.665 81.988 43.5845 81.493 43.3913C81.002 43.1941 80.6257 42.8882 80.3641 42.4737C80.1065 42.0592 79.9817 41.538 79.9898 40.9101V32.0057ZM86.3195 43.5V31.1364H89.3078V36.0987H94.1796V31.1364H97.1618V43.5H94.1796V38.5316H89.3078V43.5H86.3195ZM105.019 39.4975V34.2273H107.965V43.5H105.152V41.7734H105.055C104.85 42.3409 104.5 42.7917 104.005 43.1257C103.514 43.4557 102.92 43.6207 102.224 43.6207C101.592 43.6207 101.037 43.4758 100.558 43.1861C100.079 42.8963 99.7064 42.4918 99.4408 41.9726C99.1751 41.4494 99.0403 40.8377 99.0363 40.1374V34.2273H101.988V39.5579C101.992 40.061 102.125 40.4574 102.387 40.7471C102.648 41.0369 103.005 41.1818 103.455 41.1818C103.749 41.1818 104.013 41.1174 104.246 40.9886C104.484 40.8558 104.671 40.6646 104.808 40.4151C104.948 40.1616 105.019 39.8557 105.019 39.4975ZM109.844 43.5V31.1364H112.796V35.815H112.856C112.977 35.5333 113.148 35.2616 113.369 35C113.595 34.7384 113.881 34.5251 114.227 34.3601C114.577 34.191 114.995 34.1065 115.482 34.1065C116.126 34.1065 116.728 34.2756 117.287 34.6136C117.851 34.9517 118.306 35.4729 118.652 36.1772C118.998 36.8815 119.171 37.779 119.171 38.8697C119.171 39.9201 119.004 40.7995 118.67 41.5078C118.34 42.2161 117.893 42.7474 117.33 43.1016C116.77 43.4557 116.148 43.6328 115.464 43.6328C114.997 43.6328 114.593 43.5563 114.251 43.4034C113.909 43.2505 113.621 43.0492 113.388 42.7997C113.158 42.5502 112.981 42.2825 112.856 41.9968H112.766V43.5H109.844ZM112.736 38.8636C112.736 39.3627 112.802 39.7973 112.935 40.1676C113.072 40.5379 113.267 40.8256 113.52 41.0309C113.778 41.2321 114.086 41.3327 114.444 41.3327C114.806 41.3327 115.114 41.2321 115.368 41.0309C115.621 40.8256 115.812 40.5379 115.941 40.1676C116.074 39.7973 116.14 39.3627 116.14 38.8636C116.14 38.3646 116.074 37.9319 115.941 37.5657C115.812 37.1994 115.621 36.9157 115.368 36.7145C115.118 36.5132 114.81 36.4126 114.444 36.4126C114.082 36.4126 113.774 36.5112 113.52 36.7084C113.267 36.9056 113.072 37.1874 112.935 37.5536C112.802 37.9199 112.736 38.3565 112.736 38.8636ZM135.593 35.6158H132.574C132.534 35.3059 132.452 35.0261 132.327 34.7766C132.202 34.5271 132.037 34.3138 131.832 34.1367C131.627 33.9596 131.383 33.8248 131.101 33.7322C130.824 33.6356 130.516 33.5873 130.178 33.5873C129.578 33.5873 129.061 33.7342 128.626 34.028C128.196 34.3218 127.864 34.7464 127.63 35.3018C127.401 35.8572 127.286 36.5293 127.286 37.3182C127.286 38.1392 127.403 38.8274 127.636 39.3828C127.874 39.9342 128.206 40.3507 128.632 40.6324C129.063 40.9101 129.572 41.049 130.16 41.049C130.49 41.049 130.79 41.0067 131.059 40.9222C131.333 40.8377 131.572 40.715 131.778 40.554C131.987 40.389 132.158 40.1897 132.291 39.9563C132.428 39.7189 132.522 39.4512 132.574 39.1534L135.593 39.1715C135.541 39.7189 135.382 40.2582 135.116 40.7894C134.854 41.3207 134.494 41.8056 134.035 42.2443C133.577 42.679 133.017 43.0251 132.357 43.2827C131.701 43.5402 130.949 43.669 130.099 43.669C128.98 43.669 127.978 43.4235 127.093 42.9325C126.212 42.4375 125.515 41.7171 125.004 40.7713C124.493 39.8255 124.237 38.6745 124.237 37.3182C124.237 35.9578 124.497 34.8048 125.016 33.859C125.535 32.9132 126.238 32.1948 127.123 31.7038C128.009 31.2128 129.001 30.9673 130.099 30.9673C130.848 30.9673 131.54 31.072 132.176 31.2812C132.812 31.4865 133.371 31.7883 133.854 32.1868C134.337 32.5812 134.73 33.0662 135.031 33.6417C135.333 34.2172 135.52 34.8752 135.593 35.6158ZM141.631 43.6751C140.657 43.6751 139.82 43.4758 139.12 43.0774C138.424 42.6749 137.886 42.1155 137.508 41.3991C137.134 40.6787 136.947 39.8436 136.947 38.8938C136.947 37.94 137.134 37.1049 137.508 36.3885C137.886 35.6681 138.424 35.1087 139.12 34.7102C139.82 34.3078 140.657 34.1065 141.631 34.1065C142.605 34.1065 143.44 34.3078 144.137 34.7102C144.837 35.1087 145.374 35.6681 145.749 36.3885C146.127 37.1049 146.316 37.94 146.316 38.8938C146.316 39.8436 146.127 40.6787 145.749 41.3991C145.374 42.1155 144.837 42.6749 144.137 43.0774C143.44 43.4758 142.605 43.6751 141.631 43.6751ZM141.649 41.4474C142.004 41.4474 142.303 41.3388 142.549 41.1214C142.794 40.9041 142.982 40.6023 143.11 40.2159C143.243 39.8295 143.31 39.3828 143.31 38.8757C143.31 38.3605 143.243 37.9098 143.11 37.5234C142.982 37.1371 142.794 36.8352 142.549 36.6179C142.303 36.4006 142.004 36.2919 141.649 36.2919C141.283 36.2919 140.973 36.4006 140.72 36.6179C140.47 36.8352 140.279 37.1371 140.146 37.5234C140.017 37.9098 139.953 38.3605 139.953 38.8757C139.953 39.3828 140.017 39.8295 140.146 40.2159C140.279 40.6023 140.47 40.9041 140.72 41.1214C140.973 41.3388 141.283 41.4474 141.649 41.4474ZM150.78 38.2116V43.5H147.828V34.2273H150.635V35.9297H150.738C150.943 35.3622 151.293 34.9175 151.788 34.5955C152.284 34.2695 152.873 34.1065 153.557 34.1065C154.209 34.1065 154.775 34.2534 155.254 34.5472C155.737 34.837 156.111 35.2435 156.377 35.7667C156.646 36.2859 156.779 36.8936 156.775 37.5898V43.5H153.823V38.1694C153.827 37.6542 153.696 37.2518 153.431 36.962C153.169 36.6722 152.805 36.5273 152.338 36.5273C152.028 36.5273 151.754 36.5958 151.517 36.7326C151.283 36.8654 151.102 37.0566 150.974 37.3061C150.849 37.5556 150.784 37.8575 150.78 38.2116ZM163.837 34.2273V36.4006H157.987V34.2273H163.837ZM159.212 32.0057H162.164V40.5842C162.164 40.7653 162.193 40.9122 162.249 41.0248C162.309 41.1335 162.396 41.212 162.509 41.2603C162.621 41.3046 162.756 41.3267 162.913 41.3267C163.026 41.3267 163.144 41.3166 163.269 41.2965C163.398 41.2724 163.495 41.2522 163.559 41.2361L164.006 43.3672C163.865 43.4074 163.666 43.4577 163.408 43.5181C163.155 43.5785 162.851 43.6167 162.496 43.6328C161.804 43.665 161.211 43.5845 160.716 43.3913C160.225 43.1941 159.848 42.8882 159.587 42.4737C159.329 42.0592 159.204 41.538 159.212 40.9101V32.0057ZM167.957 43.6569C167.365 43.6569 166.84 43.5583 166.381 43.3611C165.926 43.1599 165.566 42.8581 165.301 42.4556C165.039 42.0491 164.908 41.54 164.908 40.9283C164.908 40.4131 164.999 39.9784 165.18 39.6243C165.361 39.2701 165.611 38.9824 165.928 38.761C166.246 38.5396 166.613 38.3726 167.027 38.2599C167.442 38.1432 167.884 38.0647 168.355 38.0245C168.883 37.9762 169.307 37.9259 169.629 37.8736C169.951 37.8172 170.185 37.7387 170.329 37.6381C170.478 37.5335 170.553 37.3866 170.553 37.1974V37.1672C170.553 36.8574 170.446 36.6179 170.233 36.4489C170.02 36.2798 169.732 36.1953 169.37 36.1953C168.979 36.1953 168.665 36.2798 168.428 36.4489C168.19 36.6179 168.039 36.8513 167.975 37.1491L165.252 37.0525C165.333 36.4891 165.54 35.986 165.874 35.5433C166.212 35.0966 166.675 34.7464 167.263 34.4929C167.854 34.2353 168.565 34.1065 169.394 34.1065C169.985 34.1065 170.531 34.177 171.03 34.3178C171.529 34.4547 171.963 34.6559 172.334 34.9215C172.704 35.1831 172.99 35.5051 173.191 35.8874C173.396 36.2698 173.499 36.7064 173.499 37.1974V43.5H170.722V42.2081H170.649C170.484 42.522 170.273 42.7876 170.015 43.005C169.762 43.2223 169.462 43.3853 169.116 43.494C168.774 43.6026 168.388 43.6569 167.957 43.6569ZM168.868 41.7251C169.186 41.7251 169.472 41.6607 169.726 41.5319C169.983 41.4032 170.189 41.2261 170.341 41.0007C170.494 40.7713 170.571 40.5057 170.571 40.2038V39.3224C170.486 39.3667 170.384 39.4069 170.263 39.4432C170.146 39.4794 170.018 39.5136 169.877 39.5458C169.736 39.578 169.591 39.6062 169.442 39.6303C169.293 39.6545 169.15 39.6766 169.013 39.6967C168.736 39.741 168.498 39.8094 168.301 39.902C168.108 39.9945 167.959 40.1153 167.854 40.2642C167.754 40.4091 167.703 40.5821 167.703 40.7834C167.703 41.0892 167.812 41.3227 168.029 41.4837C168.251 41.6446 168.53 41.7251 168.868 41.7251ZM175.304 43.5V34.2273H178.256V43.5H175.304ZM176.783 33.1467C176.368 33.1467 176.012 33.0098 175.714 32.7361C175.417 32.4584 175.268 32.1244 175.268 31.734C175.268 31.3476 175.417 31.0176 175.714 30.744C176.012 30.4663 176.368 30.3274 176.783 30.3274C177.201 30.3274 177.558 30.4663 177.851 30.744C178.149 31.0176 178.298 31.3476 178.298 31.734C178.298 32.1244 178.149 32.4584 177.851 32.7361C177.558 33.0098 177.201 33.1467 176.783 33.1467ZM183.087 38.2116V43.5H180.135V34.2273H182.942V35.9297H183.045C183.25 35.3622 183.6 34.9175 184.095 34.5955C184.59 34.2695 185.18 34.1065 185.864 34.1065C186.516 34.1065 187.081 34.2534 187.56 34.5472C188.043 34.837 188.418 35.2435 188.683 35.7667C188.953 36.2859 189.086 36.8936 189.082 37.5898V43.5H186.13V38.1694C186.134 37.6542 186.003 37.2518 185.737 36.962C185.476 36.6722 185.111 36.5273 184.644 36.5273C184.335 36.5273 184.061 36.5958 183.823 36.7326C183.59 36.8654 183.409 37.0566 183.28 37.3061C183.155 37.5556 183.091 37.8575 183.087 38.2116ZM195.244 43.6751C194.274 43.6751 193.437 43.4839 192.732 43.1016C192.032 42.7152 191.493 42.1658 191.115 41.4535C190.74 40.7371 190.553 39.8859 190.553 38.8998C190.553 37.942 190.742 37.1049 191.121 36.3885C191.499 35.6681 192.032 35.1087 192.72 34.7102C193.409 34.3078 194.22 34.1065 195.153 34.1065C195.813 34.1065 196.417 34.2092 196.964 34.4144C197.512 34.6197 197.985 34.9235 198.383 35.326C198.781 35.7284 199.091 36.2255 199.313 36.8171C199.534 37.4047 199.645 38.0788 199.645 38.8395V39.576H191.585V37.8615H196.898C196.894 37.5476 196.819 37.2679 196.675 37.0224C196.53 36.7769 196.33 36.5857 196.077 36.4489C195.827 36.308 195.54 36.2376 195.214 36.2376C194.884 36.2376 194.588 36.312 194.326 36.4609C194.065 36.6058 193.857 36.805 193.704 37.0586C193.551 37.3081 193.471 37.5918 193.463 37.9098V39.6545C193.463 40.0328 193.537 40.3648 193.686 40.6506C193.835 40.9323 194.046 41.1516 194.32 41.3086C194.594 41.4655 194.92 41.544 195.298 41.544C195.56 41.544 195.797 41.5078 196.011 41.4354C196.224 41.3629 196.407 41.2563 196.56 41.1154C196.713 40.9745 196.828 40.8015 196.904 40.5962L199.615 40.6747C199.502 41.2824 199.254 41.8117 198.872 42.2624C198.494 42.7092 197.997 43.0573 197.381 43.3068C196.765 43.5523 196.053 43.6751 195.244 43.6751ZM201.152 43.5V34.2273H204.02V35.9176H204.117C204.286 35.3059 204.561 34.8511 204.944 34.5533C205.326 34.2514 205.771 34.1005 206.278 34.1005C206.415 34.1005 206.556 34.1105 206.7 34.1307C206.845 34.1468 206.98 34.1729 207.105 34.2092V36.7748C206.964 36.7266 206.779 36.6883 206.549 36.6601C206.324 36.632 206.123 36.6179 205.946 36.6179C205.596 36.6179 205.28 36.6964 204.998 36.8533C204.72 37.0063 204.501 37.2216 204.34 37.4993C204.183 37.773 204.105 38.0949 204.105 38.4652V43.5H201.152ZM211.96 43.5V31.1364H217.067C217.993 31.1364 218.792 31.3034 219.464 31.6374C220.14 31.9674 220.661 32.4423 221.028 33.0621C221.394 33.6779 221.577 34.4084 221.577 35.2535C221.577 36.1108 221.39 36.8392 221.015 37.4389C220.641 38.0346 220.11 38.4893 219.422 38.8033C218.734 39.1132 217.919 39.2681 216.977 39.2681H213.747V36.9137H216.421C216.872 36.9137 217.248 36.8553 217.55 36.7386C217.856 36.6179 218.088 36.4368 218.245 36.1953C218.401 35.9498 218.48 35.6359 218.48 35.2535C218.48 34.8712 218.401 34.5553 218.245 34.3057C218.088 34.0522 217.856 33.863 217.55 33.7383C217.244 33.6095 216.868 33.5451 216.421 33.5451H214.948V43.5H211.96ZM218.921 37.8494L221.999 43.5H218.74L215.721 37.8494H218.921ZM227.368 43.6751C226.398 43.6751 225.561 43.4839 224.856 43.1016C224.156 42.7152 223.617 42.1658 223.239 41.4535C222.864 40.7371 222.677 39.8859 222.677 38.8998C222.677 37.942 222.866 37.1049 223.245 36.3885C223.623 35.6681 224.156 35.1087 224.844 34.7102C225.533 34.3078 226.344 34.1065 227.277 34.1065C227.937 34.1065 228.541 34.2092 229.088 34.4144C229.636 34.6197 230.109 34.9235 230.507 35.326C230.905 35.7284 231.215 36.2255 231.437 36.8171C231.658 37.4047 231.769 38.0788 231.769 38.8395V39.576H223.709V37.8615H229.022C229.018 37.5476 228.943 37.2679 228.799 37.0224C228.654 36.7769 228.454 36.5857 228.201 36.4489C227.951 36.308 227.664 36.2376 227.338 36.2376C227.008 36.2376 226.712 36.312 226.45 36.4609C226.189 36.6058 225.981 36.805 225.828 37.0586C225.675 37.3081 225.595 37.5918 225.587 37.9098V39.6545C225.587 40.0328 225.661 40.3648 225.81 40.6506C225.959 40.9323 226.171 41.1516 226.444 41.3086C226.718 41.4655 227.044 41.544 227.422 41.544C227.684 41.544 227.921 41.5078 228.135 41.4354C228.348 41.3629 228.531 41.2563 228.684 41.1154C228.837 40.9745 228.952 40.8015 229.028 40.5962L231.739 40.6747C231.626 41.2824 231.378 41.8117 230.996 42.2624C230.618 42.7092 230.121 43.0573 229.505 43.3068C228.889 43.5523 228.177 43.6751 227.368 43.6751ZM237.599 47.1704C236.718 47.1704 235.963 47.0477 235.335 46.8022C234.707 46.5567 234.214 46.2206 233.856 45.794C233.498 45.3674 233.283 44.8845 233.21 44.3452L236.005 44.1882C236.057 44.3774 236.154 44.5424 236.295 44.6832C236.44 44.8241 236.627 44.9328 236.856 45.0092C237.09 45.0857 237.363 45.1239 237.677 45.1239C238.172 45.1239 238.581 45.0032 238.903 44.7617C239.229 44.5243 239.392 44.1077 239.392 43.5121V41.8821H239.289C239.173 42.1678 238.995 42.4234 238.758 42.6488C238.521 42.8742 238.225 43.0512 237.871 43.18C237.52 43.3088 237.118 43.3732 236.663 43.3732C235.987 43.3732 235.367 43.2163 234.804 42.9023C234.244 42.5844 233.796 42.0934 233.458 41.4293C233.124 40.7612 232.957 39.902 232.957 38.8516C232.957 37.7689 233.13 36.8775 233.476 36.1772C233.822 35.4729 234.275 34.9517 234.834 34.6136C235.397 34.2756 236.003 34.1065 236.651 34.1065C237.138 34.1065 237.555 34.191 237.901 34.3601C238.251 34.5251 238.539 34.7384 238.764 35C238.989 35.2616 239.16 35.5333 239.277 35.815H239.362V34.2273H242.302V43.5362C242.302 44.321 242.104 44.9831 241.71 45.5224C241.316 46.0617 240.764 46.4702 240.056 46.7479C239.348 47.0296 238.529 47.1704 237.599 47.1704ZM237.689 41.2241C238.048 41.2241 238.354 41.1295 238.607 40.9403C238.861 40.7512 239.056 40.4795 239.193 40.1253C239.33 39.7712 239.398 39.3466 239.398 38.8516C239.398 38.3485 239.33 37.9158 239.193 37.5536C239.06 37.1874 238.865 36.9056 238.607 36.7084C238.354 36.5112 238.048 36.4126 237.689 36.4126C237.323 36.4126 237.013 36.5132 236.76 36.7145C236.506 36.9157 236.313 37.1994 236.18 37.5657C236.051 37.9279 235.987 38.3565 235.987 38.8516C235.987 39.3466 236.053 39.7712 236.186 40.1253C236.319 40.4795 236.51 40.7512 236.76 40.9403C237.013 41.1295 237.323 41.2241 237.689 41.2241ZM244.184 43.5V34.2273H247.136V43.5H244.184ZM245.663 33.1467C245.248 33.1467 244.892 33.0098 244.594 32.7361C244.296 32.4584 244.147 32.1244 244.147 31.734C244.147 31.3476 244.296 31.0176 244.594 30.744C244.892 30.4663 245.248 30.3274 245.663 30.3274C246.081 30.3274 246.437 30.4663 246.731 30.744C247.029 31.0176 247.178 31.3476 247.178 31.734C247.178 32.1244 247.029 32.4584 246.731 32.7361C246.437 33.0098 246.081 33.1467 245.663 33.1467ZM257.11 37.0586L254.4 37.131C254.372 36.9378 254.295 36.7668 254.17 36.6179C254.046 36.465 253.883 36.3462 253.681 36.2617C253.484 36.1732 253.255 36.1289 252.993 36.1289C252.651 36.1289 252.359 36.1973 252.118 36.3342C251.88 36.471 251.764 36.6561 251.768 36.8895C251.764 37.0707 251.836 37.2276 251.985 37.3604C252.138 37.4932 252.41 37.5999 252.8 37.6804L254.587 38.0185C255.513 38.1955 256.201 38.4893 256.651 38.8998C257.106 39.3104 257.336 39.8537 257.34 40.5298C257.336 41.1657 257.146 41.7191 256.772 42.19C256.402 42.6609 255.895 43.0271 255.251 43.2887C254.607 43.5463 253.87 43.6751 253.041 43.6751C251.717 43.6751 250.673 43.4034 249.908 42.8601C249.148 42.3127 248.713 41.5802 248.604 40.6626L251.52 40.5902C251.584 40.9283 251.751 41.1858 252.021 41.3629C252.291 41.54 252.635 41.6285 253.053 41.6285C253.432 41.6285 253.74 41.5581 253.977 41.4172C254.215 41.2764 254.335 41.0892 254.339 40.8558C254.335 40.6465 254.243 40.4795 254.062 40.3547C253.881 40.226 253.597 40.1253 253.21 40.0529L251.593 39.745C250.663 39.576 249.971 39.2641 249.516 38.8093C249.061 38.3505 248.836 37.7669 248.84 37.0586C248.836 36.4388 249.001 35.9096 249.335 35.4709C249.669 35.0282 250.144 34.6901 250.759 34.4567C251.375 34.2232 252.102 34.1065 252.939 34.1065C254.194 34.1065 255.184 34.3701 255.909 34.8974C256.633 35.4206 257.034 36.141 257.11 37.0586ZM264.027 34.2273V36.4006H258.177V34.2273H264.027ZM259.403 32.0057H262.355V40.5842C262.355 40.7653 262.383 40.9122 262.439 41.0248C262.5 41.1335 262.586 41.212 262.699 41.2603C262.812 41.3046 262.946 41.3267 263.103 41.3267C263.216 41.3267 263.335 41.3166 263.46 41.2965C263.588 41.2724 263.685 41.2522 263.749 41.2361L264.196 43.3672C264.055 43.4074 263.856 43.4577 263.598 43.5181C263.345 43.5785 263.041 43.6167 262.687 43.6328C261.995 43.665 261.401 43.5845 260.906 43.3913C260.415 43.1941 260.039 42.8882 259.777 42.4737C259.52 42.0592 259.395 41.538 259.403 40.9101V32.0057ZM265.533 43.5V34.2273H268.401V35.9176H268.497C268.666 35.3059 268.942 34.8511 269.324 34.5533C269.707 34.2514 270.152 34.1005 270.659 34.1005C270.795 34.1005 270.936 34.1105 271.081 34.1307C271.226 34.1468 271.361 34.1729 271.486 34.2092V36.7748C271.345 36.7266 271.16 36.6883 270.93 36.6601C270.705 36.632 270.504 36.6179 270.327 36.6179C269.976 36.6179 269.661 36.6964 269.379 36.8533C269.101 37.0063 268.882 37.2216 268.721 37.4993C268.564 37.773 268.485 38.0949 268.485 38.4652V43.5H265.533ZM274.776 46.9773C274.422 46.9773 274.088 46.9491 273.774 46.8927C273.46 46.8404 273.19 46.77 272.965 46.6815L273.617 44.5383C273.907 44.6349 274.168 44.6913 274.402 44.7074C274.639 44.7235 274.842 44.6852 275.011 44.5927C275.184 44.5041 275.317 44.3452 275.41 44.1158L275.524 43.8381L272.228 34.2273H275.319L277.028 40.8437H277.124L278.857 34.2273H281.966L278.47 44.3874C278.301 44.8945 278.062 45.3413 277.752 45.7276C277.446 46.118 277.05 46.4239 276.563 46.6452C276.08 46.8666 275.484 46.9773 274.776 46.9773Z" fill="white"/>
</g>
<defs>
<filter id="filter0_d_1_50" x="6.28571" y="2.28571" width="51.4286" height="51.4286" filterUnits="userSpaceOnUse" color-interpolation-filters="sRGB">
<feFlood flood-opacity="0" result="BackgroundImageFix"/>
<feColorMatrix in="SourceAlpha" type="matrix" values="0 0 0 0 0 0 0 0 0 0 0 0 0 0 0 0 0 0 127 0" result="hardAlpha"/>
<feOffset/>
<feGaussianBlur stdDeviation="2.85714"/>
<feComposite in2="hardAlpha" operator="out"/>
<feColorMatrix type="matrix" values="0 0 0 0 0 0 0 0 0 0 0 0 0 0 0 0 0 0 0.25 0"/>
<feBlend mode="normal" in2="BackgroundImageFix" result="effect1_dropShadow_1_50"/>
<feBlend mode="normal" in="SourceGraphic" in2="effect1_dropShadow_1_50" result="shape"/>
</filter>
<filter id="filter1_d_1_50" x="54.4" y="3.9" width="234.2" height="48.8704" filterUnits="userSpaceOnUse" color-interpolation-filters="sRGB">
<feFlood flood-opacity="0" result="BackgroundImageFix"/>
<feColorMatrix in="SourceAlpha" type="matrix" values="0 0 0 0 0 0 0 0 0 0 0 0 0 0 0 0 0 0 127 0" result="hardAlpha"/>
<feOffset/>
<feGaussianBlur stdDeviation="2.8"/>
<feComposite in2="hardAlpha" operator="out"/>
<feColorMatrix type="matrix" values="0 0 0 0 0 0 0 0 0 0 0 0 0 0 0 0 0 0 0.25 0"/>
<feBlend mode="normal" in2="BackgroundImageFix" result="effect1_dropShadow_1_50"/>
<feBlend mode="normal" in="SourceGraphic" in2="effect1_dropShadow_1_50" result="shape"/>
</filter>
<linearGradient id="paint0_linear_1_50" x1="147.5" y1="0" x2="147.5" y2="56" gradientUnits="userSpaceOnUse">
<stop stop-color="#181F29"/>
<stop offset="1" stop-color="#0F131A"/>
</linearGradient>
</defs>
</svg>
