<svg width="175" height="40" viewBox="0 0 175 40" fill="none" xmlns="http://www.w3.org/2000/svg">
<rect width="175.001" height="40.0014" rx="8" fill="url(#paint0_linear_1_56)"/>
<rect x="1.07143" y="1.07143" width="172.859" height="37.8585" rx="6.92857" stroke="white" stroke-opacity="0.15" stroke-width="2.14286"/>
<g filter="url(#filter0_d_1_56)">
<path d="M35.998 13.7554C35.9964 13.4738 35.9933 13.1924 35.9855 12.9105C35.9691 12.2972 35.9328 11.6784 35.8238 11.0717C35.7132 10.4555 35.5324 9.8826 35.2475 9.32289C34.9678 8.77323 34.6021 8.27023 34.1659 7.83405C33.7298 7.39786 33.2268 7.03225 32.6769 6.75239C32.1177 6.46778 31.5447 6.28702 30.9291 6.17642C30.3221 6.06709 29.7033 6.03107 29.0895 6.01447C28.8077 6.00684 28.5262 6.00363 28.2445 6.00189C27.9102 6 27.5756 6 27.2413 6H19.8293H16.7587C16.4241 6 16.0899 6 15.7557 6.00193C15.4739 6.00368 15.192 6.00688 14.9107 6.01452C14.7573 6.01867 14.6035 6.02404 14.4497 6.03145C13.9882 6.0537 13.5261 6.09448 13.071 6.17646C12.6093 6.25944 12.1715 6.38183 11.7456 6.55792C11.6037 6.61657 11.463 6.68125 11.3231 6.75239C10.9107 6.96228 10.5246 7.2204 10.1734 7.52034C10.0564 7.62034 9.94316 7.72495 9.83416 7.834C9.39788 8.27019 9.03222 8.77318 8.7525 9.32285C8.46756 9.88256 8.28699 10.4555 8.17629 11.0716C8.06739 11.6783 8.03118 12.2971 8.01468 12.9104C8.00695 13.1923 8.0037 13.4738 8.00186 13.7554C7.99974 14.0898 8.00002 14.4243 8.00002 14.7587V19.3233V25.2412C8.00002 25.5759 7.99969 25.91 8.00186 26.2447C8.0037 26.5263 8.00695 26.8078 8.01468 27.0892C8.03118 27.7028 8.06734 28.3218 8.17629 28.9282C8.28699 29.5442 8.46756 30.1176 8.7525 30.6772C9.03222 31.227 9.39788 31.7298 9.83416 32.1658C10.2701 32.6022 10.7732 32.9678 11.3232 33.2478C11.8825 33.5325 12.4554 33.713 13.0712 33.8236C13.6778 33.9328 14.2971 33.9691 14.9107 33.9855C15.1921 33.993 15.4739 33.9963 15.7557 33.9979C16.09 34.0003 16.4242 34 16.7588 34H27.2413C27.5756 34 27.9102 34.0003 28.2445 33.9979C28.5262 33.9963 28.8077 33.993 29.0895 33.9855C29.7032 33.9691 30.322 33.9327 30.9291 33.8236C31.5447 33.713 32.1177 33.5324 32.6769 33.2478C33.2268 32.9678 33.7298 32.6022 34.1659 32.1658C34.6021 31.7298 34.9678 31.227 35.2474 30.6772C35.5324 30.1176 35.7132 29.5442 35.8238 28.9282C35.9328 28.3218 35.9691 27.7028 35.9855 27.0892C35.9932 26.8078 35.9963 26.5263 35.998 26.2447C36.0002 25.91 36 25.5759 36 25.2412V14.7587C36 14.4243 36.0002 14.0898 35.998 13.7554Z" fill="#F05138"/>
<path d="M30.1869 23.2838C30.1862 23.2829 30.1856 23.2823 30.1849 23.2815C30.2159 23.1761 30.2478 23.0714 30.2749 22.9633C31.4371 18.3332 28.6007 12.8592 23.8011 9.97694C25.9044 12.8282 26.8344 16.2818 26.0081 19.302C25.9344 19.5714 25.8459 19.83 25.7479 20.0813C25.6417 20.0114 25.5078 19.9322 25.328 19.833C25.328 19.833 20.5536 16.8852 15.379 11.6712C15.2432 11.5343 18.1383 15.8091 21.4239 19.2804C19.8759 18.4116 15.562 15.2728 12.8309 12.7732C13.1665 13.3328 13.5656 13.8716 14.0042 14.3904C16.2849 17.2827 19.2591 20.8513 22.8224 23.5917C20.3188 25.1238 16.7812 25.2429 13.2589 23.5933C12.3877 23.185 11.5687 22.6924 10.8106 22.1326C12.3015 24.5175 14.5978 26.5751 17.3927 27.7763C20.7256 29.2086 24.04 29.1115 26.5085 27.7998L26.5066 27.8026C26.5178 27.7955 26.5322 27.7877 26.5438 27.7805C26.6452 27.726 26.7458 27.6705 26.8442 27.6119C28.0302 26.9963 30.3729 26.3717 31.6303 28.8183C31.9383 29.417 32.5926 26.244 30.1869 23.2838Z" fill="white"/>
</g>
<g filter="url(#filter1_d_1_56)">
<path d="M43.3597 26.5007V14.1371H47.8874C48.7648 14.1371 49.4912 14.282 50.0667 14.5717C50.6423 14.8575 51.0729 15.2458 51.3586 15.7369C51.6444 16.2238 51.7873 16.7732 51.7873 17.3849C51.7873 17.9001 51.6927 18.3347 51.5035 18.6889C51.3144 19.0391 51.0608 19.3208 50.7429 19.5341C50.429 19.7434 50.0828 19.8963 49.7045 19.9929V20.1136C50.115 20.1337 50.5155 20.2666 50.9059 20.5121C51.3003 20.7535 51.6263 21.0976 51.8839 21.5444C52.1414 21.9911 52.2702 22.5344 52.2702 23.1743C52.2702 23.8062 52.1213 24.3737 51.8235 24.8768C51.5297 25.3758 51.0749 25.7722 50.4591 26.066C49.8434 26.3558 49.0566 26.5007 48.0987 26.5007H43.3597ZM45.2251 24.9009H47.9176C48.8111 24.9009 49.451 24.7279 49.8373 24.3817C50.2237 24.0356 50.4169 23.603 50.4169 23.0838C50.4169 22.6934 50.3183 22.3352 50.1211 22.0092C49.9239 21.6832 49.6421 21.4236 49.2759 21.2305C48.9137 21.0373 48.483 20.9407 47.984 20.9407H45.2251V24.9009ZM45.2251 19.4858H47.7244C48.143 19.4858 48.5193 19.4053 48.8533 19.2443C49.1914 19.0833 49.459 18.8579 49.6562 18.5682C49.8575 18.2744 49.9581 17.9283 49.9581 17.5298C49.9581 17.0187 49.779 16.5901 49.4208 16.244C49.0626 15.8978 48.5132 15.7248 47.7727 15.7248H45.2251V19.4858ZM60.2118 22.6552V17.228H62.0229V26.5007H60.248V24.8949H60.1514C59.9381 25.3899 59.596 25.8024 59.1251 26.1324C58.6583 26.4584 58.0767 26.6214 57.3805 26.6214C56.7848 26.6214 56.2576 26.4906 55.7988 26.229C55.344 25.9634 54.9858 25.571 54.7242 25.0518C54.4667 24.5327 54.3379 23.8907 54.3379 23.1261V17.228H56.1429V22.9087C56.1429 23.5406 56.318 24.0437 56.6681 24.418C57.0183 24.7922 57.473 24.9794 58.0325 24.9794C58.3705 24.9794 58.7066 24.8949 59.0406 24.7258C59.3787 24.5568 59.6584 24.3012 59.8798 23.9591C60.1051 23.6171 60.2158 23.1824 60.2118 22.6552ZM64.4482 26.5007V17.228H66.2533V26.5007H64.4482ZM65.3598 15.7972C65.0459 15.7972 64.7762 15.6926 64.5508 15.4833C64.3295 15.27 64.2188 15.0164 64.2188 14.7226C64.2188 14.4248 64.3295 14.1713 64.5508 13.962C64.7762 13.7487 65.0459 13.642 65.3598 13.642C65.6737 13.642 65.9413 13.7487 66.1627 13.962C66.3881 14.1713 66.5008 14.4248 66.5008 14.7226C66.5008 15.0164 66.3881 15.27 66.1627 15.4833C65.9413 15.6926 65.6737 15.7972 65.3598 15.7972ZM70.4867 14.1371V26.5007H68.6816V14.1371H70.4867ZM77.2435 17.228V18.6768H72.1785V17.228H77.2435ZM73.5368 15.0064H75.3419V23.778C75.3419 24.1282 75.3942 24.3918 75.4988 24.5689C75.6035 24.7419 75.7383 24.8607 75.9033 24.9251C76.0723 24.9854 76.2554 25.0156 76.4526 25.0156C76.5975 25.0156 76.7243 25.0056 76.833 24.9854C76.9416 24.9653 77.0262 24.9492 77.0865 24.9371L77.4125 26.4283C77.3079 26.4685 77.159 26.5087 76.9658 26.549C76.7726 26.5933 76.5311 26.6174 76.2414 26.6214C75.7664 26.6295 75.3237 26.545 74.9132 26.3679C74.5027 26.1908 74.1707 25.9171 73.9171 25.5469C73.6636 25.1766 73.5368 24.7118 73.5368 24.1523V15.0064ZM85.7495 26.5007L83.0208 17.228H84.8862L86.7034 24.0376H86.7939L88.6171 17.228H90.4825L92.2936 24.0074H92.3841L94.1891 17.228H96.0546L93.3319 26.5007H91.4906L89.6071 19.8057H89.4683L87.5847 26.5007H85.7495ZM97.7675 26.5007V17.228H99.5726V26.5007H97.7675ZM98.6791 15.7972C98.3652 15.7972 98.0955 15.6926 97.8702 15.4833C97.6488 15.27 97.5381 15.0164 97.5381 14.7226C97.5381 14.4248 97.6488 14.1713 97.8702 13.962C98.0955 13.7487 98.3652 13.642 98.6791 13.642C98.993 13.642 99.2607 13.7487 99.482 13.962C99.7074 14.1713 99.8201 14.4248 99.8201 14.7226C99.8201 15.0164 99.7074 15.27 99.482 15.4833C99.2607 15.6926 98.993 15.7972 98.6791 15.7972ZM106.329 17.228V18.6768H101.264V17.228H106.329ZM102.623 15.0064H104.428V23.778C104.428 24.1282 104.48 24.3918 104.585 24.5689C104.689 24.7419 104.824 24.8607 104.989 24.9251C105.158 24.9854 105.341 25.0156 105.539 25.0156C105.683 25.0156 105.81 25.0056 105.919 24.9854C106.028 24.9653 106.112 24.9492 106.172 24.9371L106.498 26.4283C106.394 26.4685 106.245 26.5087 106.052 26.549C105.859 26.5933 105.617 26.6174 105.327 26.6214C104.852 26.6295 104.41 26.545 103.999 26.3679C103.589 26.1908 103.257 25.9171 103.003 25.5469C102.75 25.1766 102.623 24.7118 102.623 24.1523V15.0064ZM110.33 20.995V26.5007H108.525V14.1371H110.306V18.7372H110.421C110.638 18.2382 110.97 17.8417 111.417 17.5479C111.864 17.2541 112.447 17.1072 113.168 17.1072C113.804 17.1072 114.359 17.238 114.834 17.4996C115.313 17.7612 115.683 18.1516 115.945 18.6708C116.21 19.1859 116.343 19.8299 116.343 20.6026V26.5007H114.538V20.8199C114.538 20.1398 114.363 19.6126 114.013 19.2383C113.663 18.86 113.176 18.6708 112.552 18.6708C112.125 18.6708 111.743 18.7614 111.405 18.9425C111.071 19.1236 110.807 19.3892 110.614 19.7393C110.425 20.0855 110.33 20.504 110.33 20.995Z" fill="#E8E8E8"/>
<path d="M129.62 17.8437C129.58 17.401 129.401 17.0569 129.083 16.8114C128.769 16.5619 128.32 16.4371 127.736 16.4371C127.35 16.4371 127.028 16.4874 126.771 16.5881C126.513 16.6887 126.32 16.8275 126.191 17.0046C126.062 17.1777 125.996 17.3769 125.992 17.6023C125.984 17.7874 126.02 17.9504 126.1 18.0913C126.185 18.2321 126.306 18.3569 126.463 18.4655C126.624 18.5702 126.817 18.6627 127.042 18.7432C127.268 18.8237 127.521 18.8942 127.803 18.9545L128.865 19.196C129.477 19.3288 130.016 19.5059 130.483 19.7273C130.954 19.9486 131.349 20.2122 131.666 20.5181C131.988 20.824 132.232 21.1761 132.397 21.5746C132.562 21.973 132.646 22.4197 132.651 22.9148C132.646 23.6955 132.449 24.3656 132.059 24.9251C131.669 25.4845 131.107 25.9131 130.375 26.2109C129.646 26.5087 128.767 26.6577 127.736 26.6577C126.702 26.6577 125.801 26.5027 125.032 26.1928C124.263 25.8829 123.666 25.412 123.239 24.7802C122.812 24.1483 122.593 23.3494 122.581 22.3835H125.442C125.467 22.7819 125.573 23.114 125.762 23.3796C125.952 23.6452 126.211 23.8465 126.541 23.9833C126.875 24.1201 127.262 24.1886 127.7 24.1886C128.103 24.1886 128.445 24.1342 128.727 24.0256C129.012 23.9169 129.232 23.766 129.385 23.5728C129.537 23.3796 129.616 23.1582 129.62 22.9087C129.616 22.6753 129.544 22.4761 129.403 22.3111C129.262 22.142 129.044 21.9971 128.751 21.8764C128.461 21.7516 128.091 21.6369 127.64 21.5323L126.348 21.2305C125.277 20.985 124.434 20.5885 123.818 20.0412C123.203 19.4898 122.897 18.7453 122.901 17.8075C122.897 17.0428 123.102 16.3727 123.517 15.7972C123.931 15.2217 124.505 14.773 125.237 14.451C125.97 14.129 126.805 13.968 127.742 13.968C128.7 13.968 129.531 14.131 130.236 14.457C130.944 14.779 131.493 15.2318 131.884 15.8153C132.274 16.3989 132.473 17.075 132.481 17.8437H129.62ZM135.892 26.5007L133.478 17.228H136.442L137.691 23.1683H137.77L139.11 17.228H142.002L143.378 23.1261H143.457L144.67 17.228H147.634L145.213 26.5007H142.056L140.607 21.0976H140.505L139.056 26.5007H135.892ZM148.819 26.5007V17.228H151.771V26.5007H148.819ZM150.298 16.1474C149.883 16.1474 149.527 16.0105 149.229 15.7369C148.932 15.4592 148.783 15.1251 148.783 14.7347C148.783 14.3484 148.932 14.0183 149.229 13.7447C149.527 13.467 149.883 13.3281 150.298 13.3281C150.717 13.3281 151.073 13.467 151.367 13.7447C151.664 14.0183 151.813 14.3484 151.813 14.7347C151.813 15.1251 151.664 15.4592 151.367 15.7369C151.073 16.0105 150.717 16.1474 150.298 16.1474ZM158.92 17.228V19.4013H152.956V17.228H158.92ZM154.199 26.5007V16.7571C154.199 16.0407 154.334 15.4471 154.604 14.9762C154.873 14.5013 155.248 14.1471 155.727 13.9137C156.206 13.6762 156.759 13.5575 157.387 13.5575C157.797 13.5575 158.184 13.5897 158.546 13.6541C158.912 13.7145 159.184 13.7688 159.361 13.8171L158.89 15.9783C158.781 15.9421 158.649 15.9119 158.492 15.8878C158.339 15.8636 158.194 15.8516 158.057 15.8516C157.711 15.8516 157.473 15.928 157.345 16.081C157.216 16.2339 157.151 16.4432 157.151 16.7088V26.5007H154.199ZM165.574 17.228V19.4013H159.725V17.228H165.574ZM160.95 15.0064H163.902V23.5849C163.902 23.766 163.93 23.9129 163.987 24.0256C164.047 24.1342 164.134 24.2127 164.246 24.261C164.359 24.3053 164.494 24.3274 164.651 24.3274C164.763 24.3274 164.882 24.3173 165.007 24.2972C165.136 24.2731 165.232 24.2529 165.297 24.2368L165.743 26.3679C165.603 26.4081 165.403 26.4584 165.146 26.5188C164.892 26.5792 164.588 26.6174 164.234 26.6335C163.542 26.6657 162.948 26.5852 162.453 26.392C161.962 26.1948 161.586 25.889 161.324 25.4744C161.067 25.0599 160.942 24.5387 160.95 23.9109V15.0064Z" fill="#F05138"/>
</g>
<defs>
<filter id="filter0_d_1_56" x="2.39972" y="0.39972" width="39.202" height="39.202" filterUnits="userSpaceOnUse" color-interpolation-filters="sRGB">
<feFlood flood-opacity="0" result="BackgroundImageFix"/>
<feColorMatrix in="SourceAlpha" type="matrix" values="0 0 0 0 0 0 0 0 0 0 0 0 0 0 0 0 0 0 127 0" result="hardAlpha"/>
<feOffset/>
<feGaussianBlur stdDeviation="2.80014"/>
<feComposite in2="hardAlpha" operator="out"/>
<feColorMatrix type="matrix" values="0 0 0 0 0 0 0 0 0 0 0 0 0 0 0 0 0 0 0.25 0"/>
<feBlend mode="normal" in2="BackgroundImageFix" result="effect1_dropShadow_1_56"/>
<feBlend mode="normal" in="SourceGraphic" in2="effect1_dropShadow_1_56" result="shape"/>
</filter>
<filter id="filter1_d_1_56" x="36.2871" y="3.78642" width="136.429" height="32.4286" filterUnits="userSpaceOnUse" color-interpolation-filters="sRGB">
<feFlood flood-opacity="0" result="BackgroundImageFix"/>
<feColorMatrix in="SourceAlpha" type="matrix" values="0 0 0 0 0 0 0 0 0 0 0 0 0 0 0 0 0 0 127 0" result="hardAlpha"/>
<feOffset/>
<feGaussianBlur stdDeviation="2.85714"/>
<feComposite in2="hardAlpha" operator="out"/>
<feColorMatrix type="matrix" values="0 0 0 0 0 0 0 0 0 0 0 0 0 0 0 0 0 0 0.25 0"/>
<feBlend mode="normal" in2="BackgroundImageFix" result="effect1_dropShadow_1_56"/>
<feBlend mode="normal" in="SourceGraphic" in2="effect1_dropShadow_1_56" result="shape"/>
</filter>
<linearGradient id="paint0_linear_1_56" x1="87.5007" y1="0" x2="87.5007" y2="40.0014" gradientUnits="userSpaceOnUse">
<stop stop-color="#A5210C"/>
<stop offset="1" stop-color="#6E1608"/>
</linearGradient>
</defs>
</svg>
