<svg width="40" height="40" viewBox="0 0 40 40" fill="none" xmlns="http://www.w3.org/2000/svg">
<rect width="40" height="40" rx="8" fill="url(#paint0_linear_1_68)"/>
<rect x="1.05" y="1.05" width="37.9" height="37.9" rx="6.95" stroke="white" stroke-opacity="0.15" stroke-width="2.1"/>
<g filter="url(#filter0_d_1_68)">
<path d="M33.998 13.7554C33.9964 13.4738 33.9933 13.1924 33.9855 12.9105C33.9691 12.2972 33.9328 11.6784 33.8238 11.0717C33.7132 10.4555 33.5324 9.8826 33.2475 9.32289C32.9678 8.77323 32.6021 8.27023 32.1659 7.83405C31.7298 7.39786 31.2268 7.03225 30.6769 6.75239C30.1177 6.46778 29.5447 6.28702 28.9291 6.17642C28.3221 6.06709 27.7033 6.03107 27.0895 6.01447C26.8077 6.00684 26.5262 6.00363 26.2445 6.00189C25.9102 6 25.5756 6 25.2413 6H17.8293H14.7587C14.4241 6 14.0899 6 13.7557 6.00193C13.4739 6.00368 13.192 6.00688 12.9107 6.01452C12.7573 6.01867 12.6035 6.02404 12.4497 6.03145C11.9882 6.0537 11.5261 6.09448 11.071 6.17646C10.6093 6.25944 10.1715 6.38183 9.74562 6.55792C9.60366 6.61657 9.46298 6.68125 9.32315 6.75239C8.91072 6.96228 8.5246 7.2204 8.17342 7.52034C8.05635 7.62034 7.94316 7.72495 7.83416 7.834C7.39788 8.27019 7.03222 8.77318 6.7525 9.32285C6.46756 9.88256 6.28699 10.4555 6.17629 11.0716C6.06739 11.6783 6.03118 12.2971 6.01468 12.9104C6.00695 13.1923 6.0037 13.4738 6.00186 13.7554C5.99974 14.0898 6.00002 14.4243 6.00002 14.7587V19.3233V25.2412C6.00002 25.5759 5.99969 25.91 6.00186 26.2447C6.0037 26.5263 6.00695 26.8078 6.01468 27.0892C6.03118 27.7028 6.06734 28.3218 6.17629 28.9282C6.28699 29.5442 6.46756 30.1176 6.7525 30.6772C7.03222 31.227 7.39788 31.7298 7.83416 32.1658C8.27011 32.6022 8.77324 32.9678 9.32319 33.2478C9.88248 33.5325 10.4554 33.713 11.0712 33.8236C11.6778 33.9328 12.2971 33.9691 12.9107 33.9855C13.1921 33.993 13.4739 33.9963 13.7557 33.9979C14.09 34.0003 14.4242 34 14.7588 34H25.2413C25.5756 34 25.9102 34.0003 26.2445 33.9979C26.5262 33.9963 26.8077 33.993 27.0895 33.9855C27.7032 33.9691 28.322 33.9327 28.9291 33.8236C29.5447 33.713 30.1177 33.5324 30.6769 33.2478C31.2268 32.9678 31.7298 32.6022 32.1659 32.1658C32.6021 31.7298 32.9678 31.227 33.2474 30.6772C33.5324 30.1176 33.7132 29.5442 33.8238 28.9282C33.9328 28.3218 33.9691 27.7028 33.9855 27.0892C33.9932 26.8078 33.9963 26.5263 33.998 26.2447C34.0002 25.91 34 25.5759 34 25.2412V14.7587C34 14.4243 34.0002 14.0898 33.998 13.7554Z" fill="#F05138"/>
<path d="M28.1869 23.2838C28.1862 23.2829 28.1856 23.2823 28.1849 23.2815C28.2158 23.1761 28.2478 23.0714 28.2749 22.9633C29.437 18.3332 26.6007 12.8592 21.8011 9.97694C23.9044 12.8282 24.8344 16.2818 24.0081 19.302C23.9344 19.5714 23.8459 19.83 23.7479 20.0813C23.6417 20.0114 23.5078 19.9322 23.328 19.833C23.328 19.833 18.5536 16.8852 13.379 11.6712C13.2432 11.5343 16.1383 15.8091 19.4239 19.2804C17.8759 18.4116 13.562 15.2728 10.8309 12.7732C11.1665 13.3328 11.5655 13.8716 12.0042 14.3904C14.2849 17.2827 17.2591 20.8513 20.8224 23.5917C18.3188 25.1238 14.7812 25.2429 11.2589 23.5933C10.3877 23.185 9.56871 22.6924 8.81057 22.1326C10.3015 24.5175 12.5978 26.5751 15.3927 27.7763C18.7256 29.2086 22.04 29.1115 24.5085 27.7998L24.5066 27.8026C24.5178 27.7955 24.5322 27.7877 24.5438 27.7805C24.6452 27.726 24.7458 27.6705 24.8442 27.6119C26.0302 26.9963 28.3729 26.3717 29.6303 28.8183C29.9383 29.417 30.5926 26.244 28.1869 23.2838Z" fill="white"/>
</g>
<defs>
<filter id="filter0_d_1_68" x="2" y="2" width="36" height="36" filterUnits="userSpaceOnUse" color-interpolation-filters="sRGB">
<feFlood flood-opacity="0" result="BackgroundImageFix"/>
<feColorMatrix in="SourceAlpha" type="matrix" values="0 0 0 0 0 0 0 0 0 0 0 0 0 0 0 0 0 0 127 0" result="hardAlpha"/>
<feOffset/>
<feGaussianBlur stdDeviation="2"/>
<feComposite in2="hardAlpha" operator="out"/>
<feColorMatrix type="matrix" values="0 0 0 0 0 0 0 0 0 0 0 0 0 0 0 0 0 0 0.25 0"/>
<feBlend mode="normal" in2="BackgroundImageFix" result="effect1_dropShadow_1_68"/>
<feBlend mode="normal" in="SourceGraphic" in2="effect1_dropShadow_1_68" result="shape"/>
</filter>
<linearGradient id="paint0_linear_1_68" x1="20" y1="0" x2="20" y2="40" gradientUnits="userSpaceOnUse">
<stop stop-color="#A5210C"/>
<stop offset="0.9998" stop-color="#6E1608"/>
<stop offset="0.9999" stop-color="#3D1756"/>
<stop offset="1" stop-color="#023E6D"/>
<stop offset="1" stop-color="#6E1608"/>
</linearGradient>
</defs>
</svg>
