<svg width="144" height="56" viewBox="0 0 144 56" fill="none" xmlns="http://www.w3.org/2000/svg">
<rect width="144" height="56" rx="8" fill="url(#paint0_linear_1_50)"/>
<rect x="1.05" y="1.05" width="141.9" height="53.9" rx="6.95" stroke="white" stroke-opacity="0.15" stroke-width="2.1"/>
<g filter="url(#filter0_d_1_50)">
<path d="M51.9972 19.0792C51.9949 18.6769 51.9904 18.2748 51.9793 17.8721C51.9559 16.996 51.9041 16.112 51.7483 15.2452C51.5903 14.365 51.3321 13.5466 50.925 12.747C50.5254 11.9618 50.003 11.2432 49.3799 10.6201C48.7569 9.99694 48.0384 9.47464 47.2528 9.07485C46.4539 8.66825 45.6353 8.41003 44.7559 8.25203C43.8887 8.09584 43.0047 8.04438 42.1279 8.02068C41.7253 8.00977 41.3232 8.00519 40.9208 8.00269C40.4431 8 39.9651 8 39.4876 8H28.899H24.5125C24.0345 8 23.557 8 23.0795 8.00276C22.677 8.00525 22.2743 8.00983 21.8724 8.02074C21.6532 8.02667 21.4336 8.03435 21.2138 8.04492C20.5546 8.07671 19.8944 8.13497 19.2443 8.25209C18.5847 8.37063 17.9593 8.54547 17.3509 8.79702C17.1481 8.88081 16.9471 8.97321 16.7474 9.07485C16.1582 9.37469 15.6066 9.74343 15.1049 10.1719C14.9376 10.3148 14.7759 10.4642 14.6202 10.62C13.997 11.2431 13.4746 11.9617 13.075 12.7469C12.6679 13.5465 12.41 14.3649 12.2518 15.2452C12.0963 16.1119 12.0445 16.9959 12.021 17.872C12.0099 18.2748 12.0053 18.6769 12.0027 19.0791C11.9996 19.5569 12 20.0348 12 20.5124V27.0332V35.4874C12 35.9655 11.9996 36.4429 12.0027 36.921C12.0053 37.3233 12.0099 37.7254 12.021 38.1275C12.0445 39.004 12.0962 39.8883 12.2518 40.7546C12.41 41.6345 12.6679 42.4537 13.075 43.2531C13.4746 44.0385 13.997 44.7569 14.6202 45.3797C15.243 46.0031 15.9618 46.5254 16.7474 46.9254C17.5464 47.3321 18.3649 47.59 19.2445 47.748C20.1112 47.904 20.9959 47.9558 21.8725 47.9793C22.2744 47.99 22.677 47.9948 23.0796 47.997C23.5571 48.0005 24.0345 48 24.5125 48H39.4876C39.9651 48 40.4431 48.0005 40.9207 47.997C41.3231 47.9948 41.7253 47.99 42.1278 47.9793C43.0046 47.9558 43.8886 47.9039 44.7558 47.748C45.6352 47.59 46.4538 47.332 47.2527 46.9254C48.0383 46.5254 48.7568 46.0031 49.3798 45.3797C50.003 44.7568 50.5254 44.0385 50.9249 43.2531C51.332 42.4537 51.5903 41.6346 51.7483 40.7546C51.904 39.8883 51.9558 39.004 51.9792 38.1275C51.9903 37.7254 51.9947 37.3234 51.9971 36.921C52.0002 36.4429 52 35.9655 52 35.4874V20.5124C52 20.0348 52.0002 19.5569 51.9972 19.0792Z" fill="#F05138"/>
<path d="M43.6955 32.6911C43.6946 32.6899 43.6937 32.689 43.6927 32.6879C43.7369 32.5373 43.7826 32.3876 43.8213 32.2333C45.4815 25.6189 41.4296 17.7988 34.573 13.6813C37.5777 17.7546 38.9063 22.6883 37.7259 27.0029C37.6206 27.3878 37.4941 27.7571 37.3542 28.1161C37.2024 28.0163 37.0111 27.9031 36.7542 27.7615C36.7542 27.7615 29.9337 23.5503 22.5414 16.1016C22.3475 15.9061 26.4833 22.013 31.177 26.9719C28.9656 25.7309 22.8028 21.2469 18.9013 17.676C19.3807 18.4754 19.9508 19.2452 20.5775 19.9862C23.8356 24.1181 28.0845 29.2162 33.1749 33.1309C29.5983 35.3197 24.5446 35.4899 19.5127 33.1332C18.2682 32.55 17.0982 31.8462 16.0151 31.0466C18.1451 34.4536 21.4255 37.393 25.4181 39.109C30.1794 41.1552 34.9142 41.0164 38.4407 39.1426L38.4379 39.1466C38.454 39.1364 38.4745 39.1253 38.4912 39.115C38.636 39.0372 38.7797 38.9579 38.9203 38.8742C40.6146 37.9947 43.9613 37.1024 45.7576 40.5975C46.1975 41.4529 47.1323 36.9199 43.6955 32.6911Z" fill="white"/>
</g>
<g filter="url(#filter1_d_1_50)">
<path d="M61.2784 24.5V12.8636H65.5398C66.3655 12.8636 67.0492 13 67.5909 13.2727C68.1326 13.5417 68.5379 13.9072 68.8068 14.3693C69.0757 14.8276 69.2102 15.3447 69.2102 15.9204C69.2102 16.4053 69.1212 16.8144 68.9432 17.1477C68.7651 17.4773 68.5265 17.7424 68.2273 17.9432C67.9318 18.1401 67.606 18.2841 67.25 18.375V18.4886C67.6363 18.5076 68.0132 18.6326 68.3807 18.8636C68.7519 19.0909 69.0587 19.4148 69.3011 19.8352C69.5435 20.2557 69.6648 20.767 69.6648 21.3693C69.6648 21.964 69.5246 22.4981 69.2443 22.9716C68.9678 23.4413 68.5398 23.8144 67.9602 24.0909C67.3807 24.3636 66.6401 24.5 65.7386 24.5H61.2784ZM63.0341 22.9943H65.5682C66.4091 22.9943 67.0113 22.8314 67.375 22.5057C67.7386 22.1799 67.9204 21.7727 67.9204 21.2841C67.9204 20.9167 67.8276 20.5795 67.642 20.2727C67.4564 19.9659 67.1913 19.7216 66.8466 19.5398C66.5057 19.3579 66.1004 19.267 65.6307 19.267H63.0341V22.9943ZM63.0341 17.8977H65.3863C65.7803 17.8977 66.1345 17.822 66.4488 17.6704C66.767 17.5189 67.0189 17.3068 67.2045 17.0341C67.3939 16.7576 67.4886 16.4318 67.4886 16.0568C67.4886 15.5758 67.3201 15.1723 66.9829 14.8466C66.6458 14.5208 66.1288 14.3579 65.4318 14.3579H63.0341V17.8977ZM77.1392 20.8807V15.7727H78.8437V24.5H77.1733V22.9886H77.0824C76.8816 23.4545 76.5596 23.8428 76.1165 24.1534C75.6771 24.4602 75.1297 24.6136 74.4744 24.6136C73.9138 24.6136 73.4176 24.4905 72.9858 24.2443C72.5577 23.9943 72.2206 23.625 71.9744 23.1364C71.732 22.6477 71.6108 22.0436 71.6108 21.3239V15.7727H73.3096V21.1193C73.3096 21.714 73.4744 22.1875 73.804 22.5398C74.1335 22.892 74.5615 23.0682 75.088 23.0682C75.4062 23.0682 75.7225 22.9886 76.0369 22.8295C76.3551 22.6704 76.6184 22.4299 76.8267 22.1079C77.0388 21.786 77.143 21.3769 77.1392 20.8807ZM81.1264 24.5V15.7727H82.8253V24.5H81.1264ZM81.9844 14.4261C81.6889 14.4261 81.4351 14.3276 81.223 14.1307C81.0147 13.9299 80.9105 13.6913 80.9105 13.4148C80.9105 13.1345 81.0147 12.8958 81.223 12.6989C81.4351 12.4981 81.6889 12.3977 81.9844 12.3977C82.2798 12.3977 82.5317 12.4981 82.74 12.6989C82.9522 12.8958 83.0582 13.1345 83.0582 13.4148C83.0582 13.6913 82.9522 13.9299 82.74 14.1307C82.5317 14.3276 82.2798 14.4261 81.9844 14.4261ZM86.8096 12.8636V24.5H85.1108V12.8636H86.8096ZM93.169 15.7727V17.1364H88.402V15.7727H93.169ZM89.6804 13.6818H91.3792V21.9375C91.3792 22.267 91.4285 22.5151 91.527 22.6818C91.6254 22.8447 91.7523 22.9564 91.9076 23.017C92.0667 23.0739 92.2391 23.1023 92.4247 23.1023C92.5611 23.1023 92.6804 23.0928 92.7826 23.0739C92.8849 23.0549 92.9645 23.0398 93.0213 23.0284L93.3281 24.4318C93.2296 24.4697 93.0895 24.5076 92.9076 24.5454C92.7258 24.5871 92.4986 24.6098 92.2258 24.6136C91.7789 24.6212 91.3622 24.5417 90.9758 24.375C90.5895 24.2083 90.277 23.9508 90.0383 23.6023C89.7997 23.2538 89.6804 22.8163 89.6804 22.2898V13.6818ZM101.175 24.5L98.6065 15.7727H100.362L102.072 22.1818H102.158L103.874 15.7727H105.629L107.334 22.1534H107.419L109.118 15.7727H110.874L108.311 24.5H106.578L104.805 18.1989H104.675L102.902 24.5H101.175ZM112.486 24.5V15.7727H114.185V24.5H112.486ZM113.344 14.4261C113.048 14.4261 112.794 14.3276 112.582 14.1307C112.374 13.9299 112.27 13.6913 112.27 13.4148C112.27 13.1345 112.374 12.8958 112.582 12.6989C112.794 12.4981 113.048 12.3977 113.344 12.3977C113.639 12.3977 113.891 12.4981 114.099 12.6989C114.312 12.8958 114.418 13.1345 114.418 13.4148C114.418 13.6913 114.312 13.9299 114.099 14.1307C113.891 14.3276 113.639 14.4261 113.344 14.4261ZM120.544 15.7727V17.1364H115.777V15.7727H120.544ZM117.055 13.6818H118.754V21.9375C118.754 22.267 118.803 22.5151 118.902 22.6818C119 22.8447 119.127 22.9564 119.283 23.017C119.442 23.0739 119.614 23.1023 119.8 23.1023C119.936 23.1023 120.055 23.0928 120.158 23.0739C120.26 23.0549 120.339 23.0398 120.396 23.0284L120.703 24.4318C120.605 24.4697 120.464 24.5076 120.283 24.5454C120.101 24.5871 119.874 24.6098 119.601 24.6136C119.154 24.6212 118.737 24.5417 118.351 24.375C117.964 24.2083 117.652 23.9508 117.413 23.6023C117.175 23.2538 117.055 22.8163 117.055 22.2898V13.6818ZM124.31 19.3182V24.5H122.611V12.8636H124.287V17.1932H124.395C124.599 16.7235 124.912 16.3504 125.332 16.0739C125.753 15.7973 126.302 15.6591 126.98 15.6591C127.579 15.6591 128.101 15.7822 128.548 16.0284C128.999 16.2746 129.348 16.642 129.594 17.1307C129.844 17.6155 129.969 18.2216 129.969 18.9489V24.5H128.27V19.1534C128.27 18.5133 128.105 18.017 127.776 17.6648C127.446 17.3087 126.988 17.1307 126.401 17.1307C125.999 17.1307 125.639 17.2159 125.321 17.3864C125.007 17.5568 124.758 17.8068 124.577 18.1364C124.399 18.4621 124.31 18.8561 124.31 19.3182Z" fill="#E8E8E8"/>
<path d="M67.6186 34.843C67.5783 34.4003 67.3992 34.0562 67.0813 33.8107C66.7674 33.5612 66.3186 33.4364 65.7351 33.4364C65.3487 33.4364 65.0267 33.4867 64.7692 33.5873C64.5116 33.688 64.3184 33.8268 64.1896 34.0039C64.0608 34.177 63.9944 34.3762 63.9904 34.6016C63.9823 34.7867 64.0186 34.9497 64.0991 35.0905C64.1836 35.2314 64.3043 35.3562 64.4613 35.4648C64.6223 35.5695 64.8154 35.662 65.0408 35.7425C65.2662 35.823 65.5198 35.8935 65.8015 35.9538L66.864 36.1953C67.4757 36.3281 68.015 36.5052 68.4819 36.7266C68.9528 36.9479 69.3472 37.2115 69.6651 37.5174C69.9871 37.8233 70.2306 38.1754 70.3956 38.5739C70.5606 38.9723 70.6451 39.419 70.6491 39.9141C70.6451 40.6948 70.4479 41.3649 70.0575 41.9243C69.6671 42.4838 69.1057 42.9124 68.3732 43.2102C67.6448 43.508 66.7654 43.6569 65.7351 43.6569C64.7007 43.6569 63.7992 43.502 63.0305 43.1921C62.2618 42.8822 61.6642 42.4113 61.2376 41.7795C60.8109 41.1476 60.5916 40.3487 60.5795 39.3828H63.441C63.4652 39.7812 63.5718 40.1133 63.761 40.3789C63.9501 40.6445 64.2097 40.8458 64.5398 40.9826C64.8738 41.1194 65.2602 41.1878 65.6988 41.1878C66.1013 41.1878 66.4434 41.1335 66.7251 41.0248C67.0109 40.9162 67.2302 40.7653 67.3832 40.5721C67.5361 40.3789 67.6146 40.1575 67.6186 39.908C67.6146 39.6746 67.5421 39.4754 67.4013 39.3104C67.2604 39.1413 67.0431 38.9964 66.7493 38.8757C66.4595 38.7509 66.0892 38.6362 65.6385 38.5316L64.3466 38.2297C63.276 37.9842 62.4329 37.5878 61.8171 37.0405C61.2013 36.4891 60.8955 35.7445 60.8995 34.8068C60.8955 34.0421 61.1007 33.372 61.5153 32.7965C61.9298 32.221 62.5033 31.7722 63.2358 31.4503C63.9683 31.1283 64.8034 30.9673 65.7411 30.9673C66.699 30.9673 67.53 31.1303 68.2344 31.4563C68.9427 31.7783 69.4921 32.2311 69.8824 32.8146C70.2728 33.3982 70.472 34.0743 70.4801 34.843H67.6186ZM73.891 43.5L71.4762 34.2273H74.4403L75.69 40.1676H75.7684L77.1086 34.2273H80.0003L81.3768 40.1253H81.4552L82.6687 34.2273H85.6328L83.212 43.5H80.0547L78.6058 38.0969H78.5032L77.0543 43.5H73.891ZM86.8175 43.5V34.2273H89.7696V43.5H86.8175ZM88.2966 33.1467C87.882 33.1467 87.5259 33.0098 87.228 32.7361C86.9302 32.4584 86.7813 32.1244 86.7813 31.734C86.7813 31.3476 86.9302 31.0176 87.228 30.744C87.5259 30.4663 87.882 30.3274 88.2966 30.3274C88.7151 30.3274 89.0713 30.4663 89.3651 30.744C89.6629 31.0176 89.8119 31.3476 89.8119 31.734C89.8119 32.1244 89.6629 32.4584 89.3651 32.7361C89.0713 33.0098 88.7151 33.1467 88.2966 33.1467ZM96.9188 34.2273V36.4006H90.9543V34.2273H96.9188ZM92.198 43.5V33.7564C92.198 33.04 92.3328 32.4464 92.6024 31.9755C92.8721 31.5006 93.2464 31.1464 93.7253 30.913C94.2042 30.6755 94.7576 30.5568 95.3855 30.5568C95.796 30.5568 96.1823 30.589 96.5445 30.6534C96.9108 30.7138 97.1824 30.7681 97.3595 30.8164L96.8886 32.9776C96.78 32.9414 96.6472 32.9112 96.4902 32.8871C96.3373 32.8629 96.1924 32.8508 96.0555 32.8508C95.7094 32.8508 95.472 32.9273 95.3432 33.0802C95.2144 33.2332 95.15 33.4425 95.15 33.7081V43.5H92.198ZM103.573 34.2273V36.4006H97.7233V34.2273H103.573ZM98.9487 32.0057H101.901V40.5842C101.901 40.7653 101.929 40.9122 101.985 41.0248C102.046 41.1335 102.132 41.212 102.245 41.2603C102.358 41.3046 102.492 41.3267 102.649 41.3267C102.762 41.3267 102.881 41.3166 103.006 41.2965C103.134 41.2724 103.231 41.2522 103.295 41.2361L103.742 43.3672C103.601 43.4074 103.402 43.4577 103.144 43.5181C102.891 43.5785 102.587 43.6167 102.233 43.6328C101.541 43.665 100.947 43.5845 100.452 43.3913C99.9609 43.1941 99.5846 42.8882 99.323 42.4737C99.0655 42.0592 98.9407 41.538 98.9487 40.9101V32.0057Z" fill="#F05138"/>
</g>
<defs>
<filter id="filter0_d_1_50" x="6.28571" y="2.28571" width="51.4286" height="51.4286" filterUnits="userSpaceOnUse" color-interpolation-filters="sRGB">
<feFlood flood-opacity="0" result="BackgroundImageFix"/>
<feColorMatrix in="SourceAlpha" type="matrix" values="0 0 0 0 0 0 0 0 0 0 0 0 0 0 0 0 0 0 127 0" result="hardAlpha"/>
<feOffset/>
<feGaussianBlur stdDeviation="2.85714"/>
<feComposite in2="hardAlpha" operator="out"/>
<feColorMatrix type="matrix" values="0 0 0 0 0 0 0 0 0 0 0 0 0 0 0 0 0 0 0.25 0"/>
<feBlend mode="normal" in2="BackgroundImageFix" result="effect1_dropShadow_1_50"/>
<feBlend mode="normal" in="SourceGraphic" in2="effect1_dropShadow_1_50" result="shape"/>
</filter>
<filter id="filter1_d_1_50" x="54.4" y="3.9" width="83.2" height="48.2" filterUnits="userSpaceOnUse" color-interpolation-filters="sRGB">
<feFlood flood-opacity="0" result="BackgroundImageFix"/>
<feColorMatrix in="SourceAlpha" type="matrix" values="0 0 0 0 0 0 0 0 0 0 0 0 0 0 0 0 0 0 127 0" result="hardAlpha"/>
<feOffset/>
<feGaussianBlur stdDeviation="2.8"/>
<feComposite in2="hardAlpha" operator="out"/>
<feColorMatrix type="matrix" values="0 0 0 0 0 0 0 0 0 0 0 0 0 0 0 0 0 0 0.25 0"/>
<feBlend mode="normal" in2="BackgroundImageFix" result="effect1_dropShadow_1_50"/>
<feBlend mode="normal" in="SourceGraphic" in2="effect1_dropShadow_1_50" result="shape"/>
</filter>
<linearGradient id="paint0_linear_1_50" x1="72" y1="0" x2="72" y2="56" gradientUnits="userSpaceOnUse">
<stop stop-color="#B3240D"/>
<stop offset="0.0001" stop-color="#4B2A60"/>
<stop offset="0.0002" stop-color="#4B2A60"/>
<stop offset="0.0003" stop-color="#A5210C"/>
<stop offset="1" stop-color="#6E1608"/>
</linearGradient>
</defs>
</svg>
