<svg width="251" height="40" viewBox="0 0 251 40" fill="none" xmlns="http://www.w3.org/2000/svg">
<rect width="251.001" height="40.0014" rx="8" fill="url(#paint0_linear_1_56)"/>
<rect x="1.07143" y="1.07143" width="248.858" height="37.8585" rx="6.92857" stroke="white" stroke-opacity="0.15" stroke-width="2.14286"/>
<g filter="url(#filter0_d_1_56)">
<path d="M28.9116 18.9775C28.7911 18.9197 28.6688 18.864 28.5448 18.8107C28.3289 14.8285 26.1554 12.5486 22.5057 12.5253C22.4892 12.5252 22.4727 12.5252 22.4562 12.5252C20.2732 12.5252 18.4577 13.458 17.3402 15.1555L19.3474 16.534C20.1822 15.266 21.4923 14.9957 22.4572 14.9957C22.4683 14.9957 22.4795 14.9957 22.4905 14.9958C23.6922 15.0035 24.599 15.3533 25.1859 16.0354C25.613 16.532 25.8987 17.2182 26.0401 18.0843C24.9747 17.903 23.8224 17.8473 22.5906 17.918C19.1207 18.1181 16.89 20.1441 17.0398 22.9592C17.1158 24.3872 17.8264 25.6157 19.0406 26.4183C20.0672 27.0967 21.3894 27.4285 22.7636 27.3534C24.5783 27.2538 26.002 26.5606 26.9952 25.2932C27.7494 24.3307 28.2265 23.0834 28.4371 21.5117C29.302 22.0342 29.9429 22.7218 30.2969 23.5484C30.8988 24.9535 30.9339 27.2625 29.052 29.1449C27.4032 30.794 25.4212 31.5074 22.4258 31.5294C19.1032 31.5048 16.5903 30.438 14.9565 28.3587C13.4266 26.4117 12.6359 23.5995 12.6064 20C12.6359 16.4005 13.4266 13.5882 14.9565 11.6412C16.5903 9.56196 19.1031 8.49521 22.4258 8.47049C25.7725 8.4954 28.3292 9.56729 30.0255 11.6566C30.8573 12.6811 31.4844 13.9696 31.8979 15.4719L34.25 14.8437C33.7489 12.9945 32.9604 11.401 31.8874 10.0795C29.7126 7.40097 26.5321 6.02846 22.434 6H22.4176C18.3278 6.02836 15.1829 7.4061 13.0701 10.0949C11.19 12.4876 10.2202 15.8169 10.1876 19.9902L10.1875 20L10.1876 20.0098C10.2202 24.1831 11.19 27.5125 13.0701 29.9051C15.1829 32.5939 18.3278 33.9717 22.4176 34H22.434C26.07 33.9748 28.6329 33.0217 30.7443 30.9099C33.5066 28.1471 33.4235 24.684 32.513 22.5581C31.8598 21.0335 30.6145 19.7953 28.9116 18.9775ZM22.6337 24.8864C21.1129 24.9722 19.5329 24.2888 19.455 22.8251C19.3973 21.7398 20.2265 20.5288 22.727 20.3845C23.0134 20.368 23.2944 20.3599 23.5704 20.3599C24.4787 20.3599 25.3284 20.4482 26.1009 20.6173C25.8127 24.2197 24.1227 24.8046 22.6337 24.8864Z" fill="white"/>
</g>
<g filter="url(#filter1_d_1_56)">
<g filter="url(#filter2_d_1_56)">
<path d="M53.6285 18.1577H51.745C51.6726 17.7552 51.5377 17.401 51.3405 17.0952C51.1433 16.7893 50.9018 16.5297 50.6161 16.3164C50.3303 16.1031 50.0104 15.9421 49.6562 15.8334C49.3061 15.7248 48.9338 15.6704 48.5394 15.6704C47.827 15.6704 47.1891 15.8495 46.6257 16.2077C46.0663 16.5659 45.6236 17.0911 45.2976 17.7834C44.9756 18.4756 44.8146 19.3208 44.8146 20.3189C44.8146 21.325 44.9756 22.1742 45.2976 22.8665C45.6236 23.5587 46.0683 24.0819 46.6317 24.4361C47.1952 24.7902 47.829 24.9673 48.5334 24.9673C48.9237 24.9673 49.294 24.915 49.6441 24.8104C49.9983 24.7017 50.3183 24.5427 50.604 24.3334C50.8898 24.1242 51.1312 23.8686 51.3285 23.5667C51.5297 23.2609 51.6685 22.9107 51.745 22.5163L53.6285 22.5224C53.5279 23.1301 53.3327 23.6895 53.0429 24.2006C52.7572 24.7077 52.3889 25.1464 51.9382 25.5167C51.4915 25.8829 50.9803 26.1667 50.4048 26.3679C49.8293 26.5691 49.2014 26.6697 48.5213 26.6697C47.4507 26.6697 46.4969 26.4162 45.6598 25.9091C44.8227 25.398 44.1626 24.6675 43.6797 23.7177C43.2007 22.7679 42.9613 21.6349 42.9613 20.3189C42.9613 18.9988 43.2027 17.8659 43.6857 16.9201C44.1687 15.9703 44.8287 15.2418 45.6658 14.7347C46.5029 14.2236 47.4548 13.968 48.5213 13.968C49.1773 13.968 49.789 14.0626 50.3565 14.2518C50.928 14.4369 51.4411 14.7106 51.8959 15.0728C52.3507 15.431 52.727 15.8697 53.0248 16.3888C53.3227 16.904 53.5239 17.4936 53.6285 18.1577ZM57.5208 20.995V26.5007H55.7158V14.1371H57.4967V18.7372H57.6114C57.8287 18.2382 58.1607 17.8417 58.6075 17.5479C59.0542 17.2541 59.6378 17.1072 60.3582 17.1072C60.9941 17.1072 61.5495 17.238 62.0244 17.4996C62.5033 17.7612 62.8736 18.1516 63.1352 18.6708C63.4008 19.1859 63.5336 19.8299 63.5336 20.6026V26.5007H61.7286V20.8199C61.7286 20.1398 61.5535 19.6126 61.2034 19.2383C60.8532 18.86 60.3662 18.6708 59.7424 18.6708C59.3158 18.6708 58.9335 18.7614 58.5954 18.9425C58.2614 19.1236 57.9978 19.3892 57.8046 19.7393C57.6154 20.0855 57.5208 20.504 57.5208 20.995ZM68.6409 26.706C68.0533 26.706 67.522 26.5973 67.0471 26.38C66.5722 26.1586 66.1959 25.8386 65.9182 25.4201C65.6445 25.0015 65.5077 24.4884 65.5077 23.8807C65.5077 23.3575 65.6083 22.9268 65.8095 22.5888C66.0108 22.2507 66.2824 21.9831 66.6245 21.7859C66.9666 21.5886 67.349 21.4397 67.7715 21.3391C68.1941 21.2385 68.6248 21.162 69.0634 21.1097C69.6188 21.0453 70.0696 20.993 70.4157 20.9528C70.7618 20.9085 71.0134 20.8381 71.1703 20.7415C71.3273 20.6449 71.4058 20.4879 71.4058 20.2706V20.2283C71.4058 19.7011 71.2569 19.2926 70.959 19.0028C70.6652 18.7131 70.2266 18.5682 69.643 18.5682C69.0353 18.5682 68.5563 18.703 68.2062 18.9726C67.8601 19.2383 67.6206 19.5341 67.4878 19.8601L65.7914 19.4737C65.9927 18.9103 66.2865 18.4555 66.6728 18.1094C67.0632 17.7592 67.512 17.5057 68.0191 17.3487C68.5262 17.1877 69.0594 17.1072 69.6188 17.1072C69.9891 17.1072 70.3815 17.1515 70.796 17.24C71.2146 17.3246 71.605 17.4815 71.9672 17.7109C72.3334 17.9403 72.6333 18.2683 72.8667 18.6949C73.1001 19.1175 73.2169 19.6669 73.2169 20.343V26.5007H71.4541V25.2329H71.3816C71.2649 25.4664 71.0898 25.6958 70.8564 25.9212C70.623 26.1465 70.3232 26.3337 69.9569 26.4826C69.5907 26.6315 69.152 26.706 68.6409 26.706ZM69.0333 25.2571C69.5323 25.2571 69.9589 25.1585 70.3131 24.9613C70.6713 24.7641 70.9429 24.5065 71.1281 24.1886C71.3172 23.8666 71.4118 23.5225 71.4118 23.1562V21.9609C71.3474 22.0253 71.2227 22.0857 71.0375 22.142C70.8564 22.1944 70.6491 22.2406 70.4157 22.2809C70.1823 22.3171 69.9549 22.3513 69.7335 22.3835C69.5122 22.4117 69.3271 22.4358 69.1781 22.456C68.828 22.5002 68.508 22.5747 68.2183 22.6793C67.9325 22.784 67.7031 22.9349 67.5301 23.1321C67.361 23.3253 67.2765 23.5828 67.2765 23.9048C67.2765 24.3515 67.4415 24.6896 67.7715 24.919C68.1016 25.1444 68.5221 25.2571 69.0333 25.2571ZM79.9495 17.228V18.6768H74.8846V17.228H79.9495ZM76.2429 15.0064H78.0479V23.778C78.0479 24.1282 78.1002 24.3918 78.2049 24.5689C78.3095 24.7419 78.4443 24.8607 78.6093 24.9251C78.7784 24.9854 78.9615 25.0156 79.1587 25.0156C79.3036 25.0156 79.4304 25.0056 79.539 24.9854C79.6477 24.9653 79.7322 24.9492 79.7926 24.9371L80.1186 26.4283C80.0139 26.4685 79.865 26.5087 79.6718 26.549C79.4787 26.5933 79.2372 26.6174 78.9474 26.6214C78.4725 26.6295 78.0298 26.545 77.6193 26.3679C77.2088 26.1908 76.8767 25.9171 76.6232 25.5469C76.3696 25.1766 76.2429 24.7118 76.2429 24.1523V15.0064ZM88.4556 26.5007L85.7269 17.228H87.5923L89.4094 24.0376H89.5L91.3231 17.228H93.1885L94.9996 24.0074H95.0902L96.8952 17.228H98.7606L96.038 26.5007H94.1967L92.3132 19.8057H92.1743L90.2908 26.5007H88.4556ZM100.474 26.5007V17.228H102.279V26.5007H100.474ZM101.385 15.7972C101.071 15.7972 100.802 15.6926 100.576 15.4833C100.355 15.27 100.244 15.0164 100.244 14.7226C100.244 14.4248 100.355 14.1713 100.576 13.962C100.802 13.7487 101.071 13.642 101.385 13.642C101.699 13.642 101.967 13.7487 102.188 13.962C102.413 14.1713 102.526 14.4248 102.526 14.7226C102.526 15.0164 102.413 15.27 102.188 15.4833C101.967 15.6926 101.699 15.7972 101.385 15.7972ZM109.035 17.228V18.6768H103.97V17.228H109.035ZM105.329 15.0064H107.134V23.778C107.134 24.1282 107.186 24.3918 107.291 24.5689C107.395 24.7419 107.53 24.8607 107.695 24.9251C107.864 24.9854 108.047 25.0156 108.245 25.0156C108.39 25.0156 108.516 25.0056 108.625 24.9854C108.734 24.9653 108.818 24.9492 108.879 24.9371L109.205 26.4283C109.1 26.4685 108.951 26.5087 108.758 26.549C108.565 26.5933 108.323 26.6174 108.033 26.6214C107.558 26.6295 107.116 26.545 106.705 26.3679C106.295 26.1908 105.963 25.9171 105.709 25.5469C105.456 25.1766 105.329 24.7118 105.329 24.1523V15.0064ZM113.036 20.995V26.5007H111.231V14.1371H113.012V18.7372H113.127C113.344 18.2382 113.676 17.8417 114.123 17.5479C114.57 17.2541 115.153 17.1072 115.874 17.1072C116.51 17.1072 117.065 17.238 117.54 17.4996C118.019 17.7612 118.389 18.1516 118.651 18.6708C118.916 19.1859 119.049 19.8299 119.049 20.6026V26.5007H117.244V20.8199C117.244 20.1398 117.069 19.6126 116.719 19.2383C116.369 18.86 115.882 18.6708 115.258 18.6708C114.831 18.6708 114.449 18.7614 114.111 18.9425C113.777 19.1236 113.513 19.3892 113.32 19.7393C113.131 20.0855 113.036 20.504 113.036 20.995ZM131.831 22.6552V17.228H133.642V26.5007H131.867V24.8949H131.771C131.557 25.3899 131.215 25.8024 130.744 26.1324C130.277 26.4584 129.696 26.6214 129 26.6214C128.404 26.6214 127.877 26.4906 127.418 26.229C126.963 25.9634 126.605 25.571 126.343 25.0518C126.086 24.5327 125.957 23.8907 125.957 23.1261V17.228H127.762V22.9087C127.762 23.5406 127.937 24.0437 128.287 24.418C128.637 24.7922 129.092 24.9794 129.652 24.9794C129.99 24.9794 130.326 24.8949 130.66 24.7258C130.998 24.5568 131.278 24.3012 131.499 23.9591C131.724 23.6171 131.835 23.1824 131.831 22.6552ZM143.016 19.4918L141.38 19.7816C141.311 19.5723 141.203 19.3731 141.054 19.1839C140.909 18.9948 140.712 18.8398 140.462 18.7191C140.213 18.5984 139.901 18.538 139.526 18.538C139.015 18.538 138.589 18.6527 138.247 18.8821C137.905 19.1075 137.734 19.3993 137.734 19.7574C137.734 20.0673 137.848 20.3169 138.078 20.506C138.307 20.6952 138.677 20.8501 139.188 20.9709L140.661 21.3089C141.515 21.5061 142.151 21.81 142.569 22.2205C142.988 22.631 143.197 23.1643 143.197 23.8203C143.197 24.3757 143.036 24.8707 142.714 25.3054C142.396 25.736 141.951 26.0741 141.38 26.3196C140.812 26.5651 140.154 26.6878 139.406 26.6878C138.367 26.6878 137.52 26.4665 136.864 26.0238C136.208 25.577 135.806 24.9432 135.657 24.1221L137.401 23.8565C137.51 24.3113 137.734 24.6554 138.072 24.8888C138.41 25.1182 138.85 25.2329 139.394 25.2329C139.985 25.2329 140.458 25.1102 140.812 24.8647C141.167 24.6152 141.344 24.3113 141.344 23.9531C141.344 23.6633 141.235 23.4199 141.018 23.2226C140.804 23.0254 140.476 22.8765 140.034 22.7759L138.464 22.4318C137.599 22.2346 136.959 21.9207 136.544 21.49C136.134 21.0594 135.928 20.5141 135.928 19.854C135.928 19.3067 136.081 18.8278 136.387 18.4172C136.693 18.0067 137.116 17.6868 137.655 17.4574C138.194 17.2239 138.812 17.1072 139.508 17.1072C140.511 17.1072 141.299 17.3246 141.875 17.7592C142.45 18.1899 142.831 18.7674 143.016 19.4918ZM153.587 26.6878C152.717 26.6878 151.959 26.4886 151.311 26.0902C150.663 25.6917 150.16 25.1343 149.801 24.418C149.443 23.7016 149.264 22.8645 149.264 21.9066C149.264 20.9447 149.443 20.1036 149.801 19.3832C150.16 18.6627 150.663 18.1033 151.311 17.7049C151.959 17.3065 152.717 17.1072 153.587 17.1072C154.456 17.1072 155.214 17.3065 155.862 17.7049C156.51 18.1033 157.013 18.6627 157.372 19.3832C157.73 20.1036 157.909 20.9447 157.909 21.9066C157.909 22.8645 157.73 23.7016 157.372 24.418C157.013 25.1343 156.51 25.6917 155.862 26.0902C155.214 26.4886 154.456 26.6878 153.587 26.6878ZM153.593 25.1726C154.156 25.1726 154.623 25.0237 154.993 24.7258C155.363 24.428 155.637 24.0316 155.814 23.5366C155.995 23.0415 156.086 22.4962 156.086 21.9006C156.086 21.3089 155.995 20.7656 155.814 20.2706C155.637 19.7715 155.363 19.3711 154.993 19.0692C154.623 18.7674 154.156 18.6165 153.593 18.6165C153.025 18.6165 152.554 18.7674 152.18 19.0692C151.81 19.3711 151.534 19.7715 151.353 20.2706C151.176 20.7656 151.087 21.3089 151.087 21.9006C151.087 22.4962 151.176 23.0415 151.353 23.5366C151.534 24.0316 151.81 24.428 152.18 24.7258C152.554 25.0237 153.025 25.1726 153.593 25.1726ZM161.729 20.995V26.5007H159.924V17.228H161.656V18.7372H161.771C161.984 18.2462 162.318 17.8518 162.773 17.554C163.232 17.2561 163.81 17.1072 164.506 17.1072C165.138 17.1072 165.691 17.24 166.166 17.5057C166.641 17.7673 167.009 18.1577 167.271 18.6768C167.532 19.196 167.663 19.8379 167.663 20.6026V26.5007H165.858V20.8199C165.858 20.1478 165.683 19.6226 165.333 19.2443C164.983 18.862 164.502 18.6708 163.89 18.6708C163.471 18.6708 163.099 18.7614 162.773 18.9425C162.451 19.1236 162.196 19.3892 162.007 19.7393C161.821 20.0855 161.729 20.504 161.729 20.995Z" fill="#E8E8E8"/>
</g>
<path d="M173.533 16.5639V14.1371H183.983V16.5639H180.234V26.5007H177.288V16.5639H173.533ZM188.394 21.2123V26.5007H185.442V14.1371H188.297V18.9304H188.4C188.609 18.3589 188.951 17.9122 189.426 17.5902C189.905 17.2682 190.491 17.1072 191.183 17.1072C191.835 17.1072 192.403 17.2521 192.885 17.5419C193.368 17.8276 193.743 18.2321 194.008 18.7553C194.278 19.2785 194.411 19.8903 194.407 20.5905V26.5007H191.455V21.1701C191.459 20.6549 191.33 20.2525 191.068 19.9627C190.807 19.6729 190.439 19.528 189.964 19.528C189.654 19.528 189.38 19.5965 189.143 19.7333C188.909 19.8661 188.726 20.0573 188.593 20.3068C188.464 20.5563 188.398 20.8582 188.394 21.2123ZM196.25 26.5007V17.228H199.117V18.9183H199.214C199.383 18.3066 199.658 17.8518 200.041 17.554C200.423 17.2521 200.868 17.1012 201.375 17.1012C201.512 17.1012 201.653 17.1113 201.798 17.1314C201.942 17.1475 202.077 17.1736 202.202 17.2099V19.7756C202.061 19.7273 201.876 19.689 201.647 19.6609C201.421 19.6327 201.22 19.6186 201.043 19.6186C200.693 19.6186 200.377 19.6971 200.095 19.854C199.817 20.007 199.598 20.2223 199.437 20.5C199.28 20.7737 199.202 21.0956 199.202 21.4659V26.5007H196.25ZM207.258 26.6758C206.288 26.6758 205.451 26.4846 204.747 26.1023C204.046 25.7159 203.507 25.1665 203.129 24.4542C202.754 23.7378 202.567 22.8866 202.567 21.9006C202.567 20.9427 202.756 20.1056 203.135 19.3892C203.513 18.6688 204.046 18.1094 204.734 17.7109C205.423 17.3085 206.234 17.1072 207.167 17.1072C207.827 17.1072 208.431 17.2099 208.978 17.4151C209.526 17.6204 209.999 17.9242 210.397 18.3267C210.796 18.7292 211.105 19.2262 211.327 19.8178C211.548 20.4054 211.659 21.0795 211.659 21.8402V22.5767H203.6V20.8622H208.912C208.908 20.5483 208.834 20.2686 208.689 20.0231C208.544 19.7776 208.345 19.5864 208.091 19.4496C207.841 19.3087 207.554 19.2383 207.228 19.2383C206.898 19.2383 206.602 19.3127 206.34 19.4616C206.079 19.6065 205.871 19.8057 205.719 20.0593C205.566 20.3088 205.485 20.5926 205.477 20.9105V22.6552C205.477 23.0335 205.551 23.3655 205.7 23.6513C205.849 23.933 206.061 24.1523 206.334 24.3093C206.608 24.4663 206.934 24.5447 207.312 24.5447C207.574 24.5447 207.811 24.5085 208.025 24.4361C208.238 24.3636 208.421 24.257 208.574 24.1161C208.727 23.9752 208.842 23.8022 208.918 23.5969L211.629 23.6754C211.516 24.2831 211.268 24.8124 210.886 25.2631C210.508 25.7099 210.011 26.058 209.395 26.3075C208.779 26.553 208.067 26.6758 207.258 26.6758ZM215.781 26.6577C215.189 26.6577 214.664 26.5591 214.205 26.3618C213.75 26.1606 213.39 25.8588 213.124 25.4563C212.863 25.0498 212.732 24.5407 212.732 23.929C212.732 23.4138 212.822 22.9792 213.004 22.625C213.185 22.2708 213.434 21.9831 213.752 21.7617C214.07 21.5404 214.436 21.3733 214.851 21.2606C215.265 21.1439 215.708 21.0654 216.179 21.0252C216.706 20.9769 217.131 20.9266 217.453 20.8743C217.775 20.8179 218.008 20.7395 218.153 20.6388C218.302 20.5342 218.376 20.3873 218.376 20.1981V20.168C218.376 19.8581 218.27 19.6186 218.056 19.4496C217.843 19.2805 217.555 19.196 217.193 19.196C216.803 19.196 216.489 19.2805 216.251 19.4496C216.014 19.6186 215.863 19.852 215.799 20.1498L213.076 20.0533C213.157 19.4898 213.364 18.9867 213.698 18.544C214.036 18.0973 214.499 17.7471 215.086 17.4936C215.678 17.236 216.388 17.1072 217.217 17.1072C217.809 17.1072 218.354 17.1777 218.853 17.3185C219.352 17.4554 219.787 17.6566 220.157 17.9222C220.528 18.1838 220.813 18.5058 221.015 18.8881C221.22 19.2705 221.322 19.7071 221.322 20.1981V26.5007H218.545V25.2088H218.473C218.308 25.5227 218.097 25.7883 217.839 26.0057C217.586 26.223 217.286 26.386 216.94 26.4947C216.598 26.6033 216.211 26.6577 215.781 26.6577ZM216.692 24.7258C217.01 24.7258 217.296 24.6614 217.549 24.5327C217.807 24.4039 218.012 24.2268 218.165 24.0014C218.318 23.772 218.395 23.5064 218.395 23.2045V22.3231C218.31 22.3674 218.207 22.4077 218.087 22.4439C217.97 22.4801 217.841 22.5143 217.7 22.5465C217.559 22.5787 217.415 22.6069 217.266 22.631C217.117 22.6552 216.974 22.6773 216.837 22.6974C216.559 22.7417 216.322 22.8101 216.125 22.9027C215.931 22.9953 215.783 23.116 215.678 23.2649C215.577 23.4098 215.527 23.5828 215.527 23.7841C215.527 24.0899 215.636 24.3234 215.853 24.4844C216.074 24.6453 216.354 24.7258 216.692 24.7258ZM226.514 26.6335C225.83 26.6335 225.208 26.4564 224.649 26.1023C224.089 25.7481 223.643 25.2168 223.309 24.5085C222.975 23.8002 222.808 22.9208 222.808 21.8704C222.808 20.7797 222.981 19.8822 223.327 19.1779C223.673 18.4736 224.126 17.9524 224.685 17.6143C225.248 17.2763 225.854 17.1072 226.502 17.1072C226.989 17.1072 227.406 17.1918 227.752 17.3608C228.098 17.5258 228.384 17.7391 228.609 18.0007C228.834 18.2623 229.005 18.534 229.122 18.8157H229.183V14.1371H232.135V26.5007H229.213V24.9975H229.122C228.997 25.2832 228.82 25.5509 228.591 25.8004C228.362 26.0499 228.074 26.2512 227.728 26.4041C227.386 26.557 226.981 26.6335 226.514 26.6335ZM227.54 24.3334C227.899 24.3334 228.205 24.2328 228.458 24.0316C228.712 23.8263 228.907 23.5386 229.044 23.1683C229.181 22.798 229.249 22.3634 229.249 21.8643C229.249 21.3572 229.181 20.9206 229.044 20.5543C228.911 20.1881 228.716 19.9064 228.458 19.7092C228.205 19.5119 227.899 19.4133 227.54 19.4133C227.174 19.4133 226.864 19.514 226.611 19.7152C226.357 19.9164 226.164 20.2002 226.031 20.5664C225.902 20.9326 225.838 21.3653 225.838 21.8643C225.838 22.3634 225.904 22.798 226.037 23.1683C226.17 23.5386 226.361 23.8263 226.611 24.0316C226.864 24.2328 227.174 24.3334 227.54 24.3334ZM242.097 20.0593L239.386 20.1317C239.358 19.9386 239.282 19.7675 239.157 19.6186C239.032 19.4657 238.869 19.3469 238.668 19.2624C238.471 19.1739 238.241 19.1296 237.98 19.1296C237.638 19.1296 237.346 19.198 237.104 19.3349C236.867 19.4717 236.75 19.6568 236.754 19.8903C236.75 20.0714 236.823 20.2283 236.972 20.3611C237.125 20.494 237.396 20.6006 237.787 20.6811L239.574 21.0192C240.499 21.1962 241.187 21.49 241.638 21.9006C242.093 22.3111 242.322 22.8544 242.326 23.5305C242.322 24.1664 242.133 24.7198 241.759 25.1907C241.389 25.6616 240.882 26.0278 240.238 26.2894C239.594 26.547 238.857 26.6758 238.028 26.6758C236.704 26.6758 235.66 26.4041 234.895 25.8608C234.134 25.3134 233.7 24.581 233.591 23.6633L236.507 23.5909C236.571 23.929 236.738 24.1865 237.008 24.3636C237.278 24.5407 237.622 24.6292 238.04 24.6292C238.419 24.6292 238.726 24.5588 238.964 24.418C239.201 24.2771 239.322 24.0899 239.326 23.8565C239.322 23.6472 239.229 23.4802 239.048 23.3555C238.867 23.2267 238.584 23.1261 238.197 23.0536L236.579 22.7457C235.65 22.5767 234.957 22.2648 234.503 21.81C234.048 21.3512 233.822 20.7676 233.826 20.0593C233.822 19.4395 233.987 18.9103 234.321 18.4716C234.656 18.0289 235.13 17.6908 235.746 17.4574C236.362 17.2239 237.088 17.1072 237.926 17.1072C239.181 17.1072 240.171 17.3708 240.896 17.8981C241.62 18.4213 242.021 19.1417 242.097 20.0593Z" fill="white"/>
</g>
<defs>
<filter id="filter0_d_1_56" x="2.39972" y="0.39972" width="39.202" height="39.202" filterUnits="userSpaceOnUse" color-interpolation-filters="sRGB">
<feFlood flood-opacity="0" result="BackgroundImageFix"/>
<feColorMatrix in="SourceAlpha" type="matrix" values="0 0 0 0 0 0 0 0 0 0 0 0 0 0 0 0 0 0 127 0" result="hardAlpha"/>
<feOffset/>
<feGaussianBlur stdDeviation="2.80014"/>
<feComposite in2="hardAlpha" operator="out"/>
<feColorMatrix type="matrix" values="0 0 0 0 0 0 0 0 0 0 0 0 0 0 0 0 0 0 0.25 0"/>
<feBlend mode="normal" in2="BackgroundImageFix" result="effect1_dropShadow_1_56"/>
<feBlend mode="normal" in="SourceGraphic" in2="effect1_dropShadow_1_56" result="shape"/>
</filter>
<filter id="filter1_d_1_56" x="36.2871" y="3.78642" width="212.429" height="32.4286" filterUnits="userSpaceOnUse" color-interpolation-filters="sRGB">
<feFlood flood-opacity="0" result="BackgroundImageFix"/>
<feColorMatrix in="SourceAlpha" type="matrix" values="0 0 0 0 0 0 0 0 0 0 0 0 0 0 0 0 0 0 127 0" result="hardAlpha"/>
<feOffset/>
<feGaussianBlur stdDeviation="2.85714"/>
<feComposite in2="hardAlpha" operator="out"/>
<feColorMatrix type="matrix" values="0 0 0 0 0 0 0 0 0 0 0 0 0 0 0 0 0 0 0.25 0"/>
<feBlend mode="normal" in2="BackgroundImageFix" result="effect1_dropShadow_1_56"/>
<feBlend mode="normal" in="SourceGraphic" in2="effect1_dropShadow_1_56" result="shape"/>
</filter>
<filter id="filter2_d_1_56" x="38.9613" y="13.642" width="132.702" height="21.0639" filterUnits="userSpaceOnUse" color-interpolation-filters="sRGB">
<feFlood flood-opacity="0" result="BackgroundImageFix"/>
<feColorMatrix in="SourceAlpha" type="matrix" values="0 0 0 0 0 0 0 0 0 0 0 0 0 0 0 0 0 0 127 0" result="hardAlpha"/>
<feOffset dy="4"/>
<feGaussianBlur stdDeviation="2"/>
<feComposite in2="hardAlpha" operator="out"/>
<feColorMatrix type="matrix" values="0 0 0 0 0 0 0 0 0 0 0 0 0 0 0 0 0 0 0.25 0"/>
<feBlend mode="normal" in2="BackgroundImageFix" result="effect1_dropShadow_1_56"/>
<feBlend mode="normal" in="SourceGraphic" in2="effect1_dropShadow_1_56" result="shape"/>
</filter>
<linearGradient id="paint0_linear_1_56" x1="125.501" y1="0" x2="125.501" y2="40.0014" gradientUnits="userSpaceOnUse">
<stop stop-color="#202020"/>
<stop offset="1"/>
</linearGradient>
</defs>
</svg>
