<svg width="192" height="56" viewBox="0 0 192 56" fill="none" xmlns="http://www.w3.org/2000/svg">
<rect width="192" height="56" rx="8" fill="url(#paint0_linear_1_50)"/>
<rect x="1.05" y="1.05" width="189.9" height="53.9" rx="6.95" stroke="white" stroke-opacity="0.15" stroke-width="2.1"/>
<g filter="url(#filter0_d_1_50)">
<path d="M41.8737 26.5392C41.7016 26.4566 41.5268 26.3772 41.3497 26.3011C41.0413 20.6121 37.9362 17.3552 32.7224 17.3219C32.6988 17.3217 32.6753 17.3217 32.6517 17.3217C29.5332 17.3217 26.9396 18.6544 25.3432 21.0793L28.2106 23.0485C29.4032 21.2371 31.2747 20.851 32.6531 20.851C32.669 20.851 32.685 20.851 32.7007 20.8511C34.4174 20.8621 35.7129 21.3618 36.5513 22.3363C37.1615 23.0457 37.5696 24.026 37.7716 25.2633C36.2496 25.0043 34.6035 24.9247 32.8438 25.0257C27.8867 25.3115 24.7 28.2058 24.914 32.2275C25.0226 34.2675 26.0378 36.0225 27.7724 37.169C29.2389 38.1381 31.1278 38.6121 33.0909 38.5048C35.6833 38.3625 37.7171 37.3723 39.1359 35.5617C40.2135 34.1867 40.895 32.4048 41.1959 30.1596C42.4314 30.906 43.3471 31.8883 43.8528 33.0692C44.7126 35.0765 44.7628 38.375 42.0743 41.0642C39.7188 43.42 36.8874 44.4392 32.6083 44.4706C27.8617 44.4354 24.2718 42.9115 21.9378 39.941C19.7522 37.1596 18.6227 33.1421 18.5806 28C18.6227 22.8579 19.7522 18.8403 21.9378 16.0589C24.2718 13.0885 27.8616 11.5646 32.6083 11.5293C37.3893 11.5649 41.0417 13.0961 43.4651 16.0808C44.6533 17.5445 45.5492 19.3852 46.1398 21.5313L49.5 20.6338C48.7841 17.9921 47.6577 15.7158 46.1248 13.8279C43.0181 10.0014 38.4744 8.04066 32.62 8H32.5965C26.754 8.04051 22.2612 10.0087 19.243 13.8499C16.5571 17.268 15.1717 22.0241 15.1251 27.9859L15.125 28L15.1251 28.0141C15.1717 33.9758 16.5571 38.7321 19.243 42.1502C22.2612 45.9912 26.754 47.9596 32.5965 48H32.62C37.8143 47.964 41.4756 46.6025 44.4918 43.5856C48.4381 39.6387 48.3192 34.6915 47.0186 31.6544C46.0855 29.4765 44.3064 27.7075 41.8737 26.5392ZM32.9053 34.9806C30.7327 35.1031 28.4756 34.1269 28.3643 32.0358C28.2818 30.4854 29.4665 28.7554 33.0386 28.5493C33.4477 28.5257 33.8491 28.5142 34.2435 28.5142C35.541 28.5142 36.7548 28.6404 37.8584 28.8819C37.4468 34.0281 35.0324 34.8637 32.9053 34.9806Z" fill="white"/>
</g>
<g filter="url(#filter1_d_1_50)">
<path d="M70.9432 16.6477H69.1704C69.1023 16.2689 68.9754 15.9356 68.7898 15.6477C68.6041 15.3598 68.3769 15.1155 68.1079 14.9148C67.839 14.714 67.5379 14.5625 67.2045 14.4602C66.875 14.358 66.5246 14.3068 66.1534 14.3068C65.4829 14.3068 64.8826 14.4754 64.3523 14.8125C63.8257 15.1496 63.4091 15.6439 63.1023 16.2954C62.7992 16.947 62.6477 17.7424 62.6477 18.6818C62.6477 19.6288 62.7992 20.428 63.1023 21.0795C63.4091 21.7311 63.8276 22.2235 64.3579 22.5568C64.8882 22.8901 65.4848 23.0568 66.1477 23.0568C66.5151 23.0568 66.8636 23.0076 67.1932 22.9091C67.5265 22.8068 67.8276 22.6572 68.0966 22.4602C68.3655 22.2633 68.5928 22.0227 68.7784 21.7386C68.9678 21.4508 69.0985 21.1212 69.1704 20.75L70.9432 20.7557C70.8485 21.3276 70.6648 21.8542 70.392 22.3352C70.1231 22.8125 69.7765 23.2254 69.3523 23.5739C68.9318 23.9186 68.4507 24.1856 67.9091 24.375C67.3674 24.5644 66.7765 24.6591 66.1363 24.6591C65.1288 24.6591 64.231 24.4204 63.4432 23.9432C62.6553 23.4621 62.0341 22.7746 61.5795 21.8807C61.1288 20.9867 60.9034 19.9204 60.9034 18.6818C60.9034 17.4394 61.1307 16.3731 61.5852 15.4829C62.0398 14.589 62.661 13.9034 63.4488 13.4261C64.2367 12.9451 65.1326 12.7045 66.1363 12.7045C66.7538 12.7045 67.3295 12.7936 67.8636 12.9716C68.4015 13.1458 68.8845 13.4034 69.3125 13.7443C69.7405 14.0814 70.0947 14.4943 70.375 14.9829C70.6553 15.4678 70.8447 16.0227 70.9432 16.6477ZM74.6065 19.3182V24.5H72.9077V12.8636H74.5838V17.1932H74.6917C74.8963 16.7235 75.2088 16.3504 75.6292 16.0739C76.0497 15.7973 76.5989 15.6591 77.277 15.6591C77.8755 15.6591 78.3982 15.7822 78.8451 16.0284C79.2959 16.2746 79.6444 16.642 79.8906 17.1307C80.1406 17.6155 80.2656 18.2216 80.2656 18.9489V24.5H78.5667V19.1534C78.5667 18.5133 78.402 18.017 78.0724 17.6648C77.7429 17.3087 77.2845 17.1307 76.6974 17.1307C76.2959 17.1307 75.9361 17.2159 75.6179 17.3864C75.3035 17.5568 75.0554 17.8068 74.8736 18.1364C74.6955 18.4621 74.6065 18.8561 74.6065 19.3182ZM85.0724 24.6932C84.5194 24.6932 84.0194 24.5909 83.5724 24.3864C83.1255 24.178 82.7713 23.8769 82.5099 23.4829C82.2523 23.089 82.1236 22.6061 82.1236 22.0341C82.1236 21.5417 82.2183 21.1364 82.4076 20.8182C82.597 20.5 82.8527 20.2481 83.1747 20.0625C83.4967 19.8769 83.8565 19.7367 84.2542 19.642C84.652 19.5473 85.0573 19.4754 85.4701 19.4261C85.9929 19.3655 86.4171 19.3163 86.7429 19.2784C87.0686 19.2367 87.3054 19.1704 87.4531 19.0795C87.6008 18.9886 87.6747 18.8409 87.6747 18.6364V18.5966C87.6747 18.1004 87.5345 17.7159 87.2542 17.4432C86.9777 17.1704 86.5648 17.0341 86.0156 17.0341C85.4436 17.0341 84.9929 17.161 84.6633 17.4148C84.3376 17.6648 84.1122 17.9432 83.9872 18.25L82.3906 17.8864C82.58 17.3561 82.8565 16.928 83.2201 16.6023C83.5876 16.2727 84.0099 16.0341 84.4872 15.8864C84.9645 15.7348 85.4664 15.6591 85.9929 15.6591C86.3414 15.6591 86.7107 15.7008 87.1008 15.7841C87.4948 15.8636 87.8622 16.0114 88.2031 16.2273C88.5478 16.4432 88.83 16.7519 89.0497 17.1534C89.2694 17.5511 89.3792 18.0682 89.3792 18.7045V24.5H87.7201V23.3068H87.652C87.5421 23.5265 87.3773 23.7424 87.1576 23.9545C86.938 24.1667 86.6558 24.3428 86.3111 24.4829C85.9664 24.6231 85.5535 24.6932 85.0724 24.6932ZM85.4417 23.3295C85.9114 23.3295 86.313 23.2367 86.6463 23.0511C86.9834 22.8655 87.2391 22.6231 87.4133 22.3239C87.5914 22.0208 87.6804 21.697 87.6804 21.3523V20.2273C87.6198 20.2879 87.5023 20.3447 87.3281 20.3977C87.1576 20.447 86.9626 20.4905 86.7429 20.5284C86.5232 20.5625 86.3092 20.5947 86.1008 20.625C85.8925 20.6515 85.7183 20.6742 85.5781 20.6932C85.2486 20.7348 84.9474 20.8049 84.6747 20.9034C84.4058 21.0019 84.1898 21.1439 84.027 21.3295C83.8679 21.5114 83.7883 21.7538 83.7883 22.0568C83.7883 22.4773 83.9436 22.7954 84.2542 23.0114C84.5648 23.2235 84.9607 23.3295 85.4417 23.3295ZM95.7159 15.7727V17.1364H90.9488V15.7727H95.7159ZM92.2272 13.6818H93.9261V21.9375C93.9261 22.267 93.9754 22.5151 94.0738 22.6818C94.1723 22.8447 94.2992 22.9564 94.4545 23.017C94.6136 23.0739 94.786 23.1023 94.9716 23.1023C95.1079 23.1023 95.2272 23.0928 95.3295 23.0739C95.4318 23.0549 95.5113 23.0398 95.5682 23.0284L95.875 24.4318C95.7765 24.4697 95.6363 24.5076 95.4545 24.5454C95.2727 24.5871 95.0454 24.6098 94.7727 24.6136C94.3257 24.6212 93.9091 24.5417 93.5227 24.375C93.1363 24.2083 92.8238 23.9508 92.5852 23.6023C92.3466 23.2538 92.2272 22.8163 92.2272 22.2898V13.6818ZM103.722 24.5L101.153 15.7727H102.909L104.619 22.1818H104.705L106.42 15.7727H108.176L109.881 22.1534H109.966L111.665 15.7727H113.42L110.858 24.5H109.125L107.352 18.1989H107.222L105.449 24.5H103.722ZM115.033 24.5V15.7727H116.732V24.5H115.033ZM115.891 14.4261C115.595 14.4261 115.341 14.3276 115.129 14.1307C114.921 13.9299 114.817 13.6913 114.817 13.4148C114.817 13.1345 114.921 12.8958 115.129 12.6989C115.341 12.4981 115.595 12.3977 115.891 12.3977C116.186 12.3977 116.438 12.4981 116.646 12.6989C116.858 12.8958 116.964 13.1345 116.964 13.4148C116.964 13.6913 116.858 13.9299 116.646 14.1307C116.438 14.3276 116.186 14.4261 115.891 14.4261ZM123.091 15.7727V17.1364H118.324V15.7727H123.091ZM119.602 13.6818H121.301V21.9375C121.301 22.267 121.35 22.5151 121.449 22.6818C121.547 22.8447 121.674 22.9564 121.83 23.017C121.989 23.0739 122.161 23.1023 122.347 23.1023C122.483 23.1023 122.602 23.0928 122.705 23.0739C122.807 23.0549 122.886 23.0398 122.943 23.0284L123.25 24.4318C123.151 24.4697 123.011 24.5076 122.83 24.5454C122.648 24.5871 122.42 24.6098 122.148 24.6136C121.701 24.6212 121.284 24.5417 120.898 24.375C120.511 24.2083 120.199 23.9508 119.96 23.6023C119.722 23.2538 119.602 22.8163 119.602 22.2898V13.6818ZM126.856 19.3182V24.5H125.158V12.8636H126.834V17.1932H126.942C127.146 16.7235 127.459 16.3504 127.879 16.0739C128.3 15.7973 128.849 15.6591 129.527 15.6591C130.125 15.6591 130.648 15.7822 131.095 16.0284C131.546 16.2746 131.894 16.642 132.141 17.1307C132.391 17.6155 132.516 18.2216 132.516 18.9489V24.5H130.817V19.1534C130.817 18.5133 130.652 18.017 130.322 17.6648C129.993 17.3087 129.535 17.1307 128.947 17.1307C128.546 17.1307 128.186 17.2159 127.868 17.3864C127.553 17.5568 127.305 17.8068 127.124 18.1364C126.946 18.4621 126.856 18.8561 126.856 19.3182ZM144.545 20.8807V15.7727H146.25V24.5H144.58V22.9886H144.489C144.288 23.4545 143.966 23.8428 143.523 24.1534C143.083 24.4602 142.536 24.6136 141.881 24.6136C141.32 24.6136 140.824 24.4905 140.392 24.2443C139.964 23.9943 139.627 23.625 139.381 23.1364C139.138 22.6477 139.017 22.0436 139.017 21.3239V15.7727H140.716V21.1193C140.716 21.714 140.881 22.1875 141.21 22.5398C141.54 22.892 141.968 23.0682 142.494 23.0682C142.812 23.0682 143.129 22.9886 143.443 22.8295C143.761 22.6704 144.025 22.4299 144.233 22.1079C144.445 21.786 144.549 21.3769 144.545 20.8807ZM155.072 17.9034L153.533 18.1761C153.468 17.9792 153.366 17.7917 153.226 17.6136C153.089 17.4356 152.904 17.2898 152.669 17.1761C152.434 17.0625 152.141 17.0057 151.788 17.0057C151.307 17.0057 150.906 17.1136 150.584 17.3295C150.262 17.5417 150.101 17.8163 150.101 18.1534C150.101 18.4451 150.209 18.6799 150.425 18.8579C150.641 19.036 150.989 19.1818 151.47 19.2954L152.856 19.6136C153.66 19.7992 154.258 20.0852 154.652 20.4716C155.046 20.8579 155.243 21.3598 155.243 21.9773C155.243 22.5 155.091 22.9659 154.788 23.375C154.489 23.7803 154.071 24.0985 153.533 24.3295C152.999 24.5606 152.379 24.6761 151.675 24.6761C150.697 24.6761 149.9 24.4678 149.283 24.0511C148.665 23.6307 148.286 23.0341 148.146 22.2614L149.788 22.0114C149.891 22.4394 150.101 22.7633 150.419 22.9829C150.737 23.1989 151.152 23.3068 151.663 23.3068C152.22 23.3068 152.665 23.1913 152.999 22.9602C153.332 22.7254 153.499 22.4394 153.499 22.1023C153.499 21.8295 153.396 21.6004 153.192 21.4148C152.991 21.2292 152.682 21.089 152.266 20.9943L150.788 20.6704C149.974 20.4848 149.372 20.1894 148.981 19.7841C148.595 19.3788 148.402 18.8655 148.402 18.2443C148.402 17.7292 148.546 17.2784 148.834 16.892C149.122 16.5057 149.519 16.2045 150.027 15.9886C150.535 15.7689 151.116 15.6591 151.771 15.6591C152.714 15.6591 153.457 15.8636 153.999 16.2727C154.54 16.678 154.898 17.2216 155.072 17.9034ZM165.021 24.6761C164.203 24.6761 163.489 24.4886 162.879 24.1136C162.269 23.7386 161.796 23.214 161.459 22.5398C161.122 21.8655 160.953 21.0776 160.953 20.1761C160.953 19.2708 161.122 18.4792 161.459 17.8011C161.796 17.1231 162.269 16.5966 162.879 16.2216C163.489 15.8466 164.203 15.6591 165.021 15.6591C165.839 15.6591 166.553 15.8466 167.163 16.2216C167.773 16.5966 168.247 17.1231 168.584 17.8011C168.921 18.4792 169.089 19.2708 169.089 20.1761C169.089 21.0776 168.921 21.8655 168.584 22.5398C168.247 23.214 167.773 23.7386 167.163 24.1136C166.553 24.4886 165.839 24.6761 165.021 24.6761ZM165.027 23.25C165.557 23.25 165.997 23.1098 166.345 22.8295C166.694 22.5492 166.951 22.1761 167.118 21.7102C167.288 21.2443 167.374 20.7311 167.374 20.1704C167.374 19.6136 167.288 19.1023 167.118 18.6364C166.951 18.1667 166.694 17.7898 166.345 17.5057C165.997 17.2216 165.557 17.0795 165.027 17.0795C164.493 17.0795 164.05 17.2216 163.697 17.5057C163.349 17.7898 163.089 18.1667 162.919 18.6364C162.752 19.1023 162.669 19.6136 162.669 20.1704C162.669 20.7311 162.752 21.2443 162.919 21.7102C163.089 22.1761 163.349 22.5492 163.697 22.8295C164.05 23.1098 164.493 23.25 165.027 23.25ZM172.685 19.3182V24.5H170.986V15.7727H172.616V17.1932H172.724C172.925 16.7311 173.24 16.3598 173.668 16.0795C174.099 15.7992 174.643 15.6591 175.298 15.6591C175.893 15.6591 176.414 15.7841 176.861 16.0341C177.308 16.2803 177.654 16.6477 177.901 17.1364C178.147 17.625 178.27 18.2292 178.27 18.9489V24.5H176.571V19.1534C176.571 18.5208 176.406 18.0265 176.077 17.6704C175.747 17.3106 175.294 17.1307 174.719 17.1307C174.325 17.1307 173.974 17.2159 173.668 17.3864C173.365 17.5568 173.124 17.8068 172.946 18.1364C172.772 18.4621 172.685 18.8561 172.685 19.3182Z" fill="#E8E8E8"/>
<path d="M60.5312 33.5632V31.1364H70.9812V33.5632H67.2322V43.5H64.2862V33.5632H60.5312ZM75.3926 38.2116V43.5H72.4406V31.1364H75.2961V35.9297H75.3987C75.608 35.3582 75.9501 34.9114 76.425 34.5895C76.9039 34.2675 77.4895 34.1065 78.1817 34.1065C78.8337 34.1065 79.4012 34.2514 79.8841 34.5412C80.3671 34.8269 80.7414 35.2314 81.007 35.7546C81.2766 36.2778 81.4095 36.8895 81.4054 37.5898V43.5H78.4534V38.1694C78.4574 37.6542 78.3286 37.2518 78.067 36.962C77.8054 36.6722 77.4372 36.5273 76.9622 36.5273C76.6524 36.5273 76.3787 36.5958 76.1412 36.7326C75.9078 36.8654 75.7247 37.0566 75.5919 37.3061C75.4631 37.5556 75.3967 37.8575 75.3926 38.2116ZM83.2482 43.5V34.2273H86.1157V35.9176H86.2123C86.3814 35.3059 86.6571 34.8511 87.0394 34.5533C87.4217 34.2514 87.8665 34.1005 88.3736 34.1005C88.5104 34.1005 88.6513 34.1105 88.7961 34.1307C88.941 34.1468 89.0759 34.1729 89.2006 34.2092V36.7748C89.0598 36.7266 88.8746 36.6883 88.6452 36.6601C88.4198 36.632 88.2186 36.6179 88.0415 36.6179C87.6914 36.6179 87.3755 36.6964 87.0937 36.8533C86.816 37.0063 86.5967 37.2216 86.4357 37.4993C86.2787 37.773 86.2003 38.0949 86.2003 38.4652V43.5H83.2482ZM94.2565 43.6751C93.2866 43.6751 92.4495 43.4839 91.7452 43.1016C91.0449 42.7152 90.5056 42.1658 90.1273 41.4535C89.753 40.7371 89.5658 39.8859 89.5658 38.8998C89.5658 37.942 89.755 37.1049 90.1333 36.3885C90.5116 35.6681 91.0449 35.1087 91.7331 34.7102C92.4213 34.3078 93.2323 34.1065 94.166 34.1065C94.826 34.1065 95.4297 34.2092 95.9771 34.4144C96.5244 34.6197 96.9973 34.9235 97.3957 35.326C97.7942 35.7284 98.1041 36.2255 98.3254 36.8171C98.5468 37.4047 98.6575 38.0788 98.6575 38.8395V39.576H90.5982V37.8615H95.9107C95.9066 37.5476 95.8322 37.2679 95.6873 37.0224C95.5424 36.7769 95.3432 36.5857 95.0896 36.4489C94.8401 36.308 94.5524 36.2376 94.2264 36.2376C93.8963 36.2376 93.6005 36.312 93.3389 36.4609C93.0773 36.6058 92.8701 36.805 92.7171 37.0586C92.5642 37.3081 92.4837 37.5918 92.4756 37.9098V39.6545C92.4756 40.0328 92.5501 40.3648 92.699 40.6506C92.8479 40.9323 93.0592 41.1516 93.3329 41.3086C93.6066 41.4655 93.9326 41.544 94.3109 41.544C94.5725 41.544 94.8099 41.5078 95.0232 41.4354C95.2365 41.3629 95.4197 41.2563 95.5726 41.1154C95.7255 40.9745 95.8402 40.8015 95.9167 40.5962L98.6273 40.6747C98.5146 41.2824 98.2671 41.8117 97.8847 42.2624C97.5064 42.7092 97.0094 43.0573 96.3936 43.3068C95.7779 43.5523 95.0655 43.6751 94.2565 43.6751ZM102.779 43.6569C102.188 43.6569 101.662 43.5583 101.204 43.3611C100.749 43.1599 100.389 42.8581 100.123 42.4556C99.8613 42.0491 99.7305 41.54 99.7305 40.9283C99.7305 40.4131 99.8211 39.9784 100.002 39.6243C100.183 39.2701 100.433 38.9824 100.751 38.761C101.069 38.5396 101.435 38.3726 101.849 38.2599C102.264 38.1432 102.707 38.0647 103.178 38.0245C103.705 37.9762 104.129 37.9259 104.451 37.8736C104.773 37.8172 105.007 37.7387 105.152 37.6381C105.301 37.5335 105.375 37.3866 105.375 37.1974V37.1672C105.375 36.8574 105.268 36.6179 105.055 36.4489C104.842 36.2798 104.554 36.1953 104.192 36.1953C103.801 36.1953 103.488 36.2798 103.25 36.4489C103.013 36.6179 102.862 36.8513 102.797 37.1491L100.075 37.0525C100.155 36.4891 100.362 35.986 100.696 35.5433C101.035 35.0966 101.497 34.7464 102.085 34.4929C102.677 34.2353 103.387 34.1065 104.216 34.1065C104.808 34.1065 105.353 34.177 105.852 34.3178C106.351 34.4547 106.786 34.6559 107.156 34.9215C107.526 35.1831 107.812 35.5051 108.013 35.8874C108.218 36.2698 108.321 36.7064 108.321 37.1974V43.5H105.544V42.2081H105.472C105.307 42.522 105.095 42.7876 104.838 43.005C104.584 43.2223 104.284 43.3853 103.938 43.494C103.596 43.6026 103.21 43.6569 102.779 43.6569ZM103.691 41.7251C104.009 41.7251 104.294 41.6607 104.548 41.5319C104.806 41.4032 105.011 41.2261 105.164 41.0007C105.317 40.7713 105.393 40.5057 105.393 40.2038V39.3224C105.309 39.3667 105.206 39.4069 105.085 39.4432C104.969 39.4794 104.84 39.5136 104.699 39.5458C104.558 39.578 104.413 39.6062 104.264 39.6303C104.115 39.6545 103.972 39.6766 103.836 39.6967C103.558 39.741 103.32 39.8094 103.123 39.902C102.93 39.9945 102.781 40.1153 102.677 40.2642C102.576 40.4091 102.526 40.5821 102.526 40.7834C102.526 41.0892 102.634 41.3227 102.852 41.4837C103.073 41.6446 103.353 41.7251 103.691 41.7251ZM113.513 43.6328C112.829 43.6328 112.207 43.4557 111.647 43.1016C111.088 42.7474 110.641 42.2161 110.307 41.5078C109.973 40.7995 109.806 39.9201 109.806 38.8697C109.806 37.779 109.979 36.8815 110.325 36.1772C110.671 35.4729 111.124 34.9517 111.684 34.6136C112.247 34.2756 112.853 34.1065 113.501 34.1065C113.988 34.1065 114.404 34.191 114.75 34.3601C115.097 34.5251 115.382 34.7384 115.608 35C115.833 35.2616 116.004 35.5333 116.121 35.815H116.181V31.1364H119.133V43.5H116.211V41.9968H116.121C115.996 42.2825 115.819 42.5502 115.59 42.7997C115.36 43.0492 115.072 43.2505 114.726 43.4034C114.384 43.5563 113.98 43.6328 113.513 43.6328ZM114.539 41.3327C114.897 41.3327 115.203 41.2321 115.457 41.0309C115.71 40.8256 115.905 40.5379 116.042 40.1676C116.179 39.7973 116.248 39.3627 116.248 38.8636C116.248 38.3565 116.179 37.9199 116.042 37.5536C115.91 37.1874 115.714 36.9056 115.457 36.7084C115.203 36.5112 114.897 36.4126 114.539 36.4126C114.173 36.4126 113.863 36.5132 113.609 36.7145C113.356 36.9157 113.163 37.1994 113.03 37.5657C112.901 37.9319 112.837 38.3646 112.837 38.8636C112.837 39.3627 112.903 39.7973 113.036 40.1676C113.169 40.5379 113.36 40.8256 113.609 41.0309C113.863 41.2321 114.173 41.3327 114.539 41.3327ZM129.096 37.0586L126.385 37.131C126.357 36.9378 126.28 36.7668 126.156 36.6179C126.031 36.465 125.868 36.3462 125.667 36.2617C125.469 36.1732 125.24 36.1289 124.978 36.1289C124.636 36.1289 124.345 36.1973 124.103 36.3342C123.866 36.471 123.749 36.6561 123.753 36.8895C123.749 37.0707 123.821 37.2276 123.97 37.3604C124.123 37.4932 124.395 37.5999 124.785 37.6804L126.572 38.0185C127.498 38.1955 128.186 38.4893 128.637 38.8998C129.092 39.3104 129.321 39.8537 129.325 40.5298C129.321 41.1657 129.132 41.7191 128.758 42.19C128.387 42.6609 127.88 43.0271 127.236 43.2887C126.592 43.5463 125.856 43.6751 125.027 43.6751C123.703 43.6751 122.658 43.4034 121.894 42.8601C121.133 42.3127 120.698 41.5802 120.59 40.6626L123.505 40.5902C123.57 40.9283 123.737 41.1858 124.007 41.3629C124.276 41.54 124.62 41.6285 125.039 41.6285C125.417 41.6285 125.725 41.5581 125.963 41.4172C126.2 41.2764 126.321 41.0892 126.325 40.8558C126.321 40.6465 126.228 40.4795 126.047 40.3547C125.866 40.226 125.582 40.1253 125.196 40.0529L123.578 39.745C122.648 39.576 121.956 39.2641 121.501 38.8093C121.046 38.3505 120.821 37.7669 120.825 37.0586C120.821 36.4388 120.986 35.9096 121.32 35.4709C121.654 35.0282 122.129 34.6901 122.745 34.4567C123.361 34.2232 124.087 34.1065 124.924 34.1065C126.18 34.1065 127.17 34.3701 127.894 34.8974C128.619 35.4206 129.019 36.141 129.096 37.0586Z" fill="white"/>
</g>
<defs>
<filter id="filter0_d_1_50" x="6.28571" y="2.28571" width="51.4286" height="51.4286" filterUnits="userSpaceOnUse" color-interpolation-filters="sRGB">
<feFlood flood-opacity="0" result="BackgroundImageFix"/>
<feColorMatrix in="SourceAlpha" type="matrix" values="0 0 0 0 0 0 0 0 0 0 0 0 0 0 0 0 0 0 127 0" result="hardAlpha"/>
<feOffset/>
<feGaussianBlur stdDeviation="2.85714"/>
<feComposite in2="hardAlpha" operator="out"/>
<feColorMatrix type="matrix" values="0 0 0 0 0 0 0 0 0 0 0 0 0 0 0 0 0 0 0.25 0"/>
<feBlend mode="normal" in2="BackgroundImageFix" result="effect1_dropShadow_1_50"/>
<feBlend mode="normal" in="SourceGraphic" in2="effect1_dropShadow_1_50" result="shape"/>
</filter>
<filter id="filter1_d_1_50" x="54.4" y="3.9" width="131.2" height="48.2" filterUnits="userSpaceOnUse" color-interpolation-filters="sRGB">
<feFlood flood-opacity="0" result="BackgroundImageFix"/>
<feColorMatrix in="SourceAlpha" type="matrix" values="0 0 0 0 0 0 0 0 0 0 0 0 0 0 0 0 0 0 127 0" result="hardAlpha"/>
<feOffset/>
<feGaussianBlur stdDeviation="2.8"/>
<feComposite in2="hardAlpha" operator="out"/>
<feColorMatrix type="matrix" values="0 0 0 0 0 0 0 0 0 0 0 0 0 0 0 0 0 0 0.25 0"/>
<feBlend mode="normal" in2="BackgroundImageFix" result="effect1_dropShadow_1_50"/>
<feBlend mode="normal" in="SourceGraphic" in2="effect1_dropShadow_1_50" result="shape"/>
</filter>
<linearGradient id="paint0_linear_1_50" x1="96" y1="0" x2="96" y2="56" gradientUnits="userSpaceOnUse">
<stop stop-color="#202020"/>
<stop offset="1"/>
</linearGradient>
</defs>
</svg>
