<svg width="258" height="40" viewBox="0 0 258 40" fill="none" xmlns="http://www.w3.org/2000/svg">
<rect width="258.001" height="40.0014" rx="8" fill="url(#paint0_linear_1_56)"/>
<rect x="1.07143" y="1.07143" width="255.858" height="37.8585" rx="6.92857" stroke="white" stroke-opacity="0.15" stroke-width="2.14286"/>
<g filter="url(#filter0_d_1_56)">
<path d="M22.1337 10.0707L25.9441 11.4918L21.9976 12.9847L18.051 11.4918L21.8615 10.0707C21.949 10.0372 22.0462 10.0372 22.1385 10.0707H22.1337ZM14.61 12.1713V17.54C14.5468 17.5591 14.4836 17.5782 14.4204 17.6022L9.75456 19.3439C8.69988 19.7362 8 20.7363 8 21.8464V27.55C8 28.6123 8.6367 29.574 9.62819 30.0047L14.294 32.0239C14.9939 32.3254 15.7861 32.3254 16.486 32.0239L21.9976 29.6362L27.514 32.0239C28.2139 32.3254 29.0061 32.3254 29.706 32.0239L34.3718 30.0047C35.3584 29.5788 36 28.6123 36 27.55V21.8464C36 20.7315 35.3001 19.7362 34.2454 19.3391L29.5796 17.5974C29.5164 17.5734 29.4532 17.5543 29.39 17.5352V12.1713C29.39 11.0564 28.6902 10.0611 27.6355 9.66397L22.9696 7.92226C22.3475 7.69258 21.6622 7.69258 21.0401 7.92226L16.3742 9.66397C15.3098 10.0611 14.61 11.0612 14.61 12.1713ZM27.0522 17.8223L23.0474 19.3152V15.047L27.0522 13.535V17.8223ZM15.5237 19.7506L19.3341 21.1717L15.3876 22.6598L11.4411 21.1717L15.2515 19.7506C15.339 19.7171 15.4362 19.7171 15.5286 19.7506H15.5237ZM16.4374 29.531V24.7221L20.4423 23.2101V27.7988L16.4374 29.531ZM28.4714 19.7506C28.5589 19.7171 28.6561 19.7171 28.7485 19.7506L32.5589 21.1717L28.6075 22.6598L24.661 21.1717L28.4714 19.7506ZM33.4289 27.8993L29.6574 29.531V24.7221L33.6622 23.2101V27.55C33.6622 27.7031 33.5699 27.8371 33.4289 27.8993Z" fill="white"/>
</g>
<g filter="url(#filter1_d_1_56)">
<g filter="url(#filter2_d_1_56)">
<path d="M43.3597 26.5007V14.1371H47.7667C48.7245 14.1371 49.5194 14.3021 50.1513 14.6321C50.7871 14.9621 51.262 15.4189 51.576 16.0025C51.8899 16.582 52.0468 17.2521 52.0468 18.0128C52.0468 18.7694 51.8879 19.4355 51.5699 20.011C51.256 20.5825 50.7811 21.0272 50.1452 21.3452C49.5133 21.6631 48.7185 21.8221 47.7606 21.8221H44.4222V20.2163H47.5916C48.1953 20.2163 48.6863 20.1297 49.0646 19.9567C49.4469 19.7836 49.7267 19.5321 49.9037 19.202C50.0808 18.872 50.1694 18.4756 50.1694 18.0128C50.1694 17.5459 50.0788 17.1414 49.8977 16.7994C49.7206 16.4573 49.4409 16.1957 49.0586 16.0145C48.6803 15.8294 48.1832 15.7369 47.5674 15.7369H45.2251V26.5007H43.3597ZM49.463 20.9226L52.5177 26.5007H50.3927L47.3984 20.9226H49.463ZM58.0521 26.6878C57.1385 26.6878 56.3517 26.4926 55.6916 26.1023C55.0356 25.7078 54.5285 25.1545 54.1703 24.4421C53.8162 23.7257 53.6391 22.8866 53.6391 21.9247C53.6391 20.9749 53.8162 20.1378 54.1703 19.4133C54.5285 18.6889 55.0276 18.1234 55.6675 17.717C56.3114 17.3105 57.064 17.1072 57.9253 17.1072C58.4485 17.1072 58.9556 17.1938 59.4466 17.3668C59.9376 17.5399 60.3783 17.8115 60.7687 18.1818C61.1591 18.5521 61.467 19.033 61.6924 19.6246C61.9177 20.2122 62.0304 20.9266 62.0304 21.7677V22.4077H54.6593V21.0554H60.2616C60.2616 20.5805 60.165 20.1599 59.9718 19.7937C59.7786 19.4234 59.507 19.1316 59.1568 18.9183C58.8107 18.705 58.4042 18.5984 57.9374 18.5984C57.4303 18.5984 56.9876 18.7231 56.6093 18.9726C56.235 19.2181 55.9452 19.5401 55.7399 19.9386C55.5387 20.333 55.4381 20.7616 55.4381 21.2244V22.2809C55.4381 22.9007 55.5468 23.4279 55.7641 23.8626C55.9854 24.2972 56.2933 24.6292 56.6877 24.8587C57.0822 25.084 57.543 25.1967 58.0702 25.1967C58.4123 25.1967 58.7242 25.1484 59.0059 25.0518C59.2876 24.9512 59.5311 24.8023 59.7364 24.6051C59.9416 24.4079 60.0986 24.1644 60.2073 23.8746L61.9157 24.1825C61.7789 24.6856 61.5334 25.1263 61.1792 25.5046C60.8291 25.8789 60.3884 26.1707 59.8571 26.38C59.3299 26.5852 58.7282 26.6878 58.0521 26.6878ZM66.7317 26.706C66.1441 26.706 65.6128 26.5973 65.1379 26.38C64.663 26.1586 64.2867 25.8386 64.009 25.4201C63.7354 25.0015 63.5985 24.4884 63.5985 23.8807C63.5985 23.3575 63.6991 22.9268 63.9004 22.5888C64.1016 22.2507 64.3733 21.9831 64.7153 21.7859C65.0574 21.5886 65.4398 21.4397 65.8624 21.3391C66.2849 21.2385 66.7156 21.162 67.1543 21.1097C67.7097 21.0453 68.1604 20.993 68.5065 20.9528C68.8527 20.9085 69.1042 20.8381 69.2612 20.7415C69.4181 20.6449 69.4966 20.4879 69.4966 20.2706V20.2283C69.4966 19.7011 69.3477 19.2926 69.0499 19.0028C68.7561 18.7131 68.3174 18.5682 67.7338 18.5682C67.1261 18.5682 66.6472 18.703 66.297 18.9726C65.9509 19.2383 65.7114 19.5341 65.5786 19.8601L63.8822 19.4737C64.0835 18.9103 64.3773 18.4555 64.7636 18.1094C65.154 17.7592 65.6028 17.5057 66.1099 17.3487C66.617 17.1877 67.1502 17.1072 67.7097 17.1072C68.0799 17.1072 68.4723 17.1515 68.8869 17.24C69.3054 17.3246 69.6958 17.4815 70.058 17.7109C70.4243 17.9403 70.7241 18.2683 70.9575 18.6949C71.191 19.1175 71.3077 19.6669 71.3077 20.343V26.5007H69.5449V25.2329H69.4724C69.3557 25.4664 69.1807 25.6958 68.9472 25.9212C68.7138 26.1465 68.414 26.3337 68.0477 26.4826C67.6815 26.6315 67.2428 26.706 66.7317 26.706ZM67.1241 25.2571C67.6231 25.2571 68.0497 25.1585 68.4039 24.9613C68.7621 24.7641 69.0338 24.5065 69.2189 24.1886C69.4081 23.8666 69.5026 23.5225 69.5026 23.1562V21.9609C69.4382 22.0253 69.3135 22.0857 69.1283 22.142C68.9472 22.1944 68.74 22.2406 68.5065 22.2809C68.2731 22.3171 68.0457 22.3513 67.8244 22.3835C67.603 22.4117 67.4179 22.4358 67.269 22.456C66.9188 22.5002 66.5989 22.5747 66.3091 22.6793C66.0233 22.784 65.7939 22.9349 65.6209 23.1321C65.4519 23.3253 65.3673 23.5828 65.3673 23.9048C65.3673 24.3515 65.5323 24.6896 65.8624 24.919C66.1924 25.1444 66.613 25.2571 67.1241 25.2571ZM77.1831 26.6818C76.4345 26.6818 75.7664 26.4906 75.1789 26.1083C74.5953 25.7219 74.1365 25.1726 73.8024 24.4602C73.4724 23.7438 73.3074 22.8846 73.3074 21.8824C73.3074 20.8803 73.4744 20.0231 73.8085 19.3107C74.1465 18.5984 74.6094 18.053 75.197 17.6747C75.7846 17.2964 76.4506 17.1072 77.1952 17.1072C77.7707 17.1072 78.2335 17.2038 78.5837 17.397C78.9378 17.5862 79.2115 17.8075 79.4047 18.0611C79.6019 18.3146 79.7548 18.538 79.8635 18.7312H79.9722V14.1371H81.7772V26.5007H80.0144V25.0579H79.8635C79.7548 25.2551 79.5979 25.4805 79.3926 25.734C79.1914 25.9876 78.9137 26.2089 78.5595 26.3981C78.2054 26.5872 77.7466 26.6818 77.1831 26.6818ZM77.5816 25.1424C78.1007 25.1424 78.5394 25.0056 78.8976 24.7319C79.2598 24.4542 79.5335 24.0698 79.7186 23.5788C79.9078 23.0878 80.0024 22.5163 80.0024 21.8643C80.0024 21.2204 79.9098 20.6569 79.7247 20.174C79.5395 19.691 79.2679 19.3147 78.9097 19.0451C78.5515 18.7754 78.1088 18.6406 77.5816 18.6406C77.0382 18.6406 76.5855 18.7815 76.2232 19.0632C75.861 19.3449 75.5874 19.7293 75.4022 20.2163C75.2211 20.7032 75.1306 21.2526 75.1306 21.8643C75.1306 22.4841 75.2231 23.0415 75.4083 23.5366C75.5934 24.0316 75.8671 24.424 76.2293 24.7138C76.5955 24.9995 77.0463 25.1424 77.5816 25.1424ZM93.181 17.228V18.6768H88.116V17.228H93.181ZM89.4743 15.0064H91.2793V23.778C91.2793 24.1282 91.3317 24.3918 91.4363 24.5689C91.5409 24.7419 91.6758 24.8607 91.8408 24.9251C92.0098 24.9854 92.1929 25.0156 92.3901 25.0156C92.535 25.0156 92.6618 25.0056 92.7705 24.9854C92.8791 24.9653 92.9637 24.9492 93.024 24.9371L93.35 26.4283C93.2454 26.4685 93.0965 26.5087 92.9033 26.549C92.7101 26.5933 92.4686 26.6174 92.1788 26.6214C91.7039 26.6295 91.2612 26.545 90.8507 26.3679C90.4402 26.1908 90.1082 25.9171 89.8546 25.5469C89.6011 25.1766 89.4743 24.7118 89.4743 24.1523V15.0064ZM97.182 20.995V26.5007H95.3769V14.1371H97.1578V18.7372H97.2725C97.4898 18.2382 97.8219 17.8417 98.2686 17.5479C98.7153 17.2541 99.2989 17.1072 100.019 17.1072C100.655 17.1072 101.211 17.238 101.686 17.4996C102.164 17.7612 102.535 18.1516 102.796 18.6708C103.062 19.1859 103.195 19.8299 103.195 20.6026V26.5007H101.39V20.8199C101.39 20.1398 101.215 19.6126 100.864 19.2383C100.514 18.86 100.027 18.6708 99.4035 18.6708C98.9769 18.6708 98.5946 18.7614 98.2565 18.9425C97.9225 19.1236 97.6589 19.3892 97.4657 19.7393C97.2765 20.0855 97.182 20.504 97.182 20.995ZM109.6 26.6878C108.686 26.6878 107.9 26.4926 107.239 26.1023C106.583 25.7078 106.076 25.1545 105.718 24.4421C105.364 23.7257 105.187 22.8866 105.187 21.9247C105.187 20.9749 105.364 20.1378 105.718 19.4133C106.076 18.6889 106.575 18.1234 107.215 17.717C107.859 17.3105 108.612 17.1072 109.473 17.1072C109.996 17.1072 110.503 17.1938 110.994 17.3668C111.485 17.5399 111.926 17.8115 112.317 18.1818C112.707 18.5521 113.015 19.033 113.24 19.6246C113.466 20.2122 113.578 20.9266 113.578 21.7677V22.4077H106.207V21.0554H111.809C111.809 20.5805 111.713 20.1599 111.52 19.7937C111.326 19.4234 111.055 19.1316 110.705 18.9183C110.359 18.705 109.952 18.5984 109.485 18.5984C108.978 18.5984 108.535 18.7231 108.157 18.9726C107.783 19.2181 107.493 19.5401 107.288 19.9386C107.087 20.333 106.986 20.7616 106.986 21.2244V22.2809C106.986 22.9007 107.095 23.4279 107.312 23.8626C107.533 24.2972 107.841 24.6292 108.236 24.8587C108.63 25.084 109.091 25.1967 109.618 25.1967C109.96 25.1967 110.272 25.1484 110.554 25.0518C110.835 24.9512 111.079 24.8023 111.284 24.6051C111.489 24.4079 111.646 24.1644 111.755 23.8746L113.464 24.1825C113.327 24.6856 113.081 25.1263 112.727 25.5046C112.377 25.8789 111.936 26.1707 111.405 26.38C110.878 26.5852 110.276 26.6878 109.6 26.6878Z" fill="#E8E8E8"/>
</g>
<path d="M124.507 26.5007H119.937V14.1371H124.501C125.761 14.1371 126.845 14.3846 127.755 14.8796C128.669 15.3706 129.373 16.0789 129.868 17.0046C130.363 17.9262 130.61 19.029 130.61 20.3128C130.61 21.6007 130.363 22.7075 129.868 23.6332C129.377 24.5588 128.675 25.2692 127.761 25.7642C126.847 26.2552 125.763 26.5007 124.507 26.5007ZM122.925 23.9531H124.392C125.085 23.9531 125.67 23.8364 126.149 23.603C126.632 23.3655 126.996 22.9812 127.242 22.4499C127.491 21.9146 127.616 21.2023 127.616 20.3128C127.616 19.4234 127.491 18.7151 127.242 18.1878C126.992 17.6566 126.624 17.2743 126.137 17.0408C125.654 16.8034 125.058 16.6846 124.35 16.6846H122.925V23.9531ZM136.684 26.6758C135.71 26.6758 134.872 26.4765 134.172 26.0781C133.476 25.6756 132.939 25.1162 132.56 24.3998C132.186 23.6794 131.999 22.8443 131.999 21.8945C131.999 20.9407 132.186 20.1056 132.56 19.3892C132.939 18.6688 133.476 18.1094 134.172 17.7109C134.872 17.3085 135.71 17.1072 136.684 17.1072C137.657 17.1072 138.493 17.3085 139.189 17.7109C139.889 18.1094 140.426 18.6688 140.801 19.3892C141.179 20.1056 141.368 20.9407 141.368 21.8945C141.368 22.8443 141.179 23.6794 140.801 24.3998C140.426 25.1162 139.889 25.6756 139.189 26.0781C138.493 26.4765 137.657 26.6758 136.684 26.6758ZM136.702 24.4481C137.056 24.4481 137.356 24.3395 137.601 24.1221C137.847 23.9048 138.034 23.603 138.163 23.2166C138.295 22.8302 138.362 22.3835 138.362 21.8764C138.362 21.3613 138.295 20.9105 138.163 20.5241C138.034 20.1378 137.847 19.8359 137.601 19.6186C137.356 19.4013 137.056 19.2926 136.702 19.2926C136.335 19.2926 136.026 19.4013 135.772 19.6186C135.522 19.8359 135.331 20.1378 135.198 20.5241C135.07 20.9105 135.005 21.3613 135.005 21.8764C135.005 22.3835 135.07 22.8302 135.198 23.2166C135.331 23.603 135.522 23.9048 135.772 24.1221C136.026 24.3395 136.335 24.4481 136.702 24.4481ZM147.209 26.6758C146.231 26.6758 145.392 26.4745 144.692 26.0721C143.995 25.6696 143.46 25.1102 143.086 24.3938C142.711 23.6734 142.524 22.8403 142.524 21.8945C142.524 20.9447 142.711 20.1116 143.086 19.3952C143.464 18.6748 144.001 18.1134 144.698 17.7109C145.398 17.3085 146.233 17.1072 147.203 17.1072C148.06 17.1072 148.807 17.2622 149.443 17.5721C150.083 17.882 150.582 18.3207 150.94 18.8881C151.302 19.4516 151.493 20.1136 151.513 20.8743H148.754C148.698 20.3994 148.537 20.0271 148.271 19.7574C148.01 19.4878 147.668 19.353 147.245 19.353C146.903 19.353 146.603 19.4496 146.346 19.6427C146.088 19.8319 145.887 20.1136 145.742 20.4879C145.601 20.8582 145.531 21.317 145.531 21.8643C145.531 22.4117 145.601 22.8745 145.742 23.2528C145.887 23.6271 146.088 23.9109 146.346 24.104C146.603 24.2932 146.903 24.3878 147.245 24.3878C147.519 24.3878 147.76 24.3294 147.97 24.2127C148.183 24.096 148.358 23.9249 148.495 23.6996C148.632 23.4702 148.718 23.1925 148.754 22.8665H151.513C151.485 23.6311 151.294 24.2992 150.94 24.8707C150.59 25.4422 150.097 25.8869 149.461 26.2049C148.829 26.5188 148.078 26.6758 147.209 26.6758ZM159.007 22.4982V17.228H161.953V26.5007H159.139V24.7741H159.043C158.838 25.3416 158.487 25.7924 157.992 26.1264C157.501 26.4564 156.908 26.6214 156.212 26.6214C155.58 26.6214 155.024 26.4765 154.545 26.1868C154.066 25.897 153.694 25.4925 153.428 24.9734C153.163 24.4502 153.028 23.8384 153.024 23.1381V17.228H155.976V22.5586C155.98 23.0617 156.113 23.4581 156.374 23.7479C156.636 24.0376 156.992 24.1825 157.443 24.1825C157.737 24.1825 158 24.1181 158.234 23.9893C158.471 23.8565 158.658 23.6654 158.795 23.4158C158.936 23.1623 159.007 22.8564 159.007 22.4982ZM163.832 26.5007V17.228H166.639V18.9304H166.741C166.935 18.3669 167.261 17.9222 167.719 17.5962C168.178 17.2702 168.726 17.1072 169.361 17.1072C170.005 17.1072 170.557 17.2722 171.016 17.6023C171.474 17.9323 171.766 18.375 171.891 18.9304H171.988C172.161 18.379 172.499 17.9383 173.002 17.6083C173.505 17.2743 174.098 17.1072 174.783 17.1072C175.66 17.1072 176.372 17.389 176.92 17.9524C177.467 18.5118 177.741 19.2805 177.741 20.2585V26.5007H174.789V20.9346C174.789 20.4718 174.67 20.1197 174.432 19.8782C174.195 19.6327 173.887 19.5099 173.509 19.5099C173.102 19.5099 172.782 19.6427 172.549 19.9084C172.32 20.17 172.205 20.5221 172.205 20.9648V26.5007H169.367V20.9045C169.367 20.4738 169.251 20.1337 169.017 19.8842C168.784 19.6347 168.476 19.5099 168.094 19.5099C167.836 19.5099 167.609 19.5723 167.412 19.6971C167.214 19.8178 167.059 19.9909 166.947 20.2163C166.838 20.4416 166.784 20.7073 166.784 21.0131V26.5007H163.832ZM183.904 26.6758C182.934 26.6758 182.097 26.4846 181.393 26.1023C180.693 25.7159 180.153 25.1665 179.775 24.4542C179.401 23.7378 179.214 22.8866 179.214 21.9006C179.214 20.9427 179.403 20.1056 179.781 19.3892C180.159 18.6688 180.693 18.1094 181.381 17.7109C182.069 17.3085 182.88 17.1072 183.814 17.1072C184.474 17.1072 185.078 17.2099 185.625 17.4151C186.172 17.6204 186.645 17.9242 187.044 18.3267C187.442 18.7292 187.752 19.2262 187.973 19.8178C188.195 20.4054 188.305 21.0795 188.305 21.8402V22.5767H180.246V20.8622H185.559C185.555 20.5483 185.48 20.2686 185.335 20.0231C185.19 19.7776 184.991 19.5864 184.738 19.4496C184.488 19.3087 184.2 19.2383 183.874 19.2383C183.544 19.2383 183.248 19.3127 182.987 19.4616C182.725 19.6065 182.518 19.8057 182.365 20.0593C182.212 20.3088 182.132 20.5926 182.124 20.9105V22.6552C182.124 23.0335 182.198 23.3655 182.347 23.6513C182.496 23.933 182.707 24.1523 182.981 24.3093C183.254 24.4663 183.58 24.5447 183.959 24.5447C184.22 24.5447 184.458 24.5085 184.671 24.4361C184.884 24.3636 185.068 24.257 185.22 24.1161C185.373 23.9752 185.488 23.8022 185.565 23.5969L188.275 23.6754C188.162 24.2831 187.915 24.8124 187.533 25.2631C187.154 25.7099 186.657 26.058 186.041 26.3075C185.426 26.553 184.713 26.6758 183.904 26.6758ZM192.765 21.2123V26.5007H189.813V17.228H192.62V18.9304H192.723C192.928 18.3629 193.278 17.9182 193.773 17.5962C194.268 17.2702 194.858 17.1072 195.542 17.1072C196.194 17.1072 196.76 17.2541 197.238 17.5479C197.721 17.8377 198.096 18.2442 198.361 18.7674C198.631 19.2866 198.764 19.8943 198.76 20.5905V26.5007H195.808V21.1701C195.812 20.6549 195.681 20.2525 195.415 19.9627C195.154 19.6729 194.789 19.528 194.323 19.528C194.013 19.528 193.739 19.5965 193.502 19.7333C193.268 19.8661 193.087 20.0573 192.958 20.3068C192.834 20.5563 192.769 20.8582 192.765 21.2123ZM205.821 17.228V19.4013H199.972V17.228H205.821ZM201.197 15.0064H204.149V23.5849C204.149 23.766 204.177 23.9129 204.234 24.0256C204.294 24.1342 204.381 24.2127 204.493 24.261C204.606 24.3053 204.741 24.3274 204.898 24.3274C205.011 24.3274 205.129 24.3173 205.254 24.2972C205.383 24.2731 205.479 24.2529 205.544 24.2368L205.991 26.3679C205.85 26.4081 205.65 26.4584 205.393 26.5188C205.139 26.5792 204.835 26.6174 204.481 26.6335C203.789 26.6657 203.195 26.5852 202.7 26.392C202.209 26.1948 201.833 25.889 201.571 25.4744C201.314 25.0599 201.189 24.5387 201.197 23.9109V15.0064ZM209.942 26.6577C209.35 26.6577 208.825 26.5591 208.366 26.3618C207.911 26.1606 207.551 25.8588 207.285 25.4563C207.024 25.0498 206.893 24.5407 206.893 23.929C206.893 23.4138 206.984 22.9792 207.165 22.625C207.346 22.2708 207.595 21.9831 207.913 21.7617C208.231 21.5404 208.597 21.3733 209.012 21.2606C209.427 21.1439 209.869 21.0654 210.34 21.0252C210.867 20.9769 211.292 20.9266 211.614 20.8743C211.936 20.8179 212.169 20.7395 212.314 20.6388C212.463 20.5342 212.538 20.3873 212.538 20.1981V20.168C212.538 19.8581 212.431 19.6186 212.218 19.4496C212.004 19.2805 211.717 19.196 211.354 19.196C210.964 19.196 210.65 19.2805 210.413 19.4496C210.175 19.6186 210.024 19.852 209.96 20.1498L207.237 20.0533C207.318 19.4898 207.525 18.9867 207.859 18.544C208.197 18.0973 208.66 17.7471 209.247 17.4936C209.839 17.236 210.549 17.1072 211.378 17.1072C211.97 17.1072 212.515 17.1777 213.014 17.3185C213.514 17.4554 213.948 17.6566 214.318 17.9222C214.689 18.1838 214.974 18.5058 215.176 18.8881C215.381 19.2705 215.484 19.7071 215.484 20.1981V26.5007H212.707V25.2088H212.634C212.469 25.5227 212.258 25.7883 212 26.0057C211.747 26.223 211.447 26.386 211.101 26.4947C210.759 26.6033 210.372 26.6577 209.942 26.6577ZM210.853 24.7258C211.171 24.7258 211.457 24.6614 211.711 24.5327C211.968 24.4039 212.173 24.2268 212.326 24.0014C212.479 23.772 212.556 23.5064 212.556 23.2045V22.3231C212.471 22.3674 212.369 22.4077 212.248 22.4439C212.131 22.4801 212.002 22.5143 211.861 22.5465C211.721 22.5787 211.576 22.6069 211.427 22.631C211.278 22.6552 211.135 22.6773 210.998 22.6974C210.72 22.7417 210.483 22.8101 210.286 22.9027C210.093 22.9953 209.944 23.116 209.839 23.2649C209.738 23.4098 209.688 23.5828 209.688 23.7841C209.688 24.0899 209.797 24.3234 210.014 24.4844C210.235 24.6453 210.515 24.7258 210.853 24.7258ZM222.523 17.228V19.4013H216.673V17.228H222.523ZM217.898 15.0064H220.85V23.5849C220.85 23.766 220.879 23.9129 220.935 24.0256C220.995 24.1342 221.082 24.2127 221.195 24.261C221.307 24.3053 221.442 24.3274 221.599 24.3274C221.712 24.3274 221.83 24.3173 221.955 24.2972C222.084 24.2731 222.181 24.2529 222.245 24.2368L222.692 26.3679C222.551 26.4081 222.352 26.4584 222.094 26.5188C221.84 26.5792 221.537 26.6174 221.182 26.6335C220.49 26.6657 219.897 26.5852 219.402 26.392C218.911 26.1948 218.534 25.889 218.273 25.4744C218.015 25.0599 217.89 24.5387 217.898 23.9109V15.0064ZM224.029 26.5007V17.228H226.981V26.5007H224.029ZM225.508 16.1474C225.093 16.1474 224.737 16.0105 224.439 15.7369C224.142 15.4592 223.993 15.1251 223.993 14.7347C223.993 14.3484 224.142 14.0183 224.439 13.7447C224.737 13.467 225.093 13.3281 225.508 13.3281C225.926 13.3281 226.283 13.467 226.576 13.7447C226.874 14.0183 227.023 14.3484 227.023 14.7347C227.023 15.1251 226.874 15.4592 226.576 15.7369C226.283 16.0105 225.926 16.1474 225.508 16.1474ZM233.188 26.6758C232.214 26.6758 231.377 26.4765 230.677 26.0781C229.981 25.6756 229.443 25.1162 229.065 24.3998C228.691 23.6794 228.504 22.8443 228.504 21.8945C228.504 20.9407 228.691 20.1056 229.065 19.3892C229.443 18.6688 229.981 18.1094 230.677 17.7109C231.377 17.3085 232.214 17.1072 233.188 17.1072C234.162 17.1072 234.997 17.3085 235.694 17.7109C236.394 18.1094 236.931 18.6688 237.306 19.3892C237.684 20.1056 237.873 20.9407 237.873 21.8945C237.873 22.8443 237.684 23.6794 237.306 24.3998C236.931 25.1162 236.394 25.6756 235.694 26.0781C234.997 26.4765 234.162 26.6758 233.188 26.6758ZM233.207 24.4481C233.561 24.4481 233.861 24.3395 234.106 24.1221C234.352 23.9048 234.539 23.603 234.667 23.2166C234.8 22.8302 234.867 22.3835 234.867 21.8764C234.867 21.3613 234.8 20.9105 234.667 20.5241C234.539 20.1378 234.352 19.8359 234.106 19.6186C233.861 19.4013 233.561 19.2926 233.207 19.2926C232.84 19.2926 232.53 19.4013 232.277 19.6186C232.027 19.8359 231.836 20.1378 231.703 20.5241C231.575 20.9105 231.51 21.3613 231.51 21.8764C231.51 22.3835 231.575 22.8302 231.703 23.2166C231.836 23.603 232.027 23.9048 232.277 24.1221C232.53 24.3395 232.84 24.4481 233.207 24.4481ZM242.337 21.2123V26.5007H239.385V17.228H242.192V18.9304H242.295C242.5 18.3629 242.851 17.9182 243.346 17.5962C243.841 17.2702 244.43 17.1072 245.114 17.1072C245.766 17.1072 246.332 17.2541 246.811 17.5479C247.294 17.8377 247.668 18.2442 247.934 18.7674C248.203 19.2866 248.336 19.8943 248.332 20.5905V26.5007H245.38V21.1701C245.384 20.6549 245.253 20.2525 244.988 19.9627C244.726 19.6729 244.362 19.528 243.895 19.528C243.585 19.528 243.311 19.5965 243.074 19.7333C242.84 19.8661 242.659 20.0573 242.531 20.3068C242.406 20.5563 242.341 20.8582 242.337 21.2123Z" fill="#EFEFEF"/>
</g>
<defs>
<filter id="filter0_d_1_56" x="2.39972" y="0.39972" width="39.202" height="39.202" filterUnits="userSpaceOnUse" color-interpolation-filters="sRGB">
<feFlood flood-opacity="0" result="BackgroundImageFix"/>
<feColorMatrix in="SourceAlpha" type="matrix" values="0 0 0 0 0 0 0 0 0 0 0 0 0 0 0 0 0 0 127 0" result="hardAlpha"/>
<feOffset/>
<feGaussianBlur stdDeviation="2.80014"/>
<feComposite in2="hardAlpha" operator="out"/>
<feColorMatrix type="matrix" values="0 0 0 0 0 0 0 0 0 0 0 0 0 0 0 0 0 0 0.25 0"/>
<feBlend mode="normal" in2="BackgroundImageFix" result="effect1_dropShadow_1_56"/>
<feBlend mode="normal" in="SourceGraphic" in2="effect1_dropShadow_1_56" result="shape"/>
</filter>
<filter id="filter1_d_1_56" x="36.2871" y="3.78642" width="219.429" height="32.4286" filterUnits="userSpaceOnUse" color-interpolation-filters="sRGB">
<feFlood flood-opacity="0" result="BackgroundImageFix"/>
<feColorMatrix in="SourceAlpha" type="matrix" values="0 0 0 0 0 0 0 0 0 0 0 0 0 0 0 0 0 0 127 0" result="hardAlpha"/>
<feOffset/>
<feGaussianBlur stdDeviation="2.85714"/>
<feComposite in2="hardAlpha" operator="out"/>
<feColorMatrix type="matrix" values="0 0 0 0 0 0 0 0 0 0 0 0 0 0 0 0 0 0 0.25 0"/>
<feBlend mode="normal" in2="BackgroundImageFix" result="effect1_dropShadow_1_56"/>
<feBlend mode="normal" in="SourceGraphic" in2="effect1_dropShadow_1_56" result="shape"/>
</filter>
<filter id="filter2_d_1_56" x="39.3597" y="14.1371" width="78.2186" height="20.5689" filterUnits="userSpaceOnUse" color-interpolation-filters="sRGB">
<feFlood flood-opacity="0" result="BackgroundImageFix"/>
<feColorMatrix in="SourceAlpha" type="matrix" values="0 0 0 0 0 0 0 0 0 0 0 0 0 0 0 0 0 0 127 0" result="hardAlpha"/>
<feOffset dy="4"/>
<feGaussianBlur stdDeviation="2"/>
<feComposite in2="hardAlpha" operator="out"/>
<feColorMatrix type="matrix" values="0 0 0 0 0 0 0 0 0 0 0 0 0 0 0 0 0 0 0.25 0"/>
<feBlend mode="normal" in2="BackgroundImageFix" result="effect1_dropShadow_1_56"/>
<feBlend mode="normal" in="SourceGraphic" in2="effect1_dropShadow_1_56" result="shape"/>
</filter>
<linearGradient id="paint0_linear_1_56" x1="129.001" y1="0" x2="129.001" y2="40.0014" gradientUnits="userSpaceOnUse">
<stop stop-color="#6E3F23"/>
<stop offset="1" stop-color="#252524"/>
</linearGradient>
</defs>
</svg>
