<svg width="253" height="40" viewBox="0 0 253 40" fill="none" xmlns="http://www.w3.org/2000/svg">
<rect width="253.001" height="40.0014" rx="8" fill="url(#paint0_linear_1_56)"/>
<rect x="1.07143" y="1.07143" width="250.858" height="37.8585" rx="6.92857" stroke="white" stroke-opacity="0.15" stroke-width="2.14286"/>
<g filter="url(#filter0_d_1_56)">
<path d="M22 6C25.713 6 29.274 7.475 31.8995 10.1005C34.525 12.726 36 16.287 36 20C36 23.713 34.525 27.274 31.8995 29.8995C29.274 32.525 25.713 34 22 34C18.287 34 14.726 32.525 12.1005 29.8995C9.475 27.274 8 23.713 8 20C8 16.287 9.475 12.726 12.1005 10.1005C14.726 7.475 18.287 6 22 6Z" fill="black"/>
<path d="M21.4531 13.9242C17.3844 13.9242 14.2125 16.4891 14.2125 19.6773C14.2125 22.6852 17.1273 24.6047 21.6445 24.5117L21.7813 24.5062L22.2789 24.4898L22.1531 24.818L22.1695 24.8508C22.2056 24.9352 22.2384 25.0209 22.268 25.1078L22.2789 25.1406L22.2953 25.1953L22.3172 25.2719L22.3336 25.3211L22.3555 25.3758L22.3719 25.4359L22.3938 25.5234L22.4211 25.6164L22.4375 25.6766L22.4648 25.775L22.4922 25.8789L22.5141 25.9828L22.5414 26.0922L22.5633 26.1687L22.5906 26.2891L22.618 26.4094L22.6563 26.5734L22.6727 26.6609L22.7 26.7922L22.7273 26.9289L22.7602 27.0711L22.7984 27.2734L22.8313 27.4375L22.875 27.6672L22.8969 27.782L22.9352 27.9625L22.968 28.1484L23.0117 28.4L23.0609 28.6625L23.1047 28.9359L23.1539 29.2148L23.2031 29.4992L23.2523 29.7945L23.3016 30.1008L23.3398 30.3359L23.4 30.7352L23.4273 30.8992L23.493 31.3203L23.5422 31.6648L23.5859 31.9273L23.6352 32.2883L23.6625 32.4687C26.6648 32.0695 29.3336 30.6148 31.2805 28.4875L31.3406 28.4219L31.0617 27.3828L30.3234 24.6211L29.8641 22.9039L29.4594 21.3945L29.2078 20.4758L29.0492 19.8961L28.9563 19.5461L28.8688 19.2398L28.8359 19.1086L28.8141 19.0375L28.8031 18.9992L28.7922 18.9664C28.3656 17.5937 27.5398 16.3797 26.4133 15.4992C25.0898 14.4656 23.4109 13.9242 21.4531 13.9242ZM17.8766 28.5203C17.5211 28.4219 17.1492 28.6297 17.0453 28.9852L17.0398 29.0016L16.4273 31.2766C16.8103 31.4661 17.2028 31.6358 17.6031 31.7852L17.6961 31.8234L18.3578 29.357L18.3633 29.3406C18.4508 28.9797 18.2375 28.6133 17.8766 28.5203ZM21.6883 26.8523C21.3273 26.7539 20.9555 26.9617 20.8516 27.3172L20.8461 27.3336L19.9164 30.7789V30.7953C19.8804 30.9663 19.9112 31.1445 20.0025 31.2935C20.0938 31.4424 20.2386 31.5508 20.4073 31.5963C20.576 31.6418 20.7557 31.621 20.9095 31.5381C21.0633 31.4553 21.1796 31.3167 21.2344 31.1508L21.2398 31.1344L22.1695 27.6891V27.6727L22.1859 27.5961L22.1914 27.5687L22.1695 27.4539L22.1367 27.2953L22.1148 27.1969C22.0714 27.1131 22.011 27.0393 21.9376 26.98C21.8642 26.9207 21.7793 26.8772 21.6883 26.8523ZM15.2078 23.3031L15.1641 23.407L15.1586 23.4289L14.2289 26.8742L14.2234 26.8906C14.182 27.0633 14.2094 27.2453 14.2997 27.3981C14.3901 27.5509 14.5364 27.6626 14.7076 27.7095C14.8788 27.7564 15.0616 27.7348 15.2172 27.6493C15.3728 27.5639 15.4891 27.4212 15.5414 27.2516L15.5469 27.2352L16.3891 24.107C15.9516 23.8773 15.5523 23.6039 15.2078 23.3031ZM12.993 19.3383C12.632 19.2453 12.2602 19.4531 12.1563 19.8031L12.1508 19.8195L11.2211 23.2648V23.2812C11.1797 23.4539 11.207 23.6359 11.2974 23.7887C11.3877 23.9415 11.534 24.0532 11.7053 24.1001C11.8765 24.147 12.0593 24.1254 12.2149 24.04C12.3705 23.9545 12.4868 23.8118 12.5391 23.6422L12.5445 23.6258L13.4742 20.1805V20.1641C13.5617 19.8031 13.3484 19.4367 12.993 19.3383ZM33.8344 18.5562C33.4789 18.4633 33.107 18.6711 33.0031 19.0211L32.9977 19.0375L32.068 22.4828L32.0625 22.4992C32.0146 22.6747 32.0385 22.862 32.1287 23.02C32.219 23.1779 32.3683 23.2935 32.5438 23.3414C32.7192 23.3893 32.9066 23.3655 33.0645 23.2752C33.2225 23.185 33.3381 23.0357 33.3859 22.8602V22.8437L34.3211 19.3984V19.3766C34.4086 19.0211 34.1953 18.6547 33.8344 18.5562ZM10.9641 13.957C10.185 15.3756 9.68913 16.9321 9.50391 18.5398C9.59362 18.6414 9.71172 18.7138 9.84297 18.7477C10.1984 18.8406 10.5703 18.6328 10.6742 18.2828L10.6797 18.2664L11.6094 14.8211L11.6148 14.8047C11.7023 14.4437 11.4891 14.0773 11.1281 13.9789C11.0745 13.9651 11.0194 13.9578 10.9641 13.957ZM31.4828 13.9789C31.1219 13.8859 30.7555 14.0937 30.6461 14.4437V14.4602L29.7164 17.9055L29.7109 17.9219C29.6695 18.0945 29.6969 18.2765 29.7872 18.4293C29.8776 18.5822 30.0239 18.6938 30.1951 18.7407C30.3663 18.7876 30.5491 18.7661 30.7047 18.6806C30.8603 18.5951 30.9766 18.4525 31.0289 18.2828L31.0344 18.2664L31.9641 14.8211L31.9695 14.8047C32.057 14.4437 31.8383 14.0773 31.4828 13.9789Z" fill="white"/>
<path d="M22.3281 16.2266C22.5602 16.2266 22.7827 16.3187 22.9468 16.4828C23.1109 16.6469 23.2031 16.8695 23.2031 17.1016C23.2031 17.3336 23.1109 17.5562 22.9468 17.7203C22.7827 17.8844 22.5602 17.9766 22.3281 17.9766C22.0961 17.9766 21.8735 17.8844 21.7094 17.7203C21.5453 17.5562 21.4531 17.3336 21.4531 17.1016C21.4531 16.8695 21.5453 16.6469 21.7094 16.4828C21.8735 16.3187 22.0961 16.2266 22.3281 16.2266Z" fill="black"/>
<path d="M15.0109 10.7031C14.6555 10.6102 14.2836 10.818 14.1797 11.168L14.1742 11.1844L13.2445 14.6297L13.2391 14.6461C13.1976 14.8187 13.225 15.0007 13.3153 15.1535C13.4057 15.3064 13.552 15.418 13.7232 15.4649C13.8945 15.5118 14.0772 15.4903 14.2328 15.4048C14.3885 15.3193 14.5047 15.1767 14.557 15.007L14.5625 14.9906L15.4922 11.5453L15.4977 11.5234C15.5852 11.168 15.3719 10.8016 15.0109 10.7031ZM26.9602 11.3539C26.5992 11.2609 26.2273 11.4687 26.1234 11.8187L26.118 11.8352L25.4945 14.1539C25.899 14.3528 26.2852 14.587 26.6484 14.8539L26.7086 14.9031L27.4414 12.1961V12.1797C27.5289 11.8187 27.3156 11.4523 26.9602 11.3539ZM20.8789 7.47109C20.4421 7.51033 20.0077 7.57239 19.5773 7.65703L19.4844 7.67344L18.6203 10.8836L18.6148 10.9C18.5788 11.071 18.6096 11.2492 18.7009 11.3982C18.7922 11.5471 18.9371 11.6555 19.1057 11.701C19.2744 11.7465 19.4541 11.7256 19.6079 11.6428C19.7617 11.5599 19.878 11.4213 19.9328 11.2555L19.9383 11.2391L20.868 7.79375L20.8734 7.77734C20.8986 7.67701 20.9005 7.57226 20.8789 7.47109ZM29.432 9.85L29.2516 10.5281L29.2461 10.5445C29.2101 10.7155 29.2409 10.8937 29.3322 11.0427C29.4234 11.1917 29.5683 11.3 29.737 11.3455C29.9057 11.391 30.0854 11.3702 30.2392 11.2873C30.393 11.2045 30.5092 11.0659 30.5641 10.9L30.5695 10.8836L30.5914 10.8125C30.2493 10.492 29.8896 10.1907 29.5141 9.91015L29.432 9.85ZM24.0234 7.58594L23.6953 8.80547L23.6898 8.82187C23.6538 8.99283 23.6846 9.17108 23.7759 9.32004C23.8672 9.469 24.0121 9.57735 24.1807 9.62285C24.3494 9.66834 24.5291 9.64752 24.6829 9.56467C24.8367 9.48182 24.953 9.34323 25.0078 9.17734L25.0133 9.16094L25.3578 7.87578C24.9507 7.76382 24.5382 7.67256 24.1219 7.60234L24.0234 7.58594Z" fill="white"/>
</g>
<g filter="url(#filter1_d_1_56)">
<path d="M44.4041 26.5007H42.424L46.8732 14.1371H49.0284L53.4776 26.5007H51.4975L48.0021 16.3828H47.9055L44.4041 26.5007ZM44.7361 21.6591H51.1594V23.2287H44.7361V21.6591ZM61.8886 17.228L58.526 26.5007H56.5942L53.2256 17.228H55.1634L57.5118 24.3636H57.6084L59.9507 17.228H61.8886ZM66.0178 26.706C65.4302 26.706 64.899 26.5973 64.4241 26.38C63.9492 26.1586 63.5729 25.8386 63.2952 25.4201C63.0215 25.0015 62.8846 24.4884 62.8846 23.8807C62.8846 23.3575 62.9853 22.9268 63.1865 22.5888C63.3877 22.2507 63.6594 21.9831 64.0015 21.7859C64.3436 21.5886 64.7259 21.4397 65.1485 21.3391C65.5711 21.2385 66.0017 21.162 66.4404 21.1097C66.9958 21.0453 67.4466 20.993 67.7927 20.9528C68.1388 20.9085 68.3903 20.8381 68.5473 20.7415C68.7042 20.6449 68.7827 20.4879 68.7827 20.2706V20.2283C68.7827 19.7011 68.6338 19.2926 68.336 19.0028C68.0422 18.7131 67.6035 18.5682 67.0199 18.5682C66.4122 18.5682 65.9333 18.703 65.5832 18.9726C65.237 19.2383 64.9976 19.5341 64.8648 19.8601L63.1684 19.4737C63.3696 18.9103 63.6634 18.4555 64.0498 18.1094C64.4402 17.7592 64.8889 17.5057 65.396 17.3487C65.9031 17.1877 66.4364 17.1072 66.9958 17.1072C67.3661 17.1072 67.7585 17.1515 68.173 17.24C68.5916 17.3246 68.9819 17.4815 69.3442 17.7109C69.7104 17.9403 70.0102 18.2683 70.2437 18.6949C70.4771 19.1175 70.5938 19.6669 70.5938 20.343V26.5007H68.831V25.2329H68.7586C68.6419 25.4664 68.4668 25.6958 68.2334 25.9212C67.9999 26.1465 67.7001 26.3337 67.3339 26.4826C66.9676 26.6315 66.5289 26.706 66.0178 26.706ZM66.4102 25.2571C66.9093 25.2571 67.3359 25.1585 67.69 24.9613C68.0482 24.7641 68.3199 24.5065 68.505 24.1886C68.6942 23.8666 68.7888 23.5225 68.7888 23.1562V21.9609C68.7244 22.0253 68.5996 22.0857 68.4145 22.142C68.2334 22.1944 68.0261 22.2406 67.7927 22.2809C67.5592 22.3171 67.3319 22.3513 67.1105 22.3835C66.8891 22.4117 66.704 22.4358 66.5551 22.456C66.205 22.5002 65.885 22.5747 65.5952 22.6793C65.3095 22.784 65.0801 22.9349 64.907 23.1321C64.738 23.3253 64.6535 23.5828 64.6535 23.9048C64.6535 24.3515 64.8185 24.6896 65.1485 24.919C65.4785 25.1444 65.8991 25.2571 66.4102 25.2571ZM72.998 26.5007V17.228H74.8031V26.5007H72.998ZM73.9096 15.7972C73.5957 15.7972 73.326 15.6926 73.1006 15.4833C72.8793 15.27 72.7686 15.0164 72.7686 14.7226C72.7686 14.4248 72.8793 14.1713 73.1006 13.962C73.326 13.7487 73.5957 13.642 73.9096 13.642C74.2235 13.642 74.4911 13.7487 74.7125 13.962C74.9379 14.1713 75.0506 14.4248 75.0506 14.7226C75.0506 15.0164 74.9379 15.27 74.7125 15.4833C74.4911 15.6926 74.2235 15.7972 73.9096 15.7972ZM79.0365 14.1371V26.5007H77.2314V14.1371H79.0365ZM84.1633 26.706C83.5757 26.706 83.0445 26.5973 82.5696 26.38C82.0947 26.1586 81.7184 25.8386 81.4407 25.4201C81.167 25.0015 81.0301 24.4884 81.0301 23.8807C81.0301 23.3575 81.1308 22.9268 81.332 22.5888C81.5332 22.2507 81.8049 21.9831 82.147 21.7859C82.4891 21.5886 82.8714 21.4397 83.294 21.3391C83.7166 21.2385 84.1472 21.162 84.5859 21.1097C85.1413 21.0453 85.5921 20.993 85.9382 20.9528C86.2843 20.9085 86.5358 20.8381 86.6928 20.7415C86.8497 20.6449 86.9282 20.4879 86.9282 20.2706V20.2283C86.9282 19.7011 86.7793 19.2926 86.4815 19.0028C86.1877 18.7131 85.749 18.5682 85.1654 18.5682C84.5577 18.5682 84.0788 18.703 83.7287 18.9726C83.3825 19.2383 83.1431 19.5341 83.0103 19.8601L81.3139 19.4737C81.5151 18.9103 81.8089 18.4555 82.1953 18.1094C82.5857 17.7592 83.0344 17.5057 83.5415 17.3487C84.0486 17.1877 84.5819 17.1072 85.1413 17.1072C85.5116 17.1072 85.904 17.1515 86.3185 17.24C86.7371 17.3246 87.1274 17.4815 87.4897 17.7109C87.8559 17.9403 88.1557 18.2683 88.3892 18.6949C88.6226 19.1175 88.7393 19.6669 88.7393 20.343V26.5007H86.9765V25.2329H86.9041C86.7874 25.4664 86.6123 25.6958 86.3789 25.9212C86.1454 26.1465 85.8456 26.3337 85.4794 26.4826C85.1131 26.6315 84.6744 26.706 84.1633 26.706ZM84.5557 25.2571C85.0548 25.2571 85.4814 25.1585 85.8355 24.9613C86.1937 24.7641 86.4654 24.5065 86.6505 24.1886C86.8397 23.8666 86.9343 23.5225 86.9343 23.1562V21.9609C86.8699 22.0253 86.7451 22.0857 86.56 22.142C86.3789 22.1944 86.1716 22.2406 85.9382 22.2809C85.7047 22.3171 85.4774 22.3513 85.256 22.3835C85.0346 22.4117 84.8495 22.4358 84.7006 22.456C84.3505 22.5002 84.0305 22.5747 83.7407 22.6793C83.455 22.784 83.2256 22.9349 83.0525 23.1321C82.8835 23.3253 82.799 23.5828 82.799 23.9048C82.799 24.3515 82.964 24.6896 83.294 24.919C83.624 25.1444 84.0446 25.2571 84.5557 25.2571ZM91.2884 26.5007V14.1371H93.0934V18.7312H93.2021C93.3067 18.538 93.4577 18.3146 93.6549 18.0611C93.8521 17.8075 94.1258 17.5862 94.4759 17.397C94.826 17.2038 95.2889 17.1072 95.8644 17.1072C96.613 17.1072 97.2811 17.2964 97.8687 17.6747C98.4563 18.053 98.9171 18.5984 99.2511 19.3107C99.5892 20.0231 99.7582 20.8803 99.7582 21.8824C99.7582 22.8846 99.5912 23.7438 99.2571 24.4602C98.9231 25.1726 98.4643 25.7219 97.8807 26.1083C97.2972 26.4906 96.6311 26.6818 95.8825 26.6818C95.3191 26.6818 94.8582 26.5872 94.5 26.3981C94.1459 26.2089 93.8682 25.9876 93.667 25.734C93.4657 25.4805 93.3108 25.2551 93.2021 25.0579H93.0512V26.5007H91.2884ZM93.0572 21.8643C93.0572 22.5163 93.1518 23.0878 93.341 23.5788C93.5301 24.0698 93.8038 24.4542 94.162 24.7319C94.5202 25.0056 94.9589 25.1424 95.478 25.1424C96.0173 25.1424 96.4681 24.9995 96.8303 24.7138C97.1925 24.424 97.4662 24.0316 97.6513 23.5366C97.8405 23.0415 97.9351 22.4841 97.9351 21.8643C97.9351 21.2526 97.8425 20.7032 97.6574 20.2163C97.4763 19.7293 97.2026 19.3449 96.8363 19.0632C96.4741 18.7815 96.0214 18.6406 95.478 18.6406C94.9548 18.6406 94.5121 18.7754 94.1499 19.0451C93.7917 19.3147 93.5201 19.691 93.3349 20.174C93.1498 20.6569 93.0572 21.2204 93.0572 21.8643ZM103.59 14.1371V26.5007H101.785V14.1371H103.59ZM110.015 26.6878C109.101 26.6878 108.315 26.4926 107.655 26.1023C106.999 25.7078 106.491 25.1545 106.133 24.4421C105.779 23.7257 105.602 22.8866 105.602 21.9247C105.602 20.9749 105.779 20.1378 106.133 19.4133C106.491 18.6889 106.99 18.1234 107.63 17.717C108.274 17.3105 109.027 17.1072 109.888 17.1072C110.411 17.1072 110.918 17.1938 111.409 17.3668C111.9 17.5399 112.341 17.8115 112.732 18.1818C113.122 18.5521 113.43 19.033 113.655 19.6246C113.881 20.2122 113.993 20.9266 113.993 21.7677V22.4077H106.622V21.0554H112.224C112.224 20.5805 112.128 20.1599 111.935 19.7937C111.742 19.4234 111.47 19.1316 111.12 18.9183C110.774 18.705 110.367 18.5984 109.9 18.5984C109.393 18.5984 108.95 18.7231 108.572 18.9726C108.198 19.2181 107.908 19.5401 107.703 19.9386C107.502 20.333 107.401 20.7616 107.401 21.2244V22.2809C107.401 22.9007 107.51 23.4279 107.727 23.8626C107.948 24.2972 108.256 24.6292 108.651 24.8587C109.045 25.084 109.506 25.1967 110.033 25.1967C110.375 25.1967 110.687 25.1484 110.969 25.0518C111.251 24.9512 111.494 24.8023 111.699 24.6051C111.905 24.4079 112.061 24.1644 112.17 23.8746L113.879 24.1825C113.742 24.6856 113.496 25.1263 113.142 25.5046C112.792 25.8789 112.351 26.1707 111.82 26.38C111.293 26.5852 110.691 26.6878 110.015 26.6878ZM124.401 26.6878C123.532 26.6878 122.773 26.4886 122.125 26.0902C121.477 25.6917 120.974 25.1343 120.616 24.418C120.258 23.7016 120.079 22.8645 120.079 21.9066C120.079 20.9447 120.258 20.1036 120.616 19.3832C120.974 18.6627 121.477 18.1033 122.125 17.7049C122.773 17.3065 123.532 17.1072 124.401 17.1072C125.27 17.1072 126.029 17.3065 126.677 17.7049C127.325 18.1033 127.828 18.6627 128.186 19.3832C128.544 20.1036 128.723 20.9447 128.723 21.9066C128.723 22.8645 128.544 23.7016 128.186 24.418C127.828 25.1343 127.325 25.6917 126.677 26.0902C126.029 26.4886 125.27 26.6878 124.401 26.6878ZM124.407 25.1726C124.97 25.1726 125.437 25.0237 125.808 24.7258C126.178 24.428 126.452 24.0316 126.629 23.5366C126.81 23.0415 126.9 22.4962 126.9 21.9006C126.9 21.3089 126.81 20.7656 126.629 20.2706C126.452 19.7715 126.178 19.3711 125.808 19.0692C125.437 18.7674 124.97 18.6165 124.407 18.6165C123.84 18.6165 123.369 18.7674 122.994 19.0692C122.624 19.3711 122.348 19.7715 122.167 20.2706C121.99 20.7656 121.902 21.3089 121.902 21.9006C121.902 22.4962 121.99 23.0415 122.167 23.5366C122.348 24.0316 122.624 24.428 122.994 24.7258C123.369 25.0237 123.84 25.1726 124.407 25.1726ZM132.543 20.995V26.5007H130.738V17.228H132.471V18.7372H132.586C132.799 18.2462 133.133 17.8518 133.588 17.554C134.046 17.2561 134.624 17.1072 135.32 17.1072C135.952 17.1072 136.506 17.24 136.98 17.5057C137.455 17.7673 137.824 18.1577 138.085 18.6768C138.347 19.196 138.478 19.8379 138.478 20.6026V26.5007H136.673V20.8199C136.673 20.1478 136.497 19.6226 136.147 19.2443C135.797 18.862 135.316 18.6708 134.704 18.6708C134.286 18.6708 133.914 18.7614 133.588 18.9425C133.266 19.1236 133.01 19.3892 132.821 19.7393C132.636 20.0855 132.543 20.504 132.543 20.995Z" fill="#E8E8E8"/>
<path d="M148.324 26.1335C147.64 26.1335 147.018 25.9564 146.458 25.6023C145.899 25.2481 145.452 24.7168 145.118 24.0085C144.784 23.3002 144.617 22.4208 144.617 21.3704C144.617 20.2797 144.79 19.3822 145.136 18.6779C145.482 17.9736 145.935 17.4524 146.495 17.1143C147.058 16.7763 147.664 16.6072 148.312 16.6072C148.799 16.6072 149.215 16.6918 149.561 16.8608C149.908 17.0258 150.193 17.2391 150.419 17.5007C150.644 17.7623 150.815 18.034 150.932 18.3157H150.992V13.6371H153.944V26.0007H151.022V24.4975H150.932C150.807 24.7832 150.63 25.0509 150.401 25.3004C150.171 25.5499 149.883 25.7512 149.537 25.9041C149.195 26.057 148.791 26.1335 148.324 26.1335ZM149.35 23.8334C149.708 23.8334 150.014 23.7328 150.268 23.5316C150.521 23.3263 150.716 23.0386 150.853 22.6683C150.99 22.298 151.059 21.8634 151.059 21.3643C151.059 20.8572 150.99 20.4206 150.853 20.0543C150.72 19.6881 150.525 19.4064 150.268 19.2092C150.014 19.0119 149.708 18.9133 149.35 18.9133C148.984 18.9133 148.674 19.014 148.42 19.2152C148.167 19.4164 147.974 19.7002 147.841 20.0664C147.712 20.4326 147.648 20.8653 147.648 21.3643C147.648 21.8634 147.714 22.298 147.847 22.6683C147.98 23.0386 148.171 23.3263 148.42 23.5316C148.674 23.7328 148.984 23.8334 149.35 23.8334ZM160.146 26.1758C159.176 26.1758 158.339 25.9846 157.634 25.6023C156.934 25.2159 156.395 24.6665 156.016 23.9542C155.642 23.2378 155.455 22.3866 155.455 21.4006C155.455 20.4427 155.644 19.6056 156.022 18.8892C156.401 18.1688 156.934 17.6094 157.622 17.2109C158.31 16.8085 159.121 16.6072 160.055 16.6072C160.715 16.6072 161.319 16.7099 161.866 16.9151C162.414 17.1204 162.886 17.4242 163.285 17.8267C163.683 18.2292 163.993 18.7262 164.215 19.3178C164.436 19.9054 164.547 20.5795 164.547 21.3402V22.0767H156.487V20.3622H161.8C161.796 20.0483 161.721 19.7686 161.576 19.5231C161.431 19.2776 161.232 19.0864 160.979 18.9496C160.729 18.8087 160.441 18.7383 160.115 18.7383C159.785 18.7383 159.49 18.8127 159.228 18.9616C158.966 19.1065 158.759 19.3057 158.606 19.5593C158.453 19.8088 158.373 20.0926 158.365 20.4105V22.1552C158.365 22.5335 158.439 22.8655 158.588 23.1513C158.737 23.433 158.948 23.6523 159.222 23.8093C159.496 23.9663 159.822 24.0447 160.2 24.0447C160.462 24.0447 160.699 24.0085 160.912 23.9361C161.126 23.8636 161.309 23.757 161.462 23.6161C161.615 23.4752 161.729 23.3022 161.806 23.0969L164.516 23.1754C164.404 23.7831 164.156 24.3124 163.774 24.7631C163.396 25.2099 162.898 25.558 162.283 25.8075C161.667 26.053 160.955 26.1758 160.146 26.1758ZM169.006 20.7123V26.0007H166.054V16.728H168.861V18.4304H168.964C169.169 17.8629 169.519 17.4182 170.015 17.0962C170.51 16.7702 171.099 16.6072 171.783 16.6072C172.435 16.6072 173.001 16.7541 173.48 17.0479C173.963 17.3377 174.337 17.7442 174.603 18.2674C174.872 18.7866 175.005 19.3943 175.001 20.0905V26.0007H172.049V20.6701C172.053 20.1549 171.922 19.7525 171.657 19.4627C171.395 19.1729 171.031 19.028 170.564 19.028C170.254 19.028 169.98 19.0965 169.743 19.2333C169.509 19.3661 169.328 19.5573 169.2 19.8068C169.075 20.0563 169.01 20.3582 169.006 20.7123ZM181.157 26.1758C180.183 26.1758 179.346 25.9765 178.646 25.5781C177.95 25.1757 177.412 24.6162 177.034 23.8998C176.66 23.1794 176.473 22.3443 176.473 21.3945C176.473 20.4407 176.66 19.6056 177.034 18.8892C177.412 18.1688 177.95 17.6094 178.646 17.2109C179.346 16.8085 180.183 16.6072 181.157 16.6072C182.131 16.6072 182.966 16.8085 183.662 17.2109C184.363 17.6094 184.9 18.1688 185.274 18.8892C185.653 19.6056 185.842 20.4407 185.842 21.3945C185.842 22.3443 185.653 23.1794 185.274 23.8998C184.9 24.6162 184.363 25.1757 183.662 25.5781C182.966 25.9765 182.131 26.1758 181.157 26.1758ZM181.175 23.9481C181.529 23.9481 181.829 23.8395 182.075 23.6221C182.32 23.4048 182.507 23.103 182.636 22.7166C182.769 22.3302 182.835 21.8835 182.835 21.3764C182.835 20.8613 182.769 20.4105 182.636 20.0241C182.507 19.6378 182.32 19.3359 182.075 19.1186C181.829 18.9013 181.529 18.7926 181.175 18.7926C180.809 18.7926 180.499 18.9013 180.246 19.1186C179.996 19.3359 179.805 19.6378 179.672 20.0241C179.543 20.4105 179.479 20.8613 179.479 21.3764C179.479 21.8835 179.543 22.3302 179.672 22.7166C179.805 23.103 179.996 23.4048 180.246 23.6221C180.499 23.8395 180.809 23.9481 181.175 23.9481ZM189.014 26.1758C188.58 26.1758 188.207 26.0228 187.897 25.717C187.592 25.4111 187.441 25.0408 187.445 24.6062C187.441 24.1796 187.592 23.8153 187.897 23.5135C188.207 23.2076 188.58 23.0547 189.014 23.0547C189.425 23.0547 189.787 23.2076 190.101 23.5135C190.419 23.8153 190.58 24.1796 190.584 24.6062C190.58 24.8959 190.503 25.1596 190.354 25.397C190.21 25.6345 190.018 25.8236 189.781 25.9645C189.547 26.1053 189.292 26.1758 189.014 26.1758ZM195.486 13.6371V26.0007H192.534V13.6371H195.486ZM199.979 26.1577C199.387 26.1577 198.862 26.0591 198.403 25.8618C197.948 25.6606 197.588 25.3588 197.323 24.9563C197.061 24.5498 196.93 24.0407 196.93 23.429C196.93 22.9138 197.021 22.4792 197.202 22.125C197.383 21.7708 197.632 21.4831 197.95 21.2617C198.268 21.0404 198.635 20.8733 199.049 20.7606C199.464 20.6439 199.906 20.5654 200.377 20.5252C200.904 20.4769 201.329 20.4266 201.651 20.3743C201.973 20.3179 202.206 20.2395 202.351 20.1388C202.5 20.0342 202.575 19.8873 202.575 19.6981V19.668C202.575 19.3581 202.468 19.1186 202.255 18.9496C202.041 18.7805 201.754 18.696 201.391 18.696C201.001 18.696 200.687 18.7805 200.45 18.9496C200.212 19.1186 200.061 19.352 199.997 19.6498L197.274 19.5533C197.355 18.9898 197.562 18.4867 197.896 18.044C198.234 17.5973 198.697 17.2471 199.285 16.9936C199.876 16.736 200.587 16.6072 201.416 16.6072C202.007 16.6072 202.553 16.6777 203.052 16.8185C203.551 16.9554 203.985 17.1566 204.356 17.4222C204.726 17.6838 205.012 18.0058 205.213 18.3881C205.418 18.7705 205.521 19.2071 205.521 19.6981V26.0007H202.744V24.7088H202.671C202.506 25.0227 202.295 25.2883 202.037 25.5057C201.784 25.723 201.484 25.886 201.138 25.9947C200.796 26.1033 200.409 26.1577 199.979 26.1577ZM200.89 24.2258C201.208 24.2258 201.494 24.1614 201.748 24.0327C202.005 23.9039 202.21 23.7268 202.363 23.5014C202.516 23.272 202.593 23.0064 202.593 22.7045V21.8231C202.508 21.8674 202.406 21.9077 202.285 21.9439C202.168 21.9801 202.039 22.0143 201.899 22.0465C201.758 22.0787 201.613 22.1069 201.464 22.131C201.315 22.1552 201.172 22.1773 201.035 22.1974C200.758 22.2417 200.52 22.3101 200.323 22.4027C200.13 22.4953 199.981 22.616 199.876 22.7649C199.776 22.9098 199.725 23.0828 199.725 23.2841C199.725 23.59 199.834 23.8234 200.051 23.9844C200.273 24.1453 200.552 24.2258 200.89 24.2258ZM210.278 20.7123V26.0007H207.326V16.728H210.133V18.4304H210.236C210.441 17.8629 210.791 17.4182 211.286 17.0962C211.781 16.7702 212.371 16.6072 213.055 16.6072C213.707 16.6072 214.272 16.7541 214.751 17.0479C215.234 17.3377 215.608 17.7442 215.874 18.2674C216.144 18.7866 216.277 19.3943 216.272 20.0905V26.0007H213.32V20.6701C213.324 20.1549 213.194 19.7525 212.928 19.4627C212.666 19.1729 212.302 19.028 211.835 19.028C211.525 19.028 211.252 19.0965 211.014 19.2333C210.781 19.3661 210.6 19.5573 210.471 19.8068C210.346 20.0563 210.282 20.3582 210.278 20.7123ZM221.487 26.1335C220.803 26.1335 220.181 25.9564 219.621 25.6023C219.062 25.2481 218.615 24.7168 218.281 24.0085C217.947 23.3002 217.78 22.4208 217.78 21.3704C217.78 20.2797 217.953 19.3822 218.299 18.6779C218.645 17.9736 219.098 17.4524 219.658 17.1143C220.221 16.7763 220.827 16.6072 221.475 16.6072C221.962 16.6072 222.378 16.6918 222.724 16.8608C223.071 17.0258 223.356 17.2391 223.582 17.5007C223.807 17.7623 223.978 18.034 224.095 18.3157H224.155V13.6371H227.107V26.0007H224.185V24.4975H224.095C223.97 24.7832 223.793 25.0509 223.564 25.3004C223.334 25.5499 223.046 25.7512 222.7 25.9041C222.358 26.057 221.954 26.1335 221.487 26.1335ZM222.513 23.8334C222.871 23.8334 223.177 23.7328 223.431 23.5316C223.684 23.3263 223.88 23.0386 224.016 22.6683C224.153 22.298 224.222 21.8634 224.222 21.3643C224.222 20.8572 224.153 20.4206 224.016 20.0543C223.884 19.6881 223.688 19.4064 223.431 19.2092C223.177 19.0119 222.871 18.9133 222.513 18.9133C222.147 18.9133 221.837 19.014 221.583 19.2152C221.33 19.4164 221.137 19.7002 221.004 20.0664C220.875 20.4326 220.811 20.8653 220.811 21.3643C220.811 21.8634 220.877 22.298 221.01 22.6683C221.143 23.0386 221.334 23.3263 221.583 23.5316C221.837 23.7328 222.147 23.8334 222.513 23.8334ZM234.697 13.0575L230.713 27.8601H228.195L232.18 13.0575H234.697ZM238.309 16.728L239.836 19.7827L241.418 16.728H244.394L241.804 21.3643L244.491 26.0007H241.539L239.836 22.9219L238.176 26.0007H235.182L237.874 21.3643L235.314 16.728H238.309Z" fill="#EFEFEF"/>
</g>
<defs>
<filter id="filter0_d_1_56" x="2.39972" y="0.39972" width="39.202" height="39.202" filterUnits="userSpaceOnUse" color-interpolation-filters="sRGB">
<feFlood flood-opacity="0" result="BackgroundImageFix"/>
<feColorMatrix in="SourceAlpha" type="matrix" values="0 0 0 0 0 0 0 0 0 0 0 0 0 0 0 0 0 0 127 0" result="hardAlpha"/>
<feOffset/>
<feGaussianBlur stdDeviation="2.80014"/>
<feComposite in2="hardAlpha" operator="out"/>
<feColorMatrix type="matrix" values="0 0 0 0 0 0 0 0 0 0 0 0 0 0 0 0 0 0 0.25 0"/>
<feBlend mode="normal" in2="BackgroundImageFix" result="effect1_dropShadow_1_56"/>
<feBlend mode="normal" in="SourceGraphic" in2="effect1_dropShadow_1_56" result="shape"/>
</filter>
<filter id="filter1_d_1_56" x="36.2871" y="3.78642" width="214.429" height="32.4286" filterUnits="userSpaceOnUse" color-interpolation-filters="sRGB">
<feFlood flood-opacity="0" result="BackgroundImageFix"/>
<feColorMatrix in="SourceAlpha" type="matrix" values="0 0 0 0 0 0 0 0 0 0 0 0 0 0 0 0 0 0 127 0" result="hardAlpha"/>
<feOffset/>
<feGaussianBlur stdDeviation="2.85714"/>
<feComposite in2="hardAlpha" operator="out"/>
<feColorMatrix type="matrix" values="0 0 0 0 0 0 0 0 0 0 0 0 0 0 0 0 0 0 0.25 0"/>
<feBlend mode="normal" in2="BackgroundImageFix" result="effect1_dropShadow_1_56"/>
<feBlend mode="normal" in="SourceGraphic" in2="effect1_dropShadow_1_56" result="shape"/>
</filter>
<linearGradient id="paint0_linear_1_56" x1="126.501" y1="0" x2="126.501" y2="40.0014" gradientUnits="userSpaceOnUse">
<stop stop-color="#282828"/>
<stop offset="1" stop-color="#1A1A1A"/>
</linearGradient>
</defs>
</svg>
