<svg width="173" height="56" viewBox="0 0 173 56" fill="none" xmlns="http://www.w3.org/2000/svg">
<rect width="173" height="56" rx="8" fill="url(#paint0_linear_1_50)"/>
<rect x="1.05" y="1.05" width="170.9" height="53.9" rx="6.95" stroke="white" stroke-opacity="0.15" stroke-width="2.1"/>
<g filter="url(#filter0_d_1_50)">
<path d="M32 8C37.3043 8 42.3914 10.1071 46.1421 13.8579C49.8929 17.6086 52 22.6957 52 28C52 33.3043 49.8929 38.3914 46.1421 42.1421C42.3914 45.8929 37.3043 48 32 48C26.6957 48 21.6086 45.8929 17.8579 42.1421C14.1071 38.3914 12 33.3043 12 28C12 22.6957 14.1071 17.6086 17.8579 13.8579C21.6086 10.1071 26.6957 8 32 8Z" fill="black"/>
<path d="M31.2188 19.3203C25.4063 19.3203 20.875 22.9844 20.875 27.5391C20.875 31.8359 25.0391 34.5781 31.4922 34.4453L31.6875 34.4375L32.3984 34.4141L32.2188 34.8828L32.2422 34.9297C32.2937 35.0503 32.3406 35.1728 32.3828 35.2969L32.3984 35.3437L32.4219 35.4219L32.4531 35.5312L32.4766 35.6016L32.5078 35.6797L32.5313 35.7656L32.5625 35.8906L32.6016 36.0234L32.625 36.1094L32.6641 36.25L32.7031 36.3984L32.7344 36.5469L32.7734 36.7031L32.8047 36.8125L32.8438 36.9844L32.8828 37.1562L32.9375 37.3906L32.9609 37.5156L33 37.7031L33.0391 37.8984L33.0859 38.1016L33.1406 38.3906L33.1875 38.625L33.25 38.9531L33.2813 39.1172L33.3359 39.375L33.3828 39.6406L33.4453 40L33.5156 40.375L33.5781 40.7656L33.6484 41.1641L33.7188 41.5703L33.7891 41.9922L33.8594 42.4297L33.9141 42.7656L34 43.3359L34.0391 43.5703L34.1328 44.1719L34.2031 44.6641L34.2656 45.0391L34.3359 45.5547L34.375 45.8125C38.6641 45.2422 42.4766 43.1641 45.2578 40.125L45.3438 40.0312L44.9453 38.5469L43.8906 34.6016L43.2344 32.1484L42.6563 29.9922L42.2969 28.6797L42.0703 27.8516L41.9375 27.3516L41.8125 26.9141L41.7656 26.7266L41.7344 26.625L41.7188 26.5703L41.7031 26.5234C41.0938 24.5625 39.9141 22.8281 38.3047 21.5703C36.4141 20.0937 34.0156 19.3203 31.2188 19.3203ZM26.1094 40.1719C25.6016 40.0312 25.0703 40.3281 24.9219 40.8359L24.9141 40.8594L24.0391 44.1094C24.5862 44.3801 25.1468 44.6226 25.7188 44.8359L25.8516 44.8906L26.7969 41.3672L26.8047 41.3437C26.9297 40.8281 26.625 40.3047 26.1094 40.1719ZM31.5547 37.7891C31.0391 37.6484 30.5078 37.9453 30.3594 38.4531L30.3516 38.4766L29.0234 43.3984V43.4219C28.972 43.6661 29.016 43.9207 29.1464 44.1335C29.2768 44.3463 29.4837 44.5011 29.7247 44.5661C29.9657 44.6311 30.2224 44.6014 30.4421 44.483C30.6619 44.3647 30.8279 44.1667 30.9063 43.9297L30.9141 43.9062L32.2422 38.9844V38.9609L32.2656 38.8516L32.2734 38.8125L32.2422 38.6484L32.1953 38.4219L32.1641 38.2812C32.102 38.1616 32.0158 38.0561 31.9109 37.9714C31.806 37.8867 31.6847 37.8246 31.5547 37.7891ZM22.2969 32.7187L22.2344 32.8672L22.2266 32.8984L20.8984 37.8203L20.8906 37.8437C20.8314 38.0904 20.8705 38.3504 20.9996 38.5687C21.1287 38.787 21.3377 38.9465 21.5823 39.0135C21.8269 39.0805 22.088 39.0497 22.3103 38.9276C22.5326 38.8055 22.6987 38.6017 22.7734 38.3594L22.7813 38.3359L23.9844 33.8672C23.3594 33.5391 22.7891 33.1484 22.2969 32.7187ZM19.1328 27.0547C18.6172 26.9219 18.0859 27.2187 17.9375 27.7187L17.9297 27.7422L16.6016 32.6641V32.6875C16.5424 32.9341 16.5815 33.1941 16.7105 33.4124C16.8396 33.6308 17.0486 33.7903 17.2932 33.8573C17.5378 33.9243 17.7989 33.8935 18.0212 33.7714C18.2436 33.6493 18.4096 33.4455 18.4844 33.2031L18.4922 33.1797L19.8203 28.2578V28.2344C19.9453 27.7187 19.6406 27.1953 19.1328 27.0547ZM48.9063 25.9375C48.3984 25.8047 47.8672 26.1016 47.7188 26.6016L47.7109 26.625L46.3828 31.5469L46.375 31.5703C46.3066 31.821 46.3406 32.0886 46.4696 32.3143C46.5985 32.5399 46.8118 32.7051 47.0625 32.7734C47.3132 32.8418 47.5808 32.8078 47.8065 32.6789C48.0321 32.5499 48.1973 32.3366 48.2656 32.0859V32.0625L49.6016 27.1406V27.1094C49.7266 26.6016 49.4219 26.0781 48.9063 25.9375ZM16.2344 19.3672C15.1215 21.3937 14.413 23.6172 14.1484 25.9141C14.2766 26.0592 14.4453 26.1626 14.6328 26.2109C15.1406 26.3437 15.6719 26.0469 15.8203 25.5469L15.8281 25.5234L17.1563 20.6016L17.1641 20.5781C17.2891 20.0625 16.9844 19.5391 16.4688 19.3984C16.3922 19.3787 16.3135 19.3682 16.2344 19.3672ZM45.5469 19.3984C45.0313 19.2656 44.5078 19.5625 44.3516 20.0625V20.0859L43.0234 25.0078L43.0156 25.0312C42.9564 25.2779 42.9955 25.5379 43.1246 25.7562C43.2537 25.9745 43.4627 26.134 43.7073 26.201C43.9519 26.268 44.213 26.2372 44.4353 26.1151C44.6576 25.993 44.8237 25.7892 44.8984 25.5469L44.9063 25.5234L46.2344 20.6016L46.2422 20.5781C46.3672 20.0625 46.0547 19.5391 45.5469 19.3984Z" fill="white"/>
<path d="M32.4687 22.6094C32.8003 22.6094 33.1182 22.7411 33.3526 22.9755C33.5871 23.2099 33.7187 23.5279 33.7187 23.8594C33.7187 24.1909 33.5871 24.5088 33.3526 24.7433C33.1182 24.9777 32.8003 25.1094 32.4687 25.1094C32.1372 25.1094 31.8193 24.9777 31.5849 24.7433C31.3504 24.5088 31.2188 24.1909 31.2188 23.8594C31.2188 23.5279 31.3504 23.2099 31.5849 22.9755C31.8193 22.7411 32.1372 22.6094 32.4687 22.6094Z" fill="black"/>
<path d="M22.0156 14.7188C21.5078 14.5859 20.9766 14.8828 20.8281 15.3828L20.8203 15.4063L19.4922 20.3281L19.4844 20.3516C19.4252 20.5982 19.4643 20.8582 19.5934 21.0765C19.7224 21.2948 19.9314 21.4544 20.176 21.5214C20.4207 21.5883 20.6817 21.5575 20.9041 21.4354C21.1264 21.3134 21.2925 21.1096 21.3672 20.8672L21.375 20.8438L22.7031 15.9219L22.7109 15.8906C22.8359 15.3828 22.5312 14.8594 22.0156 14.7188ZM39.0859 15.6484C38.5703 15.5156 38.0391 15.8125 37.8906 16.3125L37.8828 16.3359L36.9922 19.6484C37.5701 19.9326 38.1217 20.2672 38.6406 20.6484L38.7266 20.7188L39.7734 16.8516V16.8281C39.8984 16.3125 39.5938 15.7891 39.0859 15.6484ZM30.3984 10.1016C29.7744 10.1576 29.1538 10.2463 28.5391 10.3672L28.4063 10.3906L27.1719 14.9766L27.1641 15C27.1126 15.2442 27.1566 15.4989 27.287 15.7117C27.4174 15.9245 27.6244 16.0793 27.8653 16.1442C28.1063 16.2092 28.363 16.1795 28.5827 16.0611C28.8025 15.9428 28.9686 15.7448 29.0469 15.5078L29.0547 15.4844L30.3828 10.5625L30.3906 10.5391C30.4266 10.3957 30.4292 10.2461 30.3984 10.1016ZM42.6172 13.5L42.3594 14.4688L42.3516 14.4922C42.3001 14.7364 42.3441 14.9911 42.4745 15.2039C42.6049 15.4167 42.8119 15.5714 43.0528 15.6364C43.2938 15.7014 43.5505 15.6717 43.7702 15.5533C43.99 15.435 44.1561 15.237 44.2344 15L44.2422 14.9766L44.2734 14.875C43.7847 14.4171 43.2709 13.9868 42.7344 13.5859L42.6172 13.5ZM34.8906 10.2656L34.4219 12.0078L34.4141 12.0313C34.3626 12.2755 34.4066 12.5301 34.537 12.7429C34.6674 12.9557 34.8744 13.1105 35.1153 13.1755C35.3563 13.2405 35.613 13.2108 35.8327 13.0924C36.0525 12.974 36.2186 12.776 36.2969 12.5391L36.3047 12.5156L36.7969 10.6797C36.2153 10.5197 35.626 10.3894 35.0313 10.2891L34.8906 10.2656Z" fill="white"/>
</g>
<g filter="url(#filter1_d_1_50)">
<path d="M62.2613 24.5H60.3977L64.5852 12.8636H66.6136L70.8011 24.5H68.9375L65.6477 14.9773H65.5568L62.2613 24.5ZM62.5738 19.9432H68.6193V21.4204H62.5738V19.9432ZM78.7173 15.7727L75.5525 24.5H73.7344L70.5639 15.7727H72.3878L74.598 22.4886H74.6889L76.8934 15.7727H78.7173ZM82.6037 24.6932C82.0506 24.6932 81.5506 24.5909 81.1037 24.3864C80.6567 24.178 80.3025 23.8769 80.0412 23.4829C79.7836 23.089 79.6548 22.6061 79.6548 22.0341C79.6548 21.5417 79.7495 21.1364 79.9389 20.8182C80.1283 20.5 80.384 20.2481 80.7059 20.0625C81.0279 19.8769 81.3878 19.7367 81.7855 19.642C82.1832 19.5473 82.5885 19.4754 83.0014 19.4261C83.5241 19.3655 83.9484 19.3163 84.2741 19.2784C84.5999 19.2367 84.8366 19.1704 84.9844 19.0795C85.1321 18.9886 85.2059 18.8409 85.2059 18.6364V18.5966C85.2059 18.1004 85.0658 17.7159 84.7855 17.4432C84.509 17.1704 84.0961 17.0341 83.5469 17.0341C82.9749 17.0341 82.5241 17.161 82.1946 17.4148C81.8688 17.6648 81.6434 17.9432 81.5184 18.25L79.9219 17.8864C80.1112 17.3561 80.3878 16.928 80.7514 16.6023C81.1188 16.2727 81.5412 16.0341 82.0184 15.8864C82.4957 15.7348 82.9976 15.6591 83.5241 15.6591C83.8726 15.6591 84.2419 15.7008 84.6321 15.7841C85.026 15.8636 85.3934 16.0114 85.7344 16.2273C86.079 16.4432 86.3612 16.7519 86.5809 17.1534C86.8006 17.5511 86.9105 18.0682 86.9105 18.7045V24.5H85.2514V23.3068H85.1832C85.0734 23.5265 84.9086 23.7424 84.6889 23.9545C84.4692 24.1667 84.187 24.3428 83.8423 24.4829C83.4976 24.6231 83.0847 24.6932 82.6037 24.6932ZM82.973 23.3295C83.4427 23.3295 83.8442 23.2367 84.1775 23.0511C84.5147 22.8655 84.7703 22.6231 84.9446 22.3239C85.1226 22.0208 85.2116 21.697 85.2116 21.3523V20.2273C85.151 20.2879 85.0336 20.3447 84.8594 20.3977C84.6889 20.447 84.4938 20.4905 84.2741 20.5284C84.0544 20.5625 83.8404 20.5947 83.6321 20.625C83.4237 20.6515 83.2495 20.6742 83.1094 20.6932C82.7798 20.7348 82.4787 20.8049 82.2059 20.9034C81.937 21.0019 81.7211 21.1439 81.5582 21.3295C81.3991 21.5114 81.3196 21.7538 81.3196 22.0568C81.3196 22.4773 81.4749 22.7954 81.7855 23.0114C82.0961 23.2235 82.4919 23.3295 82.973 23.3295ZM89.1733 24.5V15.7727H90.8721V24.5H89.1733ZM90.0312 14.4261C89.7358 14.4261 89.482 14.3276 89.2699 14.1307C89.0615 13.9299 88.9574 13.6913 88.9574 13.4148C88.9574 13.1345 89.0615 12.8958 89.2699 12.6989C89.482 12.4981 89.7358 12.3977 90.0312 12.3977C90.3267 12.3977 90.5786 12.4981 90.7869 12.6989C90.999 12.8958 91.1051 13.1345 91.1051 13.4148C91.1051 13.6913 90.999 13.9299 90.7869 14.1307C90.5786 14.3276 90.3267 14.4261 90.0312 14.4261ZM94.8565 12.8636V24.5H93.1576V12.8636H94.8565ZM99.6818 24.6932C99.1288 24.6932 98.6288 24.5909 98.1818 24.3864C97.7348 24.178 97.3807 23.8769 97.1193 23.4829C96.8617 23.089 96.7329 22.6061 96.7329 22.0341C96.7329 21.5417 96.8276 21.1364 97.017 20.8182C97.2064 20.5 97.4621 20.2481 97.7841 20.0625C98.106 19.8769 98.4659 19.7367 98.8636 19.642C99.2613 19.5473 99.6666 19.4754 100.08 19.4261C100.602 19.3655 101.026 19.3163 101.352 19.2784C101.678 19.2367 101.915 19.1704 102.062 19.0795C102.21 18.9886 102.284 18.8409 102.284 18.6364V18.5966C102.284 18.1004 102.144 17.7159 101.864 17.4432C101.587 17.1704 101.174 17.0341 100.625 17.0341C100.053 17.0341 99.6022 17.161 99.2727 17.4148C98.9469 17.6648 98.7216 17.9432 98.5966 18.25L97 17.8864C97.1894 17.3561 97.4659 16.928 97.8295 16.6023C98.1969 16.2727 98.6193 16.0341 99.0966 15.8864C99.5738 15.7348 100.076 15.6591 100.602 15.6591C100.951 15.6591 101.32 15.7008 101.71 15.7841C102.104 15.8636 102.472 16.0114 102.812 16.2273C103.157 16.4432 103.439 16.7519 103.659 17.1534C103.879 17.5511 103.989 18.0682 103.989 18.7045V24.5H102.33V23.3068H102.261C102.151 23.5265 101.987 23.7424 101.767 23.9545C101.547 24.1667 101.265 24.3428 100.92 24.4829C100.576 24.6231 100.163 24.6932 99.6818 24.6932ZM100.051 23.3295C100.521 23.3295 100.922 23.2367 101.256 23.0511C101.593 22.8655 101.848 22.6231 102.023 22.3239C102.201 22.0208 102.29 21.697 102.29 21.3523V20.2273C102.229 20.2879 102.112 20.3447 101.937 20.3977C101.767 20.447 101.572 20.4905 101.352 20.5284C101.133 20.5625 100.919 20.5947 100.71 20.625C100.502 20.6515 100.328 20.6742 100.187 20.6932C99.8579 20.7348 99.5568 20.8049 99.2841 20.9034C99.0151 21.0019 98.7992 21.1439 98.6363 21.3295C98.4772 21.5114 98.3977 21.7538 98.3977 22.0568C98.3977 22.4773 98.553 22.7954 98.8636 23.0114C99.1742 23.2235 99.57 23.3295 100.051 23.3295ZM106.388 24.5V12.8636H108.087V17.1875H108.189C108.287 17.0057 108.429 16.7954 108.615 16.5568C108.801 16.3182 109.058 16.1098 109.388 15.9318C109.717 15.75 110.153 15.6591 110.695 15.6591C111.399 15.6591 112.028 15.8371 112.581 16.1932C113.134 16.5492 113.568 17.0625 113.882 17.7329C114.2 18.4034 114.359 19.2102 114.359 20.1534C114.359 21.0966 114.202 21.9053 113.888 22.5795C113.573 23.25 113.142 23.767 112.592 24.1307C112.043 24.4905 111.416 24.6704 110.712 24.6704C110.181 24.6704 109.748 24.5814 109.41 24.4034C109.077 24.2254 108.816 24.017 108.626 23.7784C108.437 23.5398 108.291 23.3276 108.189 23.142H108.047V24.5H106.388ZM108.053 20.1364C108.053 20.75 108.142 21.2879 108.32 21.75C108.498 22.2121 108.755 22.5739 109.092 22.8352C109.429 23.0928 109.842 23.2216 110.331 23.2216C110.839 23.2216 111.263 23.0871 111.604 22.8182C111.945 22.5454 112.202 22.1761 112.376 21.7102C112.554 21.2443 112.643 20.7197 112.643 20.1364C112.643 19.5606 112.556 19.0436 112.382 18.5852C112.212 18.1269 111.954 17.7651 111.609 17.5C111.268 17.2348 110.842 17.1023 110.331 17.1023C109.839 17.1023 109.422 17.2292 109.081 17.4829C108.744 17.7367 108.488 18.0909 108.314 18.5454C108.14 19 108.053 19.5303 108.053 20.1364ZM117.966 12.8636V24.5H116.267V12.8636H117.966ZM124.013 24.6761C123.153 24.6761 122.412 24.4924 121.791 24.125C121.174 23.7538 120.696 23.2329 120.359 22.5625C120.026 21.8883 119.859 21.0985 119.859 20.1932C119.859 19.2992 120.026 18.5114 120.359 17.8295C120.696 17.1477 121.166 16.6155 121.768 16.2329C122.374 15.8504 123.083 15.6591 123.893 15.6591C124.386 15.6591 124.863 15.7405 125.325 15.9034C125.787 16.0663 126.202 16.322 126.57 16.6704C126.937 17.0189 127.227 17.4716 127.439 18.0284C127.651 18.5814 127.757 19.2538 127.757 20.0454V20.6477H120.82V19.375H126.092C126.092 18.928 126.001 18.5322 125.82 18.1875C125.638 17.839 125.382 17.5644 125.053 17.3636C124.727 17.1629 124.344 17.0625 123.905 17.0625C123.428 17.0625 123.011 17.1799 122.655 17.4148C122.303 17.6458 122.03 17.9489 121.837 18.3239C121.647 18.6951 121.553 19.0985 121.553 19.5341V20.5284C121.553 21.1117 121.655 21.6079 121.859 22.017C122.068 22.4261 122.357 22.7386 122.729 22.9545C123.1 23.1667 123.534 23.2727 124.03 23.2727C124.352 23.2727 124.645 23.2273 124.91 23.1364C125.176 23.0417 125.405 22.9015 125.598 22.7159C125.791 22.5303 125.939 22.3011 126.041 22.0284L127.649 22.3182C127.52 22.7917 127.289 23.2064 126.956 23.5625C126.626 23.9148 126.212 24.1894 125.712 24.3864C125.215 24.5795 124.649 24.6761 124.013 24.6761ZM137.553 24.6761C136.734 24.6761 136.02 24.4886 135.41 24.1136C134.801 23.7386 134.327 23.214 133.99 22.5398C133.653 21.8655 133.484 21.0776 133.484 20.1761C133.484 19.2708 133.653 18.4792 133.99 17.8011C134.327 17.1231 134.801 16.5966 135.41 16.2216C136.02 15.8466 136.734 15.6591 137.553 15.6591C138.371 15.6591 139.085 15.8466 139.695 16.2216C140.304 16.5966 140.778 17.1231 141.115 17.8011C141.452 18.4792 141.621 19.2708 141.621 20.1761C141.621 21.0776 141.452 21.8655 141.115 22.5398C140.778 23.214 140.304 23.7386 139.695 24.1136C139.085 24.4886 138.371 24.6761 137.553 24.6761ZM137.558 23.25C138.089 23.25 138.528 23.1098 138.876 22.8295C139.225 22.5492 139.482 22.1761 139.649 21.7102C139.82 21.2443 139.905 20.7311 139.905 20.1704C139.905 19.6136 139.82 19.1023 139.649 18.6364C139.482 18.1667 139.225 17.7898 138.876 17.5057C138.528 17.2216 138.089 17.0795 137.558 17.0795C137.024 17.0795 136.581 17.2216 136.229 17.5057C135.88 17.7898 135.621 18.1667 135.45 18.6364C135.284 19.1023 135.2 19.6136 135.2 20.1704C135.2 20.7311 135.284 21.2443 135.45 21.7102C135.621 22.1761 135.88 22.5492 136.229 22.8295C136.581 23.1098 137.024 23.25 137.558 23.25ZM145.216 19.3182V24.5H143.517V15.7727H145.148V17.1932H145.256C145.456 16.7311 145.771 16.3598 146.199 16.0795C146.631 15.7992 147.174 15.6591 147.83 15.6591C148.424 15.6591 148.945 15.7841 149.392 16.0341C149.839 16.2803 150.186 16.6477 150.432 17.1364C150.678 17.625 150.801 18.2292 150.801 18.9489V24.5H149.102V19.1534C149.102 18.5208 148.937 18.0265 148.608 17.6704C148.278 17.3106 147.826 17.1307 147.25 17.1307C146.856 17.1307 146.506 17.2159 146.199 17.3864C145.896 17.5568 145.655 17.8068 145.477 18.1364C145.303 18.4621 145.216 18.8561 145.216 19.3182Z" fill="#E8E8E8"/>
<path d="M64.3224 43.6328C63.6382 43.6328 63.0164 43.4557 62.457 43.1016C61.8976 42.7474 61.4509 42.2161 61.1168 41.5078C60.7828 40.7995 60.6158 39.9201 60.6158 38.8697C60.6158 37.779 60.7888 36.8815 61.1349 36.1772C61.481 35.4729 61.9338 34.9517 62.4932 34.6136C63.0567 34.2756 63.6624 34.1065 64.3104 34.1065C64.7973 34.1065 65.2139 34.191 65.56 34.3601C65.9061 34.5251 66.1919 34.7384 66.4172 35C66.6426 35.2616 66.8137 35.5333 66.9304 35.815H66.9907V31.1364H69.9428V43.5H67.0209V41.9968H66.9304C66.8056 42.2825 66.6285 42.5502 66.3991 42.7997C66.1697 43.0492 65.882 43.2505 65.5358 43.4034C65.1938 43.5563 64.7893 43.6328 64.3224 43.6328ZM65.3487 41.3327C65.7069 41.3327 66.0128 41.2321 66.2663 41.0309C66.5199 40.8256 66.7151 40.5379 66.8519 40.1676C66.9887 39.7973 67.0572 39.3627 67.0572 38.8636C67.0572 38.3565 66.9887 37.9199 66.8519 37.5536C66.7191 37.1874 66.5239 36.9056 66.2663 36.7084C66.0128 36.5112 65.7069 36.4126 65.3487 36.4126C64.9825 36.4126 64.6726 36.5132 64.419 36.7145C64.1655 36.9157 63.9723 37.1994 63.8395 37.5657C63.7107 37.9319 63.6463 38.3646 63.6463 38.8636C63.6463 39.3627 63.7127 39.7973 63.8455 40.1676C63.9783 40.5379 64.1695 40.8256 64.419 41.0309C64.6726 41.2321 64.9825 41.3327 65.3487 41.3327ZM76.1442 43.6751C75.1743 43.6751 74.3372 43.4839 73.6329 43.1016C72.9326 42.7152 72.3933 42.1658 72.015 41.4535C71.6407 40.7371 71.4536 39.8859 71.4536 38.8998C71.4536 37.942 71.6427 37.1049 72.021 36.3885C72.3993 35.6681 72.9326 35.1087 73.6208 34.7102C74.309 34.3078 75.12 34.1065 76.0537 34.1065C76.7137 34.1065 77.3174 34.2092 77.8648 34.4144C78.4121 34.6197 78.885 34.9235 79.2834 35.326C79.6819 35.7284 79.9918 36.2255 80.2131 36.8171C80.4345 37.4047 80.5452 38.0788 80.5452 38.8395V39.576H72.4859V37.8615H77.7984C77.7943 37.5476 77.7199 37.2679 77.575 37.0224C77.4301 36.7769 77.2309 36.5857 76.9773 36.4489C76.7278 36.308 76.4401 36.2376 76.1141 36.2376C75.784 36.2376 75.4882 36.312 75.2266 36.4609C74.965 36.6058 74.7578 36.805 74.6048 37.0586C74.4519 37.3081 74.3714 37.5918 74.3634 37.9098V39.6545C74.3634 40.0328 74.4378 40.3648 74.5867 40.6506C74.7356 40.9323 74.9469 41.1516 75.2206 41.3086C75.4943 41.4655 75.8203 41.544 76.1986 41.544C76.4602 41.544 76.6976 41.5078 76.9109 41.4354C77.1242 41.3629 77.3074 41.2563 77.4603 41.1154C77.6132 40.9745 77.7279 40.8015 77.8044 40.5962L80.515 40.6747C80.4023 41.2824 80.1548 41.8117 79.7724 42.2624C79.3941 42.7092 78.8971 43.0573 78.2813 43.3068C77.6656 43.5523 76.9532 43.6751 76.1442 43.6751ZM85.0049 38.2116V43.5H82.0529V34.2273H84.8601V35.9297H84.9627C85.1679 35.3622 85.5181 34.9175 86.0131 34.5955C86.5081 34.2695 87.0978 34.1065 87.7819 34.1065C88.4339 34.1065 88.9994 34.2534 89.4783 34.5472C89.9613 34.837 90.3356 35.2435 90.6012 35.7667C90.8708 36.2859 91.0036 36.8936 90.9996 37.5898V43.5H88.0476V38.1694C88.0516 37.6542 87.9208 37.2518 87.6552 36.962C87.3936 36.6722 87.0293 36.5273 86.5625 36.5273C86.2526 36.5273 85.9789 36.5958 85.7415 36.7326C85.508 36.8654 85.3269 37.0566 85.1981 37.3061C85.0734 37.5556 85.009 37.8575 85.0049 38.2116ZM97.1558 43.6751C96.1818 43.6751 95.3447 43.4758 94.6444 43.0774C93.9482 42.6749 93.4109 42.1155 93.0326 41.3991C92.6583 40.6787 92.4711 39.8436 92.4711 38.8938C92.4711 37.94 92.6583 37.1049 93.0326 36.3885C93.4109 35.6681 93.9482 35.1087 94.6444 34.7102C95.3447 34.3078 96.1818 34.1065 97.1558 34.1065C98.1297 34.1065 98.9648 34.3078 99.6611 34.7102C100.361 35.1087 100.899 35.6681 101.273 36.3885C101.651 37.1049 101.84 37.94 101.84 38.8938C101.84 39.8436 101.651 40.6787 101.273 41.3991C100.899 42.1155 100.361 42.6749 99.6611 43.0774C98.9648 43.4758 98.1297 43.6751 97.1558 43.6751ZM97.1739 41.4474C97.5281 41.4474 97.8279 41.3388 98.0734 41.1214C98.3189 40.9041 98.506 40.6023 98.6348 40.2159C98.7676 39.8295 98.834 39.3828 98.834 38.8757C98.834 38.3605 98.7676 37.9098 98.6348 37.5234C98.506 37.1371 98.3189 36.8352 98.0734 36.6179C97.8279 36.4006 97.5281 36.2919 97.1739 36.2919C96.8077 36.2919 96.4978 36.4006 96.2442 36.6179C95.9947 36.8352 95.8035 37.1371 95.6707 37.5234C95.5419 37.9098 95.4775 38.3605 95.4775 38.8757C95.4775 39.3828 95.5419 39.8295 95.6707 40.2159C95.8035 40.6023 95.9947 40.9041 96.2442 41.1214C96.4978 41.3388 96.8077 41.4474 97.1739 41.4474ZM105.013 43.6751C104.578 43.6751 104.206 43.5221 103.896 43.2163C103.59 42.9104 103.439 42.5401 103.443 42.1055C103.439 41.6788 103.59 41.3146 103.896 41.0128C104.206 40.7069 104.578 40.554 105.013 40.554C105.423 40.554 105.786 40.7069 106.099 41.0128C106.417 41.3146 106.578 41.6788 106.582 42.1055C106.578 42.3952 106.502 42.6588 106.353 42.8963C106.208 43.1337 106.017 43.3229 105.78 43.4638C105.546 43.6046 105.291 43.6751 105.013 43.6751ZM111.484 31.1364V43.5H108.532V31.1364H111.484ZM115.977 43.6569C115.386 43.6569 114.861 43.5583 114.402 43.3611C113.947 43.1599 113.587 42.8581 113.321 42.4556C113.06 42.0491 112.929 41.54 112.929 40.9283C112.929 40.4131 113.019 39.9784 113.2 39.6243C113.382 39.2701 113.631 38.9824 113.949 38.761C114.267 38.5396 114.633 38.3726 115.048 38.2599C115.462 38.1432 115.905 38.0647 116.376 38.0245C116.903 37.9762 117.328 37.9259 117.65 37.8736C117.972 37.8172 118.205 37.7387 118.35 37.6381C118.499 37.5335 118.573 37.3866 118.573 37.1974V37.1672C118.573 36.8574 118.467 36.6179 118.253 36.4489C118.04 36.2798 117.752 36.1953 117.39 36.1953C117 36.1953 116.686 36.2798 116.448 36.4489C116.211 36.6179 116.06 36.8513 115.996 37.1491L113.273 37.0525C113.353 36.4891 113.561 35.986 113.895 35.5433C114.233 35.0966 114.696 34.7464 115.283 34.4929C115.875 34.2353 116.585 34.1065 117.414 34.1065C118.006 34.1065 118.551 34.177 119.05 34.3178C119.549 34.4547 119.984 34.6559 120.354 34.9215C120.724 35.1831 121.01 35.5051 121.211 35.8874C121.417 36.2698 121.519 36.7064 121.519 37.1974V43.5H118.742V42.2081H118.67C118.505 42.522 118.294 42.7876 118.036 43.005C117.782 43.2223 117.483 43.3853 117.137 43.494C116.794 43.6026 116.408 43.6569 115.977 43.6569ZM116.889 41.7251C117.207 41.7251 117.493 41.6607 117.746 41.5319C118.004 41.4032 118.209 41.2261 118.362 41.0007C118.515 40.7713 118.591 40.5057 118.591 40.2038V39.3224C118.507 39.3667 118.404 39.4069 118.284 39.4432C118.167 39.4794 118.038 39.5136 117.897 39.5458C117.756 39.578 117.611 39.6062 117.463 39.6303C117.314 39.6545 117.171 39.6766 117.034 39.6967C116.756 39.741 116.519 39.8094 116.322 39.902C116.128 39.9945 115.979 40.1153 115.875 40.2642C115.774 40.4091 115.724 40.5821 115.724 40.7834C115.724 41.0892 115.833 41.3227 116.05 41.4837C116.271 41.6446 116.551 41.7251 116.889 41.7251ZM126.276 38.2116V43.5H123.324V34.2273H126.132V35.9297H126.234C126.439 35.3622 126.79 34.9175 127.285 34.5955C127.78 34.2695 128.369 34.1065 129.053 34.1065C129.705 34.1065 130.271 34.2534 130.75 34.5472C131.233 34.837 131.607 35.2435 131.873 35.7667C132.142 36.2859 132.275 36.8936 132.271 37.5898V43.5H129.319V38.1694C129.323 37.6542 129.192 37.2518 128.927 36.962C128.665 36.6722 128.301 36.5273 127.834 36.5273C127.524 36.5273 127.25 36.5958 127.013 36.7326C126.779 36.8654 126.598 37.0566 126.47 37.3061C126.345 37.5556 126.28 37.8575 126.276 38.2116ZM137.485 43.6328C136.801 43.6328 136.18 43.4557 135.62 43.1016C135.061 42.7474 134.614 42.2161 134.28 41.5078C133.946 40.7995 133.779 39.9201 133.779 38.8697C133.779 37.779 133.952 36.8815 134.298 36.1772C134.644 35.4729 135.097 34.9517 135.656 34.6136C136.22 34.2756 136.825 34.1065 137.473 34.1065C137.96 34.1065 138.377 34.191 138.723 34.3601C139.069 34.5251 139.355 34.7384 139.58 35C139.806 35.2616 139.977 35.5333 140.093 35.815H140.154V31.1364H143.106V43.5H140.184V41.9968H140.093C139.969 42.2825 139.792 42.5502 139.562 42.7997C139.333 43.0492 139.045 43.2505 138.699 43.4034C138.357 43.5563 137.952 43.6328 137.485 43.6328ZM138.512 41.3327C138.87 41.3327 139.176 41.2321 139.429 41.0309C139.683 40.8256 139.878 40.5379 140.015 40.1676C140.152 39.7973 140.22 39.3627 140.22 38.8636C140.22 38.3565 140.152 37.9199 140.015 37.5536C139.882 37.1874 139.687 36.9056 139.429 36.7084C139.176 36.5112 138.87 36.4126 138.512 36.4126C138.146 36.4126 137.836 36.5132 137.582 36.7145C137.329 36.9157 137.135 37.1994 137.003 37.5657C136.874 37.9319 136.809 38.3646 136.809 38.8636C136.809 39.3627 136.876 39.7973 137.009 40.1676C137.141 40.5379 137.333 40.8256 137.582 41.0309C137.836 41.2321 138.146 41.3327 138.512 41.3327ZM150.696 30.5568L146.711 45.3594H144.194L148.178 30.5568H150.696ZM154.307 34.2273L155.835 37.2819L157.416 34.2273H160.393L157.803 38.8636L160.489 43.5H157.537L155.835 40.4212L154.175 43.5H151.18L153.873 38.8636L151.313 34.2273H154.307Z" fill="#EFEFEF"/>
</g>
<defs>
<filter id="filter0_d_1_50" x="6.28571" y="2.28571" width="51.4286" height="51.4286" filterUnits="userSpaceOnUse" color-interpolation-filters="sRGB">
<feFlood flood-opacity="0" result="BackgroundImageFix"/>
<feColorMatrix in="SourceAlpha" type="matrix" values="0 0 0 0 0 0 0 0 0 0 0 0 0 0 0 0 0 0 127 0" result="hardAlpha"/>
<feOffset/>
<feGaussianBlur stdDeviation="2.85714"/>
<feComposite in2="hardAlpha" operator="out"/>
<feColorMatrix type="matrix" values="0 0 0 0 0 0 0 0 0 0 0 0 0 0 0 0 0 0 0.25 0"/>
<feBlend mode="normal" in2="BackgroundImageFix" result="effect1_dropShadow_1_50"/>
<feBlend mode="normal" in="SourceGraphic" in2="effect1_dropShadow_1_50" result="shape"/>
</filter>
<filter id="filter1_d_1_50" x="54.4" y="3.9" width="112.2" height="48.2" filterUnits="userSpaceOnUse" color-interpolation-filters="sRGB">
<feFlood flood-opacity="0" result="BackgroundImageFix"/>
<feColorMatrix in="SourceAlpha" type="matrix" values="0 0 0 0 0 0 0 0 0 0 0 0 0 0 0 0 0 0 127 0" result="hardAlpha"/>
<feOffset/>
<feGaussianBlur stdDeviation="2.8"/>
<feComposite in2="hardAlpha" operator="out"/>
<feColorMatrix type="matrix" values="0 0 0 0 0 0 0 0 0 0 0 0 0 0 0 0 0 0 0.25 0"/>
<feBlend mode="normal" in2="BackgroundImageFix" result="effect1_dropShadow_1_50"/>
<feBlend mode="normal" in="SourceGraphic" in2="effect1_dropShadow_1_50" result="shape"/>
</filter>
<linearGradient id="paint0_linear_1_50" x1="86.5" y1="0" x2="86.5" y2="56" gradientUnits="userSpaceOnUse">
<stop stop-color="#282828"/>
<stop offset="1" stop-color="#1A1A1A"/>
</linearGradient>
</defs>
</svg>
