<svg width="217" height="40" viewBox="0 0 217 40" fill="none" xmlns="http://www.w3.org/2000/svg">
<rect width="217.001" height="40.0014" rx="8" fill="url(#paint0_linear_1_56)"/>
<rect x="1.07143" y="1.07143" width="214.858" height="37.8585" rx="6.92857" stroke="white" stroke-opacity="0.15" stroke-width="2.14286"/>
<g filter="url(#filter0_d_1_56)">
<path d="M15.0023 6C13.1458 6 11.3653 6.7375 10.0526 8.05025C8.73984 9.36301 8.00234 11.1435 8.00234 13C8.00234 14.8565 8.73984 16.637 10.0526 17.9497C11.3653 19.2625 13.1458 20 15.0023 20C16.8585 19.9994 18.6383 19.2616 19.9506 17.9489C21.2628 16.6362 22 14.8561 22 13C22 11.1439 21.2628 9.36376 19.9506 8.05108C18.6383 6.73839 16.8585 6.00062 15.0023 6ZM25.6773 6.09333C25.1653 6.09395 24.6745 6.29777 24.3127 6.66003C23.9509 7.02228 23.7477 7.51334 23.7477 8.02533V17.5337C23.7478 17.8726 23.8371 18.2056 24.0067 18.4991C24.1762 18.7926 24.4199 19.0363 24.7135 19.2059C25.007 19.3754 25.3399 19.4647 25.6789 19.4648C26.0178 19.465 26.3508 19.3759 26.6445 19.2067L34.8788 14.4537C35.1727 14.2842 35.4168 14.0402 35.5865 13.7464C35.7562 13.4527 35.8456 13.1194 35.8456 12.7801C35.8456 12.4408 35.7562 12.1075 35.5865 11.8137C35.4168 11.5199 35.1727 11.276 34.8788 11.1065L33.6608 10.4018L26.6445 6.3535C26.3509 6.18347 26.0166 6.09374 25.6773 6.09333ZM29.8482 21.4175C29.7229 21.4173 29.5989 21.4419 29.4831 21.4899C29.3674 21.5378 29.2623 21.6081 29.1738 21.6968C29.0854 21.7855 29.0153 21.8908 28.9677 22.0066C28.92 22.1225 28.8957 22.2466 28.8962 22.3718V25.2337H26.0332C25.7802 25.2337 25.5376 25.3342 25.3588 25.513C25.1799 25.6919 25.0794 25.9345 25.0794 26.1874C25.0794 26.4404 25.1799 26.683 25.3588 26.8618C25.5376 27.0407 25.7802 27.1412 26.0332 27.1412H28.8962V30.003C28.8962 30.2559 28.9967 30.4985 29.1755 30.6774C29.3544 30.8563 29.597 30.9567 29.8499 30.9567C30.1029 30.9567 30.3455 30.8563 30.5243 30.6774C30.7032 30.4985 30.8037 30.2559 30.8037 30.003V27.1412H33.6643C33.9173 27.1412 34.1599 27.0407 34.3387 26.8618C34.5176 26.683 34.6181 26.4404 34.6181 26.1874C34.6181 25.9345 34.5176 25.6919 34.3387 25.513C34.1599 25.3342 33.9173 25.2337 33.6643 25.2337H30.8025V22.3718C30.8027 22.2465 30.7781 22.1223 30.7302 22.0064C30.6823 21.8906 30.612 21.7853 30.5233 21.6967C30.4347 21.608 30.3294 21.5377 30.2136 21.4898C30.0977 21.4419 29.9735 21.4173 29.8482 21.4175ZM11.2655 21.75C10.8364 21.7492 10.4113 21.8332 10.0147 21.9971C9.61806 22.161 9.25772 22.4016 8.95432 22.7051C8.65092 23.0086 8.41044 23.3691 8.24668 23.7657C8.08291 24.1624 7.99909 24.5875 8.00001 25.0167V30.7333C8.00001 32.5417 9.45601 34 11.2667 34H16.9833C18.7917 34 20.25 32.5417 20.25 30.7333V25.0167C20.25 23.2083 18.7917 21.75 16.9833 21.75H11.2655Z" fill="white"/>
</g>
<g filter="url(#filter1_d_1_56)">
<path d="M44.4041 26.5007H42.424L46.8732 14.1371H49.0284L53.4776 26.5007H51.4975L48.0021 16.3828H47.9055L44.4041 26.5007ZM44.7361 21.6591H51.1594V23.2287H44.7361V21.6591ZM61.8886 17.228L58.526 26.5007H56.5942L53.2256 17.228H55.1634L57.5118 24.3636H57.6084L59.9507 17.228H61.8886ZM66.0178 26.706C65.4302 26.706 64.899 26.5973 64.4241 26.38C63.9492 26.1586 63.5729 25.8386 63.2952 25.4201C63.0215 25.0015 62.8846 24.4884 62.8846 23.8807C62.8846 23.3575 62.9853 22.9268 63.1865 22.5888C63.3877 22.2507 63.6594 21.9831 64.0015 21.7859C64.3436 21.5886 64.7259 21.4397 65.1485 21.3391C65.5711 21.2385 66.0017 21.162 66.4404 21.1097C66.9958 21.0453 67.4466 20.993 67.7927 20.9528C68.1388 20.9085 68.3903 20.8381 68.5473 20.7415C68.7042 20.6449 68.7827 20.4879 68.7827 20.2706V20.2283C68.7827 19.7011 68.6338 19.2926 68.336 19.0028C68.0422 18.7131 67.6035 18.5682 67.0199 18.5682C66.4122 18.5682 65.9333 18.703 65.5832 18.9726C65.237 19.2383 64.9976 19.5341 64.8648 19.8601L63.1684 19.4737C63.3696 18.9103 63.6634 18.4555 64.0498 18.1094C64.4402 17.7592 64.8889 17.5057 65.396 17.3487C65.9031 17.1877 66.4364 17.1072 66.9958 17.1072C67.3661 17.1072 67.7585 17.1515 68.173 17.24C68.5916 17.3246 68.9819 17.4815 69.3442 17.7109C69.7104 17.9403 70.0102 18.2683 70.2437 18.6949C70.4771 19.1175 70.5938 19.6669 70.5938 20.343V26.5007H68.831V25.2329H68.7586C68.6419 25.4664 68.4668 25.6958 68.2334 25.9212C67.9999 26.1465 67.7001 26.3337 67.3339 26.4826C66.9676 26.6315 66.5289 26.706 66.0178 26.706ZM66.4102 25.2571C66.9093 25.2571 67.3359 25.1585 67.69 24.9613C68.0482 24.7641 68.3199 24.5065 68.505 24.1886C68.6942 23.8666 68.7888 23.5225 68.7888 23.1562V21.9609C68.7244 22.0253 68.5996 22.0857 68.4145 22.142C68.2334 22.1944 68.0261 22.2406 67.7927 22.2809C67.5592 22.3171 67.3319 22.3513 67.1105 22.3835C66.8891 22.4117 66.704 22.4358 66.5551 22.456C66.205 22.5002 65.885 22.5747 65.5952 22.6793C65.3095 22.784 65.0801 22.9349 64.907 23.1321C64.738 23.3253 64.6535 23.5828 64.6535 23.9048C64.6535 24.3515 64.8185 24.6896 65.1485 24.919C65.4785 25.1444 65.8991 25.2571 66.4102 25.2571ZM72.998 26.5007V17.228H74.8031V26.5007H72.998ZM73.9096 15.7972C73.5957 15.7972 73.326 15.6926 73.1006 15.4833C72.8793 15.27 72.7686 15.0164 72.7686 14.7226C72.7686 14.4248 72.8793 14.1713 73.1006 13.962C73.326 13.7487 73.5957 13.642 73.9096 13.642C74.2235 13.642 74.4911 13.7487 74.7125 13.962C74.9379 14.1713 75.0506 14.4248 75.0506 14.7226C75.0506 15.0164 74.9379 15.27 74.7125 15.4833C74.4911 15.6926 74.2235 15.7972 73.9096 15.7972ZM79.0365 14.1371V26.5007H77.2314V14.1371H79.0365ZM84.1633 26.706C83.5757 26.706 83.0445 26.5973 82.5696 26.38C82.0947 26.1586 81.7184 25.8386 81.4407 25.4201C81.167 25.0015 81.0301 24.4884 81.0301 23.8807C81.0301 23.3575 81.1308 22.9268 81.332 22.5888C81.5332 22.2507 81.8049 21.9831 82.147 21.7859C82.4891 21.5886 82.8714 21.4397 83.294 21.3391C83.7166 21.2385 84.1472 21.162 84.5859 21.1097C85.1413 21.0453 85.5921 20.993 85.9382 20.9528C86.2843 20.9085 86.5358 20.8381 86.6928 20.7415C86.8497 20.6449 86.9282 20.4879 86.9282 20.2706V20.2283C86.9282 19.7011 86.7793 19.2926 86.4815 19.0028C86.1877 18.7131 85.749 18.5682 85.1654 18.5682C84.5577 18.5682 84.0788 18.703 83.7287 18.9726C83.3825 19.2383 83.1431 19.5341 83.0103 19.8601L81.3139 19.4737C81.5151 18.9103 81.8089 18.4555 82.1953 18.1094C82.5857 17.7592 83.0344 17.5057 83.5415 17.3487C84.0486 17.1877 84.5819 17.1072 85.1413 17.1072C85.5116 17.1072 85.904 17.1515 86.3185 17.24C86.7371 17.3246 87.1274 17.4815 87.4897 17.7109C87.8559 17.9403 88.1557 18.2683 88.3892 18.6949C88.6226 19.1175 88.7393 19.6669 88.7393 20.343V26.5007H86.9765V25.2329H86.9041C86.7874 25.4664 86.6123 25.6958 86.3789 25.9212C86.1454 26.1465 85.8456 26.3337 85.4794 26.4826C85.1131 26.6315 84.6744 26.706 84.1633 26.706ZM84.5557 25.2571C85.0548 25.2571 85.4814 25.1585 85.8355 24.9613C86.1937 24.7641 86.4654 24.5065 86.6505 24.1886C86.8397 23.8666 86.9343 23.5225 86.9343 23.1562V21.9609C86.8699 22.0253 86.7451 22.0857 86.56 22.142C86.3789 22.1944 86.1716 22.2406 85.9382 22.2809C85.7047 22.3171 85.4774 22.3513 85.256 22.3835C85.0346 22.4117 84.8495 22.4358 84.7006 22.456C84.3505 22.5002 84.0305 22.5747 83.7407 22.6793C83.455 22.784 83.2256 22.9349 83.0525 23.1321C82.8835 23.3253 82.799 23.5828 82.799 23.9048C82.799 24.3515 82.964 24.6896 83.294 24.919C83.624 25.1444 84.0446 25.2571 84.5557 25.2571ZM91.2884 26.5007V14.1371H93.0934V18.7312H93.2021C93.3067 18.538 93.4577 18.3146 93.6549 18.0611C93.8521 17.8075 94.1258 17.5862 94.4759 17.397C94.826 17.2038 95.2889 17.1072 95.8644 17.1072C96.613 17.1072 97.2811 17.2964 97.8687 17.6747C98.4563 18.053 98.9171 18.5984 99.2511 19.3107C99.5892 20.0231 99.7582 20.8803 99.7582 21.8824C99.7582 22.8846 99.5912 23.7438 99.2571 24.4602C98.9231 25.1726 98.4643 25.7219 97.8807 26.1083C97.2972 26.4906 96.6311 26.6818 95.8825 26.6818C95.3191 26.6818 94.8582 26.5872 94.5 26.3981C94.1459 26.2089 93.8682 25.9876 93.667 25.734C93.4657 25.4805 93.3108 25.2551 93.2021 25.0579H93.0512V26.5007H91.2884ZM93.0572 21.8643C93.0572 22.5163 93.1518 23.0878 93.341 23.5788C93.5301 24.0698 93.8038 24.4542 94.162 24.7319C94.5202 25.0056 94.9589 25.1424 95.478 25.1424C96.0173 25.1424 96.4681 24.9995 96.8303 24.7138C97.1925 24.424 97.4662 24.0316 97.6513 23.5366C97.8405 23.0415 97.9351 22.4841 97.9351 21.8643C97.9351 21.2526 97.8425 20.7032 97.6574 20.2163C97.4763 19.7293 97.2026 19.3449 96.8363 19.0632C96.4741 18.7815 96.0214 18.6406 95.478 18.6406C94.9548 18.6406 94.5121 18.7754 94.1499 19.0451C93.7917 19.3147 93.5201 19.691 93.3349 20.174C93.1498 20.6569 93.0572 21.2204 93.0572 21.8643ZM103.59 14.1371V26.5007H101.785V14.1371H103.59ZM110.015 26.6878C109.101 26.6878 108.315 26.4926 107.655 26.1023C106.999 25.7078 106.491 25.1545 106.133 24.4421C105.779 23.7257 105.602 22.8866 105.602 21.9247C105.602 20.9749 105.779 20.1378 106.133 19.4133C106.491 18.6889 106.99 18.1234 107.63 17.717C108.274 17.3105 109.027 17.1072 109.888 17.1072C110.411 17.1072 110.918 17.1938 111.409 17.3668C111.9 17.5399 112.341 17.8115 112.732 18.1818C113.122 18.5521 113.43 19.033 113.655 19.6246C113.881 20.2122 113.993 20.9266 113.993 21.7677V22.4077H106.622V21.0554H112.224C112.224 20.5805 112.128 20.1599 111.935 19.7937C111.742 19.4234 111.47 19.1316 111.12 18.9183C110.774 18.705 110.367 18.5984 109.9 18.5984C109.393 18.5984 108.95 18.7231 108.572 18.9726C108.198 19.2181 107.908 19.5401 107.703 19.9386C107.502 20.333 107.401 20.7616 107.401 21.2244V22.2809C107.401 22.9007 107.51 23.4279 107.727 23.8626C107.948 24.2972 108.256 24.6292 108.651 24.8587C109.045 25.084 109.506 25.1967 110.033 25.1967C110.375 25.1967 110.687 25.1484 110.969 25.0518C111.251 24.9512 111.494 24.8023 111.699 24.6051C111.905 24.4079 112.061 24.1644 112.17 23.8746L113.879 24.1825C113.742 24.6856 113.496 25.1263 113.142 25.5046C112.792 25.8789 112.351 26.1707 111.82 26.38C111.293 26.5852 110.691 26.6878 110.015 26.6878ZM124.401 26.6878C123.532 26.6878 122.773 26.4886 122.125 26.0902C121.477 25.6917 120.974 25.1343 120.616 24.418C120.258 23.7016 120.079 22.8645 120.079 21.9066C120.079 20.9447 120.258 20.1036 120.616 19.3832C120.974 18.6627 121.477 18.1033 122.125 17.7049C122.773 17.3065 123.532 17.1072 124.401 17.1072C125.27 17.1072 126.029 17.3065 126.677 17.7049C127.325 18.1033 127.828 18.6627 128.186 19.3832C128.544 20.1036 128.723 20.9447 128.723 21.9066C128.723 22.8645 128.544 23.7016 128.186 24.418C127.828 25.1343 127.325 25.6917 126.677 26.0902C126.029 26.4886 125.27 26.6878 124.401 26.6878ZM124.407 25.1726C124.97 25.1726 125.437 25.0237 125.808 24.7258C126.178 24.428 126.452 24.0316 126.629 23.5366C126.81 23.0415 126.9 22.4962 126.9 21.9006C126.9 21.3089 126.81 20.7656 126.629 20.2706C126.452 19.7715 126.178 19.3711 125.808 19.0692C125.437 18.7674 124.97 18.6165 124.407 18.6165C123.84 18.6165 123.369 18.7674 122.994 19.0692C122.624 19.3711 122.348 19.7715 122.167 20.2706C121.99 20.7656 121.902 21.3089 121.902 21.9006C121.902 22.4962 121.99 23.0415 122.167 23.5366C122.348 24.0316 122.624 24.428 122.994 24.7258C123.369 25.0237 123.84 25.1726 124.407 25.1726ZM132.543 20.995V26.5007H130.738V17.228H132.471V18.7372H132.586C132.799 18.2462 133.133 17.8518 133.588 17.554C134.046 17.2561 134.624 17.1072 135.32 17.1072C135.952 17.1072 136.506 17.24 136.98 17.5057C137.455 17.7673 137.824 18.1577 138.085 18.6768C138.347 19.196 138.478 19.8379 138.478 20.6026V26.5007H136.673V20.8199C136.673 20.1478 136.497 19.6226 136.147 19.2443C135.797 18.862 135.316 18.6708 134.704 18.6708C134.286 18.6708 133.914 18.7614 133.588 18.9425C133.266 19.1236 133.01 19.3892 132.821 19.7393C132.636 20.0855 132.543 20.504 132.543 20.995Z" fill="#E8E8E8"/>
<path d="M144.937 26.0007V13.6371H153.377V16.0639H147.925V18.5994H152.839V21.0323H147.925V26.0007H144.937ZM157.833 13.6371V26.0007H154.881V13.6371H157.833ZM162.326 26.1577C161.735 26.1577 161.21 26.0591 160.751 25.8618C160.296 25.6606 159.936 25.3588 159.67 24.9563C159.409 24.5498 159.278 24.0407 159.278 23.429C159.278 22.9138 159.368 22.4792 159.549 22.125C159.731 21.7708 159.98 21.4831 160.298 21.2617C160.616 21.0404 160.982 20.8733 161.397 20.7606C161.811 20.6439 162.254 20.5654 162.725 20.5252C163.252 20.4769 163.677 20.4266 163.999 20.3743C164.321 20.3179 164.554 20.2395 164.699 20.1388C164.848 20.0342 164.922 19.8873 164.922 19.6981V19.668C164.922 19.3581 164.816 19.1186 164.602 18.9496C164.389 18.7805 164.101 18.696 163.739 18.696C163.349 18.696 163.035 18.7805 162.797 18.9496C162.56 19.1186 162.409 19.352 162.345 19.6498L159.622 19.5533C159.702 18.9898 159.91 18.4867 160.244 18.044C160.582 17.5973 161.045 17.2471 161.632 16.9936C162.224 16.736 162.934 16.6072 163.763 16.6072C164.355 16.6072 164.9 16.6777 165.399 16.8185C165.898 16.9554 166.333 17.1566 166.703 17.4222C167.074 17.6838 167.359 18.0058 167.56 18.3881C167.766 18.7705 167.868 19.2071 167.868 19.6981V26.0007H165.091V24.7088H165.019C164.854 25.0227 164.643 25.2883 164.385 25.5057C164.132 25.723 163.832 25.886 163.486 25.9947C163.143 26.1033 162.757 26.1577 162.326 26.1577ZM163.238 24.2258C163.556 24.2258 163.842 24.1614 164.095 24.0327C164.353 23.9039 164.558 23.7268 164.711 23.5014C164.864 23.272 164.94 23.0064 164.94 22.7045V21.8231C164.856 21.8674 164.753 21.9077 164.633 21.9439C164.516 21.9801 164.387 22.0143 164.246 22.0465C164.105 22.0787 163.96 22.1069 163.812 22.131C163.663 22.1552 163.52 22.1773 163.383 22.1974C163.105 22.2417 162.868 22.3101 162.671 22.4027C162.477 22.4953 162.328 22.616 162.224 22.7649C162.123 22.9098 162.073 23.0828 162.073 23.2841C162.073 23.59 162.182 23.8234 162.399 23.9844C162.62 24.1453 162.9 24.2258 163.238 24.2258ZM174.907 16.728V18.9013H169.058V16.728H174.907ZM170.283 14.5064H173.235V23.0849C173.235 23.266 173.263 23.4129 173.32 23.5256C173.38 23.6342 173.467 23.7127 173.579 23.761C173.692 23.8053 173.827 23.8274 173.984 23.8274C174.096 23.8274 174.215 23.8173 174.34 23.7972C174.469 23.7731 174.565 23.7529 174.63 23.7368L175.076 25.8679C174.936 25.9081 174.736 25.9584 174.479 26.0188C174.225 26.0792 173.921 26.1174 173.567 26.1335C172.875 26.1657 172.281 26.0852 171.786 25.892C171.295 25.6948 170.919 25.389 170.657 24.9744C170.4 24.5599 170.275 24.0387 170.283 23.4109V14.5064ZM179.565 20.7123V26.0007H176.613V13.6371H179.468V18.4304H179.571C179.78 17.8589 180.122 17.4122 180.597 17.0902C181.076 16.7682 181.662 16.6072 182.354 16.6072C183.006 16.6072 183.573 16.7521 184.056 17.0419C184.539 17.3276 184.914 17.7321 185.179 18.2553C185.449 18.7785 185.582 19.3903 185.578 20.0905V26.0007H182.626V20.6701C182.63 20.1549 182.501 19.7525 182.239 19.4627C181.978 19.1729 181.609 19.028 181.135 19.028C180.825 19.028 180.551 19.0965 180.314 19.2333C180.08 19.3661 179.897 19.5573 179.764 19.8068C179.635 20.0563 179.569 20.3582 179.565 20.7123ZM193.403 21.9982V16.728H196.349V26.0007H193.536V24.2741H193.439C193.234 24.8416 192.884 25.2924 192.389 25.6264C191.898 25.9564 191.304 26.1214 190.608 26.1214C189.976 26.1214 189.421 25.9765 188.942 25.6868C188.463 25.397 188.091 24.9925 187.825 24.4734C187.559 23.9502 187.425 23.3384 187.42 22.6381V16.728H190.373V22.0586C190.377 22.5617 190.509 22.9581 190.771 23.2479C191.033 23.5376 191.389 23.6825 191.84 23.6825C192.133 23.6825 192.397 23.6181 192.63 23.4893C192.868 23.3565 193.055 23.1654 193.192 22.9158C193.333 22.6623 193.403 22.3564 193.403 21.9982ZM198.228 26.0007V13.6371H201.18V18.3157H201.241C201.361 18.034 201.532 17.7623 201.754 17.5007C201.979 17.2391 202.265 17.0258 202.611 16.8608C202.961 16.6918 203.38 16.6072 203.867 16.6072C204.511 16.6072 205.112 16.7763 205.672 17.1143C206.235 17.4524 206.69 17.9736 207.036 18.6779C207.382 19.3822 207.555 20.2797 207.555 21.3704C207.555 22.4208 207.388 23.3002 207.054 24.0085C206.724 24.7168 206.277 25.2481 205.714 25.6023C205.154 25.9564 204.533 26.1335 203.848 26.1335C203.382 26.1335 202.977 26.057 202.635 25.9041C202.293 25.7512 202.005 25.5499 201.772 25.3004C201.542 25.0509 201.365 24.7832 201.241 24.4975H201.15V26.0007H198.228ZM201.12 21.3643C201.12 21.8634 201.186 22.298 201.319 22.6683C201.456 23.0386 201.651 23.3263 201.905 23.5316C202.162 23.7328 202.47 23.8334 202.828 23.8334C203.19 23.8334 203.498 23.7328 203.752 23.5316C204.005 23.3263 204.197 23.0386 204.325 22.6683C204.458 22.298 204.525 21.8634 204.525 21.3643C204.525 20.8653 204.458 20.4326 204.325 20.0664C204.197 19.7002 204.005 19.4164 203.752 19.2152C203.502 19.014 203.194 18.9133 202.828 18.9133C202.466 18.9133 202.158 19.0119 201.905 19.2092C201.651 19.4064 201.456 19.6881 201.319 20.0543C201.186 20.4206 201.12 20.8572 201.12 21.3643Z" fill="white"/>
</g>
<defs>
<filter id="filter0_d_1_56" x="2.39972" y="0.39972" width="39.202" height="39.202" filterUnits="userSpaceOnUse" color-interpolation-filters="sRGB">
<feFlood flood-opacity="0" result="BackgroundImageFix"/>
<feColorMatrix in="SourceAlpha" type="matrix" values="0 0 0 0 0 0 0 0 0 0 0 0 0 0 0 0 0 0 127 0" result="hardAlpha"/>
<feOffset/>
<feGaussianBlur stdDeviation="2.80014"/>
<feComposite in2="hardAlpha" operator="out"/>
<feColorMatrix type="matrix" values="0 0 0 0 0 0 0 0 0 0 0 0 0 0 0 0 0 0 0.25 0"/>
<feBlend mode="normal" in2="BackgroundImageFix" result="effect1_dropShadow_1_56"/>
<feBlend mode="normal" in="SourceGraphic" in2="effect1_dropShadow_1_56" result="shape"/>
</filter>
<filter id="filter1_d_1_56" x="36.2871" y="3.78642" width="178.429" height="32.4286" filterUnits="userSpaceOnUse" color-interpolation-filters="sRGB">
<feFlood flood-opacity="0" result="BackgroundImageFix"/>
<feColorMatrix in="SourceAlpha" type="matrix" values="0 0 0 0 0 0 0 0 0 0 0 0 0 0 0 0 0 0 127 0" result="hardAlpha"/>
<feOffset/>
<feGaussianBlur stdDeviation="2.85714"/>
<feComposite in2="hardAlpha" operator="out"/>
<feColorMatrix type="matrix" values="0 0 0 0 0 0 0 0 0 0 0 0 0 0 0 0 0 0 0.25 0"/>
<feBlend mode="normal" in2="BackgroundImageFix" result="effect1_dropShadow_1_56"/>
<feBlend mode="normal" in="SourceGraphic" in2="effect1_dropShadow_1_56" result="shape"/>
</filter>
<linearGradient id="paint0_linear_1_56" x1="108.501" y1="0" x2="108.501" y2="40.0014" gradientUnits="userSpaceOnUse">
<stop stop-color="#1E1E1E"/>
<stop offset="1" stop-color="#0D0D0D"/>
</linearGradient>
</defs>
</svg>
