<svg width="40" height="40" viewBox="0 0 40 40" fill="none" xmlns="http://www.w3.org/2000/svg">
<rect width="40" height="40" rx="8" fill="url(#paint0_linear_1_68)"/>
<rect x="1.05" y="1.05" width="37.9" height="37.9" rx="6.95" stroke="white" stroke-opacity="0.15" stroke-width="2.1"/>
<g filter="url(#filter0_d_1_68)">
<path d="M13.0023 6C11.1458 6 9.36535 6.7375 8.05259 8.05025C6.73984 9.36301 6.00234 11.1435 6.00234 13C6.00234 14.8565 6.73984 16.637 8.05259 17.9497C9.36535 19.2625 11.1458 20 13.0023 20C14.8585 19.9994 16.6383 19.2616 17.9506 17.9489C19.2628 16.6362 20 14.8561 20 13C20 11.1439 19.2628 9.36376 17.9506 8.05108C16.6383 6.73839 14.8585 6.00062 13.0023 6ZM23.6773 6.09333C23.1653 6.09395 22.6745 6.29777 22.3127 6.66003C21.9509 7.02228 21.7477 7.51334 21.7477 8.02533V17.5337C21.7478 17.8726 21.8371 18.2056 22.0067 18.4991C22.1762 18.7926 22.4199 19.0363 22.7135 19.2059C23.007 19.3754 23.3399 19.4647 23.6789 19.4648C24.0178 19.465 24.3508 19.3759 24.6445 19.2067L32.8788 14.4537C33.1727 14.2842 33.4168 14.0402 33.5865 13.7464C33.7562 13.4527 33.8456 13.1194 33.8456 12.7801C33.8456 12.4408 33.7562 12.1075 33.5865 11.8137C33.4168 11.5199 33.1727 11.276 32.8788 11.1065L31.6608 10.4018L24.6445 6.3535C24.3509 6.18347 24.0166 6.09374 23.6773 6.09333ZM27.8482 21.4175C27.7229 21.4173 27.5989 21.4419 27.4831 21.4899C27.3674 21.5378 27.2623 21.6081 27.1738 21.6968C27.0854 21.7855 27.0153 21.8908 26.9677 22.0066C26.92 22.1225 26.8957 22.2466 26.8962 22.3718V25.2337H24.0332C23.7802 25.2337 23.5376 25.3342 23.3588 25.513C23.1799 25.6919 23.0794 25.9345 23.0794 26.1874C23.0794 26.4404 23.1799 26.683 23.3588 26.8618C23.5376 27.0407 23.7802 27.1412 24.0332 27.1412H26.8962V30.003C26.8962 30.2559 26.9967 30.4985 27.1755 30.6774C27.3544 30.8563 27.597 30.9567 27.8499 30.9567C28.1029 30.9567 28.3455 30.8563 28.5243 30.6774C28.7032 30.4985 28.8037 30.2559 28.8037 30.003V27.1412H31.6643C31.9173 27.1412 32.1599 27.0407 32.3387 26.8618C32.5176 26.683 32.6181 26.4404 32.6181 26.1874C32.6181 25.9345 32.5176 25.6919 32.3387 25.513C32.1599 25.3342 31.9173 25.2337 31.6643 25.2337H28.8025V22.3718C28.8027 22.2465 28.7781 22.1223 28.7302 22.0064C28.6823 21.8906 28.612 21.7853 28.5233 21.6967C28.4347 21.608 28.3294 21.5377 28.2136 21.4898C28.0977 21.4419 27.9735 21.4173 27.8482 21.4175ZM9.26551 21.75C8.83636 21.7492 8.41129 21.8332 8.01468 21.9971C7.61806 22.161 7.25772 22.4016 6.95432 22.7051C6.65092 23.0086 6.41044 23.3691 6.24668 23.7657C6.08291 24.1624 5.99909 24.5875 6.00001 25.0167V30.7333C6.00001 32.5417 7.45601 34 9.26667 34H14.9833C16.7917 34 18.25 32.5417 18.25 30.7333V25.0167C18.25 23.2083 16.7917 21.75 14.9833 21.75H9.26551Z" fill="white"/>
</g>
<defs>
<filter id="filter0_d_1_68" x="2" y="2" width="36" height="36" filterUnits="userSpaceOnUse" color-interpolation-filters="sRGB">
<feFlood flood-opacity="0" result="BackgroundImageFix"/>
<feColorMatrix in="SourceAlpha" type="matrix" values="0 0 0 0 0 0 0 0 0 0 0 0 0 0 0 0 0 0 127 0" result="hardAlpha"/>
<feOffset/>
<feGaussianBlur stdDeviation="2"/>
<feComposite in2="hardAlpha" operator="out"/>
<feColorMatrix type="matrix" values="0 0 0 0 0 0 0 0 0 0 0 0 0 0 0 0 0 0 0.25 0"/>
<feBlend mode="normal" in2="BackgroundImageFix" result="effect1_dropShadow_1_68"/>
<feBlend mode="normal" in="SourceGraphic" in2="effect1_dropShadow_1_68" result="shape"/>
</filter>
<linearGradient id="paint0_linear_1_68" x1="20" y1="0" x2="20" y2="40" gradientUnits="userSpaceOnUse">
<stop stop-color="#1E1E1E"/>
<stop offset="1" stop-color="#0D0D0D"/>
</linearGradient>
</defs>
</svg>
