<svg width="56" height="56" viewBox="0 0 56 56" fill="none" xmlns="http://www.w3.org/2000/svg">
<rect width="56" height="56" rx="8.4" fill="url(#paint0_linear_1_62)"/>
<rect x="1.05" y="1.05" width="53.9" height="53.9" rx="7.35" stroke="white" stroke-opacity="0.15" stroke-width="2.1"/>
<g filter="url(#filter0_d_1_62)">
<path d="M18.0033 8C15.3512 8 12.8076 9.05357 10.9323 10.9289C9.05691 12.8043 8.00334 15.3478 8.00334 18C8.00334 20.6522 9.05691 23.1957 10.9323 25.0711C12.8076 26.9464 15.3512 28 18.0033 28C20.6549 27.9991 23.1976 26.9452 25.0723 25.0699C26.9469 23.1946 28 20.6516 28 18C28 15.3484 26.9469 12.8054 25.0723 10.9301C23.1976 9.05484 20.6549 8.00088 18.0033 8ZM33.2533 8.13333C32.5219 8.13422 31.8208 8.42539 31.3039 8.9429C30.787 9.4604 30.4967 10.1619 30.4967 10.8933V24.4767C30.4969 24.9609 30.6245 25.4365 30.8667 25.8558C31.1088 26.2751 31.457 26.6234 31.8764 26.8655C32.2957 27.1077 32.7713 27.2353 33.2555 27.2355C33.7397 27.2357 34.2155 27.1085 34.635 26.8667L46.3983 20.0767C46.8182 19.8345 47.1669 19.4861 47.4093 19.0664C47.6517 18.6467 47.7794 18.1705 47.7794 17.6858C47.7794 17.2011 47.6517 16.725 47.4093 16.3053C47.1669 15.8856 46.8182 15.5372 46.3983 15.295L44.6583 14.2883L34.635 8.505C34.2156 8.2621 33.738 8.13391 33.2533 8.13333ZM39.2117 30.025C39.0327 30.0248 38.8555 30.0599 38.6902 30.1284C38.5249 30.1969 38.3747 30.2973 38.2483 30.424C38.122 30.5507 38.0219 30.7011 37.9538 30.8666C37.8857 31.0321 37.851 31.2094 37.8517 31.3883V35.4767H33.7617C33.4003 35.4767 33.0538 35.6202 32.7982 35.8757C32.5427 36.1313 32.3992 36.4778 32.3992 36.8392C32.3992 37.2005 32.5427 37.5471 32.7982 37.8026C33.0538 38.0581 33.4003 38.2017 33.7617 38.2017H37.8517V42.29C37.8517 42.6514 37.9952 42.9979 38.2507 43.2534C38.5063 43.5089 38.8528 43.6525 39.2142 43.6525C39.5755 43.6525 39.9221 43.5089 40.1776 43.2534C40.4331 42.9979 40.5767 42.6514 40.5767 42.29V38.2017H44.6633C45.0247 38.2017 45.3713 38.0581 45.6268 37.8026C45.8823 37.5471 46.0258 37.2005 46.0258 36.8392C46.0258 36.4778 45.8823 36.1313 45.6268 35.8757C45.3713 35.6202 45.0247 35.4767 44.6633 35.4767H40.575V31.3883C40.5752 31.2092 40.5401 31.0319 40.4717 30.8663C40.4032 30.7008 40.3028 30.5505 40.1762 30.4238C40.0495 30.2972 39.8992 30.1968 39.7337 30.1283C39.5682 30.0599 39.3908 30.0248 39.2117 30.025ZM12.665 30.5C12.0519 30.4989 11.4447 30.6189 10.8781 30.853C10.3115 31.0872 9.79674 31.4309 9.36332 31.8645C8.92989 32.2981 8.58635 32.813 8.3524 33.3796C8.11845 33.9463 7.99869 34.5536 8.00001 35.1667V43.3333C8.00001 45.9167 10.08 48 12.6667 48H20.8333C23.4167 48 25.5 45.9167 25.5 43.3333V35.1667C25.5 32.5833 23.4167 30.5 20.8333 30.5H12.665Z" fill="white"/>
</g>
<defs>
<filter id="filter0_d_1_62" x="2.28571" y="2.28571" width="51.4286" height="51.4286" filterUnits="userSpaceOnUse" color-interpolation-filters="sRGB">
<feFlood flood-opacity="0" result="BackgroundImageFix"/>
<feColorMatrix in="SourceAlpha" type="matrix" values="0 0 0 0 0 0 0 0 0 0 0 0 0 0 0 0 0 0 127 0" result="hardAlpha"/>
<feOffset/>
<feGaussianBlur stdDeviation="2.85714"/>
<feComposite in2="hardAlpha" operator="out"/>
<feColorMatrix type="matrix" values="0 0 0 0 0 0 0 0 0 0 0 0 0 0 0 0 0 0 0.25 0"/>
<feBlend mode="normal" in2="BackgroundImageFix" result="effect1_dropShadow_1_62"/>
<feBlend mode="normal" in="SourceGraphic" in2="effect1_dropShadow_1_62" result="shape"/>
</filter>
<linearGradient id="paint0_linear_1_62" x1="28" y1="0" x2="28" y2="56" gradientUnits="userSpaceOnUse">
<stop stop-color="#1E1E1E"/>
<stop offset="1" stop-color="#0D0D0D"/>
</linearGradient>
</defs>
</svg>
