<svg width="262" height="40" viewBox="0 0 262 40" fill="none" xmlns="http://www.w3.org/2000/svg">
<rect width="262.001" height="40.0014" rx="8" fill="url(#paint0_linear_1_56)"/>
<rect x="1.07143" y="1.07143" width="259.858" height="37.8585" rx="6.92857" stroke="white" stroke-opacity="0.15" stroke-width="2.14286"/>
<g filter="url(#filter0_d_1_56)">
<path d="M22.002 34V28.5707C27.7488 28.5707 32.2098 22.8714 30.0031 16.823C29.1935 14.6004 27.3996 12.8065 25.1612 11.9969C19.1127 9.80609 13.4135 14.2512 13.4135 19.998H8C8 10.838 16.8584 3.69411 26.4629 6.69454C30.654 8.01218 34.0037 11.346 35.3055 15.5371C38.3059 25.1416 31.162 34 22.002 34Z" fill="#0080FF"/>
<path fill-rule="evenodd" clip-rule="evenodd" d="M22.0179 28.6024H16.6044V23.1889H22.0179V28.6024Z" fill="#0080FF"/>
<path fill-rule="evenodd" clip-rule="evenodd" d="M16.6044 32.7459H12.461V28.6024H16.6044V32.7459Z" fill="#0080FF"/>
<path fill-rule="evenodd" clip-rule="evenodd" d="M12.461 28.6024H8.98427V25.1257H12.461V28.6024Z" fill="#0080FF"/>
</g>
<g filter="url(#filter1_d_1_56)">
<path d="M44.4041 26.5007H42.424L46.8732 14.1371H49.0284L53.4776 26.5007H51.4975L48.0021 16.3828H47.9055L44.4041 26.5007ZM44.7361 21.6591H51.1594V23.2287H44.7361V21.6591ZM61.8886 17.228L58.526 26.5007H56.5942L53.2256 17.228H55.1634L57.5118 24.3636H57.6084L59.9507 17.228H61.8886ZM66.0178 26.706C65.4302 26.706 64.899 26.5973 64.4241 26.38C63.9492 26.1586 63.5729 25.8386 63.2952 25.4201C63.0215 25.0015 62.8846 24.4884 62.8846 23.8807C62.8846 23.3575 62.9853 22.9268 63.1865 22.5888C63.3877 22.2507 63.6594 21.9831 64.0015 21.7859C64.3436 21.5886 64.7259 21.4397 65.1485 21.3391C65.5711 21.2385 66.0017 21.162 66.4404 21.1097C66.9958 21.0453 67.4466 20.993 67.7927 20.9528C68.1388 20.9085 68.3903 20.8381 68.5473 20.7415C68.7042 20.6449 68.7827 20.4879 68.7827 20.2706V20.2283C68.7827 19.7011 68.6338 19.2926 68.336 19.0028C68.0422 18.7131 67.6035 18.5682 67.0199 18.5682C66.4122 18.5682 65.9333 18.703 65.5832 18.9726C65.237 19.2383 64.9976 19.5341 64.8648 19.8601L63.1684 19.4737C63.3696 18.9103 63.6634 18.4555 64.0498 18.1094C64.4402 17.7592 64.8889 17.5057 65.396 17.3487C65.9031 17.1877 66.4364 17.1072 66.9958 17.1072C67.3661 17.1072 67.7585 17.1515 68.173 17.24C68.5916 17.3246 68.9819 17.4815 69.3442 17.7109C69.7104 17.9403 70.0102 18.2683 70.2437 18.6949C70.4771 19.1175 70.5938 19.6669 70.5938 20.343V26.5007H68.831V25.2329H68.7586C68.6419 25.4664 68.4668 25.6958 68.2334 25.9212C67.9999 26.1465 67.7001 26.3337 67.3339 26.4826C66.9676 26.6315 66.5289 26.706 66.0178 26.706ZM66.4102 25.2571C66.9093 25.2571 67.3359 25.1585 67.69 24.9613C68.0482 24.7641 68.3199 24.5065 68.505 24.1886C68.6942 23.8666 68.7888 23.5225 68.7888 23.1562V21.9609C68.7244 22.0253 68.5996 22.0857 68.4145 22.142C68.2334 22.1944 68.0261 22.2406 67.7927 22.2809C67.5592 22.3171 67.3319 22.3513 67.1105 22.3835C66.8891 22.4117 66.704 22.4358 66.5551 22.456C66.205 22.5002 65.885 22.5747 65.5952 22.6793C65.3095 22.784 65.0801 22.9349 64.907 23.1321C64.738 23.3253 64.6535 23.5828 64.6535 23.9048C64.6535 24.3515 64.8185 24.6896 65.1485 24.919C65.4785 25.1444 65.8991 25.2571 66.4102 25.2571ZM72.998 26.5007V17.228H74.8031V26.5007H72.998ZM73.9096 15.7972C73.5957 15.7972 73.326 15.6926 73.1006 15.4833C72.8793 15.27 72.7686 15.0164 72.7686 14.7226C72.7686 14.4248 72.8793 14.1713 73.1006 13.962C73.326 13.7487 73.5957 13.642 73.9096 13.642C74.2235 13.642 74.4911 13.7487 74.7125 13.962C74.9379 14.1713 75.0506 14.4248 75.0506 14.7226C75.0506 15.0164 74.9379 15.27 74.7125 15.4833C74.4911 15.6926 74.2235 15.7972 73.9096 15.7972ZM79.0365 14.1371V26.5007H77.2314V14.1371H79.0365ZM84.1633 26.706C83.5757 26.706 83.0445 26.5973 82.5696 26.38C82.0947 26.1586 81.7184 25.8386 81.4407 25.4201C81.167 25.0015 81.0301 24.4884 81.0301 23.8807C81.0301 23.3575 81.1308 22.9268 81.332 22.5888C81.5332 22.2507 81.8049 21.9831 82.147 21.7859C82.4891 21.5886 82.8714 21.4397 83.294 21.3391C83.7166 21.2385 84.1472 21.162 84.5859 21.1097C85.1413 21.0453 85.5921 20.993 85.9382 20.9528C86.2843 20.9085 86.5358 20.8381 86.6928 20.7415C86.8497 20.6449 86.9282 20.4879 86.9282 20.2706V20.2283C86.9282 19.7011 86.7793 19.2926 86.4815 19.0028C86.1877 18.7131 85.749 18.5682 85.1654 18.5682C84.5577 18.5682 84.0788 18.703 83.7287 18.9726C83.3825 19.2383 83.1431 19.5341 83.0103 19.8601L81.3139 19.4737C81.5151 18.9103 81.8089 18.4555 82.1953 18.1094C82.5857 17.7592 83.0344 17.5057 83.5415 17.3487C84.0486 17.1877 84.5819 17.1072 85.1413 17.1072C85.5116 17.1072 85.904 17.1515 86.3185 17.24C86.7371 17.3246 87.1274 17.4815 87.4897 17.7109C87.8559 17.9403 88.1557 18.2683 88.3892 18.6949C88.6226 19.1175 88.7393 19.6669 88.7393 20.343V26.5007H86.9765V25.2329H86.9041C86.7874 25.4664 86.6123 25.6958 86.3789 25.9212C86.1454 26.1465 85.8456 26.3337 85.4794 26.4826C85.1131 26.6315 84.6744 26.706 84.1633 26.706ZM84.5557 25.2571C85.0548 25.2571 85.4814 25.1585 85.8355 24.9613C86.1937 24.7641 86.4654 24.5065 86.6505 24.1886C86.8397 23.8666 86.9343 23.5225 86.9343 23.1562V21.9609C86.8699 22.0253 86.7451 22.0857 86.56 22.142C86.3789 22.1944 86.1716 22.2406 85.9382 22.2809C85.7047 22.3171 85.4774 22.3513 85.256 22.3835C85.0346 22.4117 84.8495 22.4358 84.7006 22.456C84.3505 22.5002 84.0305 22.5747 83.7407 22.6793C83.455 22.784 83.2256 22.9349 83.0525 23.1321C82.8835 23.3253 82.799 23.5828 82.799 23.9048C82.799 24.3515 82.964 24.6896 83.294 24.919C83.624 25.1444 84.0446 25.2571 84.5557 25.2571ZM91.2884 26.5007V14.1371H93.0934V18.7312H93.2021C93.3067 18.538 93.4577 18.3146 93.6549 18.0611C93.8521 17.8075 94.1258 17.5862 94.4759 17.397C94.826 17.2038 95.2889 17.1072 95.8644 17.1072C96.613 17.1072 97.2811 17.2964 97.8687 17.6747C98.4563 18.053 98.9171 18.5984 99.2511 19.3107C99.5892 20.0231 99.7582 20.8803 99.7582 21.8824C99.7582 22.8846 99.5912 23.7438 99.2571 24.4602C98.9231 25.1726 98.4643 25.7219 97.8807 26.1083C97.2972 26.4906 96.6311 26.6818 95.8825 26.6818C95.3191 26.6818 94.8582 26.5872 94.5 26.3981C94.1459 26.2089 93.8682 25.9876 93.667 25.734C93.4657 25.4805 93.3108 25.2551 93.2021 25.0579H93.0512V26.5007H91.2884ZM93.0572 21.8643C93.0572 22.5163 93.1518 23.0878 93.341 23.5788C93.5301 24.0698 93.8038 24.4542 94.162 24.7319C94.5202 25.0056 94.9589 25.1424 95.478 25.1424C96.0173 25.1424 96.4681 24.9995 96.8303 24.7138C97.1925 24.424 97.4662 24.0316 97.6513 23.5366C97.8405 23.0415 97.9351 22.4841 97.9351 21.8643C97.9351 21.2526 97.8425 20.7032 97.6574 20.2163C97.4763 19.7293 97.2026 19.3449 96.8363 19.0632C96.4741 18.7815 96.0214 18.6406 95.478 18.6406C94.9548 18.6406 94.5121 18.7754 94.1499 19.0451C93.7917 19.3147 93.5201 19.691 93.3349 20.174C93.1498 20.6569 93.0572 21.2204 93.0572 21.8643ZM103.59 14.1371V26.5007H101.785V14.1371H103.59ZM110.015 26.6878C109.101 26.6878 108.315 26.4926 107.655 26.1023C106.999 25.7078 106.491 25.1545 106.133 24.4421C105.779 23.7257 105.602 22.8866 105.602 21.9247C105.602 20.9749 105.779 20.1378 106.133 19.4133C106.491 18.6889 106.99 18.1234 107.63 17.717C108.274 17.3105 109.027 17.1072 109.888 17.1072C110.411 17.1072 110.918 17.1938 111.409 17.3668C111.9 17.5399 112.341 17.8115 112.732 18.1818C113.122 18.5521 113.43 19.033 113.655 19.6246C113.881 20.2122 113.993 20.9266 113.993 21.7677V22.4077H106.622V21.0554H112.224C112.224 20.5805 112.128 20.1599 111.935 19.7937C111.742 19.4234 111.47 19.1316 111.12 18.9183C110.774 18.705 110.367 18.5984 109.9 18.5984C109.393 18.5984 108.95 18.7231 108.572 18.9726C108.198 19.2181 107.908 19.5401 107.703 19.9386C107.502 20.333 107.401 20.7616 107.401 21.2244V22.2809C107.401 22.9007 107.51 23.4279 107.727 23.8626C107.948 24.2972 108.256 24.6292 108.651 24.8587C109.045 25.084 109.506 25.1967 110.033 25.1967C110.375 25.1967 110.687 25.1484 110.969 25.0518C111.251 24.9512 111.494 24.8023 111.699 24.6051C111.905 24.4079 112.061 24.1644 112.17 23.8746L113.879 24.1825C113.742 24.6856 113.496 25.1263 113.142 25.5046C112.792 25.8789 112.351 26.1707 111.82 26.38C111.293 26.5852 110.691 26.6878 110.015 26.6878ZM124.401 26.6878C123.532 26.6878 122.773 26.4886 122.125 26.0902C121.477 25.6917 120.974 25.1343 120.616 24.418C120.258 23.7016 120.079 22.8645 120.079 21.9066C120.079 20.9447 120.258 20.1036 120.616 19.3832C120.974 18.6627 121.477 18.1033 122.125 17.7049C122.773 17.3065 123.532 17.1072 124.401 17.1072C125.27 17.1072 126.029 17.3065 126.677 17.7049C127.325 18.1033 127.828 18.6627 128.186 19.3832C128.544 20.1036 128.723 20.9447 128.723 21.9066C128.723 22.8645 128.544 23.7016 128.186 24.418C127.828 25.1343 127.325 25.6917 126.677 26.0902C126.029 26.4886 125.27 26.6878 124.401 26.6878ZM124.407 25.1726C124.97 25.1726 125.437 25.0237 125.808 24.7258C126.178 24.428 126.452 24.0316 126.629 23.5366C126.81 23.0415 126.9 22.4962 126.9 21.9006C126.9 21.3089 126.81 20.7656 126.629 20.2706C126.452 19.7715 126.178 19.3711 125.808 19.0692C125.437 18.7674 124.97 18.6165 124.407 18.6165C123.84 18.6165 123.369 18.7674 122.994 19.0692C122.624 19.3711 122.348 19.7715 122.167 20.2706C121.99 20.7656 121.902 21.3089 121.902 21.9006C121.902 22.4962 121.99 23.0415 122.167 23.5366C122.348 24.0316 122.624 24.428 122.994 24.7258C123.369 25.0237 123.84 25.1726 124.407 25.1726ZM132.543 20.995V26.5007H130.738V17.228H132.471V18.7372H132.586C132.799 18.2462 133.133 17.8518 133.588 17.554C134.046 17.2561 134.624 17.1072 135.32 17.1072C135.952 17.1072 136.506 17.24 136.98 17.5057C137.455 17.7673 137.824 18.1577 138.085 18.6768C138.347 19.196 138.478 19.8379 138.478 20.6026V26.5007H136.673V20.8199C136.673 20.1478 136.497 19.6226 136.147 19.2443C135.797 18.862 135.316 18.6708 134.704 18.6708C134.286 18.6708 133.914 18.7614 133.588 18.9425C133.266 19.1236 133.01 19.3892 132.821 19.7393C132.636 20.0855 132.543 20.504 132.543 20.995Z" fill="#E8E8E8"/>
<path d="M149.507 26.0007H144.937V13.6371H149.501C150.761 13.6371 151.845 13.8846 152.755 14.3796C153.669 14.8706 154.373 15.5789 154.868 16.5046C155.363 17.4262 155.61 18.529 155.61 19.8128C155.61 21.1007 155.363 22.2075 154.868 23.1332C154.377 24.0588 153.675 24.7692 152.761 25.2642C151.847 25.7552 150.763 26.0007 149.507 26.0007ZM147.925 23.4531H149.392C150.085 23.4531 150.67 23.3364 151.149 23.103C151.632 22.8655 151.996 22.4812 152.242 21.9499C152.491 21.4146 152.616 20.7023 152.616 19.8128C152.616 18.9234 152.491 18.2151 152.242 17.6878C151.992 17.1566 151.624 16.7743 151.137 16.5408C150.654 16.3034 150.058 16.1846 149.35 16.1846H147.925V23.4531ZM157.355 26.0007V16.728H160.307V26.0007H157.355ZM158.834 15.6474C158.42 15.6474 158.063 15.5105 157.766 15.2369C157.468 14.9592 157.319 14.6251 157.319 14.2347C157.319 13.8484 157.468 13.5183 157.766 13.2447C158.063 12.967 158.42 12.8281 158.834 12.8281C159.253 12.8281 159.609 12.967 159.903 13.2447C160.2 13.5183 160.349 13.8484 160.349 14.2347C160.349 14.6251 160.2 14.9592 159.903 15.2369C159.609 15.5105 159.253 15.6474 158.834 15.6474ZM166.509 29.6712C165.627 29.6712 164.873 29.5484 164.245 29.3029C163.617 29.0574 163.124 28.7213 162.766 28.2947C162.407 27.8681 162.192 27.3852 162.12 26.8459L164.915 26.6889C164.967 26.8781 165.064 27.0431 165.205 27.1839C165.349 27.3248 165.537 27.4335 165.766 27.5099C165.999 27.5864 166.273 27.6246 166.587 27.6246C167.082 27.6246 167.491 27.5039 167.813 27.2624C168.139 27.025 168.302 26.6084 168.302 26.0128V24.3828H168.199C168.082 24.6685 167.905 24.9241 167.668 25.1495C167.43 25.3749 167.134 25.552 166.78 25.6807C166.43 25.8095 166.028 25.8739 165.573 25.8739C164.897 25.8739 164.277 25.717 163.713 25.403C163.154 25.0851 162.705 24.5941 162.367 23.93C162.033 23.2619 161.866 22.4027 161.866 21.3523C161.866 20.2696 162.039 19.3782 162.385 18.6779C162.731 17.9736 163.184 17.4524 163.744 17.1143C164.307 16.7763 164.913 16.6072 165.561 16.6072C166.048 16.6072 166.464 16.6918 166.81 16.8608C167.161 17.0258 167.448 17.2391 167.674 17.5007C167.899 17.7623 168.07 18.034 168.187 18.3157H168.271V16.728H171.211V26.0369C171.211 26.8217 171.014 27.4838 170.62 28.0231C170.225 28.5624 169.674 28.9709 168.966 29.2486C168.257 29.5303 167.438 29.6712 166.509 29.6712ZM166.599 23.7248C166.957 23.7248 167.263 23.6302 167.517 23.441C167.77 23.2519 167.965 22.9802 168.102 22.6261C168.239 22.2719 168.308 21.8473 168.308 21.3523C168.308 20.8492 168.239 20.4165 168.102 20.0543C167.969 19.6881 167.774 19.4064 167.517 19.2092C167.263 19.0119 166.957 18.9133 166.599 18.9133C166.233 18.9133 165.923 19.014 165.669 19.2152C165.416 19.4164 165.223 19.7002 165.09 20.0664C164.961 20.4286 164.897 20.8572 164.897 21.3523C164.897 21.8473 164.963 22.2719 165.096 22.6261C165.229 22.9802 165.42 23.2519 165.669 23.441C165.923 23.6302 166.233 23.7248 166.599 23.7248ZM173.093 26.0007V16.728H176.045V26.0007H173.093ZM174.572 15.6474C174.158 15.6474 173.802 15.5105 173.504 15.2369C173.206 14.9592 173.057 14.6251 173.057 14.2347C173.057 13.8484 173.206 13.5183 173.504 13.2447C173.802 12.967 174.158 12.8281 174.572 12.8281C174.991 12.8281 175.347 12.967 175.641 13.2447C175.939 13.5183 176.088 13.8484 176.088 14.2347C176.088 14.6251 175.939 14.9592 175.641 15.2369C175.347 15.5105 174.991 15.6474 174.572 15.6474ZM183.158 16.728V18.9013H177.309V16.728H183.158ZM178.534 14.5064H181.486V23.0849C181.486 23.266 181.514 23.4129 181.571 23.5256C181.631 23.6342 181.718 23.7127 181.83 23.761C181.943 23.8053 182.078 23.8274 182.235 23.8274C182.347 23.8274 182.466 23.8173 182.591 23.7972C182.72 23.7731 182.816 23.7529 182.881 23.7368L183.327 25.8679C183.187 25.9081 182.987 25.9584 182.73 26.0188C182.476 26.0792 182.172 26.1174 181.818 26.1335C181.126 26.1657 180.532 26.0852 180.037 25.892C179.546 25.6948 179.17 25.389 178.908 24.9744C178.651 24.5599 178.526 24.0387 178.534 23.4109V14.5064ZM187.279 26.1577C186.687 26.1577 186.162 26.0591 185.703 25.8618C185.248 25.6606 184.888 25.3588 184.622 24.9563C184.361 24.5498 184.23 24.0407 184.23 23.429C184.23 22.9138 184.321 22.4792 184.502 22.125C184.683 21.7708 184.932 21.4831 185.25 21.2617C185.568 21.0404 185.934 20.8733 186.349 20.7606C186.763 20.6439 187.206 20.5654 187.677 20.5252C188.204 20.4769 188.629 20.4266 188.951 20.3743C189.273 20.3179 189.506 20.2395 189.651 20.1388C189.8 20.0342 189.874 19.8873 189.874 19.6981V19.668C189.874 19.3581 189.768 19.1186 189.555 18.9496C189.341 18.7805 189.053 18.696 188.691 18.696C188.301 18.696 187.987 18.7805 187.749 18.9496C187.512 19.1186 187.361 19.352 187.297 19.6498L184.574 19.5533C184.655 18.9898 184.862 18.4867 185.196 18.044C185.534 17.5973 185.997 17.2471 186.584 16.9936C187.176 16.736 187.886 16.6072 188.715 16.6072C189.307 16.6072 189.852 16.6777 190.351 16.8185C190.85 16.9554 191.285 17.1566 191.655 17.4222C192.026 17.6838 192.311 18.0058 192.513 18.3881C192.718 18.7705 192.821 19.2071 192.821 19.6981V26.0007H190.044V24.7088H189.971C189.806 25.0227 189.595 25.2883 189.337 25.5057C189.084 25.723 188.784 25.886 188.438 25.9947C188.096 26.1033 187.709 26.1577 187.279 26.1577ZM188.19 24.2258C188.508 24.2258 188.794 24.1614 189.047 24.0327C189.305 23.9039 189.51 23.7268 189.663 23.5014C189.816 23.272 189.893 23.0064 189.893 22.7045V21.8231C189.808 21.8674 189.705 21.9077 189.585 21.9439C189.468 21.9801 189.339 22.0143 189.198 22.0465C189.057 22.0787 188.913 22.1069 188.764 22.131C188.615 22.1552 188.472 22.1773 188.335 22.1974C188.057 22.2417 187.82 22.3101 187.623 22.4027C187.43 22.4953 187.281 22.616 187.176 22.7649C187.075 22.9098 187.025 23.0828 187.025 23.2841C187.025 23.59 187.134 23.8234 187.351 23.9844C187.572 24.1453 187.852 24.2258 188.19 24.2258ZM197.578 13.6371V26.0007H194.626V13.6371H197.578ZM211.126 19.8189C211.126 21.1792 210.864 22.3323 210.341 23.278C209.818 24.2238 209.11 24.9422 208.216 25.4332C207.327 25.9242 206.329 26.1697 205.222 26.1697C204.111 26.1697 203.111 25.9222 202.222 25.4272C201.332 24.9322 200.626 24.2138 200.103 23.272C199.583 22.3262 199.324 21.1752 199.324 19.8189C199.324 18.4586 199.583 17.3055 200.103 16.3597C200.626 15.4139 201.332 14.6955 202.222 14.2045C203.111 13.7135 204.111 13.468 205.222 13.468C206.329 13.468 207.327 13.7135 208.216 14.2045C209.11 14.6955 209.818 15.4139 210.341 16.3597C210.864 17.3055 211.126 18.4586 211.126 19.8189ZM208.071 19.8189C208.071 19.014 207.957 18.3338 207.727 17.7784C207.502 17.223 207.176 16.8024 206.749 16.5167C206.327 16.2309 205.818 16.0881 205.222 16.0881C204.63 16.0881 204.121 16.2309 203.695 16.5167C203.268 16.8024 202.94 17.223 202.711 17.7784C202.485 18.3338 202.372 19.014 202.372 19.8189C202.372 20.6238 202.485 21.304 202.711 21.8594C202.94 22.4148 203.268 22.8353 203.695 23.1211C204.121 23.4068 204.63 23.5497 205.222 23.5497C205.818 23.5497 206.327 23.4068 206.749 23.1211C207.176 22.8353 207.502 22.4148 207.727 21.8594C207.957 21.304 208.071 20.6238 208.071 19.8189ZM217.199 26.1758C216.221 26.1758 215.382 25.9745 214.682 25.5721C213.985 25.1696 213.45 24.6102 213.076 23.8938C212.702 23.1734 212.514 22.3403 212.514 21.3945C212.514 20.4447 212.702 19.6116 213.076 18.8952C213.454 18.1748 213.992 17.6134 214.688 17.2109C215.388 16.8085 216.223 16.6072 217.193 16.6072C218.05 16.6072 218.797 16.7622 219.433 17.0721C220.073 17.382 220.572 17.8207 220.93 18.3881C221.292 18.9516 221.483 19.6136 221.503 20.3743H218.745C218.688 19.8994 218.527 19.5271 218.262 19.2574C218 18.9878 217.658 18.853 217.235 18.853C216.893 18.853 216.593 18.9496 216.336 19.1427C216.078 19.3319 215.877 19.6136 215.732 19.9879C215.591 20.3582 215.521 20.817 215.521 21.3643C215.521 21.9117 215.591 22.3745 215.732 22.7528C215.877 23.1271 216.078 23.4109 216.336 23.604C216.593 23.7932 216.893 23.8878 217.235 23.8878C217.509 23.8878 217.751 23.8294 217.96 23.7127C218.173 23.596 218.348 23.4249 218.485 23.1996C218.622 22.9702 218.708 22.6925 218.745 22.3665H221.503C221.475 23.1311 221.284 23.7992 220.93 24.3707C220.58 24.9422 220.087 25.3869 219.451 25.7049C218.819 26.0188 218.068 26.1758 217.199 26.1758ZM227.349 26.1758C226.379 26.1758 225.542 25.9846 224.837 25.6023C224.137 25.2159 223.598 24.6665 223.219 23.9542C222.845 23.2378 222.658 22.3866 222.658 21.4006C222.658 20.4427 222.847 19.6056 223.226 18.8892C223.604 18.1688 224.137 17.6094 224.825 17.2109C225.514 16.8085 226.324 16.6072 227.258 16.6072C227.918 16.6072 228.522 16.7099 229.069 16.9151C229.617 17.1204 230.09 17.4242 230.488 17.8267C230.886 18.2292 231.196 18.7262 231.418 19.3178C231.639 19.9054 231.75 20.5795 231.75 21.3402V22.0767H223.69V20.3622H229.003C228.999 20.0483 228.924 19.7686 228.779 19.5231C228.635 19.2776 228.435 19.0864 228.182 18.9496C227.932 18.8087 227.645 18.7383 227.319 18.7383C226.989 18.7383 226.693 18.8127 226.431 18.9616C226.17 19.1065 225.962 19.3057 225.809 19.5593C225.656 19.8088 225.576 20.0926 225.568 20.4105V22.1552C225.568 22.5335 225.642 22.8655 225.791 23.1513C225.94 23.433 226.151 23.6523 226.425 23.8093C226.699 23.9663 227.025 24.0447 227.403 24.0447C227.665 24.0447 227.902 24.0085 228.115 23.9361C228.329 23.8636 228.512 23.757 228.665 23.6161C228.818 23.4752 228.932 23.3022 229.009 23.0969L231.719 23.1754C231.607 23.7831 231.359 24.3124 230.977 24.7631C230.599 25.2099 230.102 25.558 229.486 25.8075C228.87 26.053 228.158 26.1758 227.349 26.1758ZM235.871 26.1577C235.28 26.1577 234.755 26.0591 234.296 25.8618C233.841 25.6606 233.481 25.3588 233.215 24.9563C232.954 24.5498 232.823 24.0407 232.823 23.429C232.823 22.9138 232.913 22.4792 233.094 22.125C233.275 21.7708 233.525 21.4831 233.843 21.2617C234.161 21.0404 234.527 20.8733 234.942 20.7606C235.356 20.6439 235.799 20.5654 236.27 20.5252C236.797 20.4769 237.222 20.4266 237.544 20.3743C237.866 20.3179 238.099 20.2395 238.244 20.1388C238.393 20.0342 238.467 19.8873 238.467 19.6981V19.668C238.467 19.3581 238.361 19.1186 238.147 18.9496C237.934 18.7805 237.646 18.696 237.284 18.696C236.894 18.696 236.58 18.7805 236.342 18.9496C236.105 19.1186 235.954 19.352 235.889 19.6498L233.167 19.5533C233.247 18.9898 233.455 18.4867 233.789 18.044C234.127 17.5973 234.59 17.2471 235.177 16.9936C235.769 16.736 236.479 16.6072 237.308 16.6072C237.9 16.6072 238.445 16.6777 238.944 16.8185C239.443 16.9554 239.878 17.1566 240.248 17.4222C240.618 17.6838 240.904 18.0058 241.105 18.3881C241.311 18.7705 241.413 19.2071 241.413 19.6981V26.0007H238.636V24.7088H238.564C238.399 25.0227 238.188 25.2883 237.93 25.5057C237.676 25.723 237.377 25.886 237.03 25.9947C236.688 26.1033 236.302 26.1577 235.871 26.1577ZM236.783 24.2258C237.101 24.2258 237.387 24.1614 237.64 24.0327C237.898 23.9039 238.103 23.7268 238.256 23.5014C238.409 23.272 238.485 23.0064 238.485 22.7045V21.8231C238.401 21.8674 238.298 21.9077 238.177 21.9439C238.061 21.9801 237.932 22.0143 237.791 22.0465C237.65 22.0787 237.505 22.1069 237.356 22.131C237.208 22.1552 237.065 22.1773 236.928 22.1974C236.65 22.2417 236.413 22.3101 236.215 22.4027C236.022 22.4953 235.873 22.616 235.769 22.7649C235.668 22.9098 235.618 23.0828 235.618 23.2841C235.618 23.59 235.726 23.8234 235.944 23.9844C236.165 24.1453 236.445 24.2258 236.783 24.2258ZM246.17 20.7123V26.0007H243.218V16.728H246.025V18.4304H246.128C246.333 17.8629 246.684 17.4182 247.179 17.0962C247.674 16.7702 248.263 16.6072 248.947 16.6072C249.599 16.6072 250.165 16.7541 250.644 17.0479C251.127 17.3377 251.501 17.7442 251.767 18.2674C252.036 18.7866 252.169 19.3943 252.165 20.0905V26.0007H249.213V20.6701C249.217 20.1549 249.086 19.7525 248.821 19.4627C248.559 19.1729 248.195 19.028 247.728 19.028C247.418 19.028 247.144 19.0965 246.907 19.2333C246.673 19.3661 246.492 19.5573 246.364 19.8068C246.239 20.0563 246.174 20.3582 246.17 20.7123Z" fill="#0080FF"/>
</g>
<defs>
<filter id="filter0_d_1_56" x="2.39972" y="0.39972" width="39.202" height="39.202" filterUnits="userSpaceOnUse" color-interpolation-filters="sRGB">
<feFlood flood-opacity="0" result="BackgroundImageFix"/>
<feColorMatrix in="SourceAlpha" type="matrix" values="0 0 0 0 0 0 0 0 0 0 0 0 0 0 0 0 0 0 127 0" result="hardAlpha"/>
<feOffset/>
<feGaussianBlur stdDeviation="2.80014"/>
<feComposite in2="hardAlpha" operator="out"/>
<feColorMatrix type="matrix" values="0 0 0 0 0 0 0 0 0 0 0 0 0 0 0 0 0 0 0.25 0"/>
<feBlend mode="normal" in2="BackgroundImageFix" result="effect1_dropShadow_1_56"/>
<feBlend mode="normal" in="SourceGraphic" in2="effect1_dropShadow_1_56" result="shape"/>
</filter>
<filter id="filter1_d_1_56" x="36.2871" y="3.78642" width="223.429" height="32.4286" filterUnits="userSpaceOnUse" color-interpolation-filters="sRGB">
<feFlood flood-opacity="0" result="BackgroundImageFix"/>
<feColorMatrix in="SourceAlpha" type="matrix" values="0 0 0 0 0 0 0 0 0 0 0 0 0 0 0 0 0 0 127 0" result="hardAlpha"/>
<feOffset/>
<feGaussianBlur stdDeviation="2.85714"/>
<feComposite in2="hardAlpha" operator="out"/>
<feColorMatrix type="matrix" values="0 0 0 0 0 0 0 0 0 0 0 0 0 0 0 0 0 0 0.25 0"/>
<feBlend mode="normal" in2="BackgroundImageFix" result="effect1_dropShadow_1_56"/>
<feBlend mode="normal" in="SourceGraphic" in2="effect1_dropShadow_1_56" result="shape"/>
</filter>
<linearGradient id="paint0_linear_1_56" x1="131.001" y1="0" x2="131.001" y2="40.0014" gradientUnits="userSpaceOnUse">
<stop stop-color="#003366"/>
<stop offset="1" stop-color="#001F3D"/>
</linearGradient>
</defs>
</svg>
