<svg width="223" height="40" viewBox="0 0 223 40" fill="none" xmlns="http://www.w3.org/2000/svg">
<g clip-path="url(#clip0_1_56)">
<rect width="223.001" height="40.0014" rx="8" fill="url(#paint0_linear_1_56)"/>
<g filter="url(#filter0_d_1_56)">
<path d="M33.2656 6H10.7344C9.22422 6 8 7.22422 8 8.73437V31.2656C8 32.7758 9.22422 34 10.7344 34H33.2656C34.7758 34 36 32.7758 36 31.2656V8.73437C36 7.22422 34.7758 6 33.2656 6Z" fill="#3178C6"/>
<path d="M33.2656 6H10.7344C9.22422 6 8 7.22422 8 8.73437V31.2656C8 32.7758 9.22422 34 10.7344 34H33.2656C34.7758 34 36 32.7758 36 31.2656V8.73437C36 7.22422 34.7758 6 33.2656 6Z" fill="#3178C6"/>
<path fill-rule="evenodd" clip-rule="evenodd" d="M25.3326 28.281V31.0187C25.7776 31.2469 26.304 31.4179 26.9117 31.532C27.5194 31.6461 28.1598 31.7031 28.8331 31.7031C29.4893 31.7031 30.1127 31.6404 30.7032 31.5149C31.2938 31.3894 31.8116 31.1827 32.2567 30.8946C32.7017 30.6066 33.0541 30.2302 33.3137 29.7653C33.5733 29.3005 33.7031 28.7259 33.7031 28.0415C33.7031 27.5452 33.629 27.1104 33.4806 26.7368C33.3322 26.3632 33.1183 26.031 32.8387 25.7401C32.5591 25.4492 32.2239 25.1883 31.833 24.9573C31.4422 24.7263 31.0014 24.5081 30.5107 24.3028C30.1512 24.1545 29.8288 24.0105 29.5435 23.8708C29.2582 23.731 29.0157 23.5884 28.816 23.443C28.6163 23.2975 28.4623 23.1435 28.3539 22.981C28.2455 22.8184 28.1912 22.6345 28.1912 22.4292C28.1912 22.241 28.2397 22.0713 28.3368 21.9201C28.4338 21.769 28.5707 21.6393 28.7476 21.5309C28.9245 21.4225 29.1413 21.3384 29.398 21.2785C29.6548 21.2186 29.9401 21.1887 30.2539 21.1887C30.4821 21.1887 30.7232 21.2058 30.9771 21.24C31.231 21.2742 31.4864 21.327 31.7432 21.3982C31.9999 21.4696 32.2495 21.5594 32.4921 21.6678C32.7346 21.7761 32.9585 21.9016 33.1639 22.0442V19.4862C32.7474 19.3265 32.2924 19.2081 31.7988 19.1311C31.3052 19.0541 30.7389 19.0156 30.0999 19.0156C29.4494 19.0156 28.8331 19.0855 28.2512 19.2252C27.6692 19.365 27.1571 19.5831 26.7148 19.8797C26.2726 20.1763 25.9232 20.5541 25.6664 21.0133C25.4097 21.4724 25.2812 22.0214 25.2812 22.6602C25.2812 23.4758 25.5166 24.1716 25.9874 24.7477C26.4581 25.3237 27.1727 25.8114 28.1313 26.2106C28.5079 26.3646 28.8589 26.5157 29.1841 26.6641C29.5093 26.8124 29.7903 26.9664 30.0271 27.1261C30.2639 27.2857 30.4507 27.4597 30.5877 27.6479C30.7247 27.8361 30.7931 28.05 30.7931 28.2896C30.7931 28.4664 30.7503 28.6303 30.6647 28.7815C30.5792 28.9327 30.4493 29.0638 30.2753 29.175C30.1013 29.2863 29.8845 29.3732 29.6249 29.4359C29.3652 29.4987 29.0614 29.5301 28.7133 29.5301C28.1199 29.5301 27.5322 29.426 26.9502 29.2178C26.3682 29.0097 25.829 28.6974 25.3326 28.281ZM20.7302 21.5357H24.2422V19.2891H14.4531V21.5357H17.948V31.5391H20.7302V21.5357Z" fill="white"/>
</g>
<g filter="url(#filter1_d_1_56)">
<g filter="url(#filter2_d_1_56)">
<path d="M43.3597 26.5007V14.1371H47.8874C48.7648 14.1371 49.4912 14.282 50.0667 14.5717C50.6423 14.8575 51.0729 15.2458 51.3586 15.7369C51.6444 16.2238 51.7873 16.7732 51.7873 17.3849C51.7873 17.9001 51.6927 18.3347 51.5035 18.6889C51.3144 19.0391 51.0608 19.3208 50.7429 19.5341C50.429 19.7434 50.0828 19.8963 49.7045 19.9929V20.1136C50.115 20.1337 50.5155 20.2666 50.9059 20.5121C51.3003 20.7535 51.6263 21.0976 51.8839 21.5444C52.1414 21.9911 52.2702 22.5344 52.2702 23.1743C52.2702 23.8062 52.1213 24.3737 51.8235 24.8768C51.5297 25.3758 51.0749 25.7722 50.4591 26.066C49.8434 26.3558 49.0566 26.5007 48.0987 26.5007H43.3597ZM45.2251 24.9009H47.9176C48.8111 24.9009 49.451 24.7279 49.8373 24.3817C50.2237 24.0356 50.4169 23.603 50.4169 23.0838C50.4169 22.6934 50.3183 22.3352 50.1211 22.0092C49.9239 21.6832 49.6421 21.4236 49.2759 21.2305C48.9137 21.0373 48.483 20.9407 47.984 20.9407H45.2251V24.9009ZM45.2251 19.4858H47.7244C48.143 19.4858 48.5193 19.4053 48.8533 19.2443C49.1914 19.0833 49.459 18.8579 49.6562 18.5682C49.8575 18.2744 49.9581 17.9283 49.9581 17.5298C49.9581 17.0187 49.779 16.5901 49.4208 16.244C49.0626 15.8978 48.5132 15.7248 47.7727 15.7248H45.2251V19.4858ZM60.2118 22.6552V17.228H62.0229V26.5007H60.248V24.8949H60.1514C59.9381 25.3899 59.596 25.8024 59.1251 26.1324C58.6583 26.4584 58.0767 26.6214 57.3805 26.6214C56.7848 26.6214 56.2576 26.4906 55.7988 26.229C55.344 25.9634 54.9858 25.571 54.7242 25.0518C54.4667 24.5327 54.3379 23.8907 54.3379 23.1261V17.228H56.1429V22.9087C56.1429 23.5406 56.318 24.0437 56.6681 24.418C57.0183 24.7922 57.473 24.9794 58.0325 24.9794C58.3705 24.9794 58.7066 24.8949 59.0406 24.7258C59.3787 24.5568 59.6584 24.3012 59.8798 23.9591C60.1051 23.6171 60.2158 23.1824 60.2118 22.6552ZM64.4482 26.5007V17.228H66.2533V26.5007H64.4482ZM65.3598 15.7972C65.0459 15.7972 64.7762 15.6926 64.5508 15.4833C64.3295 15.27 64.2188 15.0164 64.2188 14.7226C64.2188 14.4248 64.3295 14.1713 64.5508 13.962C64.7762 13.7487 65.0459 13.642 65.3598 13.642C65.6737 13.642 65.9413 13.7487 66.1627 13.962C66.3881 14.1713 66.5008 14.4248 66.5008 14.7226C66.5008 15.0164 66.3881 15.27 66.1627 15.4833C65.9413 15.6926 65.6737 15.7972 65.3598 15.7972ZM70.4867 14.1371V26.5007H68.6816V14.1371H70.4867ZM77.2435 17.228V18.6768H72.1785V17.228H77.2435ZM73.5368 15.0064H75.3419V23.778C75.3419 24.1282 75.3942 24.3918 75.4988 24.5689C75.6035 24.7419 75.7383 24.8607 75.9033 24.9251C76.0723 24.9854 76.2554 25.0156 76.4526 25.0156C76.5975 25.0156 76.7243 25.0056 76.833 24.9854C76.9416 24.9653 77.0262 24.9492 77.0865 24.9371L77.4125 26.4283C77.3079 26.4685 77.159 26.5087 76.9658 26.549C76.7726 26.5933 76.5311 26.6174 76.2414 26.6214C75.7664 26.6295 75.3237 26.545 74.9132 26.3679C74.5027 26.1908 74.1707 25.9171 73.9171 25.5469C73.6636 25.1766 73.5368 24.7118 73.5368 24.1523V15.0064ZM85.7495 26.5007L83.0208 17.228H84.8862L86.7034 24.0376H86.7939L88.6171 17.228H90.4825L92.2936 24.0074H92.3841L94.1891 17.228H96.0546L93.3319 26.5007H91.4906L89.6071 19.8057H89.4683L87.5847 26.5007H85.7495ZM97.7675 26.5007V17.228H99.5726V26.5007H97.7675ZM98.6791 15.7972C98.3652 15.7972 98.0955 15.6926 97.8702 15.4833C97.6488 15.27 97.5381 15.0164 97.5381 14.7226C97.5381 14.4248 97.6488 14.1713 97.8702 13.962C98.0955 13.7487 98.3652 13.642 98.6791 13.642C98.993 13.642 99.2607 13.7487 99.482 13.962C99.7074 14.1713 99.8201 14.4248 99.8201 14.7226C99.8201 15.0164 99.7074 15.27 99.482 15.4833C99.2607 15.6926 98.993 15.7972 98.6791 15.7972ZM106.329 17.228V18.6768H101.264V17.228H106.329ZM102.623 15.0064H104.428V23.778C104.428 24.1282 104.48 24.3918 104.585 24.5689C104.689 24.7419 104.824 24.8607 104.989 24.9251C105.158 24.9854 105.341 25.0156 105.539 25.0156C105.683 25.0156 105.81 25.0056 105.919 24.9854C106.028 24.9653 106.112 24.9492 106.172 24.9371L106.498 26.4283C106.394 26.4685 106.245 26.5087 106.052 26.549C105.859 26.5933 105.617 26.6174 105.327 26.6214C104.852 26.6295 104.41 26.545 103.999 26.3679C103.589 26.1908 103.257 25.9171 103.003 25.5469C102.75 25.1766 102.623 24.7118 102.623 24.1523V15.0064ZM110.33 20.995V26.5007H108.525V14.1371H110.306V18.7372H110.421C110.638 18.2382 110.97 17.8417 111.417 17.5479C111.864 17.2541 112.447 17.1072 113.168 17.1072C113.804 17.1072 114.359 17.238 114.834 17.4996C115.313 17.7612 115.683 18.1516 115.945 18.6708C116.21 19.1859 116.343 19.8299 116.343 20.6026V26.5007H114.538V20.8199C114.538 20.1398 114.363 19.6126 114.013 19.2383C113.663 18.86 113.176 18.6708 112.552 18.6708C112.125 18.6708 111.743 18.7614 111.405 18.9425C111.071 19.1236 110.807 19.3892 110.614 19.7393C110.425 20.0855 110.33 20.504 110.33 20.995Z" fill="#E8E8E8"/>
</g>
<path d="M122.533 16.0639V13.6371H132.983V16.0639H129.234V26.0007H126.288V16.0639H122.533ZM135.185 29.478C134.83 29.478 134.496 29.4498 134.182 29.3935C133.868 29.3411 133.599 29.2707 133.373 29.1822L134.025 27.039C134.315 27.1356 134.577 27.192 134.81 27.2081C135.048 27.2242 135.251 27.1859 135.42 27.0934C135.593 27.0048 135.726 26.8459 135.818 26.6165L135.933 26.3388L132.637 16.728H135.728L137.436 23.3444H137.533L139.265 16.728H142.375L138.879 26.8881C138.71 27.3952 138.471 27.842 138.161 28.2283C137.855 28.6187 137.458 28.9246 136.971 29.1459C136.488 29.3673 135.893 29.478 135.185 29.478ZM143.506 29.478V16.728H146.428V18.3157H146.519C146.64 18.034 146.811 17.7623 147.032 17.5007C147.257 17.2391 147.543 17.0258 147.889 16.8608C148.239 16.6918 148.658 16.6072 149.145 16.6072C149.789 16.6072 150.391 16.7763 150.95 17.1143C151.513 17.4524 151.968 17.9736 152.314 18.6779C152.66 19.3822 152.833 20.2797 152.833 21.3704C152.833 22.4208 152.666 23.3002 152.332 24.0085C152.002 24.7168 151.556 25.2481 150.992 25.6023C150.433 25.9564 149.811 26.1335 149.127 26.1335C148.66 26.1335 148.255 26.057 147.913 25.9041C147.571 25.7512 147.284 25.5499 147.05 25.3004C146.821 25.0509 146.644 24.7832 146.519 24.4975H146.458V29.478H143.506ZM146.398 21.3643C146.398 21.8634 146.465 22.298 146.597 22.6683C146.734 23.0386 146.929 23.3263 147.183 23.5316C147.44 23.7328 147.748 23.8334 148.107 23.8334C148.469 23.8334 148.777 23.7328 149.03 23.5316C149.284 23.3263 149.475 23.0386 149.604 22.6683C149.737 22.298 149.803 21.8634 149.803 21.3643C149.803 20.8653 149.737 20.4326 149.604 20.0664C149.475 19.7002 149.284 19.4164 149.03 19.2152C148.781 19.014 148.473 18.9133 148.107 18.9133C147.744 18.9133 147.436 19.0119 147.183 19.2092C146.929 19.4064 146.734 19.6881 146.597 20.0543C146.465 20.4206 146.398 20.8572 146.398 21.3643ZM158.715 26.1758C157.745 26.1758 156.908 25.9846 156.204 25.6023C155.503 25.2159 154.964 24.6665 154.586 23.9542C154.211 23.2378 154.024 22.3866 154.024 21.4006C154.024 20.4427 154.213 19.6056 154.592 18.8892C154.97 18.1688 155.503 17.6094 156.192 17.2109C156.88 16.8085 157.691 16.6072 158.624 16.6072C159.284 16.6072 159.888 16.7099 160.435 16.9151C160.983 17.1204 161.456 17.4242 161.854 17.8267C162.253 18.2292 162.563 18.7262 162.784 19.3178C163.005 19.9054 163.116 20.5795 163.116 21.3402V22.0767H155.057V20.3622H160.369C160.365 20.0483 160.291 19.7686 160.146 19.5231C160.001 19.2776 159.802 19.0864 159.548 18.9496C159.299 18.8087 159.011 18.7383 158.685 18.7383C158.355 18.7383 158.059 18.8127 157.797 18.9616C157.536 19.1065 157.328 19.3057 157.176 19.5593C157.023 19.8088 156.942 20.0926 156.934 20.4105V22.1552C156.934 22.5335 157.009 22.8655 157.157 23.1513C157.306 23.433 157.518 23.6523 157.791 23.8093C158.065 23.9663 158.391 24.0447 158.769 24.0447C159.031 24.0447 159.268 24.0085 159.482 23.9361C159.695 23.8636 159.878 23.757 160.031 23.6161C160.184 23.4752 160.299 23.3022 160.375 23.0969L163.086 23.1754C162.973 23.7831 162.725 24.3124 162.343 24.7631C161.965 25.2099 161.468 25.558 160.852 25.8075C160.236 26.053 159.524 26.1758 158.715 26.1758ZM171.306 17.3437C171.266 16.901 171.087 16.5569 170.769 16.3114C170.455 16.0619 170.007 15.9371 169.423 15.9371C169.037 15.9371 168.715 15.9874 168.457 16.0881C168.199 16.1887 168.006 16.3275 167.878 16.5046C167.749 16.6777 167.682 16.8769 167.678 17.1023C167.67 17.2874 167.706 17.4504 167.787 17.5913C167.871 17.7321 167.992 17.8569 168.149 17.9655C168.31 18.0702 168.503 18.1627 168.729 18.2432C168.954 18.3237 169.208 18.3942 169.489 18.4545L170.552 18.696C171.164 18.8288 171.703 19.0059 172.17 19.2273C172.641 19.4486 173.035 19.7122 173.353 20.0181C173.675 20.324 173.918 20.6761 174.083 21.0746C174.248 21.473 174.333 21.9197 174.337 22.4148C174.333 23.1955 174.136 23.8656 173.745 24.4251C173.355 24.9845 172.794 25.4131 172.061 25.7109C171.333 26.0087 170.453 26.1577 169.423 26.1577C168.389 26.1577 167.487 26.0027 166.718 25.6928C165.95 25.3829 165.352 24.912 164.925 24.2802C164.499 23.6483 164.28 22.8494 164.267 21.8835H167.129C167.153 22.2819 167.26 22.614 167.449 22.8796C167.638 23.1452 167.898 23.3465 168.228 23.4833C168.562 23.6201 168.948 23.6886 169.387 23.6886C169.789 23.6886 170.131 23.6342 170.413 23.5256C170.699 23.4169 170.918 23.266 171.071 23.0728C171.224 22.8796 171.302 22.6583 171.306 22.4087C171.302 22.1753 171.23 21.9761 171.089 21.8111C170.948 21.642 170.731 21.4971 170.437 21.3764C170.147 21.2516 169.777 21.1369 169.326 21.0323L168.034 20.7305C166.964 20.485 166.121 20.0885 165.505 19.5412C164.889 18.9898 164.583 18.2453 164.587 17.3075C164.583 16.5428 164.789 15.8727 165.203 15.2972C165.618 14.7217 166.191 14.273 166.924 13.951C167.656 13.629 168.491 13.468 169.429 13.468C170.387 13.468 171.218 13.631 171.922 13.957C172.631 14.279 173.18 14.7318 173.57 15.3153C173.961 15.8989 174.16 16.575 174.168 17.3437H171.306ZM180.175 26.1758C179.197 26.1758 178.358 25.9745 177.657 25.5721C176.961 25.1696 176.426 24.6102 176.052 23.8938C175.677 23.1734 175.49 22.3403 175.49 21.3945C175.49 20.4447 175.677 19.6116 176.052 18.8952C176.43 18.1748 176.967 17.6134 177.663 17.2109C178.364 16.8085 179.199 16.6072 180.169 16.6072C181.026 16.6072 181.773 16.7622 182.408 17.0721C183.048 17.382 183.547 17.8207 183.906 18.3881C184.268 18.9516 184.459 19.6136 184.479 20.3743H181.72C181.664 19.8994 181.503 19.5271 181.237 19.2574C180.976 18.9878 180.634 18.853 180.211 18.853C179.869 18.853 179.569 18.9496 179.311 19.1427C179.054 19.3319 178.853 19.6136 178.708 19.9879C178.567 20.3582 178.496 20.817 178.496 21.3643C178.496 21.9117 178.567 22.3745 178.708 22.7528C178.853 23.1271 179.054 23.4109 179.311 23.604C179.569 23.7932 179.869 23.8878 180.211 23.8878C180.485 23.8878 180.726 23.8294 180.935 23.7127C181.149 23.596 181.324 23.4249 181.461 23.1996C181.597 22.9702 181.684 22.6925 181.72 22.3665H184.479C184.451 23.1311 184.26 23.7992 183.906 24.3707C183.555 24.9422 183.062 25.3869 182.427 25.7049C181.795 26.0188 181.044 26.1758 180.175 26.1758ZM185.99 26.0007V16.728H188.857V18.4183H188.954C189.123 17.8066 189.399 17.3518 189.781 17.054C190.163 16.7521 190.608 16.6012 191.115 16.6012C191.252 16.6012 191.393 16.6113 191.538 16.6314C191.683 16.6475 191.817 16.6736 191.942 16.7099V19.2756C191.801 19.2273 191.616 19.189 191.387 19.1609C191.161 19.1327 190.96 19.1186 190.783 19.1186C190.433 19.1186 190.117 19.1971 189.835 19.354C189.558 19.507 189.338 19.7223 189.177 20C189.02 20.2737 188.942 20.5956 188.942 20.9659V26.0007H185.99ZM193.145 26.0007V16.728H196.097V26.0007H193.145ZM194.624 15.6474C194.21 15.6474 193.853 15.5105 193.556 15.2369C193.258 14.9592 193.109 14.6251 193.109 14.2347C193.109 13.8484 193.258 13.5183 193.556 13.2447C193.853 12.967 194.21 12.8281 194.624 12.8281C195.043 12.8281 195.399 12.967 195.693 13.2447C195.99 13.5183 196.139 13.8484 196.139 14.2347C196.139 14.6251 195.99 14.9592 195.693 15.2369C195.399 15.5105 195.043 15.6474 194.624 15.6474ZM197.976 29.478V16.728H200.898V18.3157H200.989C201.109 18.034 201.28 17.7623 201.502 17.5007C201.727 17.2391 202.013 17.0258 202.359 16.8608C202.709 16.6918 203.128 16.6072 203.615 16.6072C204.259 16.6072 204.86 16.7763 205.42 17.1143C205.983 17.4524 206.438 17.9736 206.784 18.6779C207.13 19.3822 207.303 20.2797 207.303 21.3704C207.303 22.4208 207.136 23.3002 206.802 24.0085C206.472 24.7168 206.025 25.2481 205.462 25.6023C204.903 25.9564 204.281 26.1335 203.597 26.1335C203.13 26.1335 202.725 26.057 202.383 25.9041C202.041 25.7512 201.753 25.5499 201.52 25.3004C201.29 25.0509 201.113 24.7832 200.989 24.4975H200.928V29.478H197.976ZM200.868 21.3643C200.868 21.8634 200.934 22.298 201.067 22.6683C201.204 23.0386 201.399 23.3263 201.653 23.5316C201.91 23.7328 202.218 23.8334 202.576 23.8334C202.938 23.8334 203.246 23.7328 203.5 23.5316C203.753 23.3263 203.945 23.0386 204.073 22.6683C204.206 22.298 204.273 21.8634 204.273 21.3643C204.273 20.8653 204.206 20.4326 204.073 20.0664C203.945 19.7002 203.753 19.4164 203.5 19.2152C203.25 19.014 202.943 18.9133 202.576 18.9133C202.214 18.9133 201.906 19.0119 201.653 19.2092C201.399 19.4064 201.204 19.6881 201.067 20.0543C200.934 20.4206 200.868 20.8572 200.868 21.3643ZM214.084 16.728V18.9013H208.234V16.728H214.084ZM209.46 14.5064H212.412V23.0849C212.412 23.266 212.44 23.4129 212.496 23.5256C212.557 23.6342 212.643 23.7127 212.756 23.761C212.869 23.8053 213.004 23.8274 213.161 23.8274C213.273 23.8274 213.392 23.8173 213.517 23.7972C213.645 23.7731 213.742 23.7529 213.806 23.7368L214.253 25.8679C214.112 25.9081 213.913 25.9584 213.656 26.0188C213.402 26.0792 213.098 26.1174 212.744 26.1335C212.052 26.1657 211.458 26.0852 210.963 25.892C210.472 25.6948 210.096 25.389 209.834 24.9744C209.577 24.5599 209.452 24.0387 209.46 23.4109V14.5064Z" fill="#93B8DF"/>
</g>
</g>
<rect x="1.07143" y="1.07143" width="220.858" height="37.8585" rx="6.92857" stroke="white" stroke-opacity="0.15" stroke-width="2.14286"/>
<defs>
<filter id="filter0_d_1_56" x="2.39972" y="0.39972" width="75.2005" height="75.2005" filterUnits="userSpaceOnUse" color-interpolation-filters="sRGB">
<feFlood flood-opacity="0" result="BackgroundImageFix"/>
<feColorMatrix in="SourceAlpha" type="matrix" values="0 0 0 0 0 0 0 0 0 0 0 0 0 0 0 0 0 0 127 0" result="hardAlpha"/>
<feOffset/>
<feGaussianBlur stdDeviation="2.80014"/>
<feComposite in2="hardAlpha" operator="out"/>
<feColorMatrix type="matrix" values="0 0 0 0 0 0 0 0 0 0 0 0 0 0 0 0 0 0 0.25 0"/>
<feBlend mode="normal" in2="BackgroundImageFix" result="effect1_dropShadow_1_56"/>
<feBlend mode="normal" in="SourceGraphic" in2="effect1_dropShadow_1_56" result="shape"/>
</filter>
<filter id="filter1_d_1_56" x="36.2871" y="3.78642" width="184.429" height="32.4286" filterUnits="userSpaceOnUse" color-interpolation-filters="sRGB">
<feFlood flood-opacity="0" result="BackgroundImageFix"/>
<feColorMatrix in="SourceAlpha" type="matrix" values="0 0 0 0 0 0 0 0 0 0 0 0 0 0 0 0 0 0 127 0" result="hardAlpha"/>
<feOffset/>
<feGaussianBlur stdDeviation="2.85714"/>
<feComposite in2="hardAlpha" operator="out"/>
<feColorMatrix type="matrix" values="0 0 0 0 0 0 0 0 0 0 0 0 0 0 0 0 0 0 0.25 0"/>
<feBlend mode="normal" in2="BackgroundImageFix" result="effect1_dropShadow_1_56"/>
<feBlend mode="normal" in="SourceGraphic" in2="effect1_dropShadow_1_56" result="shape"/>
</filter>
<filter id="filter2_d_1_56" x="39.3597" y="13.642" width="80.9835" height="20.9915" filterUnits="userSpaceOnUse" color-interpolation-filters="sRGB">
<feFlood flood-opacity="0" result="BackgroundImageFix"/>
<feColorMatrix in="SourceAlpha" type="matrix" values="0 0 0 0 0 0 0 0 0 0 0 0 0 0 0 0 0 0 127 0" result="hardAlpha"/>
<feOffset dy="4"/>
<feGaussianBlur stdDeviation="2"/>
<feComposite in2="hardAlpha" operator="out"/>
<feColorMatrix type="matrix" values="0 0 0 0 0 0 0 0 0 0 0 0 0 0 0 0 0 0 0.25 0"/>
<feBlend mode="normal" in2="BackgroundImageFix" result="effect1_dropShadow_1_56"/>
<feBlend mode="normal" in="SourceGraphic" in2="effect1_dropShadow_1_56" result="shape"/>
</filter>
<linearGradient id="paint0_linear_1_56" x1="111.501" y1="0" x2="111.501" y2="40.0014" gradientUnits="userSpaceOnUse">
<stop stop-color="#316BA8"/>
<stop offset="1" stop-color="#00305B"/>
</linearGradient>
<clipPath id="clip0_1_56">
<rect width="223.001" height="40.0014" rx="8" fill="white"/>
</clipPath>
</defs>
</svg>
