<svg width="40" height="40" viewBox="0 0 40 40" fill="none" xmlns="http://www.w3.org/2000/svg">
<g clip-path="url(#clip0_1_68)">
<rect width="40" height="40" rx="8" fill="url(#paint0_linear_1_68)"/>
<g filter="url(#filter0_d_1_68)">
<path d="M31.2656 6H8.73437C7.22422 6 6 7.22422 6 8.73437V31.2656C6 32.7758 7.22422 34 8.73437 34H31.2656C32.7758 34 34 32.7758 34 31.2656V8.73437C34 7.22422 32.7758 6 31.2656 6Z" fill="#3178C6"/>
<path d="M31.2656 6H8.73437C7.22422 6 6 7.22422 6 8.73437V31.2656C6 32.7758 7.22422 34 8.73437 34H31.2656C32.7758 34 34 32.7758 34 31.2656V8.73437C34 7.22422 32.7758 6 31.2656 6Z" fill="#3178C6"/>
<path fill-rule="evenodd" clip-rule="evenodd" d="M23.3326 28.281V31.0187C23.7776 31.2469 24.304 31.4179 24.9117 31.532C25.5194 31.6461 26.1598 31.7031 26.8331 31.7031C27.4893 31.7031 28.1127 31.6404 28.7032 31.5149C29.2938 31.3894 29.8116 31.1827 30.2567 30.8946C30.7017 30.6066 31.0541 30.2302 31.3137 29.7653C31.5733 29.3005 31.7031 28.7259 31.7031 28.0415C31.7031 27.5452 31.629 27.1104 31.4806 26.7368C31.3322 26.3632 31.1183 26.031 30.8387 25.7401C30.5591 25.4492 30.2239 25.1883 29.833 24.9573C29.4422 24.7263 29.0014 24.5081 28.5107 24.3028C28.1512 24.1545 27.8288 24.0105 27.5435 23.8708C27.2582 23.731 27.0157 23.5884 26.816 23.443C26.6163 23.2975 26.4623 23.1435 26.3539 22.981C26.2455 22.8184 26.1912 22.6345 26.1912 22.4292C26.1912 22.241 26.2397 22.0713 26.3368 21.9201C26.4338 21.769 26.5707 21.6393 26.7476 21.5309C26.9245 21.4225 27.1413 21.3384 27.398 21.2785C27.6548 21.2186 27.9401 21.1887 28.2539 21.1887C28.4821 21.1887 28.7232 21.2058 28.9771 21.24C29.231 21.2742 29.4864 21.327 29.7432 21.3982C29.9999 21.4696 30.2495 21.5594 30.4921 21.6678C30.7346 21.7761 30.9585 21.9016 31.1639 22.0442V19.4862C30.7474 19.3265 30.2924 19.2081 29.7988 19.1311C29.3052 19.0541 28.7389 19.0156 28.0999 19.0156C27.4494 19.0156 26.8331 19.0855 26.2512 19.2252C25.6692 19.365 25.1571 19.5831 24.7148 19.8797C24.2726 20.1763 23.9232 20.5541 23.6664 21.0133C23.4097 21.4724 23.2812 22.0214 23.2812 22.6602C23.2812 23.4758 23.5166 24.1716 23.9874 24.7477C24.4581 25.3237 25.1727 25.8114 26.1313 26.2106C26.5079 26.3646 26.8589 26.5157 27.1841 26.6641C27.5093 26.8124 27.7903 26.9664 28.0271 27.1261C28.2639 27.2857 28.4507 27.4597 28.5877 27.6479C28.7247 27.8361 28.7931 28.05 28.7931 28.2896C28.7931 28.4664 28.7503 28.6303 28.6647 28.7815C28.5792 28.9327 28.4493 29.0638 28.2753 29.175C28.1013 29.2863 27.8845 29.3732 27.6249 29.4359C27.3652 29.4987 27.0614 29.5301 26.7133 29.5301C26.1199 29.5301 25.5322 29.426 24.9502 29.2178C24.3682 29.0097 23.829 28.6974 23.3326 28.281ZM18.7302 21.5357H22.2422V19.2891H12.4531V21.5357H15.948V31.5391H18.7302V21.5357Z" fill="white"/>
</g>
</g>
<rect x="1.05" y="1.05" width="37.9" height="37.9" rx="6.95" stroke="white" stroke-opacity="0.15" stroke-width="2.1"/>
<defs>
<filter id="filter0_d_1_68" x="2" y="2" width="72" height="72" filterUnits="userSpaceOnUse" color-interpolation-filters="sRGB">
<feFlood flood-opacity="0" result="BackgroundImageFix"/>
<feColorMatrix in="SourceAlpha" type="matrix" values="0 0 0 0 0 0 0 0 0 0 0 0 0 0 0 0 0 0 127 0" result="hardAlpha"/>
<feOffset/>
<feGaussianBlur stdDeviation="2"/>
<feComposite in2="hardAlpha" operator="out"/>
<feColorMatrix type="matrix" values="0 0 0 0 0 0 0 0 0 0 0 0 0 0 0 0 0 0 0.25 0"/>
<feBlend mode="normal" in2="BackgroundImageFix" result="effect1_dropShadow_1_68"/>
<feBlend mode="normal" in="SourceGraphic" in2="effect1_dropShadow_1_68" result="shape"/>
</filter>
<linearGradient id="paint0_linear_1_68" x1="20" y1="0" x2="20" y2="40" gradientUnits="userSpaceOnUse">
<stop stop-color="#316BA8"/>
<stop offset="0.9998" stop-color="#00305B"/>
<stop offset="0.9999" stop-color="#353B7D"/>
<stop offset="1" stop-color="#372469"/>
</linearGradient>
<clipPath id="clip0_1_68">
<rect width="40" height="40" rx="8" fill="white"/>
</clipPath>
</defs>
</svg>
