<svg width="56" height="56" viewBox="0 0 56 56" fill="none" xmlns="http://www.w3.org/2000/svg">
<g clip-path="url(#clip0_1_62)">
<rect width="56" height="56" rx="8.4" fill="url(#paint0_linear_1_62)"/>
<g filter="url(#filter0_d_1_62)">
<path d="M44.0938 8H11.9063C9.74889 8 8 9.74889 8 11.9063V44.0938C8 46.2511 9.74889 48 11.9063 48H44.0938C46.2511 48 48 46.2511 48 44.0938V11.9063C48 9.74889 46.2511 8 44.0938 8Z" fill="#3178C6"/>
<path d="M44.0938 8H11.9063C9.74889 8 8 9.74889 8 11.9063V44.0938C8 46.2511 9.74889 48 11.9063 48H44.0938C46.2511 48 48 46.2511 48 44.0938V11.9063C48 9.74889 46.2511 8 44.0938 8Z" fill="#3178C6"/>
<path fill-rule="evenodd" clip-rule="evenodd" d="M32.7609 39.83V43.741C33.3966 44.067 34.1486 44.3113 35.0167 44.4743C35.8848 44.6373 36.7998 44.7187 37.7616 44.7187C38.6991 44.7187 39.5895 44.6291 40.4332 44.4498C41.2769 44.2706 42.0166 43.9752 42.6524 43.5638C43.2882 43.1523 43.7916 42.6145 44.1624 41.9505C44.5333 41.2864 44.7187 40.4655 44.7187 39.4878C44.7187 38.7789 44.6128 38.1577 44.4009 37.624C44.1889 37.0903 43.8833 36.6157 43.4838 36.2002C43.0845 35.7846 42.6055 35.4118 42.0472 35.0818C41.4888 34.7518 40.8591 34.4402 40.1581 34.1469C39.6446 33.935 39.1841 33.7293 38.7765 33.5297C38.3689 33.33 38.0225 33.1263 37.7372 32.9186C37.4519 32.7108 37.2318 32.4908 37.077 32.2586C36.9221 32.0263 36.8446 31.7636 36.8446 31.4702C36.8446 31.2014 36.9139 30.959 37.0525 30.743C37.1911 30.5271 37.3867 30.3418 37.6394 30.187C37.8921 30.0322 38.2018 29.912 38.5686 29.8264C38.9355 29.7409 39.343 29.6981 39.7913 29.6981C40.1173 29.6981 40.4617 29.7226 40.8245 29.7714C41.1872 29.8203 41.552 29.8957 41.9188 29.9975C42.2856 30.0994 42.6422 30.2277 42.9887 30.3825C43.3351 30.5373 43.655 30.7166 43.9484 30.9203V27.2659C43.3534 27.0378 42.7034 26.8687 41.9983 26.7587C41.2932 26.6487 40.4841 26.5938 39.5712 26.5938C38.642 26.5938 37.7616 26.6936 36.9302 26.8932C36.0988 27.0928 35.3673 27.4045 34.7355 27.8281C34.1037 28.2519 33.6045 28.7916 33.2377 29.4476C32.8709 30.1034 32.6875 30.8877 32.6875 31.8002C32.6875 32.9654 33.0237 33.9595 33.6962 34.7824C34.3687 35.6053 35.3896 36.302 36.7591 36.8723C37.297 37.0923 37.7984 37.3082 38.263 37.5201C38.7276 37.732 39.1291 37.952 39.4673 38.1801C39.8055 38.4082 40.0725 38.6567 40.2682 38.9256C40.4638 39.1945 40.5616 39.5 40.5616 39.8423C40.5616 40.0948 40.5005 40.3291 40.3782 40.545C40.2559 40.7609 40.0705 40.9483 39.8219 41.1072C39.5733 41.2661 39.2635 41.3903 38.8927 41.4799C38.5217 41.5696 38.0877 41.6144 37.5905 41.6144C36.7427 41.6144 35.9032 41.4657 35.0717 41.1683C34.2403 40.8709 33.47 40.4248 32.7609 39.83ZM26.1859 30.1939H31.2031V26.9844H17.2188V30.1939H22.2114V44.4844H26.1859V30.1939Z" fill="white"/>
</g>
</g>
<rect x="1.05" y="1.05" width="53.9" height="53.9" rx="7.35" stroke="white" stroke-opacity="0.15" stroke-width="2.1"/>
<defs>
<filter id="filter0_d_1_62" x="2.28571" y="2.28571" width="75.4286" height="75.4286" filterUnits="userSpaceOnUse" color-interpolation-filters="sRGB">
<feFlood flood-opacity="0" result="BackgroundImageFix"/>
<feColorMatrix in="SourceAlpha" type="matrix" values="0 0 0 0 0 0 0 0 0 0 0 0 0 0 0 0 0 0 127 0" result="hardAlpha"/>
<feOffset/>
<feGaussianBlur stdDeviation="2.85714"/>
<feComposite in2="hardAlpha" operator="out"/>
<feColorMatrix type="matrix" values="0 0 0 0 0 0 0 0 0 0 0 0 0 0 0 0 0 0 0.25 0"/>
<feBlend mode="normal" in2="BackgroundImageFix" result="effect1_dropShadow_1_62"/>
<feBlend mode="normal" in="SourceGraphic" in2="effect1_dropShadow_1_62" result="shape"/>
</filter>
<linearGradient id="paint0_linear_1_62" x1="28" y1="0" x2="28" y2="56" gradientUnits="userSpaceOnUse">
<stop stop-color="#316BA8"/>
<stop stop-color="#5B4000"/>
<stop offset="0.0001" stop-color="#292929"/>
<stop offset="0.0002" stop-color="#5B4000"/>
<stop offset="0.0003" stop-color="#316BA8"/>
<stop offset="0.9998" stop-color="#00305B"/>
<stop offset="0.9999" stop-color="#0B3C42"/>
<stop offset="1" stop-color="#3B5368"/>
</linearGradient>
<clipPath id="clip0_1_62">
<rect width="56" height="56" rx="8.4" fill="white"/>
</clipPath>
</defs>
</svg>
