<svg width="195" height="40" viewBox="0 0 195 40" fill="none" xmlns="http://www.w3.org/2000/svg">
<rect width="195.001" height="40.0014" rx="8" fill="url(#paint0_linear_1_56)"/>
<rect x="1.07143" y="1.07143" width="192.858" height="37.8585" rx="6.92857" stroke="white" stroke-opacity="0.15" stroke-width="2.14286"/>
<g filter="url(#filter0_d_1_56)">
<path d="M22 34C29.732 34 36 27.732 36 20C36 12.268 29.732 6 22 6C14.268 6 8 12.268 8 20C8 27.732 14.268 34 22 34Z" fill="#FFCF00"/>
<path d="M14.65 13.35L21.3 20L14.65 26.65M23.05 13.35L29.7 20L23.05 26.65" stroke="#191919" stroke-width="3"/>
</g>
<g filter="url(#filter1_d_1_56)">
<path d="M43.3597 26.5007V14.1371H47.8874C48.7648 14.1371 49.4912 14.282 50.0667 14.5717C50.6423 14.8575 51.0729 15.2458 51.3586 15.7369C51.6444 16.2238 51.7873 16.7732 51.7873 17.3849C51.7873 17.9001 51.6927 18.3347 51.5035 18.6889C51.3144 19.0391 51.0608 19.3208 50.7429 19.5341C50.429 19.7434 50.0828 19.8963 49.7045 19.9929V20.1136C50.115 20.1337 50.5155 20.2666 50.9059 20.5121C51.3003 20.7535 51.6263 21.0976 51.8839 21.5444C52.1414 21.9911 52.2702 22.5344 52.2702 23.1743C52.2702 23.8062 52.1213 24.3737 51.8235 24.8768C51.5297 25.3758 51.0749 25.7722 50.4591 26.066C49.8434 26.3558 49.0566 26.5007 48.0987 26.5007H43.3597ZM45.2251 24.9009H47.9176C48.8111 24.9009 49.451 24.7279 49.8373 24.3817C50.2237 24.0356 50.4169 23.603 50.4169 23.0838C50.4169 22.6934 50.3183 22.3352 50.1211 22.0092C49.9239 21.6832 49.6421 21.4236 49.2759 21.2305C48.9137 21.0373 48.483 20.9407 47.984 20.9407H45.2251V24.9009ZM45.2251 19.4858H47.7244C48.143 19.4858 48.5193 19.4053 48.8533 19.2443C49.1914 19.0833 49.459 18.8579 49.6562 18.5682C49.8575 18.2744 49.9581 17.9283 49.9581 17.5298C49.9581 17.0187 49.779 16.5901 49.4208 16.244C49.0626 15.8978 48.5132 15.7248 47.7727 15.7248H45.2251V19.4858ZM60.2118 22.6552V17.228H62.0229V26.5007H60.248V24.8949H60.1514C59.9381 25.3899 59.596 25.8024 59.1251 26.1324C58.6583 26.4584 58.0767 26.6214 57.3805 26.6214C56.7848 26.6214 56.2576 26.4906 55.7988 26.229C55.344 25.9634 54.9858 25.571 54.7242 25.0518C54.4667 24.5327 54.3379 23.8907 54.3379 23.1261V17.228H56.1429V22.9087C56.1429 23.5406 56.318 24.0437 56.6681 24.418C57.0183 24.7922 57.473 24.9794 58.0325 24.9794C58.3705 24.9794 58.7066 24.8949 59.0406 24.7258C59.3787 24.5568 59.6584 24.3012 59.8798 23.9591C60.1051 23.6171 60.2158 23.1824 60.2118 22.6552ZM64.4482 26.5007V17.228H66.2533V26.5007H64.4482ZM65.3598 15.7972C65.0459 15.7972 64.7762 15.6926 64.5508 15.4833C64.3295 15.27 64.2188 15.0164 64.2188 14.7226C64.2188 14.4248 64.3295 14.1713 64.5508 13.962C64.7762 13.7487 65.0459 13.642 65.3598 13.642C65.6737 13.642 65.9413 13.7487 66.1627 13.962C66.3881 14.1713 66.5008 14.4248 66.5008 14.7226C66.5008 15.0164 66.3881 15.27 66.1627 15.4833C65.9413 15.6926 65.6737 15.7972 65.3598 15.7972ZM70.4867 14.1371V26.5007H68.6816V14.1371H70.4867ZM77.2435 17.228V18.6768H72.1785V17.228H77.2435ZM73.5368 15.0064H75.3419V23.778C75.3419 24.1282 75.3942 24.3918 75.4988 24.5689C75.6035 24.7419 75.7383 24.8607 75.9033 24.9251C76.0723 24.9854 76.2554 25.0156 76.4526 25.0156C76.5975 25.0156 76.7243 25.0056 76.833 24.9854C76.9416 24.9653 77.0262 24.9492 77.0865 24.9371L77.4125 26.4283C77.3079 26.4685 77.159 26.5087 76.9658 26.549C76.7726 26.5933 76.5311 26.6174 76.2414 26.6214C75.7664 26.6295 75.3237 26.545 74.9132 26.3679C74.5027 26.1908 74.1707 25.9171 73.9171 25.5469C73.6636 25.1766 73.5368 24.7118 73.5368 24.1523V15.0064ZM85.7495 26.5007L83.0208 17.228H84.8862L86.7034 24.0376H86.7939L88.6171 17.228H90.4825L92.2936 24.0074H92.3841L94.1891 17.228H96.0546L93.3319 26.5007H91.4906L89.6071 19.8057H89.4683L87.5847 26.5007H85.7495ZM97.7675 26.5007V17.228H99.5726V26.5007H97.7675ZM98.6791 15.7972C98.3652 15.7972 98.0955 15.6926 97.8702 15.4833C97.6488 15.27 97.5381 15.0164 97.5381 14.7226C97.5381 14.4248 97.6488 14.1713 97.8702 13.962C98.0955 13.7487 98.3652 13.642 98.6791 13.642C98.993 13.642 99.2607 13.7487 99.482 13.962C99.7074 14.1713 99.8201 14.4248 99.8201 14.7226C99.8201 15.0164 99.7074 15.27 99.482 15.4833C99.2607 15.6926 98.993 15.7972 98.6791 15.7972ZM106.329 17.228V18.6768H101.264V17.228H106.329ZM102.623 15.0064H104.428V23.778C104.428 24.1282 104.48 24.3918 104.585 24.5689C104.689 24.7419 104.824 24.8607 104.989 24.9251C105.158 24.9854 105.341 25.0156 105.539 25.0156C105.683 25.0156 105.81 25.0056 105.919 24.9854C106.028 24.9653 106.112 24.9492 106.172 24.9371L106.498 26.4283C106.394 26.4685 106.245 26.5087 106.052 26.549C105.859 26.5933 105.617 26.6174 105.327 26.6214C104.852 26.6295 104.41 26.545 103.999 26.3679C103.589 26.1908 103.257 25.9171 103.003 25.5469C102.75 25.1766 102.623 24.7118 102.623 24.1523V15.0064ZM110.33 20.995V26.5007H108.525V14.1371H110.306V18.7372H110.421C110.638 18.2382 110.97 17.8417 111.417 17.5479C111.864 17.2541 112.447 17.1072 113.168 17.1072C113.804 17.1072 114.359 17.238 114.834 17.4996C115.313 17.7612 115.683 18.1516 115.945 18.6708C116.21 19.1859 116.343 19.8299 116.343 20.6026V26.5007H114.538V20.8199C114.538 20.1398 114.363 19.6126 114.013 19.2383C113.663 18.86 113.176 18.6708 112.552 18.6708C112.125 18.6708 111.743 18.7614 111.405 18.9425C111.071 19.1236 110.807 19.3892 110.614 19.7393C110.425 20.0855 110.33 20.504 110.33 20.995Z" fill="#E8E8E8"/>
<path d="M122.937 26.0007V13.6371H131.558V16.0639H125.925V18.5994H131.117V21.0323H125.925V23.5739H131.558V26.0007H122.937ZM140.112 17.3437C140.072 16.901 139.893 16.5569 139.575 16.3114C139.261 16.0619 138.812 15.9371 138.229 15.9371C137.842 15.9371 137.52 15.9874 137.263 16.0881C137.005 16.1887 136.812 16.3275 136.683 16.5046C136.554 16.6777 136.488 16.8769 136.484 17.1023C136.476 17.2874 136.512 17.4504 136.593 17.5913C136.677 17.7321 136.798 17.8569 136.955 17.9655C137.116 18.0702 137.309 18.1627 137.534 18.2432C137.76 18.3237 138.013 18.3942 138.295 18.4545L139.358 18.696C139.969 18.8288 140.509 19.0059 140.975 19.2273C141.446 19.4486 141.841 19.7122 142.159 20.0181C142.481 20.324 142.724 20.6761 142.889 21.0746C143.054 21.473 143.139 21.9197 143.143 22.4148C143.139 23.1955 142.941 23.8656 142.551 24.4251C142.161 24.9845 141.599 25.4131 140.867 25.7109C140.138 26.0087 139.259 26.1577 138.229 26.1577C137.194 26.1577 136.293 26.0027 135.524 25.6928C134.755 25.3829 134.158 24.912 133.731 24.2802C133.305 23.6483 133.085 22.8494 133.073 21.8835H135.935C135.959 22.2819 136.065 22.614 136.255 22.8796C136.444 23.1452 136.703 23.3465 137.033 23.4833C137.367 23.6201 137.754 23.6886 138.192 23.6886C138.595 23.6886 138.937 23.6342 139.219 23.5256C139.504 23.4169 139.724 23.266 139.877 23.0728C140.03 22.8796 140.108 22.6583 140.112 22.4087C140.108 22.1753 140.036 21.9761 139.895 21.8111C139.754 21.642 139.537 21.4971 139.243 21.3764C138.953 21.2516 138.583 21.1369 138.132 21.0323L136.84 20.7305C135.77 20.485 134.926 20.0885 134.311 19.5412C133.695 18.9898 133.389 18.2453 133.393 17.3075C133.389 16.5428 133.594 15.8727 134.009 15.2972C134.423 14.7217 134.997 14.273 135.729 13.951C136.462 13.629 137.297 13.468 138.235 13.468C139.193 13.468 140.024 13.631 140.728 13.957C141.436 14.279 141.986 14.7318 142.376 15.3153C142.766 15.8989 142.966 16.575 142.974 17.3437H140.112ZM144.652 26.0007V13.6371H149.807C150.733 13.6371 151.508 13.7679 152.132 14.0295C152.76 14.2911 153.23 14.6573 153.544 15.1282C153.862 15.5991 154.021 16.1444 154.021 16.7642C154.021 17.2351 153.923 17.6556 153.725 18.0259C153.528 18.3922 153.257 18.696 152.91 18.9375C152.564 19.179 152.164 19.348 151.709 19.4446V19.5653C152.208 19.5895 152.669 19.7243 153.092 19.9698C153.518 20.2153 153.86 20.5574 154.118 20.9961C154.375 21.4307 154.504 21.9459 154.504 22.5415C154.504 23.2056 154.335 23.7992 153.997 24.3224C153.659 24.8416 153.17 25.2521 152.53 25.554C151.89 25.8518 151.113 26.0007 150.2 26.0007H144.652ZM147.64 23.592H149.488C150.135 23.592 150.612 23.4692 150.918 23.2237C151.228 22.9782 151.383 22.6361 151.383 22.1974C151.383 21.8795 151.309 21.6058 151.16 21.3764C151.011 21.143 150.8 20.9639 150.526 20.8391C150.252 20.7103 149.924 20.6459 149.542 20.6459H147.64V23.592ZM147.64 18.7202H149.294C149.62 18.7202 149.91 18.6658 150.164 18.5572C150.417 18.4485 150.614 18.2915 150.755 18.0863C150.9 17.881 150.973 17.6335 150.973 17.3437C150.973 16.9292 150.826 16.6032 150.532 16.3658C150.238 16.1283 149.842 16.0096 149.343 16.0096H147.64V18.7202ZM161.924 21.9982V16.728H164.87V26.0007H162.056V24.2741H161.96C161.755 24.8416 161.404 25.2924 160.909 25.6264C160.418 25.9564 159.825 26.1214 159.128 26.1214C158.497 26.1214 157.941 25.9765 157.462 25.6868C156.983 25.397 156.611 24.9925 156.345 24.4734C156.08 23.9502 155.945 23.3384 155.941 22.6381V16.728H158.893V22.0586C158.897 22.5617 159.03 22.9581 159.291 23.2479C159.553 23.5376 159.909 23.6825 160.36 23.6825C160.654 23.6825 160.917 23.6181 161.151 23.4893C161.388 23.3565 161.575 23.1654 161.712 22.9158C161.853 22.6623 161.924 22.3564 161.924 21.9982ZM166.749 26.0007V16.728H169.701V26.0007H166.749ZM168.228 15.6474C167.813 15.6474 167.457 15.5105 167.159 15.2369C166.861 14.9592 166.712 14.6251 166.712 14.2347C166.712 13.8484 166.861 13.5183 167.159 13.2447C167.457 12.967 167.813 12.8281 168.228 12.8281C168.646 12.8281 169.002 12.967 169.296 13.2447C169.594 13.5183 169.743 13.8484 169.743 14.2347C169.743 14.6251 169.594 14.9592 169.296 15.2369C169.002 15.5105 168.646 15.6474 168.228 15.6474ZM174.532 13.6371V26.0007H171.58V13.6371H174.532ZM179.797 26.1335C179.113 26.1335 178.491 25.9564 177.932 25.6023C177.373 25.2481 176.926 24.7168 176.592 24.0085C176.258 23.3002 176.091 22.4208 176.091 21.3704C176.091 20.2797 176.264 19.3822 176.61 18.6779C176.956 17.9736 177.409 17.4524 177.968 17.1143C178.532 16.7763 179.137 16.6072 179.785 16.6072C180.272 16.6072 180.689 16.6918 181.035 16.8608C181.381 17.0258 181.667 17.2391 181.892 17.5007C182.118 17.7623 182.289 18.034 182.405 18.3157H182.466V13.6371H185.418V26.0007H182.496V24.4975H182.405C182.281 24.7832 182.104 25.0509 181.874 25.3004C181.645 25.5499 181.357 25.7512 181.011 25.9041C180.669 26.057 180.264 26.1335 179.797 26.1335ZM180.824 23.8334C181.182 23.8334 181.488 23.7328 181.741 23.5316C181.995 23.3263 182.19 23.0386 182.327 22.6683C182.464 22.298 182.532 21.8634 182.532 21.3643C182.532 20.8572 182.464 20.4206 182.327 20.0543C182.194 19.6881 181.999 19.4064 181.741 19.2092C181.488 19.0119 181.182 18.9133 180.824 18.9133C180.457 18.9133 180.148 19.014 179.894 19.2152C179.64 19.4164 179.447 19.7002 179.314 20.0664C179.186 20.4326 179.121 20.8653 179.121 21.3643C179.121 21.8634 179.188 22.298 179.321 22.6683C179.453 23.0386 179.644 23.3263 179.894 23.5316C180.148 23.7328 180.457 23.8334 180.824 23.8334Z" fill="#FFCF00"/>
</g>
<defs>
<filter id="filter0_d_1_56" x="2.39972" y="0.39972" width="39.202" height="39.202" filterUnits="userSpaceOnUse" color-interpolation-filters="sRGB">
<feFlood flood-opacity="0" result="BackgroundImageFix"/>
<feColorMatrix in="SourceAlpha" type="matrix" values="0 0 0 0 0 0 0 0 0 0 0 0 0 0 0 0 0 0 127 0" result="hardAlpha"/>
<feOffset/>
<feGaussianBlur stdDeviation="2.80014"/>
<feComposite in2="hardAlpha" operator="out"/>
<feColorMatrix type="matrix" values="0 0 0 0 0 0 0 0 0 0 0 0 0 0 0 0 0 0 0.25 0"/>
<feBlend mode="normal" in2="BackgroundImageFix" result="effect1_dropShadow_1_56"/>
<feBlend mode="normal" in="SourceGraphic" in2="effect1_dropShadow_1_56" result="shape"/>
</filter>
<filter id="filter1_d_1_56" x="36.2871" y="3.78642" width="156.429" height="32.4286" filterUnits="userSpaceOnUse" color-interpolation-filters="sRGB">
<feFlood flood-opacity="0" result="BackgroundImageFix"/>
<feColorMatrix in="SourceAlpha" type="matrix" values="0 0 0 0 0 0 0 0 0 0 0 0 0 0 0 0 0 0 127 0" result="hardAlpha"/>
<feOffset/>
<feGaussianBlur stdDeviation="2.85714"/>
<feComposite in2="hardAlpha" operator="out"/>
<feColorMatrix type="matrix" values="0 0 0 0 0 0 0 0 0 0 0 0 0 0 0 0 0 0 0.25 0"/>
<feBlend mode="normal" in2="BackgroundImageFix" result="effect1_dropShadow_1_56"/>
<feBlend mode="normal" in="SourceGraphic" in2="effect1_dropShadow_1_56" result="shape"/>
</filter>
<linearGradient id="paint0_linear_1_56" x1="97.5007" y1="0" x2="97.5007" y2="40.0014" gradientUnits="userSpaceOnUse">
<stop stop-color="#806800"/>
<stop offset="1" stop-color="#594800"/>
</linearGradient>
</defs>
</svg>
