<svg width="144" height="56" viewBox="0 0 144 56" fill="none" xmlns="http://www.w3.org/2000/svg">
<rect width="144" height="56" rx="8" fill="url(#paint0_linear_1_50)"/>
<rect x="1.05" y="1.05" width="141.9" height="53.9" rx="6.95" stroke="white" stroke-opacity="0.15" stroke-width="2.1"/>
<g filter="url(#filter0_d_1_50)">
<path d="M32 48C43.0457 48 52 39.0457 52 28C52 16.9543 43.0457 8 32 8C20.9543 8 12 16.9543 12 28C12 39.0457 20.9543 48 32 48Z" fill="#FFCF00"/>
<path d="M21.5 18.5L31 28L21.5 37.5M33.5 18.5L43 28L33.5 37.5" stroke="#191919" stroke-width="5"/>
</g>
<g filter="url(#filter1_d_1_50)">
<path d="M61.2784 24.5V12.8636H65.5398C66.3655 12.8636 67.0492 13 67.5909 13.2727C68.1326 13.5417 68.5379 13.9072 68.8068 14.3693C69.0757 14.8276 69.2102 15.3447 69.2102 15.9204C69.2102 16.4053 69.1212 16.8144 68.9432 17.1477C68.7651 17.4773 68.5265 17.7424 68.2273 17.9432C67.9318 18.1401 67.606 18.2841 67.25 18.375V18.4886C67.6363 18.5076 68.0132 18.6326 68.3807 18.8636C68.7519 19.0909 69.0587 19.4148 69.3011 19.8352C69.5435 20.2557 69.6648 20.767 69.6648 21.3693C69.6648 21.964 69.5246 22.4981 69.2443 22.9716C68.9678 23.4413 68.5398 23.8144 67.9602 24.0909C67.3807 24.3636 66.6401 24.5 65.7386 24.5H61.2784ZM63.0341 22.9943H65.5682C66.4091 22.9943 67.0113 22.8314 67.375 22.5057C67.7386 22.1799 67.9204 21.7727 67.9204 21.2841C67.9204 20.9167 67.8276 20.5795 67.642 20.2727C67.4564 19.9659 67.1913 19.7216 66.8466 19.5398C66.5057 19.3579 66.1004 19.267 65.6307 19.267H63.0341V22.9943ZM63.0341 17.8977H65.3863C65.7803 17.8977 66.1345 17.822 66.4488 17.6704C66.767 17.5189 67.0189 17.3068 67.2045 17.0341C67.3939 16.7576 67.4886 16.4318 67.4886 16.0568C67.4886 15.5758 67.3201 15.1723 66.9829 14.8466C66.6458 14.5208 66.1288 14.3579 65.4318 14.3579H63.0341V17.8977ZM77.1392 20.8807V15.7727H78.8437V24.5H77.1733V22.9886H77.0824C76.8816 23.4545 76.5596 23.8428 76.1165 24.1534C75.6771 24.4602 75.1297 24.6136 74.4744 24.6136C73.9138 24.6136 73.4176 24.4905 72.9858 24.2443C72.5577 23.9943 72.2206 23.625 71.9744 23.1364C71.732 22.6477 71.6108 22.0436 71.6108 21.3239V15.7727H73.3096V21.1193C73.3096 21.714 73.4744 22.1875 73.804 22.5398C74.1335 22.892 74.5615 23.0682 75.088 23.0682C75.4062 23.0682 75.7225 22.9886 76.0369 22.8295C76.3551 22.6704 76.6184 22.4299 76.8267 22.1079C77.0388 21.786 77.143 21.3769 77.1392 20.8807ZM81.1264 24.5V15.7727H82.8253V24.5H81.1264ZM81.9844 14.4261C81.6889 14.4261 81.4351 14.3276 81.223 14.1307C81.0147 13.9299 80.9105 13.6913 80.9105 13.4148C80.9105 13.1345 81.0147 12.8958 81.223 12.6989C81.4351 12.4981 81.6889 12.3977 81.9844 12.3977C82.2798 12.3977 82.5317 12.4981 82.74 12.6989C82.9522 12.8958 83.0582 13.1345 83.0582 13.4148C83.0582 13.6913 82.9522 13.9299 82.74 14.1307C82.5317 14.3276 82.2798 14.4261 81.9844 14.4261ZM86.8096 12.8636V24.5H85.1108V12.8636H86.8096ZM93.169 15.7727V17.1364H88.402V15.7727H93.169ZM89.6804 13.6818H91.3792V21.9375C91.3792 22.267 91.4285 22.5151 91.527 22.6818C91.6254 22.8447 91.7523 22.9564 91.9076 23.017C92.0667 23.0739 92.2391 23.1023 92.4247 23.1023C92.5611 23.1023 92.6804 23.0928 92.7826 23.0739C92.8849 23.0549 92.9645 23.0398 93.0213 23.0284L93.3281 24.4318C93.2296 24.4697 93.0895 24.5076 92.9076 24.5454C92.7258 24.5871 92.4986 24.6098 92.2258 24.6136C91.7789 24.6212 91.3622 24.5417 90.9758 24.375C90.5895 24.2083 90.277 23.9508 90.0383 23.6023C89.7997 23.2538 89.6804 22.8163 89.6804 22.2898V13.6818ZM101.175 24.5L98.6065 15.7727H100.362L102.072 22.1818H102.158L103.874 15.7727H105.629L107.334 22.1534H107.419L109.118 15.7727H110.874L108.311 24.5H106.578L104.805 18.1989H104.675L102.902 24.5H101.175ZM112.486 24.5V15.7727H114.185V24.5H112.486ZM113.344 14.4261C113.048 14.4261 112.794 14.3276 112.582 14.1307C112.374 13.9299 112.27 13.6913 112.27 13.4148C112.27 13.1345 112.374 12.8958 112.582 12.6989C112.794 12.4981 113.048 12.3977 113.344 12.3977C113.639 12.3977 113.891 12.4981 114.099 12.6989C114.312 12.8958 114.418 13.1345 114.418 13.4148C114.418 13.6913 114.312 13.9299 114.099 14.1307C113.891 14.3276 113.639 14.4261 113.344 14.4261ZM120.544 15.7727V17.1364H115.777V15.7727H120.544ZM117.055 13.6818H118.754V21.9375C118.754 22.267 118.803 22.5151 118.902 22.6818C119 22.8447 119.127 22.9564 119.283 23.017C119.442 23.0739 119.614 23.1023 119.8 23.1023C119.936 23.1023 120.055 23.0928 120.158 23.0739C120.26 23.0549 120.339 23.0398 120.396 23.0284L120.703 24.4318C120.605 24.4697 120.464 24.5076 120.283 24.5454C120.101 24.5871 119.874 24.6098 119.601 24.6136C119.154 24.6212 118.737 24.5417 118.351 24.375C117.964 24.2083 117.652 23.9508 117.413 23.6023C117.175 23.2538 117.055 22.8163 117.055 22.2898V13.6818ZM124.31 19.3182V24.5H122.611V12.8636H124.287V17.1932H124.395C124.599 16.7235 124.912 16.3504 125.332 16.0739C125.753 15.7973 126.302 15.6591 126.98 15.6591C127.579 15.6591 128.101 15.7822 128.548 16.0284C128.999 16.2746 129.348 16.642 129.594 17.1307C129.844 17.6155 129.969 18.2216 129.969 18.9489V24.5H128.27V19.1534C128.27 18.5133 128.105 18.017 127.776 17.6648C127.446 17.3087 126.988 17.1307 126.401 17.1307C125.999 17.1307 125.639 17.2159 125.321 17.3864C125.007 17.5568 124.758 17.8068 124.577 18.1364C124.399 18.4621 124.31 18.8561 124.31 19.3182Z" fill="#E8E8E8"/>
<path d="M60.9357 43.5V31.1364H69.5564V33.5632H63.924V36.0987H69.1157V38.5316H63.924V41.0731H69.5564V43.5H60.9357ZM78.1108 34.843C78.0705 34.4003 77.8914 34.0562 77.5735 33.8107C77.2596 33.5612 76.8108 33.4364 76.2273 33.4364C75.8409 33.4364 75.5189 33.4867 75.2613 33.5873C75.0038 33.688 74.8106 33.8268 74.6818 34.0039C74.553 34.177 74.4866 34.3762 74.4826 34.6016C74.4745 34.7867 74.5108 34.9497 74.5912 35.0905C74.6758 35.2314 74.7965 35.3562 74.9535 35.4648C75.1144 35.5695 75.3076 35.662 75.533 35.7425C75.7584 35.823 76.0119 35.8935 76.2937 35.9538L77.3562 36.1953C77.9679 36.3281 78.5072 36.5052 78.9741 36.7266C79.4449 36.9479 79.8393 37.2115 80.1573 37.5174C80.4793 37.8233 80.7228 38.1754 80.8878 38.5739C81.0528 38.9723 81.1373 39.419 81.1413 39.9141C81.1373 40.6948 80.9401 41.3649 80.5497 41.9243C80.1593 42.4838 79.5979 42.9124 78.8654 43.2102C78.1369 43.508 77.2576 43.6569 76.2273 43.6569C75.1929 43.6569 74.2914 43.502 73.5227 43.1921C72.754 42.8822 72.1563 42.4113 71.7297 41.7795C71.3031 41.1476 71.0838 40.3487 71.0717 39.3828H73.9332C73.9574 39.7812 74.064 40.1133 74.2532 40.3789C74.4423 40.6445 74.7019 40.8458 75.0319 40.9826C75.366 41.1194 75.7523 41.1878 76.191 41.1878C76.5935 41.1878 76.9356 41.1335 77.2173 41.0248C77.5031 40.9162 77.7224 40.7653 77.8753 40.5721C78.0283 40.3789 78.1068 40.1575 78.1108 39.908C78.1068 39.6746 78.0343 39.4754 77.8934 39.3104C77.7526 39.1413 77.5353 38.9964 77.2415 38.8757C76.9517 38.7509 76.5814 38.6362 76.1307 38.5316L74.8388 38.2297C73.7682 37.9842 72.9251 37.5878 72.3093 37.0405C71.6935 36.4891 71.3876 35.7445 71.3917 34.8068C71.3876 34.0421 71.5929 33.372 72.0074 32.7965C72.422 32.221 72.9955 31.7722 73.728 31.4503C74.4604 31.1283 75.2956 30.9673 76.2333 30.9673C77.1911 30.9673 78.0222 31.1303 78.7265 31.4563C79.4349 31.7783 79.9842 32.2311 80.3746 32.8146C80.765 33.3982 80.9642 34.0743 80.9723 34.843H78.1108ZM82.6505 43.5V31.1364H87.8061C88.7317 31.1364 89.5065 31.2672 90.1303 31.5288C90.7581 31.7904 91.229 32.1566 91.5429 32.6275C91.8609 33.0984 92.0199 33.6437 92.0199 34.2635C92.0199 34.7344 91.9213 35.1549 91.7241 35.5252C91.5268 35.8914 91.2552 36.1953 90.9091 36.4368C90.5629 36.6783 90.1625 36.8473 89.7077 36.9439V37.0646C90.2068 37.0888 90.6676 37.2236 91.0902 37.4691C91.5168 37.7146 91.8589 38.0567 92.1165 38.4954C92.374 38.93 92.5028 39.4452 92.5028 40.0408C92.5028 40.7049 92.3338 41.2985 91.9957 41.8217C91.6576 42.3409 91.1687 42.7514 90.5287 43.0533C89.8888 43.3511 89.1121 43.5 88.1985 43.5H82.6505ZM85.6388 41.0913H87.4861C88.1341 41.0913 88.611 40.9685 88.9169 40.723C89.2268 40.4775 89.3817 40.1354 89.3817 39.6967C89.3817 39.3788 89.3073 39.1051 89.1584 38.8757C89.0094 38.6423 88.7982 38.4632 88.5245 38.3384C88.2508 38.2096 87.9228 38.1452 87.5405 38.1452H85.6388V41.0913ZM85.6388 36.2195H87.2929C87.6189 36.2195 87.9087 36.1651 88.1623 36.0565C88.4158 35.9478 88.613 35.7908 88.7539 35.5856C88.8988 35.3803 88.9712 35.1328 88.9712 34.843C88.9712 34.4285 88.8243 34.1025 88.5305 33.865C88.2367 33.6276 87.8403 33.5089 87.3412 33.5089H85.6388V36.2195ZM99.9222 39.4975V34.2273H102.868V43.5H100.055V41.7734H99.9584C99.7532 42.3409 99.403 42.7917 98.908 43.1257C98.417 43.4557 97.8234 43.6207 97.1271 43.6207C96.4952 43.6207 95.9398 43.4758 95.4609 43.1861C94.982 42.8963 94.6097 42.4918 94.3441 41.9726C94.0785 41.4494 93.9436 40.8377 93.9396 40.1374V34.2273H96.8917V39.5579C96.8957 40.061 97.0285 40.4574 97.2901 40.7471C97.5517 41.0369 97.9079 41.1818 98.3586 41.1818C98.6524 41.1818 98.916 41.1174 99.1495 40.9886C99.3869 40.8558 99.5741 40.6646 99.7109 40.4151C99.8518 40.1616 99.9222 39.8557 99.9222 39.4975ZM104.747 43.5V34.2273H107.699V43.5H104.747ZM106.226 33.1467C105.812 33.1467 105.456 33.0098 105.158 32.7361C104.86 32.4584 104.711 32.1244 104.711 31.734C104.711 31.3476 104.86 31.0176 105.158 30.744C105.456 30.4663 105.812 30.3274 106.226 30.3274C106.645 30.3274 107.001 30.4663 107.295 30.744C107.593 31.0176 107.742 31.3476 107.742 31.734C107.742 32.1244 107.593 32.4584 107.295 32.7361C107.001 33.0098 106.645 33.1467 106.226 33.1467ZM112.53 31.1364V43.5H109.578V31.1364H112.53ZM117.796 43.6328C117.112 43.6328 116.49 43.4557 115.931 43.1016C115.371 42.7474 114.924 42.2161 114.59 41.5078C114.256 40.7995 114.089 39.9201 114.089 38.8697C114.089 37.779 114.262 36.8815 114.609 36.1772C114.955 35.4729 115.407 34.9517 115.967 34.6136C116.53 34.2756 117.136 34.1065 117.784 34.1065C118.271 34.1065 118.687 34.191 119.034 34.3601C119.38 34.5251 119.665 34.7384 119.891 35C120.116 35.2616 120.287 35.5333 120.404 35.815H120.464V31.1364H123.416V43.5H120.495V41.9968H120.404C120.279 42.2825 120.102 42.5502 119.873 42.7997C119.643 43.0492 119.356 43.2505 119.009 43.4034C118.667 43.5563 118.263 43.6328 117.796 43.6328ZM118.822 41.3327C119.181 41.3327 119.486 41.2321 119.74 41.0309C119.993 40.8256 120.189 40.5379 120.326 40.1676C120.462 39.7973 120.531 39.3627 120.531 38.8636C120.531 38.3565 120.462 37.9199 120.326 37.5536C120.193 37.1874 119.998 36.9056 119.74 36.7084C119.486 36.5112 119.181 36.4126 118.822 36.4126C118.456 36.4126 118.146 36.5132 117.893 36.7145C117.639 36.9157 117.446 37.1994 117.313 37.5657C117.184 37.9319 117.12 38.3646 117.12 38.8636C117.12 39.3627 117.186 39.7973 117.319 40.1676C117.452 40.5379 117.643 40.8256 117.893 41.0309C118.146 41.2321 118.456 41.3327 118.822 41.3327Z" fill="#FFCF00"/>
</g>
<defs>
<filter id="filter0_d_1_50" x="6.28571" y="2.28571" width="51.4286" height="51.4286" filterUnits="userSpaceOnUse" color-interpolation-filters="sRGB">
<feFlood flood-opacity="0" result="BackgroundImageFix"/>
<feColorMatrix in="SourceAlpha" type="matrix" values="0 0 0 0 0 0 0 0 0 0 0 0 0 0 0 0 0 0 127 0" result="hardAlpha"/>
<feOffset/>
<feGaussianBlur stdDeviation="2.85714"/>
<feComposite in2="hardAlpha" operator="out"/>
<feColorMatrix type="matrix" values="0 0 0 0 0 0 0 0 0 0 0 0 0 0 0 0 0 0 0.25 0"/>
<feBlend mode="normal" in2="BackgroundImageFix" result="effect1_dropShadow_1_50"/>
<feBlend mode="normal" in="SourceGraphic" in2="effect1_dropShadow_1_50" result="shape"/>
</filter>
<filter id="filter1_d_1_50" x="54.4" y="3.9" width="83.2" height="48.2" filterUnits="userSpaceOnUse" color-interpolation-filters="sRGB">
<feFlood flood-opacity="0" result="BackgroundImageFix"/>
<feColorMatrix in="SourceAlpha" type="matrix" values="0 0 0 0 0 0 0 0 0 0 0 0 0 0 0 0 0 0 127 0" result="hardAlpha"/>
<feOffset/>
<feGaussianBlur stdDeviation="2.8"/>
<feComposite in2="hardAlpha" operator="out"/>
<feColorMatrix type="matrix" values="0 0 0 0 0 0 0 0 0 0 0 0 0 0 0 0 0 0 0.25 0"/>
<feBlend mode="normal" in2="BackgroundImageFix" result="effect1_dropShadow_1_50"/>
<feBlend mode="normal" in="SourceGraphic" in2="effect1_dropShadow_1_50" result="shape"/>
</filter>
<linearGradient id="paint0_linear_1_50" x1="72" y1="0" x2="72" y2="56" gradientUnits="userSpaceOnUse">
<stop stop-color="#806800"/>
<stop offset="1" stop-color="#594800"/>
</linearGradient>
</defs>
</svg>
