<svg width="209" height="40" viewBox="0 0 209 40" fill="none" xmlns="http://www.w3.org/2000/svg">
<g clip-path="url(#clip0_1_56)">
<rect width="209.001" height="40.0014" rx="8" fill="url(#paint0_linear_1_56)"/>
<g filter="url(#filter0_d_1_56)">
<g clip-path="url(#clip1_1_56)">
<path d="M29 13.875C16.4 16.675 13.46 25.313 10.548 32.551L13.194 33.475L14.524 30.255C15.196 30.493 15.896 30.675 16.4 30.675C31.8 30.675 36 6.875 36 6.875C34.6 9.675 24.8 10.025 17.8 11.425C10.8 12.825 8 18.775 8 21.575C8 24.375 10.45 26.825 10.45 26.825C15 13.875 29 13.875 29 13.875Z" fill="white"/>
</g>
<g opacity="0.7">
<mask id="path-4-outside-1_1_56" maskUnits="userSpaceOnUse" x="16.9789" y="14.979" width="21" height="21" fill="black">
<rect fill="white" x="16.9789" y="14.979" width="21" height="21"/>
<path fill-rule="evenodd" clip-rule="evenodd" d="M21.9961 18.1882C21.7172 17.9092 21.265 17.9092 20.9861 18.1882L20.1886 18.9859C19.9097 19.2649 19.9097 19.7172 20.1886 19.9962L26.011 25.8201L20.1882 31.6419C19.9092 31.9209 19.9092 32.3731 20.1882 32.652L20.9858 33.4495C21.2648 33.7285 21.7171 33.7285 21.9961 33.4495L27.8185 27.6281L33.6387 33.4498C33.9176 33.7288 34.3698 33.7288 34.6487 33.4498L35.4462 32.6521C35.7251 32.3731 35.7251 31.9208 35.4462 31.6418L29.6264 25.8205L35.4491 19.9988C35.7281 19.7199 35.7281 19.2677 35.4491 18.9887L34.6514 18.1912C34.3724 17.9123 33.9201 17.9123 33.6412 18.1912L27.8189 24.0125L21.9961 18.1882Z"/>
</mask>
<path fill-rule="evenodd" clip-rule="evenodd" d="M21.9961 18.1882C21.7172 17.9092 21.265 17.9092 20.9861 18.1882L20.1886 18.9859C19.9097 19.2649 19.9097 19.7172 20.1886 19.9962L26.011 25.8201L20.1882 31.6419C19.9092 31.9209 19.9092 32.3731 20.1882 32.652L20.9858 33.4495C21.2648 33.7285 21.7171 33.7285 21.9961 33.4495L27.8185 27.6281L33.6387 33.4498C33.9176 33.7288 34.3698 33.7288 34.6487 33.4498L35.4462 32.6521C35.7251 32.3731 35.7251 31.9208 35.4462 31.6418L29.6264 25.8205L35.4491 19.9988C35.7281 19.7199 35.7281 19.2677 35.4491 18.9887L34.6514 18.1912C34.3724 17.9123 33.9201 17.9123 33.6412 18.1912L27.8189 24.0125L21.9961 18.1882Z" fill="url(#paint1_linear_1_56)"/>
<path d="M20.9861 18.1882L19.4706 16.6732L19.4706 16.6732L20.9861 18.1882ZM21.9961 18.1882L23.5115 16.6732L23.5115 16.6732L21.9961 18.1882ZM20.1886 18.9859L18.6731 17.4709L20.1886 18.9859ZM20.1886 19.9962L18.6731 21.5112L18.6731 21.5112L20.1886 19.9962ZM26.011 25.8201L27.5261 27.3355L29.0414 25.8204L27.5264 24.3051L26.011 25.8201ZM20.1882 31.6419L21.7033 33.1573L21.7033 33.1573L20.1882 31.6419ZM20.1882 32.652L21.7033 31.1367L21.7033 31.1367L20.1882 32.652ZM20.9858 33.4495L19.4707 34.9649L19.4707 34.9649L20.9858 33.4495ZM21.9961 33.4495L23.5112 34.9649L23.5112 34.9649L21.9961 33.4495ZM27.8185 27.6281L29.3339 26.1131L27.8188 24.5976L26.3034 26.1128L27.8185 27.6281ZM33.6387 33.4498L32.1232 34.9649L32.1232 34.9649L33.6387 33.4498ZM34.6487 33.4498L33.1333 31.9348L33.1333 31.9348L34.6487 33.4498ZM35.4462 32.6521L33.9308 31.1371L33.9308 31.1371L35.4462 32.6521ZM35.4462 31.6418L36.9616 30.1268L36.9616 30.1268L35.4462 31.6418ZM29.6264 25.8205L28.1113 24.3052L26.596 25.8202L28.111 27.3355L29.6264 25.8205ZM35.4491 19.9988L33.934 18.4835L33.934 18.4835L35.4491 19.9988ZM35.4491 18.9887L33.934 20.5041L33.934 20.5041L35.4491 18.9887ZM34.6514 18.1912L36.1665 16.6759L36.1665 16.6759L34.6514 18.1912ZM33.6412 18.1912L35.1563 19.7066L35.1563 19.7066L33.6412 18.1912ZM27.8189 24.0125L26.3035 25.5275L27.8186 27.043L29.334 25.5279L27.8189 24.0125ZM22.5015 19.7032C21.9435 20.2613 21.0386 20.2613 20.4807 19.7032L23.5115 16.6732C22.3957 15.5571 20.5864 15.5571 19.4706 16.6732L22.5015 19.7032ZM21.704 20.5009L22.5015 19.7032L19.4706 16.6732L18.6731 17.4709L21.704 20.5009ZM21.704 18.4812C22.2617 19.039 22.2617 19.9431 21.704 20.5009L18.6731 17.4709C17.5577 18.5866 17.5577 20.3954 18.6731 21.5112L21.704 18.4812ZM27.5264 24.3051L21.704 18.4812L18.6731 21.5112L24.4955 27.3351L27.5264 24.3051ZM21.7033 33.1573L27.5261 27.3355L24.4959 24.3048L18.6731 30.1266L21.7033 33.1573ZM21.7033 31.1367C22.2613 31.6946 22.2613 32.5994 21.7033 33.1573L18.6731 30.1266C17.5571 31.2424 17.5571 33.0516 18.6731 34.1674L21.7033 31.1367ZM22.5009 31.9342L21.7033 31.1367L18.6731 34.1674L19.4707 34.9649L22.5009 31.9342ZM20.481 31.9342C21.0388 31.3764 21.9431 31.3764 22.5009 31.9342L19.4707 34.9649C20.5865 36.0805 22.3954 36.0805 23.5112 34.9649L20.481 31.9342ZM26.3034 26.1128L20.481 31.9342L23.5112 34.9649L29.3336 29.1435L26.3034 26.1128ZM35.1541 31.9348L29.3339 26.1131L26.3031 29.1431L32.1232 34.9649L35.1541 31.9348ZM33.1333 31.9348C33.6912 31.3767 34.5961 31.3767 35.1541 31.9348L32.1232 34.9649C33.239 36.0809 35.0483 36.0809 36.1641 34.9648L33.1333 31.9348ZM33.9308 31.1371L33.1333 31.9348L36.1641 34.9649L36.9616 34.1671L33.9308 31.1371ZM33.9308 33.1569C33.3731 32.599 33.3731 31.6949 33.9308 31.1371L36.9616 34.1671C38.0771 33.0514 38.0771 31.2426 36.9616 30.1268L33.9308 33.1569ZM28.111 27.3355L33.9308 33.1569L36.9616 30.1268L31.1418 24.3055L28.111 27.3355ZM33.934 18.4835L28.1113 24.3052L31.1415 27.3359L36.9642 21.5142L33.934 18.4835ZM33.934 20.5041C33.3759 19.9462 33.3759 19.0414 33.934 18.4835L36.9642 21.5142C38.0802 20.3984 38.0802 18.5892 36.9642 17.4734L33.934 20.5041ZM33.1363 19.7066L33.934 20.5041L36.9642 17.4734L36.1665 16.6759L33.1363 19.7066ZM35.1563 19.7066C34.5984 20.2643 33.6941 20.2643 33.1363 19.7066L36.1665 16.6759C35.0507 15.5603 33.2419 15.5603 32.1261 16.6759L35.1563 19.7066ZM29.334 25.5279L35.1563 19.7066L32.1261 16.6759L26.3038 22.4972L29.334 25.5279ZM20.4807 19.7032L26.3035 25.5275L29.3343 22.4975L23.5115 16.6732L20.4807 19.7032Z" fill="black" mask="url(#path-4-outside-1_1_56)"/>
</g>
</g>
<g filter="url(#filter1_d_1_56)">
<path d="M45.7805 26.5007L42.3515 14.1371H44.3135L46.7223 23.7116H46.837L49.3423 14.1371H51.2862L53.7915 23.7177H53.9062L56.3089 14.1371H58.277L54.8419 26.5007H52.9645L50.3625 17.24H50.266L47.664 26.5007H45.7805ZM62.8258 26.6878C61.9565 26.6878 61.1978 26.4886 60.5499 26.0902C59.9019 25.6917 59.3988 25.1343 59.0406 24.418C58.6824 23.7016 58.5033 22.8645 58.5033 21.9066C58.5033 20.9447 58.6824 20.1036 59.0406 19.3832C59.3988 18.6627 59.9019 18.1033 60.5499 17.7049C61.1978 17.3065 61.9565 17.1072 62.8258 17.1072C63.6951 17.1072 64.4537 17.3065 65.1017 17.7049C65.7497 18.1033 66.2528 18.6627 66.6109 19.3832C66.9691 20.1036 67.1482 20.9447 67.1482 21.9066C67.1482 22.8645 66.9691 23.7016 66.6109 24.418C66.2528 25.1343 65.7497 25.6917 65.1017 26.0902C64.4537 26.4886 63.6951 26.6878 62.8258 26.6878ZM62.8318 25.1726C63.3953 25.1726 63.8621 25.0237 64.2324 24.7258C64.6027 24.428 64.8763 24.0316 65.0534 23.5366C65.2345 23.0415 65.3251 22.4962 65.3251 21.9006C65.3251 21.3089 65.2345 20.7656 65.0534 20.2706C64.8763 19.7715 64.6027 19.3711 64.2324 19.0692C63.8621 18.7674 63.3953 18.6165 62.8318 18.6165C62.2644 18.6165 61.7935 18.7674 61.4192 19.0692C61.0489 19.3711 60.7732 19.7715 60.5921 20.2706C60.415 20.7656 60.3265 21.3089 60.3265 21.9006C60.3265 22.4962 60.415 23.0415 60.5921 23.5366C60.7732 24.0316 61.0489 24.428 61.4192 24.7258C61.7935 25.0237 62.2644 25.1726 62.8318 25.1726ZM70.9681 20.995V26.5007H69.1631V17.228H70.8957V18.7372H71.0104C71.2237 18.2462 71.5577 17.8518 72.0125 17.554C72.4713 17.2561 73.0488 17.1072 73.7451 17.1072C74.3769 17.1072 74.9303 17.24 75.4052 17.5057C75.8801 17.7673 76.2484 18.1577 76.51 18.6768C76.7716 19.196 76.9024 19.8379 76.9024 20.6026V26.5007H75.0974V20.8199C75.0974 20.1478 74.9223 19.6226 74.5721 19.2443C74.222 18.862 73.7411 18.6708 73.1293 18.6708C72.7108 18.6708 72.3385 18.7614 72.0125 18.9425C71.6905 19.1236 71.435 19.3892 71.2458 19.7393C71.0607 20.0855 70.9681 20.504 70.9681 20.995ZM80.8747 14.1371V15.2962C80.8747 15.6382 80.8103 15.9985 80.6815 16.3768C80.5568 16.7511 80.3797 17.1113 80.1503 17.4574C79.9209 17.8035 79.6512 18.1013 79.3413 18.3508L78.4479 17.7109C78.6853 17.3648 78.8906 16.9966 79.0636 16.6062C79.2407 16.2158 79.3292 15.7851 79.3292 15.3143V14.1371H80.8747ZM87.304 17.228V18.6768H82.239V17.228H87.304ZM83.5974 15.0064H85.4024V23.778C85.4024 24.1282 85.4547 24.3918 85.5594 24.5689C85.664 24.7419 85.7988 24.8607 85.9638 24.9251C86.1329 24.9854 86.316 25.0156 86.5132 25.0156C86.6581 25.0156 86.7849 25.0056 86.8935 24.9854C87.0022 24.9653 87.0867 24.9492 87.1471 24.9371L87.4731 26.4283C87.3684 26.4685 87.2195 26.5087 87.0263 26.549C86.8331 26.5933 86.5917 26.6174 86.3019 26.6214C85.827 26.6295 85.3843 26.545 84.9738 26.3679C84.5633 26.1908 84.2312 25.9171 83.9777 25.5469C83.7241 25.1766 83.5974 24.7118 83.5974 24.1523V15.0064ZM100.748 19.4918L99.1123 19.7816C99.0438 19.5723 98.9352 19.3731 98.7863 19.1839C98.6414 18.9948 98.4442 18.8398 98.1947 18.7191C97.9451 18.5984 97.6332 18.538 97.2589 18.538C96.7478 18.538 96.3212 18.6527 95.9791 18.8821C95.637 19.1075 95.466 19.3993 95.466 19.7574C95.466 20.0673 95.5807 20.3169 95.8101 20.506C96.0395 20.6952 96.4097 20.8501 96.9209 20.9709L98.3939 21.3089C99.2471 21.5061 99.883 21.81 100.302 22.2205C100.72 22.631 100.929 23.1643 100.929 23.8203C100.929 24.3757 100.768 24.8707 100.446 25.3054C100.128 25.736 99.6838 26.0741 99.1123 26.3196C98.5448 26.5651 97.8868 26.6878 97.1382 26.6878C96.0998 26.6878 95.2527 26.4665 94.5966 26.0238C93.9406 25.577 93.5382 24.9432 93.3893 24.1221L95.1339 23.8565C95.2426 24.3113 95.466 24.6554 95.804 24.8888C96.1421 25.1182 96.5828 25.2329 97.1261 25.2329C97.7177 25.2329 98.1906 25.1102 98.5448 24.8647C98.899 24.6152 99.076 24.3113 99.076 23.9531C99.076 23.6633 98.9674 23.4199 98.75 23.2226C98.5367 23.0254 98.2087 22.8765 97.766 22.7759L96.1964 22.4318C95.3311 22.2346 94.6912 21.9207 94.2767 21.49C93.8662 21.0594 93.6609 20.5141 93.6609 19.854C93.6609 19.3067 93.8139 18.8278 94.1197 18.4172C94.4256 18.0067 94.8482 17.6868 95.3875 17.4574C95.9268 17.2239 96.5446 17.1072 97.2408 17.1072C98.2429 17.1072 99.0318 17.3246 99.6073 17.7592C100.183 18.1899 100.563 18.7674 100.748 19.4918ZM108.788 22.6552V17.228H110.599V26.5007H108.824V24.8949H108.728C108.514 25.3899 108.172 25.8024 107.701 26.1324C107.234 26.4584 106.653 26.6214 105.957 26.6214C105.361 26.6214 104.834 26.4906 104.375 26.229C103.92 25.9634 103.562 25.571 103.3 25.0518C103.043 24.5327 102.914 23.8907 102.914 23.1261V17.228H104.719V22.9087C104.719 23.5406 104.894 24.0437 105.244 24.418C105.594 24.7922 106.049 24.9794 106.609 24.9794C106.947 24.9794 107.283 24.8949 107.617 24.7258C107.955 24.5568 108.235 24.3012 108.456 23.9591C108.681 23.6171 108.792 23.1824 108.788 22.6552ZM113.024 29.978V17.228H114.787V18.7312H114.938C115.043 18.538 115.194 18.3146 115.391 18.0611C115.588 17.8075 115.862 17.5862 116.212 17.397C116.562 17.2038 117.025 17.1072 117.6 17.1072C118.349 17.1072 119.017 17.2964 119.605 17.6747C120.192 18.053 120.653 18.5984 120.987 19.3107C121.325 20.0231 121.494 20.8803 121.494 21.8824C121.494 22.8846 121.327 23.7438 120.993 24.4602C120.659 25.1726 120.2 25.7219 119.617 26.1083C119.033 26.4906 118.367 26.6818 117.618 26.6818C117.055 26.6818 116.594 26.5872 116.236 26.3981C115.882 26.2089 115.604 25.9876 115.403 25.734C115.202 25.4805 115.047 25.2551 114.938 25.0579H114.829V29.978H113.024ZM114.793 21.8643C114.793 22.5163 114.888 23.0878 115.077 23.5788C115.266 24.0698 115.54 24.4542 115.898 24.7319C116.256 25.0056 116.695 25.1424 117.214 25.1424C117.753 25.1424 118.204 24.9995 118.566 24.7138C118.928 24.424 119.202 24.0316 119.387 23.5366C119.576 23.0415 119.671 22.4841 119.671 21.8643C119.671 21.2526 119.578 20.7032 119.393 20.2163C119.212 19.7293 118.939 19.3449 118.572 19.0632C118.21 18.7815 117.757 18.6406 117.214 18.6406C116.691 18.6406 116.248 18.7754 115.886 19.0451C115.528 19.3147 115.256 19.691 115.071 20.174C114.886 20.6569 114.793 21.2204 114.793 21.8643ZM123.517 29.978V17.228H125.279V18.7312H125.43C125.535 18.538 125.686 18.3146 125.883 18.0611C126.08 17.8075 126.354 17.5862 126.704 17.397C127.054 17.2038 127.517 17.1072 128.093 17.1072C128.841 17.1072 129.509 17.2964 130.097 17.6747C130.684 18.053 131.145 18.5984 131.479 19.3107C131.817 20.0231 131.986 20.8803 131.986 21.8824C131.986 22.8846 131.819 23.7438 131.485 24.4602C131.151 25.1726 130.692 25.7219 130.109 26.1083C129.525 26.4906 128.859 26.6818 128.111 26.6818C127.547 26.6818 127.086 26.5872 126.728 26.3981C126.374 26.2089 126.096 25.9876 125.895 25.734C125.694 25.4805 125.539 25.2551 125.43 25.0579H125.322V29.978H123.517ZM125.285 21.8643C125.285 22.5163 125.38 23.0878 125.569 23.5788C125.758 24.0698 126.032 24.4542 126.39 24.7319C126.748 25.0056 127.187 25.1424 127.706 25.1424C128.245 25.1424 128.696 24.9995 129.058 24.7138C129.421 24.424 129.694 24.0316 129.879 23.5366C130.069 23.0415 130.163 22.4841 130.163 21.8643C130.163 21.2526 130.071 20.7032 129.886 20.2163C129.704 19.7293 129.431 19.3449 129.064 19.0632C128.702 18.7815 128.25 18.6406 127.706 18.6406C127.183 18.6406 126.74 18.7754 126.378 19.0451C126.02 19.3147 125.748 19.691 125.563 20.174C125.378 20.6569 125.285 21.2204 125.285 21.8643ZM137.915 26.6878C137.045 26.6878 136.287 26.4886 135.639 26.0902C134.991 25.6917 134.488 25.1343 134.129 24.418C133.771 23.7016 133.592 22.8645 133.592 21.9066C133.592 20.9447 133.771 20.1036 134.129 19.3832C134.488 18.6627 134.991 18.1033 135.639 17.7049C136.287 17.3065 137.045 17.1072 137.915 17.1072C138.784 17.1072 139.543 17.3065 140.191 17.7049C140.839 18.1033 141.342 18.6627 141.7 19.3832C142.058 20.1036 142.237 20.9447 142.237 21.9066C142.237 22.8645 142.058 23.7016 141.7 24.418C141.342 25.1343 140.839 25.6917 140.191 26.0902C139.543 26.4886 138.784 26.6878 137.915 26.6878ZM137.921 25.1726C138.484 25.1726 138.951 25.0237 139.321 24.7258C139.692 24.428 139.965 24.0316 140.142 23.5366C140.323 23.0415 140.414 22.4962 140.414 21.9006C140.414 21.3089 140.323 20.7656 140.142 20.2706C139.965 19.7715 139.692 19.3711 139.321 19.0692C138.951 18.7674 138.484 18.6165 137.921 18.6165C137.353 18.6165 136.882 18.7674 136.508 19.0692C136.138 19.3711 135.862 19.7715 135.681 20.2706C135.504 20.7656 135.415 21.3089 135.415 21.9006C135.415 22.4962 135.504 23.0415 135.681 23.5366C135.862 24.0316 136.138 24.428 136.508 24.7258C136.882 25.0237 137.353 25.1726 137.921 25.1726ZM144.252 26.5007V17.228H145.997V18.701H146.093C146.262 18.2019 146.56 17.8095 146.987 17.5238C147.417 17.234 147.904 17.0891 148.448 17.0891C148.56 17.0891 148.693 17.0931 148.846 17.1012C149.003 17.1092 149.126 17.1193 149.214 17.1314V18.8579C149.142 18.8378 149.013 18.8157 148.828 18.7915C148.643 18.7634 148.458 18.7493 148.272 18.7493C147.846 18.7493 147.466 18.8398 147.132 19.0209C146.801 19.198 146.54 19.4455 146.347 19.7635C146.154 20.0774 146.057 20.4356 146.057 20.8381V26.5007H144.252ZM155.653 17.228V18.6768H150.588V17.228H155.653ZM151.946 15.0064H153.751V23.778C153.751 24.1282 153.803 24.3918 153.908 24.5689C154.013 24.7419 154.147 24.8607 154.312 24.9251C154.481 24.9854 154.665 25.0156 154.862 25.0156C155.007 25.0156 155.133 25.0056 155.242 24.9854C155.351 24.9653 155.435 24.9492 155.496 24.9371L155.822 26.4283C155.717 26.4685 155.568 26.5087 155.375 26.549C155.182 26.5933 154.94 26.6174 154.651 26.6214C154.176 26.6295 153.733 26.545 153.322 26.3679C152.912 26.1908 152.58 25.9171 152.326 25.5469C152.073 25.1766 151.946 24.7118 151.946 24.1523V15.0064Z" fill="#E8E8E8"/>
<path d="M161.937 26.0007V13.6371H170.377V16.0639H164.925V18.5994H169.839V21.0323H164.925V26.0007H161.937ZM175.529 26.1758C174.555 26.1758 173.718 25.9765 173.018 25.5781C172.322 25.1757 171.784 24.6162 171.406 23.8998C171.032 23.1794 170.845 22.3443 170.845 21.3945C170.845 20.4407 171.032 19.6056 171.406 18.8892C171.784 18.1688 172.322 17.6094 173.018 17.2109C173.718 16.8085 174.555 16.6072 175.529 16.6072C176.503 16.6072 177.338 16.8085 178.035 17.2109C178.735 17.6094 179.272 18.1688 179.646 18.8892C180.025 19.6056 180.214 20.4407 180.214 21.3945C180.214 22.3443 180.025 23.1794 179.646 23.8998C179.272 24.6162 178.735 25.1757 178.035 25.5781C177.338 25.9765 176.503 26.1758 175.529 26.1758ZM175.547 23.9481C175.902 23.9481 176.201 23.8395 176.447 23.6221C176.692 23.4048 176.879 23.103 177.008 22.7166C177.141 22.3302 177.207 21.8835 177.207 21.3764C177.207 20.8613 177.141 20.4105 177.008 20.0241C176.879 19.6378 176.692 19.3359 176.447 19.1186C176.201 18.9013 175.902 18.7926 175.547 18.7926C175.181 18.7926 174.871 18.9013 174.618 19.1186C174.368 19.3359 174.177 19.6378 174.044 20.0241C173.915 20.4105 173.851 20.8613 173.851 21.3764C173.851 21.8835 173.915 22.3302 174.044 22.7166C174.177 23.103 174.368 23.4048 174.618 23.6221C174.871 23.8395 175.181 23.9481 175.547 23.9481ZM184.678 13.6371V26.0007H181.726V13.6371H184.678ZM186.557 26.0007V16.728H189.509V26.0007H186.557ZM188.036 15.6474C187.622 15.6474 187.266 15.5105 186.968 15.2369C186.67 14.9592 186.521 14.6251 186.521 14.2347C186.521 13.8484 186.67 13.5183 186.968 13.2447C187.266 12.967 187.622 12.8281 188.036 12.8281C188.455 12.8281 188.811 12.967 189.105 13.2447C189.403 13.5183 189.552 13.8484 189.552 14.2347C189.552 14.6251 189.403 14.9592 189.105 15.2369C188.811 15.5105 188.455 15.6474 188.036 15.6474ZM194.002 26.1577C193.411 26.1577 192.885 26.0591 192.427 25.8618C191.972 25.6606 191.612 25.3588 191.346 24.9563C191.084 24.5498 190.954 24.0407 190.954 23.429C190.954 22.9138 191.044 22.4792 191.225 22.125C191.406 21.7708 191.656 21.4831 191.974 21.2617C192.292 21.0404 192.658 20.8733 193.073 20.7606C193.487 20.6439 193.93 20.5654 194.401 20.5252C194.928 20.4769 195.352 20.4266 195.674 20.3743C195.996 20.3179 196.23 20.2395 196.375 20.1388C196.524 20.0342 196.598 19.8873 196.598 19.6981V19.668C196.598 19.3581 196.491 19.1186 196.278 18.9496C196.065 18.7805 195.777 18.696 195.415 18.696C195.024 18.696 194.711 18.7805 194.473 18.9496C194.236 19.1186 194.085 19.352 194.02 19.6498L191.298 19.5533C191.378 18.9898 191.585 18.4867 191.919 18.044C192.258 17.5973 192.72 17.2471 193.308 16.9936C193.9 16.736 194.61 16.6072 195.439 16.6072C196.031 16.6072 196.576 16.6777 197.075 16.8185C197.574 16.9554 198.009 17.1566 198.379 17.4222C198.749 17.6838 199.035 18.0058 199.236 18.3881C199.442 18.7705 199.544 19.2071 199.544 19.6981V26.0007H196.767V24.7088H196.695C196.53 25.0227 196.318 25.2883 196.061 25.5057C195.807 25.723 195.507 25.886 195.161 25.9947C194.819 26.1033 194.433 26.1577 194.002 26.1577ZM194.914 24.2258C195.232 24.2258 195.518 24.1614 195.771 24.0327C196.029 23.9039 196.234 23.7268 196.387 23.5014C196.54 23.272 196.616 23.0064 196.616 22.7045V21.8231C196.532 21.8674 196.429 21.9077 196.308 21.9439C196.192 21.9801 196.063 22.0143 195.922 22.0465C195.781 22.0787 195.636 22.1069 195.487 22.131C195.338 22.1552 195.196 22.1773 195.059 22.1974C194.781 22.2417 194.544 22.3101 194.346 22.4027C194.153 22.4953 194.004 22.616 193.9 22.7649C193.799 22.9098 193.749 23.0828 193.749 23.2841C193.749 23.59 193.857 23.8234 194.075 23.9844C194.296 24.1453 194.576 24.2258 194.914 24.2258Z" fill="url(#paint2_linear_1_56)"/>
</g>
</g>
<rect x="1.07143" y="1.07143" width="206.858" height="37.8585" rx="6.92857" stroke="white" stroke-opacity="0.15" stroke-width="2.14286"/>
<defs>
<filter id="filter0_d_1_56" x="2.39972" y="0.39972" width="41.0017" height="41.0025" filterUnits="userSpaceOnUse" color-interpolation-filters="sRGB">
<feFlood flood-opacity="0" result="BackgroundImageFix"/>
<feColorMatrix in="SourceAlpha" type="matrix" values="0 0 0 0 0 0 0 0 0 0 0 0 0 0 0 0 0 0 127 0" result="hardAlpha"/>
<feOffset/>
<feGaussianBlur stdDeviation="2.80014"/>
<feComposite in2="hardAlpha" operator="out"/>
<feColorMatrix type="matrix" values="0 0 0 0 0 0 0 0 0 0 0 0 0 0 0 0 0 0 0.25 0"/>
<feBlend mode="normal" in2="BackgroundImageFix" result="effect1_dropShadow_1_56"/>
<feBlend mode="normal" in="SourceGraphic" in2="effect1_dropShadow_1_56" result="shape"/>
</filter>
<filter id="filter1_d_1_56" x="36.2871" y="3.78642" width="170.429" height="32.4286" filterUnits="userSpaceOnUse" color-interpolation-filters="sRGB">
<feFlood flood-opacity="0" result="BackgroundImageFix"/>
<feColorMatrix in="SourceAlpha" type="matrix" values="0 0 0 0 0 0 0 0 0 0 0 0 0 0 0 0 0 0 127 0" result="hardAlpha"/>
<feOffset/>
<feGaussianBlur stdDeviation="2.85714"/>
<feComposite in2="hardAlpha" operator="out"/>
<feColorMatrix type="matrix" values="0 0 0 0 0 0 0 0 0 0 0 0 0 0 0 0 0 0 0.25 0"/>
<feBlend mode="normal" in2="BackgroundImageFix" result="effect1_dropShadow_1_56"/>
<feBlend mode="normal" in="SourceGraphic" in2="effect1_dropShadow_1_56" result="shape"/>
</filter>
<linearGradient id="paint0_linear_1_56" x1="104.501" y1="0" x2="104.501" y2="40.0014" gradientUnits="userSpaceOnUse">
<stop stop-color="#2C1B1B"/>
<stop offset="1" stop-color="#1F1414"/>
</linearGradient>
<linearGradient id="paint1_linear_1_56" x1="27.8186" y1="17.979" x2="27.8186" y2="33.6591" gradientUnits="userSpaceOnUse">
<stop stop-color="#FF0000"/>
<stop offset="1" stop-color="#CC0000"/>
</linearGradient>
<linearGradient id="paint2_linear_1_56" x1="161.5" y1="20" x2="199.5" y2="20" gradientUnits="userSpaceOnUse">
<stop stop-color="#FF27F5"/>
<stop offset="0.142857" stop-color="#C33CC6"/>
<stop offset="0.285714" stop-color="#FF67B0"/>
<stop offset="0.428571" stop-color="#FF498A"/>
<stop offset="0.609375" stop-color="#FF8181"/>
<stop offset="0.666667" stop-color="#6BFFEC"/>
<stop offset="0.857143" stop-color="#17CFA3"/>
<stop offset="1" stop-color="#7AFF68"/>
</linearGradient>
<clipPath id="clip0_1_56">
<rect width="209.001" height="40.0014" rx="8" fill="white"/>
</clipPath>
<clipPath id="clip1_1_56">
<rect width="28" height="28" fill="white" transform="translate(8 6)"/>
</clipPath>
</defs>
</svg>
