<svg width="177" height="40" viewBox="0 0 177 40" fill="none" xmlns="http://www.w3.org/2000/svg">
<rect width="177.001" height="40.0014" rx="8" fill="url(#paint0_linear_1_56)"/>
<rect x="1.07143" y="1.07143" width="174.859" height="37.8585" rx="6.92857" stroke="white" stroke-opacity="0.15" stroke-width="2.14286"/>
<g filter="url(#filter0_d_1_56)">
<path fill-rule="evenodd" clip-rule="evenodd" d="M13.2761 16.419C13.5203 16.7556 15.5798 17.3906 18.6519 18.0521C21.724 18.6409 24.9189 20.9657 27.4035 20.2489C29.0841 19.763 30.9073 15.4341 30.9073 14.7912V14.7252C30.9073 14.2763 30.5706 13.9159 29.999 13.6162C27.6557 12.4188 27.2121 11.9778 26.3434 12.2168C21.8336 13.4617 13.8715 12.8254 13.2761 16.419Z" fill="#380D09"/>
<path fill-rule="evenodd" clip-rule="evenodd" d="M13.2761 25.2088C13.5203 25.5508 15.5798 26.1805 18.6519 26.8432C22.0844 27.469 25.0694 29.5087 27.5553 28.7905C29.2359 28.3047 30.9073 24.2253 30.9073 23.581V23.5177C30.9073 23.0701 30.5706 22.7084 29.999 22.41C28.2115 21.4595 25.8496 20.4126 24.9823 20.6515C20.4646 21.8938 14.426 22.1671 13.2761 25.2088Z" fill="#380D09"/>
<path fill-rule="evenodd" clip-rule="evenodd" d="M13.251 18.3082V18.3715C13.2497 18.3504 13.2497 18.3293 13.251 18.3082Z" fill="#555555"/>
<path fill-rule="evenodd" clip-rule="evenodd" d="M27.5487 7.69909C23.3954 8.89915 16.8063 9.57641 13.2563 9.57641V16.3556C13.2574 16.3789 13.2663 16.4012 13.2814 16.419C15.7039 16.419 23.1828 15.6269 27.6953 14.3859C28.4822 14.1856 29.2539 13.9292 30.0043 13.6188C30.5561 13.3706 30.9126 13.1092 30.9126 12.8373V6C30.9073 6.64425 29.2293 7.21458 27.5487 7.69909Z" fill="#DE3423"/>
<path fill-rule="evenodd" clip-rule="evenodd" d="M27.5487 16.4903C25.0628 17.2071 21.7082 17.7405 18.6519 18.0521C16.6004 18.262 14.6834 18.3715 13.2563 18.3715V25.1455C13.2574 25.1688 13.2663 25.1911 13.2814 25.2088C15.7039 25.2088 23.1828 24.4167 27.6953 23.1771C28.4821 22.9762 29.2537 22.7198 30.0043 22.41C30.5561 22.1605 30.9126 21.9004 30.9126 21.6285V14.7912C30.9073 15.4341 29.2293 16.0044 27.5487 16.4903Z" fill="#DE3423"/>
<path fill-rule="evenodd" clip-rule="evenodd" d="M27.5487 25.2867C25.0628 26.0036 21.7082 26.5356 18.6519 26.8485C16.5977 27.0584 14.6782 27.168 13.251 27.168V34C15.6485 34 23.1657 33.2145 27.69 31.9682C29.3574 31.5088 30.9073 30.986 30.9073 30.4183V23.581C30.9073 24.2306 29.2293 24.7956 27.5487 25.2867Z" fill="#DE3423"/>
</g>
<g filter="url(#filter1_d_1_56)">
<path d="M43.3597 26.5007V14.1371H47.8874C48.7648 14.1371 49.4912 14.282 50.0667 14.5717C50.6423 14.8575 51.0729 15.2458 51.3586 15.7369C51.6444 16.2238 51.7873 16.7732 51.7873 17.3849C51.7873 17.9001 51.6927 18.3347 51.5035 18.6889C51.3144 19.0391 51.0608 19.3208 50.7429 19.5341C50.429 19.7434 50.0828 19.8963 49.7045 19.9929V20.1136C50.115 20.1337 50.5155 20.2666 50.9059 20.5121C51.3003 20.7535 51.6263 21.0976 51.8839 21.5444C52.1414 21.9911 52.2702 22.5344 52.2702 23.1743C52.2702 23.8062 52.1213 24.3737 51.8235 24.8768C51.5297 25.3758 51.0749 25.7722 50.4591 26.066C49.8434 26.3558 49.0566 26.5007 48.0987 26.5007H43.3597ZM45.2251 24.9009H47.9176C48.8111 24.9009 49.451 24.7279 49.8373 24.3817C50.2237 24.0356 50.4169 23.603 50.4169 23.0838C50.4169 22.6934 50.3183 22.3352 50.1211 22.0092C49.9239 21.6832 49.6421 21.4236 49.2759 21.2305C48.9137 21.0373 48.483 20.9407 47.984 20.9407H45.2251V24.9009ZM45.2251 19.4858H47.7244C48.143 19.4858 48.5193 19.4053 48.8533 19.2443C49.1914 19.0833 49.459 18.8579 49.6562 18.5682C49.8575 18.2744 49.9581 17.9283 49.9581 17.5298C49.9581 17.0187 49.779 16.5901 49.4208 16.244C49.0626 15.8978 48.5132 15.7248 47.7727 15.7248H45.2251V19.4858ZM60.2118 22.6552V17.228H62.0229V26.5007H60.248V24.8949H60.1514C59.9381 25.3899 59.596 25.8024 59.1251 26.1324C58.6583 26.4584 58.0767 26.6214 57.3805 26.6214C56.7848 26.6214 56.2576 26.4906 55.7988 26.229C55.344 25.9634 54.9858 25.571 54.7242 25.0518C54.4667 24.5327 54.3379 23.8907 54.3379 23.1261V17.228H56.1429V22.9087C56.1429 23.5406 56.318 24.0437 56.6681 24.418C57.0183 24.7922 57.473 24.9794 58.0325 24.9794C58.3705 24.9794 58.7066 24.8949 59.0406 24.7258C59.3787 24.5568 59.6584 24.3012 59.8798 23.9591C60.1051 23.6171 60.2158 23.1824 60.2118 22.6552ZM64.4482 26.5007V17.228H66.2533V26.5007H64.4482ZM65.3598 15.7972C65.0459 15.7972 64.7762 15.6926 64.5508 15.4833C64.3295 15.27 64.2188 15.0164 64.2188 14.7226C64.2188 14.4248 64.3295 14.1713 64.5508 13.962C64.7762 13.7487 65.0459 13.642 65.3598 13.642C65.6737 13.642 65.9413 13.7487 66.1627 13.962C66.3881 14.1713 66.5008 14.4248 66.5008 14.7226C66.5008 15.0164 66.3881 15.27 66.1627 15.4833C65.9413 15.6926 65.6737 15.7972 65.3598 15.7972ZM70.4867 14.1371V26.5007H68.6816V14.1371H70.4867ZM77.2435 17.228V18.6768H72.1785V17.228H77.2435ZM73.5368 15.0064H75.3419V23.778C75.3419 24.1282 75.3942 24.3918 75.4988 24.5689C75.6035 24.7419 75.7383 24.8607 75.9033 24.9251C76.0723 24.9854 76.2554 25.0156 76.4526 25.0156C76.5975 25.0156 76.7243 25.0056 76.833 24.9854C76.9416 24.9653 77.0262 24.9492 77.0865 24.9371L77.4125 26.4283C77.3079 26.4685 77.159 26.5087 76.9658 26.549C76.7726 26.5933 76.5311 26.6174 76.2414 26.6214C75.7664 26.6295 75.3237 26.545 74.9132 26.3679C74.5027 26.1908 74.1707 25.9171 73.9171 25.5469C73.6636 25.1766 73.5368 24.7118 73.5368 24.1523V15.0064ZM85.7495 26.5007L83.0208 17.228H84.8862L86.7034 24.0376H86.7939L88.6171 17.228H90.4825L92.2936 24.0074H92.3841L94.1891 17.228H96.0546L93.3319 26.5007H91.4906L89.6071 19.8057H89.4683L87.5847 26.5007H85.7495ZM97.7675 26.5007V17.228H99.5726V26.5007H97.7675ZM98.6791 15.7972C98.3652 15.7972 98.0955 15.6926 97.8702 15.4833C97.6488 15.27 97.5381 15.0164 97.5381 14.7226C97.5381 14.4248 97.6488 14.1713 97.8702 13.962C98.0955 13.7487 98.3652 13.642 98.6791 13.642C98.993 13.642 99.2607 13.7487 99.482 13.962C99.7074 14.1713 99.8201 14.4248 99.8201 14.7226C99.8201 15.0164 99.7074 15.27 99.482 15.4833C99.2607 15.6926 98.993 15.7972 98.6791 15.7972ZM106.329 17.228V18.6768H101.264V17.228H106.329ZM102.623 15.0064H104.428V23.778C104.428 24.1282 104.48 24.3918 104.585 24.5689C104.689 24.7419 104.824 24.8607 104.989 24.9251C105.158 24.9854 105.341 25.0156 105.539 25.0156C105.683 25.0156 105.81 25.0056 105.919 24.9854C106.028 24.9653 106.112 24.9492 106.172 24.9371L106.498 26.4283C106.394 26.4685 106.245 26.5087 106.052 26.549C105.859 26.5933 105.617 26.6174 105.327 26.6214C104.852 26.6295 104.41 26.545 103.999 26.3679C103.589 26.1908 103.257 25.9171 103.003 25.5469C102.75 25.1766 102.623 24.7118 102.623 24.1523V15.0064ZM110.33 20.995V26.5007H108.525V14.1371H110.306V18.7372H110.421C110.638 18.2382 110.97 17.8417 111.417 17.5479C111.864 17.2541 112.447 17.1072 113.168 17.1072C113.804 17.1072 114.359 17.238 114.834 17.4996C115.313 17.7612 115.683 18.1516 115.945 18.6708C116.21 19.1859 116.343 19.8299 116.343 20.6026V26.5007H114.538V20.8199C114.538 20.1398 114.363 19.6126 114.013 19.2383C113.663 18.86 113.176 18.6708 112.552 18.6708C112.125 18.6708 111.743 18.7614 111.405 18.9425C111.071 19.1236 110.807 19.3892 110.614 19.7393C110.425 20.0855 110.33 20.504 110.33 20.995Z" fill="#E8E8E8"/>
<path d="M129.62 17.3437C129.58 16.901 129.401 16.5569 129.083 16.3114C128.769 16.0619 128.32 15.9371 127.736 15.9371C127.35 15.9371 127.028 15.9874 126.771 16.0881C126.513 16.1887 126.32 16.3275 126.191 16.5046C126.062 16.6777 125.996 16.8769 125.992 17.1023C125.984 17.2874 126.02 17.4504 126.1 17.5913C126.185 17.7321 126.306 17.8569 126.463 17.9655C126.624 18.0702 126.817 18.1627 127.042 18.2432C127.268 18.3237 127.521 18.3942 127.803 18.4545L128.865 18.696C129.477 18.8288 130.016 19.0059 130.483 19.2273C130.954 19.4486 131.349 19.7122 131.666 20.0181C131.988 20.324 132.232 20.6761 132.397 21.0746C132.562 21.473 132.646 21.9197 132.651 22.4148C132.646 23.1955 132.449 23.8656 132.059 24.4251C131.669 24.9845 131.107 25.4131 130.375 25.7109C129.646 26.0087 128.767 26.1577 127.736 26.1577C126.702 26.1577 125.801 26.0027 125.032 25.6928C124.263 25.3829 123.666 24.912 123.239 24.2802C122.812 23.6483 122.593 22.8494 122.581 21.8835H125.442C125.467 22.2819 125.573 22.614 125.762 22.8796C125.952 23.1452 126.211 23.3465 126.541 23.4833C126.875 23.6201 127.262 23.6886 127.7 23.6886C128.103 23.6886 128.445 23.6342 128.727 23.5256C129.012 23.4169 129.232 23.266 129.385 23.0728C129.537 22.8796 129.616 22.6583 129.62 22.4087C129.616 22.1753 129.544 21.9761 129.403 21.8111C129.262 21.642 129.044 21.4971 128.751 21.3764C128.461 21.2516 128.091 21.1369 127.64 21.0323L126.348 20.7305C125.277 20.485 124.434 20.0885 123.818 19.5412C123.203 18.9898 122.897 18.2453 122.901 17.3075C122.897 16.5428 123.102 15.8727 123.517 15.2972C123.931 14.7217 124.505 14.273 125.237 13.951C125.97 13.629 126.805 13.468 127.742 13.468C128.7 13.468 129.531 13.631 130.236 13.957C130.944 14.279 131.493 14.7318 131.884 15.3153C132.274 15.8989 132.473 16.575 132.481 17.3437H129.62ZM138.488 26.1758C137.51 26.1758 136.671 25.9745 135.971 25.5721C135.275 25.1696 134.739 24.6102 134.365 23.8938C133.991 23.1734 133.804 22.3403 133.804 21.3945C133.804 20.4447 133.991 19.6116 134.365 18.8952C134.743 18.1748 135.281 17.6134 135.977 17.2109C136.677 16.8085 137.512 16.6072 138.482 16.6072C139.339 16.6072 140.086 16.7622 140.722 17.0721C141.362 17.382 141.861 17.8207 142.219 18.3881C142.581 18.9516 142.772 19.6136 142.793 20.3743H140.034C139.977 19.8994 139.816 19.5271 139.551 19.2574C139.289 18.9878 138.947 18.853 138.524 18.853C138.182 18.853 137.883 18.9496 137.625 19.1427C137.367 19.3319 137.166 19.6136 137.021 19.9879C136.88 20.3582 136.81 20.817 136.81 21.3643C136.81 21.9117 136.88 22.3745 137.021 22.7528C137.166 23.1271 137.367 23.4109 137.625 23.604C137.883 23.7932 138.182 23.8878 138.524 23.8878C138.798 23.8878 139.04 23.8294 139.249 23.7127C139.462 23.596 139.637 23.4249 139.774 23.1996C139.911 22.9702 139.997 22.6925 140.034 22.3665H142.793C142.764 23.1311 142.573 23.7992 142.219 24.3707C141.869 24.9422 141.376 25.3869 140.74 25.7049C140.108 26.0188 139.358 26.1758 138.488 26.1758ZM146.917 26.1577C146.326 26.1577 145.8 26.0591 145.342 25.8618C144.887 25.6606 144.527 25.3588 144.261 24.9563C143.999 24.5498 143.869 24.0407 143.869 23.429C143.869 22.9138 143.959 22.4792 144.14 22.125C144.321 21.7708 144.571 21.4831 144.889 21.2617C145.207 21.0404 145.573 20.8733 145.988 20.7606C146.402 20.6439 146.845 20.5654 147.316 20.5252C147.843 20.4769 148.268 20.4266 148.59 20.3743C148.911 20.3179 149.145 20.2395 149.29 20.1388C149.439 20.0342 149.513 19.8873 149.513 19.6981V19.668C149.513 19.3581 149.407 19.1186 149.193 18.9496C148.98 18.7805 148.692 18.696 148.33 18.696C147.94 18.696 147.626 18.7805 147.388 18.9496C147.151 19.1186 147 19.352 146.935 19.6498L144.213 19.5533C144.293 18.9898 144.501 18.4867 144.835 18.044C145.173 17.5973 145.635 17.2471 146.223 16.9936C146.815 16.736 147.525 16.6072 148.354 16.6072C148.946 16.6072 149.491 16.6777 149.99 16.8185C150.489 16.9554 150.924 17.1566 151.294 17.4222C151.664 17.6838 151.95 18.0058 152.151 18.3881C152.357 18.7705 152.459 19.2071 152.459 19.6981V26.0007H149.682V24.7088H149.61C149.445 25.0227 149.233 25.2883 148.976 25.5057C148.722 25.723 148.423 25.886 148.076 25.9947C147.734 26.1033 147.348 26.1577 146.917 26.1577ZM147.829 24.2258C148.147 24.2258 148.433 24.1614 148.686 24.0327C148.944 23.9039 149.149 23.7268 149.302 23.5014C149.455 23.272 149.531 23.0064 149.531 22.7045V21.8231C149.447 21.8674 149.344 21.9077 149.223 21.9439C149.107 21.9801 148.978 22.0143 148.837 22.0465C148.696 22.0787 148.551 22.1069 148.402 22.131C148.253 22.1552 148.111 22.1773 147.974 22.1974C147.696 22.2417 147.459 22.3101 147.261 22.4027C147.068 22.4953 146.919 22.616 146.815 22.7649C146.714 22.9098 146.664 23.0828 146.664 23.2841C146.664 23.59 146.772 23.8234 146.99 23.9844C147.211 24.1453 147.491 24.2258 147.829 24.2258ZM157.216 13.6371V26.0007H154.264V13.6371H157.216ZM161.709 26.1577C161.118 26.1577 160.592 26.0591 160.134 25.8618C159.679 25.6606 159.319 25.3588 159.053 24.9563C158.791 24.5498 158.661 24.0407 158.661 23.429C158.661 22.9138 158.751 22.4792 158.932 22.125C159.113 21.7708 159.363 21.4831 159.681 21.2617C159.999 21.0404 160.365 20.8733 160.78 20.7606C161.194 20.6439 161.637 20.5654 162.108 20.5252C162.635 20.4769 163.06 20.4266 163.382 20.3743C163.703 20.3179 163.937 20.2395 164.082 20.1388C164.231 20.0342 164.305 19.8873 164.305 19.6981V19.668C164.305 19.3581 164.199 19.1186 163.985 18.9496C163.772 18.7805 163.484 18.696 163.122 18.696C162.732 18.696 162.418 18.7805 162.18 18.9496C161.943 19.1186 161.792 19.352 161.727 19.6498L159.005 19.5533C159.085 18.9898 159.292 18.4867 159.627 18.044C159.965 17.5973 160.427 17.2471 161.015 16.9936C161.607 16.736 162.317 16.6072 163.146 16.6072C163.738 16.6072 164.283 16.6777 164.782 16.8185C165.281 16.9554 165.716 17.1566 166.086 17.4222C166.456 17.6838 166.742 18.0058 166.943 18.3881C167.149 18.7705 167.251 19.2071 167.251 19.6981V26.0007H164.474V24.7088H164.402C164.237 25.0227 164.025 25.2883 163.768 25.5057C163.514 25.723 163.214 25.886 162.868 25.9947C162.526 26.1033 162.14 26.1577 161.709 26.1577ZM162.621 24.2258C162.939 24.2258 163.225 24.1614 163.478 24.0327C163.736 23.9039 163.941 23.7268 164.094 23.5014C164.247 23.272 164.323 23.0064 164.323 22.7045V21.8231C164.239 21.8674 164.136 21.9077 164.015 21.9439C163.899 21.9801 163.77 22.0143 163.629 22.0465C163.488 22.0787 163.343 22.1069 163.194 22.131C163.045 22.1552 162.903 22.1773 162.766 22.1974C162.488 22.2417 162.251 22.3101 162.053 22.4027C161.86 22.4953 161.711 22.616 161.607 22.7649C161.506 22.9098 161.456 23.0828 161.456 23.2841C161.456 23.59 161.564 23.8234 161.782 23.9844C162.003 24.1453 162.283 24.2258 162.621 24.2258Z" fill="#DE3423"/>
</g>
<defs>
<filter id="filter0_d_1_56" x="2.39972" y="0.39972" width="39.202" height="39.202" filterUnits="userSpaceOnUse" color-interpolation-filters="sRGB">
<feFlood flood-opacity="0" result="BackgroundImageFix"/>
<feColorMatrix in="SourceAlpha" type="matrix" values="0 0 0 0 0 0 0 0 0 0 0 0 0 0 0 0 0 0 127 0" result="hardAlpha"/>
<feOffset/>
<feGaussianBlur stdDeviation="2.80014"/>
<feComposite in2="hardAlpha" operator="out"/>
<feColorMatrix type="matrix" values="0 0 0 0 0 0 0 0 0 0 0 0 0 0 0 0 0 0 0.25 0"/>
<feBlend mode="normal" in2="BackgroundImageFix" result="effect1_dropShadow_1_56"/>
<feBlend mode="normal" in="SourceGraphic" in2="effect1_dropShadow_1_56" result="shape"/>
</filter>
<filter id="filter1_d_1_56" x="36.2871" y="3.78642" width="138.429" height="32.4286" filterUnits="userSpaceOnUse" color-interpolation-filters="sRGB">
<feFlood flood-opacity="0" result="BackgroundImageFix"/>
<feColorMatrix in="SourceAlpha" type="matrix" values="0 0 0 0 0 0 0 0 0 0 0 0 0 0 0 0 0 0 127 0" result="hardAlpha"/>
<feOffset/>
<feGaussianBlur stdDeviation="2.85714"/>
<feComposite in2="hardAlpha" operator="out"/>
<feColorMatrix type="matrix" values="0 0 0 0 0 0 0 0 0 0 0 0 0 0 0 0 0 0 0.25 0"/>
<feBlend mode="normal" in2="BackgroundImageFix" result="effect1_dropShadow_1_56"/>
<feBlend mode="normal" in="SourceGraphic" in2="effect1_dropShadow_1_56" result="shape"/>
</filter>
<linearGradient id="paint0_linear_1_56" x1="88.5007" y1="0" x2="88.5007" y2="40.0014" gradientUnits="userSpaceOnUse">
<stop stop-color="#380D09"/>
<stop offset="1" stop-color="#220805"/>
</linearGradient>
</defs>
</svg>
