<svg width="144" height="56" viewBox="0 0 144 56" fill="none" xmlns="http://www.w3.org/2000/svg">
<rect width="144" height="56" rx="8" fill="url(#paint0_linear_1_50)"/>
<rect x="1.05" y="1.05" width="141.9" height="53.9" rx="6.95" stroke="white" stroke-opacity="0.15" stroke-width="2.1"/>
<g filter="url(#filter0_d_1_50)">
<path fill-rule="evenodd" clip-rule="evenodd" d="M19.5373 22.8842C19.8862 23.3652 22.8283 24.2723 27.2171 25.2172C31.6058 26.0584 36.1699 29.3796 39.7193 28.3555C42.1202 27.6615 44.7247 21.4773 44.7247 20.5588V20.4645C44.7247 19.8233 44.2438 19.3084 43.4271 18.8803C40.0795 17.1697 39.4458 16.5398 38.2048 16.8811C31.7623 18.6596 20.3879 17.7506 19.5373 22.8842Z" fill="#380D09"/>
<path fill-rule="evenodd" clip-rule="evenodd" d="M19.5373 35.4412C19.8862 35.9297 22.8283 36.8293 27.2171 37.776C32.1206 38.67 36.3849 41.5839 39.9362 40.5579C42.337 39.8638 44.7247 34.0361 44.7247 33.1158V33.0252C44.7247 32.3859 44.2438 31.8691 43.4271 31.4429C40.8735 30.085 37.4995 28.5894 36.2604 28.9307C29.8065 30.7055 21.18 31.0959 19.5373 35.4412Z" fill="#380D09"/>
<path fill-rule="evenodd" clip-rule="evenodd" d="M19.5015 25.5831V25.6736C19.4995 25.6435 19.4995 25.6132 19.5015 25.5831Z" fill="#555555"/>
<path fill-rule="evenodd" clip-rule="evenodd" d="M39.9267 10.4273C33.9934 12.1416 24.5804 13.1092 19.509 13.1092V22.7937C19.5106 22.827 19.5232 22.8589 19.5448 22.8842C23.0056 22.8842 33.6898 21.7527 40.1361 19.9798C41.2603 19.6937 42.3627 19.3275 43.4347 18.8841C44.223 18.5295 44.7323 18.1561 44.7323 17.7676V8C44.7247 8.92036 42.3276 9.73511 39.9267 10.4273Z" fill="#DE3423"/>
<path fill-rule="evenodd" clip-rule="evenodd" d="M39.9267 22.9861C36.3754 24.0102 31.5831 24.7721 27.217 25.2172C24.2862 25.5171 21.5478 25.6736 19.509 25.6736V35.3507C19.5106 35.384 19.5232 35.4158 19.5448 35.4412C23.0056 35.4412 33.6898 34.3096 40.1361 32.5386C41.2601 32.2517 42.3624 31.8855 43.4347 31.4429C44.223 31.0864 44.7323 30.7149 44.7323 30.3264V20.5588C44.7247 21.4773 42.3276 22.292 39.9267 22.9861Z" fill="#DE3423"/>
<path fill-rule="evenodd" clip-rule="evenodd" d="M39.9267 35.5525C36.3754 36.5765 31.5831 37.3366 27.217 37.7836C24.2824 38.0835 21.5402 38.24 19.5015 38.24V48C22.9264 48 33.6653 46.8778 40.1285 45.0975C42.5106 44.4411 44.7247 43.6943 44.7247 42.8833V33.1158C44.7247 34.0437 42.3276 34.8509 39.9267 35.5525Z" fill="#DE3423"/>
</g>
<g filter="url(#filter1_d_1_50)">
<path d="M61.2784 24.5V12.8636H65.5398C66.3655 12.8636 67.0492 13 67.5909 13.2727C68.1326 13.5417 68.5379 13.9072 68.8068 14.3693C69.0757 14.8276 69.2102 15.3447 69.2102 15.9204C69.2102 16.4053 69.1212 16.8144 68.9432 17.1477C68.7651 17.4773 68.5265 17.7424 68.2273 17.9432C67.9318 18.1401 67.606 18.2841 67.25 18.375V18.4886C67.6363 18.5076 68.0132 18.6326 68.3807 18.8636C68.7519 19.0909 69.0587 19.4148 69.3011 19.8352C69.5435 20.2557 69.6648 20.767 69.6648 21.3693C69.6648 21.964 69.5246 22.4981 69.2443 22.9716C68.9678 23.4413 68.5398 23.8144 67.9602 24.0909C67.3807 24.3636 66.6401 24.5 65.7386 24.5H61.2784ZM63.0341 22.9943H65.5682C66.4091 22.9943 67.0113 22.8314 67.375 22.5057C67.7386 22.1799 67.9204 21.7727 67.9204 21.2841C67.9204 20.9167 67.8276 20.5795 67.642 20.2727C67.4564 19.9659 67.1913 19.7216 66.8466 19.5398C66.5057 19.3579 66.1004 19.267 65.6307 19.267H63.0341V22.9943ZM63.0341 17.8977H65.3863C65.7803 17.8977 66.1345 17.822 66.4488 17.6704C66.767 17.5189 67.0189 17.3068 67.2045 17.0341C67.3939 16.7576 67.4886 16.4318 67.4886 16.0568C67.4886 15.5758 67.3201 15.1723 66.9829 14.8466C66.6458 14.5208 66.1288 14.3579 65.4318 14.3579H63.0341V17.8977ZM77.1392 20.8807V15.7727H78.8437V24.5H77.1733V22.9886H77.0824C76.8816 23.4545 76.5596 23.8428 76.1165 24.1534C75.6771 24.4602 75.1297 24.6136 74.4744 24.6136C73.9138 24.6136 73.4176 24.4905 72.9858 24.2443C72.5577 23.9943 72.2206 23.625 71.9744 23.1364C71.732 22.6477 71.6108 22.0436 71.6108 21.3239V15.7727H73.3096V21.1193C73.3096 21.714 73.4744 22.1875 73.804 22.5398C74.1335 22.892 74.5615 23.0682 75.088 23.0682C75.4062 23.0682 75.7225 22.9886 76.0369 22.8295C76.3551 22.6704 76.6184 22.4299 76.8267 22.1079C77.0388 21.786 77.143 21.3769 77.1392 20.8807ZM81.1264 24.5V15.7727H82.8253V24.5H81.1264ZM81.9844 14.4261C81.6889 14.4261 81.4351 14.3276 81.223 14.1307C81.0147 13.9299 80.9105 13.6913 80.9105 13.4148C80.9105 13.1345 81.0147 12.8958 81.223 12.6989C81.4351 12.4981 81.6889 12.3977 81.9844 12.3977C82.2798 12.3977 82.5317 12.4981 82.74 12.6989C82.9522 12.8958 83.0582 13.1345 83.0582 13.4148C83.0582 13.6913 82.9522 13.9299 82.74 14.1307C82.5317 14.3276 82.2798 14.4261 81.9844 14.4261ZM86.8096 12.8636V24.5H85.1108V12.8636H86.8096ZM93.169 15.7727V17.1364H88.402V15.7727H93.169ZM89.6804 13.6818H91.3792V21.9375C91.3792 22.267 91.4285 22.5151 91.527 22.6818C91.6254 22.8447 91.7523 22.9564 91.9076 23.017C92.0667 23.0739 92.2391 23.1023 92.4247 23.1023C92.5611 23.1023 92.6804 23.0928 92.7826 23.0739C92.8849 23.0549 92.9645 23.0398 93.0213 23.0284L93.3281 24.4318C93.2296 24.4697 93.0895 24.5076 92.9076 24.5454C92.7258 24.5871 92.4986 24.6098 92.2258 24.6136C91.7789 24.6212 91.3622 24.5417 90.9758 24.375C90.5895 24.2083 90.277 23.9508 90.0383 23.6023C89.7997 23.2538 89.6804 22.8163 89.6804 22.2898V13.6818ZM101.175 24.5L98.6065 15.7727H100.362L102.072 22.1818H102.158L103.874 15.7727H105.629L107.334 22.1534H107.419L109.118 15.7727H110.874L108.311 24.5H106.578L104.805 18.1989H104.675L102.902 24.5H101.175ZM112.486 24.5V15.7727H114.185V24.5H112.486ZM113.344 14.4261C113.048 14.4261 112.794 14.3276 112.582 14.1307C112.374 13.9299 112.27 13.6913 112.27 13.4148C112.27 13.1345 112.374 12.8958 112.582 12.6989C112.794 12.4981 113.048 12.3977 113.344 12.3977C113.639 12.3977 113.891 12.4981 114.099 12.6989C114.312 12.8958 114.418 13.1345 114.418 13.4148C114.418 13.6913 114.312 13.9299 114.099 14.1307C113.891 14.3276 113.639 14.4261 113.344 14.4261ZM120.544 15.7727V17.1364H115.777V15.7727H120.544ZM117.055 13.6818H118.754V21.9375C118.754 22.267 118.803 22.5151 118.902 22.6818C119 22.8447 119.127 22.9564 119.283 23.017C119.442 23.0739 119.614 23.1023 119.8 23.1023C119.936 23.1023 120.055 23.0928 120.158 23.0739C120.26 23.0549 120.339 23.0398 120.396 23.0284L120.703 24.4318C120.605 24.4697 120.464 24.5076 120.283 24.5454C120.101 24.5871 119.874 24.6098 119.601 24.6136C119.154 24.6212 118.737 24.5417 118.351 24.375C117.964 24.2083 117.652 23.9508 117.413 23.6023C117.175 23.2538 117.055 22.8163 117.055 22.2898V13.6818ZM124.31 19.3182V24.5H122.611V12.8636H124.287V17.1932H124.395C124.599 16.7235 124.912 16.3504 125.332 16.0739C125.753 15.7973 126.302 15.6591 126.98 15.6591C127.579 15.6591 128.101 15.7822 128.548 16.0284C128.999 16.2746 129.348 16.642 129.594 17.1307C129.844 17.6155 129.969 18.2216 129.969 18.9489V24.5H128.27V19.1534C128.27 18.5133 128.105 18.017 127.776 17.6648C127.446 17.3087 126.988 17.1307 126.401 17.1307C125.999 17.1307 125.639 17.2159 125.321 17.3864C125.007 17.5568 124.758 17.8068 124.577 18.1364C124.399 18.4621 124.31 18.8561 124.31 19.3182Z" fill="#E8E8E8"/>
<path d="M67.6186 34.843C67.5783 34.4003 67.3992 34.0562 67.0813 33.8107C66.7674 33.5612 66.3186 33.4364 65.7351 33.4364C65.3487 33.4364 65.0267 33.4867 64.7692 33.5873C64.5116 33.688 64.3184 33.8268 64.1896 34.0039C64.0608 34.177 63.9944 34.3762 63.9904 34.6016C63.9823 34.7867 64.0186 34.9497 64.0991 35.0905C64.1836 35.2314 64.3043 35.3562 64.4613 35.4648C64.6223 35.5695 64.8154 35.662 65.0408 35.7425C65.2662 35.823 65.5198 35.8935 65.8015 35.9538L66.864 36.1953C67.4757 36.3281 68.015 36.5052 68.4819 36.7266C68.9528 36.9479 69.3472 37.2115 69.6651 37.5174C69.9871 37.8233 70.2306 38.1754 70.3956 38.5739C70.5606 38.9723 70.6451 39.419 70.6491 39.9141C70.6451 40.6948 70.4479 41.3649 70.0575 41.9243C69.6671 42.4838 69.1057 42.9124 68.3732 43.2102C67.6448 43.508 66.7654 43.6569 65.7351 43.6569C64.7007 43.6569 63.7992 43.502 63.0305 43.1921C62.2618 42.8822 61.6642 42.4113 61.2376 41.7795C60.8109 41.1476 60.5916 40.3487 60.5795 39.3828H63.441C63.4652 39.7812 63.5718 40.1133 63.761 40.3789C63.9501 40.6445 64.2097 40.8458 64.5398 40.9826C64.8738 41.1194 65.2602 41.1878 65.6988 41.1878C66.1013 41.1878 66.4434 41.1335 66.7251 41.0248C67.0109 40.9162 67.2302 40.7653 67.3832 40.5721C67.5361 40.3789 67.6146 40.1575 67.6186 39.908C67.6146 39.6746 67.5421 39.4754 67.4013 39.3104C67.2604 39.1413 67.0431 38.9964 66.7493 38.8757C66.4595 38.7509 66.0892 38.6362 65.6385 38.5316L64.3466 38.2297C63.276 37.9842 62.4329 37.5878 61.8171 37.0405C61.2013 36.4891 60.8955 35.7445 60.8995 34.8068C60.8955 34.0421 61.1007 33.372 61.5153 32.7965C61.9298 32.221 62.5033 31.7722 63.2358 31.4503C63.9683 31.1283 64.8034 30.9673 65.7411 30.9673C66.699 30.9673 67.53 31.1303 68.2344 31.4563C68.9427 31.7783 69.4921 32.2311 69.8824 32.8146C70.2728 33.3982 70.472 34.0743 70.4801 34.843H67.6186ZM76.4868 43.6751C75.5089 43.6751 74.6697 43.4738 73.9694 43.0714C73.2732 42.6689 72.7379 42.1095 72.3636 41.3931C71.9893 40.6727 71.8022 39.8396 71.8022 38.8938C71.8022 37.944 71.9893 37.1109 72.3636 36.3945C72.7419 35.6741 73.2792 35.1127 73.9755 34.7102C74.6758 34.3078 75.5109 34.1065 76.4808 34.1065C77.338 34.1065 78.0846 34.2615 78.7205 34.5714C79.3604 34.8813 79.8595 35.3199 80.2177 35.8874C80.5799 36.4509 80.771 37.1129 80.7912 37.8736H78.0323C77.976 37.3987 77.815 37.0264 77.5493 36.7567C77.2877 36.4871 76.9456 36.3523 76.5231 36.3523C76.181 36.3523 75.8811 36.4489 75.6236 36.642C75.366 36.8312 75.1648 37.1129 75.0199 37.4872C74.879 37.8575 74.8086 38.3163 74.8086 38.8636C74.8086 39.411 74.879 39.8738 75.0199 40.2521C75.1648 40.6264 75.366 40.9101 75.6236 41.1033C75.8811 41.2925 76.181 41.3871 76.5231 41.3871C76.7967 41.3871 77.0382 41.3287 77.2475 41.212C77.4608 41.0953 77.6359 40.9242 77.7727 40.6989C77.9095 40.4694 77.9961 40.1918 78.0323 39.8658H80.7912C80.763 40.6304 80.5718 41.2985 80.2177 41.87C79.8675 42.4415 79.3745 42.8862 78.7386 43.2042C78.1068 43.5181 77.3562 43.6751 76.4868 43.6751ZM84.9159 43.6569C84.3243 43.6569 83.7991 43.5583 83.3403 43.3611C82.8855 43.1599 82.5253 42.8581 82.2597 42.4556C81.9981 42.0491 81.8673 41.54 81.8673 40.9283C81.8673 40.4131 81.9578 39.9784 82.1389 39.6243C82.32 39.2701 82.5696 38.9824 82.8875 38.761C83.2054 38.5396 83.5717 38.3726 83.9862 38.2599C84.4008 38.1432 84.8435 38.0647 85.3143 38.0245C85.8416 37.9762 86.2662 37.9259 86.5881 37.8736C86.9101 37.8172 87.1435 37.7387 87.2884 37.6381C87.4373 37.5335 87.5118 37.3866 87.5118 37.1974V37.1672C87.5118 36.8574 87.4051 36.6179 87.1918 36.4489C86.9785 36.2798 86.6908 36.1953 86.3285 36.1953C85.9382 36.1953 85.6242 36.2798 85.3868 36.4489C85.1493 36.6179 84.9984 36.8513 84.934 37.1491L82.2114 37.0525C82.2919 36.4891 82.4991 35.986 82.8332 35.5433C83.1712 35.0966 83.6341 34.7464 84.2217 34.4929C84.8133 34.2353 85.5236 34.1065 86.3527 34.1065C86.9443 34.1065 87.4896 34.177 87.9887 34.3178C88.4878 34.4547 88.9224 34.6559 89.2927 34.9215C89.6629 35.1831 89.9487 35.5051 90.1499 35.8874C90.3552 36.2698 90.4578 36.7064 90.4578 37.1974V43.5H87.6808V42.2081H87.6084C87.4434 42.522 87.2321 42.7876 86.9745 43.005C86.7209 43.2223 86.4211 43.3853 86.075 43.494C85.7329 43.6026 85.3465 43.6569 84.9159 43.6569ZM85.8275 41.7251C86.1454 41.7251 86.4312 41.6607 86.6847 41.5319C86.9423 41.4032 87.1476 41.2261 87.3005 41.0007C87.4534 40.7713 87.5299 40.5057 87.5299 40.2038V39.3224C87.4454 39.3667 87.3428 39.4069 87.222 39.4432C87.1053 39.4794 86.9765 39.5136 86.8356 39.5458C86.6948 39.578 86.5499 39.6062 86.401 39.6303C86.2521 39.6545 86.1092 39.6766 85.9724 39.6967C85.6947 39.741 85.4572 39.8094 85.26 39.902C85.0668 39.9945 84.9179 40.1153 84.8133 40.2642C84.7127 40.4091 84.6624 40.5821 84.6624 40.7834C84.6624 41.0892 84.771 41.3227 84.9883 41.4837C85.2097 41.6446 85.4894 41.7251 85.8275 41.7251ZM95.2149 31.1364V43.5H92.2628V31.1364H95.2149ZM99.7079 43.6569C99.1163 43.6569 98.5911 43.5583 98.1323 43.3611C97.6775 43.1599 97.3173 42.8581 97.0516 42.4556C96.79 42.0491 96.6592 41.54 96.6592 40.9283C96.6592 40.4131 96.7498 39.9784 96.9309 39.6243C97.112 39.2701 97.3615 38.9824 97.6795 38.761C97.9974 38.5396 98.3637 38.3726 98.7782 38.2599C99.1927 38.1432 99.6354 38.0647 100.106 38.0245C100.634 37.9762 101.058 37.9259 101.38 37.8736C101.702 37.8172 101.936 37.7387 102.08 37.6381C102.229 37.5335 102.304 37.3866 102.304 37.1974V37.1672C102.304 36.8574 102.197 36.6179 101.984 36.4489C101.771 36.2798 101.483 36.1953 101.121 36.1953C100.73 36.1953 100.416 36.2798 100.179 36.4489C99.9413 36.6179 99.7904 36.8513 99.726 37.1491L97.0033 37.0525C97.0838 36.4891 97.2911 35.986 97.6252 35.5433C97.9632 35.0966 98.4261 34.7464 99.0136 34.4929C99.6053 34.2353 100.316 34.1065 101.145 34.1065C101.736 34.1065 102.282 34.177 102.781 34.3178C103.28 34.4547 103.714 34.6559 104.085 34.9215C104.455 35.1831 104.741 35.5051 104.942 35.8874C105.147 36.2698 105.25 36.7064 105.25 37.1974V43.5H102.473V42.2081H102.4C102.235 42.522 102.024 42.7876 101.766 43.005C101.513 43.2223 101.213 43.3853 100.867 43.494C100.525 43.6026 100.139 43.6569 99.7079 43.6569ZM100.619 41.7251C100.937 41.7251 101.223 41.6607 101.477 41.5319C101.734 41.4032 101.94 41.2261 102.092 41.0007C102.245 40.7713 102.322 40.5057 102.322 40.2038V39.3224C102.237 39.3667 102.135 39.4069 102.014 39.4432C101.897 39.4794 101.768 39.5136 101.628 39.5458C101.487 39.578 101.342 39.6062 101.193 39.6303C101.044 39.6545 100.901 39.6766 100.764 39.6967C100.487 39.741 100.249 39.8094 100.052 39.902C99.8588 39.9945 99.7099 40.1153 99.6053 40.2642C99.5046 40.4091 99.4543 40.5821 99.4543 40.7834C99.4543 41.0892 99.563 41.3227 99.7803 41.4837C100.002 41.6446 100.281 41.7251 100.619 41.7251Z" fill="#DE3423"/>
</g>
<defs>
<filter id="filter0_d_1_50" x="6.28571" y="2.28571" width="51.4286" height="51.4286" filterUnits="userSpaceOnUse" color-interpolation-filters="sRGB">
<feFlood flood-opacity="0" result="BackgroundImageFix"/>
<feColorMatrix in="SourceAlpha" type="matrix" values="0 0 0 0 0 0 0 0 0 0 0 0 0 0 0 0 0 0 127 0" result="hardAlpha"/>
<feOffset/>
<feGaussianBlur stdDeviation="2.85714"/>
<feComposite in2="hardAlpha" operator="out"/>
<feColorMatrix type="matrix" values="0 0 0 0 0 0 0 0 0 0 0 0 0 0 0 0 0 0 0.25 0"/>
<feBlend mode="normal" in2="BackgroundImageFix" result="effect1_dropShadow_1_50"/>
<feBlend mode="normal" in="SourceGraphic" in2="effect1_dropShadow_1_50" result="shape"/>
</filter>
<filter id="filter1_d_1_50" x="54.4" y="3.9" width="83.2" height="48.2" filterUnits="userSpaceOnUse" color-interpolation-filters="sRGB">
<feFlood flood-opacity="0" result="BackgroundImageFix"/>
<feColorMatrix in="SourceAlpha" type="matrix" values="0 0 0 0 0 0 0 0 0 0 0 0 0 0 0 0 0 0 127 0" result="hardAlpha"/>
<feOffset/>
<feGaussianBlur stdDeviation="2.8"/>
<feComposite in2="hardAlpha" operator="out"/>
<feColorMatrix type="matrix" values="0 0 0 0 0 0 0 0 0 0 0 0 0 0 0 0 0 0 0.25 0"/>
<feBlend mode="normal" in2="BackgroundImageFix" result="effect1_dropShadow_1_50"/>
<feBlend mode="normal" in="SourceGraphic" in2="effect1_dropShadow_1_50" result="shape"/>
</filter>
<linearGradient id="paint0_linear_1_50" x1="72" y1="0" x2="72" y2="56" gradientUnits="userSpaceOnUse">
<stop stop-color="#380D09"/>
<stop offset="1" stop-color="#220805"/>
</linearGradient>
</defs>
</svg>
