<svg width="215" height="40" viewBox="0 0 215 40" fill="none" xmlns="http://www.w3.org/2000/svg">
<rect width="215.001" height="40.0014" rx="8" fill="url(#paint0_linear_1_56)"/>
<rect x="1.07143" y="1.07143" width="212.858" height="37.8585" rx="6.92857" stroke="white" stroke-opacity="0.15" stroke-width="2.14286"/>
<g filter="url(#filter0_d_1_56)">
<path d="M22 34C29.732 34 36 27.732 36 20C36 12.268 29.732 6 22 6C14.268 6 8 12.268 8 20C8 27.732 14.268 34 22 34Z" fill="#DD4814"/>
<path d="M12.4801 21.869C13.5123 21.869 14.3491 21.0322 14.3491 20C14.3491 18.9678 13.5123 18.131 12.4801 18.131C11.4478 18.131 10.611 18.9678 10.611 20C10.611 21.0322 11.4478 21.869 12.4801 21.869Z" fill="white"/>
<path d="M17.4951 26.7559C15.8594 25.6631 14.6426 23.9924 14.1372 22.0355C14.7277 21.5543 15.1048 20.8215 15.1048 20C15.1048 19.1785 14.7277 18.4457 14.1372 17.9645C14.6426 16.0076 15.8594 14.3369 17.4951 13.2441L18.8617 15.5331C17.4579 16.5211 16.54 18.1526 16.54 20C16.54 21.8474 17.4579 23.4789 18.8617 24.4669L17.4951 26.7559Z" fill="white"/>
<path d="M25.1414 10.821C24.6252 11.7149 24.9315 12.858 25.8255 13.3741C26.7194 13.8902 27.8625 13.5839 28.3786 12.69C28.8947 11.7961 28.5884 10.653 27.6945 10.1369C26.8006 9.62074 25.6575 9.92703 25.1414 10.821Z" fill="white"/>
<path d="M18.4016 12.7207C20.1659 11.8505 22.2212 11.6321 24.1687 12.1728C24.2901 12.9248 24.7362 13.6179 25.4476 14.0286C26.159 14.4393 26.9822 14.4791 27.6942 14.2083C29.1362 15.6245 29.9747 17.5136 30.1032 19.4766L27.4376 19.5156C27.2839 17.8059 26.3299 16.1952 24.73 15.2715C23.1301 14.3478 21.2582 14.327 19.7008 15.0487L18.4016 12.7207Z" fill="white"/>
<path d="M28.3786 27.31C27.8625 26.4161 26.7194 26.1098 25.8255 26.6259C24.9315 27.142 24.6252 28.2851 25.1414 29.179C25.6575 30.073 26.8005 30.3792 27.6945 29.8631C28.5884 29.347 28.8947 28.2039 28.3786 27.31Z" fill="white"/>
<path d="M30.1032 20.5234C29.9747 22.4863 29.1362 24.3755 27.6942 25.7917C26.9823 25.5209 26.159 25.5606 25.4476 25.9714C24.7362 26.3821 24.2901 27.0752 24.1687 27.8271C22.2212 28.3679 20.1659 28.1494 18.4016 27.2793L19.7008 24.9513C21.2582 25.673 23.1301 25.6522 24.73 24.7285C26.3299 23.8048 27.2839 22.1941 27.4376 20.4844L30.1032 20.5234Z" fill="white"/>
</g>
<g filter="url(#filter1_d_1_56)">
<path d="M44.4041 26.5007H42.424L46.8732 14.1371H49.0284L53.4776 26.5007H51.4975L48.0021 16.3828H47.9055L44.4041 26.5007ZM44.7361 21.6591H51.1594V23.2287H44.7361V21.6591ZM61.8886 17.228L58.526 26.5007H56.5942L53.2256 17.228H55.1634L57.5118 24.3636H57.6084L59.9507 17.228H61.8886ZM66.0178 26.706C65.4302 26.706 64.899 26.5973 64.4241 26.38C63.9492 26.1586 63.5729 25.8386 63.2952 25.4201C63.0215 25.0015 62.8846 24.4884 62.8846 23.8807C62.8846 23.3575 62.9853 22.9268 63.1865 22.5888C63.3877 22.2507 63.6594 21.9831 64.0015 21.7859C64.3436 21.5886 64.7259 21.4397 65.1485 21.3391C65.5711 21.2385 66.0017 21.162 66.4404 21.1097C66.9958 21.0453 67.4466 20.993 67.7927 20.9528C68.1388 20.9085 68.3903 20.8381 68.5473 20.7415C68.7042 20.6449 68.7827 20.4879 68.7827 20.2706V20.2283C68.7827 19.7011 68.6338 19.2926 68.336 19.0028C68.0422 18.7131 67.6035 18.5682 67.0199 18.5682C66.4122 18.5682 65.9333 18.703 65.5832 18.9726C65.237 19.2383 64.9976 19.5341 64.8648 19.8601L63.1684 19.4737C63.3696 18.9103 63.6634 18.4555 64.0498 18.1094C64.4402 17.7592 64.8889 17.5057 65.396 17.3487C65.9031 17.1877 66.4364 17.1072 66.9958 17.1072C67.3661 17.1072 67.7585 17.1515 68.173 17.24C68.5916 17.3246 68.9819 17.4815 69.3442 17.7109C69.7104 17.9403 70.0102 18.2683 70.2437 18.6949C70.4771 19.1175 70.5938 19.6669 70.5938 20.343V26.5007H68.831V25.2329H68.7586C68.6419 25.4664 68.4668 25.6958 68.2334 25.9212C67.9999 26.1465 67.7001 26.3337 67.3339 26.4826C66.9676 26.6315 66.5289 26.706 66.0178 26.706ZM66.4102 25.2571C66.9093 25.2571 67.3359 25.1585 67.69 24.9613C68.0482 24.7641 68.3199 24.5065 68.505 24.1886C68.6942 23.8666 68.7888 23.5225 68.7888 23.1562V21.9609C68.7244 22.0253 68.5996 22.0857 68.4145 22.142C68.2334 22.1944 68.0261 22.2406 67.7927 22.2809C67.5592 22.3171 67.3319 22.3513 67.1105 22.3835C66.8891 22.4117 66.704 22.4358 66.5551 22.456C66.205 22.5002 65.885 22.5747 65.5952 22.6793C65.3095 22.784 65.0801 22.9349 64.907 23.1321C64.738 23.3253 64.6535 23.5828 64.6535 23.9048C64.6535 24.3515 64.8185 24.6896 65.1485 24.919C65.4785 25.1444 65.8991 25.2571 66.4102 25.2571ZM72.998 26.5007V17.228H74.8031V26.5007H72.998ZM73.9096 15.7972C73.5957 15.7972 73.326 15.6926 73.1006 15.4833C72.8793 15.27 72.7686 15.0164 72.7686 14.7226C72.7686 14.4248 72.8793 14.1713 73.1006 13.962C73.326 13.7487 73.5957 13.642 73.9096 13.642C74.2235 13.642 74.4911 13.7487 74.7125 13.962C74.9379 14.1713 75.0506 14.4248 75.0506 14.7226C75.0506 15.0164 74.9379 15.27 74.7125 15.4833C74.4911 15.6926 74.2235 15.7972 73.9096 15.7972ZM79.0365 14.1371V26.5007H77.2314V14.1371H79.0365ZM84.1633 26.706C83.5757 26.706 83.0445 26.5973 82.5696 26.38C82.0947 26.1586 81.7184 25.8386 81.4407 25.4201C81.167 25.0015 81.0301 24.4884 81.0301 23.8807C81.0301 23.3575 81.1308 22.9268 81.332 22.5888C81.5332 22.2507 81.8049 21.9831 82.147 21.7859C82.4891 21.5886 82.8714 21.4397 83.294 21.3391C83.7166 21.2385 84.1472 21.162 84.5859 21.1097C85.1413 21.0453 85.5921 20.993 85.9382 20.9528C86.2843 20.9085 86.5358 20.8381 86.6928 20.7415C86.8497 20.6449 86.9282 20.4879 86.9282 20.2706V20.2283C86.9282 19.7011 86.7793 19.2926 86.4815 19.0028C86.1877 18.7131 85.749 18.5682 85.1654 18.5682C84.5577 18.5682 84.0788 18.703 83.7287 18.9726C83.3825 19.2383 83.1431 19.5341 83.0103 19.8601L81.3139 19.4737C81.5151 18.9103 81.8089 18.4555 82.1953 18.1094C82.5857 17.7592 83.0344 17.5057 83.5415 17.3487C84.0486 17.1877 84.5819 17.1072 85.1413 17.1072C85.5116 17.1072 85.904 17.1515 86.3185 17.24C86.7371 17.3246 87.1274 17.4815 87.4897 17.7109C87.8559 17.9403 88.1557 18.2683 88.3892 18.6949C88.6226 19.1175 88.7393 19.6669 88.7393 20.343V26.5007H86.9765V25.2329H86.9041C86.7874 25.4664 86.6123 25.6958 86.3789 25.9212C86.1454 26.1465 85.8456 26.3337 85.4794 26.4826C85.1131 26.6315 84.6744 26.706 84.1633 26.706ZM84.5557 25.2571C85.0548 25.2571 85.4814 25.1585 85.8355 24.9613C86.1937 24.7641 86.4654 24.5065 86.6505 24.1886C86.8397 23.8666 86.9343 23.5225 86.9343 23.1562V21.9609C86.8699 22.0253 86.7451 22.0857 86.56 22.142C86.3789 22.1944 86.1716 22.2406 85.9382 22.2809C85.7047 22.3171 85.4774 22.3513 85.256 22.3835C85.0346 22.4117 84.8495 22.4358 84.7006 22.456C84.3505 22.5002 84.0305 22.5747 83.7407 22.6793C83.455 22.784 83.2256 22.9349 83.0525 23.1321C82.8835 23.3253 82.799 23.5828 82.799 23.9048C82.799 24.3515 82.964 24.6896 83.294 24.919C83.624 25.1444 84.0446 25.2571 84.5557 25.2571ZM91.2884 26.5007V14.1371H93.0934V18.7312H93.2021C93.3067 18.538 93.4577 18.3146 93.6549 18.0611C93.8521 17.8075 94.1258 17.5862 94.4759 17.397C94.826 17.2038 95.2889 17.1072 95.8644 17.1072C96.613 17.1072 97.2811 17.2964 97.8687 17.6747C98.4563 18.053 98.9171 18.5984 99.2511 19.3107C99.5892 20.0231 99.7582 20.8803 99.7582 21.8824C99.7582 22.8846 99.5912 23.7438 99.2571 24.4602C98.9231 25.1726 98.4643 25.7219 97.8807 26.1083C97.2972 26.4906 96.6311 26.6818 95.8825 26.6818C95.3191 26.6818 94.8582 26.5872 94.5 26.3981C94.1459 26.2089 93.8682 25.9876 93.667 25.734C93.4657 25.4805 93.3108 25.2551 93.2021 25.0579H93.0512V26.5007H91.2884ZM93.0572 21.8643C93.0572 22.5163 93.1518 23.0878 93.341 23.5788C93.5301 24.0698 93.8038 24.4542 94.162 24.7319C94.5202 25.0056 94.9589 25.1424 95.478 25.1424C96.0173 25.1424 96.4681 24.9995 96.8303 24.7138C97.1925 24.424 97.4662 24.0316 97.6513 23.5366C97.8405 23.0415 97.9351 22.4841 97.9351 21.8643C97.9351 21.2526 97.8425 20.7032 97.6574 20.2163C97.4763 19.7293 97.2026 19.3449 96.8363 19.0632C96.4741 18.7815 96.0214 18.6406 95.478 18.6406C94.9548 18.6406 94.5121 18.7754 94.1499 19.0451C93.7917 19.3147 93.5201 19.691 93.3349 20.174C93.1498 20.6569 93.0572 21.2204 93.0572 21.8643ZM103.59 14.1371V26.5007H101.785V14.1371H103.59ZM110.015 26.6878C109.101 26.6878 108.315 26.4926 107.655 26.1023C106.999 25.7078 106.491 25.1545 106.133 24.4421C105.779 23.7257 105.602 22.8866 105.602 21.9247C105.602 20.9749 105.779 20.1378 106.133 19.4133C106.491 18.6889 106.99 18.1234 107.63 17.717C108.274 17.3105 109.027 17.1072 109.888 17.1072C110.411 17.1072 110.918 17.1938 111.409 17.3668C111.9 17.5399 112.341 17.8115 112.732 18.1818C113.122 18.5521 113.43 19.033 113.655 19.6246C113.881 20.2122 113.993 20.9266 113.993 21.7677V22.4077H106.622V21.0554H112.224C112.224 20.5805 112.128 20.1599 111.935 19.7937C111.742 19.4234 111.47 19.1316 111.12 18.9183C110.774 18.705 110.367 18.5984 109.9 18.5984C109.393 18.5984 108.95 18.7231 108.572 18.9726C108.198 19.2181 107.908 19.5401 107.703 19.9386C107.502 20.333 107.401 20.7616 107.401 21.2244V22.2809C107.401 22.9007 107.51 23.4279 107.727 23.8626C107.948 24.2972 108.256 24.6292 108.651 24.8587C109.045 25.084 109.506 25.1967 110.033 25.1967C110.375 25.1967 110.687 25.1484 110.969 25.0518C111.251 24.9512 111.494 24.8023 111.699 24.6051C111.905 24.4079 112.061 24.1644 112.17 23.8746L113.879 24.1825C113.742 24.6856 113.496 25.1263 113.142 25.5046C112.792 25.8789 112.351 26.1707 111.82 26.38C111.293 26.5852 110.691 26.6878 110.015 26.6878ZM124.401 26.6878C123.532 26.6878 122.773 26.4886 122.125 26.0902C121.477 25.6917 120.974 25.1343 120.616 24.418C120.258 23.7016 120.079 22.8645 120.079 21.9066C120.079 20.9447 120.258 20.1036 120.616 19.3832C120.974 18.6627 121.477 18.1033 122.125 17.7049C122.773 17.3065 123.532 17.1072 124.401 17.1072C125.27 17.1072 126.029 17.3065 126.677 17.7049C127.325 18.1033 127.828 18.6627 128.186 19.3832C128.544 20.1036 128.723 20.9447 128.723 21.9066C128.723 22.8645 128.544 23.7016 128.186 24.418C127.828 25.1343 127.325 25.6917 126.677 26.0902C126.029 26.4886 125.27 26.6878 124.401 26.6878ZM124.407 25.1726C124.97 25.1726 125.437 25.0237 125.808 24.7258C126.178 24.428 126.452 24.0316 126.629 23.5366C126.81 23.0415 126.9 22.4962 126.9 21.9006C126.9 21.3089 126.81 20.7656 126.629 20.2706C126.452 19.7715 126.178 19.3711 125.808 19.0692C125.437 18.7674 124.97 18.6165 124.407 18.6165C123.84 18.6165 123.369 18.7674 122.994 19.0692C122.624 19.3711 122.348 19.7715 122.167 20.2706C121.99 20.7656 121.902 21.3089 121.902 21.9006C121.902 22.4962 121.99 23.0415 122.167 23.5366C122.348 24.0316 122.624 24.428 122.994 24.7258C123.369 25.0237 123.84 25.1726 124.407 25.1726ZM132.543 20.995V26.5007H130.738V17.228H132.471V18.7372H132.586C132.799 18.2462 133.133 17.8518 133.588 17.554C134.046 17.2561 134.624 17.1072 135.32 17.1072C135.952 17.1072 136.506 17.24 136.98 17.5057C137.455 17.7673 137.824 18.1577 138.085 18.6768C138.347 19.196 138.478 19.8379 138.478 20.6026V26.5007H136.673V20.8199C136.673 20.1478 136.497 19.6226 136.147 19.2443C135.797 18.862 135.316 18.6708 134.704 18.6708C134.286 18.6708 133.914 18.7614 133.588 18.9425C133.266 19.1236 133.01 19.3892 132.821 19.7393C132.636 20.0855 132.543 20.504 132.543 20.995Z" fill="#E8E8E8"/>
<path d="M152.417 13.6371H155.399V21.6118C155.399 22.5335 155.18 23.3364 154.741 24.0206C154.302 24.7007 153.691 25.228 152.906 25.6023C152.121 25.9725 151.209 26.1577 150.171 26.1577C149.121 26.1577 148.203 25.9725 147.418 25.6023C146.633 25.228 146.024 24.7007 145.589 24.0206C145.154 23.3364 144.937 22.5335 144.937 21.6118V13.6371H147.925V21.3523C147.925 21.7789 148.018 22.1592 148.203 22.4932C148.392 22.8273 148.656 23.0889 148.994 23.278C149.332 23.4672 149.724 23.5618 150.171 23.5618C150.618 23.5618 151.008 23.4672 151.342 23.278C151.68 23.0889 151.944 22.8273 152.133 22.4932C152.322 22.1592 152.417 21.7789 152.417 21.3523V13.6371ZM157.272 26.0007V13.6371H160.224V18.3157H160.284C160.405 18.034 160.576 17.7623 160.798 17.5007C161.023 17.2391 161.309 17.0258 161.655 16.8608C162.005 16.6918 162.424 16.6072 162.911 16.6072C163.554 16.6072 164.156 16.7763 164.716 17.1143C165.279 17.4524 165.734 17.9736 166.08 18.6779C166.426 19.3822 166.599 20.2797 166.599 21.3704C166.599 22.4208 166.432 23.3002 166.098 24.0085C165.768 24.7168 165.321 25.2481 164.758 25.6023C164.198 25.9564 163.577 26.1335 162.892 26.1335C162.426 26.1335 162.021 26.057 161.679 25.9041C161.337 25.7512 161.049 25.5499 160.816 25.3004C160.586 25.0509 160.409 24.7832 160.284 24.4975H160.194V26.0007H157.272ZM160.164 21.3643C160.164 21.8634 160.23 22.298 160.363 22.6683C160.5 23.0386 160.695 23.3263 160.949 23.5316C161.206 23.7328 161.514 23.8334 161.872 23.8334C162.234 23.8334 162.542 23.7328 162.796 23.5316C163.049 23.3263 163.241 23.0386 163.369 22.6683C163.502 22.298 163.569 21.8634 163.569 21.3643C163.569 20.8653 163.502 20.4326 163.369 20.0664C163.241 19.7002 163.049 19.4164 162.796 19.2152C162.546 19.014 162.238 18.9133 161.872 18.9133C161.51 18.9133 161.202 19.0119 160.949 19.2092C160.695 19.4064 160.5 19.6881 160.363 20.0543C160.23 20.4206 160.164 20.8572 160.164 21.3643ZM174.129 21.9982V16.728H177.075V26.0007H174.261V24.2741H174.165C173.96 24.8416 173.609 25.2924 173.114 25.6264C172.623 25.9564 172.03 26.1214 171.334 26.1214C170.702 26.1214 170.146 25.9765 169.667 25.6868C169.188 25.397 168.816 24.9925 168.551 24.4734C168.285 23.9502 168.15 23.3384 168.146 22.6381V16.728H171.098V22.0586C171.102 22.5617 171.235 22.9581 171.497 23.2479C171.758 23.5376 172.114 23.6825 172.565 23.6825C172.859 23.6825 173.123 23.6181 173.356 23.4893C173.593 23.3565 173.781 23.1654 173.917 22.9158C174.058 22.6623 174.129 22.3564 174.129 21.9982ZM181.906 20.7123V26.0007H178.954V16.728H181.761V18.4304H181.863C182.069 17.8629 182.419 17.4182 182.914 17.0962C183.409 16.7702 183.999 16.6072 184.683 16.6072C185.335 16.6072 185.9 16.7541 186.379 17.0479C186.862 17.3377 187.236 17.7442 187.502 18.2674C187.772 18.7866 187.904 19.3943 187.9 20.0905V26.0007H184.948V20.6701C184.952 20.1549 184.822 19.7525 184.556 19.4627C184.294 19.1729 183.93 19.028 183.463 19.028C183.153 19.028 182.88 19.0965 182.642 19.2333C182.409 19.3661 182.228 19.5573 182.099 19.8068C181.974 20.0563 181.91 20.3582 181.906 20.7123ZM194.962 16.728V18.9013H189.112V16.728H194.962ZM190.338 14.5064H193.29V23.0849C193.29 23.266 193.318 23.4129 193.374 23.5256C193.435 23.6342 193.521 23.7127 193.634 23.761C193.747 23.8053 193.882 23.8274 194.038 23.8274C194.151 23.8274 194.27 23.8173 194.395 23.7972C194.523 23.7731 194.62 23.7529 194.684 23.7368L195.131 25.8679C194.99 25.9081 194.791 25.9584 194.533 26.0188C194.28 26.0792 193.976 26.1174 193.622 26.1335C192.93 26.1657 192.336 26.0852 191.841 25.892C191.35 25.6948 190.974 25.389 190.712 24.9744C190.455 24.5599 190.33 24.0387 190.338 23.4109V14.5064ZM202.451 21.9982V16.728H205.397V26.0007H202.584V24.2741H202.487C202.282 24.8416 201.932 25.2924 201.437 25.6264C200.946 25.9564 200.352 26.1214 199.656 26.1214C199.024 26.1214 198.469 25.9765 197.99 25.6868C197.511 25.397 197.138 24.9925 196.873 24.4734C196.607 23.9502 196.472 23.3384 196.468 22.6381V16.728H199.42V22.0586C199.424 22.5617 199.557 22.9581 199.819 23.2479C200.08 23.5376 200.437 23.6825 200.887 23.6825C201.181 23.6825 201.445 23.6181 201.678 23.4893C201.916 23.3565 202.103 23.1654 202.24 22.9158C202.38 22.6623 202.451 22.3564 202.451 21.9982Z" fill="#DD4814"/>
</g>
<defs>
<filter id="filter0_d_1_56" x="2.39972" y="0.39972" width="39.202" height="39.202" filterUnits="userSpaceOnUse" color-interpolation-filters="sRGB">
<feFlood flood-opacity="0" result="BackgroundImageFix"/>
<feColorMatrix in="SourceAlpha" type="matrix" values="0 0 0 0 0 0 0 0 0 0 0 0 0 0 0 0 0 0 127 0" result="hardAlpha"/>
<feOffset/>
<feGaussianBlur stdDeviation="2.80014"/>
<feComposite in2="hardAlpha" operator="out"/>
<feColorMatrix type="matrix" values="0 0 0 0 0 0 0 0 0 0 0 0 0 0 0 0 0 0 0.25 0"/>
<feBlend mode="normal" in2="BackgroundImageFix" result="effect1_dropShadow_1_56"/>
<feBlend mode="normal" in="SourceGraphic" in2="effect1_dropShadow_1_56" result="shape"/>
</filter>
<filter id="filter1_d_1_56" x="36.2871" y="3.78642" width="176.429" height="32.4286" filterUnits="userSpaceOnUse" color-interpolation-filters="sRGB">
<feFlood flood-opacity="0" result="BackgroundImageFix"/>
<feColorMatrix in="SourceAlpha" type="matrix" values="0 0 0 0 0 0 0 0 0 0 0 0 0 0 0 0 0 0 127 0" result="hardAlpha"/>
<feOffset/>
<feGaussianBlur stdDeviation="2.85714"/>
<feComposite in2="hardAlpha" operator="out"/>
<feColorMatrix type="matrix" values="0 0 0 0 0 0 0 0 0 0 0 0 0 0 0 0 0 0 0.25 0"/>
<feBlend mode="normal" in2="BackgroundImageFix" result="effect1_dropShadow_1_56"/>
<feBlend mode="normal" in="SourceGraphic" in2="effect1_dropShadow_1_56" result="shape"/>
</filter>
<linearGradient id="paint0_linear_1_56" x1="107.501" y1="0" x2="107.501" y2="40.0014" gradientUnits="userSpaceOnUse">
<stop stop-color="#6E240A"/>
<stop offset="1" stop-color="#421606"/>
</linearGradient>
</defs>
</svg>
