<svg width="40" height="40" viewBox="0 0 40 40" fill="none" xmlns="http://www.w3.org/2000/svg">
<rect width="40" height="40" rx="8" fill="url(#paint0_linear_1_68)"/>
<rect x="1.05" y="1.05" width="37.9" height="37.9" rx="6.95" stroke="white" stroke-opacity="0.15" stroke-width="2.1"/>
<g filter="url(#filter0_d_1_68)">
<path d="M20 34C27.732 34 34 27.732 34 20C34 12.268 27.732 6 20 6C12.268 6 6 12.268 6 20C6 27.732 12.268 34 20 34Z" fill="#DD4814"/>
<path d="M10.4801 21.869C11.5123 21.869 12.3491 21.0322 12.3491 20C12.3491 18.9678 11.5123 18.131 10.4801 18.131C9.44783 18.131 8.61103 18.9678 8.61103 20C8.61103 21.0322 9.44783 21.869 10.4801 21.869Z" fill="white"/>
<path d="M15.4951 26.7559C13.8594 25.6631 12.6426 23.9924 12.1372 22.0355C12.7277 21.5543 13.1048 20.8215 13.1048 20C13.1048 19.1785 12.7277 18.4457 12.1372 17.9645C12.6426 16.0076 13.8594 14.3369 15.4951 13.2441L16.8617 15.5331C15.458 16.5211 14.54 18.1526 14.54 20C14.54 21.8474 15.458 23.4789 16.8617 24.4669L15.4951 26.7559Z" fill="white"/>
<path d="M23.1414 10.821C22.6252 11.7149 22.9315 12.858 23.8255 13.3741C24.7194 13.8902 25.8625 13.5839 26.3786 12.69C26.8947 11.7961 26.5884 10.653 25.6945 10.1369C24.8006 9.62074 23.6575 9.92703 23.1414 10.821Z" fill="white"/>
<path d="M16.4016 12.7207C18.1659 11.8505 20.2212 11.6321 22.1687 12.1728C22.2901 12.9248 22.7362 13.6179 23.4476 14.0286C24.159 14.4393 24.9822 14.4791 25.6942 14.2083C27.1362 15.6245 27.9747 17.5136 28.1032 19.4766L25.4376 19.5156C25.2839 17.8059 24.3299 16.1952 22.73 15.2715C21.1301 14.3478 19.2582 14.327 17.7008 15.0487L16.4016 12.7207Z" fill="white"/>
<path d="M26.3786 27.31C25.8625 26.4161 24.7194 26.1098 23.8255 26.6259C22.9315 27.142 22.6252 28.2851 23.1414 29.179C23.6575 30.073 24.8006 30.3792 25.6945 29.8631C26.5884 29.347 26.8947 28.2039 26.3786 27.31Z" fill="white"/>
<path d="M28.1032 20.5234C27.9747 22.4863 27.1362 24.3755 25.6942 25.7917C24.9822 25.5209 24.159 25.5606 23.4476 25.9714C22.7362 26.3821 22.2901 27.0752 22.1687 27.8271C20.2212 28.3679 18.1659 28.1494 16.4016 27.2793L17.7008 24.9513C19.2582 25.673 21.1301 25.6522 22.73 24.7285C24.3299 23.8048 25.2839 22.1941 25.4376 20.4844L28.1032 20.5234Z" fill="white"/>
</g>
<defs>
<filter id="filter0_d_1_68" x="2" y="2" width="36" height="36" filterUnits="userSpaceOnUse" color-interpolation-filters="sRGB">
<feFlood flood-opacity="0" result="BackgroundImageFix"/>
<feColorMatrix in="SourceAlpha" type="matrix" values="0 0 0 0 0 0 0 0 0 0 0 0 0 0 0 0 0 0 127 0" result="hardAlpha"/>
<feOffset/>
<feGaussianBlur stdDeviation="2"/>
<feComposite in2="hardAlpha" operator="out"/>
<feColorMatrix type="matrix" values="0 0 0 0 0 0 0 0 0 0 0 0 0 0 0 0 0 0 0.25 0"/>
<feBlend mode="normal" in2="BackgroundImageFix" result="effect1_dropShadow_1_68"/>
<feBlend mode="normal" in="SourceGraphic" in2="effect1_dropShadow_1_68" result="shape"/>
</filter>
<linearGradient id="paint0_linear_1_68" x1="20" y1="0" x2="20" y2="40" gradientUnits="userSpaceOnUse">
<stop stop-color="#6E240A"/>
<stop offset="1" stop-color="#421606"/>
</linearGradient>
</defs>
</svg>
