<svg width="56" height="56" viewBox="0 0 56 56" fill="none" xmlns="http://www.w3.org/2000/svg">
<rect width="56" height="56" rx="8.4" fill="url(#paint0_linear_1_62)"/>
<rect x="1.05" y="1.05" width="53.9" height="53.9" rx="7.35" stroke="white" stroke-opacity="0.15" stroke-width="2.1"/>
<g filter="url(#filter0_d_1_62)">
<path d="M28 48C39.0457 48 48 39.0457 48 28C48 16.9543 39.0457 8 28 8C16.9543 8 8 16.9543 8 28C8 39.0457 16.9543 48 28 48Z" fill="#DD4814"/>
<path d="M14.4001 30.67C15.8747 30.67 17.0701 29.4746 17.0701 28C17.0701 26.5254 15.8747 25.33 14.4001 25.33C12.9255 25.33 11.73 26.5254 11.73 28C11.73 29.4746 12.9255 30.67 14.4001 30.67Z" fill="white"/>
<path d="M21.5645 37.6513C19.2277 36.0901 17.4894 33.7034 16.7674 30.9078C17.611 30.2204 18.1498 29.1735 18.1498 28C18.1498 26.8265 17.611 25.7796 16.7674 25.0922C17.4894 22.2966 19.2277 19.9099 21.5645 18.3487L23.5167 21.6188C21.5114 23.0301 20.2 25.3609 20.2 28C20.2 30.6392 21.5114 32.9699 23.5167 34.3812L21.5645 37.6513Z" fill="white"/>
<path d="M32.4876 14.8871C31.7503 16.1642 32.1879 17.7971 33.465 18.5344C34.742 19.2718 36.375 18.8342 37.1123 17.5571C37.8496 16.2801 37.412 14.6471 36.135 13.9098C34.8579 13.1725 33.225 13.61 32.4876 14.8871Z" fill="white"/>
<path d="M22.8595 17.601C25.3799 16.3579 28.316 16.0459 31.0981 16.8184C31.2716 17.8926 31.9088 18.8827 32.9251 19.4694C33.9414 20.0562 35.1175 20.113 36.1346 19.7262C38.1946 21.7492 39.3924 24.4481 39.5761 27.2523L35.768 27.3079C35.5484 24.8656 34.1856 22.5646 31.9 21.245C29.6144 19.9254 26.9403 19.8957 24.7154 20.9267L22.8595 17.601Z" fill="white"/>
<path d="M37.1123 38.4428C36.375 37.1658 34.742 36.7282 33.465 37.4655C32.1879 38.2029 31.7503 39.8358 32.4877 41.1129C33.225 42.3899 34.8579 42.8275 36.135 42.0902C37.4121 41.3529 37.8496 39.7199 37.1123 38.4428Z" fill="white"/>
<path d="M39.5761 28.7476C39.3924 31.5519 38.1946 34.2507 36.1346 36.2738C35.1175 35.8869 33.9415 35.9438 32.9251 36.5305C31.9088 37.1173 31.2716 38.1074 31.0981 39.1816C28.3161 39.9541 25.3799 39.6421 22.8595 38.399L24.7154 35.0733C26.9403 36.1043 29.6144 36.0745 31.9 34.755C34.1856 33.4354 35.5484 31.1344 35.768 28.692L39.5761 28.7476Z" fill="white"/>
</g>
<defs>
<filter id="filter0_d_1_62" x="2.28571" y="2.28571" width="51.4286" height="51.4286" filterUnits="userSpaceOnUse" color-interpolation-filters="sRGB">
<feFlood flood-opacity="0" result="BackgroundImageFix"/>
<feColorMatrix in="SourceAlpha" type="matrix" values="0 0 0 0 0 0 0 0 0 0 0 0 0 0 0 0 0 0 127 0" result="hardAlpha"/>
<feOffset/>
<feGaussianBlur stdDeviation="2.85714"/>
<feComposite in2="hardAlpha" operator="out"/>
<feColorMatrix type="matrix" values="0 0 0 0 0 0 0 0 0 0 0 0 0 0 0 0 0 0 0.25 0"/>
<feBlend mode="normal" in2="BackgroundImageFix" result="effect1_dropShadow_1_62"/>
<feBlend mode="normal" in="SourceGraphic" in2="effect1_dropShadow_1_62" result="shape"/>
</filter>
<linearGradient id="paint0_linear_1_62" x1="28" y1="0" x2="28" y2="56" gradientUnits="userSpaceOnUse">
<stop stop-color="#6E240A"/>
<stop offset="1" stop-color="#421606"/>
</linearGradient>
</defs>
</svg>
