<svg width="144" height="56" viewBox="0 0 144 56" fill="none" xmlns="http://www.w3.org/2000/svg">
<rect width="144" height="56" rx="8" fill="url(#paint0_linear_1_50)"/>
<rect x="1.05" y="1.05" width="141.9" height="53.9" rx="6.95" stroke="white" stroke-opacity="0.15" stroke-width="2.1"/>
<g filter="url(#filter0_d_1_50)">
<path d="M50.9502 14.4264L33.0172 46.4937C32.6469 47.1558 31.6957 47.1597 31.3199 46.5008L13.0313 14.4295C12.6219 13.7115 13.2358 12.8419 14.0495 12.9873L32.0016 16.1961C32.1161 16.2166 32.2334 16.2164 32.3479 16.1956L49.9247 12.9919C50.7355 12.8441 51.3524 13.707 50.9502 14.4264Z" fill="url(#paint1_linear_1_50)"/>
<path d="M40.5532 8.77844L27.2823 11.3788C27.0642 11.4216 26.9027 11.6064 26.8895 11.8283L26.0732 25.6157C26.054 25.9404 26.3522 26.1925 26.6691 26.1194L30.364 25.2667C30.7097 25.187 31.022 25.4914 30.951 25.8391L29.8532 31.2145C29.7794 31.5762 30.119 31.8856 30.4723 31.7783L32.7544 31.0849C33.1082 30.9775 33.4482 31.2877 33.3733 31.6498L31.6288 40.0933C31.5197 40.6215 32.2222 40.9095 32.5152 40.4567L32.7109 40.1542L43.5248 18.5732C43.7058 18.2119 43.3936 17.7999 42.9967 17.8764L39.1935 18.6105C38.8361 18.6794 38.532 18.3465 38.6329 17.9969L41.1152 9.39173C41.2162 9.04147 40.911 8.70835 40.5532 8.77844Z" fill="url(#paint2_linear_1_50)"/>
</g>
<g filter="url(#filter1_d_1_50)">
<path d="M61.2784 24.5V12.8636H65.5398C66.3655 12.8636 67.0492 13 67.5909 13.2727C68.1326 13.5417 68.5379 13.9072 68.8068 14.3693C69.0757 14.8276 69.2102 15.3447 69.2102 15.9204C69.2102 16.4053 69.1212 16.8144 68.9432 17.1477C68.7651 17.4773 68.5265 17.7424 68.2273 17.9432C67.9318 18.1401 67.606 18.2841 67.25 18.375V18.4886C67.6363 18.5076 68.0132 18.6326 68.3807 18.8636C68.7519 19.0909 69.0587 19.4148 69.3011 19.8352C69.5435 20.2557 69.6648 20.767 69.6648 21.3693C69.6648 21.964 69.5246 22.4981 69.2443 22.9716C68.9678 23.4413 68.5398 23.8144 67.9602 24.0909C67.3807 24.3636 66.6401 24.5 65.7386 24.5H61.2784ZM63.0341 22.9943H65.5682C66.4091 22.9943 67.0113 22.8314 67.375 22.5057C67.7386 22.1799 67.9204 21.7727 67.9204 21.2841C67.9204 20.9167 67.8276 20.5795 67.642 20.2727C67.4564 19.9659 67.1913 19.7216 66.8466 19.5398C66.5057 19.3579 66.1004 19.267 65.6307 19.267H63.0341V22.9943ZM63.0341 17.8977H65.3863C65.7803 17.8977 66.1345 17.822 66.4488 17.6704C66.767 17.5189 67.0189 17.3068 67.2045 17.0341C67.3939 16.7576 67.4886 16.4318 67.4886 16.0568C67.4886 15.5758 67.3201 15.1723 66.9829 14.8466C66.6458 14.5208 66.1288 14.3579 65.4318 14.3579H63.0341V17.8977ZM77.1392 20.8807V15.7727H78.8437V24.5H77.1733V22.9886H77.0824C76.8816 23.4545 76.5596 23.8428 76.1165 24.1534C75.6771 24.4602 75.1297 24.6136 74.4744 24.6136C73.9138 24.6136 73.4176 24.4905 72.9858 24.2443C72.5577 23.9943 72.2206 23.625 71.9744 23.1364C71.732 22.6477 71.6108 22.0436 71.6108 21.3239V15.7727H73.3096V21.1193C73.3096 21.714 73.4744 22.1875 73.804 22.5398C74.1335 22.892 74.5615 23.0682 75.088 23.0682C75.4062 23.0682 75.7225 22.9886 76.0369 22.8295C76.3551 22.6704 76.6184 22.4299 76.8267 22.1079C77.0388 21.786 77.143 21.3769 77.1392 20.8807ZM81.1264 24.5V15.7727H82.8253V24.5H81.1264ZM81.9844 14.4261C81.6889 14.4261 81.4351 14.3276 81.223 14.1307C81.0147 13.9299 80.9105 13.6913 80.9105 13.4148C80.9105 13.1345 81.0147 12.8958 81.223 12.6989C81.4351 12.4981 81.6889 12.3977 81.9844 12.3977C82.2798 12.3977 82.5317 12.4981 82.74 12.6989C82.9522 12.8958 83.0582 13.1345 83.0582 13.4148C83.0582 13.6913 82.9522 13.9299 82.74 14.1307C82.5317 14.3276 82.2798 14.4261 81.9844 14.4261ZM86.8096 12.8636V24.5H85.1108V12.8636H86.8096ZM93.169 15.7727V17.1364H88.402V15.7727H93.169ZM89.6804 13.6818H91.3792V21.9375C91.3792 22.267 91.4285 22.5151 91.527 22.6818C91.6254 22.8447 91.7523 22.9564 91.9076 23.017C92.0667 23.0739 92.2391 23.1023 92.4247 23.1023C92.5611 23.1023 92.6804 23.0928 92.7826 23.0739C92.8849 23.0549 92.9645 23.0398 93.0213 23.0284L93.3281 24.4318C93.2296 24.4697 93.0895 24.5076 92.9076 24.5454C92.7258 24.5871 92.4986 24.6098 92.2258 24.6136C91.7789 24.6212 91.3622 24.5417 90.9758 24.375C90.5895 24.2083 90.277 23.9508 90.0383 23.6023C89.7997 23.2538 89.6804 22.8163 89.6804 22.2898V13.6818ZM101.175 24.5L98.6065 15.7727H100.362L102.072 22.1818H102.158L103.874 15.7727H105.629L107.334 22.1534H107.419L109.118 15.7727H110.874L108.311 24.5H106.578L104.805 18.1989H104.675L102.902 24.5H101.175ZM112.486 24.5V15.7727H114.185V24.5H112.486ZM113.344 14.4261C113.048 14.4261 112.794 14.3276 112.582 14.1307C112.374 13.9299 112.27 13.6913 112.27 13.4148C112.27 13.1345 112.374 12.8958 112.582 12.6989C112.794 12.4981 113.048 12.3977 113.344 12.3977C113.639 12.3977 113.891 12.4981 114.099 12.6989C114.312 12.8958 114.418 13.1345 114.418 13.4148C114.418 13.6913 114.312 13.9299 114.099 14.1307C113.891 14.3276 113.639 14.4261 113.344 14.4261ZM120.544 15.7727V17.1364H115.777V15.7727H120.544ZM117.055 13.6818H118.754V21.9375C118.754 22.267 118.803 22.5151 118.902 22.6818C119 22.8447 119.127 22.9564 119.283 23.017C119.442 23.0739 119.614 23.1023 119.8 23.1023C119.936 23.1023 120.055 23.0928 120.158 23.0739C120.26 23.0549 120.339 23.0398 120.396 23.0284L120.703 24.4318C120.605 24.4697 120.464 24.5076 120.283 24.5454C120.101 24.5871 119.874 24.6098 119.601 24.6136C119.154 24.6212 118.737 24.5417 118.351 24.375C117.964 24.2083 117.652 23.9508 117.413 23.6023C117.175 23.2538 117.055 22.8163 117.055 22.2898V13.6818ZM124.31 19.3182V24.5H122.611V12.8636H124.287V17.1932H124.395C124.599 16.7235 124.912 16.3504 125.332 16.0739C125.753 15.7973 126.302 15.6591 126.98 15.6591C127.579 15.6591 128.101 15.7822 128.548 16.0284C128.999 16.2746 129.348 16.642 129.594 17.1307C129.844 17.6155 129.969 18.2216 129.969 18.9489V24.5H128.27V19.1534C128.27 18.5133 128.105 18.017 127.776 17.6648C127.446 17.3087 126.988 17.1307 126.401 17.1307C125.999 17.1307 125.639 17.2159 125.321 17.3864C125.007 17.5568 124.758 17.8068 124.577 18.1364C124.399 18.4621 124.31 18.8561 124.31 19.3182Z" fill="#E8E8E8"/>
<path d="M63.7429 31.1364L66.5078 40.1918H66.6104L69.3753 31.1364H72.7198L68.5483 43.5H64.5699L60.3984 31.1364H63.7429ZM74.0509 43.5V34.2273H77.003V43.5H74.0509ZM75.53 33.1467C75.1155 33.1467 74.7593 33.0098 74.4615 32.7361C74.1636 32.4584 74.0147 32.1244 74.0147 31.734C74.0147 31.3476 74.1636 31.0176 74.4615 30.744C74.7593 30.4663 75.1155 30.3274 75.53 30.3274C75.9485 30.3274 76.3047 30.4663 76.5985 30.744C76.8963 31.0176 77.0453 31.3476 77.0453 31.734C77.0453 32.1244 76.8963 32.4584 76.5985 32.7361C76.3047 33.0098 75.9485 33.1467 75.53 33.1467ZM84.116 34.2273V36.4006H78.2662V34.2273H84.116ZM79.4917 32.0057H82.4438V40.5842C82.4438 40.7653 82.472 40.9122 82.5283 41.0248C82.5887 41.1335 82.6752 41.212 82.7879 41.2603C82.9006 41.3046 83.0354 41.3267 83.1924 41.3267C83.3051 41.3267 83.4238 41.3166 83.5485 41.2965C83.6773 41.2724 83.7739 41.2522 83.8383 41.2361L84.285 43.3672C84.1442 43.4074 83.945 43.4577 83.6874 43.5181C83.4338 43.5785 83.13 43.6167 82.7758 43.6328C82.0836 43.665 81.4899 43.5845 80.9949 43.3913C80.5039 43.1941 80.1276 42.8882 79.866 42.4737C79.6084 42.0592 79.4837 41.538 79.4917 40.9101V32.0057ZM89.8571 43.6751C88.8872 43.6751 88.0501 43.4839 87.3458 43.1016C86.6455 42.7152 86.1062 42.1658 85.7279 41.4535C85.3536 40.7371 85.1664 39.8859 85.1664 38.8998C85.1664 37.942 85.3556 37.1049 85.7339 36.3885C86.1122 35.6681 86.6455 35.1087 87.3337 34.7102C88.0219 34.3078 88.8329 34.1065 89.7666 34.1065C90.4266 34.1065 91.0303 34.2092 91.5777 34.4144C92.125 34.6197 92.5979 34.9235 92.9963 35.326C93.3948 35.7284 93.7047 36.2255 93.926 36.8171C94.1474 37.4047 94.2581 38.0788 94.2581 38.8395V39.576H86.1988V37.8615H91.5113C91.5072 37.5476 91.4328 37.2679 91.2879 37.0224C91.143 36.7769 90.9438 36.5857 90.6902 36.4489C90.4407 36.308 90.1529 36.2376 89.8269 36.2376C89.4969 36.2376 89.2011 36.312 88.9395 36.4609C88.6779 36.6058 88.4706 36.805 88.3177 37.0586C88.1648 37.3081 88.0843 37.5918 88.0762 37.9098V39.6545C88.0762 40.0328 88.1507 40.3648 88.2996 40.6506C88.4485 40.9323 88.6598 41.1516 88.9335 41.3086C89.2072 41.4655 89.5331 41.544 89.9115 41.544C90.1731 41.544 90.4105 41.5078 90.6238 41.4354C90.8371 41.3629 91.0202 41.2563 91.1732 41.1154C91.3261 40.9745 91.4408 40.8015 91.5173 40.5962L94.2279 40.6747C94.1152 41.2824 93.8677 41.8117 93.4853 42.2624C93.107 42.7092 92.61 43.0573 91.9942 43.3068C91.3784 43.5523 90.6661 43.6751 89.8571 43.6751Z" fill="#FECF26"/>
</g>
<defs>
<filter id="filter0_d_1_50" x="6.28571" y="2.28571" width="51.4286" height="51.4286" filterUnits="userSpaceOnUse" color-interpolation-filters="sRGB">
<feFlood flood-opacity="0" result="BackgroundImageFix"/>
<feColorMatrix in="SourceAlpha" type="matrix" values="0 0 0 0 0 0 0 0 0 0 0 0 0 0 0 0 0 0 127 0" result="hardAlpha"/>
<feOffset/>
<feGaussianBlur stdDeviation="2.85714"/>
<feComposite in2="hardAlpha" operator="out"/>
<feColorMatrix type="matrix" values="0 0 0 0 0 0 0 0 0 0 0 0 0 0 0 0 0 0 0.25 0"/>
<feBlend mode="normal" in2="BackgroundImageFix" result="effect1_dropShadow_1_50"/>
<feBlend mode="normal" in="SourceGraphic" in2="effect1_dropShadow_1_50" result="shape"/>
</filter>
<filter id="filter1_d_1_50" x="54.4" y="3.9" width="83.2" height="48.2" filterUnits="userSpaceOnUse" color-interpolation-filters="sRGB">
<feFlood flood-opacity="0" result="BackgroundImageFix"/>
<feColorMatrix in="SourceAlpha" type="matrix" values="0 0 0 0 0 0 0 0 0 0 0 0 0 0 0 0 0 0 127 0" result="hardAlpha"/>
<feOffset/>
<feGaussianBlur stdDeviation="2.8"/>
<feComposite in2="hardAlpha" operator="out"/>
<feColorMatrix type="matrix" values="0 0 0 0 0 0 0 0 0 0 0 0 0 0 0 0 0 0 0.25 0"/>
<feBlend mode="normal" in2="BackgroundImageFix" result="effect1_dropShadow_1_50"/>
<feBlend mode="normal" in="SourceGraphic" in2="effect1_dropShadow_1_50" result="shape"/>
</filter>
<linearGradient id="paint0_linear_1_50" x1="72" y1="0" x2="72" y2="56" gradientUnits="userSpaceOnUse">
<stop offset="0.0019" stop-color="#64461A"/>
<stop offset="0.002" stop-color="#1A1711"/>
<stop offset="0.0021" stop-color="#2D2D2D"/>
<stop offset="0.0022" stop-color="#457F35"/>
<stop offset="0.0023" stop-color="#445A7A"/>
<stop offset="0.0024" stop-color="#0071A3"/>
<stop offset="0.996899" stop-color="#670198"/>
<stop offset="0.997" stop-color="#BD33FE"/>
</linearGradient>
<linearGradient id="paint1_linear_1_50" x1="12.5848" y1="11.8413" x2="34.9038" y2="42.1522" gradientUnits="userSpaceOnUse">
<stop stop-color="#41D1FF"/>
<stop offset="1" stop-color="#BD34FE"/>
</linearGradient>
<linearGradient id="paint2_linear_1_50" x1="30.9712" y1="9.48444" x2="35.0086" y2="37.1805" gradientUnits="userSpaceOnUse">
<stop stop-color="#FFEA83"/>
<stop offset="0.0833333" stop-color="#FFDD35"/>
<stop offset="1" stop-color="#FFA800"/>
</linearGradient>
</defs>
</svg>
