<svg width="300" height="40" viewBox="0 0 300 40" fill="none" xmlns="http://www.w3.org/2000/svg">
<rect width="300.001" height="40.0014" rx="8" fill="url(#paint0_linear_1_56)"/>
<rect x="1.07143" y="1.07143" width="297.858" height="37.8585" rx="6.92857" stroke="white" stroke-opacity="0.15" stroke-width="2.14286"/>
<g filter="url(#filter0_d_1_56)">
<path d="M26.3637 9.20463H32.6919L33.5921 10.1048V29.9087L32.6919 30.8089H24.0682L24.5048 30.1337H32.4129L32.917 29.6296V10.3839L32.4129 9.87976H26.9578L26.3142 13.2059H25.6255L26.2422 9.84825L26.3682 9.20463H26.3637ZM11.0877 30.8089L10.1875 29.9087V10.1048L11.0877 9.20463H20.0444L19.5943 9.87976H11.3667L10.8626 10.3839V29.6296L11.3667 30.1337H17.884L17.776 30.8089H11.0877ZM12.4379 28.5584H16.2637L16.1287 29.2336H11.9879L11.7628 29.0085V24.9577L12.4379 26.308V28.5584ZM27.7409 28.5584L28.4161 29.2336H25.0404L25.4905 28.5584H27.7409Z" fill="#B7BBBD"/>
<path d="M20.391 22.7073H14.2383L13.4911 21.303L23.8432 6L25.4725 6.67513L23.4291 17.3062H29.5413L30.2975 18.697L20.3955 34L18.7482 33.3699L20.391 22.7073ZM12.663 12.3552C12.4839 12.3552 12.3122 12.2841 12.1856 12.1575C12.059 12.0309 11.9879 11.8592 11.9879 11.6801C11.9879 11.5011 12.059 11.3293 12.1856 11.2027C12.3122 11.0761 12.4839 11.005 12.663 11.005C12.842 11.005 13.0138 11.0761 13.1404 11.2027C13.267 11.3293 13.3381 11.5011 13.3381 11.6801C13.3381 11.8592 13.267 12.0309 13.1404 12.1575C13.0138 12.2841 12.842 12.3552 12.663 12.3552ZM14.4633 12.3552C14.2843 12.3552 14.1126 12.2841 13.9859 12.1575C13.8593 12.0309 13.7882 11.8592 13.7882 11.6801C13.7882 11.5011 13.8593 11.3293 13.9859 11.2027C14.1126 11.0761 14.2843 11.005 14.4633 11.005C14.6424 11.005 14.8141 11.0761 14.9407 11.2027C15.0673 11.3293 15.1385 11.5011 15.1385 11.6801C15.1385 11.8592 15.0673 12.0309 14.9407 12.1575C14.8141 12.2841 14.6424 12.3552 14.4633 12.3552ZM16.2637 12.3552C16.0846 12.3552 15.9129 12.2841 15.7863 12.1575C15.6597 12.0309 15.5886 11.8592 15.5886 11.6801C15.5886 11.5011 15.6597 11.3293 15.7863 11.2027C15.9129 11.0761 16.0846 11.005 16.2637 11.005C16.4428 11.005 16.6145 11.0761 16.7411 11.2027C16.8677 11.3293 16.9388 11.5011 16.9388 11.6801C16.9388 11.8592 16.8677 12.0309 16.7411 12.1575C16.6145 12.2841 16.4428 12.3552 16.2637 12.3552Z" fill="url(#paint1_linear_1_56)"/>
</g>
<g filter="url(#filter1_d_1_56)">
<path d="M47.3622 26.5007H43.3597V14.1371H47.489C48.7004 14.1371 49.7407 14.3846 50.6101 14.8796C51.4794 15.3706 52.1455 16.0769 52.6083 16.9986C53.0751 17.9162 53.3086 19.0169 53.3086 20.3008C53.3086 21.5886 53.0731 22.6954 52.6022 23.6211C52.1354 24.5467 51.4593 25.2591 50.5738 25.7582C49.6884 26.2532 48.6179 26.5007 47.3622 26.5007ZM45.2251 24.8707H47.2596C48.2013 24.8707 48.9841 24.6936 49.6079 24.3395C50.2317 23.9813 50.6986 23.4641 51.0085 22.788C51.3184 22.1078 51.4733 21.2788 51.4733 20.3008C51.4733 19.3308 51.3184 18.5078 51.0085 17.8317C50.7026 17.1555 50.2458 16.6424 49.6381 16.2922C49.0304 15.9421 48.2758 15.767 47.3743 15.767H45.2251V24.8707ZM59.4798 26.6878C58.5662 26.6878 57.7794 26.4926 57.1194 26.1023C56.4634 25.7078 55.9563 25.1545 55.5981 24.4421C55.2439 23.7257 55.0668 22.8866 55.0668 21.9247C55.0668 20.9749 55.2439 20.1378 55.5981 19.4133C55.9563 18.6889 56.4553 18.1234 57.0952 17.717C57.7392 17.3105 58.4918 17.1072 59.353 17.1072C59.8762 17.1072 60.3833 17.1938 60.8743 17.3668C61.3654 17.5399 61.806 17.8115 62.1964 18.1818C62.5868 18.5521 62.8947 19.033 63.1201 19.6246C63.3455 20.2122 63.4582 20.9266 63.4582 21.7677V22.4077H56.0871V21.0554H61.6893C61.6893 20.5805 61.5927 20.1599 61.3996 19.7937C61.2064 19.4234 60.9347 19.1316 60.5846 18.9183C60.2385 18.705 59.832 18.5984 59.3651 18.5984C58.858 18.5984 58.4153 18.7231 58.037 18.9726C57.6627 19.2181 57.3729 19.5401 57.1677 19.9386C56.9664 20.333 56.8658 20.7616 56.8658 21.2244V22.2809C56.8658 22.9007 56.9745 23.4279 57.1918 23.8626C57.4132 24.2972 57.7211 24.6292 58.1155 24.8587C58.5099 25.084 58.9707 25.1967 59.4979 25.1967C59.84 25.1967 60.1519 25.1484 60.4337 25.0518C60.7154 24.9512 60.9589 24.8023 61.1641 24.6051C61.3694 24.4079 61.5263 24.1644 61.635 23.8746L63.3435 24.1825C63.2066 24.6856 62.9611 25.1263 62.6069 25.5046C62.2568 25.8789 61.8161 26.1707 61.2849 26.38C60.7576 26.5852 60.156 26.6878 59.4798 26.6878ZM65.4609 29.978V17.228H67.2237V18.7312H67.3746C67.4793 18.538 67.6302 18.3146 67.8274 18.0611C68.0246 17.8075 68.2983 17.5862 68.6484 17.397C68.9985 17.2038 69.4614 17.1072 70.0369 17.1072C70.7855 17.1072 71.4536 17.2964 72.0412 17.6747C72.6288 18.053 73.0896 18.5984 73.4236 19.3107C73.7617 20.0231 73.9307 20.8803 73.9307 21.8824C73.9307 22.8846 73.7637 23.7438 73.4297 24.4602C73.0956 25.1726 72.6368 25.7219 72.0532 26.1083C71.4697 26.4906 70.8036 26.6818 70.055 26.6818C69.4916 26.6818 69.0307 26.5872 68.6726 26.3981C68.3184 26.2089 68.0407 25.9876 67.8395 25.734C67.6382 25.4805 67.4833 25.2551 67.3746 25.0579H67.2659V29.978H65.4609ZM67.2297 21.8643C67.2297 22.5163 67.3243 23.0878 67.5135 23.5788C67.7026 24.0698 67.9763 24.4542 68.3345 24.7319C68.6927 25.0056 69.1314 25.1424 69.6505 25.1424C70.1898 25.1424 70.6406 24.9995 71.0028 24.7138C71.365 24.424 71.6387 24.0316 71.8238 23.5366C72.013 23.0415 72.1076 22.4841 72.1076 21.8643C72.1076 21.2526 72.015 20.7032 71.8299 20.2163C71.6488 19.7293 71.3751 19.3449 71.0088 19.0632C70.6466 18.7815 70.1939 18.6406 69.6505 18.6406C69.1273 18.6406 68.6846 18.7754 68.3224 19.0451C67.9642 19.3147 67.6926 19.691 67.5074 20.174C67.3223 20.6569 67.2297 21.2204 67.2297 21.8643ZM77.7581 14.1371V26.5007H75.9531V14.1371H77.7581ZM84.0924 26.6878C83.2231 26.6878 82.4644 26.4886 81.8165 26.0902C81.1685 25.6917 80.6654 25.1343 80.3072 24.418C79.949 23.7016 79.7699 22.8645 79.7699 21.9066C79.7699 20.9447 79.949 20.1036 80.3072 19.3832C80.6654 18.6627 81.1685 18.1033 81.8165 17.7049C82.4644 17.3065 83.2231 17.1072 84.0924 17.1072C84.9617 17.1072 85.7203 17.3065 86.3683 17.7049C87.0163 18.1033 87.5193 18.6627 87.8775 19.3832C88.2357 20.1036 88.4148 20.9447 88.4148 21.9066C88.4148 22.8645 88.2357 23.7016 87.8775 24.418C87.5193 25.1343 87.0163 25.6917 86.3683 26.0902C85.7203 26.4886 84.9617 26.6878 84.0924 26.6878ZM84.0984 25.1726C84.6619 25.1726 85.1287 25.0237 85.499 24.7258C85.8693 24.428 86.1429 24.0316 86.32 23.5366C86.5011 23.0415 86.5917 22.4962 86.5917 21.9006C86.5917 21.3089 86.5011 20.7656 86.32 20.2706C86.1429 19.7715 85.8693 19.3711 85.499 19.0692C85.1287 18.7674 84.6619 18.6165 84.0984 18.6165C83.5309 18.6165 83.0601 18.7674 82.6858 19.0692C82.3155 19.3711 82.0398 19.7715 81.8587 20.2706C81.6816 20.7656 81.5931 21.3089 81.5931 21.9006C81.5931 22.4962 81.6816 23.0415 81.8587 23.5366C82.0398 24.0316 82.3155 24.428 82.6858 24.7258C83.0601 25.0237 83.5309 25.1726 84.0984 25.1726ZM91.2552 29.978C90.9855 29.978 90.74 29.9558 90.5187 29.9116C90.2973 29.8713 90.1323 29.827 90.0237 29.7787L90.4583 28.2997C90.7883 28.3882 91.0821 28.4265 91.3397 28.4144C91.5973 28.4023 91.8247 28.3057 92.0219 28.1246C92.2231 27.9435 92.4002 27.6477 92.5531 27.2372L92.7765 26.6214L89.3838 17.228H91.3156L93.6639 24.424H93.7605L96.1089 17.228H98.0467L94.2254 27.7383C94.0483 28.2212 93.8229 28.6297 93.5492 28.9638C93.2756 29.3018 92.9496 29.5554 92.5712 29.7244C92.1929 29.8935 91.7543 29.978 91.2552 29.978ZM103.424 26.6878C102.511 26.6878 101.724 26.4926 101.064 26.1023C100.408 25.7078 99.9006 25.1545 99.5424 24.4421C99.1882 23.7257 99.0111 22.8866 99.0111 21.9247C99.0111 20.9749 99.1882 20.1378 99.5424 19.4133C99.9006 18.6889 100.4 18.1234 101.04 17.717C101.683 17.3105 102.436 17.1072 103.297 17.1072C103.821 17.1072 104.328 17.1938 104.819 17.3668C105.31 17.5399 105.75 17.8115 106.141 18.1818C106.531 18.5521 106.839 19.033 107.064 19.6246C107.29 20.2122 107.402 20.9266 107.402 21.7677V22.4077H100.031V21.0554H105.634C105.634 20.5805 105.537 20.1599 105.344 19.7937C105.151 19.4234 104.879 19.1316 104.529 18.9183C104.183 18.705 103.776 18.5984 103.309 18.5984C102.802 18.5984 102.36 18.7231 101.981 18.9726C101.607 19.2181 101.317 19.5401 101.112 19.9386C100.911 20.333 100.81 20.7616 100.81 21.2244V22.2809C100.81 22.9007 100.919 23.4279 101.136 23.8626C101.357 24.2972 101.665 24.6292 102.06 24.8587C102.454 25.084 102.915 25.1967 103.442 25.1967C103.784 25.1967 104.096 25.1484 104.378 25.0518C104.66 24.9512 104.903 24.8023 105.108 24.6051C105.314 24.4079 105.471 24.1644 105.579 23.8746L107.288 24.1825C107.151 24.6856 106.905 25.1263 106.551 25.5046C106.201 25.8789 105.76 26.1707 105.229 26.38C104.702 26.5852 104.1 26.6878 103.424 26.6878ZM112.876 26.6818C112.128 26.6818 111.46 26.4906 110.872 26.1083C110.289 25.7219 109.83 25.1726 109.496 24.4602C109.166 23.7438 109.001 22.8846 109.001 21.8824C109.001 20.8803 109.168 20.0231 109.502 19.3107C109.84 18.5984 110.303 18.053 110.89 17.6747C111.478 17.2964 112.144 17.1072 112.889 17.1072C113.464 17.1072 113.927 17.2038 114.277 17.397C114.631 17.5862 114.905 17.8075 115.098 18.0611C115.295 18.3146 115.448 18.538 115.557 18.7312H115.666V14.1371H117.471V26.5007H115.708V25.0579H115.557C115.448 25.2551 115.291 25.4805 115.086 25.734C114.885 25.9876 114.607 26.2089 114.253 26.3981C113.899 26.5872 113.44 26.6818 112.876 26.6818ZM113.275 25.1424C113.794 25.1424 114.233 25.0056 114.591 24.7319C114.953 24.4542 115.227 24.0698 115.412 23.5788C115.601 23.0878 115.696 22.5163 115.696 21.8643C115.696 21.2204 115.603 20.6569 115.418 20.174C115.233 19.691 114.961 19.3147 114.603 19.0451C114.245 18.7754 113.802 18.6406 113.275 18.6406C112.732 18.6406 112.279 18.7815 111.917 19.0632C111.554 19.3449 111.281 19.7293 111.096 20.2163C110.914 20.7032 110.824 21.2526 110.824 21.8643C110.824 22.4841 110.916 23.0415 111.102 23.5366C111.287 24.0316 111.56 24.424 111.923 24.7138C112.289 24.9995 112.74 25.1424 113.275 25.1424ZM128.452 26.6878C127.582 26.6878 126.824 26.4886 126.176 26.0902C125.528 25.6917 125.025 25.1343 124.667 24.418C124.308 23.7016 124.129 22.8645 124.129 21.9066C124.129 20.9447 124.308 20.1036 124.667 19.3832C125.025 18.6627 125.528 18.1033 126.176 17.7049C126.824 17.3065 127.582 17.1072 128.452 17.1072C129.321 17.1072 130.08 17.3065 130.728 17.7049C131.376 18.1033 131.879 18.6627 132.237 19.3832C132.595 20.1036 132.774 20.9447 132.774 21.9066C132.774 22.8645 132.595 23.7016 132.237 24.418C131.879 25.1343 131.376 25.6917 130.728 26.0902C130.08 26.4886 129.321 26.6878 128.452 26.6878ZM128.458 25.1726C129.021 25.1726 129.488 25.0237 129.858 24.7258C130.229 24.428 130.502 24.0316 130.679 23.5366C130.86 23.0415 130.951 22.4962 130.951 21.9006C130.951 21.3089 130.86 20.7656 130.679 20.2706C130.502 19.7715 130.229 19.3711 129.858 19.0692C129.488 18.7674 129.021 18.6165 128.458 18.6165C127.89 18.6165 127.419 18.7674 127.045 19.0692C126.675 19.3711 126.399 19.7715 126.218 20.2706C126.041 20.7656 125.952 21.3089 125.952 21.9006C125.952 22.4962 126.041 23.0415 126.218 23.5366C126.399 24.0316 126.675 24.428 127.045 24.7258C127.419 25.0237 127.89 25.1726 128.458 25.1726ZM136.594 20.995V26.5007H134.789V17.228H136.522V18.7372H136.636C136.85 18.2462 137.184 17.8518 137.638 17.554C138.097 17.2561 138.675 17.1072 139.371 17.1072C140.003 17.1072 140.556 17.24 141.031 17.5057C141.506 17.7673 141.874 18.1577 142.136 18.6768C142.398 19.196 142.528 19.8379 142.528 20.6026V26.5007H140.723V20.8199C140.723 20.1478 140.548 19.6226 140.198 19.2443C139.848 18.862 139.367 18.6708 138.755 18.6708C138.337 18.6708 137.964 18.7614 137.638 18.9425C137.316 19.1236 137.061 19.3892 136.872 19.7393C136.687 20.0855 136.594 20.504 136.594 20.995Z" fill="#E8E8E8"/>
<path d="M160.16 18.1165H157.141C157.101 17.8066 157.019 17.5269 156.894 17.2773C156.769 17.0278 156.604 16.8145 156.399 16.6374C156.193 16.4603 155.95 16.3255 155.668 16.2329C155.391 16.1364 155.083 16.0881 154.745 16.0881C154.145 16.0881 153.628 16.235 153.193 16.5288C152.762 16.8226 152.43 17.2471 152.197 17.8025C151.968 18.3579 151.853 19.0301 151.853 19.8189C151.853 20.6399 151.97 21.3281 152.203 21.8835C152.441 22.4349 152.773 22.8514 153.199 23.1332C153.63 23.4109 154.139 23.5497 154.726 23.5497C155.057 23.5497 155.356 23.5074 155.626 23.4229C155.9 23.3384 156.139 23.2157 156.344 23.0547C156.554 22.8897 156.725 22.6904 156.858 22.457C156.994 22.2196 157.089 21.9519 157.141 21.6541L160.16 21.6722C160.107 22.2196 159.948 22.7589 159.683 23.2901C159.421 23.8214 159.061 24.3063 158.602 24.745C158.143 25.1797 157.584 25.5258 156.924 25.7834C156.268 26.0409 155.515 26.1697 154.666 26.1697C153.547 26.1697 152.545 25.9242 151.66 25.4332C150.778 24.9382 150.082 24.2178 149.571 23.272C149.06 22.3262 148.804 21.1752 148.804 19.8189C148.804 18.4586 149.064 17.3055 149.583 16.3597C150.102 15.4139 150.805 14.6955 151.69 14.2045C152.575 13.7135 153.567 13.468 154.666 13.468C155.415 13.468 156.107 13.5727 156.743 13.782C157.379 13.9872 157.938 14.2891 158.421 14.6875C158.904 15.0819 159.296 15.5669 159.598 16.1424C159.9 16.7179 160.087 17.3759 160.16 18.1165ZM164.822 13.6371V26.0007H161.87V13.6371H164.822ZM171.029 26.1758C170.055 26.1758 169.218 25.9765 168.518 25.5781C167.822 25.1757 167.284 24.6162 166.906 23.8998C166.532 23.1794 166.345 22.3443 166.345 21.3945C166.345 20.4407 166.532 19.6056 166.906 18.8892C167.284 18.1688 167.822 17.6094 168.518 17.2109C169.218 16.8085 170.055 16.6072 171.029 16.6072C172.003 16.6072 172.838 16.8085 173.535 17.2109C174.235 17.6094 174.772 18.1688 175.146 18.8892C175.525 19.6056 175.714 20.4407 175.714 21.3945C175.714 22.3443 175.525 23.1794 175.146 23.8998C174.772 24.6162 174.235 25.1757 173.535 25.5781C172.838 25.9765 172.003 26.1758 171.029 26.1758ZM171.047 23.9481C171.402 23.9481 171.701 23.8395 171.947 23.6221C172.192 23.4048 172.379 23.103 172.508 22.7166C172.641 22.3302 172.707 21.8835 172.707 21.3764C172.707 20.8613 172.641 20.4105 172.508 20.0241C172.379 19.6378 172.192 19.3359 171.947 19.1186C171.701 18.9013 171.402 18.7926 171.047 18.7926C170.681 18.7926 170.371 18.9013 170.118 19.1186C169.868 19.3359 169.677 19.6378 169.544 20.0241C169.415 20.4105 169.351 20.8613 169.351 21.3764C169.351 21.8835 169.415 22.3302 169.544 22.7166C169.677 23.103 169.868 23.4048 170.118 23.6221C170.371 23.8395 170.681 23.9481 171.047 23.9481ZM183.209 21.9982V16.728H186.155V26.0007H183.342V24.2741H183.245C183.04 24.8416 182.69 25.2924 182.195 25.6264C181.704 25.9564 181.11 26.1214 180.414 26.1214C179.782 26.1214 179.226 25.9765 178.747 25.6868C178.269 25.397 177.896 24.9925 177.631 24.4734C177.365 23.9502 177.23 23.3384 177.226 22.6381V16.728H180.178V22.0586C180.182 22.5617 180.315 22.9581 180.577 23.2479C180.838 23.5376 181.194 23.6825 181.645 23.6825C181.939 23.6825 182.203 23.6181 182.436 23.4893C182.673 23.3565 182.861 23.1654 182.997 22.9158C183.138 22.6623 183.209 22.3564 183.209 21.9982ZM191.42 26.1335C190.736 26.1335 190.114 25.9564 189.555 25.6023C188.996 25.2481 188.549 24.7168 188.215 24.0085C187.881 23.3002 187.714 22.4208 187.714 21.3704C187.714 20.2797 187.887 19.3822 188.233 18.6779C188.579 17.9736 189.032 17.4524 189.591 17.1143C190.155 16.7763 190.76 16.6072 191.408 16.6072C191.895 16.6072 192.312 16.6918 192.658 16.8608C193.004 17.0258 193.29 17.2391 193.515 17.5007C193.741 17.7623 193.912 18.034 194.028 18.3157H194.089V13.6371H197.041V26.0007H194.119V24.4975H194.028C193.904 24.7832 193.727 25.0509 193.497 25.3004C193.268 25.5499 192.98 25.7512 192.634 25.9041C192.292 26.057 191.887 26.1335 191.42 26.1335ZM192.447 23.8334C192.805 23.8334 193.111 23.7328 193.364 23.5316C193.618 23.3263 193.813 23.0386 193.95 22.6683C194.087 22.298 194.155 21.8634 194.155 21.3643C194.155 20.8572 194.087 20.4206 193.95 20.0543C193.817 19.6881 193.622 19.4064 193.364 19.2092C193.111 19.0119 192.805 18.9133 192.447 18.9133C192.081 18.9133 191.771 19.014 191.517 19.2152C191.264 19.4164 191.07 19.7002 190.938 20.0664C190.809 20.4326 190.744 20.8653 190.744 21.3643C190.744 21.8634 190.811 22.298 190.944 22.6683C191.076 23.0386 191.268 23.3263 191.517 23.5316C191.771 23.7328 192.081 23.8334 192.447 23.8334ZM204.178 16.728V18.9013H198.214V16.728H204.178ZM199.457 26.0007V16.2571C199.457 15.5407 199.592 14.9471 199.862 14.4762C200.131 14.0013 200.506 13.6471 200.984 13.4137C201.463 13.1762 202.017 13.0575 202.645 13.0575C203.055 13.0575 203.442 13.0897 203.804 13.1541C204.17 13.2145 204.442 13.2688 204.619 13.3171L204.148 15.4783C204.039 15.4421 203.906 15.4119 203.749 15.3878C203.596 15.3636 203.452 15.3516 203.315 15.3516C202.969 15.3516 202.731 15.428 202.602 15.581C202.474 15.7339 202.409 15.9432 202.409 16.2088V26.0007H199.457ZM208.55 13.6371V26.0007H205.598V13.6371H208.55ZM213.043 26.1577C212.452 26.1577 211.926 26.0591 211.468 25.8618C211.013 25.6606 210.653 25.3588 210.387 24.9563C210.125 24.5498 209.995 24.0407 209.995 23.429C209.995 22.9138 210.085 22.4792 210.266 22.125C210.447 21.7708 210.697 21.4831 211.015 21.2617C211.333 21.0404 211.699 20.8733 212.114 20.7606C212.528 20.6439 212.971 20.5654 213.442 20.5252C213.969 20.4769 214.394 20.4266 214.715 20.3743C215.037 20.3179 215.271 20.2395 215.416 20.1388C215.565 20.0342 215.639 19.8873 215.639 19.6981V19.668C215.639 19.3581 215.532 19.1186 215.319 18.9496C215.106 18.7805 214.818 18.696 214.456 18.696C214.065 18.696 213.752 18.7805 213.514 18.9496C213.277 19.1186 213.126 19.352 213.061 19.6498L210.339 19.5533C210.419 18.9898 210.626 18.4867 210.961 18.044C211.299 17.5973 211.761 17.2471 212.349 16.9936C212.941 16.736 213.651 16.6072 214.48 16.6072C215.072 16.6072 215.617 16.6777 216.116 16.8185C216.615 16.9554 217.05 17.1566 217.42 17.4222C217.79 17.6838 218.076 18.0058 218.277 18.3881C218.483 18.7705 218.585 19.2071 218.585 19.6981V26.0007H215.808V24.7088H215.736C215.571 25.0227 215.359 25.2883 215.102 25.5057C214.848 25.723 214.548 25.886 214.202 25.9947C213.86 26.1033 213.474 26.1577 213.043 26.1577ZM213.955 24.2258C214.273 24.2258 214.559 24.1614 214.812 24.0327C215.07 23.9039 215.275 23.7268 215.428 23.5014C215.581 23.272 215.657 23.0064 215.657 22.7045V21.8231C215.573 21.8674 215.47 21.9077 215.349 21.9439C215.233 21.9801 215.104 22.0143 214.963 22.0465C214.822 22.0787 214.677 22.1069 214.528 22.131C214.379 22.1552 214.237 22.1773 214.1 22.1974C213.822 22.2417 213.585 22.3101 213.387 22.4027C213.194 22.4953 213.045 22.616 212.941 22.7649C212.84 22.9098 212.79 23.0828 212.79 23.2841C212.79 23.59 212.898 23.8234 213.116 23.9844C213.337 24.1453 213.617 24.2258 213.955 24.2258ZM220.39 26.0007V16.728H223.258V18.4183H223.354C223.523 17.8066 223.799 17.3518 224.181 17.054C224.564 16.7521 225.008 16.6012 225.516 16.6012C225.652 16.6012 225.793 16.6113 225.938 16.6314C226.083 16.6475 226.218 16.6736 226.343 16.7099V19.2756C226.202 19.2273 226.017 19.189 225.787 19.1609C225.562 19.1327 225.361 19.1186 225.184 19.1186C224.833 19.1186 224.517 19.1971 224.236 19.354C223.958 19.507 223.739 19.7223 223.578 20C223.421 20.2737 223.342 20.5956 223.342 20.9659V26.0007H220.39ZM231.399 26.1758C230.429 26.1758 229.591 25.9846 228.887 25.6023C228.187 25.2159 227.648 24.6665 227.269 23.9542C226.895 23.2378 226.708 22.3866 226.708 21.4006C226.708 20.4427 226.897 19.6056 227.275 18.8892C227.654 18.1688 228.187 17.6094 228.875 17.2109C229.563 16.8085 230.374 16.6072 231.308 16.6072C231.968 16.6072 232.572 16.7099 233.119 16.9151C233.666 17.1204 234.139 17.4242 234.538 17.8267C234.936 18.2292 235.246 18.7262 235.467 19.3178C235.689 19.9054 235.799 20.5795 235.799 21.3402V22.0767H227.74V20.3622H233.053C233.049 20.0483 232.974 19.7686 232.829 19.5231C232.684 19.2776 232.485 19.0864 232.232 18.9496C231.982 18.8087 231.694 18.7383 231.368 18.7383C231.038 18.7383 230.743 18.8127 230.481 18.9616C230.219 19.1065 230.012 19.3057 229.859 19.5593C229.706 19.8088 229.626 20.0926 229.618 20.4105V22.1552C229.618 22.5335 229.692 22.8655 229.841 23.1513C229.99 23.433 230.201 23.6523 230.475 23.8093C230.749 23.9663 231.075 24.0447 231.453 24.0447C231.714 24.0447 231.952 24.0085 232.165 23.9361C232.379 23.8636 232.562 23.757 232.715 23.6161C232.868 23.4752 232.982 23.3022 233.059 23.0969L235.769 23.1754C235.657 23.7831 235.409 24.3124 235.027 24.7631C234.648 25.2099 234.151 25.558 233.536 25.8075C232.92 26.053 232.207 26.1758 231.399 26.1758ZM240.96 26.0007V13.6371H246.067C246.992 13.6371 247.791 13.8182 248.463 14.1804C249.14 14.5386 249.661 15.0396 250.027 15.6836C250.393 16.3235 250.576 17.0681 250.576 17.9172C250.576 18.7705 250.389 19.517 250.015 20.1569C249.645 20.7928 249.115 21.2859 248.427 21.636C247.739 21.9861 246.922 22.1612 245.976 22.1612H242.825V19.8068H245.421C245.872 19.8068 246.248 19.7283 246.55 19.5714C246.856 19.4144 247.087 19.1951 247.244 18.9133C247.401 18.6276 247.479 18.2956 247.479 17.9172C247.479 17.5349 247.401 17.2049 247.244 16.9272C247.087 16.6455 246.856 16.4281 246.55 16.2752C246.244 16.1223 245.868 16.0458 245.421 16.0458H243.948V26.0007H240.96ZM254.331 26.1577C253.74 26.1577 253.214 26.0591 252.756 25.8618C252.301 25.6606 251.941 25.3588 251.675 24.9563C251.413 24.5498 251.283 24.0407 251.283 23.429C251.283 22.9138 251.373 22.4792 251.554 22.125C251.735 21.7708 251.985 21.4831 252.303 21.2617C252.621 21.0404 252.987 20.8733 253.402 20.7606C253.816 20.6439 254.259 20.5654 254.73 20.5252C255.257 20.4769 255.682 20.4266 256.004 20.3743C256.326 20.3179 256.559 20.2395 256.704 20.1388C256.853 20.0342 256.927 19.8873 256.927 19.6981V19.668C256.927 19.3581 256.821 19.1186 256.607 18.9496C256.394 18.7805 256.106 18.696 255.744 18.696C255.354 18.696 255.04 18.7805 254.802 18.9496C254.565 19.1186 254.414 19.352 254.349 19.6498L251.627 19.5533C251.707 18.9898 251.915 18.4867 252.249 18.044C252.587 17.5973 253.049 17.2471 253.637 16.9936C254.229 16.736 254.939 16.6072 255.768 16.6072C256.36 16.6072 256.905 16.6777 257.404 16.8185C257.903 16.9554 258.338 17.1566 258.708 17.4222C259.078 17.6838 259.364 18.0058 259.565 18.3881C259.771 18.7705 259.873 19.2071 259.873 19.6981V26.0007H257.096V24.7088H257.024C256.859 25.0227 256.647 25.2883 256.39 25.5057C256.136 25.723 255.837 25.886 255.49 25.9947C255.148 26.1033 254.762 26.1577 254.331 26.1577ZM255.243 24.2258C255.561 24.2258 255.847 24.1614 256.1 24.0327C256.358 23.9039 256.563 23.7268 256.716 23.5014C256.869 23.272 256.945 23.0064 256.945 22.7045V21.8231C256.861 21.8674 256.758 21.9077 256.637 21.9439C256.521 21.9801 256.392 22.0143 256.251 22.0465C256.11 22.0787 255.965 22.1069 255.816 22.131C255.667 22.1552 255.525 22.1773 255.388 22.1974C255.11 22.2417 254.873 22.3101 254.675 22.4027C254.482 22.4953 254.333 22.616 254.229 22.7649C254.128 22.9098 254.078 23.0828 254.078 23.2841C254.078 23.59 254.186 23.8234 254.404 23.9844C254.625 24.1453 254.905 24.2258 255.243 24.2258ZM266.001 29.6712C265.119 29.6712 264.365 29.5484 263.737 29.3029C263.109 29.0574 262.616 28.7213 262.258 28.2947C261.9 27.8681 261.684 27.3852 261.612 26.8459L264.407 26.6889C264.459 26.8781 264.556 27.0431 264.697 27.1839C264.842 27.3248 265.029 27.4335 265.258 27.5099C265.492 27.5864 265.765 27.6246 266.079 27.6246C266.574 27.6246 266.983 27.5039 267.305 27.2624C267.631 27.025 267.794 26.6084 267.794 26.0128V24.3828H267.691C267.574 24.6685 267.397 24.9241 267.16 25.1495C266.922 25.3749 266.627 25.552 266.272 25.6807C265.922 25.8095 265.52 25.8739 265.065 25.8739C264.389 25.8739 263.769 25.717 263.206 25.403C262.646 25.0851 262.197 24.5941 261.859 23.93C261.525 23.2619 261.358 22.4027 261.358 21.3523C261.358 20.2696 261.531 19.3782 261.877 18.6779C262.224 17.9736 262.676 17.4524 263.236 17.1143C263.799 16.7763 264.405 16.6072 265.053 16.6072C265.54 16.6072 265.956 16.6918 266.303 16.8608C266.653 17.0258 266.94 17.2391 267.166 17.5007C267.391 17.7623 267.562 18.034 267.679 18.3157H267.763V16.728H270.703V26.0369C270.703 26.8217 270.506 27.4838 270.112 28.0231C269.717 28.5624 269.166 28.9709 268.458 29.2486C267.749 29.5303 266.93 29.6712 266.001 29.6712ZM266.091 23.7248C266.449 23.7248 266.755 23.6302 267.009 23.441C267.262 23.2519 267.458 22.9802 267.594 22.6261C267.731 22.2719 267.8 21.8473 267.8 21.3523C267.8 20.8492 267.731 20.4165 267.594 20.0543C267.462 19.6881 267.266 19.4064 267.009 19.2092C266.755 19.0119 266.449 18.9133 266.091 18.9133C265.725 18.9133 265.415 19.014 265.162 19.2152C264.908 19.4164 264.715 19.7002 264.582 20.0664C264.453 20.4286 264.389 20.8572 264.389 21.3523C264.389 21.8473 264.455 22.2719 264.588 22.6261C264.721 22.9802 264.912 23.2519 265.162 23.441C265.415 23.6302 265.725 23.7248 266.091 23.7248ZM276.92 26.1758C275.95 26.1758 275.113 25.9846 274.409 25.6023C273.708 25.2159 273.169 24.6665 272.791 23.9542C272.416 23.2378 272.229 22.3866 272.229 21.4006C272.229 20.4427 272.418 19.6056 272.797 18.8892C273.175 18.1688 273.708 17.6094 274.397 17.2109C275.085 16.8085 275.896 16.6072 276.829 16.6072C277.489 16.6072 278.093 16.7099 278.641 16.9151C279.188 17.1204 279.661 17.4242 280.059 17.8267C280.458 18.2292 280.768 18.7262 280.989 19.3178C281.21 19.9054 281.321 20.5795 281.321 21.3402V22.0767H273.262V20.3622H278.574C278.57 20.0483 278.496 19.7686 278.351 19.5231C278.206 19.2776 278.007 19.0864 277.753 18.9496C277.504 18.8087 277.216 18.7383 276.89 18.7383C276.56 18.7383 276.264 18.8127 276.002 18.9616C275.741 19.1065 275.534 19.3057 275.381 19.5593C275.228 19.8088 275.147 20.0926 275.139 20.4105V22.1552C275.139 22.5335 275.214 22.8655 275.362 23.1513C275.511 23.433 275.723 23.6523 275.996 23.8093C276.27 23.9663 276.596 24.0447 276.974 24.0447C277.236 24.0447 277.473 24.0085 277.687 23.9361C277.9 23.8636 278.083 23.757 278.236 23.6161C278.389 23.4752 278.504 23.3022 278.58 23.0969L281.291 23.1754C281.178 23.7831 280.931 24.3124 280.548 24.7631C280.17 25.2099 279.673 25.558 279.057 25.8075C278.441 26.053 277.729 26.1758 276.92 26.1758ZM290.924 19.5593L288.214 19.6317C288.185 19.4386 288.109 19.2675 287.984 19.1186C287.859 18.9657 287.696 18.8469 287.495 18.7624C287.298 18.6739 287.069 18.6296 286.807 18.6296C286.465 18.6296 286.173 18.698 285.932 18.8349C285.694 18.9717 285.577 19.1568 285.581 19.3903C285.577 19.5714 285.65 19.7283 285.799 19.8611C285.952 19.994 286.223 20.1006 286.614 20.1811L288.401 20.5192C289.326 20.6962 290.015 20.99 290.465 21.4006C290.92 21.8111 291.15 22.3544 291.154 23.0305C291.15 23.6664 290.96 24.2198 290.586 24.6907C290.216 25.1616 289.709 25.5278 289.065 25.7894C288.421 26.047 287.684 26.1758 286.855 26.1758C285.531 26.1758 284.487 25.9041 283.722 25.3608C282.961 24.8134 282.527 24.081 282.418 23.1633L285.334 23.0909C285.398 23.429 285.565 23.6865 285.835 23.8636C286.105 24.0407 286.449 24.1292 286.867 24.1292C287.246 24.1292 287.554 24.0588 287.791 23.918C288.028 23.7771 288.149 23.5899 288.153 23.3565C288.149 23.1472 288.057 22.9802 287.876 22.8555C287.694 22.7267 287.411 22.6261 287.024 22.5536L285.406 22.2457C284.477 22.0767 283.784 21.7648 283.33 21.31C282.875 20.8512 282.65 20.2676 282.654 19.5593C282.65 18.9395 282.815 18.4103 283.149 17.9716C283.483 17.5289 283.958 17.1908 284.573 16.9574C285.189 16.7239 285.916 16.6072 286.753 16.6072C288.008 16.6072 288.998 16.8708 289.723 17.3981C290.447 17.9213 290.848 18.6417 290.924 19.5593Z" fill="#F29122"/>
</g>
<defs>
<filter id="filter0_d_1_56" x="2.39972" y="0.39972" width="39.202" height="39.202" filterUnits="userSpaceOnUse" color-interpolation-filters="sRGB">
<feFlood flood-opacity="0" result="BackgroundImageFix"/>
<feColorMatrix in="SourceAlpha" type="matrix" values="0 0 0 0 0 0 0 0 0 0 0 0 0 0 0 0 0 0 127 0" result="hardAlpha"/>
<feOffset/>
<feGaussianBlur stdDeviation="2.80014"/>
<feComposite in2="hardAlpha" operator="out"/>
<feColorMatrix type="matrix" values="0 0 0 0 0 0 0 0 0 0 0 0 0 0 0 0 0 0 0.25 0"/>
<feBlend mode="normal" in2="BackgroundImageFix" result="effect1_dropShadow_1_56"/>
<feBlend mode="normal" in="SourceGraphic" in2="effect1_dropShadow_1_56" result="shape"/>
</filter>
<filter id="filter1_d_1_56" x="36.2871" y="3.78642" width="261.428" height="32.4286" filterUnits="userSpaceOnUse" color-interpolation-filters="sRGB">
<feFlood flood-opacity="0" result="BackgroundImageFix"/>
<feColorMatrix in="SourceAlpha" type="matrix" values="0 0 0 0 0 0 0 0 0 0 0 0 0 0 0 0 0 0 127 0" result="hardAlpha"/>
<feOffset/>
<feGaussianBlur stdDeviation="2.85714"/>
<feComposite in2="hardAlpha" operator="out"/>
<feColorMatrix type="matrix" values="0 0 0 0 0 0 0 0 0 0 0 0 0 0 0 0 0 0 0.25 0"/>
<feBlend mode="normal" in2="BackgroundImageFix" result="effect1_dropShadow_1_56"/>
<feBlend mode="normal" in="SourceGraphic" in2="effect1_dropShadow_1_56" result="shape"/>
</filter>
<linearGradient id="paint0_linear_1_56" x1="150.001" y1="0" x2="150.001" y2="40.0014" gradientUnits="userSpaceOnUse">
<stop stop-color="#754207"/>
<stop offset="1" stop-color="#4E2C05"/>
</linearGradient>
<linearGradient id="paint1_linear_1_56" x1="1137.18" y1="-35.631" x2="-384.37" y2="1117.33" gradientUnits="userSpaceOnUse">
<stop stop-color="#FBB743"/>
<stop offset="1" stop-color="#EA6B00"/>
</linearGradient>
</defs>
</svg>
