<svg width="40" height="40" viewBox="0 0 40 40" fill="none" xmlns="http://www.w3.org/2000/svg">
<rect width="40" height="40" rx="8" fill="url(#paint0_linear_1_68)"/>
<rect x="1.05" y="1.05" width="37.9" height="37.9" rx="6.95" stroke="white" stroke-opacity="0.15" stroke-width="2.1"/>
<g filter="url(#filter0_d_1_68)">
<path d="M24.3637 9.20463H30.6919L31.5921 10.1048V29.9087L30.6919 30.8089H22.0682L22.5048 30.1337H30.4129L30.917 29.6296V10.3839L30.4129 9.87976H24.9578L24.3142 13.2059H23.6255L24.2422 9.84825L24.3682 9.20463H24.3637ZM9.08768 30.8089L8.1875 29.9087V10.1048L9.08768 9.20463H18.0444L17.5943 9.87976H9.36673L8.86263 10.3839V29.6296L9.36673 30.1337H15.884L15.776 30.8089H9.08768ZM10.4379 28.5584H14.2637L14.1287 29.2336H9.98785L9.76281 29.0085V24.9577L10.4379 26.308V28.5584ZM25.7409 28.5584L26.4161 29.2336H23.0404L23.4905 28.5584H25.7409Z" fill="#B7BBBD"/>
<path d="M18.391 22.7073H12.2383L11.4911 21.303L21.8432 6L23.4725 6.67513L21.4291 17.3062H27.5413L28.2975 18.697L18.3955 34L16.7482 33.3699L18.391 22.7073ZM10.663 12.3552C10.4839 12.3552 10.3122 12.2841 10.1856 12.1575C10.059 12.0309 9.98785 11.8592 9.98785 11.6801C9.98785 11.5011 10.059 11.3293 10.1856 11.2027C10.3122 11.0761 10.4839 11.005 10.663 11.005C10.842 11.005 11.0138 11.0761 11.1404 11.2027C11.267 11.3293 11.3381 11.5011 11.3381 11.6801C11.3381 11.8592 11.267 12.0309 11.1404 12.1575C11.0138 12.2841 10.842 12.3552 10.663 12.3552ZM12.4633 12.3552C12.2843 12.3552 12.1126 12.2841 11.9859 12.1575C11.8593 12.0309 11.7882 11.8592 11.7882 11.6801C11.7882 11.5011 11.8593 11.3293 11.9859 11.2027C12.1126 11.0761 12.2843 11.005 12.4633 11.005C12.6424 11.005 12.8141 11.0761 12.9407 11.2027C13.0673 11.3293 13.1385 11.5011 13.1385 11.6801C13.1385 11.8592 13.0673 12.0309 12.9407 12.1575C12.8141 12.2841 12.6424 12.3552 12.4633 12.3552ZM14.2637 12.3552C14.0846 12.3552 13.9129 12.2841 13.7863 12.1575C13.6597 12.0309 13.5886 11.8592 13.5886 11.6801C13.5886 11.5011 13.6597 11.3293 13.7863 11.2027C13.9129 11.0761 14.0846 11.005 14.2637 11.005C14.4428 11.005 14.6145 11.0761 14.7411 11.2027C14.8677 11.3293 14.9388 11.5011 14.9388 11.6801C14.9388 11.8592 14.8677 12.0309 14.7411 12.1575C14.6145 12.2841 14.4428 12.3552 14.2637 12.3552Z" fill="url(#paint1_linear_1_68)"/>
</g>
<defs>
<filter id="filter0_d_1_68" x="2" y="2" width="36" height="36" filterUnits="userSpaceOnUse" color-interpolation-filters="sRGB">
<feFlood flood-opacity="0" result="BackgroundImageFix"/>
<feColorMatrix in="SourceAlpha" type="matrix" values="0 0 0 0 0 0 0 0 0 0 0 0 0 0 0 0 0 0 127 0" result="hardAlpha"/>
<feOffset/>
<feGaussianBlur stdDeviation="2"/>
<feComposite in2="hardAlpha" operator="out"/>
<feColorMatrix type="matrix" values="0 0 0 0 0 0 0 0 0 0 0 0 0 0 0 0 0 0 0.25 0"/>
<feBlend mode="normal" in2="BackgroundImageFix" result="effect1_dropShadow_1_68"/>
<feBlend mode="normal" in="SourceGraphic" in2="effect1_dropShadow_1_68" result="shape"/>
</filter>
<linearGradient id="paint0_linear_1_68" x1="20" y1="0" x2="20" y2="40" gradientUnits="userSpaceOnUse">
<stop stop-color="#754207"/>
<stop offset="1" stop-color="#4E2C05"/>
</linearGradient>
<linearGradient id="paint1_linear_1_68" x1="1135.18" y1="-35.631" x2="-386.37" y2="1117.33" gradientUnits="userSpaceOnUse">
<stop stop-color="#FBB743"/>
<stop offset="1" stop-color="#EA6B00"/>
</linearGradient>
</defs>
</svg>
