<svg width="216" height="56" viewBox="0 0 216 56" fill="none" xmlns="http://www.w3.org/2000/svg">
<rect width="216" height="56" rx="8" fill="url(#paint0_linear_1_50)"/>
<rect x="1.05" y="1.05" width="213.9" height="53.9" rx="6.95" stroke="white" stroke-opacity="0.15" stroke-width="2.1"/>
<g filter="url(#filter0_d_1_50)">
<path d="M38.2338 12.578H47.2742L48.5601 13.864V42.1553L47.2742 43.4412H34.9546L35.5783 42.4768H46.8755L47.5957 41.7566V14.2627L46.8755 13.5425H39.0826L38.1631 18.2942H37.1793L38.0602 13.4975L38.2403 12.578H38.2338ZM16.411 43.4412L15.125 42.1553V13.864L16.411 12.578H29.2063L28.5634 13.5425H16.8096L16.0895 14.2627V41.7566L16.8096 42.4768H26.12L25.9657 43.4412H16.411ZM18.3399 40.2263H23.8053L23.6124 41.1908H17.6969L17.3754 40.8693V35.0825L18.3399 37.0114V40.2263ZM40.2014 40.2263L41.1658 41.1908H36.3435L36.9864 40.2263H40.2014Z" fill="#B7BBBD"/>
<path d="M29.7014 31.8675H20.9119L19.8445 29.8614L34.6331 8L36.9607 8.96448L34.0416 24.1517H42.7733L43.8535 26.1386L29.7079 48L27.3545 47.0998L29.7014 31.8675ZM18.6614 17.0789C18.4056 17.0789 18.1603 16.9773 17.9794 16.7964C17.7986 16.6156 17.6969 16.3702 17.6969 16.1145C17.6969 15.8587 17.7986 15.6133 17.9794 15.4325C18.1603 15.2516 18.4056 15.15 18.6614 15.15C18.9172 15.15 19.1625 15.2516 19.3434 15.4325C19.5243 15.6133 19.6259 15.8587 19.6259 16.1145C19.6259 16.3702 19.5243 16.6156 19.3434 16.7964C19.1625 16.9773 18.9172 17.0789 18.6614 17.0789ZM21.2333 17.0789C20.9776 17.0789 20.7322 16.9773 20.5514 16.7964C20.3705 16.6156 20.2689 16.3702 20.2689 16.1145C20.2689 15.8587 20.3705 15.6133 20.5514 15.4325C20.7322 15.2516 20.9776 15.15 21.2333 15.15C21.4891 15.15 21.7345 15.2516 21.9153 15.4325C22.0962 15.6133 22.1978 15.8587 22.1978 16.1145C22.1978 16.3702 22.0962 16.6156 21.9153 16.7964C21.7345 16.9773 21.4891 17.0789 21.2333 17.0789ZM23.8053 17.0789C23.5495 17.0789 23.3042 16.9773 23.1233 16.7964C22.9424 16.6156 22.8408 16.3702 22.8408 16.1145C22.8408 15.8587 22.9424 15.6133 23.1233 15.4325C23.3042 15.2516 23.5495 15.15 23.8053 15.15C24.0611 15.15 24.3064 15.2516 24.4873 15.4325C24.6681 15.6133 24.7698 15.8587 24.7698 16.1145C24.7698 16.3702 24.6681 16.6156 24.4873 16.7964C24.3064 16.9773 24.0611 17.0789 23.8053 17.0789Z" fill="url(#paint1_linear_1_50)"/>
</g>
<g filter="url(#filter1_d_1_50)">
<path d="M65.0454 24.5H61.2784V12.8636H65.1648C66.3049 12.8636 67.2841 13.0966 68.1023 13.5625C68.9204 14.0246 69.5473 14.6894 69.9829 15.5568C70.4223 16.4204 70.642 17.4564 70.642 18.6648C70.642 19.8769 70.4204 20.9186 69.9773 21.7898C69.5379 22.661 68.9015 23.3314 68.0682 23.8011C67.2348 24.267 66.2273 24.5 65.0454 24.5ZM63.0341 22.9659H64.9488C65.8352 22.9659 66.572 22.7992 67.1591 22.4659C67.7462 22.1288 68.1856 21.642 68.4773 21.0057C68.7689 20.3655 68.9148 19.5852 68.9148 18.6648C68.9148 17.7519 68.7689 16.9773 68.4773 16.3409C68.1894 15.7045 67.7595 15.2216 67.1875 14.892C66.6155 14.5625 65.9053 14.3977 65.0568 14.3977H63.0341V22.9659ZM76.4503 24.6761C75.5904 24.6761 74.8499 24.4924 74.2287 24.125C73.6112 23.7538 73.134 23.2329 72.7969 22.5625C72.4635 21.8883 72.2969 21.0985 72.2969 20.1932C72.2969 19.2992 72.4635 18.5114 72.7969 17.8295C73.134 17.1477 73.6037 16.6155 74.2059 16.2329C74.812 15.8504 75.5203 15.6591 76.3309 15.6591C76.8234 15.6591 77.3006 15.7405 77.7628 15.9034C78.2249 16.0663 78.6397 16.322 79.0071 16.6704C79.3745 17.0189 79.6643 17.4716 79.8764 18.0284C80.0885 18.5814 80.1946 19.2538 80.1946 20.0454V20.6477H73.2571V19.375H78.5298C78.5298 18.928 78.4389 18.5322 78.2571 18.1875C78.0753 17.839 77.8196 17.5644 77.49 17.3636C77.1643 17.1629 76.7817 17.0625 76.3423 17.0625C75.865 17.0625 75.4484 17.1799 75.0923 17.4148C74.74 17.6458 74.4673 17.9489 74.2741 18.3239C74.0847 18.6951 73.99 19.0985 73.99 19.5341V20.5284C73.99 21.1117 74.0923 21.6079 74.2969 22.017C74.5052 22.4261 74.795 22.7386 75.1662 22.9545C75.5374 23.1667 75.9711 23.2727 76.4673 23.2727C76.7893 23.2727 77.0828 23.2273 77.348 23.1364C77.6131 23.0417 77.8423 22.9015 78.0355 22.7159C78.2287 22.5303 78.3764 22.3011 78.4787 22.0284L80.0866 22.3182C79.9578 22.7917 79.7268 23.2064 79.3934 23.5625C79.0639 23.9148 78.6491 24.1894 78.1491 24.3864C77.6529 24.5795 77.0866 24.6761 76.4503 24.6761ZM82.0795 27.7727V15.7727H83.7386V17.1875H83.8807C83.9791 17.0057 84.1212 16.7954 84.3068 16.5568C84.4924 16.3182 84.75 16.1098 85.0795 15.9318C85.4091 15.75 85.8447 15.6591 86.3863 15.6591C87.0909 15.6591 87.7197 15.8371 88.2727 16.1932C88.8257 16.5492 89.2594 17.0625 89.5738 17.7329C89.892 18.4034 90.0511 19.2102 90.0511 20.1534C90.0511 21.0966 89.8939 21.9053 89.5795 22.5795C89.2651 23.25 88.8333 23.767 88.2841 24.1307C87.7348 24.4905 87.1079 24.6704 86.4034 24.6704C85.8731 24.6704 85.4394 24.5814 85.1023 24.4034C84.7689 24.2254 84.5076 24.017 84.3182 23.7784C84.1288 23.5398 83.9829 23.3276 83.8807 23.142H83.7784V27.7727H82.0795ZM83.7443 20.1364C83.7443 20.75 83.8333 21.2879 84.0113 21.75C84.1894 22.2121 84.4469 22.5739 84.7841 22.8352C85.1212 23.0928 85.5341 23.2216 86.0227 23.2216C86.5303 23.2216 86.9545 23.0871 87.2954 22.8182C87.6363 22.5454 87.8939 22.1761 88.0682 21.7102C88.2462 21.2443 88.3352 20.7197 88.3352 20.1364C88.3352 19.5606 88.2481 19.0436 88.0738 18.5852C87.9034 18.1269 87.6458 17.7651 87.3011 17.5C86.9602 17.2348 86.5341 17.1023 86.0227 17.1023C85.5303 17.1023 85.1136 17.2292 84.7727 17.4829C84.4356 17.7367 84.1799 18.0909 84.0057 18.5454C83.8314 19 83.7443 19.5303 83.7443 20.1364ZM93.6534 12.8636V24.5H91.9545V12.8636H93.6534ZM99.615 24.6761C98.7968 24.6761 98.0828 24.4886 97.473 24.1136C96.8631 23.7386 96.3897 23.214 96.0525 22.5398C95.7154 21.8655 95.5468 21.0776 95.5468 20.1761C95.5468 19.2708 95.7154 18.4792 96.0525 17.8011C96.3897 17.1231 96.8631 16.5966 97.473 16.2216C98.0828 15.8466 98.7968 15.6591 99.615 15.6591C100.433 15.6591 101.147 15.8466 101.757 16.2216C102.367 16.5966 102.84 17.1231 103.178 17.8011C103.515 18.4792 103.683 19.2708 103.683 20.1761C103.683 21.0776 103.515 21.8655 103.178 22.5398C102.84 23.214 102.367 23.7386 101.757 24.1136C101.147 24.4886 100.433 24.6761 99.615 24.6761ZM99.6207 23.25C100.151 23.25 100.59 23.1098 100.939 22.8295C101.287 22.5492 101.545 22.1761 101.712 21.7102C101.882 21.2443 101.967 20.7311 101.967 20.1704C101.967 19.6136 101.882 19.1023 101.712 18.6364C101.545 18.1667 101.287 17.7898 100.939 17.5057C100.59 17.2216 100.151 17.0795 99.6207 17.0795C99.0866 17.0795 98.6434 17.2216 98.2912 17.5057C97.9427 17.7898 97.6832 18.1667 97.5128 18.6364C97.3461 19.1023 97.2628 19.6136 97.2628 20.1704C97.2628 20.7311 97.3461 21.2443 97.5128 21.7102C97.6832 22.1761 97.9427 22.5492 98.2912 22.8295C98.6434 23.1098 99.0866 23.25 99.6207 23.25ZM106.357 27.7727C106.103 27.7727 105.872 27.7519 105.663 27.7102C105.455 27.6723 105.3 27.6307 105.197 27.5852L105.607 26.1932C105.917 26.2765 106.194 26.3125 106.436 26.3011C106.678 26.2898 106.892 26.1989 107.078 26.0284C107.267 25.8579 107.434 25.5795 107.578 25.1932L107.788 24.6136L104.595 15.7727H106.413L108.624 22.5454H108.714L110.925 15.7727H112.749L109.152 25.6648C108.985 26.1193 108.773 26.5038 108.516 26.8182C108.258 27.1364 107.951 27.375 107.595 27.5341C107.239 27.6932 106.826 27.7727 106.357 27.7727ZM117.81 24.6761C116.95 24.6761 116.209 24.4924 115.588 24.125C114.971 23.7538 114.493 23.2329 114.156 22.5625C113.823 21.8883 113.656 21.0985 113.656 20.1932C113.656 19.2992 113.823 18.5114 114.156 17.8295C114.493 17.1477 114.963 16.6155 115.565 16.2329C116.171 15.8504 116.88 15.6591 117.69 15.6591C118.183 15.6591 118.66 15.7405 119.122 15.9034C119.584 16.0663 119.999 16.322 120.366 16.6704C120.734 17.0189 121.024 17.4716 121.236 18.0284C121.448 18.5814 121.554 19.2538 121.554 20.0454V20.6477H114.616V19.375H119.889C119.889 18.928 119.798 18.5322 119.616 18.1875C119.435 17.839 119.179 17.5644 118.849 17.3636C118.524 17.1629 118.141 17.0625 117.702 17.0625C117.224 17.0625 116.808 17.1799 116.452 17.4148C116.099 17.6458 115.827 17.9489 115.633 18.3239C115.444 18.6951 115.349 19.0985 115.349 19.5341V20.5284C115.349 21.1117 115.452 21.6079 115.656 22.017C115.865 22.4261 116.154 22.7386 116.526 22.9545C116.897 23.1667 117.33 23.2727 117.827 23.2727C118.149 23.2727 118.442 23.2273 118.707 23.1364C118.973 23.0417 119.202 22.9015 119.395 22.7159C119.588 22.5303 119.736 22.3011 119.838 22.0284L121.446 22.3182C121.317 22.7917 121.086 23.2064 120.753 23.5625C120.423 23.9148 120.008 24.1894 119.508 24.3864C119.012 24.5795 118.446 24.6761 117.81 24.6761ZM126.706 24.6704C126.001 24.6704 125.373 24.4905 124.82 24.1307C124.27 23.767 123.839 23.25 123.524 22.5795C123.214 21.9053 123.058 21.0966 123.058 20.1534C123.058 19.2102 123.215 18.4034 123.53 17.7329C123.848 17.0625 124.284 16.5492 124.837 16.1932C125.39 15.8371 126.017 15.6591 126.717 15.6591C127.259 15.6591 127.695 15.75 128.024 15.9318C128.357 16.1098 128.615 16.3182 128.797 16.5568C128.982 16.7954 129.126 17.0057 129.229 17.1875H129.331V12.8636H131.03V24.5H129.371V23.142H129.229C129.126 23.3276 128.979 23.5398 128.785 23.7784C128.596 24.017 128.335 24.2254 128.001 24.4034C127.668 24.5814 127.236 24.6704 126.706 24.6704ZM127.081 23.2216C127.57 23.2216 127.982 23.0928 128.32 22.8352C128.66 22.5739 128.918 22.2121 129.092 21.75C129.27 21.2879 129.359 20.75 129.359 20.1364C129.359 19.5303 129.272 19 129.098 18.5454C128.924 18.0909 128.668 17.7367 128.331 17.4829C127.994 17.2292 127.577 17.1023 127.081 17.1023C126.57 17.1023 126.143 17.2348 125.803 17.5C125.462 17.7651 125.204 18.1269 125.03 18.5852C124.859 19.0436 124.774 19.5606 124.774 20.1364C124.774 20.7197 124.861 21.2443 125.035 21.7102C125.21 22.1761 125.467 22.5454 125.808 22.8182C126.153 23.0871 126.577 23.2216 127.081 23.2216ZM141.365 24.6761C140.547 24.6761 139.833 24.4886 139.223 24.1136C138.613 23.7386 138.14 23.214 137.803 22.5398C137.465 21.8655 137.297 21.0776 137.297 20.1761C137.297 19.2708 137.465 18.4792 137.803 17.8011C138.14 17.1231 138.613 16.5966 139.223 16.2216C139.833 15.8466 140.547 15.6591 141.365 15.6591C142.183 15.6591 142.897 15.8466 143.507 16.2216C144.117 16.5966 144.59 17.1231 144.928 17.8011C145.265 18.4792 145.433 19.2708 145.433 20.1761C145.433 21.0776 145.265 21.8655 144.928 22.5398C144.59 23.214 144.117 23.7386 143.507 24.1136C142.897 24.4886 142.183 24.6761 141.365 24.6761ZM141.371 23.25C141.901 23.25 142.34 23.1098 142.689 22.8295C143.037 22.5492 143.295 22.1761 143.462 21.7102C143.632 21.2443 143.717 20.7311 143.717 20.1704C143.717 19.6136 143.632 19.1023 143.462 18.6364C143.295 18.1667 143.037 17.7898 142.689 17.5057C142.34 17.2216 141.901 17.0795 141.371 17.0795C140.837 17.0795 140.393 17.2216 140.041 17.5057C139.693 17.7898 139.433 18.1667 139.263 18.6364C139.096 19.1023 139.013 19.6136 139.013 20.1704C139.013 20.7311 139.096 21.2443 139.263 21.7102C139.433 22.1761 139.693 22.5492 140.041 22.8295C140.393 23.1098 140.837 23.25 141.371 23.25ZM149.028 19.3182V24.5H147.33V15.7727H148.96V17.1932H149.068C149.269 16.7311 149.583 16.3598 150.011 16.0795C150.443 15.7992 150.987 15.6591 151.642 15.6591C152.237 15.6591 152.758 15.7841 153.205 16.0341C153.651 16.2803 153.998 16.6477 154.244 17.1364C154.49 17.625 154.614 18.2292 154.614 18.9489V24.5H152.915V19.1534C152.915 18.5208 152.75 18.0265 152.42 17.6704C152.091 17.3106 151.638 17.1307 151.062 17.1307C150.669 17.1307 150.318 17.2159 150.011 17.3864C149.708 17.5568 149.468 17.8068 149.29 18.1364C149.115 18.4621 149.028 18.8561 149.028 19.3182Z" fill="#E8E8E8"/>
<path d="M72.1584 35.6158H69.1399C69.0997 35.3059 69.0171 35.0261 68.8924 34.7766C68.7676 34.5271 68.6026 34.3138 68.3974 34.1367C68.1921 33.9596 67.9486 33.8248 67.6669 33.7322C67.3892 33.6356 67.0813 33.5873 66.7432 33.5873C66.1436 33.5873 65.6264 33.7342 65.1917 34.028C64.7611 34.3218 64.4291 34.7464 64.1957 35.3018C63.9662 35.8572 63.8515 36.5293 63.8515 37.3182C63.8515 38.1392 63.9683 38.8274 64.2017 39.3828C64.4391 39.9342 64.7712 40.3507 65.1978 40.6324C65.6284 40.9101 66.1375 41.049 66.7251 41.049C67.0551 41.049 67.355 41.0067 67.6246 40.9222C67.8983 40.8377 68.1378 40.715 68.343 40.554C68.5523 40.389 68.7233 40.1897 68.8562 39.9563C68.993 39.7189 69.0876 39.4512 69.1399 39.1534L72.1584 39.1715C72.106 39.7189 71.9471 40.2582 71.6814 40.7894C71.4198 41.3207 71.0596 41.8056 70.6008 42.2443C70.142 42.679 69.5826 43.0251 68.9226 43.2827C68.2666 43.5402 67.514 43.669 66.6648 43.669C65.5459 43.669 64.5438 43.4235 63.6584 42.9325C62.777 42.4375 62.0807 41.7171 61.5696 40.7713C61.0585 39.8255 60.8029 38.6745 60.8029 37.3182C60.8029 35.9578 61.0625 34.8048 61.5817 33.859C62.1008 32.9132 62.8031 32.1948 63.6885 31.7038C64.574 31.2128 65.566 30.9673 66.6648 30.9673C67.4133 30.9673 68.1056 31.072 68.7415 31.2812C69.3773 31.4865 69.9368 31.7883 70.4197 32.1868C70.9027 32.5812 71.2951 33.0662 71.5969 33.6417C71.8988 34.2172 72.0859 34.8752 72.1584 35.6158ZM76.8204 31.1364V43.5H73.8683V31.1364H76.8204ZM83.0279 43.6751C82.0539 43.6751 81.2168 43.4758 80.5165 43.0774C79.8202 42.6749 79.2829 42.1155 78.9046 41.3991C78.5303 40.6787 78.3432 39.8436 78.3432 38.8938C78.3432 37.94 78.5303 37.1049 78.9046 36.3885C79.2829 35.6681 79.8202 35.1087 80.5165 34.7102C81.2168 34.3078 82.0539 34.1065 83.0279 34.1065C84.0018 34.1065 84.8369 34.3078 85.5332 34.7102C86.2335 35.1087 86.7708 35.6681 87.145 36.3885C87.5234 37.1049 87.7125 37.94 87.7125 38.8938C87.7125 39.8436 87.5234 40.6787 87.145 41.3991C86.7708 42.1155 86.2335 42.6749 85.5332 43.0774C84.8369 43.4758 84.0018 43.6751 83.0279 43.6751ZM83.046 41.4474C83.4001 41.4474 83.7 41.3388 83.9455 41.1214C84.191 40.9041 84.3781 40.6023 84.5069 40.2159C84.6397 39.8295 84.7061 39.3828 84.7061 38.8757C84.7061 38.3605 84.6397 37.9098 84.5069 37.5234C84.3781 37.1371 84.191 36.8352 83.9455 36.6179C83.7 36.4006 83.4001 36.2919 83.046 36.2919C82.6797 36.2919 82.3698 36.4006 82.1163 36.6179C81.8668 36.8352 81.6756 37.1371 81.5428 37.5234C81.414 37.9098 81.3496 38.3605 81.3496 38.8757C81.3496 39.3828 81.414 39.8295 81.5428 40.2159C81.6756 40.6023 81.8668 40.9041 82.1163 41.1214C82.3698 41.3388 82.6797 41.4474 83.046 41.4474ZM95.2074 39.4975V34.2273H98.1534V43.5H95.3402V41.7734H95.2436C95.0383 42.3409 94.6882 42.7917 94.1932 43.1257C93.7022 43.4557 93.1085 43.6207 92.4123 43.6207C91.7804 43.6207 91.225 43.4758 90.7461 43.1861C90.2671 42.8963 89.8949 42.4918 89.6292 41.9726C89.3636 41.4494 89.2288 40.8377 89.2248 40.1374V34.2273H92.1768V39.5579C92.1808 40.061 92.3137 40.4574 92.5753 40.7471C92.8369 41.0369 93.193 41.1818 93.6438 41.1818C93.9376 41.1818 94.2012 41.1174 94.4346 40.9886C94.6721 40.8558 94.8592 40.6646 94.9961 40.4151C95.1369 40.1616 95.2074 39.8557 95.2074 39.4975ZM103.419 43.6328C102.735 43.6328 102.113 43.4557 101.554 43.1016C100.994 42.7474 100.548 42.2161 100.213 41.5078C99.8794 40.7995 99.7124 39.9201 99.7124 38.8697C99.7124 37.779 99.8855 36.8815 100.232 36.1772C100.578 35.4729 101.03 34.9517 101.59 34.6136C102.153 34.2756 102.759 34.1065 103.407 34.1065C103.894 34.1065 104.311 34.191 104.657 34.3601C105.003 34.5251 105.289 34.7384 105.514 35C105.739 35.2616 105.91 35.5333 106.027 35.815H106.087V31.1364H109.039V43.5H106.118V41.9968H106.027C105.902 42.2825 105.725 42.5502 105.496 42.7997C105.266 43.0492 104.979 43.2505 104.633 43.4034C104.29 43.5563 103.886 43.6328 103.419 43.6328ZM104.445 41.3327C104.804 41.3327 105.109 41.2321 105.363 41.0309C105.617 40.8256 105.812 40.5379 105.949 40.1676C106.085 39.7973 106.154 39.3627 106.154 38.8636C106.154 38.3565 106.085 37.9199 105.949 37.5536C105.816 37.1874 105.621 36.9056 105.363 36.7084C105.109 36.5112 104.804 36.4126 104.445 36.4126C104.079 36.4126 103.769 36.5132 103.516 36.7145C103.262 36.9157 103.069 37.1994 102.936 37.5657C102.807 37.9319 102.743 38.3646 102.743 38.8636C102.743 39.3627 102.809 39.7973 102.942 40.1676C103.075 40.5379 103.266 40.8256 103.516 41.0309C103.769 41.2321 104.079 41.3327 104.445 41.3327ZM116.177 34.2273V36.4006H110.212V34.2273H116.177ZM111.456 43.5V33.7564C111.456 33.04 111.591 32.4464 111.86 31.9755C112.13 31.5006 112.504 31.1464 112.983 30.913C113.462 30.6755 114.015 30.5568 114.643 30.5568C115.054 30.5568 115.44 30.589 115.802 30.6534C116.169 30.7138 116.44 30.7681 116.617 30.8164L116.146 32.9776C116.038 32.9414 115.905 32.9112 115.748 32.8871C115.595 32.8629 115.45 32.8508 115.313 32.8508C114.967 32.8508 114.73 32.9273 114.601 33.0802C114.472 33.2332 114.408 33.4425 114.408 33.7081V43.5H111.456ZM120.549 31.1364V43.5H117.597V31.1364H120.549ZM125.042 43.6569C124.45 43.6569 123.925 43.5583 123.466 43.3611C123.011 43.1599 122.651 42.8581 122.386 42.4556C122.124 42.0491 121.993 41.54 121.993 40.9283C121.993 40.4131 122.084 39.9784 122.265 39.6243C122.446 39.2701 122.696 38.9824 123.013 38.761C123.331 38.5396 123.698 38.3726 124.112 38.2599C124.527 38.1432 124.969 38.0647 125.44 38.0245C125.968 37.9762 126.392 37.9259 126.714 37.8736C127.036 37.8172 127.269 37.7387 127.414 37.6381C127.563 37.5335 127.638 37.3866 127.638 37.1974V37.1672C127.638 36.8574 127.531 36.6179 127.318 36.4489C127.104 36.2798 126.817 36.1953 126.455 36.1953C126.064 36.1953 125.75 36.2798 125.513 36.4489C125.275 36.6179 125.124 36.8513 125.06 37.1491L122.337 37.0525C122.418 36.4891 122.625 35.986 122.959 35.5433C123.297 35.0966 123.76 34.7464 124.348 34.4929C124.939 34.2353 125.65 34.1065 126.479 34.1065C127.07 34.1065 127.616 34.177 128.115 34.3178C128.614 34.4547 129.048 34.6559 129.419 34.9215C129.789 35.1831 130.075 35.5051 130.276 35.8874C130.481 36.2698 130.584 36.7064 130.584 37.1974V43.5H127.807V42.2081H127.734C127.569 42.522 127.358 42.7876 127.1 43.005C126.847 43.2223 126.547 43.3853 126.201 43.494C125.859 43.6026 125.473 43.6569 125.042 43.6569ZM125.953 41.7251C126.271 41.7251 126.557 41.6607 126.811 41.5319C127.068 41.4032 127.274 41.2261 127.426 41.0007C127.579 40.7713 127.656 40.5057 127.656 40.2038V39.3224C127.571 39.3667 127.469 39.4069 127.348 39.4432C127.231 39.4794 127.102 39.5136 126.962 39.5458C126.821 39.578 126.676 39.6062 126.527 39.6303C126.378 39.6545 126.235 39.6766 126.098 39.6967C125.821 39.741 125.583 39.8094 125.386 39.902C125.193 39.9945 125.044 40.1153 124.939 40.2642C124.839 40.4091 124.788 40.5821 124.788 40.7834C124.788 41.0892 124.897 41.3227 125.114 41.4837C125.336 41.6446 125.615 41.7251 125.953 41.7251ZM132.389 43.5V34.2273H135.256V35.9176H135.353C135.522 35.3059 135.798 34.8511 136.18 34.5533C136.562 34.2514 137.007 34.1005 137.514 34.1005C137.651 34.1005 137.792 34.1105 137.937 34.1307C138.082 34.1468 138.216 34.1729 138.341 34.2092V36.7748C138.2 36.7266 138.015 36.6883 137.786 36.6601C137.56 36.632 137.359 36.6179 137.182 36.6179C136.832 36.6179 136.516 36.6964 136.234 36.8533C135.957 37.0063 135.737 37.2216 135.576 37.4993C135.419 37.773 135.341 38.0949 135.341 38.4652V43.5H132.389ZM143.397 43.6751C142.427 43.6751 141.59 43.4839 140.886 43.1016C140.186 42.7152 139.646 42.1658 139.268 41.4535C138.894 40.7371 138.706 39.8859 138.706 38.8998C138.706 37.942 138.896 37.1049 139.274 36.3885C139.652 35.6681 140.186 35.1087 140.874 34.7102C141.562 34.3078 142.373 34.1065 143.307 34.1065C143.967 34.1065 144.57 34.2092 145.118 34.4144C145.665 34.6197 146.138 34.9235 146.536 35.326C146.935 35.7284 147.245 36.2255 147.466 36.8171C147.687 37.4047 147.798 38.0788 147.798 38.8395V39.576H139.739V37.8615H145.051C145.047 37.5476 144.973 37.2679 144.828 37.0224C144.683 36.7769 144.484 36.5857 144.23 36.4489C143.981 36.308 143.693 36.2376 143.367 36.2376C143.037 36.2376 142.741 36.312 142.48 36.4609C142.218 36.6058 142.011 36.805 141.858 37.0586C141.705 37.3081 141.624 37.5918 141.616 37.9098V39.6545C141.616 40.0328 141.691 40.3648 141.84 40.6506C141.989 40.9323 142.2 41.1516 142.474 41.3086C142.747 41.4655 143.073 41.544 143.451 41.544C143.713 41.544 143.951 41.5078 144.164 41.4354C144.377 41.3629 144.56 41.2563 144.713 41.1154C144.866 40.9745 144.981 40.8015 145.057 40.5962L147.768 40.6747C147.655 41.2824 147.408 41.8117 147.025 42.2624C146.647 42.7092 146.15 43.0573 145.534 43.3068C144.918 43.5523 144.206 43.6751 143.397 43.6751ZM152.958 43.5V31.1364H158.065C158.991 31.1364 159.79 31.3175 160.462 31.6797C161.138 32.0379 161.659 32.5389 162.026 33.1829C162.392 33.8228 162.575 34.5673 162.575 35.4165C162.575 36.2698 162.388 37.0163 162.014 37.6562C161.643 38.2921 161.114 38.7851 160.426 39.1353C159.738 39.4854 158.921 39.6605 157.975 39.6605H154.824V37.3061H157.419C157.87 37.3061 158.246 37.2276 158.548 37.0707C158.854 36.9137 159.086 36.6944 159.243 36.4126C159.4 36.1269 159.478 35.7949 159.478 35.4165C159.478 35.0342 159.4 34.7042 159.243 34.4265C159.086 34.1448 158.854 33.9274 158.548 33.7745C158.242 33.6216 157.866 33.5451 157.419 33.5451H155.946V43.5H152.958ZM166.33 43.6569C165.738 43.6569 165.213 43.5583 164.754 43.3611C164.3 43.1599 163.939 42.8581 163.674 42.4556C163.412 42.0491 163.281 41.54 163.281 40.9283C163.281 40.4131 163.372 39.9784 163.553 39.6243C163.734 39.2701 163.984 38.9824 164.302 38.761C164.619 38.5396 164.986 38.3726 165.4 38.2599C165.815 38.1432 166.257 38.0647 166.728 38.0245C167.256 37.9762 167.68 37.9259 168.002 37.8736C168.324 37.8172 168.558 37.7387 168.702 37.6381C168.851 37.5335 168.926 37.3866 168.926 37.1974V37.1672C168.926 36.8574 168.819 36.6179 168.606 36.4489C168.393 36.2798 168.105 36.1953 167.743 36.1953C167.352 36.1953 167.038 36.2798 166.801 36.4489C166.563 36.6179 166.412 36.8513 166.348 37.1491L163.625 37.0525C163.706 36.4891 163.913 35.986 164.247 35.5433C164.585 35.0966 165.048 34.7464 165.636 34.4929C166.227 34.2353 166.938 34.1065 167.767 34.1065C168.358 34.1065 168.904 34.177 169.403 34.3178C169.902 34.4547 170.336 34.6559 170.707 34.9215C171.077 35.1831 171.363 35.5051 171.564 35.8874C171.769 36.2698 171.872 36.7064 171.872 37.1974V43.5H169.095V42.2081H169.022C168.857 42.522 168.646 42.7876 168.389 43.005C168.135 43.2223 167.835 43.3853 167.489 43.494C167.147 43.6026 166.761 43.6569 166.33 43.6569ZM167.242 41.7251C167.559 41.7251 167.845 41.6607 168.099 41.5319C168.356 41.4032 168.562 41.2261 168.715 41.0007C168.867 40.7713 168.944 40.5057 168.944 40.2038V39.3224C168.859 39.3667 168.757 39.4069 168.636 39.4432C168.519 39.4794 168.391 39.5136 168.25 39.5458C168.109 39.578 167.964 39.6062 167.815 39.6303C167.666 39.6545 167.523 39.6766 167.386 39.6967C167.109 39.741 166.871 39.8094 166.674 39.902C166.481 39.9945 166.332 40.1153 166.227 40.2642C166.127 40.4091 166.076 40.5821 166.076 40.7834C166.076 41.0892 166.185 41.3227 166.402 41.4837C166.624 41.6446 166.903 41.7251 167.242 41.7251ZM177.999 47.1704C177.118 47.1704 176.363 47.0477 175.735 46.8022C175.108 46.5567 174.615 46.2206 174.256 45.794C173.898 45.3674 173.683 44.8845 173.61 44.3452L176.406 44.1882C176.458 44.3774 176.554 44.5424 176.695 44.6832C176.84 44.8241 177.027 44.9328 177.257 45.0092C177.49 45.0857 177.764 45.1239 178.078 45.1239C178.573 45.1239 178.981 45.0032 179.303 44.7617C179.629 44.5243 179.792 44.1077 179.792 43.5121V41.8821H179.69C179.573 42.1678 179.396 42.4234 179.158 42.6488C178.921 42.8742 178.625 43.0512 178.271 43.18C177.921 43.3088 177.518 43.3732 177.064 43.3732C176.387 43.3732 175.768 43.2163 175.204 42.9023C174.645 42.5844 174.196 42.0934 173.858 41.4293C173.524 40.7612 173.357 39.902 173.357 38.8516C173.357 37.7689 173.53 36.8775 173.876 36.1772C174.222 35.4729 174.675 34.9517 175.234 34.6136C175.798 34.2756 176.404 34.1065 177.052 34.1065C177.539 34.1065 177.955 34.191 178.301 34.3601C178.651 34.5251 178.939 34.7384 179.164 35C179.39 35.2616 179.561 35.5333 179.678 35.815H179.762V34.2273H182.702V43.5362C182.702 44.321 182.505 44.9831 182.11 45.5224C181.716 46.0617 181.165 46.4702 180.456 46.7479C179.748 47.0296 178.929 47.1704 177.999 47.1704ZM178.09 41.2241C178.448 41.2241 178.754 41.1295 179.007 40.9403C179.261 40.7512 179.456 40.4795 179.593 40.1253C179.73 39.7712 179.798 39.3466 179.798 38.8516C179.798 38.3485 179.73 37.9158 179.593 37.5536C179.46 37.1874 179.265 36.9056 179.007 36.7084C178.754 36.5112 178.448 36.4126 178.09 36.4126C177.724 36.4126 177.414 36.5132 177.16 36.7145C176.907 36.9157 176.713 37.1994 176.581 37.5657C176.452 37.9279 176.387 38.3565 176.387 38.8516C176.387 39.3466 176.454 39.7712 176.587 40.1253C176.719 40.4795 176.911 40.7512 177.16 40.9403C177.414 41.1295 177.724 41.2241 178.09 41.2241ZM188.919 43.6751C187.949 43.6751 187.112 43.4839 186.407 43.1016C185.707 42.7152 185.168 42.1658 184.789 41.4535C184.415 40.7371 184.228 39.8859 184.228 38.8998C184.228 37.942 184.417 37.1049 184.795 36.3885C185.174 35.6681 185.707 35.1087 186.395 34.7102C187.083 34.3078 187.894 34.1065 188.828 34.1065C189.488 34.1065 190.092 34.2092 190.639 34.4144C191.186 34.6197 191.659 34.9235 192.058 35.326C192.456 35.7284 192.766 36.2255 192.988 36.8171C193.209 37.4047 193.32 38.0788 193.32 38.8395V39.576H185.26V37.8615H190.573C190.569 37.5476 190.494 37.2679 190.349 37.0224C190.204 36.7769 190.005 36.5857 189.752 36.4489C189.502 36.308 189.214 36.2376 188.888 36.2376C188.558 36.2376 188.263 36.312 188.001 36.4609C187.739 36.6058 187.532 36.805 187.379 37.0586C187.226 37.3081 187.146 37.5918 187.138 37.9098V39.6545C187.138 40.0328 187.212 40.3648 187.361 40.6506C187.51 40.9323 187.721 41.1516 187.995 41.3086C188.269 41.4655 188.595 41.544 188.973 41.544C189.235 41.544 189.472 41.5078 189.685 41.4354C189.899 41.3629 190.082 41.2563 190.235 41.1154C190.388 40.9745 190.502 40.8015 190.579 40.5962L193.289 40.6747C193.177 41.2824 192.929 41.8117 192.547 42.2624C192.169 42.7092 191.671 43.0573 191.056 43.3068C190.44 43.5523 189.728 43.6751 188.919 43.6751ZM202.923 37.0586L200.212 37.131C200.184 36.9378 200.108 36.7668 199.983 36.6179C199.858 36.465 199.695 36.3462 199.494 36.2617C199.297 36.1732 199.067 36.1289 198.806 36.1289C198.464 36.1289 198.172 36.1973 197.93 36.3342C197.693 36.471 197.576 36.6561 197.58 36.8895C197.576 37.0707 197.649 37.2276 197.797 37.3604C197.95 37.4932 198.222 37.5999 198.612 37.6804L200.399 38.0185C201.325 38.1955 202.013 38.4893 202.464 38.8998C202.919 39.3104 203.148 39.8537 203.152 40.5298C203.148 41.1657 202.959 41.7191 202.585 42.19C202.214 42.6609 201.707 43.0271 201.063 43.2887C200.419 43.5463 199.683 43.6751 198.854 43.6751C197.53 43.6751 196.485 43.4034 195.721 42.8601C194.96 42.3127 194.525 41.5802 194.417 40.6626L197.333 40.5902C197.397 40.9283 197.564 41.1858 197.834 41.3629C198.103 41.54 198.447 41.6285 198.866 41.6285C199.244 41.6285 199.552 41.5581 199.79 41.4172C200.027 41.2764 200.148 41.0892 200.152 40.8558C200.148 40.6465 200.055 40.4795 199.874 40.3547C199.693 40.226 199.409 40.1253 199.023 40.0529L197.405 39.745C196.475 39.576 195.783 39.2641 195.328 38.8093C194.874 38.3505 194.648 37.7669 194.652 37.0586C194.648 36.4388 194.813 35.9096 195.147 35.4709C195.481 35.0282 195.956 34.6901 196.572 34.4567C197.188 34.2232 197.914 34.1065 198.751 34.1065C200.007 34.1065 200.997 34.3701 201.721 34.8974C202.446 35.4206 202.846 36.141 202.923 37.0586Z" fill="#F29122"/>
</g>
<defs>
<filter id="filter0_d_1_50" x="6.28571" y="2.28571" width="51.4286" height="51.4286" filterUnits="userSpaceOnUse" color-interpolation-filters="sRGB">
<feFlood flood-opacity="0" result="BackgroundImageFix"/>
<feColorMatrix in="SourceAlpha" type="matrix" values="0 0 0 0 0 0 0 0 0 0 0 0 0 0 0 0 0 0 127 0" result="hardAlpha"/>
<feOffset/>
<feGaussianBlur stdDeviation="2.85714"/>
<feComposite in2="hardAlpha" operator="out"/>
<feColorMatrix type="matrix" values="0 0 0 0 0 0 0 0 0 0 0 0 0 0 0 0 0 0 0.25 0"/>
<feBlend mode="normal" in2="BackgroundImageFix" result="effect1_dropShadow_1_50"/>
<feBlend mode="normal" in="SourceGraphic" in2="effect1_dropShadow_1_50" result="shape"/>
</filter>
<filter id="filter1_d_1_50" x="54.4" y="3.9" width="155.2" height="48.8704" filterUnits="userSpaceOnUse" color-interpolation-filters="sRGB">
<feFlood flood-opacity="0" result="BackgroundImageFix"/>
<feColorMatrix in="SourceAlpha" type="matrix" values="0 0 0 0 0 0 0 0 0 0 0 0 0 0 0 0 0 0 127 0" result="hardAlpha"/>
<feOffset/>
<feGaussianBlur stdDeviation="2.8"/>
<feComposite in2="hardAlpha" operator="out"/>
<feColorMatrix type="matrix" values="0 0 0 0 0 0 0 0 0 0 0 0 0 0 0 0 0 0 0.25 0"/>
<feBlend mode="normal" in2="BackgroundImageFix" result="effect1_dropShadow_1_50"/>
<feBlend mode="normal" in="SourceGraphic" in2="effect1_dropShadow_1_50" result="shape"/>
</filter>
<linearGradient id="paint0_linear_1_50" x1="108" y1="0" x2="108" y2="56" gradientUnits="userSpaceOnUse">
<stop stop-color="#754207"/>
<stop offset="1" stop-color="#4E2C05"/>
</linearGradient>
<linearGradient id="paint1_linear_1_50" x1="1625.11" y1="-51.4729" x2="-548.529" y2="1595.62" gradientUnits="userSpaceOnUse">
<stop stop-color="#FBB743"/>
<stop offset="1" stop-color="#EA6B00"/>
</linearGradient>
</defs>
</svg>
