<svg width="56" height="56" viewBox="0 0 56 56" fill="none" xmlns="http://www.w3.org/2000/svg">
<rect width="56" height="56" rx="8.4" fill="url(#paint0_linear_1_62)"/>
<rect x="1.05" y="1.05" width="53.9" height="53.9" rx="7.35" stroke="white" stroke-opacity="0.15" stroke-width="2.1"/>
<g filter="url(#filter0_d_1_62)">
<path d="M34.2338 12.578H43.2742L44.5601 13.864V42.1553L43.2742 43.4412H30.9546L31.5783 42.4768H42.8755L43.5957 41.7566V14.2627L42.8755 13.5425H35.0826L34.1631 18.2942H33.1793L34.0602 13.4975L34.2403 12.578H34.2338ZM12.411 43.4412L11.125 42.1553V13.864L12.411 12.578H25.2063L24.5634 13.5425H12.8096L12.0895 14.2627V41.7566L12.8096 42.4768H22.12L21.9657 43.4412H12.411ZM14.3399 40.2263H19.8053L19.6124 41.1908H13.6969L13.3754 40.8693V35.0825L14.3399 37.0114V40.2263ZM36.2014 40.2263L37.1658 41.1908H32.3435L32.9864 40.2263H36.2014Z" fill="#B7BBBD"/>
<path d="M25.7014 31.8675H16.9119L15.8445 29.8614L30.6331 8L32.9607 8.96448L30.0416 24.1517H38.7733L39.8535 26.1386L25.7079 48L23.3545 47.0998L25.7014 31.8675ZM14.6614 17.0789C14.4056 17.0789 14.1603 16.9773 13.9794 16.7964C13.7985 16.6156 13.6969 16.3702 13.6969 16.1145C13.6969 15.8587 13.7985 15.6133 13.9794 15.4325C14.1603 15.2516 14.4056 15.15 14.6614 15.15C14.9172 15.15 15.1625 15.2516 15.3434 15.4325C15.5243 15.6133 15.6259 15.8587 15.6259 16.1145C15.6259 16.3702 15.5243 16.6156 15.3434 16.7964C15.1625 16.9773 14.9172 17.0789 14.6614 17.0789ZM17.2333 17.0789C16.9775 17.0789 16.7322 16.9773 16.5514 16.7964C16.3705 16.6156 16.2689 16.3702 16.2689 16.1145C16.2689 15.8587 16.3705 15.6133 16.5514 15.4325C16.7322 15.2516 16.9775 15.15 17.2333 15.15C17.4891 15.15 17.7345 15.2516 17.9153 15.4325C18.0962 15.6133 18.1978 15.8587 18.1978 16.1145C18.1978 16.3702 18.0962 16.6156 17.9153 16.7964C17.7345 16.9773 17.4891 17.0789 17.2333 17.0789ZM19.8053 17.0789C19.5495 17.0789 19.3042 16.9773 19.1233 16.7964C18.9424 16.6156 18.8408 16.3702 18.8408 16.1145C18.8408 15.8587 18.9424 15.6133 19.1233 15.4325C19.3042 15.2516 19.5495 15.15 19.8053 15.15C20.0611 15.15 20.3064 15.2516 20.4873 15.4325C20.6681 15.6133 20.7698 15.8587 20.7698 16.1145C20.7698 16.3702 20.6681 16.6156 20.4873 16.7964C20.3064 16.9773 20.0611 17.0789 19.8053 17.0789Z" fill="url(#paint1_linear_1_62)"/>
</g>
<defs>
<filter id="filter0_d_1_62" x="2.28571" y="2.28571" width="51.4286" height="51.4286" filterUnits="userSpaceOnUse" color-interpolation-filters="sRGB">
<feFlood flood-opacity="0" result="BackgroundImageFix"/>
<feColorMatrix in="SourceAlpha" type="matrix" values="0 0 0 0 0 0 0 0 0 0 0 0 0 0 0 0 0 0 127 0" result="hardAlpha"/>
<feOffset/>
<feGaussianBlur stdDeviation="2.85714"/>
<feComposite in2="hardAlpha" operator="out"/>
<feColorMatrix type="matrix" values="0 0 0 0 0 0 0 0 0 0 0 0 0 0 0 0 0 0 0.25 0"/>
<feBlend mode="normal" in2="BackgroundImageFix" result="effect1_dropShadow_1_62"/>
<feBlend mode="normal" in="SourceGraphic" in2="effect1_dropShadow_1_62" result="shape"/>
</filter>
<linearGradient id="paint0_linear_1_62" x1="28" y1="0" x2="28" y2="56" gradientUnits="userSpaceOnUse">
<stop stop-color="#754207"/>
<stop offset="1" stop-color="#4E2C05"/>
</linearGradient>
<linearGradient id="paint1_linear_1_62" x1="1621.11" y1="-51.4729" x2="-552.529" y2="1595.62" gradientUnits="userSpaceOnUse">
<stop stop-color="#FBB743"/>
<stop offset="1" stop-color="#EA6B00"/>
</linearGradient>
</defs>
</svg>
