<svg width="251" height="40" viewBox="0 0 251 40" fill="none" xmlns="http://www.w3.org/2000/svg">
<rect width="251.001" height="40.0014" rx="8" fill="url(#paint0_linear_1_56)"/>
<rect x="1.07143" y="1.07143" width="248.858" height="37.8585" rx="6.92857" stroke="white" stroke-opacity="0.15" stroke-width="2.14286"/>
<g filter="url(#filter0_d_1_56)">
<path d="M8 16.3498L10.6215 12.8819L20.4273 8.8893V6L29.0257 12.3034L11.4603 15.7198V25.3333L8 24.3328V16.3498ZM36 11.1486V28.2728L29.2882 34L18.4347 30.4269V33.9988L11.4603 25.3309L29.0268 27.4325V12.3034L36 11.1486Z" fill="#0078D7"/>
</g>
<g filter="url(#filter1_d_1_56)">
<path d="M43.3597 26.5007V14.1371H47.8874C48.7648 14.1371 49.4912 14.282 50.0667 14.5717C50.6423 14.8575 51.0729 15.2458 51.3586 15.7369C51.6444 16.2238 51.7873 16.7732 51.7873 17.3849C51.7873 17.9001 51.6927 18.3347 51.5035 18.6889C51.3144 19.0391 51.0608 19.3208 50.7429 19.5341C50.429 19.7434 50.0828 19.8963 49.7045 19.9929V20.1136C50.115 20.1337 50.5155 20.2666 50.9059 20.5121C51.3003 20.7535 51.6263 21.0976 51.8839 21.5444C52.1414 21.9911 52.2702 22.5344 52.2702 23.1743C52.2702 23.8062 52.1213 24.3737 51.8235 24.8768C51.5297 25.3758 51.0749 25.7722 50.4591 26.066C49.8434 26.3558 49.0566 26.5007 48.0987 26.5007H43.3597ZM45.2251 24.9009H47.9176C48.8111 24.9009 49.451 24.7279 49.8373 24.3817C50.2237 24.0356 50.4169 23.603 50.4169 23.0838C50.4169 22.6934 50.3183 22.3352 50.1211 22.0092C49.9239 21.6832 49.6421 21.4236 49.2759 21.2305C48.9137 21.0373 48.483 20.9407 47.984 20.9407H45.2251V24.9009ZM45.2251 19.4858H47.7244C48.143 19.4858 48.5193 19.4053 48.8533 19.2443C49.1914 19.0833 49.459 18.8579 49.6562 18.5682C49.8575 18.2744 49.9581 17.9283 49.9581 17.5298C49.9581 17.0187 49.779 16.5901 49.4208 16.244C49.0626 15.8978 48.5132 15.7248 47.7727 15.7248H45.2251V19.4858ZM60.2118 22.6552V17.228H62.0229V26.5007H60.248V24.8949H60.1514C59.9381 25.3899 59.596 25.8024 59.1251 26.1324C58.6583 26.4584 58.0767 26.6214 57.3805 26.6214C56.7848 26.6214 56.2576 26.4906 55.7988 26.229C55.344 25.9634 54.9858 25.571 54.7242 25.0518C54.4667 24.5327 54.3379 23.8907 54.3379 23.1261V17.228H56.1429V22.9087C56.1429 23.5406 56.318 24.0437 56.6681 24.418C57.0183 24.7922 57.473 24.9794 58.0325 24.9794C58.3705 24.9794 58.7066 24.8949 59.0406 24.7258C59.3787 24.5568 59.6584 24.3012 59.8798 23.9591C60.1051 23.6171 60.2158 23.1824 60.2118 22.6552ZM64.4482 26.5007V17.228H66.2533V26.5007H64.4482ZM65.3598 15.7972C65.0459 15.7972 64.7762 15.6926 64.5508 15.4833C64.3295 15.27 64.2188 15.0164 64.2188 14.7226C64.2188 14.4248 64.3295 14.1713 64.5508 13.962C64.7762 13.7487 65.0459 13.642 65.3598 13.642C65.6737 13.642 65.9413 13.7487 66.1627 13.962C66.3881 14.1713 66.5008 14.4248 66.5008 14.7226C66.5008 15.0164 66.3881 15.27 66.1627 15.4833C65.9413 15.6926 65.6737 15.7972 65.3598 15.7972ZM70.4867 14.1371V26.5007H68.6816V14.1371H70.4867ZM77.2435 17.228V18.6768H72.1785V17.228H77.2435ZM73.5368 15.0064H75.3419V23.778C75.3419 24.1282 75.3942 24.3918 75.4988 24.5689C75.6035 24.7419 75.7383 24.8607 75.9033 24.9251C76.0723 24.9854 76.2554 25.0156 76.4526 25.0156C76.5975 25.0156 76.7243 25.0056 76.833 24.9854C76.9416 24.9653 77.0262 24.9492 77.0865 24.9371L77.4125 26.4283C77.3079 26.4685 77.159 26.5087 76.9658 26.549C76.7726 26.5933 76.5311 26.6174 76.2414 26.6214C75.7664 26.6295 75.3237 26.545 74.9132 26.3679C74.5027 26.1908 74.1707 25.9171 73.9171 25.5469C73.6636 25.1766 73.5368 24.7118 73.5368 24.1523V15.0064ZM85.7495 26.5007L83.0208 17.228H84.8862L86.7034 24.0376H86.7939L88.6171 17.228H90.4825L92.2936 24.0074H92.3841L94.1891 17.228H96.0546L93.3319 26.5007H91.4906L89.6071 19.8057H89.4683L87.5847 26.5007H85.7495ZM97.7675 26.5007V17.228H99.5726V26.5007H97.7675ZM98.6791 15.7972C98.3652 15.7972 98.0955 15.6926 97.8702 15.4833C97.6488 15.27 97.5381 15.0164 97.5381 14.7226C97.5381 14.4248 97.6488 14.1713 97.8702 13.962C98.0955 13.7487 98.3652 13.642 98.6791 13.642C98.993 13.642 99.2607 13.7487 99.482 13.962C99.7074 14.1713 99.8201 14.4248 99.8201 14.7226C99.8201 15.0164 99.7074 15.27 99.482 15.4833C99.2607 15.6926 98.993 15.7972 98.6791 15.7972ZM106.329 17.228V18.6768H101.264V17.228H106.329ZM102.623 15.0064H104.428V23.778C104.428 24.1282 104.48 24.3918 104.585 24.5689C104.689 24.7419 104.824 24.8607 104.989 24.9251C105.158 24.9854 105.341 25.0156 105.539 25.0156C105.683 25.0156 105.81 25.0056 105.919 24.9854C106.028 24.9653 106.112 24.9492 106.172 24.9371L106.498 26.4283C106.394 26.4685 106.245 26.5087 106.052 26.549C105.859 26.5933 105.617 26.6174 105.327 26.6214C104.852 26.6295 104.41 26.545 103.999 26.3679C103.589 26.1908 103.257 25.9171 103.003 25.5469C102.75 25.1766 102.623 24.7118 102.623 24.1523V15.0064ZM110.33 20.995V26.5007H108.525V14.1371H110.306V18.7372H110.421C110.638 18.2382 110.97 17.8417 111.417 17.5479C111.864 17.2541 112.447 17.1072 113.168 17.1072C113.804 17.1072 114.359 17.238 114.834 17.4996C115.313 17.7612 115.683 18.1516 115.945 18.6708C116.21 19.1859 116.343 19.8299 116.343 20.6026V26.5007H114.538V20.8199C114.538 20.1398 114.363 19.6126 114.013 19.2383C113.663 18.86 113.176 18.6708 112.552 18.6708C112.125 18.6708 111.743 18.7614 111.405 18.9425C111.071 19.1236 110.807 19.3892 110.614 19.7393C110.425 20.0855 110.33 20.504 110.33 20.995Z" fill="#E8E8E8"/>
<path d="M125.611 26.0007H122.4L126.571 13.6371H130.55L134.721 26.0007H131.51L128.606 16.7521H128.509L125.611 26.0007ZM125.183 21.1349H131.896V23.4048H125.183V21.1349ZM136.076 26.0007V24.3164L140.375 19.0824V19.022H136.227V16.728H143.894V18.5753L139.91 23.6463V23.7067H144.039V26.0007H136.076ZM151.929 21.9982V16.728H154.875V26.0007H152.062V24.2741H151.966C151.76 24.8416 151.41 25.2924 150.915 25.6264C150.424 25.9564 149.831 26.1214 149.134 26.1214C148.502 26.1214 147.947 25.9765 147.468 25.6868C146.989 25.397 146.617 24.9925 146.351 24.4734C146.086 23.9502 145.951 23.3384 145.947 22.6381V16.728H148.899V22.0586C148.903 22.5617 149.036 22.9581 149.297 23.2479C149.559 23.5376 149.915 23.6825 150.366 23.6825C150.66 23.6825 150.923 23.6181 151.157 23.4893C151.394 23.3565 151.581 23.1654 151.718 22.9158C151.859 22.6623 151.929 22.3564 151.929 21.9982ZM156.754 26.0007V16.728H159.622V18.4183H159.719C159.888 17.8066 160.163 17.3518 160.546 17.054C160.928 16.7521 161.373 16.6012 161.88 16.6012C162.017 16.6012 162.158 16.6113 162.302 16.6314C162.447 16.6475 162.582 16.6736 162.707 16.7099V19.2756C162.566 19.2273 162.381 19.189 162.151 19.1609C161.926 19.1327 161.725 19.1186 161.548 19.1186C161.198 19.1186 160.882 19.1971 160.6 19.354C160.322 19.507 160.103 19.7223 159.942 20C159.785 20.2737 159.707 20.5956 159.707 20.9659V26.0007H156.754ZM167.763 26.1758C166.793 26.1758 165.956 25.9846 165.251 25.6023C164.551 25.2159 164.012 24.6665 163.634 23.9542C163.259 23.2378 163.072 22.3866 163.072 21.4006C163.072 20.4427 163.261 19.6056 163.64 18.8892C164.018 18.1688 164.551 17.6094 165.239 17.2109C165.928 16.8085 166.739 16.6072 167.672 16.6072C168.332 16.6072 168.936 16.7099 169.483 16.9151C170.031 17.1204 170.504 17.4242 170.902 17.8267C171.3 18.2292 171.61 18.7262 171.832 19.3178C172.053 19.9054 172.164 20.5795 172.164 21.3402V22.0767H164.104V20.3622H169.417C169.413 20.0483 169.338 19.7686 169.194 19.5231C169.049 19.2776 168.849 19.0864 168.596 18.9496C168.346 18.8087 168.059 18.7383 167.733 18.7383C167.403 18.7383 167.107 18.8127 166.845 18.9616C166.584 19.1065 166.376 19.3057 166.223 19.5593C166.07 19.8088 165.99 20.0926 165.982 20.4105V22.1552C165.982 22.5335 166.056 22.8655 166.205 23.1513C166.354 23.433 166.565 23.6523 166.839 23.8093C167.113 23.9663 167.439 24.0447 167.817 24.0447C168.079 24.0447 168.316 24.0085 168.53 23.9361C168.743 23.8636 168.926 23.757 169.079 23.6161C169.232 23.4752 169.347 23.3022 169.423 23.0969L172.134 23.1754C172.021 23.7831 171.773 24.3124 171.391 24.7631C171.013 25.2099 170.516 25.558 169.9 25.8075C169.284 26.053 168.572 26.1758 167.763 26.1758ZM181.894 26.0007H177.324V13.6371H181.888C183.147 13.6371 184.232 13.8846 185.142 14.3796C186.055 14.8706 186.76 15.5789 187.255 16.5046C187.75 17.4262 187.997 18.529 187.997 19.8128C187.997 21.1007 187.75 22.2075 187.255 23.1332C186.764 24.0588 186.061 24.7692 185.148 25.2642C184.234 25.7552 183.149 26.0007 181.894 26.0007ZM180.312 23.4531H181.779C182.471 23.4531 183.057 23.3364 183.536 23.103C184.019 22.8655 184.383 22.4812 184.628 21.9499C184.878 21.4146 185.003 20.7023 185.003 19.8128C185.003 18.9234 184.878 18.2151 184.628 17.6878C184.379 17.1566 184.011 16.7743 183.524 16.5408C183.041 16.3034 182.445 16.1846 181.737 16.1846H180.312V23.4531ZM194.076 26.1758C193.106 26.1758 192.269 25.9846 191.565 25.6023C190.865 25.2159 190.325 24.6665 189.947 23.9542C189.573 23.2378 189.386 22.3866 189.386 21.4006C189.386 20.4427 189.575 19.6056 189.953 18.8892C190.331 18.1688 190.865 17.6094 191.553 17.2109C192.241 16.8085 193.052 16.6072 193.986 16.6072C194.646 16.6072 195.249 16.7099 195.797 16.9151C196.344 17.1204 196.817 17.4242 197.215 17.8267C197.614 18.2292 197.924 18.7262 198.145 19.3178C198.367 19.9054 198.477 20.5795 198.477 21.3402V22.0767H190.418V20.3622H195.73C195.726 20.0483 195.652 19.7686 195.507 19.5231C195.362 19.2776 195.163 19.0864 194.909 18.9496C194.66 18.8087 194.372 18.7383 194.046 18.7383C193.716 18.7383 193.42 18.8127 193.159 18.9616C192.897 19.1065 192.69 19.3057 192.537 19.5593C192.384 19.8088 192.303 20.0926 192.295 20.4105V22.1552C192.295 22.5335 192.37 22.8655 192.519 23.1513C192.668 23.433 192.879 23.6523 193.153 23.8093C193.426 23.9663 193.752 24.0447 194.131 24.0447C194.392 24.0447 194.63 24.0085 194.843 23.9361C195.056 23.8636 195.239 23.757 195.392 23.6161C195.545 23.4752 195.66 23.3022 195.736 23.0969L198.447 23.1754C198.334 23.7831 198.087 24.3124 197.704 24.7631C197.326 25.2099 196.829 25.558 196.213 25.8075C195.598 26.053 194.885 26.1758 194.076 26.1758ZM208.731 16.728L205.549 26.0007H202.169L198.993 16.728H202.102L203.811 23.115H203.907L205.622 16.728H208.731ZM221.532 19.8189C221.532 21.1792 221.271 22.3323 220.747 23.278C220.224 24.2238 219.516 24.9422 218.622 25.4332C217.733 25.9242 216.735 26.1697 215.628 26.1697C214.517 26.1697 213.517 25.9222 212.628 25.4272C211.738 24.9322 211.032 24.2138 210.509 23.272C209.99 22.3262 209.73 21.1752 209.73 19.8189C209.73 18.4586 209.99 17.3055 210.509 16.3597C211.032 15.4139 211.738 14.6955 212.628 14.2045C213.517 13.7135 214.517 13.468 215.628 13.468C216.735 13.468 217.733 13.7135 218.622 14.2045C219.516 14.6955 220.224 15.4139 220.747 16.3597C221.271 17.3055 221.532 18.4586 221.532 19.8189ZM218.478 19.8189C218.478 19.014 218.363 18.3338 218.133 17.7784C217.908 17.223 217.582 16.8024 217.155 16.5167C216.733 16.2309 216.224 16.0881 215.628 16.0881C215.037 16.0881 214.527 16.2309 214.101 16.5167C213.674 16.8024 213.346 17.223 213.117 17.7784C212.891 18.3338 212.779 19.014 212.779 19.8189C212.779 20.6238 212.891 21.304 213.117 21.8594C213.346 22.4148 213.674 22.8353 214.101 23.1211C214.527 23.4068 215.037 23.5497 215.628 23.5497C216.224 23.5497 216.733 23.4068 217.155 23.1211C217.582 22.8353 217.908 22.4148 218.133 21.8594C218.363 21.304 218.478 20.6238 218.478 19.8189ZM223.277 29.478V16.728H226.199V18.3157H226.289C226.41 18.034 226.581 17.7623 226.802 17.5007C227.028 17.2391 227.314 17.0258 227.66 16.8608C228.01 16.6918 228.428 16.6072 228.915 16.6072C229.559 16.6072 230.161 16.7763 230.72 17.1143C231.284 17.4524 231.739 17.9736 232.085 18.6779C232.431 19.3822 232.604 20.2797 232.604 21.3704C232.604 22.4208 232.437 23.3002 232.103 24.0085C231.773 24.7168 231.326 25.2481 230.763 25.6023C230.203 25.9564 229.581 26.1335 228.897 26.1335C228.43 26.1335 228.026 26.057 227.684 25.9041C227.342 25.7512 227.054 25.5499 226.821 25.3004C226.591 25.0509 226.414 24.7832 226.289 24.4975H226.229V29.478H223.277ZM226.169 21.3643C226.169 21.8634 226.235 22.298 226.368 22.6683C226.505 23.0386 226.7 23.3263 226.953 23.5316C227.211 23.7328 227.519 23.8334 227.877 23.8334C228.239 23.8334 228.547 23.7328 228.801 23.5316C229.054 23.3263 229.245 23.0386 229.374 22.6683C229.507 22.298 229.573 21.8634 229.573 21.3643C229.573 20.8653 229.507 20.4326 229.374 20.0664C229.245 19.7002 229.054 19.4164 228.801 19.2152C228.551 19.014 228.243 18.9133 227.877 18.9133C227.515 18.9133 227.207 19.0119 226.953 19.2092C226.7 19.4064 226.505 19.6881 226.368 20.0543C226.235 20.4206 226.169 20.8572 226.169 21.3643ZM242.246 19.5593L239.536 19.6317C239.508 19.4386 239.431 19.2675 239.306 19.1186C239.182 18.9657 239.019 18.8469 238.817 18.7624C238.62 18.6739 238.391 18.6296 238.129 18.6296C237.787 18.6296 237.495 18.698 237.254 18.8349C237.016 18.9717 236.9 19.1568 236.904 19.3903C236.9 19.5714 236.972 19.7283 237.121 19.8611C237.274 19.994 237.546 20.1006 237.936 20.1811L239.723 20.5192C240.649 20.6962 241.337 20.99 241.788 21.4006C242.242 21.8111 242.472 22.3544 242.476 23.0305C242.472 23.6664 242.283 24.2198 241.908 24.6907C241.538 25.1616 241.031 25.5278 240.387 25.7894C239.743 26.047 239.007 26.1758 238.178 26.1758C236.853 26.1758 235.809 25.9041 235.044 25.3608C234.284 24.8134 233.849 24.081 233.74 23.1633L236.656 23.0909C236.721 23.429 236.888 23.6865 237.157 23.8636C237.427 24.0407 237.771 24.1292 238.19 24.1292C238.568 24.1292 238.876 24.0588 239.113 23.918C239.351 23.7771 239.471 23.5899 239.476 23.3565C239.471 23.1472 239.379 22.9802 239.198 22.8555C239.017 22.7267 238.733 22.6261 238.347 22.5536L236.729 22.2457C235.799 22.0767 235.107 21.7648 234.652 21.31C234.197 20.8512 233.972 20.2676 233.976 19.5593C233.972 18.9395 234.137 18.4103 234.471 17.9716C234.805 17.5289 235.28 17.1908 235.896 16.9574C236.511 16.7239 237.238 16.6072 238.075 16.6072C239.331 16.6072 240.321 16.8708 241.045 17.3981C241.77 17.9213 242.17 18.6417 242.246 19.5593Z" fill="#0078D7"/>
</g>
<defs>
<filter id="filter0_d_1_56" x="2.39972" y="0.39972" width="39.202" height="39.202" filterUnits="userSpaceOnUse" color-interpolation-filters="sRGB">
<feFlood flood-opacity="0" result="BackgroundImageFix"/>
<feColorMatrix in="SourceAlpha" type="matrix" values="0 0 0 0 0 0 0 0 0 0 0 0 0 0 0 0 0 0 127 0" result="hardAlpha"/>
<feOffset/>
<feGaussianBlur stdDeviation="2.80014"/>
<feComposite in2="hardAlpha" operator="out"/>
<feColorMatrix type="matrix" values="0 0 0 0 0 0 0 0 0 0 0 0 0 0 0 0 0 0 0.25 0"/>
<feBlend mode="normal" in2="BackgroundImageFix" result="effect1_dropShadow_1_56"/>
<feBlend mode="normal" in="SourceGraphic" in2="effect1_dropShadow_1_56" result="shape"/>
</filter>
<filter id="filter1_d_1_56" x="36.2871" y="3.78642" width="212.429" height="32.4286" filterUnits="userSpaceOnUse" color-interpolation-filters="sRGB">
<feFlood flood-opacity="0" result="BackgroundImageFix"/>
<feColorMatrix in="SourceAlpha" type="matrix" values="0 0 0 0 0 0 0 0 0 0 0 0 0 0 0 0 0 0 127 0" result="hardAlpha"/>
<feOffset/>
<feGaussianBlur stdDeviation="2.85714"/>
<feComposite in2="hardAlpha" operator="out"/>
<feColorMatrix type="matrix" values="0 0 0 0 0 0 0 0 0 0 0 0 0 0 0 0 0 0 0.25 0"/>
<feBlend mode="normal" in2="BackgroundImageFix" result="effect1_dropShadow_1_56"/>
<feBlend mode="normal" in="SourceGraphic" in2="effect1_dropShadow_1_56" result="shape"/>
</filter>
<linearGradient id="paint0_linear_1_56" x1="125.501" y1="0" x2="125.501" y2="40.0014" gradientUnits="userSpaceOnUse">
<stop stop-color="#003056"/>
<stop offset="1" stop-color="#001E36"/>
</linearGradient>
</defs>
</svg>
