<svg width="193" height="56" viewBox="0 0 193 56" fill="none" xmlns="http://www.w3.org/2000/svg">
<rect width="193" height="56" rx="8" fill="url(#paint0_linear_1_50)"/>
<rect x="1.05" y="1.05" width="190.9" height="53.9" rx="6.95" stroke="white" stroke-opacity="0.15" stroke-width="2.1"/>
<g filter="url(#filter0_d_1_50)">
<path d="M12 22.7854L15.745 17.8314L29.7533 12.1276V8L42.0367 17.0048L16.9433 21.8855V35.619L12 34.1897V22.7854ZM52 15.3552V39.8183L42.4117 48L26.9067 42.8956V47.9983L16.9433 35.6156L42.0383 38.6178V17.0048L52 15.3552Z" fill="#0078D7"/>
</g>
<g filter="url(#filter1_d_1_50)">
<path d="M61.2784 24.5V12.8636H65.5398C66.3655 12.8636 67.0492 13 67.5909 13.2727C68.1326 13.5417 68.5379 13.9072 68.8068 14.3693C69.0757 14.8276 69.2102 15.3447 69.2102 15.9204C69.2102 16.4053 69.1212 16.8144 68.9432 17.1477C68.7651 17.4773 68.5265 17.7424 68.2273 17.9432C67.9318 18.1401 67.606 18.2841 67.25 18.375V18.4886C67.6363 18.5076 68.0132 18.6326 68.3807 18.8636C68.7519 19.0909 69.0587 19.4148 69.3011 19.8352C69.5435 20.2557 69.6648 20.767 69.6648 21.3693C69.6648 21.964 69.5246 22.4981 69.2443 22.9716C68.9678 23.4413 68.5398 23.8144 67.9602 24.0909C67.3807 24.3636 66.6401 24.5 65.7386 24.5H61.2784ZM63.0341 22.9943H65.5682C66.4091 22.9943 67.0113 22.8314 67.375 22.5057C67.7386 22.1799 67.9204 21.7727 67.9204 21.2841C67.9204 20.9167 67.8276 20.5795 67.642 20.2727C67.4564 19.9659 67.1913 19.7216 66.8466 19.5398C66.5057 19.3579 66.1004 19.267 65.6307 19.267H63.0341V22.9943ZM63.0341 17.8977H65.3863C65.7803 17.8977 66.1345 17.822 66.4488 17.6704C66.767 17.5189 67.0189 17.3068 67.2045 17.0341C67.3939 16.7576 67.4886 16.4318 67.4886 16.0568C67.4886 15.5758 67.3201 15.1723 66.9829 14.8466C66.6458 14.5208 66.1288 14.3579 65.4318 14.3579H63.0341V17.8977ZM77.1392 20.8807V15.7727H78.8437V24.5H77.1733V22.9886H77.0824C76.8816 23.4545 76.5596 23.8428 76.1165 24.1534C75.6771 24.4602 75.1297 24.6136 74.4744 24.6136C73.9138 24.6136 73.4176 24.4905 72.9858 24.2443C72.5577 23.9943 72.2206 23.625 71.9744 23.1364C71.732 22.6477 71.6108 22.0436 71.6108 21.3239V15.7727H73.3096V21.1193C73.3096 21.714 73.4744 22.1875 73.804 22.5398C74.1335 22.892 74.5615 23.0682 75.088 23.0682C75.4062 23.0682 75.7225 22.9886 76.0369 22.8295C76.3551 22.6704 76.6184 22.4299 76.8267 22.1079C77.0388 21.786 77.143 21.3769 77.1392 20.8807ZM81.1264 24.5V15.7727H82.8253V24.5H81.1264ZM81.9844 14.4261C81.6889 14.4261 81.4351 14.3276 81.223 14.1307C81.0147 13.9299 80.9105 13.6913 80.9105 13.4148C80.9105 13.1345 81.0147 12.8958 81.223 12.6989C81.4351 12.4981 81.6889 12.3977 81.9844 12.3977C82.2798 12.3977 82.5317 12.4981 82.74 12.6989C82.9522 12.8958 83.0582 13.1345 83.0582 13.4148C83.0582 13.6913 82.9522 13.9299 82.74 14.1307C82.5317 14.3276 82.2798 14.4261 81.9844 14.4261ZM86.8096 12.8636V24.5H85.1108V12.8636H86.8096ZM93.169 15.7727V17.1364H88.402V15.7727H93.169ZM89.6804 13.6818H91.3792V21.9375C91.3792 22.267 91.4285 22.5151 91.527 22.6818C91.6254 22.8447 91.7523 22.9564 91.9076 23.017C92.0667 23.0739 92.2391 23.1023 92.4247 23.1023C92.5611 23.1023 92.6804 23.0928 92.7826 23.0739C92.8849 23.0549 92.9645 23.0398 93.0213 23.0284L93.3281 24.4318C93.2296 24.4697 93.0895 24.5076 92.9076 24.5454C92.7258 24.5871 92.4986 24.6098 92.2258 24.6136C91.7789 24.6212 91.3622 24.5417 90.9758 24.375C90.5895 24.2083 90.277 23.9508 90.0383 23.6023C89.7997 23.2538 89.6804 22.8163 89.6804 22.2898V13.6818ZM101.175 24.5L98.6065 15.7727H100.362L102.072 22.1818H102.158L103.874 15.7727H105.629L107.334 22.1534H107.419L109.118 15.7727H110.874L108.311 24.5H106.578L104.805 18.1989H104.675L102.902 24.5H101.175ZM112.486 24.5V15.7727H114.185V24.5H112.486ZM113.344 14.4261C113.048 14.4261 112.794 14.3276 112.582 14.1307C112.374 13.9299 112.27 13.6913 112.27 13.4148C112.27 13.1345 112.374 12.8958 112.582 12.6989C112.794 12.4981 113.048 12.3977 113.344 12.3977C113.639 12.3977 113.891 12.4981 114.099 12.6989C114.312 12.8958 114.418 13.1345 114.418 13.4148C114.418 13.6913 114.312 13.9299 114.099 14.1307C113.891 14.3276 113.639 14.4261 113.344 14.4261ZM120.544 15.7727V17.1364H115.777V15.7727H120.544ZM117.055 13.6818H118.754V21.9375C118.754 22.267 118.803 22.5151 118.902 22.6818C119 22.8447 119.127 22.9564 119.283 23.017C119.442 23.0739 119.614 23.1023 119.8 23.1023C119.936 23.1023 120.055 23.0928 120.158 23.0739C120.26 23.0549 120.339 23.0398 120.396 23.0284L120.703 24.4318C120.605 24.4697 120.464 24.5076 120.283 24.5454C120.101 24.5871 119.874 24.6098 119.601 24.6136C119.154 24.6212 118.737 24.5417 118.351 24.375C117.964 24.2083 117.652 23.9508 117.413 23.6023C117.175 23.2538 117.055 22.8163 117.055 22.2898V13.6818ZM124.31 19.3182V24.5H122.611V12.8636H124.287V17.1932H124.395C124.599 16.7235 124.912 16.3504 125.332 16.0739C125.753 15.7973 126.302 15.6591 126.98 15.6591C127.579 15.6591 128.101 15.7822 128.548 16.0284C128.999 16.2746 129.348 16.642 129.594 17.1307C129.844 17.6155 129.969 18.2216 129.969 18.9489V24.5H128.27V19.1534C128.27 18.5133 128.105 18.017 127.776 17.6648C127.446 17.3087 126.988 17.1307 126.401 17.1307C125.999 17.1307 125.639 17.2159 125.321 17.3864C125.007 17.5568 124.758 17.8068 124.577 18.1364C124.399 18.4621 124.31 18.8561 124.31 19.3182Z" fill="#E8E8E8"/>
<path d="M63.6101 43.5H60.3984L64.5699 31.1364H68.5483L72.7198 43.5H69.5081L66.6044 34.2514H66.5078L63.6101 43.5ZM63.1814 38.6342H69.8945V40.9041H63.1814V38.6342ZM74.0751 43.5V41.8157L78.3734 36.5817V36.5213H74.226V34.2273H81.8929V36.0746L77.9085 41.1456V41.206H82.0378V43.5H74.0751ZM89.9281 39.4975V34.2273H92.8741V43.5H90.0609V41.7734H89.9643C89.759 42.3409 89.4089 42.7917 88.9139 43.1257C88.4229 43.4557 87.8292 43.6207 87.133 43.6207C86.5011 43.6207 85.9457 43.4758 85.4668 43.1861C84.9878 42.8963 84.6156 42.4918 84.3499 41.9726C84.0843 41.4494 83.9495 40.8377 83.9455 40.1374V34.2273H86.8975V39.5579C86.9016 40.061 87.0344 40.4574 87.296 40.7471C87.5576 41.0369 87.9137 41.1818 88.3645 41.1818C88.6583 41.1818 88.9219 41.1174 89.1553 40.9886C89.3928 40.8558 89.5799 40.6646 89.7168 40.4151C89.8576 40.1616 89.9281 39.8557 89.9281 39.4975ZM94.7531 43.5V34.2273H97.6206V35.9176H97.7172C97.8862 35.3059 98.1619 34.8511 98.5443 34.5533C98.9266 34.2514 99.3713 34.1005 99.8784 34.1005C100.015 34.1005 100.156 34.1105 100.301 34.1307C100.446 34.1468 100.581 34.1729 100.705 34.2092V36.7748C100.565 36.7266 100.38 36.6883 100.15 36.6601C99.9247 36.632 99.7235 36.6179 99.5464 36.6179C99.1963 36.6179 98.8803 36.6964 98.5986 36.8533C98.3209 37.0063 98.1016 37.2216 97.9406 37.4993C97.7836 37.773 97.7051 38.0949 97.7051 38.4652V43.5H94.7531ZM105.761 43.6751C104.791 43.6751 103.954 43.4839 103.25 43.1016C102.55 42.7152 102.01 42.1658 101.632 41.4535C101.258 40.7371 101.071 39.8859 101.071 38.8998C101.071 37.942 101.26 37.1049 101.638 36.3885C102.017 35.6681 102.55 35.1087 103.238 34.7102C103.926 34.3078 104.737 34.1065 105.671 34.1065C106.331 34.1065 106.935 34.2092 107.482 34.4144C108.029 34.6197 108.502 34.9235 108.901 35.326C109.299 35.7284 109.609 36.2255 109.83 36.8171C110.052 37.4047 110.162 38.0788 110.162 38.8395V39.576H102.103V37.8615H107.416C107.412 37.5476 107.337 37.2679 107.192 37.0224C107.047 36.7769 106.848 36.5857 106.595 36.4489C106.345 36.308 106.057 36.2376 105.731 36.2376C105.401 36.2376 105.105 36.312 104.844 36.4609C104.582 36.6058 104.375 36.805 104.222 37.0586C104.069 37.3081 103.989 37.5918 103.981 37.9098V39.6545C103.981 40.0328 104.055 40.3648 104.204 40.6506C104.353 40.9323 104.564 41.1516 104.838 41.3086C105.111 41.4655 105.437 41.544 105.816 41.544C106.077 41.544 106.315 41.5078 106.528 41.4354C106.741 41.3629 106.925 41.2563 107.077 41.1154C107.23 40.9745 107.345 40.8015 107.422 40.5962L110.132 40.6747C110.019 41.2824 109.772 41.8117 109.39 42.2624C109.011 42.7092 108.514 43.0573 107.898 43.3068C107.283 43.5523 106.57 43.6751 105.761 43.6751ZM119.892 43.5H115.322V31.1364H119.886C121.146 31.1364 122.231 31.3839 123.14 31.8789C124.054 32.3699 124.758 33.0782 125.253 34.0039C125.748 34.9255 125.996 36.0283 125.996 37.3121C125.996 38.6 125.748 39.7068 125.253 40.6324C124.762 41.5581 124.06 42.2685 123.146 42.7635C122.233 43.2545 121.148 43.5 119.892 43.5ZM118.311 40.9524H119.778C120.47 40.9524 121.055 40.8357 121.534 40.6023C122.017 40.3648 122.382 39.9805 122.627 39.4492C122.877 38.9139 123.001 38.2016 123.001 37.3121C123.001 36.4227 122.877 35.7144 122.627 35.1871C122.378 34.6559 122.009 34.2735 121.522 34.0401C121.039 33.8027 120.444 33.6839 119.735 33.6839H118.311V40.9524ZM132.075 43.6751C131.105 43.6751 130.268 43.4839 129.564 43.1016C128.863 42.7152 128.324 42.1658 127.946 41.4535C127.571 40.7371 127.384 39.8859 127.384 38.8998C127.384 37.942 127.573 37.1049 127.952 36.3885C128.33 35.6681 128.863 35.1087 129.551 34.7102C130.24 34.3078 131.051 34.1065 131.984 34.1065C132.644 34.1065 133.248 34.2092 133.795 34.4144C134.343 34.6197 134.816 34.9235 135.214 35.326C135.613 35.7284 135.922 36.2255 136.144 36.8171C136.365 37.4047 136.476 38.0788 136.476 38.8395V39.576H128.417V37.8615H133.729C133.725 37.5476 133.651 37.2679 133.506 37.0224C133.361 36.7769 133.162 36.5857 132.908 36.4489C132.658 36.308 132.371 36.2376 132.045 36.2376C131.715 36.2376 131.419 36.312 131.157 36.4609C130.896 36.6058 130.688 36.805 130.535 37.0586C130.383 37.3081 130.302 37.5918 130.294 37.9098V39.6545C130.294 40.0328 130.368 40.3648 130.517 40.6506C130.666 40.9323 130.878 41.1516 131.151 41.3086C131.425 41.4655 131.751 41.544 132.129 41.544C132.391 41.544 132.628 41.5078 132.842 41.4354C133.055 41.3629 133.238 41.2563 133.391 41.1154C133.544 40.9745 133.659 40.8015 133.735 40.5962L136.446 40.6747C136.333 41.2824 136.085 41.8117 135.703 42.2624C135.325 42.7092 134.828 43.0573 134.212 43.3068C133.596 43.5523 132.884 43.6751 132.075 43.6751ZM146.73 34.2273L143.548 43.5H140.167L136.992 34.2273H140.101L141.809 40.6143H141.906L143.621 34.2273H146.73ZM159.531 37.3182C159.531 38.6785 159.269 39.8315 158.746 40.7773C158.223 41.7231 157.515 42.4415 156.621 42.9325C155.732 43.4235 154.734 43.669 153.627 43.669C152.516 43.669 151.516 43.4215 150.626 42.9265C149.737 42.4315 149.031 41.7131 148.507 40.7713C147.988 39.8255 147.729 38.6745 147.729 37.3182C147.729 35.9578 147.988 34.8048 148.507 33.859C149.031 32.9132 149.737 32.1948 150.626 31.7038C151.516 31.2128 152.516 30.9673 153.627 30.9673C154.734 30.9673 155.732 31.2128 156.621 31.7038C157.515 32.1948 158.223 32.9132 158.746 33.859C159.269 34.8048 159.531 35.9578 159.531 37.3182ZM156.476 37.3182C156.476 36.5132 156.361 35.8331 156.132 35.2777C155.907 34.7223 155.581 34.3017 155.154 34.016C154.731 33.7302 154.222 33.5873 153.627 33.5873C153.035 33.5873 152.526 33.7302 152.099 34.016C151.673 34.3017 151.345 34.7223 151.115 35.2777C150.89 35.8331 150.777 36.5132 150.777 37.3182C150.777 38.1231 150.89 38.8033 151.115 39.3587C151.345 39.9141 151.673 40.3346 152.099 40.6204C152.526 40.9061 153.035 41.049 153.627 41.049C154.222 41.049 154.731 40.9061 155.154 40.6204C155.581 40.3346 155.907 39.9141 156.132 39.3587C156.361 38.8033 156.476 38.1231 156.476 37.3182ZM161.276 46.9773V34.2273H164.197V35.815H164.288C164.409 35.5333 164.58 35.2616 164.801 35C165.026 34.7384 165.312 34.5251 165.658 34.3601C166.008 34.191 166.427 34.1065 166.914 34.1065C167.558 34.1065 168.16 34.2756 168.719 34.6136C169.283 34.9517 169.737 35.4729 170.083 36.1772C170.43 36.8815 170.603 37.779 170.603 38.8697C170.603 39.9201 170.436 40.7995 170.102 41.5078C169.771 42.2161 169.325 42.7474 168.761 43.1016C168.202 43.4557 167.58 43.6328 166.896 43.6328C166.429 43.6328 166.025 43.5563 165.682 43.4034C165.34 43.2505 165.053 43.0492 164.819 42.7997C164.59 42.5502 164.413 42.2825 164.288 41.9968H164.228V46.9773H161.276ZM164.167 38.8636C164.167 39.3627 164.234 39.7973 164.366 40.1676C164.503 40.5379 164.698 40.8256 164.952 41.0309C165.21 41.2321 165.517 41.3327 165.876 41.3327C166.238 41.3327 166.546 41.2321 166.799 41.0309C167.053 40.8256 167.244 40.5379 167.373 40.1676C167.506 39.7973 167.572 39.3627 167.572 38.8636C167.572 38.3646 167.506 37.9319 167.373 37.5657C167.244 37.1994 167.053 36.9157 166.799 36.7145C166.55 36.5132 166.242 36.4126 165.876 36.4126C165.513 36.4126 165.206 36.5112 164.952 36.7084C164.698 36.9056 164.503 37.1874 164.366 37.5536C164.234 37.9199 164.167 38.3565 164.167 38.8636ZM180.245 37.0586L177.534 37.131C177.506 36.9378 177.43 36.7668 177.305 36.6179C177.18 36.465 177.017 36.3462 176.816 36.2617C176.619 36.1732 176.389 36.1289 176.128 36.1289C175.786 36.1289 175.494 36.1973 175.253 36.3342C175.015 36.471 174.898 36.6561 174.902 36.8895C174.898 37.0707 174.971 37.2276 175.12 37.3604C175.273 37.4932 175.544 37.5999 175.935 37.6804L177.722 38.0185C178.647 38.1955 179.336 38.4893 179.786 38.8998C180.241 39.3104 180.47 39.8537 180.474 40.5298C180.47 41.1657 180.281 41.7191 179.907 42.19C179.537 42.6609 179.03 43.0271 178.386 43.2887C177.742 43.5463 177.005 43.6751 176.176 43.6751C174.852 43.6751 173.808 43.4034 173.043 42.8601C172.282 42.3127 171.848 41.5802 171.739 40.6626L174.655 40.5902C174.719 40.9283 174.886 41.1858 175.156 41.3629C175.426 41.54 175.77 41.6285 176.188 41.6285C176.567 41.6285 176.874 41.5581 177.112 41.4172C177.349 41.2764 177.47 41.0892 177.474 40.8558C177.47 40.6465 177.378 40.4795 177.196 40.3547C177.015 40.226 176.732 40.1253 176.345 40.0529L174.727 39.745C173.798 39.576 173.105 39.2641 172.651 38.8093C172.196 38.3505 171.97 37.7669 171.974 37.0586C171.97 36.4388 172.135 35.9096 172.47 35.4709C172.804 35.0282 173.278 34.6901 173.894 34.4567C174.51 34.2232 175.236 34.1065 176.074 34.1065C177.329 34.1065 178.319 34.3701 179.044 34.8974C179.768 35.4206 180.169 36.141 180.245 37.0586Z" fill="#0078D7"/>
</g>
<defs>
<filter id="filter0_d_1_50" x="6.28571" y="2.28571" width="51.4286" height="51.4286" filterUnits="userSpaceOnUse" color-interpolation-filters="sRGB">
<feFlood flood-opacity="0" result="BackgroundImageFix"/>
<feColorMatrix in="SourceAlpha" type="matrix" values="0 0 0 0 0 0 0 0 0 0 0 0 0 0 0 0 0 0 127 0" result="hardAlpha"/>
<feOffset/>
<feGaussianBlur stdDeviation="2.85714"/>
<feComposite in2="hardAlpha" operator="out"/>
<feColorMatrix type="matrix" values="0 0 0 0 0 0 0 0 0 0 0 0 0 0 0 0 0 0 0.25 0"/>
<feBlend mode="normal" in2="BackgroundImageFix" result="effect1_dropShadow_1_50"/>
<feBlend mode="normal" in="SourceGraphic" in2="effect1_dropShadow_1_50" result="shape"/>
</filter>
<filter id="filter1_d_1_50" x="54.4" y="3.9" width="132.2" height="48.6773" filterUnits="userSpaceOnUse" color-interpolation-filters="sRGB">
<feFlood flood-opacity="0" result="BackgroundImageFix"/>
<feColorMatrix in="SourceAlpha" type="matrix" values="0 0 0 0 0 0 0 0 0 0 0 0 0 0 0 0 0 0 127 0" result="hardAlpha"/>
<feOffset/>
<feGaussianBlur stdDeviation="2.8"/>
<feComposite in2="hardAlpha" operator="out"/>
<feColorMatrix type="matrix" values="0 0 0 0 0 0 0 0 0 0 0 0 0 0 0 0 0 0 0.25 0"/>
<feBlend mode="normal" in2="BackgroundImageFix" result="effect1_dropShadow_1_50"/>
<feBlend mode="normal" in="SourceGraphic" in2="effect1_dropShadow_1_50" result="shape"/>
</filter>
<linearGradient id="paint0_linear_1_50" x1="96.5" y1="0" x2="96.5" y2="56" gradientUnits="userSpaceOnUse">
<stop stop-color="#003056"/>
<stop offset="1" stop-color="#001E36"/>
</linearGradient>
</defs>
</svg>
