<svg width="284" height="40" viewBox="0 0 284 40" fill="none" xmlns="http://www.w3.org/2000/svg">
<rect width="284.001" height="40.0014" rx="8" fill="url(#paint0_linear_1_56)"/>
<rect x="1.07143" y="1.07143" width="281.858" height="37.8585" rx="6.92857" stroke="white" stroke-opacity="0.15" stroke-width="2.14286"/>
<g filter="url(#filter0_d_1_56)">
<path fill-rule="evenodd" clip-rule="evenodd" d="M11.1111 34H32.8889C34.6071 34 36 32.6071 36 30.8889V9.11111C36 7.39289 34.6071 6 32.8889 6H11.1111C9.39289 6 8 7.39289 8 9.11111V30.8889C8 32.6071 9.39289 34 11.1111 34Z" fill="#007EBB"/>
<path fill-rule="evenodd" clip-rule="evenodd" d="M32.1111 30.1111H27.9561V23.0342C27.9561 21.0938 27.2188 20.0095 25.683 20.0095C24.0123 20.0095 23.1395 21.1379 23.1395 23.0342V30.1111H19.1352V16.6296H23.1395V18.4456C23.1395 18.4456 24.3435 16.2177 27.2043 16.2177C30.0639 16.2177 32.1111 17.964 32.1111 21.5755V30.1111ZM14.3581 14.8643C12.9941 14.8643 11.8889 13.7504 11.8889 12.3766C11.8889 11.0028 12.9941 9.88889 14.3581 9.88889C15.722 9.88889 16.8266 11.0028 16.8266 12.3766C16.8266 13.7504 15.722 14.8643 14.3581 14.8643ZM12.2904 30.1111H16.4659V16.6296H12.2904V30.1111Z" fill="white"/>
</g>
<g filter="url(#filter1_d_1_56)">
<g filter="url(#filter2_d_1_56)">
<path d="M53.6285 18.1577H51.745C51.6726 17.7552 51.5377 17.401 51.3405 17.0952C51.1433 16.7893 50.9018 16.5297 50.6161 16.3164C50.3303 16.1031 50.0104 15.9421 49.6562 15.8334C49.3061 15.7248 48.9338 15.6704 48.5394 15.6704C47.827 15.6704 47.1891 15.8495 46.6257 16.2077C46.0663 16.5659 45.6236 17.0911 45.2976 17.7834C44.9756 18.4756 44.8146 19.3208 44.8146 20.3189C44.8146 21.325 44.9756 22.1742 45.2976 22.8665C45.6236 23.5587 46.0683 24.0819 46.6317 24.4361C47.1952 24.7902 47.829 24.9673 48.5334 24.9673C48.9237 24.9673 49.294 24.915 49.6441 24.8104C49.9983 24.7017 50.3183 24.5427 50.604 24.3334C50.8898 24.1242 51.1312 23.8686 51.3285 23.5667C51.5297 23.2609 51.6685 22.9107 51.745 22.5163L53.6285 22.5224C53.5279 23.1301 53.3327 23.6895 53.0429 24.2006C52.7572 24.7077 52.3889 25.1464 51.9382 25.5167C51.4915 25.8829 50.9803 26.1667 50.4048 26.3679C49.8293 26.5691 49.2014 26.6697 48.5213 26.6697C47.4507 26.6697 46.4969 26.4162 45.6598 25.9091C44.8227 25.398 44.1626 24.6675 43.6797 23.7177C43.2007 22.7679 42.9613 21.6349 42.9613 20.3189C42.9613 18.9988 43.2027 17.8659 43.6857 16.9201C44.1687 15.9703 44.8287 15.2418 45.6658 14.7347C46.5029 14.2236 47.4548 13.968 48.5213 13.968C49.1773 13.968 49.789 14.0626 50.3565 14.2518C50.928 14.4369 51.4411 14.7106 51.8959 15.0728C52.3507 15.431 52.727 15.8697 53.0248 16.3888C53.3227 16.904 53.5239 17.4936 53.6285 18.1577ZM59.6217 26.6878C58.7524 26.6878 57.9937 26.4886 57.3458 26.0902C56.6978 25.6917 56.1947 25.1343 55.8365 24.418C55.4783 23.7016 55.2992 22.8645 55.2992 21.9066C55.2992 20.9447 55.4783 20.1036 55.8365 19.3832C56.1947 18.6627 56.6978 18.1033 57.3458 17.7049C57.9937 17.3065 58.7524 17.1072 59.6217 17.1072C60.491 17.1072 61.2496 17.3065 61.8976 17.7049C62.5456 18.1033 63.0486 18.6627 63.4068 19.3832C63.765 20.1036 63.9441 20.9447 63.9441 21.9066C63.9441 22.8645 63.765 23.7016 63.4068 24.418C63.0486 25.1343 62.5456 25.6917 61.8976 26.0902C61.2496 26.4886 60.491 26.6878 59.6217 26.6878ZM59.6277 25.1726C60.1912 25.1726 60.658 25.0237 61.0283 24.7258C61.3986 24.428 61.6722 24.0316 61.8493 23.5366C62.0304 23.0415 62.121 22.4962 62.121 21.9006C62.121 21.3089 62.0304 20.7656 61.8493 20.2706C61.6722 19.7715 61.3986 19.3711 61.0283 19.0692C60.658 18.7674 60.1912 18.6165 59.6277 18.6165C59.0603 18.6165 58.5894 18.7674 58.2151 19.0692C57.8448 19.3711 57.5691 19.7715 57.388 20.2706C57.2109 20.7656 57.1224 21.3089 57.1224 21.9006C57.1224 22.4962 57.2109 23.0415 57.388 23.5366C57.5691 24.0316 57.8448 24.428 58.2151 24.7258C58.5894 25.0237 59.0603 25.1726 59.6277 25.1726ZM67.764 20.995V26.5007H65.959V17.228H67.6916V18.7372H67.8063C68.0196 18.2462 68.3536 17.8518 68.8084 17.554C69.2672 17.2561 69.8447 17.1072 70.541 17.1072C71.1728 17.1072 71.7262 17.24 72.2011 17.5057C72.676 17.7673 73.0443 18.1577 73.3059 18.6768C73.5675 19.196 73.6983 19.8379 73.6983 20.6026V26.5007H71.8933V20.8199C71.8933 20.1478 71.7182 19.6226 71.368 19.2443C71.0179 18.862 70.537 18.6708 69.9252 18.6708C69.5067 18.6708 69.1344 18.7614 68.8084 18.9425C68.4864 19.1236 68.2309 19.3892 68.0417 19.7393C67.8566 20.0855 67.764 20.504 67.764 20.995ZM77.9241 20.995V26.5007H76.1191V17.228H77.8517V18.7372H77.9664C78.1797 18.2462 78.5138 17.8518 78.9685 17.554C79.4273 17.2561 80.0049 17.1072 80.7011 17.1072C81.333 17.1072 81.8864 17.24 82.3613 17.5057C82.8362 17.7673 83.2044 18.1577 83.466 18.6768C83.7277 19.196 83.8585 19.8379 83.8585 20.6026V26.5007H82.0534V20.8199C82.0534 20.1478 81.8783 19.6226 81.5282 19.2443C81.1781 18.862 80.6971 18.6708 80.0854 18.6708C79.6668 18.6708 79.2945 18.7614 78.9685 18.9425C78.6466 19.1236 78.391 19.3892 78.2018 19.7393C78.0167 20.0855 77.9241 20.504 77.9241 20.995ZM90.2757 26.6878C89.3621 26.6878 88.5753 26.4926 87.9153 26.1023C87.2593 25.7078 86.7522 25.1545 86.394 24.4421C86.0398 23.7257 85.8627 22.8866 85.8627 21.9247C85.8627 20.9749 86.0398 20.1378 86.394 19.4133C86.7522 18.6889 87.2512 18.1234 87.8911 17.717C88.5351 17.3105 89.2877 17.1072 90.1489 17.1072C90.6721 17.1072 91.1792 17.1938 91.6702 17.3668C92.1612 17.5399 92.6019 17.8115 92.9923 18.1818C93.3827 18.5521 93.6906 19.033 93.916 19.6246C94.1414 20.2122 94.254 20.9266 94.254 21.7677V22.4077H86.883V21.0554H92.4852C92.4852 20.5805 92.3886 20.1599 92.1955 19.7937C92.0023 19.4234 91.7306 19.1316 91.3805 18.9183C91.0343 18.705 90.6279 18.5984 90.161 18.5984C89.6539 18.5984 89.2112 18.7231 88.8329 18.9726C88.4586 19.2181 88.1688 19.5401 87.9636 19.9386C87.7623 20.333 87.6617 20.7616 87.6617 21.2244V22.2809C87.6617 22.9007 87.7704 23.4279 87.9877 23.8626C88.2091 24.2972 88.5169 24.6292 88.9114 24.8587C89.3058 25.084 89.7666 25.1967 90.2938 25.1967C90.6359 25.1967 90.9478 25.1484 91.2295 25.0518C91.5113 24.9512 91.7548 24.8023 91.96 24.6051C92.1653 24.4079 92.3222 24.1644 92.4309 23.8746L94.1393 24.1825C94.0025 24.6856 93.757 25.1263 93.4028 25.5046C93.0527 25.8789 92.612 26.1707 92.0807 26.38C91.5535 26.5852 90.9518 26.6878 90.2757 26.6878ZM100.163 26.6878C99.2652 26.6878 98.4925 26.4846 97.8445 26.0781C97.2006 25.6676 96.7055 25.1021 96.3594 24.3817C96.0133 23.6613 95.8402 22.8363 95.8402 21.9066C95.8402 20.9648 96.0173 20.1337 96.3715 19.4133C96.7257 18.6889 97.2247 18.1234 97.8687 17.717C98.5126 17.3105 99.2712 17.1072 100.145 17.1072C100.849 17.1072 101.477 17.238 102.028 17.4996C102.579 17.7572 103.024 18.1194 103.362 18.5863C103.704 19.0531 103.908 19.5985 103.972 20.2223H102.215C102.119 19.7876 101.897 19.4133 101.551 19.0994C101.209 18.7855 100.75 18.6285 100.175 18.6285C99.6717 18.6285 99.231 18.7614 98.8527 19.027C98.4784 19.2886 98.1866 19.6629 97.9773 20.1498C97.768 20.6328 97.6634 21.2043 97.6634 21.8643C97.6634 22.5405 97.766 23.124 97.9713 23.615C98.1765 24.106 98.4663 24.4864 98.8406 24.756C99.2189 25.0257 99.6636 25.1605 100.175 25.1605C100.517 25.1605 100.827 25.0981 101.104 24.9734C101.386 24.8446 101.622 24.6614 101.811 24.424C102.004 24.1865 102.139 23.9008 102.215 23.5667H103.972C103.908 24.1664 103.712 24.7017 103.386 25.1726C103.06 25.6435 102.624 26.0137 102.076 26.2834C101.533 26.553 100.895 26.6878 100.163 26.6878ZM110.231 17.228V18.6768H105.166V17.228H110.231ZM106.524 15.0064H108.329V23.778C108.329 24.1282 108.381 24.3918 108.486 24.5689C108.591 24.7419 108.726 24.8607 108.891 24.9251C109.06 24.9854 109.243 25.0156 109.44 25.0156C109.585 25.0156 109.712 25.0056 109.82 24.9854C109.929 24.9653 110.013 24.9492 110.074 24.9371L110.4 26.4283C110.295 26.4685 110.146 26.5087 109.953 26.549C109.76 26.5933 109.518 26.6174 109.229 26.6214C108.754 26.6295 108.311 26.545 107.901 26.3679C107.49 26.1908 107.158 25.9171 106.904 25.5469C106.651 25.1766 106.524 24.7118 106.524 24.1523V15.0064ZM118.737 26.5007L116.008 17.228H117.874L119.691 24.0376H119.781L121.604 17.228H123.47L125.281 24.0074H125.371L127.176 17.228H129.042L126.319 26.5007H124.478L122.594 19.8057H122.456L120.572 26.5007H118.737ZM130.755 26.5007V17.228H132.56V26.5007H130.755ZM131.666 15.7972C131.352 15.7972 131.083 15.6926 130.857 15.4833C130.636 15.27 130.525 15.0164 130.525 14.7226C130.525 14.4248 130.636 14.1713 130.857 13.962C131.083 13.7487 131.352 13.642 131.666 13.642C131.98 13.642 132.248 13.7487 132.469 13.962C132.695 14.1713 132.807 14.4248 132.807 14.7226C132.807 15.0164 132.695 15.27 132.469 15.4833C132.248 15.6926 131.98 15.7972 131.666 15.7972ZM139.317 17.228V18.6768H134.252V17.228H139.317ZM135.61 15.0064H137.415V23.778C137.415 24.1282 137.467 24.3918 137.572 24.5689C137.677 24.7419 137.812 24.8607 137.977 24.9251C138.146 24.9854 138.329 25.0156 138.526 25.0156C138.671 25.0156 138.798 25.0056 138.906 24.9854C139.015 24.9653 139.099 24.9492 139.16 24.9371L139.486 26.4283C139.381 26.4685 139.232 26.5087 139.039 26.549C138.846 26.5933 138.604 26.6174 138.315 26.6214C137.84 26.6295 137.397 26.545 136.986 26.3679C136.576 26.1908 136.244 25.9171 135.99 25.5469C135.737 25.1766 135.61 24.7118 135.61 24.1523V15.0064ZM143.318 20.995V26.5007H141.513V14.1371H143.294V18.7372H143.408C143.626 18.2382 143.958 17.8417 144.404 17.5479C144.851 17.2541 145.435 17.1072 146.155 17.1072C146.791 17.1072 147.346 17.238 147.821 17.4996C148.3 17.7612 148.67 18.1516 148.932 18.6708C149.198 19.1859 149.33 19.8299 149.33 20.6026V26.5007H147.525V20.8199C147.525 20.1398 147.35 19.6126 147 19.2383C146.65 18.86 146.163 18.6708 145.539 18.6708C145.113 18.6708 144.73 18.7614 144.392 18.9425C144.058 19.1236 143.795 19.3892 143.601 19.7393C143.412 20.0855 143.318 20.504 143.318 20.995ZM162.112 22.6552V17.228H163.923V26.5007H162.148V24.8949H162.052C161.838 25.3899 161.496 25.8024 161.026 26.1324C160.559 26.4584 159.977 26.6214 159.281 26.6214C158.685 26.6214 158.158 26.4906 157.699 26.229C157.244 25.9634 156.886 25.571 156.625 25.0518C156.367 24.5327 156.238 23.8907 156.238 23.1261V17.228H158.043V22.9087C158.043 23.5406 158.218 24.0437 158.568 24.418C158.919 24.7922 159.373 24.9794 159.933 24.9794C160.271 24.9794 160.607 24.8949 160.941 24.7258C161.279 24.5568 161.559 24.3012 161.78 23.9591C162.006 23.6171 162.116 23.1824 162.112 22.6552ZM173.297 19.4918L171.661 19.7816C171.593 19.5723 171.484 19.3731 171.335 19.1839C171.19 18.9948 170.993 18.8398 170.743 18.7191C170.494 18.5984 170.182 18.538 169.808 18.538C169.297 18.538 168.87 18.6527 168.528 18.8821C168.186 19.1075 168.015 19.3993 168.015 19.7574C168.015 20.0673 168.129 20.3169 168.359 20.506C168.588 20.6952 168.959 20.8501 169.47 20.9709L170.943 21.3089C171.796 21.5061 172.432 21.81 172.85 22.2205C173.269 22.631 173.478 23.1643 173.478 23.8203C173.478 24.3757 173.317 24.8707 172.995 25.3054C172.677 25.736 172.233 26.0741 171.661 26.3196C171.094 26.5651 170.436 26.6878 169.687 26.6878C168.649 26.6878 167.801 26.4665 167.145 26.0238C166.489 25.577 166.087 24.9432 165.938 24.1221L167.683 23.8565C167.791 24.3113 168.015 24.6554 168.353 24.8888C168.691 25.1182 169.132 25.2329 169.675 25.2329C170.267 25.2329 170.739 25.1102 171.094 24.8647C171.448 24.6152 171.625 24.3113 171.625 23.9531C171.625 23.6633 171.516 23.4199 171.299 23.2226C171.086 23.0254 170.758 22.8765 170.315 22.7759L168.745 22.4318C167.88 22.2346 167.24 21.9207 166.825 21.49C166.415 21.0594 166.21 20.5141 166.21 19.854C166.21 19.3067 166.363 18.8278 166.669 18.4172C166.974 18.0067 167.397 17.6868 167.936 17.4574C168.476 17.2239 169.093 17.1072 169.79 17.1072C170.792 17.1072 171.581 17.3246 172.156 17.7592C172.732 18.1899 173.112 18.7674 173.297 19.4918ZM183.868 26.6878C182.998 26.6878 182.24 26.4886 181.592 26.0902C180.944 25.6917 180.441 25.1343 180.083 24.418C179.724 23.7016 179.545 22.8645 179.545 21.9066C179.545 20.9447 179.724 20.1036 180.083 19.3832C180.441 18.6627 180.944 18.1033 181.592 17.7049C182.24 17.3065 182.998 17.1072 183.868 17.1072C184.737 17.1072 185.496 17.3065 186.144 17.7049C186.792 18.1033 187.295 18.6627 187.653 19.3832C188.011 20.1036 188.19 20.9447 188.19 21.9066C188.19 22.8645 188.011 23.7016 187.653 24.418C187.295 25.1343 186.792 25.6917 186.144 26.0902C185.496 26.4886 184.737 26.6878 183.868 26.6878ZM183.874 25.1726C184.437 25.1726 184.904 25.0237 185.274 24.7258C185.645 24.428 185.918 24.0316 186.095 23.5366C186.276 23.0415 186.367 22.4962 186.367 21.9006C186.367 21.3089 186.276 20.7656 186.095 20.2706C185.918 19.7715 185.645 19.3711 185.274 19.0692C184.904 18.7674 184.437 18.6165 183.874 18.6165C183.306 18.6165 182.835 18.7674 182.461 19.0692C182.091 19.3711 181.815 19.7715 181.634 20.2706C181.457 20.7656 181.368 21.3089 181.368 21.9006C181.368 22.4962 181.457 23.0415 181.634 23.5366C181.815 24.0316 182.091 24.428 182.461 24.7258C182.835 25.0237 183.306 25.1726 183.874 25.1726ZM192.01 20.995V26.5007H190.205V17.228H191.938V18.7372H192.052C192.266 18.2462 192.6 17.8518 193.054 17.554C193.513 17.2561 194.091 17.1072 194.787 17.1072C195.419 17.1072 195.972 17.24 196.447 17.5057C196.922 17.7673 197.29 18.1577 197.552 18.6768C197.814 19.196 197.944 19.8379 197.944 20.6026V26.5007H196.139V20.8199C196.139 20.1478 195.964 19.6226 195.614 19.2443C195.264 18.862 194.783 18.6708 194.171 18.6708C193.753 18.6708 193.38 18.7614 193.054 18.9425C192.732 19.1236 192.477 19.3892 192.288 19.7393C192.103 20.0855 192.01 20.504 192.01 20.995Z" fill="#E8E8E8"/>
</g>
<path d="M204.937 26.5007V14.1371H207.925V24.0739H213.069V26.5007H204.937ZM214.616 26.5007V17.228H217.568V26.5007H214.616ZM216.095 16.1474C215.68 16.1474 215.324 16.0105 215.026 15.7369C214.728 15.4592 214.58 15.1251 214.58 14.7347C214.58 14.3484 214.728 14.0183 215.026 13.7447C215.324 13.467 215.68 13.3281 216.095 13.3281C216.513 13.3281 216.87 13.467 217.163 13.7447C217.461 14.0183 217.61 14.3484 217.61 14.7347C217.61 15.1251 217.461 15.4592 217.163 15.7369C216.87 16.0105 216.513 16.1474 216.095 16.1474ZM222.399 21.2123V26.5007H219.447V17.228H222.254V18.9304H222.357C222.562 18.3629 222.912 17.9182 223.407 17.5962C223.902 17.2702 224.492 17.1072 225.176 17.1072C225.828 17.1072 226.393 17.2541 226.872 17.5479C227.355 17.8377 227.729 18.2442 227.995 18.7674C228.265 19.2866 228.398 19.8943 228.394 20.5905V26.5007H225.441V21.1701C225.446 20.6549 225.315 20.2525 225.049 19.9627C224.787 19.6729 224.423 19.528 223.956 19.528C223.647 19.528 223.373 19.5965 223.135 19.7333C222.902 19.8661 222.721 20.0573 222.592 20.3068C222.467 20.5563 222.403 20.8582 222.399 21.2123ZM232.884 24.0678L232.896 20.5483H233.306L235.914 17.228H239.259L235.383 21.9851H234.604L232.884 24.0678ZM230.221 26.5007V14.1371H233.173V26.5007H230.221ZM235.98 26.5007L233.554 22.6491L235.498 20.5543L239.391 26.5007H235.98ZM244.268 26.6758C243.298 26.6758 242.461 26.4846 241.756 26.1023C241.056 25.7159 240.517 25.1665 240.138 24.4542C239.764 23.7378 239.577 22.8866 239.577 21.9006C239.577 20.9427 239.766 20.1056 240.144 19.3892C240.523 18.6688 241.056 18.1094 241.744 17.7109C242.432 17.3085 243.243 17.1072 244.177 17.1072C244.837 17.1072 245.441 17.2099 245.988 17.4151C246.536 17.6204 247.008 17.9242 247.407 18.3267C247.805 18.7292 248.115 19.2262 248.337 19.8178C248.558 20.4054 248.669 21.0795 248.669 21.8402V22.5767H240.609V20.8622H245.922C245.918 20.5483 245.843 20.2686 245.698 20.0231C245.554 19.7776 245.354 19.5864 245.101 19.4496C244.851 19.3087 244.563 19.2383 244.237 19.2383C243.907 19.2383 243.612 19.3127 243.35 19.4616C243.088 19.6065 242.881 19.8057 242.728 20.0593C242.575 20.3088 242.495 20.5926 242.487 20.9105V22.6552C242.487 23.0335 242.561 23.3655 242.71 23.6513C242.859 23.933 243.07 24.1523 243.344 24.3093C243.618 24.4663 243.944 24.5447 244.322 24.5447C244.584 24.5447 244.821 24.5085 245.034 24.4361C245.248 24.3636 245.431 24.257 245.584 24.1161C245.737 23.9752 245.851 23.8022 245.928 23.5969L248.638 23.6754C248.526 24.2831 248.278 24.8124 247.896 25.2631C247.518 25.7099 247.021 26.058 246.405 26.3075C245.789 26.553 245.077 26.6758 244.268 26.6758ZM253.563 26.6335C252.879 26.6335 252.257 26.4564 251.698 26.1023C251.138 25.7481 250.691 25.2168 250.357 24.5085C250.023 23.8002 249.856 22.9208 249.856 21.8704C249.856 20.7797 250.029 19.8822 250.376 19.1779C250.722 18.4736 251.174 17.9524 251.734 17.6143C252.297 17.2763 252.903 17.1072 253.551 17.1072C254.038 17.1072 254.454 17.1918 254.801 17.3608C255.147 17.5258 255.432 17.7391 255.658 18.0007C255.883 18.2623 256.054 18.534 256.171 18.8157H256.231V14.1371H259.183V26.5007H256.262V24.9975H256.171C256.046 25.2832 255.869 25.5509 255.64 25.8004C255.41 26.0499 255.123 26.2512 254.776 26.4041C254.434 26.557 254.03 26.6335 253.563 26.6335ZM254.589 24.3334C254.947 24.3334 255.253 24.2328 255.507 24.0316C255.76 23.8263 255.956 23.5386 256.093 23.1683C256.229 22.798 256.298 22.3634 256.298 21.8643C256.298 21.3572 256.229 20.9206 256.093 20.5543C255.96 20.1881 255.764 19.9064 255.507 19.7092C255.253 19.5119 254.947 19.4133 254.589 19.4133C254.223 19.4133 253.913 19.514 253.66 19.7152C253.406 19.9164 253.213 20.2002 253.08 20.5664C252.951 20.9326 252.887 21.3653 252.887 21.8643C252.887 22.3634 252.953 22.798 253.086 23.1683C253.219 23.5386 253.41 23.8263 253.66 24.0316C253.913 24.2328 254.223 24.3334 254.589 24.3334ZM264.039 14.1371V26.5007H261.05V14.1371H264.039ZM268.867 21.2123V26.5007H265.915V17.228H268.722V18.9304H268.824C269.03 18.3629 269.38 17.9182 269.875 17.5962C270.37 17.2702 270.959 17.1072 271.644 17.1072C272.296 17.1072 272.861 17.2541 273.34 17.5479C273.823 17.8377 274.197 18.2442 274.463 18.7674C274.733 19.2866 274.865 19.8943 274.861 20.5905V26.5007H271.909V21.1701C271.913 20.6549 271.782 20.2525 271.517 19.9627C271.255 19.6729 270.891 19.528 270.424 19.528C270.114 19.528 269.841 19.5965 269.603 19.7333C269.37 19.8661 269.189 20.0573 269.06 20.3068C268.935 20.5563 268.871 20.8582 268.867 21.2123Z" fill="#369FEA"/>
</g>
<defs>
<filter id="filter0_d_1_56" x="2.39972" y="0.39972" width="39.202" height="39.202" filterUnits="userSpaceOnUse" color-interpolation-filters="sRGB">
<feFlood flood-opacity="0" result="BackgroundImageFix"/>
<feColorMatrix in="SourceAlpha" type="matrix" values="0 0 0 0 0 0 0 0 0 0 0 0 0 0 0 0 0 0 127 0" result="hardAlpha"/>
<feOffset/>
<feGaussianBlur stdDeviation="2.80014"/>
<feComposite in2="hardAlpha" operator="out"/>
<feColorMatrix type="matrix" values="0 0 0 0 0 0 0 0 0 0 0 0 0 0 0 0 0 0 0.25 0"/>
<feBlend mode="normal" in2="BackgroundImageFix" result="effect1_dropShadow_1_56"/>
<feBlend mode="normal" in="SourceGraphic" in2="effect1_dropShadow_1_56" result="shape"/>
</filter>
<filter id="filter1_d_1_56" x="36.2871" y="3.78642" width="245.428" height="32.4286" filterUnits="userSpaceOnUse" color-interpolation-filters="sRGB">
<feFlood flood-opacity="0" result="BackgroundImageFix"/>
<feColorMatrix in="SourceAlpha" type="matrix" values="0 0 0 0 0 0 0 0 0 0 0 0 0 0 0 0 0 0 127 0" result="hardAlpha"/>
<feOffset/>
<feGaussianBlur stdDeviation="2.85714"/>
<feComposite in2="hardAlpha" operator="out"/>
<feColorMatrix type="matrix" values="0 0 0 0 0 0 0 0 0 0 0 0 0 0 0 0 0 0 0.25 0"/>
<feBlend mode="normal" in2="BackgroundImageFix" result="effect1_dropShadow_1_56"/>
<feBlend mode="normal" in="SourceGraphic" in2="effect1_dropShadow_1_56" result="shape"/>
</filter>
<filter id="filter2_d_1_56" x="38.9613" y="13.642" width="162.983" height="21.0458" filterUnits="userSpaceOnUse" color-interpolation-filters="sRGB">
<feFlood flood-opacity="0" result="BackgroundImageFix"/>
<feColorMatrix in="SourceAlpha" type="matrix" values="0 0 0 0 0 0 0 0 0 0 0 0 0 0 0 0 0 0 127 0" result="hardAlpha"/>
<feOffset dy="4"/>
<feGaussianBlur stdDeviation="2"/>
<feComposite in2="hardAlpha" operator="out"/>
<feColorMatrix type="matrix" values="0 0 0 0 0 0 0 0 0 0 0 0 0 0 0 0 0 0 0.25 0"/>
<feBlend mode="normal" in2="BackgroundImageFix" result="effect1_dropShadow_1_56"/>
<feBlend mode="normal" in="SourceGraphic" in2="effect1_dropShadow_1_56" result="shape"/>
</filter>
<linearGradient id="paint0_linear_1_56" x1="142.001" y1="0" x2="142.001" y2="40.0014" gradientUnits="userSpaceOnUse">
<stop stop-color="#004667"/>
<stop offset="1" stop-color="#001F2E"/>
</linearGradient>
</defs>
</svg>
