<svg width="197" height="40" viewBox="0 0 197 40" fill="none" xmlns="http://www.w3.org/2000/svg">
<rect width="197.001" height="40.0014" rx="8" fill="url(#paint0_linear_1_56)"/>
<rect x="1.07143" y="1.07143" width="194.858" height="37.8585" rx="6.92857" stroke="white" stroke-opacity="0.15" stroke-width="2.14286"/>
<g filter="url(#filter0_d_1_56)">
<path fill-rule="evenodd" clip-rule="evenodd" d="M31.8831 19.4925C31.8831 25.04 27.4864 29.5371 22.0628 29.5371C16.6393 29.5371 12.2426 25.04 12.2426 19.4925C12.2426 13.9449 16.6393 9.44767 22.0628 9.44767C27.4864 9.44767 31.8831 13.9449 31.8831 19.4925Z" fill="#D33833"/>
<path d="M12.6428 21.9802C12.6428 21.9802 11.9319 11.5053 21.5838 11.206L20.9105 10.0837L15.6731 11.842L14.1766 13.5629L12.8673 16.0694L12.119 18.9875L12.3435 20.9328" fill="#EF3D3A"/>
<path d="M15.3368 12.6402C13.6138 14.4031 12.5476 16.8372 12.5476 19.53C12.5476 22.2222 13.6138 24.6566 15.3368 26.4192C17.0606 28.1818 19.4363 29.2694 22.0627 29.2694C24.6891 29.2694 27.065 28.1818 28.7886 26.4192C30.5115 24.6566 31.5779 22.2222 31.5779 19.53C31.5779 16.8372 30.5115 14.4031 28.7886 12.6402C27.065 10.878 24.6891 9.79032 22.0627 9.79009C19.4363 9.79032 17.0606 10.878 15.3368 12.6402ZM14.9007 26.8456C13.0695 24.9729 11.9375 22.3848 11.9375 19.53C11.9375 16.6747 13.0695 14.0869 14.9007 12.2141C16.7314 10.3409 19.2655 9.17989 22.0627 9.18023C24.8598 9.17989 27.3942 10.3409 29.2246 12.2141C31.0559 14.0869 32.1881 16.6749 32.1879 19.53C32.1881 22.3848 31.0559 24.9729 29.2246 26.8456C27.3942 28.7186 24.8598 29.8795 22.0627 29.8795C19.2655 29.8795 16.7314 28.7186 14.9007 26.8456Z" fill="#231F20"/>
<path fill-rule="evenodd" clip-rule="evenodd" d="M26.1966 19.5482L24.7001 19.7726L22.6799 19.9971L21.3705 20.0345L20.0986 19.9971L19.1259 19.6978L18.2654 18.7625L17.592 16.8546L17.4424 16.4431L16.5446 16.1439L16.0208 15.2834L15.6467 14.0488L16.0583 12.9639L17.0309 12.6272L17.8165 13.0014L18.1907 13.8244L18.6396 13.7495L18.7892 13.5625L18.6396 12.702L18.6021 11.6171L18.8266 10.1207L18.8178 9.26597L19.5 8.17541L20.6971 7.31493L22.7922 6.41708L25.1116 6.75378L27.1317 8.21279L28.0671 9.70917L28.6656 10.7941L28.8152 13.4877L28.3663 15.8072L27.5433 17.8647L26.7577 18.9496" fill="#F0D6B7"/>
<path fill-rule="evenodd" clip-rule="evenodd" d="M24.9246 26.0201L19.5748 26.2446V27.1424L20.0237 30.2849L19.7993 30.5469L16.0583 29.2748L15.7963 28.8259L15.4222 24.5986L14.5619 22.0546L14.3748 21.4561L17.3676 19.3986L18.3029 19.0244L19.1259 20.0345L19.8367 20.6705L20.6598 20.9323L21.0338 21.0446L21.4827 22.9899L21.8194 23.4014L22.6799 23.1021L22.0813 24.2619L25.336 25.7957L24.9246 26.0201Z" fill="#335061"/>
<path fill-rule="evenodd" clip-rule="evenodd" d="M16.0583 12.9639L17.0309 12.6272L17.8165 13.0014L18.1907 13.8244L18.6396 13.7495L18.7518 13.3006L18.5274 12.4402L18.7518 10.3826L18.5647 9.26025L19.2381 8.47463L20.6971 7.31494L20.2856 6.75378L18.228 7.76386L17.3676 8.43725L16.8812 9.48471L16.133 10.4948L15.9086 11.692L16.0583 12.9639Z" fill="#6D6B6D"/>
<path fill-rule="evenodd" clip-rule="evenodd" d="M17.592 9.44733C17.592 9.44733 18.1532 8.06318 20.3978 7.3898C22.6425 6.71641 20.5101 6.90338 20.5101 6.90338L18.0785 7.83872L17.1431 8.77395L16.7317 9.52219L17.592 9.44733Z" fill="#DCD9D8"/>
<path fill-rule="evenodd" clip-rule="evenodd" d="M16.4697 12.7021C16.4697 12.7021 15.6841 10.0832 18.677 9.70918L18.5647 9.26025L16.5072 9.74666L15.9086 11.692L16.0583 12.9639L16.4697 12.7021Z" fill="#DCD9D8"/>
<path fill-rule="evenodd" clip-rule="evenodd" d="M17.6669 16.1812L18.1567 15.7066C18.1567 15.7066 18.3778 15.7323 18.4151 15.9941C18.4525 16.2561 18.5647 18.613 20.1734 19.885C20.3201 20.001 18.9763 19.6978 18.9763 19.6978L17.7791 17.8273" fill="#F7E4CD"/>
<path fill-rule="evenodd" clip-rule="evenodd" d="M24.5506 15.4705C24.5506 15.4705 24.6378 14.3365 24.9432 14.4237C25.2486 14.5109 25.2486 14.8163 25.2486 14.8163C25.2486 14.8163 24.507 15.2961 24.5506 15.4705Z" fill="#F7E4CD"/>
<path d="M27.6555 11.3179C27.6555 11.3179 27.0389 11.4481 26.9821 11.9913C26.9253 12.5346 27.6555 12.1035 27.7678 12.0661" fill="#F7E4CD"/>
<path d="M23.1289 11.3554C23.1289 11.3554 22.3058 11.4676 22.3058 11.9913C22.3058 12.5151 23.2411 12.4777 23.503 12.2532" fill="#F7E4CD"/>
<path fill-rule="evenodd" clip-rule="evenodd" d="M18.041 13.787C18.041 13.787 16.6193 12.9265 16.4697 13.7496C16.3201 14.5726 15.9833 15.1713 16.6942 16.0316L16.2079 15.882L15.7589 14.7223L15.6094 13.6L16.4697 12.7021L17.4424 12.7769L18.0036 13.2258L18.041 13.787Z" fill="#F7E4CD"/>
<path fill-rule="evenodd" clip-rule="evenodd" d="M18.7143 11.4301C18.7143 11.4301 19.3503 8.13804 22.5677 7.50203C25.2165 6.97847 26.608 7.61426 27.1317 8.21279C27.1317 8.21279 24.7749 5.40711 22.5302 6.26748C20.2856 7.12796 18.6396 8.6992 18.677 9.70917C18.7407 11.4295 18.7143 11.4301 18.7143 11.4301Z" fill="#F7E4CD"/>
<path fill-rule="evenodd" clip-rule="evenodd" d="M27.3937 8.58686C27.3937 8.58686 26.3089 8.54948 26.2714 9.52219C26.2714 9.52219 26.2713 9.6718 26.3461 9.8214C26.3461 9.8214 27.2067 8.84869 27.7304 9.37248" fill="#F7E4CD"/>
<path fill-rule="evenodd" clip-rule="evenodd" d="M22.6431 9.92275C22.6431 9.92275 22.4564 8.42973 21.1834 9.29773C20.3604 9.85889 20.4353 10.6445 20.5849 10.7941C20.7345 10.9438 20.6938 11.2452 20.8077 11.0383C20.9216 10.8315 20.8841 10.1581 21.2957 9.97112C21.7072 9.78403 22.3818 9.57506 22.6431 9.92275Z" fill="#F7E4CD"/>
<path fill-rule="evenodd" clip-rule="evenodd" d="M19.1259 20.0345L15.6094 21.6057C15.6094 21.6057 17.0684 27.4044 16.3201 29.2001L15.7963 29.0131L15.7589 26.8058L14.7864 22.6159L14.3748 21.4561L18.041 18.9871L19.1259 20.0345Z" fill="#49728B"/>
<path fill-rule="evenodd" clip-rule="evenodd" d="M19.4875 23.2417L19.9864 23.8505V26.0951H19.3877C19.3877 26.0951 19.313 24.5238 19.313 24.3367C19.313 24.1497 19.3877 23.4763 19.3877 23.4763" fill="#49728B"/>
<path fill-rule="evenodd" clip-rule="evenodd" d="M19.5 26.4318L17.8165 26.5065L18.3029 26.8432L19.5 27.0303" fill="#49728B"/>
<path fill-rule="evenodd" clip-rule="evenodd" d="M25.2613 26.0576L26.6454 26.0202L26.9821 29.462L25.5605 29.649L25.2613 26.0576Z" fill="#335061"/>
<path fill-rule="evenodd" clip-rule="evenodd" d="M25.6354 26.0576L27.7304 25.9454C27.7304 25.9454 28.5907 23.7756 28.5907 23.6633C28.5907 23.5511 29.339 20.5209 29.339 20.5209L27.6555 18.7627L27.3188 18.4633L26.421 19.3612V22.8404L25.6354 26.0576Z" fill="#335061"/>
<path fill-rule="evenodd" clip-rule="evenodd" d="M26.5706 25.7957L25.2613 26.0576L25.4483 27.1052C25.9346 27.3296 26.7577 26.731 26.7577 26.731" fill="#49728B"/>
<path fill-rule="evenodd" clip-rule="evenodd" d="M26.6081 19.249L29.2268 21.1943L29.3016 20.2964L27.3188 18.4633L26.6081 19.249Z" fill="#49728B"/>
<path fill-rule="evenodd" clip-rule="evenodd" d="M20.7983 33.4278L20.0237 30.2849L19.6385 27.9659L19.5748 26.2446L23.0803 26.058L25.2613 26.0576L25.063 29.9861L25.3997 33.0163L25.3623 33.5775L22.5192 33.8019L20.7983 33.4278Z" fill="white"/>
<path fill-rule="evenodd" clip-rule="evenodd" d="M24.7749 26.0202C24.7749 26.0202 24.5879 29.911 25.1491 32.6793C25.1491 32.6793 24.0267 33.3901 22.3806 33.5771L25.5231 33.4649L25.8972 33.2404L25.4483 27.1052L25.336 25.7957" fill="#DCD9D8"/>
<path fill-rule="evenodd" clip-rule="evenodd" d="M27.0459 29.163L28.5049 28.7515L31.2732 28.6019L31.6847 27.33L30.9365 25.1227L30.0761 25.0105L28.879 25.3846L27.7304 25.9454L27.1206 25.8335L26.6454 26.0202" fill="white"/>
<path fill-rule="evenodd" clip-rule="evenodd" d="M27.0195 28.4145C27.0195 28.4145 27.9921 27.9656 28.1418 28.003L27.7304 25.9454L28.2167 25.7584C28.2167 25.7584 28.5534 27.7037 28.5534 27.9281C28.5534 27.9281 30.6483 28.0404 30.8354 28.0404C30.8354 28.0404 31.2843 27.1799 31.1721 26.2821L31.5836 27.4792L31.621 28.1526L31.0225 29.0505L30.3491 29.2001L29.2268 29.1627L28.8527 28.6764L27.5433 28.8634L27.1317 29.0131" fill="#DCD9D8"/>
<path d="M25.5494 25.7587L24.7264 23.6637L23.8659 22.4292C23.8659 22.4292 24.0529 21.9054 24.3148 21.9054C24.5768 21.9054 25.1753 21.9054 25.1753 21.9054L25.9983 22.2047L25.9236 23.5889L25.5494 25.7587Z" fill="white"/>
<path fill-rule="evenodd" clip-rule="evenodd" d="M25.7102 25.0475C25.7102 25.0475 24.6626 23.0274 24.6626 22.7281C24.6626 22.7281 24.8496 22.2792 25.1116 22.3914C25.3735 22.5037 25.9347 22.8029 25.9347 22.8029V22.0921L24.6626 21.8302L23.8023 21.9424L25.2613 25.3842L25.5605 25.4217" fill="#DCD9D8"/>
<path d="M21.135 20.1098L20.0986 19.9971L19.1259 19.6978V20.0345L19.6012 20.5586L21.0976 21.232" fill="white"/>
<path fill-rule="evenodd" clip-rule="evenodd" d="M19.4627 20.2219C19.4627 20.2219 20.6225 20.7083 20.9966 20.5961L21.0338 21.0446L19.9865 20.8205L19.3505 20.3716L19.4627 20.2219Z" fill="#DCD9D8"/>
<path fill-rule="evenodd" clip-rule="evenodd" d="M27.0418 22.0328C26.4071 22.0141 25.8336 21.9387 25.3314 21.7971C25.3656 21.5912 25.3017 21.3892 25.353 21.241C25.4929 21.1402 25.7275 21.1417 25.9391 21.1181C25.7561 21.0282 25.4991 20.9926 25.288 21.0446C25.2831 20.9017 25.219 20.8131 25.1801 20.7014C25.537 20.574 26.3796 19.7389 26.8535 20.0154C27.0793 20.1469 27.1753 20.8982 27.1928 21.2635C27.2074 21.5665 27.1653 21.8723 27.0418 22.0328Z" fill="#D33833"/>
<path d="M27.0418 22.0328C26.4071 22.0141 25.8336 21.9387 25.3314 21.7971C25.3656 21.5912 25.3017 21.3892 25.353 21.241C25.4929 21.1402 25.7275 21.1417 25.9391 21.1181C25.7561 21.0282 25.4991 20.9926 25.288 21.0446C25.2831 20.9017 25.219 20.8131 25.1801 20.7014C25.537 20.574 26.3796 19.7389 26.8535 20.0154C27.0793 20.1469 27.1753 20.8982 27.1928 21.2635C27.2074 21.5665 27.1653 21.8723 27.0418 22.0328Z" stroke="#D33833" stroke-width="2.5"/>
<path fill-rule="evenodd" clip-rule="evenodd" d="M24.0063 20.9951C24.0046 21.0431 24.0026 21.0915 24.0007 21.14C23.8025 21.2701 23.4825 21.2686 23.265 21.378C23.5857 21.392 23.8381 21.4692 24.0565 21.5781C24.0517 21.6991 24.0471 21.82 24.0423 21.9409C23.6791 22.1897 23.3472 22.56 22.9194 22.7932C22.7172 22.9035 22.0074 23.1874 21.7923 23.1372C21.6705 23.1089 21.6596 22.9579 21.6109 22.8155C21.5072 22.5105 21.2685 22.0251 21.2477 21.5661C21.2212 20.9863 21.1626 20.0146 21.7874 20.134C22.2915 20.2302 22.8778 20.4624 23.2681 20.6756C23.5066 20.8061 23.6445 20.9672 24.0063 20.9951Z" fill="#D33833"/>
<path d="M24.0063 20.9951C24.0046 21.0431 24.0026 21.0915 24.0007 21.14C23.8025 21.2701 23.4825 21.2686 23.265 21.378C23.5857 21.392 23.8381 21.4692 24.0565 21.5781C24.0517 21.6991 24.0471 21.82 24.0423 21.9409C23.6791 22.1897 23.3472 22.56 22.9194 22.7932C22.7172 22.9035 22.0074 23.1874 21.7923 23.1372C21.6705 23.1089 21.6596 22.9579 21.6109 22.8155C21.5072 22.5105 21.2685 22.0251 21.2477 21.5661C21.2212 20.9863 21.1626 20.0146 21.7874 20.134C22.2915 20.2302 22.8778 20.4624 23.2681 20.6756C23.5066 20.8061 23.6445 20.9672 24.0063 20.9951Z" stroke="#D33833" stroke-width="2.5"/>
<path fill-rule="evenodd" clip-rule="evenodd" d="M24.3671 21.6869C24.3117 21.371 24.2476 21.2809 24.2724 21.0054C25.1147 20.4438 25.2728 21.97 24.3671 21.6869Z" fill="#D33833"/>
<path d="M24.3671 21.6869C24.3117 21.371 24.2476 21.2809 24.2724 21.0054C25.1147 20.4438 25.2728 21.97 24.3671 21.6869Z" stroke="#D33833" stroke-width="2.5"/>
<path fill-rule="evenodd" clip-rule="evenodd" d="M25.5868 21.9429C25.5868 21.9429 25.3248 21.5687 25.5119 21.4564C25.699 21.3442 25.8861 21.4566 25.9983 21.2695C26.1105 21.0824 25.9983 20.9701 26.0357 20.7457C26.0731 20.5212 26.2603 20.4837 26.4472 20.4464C26.6342 20.409 27.1581 20.3341 27.2329 20.5212L27.0084 19.8478L26.5595 19.6982L25.1378 20.5212L25.063 20.9328V21.7558" fill="#EF3D3A"/>
<path fill-rule="evenodd" clip-rule="evenodd" d="M21.6587 23.1774C21.6137 22.5936 21.5662 22.0105 21.5133 21.4273C21.4341 20.5563 21.7225 20.7083 22.4774 20.7083C22.5927 20.7083 23.1874 20.8458 23.2299 20.9328C23.4339 21.3495 22.8887 21.2569 23.4649 21.5711C23.9513 21.8363 24.8106 21.4101 24.6141 20.8205C24.5041 20.6895 24.041 20.7797 23.875 20.6936C23.5828 20.5421 23.2905 20.3906 22.9982 20.2391C22.6264 20.0461 21.767 19.7649 21.3705 20.0345C20.366 20.7176 21.4339 22.4246 21.7923 23.1372" fill="#EF3D3A"/>
<path fill-rule="evenodd" clip-rule="evenodd" d="M22.6431 9.92275C21.6235 9.68527 21.1168 10.3495 20.8077 11.0383C20.5318 10.9714 20.6416 10.5961 20.7113 10.4049C20.8938 9.903 21.6293 9.23488 22.2303 9.32545C22.4889 9.3644 22.8389 9.60087 22.6431 9.92275Z" fill="#231F20"/>
<path fill-rule="evenodd" clip-rule="evenodd" d="M27.6112 11.0839C27.6272 11.0846 27.6435 11.0851 27.6596 11.0858C27.89 11.5645 28.0894 12.0715 28.3801 12.4941C28.1854 12.9476 26.9056 13.349 26.9253 12.5346C27.2021 12.4136 27.6799 12.5099 27.9252 12.3554C27.7834 11.966 27.5786 11.6346 27.6112 11.0839Z" fill="#231F20"/>
<path fill-rule="evenodd" clip-rule="evenodd" d="M23.1651 11.0964C23.3838 11.4971 23.4549 11.9182 23.7657 12.2211C23.9056 12.3575 24.1778 12.5237 24.0429 12.9029C24.0114 12.9924 23.781 13.1918 23.648 13.231C23.1621 13.3744 22.03 13.2606 22.4134 12.6549C22.8152 12.6737 23.3553 12.9159 23.6556 12.6242C23.425 12.2555 23.0138 11.5261 23.1651 11.0964Z" fill="#231F20"/>
<path fill-rule="evenodd" clip-rule="evenodd" d="M27.4288 15.1697C26.6973 15.6396 25.8816 16.1506 24.683 16.0321C24.4268 15.8094 24.3292 15.3139 24.578 14.9866C24.7075 15.2093 24.6262 15.6188 24.9871 15.6805C25.6672 15.7968 26.4588 15.2644 26.948 15.0783C27.2514 14.5669 26.9219 14.3788 26.6486 14.0496C26.0891 13.3752 25.3386 12.5393 25.3659 11.5297C25.592 11.3657 25.6116 11.78 25.644 11.8554C25.9361 12.5391 26.6714 13.4135 27.2079 13.9987C27.3397 14.1428 27.5566 14.281 27.5808 14.3763C27.6504 14.6534 27.3997 14.9854 27.4288 15.1697Z" fill="#231F20"/>
<path fill-rule="evenodd" clip-rule="evenodd" d="M17.7849 14.675C17.5557 14.5441 17.5011 13.9677 17.2319 13.9513C16.8472 13.928 16.9173 14.6991 16.9189 15.15C16.6541 14.9096 16.6075 14.1695 16.802 13.7894C16.5803 13.6805 16.4813 13.9094 16.3584 13.9901C16.5164 12.842 18.0379 13.4576 17.7849 14.675Z" fill="#231F20"/>
<path fill-rule="evenodd" clip-rule="evenodd" d="M27.8946 15.6478C27.5541 16.2959 27.0724 17.0097 26.0732 17.0305C26.0529 16.8212 26.0373 16.5027 26.0743 16.3766C26.8381 16.3032 27.3097 15.9145 27.8946 15.6478Z" fill="#231F20"/>
<path fill-rule="evenodd" clip-rule="evenodd" d="M23.1075 16.068C23.7448 16.4031 24.9161 16.4391 25.7823 16.4138C25.8287 16.6036 25.8276 16.838 25.8294 17.0694C24.716 17.125 23.3995 16.8495 23.1075 16.068Z" fill="#231F20"/>
<path fill-rule="evenodd" clip-rule="evenodd" d="M22.9864 16.6929C23.4271 17.7994 24.9418 17.672 26.2191 17.6415C26.1628 17.7851 26.041 17.9548 25.8894 18.0162C25.4801 18.1828 24.3512 18.3091 23.783 18.0074C23.4226 17.8158 23.1911 17.3829 22.9936 17.1291C22.8983 17.0066 22.4235 16.6936 22.9864 16.6929Z" fill="#231F20"/>
<path fill-rule="evenodd" clip-rule="evenodd" d="M27.3756 22.7964C26.8585 23.6821 26.3636 24.5918 25.7501 25.3731C26.0073 24.6168 26.1174 23.3509 26.1562 22.3858C26.6944 22.134 27.1552 22.4425 27.3756 22.7964Z" fill="#81B0C4"/>
<path fill-rule="evenodd" clip-rule="evenodd" d="M30.1585 25.9798C29.5795 26.0957 29.1727 26.6585 28.6078 26.6224C28.9182 26.1847 29.4622 26.0003 30.1585 25.9798Z" fill="#231F20"/>
<path fill-rule="evenodd" clip-rule="evenodd" d="M30.4139 26.886C29.942 26.9358 29.3877 27.0122 28.909 26.9729C29.1356 26.6267 30.0087 26.7462 30.4139 26.886Z" fill="#231F20"/>
<path fill-rule="evenodd" clip-rule="evenodd" d="M30.5775 27.6672C30.0471 27.6787 29.3878 27.6681 28.8837 27.6258C29.1819 27.3055 30.2335 27.507 30.5775 27.6672Z" fill="#231F20"/>
<path fill-rule="evenodd" clip-rule="evenodd" d="M26.3777 29.8051C26.4537 30.4712 26.7178 31.1462 26.6847 31.8757C26.3915 31.9746 26.223 32.0611 25.8301 32.0605C25.8024 31.4405 25.7194 30.4928 25.7442 29.9018C25.9375 29.9145 26.2224 29.7637 26.3777 29.8051Z" fill="#DCD9D8"/>
<path fill-rule="evenodd" clip-rule="evenodd" d="M25.5226 19.988C25.2562 20.1619 25.0294 20.3789 24.7736 20.5645C24.2064 20.5926 23.8969 20.5253 23.4802 20.1996C23.487 20.1734 23.5289 20.1851 23.5305 20.153C24.1376 20.4236 24.9094 20.0428 25.5226 19.988Z" fill="#F0D6B7"/>
<path fill-rule="evenodd" clip-rule="evenodd" d="M22.3351 24.1269C22.5019 23.404 23.1556 23.0296 23.7492 22.6315C24.3619 23.4091 24.7345 24.409 25.1448 25.374C24.1753 25.0818 23.1848 24.6076 22.3351 24.1269Z" fill="#81B0C4"/>
<path fill-rule="evenodd" clip-rule="evenodd" d="M25.7442 29.9018C25.7194 30.4928 25.8024 31.4405 25.8301 32.0605C26.223 32.0611 26.3915 31.9746 26.6847 31.8757C26.7178 31.1462 26.4537 30.4712 26.3777 29.8051C26.2224 29.7637 25.9375 29.9145 25.7442 29.9018ZM19.626 26.5406C19.8851 28.9224 20.2604 30.9247 20.9487 33.0339C22.4763 33.4978 24.3179 33.5382 25.6681 33.1196C25.4202 31.9292 25.5285 30.4799 25.3836 29.2095C25.2744 28.2547 25.3301 27.2939 25.1804 26.3198C23.5443 25.9794 21.2317 26.2402 19.626 26.5406ZM25.5672 26.3347C25.5534 27.3577 25.613 28.3668 25.6911 29.391C26.0839 29.332 26.3505 29.2927 26.7155 29.2127C26.597 28.2266 26.6115 27.1171 26.3701 26.2448C26.0911 26.2475 25.8455 26.2416 25.5672 26.3347ZM27.5599 26.1698C27.3735 26.1271 27.1564 26.1682 26.9783 26.1716C27.062 27.0055 27.2652 27.9257 27.3367 28.801C27.6169 28.8097 27.7666 28.6776 27.9972 28.6331C28.0095 27.8647 27.93 26.8062 27.5599 26.1698ZM30.5771 28.9266C31.1613 28.7847 31.5286 28.0692 31.3652 27.3345C31.2556 26.8406 31.0603 25.9108 30.8513 25.5949C30.6969 25.3612 30.2781 25.0553 29.9438 25.2694C29.3999 25.6177 28.4418 25.7188 28.0452 26.1403C28.2441 26.8025 28.3058 27.712 28.3878 28.551C29.0673 28.5934 29.9033 28.364 30.4684 28.6074C30.0739 28.7352 29.562 28.7362 29.2212 28.9224C29.4997 29.057 30.1519 29.0298 30.5771 28.9266ZM25.1448 25.374C24.7345 24.409 24.3619 23.4091 23.7492 22.6315C23.1556 23.0296 22.502 23.404 22.3351 24.1269C23.1848 24.6076 24.1753 25.0818 25.1448 25.374ZM26.1562 22.3858C26.1174 23.3509 26.0073 24.6168 25.7501 25.3731C26.3636 24.5918 26.8585 23.6821 27.3756 22.7964C27.1552 22.4425 26.6944 22.134 26.1562 22.3858ZM25.0097 21.9784C24.7772 21.9534 24.5799 22.2457 24.2777 22.1193C24.2084 22.1958 24.1455 22.2788 24.0749 22.3535C24.7424 23.158 25.0458 24.2994 25.5614 25.2448C25.838 24.3366 25.8062 23.3417 25.8671 22.3505C25.487 22.3746 25.2761 22.0067 25.0097 21.9784ZM24.2724 21.0054C24.2476 21.2809 24.3117 21.371 24.3671 21.6869C25.2728 21.97 25.1147 20.4438 24.2724 21.0054ZM23.2681 20.6756C22.8778 20.4624 22.2915 20.2302 21.7874 20.134C21.1626 20.0145 21.2212 20.9863 21.2477 21.5661C21.2685 22.0251 21.5072 22.5105 21.6109 22.8155C21.6596 22.9579 21.6705 23.1089 21.7923 23.1372C22.0074 23.1874 22.7172 22.9035 22.9194 22.7932C23.3472 22.56 23.679 22.1897 24.0423 21.9409C24.0471 21.82 24.0517 21.6991 24.0565 21.5781C23.8381 21.4692 23.5857 21.392 23.265 21.378C23.4825 21.2686 23.8025 21.2701 24.0007 21.1399C24.0026 21.0915 24.0046 21.0431 24.0063 20.9951C23.6445 20.9672 23.5065 20.8061 23.2681 20.6756ZM19.5404 19.9986C19.2165 20.3274 20.4489 20.7756 20.8413 20.7998C20.8391 20.5917 20.9599 20.3955 20.9355 20.2462C20.4695 20.1644 19.8571 20.2184 19.5404 19.9986ZM23.5305 20.153C23.5289 20.1851 23.487 20.1734 23.4802 20.1996C23.8969 20.5253 24.2064 20.5926 24.7736 20.5645C25.0294 20.3789 25.2562 20.1619 25.5226 19.988C24.9094 20.0428 24.1376 20.4236 23.5305 20.153ZM27.1928 21.2635C27.1753 20.8982 27.0793 20.1469 26.8535 20.0154C26.3796 19.7387 25.537 20.574 25.1801 20.7013C25.219 20.8131 25.2831 20.9017 25.288 21.0446C25.4991 20.9926 25.7561 21.0282 25.9391 21.1181C25.7275 21.1417 25.4929 21.1402 25.353 21.241C25.3017 21.3892 25.3656 21.5912 25.3314 21.7971C25.8336 21.9387 26.4071 22.0141 27.0418 22.0328C27.1653 21.8723 27.2074 21.5665 27.1928 21.2635ZM18.9952 20.3166C18.8934 20.2441 18.2054 19.3488 18.1111 19.386C16.866 19.877 15.7019 20.726 14.6615 21.5291C15.6534 23.6574 16.0538 26.265 16.1246 28.7783C17.2608 29.3097 18.2589 30.0758 19.8007 30.1558C19.6223 28.8935 19.4594 27.7672 19.3581 26.5787C18.9707 26.4154 18.4149 26.5861 18.0524 26.528C18.0493 26.0911 18.6061 26.3367 18.6524 26.0429C18.6874 25.8207 18.3461 25.8039 18.4572 25.4539C18.7407 25.5569 18.8895 25.7845 19.1918 25.87C19.468 25.2657 19.1879 24.1966 19.2277 23.6915C19.2353 23.5967 19.2751 23.1662 19.4875 23.2417C19.6755 23.3086 19.4767 24.3867 19.4973 24.8647C19.5161 25.3051 19.4442 25.7312 19.6225 26.0077C21.1124 25.8049 22.6265 25.6738 24.2385 25.6295C23.8839 25.4774 23.4626 25.3334 23.0006 25.073C22.7502 24.9318 21.9609 24.6381 21.8886 24.4003C21.7733 24.0213 22.1911 23.8194 22.2626 23.4945C21.5105 23.9046 21.3638 23.1013 21.1859 22.5322C21.0247 22.0167 20.9329 21.6316 20.8934 21.3343C20.2455 21.0255 19.5528 20.7127 18.9952 20.3166ZM26.5348 19.4943C27.5721 18.9913 27.7591 21.3743 27.3525 22.142C27.4153 22.3709 27.6315 22.4586 27.7197 22.6644C27.1408 23.7014 26.4979 24.6694 25.9072 25.6942C26.3466 25.4207 26.9742 25.6453 27.4912 25.4405C27.6802 25.3658 27.817 24.9331 27.9601 24.587C28.3537 23.6348 28.767 22.4342 28.9508 21.5255C28.9923 21.3184 29.1054 20.8672 29.0801 20.6829C29.0348 20.353 28.5872 20.1083 28.3594 19.9043C27.9399 19.5274 27.6757 19.1958 27.2381 18.8434C27.0607 19.1053 26.6799 19.2813 26.5348 19.4943ZM16.6227 10.2949C16.1284 10.8388 16.2319 11.8578 16.2917 12.5829C17.1852 12.0208 18.3711 12.6273 18.3599 13.5833C18.7865 13.572 18.5193 13.0505 18.4421 12.7146C18.1899 11.6174 18.8669 10.4254 18.4728 9.42208C17.7076 9.48011 17.0789 9.79267 16.6227 10.2949ZM20.1596 7.13828C19.0405 7.45545 17.6064 8.26857 17.1465 9.27382C17.5026 9.22208 17.7498 9.04251 18.101 9.02029C18.2338 9.01165 18.4077 9.07596 18.5603 9.03803C18.8643 8.96261 19.1209 8.28091 19.3503 8.02727C19.5738 7.77957 19.8426 7.67374 20.0265 7.44793C20.1447 7.39092 20.3194 7.39484 20.3261 7.21741C20.2749 7.16264 20.2209 7.12089 20.1596 7.13828ZM25.9847 7.43659C24.8232 6.78127 22.8573 6.28835 21.6218 6.90428C20.6248 7.40135 19.2773 8.22378 18.8178 9.26597C19.247 10.2717 18.6907 11.1932 18.6552 12.2143C18.6363 12.7576 18.911 13.2319 18.932 13.8234C18.7852 14.0657 18.3364 14.0955 18.0258 14.0789C17.9213 13.5557 17.7382 12.9676 17.1995 12.9086C16.4371 12.8252 15.8796 13.4561 15.845 14.1155C15.804 14.8909 16.4406 16.1761 17.3428 16.0868C17.6913 16.0524 17.777 15.703 18.1567 15.7066C18.3625 16.1173 17.8392 16.2462 17.7854 16.5399C17.7714 16.6158 17.8288 16.9123 17.8622 17.0514C18.0261 17.7284 18.3914 18.6048 18.751 19.1202C19.2073 19.7741 20.104 19.8726 21.0686 19.9367C21.2409 19.5656 21.8756 19.5961 22.2891 19.6932C21.7935 19.4969 21.3327 19.021 20.9509 18.5998C20.5122 18.1165 20.0679 17.5981 20.0455 16.9665C20.8744 18.1164 21.5592 19.1207 23.0664 19.6265C24.2069 20.009 25.5388 19.4512 26.4151 18.8358C26.7788 18.5801 26.9958 18.1742 27.2543 17.8027C28.2214 16.4116 28.6727 14.426 28.5735 12.5015C28.5326 11.7078 28.5344 10.9168 28.2681 10.3828C27.9897 9.82443 27.0484 9.32489 26.4973 9.82993C26.3952 9.28695 26.9555 8.95116 27.6138 9.14655C27.1444 8.54084 26.6518 7.81302 25.9847 7.43659ZM28.1487 25.3451C29.0563 24.8939 30.7521 24.1306 31.3211 25.3467C31.5311 25.795 31.7775 26.5528 31.8862 27.0155C32.0398 27.6683 31.7197 29.0405 31.0486 29.2596C30.4559 29.453 29.7644 29.4413 29.0504 29.2978C28.9664 29.2279 28.8728 29.106 28.8074 28.979C28.2976 28.9592 27.8203 29.0064 27.4176 29.2159C27.4558 29.5929 27.2008 29.6534 26.9617 29.731C26.7845 30.4337 27.3162 31.3513 27.189 31.9921C27.0982 32.4485 26.5366 32.5191 26.1238 32.6045C26.1103 32.8582 26.1419 33.0699 26.17 33.2845C26.0756 33.6323 25.6523 33.8303 25.2512 33.8788C23.9315 34.0375 21.9276 34.1088 20.6582 33.6523C20.304 32.7834 20.025 31.7266 19.7299 30.7345C18.4919 30.8667 17.4905 30.2003 16.5466 29.7637C16.2198 29.6122 15.7676 29.5287 15.6455 29.2686C15.5272 29.0167 15.5756 28.534 15.5462 28.078C15.4715 26.9134 15.4075 25.79 15.0999 24.5976C14.9618 24.0625 14.7211 23.5903 14.5532 23.0747C14.398 22.5968 14.1269 22.0063 14.0562 21.5297C13.9513 20.8235 14.6164 20.7842 15.0416 20.4781C15.699 20.0048 16.215 19.7431 16.927 19.316C17.1378 19.1895 17.7738 18.8693 17.8461 18.7218C17.9899 18.4294 17.5993 18.0172 17.4948 17.788C17.3297 17.4256 17.2435 17.1178 17.2198 16.7602C16.6226 16.6658 16.1699 16.3104 15.8964 15.9096C15.444 15.2463 15.1303 14.0192 15.5217 13.0858C15.5524 13.0123 15.7054 12.8677 15.728 12.7548C15.7726 12.5325 15.6442 12.2368 15.6362 12.0004C15.5951 10.7872 15.8415 9.74183 16.6582 9.37595C16.9898 8.0551 18.1765 7.61594 19.2946 6.9595C19.7125 6.71416 20.1732 6.55737 20.649 6.38229C22.3559 5.75413 24.9747 5.87242 26.3912 6.94379C26.9919 7.3981 27.952 8.35734 28.2955 9.05183C29.2025 10.8854 29.1381 13.9496 28.5037 16.18C28.4184 16.4794 28.2947 16.9196 28.122 17.2793C28.0015 17.5305 27.6272 18.033 27.6727 18.2548C27.7195 18.4841 28.5261 19.0965 28.6991 19.2633C29.0105 19.5638 29.6022 19.9625 29.6501 20.3416C29.7016 20.7451 29.4723 21.2971 29.3562 21.6864C28.9678 22.9857 28.589 24.1867 28.1487 25.3451Z" fill="#231F20"/>
<path fill-rule="evenodd" clip-rule="evenodd" d="M22.0934 16.351C22.1427 16.2855 22.4134 16.1859 22.7922 16.3683C22.7922 16.3683 22.3432 16.4432 22.3806 17.1917L22.1935 17.1542C22.1935 17.1542 22.0002 16.4755 22.0934 16.351Z" fill="#F7E4CD"/>
<path fill-rule="evenodd" clip-rule="evenodd" d="M25.3735 22.7843C25.3735 22.8978 25.2814 22.99 25.1677 22.99C25.0541 22.99 24.962 22.8978 24.962 22.7843C24.962 22.6707 25.0541 22.5784 25.1677 22.5784C25.2814 22.5784 25.3735 22.6707 25.3735 22.7843Z" fill="#1D1919"/>
<path fill-rule="evenodd" clip-rule="evenodd" d="M25.5792 23.7382C25.5792 23.8518 25.4871 23.9439 25.3734 23.9439C25.2598 23.9439 25.1677 23.8518 25.1677 23.7382C25.1677 23.6246 25.2598 23.5324 25.3734 23.5324C25.4871 23.5324 25.5792 23.6246 25.5792 23.7382Z" fill="#1D1919"/>
</g>
<g filter="url(#filter1_d_1_56)">
<path d="M43.3597 26.5007V14.1371H47.8874C48.7648 14.1371 49.4912 14.282 50.0667 14.5717C50.6423 14.8575 51.0729 15.2458 51.3586 15.7369C51.6444 16.2238 51.7873 16.7732 51.7873 17.3849C51.7873 17.9001 51.6927 18.3347 51.5035 18.6889C51.3144 19.0391 51.0608 19.3208 50.7429 19.5341C50.429 19.7434 50.0828 19.8963 49.7045 19.9929V20.1136C50.115 20.1337 50.5155 20.2666 50.9059 20.5121C51.3003 20.7535 51.6263 21.0976 51.8839 21.5444C52.1414 21.9911 52.2702 22.5344 52.2702 23.1743C52.2702 23.8062 52.1213 24.3737 51.8235 24.8768C51.5297 25.3758 51.0749 25.7722 50.4591 26.066C49.8434 26.3558 49.0566 26.5007 48.0987 26.5007H43.3597ZM45.2251 24.9009H47.9176C48.8111 24.9009 49.451 24.7279 49.8373 24.3817C50.2237 24.0356 50.4169 23.603 50.4169 23.0838C50.4169 22.6934 50.3183 22.3352 50.1211 22.0092C49.9239 21.6832 49.6421 21.4236 49.2759 21.2305C48.9137 21.0373 48.483 20.9407 47.984 20.9407H45.2251V24.9009ZM45.2251 19.4858H47.7244C48.143 19.4858 48.5193 19.4053 48.8533 19.2443C49.1914 19.0833 49.459 18.8579 49.6562 18.5682C49.8575 18.2744 49.9581 17.9283 49.9581 17.5298C49.9581 17.0187 49.779 16.5901 49.4208 16.244C49.0626 15.8978 48.5132 15.7248 47.7727 15.7248H45.2251V19.4858ZM60.2118 22.6552V17.228H62.0229V26.5007H60.248V24.8949H60.1514C59.9381 25.3899 59.596 25.8024 59.1251 26.1324C58.6583 26.4584 58.0767 26.6214 57.3805 26.6214C56.7848 26.6214 56.2576 26.4906 55.7988 26.229C55.344 25.9634 54.9858 25.571 54.7242 25.0518C54.4667 24.5327 54.3379 23.8907 54.3379 23.1261V17.228H56.1429V22.9087C56.1429 23.5406 56.318 24.0437 56.6681 24.418C57.0183 24.7922 57.473 24.9794 58.0325 24.9794C58.3705 24.9794 58.7066 24.8949 59.0406 24.7258C59.3787 24.5568 59.6584 24.3012 59.8798 23.9591C60.1051 23.6171 60.2158 23.1824 60.2118 22.6552ZM64.4482 26.5007V17.228H66.2533V26.5007H64.4482ZM65.3598 15.7972C65.0459 15.7972 64.7762 15.6926 64.5508 15.4833C64.3295 15.27 64.2188 15.0164 64.2188 14.7226C64.2188 14.4248 64.3295 14.1713 64.5508 13.962C64.7762 13.7487 65.0459 13.642 65.3598 13.642C65.6737 13.642 65.9413 13.7487 66.1627 13.962C66.3881 14.1713 66.5008 14.4248 66.5008 14.7226C66.5008 15.0164 66.3881 15.27 66.1627 15.4833C65.9413 15.6926 65.6737 15.7972 65.3598 15.7972ZM70.4867 14.1371V26.5007H68.6816V14.1371H70.4867ZM77.2435 17.228V18.6768H72.1785V17.228H77.2435ZM73.5368 15.0064H75.3419V23.778C75.3419 24.1282 75.3942 24.3918 75.4988 24.5689C75.6035 24.7419 75.7383 24.8607 75.9033 24.9251C76.0723 24.9854 76.2554 25.0156 76.4526 25.0156C76.5975 25.0156 76.7243 25.0056 76.833 24.9854C76.9416 24.9653 77.0262 24.9492 77.0865 24.9371L77.4125 26.4283C77.3079 26.4685 77.159 26.5087 76.9658 26.549C76.7726 26.5933 76.5311 26.6174 76.2414 26.6214C75.7664 26.6295 75.3237 26.545 74.9132 26.3679C74.5027 26.1908 74.1707 25.9171 73.9171 25.5469C73.6636 25.1766 73.5368 24.7118 73.5368 24.1523V15.0064ZM85.7495 26.5007L83.0208 17.228H84.8862L86.7034 24.0376H86.7939L88.6171 17.228H90.4825L92.2936 24.0074H92.3841L94.1891 17.228H96.0546L93.3319 26.5007H91.4906L89.6071 19.8057H89.4683L87.5847 26.5007H85.7495ZM97.7675 26.5007V17.228H99.5726V26.5007H97.7675ZM98.6791 15.7972C98.3652 15.7972 98.0955 15.6926 97.8702 15.4833C97.6488 15.27 97.5381 15.0164 97.5381 14.7226C97.5381 14.4248 97.6488 14.1713 97.8702 13.962C98.0955 13.7487 98.3652 13.642 98.6791 13.642C98.993 13.642 99.2607 13.7487 99.482 13.962C99.7074 14.1713 99.8201 14.4248 99.8201 14.7226C99.8201 15.0164 99.7074 15.27 99.482 15.4833C99.2607 15.6926 98.993 15.7972 98.6791 15.7972ZM106.329 17.228V18.6768H101.264V17.228H106.329ZM102.623 15.0064H104.428V23.778C104.428 24.1282 104.48 24.3918 104.585 24.5689C104.689 24.7419 104.824 24.8607 104.989 24.9251C105.158 24.9854 105.341 25.0156 105.539 25.0156C105.683 25.0156 105.81 25.0056 105.919 24.9854C106.028 24.9653 106.112 24.9492 106.172 24.9371L106.498 26.4283C106.394 26.4685 106.245 26.5087 106.052 26.549C105.859 26.5933 105.617 26.6174 105.327 26.6214C104.852 26.6295 104.41 26.545 103.999 26.3679C103.589 26.1908 103.257 25.9171 103.003 25.5469C102.75 25.1766 102.623 24.7118 102.623 24.1523V15.0064ZM110.33 20.995V26.5007H108.525V14.1371H110.306V18.7372H110.421C110.638 18.2382 110.97 17.8417 111.417 17.5479C111.864 17.2541 112.447 17.1072 113.168 17.1072C113.804 17.1072 114.359 17.238 114.834 17.4996C115.313 17.7612 115.683 18.1516 115.945 18.6708C116.21 19.1859 116.343 19.8299 116.343 20.6026V26.5007H114.538V20.8199C114.538 20.1398 114.363 19.6126 114.013 19.2383C113.663 18.86 113.176 18.6708 112.552 18.6708C112.125 18.6708 111.743 18.7614 111.405 18.9425C111.071 19.1236 110.807 19.3892 110.614 19.7393C110.425 20.0855 110.33 20.504 110.33 20.995Z" fill="#E8E8E8"/>
<path d="M127.96 13.6371H130.906V22.1854C130.902 22.9863 130.711 23.6865 130.332 24.2862C129.954 24.8819 129.431 25.3447 128.763 25.6747C128.099 26.0047 127.33 26.1697 126.457 26.1697C125.684 26.1697 124.982 26.0349 124.35 25.7653C123.722 25.4956 123.221 25.077 122.847 24.5096C122.476 23.9421 122.293 23.2157 122.297 22.3302H125.273C125.285 22.6482 125.346 22.9199 125.454 23.1452C125.567 23.3666 125.722 23.5336 125.919 23.6463C126.117 23.759 126.352 23.8153 126.626 23.8153C126.911 23.8153 127.153 23.755 127.35 23.6342C127.547 23.5095 127.696 23.3263 127.797 23.0849C127.901 22.8434 127.956 22.5435 127.96 22.1854V13.6371ZM137.116 26.1758C136.146 26.1758 135.309 25.9846 134.605 25.6023C133.905 25.2159 133.365 24.6665 132.987 23.9542C132.613 23.2378 132.426 22.3866 132.426 21.4006C132.426 20.4427 132.615 19.6056 132.993 18.8892C133.371 18.1688 133.905 17.6094 134.593 17.2109C135.281 16.8085 136.092 16.6072 137.026 16.6072C137.686 16.6072 138.29 16.7099 138.837 16.9151C139.384 17.1204 139.857 17.4242 140.256 17.8267C140.654 18.2292 140.964 18.7262 141.185 19.3178C141.407 19.9054 141.517 20.5795 141.517 21.3402V22.0767H133.458V20.3622H138.77C138.766 20.0483 138.692 19.7686 138.547 19.5231C138.402 19.2776 138.203 19.0864 137.949 18.9496C137.7 18.8087 137.412 18.7383 137.086 18.7383C136.756 18.7383 136.46 18.8127 136.199 18.9616C135.937 19.1065 135.73 19.3057 135.577 19.5593C135.424 19.8088 135.343 20.0926 135.335 20.4105V22.1552C135.335 22.5335 135.41 22.8655 135.559 23.1513C135.708 23.433 135.919 23.6523 136.193 23.8093C136.466 23.9663 136.792 24.0447 137.171 24.0447C137.432 24.0447 137.67 24.0085 137.883 23.9361C138.096 23.8636 138.279 23.757 138.432 23.6161C138.585 23.4752 138.7 23.3022 138.776 23.0969L141.487 23.1754C141.374 23.7831 141.127 24.3124 140.745 24.7631C140.366 25.2099 139.869 25.558 139.253 25.8075C138.638 26.053 137.925 26.1758 137.116 26.1758ZM145.977 20.7123V26.0007H143.025V16.728H145.832V18.4304H145.935C146.14 17.8629 146.49 17.4182 146.985 17.0962C147.48 16.7702 148.07 16.6072 148.754 16.6072C149.406 16.6072 149.971 16.7541 150.45 17.0479C150.933 17.3377 151.308 17.7442 151.573 18.2674C151.843 18.7866 151.976 19.3943 151.972 20.0905V26.0007H149.02V20.6701C149.024 20.1549 148.893 19.7525 148.627 19.4627C148.366 19.1729 148.001 19.028 147.535 19.028C147.225 19.028 146.951 19.0965 146.714 19.2333C146.48 19.3661 146.299 19.5573 146.17 19.8068C146.045 20.0563 145.981 20.3582 145.977 20.7123ZM156.462 23.5678L156.474 20.0483H156.884L159.492 16.728H162.837L158.961 21.4851H158.182L156.462 23.5678ZM153.799 26.0007V13.6371H156.751V26.0007H153.799ZM159.559 26.0007L157.132 22.1491L159.076 20.0543L162.969 26.0007H159.559ZM163.893 26.0007V16.728H166.845V26.0007H163.893ZM165.372 15.6474C164.958 15.6474 164.601 15.5105 164.304 15.2369C164.006 14.9592 163.857 14.6251 163.857 14.2347C163.857 13.8484 164.006 13.5183 164.304 13.2447C164.601 12.967 164.958 12.8281 165.372 12.8281C165.791 12.8281 166.147 12.967 166.441 13.2447C166.739 13.5183 166.887 13.8484 166.887 14.2347C166.887 14.6251 166.739 14.9592 166.441 15.2369C166.147 15.5105 165.791 15.6474 165.372 15.6474ZM171.676 20.7123V26.0007H168.724V16.728H171.531V18.4304H171.634C171.839 17.8629 172.189 17.4182 172.684 17.0962C173.179 16.7702 173.769 16.6072 174.453 16.6072C175.105 16.6072 175.671 16.7541 176.15 17.0479C176.633 17.3377 177.007 17.7442 177.272 18.2674C177.542 18.7866 177.675 19.3943 177.671 20.0905V26.0007H174.719V20.6701C174.723 20.1549 174.592 19.7525 174.326 19.4627C174.065 19.1729 173.701 19.028 173.234 19.028C172.924 19.028 172.65 19.0965 172.413 19.2333C172.179 19.3661 171.998 19.5573 171.869 19.8068C171.745 20.0563 171.68 20.3582 171.676 20.7123ZM187.594 19.5593L184.884 19.6317C184.855 19.4386 184.779 19.2675 184.654 19.1186C184.529 18.9657 184.366 18.8469 184.165 18.7624C183.968 18.6739 183.739 18.6296 183.477 18.6296C183.135 18.6296 182.843 18.698 182.602 18.8349C182.364 18.9717 182.247 19.1568 182.251 19.3903C182.247 19.5714 182.32 19.7283 182.469 19.8611C182.622 19.994 182.893 20.1006 183.284 20.1811L185.071 20.5192C185.996 20.6962 186.685 20.99 187.135 21.4006C187.59 21.8111 187.82 22.3544 187.824 23.0305C187.82 23.6664 187.63 24.2198 187.256 24.6907C186.886 25.1616 186.379 25.5278 185.735 25.7894C185.091 26.047 184.354 26.1758 183.525 26.1758C182.201 26.1758 181.157 25.9041 180.392 25.3608C179.631 24.8134 179.197 24.081 179.088 23.1633L182.004 23.0909C182.068 23.429 182.235 23.6865 182.505 23.8636C182.775 24.0407 183.119 24.1292 183.537 24.1292C183.916 24.1292 184.224 24.0588 184.461 23.918C184.698 23.7771 184.819 23.5899 184.823 23.3565C184.819 23.1472 184.727 22.9802 184.545 22.8555C184.364 22.7267 184.081 22.6261 183.694 22.5536L182.076 22.2457C181.147 22.0767 180.454 21.7648 180 21.31C179.545 20.8512 179.32 20.2676 179.324 19.5593C179.32 18.9395 179.485 18.4103 179.819 17.9716C180.153 17.5289 180.628 17.1908 181.243 16.9574C181.859 16.7239 182.585 16.6072 183.423 16.6072C184.678 16.6072 185.668 16.8708 186.393 17.3981C187.117 17.9213 187.518 18.6417 187.594 19.5593Z" fill="#D24939"/>
</g>
<defs>
<filter id="filter0_d_1_56" x="2.39972" y="0.39972" width="39.202" height="39.202" filterUnits="userSpaceOnUse" color-interpolation-filters="sRGB">
<feFlood flood-opacity="0" result="BackgroundImageFix"/>
<feColorMatrix in="SourceAlpha" type="matrix" values="0 0 0 0 0 0 0 0 0 0 0 0 0 0 0 0 0 0 127 0" result="hardAlpha"/>
<feOffset/>
<feGaussianBlur stdDeviation="2.80014"/>
<feComposite in2="hardAlpha" operator="out"/>
<feColorMatrix type="matrix" values="0 0 0 0 0 0 0 0 0 0 0 0 0 0 0 0 0 0 0.25 0"/>
<feBlend mode="normal" in2="BackgroundImageFix" result="effect1_dropShadow_1_56"/>
<feBlend mode="normal" in="SourceGraphic" in2="effect1_dropShadow_1_56" result="shape"/>
</filter>
<filter id="filter1_d_1_56" x="36.2871" y="3.78642" width="158.429" height="32.4286" filterUnits="userSpaceOnUse" color-interpolation-filters="sRGB">
<feFlood flood-opacity="0" result="BackgroundImageFix"/>
<feColorMatrix in="SourceAlpha" type="matrix" values="0 0 0 0 0 0 0 0 0 0 0 0 0 0 0 0 0 0 127 0" result="hardAlpha"/>
<feOffset/>
<feGaussianBlur stdDeviation="2.85714"/>
<feComposite in2="hardAlpha" operator="out"/>
<feColorMatrix type="matrix" values="0 0 0 0 0 0 0 0 0 0 0 0 0 0 0 0 0 0 0.25 0"/>
<feBlend mode="normal" in2="BackgroundImageFix" result="effect1_dropShadow_1_56"/>
<feBlend mode="normal" in="SourceGraphic" in2="effect1_dropShadow_1_56" result="shape"/>
</filter>
<linearGradient id="paint0_linear_1_56" x1="98.5007" y1="0" x2="98.5007" y2="40.0014" gradientUnits="userSpaceOnUse">
<stop stop-color="#78251B"/>
<stop offset="1" stop-color="#41140F"/>
</linearGradient>
</defs>
</svg>
