<svg width="40" height="40" viewBox="0 0 40 40" fill="none" xmlns="http://www.w3.org/2000/svg">
<rect width="40" height="40" rx="8" fill="url(#paint0_linear_1_68)"/>
<rect x="1.05" y="1.05" width="37.9" height="37.9" rx="6.95" stroke="white" stroke-opacity="0.15" stroke-width="2.1"/>
<g filter="url(#filter0_d_1_68)">
<path fill-rule="evenodd" clip-rule="evenodd" d="M29.8831 19.4925C29.8831 25.04 25.4864 29.5371 20.0628 29.5371C14.6393 29.5371 10.2426 25.04 10.2426 19.4925C10.2426 13.9449 14.6393 9.44767 20.0628 9.44767C25.4864 9.44767 29.8831 13.9449 29.8831 19.4925Z" fill="#D33833"/>
<path d="M10.6428 21.9802C10.6428 21.9802 9.93189 11.5053 19.5838 11.206L18.9105 10.0837L13.6731 11.842L12.1766 13.5629L10.8673 16.0694L10.119 18.9875L10.3435 20.9328" fill="#EF3D3A"/>
<path d="M13.3368 12.6402C11.6138 14.4031 10.5476 16.8372 10.5476 19.53C10.5476 22.2222 11.6138 24.6566 13.3368 26.4192C15.0606 28.1818 17.4363 29.2694 20.0627 29.2694C22.6891 29.2694 25.065 28.1818 26.7886 26.4192C28.5115 24.6566 29.5779 22.2222 29.5779 19.53C29.5779 16.8372 28.5115 14.4031 26.7886 12.6402C25.065 10.878 22.6891 9.79032 20.0627 9.79009C17.4363 9.79032 15.0606 10.878 13.3368 12.6402ZM12.9007 26.8456C11.0695 24.9729 9.9375 22.3848 9.9375 19.53C9.9375 16.6747 11.0695 14.0869 12.9007 12.2141C14.7314 10.3409 17.2655 9.17989 20.0627 9.18023C22.8598 9.17989 25.3942 10.3409 27.2246 12.2141C29.0559 14.0869 30.1881 16.6749 30.1879 19.53C30.1881 22.3848 29.0559 24.9729 27.2246 26.8456C25.3942 28.7186 22.8598 29.8795 20.0627 29.8795C17.2655 29.8795 14.7314 28.7186 12.9007 26.8456Z" fill="#231F20"/>
<path fill-rule="evenodd" clip-rule="evenodd" d="M24.1966 19.5482L22.7001 19.7726L20.6799 19.9971L19.3705 20.0345L18.0986 19.9971L17.1259 19.6978L16.2654 18.7625L15.592 16.8546L15.4424 16.4431L14.5446 16.1439L14.0208 15.2834L13.6467 14.0488L14.0583 12.9639L15.0309 12.6272L15.8165 13.0014L16.1907 13.8244L16.6396 13.7495L16.7892 13.5625L16.6396 12.702L16.6021 11.6171L16.8266 10.1207L16.8178 9.26597L17.5 8.17541L18.6971 7.31493L20.7922 6.41708L23.1116 6.75378L25.1317 8.21279L26.0671 9.70917L26.6656 10.7941L26.8152 13.4877L26.3663 15.8072L25.5433 17.8647L24.7577 18.9496" fill="#F0D6B7"/>
<path fill-rule="evenodd" clip-rule="evenodd" d="M22.9246 26.0201L17.5748 26.2446V27.1424L18.0237 30.2849L17.7993 30.5469L14.0583 29.2748L13.7963 28.8259L13.4222 24.5986L12.5619 22.0546L12.3748 21.4561L15.3676 19.3986L16.3029 19.0244L17.1259 20.0345L17.8367 20.6705L18.6598 20.9323L19.0338 21.0446L19.4827 22.9899L19.8194 23.4014L20.6799 23.1021L20.0813 24.2619L23.336 25.7957L22.9246 26.0201Z" fill="#335061"/>
<path fill-rule="evenodd" clip-rule="evenodd" d="M14.0583 12.9639L15.0309 12.6272L15.8165 13.0014L16.1907 13.8244L16.6396 13.7495L16.7518 13.3006L16.5274 12.4402L16.7518 10.3826L16.5647 9.26025L17.2381 8.47463L18.6971 7.31494L18.2856 6.75378L16.228 7.76386L15.3676 8.43725L14.8813 9.48471L14.133 10.4948L13.9086 11.692L14.0583 12.9639Z" fill="#6D6B6D"/>
<path fill-rule="evenodd" clip-rule="evenodd" d="M15.592 9.44733C15.592 9.44733 16.1532 8.06318 18.3978 7.3898C20.6425 6.71641 18.5101 6.90338 18.5101 6.90338L16.0784 7.83872L15.1431 8.77395L14.7317 9.52219L15.592 9.44733Z" fill="#DCD9D8"/>
<path fill-rule="evenodd" clip-rule="evenodd" d="M14.4697 12.7021C14.4697 12.7021 13.6841 10.0832 16.677 9.70918L16.5647 9.26025L14.5072 9.74666L13.9086 11.692L14.0583 12.9639L14.4697 12.7021Z" fill="#DCD9D8"/>
<path fill-rule="evenodd" clip-rule="evenodd" d="M15.6669 16.1812L16.1567 15.7066C16.1567 15.7066 16.3778 15.7323 16.4151 15.9941C16.4525 16.2561 16.5647 18.613 18.1734 19.885C18.3201 20.001 16.9763 19.6978 16.9763 19.6978L15.7791 17.8273" fill="#F7E4CD"/>
<path fill-rule="evenodd" clip-rule="evenodd" d="M22.5506 15.4705C22.5506 15.4705 22.6378 14.3365 22.9432 14.4237C23.2486 14.5109 23.2486 14.8163 23.2486 14.8163C23.2486 14.8163 22.507 15.2961 22.5506 15.4705Z" fill="#F7E4CD"/>
<path d="M25.6555 11.3179C25.6555 11.3179 25.0389 11.4481 24.9821 11.9913C24.9253 12.5346 25.6555 12.1035 25.7678 12.0661" fill="#F7E4CD"/>
<path d="M21.1289 11.3554C21.1289 11.3554 20.3058 11.4676 20.3058 11.9913C20.3058 12.5151 21.2411 12.4777 21.503 12.2532" fill="#F7E4CD"/>
<path fill-rule="evenodd" clip-rule="evenodd" d="M16.041 13.787C16.041 13.787 14.6193 12.9265 14.4697 13.7496C14.3201 14.5726 13.9833 15.1713 14.6942 16.0316L14.2079 15.882L13.7589 14.7223L13.6094 13.6L14.4697 12.7021L15.4424 12.7769L16.0036 13.2258L16.041 13.787Z" fill="#F7E4CD"/>
<path fill-rule="evenodd" clip-rule="evenodd" d="M16.7144 11.4301C16.7144 11.4301 17.3503 8.13804 20.5677 7.50203C23.2165 6.97847 24.608 7.61426 25.1317 8.21279C25.1317 8.21279 22.7749 5.40711 20.5302 6.26748C18.2856 7.12796 16.6396 8.6992 16.677 9.70917C16.7407 11.4295 16.7144 11.4301 16.7144 11.4301Z" fill="#F7E4CD"/>
<path fill-rule="evenodd" clip-rule="evenodd" d="M25.3937 8.58686C25.3937 8.58686 24.3089 8.54948 24.2714 9.52219C24.2714 9.52219 24.2713 9.6718 24.3461 9.8214C24.3461 9.8214 25.2067 8.84869 25.7304 9.37248" fill="#F7E4CD"/>
<path fill-rule="evenodd" clip-rule="evenodd" d="M20.6431 9.92275C20.6431 9.92275 20.4564 8.42973 19.1834 9.29773C18.3604 9.85889 18.4353 10.6445 18.5849 10.7941C18.7345 10.9438 18.6938 11.2452 18.8077 11.0383C18.9216 10.8315 18.8841 10.1581 19.2957 9.97112C19.7072 9.78403 20.3818 9.57506 20.6431 9.92275Z" fill="#F7E4CD"/>
<path fill-rule="evenodd" clip-rule="evenodd" d="M17.1259 20.0345L13.6094 21.6057C13.6094 21.6057 15.0684 27.4044 14.3201 29.2001L13.7963 29.0131L13.7589 26.8058L12.7864 22.6159L12.3748 21.4561L16.041 18.9871L17.1259 20.0345Z" fill="#49728B"/>
<path fill-rule="evenodd" clip-rule="evenodd" d="M17.4875 23.2417L17.9864 23.8505V26.0951H17.3877C17.3877 26.0951 17.313 24.5238 17.313 24.3367C17.313 24.1497 17.3877 23.4763 17.3877 23.4763" fill="#49728B"/>
<path fill-rule="evenodd" clip-rule="evenodd" d="M17.5 26.4318L15.8165 26.5065L16.3029 26.8432L17.5 27.0303" fill="#49728B"/>
<path fill-rule="evenodd" clip-rule="evenodd" d="M23.2613 26.0576L24.6454 26.0202L24.9821 29.462L23.5605 29.649L23.2613 26.0576Z" fill="#335061"/>
<path fill-rule="evenodd" clip-rule="evenodd" d="M23.6354 26.0576L25.7304 25.9454C25.7304 25.9454 26.5907 23.7756 26.5907 23.6633C26.5907 23.5511 27.339 20.5209 27.339 20.5209L25.6555 18.7627L25.3188 18.4633L24.421 19.3612V22.8404L23.6354 26.0576Z" fill="#335061"/>
<path fill-rule="evenodd" clip-rule="evenodd" d="M24.5706 25.7957L23.2613 26.0576L23.4483 27.1052C23.9346 27.3296 24.7577 26.731 24.7577 26.731" fill="#49728B"/>
<path fill-rule="evenodd" clip-rule="evenodd" d="M24.6081 19.249L27.2268 21.1943L27.3016 20.2964L25.3188 18.4633L24.6081 19.249Z" fill="#49728B"/>
<path fill-rule="evenodd" clip-rule="evenodd" d="M18.7983 33.4278L18.0237 30.2849L17.6385 27.9659L17.5748 26.2446L21.0803 26.058L23.2613 26.0576L23.063 29.9861L23.3997 33.0163L23.3623 33.5775L20.5192 33.8019L18.7983 33.4278Z" fill="white"/>
<path fill-rule="evenodd" clip-rule="evenodd" d="M22.7749 26.0202C22.7749 26.0202 22.5879 29.911 23.1491 32.6793C23.1491 32.6793 22.0267 33.3901 20.3806 33.5771L23.5231 33.4649L23.8972 33.2404L23.4483 27.1052L23.336 25.7957" fill="#DCD9D8"/>
<path fill-rule="evenodd" clip-rule="evenodd" d="M25.0459 29.163L26.5049 28.7515L29.2732 28.6019L29.6847 27.33L28.9365 25.1227L28.0761 25.0105L26.879 25.3846L25.7304 25.9454L25.1206 25.8335L24.6454 26.0202" fill="white"/>
<path fill-rule="evenodd" clip-rule="evenodd" d="M25.0195 28.4145C25.0195 28.4145 25.9921 27.9656 26.1418 28.003L25.7304 25.9454L26.2167 25.7584C26.2167 25.7584 26.5534 27.7037 26.5534 27.9281C26.5534 27.9281 28.6483 28.0404 28.8354 28.0404C28.8354 28.0404 29.2843 27.1799 29.1721 26.2821L29.5836 27.4792L29.621 28.1526L29.0225 29.0505L28.3491 29.2001L27.2268 29.1627L26.8527 28.6764L25.5433 28.8634L25.1317 29.0131" fill="#DCD9D8"/>
<path d="M23.5494 25.7587L22.7264 23.6637L21.8659 22.4292C21.8659 22.4292 22.0529 21.9054 22.3148 21.9054C22.5768 21.9054 23.1753 21.9054 23.1753 21.9054L23.9983 22.2047L23.9236 23.5889L23.5494 25.7587Z" fill="white"/>
<path fill-rule="evenodd" clip-rule="evenodd" d="M23.7102 25.0475C23.7102 25.0475 22.6626 23.0274 22.6626 22.7281C22.6626 22.7281 22.8496 22.2792 23.1116 22.3914C23.3735 22.5037 23.9347 22.8029 23.9347 22.8029V22.0921L22.6626 21.8302L21.8023 21.9424L23.2613 25.3842L23.5605 25.4217" fill="#DCD9D8"/>
<path d="M19.135 20.1098L18.0986 19.9971L17.1259 19.6978V20.0345L17.6012 20.5586L19.0976 21.232" fill="white"/>
<path fill-rule="evenodd" clip-rule="evenodd" d="M17.4627 20.2219C17.4627 20.2219 18.6225 20.7083 18.9966 20.5961L19.0338 21.0446L17.9865 20.8205L17.3505 20.3716L17.4627 20.2219Z" fill="#DCD9D8"/>
<path fill-rule="evenodd" clip-rule="evenodd" d="M25.0418 22.0328C24.4071 22.0141 23.8336 21.9387 23.3314 21.7971C23.3656 21.5912 23.3017 21.3892 23.353 21.241C23.4929 21.1402 23.7275 21.1417 23.9391 21.1181C23.7561 21.0282 23.4991 20.9926 23.288 21.0446C23.2831 20.9017 23.219 20.8131 23.1801 20.7014C23.537 20.574 24.3796 19.7389 24.8535 20.0154C25.0793 20.1469 25.1753 20.8982 25.1928 21.2635C25.2074 21.5665 25.1653 21.8723 25.0418 22.0328Z" fill="#D33833"/>
<path d="M25.0418 22.0328C24.4071 22.0141 23.8336 21.9387 23.3314 21.7971C23.3656 21.5912 23.3017 21.3892 23.353 21.241C23.4929 21.1402 23.7275 21.1417 23.9391 21.1181C23.7561 21.0282 23.4991 20.9926 23.288 21.0446C23.2831 20.9017 23.219 20.8131 23.1801 20.7014C23.537 20.574 24.3796 19.7389 24.8535 20.0154C25.0793 20.1469 25.1753 20.8982 25.1928 21.2635C25.2074 21.5665 25.1653 21.8723 25.0418 22.0328Z" stroke="#D33833" stroke-width="2.5"/>
<path fill-rule="evenodd" clip-rule="evenodd" d="M22.0063 20.9951C22.0046 21.0431 22.0026 21.0915 22.0007 21.14C21.8025 21.2701 21.4825 21.2686 21.265 21.378C21.5857 21.392 21.8381 21.4692 22.0565 21.5781C22.0517 21.6991 22.0471 21.82 22.0423 21.9409C21.679 22.1897 21.3472 22.56 20.9194 22.7932C20.7172 22.9035 20.0074 23.1874 19.7923 23.1372C19.6705 23.1089 19.6596 22.9579 19.6109 22.8155C19.5072 22.5105 19.2685 22.0251 19.2477 21.5661C19.2212 20.9863 19.1626 20.0146 19.7874 20.134C20.2915 20.2302 20.8778 20.4624 21.2681 20.6756C21.5065 20.8061 21.6445 20.9672 22.0063 20.9951Z" fill="#D33833"/>
<path d="M22.0063 20.9951C22.0046 21.0431 22.0026 21.0915 22.0007 21.14C21.8025 21.2701 21.4825 21.2686 21.265 21.378C21.5857 21.392 21.8381 21.4692 22.0565 21.5781C22.0517 21.6991 22.0471 21.82 22.0423 21.9409C21.679 22.1897 21.3472 22.56 20.9194 22.7932C20.7172 22.9035 20.0074 23.1874 19.7923 23.1372C19.6705 23.1089 19.6596 22.9579 19.6109 22.8155C19.5072 22.5105 19.2685 22.0251 19.2477 21.5661C19.2212 20.9863 19.1626 20.0146 19.7874 20.134C20.2915 20.2302 20.8778 20.4624 21.2681 20.6756C21.5065 20.8061 21.6445 20.9672 22.0063 20.9951Z" stroke="#D33833" stroke-width="2.5"/>
<path fill-rule="evenodd" clip-rule="evenodd" d="M22.3671 21.6869C22.3117 21.371 22.2476 21.2809 22.2724 21.0054C23.1147 20.4438 23.2728 21.97 22.3671 21.6869Z" fill="#D33833"/>
<path d="M22.3671 21.6869C22.3117 21.371 22.2476 21.2809 22.2724 21.0054C23.1147 20.4438 23.2728 21.97 22.3671 21.6869Z" stroke="#D33833" stroke-width="2.5"/>
<path fill-rule="evenodd" clip-rule="evenodd" d="M23.5868 21.9429C23.5868 21.9429 23.3248 21.5687 23.5119 21.4564C23.699 21.3442 23.8861 21.4566 23.9983 21.2695C24.1105 21.0824 23.9983 20.9701 24.0357 20.7457C24.0731 20.5212 24.2603 20.4837 24.4472 20.4464C24.6342 20.409 25.1581 20.3341 25.2329 20.5212L25.0084 19.8478L24.5595 19.6982L23.1378 20.5212L23.063 20.9328V21.7558" fill="#EF3D3A"/>
<path fill-rule="evenodd" clip-rule="evenodd" d="M19.6587 23.1774C19.6137 22.5936 19.5662 22.0105 19.5133 21.4273C19.4341 20.5563 19.7225 20.7083 20.4774 20.7083C20.5927 20.7083 21.1874 20.8458 21.2299 20.9328C21.4339 21.3495 20.8887 21.2569 21.4649 21.5711C21.9513 21.8363 22.8106 21.4101 22.614 20.8205C22.5041 20.6895 22.041 20.7797 21.875 20.6936C21.5828 20.5421 21.2905 20.3906 20.9982 20.2391C20.6264 20.0461 19.767 19.7649 19.3705 20.0345C18.366 20.7176 19.4339 22.4246 19.7923 23.1372" fill="#EF3D3A"/>
<path fill-rule="evenodd" clip-rule="evenodd" d="M20.6431 9.92275C19.6235 9.68527 19.1168 10.3495 18.8077 11.0383C18.5318 10.9714 18.6416 10.5961 18.7113 10.4049C18.8938 9.903 19.6293 9.23488 20.2303 9.32545C20.4889 9.3644 20.8389 9.60087 20.6431 9.92275Z" fill="#231F20"/>
<path fill-rule="evenodd" clip-rule="evenodd" d="M25.6112 11.0839C25.6272 11.0846 25.6435 11.0851 25.6596 11.0858C25.89 11.5645 26.0894 12.0715 26.3801 12.4941C26.1854 12.9476 24.9056 13.349 24.9253 12.5346C25.2021 12.4136 25.6799 12.5099 25.9252 12.3554C25.7834 11.966 25.5786 11.6346 25.6112 11.0839Z" fill="#231F20"/>
<path fill-rule="evenodd" clip-rule="evenodd" d="M21.1651 11.0964C21.3838 11.4971 21.4549 11.9182 21.7657 12.2211C21.9056 12.3575 22.1778 12.5237 22.0429 12.9029C22.0114 12.9924 21.781 13.1918 21.648 13.231C21.1621 13.3744 20.03 13.2606 20.4134 12.6549C20.8152 12.6737 21.3553 12.9159 21.6556 12.6242C21.425 12.2555 21.0138 11.5261 21.1651 11.0964Z" fill="#231F20"/>
<path fill-rule="evenodd" clip-rule="evenodd" d="M25.4288 15.1697C24.6973 15.6396 23.8816 16.1506 22.683 16.0321C22.4268 15.8094 22.3292 15.3139 22.578 14.9866C22.7075 15.2093 22.6262 15.6188 22.9871 15.6805C23.6672 15.7968 24.4588 15.2644 24.948 15.0783C25.2514 14.5669 24.9219 14.3788 24.6486 14.0496C24.0891 13.3752 23.3386 12.5393 23.3659 11.5297C23.592 11.3657 23.6116 11.78 23.644 11.8554C23.9361 12.5391 24.6714 13.4135 25.2079 13.9987C25.3397 14.1428 25.5566 14.281 25.5808 14.3763C25.6504 14.6534 25.3997 14.9854 25.4288 15.1697Z" fill="#231F20"/>
<path fill-rule="evenodd" clip-rule="evenodd" d="M15.7849 14.675C15.5557 14.5441 15.5011 13.9677 15.2319 13.9513C14.8472 13.928 14.9173 14.6991 14.9189 15.15C14.6541 14.9096 14.6075 14.1695 14.802 13.7894C14.5803 13.6805 14.4813 13.9094 14.3584 13.9901C14.5164 12.842 16.0379 13.4576 15.7849 14.675Z" fill="#231F20"/>
<path fill-rule="evenodd" clip-rule="evenodd" d="M25.8946 15.6478C25.5541 16.2959 25.0724 17.0097 24.0732 17.0305C24.0529 16.8212 24.0373 16.5027 24.0743 16.3766C24.8381 16.3032 25.3097 15.9145 25.8946 15.6478Z" fill="#231F20"/>
<path fill-rule="evenodd" clip-rule="evenodd" d="M21.1075 16.068C21.7448 16.4031 22.9161 16.4391 23.7823 16.4138C23.8287 16.6036 23.8276 16.838 23.8294 17.0694C22.716 17.125 21.3995 16.8495 21.1075 16.068Z" fill="#231F20"/>
<path fill-rule="evenodd" clip-rule="evenodd" d="M20.9864 16.6929C21.4271 17.7994 22.9418 17.672 24.2191 17.6415C24.1628 17.7851 24.041 17.9548 23.8894 18.0162C23.4801 18.1828 22.3512 18.3091 21.783 18.0074C21.4226 17.8158 21.1911 17.3829 20.9936 17.1291C20.8983 17.0066 20.4235 16.6936 20.9864 16.6929Z" fill="#231F20"/>
<path fill-rule="evenodd" clip-rule="evenodd" d="M25.3756 22.7964C24.8585 23.6821 24.3636 24.5918 23.7501 25.3731C24.0073 24.6168 24.1174 23.3509 24.1562 22.3858C24.6944 22.134 25.1552 22.4425 25.3756 22.7964Z" fill="#81B0C4"/>
<path fill-rule="evenodd" clip-rule="evenodd" d="M28.1585 25.9798C27.5795 26.0957 27.1727 26.6585 26.6078 26.6224C26.9182 26.1847 27.4622 26.0003 28.1585 25.9798Z" fill="#231F20"/>
<path fill-rule="evenodd" clip-rule="evenodd" d="M28.4139 26.886C27.942 26.9358 27.3877 27.0122 26.909 26.9729C27.1356 26.6267 28.0087 26.7462 28.4139 26.886Z" fill="#231F20"/>
<path fill-rule="evenodd" clip-rule="evenodd" d="M28.5775 27.6672C28.0471 27.6787 27.3878 27.6681 26.8837 27.6258C27.1819 27.3055 28.2335 27.507 28.5775 27.6672Z" fill="#231F20"/>
<path fill-rule="evenodd" clip-rule="evenodd" d="M24.3777 29.8051C24.4537 30.4712 24.7178 31.1462 24.6847 31.8757C24.3915 31.9746 24.223 32.0611 23.8301 32.0605C23.8024 31.4405 23.7194 30.4928 23.7442 29.9018C23.9375 29.9145 24.2224 29.7637 24.3777 29.8051Z" fill="#DCD9D8"/>
<path fill-rule="evenodd" clip-rule="evenodd" d="M23.5226 19.988C23.2562 20.1619 23.0294 20.3789 22.7736 20.5645C22.2064 20.5926 21.8969 20.5253 21.4802 20.1996C21.487 20.1734 21.5289 20.1851 21.5305 20.153C22.1376 20.4236 22.9094 20.0428 23.5226 19.988Z" fill="#F0D6B7"/>
<path fill-rule="evenodd" clip-rule="evenodd" d="M20.3351 24.1269C20.502 23.404 21.1556 23.0296 21.7492 22.6315C22.3619 23.4091 22.7345 24.409 23.1448 25.374C22.1753 25.0818 21.1848 24.6076 20.3351 24.1269Z" fill="#81B0C4"/>
<path fill-rule="evenodd" clip-rule="evenodd" d="M23.7442 29.9018C23.7194 30.4928 23.8024 31.4405 23.8301 32.0605C24.223 32.0611 24.3915 31.9746 24.6847 31.8757C24.7178 31.1462 24.4537 30.4712 24.3777 29.8051C24.2224 29.7637 23.9375 29.9145 23.7442 29.9018ZM17.626 26.5406C17.8851 28.9224 18.2604 30.9247 18.9487 33.0339C20.4763 33.4978 22.3179 33.5382 23.6681 33.1196C23.4202 31.9292 23.5285 30.4799 23.3836 29.2095C23.2744 28.2547 23.3301 27.2939 23.1804 26.3198C21.5443 25.9794 19.2317 26.2402 17.626 26.5406ZM23.5672 26.3347C23.5534 27.3577 23.613 28.3668 23.6911 29.391C24.0839 29.332 24.3505 29.2927 24.7155 29.2127C24.597 28.2266 24.6115 27.1171 24.3701 26.2448C24.0911 26.2475 23.8455 26.2416 23.5672 26.3347ZM25.5599 26.1698C25.3735 26.1271 25.1564 26.1682 24.9783 26.1716C25.062 27.0055 25.2652 27.9257 25.3367 28.801C25.6169 28.8097 25.7666 28.6776 25.9972 28.6331C26.0095 27.8647 25.93 26.8062 25.5599 26.1698ZM28.5771 28.9266C29.1613 28.7847 29.5286 28.0692 29.3652 27.3345C29.2556 26.8406 29.0603 25.9108 28.8513 25.5949C28.6969 25.3612 28.2781 25.0553 27.9438 25.2694C27.3999 25.6177 26.4418 25.7188 26.0452 26.1403C26.2441 26.8025 26.3058 27.712 26.3878 28.551C27.0673 28.5934 27.9033 28.364 28.4684 28.6074C28.0739 28.7352 27.562 28.7362 27.2212 28.9224C27.4997 29.057 28.1519 29.0298 28.5771 28.9266ZM23.1448 25.374C22.7345 24.409 22.3619 23.4091 21.7492 22.6315C21.1556 23.0296 20.502 23.404 20.3351 24.1269C21.1848 24.6076 22.1753 25.0818 23.1448 25.374ZM24.1562 22.3858C24.1174 23.3509 24.0073 24.6168 23.7501 25.3731C24.3636 24.5918 24.8585 23.6821 25.3756 22.7964C25.1552 22.4425 24.6944 22.134 24.1562 22.3858ZM23.0097 21.9784C22.7772 21.9534 22.5799 22.2457 22.2777 22.1193C22.2084 22.1958 22.1455 22.2788 22.0749 22.3535C22.7424 23.158 23.0458 24.2994 23.5614 25.2448C23.838 24.3366 23.8062 23.3417 23.8671 22.3505C23.487 22.3746 23.2761 22.0067 23.0097 21.9784ZM22.2724 21.0054C22.2476 21.2809 22.3117 21.371 22.3671 21.6869C23.2728 21.97 23.1147 20.4438 22.2724 21.0054ZM21.2681 20.6756C20.8778 20.4624 20.2915 20.2302 19.7874 20.134C19.1626 20.0145 19.2212 20.9863 19.2477 21.5661C19.2685 22.0251 19.5072 22.5105 19.6109 22.8155C19.6596 22.9579 19.6705 23.1089 19.7923 23.1372C20.0074 23.1874 20.7172 22.9035 20.9194 22.7932C21.3472 22.56 21.679 22.1897 22.0423 21.9409C22.0471 21.82 22.0517 21.6991 22.0565 21.5781C21.8381 21.4692 21.5857 21.392 21.265 21.378C21.4825 21.2686 21.8025 21.2701 22.0007 21.1399C22.0026 21.0915 22.0046 21.0431 22.0063 20.9951C21.6445 20.9672 21.5065 20.8061 21.2681 20.6756ZM17.5404 19.9986C17.2165 20.3274 18.4489 20.7756 18.8413 20.7998C18.8391 20.5917 18.9599 20.3955 18.9355 20.2462C18.4695 20.1644 17.8571 20.2184 17.5404 19.9986ZM21.5305 20.153C21.5289 20.1851 21.487 20.1734 21.4802 20.1996C21.8969 20.5253 22.2064 20.5926 22.7736 20.5645C23.0294 20.3789 23.2562 20.1619 23.5226 19.988C22.9094 20.0428 22.1376 20.4236 21.5305 20.153ZM25.1928 21.2635C25.1753 20.8982 25.0793 20.1469 24.8535 20.0154C24.3796 19.7387 23.537 20.574 23.1801 20.7013C23.219 20.8131 23.2831 20.9017 23.288 21.0446C23.4991 20.9926 23.7561 21.0282 23.9391 21.1181C23.7275 21.1417 23.4929 21.1402 23.353 21.241C23.3017 21.3892 23.3656 21.5912 23.3314 21.7971C23.8336 21.9387 24.4071 22.0141 25.0418 22.0328C25.1653 21.8723 25.2074 21.5665 25.1928 21.2635ZM16.9952 20.3166C16.8934 20.2441 16.2054 19.3488 16.1111 19.386C14.866 19.877 13.7019 20.726 12.6615 21.5291C13.6534 23.6574 14.0538 26.265 14.1246 28.7783C15.2608 29.3097 16.2588 30.0758 17.8007 30.1558C17.6223 28.8935 17.4594 27.7672 17.3581 26.5787C16.9707 26.4154 16.4149 26.5861 16.0524 26.528C16.0493 26.0911 16.6061 26.3367 16.6524 26.0429C16.6874 25.8207 16.3461 25.8039 16.4572 25.4539C16.7407 25.5569 16.8895 25.7845 17.1918 25.87C17.468 25.2657 17.1879 24.1966 17.2277 23.6915C17.2353 23.5967 17.2751 23.1662 17.4875 23.2417C17.6755 23.3086 17.4767 24.3867 17.4973 24.8647C17.5161 25.3051 17.4442 25.7312 17.6225 26.0077C19.1124 25.8049 20.6265 25.6738 22.2385 25.6295C21.8839 25.4774 21.4626 25.3334 21.0006 25.073C20.7502 24.9318 19.9609 24.6381 19.8886 24.4003C19.7733 24.0213 20.1911 23.8194 20.2626 23.4945C19.5105 23.9046 19.3638 23.1013 19.1859 22.5322C19.0247 22.0167 18.9329 21.6316 18.8933 21.3343C18.2455 21.0255 17.5528 20.7127 16.9952 20.3166ZM24.5348 19.4943C25.5721 18.9913 25.7591 21.3743 25.3525 22.142C25.4153 22.3709 25.6315 22.4586 25.7197 22.6644C25.1408 23.7014 24.4979 24.6694 23.9072 25.6942C24.3466 25.4207 24.9742 25.6453 25.4912 25.4405C25.6802 25.3658 25.817 24.9331 25.9601 24.587C26.3537 23.6348 26.767 22.4342 26.9508 21.5255C26.9923 21.3184 27.1054 20.8672 27.0801 20.6829C27.0348 20.353 26.5872 20.1083 26.3594 19.9043C25.9399 19.5274 25.6757 19.1958 25.2381 18.8434C25.0607 19.1053 24.6799 19.2813 24.5348 19.4943ZM14.6227 10.2949C14.1284 10.8388 14.2319 11.8578 14.2917 12.5829C15.1852 12.0208 16.3711 12.6273 16.3599 13.5833C16.7865 13.572 16.5193 13.0505 16.4421 12.7146C16.1899 11.6174 16.8669 10.4254 16.4728 9.42208C15.7076 9.48011 15.0789 9.79267 14.6227 10.2949ZM18.1596 7.13828C17.0405 7.45545 15.6064 8.26857 15.1465 9.27382C15.5026 9.22208 15.7498 9.04251 16.101 9.02029C16.2338 9.01165 16.4077 9.07596 16.5603 9.03803C16.8643 8.96261 17.1209 8.28091 17.3503 8.02727C17.5738 7.77957 17.8426 7.67374 18.0265 7.44793C18.1447 7.39092 18.3194 7.39484 18.3261 7.21741C18.2749 7.16264 18.2209 7.12089 18.1596 7.13828ZM23.9847 7.43659C22.8232 6.78127 20.8573 6.28835 19.6218 6.90428C18.6248 7.40135 17.2773 8.22378 16.8178 9.26597C17.247 10.2717 16.6907 11.1932 16.6552 12.2143C16.6363 12.7576 16.911 13.2319 16.932 13.8234C16.7852 14.0657 16.3364 14.0955 16.0258 14.0789C15.9213 13.5557 15.7382 12.9676 15.1995 12.9086C14.4371 12.8252 13.8796 13.4561 13.845 14.1155C13.804 14.8909 14.4406 16.1761 15.3428 16.0868C15.6913 16.0524 15.777 15.703 16.1567 15.7066C16.3625 16.1173 15.8392 16.2462 15.7854 16.5399C15.7713 16.6158 15.8288 16.9123 15.8622 17.0514C16.0261 17.7284 16.3914 18.6048 16.751 19.1202C17.2073 19.7741 18.104 19.8726 19.0686 19.9367C19.2409 19.5656 19.8756 19.5961 20.2891 19.6932C19.7935 19.4969 19.3327 19.021 18.9509 18.5998C18.5122 18.1165 18.0679 17.5981 18.0455 16.9665C18.8744 18.1164 19.5592 19.1207 21.0664 19.6265C22.2069 20.009 23.5388 19.4512 24.4151 18.8358C24.7788 18.5801 24.9958 18.1742 25.2543 17.8027C26.2214 16.4116 26.6727 14.426 26.5735 12.5015C26.5326 11.7078 26.5344 10.9168 26.2681 10.3828C25.9897 9.82443 25.0484 9.32489 24.4973 9.82993C24.3952 9.28695 24.9555 8.95116 25.6138 9.14655C25.1444 8.54084 24.6518 7.81302 23.9847 7.43659ZM26.1487 25.3451C27.0563 24.8939 28.7521 24.1306 29.3211 25.3467C29.5311 25.795 29.7774 26.5528 29.8862 27.0155C30.0398 27.6683 29.7197 29.0405 29.0486 29.2596C28.4559 29.453 27.7644 29.4413 27.0504 29.2978C26.9664 29.2279 26.8728 29.106 26.8074 28.979C26.2976 28.9592 25.8203 29.0064 25.4176 29.2159C25.4558 29.5929 25.2008 29.6534 24.9617 29.731C24.7845 30.4337 25.3162 31.3513 25.189 31.9921C25.0982 32.4485 24.5366 32.5191 24.1238 32.6045C24.1103 32.8582 24.1419 33.0699 24.17 33.2845C24.0756 33.6323 23.6523 33.8303 23.2512 33.8788C21.9315 34.0375 19.9276 34.1088 18.6582 33.6523C18.304 32.7834 18.025 31.7266 17.7299 30.7345C16.4919 30.8667 15.4905 30.2003 14.5466 29.7637C14.2197 29.6122 13.7676 29.5287 13.6455 29.2686C13.5272 29.0167 13.5756 28.534 13.5462 28.078C13.4715 26.9134 13.4075 25.79 13.0999 24.5976C12.9618 24.0625 12.7211 23.5903 12.5532 23.0747C12.398 22.5968 12.1269 22.0063 12.0562 21.5297C11.9513 20.8235 12.6164 20.7842 13.0416 20.4781C13.699 20.0048 14.215 19.7431 14.927 19.316C15.1378 19.1895 15.7738 18.8693 15.8461 18.7218C15.9899 18.4294 15.5993 18.0172 15.4948 17.788C15.3297 17.4256 15.2435 17.1178 15.2198 16.7602C14.6226 16.6658 14.1699 16.3104 13.8964 15.9096C13.444 15.2463 13.1303 14.0192 13.5217 13.0858C13.5524 13.0123 13.7054 12.8677 13.728 12.7548C13.7726 12.5325 13.6442 12.2368 13.6362 12.0004C13.5951 10.7872 13.8415 9.74183 14.6582 9.37595C14.9898 8.0551 16.1765 7.61594 17.2946 6.9595C17.7125 6.71416 18.1732 6.55737 18.649 6.38229C20.3559 5.75413 22.9746 5.87242 24.3912 6.94379C24.9919 7.3981 25.952 8.35734 26.2955 9.05183C27.2025 10.8854 27.1381 13.9496 26.5037 16.18C26.4184 16.4794 26.2947 16.9196 26.122 17.2793C26.0015 17.5305 25.6272 18.033 25.6727 18.2548C25.7195 18.4841 26.5261 19.0965 26.6991 19.2633C27.0105 19.5638 27.6022 19.9625 27.6501 20.3416C27.7016 20.7451 27.4723 21.2971 27.3562 21.6864C26.9678 22.9857 26.589 24.1867 26.1487 25.3451Z" fill="#231F20"/>
<path fill-rule="evenodd" clip-rule="evenodd" d="M20.0934 16.351C20.1427 16.2855 20.4134 16.1859 20.7922 16.3683C20.7922 16.3683 20.3432 16.4432 20.3806 17.1917L20.1935 17.1542C20.1935 17.1542 20.0002 16.4755 20.0934 16.351Z" fill="#F7E4CD"/>
<path fill-rule="evenodd" clip-rule="evenodd" d="M23.3735 22.7843C23.3735 22.8978 23.2814 22.99 23.1677 22.99C23.0541 22.99 22.962 22.8978 22.962 22.7843C22.962 22.6707 23.0541 22.5784 23.1677 22.5784C23.2814 22.5784 23.3735 22.6707 23.3735 22.7843Z" fill="#1D1919"/>
<path fill-rule="evenodd" clip-rule="evenodd" d="M23.5792 23.7382C23.5792 23.8518 23.4871 23.9439 23.3734 23.9439C23.2598 23.9439 23.1677 23.8518 23.1677 23.7382C23.1677 23.6246 23.2598 23.5324 23.3734 23.5324C23.4871 23.5324 23.5792 23.6246 23.5792 23.7382Z" fill="#1D1919"/>
</g>
<defs>
<filter id="filter0_d_1_68" x="2" y="2" width="36" height="36" filterUnits="userSpaceOnUse" color-interpolation-filters="sRGB">
<feFlood flood-opacity="0" result="BackgroundImageFix"/>
<feColorMatrix in="SourceAlpha" type="matrix" values="0 0 0 0 0 0 0 0 0 0 0 0 0 0 0 0 0 0 127 0" result="hardAlpha"/>
<feOffset/>
<feGaussianBlur stdDeviation="2"/>
<feComposite in2="hardAlpha" operator="out"/>
<feColorMatrix type="matrix" values="0 0 0 0 0 0 0 0 0 0 0 0 0 0 0 0 0 0 0.25 0"/>
<feBlend mode="normal" in2="BackgroundImageFix" result="effect1_dropShadow_1_68"/>
<feBlend mode="normal" in="SourceGraphic" in2="effect1_dropShadow_1_68" result="shape"/>
</filter>
<linearGradient id="paint0_linear_1_68" x1="20" y1="0" x2="20" y2="40" gradientUnits="userSpaceOnUse">
<stop stop-color="#78251B"/>
<stop offset="1" stop-color="#41140F"/>
</linearGradient>
</defs>
</svg>
