<svg width="144" height="56" viewBox="0 0 144 56" fill="none" xmlns="http://www.w3.org/2000/svg">
<rect width="144" height="56" rx="8" fill="url(#paint0_linear_1_50)"/>
<rect x="1.05" y="1.05" width="141.9" height="53.9" rx="6.95" stroke="white" stroke-opacity="0.15" stroke-width="2.1"/>
<g filter="url(#filter0_d_1_50)">
<path fill-rule="evenodd" clip-rule="evenodd" d="M46.1187 27.275C46.1187 35.2 39.8377 41.6245 32.0897 41.6245C24.3419 41.6245 18.0609 35.2 18.0609 27.275C18.0609 19.3499 24.3419 12.9252 32.0897 12.9252C39.8377 12.9252 46.1187 19.3499 46.1187 27.275Z" fill="#D33833"/>
<path d="M18.6326 30.8289C18.6326 30.8289 17.617 15.8648 31.4055 15.4372L30.4436 13.8338L22.9615 16.3457L20.8237 18.8041L18.9532 22.3849L17.8843 26.5535L18.2049 29.3325" fill="#EF3D3A"/>
<path d="M22.4811 17.486C20.0197 20.0045 18.4966 23.4817 18.4966 27.3286C18.4966 31.1746 20.0197 34.6523 22.4811 37.1703C24.9437 39.6883 28.3375 41.2421 32.0895 41.2421C35.8416 41.2421 39.2357 39.6883 41.698 37.1703C44.1593 34.6523 45.6827 31.1746 45.6827 27.3286C45.6827 23.4817 44.1593 20.0045 41.698 17.486C39.2357 14.9685 35.8416 13.4147 32.0895 13.4144C28.3375 13.4147 24.9437 14.9685 22.4811 17.486ZM21.8581 37.7794C19.2422 35.1041 17.625 31.4069 17.625 27.3286C17.625 23.2496 19.2422 19.5527 21.8581 16.8772C24.4734 14.2013 28.0936 12.5427 32.0895 12.5432C36.0855 12.5427 39.7061 14.2013 42.3209 16.8772C44.937 19.5527 46.5544 23.2499 46.5541 27.3286C46.5544 31.4069 44.937 35.1041 42.3209 37.7794C39.7061 40.4552 36.0855 42.1136 32.0895 42.1136C28.0936 42.1136 24.4734 40.4552 21.8581 37.7794Z" fill="#231F20"/>
<path fill-rule="evenodd" clip-rule="evenodd" d="M37.9952 27.3545L35.8573 27.6752L32.9713 27.9959L31.1007 28.0492L29.2837 27.9959L27.8941 27.5683L26.6649 26.2322L25.7029 23.5066L25.4892 22.9187L24.2065 22.4912L23.4583 21.262L22.9239 19.4983L23.5118 17.9484L24.9013 17.4674L26.0236 18.002L26.5581 19.1777L27.1994 19.0707L27.4131 18.8036L27.1994 17.5744L27.1459 16.0244L27.4665 13.8868L27.454 12.6657L28.4285 11.1077L30.1387 9.87848L33.1317 8.59584L36.4451 9.07683L39.3311 11.1611L40.6673 13.2988L41.5223 14.8487L41.736 18.6967L41.0947 22.0102L39.919 24.9496L38.7967 26.4995" fill="#F0D6B7"/>
<path fill-rule="evenodd" clip-rule="evenodd" d="M36.178 36.6002L28.5354 36.9208V38.2035L29.1768 42.6927L28.8561 43.0669L23.5118 41.2498L23.1376 40.6084L22.6032 34.5694L21.3742 30.9352L21.1069 30.0802L25.3823 27.1408L26.7184 26.6063L27.8941 28.0492L28.9095 28.9578L30.0854 29.3319L30.6197 29.4922L31.2611 32.2712L31.7421 32.8591L32.9713 32.4316L32.1161 34.0884L36.7658 36.2795L36.178 36.6002Z" fill="#335061"/>
<path fill-rule="evenodd" clip-rule="evenodd" d="M23.5118 17.9484L24.9013 17.4674L26.0236 18.002L26.5581 19.1777L27.1994 19.0707L27.3598 18.4294L27.0391 17.2003L27.3598 14.2608L27.0925 12.6575L28.0544 11.5352L30.1387 9.87848L29.5508 9.07683L26.6115 10.5198L25.3822 11.4818L24.6875 12.9782L23.6186 14.4211L23.298 16.1314L23.5118 17.9484Z" fill="#6D6B6D"/>
<path fill-rule="evenodd" clip-rule="evenodd" d="M25.7029 12.9248C25.7029 12.9248 26.5046 10.9474 29.7112 9.98542C32.9178 9.02344 29.8715 9.29055 29.8715 9.29055L26.3978 10.6267L25.0616 11.9628L24.4738 13.0317L25.7029 12.9248Z" fill="#DCD9D8"/>
<path fill-rule="evenodd" clip-rule="evenodd" d="M24.0996 17.5744C24.0996 17.5744 22.9773 13.8332 27.2528 13.2988L27.0925 12.6575L24.1532 13.3524L23.298 16.1314L23.5118 17.9484L24.0996 17.5744Z" fill="#DCD9D8"/>
<path fill-rule="evenodd" clip-rule="evenodd" d="M25.8098 22.5446L26.5096 21.8666C26.5096 21.8666 26.8254 21.9033 26.8788 22.2773C26.9321 22.6516 27.0925 26.0185 29.3905 27.8357C29.6001 28.0015 27.6804 27.5683 27.6804 27.5683L25.9702 24.8962" fill="#F7E4CD"/>
<path fill-rule="evenodd" clip-rule="evenodd" d="M35.6438 21.5292C35.6438 21.5292 35.7683 19.9093 36.2046 20.0338C36.6409 20.1584 36.6409 20.5947 36.6409 20.5947C36.6409 20.5947 35.5814 21.2801 35.6438 21.5292Z" fill="#F7E4CD"/>
<path d="M40.0793 15.597C40.0793 15.597 39.1985 15.783 39.1173 16.559C39.0362 17.3351 40.0793 16.7193 40.2397 16.6659" fill="#F7E4CD"/>
<path d="M33.6127 15.6505C33.6127 15.6505 32.4368 15.8109 32.4368 16.559C32.4368 17.3072 33.773 17.2539 34.1471 16.9332" fill="#F7E4CD"/>
<path fill-rule="evenodd" clip-rule="evenodd" d="M26.3442 19.1243C26.3442 19.1243 24.3133 17.895 24.0996 19.0709C23.8858 20.2466 23.4047 21.1018 24.4203 22.3309L23.7255 22.1172L23.0842 20.4605L22.8705 18.8572L24.0996 17.5744L25.4892 17.6813L26.2908 18.3226L26.3442 19.1243Z" fill="#F7E4CD"/>
<path fill-rule="evenodd" clip-rule="evenodd" d="M27.3062 15.7573C27.3062 15.7573 28.2148 11.0543 32.811 10.1458C36.595 9.39781 38.5828 10.3061 39.3311 11.1611C39.3311 11.1611 35.9641 7.15302 32.7575 8.38212C29.5508 9.61137 27.1994 11.856 27.2528 13.2988C27.3438 15.7564 27.3062 15.7573 27.3062 15.7573Z" fill="#F7E4CD"/>
<path fill-rule="evenodd" clip-rule="evenodd" d="M39.7053 11.6955C39.7053 11.6955 38.1555 11.6421 38.102 13.0317C38.102 13.0317 38.1018 13.2454 38.2087 13.4591C38.2087 13.4591 39.4382 12.0696 40.1863 12.8178" fill="#F7E4CD"/>
<path fill-rule="evenodd" clip-rule="evenodd" d="M32.9187 13.6039C32.9187 13.6039 32.6519 11.471 30.8335 12.711C29.6578 13.5127 29.7647 14.635 29.9784 14.8487C30.1922 15.0626 30.1341 15.4931 30.2968 15.1976C30.4594 14.9021 30.4059 13.9401 30.9938 13.673C31.5817 13.4058 32.5455 13.1072 32.9187 13.6039Z" fill="#F7E4CD"/>
<path fill-rule="evenodd" clip-rule="evenodd" d="M27.8941 28.0492L22.8705 30.2939C22.8705 30.2939 24.9548 38.5777 23.8859 41.143L23.1376 40.8759L23.0842 37.7226L21.6948 31.737L21.1069 30.0802L26.3442 26.553L27.8941 28.0492Z" fill="#49728B"/>
<path fill-rule="evenodd" clip-rule="evenodd" d="M28.4107 32.631L29.1234 33.5007V36.7073H28.2682C28.2682 36.7073 28.1614 34.4626 28.1614 34.1953C28.1614 33.9281 28.2682 32.9661 28.2682 32.9661" fill="#49728B"/>
<path fill-rule="evenodd" clip-rule="evenodd" d="M28.4285 37.1883L26.0236 37.295L26.7184 37.776L28.4285 38.0433" fill="#49728B"/>
<path fill-rule="evenodd" clip-rule="evenodd" d="M36.659 36.6537L38.6363 36.6003L39.1173 41.5172L37.0864 41.7843L36.659 36.6537Z" fill="#335061"/>
<path fill-rule="evenodd" clip-rule="evenodd" d="M37.1934 36.6537L40.1863 36.4934C40.1863 36.4934 41.4154 33.3937 41.4154 33.2333C41.4154 33.073 42.4843 28.7441 42.4843 28.7441L40.0793 26.2324L39.5983 25.8048L38.3157 27.0874V32.0577L37.1934 36.6537Z" fill="#335061"/>
<path fill-rule="evenodd" clip-rule="evenodd" d="M38.5294 36.2796L36.659 36.6537L36.9261 38.1502C37.6208 38.4709 38.7967 37.6157 38.7967 37.6157" fill="#49728B"/>
<path fill-rule="evenodd" clip-rule="evenodd" d="M38.5829 26.9271L42.3239 29.7061L42.4309 28.4235L39.5983 25.8048L38.5829 26.9271Z" fill="#49728B"/>
<path fill-rule="evenodd" clip-rule="evenodd" d="M30.2832 47.1826L29.1768 42.6927L28.6264 39.3798L28.5354 36.9208L33.5433 36.6542L36.659 36.6537L36.3757 42.2658L36.8567 46.5947L36.8033 47.3964L32.7417 47.717L30.2832 47.1826Z" fill="white"/>
<path fill-rule="evenodd" clip-rule="evenodd" d="M35.9641 36.6003C35.9641 36.6003 35.697 42.1585 36.4987 46.1132C36.4987 46.1132 34.8953 47.1288 32.5437 47.3959L37.033 47.2355L37.5674 46.9149L36.9261 38.1502L36.7658 36.2795" fill="#DCD9D8"/>
<path fill-rule="evenodd" clip-rule="evenodd" d="M39.2084 41.0901L41.2927 40.5022L45.2474 40.2884L45.8354 38.4714L44.7664 35.3182L43.5373 35.1578L41.8271 35.6922L40.1863 36.4934L39.3152 36.3336L38.6363 36.6003" fill="white"/>
<path fill-rule="evenodd" clip-rule="evenodd" d="M39.1707 40.0207C39.1707 40.0207 40.5601 39.3795 40.774 39.4329L40.1863 36.4934L40.881 36.2263C40.881 36.2263 41.362 39.0053 41.362 39.3259C41.362 39.3259 44.3547 39.4862 44.622 39.4862C44.622 39.4862 45.2633 38.257 45.103 36.9744L45.6909 38.6846L45.7443 39.6466L44.8892 40.9292L43.9273 41.143L42.3239 41.0896L41.7896 40.3949L39.919 40.662L39.3311 40.8759" fill="#DCD9D8"/>
<path d="M37.0705 36.2268L35.8948 33.2339L34.6656 31.4702C34.6656 31.4702 34.9327 30.722 35.3069 30.722C35.6811 30.722 36.5362 30.722 36.5362 30.722L37.7119 31.1496L37.6051 33.127L37.0705 36.2268Z" fill="white"/>
<path fill-rule="evenodd" clip-rule="evenodd" d="M37.3003 35.2107C37.3003 35.2107 35.8038 32.3249 35.8038 31.8973C35.8038 31.8973 36.0709 31.256 36.4451 31.4164C36.8193 31.5767 37.621 32.0041 37.621 32.0041V30.9887L35.8038 30.6145L34.5747 30.7749L36.659 35.6917L37.0864 35.7453" fill="#DCD9D8"/>
<path d="M30.7643 28.1568L29.2837 27.9959L27.8941 27.5683V28.0492L28.5731 28.798L30.7108 29.76" fill="white"/>
<path fill-rule="evenodd" clip-rule="evenodd" d="M28.3753 28.317C28.3753 28.317 30.0322 29.0119 30.5666 28.8515L30.6197 29.4922L29.1236 29.1722L28.215 28.5309L28.3753 28.317Z" fill="#DCD9D8"/>
<path fill-rule="evenodd" clip-rule="evenodd" d="M39.2026 30.9039C38.2958 30.8773 37.4765 30.7696 36.7592 30.5672C36.8079 30.2732 36.7167 29.9846 36.79 29.7728C36.9899 29.6288 37.325 29.6311 37.6272 29.5972C37.3659 29.4688 36.9987 29.418 36.6971 29.4922C36.6901 29.2881 36.5985 29.1616 36.5431 29.0019C37.0529 28.82 38.2565 27.6269 38.9336 28.022C39.2562 28.2099 39.3933 29.2832 39.4183 29.805C39.4391 30.2379 39.379 30.6747 39.2026 30.9039Z" fill="#D33833"/>
<path d="M39.2026 30.9039C38.2958 30.8773 37.4765 30.7696 36.7592 30.5672C36.8079 30.2732 36.7167 29.9846 36.79 29.7728C36.9899 29.6288 37.325 29.6311 37.6272 29.5972C37.3659 29.4688 36.9987 29.418 36.6971 29.4922C36.6901 29.2881 36.5985 29.1616 36.5431 29.0019C37.0529 28.82 38.2565 27.6269 38.9336 28.022C39.2562 28.2099 39.3933 29.2832 39.4183 29.805C39.4391 30.2379 39.379 30.6747 39.2026 30.9039Z" stroke="#D33833" stroke-width="2.5"/>
<path fill-rule="evenodd" clip-rule="evenodd" d="M34.8662 29.4215C34.8638 29.4901 34.8609 29.5592 34.8581 29.6285C34.575 29.8145 34.1179 29.8122 33.8072 29.9686C34.2652 29.9886 34.6258 30.0989 34.9378 30.2544C34.9309 30.4273 34.9244 30.5999 34.9176 30.7728C34.3986 31.1281 33.9245 31.6572 33.3135 31.9904C33.0246 32.1479 32.0106 32.5534 31.7032 32.4817C31.5293 32.4413 31.5137 32.2255 31.4441 32.0221C31.296 31.5865 30.955 30.893 30.9253 30.2373C30.8874 29.409 30.8038 28.0209 31.6963 28.1915C32.4165 28.3289 33.254 28.6606 33.8115 28.9652C34.1522 29.1515 34.3493 29.3818 34.8662 29.4215Z" fill="#D33833"/>
<path d="M34.8662 29.4215C34.8638 29.4901 34.8609 29.5592 34.8581 29.6285C34.575 29.8145 34.1179 29.8122 33.8072 29.9686C34.2652 29.9886 34.6258 30.0989 34.9378 30.2544C34.9309 30.4273 34.9244 30.5999 34.9176 30.7728C34.3986 31.1281 33.9245 31.6572 33.3135 31.9904C33.0246 32.1479 32.0106 32.5534 31.7032 32.4817C31.5293 32.4413 31.5137 32.2255 31.4441 32.0221C31.296 31.5865 30.955 30.893 30.9253 30.2373C30.8874 29.409 30.8038 28.0209 31.6963 28.1915C32.4165 28.3289 33.254 28.6606 33.8115 28.9652C34.1522 29.1515 34.3493 29.3818 34.8662 29.4215Z" stroke="#D33833" stroke-width="2.5"/>
<path fill-rule="evenodd" clip-rule="evenodd" d="M35.3816 30.4098C35.3024 29.9586 35.2109 29.8299 35.2463 29.4363C36.4496 28.634 36.6755 30.8143 35.3816 30.4098Z" fill="#D33833"/>
<path d="M35.3816 30.4098C35.3024 29.9586 35.2109 29.8299 35.2463 29.4363C36.4496 28.634 36.6755 30.8143 35.3816 30.4098Z" stroke="#D33833" stroke-width="2.5"/>
<path fill-rule="evenodd" clip-rule="evenodd" d="M37.1239 30.7755C37.1239 30.7755 36.7497 30.241 37.017 30.0806C37.2843 29.9203 37.5515 30.0808 37.7119 29.8135C37.8722 29.5463 37.7119 29.3859 37.7653 29.0653C37.8187 28.7446 38.0861 28.691 38.3532 28.6377C38.6203 28.5843 39.3687 28.4773 39.4755 28.7446L39.1549 27.7826L38.5135 27.5689L36.4826 28.7446L36.3757 29.3325V30.5082" fill="#EF3D3A"/>
<path fill-rule="evenodd" clip-rule="evenodd" d="M31.5124 32.5392C31.4482 31.7051 31.3803 30.8722 31.3047 30.0389C31.1915 28.7948 31.6035 29.0119 32.682 29.0119C32.8467 29.0119 33.6962 29.2083 33.757 29.3325C34.0485 29.9278 33.2696 29.7956 34.0927 30.2445C34.7876 30.6234 36.0151 30.0144 35.7344 29.1722C35.5772 28.9849 34.9157 29.1138 34.6786 28.9909C34.2611 28.7744 33.8436 28.558 33.426 28.3415C32.8948 28.0659 31.6671 27.6641 31.1007 28.0492C29.6657 29.0252 31.1913 31.4636 31.7032 32.4817" fill="#EF3D3A"/>
<path fill-rule="evenodd" clip-rule="evenodd" d="M32.9187 13.6039C31.4621 13.2647 30.7383 14.2135 30.2968 15.1976C29.9025 15.1021 30.0594 14.5659 30.159 14.2927C30.4197 13.5757 31.4704 12.6213 32.329 12.7506C32.6984 12.8063 33.1984 13.1441 32.9187 13.6039Z" fill="#231F20"/>
<path fill-rule="evenodd" clip-rule="evenodd" d="M40.016 15.2627C40.0389 15.2637 40.0622 15.2645 40.0851 15.2654C40.4142 15.9492 40.6992 16.6736 41.1144 17.2773C40.8362 17.9252 39.008 18.4985 39.0362 17.3351C39.4316 17.1623 40.1141 17.2999 40.4646 17.0791C40.2619 16.5229 39.9695 16.0495 40.016 15.2627Z" fill="#231F20"/>
<path fill-rule="evenodd" clip-rule="evenodd" d="M33.6645 15.2805C33.9768 15.8531 34.0785 16.4546 34.5224 16.8873C34.7224 17.0821 35.1112 17.3196 34.9184 17.8614C34.8734 17.9891 34.5442 18.274 34.3542 18.33C33.6602 18.5349 32.0429 18.3723 32.5906 17.507C33.1646 17.5338 33.9361 17.8798 34.3651 17.4631C34.0357 16.9364 33.4483 15.8944 33.6645 15.2805Z" fill="#231F20"/>
<path fill-rule="evenodd" clip-rule="evenodd" d="M39.7555 21.0995C38.7104 21.7709 37.5451 22.5008 35.8328 22.3315C35.4669 22.0134 35.3274 21.3056 35.6829 20.8381C35.8679 21.1561 35.7517 21.7412 36.2673 21.8292C37.2389 21.9955 38.3697 21.2349 39.0686 20.969C39.502 20.2384 39.0312 19.9697 38.6408 19.4994C37.8416 18.536 36.7695 17.3419 36.8084 15.8995C37.1315 15.6653 37.1594 16.2571 37.2057 16.3648C37.6231 17.3416 38.6734 18.5907 39.4399 19.4267C39.6282 19.6325 39.9381 19.8301 39.9725 19.9662C40.0719 20.362 39.7139 20.8363 39.7555 21.0995Z" fill="#231F20"/>
<path fill-rule="evenodd" clip-rule="evenodd" d="M25.9785 20.3928C25.6509 20.2059 25.573 19.3824 25.1884 19.359C24.6388 19.3257 24.739 20.4273 24.7412 21.0715C24.363 20.7281 24.2964 19.6707 24.5743 19.1276C24.2576 18.9721 24.1162 19.2992 23.9405 19.4145C24.1663 17.7743 26.3399 18.6537 25.9785 20.3928Z" fill="#231F20"/>
<path fill-rule="evenodd" clip-rule="evenodd" d="M40.4208 21.7826C39.9344 22.7085 39.2462 23.7282 37.8188 23.7578C37.7898 23.4588 37.7675 23.0038 37.8204 22.8237C38.9116 22.7189 39.5853 22.1635 40.4208 21.7826Z" fill="#231F20"/>
<path fill-rule="evenodd" clip-rule="evenodd" d="M33.5822 22.3828C34.4926 22.8616 36.1658 22.9131 37.4032 22.8768C37.4696 23.1479 37.468 23.4829 37.4706 23.8135C35.8799 23.8928 33.9993 23.4992 33.5822 22.3828Z" fill="#231F20"/>
<path fill-rule="evenodd" clip-rule="evenodd" d="M33.4091 23.2756C34.0387 24.8563 36.2025 24.6743 38.0272 24.6307C37.9469 24.8359 37.7728 25.0783 37.5564 25.166C36.9716 25.404 35.3589 25.5845 34.5471 25.1534C34.0323 24.8797 33.7015 24.2613 33.4195 23.8988C33.2832 23.7237 32.605 23.2765 33.4091 23.2756Z" fill="#231F20"/>
<path fill-rule="evenodd" clip-rule="evenodd" d="M39.6795 31.9948C38.9407 33.2602 38.2338 34.5598 37.3572 35.6759C37.7247 34.5954 37.882 32.787 37.9375 31.4083C38.7062 31.0486 39.3646 31.4893 39.6795 31.9948Z" fill="#81B0C4"/>
<path fill-rule="evenodd" clip-rule="evenodd" d="M43.655 36.5426C42.8279 36.7082 42.2467 37.5121 41.4397 37.4605C41.8832 36.8353 42.6603 36.5718 43.655 36.5426Z" fill="#231F20"/>
<path fill-rule="evenodd" clip-rule="evenodd" d="M44.0199 37.8371C43.3457 37.9083 42.5539 38.0175 41.87 37.9612C42.1938 37.4668 43.441 37.6374 44.0199 37.8371Z" fill="#231F20"/>
<path fill-rule="evenodd" clip-rule="evenodd" d="M44.2535 38.9531C43.4958 38.9696 42.554 38.9545 41.8338 38.894C42.2598 38.4365 43.7621 38.7242 44.2535 38.9531Z" fill="#231F20"/>
<path fill-rule="evenodd" clip-rule="evenodd" d="M38.2538 42.0073C38.3625 42.9589 38.7398 43.9231 38.6925 44.9652C38.2735 45.1065 38.0329 45.2301 37.4715 45.2293C37.4319 44.3436 37.3135 42.9897 37.3489 42.1454C37.625 42.1636 38.0321 41.9481 38.2538 42.0073Z" fill="#DCD9D8"/>
<path fill-rule="evenodd" clip-rule="evenodd" d="M37.0322 27.9829C36.6518 28.2312 36.3277 28.5413 35.9623 28.8065C35.152 28.8466 34.7098 28.7504 34.1145 28.2851C34.1243 28.2477 34.1841 28.2644 34.1864 28.2186C35.0537 28.6051 36.1563 28.0611 37.0322 27.9829Z" fill="#F0D6B7"/>
<path fill-rule="evenodd" clip-rule="evenodd" d="M32.4788 33.8955C32.7171 32.8628 33.6509 32.328 34.4988 31.7593C35.3741 32.8701 35.9064 34.2986 36.4926 35.6771C35.1076 35.2597 33.6925 34.5823 32.4788 33.8955Z" fill="#81B0C4"/>
<path fill-rule="evenodd" clip-rule="evenodd" d="M37.3489 42.1454C37.3135 42.9897 37.4319 44.3436 37.4715 45.2293C38.0329 45.2301 38.2735 45.1065 38.6925 44.9652C38.7398 43.9231 38.3625 42.9589 38.2538 42.0073C38.0321 41.9481 37.625 42.1636 37.3489 42.1454ZM28.6086 37.3437C28.9787 40.7463 29.5148 43.6067 30.4981 46.6199C32.6804 47.2825 35.3112 47.3403 37.2402 46.7423C36.886 45.0417 37.0407 42.9713 36.8337 41.1564C36.6777 39.7924 36.7573 38.4199 36.5434 37.0282C34.2061 36.542 30.9024 36.9146 28.6086 37.3437ZM37.096 37.0496C37.0763 38.511 37.1615 39.9525 37.2731 41.4157C37.8342 41.3315 38.215 41.2752 38.7364 41.1609C38.5671 39.7523 38.5879 38.1672 38.2431 36.9211C37.8445 36.925 37.4935 36.9165 37.096 37.0496ZM39.9427 36.814C39.6764 36.753 39.3663 36.8117 39.1119 36.8166C39.2315 38.0079 39.5217 39.3224 39.6238 40.5729C40.0242 40.5853 40.238 40.3965 40.5674 40.333C40.585 39.2354 40.4715 37.7231 39.9427 36.814ZM44.253 40.7522C45.0876 40.5496 45.6123 39.5275 45.3789 38.4778C45.2222 37.7723 44.9433 36.444 44.6447 35.9927C44.4241 35.6589 43.8259 35.2218 43.3483 35.5277C42.5713 36.0252 41.2026 36.1697 40.636 36.7719C40.9201 37.7178 41.0083 39.0172 41.1255 40.2158C42.0961 40.2763 43.2904 39.9486 44.0977 40.2963C43.5341 40.4789 42.8029 40.4803 42.3159 40.7463C42.7139 40.9386 43.6456 40.8997 44.253 40.7522ZM36.4926 35.6771C35.9064 34.2986 35.3741 32.8701 34.4988 31.7593C33.6509 32.328 32.7171 32.8628 32.4788 33.8955C33.6925 34.5823 35.1076 35.2597 36.4926 35.6771ZM37.9375 31.4083C37.882 32.787 37.7247 34.5954 37.3572 35.6759C38.2338 34.5598 38.9407 33.2602 39.6795 31.9948C39.3646 31.4893 38.7062 31.0486 37.9375 31.4083ZM36.2995 30.8263C35.9675 30.7906 35.6856 31.2081 35.2538 31.0275C35.1549 31.1369 35.065 31.2554 34.9641 31.3622C35.9178 32.5114 36.3511 34.142 37.0877 35.4926C37.4829 34.1952 37.4374 32.7738 37.5244 31.3578C36.9814 31.3923 36.6801 30.8667 36.2995 30.8263ZM35.2463 29.4363C35.2109 29.8299 35.3024 29.9586 35.3816 30.4098C36.6755 30.8143 36.4496 28.634 35.2463 29.4363ZM33.8115 28.9652C33.254 28.6606 32.4165 28.3289 31.6963 28.1915C30.8038 28.0207 30.8874 29.409 30.9253 30.2373C30.955 30.893 31.296 31.5865 31.4441 32.0221C31.5137 32.2255 31.5293 32.4413 31.7032 32.4817C32.0106 32.5534 33.0246 32.1479 33.3135 31.9904C33.9245 31.6572 34.3986 31.1281 34.9176 30.7728C34.9244 30.5999 34.9309 30.4273 34.9378 30.2544C34.6258 30.0989 34.2652 29.9886 33.8072 29.9686C34.1179 29.8122 34.575 29.8145 34.8582 29.6285C34.8609 29.5592 34.8638 29.4901 34.8662 29.4215C34.3493 29.3818 34.1522 29.1515 33.8115 28.9652ZM28.4864 27.9979C28.0236 28.4677 29.7841 29.1081 30.3447 29.1425C30.3416 28.8453 30.5141 28.565 30.4793 28.3518C29.8136 28.2349 28.9387 28.312 28.4864 27.9979ZM34.1864 28.2186C34.1841 28.2644 34.1243 28.2477 34.1145 28.2851C34.7098 28.7504 35.152 28.8466 35.9623 28.8065C36.3277 28.5413 36.6518 28.2312 37.0322 27.9829C36.1563 28.0611 35.0538 28.6051 34.1864 28.2186ZM39.4183 29.805C39.3933 29.2832 39.2562 28.2099 38.9336 28.022C38.2565 27.6268 37.0529 28.82 36.5431 29.0019C36.5985 29.1616 36.6901 29.2881 36.6971 29.4922C36.9987 29.418 37.3659 29.4688 37.6272 29.5972C37.325 29.6311 36.9899 29.6288 36.79 29.7728C36.7167 29.9846 36.8079 30.2732 36.7592 30.5672C37.4765 30.7696 38.2958 30.8773 39.2026 30.9039C39.379 30.6747 39.4391 30.2379 39.4183 29.805ZM27.7074 28.4523C27.5621 28.3487 26.5791 27.0698 26.4444 27.1229C24.6658 27.8243 23.0027 29.0372 21.5165 30.1844C22.9335 33.2249 23.5055 36.95 23.6065 40.5404C25.2297 41.2996 26.6555 42.3941 28.8582 42.5084C28.6033 40.705 28.3706 39.096 28.2259 37.3981C27.6725 37.1648 26.8785 37.4087 26.3605 37.3258C26.3561 36.7016 27.1515 37.0525 27.2178 36.6327C27.2677 36.3153 26.7801 36.2912 26.9389 35.7913C27.3438 35.9385 27.5564 36.2636 27.9883 36.3857C28.3828 35.5225 27.9827 33.9951 28.0396 33.2736C28.0504 33.1382 28.1072 32.5231 28.4107 32.631C28.6792 32.7266 28.3953 34.2667 28.4248 34.9496C28.4516 35.5787 28.3488 36.1874 28.6036 36.5824C30.732 36.2927 32.8949 36.1054 35.1979 36.0422C34.6912 35.8248 34.0894 35.6191 33.4295 35.2471C33.0717 35.0455 31.9441 34.6259 31.8409 34.2861C31.6762 33.7447 32.273 33.4563 32.3751 32.9921C31.3007 33.5781 31.0911 32.4304 30.8369 31.6174C30.6067 30.881 30.4756 30.3309 30.4191 29.9062C29.4935 29.465 28.504 29.0181 27.7074 28.4523ZM38.4783 27.2776C39.9602 26.559 40.2273 29.9633 39.6464 31.0599C39.7362 31.387 40.045 31.5122 40.171 31.8063C39.344 33.2877 38.4255 34.6706 37.5817 36.1346C38.2094 35.7438 39.106 36.0647 39.8446 35.7722C40.1146 35.6654 40.31 35.0473 40.5145 34.5529C41.0767 33.1925 41.6671 31.4774 41.9297 30.1792C41.989 29.8834 42.1506 29.2389 42.1144 28.9756C42.0498 28.5043 41.4102 28.1547 41.0849 27.8633C40.4856 27.3249 40.1082 26.8511 39.483 26.3477C39.2296 26.7219 38.6856 26.9733 38.4783 27.2776ZM24.3182 14.1356C23.612 14.9125 23.7598 16.3684 23.8453 17.4041C25.1217 16.6012 26.8158 17.4676 26.7999 18.8333C27.4092 18.8171 27.0275 18.0722 26.9173 17.5923C26.5571 16.0249 27.5242 14.3221 26.9611 12.8887C25.8679 12.9716 24.9698 13.4181 24.3182 14.1356ZM29.3708 9.62612C27.7722 10.0792 25.7234 11.2408 25.0665 12.6769C25.5751 12.603 25.9283 12.3465 26.43 12.3147C26.6197 12.3024 26.8681 12.3942 27.0861 12.34C27.5204 12.2323 27.887 11.2584 28.2147 10.8961C28.5341 10.5423 28.918 10.3911 29.1807 10.0685C29.3495 9.98703 29.5991 9.99264 29.6087 9.73916C29.5355 9.66092 29.4585 9.60127 29.3708 9.62612ZM37.6925 10.0523C36.0332 9.11611 33.2247 8.41194 31.4597 9.29183C30.0355 10.0019 28.1104 11.1768 27.454 12.6657C28.0672 14.1024 27.2724 15.4189 27.2217 16.8776C27.1947 17.6537 27.5871 18.3313 27.6172 19.1762C27.4074 19.5224 26.7664 19.565 26.3226 19.5413C26.1733 18.7938 25.9118 17.9537 25.1421 17.8694C24.0529 17.7502 23.2566 18.6516 23.2071 19.5936C23.1486 20.7013 24.058 22.5372 25.3469 22.4098C25.8448 22.3606 25.9671 21.8614 26.5096 21.8666C26.8036 22.4532 26.056 22.6374 25.9791 23.057C25.9591 23.1654 26.0411 23.589 26.0888 23.7877C26.3229 24.7549 26.8448 26.0068 27.3585 26.7432C28.0105 27.6773 29.2914 27.818 30.6694 27.9096C30.9155 27.3794 31.8222 27.423 32.413 27.5617C31.705 27.2813 31.0468 26.6015 30.5012 25.9997C29.8746 25.3094 29.2399 24.5688 29.2078 23.6664C30.392 25.3092 31.3702 26.7438 33.5234 27.4664C35.1527 28.0128 37.0555 27.216 38.3073 26.3369C38.8268 25.9715 39.1369 25.3918 39.5061 24.8611C40.8877 22.8738 41.5324 20.0372 41.3907 17.2878C41.3323 16.154 41.3349 15.024 40.9544 14.2611C40.5568 13.4635 39.2119 12.7498 38.4247 13.4713C38.2788 12.6957 39.0793 12.2159 40.0197 12.4951C39.3492 11.6298 38.6455 10.59 37.6925 10.0523ZM40.7838 35.6358C42.0804 34.9912 44.503 33.9009 45.3159 35.6382C45.6159 36.2786 45.9678 37.3611 46.1231 38.0222C46.3426 38.9548 45.8852 40.915 44.9266 41.228C44.0799 41.5043 43.0919 41.4875 42.0721 41.2826C41.952 41.1828 41.8183 41.0086 41.7248 40.8271C40.9966 40.7989 40.3147 40.8662 39.7394 41.1656C39.7939 41.7041 39.4297 41.7906 39.0882 41.9015C38.835 42.9053 39.5946 44.2162 39.4128 45.1315C39.2831 45.7836 38.4808 45.8845 37.8911 46.0064C37.8719 46.3688 37.9169 46.6713 37.9572 46.9779C37.8223 47.4747 37.2176 47.7576 36.6446 47.8268C34.7592 48.0535 31.8966 48.1554 30.0832 47.5033C29.5772 46.262 29.1785 44.7524 28.757 43.335C26.9884 43.5239 25.5579 42.5719 24.2094 41.9481C23.7425 41.7317 23.0966 41.6125 22.9222 41.2408C22.7531 40.881 22.8223 40.1914 22.7803 39.54C22.6735 37.8762 22.5821 36.2715 22.1428 34.568C21.9455 33.8035 21.6016 33.129 21.3618 32.3924C21.1401 31.7098 20.7527 30.8661 20.6517 30.1853C20.5019 29.1764 21.452 29.1203 22.0595 28.683C22.9986 28.0069 23.7357 27.633 24.7528 27.0228C25.0541 26.8421 25.9625 26.3847 26.0659 26.174C26.2713 25.7564 25.7133 25.1675 25.5641 24.8401C25.3281 24.3224 25.205 23.8826 25.1712 23.3718C24.318 23.2369 23.6712 22.7292 23.2805 22.1566C22.6343 21.2091 22.1861 19.456 22.7452 18.1225C22.7891 18.0175 23.0078 17.811 23.04 17.6497C23.1037 17.3321 22.9203 16.9098 22.9089 16.572C22.8501 14.8388 23.2021 13.3455 24.3689 12.8228C24.8426 10.9359 26.5379 10.3085 28.1351 9.37072C28.7322 9.02023 29.3903 8.79625 30.07 8.54614C32.5084 7.64876 36.2495 7.81775 38.2732 9.34827C39.1313 9.99729 40.5029 11.3676 40.9935 12.3598C42.2893 14.9791 42.1973 19.3566 41.2909 22.5428C41.1691 22.9706 40.9924 23.5994 40.7457 24.1133C40.5736 24.4721 40.0389 25.1901 40.1039 25.5069C40.1707 25.8344 41.323 26.7094 41.5701 26.9476C42.015 27.3768 42.8603 27.9465 42.9287 28.4881C43.0023 29.0645 42.6748 29.853 42.5088 30.4092C41.9541 32.2653 41.4128 33.981 40.7838 35.6358Z" fill="#231F20"/>
<path fill-rule="evenodd" clip-rule="evenodd" d="M32.1335 22.7872C32.2038 22.6936 32.5906 22.5513 33.1317 22.8119C33.1317 22.8119 32.4904 22.9188 32.5437 23.9881L32.2765 23.9345C32.2765 23.9345 32.0003 22.965 32.1335 22.7872Z" fill="#F7E4CD"/>
<path fill-rule="evenodd" clip-rule="evenodd" d="M36.8193 31.9775C36.8193 32.1398 36.6877 32.2714 36.5253 32.2714C36.363 32.2714 36.2314 32.1398 36.2314 31.9775C36.2314 31.8153 36.363 31.6835 36.5253 31.6835C36.6877 31.6835 36.8193 31.8153 36.8193 31.9775Z" fill="#1D1919"/>
<path fill-rule="evenodd" clip-rule="evenodd" d="M37.1132 33.3403C37.1132 33.5026 36.9816 33.6342 36.8192 33.6342C36.6569 33.6342 36.5253 33.5026 36.5253 33.3403C36.5253 33.178 36.6569 33.0463 36.8192 33.0463C36.9816 33.0463 37.1132 33.178 37.1132 33.3403Z" fill="#1D1919"/>
</g>
<g filter="url(#filter1_d_1_50)">
<path d="M61.2784 24.5V12.8636H65.5398C66.3655 12.8636 67.0492 13 67.5909 13.2727C68.1326 13.5417 68.5379 13.9072 68.8068 14.3693C69.0757 14.8276 69.2102 15.3447 69.2102 15.9204C69.2102 16.4053 69.1212 16.8144 68.9432 17.1477C68.7651 17.4773 68.5265 17.7424 68.2273 17.9432C67.9318 18.1401 67.606 18.2841 67.25 18.375V18.4886C67.6363 18.5076 68.0132 18.6326 68.3807 18.8636C68.7519 19.0909 69.0587 19.4148 69.3011 19.8352C69.5435 20.2557 69.6648 20.767 69.6648 21.3693C69.6648 21.964 69.5246 22.4981 69.2443 22.9716C68.9678 23.4413 68.5398 23.8144 67.9602 24.0909C67.3807 24.3636 66.6401 24.5 65.7386 24.5H61.2784ZM63.0341 22.9943H65.5682C66.4091 22.9943 67.0113 22.8314 67.375 22.5057C67.7386 22.1799 67.9204 21.7727 67.9204 21.2841C67.9204 20.9167 67.8276 20.5795 67.642 20.2727C67.4564 19.9659 67.1913 19.7216 66.8466 19.5398C66.5057 19.3579 66.1004 19.267 65.6307 19.267H63.0341V22.9943ZM63.0341 17.8977H65.3863C65.7803 17.8977 66.1345 17.822 66.4488 17.6704C66.767 17.5189 67.0189 17.3068 67.2045 17.0341C67.3939 16.7576 67.4886 16.4318 67.4886 16.0568C67.4886 15.5758 67.3201 15.1723 66.9829 14.8466C66.6458 14.5208 66.1288 14.3579 65.4318 14.3579H63.0341V17.8977ZM77.1392 20.8807V15.7727H78.8437V24.5H77.1733V22.9886H77.0824C76.8816 23.4545 76.5596 23.8428 76.1165 24.1534C75.6771 24.4602 75.1297 24.6136 74.4744 24.6136C73.9138 24.6136 73.4176 24.4905 72.9858 24.2443C72.5577 23.9943 72.2206 23.625 71.9744 23.1364C71.732 22.6477 71.6108 22.0436 71.6108 21.3239V15.7727H73.3096V21.1193C73.3096 21.714 73.4744 22.1875 73.804 22.5398C74.1335 22.892 74.5615 23.0682 75.088 23.0682C75.4062 23.0682 75.7225 22.9886 76.0369 22.8295C76.3551 22.6704 76.6184 22.4299 76.8267 22.1079C77.0388 21.786 77.143 21.3769 77.1392 20.8807ZM81.1264 24.5V15.7727H82.8253V24.5H81.1264ZM81.9844 14.4261C81.6889 14.4261 81.4351 14.3276 81.223 14.1307C81.0147 13.9299 80.9105 13.6913 80.9105 13.4148C80.9105 13.1345 81.0147 12.8958 81.223 12.6989C81.4351 12.4981 81.6889 12.3977 81.9844 12.3977C82.2798 12.3977 82.5317 12.4981 82.74 12.6989C82.9522 12.8958 83.0582 13.1345 83.0582 13.4148C83.0582 13.6913 82.9522 13.9299 82.74 14.1307C82.5317 14.3276 82.2798 14.4261 81.9844 14.4261ZM86.8096 12.8636V24.5H85.1108V12.8636H86.8096ZM93.169 15.7727V17.1364H88.402V15.7727H93.169ZM89.6804 13.6818H91.3792V21.9375C91.3792 22.267 91.4285 22.5151 91.527 22.6818C91.6254 22.8447 91.7523 22.9564 91.9076 23.017C92.0667 23.0739 92.2391 23.1023 92.4247 23.1023C92.5611 23.1023 92.6804 23.0928 92.7826 23.0739C92.8849 23.0549 92.9645 23.0398 93.0213 23.0284L93.3281 24.4318C93.2296 24.4697 93.0895 24.5076 92.9076 24.5454C92.7258 24.5871 92.4986 24.6098 92.2258 24.6136C91.7789 24.6212 91.3622 24.5417 90.9758 24.375C90.5895 24.2083 90.277 23.9508 90.0383 23.6023C89.7997 23.2538 89.6804 22.8163 89.6804 22.2898V13.6818ZM101.175 24.5L98.6065 15.7727H100.362L102.072 22.1818H102.158L103.874 15.7727H105.629L107.334 22.1534H107.419L109.118 15.7727H110.874L108.311 24.5H106.578L104.805 18.1989H104.675L102.902 24.5H101.175ZM112.486 24.5V15.7727H114.185V24.5H112.486ZM113.344 14.4261C113.048 14.4261 112.794 14.3276 112.582 14.1307C112.374 13.9299 112.27 13.6913 112.27 13.4148C112.27 13.1345 112.374 12.8958 112.582 12.6989C112.794 12.4981 113.048 12.3977 113.344 12.3977C113.639 12.3977 113.891 12.4981 114.099 12.6989C114.312 12.8958 114.418 13.1345 114.418 13.4148C114.418 13.6913 114.312 13.9299 114.099 14.1307C113.891 14.3276 113.639 14.4261 113.344 14.4261ZM120.544 15.7727V17.1364H115.777V15.7727H120.544ZM117.055 13.6818H118.754V21.9375C118.754 22.267 118.803 22.5151 118.902 22.6818C119 22.8447 119.127 22.9564 119.283 23.017C119.442 23.0739 119.614 23.1023 119.8 23.1023C119.936 23.1023 120.055 23.0928 120.158 23.0739C120.26 23.0549 120.339 23.0398 120.396 23.0284L120.703 24.4318C120.605 24.4697 120.464 24.5076 120.283 24.5454C120.101 24.5871 119.874 24.6098 119.601 24.6136C119.154 24.6212 118.737 24.5417 118.351 24.375C117.964 24.2083 117.652 23.9508 117.413 23.6023C117.175 23.2538 117.055 22.8163 117.055 22.2898V13.6818ZM124.31 19.3182V24.5H122.611V12.8636H124.287V17.1932H124.395C124.599 16.7235 124.912 16.3504 125.332 16.0739C125.753 15.7973 126.302 15.6591 126.98 15.6591C127.579 15.6591 128.101 15.7822 128.548 16.0284C128.999 16.2746 129.348 16.642 129.594 17.1307C129.844 17.6155 129.969 18.2216 129.969 18.9489V24.5H128.27V19.1534C128.27 18.5133 128.105 18.017 127.776 17.6648C127.446 17.3087 126.988 17.1307 126.401 17.1307C125.999 17.1307 125.639 17.2159 125.321 17.3864C125.007 17.5568 124.758 17.8068 124.577 18.1364C124.399 18.4621 124.31 18.8561 124.31 19.3182Z" fill="#E8E8E8"/>
<path d="M65.9584 31.1364H68.9045V39.6846C68.9004 40.4855 68.7093 41.1858 68.3309 41.7855C67.9526 42.3811 67.4294 42.844 66.7613 43.174C66.0973 43.504 65.3286 43.669 64.4552 43.669C63.6825 43.669 62.9802 43.5342 62.3484 43.2645C61.7205 42.9949 61.2194 42.5763 60.8452 42.0089C60.4749 41.4414 60.2918 40.715 60.2958 39.8295H63.272C63.2841 40.1475 63.3444 40.4191 63.4531 40.6445C63.5658 40.8659 63.7207 41.0329 63.918 41.1456C64.1152 41.2583 64.3506 41.3146 64.6243 41.3146C64.91 41.3146 65.1515 41.2542 65.3487 41.1335C65.5459 41.0087 65.6948 40.8256 65.7954 40.5842C65.9001 40.3427 65.9544 40.0428 65.9584 39.6846V31.1364ZM75.1149 43.6751C74.145 43.6751 73.3079 43.4839 72.6036 43.1016C71.9033 42.7152 71.364 42.1658 70.9857 41.4535C70.6114 40.7371 70.4243 39.8859 70.4243 38.8998C70.4243 37.942 70.6134 37.1049 70.9917 36.3885C71.37 35.6681 71.9033 35.1087 72.5915 34.7102C73.2797 34.3078 74.0907 34.1065 75.0244 34.1065C75.6844 34.1065 76.2881 34.2092 76.8355 34.4144C77.3828 34.6197 77.8557 34.9235 78.2542 35.326C78.6526 35.7284 78.9625 36.2255 79.1838 36.8171C79.4052 37.4047 79.5159 38.0788 79.5159 38.8395V39.576H71.4566V37.8615H76.7691C76.765 37.5476 76.6906 37.2679 76.5457 37.0224C76.4008 36.7769 76.2016 36.5857 75.948 36.4489C75.6985 36.308 75.4108 36.2376 75.0848 36.2376C74.7547 36.2376 74.4589 36.312 74.1973 36.4609C73.9357 36.6058 73.7285 36.805 73.5755 37.0586C73.4226 37.3081 73.3421 37.5918 73.3341 37.9098V39.6545C73.3341 40.0328 73.4085 40.3648 73.5574 40.6506C73.7063 40.9323 73.9176 41.1516 74.1913 41.3086C74.465 41.4655 74.791 41.544 75.1693 41.544C75.4309 41.544 75.6683 41.5078 75.8816 41.4354C76.0949 41.3629 76.2781 41.2563 76.431 41.1154C76.5839 40.9745 76.6986 40.8015 76.7751 40.5962L79.4857 40.6747C79.373 41.2824 79.1255 41.8117 78.7431 42.2624C78.3648 42.7092 77.8678 43.0573 77.252 43.3068C76.6363 43.5523 75.9239 43.6751 75.1149 43.6751ZM83.9757 38.2116V43.5H81.0236V34.2273H83.8308V35.9297H83.9334C84.1386 35.3622 84.4888 34.9175 84.9838 34.5955C85.4788 34.2695 86.0685 34.1065 86.7526 34.1065C87.4046 34.1065 87.9701 34.2534 88.449 34.5472C88.932 34.837 89.3063 35.2435 89.5719 35.7667C89.8415 36.2859 89.9743 36.8936 89.9703 37.5898V43.5H87.0183V38.1694C87.0223 37.6542 86.8915 37.2518 86.6259 36.962C86.3643 36.6722 86 36.5273 85.5332 36.5273C85.2233 36.5273 84.9496 36.5958 84.7122 36.7326C84.4787 36.8654 84.2976 37.0566 84.1688 37.3061C84.0441 37.5556 83.9797 37.8575 83.9757 38.2116ZM94.4603 41.0671L94.4724 37.5476H94.8829L97.4908 34.2273H100.835L96.9596 38.9844H96.1808L94.4603 41.0671ZM91.798 43.5V31.1364H94.7501V43.5H91.798ZM97.5572 43.5L95.1304 39.6484L97.0743 37.5536L100.968 43.5H97.5572ZM101.892 43.5V34.2273H104.844V43.5H101.892ZM103.371 33.1467C102.956 33.1467 102.6 33.0098 102.302 32.7361C102.004 32.4584 101.856 32.1244 101.856 31.734C101.856 31.3476 102.004 31.0176 102.302 30.744C102.6 30.4663 102.956 30.3274 103.371 30.3274C103.789 30.3274 104.146 30.4663 104.439 30.744C104.737 31.0176 104.886 31.3476 104.886 31.734C104.886 32.1244 104.737 32.4584 104.439 32.7361C104.146 33.0098 103.789 33.1467 103.371 33.1467ZM109.675 38.2116V43.5H106.723V34.2273H109.53V35.9297H109.633C109.838 35.3622 110.188 34.9175 110.683 34.5955C111.178 34.2695 111.768 34.1065 112.452 34.1065C113.104 34.1065 113.669 34.2534 114.148 34.5472C114.631 34.837 115.005 35.2435 115.271 35.7667C115.541 36.2859 115.674 36.8936 115.67 37.5898V43.5H112.717V38.1694C112.722 37.6542 112.591 37.2518 112.325 36.962C112.063 36.6722 111.699 36.5273 111.232 36.5273C110.922 36.5273 110.649 36.5958 110.411 36.7326C110.178 36.8654 109.997 37.0566 109.868 37.3061C109.743 37.5556 109.679 37.8575 109.675 38.2116ZM125.593 37.0586L122.882 37.131C122.854 36.9378 122.778 36.7668 122.653 36.6179C122.528 36.465 122.365 36.3462 122.164 36.2617C121.967 36.1732 121.737 36.1289 121.476 36.1289C121.133 36.1289 120.842 36.1973 120.6 36.3342C120.363 36.471 120.246 36.6561 120.25 36.8895C120.246 37.0707 120.318 37.2276 120.467 37.3604C120.62 37.4932 120.892 37.5999 121.282 37.6804L123.069 38.0185C123.995 38.1955 124.683 38.4893 125.134 38.8998C125.589 39.3104 125.818 39.8537 125.822 40.5298C125.818 41.1657 125.629 41.7191 125.255 42.19C124.884 42.6609 124.377 43.0271 123.733 43.2887C123.089 43.5463 122.353 43.6751 121.524 43.6751C120.2 43.6751 119.155 43.4034 118.391 42.8601C117.63 42.3127 117.195 41.5802 117.087 40.6626L120.003 40.5902C120.067 40.9283 120.234 41.1858 120.504 41.3629C120.773 41.54 121.117 41.6285 121.536 41.6285C121.914 41.6285 122.222 41.5581 122.46 41.4172C122.697 41.2764 122.818 41.0892 122.822 40.8558C122.818 40.6465 122.725 40.4795 122.544 40.3547C122.363 40.226 122.079 40.1253 121.693 40.0529L120.075 39.745C119.145 39.576 118.453 39.2641 117.998 38.8093C117.543 38.3505 117.318 37.7669 117.322 37.0586C117.318 36.4388 117.483 35.9096 117.817 35.4709C118.151 35.0282 118.626 34.6901 119.242 34.4567C119.858 34.2232 120.584 34.1065 121.421 34.1065C122.677 34.1065 123.667 34.3701 124.391 34.8974C125.116 35.4206 125.516 36.141 125.593 37.0586Z" fill="#D24939"/>
</g>
<defs>
<filter id="filter0_d_1_50" x="6.28571" y="2.28571" width="51.4286" height="51.4286" filterUnits="userSpaceOnUse" color-interpolation-filters="sRGB">
<feFlood flood-opacity="0" result="BackgroundImageFix"/>
<feColorMatrix in="SourceAlpha" type="matrix" values="0 0 0 0 0 0 0 0 0 0 0 0 0 0 0 0 0 0 127 0" result="hardAlpha"/>
<feOffset/>
<feGaussianBlur stdDeviation="2.85714"/>
<feComposite in2="hardAlpha" operator="out"/>
<feColorMatrix type="matrix" values="0 0 0 0 0 0 0 0 0 0 0 0 0 0 0 0 0 0 0.25 0"/>
<feBlend mode="normal" in2="BackgroundImageFix" result="effect1_dropShadow_1_50"/>
<feBlend mode="normal" in="SourceGraphic" in2="effect1_dropShadow_1_50" result="shape"/>
</filter>
<filter id="filter1_d_1_50" x="54.4" y="3.9" width="83.2" height="48.2" filterUnits="userSpaceOnUse" color-interpolation-filters="sRGB">
<feFlood flood-opacity="0" result="BackgroundImageFix"/>
<feColorMatrix in="SourceAlpha" type="matrix" values="0 0 0 0 0 0 0 0 0 0 0 0 0 0 0 0 0 0 127 0" result="hardAlpha"/>
<feOffset/>
<feGaussianBlur stdDeviation="2.8"/>
<feComposite in2="hardAlpha" operator="out"/>
<feColorMatrix type="matrix" values="0 0 0 0 0 0 0 0 0 0 0 0 0 0 0 0 0 0 0.25 0"/>
<feBlend mode="normal" in2="BackgroundImageFix" result="effect1_dropShadow_1_50"/>
<feBlend mode="normal" in="SourceGraphic" in2="effect1_dropShadow_1_50" result="shape"/>
</filter>
<linearGradient id="paint0_linear_1_50" x1="72" y1="0" x2="72" y2="56" gradientUnits="userSpaceOnUse">
<stop stop-color="#78251B"/>
<stop offset="1" stop-color="#41140F"/>
</linearGradient>
</defs>
</svg>
