<svg width="56" height="56" viewBox="0 0 56 56" fill="none" xmlns="http://www.w3.org/2000/svg">
<rect width="56" height="56" rx="8.4" fill="url(#paint0_linear_1_62)"/>
<rect x="1.05" y="1.05" width="53.9" height="53.9" rx="7.35" stroke="white" stroke-opacity="0.15" stroke-width="2.1"/>
<g filter="url(#filter0_d_1_62)">
<path fill-rule="evenodd" clip-rule="evenodd" d="M42.1187 27.275C42.1187 35.2 35.8377 41.6245 28.0897 41.6245C20.3419 41.6245 14.0609 35.2 14.0609 27.275C14.0609 19.3499 20.3419 12.9252 28.0897 12.9252C35.8377 12.9252 42.1187 19.3499 42.1187 27.275Z" fill="#D33833"/>
<path d="M14.6326 30.8289C14.6326 30.8289 13.617 15.8648 27.4055 15.4372L26.4436 13.8338L18.9615 16.3457L16.8237 18.8041L14.9532 22.3849L13.8843 26.5535L14.2049 29.3325" fill="#EF3D3A"/>
<path d="M18.4811 17.486C16.0197 20.0045 14.4966 23.4817 14.4966 27.3286C14.4966 31.1746 16.0197 34.6523 18.4811 37.1703C20.9437 39.6883 24.3375 41.2421 28.0895 41.2421C31.8416 41.2421 35.2357 39.6883 37.698 37.1703C40.1593 34.6523 41.6827 31.1746 41.6827 27.3286C41.6827 23.4817 40.1593 20.0045 37.698 17.486C35.2357 14.9685 31.8416 13.4147 28.0895 13.4144C24.3375 13.4147 20.9437 14.9685 18.4811 17.486ZM17.8581 37.7794C15.2422 35.1041 13.625 31.4069 13.625 27.3286C13.625 23.2496 15.2422 19.5527 17.8581 16.8772C20.4734 14.2013 24.0936 12.5427 28.0895 12.5432C32.0855 12.5427 35.7061 14.2013 38.3209 16.8772C40.937 19.5527 42.5544 23.2499 42.5541 27.3286C42.5544 31.4069 40.937 35.1041 38.3209 37.7794C35.7061 40.4552 32.0855 42.1136 28.0895 42.1136C24.0936 42.1136 20.4734 40.4552 17.8581 37.7794Z" fill="#231F20"/>
<path fill-rule="evenodd" clip-rule="evenodd" d="M33.9952 27.3545L31.8573 27.6752L28.9713 27.9959L27.1007 28.0492L25.2837 27.9959L23.8941 27.5683L22.6649 26.2322L21.7029 23.5066L21.4892 22.9187L20.2065 22.4912L19.4583 21.262L18.9239 19.4983L19.5118 17.9484L20.9013 17.4674L22.0236 18.002L22.5581 19.1777L23.1994 19.0707L23.4131 18.8036L23.1994 17.5744L23.1459 16.0244L23.4665 13.8868L23.454 12.6657L24.4285 11.1077L26.1387 9.87848L29.1317 8.59584L32.4451 9.07683L35.3311 11.1611L36.6673 13.2988L37.5223 14.8487L37.736 18.6967L37.0947 22.0102L35.919 24.9496L34.7967 26.4995" fill="#F0D6B7"/>
<path fill-rule="evenodd" clip-rule="evenodd" d="M32.178 36.6002L24.5354 36.9208V38.2035L25.1768 42.6927L24.8561 43.0669L19.5118 41.2498L19.1376 40.6084L18.6032 34.5694L17.3742 30.9352L17.1069 30.0802L21.3822 27.1408L22.7184 26.6063L23.8941 28.0492L24.9095 28.9578L26.0854 29.3319L26.6197 29.4922L27.2611 32.2712L27.7421 32.8591L28.9713 32.4316L28.1161 34.0884L32.7658 36.2795L32.178 36.6002Z" fill="#335061"/>
<path fill-rule="evenodd" clip-rule="evenodd" d="M19.5118 17.9484L20.9013 17.4674L22.0236 18.002L22.5581 19.1777L23.1994 19.0707L23.3598 18.4294L23.0391 17.2003L23.3598 14.2608L23.0925 12.6575L24.0544 11.5352L26.1387 9.87848L25.5508 9.07683L22.6115 10.5198L21.3822 11.4818L20.6875 12.9782L19.6186 14.4211L19.298 16.1314L19.5118 17.9484Z" fill="#6D6B6D"/>
<path fill-rule="evenodd" clip-rule="evenodd" d="M21.7029 12.9248C21.7029 12.9248 22.5046 10.9474 25.7112 9.98542C28.9178 9.02344 25.8715 9.29055 25.8715 9.29055L22.3978 10.6267L21.0616 11.9628L20.4738 13.0317L21.7029 12.9248Z" fill="#DCD9D8"/>
<path fill-rule="evenodd" clip-rule="evenodd" d="M20.0996 17.5744C20.0996 17.5744 18.9773 13.8332 23.2528 13.2988L23.0925 12.6575L20.1532 13.3524L19.298 16.1314L19.5118 17.9484L20.0996 17.5744Z" fill="#DCD9D8"/>
<path fill-rule="evenodd" clip-rule="evenodd" d="M21.8098 22.5446L22.5096 21.8666C22.5096 21.8666 22.8254 21.9033 22.8788 22.2773C22.9321 22.6516 23.0925 26.0185 25.3905 27.8357C25.6001 28.0015 23.6804 27.5683 23.6804 27.5683L21.9702 24.8962" fill="#F7E4CD"/>
<path fill-rule="evenodd" clip-rule="evenodd" d="M31.6438 21.5292C31.6438 21.5292 31.7683 19.9093 32.2046 20.0338C32.6409 20.1584 32.6409 20.5947 32.6409 20.5947C32.6409 20.5947 31.5814 21.2801 31.6438 21.5292Z" fill="#F7E4CD"/>
<path d="M36.0793 15.597C36.0793 15.597 35.1985 15.783 35.1173 16.559C35.0362 17.3351 36.0793 16.7193 36.2396 16.6659" fill="#F7E4CD"/>
<path d="M29.6127 15.6505C29.6127 15.6505 28.4368 15.8109 28.4368 16.559C28.4368 17.3072 29.773 17.2539 30.1471 16.9332" fill="#F7E4CD"/>
<path fill-rule="evenodd" clip-rule="evenodd" d="M22.3442 19.1243C22.3442 19.1243 20.3133 17.895 20.0996 19.0709C19.8859 20.2466 19.4047 21.1018 20.4203 22.3309L19.7255 22.1172L19.0842 20.4605L18.8705 18.8572L20.0996 17.5744L21.4892 17.6813L22.2908 18.3226L22.3442 19.1243Z" fill="#F7E4CD"/>
<path fill-rule="evenodd" clip-rule="evenodd" d="M23.3062 15.7573C23.3062 15.7573 24.2148 11.0543 28.811 10.1458C32.595 9.39781 34.5828 10.3061 35.3311 11.1611C35.3311 11.1611 31.9641 7.15302 28.7575 8.38212C25.5508 9.61137 23.1994 11.856 23.2528 13.2988C23.3438 15.7564 23.3062 15.7573 23.3062 15.7573Z" fill="#F7E4CD"/>
<path fill-rule="evenodd" clip-rule="evenodd" d="M35.7053 11.6955C35.7053 11.6955 34.1555 11.6421 34.102 13.0317C34.102 13.0317 34.1018 13.2454 34.2087 13.4591C34.2087 13.4591 35.4382 12.0696 36.1863 12.8178" fill="#F7E4CD"/>
<path fill-rule="evenodd" clip-rule="evenodd" d="M28.9187 13.6039C28.9187 13.6039 28.6519 11.471 26.8335 12.711C25.6578 13.5127 25.7647 14.635 25.9784 14.8487C26.1922 15.0626 26.1341 15.4931 26.2968 15.1976C26.4594 14.9021 26.4059 13.9401 26.9938 13.673C27.5817 13.4058 28.5455 13.1072 28.9187 13.6039Z" fill="#F7E4CD"/>
<path fill-rule="evenodd" clip-rule="evenodd" d="M23.8941 28.0492L18.8705 30.2939C18.8705 30.2939 20.9548 38.5777 19.8859 41.143L19.1376 40.8759L19.0842 37.7226L17.6948 31.737L17.1069 30.0802L22.3442 26.553L23.8941 28.0492Z" fill="#49728B"/>
<path fill-rule="evenodd" clip-rule="evenodd" d="M24.4107 32.631L25.1234 33.5007V36.7073H24.2682C24.2682 36.7073 24.1614 34.4626 24.1614 34.1953C24.1614 33.9281 24.2682 32.9661 24.2682 32.9661" fill="#49728B"/>
<path fill-rule="evenodd" clip-rule="evenodd" d="M24.4285 37.1883L22.0236 37.295L22.7184 37.776L24.4285 38.0433" fill="#49728B"/>
<path fill-rule="evenodd" clip-rule="evenodd" d="M32.659 36.6537L34.6363 36.6003L35.1173 41.5172L33.0864 41.7843L32.659 36.6537Z" fill="#335061"/>
<path fill-rule="evenodd" clip-rule="evenodd" d="M33.1934 36.6537L36.1863 36.4934C36.1863 36.4934 37.4154 33.3937 37.4154 33.2333C37.4154 33.073 38.4843 28.7441 38.4843 28.7441L36.0793 26.2324L35.5983 25.8048L34.3157 27.0874V32.0577L33.1934 36.6537Z" fill="#335061"/>
<path fill-rule="evenodd" clip-rule="evenodd" d="M34.5294 36.2796L32.659 36.6537L32.9261 38.1502C33.6208 38.4709 34.7967 37.6157 34.7967 37.6157" fill="#49728B"/>
<path fill-rule="evenodd" clip-rule="evenodd" d="M34.583 26.9271L38.324 29.7061L38.4309 28.4235L35.5983 25.8048L34.583 26.9271Z" fill="#49728B"/>
<path fill-rule="evenodd" clip-rule="evenodd" d="M26.2832 47.1826L25.1768 42.6927L24.6264 39.3798L24.5354 36.9208L29.5433 36.6542L32.659 36.6537L32.3757 42.2658L32.8567 46.5947L32.8033 47.3964L28.7417 47.717L26.2832 47.1826Z" fill="white"/>
<path fill-rule="evenodd" clip-rule="evenodd" d="M31.9641 36.6003C31.9641 36.6003 31.697 42.1585 32.4987 46.1132C32.4987 46.1132 30.8953 47.1288 28.5437 47.3959L33.033 47.2355L33.5674 46.9149L32.9261 38.1502L32.7658 36.2795" fill="#DCD9D8"/>
<path fill-rule="evenodd" clip-rule="evenodd" d="M35.2084 41.0901L37.2927 40.5022L41.2474 40.2884L41.8353 38.4714L40.7664 35.3182L39.5373 35.1578L37.8271 35.6922L36.1863 36.4934L35.3152 36.3336L34.6363 36.6003" fill="white"/>
<path fill-rule="evenodd" clip-rule="evenodd" d="M35.1707 40.0207C35.1707 40.0207 36.5601 39.3795 36.774 39.4329L36.1863 36.4934L36.881 36.2263C36.881 36.2263 37.362 39.0053 37.362 39.3259C37.362 39.3259 40.3547 39.4862 40.622 39.4862C40.622 39.4862 41.2633 38.257 41.103 36.9744L41.6909 38.6846L41.7443 39.6466L40.8892 40.9292L39.9273 41.143L38.3239 41.0896L37.7896 40.3949L35.919 40.662L35.3311 40.8759" fill="#DCD9D8"/>
<path d="M33.0706 36.2268L31.8948 33.2339L30.6656 31.4702C30.6656 31.4702 30.9327 30.722 31.3069 30.722C31.6811 30.722 32.5362 30.722 32.5362 30.722L33.7119 31.1496L33.6051 33.127L33.0706 36.2268Z" fill="white"/>
<path fill-rule="evenodd" clip-rule="evenodd" d="M33.3003 35.2107C33.3003 35.2107 31.8038 32.3249 31.8038 31.8973C31.8038 31.8973 32.0709 31.256 32.4451 31.4164C32.8193 31.5767 33.621 32.0041 33.621 32.0041V30.9887L31.8038 30.6145L30.5747 30.7749L32.659 35.6917L33.0864 35.7453" fill="#DCD9D8"/>
<path d="M26.7643 28.1568L25.2837 27.9959L23.8941 27.5683V28.0492L24.5731 28.798L26.7108 29.76" fill="white"/>
<path fill-rule="evenodd" clip-rule="evenodd" d="M24.3753 28.317C24.3753 28.317 26.0322 29.0119 26.5666 28.8515L26.6197 29.4922L25.1236 29.1722L24.215 28.5309L24.3753 28.317Z" fill="#DCD9D8"/>
<path fill-rule="evenodd" clip-rule="evenodd" d="M35.2026 30.9039C34.2958 30.8773 33.4765 30.7696 32.7592 30.5672C32.8079 30.2732 32.7167 29.9846 32.79 29.7728C32.9899 29.6288 33.325 29.6311 33.6272 29.5972C33.3659 29.4688 32.9987 29.418 32.6971 29.4922C32.6901 29.2881 32.5985 29.1616 32.5431 29.0019C33.0529 28.82 34.2565 27.6269 34.9336 28.022C35.2562 28.2099 35.3933 29.2832 35.4183 29.805C35.4391 30.2379 35.379 30.6747 35.2026 30.9039Z" fill="#D33833"/>
<path d="M35.2026 30.9039C34.2958 30.8773 33.4765 30.7696 32.7592 30.5672C32.8079 30.2732 32.7167 29.9846 32.79 29.7728C32.9899 29.6288 33.325 29.6311 33.6272 29.5972C33.3659 29.4688 32.9987 29.418 32.6971 29.4922C32.6901 29.2881 32.5985 29.1616 32.5431 29.0019C33.0529 28.82 34.2565 27.6269 34.9336 28.022C35.2562 28.2099 35.3933 29.2832 35.4183 29.805C35.4391 30.2379 35.379 30.6747 35.2026 30.9039Z" stroke="#D33833" stroke-width="2.5"/>
<path fill-rule="evenodd" clip-rule="evenodd" d="M30.8662 29.4215C30.8638 29.4901 30.8609 29.5592 30.8581 29.6285C30.575 29.8145 30.1179 29.8122 29.8072 29.9686C30.2652 29.9886 30.6258 30.0989 30.9378 30.2544C30.9309 30.4273 30.9244 30.5999 30.9176 30.7728C30.3986 31.1281 29.9245 31.6572 29.3135 31.9904C29.0246 32.1479 28.0106 32.5534 27.7032 32.4817C27.5293 32.4413 27.5137 32.2255 27.4441 32.0221C27.296 31.5865 26.955 30.893 26.9253 30.2373C26.8874 29.409 26.8038 28.0209 27.6963 28.1915C28.4165 28.3289 29.254 28.6606 29.8115 28.9652C30.1522 29.1515 30.3493 29.3818 30.8662 29.4215Z" fill="#D33833"/>
<path d="M30.8662 29.4215C30.8638 29.4901 30.8609 29.5592 30.8581 29.6285C30.575 29.8145 30.1179 29.8122 29.8072 29.9686C30.2652 29.9886 30.6258 30.0989 30.9378 30.2544C30.9309 30.4273 30.9244 30.5999 30.9176 30.7728C30.3986 31.1281 29.9245 31.6572 29.3135 31.9904C29.0246 32.1479 28.0106 32.5534 27.7032 32.4817C27.5293 32.4413 27.5137 32.2255 27.4441 32.0221C27.296 31.5865 26.955 30.893 26.9253 30.2373C26.8874 29.409 26.8038 28.0209 27.6963 28.1915C28.4165 28.3289 29.254 28.6606 29.8115 28.9652C30.1522 29.1515 30.3493 29.3818 30.8662 29.4215Z" stroke="#D33833" stroke-width="2.5"/>
<path fill-rule="evenodd" clip-rule="evenodd" d="M31.3816 30.4098C31.3024 29.9586 31.2109 29.8299 31.2463 29.4363C32.4496 28.634 32.6755 30.8143 31.3816 30.4098Z" fill="#D33833"/>
<path d="M31.3816 30.4098C31.3024 29.9586 31.2109 29.8299 31.2463 29.4363C32.4496 28.634 32.6755 30.8143 31.3816 30.4098Z" stroke="#D33833" stroke-width="2.5"/>
<path fill-rule="evenodd" clip-rule="evenodd" d="M33.1239 30.7755C33.1239 30.7755 32.7497 30.241 33.017 30.0806C33.2843 29.9203 33.5515 30.0808 33.7119 29.8135C33.8722 29.5463 33.7119 29.3859 33.7653 29.0653C33.8187 28.7446 34.0861 28.691 34.3532 28.6377C34.6203 28.5843 35.3687 28.4773 35.4755 28.7446L35.1549 27.7826L34.5135 27.5689L32.4826 28.7446L32.3757 29.3325V30.5082" fill="#EF3D3A"/>
<path fill-rule="evenodd" clip-rule="evenodd" d="M27.5124 32.5392C27.4482 31.7051 27.3803 30.8722 27.3047 30.0389C27.1915 28.7948 27.6035 29.0119 28.682 29.0119C28.8467 29.0119 29.6962 29.2083 29.757 29.3325C30.0485 29.9278 29.2696 29.7956 30.0927 30.2445C30.7876 30.6234 32.0151 30.0144 31.7344 29.1722C31.5772 28.9849 30.9157 29.1138 30.6786 28.9909C30.2611 28.7744 29.8436 28.558 29.426 28.3415C28.8948 28.0659 27.6671 27.6641 27.1007 28.0492C25.6657 29.0252 27.1913 31.4636 27.7032 32.4817" fill="#EF3D3A"/>
<path fill-rule="evenodd" clip-rule="evenodd" d="M28.9187 13.6039C27.4621 13.2647 26.7383 14.2135 26.2968 15.1976C25.9025 15.1021 26.0594 14.5659 26.159 14.2927C26.4197 13.5757 27.4704 12.6213 28.329 12.7506C28.6984 12.8063 29.1984 13.1441 28.9187 13.6039Z" fill="#231F20"/>
<path fill-rule="evenodd" clip-rule="evenodd" d="M36.016 15.2627C36.0389 15.2637 36.0622 15.2645 36.0851 15.2654C36.4142 15.9492 36.6992 16.6736 37.1144 17.2773C36.8362 17.9252 35.008 18.4985 35.0362 17.3351C35.4316 17.1623 36.1141 17.2999 36.4646 17.0791C36.2619 16.5229 35.9695 16.0495 36.016 15.2627Z" fill="#231F20"/>
<path fill-rule="evenodd" clip-rule="evenodd" d="M29.6645 15.2805C29.9768 15.8531 30.0785 16.4546 30.5224 16.8873C30.7223 17.0821 31.1112 17.3196 30.9184 17.8614C30.8734 17.9891 30.5442 18.274 30.3542 18.33C29.6602 18.5349 28.0429 18.3723 28.5906 17.507C29.1646 17.5338 29.9361 17.8798 30.3651 17.4631C30.0357 16.9364 29.4483 15.8944 29.6645 15.2805Z" fill="#231F20"/>
<path fill-rule="evenodd" clip-rule="evenodd" d="M35.7555 21.0995C34.7104 21.7709 33.5451 22.5008 31.8328 22.3315C31.4669 22.0134 31.3274 21.3056 31.6829 20.8381C31.8679 21.1561 31.7517 21.7412 32.2673 21.8292C33.2389 21.9955 34.3697 21.2349 35.0686 20.969C35.502 20.2384 35.0312 19.9697 34.6408 19.4994C33.8416 18.536 32.7695 17.3419 32.8084 15.8995C33.1315 15.6653 33.1594 16.2571 33.2057 16.3648C33.6231 17.3416 34.6734 18.5907 35.4399 19.4267C35.6281 19.6325 35.9381 19.8301 35.9725 19.9662C36.0719 20.362 35.7139 20.8363 35.7555 21.0995Z" fill="#231F20"/>
<path fill-rule="evenodd" clip-rule="evenodd" d="M21.9785 20.3928C21.6509 20.2059 21.573 19.3824 21.1884 19.359C20.6388 19.3257 20.7391 20.4273 20.7412 21.0715C20.363 20.7281 20.2964 19.6707 20.5743 19.1276C20.2576 18.9721 20.1162 19.2992 19.9405 19.4145C20.1663 17.7743 22.3399 18.6537 21.9785 20.3928Z" fill="#231F20"/>
<path fill-rule="evenodd" clip-rule="evenodd" d="M36.4208 21.7826C35.9344 22.7085 35.2462 23.7282 33.8188 23.7578C33.7898 23.4588 33.7675 23.0038 33.8204 22.8237C34.9116 22.7189 35.5853 22.1635 36.4208 21.7826Z" fill="#231F20"/>
<path fill-rule="evenodd" clip-rule="evenodd" d="M29.5822 22.3828C30.4926 22.8616 32.1658 22.9131 33.4032 22.8768C33.4696 23.1479 33.468 23.4829 33.4706 23.8135C31.8799 23.8928 29.9993 23.4992 29.5822 22.3828Z" fill="#231F20"/>
<path fill-rule="evenodd" clip-rule="evenodd" d="M29.4091 23.2756C30.0387 24.8563 32.2025 24.6743 34.0272 24.6307C33.9469 24.8359 33.7728 25.0783 33.5564 25.166C32.9716 25.404 31.3589 25.5845 30.5471 25.1534C30.0323 24.8797 29.7015 24.2613 29.4195 23.8988C29.2832 23.7237 28.605 23.2765 29.4091 23.2756Z" fill="#231F20"/>
<path fill-rule="evenodd" clip-rule="evenodd" d="M35.6795 31.9948C34.9407 33.2602 34.2338 34.5598 33.3572 35.6759C33.7247 34.5954 33.882 32.787 33.9375 31.4083C34.7062 31.0486 35.3646 31.4893 35.6795 31.9948Z" fill="#81B0C4"/>
<path fill-rule="evenodd" clip-rule="evenodd" d="M39.655 36.5426C38.8279 36.7082 38.2467 37.5121 37.4397 37.4605C37.8832 36.8353 38.6603 36.5718 39.655 36.5426Z" fill="#231F20"/>
<path fill-rule="evenodd" clip-rule="evenodd" d="M40.0199 37.8371C39.3457 37.9083 38.5539 38.0175 37.8701 37.9612C38.1938 37.4668 39.441 37.6374 40.0199 37.8371Z" fill="#231F20"/>
<path fill-rule="evenodd" clip-rule="evenodd" d="M40.2535 38.9531C39.4958 38.9696 38.554 38.9545 37.8338 38.894C38.2598 38.4365 39.7621 38.7242 40.2535 38.9531Z" fill="#231F20"/>
<path fill-rule="evenodd" clip-rule="evenodd" d="M34.2538 42.0073C34.3625 42.9589 34.7398 43.9231 34.6925 44.9652C34.2735 45.1065 34.0329 45.2301 33.4715 45.2293C33.4319 44.3436 33.3135 42.9897 33.3489 42.1454C33.625 42.1636 34.0321 41.9481 34.2538 42.0073Z" fill="#DCD9D8"/>
<path fill-rule="evenodd" clip-rule="evenodd" d="M33.0322 27.9829C32.6518 28.2312 32.3277 28.5413 31.9623 28.8065C31.152 28.8466 30.7098 28.7504 30.1145 28.2851C30.1243 28.2477 30.1841 28.2644 30.1864 28.2186C31.0537 28.6051 32.1563 28.0611 33.0322 27.9829Z" fill="#F0D6B7"/>
<path fill-rule="evenodd" clip-rule="evenodd" d="M28.4788 33.8955C28.7171 32.8628 29.6509 32.328 30.4988 31.7593C31.3741 32.8701 31.9064 34.2986 32.4926 35.6771C31.1076 35.2597 29.6925 34.5823 28.4788 33.8955Z" fill="#81B0C4"/>
<path fill-rule="evenodd" clip-rule="evenodd" d="M33.3489 42.1454C33.3135 42.9897 33.4319 44.3436 33.4715 45.2293C34.0329 45.2301 34.2735 45.1065 34.6925 44.9652C34.7398 43.9231 34.3625 42.9589 34.2538 42.0073C34.0321 41.9481 33.625 42.1636 33.3489 42.1454ZM24.6086 37.3437C24.9787 40.7463 25.5148 43.6067 26.4981 46.6199C28.6804 47.2825 31.3112 47.3403 33.2402 46.7423C32.886 45.0417 33.0407 42.9713 32.8337 41.1564C32.6777 39.7924 32.7573 38.4199 32.5434 37.0282C30.2061 36.542 26.9024 36.9146 24.6086 37.3437ZM33.096 37.0496C33.0763 38.511 33.1615 39.9525 33.273 41.4157C33.8342 41.3315 34.215 41.2752 34.7364 41.1609C34.5671 39.7523 34.5879 38.1672 34.2431 36.9211C33.8445 36.925 33.4935 36.9165 33.096 37.0496ZM35.9427 36.814C35.6764 36.753 35.3663 36.8117 35.1119 36.8166C35.2315 38.0079 35.5217 39.3224 35.6238 40.5729C36.0242 40.5853 36.238 40.3965 36.5674 40.333C36.585 39.2354 36.4715 37.7231 35.9427 36.814ZM40.253 40.7522C41.0876 40.5496 41.6123 39.5275 41.3789 38.4778C41.2222 37.7723 40.9433 36.444 40.6447 35.9927C40.4241 35.6589 39.8259 35.2218 39.3483 35.5277C38.5713 36.0252 37.2026 36.1697 36.636 36.7719C36.9201 37.7178 37.0083 39.0172 37.1255 40.2158C38.0961 40.2763 39.2904 39.9486 40.0977 40.2963C39.5341 40.4789 38.8029 40.4803 38.3159 40.7463C38.7139 40.9386 39.6456 40.8997 40.253 40.7522ZM32.4926 35.6771C31.9064 34.2986 31.3741 32.8701 30.4988 31.7593C29.6509 32.328 28.7171 32.8628 28.4788 33.8955C29.6925 34.5823 31.1076 35.2597 32.4926 35.6771ZM33.9375 31.4083C33.882 32.787 33.7247 34.5954 33.3572 35.6759C34.2338 34.5598 34.9406 33.2602 35.6795 31.9948C35.3646 31.4893 34.7062 31.0486 33.9375 31.4083ZM32.2995 30.8263C31.9675 30.7906 31.6856 31.2081 31.2538 31.0275C31.1549 31.1369 31.065 31.2554 30.9641 31.3622C31.9178 32.5114 32.3511 34.142 33.0877 35.4926C33.4829 34.1952 33.4374 32.7738 33.5244 31.3578C32.9814 31.3923 32.6801 30.8667 32.2995 30.8263ZM31.2463 29.4363C31.2109 29.8299 31.3024 29.9586 31.3816 30.4098C32.6755 30.8143 32.4496 28.634 31.2463 29.4363ZM29.8115 28.9652C29.254 28.6606 28.4165 28.3289 27.6963 28.1915C26.8038 28.0207 26.8874 29.409 26.9253 30.2373C26.955 30.893 27.296 31.5865 27.4441 32.0221C27.5136 32.2255 27.5293 32.4413 27.7032 32.4817C28.0106 32.5534 29.0246 32.1479 29.3135 31.9904C29.9245 31.6572 30.3986 31.1281 30.9176 30.7728C30.9244 30.5999 30.9309 30.4273 30.9378 30.2544C30.6258 30.0989 30.2652 29.9886 29.8072 29.9686C30.1179 29.8122 30.575 29.8145 30.8581 29.6285C30.8609 29.5592 30.8638 29.4901 30.8662 29.4215C30.3493 29.3818 30.1522 29.1515 29.8115 28.9652ZM24.4863 27.9979C24.0236 28.4677 25.7841 29.1081 26.3447 29.1425C26.3416 28.8453 26.5141 28.565 26.4793 28.3518C25.8136 28.2349 24.9387 28.312 24.4863 27.9979ZM30.1864 28.2186C30.1841 28.2644 30.1243 28.2477 30.1145 28.2851C30.7098 28.7504 31.152 28.8466 31.9623 28.8065C32.3277 28.5413 32.6518 28.2312 33.0322 27.9829C32.1563 28.0611 31.0538 28.6051 30.1864 28.2186ZM35.4183 29.805C35.3933 29.2832 35.2562 28.2099 34.9336 28.022C34.2565 27.6268 33.0529 28.82 32.5431 29.0019C32.5985 29.1616 32.6901 29.2881 32.6971 29.4922C32.9987 29.418 33.3659 29.4688 33.6272 29.5972C33.325 29.6311 32.9899 29.6288 32.79 29.7728C32.7167 29.9846 32.8079 30.2732 32.7592 30.5672C33.4765 30.7696 34.2958 30.8773 35.2026 30.9039C35.379 30.6747 35.4391 30.2379 35.4183 29.805ZM23.7074 28.4523C23.5621 28.3487 22.5791 27.0698 22.4444 27.1229C20.6658 27.8243 19.0027 29.0372 17.5165 30.1844C18.9335 33.2249 19.5055 36.95 19.6065 40.5404C21.2297 41.2996 22.6555 42.3941 24.8582 42.5084C24.6033 40.705 24.3706 39.096 24.2259 37.3981C23.6725 37.1648 22.8785 37.4087 22.3605 37.3258C22.3561 36.7016 23.1515 37.0525 23.2178 36.6327C23.2677 36.3153 22.7801 36.2912 22.9389 35.7913C23.3438 35.9385 23.5564 36.2636 23.9882 36.3857C24.3828 35.5225 23.9827 33.9951 24.0396 33.2736C24.0504 33.1382 24.1072 32.5231 24.4107 32.631C24.6792 32.7266 24.3953 34.2667 24.4248 34.9496C24.4516 35.5787 24.3488 36.1874 24.6036 36.5824C26.732 36.2927 28.8949 36.1054 31.1979 36.0422C30.6912 35.8248 30.0894 35.6191 29.4295 35.2471C29.0717 35.0455 27.9441 34.6259 27.8409 34.2861C27.6762 33.7447 28.273 33.4563 28.3751 32.9921C27.3007 33.5781 27.0911 32.4304 26.8369 31.6174C26.6067 30.881 26.4756 30.3309 26.4191 29.9062C25.4935 29.465 24.504 29.0181 23.7074 28.4523ZM34.4783 27.2776C35.9602 26.559 36.2273 29.9633 35.6464 31.0599C35.7362 31.387 36.045 31.5122 36.171 31.8063C35.344 33.2877 34.4255 34.6706 33.5817 36.1346C34.2094 35.7438 35.106 36.0647 35.8446 35.7722C36.1146 35.6654 36.31 35.0473 36.5145 34.5529C37.0767 33.1925 37.6671 31.4774 37.9297 30.1792C37.989 29.8834 38.1506 29.2389 38.1144 28.9756C38.0498 28.5043 37.4102 28.1547 37.0849 27.8633C36.4856 27.3249 36.1082 26.8511 35.483 26.3477C35.2296 26.7219 34.6856 26.9733 34.4783 27.2776ZM20.3182 14.1356C19.612 14.9125 19.7598 16.3684 19.8453 17.4041C21.1217 16.6012 22.8158 17.4676 22.7999 18.8333C23.4092 18.8171 23.0275 18.0722 22.9173 17.5923C22.5571 16.0249 23.5242 14.3221 22.9611 12.8887C21.8679 12.9716 20.9698 13.4181 20.3182 14.1356ZM25.3708 9.62612C23.7722 10.0792 21.7234 11.2408 21.0665 12.6769C21.5751 12.603 21.9283 12.3465 22.43 12.3147C22.6197 12.3024 22.8681 12.3942 23.0861 12.34C23.5204 12.2323 23.887 11.2584 24.2147 10.8961C24.5341 10.5423 24.918 10.3911 25.1807 10.0685C25.3495 9.98703 25.5991 9.99264 25.6087 9.73916C25.5355 9.66092 25.4585 9.60127 25.3708 9.62612ZM33.6925 10.0523C32.0332 9.11611 29.2247 8.41194 27.4597 9.29183C26.0355 10.0019 24.1104 11.1768 23.454 12.6657C24.0672 14.1024 23.2724 15.4189 23.2217 16.8776C23.1947 17.6537 23.5871 18.3313 23.6172 19.1762C23.4074 19.5224 22.7664 19.565 22.3226 19.5413C22.1733 18.7938 21.9118 17.9537 21.1421 17.8694C20.0529 17.7502 19.2566 18.6516 19.2071 19.5936C19.1486 20.7013 20.058 22.5372 21.3469 22.4098C21.8448 22.3606 21.9671 21.8614 22.5096 21.8666C22.8036 22.4532 22.056 22.6374 21.9791 23.057C21.9591 23.1654 22.0411 23.589 22.0888 23.7877C22.3229 24.7549 22.8448 26.0068 23.3585 26.7432C24.0105 27.6773 25.2914 27.818 26.6694 27.9096C26.9155 27.3794 27.8222 27.423 28.413 27.5617C27.705 27.2813 27.0467 26.6015 26.5012 25.9997C25.8746 25.3094 25.2399 24.5688 25.2078 23.6664C26.392 25.3092 27.3702 26.7438 29.5234 27.4664C31.1527 28.0128 33.0555 27.216 34.3073 26.3369C34.8268 25.9715 35.1369 25.3918 35.5061 24.8611C36.8877 22.8738 37.5324 20.0372 37.3907 17.2878C37.3323 16.154 37.3349 15.024 36.9544 14.2611C36.5568 13.4635 35.2119 12.7498 34.4247 13.4713C34.2788 12.6957 35.0793 12.2159 36.0197 12.4951C35.3492 11.6298 34.6455 10.59 33.6925 10.0523ZM36.7838 35.6358C38.0804 34.9912 40.503 33.9009 41.3159 35.6382C41.6159 36.2786 41.9678 37.3611 42.1231 38.0222C42.3426 38.9548 41.8852 40.915 40.9266 41.228C40.0799 41.5043 39.0919 41.4875 38.0721 41.2826C37.952 41.1828 37.8183 41.0086 37.7248 40.8271C36.9966 40.7989 36.3147 40.8662 35.7394 41.1656C35.7939 41.7041 35.4297 41.7906 35.0882 41.9015C34.835 42.9053 35.5946 44.2162 35.4128 45.1315C35.2831 45.7836 34.4808 45.8845 33.8911 46.0064C33.8719 46.3688 33.9169 46.6713 33.9572 46.9779C33.8223 47.4747 33.2176 47.7576 32.6446 47.8268C30.7592 48.0535 27.8966 48.1554 26.0832 47.5033C25.5772 46.262 25.1785 44.7524 24.757 43.335C22.9884 43.5239 21.5579 42.5719 20.2094 41.9481C19.7425 41.7317 19.0966 41.6125 18.9222 41.2408C18.7531 40.881 18.8223 40.1914 18.7803 39.54C18.6735 37.8762 18.5821 36.2715 18.1428 34.568C17.9455 33.8035 17.6016 33.129 17.3618 32.3924C17.1401 31.7098 16.7527 30.8661 16.6517 30.1853C16.5019 29.1764 17.452 29.1203 18.0595 28.683C18.9986 28.0069 19.7357 27.633 20.7528 27.0228C21.0541 26.8421 21.9625 26.3847 22.0659 26.174C22.2713 25.7564 21.7133 25.1675 21.5641 24.8401C21.3281 24.3224 21.205 23.8826 21.1712 23.3718C20.318 23.2369 19.6712 22.7292 19.2805 22.1566C18.6343 21.2091 18.1861 19.456 18.7452 18.1225C18.7891 18.0175 19.0078 17.811 19.04 17.6497C19.1037 17.3321 18.9203 16.9098 18.9089 16.572C18.8501 14.8388 19.2021 13.3455 20.3689 12.8228C20.8426 10.9359 22.5379 10.3085 24.1351 9.37072C24.7322 9.02023 25.3903 8.79625 26.07 8.54614C28.5084 7.64876 32.2495 7.81775 34.2732 9.34827C35.1313 9.99729 36.5029 11.3676 36.9935 12.3598C38.2893 14.9791 38.1973 19.3566 37.2909 22.5428C37.1691 22.9706 36.9924 23.5994 36.7457 24.1133C36.5736 24.4721 36.0389 25.1901 36.1038 25.5069C36.1707 25.8344 37.323 26.7094 37.5701 26.9476C38.015 27.3768 38.8603 27.9465 38.9287 28.4881C39.0023 29.0645 38.6748 29.853 38.5088 30.4092C37.9541 32.2653 37.4128 33.981 36.7838 35.6358Z" fill="#231F20"/>
<path fill-rule="evenodd" clip-rule="evenodd" d="M28.1335 22.7872C28.2038 22.6936 28.5906 22.5513 29.1317 22.8119C29.1317 22.8119 28.4904 22.9188 28.5437 23.9881L28.2765 23.9345C28.2765 23.9345 28.0003 22.965 28.1335 22.7872Z" fill="#F7E4CD"/>
<path fill-rule="evenodd" clip-rule="evenodd" d="M32.8193 31.9775C32.8193 32.1398 32.6877 32.2714 32.5253 32.2714C32.363 32.2714 32.2314 32.1398 32.2314 31.9775C32.2314 31.8153 32.363 31.6835 32.5253 31.6835C32.6877 31.6835 32.8193 31.8153 32.8193 31.9775Z" fill="#1D1919"/>
<path fill-rule="evenodd" clip-rule="evenodd" d="M33.1132 33.3403C33.1132 33.5026 32.9816 33.6342 32.8192 33.6342C32.6569 33.6342 32.5253 33.5026 32.5253 33.3403C32.5253 33.178 32.6569 33.0463 32.8192 33.0463C32.9816 33.0463 33.1132 33.178 33.1132 33.3403Z" fill="#1D1919"/>
</g>
<defs>
<filter id="filter0_d_1_62" x="2.28571" y="2.28571" width="51.4286" height="51.4286" filterUnits="userSpaceOnUse" color-interpolation-filters="sRGB">
<feFlood flood-opacity="0" result="BackgroundImageFix"/>
<feColorMatrix in="SourceAlpha" type="matrix" values="0 0 0 0 0 0 0 0 0 0 0 0 0 0 0 0 0 0 127 0" result="hardAlpha"/>
<feOffset/>
<feGaussianBlur stdDeviation="2.85714"/>
<feComposite in2="hardAlpha" operator="out"/>
<feColorMatrix type="matrix" values="0 0 0 0 0 0 0 0 0 0 0 0 0 0 0 0 0 0 0.25 0"/>
<feBlend mode="normal" in2="BackgroundImageFix" result="effect1_dropShadow_1_62"/>
<feBlend mode="normal" in="SourceGraphic" in2="effect1_dropShadow_1_62" result="shape"/>
</filter>
<linearGradient id="paint0_linear_1_62" x1="28" y1="0" x2="28" y2="56" gradientUnits="userSpaceOnUse">
<stop stop-color="#78251B"/>
<stop offset="1" stop-color="#41140F"/>
</linearGradient>
</defs>
</svg>
