<svg width="260" height="40" viewBox="0 0 260 40" fill="none" xmlns="http://www.w3.org/2000/svg">
<rect width="260.001" height="40.0014" rx="8" fill="url(#paint0_linear_1_56)"/>
<rect x="1.07143" y="1.07143" width="257.858" height="37.8585" rx="6.92857" stroke="white" stroke-opacity="0.15" stroke-width="2.14286"/>
<g filter="url(#filter0_d_1_56)">
<path d="M24.0093 20.7811C24.0093 16.2033 22.3967 14.1485 21.5123 13.3422C21.3562 13.1861 21.0701 13.3162 21.0961 13.5503C21.2522 16.1253 18.0009 16.7755 18.0009 20.8071V20.8331C18.0009 23.3041 19.8737 25.3069 22.1626 25.3069C24.4515 25.3069 26.3242 23.3041 26.3242 20.8331V20.8071C26.3242 19.6627 25.882 18.5703 25.4659 17.7379C25.3618 17.5819 25.1277 17.6339 25.1537 17.7899C25.9601 21.3273 24.0093 23.4602 24.0093 20.7811ZM19.0413 30.4309C18.9373 30.4309 18.8333 30.3789 18.7552 30.3009L8.11705 19.6627C7.96098 19.5066 7.96098 19.2465 8.11705 19.0905L19.3535 7.85404C19.4315 7.80202 19.5095 7.75 19.6136 7.75H22.8388C23.0209 7.75 23.151 7.88005 23.203 7.98409C23.255 8.11414 23.255 8.2702 23.0989 8.42627L12.5648 18.9864C12.3567 19.1945 12.3567 19.5326 12.5648 19.7407L20.9141 28.116C21.0701 28.2721 21.0701 28.5322 20.9141 28.6882L19.3014 30.3009C19.2494 30.3789 19.1454 30.4309 19.0413 30.4309ZM21.1742 32.2776C20.9921 32.2776 20.8621 32.1476 20.81 32.0435C20.758 31.9135 20.758 31.7574 20.9141 31.6014L31.4742 21.0412C31.5783 20.9372 31.6303 20.8071 31.6303 20.6511C31.6303 20.495 31.5783 20.365 31.4742 20.2609L23.0989 11.8856C22.9429 11.7296 22.9429 11.4695 23.0989 11.3134L24.7116 9.70077C24.7896 9.62274 24.8676 9.57072 24.9977 9.57072C25.1277 9.57072 25.1797 9.64875 25.2578 9.72678L35.8699 20.365C35.948 20.443 36 20.521 36 20.6511C36 20.7811 35.948 20.8592 35.8699 20.9372L24.6335 32.1736C24.5555 32.2516 24.4775 32.3036 24.3474 32.3036L21.1742 32.2776Z" fill="#FF6600"/>
</g>
<g filter="url(#filter1_d_1_56)">
<path d="M44.4041 26.5007H42.424L46.8732 14.1371H49.0284L53.4776 26.5007H51.4975L48.0021 16.3828H47.9055L44.4041 26.5007ZM44.7361 21.6591H51.1594V23.2287H44.7361V21.6591ZM61.8886 17.228L58.526 26.5007H56.5942L53.2256 17.228H55.1634L57.5118 24.3636H57.6084L59.9507 17.228H61.8886ZM66.0178 26.706C65.4302 26.706 64.899 26.5973 64.4241 26.38C63.9492 26.1586 63.5729 25.8386 63.2952 25.4201C63.0215 25.0015 62.8846 24.4884 62.8846 23.8807C62.8846 23.3575 62.9853 22.9268 63.1865 22.5888C63.3877 22.2507 63.6594 21.9831 64.0015 21.7859C64.3436 21.5886 64.7259 21.4397 65.1485 21.3391C65.5711 21.2385 66.0017 21.162 66.4404 21.1097C66.9958 21.0453 67.4466 20.993 67.7927 20.9528C68.1388 20.9085 68.3903 20.8381 68.5473 20.7415C68.7042 20.6449 68.7827 20.4879 68.7827 20.2706V20.2283C68.7827 19.7011 68.6338 19.2926 68.336 19.0028C68.0422 18.7131 67.6035 18.5682 67.0199 18.5682C66.4122 18.5682 65.9333 18.703 65.5832 18.9726C65.237 19.2383 64.9976 19.5341 64.8648 19.8601L63.1684 19.4737C63.3696 18.9103 63.6634 18.4555 64.0498 18.1094C64.4402 17.7592 64.8889 17.5057 65.396 17.3487C65.9031 17.1877 66.4364 17.1072 66.9958 17.1072C67.3661 17.1072 67.7585 17.1515 68.173 17.24C68.5916 17.3246 68.9819 17.4815 69.3442 17.7109C69.7104 17.9403 70.0102 18.2683 70.2437 18.6949C70.4771 19.1175 70.5938 19.6669 70.5938 20.343V26.5007H68.831V25.2329H68.7586C68.6419 25.4664 68.4668 25.6958 68.2334 25.9212C67.9999 26.1465 67.7001 26.3337 67.3339 26.4826C66.9676 26.6315 66.5289 26.706 66.0178 26.706ZM66.4102 25.2571C66.9093 25.2571 67.3359 25.1585 67.69 24.9613C68.0482 24.7641 68.3199 24.5065 68.505 24.1886C68.6942 23.8666 68.7888 23.5225 68.7888 23.1562V21.9609C68.7244 22.0253 68.5996 22.0857 68.4145 22.142C68.2334 22.1944 68.0261 22.2406 67.7927 22.2809C67.5592 22.3171 67.3319 22.3513 67.1105 22.3835C66.8891 22.4117 66.704 22.4358 66.5551 22.456C66.205 22.5002 65.885 22.5747 65.5952 22.6793C65.3095 22.784 65.0801 22.9349 64.907 23.1321C64.738 23.3253 64.6535 23.5828 64.6535 23.9048C64.6535 24.3515 64.8185 24.6896 65.1485 24.919C65.4785 25.1444 65.8991 25.2571 66.4102 25.2571ZM72.998 26.5007V17.228H74.8031V26.5007H72.998ZM73.9096 15.7972C73.5957 15.7972 73.326 15.6926 73.1006 15.4833C72.8793 15.27 72.7686 15.0164 72.7686 14.7226C72.7686 14.4248 72.8793 14.1713 73.1006 13.962C73.326 13.7487 73.5957 13.642 73.9096 13.642C74.2235 13.642 74.4911 13.7487 74.7125 13.962C74.9379 14.1713 75.0506 14.4248 75.0506 14.7226C75.0506 15.0164 74.9379 15.27 74.7125 15.4833C74.4911 15.6926 74.2235 15.7972 73.9096 15.7972ZM79.0365 14.1371V26.5007H77.2314V14.1371H79.0365ZM84.1633 26.706C83.5757 26.706 83.0445 26.5973 82.5696 26.38C82.0947 26.1586 81.7184 25.8386 81.4407 25.4201C81.167 25.0015 81.0301 24.4884 81.0301 23.8807C81.0301 23.3575 81.1308 22.9268 81.332 22.5888C81.5332 22.2507 81.8049 21.9831 82.147 21.7859C82.4891 21.5886 82.8714 21.4397 83.294 21.3391C83.7166 21.2385 84.1472 21.162 84.5859 21.1097C85.1413 21.0453 85.5921 20.993 85.9382 20.9528C86.2843 20.9085 86.5358 20.8381 86.6928 20.7415C86.8497 20.6449 86.9282 20.4879 86.9282 20.2706V20.2283C86.9282 19.7011 86.7793 19.2926 86.4815 19.0028C86.1877 18.7131 85.749 18.5682 85.1654 18.5682C84.5577 18.5682 84.0788 18.703 83.7287 18.9726C83.3825 19.2383 83.1431 19.5341 83.0103 19.8601L81.3139 19.4737C81.5151 18.9103 81.8089 18.4555 82.1953 18.1094C82.5857 17.7592 83.0344 17.5057 83.5415 17.3487C84.0486 17.1877 84.5819 17.1072 85.1413 17.1072C85.5116 17.1072 85.904 17.1515 86.3185 17.24C86.7371 17.3246 87.1274 17.4815 87.4897 17.7109C87.8559 17.9403 88.1557 18.2683 88.3892 18.6949C88.6226 19.1175 88.7393 19.6669 88.7393 20.343V26.5007H86.9765V25.2329H86.9041C86.7874 25.4664 86.6123 25.6958 86.3789 25.9212C86.1454 26.1465 85.8456 26.3337 85.4794 26.4826C85.1131 26.6315 84.6744 26.706 84.1633 26.706ZM84.5557 25.2571C85.0548 25.2571 85.4814 25.1585 85.8355 24.9613C86.1937 24.7641 86.4654 24.5065 86.6505 24.1886C86.8397 23.8666 86.9343 23.5225 86.9343 23.1562V21.9609C86.8699 22.0253 86.7451 22.0857 86.56 22.142C86.3789 22.1944 86.1716 22.2406 85.9382 22.2809C85.7047 22.3171 85.4774 22.3513 85.256 22.3835C85.0346 22.4117 84.8495 22.4358 84.7006 22.456C84.3505 22.5002 84.0305 22.5747 83.7407 22.6793C83.455 22.784 83.2256 22.9349 83.0525 23.1321C82.8835 23.3253 82.799 23.5828 82.799 23.9048C82.799 24.3515 82.964 24.6896 83.294 24.919C83.624 25.1444 84.0446 25.2571 84.5557 25.2571ZM91.2884 26.5007V14.1371H93.0934V18.7312H93.2021C93.3067 18.538 93.4577 18.3146 93.6549 18.0611C93.8521 17.8075 94.1258 17.5862 94.4759 17.397C94.826 17.2038 95.2889 17.1072 95.8644 17.1072C96.613 17.1072 97.2811 17.2964 97.8687 17.6747C98.4563 18.053 98.9171 18.5984 99.2511 19.3107C99.5892 20.0231 99.7582 20.8803 99.7582 21.8824C99.7582 22.8846 99.5912 23.7438 99.2571 24.4602C98.9231 25.1726 98.4643 25.7219 97.8807 26.1083C97.2972 26.4906 96.6311 26.6818 95.8825 26.6818C95.3191 26.6818 94.8582 26.5872 94.5 26.3981C94.1459 26.2089 93.8682 25.9876 93.667 25.734C93.4657 25.4805 93.3108 25.2551 93.2021 25.0579H93.0512V26.5007H91.2884ZM93.0572 21.8643C93.0572 22.5163 93.1518 23.0878 93.341 23.5788C93.5301 24.0698 93.8038 24.4542 94.162 24.7319C94.5202 25.0056 94.9589 25.1424 95.478 25.1424C96.0173 25.1424 96.4681 24.9995 96.8303 24.7138C97.1925 24.424 97.4662 24.0316 97.6513 23.5366C97.8405 23.0415 97.9351 22.4841 97.9351 21.8643C97.9351 21.2526 97.8425 20.7032 97.6574 20.2163C97.4763 19.7293 97.2026 19.3449 96.8363 19.0632C96.4741 18.7815 96.0214 18.6406 95.478 18.6406C94.9548 18.6406 94.5121 18.7754 94.1499 19.0451C93.7917 19.3147 93.5201 19.691 93.3349 20.174C93.1498 20.6569 93.0572 21.2204 93.0572 21.8643ZM103.59 14.1371V26.5007H101.785V14.1371H103.59ZM110.015 26.6878C109.101 26.6878 108.315 26.4926 107.655 26.1023C106.999 25.7078 106.491 25.1545 106.133 24.4421C105.779 23.7257 105.602 22.8866 105.602 21.9247C105.602 20.9749 105.779 20.1378 106.133 19.4133C106.491 18.6889 106.99 18.1234 107.63 17.717C108.274 17.3105 109.027 17.1072 109.888 17.1072C110.411 17.1072 110.918 17.1938 111.409 17.3668C111.9 17.5399 112.341 17.8115 112.732 18.1818C113.122 18.5521 113.43 19.033 113.655 19.6246C113.881 20.2122 113.993 20.9266 113.993 21.7677V22.4077H106.622V21.0554H112.224C112.224 20.5805 112.128 20.1599 111.935 19.7937C111.742 19.4234 111.47 19.1316 111.12 18.9183C110.774 18.705 110.367 18.5984 109.9 18.5984C109.393 18.5984 108.95 18.7231 108.572 18.9726C108.198 19.2181 107.908 19.5401 107.703 19.9386C107.502 20.333 107.401 20.7616 107.401 21.2244V22.2809C107.401 22.9007 107.51 23.4279 107.727 23.8626C107.948 24.2972 108.256 24.6292 108.651 24.8587C109.045 25.084 109.506 25.1967 110.033 25.1967C110.375 25.1967 110.687 25.1484 110.969 25.0518C111.251 24.9512 111.494 24.8023 111.699 24.6051C111.905 24.4079 112.061 24.1644 112.17 23.8746L113.879 24.1825C113.742 24.6856 113.496 25.1263 113.142 25.5046C112.792 25.8789 112.351 26.1707 111.82 26.38C111.293 26.5852 110.691 26.6878 110.015 26.6878ZM124.401 26.6878C123.532 26.6878 122.773 26.4886 122.125 26.0902C121.477 25.6917 120.974 25.1343 120.616 24.418C120.258 23.7016 120.079 22.8645 120.079 21.9066C120.079 20.9447 120.258 20.1036 120.616 19.3832C120.974 18.6627 121.477 18.1033 122.125 17.7049C122.773 17.3065 123.532 17.1072 124.401 17.1072C125.27 17.1072 126.029 17.3065 126.677 17.7049C127.325 18.1033 127.828 18.6627 128.186 19.3832C128.544 20.1036 128.723 20.9447 128.723 21.9066C128.723 22.8645 128.544 23.7016 128.186 24.418C127.828 25.1343 127.325 25.6917 126.677 26.0902C126.029 26.4886 125.27 26.6878 124.401 26.6878ZM124.407 25.1726C124.97 25.1726 125.437 25.0237 125.808 24.7258C126.178 24.428 126.452 24.0316 126.629 23.5366C126.81 23.0415 126.9 22.4962 126.9 21.9006C126.9 21.3089 126.81 20.7656 126.629 20.2706C126.452 19.7715 126.178 19.3711 125.808 19.0692C125.437 18.7674 124.97 18.6165 124.407 18.6165C123.84 18.6165 123.369 18.7674 122.994 19.0692C122.624 19.3711 122.348 19.7715 122.167 20.2706C121.99 20.7656 121.902 21.3089 121.902 21.9006C121.902 22.4962 121.99 23.0415 122.167 23.5366C122.348 24.0316 122.624 24.428 122.994 24.7258C123.369 25.0237 123.84 25.1726 124.407 25.1726ZM132.543 20.995V26.5007H130.738V17.228H132.471V18.7372H132.586C132.799 18.2462 133.133 17.8518 133.588 17.554C134.046 17.2561 134.624 17.1072 135.32 17.1072C135.952 17.1072 136.506 17.24 136.98 17.5057C137.455 17.7673 137.824 18.1577 138.085 18.6768C138.347 19.196 138.478 19.8379 138.478 20.6026V26.5007H136.673V20.8199C136.673 20.1478 136.497 19.6226 136.147 19.2443C135.797 18.862 135.316 18.6708 134.704 18.6708C134.286 18.6708 133.914 18.7614 133.588 18.9425C133.266 19.1236 133.01 19.3892 132.821 19.7393C132.636 20.0855 132.543 20.504 132.543 20.995Z" fill="#E8E8E8"/>
<path d="M151.62 17.3437C151.58 16.901 151.401 16.5569 151.083 16.3114C150.769 16.0619 150.32 15.9371 149.736 15.9371C149.35 15.9371 149.028 15.9874 148.771 16.0881C148.513 16.1887 148.32 16.3275 148.191 16.5046C148.062 16.6777 147.996 16.8769 147.992 17.1023C147.984 17.2874 148.02 17.4504 148.1 17.5913C148.185 17.7321 148.306 17.8569 148.463 17.9655C148.624 18.0702 148.817 18.1627 149.042 18.2432C149.268 18.3237 149.521 18.3942 149.803 18.4545L150.865 18.696C151.477 18.8288 152.016 19.0059 152.483 19.2273C152.954 19.4486 153.349 19.7122 153.666 20.0181C153.988 20.324 154.232 20.6761 154.397 21.0746C154.562 21.473 154.646 21.9197 154.651 22.4148C154.646 23.1955 154.449 23.8656 154.059 24.4251C153.669 24.9845 153.107 25.4131 152.375 25.7109C151.646 26.0087 150.767 26.1577 149.736 26.1577C148.702 26.1577 147.801 26.0027 147.032 25.6928C146.263 25.3829 145.666 24.912 145.239 24.2802C144.812 23.6483 144.593 22.8494 144.581 21.8835H147.442C147.467 22.2819 147.573 22.614 147.762 22.8796C147.952 23.1452 148.211 23.3465 148.541 23.4833C148.875 23.6201 149.262 23.6886 149.7 23.6886C150.103 23.6886 150.445 23.6342 150.727 23.5256C151.012 23.4169 151.232 23.266 151.385 23.0728C151.537 22.8796 151.616 22.6583 151.62 22.4087C151.616 22.1753 151.544 21.9761 151.403 21.8111C151.262 21.642 151.044 21.4971 150.751 21.3764C150.461 21.2516 150.091 21.1369 149.64 21.0323L148.348 20.7305C147.277 20.485 146.434 20.0885 145.818 19.5412C145.203 18.9898 144.897 18.2453 144.901 17.3075C144.897 16.5428 145.102 15.8727 145.517 15.2972C145.931 14.7217 146.505 14.273 147.237 13.951C147.97 13.629 148.805 13.468 149.742 13.468C150.7 13.468 151.531 13.631 152.236 13.957C152.944 14.279 153.493 14.7318 153.884 15.3153C154.274 15.8989 154.473 16.575 154.481 17.3437H151.62ZM160.488 26.1758C159.514 26.1758 158.677 25.9765 157.977 25.5781C157.281 25.1757 156.743 24.6162 156.365 23.8998C155.991 23.1794 155.804 22.3443 155.804 21.3945C155.804 20.4407 155.991 19.6056 156.365 18.8892C156.743 18.1688 157.281 17.6094 157.977 17.2109C158.677 16.8085 159.514 16.6072 160.488 16.6072C161.462 16.6072 162.297 16.8085 162.994 17.2109C163.694 17.6094 164.231 18.1688 164.605 18.8892C164.984 19.6056 165.173 20.4407 165.173 21.3945C165.173 22.3443 164.984 23.1794 164.605 23.8998C164.231 24.6162 163.694 25.1757 162.994 25.5781C162.297 25.9765 161.462 26.1758 160.488 26.1758ZM160.506 23.9481C160.861 23.9481 161.16 23.8395 161.406 23.6221C161.651 23.4048 161.838 23.103 161.967 22.7166C162.1 22.3302 162.166 21.8835 162.166 21.3764C162.166 20.8613 162.1 20.4105 161.967 20.0241C161.838 19.6378 161.651 19.3359 161.406 19.1186C161.16 18.9013 160.861 18.7926 160.506 18.7926C160.14 18.7926 159.83 18.9013 159.577 19.1186C159.327 19.3359 159.136 19.6378 159.003 20.0241C158.874 20.4105 158.81 20.8613 158.81 21.3764C158.81 21.8835 158.874 22.3302 159.003 22.7166C159.136 23.103 159.327 23.4048 159.577 23.6221C159.83 23.8395 160.14 23.9481 160.506 23.9481ZM172.668 21.9982V16.728H175.614V26.0007H172.801V24.2741H172.704C172.499 24.8416 172.149 25.2924 171.654 25.6264C171.163 25.9564 170.569 26.1214 169.873 26.1214C169.241 26.1214 168.685 25.9765 168.206 25.6868C167.728 25.397 167.355 24.9925 167.09 24.4734C166.824 23.9502 166.689 23.3384 166.685 22.6381V16.728H169.637V22.0586C169.641 22.5617 169.774 22.9581 170.036 23.2479C170.297 23.5376 170.653 23.6825 171.104 23.6825C171.398 23.6825 171.662 23.6181 171.895 23.4893C172.132 23.3565 172.32 23.1654 172.456 22.9158C172.597 22.6623 172.668 22.3564 172.668 21.9982ZM177.493 26.0007V16.728H180.36V18.4183H180.457C180.626 17.8066 180.902 17.3518 181.284 17.054C181.666 16.7521 182.111 16.6012 182.618 16.6012C182.755 16.6012 182.896 16.6113 183.041 16.6314C183.186 16.6475 183.32 16.6736 183.445 16.7099V19.2756C183.304 19.2273 183.119 19.189 182.89 19.1609C182.664 19.1327 182.463 19.1186 182.286 19.1186C181.936 19.1186 181.62 19.1971 181.338 19.354C181.061 19.507 180.841 19.7223 180.68 20C180.523 20.2737 180.445 20.5956 180.445 20.9659V26.0007H177.493ZM188.495 26.1758C187.517 26.1758 186.678 25.9745 185.978 25.5721C185.281 25.1696 184.746 24.6102 184.372 23.8938C183.998 23.1734 183.81 22.3403 183.81 21.3945C183.81 20.4447 183.998 19.6116 184.372 18.8952C184.75 18.1748 185.287 17.6134 185.984 17.2109C186.684 16.8085 187.519 16.6072 188.489 16.6072C189.346 16.6072 190.093 16.7622 190.729 17.0721C191.369 17.382 191.868 17.8207 192.226 18.3881C192.588 18.9516 192.779 19.6136 192.799 20.3743H190.041C189.984 19.8994 189.823 19.5271 189.558 19.2574C189.296 18.9878 188.954 18.853 188.531 18.853C188.189 18.853 187.889 18.9496 187.632 19.1427C187.374 19.3319 187.173 19.6136 187.028 19.9879C186.887 20.3582 186.817 20.817 186.817 21.3643C186.817 21.9117 186.887 22.3745 187.028 22.7528C187.173 23.1271 187.374 23.4109 187.632 23.604C187.889 23.7932 188.189 23.8878 188.531 23.8878C188.805 23.8878 189.046 23.8294 189.256 23.7127C189.469 23.596 189.644 23.4249 189.781 23.1996C189.918 22.9702 190.004 22.6925 190.041 22.3665H192.799C192.771 23.1311 192.58 23.7992 192.226 24.3707C191.876 24.9422 191.383 25.3869 190.747 25.7049C190.115 26.0188 189.364 26.1758 188.495 26.1758ZM198.645 26.1758C197.675 26.1758 196.838 25.9846 196.133 25.6023C195.433 25.2159 194.894 24.6665 194.515 23.9542C194.141 23.2378 193.954 22.3866 193.954 21.4006C193.954 20.4427 194.143 19.6056 194.521 18.8892C194.9 18.1688 195.433 17.6094 196.121 17.2109C196.809 16.8085 197.62 16.6072 198.554 16.6072C199.214 16.6072 199.818 16.7099 200.365 16.9151C200.913 17.1204 201.385 17.4242 201.784 17.8267C202.182 18.2292 202.492 18.7262 202.714 19.3178C202.935 19.9054 203.046 20.5795 203.046 21.3402V22.0767H194.986V20.3622H200.299C200.295 20.0483 200.22 19.7686 200.075 19.5231C199.931 19.2776 199.731 19.0864 199.478 18.9496C199.228 18.8087 198.94 18.7383 198.614 18.7383C198.284 18.7383 197.989 18.8127 197.727 18.9616C197.465 19.1065 197.258 19.3057 197.105 19.5593C196.952 19.8088 196.872 20.0926 196.864 20.4105V22.1552C196.864 22.5335 196.938 22.8655 197.087 23.1513C197.236 23.433 197.447 23.6523 197.721 23.8093C197.995 23.9663 198.321 24.0447 198.699 24.0447C198.961 24.0447 199.198 24.0085 199.411 23.9361C199.625 23.8636 199.808 23.757 199.961 23.6161C200.114 23.4752 200.228 23.3022 200.305 23.0969L203.015 23.1754C202.903 23.7831 202.655 24.3124 202.273 24.7631C201.895 25.2099 201.397 25.558 200.782 25.8075C200.166 26.053 199.454 26.1758 198.645 26.1758ZM204.553 26.0007V13.6371H212.993V16.0639H207.542V18.5994H212.456V21.0323H207.542V26.0007H204.553ZM218.145 26.1758C217.171 26.1758 216.334 25.9765 215.634 25.5781C214.938 25.1757 214.401 24.6162 214.022 23.8998C213.648 23.1794 213.461 22.3443 213.461 21.3945C213.461 20.4407 213.648 19.6056 214.022 18.8892C214.401 18.1688 214.938 17.6094 215.634 17.2109C216.334 16.8085 217.171 16.6072 218.145 16.6072C219.119 16.6072 219.955 16.8085 220.651 17.2109C221.351 17.6094 221.888 18.1688 222.263 18.8892C222.641 19.6056 222.83 20.4407 222.83 21.3945C222.83 22.3443 222.641 23.1794 222.263 23.8998C221.888 24.6162 221.351 25.1757 220.651 25.5781C219.955 25.9765 219.119 26.1758 218.145 26.1758ZM218.164 23.9481C218.518 23.9481 218.818 23.8395 219.063 23.6221C219.309 23.4048 219.496 23.103 219.624 22.7166C219.757 22.3302 219.824 21.8835 219.824 21.3764C219.824 20.8613 219.757 20.4105 219.624 20.0241C219.496 19.6378 219.309 19.3359 219.063 19.1186C218.818 18.9013 218.518 18.7926 218.164 18.7926C217.797 18.7926 217.487 18.9013 217.234 19.1186C216.984 19.3359 216.793 19.6378 216.66 20.0241C216.532 20.4105 216.467 20.8613 216.467 21.3764C216.467 21.8835 216.532 22.3302 216.66 22.7166C216.793 23.103 216.984 23.4048 217.234 23.6221C217.487 23.8395 217.797 23.9481 218.164 23.9481ZM224.342 26.0007V16.728H227.21V18.4183H227.306C227.476 17.8066 227.751 17.3518 228.134 17.054C228.516 16.7521 228.961 16.6012 229.468 16.6012C229.605 16.6012 229.745 16.6113 229.89 16.6314C230.035 16.6475 230.17 16.6736 230.295 16.7099V19.2756C230.154 19.2273 229.969 19.189 229.739 19.1609C229.514 19.1327 229.313 19.1186 229.136 19.1186C228.786 19.1186 228.47 19.1971 228.188 19.354C227.91 19.507 227.691 19.7223 227.53 20C227.373 20.2737 227.294 20.5956 227.294 20.9659V26.0007H224.342ZM235.339 29.6712C234.457 29.6712 233.703 29.5484 233.075 29.3029C232.447 29.0574 231.954 28.7213 231.596 28.2947C231.238 27.8681 231.022 27.3852 230.95 26.8459L233.745 26.6889C233.797 26.8781 233.894 27.0431 234.035 27.1839C234.18 27.3248 234.367 27.4335 234.596 27.5099C234.83 27.5864 235.103 27.6246 235.417 27.6246C235.912 27.6246 236.321 27.5039 236.643 27.2624C236.969 27.025 237.132 26.6084 237.132 26.0128V24.3828H237.029C236.912 24.6685 236.735 24.9241 236.498 25.1495C236.26 25.3749 235.964 25.552 235.61 25.6807C235.26 25.8095 234.858 25.8739 234.403 25.8739C233.727 25.8739 233.107 25.717 232.544 25.403C231.984 25.0851 231.535 24.5941 231.197 23.93C230.863 23.2619 230.696 22.4027 230.696 21.3523C230.696 20.2696 230.869 19.3782 231.215 18.6779C231.562 17.9736 232.014 17.4524 232.574 17.1143C233.137 16.7763 233.743 16.6072 234.391 16.6072C234.878 16.6072 235.294 16.6918 235.64 16.8608C235.991 17.0258 236.278 17.2391 236.504 17.5007C236.729 17.7623 236.9 18.034 237.017 18.3157H237.101V16.728H240.041V26.0369C240.041 26.8217 239.844 27.4838 239.45 28.0231C239.055 28.5624 238.504 28.9709 237.796 29.2486C237.087 29.5303 236.268 29.6712 235.339 29.6712ZM235.429 23.7248C235.787 23.7248 236.093 23.6302 236.347 23.441C236.6 23.2519 236.796 22.9802 236.932 22.6261C237.069 22.2719 237.138 21.8473 237.138 21.3523C237.138 20.8492 237.069 20.4165 236.932 20.0543C236.8 19.6881 236.604 19.4064 236.347 19.2092C236.093 19.0119 235.787 18.9133 235.429 18.9133C235.063 18.9133 234.753 19.014 234.499 19.2152C234.246 19.4164 234.053 19.7002 233.92 20.0664C233.791 20.4286 233.727 20.8572 233.727 21.3523C233.727 21.8473 233.793 22.2719 233.926 22.6261C234.059 22.9802 234.25 23.2519 234.499 23.441C234.753 23.6302 235.063 23.7248 235.429 23.7248ZM246.258 26.1758C245.288 26.1758 244.451 25.9846 243.747 25.6023C243.046 25.2159 242.507 24.6665 242.129 23.9542C241.754 23.2378 241.567 22.3866 241.567 21.4006C241.567 20.4427 241.756 19.6056 242.135 18.8892C242.513 18.1688 243.046 17.6094 243.734 17.2109C244.423 16.8085 245.234 16.6072 246.167 16.6072C246.827 16.6072 247.431 16.7099 247.978 16.9151C248.526 17.1204 248.999 17.4242 249.397 17.8267C249.796 18.2292 250.105 18.7262 250.327 19.3178C250.548 19.9054 250.659 20.5795 250.659 21.3402V22.0767H242.6V20.3622H247.912C247.908 20.0483 247.834 19.7686 247.689 19.5231C247.544 19.2776 247.345 19.0864 247.091 18.9496C246.841 18.8087 246.554 18.7383 246.228 18.7383C245.898 18.7383 245.602 18.8127 245.34 18.9616C245.079 19.1065 244.871 19.3057 244.718 19.5593C244.566 19.8088 244.485 20.0926 244.477 20.4105V22.1552C244.477 22.5335 244.551 22.8655 244.7 23.1513C244.849 23.433 245.061 23.6523 245.334 23.8093C245.608 23.9663 245.934 24.0447 246.312 24.0447C246.574 24.0447 246.811 24.0085 247.025 23.9361C247.238 23.8636 247.421 23.757 247.574 23.6161C247.727 23.4752 247.842 23.3022 247.918 23.0969L250.629 23.1754C250.516 23.7831 250.268 24.3124 249.886 24.7631C249.508 25.2099 249.011 25.558 248.395 25.8075C247.779 26.053 247.067 26.1758 246.258 26.1758Z" fill="#FF6600"/>
</g>
<defs>
<filter id="filter0_d_1_56" x="2.39972" y="0.39972" width="39.202" height="39.202" filterUnits="userSpaceOnUse" color-interpolation-filters="sRGB">
<feFlood flood-opacity="0" result="BackgroundImageFix"/>
<feColorMatrix in="SourceAlpha" type="matrix" values="0 0 0 0 0 0 0 0 0 0 0 0 0 0 0 0 0 0 127 0" result="hardAlpha"/>
<feOffset/>
<feGaussianBlur stdDeviation="2.80014"/>
<feComposite in2="hardAlpha" operator="out"/>
<feColorMatrix type="matrix" values="0 0 0 0 0 0 0 0 0 0 0 0 0 0 0 0 0 0 0.25 0"/>
<feBlend mode="normal" in2="BackgroundImageFix" result="effect1_dropShadow_1_56"/>
<feBlend mode="normal" in="SourceGraphic" in2="effect1_dropShadow_1_56" result="shape"/>
</filter>
<filter id="filter1_d_1_56" x="36.2871" y="3.78642" width="221.429" height="32.4286" filterUnits="userSpaceOnUse" color-interpolation-filters="sRGB">
<feFlood flood-opacity="0" result="BackgroundImageFix"/>
<feColorMatrix in="SourceAlpha" type="matrix" values="0 0 0 0 0 0 0 0 0 0 0 0 0 0 0 0 0 0 127 0" result="hardAlpha"/>
<feOffset/>
<feGaussianBlur stdDeviation="2.85714"/>
<feComposite in2="hardAlpha" operator="out"/>
<feColorMatrix type="matrix" values="0 0 0 0 0 0 0 0 0 0 0 0 0 0 0 0 0 0 0.25 0"/>
<feBlend mode="normal" in2="BackgroundImageFix" result="effect1_dropShadow_1_56"/>
<feBlend mode="normal" in="SourceGraphic" in2="effect1_dropShadow_1_56" result="shape"/>
</filter>
<linearGradient id="paint0_linear_1_56" x1="130.001" y1="0" x2="130.001" y2="40.0014" gradientUnits="userSpaceOnUse">
<stop stop-color="#8C3800"/>
<stop offset="1" stop-color="#662900"/>
</linearGradient>
</defs>
</svg>
