<svg width="40" height="40" viewBox="0 0 40 40" fill="none" xmlns="http://www.w3.org/2000/svg">
<rect width="40" height="40" rx="8" fill="url(#paint0_linear_1_68)"/>
<rect x="1.05" y="1.05" width="37.9" height="37.9" rx="6.95" stroke="white" stroke-opacity="0.15" stroke-width="2.1"/>
<g filter="url(#filter0_d_1_68)">
<path d="M22.0093 20.7811C22.0093 16.2033 20.3967 14.1485 19.5123 13.3422C19.3562 13.1861 19.0701 13.3162 19.0961 13.5503C19.2522 16.1253 16.0009 16.7755 16.0009 20.8071V20.8331C16.0009 23.3041 17.8737 25.3069 20.1626 25.3069C22.4515 25.3069 24.3242 23.3041 24.3242 20.8331V20.8071C24.3242 19.6627 23.882 18.5703 23.4659 17.7379C23.3618 17.5819 23.1277 17.6339 23.1537 17.7899C23.9601 21.3273 22.0093 23.4602 22.0093 20.7811ZM17.0413 30.4309C16.9373 30.4309 16.8333 30.3789 16.7552 30.3009L6.11705 19.6627C5.96098 19.5066 5.96098 19.2465 6.11705 19.0905L17.3535 7.85404C17.4315 7.80202 17.5095 7.75 17.6136 7.75H20.8388C21.0209 7.75 21.151 7.88005 21.203 7.98409C21.255 8.11414 21.255 8.2702 21.0989 8.42627L10.5648 18.9864C10.3567 19.1945 10.3567 19.5326 10.5648 19.7407L18.9141 28.116C19.0701 28.2721 19.0701 28.5322 18.9141 28.6882L17.3014 30.3009C17.2494 30.3789 17.1454 30.4309 17.0413 30.4309ZM19.1742 32.2776C18.9921 32.2776 18.8621 32.1476 18.81 32.0435C18.758 31.9135 18.758 31.7574 18.9141 31.6014L29.4742 21.0412C29.5783 20.9372 29.6303 20.8071 29.6303 20.6511C29.6303 20.495 29.5783 20.365 29.4742 20.2609L21.0989 11.8856C20.9429 11.7296 20.9429 11.4695 21.0989 11.3134L22.7116 9.70077C22.7896 9.62274 22.8676 9.57072 22.9977 9.57072C23.1277 9.57072 23.1797 9.64875 23.2578 9.72678L33.8699 20.365C33.948 20.443 34 20.521 34 20.6511C34 20.7811 33.948 20.8592 33.8699 20.9372L22.6335 32.1736C22.5555 32.2516 22.4775 32.3036 22.3474 32.3036L19.1742 32.2776Z" fill="#FF6600"/>
</g>
<defs>
<filter id="filter0_d_1_68" x="2" y="2" width="36" height="36" filterUnits="userSpaceOnUse" color-interpolation-filters="sRGB">
<feFlood flood-opacity="0" result="BackgroundImageFix"/>
<feColorMatrix in="SourceAlpha" type="matrix" values="0 0 0 0 0 0 0 0 0 0 0 0 0 0 0 0 0 0 127 0" result="hardAlpha"/>
<feOffset/>
<feGaussianBlur stdDeviation="2"/>
<feComposite in2="hardAlpha" operator="out"/>
<feColorMatrix type="matrix" values="0 0 0 0 0 0 0 0 0 0 0 0 0 0 0 0 0 0 0.25 0"/>
<feBlend mode="normal" in2="BackgroundImageFix" result="effect1_dropShadow_1_68"/>
<feBlend mode="normal" in="SourceGraphic" in2="effect1_dropShadow_1_68" result="shape"/>
</filter>
<linearGradient id="paint0_linear_1_68" x1="20" y1="0" x2="20" y2="40" gradientUnits="userSpaceOnUse">
<stop stop-color="#8C3800"/>
<stop offset="1" stop-color="#662900"/>
</linearGradient>
</defs>
</svg>
