<svg width="180" height="56" viewBox="0 0 180 56" fill="none" xmlns="http://www.w3.org/2000/svg">
<rect width="180" height="56" rx="8" fill="url(#paint0_linear_1_50)"/>
<rect x="1.05" y="1.05" width="177.9" height="53.9" rx="6.95" stroke="white" stroke-opacity="0.15" stroke-width="2.1"/>
<g filter="url(#filter0_d_1_50)">
<path d="M34.8704 29.1159C34.8704 22.5762 32.5667 19.6407 31.3033 18.4889C31.0804 18.2659 30.6716 18.4517 30.7088 18.7861C30.9317 22.4647 26.287 23.3936 26.287 29.153V29.1902C26.287 32.7202 28.9624 35.5813 32.2322 35.5813C35.5021 35.5813 38.1774 32.7202 38.1774 29.1902V29.153C38.1774 27.5181 37.5457 25.9575 36.9512 24.7685C36.8026 24.5455 36.4682 24.6198 36.5053 24.8428C37.6572 29.8962 34.8704 32.9431 34.8704 29.1159ZM27.7733 42.9013C27.6247 42.9013 27.4761 42.827 27.3646 42.7155L12.1672 27.5181C11.9443 27.2952 11.9443 26.9236 12.1672 26.7007L28.2192 10.6486C28.3307 10.5743 28.4422 10.5 28.5908 10.5H33.1983C33.4584 10.5 33.6442 10.6858 33.7185 10.8344C33.7928 11.0202 33.7928 11.2431 33.5699 11.4661L18.5211 26.552C18.2239 26.8493 18.2239 27.3323 18.5211 27.6296L30.4487 39.5943C30.6716 39.8172 30.6716 40.1888 30.4487 40.4118L28.1449 42.7155C28.0706 42.827 27.922 42.9013 27.7733 42.9013ZM30.8203 45.5395C30.5601 45.5395 30.3744 45.3537 30.3 45.2051C30.2257 45.0193 30.2257 44.7963 30.4487 44.5734L45.5346 29.4875C45.6832 29.3388 45.7575 29.153 45.7575 28.9301C45.7575 28.7072 45.6832 28.5214 45.5346 28.3727L33.5699 16.408C33.347 16.1851 33.347 15.8135 33.5699 15.5906L35.8737 13.2868C35.9851 13.1753 36.0966 13.101 36.2824 13.101C36.4682 13.101 36.5425 13.2125 36.654 13.324L51.8142 28.5214C51.9257 28.6328 52 28.7443 52 28.9301C52 29.1159 51.9257 29.2274 51.8142 29.3388L35.7622 45.3909C35.6507 45.5023 35.5392 45.5766 35.3535 45.5766L30.8203 45.5395Z" fill="#FF6600"/>
</g>
<g filter="url(#filter1_d_1_50)">
<path d="M62.2613 24.5H60.3977L64.5852 12.8636H66.6136L70.8011 24.5H68.9375L65.6477 14.9773H65.5568L62.2613 24.5ZM62.5738 19.9432H68.6193V21.4204H62.5738V19.9432ZM78.7173 15.7727L75.5525 24.5H73.7344L70.5639 15.7727H72.3878L74.598 22.4886H74.6889L76.8934 15.7727H78.7173ZM82.6037 24.6932C82.0506 24.6932 81.5506 24.5909 81.1037 24.3864C80.6567 24.178 80.3025 23.8769 80.0412 23.4829C79.7836 23.089 79.6548 22.6061 79.6548 22.0341C79.6548 21.5417 79.7495 21.1364 79.9389 20.8182C80.1283 20.5 80.384 20.2481 80.7059 20.0625C81.0279 19.8769 81.3878 19.7367 81.7855 19.642C82.1832 19.5473 82.5885 19.4754 83.0014 19.4261C83.5241 19.3655 83.9484 19.3163 84.2741 19.2784C84.5999 19.2367 84.8366 19.1704 84.9844 19.0795C85.1321 18.9886 85.2059 18.8409 85.2059 18.6364V18.5966C85.2059 18.1004 85.0658 17.7159 84.7855 17.4432C84.509 17.1704 84.0961 17.0341 83.5469 17.0341C82.9749 17.0341 82.5241 17.161 82.1946 17.4148C81.8688 17.6648 81.6434 17.9432 81.5184 18.25L79.9219 17.8864C80.1112 17.3561 80.3878 16.928 80.7514 16.6023C81.1188 16.2727 81.5412 16.0341 82.0184 15.8864C82.4957 15.7348 82.9976 15.6591 83.5241 15.6591C83.8726 15.6591 84.2419 15.7008 84.6321 15.7841C85.026 15.8636 85.3934 16.0114 85.7344 16.2273C86.079 16.4432 86.3612 16.7519 86.5809 17.1534C86.8006 17.5511 86.9105 18.0682 86.9105 18.7045V24.5H85.2514V23.3068H85.1832C85.0734 23.5265 84.9086 23.7424 84.6889 23.9545C84.4692 24.1667 84.187 24.3428 83.8423 24.4829C83.4976 24.6231 83.0847 24.6932 82.6037 24.6932ZM82.973 23.3295C83.4427 23.3295 83.8442 23.2367 84.1775 23.0511C84.5147 22.8655 84.7703 22.6231 84.9446 22.3239C85.1226 22.0208 85.2116 21.697 85.2116 21.3523V20.2273C85.151 20.2879 85.0336 20.3447 84.8594 20.3977C84.6889 20.447 84.4938 20.4905 84.2741 20.5284C84.0544 20.5625 83.8404 20.5947 83.6321 20.625C83.4237 20.6515 83.2495 20.6742 83.1094 20.6932C82.7798 20.7348 82.4787 20.8049 82.2059 20.9034C81.937 21.0019 81.7211 21.1439 81.5582 21.3295C81.3991 21.5114 81.3196 21.7538 81.3196 22.0568C81.3196 22.4773 81.4749 22.7954 81.7855 23.0114C82.0961 23.2235 82.4919 23.3295 82.973 23.3295ZM89.1733 24.5V15.7727H90.8721V24.5H89.1733ZM90.0312 14.4261C89.7358 14.4261 89.482 14.3276 89.2699 14.1307C89.0615 13.9299 88.9574 13.6913 88.9574 13.4148C88.9574 13.1345 89.0615 12.8958 89.2699 12.6989C89.482 12.4981 89.7358 12.3977 90.0312 12.3977C90.3267 12.3977 90.5786 12.4981 90.7869 12.6989C90.999 12.8958 91.1051 13.1345 91.1051 13.4148C91.1051 13.6913 90.999 13.9299 90.7869 14.1307C90.5786 14.3276 90.3267 14.4261 90.0312 14.4261ZM94.8565 12.8636V24.5H93.1576V12.8636H94.8565ZM99.6818 24.6932C99.1288 24.6932 98.6288 24.5909 98.1818 24.3864C97.7348 24.178 97.3807 23.8769 97.1193 23.4829C96.8617 23.089 96.7329 22.6061 96.7329 22.0341C96.7329 21.5417 96.8276 21.1364 97.017 20.8182C97.2064 20.5 97.4621 20.2481 97.7841 20.0625C98.106 19.8769 98.4659 19.7367 98.8636 19.642C99.2613 19.5473 99.6666 19.4754 100.08 19.4261C100.602 19.3655 101.026 19.3163 101.352 19.2784C101.678 19.2367 101.915 19.1704 102.062 19.0795C102.21 18.9886 102.284 18.8409 102.284 18.6364V18.5966C102.284 18.1004 102.144 17.7159 101.864 17.4432C101.587 17.1704 101.174 17.0341 100.625 17.0341C100.053 17.0341 99.6022 17.161 99.2727 17.4148C98.9469 17.6648 98.7216 17.9432 98.5966 18.25L97 17.8864C97.1894 17.3561 97.4659 16.928 97.8295 16.6023C98.1969 16.2727 98.6193 16.0341 99.0966 15.8864C99.5738 15.7348 100.076 15.6591 100.602 15.6591C100.951 15.6591 101.32 15.7008 101.71 15.7841C102.104 15.8636 102.472 16.0114 102.812 16.2273C103.157 16.4432 103.439 16.7519 103.659 17.1534C103.879 17.5511 103.989 18.0682 103.989 18.7045V24.5H102.33V23.3068H102.261C102.151 23.5265 101.987 23.7424 101.767 23.9545C101.547 24.1667 101.265 24.3428 100.92 24.4829C100.576 24.6231 100.163 24.6932 99.6818 24.6932ZM100.051 23.3295C100.521 23.3295 100.922 23.2367 101.256 23.0511C101.593 22.8655 101.848 22.6231 102.023 22.3239C102.201 22.0208 102.29 21.697 102.29 21.3523V20.2273C102.229 20.2879 102.112 20.3447 101.937 20.3977C101.767 20.447 101.572 20.4905 101.352 20.5284C101.133 20.5625 100.919 20.5947 100.71 20.625C100.502 20.6515 100.328 20.6742 100.187 20.6932C99.8579 20.7348 99.5568 20.8049 99.2841 20.9034C99.0151 21.0019 98.7992 21.1439 98.6363 21.3295C98.4772 21.5114 98.3977 21.7538 98.3977 22.0568C98.3977 22.4773 98.553 22.7954 98.8636 23.0114C99.1742 23.2235 99.57 23.3295 100.051 23.3295ZM106.388 24.5V12.8636H108.087V17.1875H108.189C108.287 17.0057 108.429 16.7954 108.615 16.5568C108.801 16.3182 109.058 16.1098 109.388 15.9318C109.717 15.75 110.153 15.6591 110.695 15.6591C111.399 15.6591 112.028 15.8371 112.581 16.1932C113.134 16.5492 113.568 17.0625 113.882 17.7329C114.2 18.4034 114.359 19.2102 114.359 20.1534C114.359 21.0966 114.202 21.9053 113.888 22.5795C113.573 23.25 113.142 23.767 112.592 24.1307C112.043 24.4905 111.416 24.6704 110.712 24.6704C110.181 24.6704 109.748 24.5814 109.41 24.4034C109.077 24.2254 108.816 24.017 108.626 23.7784C108.437 23.5398 108.291 23.3276 108.189 23.142H108.047V24.5H106.388ZM108.053 20.1364C108.053 20.75 108.142 21.2879 108.32 21.75C108.498 22.2121 108.755 22.5739 109.092 22.8352C109.429 23.0928 109.842 23.2216 110.331 23.2216C110.839 23.2216 111.263 23.0871 111.604 22.8182C111.945 22.5454 112.202 22.1761 112.376 21.7102C112.554 21.2443 112.643 20.7197 112.643 20.1364C112.643 19.5606 112.556 19.0436 112.382 18.5852C112.212 18.1269 111.954 17.7651 111.609 17.5C111.268 17.2348 110.842 17.1023 110.331 17.1023C109.839 17.1023 109.422 17.2292 109.081 17.4829C108.744 17.7367 108.488 18.0909 108.314 18.5454C108.14 19 108.053 19.5303 108.053 20.1364ZM117.966 12.8636V24.5H116.267V12.8636H117.966ZM124.013 24.6761C123.153 24.6761 122.412 24.4924 121.791 24.125C121.174 23.7538 120.696 23.2329 120.359 22.5625C120.026 21.8883 119.859 21.0985 119.859 20.1932C119.859 19.2992 120.026 18.5114 120.359 17.8295C120.696 17.1477 121.166 16.6155 121.768 16.2329C122.374 15.8504 123.083 15.6591 123.893 15.6591C124.386 15.6591 124.863 15.7405 125.325 15.9034C125.787 16.0663 126.202 16.322 126.57 16.6704C126.937 17.0189 127.227 17.4716 127.439 18.0284C127.651 18.5814 127.757 19.2538 127.757 20.0454V20.6477H120.82V19.375H126.092C126.092 18.928 126.001 18.5322 125.82 18.1875C125.638 17.839 125.382 17.5644 125.053 17.3636C124.727 17.1629 124.344 17.0625 123.905 17.0625C123.428 17.0625 123.011 17.1799 122.655 17.4148C122.303 17.6458 122.03 17.9489 121.837 18.3239C121.647 18.6951 121.553 19.0985 121.553 19.5341V20.5284C121.553 21.1117 121.655 21.6079 121.859 22.017C122.068 22.4261 122.357 22.7386 122.729 22.9545C123.1 23.1667 123.534 23.2727 124.03 23.2727C124.352 23.2727 124.645 23.2273 124.91 23.1364C125.176 23.0417 125.405 22.9015 125.598 22.7159C125.791 22.5303 125.939 22.3011 126.041 22.0284L127.649 22.3182C127.52 22.7917 127.289 23.2064 126.956 23.5625C126.626 23.9148 126.212 24.1894 125.712 24.3864C125.215 24.5795 124.649 24.6761 124.013 24.6761ZM137.553 24.6761C136.734 24.6761 136.02 24.4886 135.41 24.1136C134.801 23.7386 134.327 23.214 133.99 22.5398C133.653 21.8655 133.484 21.0776 133.484 20.1761C133.484 19.2708 133.653 18.4792 133.99 17.8011C134.327 17.1231 134.801 16.5966 135.41 16.2216C136.02 15.8466 136.734 15.6591 137.553 15.6591C138.371 15.6591 139.085 15.8466 139.695 16.2216C140.304 16.5966 140.778 17.1231 141.115 17.8011C141.452 18.4792 141.621 19.2708 141.621 20.1761C141.621 21.0776 141.452 21.8655 141.115 22.5398C140.778 23.214 140.304 23.7386 139.695 24.1136C139.085 24.4886 138.371 24.6761 137.553 24.6761ZM137.558 23.25C138.089 23.25 138.528 23.1098 138.876 22.8295C139.225 22.5492 139.482 22.1761 139.649 21.7102C139.82 21.2443 139.905 20.7311 139.905 20.1704C139.905 19.6136 139.82 19.1023 139.649 18.6364C139.482 18.1667 139.225 17.7898 138.876 17.5057C138.528 17.2216 138.089 17.0795 137.558 17.0795C137.024 17.0795 136.581 17.2216 136.229 17.5057C135.88 17.7898 135.621 18.1667 135.45 18.6364C135.284 19.1023 135.2 19.6136 135.2 20.1704C135.2 20.7311 135.284 21.2443 135.45 21.7102C135.621 22.1761 135.88 22.5492 136.229 22.8295C136.581 23.1098 137.024 23.25 137.558 23.25ZM145.216 19.3182V24.5H143.517V15.7727H145.148V17.1932H145.256C145.456 16.7311 145.771 16.3598 146.199 16.0795C146.631 15.7992 147.174 15.6591 147.83 15.6591C148.424 15.6591 148.945 15.7841 149.392 16.0341C149.839 16.2803 150.186 16.6477 150.432 17.1364C150.678 17.625 150.801 18.2292 150.801 18.9489V24.5H149.102V19.1534C149.102 18.5208 148.937 18.0265 148.608 17.6704C148.278 17.3106 147.826 17.1307 147.25 17.1307C146.856 17.1307 146.506 17.2159 146.199 17.3864C145.896 17.5568 145.655 17.8068 145.477 18.1364C145.303 18.4621 145.216 18.8561 145.216 19.3182Z" fill="#E8E8E8"/>
<path d="M67.6186 34.843C67.5783 34.4003 67.3992 34.0562 67.0813 33.8107C66.7674 33.5612 66.3186 33.4364 65.7351 33.4364C65.3487 33.4364 65.0267 33.4867 64.7692 33.5873C64.5116 33.688 64.3184 33.8268 64.1896 34.0039C64.0608 34.177 63.9944 34.3762 63.9904 34.6016C63.9823 34.7867 64.0186 34.9497 64.0991 35.0905C64.1836 35.2314 64.3043 35.3562 64.4613 35.4648C64.6223 35.5695 64.8154 35.662 65.0408 35.7425C65.2662 35.823 65.5198 35.8935 65.8015 35.9538L66.864 36.1953C67.4757 36.3281 68.015 36.5052 68.4819 36.7266C68.9528 36.9479 69.3472 37.2115 69.6651 37.5174C69.9871 37.8233 70.2306 38.1754 70.3956 38.5739C70.5606 38.9723 70.6451 39.419 70.6491 39.9141C70.6451 40.6948 70.4479 41.3649 70.0575 41.9243C69.6671 42.4838 69.1057 42.9124 68.3732 43.2102C67.6448 43.508 66.7654 43.6569 65.7351 43.6569C64.7007 43.6569 63.7992 43.502 63.0305 43.1921C62.2618 42.8822 61.6642 42.4113 61.2376 41.7795C60.8109 41.1476 60.5916 40.3487 60.5795 39.3828H63.441C63.4652 39.7812 63.5718 40.1133 63.761 40.3789C63.9501 40.6445 64.2097 40.8458 64.5398 40.9826C64.8738 41.1194 65.2602 41.1878 65.6988 41.1878C66.1013 41.1878 66.4434 41.1335 66.7251 41.0248C67.0109 40.9162 67.2302 40.7653 67.3832 40.5721C67.5361 40.3789 67.6146 40.1575 67.6186 39.908C67.6146 39.6746 67.5421 39.4754 67.4013 39.3104C67.2604 39.1413 67.0431 38.9964 66.7493 38.8757C66.4595 38.7509 66.0892 38.6362 65.6385 38.5316L64.3466 38.2297C63.276 37.9842 62.4329 37.5878 61.8171 37.0405C61.2013 36.4891 60.8955 35.7445 60.8995 34.8068C60.8955 34.0421 61.1007 33.372 61.5153 32.7965C61.9298 32.221 62.5033 31.7722 63.2358 31.4503C63.9683 31.1283 64.8034 30.9673 65.7411 30.9673C66.699 30.9673 67.53 31.1303 68.2344 31.4563C68.9427 31.7783 69.4921 32.2311 69.8824 32.8146C70.2728 33.3982 70.472 34.0743 70.4801 34.843H67.6186ZM76.4868 43.6751C75.5129 43.6751 74.6758 43.4758 73.9755 43.0774C73.2792 42.6749 72.7419 42.1155 72.3636 41.3991C71.9893 40.6787 71.8022 39.8436 71.8022 38.8938C71.8022 37.94 71.9893 37.1049 72.3636 36.3885C72.7419 35.6681 73.2792 35.1087 73.9755 34.7102C74.6758 34.3078 75.5129 34.1065 76.4868 34.1065C77.4608 34.1065 78.2959 34.3078 78.9922 34.7102C79.6925 35.1087 80.2297 35.6681 80.604 36.3885C80.9823 37.1049 81.1715 37.94 81.1715 38.8938C81.1715 39.8436 80.9823 40.6787 80.604 41.3991C80.2297 42.1155 79.6925 42.6749 78.9922 43.0774C78.2959 43.4758 77.4608 43.6751 76.4868 43.6751ZM76.505 41.4474C76.8591 41.4474 77.159 41.3388 77.4045 41.1214C77.65 40.9041 77.8371 40.6023 77.9659 40.2159C78.0987 39.8295 78.1651 39.3828 78.1651 38.8757C78.1651 38.3605 78.0987 37.9098 77.9659 37.5234C77.8371 37.1371 77.65 36.8352 77.4045 36.6179C77.159 36.4006 76.8591 36.2919 76.505 36.2919C76.1387 36.2919 75.8288 36.4006 75.5753 36.6179C75.3257 36.8352 75.1346 37.1371 75.0018 37.5234C74.873 37.9098 74.8086 38.3605 74.8086 38.8757C74.8086 39.3828 74.873 39.8295 75.0018 40.2159C75.1346 40.6023 75.3257 40.9041 75.5753 41.1214C75.8288 41.3388 76.1387 41.4474 76.505 41.4474ZM88.6663 39.4975V34.2273H91.6124V43.5H88.7992V41.7734H88.7026C88.4973 42.3409 88.1472 42.7917 87.6521 43.1257C87.1611 43.4557 86.5675 43.6207 85.8712 43.6207C85.2394 43.6207 84.684 43.4758 84.2051 43.1861C83.7261 42.8963 83.3538 42.4918 83.0882 41.9726C82.8226 41.4494 82.6878 40.8377 82.6837 40.1374V34.2273H85.6358V39.5579C85.6398 40.061 85.7726 40.4574 86.0342 40.7471C86.2958 41.0369 86.652 41.1818 87.1028 41.1818C87.3966 41.1818 87.6602 41.1174 87.8936 40.9886C88.1311 40.8558 88.3182 40.6646 88.4551 40.4151C88.5959 40.1616 88.6663 39.8557 88.6663 39.4975ZM93.4914 43.5V34.2273H96.3589V35.9176H96.4555C96.6245 35.3059 96.9002 34.8511 97.2826 34.5533C97.6649 34.2514 98.1096 34.1005 98.6167 34.1005C98.7536 34.1005 98.8944 34.1105 99.0393 34.1307C99.1842 34.1468 99.319 34.1729 99.4438 34.2092V36.7748C99.3029 36.7266 99.1178 36.6883 98.8884 36.6601C98.663 36.632 98.4618 36.6179 98.2847 36.6179C97.9345 36.6179 97.6186 36.6964 97.3369 36.8533C97.0592 37.0063 96.8398 37.2216 96.6789 37.4993C96.5219 37.773 96.4434 38.0949 96.4434 38.4652V43.5H93.4914ZM104.494 43.6751C103.516 43.6751 102.677 43.4738 101.976 43.0714C101.28 42.6689 100.745 42.1095 100.37 41.3931C99.9962 40.6727 99.809 39.8396 99.809 38.8938C99.809 37.944 99.9962 37.1109 100.37 36.3945C100.749 35.6741 101.286 35.1127 101.982 34.7102C102.683 34.3078 103.518 34.1065 104.488 34.1065C105.345 34.1065 106.091 34.2615 106.727 34.5714C107.367 34.8813 107.866 35.3199 108.224 35.8874C108.587 36.4509 108.778 37.1129 108.798 37.8736H106.039C105.983 37.3987 105.822 37.0264 105.556 36.7567C105.295 36.4871 104.952 36.3523 104.53 36.3523C104.188 36.3523 103.888 36.4489 103.63 36.642C103.373 36.8312 103.172 37.1129 103.027 37.4872C102.886 37.8575 102.815 38.3163 102.815 38.8636C102.815 39.411 102.886 39.8738 103.027 40.2521C103.172 40.6264 103.373 40.9101 103.63 41.1033C103.888 41.2925 104.188 41.3871 104.53 41.3871C104.804 41.3871 105.045 41.3287 105.254 41.212C105.468 41.0953 105.643 40.9242 105.78 40.6989C105.916 40.4694 106.003 40.1918 106.039 39.8658H108.798C108.77 40.6304 108.579 41.2985 108.224 41.87C107.874 42.4415 107.381 42.8862 106.745 43.2042C106.114 43.5181 105.363 43.6751 104.494 43.6751ZM114.643 43.6751C113.673 43.6751 112.836 43.4839 112.132 43.1016C111.432 42.7152 110.892 42.1658 110.514 41.4535C110.14 40.7371 109.953 39.8859 109.953 38.8998C109.953 37.942 110.142 37.1049 110.52 36.3885C110.898 35.6681 111.432 35.1087 112.12 34.7102C112.808 34.3078 113.619 34.1065 114.553 34.1065C115.213 34.1065 115.816 34.2092 116.364 34.4144C116.911 34.6197 117.384 34.9235 117.782 35.326C118.181 35.7284 118.491 36.2255 118.712 36.8171C118.934 37.4047 119.044 38.0788 119.044 38.8395V39.576H110.985V37.8615H116.297C116.293 37.5476 116.219 37.2679 116.074 37.0224C115.929 36.7769 115.73 36.5857 115.476 36.4489C115.227 36.308 114.939 36.2376 114.613 36.2376C114.283 36.2376 113.987 36.312 113.726 36.4609C113.464 36.6058 113.257 36.805 113.104 37.0586C112.951 37.3081 112.87 37.5918 112.862 37.9098V39.6545C112.862 40.0328 112.937 40.3648 113.086 40.6506C113.235 40.9323 113.446 41.1516 113.72 41.3086C113.993 41.4655 114.319 41.544 114.698 41.544C114.959 41.544 115.197 41.5078 115.41 41.4354C115.623 41.3629 115.806 41.2563 115.959 41.1154C116.112 40.9745 116.227 40.8015 116.303 40.5962L119.014 40.6747C118.901 41.2824 118.654 41.8117 118.271 42.2624C117.893 42.7092 117.396 43.0573 116.78 43.3068C116.165 43.5523 115.452 43.6751 114.643 43.6751ZM120.552 43.5V31.1364H128.992V33.5632H123.54V36.0987H128.454V38.5316H123.54V43.5H120.552ZM134.144 43.6751C133.17 43.6751 132.333 43.4758 131.633 43.0774C130.936 42.6749 130.399 42.1155 130.021 41.3991C129.647 40.6787 129.459 39.8436 129.459 38.8938C129.459 37.94 129.647 37.1049 130.021 36.3885C130.399 35.6681 130.936 35.1087 131.633 34.7102C132.333 34.3078 133.17 34.1065 134.144 34.1065C135.118 34.1065 135.953 34.3078 136.649 34.7102C137.35 35.1087 137.887 35.6681 138.261 36.3885C138.64 37.1049 138.829 37.94 138.829 38.8938C138.829 39.8436 138.64 40.6787 138.261 41.3991C137.887 42.1155 137.35 42.6749 136.649 43.0774C135.953 43.4758 135.118 43.6751 134.144 43.6751ZM134.162 41.4474C134.516 41.4474 134.816 41.3388 135.062 41.1214C135.307 40.9041 135.494 40.6023 135.623 40.2159C135.756 39.8295 135.822 39.3828 135.822 38.8757C135.822 38.3605 135.756 37.9098 135.623 37.5234C135.494 37.1371 135.307 36.8352 135.062 36.6179C134.816 36.4006 134.516 36.2919 134.162 36.2919C133.796 36.2919 133.486 36.4006 133.232 36.6179C132.983 36.8352 132.792 37.1371 132.659 37.5234C132.53 37.9098 132.466 38.3605 132.466 38.8757C132.466 39.3828 132.53 39.8295 132.659 40.2159C132.792 40.6023 132.983 40.9041 133.232 41.1214C133.486 41.3388 133.796 41.4474 134.162 41.4474ZM140.341 43.5V34.2273H143.209V35.9176H143.305C143.474 35.3059 143.75 34.8511 144.132 34.5533C144.514 34.2514 144.959 34.1005 145.466 34.1005C145.603 34.1005 145.744 34.1105 145.889 34.1307C146.034 34.1468 146.169 34.1729 146.293 34.2092V36.7748C146.153 36.7266 145.967 36.6883 145.738 36.6601C145.513 36.632 145.311 36.6179 145.134 36.6179C144.784 36.6179 144.468 36.6964 144.186 36.8533C143.909 37.0063 143.689 37.2216 143.528 37.4993C143.371 37.773 143.293 38.0949 143.293 38.4652V43.5H140.341ZM151.337 47.1704C150.456 47.1704 149.701 47.0477 149.073 46.8022C148.446 46.5567 147.953 46.2206 147.594 45.794C147.236 45.3674 147.021 44.8845 146.948 44.3452L149.743 44.1882C149.796 44.3774 149.892 44.5424 150.033 44.6832C150.178 44.8241 150.365 44.9328 150.595 45.0092C150.828 45.0857 151.102 45.1239 151.416 45.1239C151.911 45.1239 152.319 45.0032 152.641 44.7617C152.967 44.5243 153.13 44.1077 153.13 43.5121V41.8821H153.028C152.911 42.1678 152.734 42.4234 152.496 42.6488C152.259 42.8742 151.963 43.0512 151.609 43.18C151.259 43.3088 150.856 43.3732 150.402 43.3732C149.725 43.3732 149.106 43.2163 148.542 42.9023C147.983 42.5844 147.534 42.0934 147.196 41.4293C146.862 40.7612 146.695 39.902 146.695 38.8516C146.695 37.7689 146.868 36.8775 147.214 36.1772C147.56 35.4729 148.013 34.9517 148.572 34.6136C149.136 34.2756 149.741 34.1065 150.389 34.1065C150.876 34.1065 151.293 34.191 151.639 34.3601C151.989 34.5251 152.277 34.7384 152.502 35C152.728 35.2616 152.899 35.5333 153.015 35.815H153.1V34.2273H156.04V43.5362C156.04 44.321 155.843 44.9831 155.448 45.5224C155.054 46.0617 154.503 46.4702 153.794 46.7479C153.086 47.0296 152.267 47.1704 151.337 47.1704ZM151.428 41.2241C151.786 41.2241 152.092 41.1295 152.345 40.9403C152.599 40.7512 152.794 40.4795 152.931 40.1253C153.068 39.7712 153.136 39.3466 153.136 38.8516C153.136 38.3485 153.068 37.9158 152.931 37.5536C152.798 37.1874 152.603 36.9056 152.345 36.7084C152.092 36.5112 151.786 36.4126 151.428 36.4126C151.062 36.4126 150.752 36.5132 150.498 36.7145C150.245 36.9157 150.051 37.1994 149.919 37.5657C149.79 37.9279 149.725 38.3565 149.725 38.8516C149.725 39.3466 149.792 39.7712 149.925 40.1253C150.057 40.4795 150.249 40.7512 150.498 40.9403C150.752 41.1295 151.062 41.2241 151.428 41.2241ZM162.257 43.6751C161.287 43.6751 160.449 43.4839 159.745 43.1016C159.045 42.7152 158.506 42.1658 158.127 41.4535C157.753 40.7371 157.566 39.8859 157.566 38.8998C157.566 37.942 157.755 37.1049 158.133 36.3885C158.512 35.6681 159.045 35.1087 159.733 34.7102C160.421 34.3078 161.232 34.1065 162.166 34.1065C162.826 34.1065 163.43 34.2092 163.977 34.4144C164.524 34.6197 164.997 34.9235 165.396 35.326C165.794 35.7284 166.104 36.2255 166.325 36.8171C166.547 37.4047 166.657 38.0788 166.657 38.8395V39.576H158.598V37.8615H163.911C163.907 37.5476 163.832 37.2679 163.687 37.0224C163.542 36.7769 163.343 36.5857 163.09 36.4489C162.84 36.308 162.552 36.2376 162.226 36.2376C161.896 36.2376 161.601 36.312 161.339 36.4609C161.077 36.6058 160.87 36.805 160.717 37.0586C160.564 37.3081 160.484 37.5918 160.476 37.9098V39.6545C160.476 40.0328 160.55 40.3648 160.699 40.6506C160.848 40.9323 161.059 41.1516 161.333 41.3086C161.607 41.4655 161.933 41.544 162.311 41.544C162.572 41.544 162.81 41.5078 163.023 41.4354C163.237 41.3629 163.42 41.2563 163.573 41.1154C163.726 40.9745 163.84 40.8015 163.917 40.5962L166.627 40.6747C166.515 41.2824 166.267 41.8117 165.885 42.2624C165.506 42.7092 165.009 43.0573 164.394 43.3068C163.778 43.5523 163.065 43.6751 162.257 43.6751Z" fill="#FF6600"/>
</g>
<defs>
<filter id="filter0_d_1_50" x="6.28571" y="2.28571" width="51.4286" height="51.4286" filterUnits="userSpaceOnUse" color-interpolation-filters="sRGB">
<feFlood flood-opacity="0" result="BackgroundImageFix"/>
<feColorMatrix in="SourceAlpha" type="matrix" values="0 0 0 0 0 0 0 0 0 0 0 0 0 0 0 0 0 0 127 0" result="hardAlpha"/>
<feOffset/>
<feGaussianBlur stdDeviation="2.85714"/>
<feComposite in2="hardAlpha" operator="out"/>
<feColorMatrix type="matrix" values="0 0 0 0 0 0 0 0 0 0 0 0 0 0 0 0 0 0 0.25 0"/>
<feBlend mode="normal" in2="BackgroundImageFix" result="effect1_dropShadow_1_50"/>
<feBlend mode="normal" in="SourceGraphic" in2="effect1_dropShadow_1_50" result="shape"/>
</filter>
<filter id="filter1_d_1_50" x="54.4" y="3.9" width="119.2" height="48.8704" filterUnits="userSpaceOnUse" color-interpolation-filters="sRGB">
<feFlood flood-opacity="0" result="BackgroundImageFix"/>
<feColorMatrix in="SourceAlpha" type="matrix" values="0 0 0 0 0 0 0 0 0 0 0 0 0 0 0 0 0 0 127 0" result="hardAlpha"/>
<feOffset/>
<feGaussianBlur stdDeviation="2.8"/>
<feComposite in2="hardAlpha" operator="out"/>
<feColorMatrix type="matrix" values="0 0 0 0 0 0 0 0 0 0 0 0 0 0 0 0 0 0 0.25 0"/>
<feBlend mode="normal" in2="BackgroundImageFix" result="effect1_dropShadow_1_50"/>
<feBlend mode="normal" in="SourceGraphic" in2="effect1_dropShadow_1_50" result="shape"/>
</filter>
<linearGradient id="paint0_linear_1_50" x1="90" y1="0" x2="90" y2="56" gradientUnits="userSpaceOnUse">
<stop stop-color="#8C3800"/>
<stop offset="1" stop-color="#662900"/>
</linearGradient>
</defs>
</svg>
