<svg width="56" height="56" viewBox="0 0 56 56" fill="none" xmlns="http://www.w3.org/2000/svg">
<rect width="56" height="56" rx="8.4" fill="url(#paint0_linear_1_62)"/>
<rect x="1.05" y="1.05" width="53.9" height="53.9" rx="7.35" stroke="white" stroke-opacity="0.15" stroke-width="2.1"/>
<g filter="url(#filter0_d_1_62)">
<path d="M30.8704 29.1159C30.8704 22.5762 28.5667 19.6407 27.3033 18.4889C27.0804 18.2659 26.6716 18.4517 26.7088 18.7861C26.9317 22.4647 22.287 23.3936 22.287 29.153V29.1902C22.287 32.7202 24.9624 35.5813 28.2322 35.5813C31.5021 35.5813 34.1774 32.7202 34.1774 29.1902V29.153C34.1774 27.5181 33.5457 25.9575 32.9512 24.7685C32.8026 24.5455 32.4682 24.6198 32.5053 24.8428C33.6572 29.8962 30.8704 32.9431 30.8704 29.1159ZM23.7733 42.9013C23.6247 42.9013 23.4761 42.827 23.3646 42.7155L8.16721 27.5181C7.94426 27.2952 7.94426 26.9236 8.16721 26.7007L24.2192 10.6486C24.3307 10.5743 24.4422 10.5 24.5908 10.5H29.1983C29.4584 10.5 29.6442 10.6858 29.7185 10.8344C29.7928 11.0202 29.7928 11.2431 29.5699 11.4661L14.5211 26.552C14.2239 26.8493 14.2239 27.3323 14.5211 27.6296L26.4487 39.5943C26.6716 39.8172 26.6716 40.1888 26.4487 40.4118L24.1449 42.7155C24.0706 42.827 23.922 42.9013 23.7733 42.9013ZM26.8203 45.5395C26.5601 45.5395 26.3744 45.3537 26.3 45.2051C26.2257 45.0193 26.2257 44.7963 26.4487 44.5734L41.5346 29.4875C41.6832 29.3388 41.7575 29.153 41.7575 28.9301C41.7575 28.7072 41.6832 28.5214 41.5346 28.3727L29.5699 16.408C29.347 16.1851 29.347 15.8135 29.5699 15.5906L31.8737 13.2868C31.9851 13.1753 32.0966 13.101 32.2824 13.101C32.4682 13.101 32.5425 13.2125 32.654 13.324L47.8142 28.5214C47.9257 28.6328 48 28.7443 48 28.9301C48 29.1159 47.9257 29.2274 47.8142 29.3388L31.7622 45.3909C31.6507 45.5023 31.5392 45.5766 31.3535 45.5766L26.8203 45.5395Z" fill="#FF6600"/>
</g>
<defs>
<filter id="filter0_d_1_62" x="2.28571" y="2.28571" width="51.4286" height="51.4286" filterUnits="userSpaceOnUse" color-interpolation-filters="sRGB">
<feFlood flood-opacity="0" result="BackgroundImageFix"/>
<feColorMatrix in="SourceAlpha" type="matrix" values="0 0 0 0 0 0 0 0 0 0 0 0 0 0 0 0 0 0 127 0" result="hardAlpha"/>
<feOffset/>
<feGaussianBlur stdDeviation="2.85714"/>
<feComposite in2="hardAlpha" operator="out"/>
<feColorMatrix type="matrix" values="0 0 0 0 0 0 0 0 0 0 0 0 0 0 0 0 0 0 0.25 0"/>
<feBlend mode="normal" in2="BackgroundImageFix" result="effect1_dropShadow_1_62"/>
<feBlend mode="normal" in="SourceGraphic" in2="effect1_dropShadow_1_62" result="shape"/>
</filter>
<linearGradient id="paint0_linear_1_62" x1="28" y1="0" x2="28" y2="56" gradientUnits="userSpaceOnUse">
<stop stop-color="#8C3800"/>
<stop offset="1" stop-color="#662900"/>
</linearGradient>
</defs>
</svg>
