<svg width="40" height="40" viewBox="0 0 40 40" fill="none" xmlns="http://www.w3.org/2000/svg">
<rect width="40" height="40" rx="8" fill="url(#paint0_linear_1_68)"/>
<rect x="1.05" y="1.05" width="37.9" height="37.9" rx="6.95" stroke="white" stroke-opacity="0.15" stroke-width="2.1"/>
<g filter="url(#filter0_d_1_68)">
<path d="M26.9116 18.9775C26.7911 18.9197 26.6688 18.864 26.5448 18.8107C26.3289 14.8285 24.1554 12.5486 20.5057 12.5253C20.4892 12.5252 20.4727 12.5252 20.4562 12.5252C18.2732 12.5252 16.4577 13.458 15.3402 15.1555L17.3474 16.534C18.1822 15.266 19.4923 14.9957 20.4572 14.9957C20.4683 14.9957 20.4795 14.9957 20.4905 14.9958C21.6922 15.0035 22.599 15.3533 23.1859 16.0354C23.613 16.532 23.8987 17.2182 24.0401 18.0843C22.9747 17.903 21.8224 17.8473 20.5906 17.918C17.1207 18.1181 14.89 20.1441 15.0398 22.9592C15.1158 24.3872 15.8264 25.6157 17.0406 26.4183C18.0672 27.0967 19.3894 27.4285 20.7636 27.3534C22.5783 27.2538 24.002 26.5606 24.9952 25.2932C25.7494 24.3307 26.2265 23.0834 26.4371 21.5117C27.302 22.0342 27.9429 22.7218 28.2969 23.5484C28.8988 24.9535 28.9339 27.2625 27.052 29.1449C25.4032 30.794 23.4212 31.5074 20.4258 31.5294C17.1032 31.5048 14.5903 30.438 12.9565 28.3587C11.4266 26.4117 10.6359 23.5995 10.6064 20C10.6359 16.4005 11.4266 13.5882 12.9565 11.6412C14.5903 9.56196 17.1031 8.49521 20.4258 8.47049C23.7725 8.4954 26.3292 9.56729 28.0255 11.6566C28.8573 12.6811 29.4844 13.9696 29.8979 15.4719L32.25 14.8437C31.7489 12.9945 30.9604 11.401 29.8874 10.0795C27.7126 7.40097 24.5321 6.02846 20.434 6H20.4176C16.3278 6.02836 13.1829 7.4061 11.0701 10.0949C9.18999 12.4876 8.22019 15.8169 8.1876 19.9902L8.1875 20L8.1876 20.0098C8.22019 24.1831 9.18999 27.5125 11.0701 29.9051C13.1829 32.5939 16.3278 33.9717 20.4176 34H20.434C24.07 33.9748 26.6329 33.0217 28.7443 30.9099C31.5066 28.1471 31.4235 24.684 30.513 22.5581C29.8598 21.0335 28.6145 19.7953 26.9116 18.9775ZM20.6337 24.8864C19.1129 24.9722 17.5329 24.2888 17.455 22.8251C17.3973 21.7398 18.2265 20.5288 20.727 20.3845C21.0134 20.368 21.2944 20.3599 21.5704 20.3599C22.4787 20.3599 23.3284 20.4482 24.1009 20.6173C23.8127 24.2197 22.1227 24.8046 20.6337 24.8864Z" fill="white"/>
</g>
<defs>
<filter id="filter0_d_1_68" x="2" y="2" width="36" height="36" filterUnits="userSpaceOnUse" color-interpolation-filters="sRGB">
<feFlood flood-opacity="0" result="BackgroundImageFix"/>
<feColorMatrix in="SourceAlpha" type="matrix" values="0 0 0 0 0 0 0 0 0 0 0 0 0 0 0 0 0 0 127 0" result="hardAlpha"/>
<feOffset/>
<feGaussianBlur stdDeviation="2"/>
<feComposite in2="hardAlpha" operator="out"/>
<feColorMatrix type="matrix" values="0 0 0 0 0 0 0 0 0 0 0 0 0 0 0 0 0 0 0.25 0"/>
<feBlend mode="normal" in2="BackgroundImageFix" result="effect1_dropShadow_1_68"/>
<feBlend mode="normal" in="SourceGraphic" in2="effect1_dropShadow_1_68" result="shape"/>
</filter>
<linearGradient id="paint0_linear_1_68" x1="20" y1="0" x2="20" y2="40" gradientUnits="userSpaceOnUse">
<stop stop-color="#202020"/>
<stop offset="1"/>
</linearGradient>
</defs>
</svg>
