<svg width="257" height="40" viewBox="0 0 257 40" fill="none" xmlns="http://www.w3.org/2000/svg">
<rect width="257.001" height="40.0014" rx="8" fill="url(#paint0_linear_1_56)"/>
<rect x="1.07143" y="1.07143" width="254.858" height="37.8585" rx="6.92857" stroke="white" stroke-opacity="0.15" stroke-width="2.14286"/>
<g filter="url(#filter0_d_1_56)">
<path d="M28.9116 18.9775C28.7911 18.9197 28.6688 18.864 28.5448 18.8107C28.3289 14.8285 26.1554 12.5486 22.5057 12.5253C22.4892 12.5252 22.4727 12.5252 22.4562 12.5252C20.2732 12.5252 18.4577 13.458 17.3402 15.1555L19.3474 16.534C20.1822 15.266 21.4923 14.9957 22.4572 14.9957C22.4683 14.9957 22.4795 14.9957 22.4905 14.9958C23.6922 15.0035 24.599 15.3533 25.1859 16.0354C25.613 16.532 25.8987 17.2182 26.0401 18.0843C24.9747 17.903 23.8224 17.8473 22.5906 17.918C19.1207 18.1181 16.89 20.1441 17.0398 22.9592C17.1158 24.3872 17.8264 25.6157 19.0406 26.4183C20.0672 27.0967 21.3894 27.4285 22.7636 27.3534C24.5783 27.2538 26.002 26.5606 26.9952 25.2932C27.7494 24.3307 28.2265 23.0834 28.4371 21.5117C29.302 22.0342 29.9429 22.7218 30.2969 23.5484C30.8988 24.9535 30.9339 27.2625 29.052 29.1449C27.4032 30.794 25.4212 31.5074 22.4258 31.5294C19.1032 31.5048 16.5903 30.438 14.9565 28.3587C13.4266 26.4117 12.6359 23.5995 12.6064 20C12.6359 16.4005 13.4266 13.5882 14.9565 11.6412C16.5903 9.56196 19.1031 8.49521 22.4258 8.47049C25.7725 8.4954 28.3292 9.56729 30.0255 11.6566C30.8573 12.6811 31.4844 13.9696 31.8979 15.4719L34.25 14.8437C33.7489 12.9945 32.9604 11.401 31.8874 10.0795C29.7126 7.40097 26.5321 6.02846 22.434 6H22.4176C18.3278 6.02836 15.1829 7.4061 13.0701 10.0949C11.19 12.4876 10.2202 15.8169 10.1876 19.9902L10.1875 20L10.1876 20.0098C10.2202 24.1831 11.19 27.5125 13.0701 29.9051C15.1829 32.5939 18.3278 33.9717 22.4176 34H22.434C26.07 33.9748 28.6329 33.0217 30.7443 30.9099C33.5066 28.1471 33.4235 24.684 32.513 22.5581C31.8598 21.0335 30.6145 19.7953 28.9116 18.9775ZM22.6337 24.8864C21.1129 24.9722 19.5329 24.2888 19.455 22.8251C19.3973 21.7398 20.2265 20.5288 22.727 20.3845C23.0134 20.368 23.2944 20.3599 23.5704 20.3599C24.4787 20.3599 25.3284 20.4482 26.1009 20.6173C25.8127 24.2197 24.1227 24.8046 22.6337 24.8864Z" fill="white"/>
</g>
<g filter="url(#filter1_d_1_56)">
<g filter="url(#filter2_d_1_56)">
<path d="M53.6285 18.1577H51.745C51.6726 17.7552 51.5377 17.401 51.3405 17.0952C51.1433 16.7893 50.9018 16.5297 50.6161 16.3164C50.3303 16.1031 50.0104 15.9421 49.6562 15.8334C49.3061 15.7248 48.9338 15.6704 48.5394 15.6704C47.827 15.6704 47.1891 15.8495 46.6257 16.2077C46.0663 16.5659 45.6236 17.0911 45.2976 17.7834C44.9756 18.4756 44.8146 19.3208 44.8146 20.3189C44.8146 21.325 44.9756 22.1742 45.2976 22.8665C45.6236 23.5587 46.0683 24.0819 46.6317 24.4361C47.1952 24.7902 47.829 24.9673 48.5334 24.9673C48.9237 24.9673 49.294 24.915 49.6441 24.8104C49.9983 24.7017 50.3183 24.5427 50.604 24.3334C50.8898 24.1242 51.1312 23.8686 51.3285 23.5667C51.5297 23.2609 51.6685 22.9107 51.745 22.5163L53.6285 22.5224C53.5279 23.1301 53.3327 23.6895 53.0429 24.2006C52.7572 24.7077 52.3889 25.1464 51.9382 25.5167C51.4915 25.8829 50.9803 26.1667 50.4048 26.3679C49.8293 26.5691 49.2014 26.6697 48.5213 26.6697C47.4507 26.6697 46.4969 26.4162 45.6598 25.9091C44.8227 25.398 44.1626 24.6675 43.6797 23.7177C43.2007 22.7679 42.9613 21.6349 42.9613 20.3189C42.9613 18.9988 43.2027 17.8659 43.6857 16.9201C44.1687 15.9703 44.8287 15.2418 45.6658 14.7347C46.5029 14.2236 47.4548 13.968 48.5213 13.968C49.1773 13.968 49.789 14.0626 50.3565 14.2518C50.928 14.4369 51.4411 14.7106 51.8959 15.0728C52.3507 15.431 52.727 15.8697 53.0248 16.3888C53.3227 16.904 53.5239 17.4936 53.6285 18.1577ZM57.5208 20.995V26.5007H55.7158V14.1371H57.4967V18.7372H57.6114C57.8287 18.2382 58.1607 17.8417 58.6075 17.5479C59.0542 17.2541 59.6378 17.1072 60.3582 17.1072C60.9941 17.1072 61.5495 17.238 62.0244 17.4996C62.5033 17.7612 62.8736 18.1516 63.1352 18.6708C63.4008 19.1859 63.5336 19.8299 63.5336 20.6026V26.5007H61.7286V20.8199C61.7286 20.1398 61.5535 19.6126 61.2034 19.2383C60.8532 18.86 60.3662 18.6708 59.7424 18.6708C59.3158 18.6708 58.9335 18.7614 58.5954 18.9425C58.2614 19.1236 57.9978 19.3892 57.8046 19.7393C57.6154 20.0855 57.5208 20.504 57.5208 20.995ZM68.6409 26.706C68.0533 26.706 67.522 26.5973 67.0471 26.38C66.5722 26.1586 66.1959 25.8386 65.9182 25.4201C65.6445 25.0015 65.5077 24.4884 65.5077 23.8807C65.5077 23.3575 65.6083 22.9268 65.8095 22.5888C66.0108 22.2507 66.2824 21.9831 66.6245 21.7859C66.9666 21.5886 67.349 21.4397 67.7715 21.3391C68.1941 21.2385 68.6248 21.162 69.0634 21.1097C69.6188 21.0453 70.0696 20.993 70.4157 20.9528C70.7618 20.9085 71.0134 20.8381 71.1703 20.7415C71.3273 20.6449 71.4058 20.4879 71.4058 20.2706V20.2283C71.4058 19.7011 71.2569 19.2926 70.959 19.0028C70.6652 18.7131 70.2266 18.5682 69.643 18.5682C69.0353 18.5682 68.5563 18.703 68.2062 18.9726C67.8601 19.2383 67.6206 19.5341 67.4878 19.8601L65.7914 19.4737C65.9927 18.9103 66.2865 18.4555 66.6728 18.1094C67.0632 17.7592 67.512 17.5057 68.0191 17.3487C68.5262 17.1877 69.0594 17.1072 69.6188 17.1072C69.9891 17.1072 70.3815 17.1515 70.796 17.24C71.2146 17.3246 71.605 17.4815 71.9672 17.7109C72.3334 17.9403 72.6333 18.2683 72.8667 18.6949C73.1001 19.1175 73.2169 19.6669 73.2169 20.343V26.5007H71.4541V25.2329H71.3816C71.2649 25.4664 71.0898 25.6958 70.8564 25.9212C70.623 26.1465 70.3232 26.3337 69.9569 26.4826C69.5907 26.6315 69.152 26.706 68.6409 26.706ZM69.0333 25.2571C69.5323 25.2571 69.9589 25.1585 70.3131 24.9613C70.6713 24.7641 70.9429 24.5065 71.1281 24.1886C71.3172 23.8666 71.4118 23.5225 71.4118 23.1562V21.9609C71.3474 22.0253 71.2227 22.0857 71.0375 22.142C70.8564 22.1944 70.6491 22.2406 70.4157 22.2809C70.1823 22.3171 69.9549 22.3513 69.7335 22.3835C69.5122 22.4117 69.3271 22.4358 69.1781 22.456C68.828 22.5002 68.508 22.5747 68.2183 22.6793C67.9325 22.784 67.7031 22.9349 67.5301 23.1321C67.361 23.3253 67.2765 23.5828 67.2765 23.9048C67.2765 24.3515 67.4415 24.6896 67.7715 24.919C68.1016 25.1444 68.5221 25.2571 69.0333 25.2571ZM79.9495 17.228V18.6768H74.8846V17.228H79.9495ZM76.2429 15.0064H78.0479V23.778C78.0479 24.1282 78.1002 24.3918 78.2049 24.5689C78.3095 24.7419 78.4443 24.8607 78.6093 24.9251C78.7784 24.9854 78.9615 25.0156 79.1587 25.0156C79.3036 25.0156 79.4304 25.0056 79.539 24.9854C79.6477 24.9653 79.7322 24.9492 79.7926 24.9371L80.1186 26.4283C80.0139 26.4685 79.865 26.5087 79.6718 26.549C79.4787 26.5933 79.2372 26.6174 78.9474 26.6214C78.4725 26.6295 78.0298 26.545 77.6193 26.3679C77.2088 26.1908 76.8767 25.9171 76.6232 25.5469C76.3696 25.1766 76.2429 24.7118 76.2429 24.1523V15.0064ZM88.4556 26.5007L85.7269 17.228H87.5923L89.4094 24.0376H89.5L91.3231 17.228H93.1885L94.9996 24.0074H95.0902L96.8952 17.228H98.7606L96.038 26.5007H94.1967L92.3132 19.8057H92.1743L90.2908 26.5007H88.4556ZM100.474 26.5007V17.228H102.279V26.5007H100.474ZM101.385 15.7972C101.071 15.7972 100.802 15.6926 100.576 15.4833C100.355 15.27 100.244 15.0164 100.244 14.7226C100.244 14.4248 100.355 14.1713 100.576 13.962C100.802 13.7487 101.071 13.642 101.385 13.642C101.699 13.642 101.967 13.7487 102.188 13.962C102.413 14.1713 102.526 14.4248 102.526 14.7226C102.526 15.0164 102.413 15.27 102.188 15.4833C101.967 15.6926 101.699 15.7972 101.385 15.7972ZM109.035 17.228V18.6768H103.97V17.228H109.035ZM105.329 15.0064H107.134V23.778C107.134 24.1282 107.186 24.3918 107.291 24.5689C107.395 24.7419 107.53 24.8607 107.695 24.9251C107.864 24.9854 108.047 25.0156 108.245 25.0156C108.39 25.0156 108.516 25.0056 108.625 24.9854C108.734 24.9653 108.818 24.9492 108.879 24.9371L109.205 26.4283C109.1 26.4685 108.951 26.5087 108.758 26.549C108.565 26.5933 108.323 26.6174 108.033 26.6214C107.558 26.6295 107.116 26.545 106.705 26.3679C106.295 26.1908 105.963 25.9171 105.709 25.5469C105.456 25.1766 105.329 24.7118 105.329 24.1523V15.0064ZM113.036 20.995V26.5007H111.231V14.1371H113.012V18.7372H113.127C113.344 18.2382 113.676 17.8417 114.123 17.5479C114.57 17.2541 115.153 17.1072 115.874 17.1072C116.51 17.1072 117.065 17.238 117.54 17.4996C118.019 17.7612 118.389 18.1516 118.651 18.6708C118.916 19.1859 119.049 19.8299 119.049 20.6026V26.5007H117.244V20.8199C117.244 20.1398 117.069 19.6126 116.719 19.2383C116.369 18.86 115.882 18.6708 115.258 18.6708C114.831 18.6708 114.449 18.7614 114.111 18.9425C113.777 19.1236 113.513 19.3892 113.32 19.7393C113.131 20.0855 113.036 20.504 113.036 20.995ZM125.957 26.5007V17.228H127.69V18.7372H127.804C127.997 18.2261 128.313 17.8276 128.752 17.5419C129.191 17.2521 129.716 17.1072 130.328 17.1072C130.948 17.1072 131.467 17.2521 131.885 17.5419C132.308 17.8317 132.62 18.2301 132.821 18.7372H132.918C133.139 18.2422 133.491 17.8478 133.974 17.554C134.457 17.2561 135.032 17.1072 135.701 17.1072C136.542 17.1072 137.228 17.3708 137.759 17.8981C138.294 18.4253 138.562 19.2202 138.562 20.2827V26.5007H136.757V20.4517C136.757 19.8239 136.586 19.3691 136.244 19.0873C135.902 18.8056 135.493 18.6648 135.018 18.6648C134.431 18.6648 133.974 18.8459 133.648 19.2081C133.322 19.5663 133.159 20.0271 133.159 20.5905V26.5007H131.36V20.337C131.36 19.8339 131.203 19.4294 130.889 19.1236C130.575 18.8177 130.167 18.6648 129.664 18.6648C129.322 18.6648 129.006 18.7553 128.716 18.9364C128.43 19.1135 128.199 19.361 128.022 19.679C127.849 19.9969 127.762 20.3652 127.762 20.7837V26.5007H125.957ZM144.978 26.6878C144.064 26.6878 143.277 26.4926 142.617 26.1023C141.961 25.7078 141.454 25.1545 141.096 24.4421C140.742 23.7257 140.565 22.8866 140.565 21.9247C140.565 20.9749 140.742 20.1378 141.096 19.4133C141.454 18.6889 141.953 18.1234 142.593 17.717C143.237 17.3105 143.99 17.1072 144.851 17.1072C145.374 17.1072 145.881 17.1938 146.372 17.3668C146.863 17.5399 147.304 17.8115 147.694 18.1818C148.085 18.5521 148.393 19.033 148.618 19.6246C148.843 20.2122 148.956 20.9266 148.956 21.7677V22.4077H141.585V21.0554H147.187C147.187 20.5805 147.091 20.1599 146.898 19.7937C146.704 19.4234 146.433 19.1316 146.083 18.9183C145.736 18.705 145.33 18.5984 144.863 18.5984C144.356 18.5984 143.913 18.7231 143.535 18.9726C143.161 19.2181 142.871 19.5401 142.666 19.9386C142.464 20.333 142.364 20.7616 142.364 21.2244V22.2809C142.364 22.9007 142.473 23.4279 142.69 23.8626C142.911 24.2972 143.219 24.6292 143.613 24.8587C144.008 25.084 144.469 25.1967 144.996 25.1967C145.338 25.1967 145.65 25.1484 145.932 25.0518C146.213 24.9512 146.457 24.8023 146.662 24.6051C146.867 24.4079 147.024 24.1644 147.133 23.8746L148.841 24.1825C148.705 24.6856 148.459 25.1263 148.105 25.5046C147.755 25.8789 147.314 26.1707 146.783 26.38C146.256 26.5852 145.654 26.6878 144.978 26.6878ZM159.364 26.6878C158.495 26.6878 157.736 26.4886 157.088 26.0902C156.44 25.6917 155.937 25.1343 155.579 24.418C155.22 23.7016 155.041 22.8645 155.041 21.9066C155.041 20.9447 155.22 20.1036 155.579 19.3832C155.937 18.6627 156.44 18.1033 157.088 17.7049C157.736 17.3065 158.495 17.1072 159.364 17.1072C160.233 17.1072 160.992 17.3065 161.64 17.7049C162.288 18.1033 162.791 18.6627 163.149 19.3832C163.507 20.1036 163.686 20.9447 163.686 21.9066C163.686 22.8645 163.507 23.7016 163.149 24.418C162.791 25.1343 162.288 25.6917 161.64 26.0902C160.992 26.4886 160.233 26.6878 159.364 26.6878ZM159.37 25.1726C159.933 25.1726 160.4 25.0237 160.77 24.7258C161.141 24.428 161.414 24.0316 161.591 23.5366C161.773 23.0415 161.863 22.4962 161.863 21.9006C161.863 21.3089 161.773 20.7656 161.591 20.2706C161.414 19.7715 161.141 19.3711 160.77 19.0692C160.4 18.7674 159.933 18.6165 159.37 18.6165C158.802 18.6165 158.332 18.7674 157.957 19.0692C157.587 19.3711 157.311 19.7715 157.13 20.2706C156.953 20.7656 156.865 21.3089 156.865 21.9006C156.865 22.4962 156.953 23.0415 157.13 23.5366C157.311 24.0316 157.587 24.428 157.957 24.7258C158.332 25.0237 158.802 25.1726 159.37 25.1726ZM167.506 20.995V26.5007H165.701V17.228H167.434V18.7372H167.548C167.762 18.2462 168.096 17.8518 168.551 17.554C169.009 17.2561 169.587 17.1072 170.283 17.1072C170.915 17.1072 171.468 17.24 171.943 17.5057C172.418 17.7673 172.786 18.1577 173.048 18.6768C173.31 19.196 173.44 19.8379 173.44 20.6026V26.5007H171.635V20.8199C171.635 20.1478 171.46 19.6226 171.11 19.2443C170.76 18.862 170.279 18.6708 169.667 18.6708C169.249 18.6708 168.877 18.7614 168.551 18.9425C168.229 19.1236 167.973 19.3892 167.784 19.7393C167.599 20.0855 167.506 20.504 167.506 20.995Z" fill="#E8E8E8"/>
</g>
<path d="M179.533 16.5639V14.1371H189.983V16.5639H186.234V26.5007H183.288V16.5639H179.533ZM194.394 21.2123V26.5007H191.442V14.1371H194.297V18.9304H194.4C194.609 18.3589 194.951 17.9122 195.426 17.5902C195.905 17.2682 196.491 17.1072 197.183 17.1072C197.835 17.1072 198.403 17.2521 198.885 17.5419C199.368 17.8276 199.743 18.2321 200.008 18.7553C200.278 19.2785 200.411 19.8903 200.407 20.5905V26.5007H197.455V21.1701C197.459 20.6549 197.33 20.2525 197.068 19.9627C196.807 19.6729 196.439 19.528 195.964 19.528C195.654 19.528 195.38 19.5965 195.143 19.7333C194.909 19.8661 194.726 20.0573 194.593 20.3068C194.464 20.5563 194.398 20.8582 194.394 21.2123ZM202.25 26.5007V17.228H205.117V18.9183H205.214C205.383 18.3066 205.658 17.8518 206.041 17.554C206.423 17.2521 206.868 17.1012 207.375 17.1012C207.512 17.1012 207.653 17.1113 207.798 17.1314C207.942 17.1475 208.077 17.1736 208.202 17.2099V19.7756C208.061 19.7273 207.876 19.689 207.647 19.6609C207.421 19.6327 207.22 19.6186 207.043 19.6186C206.693 19.6186 206.377 19.6971 206.095 19.854C205.817 20.007 205.598 20.2223 205.437 20.5C205.28 20.7737 205.202 21.0956 205.202 21.4659V26.5007H202.25ZM213.258 26.6758C212.288 26.6758 211.451 26.4846 210.747 26.1023C210.046 25.7159 209.507 25.1665 209.129 24.4542C208.754 23.7378 208.567 22.8866 208.567 21.9006C208.567 20.9427 208.756 20.1056 209.135 19.3892C209.513 18.6688 210.046 18.1094 210.734 17.7109C211.423 17.3085 212.234 17.1072 213.167 17.1072C213.827 17.1072 214.431 17.2099 214.978 17.4151C215.526 17.6204 215.999 17.9242 216.397 18.3267C216.796 18.7292 217.105 19.2262 217.327 19.8178C217.548 20.4054 217.659 21.0795 217.659 21.8402V22.5767H209.6V20.8622H214.912C214.908 20.5483 214.834 20.2686 214.689 20.0231C214.544 19.7776 214.345 19.5864 214.091 19.4496C213.841 19.3087 213.554 19.2383 213.228 19.2383C212.898 19.2383 212.602 19.3127 212.34 19.4616C212.079 19.6065 211.871 19.8057 211.719 20.0593C211.566 20.3088 211.485 20.5926 211.477 20.9105V22.6552C211.477 23.0335 211.551 23.3655 211.7 23.6513C211.849 23.933 212.061 24.1523 212.334 24.3093C212.608 24.4663 212.934 24.5447 213.312 24.5447C213.574 24.5447 213.811 24.5085 214.025 24.4361C214.238 24.3636 214.421 24.257 214.574 24.1161C214.727 23.9752 214.842 23.8022 214.918 23.5969L217.629 23.6754C217.516 24.2831 217.268 24.8124 216.886 25.2631C216.508 25.7099 216.011 26.058 215.395 26.3075C214.779 26.553 214.067 26.6758 213.258 26.6758ZM221.781 26.6577C221.189 26.6577 220.664 26.5591 220.205 26.3618C219.75 26.1606 219.39 25.8588 219.124 25.4563C218.863 25.0498 218.732 24.5407 218.732 23.929C218.732 23.4138 218.822 22.9792 219.004 22.625C219.185 22.2708 219.434 21.9831 219.752 21.7617C220.07 21.5404 220.436 21.3733 220.851 21.2606C221.265 21.1439 221.708 21.0654 222.179 21.0252C222.706 20.9769 223.131 20.9266 223.453 20.8743C223.775 20.8179 224.008 20.7395 224.153 20.6388C224.302 20.5342 224.376 20.3873 224.376 20.1981V20.168C224.376 19.8581 224.27 19.6186 224.056 19.4496C223.843 19.2805 223.555 19.196 223.193 19.196C222.803 19.196 222.489 19.2805 222.251 19.4496C222.014 19.6186 221.863 19.852 221.799 20.1498L219.076 20.0533C219.157 19.4898 219.364 18.9867 219.698 18.544C220.036 18.0973 220.499 17.7471 221.086 17.4936C221.678 17.236 222.388 17.1072 223.217 17.1072C223.809 17.1072 224.354 17.1777 224.853 17.3185C225.352 17.4554 225.787 17.6566 226.157 17.9222C226.528 18.1838 226.813 18.5058 227.015 18.8881C227.22 19.2705 227.322 19.7071 227.322 20.1981V26.5007H224.545V25.2088H224.473C224.308 25.5227 224.097 25.7883 223.839 26.0057C223.586 26.223 223.286 26.386 222.94 26.4947C222.598 26.6033 222.211 26.6577 221.781 26.6577ZM222.692 24.7258C223.01 24.7258 223.296 24.6614 223.549 24.5327C223.807 24.4039 224.012 24.2268 224.165 24.0014C224.318 23.772 224.395 23.5064 224.395 23.2045V22.3231C224.31 22.3674 224.207 22.4077 224.087 22.4439C223.97 22.4801 223.841 22.5143 223.7 22.5465C223.559 22.5787 223.415 22.6069 223.266 22.631C223.117 22.6552 222.974 22.6773 222.837 22.6974C222.559 22.7417 222.322 22.8101 222.125 22.9027C221.931 22.9953 221.783 23.116 221.678 23.2649C221.577 23.4098 221.527 23.5828 221.527 23.7841C221.527 24.0899 221.636 24.3234 221.853 24.4844C222.074 24.6453 222.354 24.7258 222.692 24.7258ZM232.514 26.6335C231.83 26.6335 231.208 26.4564 230.649 26.1023C230.089 25.7481 229.643 25.2168 229.309 24.5085C228.975 23.8002 228.808 22.9208 228.808 21.8704C228.808 20.7797 228.981 19.8822 229.327 19.1779C229.673 18.4736 230.126 17.9524 230.685 17.6143C231.248 17.2763 231.854 17.1072 232.502 17.1072C232.989 17.1072 233.406 17.1918 233.752 17.3608C234.098 17.5258 234.384 17.7391 234.609 18.0007C234.834 18.2623 235.005 18.534 235.122 18.8157H235.183V14.1371H238.135V26.5007H235.213V24.9975H235.122C234.997 25.2832 234.82 25.5509 234.591 25.8004C234.362 26.0499 234.074 26.2512 233.728 26.4041C233.386 26.557 232.981 26.6335 232.514 26.6335ZM233.54 24.3334C233.899 24.3334 234.205 24.2328 234.458 24.0316C234.712 23.8263 234.907 23.5386 235.044 23.1683C235.181 22.798 235.249 22.3634 235.249 21.8643C235.249 21.3572 235.181 20.9206 235.044 20.5543C234.911 20.1881 234.716 19.9064 234.458 19.7092C234.205 19.5119 233.899 19.4133 233.54 19.4133C233.174 19.4133 232.864 19.514 232.611 19.7152C232.357 19.9164 232.164 20.2002 232.031 20.5664C231.902 20.9326 231.838 21.3653 231.838 21.8643C231.838 22.3634 231.904 22.798 232.037 23.1683C232.17 23.5386 232.361 23.8263 232.611 24.0316C232.864 24.2328 233.174 24.3334 233.54 24.3334ZM248.097 20.0593L245.386 20.1317C245.358 19.9386 245.282 19.7675 245.157 19.6186C245.032 19.4657 244.869 19.3469 244.668 19.2624C244.471 19.1739 244.241 19.1296 243.98 19.1296C243.638 19.1296 243.346 19.198 243.104 19.3349C242.867 19.4717 242.75 19.6568 242.754 19.8903C242.75 20.0714 242.823 20.2283 242.972 20.3611C243.125 20.494 243.396 20.6006 243.787 20.6811L245.574 21.0192C246.499 21.1962 247.187 21.49 247.638 21.9006C248.093 22.3111 248.322 22.8544 248.326 23.5305C248.322 24.1664 248.133 24.7198 247.759 25.1907C247.389 25.6616 246.882 26.0278 246.238 26.2894C245.594 26.547 244.857 26.6758 244.028 26.6758C242.704 26.6758 241.66 26.4041 240.895 25.8608C240.134 25.3134 239.7 24.581 239.591 23.6633L242.507 23.5909C242.571 23.929 242.738 24.1865 243.008 24.3636C243.278 24.5407 243.622 24.6292 244.04 24.6292C244.419 24.6292 244.726 24.5588 244.964 24.418C245.201 24.2771 245.322 24.0899 245.326 23.8565C245.322 23.6472 245.229 23.4802 245.048 23.3555C244.867 23.2267 244.584 23.1261 244.197 23.0536L242.579 22.7457C241.65 22.5767 240.957 22.2648 240.503 21.81C240.048 21.3512 239.822 20.7676 239.826 20.0593C239.822 19.4395 239.987 18.9103 240.321 18.4716C240.656 18.0289 241.13 17.6908 241.746 17.4574C242.362 17.2239 243.088 17.1072 243.926 17.1072C245.181 17.1072 246.171 17.3708 246.896 17.8981C247.62 18.4213 248.021 19.1417 248.097 20.0593Z" fill="white"/>
</g>
<defs>
<filter id="filter0_d_1_56" x="2.39972" y="0.39972" width="39.202" height="39.202" filterUnits="userSpaceOnUse" color-interpolation-filters="sRGB">
<feFlood flood-opacity="0" result="BackgroundImageFix"/>
<feColorMatrix in="SourceAlpha" type="matrix" values="0 0 0 0 0 0 0 0 0 0 0 0 0 0 0 0 0 0 127 0" result="hardAlpha"/>
<feOffset/>
<feGaussianBlur stdDeviation="2.80014"/>
<feComposite in2="hardAlpha" operator="out"/>
<feColorMatrix type="matrix" values="0 0 0 0 0 0 0 0 0 0 0 0 0 0 0 0 0 0 0.25 0"/>
<feBlend mode="normal" in2="BackgroundImageFix" result="effect1_dropShadow_1_56"/>
<feBlend mode="normal" in="SourceGraphic" in2="effect1_dropShadow_1_56" result="shape"/>
</filter>
<filter id="filter1_d_1_56" x="36.2871" y="3.78642" width="218.429" height="32.4286" filterUnits="userSpaceOnUse" color-interpolation-filters="sRGB">
<feFlood flood-opacity="0" result="BackgroundImageFix"/>
<feColorMatrix in="SourceAlpha" type="matrix" values="0 0 0 0 0 0 0 0 0 0 0 0 0 0 0 0 0 0 127 0" result="hardAlpha"/>
<feOffset/>
<feGaussianBlur stdDeviation="2.85714"/>
<feComposite in2="hardAlpha" operator="out"/>
<feColorMatrix type="matrix" values="0 0 0 0 0 0 0 0 0 0 0 0 0 0 0 0 0 0 0.25 0"/>
<feBlend mode="normal" in2="BackgroundImageFix" result="effect1_dropShadow_1_56"/>
<feBlend mode="normal" in="SourceGraphic" in2="effect1_dropShadow_1_56" result="shape"/>
</filter>
<filter id="filter2_d_1_56" x="38.9613" y="13.642" width="138.479" height="21.0639" filterUnits="userSpaceOnUse" color-interpolation-filters="sRGB">
<feFlood flood-opacity="0" result="BackgroundImageFix"/>
<feColorMatrix in="SourceAlpha" type="matrix" values="0 0 0 0 0 0 0 0 0 0 0 0 0 0 0 0 0 0 127 0" result="hardAlpha"/>
<feOffset dy="4"/>
<feGaussianBlur stdDeviation="2"/>
<feComposite in2="hardAlpha" operator="out"/>
<feColorMatrix type="matrix" values="0 0 0 0 0 0 0 0 0 0 0 0 0 0 0 0 0 0 0.25 0"/>
<feBlend mode="normal" in2="BackgroundImageFix" result="effect1_dropShadow_1_56"/>
<feBlend mode="normal" in="SourceGraphic" in2="effect1_dropShadow_1_56" result="shape"/>
</filter>
<linearGradient id="paint0_linear_1_56" x1="128.501" y1="0" x2="128.501" y2="40.0014" gradientUnits="userSpaceOnUse">
<stop stop-color="#202020"/>
<stop offset="1"/>
</linearGradient>
</defs>
</svg>
