<svg width="56" height="56" viewBox="0 0 56 56" fill="none" xmlns="http://www.w3.org/2000/svg">
<rect width="56" height="56" rx="8.4" fill="url(#paint0_linear_1_62)"/>
<rect x="1.05" y="1.05" width="53.9" height="53.9" rx="7.35" stroke="white" stroke-opacity="0.15" stroke-width="2.1"/>
<g filter="url(#filter0_d_1_62)">
<path d="M37.8737 26.5392C37.7016 26.4566 37.5268 26.3772 37.3497 26.3011C37.0413 20.6121 33.9362 17.3552 28.7224 17.3219C28.6988 17.3217 28.6753 17.3217 28.6517 17.3217C25.5332 17.3217 22.9396 18.6544 21.3432 21.0793L24.2106 23.0485C25.4032 21.2371 27.2747 20.851 28.6531 20.851C28.669 20.851 28.685 20.851 28.7007 20.8511C30.4174 20.8621 31.7129 21.3618 32.5513 22.3363C33.1615 23.0457 33.5696 24.026 33.7716 25.2633C32.2496 25.0043 30.6035 24.9247 28.8438 25.0257C23.8867 25.3115 20.7 28.2058 20.914 32.2275C21.0226 34.2675 22.0378 36.0225 23.7724 37.169C25.2389 38.1381 27.1278 38.6121 29.0909 38.5048C31.6833 38.3625 33.7171 37.3723 35.1359 35.5617C36.2135 34.1867 36.895 32.4048 37.1959 30.1596C38.4314 30.906 39.3471 31.8883 39.8528 33.0692C40.7126 35.0765 40.7628 38.375 38.0743 41.0642C35.7188 43.42 32.8874 44.4392 28.6083 44.4706C23.8617 44.4354 20.2718 42.9115 17.9378 39.941C15.7522 37.1596 14.6227 33.1421 14.5806 28C14.6227 22.8579 15.7522 18.8403 17.9378 16.0589C20.2718 13.0885 23.8616 11.5646 28.6083 11.5293C33.3893 11.5649 37.0417 13.0961 39.4651 16.0808C40.6533 17.5445 41.5492 19.3852 42.1398 21.5313L45.5 20.6338C44.7841 17.9921 43.6577 15.7158 42.1248 13.8279C39.0181 10.0014 34.4744 8.04066 28.62 8H28.5965C22.754 8.04051 18.2612 10.0087 15.243 13.8499C12.5571 17.268 11.1717 22.0241 11.1251 27.9859L11.125 28L11.1251 28.0141C11.1717 33.9758 12.5571 38.7321 15.243 42.1502C18.2612 45.9912 22.754 47.9596 28.5965 48H28.62C33.8143 47.964 37.4756 46.6025 40.4918 43.5856C44.4381 39.6387 44.3192 34.6915 43.0186 31.6544C42.0855 29.4765 40.3064 27.7075 37.8737 26.5392ZM28.9053 34.9806C26.7327 35.1031 24.4756 34.1269 24.3643 32.0358C24.2818 30.4854 25.4665 28.7554 29.0386 28.5493C29.4477 28.5257 29.8491 28.5142 30.2435 28.5142C31.541 28.5142 32.7548 28.6404 33.8584 28.8819C33.4468 34.0281 31.0324 34.8637 28.9053 34.9806Z" fill="white"/>
</g>
<defs>
<filter id="filter0_d_1_62" x="2.28571" y="2.28571" width="51.4286" height="51.4286" filterUnits="userSpaceOnUse" color-interpolation-filters="sRGB">
<feFlood flood-opacity="0" result="BackgroundImageFix"/>
<feColorMatrix in="SourceAlpha" type="matrix" values="0 0 0 0 0 0 0 0 0 0 0 0 0 0 0 0 0 0 127 0" result="hardAlpha"/>
<feOffset/>
<feGaussianBlur stdDeviation="2.85714"/>
<feComposite in2="hardAlpha" operator="out"/>
<feColorMatrix type="matrix" values="0 0 0 0 0 0 0 0 0 0 0 0 0 0 0 0 0 0 0.25 0"/>
<feBlend mode="normal" in2="BackgroundImageFix" result="effect1_dropShadow_1_62"/>
<feBlend mode="normal" in="SourceGraphic" in2="effect1_dropShadow_1_62" result="shape"/>
</filter>
<linearGradient id="paint0_linear_1_62" x1="28" y1="0" x2="28" y2="56" gradientUnits="userSpaceOnUse">
<stop stop-color="#202020"/>
<stop offset="1"/>
</linearGradient>
</defs>
</svg>
