<svg width="211" height="40" viewBox="0 0 211 40" fill="none" xmlns="http://www.w3.org/2000/svg">
<rect width="211.001" height="40.0014" rx="8" fill="url(#paint0_linear_1_56)"/>
<rect x="1.07143" y="1.07143" width="208.858" height="37.8585" rx="6.92857" stroke="white" stroke-opacity="0.15" stroke-width="2.14286"/>
<g filter="url(#filter0_d_1_56)">
<g clip-path="url(#clip0_1_56)">
<path d="M21.9962 7.75L35.9925 31.9924H8L21.9962 7.75Z" fill="white"/>
</g>
</g>
<g filter="url(#filter1_d_1_56)">
<path d="M47.3622 26.5007H43.3597V14.1371H47.489C48.7004 14.1371 49.7407 14.3846 50.6101 14.8796C51.4794 15.3706 52.1455 16.0769 52.6083 16.9986C53.0751 17.9162 53.3086 19.0169 53.3086 20.3008C53.3086 21.5886 53.0731 22.6954 52.6022 23.6211C52.1354 24.5467 51.4593 25.2591 50.5738 25.7582C49.6884 26.2532 48.6179 26.5007 47.3622 26.5007ZM45.2251 24.8707H47.2596C48.2013 24.8707 48.9841 24.6936 49.6079 24.3395C50.2317 23.9813 50.6986 23.4641 51.0085 22.788C51.3184 22.1078 51.4733 21.2788 51.4733 20.3008C51.4733 19.3308 51.3184 18.5078 51.0085 17.8317C50.7026 17.1555 50.2458 16.6424 49.6381 16.2922C49.0304 15.9421 48.2758 15.767 47.3743 15.767H45.2251V24.8707ZM59.4798 26.6878C58.5662 26.6878 57.7794 26.4926 57.1194 26.1023C56.4634 25.7078 55.9563 25.1545 55.5981 24.4421C55.2439 23.7257 55.0668 22.8866 55.0668 21.9247C55.0668 20.9749 55.2439 20.1378 55.5981 19.4133C55.9563 18.6889 56.4553 18.1234 57.0952 17.717C57.7392 17.3105 58.4918 17.1072 59.353 17.1072C59.8762 17.1072 60.3833 17.1938 60.8743 17.3668C61.3654 17.5399 61.806 17.8115 62.1964 18.1818C62.5868 18.5521 62.8947 19.033 63.1201 19.6246C63.3455 20.2122 63.4582 20.9266 63.4582 21.7677V22.4077H56.0871V21.0554H61.6893C61.6893 20.5805 61.5927 20.1599 61.3996 19.7937C61.2064 19.4234 60.9347 19.1316 60.5846 18.9183C60.2385 18.705 59.832 18.5984 59.3651 18.5984C58.858 18.5984 58.4153 18.7231 58.037 18.9726C57.6627 19.2181 57.3729 19.5401 57.1677 19.9386C56.9664 20.333 56.8658 20.7616 56.8658 21.2244V22.2809C56.8658 22.9007 56.9745 23.4279 57.1918 23.8626C57.4132 24.2972 57.7211 24.6292 58.1155 24.8587C58.5099 25.084 58.9707 25.1967 59.4979 25.1967C59.84 25.1967 60.1519 25.1484 60.4337 25.0518C60.7154 24.9512 60.9589 24.8023 61.1641 24.6051C61.3694 24.4079 61.5263 24.1644 61.635 23.8746L63.3435 24.1825C63.2066 24.6856 62.9611 25.1263 62.6069 25.5046C62.2568 25.8789 61.8161 26.1707 61.2849 26.38C60.7576 26.5852 60.156 26.6878 59.4798 26.6878ZM65.4609 29.978V17.228H67.2237V18.7312H67.3746C67.4793 18.538 67.6302 18.3146 67.8274 18.0611C68.0246 17.8075 68.2983 17.5862 68.6484 17.397C68.9985 17.2038 69.4614 17.1072 70.0369 17.1072C70.7855 17.1072 71.4536 17.2964 72.0412 17.6747C72.6288 18.053 73.0896 18.5984 73.4236 19.3107C73.7617 20.0231 73.9307 20.8803 73.9307 21.8824C73.9307 22.8846 73.7637 23.7438 73.4297 24.4602C73.0956 25.1726 72.6368 25.7219 72.0532 26.1083C71.4697 26.4906 70.8036 26.6818 70.055 26.6818C69.4916 26.6818 69.0307 26.5872 68.6726 26.3981C68.3184 26.2089 68.0407 25.9876 67.8395 25.734C67.6382 25.4805 67.4833 25.2551 67.3746 25.0579H67.2659V29.978H65.4609ZM67.2297 21.8643C67.2297 22.5163 67.3243 23.0878 67.5135 23.5788C67.7026 24.0698 67.9763 24.4542 68.3345 24.7319C68.6927 25.0056 69.1314 25.1424 69.6505 25.1424C70.1898 25.1424 70.6406 24.9995 71.0028 24.7138C71.365 24.424 71.6387 24.0316 71.8238 23.5366C72.013 23.0415 72.1076 22.4841 72.1076 21.8643C72.1076 21.2526 72.015 20.7032 71.8299 20.2163C71.6488 19.7293 71.3751 19.3449 71.0088 19.0632C70.6466 18.7815 70.1939 18.6406 69.6505 18.6406C69.1273 18.6406 68.6846 18.7754 68.3224 19.0451C67.9642 19.3147 67.6926 19.691 67.5074 20.174C67.3223 20.6569 67.2297 21.2204 67.2297 21.8643ZM77.7581 14.1371V26.5007H75.9531V14.1371H77.7581ZM84.0924 26.6878C83.2231 26.6878 82.4644 26.4886 81.8165 26.0902C81.1685 25.6917 80.6654 25.1343 80.3072 24.418C79.949 23.7016 79.7699 22.8645 79.7699 21.9066C79.7699 20.9447 79.949 20.1036 80.3072 19.3832C80.6654 18.6627 81.1685 18.1033 81.8165 17.7049C82.4644 17.3065 83.2231 17.1072 84.0924 17.1072C84.9617 17.1072 85.7203 17.3065 86.3683 17.7049C87.0163 18.1033 87.5193 18.6627 87.8775 19.3832C88.2357 20.1036 88.4148 20.9447 88.4148 21.9066C88.4148 22.8645 88.2357 23.7016 87.8775 24.418C87.5193 25.1343 87.0163 25.6917 86.3683 26.0902C85.7203 26.4886 84.9617 26.6878 84.0924 26.6878ZM84.0984 25.1726C84.6619 25.1726 85.1287 25.0237 85.499 24.7258C85.8693 24.428 86.1429 24.0316 86.32 23.5366C86.5011 23.0415 86.5917 22.4962 86.5917 21.9006C86.5917 21.3089 86.5011 20.7656 86.32 20.2706C86.1429 19.7715 85.8693 19.3711 85.499 19.0692C85.1287 18.7674 84.6619 18.6165 84.0984 18.6165C83.5309 18.6165 83.0601 18.7674 82.6858 19.0692C82.3155 19.3711 82.0398 19.7715 81.8587 20.2706C81.6816 20.7656 81.5931 21.3089 81.5931 21.9006C81.5931 22.4962 81.6816 23.0415 81.8587 23.5366C82.0398 24.0316 82.3155 24.428 82.6858 24.7258C83.0601 25.0237 83.5309 25.1726 84.0984 25.1726ZM91.2552 29.978C90.9855 29.978 90.74 29.9558 90.5187 29.9116C90.2973 29.8713 90.1323 29.827 90.0237 29.7787L90.4583 28.2997C90.7883 28.3882 91.0821 28.4265 91.3397 28.4144C91.5973 28.4023 91.8247 28.3057 92.0219 28.1246C92.2231 27.9435 92.4002 27.6477 92.5531 27.2372L92.7765 26.6214L89.3838 17.228H91.3156L93.6639 24.424H93.7605L96.1089 17.228H98.0467L94.2254 27.7383C94.0483 28.2212 93.8229 28.6297 93.5492 28.9638C93.2756 29.3018 92.9496 29.5554 92.5712 29.7244C92.1929 29.8935 91.7543 29.978 91.2552 29.978ZM103.424 26.6878C102.511 26.6878 101.724 26.4926 101.064 26.1023C100.408 25.7078 99.9006 25.1545 99.5424 24.4421C99.1882 23.7257 99.0111 22.8866 99.0111 21.9247C99.0111 20.9749 99.1882 20.1378 99.5424 19.4133C99.9006 18.6889 100.4 18.1234 101.04 17.717C101.683 17.3105 102.436 17.1072 103.297 17.1072C103.821 17.1072 104.328 17.1938 104.819 17.3668C105.31 17.5399 105.75 17.8115 106.141 18.1818C106.531 18.5521 106.839 19.033 107.064 19.6246C107.29 20.2122 107.402 20.9266 107.402 21.7677V22.4077H100.031V21.0554H105.634C105.634 20.5805 105.537 20.1599 105.344 19.7937C105.151 19.4234 104.879 19.1316 104.529 18.9183C104.183 18.705 103.776 18.5984 103.309 18.5984C102.802 18.5984 102.36 18.7231 101.981 18.9726C101.607 19.2181 101.317 19.5401 101.112 19.9386C100.911 20.333 100.81 20.7616 100.81 21.2244V22.2809C100.81 22.9007 100.919 23.4279 101.136 23.8626C101.357 24.2972 101.665 24.6292 102.06 24.8587C102.454 25.084 102.915 25.1967 103.442 25.1967C103.784 25.1967 104.096 25.1484 104.378 25.0518C104.66 24.9512 104.903 24.8023 105.108 24.6051C105.314 24.4079 105.471 24.1644 105.579 23.8746L107.288 24.1825C107.151 24.6856 106.905 25.1263 106.551 25.5046C106.201 25.8789 105.76 26.1707 105.229 26.38C104.702 26.5852 104.1 26.6878 103.424 26.6878ZM112.876 26.6818C112.128 26.6818 111.46 26.4906 110.872 26.1083C110.289 25.7219 109.83 25.1726 109.496 24.4602C109.166 23.7438 109.001 22.8846 109.001 21.8824C109.001 20.8803 109.168 20.0231 109.502 19.3107C109.84 18.5984 110.303 18.053 110.89 17.6747C111.478 17.2964 112.144 17.1072 112.889 17.1072C113.464 17.1072 113.927 17.2038 114.277 17.397C114.631 17.5862 114.905 17.8075 115.098 18.0611C115.295 18.3146 115.448 18.538 115.557 18.7312H115.666V14.1371H117.471V26.5007H115.708V25.0579H115.557C115.448 25.2551 115.291 25.4805 115.086 25.734C114.885 25.9876 114.607 26.2089 114.253 26.3981C113.899 26.5872 113.44 26.6818 112.876 26.6818ZM113.275 25.1424C113.794 25.1424 114.233 25.0056 114.591 24.7319C114.953 24.4542 115.227 24.0698 115.412 23.5788C115.601 23.0878 115.696 22.5163 115.696 21.8643C115.696 21.2204 115.603 20.6569 115.418 20.174C115.233 19.691 114.961 19.3147 114.603 19.0451C114.245 18.7754 113.802 18.6406 113.275 18.6406C112.732 18.6406 112.279 18.7815 111.917 19.0632C111.554 19.3449 111.281 19.7293 111.096 20.2163C110.914 20.7032 110.824 21.2526 110.824 21.8643C110.824 22.4841 110.916 23.0415 111.102 23.5366C111.287 24.0316 111.56 24.424 111.923 24.7138C112.289 24.9995 112.74 25.1424 113.275 25.1424ZM128.452 26.6878C127.582 26.6878 126.824 26.4886 126.176 26.0902C125.528 25.6917 125.025 25.1343 124.667 24.418C124.308 23.7016 124.129 22.8645 124.129 21.9066C124.129 20.9447 124.308 20.1036 124.667 19.3832C125.025 18.6627 125.528 18.1033 126.176 17.7049C126.824 17.3065 127.582 17.1072 128.452 17.1072C129.321 17.1072 130.08 17.3065 130.728 17.7049C131.376 18.1033 131.879 18.6627 132.237 19.3832C132.595 20.1036 132.774 20.9447 132.774 21.9066C132.774 22.8645 132.595 23.7016 132.237 24.418C131.879 25.1343 131.376 25.6917 130.728 26.0902C130.08 26.4886 129.321 26.6878 128.452 26.6878ZM128.458 25.1726C129.021 25.1726 129.488 25.0237 129.858 24.7258C130.229 24.428 130.502 24.0316 130.679 23.5366C130.86 23.0415 130.951 22.4962 130.951 21.9006C130.951 21.3089 130.86 20.7656 130.679 20.2706C130.502 19.7715 130.229 19.3711 129.858 19.0692C129.488 18.7674 129.021 18.6165 128.458 18.6165C127.89 18.6165 127.419 18.7674 127.045 19.0692C126.675 19.3711 126.399 19.7715 126.218 20.2706C126.041 20.7656 125.952 21.3089 125.952 21.9006C125.952 22.4962 126.041 23.0415 126.218 23.5366C126.399 24.0316 126.675 24.428 127.045 24.7258C127.419 25.0237 127.89 25.1726 128.458 25.1726ZM136.594 20.995V26.5007H134.789V17.228H136.522V18.7372H136.636C136.85 18.2462 137.184 17.8518 137.638 17.554C138.097 17.2561 138.675 17.1072 139.371 17.1072C140.003 17.1072 140.556 17.24 141.031 17.5057C141.506 17.7673 141.874 18.1577 142.136 18.6768C142.398 19.196 142.528 19.8379 142.528 20.6026V26.5007H140.723V20.8199C140.723 20.1478 140.548 19.6226 140.198 19.2443C139.848 18.862 139.367 18.6708 138.755 18.6708C138.337 18.6708 137.964 18.7614 137.638 18.9425C137.316 19.1236 137.061 19.3892 136.872 19.7393C136.687 20.0855 136.594 20.504 136.594 20.995Z" fill="#E8E8E8"/>
<path d="M151.744 13.6371L154.509 22.6925H154.612L157.377 13.6371H160.721L156.55 26.0007H152.571L148.4 13.6371H151.744ZM165.275 26.1758C164.305 26.1758 163.467 25.9846 162.763 25.6023C162.063 25.2159 161.524 24.6665 161.145 23.9542C160.771 23.2378 160.584 22.3866 160.584 21.4006C160.584 20.4427 160.773 19.6056 161.151 18.8892C161.53 18.1688 162.063 17.6094 162.751 17.2109C163.439 16.8085 164.25 16.6072 165.184 16.6072C165.844 16.6072 166.448 16.7099 166.995 16.9151C167.542 17.1204 168.015 17.4242 168.414 17.8267C168.812 18.2292 169.122 18.7262 169.343 19.3178C169.565 19.9054 169.675 20.5795 169.675 21.3402V22.0767H161.616V20.3622H166.929C166.925 20.0483 166.85 19.7686 166.705 19.5231C166.56 19.2776 166.361 19.0864 166.108 18.9496C165.858 18.8087 165.57 18.7383 165.244 18.7383C164.914 18.7383 164.619 18.8127 164.357 18.9616C164.095 19.1065 163.888 19.3057 163.735 19.5593C163.582 19.8088 163.502 20.0926 163.494 20.4105V22.1552C163.494 22.5335 163.568 22.8655 163.717 23.1513C163.866 23.433 164.077 23.6523 164.351 23.8093C164.625 23.9663 164.951 24.0447 165.329 24.0447C165.59 24.0447 165.828 24.0085 166.041 23.9361C166.255 23.8636 166.438 23.757 166.591 23.6161C166.744 23.4752 166.858 23.3022 166.935 23.0969L169.645 23.1754C169.533 23.7831 169.285 24.3124 168.903 24.7631C168.524 25.2099 168.027 25.558 167.412 25.8075C166.796 26.053 166.083 26.1758 165.275 26.1758ZM171.183 26.0007V16.728H174.051V18.4183H174.147C174.316 17.8066 174.592 17.3518 174.974 17.054C175.357 16.7521 175.801 16.6012 176.309 16.6012C176.445 16.6012 176.586 16.6113 176.731 16.6314C176.876 16.6475 177.011 16.6736 177.136 16.7099V19.2756C176.995 19.2273 176.81 19.189 176.58 19.1609C176.355 19.1327 176.154 19.1186 175.976 19.1186C175.626 19.1186 175.31 19.1971 175.029 19.354C174.751 19.507 174.532 19.7223 174.371 20C174.214 20.2737 174.135 20.5956 174.135 20.9659V26.0007H171.183ZM182.185 26.1758C181.207 26.1758 180.368 25.9745 179.668 25.5721C178.972 25.1696 178.437 24.6102 178.062 23.8938C177.688 23.1734 177.501 22.3403 177.501 21.3945C177.501 20.4447 177.688 19.6116 178.062 18.8952C178.441 18.1748 178.978 17.6134 179.674 17.2109C180.374 16.8085 181.21 16.6072 182.179 16.6072C183.037 16.6072 183.783 16.7622 184.419 17.0721C185.059 17.382 185.558 17.8207 185.916 18.3881C186.279 18.9516 186.47 19.6136 186.49 20.3743H183.731C183.675 19.8994 183.514 19.5271 183.248 19.2574C182.986 18.9878 182.644 18.853 182.222 18.853C181.88 18.853 181.58 18.9496 181.322 19.1427C181.065 19.3319 180.863 19.6136 180.719 19.9879C180.578 20.3582 180.507 20.817 180.507 21.3643C180.507 21.9117 180.578 22.3745 180.719 22.7528C180.863 23.1271 181.065 23.4109 181.322 23.604C181.58 23.7932 181.88 23.8878 182.222 23.8878C182.495 23.8878 182.737 23.8294 182.946 23.7127C183.159 23.596 183.335 23.4249 183.471 23.1996C183.608 22.9702 183.695 22.6925 183.731 22.3665H186.49C186.462 23.1311 186.27 23.7992 185.916 24.3707C185.566 24.9422 185.073 25.3869 184.437 25.7049C183.805 26.0188 183.055 26.1758 182.185 26.1758ZM192.335 26.1758C191.365 26.1758 190.528 25.9846 189.824 25.6023C189.123 25.2159 188.584 24.6665 188.206 23.9542C187.832 23.2378 187.644 22.3866 187.644 21.4006C187.644 20.4427 187.834 19.6056 188.212 18.8892C188.59 18.1688 189.123 17.6094 189.812 17.2109C190.5 16.8085 191.311 16.6072 192.245 16.6072C192.905 16.6072 193.508 16.7099 194.056 16.9151C194.603 17.1204 195.076 17.4242 195.474 17.8267C195.873 18.2292 196.183 18.7262 196.404 19.3178C196.625 19.9054 196.736 20.5795 196.736 21.3402V22.0767H188.677V20.3622H193.989C193.985 20.0483 193.911 19.7686 193.766 19.5231C193.621 19.2776 193.422 19.0864 193.168 18.9496C192.919 18.8087 192.631 18.7383 192.305 18.7383C191.975 18.7383 191.679 18.8127 191.417 18.9616C191.156 19.1065 190.949 19.3057 190.796 19.5593C190.643 19.8088 190.562 20.0926 190.554 20.4105V22.1552C190.554 22.5335 190.629 22.8655 190.778 23.1513C190.926 23.433 191.138 23.6523 191.411 23.8093C191.685 23.9663 192.011 24.0447 192.389 24.0447C192.651 24.0447 192.888 24.0085 193.102 23.9361C193.315 23.8636 193.498 23.757 193.651 23.6161C193.804 23.4752 193.919 23.3022 193.995 23.0969L196.706 23.1754C196.593 23.7831 196.346 24.3124 195.963 24.7631C195.585 25.2099 195.088 25.558 194.472 25.8075C193.856 26.053 193.144 26.1758 192.335 26.1758ZM201.196 13.6371V26.0007H198.244V13.6371H201.196Z" fill="white"/>
</g>
<defs>
<filter id="filter0_d_1_56" x="2.39972" y="0.39972" width="39.202" height="39.202" filterUnits="userSpaceOnUse" color-interpolation-filters="sRGB">
<feFlood flood-opacity="0" result="BackgroundImageFix"/>
<feColorMatrix in="SourceAlpha" type="matrix" values="0 0 0 0 0 0 0 0 0 0 0 0 0 0 0 0 0 0 127 0" result="hardAlpha"/>
<feOffset/>
<feGaussianBlur stdDeviation="2.80014"/>
<feComposite in2="hardAlpha" operator="out"/>
<feColorMatrix type="matrix" values="0 0 0 0 0 0 0 0 0 0 0 0 0 0 0 0 0 0 0.25 0"/>
<feBlend mode="normal" in2="BackgroundImageFix" result="effect1_dropShadow_1_56"/>
<feBlend mode="normal" in="SourceGraphic" in2="effect1_dropShadow_1_56" result="shape"/>
</filter>
<filter id="filter1_d_1_56" x="36.2871" y="3.78642" width="172.429" height="32.4286" filterUnits="userSpaceOnUse" color-interpolation-filters="sRGB">
<feFlood flood-opacity="0" result="BackgroundImageFix"/>
<feColorMatrix in="SourceAlpha" type="matrix" values="0 0 0 0 0 0 0 0 0 0 0 0 0 0 0 0 0 0 127 0" result="hardAlpha"/>
<feOffset/>
<feGaussianBlur stdDeviation="2.85714"/>
<feComposite in2="hardAlpha" operator="out"/>
<feColorMatrix type="matrix" values="0 0 0 0 0 0 0 0 0 0 0 0 0 0 0 0 0 0 0.25 0"/>
<feBlend mode="normal" in2="BackgroundImageFix" result="effect1_dropShadow_1_56"/>
<feBlend mode="normal" in="SourceGraphic" in2="effect1_dropShadow_1_56" result="shape"/>
</filter>
<linearGradient id="paint0_linear_1_56" x1="105.501" y1="0" x2="105.501" y2="40.0014" gradientUnits="userSpaceOnUse">
<stop stop-color="#1E1E1E"/>
<stop offset="1" stop-color="#0D0D0D"/>
</linearGradient>
<clipPath id="clip0_1_56">
<rect width="28" height="24.2424" fill="white" transform="translate(8 7.75)"/>
</clipPath>
</defs>
</svg>
