<svg width="168" height="56" viewBox="0 0 168 56" fill="none" xmlns="http://www.w3.org/2000/svg">
<rect width="168" height="56" rx="8" fill="url(#paint0_linear_1_50)"/>
<rect x="1.05" y="1.05" width="165.9" height="53.9" rx="6.95" stroke="white" stroke-opacity="0.15" stroke-width="2.1"/>
<g filter="url(#filter0_d_1_50)">
<g clip-path="url(#clip0_1_50)">
<path d="M31.9946 10.5L51.9893 45.132H12L31.9946 10.5Z" fill="white"/>
</g>
</g>
<g filter="url(#filter1_d_1_50)">
<path d="M65.0454 24.5H61.2784V12.8636H65.1648C66.3049 12.8636 67.2841 13.0966 68.1023 13.5625C68.9204 14.0246 69.5473 14.6894 69.9829 15.5568C70.4223 16.4204 70.642 17.4564 70.642 18.6648C70.642 19.8769 70.4204 20.9186 69.9773 21.7898C69.5379 22.661 68.9015 23.3314 68.0682 23.8011C67.2348 24.267 66.2273 24.5 65.0454 24.5ZM63.0341 22.9659H64.9488C65.8352 22.9659 66.572 22.7992 67.1591 22.4659C67.7462 22.1288 68.1856 21.642 68.4773 21.0057C68.7689 20.3655 68.9148 19.5852 68.9148 18.6648C68.9148 17.7519 68.7689 16.9773 68.4773 16.3409C68.1894 15.7045 67.7595 15.2216 67.1875 14.892C66.6155 14.5625 65.9053 14.3977 65.0568 14.3977H63.0341V22.9659ZM76.4503 24.6761C75.5904 24.6761 74.8499 24.4924 74.2287 24.125C73.6112 23.7538 73.134 23.2329 72.7969 22.5625C72.4635 21.8883 72.2969 21.0985 72.2969 20.1932C72.2969 19.2992 72.4635 18.5114 72.7969 17.8295C73.134 17.1477 73.6037 16.6155 74.2059 16.2329C74.812 15.8504 75.5203 15.6591 76.3309 15.6591C76.8234 15.6591 77.3006 15.7405 77.7628 15.9034C78.2249 16.0663 78.6397 16.322 79.0071 16.6704C79.3745 17.0189 79.6643 17.4716 79.8764 18.0284C80.0885 18.5814 80.1946 19.2538 80.1946 20.0454V20.6477H73.2571V19.375H78.5298C78.5298 18.928 78.4389 18.5322 78.2571 18.1875C78.0753 17.839 77.8196 17.5644 77.49 17.3636C77.1643 17.1629 76.7817 17.0625 76.3423 17.0625C75.865 17.0625 75.4484 17.1799 75.0923 17.4148C74.74 17.6458 74.4673 17.9489 74.2741 18.3239C74.0847 18.6951 73.99 19.0985 73.99 19.5341V20.5284C73.99 21.1117 74.0923 21.6079 74.2969 22.017C74.5052 22.4261 74.795 22.7386 75.1662 22.9545C75.5374 23.1667 75.9711 23.2727 76.4673 23.2727C76.7893 23.2727 77.0828 23.2273 77.348 23.1364C77.6131 23.0417 77.8423 22.9015 78.0355 22.7159C78.2287 22.5303 78.3764 22.3011 78.4787 22.0284L80.0866 22.3182C79.9578 22.7917 79.7268 23.2064 79.3934 23.5625C79.0639 23.9148 78.6491 24.1894 78.1491 24.3864C77.6529 24.5795 77.0866 24.6761 76.4503 24.6761ZM82.0795 27.7727V15.7727H83.7386V17.1875H83.8807C83.9791 17.0057 84.1212 16.7954 84.3068 16.5568C84.4924 16.3182 84.75 16.1098 85.0795 15.9318C85.4091 15.75 85.8447 15.6591 86.3863 15.6591C87.0909 15.6591 87.7197 15.8371 88.2727 16.1932C88.8257 16.5492 89.2594 17.0625 89.5738 17.7329C89.892 18.4034 90.0511 19.2102 90.0511 20.1534C90.0511 21.0966 89.8939 21.9053 89.5795 22.5795C89.2651 23.25 88.8333 23.767 88.2841 24.1307C87.7348 24.4905 87.1079 24.6704 86.4034 24.6704C85.8731 24.6704 85.4394 24.5814 85.1023 24.4034C84.7689 24.2254 84.5076 24.017 84.3182 23.7784C84.1288 23.5398 83.9829 23.3276 83.8807 23.142H83.7784V27.7727H82.0795ZM83.7443 20.1364C83.7443 20.75 83.8333 21.2879 84.0113 21.75C84.1894 22.2121 84.4469 22.5739 84.7841 22.8352C85.1212 23.0928 85.5341 23.2216 86.0227 23.2216C86.5303 23.2216 86.9545 23.0871 87.2954 22.8182C87.6363 22.5454 87.8939 22.1761 88.0682 21.7102C88.2462 21.2443 88.3352 20.7197 88.3352 20.1364C88.3352 19.5606 88.2481 19.0436 88.0738 18.5852C87.9034 18.1269 87.6458 17.7651 87.3011 17.5C86.9602 17.2348 86.5341 17.1023 86.0227 17.1023C85.5303 17.1023 85.1136 17.2292 84.7727 17.4829C84.4356 17.7367 84.1799 18.0909 84.0057 18.5454C83.8314 19 83.7443 19.5303 83.7443 20.1364ZM93.6534 12.8636V24.5H91.9545V12.8636H93.6534ZM99.615 24.6761C98.7968 24.6761 98.0828 24.4886 97.473 24.1136C96.8631 23.7386 96.3897 23.214 96.0525 22.5398C95.7154 21.8655 95.5468 21.0776 95.5468 20.1761C95.5468 19.2708 95.7154 18.4792 96.0525 17.8011C96.3897 17.1231 96.8631 16.5966 97.473 16.2216C98.0828 15.8466 98.7968 15.6591 99.615 15.6591C100.433 15.6591 101.147 15.8466 101.757 16.2216C102.367 16.5966 102.84 17.1231 103.178 17.8011C103.515 18.4792 103.683 19.2708 103.683 20.1761C103.683 21.0776 103.515 21.8655 103.178 22.5398C102.84 23.214 102.367 23.7386 101.757 24.1136C101.147 24.4886 100.433 24.6761 99.615 24.6761ZM99.6207 23.25C100.151 23.25 100.59 23.1098 100.939 22.8295C101.287 22.5492 101.545 22.1761 101.712 21.7102C101.882 21.2443 101.967 20.7311 101.967 20.1704C101.967 19.6136 101.882 19.1023 101.712 18.6364C101.545 18.1667 101.287 17.7898 100.939 17.5057C100.59 17.2216 100.151 17.0795 99.6207 17.0795C99.0866 17.0795 98.6434 17.2216 98.2912 17.5057C97.9427 17.7898 97.6832 18.1667 97.5128 18.6364C97.3461 19.1023 97.2628 19.6136 97.2628 20.1704C97.2628 20.7311 97.3461 21.2443 97.5128 21.7102C97.6832 22.1761 97.9427 22.5492 98.2912 22.8295C98.6434 23.1098 99.0866 23.25 99.6207 23.25ZM106.357 27.7727C106.103 27.7727 105.872 27.7519 105.663 27.7102C105.455 27.6723 105.3 27.6307 105.197 27.5852L105.607 26.1932C105.917 26.2765 106.194 26.3125 106.436 26.3011C106.678 26.2898 106.892 26.1989 107.078 26.0284C107.267 25.8579 107.434 25.5795 107.578 25.1932L107.788 24.6136L104.595 15.7727H106.413L108.624 22.5454H108.714L110.925 15.7727H112.749L109.152 25.6648C108.985 26.1193 108.773 26.5038 108.516 26.8182C108.258 27.1364 107.951 27.375 107.595 27.5341C107.239 27.6932 106.826 27.7727 106.357 27.7727ZM117.81 24.6761C116.95 24.6761 116.209 24.4924 115.588 24.125C114.971 23.7538 114.493 23.2329 114.156 22.5625C113.823 21.8883 113.656 21.0985 113.656 20.1932C113.656 19.2992 113.823 18.5114 114.156 17.8295C114.493 17.1477 114.963 16.6155 115.565 16.2329C116.171 15.8504 116.88 15.6591 117.69 15.6591C118.183 15.6591 118.66 15.7405 119.122 15.9034C119.584 16.0663 119.999 16.322 120.366 16.6704C120.734 17.0189 121.024 17.4716 121.236 18.0284C121.448 18.5814 121.554 19.2538 121.554 20.0454V20.6477H114.616V19.375H119.889C119.889 18.928 119.798 18.5322 119.616 18.1875C119.435 17.839 119.179 17.5644 118.849 17.3636C118.524 17.1629 118.141 17.0625 117.702 17.0625C117.224 17.0625 116.808 17.1799 116.452 17.4148C116.099 17.6458 115.827 17.9489 115.633 18.3239C115.444 18.6951 115.349 19.0985 115.349 19.5341V20.5284C115.349 21.1117 115.452 21.6079 115.656 22.017C115.865 22.4261 116.154 22.7386 116.526 22.9545C116.897 23.1667 117.33 23.2727 117.827 23.2727C118.149 23.2727 118.442 23.2273 118.707 23.1364C118.973 23.0417 119.202 22.9015 119.395 22.7159C119.588 22.5303 119.736 22.3011 119.838 22.0284L121.446 22.3182C121.317 22.7917 121.086 23.2064 120.753 23.5625C120.423 23.9148 120.008 24.1894 119.508 24.3864C119.012 24.5795 118.446 24.6761 117.81 24.6761ZM126.706 24.6704C126.001 24.6704 125.373 24.4905 124.82 24.1307C124.27 23.767 123.839 23.25 123.524 22.5795C123.214 21.9053 123.058 21.0966 123.058 20.1534C123.058 19.2102 123.215 18.4034 123.53 17.7329C123.848 17.0625 124.284 16.5492 124.837 16.1932C125.39 15.8371 126.017 15.6591 126.717 15.6591C127.259 15.6591 127.695 15.75 128.024 15.9318C128.357 16.1098 128.615 16.3182 128.797 16.5568C128.982 16.7954 129.126 17.0057 129.229 17.1875H129.331V12.8636H131.03V24.5H129.371V23.142H129.229C129.126 23.3276 128.979 23.5398 128.785 23.7784C128.596 24.017 128.335 24.2254 128.001 24.4034C127.668 24.5814 127.236 24.6704 126.706 24.6704ZM127.081 23.2216C127.57 23.2216 127.982 23.0928 128.32 22.8352C128.66 22.5739 128.918 22.2121 129.092 21.75C129.27 21.2879 129.359 20.75 129.359 20.1364C129.359 19.5303 129.272 19 129.098 18.5454C128.924 18.0909 128.668 17.7367 128.331 17.4829C127.994 17.2292 127.577 17.1023 127.081 17.1023C126.57 17.1023 126.143 17.2348 125.803 17.5C125.462 17.7651 125.204 18.1269 125.03 18.5852C124.859 19.0436 124.774 19.5606 124.774 20.1364C124.774 20.7197 124.861 21.2443 125.035 21.7102C125.21 22.1761 125.467 22.5454 125.808 22.8182C126.153 23.0871 126.577 23.2216 127.081 23.2216ZM141.365 24.6761C140.547 24.6761 139.833 24.4886 139.223 24.1136C138.613 23.7386 138.14 23.214 137.803 22.5398C137.465 21.8655 137.297 21.0776 137.297 20.1761C137.297 19.2708 137.465 18.4792 137.803 17.8011C138.14 17.1231 138.613 16.5966 139.223 16.2216C139.833 15.8466 140.547 15.6591 141.365 15.6591C142.183 15.6591 142.897 15.8466 143.507 16.2216C144.117 16.5966 144.59 17.1231 144.928 17.8011C145.265 18.4792 145.433 19.2708 145.433 20.1761C145.433 21.0776 145.265 21.8655 144.928 22.5398C144.59 23.214 144.117 23.7386 143.507 24.1136C142.897 24.4886 142.183 24.6761 141.365 24.6761ZM141.371 23.25C141.901 23.25 142.34 23.1098 142.689 22.8295C143.037 22.5492 143.295 22.1761 143.462 21.7102C143.632 21.2443 143.717 20.7311 143.717 20.1704C143.717 19.6136 143.632 19.1023 143.462 18.6364C143.295 18.1667 143.037 17.7898 142.689 17.5057C142.34 17.2216 141.901 17.0795 141.371 17.0795C140.837 17.0795 140.393 17.2216 140.041 17.5057C139.693 17.7898 139.433 18.1667 139.263 18.6364C139.096 19.1023 139.013 19.6136 139.013 20.1704C139.013 20.7311 139.096 21.2443 139.263 21.7102C139.433 22.1761 139.693 22.5492 140.041 22.8295C140.393 23.1098 140.837 23.25 141.371 23.25ZM149.028 19.3182V24.5H147.33V15.7727H148.96V17.1932H149.068C149.269 16.7311 149.583 16.3598 150.011 16.0795C150.443 15.7992 150.987 15.6591 151.642 15.6591C152.237 15.6591 152.758 15.7841 153.205 16.0341C153.651 16.2803 153.998 16.6477 154.244 17.1364C154.49 17.625 154.614 18.2292 154.614 18.9489V24.5H152.915V19.1534C152.915 18.5208 152.75 18.0265 152.42 17.6704C152.091 17.3106 151.638 17.1307 151.062 17.1307C150.669 17.1307 150.318 17.2159 150.011 17.3864C149.708 17.5568 149.468 17.8068 149.29 18.1364C149.115 18.4621 149.028 18.8561 149.028 19.3182Z" fill="#E8E8E8"/>
<path d="M63.7429 31.1364L66.5078 40.1918H66.6104L69.3753 31.1364H72.7198L68.5483 43.5H64.5699L60.3984 31.1364H63.7429ZM77.2732 43.6751C76.3032 43.6751 75.4661 43.4839 74.7618 43.1016C74.0615 42.7152 73.5222 42.1658 73.1439 41.4535C72.7696 40.7371 72.5825 39.8859 72.5825 38.8998C72.5825 37.942 72.7716 37.1049 73.1499 36.3885C73.5282 35.6681 74.0615 35.1087 74.7497 34.7102C75.4379 34.3078 76.2489 34.1065 77.1826 34.1065C77.8426 34.1065 78.4463 34.2092 78.9937 34.4144C79.541 34.6197 80.0139 34.9235 80.4124 35.326C80.8108 35.7284 81.1207 36.2255 81.342 36.8171C81.5634 37.4047 81.6741 38.0788 81.6741 38.8395V39.576H73.6148V37.8615H78.9273C78.9232 37.5476 78.8488 37.2679 78.7039 37.0224C78.559 36.7769 78.3598 36.5857 78.1062 36.4489C77.8567 36.308 77.569 36.2376 77.243 36.2376C76.9129 36.2376 76.6171 36.312 76.3555 36.4609C76.0939 36.6058 75.8867 36.805 75.7337 37.0586C75.5808 37.3081 75.5003 37.5918 75.4923 37.9098V39.6545C75.4923 40.0328 75.5667 40.3648 75.7156 40.6506C75.8645 40.9323 76.0758 41.1516 76.3495 41.3086C76.6232 41.4655 76.9492 41.544 77.3275 41.544C77.5891 41.544 77.8265 41.5078 78.0398 41.4354C78.2531 41.3629 78.4363 41.2563 78.5892 41.1154C78.7421 40.9745 78.8568 40.8015 78.9333 40.5962L81.6439 40.6747C81.5312 41.2824 81.2837 41.8117 80.9013 42.2624C80.523 42.7092 80.026 43.0573 79.4102 43.3068C78.7945 43.5523 78.0821 43.6751 77.2732 43.6751ZM83.1818 43.5V34.2273H86.0493V35.9176H86.1459C86.315 35.3059 86.5906 34.8511 86.973 34.5533C87.3553 34.2514 87.8 34.1005 88.3071 34.1005C88.444 34.1005 88.5848 34.1105 88.7297 34.1307C88.8746 34.1468 89.0094 34.1729 89.1342 34.2092V36.7748C88.9933 36.7266 88.8082 36.6883 88.5788 36.6601C88.3534 36.632 88.1522 36.6179 87.9751 36.6179C87.625 36.6179 87.309 36.6964 87.0273 36.8533C86.7496 37.0063 86.5303 37.2216 86.3693 37.4993C86.2123 37.773 86.1339 38.0949 86.1339 38.4652V43.5H83.1818ZM94.1841 43.6751C93.2061 43.6751 92.367 43.4738 91.6667 43.0714C90.9704 42.6689 90.4352 42.1095 90.0609 41.3931C89.6866 40.6727 89.4994 39.8396 89.4994 38.8938C89.4994 37.944 89.6866 37.1109 90.0609 36.3945C90.4392 35.6741 90.9765 35.1127 91.6727 34.7102C92.373 34.3078 93.2081 34.1065 94.1781 34.1065C95.0353 34.1065 95.7819 34.2615 96.4178 34.5714C97.0577 34.8813 97.5567 35.3199 97.9149 35.8874C98.2771 36.4509 98.4683 37.1129 98.4884 37.8736H95.7296C95.6732 37.3987 95.5122 37.0264 95.2466 36.7567C94.985 36.4871 94.6429 36.3523 94.2203 36.3523C93.8782 36.3523 93.5784 36.4489 93.3208 36.642C93.0632 36.8312 92.862 37.1129 92.7171 37.4872C92.5763 37.8575 92.5058 38.3163 92.5058 38.8636C92.5058 39.411 92.5763 39.8738 92.7171 40.2521C92.862 40.6264 93.0632 40.9101 93.3208 41.1033C93.5784 41.2925 93.8782 41.3871 94.2203 41.3871C94.494 41.3871 94.7355 41.3287 94.9448 41.212C95.1581 41.0953 95.3331 40.9242 95.47 40.6989C95.6068 40.4694 95.6933 40.1918 95.7296 39.8658H98.4884C98.4603 40.6304 98.2691 41.2985 97.9149 41.87C97.5648 42.4415 97.0718 42.8862 96.4359 43.2042C95.804 43.5181 95.0534 43.6751 94.1841 43.6751ZM104.334 43.6751C103.364 43.6751 102.527 43.4839 101.822 43.1016C101.122 42.7152 100.583 42.1658 100.204 41.4535C99.8301 40.7371 99.643 39.8859 99.643 38.8998C99.643 37.942 99.8322 37.1049 100.21 36.3885C100.589 35.6681 101.122 35.1087 101.81 34.7102C102.498 34.3078 103.309 34.1065 104.243 34.1065C104.903 34.1065 105.507 34.2092 106.054 34.4144C106.602 34.6197 107.074 34.9235 107.473 35.326C107.871 35.7284 108.181 36.2255 108.403 36.8171C108.624 37.4047 108.735 38.0788 108.735 38.8395V39.576H100.675V37.8615H105.988C105.984 37.5476 105.909 37.2679 105.764 37.0224C105.62 36.7769 105.42 36.5857 105.167 36.4489C104.917 36.308 104.629 36.2376 104.304 36.2376C103.973 36.2376 103.678 36.312 103.416 36.4609C103.154 36.6058 102.947 36.805 102.794 37.0586C102.641 37.3081 102.561 37.5918 102.553 37.9098V39.6545C102.553 40.0328 102.627 40.3648 102.776 40.6506C102.925 40.9323 103.136 41.1516 103.41 41.3086C103.684 41.4655 104.01 41.544 104.388 41.544C104.65 41.544 104.887 41.5078 105.1 41.4354C105.314 41.3629 105.497 41.2563 105.65 41.1154C105.803 40.9745 105.917 40.8015 105.994 40.5962L108.704 40.6747C108.592 41.2824 108.344 41.8117 107.962 42.2624C107.584 42.7092 107.087 43.0573 106.471 43.3068C105.855 43.5523 105.143 43.6751 104.334 43.6751ZM113.194 31.1364V43.5H110.242V31.1364H113.194Z" fill="white"/>
</g>
<defs>
<filter id="filter0_d_1_50" x="6.28571" y="2.28571" width="51.4286" height="51.4286" filterUnits="userSpaceOnUse" color-interpolation-filters="sRGB">
<feFlood flood-opacity="0" result="BackgroundImageFix"/>
<feColorMatrix in="SourceAlpha" type="matrix" values="0 0 0 0 0 0 0 0 0 0 0 0 0 0 0 0 0 0 127 0" result="hardAlpha"/>
<feOffset/>
<feGaussianBlur stdDeviation="2.85714"/>
<feComposite in2="hardAlpha" operator="out"/>
<feColorMatrix type="matrix" values="0 0 0 0 0 0 0 0 0 0 0 0 0 0 0 0 0 0 0.25 0"/>
<feBlend mode="normal" in2="BackgroundImageFix" result="effect1_dropShadow_1_50"/>
<feBlend mode="normal" in="SourceGraphic" in2="effect1_dropShadow_1_50" result="shape"/>
</filter>
<filter id="filter1_d_1_50" x="54.4" y="3.9" width="107.2" height="48.2" filterUnits="userSpaceOnUse" color-interpolation-filters="sRGB">
<feFlood flood-opacity="0" result="BackgroundImageFix"/>
<feColorMatrix in="SourceAlpha" type="matrix" values="0 0 0 0 0 0 0 0 0 0 0 0 0 0 0 0 0 0 127 0" result="hardAlpha"/>
<feOffset/>
<feGaussianBlur stdDeviation="2.8"/>
<feComposite in2="hardAlpha" operator="out"/>
<feColorMatrix type="matrix" values="0 0 0 0 0 0 0 0 0 0 0 0 0 0 0 0 0 0 0.25 0"/>
<feBlend mode="normal" in2="BackgroundImageFix" result="effect1_dropShadow_1_50"/>
<feBlend mode="normal" in="SourceGraphic" in2="effect1_dropShadow_1_50" result="shape"/>
</filter>
<linearGradient id="paint0_linear_1_50" x1="84" y1="0" x2="84" y2="56" gradientUnits="userSpaceOnUse">
<stop stop-color="#1E1E1E"/>
<stop offset="1" stop-color="#0D0D0D"/>
</linearGradient>
<clipPath id="clip0_1_50">
<rect width="40" height="34.632" fill="white" transform="translate(12 10.5)"/>
</clipPath>
</defs>
</svg>
