<svg width="40" height="40" viewBox="0 0 40 40" fill="none" xmlns="http://www.w3.org/2000/svg">
<rect width="40" height="40" rx="8" fill="url(#paint0_linear_1_68)"/>
<rect x="1.05" y="1.05" width="37.9" height="37.9" rx="6.95" stroke="white" stroke-opacity="0.15" stroke-width="2.1"/>
<g filter="url(#filter0_d_1_68)">
<path fill-rule="evenodd" clip-rule="evenodd" d="M11.0685 34C15.9637 33.5735 20.6602 31.8652 24.6855 29.0471C28.7108 26.229 31.9229 22.4004 33.9986 17.9467C31.4181 14.259 27.9867 11.2478 23.9951 9.16813C20.0035 7.08849 15.5694 6.00175 11.0685 6C10.2546 6 9.43703 6.0336 8.61943 6.10827C6.54382 10.5633 5.67743 15.4862 6.10733 20.3822C6.53723 25.2782 8.24827 29.9748 11.0685 34Z" fill="url(#paint1_linear_1_68)"/>
<path fill-rule="evenodd" clip-rule="evenodd" d="M8.64557 6.10827C14.6061 8.53243 19.727 12.6476 23.3773 17.9467H33.9986C31.4264 14.2577 28.0008 11.245 24.0136 9.16489C20.0264 7.08482 15.5956 5.99904 11.0984 6C10.2845 6 9.4669 6.03609 8.64557 6.10827Z" fill="url(#paint2_linear_1_68)"/>
<path fill-rule="evenodd" clip-rule="evenodd" d="M23.381 17.9467C22.1005 26.3952 11.0685 34 11.0685 34C21.0962 33.048 29.892 27.0373 33.9986 17.9467H23.381Z" fill="url(#paint3_linear_1_68)"/>
</g>
<defs>
<filter id="filter0_d_1_68" x="2" y="2" width="36" height="36" filterUnits="userSpaceOnUse" color-interpolation-filters="sRGB">
<feFlood flood-opacity="0" result="BackgroundImageFix"/>
<feColorMatrix in="SourceAlpha" type="matrix" values="0 0 0 0 0 0 0 0 0 0 0 0 0 0 0 0 0 0 127 0" result="hardAlpha"/>
<feOffset/>
<feGaussianBlur stdDeviation="2"/>
<feComposite in2="hardAlpha" operator="out"/>
<feColorMatrix type="matrix" values="0 0 0 0 0 0 0 0 0 0 0 0 0 0 0 0 0 0 0.25 0"/>
<feBlend mode="normal" in2="BackgroundImageFix" result="effect1_dropShadow_1_68"/>
<feBlend mode="normal" in="SourceGraphic" in2="effect1_dropShadow_1_68" result="shape"/>
</filter>
<linearGradient id="paint0_linear_1_68" x1="20" y1="0" x2="20" y2="40" gradientUnits="userSpaceOnUse">
<stop stop-color="#16923F"/>
<stop offset="1" stop-color="#08508E"/>
</linearGradient>
<linearGradient id="paint1_linear_1_68" x1="18.621" y1="5.61547" x2="21.5442" y2="33.3243" gradientUnits="userSpaceOnUse">
<stop stop-color="#FCF84A"/>
<stop offset="0.32" stop-color="#ABE682"/>
<stop offset="0.79" stop-color="#36CDD2"/>
<stop offset="1" stop-color="#07C3F2"/>
</linearGradient>
<linearGradient id="paint2_linear_1_68" x1="7.90263" y1="6.04107" x2="34.1181" y2="18.4768" gradientUnits="userSpaceOnUse">
<stop stop-color="#3BEA62"/>
<stop offset="1" stop-color="#087CFA"/>
</linearGradient>
<linearGradient id="paint3_linear_1_68" x1="10.2957" y1="33.1152" x2="36.6904" y2="14.6389" gradientUnits="userSpaceOnUse">
<stop stop-color="#009AE5"/>
<stop offset="0.18" stop-color="#0490DD"/>
<stop offset="0.49" stop-color="#1073C6"/>
<stop offset="0.89" stop-color="#2346A1"/>
<stop offset="1" stop-color="#293896"/>
</linearGradient>
</defs>
</svg>
