<svg width="267" height="40" viewBox="0 0 267 40" fill="none" xmlns="http://www.w3.org/2000/svg">
<rect width="267.001" height="40.0014" rx="8" fill="url(#paint0_linear_1_56)"/>
<rect x="1.07143" y="1.07143" width="264.858" height="37.8585" rx="6.92857" stroke="white" stroke-opacity="0.15" stroke-width="2.14286"/>
<g filter="url(#filter0_d_1_56)">
<path fill-rule="evenodd" clip-rule="evenodd" d="M13.0685 34C17.9637 33.5735 22.6602 31.8652 26.6855 29.0471C30.7108 26.229 33.9229 22.4004 35.9986 17.9467C33.4181 14.259 29.9867 11.2478 25.9951 9.16813C22.0035 7.08849 17.5694 6.00175 13.0685 6C12.2546 6 11.437 6.0336 10.6194 6.10827C8.54382 10.5633 7.67743 15.4862 8.10733 20.3822C8.53723 25.2782 10.2483 29.9748 13.0685 34Z" fill="url(#paint1_linear_1_56)"/>
<path fill-rule="evenodd" clip-rule="evenodd" d="M10.6456 6.10827C16.6061 8.53243 21.727 12.6476 25.3773 17.9467H35.9986C33.4264 14.2577 30.0008 11.245 26.0136 9.16489C22.0264 7.08482 17.5956 5.99904 13.0984 6C12.2845 6 11.4669 6.03609 10.6456 6.10827Z" fill="url(#paint2_linear_1_56)"/>
<path fill-rule="evenodd" clip-rule="evenodd" d="M25.381 17.9467C24.1005 26.3952 13.0685 34 13.0685 34C23.0962 33.048 31.892 27.0373 35.9986 17.9467H25.381Z" fill="url(#paint3_linear_1_56)"/>
</g>
<g filter="url(#filter1_d_1_56)">
<path d="M43.3597 26.5007V14.1371H47.8874C48.7648 14.1371 49.4912 14.282 50.0667 14.5717C50.6423 14.8575 51.0729 15.2458 51.3586 15.7369C51.6444 16.2238 51.7873 16.7732 51.7873 17.3849C51.7873 17.9001 51.6927 18.3347 51.5035 18.6889C51.3144 19.0391 51.0608 19.3208 50.7429 19.5341C50.429 19.7434 50.0828 19.8963 49.7045 19.9929V20.1136C50.115 20.1337 50.5155 20.2666 50.9059 20.5121C51.3003 20.7535 51.6263 21.0976 51.8839 21.5444C52.1414 21.9911 52.2702 22.5344 52.2702 23.1743C52.2702 23.8062 52.1213 24.3737 51.8235 24.8768C51.5297 25.3758 51.0749 25.7722 50.4591 26.066C49.8434 26.3558 49.0566 26.5007 48.0987 26.5007H43.3597ZM45.2251 24.9009H47.9176C48.8111 24.9009 49.451 24.7279 49.8373 24.3817C50.2237 24.0356 50.4169 23.603 50.4169 23.0838C50.4169 22.6934 50.3183 22.3352 50.1211 22.0092C49.9239 21.6832 49.6421 21.4236 49.2759 21.2305C48.9137 21.0373 48.483 20.9407 47.984 20.9407H45.2251V24.9009ZM45.2251 19.4858H47.7244C48.143 19.4858 48.5193 19.4053 48.8533 19.2443C49.1914 19.0833 49.459 18.8579 49.6562 18.5682C49.8575 18.2744 49.9581 17.9283 49.9581 17.5298C49.9581 17.0187 49.779 16.5901 49.4208 16.244C49.0626 15.8978 48.5132 15.7248 47.7727 15.7248H45.2251V19.4858ZM60.2118 22.6552V17.228H62.0229V26.5007H60.248V24.8949H60.1514C59.9381 25.3899 59.596 25.8024 59.1251 26.1324C58.6583 26.4584 58.0767 26.6214 57.3805 26.6214C56.7848 26.6214 56.2576 26.4906 55.7988 26.229C55.344 25.9634 54.9858 25.571 54.7242 25.0518C54.4667 24.5327 54.3379 23.8907 54.3379 23.1261V17.228H56.1429V22.9087C56.1429 23.5406 56.318 24.0437 56.6681 24.418C57.0183 24.7922 57.473 24.9794 58.0325 24.9794C58.3705 24.9794 58.7066 24.8949 59.0406 24.7258C59.3787 24.5568 59.6584 24.3012 59.8798 23.9591C60.1051 23.6171 60.2158 23.1824 60.2118 22.6552ZM64.4482 26.5007V17.228H66.2533V26.5007H64.4482ZM65.3598 15.7972C65.0459 15.7972 64.7762 15.6926 64.5508 15.4833C64.3295 15.27 64.2188 15.0164 64.2188 14.7226C64.2188 14.4248 64.3295 14.1713 64.5508 13.962C64.7762 13.7487 65.0459 13.642 65.3598 13.642C65.6737 13.642 65.9413 13.7487 66.1627 13.962C66.3881 14.1713 66.5008 14.4248 66.5008 14.7226C66.5008 15.0164 66.3881 15.27 66.1627 15.4833C65.9413 15.6926 65.6737 15.7972 65.3598 15.7972ZM70.4867 14.1371V26.5007H68.6816V14.1371H70.4867ZM77.2435 17.228V18.6768H72.1785V17.228H77.2435ZM73.5368 15.0064H75.3419V23.778C75.3419 24.1282 75.3942 24.3918 75.4988 24.5689C75.6035 24.7419 75.7383 24.8607 75.9033 24.9251C76.0723 24.9854 76.2554 25.0156 76.4526 25.0156C76.5975 25.0156 76.7243 25.0056 76.833 24.9854C76.9416 24.9653 77.0262 24.9492 77.0865 24.9371L77.4125 26.4283C77.3079 26.4685 77.159 26.5087 76.9658 26.549C76.7726 26.5933 76.5311 26.6174 76.2414 26.6214C75.7664 26.6295 75.3237 26.545 74.9132 26.3679C74.5027 26.1908 74.1707 25.9171 73.9171 25.5469C73.6636 25.1766 73.5368 24.7118 73.5368 24.1523V15.0064ZM85.7495 26.5007L83.0208 17.228H84.8862L86.7034 24.0376H86.7939L88.6171 17.228H90.4825L92.2936 24.0074H92.3841L94.1891 17.228H96.0546L93.3319 26.5007H91.4906L89.6071 19.8057H89.4683L87.5847 26.5007H85.7495ZM97.7675 26.5007V17.228H99.5726V26.5007H97.7675ZM98.6791 15.7972C98.3652 15.7972 98.0955 15.6926 97.8702 15.4833C97.6488 15.27 97.5381 15.0164 97.5381 14.7226C97.5381 14.4248 97.6488 14.1713 97.8702 13.962C98.0955 13.7487 98.3652 13.642 98.6791 13.642C98.993 13.642 99.2607 13.7487 99.482 13.962C99.7074 14.1713 99.8201 14.4248 99.8201 14.7226C99.8201 15.0164 99.7074 15.27 99.482 15.4833C99.2607 15.6926 98.993 15.7972 98.6791 15.7972ZM106.329 17.228V18.6768H101.264V17.228H106.329ZM102.623 15.0064H104.428V23.778C104.428 24.1282 104.48 24.3918 104.585 24.5689C104.689 24.7419 104.824 24.8607 104.989 24.9251C105.158 24.9854 105.341 25.0156 105.539 25.0156C105.683 25.0156 105.81 25.0056 105.919 24.9854C106.028 24.9653 106.112 24.9492 106.172 24.9371L106.498 26.4283C106.394 26.4685 106.245 26.5087 106.052 26.549C105.859 26.5933 105.617 26.6174 105.327 26.6214C104.852 26.6295 104.41 26.545 103.999 26.3679C103.589 26.1908 103.257 25.9171 103.003 25.5469C102.75 25.1766 102.623 24.7118 102.623 24.1523V15.0064ZM110.33 20.995V26.5007H108.525V14.1371H110.306V18.7372H110.421C110.638 18.2382 110.97 17.8417 111.417 17.5479C111.864 17.2541 112.447 17.1072 113.168 17.1072C113.804 17.1072 114.359 17.238 114.834 17.4996C115.313 17.7612 115.683 18.1516 115.945 18.6708C116.21 19.1859 116.343 19.8299 116.343 20.6026V26.5007H114.538V20.8199C114.538 20.1398 114.363 19.6126 114.013 19.2383C113.663 18.86 113.176 18.6708 112.552 18.6708C112.125 18.6708 111.743 18.7614 111.405 18.9425C111.071 19.1236 110.807 19.3892 110.614 19.7393C110.425 20.0855 110.33 20.504 110.33 20.995Z" fill="#E8E8E8"/>
<path d="M127.96 13.6371H130.906V22.1854C130.902 22.9863 130.711 23.6865 130.332 24.2862C129.954 24.8819 129.431 25.3447 128.763 25.6747C128.099 26.0047 127.33 26.1697 126.457 26.1697C125.684 26.1697 124.982 26.0349 124.35 25.7653C123.722 25.4956 123.221 25.077 122.847 24.5096C122.476 23.9421 122.293 23.2157 122.297 22.3302H125.273C125.285 22.6482 125.346 22.9199 125.454 23.1452C125.567 23.3666 125.722 23.5336 125.919 23.6463C126.117 23.759 126.352 23.8153 126.626 23.8153C126.911 23.8153 127.153 23.755 127.35 23.6342C127.547 23.5095 127.696 23.3263 127.797 23.0849C127.901 22.8434 127.956 22.5435 127.96 22.1854V13.6371ZM137.116 26.1758C136.146 26.1758 135.309 25.9846 134.605 25.6023C133.905 25.2159 133.365 24.6665 132.987 23.9542C132.613 23.2378 132.426 22.3866 132.426 21.4006C132.426 20.4427 132.615 19.6056 132.993 18.8892C133.371 18.1688 133.905 17.6094 134.593 17.2109C135.281 16.8085 136.092 16.6072 137.026 16.6072C137.686 16.6072 138.29 16.7099 138.837 16.9151C139.384 17.1204 139.857 17.4242 140.256 17.8267C140.654 18.2292 140.964 18.7262 141.185 19.3178C141.407 19.9054 141.517 20.5795 141.517 21.3402V22.0767H133.458V20.3622H138.77C138.766 20.0483 138.692 19.7686 138.547 19.5231C138.402 19.2776 138.203 19.0864 137.949 18.9496C137.7 18.8087 137.412 18.7383 137.086 18.7383C136.756 18.7383 136.46 18.8127 136.199 18.9616C135.937 19.1065 135.73 19.3057 135.577 19.5593C135.424 19.8088 135.343 20.0926 135.335 20.4105V22.1552C135.335 22.5335 135.41 22.8655 135.559 23.1513C135.708 23.433 135.919 23.6523 136.193 23.8093C136.466 23.9663 136.792 24.0447 137.171 24.0447C137.432 24.0447 137.67 24.0085 137.883 23.9361C138.096 23.8636 138.279 23.757 138.432 23.6161C138.585 23.4752 138.7 23.3022 138.776 23.0969L141.487 23.1754C141.374 23.7831 141.127 24.3124 140.745 24.7631C140.366 25.2099 139.869 25.558 139.253 25.8075C138.638 26.053 137.925 26.1758 137.116 26.1758ZM148.259 16.728V18.9013H142.409V16.728H148.259ZM143.635 14.5064H146.587V23.0849C146.587 23.266 146.615 23.4129 146.671 23.5256C146.732 23.6342 146.818 23.7127 146.931 23.761C147.044 23.8053 147.178 23.8274 147.335 23.8274C147.448 23.8274 147.567 23.8173 147.692 23.7972C147.82 23.7731 147.917 23.7529 147.981 23.7368L148.428 25.8679C148.287 25.9081 148.088 25.9584 147.83 26.0188C147.577 26.0792 147.273 26.1174 146.919 26.1335C146.227 26.1657 145.633 26.0852 145.138 25.892C144.647 25.6948 144.271 25.389 144.009 24.9744C143.751 24.5599 143.627 24.0387 143.635 23.4109V14.5064ZM149.964 26.0007V13.6371H155.12C156.046 13.6371 156.82 13.7679 157.444 14.0295C158.072 14.2911 158.543 14.6573 158.857 15.1282C159.175 15.5991 159.334 16.1444 159.334 16.7642C159.334 17.2351 159.235 17.6556 159.038 18.0259C158.841 18.3922 158.569 18.696 158.223 18.9375C157.877 19.179 157.476 19.348 157.022 19.4446V19.5653C157.521 19.5895 157.981 19.7243 158.404 19.9698C158.831 20.2153 159.173 20.5574 159.43 20.9961C159.688 21.4307 159.817 21.9459 159.817 22.5415C159.817 23.2056 159.648 23.7992 159.31 24.3224C158.972 24.8416 158.483 25.2521 157.843 25.554C157.203 25.8518 156.426 26.0007 155.512 26.0007H149.964ZM152.953 23.592H154.8C155.448 23.592 155.925 23.4692 156.231 23.2237C156.541 22.9782 156.696 22.6361 156.696 22.1974C156.696 21.8795 156.621 21.6058 156.472 21.3764C156.323 21.143 156.112 20.9639 155.838 20.8391C155.565 20.7103 155.237 20.6459 154.854 20.6459H152.953V23.592ZM152.953 18.7202H154.607C154.933 18.7202 155.223 18.6658 155.476 18.5572C155.73 18.4485 155.927 18.2915 156.068 18.0863C156.213 17.881 156.285 17.6335 156.285 17.3437C156.285 16.9292 156.138 16.6032 155.844 16.3658C155.551 16.1283 155.154 16.0096 154.655 16.0096H152.953V18.7202ZM161.253 26.0007V16.728H164.121V18.4183H164.218C164.387 17.8066 164.662 17.3518 165.045 17.054C165.427 16.7521 165.872 16.6012 166.379 16.6012C166.516 16.6012 166.657 16.6113 166.801 16.6314C166.946 16.6475 167.081 16.6736 167.206 16.7099V19.2756C167.065 19.2273 166.88 19.189 166.651 19.1609C166.425 19.1327 166.224 19.1186 166.047 19.1186C165.697 19.1186 165.381 19.1971 165.099 19.354C164.821 19.507 164.602 19.7223 164.441 20C164.284 20.2737 164.206 20.5956 164.206 20.9659V26.0007H161.253ZM170.674 26.1577C170.083 26.1577 169.557 26.0591 169.098 25.8618C168.644 25.6606 168.283 25.3588 168.018 24.9563C167.756 24.5498 167.625 24.0407 167.625 23.429C167.625 22.9138 167.716 22.4792 167.897 22.125C168.078 21.7708 168.328 21.4831 168.646 21.2617C168.964 21.0404 169.33 20.8733 169.744 20.7606C170.159 20.6439 170.602 20.5654 171.073 20.5252C171.6 20.4769 172.024 20.4266 172.346 20.3743C172.668 20.3179 172.902 20.2395 173.047 20.1388C173.196 20.0342 173.27 19.8873 173.27 19.6981V19.668C173.27 19.3581 173.163 19.1186 172.95 18.9496C172.737 18.7805 172.449 18.696 172.087 18.696C171.696 18.696 171.382 18.7805 171.145 18.9496C170.908 19.1186 170.757 19.352 170.692 19.6498L167.97 19.5533C168.05 18.9898 168.257 18.4867 168.591 18.044C168.929 17.5973 169.392 17.2471 169.98 16.9936C170.571 16.736 171.282 16.6072 172.111 16.6072C172.703 16.6072 173.248 16.6777 173.747 16.8185C174.246 16.9554 174.681 17.1566 175.051 17.4222C175.421 17.6838 175.707 18.0058 175.908 18.3881C176.113 18.7705 176.216 19.2071 176.216 19.6981V26.0007H173.439V24.7088H173.367C173.202 25.0227 172.99 25.2883 172.733 25.5057C172.479 25.723 172.179 25.886 171.833 25.9947C171.491 26.1033 171.105 26.1577 170.674 26.1577ZM171.586 24.2258C171.904 24.2258 172.189 24.1614 172.443 24.0327C172.701 23.9039 172.906 23.7268 173.059 23.5014C173.212 23.272 173.288 23.0064 173.288 22.7045V21.8231C173.204 21.8674 173.101 21.9077 172.98 21.9439C172.864 21.9801 172.735 22.0143 172.594 22.0465C172.453 22.0787 172.308 22.1069 172.159 22.131C172.01 22.1552 171.867 22.1773 171.731 22.1974C171.453 22.2417 171.215 22.3101 171.018 22.4027C170.825 22.4953 170.676 22.616 170.571 22.7649C170.471 22.9098 170.421 23.0828 170.421 23.2841C170.421 23.59 170.529 23.8234 170.747 23.9844C170.968 24.1453 171.248 24.2258 171.586 24.2258ZM178.021 26.0007V16.728H180.973V26.0007H178.021ZM179.5 15.6474C179.086 15.6474 178.729 15.5105 178.432 15.2369C178.134 14.9592 177.985 14.6251 177.985 14.2347C177.985 13.8484 178.134 13.5183 178.432 13.2447C178.729 12.967 179.086 12.8281 179.5 12.8281C179.919 12.8281 180.275 12.967 180.569 13.2447C180.866 13.5183 181.015 13.8484 181.015 14.2347C181.015 14.6251 180.866 14.9592 180.569 15.2369C180.275 15.5105 179.919 15.6474 179.5 15.6474ZM185.804 20.7123V26.0007H182.852V16.728H185.659V18.4304H185.762C185.967 17.8629 186.317 17.4182 186.812 17.0962C187.307 16.7702 187.897 16.6072 188.581 16.6072C189.233 16.6072 189.799 16.7541 190.278 17.0479C190.76 17.3377 191.135 17.7442 191.4 18.2674C191.67 18.7866 191.803 19.3943 191.799 20.0905V26.0007H188.847V20.6701C188.851 20.1549 188.72 19.7525 188.454 19.4627C188.193 19.1729 187.829 19.028 187.362 19.028C187.052 19.028 186.778 19.0965 186.541 19.2333C186.307 19.3661 186.126 19.5573 185.997 19.8068C185.873 20.0563 185.808 20.3582 185.804 20.7123ZM201.722 19.5593L199.011 19.6317C198.983 19.4386 198.907 19.2675 198.782 19.1186C198.657 18.9657 198.494 18.8469 198.293 18.7624C198.096 18.6739 197.866 18.6296 197.605 18.6296C197.263 18.6296 196.971 18.698 196.73 18.8349C196.492 18.9717 196.375 19.1568 196.379 19.3903C196.375 19.5714 196.448 19.7283 196.597 19.8611C196.75 19.994 197.021 20.1006 197.412 20.1811L199.199 20.5192C200.124 20.6962 200.812 20.99 201.263 21.4006C201.718 21.8111 201.947 22.3544 201.951 23.0305C201.947 23.6664 201.758 24.2198 201.384 24.6907C201.014 25.1616 200.507 25.5278 199.863 25.7894C199.219 26.047 198.482 26.1758 197.653 26.1758C196.329 26.1758 195.285 25.9041 194.52 25.3608C193.759 24.8134 193.325 24.081 193.216 23.1633L196.132 23.0909C196.196 23.429 196.363 23.6865 196.633 23.8636C196.903 24.0407 197.247 24.1292 197.665 24.1292C198.044 24.1292 198.351 24.0588 198.589 23.918C198.826 23.7771 198.947 23.5899 198.951 23.3565C198.947 23.1472 198.855 22.9802 198.673 22.8555C198.492 22.7267 198.209 22.6261 197.822 22.5536L196.204 22.2457C195.275 22.0767 194.582 21.7648 194.128 21.31C193.673 20.8512 193.447 20.2676 193.451 19.5593C193.447 18.9395 193.612 18.4103 193.946 17.9716C194.281 17.5289 194.755 17.1908 195.371 16.9574C195.987 16.7239 196.713 16.6072 197.551 16.6072C198.806 16.6072 199.796 16.8708 200.521 17.3981C201.245 17.9213 201.646 18.6417 201.722 19.5593ZM213.74 17.3437C213.7 16.901 213.521 16.5569 213.203 16.3114C212.889 16.0619 212.44 15.9371 211.857 15.9371C211.47 15.9371 211.148 15.9874 210.891 16.0881C210.633 16.1887 210.44 16.3275 210.311 16.5046C210.182 16.6777 210.116 16.8769 210.112 17.1023C210.104 17.2874 210.14 17.4504 210.221 17.5913C210.305 17.7321 210.426 17.8569 210.583 17.9655C210.744 18.0702 210.937 18.1627 211.162 18.2432C211.388 18.3237 211.641 18.3942 211.923 18.4545L212.985 18.696C213.597 18.8288 214.136 19.0059 214.603 19.2273C215.074 19.4486 215.469 19.7122 215.787 20.0181C216.109 20.324 216.352 20.6761 216.517 21.0746C216.682 21.473 216.767 21.9197 216.771 22.4148C216.767 23.1955 216.569 23.8656 216.179 24.4251C215.789 24.9845 215.227 25.4131 214.495 25.7109C213.766 26.0087 212.887 26.1577 211.857 26.1577C210.822 26.1577 209.921 26.0027 209.152 25.6928C208.383 25.3829 207.786 24.912 207.359 24.2802C206.932 23.6483 206.713 22.8494 206.701 21.8835H209.563C209.587 22.2819 209.693 22.614 209.882 22.8796C210.072 23.1452 210.331 23.3465 210.661 23.4833C210.995 23.6201 211.382 23.6886 211.82 23.6886C212.223 23.6886 212.565 23.6342 212.847 23.5256C213.132 23.4169 213.352 23.266 213.505 23.0728C213.658 22.8796 213.736 22.6583 213.74 22.4087C213.736 22.1753 213.664 21.9761 213.523 21.8111C213.382 21.642 213.165 21.4971 212.871 21.3764C212.581 21.2516 212.211 21.1369 211.76 21.0323L210.468 20.7305C209.398 20.485 208.554 20.0885 207.939 19.5412C207.323 18.9898 207.017 18.2453 207.021 17.3075C207.017 16.5428 207.222 15.8727 207.637 15.2972C208.051 14.7217 208.625 14.273 209.357 13.951C210.09 13.629 210.925 13.468 211.863 13.468C212.82 13.468 213.652 13.631 214.356 13.957C215.064 14.279 215.614 14.7318 216.004 15.3153C216.394 15.8989 216.594 16.575 216.602 17.3437H213.74ZM218.28 29.478V16.728H221.202V18.3157H221.292C221.413 18.034 221.584 17.7623 221.805 17.5007C222.031 17.2391 222.317 17.0258 222.663 16.8608C223.013 16.6918 223.431 16.6072 223.918 16.6072C224.562 16.6072 225.164 16.7763 225.723 17.1143C226.287 17.4524 226.742 17.9736 227.088 18.6779C227.434 19.3822 227.607 20.2797 227.607 21.3704C227.607 22.4208 227.44 23.3002 227.106 24.0085C226.776 24.7168 226.329 25.2481 225.766 25.6023C225.206 25.9564 224.584 26.1335 223.9 26.1335C223.433 26.1335 223.029 26.057 222.687 25.9041C222.345 25.7512 222.057 25.5499 221.824 25.3004C221.594 25.0509 221.417 24.7832 221.292 24.4975H221.232V29.478H218.28ZM221.172 21.3643C221.172 21.8634 221.238 22.298 221.371 22.6683C221.508 23.0386 221.703 23.3263 221.956 23.5316C222.214 23.7328 222.522 23.8334 222.88 23.8334C223.242 23.8334 223.55 23.7328 223.804 23.5316C224.057 23.3263 224.248 23.0386 224.377 22.6683C224.51 22.298 224.576 21.8634 224.576 21.3643C224.576 20.8653 224.51 20.4326 224.377 20.0664C224.248 19.7002 224.057 19.4164 223.804 19.2152C223.554 19.014 223.246 18.9133 222.88 18.9133C222.518 18.9133 222.21 19.0119 221.956 19.2092C221.703 19.4064 221.508 19.6881 221.371 20.0543C221.238 20.4206 221.172 20.8572 221.172 21.3643ZM231.768 26.1577C231.176 26.1577 230.651 26.0591 230.192 25.8618C229.737 25.6606 229.377 25.3588 229.112 24.9563C228.85 24.5498 228.719 24.0407 228.719 23.429C228.719 22.9138 228.81 22.4792 228.991 22.125C229.172 21.7708 229.421 21.4831 229.739 21.2617C230.057 21.0404 230.424 20.8733 230.838 20.7606C231.253 20.6439 231.695 20.5654 232.166 20.5252C232.694 20.4769 233.118 20.4266 233.44 20.3743C233.762 20.3179 233.995 20.2395 234.14 20.1388C234.289 20.0342 234.364 19.8873 234.364 19.6981V19.668C234.364 19.3581 234.257 19.1186 234.044 18.9496C233.83 18.7805 233.543 18.696 233.18 18.696C232.79 18.696 232.476 18.7805 232.239 18.9496C232.001 19.1186 231.85 19.352 231.786 19.6498L229.063 19.5533C229.144 18.9898 229.351 18.4867 229.685 18.044C230.023 17.5973 230.486 17.2471 231.074 16.9936C231.665 16.736 232.376 16.6072 233.205 16.6072C233.796 16.6072 234.342 16.6777 234.841 16.8185C235.34 16.9554 235.774 17.1566 236.145 17.4222C236.515 17.6838 236.801 18.0058 237.002 18.3881C237.207 18.7705 237.31 19.2071 237.31 19.6981V26.0007H234.533V24.7088H234.46C234.295 25.0227 234.084 25.2883 233.826 25.5057C233.573 25.723 233.273 25.886 232.927 25.9947C232.585 26.1033 232.198 26.1577 231.768 26.1577ZM232.679 24.2258C232.997 24.2258 233.283 24.1614 233.537 24.0327C233.794 23.9039 234 23.7268 234.152 23.5014C234.305 23.272 234.382 23.0064 234.382 22.7045V21.8231C234.297 21.8674 234.195 21.9077 234.074 21.9439C233.957 21.9801 233.828 22.0143 233.688 22.0465C233.547 22.0787 233.402 22.1069 233.253 22.131C233.104 22.1552 232.961 22.1773 232.824 22.1974C232.547 22.2417 232.309 22.3101 232.112 22.4027C231.919 22.4953 231.77 22.616 231.665 22.7649C231.565 22.9098 231.514 23.0828 231.514 23.2841C231.514 23.59 231.623 23.8234 231.84 23.9844C232.062 24.1453 232.341 24.2258 232.679 24.2258ZM243.443 26.1758C242.465 26.1758 241.626 25.9745 240.926 25.5721C240.23 25.1696 239.694 24.6102 239.32 23.8938C238.946 23.1734 238.759 22.3403 238.759 21.3945C238.759 20.4447 238.946 19.6116 239.32 18.8952C239.698 18.1748 240.236 17.6134 240.932 17.2109C241.632 16.8085 242.467 16.6072 243.437 16.6072C244.294 16.6072 245.041 16.7622 245.677 17.0721C246.317 17.382 246.816 17.8207 247.174 18.3881C247.536 18.9516 247.727 19.6136 247.748 20.3743H244.989C244.932 19.8994 244.771 19.5271 244.506 19.2574C244.244 18.9878 243.902 18.853 243.479 18.853C243.137 18.853 242.838 18.9496 242.58 19.1427C242.322 19.3319 242.121 19.6136 241.976 19.9879C241.835 20.3582 241.765 20.817 241.765 21.3643C241.765 21.9117 241.835 22.3745 241.976 22.7528C242.121 23.1271 242.322 23.4109 242.58 23.604C242.838 23.7932 243.137 23.8878 243.479 23.8878C243.753 23.8878 243.995 23.8294 244.204 23.7127C244.417 23.596 244.592 23.4249 244.729 23.1996C244.866 22.9702 244.953 22.6925 244.989 22.3665H247.748C247.719 23.1311 247.528 23.7992 247.174 24.3707C246.824 24.9422 246.331 25.3869 245.695 25.7049C245.063 26.0188 244.313 26.1758 243.443 26.1758ZM253.593 26.1758C252.623 26.1758 251.786 25.9846 251.082 25.6023C250.381 25.2159 249.842 24.6665 249.464 23.9542C249.089 23.2378 248.902 22.3866 248.902 21.4006C248.902 20.4427 249.091 19.6056 249.47 18.8892C249.848 18.1688 250.381 17.6094 251.069 17.2109C251.758 16.8085 252.569 16.6072 253.502 16.6072C254.162 16.6072 254.766 16.7099 255.313 16.9151C255.861 17.1204 256.334 17.4242 256.732 17.8267C257.131 18.2292 257.44 18.7262 257.662 19.3178C257.883 19.9054 257.994 20.5795 257.994 21.3402V22.0767H249.934V20.3622H255.247C255.243 20.0483 255.169 19.7686 255.024 19.5231C254.879 19.2776 254.68 19.0864 254.426 18.9496C254.176 18.8087 253.889 18.7383 253.563 18.7383C253.233 18.7383 252.937 18.8127 252.675 18.9616C252.414 19.1065 252.206 19.3057 252.053 19.5593C251.901 19.8088 251.82 20.0926 251.812 20.4105V22.1552C251.812 22.5335 251.886 22.8655 252.035 23.1513C252.184 23.433 252.396 23.6523 252.669 23.8093C252.943 23.9663 253.269 24.0447 253.647 24.0447C253.909 24.0447 254.146 24.0085 254.36 23.9361C254.573 23.8636 254.756 23.757 254.909 23.6161C255.062 23.4752 255.177 23.3022 255.253 23.0969L257.964 23.1754C257.851 23.7831 257.603 24.3124 257.221 24.7631C256.843 25.2099 256.346 25.558 255.73 25.8075C255.114 26.053 254.402 26.1758 253.593 26.1758Z" fill="#84DD9D"/>
</g>
<defs>
<filter id="filter0_d_1_56" x="2.39972" y="0.39972" width="39.202" height="39.202" filterUnits="userSpaceOnUse" color-interpolation-filters="sRGB">
<feFlood flood-opacity="0" result="BackgroundImageFix"/>
<feColorMatrix in="SourceAlpha" type="matrix" values="0 0 0 0 0 0 0 0 0 0 0 0 0 0 0 0 0 0 127 0" result="hardAlpha"/>
<feOffset/>
<feGaussianBlur stdDeviation="2.80014"/>
<feComposite in2="hardAlpha" operator="out"/>
<feColorMatrix type="matrix" values="0 0 0 0 0 0 0 0 0 0 0 0 0 0 0 0 0 0 0.25 0"/>
<feBlend mode="normal" in2="BackgroundImageFix" result="effect1_dropShadow_1_56"/>
<feBlend mode="normal" in="SourceGraphic" in2="effect1_dropShadow_1_56" result="shape"/>
</filter>
<filter id="filter1_d_1_56" x="36.2871" y="3.78642" width="228.429" height="32.4286" filterUnits="userSpaceOnUse" color-interpolation-filters="sRGB">
<feFlood flood-opacity="0" result="BackgroundImageFix"/>
<feColorMatrix in="SourceAlpha" type="matrix" values="0 0 0 0 0 0 0 0 0 0 0 0 0 0 0 0 0 0 127 0" result="hardAlpha"/>
<feOffset/>
<feGaussianBlur stdDeviation="2.85714"/>
<feComposite in2="hardAlpha" operator="out"/>
<feColorMatrix type="matrix" values="0 0 0 0 0 0 0 0 0 0 0 0 0 0 0 0 0 0 0.25 0"/>
<feBlend mode="normal" in2="BackgroundImageFix" result="effect1_dropShadow_1_56"/>
<feBlend mode="normal" in="SourceGraphic" in2="effect1_dropShadow_1_56" result="shape"/>
</filter>
<linearGradient id="paint0_linear_1_56" x1="133.501" y1="0" x2="133.501" y2="40.0014" gradientUnits="userSpaceOnUse">
<stop stop-color="#16923F"/>
<stop offset="1" stop-color="#08508E"/>
</linearGradient>
<linearGradient id="paint1_linear_1_56" x1="20.621" y1="5.61547" x2="23.5442" y2="33.3243" gradientUnits="userSpaceOnUse">
<stop stop-color="#FCF84A"/>
<stop offset="0.32" stop-color="#ABE682"/>
<stop offset="0.79" stop-color="#36CDD2"/>
<stop offset="1" stop-color="#07C3F2"/>
</linearGradient>
<linearGradient id="paint2_linear_1_56" x1="9.90263" y1="6.04107" x2="36.1181" y2="18.4768" gradientUnits="userSpaceOnUse">
<stop stop-color="#3BEA62"/>
<stop offset="1" stop-color="#087CFA"/>
</linearGradient>
<linearGradient id="paint3_linear_1_56" x1="12.2957" y1="33.1152" x2="38.6904" y2="14.6389" gradientUnits="userSpaceOnUse">
<stop stop-color="#009AE5"/>
<stop offset="0.18" stop-color="#0490DD"/>
<stop offset="0.49" stop-color="#1073C6"/>
<stop offset="0.89" stop-color="#2346A1"/>
<stop offset="1" stop-color="#293896"/>
</linearGradient>
</defs>
</svg>
