<svg width="209" height="56" viewBox="0 0 209 56" fill="none" xmlns="http://www.w3.org/2000/svg">
<rect width="209" height="56" rx="8" fill="url(#paint0_linear_1_50)"/>
<rect x="1.05" y="1.05" width="206.9" height="53.9" rx="6.95" stroke="white" stroke-opacity="0.15" stroke-width="2.1"/>
<g filter="url(#filter0_d_1_50)">
<path fill-rule="evenodd" clip-rule="evenodd" d="M19.2407 48C26.2338 47.3907 32.9431 44.9503 38.6936 40.9244C44.444 36.8986 49.0327 31.4292 51.998 25.0667C48.3116 19.7986 43.4096 15.4968 37.7073 12.5259C32.005 9.55499 25.6705 8.0025 19.2407 8C18.078 8 16.91 8.048 15.742 8.15467C12.7769 14.519 11.5392 21.5518 12.1533 28.546C12.7675 35.5403 15.2118 42.2498 19.2407 48Z" fill="url(#paint1_linear_1_50)"/>
<path fill-rule="evenodd" clip-rule="evenodd" d="M15.7794 8.15467C24.2944 11.6178 31.6101 17.4966 36.8247 25.0667H51.998C48.3234 19.7967 43.4298 15.4928 37.7337 12.5213C32.0377 9.54974 25.7079 7.99863 19.2834 8C18.1207 8 16.9527 8.05156 15.7794 8.15467Z" fill="url(#paint2_linear_1_50)"/>
<path fill-rule="evenodd" clip-rule="evenodd" d="M36.8301 25.0667C35.0007 37.136 19.2407 48 19.2407 48C33.566 46.64 46.1314 38.0533 51.9981 25.0667H36.8301Z" fill="url(#paint3_linear_1_50)"/>
</g>
<g filter="url(#filter1_d_1_50)">
<path d="M61.2784 24.5V12.8636H65.5398C66.3655 12.8636 67.0492 13 67.5909 13.2727C68.1326 13.5417 68.5379 13.9072 68.8068 14.3693C69.0757 14.8276 69.2102 15.3447 69.2102 15.9204C69.2102 16.4053 69.1212 16.8144 68.9432 17.1477C68.7651 17.4773 68.5265 17.7424 68.2273 17.9432C67.9318 18.1401 67.606 18.2841 67.25 18.375V18.4886C67.6363 18.5076 68.0132 18.6326 68.3807 18.8636C68.7519 19.0909 69.0587 19.4148 69.3011 19.8352C69.5435 20.2557 69.6648 20.767 69.6648 21.3693C69.6648 21.964 69.5246 22.4981 69.2443 22.9716C68.9678 23.4413 68.5398 23.8144 67.9602 24.0909C67.3807 24.3636 66.6401 24.5 65.7386 24.5H61.2784ZM63.0341 22.9943H65.5682C66.4091 22.9943 67.0113 22.8314 67.375 22.5057C67.7386 22.1799 67.9204 21.7727 67.9204 21.2841C67.9204 20.9167 67.8276 20.5795 67.642 20.2727C67.4564 19.9659 67.1913 19.7216 66.8466 19.5398C66.5057 19.3579 66.1004 19.267 65.6307 19.267H63.0341V22.9943ZM63.0341 17.8977H65.3863C65.7803 17.8977 66.1345 17.822 66.4488 17.6704C66.767 17.5189 67.0189 17.3068 67.2045 17.0341C67.3939 16.7576 67.4886 16.4318 67.4886 16.0568C67.4886 15.5758 67.3201 15.1723 66.9829 14.8466C66.6458 14.5208 66.1288 14.3579 65.4318 14.3579H63.0341V17.8977ZM77.1392 20.8807V15.7727H78.8437V24.5H77.1733V22.9886H77.0824C76.8816 23.4545 76.5596 23.8428 76.1165 24.1534C75.6771 24.4602 75.1297 24.6136 74.4744 24.6136C73.9138 24.6136 73.4176 24.4905 72.9858 24.2443C72.5577 23.9943 72.2206 23.625 71.9744 23.1364C71.732 22.6477 71.6108 22.0436 71.6108 21.3239V15.7727H73.3096V21.1193C73.3096 21.714 73.4744 22.1875 73.804 22.5398C74.1335 22.892 74.5615 23.0682 75.088 23.0682C75.4062 23.0682 75.7225 22.9886 76.0369 22.8295C76.3551 22.6704 76.6184 22.4299 76.8267 22.1079C77.0388 21.786 77.143 21.3769 77.1392 20.8807ZM81.1264 24.5V15.7727H82.8253V24.5H81.1264ZM81.9844 14.4261C81.6889 14.4261 81.4351 14.3276 81.223 14.1307C81.0147 13.9299 80.9105 13.6913 80.9105 13.4148C80.9105 13.1345 81.0147 12.8958 81.223 12.6989C81.4351 12.4981 81.6889 12.3977 81.9844 12.3977C82.2798 12.3977 82.5317 12.4981 82.74 12.6989C82.9522 12.8958 83.0582 13.1345 83.0582 13.4148C83.0582 13.6913 82.9522 13.9299 82.74 14.1307C82.5317 14.3276 82.2798 14.4261 81.9844 14.4261ZM86.8096 12.8636V24.5H85.1108V12.8636H86.8096ZM93.169 15.7727V17.1364H88.402V15.7727H93.169ZM89.6804 13.6818H91.3792V21.9375C91.3792 22.267 91.4285 22.5151 91.527 22.6818C91.6254 22.8447 91.7523 22.9564 91.9076 23.017C92.0667 23.0739 92.2391 23.1023 92.4247 23.1023C92.5611 23.1023 92.6804 23.0928 92.7826 23.0739C92.8849 23.0549 92.9645 23.0398 93.0213 23.0284L93.3281 24.4318C93.2296 24.4697 93.0895 24.5076 92.9076 24.5454C92.7258 24.5871 92.4986 24.6098 92.2258 24.6136C91.7789 24.6212 91.3622 24.5417 90.9758 24.375C90.5895 24.2083 90.277 23.9508 90.0383 23.6023C89.7997 23.2538 89.6804 22.8163 89.6804 22.2898V13.6818ZM101.175 24.5L98.6065 15.7727H100.362L102.072 22.1818H102.158L103.874 15.7727H105.629L107.334 22.1534H107.419L109.118 15.7727H110.874L108.311 24.5H106.578L104.805 18.1989H104.675L102.902 24.5H101.175ZM112.486 24.5V15.7727H114.185V24.5H112.486ZM113.344 14.4261C113.048 14.4261 112.794 14.3276 112.582 14.1307C112.374 13.9299 112.27 13.6913 112.27 13.4148C112.27 13.1345 112.374 12.8958 112.582 12.6989C112.794 12.4981 113.048 12.3977 113.344 12.3977C113.639 12.3977 113.891 12.4981 114.099 12.6989C114.312 12.8958 114.418 13.1345 114.418 13.4148C114.418 13.6913 114.312 13.9299 114.099 14.1307C113.891 14.3276 113.639 14.4261 113.344 14.4261ZM120.544 15.7727V17.1364H115.777V15.7727H120.544ZM117.055 13.6818H118.754V21.9375C118.754 22.267 118.803 22.5151 118.902 22.6818C119 22.8447 119.127 22.9564 119.283 23.017C119.442 23.0739 119.614 23.1023 119.8 23.1023C119.936 23.1023 120.055 23.0928 120.158 23.0739C120.26 23.0549 120.339 23.0398 120.396 23.0284L120.703 24.4318C120.605 24.4697 120.464 24.5076 120.283 24.5454C120.101 24.5871 119.874 24.6098 119.601 24.6136C119.154 24.6212 118.737 24.5417 118.351 24.375C117.964 24.2083 117.652 23.9508 117.413 23.6023C117.175 23.2538 117.055 22.8163 117.055 22.2898V13.6818ZM124.31 19.3182V24.5H122.611V12.8636H124.287V17.1932H124.395C124.599 16.7235 124.912 16.3504 125.332 16.0739C125.753 15.7973 126.302 15.6591 126.98 15.6591C127.579 15.6591 128.101 15.7822 128.548 16.0284C128.999 16.2746 129.348 16.642 129.594 17.1307C129.844 17.6155 129.969 18.2216 129.969 18.9489V24.5H128.27V19.1534C128.27 18.5133 128.105 18.017 127.776 17.6648C127.446 17.3087 126.988 17.1307 126.401 17.1307C125.999 17.1307 125.639 17.2159 125.321 17.3864C125.007 17.5568 124.758 17.8068 124.577 18.1364C124.399 18.4621 124.31 18.8561 124.31 19.3182Z" fill="#E8E8E8"/>
<path d="M65.9584 31.1364H68.9045V39.6846C68.9004 40.4855 68.7093 41.1858 68.3309 41.7855C67.9526 42.3811 67.4294 42.844 66.7613 43.174C66.0973 43.504 65.3286 43.669 64.4552 43.669C63.6825 43.669 62.9802 43.5342 62.3484 43.2645C61.7205 42.9949 61.2194 42.5763 60.8452 42.0089C60.4749 41.4414 60.2918 40.715 60.2958 39.8295H63.272C63.2841 40.1475 63.3444 40.4191 63.4531 40.6445C63.5658 40.8659 63.7207 41.0329 63.918 41.1456C64.1152 41.2583 64.3506 41.3146 64.6243 41.3146C64.91 41.3146 65.1515 41.2542 65.3487 41.1335C65.5459 41.0087 65.6948 40.8256 65.7954 40.5842C65.9001 40.3427 65.9544 40.0428 65.9584 39.6846V31.1364ZM75.1149 43.6751C74.145 43.6751 73.3079 43.4839 72.6036 43.1016C71.9033 42.7152 71.364 42.1658 70.9857 41.4535C70.6114 40.7371 70.4243 39.8859 70.4243 38.8998C70.4243 37.942 70.6134 37.1049 70.9917 36.3885C71.37 35.6681 71.9033 35.1087 72.5915 34.7102C73.2797 34.3078 74.0907 34.1065 75.0244 34.1065C75.6844 34.1065 76.2881 34.2092 76.8355 34.4144C77.3828 34.6197 77.8557 34.9235 78.2542 35.326C78.6526 35.7284 78.9625 36.2255 79.1838 36.8171C79.4052 37.4047 79.5159 38.0788 79.5159 38.8395V39.576H71.4566V37.8615H76.7691C76.765 37.5476 76.6906 37.2679 76.5457 37.0224C76.4008 36.7769 76.2016 36.5857 75.948 36.4489C75.6985 36.308 75.4108 36.2376 75.0848 36.2376C74.7547 36.2376 74.4589 36.312 74.1973 36.4609C73.9357 36.6058 73.7285 36.805 73.5755 37.0586C73.4226 37.3081 73.3421 37.5918 73.3341 37.9098V39.6545C73.3341 40.0328 73.4085 40.3648 73.5574 40.6506C73.7063 40.9323 73.9176 41.1516 74.1913 41.3086C74.465 41.4655 74.791 41.544 75.1693 41.544C75.4309 41.544 75.6683 41.5078 75.8816 41.4354C76.0949 41.3629 76.2781 41.2563 76.431 41.1154C76.5839 40.9745 76.6986 40.8015 76.7751 40.5962L79.4857 40.6747C79.373 41.2824 79.1255 41.8117 78.7431 42.2624C78.3648 42.7092 77.8678 43.0573 77.252 43.3068C76.6363 43.5523 75.9239 43.6751 75.1149 43.6751ZM86.2576 34.2273V36.4006H80.4078V34.2273H86.2576ZM81.6333 32.0057H84.5854V40.5842C84.5854 40.7653 84.6136 40.9122 84.6699 41.0248C84.7303 41.1335 84.8168 41.212 84.9295 41.2603C85.0422 41.3046 85.177 41.3267 85.334 41.3267C85.4467 41.3267 85.5654 41.3166 85.6901 41.2965C85.8189 41.2724 85.9155 41.2522 85.9799 41.2361L86.4266 43.3672C86.2858 43.4074 86.0866 43.4577 85.829 43.5181C85.5754 43.5785 85.2716 43.6167 84.9174 43.6328C84.2252 43.665 83.6315 43.5845 83.1365 43.3913C82.6455 43.1941 82.2692 42.8882 82.0076 42.4737C81.75 42.0592 81.6253 41.538 81.6333 40.9101V32.0057ZM87.963 43.5V31.1364H93.1186C94.0442 31.1364 94.819 31.2672 95.4428 31.5288C96.0706 31.7904 96.5415 32.1566 96.8554 32.6275C97.1734 33.0984 97.3324 33.6437 97.3324 34.2635C97.3324 34.7344 97.2338 35.1549 97.0366 35.5252C96.8393 35.8914 96.5677 36.1953 96.2216 36.4368C95.8754 36.6783 95.475 36.8473 95.0202 36.9439V37.0646C95.5193 37.0888 95.9801 37.2236 96.4027 37.4691C96.8293 37.7146 97.1714 38.0567 97.429 38.4954C97.6865 38.93 97.8153 39.4452 97.8153 40.0408C97.8153 40.7049 97.6463 41.2985 97.3082 41.8217C96.9701 42.3409 96.4812 42.7514 95.8412 43.0533C95.2013 43.3511 94.4246 43.5 93.511 43.5H87.963ZM90.9513 41.0913H92.7986C93.4466 41.0913 93.9235 40.9685 94.2294 40.723C94.5393 40.4775 94.6942 40.1354 94.6942 39.6967C94.6942 39.3788 94.6198 39.1051 94.4709 38.8757C94.3219 38.6423 94.1107 38.4632 93.837 38.3384C93.5633 38.2096 93.2353 38.1452 92.853 38.1452H90.9513V41.0913ZM90.9513 36.2195H92.6054C92.9314 36.2195 93.2212 36.1651 93.4748 36.0565C93.7283 35.9478 93.9255 35.7908 94.0664 35.5856C94.2113 35.3803 94.2837 35.1328 94.2837 34.843C94.2837 34.4285 94.1368 34.1025 93.843 33.865C93.5492 33.6276 93.1528 33.5089 92.6537 33.5089H90.9513V36.2195ZM99.2521 43.5V34.2273H102.12V35.9176H102.216C102.385 35.3059 102.661 34.8511 103.043 34.5533C103.426 34.2514 103.87 34.1005 104.377 34.1005C104.514 34.1005 104.655 34.1105 104.8 34.1307C104.945 34.1468 105.08 34.1729 105.205 34.2092V36.7748C105.064 36.7266 104.879 36.6883 104.649 36.6601C104.424 36.632 104.223 36.6179 104.045 36.6179C103.695 36.6179 103.379 36.6964 103.098 36.8533C102.82 37.0063 102.601 37.2216 102.44 37.4993C102.283 37.773 102.204 38.0949 102.204 38.4652V43.5H99.2521ZM108.673 43.6569C108.081 43.6569 107.556 43.5583 107.097 43.3611C106.642 43.1599 106.282 42.8581 106.016 42.4556C105.755 42.0491 105.624 41.54 105.624 40.9283C105.624 40.4131 105.715 39.9784 105.896 39.6243C106.077 39.2701 106.326 38.9824 106.644 38.761C106.962 38.5396 107.329 38.3726 107.743 38.2599C108.158 38.1432 108.6 38.0647 109.071 38.0245C109.598 37.9762 110.023 37.9259 110.345 37.8736C110.667 37.8172 110.9 37.7387 111.045 37.6381C111.194 37.5335 111.269 37.3866 111.269 37.1974V37.1672C111.269 36.8574 111.162 36.6179 110.949 36.4489C110.735 36.2798 110.448 36.1953 110.085 36.1953C109.695 36.1953 109.381 36.2798 109.144 36.4489C108.906 36.6179 108.755 36.8513 108.691 37.1491L105.968 37.0525C106.049 36.4891 106.256 35.986 106.59 35.5433C106.928 35.0966 107.391 34.7464 107.978 34.4929C108.57 34.2353 109.28 34.1065 110.11 34.1065C110.701 34.1065 111.246 34.177 111.746 34.3178C112.245 34.4547 112.679 34.6559 113.05 34.9215C113.42 35.1831 113.706 35.5051 113.907 35.8874C114.112 36.2698 114.215 36.7064 114.215 37.1974V43.5H111.438V42.2081H111.365C111.2 42.522 110.989 42.7876 110.731 43.005C110.478 43.2223 110.178 43.3853 109.832 43.494C109.49 43.6026 109.103 43.6569 108.673 43.6569ZM109.584 41.7251C109.902 41.7251 110.188 41.6607 110.442 41.5319C110.699 41.4032 110.904 41.2261 111.057 41.0007C111.21 40.7713 111.287 40.5057 111.287 40.2038V39.3224C111.202 39.3667 111.1 39.4069 110.979 39.4432C110.862 39.4794 110.733 39.5136 110.592 39.5458C110.452 39.578 110.307 39.6062 110.158 39.6303C110.009 39.6545 109.866 39.6766 109.729 39.6967C109.451 39.741 109.214 39.8094 109.017 39.902C108.824 39.9945 108.675 40.1153 108.57 40.2642C108.469 40.4091 108.419 40.5821 108.419 40.7834C108.419 41.0892 108.528 41.3227 108.745 41.4837C108.967 41.6446 109.246 41.7251 109.584 41.7251ZM116.02 43.5V34.2273H118.972V43.5H116.02ZM117.499 33.1467C117.084 33.1467 116.728 33.0098 116.43 32.7361C116.132 32.4584 115.983 32.1244 115.983 31.734C115.983 31.3476 116.132 31.0176 116.43 30.744C116.728 30.4663 117.084 30.3274 117.499 30.3274C117.917 30.3274 118.273 30.4663 118.567 30.744C118.865 31.0176 119.014 31.3476 119.014 31.734C119.014 32.1244 118.865 32.4584 118.567 32.7361C118.273 33.0098 117.917 33.1467 117.499 33.1467ZM123.803 38.2116V43.5H120.851V34.2273H123.658V35.9297H123.761C123.966 35.3622 124.316 34.9175 124.811 34.5955C125.306 34.2695 125.896 34.1065 126.58 34.1065C127.232 34.1065 127.797 34.2534 128.276 34.5472C128.759 34.837 129.133 35.2435 129.399 35.7667C129.669 36.2859 129.801 36.8936 129.797 37.5898V43.5H126.845V38.1694C126.849 37.6542 126.719 37.2518 126.453 36.962C126.191 36.6722 125.827 36.5273 125.36 36.5273C125.05 36.5273 124.777 36.5958 124.539 36.7326C124.306 36.8654 124.125 37.0566 123.996 37.3061C123.871 37.5556 123.807 37.8575 123.803 38.2116ZM139.721 37.0586L137.01 37.131C136.982 36.9378 136.905 36.7668 136.781 36.6179C136.656 36.465 136.493 36.3462 136.292 36.2617C136.094 36.1732 135.865 36.1289 135.603 36.1289C135.261 36.1289 134.97 36.1973 134.728 36.3342C134.491 36.471 134.374 36.6561 134.378 36.8895C134.374 37.0707 134.446 37.2276 134.595 37.3604C134.748 37.4932 135.02 37.5999 135.41 37.6804L137.197 38.0185C138.123 38.1955 138.811 38.4893 139.262 38.8998C139.717 39.3104 139.946 39.8537 139.95 40.5298C139.946 41.1657 139.757 41.7191 139.383 42.19C139.012 42.6609 138.505 43.0271 137.861 43.2887C137.217 43.5463 136.481 43.6751 135.652 43.6751C134.328 43.6751 133.283 43.4034 132.519 42.8601C131.758 42.3127 131.323 41.5802 131.215 40.6626L134.13 40.5902C134.195 40.9283 134.362 41.1858 134.632 41.3629C134.901 41.54 135.245 41.6285 135.664 41.6285C136.042 41.6285 136.35 41.5581 136.587 41.4172C136.825 41.2764 136.946 41.0892 136.95 40.8558C136.946 40.6465 136.853 40.4795 136.672 40.3547C136.491 40.226 136.207 40.1253 135.821 40.0529L134.203 39.745C133.273 39.576 132.581 39.2641 132.126 38.8093C131.671 38.3505 131.446 37.7669 131.45 37.0586C131.446 36.4388 131.611 35.9096 131.945 35.4709C132.279 35.0282 132.754 34.6901 133.37 34.4567C133.986 34.2232 134.712 34.1065 135.549 34.1065C136.805 34.1065 137.795 34.3701 138.519 34.8974C139.244 35.4206 139.644 36.141 139.721 37.0586ZM151.739 34.843C151.698 34.4003 151.519 34.0562 151.201 33.8107C150.887 33.5612 150.439 33.4364 149.855 33.4364C149.469 33.4364 149.147 33.4867 148.889 33.5873C148.632 33.688 148.438 33.8268 148.31 34.0039C148.181 34.177 148.115 34.3762 148.11 34.6016C148.102 34.7867 148.139 34.9497 148.219 35.0905C148.304 35.2314 148.424 35.3562 148.581 35.4648C148.742 35.5695 148.936 35.662 149.161 35.7425C149.386 35.823 149.64 35.8935 149.922 35.9538L150.984 36.1953C151.596 36.3281 152.135 36.5052 152.602 36.7266C153.073 36.9479 153.467 37.2115 153.785 37.5174C154.107 37.8233 154.351 38.1754 154.516 38.5739C154.681 38.9723 154.765 39.419 154.769 39.9141C154.765 40.6948 154.568 41.3649 154.178 41.9243C153.787 42.4838 153.226 42.9124 152.493 43.2102C151.765 43.508 150.885 43.6569 149.855 43.6569C148.821 43.6569 147.919 43.502 147.151 43.1921C146.382 42.8822 145.784 42.4113 145.358 41.7795C144.931 41.1476 144.712 40.3487 144.7 39.3828H147.561C147.585 39.7812 147.692 40.1133 147.881 40.3789C148.07 40.6445 148.33 40.8458 148.66 40.9826C148.994 41.1194 149.38 41.1878 149.819 41.1878C150.221 41.1878 150.563 41.1335 150.845 41.0248C151.131 40.9162 151.35 40.7653 151.503 40.5721C151.656 40.3789 151.735 40.1575 151.739 39.908C151.735 39.6746 151.662 39.4754 151.521 39.3104C151.38 39.1413 151.163 38.9964 150.869 38.8757C150.58 38.7509 150.209 38.6362 149.759 38.5316L148.467 38.2297C147.396 37.9842 146.553 37.5878 145.937 37.0405C145.321 36.4891 145.016 35.7445 145.02 34.8068C145.016 34.0421 145.221 33.372 145.635 32.7965C146.05 32.221 146.623 31.7722 147.356 31.4503C148.088 31.1283 148.923 30.9673 149.861 30.9673C150.819 30.9673 151.65 31.1303 152.354 31.4563C153.063 31.7783 153.612 32.2311 154.003 32.8146C154.393 33.3982 154.592 34.0743 154.6 34.843H151.739ZM156.278 46.9773V34.2273H159.2V35.815H159.291C159.412 35.5333 159.583 35.2616 159.804 35C160.029 34.7384 160.315 34.5251 160.661 34.3601C161.011 34.191 161.43 34.1065 161.917 34.1065C162.561 34.1065 163.163 34.2756 163.722 34.6136C164.285 34.9517 164.74 35.4729 165.086 36.1772C165.432 36.8815 165.606 37.779 165.606 38.8697C165.606 39.9201 165.438 40.7995 165.104 41.5078C164.774 42.2161 164.328 42.7474 163.764 43.1016C163.205 43.4557 162.583 43.6328 161.899 43.6328C161.432 43.6328 161.028 43.5563 160.685 43.4034C160.343 43.2505 160.056 43.0492 159.822 42.7997C159.593 42.5502 159.416 42.2825 159.291 41.9968H159.231V46.9773H156.278ZM159.17 38.8636C159.17 39.3627 159.237 39.7973 159.369 40.1676C159.506 40.5379 159.701 40.8256 159.955 41.0309C160.213 41.2321 160.52 41.3327 160.879 41.3327C161.241 41.3327 161.549 41.2321 161.802 41.0309C162.056 40.8256 162.247 40.5379 162.376 40.1676C162.509 39.7973 162.575 39.3627 162.575 38.8636C162.575 38.3646 162.509 37.9319 162.376 37.5657C162.247 37.1994 162.056 36.9157 161.802 36.7145C161.553 36.5132 161.245 36.4126 160.879 36.4126C160.516 36.4126 160.208 36.5112 159.955 36.7084C159.701 36.9056 159.506 37.1874 159.369 37.5536C159.237 37.9199 159.17 38.3565 159.17 38.8636ZM169.766 43.6569C169.175 43.6569 168.65 43.5583 168.191 43.3611C167.736 43.1599 167.376 42.8581 167.11 42.4556C166.849 42.0491 166.718 41.54 166.718 40.9283C166.718 40.4131 166.808 39.9784 166.989 39.6243C167.171 39.2701 167.42 38.9824 167.738 38.761C168.056 38.5396 168.422 38.3726 168.837 38.2599C169.251 38.1432 169.694 38.0647 170.165 38.0245C170.692 37.9762 171.117 37.9259 171.439 37.8736C171.761 37.8172 171.994 37.7387 172.139 37.6381C172.288 37.5335 172.362 37.3866 172.362 37.1974V37.1672C172.362 36.8574 172.256 36.6179 172.042 36.4489C171.829 36.2798 171.541 36.1953 171.179 36.1953C170.789 36.1953 170.475 36.2798 170.237 36.4489C170 36.6179 169.849 36.8513 169.785 37.1491L167.062 37.0525C167.142 36.4891 167.35 35.986 167.684 35.5433C168.022 35.0966 168.485 34.7464 169.072 34.4929C169.664 34.2353 170.374 34.1065 171.203 34.1065C171.795 34.1065 172.34 34.177 172.839 34.3178C173.338 34.4547 173.773 34.6559 174.143 34.9215C174.514 35.1831 174.799 35.5051 175 35.8874C175.206 36.2698 175.308 36.7064 175.308 37.1974V43.5H172.531V42.2081H172.459C172.294 42.522 172.083 42.7876 171.825 43.005C171.572 43.2223 171.272 43.3853 170.926 43.494C170.583 43.6026 170.197 43.6569 169.766 43.6569ZM170.678 41.7251C170.996 41.7251 171.282 41.6607 171.535 41.5319C171.793 41.4032 171.998 41.2261 172.151 41.0007C172.304 40.7713 172.38 40.5057 172.38 40.2038V39.3224C172.296 39.3667 172.193 39.4069 172.073 39.4432C171.956 39.4794 171.827 39.5136 171.686 39.5458C171.545 39.578 171.4 39.6062 171.252 39.6303C171.103 39.6545 170.96 39.6766 170.823 39.6967C170.545 39.741 170.308 39.8094 170.111 39.902C169.917 39.9945 169.768 40.1153 169.664 40.2642C169.563 40.4091 169.513 40.5821 169.513 40.7834C169.513 41.0892 169.622 41.3227 169.839 41.4837C170.06 41.6446 170.34 41.7251 170.678 41.7251ZM181.442 43.6751C180.464 43.6751 179.625 43.4738 178.924 43.0714C178.228 42.6689 177.693 42.1095 177.319 41.3931C176.944 40.6727 176.757 39.8396 176.757 38.8938C176.757 37.944 176.944 37.1109 177.319 36.3945C177.697 35.6741 178.234 35.1127 178.931 34.7102C179.631 34.3078 180.466 34.1065 181.436 34.1065C182.293 34.1065 183.04 34.2615 183.676 34.5714C184.315 34.8813 184.815 35.3199 185.173 35.8874C185.535 36.4509 185.726 37.1129 185.746 37.8736H182.987C182.931 37.3987 182.77 37.0264 182.504 36.7567C182.243 36.4871 181.901 36.3523 181.478 36.3523C181.136 36.3523 180.836 36.4489 180.579 36.642C180.321 36.8312 180.12 37.1129 179.975 37.4872C179.834 37.8575 179.764 38.3163 179.764 38.8636C179.764 39.411 179.834 39.8738 179.975 40.2521C180.12 40.6264 180.321 40.9101 180.579 41.1033C180.836 41.2925 181.136 41.3871 181.478 41.3871C181.752 41.3871 181.993 41.3287 182.203 41.212C182.416 41.0953 182.591 40.9242 182.728 40.6989C182.865 40.4694 182.951 40.1918 182.987 39.8658H185.746C185.718 40.6304 185.527 41.2985 185.173 41.87C184.823 42.4415 184.33 42.8862 183.694 43.2042C183.062 43.5181 182.311 43.6751 181.442 43.6751ZM191.591 43.6751C190.622 43.6751 189.784 43.4839 189.08 43.1016C188.38 42.7152 187.841 42.1658 187.462 41.4535C187.088 40.7371 186.901 39.8859 186.901 38.8998C186.901 37.942 187.09 37.1049 187.468 36.3885C187.847 35.6681 188.38 35.1087 189.068 34.7102C189.756 34.3078 190.567 34.1065 191.501 34.1065C192.161 34.1065 192.765 34.2092 193.312 34.4144C193.859 34.6197 194.332 34.9235 194.731 35.326C195.129 35.7284 195.439 36.2255 195.66 36.8171C195.882 37.4047 195.992 38.0788 195.992 38.8395V39.576H187.933V37.8615H193.246C193.242 37.5476 193.167 37.2679 193.022 37.0224C192.877 36.7769 192.678 36.5857 192.425 36.4489C192.175 36.308 191.887 36.2376 191.561 36.2376C191.231 36.2376 190.935 36.312 190.674 36.4609C190.412 36.6058 190.205 36.805 190.052 37.0586C189.899 37.3081 189.819 37.5918 189.811 37.9098V39.6545C189.811 40.0328 189.885 40.3648 190.034 40.6506C190.183 40.9323 190.394 41.1516 190.668 41.3086C190.942 41.4655 191.267 41.544 191.646 41.544C191.907 41.544 192.145 41.5078 192.358 41.4354C192.571 41.3629 192.755 41.2563 192.908 41.1154C193.06 40.9745 193.175 40.8015 193.252 40.5962L195.962 40.6747C195.85 41.2824 195.602 41.8117 195.22 42.2624C194.841 42.7092 194.344 43.0573 193.729 43.3068C193.113 43.5523 192.4 43.6751 191.591 43.6751Z" fill="#84DD9D"/>
</g>
<defs>
<filter id="filter0_d_1_50" x="6.28571" y="2.28571" width="51.4286" height="51.4286" filterUnits="userSpaceOnUse" color-interpolation-filters="sRGB">
<feFlood flood-opacity="0" result="BackgroundImageFix"/>
<feColorMatrix in="SourceAlpha" type="matrix" values="0 0 0 0 0 0 0 0 0 0 0 0 0 0 0 0 0 0 127 0" result="hardAlpha"/>
<feOffset/>
<feGaussianBlur stdDeviation="2.85714"/>
<feComposite in2="hardAlpha" operator="out"/>
<feColorMatrix type="matrix" values="0 0 0 0 0 0 0 0 0 0 0 0 0 0 0 0 0 0 0.25 0"/>
<feBlend mode="normal" in2="BackgroundImageFix" result="effect1_dropShadow_1_50"/>
<feBlend mode="normal" in="SourceGraphic" in2="effect1_dropShadow_1_50" result="shape"/>
</filter>
<filter id="filter1_d_1_50" x="54.4" y="3.9" width="148.2" height="48.6773" filterUnits="userSpaceOnUse" color-interpolation-filters="sRGB">
<feFlood flood-opacity="0" result="BackgroundImageFix"/>
<feColorMatrix in="SourceAlpha" type="matrix" values="0 0 0 0 0 0 0 0 0 0 0 0 0 0 0 0 0 0 127 0" result="hardAlpha"/>
<feOffset/>
<feGaussianBlur stdDeviation="2.8"/>
<feComposite in2="hardAlpha" operator="out"/>
<feColorMatrix type="matrix" values="0 0 0 0 0 0 0 0 0 0 0 0 0 0 0 0 0 0 0.25 0"/>
<feBlend mode="normal" in2="BackgroundImageFix" result="effect1_dropShadow_1_50"/>
<feBlend mode="normal" in="SourceGraphic" in2="effect1_dropShadow_1_50" result="shape"/>
</filter>
<linearGradient id="paint0_linear_1_50" x1="104.5" y1="0" x2="104.5" y2="56" gradientUnits="userSpaceOnUse">
<stop stop-color="#16923F"/>
<stop offset="1" stop-color="#08508E"/>
</linearGradient>
<linearGradient id="paint1_linear_1_50" x1="30.03" y1="7.45067" x2="34.206" y2="47.0347" gradientUnits="userSpaceOnUse">
<stop stop-color="#FCF84A"/>
<stop offset="0.32" stop-color="#ABE682"/>
<stop offset="0.79" stop-color="#36CDD2"/>
<stop offset="1" stop-color="#07C3F2"/>
</linearGradient>
<linearGradient id="paint2_linear_1_50" x1="14.718" y1="8.05867" x2="52.1687" y2="25.824" gradientUnits="userSpaceOnUse">
<stop stop-color="#3BEA62"/>
<stop offset="1" stop-color="#087CFA"/>
</linearGradient>
<linearGradient id="paint3_linear_1_50" x1="18.1367" y1="46.736" x2="55.8434" y2="20.3413" gradientUnits="userSpaceOnUse">
<stop stop-color="#009AE5"/>
<stop offset="0.18" stop-color="#0490DD"/>
<stop offset="0.49" stop-color="#1073C6"/>
<stop offset="0.89" stop-color="#2346A1"/>
<stop offset="1" stop-color="#293896"/>
</linearGradient>
</defs>
</svg>
