<svg width="175" height="40" viewBox="0 0 175 40" fill="none" xmlns="http://www.w3.org/2000/svg">
<rect width="175.001" height="40.0014" rx="8" fill="url(#paint0_linear_1_56)"/>
<rect x="1.07143" y="1.07143" width="172.859" height="37.8585" rx="6.92857" stroke="white" stroke-opacity="0.15" stroke-width="2.14286"/>
<g filter="url(#filter0_d_1_56)">
<path d="M16.3659 29.9583C15.2993 29.1162 14.1602 28.3159 13.3859 27.1829C11.7498 25.1902 10.4872 22.883 9.62629 20.4534C9.10658 18.8792 8.92897 17.1861 8.25878 15.6669C7.55708 14.5705 8.37689 13.365 9.58517 13.0146C10.1233 12.9098 11.0708 12.4049 9.92727 12.7692C8.90185 13.5152 8.80648 12.0869 9.85465 11.996C10.5703 11.9008 10.8346 11.3137 10.5887 10.7904C9.82315 10.2899 12.4567 9.73948 11.1312 8.98817C9.75053 7.50041 13.063 7.21387 12.2476 8.90169C12.0516 10.2034 14.5627 8.66494 13.9791 10.1667C14.5714 10.8857 16.1935 10.3309 16.1524 11.3408C17.0186 11.4002 17.3143 12.1236 18.121 12.1777C18.9644 12.5604 20.4816 12.8557 20.7685 13.7974C19.9347 14.457 18.0073 12.4416 17.9163 14.2613C18.1665 16.9503 18.1035 19.7214 19.0878 22.2828C19.5568 23.8343 20.6872 25.0583 21.7082 26.2638C22.6838 27.4511 24.0049 28.2793 25.3541 28.9851C26.5387 29.5399 27.8152 29.9085 29.104 30.1409C29.6237 29.7408 30.5485 28.2574 31.364 28.8847C31.4007 29.5853 29.7462 30.3541 31.2861 30.2772C32.1881 30.0038 32.8172 30.9735 33.5644 30.0999C34.2477 30.9097 36.4167 29.5809 35.9293 31.2417C35.2688 31.6645 34.3028 31.4103 33.6414 31.9921C32.5521 31.4505 31.6816 32.4787 30.4741 32.3512C29.1346 32.5879 27.7671 32.6875 26.4092 32.6875C24.1808 32.5102 21.9024 32.4376 19.779 31.6636C18.5847 31.3133 17.4184 30.6363 16.3659 29.9583ZM18.2479 30.7725C19.4141 31.2731 20.5586 31.8052 21.8386 31.9694C23.8667 32.2472 25.963 32.684 27.9998 32.2883C27.0794 31.8698 26.1222 32.4525 25.2062 31.9877C24.1038 32.2245 22.9235 31.9283 21.8018 31.7833C20.5306 31.219 19.1543 30.8276 17.96 30.0903C16.4744 29.5486 18.73 30.7865 19.1359 30.8914C20.066 31.419 18.1105 30.6179 17.8375 30.3995C17.058 29.9627 16.9582 30.0536 17.7597 30.4947C17.9189 30.59 18.0799 30.6904 18.2479 30.7725ZM16.0282 29.2027C17.1586 29.6211 16.0238 28.4112 15.5041 28.4793C15.2766 28.0836 14.6291 27.8285 15.085 27.6197C14.2599 27.9019 14.2241 26.5364 13.8365 26.7277C12.9659 26.4543 13.4996 25.4854 12.4646 24.8896C12.3692 24.2615 11.4348 23.7155 11.1338 22.765C11.0017 22.2828 10.0813 20.8859 10.6465 22.1823C11.1294 23.4333 11.9816 24.5026 12.6877 25.5719C13.2389 26.5862 13.8863 27.6511 14.889 28.2836C15.2259 28.6069 15.5496 29.1031 16.0282 29.2027ZM12.7699 25.6313C12.9747 26 12.8067 25.4627 12.7699 25.6313ZM17.3817 29.7032C17.6319 29.594 17.0221 29.567 17.3817 29.7032ZM17.9968 29.9304C17.9329 29.6211 17.7142 30.099 17.9968 29.9304ZM18.7667 30.2493C19.1315 29.8989 18.2015 30.0308 18.7667 30.2493ZM20.0843 30.9822C20.3075 30.6546 19.3686 30.859 20.0843 30.9822ZM17.5549 29.221C18.1201 28.8523 16.8165 29.2166 17.5549 29.221ZM18.1289 29.5076C18.1149 29.3119 17.9241 29.594 18.1289 29.5076ZM21.0091 31.3046C21.4737 31.5955 23.7162 31.9414 22.3128 31.4225C22.0801 31.4723 19.7107 30.7533 21.0091 31.3046ZM16.4385 27.7464C16.393 27.5507 15.7184 27.528 16.4385 27.7464ZM17.778 28.5247C18.1289 28.2836 17.0536 28.3378 17.778 28.5247ZM18.9084 29.2166C19.4098 29.0297 18.093 29.0253 18.9084 29.2166ZM15.8917 27.1506C16.4341 27.569 18.0834 27.2056 16.7255 26.9051C16.106 26.5731 14.7114 26.3503 15.6589 27.1008L15.8917 27.1506ZM19.6696 29.4578C19.8971 29.0707 18.7221 29.235 19.6696 29.4578ZM18.5208 28.5431C19.8516 28.9205 17.4044 27.7062 18.1927 28.4068L18.3704 28.4846L18.5208 28.5431ZM20.8263 29.8719C22.0836 29.8858 19.6871 29.6989 20.8263 29.8719ZM15.4087 26.4228C15.3588 26.1905 15.099 26.4455 15.4087 26.4228ZM22.955 31.0635C22.9865 30.6406 22.5446 31.3823 22.955 31.0635ZM17.5549 27.7376C17.477 27.5148 17.1629 27.7289 17.5549 27.7376ZM15.5268 26.2769C16.2469 26.2359 14.5382 25.9581 15.5268 26.2769ZM13.1208 24.7254C13.0341 24.3795 12.3368 24.1069 13.1208 24.7254ZM19.4325 28.7292C19.3686 28.7606 19.3004 28.5745 19.4325 28.7292ZM23.3557 31.1316C23.347 30.9045 23.1457 31.2181 23.3557 31.1316ZM19.086 28.3701C19.1543 28.0696 18.4666 28.2793 19.086 28.3701ZM16.1603 26.5137C16.6931 26.4587 15.2993 26.1546 16.1603 26.5137ZM21.1089 29.5853C21.9427 29.2533 20.2882 29.4211 21.1089 29.5853ZM18.5348 27.8425C19.5008 27.9656 17.3861 27.1872 18.3205 27.7743L18.5348 27.8425ZM21.8885 29.9033C22.7905 29.3617 22.4948 31.1639 23.4196 30.0536C24.3313 29.3896 22.6313 30.8774 23.7564 30.1715C24.5675 29.6299 25.7705 30.431 26.5273 30.6904C27.0742 30.6633 27.607 31.1639 28.1635 30.859C29.2431 30.5681 26.0584 30.431 26.8922 29.9173C25.9079 30.2038 25.1791 29.5757 24.6961 28.9432C23.5884 28.6881 22.3128 28.1238 21.7616 27.1462C21.5341 26.7819 22.0853 27.2012 21.5656 26.6002C20.9007 26.0087 20.5673 25.3352 20.1211 24.6162C19.5883 24.334 19.5244 23.4971 19.4693 24.5891C19.4736 23.8972 18.8218 23.4333 18.667 23.629C18.6626 22.9651 19.3599 23.2971 18.8717 22.8052C18.7667 22.1133 18.4202 21.3943 18.3161 20.6168C18.1569 20.2438 18.2934 19.4427 17.7649 20.2892C17.5733 21.1855 17.701 19.1885 18.002 19.848C18.394 19.1745 17.8611 19.2522 17.8375 19.3475C18.093 18.7787 18.002 17.9733 17.7693 18.2782C17.9058 17.6771 17.988 16.0627 17.5645 16.3492C17.82 15.7211 18.0475 13.4689 16.9451 14.3286C16.4936 14.3329 15.7193 14.4928 15.3545 14.6745C16.5033 15.307 15.2364 14.9016 14.7709 14.8021C14.7114 15.3848 14.2468 15.134 13.6685 15.1384C14.5933 15.252 13.217 16.0801 12.6842 15.7622C11.9965 16.0898 13.2809 16.9092 12.6982 17.1634C12.7708 17.5461 11.6456 17.0271 11.7323 17.9095C11.0621 17.6273 11.6413 18.9604 11.9737 18.5105C13.1129 18.8154 12.776 19.5161 12.8032 20.1852C12.6212 20.5723 11.8915 19.2706 12.6439 19.33C12.0516 18.3699 11.9877 18.984 11.4908 19.4304C11.377 19.4619 12.7533 20.0673 11.8915 20.3678C12.6483 20.4814 12.6711 21.1462 12.8215 21.5647C13.2774 22.0425 13.1864 21.0414 13.7332 21.6145C13.3867 21.1052 11.9055 20.1809 13.0954 20.477C13.091 19.9677 12.881 19.5536 13.2459 19.5667C13.6107 18.9115 12.8679 21.182 13.6833 20.3495C13.9108 20.249 13.966 19.6943 14.3763 20.3993C14.9642 20.982 14.5863 21.4004 13.7568 20.8675C13.903 21.3725 14.8689 21.5542 14.6869 22.3422C14.8785 23.0385 15.1471 22.779 15.3842 22.7423C15.5662 23.4159 15.6712 22.9197 15.6808 22.5964C16.5242 22.7781 16.323 23.2743 16.5872 23.6247C17.1656 23.8841 15.7578 21.8504 16.7561 23.0105C17.7999 23.9566 17.1481 24.348 16.2049 24.1977C16.8016 24.1523 16.9932 25.0032 17.736 24.9709C18.415 25.2941 18.8752 26.5312 17.7045 26.0175C17.2986 25.6532 15.8637 25.198 17.0396 25.8943C18.1245 26.3949 18.9811 26.6954 20.0292 27.3227C20.772 27.8547 21.1001 28.4697 21.3827 28.5876C20.7537 28.8882 19.4868 28.3465 20.4256 28.1823C19.842 28.0775 19.1814 27.7822 19.7422 28.5099C20.2208 28.91 21.4326 28.8646 21.6513 28.91C21.4641 29.3154 21.15 29.3468 21.6601 29.3783C21.0905 29.6832 21.8421 29.7286 21.8928 29.9016L21.8885 29.9033ZM20.7309 26.6316C20.3844 26.2673 20.2935 25.5938 20.667 26.1808C20.8587 26.2586 21.2821 27.2868 20.7309 26.6316ZM24.5089 29.0253C24.7232 29.0166 24.5132 29.1896 24.5089 29.0253ZM20.1841 25.7449C20.3075 26.1677 20.1701 25.2033 20.1841 25.7449ZM19.8061 25.2443C20.3573 25.4811 19.373 24.4074 19.8061 25.2443ZM15.2582 22.1046C15.5137 22.0364 15.3816 22.5414 15.2582 22.1046ZM18.8813 24.0658C19.0633 24.562 19.0362 23.4788 18.8813 24.0658ZM16.3195 22.2915C16.6975 22.5964 16.1419 21.9683 16.3195 22.2915ZM18.5165 22.9922C18.1061 22.0731 18.8078 22.4916 18.6075 23.1468L18.5165 22.9922ZM14.7298 20.4709C14.5478 20.1704 14.2424 19.2837 14.3422 19.0146C14.4288 19.4514 15.2766 20.9077 14.7569 19.6157C14.1829 18.5324 15.4446 19.966 15.5776 20.2394C15.6371 20.5076 15.2224 20.1669 15.4997 20.7942C14.9896 20.0752 15.1987 21.1899 14.7298 20.4709ZM13.5582 19.6655C13.8268 20.1477 13.6081 18.9648 13.5582 19.6655ZM14.0867 19.848C14.5102 20.5854 14.3369 19.316 14.0867 19.848ZM12.8198 18.8696C12.3823 18.4372 12.0682 18.037 12.8382 18.6014C13.1391 18.6101 12.182 17.6963 12.9108 18.3105C13.6807 18.4511 13.2888 19.5711 12.8198 18.8705V18.8696ZM13.4856 18.8512C13.7411 18.6014 13.6177 19.0967 13.4856 18.8512ZM13.896 18.9832C14.3605 19.2837 13.5127 18.2642 13.896 18.9832ZM13.0796 18.2056C11.8127 17.0822 14.6746 18.7971 13.2844 18.4153L13.0796 18.2056ZM16.7115 20.3119C16.1603 19.9843 16.5654 18.0003 16.7526 19.3562C17.2854 19.1832 16.7211 20.0568 17.1175 20.0481C17.058 20.5985 16.8803 20.7985 16.7115 20.3119ZM18.0519 21.1034C18.1656 21.5131 18.107 20.5076 18.0519 21.1034ZM17.8191 20.8719C17.8786 20.6168 17.8235 21.1724 17.8191 20.8719ZM13.3308 17.837C12.5153 16.7135 15.6957 18.9701 13.8505 18.1192C13.6589 18.0694 13.427 18.051 13.3308 17.837ZM15.9144 19.2059C16.0877 19.3606 15.8366 18.2598 15.9144 19.2059ZM17.8786 20.4622C18.0291 19.9249 17.8874 20.8169 17.8786 20.4622ZM13.4532 17.4089C13.9362 17.3041 15.4586 18.2554 14.0596 17.6824C13.9047 17.5094 13.5766 17.5871 13.4532 17.4089ZM17.6048 19.475C17.6599 18.5105 17.8961 18.8975 17.6092 19.6113L17.6048 19.475ZM13.8137 17.0726C14.0097 16.786 13.2896 15.7665 13.9187 16.7083C14.1873 16.9223 14.7026 17.0673 14.2468 17.1591C14.9625 17.7872 14.0736 17.3277 13.8137 17.0726ZM17.4001 19.1745C17.5365 18.0737 17.5234 19.8157 17.4001 19.1745ZM13.4034 16.0574C13.5539 15.9937 13.4812 16.2575 13.4034 16.0574ZM14.3378 16.6131C14.7796 17.1774 14.5793 16.1081 14.3378 16.6131ZM16.9757 18.0825C17.0256 18.3603 16.9757 17.8868 16.9757 18.0825ZM16.8261 17.7409C17.1682 18.2188 16.4613 16.8402 16.8261 17.7409ZM16.5977 17.1494C16.8121 17.6177 16.5382 16.7764 16.5977 17.1494ZM16.967 16.5536C16.7167 16.1125 17.2863 14.6064 17.3449 15.5394C17.0807 16.2671 17.2723 16.6768 17.4543 15.6984C17.7964 14.9296 17.3817 17.2185 16.967 16.5536ZM17.3406 14.3146C17.4499 14.1783 17.3677 14.4736 17.3406 14.3146ZM16.7167 26.6771C16.7351 26.7592 16.5662 26.5451 16.7167 26.6771ZM18.0108 27.3279C18.7265 27.5148 18.7265 27.2187 18.0746 27.1322C17.7238 26.8046 16.6214 26.4587 17.61 27.0911C17.6739 27.2554 17.8839 27.2501 18.0064 27.3279H18.0108ZM15.4542 25.6357C15.8506 25.9319 16.9442 26.4726 16.015 25.7449C16.3291 25.3859 15.4183 25.1902 15.7184 24.9491C14.9529 24.4756 15.1121 24.521 15.6546 24.535C14.7245 24.1209 15.7867 24.1523 15.7368 23.9392C15.3772 23.871 13.9642 23.311 14.798 23.9846C13.9502 23.5565 14.5933 24.1488 14.3378 24.085C13.4716 23.8483 15.1077 24.7446 14.2013 24.5219C14.6983 24.9132 15.5408 25.5274 14.4113 24.9359C14.2608 25.15 15.218 25.4732 15.4551 25.6366L15.4542 25.6357ZM16.8077 26.4132C18.4526 26.9409 16.001 25.7624 16.8077 26.4132ZM23.7337 30.6039C23.7564 30.2763 23.5106 30.8817 23.7337 30.6039ZM24.4494 30.9045C24.8273 30.5358 24.4634 31.4872 25.0784 30.8136C25.0828 30.3314 25.0601 30.0448 24.3724 30.6319C24.1808 30.7367 24.0985 31.1823 24.4502 30.9053L24.4494 30.9045ZM13.1391 23.8107C13.0254 23.3556 12.3237 23.3556 13.1391 23.8107ZM13.9003 24.3113C13.6177 23.8431 12.8933 23.8885 13.9003 24.3113ZM18.2295 26.919C18.653 27.2921 20.171 27.1925 18.7448 26.9645C18.5305 26.6508 17.4009 26.7277 18.2295 26.919ZM24.1764 30.5856C24.8282 30.0396 23.5473 30.8267 24.1764 30.5856ZM25.529 31.5099C25.5334 31.3369 25.2508 31.5876 25.529 31.5099ZM25.529 31.2688C26.2491 30.5043 24.8317 31.3142 25.529 31.2688ZM11.2712 22.2505C10.6561 21.3769 10.8879 20.9811 10.2956 20.2709C10.1862 19.7205 9.2842 18.4826 9.83103 19.7974C10.3324 20.5618 10.4829 21.7499 11.2712 22.2505ZM25.3059 31.0224C26.6323 30.1715 24.7635 30.6537 25.3059 31.0224ZM26.3182 31.419C26.9832 30.8547 25.8991 31.3011 26.3182 31.419ZM12.916 22.8463C13.1076 22.5641 12.4287 22.8096 12.916 22.8463ZM26.1039 31.1499C26.7461 30.7359 25.9578 30.7996 25.9901 31.1866L26.1039 31.1499ZM17.3904 25.6628C17.3677 25.385 17.0483 25.6855 17.3904 25.6628ZM17.9285 25.972C17.7553 25.6261 17.6643 26.0271 17.9285 25.972ZM27.138 31.4321C27.9587 30.8363 26.6367 31.3142 26.9648 31.5413L27.138 31.4321ZM26.8239 31.2775C27.4941 30.7175 26.1126 31.5273 26.8239 31.2775ZM28.4321 32.3468C28.8835 32.0463 27.8852 32.2516 28.4321 32.3468ZM13.3308 22.6418C13.9327 22.7781 15.7412 24.1252 14.6746 22.7371C14.1278 22.5728 14.4559 21.2397 13.8951 21.4764C14.2687 22.1002 14.2048 22.3684 13.4209 21.9727C12.4322 21.4948 12.8653 22.2138 13.056 22.4095C12.7962 22.4689 13.4077 22.6366 13.3308 22.6418ZM10.5826 20.4762C10.6876 20.0306 9.5843 18.0239 10.0585 19.4706C10.2317 19.7712 10.2134 20.3486 10.5826 20.4762ZM15.6231 23.5836C15.6091 23.5425 15.3133 23.3241 15.6231 23.5836ZM16.3886 23.7609C16.3886 23.2874 15.5452 23.5696 16.3886 23.7609ZM23.0189 27.9333C22.8911 27.6101 22.5175 27.9246 23.0189 27.9333ZM23.3373 28.1657C23.2918 27.984 23.1554 28.1971 23.3373 28.1657ZM25.9665 29.8168C26.2167 29.6299 25.6524 29.7941 25.9665 29.8168ZM11.9545 20.8265C12.6789 20.5443 11.1802 20.6264 11.9545 20.8265ZM22.4353 27.4188C22.4265 26.9505 21.9751 27.5367 22.4353 27.4188ZM11.6675 20.1617C12.1321 20.0027 11.2388 20.0568 11.6675 20.1617ZM13.0158 20.8125C13.007 20.6579 12.8749 20.8719 13.0158 20.8125ZM29.4531 30.8774C30.0498 30.7594 31.4129 31.1823 31.6317 30.7184C30.9072 30.7044 29.1206 30.2091 29.0384 30.8363L29.1976 30.8634L29.4531 30.8774ZM13.4445 20.9217C13.4532 20.4482 13.0753 20.9034 13.4445 20.9217ZM9.89927 18.4642C9.74003 17.5635 9.28857 18.328 9.89927 18.4642ZM10.7471 18.6783C10.7558 18.3874 9.97277 18.4144 10.7471 18.6783ZM11.23 18.915C11.1207 19.0557 11.0892 18.8014 11.23 18.915ZM14.2643 20.8579C14.4104 20.7304 13.9275 20.7627 14.2643 20.8579ZM10.9063 18.383C10.8241 17.7007 9.92639 18.2782 10.9063 18.383ZM9.17483 17.2587C9.15208 16.945 9.00597 17.3766 9.17483 17.2587ZM9.42943 17.063C9.38831 16.6899 9.2107 17.1084 9.42943 17.063ZM10.8564 17.9139C11.4584 17.6771 9.75841 17.422 10.7331 17.8684L10.8564 17.9139ZM29.9089 29.6622C30.2965 29.3119 29.4216 29.553 29.9089 29.6622ZM32.2144 30.8547C32.3649 30.3995 31.8224 30.9141 32.2144 30.8547ZM11.0017 17.1678C11.0656 16.7266 10.5231 17.2543 11.0017 17.1678ZM8.97447 15.812C8.8651 15.1882 8.88348 14.0962 9.92202 14.4648C8.53175 14.7427 10.8836 16.1894 10.587 15.0475C11.1705 15.0746 11.7305 14.7016 11.4208 15.2703C12.5739 15.1428 13.371 14.1468 14.483 14.2831C15.3492 14.1696 16.2968 14.0831 17.2312 13.7371C17.9968 13.6777 18.7352 12.8548 18.3161 12.3673C17.2679 12.2764 16.1743 12.4084 15.0167 12.6355C13.7358 12.9037 12.5739 13.4086 11.2799 13.627C10.0174 13.7957 11.5301 14.0909 11.1705 14.1591C10.5143 14.3862 11.9545 14.5417 11.0839 14.7776C10.5511 14.6771 9.99026 14.4911 10.2177 13.9267C9.01034 14.0813 7.94818 14.5863 8.90535 15.8102L8.97447 15.812ZM11.8862 14.3329C12.1688 13.2907 13.4034 15.1882 12.3508 14.4692C12.2231 14.3784 12.0184 14.3006 11.8862 14.3329ZM11.9405 13.828C12.3465 13.5275 12.1548 13.9966 11.9405 13.828ZM12.4602 13.8376C12.4969 13.3597 13.6449 14.0927 12.6474 14.0106L12.4602 13.8376ZM13.1663 13.5502C13.4261 13.2496 13.2441 13.8236 13.1663 13.5502ZM13.3491 13.4322C13.7822 12.9133 15.7963 13.1003 14.3194 13.3824C13.9275 13.0863 13.6221 13.5554 13.3491 13.4322ZM15.9783 13.0269C17.2819 13.5318 15.91 11.6116 15.9783 13.0269ZM16.7211 13.0225C16.995 12.3079 17.778 12.736 16.8488 12.8766C16.8672 12.9544 16.8217 13.2453 16.7211 13.0225ZM10.706 16.8035C11.5214 16.3029 9.84503 16.3711 10.706 16.8035ZM11.307 16.9721C11.594 16.6672 10.6876 16.8446 11.307 16.9721ZM9.53443 15.7115C9.99901 15.3568 8.98759 15.5752 9.53443 15.7115ZM33.5723 30.7271C33.5863 30.313 33.2171 30.9141 33.5723 30.7271ZM31.1303 29.062C31.1986 28.5841 30.8162 29.1031 31.1303 29.062ZM34.2425 30.8861C34.8943 30.8861 36.2111 30.6861 34.7981 30.6861C34.5749 30.7227 33.504 30.7131 34.2425 30.8861ZM11.8355 16.6768C12.364 16.6401 12.6606 16.0994 11.7349 16.1308C10.2991 15.9806 12.9974 16.6174 11.5529 16.4357C11.3569 16.5633 11.8267 16.7135 11.8355 16.6768ZM12.301 16.9127C12.2458 16.5711 12.1365 17.09 12.301 16.9127ZM12.8478 15.4477C13.0805 15.1655 12.5337 15.3699 12.8478 15.4477ZM11.0979 12.5272C12.0411 12.2083 13.3264 11.8493 13.7682 12.6818C13.3168 12.1402 13.5862 11.6081 14.0141 12.3996C14.616 13.2051 14.9161 12.0353 14.5242 11.7671C14.9704 12.3219 15.477 12.5813 14.8251 11.7986C15.5365 10.9477 13.399 11.9122 12.9108 11.9034C12.6781 12.0082 10.496 12.4582 11.1014 12.5272H11.0979ZM11.6491 11.4753C12.1872 11.07 13.504 11.7121 12.6562 11.07C12.5783 11.0018 10.8057 11.5566 11.6491 11.4753ZM13.6037 11.5531C14.2328 11.5714 13.3351 10.7162 14.0823 11.1023C13.959 10.7022 13.2118 10.6244 12.8425 10.4655C12.6378 10.8341 13.266 11.5575 13.6037 11.5531ZM11.9956 9.78316C12.21 9.49225 11.6124 9.93342 11.9956 9.78316ZM12.7927 9.97448C13.7997 9.84257 12.5328 9.54204 12.5879 9.96574L12.7927 9.97448ZM11.3027 8.80908C10.5913 7.88043 12.6378 8.96808 11.9177 7.99488C11.307 7.51264 10.7235 8.54088 11.3027 8.80908ZM20.4299 13.7188C20.758 13.1413 19.0808 12.9404 20.2112 13.5144C20.3162 13.551 20.2891 13.7598 20.4299 13.7188Z" fill="white"/>
</g>
<g filter="url(#filter1_d_1_56)">
<g filter="url(#filter2_d_1_56)">
<path d="M43.3597 26.5007V14.1371H47.8874C48.7648 14.1371 49.4912 14.282 50.0667 14.5717C50.6423 14.8575 51.0729 15.2458 51.3586 15.7369C51.6444 16.2238 51.7873 16.7732 51.7873 17.3849C51.7873 17.9001 51.6927 18.3347 51.5035 18.6889C51.3144 19.0391 51.0608 19.3208 50.7429 19.5341C50.429 19.7434 50.0828 19.8963 49.7045 19.9929V20.1136C50.115 20.1337 50.5155 20.2666 50.9059 20.5121C51.3003 20.7535 51.6263 21.0976 51.8839 21.5444C52.1414 21.9911 52.2702 22.5344 52.2702 23.1743C52.2702 23.8062 52.1213 24.3737 51.8235 24.8768C51.5297 25.3758 51.0749 25.7722 50.4591 26.066C49.8434 26.3558 49.0566 26.5007 48.0987 26.5007H43.3597ZM45.2251 24.9009H47.9176C48.8111 24.9009 49.451 24.7279 49.8373 24.3817C50.2237 24.0356 50.4169 23.603 50.4169 23.0838C50.4169 22.6934 50.3183 22.3352 50.1211 22.0092C49.9239 21.6832 49.6421 21.4236 49.2759 21.2305C48.9137 21.0373 48.483 20.9407 47.984 20.9407H45.2251V24.9009ZM45.2251 19.4858H47.7244C48.143 19.4858 48.5193 19.4053 48.8533 19.2443C49.1914 19.0833 49.459 18.8579 49.6562 18.5682C49.8575 18.2744 49.9581 17.9283 49.9581 17.5298C49.9581 17.0187 49.779 16.5901 49.4208 16.244C49.0626 15.8978 48.5132 15.7248 47.7727 15.7248H45.2251V19.4858ZM60.2118 22.6552V17.228H62.0229V26.5007H60.248V24.8949H60.1514C59.9381 25.3899 59.596 25.8024 59.1251 26.1324C58.6583 26.4584 58.0767 26.6214 57.3805 26.6214C56.7848 26.6214 56.2576 26.4906 55.7988 26.229C55.344 25.9634 54.9858 25.571 54.7242 25.0518C54.4667 24.5327 54.3379 23.8907 54.3379 23.1261V17.228H56.1429V22.9087C56.1429 23.5406 56.318 24.0437 56.6681 24.418C57.0183 24.7922 57.473 24.9794 58.0325 24.9794C58.3705 24.9794 58.7066 24.8949 59.0406 24.7258C59.3787 24.5568 59.6584 24.3012 59.8798 23.9591C60.1051 23.6171 60.2158 23.1824 60.2118 22.6552ZM64.4482 26.5007V17.228H66.2533V26.5007H64.4482ZM65.3598 15.7972C65.0459 15.7972 64.7762 15.6926 64.5508 15.4833C64.3295 15.27 64.2188 15.0164 64.2188 14.7226C64.2188 14.4248 64.3295 14.1713 64.5508 13.962C64.7762 13.7487 65.0459 13.642 65.3598 13.642C65.6737 13.642 65.9413 13.7487 66.1627 13.962C66.3881 14.1713 66.5008 14.4248 66.5008 14.7226C66.5008 15.0164 66.3881 15.27 66.1627 15.4833C65.9413 15.6926 65.6737 15.7972 65.3598 15.7972ZM70.4867 14.1371V26.5007H68.6816V14.1371H70.4867ZM77.2435 17.228V18.6768H72.1785V17.228H77.2435ZM73.5368 15.0064H75.3419V23.778C75.3419 24.1282 75.3942 24.3918 75.4988 24.5689C75.6035 24.7419 75.7383 24.8607 75.9033 24.9251C76.0723 24.9854 76.2554 25.0156 76.4526 25.0156C76.5975 25.0156 76.7243 25.0056 76.833 24.9854C76.9416 24.9653 77.0262 24.9492 77.0865 24.9371L77.4125 26.4283C77.3079 26.4685 77.159 26.5087 76.9658 26.549C76.7726 26.5933 76.5311 26.6174 76.2414 26.6214C75.7664 26.6295 75.3237 26.545 74.9132 26.3679C74.5027 26.1908 74.1707 25.9171 73.9171 25.5469C73.6636 25.1766 73.5368 24.7118 73.5368 24.1523V15.0064ZM85.7495 26.5007L83.0208 17.228H84.8862L86.7034 24.0376H86.7939L88.6171 17.228H90.4825L92.2936 24.0074H92.3841L94.1891 17.228H96.0546L93.3319 26.5007H91.4906L89.6071 19.8057H89.4683L87.5847 26.5007H85.7495ZM97.7675 26.5007V17.228H99.5726V26.5007H97.7675ZM98.6791 15.7972C98.3652 15.7972 98.0955 15.6926 97.8702 15.4833C97.6488 15.27 97.5381 15.0164 97.5381 14.7226C97.5381 14.4248 97.6488 14.1713 97.8702 13.962C98.0955 13.7487 98.3652 13.642 98.6791 13.642C98.993 13.642 99.2607 13.7487 99.482 13.962C99.7074 14.1713 99.8201 14.4248 99.8201 14.7226C99.8201 15.0164 99.7074 15.27 99.482 15.4833C99.2607 15.6926 98.993 15.7972 98.6791 15.7972ZM106.329 17.228V18.6768H101.264V17.228H106.329ZM102.623 15.0064H104.428V23.778C104.428 24.1282 104.48 24.3918 104.585 24.5689C104.689 24.7419 104.824 24.8607 104.989 24.9251C105.158 24.9854 105.341 25.0156 105.539 25.0156C105.683 25.0156 105.81 25.0056 105.919 24.9854C106.028 24.9653 106.112 24.9492 106.172 24.9371L106.498 26.4283C106.394 26.4685 106.245 26.5087 106.052 26.549C105.859 26.5933 105.617 26.6174 105.327 26.6214C104.852 26.6295 104.41 26.545 103.999 26.3679C103.589 26.1908 103.257 25.9171 103.003 25.5469C102.75 25.1766 102.623 24.7118 102.623 24.1523V15.0064ZM110.33 20.995V26.5007H108.525V14.1371H110.306V18.7372H110.421C110.638 18.2382 110.97 17.8417 111.417 17.5479C111.864 17.2541 112.447 17.1072 113.168 17.1072C113.804 17.1072 114.359 17.238 114.834 17.4996C115.313 17.7612 115.683 18.1516 115.945 18.6708C116.21 19.1859 116.343 19.8299 116.343 20.6026V26.5007H114.538V20.8199C114.538 20.1398 114.363 19.6126 114.013 19.2383C113.663 18.86 113.176 18.6708 112.552 18.6708C112.125 18.6708 111.743 18.7614 111.405 18.9425C111.071 19.1236 110.807 19.3892 110.614 19.7393C110.425 20.0855 110.33 20.504 110.33 20.995Z" fill="#E8E8E8"/>
</g>
<path d="M122.937 26.0007V13.6371H131.377V16.0639H125.925V18.5994H130.839V21.0323H125.925V26.0007H122.937ZM135.833 13.6371V26.0007H132.881V13.6371H135.833ZM140.326 26.1577C139.735 26.1577 139.21 26.0591 138.751 25.8618C138.296 25.6606 137.936 25.3588 137.67 24.9563C137.409 24.5498 137.278 24.0407 137.278 23.429C137.278 22.9138 137.368 22.4792 137.549 22.125C137.731 21.7708 137.98 21.4831 138.298 21.2617C138.616 21.0404 138.982 20.8733 139.397 20.7606C139.811 20.6439 140.254 20.5654 140.725 20.5252C141.252 20.4769 141.677 20.4266 141.999 20.3743C142.321 20.3179 142.554 20.2395 142.699 20.1388C142.848 20.0342 142.922 19.8873 142.922 19.6981V19.668C142.922 19.3581 142.816 19.1186 142.602 18.9496C142.389 18.7805 142.101 18.696 141.739 18.696C141.349 18.696 141.035 18.7805 140.797 18.9496C140.56 19.1186 140.409 19.352 140.345 19.6498L137.622 19.5533C137.702 18.9898 137.91 18.4867 138.244 18.044C138.582 17.5973 139.045 17.2471 139.632 16.9936C140.224 16.736 140.934 16.6072 141.763 16.6072C142.355 16.6072 142.9 16.6777 143.399 16.8185C143.898 16.9554 144.333 17.1566 144.703 17.4222C145.074 17.6838 145.359 18.0058 145.56 18.3881C145.766 18.7705 145.868 19.2071 145.868 19.6981V26.0007H143.091V24.7088H143.019C142.854 25.0227 142.643 25.2883 142.385 25.5057C142.132 25.723 141.832 25.886 141.486 25.9947C141.143 26.1033 140.757 26.1577 140.326 26.1577ZM141.238 24.2258C141.556 24.2258 141.842 24.1614 142.095 24.0327C142.353 23.9039 142.558 23.7268 142.711 23.5014C142.864 23.272 142.94 23.0064 142.94 22.7045V21.8231C142.856 21.8674 142.753 21.9077 142.633 21.9439C142.516 21.9801 142.387 22.0143 142.246 22.0465C142.105 22.0787 141.96 22.1069 141.812 22.131C141.663 22.1552 141.52 22.1773 141.383 22.1974C141.105 22.2417 140.868 22.3101 140.671 22.4027C140.477 22.4953 140.328 22.616 140.224 22.7649C140.123 22.9098 140.073 23.0828 140.073 23.2841C140.073 23.59 140.182 23.8234 140.399 23.9844C140.62 24.1453 140.9 24.2258 141.238 24.2258ZM155.769 19.5593L153.058 19.6317C153.03 19.4386 152.954 19.2675 152.829 19.1186C152.704 18.9657 152.541 18.8469 152.34 18.7624C152.143 18.6739 151.913 18.6296 151.652 18.6296C151.31 18.6296 151.018 18.698 150.776 18.8349C150.539 18.9717 150.422 19.1568 150.426 19.3903C150.422 19.5714 150.495 19.7283 150.644 19.8611C150.797 19.994 151.068 20.1006 151.459 20.1811L153.246 20.5192C154.171 20.6962 154.859 20.99 155.31 21.4006C155.765 21.8111 155.994 22.3544 155.998 23.0305C155.994 23.6664 155.805 24.2198 155.431 24.6907C155.061 25.1616 154.554 25.5278 153.91 25.7894C153.266 26.047 152.529 26.1758 151.7 26.1758C150.376 26.1758 149.332 25.9041 148.567 25.3608C147.806 24.8134 147.372 24.081 147.263 23.1633L150.179 23.0909C150.243 23.429 150.41 23.6865 150.68 23.8636C150.949 24.0407 151.294 24.1292 151.712 24.1292C152.09 24.1292 152.398 24.0588 152.636 23.918C152.873 23.7771 152.994 23.5899 152.998 23.3565C152.994 23.1472 152.901 22.9802 152.72 22.8555C152.539 22.7267 152.255 22.6261 151.869 22.5536L150.251 22.2457C149.322 22.0767 148.629 21.7648 148.174 21.31C147.72 20.8512 147.494 20.2676 147.498 19.5593C147.494 18.9395 147.659 18.4103 147.993 17.9716C148.327 17.5289 148.802 17.1908 149.418 16.9574C150.034 16.7239 150.76 16.6072 151.597 16.6072C152.853 16.6072 153.843 16.8708 154.568 17.3981C155.292 17.9213 155.692 18.6417 155.769 19.5593ZM160.114 23.5678L160.126 20.0483H160.537L163.145 16.728H166.489L162.613 21.4851H161.835L160.114 23.5678ZM157.452 26.0007V13.6371H160.404V26.0007H157.452ZM163.211 26.0007L160.784 22.1491L162.728 20.0543L166.622 26.0007H163.211Z" fill="white"/>
</g>
<defs>
<filter id="filter0_d_1_56" x="2.39972" y="0.39972" width="39.202" height="39.202" filterUnits="userSpaceOnUse" color-interpolation-filters="sRGB">
<feFlood flood-opacity="0" result="BackgroundImageFix"/>
<feColorMatrix in="SourceAlpha" type="matrix" values="0 0 0 0 0 0 0 0 0 0 0 0 0 0 0 0 0 0 127 0" result="hardAlpha"/>
<feOffset/>
<feGaussianBlur stdDeviation="2.80014"/>
<feComposite in2="hardAlpha" operator="out"/>
<feColorMatrix type="matrix" values="0 0 0 0 0 0 0 0 0 0 0 0 0 0 0 0 0 0 0.25 0"/>
<feBlend mode="normal" in2="BackgroundImageFix" result="effect1_dropShadow_1_56"/>
<feBlend mode="normal" in="SourceGraphic" in2="effect1_dropShadow_1_56" result="shape"/>
</filter>
<filter id="filter1_d_1_56" x="36.2871" y="3.78642" width="136.429" height="32.4286" filterUnits="userSpaceOnUse" color-interpolation-filters="sRGB">
<feFlood flood-opacity="0" result="BackgroundImageFix"/>
<feColorMatrix in="SourceAlpha" type="matrix" values="0 0 0 0 0 0 0 0 0 0 0 0 0 0 0 0 0 0 127 0" result="hardAlpha"/>
<feOffset/>
<feGaussianBlur stdDeviation="2.85714"/>
<feComposite in2="hardAlpha" operator="out"/>
<feColorMatrix type="matrix" values="0 0 0 0 0 0 0 0 0 0 0 0 0 0 0 0 0 0 0.25 0"/>
<feBlend mode="normal" in2="BackgroundImageFix" result="effect1_dropShadow_1_56"/>
<feBlend mode="normal" in="SourceGraphic" in2="effect1_dropShadow_1_56" result="shape"/>
</filter>
<filter id="filter2_d_1_56" x="39.3597" y="13.642" width="80.9835" height="20.9915" filterUnits="userSpaceOnUse" color-interpolation-filters="sRGB">
<feFlood flood-opacity="0" result="BackgroundImageFix"/>
<feColorMatrix in="SourceAlpha" type="matrix" values="0 0 0 0 0 0 0 0 0 0 0 0 0 0 0 0 0 0 127 0" result="hardAlpha"/>
<feOffset dy="4"/>
<feGaussianBlur stdDeviation="2"/>
<feComposite in2="hardAlpha" operator="out"/>
<feColorMatrix type="matrix" values="0 0 0 0 0 0 0 0 0 0 0 0 0 0 0 0 0 0 0.25 0"/>
<feBlend mode="normal" in2="BackgroundImageFix" result="effect1_dropShadow_1_56"/>
<feBlend mode="normal" in="SourceGraphic" in2="effect1_dropShadow_1_56" result="shape"/>
</filter>
<linearGradient id="paint0_linear_1_56" x1="87.5007" y1="0" x2="87.5007" y2="40.0014" gradientUnits="userSpaceOnUse">
<stop stop-color="#292929"/>
<stop offset="1"/>
</linearGradient>
</defs>
</svg>
