<svg width="40" height="40" viewBox="0 0 40 40" fill="none" xmlns="http://www.w3.org/2000/svg">
<rect width="40" height="40" rx="8" fill="url(#paint0_linear_1_68)"/>
<rect x="1.05" y="1.05" width="37.9" height="37.9" rx="6.95" stroke="white" stroke-opacity="0.15" stroke-width="2.1"/>
<g filter="url(#filter0_d_1_68)">
<path d="M14.3659 29.9583C13.2993 29.1162 12.1602 28.3159 11.3859 27.1829C9.74975 25.1902 8.48723 22.883 7.62629 20.4534C7.10658 18.8792 6.92897 17.1861 6.25878 15.6669C5.55708 14.5705 6.37689 13.365 7.58517 13.0146C8.12325 12.9098 9.0708 12.4049 7.92727 12.7692C6.90185 13.5152 6.80648 12.0869 7.85465 11.996C8.57034 11.9008 8.83457 11.3137 8.58872 10.7904C7.82315 10.2899 10.4567 9.73948 9.13117 8.98817C7.75053 7.50041 11.063 7.21387 10.2476 8.90169C10.0516 10.2034 12.5627 8.66494 11.9791 10.1667C12.5714 10.8857 14.1935 10.3309 14.1524 11.3408C15.0186 11.4002 15.3143 12.1236 16.121 12.1777C16.9644 12.5604 18.4816 12.8557 18.7685 13.7974C17.9347 14.457 16.0073 12.4416 15.9163 14.2613C16.1665 16.9503 16.1035 19.7214 17.0878 22.2828C17.5568 23.8343 18.6872 25.0583 19.7082 26.2638C20.6838 27.4511 22.0049 28.2793 23.3541 28.9851C24.5387 29.5399 25.8152 29.9085 27.104 30.1409C27.6237 29.7408 28.5485 28.2574 29.364 28.8847C29.4007 29.5853 27.7462 30.3541 29.2861 30.2772C30.1881 30.0038 30.8172 30.9735 31.5644 30.0999C32.2477 30.9097 34.4167 29.5809 33.9293 31.2417C33.2688 31.6645 32.3028 31.4103 31.6414 31.9921C30.5521 31.4505 29.6816 32.4787 28.4741 32.3512C27.1346 32.5879 25.7671 32.6875 24.4092 32.6875C22.1808 32.5102 19.9024 32.4376 17.779 31.6636C16.5847 31.3133 15.4184 30.6363 14.3659 29.9583ZM16.2479 30.7725C17.4141 31.2731 18.5586 31.8052 19.8386 31.9694C21.8667 32.2472 23.963 32.684 25.9998 32.2883C25.0794 31.8698 24.1222 32.4525 23.2062 31.9877C22.1038 32.2245 20.9235 31.9283 19.8018 31.7833C18.5306 31.219 17.1543 30.8276 15.96 30.0903C14.4744 29.5486 16.73 30.7865 17.1359 30.8914C18.066 31.419 16.1105 30.6179 15.8375 30.3995C15.058 29.9627 14.9582 30.0536 15.7597 30.4947C15.9189 30.59 16.0799 30.6904 16.2479 30.7725ZM14.0282 29.2027C15.1586 29.6211 14.0238 28.4112 13.5041 28.4793C13.2766 28.0836 12.6291 27.8285 13.085 27.6197C12.2599 27.9019 12.2241 26.5364 11.8365 26.7277C10.9659 26.4543 11.4996 25.4854 10.4646 24.8896C10.3692 24.2615 9.43478 23.7155 9.1338 22.765C9.00168 22.2828 8.08126 20.8859 8.64646 22.1823C9.12942 23.4333 9.98161 24.5026 10.6877 25.5719C11.2389 26.5862 11.8863 27.6511 12.889 28.2836C13.2259 28.6069 13.5496 29.1031 14.0282 29.2027ZM10.7699 25.6313C10.9747 26 10.8067 25.4627 10.7699 25.6313ZM15.3817 29.7032C15.6319 29.594 15.0221 29.567 15.3817 29.7032ZM15.9968 29.9304C15.9329 29.6211 15.7142 30.099 15.9968 29.9304ZM16.7667 30.2493C17.1315 29.8989 16.2015 30.0308 16.7667 30.2493ZM18.0843 30.9822C18.3075 30.6546 17.3686 30.859 18.0843 30.9822ZM15.5549 29.221C16.1201 28.8523 14.8165 29.2166 15.5549 29.221ZM16.1289 29.5076C16.1149 29.3119 15.9241 29.594 16.1289 29.5076ZM19.0091 31.3046C19.4737 31.5955 21.7162 31.9414 20.3128 31.4225C20.0801 31.4723 17.7107 30.7533 19.0091 31.3046ZM14.4385 27.7464C14.393 27.5507 13.7184 27.528 14.4385 27.7464ZM15.778 28.5247C16.1289 28.2836 15.0536 28.3378 15.778 28.5247ZM16.9084 29.2166C17.4098 29.0297 16.093 29.0253 16.9084 29.2166ZM13.8917 27.1506C14.4341 27.569 16.0834 27.2056 14.7255 26.9051C14.106 26.5731 12.7114 26.3503 13.6589 27.1008L13.8917 27.1506ZM17.6696 29.4578C17.8971 29.0707 16.7221 29.235 17.6696 29.4578ZM16.5208 28.5431C17.8516 28.9205 15.4044 27.7062 16.1927 28.4068L16.3704 28.4846L16.5208 28.5431ZM18.8263 29.8719C20.0836 29.8858 17.6871 29.6989 18.8263 29.8719ZM13.4087 26.4228C13.3588 26.1905 13.099 26.4455 13.4087 26.4228ZM20.955 31.0635C20.9865 30.6406 20.5446 31.3823 20.955 31.0635ZM15.5549 27.7376C15.477 27.5148 15.1629 27.7289 15.5549 27.7376ZM13.5268 26.2769C14.2469 26.2359 12.5382 25.9581 13.5268 26.2769ZM11.1208 24.7254C11.0341 24.3795 10.3368 24.1069 11.1208 24.7254ZM17.4325 28.7292C17.3686 28.7606 17.3004 28.5745 17.4325 28.7292ZM21.3557 31.1316C21.347 30.9045 21.1457 31.2181 21.3557 31.1316ZM17.086 28.3701C17.1543 28.0696 16.4666 28.2793 17.086 28.3701ZM14.1603 26.5137C14.6931 26.4587 13.2993 26.1546 14.1603 26.5137ZM19.1089 29.5853C19.9427 29.2533 18.2882 29.4211 19.1089 29.5853ZM16.5348 27.8425C17.5008 27.9656 15.3861 27.1872 16.3205 27.7743L16.5348 27.8425ZM19.8885 29.9033C20.7905 29.3617 20.4948 31.1639 21.4196 30.0536C22.3313 29.3896 20.6313 30.8774 21.7564 30.1715C22.5675 29.6299 23.7705 30.431 24.5273 30.6904C25.0742 30.6633 25.607 31.1639 26.1635 30.859C27.2431 30.5681 24.0584 30.431 24.8922 29.9173C23.9079 30.2038 23.1791 29.5757 22.6961 28.9432C21.5884 28.6881 20.3128 28.1238 19.7616 27.1462C19.5341 26.7819 20.0853 27.2012 19.5656 26.6002C18.9007 26.0087 18.5673 25.3352 18.1211 24.6162C17.5883 24.334 17.5244 23.4971 17.4693 24.5891C17.4736 23.8972 16.8218 23.4333 16.667 23.629C16.6626 22.9651 17.3599 23.2971 16.8717 22.8052C16.7667 22.1133 16.4202 21.3943 16.3161 20.6168C16.1569 20.2438 16.2934 19.4427 15.7649 20.2892C15.5733 21.1855 15.701 19.1885 16.002 19.848C16.394 19.1745 15.8611 19.2522 15.8375 19.3475C16.093 18.7787 16.002 17.9733 15.7693 18.2782C15.9058 17.6771 15.988 16.0627 15.5645 16.3492C15.82 15.7211 16.0475 13.4689 14.9451 14.3286C14.4936 14.3329 13.7193 14.4928 13.3545 14.6745C14.5033 15.307 13.2364 14.9016 12.7709 14.8021C12.7114 15.3848 12.2468 15.134 11.6685 15.1384C12.5933 15.252 11.217 16.0801 10.6842 15.7622C9.99648 16.0898 11.2809 16.9092 10.6982 17.1634C10.7708 17.5461 9.64563 17.0271 9.73225 17.9095C9.06206 17.6273 9.64126 18.9604 9.97373 18.5105C11.1129 18.8154 10.776 19.5161 10.8032 20.1852C10.6212 20.5723 9.89149 19.2706 10.6439 19.33C10.0516 18.3699 9.98773 18.984 9.49077 19.4304C9.37703 19.4619 10.7533 20.0673 9.89149 20.3678C10.6483 20.4814 10.6711 21.1462 10.8215 21.5647C11.2774 22.0425 11.1864 21.0414 11.7332 21.6145C11.3867 21.1052 9.90549 20.1809 11.0954 20.477C11.091 19.9677 10.881 19.5536 11.2459 19.5667C11.6107 18.9115 10.8679 21.182 11.6833 20.3495C11.9108 20.249 11.966 19.6943 12.3763 20.3993C12.9642 20.982 12.5863 21.4004 11.7568 20.8675C11.903 21.3725 12.8689 21.5542 12.6869 22.3422C12.8785 23.0385 13.1471 22.779 13.3842 22.7423C13.5662 23.4159 13.6712 22.9197 13.6808 22.5964C14.5242 22.7781 14.323 23.2743 14.5872 23.6247C15.1656 23.8841 13.7578 21.8504 14.7561 23.0105C15.7999 23.9566 15.1481 24.348 14.2049 24.1977C14.8016 24.1523 14.9932 25.0032 15.736 24.9709C16.415 25.2941 16.8752 26.5312 15.7045 26.0175C15.2986 25.6532 13.8637 25.198 15.0396 25.8943C16.1245 26.3949 16.9811 26.6954 18.0292 27.3227C18.772 27.8547 19.1001 28.4697 19.3827 28.5876C18.7537 28.8882 17.4868 28.3465 18.4256 28.1823C17.842 28.0775 17.1814 27.7822 17.7422 28.5099C18.2208 28.91 19.4326 28.8646 19.6513 28.91C19.4641 29.3154 19.15 29.3468 19.6601 29.3783C19.0905 29.6832 19.8421 29.7286 19.8928 29.9016L19.8885 29.9033ZM18.7309 26.6316C18.3844 26.2673 18.2935 25.5938 18.667 26.1808C18.8587 26.2586 19.2821 27.2868 18.7309 26.6316ZM22.5089 29.0253C22.7232 29.0166 22.5132 29.1896 22.5089 29.0253ZM18.1841 25.7449C18.3075 26.1677 18.1701 25.2033 18.1841 25.7449ZM17.8061 25.2443C18.3573 25.4811 17.373 24.4074 17.8061 25.2443ZM13.2582 22.1046C13.5137 22.0364 13.3816 22.5414 13.2582 22.1046ZM16.8813 24.0658C17.0633 24.562 17.0362 23.4788 16.8813 24.0658ZM14.3195 22.2915C14.6975 22.5964 14.1419 21.9683 14.3195 22.2915ZM16.5165 22.9922C16.1061 22.0731 16.8078 22.4916 16.6075 23.1468L16.5165 22.9922ZM12.7298 20.4709C12.5478 20.1704 12.2424 19.2837 12.3422 19.0146C12.4288 19.4514 13.2766 20.9077 12.7569 19.6157C12.1829 18.5324 13.4446 19.966 13.5776 20.2394C13.6371 20.5076 13.2224 20.1669 13.4997 20.7942C12.9896 20.0752 13.1987 21.1899 12.7298 20.4709ZM11.5582 19.6655C11.8268 20.1477 11.6081 18.9648 11.5582 19.6655ZM12.0867 19.848C12.5102 20.5854 12.3369 19.316 12.0867 19.848ZM10.8198 18.8696C10.3823 18.4372 10.0682 18.037 10.8382 18.6014C11.1391 18.6101 10.182 17.6963 10.9108 18.3105C11.6807 18.4511 11.2888 19.5711 10.8198 18.8705V18.8696ZM11.4856 18.8512C11.7411 18.6014 11.6177 19.0967 11.4856 18.8512ZM11.896 18.9832C12.3605 19.2837 11.5127 18.2642 11.896 18.9832ZM11.0796 18.2056C9.81275 17.0822 12.6746 18.7971 11.2844 18.4153L11.0796 18.2056ZM14.7115 20.3119C14.1603 19.9843 14.5654 18.0003 14.7526 19.3562C15.2854 19.1832 14.7211 20.0568 15.1175 20.0481C15.058 20.5985 14.8803 20.7985 14.7115 20.3119ZM16.0519 21.1034C16.1656 21.5131 16.107 20.5076 16.0519 21.1034ZM15.8191 20.8719C15.8786 20.6168 15.8235 21.1724 15.8191 20.8719ZM11.3308 17.837C10.5153 16.7135 13.6957 18.9701 11.8505 18.1192C11.6589 18.0694 11.427 18.051 11.3308 17.837ZM13.9144 19.2059C14.0877 19.3606 13.8366 18.2598 13.9144 19.2059ZM15.8786 20.4622C16.0291 19.9249 15.8874 20.8169 15.8786 20.4622ZM11.4532 17.4089C11.9362 17.3041 13.4586 18.2554 12.0596 17.6824C11.9047 17.5094 11.5766 17.5871 11.4532 17.4089ZM15.6048 19.475C15.6599 18.5105 15.8961 18.8975 15.6092 19.6113L15.6048 19.475ZM11.8137 17.0726C12.0097 16.786 11.2896 15.7665 11.9187 16.7083C12.1873 16.9223 12.7026 17.0673 12.2468 17.1591C12.9625 17.7872 12.0736 17.3277 11.8137 17.0726ZM15.4001 19.1745C15.5365 18.0737 15.5234 19.8157 15.4001 19.1745ZM11.4034 16.0574C11.5539 15.9937 11.4812 16.2575 11.4034 16.0574ZM12.3378 16.6131C12.7796 17.1774 12.5793 16.1081 12.3378 16.6131ZM14.9757 18.0825C15.0256 18.3603 14.9757 17.8868 14.9757 18.0825ZM14.8261 17.7409C15.1682 18.2188 14.4613 16.8402 14.8261 17.7409ZM14.5977 17.1494C14.8121 17.6177 14.5382 16.7764 14.5977 17.1494ZM14.967 16.5536C14.7167 16.1125 15.2863 14.6064 15.3449 15.5394C15.0807 16.2671 15.2723 16.6768 15.4543 15.6984C15.7964 14.9296 15.3817 17.2185 14.967 16.5536ZM15.3406 14.3146C15.4499 14.1783 15.3677 14.4736 15.3406 14.3146ZM14.7167 26.6771C14.7351 26.7592 14.5662 26.5451 14.7167 26.6771ZM16.0108 27.3279C16.7265 27.5148 16.7265 27.2187 16.0746 27.1322C15.7238 26.8046 14.6214 26.4587 15.61 27.0911C15.6739 27.2554 15.8839 27.2501 16.0064 27.3279H16.0108ZM13.4542 25.6357C13.8506 25.9319 14.9442 26.4726 14.015 25.7449C14.3291 25.3859 13.4183 25.1902 13.7184 24.9491C12.9529 24.4756 13.1121 24.521 13.6546 24.535C12.7245 24.1209 13.7867 24.1523 13.7368 23.9392C13.3772 23.871 11.9642 23.311 12.798 23.9846C11.9502 23.5565 12.5933 24.1488 12.3378 24.085C11.4716 23.8483 13.1077 24.7446 12.2013 24.5219C12.6983 24.9132 13.5408 25.5274 12.4113 24.9359C12.2608 25.15 13.218 25.4732 13.4551 25.6366L13.4542 25.6357ZM14.8077 26.4132C16.4526 26.9409 14.001 25.7624 14.8077 26.4132ZM21.7337 30.6039C21.7564 30.2763 21.5106 30.8817 21.7337 30.6039ZM22.4494 30.9045C22.8273 30.5358 22.4634 31.4872 23.0784 30.8136C23.0828 30.3314 23.0601 30.0448 22.3724 30.6319C22.1808 30.7367 22.0985 31.1823 22.4502 30.9053L22.4494 30.9045ZM11.1391 23.8107C11.0254 23.3556 10.3237 23.3556 11.1391 23.8107ZM11.9003 24.3113C11.6177 23.8431 10.8933 23.8885 11.9003 24.3113ZM16.2295 26.919C16.653 27.2921 18.171 27.1925 16.7448 26.9645C16.5305 26.6508 15.4009 26.7277 16.2295 26.919ZM22.1764 30.5856C22.8282 30.0396 21.5473 30.8267 22.1764 30.5856ZM23.529 31.5099C23.5334 31.3369 23.2508 31.5876 23.529 31.5099ZM23.529 31.2688C24.2491 30.5043 22.8317 31.3142 23.529 31.2688ZM9.27116 22.2505C8.65609 21.3769 8.88794 20.9811 8.29562 20.2709C8.18625 19.7205 7.2842 18.4826 7.83103 19.7974C8.33236 20.5618 8.48285 21.7499 9.27116 22.2505ZM23.3059 31.0224C24.6323 30.1715 22.7635 30.6537 23.3059 31.0224ZM24.3182 31.419C24.9832 30.8547 23.8991 31.3011 24.3182 31.419ZM10.916 22.8463C11.1076 22.5641 10.4287 22.8096 10.916 22.8463ZM24.1039 31.1499C24.7461 30.7359 23.9578 30.7996 23.9901 31.1866L24.1039 31.1499ZM15.3904 25.6628C15.3677 25.385 15.0483 25.6855 15.3904 25.6628ZM15.9285 25.972C15.7553 25.6261 15.6643 26.0271 15.9285 25.972ZM25.138 31.4321C25.9587 30.8363 24.6367 31.3142 24.9648 31.5413L25.138 31.4321ZM24.8239 31.2775C25.4941 30.7175 24.1126 31.5273 24.8239 31.2775ZM26.4321 32.3468C26.8835 32.0463 25.8852 32.2516 26.4321 32.3468ZM11.3308 22.6418C11.9327 22.7781 13.7412 24.1252 12.6746 22.7371C12.1278 22.5728 12.4559 21.2397 11.8951 21.4764C12.2687 22.1002 12.2048 22.3684 11.4209 21.9727C10.4322 21.4948 10.8653 22.2138 11.056 22.4095C10.7962 22.4689 11.4077 22.6366 11.3308 22.6418ZM8.58259 20.4762C8.68758 20.0306 7.5843 18.0239 8.05851 19.4706C8.23175 19.7712 8.21337 20.3486 8.58259 20.4762ZM13.6231 23.5836C13.6091 23.5425 13.3133 23.3241 13.6231 23.5836ZM14.3886 23.7609C14.3886 23.2874 13.5452 23.5696 14.3886 23.7609ZM21.0189 27.9333C20.8911 27.6101 20.5175 27.9246 21.0189 27.9333ZM21.3373 28.1657C21.2918 27.984 21.1554 28.1971 21.3373 28.1657ZM23.9665 29.8168C24.2167 29.6299 23.6524 29.7941 23.9665 29.8168ZM9.95448 20.8265C10.6789 20.5443 9.18017 20.6264 9.95448 20.8265ZM20.4353 27.4188C20.4265 26.9505 19.9751 27.5367 20.4353 27.4188ZM9.66751 20.1617C10.1321 20.0027 9.23879 20.0568 9.66751 20.1617ZM11.0158 20.8125C11.007 20.6579 10.8749 20.8719 11.0158 20.8125ZM27.4531 30.8774C28.0498 30.7594 29.4129 31.1823 29.6317 30.7184C28.9072 30.7044 27.1206 30.2091 27.0384 30.8363L27.1976 30.8634L27.4531 30.8774ZM11.4445 20.9217C11.4532 20.4482 11.0753 20.9034 11.4445 20.9217ZM7.89927 18.4642C7.74003 17.5635 7.28857 18.328 7.89927 18.4642ZM8.74708 18.6783C8.75583 18.3874 7.97277 18.4144 8.74708 18.6783ZM9.23004 18.915C9.12068 19.0557 9.08918 18.8014 9.23004 18.915ZM12.2643 20.8579C12.4104 20.7304 11.9275 20.7627 12.2643 20.8579ZM8.90632 18.383C8.82407 17.7007 7.92639 18.2782 8.90632 18.383ZM7.17483 17.2587C7.15208 16.945 7.00597 17.3766 7.17483 17.2587ZM7.42943 17.063C7.38831 16.6899 7.2107 17.1084 7.42943 17.063ZM8.85645 17.9139C9.4584 17.6771 7.75841 17.422 8.73308 17.8684L8.85645 17.9139ZM27.9089 29.6622C28.2965 29.3119 27.4216 29.553 27.9089 29.6622ZM30.2144 30.8547C30.3649 30.3995 29.8224 30.9141 30.2144 30.8547ZM9.00168 17.1678C9.06555 16.7266 8.5231 17.2543 9.00168 17.1678ZM6.97447 15.812C6.8651 15.1882 6.88348 14.0962 7.92202 14.4648C6.53175 14.7427 8.88357 16.1894 8.58697 15.0475C9.17055 15.0746 9.7305 14.7016 9.42078 15.2703C10.5739 15.1428 11.371 14.1468 12.483 14.2831C13.3492 14.1696 14.2968 14.0831 15.2312 13.7371C15.9968 13.6777 16.7352 12.8548 16.3161 12.3673C15.2679 12.2764 14.1743 12.4084 13.0167 12.6355C11.7358 12.9037 10.5739 13.4086 9.27991 13.627C8.01739 13.7957 9.53014 14.0909 9.17055 14.1591C8.51435 14.3862 9.95448 14.5417 9.08393 14.7776C8.5511 14.6771 7.99026 14.4911 8.21775 13.9267C7.01034 14.0813 5.94818 14.5863 6.90535 15.8102L6.97447 15.812ZM9.88624 14.3329C10.1688 13.2907 11.4034 15.1882 10.3508 14.4692C10.2231 14.3784 10.0184 14.3006 9.88624 14.3329ZM9.94049 13.828C10.3465 13.5275 10.1548 13.9966 9.94049 13.828ZM10.4602 13.8376C10.4969 13.3597 11.6449 14.0927 10.6474 14.0106L10.4602 13.8376ZM11.1663 13.5502C11.4261 13.2496 11.2441 13.8236 11.1663 13.5502ZM11.3491 13.4322C11.7822 12.9133 13.7963 13.1003 12.3194 13.3824C11.9275 13.0863 11.6221 13.5554 11.3491 13.4322ZM13.9783 13.0269C15.2819 13.5318 13.91 11.6116 13.9783 13.0269ZM14.7211 13.0225C14.995 12.3079 15.778 12.736 14.8488 12.8766C14.8672 12.9544 14.8217 13.2453 14.7211 13.0225ZM8.70596 16.8035C9.52139 16.3029 7.84503 16.3711 8.70596 16.8035ZM9.30704 16.9721C9.59401 16.6672 8.68758 16.8446 9.30704 16.9721ZM7.53443 15.7115C7.99901 15.3568 6.98759 15.5752 7.53443 15.7115ZM31.5723 30.7271C31.5863 30.313 31.2171 30.9141 31.5723 30.7271ZM29.1303 29.062C29.1986 28.5841 28.8162 29.1031 29.1303 29.062ZM32.2425 30.8861C32.8943 30.8861 34.2111 30.6861 32.7981 30.6861C32.5749 30.7227 31.504 30.7131 32.2425 30.8861ZM9.83549 16.6768C10.364 16.6401 10.6606 16.0994 9.73488 16.1308C8.29912 15.9806 10.9974 16.6174 9.55289 16.4357C9.35691 16.5633 9.82675 16.7135 9.83549 16.6768ZM10.301 16.9127C10.2458 16.5711 10.1365 17.09 10.301 16.9127ZM10.8478 15.4477C11.0805 15.1655 10.5337 15.3699 10.8478 15.4477ZM9.09793 12.5272C10.0411 12.2083 11.3264 11.8493 11.7682 12.6818C11.3168 12.1402 11.5862 11.6081 12.0141 12.3996C12.616 13.2051 12.9161 12.0353 12.5242 11.7671C12.9704 12.3219 13.477 12.5813 12.8251 11.7986C13.5365 10.9477 11.399 11.9122 10.9108 11.9034C10.6781 12.0082 8.49597 12.4582 9.10143 12.5272H9.09793ZM9.64913 11.4753C10.1872 11.07 11.504 11.7121 10.6562 11.07C10.5783 11.0018 8.8057 11.5566 9.64913 11.4753ZM11.6037 11.5531C12.2328 11.5714 11.3351 10.7162 12.0823 11.1023C11.959 10.7022 11.2118 10.6244 10.8425 10.4655C10.6378 10.8341 11.266 11.5575 11.6037 11.5531ZM9.99561 9.78316C10.21 9.49225 9.61239 9.93342 9.99561 9.78316ZM10.7927 9.97448C11.7997 9.84257 10.5328 9.54204 10.5879 9.96574L10.7927 9.97448ZM9.30266 8.80908C8.59134 7.88043 10.6378 8.96808 9.91774 7.99488C9.30704 7.51264 8.72346 8.54088 9.30266 8.80908ZM18.4299 13.7188C18.758 13.1413 17.0808 12.9404 18.2112 13.5144C18.3162 13.551 18.2891 13.7598 18.4299 13.7188Z" fill="white"/>
</g>
<defs>
<filter id="filter0_d_1_68" x="2" y="2" width="36" height="36" filterUnits="userSpaceOnUse" color-interpolation-filters="sRGB">
<feFlood flood-opacity="0" result="BackgroundImageFix"/>
<feColorMatrix in="SourceAlpha" type="matrix" values="0 0 0 0 0 0 0 0 0 0 0 0 0 0 0 0 0 0 127 0" result="hardAlpha"/>
<feOffset/>
<feGaussianBlur stdDeviation="2"/>
<feComposite in2="hardAlpha" operator="out"/>
<feColorMatrix type="matrix" values="0 0 0 0 0 0 0 0 0 0 0 0 0 0 0 0 0 0 0.25 0"/>
<feBlend mode="normal" in2="BackgroundImageFix" result="effect1_dropShadow_1_68"/>
<feBlend mode="normal" in="SourceGraphic" in2="effect1_dropShadow_1_68" result="shape"/>
</filter>
<linearGradient id="paint0_linear_1_68" x1="20" y1="0" x2="20" y2="40" gradientUnits="userSpaceOnUse">
<stop stop-color="#292929"/>
<stop offset="1"/>
</linearGradient>
</defs>
</svg>
