<svg width="144" height="56" viewBox="0 0 144 56" fill="none" xmlns="http://www.w3.org/2000/svg">
<rect width="144" height="56" rx="8" fill="url(#paint0_linear_1_50)"/>
<rect x="1.05" y="1.05" width="141.9" height="53.9" rx="6.95" stroke="white" stroke-opacity="0.15" stroke-width="2.1"/>
<g filter="url(#filter0_d_1_50)">
<path d="M23.9513 42.2262C22.4276 41.0231 20.8003 39.8799 19.6941 38.2613C17.3568 35.4145 15.5532 32.1185 14.3233 28.6478C13.5808 26.3989 13.3271 23.9802 12.3697 21.8099C11.3673 20.2436 12.5384 18.5214 14.2645 18.0209C15.0332 17.8712 16.3869 17.1498 14.7532 17.6702C13.2884 18.736 13.1521 16.6955 14.6495 16.5657C15.6719 16.4297 16.0494 15.591 15.6982 14.8435C14.6045 14.1284 18.3667 13.3421 16.4731 12.2688C14.5008 10.1434 19.2329 9.7341 18.068 12.1453C17.788 14.0048 21.3752 11.8071 20.5415 13.9524C21.3877 14.9795 23.705 14.187 23.6463 15.6297C24.8837 15.7146 25.3062 16.7479 26.4586 16.8253C27.6635 17.372 29.8308 17.7938 30.2408 19.1391C29.0496 20.0814 26.2961 17.2022 26.1661 19.8018C26.5236 23.6432 26.4336 27.6019 27.8397 31.2611C28.5097 33.4776 30.1245 35.2261 31.5832 36.9483C32.9768 38.6444 34.8642 39.8275 36.7915 40.8359C38.4839 41.6284 40.3075 42.1551 42.1486 42.487C42.891 41.9154 44.2122 39.7963 45.3771 40.6924C45.4296 41.6933 43.066 42.7915 45.2658 42.6817C46.5545 42.2911 47.4532 43.6764 48.5206 42.4284C49.4968 43.5853 52.5953 41.6871 51.8991 44.0595C50.9554 44.6636 49.5755 44.3004 48.6306 45.1316C47.0744 44.3578 45.8308 45.8267 44.1059 45.6445C42.1923 45.9827 40.2387 46.125 38.2989 46.125C35.1154 45.8717 31.8606 45.7681 28.8271 44.6623C27.121 44.1619 25.4549 43.1947 23.9513 42.2262ZM26.6398 43.3894C28.3059 44.1045 29.9408 44.8645 31.7694 45.0991C34.6667 45.496 37.6614 46.12 40.5712 45.5547C39.2563 44.9569 37.8889 45.7893 36.5803 45.1253C35.0054 45.4636 33.3193 45.0405 31.7169 44.8333C29.9008 44.0271 27.9347 43.468 26.2286 42.4146C24.1063 41.6409 27.3285 43.4093 27.9085 43.5591C29.2371 44.3129 26.4436 43.1685 26.0536 42.8564C24.9399 42.2324 24.7975 42.3622 25.9424 42.9925C26.1698 43.1285 26.3998 43.272 26.6398 43.3894ZM23.4688 41.1467C25.0837 41.7445 23.4626 40.016 22.7201 40.1133C22.3951 39.548 21.4702 39.1835 22.1214 38.8853C20.9428 39.2884 20.8915 37.3377 20.3378 37.611C19.0942 37.2204 19.8566 35.8364 18.378 34.9852C18.2417 34.0879 16.9068 33.3079 16.4769 31.95C16.2881 31.2611 14.9732 29.2656 15.7807 31.1176C16.4706 32.9048 17.688 34.4323 18.6967 35.9599C19.4841 37.4089 20.409 38.9302 21.8414 39.8338C22.3226 40.2955 22.7851 41.0044 23.4688 41.1467ZM18.8142 36.0448C19.1066 36.5714 18.8667 35.8039 18.8142 36.0448ZM25.4024 41.8618C25.7599 41.7058 24.8887 41.6671 25.4024 41.8618ZM26.2811 42.1863C26.1898 41.7445 25.8774 42.4271 26.2811 42.1863ZM27.381 42.6418C27.9022 42.1413 26.5736 42.3298 27.381 42.6418ZM29.2633 43.6889C29.5821 43.2209 28.2409 43.5129 29.2633 43.6889ZM25.6499 41.1729C26.4573 40.6462 24.595 41.1666 25.6499 41.1729ZM26.4698 41.5822C26.4498 41.3027 26.1773 41.7058 26.4698 41.5822ZM30.5845 44.1494C31.2482 44.565 34.4517 45.0592 32.4468 44.3179C32.1144 44.389 28.7296 43.3619 30.5845 44.1494ZM24.055 39.0662C23.99 38.7867 23.0263 38.7542 24.055 39.0662ZM25.9686 40.1782C26.4698 39.8337 24.9337 39.9111 25.9686 40.1782ZM27.5835 41.1666C28.2997 40.8996 26.4186 40.8933 27.5835 41.1666ZM23.2738 38.2151C24.0488 38.8129 26.4048 38.2937 24.465 37.8644C23.58 37.3901 21.5877 37.0719 22.9413 38.1439L23.2738 38.2151ZM28.6709 41.5111C28.9959 40.9582 27.3173 41.1928 28.6709 41.5111ZM27.0298 40.2044C28.9309 40.7436 25.4349 39.0088 26.5611 40.0097L26.8148 40.1208L27.0298 40.2044ZM30.3233 42.1026C32.1194 42.1226 28.6959 41.8555 30.3233 42.1026ZM22.5839 37.1755C22.5126 36.8435 22.1414 37.2079 22.5839 37.1755ZM33.3643 43.8049C33.4093 43.2009 32.7781 44.2605 33.3643 43.8049ZM25.6499 39.0537C25.5386 38.7355 25.0899 39.0413 25.6499 39.0537ZM22.7526 36.9671C23.7813 36.9084 21.3402 36.5115 22.7526 36.9671ZM19.3154 34.7506C19.1916 34.2564 18.1955 33.867 19.3154 34.7506ZM28.3322 40.4702C28.2409 40.5152 28.1434 40.2493 28.3322 40.4702ZM33.9367 43.9023C33.9242 43.5778 33.6368 44.0258 33.9367 43.9023ZM27.8372 39.9573C27.9347 39.528 26.9523 39.8275 27.8372 39.9573ZM23.6575 37.3053C24.4187 37.2266 22.4276 36.7923 23.6575 37.3053ZM30.727 41.6933C31.9181 41.219 29.5546 41.4587 30.727 41.6933ZM27.0498 39.2035C28.4297 39.3795 25.4087 38.2675 26.7435 39.1062L27.0498 39.2035ZM31.8406 42.1476C33.1293 41.3738 32.7068 43.9485 34.028 42.3622C35.3304 41.4137 32.9018 43.5391 34.5092 42.5307C35.6678 41.7569 37.3865 42.9014 38.4676 43.272C39.2488 43.2333 40.01 43.9485 40.8049 43.5129C42.3473 43.0973 37.7977 42.9014 38.9888 42.1675C37.5827 42.5769 36.5415 41.6796 35.8516 40.776C34.2692 40.4116 32.4468 39.6054 31.6594 38.2088C31.3344 37.6884 32.1219 38.2875 31.3794 37.4288C30.4295 36.5839 29.9533 35.6217 29.3158 34.5946C28.5547 34.1915 28.4634 32.9959 28.3847 34.5559C28.3909 33.5675 27.4597 32.9048 27.2385 33.1843C27.2323 32.2358 28.2284 32.7101 27.531 32.0074C27.381 31.019 26.886 29.9919 26.7373 28.8812C26.5098 28.3483 26.7048 27.2038 25.9499 28.4132C25.6761 29.6936 25.8586 26.8407 26.2886 27.7829C26.8485 26.8207 26.0873 26.9318 26.0536 27.0678C26.4186 26.2553 26.2886 25.1047 25.9561 25.5402C26.1511 24.6816 26.2686 22.3753 25.6636 22.7846C26.0286 21.8873 26.3536 18.6699 24.7787 19.8979C24.1338 19.9042 23.0276 20.1326 22.5064 20.3922C24.1475 21.2957 22.3376 20.7166 21.6727 20.5744C21.5877 21.4068 20.924 21.0486 20.0978 21.0549C21.419 21.2171 19.4529 22.4002 18.6917 21.9459C17.7093 22.4139 19.5441 23.5846 18.7117 23.9478C18.8154 24.4944 17.208 23.7531 17.3318 25.0136C16.3744 24.6105 17.2018 26.5149 17.6768 25.8722C19.3041 26.3078 18.8229 27.3087 18.8617 28.2646C18.6017 28.8175 17.5593 26.958 18.6342 27.0428C17.788 25.6713 17.6968 26.5486 16.9868 27.1864C16.8243 27.2313 18.7904 28.0962 17.5593 28.5255C18.6404 28.6877 18.6729 29.6375 18.8879 30.2353C19.5391 30.9179 19.4091 29.4877 20.1903 30.3064C19.6954 29.5788 17.5793 28.2584 19.2791 28.6815C19.2729 27.9539 18.9729 27.3623 19.4941 27.381C20.0153 26.445 18.9542 29.6886 20.1191 28.4993C20.444 28.3557 20.5228 27.5633 21.109 28.5704C21.9489 29.4028 21.409 30.0006 20.2241 29.2393C20.4328 29.9607 21.8127 30.2203 21.5527 31.346C21.8264 32.3407 22.2102 31.97 22.5489 31.9176C22.8089 32.8798 22.9588 32.1709 22.9726 31.7092C24.1775 31.9688 23.89 32.6776 24.2675 33.1781C25.0937 33.5487 23.0826 30.6434 24.5087 32.3007C25.9999 33.6523 25.0687 34.2114 23.7213 33.9968C24.5737 33.9319 24.8474 35.1475 25.9086 35.1013C26.8785 35.563 27.536 37.3302 25.8636 36.5964C25.2837 36.076 23.2338 35.4258 24.9137 36.4204C26.4636 37.1355 27.6872 37.5649 29.1846 38.4609C30.2458 39.221 30.7145 40.0996 31.1182 40.2681C30.2195 40.6974 28.4097 39.9236 29.7508 39.689C28.9171 39.5392 27.9734 39.1174 28.7746 40.157C29.4583 40.7286 31.1894 40.6637 31.5019 40.7286C31.2344 41.3077 30.7857 41.3526 31.5144 41.3975C30.7007 41.8331 31.7744 41.898 31.8469 42.1451L31.8406 42.1476ZM30.187 37.4738C29.6921 36.9533 29.5621 35.9911 30.0958 36.8298C30.3695 36.9409 30.9745 38.4098 30.187 37.4738ZM35.5841 40.8933C35.8903 40.8808 35.5903 41.1279 35.5841 40.8933ZM29.4058 36.207C29.5821 36.8111 29.3858 35.4332 29.4058 36.207ZM28.8659 35.4919C29.6533 35.8301 28.2472 34.2963 28.8659 35.4919ZM22.3689 31.0065C22.7339 30.9092 22.5451 31.6305 22.3689 31.0065ZM27.5447 33.8083C27.8047 34.5172 27.766 32.9697 27.5447 33.8083ZM23.885 31.2736C24.425 31.7092 23.6313 30.8118 23.885 31.2736ZM27.0235 32.2745C26.4373 30.9616 27.4397 31.5594 27.1535 32.4954L27.0235 32.2745ZM21.614 28.6727C21.354 28.2434 20.9178 26.9767 21.0602 26.5923C21.184 27.2163 22.3951 29.2968 21.6527 27.4509C20.8328 25.9034 22.6351 27.9514 22.8251 28.342C22.9101 28.7252 22.3176 28.2384 22.7139 29.1345C21.9852 28.1074 22.2839 29.6999 21.614 28.6727ZM19.9403 27.5221C20.3241 28.211 20.0116 26.5212 19.9403 27.5221ZM20.6953 27.7829C21.3002 28.8362 21.0527 27.0229 20.6953 27.7829ZM18.8854 26.3851C18.2605 25.7674 17.8118 25.1958 18.9117 26.002C19.3416 26.0145 17.9742 24.709 19.0154 25.5864C20.1153 25.7873 19.5554 27.3873 18.8854 26.3864V26.3851ZM19.8366 26.3589C20.2016 26.002 20.0253 26.7096 19.8366 26.3589ZM20.4228 26.5474C21.0865 26.9767 19.8753 25.5203 20.4228 26.5474ZM19.2566 25.4366C17.4468 23.8317 21.5352 26.2815 19.5491 25.7362L19.2566 25.4366ZM24.445 28.4456C23.6575 27.9776 24.2362 25.1434 24.5037 27.0803C25.2649 26.8332 24.4587 28.0812 25.0249 28.0687C24.9399 28.855 24.6862 29.1407 24.445 28.4456ZM26.3598 29.5763C26.5223 30.1616 26.4386 28.7252 26.3598 29.5763ZM26.0274 29.2456C26.1123 28.8812 26.0336 29.6749 26.0274 29.2456ZM19.6154 24.91C18.4505 23.305 22.9938 26.5287 20.3578 25.3131C20.0841 25.2419 19.7528 25.2157 19.6154 24.91ZM23.3063 26.8656C23.5538 27.0865 23.1951 25.514 23.3063 26.8656ZM26.1123 28.6603C26.3273 27.8927 26.1248 29.167 26.1123 28.6603ZM19.7903 24.2984C20.4803 24.1487 22.6551 25.5078 20.6565 24.6891C20.4353 24.442 19.9666 24.553 19.7903 24.2984ZM25.7211 27.25C25.7999 25.8722 26.1373 26.4251 25.7274 27.4447L25.7211 27.25ZM20.3053 23.818C20.5853 23.4086 19.5566 21.9522 20.4553 23.2975C20.839 23.6033 21.5752 23.8105 20.924 23.9415C21.9464 24.8388 20.6765 24.1824 20.3053 23.818ZM25.4287 26.8207C25.6236 25.2482 25.6049 27.7367 25.4287 26.8207ZM19.7191 22.3678C19.9341 22.2767 19.8303 22.6536 19.7191 22.3678ZM21.054 23.1615C21.6852 23.9677 21.399 22.4402 21.054 23.1615ZM24.8224 25.2607C24.8937 25.6575 24.8224 24.9811 24.8224 25.2607ZM24.6087 24.7727C25.0974 25.4554 24.0875 23.486 24.6087 24.7727ZM24.2825 23.9278C24.5887 24.5967 24.1975 23.3949 24.2825 23.9278ZM24.8099 23.0766C24.4525 22.4464 25.2662 20.2948 25.3499 21.6277C24.9724 22.6673 25.2462 23.2526 25.5061 21.8548C25.9949 20.7566 25.4024 24.0264 24.8099 23.0766ZM25.3437 19.878C25.4999 19.6833 25.3824 20.1051 25.3437 19.878ZM24.4525 37.5386C24.4787 37.656 24.2375 37.3502 24.4525 37.5386ZM26.3011 38.4684C27.3235 38.7355 27.3235 38.3124 26.3923 38.1889C25.8911 37.7209 24.3162 37.2266 25.7286 38.1302C25.8199 38.3648 26.1198 38.3573 26.2948 38.4684H26.3011ZM22.6489 36.051C23.2151 36.4741 24.7775 37.2466 23.4501 36.207C23.8988 35.6941 22.5976 35.4145 23.0263 35.0701C21.9327 34.3936 22.1602 34.4585 22.9351 34.4785C21.6065 33.887 23.1238 33.9319 23.0526 33.6274C22.5389 33.53 20.5203 32.73 21.7114 33.6923C20.5003 33.0807 21.419 33.9269 21.054 33.8358C19.8166 33.4976 22.1539 34.778 20.859 34.4598C21.569 35.0189 22.7726 35.8963 21.159 35.0514C20.944 35.3571 22.3114 35.8189 22.6501 36.0523L22.6489 36.051ZM24.5825 37.1617C26.9323 37.9155 23.4301 36.232 24.5825 37.1617ZM34.4767 43.1485C34.5092 42.6805 34.158 43.5454 34.4767 43.1485ZM35.4991 43.5778C36.0391 43.0511 35.5191 44.4102 36.3978 43.448C36.404 42.7591 36.3715 42.3498 35.3891 43.1884C35.1154 43.3382 34.9979 43.9747 35.5004 43.579L35.4991 43.5778ZM19.3416 33.4439C19.1791 32.7937 18.1767 32.7937 19.3416 33.4439ZM20.429 34.159C20.0253 33.4901 18.9904 33.555 20.429 34.159ZM26.6136 37.8843C27.2185 38.4173 29.3871 38.275 27.3497 37.9492C27.0435 37.5012 25.4299 37.611 26.6136 37.8843ZM35.1091 43.1223C36.0403 42.3423 34.2105 43.4667 35.1091 43.1223ZM37.0415 44.4427C37.0477 44.1956 36.644 44.5537 37.0415 44.4427ZM37.0415 44.0982C38.0702 43.0062 36.0453 44.1631 37.0415 44.0982ZM16.6731 31.215C15.7944 29.9669 16.1256 29.4016 15.2795 28.3869C15.1232 27.6007 13.8346 25.8323 14.6158 27.7105C15.3319 28.8025 15.5469 30.4998 16.6731 31.215ZM36.7228 43.7463C38.6176 42.5307 35.9478 43.2196 36.7228 43.7463ZM38.1689 44.3129C39.1188 43.5067 37.5702 44.1444 38.1689 44.3129ZM19.0229 32.0661C19.2966 31.663 18.3267 32.0137 19.0229 32.0661ZM37.8627 43.9285C38.7801 43.3369 37.6539 43.428 37.7002 43.9809L37.8627 43.9285ZM25.4149 36.0897C25.3824 35.6928 24.9262 36.1222 25.4149 36.0897ZM26.1836 36.5315C25.9361 36.0373 25.8061 36.6101 26.1836 36.5315ZM39.3401 44.3316C40.5125 43.4805 38.6239 44.1631 39.0926 44.4876L39.3401 44.3316ZM38.8913 44.1107C39.8488 43.3107 37.8752 44.4676 38.8913 44.1107ZM41.1887 45.6383C41.8336 45.209 40.4075 45.5022 41.1887 45.6383ZM19.6154 31.7741C20.4753 31.9688 23.0588 33.8932 21.5352 31.9101C20.754 31.6755 21.2227 29.771 20.4215 30.1092C20.9553 31.0003 20.864 31.3834 19.7441 30.8181C18.3317 30.1354 18.9504 31.1625 19.2229 31.4421C18.8517 31.527 19.7254 31.7666 19.6154 31.7741ZM15.6894 28.6802C15.8394 28.0437 14.2633 25.177 14.9407 27.2438C15.1882 27.6731 15.162 28.498 15.6894 28.6802ZM22.8901 33.1194C22.8701 33.0608 22.4476 32.7488 22.8901 33.1194ZM23.9838 33.3728C23.9838 32.6963 22.7789 33.0995 23.9838 33.3728ZM33.4555 39.3333C33.273 38.8715 32.7393 39.3208 33.4555 39.3333ZM33.9105 39.6653C33.8455 39.4057 33.6505 39.7102 33.9105 39.6653ZM37.6664 42.024C38.0239 41.7569 37.2177 41.9916 37.6664 42.024ZM17.6493 29.1807C18.6842 28.7776 16.5431 28.8949 17.6493 29.1807ZM32.6218 38.5982C32.6093 37.9293 31.9644 38.7667 32.6218 38.5982ZM17.2393 28.2309C17.903 28.0038 16.6268 28.0812 17.2393 28.2309ZM19.1654 29.1607C19.1529 28.9398 18.9642 29.2456 19.1654 29.1607ZM42.6473 43.5391C43.4997 43.3706 45.4471 43.9747 45.7595 43.312C44.7246 43.292 42.1723 42.5844 42.0548 43.4805L42.2823 43.5191L42.6473 43.5391ZM19.7778 29.3167C19.7903 28.6403 19.2504 29.2905 19.7778 29.3167ZM14.7132 25.8061C14.4858 24.5193 13.8408 25.6114 14.7132 25.8061ZM15.9244 26.1118C15.9369 25.6962 14.8182 25.7349 15.9244 26.1118ZM16.6143 26.45C16.4581 26.651 16.4131 26.2878 16.6143 26.45ZM20.949 29.2256C21.1577 29.0434 20.4678 29.0896 20.949 29.2256ZM16.1519 25.69C16.0344 24.7153 14.752 25.5402 16.1519 25.69ZM13.6783 24.0838C13.6458 23.6358 13.4371 24.2523 13.6783 24.0838ZM14.042 23.8042C13.9833 23.2713 13.7296 23.8691 14.042 23.8042ZM16.0806 25.0198C16.9406 24.6816 14.512 24.3172 15.9044 24.9549L16.0806 25.0198ZM43.2985 41.8031C43.8522 41.3027 42.6023 41.6471 43.2985 41.8031ZM46.592 43.5067C46.807 42.8564 46.032 43.5915 46.592 43.5067ZM16.2881 23.954C16.3794 23.3237 15.6044 24.0775 16.2881 23.954ZM13.3921 22.0171C13.2359 21.126 13.2621 19.566 14.7457 20.0926C12.7596 20.4895 16.1194 22.5562 15.6957 20.9251C16.5294 20.9637 17.3293 20.4308 16.8868 21.2433C18.5342 21.0611 19.6729 19.6384 21.2615 19.833C22.4989 19.6708 23.8525 19.5472 25.1874 19.053C26.2811 18.9682 27.336 17.7925 26.7373 17.0961C25.2399 16.9664 23.6775 17.1548 22.0239 17.4793C20.1941 17.8624 18.5342 18.5838 16.6856 18.8958C14.882 19.1367 17.0431 19.5585 16.5294 19.6558C15.5919 19.9803 17.6493 20.2025 16.4056 20.5394C15.6444 20.3959 14.8432 20.1301 15.1682 19.3239C13.4433 19.5448 11.926 20.2661 13.2934 22.0146L13.3921 22.0171ZM17.5518 19.9042C17.9555 18.4153 19.7191 21.126 18.2155 20.0989C18.033 19.9691 17.7405 19.858 17.5518 19.9042ZM17.6293 19.1828C18.2092 18.7535 17.9355 19.4237 17.6293 19.1828ZM18.3717 19.1966C18.4242 18.5139 20.0641 19.561 18.6392 19.4437L18.3717 19.1966ZM19.3804 18.786C19.7516 18.3566 19.4916 19.1766 19.3804 18.786ZM19.6416 18.6175C20.2603 17.8762 23.1376 18.1432 21.0277 18.5463C20.4678 18.1233 20.0316 18.7934 19.6416 18.6175ZM23.3976 18.0384C25.2599 18.7598 23.3001 16.0166 23.3976 18.0384ZM24.4587 18.0322C24.8499 17.0113 25.9686 17.6228 24.6412 17.8237C24.6675 17.9348 24.6025 18.3504 24.4587 18.0322ZM15.8657 23.4336C17.0306 22.7185 14.6358 22.8158 15.8657 23.4336ZM16.7243 23.6744C17.1343 23.2389 15.8394 23.4922 16.7243 23.6744ZM14.192 21.8736C14.8557 21.3669 13.4108 21.6789 14.192 21.8736ZM48.5318 43.3245C48.5518 42.7329 48.0244 43.5915 48.5318 43.3245ZM45.0434 40.9457C45.1408 40.2631 44.5946 41.0044 45.0434 40.9457ZM49.4893 43.5516C50.4204 43.5516 52.3015 43.2658 50.2829 43.2658C49.9642 43.3182 48.4343 43.3045 49.4893 43.5516ZM17.4793 23.2526C18.2342 23.2002 18.6579 22.4277 17.3355 22.4726C15.2845 22.2579 19.1391 23.1677 17.0756 22.9082C16.7956 23.0904 17.4668 23.305 17.4793 23.2526ZM18.1442 23.5896C18.0655 23.1016 17.9092 23.8429 18.1442 23.5896ZM18.9254 21.4967C19.2579 21.0935 18.4767 21.3856 18.9254 21.4967ZM16.4256 17.3245C17.773 16.869 19.6091 16.3561 20.2403 17.5454C19.5954 16.7717 19.9803 16.0116 20.5915 17.1423C21.4515 18.293 21.8802 16.6219 21.3202 16.2388C21.9577 17.0312 22.6814 17.4019 21.7502 16.2837C22.7664 15.0681 19.7129 16.4459 19.0154 16.4334C18.6829 16.5832 15.5657 17.2259 16.4306 17.3245H16.4256ZM17.213 15.8219C17.9817 15.2428 19.8628 16.1601 18.6517 15.2428C18.5404 15.1455 16.0081 15.938 17.213 15.8219ZM20.0053 15.933C20.904 15.9592 19.6216 14.7374 20.689 15.289C20.5128 14.7174 19.4454 14.6064 18.9179 14.3792C18.6254 14.9059 19.5229 15.9392 20.0053 15.933ZM17.708 13.4045C18.0142 12.9889 17.1606 13.6192 17.708 13.4045ZM18.8467 13.6778C20.2853 13.4894 18.4754 13.0601 18.5542 13.6654L18.8467 13.6778ZM16.7181 12.013C15.7019 10.6863 18.6254 12.2401 17.5968 10.8498C16.7243 10.1609 15.8907 11.6298 16.7181 12.013ZM29.7571 19.0268C30.2258 18.2019 27.8297 17.9148 29.4446 18.7348C29.5946 18.7872 29.5558 19.0855 29.7571 19.0268Z" fill="white"/>
</g>
<g filter="url(#filter1_d_1_50)">
<path d="M61.2784 24.5V12.8636H65.5398C66.3655 12.8636 67.0492 13 67.5909 13.2727C68.1326 13.5417 68.5379 13.9072 68.8068 14.3693C69.0757 14.8276 69.2102 15.3447 69.2102 15.9204C69.2102 16.4053 69.1212 16.8144 68.9432 17.1477C68.7651 17.4773 68.5265 17.7424 68.2273 17.9432C67.9318 18.1401 67.606 18.2841 67.25 18.375V18.4886C67.6363 18.5076 68.0132 18.6326 68.3807 18.8636C68.7519 19.0909 69.0587 19.4148 69.3011 19.8352C69.5435 20.2557 69.6648 20.767 69.6648 21.3693C69.6648 21.964 69.5246 22.4981 69.2443 22.9716C68.9678 23.4413 68.5398 23.8144 67.9602 24.0909C67.3807 24.3636 66.6401 24.5 65.7386 24.5H61.2784ZM63.0341 22.9943H65.5682C66.4091 22.9943 67.0113 22.8314 67.375 22.5057C67.7386 22.1799 67.9204 21.7727 67.9204 21.2841C67.9204 20.9167 67.8276 20.5795 67.642 20.2727C67.4564 19.9659 67.1913 19.7216 66.8466 19.5398C66.5057 19.3579 66.1004 19.267 65.6307 19.267H63.0341V22.9943ZM63.0341 17.8977H65.3863C65.7803 17.8977 66.1345 17.822 66.4488 17.6704C66.767 17.5189 67.0189 17.3068 67.2045 17.0341C67.3939 16.7576 67.4886 16.4318 67.4886 16.0568C67.4886 15.5758 67.3201 15.1723 66.9829 14.8466C66.6458 14.5208 66.1288 14.3579 65.4318 14.3579H63.0341V17.8977ZM77.1392 20.8807V15.7727H78.8437V24.5H77.1733V22.9886H77.0824C76.8816 23.4545 76.5596 23.8428 76.1165 24.1534C75.6771 24.4602 75.1297 24.6136 74.4744 24.6136C73.9138 24.6136 73.4176 24.4905 72.9858 24.2443C72.5577 23.9943 72.2206 23.625 71.9744 23.1364C71.732 22.6477 71.6108 22.0436 71.6108 21.3239V15.7727H73.3096V21.1193C73.3096 21.714 73.4744 22.1875 73.804 22.5398C74.1335 22.892 74.5615 23.0682 75.088 23.0682C75.4062 23.0682 75.7225 22.9886 76.0369 22.8295C76.3551 22.6704 76.6184 22.4299 76.8267 22.1079C77.0388 21.786 77.143 21.3769 77.1392 20.8807ZM81.1264 24.5V15.7727H82.8253V24.5H81.1264ZM81.9844 14.4261C81.6889 14.4261 81.4351 14.3276 81.223 14.1307C81.0147 13.9299 80.9105 13.6913 80.9105 13.4148C80.9105 13.1345 81.0147 12.8958 81.223 12.6989C81.4351 12.4981 81.6889 12.3977 81.9844 12.3977C82.2798 12.3977 82.5317 12.4981 82.74 12.6989C82.9522 12.8958 83.0582 13.1345 83.0582 13.4148C83.0582 13.6913 82.9522 13.9299 82.74 14.1307C82.5317 14.3276 82.2798 14.4261 81.9844 14.4261ZM86.8096 12.8636V24.5H85.1108V12.8636H86.8096ZM93.169 15.7727V17.1364H88.402V15.7727H93.169ZM89.6804 13.6818H91.3792V21.9375C91.3792 22.267 91.4285 22.5151 91.527 22.6818C91.6254 22.8447 91.7523 22.9564 91.9076 23.017C92.0667 23.0739 92.2391 23.1023 92.4247 23.1023C92.5611 23.1023 92.6804 23.0928 92.7826 23.0739C92.8849 23.0549 92.9645 23.0398 93.0213 23.0284L93.3281 24.4318C93.2296 24.4697 93.0895 24.5076 92.9076 24.5454C92.7258 24.5871 92.4986 24.6098 92.2258 24.6136C91.7789 24.6212 91.3622 24.5417 90.9758 24.375C90.5895 24.2083 90.277 23.9508 90.0383 23.6023C89.7997 23.2538 89.6804 22.8163 89.6804 22.2898V13.6818ZM101.175 24.5L98.6065 15.7727H100.362L102.072 22.1818H102.158L103.874 15.7727H105.629L107.334 22.1534H107.419L109.118 15.7727H110.874L108.311 24.5H106.578L104.805 18.1989H104.675L102.902 24.5H101.175ZM112.486 24.5V15.7727H114.185V24.5H112.486ZM113.344 14.4261C113.048 14.4261 112.794 14.3276 112.582 14.1307C112.374 13.9299 112.27 13.6913 112.27 13.4148C112.27 13.1345 112.374 12.8958 112.582 12.6989C112.794 12.4981 113.048 12.3977 113.344 12.3977C113.639 12.3977 113.891 12.4981 114.099 12.6989C114.312 12.8958 114.418 13.1345 114.418 13.4148C114.418 13.6913 114.312 13.9299 114.099 14.1307C113.891 14.3276 113.639 14.4261 113.344 14.4261ZM120.544 15.7727V17.1364H115.777V15.7727H120.544ZM117.055 13.6818H118.754V21.9375C118.754 22.267 118.803 22.5151 118.902 22.6818C119 22.8447 119.127 22.9564 119.283 23.017C119.442 23.0739 119.614 23.1023 119.8 23.1023C119.936 23.1023 120.055 23.0928 120.158 23.0739C120.26 23.0549 120.339 23.0398 120.396 23.0284L120.703 24.4318C120.605 24.4697 120.464 24.5076 120.283 24.5454C120.101 24.5871 119.874 24.6098 119.601 24.6136C119.154 24.6212 118.737 24.5417 118.351 24.375C117.964 24.2083 117.652 23.9508 117.413 23.6023C117.175 23.2538 117.055 22.8163 117.055 22.2898V13.6818ZM124.31 19.3182V24.5H122.611V12.8636H124.287V17.1932H124.395C124.599 16.7235 124.912 16.3504 125.332 16.0739C125.753 15.7973 126.302 15.6591 126.98 15.6591C127.579 15.6591 128.101 15.7822 128.548 16.0284C128.999 16.2746 129.348 16.642 129.594 17.1307C129.844 17.6155 129.969 18.2216 129.969 18.9489V24.5H128.27V19.1534C128.27 18.5133 128.105 18.017 127.776 17.6648C127.446 17.3087 126.988 17.1307 126.401 17.1307C125.999 17.1307 125.639 17.2159 125.321 17.3864C125.007 17.5568 124.758 17.8068 124.577 18.1364C124.399 18.4621 124.31 18.8561 124.31 19.3182Z" fill="#E8E8E8"/>
<path d="M60.9357 43.5V31.1364H69.3753V33.5632H63.924V36.0987H68.8381V38.5316H63.924V43.5H60.9357ZM73.8321 31.1364V43.5H70.88V31.1364H73.8321ZM78.3251 43.6569C77.7335 43.6569 77.2083 43.5583 76.7494 43.3611C76.2947 43.1599 75.9345 42.8581 75.6688 42.4556C75.4072 42.0491 75.2764 41.54 75.2764 40.9283C75.2764 40.4131 75.367 39.9784 75.5481 39.6243C75.7292 39.2701 75.9787 38.9824 76.2967 38.761C76.6146 38.5396 76.9809 38.3726 77.3954 38.2599C77.8099 38.1432 78.2526 38.0647 78.7235 38.0245C79.2507 37.9762 79.6753 37.9259 79.9973 37.8736C80.3193 37.8172 80.5527 37.7387 80.6976 37.6381C80.8465 37.5335 80.921 37.3866 80.921 37.1974V37.1672C80.921 36.8574 80.8143 36.6179 80.601 36.4489C80.3877 36.2798 80.0999 36.1953 79.7377 36.1953C79.3473 36.1953 79.0334 36.2798 78.796 36.4489C78.5585 36.6179 78.4076 36.8513 78.3432 37.1491L75.6205 37.0525C75.701 36.4891 75.9083 35.986 76.2423 35.5433C76.5804 35.0966 77.0432 34.7464 77.6308 34.4929C78.2225 34.2353 78.9328 34.1065 79.7619 34.1065C80.3535 34.1065 80.8988 34.177 81.3979 34.3178C81.8969 34.4547 82.3316 34.6559 82.7019 34.9215C83.0721 35.1831 83.3579 35.5051 83.5591 35.8874C83.7644 36.2698 83.867 36.7064 83.867 37.1974V43.5H81.09V42.2081H81.0176C80.8525 42.522 80.6413 42.7876 80.3837 43.005C80.1301 43.2223 79.8303 43.3853 79.4842 43.494C79.1421 43.6026 78.7557 43.6569 78.3251 43.6569ZM79.2367 41.7251C79.5546 41.7251 79.8404 41.6607 80.0939 41.5319C80.3515 41.4032 80.5567 41.2261 80.7097 41.0007C80.8626 40.7713 80.9391 40.5057 80.9391 40.2038V39.3224C80.8546 39.3667 80.7519 39.4069 80.6312 39.4432C80.5145 39.4794 80.3857 39.5136 80.2448 39.5458C80.104 39.578 79.9591 39.6062 79.8102 39.6303C79.6613 39.6545 79.5184 39.6766 79.3815 39.6967C79.1038 39.741 78.8664 39.8094 78.6692 39.902C78.476 39.9945 78.3271 40.1153 78.2225 40.2642C78.1218 40.4091 78.0715 40.5821 78.0715 40.7834C78.0715 41.0892 78.1802 41.3227 78.3975 41.4837C78.6189 41.6446 78.8986 41.7251 79.2367 41.7251ZM93.7676 37.0586L91.057 37.131C91.0288 36.9378 90.9523 36.7668 90.8276 36.6179C90.7028 36.465 90.5398 36.3462 90.3386 36.2617C90.1414 36.1732 89.912 36.1289 89.6504 36.1289C89.3083 36.1289 89.0165 36.1973 88.775 36.3342C88.5376 36.471 88.4208 36.6561 88.4249 36.8895C88.4208 37.0707 88.4933 37.2276 88.6422 37.3604C88.7951 37.4932 89.0668 37.5999 89.4572 37.6804L91.2441 38.0185C92.1698 38.1955 92.858 38.4893 93.3087 38.8998C93.7635 39.3104 93.9929 39.8537 93.997 40.5298C93.9929 41.1657 93.8038 41.7191 93.4295 42.19C93.0592 42.6609 92.5521 43.0271 91.9082 43.2887C91.2642 43.5463 90.5277 43.6751 89.6987 43.6751C88.3746 43.6751 87.3302 43.4034 86.5655 42.8601C85.8048 42.3127 85.3702 41.5802 85.2615 40.6626L88.1774 40.5902C88.2417 40.9283 88.4088 41.1858 88.6784 41.3629C88.9481 41.54 89.2922 41.6285 89.7107 41.6285C90.0891 41.6285 90.3969 41.5581 90.6344 41.4172C90.8718 41.2764 90.9926 41.0892 90.9966 40.8558C90.9926 40.6465 90.9 40.4795 90.7189 40.3547C90.5378 40.226 90.2541 40.1253 89.8677 40.0529L88.2498 39.745C87.3201 39.576 86.6279 39.2641 86.1731 38.8093C85.7183 38.3505 85.4929 37.7669 85.497 37.0586C85.4929 36.4388 85.6579 35.9096 85.992 35.4709C86.326 35.0282 86.8009 34.6901 87.4167 34.4567C88.0325 34.2232 88.7589 34.1065 89.596 34.1065C90.8517 34.1065 91.8418 34.3701 92.5662 34.8974C93.2906 35.4206 93.6911 36.141 93.7676 37.0586ZM98.1126 41.0671L98.1247 37.5476H98.5352L101.143 34.2273H104.488L100.612 38.9844H99.8332L98.1126 41.0671ZM95.4503 43.5V31.1364H98.4024V43.5H95.4503ZM101.21 43.5L98.7827 39.6484L100.727 37.5536L104.62 43.5H101.21Z" fill="white"/>
</g>
<defs>
<filter id="filter0_d_1_50" x="6.28571" y="2.28571" width="51.4286" height="51.4286" filterUnits="userSpaceOnUse" color-interpolation-filters="sRGB">
<feFlood flood-opacity="0" result="BackgroundImageFix"/>
<feColorMatrix in="SourceAlpha" type="matrix" values="0 0 0 0 0 0 0 0 0 0 0 0 0 0 0 0 0 0 127 0" result="hardAlpha"/>
<feOffset/>
<feGaussianBlur stdDeviation="2.85714"/>
<feComposite in2="hardAlpha" operator="out"/>
<feColorMatrix type="matrix" values="0 0 0 0 0 0 0 0 0 0 0 0 0 0 0 0 0 0 0.25 0"/>
<feBlend mode="normal" in2="BackgroundImageFix" result="effect1_dropShadow_1_50"/>
<feBlend mode="normal" in="SourceGraphic" in2="effect1_dropShadow_1_50" result="shape"/>
</filter>
<filter id="filter1_d_1_50" x="54.4" y="3.9" width="83.2" height="48.2" filterUnits="userSpaceOnUse" color-interpolation-filters="sRGB">
<feFlood flood-opacity="0" result="BackgroundImageFix"/>
<feColorMatrix in="SourceAlpha" type="matrix" values="0 0 0 0 0 0 0 0 0 0 0 0 0 0 0 0 0 0 127 0" result="hardAlpha"/>
<feOffset/>
<feGaussianBlur stdDeviation="2.8"/>
<feComposite in2="hardAlpha" operator="out"/>
<feColorMatrix type="matrix" values="0 0 0 0 0 0 0 0 0 0 0 0 0 0 0 0 0 0 0.25 0"/>
<feBlend mode="normal" in2="BackgroundImageFix" result="effect1_dropShadow_1_50"/>
<feBlend mode="normal" in="SourceGraphic" in2="effect1_dropShadow_1_50" result="shape"/>
</filter>
<linearGradient id="paint0_linear_1_50" x1="72" y1="0" x2="72" y2="56" gradientUnits="userSpaceOnUse">
<stop stop-color="#292929"/>
<stop offset="1"/>
</linearGradient>
</defs>
</svg>
