<svg width="56" height="56" viewBox="0 0 56 56" fill="none" xmlns="http://www.w3.org/2000/svg">
<rect width="56" height="56" rx="8.4" fill="url(#paint0_linear_1_62)"/>
<rect x="1.05" y="1.05" width="53.9" height="53.9" rx="7.35" stroke="white" stroke-opacity="0.15" stroke-width="2.1"/>
<g filter="url(#filter0_d_1_62)">
<path d="M19.9513 42.2262C18.4276 41.0231 16.8003 39.8799 15.6941 38.2613C13.3568 35.4145 11.5532 32.1185 10.3233 28.6478C9.58084 26.3989 9.3271 23.9802 8.36968 21.8099C7.36726 20.2436 8.53842 18.5214 10.2645 18.0209C11.0332 17.8712 12.3869 17.1498 10.7532 17.6702C9.28836 18.736 9.15212 16.6955 10.6495 16.5657C11.6719 16.4297 12.0494 15.591 11.6982 14.8435C10.6045 14.1284 14.3667 13.3421 12.4731 12.2688C10.5008 10.1434 15.2329 9.7341 14.068 12.1453C13.788 14.0048 17.3752 11.8071 16.5415 13.9524C17.3877 14.9795 19.705 14.187 19.6463 15.6297C20.8837 15.7146 21.3062 16.7479 22.4586 16.8253C23.6635 17.372 25.8308 17.7938 26.2408 19.1391C25.0496 20.0814 22.2961 17.2022 22.1661 19.8018C22.5236 23.6432 22.4336 27.6019 23.8397 31.2611C24.5097 33.4776 26.1245 35.2261 27.5832 36.9483C28.9768 38.6444 30.8642 39.8275 32.7915 40.8359C34.4839 41.6284 36.3075 42.1551 38.1486 42.487C38.891 41.9154 40.2122 39.7963 41.3771 40.6924C41.4296 41.6933 39.066 42.7915 41.2658 42.6817C42.5545 42.2911 43.4532 43.6764 44.5206 42.4284C45.4968 43.5853 48.5953 41.6871 47.8991 44.0595C46.9554 44.6636 45.5755 44.3004 44.6306 45.1316C43.0744 44.3578 41.8308 45.8267 40.1059 45.6445C38.1923 45.9827 36.2387 46.125 34.2989 46.125C31.1154 45.8717 27.8606 45.7681 24.8271 44.6623C23.121 44.1619 21.4549 43.1947 19.9513 42.2262ZM22.6398 43.3894C24.3059 44.1045 25.9408 44.8645 27.7694 45.0991C30.6667 45.496 33.6614 46.12 36.5712 45.5547C35.2563 44.9569 33.8889 45.7893 32.5803 45.1253C31.0054 45.4636 29.3193 45.0405 27.7169 44.8333C25.9008 44.0271 23.9347 43.468 22.2286 42.4146C20.1063 41.6409 23.3285 43.4093 23.9085 43.5591C25.2371 44.3129 22.4436 43.1685 22.0536 42.8564C20.9399 42.2324 20.7975 42.3622 21.9424 42.9925C22.1698 43.1285 22.3998 43.272 22.6398 43.3894ZM19.4688 41.1467C21.0837 41.7445 19.4626 40.016 18.7201 40.1133C18.3951 39.548 17.4702 39.1835 18.1214 38.8853C16.9428 39.2884 16.8915 37.3377 16.3378 37.611C15.0942 37.2204 15.8566 35.8364 14.378 34.9852C14.2417 34.0879 12.9068 33.3079 12.4769 31.95C12.2881 31.2611 10.9732 29.2656 11.7807 31.1176C12.4706 32.9048 13.688 34.4323 14.6967 35.9599C15.4841 37.4089 16.409 38.9302 17.8414 39.8338C18.3226 40.2955 18.7851 41.0044 19.4688 41.1467ZM14.8142 36.0448C15.1066 36.5714 14.8667 35.8039 14.8142 36.0448ZM21.4024 41.8618C21.7599 41.7058 20.8887 41.6671 21.4024 41.8618ZM22.2811 42.1863C22.1898 41.7445 21.8774 42.4271 22.2811 42.1863ZM23.381 42.6418C23.9022 42.1413 22.5736 42.3298 23.381 42.6418ZM25.2633 43.6889C25.5821 43.2209 24.2409 43.5129 25.2633 43.6889ZM21.6499 41.1729C22.4573 40.6462 20.595 41.1666 21.6499 41.1729ZM22.4698 41.5822C22.4498 41.3027 22.1773 41.7058 22.4698 41.5822ZM26.5845 44.1494C27.2482 44.565 30.4517 45.0592 28.4468 44.3179C28.1144 44.389 24.7296 43.3619 26.5845 44.1494ZM20.055 39.0662C19.99 38.7867 19.0263 38.7542 20.055 39.0662ZM21.9686 40.1782C22.4698 39.8337 20.9337 39.9111 21.9686 40.1782ZM23.5835 41.1666C24.2997 40.8996 22.4186 40.8933 23.5835 41.1666ZM19.2738 38.2151C20.0488 38.8129 22.4048 38.2937 20.465 37.8644C19.58 37.3901 17.5877 37.0719 18.9413 38.1439L19.2738 38.2151ZM24.6709 41.5111C24.9959 40.9582 23.3173 41.1928 24.6709 41.5111ZM23.0298 40.2044C24.9309 40.7436 21.4349 39.0088 22.5611 40.0097L22.8148 40.1208L23.0298 40.2044ZM26.3233 42.1026C28.1194 42.1226 24.6959 41.8555 26.3233 42.1026ZM18.5839 37.1755C18.5126 36.8435 18.1414 37.2079 18.5839 37.1755ZM29.3643 43.8049C29.4093 43.2009 28.7781 44.2605 29.3643 43.8049ZM21.6499 39.0537C21.5386 38.7355 21.0899 39.0413 21.6499 39.0537ZM18.7526 36.9671C19.7813 36.9084 17.3402 36.5115 18.7526 36.9671ZM15.3154 34.7506C15.1916 34.2564 14.1955 33.867 15.3154 34.7506ZM24.3322 40.4702C24.2409 40.5152 24.1434 40.2493 24.3322 40.4702ZM29.9367 43.9023C29.9242 43.5778 29.6368 44.0258 29.9367 43.9023ZM23.8372 39.9573C23.9347 39.528 22.9523 39.8275 23.8372 39.9573ZM19.6575 37.3053C20.4187 37.2266 18.4276 36.7923 19.6575 37.3053ZM26.727 41.6933C27.9181 41.219 25.5546 41.4587 26.727 41.6933ZM23.0498 39.2035C24.4297 39.3795 21.4087 38.2675 22.7435 39.1062L23.0498 39.2035ZM27.8406 42.1476C29.1293 41.3738 28.7068 43.9485 30.028 42.3622C31.3304 41.4137 28.9018 43.5391 30.5092 42.5307C31.6678 41.7569 33.3865 42.9014 34.4676 43.272C35.2488 43.2333 36.01 43.9485 36.8049 43.5129C38.3473 43.0973 33.7977 42.9014 34.9888 42.1675C33.5827 42.5769 32.5415 41.6796 31.8516 40.776C30.2692 40.4116 28.4468 39.6054 27.6594 38.2088C27.3344 37.6884 28.1219 38.2875 27.3794 37.4288C26.4295 36.5839 25.9533 35.6217 25.3158 34.5946C24.5547 34.1915 24.4634 32.9959 24.3847 34.5559C24.3909 33.5675 23.4597 32.9048 23.2385 33.1843C23.2323 32.2358 24.2284 32.7101 23.531 32.0074C23.381 31.019 22.886 29.9919 22.7373 28.8812C22.5098 28.3483 22.7048 27.2038 21.9499 28.4132C21.6761 29.6936 21.8586 26.8407 22.2886 27.7829C22.8485 26.8207 22.0873 26.9318 22.0536 27.0678C22.4186 26.2553 22.2886 25.1047 21.9561 25.5402C22.1511 24.6816 22.2686 22.3753 21.6636 22.7846C22.0286 21.8873 22.3536 18.6699 20.7787 19.8979C20.1338 19.9042 19.0276 20.1326 18.5064 20.3922C20.1475 21.2957 18.3376 20.7166 17.6727 20.5744C17.5877 21.4068 16.924 21.0486 16.0978 21.0549C17.419 21.2171 15.4529 22.4002 14.6917 21.9459C13.7093 22.4139 15.5441 23.5846 14.7117 23.9478C14.8154 24.4944 13.208 23.7531 13.3318 25.0136C12.3744 24.6105 13.2018 26.5149 13.6768 25.8722C15.3041 26.3078 14.8229 27.3087 14.8617 28.2646C14.6017 28.8175 13.5593 26.958 14.6342 27.0428C13.788 25.6713 13.6968 26.5486 12.9868 27.1864C12.8243 27.2313 14.7904 28.0962 13.5593 28.5255C14.6404 28.6877 14.6729 29.6375 14.8879 30.2353C15.5391 30.9179 15.4091 29.4877 16.1903 30.3064C15.6954 29.5788 13.5793 28.2584 15.2791 28.6815C15.2729 27.9539 14.9729 27.3623 15.4941 27.381C16.0153 26.445 14.9542 29.6886 16.1191 28.4993C16.444 28.3557 16.5228 27.5633 17.109 28.5704C17.9489 29.4028 17.409 30.0006 16.2241 29.2393C16.4328 29.9607 17.8127 30.2203 17.5527 31.346C17.8264 32.3407 18.2102 31.97 18.5489 31.9176C18.8089 32.8798 18.9588 32.1709 18.9726 31.7092C20.1775 31.9688 19.89 32.6776 20.2675 33.1781C21.0937 33.5487 19.0826 30.6434 20.5087 32.3007C21.9999 33.6523 21.0687 34.2114 19.7213 33.9968C20.5737 33.9319 20.8474 35.1475 21.9086 35.1013C22.8785 35.563 23.536 37.3302 21.8636 36.5964C21.2837 36.076 19.2338 35.4258 20.9137 36.4204C22.4636 37.1355 23.6872 37.5649 25.1846 38.4609C26.2458 39.221 26.7145 40.0996 27.1182 40.2681C26.2195 40.6974 24.4097 39.9236 25.7508 39.689C24.9171 39.5392 23.9734 39.1174 24.7746 40.157C25.4583 40.7286 27.1894 40.6637 27.5019 40.7286C27.2344 41.3077 26.7857 41.3526 27.5144 41.3975C26.7007 41.8331 27.7744 41.898 27.8469 42.1451L27.8406 42.1476ZM26.187 37.4738C25.6921 36.9533 25.5621 35.9911 26.0958 36.8298C26.3695 36.9409 26.9745 38.4098 26.187 37.4738ZM31.5841 40.8933C31.8903 40.8808 31.5903 41.1279 31.5841 40.8933ZM25.4058 36.207C25.5821 36.8111 25.3858 35.4332 25.4058 36.207ZM24.8659 35.4919C25.6533 35.8301 24.2472 34.2963 24.8659 35.4919ZM18.3689 31.0065C18.7339 30.9092 18.5451 31.6305 18.3689 31.0065ZM23.5447 33.8083C23.8047 34.5172 23.766 32.9697 23.5447 33.8083ZM19.885 31.2736C20.425 31.7092 19.6313 30.8118 19.885 31.2736ZM23.0235 32.2745C22.4373 30.9616 23.4397 31.5594 23.1535 32.4954L23.0235 32.2745ZM17.614 28.6727C17.354 28.2434 16.9178 26.9767 17.0602 26.5923C17.184 27.2163 18.3951 29.2968 17.6527 27.4509C16.8328 25.9034 18.6351 27.9514 18.8251 28.342C18.9101 28.7252 18.3176 28.2384 18.7139 29.1345C17.9852 28.1074 18.2839 29.6999 17.614 28.6727ZM15.9403 27.5221C16.3241 28.211 16.0116 26.5212 15.9403 27.5221ZM16.6953 27.7829C17.3002 28.8362 17.0527 27.0229 16.6953 27.7829ZM14.8854 26.3851C14.2605 25.7674 13.8118 25.1958 14.9117 26.002C15.3416 26.0145 13.9742 24.709 15.0154 25.5864C16.1153 25.7873 15.5554 27.3873 14.8854 26.3864V26.3851ZM15.8366 26.3589C16.2016 26.002 16.0253 26.7096 15.8366 26.3589ZM16.4228 26.5474C17.0865 26.9767 15.8753 25.5203 16.4228 26.5474ZM15.2566 25.4366C13.4468 23.8317 17.5352 26.2815 15.5491 25.7362L15.2566 25.4366ZM20.445 28.4456C19.6575 27.9776 20.2362 25.1434 20.5037 27.0803C21.2649 26.8332 20.4587 28.0812 21.0249 28.0687C20.9399 28.855 20.6862 29.1407 20.445 28.4456ZM22.3598 29.5763C22.5223 30.1616 22.4386 28.7252 22.3598 29.5763ZM22.0274 29.2456C22.1123 28.8812 22.0336 29.6749 22.0274 29.2456ZM15.6154 24.91C14.4505 23.305 18.9938 26.5287 16.3578 25.3131C16.0841 25.2419 15.7528 25.2157 15.6154 24.91ZM19.3063 26.8656C19.5538 27.0865 19.1951 25.514 19.3063 26.8656ZM22.1123 28.6603C22.3273 27.8927 22.1248 29.167 22.1123 28.6603ZM15.7903 24.2984C16.4803 24.1487 18.6551 25.5078 16.6565 24.6891C16.4353 24.442 15.9666 24.553 15.7903 24.2984ZM21.7211 27.25C21.7999 25.8722 22.1373 26.4251 21.7274 27.4447L21.7211 27.25ZM16.3053 23.818C16.5853 23.4086 15.5566 21.9522 16.4553 23.2975C16.839 23.6033 17.5752 23.8105 16.924 23.9415C17.9464 24.8388 16.6765 24.1824 16.3053 23.818ZM21.4287 26.8207C21.6236 25.2482 21.6049 27.7367 21.4287 26.8207ZM15.7191 22.3678C15.9341 22.2767 15.8303 22.6536 15.7191 22.3678ZM17.054 23.1615C17.6852 23.9677 17.399 22.4402 17.054 23.1615ZM20.8224 25.2607C20.8937 25.6575 20.8224 24.9811 20.8224 25.2607ZM20.6087 24.7727C21.0974 25.4554 20.0875 23.486 20.6087 24.7727ZM20.2825 23.9278C20.5887 24.5967 20.1975 23.3949 20.2825 23.9278ZM20.8099 23.0766C20.4525 22.4464 21.2662 20.2948 21.3499 21.6277C20.9724 22.6673 21.2462 23.2526 21.5061 21.8548C21.9949 20.7566 21.4024 24.0264 20.8099 23.0766ZM21.3437 19.878C21.4999 19.6833 21.3824 20.1051 21.3437 19.878ZM20.4525 37.5386C20.4787 37.656 20.2375 37.3502 20.4525 37.5386ZM22.3011 38.4684C23.3235 38.7355 23.3235 38.3124 22.3923 38.1889C21.8911 37.7209 20.3162 37.2266 21.7286 38.1302C21.8199 38.3648 22.1198 38.3573 22.2948 38.4684H22.3011ZM18.6489 36.051C19.2151 36.4741 20.7775 37.2466 19.4501 36.207C19.8988 35.6941 18.5976 35.4145 19.0263 35.0701C17.9327 34.3936 18.1602 34.4585 18.9351 34.4785C17.6065 33.887 19.1238 33.9319 19.0526 33.6274C18.5389 33.53 16.5203 32.73 17.7114 33.6923C16.5003 33.0807 17.419 33.9269 17.054 33.8358C15.8166 33.4976 18.1539 34.778 16.859 34.4598C17.569 35.0189 18.7726 35.8963 17.159 35.0514C16.944 35.3571 18.3114 35.8189 18.6501 36.0523L18.6489 36.051ZM20.5825 37.1617C22.9323 37.9155 19.4301 36.232 20.5825 37.1617ZM30.4767 43.1485C30.5092 42.6805 30.158 43.5454 30.4767 43.1485ZM31.4991 43.5778C32.0391 43.0511 31.5191 44.4102 32.3978 43.448C32.404 42.7591 32.3715 42.3498 31.3891 43.1884C31.1154 43.3382 30.9979 43.9747 31.5004 43.579L31.4991 43.5778ZM15.3416 33.4439C15.1791 32.7937 14.1767 32.7937 15.3416 33.4439ZM16.429 34.159C16.0253 33.4901 14.9904 33.555 16.429 34.159ZM22.6136 37.8843C23.2185 38.4173 25.3871 38.275 23.3497 37.9492C23.0435 37.5012 21.4299 37.611 22.6136 37.8843ZM31.1091 43.1223C32.0403 42.3423 30.2105 43.4667 31.1091 43.1223ZM33.0415 44.4427C33.0477 44.1956 32.644 44.5537 33.0415 44.4427ZM33.0415 44.0982C34.0702 43.0062 32.0453 44.1631 33.0415 44.0982ZM12.6731 31.215C11.7944 29.9669 12.1256 29.4016 11.2795 28.3869C11.1232 27.6007 9.83456 25.8323 10.6158 27.7105C11.3319 28.8025 11.5469 30.4998 12.6731 31.215ZM32.7228 43.7463C34.6176 42.5307 31.9478 43.2196 32.7228 43.7463ZM34.1689 44.3129C35.1188 43.5067 33.5702 44.1444 34.1689 44.3129ZM15.0229 32.0661C15.2966 31.663 14.3267 32.0137 15.0229 32.0661ZM33.8627 43.9285C34.7801 43.3369 33.6539 43.428 33.7002 43.9809L33.8627 43.9285ZM21.4149 36.0897C21.3824 35.6928 20.9262 36.1222 21.4149 36.0897ZM22.1836 36.5315C21.9361 36.0373 21.8061 36.6101 22.1836 36.5315ZM35.3401 44.3316C36.5125 43.4805 34.6239 44.1631 35.0926 44.4876L35.3401 44.3316ZM34.8913 44.1107C35.8488 43.3107 33.8752 44.4676 34.8913 44.1107ZM37.1887 45.6383C37.8336 45.209 36.4075 45.5022 37.1887 45.6383ZM15.6154 31.7741C16.4753 31.9688 19.0588 33.8932 17.5352 31.9101C16.754 31.6755 17.2227 29.771 16.4215 30.1092C16.9553 31.0003 16.864 31.3834 15.7441 30.8181C14.3317 30.1354 14.9504 31.1625 15.2229 31.4421C14.8517 31.527 15.7254 31.7666 15.6154 31.7741ZM11.6894 28.6802C11.8394 28.0437 10.2633 25.177 10.9407 27.2438C11.1882 27.6731 11.162 28.498 11.6894 28.6802ZM18.8901 33.1194C18.8701 33.0608 18.4476 32.7488 18.8901 33.1194ZM19.9838 33.3728C19.9838 32.6963 18.7789 33.0995 19.9838 33.3728ZM29.4555 39.3333C29.273 38.8715 28.7393 39.3208 29.4555 39.3333ZM29.9105 39.6653C29.8455 39.4057 29.6505 39.7102 29.9105 39.6653ZM33.6664 42.024C34.0239 41.7569 33.2177 41.9916 33.6664 42.024ZM13.6493 29.1807C14.6842 28.7776 12.5431 28.8949 13.6493 29.1807ZM28.6218 38.5982C28.6093 37.9293 27.9644 38.7667 28.6218 38.5982ZM13.2393 28.2309C13.903 28.0038 12.6268 28.0812 13.2393 28.2309ZM15.1654 29.1607C15.1529 28.9398 14.9642 29.2456 15.1654 29.1607ZM38.6473 43.5391C39.4997 43.3706 41.4471 43.9747 41.7595 43.312C40.7246 43.292 38.1723 42.5844 38.0548 43.4805L38.2823 43.5191L38.6473 43.5391ZM15.7778 29.3167C15.7903 28.6403 15.2504 29.2905 15.7778 29.3167ZM10.7132 25.8061C10.4858 24.5193 9.84081 25.6114 10.7132 25.8061ZM11.9244 26.1118C11.9369 25.6962 10.8182 25.7349 11.9244 26.1118ZM12.6143 26.45C12.4581 26.651 12.4131 26.2878 12.6143 26.45ZM16.949 29.2256C17.1577 29.0434 16.4678 29.0896 16.949 29.2256ZM12.1519 25.69C12.0344 24.7153 10.752 25.5402 12.1519 25.69ZM9.67833 24.0838C9.64583 23.6358 9.4371 24.2523 9.67833 24.0838ZM10.042 23.8042C9.9833 23.2713 9.72957 23.8691 10.042 23.8042ZM12.0806 25.0198C12.9406 24.6816 10.512 24.3172 11.9044 24.9549L12.0806 25.0198ZM39.2985 41.8031C39.8522 41.3027 38.6023 41.6471 39.2985 41.8031ZM42.592 43.5067C42.807 42.8564 42.032 43.5915 42.592 43.5067ZM12.2881 23.954C12.3794 23.3237 11.6044 24.0775 12.2881 23.954ZM9.3921 22.0171C9.23586 21.126 9.26211 19.566 10.7457 20.0926C8.75965 20.4895 12.1194 22.5562 11.6957 20.9251C12.5294 20.9637 13.3293 20.4308 12.8868 21.2433C14.5342 21.0611 15.6729 19.6384 17.2615 19.833C18.4989 19.6708 19.8525 19.5472 21.1874 19.053C22.2811 18.9682 23.336 17.7925 22.7373 17.0961C21.2399 16.9664 19.6775 17.1548 18.0239 17.4793C16.1941 17.8624 14.5342 18.5838 12.6856 18.8958C10.882 19.1367 13.0431 19.5585 12.5294 19.6558C11.5919 19.9803 13.6493 20.2025 12.4056 20.5394C11.6444 20.3959 10.8432 20.1301 11.1682 19.3239C9.44335 19.5448 7.92597 20.2661 9.29336 22.0146L9.3921 22.0171ZM13.5518 19.9042C13.9555 18.4153 15.7191 21.126 14.2155 20.0989C14.033 19.9691 13.7405 19.858 13.5518 19.9042ZM13.6293 19.1828C14.2092 18.7535 13.9355 19.4237 13.6293 19.1828ZM14.3717 19.1966C14.4242 18.5139 16.0641 19.561 14.6392 19.4437L14.3717 19.1966ZM15.3804 18.786C15.7516 18.3566 15.4916 19.1766 15.3804 18.786ZM15.6416 18.6175C16.2603 17.8762 19.1376 18.1432 17.0277 18.5463C16.4678 18.1233 16.0316 18.7934 15.6416 18.6175ZM19.3976 18.0384C21.2599 18.7598 19.3001 16.0166 19.3976 18.0384ZM20.4587 18.0322C20.8499 17.0113 21.9686 17.6228 20.6412 17.8237C20.6675 17.9348 20.6025 18.3504 20.4587 18.0322ZM11.8657 23.4336C13.0306 22.7185 10.6358 22.8158 11.8657 23.4336ZM12.7243 23.6744C13.1343 23.2389 11.8394 23.4922 12.7243 23.6744ZM10.192 21.8736C10.8557 21.3669 9.41085 21.6789 10.192 21.8736ZM44.5318 43.3245C44.5518 42.7329 44.0244 43.5915 44.5318 43.3245ZM41.0434 40.9457C41.1408 40.2631 40.5946 41.0044 41.0434 40.9457ZM45.4893 43.5516C46.4204 43.5516 48.3015 43.2658 46.2829 43.2658C45.9642 43.3182 44.4343 43.3045 45.4893 43.5516ZM13.4793 23.2526C14.2342 23.2002 14.6579 22.4277 13.3355 22.4726C11.2845 22.2579 15.1391 23.1677 13.0756 22.9082C12.7956 23.0904 13.4668 23.305 13.4793 23.2526ZM14.1442 23.5896C14.0655 23.1016 13.9092 23.8429 14.1442 23.5896ZM14.9254 21.4967C15.2579 21.0935 14.4767 21.3856 14.9254 21.4967ZM12.4256 17.3245C13.773 16.869 15.6091 16.3561 16.2403 17.5454C15.5954 16.7717 15.9803 16.0116 16.5915 17.1423C17.4515 18.293 17.8802 16.6219 17.3202 16.2388C17.9577 17.0312 18.6814 17.4019 17.7502 16.2837C18.7664 15.0681 15.7129 16.4459 15.0154 16.4334C14.6829 16.5832 11.5657 17.2259 12.4306 17.3245H12.4256ZM13.213 15.8219C13.9817 15.2428 15.8628 16.1601 14.6517 15.2428C14.5404 15.1455 12.0081 15.938 13.213 15.8219ZM16.0053 15.933C16.904 15.9592 15.6216 14.7374 16.689 15.289C16.5128 14.7174 15.4454 14.6064 14.9179 14.3792C14.6254 14.9059 15.5229 15.9392 16.0053 15.933ZM13.708 13.4045C14.0142 12.9889 13.1606 13.6192 13.708 13.4045ZM14.8467 13.6778C16.2853 13.4894 14.4754 13.0601 14.5542 13.6654L14.8467 13.6778ZM12.7181 12.013C11.7019 10.6863 14.6254 12.2401 13.5968 10.8498C12.7243 10.1609 11.8907 11.6298 12.7181 12.013ZM25.7571 19.0268C26.2258 18.2019 23.8297 17.9148 25.4446 18.7348C25.5946 18.7872 25.5558 19.0855 25.7571 19.0268Z" fill="white"/>
</g>
<defs>
<filter id="filter0_d_1_62" x="2.28571" y="2.28571" width="51.4286" height="51.4286" filterUnits="userSpaceOnUse" color-interpolation-filters="sRGB">
<feFlood flood-opacity="0" result="BackgroundImageFix"/>
<feColorMatrix in="SourceAlpha" type="matrix" values="0 0 0 0 0 0 0 0 0 0 0 0 0 0 0 0 0 0 127 0" result="hardAlpha"/>
<feOffset/>
<feGaussianBlur stdDeviation="2.85714"/>
<feComposite in2="hardAlpha" operator="out"/>
<feColorMatrix type="matrix" values="0 0 0 0 0 0 0 0 0 0 0 0 0 0 0 0 0 0 0.25 0"/>
<feBlend mode="normal" in2="BackgroundImageFix" result="effect1_dropShadow_1_62"/>
<feBlend mode="normal" in="SourceGraphic" in2="effect1_dropShadow_1_62" result="shape"/>
</filter>
<linearGradient id="paint0_linear_1_62" x1="28" y1="0" x2="28" y2="56" gradientUnits="userSpaceOnUse">
<stop stop-color="#292929"/>
<stop offset="0.0001" stop-color="#292929"/>
<stop offset="1"/>
</linearGradient>
</defs>
</svg>
