<svg width="167" height="40" viewBox="0 0 167 40" fill="none" xmlns="http://www.w3.org/2000/svg">
<rect width="167.001" height="40.0014" rx="8" fill="url(#paint0_linear_1_56)"/>
<rect x="1.07143" y="1.07143" width="164.859" height="37.8585" rx="6.92857" stroke="white" stroke-opacity="0.15" stroke-width="2.14286"/>
<g filter="url(#filter0_d_1_56)">
<path d="M34.3702 27C34.5659 26.6618 34.6875 26.2807 34.6875 25.9386V14.0613C34.6875 13.7192 34.5661 13.3382 34.3703 13L22.2188 20L34.3702 27Z" fill="#00599C"/>
<path d="M23.2986 33.7433L33.6077 27.8047C33.9047 27.6336 34.1746 27.3382 34.3702 27L22.2187 20L10.0673 27C10.2629 27.3382 10.5329 27.6337 10.8298 27.8047L21.1389 33.7433C21.7328 34.0855 22.7047 34.0855 23.2986 33.7433Z" fill="#004482"/>
<path d="M34.3703 13C34.1746 12.6617 33.9046 12.3663 33.6077 12.1952L23.2986 6.25662C22.7047 5.91446 21.7328 5.91446 21.1389 6.25662L10.8298 12.1952C10.2359 12.5373 9.75 13.3771 9.75 14.0613V25.9386C9.75 26.2807 9.87151 26.6618 10.0673 27L22.2187 20L34.3703 13Z" fill="#659AD2"/>
<path d="M22.2187 28.2939C17.6352 28.2939 13.9062 24.5733 13.9062 20C13.9062 15.4267 17.6352 11.7061 22.2187 11.7061C25.1764 11.7061 27.9347 13.2941 29.4173 15.8504L25.8199 17.9275C25.0778 16.648 23.6979 15.8531 22.2187 15.8531C19.9269 15.8531 18.0625 17.7133 18.0625 20C18.0625 22.2866 19.9269 24.1469 22.2187 24.1469C23.698 24.1469 25.078 23.352 25.8201 22.0722L29.4175 24.1492C27.935 26.7058 25.1765 28.2939 22.2187 28.2939Z" fill="white"/>
<path d="M30.5312 19.5392H29.6076V18.6177H28.6841V19.5392H27.7604V20.4607H28.6841V21.3823H29.6076V20.4607H30.5312V19.5392Z" fill="white"/>
<path d="M33.9948 19.5392H33.0711V18.6177H32.1476V19.5392H31.224V20.4607H32.1476V21.3823H33.0711V20.4607H33.9948V19.5392Z" fill="white"/>
</g>
<g filter="url(#filter1_d_1_56)">
<g filter="url(#filter2_d_1_56)">
<path d="M43.3597 26.5007V14.1371H47.8874C48.7648 14.1371 49.4912 14.282 50.0667 14.5717C50.6423 14.8575 51.0729 15.2458 51.3586 15.7369C51.6444 16.2238 51.7873 16.7732 51.7873 17.3849C51.7873 17.9001 51.6927 18.3347 51.5035 18.6889C51.3144 19.0391 51.0608 19.3208 50.7429 19.5341C50.429 19.7434 50.0828 19.8963 49.7045 19.9929V20.1136C50.115 20.1337 50.5155 20.2666 50.9059 20.5121C51.3003 20.7535 51.6263 21.0976 51.8839 21.5444C52.1414 21.9911 52.2702 22.5344 52.2702 23.1743C52.2702 23.8062 52.1213 24.3737 51.8235 24.8768C51.5297 25.3758 51.0749 25.7722 50.4591 26.066C49.8434 26.3558 49.0566 26.5007 48.0987 26.5007H43.3597ZM45.2251 24.9009H47.9176C48.8111 24.9009 49.451 24.7279 49.8373 24.3817C50.2237 24.0356 50.4169 23.603 50.4169 23.0838C50.4169 22.6934 50.3183 22.3352 50.1211 22.0092C49.9239 21.6832 49.6421 21.4236 49.2759 21.2305C48.9137 21.0373 48.483 20.9407 47.984 20.9407H45.2251V24.9009ZM45.2251 19.4858H47.7244C48.143 19.4858 48.5193 19.4053 48.8533 19.2443C49.1914 19.0833 49.459 18.8579 49.6562 18.5682C49.8575 18.2744 49.9581 17.9283 49.9581 17.5298C49.9581 17.0187 49.779 16.5901 49.4208 16.244C49.0626 15.8978 48.5132 15.7248 47.7727 15.7248H45.2251V19.4858ZM60.2118 22.6552V17.228H62.0229V26.5007H60.248V24.8949H60.1514C59.9381 25.3899 59.596 25.8024 59.1251 26.1324C58.6583 26.4584 58.0767 26.6214 57.3805 26.6214C56.7848 26.6214 56.2576 26.4906 55.7988 26.229C55.344 25.9634 54.9858 25.571 54.7242 25.0518C54.4667 24.5327 54.3379 23.8907 54.3379 23.1261V17.228H56.1429V22.9087C56.1429 23.5406 56.318 24.0437 56.6681 24.418C57.0183 24.7922 57.473 24.9794 58.0325 24.9794C58.3705 24.9794 58.7066 24.8949 59.0406 24.7258C59.3787 24.5568 59.6584 24.3012 59.8798 23.9591C60.1051 23.6171 60.2158 23.1824 60.2118 22.6552ZM64.4482 26.5007V17.228H66.2533V26.5007H64.4482ZM65.3598 15.7972C65.0459 15.7972 64.7762 15.6926 64.5508 15.4833C64.3295 15.27 64.2188 15.0164 64.2188 14.7226C64.2188 14.4248 64.3295 14.1713 64.5508 13.962C64.7762 13.7487 65.0459 13.642 65.3598 13.642C65.6737 13.642 65.9413 13.7487 66.1627 13.962C66.3881 14.1713 66.5008 14.4248 66.5008 14.7226C66.5008 15.0164 66.3881 15.27 66.1627 15.4833C65.9413 15.6926 65.6737 15.7972 65.3598 15.7972ZM70.4867 14.1371V26.5007H68.6816V14.1371H70.4867ZM77.2435 17.228V18.6768H72.1785V17.228H77.2435ZM73.5368 15.0064H75.3419V23.778C75.3419 24.1282 75.3942 24.3918 75.4988 24.5689C75.6035 24.7419 75.7383 24.8607 75.9033 24.9251C76.0723 24.9854 76.2554 25.0156 76.4526 25.0156C76.5975 25.0156 76.7243 25.0056 76.833 24.9854C76.9416 24.9653 77.0262 24.9492 77.0865 24.9371L77.4125 26.4283C77.3079 26.4685 77.159 26.5087 76.9658 26.549C76.7726 26.5933 76.5311 26.6174 76.2414 26.6214C75.7664 26.6295 75.3237 26.545 74.9132 26.3679C74.5027 26.1908 74.1707 25.9171 73.9171 25.5469C73.6636 25.1766 73.5368 24.7118 73.5368 24.1523V15.0064ZM85.7495 26.5007L83.0208 17.228H84.8862L86.7034 24.0376H86.7939L88.6171 17.228H90.4825L92.2936 24.0074H92.3841L94.1891 17.228H96.0546L93.3319 26.5007H91.4906L89.6071 19.8057H89.4683L87.5847 26.5007H85.7495ZM97.7675 26.5007V17.228H99.5726V26.5007H97.7675ZM98.6791 15.7972C98.3652 15.7972 98.0955 15.6926 97.8702 15.4833C97.6488 15.27 97.5381 15.0164 97.5381 14.7226C97.5381 14.4248 97.6488 14.1713 97.8702 13.962C98.0955 13.7487 98.3652 13.642 98.6791 13.642C98.993 13.642 99.2607 13.7487 99.482 13.962C99.7074 14.1713 99.8201 14.4248 99.8201 14.7226C99.8201 15.0164 99.7074 15.27 99.482 15.4833C99.2607 15.6926 98.993 15.7972 98.6791 15.7972ZM106.329 17.228V18.6768H101.264V17.228H106.329ZM102.623 15.0064H104.428V23.778C104.428 24.1282 104.48 24.3918 104.585 24.5689C104.689 24.7419 104.824 24.8607 104.989 24.9251C105.158 24.9854 105.341 25.0156 105.539 25.0156C105.683 25.0156 105.81 25.0056 105.919 24.9854C106.028 24.9653 106.112 24.9492 106.172 24.9371L106.498 26.4283C106.394 26.4685 106.245 26.5087 106.052 26.549C105.859 26.5933 105.617 26.6174 105.327 26.6214C104.852 26.6295 104.41 26.545 103.999 26.3679C103.589 26.1908 103.257 25.9171 103.003 25.5469C102.75 25.1766 102.623 24.7118 102.623 24.1523V15.0064ZM110.33 20.995V26.5007H108.525V14.1371H110.306V18.7372H110.421C110.638 18.2382 110.97 17.8417 111.417 17.5479C111.864 17.2541 112.447 17.1072 113.168 17.1072C113.804 17.1072 114.359 17.238 114.834 17.4996C115.313 17.7612 115.683 18.1516 115.945 18.6708C116.21 19.1859 116.343 19.8299 116.343 20.6026V26.5007H114.538V20.8199C114.538 20.1398 114.363 19.6126 114.013 19.2383C113.663 18.86 113.176 18.6708 112.552 18.6708C112.125 18.6708 111.743 18.7614 111.405 18.9425C111.071 19.1236 110.807 19.3892 110.614 19.7393C110.425 20.0855 110.33 20.504 110.33 20.995Z" fill="#E8E8E8"/>
</g>
<path d="M134.16 18.1165H131.141C131.101 17.8066 131.019 17.5269 130.894 17.2773C130.769 17.0278 130.604 16.8145 130.399 16.6374C130.193 16.4603 129.95 16.3255 129.668 16.2329C129.391 16.1364 129.083 16.0881 128.745 16.0881C128.145 16.0881 127.628 16.235 127.193 16.5288C126.762 16.8226 126.43 17.2471 126.197 17.8025C125.968 18.3579 125.853 19.0301 125.853 19.8189C125.853 20.6399 125.97 21.3281 126.203 21.8835C126.441 22.4349 126.773 22.8514 127.199 23.1332C127.63 23.4109 128.139 23.5497 128.727 23.5497C129.057 23.5497 129.356 23.5074 129.626 23.4229C129.9 23.3384 130.139 23.2157 130.344 23.0547C130.554 22.8897 130.725 22.6904 130.858 22.457C130.994 22.2196 131.089 21.9519 131.141 21.6541L134.16 21.6722C134.107 22.2196 133.948 22.7589 133.683 23.2901C133.421 23.8214 133.061 24.3063 132.602 24.745C132.143 25.1797 131.584 25.5258 130.924 25.7834C130.268 26.0409 129.515 26.1697 128.666 26.1697C127.547 26.1697 126.545 25.9242 125.66 25.4332C124.778 24.9382 124.082 24.2178 123.571 23.272C123.06 22.3262 122.804 21.1752 122.804 19.8189C122.804 18.4586 123.064 17.3055 123.583 16.3597C124.102 15.4139 124.805 14.6955 125.69 14.2045C126.575 13.7135 127.567 13.468 128.666 13.468C129.415 13.468 130.107 13.5727 130.743 13.782C131.379 13.9872 131.938 14.2891 132.421 14.6875C132.904 15.0819 133.296 15.5669 133.598 16.1424C133.9 16.7179 134.087 17.3759 134.16 18.1165ZM139.552 24.2138V15.4723H141.985V24.2138H139.552ZM136.395 21.0625V18.6236H145.136V21.0625H136.395ZM151.223 24.2138V15.4723H153.656V24.2138H151.223ZM148.066 21.0625V18.6236H156.807V21.0625H148.066Z" fill="#93B8DF"/>
</g>
<defs>
<filter id="filter0_d_1_56" x="2.39972" y="0.39972" width="39.202" height="39.202" filterUnits="userSpaceOnUse" color-interpolation-filters="sRGB">
<feFlood flood-opacity="0" result="BackgroundImageFix"/>
<feColorMatrix in="SourceAlpha" type="matrix" values="0 0 0 0 0 0 0 0 0 0 0 0 0 0 0 0 0 0 127 0" result="hardAlpha"/>
<feOffset/>
<feGaussianBlur stdDeviation="2.80014"/>
<feComposite in2="hardAlpha" operator="out"/>
<feColorMatrix type="matrix" values="0 0 0 0 0 0 0 0 0 0 0 0 0 0 0 0 0 0 0.25 0"/>
<feBlend mode="normal" in2="BackgroundImageFix" result="effect1_dropShadow_1_56"/>
<feBlend mode="normal" in="SourceGraphic" in2="effect1_dropShadow_1_56" result="shape"/>
</filter>
<filter id="filter1_d_1_56" x="36.2871" y="3.78642" width="128.429" height="32.4286" filterUnits="userSpaceOnUse" color-interpolation-filters="sRGB">
<feFlood flood-opacity="0" result="BackgroundImageFix"/>
<feColorMatrix in="SourceAlpha" type="matrix" values="0 0 0 0 0 0 0 0 0 0 0 0 0 0 0 0 0 0 127 0" result="hardAlpha"/>
<feOffset/>
<feGaussianBlur stdDeviation="2.85714"/>
<feComposite in2="hardAlpha" operator="out"/>
<feColorMatrix type="matrix" values="0 0 0 0 0 0 0 0 0 0 0 0 0 0 0 0 0 0 0.25 0"/>
<feBlend mode="normal" in2="BackgroundImageFix" result="effect1_dropShadow_1_56"/>
<feBlend mode="normal" in="SourceGraphic" in2="effect1_dropShadow_1_56" result="shape"/>
</filter>
<filter id="filter2_d_1_56" x="39.3597" y="13.642" width="80.9835" height="20.9915" filterUnits="userSpaceOnUse" color-interpolation-filters="sRGB">
<feFlood flood-opacity="0" result="BackgroundImageFix"/>
<feColorMatrix in="SourceAlpha" type="matrix" values="0 0 0 0 0 0 0 0 0 0 0 0 0 0 0 0 0 0 127 0" result="hardAlpha"/>
<feOffset dy="4"/>
<feGaussianBlur stdDeviation="2"/>
<feComposite in2="hardAlpha" operator="out"/>
<feColorMatrix type="matrix" values="0 0 0 0 0 0 0 0 0 0 0 0 0 0 0 0 0 0 0.25 0"/>
<feBlend mode="normal" in2="BackgroundImageFix" result="effect1_dropShadow_1_56"/>
<feBlend mode="normal" in="SourceGraphic" in2="effect1_dropShadow_1_56" result="shape"/>
</filter>
<linearGradient id="paint0_linear_1_56" x1="83.5007" y1="0" x2="83.5007" y2="40.0014" gradientUnits="userSpaceOnUse">
<stop stop-color="#316BA8"/>
<stop offset="1" stop-color="#00305B"/>
</linearGradient>
</defs>
</svg>
