<svg width="144" height="56" viewBox="0 0 144 56" fill="none" xmlns="http://www.w3.org/2000/svg">
<rect width="144" height="56" rx="8" fill="url(#paint0_linear_1_50)"/>
<rect x="1.05" y="1.05" width="141.9" height="53.9" rx="6.95" stroke="white" stroke-opacity="0.15" stroke-width="2.1"/>
<g filter="url(#filter0_d_1_50)">
<path d="M49.6718 37.9999C49.9513 37.5168 50.125 36.9725 50.125 36.4837V19.5162C50.125 19.0274 49.9515 18.4832 49.6719 18.0001L32.3125 28L49.6718 37.9999Z" fill="#00599C"/>
<path d="M33.8551 47.6333L48.5824 39.1496C49.0067 38.9052 49.3922 38.4832 49.6718 37.9999L32.3125 28L14.9532 38.0001C15.2328 38.4832 15.6185 38.9053 16.0426 39.1496L30.7699 47.6333C31.6183 48.1221 33.0067 48.1221 33.8551 47.6333Z" fill="#004482"/>
<path d="M49.6719 17.9999C49.3922 17.5167 49.0065 17.0947 48.5824 16.8503L33.8551 8.3666C33.0067 7.8778 31.6183 7.8778 30.7699 8.3666L16.0426 16.8503C15.1941 17.339 14.5 18.5387 14.5 19.5162V36.4837C14.5 36.9725 14.6736 37.5168 14.9532 37.9999L32.3125 28L49.6719 17.9999Z" fill="#659AD2"/>
<path d="M32.3125 39.8484C25.7646 39.8484 20.4375 34.5332 20.4375 28C20.4375 21.4668 25.7646 16.1516 32.3125 16.1516C36.5377 16.1516 40.4782 18.4202 42.5961 22.0721L37.4569 25.0393C36.3969 23.2114 34.4256 22.0758 32.3125 22.0758C29.0385 22.0758 26.375 24.7333 26.375 28C26.375 31.2666 29.0385 33.9242 32.3125 33.9242C34.4258 33.9242 36.3971 32.7886 37.4573 30.9604L42.5965 33.9275C40.4785 37.5797 36.5379 39.8484 32.3125 39.8484Z" fill="white"/>
<path d="M44.1875 27.3417H42.868V26.0253H41.5487V27.3417H40.2292V28.6582H41.5487V29.9747H42.868V28.6582H44.1875V27.3417Z" fill="white"/>
<path d="M49.1354 27.3417H47.8159V26.0253H46.4966V27.3417H45.1771V28.6582H46.4966V29.9747H47.8159V28.6582H49.1354V27.3417Z" fill="white"/>
</g>
<g filter="url(#filter1_d_1_50)">
<path d="M61.2784 24.5V12.8636H65.5398C66.3655 12.8636 67.0492 13 67.5909 13.2727C68.1326 13.5417 68.5379 13.9072 68.8068 14.3693C69.0757 14.8276 69.2102 15.3447 69.2102 15.9204C69.2102 16.4053 69.1212 16.8144 68.9432 17.1477C68.7651 17.4773 68.5265 17.7424 68.2273 17.9432C67.9318 18.1401 67.606 18.2841 67.25 18.375V18.4886C67.6363 18.5076 68.0132 18.6326 68.3807 18.8636C68.7519 19.0909 69.0587 19.4148 69.3011 19.8352C69.5435 20.2557 69.6648 20.767 69.6648 21.3693C69.6648 21.964 69.5246 22.4981 69.2443 22.9716C68.9678 23.4413 68.5398 23.8144 67.9602 24.0909C67.3807 24.3636 66.6401 24.5 65.7386 24.5H61.2784ZM63.0341 22.9943H65.5682C66.4091 22.9943 67.0113 22.8314 67.375 22.5057C67.7386 22.1799 67.9204 21.7727 67.9204 21.2841C67.9204 20.9167 67.8276 20.5795 67.642 20.2727C67.4564 19.9659 67.1913 19.7216 66.8466 19.5398C66.5057 19.3579 66.1004 19.267 65.6307 19.267H63.0341V22.9943ZM63.0341 17.8977H65.3863C65.7803 17.8977 66.1345 17.822 66.4488 17.6704C66.767 17.5189 67.0189 17.3068 67.2045 17.0341C67.3939 16.7576 67.4886 16.4318 67.4886 16.0568C67.4886 15.5758 67.3201 15.1723 66.9829 14.8466C66.6458 14.5208 66.1288 14.3579 65.4318 14.3579H63.0341V17.8977ZM77.1392 20.8807V15.7727H78.8437V24.5H77.1733V22.9886H77.0824C76.8816 23.4545 76.5596 23.8428 76.1165 24.1534C75.6771 24.4602 75.1297 24.6136 74.4744 24.6136C73.9138 24.6136 73.4176 24.4905 72.9858 24.2443C72.5577 23.9943 72.2206 23.625 71.9744 23.1364C71.732 22.6477 71.6108 22.0436 71.6108 21.3239V15.7727H73.3096V21.1193C73.3096 21.714 73.4744 22.1875 73.804 22.5398C74.1335 22.892 74.5615 23.0682 75.088 23.0682C75.4062 23.0682 75.7225 22.9886 76.0369 22.8295C76.3551 22.6704 76.6184 22.4299 76.8267 22.1079C77.0388 21.786 77.143 21.3769 77.1392 20.8807ZM81.1264 24.5V15.7727H82.8253V24.5H81.1264ZM81.9844 14.4261C81.6889 14.4261 81.4351 14.3276 81.223 14.1307C81.0147 13.9299 80.9105 13.6913 80.9105 13.4148C80.9105 13.1345 81.0147 12.8958 81.223 12.6989C81.4351 12.4981 81.6889 12.3977 81.9844 12.3977C82.2798 12.3977 82.5317 12.4981 82.74 12.6989C82.9522 12.8958 83.0582 13.1345 83.0582 13.4148C83.0582 13.6913 82.9522 13.9299 82.74 14.1307C82.5317 14.3276 82.2798 14.4261 81.9844 14.4261ZM86.8096 12.8636V24.5H85.1108V12.8636H86.8096ZM93.169 15.7727V17.1364H88.402V15.7727H93.169ZM89.6804 13.6818H91.3792V21.9375C91.3792 22.267 91.4285 22.5151 91.527 22.6818C91.6254 22.8447 91.7523 22.9564 91.9076 23.017C92.0667 23.0739 92.2391 23.1023 92.4247 23.1023C92.5611 23.1023 92.6804 23.0928 92.7826 23.0739C92.8849 23.0549 92.9645 23.0398 93.0213 23.0284L93.3281 24.4318C93.2296 24.4697 93.0895 24.5076 92.9076 24.5454C92.7258 24.5871 92.4986 24.6098 92.2258 24.6136C91.7789 24.6212 91.3622 24.5417 90.9758 24.375C90.5895 24.2083 90.277 23.9508 90.0383 23.6023C89.7997 23.2538 89.6804 22.8163 89.6804 22.2898V13.6818ZM101.175 24.5L98.6065 15.7727H100.362L102.072 22.1818H102.158L103.874 15.7727H105.629L107.334 22.1534H107.419L109.118 15.7727H110.874L108.311 24.5H106.578L104.805 18.1989H104.675L102.902 24.5H101.175ZM112.486 24.5V15.7727H114.185V24.5H112.486ZM113.344 14.4261C113.048 14.4261 112.794 14.3276 112.582 14.1307C112.374 13.9299 112.27 13.6913 112.27 13.4148C112.27 13.1345 112.374 12.8958 112.582 12.6989C112.794 12.4981 113.048 12.3977 113.344 12.3977C113.639 12.3977 113.891 12.4981 114.099 12.6989C114.312 12.8958 114.418 13.1345 114.418 13.4148C114.418 13.6913 114.312 13.9299 114.099 14.1307C113.891 14.3276 113.639 14.4261 113.344 14.4261ZM120.544 15.7727V17.1364H115.777V15.7727H120.544ZM117.055 13.6818H118.754V21.9375C118.754 22.267 118.803 22.5151 118.902 22.6818C119 22.8447 119.127 22.9564 119.283 23.017C119.442 23.0739 119.614 23.1023 119.8 23.1023C119.936 23.1023 120.055 23.0928 120.158 23.0739C120.26 23.0549 120.339 23.0398 120.396 23.0284L120.703 24.4318C120.605 24.4697 120.464 24.5076 120.283 24.5454C120.101 24.5871 119.874 24.6098 119.601 24.6136C119.154 24.6212 118.737 24.5417 118.351 24.375C117.964 24.2083 117.652 23.9508 117.413 23.6023C117.175 23.2538 117.055 22.8163 117.055 22.2898V13.6818ZM124.31 19.3182V24.5H122.611V12.8636H124.287V17.1932H124.395C124.599 16.7235 124.912 16.3504 125.332 16.0739C125.753 15.7973 126.302 15.6591 126.98 15.6591C127.579 15.6591 128.101 15.7822 128.548 16.0284C128.999 16.2746 129.348 16.642 129.594 17.1307C129.844 17.6155 129.969 18.2216 129.969 18.9489V24.5H128.27V19.1534C128.27 18.5133 128.105 18.017 127.776 17.6648C127.446 17.3087 126.988 17.1307 126.401 17.1307C125.999 17.1307 125.639 17.2159 125.321 17.3864C125.007 17.5568 124.758 17.8068 124.577 18.1364C124.399 18.4621 124.31 18.8561 124.31 19.3182Z" fill="#E8E8E8"/>
<path d="M72.1584 35.6158H69.1399C69.0997 35.3059 69.0171 35.0261 68.8924 34.7766C68.7676 34.5271 68.6026 34.3138 68.3974 34.1367C68.1921 33.9596 67.9486 33.8248 67.6669 33.7322C67.3892 33.6356 67.0813 33.5873 66.7432 33.5873C66.1436 33.5873 65.6264 33.7342 65.1917 34.028C64.7611 34.3218 64.4291 34.7464 64.1957 35.3018C63.9662 35.8572 63.8515 36.5293 63.8515 37.3182C63.8515 38.1392 63.9683 38.8274 64.2017 39.3828C64.4391 39.9342 64.7712 40.3507 65.1978 40.6324C65.6284 40.9101 66.1375 41.049 66.7251 41.049C67.0551 41.049 67.355 41.0067 67.6246 40.9222C67.8983 40.8377 68.1378 40.715 68.343 40.554C68.5523 40.389 68.7233 40.1897 68.8562 39.9563C68.993 39.7189 69.0876 39.4512 69.1399 39.1534L72.1584 39.1715C72.106 39.7189 71.9471 40.2582 71.6814 40.7894C71.4198 41.3207 71.0596 41.8056 70.6008 42.2443C70.142 42.679 69.5826 43.0251 68.9226 43.2827C68.2666 43.5402 67.514 43.669 66.6648 43.669C65.5459 43.669 64.5438 43.4235 63.6584 42.9325C62.777 42.4375 62.0807 41.7171 61.5696 40.7713C61.0585 39.8255 60.8029 38.6745 60.8029 37.3182C60.8029 35.9578 61.0625 34.8048 61.5817 33.859C62.1008 32.9132 62.8031 32.1948 63.6885 31.7038C64.574 31.2128 65.566 30.9673 66.6648 30.9673C67.4133 30.9673 68.1056 31.072 68.7415 31.2812C69.3773 31.4865 69.9368 31.7883 70.4197 32.1868C70.9027 32.5812 71.2951 33.0662 71.5969 33.6417C71.8988 34.2172 72.0859 34.8752 72.1584 35.6158ZM77.5508 41.7131V32.9716H79.9837V41.7131H77.5508ZM74.3935 38.5618V36.1229H83.135V38.5618H74.3935ZM89.2217 41.7131V32.9716H91.6546V41.7131H89.2217ZM86.0644 38.5618V36.1229H94.8059V38.5618H86.0644Z" fill="#93B8DF"/>
</g>
<defs>
<filter id="filter0_d_1_50" x="6.28571" y="2.28571" width="51.4286" height="51.4286" filterUnits="userSpaceOnUse" color-interpolation-filters="sRGB">
<feFlood flood-opacity="0" result="BackgroundImageFix"/>
<feColorMatrix in="SourceAlpha" type="matrix" values="0 0 0 0 0 0 0 0 0 0 0 0 0 0 0 0 0 0 127 0" result="hardAlpha"/>
<feOffset/>
<feGaussianBlur stdDeviation="2.85714"/>
<feComposite in2="hardAlpha" operator="out"/>
<feColorMatrix type="matrix" values="0 0 0 0 0 0 0 0 0 0 0 0 0 0 0 0 0 0 0.25 0"/>
<feBlend mode="normal" in2="BackgroundImageFix" result="effect1_dropShadow_1_50"/>
<feBlend mode="normal" in="SourceGraphic" in2="effect1_dropShadow_1_50" result="shape"/>
</filter>
<filter id="filter1_d_1_50" x="54.4" y="3.9" width="83.2" height="48.2" filterUnits="userSpaceOnUse" color-interpolation-filters="sRGB">
<feFlood flood-opacity="0" result="BackgroundImageFix"/>
<feColorMatrix in="SourceAlpha" type="matrix" values="0 0 0 0 0 0 0 0 0 0 0 0 0 0 0 0 0 0 127 0" result="hardAlpha"/>
<feOffset/>
<feGaussianBlur stdDeviation="2.8"/>
<feComposite in2="hardAlpha" operator="out"/>
<feColorMatrix type="matrix" values="0 0 0 0 0 0 0 0 0 0 0 0 0 0 0 0 0 0 0.25 0"/>
<feBlend mode="normal" in2="BackgroundImageFix" result="effect1_dropShadow_1_50"/>
<feBlend mode="normal" in="SourceGraphic" in2="effect1_dropShadow_1_50" result="shape"/>
</filter>
<linearGradient id="paint0_linear_1_50" x1="72" y1="0" x2="72" y2="56" gradientUnits="userSpaceOnUse">
<stop stop-color="#316BA8"/>
<stop offset="1" stop-color="#00305B"/>
</linearGradient>
</defs>
</svg>
