<svg width="56" height="56" viewBox="0 0 56 56" fill="none" xmlns="http://www.w3.org/2000/svg">
<rect width="56" height="56" rx="8.4" fill="url(#paint0_linear_1_62)"/>
<rect x="1.05" y="1.05" width="53.9" height="53.9" rx="7.35" stroke="white" stroke-opacity="0.15" stroke-width="2.1"/>
<g filter="url(#filter0_d_1_62)">
<path d="M45.6718 37.9999C45.9513 37.5168 46.125 36.9725 46.125 36.4837V19.5162C46.125 19.0274 45.9515 18.4832 45.6719 18.0001L28.3125 28L45.6718 37.9999Z" fill="#00599C"/>
<path d="M29.8551 47.6333L44.5824 39.1496C45.0067 38.9052 45.3922 38.4832 45.6718 37.9999L28.3125 28L10.9532 38.0001C11.2328 38.4832 11.6185 38.9053 12.0426 39.1496L26.7699 47.6333C27.6183 48.1221 29.0067 48.1221 29.8551 47.6333Z" fill="#004482"/>
<path d="M45.6719 17.9999C45.3922 17.5167 45.0065 17.0947 44.5824 16.8503L29.8551 8.3666C29.0067 7.8778 27.6183 7.8778 26.7699 8.3666L12.0426 16.8503C11.1941 17.339 10.5 18.5387 10.5 19.5162V36.4837C10.5 36.9725 10.6736 37.5168 10.9532 37.9999L28.3125 28L45.6719 17.9999Z" fill="#659AD2"/>
<path d="M28.3125 39.8484C21.7646 39.8484 16.4375 34.5332 16.4375 28C16.4375 21.4668 21.7646 16.1516 28.3125 16.1516C32.5377 16.1516 36.4782 18.4202 38.5961 22.0721L33.4569 25.0393C32.3969 23.2114 30.4256 22.0758 28.3125 22.0758C25.0385 22.0758 22.375 24.7333 22.375 28C22.375 31.2666 25.0385 33.9242 28.3125 33.9242C30.4258 33.9242 32.3971 32.7886 33.4573 30.9604L38.5965 33.9275C36.4785 37.5797 32.5379 39.8484 28.3125 39.8484Z" fill="white"/>
<path d="M40.1875 27.3417H38.868V26.0253H37.5487V27.3417H36.2292V28.6582H37.5487V29.9747H38.868V28.6582H40.1875V27.3417Z" fill="white"/>
<path d="M45.1354 27.3417H43.8159V26.0253H42.4966V27.3417H41.1771V28.6582H42.4966V29.9747H43.8159V28.6582H45.1354V27.3417Z" fill="white"/>
</g>
<defs>
<filter id="filter0_d_1_62" x="2.28571" y="2.28571" width="51.4286" height="51.4286" filterUnits="userSpaceOnUse" color-interpolation-filters="sRGB">
<feFlood flood-opacity="0" result="BackgroundImageFix"/>
<feColorMatrix in="SourceAlpha" type="matrix" values="0 0 0 0 0 0 0 0 0 0 0 0 0 0 0 0 0 0 127 0" result="hardAlpha"/>
<feOffset/>
<feGaussianBlur stdDeviation="2.85714"/>
<feComposite in2="hardAlpha" operator="out"/>
<feColorMatrix type="matrix" values="0 0 0 0 0 0 0 0 0 0 0 0 0 0 0 0 0 0 0.25 0"/>
<feBlend mode="normal" in2="BackgroundImageFix" result="effect1_dropShadow_1_62"/>
<feBlend mode="normal" in="SourceGraphic" in2="effect1_dropShadow_1_62" result="shape"/>
</filter>
<linearGradient id="paint0_linear_1_62" x1="28" y1="0" x2="28" y2="56" gradientUnits="userSpaceOnUse">
<stop stop-color="#316BA8"/>
<stop stop-color="#5B4000"/>
<stop offset="0.0001" stop-color="#292929"/>
<stop offset="0.0002" stop-color="#5B4000"/>
<stop offset="0.0003" stop-color="#316BA8"/>
<stop offset="0.9998" stop-color="#00305B"/>
<stop offset="0.9999" stop-color="#0B3C42"/>
<stop offset="1" stop-color="#3B5368"/>
</linearGradient>
</defs>
</svg>
