<svg width="40" height="40" viewBox="0 0 40 40" fill="none" xmlns="http://www.w3.org/2000/svg">
<rect width="40" height="40" rx="8" fill="url(#paint0_linear_1_68)"/>
<rect x="1.05" y="1.05" width="37.9" height="37.9" rx="6.95" stroke="white" stroke-opacity="0.15" stroke-width="2.1"/>
<g filter="url(#filter0_d_1_68)">
<path fill-rule="evenodd" clip-rule="evenodd" d="M18.5153 10.9429C18.594 8.44522 17.7526 6.97271 15.3338 6C14.6463 8.40481 17.4846 10.6221 18.5153 10.9429Z" fill="#D1D3D4" stroke="black" stroke-width="0.5" stroke-linejoin="round"/>
<path fill-rule="evenodd" clip-rule="evenodd" d="M25.0747 15.1757C25.1534 13.1248 24.6355 12.297 24.2467 11.7051C23.8522 11.153 22.9058 10.2853 21.743 10.2489C20.6433 10.2144 20.3788 10.8223 19.3643 10.859C19.198 9.0116 20.5922 7.99784 20.5922 7.99784C20.5922 7.99784 20.211 7.45901 19.8956 7.32735C19.4419 7.7305 18.1933 9.07519 18.4822 10.8056C17.5487 10.6271 16.8898 10.0929 15.9093 10.2858C14.5734 10.5487 13.4722 11.3563 12.8446 13.1286C12.2171 14.901 13.0661 16.9687 13.2507 17.5592C13.4354 18.1503 14.8016 20.6606 15.8724 21.03C16.9429 21.3996 16.9432 21.233 17.5156 21.0116C18.088 20.7901 18.9554 20.384 20.2296 20.8456C21.503 21.307 21.6692 21.4176 22.4628 20.9008C23.257 20.3841 24.2906 18.778 24.5304 18.3164C24.7704 17.855 24.8997 17.6149 24.9738 17.375C25.7454 16.9899 25.0039 17.0137 25.0747 15.1757Z" fill="#D1D3D4" stroke="black" stroke-width="0.5" stroke-linejoin="round"/>
<path d="M27.1475 30.1646C27.3994 30.1655 27.649 30.1166 27.882 30.0208C28.115 29.9251 28.3268 29.7842 28.5053 29.6064C28.6838 29.4286 28.8254 29.2173 28.922 28.9847C29.0186 28.752 29.0684 28.5026 29.0684 28.2506C29.0686 26.3074 29.0686 23.3047 29.0686 21.3562C29.0686 20.8485 28.867 20.3616 28.508 20.0027C28.149 19.6437 27.6621 19.442 27.1545 19.442H25.5766C25.4638 19.442 25.3556 19.3972 25.2758 19.3174C25.196 19.2377 25.1512 19.1295 25.1512 19.0167V18.0139H12.706L12.7374 32.7117C12.7376 32.783 12.7557 32.8532 12.79 32.9157C12.8244 32.9783 12.874 33.0311 12.9341 33.0695C13.4884 33.3904 15.2653 34 18.996 34C22.8057 34 24.5087 33.1839 24.9963 32.8155C25.0441 32.7758 25.0826 32.726 25.1091 32.6697C25.1355 32.6134 25.1492 32.552 25.1492 32.4898C25.1512 32.0831 25.1512 31.1406 25.1512 30.5838C25.1512 30.5272 25.1625 30.4711 25.1844 30.4189C25.2063 30.3668 25.2385 30.3195 25.2789 30.2799C25.3193 30.2403 25.3673 30.2091 25.4199 30.1883C25.4725 30.1674 25.5288 30.1573 25.5854 30.1585C26.0534 30.1651 26.6142 30.1661 27.1475 30.1646ZM25.1512 21.6779C25.1512 21.5369 25.2072 21.4016 25.3069 21.3018C25.4067 21.2022 25.5419 21.1462 25.6829 21.1462H27.0375C27.1785 21.1462 27.3138 21.2022 27.4135 21.3018C27.5132 21.4016 27.5692 21.5368 27.5692 21.6779V27.8654C27.5692 28.0064 27.5132 28.1416 27.4135 28.2414C27.3138 28.341 27.1785 28.397 27.0375 28.3971H25.6829C25.5419 28.397 25.4067 28.341 25.3069 28.2414C25.2072 28.1416 25.1512 28.0064 25.1512 27.8654V21.6779Z" fill="white" stroke="black" stroke-width="0.5" stroke-linejoin="round"/>
<path fill-rule="evenodd" clip-rule="evenodd" d="M13.9329 17.8905V31.0754C13.9329 31.2276 14.0141 31.3681 14.1459 31.4441C14.6841 31.7006 16.2454 32.3128 18.9827 32.3128C21.7383 32.3128 23.2532 31.5689 23.7605 31.2623C23.8201 31.2239 23.8691 31.1712 23.903 31.1089C23.937 31.0467 23.9548 30.9769 23.9548 30.906C23.9559 29.1576 23.9559 17.8905 23.9559 17.8905H13.9329Z" fill="#FBB040"/>
<path d="M15.4062 20.1237V30.3129" stroke="#FFDB96" stroke-width="0.5" stroke-linecap="round"/>
<path fill-rule="evenodd" clip-rule="evenodd" d="M21.0691 20.5962C21.0691 20.3835 20.9439 20.1295 20.7383 20.002C20.4013 19.7977 20.1417 19.4872 20.0001 19.1194C17.2787 19.2109 14.7948 18.733 13.5435 18.3956C13.2222 18.3046 12.8967 18.229 12.5682 18.1691C11.8192 18.0206 11.25 17.3628 11.25 16.5721C11.25 15.7017 11.9406 14.9944 12.8034 14.9634C12.9699 14.0428 13.7734 13.344 14.7419 13.344C15.8311 13.344 16.7139 14.227 16.7139 15.3161C16.7139 15.5452 16.6726 15.7646 16.6008 15.9694L16.6066 15.9704C16.8499 15.2097 17.5619 14.6586 18.4034 14.6586C19.2395 14.6586 19.9477 15.2032 20.195 15.9568C20.1879 15.888 20.1843 15.8189 20.1843 15.7497C20.1843 14.617 21.1025 13.6988 22.235 13.6988C23.1519 13.6988 23.9279 14.3006 24.1904 15.1304L24.3692 15.0838C24.6102 14.9474 24.8825 14.8758 25.1595 14.8759C26.0495 14.8759 26.771 15.5975 26.7707 16.4872C26.7707 17.3024 26.1655 17.9761 25.3798 18.0836C25.2019 18.1088 25.0274 18.1541 24.8597 18.2187C24.3928 18.3947 23.9153 18.5406 23.4329 18.6609C23.4095 18.893 23.3406 19.1182 23.2299 19.3236C23.0343 19.6907 22.9465 20.1057 22.9768 20.5207C22.9766 20.5457 22.9776 20.6772 22.9776 20.7025C22.9776 21.2295 22.5505 21.5503 22.0231 21.5503C21.8978 21.5503 21.7737 21.5256 21.658 21.4776C21.5422 21.4297 21.437 21.3594 21.3484 21.2708C21.2599 21.1822 21.1896 21.077 21.1417 20.9613C21.0937 20.8455 21.0691 20.7214 21.0691 20.5962Z" fill="white" stroke="black" stroke-width="0.5" stroke-linecap="round" stroke-linejoin="round"/>
</g>
<defs>
<filter id="filter0_d_1_68" x="2" y="1.75" width="36" height="36.5" filterUnits="userSpaceOnUse" color-interpolation-filters="sRGB">
<feFlood flood-opacity="0" result="BackgroundImageFix"/>
<feColorMatrix in="SourceAlpha" type="matrix" values="0 0 0 0 0 0 0 0 0 0 0 0 0 0 0 0 0 0 127 0" result="hardAlpha"/>
<feOffset/>
<feGaussianBlur stdDeviation="2"/>
<feComposite in2="hardAlpha" operator="out"/>
<feColorMatrix type="matrix" values="0 0 0 0 0 0 0 0 0 0 0 0 0 0 0 0 0 0 0.25 0"/>
<feBlend mode="normal" in2="BackgroundImageFix" result="effect1_dropShadow_1_68"/>
<feBlend mode="normal" in="SourceGraphic" in2="effect1_dropShadow_1_68" result="shape"/>
</filter>
<linearGradient id="paint0_linear_1_68" x1="20" y1="0" x2="20" y2="40" gradientUnits="userSpaceOnUse">
<stop stop-color="#2E2A24"/>
<stop offset="1" stop-color="#25221D"/>
</linearGradient>
</defs>
</svg>
