<svg width="244" height="40" viewBox="0 0 244 40" fill="none" xmlns="http://www.w3.org/2000/svg">
<rect width="244.001" height="40.0014" rx="8" fill="url(#paint0_linear_1_56)"/>
<rect x="1.07143" y="1.07143" width="241.858" height="37.8585" rx="6.92857" stroke="white" stroke-opacity="0.15" stroke-width="2.14286"/>
<g filter="url(#filter0_d_1_56)">
<path fill-rule="evenodd" clip-rule="evenodd" d="M20.5153 10.9429C20.594 8.44522 19.7526 6.97271 17.3338 6C16.6463 8.40481 19.4846 10.6221 20.5153 10.9429Z" fill="#D1D3D4" stroke="black" stroke-width="0.5" stroke-linejoin="round"/>
<path fill-rule="evenodd" clip-rule="evenodd" d="M27.0747 15.1757C27.1534 13.1248 26.6355 12.297 26.2467 11.7051C25.8522 11.153 24.9058 10.2853 23.743 10.2489C22.6433 10.2144 22.3788 10.8223 21.3643 10.859C21.198 9.0116 22.5922 7.99784 22.5922 7.99784C22.5922 7.99784 22.211 7.45901 21.8956 7.32735C21.4419 7.7305 20.1933 9.07519 20.4822 10.8056C19.5487 10.6271 18.8898 10.0929 17.9093 10.2858C16.5734 10.5487 15.4722 11.3563 14.8446 13.1286C14.2171 14.901 15.0661 16.9687 15.2507 17.5592C15.4354 18.1503 16.8016 20.6606 17.8724 21.03C18.9429 21.3996 18.9432 21.233 19.5156 21.0116C20.088 20.7901 20.9554 20.384 22.2296 20.8456C23.503 21.307 23.6692 21.4176 24.4628 20.9008C25.257 20.3841 26.2906 18.778 26.5304 18.3164C26.7704 17.855 26.8997 17.6149 26.9738 17.375C27.7454 16.9899 27.0039 17.0137 27.0747 15.1757Z" fill="#D1D3D4" stroke="black" stroke-width="0.5" stroke-linejoin="round"/>
<path d="M29.1475 30.1646C29.3994 30.1655 29.649 30.1166 29.882 30.0208C30.115 29.9251 30.3268 29.7842 30.5053 29.6064C30.6838 29.4286 30.8254 29.2173 30.922 28.9847C31.0186 28.752 31.0684 28.5026 31.0684 28.2506C31.0686 26.3074 31.0686 23.3047 31.0686 21.3562C31.0686 20.8485 30.867 20.3616 30.508 20.0027C30.149 19.6437 29.6621 19.442 29.1545 19.442H27.5766C27.4638 19.442 27.3556 19.3972 27.2758 19.3174C27.196 19.2377 27.1512 19.1295 27.1512 19.0167V18.0139H14.706L14.7374 32.7117C14.7376 32.783 14.7557 32.8532 14.79 32.9157C14.8244 32.9783 14.874 33.0311 14.9341 33.0695C15.4884 33.3904 17.2653 34 20.996 34C24.8057 34 26.5087 33.1839 26.9963 32.8155C27.0441 32.7758 27.0826 32.726 27.1091 32.6697C27.1355 32.6134 27.1492 32.552 27.1492 32.4898C27.1512 32.0831 27.1512 31.1406 27.1512 30.5838C27.1512 30.5272 27.1625 30.4711 27.1844 30.4189C27.2063 30.3668 27.2385 30.3195 27.2789 30.2799C27.3193 30.2403 27.3673 30.2091 27.4199 30.1883C27.4725 30.1674 27.5288 30.1573 27.5854 30.1585C28.0534 30.1651 28.6142 30.1661 29.1475 30.1646ZM27.1512 21.6779C27.1512 21.5369 27.2073 21.4016 27.3069 21.3018C27.4067 21.2022 27.5419 21.1462 27.6829 21.1462H29.0375C29.1785 21.1462 29.3138 21.2022 29.4135 21.3018C29.5132 21.4016 29.5692 21.5368 29.5692 21.6779V27.8654C29.5692 28.0064 29.5132 28.1416 29.4135 28.2414C29.3138 28.341 29.1785 28.397 29.0375 28.3971H27.6829C27.5419 28.397 27.4067 28.341 27.3069 28.2414C27.2072 28.1416 27.1512 28.0064 27.1512 27.8654V21.6779Z" fill="white" stroke="black" stroke-width="0.5" stroke-linejoin="round"/>
<path fill-rule="evenodd" clip-rule="evenodd" d="M15.9329 17.8905V31.0754C15.9329 31.2276 16.0141 31.3681 16.1459 31.4441C16.6841 31.7006 18.2454 32.3128 20.9828 32.3128C23.7383 32.3128 25.2532 31.5689 25.7605 31.2623C25.8201 31.2239 25.8691 31.1712 25.903 31.1089C25.937 31.0467 25.9548 30.9769 25.9548 30.906C25.9559 29.1576 25.9559 17.8905 25.9559 17.8905H15.9329Z" fill="#FBB040"/>
<path d="M17.4062 20.1237V30.3129" stroke="#FFDB96" stroke-width="0.5" stroke-linecap="round"/>
<path fill-rule="evenodd" clip-rule="evenodd" d="M23.0691 20.5962C23.0691 20.3835 22.9439 20.1295 22.7383 20.002C22.4013 19.7977 22.1417 19.4872 22.0001 19.1194C19.2787 19.2109 16.7948 18.733 15.5435 18.3956C15.2222 18.3046 14.8967 18.229 14.5682 18.1691C13.8192 18.0206 13.25 17.3628 13.25 16.5721C13.25 15.7017 13.9406 14.9944 14.8034 14.9634C14.9699 14.0428 15.7734 13.344 16.7419 13.344C17.8311 13.344 18.7139 14.227 18.7139 15.3161C18.7139 15.5452 18.6726 15.7646 18.6008 15.9694L18.6066 15.9704C18.8499 15.2097 19.5619 14.6586 20.4034 14.6586C21.2395 14.6586 21.9477 15.2032 22.195 15.9568C22.1879 15.888 22.1843 15.8189 22.1843 15.7497C22.1843 14.617 23.1025 13.6988 24.235 13.6988C25.1519 13.6988 25.9279 14.3006 26.1904 15.1304L26.3692 15.0838C26.6102 14.9474 26.8825 14.8758 27.1595 14.8759C28.0495 14.8759 28.771 15.5975 28.7707 16.4872C28.7707 17.3024 28.1655 17.9761 27.3798 18.0836C27.2019 18.1088 27.0274 18.1541 26.8597 18.2187C26.3928 18.3947 25.9153 18.5406 25.4329 18.6609C25.4095 18.893 25.3406 19.1182 25.2299 19.3236C25.0343 19.6907 24.9465 20.1057 24.9768 20.5207C24.9766 20.5457 24.9776 20.6772 24.9776 20.7025C24.9776 21.2295 24.5505 21.5503 24.0231 21.5503C23.8978 21.5503 23.7737 21.5256 23.658 21.4776C23.5422 21.4297 23.437 21.3594 23.3484 21.2708C23.2599 21.1822 23.1896 21.077 23.1417 20.9613C23.0937 20.8455 23.0691 20.7214 23.0691 20.5962Z" fill="white" stroke="black" stroke-width="0.5" stroke-linecap="round" stroke-linejoin="round"/>
</g>
<g filter="url(#filter1_d_1_56)">
<path d="M44.4041 26.5007H42.424L46.8732 14.1371H49.0284L53.4776 26.5007H51.4975L48.0021 16.3828H47.9055L44.4041 26.5007ZM44.7361 21.6591H51.1594V23.2287H44.7361V21.6591ZM61.8886 17.228L58.526 26.5007H56.5942L53.2256 17.228H55.1634L57.5118 24.3636H57.6084L59.9507 17.228H61.8886ZM66.0178 26.706C65.4302 26.706 64.899 26.5973 64.4241 26.38C63.9492 26.1586 63.5729 25.8386 63.2952 25.4201C63.0215 25.0015 62.8846 24.4884 62.8846 23.8807C62.8846 23.3575 62.9853 22.9268 63.1865 22.5888C63.3877 22.2507 63.6594 21.9831 64.0015 21.7859C64.3436 21.5886 64.7259 21.4397 65.1485 21.3391C65.5711 21.2385 66.0017 21.162 66.4404 21.1097C66.9958 21.0453 67.4466 20.993 67.7927 20.9528C68.1388 20.9085 68.3903 20.8381 68.5473 20.7415C68.7042 20.6449 68.7827 20.4879 68.7827 20.2706V20.2283C68.7827 19.7011 68.6338 19.2926 68.336 19.0028C68.0422 18.7131 67.6035 18.5682 67.0199 18.5682C66.4122 18.5682 65.9333 18.703 65.5832 18.9726C65.237 19.2383 64.9976 19.5341 64.8648 19.8601L63.1684 19.4737C63.3696 18.9103 63.6634 18.4555 64.0498 18.1094C64.4402 17.7592 64.8889 17.5057 65.396 17.3487C65.9031 17.1877 66.4364 17.1072 66.9958 17.1072C67.3661 17.1072 67.7585 17.1515 68.173 17.24C68.5916 17.3246 68.9819 17.4815 69.3442 17.7109C69.7104 17.9403 70.0102 18.2683 70.2437 18.6949C70.4771 19.1175 70.5938 19.6669 70.5938 20.343V26.5007H68.831V25.2329H68.7586C68.6419 25.4664 68.4668 25.6958 68.2334 25.9212C67.9999 26.1465 67.7001 26.3337 67.3339 26.4826C66.9676 26.6315 66.5289 26.706 66.0178 26.706ZM66.4102 25.2571C66.9093 25.2571 67.3359 25.1585 67.69 24.9613C68.0482 24.7641 68.3199 24.5065 68.505 24.1886C68.6942 23.8666 68.7888 23.5225 68.7888 23.1562V21.9609C68.7244 22.0253 68.5996 22.0857 68.4145 22.142C68.2334 22.1944 68.0261 22.2406 67.7927 22.2809C67.5592 22.3171 67.3319 22.3513 67.1105 22.3835C66.8891 22.4117 66.704 22.4358 66.5551 22.456C66.205 22.5002 65.885 22.5747 65.5952 22.6793C65.3095 22.784 65.0801 22.9349 64.907 23.1321C64.738 23.3253 64.6535 23.5828 64.6535 23.9048C64.6535 24.3515 64.8185 24.6896 65.1485 24.919C65.4785 25.1444 65.8991 25.2571 66.4102 25.2571ZM72.998 26.5007V17.228H74.8031V26.5007H72.998ZM73.9096 15.7972C73.5957 15.7972 73.326 15.6926 73.1006 15.4833C72.8793 15.27 72.7686 15.0164 72.7686 14.7226C72.7686 14.4248 72.8793 14.1713 73.1006 13.962C73.326 13.7487 73.5957 13.642 73.9096 13.642C74.2235 13.642 74.4911 13.7487 74.7125 13.962C74.9379 14.1713 75.0506 14.4248 75.0506 14.7226C75.0506 15.0164 74.9379 15.27 74.7125 15.4833C74.4911 15.6926 74.2235 15.7972 73.9096 15.7972ZM79.0365 14.1371V26.5007H77.2314V14.1371H79.0365ZM84.1633 26.706C83.5757 26.706 83.0445 26.5973 82.5696 26.38C82.0947 26.1586 81.7184 25.8386 81.4407 25.4201C81.167 25.0015 81.0301 24.4884 81.0301 23.8807C81.0301 23.3575 81.1308 22.9268 81.332 22.5888C81.5332 22.2507 81.8049 21.9831 82.147 21.7859C82.4891 21.5886 82.8714 21.4397 83.294 21.3391C83.7166 21.2385 84.1472 21.162 84.5859 21.1097C85.1413 21.0453 85.5921 20.993 85.9382 20.9528C86.2843 20.9085 86.5358 20.8381 86.6928 20.7415C86.8497 20.6449 86.9282 20.4879 86.9282 20.2706V20.2283C86.9282 19.7011 86.7793 19.2926 86.4815 19.0028C86.1877 18.7131 85.749 18.5682 85.1654 18.5682C84.5577 18.5682 84.0788 18.703 83.7287 18.9726C83.3825 19.2383 83.1431 19.5341 83.0103 19.8601L81.3139 19.4737C81.5151 18.9103 81.8089 18.4555 82.1953 18.1094C82.5857 17.7592 83.0344 17.5057 83.5415 17.3487C84.0486 17.1877 84.5819 17.1072 85.1413 17.1072C85.5116 17.1072 85.904 17.1515 86.3185 17.24C86.7371 17.3246 87.1274 17.4815 87.4897 17.7109C87.8559 17.9403 88.1557 18.2683 88.3892 18.6949C88.6226 19.1175 88.7393 19.6669 88.7393 20.343V26.5007H86.9765V25.2329H86.9041C86.7874 25.4664 86.6123 25.6958 86.3789 25.9212C86.1454 26.1465 85.8456 26.3337 85.4794 26.4826C85.1131 26.6315 84.6744 26.706 84.1633 26.706ZM84.5557 25.2571C85.0548 25.2571 85.4814 25.1585 85.8355 24.9613C86.1937 24.7641 86.4654 24.5065 86.6505 24.1886C86.8397 23.8666 86.9343 23.5225 86.9343 23.1562V21.9609C86.8699 22.0253 86.7451 22.0857 86.56 22.142C86.3789 22.1944 86.1716 22.2406 85.9382 22.2809C85.7047 22.3171 85.4774 22.3513 85.256 22.3835C85.0346 22.4117 84.8495 22.4358 84.7006 22.456C84.3505 22.5002 84.0305 22.5747 83.7407 22.6793C83.455 22.784 83.2256 22.9349 83.0525 23.1321C82.8835 23.3253 82.799 23.5828 82.799 23.9048C82.799 24.3515 82.964 24.6896 83.294 24.919C83.624 25.1444 84.0446 25.2571 84.5557 25.2571ZM91.2884 26.5007V14.1371H93.0934V18.7312H93.2021C93.3067 18.538 93.4577 18.3146 93.6549 18.0611C93.8521 17.8075 94.1258 17.5862 94.4759 17.397C94.826 17.2038 95.2889 17.1072 95.8644 17.1072C96.613 17.1072 97.2811 17.2964 97.8687 17.6747C98.4563 18.053 98.9171 18.5984 99.2511 19.3107C99.5892 20.0231 99.7582 20.8803 99.7582 21.8824C99.7582 22.8846 99.5912 23.7438 99.2571 24.4602C98.9231 25.1726 98.4643 25.7219 97.8807 26.1083C97.2972 26.4906 96.6311 26.6818 95.8825 26.6818C95.3191 26.6818 94.8582 26.5872 94.5 26.3981C94.1459 26.2089 93.8682 25.9876 93.667 25.734C93.4657 25.4805 93.3108 25.2551 93.2021 25.0579H93.0512V26.5007H91.2884ZM93.0572 21.8643C93.0572 22.5163 93.1518 23.0878 93.341 23.5788C93.5301 24.0698 93.8038 24.4542 94.162 24.7319C94.5202 25.0056 94.9589 25.1424 95.478 25.1424C96.0173 25.1424 96.4681 24.9995 96.8303 24.7138C97.1925 24.424 97.4662 24.0316 97.6513 23.5366C97.8405 23.0415 97.9351 22.4841 97.9351 21.8643C97.9351 21.2526 97.8425 20.7032 97.6574 20.2163C97.4763 19.7293 97.2026 19.3449 96.8363 19.0632C96.4741 18.7815 96.0214 18.6406 95.478 18.6406C94.9548 18.6406 94.5121 18.7754 94.1499 19.0451C93.7917 19.3147 93.5201 19.691 93.3349 20.174C93.1498 20.6569 93.0572 21.2204 93.0572 21.8643ZM103.59 14.1371V26.5007H101.785V14.1371H103.59ZM110.015 26.6878C109.101 26.6878 108.315 26.4926 107.655 26.1023C106.999 25.7078 106.491 25.1545 106.133 24.4421C105.779 23.7257 105.602 22.8866 105.602 21.9247C105.602 20.9749 105.779 20.1378 106.133 19.4133C106.491 18.6889 106.99 18.1234 107.63 17.717C108.274 17.3105 109.027 17.1072 109.888 17.1072C110.411 17.1072 110.918 17.1938 111.409 17.3668C111.9 17.5399 112.341 17.8115 112.732 18.1818C113.122 18.5521 113.43 19.033 113.655 19.6246C113.881 20.2122 113.993 20.9266 113.993 21.7677V22.4077H106.622V21.0554H112.224C112.224 20.5805 112.128 20.1599 111.935 19.7937C111.742 19.4234 111.47 19.1316 111.12 18.9183C110.774 18.705 110.367 18.5984 109.9 18.5984C109.393 18.5984 108.95 18.7231 108.572 18.9726C108.198 19.2181 107.908 19.5401 107.703 19.9386C107.502 20.333 107.401 20.7616 107.401 21.2244V22.2809C107.401 22.9007 107.51 23.4279 107.727 23.8626C107.948 24.2972 108.256 24.6292 108.651 24.8587C109.045 25.084 109.506 25.1967 110.033 25.1967C110.375 25.1967 110.687 25.1484 110.969 25.0518C111.251 24.9512 111.494 24.8023 111.699 24.6051C111.905 24.4079 112.061 24.1644 112.17 23.8746L113.879 24.1825C113.742 24.6856 113.496 25.1263 113.142 25.5046C112.792 25.8789 112.351 26.1707 111.82 26.38C111.293 26.5852 110.691 26.6878 110.015 26.6878ZM124.401 26.6878C123.532 26.6878 122.773 26.4886 122.125 26.0902C121.477 25.6917 120.974 25.1343 120.616 24.418C120.258 23.7016 120.079 22.8645 120.079 21.9066C120.079 20.9447 120.258 20.1036 120.616 19.3832C120.974 18.6627 121.477 18.1033 122.125 17.7049C122.773 17.3065 123.532 17.1072 124.401 17.1072C125.27 17.1072 126.029 17.3065 126.677 17.7049C127.325 18.1033 127.828 18.6627 128.186 19.3832C128.544 20.1036 128.723 20.9447 128.723 21.9066C128.723 22.8645 128.544 23.7016 128.186 24.418C127.828 25.1343 127.325 25.6917 126.677 26.0902C126.029 26.4886 125.27 26.6878 124.401 26.6878ZM124.407 25.1726C124.97 25.1726 125.437 25.0237 125.808 24.7258C126.178 24.428 126.452 24.0316 126.629 23.5366C126.81 23.0415 126.9 22.4962 126.9 21.9006C126.9 21.3089 126.81 20.7656 126.629 20.2706C126.452 19.7715 126.178 19.3711 125.808 19.0692C125.437 18.7674 124.97 18.6165 124.407 18.6165C123.84 18.6165 123.369 18.7674 122.994 19.0692C122.624 19.3711 122.348 19.7715 122.167 20.2706C121.99 20.7656 121.902 21.3089 121.902 21.9006C121.902 22.4962 121.99 23.0415 122.167 23.5366C122.348 24.0316 122.624 24.428 122.994 24.7258C123.369 25.0237 123.84 25.1726 124.407 25.1726ZM132.543 20.995V26.5007H130.738V17.228H132.471V18.7372H132.586C132.799 18.2462 133.133 17.8518 133.588 17.554C134.046 17.2561 134.624 17.1072 135.32 17.1072C135.952 17.1072 136.506 17.24 136.98 17.5057C137.455 17.7673 137.824 18.1577 138.085 18.6768C138.347 19.196 138.478 19.8379 138.478 20.6026V26.5007H136.673V20.8199C136.673 20.1478 136.497 19.6226 136.147 19.2443C135.797 18.862 135.316 18.6708 134.704 18.6708C134.286 18.6708 133.914 18.7614 133.588 18.9425C133.266 19.1236 133.01 19.3892 132.821 19.7393C132.636 20.0855 132.543 20.504 132.543 20.995Z" fill="#E8E8E8"/>
<path d="M144.937 26.0007V13.6371H147.925V18.5994H152.797V13.6371H155.779V26.0007H152.797V21.0323H147.925V26.0007H144.937ZM161.982 26.1758C161.008 26.1758 160.171 25.9765 159.471 25.5781C158.775 25.1757 158.237 24.6162 157.859 23.8998C157.485 23.1794 157.298 22.3443 157.298 21.3945C157.298 20.4407 157.485 19.6056 157.859 18.8892C158.237 18.1688 158.775 17.6094 159.471 17.2109C160.171 16.8085 161.008 16.6072 161.982 16.6072C162.956 16.6072 163.791 16.8085 164.488 17.2109C165.188 17.6094 165.725 18.1688 166.1 18.8892C166.478 19.6056 166.667 20.4407 166.667 21.3945C166.667 22.3443 166.478 23.1794 166.1 23.8998C165.725 24.6162 165.188 25.1757 164.488 25.5781C163.791 25.9765 162.956 26.1758 161.982 26.1758ZM162 23.9481C162.355 23.9481 162.654 23.8395 162.9 23.6221C163.145 23.4048 163.333 23.103 163.461 22.7166C163.594 22.3302 163.661 21.8835 163.661 21.3764C163.661 20.8613 163.594 20.4105 163.461 20.0241C163.333 19.6378 163.145 19.3359 162.9 19.1186C162.654 18.9013 162.355 18.7926 162 18.7926C161.634 18.7926 161.324 18.9013 161.071 19.1186C160.821 19.3359 160.63 19.6378 160.497 20.0241C160.368 20.4105 160.304 20.8613 160.304 21.3764C160.304 21.8835 160.368 22.3302 160.497 22.7166C160.63 23.103 160.821 23.4048 161.071 23.6221C161.324 23.8395 161.634 23.9481 162 23.9481ZM168.179 26.0007V16.728H170.986V18.4304H171.089C171.282 17.8669 171.608 17.4222 172.067 17.0962C172.526 16.7702 173.073 16.6072 173.709 16.6072C174.353 16.6072 174.904 16.7722 175.363 17.1023C175.822 17.4323 176.114 17.875 176.239 18.4304H176.335C176.508 17.879 176.846 17.4383 177.349 17.1083C177.852 16.7743 178.446 16.6072 179.13 16.6072C180.008 16.6072 180.72 16.889 181.267 17.4524C181.815 18.0118 182.088 18.7805 182.088 19.7585V26.0007H179.136V20.4346C179.136 19.9718 179.018 19.6197 178.78 19.3782C178.543 19.1327 178.235 19.0099 177.856 19.0099C177.45 19.0099 177.13 19.1427 176.897 19.4084C176.667 19.67 176.553 20.0221 176.553 20.4648V26.0007H173.715V20.4045C173.715 19.9738 173.598 19.6337 173.365 19.3842C173.132 19.1347 172.824 19.0099 172.441 19.0099C172.184 19.0099 171.956 19.0723 171.759 19.1971C171.562 19.3178 171.407 19.4909 171.294 19.7163C171.186 19.9416 171.131 20.2073 171.131 20.5131V26.0007H168.179ZM188.252 26.1758C187.282 26.1758 186.445 25.9846 185.741 25.6023C185.04 25.2159 184.501 24.6665 184.123 23.9542C183.749 23.2378 183.561 22.3866 183.561 21.4006C183.561 20.4427 183.751 19.6056 184.129 18.8892C184.507 18.1688 185.04 17.6094 185.729 17.2109C186.417 16.8085 187.228 16.6072 188.162 16.6072C188.822 16.6072 189.425 16.7099 189.973 16.9151C190.52 17.1204 190.993 17.4242 191.391 17.8267C191.79 18.2292 192.1 18.7262 192.321 19.3178C192.542 19.9054 192.653 20.5795 192.653 21.3402V22.0767H184.594V20.3622H189.906C189.902 20.0483 189.828 19.7686 189.683 19.5231C189.538 19.2776 189.339 19.0864 189.085 18.9496C188.836 18.8087 188.548 18.7383 188.222 18.7383C187.892 18.7383 187.596 18.8127 187.334 18.9616C187.073 19.1065 186.866 19.3057 186.713 19.5593C186.56 19.8088 186.479 20.0926 186.471 20.4105V22.1552C186.471 22.5335 186.546 22.8655 186.695 23.1513C186.843 23.433 187.055 23.6523 187.328 23.8093C187.602 23.9663 187.928 24.0447 188.306 24.0447C188.568 24.0447 188.805 24.0085 189.019 23.9361C189.232 23.8636 189.415 23.757 189.568 23.6161C189.721 23.4752 189.836 23.3022 189.912 23.0969L192.623 23.1754C192.51 23.7831 192.263 24.3124 191.88 24.7631C191.502 25.2099 191.005 25.558 190.389 25.8075C189.773 26.053 189.061 26.1758 188.252 26.1758ZM194.161 26.0007V13.6371H197.113V18.3157H197.173C197.294 18.034 197.465 17.7623 197.686 17.5007C197.912 17.2391 198.197 17.0258 198.544 16.8608C198.894 16.6918 199.312 16.6072 199.799 16.6072C200.443 16.6072 201.045 16.7763 201.604 17.1143C202.168 17.4524 202.622 17.9736 202.969 18.6779C203.315 19.3822 203.488 20.2797 203.488 21.3704C203.488 22.4208 203.321 23.3002 202.987 24.0085C202.657 24.7168 202.21 25.2481 201.647 25.6023C201.087 25.9564 200.465 26.1335 199.781 26.1335C199.314 26.1335 198.91 26.057 198.568 25.9041C198.226 25.7512 197.938 25.5499 197.704 25.3004C197.475 25.0509 197.298 24.7832 197.173 24.4975H197.083V26.0007H194.161ZM197.052 21.3643C197.052 21.8634 197.119 22.298 197.252 22.6683C197.388 23.0386 197.584 23.3263 197.837 23.5316C198.095 23.7328 198.403 23.8334 198.761 23.8334C199.123 23.8334 199.431 23.7328 199.685 23.5316C199.938 23.3263 200.129 23.0386 200.258 22.6683C200.391 22.298 200.457 21.8634 200.457 21.3643C200.457 20.8653 200.391 20.4326 200.258 20.0664C200.129 19.7002 199.938 19.4164 199.685 19.2152C199.435 19.014 199.127 18.9133 198.761 18.9133C198.399 18.9133 198.091 19.0119 197.837 19.2092C197.584 19.4064 197.388 19.6881 197.252 20.0543C197.119 20.4206 197.052 20.8572 197.052 21.3643ZM205.035 26.0007V16.728H207.902V18.4183H207.999C208.168 17.8066 208.444 17.3518 208.826 17.054C209.208 16.7521 209.653 16.6012 210.16 16.6012C210.297 16.6012 210.438 16.6113 210.583 16.6314C210.728 16.6475 210.862 16.6736 210.987 16.7099V19.2756C210.846 19.2273 210.661 19.189 210.432 19.1609C210.206 19.1327 210.005 19.1186 209.828 19.1186C209.478 19.1186 209.162 19.1971 208.88 19.354C208.603 19.507 208.383 19.7223 208.222 20C208.065 20.2737 207.987 20.5956 207.987 20.9659V26.0007H205.035ZM216.043 26.1758C215.073 26.1758 214.236 25.9846 213.532 25.6023C212.831 25.2159 212.292 24.6665 211.914 23.9542C211.54 23.2378 211.352 22.3866 211.352 21.4006C211.352 20.4427 211.542 19.6056 211.92 18.8892C212.298 18.1688 212.831 17.6094 213.52 17.2109C214.208 16.8085 215.019 16.6072 215.953 16.6072C216.613 16.6072 217.216 16.7099 217.764 16.9151C218.311 17.1204 218.784 17.4242 219.182 17.8267C219.581 18.2292 219.891 18.7262 220.112 19.3178C220.333 19.9054 220.444 20.5795 220.444 21.3402V22.0767H212.385V20.3622H217.697C217.693 20.0483 217.619 19.7686 217.474 19.5231C217.329 19.2776 217.13 19.0864 216.876 18.9496C216.627 18.8087 216.339 18.7383 216.013 18.7383C215.683 18.7383 215.387 18.8127 215.125 18.9616C214.864 19.1065 214.657 19.3057 214.504 19.5593C214.351 19.8088 214.27 20.0926 214.262 20.4105V22.1552C214.262 22.5335 214.337 22.8655 214.486 23.1513C214.634 23.433 214.846 23.6523 215.119 23.8093C215.393 23.9663 215.719 24.0447 216.097 24.0447C216.359 24.0447 216.596 24.0085 216.81 23.9361C217.023 23.8636 217.206 23.757 217.359 23.6161C217.512 23.4752 217.627 23.3022 217.703 23.0969L220.414 23.1754C220.301 23.7831 220.054 24.3124 219.671 24.7631C219.293 25.2099 218.796 25.558 218.18 25.8075C217.564 26.053 216.852 26.1758 216.043 26.1758ZM223.585 26.0007L221.17 16.728H224.134L225.384 22.6683H225.462L226.802 16.728H229.694L231.071 22.6261H231.149L232.362 16.728H235.327L232.906 26.0007H229.748L228.3 20.5976H228.197L226.748 26.0007H223.585Z" fill="url(#paint1_linear_1_56)"/>
</g>
<defs>
<filter id="filter0_d_1_56" x="2.39972" y="0.14972" width="39.202" height="39.7006" filterUnits="userSpaceOnUse" color-interpolation-filters="sRGB">
<feFlood flood-opacity="0" result="BackgroundImageFix"/>
<feColorMatrix in="SourceAlpha" type="matrix" values="0 0 0 0 0 0 0 0 0 0 0 0 0 0 0 0 0 0 127 0" result="hardAlpha"/>
<feOffset/>
<feGaussianBlur stdDeviation="2.80014"/>
<feComposite in2="hardAlpha" operator="out"/>
<feColorMatrix type="matrix" values="0 0 0 0 0 0 0 0 0 0 0 0 0 0 0 0 0 0 0.25 0"/>
<feBlend mode="normal" in2="BackgroundImageFix" result="effect1_dropShadow_1_56"/>
<feBlend mode="normal" in="SourceGraphic" in2="effect1_dropShadow_1_56" result="shape"/>
</filter>
<filter id="filter1_d_1_56" x="36.2871" y="3.78642" width="205.429" height="32.4286" filterUnits="userSpaceOnUse" color-interpolation-filters="sRGB">
<feFlood flood-opacity="0" result="BackgroundImageFix"/>
<feColorMatrix in="SourceAlpha" type="matrix" values="0 0 0 0 0 0 0 0 0 0 0 0 0 0 0 0 0 0 127 0" result="hardAlpha"/>
<feOffset/>
<feGaussianBlur stdDeviation="2.85714"/>
<feComposite in2="hardAlpha" operator="out"/>
<feColorMatrix type="matrix" values="0 0 0 0 0 0 0 0 0 0 0 0 0 0 0 0 0 0 0.25 0"/>
<feBlend mode="normal" in2="BackgroundImageFix" result="effect1_dropShadow_1_56"/>
<feBlend mode="normal" in="SourceGraphic" in2="effect1_dropShadow_1_56" result="shape"/>
</filter>
<linearGradient id="paint0_linear_1_56" x1="122.001" y1="0" x2="122.001" y2="40.0014" gradientUnits="userSpaceOnUse">
<stop stop-color="#2E2A24"/>
<stop offset="1" stop-color="#25221D"/>
</linearGradient>
<linearGradient id="paint1_linear_1_56" x1="190.001" y1="11.0007" x2="190.001" y2="29.0007" gradientUnits="userSpaceOnUse">
<stop stop-color="#FFDB96"/>
<stop offset="1" stop-color="#FBB040"/>
</linearGradient>
</defs>
</svg>
