<svg width="56" height="56" viewBox="0 0 56 56" fill="none" xmlns="http://www.w3.org/2000/svg">
<rect width="56" height="56" rx="8.4" fill="url(#paint0_linear_1_62)"/>
<rect x="1.05" y="1.05" width="53.9" height="53.9" rx="7.35" stroke="white" stroke-opacity="0.15" stroke-width="2.1"/>
<g filter="url(#filter0_d_1_62)">
<path fill-rule="evenodd" clip-rule="evenodd" d="M25.879 15.0612C25.9914 11.4932 24.7894 9.38958 21.3341 8C20.3519 11.4354 24.4066 14.6031 25.879 15.0612Z" fill="#D1D3D4" stroke="black" stroke-linejoin="round"/>
<path fill-rule="evenodd" clip-rule="evenodd" d="M35.2496 21.1081C35.3621 18.1783 34.6221 16.9958 34.0667 16.1502C33.5032 15.3614 32.1511 14.1218 30.4899 14.0698C28.919 14.0206 28.5411 14.889 27.0919 14.9414C26.8543 12.3023 28.846 10.8541 28.846 10.8541C28.846 10.8541 28.3014 10.0843 27.8508 9.89622C27.2028 10.4721 25.419 12.3931 25.8317 14.8651C24.4982 14.6102 23.5569 13.847 22.1561 14.1226C20.2477 14.4981 18.6746 15.6519 17.778 18.1837C16.8815 20.7157 18.0944 23.6696 18.3582 24.5132C18.622 25.3576 20.5737 28.9437 22.1034 29.4715C23.6327 29.9994 23.6332 29.7615 24.4508 29.4452C25.2686 29.1287 26.5077 28.5486 28.328 29.208C30.1472 29.8672 30.3845 30.0252 31.5183 29.2869C32.6529 28.5487 34.1294 26.2543 34.472 25.5949C34.8149 24.9357 34.9996 24.5927 35.1055 24.2499C36.2078 23.6998 35.1485 23.7339 35.2496 21.1081Z" fill="#D1D3D4" stroke="black" stroke-linejoin="round"/>
<path d="M38.2106 42.5208C38.5705 42.5221 38.9271 42.4523 39.26 42.3155C39.5929 42.1787 39.8955 41.9775 40.1504 41.7235C40.4054 41.4694 40.6077 41.1676 40.7457 40.8352C40.8838 40.5029 40.9548 40.1465 40.9549 39.7866C40.9552 37.0106 40.9552 32.721 40.9552 29.9374C40.9552 29.2122 40.6671 28.5166 40.1543 28.0038C39.6414 27.491 38.9459 27.2029 38.2207 27.2029H35.9665C35.8054 27.2029 35.6508 27.1389 35.5368 27.0249C35.4229 26.9109 35.3589 26.7564 35.3589 26.5952V25.1626H17.58L17.6249 46.1595C17.6251 46.2615 17.6509 46.3617 17.7 46.451C17.7492 46.5404 17.8199 46.6159 17.9059 46.6707C18.6977 47.1292 21.2361 48 26.5658 48C32.0082 48 34.441 46.8342 35.1375 46.3078C35.2059 46.2511 35.2609 46.18 35.2986 46.0996C35.3364 46.0192 35.356 45.9315 35.356 45.8426C35.3589 45.2615 35.3589 43.9151 35.3589 43.1197C35.3588 43.0388 35.375 42.9588 35.4063 42.8842C35.4376 42.8096 35.4835 42.7421 35.5413 42.6855C35.5991 42.6289 35.6675 42.5845 35.7427 42.5547C35.8179 42.5249 35.8983 42.5105 35.9791 42.5122C36.6477 42.5216 37.4488 42.5229 38.2106 42.5208ZM35.3589 30.3969C35.3589 30.1955 35.4389 30.0023 35.5813 29.8598C35.7238 29.7174 35.917 29.6374 36.1184 29.6374H38.0536C38.255 29.6374 38.4482 29.7174 38.5907 29.8598C38.7331 30.0023 38.8131 30.1955 38.8131 30.3969V39.2362C38.8131 39.4377 38.7331 39.6309 38.5907 39.7734C38.4482 39.9158 38.255 39.9958 38.0536 39.9958H36.1184C35.917 39.9958 35.7238 39.9158 35.5813 39.7734C35.4389 39.6309 35.3589 39.4377 35.3589 39.2362V30.3969Z" fill="white" stroke="black" stroke-linejoin="round"/>
<path fill-rule="evenodd" clip-rule="evenodd" d="M19.3327 24.9864V43.822C19.3327 44.0394 19.4488 44.2402 19.637 44.3487C20.4059 44.7151 22.6363 45.5897 26.5468 45.5897C30.4833 45.5897 32.6475 44.527 33.3721 44.0891C33.4572 44.0342 33.5273 43.9588 33.5758 43.8699C33.6242 43.7809 33.6496 43.6813 33.6497 43.58C33.6513 41.0823 33.6513 24.9864 33.6513 24.9864H19.3327Z" fill="#FBB040"/>
<path d="M21.4374 28.1768V42.7328" stroke="#FFDB96" stroke-linecap="round"/>
<path fill-rule="evenodd" clip-rule="evenodd" d="M29.5272 28.8516C29.5272 28.5478 29.3484 28.185 29.0548 28.0029C28.5733 27.711 28.2024 27.2675 28.0002 26.742C24.1125 26.8728 20.564 26.1901 18.7764 25.708C18.3174 25.578 17.8525 25.47 17.3832 25.3844C16.3132 25.1722 15.5 24.2326 15.5 23.103C15.5 21.8595 16.4865 20.8491 17.7192 20.8049C17.957 19.4898 19.1048 18.4914 20.4885 18.4914C22.0444 18.4914 23.3056 19.7529 23.3056 21.3087C23.3056 21.6361 23.2465 21.9495 23.144 22.242L23.1524 22.2434C23.4998 21.1568 24.517 20.3694 25.7191 20.3694C26.9135 20.3694 27.9253 21.1475 28.2786 22.224C28.2684 22.1257 28.2633 22.027 28.2633 21.9282C28.2633 20.31 29.5749 18.9983 31.1929 18.9983C32.5027 18.9983 33.6112 19.858 33.9863 21.0434L34.2417 20.9769C34.5861 20.7821 34.975 20.6797 35.3707 20.6799C36.6421 20.6799 37.6729 21.7106 37.6724 22.9817C37.6724 24.1463 36.8078 25.1087 35.6855 25.2623C35.4313 25.2983 35.182 25.363 34.9425 25.4552C34.2754 25.7067 33.5933 25.9151 32.9042 26.0871C32.8708 26.4186 32.7722 26.7403 32.6142 27.0337C32.3347 27.5581 32.2093 28.151 32.2526 28.7438C32.2523 28.7796 32.2537 28.9674 32.2537 29.0036C32.2537 29.7565 31.6436 30.2146 30.8901 30.2146C30.7111 30.2146 30.5339 30.1794 30.3685 30.1109C30.2032 30.0424 30.0529 29.942 29.9264 29.8154C29.7998 29.6889 29.6994 29.5386 29.6309 29.3732C29.5625 29.2079 29.5272 29.0306 29.5272 28.8516Z" fill="white" stroke="black" stroke-linecap="round" stroke-linejoin="round"/>
</g>
<defs>
<filter id="filter0_d_1_62" x="2.28571" y="1.78571" width="51.4286" height="52.4286" filterUnits="userSpaceOnUse" color-interpolation-filters="sRGB">
<feFlood flood-opacity="0" result="BackgroundImageFix"/>
<feColorMatrix in="SourceAlpha" type="matrix" values="0 0 0 0 0 0 0 0 0 0 0 0 0 0 0 0 0 0 127 0" result="hardAlpha"/>
<feOffset/>
<feGaussianBlur stdDeviation="2.85714"/>
<feComposite in2="hardAlpha" operator="out"/>
<feColorMatrix type="matrix" values="0 0 0 0 0 0 0 0 0 0 0 0 0 0 0 0 0 0 0.25 0"/>
<feBlend mode="normal" in2="BackgroundImageFix" result="effect1_dropShadow_1_62"/>
<feBlend mode="normal" in="SourceGraphic" in2="effect1_dropShadow_1_62" result="shape"/>
</filter>
<linearGradient id="paint0_linear_1_62" x1="28" y1="0" x2="28" y2="56" gradientUnits="userSpaceOnUse">
<stop stop-color="#2E2A24"/>
<stop offset="1" stop-color="#25221D"/>
</linearGradient>
</defs>
</svg>
