<svg width="164" height="56" viewBox="0 0 164 56" fill="none" xmlns="http://www.w3.org/2000/svg">
<rect width="164" height="56" rx="8" fill="url(#paint0_linear_1_50)"/>
<rect x="1.05" y="1.05" width="161.9" height="53.9" rx="6.95" stroke="white" stroke-opacity="0.15" stroke-width="2.1"/>
<g filter="url(#filter0_d_1_50)">
<path fill-rule="evenodd" clip-rule="evenodd" d="M29.879 15.0612C29.9914 11.4932 28.7894 9.38958 25.3341 8C24.3519 11.4354 28.4066 14.6031 29.879 15.0612Z" fill="#D1D3D4" stroke="black" stroke-linejoin="round"/>
<path fill-rule="evenodd" clip-rule="evenodd" d="M39.2496 21.1081C39.3621 18.1783 38.6221 16.9958 38.0667 16.1502C37.5032 15.3614 36.1511 14.1218 34.4899 14.0698C32.919 14.0206 32.5411 14.889 31.0919 14.9414C30.8543 12.3023 32.846 10.8541 32.846 10.8541C32.846 10.8541 32.3014 10.0843 31.8508 9.89622C31.2028 10.4721 29.419 12.3931 29.8317 14.8651C28.4982 14.6102 27.5569 13.847 26.1561 14.1226C24.2477 14.4981 22.6746 15.6519 21.778 18.1837C20.8815 20.7157 22.0944 23.6696 22.3582 24.5132C22.622 25.3576 24.5737 28.9437 26.1034 29.4715C27.6327 29.9994 27.6332 29.7615 28.4508 29.4452C29.2686 29.1287 30.5077 28.5486 32.328 29.208C34.1472 29.8672 34.3845 30.0252 35.5183 29.2869C36.6529 28.5487 38.1294 26.2543 38.472 25.5949C38.8149 24.9357 38.9996 24.5927 39.1055 24.2499C40.2078 23.6998 39.1485 23.7339 39.2496 21.1081Z" fill="#D1D3D4" stroke="black" stroke-linejoin="round"/>
<path d="M42.2106 42.5208C42.5705 42.5221 42.9271 42.4523 43.26 42.3155C43.5929 42.1787 43.8955 41.9775 44.1504 41.7235C44.4054 41.4694 44.6077 41.1676 44.7457 40.8352C44.8837 40.5029 44.9548 40.1465 44.9549 39.7866C44.9552 37.0106 44.9552 32.721 44.9552 29.9374C44.9552 29.2122 44.6671 28.5166 44.1543 28.0038C43.6414 27.491 42.9459 27.2029 42.2207 27.2029H39.9665C39.8054 27.2029 39.6508 27.1389 39.5368 27.0249C39.4229 26.9109 39.3589 26.7564 39.3589 26.5952V25.1626H21.58L21.6249 46.1595C21.6251 46.2615 21.6509 46.3617 21.7 46.451C21.7492 46.5404 21.8199 46.6159 21.9059 46.6707C22.6977 47.1292 25.2361 48 30.5658 48C36.0082 48 38.441 46.8342 39.1375 46.3078C39.2059 46.2511 39.2609 46.18 39.2986 46.0996C39.3364 46.0192 39.356 45.9315 39.356 45.8426C39.3589 45.2615 39.3589 43.9151 39.3589 43.1197C39.3588 43.0388 39.375 42.9588 39.4063 42.8842C39.4376 42.8096 39.4835 42.7421 39.5413 42.6855C39.5991 42.6289 39.6675 42.5845 39.7427 42.5547C39.8179 42.5249 39.8983 42.5105 39.9791 42.5122C40.6477 42.5216 41.4488 42.5229 42.2106 42.5208ZM39.3589 30.3969C39.3589 30.1955 39.4389 30.0023 39.5813 29.8598C39.7238 29.7174 39.917 29.6374 40.1184 29.6374H42.0536C42.255 29.6374 42.4482 29.7174 42.5907 29.8598C42.7331 30.0023 42.8131 30.1955 42.8131 30.3969V39.2362C42.8131 39.4377 42.7331 39.6309 42.5907 39.7734C42.4482 39.9158 42.255 39.9958 42.0536 39.9958H40.1184C39.917 39.9958 39.7238 39.9158 39.5813 39.7734C39.4389 39.6309 39.3589 39.4377 39.3589 39.2362V30.3969Z" fill="white" stroke="black" stroke-linejoin="round"/>
<path fill-rule="evenodd" clip-rule="evenodd" d="M23.3327 24.9864V43.822C23.3327 44.0394 23.4488 44.2402 23.637 44.3487C24.4059 44.7151 26.6363 45.5897 30.5468 45.5897C34.4833 45.5897 36.6475 44.527 37.3721 44.0891C37.4572 44.0342 37.5273 43.9588 37.5758 43.8699C37.6242 43.7809 37.6496 43.6813 37.6497 43.58C37.6513 41.0823 37.6513 24.9864 37.6513 24.9864H23.3327Z" fill="#FBB040"/>
<path d="M25.4374 28.1768V42.7328" stroke="#FFDB96" stroke-linecap="round"/>
<path fill-rule="evenodd" clip-rule="evenodd" d="M33.5272 28.8516C33.5272 28.5478 33.3484 28.185 33.0548 28.0029C32.5733 27.711 32.2024 27.2675 32.0002 26.742C28.1125 26.8728 24.564 26.1901 22.7764 25.708C22.3174 25.578 21.8525 25.47 21.3832 25.3844C20.3132 25.1722 19.5 24.2326 19.5 23.103C19.5 21.8595 20.4865 20.8491 21.7192 20.8049C21.957 19.4898 23.1048 18.4914 24.4885 18.4914C26.0444 18.4914 27.3056 19.7529 27.3056 21.3087C27.3056 21.6361 27.2465 21.9495 27.144 22.242L27.1524 22.2434C27.4998 21.1568 28.517 20.3694 29.7191 20.3694C30.9135 20.3694 31.9253 21.1475 32.2786 22.224C32.2684 22.1257 32.2633 22.027 32.2633 21.9282C32.2633 20.31 33.5749 18.9983 35.1929 18.9983C36.5027 18.9983 37.6112 19.858 37.9863 21.0434L38.2417 20.9769C38.5861 20.7821 38.975 20.6797 39.3707 20.6799C40.6421 20.6799 41.6729 21.7106 41.6724 22.9817C41.6724 24.1463 40.8078 25.1087 39.6855 25.2623C39.4313 25.2983 39.182 25.363 38.9425 25.4552C38.2754 25.7067 37.5933 25.9151 36.9042 26.0871C36.8708 26.4186 36.7722 26.7403 36.6142 27.0337C36.3347 27.5581 36.2093 28.151 36.2526 28.7438C36.2523 28.7796 36.2537 28.9674 36.2537 29.0036C36.2537 29.7565 35.6436 30.2146 34.8901 30.2146C34.7111 30.2146 34.5339 30.1794 34.3685 30.1109C34.2032 30.0424 34.0529 29.942 33.9264 29.8154C33.7998 29.6889 33.6994 29.5386 33.6309 29.3732C33.5625 29.2079 33.5272 29.0306 33.5272 28.8516Z" fill="white" stroke="black" stroke-linecap="round" stroke-linejoin="round"/>
</g>
<g filter="url(#filter1_d_1_50)">
<path d="M62.2613 24.5H60.3977L64.5852 12.8636H66.6136L70.8011 24.5H68.9375L65.6477 14.9773H65.5568L62.2613 24.5ZM62.5738 19.9432H68.6193V21.4204H62.5738V19.9432ZM78.7173 15.7727L75.5525 24.5H73.7344L70.5639 15.7727H72.3878L74.598 22.4886H74.6889L76.8934 15.7727H78.7173ZM82.6037 24.6932C82.0506 24.6932 81.5506 24.5909 81.1037 24.3864C80.6567 24.178 80.3025 23.8769 80.0412 23.4829C79.7836 23.089 79.6548 22.6061 79.6548 22.0341C79.6548 21.5417 79.7495 21.1364 79.9389 20.8182C80.1283 20.5 80.384 20.2481 80.7059 20.0625C81.0279 19.8769 81.3878 19.7367 81.7855 19.642C82.1832 19.5473 82.5885 19.4754 83.0014 19.4261C83.5241 19.3655 83.9484 19.3163 84.2741 19.2784C84.5999 19.2367 84.8366 19.1704 84.9844 19.0795C85.1321 18.9886 85.2059 18.8409 85.2059 18.6364V18.5966C85.2059 18.1004 85.0658 17.7159 84.7855 17.4432C84.509 17.1704 84.0961 17.0341 83.5469 17.0341C82.9749 17.0341 82.5241 17.161 82.1946 17.4148C81.8688 17.6648 81.6434 17.9432 81.5184 18.25L79.9219 17.8864C80.1112 17.3561 80.3878 16.928 80.7514 16.6023C81.1188 16.2727 81.5412 16.0341 82.0184 15.8864C82.4957 15.7348 82.9976 15.6591 83.5241 15.6591C83.8726 15.6591 84.2419 15.7008 84.6321 15.7841C85.026 15.8636 85.3934 16.0114 85.7344 16.2273C86.079 16.4432 86.3612 16.7519 86.5809 17.1534C86.8006 17.5511 86.9105 18.0682 86.9105 18.7045V24.5H85.2514V23.3068H85.1832C85.0734 23.5265 84.9086 23.7424 84.6889 23.9545C84.4692 24.1667 84.187 24.3428 83.8423 24.4829C83.4976 24.6231 83.0847 24.6932 82.6037 24.6932ZM82.973 23.3295C83.4427 23.3295 83.8442 23.2367 84.1775 23.0511C84.5147 22.8655 84.7703 22.6231 84.9446 22.3239C85.1226 22.0208 85.2116 21.697 85.2116 21.3523V20.2273C85.151 20.2879 85.0336 20.3447 84.8594 20.3977C84.6889 20.447 84.4938 20.4905 84.2741 20.5284C84.0544 20.5625 83.8404 20.5947 83.6321 20.625C83.4237 20.6515 83.2495 20.6742 83.1094 20.6932C82.7798 20.7348 82.4787 20.8049 82.2059 20.9034C81.937 21.0019 81.7211 21.1439 81.5582 21.3295C81.3991 21.5114 81.3196 21.7538 81.3196 22.0568C81.3196 22.4773 81.4749 22.7954 81.7855 23.0114C82.0961 23.2235 82.4919 23.3295 82.973 23.3295ZM89.1733 24.5V15.7727H90.8721V24.5H89.1733ZM90.0312 14.4261C89.7358 14.4261 89.482 14.3276 89.2699 14.1307C89.0615 13.9299 88.9574 13.6913 88.9574 13.4148C88.9574 13.1345 89.0615 12.8958 89.2699 12.6989C89.482 12.4981 89.7358 12.3977 90.0312 12.3977C90.3267 12.3977 90.5786 12.4981 90.7869 12.6989C90.999 12.8958 91.1051 13.1345 91.1051 13.4148C91.1051 13.6913 90.999 13.9299 90.7869 14.1307C90.5786 14.3276 90.3267 14.4261 90.0312 14.4261ZM94.8565 12.8636V24.5H93.1576V12.8636H94.8565ZM99.6818 24.6932C99.1288 24.6932 98.6288 24.5909 98.1818 24.3864C97.7348 24.178 97.3807 23.8769 97.1193 23.4829C96.8617 23.089 96.7329 22.6061 96.7329 22.0341C96.7329 21.5417 96.8276 21.1364 97.017 20.8182C97.2064 20.5 97.4621 20.2481 97.7841 20.0625C98.106 19.8769 98.4659 19.7367 98.8636 19.642C99.2613 19.5473 99.6666 19.4754 100.08 19.4261C100.602 19.3655 101.026 19.3163 101.352 19.2784C101.678 19.2367 101.915 19.1704 102.062 19.0795C102.21 18.9886 102.284 18.8409 102.284 18.6364V18.5966C102.284 18.1004 102.144 17.7159 101.864 17.4432C101.587 17.1704 101.174 17.0341 100.625 17.0341C100.053 17.0341 99.6022 17.161 99.2727 17.4148C98.9469 17.6648 98.7216 17.9432 98.5966 18.25L97 17.8864C97.1894 17.3561 97.4659 16.928 97.8295 16.6023C98.1969 16.2727 98.6193 16.0341 99.0966 15.8864C99.5738 15.7348 100.076 15.6591 100.602 15.6591C100.951 15.6591 101.32 15.7008 101.71 15.7841C102.104 15.8636 102.472 16.0114 102.812 16.2273C103.157 16.4432 103.439 16.7519 103.659 17.1534C103.879 17.5511 103.989 18.0682 103.989 18.7045V24.5H102.33V23.3068H102.261C102.151 23.5265 101.987 23.7424 101.767 23.9545C101.547 24.1667 101.265 24.3428 100.92 24.4829C100.576 24.6231 100.163 24.6932 99.6818 24.6932ZM100.051 23.3295C100.521 23.3295 100.922 23.2367 101.256 23.0511C101.593 22.8655 101.848 22.6231 102.023 22.3239C102.201 22.0208 102.29 21.697 102.29 21.3523V20.2273C102.229 20.2879 102.112 20.3447 101.937 20.3977C101.767 20.447 101.572 20.4905 101.352 20.5284C101.133 20.5625 100.919 20.5947 100.71 20.625C100.502 20.6515 100.328 20.6742 100.187 20.6932C99.8579 20.7348 99.5568 20.8049 99.2841 20.9034C99.0151 21.0019 98.7992 21.1439 98.6363 21.3295C98.4772 21.5114 98.3977 21.7538 98.3977 22.0568C98.3977 22.4773 98.553 22.7954 98.8636 23.0114C99.1742 23.2235 99.57 23.3295 100.051 23.3295ZM106.388 24.5V12.8636H108.087V17.1875H108.189C108.287 17.0057 108.429 16.7954 108.615 16.5568C108.801 16.3182 109.058 16.1098 109.388 15.9318C109.717 15.75 110.153 15.6591 110.695 15.6591C111.399 15.6591 112.028 15.8371 112.581 16.1932C113.134 16.5492 113.568 17.0625 113.882 17.7329C114.2 18.4034 114.359 19.2102 114.359 20.1534C114.359 21.0966 114.202 21.9053 113.888 22.5795C113.573 23.25 113.142 23.767 112.592 24.1307C112.043 24.4905 111.416 24.6704 110.712 24.6704C110.181 24.6704 109.748 24.5814 109.41 24.4034C109.077 24.2254 108.816 24.017 108.626 23.7784C108.437 23.5398 108.291 23.3276 108.189 23.142H108.047V24.5H106.388ZM108.053 20.1364C108.053 20.75 108.142 21.2879 108.32 21.75C108.498 22.2121 108.755 22.5739 109.092 22.8352C109.429 23.0928 109.842 23.2216 110.331 23.2216C110.839 23.2216 111.263 23.0871 111.604 22.8182C111.945 22.5454 112.202 22.1761 112.376 21.7102C112.554 21.2443 112.643 20.7197 112.643 20.1364C112.643 19.5606 112.556 19.0436 112.382 18.5852C112.212 18.1269 111.954 17.7651 111.609 17.5C111.268 17.2348 110.842 17.1023 110.331 17.1023C109.839 17.1023 109.422 17.2292 109.081 17.4829C108.744 17.7367 108.488 18.0909 108.314 18.5454C108.14 19 108.053 19.5303 108.053 20.1364ZM117.966 12.8636V24.5H116.267V12.8636H117.966ZM124.013 24.6761C123.153 24.6761 122.412 24.4924 121.791 24.125C121.174 23.7538 120.696 23.2329 120.359 22.5625C120.026 21.8883 119.859 21.0985 119.859 20.1932C119.859 19.2992 120.026 18.5114 120.359 17.8295C120.696 17.1477 121.166 16.6155 121.768 16.2329C122.374 15.8504 123.083 15.6591 123.893 15.6591C124.386 15.6591 124.863 15.7405 125.325 15.9034C125.787 16.0663 126.202 16.322 126.57 16.6704C126.937 17.0189 127.227 17.4716 127.439 18.0284C127.651 18.5814 127.757 19.2538 127.757 20.0454V20.6477H120.82V19.375H126.092C126.092 18.928 126.001 18.5322 125.82 18.1875C125.638 17.839 125.382 17.5644 125.053 17.3636C124.727 17.1629 124.344 17.0625 123.905 17.0625C123.428 17.0625 123.011 17.1799 122.655 17.4148C122.303 17.6458 122.03 17.9489 121.837 18.3239C121.647 18.6951 121.553 19.0985 121.553 19.5341V20.5284C121.553 21.1117 121.655 21.6079 121.859 22.017C122.068 22.4261 122.357 22.7386 122.729 22.9545C123.1 23.1667 123.534 23.2727 124.03 23.2727C124.352 23.2727 124.645 23.2273 124.91 23.1364C125.176 23.0417 125.405 22.9015 125.598 22.7159C125.791 22.5303 125.939 22.3011 126.041 22.0284L127.649 22.3182C127.52 22.7917 127.289 23.2064 126.956 23.5625C126.626 23.9148 126.212 24.1894 125.712 24.3864C125.215 24.5795 124.649 24.6761 124.013 24.6761ZM137.553 24.6761C136.734 24.6761 136.02 24.4886 135.41 24.1136C134.801 23.7386 134.327 23.214 133.99 22.5398C133.653 21.8655 133.484 21.0776 133.484 20.1761C133.484 19.2708 133.653 18.4792 133.99 17.8011C134.327 17.1231 134.801 16.5966 135.41 16.2216C136.02 15.8466 136.734 15.6591 137.553 15.6591C138.371 15.6591 139.085 15.8466 139.695 16.2216C140.304 16.5966 140.778 17.1231 141.115 17.8011C141.452 18.4792 141.621 19.2708 141.621 20.1761C141.621 21.0776 141.452 21.8655 141.115 22.5398C140.778 23.214 140.304 23.7386 139.695 24.1136C139.085 24.4886 138.371 24.6761 137.553 24.6761ZM137.558 23.25C138.089 23.25 138.528 23.1098 138.876 22.8295C139.225 22.5492 139.482 22.1761 139.649 21.7102C139.82 21.2443 139.905 20.7311 139.905 20.1704C139.905 19.6136 139.82 19.1023 139.649 18.6364C139.482 18.1667 139.225 17.7898 138.876 17.5057C138.528 17.2216 138.089 17.0795 137.558 17.0795C137.024 17.0795 136.581 17.2216 136.229 17.5057C135.88 17.7898 135.621 18.1667 135.45 18.6364C135.284 19.1023 135.2 19.6136 135.2 20.1704C135.2 20.7311 135.284 21.2443 135.45 21.7102C135.621 22.1761 135.88 22.5492 136.229 22.8295C136.581 23.1098 137.024 23.25 137.558 23.25ZM145.216 19.3182V24.5H143.517V15.7727H145.148V17.1932H145.256C145.456 16.7311 145.771 16.3598 146.199 16.0795C146.631 15.7992 147.174 15.6591 147.83 15.6591C148.424 15.6591 148.945 15.7841 149.392 16.0341C149.839 16.2803 150.186 16.6477 150.432 17.1364C150.678 17.625 150.801 18.2292 150.801 18.9489V24.5H149.102V19.1534C149.102 18.5208 148.937 18.0265 148.608 17.6704C148.278 17.3106 147.826 17.1307 147.25 17.1307C146.856 17.1307 146.506 17.2159 146.199 17.3864C145.896 17.5568 145.655 17.8068 145.477 18.1364C145.303 18.4621 145.216 18.8561 145.216 19.3182Z" fill="#E8E8E8"/>
<path d="M60.9357 43.5V31.1364H63.924V36.0987H68.7958V31.1364H71.778V43.5H68.7958V38.5316H63.924V43.5H60.9357ZM77.981 43.6751C77.007 43.6751 76.1699 43.4758 75.4696 43.0774C74.7734 42.6749 74.2361 42.1155 73.8578 41.3991C73.4835 40.6787 73.2963 39.8436 73.2963 38.8938C73.2963 37.94 73.4835 37.1049 73.8578 36.3885C74.2361 35.6681 74.7734 35.1087 75.4696 34.7102C76.1699 34.3078 77.007 34.1065 77.981 34.1065C78.9549 34.1065 79.79 34.3078 80.4863 34.7102C81.1866 35.1087 81.7239 35.6681 82.0982 36.3885C82.4765 37.1049 82.6656 37.94 82.6656 38.8938C82.6656 39.8436 82.4765 40.6787 82.0982 41.3991C81.7239 42.1155 81.1866 42.6749 80.4863 43.0774C79.79 43.4758 78.9549 43.6751 77.981 43.6751ZM77.9991 41.4474C78.3533 41.4474 78.6531 41.3388 78.8986 41.1214C79.1441 40.9041 79.3312 40.6023 79.46 40.2159C79.5928 39.8295 79.6592 39.3828 79.6592 38.8757C79.6592 38.3605 79.5928 37.9098 79.46 37.5234C79.3312 37.1371 79.1441 36.8352 78.8986 36.6179C78.6531 36.4006 78.3533 36.2919 77.9991 36.2919C77.6329 36.2919 77.323 36.4006 77.0694 36.6179C76.8199 36.8352 76.6287 37.1371 76.4959 37.5234C76.3671 37.9098 76.3027 38.3605 76.3027 38.8757C76.3027 39.3828 76.3671 39.8295 76.4959 40.2159C76.6287 40.6023 76.8199 40.9041 77.0694 41.1214C77.323 41.3388 77.6329 41.4474 77.9991 41.4474ZM84.1779 43.5V34.2273H86.9851V35.9297H87.0877C87.2809 35.3662 87.6069 34.9215 88.0657 34.5955C88.5245 34.2695 89.0718 34.1065 89.7077 34.1065C90.3517 34.1065 90.903 34.2715 91.3618 34.6016C91.8206 34.9316 92.1124 35.3743 92.2372 35.9297H92.3338C92.5068 35.3783 92.8449 34.9376 93.348 34.6076C93.8511 34.2735 94.4447 34.1065 95.1289 34.1065C96.0062 34.1065 96.7186 34.3882 97.266 34.9517C97.8133 35.5111 98.087 36.2798 98.087 37.2578V43.5H95.1349V37.9339C95.1349 37.4711 95.0162 37.119 94.7787 36.8775C94.5413 36.632 94.2334 36.5092 93.8551 36.5092C93.4486 36.5092 93.1286 36.642 92.8952 36.9077C92.6658 37.1693 92.5511 37.5214 92.5511 37.9641V43.5H89.7138V37.9038C89.7138 37.4731 89.597 37.133 89.3636 36.8835C89.1302 36.634 88.8223 36.5092 88.44 36.5092C88.1824 36.5092 87.955 36.5716 87.7578 36.6964C87.5606 36.8171 87.4056 36.9902 87.2929 37.2155C87.1843 37.4409 87.1299 37.7065 87.1299 38.0124V43.5H84.1779ZM104.251 43.6751C103.281 43.6751 102.444 43.4839 101.739 43.1016C101.039 42.7152 100.5 42.1658 100.121 41.4535C99.7471 40.7371 99.56 39.8859 99.56 38.8998C99.56 37.942 99.7491 37.1049 100.127 36.3885C100.506 35.6681 101.039 35.1087 101.727 34.7102C102.415 34.3078 103.226 34.1065 104.16 34.1065C104.82 34.1065 105.424 34.2092 105.971 34.4144C106.519 34.6197 106.991 34.9235 107.39 35.326C107.788 35.7284 108.098 36.2255 108.32 36.8171C108.541 37.4047 108.652 38.0788 108.652 38.8395V39.576H100.592V37.8615H105.905C105.901 37.5476 105.826 37.2679 105.681 37.0224C105.537 36.7769 105.337 36.5857 105.084 36.4489C104.834 36.308 104.546 36.2376 104.22 36.2376C103.89 36.2376 103.595 36.312 103.333 36.4609C103.071 36.6058 102.864 36.805 102.711 37.0586C102.558 37.3081 102.478 37.5918 102.47 37.9098V39.6545C102.47 40.0328 102.544 40.3648 102.693 40.6506C102.842 40.9323 103.053 41.1516 103.327 41.3086C103.601 41.4655 103.927 41.544 104.305 41.544C104.567 41.544 104.804 41.5078 105.017 41.4354C105.231 41.3629 105.414 41.2563 105.567 41.1154C105.72 40.9745 105.834 40.8015 105.911 40.5962L108.621 40.6747C108.509 41.2824 108.261 41.8117 107.879 42.2624C107.501 42.7092 107.004 43.0573 106.388 43.3068C105.772 43.5523 105.06 43.6751 104.251 43.6751ZM110.159 43.5V31.1364H113.111V35.815H113.172C113.292 35.5333 113.464 35.2616 113.685 35C113.91 34.7384 114.196 34.5251 114.542 34.3601C114.892 34.191 115.311 34.1065 115.798 34.1065C116.442 34.1065 117.043 34.2756 117.603 34.6136C118.166 34.9517 118.621 35.4729 118.967 36.1772C119.313 36.8815 119.486 37.779 119.486 38.8697C119.486 39.9201 119.319 40.7995 118.985 41.5078C118.655 42.2161 118.209 42.7474 117.645 43.1016C117.086 43.4557 116.464 43.6328 115.78 43.6328C115.313 43.6328 114.908 43.5563 114.566 43.4034C114.224 43.2505 113.936 43.0492 113.703 42.7997C113.474 42.5502 113.297 42.2825 113.172 41.9968H113.081V43.5H110.159ZM113.051 38.8636C113.051 39.3627 113.117 39.7973 113.25 40.1676C113.387 40.5379 113.582 40.8256 113.836 41.0309C114.093 41.2321 114.401 41.3327 114.759 41.3327C115.122 41.3327 115.43 41.2321 115.683 41.0309C115.937 40.8256 116.128 40.5379 116.257 40.1676C116.389 39.7973 116.456 39.3627 116.456 38.8636C116.456 38.3646 116.389 37.9319 116.257 37.5657C116.128 37.1994 115.937 36.9157 115.683 36.7145C115.434 36.5132 115.126 36.4126 114.759 36.4126C114.397 36.4126 114.089 36.5112 113.836 36.7084C113.582 36.9056 113.387 37.1874 113.25 37.5536C113.117 37.9199 113.051 38.3565 113.051 38.8636ZM121.033 43.5V34.2273H123.901V35.9176H123.997C124.167 35.3059 124.442 34.8511 124.825 34.5533C125.207 34.2514 125.652 34.1005 126.159 34.1005C126.296 34.1005 126.436 34.1105 126.581 34.1307C126.726 34.1468 126.861 34.1729 126.986 34.2092V36.7748C126.845 36.7266 126.66 36.6883 126.43 36.6601C126.205 36.632 126.004 36.6179 125.827 36.6179C125.477 36.6179 125.161 36.6964 124.879 36.8533C124.601 37.0063 124.382 37.2216 124.221 37.4993C124.064 37.773 123.985 38.0949 123.985 38.4652V43.5H121.033ZM132.042 43.6751C131.072 43.6751 130.235 43.4839 129.53 43.1016C128.83 42.7152 128.291 42.1658 127.912 41.4535C127.538 40.7371 127.351 39.8859 127.351 38.8998C127.351 37.942 127.54 37.1049 127.918 36.3885C128.297 35.6681 128.83 35.1087 129.518 34.7102C130.206 34.3078 131.017 34.1065 131.951 34.1065C132.611 34.1065 133.215 34.2092 133.762 34.4144C134.31 34.6197 134.782 34.9235 135.181 35.326C135.579 35.7284 135.889 36.2255 136.111 36.8171C136.332 37.4047 136.443 38.0788 136.443 38.8395V39.576H128.383V37.8615H133.696C133.692 37.5476 133.617 37.2679 133.472 37.0224C133.328 36.7769 133.128 36.5857 132.875 36.4489C132.625 36.308 132.337 36.2376 132.012 36.2376C131.681 36.2376 131.386 36.312 131.124 36.4609C130.862 36.6058 130.655 36.805 130.502 37.0586C130.349 37.3081 130.269 37.5918 130.261 37.9098V39.6545C130.261 40.0328 130.335 40.3648 130.484 40.6506C130.633 40.9323 130.844 41.1516 131.118 41.3086C131.392 41.4655 131.718 41.544 132.096 41.544C132.358 41.544 132.595 41.5078 132.808 41.4354C133.022 41.3629 133.205 41.2563 133.358 41.1154C133.511 40.9745 133.625 40.8015 133.702 40.5962L136.412 40.6747C136.3 41.2824 136.052 41.8117 135.67 42.2624C135.292 42.7092 134.795 43.0573 134.179 43.3068C133.563 43.5523 132.851 43.6751 132.042 43.6751ZM139.583 43.5L137.169 34.2273H140.133L141.382 40.1676H141.461L142.801 34.2273H145.693L147.069 40.1253H147.148L148.361 34.2273H151.325L148.904 43.5H145.747L144.298 38.0969H144.196L142.747 43.5H139.583Z" fill="url(#paint1_linear_1_50)"/>
</g>
<defs>
<filter id="filter0_d_1_50" x="6.28571" y="1.78571" width="51.4286" height="52.4286" filterUnits="userSpaceOnUse" color-interpolation-filters="sRGB">
<feFlood flood-opacity="0" result="BackgroundImageFix"/>
<feColorMatrix in="SourceAlpha" type="matrix" values="0 0 0 0 0 0 0 0 0 0 0 0 0 0 0 0 0 0 127 0" result="hardAlpha"/>
<feOffset/>
<feGaussianBlur stdDeviation="2.85714"/>
<feComposite in2="hardAlpha" operator="out"/>
<feColorMatrix type="matrix" values="0 0 0 0 0 0 0 0 0 0 0 0 0 0 0 0 0 0 0.25 0"/>
<feBlend mode="normal" in2="BackgroundImageFix" result="effect1_dropShadow_1_50"/>
<feBlend mode="normal" in="SourceGraphic" in2="effect1_dropShadow_1_50" result="shape"/>
</filter>
<filter id="filter1_d_1_50" x="54.4" y="3.9" width="103.2" height="48.2" filterUnits="userSpaceOnUse" color-interpolation-filters="sRGB">
<feFlood flood-opacity="0" result="BackgroundImageFix"/>
<feColorMatrix in="SourceAlpha" type="matrix" values="0 0 0 0 0 0 0 0 0 0 0 0 0 0 0 0 0 0 127 0" result="hardAlpha"/>
<feOffset/>
<feGaussianBlur stdDeviation="2.8"/>
<feComposite in2="hardAlpha" operator="out"/>
<feColorMatrix type="matrix" values="0 0 0 0 0 0 0 0 0 0 0 0 0 0 0 0 0 0 0.25 0"/>
<feBlend mode="normal" in2="BackgroundImageFix" result="effect1_dropShadow_1_50"/>
<feBlend mode="normal" in="SourceGraphic" in2="effect1_dropShadow_1_50" result="shape"/>
</filter>
<linearGradient id="paint0_linear_1_50" x1="82" y1="0" x2="82" y2="56" gradientUnits="userSpaceOnUse">
<stop stop-color="#2E2A24"/>
<stop offset="1" stop-color="#25221D"/>
</linearGradient>
<linearGradient id="paint1_linear_1_50" x1="106" y1="28.5" x2="106" y2="46.5" gradientUnits="userSpaceOnUse">
<stop stop-color="#FFDB96"/>
<stop offset="1" stop-color="#FBB040"/>
</linearGradient>
</defs>
</svg>
