<svg width="233" height="40" viewBox="0 0 233 40" fill="none" xmlns="http://www.w3.org/2000/svg">
<g clip-path="url(#clip0_1_56)">
<rect width="233.001" height="40.0014" rx="8" fill="url(#paint0_linear_1_56)"/>
<g filter="url(#filter0_d_1_56)">
<mask id="mask0_1_56" style="mask-type:luminance" maskUnits="userSpaceOnUse" x="9" y="6" width="26" height="28">
<path d="M21.3873 6.17713L10.4132 12.5113C10.0021 12.7483 9.75 13.1859 9.75 13.6589V26.336C9.75 26.8093 10.0021 27.2467 10.4132 27.4837L21.388 33.8228C21.7983 34.0591 22.3042 34.0591 22.7139 33.8228L33.6869 27.4837C34.0959 27.2467 34.3486 26.8091 34.3486 26.336V13.6589C34.3486 13.1859 34.0959 12.7483 33.6843 12.5113L22.7129 6.17713C22.5071 6.05913 22.2779 6 22.0486 6C21.8194 6 21.5902 6.05913 21.3844 6.17713" fill="white"/>
</mask>
<g mask="url(#mask0_1_56)">
<path d="M45.4383 11.4357L14.5152 -3.72169L-1.34026 28.6233L29.582 43.7815L45.4383 11.4357Z" fill="url(#paint1_linear_1_56)"/>
</g>
<mask id="mask1_1_56" style="mask-type:luminance" maskUnits="userSpaceOnUse" x="10" y="6" width="24" height="28">
<path d="M10.0219 27.1409C10.1269 27.2772 10.2582 27.3952 10.4127 27.4837L19.8265 32.9213L21.3946 33.8225C21.629 33.958 21.8963 34.0153 22.1588 33.9958C22.2463 33.9887 22.3339 33.9723 22.4193 33.9481L33.9935 12.7553C33.905 12.659 33.8013 12.5782 33.6851 12.5105L26.4995 8.36101L22.7011 6.17557C22.5933 6.11305 22.4763 6.06877 22.3573 6.03751L10.0219 27.1409Z" fill="white"/>
</mask>
<g mask="url(#mask1_1_56)">
<path d="M-3.34805 15.9189L18.4868 45.4713L47.3638 24.1363L25.5276 -5.41534L-3.34805 15.9189Z" fill="url(#paint2_linear_1_56)"/>
</g>
<mask id="mask2_1_56" style="mask-type:luminance" maskUnits="userSpaceOnUse" x="10" y="6" width="25" height="28">
<path d="M21.9176 6.0073C21.7334 6.02553 21.5535 6.08284 21.3875 6.17713L10.4447 12.493L22.2445 33.9854C22.4086 33.9619 22.5701 33.9072 22.716 33.8228L33.6901 27.4837C34.0287 27.2873 34.2605 26.955 34.3309 26.5783L22.3018 6.02892C22.2133 6.01146 22.1247 6.00235 22.0335 6.00235C21.9971 6.00235 21.9606 6.00417 21.9241 6.00756" fill="white"/>
</mask>
<g mask="url(#mask2_1_56)">
<path d="M10.4444 6.00235V33.9859H34.3262V6.00235H10.4444Z" fill="url(#paint3_linear_1_56)"/>
</g>
<g opacity="0.7">
<mask id="path-9-outside-1_1_56" maskUnits="userSpaceOnUse" x="16.9789" y="14.979" width="21" height="21" fill="black">
<rect fill="white" x="16.9789" y="14.979" width="21" height="21"/>
<path fill-rule="evenodd" clip-rule="evenodd" d="M21.9961 18.1882C21.7172 17.9092 21.265 17.9092 20.9861 18.1882L20.1886 18.9859C19.9097 19.2649 19.9097 19.7172 20.1886 19.9962L26.011 25.8201L20.1882 31.6419C19.9092 31.9209 19.9092 32.3731 20.1882 32.652L20.9858 33.4495C21.2648 33.7285 21.7171 33.7285 21.9961 33.4495L27.8185 27.6281L33.6387 33.4498C33.9176 33.7288 34.3698 33.7288 34.6487 33.4498L35.4462 32.6521C35.7251 32.3731 35.7251 31.9208 35.4462 31.6418L29.6264 25.8205L35.4491 19.9988C35.7281 19.7199 35.7281 19.2677 35.4491 18.9887L34.6514 18.1912C34.3724 17.9123 33.9201 17.9123 33.6412 18.1912L27.8189 24.0125L21.9961 18.1882Z"/>
</mask>
<path fill-rule="evenodd" clip-rule="evenodd" d="M21.9961 18.1882C21.7172 17.9092 21.265 17.9092 20.9861 18.1882L20.1886 18.9859C19.9097 19.2649 19.9097 19.7172 20.1886 19.9962L26.011 25.8201L20.1882 31.6419C19.9092 31.9209 19.9092 32.3731 20.1882 32.652L20.9858 33.4495C21.2648 33.7285 21.7171 33.7285 21.9961 33.4495L27.8185 27.6281L33.6387 33.4498C33.9176 33.7288 34.3698 33.7288 34.6487 33.4498L35.4462 32.6521C35.7251 32.3731 35.7251 31.9208 35.4462 31.6418L29.6264 25.8205L35.4491 19.9988C35.7281 19.7199 35.7281 19.2677 35.4491 18.9887L34.6514 18.1912C34.3724 17.9123 33.9201 17.9123 33.6412 18.1912L27.8189 24.0125L21.9961 18.1882Z" fill="url(#paint4_linear_1_56)"/>
<path d="M20.9861 18.1882L19.4706 16.6732L19.4706 16.6732L20.9861 18.1882ZM21.9961 18.1882L23.5115 16.6732L23.5115 16.6732L21.9961 18.1882ZM20.1886 18.9859L18.6731 17.4709L20.1886 18.9859ZM20.1886 19.9962L18.6731 21.5112L18.6731 21.5112L20.1886 19.9962ZM26.011 25.8201L27.5261 27.3355L29.0414 25.8204L27.5264 24.3051L26.011 25.8201ZM20.1882 31.6419L21.7033 33.1573L21.7033 33.1573L20.1882 31.6419ZM20.1882 32.652L21.7033 31.1367L21.7033 31.1367L20.1882 32.652ZM20.9858 33.4495L19.4707 34.9649L19.4707 34.9649L20.9858 33.4495ZM21.9961 33.4495L23.5112 34.9649L23.5112 34.9649L21.9961 33.4495ZM27.8185 27.6281L29.3339 26.1131L27.8188 24.5976L26.3034 26.1128L27.8185 27.6281ZM33.6387 33.4498L32.1232 34.9649L32.1232 34.9649L33.6387 33.4498ZM34.6487 33.4498L33.1333 31.9348L33.1333 31.9348L34.6487 33.4498ZM35.4462 32.6521L33.9308 31.1371L33.9308 31.1371L35.4462 32.6521ZM35.4462 31.6418L36.9616 30.1268L36.9616 30.1268L35.4462 31.6418ZM29.6264 25.8205L28.1113 24.3052L26.596 25.8202L28.111 27.3355L29.6264 25.8205ZM35.4491 19.9988L33.934 18.4835L33.934 18.4835L35.4491 19.9988ZM35.4491 18.9887L33.934 20.5041L33.934 20.5041L35.4491 18.9887ZM34.6514 18.1912L36.1665 16.6759L36.1665 16.6759L34.6514 18.1912ZM33.6412 18.1912L35.1563 19.7066L35.1563 19.7066L33.6412 18.1912ZM27.8189 24.0125L26.3035 25.5275L27.8186 27.043L29.334 25.5279L27.8189 24.0125ZM22.5015 19.7032C21.9435 20.2613 21.0386 20.2613 20.4807 19.7032L23.5115 16.6732C22.3957 15.5571 20.5864 15.5571 19.4706 16.6732L22.5015 19.7032ZM21.704 20.5009L22.5015 19.7032L19.4706 16.6732L18.6731 17.4709L21.704 20.5009ZM21.704 18.4812C22.2617 19.039 22.2617 19.9431 21.704 20.5009L18.6731 17.4709C17.5577 18.5866 17.5577 20.3954 18.6731 21.5112L21.704 18.4812ZM27.5264 24.3051L21.704 18.4812L18.6731 21.5112L24.4955 27.3351L27.5264 24.3051ZM21.7033 33.1573L27.5261 27.3355L24.4959 24.3048L18.6731 30.1266L21.7033 33.1573ZM21.7033 31.1367C22.2613 31.6946 22.2613 32.5994 21.7033 33.1573L18.6731 30.1266C17.5571 31.2424 17.5571 33.0516 18.6731 34.1674L21.7033 31.1367ZM22.5009 31.9342L21.7033 31.1367L18.6731 34.1674L19.4707 34.9649L22.5009 31.9342ZM20.481 31.9342C21.0388 31.3764 21.9431 31.3764 22.5009 31.9342L19.4707 34.9649C20.5865 36.0805 22.3954 36.0805 23.5112 34.9649L20.481 31.9342ZM26.3034 26.1128L20.481 31.9342L23.5112 34.9649L29.3336 29.1435L26.3034 26.1128ZM35.1541 31.9348L29.3339 26.1131L26.3031 29.1431L32.1232 34.9649L35.1541 31.9348ZM33.1333 31.9348C33.6912 31.3767 34.5961 31.3767 35.1541 31.9348L32.1232 34.9649C33.239 36.0809 35.0483 36.0809 36.1641 34.9648L33.1333 31.9348ZM33.9308 31.1371L33.1333 31.9348L36.1641 34.9649L36.9616 34.1671L33.9308 31.1371ZM33.9308 33.1569C33.3731 32.599 33.3731 31.6949 33.9308 31.1371L36.9616 34.1671C38.0771 33.0514 38.0771 31.2426 36.9616 30.1268L33.9308 33.1569ZM28.111 27.3355L33.9308 33.1569L36.9616 30.1268L31.1418 24.3055L28.111 27.3355ZM33.934 18.4835L28.1113 24.3052L31.1415 27.3359L36.9642 21.5142L33.934 18.4835ZM33.934 20.5041C33.3759 19.9462 33.3759 19.0414 33.934 18.4835L36.9642 21.5142C38.0802 20.3984 38.0802 18.5892 36.9642 17.4734L33.934 20.5041ZM33.1363 19.7066L33.934 20.5041L36.9642 17.4734L36.1665 16.6759L33.1363 19.7066ZM35.1563 19.7066C34.5984 20.2643 33.6941 20.2643 33.1363 19.7066L36.1665 16.6759C35.0507 15.5603 33.2419 15.5603 32.1261 16.6759L35.1563 19.7066ZM29.334 25.5279L35.1563 19.7066L32.1261 16.6759L26.3038 22.4972L29.334 25.5279ZM20.4807 19.7032L26.3035 25.5275L29.3343 22.4975L23.5115 16.6732L20.4807 19.7032Z" fill="black" mask="url(#path-9-outside-1_1_56)"/>
</g>
</g>
<g filter="url(#filter1_d_1_56)">
<path d="M45.7805 26.5007L42.3515 14.1371H44.3135L46.7223 23.7116H46.837L49.3423 14.1371H51.2862L53.7915 23.7177H53.9062L56.3089 14.1371H58.277L54.8419 26.5007H52.9645L50.3625 17.24H50.266L47.664 26.5007H45.7805ZM62.8258 26.6878C61.9565 26.6878 61.1978 26.4886 60.5499 26.0902C59.9019 25.6917 59.3988 25.1343 59.0406 24.418C58.6824 23.7016 58.5033 22.8645 58.5033 21.9066C58.5033 20.9447 58.6824 20.1036 59.0406 19.3832C59.3988 18.6627 59.9019 18.1033 60.5499 17.7049C61.1978 17.3065 61.9565 17.1072 62.8258 17.1072C63.6951 17.1072 64.4537 17.3065 65.1017 17.7049C65.7497 18.1033 66.2528 18.6627 66.6109 19.3832C66.9691 20.1036 67.1482 20.9447 67.1482 21.9066C67.1482 22.8645 66.9691 23.7016 66.6109 24.418C66.2528 25.1343 65.7497 25.6917 65.1017 26.0902C64.4537 26.4886 63.6951 26.6878 62.8258 26.6878ZM62.8318 25.1726C63.3953 25.1726 63.8621 25.0237 64.2324 24.7258C64.6027 24.428 64.8763 24.0316 65.0534 23.5366C65.2345 23.0415 65.3251 22.4962 65.3251 21.9006C65.3251 21.3089 65.2345 20.7656 65.0534 20.2706C64.8763 19.7715 64.6027 19.3711 64.2324 19.0692C63.8621 18.7674 63.3953 18.6165 62.8318 18.6165C62.2644 18.6165 61.7935 18.7674 61.4192 19.0692C61.0489 19.3711 60.7732 19.7715 60.5921 20.2706C60.415 20.7656 60.3265 21.3089 60.3265 21.9006C60.3265 22.4962 60.415 23.0415 60.5921 23.5366C60.7732 24.0316 61.0489 24.428 61.4192 24.7258C61.7935 25.0237 62.2644 25.1726 62.8318 25.1726ZM70.9681 20.995V26.5007H69.1631V17.228H70.8957V18.7372H71.0104C71.2237 18.2462 71.5577 17.8518 72.0125 17.554C72.4713 17.2561 73.0488 17.1072 73.7451 17.1072C74.3769 17.1072 74.9303 17.24 75.4052 17.5057C75.8801 17.7673 76.2484 18.1577 76.51 18.6768C76.7716 19.196 76.9024 19.8379 76.9024 20.6026V26.5007H75.0974V20.8199C75.0974 20.1478 74.9223 19.6226 74.5721 19.2443C74.222 18.862 73.7411 18.6708 73.1293 18.6708C72.7108 18.6708 72.3385 18.7614 72.0125 18.9425C71.6905 19.1236 71.435 19.3892 71.2458 19.7393C71.0607 20.0855 70.9681 20.504 70.9681 20.995ZM80.8747 14.1371V15.2962C80.8747 15.6382 80.8103 15.9985 80.6815 16.3768C80.5568 16.7511 80.3797 17.1113 80.1503 17.4574C79.9209 17.8035 79.6512 18.1013 79.3413 18.3508L78.4479 17.7109C78.6853 17.3648 78.8906 16.9966 79.0636 16.6062C79.2407 16.2158 79.3292 15.7851 79.3292 15.3143V14.1371H80.8747ZM87.304 17.228V18.6768H82.239V17.228H87.304ZM83.5974 15.0064H85.4024V23.778C85.4024 24.1282 85.4547 24.3918 85.5594 24.5689C85.664 24.7419 85.7988 24.8607 85.9638 24.9251C86.1329 24.9854 86.316 25.0156 86.5132 25.0156C86.6581 25.0156 86.7849 25.0056 86.8935 24.9854C87.0022 24.9653 87.0867 24.9492 87.1471 24.9371L87.4731 26.4283C87.3684 26.4685 87.2195 26.5087 87.0263 26.549C86.8331 26.5933 86.5917 26.6174 86.3019 26.6214C85.827 26.6295 85.3843 26.545 84.9738 26.3679C84.5633 26.1908 84.2312 25.9171 83.9777 25.5469C83.7241 25.1766 83.5974 24.7118 83.5974 24.1523V15.0064ZM100.748 19.4918L99.1123 19.7816C99.0438 19.5723 98.9352 19.3731 98.7863 19.1839C98.6414 18.9948 98.4442 18.8398 98.1947 18.7191C97.9451 18.5984 97.6332 18.538 97.2589 18.538C96.7478 18.538 96.3212 18.6527 95.9791 18.8821C95.637 19.1075 95.466 19.3993 95.466 19.7574C95.466 20.0673 95.5807 20.3169 95.8101 20.506C96.0395 20.6952 96.4097 20.8501 96.9209 20.9709L98.3939 21.3089C99.2471 21.5061 99.883 21.81 100.302 22.2205C100.72 22.631 100.929 23.1643 100.929 23.8203C100.929 24.3757 100.768 24.8707 100.446 25.3054C100.128 25.736 99.6838 26.0741 99.1123 26.3196C98.5448 26.5651 97.8868 26.6878 97.1382 26.6878C96.0998 26.6878 95.2527 26.4665 94.5966 26.0238C93.9406 25.577 93.5382 24.9432 93.3893 24.1221L95.1339 23.8565C95.2426 24.3113 95.466 24.6554 95.804 24.8888C96.1421 25.1182 96.5828 25.2329 97.1261 25.2329C97.7177 25.2329 98.1906 25.1102 98.5448 24.8647C98.899 24.6152 99.076 24.3113 99.076 23.9531C99.076 23.6633 98.9674 23.4199 98.75 23.2226C98.5367 23.0254 98.2087 22.8765 97.766 22.7759L96.1964 22.4318C95.3311 22.2346 94.6912 21.9207 94.2767 21.49C93.8662 21.0594 93.6609 20.5141 93.6609 19.854C93.6609 19.3067 93.8139 18.8278 94.1197 18.4172C94.4256 18.0067 94.8482 17.6868 95.3875 17.4574C95.9268 17.2239 96.5446 17.1072 97.2408 17.1072C98.2429 17.1072 99.0318 17.3246 99.6073 17.7592C100.183 18.1899 100.563 18.7674 100.748 19.4918ZM108.788 22.6552V17.228H110.599V26.5007H108.824V24.8949H108.728C108.514 25.3899 108.172 25.8024 107.701 26.1324C107.234 26.4584 106.653 26.6214 105.957 26.6214C105.361 26.6214 104.834 26.4906 104.375 26.229C103.92 25.9634 103.562 25.571 103.3 25.0518C103.043 24.5327 102.914 23.8907 102.914 23.1261V17.228H104.719V22.9087C104.719 23.5406 104.894 24.0437 105.244 24.418C105.594 24.7922 106.049 24.9794 106.609 24.9794C106.947 24.9794 107.283 24.8949 107.617 24.7258C107.955 24.5568 108.235 24.3012 108.456 23.9591C108.681 23.6171 108.792 23.1824 108.788 22.6552ZM113.024 29.978V17.228H114.787V18.7312H114.938C115.043 18.538 115.194 18.3146 115.391 18.0611C115.588 17.8075 115.862 17.5862 116.212 17.397C116.562 17.2038 117.025 17.1072 117.6 17.1072C118.349 17.1072 119.017 17.2964 119.605 17.6747C120.192 18.053 120.653 18.5984 120.987 19.3107C121.325 20.0231 121.494 20.8803 121.494 21.8824C121.494 22.8846 121.327 23.7438 120.993 24.4602C120.659 25.1726 120.2 25.7219 119.617 26.1083C119.033 26.4906 118.367 26.6818 117.618 26.6818C117.055 26.6818 116.594 26.5872 116.236 26.3981C115.882 26.2089 115.604 25.9876 115.403 25.734C115.202 25.4805 115.047 25.2551 114.938 25.0579H114.829V29.978H113.024ZM114.793 21.8643C114.793 22.5163 114.888 23.0878 115.077 23.5788C115.266 24.0698 115.54 24.4542 115.898 24.7319C116.256 25.0056 116.695 25.1424 117.214 25.1424C117.753 25.1424 118.204 24.9995 118.566 24.7138C118.928 24.424 119.202 24.0316 119.387 23.5366C119.576 23.0415 119.671 22.4841 119.671 21.8643C119.671 21.2526 119.578 20.7032 119.393 20.2163C119.212 19.7293 118.939 19.3449 118.572 19.0632C118.21 18.7815 117.757 18.6406 117.214 18.6406C116.691 18.6406 116.248 18.7754 115.886 19.0451C115.528 19.3147 115.256 19.691 115.071 20.174C114.886 20.6569 114.793 21.2204 114.793 21.8643ZM123.517 29.978V17.228H125.279V18.7312H125.43C125.535 18.538 125.686 18.3146 125.883 18.0611C126.08 17.8075 126.354 17.5862 126.704 17.397C127.054 17.2038 127.517 17.1072 128.093 17.1072C128.841 17.1072 129.509 17.2964 130.097 17.6747C130.684 18.053 131.145 18.5984 131.479 19.3107C131.817 20.0231 131.986 20.8803 131.986 21.8824C131.986 22.8846 131.819 23.7438 131.485 24.4602C131.151 25.1726 130.692 25.7219 130.109 26.1083C129.525 26.4906 128.859 26.6818 128.111 26.6818C127.547 26.6818 127.086 26.5872 126.728 26.3981C126.374 26.2089 126.096 25.9876 125.895 25.734C125.694 25.4805 125.539 25.2551 125.43 25.0579H125.322V29.978H123.517ZM125.285 21.8643C125.285 22.5163 125.38 23.0878 125.569 23.5788C125.758 24.0698 126.032 24.4542 126.39 24.7319C126.748 25.0056 127.187 25.1424 127.706 25.1424C128.245 25.1424 128.696 24.9995 129.058 24.7138C129.421 24.424 129.694 24.0316 129.879 23.5366C130.069 23.0415 130.163 22.4841 130.163 21.8643C130.163 21.2526 130.071 20.7032 129.886 20.2163C129.704 19.7293 129.431 19.3449 129.064 19.0632C128.702 18.7815 128.25 18.6406 127.706 18.6406C127.183 18.6406 126.74 18.7754 126.378 19.0451C126.02 19.3147 125.748 19.691 125.563 20.174C125.378 20.6569 125.285 21.2204 125.285 21.8643ZM137.915 26.6878C137.045 26.6878 136.287 26.4886 135.639 26.0902C134.991 25.6917 134.488 25.1343 134.129 24.418C133.771 23.7016 133.592 22.8645 133.592 21.9066C133.592 20.9447 133.771 20.1036 134.129 19.3832C134.488 18.6627 134.991 18.1033 135.639 17.7049C136.287 17.3065 137.045 17.1072 137.915 17.1072C138.784 17.1072 139.543 17.3065 140.191 17.7049C140.839 18.1033 141.342 18.6627 141.7 19.3832C142.058 20.1036 142.237 20.9447 142.237 21.9066C142.237 22.8645 142.058 23.7016 141.7 24.418C141.342 25.1343 140.839 25.6917 140.191 26.0902C139.543 26.4886 138.784 26.6878 137.915 26.6878ZM137.921 25.1726C138.484 25.1726 138.951 25.0237 139.321 24.7258C139.692 24.428 139.965 24.0316 140.142 23.5366C140.323 23.0415 140.414 22.4962 140.414 21.9006C140.414 21.3089 140.323 20.7656 140.142 20.2706C139.965 19.7715 139.692 19.3711 139.321 19.0692C138.951 18.7674 138.484 18.6165 137.921 18.6165C137.353 18.6165 136.882 18.7674 136.508 19.0692C136.138 19.3711 135.862 19.7715 135.681 20.2706C135.504 20.7656 135.415 21.3089 135.415 21.9006C135.415 22.4962 135.504 23.0415 135.681 23.5366C135.862 24.0316 136.138 24.428 136.508 24.7258C136.882 25.0237 137.353 25.1726 137.921 25.1726ZM144.252 26.5007V17.228H145.997V18.701H146.093C146.262 18.2019 146.56 17.8095 146.987 17.5238C147.417 17.234 147.904 17.0891 148.448 17.0891C148.56 17.0891 148.693 17.0931 148.846 17.1012C149.003 17.1092 149.126 17.1193 149.214 17.1314V18.8579C149.142 18.8378 149.013 18.8157 148.828 18.7915C148.643 18.7634 148.458 18.7493 148.272 18.7493C147.846 18.7493 147.466 18.8398 147.132 19.0209C146.801 19.198 146.54 19.4455 146.347 19.7635C146.154 20.0774 146.057 20.4356 146.057 20.8381V26.5007H144.252ZM155.653 17.228V18.6768H150.588V17.228H155.653ZM151.946 15.0064H153.751V23.778C153.751 24.1282 153.803 24.3918 153.908 24.5689C154.013 24.7419 154.147 24.8607 154.312 24.9251C154.481 24.9854 154.665 25.0156 154.862 25.0156C155.007 25.0156 155.133 25.0056 155.242 24.9854C155.351 24.9653 155.435 24.9492 155.496 24.9371L155.822 26.4283C155.717 26.4685 155.568 26.5087 155.375 26.549C155.182 26.5933 154.94 26.6174 154.651 26.6214C154.176 26.6295 153.733 26.545 153.322 26.3679C152.912 26.1908 152.58 25.9171 152.326 25.5469C152.073 25.1766 151.946 24.7118 151.946 24.1523V15.0064Z" fill="#E8E8E8"/>
<path d="M172.459 13.6371V26.0007H169.924L165.004 18.865H164.925V26.0007H161.937V13.6371H164.509L169.375 20.7606H169.477V13.6371H172.459ZM178.667 26.1758C177.693 26.1758 176.856 25.9765 176.156 25.5781C175.459 25.1757 174.922 24.6162 174.544 23.8998C174.169 23.1794 173.982 22.3443 173.982 21.3945C173.982 20.4407 174.169 19.6056 174.544 18.8892C174.922 18.1688 175.459 17.6094 176.156 17.2109C176.856 16.8085 177.693 16.6072 178.667 16.6072C179.641 16.6072 180.476 16.8085 181.172 17.2109C181.873 17.6094 182.41 18.1688 182.784 18.8892C183.162 19.6056 183.352 20.4407 183.352 21.3945C183.352 22.3443 183.162 23.1794 182.784 23.8998C182.41 24.6162 181.873 25.1757 181.172 25.5781C180.476 25.9765 179.641 26.1758 178.667 26.1758ZM178.685 23.9481C179.039 23.9481 179.339 23.8395 179.585 23.6221C179.83 23.4048 180.017 23.103 180.146 22.7166C180.279 22.3302 180.345 21.8835 180.345 21.3764C180.345 20.8613 180.279 20.4105 180.146 20.0241C180.017 19.6378 179.83 19.3359 179.585 19.1186C179.339 18.9013 179.039 18.7926 178.685 18.7926C178.319 18.7926 178.009 18.9013 177.755 19.1186C177.506 19.3359 177.315 19.6378 177.182 20.0241C177.053 20.4105 176.989 20.8613 176.989 21.3764C176.989 21.8835 177.053 22.3302 177.182 22.7166C177.315 23.103 177.506 23.4048 177.755 23.6221C178.009 23.8395 178.319 23.9481 178.685 23.9481ZM188.251 26.1335C187.566 26.1335 186.945 25.9564 186.385 25.6023C185.826 25.2481 185.379 24.7168 185.045 24.0085C184.711 23.3002 184.544 22.4208 184.544 21.3704C184.544 20.2797 184.717 19.3822 185.063 18.6779C185.409 17.9736 185.862 17.4524 186.421 17.1143C186.985 16.7763 187.591 16.6072 188.238 16.6072C188.725 16.6072 189.142 16.6918 189.488 16.8608C189.834 17.0258 190.12 17.2391 190.345 17.5007C190.571 17.7623 190.742 18.034 190.859 18.3157H190.919V13.6371H193.871V26.0007H190.949V24.4975H190.859C190.734 24.7832 190.557 25.0509 190.327 25.3004C190.098 25.5499 189.81 25.7512 189.464 25.9041C189.122 26.057 188.717 26.1335 188.251 26.1335ZM189.277 23.8334C189.635 23.8334 189.941 23.7328 190.194 23.5316C190.448 23.3263 190.643 23.0386 190.78 22.6683C190.917 22.298 190.985 21.8634 190.985 21.3643C190.985 20.8572 190.917 20.4206 190.78 20.0543C190.647 19.6881 190.452 19.4064 190.194 19.2092C189.941 19.0119 189.635 18.9133 189.277 18.9133C188.911 18.9133 188.601 19.014 188.347 19.2152C188.094 19.4164 187.9 19.7002 187.768 20.0664C187.639 20.4326 187.574 20.8653 187.574 21.3643C187.574 21.8634 187.641 22.298 187.774 22.6683C187.906 23.0386 188.098 23.3263 188.347 23.5316C188.601 23.7328 188.911 23.8334 189.277 23.8334ZM200.072 26.1758C199.102 26.1758 198.265 25.9846 197.561 25.6023C196.861 25.2159 196.321 24.6665 195.943 23.9542C195.569 23.2378 195.382 22.3866 195.382 21.4006C195.382 20.4427 195.571 19.6056 195.949 18.8892C196.327 18.1688 196.861 17.6094 197.549 17.2109C198.237 16.8085 199.048 16.6072 199.982 16.6072C200.642 16.6072 201.246 16.7099 201.793 16.9151C202.34 17.1204 202.813 17.4242 203.212 17.8267C203.61 18.2292 203.92 18.7262 204.141 19.3178C204.363 19.9054 204.473 20.5795 204.473 21.3402V22.0767H196.414V20.3622H201.726C201.722 20.0483 201.648 19.7686 201.503 19.5231C201.358 19.2776 201.159 19.0864 200.905 18.9496C200.656 18.8087 200.368 18.7383 200.042 18.7383C199.712 18.7383 199.416 18.8127 199.155 18.9616C198.893 19.1065 198.686 19.3057 198.533 19.5593C198.38 19.8088 198.3 20.0926 198.291 20.4105V22.1552C198.291 22.5335 198.366 22.8655 198.515 23.1513C198.664 23.433 198.875 23.6523 199.149 23.8093C199.422 23.9663 199.748 24.0447 200.127 24.0447C200.388 24.0447 200.626 24.0085 200.839 23.9361C201.052 23.8636 201.235 23.757 201.388 23.6161C201.541 23.4752 201.656 23.3022 201.733 23.0969L204.443 23.1754C204.33 23.7831 204.083 24.3124 203.701 24.7631C203.322 25.2099 202.825 25.558 202.209 25.8075C201.594 26.053 200.881 26.1758 200.072 26.1758ZM207.641 26.1758C207.207 26.1758 206.834 26.0228 206.524 25.717C206.218 25.4111 206.068 25.0408 206.072 24.6062C206.068 24.1796 206.218 23.8153 206.524 23.5135C206.834 23.2076 207.207 23.0547 207.641 23.0547C208.052 23.0547 208.414 23.2076 208.728 23.5135C209.046 23.8153 209.207 24.1796 209.211 24.6062C209.207 24.8959 209.13 25.1596 208.981 25.397C208.836 25.6345 208.645 25.8236 208.408 25.9645C208.174 26.1053 207.919 26.1758 207.641 26.1758ZM211.161 16.728H214.113V26.3871C214.113 27.1517 213.956 27.7595 213.642 28.2102C213.332 28.661 212.893 28.985 212.326 29.1822C211.758 29.3794 211.088 29.478 210.316 29.478C210.211 29.478 210.112 29.476 210.02 29.4719C209.927 29.4679 209.827 29.4639 209.718 29.4599V27.2202C209.79 27.2282 209.855 27.2342 209.911 27.2383C209.967 27.2423 210.024 27.2443 210.08 27.2443C210.487 27.2443 210.768 27.1678 210.925 27.0149C211.082 26.866 211.161 26.6366 211.161 26.3267V16.728ZM212.634 15.6474C212.219 15.6474 211.863 15.5105 211.565 15.2369C211.267 14.9592 211.118 14.6251 211.118 14.2347C211.118 13.8484 211.267 13.5183 211.565 13.2447C211.863 12.967 212.219 12.8281 212.634 12.8281C213.052 12.8281 213.408 12.967 213.702 13.2447C214 13.5183 214.149 13.8484 214.149 14.2347C214.149 14.6251 214 14.9592 213.702 15.2369C213.408 15.5105 213.052 15.6474 212.634 15.6474ZM224.087 19.5593L221.377 19.6317C221.349 19.4386 221.272 19.2675 221.147 19.1186C221.023 18.9657 220.86 18.8469 220.658 18.7624C220.461 18.6739 220.232 18.6296 219.97 18.6296C219.628 18.6296 219.336 18.698 219.095 18.8349C218.857 18.9717 218.741 19.1568 218.745 19.3903C218.741 19.5714 218.813 19.7283 218.962 19.8611C219.115 19.994 219.387 20.1006 219.777 20.1811L221.564 20.5192C222.49 20.6962 223.178 20.99 223.628 21.4006C224.083 21.8111 224.313 22.3544 224.317 23.0305C224.313 23.6664 224.123 24.2198 223.749 24.6907C223.379 25.1616 222.872 25.5278 222.228 25.7894C221.584 26.047 220.847 26.1758 220.018 26.1758C218.694 26.1758 217.65 25.9041 216.885 25.3608C216.125 24.8134 215.69 24.081 215.581 23.1633L218.497 23.0909C218.561 23.429 218.728 23.6865 218.998 23.8636C219.268 24.0407 219.612 24.1292 220.03 24.1292C220.409 24.1292 220.717 24.0588 220.954 23.918C221.192 23.7771 221.312 23.5899 221.316 23.3565C221.312 23.1472 221.22 22.9802 221.039 22.8555C220.858 22.7267 220.574 22.6261 220.187 22.5536L218.57 22.2457C217.64 22.0767 216.948 21.7648 216.493 21.31C216.038 20.8512 215.813 20.2676 215.817 19.5593C215.813 18.9395 215.978 18.4103 216.312 17.9716C216.646 17.5289 217.121 17.1908 217.736 16.9574C218.352 16.7239 219.079 16.6072 219.916 16.6072C221.171 16.6072 222.161 16.8708 222.886 17.3981C223.61 17.9213 224.011 18.6417 224.087 19.5593Z" fill="#79AB64"/>
</g>
</g>
<rect x="1.07143" y="1.07143" width="230.858" height="37.8585" rx="6.92857" stroke="white" stroke-opacity="0.15" stroke-width="2.14286"/>
<defs>
<filter id="filter0_d_1_56" x="2.39972" y="0.39972" width="41.0017" height="41.0025" filterUnits="userSpaceOnUse" color-interpolation-filters="sRGB">
<feFlood flood-opacity="0" result="BackgroundImageFix"/>
<feColorMatrix in="SourceAlpha" type="matrix" values="0 0 0 0 0 0 0 0 0 0 0 0 0 0 0 0 0 0 127 0" result="hardAlpha"/>
<feOffset/>
<feGaussianBlur stdDeviation="2.80014"/>
<feComposite in2="hardAlpha" operator="out"/>
<feColorMatrix type="matrix" values="0 0 0 0 0 0 0 0 0 0 0 0 0 0 0 0 0 0 0.25 0"/>
<feBlend mode="normal" in2="BackgroundImageFix" result="effect1_dropShadow_1_56"/>
<feBlend mode="normal" in="SourceGraphic" in2="effect1_dropShadow_1_56" result="shape"/>
</filter>
<filter id="filter1_d_1_56" x="36.2871" y="3.78642" width="194.429" height="32.4286" filterUnits="userSpaceOnUse" color-interpolation-filters="sRGB">
<feFlood flood-opacity="0" result="BackgroundImageFix"/>
<feColorMatrix in="SourceAlpha" type="matrix" values="0 0 0 0 0 0 0 0 0 0 0 0 0 0 0 0 0 0 127 0" result="hardAlpha"/>
<feOffset/>
<feGaussianBlur stdDeviation="2.85714"/>
<feComposite in2="hardAlpha" operator="out"/>
<feColorMatrix type="matrix" values="0 0 0 0 0 0 0 0 0 0 0 0 0 0 0 0 0 0 0.25 0"/>
<feBlend mode="normal" in2="BackgroundImageFix" result="effect1_dropShadow_1_56"/>
<feBlend mode="normal" in="SourceGraphic" in2="effect1_dropShadow_1_56" result="shape"/>
</filter>
<linearGradient id="paint0_linear_1_56" x1="116.501" y1="0" x2="116.501" y2="40.0014" gradientUnits="userSpaceOnUse">
<stop stop-color="#2C1B1B"/>
<stop offset="1" stop-color="#1F1414"/>
</linearGradient>
<linearGradient id="paint1_linear_1_56" x1="29.9675" y1="3.83318" x2="14.1131" y2="36.1761" gradientUnits="userSpaceOnUse">
<stop offset="0.3" stop-color="#3E863D"/>
<stop offset="0.5" stop-color="#55934F"/>
<stop offset="0.8" stop-color="#5AAD45"/>
</linearGradient>
<linearGradient id="paint2_linear_1_56" x1="7.70023" y1="30.8645" x2="36.5783" y2="9.52698" gradientUnits="userSpaceOnUse">
<stop offset="0.57" stop-color="#3E863D"/>
<stop offset="0.72" stop-color="#619857"/>
<stop offset="1" stop-color="#76AC64"/>
</linearGradient>
<linearGradient id="paint3_linear_1_56" x1="10.4525" y1="19.9949" x2="34.3307" y2="19.9949" gradientUnits="userSpaceOnUse">
<stop offset="0.16" stop-color="#6BBF47"/>
<stop offset="0.38" stop-color="#79B461"/>
<stop offset="0.47" stop-color="#75AC64"/>
<stop offset="0.7" stop-color="#659E5A"/>
<stop offset="0.9" stop-color="#3E863D"/>
</linearGradient>
<linearGradient id="paint4_linear_1_56" x1="27.8186" y1="17.979" x2="27.8186" y2="33.6591" gradientUnits="userSpaceOnUse">
<stop stop-color="#FF0000"/>
<stop offset="1" stop-color="#CC0000"/>
</linearGradient>
<clipPath id="clip0_1_56">
<rect width="233.001" height="40.0014" rx="8" fill="white"/>
</clipPath>
</defs>
</svg>
