<svg width="180" height="56" viewBox="0 0 180 56" fill="none" xmlns="http://www.w3.org/2000/svg">
<g clip-path="url(#clip0_1_50)">
<rect width="180" height="56" rx="8" fill="url(#paint0_linear_1_50)"/>
<g filter="url(#filter0_d_1_50)">
<mask id="mask0_1_50" style="mask-type:luminance" maskUnits="userSpaceOnUse" x="14" y="8" width="36" height="40">
<path d="M31.1247 8.25304L15.4474 17.3018C14.8602 17.6404 14.5 18.2656 14.5 18.9413V37.0515C14.5 37.7276 14.8602 38.3524 15.4474 38.691L31.1258 47.7469C31.7119 48.0844 32.4345 48.0844 33.0199 47.7469L48.6956 38.691C49.2799 38.3524 49.6408 37.7273 49.6408 37.0515V18.9413C49.6408 18.2656 49.2799 17.6404 48.6919 17.3018L33.0184 8.25304C32.7244 8.08447 32.3969 8 32.0695 8C31.742 8 31.4145 8.08447 31.1206 8.25304" fill="white"/>
</mask>
<g mask="url(#mask0_1_50)">
<path d="M65.4833 15.7653L21.3075 -5.88813L-1.34322 40.3191L42.8314 61.9736L65.4833 15.7653Z" fill="url(#paint1_linear_1_50)"/>
</g>
<mask id="mask1_1_50" style="mask-type:luminance" maskUnits="userSpaceOnUse" x="14" y="8" width="36" height="40">
<path d="M14.8885 38.2013C15.0385 38.396 15.226 38.5645 15.4467 38.691L28.8949 46.459L31.1351 47.7465C31.47 47.94 31.8518 48.0219 32.2269 47.994C32.3519 47.9839 32.4769 47.9605 32.599 47.9259L49.1336 17.6505C49.0071 17.5128 48.859 17.3974 48.693 17.3007L38.4278 11.3729L33.0016 8.25081C32.8476 8.1615 32.6805 8.09824 32.5104 8.05359L14.8885 38.2013Z" fill="white"/>
</mask>
<g mask="url(#mask1_1_50)">
<path d="M-4.21149 22.1698L26.9812 64.3875L68.234 33.909L37.0395 -8.30762L-4.21149 22.1698Z" fill="url(#paint2_linear_1_50)"/>
</g>
<mask id="mask2_1_50" style="mask-type:luminance" maskUnits="userSpaceOnUse" x="15" y="8" width="35" height="40">
<path d="M31.8823 8.01043C31.6192 8.03647 31.3621 8.11834 31.1251 8.25304L15.4924 17.2758L32.3493 47.9791C32.5837 47.9456 32.8145 47.8674 33.0228 47.7469L48.7001 38.691C49.1839 38.4105 49.515 37.9356 49.6155 37.3976L32.4312 8.04131C32.3047 8.01638 32.1781 8.00336 32.0479 8.00336C31.9958 8.00336 31.9437 8.00596 31.8916 8.01079" fill="white"/>
</mask>
<g mask="url(#mask2_1_50)">
<path d="M15.4918 8.00335V47.9798H49.6086V8.00335H15.4918Z" fill="url(#paint3_linear_1_50)"/>
</g>
<g opacity="0.7">
<mask id="path-9-outside-1_1_50" maskUnits="userSpaceOnUse" x="25.986" y="21.986" width="28" height="28" fill="black">
<rect fill="white" x="25.986" y="21.986" width="28" height="28"/>
<path fill-rule="evenodd" clip-rule="evenodd" d="M31.778 25.1952C31.4991 24.9162 31.0469 24.9162 30.768 25.1952L29.1958 26.7678C28.9169 27.0467 28.9169 27.4991 29.1958 27.778L37.73 36.3144L29.1952 44.8478C28.9162 45.1267 28.9162 45.5789 29.1952 45.8579L30.7677 47.4301C31.0466 47.709 31.4989 47.709 31.7779 47.4301L40.3121 38.8973L48.8431 47.4305C49.122 47.7095 49.5742 47.7095 49.8531 47.4305L51.4253 45.858C51.7042 45.579 51.7042 45.1267 51.4253 44.8477L42.8949 36.315L51.4295 27.7819C51.7084 27.5029 51.7084 27.0507 51.4295 26.7718L49.857 25.1996C49.578 24.9206 49.1257 24.9206 48.8467 25.1996L40.3127 33.7322L31.778 25.1952Z"/>
</mask>
<path fill-rule="evenodd" clip-rule="evenodd" d="M31.778 25.1952C31.4991 24.9162 31.0469 24.9162 30.768 25.1952L29.1958 26.7678C28.9169 27.0467 28.9169 27.4991 29.1958 27.778L37.73 36.3144L29.1952 44.8478C28.9162 45.1267 28.9162 45.5789 29.1952 45.8579L30.7677 47.4301C31.0466 47.709 31.4989 47.709 31.7779 47.4301L40.3121 38.8973L48.8431 47.4305C49.122 47.7095 49.5742 47.7095 49.8531 47.4305L51.4253 45.858C51.7042 45.579 51.7042 45.1267 51.4253 44.8477L42.8949 36.315L51.4295 27.7819C51.7084 27.5029 51.7084 27.0507 51.4295 26.7718L49.857 25.1996C49.578 24.9206 49.1257 24.9206 48.8467 25.1996L40.3127 33.7322L31.778 25.1952Z" fill="url(#paint4_linear_1_50)"/>
<path d="M30.768 25.1952L29.2525 23.6802L29.2525 23.6802L30.768 25.1952ZM31.778 25.1952L30.2626 26.7102L30.2626 26.7102L31.778 25.1952ZM29.1958 26.7678L27.6804 25.2527L27.6804 25.2527L29.1958 26.7678ZM29.1958 27.778L27.6804 29.2931L27.6804 29.2931L29.1958 27.778ZM37.73 36.3144L39.2451 37.8298L40.7604 36.3148L39.2454 34.7994L37.73 36.3144ZM29.1952 44.8478L27.6801 43.3324L27.6801 43.3324L29.1952 44.8478ZM29.1952 45.8579L27.6801 47.3732L27.6801 47.3732L29.1952 45.8579ZM30.7677 47.4301L29.2526 48.9454L29.2526 48.9454L30.7677 47.4301ZM31.7779 47.4301L30.2628 45.9147L30.2628 45.9147L31.7779 47.4301ZM40.3121 38.8973L41.8276 37.3823L40.3125 35.8668L38.797 37.3819L40.3121 38.8973ZM48.8431 47.4305L47.3277 48.9456L47.3277 48.9456L48.8431 47.4305ZM49.8531 47.4305L51.3686 48.9456L51.3686 48.9456L49.8531 47.4305ZM51.4253 45.858L52.9407 47.373L52.9407 47.373L51.4253 45.858ZM51.4253 44.8477L52.9407 43.3327L52.9407 43.3326L51.4253 44.8477ZM42.8949 36.315L41.3798 34.7997L39.8645 36.3147L41.3794 37.83L42.8949 36.315ZM51.4295 27.7819L49.9144 26.2665L49.9144 26.2665L51.4295 27.7819ZM51.4295 26.7718L49.9144 28.2871L49.9144 28.2871L51.4295 26.7718ZM49.857 25.1996L51.3721 23.6842L51.3721 23.6842L49.857 25.1996ZM48.8467 25.1996L47.3316 23.6842L47.3316 23.6842L48.8467 25.1996ZM40.3127 33.7322L38.7973 35.2472L40.3124 36.7627L41.8278 35.2475L40.3127 33.7322ZM32.2834 26.7102C31.7254 27.2684 30.8205 27.2684 30.2626 26.7102L33.2934 23.6802C32.1776 22.5641 30.3683 22.5641 29.2525 23.6802L32.2834 26.7102ZM30.7113 28.2828L32.2834 26.7102L29.2525 23.6802L27.6804 25.2527L30.7113 28.2828ZM30.7113 26.263C31.2689 26.8208 31.2689 27.725 30.7113 28.2828L27.6804 25.2527C26.5649 26.3685 26.5649 28.1773 27.6804 29.2931L30.7113 26.263ZM39.2454 34.7994L30.7113 26.263L27.6804 29.2931L36.2145 37.8295L39.2454 34.7994ZM30.7103 46.3631L39.2451 37.8298L36.2149 34.7991L27.6801 43.3324L30.7103 46.3631ZM30.7103 44.3425C31.2683 44.9004 31.2683 45.8052 30.7103 46.3631L27.6801 43.3324C26.5641 44.4482 26.5641 46.2574 27.6801 47.3732L30.7103 44.3425ZM32.2828 45.9147L30.7103 44.3425L27.6801 47.3732L29.2526 48.9454L32.2828 45.9147ZM30.2628 45.9147C30.8207 45.357 31.7249 45.357 32.2828 45.9147L29.2526 48.9454C30.3683 50.061 32.1772 50.061 33.293 48.9454L30.2628 45.9147ZM38.797 37.3819L30.2628 45.9147L33.293 48.9454L41.8272 40.4126L38.797 37.3819ZM50.3585 45.9155L41.8276 37.3823L38.7967 40.4123L47.3277 48.9456L50.3585 45.9155ZM48.3377 45.9155C48.8957 45.3574 49.8006 45.3574 50.3585 45.9155L47.3277 48.9456C48.4435 50.0616 50.2528 50.0616 51.3686 48.9456L48.3377 45.9155ZM49.9098 44.3429L48.3377 45.9155L51.3686 48.9456L52.9407 47.373L49.9098 44.3429ZM49.9098 46.3627C49.3522 45.8049 49.3522 44.9007 49.9098 44.3429L52.9407 47.373C54.0562 46.2572 54.0562 44.4484 52.9407 43.3327L49.9098 46.3627ZM41.3794 37.83L49.9098 46.3627L52.9407 43.3326L44.4103 34.8L41.3794 37.83ZM49.9144 26.2665L41.3798 34.7997L44.41 37.8304L52.9446 29.2972L49.9144 26.2665ZM49.9144 28.2871C49.3563 27.7292 49.3563 26.8244 49.9144 26.2665L52.9446 29.2972C54.0605 28.1814 54.0605 26.3722 52.9446 25.2564L49.9144 28.2871ZM48.3419 26.7149L49.9144 28.2871L52.9446 25.2564L51.3721 23.6842L48.3419 26.7149ZM50.3618 26.7149C49.804 27.2727 48.8997 27.2727 48.3419 26.7149L51.3721 23.6842C50.2563 22.5686 48.4474 22.5686 47.3316 23.6842L50.3618 26.7149ZM41.8278 35.2475L50.3618 26.7149L47.3316 23.6842L38.7976 32.2168L41.8278 35.2475ZM30.2626 26.7102L38.7973 35.2472L41.8281 32.2171L33.2934 23.6802L30.2626 26.7102Z" fill="black" mask="url(#path-9-outside-1_1_50)"/>
</g>
</g>
<g filter="url(#filter1_d_1_50)">
<path d="M63.5568 24.5L60.3295 12.8636H62.1761L64.4432 21.875H64.5511L66.9091 12.8636H68.7386L71.0966 21.8807H71.2045L73.4659 12.8636H75.3182L72.0852 24.5H70.3182L67.8693 15.7841H67.7784L65.3295 24.5H63.5568ZM79.5994 24.6761C78.7812 24.6761 78.0672 24.4886 77.4574 24.1136C76.8475 23.7386 76.374 23.214 76.0369 22.5398C75.6998 21.8655 75.5312 21.0776 75.5312 20.1761C75.5312 19.2708 75.6998 18.4792 76.0369 17.8011C76.374 17.1231 76.8475 16.5966 77.4574 16.2216C78.0672 15.8466 78.7812 15.6591 79.5994 15.6591C80.4176 15.6591 81.1316 15.8466 81.7415 16.2216C82.3513 16.5966 82.8248 17.1231 83.1619 17.8011C83.499 18.4792 83.6676 19.2708 83.6676 20.1761C83.6676 21.0776 83.499 21.8655 83.1619 22.5398C82.8248 23.214 82.3513 23.7386 81.7415 24.1136C81.1316 24.4886 80.4176 24.6761 79.5994 24.6761ZM79.6051 23.25C80.1354 23.25 80.5748 23.1098 80.9233 22.8295C81.2718 22.5492 81.5293 22.1761 81.696 21.7102C81.8665 21.2443 81.9517 20.7311 81.9517 20.1704C81.9517 19.6136 81.8665 19.1023 81.696 18.6364C81.5293 18.1667 81.2718 17.7898 80.9233 17.5057C80.5748 17.2216 80.1354 17.0795 79.6051 17.0795C79.071 17.0795 78.6278 17.2216 78.2755 17.5057C77.9271 17.7898 77.6676 18.1667 77.4971 18.6364C77.3305 19.1023 77.2471 19.6136 77.2471 20.1704C77.2471 20.7311 77.3305 21.2443 77.4971 21.7102C77.6676 22.1761 77.9271 22.5492 78.2755 22.8295C78.6278 23.1098 79.071 23.25 79.6051 23.25ZM87.2628 19.3182V24.5H85.5639V15.7727H87.1946V17.1932H87.3025C87.5033 16.7311 87.8177 16.3598 88.2457 16.0795C88.6775 15.7992 89.2211 15.6591 89.8764 15.6591C90.4711 15.6591 90.9919 15.7841 91.4389 16.0341C91.8859 16.2803 92.2325 16.6477 92.4787 17.1364C92.7249 17.625 92.848 18.2292 92.848 18.9489V24.5H91.1491V19.1534C91.1491 18.5208 90.9844 18.0265 90.6548 17.6704C90.3253 17.3106 89.8726 17.1307 89.2969 17.1307C88.9029 17.1307 88.5525 17.2159 88.2457 17.3864C87.9427 17.5568 87.7022 17.8068 87.5241 18.1364C87.3499 18.4621 87.2628 18.8561 87.2628 19.3182ZM96.5866 12.8636V13.9545C96.5866 14.2765 96.526 14.6155 96.4048 14.9716C96.2874 15.3239 96.1207 15.6629 95.9048 15.9886C95.6889 16.3144 95.4351 16.5947 95.1434 16.8295L94.3025 16.2273C94.526 15.9015 94.7192 15.5549 94.8821 15.1875C95.0487 14.8201 95.1321 14.4148 95.1321 13.9716V12.8636H96.5866ZM102.638 15.7727V17.1364H97.8707V15.7727H102.638ZM99.1491 13.6818H100.848V21.9375C100.848 22.267 100.897 22.5151 100.996 22.6818C101.094 22.8447 101.221 22.9564 101.376 23.017C101.535 23.0739 101.708 23.1023 101.893 23.1023C102.03 23.1023 102.149 23.0928 102.251 23.0739C102.354 23.0549 102.433 23.0398 102.49 23.0284L102.797 24.4318C102.698 24.4697 102.558 24.5076 102.376 24.5454C102.195 24.5871 101.967 24.6098 101.695 24.6136C101.248 24.6212 100.831 24.5417 100.445 24.375C100.058 24.2083 99.7457 23.9508 99.5071 23.6023C99.2684 23.2538 99.1491 22.8163 99.1491 22.2898V13.6818ZM115.291 17.9034L113.751 18.1761C113.687 17.9792 113.585 17.7917 113.445 17.6136C113.308 17.4356 113.123 17.2898 112.888 17.1761C112.653 17.0625 112.359 17.0057 112.007 17.0057C111.526 17.0057 111.124 17.1136 110.803 17.3295C110.481 17.5417 110.32 17.8163 110.32 18.1534C110.32 18.4451 110.428 18.6799 110.643 18.8579C110.859 19.036 111.208 19.1818 111.689 19.2954L113.075 19.6136C113.878 19.7992 114.477 20.0852 114.871 20.4716C115.265 20.8579 115.462 21.3598 115.462 21.9773C115.462 22.5 115.31 22.9659 115.007 23.375C114.708 23.7803 114.289 24.0985 113.751 24.3295C113.217 24.5606 112.598 24.6761 111.893 24.6761C110.916 24.6761 110.119 24.4678 109.501 24.0511C108.884 23.6307 108.505 23.0341 108.365 22.2614L110.007 22.0114C110.109 22.4394 110.32 22.7633 110.638 22.9829C110.956 23.1989 111.371 23.3068 111.882 23.3068C112.439 23.3068 112.884 23.1913 113.217 22.9602C113.551 22.7254 113.717 22.4394 113.717 22.1023C113.717 21.8295 113.615 21.6004 113.41 21.4148C113.21 21.2292 112.901 21.089 112.484 20.9943L111.007 20.6704C110.193 20.4848 109.59 20.1894 109.2 19.7841C108.814 19.3788 108.621 18.8655 108.621 18.2443C108.621 17.7292 108.765 17.2784 109.053 16.892C109.34 16.5057 109.738 16.2045 110.246 15.9886C110.753 15.7689 111.335 15.6591 111.99 15.6591C112.933 15.6591 113.676 15.8636 114.217 16.2727C114.759 16.678 115.117 17.2216 115.291 17.9034ZM122.858 20.8807V15.7727H124.562V24.5H122.892V22.9886H122.801C122.6 23.4545 122.278 23.8428 121.835 24.1534C121.396 24.4602 120.848 24.6136 120.193 24.6136C119.633 24.6136 119.136 24.4905 118.705 24.2443C118.276 23.9943 117.939 23.625 117.693 23.1364C117.451 22.6477 117.33 22.0436 117.33 21.3239V15.7727H119.028V21.1193C119.028 21.714 119.193 22.1875 119.523 22.5398C119.852 22.892 120.28 23.0682 120.807 23.0682C121.125 23.0682 121.441 22.9886 121.756 22.8295C122.074 22.6704 122.337 22.4299 122.545 22.1079C122.758 21.786 122.862 21.3769 122.858 20.8807ZM126.845 27.7727V15.7727H128.504V17.1875H128.646C128.745 17.0057 128.887 16.7954 129.072 16.5568C129.258 16.3182 129.516 16.1098 129.845 15.9318C130.175 15.75 130.61 15.6591 131.152 15.6591C131.856 15.6591 132.485 15.8371 133.038 16.1932C133.591 16.5492 134.025 17.0625 134.339 17.7329C134.658 18.4034 134.817 19.2102 134.817 20.1534C134.817 21.0966 134.66 21.9053 134.345 22.5795C134.031 23.25 133.599 23.767 133.05 24.1307C132.5 24.4905 131.874 24.6704 131.169 24.6704C130.639 24.6704 130.205 24.5814 129.868 24.4034C129.535 24.2254 129.273 24.017 129.084 23.7784C128.894 23.5398 128.749 23.3276 128.646 23.142H128.544V27.7727H126.845ZM128.51 20.1364C128.51 20.75 128.599 21.2879 128.777 21.75C128.955 22.2121 129.213 22.5739 129.55 22.8352C129.887 23.0928 130.3 23.2216 130.788 23.2216C131.296 23.2216 131.72 23.0871 132.061 22.8182C132.402 22.5454 132.66 22.1761 132.834 21.7102C133.012 21.2443 133.101 20.7197 133.101 20.1364C133.101 19.5606 133.014 19.0436 132.839 18.5852C132.669 18.1269 132.411 17.7651 132.067 17.5C131.726 17.2348 131.3 17.1023 130.788 17.1023C130.296 17.1023 129.879 17.2292 129.538 17.4829C129.201 17.7367 128.946 18.0909 128.771 18.5454C128.597 19 128.51 19.5303 128.51 20.1364ZM136.72 27.7727V15.7727H138.379V17.1875H138.521C138.62 17.0057 138.762 16.7954 138.947 16.5568C139.133 16.3182 139.391 16.1098 139.72 15.9318C140.05 15.75 140.485 15.6591 141.027 15.6591C141.731 15.6591 142.36 15.8371 142.913 16.1932C143.466 16.5492 143.9 17.0625 144.214 17.7329C144.533 18.4034 144.692 19.2102 144.692 20.1534C144.692 21.0966 144.535 21.9053 144.22 22.5795C143.906 23.25 143.474 23.767 142.925 24.1307C142.375 24.4905 141.749 24.6704 141.044 24.6704C140.514 24.6704 140.08 24.5814 139.743 24.4034C139.41 24.2254 139.148 24.017 138.959 23.7784C138.769 23.5398 138.624 23.3276 138.521 23.142H138.419V27.7727H136.72ZM138.385 20.1364C138.385 20.75 138.474 21.2879 138.652 21.75C138.83 22.2121 139.088 22.5739 139.425 22.8352C139.762 23.0928 140.175 23.2216 140.663 23.2216C141.171 23.2216 141.595 23.0871 141.936 22.8182C142.277 22.5454 142.535 22.1761 142.709 21.7102C142.887 21.2443 142.976 20.7197 142.976 20.1364C142.976 19.5606 142.889 19.0436 142.714 18.5852C142.544 18.1269 142.286 17.7651 141.942 17.5C141.601 17.2348 141.175 17.1023 140.663 17.1023C140.171 17.1023 139.754 17.2292 139.413 17.4829C139.076 17.7367 138.821 18.0909 138.646 18.5454C138.472 19 138.385 19.5303 138.385 20.1364ZM150.271 24.6761C149.453 24.6761 148.739 24.4886 148.129 24.1136C147.519 23.7386 147.046 23.214 146.709 22.5398C146.372 21.8655 146.203 21.0776 146.203 20.1761C146.203 19.2708 146.372 18.4792 146.709 17.8011C147.046 17.1231 147.519 16.5966 148.129 16.2216C148.739 15.8466 149.453 15.6591 150.271 15.6591C151.089 15.6591 151.803 15.8466 152.413 16.2216C153.023 16.5966 153.497 17.1231 153.834 17.8011C154.171 18.4792 154.339 19.2708 154.339 20.1761C154.339 21.0776 154.171 21.8655 153.834 22.5398C153.497 23.214 153.023 23.7386 152.413 24.1136C151.803 24.4886 151.089 24.6761 150.271 24.6761ZM150.277 23.25C150.807 23.25 151.247 23.1098 151.595 22.8295C151.944 22.5492 152.201 22.1761 152.368 21.7102C152.538 21.2443 152.624 20.7311 152.624 20.1704C152.624 19.6136 152.538 19.1023 152.368 18.6364C152.201 18.1667 151.944 17.7898 151.595 17.5057C151.247 17.2216 150.807 17.0795 150.277 17.0795C149.743 17.0795 149.3 17.2216 148.947 17.5057C148.599 17.7898 148.339 18.1667 148.169 18.6364C148.002 19.1023 147.919 19.6136 147.919 20.1704C147.919 20.7311 148.002 21.2443 148.169 21.7102C148.339 22.1761 148.599 22.5492 148.947 22.8295C149.3 23.1098 149.743 23.25 150.277 23.25ZM156.236 24.5V15.7727H157.878V17.1591H157.969C158.128 16.6894 158.408 16.3201 158.81 16.0511C159.215 15.7784 159.673 15.642 160.185 15.642C160.291 15.642 160.416 15.6458 160.56 15.6534C160.707 15.661 160.823 15.6704 160.906 15.6818V17.3068C160.838 17.2879 160.717 17.267 160.543 17.2443C160.368 17.2178 160.194 17.2045 160.02 17.2045C159.618 17.2045 159.26 17.2898 158.946 17.4602C158.635 17.6269 158.389 17.8598 158.207 18.1591C158.026 18.4545 157.935 18.7917 157.935 19.1704V24.5H156.236ZM166.966 15.7727V17.1364H162.199V15.7727H166.966ZM163.477 13.6818H165.176V21.9375C165.176 22.267 165.225 22.5151 165.324 22.6818C165.422 22.8447 165.549 22.9564 165.704 23.017C165.864 23.0739 166.036 23.1023 166.222 23.1023C166.358 23.1023 166.477 23.0928 166.579 23.0739C166.682 23.0549 166.761 23.0398 166.818 23.0284L167.125 24.4318C167.026 24.4697 166.886 24.5076 166.704 24.5454C166.523 24.5871 166.295 24.6098 166.023 24.6136C165.576 24.6212 165.159 24.5417 164.773 24.375C164.386 24.2083 164.074 23.9508 163.835 23.6023C163.597 23.2538 163.477 22.8163 163.477 22.2898V13.6818Z" fill="#E8E8E8"/>
<path d="M71.4581 31.1364V43.5H68.9226L64.0025 36.3643H63.924V43.5H60.9357V31.1364H63.5074L68.3732 38.2599H68.4758V31.1364H71.4581ZM77.6656 43.6751C76.6916 43.6751 75.8545 43.4758 75.1542 43.0774C74.4579 42.6749 73.9206 42.1155 73.5423 41.3991C73.168 40.6787 72.9809 39.8436 72.9809 38.8938C72.9809 37.94 73.168 37.1049 73.5423 36.3885C73.9206 35.6681 74.4579 35.1087 75.1542 34.7102C75.8545 34.3078 76.6916 34.1065 77.6656 34.1065C78.6395 34.1065 79.4746 34.3078 80.1709 34.7102C80.8712 35.1087 81.4084 35.6681 81.7827 36.3885C82.1611 37.1049 82.3502 37.94 82.3502 38.8938C82.3502 39.8436 82.1611 40.6787 81.7827 41.3991C81.4084 42.1155 80.8712 42.6749 80.1709 43.0774C79.4746 43.4758 78.6395 43.6751 77.6656 43.6751ZM77.6837 41.4474C78.0378 41.4474 78.3377 41.3388 78.5832 41.1214C78.8287 40.9041 79.0158 40.6023 79.1446 40.2159C79.2774 39.8295 79.3438 39.3828 79.3438 38.8757C79.3438 38.3605 79.2774 37.9098 79.1446 37.5234C79.0158 37.1371 78.8287 36.8352 78.5832 36.6179C78.3377 36.4006 78.0378 36.2919 77.6837 36.2919C77.3174 36.2919 77.0075 36.4006 76.754 36.6179C76.5044 36.8352 76.3133 37.1371 76.1805 37.5234C76.0517 37.9098 75.9873 38.3605 75.9873 38.8757C75.9873 39.3828 76.0517 39.8295 76.1805 40.2159C76.3133 40.6023 76.5044 40.9041 76.754 41.1214C77.0075 41.3388 77.3174 41.4474 77.6837 41.4474ZM87.2492 43.6328C86.565 43.6328 85.9432 43.4557 85.3838 43.1016C84.8243 42.7474 84.3776 42.2161 84.0436 41.5078C83.7095 40.7995 83.5425 39.9201 83.5425 38.8697C83.5425 37.779 83.7156 36.8815 84.0617 36.1772C84.4078 35.4729 84.8606 34.9517 85.42 34.6136C85.9834 34.2756 86.5891 34.1065 87.2371 34.1065C87.7241 34.1065 88.1406 34.191 88.4867 34.3601C88.8329 34.5251 89.1186 34.7384 89.344 35C89.5694 35.2616 89.7404 35.5333 89.8571 35.815H89.9175V31.1364H92.8696V43.5H89.9477V41.9968H89.8571C89.7324 42.2825 89.5553 42.5502 89.3259 42.7997C89.0965 43.0492 88.8087 43.2505 88.4626 43.4034C88.1205 43.5563 87.716 43.6328 87.2492 43.6328ZM88.2755 41.3327C88.6336 41.3327 88.9395 41.2321 89.1931 41.0309C89.4466 40.8256 89.6418 40.5379 89.7787 40.1676C89.9155 39.7973 89.9839 39.3627 89.9839 38.8636C89.9839 38.3565 89.9155 37.9199 89.7787 37.5536C89.6458 37.1874 89.4506 36.9056 89.1931 36.7084C88.9395 36.5112 88.6336 36.4126 88.2755 36.4126C87.9092 36.4126 87.5993 36.5132 87.3458 36.7145C87.0922 36.9157 86.899 37.1994 86.7662 37.5657C86.6374 37.9319 86.573 38.3646 86.573 38.8636C86.573 39.3627 86.6394 39.7973 86.7723 40.1676C86.9051 40.5379 87.0962 40.8256 87.3458 41.0309C87.5993 41.2321 87.9092 41.3327 88.2755 41.3327ZM99.071 43.6751C98.1011 43.6751 97.2639 43.4839 96.5596 43.1016C95.8593 42.7152 95.3201 42.1658 94.9417 41.4535C94.5674 40.7371 94.3803 39.8859 94.3803 38.8998C94.3803 37.942 94.5695 37.1049 94.9478 36.3885C95.3261 35.6681 95.8593 35.1087 96.5476 34.7102C97.2358 34.3078 98.0467 34.1065 98.9804 34.1065C99.6405 34.1065 100.244 34.2092 100.792 34.4144C101.339 34.6197 101.812 34.9235 102.21 35.326C102.609 35.7284 102.919 36.2255 103.14 36.8171C103.361 37.4047 103.472 38.0788 103.472 38.8395V39.576H95.4126V37.8615H100.725C100.721 37.5476 100.647 37.2679 100.502 37.0224C100.357 36.7769 100.158 36.5857 99.9041 36.4489C99.6546 36.308 99.3668 36.2376 99.0408 36.2376C98.7108 36.2376 98.415 36.312 98.1534 36.4609C97.8918 36.6058 97.6845 36.805 97.5316 37.0586C97.3786 37.3081 97.2982 37.5918 97.2901 37.9098V39.6545C97.2901 40.0328 97.3646 40.3648 97.5135 40.6506C97.6624 40.9323 97.8737 41.1516 98.1473 41.3086C98.421 41.4655 98.747 41.544 99.1253 41.544C99.3869 41.544 99.6244 41.5078 99.8377 41.4354C100.051 41.3629 100.234 41.2563 100.387 41.1154C100.54 40.9745 100.655 40.8015 100.731 40.5962L103.442 40.6747C103.329 41.2824 103.082 41.8117 102.699 42.2624C102.321 42.7092 101.824 43.0573 101.208 43.3068C100.592 43.5523 99.8799 43.6751 99.071 43.6751ZM106.64 43.6751C106.205 43.6751 105.833 43.5221 105.523 43.2163C105.217 42.9104 105.066 42.5401 105.07 42.1055C105.066 41.6788 105.217 41.3146 105.523 41.0128C105.833 40.7069 106.205 40.554 106.64 40.554C107.05 40.554 107.413 40.7069 107.726 41.0128C108.044 41.3146 108.205 41.6788 108.209 42.1055C108.205 42.3952 108.129 42.6588 107.98 42.8963C107.835 43.1337 107.644 43.3229 107.406 43.4638C107.173 43.6046 106.917 43.6751 106.64 43.6751ZM110.159 34.2273H113.111V43.8864C113.111 44.651 112.954 45.2587 112.641 45.7095C112.331 46.1603 111.892 46.4842 111.324 46.6815C110.757 46.8787 110.087 46.9773 109.314 46.9773C109.21 46.9773 109.111 46.9752 109.018 46.9712C108.926 46.9672 108.825 46.9632 108.717 46.9591V44.7194C108.789 44.7275 108.853 44.7335 108.91 44.7376C108.966 44.7416 109.022 44.7436 109.079 44.7436C109.485 44.7436 109.767 44.6671 109.924 44.5142C110.081 44.3653 110.159 44.1359 110.159 43.826V34.2273ZM111.632 33.1467C111.218 33.1467 110.862 33.0098 110.564 32.7361C110.266 32.4584 110.117 32.1244 110.117 31.734C110.117 31.3476 110.266 31.0176 110.564 30.744C110.862 30.4663 111.218 30.3274 111.632 30.3274C112.051 30.3274 112.407 30.4663 112.701 30.744C112.999 31.0176 113.148 31.3476 113.148 31.734C113.148 32.1244 112.999 32.4584 112.701 32.7361C112.407 33.0098 112.051 33.1467 111.632 33.1467ZM123.086 37.0586L120.375 37.131C120.347 36.9378 120.271 36.7668 120.146 36.6179C120.021 36.465 119.858 36.3462 119.657 36.2617C119.46 36.1732 119.23 36.1289 118.969 36.1289C118.627 36.1289 118.335 36.1973 118.093 36.3342C117.856 36.471 117.739 36.6561 117.743 36.8895C117.739 37.0707 117.812 37.2276 117.961 37.3604C118.113 37.4932 118.385 37.5999 118.776 37.6804L120.562 38.0185C121.488 38.1955 122.176 38.4893 122.627 38.8998C123.082 39.3104 123.311 39.8537 123.315 40.5298C123.311 41.1657 123.122 41.7191 122.748 42.19C122.378 42.6609 121.87 43.0271 121.227 43.2887C120.583 43.5463 119.846 43.6751 119.017 43.6751C117.693 43.6751 116.649 43.4034 115.884 42.8601C115.123 42.3127 114.689 41.5802 114.58 40.6626L117.496 40.5902C117.56 40.9283 117.727 41.1858 117.997 41.3629C118.266 41.54 118.611 41.6285 119.029 41.6285C119.407 41.6285 119.715 41.5581 119.953 41.4172C120.19 41.2764 120.311 41.0892 120.315 40.8558C120.311 40.6465 120.218 40.4795 120.037 40.3547C119.856 40.226 119.572 40.1253 119.186 40.0529L117.568 39.745C116.638 39.576 115.946 39.2641 115.491 38.8093C115.037 38.3505 114.811 37.7669 114.815 37.0586C114.811 36.4388 114.976 35.9096 115.31 35.4709C115.644 35.0282 116.119 34.6901 116.735 34.4567C117.351 34.2232 118.077 34.1065 118.914 34.1065C120.17 34.1065 121.16 34.3701 121.885 34.8974C122.609 35.4206 123.009 36.141 123.086 37.0586Z" fill="#79AB64"/>
</g>
</g>
<rect x="1.05" y="1.05" width="177.9" height="53.9" rx="6.95" stroke="white" stroke-opacity="0.15" stroke-width="2.1"/>
<defs>
<filter id="filter0_d_1_50" x="6.28571" y="2.28571" width="53.2101" height="53.2112" filterUnits="userSpaceOnUse" color-interpolation-filters="sRGB">
<feFlood flood-opacity="0" result="BackgroundImageFix"/>
<feColorMatrix in="SourceAlpha" type="matrix" values="0 0 0 0 0 0 0 0 0 0 0 0 0 0 0 0 0 0 127 0" result="hardAlpha"/>
<feOffset/>
<feGaussianBlur stdDeviation="2.85714"/>
<feComposite in2="hardAlpha" operator="out"/>
<feColorMatrix type="matrix" values="0 0 0 0 0 0 0 0 0 0 0 0 0 0 0 0 0 0 0.25 0"/>
<feBlend mode="normal" in2="BackgroundImageFix" result="effect1_dropShadow_1_50"/>
<feBlend mode="normal" in="SourceGraphic" in2="effect1_dropShadow_1_50" result="shape"/>
</filter>
<filter id="filter1_d_1_50" x="54.4" y="3.9" width="119.2" height="48.6773" filterUnits="userSpaceOnUse" color-interpolation-filters="sRGB">
<feFlood flood-opacity="0" result="BackgroundImageFix"/>
<feColorMatrix in="SourceAlpha" type="matrix" values="0 0 0 0 0 0 0 0 0 0 0 0 0 0 0 0 0 0 127 0" result="hardAlpha"/>
<feOffset/>
<feGaussianBlur stdDeviation="2.8"/>
<feComposite in2="hardAlpha" operator="out"/>
<feColorMatrix type="matrix" values="0 0 0 0 0 0 0 0 0 0 0 0 0 0 0 0 0 0 0.25 0"/>
<feBlend mode="normal" in2="BackgroundImageFix" result="effect1_dropShadow_1_50"/>
<feBlend mode="normal" in="SourceGraphic" in2="effect1_dropShadow_1_50" result="shape"/>
</filter>
<linearGradient id="paint0_linear_1_50" x1="90" y1="0" x2="90" y2="56" gradientUnits="userSpaceOnUse">
<stop stop-color="#2C1B1B"/>
<stop offset="1" stop-color="#1F1414"/>
</linearGradient>
<linearGradient id="paint1_linear_1_50" x1="43.3821" y1="4.90455" x2="20.733" y2="51.1087" gradientUnits="userSpaceOnUse">
<stop offset="0.3" stop-color="#3E863D"/>
<stop offset="0.5" stop-color="#55934F"/>
<stop offset="0.8" stop-color="#5AAD45"/>
</linearGradient>
<linearGradient id="paint2_linear_1_50" x1="11.5718" y1="43.5207" x2="52.8262" y2="13.0385" gradientUnits="userSpaceOnUse">
<stop offset="0.57" stop-color="#3E863D"/>
<stop offset="0.72" stop-color="#619857"/>
<stop offset="1" stop-color="#76AC64"/>
</linearGradient>
<linearGradient id="paint3_linear_1_50" x1="15.5033" y1="27.9927" x2="49.615" y2="27.9927" gradientUnits="userSpaceOnUse">
<stop offset="0.16" stop-color="#6BBF47"/>
<stop offset="0.38" stop-color="#79B461"/>
<stop offset="0.47" stop-color="#75AC64"/>
<stop offset="0.7" stop-color="#659E5A"/>
<stop offset="0.9" stop-color="#3E863D"/>
</linearGradient>
<linearGradient id="paint4_linear_1_50" x1="40.3123" y1="24.986" x2="40.3123" y2="47.6398" gradientUnits="userSpaceOnUse">
<stop stop-color="#FF0000"/>
<stop offset="1" stop-color="#CC0000"/>
</linearGradient>
<clipPath id="clip0_1_50">
<rect width="180" height="56" rx="8" fill="white"/>
</clipPath>
</defs>
</svg>
