<svg width="56" height="56" viewBox="0 0 56 56" fill="none" xmlns="http://www.w3.org/2000/svg">
<rect width="56" height="56" rx="8.4" fill="url(#paint0_linear_1_62)"/>
<rect x="1.05" y="1.05" width="53.9" height="53.9" rx="7.35" stroke="white" stroke-opacity="0.15" stroke-width="2.1"/>
<g filter="url(#filter0_d_1_62)">
<path d="M44.4323 47.0401V8.91988H41.6815V8.005H45.5V48H41.6815V47.0851L44.4323 47.0401Z" fill="white"/>
<path d="M20.7297 21.0434V22.9681H20.7849C21.2685 22.2632 21.9066 21.6808 22.6565 21.2558C23.3851 20.8521 24.2267 20.6497 25.1562 20.6497C26.0606 20.6497 26.8896 20.8246 27.6307 21.1746C28.3781 21.5233 28.9496 22.1382 29.339 23.0244C29.7636 22.3995 30.3389 21.8483 31.0724 21.3746C31.801 20.8959 32.6677 20.6572 33.66 20.6572C34.4162 20.6572 35.1171 20.7497 35.7577 20.9321C36.4033 21.1171 36.956 21.4108 37.4157 21.8158C37.8755 22.2195 38.236 22.7482 38.4947 23.4031C38.7522 24.0555 38.8816 24.8404 38.8816 25.7653V35.3016H34.95V27.2276C34.95 26.7489 34.9312 26.299 34.8947 25.8778C34.8685 25.4941 34.7653 25.1191 34.5908 24.7754C34.4237 24.4617 34.1687 24.203 33.8572 24.0305C33.5344 23.848 33.096 23.7555 32.5383 23.7555C31.9856 23.7555 31.5384 23.8618 31.1943 24.0717C30.8526 24.2842 30.585 24.5592 30.3916 24.8991C30.1919 25.2578 30.06 25.6515 30.0047 26.0577C29.9394 26.4914 29.9068 26.9289 29.9068 27.3701V35.3066H25.9752V27.3076C25.9752 26.8851 25.9664 26.4664 25.9488 26.0577C25.9345 25.6653 25.8547 25.2791 25.7126 24.9129C25.577 24.5667 25.3358 24.273 25.0218 24.0717C24.6977 23.8618 24.2229 23.7555 23.5898 23.7555C23.3411 23.7659 23.0949 23.808 22.8563 23.8805C22.5322 23.9736 22.2307 24.133 21.9707 24.348C21.6843 24.5779 21.4406 24.9091 21.2371 25.3403C21.0349 25.7728 20.9332 26.3377 20.9332 27.0401V35.3141H17.0016V21.0659L20.7297 21.0434Z" fill="white"/>
<path d="M11.5677 8.95988V47.0801H14.3185V47.995H10.5V8H14.306V8.91489L11.5677 8.95988Z" fill="white"/>
</g>
<defs>
<filter id="filter0_d_1_62" x="2.28571" y="2.28571" width="51.4286" height="51.4286" filterUnits="userSpaceOnUse" color-interpolation-filters="sRGB">
<feFlood flood-opacity="0" result="BackgroundImageFix"/>
<feColorMatrix in="SourceAlpha" type="matrix" values="0 0 0 0 0 0 0 0 0 0 0 0 0 0 0 0 0 0 127 0" result="hardAlpha"/>
<feOffset/>
<feGaussianBlur stdDeviation="2.85714"/>
<feComposite in2="hardAlpha" operator="out"/>
<feColorMatrix type="matrix" values="0 0 0 0 0 0 0 0 0 0 0 0 0 0 0 0 0 0 0.25 0"/>
<feBlend mode="normal" in2="BackgroundImageFix" result="effect1_dropShadow_1_62"/>
<feBlend mode="normal" in="SourceGraphic" in2="effect1_dropShadow_1_62" result="shape"/>
</filter>
<linearGradient id="paint0_linear_1_62" x1="28" y1="0" x2="28" y2="56" gradientUnits="userSpaceOnUse">
<stop stop-color="#272727"/>
<stop offset="1"/>
</linearGradient>
</defs>
</svg>
