<svg width="201" height="40" viewBox="0 0 201 40" fill="none" xmlns="http://www.w3.org/2000/svg">
<rect width="201.001" height="40.0014" rx="8" fill="url(#paint0_linear_1_56)"/>
<rect x="1.07143" y="1.07143" width="198.858" height="37.8585" rx="6.92857" stroke="white" stroke-opacity="0.15" stroke-width="2.14286"/>
<g filter="url(#filter0_d_1_56)">
<path d="M10.1875 7.75C10.1875 6.7835 10.971 6 11.9375 6H20.1042C21.0706 6 21.8542 6.7835 21.8542 7.75V15.3333H11.9375C10.971 15.3333 10.1875 14.5498 10.1875 13.5833V7.75Z" fill="#F26207"/>
<path d="M21.8542 15.3333H31.7708C32.7373 15.3333 33.5208 16.1169 33.5208 17.0833V22.9167C33.5208 23.8831 32.7373 24.6667 31.7708 24.6667H21.8542V15.3333Z" fill="#F26207"/>
<path d="M10.1875 26.4167C10.1875 25.4502 10.971 24.6667 11.9375 24.6667H21.8542V32.25C21.8542 33.2165 21.0706 34 20.1042 34H11.9375C10.971 34 10.1875 33.2165 10.1875 32.25V26.4167Z" fill="#F26207"/>
</g>
<g filter="url(#filter1_d_1_56)">
<path d="M44.4041 26.5007H42.424L46.8732 14.1371H49.0284L53.4776 26.5007H51.4975L48.0021 16.3828H47.9055L44.4041 26.5007ZM44.7361 21.6591H51.1594V23.2287H44.7361V21.6591ZM61.8886 17.228L58.526 26.5007H56.5942L53.2256 17.228H55.1634L57.5118 24.3636H57.6084L59.9507 17.228H61.8886ZM66.0178 26.706C65.4302 26.706 64.899 26.5973 64.4241 26.38C63.9492 26.1586 63.5729 25.8386 63.2952 25.4201C63.0215 25.0015 62.8846 24.4884 62.8846 23.8807C62.8846 23.3575 62.9853 22.9268 63.1865 22.5888C63.3877 22.2507 63.6594 21.9831 64.0015 21.7859C64.3436 21.5886 64.7259 21.4397 65.1485 21.3391C65.5711 21.2385 66.0017 21.162 66.4404 21.1097C66.9958 21.0453 67.4466 20.993 67.7927 20.9528C68.1388 20.9085 68.3903 20.8381 68.5473 20.7415C68.7042 20.6449 68.7827 20.4879 68.7827 20.2706V20.2283C68.7827 19.7011 68.6338 19.2926 68.336 19.0028C68.0422 18.7131 67.6035 18.5682 67.0199 18.5682C66.4122 18.5682 65.9333 18.703 65.5832 18.9726C65.237 19.2383 64.9976 19.5341 64.8648 19.8601L63.1684 19.4737C63.3696 18.9103 63.6634 18.4555 64.0498 18.1094C64.4402 17.7592 64.8889 17.5057 65.396 17.3487C65.9031 17.1877 66.4364 17.1072 66.9958 17.1072C67.3661 17.1072 67.7585 17.1515 68.173 17.24C68.5916 17.3246 68.9819 17.4815 69.3442 17.7109C69.7104 17.9403 70.0102 18.2683 70.2437 18.6949C70.4771 19.1175 70.5938 19.6669 70.5938 20.343V26.5007H68.831V25.2329H68.7586C68.6419 25.4664 68.4668 25.6958 68.2334 25.9212C67.9999 26.1465 67.7001 26.3337 67.3339 26.4826C66.9676 26.6315 66.5289 26.706 66.0178 26.706ZM66.4102 25.2571C66.9093 25.2571 67.3359 25.1585 67.69 24.9613C68.0482 24.7641 68.3199 24.5065 68.505 24.1886C68.6942 23.8666 68.7888 23.5225 68.7888 23.1562V21.9609C68.7244 22.0253 68.5996 22.0857 68.4145 22.142C68.2334 22.1944 68.0261 22.2406 67.7927 22.2809C67.5592 22.3171 67.3319 22.3513 67.1105 22.3835C66.8891 22.4117 66.704 22.4358 66.5551 22.456C66.205 22.5002 65.885 22.5747 65.5952 22.6793C65.3095 22.784 65.0801 22.9349 64.907 23.1321C64.738 23.3253 64.6535 23.5828 64.6535 23.9048C64.6535 24.3515 64.8185 24.6896 65.1485 24.919C65.4785 25.1444 65.8991 25.2571 66.4102 25.2571ZM72.998 26.5007V17.228H74.8031V26.5007H72.998ZM73.9096 15.7972C73.5957 15.7972 73.326 15.6926 73.1006 15.4833C72.8793 15.27 72.7686 15.0164 72.7686 14.7226C72.7686 14.4248 72.8793 14.1713 73.1006 13.962C73.326 13.7487 73.5957 13.642 73.9096 13.642C74.2235 13.642 74.4911 13.7487 74.7125 13.962C74.9379 14.1713 75.0506 14.4248 75.0506 14.7226C75.0506 15.0164 74.9379 15.27 74.7125 15.4833C74.4911 15.6926 74.2235 15.7972 73.9096 15.7972ZM79.0365 14.1371V26.5007H77.2314V14.1371H79.0365ZM84.1633 26.706C83.5757 26.706 83.0445 26.5973 82.5696 26.38C82.0947 26.1586 81.7184 25.8386 81.4407 25.4201C81.167 25.0015 81.0301 24.4884 81.0301 23.8807C81.0301 23.3575 81.1308 22.9268 81.332 22.5888C81.5332 22.2507 81.8049 21.9831 82.147 21.7859C82.4891 21.5886 82.8714 21.4397 83.294 21.3391C83.7166 21.2385 84.1472 21.162 84.5859 21.1097C85.1413 21.0453 85.5921 20.993 85.9382 20.9528C86.2843 20.9085 86.5358 20.8381 86.6928 20.7415C86.8497 20.6449 86.9282 20.4879 86.9282 20.2706V20.2283C86.9282 19.7011 86.7793 19.2926 86.4815 19.0028C86.1877 18.7131 85.749 18.5682 85.1654 18.5682C84.5577 18.5682 84.0788 18.703 83.7287 18.9726C83.3825 19.2383 83.1431 19.5341 83.0103 19.8601L81.3139 19.4737C81.5151 18.9103 81.8089 18.4555 82.1953 18.1094C82.5857 17.7592 83.0344 17.5057 83.5415 17.3487C84.0486 17.1877 84.5819 17.1072 85.1413 17.1072C85.5116 17.1072 85.904 17.1515 86.3185 17.24C86.7371 17.3246 87.1274 17.4815 87.4897 17.7109C87.8559 17.9403 88.1557 18.2683 88.3892 18.6949C88.6226 19.1175 88.7393 19.6669 88.7393 20.343V26.5007H86.9765V25.2329H86.9041C86.7874 25.4664 86.6123 25.6958 86.3789 25.9212C86.1454 26.1465 85.8456 26.3337 85.4794 26.4826C85.1131 26.6315 84.6744 26.706 84.1633 26.706ZM84.5557 25.2571C85.0548 25.2571 85.4814 25.1585 85.8355 24.9613C86.1937 24.7641 86.4654 24.5065 86.6505 24.1886C86.8397 23.8666 86.9343 23.5225 86.9343 23.1562V21.9609C86.8699 22.0253 86.7451 22.0857 86.56 22.142C86.3789 22.1944 86.1716 22.2406 85.9382 22.2809C85.7047 22.3171 85.4774 22.3513 85.256 22.3835C85.0346 22.4117 84.8495 22.4358 84.7006 22.456C84.3505 22.5002 84.0305 22.5747 83.7407 22.6793C83.455 22.784 83.2256 22.9349 83.0525 23.1321C82.8835 23.3253 82.799 23.5828 82.799 23.9048C82.799 24.3515 82.964 24.6896 83.294 24.919C83.624 25.1444 84.0446 25.2571 84.5557 25.2571ZM91.2884 26.5007V14.1371H93.0934V18.7312H93.2021C93.3067 18.538 93.4577 18.3146 93.6549 18.0611C93.8521 17.8075 94.1258 17.5862 94.4759 17.397C94.826 17.2038 95.2889 17.1072 95.8644 17.1072C96.613 17.1072 97.2811 17.2964 97.8687 17.6747C98.4563 18.053 98.9171 18.5984 99.2511 19.3107C99.5892 20.0231 99.7582 20.8803 99.7582 21.8824C99.7582 22.8846 99.5912 23.7438 99.2571 24.4602C98.9231 25.1726 98.4643 25.7219 97.8807 26.1083C97.2972 26.4906 96.6311 26.6818 95.8825 26.6818C95.3191 26.6818 94.8582 26.5872 94.5 26.3981C94.1459 26.2089 93.8682 25.9876 93.667 25.734C93.4657 25.4805 93.3108 25.2551 93.2021 25.0579H93.0512V26.5007H91.2884ZM93.0572 21.8643C93.0572 22.5163 93.1518 23.0878 93.341 23.5788C93.5301 24.0698 93.8038 24.4542 94.162 24.7319C94.5202 25.0056 94.9589 25.1424 95.478 25.1424C96.0173 25.1424 96.4681 24.9995 96.8303 24.7138C97.1925 24.424 97.4662 24.0316 97.6513 23.5366C97.8405 23.0415 97.9351 22.4841 97.9351 21.8643C97.9351 21.2526 97.8425 20.7032 97.6574 20.2163C97.4763 19.7293 97.2026 19.3449 96.8363 19.0632C96.4741 18.7815 96.0214 18.6406 95.478 18.6406C94.9548 18.6406 94.5121 18.7754 94.1499 19.0451C93.7917 19.3147 93.5201 19.691 93.3349 20.174C93.1498 20.6569 93.0572 21.2204 93.0572 21.8643ZM103.59 14.1371V26.5007H101.785V14.1371H103.59ZM110.015 26.6878C109.101 26.6878 108.315 26.4926 107.655 26.1023C106.999 25.7078 106.491 25.1545 106.133 24.4421C105.779 23.7257 105.602 22.8866 105.602 21.9247C105.602 20.9749 105.779 20.1378 106.133 19.4133C106.491 18.6889 106.99 18.1234 107.63 17.717C108.274 17.3105 109.027 17.1072 109.888 17.1072C110.411 17.1072 110.918 17.1938 111.409 17.3668C111.9 17.5399 112.341 17.8115 112.732 18.1818C113.122 18.5521 113.43 19.033 113.655 19.6246C113.881 20.2122 113.993 20.9266 113.993 21.7677V22.4077H106.622V21.0554H112.224C112.224 20.5805 112.128 20.1599 111.935 19.7937C111.742 19.4234 111.47 19.1316 111.12 18.9183C110.774 18.705 110.367 18.5984 109.9 18.5984C109.393 18.5984 108.95 18.7231 108.572 18.9726C108.198 19.2181 107.908 19.5401 107.703 19.9386C107.502 20.333 107.401 20.7616 107.401 21.2244V22.2809C107.401 22.9007 107.51 23.4279 107.727 23.8626C107.948 24.2972 108.256 24.6292 108.651 24.8587C109.045 25.084 109.506 25.1967 110.033 25.1967C110.375 25.1967 110.687 25.1484 110.969 25.0518C111.251 24.9512 111.494 24.8023 111.699 24.6051C111.905 24.4079 112.061 24.1644 112.17 23.8746L113.879 24.1825C113.742 24.6856 113.496 25.1263 113.142 25.5046C112.792 25.8789 112.351 26.1707 111.82 26.38C111.293 26.5852 110.691 26.6878 110.015 26.6878ZM124.401 26.6878C123.532 26.6878 122.773 26.4886 122.125 26.0902C121.477 25.6917 120.974 25.1343 120.616 24.418C120.258 23.7016 120.079 22.8645 120.079 21.9066C120.079 20.9447 120.258 20.1036 120.616 19.3832C120.974 18.6627 121.477 18.1033 122.125 17.7049C122.773 17.3065 123.532 17.1072 124.401 17.1072C125.27 17.1072 126.029 17.3065 126.677 17.7049C127.325 18.1033 127.828 18.6627 128.186 19.3832C128.544 20.1036 128.723 20.9447 128.723 21.9066C128.723 22.8645 128.544 23.7016 128.186 24.418C127.828 25.1343 127.325 25.6917 126.677 26.0902C126.029 26.4886 125.27 26.6878 124.401 26.6878ZM124.407 25.1726C124.97 25.1726 125.437 25.0237 125.808 24.7258C126.178 24.428 126.452 24.0316 126.629 23.5366C126.81 23.0415 126.9 22.4962 126.9 21.9006C126.9 21.3089 126.81 20.7656 126.629 20.2706C126.452 19.7715 126.178 19.3711 125.808 19.0692C125.437 18.7674 124.97 18.6165 124.407 18.6165C123.84 18.6165 123.369 18.7674 122.994 19.0692C122.624 19.3711 122.348 19.7715 122.167 20.2706C121.99 20.7656 121.902 21.3089 121.902 21.9006C121.902 22.4962 121.99 23.0415 122.167 23.5366C122.348 24.0316 122.624 24.428 122.994 24.7258C123.369 25.0237 123.84 25.1726 124.407 25.1726ZM132.543 20.995V26.5007H130.738V17.228H132.471V18.7372H132.586C132.799 18.2462 133.133 17.8518 133.588 17.554C134.046 17.2561 134.624 17.1072 135.32 17.1072C135.952 17.1072 136.506 17.24 136.98 17.5057C137.455 17.7673 137.824 18.1577 138.085 18.6768C138.347 19.196 138.478 19.8379 138.478 20.6026V26.5007H136.673V20.8199C136.673 20.1478 136.497 19.6226 136.147 19.2443C135.797 18.862 135.316 18.6708 134.704 18.6708C134.286 18.6708 133.914 18.7614 133.588 18.9425C133.266 19.1236 133.01 19.3892 132.821 19.7393C132.636 20.0855 132.543 20.504 132.543 20.995Z" fill="#E8E8E8"/>
<path d="M144.937 26.0007V13.6371H150.044C150.97 13.6371 151.769 13.8041 152.441 14.1381C153.117 14.4681 153.638 14.9431 154.005 15.5628C154.371 16.1786 154.554 16.9091 154.554 17.7543C154.554 18.6115 154.367 19.34 153.992 19.9396C153.618 20.5353 153.087 20.99 152.399 21.304C151.711 21.6139 150.896 21.7688 149.954 21.7688H146.724V19.4144H149.398C149.849 19.4144 150.225 19.356 150.527 19.2393C150.833 19.1186 151.065 18.9375 151.222 18.696C151.379 18.4505 151.457 18.1366 151.457 17.7543C151.457 17.3719 151.379 17.056 151.222 16.8065C151.065 16.5529 150.833 16.3637 150.527 16.239C150.221 16.1102 149.845 16.0458 149.398 16.0458H147.925V26.0007H144.937ZM151.898 20.3501L154.977 26.0007H151.717L148.698 20.3501H151.898ZM160.345 26.1758C159.375 26.1758 158.538 25.9846 157.833 25.6023C157.133 25.2159 156.594 24.6665 156.216 23.9542C155.841 23.2378 155.654 22.3866 155.654 21.4006C155.654 20.4427 155.843 19.6056 156.222 18.8892C156.6 18.1688 157.133 17.6094 157.821 17.2109C158.51 16.8085 159.321 16.6072 160.254 16.6072C160.914 16.6072 161.518 16.7099 162.065 16.9151C162.613 17.1204 163.086 17.4242 163.484 17.8267C163.882 18.2292 164.192 18.7262 164.414 19.3178C164.635 19.9054 164.746 20.5795 164.746 21.3402V22.0767H156.686V20.3622H161.999C161.995 20.0483 161.92 19.7686 161.776 19.5231C161.631 19.2776 161.431 19.0864 161.178 18.9496C160.928 18.8087 160.641 18.7383 160.315 18.7383C159.985 18.7383 159.689 18.8127 159.427 18.9616C159.166 19.1065 158.958 19.3057 158.805 19.5593C158.652 19.8088 158.572 20.0926 158.564 20.4105V22.1552C158.564 22.5335 158.638 22.8655 158.787 23.1513C158.936 23.433 159.148 23.6523 159.421 23.8093C159.695 23.9663 160.021 24.0447 160.399 24.0447C160.661 24.0447 160.898 24.0085 161.112 23.9361C161.325 23.8636 161.508 23.757 161.661 23.6161C161.814 23.4752 161.929 23.3022 162.005 23.0969L164.716 23.1754C164.603 23.7831 164.355 24.3124 163.973 24.7631C163.595 25.2099 163.098 25.558 162.482 25.8075C161.866 26.053 161.154 26.1758 160.345 26.1758ZM166.253 29.478V16.728H169.175V18.3157H169.266C169.387 18.034 169.558 17.7623 169.779 17.5007C170.004 17.2391 170.29 17.0258 170.636 16.8608C170.986 16.6918 171.405 16.6072 171.892 16.6072C172.536 16.6072 173.138 16.7763 173.697 17.1143C174.26 17.4524 174.715 17.9736 175.061 18.6779C175.407 19.3822 175.581 20.2797 175.581 21.3704C175.581 22.4208 175.414 23.3002 175.079 24.0085C174.749 24.7168 174.303 25.2481 173.739 25.6023C173.18 25.9564 172.558 26.1335 171.874 26.1335C171.407 26.1335 171.003 26.057 170.66 25.9041C170.318 25.7512 170.031 25.5499 169.797 25.3004C169.568 25.0509 169.391 24.7832 169.266 24.4975H169.206V29.478H166.253ZM169.145 21.3643C169.145 21.8634 169.212 22.298 169.344 22.6683C169.481 23.0386 169.676 23.3263 169.93 23.5316C170.188 23.7328 170.495 23.8334 170.854 23.8334C171.216 23.8334 171.524 23.7328 171.777 23.5316C172.031 23.3263 172.222 23.0386 172.351 22.6683C172.484 22.298 172.55 21.8634 172.55 21.3643C172.55 20.8653 172.484 20.4326 172.351 20.0664C172.222 19.7002 172.031 19.4164 171.777 19.2152C171.528 19.014 171.22 18.9133 170.854 18.9133C170.491 18.9133 170.184 19.0119 169.93 19.2092C169.676 19.4064 169.481 19.6881 169.344 20.0543C169.212 20.4206 169.145 20.8572 169.145 21.3643ZM180.08 13.6371V26.0007H177.128V13.6371H180.08ZM181.959 26.0007V16.728H184.911V26.0007H181.959ZM183.438 15.6474C183.023 15.6474 182.667 15.5105 182.369 15.2369C182.071 14.9592 181.922 14.6251 181.922 14.2347C181.922 13.8484 182.071 13.5183 182.369 13.2447C182.667 12.967 183.023 12.8281 183.438 12.8281C183.856 12.8281 184.212 12.967 184.506 13.2447C184.804 13.5183 184.953 13.8484 184.953 14.2347C184.953 14.6251 184.804 14.9592 184.506 15.2369C184.212 15.5105 183.856 15.6474 183.438 15.6474ZM192.024 16.728V18.9013H186.174V16.728H192.024ZM187.399 14.5064H190.351V23.0849C190.351 23.266 190.38 23.4129 190.436 23.5256C190.496 23.6342 190.583 23.7127 190.696 23.761C190.808 23.8053 190.943 23.8274 191.1 23.8274C191.213 23.8274 191.331 23.8173 191.456 23.7972C191.585 23.7731 191.682 23.7529 191.746 23.7368L192.193 25.8679C192.052 25.9081 191.853 25.9584 191.595 26.0188C191.341 26.0792 191.038 26.1174 190.683 26.1335C189.991 26.1657 189.398 26.0852 188.903 25.892C188.412 25.6948 188.035 25.389 187.774 24.9744C187.516 24.5599 187.391 24.0387 187.399 23.4109V14.5064Z" fill="#F26201"/>
</g>
<defs>
<filter id="filter0_d_1_56" x="2.39972" y="0.39972" width="39.202" height="39.202" filterUnits="userSpaceOnUse" color-interpolation-filters="sRGB">
<feFlood flood-opacity="0" result="BackgroundImageFix"/>
<feColorMatrix in="SourceAlpha" type="matrix" values="0 0 0 0 0 0 0 0 0 0 0 0 0 0 0 0 0 0 127 0" result="hardAlpha"/>
<feOffset/>
<feGaussianBlur stdDeviation="2.80014"/>
<feComposite in2="hardAlpha" operator="out"/>
<feColorMatrix type="matrix" values="0 0 0 0 0 0 0 0 0 0 0 0 0 0 0 0 0 0 0.25 0"/>
<feBlend mode="normal" in2="BackgroundImageFix" result="effect1_dropShadow_1_56"/>
<feBlend mode="normal" in="SourceGraphic" in2="effect1_dropShadow_1_56" result="shape"/>
</filter>
<filter id="filter1_d_1_56" x="36.2871" y="3.78642" width="162.429" height="32.4286" filterUnits="userSpaceOnUse" color-interpolation-filters="sRGB">
<feFlood flood-opacity="0" result="BackgroundImageFix"/>
<feColorMatrix in="SourceAlpha" type="matrix" values="0 0 0 0 0 0 0 0 0 0 0 0 0 0 0 0 0 0 127 0" result="hardAlpha"/>
<feOffset/>
<feGaussianBlur stdDeviation="2.85714"/>
<feComposite in2="hardAlpha" operator="out"/>
<feColorMatrix type="matrix" values="0 0 0 0 0 0 0 0 0 0 0 0 0 0 0 0 0 0 0.25 0"/>
<feBlend mode="normal" in2="BackgroundImageFix" result="effect1_dropShadow_1_56"/>
<feBlend mode="normal" in="SourceGraphic" in2="effect1_dropShadow_1_56" result="shape"/>
</filter>
<linearGradient id="paint0_linear_1_56" x1="100.501" y1="0" x2="100.501" y2="40.0014" gradientUnits="userSpaceOnUse">
<stop stop-color="#0E1726"/>
<stop offset="1" stop-color="#090E17"/>
</linearGradient>
</defs>
</svg>
