<svg width="164" height="56" viewBox="0 0 164 56" fill="none" xmlns="http://www.w3.org/2000/svg">
<rect width="164" height="56" rx="8" fill="url(#paint0_linear_1_50)"/>
<rect x="1.05" y="1.05" width="161.9" height="53.9" rx="6.95" stroke="white" stroke-opacity="0.15" stroke-width="2.1"/>
<g filter="url(#filter0_d_1_50)">
<path d="M15.125 10.5C15.125 9.11928 16.2443 8 17.625 8H29.2917C30.6723 8 31.7917 9.11928 31.7917 10.5V21.3333H17.625C16.2443 21.3333 15.125 20.214 15.125 18.8333V10.5Z" fill="#F26207"/>
<path d="M31.7917 21.3333H45.9583C47.339 21.3333 48.4583 22.4527 48.4583 23.8333V32.1667C48.4583 33.5473 47.339 34.6667 45.9583 34.6667H31.7917V21.3333Z" fill="#F26207"/>
<path d="M15.125 37.1667C15.125 35.786 16.2443 34.6667 17.625 34.6667H31.7917V45.5C31.7917 46.8807 30.6723 48 29.2917 48H17.625C16.2443 48 15.125 46.8807 15.125 45.5V37.1667Z" fill="#F26207"/>
</g>
<g filter="url(#filter1_d_1_50)">
<path d="M62.2613 24.5H60.3977L64.5852 12.8636H66.6136L70.8011 24.5H68.9375L65.6477 14.9773H65.5568L62.2613 24.5ZM62.5738 19.9432H68.6193V21.4204H62.5738V19.9432ZM78.7173 15.7727L75.5525 24.5H73.7344L70.5639 15.7727H72.3878L74.598 22.4886H74.6889L76.8934 15.7727H78.7173ZM82.6037 24.6932C82.0506 24.6932 81.5506 24.5909 81.1037 24.3864C80.6567 24.178 80.3025 23.8769 80.0412 23.4829C79.7836 23.089 79.6548 22.6061 79.6548 22.0341C79.6548 21.5417 79.7495 21.1364 79.9389 20.8182C80.1283 20.5 80.384 20.2481 80.7059 20.0625C81.0279 19.8769 81.3878 19.7367 81.7855 19.642C82.1832 19.5473 82.5885 19.4754 83.0014 19.4261C83.5241 19.3655 83.9484 19.3163 84.2741 19.2784C84.5999 19.2367 84.8366 19.1704 84.9844 19.0795C85.1321 18.9886 85.2059 18.8409 85.2059 18.6364V18.5966C85.2059 18.1004 85.0658 17.7159 84.7855 17.4432C84.509 17.1704 84.0961 17.0341 83.5469 17.0341C82.9749 17.0341 82.5241 17.161 82.1946 17.4148C81.8688 17.6648 81.6434 17.9432 81.5184 18.25L79.9219 17.8864C80.1112 17.3561 80.3878 16.928 80.7514 16.6023C81.1188 16.2727 81.5412 16.0341 82.0184 15.8864C82.4957 15.7348 82.9976 15.6591 83.5241 15.6591C83.8726 15.6591 84.2419 15.7008 84.6321 15.7841C85.026 15.8636 85.3934 16.0114 85.7344 16.2273C86.079 16.4432 86.3612 16.7519 86.5809 17.1534C86.8006 17.5511 86.9105 18.0682 86.9105 18.7045V24.5H85.2514V23.3068H85.1832C85.0734 23.5265 84.9086 23.7424 84.6889 23.9545C84.4692 24.1667 84.187 24.3428 83.8423 24.4829C83.4976 24.6231 83.0847 24.6932 82.6037 24.6932ZM82.973 23.3295C83.4427 23.3295 83.8442 23.2367 84.1775 23.0511C84.5147 22.8655 84.7703 22.6231 84.9446 22.3239C85.1226 22.0208 85.2116 21.697 85.2116 21.3523V20.2273C85.151 20.2879 85.0336 20.3447 84.8594 20.3977C84.6889 20.447 84.4938 20.4905 84.2741 20.5284C84.0544 20.5625 83.8404 20.5947 83.6321 20.625C83.4237 20.6515 83.2495 20.6742 83.1094 20.6932C82.7798 20.7348 82.4787 20.8049 82.2059 20.9034C81.937 21.0019 81.7211 21.1439 81.5582 21.3295C81.3991 21.5114 81.3196 21.7538 81.3196 22.0568C81.3196 22.4773 81.4749 22.7954 81.7855 23.0114C82.0961 23.2235 82.4919 23.3295 82.973 23.3295ZM89.1733 24.5V15.7727H90.8721V24.5H89.1733ZM90.0312 14.4261C89.7358 14.4261 89.482 14.3276 89.2699 14.1307C89.0615 13.9299 88.9574 13.6913 88.9574 13.4148C88.9574 13.1345 89.0615 12.8958 89.2699 12.6989C89.482 12.4981 89.7358 12.3977 90.0312 12.3977C90.3267 12.3977 90.5786 12.4981 90.7869 12.6989C90.999 12.8958 91.1051 13.1345 91.1051 13.4148C91.1051 13.6913 90.999 13.9299 90.7869 14.1307C90.5786 14.3276 90.3267 14.4261 90.0312 14.4261ZM94.8565 12.8636V24.5H93.1576V12.8636H94.8565ZM99.6818 24.6932C99.1288 24.6932 98.6288 24.5909 98.1818 24.3864C97.7348 24.178 97.3807 23.8769 97.1193 23.4829C96.8617 23.089 96.7329 22.6061 96.7329 22.0341C96.7329 21.5417 96.8276 21.1364 97.017 20.8182C97.2064 20.5 97.4621 20.2481 97.7841 20.0625C98.106 19.8769 98.4659 19.7367 98.8636 19.642C99.2613 19.5473 99.6666 19.4754 100.08 19.4261C100.602 19.3655 101.026 19.3163 101.352 19.2784C101.678 19.2367 101.915 19.1704 102.062 19.0795C102.21 18.9886 102.284 18.8409 102.284 18.6364V18.5966C102.284 18.1004 102.144 17.7159 101.864 17.4432C101.587 17.1704 101.174 17.0341 100.625 17.0341C100.053 17.0341 99.6022 17.161 99.2727 17.4148C98.9469 17.6648 98.7216 17.9432 98.5966 18.25L97 17.8864C97.1894 17.3561 97.4659 16.928 97.8295 16.6023C98.1969 16.2727 98.6193 16.0341 99.0966 15.8864C99.5738 15.7348 100.076 15.6591 100.602 15.6591C100.951 15.6591 101.32 15.7008 101.71 15.7841C102.104 15.8636 102.472 16.0114 102.812 16.2273C103.157 16.4432 103.439 16.7519 103.659 17.1534C103.879 17.5511 103.989 18.0682 103.989 18.7045V24.5H102.33V23.3068H102.261C102.151 23.5265 101.987 23.7424 101.767 23.9545C101.547 24.1667 101.265 24.3428 100.92 24.4829C100.576 24.6231 100.163 24.6932 99.6818 24.6932ZM100.051 23.3295C100.521 23.3295 100.922 23.2367 101.256 23.0511C101.593 22.8655 101.848 22.6231 102.023 22.3239C102.201 22.0208 102.29 21.697 102.29 21.3523V20.2273C102.229 20.2879 102.112 20.3447 101.937 20.3977C101.767 20.447 101.572 20.4905 101.352 20.5284C101.133 20.5625 100.919 20.5947 100.71 20.625C100.502 20.6515 100.328 20.6742 100.187 20.6932C99.8579 20.7348 99.5568 20.8049 99.2841 20.9034C99.0151 21.0019 98.7992 21.1439 98.6363 21.3295C98.4772 21.5114 98.3977 21.7538 98.3977 22.0568C98.3977 22.4773 98.553 22.7954 98.8636 23.0114C99.1742 23.2235 99.57 23.3295 100.051 23.3295ZM106.388 24.5V12.8636H108.087V17.1875H108.189C108.287 17.0057 108.429 16.7954 108.615 16.5568C108.801 16.3182 109.058 16.1098 109.388 15.9318C109.717 15.75 110.153 15.6591 110.695 15.6591C111.399 15.6591 112.028 15.8371 112.581 16.1932C113.134 16.5492 113.568 17.0625 113.882 17.7329C114.2 18.4034 114.359 19.2102 114.359 20.1534C114.359 21.0966 114.202 21.9053 113.888 22.5795C113.573 23.25 113.142 23.767 112.592 24.1307C112.043 24.4905 111.416 24.6704 110.712 24.6704C110.181 24.6704 109.748 24.5814 109.41 24.4034C109.077 24.2254 108.816 24.017 108.626 23.7784C108.437 23.5398 108.291 23.3276 108.189 23.142H108.047V24.5H106.388ZM108.053 20.1364C108.053 20.75 108.142 21.2879 108.32 21.75C108.498 22.2121 108.755 22.5739 109.092 22.8352C109.429 23.0928 109.842 23.2216 110.331 23.2216C110.839 23.2216 111.263 23.0871 111.604 22.8182C111.945 22.5454 112.202 22.1761 112.376 21.7102C112.554 21.2443 112.643 20.7197 112.643 20.1364C112.643 19.5606 112.556 19.0436 112.382 18.5852C112.212 18.1269 111.954 17.7651 111.609 17.5C111.268 17.2348 110.842 17.1023 110.331 17.1023C109.839 17.1023 109.422 17.2292 109.081 17.4829C108.744 17.7367 108.488 18.0909 108.314 18.5454C108.14 19 108.053 19.5303 108.053 20.1364ZM117.966 12.8636V24.5H116.267V12.8636H117.966ZM124.013 24.6761C123.153 24.6761 122.412 24.4924 121.791 24.125C121.174 23.7538 120.696 23.2329 120.359 22.5625C120.026 21.8883 119.859 21.0985 119.859 20.1932C119.859 19.2992 120.026 18.5114 120.359 17.8295C120.696 17.1477 121.166 16.6155 121.768 16.2329C122.374 15.8504 123.083 15.6591 123.893 15.6591C124.386 15.6591 124.863 15.7405 125.325 15.9034C125.787 16.0663 126.202 16.322 126.57 16.6704C126.937 17.0189 127.227 17.4716 127.439 18.0284C127.651 18.5814 127.757 19.2538 127.757 20.0454V20.6477H120.82V19.375H126.092C126.092 18.928 126.001 18.5322 125.82 18.1875C125.638 17.839 125.382 17.5644 125.053 17.3636C124.727 17.1629 124.344 17.0625 123.905 17.0625C123.428 17.0625 123.011 17.1799 122.655 17.4148C122.303 17.6458 122.03 17.9489 121.837 18.3239C121.647 18.6951 121.553 19.0985 121.553 19.5341V20.5284C121.553 21.1117 121.655 21.6079 121.859 22.017C122.068 22.4261 122.357 22.7386 122.729 22.9545C123.1 23.1667 123.534 23.2727 124.03 23.2727C124.352 23.2727 124.645 23.2273 124.91 23.1364C125.176 23.0417 125.405 22.9015 125.598 22.7159C125.791 22.5303 125.939 22.3011 126.041 22.0284L127.649 22.3182C127.52 22.7917 127.289 23.2064 126.956 23.5625C126.626 23.9148 126.212 24.1894 125.712 24.3864C125.215 24.5795 124.649 24.6761 124.013 24.6761ZM137.553 24.6761C136.734 24.6761 136.02 24.4886 135.41 24.1136C134.801 23.7386 134.327 23.214 133.99 22.5398C133.653 21.8655 133.484 21.0776 133.484 20.1761C133.484 19.2708 133.653 18.4792 133.99 17.8011C134.327 17.1231 134.801 16.5966 135.41 16.2216C136.02 15.8466 136.734 15.6591 137.553 15.6591C138.371 15.6591 139.085 15.8466 139.695 16.2216C140.304 16.5966 140.778 17.1231 141.115 17.8011C141.452 18.4792 141.621 19.2708 141.621 20.1761C141.621 21.0776 141.452 21.8655 141.115 22.5398C140.778 23.214 140.304 23.7386 139.695 24.1136C139.085 24.4886 138.371 24.6761 137.553 24.6761ZM137.558 23.25C138.089 23.25 138.528 23.1098 138.876 22.8295C139.225 22.5492 139.482 22.1761 139.649 21.7102C139.82 21.2443 139.905 20.7311 139.905 20.1704C139.905 19.6136 139.82 19.1023 139.649 18.6364C139.482 18.1667 139.225 17.7898 138.876 17.5057C138.528 17.2216 138.089 17.0795 137.558 17.0795C137.024 17.0795 136.581 17.2216 136.229 17.5057C135.88 17.7898 135.621 18.1667 135.45 18.6364C135.284 19.1023 135.2 19.6136 135.2 20.1704C135.2 20.7311 135.284 21.2443 135.45 21.7102C135.621 22.1761 135.88 22.5492 136.229 22.8295C136.581 23.1098 137.024 23.25 137.558 23.25ZM145.216 19.3182V24.5H143.517V15.7727H145.148V17.1932H145.256C145.456 16.7311 145.771 16.3598 146.199 16.0795C146.631 15.7992 147.174 15.6591 147.83 15.6591C148.424 15.6591 148.945 15.7841 149.392 16.0341C149.839 16.2803 150.186 16.6477 150.432 17.1364C150.678 17.625 150.801 18.2292 150.801 18.9489V24.5H149.102V19.1534C149.102 18.5208 148.937 18.0265 148.608 17.6704C148.278 17.3106 147.826 17.1307 147.25 17.1307C146.856 17.1307 146.506 17.2159 146.199 17.3864C145.896 17.5568 145.655 17.8068 145.477 18.1364C145.303 18.4621 145.216 18.8561 145.216 19.3182Z" fill="#E8E8E8"/>
<path d="M60.9357 43.5V31.1364H66.043C66.9686 31.1364 67.7675 31.3034 68.4396 31.6374C69.1157 31.9674 69.6369 32.4423 70.0032 33.0621C70.3694 33.6779 70.5525 34.4084 70.5525 35.2535C70.5525 36.1108 70.3654 36.8392 69.9911 37.4389C69.6168 38.0346 69.0856 38.4893 68.3974 38.8033C67.7091 39.1132 66.8942 39.2681 65.9524 39.2681H62.7226V36.9137H65.397C65.8478 36.9137 66.2241 36.8553 66.5259 36.7386C66.8318 36.6179 67.0632 36.4368 67.2202 36.1953C67.3771 35.9498 67.4556 35.6359 67.4556 35.2535C67.4556 34.8712 67.3771 34.5553 67.2202 34.3057C67.0632 34.0522 66.8318 33.863 66.5259 33.7383C66.22 33.6095 65.8437 33.5451 65.397 33.5451H63.924V43.5H60.9357ZM67.8963 37.8494L70.9751 43.5H67.7152L64.6967 37.8494H67.8963ZM76.3435 43.6751C75.3735 43.6751 74.5364 43.4839 73.8321 43.1016C73.1318 42.7152 72.5925 42.1658 72.2142 41.4535C71.8399 40.7371 71.6528 39.8859 71.6528 38.8998C71.6528 37.942 71.8419 37.1049 72.2202 36.3885C72.5986 35.6681 73.1318 35.1087 73.82 34.7102C74.5082 34.3078 75.3192 34.1065 76.2529 34.1065C76.9129 34.1065 77.5166 34.2092 78.064 34.4144C78.6113 34.6197 79.0842 34.9235 79.4827 35.326C79.8811 35.7284 80.191 36.2255 80.4124 36.8171C80.6337 37.4047 80.7444 38.0788 80.7444 38.8395V39.576H72.6851V37.8615H77.9976C77.9936 37.5476 77.9191 37.2679 77.7742 37.0224C77.6293 36.7769 77.4301 36.5857 77.1766 36.4489C76.927 36.308 76.6393 36.2376 76.3133 36.2376C75.9833 36.2376 75.6875 36.312 75.4259 36.4609C75.1642 36.6058 74.957 36.805 74.804 37.0586C74.6511 37.3081 74.5706 37.5918 74.5626 37.9098V39.6545C74.5626 40.0328 74.637 40.3648 74.7859 40.6506C74.9348 40.9323 75.1461 41.1516 75.4198 41.3086C75.6935 41.4655 76.0195 41.544 76.3978 41.544C76.6594 41.544 76.8968 41.5078 77.1102 41.4354C77.3235 41.3629 77.5066 41.2563 77.6595 41.1154C77.8125 40.9745 77.9272 40.8015 78.0036 40.5962L80.7142 40.6747C80.6015 41.2824 80.354 41.8117 79.9717 42.2624C79.5933 42.7092 79.0963 43.0573 78.4805 43.3068C77.8648 43.5523 77.1524 43.6751 76.3435 43.6751ZM82.2521 46.9773V34.2273H85.174V35.815H85.2645C85.3853 35.5333 85.5563 35.2616 85.7777 35C86.0031 34.7384 86.2888 34.5251 86.6349 34.3601C86.9851 34.191 87.4036 34.1065 87.8906 34.1065C88.5345 34.1065 89.1362 34.2756 89.6956 34.6136C90.2591 34.9517 90.7139 35.4729 91.06 36.1772C91.4061 36.8815 91.5792 37.779 91.5792 38.8697C91.5792 39.9201 91.4121 40.7995 91.0781 41.5078C90.7481 42.2161 90.3013 42.7474 89.7379 43.1016C89.1785 43.4557 88.5567 43.6328 87.8725 43.6328C87.4056 43.6328 87.0012 43.5563 86.6591 43.4034C86.317 43.2505 86.0292 43.0492 85.7958 42.7997C85.5664 42.5502 85.3893 42.2825 85.2645 41.9968H85.2042V46.9773H82.2521ZM85.1438 38.8636C85.1438 39.3627 85.2102 39.7973 85.343 40.1676C85.4799 40.5379 85.675 40.8256 85.9286 41.0309C86.1862 41.2321 86.4941 41.3327 86.8522 41.3327C87.2145 41.3327 87.5223 41.2321 87.7759 41.0309C88.0295 40.8256 88.2206 40.5379 88.3494 40.1676C88.4822 39.7973 88.5486 39.3627 88.5486 38.8636C88.5486 38.3646 88.4822 37.9319 88.3494 37.5657C88.2206 37.1994 88.0295 36.9157 87.7759 36.7145C87.5264 36.5132 87.2185 36.4126 86.8522 36.4126C86.49 36.4126 86.1822 36.5112 85.9286 36.7084C85.675 36.9056 85.4799 37.1874 85.343 37.5536C85.2102 37.9199 85.1438 38.3565 85.1438 38.8636ZM96.0782 31.1364V43.5H93.1261V31.1364H96.0782ZM97.9572 43.5V34.2273H100.909V43.5H97.9572ZM99.4362 33.1467C99.0217 33.1467 98.6655 33.0098 98.3677 32.7361C98.0699 32.4584 97.921 32.1244 97.921 31.734C97.921 31.3476 98.0699 31.0176 98.3677 30.744C98.6655 30.4663 99.0217 30.3274 99.4362 30.3274C99.8548 30.3274 100.211 30.4663 100.505 30.744C100.803 31.0176 100.951 31.3476 100.951 31.734C100.951 32.1244 100.803 32.4584 100.505 32.7361C100.211 33.0098 99.8548 33.1467 99.4362 33.1467ZM108.022 34.2273V36.4006H102.172V34.2273H108.022ZM103.398 32.0057H106.35V40.5842C106.35 40.7653 106.378 40.9122 106.435 41.0248C106.495 41.1335 106.581 41.212 106.694 41.2603C106.807 41.3046 106.942 41.3267 107.099 41.3267C107.211 41.3267 107.33 41.3166 107.455 41.2965C107.584 41.2724 107.68 41.2522 107.745 41.2361L108.191 43.3672C108.05 43.4074 107.851 43.4577 107.594 43.5181C107.34 43.5785 107.036 43.6167 106.682 43.6328C105.99 43.665 105.396 43.5845 104.901 43.3913C104.41 43.1941 104.034 42.8882 103.772 42.4737C103.515 42.0592 103.39 41.538 103.398 40.9101V32.0057Z" fill="#F26201"/>
</g>
<defs>
<filter id="filter0_d_1_50" x="6.28571" y="2.28571" width="51.4286" height="51.4286" filterUnits="userSpaceOnUse" color-interpolation-filters="sRGB">
<feFlood flood-opacity="0" result="BackgroundImageFix"/>
<feColorMatrix in="SourceAlpha" type="matrix" values="0 0 0 0 0 0 0 0 0 0 0 0 0 0 0 0 0 0 127 0" result="hardAlpha"/>
<feOffset/>
<feGaussianBlur stdDeviation="2.85714"/>
<feComposite in2="hardAlpha" operator="out"/>
<feColorMatrix type="matrix" values="0 0 0 0 0 0 0 0 0 0 0 0 0 0 0 0 0 0 0.25 0"/>
<feBlend mode="normal" in2="BackgroundImageFix" result="effect1_dropShadow_1_50"/>
<feBlend mode="normal" in="SourceGraphic" in2="effect1_dropShadow_1_50" result="shape"/>
</filter>
<filter id="filter1_d_1_50" x="54.4" y="3.9" width="103.2" height="48.6773" filterUnits="userSpaceOnUse" color-interpolation-filters="sRGB">
<feFlood flood-opacity="0" result="BackgroundImageFix"/>
<feColorMatrix in="SourceAlpha" type="matrix" values="0 0 0 0 0 0 0 0 0 0 0 0 0 0 0 0 0 0 127 0" result="hardAlpha"/>
<feOffset/>
<feGaussianBlur stdDeviation="2.8"/>
<feComposite in2="hardAlpha" operator="out"/>
<feColorMatrix type="matrix" values="0 0 0 0 0 0 0 0 0 0 0 0 0 0 0 0 0 0 0.25 0"/>
<feBlend mode="normal" in2="BackgroundImageFix" result="effect1_dropShadow_1_50"/>
<feBlend mode="normal" in="SourceGraphic" in2="effect1_dropShadow_1_50" result="shape"/>
</filter>
<linearGradient id="paint0_linear_1_50" x1="82" y1="0" x2="82" y2="56" gradientUnits="userSpaceOnUse">
<stop stop-color="#0E1726"/>
<stop offset="1" stop-color="#090E17"/>
</linearGradient>
</defs>
</svg>
