<svg width="271" height="40" viewBox="0 0 271 40" fill="none" xmlns="http://www.w3.org/2000/svg">
<rect width="271.001" height="40.0014" rx="8" fill="url(#paint0_linear_1_56)"/>
<rect x="1.07143" y="1.07143" width="268.858" height="37.8585" rx="6.92857" stroke="white" stroke-opacity="0.15" stroke-width="2.14286"/>
<g filter="url(#filter0_d_1_56)">
<path d="M8 34H36V6H8V8.86364H33.1364V31.1364H10.8636V6H8V34Z" fill="white"/>
</g>
<g filter="url(#filter1_d_1_56)">
<path d="M44.4041 26.5007H42.424L46.8732 14.1371H49.0284L53.4776 26.5007H51.4975L48.0021 16.3828H47.9055L44.4041 26.5007ZM44.7361 21.6591H51.1594V23.2287H44.7361V21.6591ZM61.8886 17.228L58.526 26.5007H56.5942L53.2256 17.228H55.1634L57.5118 24.3636H57.6084L59.9507 17.228H61.8886ZM66.0178 26.706C65.4302 26.706 64.899 26.5973 64.4241 26.38C63.9492 26.1586 63.5729 25.8386 63.2952 25.4201C63.0215 25.0015 62.8846 24.4884 62.8846 23.8807C62.8846 23.3575 62.9853 22.9268 63.1865 22.5888C63.3877 22.2507 63.6594 21.9831 64.0015 21.7859C64.3436 21.5886 64.7259 21.4397 65.1485 21.3391C65.5711 21.2385 66.0017 21.162 66.4404 21.1097C66.9958 21.0453 67.4466 20.993 67.7927 20.9528C68.1388 20.9085 68.3903 20.8381 68.5473 20.7415C68.7042 20.6449 68.7827 20.4879 68.7827 20.2706V20.2283C68.7827 19.7011 68.6338 19.2926 68.336 19.0028C68.0422 18.7131 67.6035 18.5682 67.0199 18.5682C66.4122 18.5682 65.9333 18.703 65.5832 18.9726C65.237 19.2383 64.9976 19.5341 64.8648 19.8601L63.1684 19.4737C63.3696 18.9103 63.6634 18.4555 64.0498 18.1094C64.4402 17.7592 64.8889 17.5057 65.396 17.3487C65.9031 17.1877 66.4364 17.1072 66.9958 17.1072C67.3661 17.1072 67.7585 17.1515 68.173 17.24C68.5916 17.3246 68.9819 17.4815 69.3442 17.7109C69.7104 17.9403 70.0102 18.2683 70.2437 18.6949C70.4771 19.1175 70.5938 19.6669 70.5938 20.343V26.5007H68.831V25.2329H68.7586C68.6419 25.4664 68.4668 25.6958 68.2334 25.9212C67.9999 26.1465 67.7001 26.3337 67.3339 26.4826C66.9676 26.6315 66.5289 26.706 66.0178 26.706ZM66.4102 25.2571C66.9093 25.2571 67.3359 25.1585 67.69 24.9613C68.0482 24.7641 68.3199 24.5065 68.505 24.1886C68.6942 23.8666 68.7888 23.5225 68.7888 23.1562V21.9609C68.7244 22.0253 68.5996 22.0857 68.4145 22.142C68.2334 22.1944 68.0261 22.2406 67.7927 22.2809C67.5592 22.3171 67.3319 22.3513 67.1105 22.3835C66.8891 22.4117 66.704 22.4358 66.5551 22.456C66.205 22.5002 65.885 22.5747 65.5952 22.6793C65.3095 22.784 65.0801 22.9349 64.907 23.1321C64.738 23.3253 64.6535 23.5828 64.6535 23.9048C64.6535 24.3515 64.8185 24.6896 65.1485 24.919C65.4785 25.1444 65.8991 25.2571 66.4102 25.2571ZM72.998 26.5007V17.228H74.8031V26.5007H72.998ZM73.9096 15.7972C73.5957 15.7972 73.326 15.6926 73.1006 15.4833C72.8793 15.27 72.7686 15.0164 72.7686 14.7226C72.7686 14.4248 72.8793 14.1713 73.1006 13.962C73.326 13.7487 73.5957 13.642 73.9096 13.642C74.2235 13.642 74.4911 13.7487 74.7125 13.962C74.9379 14.1713 75.0506 14.4248 75.0506 14.7226C75.0506 15.0164 74.9379 15.27 74.7125 15.4833C74.4911 15.6926 74.2235 15.7972 73.9096 15.7972ZM79.0365 14.1371V26.5007H77.2314V14.1371H79.0365ZM84.1633 26.706C83.5757 26.706 83.0445 26.5973 82.5696 26.38C82.0947 26.1586 81.7184 25.8386 81.4407 25.4201C81.167 25.0015 81.0301 24.4884 81.0301 23.8807C81.0301 23.3575 81.1308 22.9268 81.332 22.5888C81.5332 22.2507 81.8049 21.9831 82.147 21.7859C82.4891 21.5886 82.8714 21.4397 83.294 21.3391C83.7166 21.2385 84.1472 21.162 84.5859 21.1097C85.1413 21.0453 85.5921 20.993 85.9382 20.9528C86.2843 20.9085 86.5358 20.8381 86.6928 20.7415C86.8497 20.6449 86.9282 20.4879 86.9282 20.2706V20.2283C86.9282 19.7011 86.7793 19.2926 86.4815 19.0028C86.1877 18.7131 85.749 18.5682 85.1654 18.5682C84.5577 18.5682 84.0788 18.703 83.7287 18.9726C83.3825 19.2383 83.1431 19.5341 83.0103 19.8601L81.3139 19.4737C81.5151 18.9103 81.8089 18.4555 82.1953 18.1094C82.5857 17.7592 83.0344 17.5057 83.5415 17.3487C84.0486 17.1877 84.5819 17.1072 85.1413 17.1072C85.5116 17.1072 85.904 17.1515 86.3185 17.24C86.7371 17.3246 87.1274 17.4815 87.4897 17.7109C87.8559 17.9403 88.1557 18.2683 88.3892 18.6949C88.6226 19.1175 88.7393 19.6669 88.7393 20.343V26.5007H86.9765V25.2329H86.9041C86.7874 25.4664 86.6123 25.6958 86.3789 25.9212C86.1454 26.1465 85.8456 26.3337 85.4794 26.4826C85.1131 26.6315 84.6744 26.706 84.1633 26.706ZM84.5557 25.2571C85.0548 25.2571 85.4814 25.1585 85.8355 24.9613C86.1937 24.7641 86.4654 24.5065 86.6505 24.1886C86.8397 23.8666 86.9343 23.5225 86.9343 23.1562V21.9609C86.8699 22.0253 86.7451 22.0857 86.56 22.142C86.3789 22.1944 86.1716 22.2406 85.9382 22.2809C85.7047 22.3171 85.4774 22.3513 85.256 22.3835C85.0346 22.4117 84.8495 22.4358 84.7006 22.456C84.3505 22.5002 84.0305 22.5747 83.7407 22.6793C83.455 22.784 83.2256 22.9349 83.0525 23.1321C82.8835 23.3253 82.799 23.5828 82.799 23.9048C82.799 24.3515 82.964 24.6896 83.294 24.919C83.624 25.1444 84.0446 25.2571 84.5557 25.2571ZM91.2884 26.5007V14.1371H93.0934V18.7312H93.2021C93.3067 18.538 93.4577 18.3146 93.6549 18.0611C93.8521 17.8075 94.1258 17.5862 94.4759 17.397C94.826 17.2038 95.2889 17.1072 95.8644 17.1072C96.613 17.1072 97.2811 17.2964 97.8687 17.6747C98.4563 18.053 98.9171 18.5984 99.2511 19.3107C99.5892 20.0231 99.7582 20.8803 99.7582 21.8824C99.7582 22.8846 99.5912 23.7438 99.2571 24.4602C98.9231 25.1726 98.4643 25.7219 97.8807 26.1083C97.2972 26.4906 96.6311 26.6818 95.8825 26.6818C95.3191 26.6818 94.8582 26.5872 94.5 26.3981C94.1459 26.2089 93.8682 25.9876 93.667 25.734C93.4657 25.4805 93.3108 25.2551 93.2021 25.0579H93.0512V26.5007H91.2884ZM93.0572 21.8643C93.0572 22.5163 93.1518 23.0878 93.341 23.5788C93.5301 24.0698 93.8038 24.4542 94.162 24.7319C94.5202 25.0056 94.9589 25.1424 95.478 25.1424C96.0173 25.1424 96.4681 24.9995 96.8303 24.7138C97.1925 24.424 97.4662 24.0316 97.6513 23.5366C97.8405 23.0415 97.9351 22.4841 97.9351 21.8643C97.9351 21.2526 97.8425 20.7032 97.6574 20.2163C97.4763 19.7293 97.2026 19.3449 96.8363 19.0632C96.4741 18.7815 96.0214 18.6406 95.478 18.6406C94.9548 18.6406 94.5121 18.7754 94.1499 19.0451C93.7917 19.3147 93.5201 19.691 93.3349 20.174C93.1498 20.6569 93.0572 21.2204 93.0572 21.8643ZM103.59 14.1371V26.5007H101.785V14.1371H103.59ZM110.015 26.6878C109.101 26.6878 108.315 26.4926 107.655 26.1023C106.999 25.7078 106.491 25.1545 106.133 24.4421C105.779 23.7257 105.602 22.8866 105.602 21.9247C105.602 20.9749 105.779 20.1378 106.133 19.4133C106.491 18.6889 106.99 18.1234 107.63 17.717C108.274 17.3105 109.027 17.1072 109.888 17.1072C110.411 17.1072 110.918 17.1938 111.409 17.3668C111.9 17.5399 112.341 17.8115 112.732 18.1818C113.122 18.5521 113.43 19.033 113.655 19.6246C113.881 20.2122 113.993 20.9266 113.993 21.7677V22.4077H106.622V21.0554H112.224C112.224 20.5805 112.128 20.1599 111.935 19.7937C111.742 19.4234 111.47 19.1316 111.12 18.9183C110.774 18.705 110.367 18.5984 109.9 18.5984C109.393 18.5984 108.95 18.7231 108.572 18.9726C108.198 19.2181 107.908 19.5401 107.703 19.9386C107.502 20.333 107.401 20.7616 107.401 21.2244V22.2809C107.401 22.9007 107.51 23.4279 107.727 23.8626C107.948 24.2972 108.256 24.6292 108.651 24.8587C109.045 25.084 109.506 25.1967 110.033 25.1967C110.375 25.1967 110.687 25.1484 110.969 25.0518C111.251 24.9512 111.494 24.8023 111.699 24.6051C111.905 24.4079 112.061 24.1644 112.17 23.8746L113.879 24.1825C113.742 24.6856 113.496 25.1263 113.142 25.5046C112.792 25.8789 112.351 26.1707 111.82 26.38C111.293 26.5852 110.691 26.6878 110.015 26.6878ZM124.401 26.6878C123.532 26.6878 122.773 26.4886 122.125 26.0902C121.477 25.6917 120.974 25.1343 120.616 24.418C120.258 23.7016 120.079 22.8645 120.079 21.9066C120.079 20.9447 120.258 20.1036 120.616 19.3832C120.974 18.6627 121.477 18.1033 122.125 17.7049C122.773 17.3065 123.532 17.1072 124.401 17.1072C125.27 17.1072 126.029 17.3065 126.677 17.7049C127.325 18.1033 127.828 18.6627 128.186 19.3832C128.544 20.1036 128.723 20.9447 128.723 21.9066C128.723 22.8645 128.544 23.7016 128.186 24.418C127.828 25.1343 127.325 25.6917 126.677 26.0902C126.029 26.4886 125.27 26.6878 124.401 26.6878ZM124.407 25.1726C124.97 25.1726 125.437 25.0237 125.808 24.7258C126.178 24.428 126.452 24.0316 126.629 23.5366C126.81 23.0415 126.9 22.4962 126.9 21.9006C126.9 21.3089 126.81 20.7656 126.629 20.2706C126.452 19.7715 126.178 19.3711 125.808 19.0692C125.437 18.7674 124.97 18.6165 124.407 18.6165C123.84 18.6165 123.369 18.7674 122.994 19.0692C122.624 19.3711 122.348 19.7715 122.167 20.2706C121.99 20.7656 121.902 21.3089 121.902 21.9006C121.902 22.4962 121.99 23.0415 122.167 23.5366C122.348 24.0316 122.624 24.428 122.994 24.7258C123.369 25.0237 123.84 25.1726 124.407 25.1726ZM132.543 20.995V26.5007H130.738V17.228H132.471V18.7372H132.586C132.799 18.2462 133.133 17.8518 133.588 17.554C134.046 17.2561 134.624 17.1072 135.32 17.1072C135.952 17.1072 136.506 17.24 136.98 17.5057C137.455 17.7673 137.824 18.1577 138.085 18.6768C138.347 19.196 138.478 19.8379 138.478 20.6026V26.5007H136.673V20.8199C136.673 20.1478 136.497 19.6226 136.147 19.2443C135.797 18.862 135.316 18.6708 134.704 18.6708C134.286 18.6708 133.914 18.7614 133.588 18.9425C133.266 19.1236 133.01 19.3892 132.821 19.7393C132.636 20.0855 132.543 20.504 132.543 20.995Z" fill="#E8E8E8"/>
<path d="M156.16 18.1165H153.141C153.101 17.8066 153.019 17.5269 152.894 17.2773C152.769 17.0278 152.604 16.8145 152.399 16.6374C152.193 16.4603 151.95 16.3255 151.668 16.2329C151.391 16.1364 151.083 16.0881 150.745 16.0881C150.145 16.0881 149.628 16.235 149.193 16.5288C148.762 16.8226 148.43 17.2471 148.197 17.8025C147.968 18.3579 147.853 19.0301 147.853 19.8189C147.853 20.6399 147.97 21.3281 148.203 21.8835C148.441 22.4349 148.773 22.8514 149.199 23.1332C149.63 23.4109 150.139 23.5497 150.727 23.5497C151.057 23.5497 151.356 23.5074 151.626 23.4229C151.9 23.3384 152.139 23.2157 152.344 23.0547C152.554 22.8897 152.725 22.6904 152.858 22.457C152.994 22.2196 153.089 21.9519 153.141 21.6541L156.16 21.6722C156.107 22.2196 155.948 22.7589 155.683 23.2901C155.421 23.8214 155.061 24.3063 154.602 24.745C154.143 25.1797 153.584 25.5258 152.924 25.7834C152.268 26.0409 151.515 26.1697 150.666 26.1697C149.547 26.1697 148.545 25.9242 147.66 25.4332C146.778 24.9382 146.082 24.2178 145.571 23.272C145.06 22.3262 144.804 21.1752 144.804 19.8189C144.804 18.4586 145.064 17.3055 145.583 16.3597C146.102 15.4139 146.805 14.6955 147.69 14.2045C148.575 13.7135 149.567 13.468 150.666 13.468C151.415 13.468 152.107 13.5727 152.743 13.782C153.379 13.9872 153.938 14.2891 154.421 14.6875C154.904 15.0819 155.296 15.5669 155.598 16.1424C155.9 16.7179 156.087 17.3759 156.16 18.1165ZM162.198 26.1758C161.224 26.1758 160.387 25.9765 159.687 25.5781C158.991 25.1757 158.453 24.6162 158.075 23.8998C157.701 23.1794 157.514 22.3443 157.514 21.3945C157.514 20.4407 157.701 19.6056 158.075 18.8892C158.453 18.1688 158.991 17.6094 159.687 17.2109C160.387 16.8085 161.224 16.6072 162.198 16.6072C163.172 16.6072 164.007 16.8085 164.704 17.2109C165.404 17.6094 165.941 18.1688 166.315 18.8892C166.694 19.6056 166.883 20.4407 166.883 21.3945C166.883 22.3443 166.694 23.1794 166.315 23.8998C165.941 24.6162 165.404 25.1757 164.704 25.5781C164.007 25.9765 163.172 26.1758 162.198 26.1758ZM162.216 23.9481C162.57 23.9481 162.87 23.8395 163.116 23.6221C163.361 23.4048 163.548 23.103 163.677 22.7166C163.81 22.3302 163.876 21.8835 163.876 21.3764C163.876 20.8613 163.81 20.4105 163.677 20.0241C163.548 19.6378 163.361 19.3359 163.116 19.1186C162.87 18.9013 162.57 18.7926 162.216 18.7926C161.85 18.7926 161.54 18.9013 161.287 19.1186C161.037 19.3359 160.846 19.6378 160.713 20.0241C160.584 20.4105 160.52 20.8613 160.52 21.3764C160.52 21.8835 160.584 22.3302 160.713 22.7166C160.846 23.103 161.037 23.4048 161.287 23.6221C161.54 23.8395 161.85 23.9481 162.216 23.9481ZM171.782 26.1335C171.098 26.1335 170.476 25.9564 169.916 25.6023C169.357 25.2481 168.91 24.7168 168.576 24.0085C168.242 23.3002 168.075 22.4208 168.075 21.3704C168.075 20.2797 168.248 19.3822 168.594 18.6779C168.94 17.9736 169.393 17.4524 169.953 17.1143C170.516 16.7763 171.122 16.6072 171.77 16.6072C172.257 16.6072 172.673 16.6918 173.019 16.8608C173.366 17.0258 173.651 17.2391 173.877 17.5007C174.102 17.7623 174.273 18.034 174.39 18.3157H174.45V13.6371H177.402V26.0007H174.48V24.4975H174.39C174.265 24.7832 174.088 25.0509 173.859 25.3004C173.629 25.5499 173.341 25.7512 172.995 25.9041C172.653 26.057 172.249 26.1335 171.782 26.1335ZM172.808 23.8334C173.166 23.8334 173.472 23.7328 173.726 23.5316C173.979 23.3263 174.174 23.0386 174.311 22.6683C174.448 22.298 174.517 21.8634 174.517 21.3643C174.517 20.8572 174.448 20.4206 174.311 20.0543C174.178 19.6881 173.983 19.4064 173.726 19.2092C173.472 19.0119 173.166 18.9133 172.808 18.9133C172.442 18.9133 172.132 19.014 171.878 19.2152C171.625 19.4164 171.432 19.7002 171.299 20.0664C171.17 20.4326 171.106 20.8653 171.106 21.3643C171.106 21.8634 171.172 22.298 171.305 22.6683C171.438 23.0386 171.629 23.3263 171.878 23.5316C172.132 23.7328 172.442 23.8334 172.808 23.8334ZM183.604 26.1758C182.634 26.1758 181.797 25.9846 181.092 25.6023C180.392 25.2159 179.853 24.6665 179.474 23.9542C179.1 23.2378 178.913 22.3866 178.913 21.4006C178.913 20.4427 179.102 19.6056 179.48 18.8892C179.859 18.1688 180.392 17.6094 181.08 17.2109C181.768 16.8085 182.579 16.6072 183.513 16.6072C184.173 16.6072 184.777 16.7099 185.324 16.9151C185.872 17.1204 186.344 17.4242 186.743 17.8267C187.141 18.2292 187.451 18.7262 187.673 19.3178C187.894 19.9054 188.005 20.5795 188.005 21.3402V22.0767H179.945V20.3622H185.258C185.254 20.0483 185.179 19.7686 185.034 19.5231C184.89 19.2776 184.69 19.0864 184.437 18.9496C184.187 18.8087 183.899 18.7383 183.573 18.7383C183.243 18.7383 182.948 18.8127 182.686 18.9616C182.424 19.1065 182.217 19.3057 182.064 19.5593C181.911 19.8088 181.831 20.0926 181.823 20.4105V22.1552C181.823 22.5335 181.897 22.8655 182.046 23.1513C182.195 23.433 182.406 23.6523 182.68 23.8093C182.954 23.9663 183.28 24.0447 183.658 24.0447C183.92 24.0447 184.157 24.0085 184.37 23.9361C184.584 23.8636 184.767 23.757 184.92 23.6161C185.073 23.4752 185.187 23.3022 185.264 23.0969L187.974 23.1754C187.862 23.7831 187.614 24.3124 187.232 24.7631C186.854 25.2099 186.356 25.558 185.741 25.8075C185.125 26.053 184.413 26.1758 183.604 26.1758ZM196.195 17.3437C196.155 16.901 195.976 16.5569 195.658 16.3114C195.344 16.0619 194.895 15.9371 194.312 15.9371C193.925 15.9371 193.603 15.9874 193.346 16.0881C193.088 16.1887 192.895 16.3275 192.766 16.5046C192.637 16.6777 192.571 16.8769 192.567 17.1023C192.559 17.2874 192.595 17.4504 192.676 17.5913C192.76 17.7321 192.881 17.8569 193.038 17.9655C193.199 18.0702 193.392 18.1627 193.617 18.2432C193.843 18.3237 194.096 18.3942 194.378 18.4545L195.441 18.696C196.052 18.8288 196.592 19.0059 197.058 19.2273C197.529 19.4486 197.924 19.7122 198.242 20.0181C198.564 20.324 198.807 20.6761 198.972 21.0746C199.137 21.473 199.222 21.9197 199.226 22.4148C199.222 23.1955 199.024 23.8656 198.634 24.4251C198.244 24.9845 197.682 25.4131 196.95 25.7109C196.221 26.0087 195.342 26.1577 194.312 26.1577C193.277 26.1577 192.376 26.0027 191.607 25.6928C190.838 25.3829 190.241 24.912 189.814 24.2802C189.388 23.6483 189.168 22.8494 189.156 21.8835H192.018C192.042 22.2819 192.148 22.614 192.338 22.8796C192.527 23.1452 192.786 23.3465 193.116 23.4833C193.45 23.6201 193.837 23.6886 194.275 23.6886C194.678 23.6886 195.02 23.6342 195.302 23.5256C195.587 23.4169 195.807 23.266 195.96 23.0728C196.113 22.8796 196.191 22.6583 196.195 22.4087C196.191 22.1753 196.119 21.9761 195.978 21.8111C195.837 21.642 195.62 21.4971 195.326 21.3764C195.036 21.2516 194.666 21.1369 194.215 21.0323L192.923 20.7305C191.853 20.485 191.009 20.0885 190.394 19.5412C189.778 18.9898 189.472 18.2453 189.476 17.3075C189.472 16.5428 189.677 15.8727 190.092 15.2972C190.506 14.7217 191.08 14.273 191.812 13.951C192.545 13.629 193.38 13.468 194.318 13.468C195.276 13.468 196.107 13.631 196.811 13.957C197.519 14.279 198.069 14.7318 198.459 15.3153C198.849 15.8989 199.049 16.575 199.057 17.3437H196.195ZM203.349 26.1577C202.757 26.1577 202.232 26.0591 201.773 25.8618C201.319 25.6606 200.958 25.3588 200.693 24.9563C200.431 24.5498 200.3 24.0407 200.3 23.429C200.3 22.9138 200.391 22.4792 200.572 22.125C200.753 21.7708 201.003 21.4831 201.321 21.2617C201.638 21.0404 202.005 20.8733 202.419 20.7606C202.834 20.6439 203.276 20.5654 203.747 20.5252C204.275 20.4769 204.699 20.4266 205.021 20.3743C205.343 20.3179 205.577 20.2395 205.721 20.1388C205.87 20.0342 205.945 19.8873 205.945 19.6981V19.668C205.945 19.3581 205.838 19.1186 205.625 18.9496C205.412 18.7805 205.124 18.696 204.762 18.696C204.371 18.696 204.057 18.7805 203.82 18.9496C203.582 19.1186 203.431 19.352 203.367 19.6498L200.644 19.5533C200.725 18.9898 200.932 18.4867 201.266 18.044C201.604 17.5973 202.067 17.2471 202.655 16.9936C203.246 16.736 203.957 16.6072 204.786 16.6072C205.377 16.6072 205.923 16.6777 206.422 16.8185C206.921 16.9554 207.355 17.1566 207.726 17.4222C208.096 17.6838 208.382 18.0058 208.583 18.3881C208.788 18.7705 208.891 19.2071 208.891 19.6981V26.0007H206.114V24.7088H206.041C205.876 25.0227 205.665 25.2883 205.408 25.5057C205.154 25.723 204.854 25.886 204.508 25.9947C204.166 26.1033 203.78 26.1577 203.349 26.1577ZM204.26 24.2258C204.578 24.2258 204.864 24.1614 205.118 24.0327C205.375 23.9039 205.581 23.7268 205.734 23.5014C205.886 23.272 205.963 23.0064 205.963 22.7045V21.8231C205.878 21.8674 205.776 21.9077 205.655 21.9439C205.538 21.9801 205.41 22.0143 205.269 22.0465C205.128 22.0787 204.983 22.1069 204.834 22.131C204.685 22.1552 204.542 22.1773 204.405 22.1974C204.128 22.2417 203.89 22.3101 203.693 22.4027C203.5 22.4953 203.351 22.616 203.246 22.7649C203.146 22.9098 203.095 23.0828 203.095 23.2841C203.095 23.59 203.204 23.8234 203.421 23.9844C203.643 24.1453 203.922 24.2258 204.26 24.2258ZM213.648 20.7123V26.0007H210.696V16.728H213.503V18.4304H213.606C213.811 17.8629 214.161 17.4182 214.656 17.0962C215.151 16.7702 215.741 16.6072 216.425 16.6072C217.077 16.6072 217.642 16.7541 218.121 17.0479C218.604 17.3377 218.979 17.7442 219.244 18.2674C219.514 18.7866 219.647 19.3943 219.643 20.0905V26.0007H216.691V20.6701C216.695 20.1549 216.564 19.7525 216.298 19.4627C216.037 19.1729 215.672 19.028 215.205 19.028C214.896 19.028 214.622 19.0965 214.384 19.2333C214.151 19.3661 213.97 19.5573 213.841 19.8068C213.716 20.0563 213.652 20.3582 213.648 20.7123ZM224.857 26.1335C224.173 26.1335 223.551 25.9564 222.992 25.6023C222.432 25.2481 221.985 24.7168 221.651 24.0085C221.317 23.3002 221.15 22.4208 221.15 21.3704C221.15 20.2797 221.323 19.3822 221.669 18.6779C222.016 17.9736 222.468 17.4524 223.028 17.1143C223.591 16.7763 224.197 16.6072 224.845 16.6072C225.332 16.6072 225.748 16.6918 226.095 16.8608C226.441 17.0258 226.726 17.2391 226.952 17.5007C227.177 17.7623 227.348 18.034 227.465 18.3157H227.525V13.6371H230.477V26.0007H227.556V24.4975H227.465C227.34 24.7832 227.163 25.0509 226.934 25.3004C226.704 25.5499 226.417 25.7512 226.07 25.9041C225.728 26.057 225.324 26.1335 224.857 26.1335ZM225.883 23.8334C226.241 23.8334 226.547 23.7328 226.801 23.5316C227.054 23.3263 227.25 23.0386 227.386 22.6683C227.523 22.298 227.592 21.8634 227.592 21.3643C227.592 20.8572 227.523 20.4206 227.386 20.0543C227.254 19.6881 227.058 19.4064 226.801 19.2092C226.547 19.0119 226.241 18.9133 225.883 18.9133C225.517 18.9133 225.207 19.014 224.954 19.2152C224.7 19.4164 224.507 19.7002 224.374 20.0664C224.245 20.4326 224.181 20.8653 224.181 21.3643C224.181 21.8634 224.247 22.298 224.38 22.6683C224.513 23.0386 224.704 23.3263 224.954 23.5316C225.207 23.7328 225.517 23.8334 225.883 23.8334ZM232.344 26.0007V13.6371H235.296V18.3157H235.357C235.477 18.034 235.649 17.7623 235.87 17.5007C236.095 17.2391 236.381 17.0258 236.727 16.8608C237.077 16.6918 237.496 16.6072 237.983 16.6072C238.627 16.6072 239.228 16.7763 239.788 17.1143C240.351 17.4524 240.806 17.9736 241.152 18.6779C241.498 19.3822 241.671 20.2797 241.671 21.3704C241.671 22.4208 241.504 23.3002 241.17 24.0085C240.84 24.7168 240.394 25.2481 239.83 25.6023C239.271 25.9564 238.649 26.1335 237.965 26.1335C237.498 26.1335 237.093 26.057 236.751 25.9041C236.409 25.7512 236.121 25.5499 235.888 25.3004C235.659 25.0509 235.481 24.7832 235.357 24.4975H235.266V26.0007H232.344ZM235.236 21.3643C235.236 21.8634 235.302 22.298 235.435 22.6683C235.572 23.0386 235.767 23.3263 236.021 23.5316C236.278 23.7328 236.586 23.8334 236.944 23.8334C237.307 23.8334 237.615 23.7328 237.868 23.5316C238.122 23.3263 238.313 23.0386 238.442 22.6683C238.574 22.298 238.641 21.8634 238.641 21.3643C238.641 20.8653 238.574 20.4326 238.442 20.0664C238.313 19.7002 238.122 19.4164 237.868 19.2152C237.619 19.014 237.311 18.9133 236.944 18.9133C236.582 18.9133 236.274 19.0119 236.021 19.2092C235.767 19.4064 235.572 19.6881 235.435 20.0543C235.302 20.4206 235.236 20.8572 235.236 21.3643ZM247.547 26.1758C246.573 26.1758 245.736 25.9765 245.035 25.5781C244.339 25.1757 243.802 24.6162 243.424 23.8998C243.049 23.1794 242.862 22.3443 242.862 21.3945C242.862 20.4407 243.049 19.6056 243.424 18.8892C243.802 18.1688 244.339 17.6094 245.035 17.2109C245.736 16.8085 246.573 16.6072 247.547 16.6072C248.521 16.6072 249.356 16.8085 250.052 17.2109C250.752 17.6094 251.29 18.1688 251.664 18.8892C252.042 19.6056 252.231 20.4407 252.231 21.3945C252.231 22.3443 252.042 23.1794 251.664 23.8998C251.29 24.6162 250.752 25.1757 250.052 25.5781C249.356 25.9765 248.521 26.1758 247.547 26.1758ZM247.565 23.9481C247.919 23.9481 248.219 23.8395 248.464 23.6221C248.71 23.4048 248.897 23.103 249.026 22.7166C249.159 22.3302 249.225 21.8835 249.225 21.3764C249.225 20.8613 249.159 20.4105 249.026 20.0241C248.897 19.6378 248.71 19.3359 248.464 19.1186C248.219 18.9013 247.919 18.7926 247.565 18.7926C247.199 18.7926 246.889 18.9013 246.635 19.1186C246.386 19.3359 246.195 19.6378 246.062 20.0241C245.933 20.4105 245.869 20.8613 245.869 21.3764C245.869 21.8835 245.933 22.3302 246.062 22.7166C246.195 23.103 246.386 23.4048 246.635 23.6221C246.889 23.8395 247.199 23.9481 247.565 23.9481ZM255.923 16.728L257.45 19.7827L259.032 16.728H262.008L259.418 21.3643L262.105 26.0007H259.153L257.45 22.9219L255.79 26.0007H252.796L255.488 21.3643L252.929 16.728H255.923Z" fill="#DCFF50"/>
</g>
<defs>
<filter id="filter0_d_1_56" x="2.39972" y="0.39972" width="39.202" height="39.202" filterUnits="userSpaceOnUse" color-interpolation-filters="sRGB">
<feFlood flood-opacity="0" result="BackgroundImageFix"/>
<feColorMatrix in="SourceAlpha" type="matrix" values="0 0 0 0 0 0 0 0 0 0 0 0 0 0 0 0 0 0 127 0" result="hardAlpha"/>
<feOffset/>
<feGaussianBlur stdDeviation="2.80014"/>
<feComposite in2="hardAlpha" operator="out"/>
<feColorMatrix type="matrix" values="0 0 0 0 0 0 0 0 0 0 0 0 0 0 0 0 0 0 0.25 0"/>
<feBlend mode="normal" in2="BackgroundImageFix" result="effect1_dropShadow_1_56"/>
<feBlend mode="normal" in="SourceGraphic" in2="effect1_dropShadow_1_56" result="shape"/>
</filter>
<filter id="filter1_d_1_56" x="36.2871" y="3.78642" width="232.429" height="32.4286" filterUnits="userSpaceOnUse" color-interpolation-filters="sRGB">
<feFlood flood-opacity="0" result="BackgroundImageFix"/>
<feColorMatrix in="SourceAlpha" type="matrix" values="0 0 0 0 0 0 0 0 0 0 0 0 0 0 0 0 0 0 127 0" result="hardAlpha"/>
<feOffset/>
<feGaussianBlur stdDeviation="2.85714"/>
<feComposite in2="hardAlpha" operator="out"/>
<feColorMatrix type="matrix" values="0 0 0 0 0 0 0 0 0 0 0 0 0 0 0 0 0 0 0.25 0"/>
<feBlend mode="normal" in2="BackgroundImageFix" result="effect1_dropShadow_1_56"/>
<feBlend mode="normal" in="SourceGraphic" in2="effect1_dropShadow_1_56" result="shape"/>
</filter>
<linearGradient id="paint0_linear_1_56" x1="135.501" y1="0" x2="135.501" y2="40.0014" gradientUnits="userSpaceOnUse">
<stop stop-color="#151515"/>
<stop offset="1" stop-color="#0E0E0E"/>
</linearGradient>
</defs>
</svg>
