<svg width="191" height="56" viewBox="0 0 191 56" fill="none" xmlns="http://www.w3.org/2000/svg">
<rect width="191" height="56" rx="8" fill="url(#paint0_linear_1_50)"/>
<rect x="1.05" y="1.05" width="188.9" height="53.9" rx="6.95" stroke="white" stroke-opacity="0.15" stroke-width="2.1"/>
<g filter="url(#filter0_d_1_50)">
<path d="M12 48H52V8H12V12.0909H47.9092V43.9092H16.0909V8H12V48Z" fill="white"/>
</g>
<g filter="url(#filter1_d_1_50)">
<path d="M62.2613 24.5H60.3977L64.5852 12.8636H66.6136L70.8011 24.5H68.9375L65.6477 14.9773H65.5568L62.2613 24.5ZM62.5738 19.9432H68.6193V21.4204H62.5738V19.9432ZM78.7173 15.7727L75.5525 24.5H73.7344L70.5639 15.7727H72.3878L74.598 22.4886H74.6889L76.8934 15.7727H78.7173ZM82.6037 24.6932C82.0506 24.6932 81.5506 24.5909 81.1037 24.3864C80.6567 24.178 80.3025 23.8769 80.0412 23.4829C79.7836 23.089 79.6548 22.6061 79.6548 22.0341C79.6548 21.5417 79.7495 21.1364 79.9389 20.8182C80.1283 20.5 80.384 20.2481 80.7059 20.0625C81.0279 19.8769 81.3878 19.7367 81.7855 19.642C82.1832 19.5473 82.5885 19.4754 83.0014 19.4261C83.5241 19.3655 83.9484 19.3163 84.2741 19.2784C84.5999 19.2367 84.8366 19.1704 84.9844 19.0795C85.1321 18.9886 85.2059 18.8409 85.2059 18.6364V18.5966C85.2059 18.1004 85.0658 17.7159 84.7855 17.4432C84.509 17.1704 84.0961 17.0341 83.5469 17.0341C82.9749 17.0341 82.5241 17.161 82.1946 17.4148C81.8688 17.6648 81.6434 17.9432 81.5184 18.25L79.9219 17.8864C80.1112 17.3561 80.3878 16.928 80.7514 16.6023C81.1188 16.2727 81.5412 16.0341 82.0184 15.8864C82.4957 15.7348 82.9976 15.6591 83.5241 15.6591C83.8726 15.6591 84.2419 15.7008 84.6321 15.7841C85.026 15.8636 85.3934 16.0114 85.7344 16.2273C86.079 16.4432 86.3612 16.7519 86.5809 17.1534C86.8006 17.5511 86.9105 18.0682 86.9105 18.7045V24.5H85.2514V23.3068H85.1832C85.0734 23.5265 84.9086 23.7424 84.6889 23.9545C84.4692 24.1667 84.187 24.3428 83.8423 24.4829C83.4976 24.6231 83.0847 24.6932 82.6037 24.6932ZM82.973 23.3295C83.4427 23.3295 83.8442 23.2367 84.1775 23.0511C84.5147 22.8655 84.7703 22.6231 84.9446 22.3239C85.1226 22.0208 85.2116 21.697 85.2116 21.3523V20.2273C85.151 20.2879 85.0336 20.3447 84.8594 20.3977C84.6889 20.447 84.4938 20.4905 84.2741 20.5284C84.0544 20.5625 83.8404 20.5947 83.6321 20.625C83.4237 20.6515 83.2495 20.6742 83.1094 20.6932C82.7798 20.7348 82.4787 20.8049 82.2059 20.9034C81.937 21.0019 81.7211 21.1439 81.5582 21.3295C81.3991 21.5114 81.3196 21.7538 81.3196 22.0568C81.3196 22.4773 81.4749 22.7954 81.7855 23.0114C82.0961 23.2235 82.4919 23.3295 82.973 23.3295ZM89.1733 24.5V15.7727H90.8721V24.5H89.1733ZM90.0312 14.4261C89.7358 14.4261 89.482 14.3276 89.2699 14.1307C89.0615 13.9299 88.9574 13.6913 88.9574 13.4148C88.9574 13.1345 89.0615 12.8958 89.2699 12.6989C89.482 12.4981 89.7358 12.3977 90.0312 12.3977C90.3267 12.3977 90.5786 12.4981 90.7869 12.6989C90.999 12.8958 91.1051 13.1345 91.1051 13.4148C91.1051 13.6913 90.999 13.9299 90.7869 14.1307C90.5786 14.3276 90.3267 14.4261 90.0312 14.4261ZM94.8565 12.8636V24.5H93.1576V12.8636H94.8565ZM99.6818 24.6932C99.1288 24.6932 98.6288 24.5909 98.1818 24.3864C97.7348 24.178 97.3807 23.8769 97.1193 23.4829C96.8617 23.089 96.7329 22.6061 96.7329 22.0341C96.7329 21.5417 96.8276 21.1364 97.017 20.8182C97.2064 20.5 97.4621 20.2481 97.7841 20.0625C98.106 19.8769 98.4659 19.7367 98.8636 19.642C99.2613 19.5473 99.6666 19.4754 100.08 19.4261C100.602 19.3655 101.026 19.3163 101.352 19.2784C101.678 19.2367 101.915 19.1704 102.062 19.0795C102.21 18.9886 102.284 18.8409 102.284 18.6364V18.5966C102.284 18.1004 102.144 17.7159 101.864 17.4432C101.587 17.1704 101.174 17.0341 100.625 17.0341C100.053 17.0341 99.6022 17.161 99.2727 17.4148C98.9469 17.6648 98.7216 17.9432 98.5966 18.25L97 17.8864C97.1894 17.3561 97.4659 16.928 97.8295 16.6023C98.1969 16.2727 98.6193 16.0341 99.0966 15.8864C99.5738 15.7348 100.076 15.6591 100.602 15.6591C100.951 15.6591 101.32 15.7008 101.71 15.7841C102.104 15.8636 102.472 16.0114 102.812 16.2273C103.157 16.4432 103.439 16.7519 103.659 17.1534C103.879 17.5511 103.989 18.0682 103.989 18.7045V24.5H102.33V23.3068H102.261C102.151 23.5265 101.987 23.7424 101.767 23.9545C101.547 24.1667 101.265 24.3428 100.92 24.4829C100.576 24.6231 100.163 24.6932 99.6818 24.6932ZM100.051 23.3295C100.521 23.3295 100.922 23.2367 101.256 23.0511C101.593 22.8655 101.848 22.6231 102.023 22.3239C102.201 22.0208 102.29 21.697 102.29 21.3523V20.2273C102.229 20.2879 102.112 20.3447 101.937 20.3977C101.767 20.447 101.572 20.4905 101.352 20.5284C101.133 20.5625 100.919 20.5947 100.71 20.625C100.502 20.6515 100.328 20.6742 100.187 20.6932C99.8579 20.7348 99.5568 20.8049 99.2841 20.9034C99.0151 21.0019 98.7992 21.1439 98.6363 21.3295C98.4772 21.5114 98.3977 21.7538 98.3977 22.0568C98.3977 22.4773 98.553 22.7954 98.8636 23.0114C99.1742 23.2235 99.57 23.3295 100.051 23.3295ZM106.388 24.5V12.8636H108.087V17.1875H108.189C108.287 17.0057 108.429 16.7954 108.615 16.5568C108.801 16.3182 109.058 16.1098 109.388 15.9318C109.717 15.75 110.153 15.6591 110.695 15.6591C111.399 15.6591 112.028 15.8371 112.581 16.1932C113.134 16.5492 113.568 17.0625 113.882 17.7329C114.2 18.4034 114.359 19.2102 114.359 20.1534C114.359 21.0966 114.202 21.9053 113.888 22.5795C113.573 23.25 113.142 23.767 112.592 24.1307C112.043 24.4905 111.416 24.6704 110.712 24.6704C110.181 24.6704 109.748 24.5814 109.41 24.4034C109.077 24.2254 108.816 24.017 108.626 23.7784C108.437 23.5398 108.291 23.3276 108.189 23.142H108.047V24.5H106.388ZM108.053 20.1364C108.053 20.75 108.142 21.2879 108.32 21.75C108.498 22.2121 108.755 22.5739 109.092 22.8352C109.429 23.0928 109.842 23.2216 110.331 23.2216C110.839 23.2216 111.263 23.0871 111.604 22.8182C111.945 22.5454 112.202 22.1761 112.376 21.7102C112.554 21.2443 112.643 20.7197 112.643 20.1364C112.643 19.5606 112.556 19.0436 112.382 18.5852C112.212 18.1269 111.954 17.7651 111.609 17.5C111.268 17.2348 110.842 17.1023 110.331 17.1023C109.839 17.1023 109.422 17.2292 109.081 17.4829C108.744 17.7367 108.488 18.0909 108.314 18.5454C108.14 19 108.053 19.5303 108.053 20.1364ZM117.966 12.8636V24.5H116.267V12.8636H117.966ZM124.013 24.6761C123.153 24.6761 122.412 24.4924 121.791 24.125C121.174 23.7538 120.696 23.2329 120.359 22.5625C120.026 21.8883 119.859 21.0985 119.859 20.1932C119.859 19.2992 120.026 18.5114 120.359 17.8295C120.696 17.1477 121.166 16.6155 121.768 16.2329C122.374 15.8504 123.083 15.6591 123.893 15.6591C124.386 15.6591 124.863 15.7405 125.325 15.9034C125.787 16.0663 126.202 16.322 126.57 16.6704C126.937 17.0189 127.227 17.4716 127.439 18.0284C127.651 18.5814 127.757 19.2538 127.757 20.0454V20.6477H120.82V19.375H126.092C126.092 18.928 126.001 18.5322 125.82 18.1875C125.638 17.839 125.382 17.5644 125.053 17.3636C124.727 17.1629 124.344 17.0625 123.905 17.0625C123.428 17.0625 123.011 17.1799 122.655 17.4148C122.303 17.6458 122.03 17.9489 121.837 18.3239C121.647 18.6951 121.553 19.0985 121.553 19.5341V20.5284C121.553 21.1117 121.655 21.6079 121.859 22.017C122.068 22.4261 122.357 22.7386 122.729 22.9545C123.1 23.1667 123.534 23.2727 124.03 23.2727C124.352 23.2727 124.645 23.2273 124.91 23.1364C125.176 23.0417 125.405 22.9015 125.598 22.7159C125.791 22.5303 125.939 22.3011 126.041 22.0284L127.649 22.3182C127.52 22.7917 127.289 23.2064 126.956 23.5625C126.626 23.9148 126.212 24.1894 125.712 24.3864C125.215 24.5795 124.649 24.6761 124.013 24.6761ZM137.553 24.6761C136.734 24.6761 136.02 24.4886 135.41 24.1136C134.801 23.7386 134.327 23.214 133.99 22.5398C133.653 21.8655 133.484 21.0776 133.484 20.1761C133.484 19.2708 133.653 18.4792 133.99 17.8011C134.327 17.1231 134.801 16.5966 135.41 16.2216C136.02 15.8466 136.734 15.6591 137.553 15.6591C138.371 15.6591 139.085 15.8466 139.695 16.2216C140.304 16.5966 140.778 17.1231 141.115 17.8011C141.452 18.4792 141.621 19.2708 141.621 20.1761C141.621 21.0776 141.452 21.8655 141.115 22.5398C140.778 23.214 140.304 23.7386 139.695 24.1136C139.085 24.4886 138.371 24.6761 137.553 24.6761ZM137.558 23.25C138.089 23.25 138.528 23.1098 138.876 22.8295C139.225 22.5492 139.482 22.1761 139.649 21.7102C139.82 21.2443 139.905 20.7311 139.905 20.1704C139.905 19.6136 139.82 19.1023 139.649 18.6364C139.482 18.1667 139.225 17.7898 138.876 17.5057C138.528 17.2216 138.089 17.0795 137.558 17.0795C137.024 17.0795 136.581 17.2216 136.229 17.5057C135.88 17.7898 135.621 18.1667 135.45 18.6364C135.284 19.1023 135.2 19.6136 135.2 20.1704C135.2 20.7311 135.284 21.2443 135.45 21.7102C135.621 22.1761 135.88 22.5492 136.229 22.8295C136.581 23.1098 137.024 23.25 137.558 23.25ZM145.216 19.3182V24.5H143.517V15.7727H145.148V17.1932H145.256C145.456 16.7311 145.771 16.3598 146.199 16.0795C146.631 15.7992 147.174 15.6591 147.83 15.6591C148.424 15.6591 148.945 15.7841 149.392 16.0341C149.839 16.2803 150.186 16.6477 150.432 17.1364C150.678 17.625 150.801 18.2292 150.801 18.9489V24.5H149.102V19.1534C149.102 18.5208 148.937 18.0265 148.608 17.6704C148.278 17.3106 147.826 17.1307 147.25 17.1307C146.856 17.1307 146.506 17.2159 146.199 17.3864C145.896 17.5568 145.655 17.8068 145.477 18.1364C145.303 18.4621 145.216 18.8561 145.216 19.3182Z" fill="#E8E8E8"/>
<path d="M72.1584 35.6158H69.1399C69.0997 35.3059 69.0171 35.0261 68.8924 34.7766C68.7676 34.5271 68.6026 34.3138 68.3974 34.1367C68.1921 33.9596 67.9486 33.8248 67.6669 33.7322C67.3892 33.6356 67.0813 33.5873 66.7432 33.5873C66.1436 33.5873 65.6264 33.7342 65.1917 34.028C64.7611 34.3218 64.4291 34.7464 64.1957 35.3018C63.9662 35.8572 63.8515 36.5293 63.8515 37.3182C63.8515 38.1392 63.9683 38.8274 64.2017 39.3828C64.4391 39.9342 64.7712 40.3507 65.1978 40.6324C65.6284 40.9101 66.1375 41.049 66.7251 41.049C67.0551 41.049 67.355 41.0067 67.6246 40.9222C67.8983 40.8377 68.1378 40.715 68.343 40.554C68.5523 40.389 68.7233 40.1897 68.8562 39.9563C68.993 39.7189 69.0876 39.4512 69.1399 39.1534L72.1584 39.1715C72.106 39.7189 71.9471 40.2582 71.6814 40.7894C71.4198 41.3207 71.0596 41.8056 70.6008 42.2443C70.142 42.679 69.5826 43.0251 68.9226 43.2827C68.2666 43.5402 67.514 43.669 66.6648 43.669C65.5459 43.669 64.5438 43.4235 63.6584 42.9325C62.777 42.4375 62.0807 41.7171 61.5696 40.7713C61.0585 39.8255 60.8029 38.6745 60.8029 37.3182C60.8029 35.9578 61.0625 34.8048 61.5817 33.859C62.1008 32.9132 62.8031 32.1948 63.6885 31.7038C64.574 31.2128 65.566 30.9673 66.6648 30.9673C67.4133 30.9673 68.1056 31.072 68.7415 31.2812C69.3773 31.4865 69.9368 31.7883 70.4197 32.1868C70.9027 32.5812 71.2951 33.0662 71.5969 33.6417C71.8988 34.2172 72.0859 34.8752 72.1584 35.6158ZM78.1968 43.6751C77.2228 43.6751 76.3857 43.4758 75.6854 43.0774C74.9892 42.6749 74.4519 42.1155 74.0736 41.3991C73.6993 40.6787 73.5121 39.8436 73.5121 38.8938C73.5121 37.94 73.6993 37.1049 74.0736 36.3885C74.4519 35.6681 74.9892 35.1087 75.6854 34.7102C76.3857 34.3078 77.2228 34.1065 78.1968 34.1065C79.1708 34.1065 80.0059 34.3078 80.7021 34.7102C81.4024 35.1087 81.9397 35.6681 82.314 36.3885C82.6923 37.1049 82.8815 37.94 82.8815 38.8938C82.8815 39.8436 82.6923 40.6787 82.314 41.3991C81.9397 42.1155 81.4024 42.6749 80.7021 43.0774C80.0059 43.4758 79.1708 43.6751 78.1968 43.6751ZM78.2149 41.4474C78.5691 41.4474 78.8689 41.3388 79.1144 41.1214C79.3599 40.9041 79.5471 40.6023 79.6758 40.2159C79.8087 39.8295 79.8751 39.3828 79.8751 38.8757C79.8751 38.3605 79.8087 37.9098 79.6758 37.5234C79.5471 37.1371 79.3599 36.8352 79.1144 36.6179C78.8689 36.4006 78.5691 36.2919 78.2149 36.2919C77.8487 36.2919 77.5388 36.4006 77.2852 36.6179C77.0357 36.8352 76.8445 37.1371 76.7117 37.5234C76.5829 37.9098 76.5185 38.3605 76.5185 38.8757C76.5185 39.3828 76.5829 39.8295 76.7117 40.2159C76.8445 40.6023 77.0357 40.9041 77.2852 41.1214C77.5388 41.3388 77.8487 41.4474 78.2149 41.4474ZM87.7804 43.6328C87.0962 43.6328 86.4744 43.4557 85.915 43.1016C85.3556 42.7474 84.9089 42.2161 84.5748 41.5078C84.2408 40.7995 84.0738 39.9201 84.0738 38.8697C84.0738 37.779 84.2468 36.8815 84.5929 36.1772C84.939 35.4729 85.3918 34.9517 85.9512 34.6136C86.5147 34.2756 87.1204 34.1065 87.7684 34.1065C88.2553 34.1065 88.6719 34.191 89.018 34.3601C89.3641 34.5251 89.6499 34.7384 89.8752 35C90.1006 35.2616 90.2717 35.5333 90.3884 35.815H90.4488V31.1364H93.4008V43.5H90.4789V41.9968H90.3884C90.2636 42.2825 90.0865 42.5502 89.8571 42.7997C89.6277 43.0492 89.34 43.2505 88.9939 43.4034C88.6518 43.5563 88.2473 43.6328 87.7804 43.6328ZM88.8067 41.3327C89.1649 41.3327 89.4708 41.2321 89.7243 41.0309C89.9779 40.8256 90.1731 40.5379 90.3099 40.1676C90.4467 39.7973 90.5152 39.3627 90.5152 38.8636C90.5152 38.3565 90.4467 37.9199 90.3099 37.5536C90.1771 37.1874 89.9819 36.9056 89.7243 36.7084C89.4708 36.5112 89.1649 36.4126 88.8067 36.4126C88.4405 36.4126 88.1306 36.5132 87.877 36.7145C87.6235 36.9157 87.4303 37.1994 87.2975 37.5657C87.1687 37.9319 87.1043 38.3646 87.1043 38.8636C87.1043 39.3627 87.1707 39.7973 87.3035 40.1676C87.4363 40.5379 87.6275 40.8256 87.877 41.0309C88.1306 41.2321 88.4405 41.3327 88.8067 41.3327ZM99.6022 43.6751C98.6323 43.6751 97.7952 43.4839 97.0909 43.1016C96.3906 42.7152 95.8513 42.1658 95.473 41.4535C95.0987 40.7371 94.9116 39.8859 94.9116 38.8998C94.9116 37.942 95.1007 37.1049 95.479 36.3885C95.8573 35.6681 96.3906 35.1087 97.0788 34.7102C97.767 34.3078 98.578 34.1065 99.5117 34.1065C100.172 34.1065 100.775 34.2092 101.323 34.4144C101.87 34.6197 102.343 34.9235 102.741 35.326C103.14 35.7284 103.45 36.2255 103.671 36.8171C103.892 37.4047 104.003 38.0788 104.003 38.8395V39.576H95.9439V37.8615H101.256C101.252 37.5476 101.178 37.2679 101.033 37.0224C100.888 36.7769 100.689 36.5857 100.435 36.4489C100.186 36.308 99.8981 36.2376 99.5721 36.2376C99.242 36.2376 98.9462 36.312 98.6846 36.4609C98.423 36.6058 98.2158 36.805 98.0628 37.0586C97.9099 37.3081 97.8294 37.5918 97.8214 37.9098V39.6545C97.8214 40.0328 97.8958 40.3648 98.0447 40.6506C98.1936 40.9323 98.4049 41.1516 98.6786 41.3086C98.9523 41.4655 99.2783 41.544 99.6566 41.544C99.9182 41.544 100.156 41.5078 100.369 41.4354C100.582 41.3629 100.765 41.2563 100.918 41.1154C101.071 40.9745 101.186 40.8015 101.262 40.5962L103.973 40.6747C103.86 41.2824 103.613 41.8117 103.23 42.2624C102.852 42.7092 102.355 43.0573 101.739 43.3068C101.124 43.5523 100.411 43.6751 99.6022 43.6751ZM112.194 34.843C112.154 34.4003 111.974 34.0562 111.656 33.8107C111.343 33.5612 110.894 33.4364 110.31 33.4364C109.924 33.4364 109.602 33.4867 109.344 33.5873C109.087 33.688 108.894 33.8268 108.765 34.0039C108.636 34.177 108.57 34.3762 108.566 34.6016C108.558 34.7867 108.594 34.9497 108.674 35.0905C108.759 35.2314 108.879 35.3562 109.036 35.4648C109.197 35.5695 109.391 35.662 109.616 35.7425C109.841 35.823 110.095 35.8935 110.377 35.9538L111.439 36.1953C112.051 36.3281 112.59 36.5052 113.057 36.7266C113.528 36.9479 113.922 37.2115 114.24 37.5174C114.562 37.8233 114.806 38.1754 114.971 38.5739C115.136 38.9723 115.22 39.419 115.224 39.9141C115.22 40.6948 115.023 41.3649 114.633 41.9243C114.242 42.4838 113.681 42.9124 112.948 43.2102C112.22 43.508 111.341 43.6569 110.31 43.6569C109.276 43.6569 108.374 43.502 107.606 43.1921C106.837 42.8822 106.239 42.4113 105.813 41.7795C105.386 41.1476 105.167 40.3487 105.155 39.3828H108.016C108.04 39.7812 108.147 40.1133 108.336 40.3789C108.525 40.6445 108.785 40.8458 109.115 40.9826C109.449 41.1194 109.835 41.1878 110.274 41.1878C110.676 41.1878 111.019 41.1335 111.3 41.0248C111.586 40.9162 111.805 40.7653 111.958 40.5721C112.111 40.3789 112.19 40.1575 112.194 39.908C112.19 39.6746 112.117 39.4754 111.976 39.3104C111.836 39.1413 111.618 38.9964 111.324 38.8757C111.035 38.7509 110.664 38.6362 110.214 38.5316L108.922 38.2297C107.851 37.9842 107.008 37.5878 106.392 37.0405C105.777 36.4891 105.471 35.7445 105.475 34.8068C105.471 34.0421 105.676 33.372 106.09 32.7965C106.505 32.221 107.078 31.7722 107.811 31.4503C108.543 31.1283 109.379 30.9673 110.316 30.9673C111.274 30.9673 112.105 31.1303 112.81 31.4563C113.518 31.7783 114.067 32.2311 114.458 32.8146C114.848 33.3982 115.047 34.0743 115.055 34.843H112.194ZM119.348 43.6569C118.756 43.6569 118.231 43.5583 117.772 43.3611C117.317 43.1599 116.957 42.8581 116.691 42.4556C116.43 42.0491 116.299 41.54 116.299 40.9283C116.299 40.4131 116.389 39.9784 116.571 39.6243C116.752 39.2701 117.001 38.9824 117.319 38.761C117.637 38.5396 118.003 38.3726 118.418 38.2599C118.832 38.1432 119.275 38.0647 119.746 38.0245C120.273 37.9762 120.698 37.9259 121.02 37.8736C121.342 37.8172 121.575 37.7387 121.72 37.6381C121.869 37.5335 121.943 37.3866 121.943 37.1974V37.1672C121.943 36.8574 121.837 36.6179 121.623 36.4489C121.41 36.2798 121.122 36.1953 120.76 36.1953C120.37 36.1953 120.056 36.2798 119.818 36.4489C119.581 36.6179 119.43 36.8513 119.366 37.1491L116.643 37.0525C116.723 36.4891 116.931 35.986 117.265 35.5433C117.603 35.0966 118.066 34.7464 118.653 34.4929C119.245 34.2353 119.955 34.1065 120.784 34.1065C121.376 34.1065 121.921 34.177 122.42 34.3178C122.919 34.4547 123.354 34.6559 123.724 34.9215C124.095 35.1831 124.38 35.5051 124.582 35.8874C124.787 36.2698 124.889 36.7064 124.889 37.1974V43.5H122.112V42.2081H122.04C121.875 42.522 121.664 42.7876 121.406 43.005C121.153 43.2223 120.853 43.3853 120.507 43.494C120.165 43.6026 119.778 43.6569 119.348 43.6569ZM120.259 41.7251C120.577 41.7251 120.863 41.6607 121.116 41.5319C121.374 41.4032 121.579 41.2261 121.732 41.0007C121.885 40.7713 121.962 40.5057 121.962 40.2038V39.3224C121.877 39.3667 121.774 39.4069 121.654 39.4432C121.537 39.4794 121.408 39.5136 121.267 39.5458C121.126 39.578 120.982 39.6062 120.833 39.6303C120.684 39.6545 120.541 39.6766 120.404 39.6967C120.126 39.741 119.889 39.8094 119.692 39.902C119.498 39.9945 119.35 40.1153 119.245 40.2642C119.144 40.4091 119.094 40.5821 119.094 40.7834C119.094 41.0892 119.203 41.3227 119.42 41.4837C119.641 41.6446 119.921 41.7251 120.259 41.7251ZM129.647 38.2116V43.5H126.694V34.2273H129.502V35.9297H129.604C129.81 35.3622 130.16 34.9175 130.655 34.5955C131.15 34.2695 131.739 34.1065 132.424 34.1065C133.076 34.1065 133.641 34.2534 134.12 34.5472C134.603 34.837 134.977 35.2435 135.243 35.7667C135.512 36.2859 135.645 36.8936 135.641 37.5898V43.5H132.689V38.1694C132.693 37.6542 132.562 37.2518 132.297 36.962C132.035 36.6722 131.671 36.5273 131.204 36.5273C130.894 36.5273 130.62 36.5958 130.383 36.7326C130.15 36.8654 129.969 37.0566 129.84 37.3061C129.715 37.5556 129.651 37.8575 129.647 38.2116ZM140.856 43.6328C140.171 43.6328 139.55 43.4557 138.99 43.1016C138.431 42.7474 137.984 42.2161 137.65 41.5078C137.316 40.7995 137.149 39.9201 137.149 38.8697C137.149 37.779 137.322 36.8815 137.668 36.1772C138.014 35.4729 138.467 34.9517 139.026 34.6136C139.59 34.2756 140.196 34.1065 140.844 34.1065C141.331 34.1065 141.747 34.191 142.093 34.3601C142.439 34.5251 142.725 34.7384 142.95 35C143.176 35.2616 143.347 35.5333 143.464 35.815H143.524V31.1364H146.476V43.5H143.554V41.9968H143.464C143.339 42.2825 143.162 42.5502 142.932 42.7997C142.703 43.0492 142.415 43.2505 142.069 43.4034C141.727 43.5563 141.322 43.6328 140.856 43.6328ZM141.882 41.3327C142.24 41.3327 142.546 41.2321 142.799 41.0309C143.053 40.8256 143.248 40.5379 143.385 40.1676C143.522 39.7973 143.59 39.3627 143.59 38.8636C143.59 38.3565 143.522 37.9199 143.385 37.5536C143.252 37.1874 143.057 36.9056 142.799 36.7084C142.546 36.5112 142.24 36.4126 141.882 36.4126C141.516 36.4126 141.206 36.5132 140.952 36.7145C140.699 36.9157 140.505 37.1994 140.373 37.5657C140.244 37.9319 140.179 38.3646 140.179 38.8636C140.179 39.3627 140.246 39.7973 140.379 40.1676C140.512 40.5379 140.703 40.8256 140.952 41.0309C141.206 41.2321 141.516 41.3327 141.882 41.3327ZM148.343 43.5V31.1364H151.295V35.815H151.355C151.476 35.5333 151.647 35.2616 151.868 35C152.094 34.7384 152.38 34.5251 152.726 34.3601C153.076 34.191 153.494 34.1065 153.981 34.1065C154.625 34.1065 155.227 34.2756 155.786 34.6136C156.35 34.9517 156.805 35.4729 157.151 36.1772C157.497 36.8815 157.67 37.779 157.67 38.8697C157.67 39.9201 157.503 40.7995 157.169 41.5078C156.839 42.2161 156.392 42.7474 155.829 43.1016C155.269 43.4557 154.647 43.6328 153.963 43.6328C153.496 43.6328 153.092 43.5563 152.75 43.4034C152.408 43.2505 152.12 43.0492 151.887 42.7997C151.657 42.5502 151.48 42.2825 151.355 41.9968H151.265V43.5H148.343ZM151.235 38.8636C151.235 39.3627 151.301 39.7973 151.434 40.1676C151.571 40.5379 151.766 40.8256 152.019 41.0309C152.277 41.2321 152.585 41.3327 152.943 41.3327C153.305 41.3327 153.613 41.2321 153.867 41.0309C154.12 40.8256 154.311 40.5379 154.44 40.1676C154.573 39.7973 154.639 39.3627 154.639 38.8636C154.639 38.3646 154.573 37.9319 154.44 37.5657C154.311 37.1994 154.12 36.9157 153.867 36.7145C153.617 36.5132 153.309 36.4126 152.943 36.4126C152.581 36.4126 152.273 36.5112 152.019 36.7084C151.766 36.9056 151.571 37.1874 151.434 37.5536C151.301 37.9199 151.235 38.3565 151.235 38.8636ZM163.545 43.6751C162.571 43.6751 161.734 43.4758 161.034 43.0774C160.338 42.6749 159.8 42.1155 159.422 41.3991C159.048 40.6787 158.861 39.8436 158.861 38.8938C158.861 37.94 159.048 37.1049 159.422 36.3885C159.8 35.6681 160.338 35.1087 161.034 34.7102C161.734 34.3078 162.571 34.1065 163.545 34.1065C164.519 34.1065 165.354 34.3078 166.051 34.7102C166.751 35.1087 167.288 35.6681 167.663 36.3885C168.041 37.1049 168.23 37.94 168.23 38.8938C168.23 39.8436 168.041 40.6787 167.663 41.3991C167.288 42.1155 166.751 42.6749 166.051 43.0774C165.354 43.4758 164.519 43.6751 163.545 43.6751ZM163.564 41.4474C163.918 41.4474 164.218 41.3388 164.463 41.1214C164.709 40.9041 164.896 40.6023 165.024 40.2159C165.157 39.8295 165.224 39.3828 165.224 38.8757C165.224 38.3605 165.157 37.9098 165.024 37.5234C164.896 37.1371 164.709 36.8352 164.463 36.6179C164.218 36.4006 163.918 36.2919 163.564 36.2919C163.197 36.2919 162.887 36.4006 162.634 36.6179C162.384 36.8352 162.193 37.1371 162.06 37.5234C161.932 37.9098 161.867 38.3605 161.867 38.8757C161.867 39.3828 161.932 39.8295 162.06 40.2159C162.193 40.6023 162.384 40.9041 162.634 41.1214C162.887 41.3388 163.197 41.4474 163.564 41.4474ZM171.922 34.2273L173.449 37.2819L175.031 34.2273H178.007L175.417 38.8636L178.103 43.5H175.151L173.449 40.4212L171.789 43.5H168.795L171.487 38.8636L168.927 34.2273H171.922Z" fill="#DCFF50"/>
</g>
<defs>
<filter id="filter0_d_1_50" x="6.28571" y="2.28571" width="51.4286" height="51.4286" filterUnits="userSpaceOnUse" color-interpolation-filters="sRGB">
<feFlood flood-opacity="0" result="BackgroundImageFix"/>
<feColorMatrix in="SourceAlpha" type="matrix" values="0 0 0 0 0 0 0 0 0 0 0 0 0 0 0 0 0 0 127 0" result="hardAlpha"/>
<feOffset/>
<feGaussianBlur stdDeviation="2.85714"/>
<feComposite in2="hardAlpha" operator="out"/>
<feColorMatrix type="matrix" values="0 0 0 0 0 0 0 0 0 0 0 0 0 0 0 0 0 0 0.25 0"/>
<feBlend mode="normal" in2="BackgroundImageFix" result="effect1_dropShadow_1_50"/>
<feBlend mode="normal" in="SourceGraphic" in2="effect1_dropShadow_1_50" result="shape"/>
</filter>
<filter id="filter1_d_1_50" x="54.4" y="3.9" width="130.2" height="48.2" filterUnits="userSpaceOnUse" color-interpolation-filters="sRGB">
<feFlood flood-opacity="0" result="BackgroundImageFix"/>
<feColorMatrix in="SourceAlpha" type="matrix" values="0 0 0 0 0 0 0 0 0 0 0 0 0 0 0 0 0 0 127 0" result="hardAlpha"/>
<feOffset/>
<feGaussianBlur stdDeviation="2.8"/>
<feComposite in2="hardAlpha" operator="out"/>
<feColorMatrix type="matrix" values="0 0 0 0 0 0 0 0 0 0 0 0 0 0 0 0 0 0 0.25 0"/>
<feBlend mode="normal" in2="BackgroundImageFix" result="effect1_dropShadow_1_50"/>
<feBlend mode="normal" in="SourceGraphic" in2="effect1_dropShadow_1_50" result="shape"/>
</filter>
<linearGradient id="paint0_linear_1_50" x1="95.5" y1="0" x2="95.5" y2="56" gradientUnits="userSpaceOnUse">
<stop stop-color="#151515"/>
<stop offset="1" stop-color="#0E0E0E"/>
</linearGradient>
</defs>
</svg>
