<svg width="257" height="41" viewBox="0 0 257 41" fill="none" xmlns="http://www.w3.org/2000/svg">
<g clip-path="url(#clip0_1_74)">
<rect x="-0.000732422" y="0.0307617" width="257.001" height="40.0014" rx="8" fill="url(#paint0_linear_1_74)"/>
<g filter="url(#filter0_d_1_74)">
<path d="M5.38434 21.6009C5.31339 21.6009 5.25708 21.6604 5.24791 21.7452L4.99927 23.7917L5.24791 25.8029C5.25708 25.8877 5.31336 25.9467 5.38434 25.9467C5.45306 25.9467 5.50902 25.8881 5.51998 25.8037L5.8147 23.7916L5.51998 21.7447C5.50937 21.6604 5.45271 21.6009 5.38434 21.6009ZM6.78264 20.4828C6.77093 20.3948 6.71279 20.3342 6.64113 20.3342C6.56908 20.3342 6.50947 20.3968 6.49961 20.4828C6.49961 20.4836 6.16538 23.7917 6.16538 23.7917L6.49961 27.0273C6.50913 27.114 6.56874 27.1767 6.64113 27.1767C6.71242 27.1767 6.77058 27.1156 6.78226 27.0281L7.16253 23.7917L6.78264 20.4828ZM12.0497 17.4307C11.9126 17.4307 11.7992 17.5523 11.7927 17.7068L11.5265 23.7944L11.7927 27.7286C11.7996 27.8823 11.9126 28.0035 12.0497 28.0035C12.1861 28.0035 12.2991 27.8819 12.3072 27.7278V27.729L12.6081 23.7944L12.3072 17.7068C12.2991 17.5523 12.1861 17.4307 12.0497 17.4307ZM9.32366 19.5465C9.21836 19.5465 9.13243 19.6376 9.12398 19.7593L8.82414 23.7928L9.12398 27.6952C9.13202 27.8161 9.21832 27.9072 9.32366 27.9072C9.42787 27.9072 9.51379 27.8161 9.52297 27.6952L9.86376 23.7928L9.52297 19.7584C9.51379 19.6376 9.42787 19.5465 9.32366 19.5465ZM14.82 28.0032C14.9901 28.0032 15.1283 27.8545 15.1352 27.6643L15.3964 23.7964L15.1356 15.6916C15.1287 15.5014 14.9904 15.3528 14.8204 15.3528C14.6489 15.3528 14.5104 15.5018 14.5048 15.692L14.2734 23.796L14.5048 27.6655C14.5103 27.8542 14.6489 28.0032 14.82 28.0032ZM20.4915 28.0214C20.7256 28.0214 20.9187 27.8126 20.923 27.5558L21.1052 23.7988L20.923 14.4383C20.919 14.182 20.7256 13.9728 20.4915 13.9728C20.2571 13.9728 20.0637 14.1816 20.06 14.4387L19.8973 23.7956C19.8973 23.8016 20.06 27.5582 20.06 27.5582C20.0637 27.8126 20.2575 28.0214 20.4915 28.0214ZM17.6342 28.0067C17.8379 28.0067 18.0021 27.8296 18.0076 27.6038V27.6065L18.2291 23.7972L18.0072 15.6338C18.0017 15.4079 17.8375 15.2312 17.6338 15.2312C17.4287 15.2312 17.2645 15.4079 17.2601 15.6338L17.0631 23.7976L17.2605 27.6062C17.2649 27.8296 17.4291 28.0067 17.6342 28.0067ZM10.6814 27.9711C10.8024 27.9711 10.9004 27.8661 10.9096 27.7278L11.2307 23.7929L10.9096 20.0497C10.9008 19.9114 10.8028 19.8072 10.6814 19.8072C10.5586 19.8072 10.4605 19.9122 10.4529 20.0513L10.1702 23.7929L10.4529 27.7274C10.4609 27.8661 10.5585 27.9711 10.6814 27.9711ZM7.97693 27.7555C8.0654 27.7555 8.13707 27.6798 8.14731 27.5752L8.50785 23.792L8.14765 19.8662C8.13704 19.7613 8.06537 19.6855 7.9769 19.6855C7.88729 19.6855 7.81562 19.7616 7.80649 19.8662L7.48909 23.792L7.80649 27.5744C7.81528 27.6794 7.88695 27.7555 7.97693 27.7555ZM19.0574 15.4978C18.8362 15.4978 18.6588 15.6884 18.6544 15.9325L18.4745 23.798L18.6544 27.5827C18.6588 27.8236 18.8358 28.0143 19.0574 28.0143C19.2783 28.0143 19.4545 27.8241 19.4596 27.58V27.5832L19.6615 23.7984L19.4596 15.9317C19.4545 15.6884 19.2782 15.4978 19.0574 15.4978ZM13.4298 28.0111C13.5826 28.0111 13.7088 27.876 13.7161 27.7036L13.9969 23.7956L13.7161 16.3156C13.7084 16.1429 13.5826 16.0082 13.4298 16.0082C13.2755 16.0082 13.1497 16.1433 13.1431 16.3156L12.8944 23.7956L13.1435 27.7052C13.1496 27.876 13.2754 28.0111 13.4298 28.0111ZM16.5657 27.6422V27.6402L16.8071 23.7968L16.5657 15.419C16.5599 15.211 16.4085 15.0477 16.2216 15.0477C16.0336 15.0477 15.8823 15.2106 15.8772 15.419L15.6629 23.7964L15.8775 27.6418C15.8826 27.8478 16.0341 28.0106 16.2216 28.0106C16.4089 28.0106 16.5595 27.8478 16.5658 27.6406V27.6422H16.5657ZM34.8191 18.9676C34.2461 18.9676 33.6995 19.0932 33.2014 19.3194C32.8686 15.2352 29.7078 12.0312 25.8522 12.0312C24.9088 12.0312 23.9891 12.2325 23.177 12.5729C22.8614 12.7052 22.7773 12.8415 22.7744 13.1058V27.4888C22.7777 27.7662 22.9763 27.9972 23.226 28.0245C23.2366 28.0257 34.7442 28.0321 34.8188 28.0321C37.1284 28.0321 39.001 26.003 39.001 23.5C39.0009 20.9971 37.1287 18.9676 34.8191 18.9676ZM21.9195 13.0932C21.6682 13.0932 21.462 13.3166 21.4584 13.5912L21.2697 23.8L21.4587 27.5051C21.462 27.7757 21.6683 27.9988 21.9195 27.9988C22.1699 27.9988 22.3762 27.7757 22.3798 27.5011V27.5055L22.585 23.8L22.3798 13.5904C22.3762 13.3166 22.1699 13.0932 21.9195 13.0932Z" fill="url(#paint1_linear_1_74)"/>
</g>
<g filter="url(#filter1_d_1_74)">
<path d="M44.4034 26.5315H42.4233L46.8725 14.1679H49.0277L53.4769 26.5315H51.4968L48.0014 16.4136H47.9049L44.4034 26.5315ZM44.7355 21.6899H51.1588V23.2595H44.7355V21.6899ZM61.8879 17.2588L58.5253 26.5315H56.5935L53.2249 17.2588H55.1627L57.5111 24.3944H57.6077L59.95 17.2588H61.8879ZM66.0171 26.7367C65.4296 26.7367 64.8983 26.6281 64.4234 26.4108C63.9485 26.1894 63.5722 25.8694 63.2945 25.4509C63.0208 25.0323 62.884 24.5192 62.884 23.9115C62.884 23.3883 62.9846 22.9576 63.1858 22.6196C63.3871 22.2815 63.6587 22.0139 64.0008 21.8166C64.3429 21.6194 64.7252 21.4705 65.1478 21.3699C65.5704 21.2693 66.0011 21.1928 66.4397 21.1405C66.9951 21.0761 67.4459 21.0238 67.792 20.9836C68.1381 20.9393 68.3897 20.8688 68.5466 20.7723C68.7036 20.6757 68.7821 20.5187 68.7821 20.3014V20.2591C68.7821 19.7319 68.6332 19.3234 68.3353 19.0336C68.0415 18.7438 67.6028 18.599 67.0193 18.599C66.4116 18.599 65.9326 18.7338 65.5825 19.0034C65.2364 19.2691 64.9969 19.5649 64.8641 19.8909L63.1677 19.5045C63.3689 18.9411 63.6627 18.4863 64.0491 18.1402C64.4395 17.79 64.8882 17.5365 65.3953 17.3795C65.9024 17.2185 66.4357 17.138 66.9951 17.138C67.3654 17.138 67.7578 17.1823 68.1723 17.2708C68.5909 17.3554 68.9813 17.5123 69.3435 17.7417C69.7097 17.9711 70.0096 18.2991 70.243 18.7257C70.4764 19.1483 70.5931 19.6977 70.5931 20.3738V26.5315H68.8304V25.2637H68.7579C68.6412 25.4972 68.4661 25.7266 68.2327 25.9519C67.9993 26.1773 67.6994 26.3645 67.3332 26.5134C66.967 26.6623 66.5283 26.7367 66.0171 26.7367ZM66.4095 25.2879C66.9086 25.2879 67.3352 25.1893 67.6894 24.9921C68.0476 24.7949 68.3192 24.5373 68.5044 24.2193C68.6935 23.8974 68.7881 23.5533 68.7881 23.187V21.9917C68.7237 22.0561 68.5989 22.1165 68.4138 22.1728C68.2327 22.2251 68.0254 22.2714 67.792 22.3117C67.5586 22.3479 67.3312 22.3821 67.1098 22.4143C66.8885 22.4425 66.7033 22.4666 66.5544 22.4867C66.2043 22.531 65.8843 22.6055 65.5946 22.7101C65.3088 22.8148 65.0794 22.9657 64.9064 23.1629C64.7373 23.3561 64.6528 23.6136 64.6528 23.9356C64.6528 24.3823 64.8178 24.7204 65.1478 24.9498C65.4779 25.1752 65.8984 25.2879 66.4095 25.2879ZM72.9973 26.5315V17.2588H74.8024V26.5315H72.9973ZM73.9089 15.828C73.595 15.828 73.3254 15.7234 73.1 15.5141C72.8786 15.3008 72.7679 15.0472 72.7679 14.7534C72.7679 14.4556 72.8786 14.2021 73.1 13.9928C73.3254 13.7795 73.595 13.6728 73.9089 13.6728C74.2228 13.6728 74.4905 13.7795 74.7118 13.9928C74.9372 14.2021 75.0499 14.4556 75.0499 14.7534C75.0499 15.0472 74.9372 15.3008 74.7118 15.5141C74.4905 15.7234 74.2228 15.828 73.9089 15.828ZM79.0358 14.1679V26.5315H77.2307V14.1679H79.0358ZM84.1627 26.7367C83.5751 26.7367 83.0438 26.6281 82.5689 26.4108C82.094 26.1894 81.7177 25.8694 81.44 25.4509C81.1663 25.0323 81.0295 24.5192 81.0295 23.9115C81.0295 23.3883 81.1301 22.9576 81.3313 22.6196C81.5326 22.2815 81.8042 22.0139 82.1463 21.8166C82.4884 21.6194 82.8707 21.4705 83.2933 21.3699C83.7159 21.2693 84.1466 21.1928 84.5852 21.1405C85.1406 21.0761 85.5914 21.0238 85.9375 20.9836C86.2836 20.9393 86.5352 20.8688 86.6921 20.7723C86.8491 20.6757 86.9276 20.5187 86.9276 20.3014V20.2591C86.9276 19.7319 86.7787 19.3234 86.4808 19.0336C86.187 18.7438 85.7484 18.599 85.1648 18.599C84.5571 18.599 84.0781 18.7338 83.728 19.0034C83.3819 19.2691 83.1424 19.5649 83.0096 19.8909L81.3132 19.5045C81.5145 18.9411 81.8082 18.4863 82.1946 18.1402C82.585 17.79 83.0337 17.5365 83.5408 17.3795C84.048 17.2185 84.5812 17.138 85.1406 17.138C85.5109 17.138 85.9033 17.1823 86.3178 17.2708C86.7364 17.3554 87.1268 17.5123 87.489 17.7417C87.8552 17.9711 88.1551 18.2991 88.3885 18.7257C88.6219 19.1483 88.7386 19.6977 88.7386 20.3738V26.5315H86.9759V25.2637H86.9034C86.7867 25.4972 86.6116 25.7266 86.3782 25.9519C86.1448 26.1773 85.8449 26.3645 85.4787 26.5134C85.1125 26.6623 84.6738 26.7367 84.1627 26.7367ZM84.5551 25.2879C85.0541 25.2879 85.4807 25.1893 85.8349 24.9921C86.1931 24.7949 86.4647 24.5373 86.6499 24.2193C86.839 23.8974 86.9336 23.5533 86.9336 23.187V21.9917C86.8692 22.0561 86.7444 22.1165 86.5593 22.1728C86.3782 22.2251 86.1709 22.2714 85.9375 22.3117C85.7041 22.3479 85.4767 22.3821 85.2553 22.4143C85.034 22.4425 84.8488 22.4666 84.6999 22.4867C84.3498 22.531 84.0298 22.6055 83.7401 22.7101C83.4543 22.8148 83.2249 22.9657 83.0519 23.1629C82.8828 23.3561 82.7983 23.6136 82.7983 23.9356C82.7983 24.3823 82.9633 24.7204 83.2933 24.9498C83.6234 25.1752 84.0439 25.2879 84.5551 25.2879ZM91.2877 26.5315V14.1679H93.0928V18.762H93.2014C93.3061 18.5688 93.457 18.3454 93.6542 18.0919C93.8514 17.8383 94.1251 17.617 94.4752 17.4278C94.8254 17.2346 95.2882 17.138 95.8637 17.138C96.6123 17.138 97.2804 17.3272 97.868 17.7055C98.4556 18.0838 98.9164 18.6291 99.2504 19.3415C99.5885 20.0539 99.7576 20.9111 99.7576 21.9132C99.7576 22.9154 99.5905 23.7746 99.2565 24.491C98.9224 25.2034 98.4636 25.7527 97.8801 26.1391C97.2965 26.5214 96.6304 26.7126 95.8818 26.7126C95.3184 26.7126 94.8576 26.618 94.4994 26.4289C94.1452 26.2397 93.8675 26.0184 93.6663 25.7648C93.4651 25.5112 93.3101 25.2859 93.2014 25.0887H93.0505V26.5315H91.2877ZM93.0566 21.8951C93.0566 22.5471 93.1511 23.1186 93.3403 23.6096C93.5295 24.1006 93.8031 24.485 94.1613 24.7627C94.5195 25.0363 94.9582 25.1732 95.4774 25.1732C96.0167 25.1732 96.4674 25.0303 96.8296 24.7446C97.1919 24.4548 97.4655 24.0624 97.6507 23.5674C97.8398 23.0723 97.9344 22.5149 97.9344 21.8951C97.9344 21.2834 97.8418 20.734 97.6567 20.247C97.4756 19.7601 97.2019 19.3757 96.8357 19.094C96.4735 18.8123 96.0207 18.6714 95.4774 18.6714C94.9542 18.6714 94.5115 18.8062 94.1492 19.0759C93.7911 19.3455 93.5194 19.7218 93.3343 20.2048C93.1491 20.6877 93.0566 21.2512 93.0566 21.8951ZM103.589 14.1679V26.5315H101.784V14.1679H103.589ZM110.014 26.7186C109.101 26.7186 108.314 26.5234 107.654 26.1331C106.998 25.7386 106.491 25.1853 106.133 24.4729C105.778 23.7565 105.601 22.9174 105.601 21.9555C105.601 21.0057 105.778 20.1686 106.133 19.4441C106.491 18.7197 106.99 18.1542 107.63 17.7478C108.274 17.3413 109.026 17.138 109.888 17.138C110.411 17.138 110.918 17.2246 111.409 17.3976C111.9 17.5707 112.341 17.8423 112.731 18.2126C113.121 18.5829 113.429 19.0638 113.655 19.6554C113.88 20.243 113.993 20.9574 113.993 21.7985V22.4385H106.622V21.0862H112.224C112.224 20.6113 112.127 20.1907 111.934 19.8245C111.741 19.4542 111.469 19.1624 111.119 18.9491C110.773 18.7358 110.366 18.6291 109.9 18.6291C109.392 18.6291 108.95 18.7539 108.571 19.0034C108.197 19.2489 107.907 19.5709 107.702 19.9693C107.501 20.3638 107.4 20.7924 107.4 21.2552V22.3117C107.4 22.9315 107.509 23.4587 107.726 23.8934C107.948 24.328 108.256 24.66 108.65 24.8894C109.044 25.1148 109.505 25.2275 110.032 25.2275C110.374 25.2275 110.686 25.1792 110.968 25.0826C111.25 24.982 111.493 24.8331 111.699 24.6359C111.904 24.4387 112.061 24.1952 112.169 23.9054L113.878 24.2133C113.741 24.7164 113.496 25.1571 113.141 25.5354C112.791 25.9097 112.351 26.2015 111.819 26.4108C111.292 26.616 110.69 26.7186 110.014 26.7186ZM124.4 26.7186C123.531 26.7186 122.772 26.5194 122.124 26.121C121.476 25.7225 120.973 25.1651 120.615 24.4487C120.257 23.7324 120.078 22.8952 120.078 21.9374C120.078 20.9755 120.257 20.1344 120.615 19.4139C120.973 18.6935 121.476 18.1341 122.124 17.7357C122.772 17.3372 123.531 17.138 124.4 17.138C125.27 17.138 126.028 17.3372 126.676 17.7357C127.324 18.1341 127.827 18.6935 128.185 19.4139C128.544 20.1344 128.723 20.9755 128.723 21.9374C128.723 22.8952 128.544 23.7324 128.185 24.4487C127.827 25.1651 127.324 25.7225 126.676 26.121C126.028 26.5194 125.27 26.7186 124.4 26.7186ZM124.406 25.2034C124.97 25.2034 125.437 25.0545 125.807 24.7566C126.177 24.4588 126.451 24.0624 126.628 23.5674C126.809 23.0723 126.9 22.527 126.9 21.9313C126.9 21.3397 126.809 20.7964 126.628 20.3014C126.451 19.8023 126.177 19.4019 125.807 19.1C125.437 18.7982 124.97 18.6473 124.406 18.6473C123.839 18.6473 123.368 18.7982 122.994 19.1C122.623 19.4019 122.348 19.8023 122.167 20.3014C121.99 20.7964 121.901 21.3397 121.901 21.9313C121.901 22.527 121.99 23.0723 122.167 23.5674C122.348 24.0624 122.623 24.4588 122.994 24.7566C123.368 25.0545 123.839 25.2034 124.406 25.2034ZM132.543 21.0258V26.5315H130.738V17.2588H132.47V18.768H132.585C132.798 18.277 133.132 17.8826 133.587 17.5848C134.046 17.2869 134.623 17.138 135.32 17.138C135.951 17.138 136.505 17.2708 136.98 17.5365C137.455 17.7981 137.823 18.1885 138.085 18.7076C138.346 19.2268 138.477 19.8687 138.477 20.6334V26.5315H136.672V20.8507C136.672 20.1786 136.497 19.6534 136.147 19.2751C135.797 18.8928 135.316 18.7016 134.704 18.7016C134.285 18.7016 133.913 18.7921 133.587 18.9733C133.265 19.1544 133.009 19.42 132.82 19.7701C132.635 20.1162 132.543 20.5348 132.543 21.0258Z" fill="#E8E8E8"/>
<path d="M151.619 17.8745C151.579 17.4318 151.4 17.0877 151.082 16.8422C150.768 16.5927 150.319 16.4679 149.736 16.4679C149.349 16.4679 149.027 16.5182 148.77 16.6188C148.512 16.7195 148.319 16.8583 148.19 17.0354C148.062 17.2085 147.995 17.4077 147.991 17.6331C147.983 17.8182 148.019 17.9812 148.1 18.122C148.184 18.2629 148.305 18.3877 148.462 18.4963C148.623 18.601 148.816 18.6935 149.042 18.774C149.267 18.8545 149.52 18.925 149.802 18.9853L150.865 19.2268C151.476 19.3596 152.016 19.5367 152.483 19.7581C152.954 19.9794 153.348 20.243 153.666 20.5489C153.988 20.8548 154.231 21.2069 154.396 21.6054C154.561 22.0038 154.646 22.4505 154.65 22.9456C154.646 23.7263 154.449 24.3964 154.058 24.9559C153.668 25.5153 153.106 25.9439 152.374 26.2417C151.645 26.5395 150.766 26.6884 149.736 26.6884C148.701 26.6884 147.8 26.5335 147.031 26.2236C146.263 25.9137 145.665 25.4428 145.238 24.811C144.812 24.1791 144.592 23.3802 144.58 22.4143H147.442C147.466 22.8127 147.573 23.1448 147.762 23.4104C147.951 23.676 148.21 23.8773 148.541 24.0141C148.875 24.1509 149.261 24.2193 149.7 24.2193C150.102 24.2193 150.444 24.165 150.726 24.0563C151.012 23.9477 151.231 23.7968 151.384 23.6036C151.537 23.4104 151.615 23.189 151.619 22.9395C151.615 22.7061 151.543 22.5069 151.402 22.3419C151.261 22.1728 151.044 22.0279 150.75 21.9072C150.46 21.7824 150.09 21.6677 149.639 21.5631L148.347 21.2612C147.277 21.0157 146.434 20.6193 145.818 20.072C145.202 19.5206 144.896 18.776 144.9 17.8383C144.896 17.0736 145.101 16.4035 145.516 15.828C145.931 15.2525 146.504 14.8037 147.237 14.4818C147.969 14.1598 148.804 13.9988 149.742 13.9988C150.7 13.9988 151.531 14.1618 152.235 14.4878C152.943 14.8098 153.493 15.2626 153.883 15.8461C154.274 16.4297 154.473 17.1058 154.481 17.8745H151.619ZM160.488 26.7066C159.514 26.7066 158.677 26.5073 157.976 26.1089C157.28 25.7064 156.743 25.147 156.364 24.4306C155.99 23.7102 155.803 22.8751 155.803 21.9253C155.803 20.9715 155.99 20.1364 156.364 19.42C156.743 18.6996 157.28 18.1402 157.976 17.7417C158.677 17.3393 159.514 17.138 160.488 17.138C161.462 17.138 162.297 17.3393 162.993 17.7417C163.693 18.1402 164.23 18.6996 164.605 19.42C164.983 20.1364 165.172 20.9715 165.172 21.9253C165.172 22.8751 164.983 23.7102 164.605 24.4306C164.23 25.147 163.693 25.7064 162.993 26.1089C162.297 26.5073 161.462 26.7066 160.488 26.7066ZM160.506 24.4789C160.86 24.4789 161.16 24.3703 161.405 24.1529C161.651 23.9356 161.838 23.6338 161.967 23.2474C162.099 22.861 162.166 22.4143 162.166 21.9072C162.166 21.392 162.099 20.9413 161.967 20.5549C161.838 20.1686 161.651 19.8667 161.405 19.6494C161.16 19.4321 160.86 19.3234 160.506 19.3234C160.139 19.3234 159.83 19.4321 159.576 19.6494C159.326 19.8667 159.135 20.1686 159.003 20.5549C158.874 20.9413 158.809 21.392 158.809 21.9072C158.809 22.4143 158.874 22.861 159.003 23.2474C159.135 23.6338 159.326 23.9356 159.576 24.1529C159.83 24.3703 160.139 24.4789 160.506 24.4789ZM172.667 22.529V17.2588H175.613V26.5315H172.8V24.8049H172.703C172.498 25.3724 172.148 25.8232 171.653 26.1572C171.162 26.4872 170.568 26.6522 169.872 26.6522C169.24 26.6522 168.685 26.5073 168.206 26.2176C167.727 25.9278 167.355 25.5233 167.089 25.0041C166.823 24.4809 166.689 23.8692 166.684 23.1689V17.2588H169.637V22.5894C169.641 23.0925 169.773 23.4889 170.035 23.7786C170.297 24.0684 170.653 24.2133 171.104 24.2133C171.397 24.2133 171.661 24.1489 171.894 24.0201C172.132 23.8873 172.319 23.6961 172.456 23.4466C172.597 23.1931 172.667 22.8872 172.667 22.529ZM180.444 21.2431V26.5315H177.492V17.2588H180.299V18.9612H180.402C180.607 18.3937 180.957 17.949 181.452 17.627C181.947 17.301 182.537 17.138 183.221 17.138C183.873 17.138 184.439 17.2849 184.918 17.5787C185.4 17.8685 185.775 18.275 186.04 18.7982C186.31 19.3174 186.443 19.9251 186.439 20.6213V26.5315H183.487V21.2009C183.491 20.6857 183.36 20.2833 183.094 19.9935C182.833 19.7037 182.469 19.5588 182.002 19.5588C181.692 19.5588 181.418 19.6273 181.181 19.7641C180.947 19.8969 180.766 20.0881 180.637 20.3376C180.513 20.5871 180.448 20.889 180.444 21.2431ZM191.653 26.6643C190.969 26.6643 190.347 26.4872 189.788 26.1331C189.228 25.7789 188.782 25.2476 188.448 24.5393C188.114 23.831 187.947 22.9516 187.947 21.9012C187.947 20.8105 188.12 19.913 188.466 19.2087C188.812 18.5044 189.265 17.9832 189.824 17.6451C190.387 17.3071 190.993 17.138 191.641 17.138C192.128 17.138 192.545 17.2225 192.891 17.3916C193.237 17.5566 193.523 17.7699 193.748 18.0315C193.973 18.2931 194.144 18.5648 194.261 18.8465H194.322V14.1679H197.274V26.5315H194.352V25.0283H194.261C194.136 25.314 193.959 25.5817 193.73 25.8312C193.501 26.0807 193.213 26.282 192.867 26.4349C192.525 26.5878 192.12 26.6643 191.653 26.6643ZM192.68 24.3642C193.038 24.3642 193.344 24.2636 193.597 24.0624C193.851 23.8571 194.046 23.5694 194.183 23.1991C194.32 22.8288 194.388 22.3942 194.388 21.8951C194.388 21.388 194.32 20.9514 194.183 20.5851C194.05 20.2189 193.855 19.9371 193.597 19.7399C193.344 19.5427 193.038 19.4441 192.68 19.4441C192.313 19.4441 192.003 19.5447 191.75 19.746C191.496 19.9472 191.303 20.2309 191.17 20.5972C191.041 20.9634 190.977 21.3961 190.977 21.8951C190.977 22.3942 191.044 22.8288 191.176 23.1991C191.309 23.5694 191.5 23.8571 191.75 24.0624C192.003 24.2636 192.313 24.3642 192.68 24.3642ZM210.363 18.6473H207.345C207.304 18.3374 207.222 18.0577 207.097 17.8081C206.972 17.5586 206.807 17.3453 206.602 17.1682C206.397 16.9911 206.153 16.8563 205.872 16.7637C205.594 16.6671 205.286 16.6188 204.948 16.6188C204.348 16.6188 203.831 16.7657 203.397 17.0595C202.966 17.3533 202.634 17.7779 202.4 18.3333C202.171 18.8887 202.056 19.5608 202.056 20.3497C202.056 21.1707 202.173 21.8589 202.407 22.4143C202.644 22.9657 202.976 23.3822 203.403 23.6639C203.833 23.9416 204.342 24.0805 204.93 24.0805C205.26 24.0805 205.56 24.0382 205.829 23.9537C206.103 23.8692 206.343 23.7465 206.548 23.5855C206.757 23.4205 206.928 23.2212 207.061 22.9878C207.198 22.7504 207.292 22.4827 207.345 22.1849L210.363 22.203C210.311 22.7504 210.152 23.2897 209.886 23.8209C209.625 24.3522 209.264 24.8371 208.806 25.2758C208.347 25.7105 207.787 26.0566 207.127 26.3142C206.471 26.5717 205.719 26.7005 204.87 26.7005C203.751 26.7005 202.749 26.455 201.863 25.964C200.982 25.469 200.286 24.7486 199.774 23.8028C199.263 22.857 199.008 21.706 199.008 20.3497C199.008 18.9894 199.267 17.8363 199.786 16.8905C200.306 15.9447 201.008 15.2263 201.893 14.7353C202.779 14.2443 203.771 13.9988 204.87 13.9988C205.618 13.9988 206.31 14.1035 206.946 14.3127C207.582 14.518 208.142 14.8198 208.625 15.2183C209.108 15.6127 209.5 16.0977 209.802 16.6732C210.104 17.2487 210.291 17.9067 210.363 18.6473ZM215.025 14.1679V26.5315H212.073V14.1679H215.025ZM221.233 26.7066C220.259 26.7066 219.422 26.5073 218.721 26.1089C218.025 25.7064 217.488 25.147 217.109 24.4306C216.735 23.7102 216.548 22.8751 216.548 21.9253C216.548 20.9715 216.735 20.1364 217.109 19.42C217.488 18.6996 218.025 18.1402 218.721 17.7417C219.422 17.3393 220.259 17.138 221.233 17.138C222.207 17.138 223.042 17.3393 223.738 17.7417C224.438 18.1402 224.976 18.6996 225.35 19.42C225.728 20.1364 225.917 20.9715 225.917 21.9253C225.917 22.8751 225.728 23.7102 225.35 24.4306C224.976 25.147 224.438 25.7064 223.738 26.1089C223.042 26.5073 222.207 26.7066 221.233 26.7066ZM221.251 24.4789C221.605 24.4789 221.905 24.3703 222.15 24.1529C222.396 23.9356 222.583 23.6338 222.712 23.2474C222.845 22.861 222.911 22.4143 222.911 21.9072C222.911 21.392 222.845 20.9413 222.712 20.5549C222.583 20.1686 222.396 19.8667 222.15 19.6494C221.905 19.4321 221.605 19.3234 221.251 19.3234C220.885 19.3234 220.575 19.4321 220.321 19.6494C220.072 19.8667 219.88 20.1686 219.748 20.5549C219.619 20.9413 219.554 21.392 219.554 21.9072C219.554 22.4143 219.619 22.861 219.748 23.2474C219.88 23.6338 220.072 23.9356 220.321 24.1529C220.575 24.3703 220.885 24.4789 221.251 24.4789ZM233.412 22.529V17.2588H236.358V26.5315H233.545V24.8049H233.448C233.243 25.3724 232.893 25.8232 232.398 26.1572C231.907 26.4872 231.313 26.6522 230.617 26.6522C229.985 26.6522 229.43 26.5073 228.951 26.2176C228.472 25.9278 228.1 25.5233 227.834 25.0041C227.568 24.4809 227.434 23.8692 227.43 23.1689V17.2588H230.382V22.5894C230.386 23.0925 230.518 23.4889 230.78 23.7786C231.042 24.0684 231.398 24.2133 231.849 24.2133C232.142 24.2133 232.406 24.1489 232.639 24.0201C232.877 23.8873 233.064 23.6961 233.201 23.4466C233.342 23.1931 233.412 22.8872 233.412 22.529ZM241.624 26.6643C240.94 26.6643 240.318 26.4872 239.759 26.1331C239.199 25.7789 238.752 25.2476 238.418 24.5393C238.084 23.831 237.917 22.9516 237.917 21.9012C237.917 20.8105 238.09 19.913 238.436 19.2087C238.783 18.5044 239.235 17.9832 239.795 17.6451C240.358 17.3071 240.964 17.138 241.612 17.138C242.099 17.138 242.515 17.2225 242.861 17.3916C243.208 17.5566 243.493 17.7699 243.719 18.0315C243.944 18.2931 244.115 18.5648 244.232 18.8465H244.292V14.1679H247.244V26.5315H244.322V25.0283H244.232C244.107 25.314 243.93 25.5817 243.701 25.8312C243.471 26.0807 243.183 26.282 242.837 26.4349C242.495 26.5878 242.091 26.6643 241.624 26.6643ZM242.65 24.3642C243.008 24.3642 243.314 24.2636 243.568 24.0624C243.821 23.8571 244.017 23.5694 244.153 23.1991C244.29 22.8288 244.359 22.3942 244.359 21.8951C244.359 21.388 244.29 20.9514 244.153 20.5851C244.021 20.2189 243.825 19.9371 243.568 19.7399C243.314 19.5427 243.008 19.4441 242.65 19.4441C242.284 19.4441 241.974 19.5447 241.721 19.746C241.467 19.9472 241.274 20.2309 241.141 20.5972C241.012 20.9634 240.948 21.3961 240.948 21.8951C240.948 22.3942 241.014 22.8288 241.147 23.1991C241.28 23.5694 241.471 23.8571 241.721 24.0624C241.974 24.2636 242.284 24.3642 242.65 24.3642Z" fill="url(#paint2_linear_1_74)"/>
</g>
</g>
<rect x="1.0707" y="1.10219" width="254.858" height="37.8585" rx="6.92857" stroke="white" stroke-opacity="0.15" stroke-width="2.14286"/>
<defs>
<filter id="filter0_d_1_74" x="-0.601013" y="0.430481" width="45.2023" height="39.2019" filterUnits="userSpaceOnUse" color-interpolation-filters="sRGB">
<feFlood flood-opacity="0" result="BackgroundImageFix"/>
<feColorMatrix in="SourceAlpha" type="matrix" values="0 0 0 0 0 0 0 0 0 0 0 0 0 0 0 0 0 0 127 0" result="hardAlpha"/>
<feOffset/>
<feGaussianBlur stdDeviation="2.80014"/>
<feComposite in2="hardAlpha" operator="out"/>
<feColorMatrix type="matrix" values="0 0 0 0 0 0 0 0 0 0 0 0 0 0 0 0 0 0 0.25 0"/>
<feBlend mode="normal" in2="BackgroundImageFix" result="effect1_dropShadow_1_74"/>
<feBlend mode="normal" in="SourceGraphic" in2="effect1_dropShadow_1_74" result="shape"/>
</filter>
<filter id="filter1_d_1_74" x="36.2864" y="3.81721" width="218.429" height="32.4286" filterUnits="userSpaceOnUse" color-interpolation-filters="sRGB">
<feFlood flood-opacity="0" result="BackgroundImageFix"/>
<feColorMatrix in="SourceAlpha" type="matrix" values="0 0 0 0 0 0 0 0 0 0 0 0 0 0 0 0 0 0 127 0" result="hardAlpha"/>
<feOffset/>
<feGaussianBlur stdDeviation="2.85714"/>
<feComposite in2="hardAlpha" operator="out"/>
<feColorMatrix type="matrix" values="0 0 0 0 0 0 0 0 0 0 0 0 0 0 0 0 0 0 0.25 0"/>
<feBlend mode="normal" in2="BackgroundImageFix" result="effect1_dropShadow_1_74"/>
<feBlend mode="normal" in="SourceGraphic" in2="effect1_dropShadow_1_74" result="shape"/>
</filter>
<linearGradient id="paint0_linear_1_74" x1="128.5" y1="0.0307617" x2="128.5" y2="40.0322" gradientUnits="userSpaceOnUse">
<stop stop-color="#402806"/>
<stop offset="1" stop-color="#270802"/>
</linearGradient>
<linearGradient id="paint1_linear_1_74" x1="21.9985" y1="12.0283" x2="21.9985" y2="33.0308" gradientUnits="userSpaceOnUse">
<stop stop-color="#F79810"/>
<stop offset="1" stop-color="#F8310E"/>
</linearGradient>
<linearGradient id="paint2_linear_1_74" x1="196.501" y1="9.53149" x2="196.501" y2="30.5315" gradientUnits="userSpaceOnUse">
<stop stop-color="#F4B252"/>
<stop offset="1" stop-color="#F4644A"/>
</linearGradient>
<clipPath id="clip0_1_74">
<rect x="-0.000732422" y="0.0307617" width="257.001" height="40.0014" rx="8" fill="white"/>
</clipPath>
</defs>
</svg>
