<svg width="177" height="56" viewBox="0 0 177 56" fill="none" xmlns="http://www.w3.org/2000/svg">
<rect y="-0.000244141" width="177" height="56" rx="8" fill="url(#paint0_linear_1_17)"/>
<rect x="1.05" y="1.04976" width="174.9" height="53.9" rx="6.95" stroke="white" stroke-opacity="0.15" stroke-width="2.1"/>
<g filter="url(#filter0_d_1_17)">
<path d="M8.26437 30.2415C8.16302 30.2415 8.08258 30.3264 8.06948 30.4475L7.71429 33.3709L8.06948 36.244C8.08258 36.3651 8.16298 36.4494 8.26437 36.4494C8.36253 36.4494 8.44248 36.3657 8.45814 36.2451L8.87914 33.3709L8.45814 30.4469C8.44297 30.3263 8.36204 30.2415 8.26437 30.2415ZM10.2618 28.6442C10.2451 28.5186 10.1621 28.4319 10.0597 28.4319C9.95677 28.4319 9.87162 28.5214 9.85753 28.6442C9.85753 28.6453 9.38009 33.3709 9.38009 33.3709L9.85753 37.993C9.87113 38.1169 9.95628 38.2064 10.0597 38.2064C10.1615 38.2064 10.2446 38.1192 10.2613 37.9941L10.8045 33.3709L10.2618 28.6442ZM17.7859 24.2842C17.59 24.2842 17.428 24.458 17.4187 24.6787L17.0384 33.3749L17.4187 38.9948C17.4286 39.2144 17.59 39.3876 17.7859 39.3876C17.9807 39.3876 18.1421 39.2138 18.1536 38.9937V38.9954L18.5835 33.3749L18.1536 24.6787C18.1421 24.458 17.9807 24.2842 17.7859 24.2842ZM13.8917 27.3067C13.7413 27.3067 13.6185 27.4369 13.6064 27.6106L13.1781 33.3726L13.6064 38.9472C13.6179 39.1198 13.7412 39.25 13.8917 39.25C14.0405 39.25 14.1633 39.1198 14.1764 38.9472L14.6632 33.3726L14.1764 27.6094C14.1633 27.4369 14.0405 27.3067 13.8917 27.3067ZM21.7433 39.387C21.9862 39.387 22.1836 39.1747 22.1935 38.903L22.5665 33.3777L22.1941 21.7999C22.1841 21.5282 21.9867 21.316 21.7438 21.316C21.4988 21.316 21.3009 21.5288 21.293 21.8005L20.9623 33.3771L21.293 38.9047C21.3008 39.1742 21.4988 39.387 21.7433 39.387ZM29.845 39.4131C30.1793 39.4131 30.4552 39.1148 30.4614 38.748L30.7216 33.3811L30.4613 20.0097C30.4556 19.6435 30.1793 19.3446 29.845 19.3446C29.5101 19.3446 29.2338 19.6429 29.2286 20.0103L28.9961 33.3766C28.9961 33.3851 29.2286 38.7514 29.2286 38.7514C29.2339 39.1147 29.5107 39.4131 29.845 39.4131ZM25.7633 39.3921C26.0543 39.3921 26.2888 39.1391 26.2966 38.8165V38.8204L26.6131 33.3788L26.2961 21.7173C26.2882 21.3947 26.0537 21.1423 25.7628 21.1423C25.4697 21.1423 25.2352 21.3948 25.2289 21.7173L24.9474 33.3794L25.2295 38.8199C25.2357 39.1391 25.4702 39.3921 25.7633 39.3921ZM15.8312 39.3412C16.0041 39.3412 16.1441 39.1912 16.1572 38.9937L16.6158 33.3726L16.1572 28.0255C16.1447 27.828 16.0047 27.6791 15.8312 27.6791C15.6557 27.6791 15.5157 27.8291 15.5048 28.0278L15.101 33.3726L15.5048 38.9931C15.5163 39.1912 15.6557 39.3412 15.8312 39.3412ZM11.9679 39.0333C12.0943 39.0333 12.1966 38.9252 12.2113 38.7757L12.7263 33.3715L12.2118 27.7635C12.1966 27.6135 12.0942 27.5053 11.9678 27.5053C11.8398 27.5053 11.7375 27.614 11.7244 27.7635L11.271 33.3715L11.7244 38.7746C11.737 38.9246 11.8393 39.0333 11.9679 39.0333ZM27.7963 21.5232C27.4803 21.5232 27.2269 21.7955 27.2207 22.1441L26.9637 33.38L27.2207 38.7865C27.227 39.1306 27.4798 39.4029 27.7963 39.4029C28.1118 39.4029 28.3637 39.1312 28.3709 38.7825V38.7871L28.6593 33.3806L28.3709 22.143C28.3636 21.7955 28.1118 21.5232 27.7963 21.5232ZM19.7572 39.3984C19.9756 39.3984 20.1558 39.2053 20.1663 38.9591L20.5674 33.3765L20.1663 22.6914C20.1553 22.4446 19.9756 22.2522 19.7572 22.2522C19.5368 22.2522 19.3571 22.4452 19.3477 22.6914L18.9925 33.3765L19.3483 38.9614C19.3571 39.2053 19.5368 39.3984 19.7572 39.3984ZM24.237 38.8714V38.8685L24.5817 33.3783L24.237 21.4106C24.2286 21.1134 24.0123 20.8802 23.7454 20.8802C23.4769 20.8802 23.2607 21.1128 23.2534 21.4106L22.9473 33.3777L23.2539 38.8708C23.2612 39.1651 23.4775 39.3977 23.7455 39.3977C24.0129 39.3977 24.2281 39.1651 24.237 38.8691V38.8714H24.237ZM50.3119 26.4797C49.4934 26.4797 48.7125 26.6592 48.0011 26.9823C47.5257 21.1479 43.0104 16.5712 37.5027 16.5712C36.1551 16.5712 34.8413 16.8587 33.6812 17.3449C33.2304 17.5339 33.1102 17.7286 33.1061 18.1062V38.6523C33.1108 39.0485 33.3944 39.3785 33.7512 39.4176C33.7664 39.4193 50.2049 39.4283 50.3115 39.4283C53.6107 39.4283 56.2857 36.5297 56.2857 32.9543C56.2857 29.3788 53.6112 26.4797 50.3119 26.4797ZM31.8848 18.0881C31.5259 18.0881 31.2313 18.4073 31.2261 18.7995L30.9566 33.3828L31.2266 38.6755C31.2313 39.0622 31.526 39.3808 31.8848 39.3808C32.2426 39.3808 32.5372 39.0622 32.5424 38.6699V38.6761L32.8355 33.3828L32.5424 18.7984C32.5372 18.4073 32.2426 18.0881 31.8848 18.0881Z" fill="url(#paint1_linear_1_17)"/>
</g>
<g filter="url(#filter1_d_1_17)">
<path d="M62.2614 24.4998H60.3977L64.5852 12.8634H66.6136L70.8011 24.4998H68.9375L65.6477 14.977H65.5568L62.2614 24.4998ZM62.5739 19.9429H68.6193V21.4202H62.5739V19.9429ZM78.7173 15.7725L75.5526 24.4998H73.7344L70.5639 15.7725H72.3878L74.598 22.4884H74.6889L76.8935 15.7725H78.7173ZM82.6037 24.6929C82.0507 24.6929 81.5507 24.5907 81.1037 24.3861C80.6567 24.1778 80.3026 23.8766 80.0412 23.4827C79.7836 23.0888 79.6548 22.6058 79.6548 22.0338C79.6548 21.5414 79.7495 21.1361 79.9389 20.8179C80.1283 20.4998 80.384 20.2479 80.706 20.0623C81.0279 19.8766 81.3878 19.7365 81.7855 19.6418C82.1832 19.5471 82.5885 19.4751 83.0014 19.4259C83.5241 19.3653 83.9484 19.316 84.2741 19.2782C84.5999 19.2365 84.8366 19.1702 84.9844 19.0793C85.1321 18.9884 85.206 18.8407 85.206 18.6361V18.5963C85.206 18.1001 85.0658 17.7157 84.7855 17.4429C84.509 17.1702 84.0961 17.0338 83.5469 17.0338C82.9749 17.0338 82.5241 17.1607 82.1946 17.4145C81.8688 17.6645 81.6435 17.9429 81.5185 18.2498L79.9219 17.8861C80.1113 17.3558 80.3878 16.9278 80.7514 16.602C81.1188 16.2725 81.5412 16.0338 82.0185 15.8861C82.4957 15.7346 82.9976 15.6588 83.5241 15.6588C83.8726 15.6588 84.2419 15.7005 84.6321 15.7838C85.026 15.8634 85.3935 16.0111 85.7344 16.227C86.0791 16.4429 86.3613 16.7516 86.581 17.1532C86.8007 17.5509 86.9105 18.0679 86.9105 18.7043V24.4998H85.2514V23.3066H85.1832C85.0734 23.5263 84.9086 23.7422 84.6889 23.9543C84.4692 24.1664 84.187 24.3426 83.8423 24.4827C83.4976 24.6229 83.0847 24.6929 82.6037 24.6929ZM82.973 23.3293C83.4427 23.3293 83.8442 23.2365 84.1775 23.0509C84.5147 22.8653 84.7704 22.6229 84.9446 22.3236C85.1226 22.0206 85.2116 21.6967 85.2116 21.352V20.227C85.151 20.2876 85.0336 20.3444 84.8594 20.3975C84.6889 20.4467 84.4938 20.4903 84.2741 20.5282C84.0544 20.5623 83.8404 20.5944 83.6321 20.6248C83.4238 20.6513 83.2495 20.674 83.1094 20.6929C82.7798 20.7346 82.4787 20.8047 82.206 20.9032C81.937 21.0016 81.7211 21.1437 81.5582 21.3293C81.3991 21.5111 81.3196 21.7535 81.3196 22.0566C81.3196 22.477 81.4749 22.7952 81.7855 23.0111C82.0961 23.2232 82.4919 23.3293 82.973 23.3293ZM89.1733 24.4998V15.7725H90.8722V24.4998H89.1733ZM90.0312 14.4259C89.7358 14.4259 89.482 14.3274 89.2699 14.1304C89.0615 13.9297 88.9574 13.691 88.9574 13.4145C88.9574 13.1342 89.0615 12.8956 89.2699 12.6986C89.482 12.4979 89.7358 12.3975 90.0312 12.3975C90.3267 12.3975 90.5786 12.4979 90.7869 12.6986C90.999 12.8956 91.1051 13.1342 91.1051 13.4145C91.1051 13.691 90.999 13.9297 90.7869 14.1304C90.5786 14.3274 90.3267 14.4259 90.0312 14.4259ZM94.8565 12.8634V24.4998H93.1577V12.8634H94.8565ZM99.6818 24.6929C99.1288 24.6929 98.6288 24.5907 98.1818 24.3861C97.7348 24.1778 97.3807 23.8766 97.1193 23.4827C96.8617 23.0888 96.7329 22.6058 96.7329 22.0338C96.7329 21.5414 96.8276 21.1361 97.017 20.8179C97.2064 20.4998 97.4621 20.2479 97.7841 20.0623C98.106 19.8766 98.4659 19.7365 98.8636 19.6418C99.2614 19.5471 99.6667 19.4751 100.08 19.4259C100.602 19.3653 101.027 19.316 101.352 19.2782C101.678 19.2365 101.915 19.1702 102.062 19.0793C102.21 18.9884 102.284 18.8407 102.284 18.6361V18.5963C102.284 18.1001 102.144 17.7157 101.864 17.4429C101.587 17.1702 101.174 17.0338 100.625 17.0338C100.053 17.0338 99.6023 17.1607 99.2727 17.4145C98.947 17.6645 98.7216 17.9429 98.5966 18.2498L97 17.8861C97.1894 17.3558 97.4659 16.9278 97.8295 16.602C98.197 16.2725 98.6193 16.0338 99.0966 15.8861C99.5739 15.7346 100.076 15.6588 100.602 15.6588C100.951 15.6588 101.32 15.7005 101.71 15.7838C102.104 15.8634 102.472 16.0111 102.812 16.227C103.157 16.4429 103.439 16.7516 103.659 17.1532C103.879 17.5509 103.989 18.0679 103.989 18.7043V24.4998H102.33V23.3066H102.261C102.152 23.5263 101.987 23.7422 101.767 23.9543C101.547 24.1664 101.265 24.3426 100.92 24.4827C100.576 24.6229 100.163 24.6929 99.6818 24.6929ZM100.051 23.3293C100.521 23.3293 100.922 23.2365 101.256 23.0509C101.593 22.8653 101.848 22.6229 102.023 22.3236C102.201 22.0206 102.29 21.6967 102.29 21.352V20.227C102.229 20.2876 102.112 20.3444 101.937 20.3975C101.767 20.4467 101.572 20.4903 101.352 20.5282C101.133 20.5623 100.919 20.5944 100.71 20.6248C100.502 20.6513 100.328 20.674 100.187 20.6929C99.8579 20.7346 99.5568 20.8047 99.2841 20.9032C99.0151 21.0016 98.7992 21.1437 98.6364 21.3293C98.4773 21.5111 98.3977 21.7535 98.3977 22.0566C98.3977 22.477 98.553 22.7952 98.8636 23.0111C99.1742 23.2232 99.5701 23.3293 100.051 23.3293ZM106.388 24.4998V12.8634H108.087V17.1873H108.189C108.287 17.0054 108.429 16.7952 108.615 16.5566C108.801 16.3179 109.058 16.1096 109.388 15.9316C109.717 15.7498 110.153 15.6588 110.695 15.6588C111.399 15.6588 112.028 15.8369 112.581 16.1929C113.134 16.549 113.568 17.0623 113.882 17.7327C114.2 18.4032 114.359 19.21 114.359 20.1532C114.359 21.0963 114.202 21.9051 113.888 22.5793C113.573 23.2498 113.142 23.7668 112.592 24.1304C112.043 24.4903 111.416 24.6702 110.712 24.6702C110.181 24.6702 109.748 24.5812 109.41 24.4032C109.077 24.2251 108.816 24.0168 108.626 23.7782C108.437 23.5395 108.291 23.3274 108.189 23.1418H108.047V24.4998H106.388ZM108.053 20.1361C108.053 20.7498 108.142 21.2876 108.32 21.7498C108.498 22.2119 108.755 22.5736 109.092 22.835C109.429 23.0926 109.842 23.2213 110.331 23.2213C110.839 23.2213 111.263 23.0869 111.604 22.8179C111.945 22.5452 112.202 22.1759 112.376 21.71C112.554 21.2441 112.643 20.7194 112.643 20.1361C112.643 19.5604 112.556 19.0433 112.382 18.585C112.212 18.1266 111.954 17.7649 111.609 17.4998C111.268 17.2346 110.842 17.102 110.331 17.102C109.839 17.102 109.422 17.2289 109.081 17.4827C108.744 17.7365 108.488 18.0907 108.314 18.5452C108.14 18.9998 108.053 19.5301 108.053 20.1361ZM117.966 12.8634V24.4998H116.267V12.8634H117.966ZM124.013 24.6759C123.153 24.6759 122.412 24.4922 121.791 24.1248C121.174 23.7535 120.696 23.2327 120.359 22.5623C120.026 21.888 119.859 21.0982 119.859 20.1929C119.859 19.299 120.026 18.5111 120.359 17.8293C120.696 17.1475 121.166 16.6153 121.768 16.2327C122.375 15.8501 123.083 15.6588 123.893 15.6588C124.386 15.6588 124.863 15.7403 125.325 15.9032C125.787 16.066 126.202 16.3217 126.57 16.6702C126.937 17.0187 127.227 17.4713 127.439 18.0282C127.651 18.5812 127.757 19.2535 127.757 20.0452V20.6475H120.82V19.3748H126.092C126.092 18.9278 126.001 18.532 125.82 18.1873C125.638 17.8388 125.382 17.5641 125.053 17.3634C124.727 17.1626 124.344 17.0623 123.905 17.0623C123.428 17.0623 123.011 17.1797 122.655 17.4145C122.303 17.6456 122.03 17.9486 121.837 18.3236C121.647 18.6948 121.553 19.0982 121.553 19.5338V20.5282C121.553 21.1115 121.655 21.6077 121.859 22.0168C122.068 22.4259 122.357 22.7384 122.729 22.9543C123.1 23.1664 123.534 23.2725 124.03 23.2725C124.352 23.2725 124.645 23.227 124.91 23.1361C125.176 23.0414 125.405 22.9013 125.598 22.7157C125.791 22.5301 125.939 22.3009 126.041 22.0282L127.649 22.3179C127.52 22.7914 127.289 23.2062 126.956 23.5623C126.626 23.9145 126.212 24.1891 125.712 24.3861C125.215 24.5793 124.649 24.6759 124.013 24.6759ZM137.553 24.6759C136.734 24.6759 136.02 24.4884 135.41 24.1134C134.801 23.7384 134.327 23.2138 133.99 22.5395C133.653 21.8653 133.484 21.0774 133.484 20.1759C133.484 19.2706 133.653 18.4789 133.99 17.8009C134.327 17.1229 134.801 16.5963 135.41 16.2213C136.02 15.8463 136.734 15.6588 137.553 15.6588C138.371 15.6588 139.085 15.8463 139.695 16.2213C140.304 16.5963 140.778 17.1229 141.115 17.8009C141.452 18.4789 141.621 19.2706 141.621 20.1759C141.621 21.0774 141.452 21.8653 141.115 22.5395C140.778 23.2138 140.304 23.7384 139.695 24.1134C139.085 24.4884 138.371 24.6759 137.553 24.6759ZM137.558 23.2498C138.089 23.2498 138.528 23.1096 138.876 22.8293C139.225 22.549 139.482 22.1759 139.649 21.71C139.82 21.2441 139.905 20.7308 139.905 20.1702C139.905 19.6134 139.82 19.102 139.649 18.6361C139.482 18.1664 139.225 17.7895 138.876 17.5054C138.528 17.2213 138.089 17.0793 137.558 17.0793C137.024 17.0793 136.581 17.2213 136.229 17.5054C135.88 17.7895 135.621 18.1664 135.45 18.6361C135.284 19.102 135.2 19.6134 135.2 20.1702C135.2 20.7308 135.284 21.2441 135.45 21.71C135.621 22.1759 135.88 22.549 136.229 22.8293C136.581 23.1096 137.024 23.2498 137.558 23.2498ZM145.216 19.3179V24.4998H143.517V15.7725H145.148V17.1929H145.256C145.456 16.7308 145.771 16.3596 146.199 16.0793C146.631 15.799 147.174 15.6588 147.83 15.6588C148.424 15.6588 148.945 15.7838 149.392 16.0338C149.839 16.2801 150.186 16.6475 150.432 17.1361C150.678 17.6248 150.801 18.2289 150.801 18.9486V24.4998H149.102V19.1532C149.102 18.5206 148.937 18.0263 148.608 17.6702C148.278 17.3104 147.826 17.1304 147.25 17.1304C146.856 17.1304 146.506 17.2157 146.199 17.3861C145.896 17.5566 145.655 17.8066 145.477 18.1361C145.303 18.4619 145.216 18.8558 145.216 19.3179Z" fill="#E8E8E8"/>
<path d="M67.6186 34.8428C67.5784 34.4001 67.3993 34.056 67.0813 33.8105C66.7674 33.561 66.3187 33.4362 65.7351 33.4362C65.3487 33.4362 65.0268 33.4865 64.7692 33.5871C64.5116 33.6877 64.3184 33.8266 64.1896 34.0037C64.0608 34.1767 63.9944 34.3759 63.9904 34.6013C63.9824 34.7864 64.0186 34.9494 64.0991 35.0903C64.1836 35.2312 64.3043 35.3559 64.4613 35.4646C64.6223 35.5692 64.8155 35.6618 65.0408 35.7423C65.2662 35.8228 65.5198 35.8932 65.8015 35.9536L66.864 36.1951C67.4757 36.3279 68.015 36.505 68.4819 36.7263C68.9528 36.9477 69.3472 37.2113 69.6651 37.5172C69.9871 37.823 70.2306 38.1752 70.3956 38.5736C70.5606 38.9721 70.6451 39.4188 70.6491 39.9138C70.6451 40.6946 70.4479 41.3647 70.0575 41.9241C69.6671 42.4835 69.1057 42.9122 68.3732 43.21C67.6448 43.5078 66.7654 43.6567 65.7351 43.6567C64.7008 43.6567 63.7992 43.5018 63.0305 43.1919C62.2618 42.882 61.6642 42.4111 61.2376 41.7792C60.811 41.1474 60.5916 40.3485 60.5795 39.3826H63.4411C63.4652 39.781 63.5719 40.113 63.761 40.3787C63.9502 40.6443 64.2098 40.8455 64.5398 40.9824C64.8738 41.1192 65.2602 41.1876 65.6989 41.1876C66.1013 41.1876 66.4434 41.1333 66.7251 41.0246C67.0109 40.9159 67.2302 40.765 67.3832 40.5718C67.5361 40.3787 67.6146 40.1573 67.6186 39.9078C67.6146 39.6743 67.5421 39.4751 67.4013 39.3101C67.2604 39.1411 67.0431 38.9962 66.7493 38.8755C66.4595 38.7507 66.0893 38.636 65.6385 38.5314L64.3466 38.2295C63.276 37.984 62.4329 37.5876 61.8171 37.0402C61.2013 36.4889 60.8955 35.7443 60.8995 34.8066C60.8955 34.0419 61.1007 33.3718 61.5153 32.7963C61.9298 32.2208 62.5033 31.772 63.2358 31.45C63.9683 31.1281 64.8034 30.9671 65.7411 30.9671C66.699 30.9671 67.5301 31.1301 68.2344 31.4561C68.9427 31.778 69.4921 32.2308 69.8825 32.8144C70.2728 33.398 70.4721 34.0741 70.4801 34.8428H67.6186ZM76.4869 43.6748C75.5129 43.6748 74.6758 43.4756 73.9755 43.0772C73.2792 42.6747 72.7419 42.1153 72.3636 41.3989C71.9893 40.6785 71.8022 39.8434 71.8022 38.8936C71.8022 37.9397 71.9893 37.1046 72.3636 36.3882C72.7419 35.6678 73.2792 35.1084 73.9755 34.71C74.6758 34.3075 75.5129 34.1063 76.4869 34.1063C77.4608 34.1063 78.2959 34.3075 78.9922 34.71C79.6925 35.1084 80.2298 35.6678 80.604 36.3882C80.9824 37.1046 81.1715 37.9397 81.1715 38.8936C81.1715 39.8434 80.9824 40.6785 80.604 41.3989C80.2298 42.1153 79.6925 42.6747 78.9922 43.0772C78.2959 43.4756 77.4608 43.6748 76.4869 43.6748ZM76.505 41.4472C76.8591 41.4472 77.159 41.3385 77.4045 41.1212C77.65 40.9039 77.8371 40.602 77.9659 40.2157C78.0987 39.8293 78.1651 39.3826 78.1651 38.8755C78.1651 38.3603 78.0987 37.9096 77.9659 37.5232C77.8371 37.1368 77.65 36.835 77.4045 36.6177C77.159 36.4003 76.8591 36.2917 76.505 36.2917C76.1387 36.2917 75.8288 36.4003 75.5753 36.6177C75.3258 36.835 75.1346 37.1368 75.0018 37.5232C74.873 37.9096 74.8086 38.3603 74.8086 38.8755C74.8086 39.3826 74.873 39.8293 75.0018 40.2157C75.1346 40.602 75.3258 40.9039 75.5753 41.1212C75.8288 41.3385 76.1387 41.4472 76.505 41.4472ZM88.6664 39.4973V34.227H91.6124V43.4998H88.7992V41.7732H88.7026C88.4973 42.3407 88.1472 42.7914 87.6522 43.1255C87.1612 43.4555 86.5675 43.6205 85.8713 43.6205C85.2394 43.6205 84.684 43.4756 84.2051 43.1858C83.7261 42.8961 83.3539 42.4916 83.0882 41.9724C82.8226 41.4492 82.6878 40.8375 82.6838 40.1372V34.227H85.6358V39.5576C85.6398 40.0607 85.7727 40.4571 86.0343 40.7469C86.2959 41.0367 86.652 41.1816 87.1028 41.1816C87.3966 41.1816 87.6602 41.1172 87.8936 40.9884C88.1311 40.8556 88.3182 40.6644 88.4551 40.4149C88.5959 40.1613 88.6664 39.8555 88.6664 39.4973ZM96.4434 38.2114V43.4998H93.4914V34.227H96.2986V35.9294H96.4012C96.6064 35.362 96.9566 34.9172 97.4516 34.5953C97.9466 34.2693 98.5362 34.1063 99.2204 34.1063C99.8724 34.1063 100.438 34.2532 100.917 34.547C101.4 34.8368 101.774 35.2432 102.04 35.7664C102.309 36.2856 102.442 36.8933 102.438 37.5896V43.4998H99.4861V38.1691C99.4901 37.654 99.3593 37.2515 99.0936 36.9618C98.832 36.672 98.4678 36.5271 98.001 36.5271C97.6911 36.5271 97.4174 36.5955 97.1799 36.7324C96.9465 36.8652 96.7654 37.0563 96.6366 37.3059C96.5119 37.5554 96.4475 37.8572 96.4434 38.2114ZM107.653 43.6326C106.968 43.6326 106.347 43.4555 105.787 43.1013C105.228 42.7471 104.781 42.2159 104.447 41.5076C104.113 40.7992 103.946 39.9199 103.946 38.8694C103.946 37.7788 104.119 36.8813 104.465 36.177C104.811 35.4726 105.264 34.9515 105.823 34.6134C106.387 34.2753 106.992 34.1063 107.64 34.1063C108.127 34.1063 108.544 34.1908 108.89 34.3598C109.236 34.5248 109.522 34.7382 109.747 34.9998C109.973 35.2614 110.144 35.533 110.26 35.8147H110.321V31.1361H113.273V43.4998H110.351V41.9966H110.26C110.136 42.2823 109.959 42.5499 109.729 42.7995C109.5 43.049 109.212 43.2502 108.866 43.4032C108.524 43.5561 108.119 43.6326 107.653 43.6326ZM108.679 41.3325C109.037 41.3325 109.343 41.2319 109.596 41.0306C109.85 40.8254 110.045 40.5376 110.182 40.1674C110.319 39.7971 110.387 39.3624 110.387 38.8634C110.387 38.3563 110.319 37.9196 110.182 37.5534C110.049 37.1871 109.854 36.9054 109.596 36.7082C109.343 36.511 109.037 36.4124 108.679 36.4124C108.313 36.4124 108.003 36.513 107.749 36.7142C107.496 36.9155 107.302 37.1992 107.17 37.5654C107.041 37.9317 106.976 38.3643 106.976 38.8634C106.976 39.3624 107.043 39.7971 107.176 40.1674C107.308 40.5376 107.5 40.8254 107.749 41.0306C108.003 41.2319 108.313 41.3325 108.679 41.3325ZM126.362 35.6155H123.344C123.304 35.3056 123.221 35.0259 123.096 34.7764C122.972 34.5269 122.807 34.3136 122.601 34.1365C122.396 33.9594 122.153 33.8246 121.871 33.732C121.593 33.6354 121.285 33.5871 120.947 33.5871C120.348 33.5871 119.831 33.734 119.396 34.0278C118.965 34.3216 118.633 34.7462 118.4 35.3016C118.17 35.857 118.056 36.5291 118.056 37.3179C118.056 38.139 118.172 38.8272 118.406 39.3826C118.643 39.9339 118.975 40.3505 119.402 40.6322C119.833 40.9099 120.342 41.0488 120.929 41.0488C121.259 41.0488 121.559 41.0065 121.829 40.922C122.102 40.8375 122.342 40.7147 122.547 40.5537C122.756 40.3887 122.927 40.1895 123.06 39.9561C123.197 39.7186 123.292 39.451 123.344 39.1532L126.362 39.1713C126.31 39.7186 126.151 40.2579 125.886 40.7892C125.624 41.3204 125.264 41.8054 124.805 42.2441C124.346 42.6787 123.787 43.0248 123.127 43.2824C122.471 43.54 121.718 43.6688 120.869 43.6688C119.75 43.6688 118.748 43.4233 117.862 42.9323C116.981 42.4373 116.285 41.7168 115.774 40.7711C115.263 39.8253 115.007 38.6742 115.007 37.3179C115.007 35.9576 115.267 34.8046 115.786 33.8588C116.305 32.913 117.007 32.1946 117.893 31.7036C118.778 31.2126 119.77 30.9671 120.869 30.9671C121.617 30.9671 122.31 31.0717 122.946 31.281C123.581 31.4863 124.141 31.7881 124.624 32.1865C125.107 32.581 125.499 33.0659 125.801 33.6414C126.103 34.217 126.29 34.875 126.362 35.6155ZM131.024 31.1361V43.4998H128.072V31.1361H131.024ZM137.232 43.6748C136.258 43.6748 135.421 43.4756 134.721 43.0772C134.024 42.6747 133.487 42.1153 133.109 41.3989C132.734 40.6785 132.547 39.8434 132.547 38.8936C132.547 37.9397 132.734 37.1046 133.109 36.3882C133.487 35.6678 134.024 35.1084 134.721 34.71C135.421 34.3075 136.258 34.1063 137.232 34.1063C138.206 34.1063 139.041 34.3075 139.737 34.71C140.438 35.1084 140.975 35.6678 141.349 36.3882C141.727 37.1046 141.917 37.9397 141.917 38.8936C141.917 39.8434 141.727 40.6785 141.349 41.3989C140.975 42.1153 140.438 42.6747 139.737 43.0772C139.041 43.4756 138.206 43.6748 137.232 43.6748ZM137.25 41.4472C137.604 41.4472 137.904 41.3385 138.15 41.1212C138.395 40.9039 138.582 40.602 138.711 40.2157C138.844 39.8293 138.91 39.3826 138.91 38.8755C138.91 38.3603 138.844 37.9096 138.711 37.5232C138.582 37.1368 138.395 36.835 138.15 36.6177C137.904 36.4003 137.604 36.2917 137.25 36.2917C136.884 36.2917 136.574 36.4003 136.32 36.6177C136.071 36.835 135.88 37.1368 135.747 37.5232C135.618 37.9096 135.554 38.3603 135.554 38.8755C135.554 39.3826 135.618 39.8293 135.747 40.2157C135.88 40.602 136.071 40.9039 136.32 41.1212C136.574 41.3385 136.884 41.4472 137.25 41.4472ZM149.411 39.4973V34.227H152.357V43.4998H149.544V41.7732H149.448C149.242 42.3407 148.892 42.7914 148.397 43.1255C147.906 43.4555 147.313 43.6205 146.616 43.6205C145.984 43.6205 145.429 43.4756 144.95 43.1858C144.471 42.8961 144.099 42.4916 143.833 41.9724C143.568 41.4492 143.433 40.8375 143.429 40.1372V34.227H146.381V39.5576C146.385 40.0607 146.518 40.4571 146.779 40.7469C147.041 41.0367 147.397 41.1816 147.848 41.1816C148.142 41.1816 148.405 41.1172 148.639 40.9884C148.876 40.8556 149.063 40.6644 149.2 40.4149C149.341 40.1613 149.411 39.8555 149.411 39.4973ZM157.623 43.6326C156.939 43.6326 156.317 43.4555 155.758 43.1013C155.198 42.7471 154.752 42.2159 154.418 41.5076C154.084 40.7992 153.917 39.9199 153.917 38.8694C153.917 37.7788 154.09 36.8813 154.436 36.177C154.782 35.4726 155.235 34.9515 155.794 34.6134C156.357 34.2753 156.963 34.1063 157.611 34.1063C158.098 34.1063 158.515 34.1908 158.861 34.3598C159.207 34.5248 159.493 34.7382 159.718 34.9998C159.943 35.2614 160.114 35.533 160.231 35.8147H160.292V31.1361H163.244V43.4998H160.322V41.9966H160.231C160.106 42.2823 159.929 42.5499 159.7 42.7995C159.47 43.049 159.183 43.2502 158.837 43.4032C158.495 43.5561 158.09 43.6326 157.623 43.6326ZM158.649 41.3325C159.008 41.3325 159.314 41.2319 159.567 41.0306C159.821 40.8254 160.016 40.5376 160.153 40.1674C160.29 39.7971 160.358 39.3624 160.358 38.8634C160.358 38.3563 160.29 37.9196 160.153 37.5534C160.02 37.1871 159.825 36.9054 159.567 36.7082C159.314 36.511 159.008 36.4124 158.649 36.4124C158.283 36.4124 157.973 36.513 157.72 36.7142C157.466 36.9155 157.273 37.1992 157.14 37.5654C157.011 37.9317 156.947 38.3643 156.947 38.8634C156.947 39.3624 157.013 39.7971 157.146 40.1674C157.279 40.5376 157.47 40.8254 157.72 41.0306C157.973 41.2319 158.283 41.3325 158.649 41.3325Z" fill="url(#paint2_linear_1_17)"/>
</g>
<defs>
<filter id="filter0_d_1_17" x="2.00001" y="2.28547" width="60" height="51.4286" filterUnits="userSpaceOnUse" color-interpolation-filters="sRGB">
<feFlood flood-opacity="0" result="BackgroundImageFix"/>
<feColorMatrix in="SourceAlpha" type="matrix" values="0 0 0 0 0 0 0 0 0 0 0 0 0 0 0 0 0 0 127 0" result="hardAlpha"/>
<feOffset/>
<feGaussianBlur stdDeviation="2.85714"/>
<feComposite in2="hardAlpha" operator="out"/>
<feColorMatrix type="matrix" values="0 0 0 0 0 0 0 0 0 0 0 0 0 0 0 0 0 0 0.25 0"/>
<feBlend mode="normal" in2="BackgroundImageFix" result="effect1_dropShadow_1_17"/>
<feBlend mode="normal" in="SourceGraphic" in2="effect1_dropShadow_1_17" result="shape"/>
</filter>
<filter id="filter1_d_1_17" x="54.4" y="3.89976" width="116.2" height="48.2" filterUnits="userSpaceOnUse" color-interpolation-filters="sRGB">
<feFlood flood-opacity="0" result="BackgroundImageFix"/>
<feColorMatrix in="SourceAlpha" type="matrix" values="0 0 0 0 0 0 0 0 0 0 0 0 0 0 0 0 0 0 127 0" result="hardAlpha"/>
<feOffset/>
<feGaussianBlur stdDeviation="2.8"/>
<feComposite in2="hardAlpha" operator="out"/>
<feColorMatrix type="matrix" values="0 0 0 0 0 0 0 0 0 0 0 0 0 0 0 0 0 0 0.25 0"/>
<feBlend mode="normal" in2="BackgroundImageFix" result="effect1_dropShadow_1_17"/>
<feBlend mode="normal" in="SourceGraphic" in2="effect1_dropShadow_1_17" result="shape"/>
</filter>
<linearGradient id="paint0_linear_1_17" x1="88.5" y1="-0.000244141" x2="88.5" y2="55.9997" gradientUnits="userSpaceOnUse">
<stop stop-color="#402806"/>
<stop offset="1" stop-color="#270802"/>
</linearGradient>
<linearGradient id="paint1_linear_1_17" x1="31.9977" y1="16.567" x2="31.9977" y2="46.569" gradientUnits="userSpaceOnUse">
<stop stop-color="#F79810"/>
<stop offset="1" stop-color="#F8310E"/>
</linearGradient>
<linearGradient id="paint2_linear_1_17" x1="112.5" y1="28.4998" x2="112.5" y2="46.4998" gradientUnits="userSpaceOnUse">
<stop stop-color="#F4B252"/>
<stop offset="1" stop-color="#F4644A"/>
</linearGradient>
</defs>
</svg>
