<svg width="304" height="40" viewBox="0 0 304 40" fill="none" xmlns="http://www.w3.org/2000/svg">
<rect width="304.001" height="40.0014" rx="8" fill="url(#paint0_linear_1_56)"/>
<rect x="1.07143" y="1.07143" width="301.858" height="37.8585" rx="6.92857" stroke="white" stroke-opacity="0.15" stroke-width="2.14286"/>
<g filter="url(#filter0_d_1_56)">
<path d="M33.55 26.3756C33.4187 26.1565 33.4187 25.8498 33.55 25.6307C33.6812 25.3678 33.8562 25.061 33.9875 24.7543C34.075 24.5352 33.9437 24.3161 33.6812 24.3161H31.1437C30.8812 24.3161 30.6187 24.4476 30.5312 24.6667C30.225 25.1487 29.8312 25.6307 29.3937 26.0689C27.775 27.6901 25.6312 28.5665 23.3125 28.5665C20.9937 28.5665 18.85 27.6901 17.2312 26.0689C15.5687 24.4476 14.6937 22.3005 14.6937 19.9781C14.6937 17.6557 15.5687 15.5086 17.2312 13.8873C18.85 12.266 20.9937 11.3897 23.3125 11.3897C25.6312 11.3897 27.775 12.266 29.3937 13.8873C29.8312 14.3255 30.225 14.8075 30.5312 15.2895C30.6625 15.5086 30.925 15.6401 31.1437 15.6401H33.6812C33.9 15.6401 34.075 15.421 33.9875 15.2019C33.8562 14.8951 33.725 14.6322 33.55 14.3255C33.4187 14.1064 33.4187 13.7997 33.55 13.5806L34.3812 12.0469C34.5562 11.7402 34.5125 11.3897 34.25 11.1268L32.1062 8.97966C31.8437 8.71674 31.4937 8.67293 31.1875 8.8482L29.6125 9.72457C29.3937 9.85602 29.0875 9.85602 28.8687 9.72457C28.125 9.3302 27.3375 8.97966 26.5062 8.76056C26.2437 8.67293 26.0687 8.49765 25.9812 8.23474L25.5 6.52582C25.4562 6.21909 25.1937 6 24.8437 6H21.825C21.475 6 21.125 6.21909 21.0375 6.56964L20.5562 8.27856C20.4687 8.54147 20.2937 8.71674 20.0312 8.80438C19.2 9.06729 18.4562 9.37402 17.7125 9.76839C17.4937 9.89984 17.1875 9.89984 16.9687 9.76839L15.3938 8.89202C15.0875 8.71674 14.7375 8.76056 14.475 9.02347L12.3313 11.1706C12.0688 11.4335 12.025 11.784 12.2 12.0908L13.075 13.6682C13.2063 13.8873 13.2063 14.1941 13.075 14.4131C12.6813 15.1581 12.3313 15.9468 12.1125 16.7355C12.025 16.9984 11.85 17.1737 11.5875 17.2613L9.88125 17.7433C9.575 17.831 9.3125 18.1377 9.3125 18.4883V21.5117C9.3125 21.8623 9.53125 22.169 9.88125 22.2566L11.5875 22.7387C11.85 22.8263 12.025 23.0016 12.1125 23.2645C12.3313 24.097 12.6813 24.8419 13.075 25.5869C13.2063 25.8498 13.2063 26.1127 13.075 26.3318L12.2 27.9092C12.025 28.216 12.0688 28.5665 12.3313 28.8294L14.475 30.9765C14.7375 31.2394 15.0875 31.2833 15.3938 31.108L16.9687 30.2316C17.2312 30.1002 17.4937 30.1002 17.7125 30.2316C18.4562 30.626 19.2437 30.9765 20.0312 31.1956C20.2937 31.2833 20.4687 31.4585 20.5562 31.7214L21.0375 33.4304C21.125 33.7371 21.4312 34 21.7812 34H24.8C25.15 34 25.4562 33.7809 25.5437 33.4304L26.025 31.7214C26.1125 31.4585 26.2875 31.2833 26.55 31.1956C27.3812 30.9327 28.125 30.626 28.9125 30.2316C29.1312 30.1002 29.4375 30.1002 29.6562 30.2316L31.2312 31.108C31.5375 31.2833 31.8875 31.2394 32.15 30.9765L34.2937 28.8294C34.5562 28.5665 34.6 28.216 34.425 27.9092L33.55 26.3756Z" fill="#67C52A"/>
<path d="M18.1937 22.5196V24.4476H28.6062V22.5196H18.1937ZM18.1937 19.1017V21.0297H26.7687V19.1017H18.1937ZM18.1937 15.6401V17.5681H28.6062V15.6401H18.1937Z" fill="white"/>
</g>
<g filter="url(#filter1_d_1_56)">
<path d="M44.4041 26.5007H42.424L46.8732 14.1371H49.0284L53.4776 26.5007H51.4975L48.0021 16.3828H47.9055L44.4041 26.5007ZM44.7361 21.6591H51.1594V23.2287H44.7361V21.6591ZM61.8886 17.228L58.526 26.5007H56.5942L53.2256 17.228H55.1634L57.5118 24.3636H57.6084L59.9507 17.228H61.8886ZM66.0178 26.706C65.4302 26.706 64.899 26.5973 64.4241 26.38C63.9492 26.1586 63.5729 25.8386 63.2952 25.4201C63.0215 25.0015 62.8846 24.4884 62.8846 23.8807C62.8846 23.3575 62.9853 22.9268 63.1865 22.5888C63.3877 22.2507 63.6594 21.9831 64.0015 21.7859C64.3436 21.5886 64.7259 21.4397 65.1485 21.3391C65.5711 21.2385 66.0017 21.162 66.4404 21.1097C66.9958 21.0453 67.4466 20.993 67.7927 20.9528C68.1388 20.9085 68.3903 20.8381 68.5473 20.7415C68.7042 20.6449 68.7827 20.4879 68.7827 20.2706V20.2283C68.7827 19.7011 68.6338 19.2926 68.336 19.0028C68.0422 18.7131 67.6035 18.5682 67.0199 18.5682C66.4122 18.5682 65.9333 18.703 65.5832 18.9726C65.237 19.2383 64.9976 19.5341 64.8648 19.8601L63.1684 19.4737C63.3696 18.9103 63.6634 18.4555 64.0498 18.1094C64.4402 17.7592 64.8889 17.5057 65.396 17.3487C65.9031 17.1877 66.4364 17.1072 66.9958 17.1072C67.3661 17.1072 67.7585 17.1515 68.173 17.24C68.5916 17.3246 68.9819 17.4815 69.3442 17.7109C69.7104 17.9403 70.0102 18.2683 70.2437 18.6949C70.4771 19.1175 70.5938 19.6669 70.5938 20.343V26.5007H68.831V25.2329H68.7586C68.6419 25.4664 68.4668 25.6958 68.2334 25.9212C67.9999 26.1465 67.7001 26.3337 67.3339 26.4826C66.9676 26.6315 66.5289 26.706 66.0178 26.706ZM66.4102 25.2571C66.9093 25.2571 67.3359 25.1585 67.69 24.9613C68.0482 24.7641 68.3199 24.5065 68.505 24.1886C68.6942 23.8666 68.7888 23.5225 68.7888 23.1562V21.9609C68.7244 22.0253 68.5996 22.0857 68.4145 22.142C68.2334 22.1944 68.0261 22.2406 67.7927 22.2809C67.5592 22.3171 67.3319 22.3513 67.1105 22.3835C66.8891 22.4117 66.704 22.4358 66.5551 22.456C66.205 22.5002 65.885 22.5747 65.5952 22.6793C65.3095 22.784 65.0801 22.9349 64.907 23.1321C64.738 23.3253 64.6535 23.5828 64.6535 23.9048C64.6535 24.3515 64.8185 24.6896 65.1485 24.919C65.4785 25.1444 65.8991 25.2571 66.4102 25.2571ZM72.998 26.5007V17.228H74.8031V26.5007H72.998ZM73.9096 15.7972C73.5957 15.7972 73.326 15.6926 73.1006 15.4833C72.8793 15.27 72.7686 15.0164 72.7686 14.7226C72.7686 14.4248 72.8793 14.1713 73.1006 13.962C73.326 13.7487 73.5957 13.642 73.9096 13.642C74.2235 13.642 74.4911 13.7487 74.7125 13.962C74.9379 14.1713 75.0506 14.4248 75.0506 14.7226C75.0506 15.0164 74.9379 15.27 74.7125 15.4833C74.4911 15.6926 74.2235 15.7972 73.9096 15.7972ZM79.0365 14.1371V26.5007H77.2314V14.1371H79.0365ZM84.1633 26.706C83.5757 26.706 83.0445 26.5973 82.5696 26.38C82.0947 26.1586 81.7184 25.8386 81.4407 25.4201C81.167 25.0015 81.0301 24.4884 81.0301 23.8807C81.0301 23.3575 81.1308 22.9268 81.332 22.5888C81.5332 22.2507 81.8049 21.9831 82.147 21.7859C82.4891 21.5886 82.8714 21.4397 83.294 21.3391C83.7166 21.2385 84.1472 21.162 84.5859 21.1097C85.1413 21.0453 85.5921 20.993 85.9382 20.9528C86.2843 20.9085 86.5358 20.8381 86.6928 20.7415C86.8497 20.6449 86.9282 20.4879 86.9282 20.2706V20.2283C86.9282 19.7011 86.7793 19.2926 86.4815 19.0028C86.1877 18.7131 85.749 18.5682 85.1654 18.5682C84.5577 18.5682 84.0788 18.703 83.7287 18.9726C83.3825 19.2383 83.1431 19.5341 83.0103 19.8601L81.3139 19.4737C81.5151 18.9103 81.8089 18.4555 82.1953 18.1094C82.5857 17.7592 83.0344 17.5057 83.5415 17.3487C84.0486 17.1877 84.5819 17.1072 85.1413 17.1072C85.5116 17.1072 85.904 17.1515 86.3185 17.24C86.7371 17.3246 87.1274 17.4815 87.4897 17.7109C87.8559 17.9403 88.1557 18.2683 88.3892 18.6949C88.6226 19.1175 88.7393 19.6669 88.7393 20.343V26.5007H86.9765V25.2329H86.9041C86.7874 25.4664 86.6123 25.6958 86.3789 25.9212C86.1454 26.1465 85.8456 26.3337 85.4794 26.4826C85.1131 26.6315 84.6744 26.706 84.1633 26.706ZM84.5557 25.2571C85.0548 25.2571 85.4814 25.1585 85.8355 24.9613C86.1937 24.7641 86.4654 24.5065 86.6505 24.1886C86.8397 23.8666 86.9343 23.5225 86.9343 23.1562V21.9609C86.8699 22.0253 86.7451 22.0857 86.56 22.142C86.3789 22.1944 86.1716 22.2406 85.9382 22.2809C85.7047 22.3171 85.4774 22.3513 85.256 22.3835C85.0346 22.4117 84.8495 22.4358 84.7006 22.456C84.3505 22.5002 84.0305 22.5747 83.7407 22.6793C83.455 22.784 83.2256 22.9349 83.0525 23.1321C82.8835 23.3253 82.799 23.5828 82.799 23.9048C82.799 24.3515 82.964 24.6896 83.294 24.919C83.624 25.1444 84.0446 25.2571 84.5557 25.2571ZM91.2884 26.5007V14.1371H93.0934V18.7312H93.2021C93.3067 18.538 93.4577 18.3146 93.6549 18.0611C93.8521 17.8075 94.1258 17.5862 94.4759 17.397C94.826 17.2038 95.2889 17.1072 95.8644 17.1072C96.613 17.1072 97.2811 17.2964 97.8687 17.6747C98.4563 18.053 98.9171 18.5984 99.2511 19.3107C99.5892 20.0231 99.7582 20.8803 99.7582 21.8824C99.7582 22.8846 99.5912 23.7438 99.2571 24.4602C98.9231 25.1726 98.4643 25.7219 97.8807 26.1083C97.2972 26.4906 96.6311 26.6818 95.8825 26.6818C95.3191 26.6818 94.8582 26.5872 94.5 26.3981C94.1459 26.2089 93.8682 25.9876 93.667 25.734C93.4657 25.4805 93.3108 25.2551 93.2021 25.0579H93.0512V26.5007H91.2884ZM93.0572 21.8643C93.0572 22.5163 93.1518 23.0878 93.341 23.5788C93.5301 24.0698 93.8038 24.4542 94.162 24.7319C94.5202 25.0056 94.9589 25.1424 95.478 25.1424C96.0173 25.1424 96.4681 24.9995 96.8303 24.7138C97.1925 24.424 97.4662 24.0316 97.6513 23.5366C97.8405 23.0415 97.9351 22.4841 97.9351 21.8643C97.9351 21.2526 97.8425 20.7032 97.6574 20.2163C97.4763 19.7293 97.2026 19.3449 96.8363 19.0632C96.4741 18.7815 96.0214 18.6406 95.478 18.6406C94.9548 18.6406 94.5121 18.7754 94.1499 19.0451C93.7917 19.3147 93.5201 19.691 93.3349 20.174C93.1498 20.6569 93.0572 21.2204 93.0572 21.8643ZM103.59 14.1371V26.5007H101.785V14.1371H103.59ZM110.015 26.6878C109.101 26.6878 108.315 26.4926 107.655 26.1023C106.999 25.7078 106.491 25.1545 106.133 24.4421C105.779 23.7257 105.602 22.8866 105.602 21.9247C105.602 20.9749 105.779 20.1378 106.133 19.4133C106.491 18.6889 106.99 18.1234 107.63 17.717C108.274 17.3105 109.027 17.1072 109.888 17.1072C110.411 17.1072 110.918 17.1938 111.409 17.3668C111.9 17.5399 112.341 17.8115 112.732 18.1818C113.122 18.5521 113.43 19.033 113.655 19.6246C113.881 20.2122 113.993 20.9266 113.993 21.7677V22.4077H106.622V21.0554H112.224C112.224 20.5805 112.128 20.1599 111.935 19.7937C111.742 19.4234 111.47 19.1316 111.12 18.9183C110.774 18.705 110.367 18.5984 109.9 18.5984C109.393 18.5984 108.95 18.7231 108.572 18.9726C108.198 19.2181 107.908 19.5401 107.703 19.9386C107.502 20.333 107.401 20.7616 107.401 21.2244V22.2809C107.401 22.9007 107.51 23.4279 107.727 23.8626C107.948 24.2972 108.256 24.6292 108.651 24.8587C109.045 25.084 109.506 25.1967 110.033 25.1967C110.375 25.1967 110.687 25.1484 110.969 25.0518C111.251 24.9512 111.494 24.8023 111.699 24.6051C111.905 24.4079 112.061 24.1644 112.17 23.8746L113.879 24.1825C113.742 24.6856 113.496 25.1263 113.142 25.5046C112.792 25.8789 112.351 26.1707 111.82 26.38C111.293 26.5852 110.691 26.6878 110.015 26.6878ZM124.401 26.6878C123.532 26.6878 122.773 26.4886 122.125 26.0902C121.477 25.6917 120.974 25.1343 120.616 24.418C120.258 23.7016 120.079 22.8645 120.079 21.9066C120.079 20.9447 120.258 20.1036 120.616 19.3832C120.974 18.6627 121.477 18.1033 122.125 17.7049C122.773 17.3065 123.532 17.1072 124.401 17.1072C125.27 17.1072 126.029 17.3065 126.677 17.7049C127.325 18.1033 127.828 18.6627 128.186 19.3832C128.544 20.1036 128.723 20.9447 128.723 21.9066C128.723 22.8645 128.544 23.7016 128.186 24.418C127.828 25.1343 127.325 25.6917 126.677 26.0902C126.029 26.4886 125.27 26.6878 124.401 26.6878ZM124.407 25.1726C124.97 25.1726 125.437 25.0237 125.808 24.7258C126.178 24.428 126.452 24.0316 126.629 23.5366C126.81 23.0415 126.9 22.4962 126.9 21.9006C126.9 21.3089 126.81 20.7656 126.629 20.2706C126.452 19.7715 126.178 19.3711 125.808 19.0692C125.437 18.7674 124.97 18.6165 124.407 18.6165C123.84 18.6165 123.369 18.7674 122.994 19.0692C122.624 19.3711 122.348 19.7715 122.167 20.2706C121.99 20.7656 121.902 21.3089 121.902 21.9006C121.902 22.4962 121.99 23.0415 122.167 23.5366C122.348 24.0316 122.624 24.428 122.994 24.7258C123.369 25.0237 123.84 25.1726 124.407 25.1726ZM132.543 20.995V26.5007H130.738V17.228H132.471V18.7372H132.586C132.799 18.2462 133.133 17.8518 133.588 17.554C134.046 17.2561 134.624 17.1072 135.32 17.1072C135.952 17.1072 136.506 17.24 136.98 17.5057C137.455 17.7673 137.824 18.1577 138.085 18.6768C138.347 19.196 138.478 19.8379 138.478 20.6026V26.5007H136.673V20.8199C136.673 20.1478 136.497 19.6226 136.147 19.2443C135.797 18.862 135.316 18.6708 134.704 18.6708C134.286 18.6708 133.914 18.7614 133.588 18.9425C133.266 19.1236 133.01 19.3892 132.821 19.7393C132.636 20.0855 132.543 20.504 132.543 20.995Z" fill="#E8E8E8"/>
<path d="M156.16 18.1165H153.141C153.101 17.8066 153.019 17.5269 152.894 17.2773C152.769 17.0278 152.604 16.8145 152.399 16.6374C152.193 16.4603 151.95 16.3255 151.668 16.2329C151.391 16.1364 151.083 16.0881 150.745 16.0881C150.145 16.0881 149.628 16.235 149.193 16.5288C148.762 16.8226 148.43 17.2471 148.197 17.8025C147.968 18.3579 147.853 19.0301 147.853 19.8189C147.853 20.6399 147.97 21.3281 148.203 21.8835C148.441 22.4349 148.773 22.8514 149.199 23.1332C149.63 23.4109 150.139 23.5497 150.727 23.5497C151.057 23.5497 151.356 23.5074 151.626 23.4229C151.9 23.3384 152.139 23.2157 152.344 23.0547C152.554 22.8897 152.725 22.6904 152.858 22.457C152.994 22.2196 153.089 21.9519 153.141 21.6541L156.16 21.6722C156.107 22.2196 155.948 22.7589 155.683 23.2901C155.421 23.8214 155.061 24.3063 154.602 24.745C154.143 25.1797 153.584 25.5258 152.924 25.7834C152.268 26.0409 151.515 26.1697 150.666 26.1697C149.547 26.1697 148.545 25.9242 147.66 25.4332C146.778 24.9382 146.082 24.2178 145.571 23.272C145.06 22.3262 144.804 21.1752 144.804 19.8189C144.804 18.4586 145.064 17.3055 145.583 16.3597C146.102 15.4139 146.805 14.6955 147.69 14.2045C148.575 13.7135 149.567 13.468 150.666 13.468C151.415 13.468 152.107 13.5727 152.743 13.782C153.379 13.9872 153.938 14.2891 154.421 14.6875C154.904 15.0819 155.296 15.5669 155.598 16.1424C155.9 16.7179 156.087 17.3759 156.16 18.1165ZM162.198 26.1758C161.224 26.1758 160.387 25.9765 159.687 25.5781C158.991 25.1757 158.453 24.6162 158.075 23.8998C157.701 23.1794 157.514 22.3443 157.514 21.3945C157.514 20.4407 157.701 19.6056 158.075 18.8892C158.453 18.1688 158.991 17.6094 159.687 17.2109C160.387 16.8085 161.224 16.6072 162.198 16.6072C163.172 16.6072 164.007 16.8085 164.704 17.2109C165.404 17.6094 165.941 18.1688 166.315 18.8892C166.694 19.6056 166.883 20.4407 166.883 21.3945C166.883 22.3443 166.694 23.1794 166.315 23.8998C165.941 24.6162 165.404 25.1757 164.704 25.5781C164.007 25.9765 163.172 26.1758 162.198 26.1758ZM162.216 23.9481C162.57 23.9481 162.87 23.8395 163.116 23.6221C163.361 23.4048 163.548 23.103 163.677 22.7166C163.81 22.3302 163.876 21.8835 163.876 21.3764C163.876 20.8613 163.81 20.4105 163.677 20.0241C163.548 19.6378 163.361 19.3359 163.116 19.1186C162.87 18.9013 162.57 18.7926 162.216 18.7926C161.85 18.7926 161.54 18.9013 161.287 19.1186C161.037 19.3359 160.846 19.6378 160.713 20.0241C160.584 20.4105 160.52 20.8613 160.52 21.3764C160.52 21.8835 160.584 22.3302 160.713 22.7166C160.846 23.103 161.037 23.4048 161.287 23.6221C161.54 23.8395 161.85 23.9481 162.216 23.9481ZM168.395 26.0007V16.728H171.202V18.4304H171.305C171.498 17.8669 171.824 17.4222 172.283 17.0962C172.742 16.7702 173.289 16.6072 173.925 16.6072C174.569 16.6072 175.12 16.7722 175.579 17.1023C176.038 17.4323 176.33 17.875 176.454 18.4304H176.551C176.724 17.879 177.062 17.4383 177.565 17.1083C178.068 16.7743 178.662 16.6072 179.346 16.6072C180.223 16.6072 180.936 16.889 181.483 17.4524C182.031 18.0118 182.304 18.7805 182.304 19.7585V26.0007H179.352V20.4346C179.352 19.9718 179.233 19.6197 178.996 19.3782C178.758 19.1327 178.451 19.0099 178.072 19.0099C177.666 19.0099 177.346 19.1427 177.112 19.4084C176.883 19.67 176.768 20.0221 176.768 20.4648V26.0007H173.931V20.4045C173.931 19.9738 173.814 19.6337 173.581 19.3842C173.347 19.1347 173.04 19.0099 172.657 19.0099C172.4 19.0099 172.172 19.0723 171.975 19.1971C171.778 19.3178 171.623 19.4909 171.51 19.7163C171.401 19.9416 171.347 20.2073 171.347 20.5131V26.0007H168.395ZM184.133 29.478V16.728H187.055V18.3157H187.146C187.267 18.034 187.438 17.7623 187.659 17.5007C187.884 17.2391 188.17 17.0258 188.516 16.8608C188.866 16.6918 189.285 16.6072 189.772 16.6072C190.416 16.6072 191.017 16.7763 191.577 17.1143C192.14 17.4524 192.595 17.9736 192.941 18.6779C193.287 19.3822 193.46 20.2797 193.46 21.3704C193.46 22.4208 193.293 23.3002 192.959 24.0085C192.629 24.7168 192.183 25.2481 191.619 25.6023C191.06 25.9564 190.438 26.1335 189.754 26.1335C189.287 26.1335 188.882 26.057 188.54 25.9041C188.198 25.7512 187.91 25.5499 187.677 25.3004C187.448 25.0509 187.271 24.7832 187.146 24.4975H187.085V29.478H184.133ZM187.025 21.3643C187.025 21.8634 187.091 22.298 187.224 22.6683C187.361 23.0386 187.556 23.3263 187.81 23.5316C188.067 23.7328 188.375 23.8334 188.734 23.8334C189.096 23.8334 189.404 23.7328 189.657 23.5316C189.911 23.3263 190.102 23.0386 190.231 22.6683C190.363 22.298 190.43 21.8634 190.43 21.3643C190.43 20.8653 190.363 20.4326 190.231 20.0664C190.102 19.7002 189.911 19.4164 189.657 19.2152C189.408 19.014 189.1 18.9133 188.734 18.9133C188.371 18.9133 188.063 19.0119 187.81 19.2092C187.556 19.4064 187.361 19.6881 187.224 20.0543C187.091 20.4206 187.025 20.8572 187.025 21.3643ZM195.007 26.0007V16.728H197.959V26.0007H195.007ZM196.486 15.6474C196.072 15.6474 195.716 15.5105 195.418 15.2369C195.12 14.9592 194.971 14.6251 194.971 14.2347C194.971 13.8484 195.12 13.5183 195.418 13.2447C195.716 12.967 196.072 12.8281 196.486 12.8281C196.905 12.8281 197.261 12.967 197.555 13.2447C197.853 13.5183 198.002 13.8484 198.002 14.2347C198.002 14.6251 197.853 14.9592 197.555 15.2369C197.261 15.5105 196.905 15.6474 196.486 15.6474ZM202.791 13.6371V26.0007H199.838V13.6371H202.791ZM209.004 26.1758C208.034 26.1758 207.197 25.9846 206.493 25.6023C205.792 25.2159 205.253 24.6665 204.875 23.9542C204.5 23.2378 204.313 22.3866 204.313 21.4006C204.313 20.4427 204.502 19.6056 204.881 18.8892C205.259 18.1688 205.792 17.6094 206.481 17.2109C207.169 16.8085 207.98 16.6072 208.913 16.6072C209.574 16.6072 210.177 16.7099 210.725 16.9151C211.272 17.1204 211.745 17.4242 212.143 17.8267C212.542 18.2292 212.852 18.7262 213.073 19.3178C213.294 19.9054 213.405 20.5795 213.405 21.3402V22.0767H205.346V20.3622H210.658C210.654 20.0483 210.58 19.7686 210.435 19.5231C210.29 19.2776 210.091 19.0864 209.837 18.9496C209.588 18.8087 209.3 18.7383 208.974 18.7383C208.644 18.7383 208.348 18.8127 208.086 18.9616C207.825 19.1065 207.618 19.3057 207.465 19.5593C207.312 19.8088 207.231 20.0926 207.223 20.4105V22.1552C207.223 22.5335 207.298 22.8655 207.446 23.1513C207.595 23.433 207.807 23.6523 208.08 23.8093C208.354 23.9663 208.68 24.0447 209.058 24.0447C209.32 24.0447 209.557 24.0085 209.771 23.9361C209.984 23.8636 210.167 23.757 210.32 23.6161C210.473 23.4752 210.588 23.3022 210.664 23.0969L213.375 23.1754C213.262 23.7831 213.015 24.3124 212.632 24.7631C212.254 25.2099 211.757 25.558 211.141 25.8075C210.525 26.053 209.813 26.1758 209.004 26.1758ZM214.913 26.0007V16.728H217.78V18.4183H217.877C218.046 17.8066 218.322 17.3518 218.704 17.054C219.086 16.7521 219.531 16.6012 220.038 16.6012C220.175 16.6012 220.316 16.6113 220.461 16.6314C220.605 16.6475 220.74 16.6736 220.865 16.7099V19.2756C220.724 19.2273 220.539 19.189 220.31 19.1609C220.084 19.1327 219.883 19.1186 219.706 19.1186C219.356 19.1186 219.04 19.1971 218.758 19.354C218.48 19.507 218.261 19.7223 218.1 20C217.943 20.2737 217.865 20.5956 217.865 20.9659V26.0007H214.913ZM225.72 26.0007V13.6371H234.341V16.0639H228.709V18.5994H233.9V21.0323H228.709V23.5739H234.341V26.0007H225.72ZM238.724 16.728L240.251 19.7827L241.833 16.728H244.809L242.219 21.3643L244.906 26.0007H241.954L240.251 22.9219L238.591 26.0007H235.597L238.289 21.3643L235.73 16.728H238.724ZM246.157 29.478V16.728H249.079V18.3157H249.169C249.29 18.034 249.461 17.7623 249.682 17.5007C249.908 17.2391 250.193 17.0258 250.54 16.8608C250.89 16.6918 251.308 16.6072 251.795 16.6072C252.439 16.6072 253.041 16.7763 253.6 17.1143C254.164 17.4524 254.619 17.9736 254.965 18.6779C255.311 19.3822 255.484 20.2797 255.484 21.3704C255.484 22.4208 255.317 23.3002 254.983 24.0085C254.653 24.7168 254.206 25.2481 253.643 25.6023C253.083 25.9564 252.461 26.1335 251.777 26.1335C251.31 26.1335 250.906 26.057 250.564 25.9041C250.222 25.7512 249.934 25.5499 249.7 25.3004C249.471 25.0509 249.294 24.7832 249.169 24.4975H249.109V29.478H246.157ZM249.048 21.3643C249.048 21.8634 249.115 22.298 249.248 22.6683C249.385 23.0386 249.58 23.3263 249.833 23.5316C250.091 23.7328 250.399 23.8334 250.757 23.8334C251.119 23.8334 251.427 23.7328 251.681 23.5316C251.934 23.3263 252.125 23.0386 252.254 22.6683C252.387 22.298 252.453 21.8634 252.453 21.3643C252.453 20.8653 252.387 20.4326 252.254 20.0664C252.125 19.7002 251.934 19.4164 251.681 19.2152C251.431 19.014 251.123 18.9133 250.757 18.9133C250.395 18.9133 250.087 19.0119 249.833 19.2092C249.58 19.4064 249.385 19.6881 249.248 20.0543C249.115 20.4206 249.048 20.8572 249.048 21.3643ZM259.983 13.6371V26.0007H257.031V13.6371H259.983ZM266.19 26.1758C265.216 26.1758 264.379 25.9765 263.679 25.5781C262.983 25.1757 262.445 24.6162 262.067 23.8998C261.693 23.1794 261.506 22.3443 261.506 21.3945C261.506 20.4407 261.693 19.6056 262.067 18.8892C262.445 18.1688 262.983 17.6094 263.679 17.2109C264.379 16.8085 265.216 16.6072 266.19 16.6072C267.164 16.6072 267.999 16.8085 268.696 17.2109C269.396 17.6094 269.933 18.1688 270.308 18.8892C270.686 19.6056 270.875 20.4407 270.875 21.3945C270.875 22.3443 270.686 23.1794 270.308 23.8998C269.933 24.6162 269.396 25.1757 268.696 25.5781C267.999 25.9765 267.164 26.1758 266.19 26.1758ZM266.208 23.9481C266.563 23.9481 266.862 23.8395 267.108 23.6221C267.353 23.4048 267.541 23.103 267.669 22.7166C267.802 22.3302 267.869 21.8835 267.869 21.3764C267.869 20.8613 267.802 20.4105 267.669 20.0241C267.541 19.6378 267.353 19.3359 267.108 19.1186C266.862 18.9013 266.563 18.7926 266.208 18.7926C265.842 18.7926 265.532 18.9013 265.279 19.1186C265.029 19.3359 264.838 19.6378 264.705 20.0241C264.576 20.4105 264.512 20.8613 264.512 21.3764C264.512 21.8835 264.576 22.3302 264.705 22.7166C264.838 23.103 265.029 23.4048 265.279 23.6221C265.532 23.8395 265.842 23.9481 266.208 23.9481ZM272.387 26.0007V16.728H275.255V18.4183H275.351C275.52 17.8066 275.796 17.3518 276.178 17.054C276.561 16.7521 277.006 16.6012 277.513 16.6012C277.649 16.6012 277.79 16.6113 277.935 16.6314C278.08 16.6475 278.215 16.6736 278.34 16.7099V19.2756C278.199 19.2273 278.014 19.189 277.784 19.1609C277.559 19.1327 277.358 19.1186 277.181 19.1186C276.83 19.1186 276.515 19.1971 276.233 19.354C275.955 19.507 275.736 19.7223 275.575 20C275.418 20.2737 275.339 20.5956 275.339 20.9659V26.0007H272.387ZM283.396 26.1758C282.426 26.1758 281.589 25.9846 280.884 25.6023C280.184 25.2159 279.645 24.6665 279.266 23.9542C278.892 23.2378 278.705 22.3866 278.705 21.4006C278.705 20.4427 278.894 19.6056 279.272 18.8892C279.651 18.1688 280.184 17.6094 280.872 17.2109C281.56 16.8085 282.371 16.6072 283.305 16.6072C283.965 16.6072 284.569 16.7099 285.116 16.9151C285.663 17.1204 286.136 17.4242 286.535 17.8267C286.933 18.2292 287.243 18.7262 287.464 19.3178C287.686 19.9054 287.797 20.5795 287.797 21.3402V22.0767H279.737V20.3622H285.05C285.046 20.0483 284.971 19.7686 284.826 19.5231C284.681 19.2776 284.482 19.0864 284.229 18.9496C283.979 18.8087 283.691 18.7383 283.365 18.7383C283.035 18.7383 282.74 18.8127 282.478 18.9616C282.216 19.1065 282.009 19.3057 281.856 19.5593C281.703 19.8088 281.623 20.0926 281.615 20.4105V22.1552C281.615 22.5335 281.689 22.8655 281.838 23.1513C281.987 23.433 282.198 23.6523 282.472 23.8093C282.746 23.9663 283.072 24.0447 283.45 24.0447C283.712 24.0447 283.949 24.0085 284.162 23.9361C284.376 23.8636 284.559 23.757 284.712 23.6161C284.865 23.4752 284.979 23.3022 285.056 23.0969L287.766 23.1754C287.654 23.7831 287.406 24.3124 287.024 24.7631C286.645 25.2099 286.148 25.558 285.533 25.8075C284.917 26.053 284.205 26.1758 283.396 26.1758ZM289.304 26.0007V16.728H292.172V18.4183H292.268C292.437 17.8066 292.713 17.3518 293.095 17.054C293.478 16.7521 293.922 16.6012 294.43 16.6012C294.566 16.6012 294.707 16.6113 294.852 16.6314C294.997 16.6475 295.132 16.6736 295.257 16.7099V19.2756C295.116 19.2273 294.931 19.189 294.701 19.1609C294.476 19.1327 294.275 19.1186 294.098 19.1186C293.747 19.1186 293.431 19.1971 293.15 19.354C292.872 19.507 292.653 19.7223 292.492 20C292.335 20.2737 292.256 20.5956 292.256 20.9659V26.0007H289.304Z" fill="#67C52A"/>
</g>
<defs>
<filter id="filter0_d_1_56" x="2.39972" y="0.39972" width="39.202" height="39.202" filterUnits="userSpaceOnUse" color-interpolation-filters="sRGB">
<feFlood flood-opacity="0" result="BackgroundImageFix"/>
<feColorMatrix in="SourceAlpha" type="matrix" values="0 0 0 0 0 0 0 0 0 0 0 0 0 0 0 0 0 0 127 0" result="hardAlpha"/>
<feOffset/>
<feGaussianBlur stdDeviation="2.80014"/>
<feComposite in2="hardAlpha" operator="out"/>
<feColorMatrix type="matrix" values="0 0 0 0 0 0 0 0 0 0 0 0 0 0 0 0 0 0 0.25 0"/>
<feBlend mode="normal" in2="BackgroundImageFix" result="effect1_dropShadow_1_56"/>
<feBlend mode="normal" in="SourceGraphic" in2="effect1_dropShadow_1_56" result="shape"/>
</filter>
<filter id="filter1_d_1_56" x="36.2871" y="3.78642" width="265.428" height="32.4286" filterUnits="userSpaceOnUse" color-interpolation-filters="sRGB">
<feFlood flood-opacity="0" result="BackgroundImageFix"/>
<feColorMatrix in="SourceAlpha" type="matrix" values="0 0 0 0 0 0 0 0 0 0 0 0 0 0 0 0 0 0 127 0" result="hardAlpha"/>
<feOffset/>
<feGaussianBlur stdDeviation="2.85714"/>
<feComposite in2="hardAlpha" operator="out"/>
<feColorMatrix type="matrix" values="0 0 0 0 0 0 0 0 0 0 0 0 0 0 0 0 0 0 0.25 0"/>
<feBlend mode="normal" in2="BackgroundImageFix" result="effect1_dropShadow_1_56"/>
<feBlend mode="normal" in="SourceGraphic" in2="effect1_dropShadow_1_56" result="shape"/>
</filter>
<linearGradient id="paint0_linear_1_56" x1="152.001" y1="0" x2="152.001" y2="40.0014" gradientUnits="userSpaceOnUse">
<stop stop-color="#294F11"/>
<stop offset="1" stop-color="#1D320A"/>
</linearGradient>
</defs>
</svg>
