<svg width="40" height="40" viewBox="0 0 40 40" fill="none" xmlns="http://www.w3.org/2000/svg">
<rect width="40" height="40" rx="8" fill="url(#paint0_linear_1_68)"/>
<rect x="1.05" y="1.05" width="37.9" height="37.9" rx="6.95" stroke="white" stroke-opacity="0.15" stroke-width="2.1"/>
<g filter="url(#filter0_d_1_68)">
<path d="M31.55 26.3756C31.4187 26.1565 31.4187 25.8498 31.55 25.6307C31.6812 25.3678 31.8562 25.061 31.9875 24.7543C32.075 24.5352 31.9437 24.3161 31.6812 24.3161H29.1437C28.8812 24.3161 28.6187 24.4476 28.5312 24.6667C28.225 25.1487 27.8312 25.6307 27.3937 26.0689C25.775 27.6901 23.6312 28.5665 21.3125 28.5665C18.9937 28.5665 16.85 27.6901 15.2312 26.0689C13.5687 24.4476 12.6937 22.3005 12.6937 19.9781C12.6937 17.6557 13.5687 15.5086 15.2312 13.8873C16.85 12.266 18.9937 11.3897 21.3125 11.3897C23.6312 11.3897 25.775 12.266 27.3937 13.8873C27.8312 14.3255 28.225 14.8075 28.5312 15.2895C28.6625 15.5086 28.925 15.6401 29.1437 15.6401H31.6812C31.9 15.6401 32.075 15.421 31.9875 15.2019C31.8562 14.8951 31.725 14.6322 31.55 14.3255C31.4187 14.1064 31.4187 13.7997 31.55 13.5806L32.3812 12.0469C32.5562 11.7402 32.5125 11.3897 32.25 11.1268L30.1062 8.97966C29.8437 8.71674 29.4937 8.67293 29.1875 8.8482L27.6125 9.72457C27.3937 9.85602 27.0875 9.85602 26.8687 9.72457C26.125 9.3302 25.3375 8.97966 24.5062 8.76056C24.2437 8.67293 24.0687 8.49765 23.9812 8.23474L23.5 6.52582C23.4562 6.21909 23.1937 6 22.8437 6H19.825C19.475 6 19.125 6.21909 19.0375 6.56964L18.5562 8.27856C18.4687 8.54147 18.2937 8.71674 18.0312 8.80438C17.2 9.06729 16.4562 9.37402 15.7125 9.76839C15.4937 9.89984 15.1875 9.89984 14.9687 9.76839L13.3938 8.89202C13.0875 8.71674 12.7375 8.76056 12.475 9.02347L10.3313 11.1706C10.0688 11.4335 10.025 11.784 10.2 12.0908L11.075 13.6682C11.2063 13.8873 11.2063 14.1941 11.075 14.4131C10.6813 15.1581 10.3313 15.9468 10.1125 16.7355C10.025 16.9984 9.85 17.1737 9.5875 17.2613L7.88125 17.7433C7.575 17.831 7.3125 18.1377 7.3125 18.4883V21.5117C7.3125 21.8623 7.53125 22.169 7.88125 22.2566L9.5875 22.7387C9.85 22.8263 10.025 23.0016 10.1125 23.2645C10.3313 24.097 10.6813 24.8419 11.075 25.5869C11.2063 25.8498 11.2063 26.1127 11.075 26.3318L10.2 27.9092C10.025 28.216 10.0688 28.5665 10.3313 28.8294L12.475 30.9765C12.7375 31.2394 13.0875 31.2833 13.3938 31.108L14.9687 30.2316C15.2312 30.1002 15.4937 30.1002 15.7125 30.2316C16.4562 30.626 17.2437 30.9765 18.0312 31.1956C18.2937 31.2833 18.4687 31.4585 18.5562 31.7214L19.0375 33.4304C19.125 33.7371 19.4312 34 19.7812 34H22.8C23.15 34 23.4562 33.7809 23.5437 33.4304L24.025 31.7214C24.1125 31.4585 24.2875 31.2833 24.55 31.1956C25.3812 30.9327 26.125 30.626 26.9125 30.2316C27.1312 30.1002 27.4375 30.1002 27.6562 30.2316L29.2312 31.108C29.5375 31.2833 29.8875 31.2394 30.15 30.9765L32.2937 28.8294C32.5562 28.5665 32.6 28.216 32.425 27.9092L31.55 26.3756Z" fill="#67C52A"/>
<path d="M16.1938 22.5196V24.4476H26.6063V22.5196H16.1938ZM16.1938 19.1017V21.0297H24.7688V19.1017H16.1938ZM16.1938 15.6401V17.5681H26.6063V15.6401H16.1938Z" fill="white"/>
</g>
<defs>
<filter id="filter0_d_1_68" x="2" y="2" width="36" height="36" filterUnits="userSpaceOnUse" color-interpolation-filters="sRGB">
<feFlood flood-opacity="0" result="BackgroundImageFix"/>
<feColorMatrix in="SourceAlpha" type="matrix" values="0 0 0 0 0 0 0 0 0 0 0 0 0 0 0 0 0 0 127 0" result="hardAlpha"/>
<feOffset/>
<feGaussianBlur stdDeviation="2"/>
<feComposite in2="hardAlpha" operator="out"/>
<feColorMatrix type="matrix" values="0 0 0 0 0 0 0 0 0 0 0 0 0 0 0 0 0 0 0.25 0"/>
<feBlend mode="normal" in2="BackgroundImageFix" result="effect1_dropShadow_1_68"/>
<feBlend mode="normal" in="SourceGraphic" in2="effect1_dropShadow_1_68" result="shape"/>
</filter>
<linearGradient id="paint0_linear_1_68" x1="20" y1="0" x2="20" y2="40" gradientUnits="userSpaceOnUse">
<stop stop-color="#294F11"/>
<stop offset="1" stop-color="#1A310A"/>
</linearGradient>
</defs>
</svg>
