<svg width="56" height="56" viewBox="0 0 56 56" fill="none" xmlns="http://www.w3.org/2000/svg">
<rect width="56" height="56" rx="8.4" fill="url(#paint0_linear_1_62)"/>
<rect x="1.05" y="1.05" width="53.9" height="53.9" rx="7.35" stroke="white" stroke-opacity="0.15" stroke-width="2.1"/>
<g filter="url(#filter0_d_1_62)">
<path d="M44.5 37.108C44.3125 36.795 44.3125 36.3568 44.5 36.0438C44.6875 35.6682 44.9375 35.23 45.125 34.7919C45.25 34.4789 45.0625 34.1659 44.6875 34.1659H41.0625C40.6875 34.1659 40.3125 34.3537 40.1875 34.6667C39.75 35.3552 39.1875 36.0438 38.5625 36.6698C36.25 38.9859 33.1875 40.2379 29.875 40.2379C26.5625 40.2379 23.5 38.9859 21.1875 36.6698C18.8125 34.3537 17.5625 31.2864 17.5625 27.9687C17.5625 24.651 18.8125 21.5837 21.1875 19.2676C23.5 16.9515 26.5625 15.6995 29.875 15.6995C33.1875 15.6995 36.25 16.9515 38.5625 19.2676C39.1875 19.8936 39.75 20.5822 40.1875 21.2707C40.375 21.5837 40.75 21.7715 41.0625 21.7715H44.6875C45 21.7715 45.25 21.4585 45.125 21.1455C44.9375 20.7074 44.75 20.3318 44.5 19.8936C44.3125 19.5806 44.3125 19.1424 44.5 18.8294L45.6875 16.6385C45.9375 16.2003 45.875 15.6995 45.5 15.3239L42.4375 12.2567C42.0625 11.8811 41.5625 11.8185 41.125 12.0689L38.875 13.3208C38.5625 13.5086 38.125 13.5086 37.8125 13.3208C36.75 12.7574 35.625 12.2567 34.4375 11.9437C34.0625 11.8185 33.8125 11.5681 33.6875 11.1925L33 8.75117C32.9375 8.31299 32.5625 8 32.0625 8H27.75C27.25 8 26.75 8.31299 26.625 8.81377L25.9375 11.2551C25.8125 11.6307 25.5625 11.8811 25.1875 12.0063C24 12.3818 22.9375 12.82 21.875 13.3834C21.5625 13.5712 21.125 13.5712 20.8125 13.3834L18.5625 12.1315C18.125 11.8811 17.625 11.9437 17.25 12.3192L14.1875 15.3865C13.8125 15.7621 13.75 16.2629 14 16.7011L15.25 18.9546C15.4375 19.2676 15.4375 19.7058 15.25 20.0188C14.6875 21.0829 14.1875 22.2097 13.875 23.3365C13.75 23.712 13.5 23.9624 13.125 24.0876L10.6875 24.7762C10.25 24.9014 9.875 25.3396 9.875 25.8404V30.1596C9.875 30.6604 10.1875 31.0986 10.6875 31.2238L13.125 31.9124C13.5 32.0376 13.75 32.2879 13.875 32.6635C14.1875 33.8529 14.6875 34.9171 15.25 35.9812C15.4375 36.3568 15.4375 36.7324 15.25 37.0454L14 39.2989C13.75 39.7371 13.8125 40.2379 14.1875 40.6135L17.25 43.6807C17.625 44.0563 18.125 44.1189 18.5625 43.8685L20.8125 42.6166C21.1875 42.4288 21.5625 42.4288 21.875 42.6166C22.9375 43.18 24.0625 43.6807 25.1875 43.9937C25.5625 44.1189 25.8125 44.3693 25.9375 44.7449L26.625 47.1862C26.75 47.6244 27.1875 48 27.6875 48H32C32.5 48 32.9375 47.687 33.0625 47.1862L33.75 44.7449C33.875 44.3693 34.125 44.1189 34.5 43.9937C35.6875 43.6182 36.75 43.18 37.875 42.6166C38.1875 42.4288 38.625 42.4288 38.9375 42.6166L41.1875 43.8685C41.625 44.1189 42.125 44.0563 42.5 43.6807L45.5625 40.6135C45.9375 40.2379 46 39.7371 45.75 39.2989L44.5 37.108Z" fill="#67C52A"/>
<path d="M22.5625 31.5994V34.3537H37.4375V31.5994H22.5625ZM22.5625 26.7167V29.471H34.8125V26.7167H22.5625ZM22.5625 21.7715V24.5258H37.4375V21.7715H22.5625Z" fill="white"/>
</g>
<defs>
<filter id="filter0_d_1_62" x="2.28571" y="2.28571" width="51.4286" height="51.4286" filterUnits="userSpaceOnUse" color-interpolation-filters="sRGB">
<feFlood flood-opacity="0" result="BackgroundImageFix"/>
<feColorMatrix in="SourceAlpha" type="matrix" values="0 0 0 0 0 0 0 0 0 0 0 0 0 0 0 0 0 0 127 0" result="hardAlpha"/>
<feOffset/>
<feGaussianBlur stdDeviation="2.85714"/>
<feComposite in2="hardAlpha" operator="out"/>
<feColorMatrix type="matrix" values="0 0 0 0 0 0 0 0 0 0 0 0 0 0 0 0 0 0 0.25 0"/>
<feBlend mode="normal" in2="BackgroundImageFix" result="effect1_dropShadow_1_62"/>
<feBlend mode="normal" in="SourceGraphic" in2="effect1_dropShadow_1_62" result="shape"/>
</filter>
<linearGradient id="paint0_linear_1_62" x1="28" y1="0" x2="28" y2="56" gradientUnits="userSpaceOnUse">
<stop stop-color="#2D4E11"/>
<stop offset="1" stop-color="#1A310A"/>
</linearGradient>
</defs>
</svg>
