<svg width="224" height="56" viewBox="0 0 224 56" fill="none" xmlns="http://www.w3.org/2000/svg">
<rect width="224" height="56" rx="8" fill="url(#paint0_linear_1_50)"/>
<rect x="1.05" y="1.05" width="221.9" height="53.9" rx="6.95" stroke="white" stroke-opacity="0.15" stroke-width="2.1"/>
<g filter="url(#filter0_d_1_50)">
<path d="M48.5 37.108C48.3125 36.795 48.3125 36.3568 48.5 36.0438C48.6875 35.6682 48.9375 35.23 49.125 34.7919C49.25 34.4789 49.0625 34.1659 48.6875 34.1659H45.0625C44.6875 34.1659 44.3125 34.3537 44.1875 34.6667C43.75 35.3552 43.1875 36.0438 42.5625 36.6698C40.25 38.9859 37.1875 40.2379 33.875 40.2379C30.5625 40.2379 27.5 38.9859 25.1875 36.6698C22.8125 34.3537 21.5625 31.2864 21.5625 27.9687C21.5625 24.651 22.8125 21.5837 25.1875 19.2676C27.5 16.9515 30.5625 15.6995 33.875 15.6995C37.1875 15.6995 40.25 16.9515 42.5625 19.2676C43.1875 19.8936 43.75 20.5822 44.1875 21.2707C44.375 21.5837 44.75 21.7715 45.0625 21.7715H48.6875C49 21.7715 49.25 21.4585 49.125 21.1455C48.9375 20.7074 48.75 20.3318 48.5 19.8936C48.3125 19.5806 48.3125 19.1424 48.5 18.8294L49.6875 16.6385C49.9375 16.2003 49.875 15.6995 49.5 15.3239L46.4375 12.2567C46.0625 11.8811 45.5625 11.8185 45.125 12.0689L42.875 13.3208C42.5625 13.5086 42.125 13.5086 41.8125 13.3208C40.75 12.7574 39.625 12.2567 38.4375 11.9437C38.0625 11.8185 37.8125 11.5681 37.6875 11.1925L37 8.75117C36.9375 8.31299 36.5625 8 36.0625 8H31.75C31.25 8 30.75 8.31299 30.625 8.81377L29.9375 11.2551C29.8125 11.6307 29.5625 11.8811 29.1875 12.0063C28 12.3818 26.9375 12.82 25.875 13.3834C25.5625 13.5712 25.125 13.5712 24.8125 13.3834L22.5625 12.1315C22.125 11.8811 21.625 11.9437 21.25 12.3192L18.1875 15.3865C17.8125 15.7621 17.75 16.2629 18 16.7011L19.25 18.9546C19.4375 19.2676 19.4375 19.7058 19.25 20.0188C18.6875 21.0829 18.1875 22.2097 17.875 23.3365C17.75 23.712 17.5 23.9624 17.125 24.0876L14.6875 24.7762C14.25 24.9014 13.875 25.3396 13.875 25.8404V30.1596C13.875 30.6604 14.1875 31.0986 14.6875 31.2238L17.125 31.9124C17.5 32.0376 17.75 32.2879 17.875 32.6635C18.1875 33.8529 18.6875 34.9171 19.25 35.9812C19.4375 36.3568 19.4375 36.7324 19.25 37.0454L18 39.2989C17.75 39.7371 17.8125 40.2379 18.1875 40.6135L21.25 43.6807C21.625 44.0563 22.125 44.1189 22.5625 43.8685L24.8125 42.6166C25.1875 42.4288 25.5625 42.4288 25.875 42.6166C26.9375 43.18 28.0625 43.6807 29.1875 43.9937C29.5625 44.1189 29.8125 44.3693 29.9375 44.7449L30.625 47.1862C30.75 47.6244 31.1875 48 31.6875 48H36C36.5 48 36.9375 47.687 37.0625 47.1862L37.75 44.7449C37.875 44.3693 38.125 44.1189 38.5 43.9937C39.6875 43.6182 40.75 43.18 41.875 42.6166C42.1875 42.4288 42.625 42.4288 42.9375 42.6166L45.1875 43.8685C45.625 44.1189 46.125 44.0563 46.5 43.6807L49.5625 40.6135C49.9375 40.2379 50 39.7371 49.75 39.2989L48.5 37.108Z" fill="#67C52A"/>
<path d="M26.5625 31.5994V34.3537H41.4375V31.5994H26.5625ZM26.5625 26.7167V29.471H38.8125V26.7167H26.5625ZM26.5625 21.7715V24.5258H41.4375V21.7715H26.5625Z" fill="white"/>
</g>
<g filter="url(#filter1_d_1_50)">
<path d="M62.2613 24.5H60.3977L64.5852 12.8636H66.6136L70.8011 24.5H68.9375L65.6477 14.9773H65.5568L62.2613 24.5ZM62.5738 19.9432H68.6193V21.4204H62.5738V19.9432ZM78.7173 15.7727L75.5525 24.5H73.7344L70.5639 15.7727H72.3878L74.598 22.4886H74.6889L76.8934 15.7727H78.7173ZM82.6037 24.6932C82.0506 24.6932 81.5506 24.5909 81.1037 24.3864C80.6567 24.178 80.3025 23.8769 80.0412 23.4829C79.7836 23.089 79.6548 22.6061 79.6548 22.0341C79.6548 21.5417 79.7495 21.1364 79.9389 20.8182C80.1283 20.5 80.384 20.2481 80.7059 20.0625C81.0279 19.8769 81.3878 19.7367 81.7855 19.642C82.1832 19.5473 82.5885 19.4754 83.0014 19.4261C83.5241 19.3655 83.9484 19.3163 84.2741 19.2784C84.5999 19.2367 84.8366 19.1704 84.9844 19.0795C85.1321 18.9886 85.2059 18.8409 85.2059 18.6364V18.5966C85.2059 18.1004 85.0658 17.7159 84.7855 17.4432C84.509 17.1704 84.0961 17.0341 83.5469 17.0341C82.9749 17.0341 82.5241 17.161 82.1946 17.4148C81.8688 17.6648 81.6434 17.9432 81.5184 18.25L79.9219 17.8864C80.1112 17.3561 80.3878 16.928 80.7514 16.6023C81.1188 16.2727 81.5412 16.0341 82.0184 15.8864C82.4957 15.7348 82.9976 15.6591 83.5241 15.6591C83.8726 15.6591 84.2419 15.7008 84.6321 15.7841C85.026 15.8636 85.3934 16.0114 85.7344 16.2273C86.079 16.4432 86.3612 16.7519 86.5809 17.1534C86.8006 17.5511 86.9105 18.0682 86.9105 18.7045V24.5H85.2514V23.3068H85.1832C85.0734 23.5265 84.9086 23.7424 84.6889 23.9545C84.4692 24.1667 84.187 24.3428 83.8423 24.4829C83.4976 24.6231 83.0847 24.6932 82.6037 24.6932ZM82.973 23.3295C83.4427 23.3295 83.8442 23.2367 84.1775 23.0511C84.5147 22.8655 84.7703 22.6231 84.9446 22.3239C85.1226 22.0208 85.2116 21.697 85.2116 21.3523V20.2273C85.151 20.2879 85.0336 20.3447 84.8594 20.3977C84.6889 20.447 84.4938 20.4905 84.2741 20.5284C84.0544 20.5625 83.8404 20.5947 83.6321 20.625C83.4237 20.6515 83.2495 20.6742 83.1094 20.6932C82.7798 20.7348 82.4787 20.8049 82.2059 20.9034C81.937 21.0019 81.7211 21.1439 81.5582 21.3295C81.3991 21.5114 81.3196 21.7538 81.3196 22.0568C81.3196 22.4773 81.4749 22.7954 81.7855 23.0114C82.0961 23.2235 82.4919 23.3295 82.973 23.3295ZM89.1733 24.5V15.7727H90.8721V24.5H89.1733ZM90.0312 14.4261C89.7358 14.4261 89.482 14.3276 89.2699 14.1307C89.0615 13.9299 88.9574 13.6913 88.9574 13.4148C88.9574 13.1345 89.0615 12.8958 89.2699 12.6989C89.482 12.4981 89.7358 12.3977 90.0312 12.3977C90.3267 12.3977 90.5786 12.4981 90.7869 12.6989C90.999 12.8958 91.1051 13.1345 91.1051 13.4148C91.1051 13.6913 90.999 13.9299 90.7869 14.1307C90.5786 14.3276 90.3267 14.4261 90.0312 14.4261ZM94.8565 12.8636V24.5H93.1576V12.8636H94.8565ZM99.6818 24.6932C99.1288 24.6932 98.6288 24.5909 98.1818 24.3864C97.7348 24.178 97.3807 23.8769 97.1193 23.4829C96.8617 23.089 96.7329 22.6061 96.7329 22.0341C96.7329 21.5417 96.8276 21.1364 97.017 20.8182C97.2064 20.5 97.4621 20.2481 97.7841 20.0625C98.106 19.8769 98.4659 19.7367 98.8636 19.642C99.2613 19.5473 99.6666 19.4754 100.08 19.4261C100.602 19.3655 101.026 19.3163 101.352 19.2784C101.678 19.2367 101.915 19.1704 102.062 19.0795C102.21 18.9886 102.284 18.8409 102.284 18.6364V18.5966C102.284 18.1004 102.144 17.7159 101.864 17.4432C101.587 17.1704 101.174 17.0341 100.625 17.0341C100.053 17.0341 99.6022 17.161 99.2727 17.4148C98.9469 17.6648 98.7216 17.9432 98.5966 18.25L97 17.8864C97.1894 17.3561 97.4659 16.928 97.8295 16.6023C98.1969 16.2727 98.6193 16.0341 99.0966 15.8864C99.5738 15.7348 100.076 15.6591 100.602 15.6591C100.951 15.6591 101.32 15.7008 101.71 15.7841C102.104 15.8636 102.472 16.0114 102.812 16.2273C103.157 16.4432 103.439 16.7519 103.659 17.1534C103.879 17.5511 103.989 18.0682 103.989 18.7045V24.5H102.33V23.3068H102.261C102.151 23.5265 101.987 23.7424 101.767 23.9545C101.547 24.1667 101.265 24.3428 100.92 24.4829C100.576 24.6231 100.163 24.6932 99.6818 24.6932ZM100.051 23.3295C100.521 23.3295 100.922 23.2367 101.256 23.0511C101.593 22.8655 101.848 22.6231 102.023 22.3239C102.201 22.0208 102.29 21.697 102.29 21.3523V20.2273C102.229 20.2879 102.112 20.3447 101.937 20.3977C101.767 20.447 101.572 20.4905 101.352 20.5284C101.133 20.5625 100.919 20.5947 100.71 20.625C100.502 20.6515 100.328 20.6742 100.187 20.6932C99.8579 20.7348 99.5568 20.8049 99.2841 20.9034C99.0151 21.0019 98.7992 21.1439 98.6363 21.3295C98.4772 21.5114 98.3977 21.7538 98.3977 22.0568C98.3977 22.4773 98.553 22.7954 98.8636 23.0114C99.1742 23.2235 99.57 23.3295 100.051 23.3295ZM106.388 24.5V12.8636H108.087V17.1875H108.189C108.287 17.0057 108.429 16.7954 108.615 16.5568C108.801 16.3182 109.058 16.1098 109.388 15.9318C109.717 15.75 110.153 15.6591 110.695 15.6591C111.399 15.6591 112.028 15.8371 112.581 16.1932C113.134 16.5492 113.568 17.0625 113.882 17.7329C114.2 18.4034 114.359 19.2102 114.359 20.1534C114.359 21.0966 114.202 21.9053 113.888 22.5795C113.573 23.25 113.142 23.767 112.592 24.1307C112.043 24.4905 111.416 24.6704 110.712 24.6704C110.181 24.6704 109.748 24.5814 109.41 24.4034C109.077 24.2254 108.816 24.017 108.626 23.7784C108.437 23.5398 108.291 23.3276 108.189 23.142H108.047V24.5H106.388ZM108.053 20.1364C108.053 20.75 108.142 21.2879 108.32 21.75C108.498 22.2121 108.755 22.5739 109.092 22.8352C109.429 23.0928 109.842 23.2216 110.331 23.2216C110.839 23.2216 111.263 23.0871 111.604 22.8182C111.945 22.5454 112.202 22.1761 112.376 21.7102C112.554 21.2443 112.643 20.7197 112.643 20.1364C112.643 19.5606 112.556 19.0436 112.382 18.5852C112.212 18.1269 111.954 17.7651 111.609 17.5C111.268 17.2348 110.842 17.1023 110.331 17.1023C109.839 17.1023 109.422 17.2292 109.081 17.4829C108.744 17.7367 108.488 18.0909 108.314 18.5454C108.14 19 108.053 19.5303 108.053 20.1364ZM117.966 12.8636V24.5H116.267V12.8636H117.966ZM124.013 24.6761C123.153 24.6761 122.412 24.4924 121.791 24.125C121.174 23.7538 120.696 23.2329 120.359 22.5625C120.026 21.8883 119.859 21.0985 119.859 20.1932C119.859 19.2992 120.026 18.5114 120.359 17.8295C120.696 17.1477 121.166 16.6155 121.768 16.2329C122.374 15.8504 123.083 15.6591 123.893 15.6591C124.386 15.6591 124.863 15.7405 125.325 15.9034C125.787 16.0663 126.202 16.322 126.57 16.6704C126.937 17.0189 127.227 17.4716 127.439 18.0284C127.651 18.5814 127.757 19.2538 127.757 20.0454V20.6477H120.82V19.375H126.092C126.092 18.928 126.001 18.5322 125.82 18.1875C125.638 17.839 125.382 17.5644 125.053 17.3636C124.727 17.1629 124.344 17.0625 123.905 17.0625C123.428 17.0625 123.011 17.1799 122.655 17.4148C122.303 17.6458 122.03 17.9489 121.837 18.3239C121.647 18.6951 121.553 19.0985 121.553 19.5341V20.5284C121.553 21.1117 121.655 21.6079 121.859 22.017C122.068 22.4261 122.357 22.7386 122.729 22.9545C123.1 23.1667 123.534 23.2727 124.03 23.2727C124.352 23.2727 124.645 23.2273 124.91 23.1364C125.176 23.0417 125.405 22.9015 125.598 22.7159C125.791 22.5303 125.939 22.3011 126.041 22.0284L127.649 22.3182C127.52 22.7917 127.289 23.2064 126.956 23.5625C126.626 23.9148 126.212 24.1894 125.712 24.3864C125.215 24.5795 124.649 24.6761 124.013 24.6761ZM137.553 24.6761C136.734 24.6761 136.02 24.4886 135.41 24.1136C134.801 23.7386 134.327 23.214 133.99 22.5398C133.653 21.8655 133.484 21.0776 133.484 20.1761C133.484 19.2708 133.653 18.4792 133.99 17.8011C134.327 17.1231 134.801 16.5966 135.41 16.2216C136.02 15.8466 136.734 15.6591 137.553 15.6591C138.371 15.6591 139.085 15.8466 139.695 16.2216C140.304 16.5966 140.778 17.1231 141.115 17.8011C141.452 18.4792 141.621 19.2708 141.621 20.1761C141.621 21.0776 141.452 21.8655 141.115 22.5398C140.778 23.214 140.304 23.7386 139.695 24.1136C139.085 24.4886 138.371 24.6761 137.553 24.6761ZM137.558 23.25C138.089 23.25 138.528 23.1098 138.876 22.8295C139.225 22.5492 139.482 22.1761 139.649 21.7102C139.82 21.2443 139.905 20.7311 139.905 20.1704C139.905 19.6136 139.82 19.1023 139.649 18.6364C139.482 18.1667 139.225 17.7898 138.876 17.5057C138.528 17.2216 138.089 17.0795 137.558 17.0795C137.024 17.0795 136.581 17.2216 136.229 17.5057C135.88 17.7898 135.621 18.1667 135.45 18.6364C135.284 19.1023 135.2 19.6136 135.2 20.1704C135.2 20.7311 135.284 21.2443 135.45 21.7102C135.621 22.1761 135.88 22.5492 136.229 22.8295C136.581 23.1098 137.024 23.25 137.558 23.25ZM145.216 19.3182V24.5H143.517V15.7727H145.148V17.1932H145.256C145.456 16.7311 145.771 16.3598 146.199 16.0795C146.631 15.7992 147.174 15.6591 147.83 15.6591C148.424 15.6591 148.945 15.7841 149.392 16.0341C149.839 16.2803 150.186 16.6477 150.432 17.1364C150.678 17.625 150.801 18.2292 150.801 18.9489V24.5H149.102V19.1534C149.102 18.5208 148.937 18.0265 148.608 17.6704C148.278 17.3106 147.826 17.1307 147.25 17.1307C146.856 17.1307 146.506 17.2159 146.199 17.3864C145.896 17.5568 145.655 17.8068 145.477 18.1364C145.303 18.4621 145.216 18.8561 145.216 19.3182Z" fill="#E8E8E8"/>
<path d="M72.1584 35.6158H69.1399C69.0997 35.3059 69.0171 35.0261 68.8924 34.7766C68.7676 34.5271 68.6026 34.3138 68.3974 34.1367C68.1921 33.9596 67.9486 33.8248 67.6669 33.7322C67.3892 33.6356 67.0813 33.5873 66.7432 33.5873C66.1436 33.5873 65.6264 33.7342 65.1917 34.028C64.7611 34.3218 64.4291 34.7464 64.1957 35.3018C63.9662 35.8572 63.8515 36.5293 63.8515 37.3182C63.8515 38.1392 63.9683 38.8274 64.2017 39.3828C64.4391 39.9342 64.7712 40.3507 65.1978 40.6324C65.6284 40.9101 66.1375 41.049 66.7251 41.049C67.0551 41.049 67.355 41.0067 67.6246 40.9222C67.8983 40.8377 68.1378 40.715 68.343 40.554C68.5523 40.389 68.7233 40.1897 68.8562 39.9563C68.993 39.7189 69.0876 39.4512 69.1399 39.1534L72.1584 39.1715C72.106 39.7189 71.9471 40.2582 71.6814 40.7894C71.4198 41.3207 71.0596 41.8056 70.6008 42.2443C70.142 42.679 69.5826 43.0251 68.9226 43.2827C68.2666 43.5402 67.514 43.669 66.6648 43.669C65.5459 43.669 64.5438 43.4235 63.6584 42.9325C62.777 42.4375 62.0807 41.7171 61.5696 40.7713C61.0585 39.8255 60.8029 38.6745 60.8029 37.3182C60.8029 35.9578 61.0625 34.8048 61.5817 33.859C62.1008 32.9132 62.8031 32.1948 63.6885 31.7038C64.574 31.2128 65.566 30.9673 66.6648 30.9673C67.4133 30.9673 68.1056 31.072 68.7415 31.2812C69.3773 31.4865 69.9368 31.7883 70.4197 32.1868C70.9027 32.5812 71.2951 33.0662 71.5969 33.6417C71.8988 34.2172 72.0859 34.8752 72.1584 35.6158ZM78.1968 43.6751C77.2228 43.6751 76.3857 43.4758 75.6854 43.0774C74.9892 42.6749 74.4519 42.1155 74.0736 41.3991C73.6993 40.6787 73.5121 39.8436 73.5121 38.8938C73.5121 37.94 73.6993 37.1049 74.0736 36.3885C74.4519 35.6681 74.9892 35.1087 75.6854 34.7102C76.3857 34.3078 77.2228 34.1065 78.1968 34.1065C79.1708 34.1065 80.0059 34.3078 80.7021 34.7102C81.4024 35.1087 81.9397 35.6681 82.314 36.3885C82.6923 37.1049 82.8815 37.94 82.8815 38.8938C82.8815 39.8436 82.6923 40.6787 82.314 41.3991C81.9397 42.1155 81.4024 42.6749 80.7021 43.0774C80.0059 43.4758 79.1708 43.6751 78.1968 43.6751ZM78.2149 41.4474C78.5691 41.4474 78.8689 41.3388 79.1144 41.1214C79.3599 40.9041 79.5471 40.6023 79.6758 40.2159C79.8087 39.8295 79.8751 39.3828 79.8751 38.8757C79.8751 38.3605 79.8087 37.9098 79.6758 37.5234C79.5471 37.1371 79.3599 36.8352 79.1144 36.6179C78.8689 36.4006 78.5691 36.2919 78.2149 36.2919C77.8487 36.2919 77.5388 36.4006 77.2852 36.6179C77.0357 36.8352 76.8445 37.1371 76.7117 37.5234C76.5829 37.9098 76.5185 38.3605 76.5185 38.8757C76.5185 39.3828 76.5829 39.8295 76.7117 40.2159C76.8445 40.6023 77.0357 40.9041 77.2852 41.1214C77.5388 41.3388 77.8487 41.4474 78.2149 41.4474ZM84.3937 43.5V34.2273H87.2009V35.9297H87.3035C87.4967 35.3662 87.8227 34.9215 88.2815 34.5955C88.7403 34.2695 89.2876 34.1065 89.9235 34.1065C90.5675 34.1065 91.1188 34.2715 91.5777 34.6016C92.0365 34.9316 92.3282 35.3743 92.453 35.9297H92.5496C92.7227 35.3783 93.0607 34.9376 93.5638 34.6076C94.0669 34.2735 94.6605 34.1065 95.3447 34.1065C96.2221 34.1065 96.9344 34.3882 97.4818 34.9517C98.0291 35.5111 98.3028 36.2798 98.3028 37.2578V43.5H95.3507V37.9339C95.3507 37.4711 95.232 37.119 94.9946 36.8775C94.7571 36.632 94.4492 36.5092 94.0709 36.5092C93.6644 36.5092 93.3445 36.642 93.111 36.9077C92.8816 37.1693 92.7669 37.5214 92.7669 37.9641V43.5H89.9296V37.9038C89.9296 37.4731 89.8129 37.133 89.5794 36.8835C89.346 36.634 89.0381 36.5092 88.6558 36.5092C88.3982 36.5092 88.1708 36.5716 87.9736 36.6964C87.7764 36.8171 87.6215 36.9902 87.5088 37.2155C87.4001 37.4409 87.3458 37.7065 87.3458 38.0124V43.5H84.3937ZM100.132 46.9773V34.2273H103.054V35.815H103.144C103.265 35.5333 103.436 35.2616 103.658 35C103.883 34.7384 104.169 34.5251 104.515 34.3601C104.865 34.191 105.283 34.1065 105.77 34.1065C106.414 34.1065 107.016 34.2756 107.576 34.6136C108.139 34.9517 108.594 35.4729 108.94 36.1772C109.286 36.8815 109.459 37.779 109.459 38.8697C109.459 39.9201 109.292 40.7995 108.958 41.5078C108.628 42.2161 108.181 42.7474 107.618 43.1016C107.058 43.4557 106.437 43.6328 105.752 43.6328C105.286 43.6328 104.881 43.5563 104.539 43.4034C104.197 43.2505 103.909 43.0492 103.676 42.7997C103.446 42.5502 103.269 42.2825 103.144 41.9968H103.084V46.9773H100.132ZM103.024 38.8636C103.024 39.3627 103.09 39.7973 103.223 40.1676C103.36 40.5379 103.555 40.8256 103.808 41.0309C104.066 41.2321 104.374 41.3327 104.732 41.3327C105.094 41.3327 105.402 41.2321 105.656 41.0309C105.909 40.8256 106.1 40.5379 106.229 40.1676C106.362 39.7973 106.429 39.3627 106.429 38.8636C106.429 38.3646 106.362 37.9319 106.229 37.5657C106.1 37.1994 105.909 36.9157 105.656 36.7145C105.406 36.5132 105.098 36.4126 104.732 36.4126C104.37 36.4126 104.062 36.5112 103.808 36.7084C103.555 36.9056 103.36 37.1874 103.223 37.5536C103.09 37.9199 103.024 38.3565 103.024 38.8636ZM111.006 43.5V34.2273H113.958V43.5H111.006ZM112.485 33.1467C112.071 33.1467 111.714 33.0098 111.417 32.7361C111.119 32.4584 110.97 32.1244 110.97 31.734C110.97 31.3476 111.119 31.0176 111.417 30.744C111.714 30.4663 112.071 30.3274 112.485 30.3274C112.904 30.3274 113.26 30.4663 113.554 30.744C113.851 31.0176 114 31.3476 114 31.734C114 32.1244 113.851 32.4584 113.554 32.7361C113.26 33.0098 112.904 33.1467 112.485 33.1467ZM118.789 31.1364V43.5H115.837V31.1364H118.789ZM125.003 43.6751C124.033 43.6751 123.196 43.4839 122.491 43.1016C121.791 42.7152 121.252 42.1658 120.873 41.4535C120.499 40.7371 120.312 39.8859 120.312 38.8998C120.312 37.942 120.501 37.1049 120.879 36.3885C121.258 35.6681 121.791 35.1087 122.479 34.7102C123.167 34.3078 123.978 34.1065 124.912 34.1065C125.572 34.1065 126.176 34.2092 126.723 34.4144C127.271 34.6197 127.743 34.9235 128.142 35.326C128.54 35.7284 128.85 36.2255 129.072 36.8171C129.293 37.4047 129.404 38.0788 129.404 38.8395V39.576H121.344V37.8615H126.657C126.653 37.5476 126.578 37.2679 126.433 37.0224C126.288 36.7769 126.089 36.5857 125.836 36.4489C125.586 36.308 125.298 36.2376 124.972 36.2376C124.642 36.2376 124.347 36.312 124.085 36.4609C123.823 36.6058 123.616 36.805 123.463 37.0586C123.31 37.3081 123.23 37.5918 123.222 37.9098V39.6545C123.222 40.0328 123.296 40.3648 123.445 40.6506C123.594 40.9323 123.805 41.1516 124.079 41.3086C124.353 41.4655 124.679 41.544 125.057 41.544C125.319 41.544 125.556 41.5078 125.769 41.4354C125.983 41.3629 126.166 41.2563 126.319 41.1154C126.472 40.9745 126.586 40.8015 126.663 40.5962L129.373 40.6747C129.261 41.2824 129.013 41.8117 128.631 42.2624C128.253 42.7092 127.755 43.0573 127.14 43.3068C126.524 43.5523 125.812 43.6751 125.003 43.6751ZM130.911 43.5V34.2273H133.779V35.9176H133.875C134.044 35.3059 134.32 34.8511 134.702 34.5533C135.085 34.2514 135.53 34.1005 136.037 34.1005C136.173 34.1005 136.314 34.1105 136.459 34.1307C136.604 34.1468 136.739 34.1729 136.864 34.2092V36.7748C136.723 36.7266 136.538 36.6883 136.308 36.6601C136.083 36.632 135.882 36.6179 135.705 36.6179C135.354 36.6179 135.039 36.6964 134.757 36.8533C134.479 37.0063 134.26 37.2216 134.099 37.4993C133.942 37.773 133.863 38.0949 133.863 38.4652V43.5H130.911ZM141.719 43.5V31.1364H150.34V33.5632H144.707V36.0987H149.899V38.5316H144.707V41.0731H150.34V43.5H141.719ZM154.722 34.2273L156.25 37.2819L157.831 34.2273H160.808L158.218 38.8636L160.904 43.5H157.952L156.25 40.4212L154.59 43.5H151.595L154.288 38.8636L151.728 34.2273H154.722ZM162.155 46.9773V34.2273H165.077V35.815H165.168C165.289 35.5333 165.46 35.2616 165.681 35C165.906 34.7384 166.192 34.5251 166.538 34.3601C166.888 34.191 167.307 34.1065 167.794 34.1065C168.438 34.1065 169.04 34.2756 169.599 34.6136C170.162 34.9517 170.617 35.4729 170.963 36.1772C171.309 36.8815 171.482 37.779 171.482 38.8697C171.482 39.9201 171.315 40.7995 170.981 41.5078C170.651 42.2161 170.205 42.7474 169.641 43.1016C169.082 43.4557 168.46 43.6328 167.776 43.6328C167.309 43.6328 166.904 43.5563 166.562 43.4034C166.22 43.2505 165.933 43.0492 165.699 42.7997C165.47 42.5502 165.293 42.2825 165.168 41.9968H165.107V46.9773H162.155ZM165.047 38.8636C165.047 39.3627 165.114 39.7973 165.246 40.1676C165.383 40.5379 165.578 40.8256 165.832 41.0309C166.089 41.2321 166.397 41.3327 166.756 41.3327C167.118 41.3327 167.426 41.2321 167.679 41.0309C167.933 40.8256 168.124 40.5379 168.253 40.1676C168.386 39.7973 168.452 39.3627 168.452 38.8636C168.452 38.3646 168.386 37.9319 168.253 37.5657C168.124 37.1994 167.933 36.9157 167.679 36.7145C167.43 36.5132 167.122 36.4126 166.756 36.4126C166.393 36.4126 166.085 36.5112 165.832 36.7084C165.578 36.9056 165.383 37.1874 165.246 37.5536C165.114 37.9199 165.047 38.3565 165.047 38.8636ZM175.981 31.1364V43.5H173.029V31.1364H175.981ZM182.189 43.6751C181.215 43.6751 180.378 43.4758 179.678 43.0774C178.981 42.6749 178.444 42.1155 178.066 41.3991C177.691 40.6787 177.504 39.8436 177.504 38.8938C177.504 37.94 177.691 37.1049 178.066 36.3885C178.444 35.6681 178.981 35.1087 179.678 34.7102C180.378 34.3078 181.215 34.1065 182.189 34.1065C183.163 34.1065 183.998 34.3078 184.694 34.7102C185.395 35.1087 185.932 35.6681 186.306 36.3885C186.684 37.1049 186.874 37.94 186.874 38.8938C186.874 39.8436 186.684 40.6787 186.306 41.3991C185.932 42.1155 185.395 42.6749 184.694 43.0774C183.998 43.4758 183.163 43.6751 182.189 43.6751ZM182.207 41.4474C182.561 41.4474 182.861 41.3388 183.107 41.1214C183.352 40.9041 183.539 40.6023 183.668 40.2159C183.801 39.8295 183.867 39.3828 183.867 38.8757C183.867 38.3605 183.801 37.9098 183.668 37.5234C183.539 37.1371 183.352 36.8352 183.107 36.6179C182.861 36.4006 182.561 36.2919 182.207 36.2919C181.841 36.2919 181.531 36.4006 181.277 36.6179C181.028 36.8352 180.837 37.1371 180.704 37.5234C180.575 37.9098 180.511 38.3605 180.511 38.8757C180.511 39.3828 180.575 39.8295 180.704 40.2159C180.837 40.6023 181.028 40.9041 181.277 41.1214C181.531 41.3388 181.841 41.4474 182.207 41.4474ZM188.386 43.5V34.2273H191.253V35.9176H191.35C191.519 35.3059 191.795 34.8511 192.177 34.5533C192.559 34.2514 193.004 34.1005 193.511 34.1005C193.648 34.1005 193.789 34.1105 193.934 34.1307C194.079 34.1468 194.214 34.1729 194.338 34.2092V36.7748C194.197 36.7266 194.012 36.6883 193.783 36.6601C193.558 36.632 193.356 36.6179 193.179 36.6179C192.829 36.6179 192.513 36.6964 192.231 36.8533C191.954 37.0063 191.734 37.2216 191.573 37.4993C191.416 37.773 191.338 38.0949 191.338 38.4652V43.5H188.386ZM199.394 43.6751C198.424 43.6751 197.587 43.4839 196.883 43.1016C196.183 42.7152 195.643 42.1658 195.265 41.4535C194.891 40.7371 194.704 39.8859 194.704 38.8998C194.704 37.942 194.893 37.1049 195.271 36.3885C195.649 35.6681 196.183 35.1087 196.871 34.7102C197.559 34.3078 198.37 34.1065 199.304 34.1065C199.964 34.1065 200.567 34.2092 201.115 34.4144C201.662 34.6197 202.135 34.9235 202.533 35.326C202.932 35.7284 203.242 36.2255 203.463 36.8171C203.684 37.4047 203.795 38.0788 203.795 38.8395V39.576H195.736V37.8615H201.048C201.044 37.5476 200.97 37.2679 200.825 37.0224C200.68 36.7769 200.481 36.5857 200.227 36.4489C199.978 36.308 199.69 36.2376 199.364 36.2376C199.034 36.2376 198.738 36.312 198.477 36.4609C198.215 36.6058 198.008 36.805 197.855 37.0586C197.702 37.3081 197.621 37.5918 197.613 37.9098V39.6545C197.613 40.0328 197.688 40.3648 197.837 40.6506C197.986 40.9323 198.197 41.1516 198.471 41.3086C198.744 41.4655 199.07 41.544 199.449 41.544C199.71 41.544 199.948 41.5078 200.161 41.4354C200.374 41.3629 200.557 41.2563 200.71 41.1154C200.863 40.9745 200.978 40.8015 201.054 40.5962L203.765 40.6747C203.652 41.2824 203.405 41.8117 203.022 42.2624C202.644 42.7092 202.147 43.0573 201.531 43.3068C200.916 43.5523 200.203 43.6751 199.394 43.6751ZM205.303 43.5V34.2273H208.17V35.9176H208.267C208.436 35.3059 208.712 34.8511 209.094 34.5533C209.476 34.2514 209.921 34.1005 210.428 34.1005C210.565 34.1005 210.706 34.1105 210.851 34.1307C210.996 34.1468 211.131 34.1729 211.255 34.2092V36.7748C211.114 36.7266 210.929 36.6883 210.7 36.6601C210.474 36.632 210.273 36.6179 210.096 36.6179C209.746 36.6179 209.43 36.6964 209.148 36.8533C208.871 37.0063 208.651 37.2216 208.49 37.4993C208.333 37.773 208.255 38.0949 208.255 38.4652V43.5H205.303Z" fill="#67C52A"/>
</g>
<defs>
<filter id="filter0_d_1_50" x="6.28571" y="2.28571" width="51.4286" height="51.4286" filterUnits="userSpaceOnUse" color-interpolation-filters="sRGB">
<feFlood flood-opacity="0" result="BackgroundImageFix"/>
<feColorMatrix in="SourceAlpha" type="matrix" values="0 0 0 0 0 0 0 0 0 0 0 0 0 0 0 0 0 0 127 0" result="hardAlpha"/>
<feOffset/>
<feGaussianBlur stdDeviation="2.85714"/>
<feComposite in2="hardAlpha" operator="out"/>
<feColorMatrix type="matrix" values="0 0 0 0 0 0 0 0 0 0 0 0 0 0 0 0 0 0 0.25 0"/>
<feBlend mode="normal" in2="BackgroundImageFix" result="effect1_dropShadow_1_50"/>
<feBlend mode="normal" in="SourceGraphic" in2="effect1_dropShadow_1_50" result="shape"/>
</filter>
<filter id="filter1_d_1_50" x="54.4" y="3.9" width="163.2" height="48.6773" filterUnits="userSpaceOnUse" color-interpolation-filters="sRGB">
<feFlood flood-opacity="0" result="BackgroundImageFix"/>
<feColorMatrix in="SourceAlpha" type="matrix" values="0 0 0 0 0 0 0 0 0 0 0 0 0 0 0 0 0 0 127 0" result="hardAlpha"/>
<feOffset/>
<feGaussianBlur stdDeviation="2.8"/>
<feComposite in2="hardAlpha" operator="out"/>
<feColorMatrix type="matrix" values="0 0 0 0 0 0 0 0 0 0 0 0 0 0 0 0 0 0 0.25 0"/>
<feBlend mode="normal" in2="BackgroundImageFix" result="effect1_dropShadow_1_50"/>
<feBlend mode="normal" in="SourceGraphic" in2="effect1_dropShadow_1_50" result="shape"/>
</filter>
<linearGradient id="paint0_linear_1_50" x1="112" y1="0" x2="112" y2="56" gradientUnits="userSpaceOnUse">
<stop stop-color="#2D4E11"/>
<stop offset="1" stop-color="#1A310A"/>
</linearGradient>
</defs>
</svg>
