<svg width="201" height="56" viewBox="0 0 201 56" fill="none" xmlns="http://www.w3.org/2000/svg">
<g clip-path="url(#clip0_1_50)">
<rect width="201" height="56" rx="8" fill="url(#paint0_linear_1_50)"/>
<g filter="url(#filter0_d_1_50)">
<path d="M32.0013 8.00128C20.6066 8.00128 11.375 17.1863 11.375 28.5064C11.375 37.5709 17.2844 45.2539 25.4744 47.9645C26.5095 48.158 26.8834 47.5236 26.8834 46.9751C26.8834 46.4881 26.8718 45.2001 26.8641 43.4905C21.1235 44.7259 19.9143 40.7338 19.9143 40.7338C18.9745 38.3706 17.6183 37.7362 17.6183 37.7362C15.7516 36.4688 17.7666 36.4957 17.7666 36.4957C19.8344 36.6354 20.9224 38.6039 20.9224 38.6039C22.762 41.7412 25.7489 40.8338 26.9311 40.3058C27.1116 38.9845 27.6491 38.0759 28.2344 37.5696C23.6554 37.0557 18.8404 35.2936 18.8404 27.4363C18.8404 25.1923 19.6397 23.3647 20.9611 21.9294C20.7329 21.4155 20.0342 19.3265 21.1428 16.5019C21.1428 16.5019 22.869 15.9547 26.8151 18.605C28.4665 18.15 30.2197 17.9232 31.9716 17.9117C33.7249 17.9232 35.4768 18.1513 37.1282 18.605C41.0511 15.9547 42.7759 16.5019 42.7759 16.5019C43.8833 19.3265 43.1846 21.4142 42.9835 21.9294C44.292 23.3647 45.0912 25.1935 45.0912 27.4363C45.0912 35.3115 40.2699 37.048 35.6857 37.5491C36.4024 38.163 37.0741 39.4254 37.0741 41.3413C37.0741 44.0839 37.0483 46.2933 37.0483 46.961C37.0483 47.4941 37.4092 48.1349 38.4715 47.9286C46.722 45.2462 52.625 37.5568 52.625 28.5051C52.625 17.185 43.3934 8 31.9987 8L32.0013 8.00128Z" fill="white"/>
</g>
<g filter="url(#filter1_d_1_50)">
<path d="M61.2784 24.5V12.8636H65.4261C66.3276 12.8636 67.0757 13.0189 67.6704 13.3295C68.2689 13.6401 68.7159 14.0701 69.0113 14.6193C69.3068 15.1648 69.4545 15.7954 69.4545 16.5114C69.4545 17.2235 69.3049 17.8504 69.0057 18.392C68.7102 18.9299 68.2632 19.3485 67.6648 19.6477C67.0701 19.947 66.322 20.0966 65.4204 20.0966H62.2784V18.5852H65.2613C65.8295 18.5852 66.2916 18.5038 66.6477 18.3409C67.0076 18.178 67.2708 17.9413 67.4375 17.6307C67.6041 17.3201 67.6875 16.947 67.6875 16.5114C67.6875 16.072 67.6023 15.6913 67.4318 15.3693C67.2651 15.0473 67.0019 14.8011 66.642 14.6307C66.286 14.4564 65.8182 14.3693 65.2386 14.3693H63.0341V24.5H61.2784ZM67.0227 19.25L69.8977 24.5H67.8977L65.0795 19.25H67.0227ZM75.1065 24.6761C74.2467 24.6761 73.5061 24.4924 72.8849 24.125C72.2675 23.7538 71.7902 23.2329 71.4531 22.5625C71.1198 21.8883 70.9531 21.0985 70.9531 20.1932C70.9531 19.2992 71.1198 18.5114 71.4531 17.8295C71.7902 17.1477 72.2599 16.6155 72.8622 16.2329C73.4683 15.8504 74.1766 15.6591 74.9872 15.6591C75.4796 15.6591 75.9569 15.7405 76.419 15.9034C76.8811 16.0663 77.2959 16.322 77.6633 16.6704C78.0308 17.0189 78.3205 17.4716 78.5327 18.0284C78.7448 18.5814 78.8508 19.2538 78.8508 20.0454V20.6477H71.9133V19.375H77.1861C77.1861 18.928 77.0952 18.5322 76.9133 18.1875C76.7315 17.839 76.4758 17.5644 76.1463 17.3636C75.8205 17.1629 75.438 17.0625 74.9986 17.0625C74.5213 17.0625 74.1046 17.1799 73.7486 17.4148C73.3963 17.6458 73.1236 17.9489 72.9304 18.3239C72.741 18.6951 72.6463 19.0985 72.6463 19.5341V20.5284C72.6463 21.1117 72.7486 21.6079 72.9531 22.017C73.1614 22.4261 73.4512 22.7386 73.8224 22.9545C74.1936 23.1667 74.6273 23.2727 75.1236 23.2727C75.4455 23.2727 75.7391 23.2273 76.0042 23.1364C76.2694 23.0417 76.4986 22.9015 76.6917 22.7159C76.8849 22.5303 77.0327 22.3011 77.1349 22.0284L78.7429 22.3182C78.6141 22.7917 78.383 23.2064 78.0497 23.5625C77.7202 23.9148 77.3054 24.1894 76.8054 24.3864C76.3092 24.5795 75.7429 24.6761 75.1065 24.6761ZM80.7358 27.7727V15.7727H82.3949V17.1875H82.5369C82.6354 17.0057 82.7774 16.7954 82.963 16.5568C83.1487 16.3182 83.4062 16.1098 83.7358 15.9318C84.0653 15.75 84.5009 15.6591 85.0426 15.6591C85.7471 15.6591 86.3759 15.8371 86.929 16.1932C87.482 16.5492 87.9157 17.0625 88.2301 17.7329C88.5483 18.4034 88.7074 19.2102 88.7074 20.1534C88.7074 21.0966 88.5502 21.9053 88.2358 22.5795C87.9214 23.25 87.4896 23.767 86.9403 24.1307C86.3911 24.4905 85.7642 24.6704 85.0596 24.6704C84.5293 24.6704 84.0956 24.5814 83.7585 24.4034C83.4252 24.2254 83.1638 24.017 82.9744 23.7784C82.785 23.5398 82.6392 23.3276 82.5369 23.142H82.4346V27.7727H80.7358ZM82.4005 20.1364C82.4005 20.75 82.4896 21.2879 82.6676 21.75C82.8456 22.2121 83.1032 22.5739 83.4403 22.8352C83.7774 23.0928 84.1903 23.2216 84.679 23.2216C85.1865 23.2216 85.6108 23.0871 85.9517 22.8182C86.2926 22.5454 86.5502 22.1761 86.7244 21.7102C86.9024 21.2443 86.9915 20.7197 86.9915 20.1364C86.9915 19.5606 86.9043 19.0436 86.7301 18.5852C86.5596 18.1269 86.3021 17.7651 85.9574 17.5C85.6165 17.2348 85.1903 17.1023 84.679 17.1023C84.1865 17.1023 83.7699 17.2292 83.429 17.4829C83.0918 17.7367 82.8362 18.0909 82.6619 18.5454C82.4877 19 82.4005 19.5303 82.4005 20.1364ZM94.2869 24.6761C93.4687 24.6761 92.7547 24.4886 92.1449 24.1136C91.535 23.7386 91.0615 23.214 90.7244 22.5398C90.3873 21.8655 90.2187 21.0776 90.2187 20.1761C90.2187 19.2708 90.3873 18.4792 90.7244 17.8011C91.0615 17.1231 91.535 16.5966 92.1449 16.2216C92.7547 15.8466 93.4687 15.6591 94.2869 15.6591C95.1051 15.6591 95.8191 15.8466 96.429 16.2216C97.0388 16.5966 97.5123 17.1231 97.8494 17.8011C98.1865 18.4792 98.3551 19.2708 98.3551 20.1761C98.3551 21.0776 98.1865 21.8655 97.8494 22.5398C97.5123 23.214 97.0388 23.7386 96.429 24.1136C95.8191 24.4886 95.1051 24.6761 94.2869 24.6761ZM94.2926 23.25C94.8229 23.25 95.2623 23.1098 95.6108 22.8295C95.9593 22.5492 96.2168 22.1761 96.3835 21.7102C96.554 21.2443 96.6392 20.7311 96.6392 20.1704C96.6392 19.6136 96.554 19.1023 96.3835 18.6364C96.2168 18.1667 95.9593 17.7898 95.6108 17.5057C95.2623 17.2216 94.8229 17.0795 94.2926 17.0795C93.7585 17.0795 93.3153 17.2216 92.963 17.5057C92.6146 17.7898 92.3551 18.1667 92.1846 18.6364C92.018 19.1023 91.9346 19.6136 91.9346 20.1704C91.9346 20.7311 92.018 21.2443 92.1846 21.7102C92.3551 22.1761 92.6146 22.5492 92.963 22.8295C93.3153 23.1098 93.7585 23.25 94.2926 23.25ZM100.251 24.5V15.7727H101.893V17.1591H101.984C102.143 16.6894 102.424 16.3201 102.825 16.0511C103.231 15.7784 103.689 15.642 104.2 15.642C104.306 15.642 104.431 15.6458 104.575 15.6534C104.723 15.661 104.839 15.6704 104.922 15.6818V17.3068C104.854 17.2879 104.732 17.267 104.558 17.2443C104.384 17.2178 104.21 17.2045 104.035 17.2045C103.634 17.2045 103.276 17.2898 102.962 17.4602C102.651 17.6269 102.405 17.8598 102.223 18.1591C102.041 18.4545 101.95 18.7917 101.95 19.1704V24.5H100.251ZM110.982 15.7727V17.1364H106.214V15.7727H110.982ZM107.493 13.6818H109.192V21.9375C109.192 22.267 109.241 22.5151 109.339 22.6818C109.438 22.8447 109.565 22.9564 109.72 23.017C109.879 23.0739 110.052 23.1023 110.237 23.1023C110.374 23.1023 110.493 23.0928 110.595 23.0739C110.697 23.0549 110.777 23.0398 110.834 23.0284L111.141 24.4318C111.042 24.4697 110.902 24.5076 110.72 24.5454C110.538 24.5871 110.311 24.6098 110.038 24.6136C109.591 24.6212 109.175 24.5417 108.788 24.375C108.402 24.2083 108.089 23.9508 107.851 23.6023C107.612 23.2538 107.493 22.8163 107.493 22.2898V13.6818ZM117.095 24.5V15.7727H118.794V24.5H117.095ZM117.953 14.4261C117.658 14.4261 117.404 14.3276 117.192 14.1307C116.983 13.9299 116.879 13.6913 116.879 13.4148C116.879 13.1345 116.983 12.8958 117.192 12.6989C117.404 12.4981 117.658 12.3977 117.953 12.3977C118.249 12.3977 118.5 12.4981 118.709 12.6989C118.921 12.8958 119.027 13.1345 119.027 13.4148C119.027 13.6913 118.921 13.9299 118.709 14.1307C118.5 14.3276 118.249 14.4261 117.953 14.4261ZM127.619 17.9034L126.08 18.1761C126.015 17.9792 125.913 17.7917 125.773 17.6136C125.636 17.4356 125.451 17.2898 125.216 17.1761C124.981 17.0625 124.687 17.0057 124.335 17.0057C123.854 17.0057 123.453 17.1136 123.131 17.3295C122.809 17.5417 122.648 17.8163 122.648 18.1534C122.648 18.4451 122.756 18.6799 122.972 18.8579C123.187 19.036 123.536 19.1818 124.017 19.2954L125.403 19.6136C126.206 19.7992 126.805 20.0852 127.199 20.4716C127.593 20.8579 127.79 21.3598 127.79 21.9773C127.79 22.5 127.638 22.9659 127.335 23.375C127.036 23.7803 126.617 24.0985 126.08 24.3295C125.545 24.5606 124.926 24.6761 124.222 24.6761C123.244 24.6761 122.447 24.4678 121.83 24.0511C121.212 23.6307 120.833 23.0341 120.693 22.2614L122.335 22.0114C122.437 22.4394 122.648 22.7633 122.966 22.9829C123.284 23.1989 123.699 23.3068 124.21 23.3068C124.767 23.3068 125.212 23.1913 125.545 22.9602C125.879 22.7254 126.045 22.4394 126.045 22.1023C126.045 21.8295 125.943 21.6004 125.739 21.4148C125.538 21.2292 125.229 21.089 124.812 20.9943L123.335 20.6704C122.521 20.4848 121.919 20.1894 121.528 19.7841C121.142 19.3788 120.949 18.8655 120.949 18.2443C120.949 17.7292 121.093 17.2784 121.381 16.892C121.669 16.5057 122.066 16.2045 122.574 15.9886C123.081 15.7689 123.663 15.6591 124.318 15.6591C125.261 15.6591 126.004 15.8636 126.545 16.2727C127.087 16.678 127.445 17.2216 127.619 17.9034ZM136.197 17.9034L134.658 18.1761C134.593 17.9792 134.491 17.7917 134.351 17.6136C134.214 17.4356 134.029 17.2898 133.794 17.1761C133.559 17.0625 133.266 17.0057 132.913 17.0057C132.432 17.0057 132.031 17.1136 131.709 17.3295C131.387 17.5417 131.226 17.8163 131.226 18.1534C131.226 18.4451 131.334 18.6799 131.55 18.8579C131.766 19.036 132.114 19.1818 132.595 19.2954L133.981 19.6136C134.785 19.7992 135.383 20.0852 135.777 20.4716C136.171 20.8579 136.368 21.3598 136.368 21.9773C136.368 22.5 136.216 22.9659 135.913 23.375C135.614 23.7803 135.196 24.0985 134.658 24.3295C134.124 24.5606 133.504 24.6761 132.8 24.6761C131.822 24.6761 131.025 24.4678 130.408 24.0511C129.79 23.6307 129.411 23.0341 129.271 22.2614L130.913 22.0114C131.016 22.4394 131.226 22.7633 131.544 22.9829C131.862 23.1989 132.277 23.3068 132.788 23.3068C133.345 23.3068 133.79 23.1913 134.124 22.9602C134.457 22.7254 134.624 22.4394 134.624 22.1023C134.624 21.8295 134.521 21.6004 134.317 21.4148C134.116 21.2292 133.807 21.089 133.391 20.9943L131.913 20.6704C131.099 20.4848 130.497 20.1894 130.106 19.7841C129.72 19.3788 129.527 18.8655 129.527 18.2443C129.527 17.7292 129.671 17.2784 129.959 16.892C130.247 16.5057 130.644 16.2045 131.152 15.9886C131.66 15.7689 132.241 15.6591 132.896 15.6591C133.839 15.6591 134.582 15.8636 135.124 16.2727C135.665 16.678 136.023 17.2216 136.197 17.9034ZM143.764 20.8807V15.7727H145.469V24.5H143.798V22.9886H143.707C143.507 23.4545 143.185 23.8428 142.741 24.1534C142.302 24.4602 141.755 24.6136 141.099 24.6136C140.539 24.6136 140.043 24.4905 139.611 24.2443C139.183 23.9943 138.846 23.625 138.599 23.1364C138.357 22.6477 138.236 22.0436 138.236 21.3239V15.7727H139.935V21.1193C139.935 21.714 140.099 22.1875 140.429 22.5398C140.758 22.892 141.187 23.0682 141.713 23.0682C142.031 23.0682 142.347 22.9886 142.662 22.8295C142.98 22.6704 143.243 22.4299 143.452 22.1079C143.664 21.786 143.768 21.3769 143.764 20.8807ZM151.513 24.6761C150.653 24.6761 149.912 24.4924 149.291 24.125C148.674 23.7538 148.196 23.2329 147.859 22.5625C147.526 21.8883 147.359 21.0985 147.359 20.1932C147.359 19.2992 147.526 18.5114 147.859 17.8295C148.196 17.1477 148.666 16.6155 149.268 16.2329C149.874 15.8504 150.583 15.6591 151.393 15.6591C151.886 15.6591 152.363 15.7405 152.825 15.9034C153.287 16.0663 153.702 16.322 154.07 16.6704C154.437 17.0189 154.727 17.4716 154.939 18.0284C155.151 18.5814 155.257 19.2538 155.257 20.0454V20.6477H148.32V19.375H153.592C153.592 18.928 153.501 18.5322 153.32 18.1875C153.138 17.839 152.882 17.5644 152.553 17.3636C152.227 17.1629 151.844 17.0625 151.405 17.0625C150.928 17.0625 150.511 17.1799 150.155 17.4148C149.803 17.6458 149.53 17.9489 149.337 18.3239C149.147 18.6951 149.053 19.0985 149.053 19.5341V20.5284C149.053 21.1117 149.155 21.6079 149.359 22.017C149.568 22.4261 149.857 22.7386 150.229 22.9545C150.6 23.1667 151.034 23.2727 151.53 23.2727C151.852 23.2727 152.145 23.2273 152.41 23.1364C152.676 23.0417 152.905 22.9015 153.098 22.7159C153.291 22.5303 153.439 22.3011 153.541 22.0284L155.149 22.3182C155.02 22.7917 154.789 23.2064 154.456 23.5625C154.126 23.9148 153.712 24.1894 153.212 24.3864C152.715 24.5795 152.149 24.6761 151.513 24.6761ZM163.682 17.9034L162.142 18.1761C162.078 17.9792 161.975 17.7917 161.835 17.6136C161.699 17.4356 161.513 17.2898 161.278 17.1761C161.044 17.0625 160.75 17.0057 160.398 17.0057C159.917 17.0057 159.515 17.1136 159.193 17.3295C158.871 17.5417 158.71 17.8163 158.71 18.1534C158.71 18.4451 158.818 18.6799 159.034 18.8579C159.25 19.036 159.598 19.1818 160.08 19.2954L161.466 19.6136C162.269 19.7992 162.867 20.0852 163.261 20.4716C163.655 20.8579 163.852 21.3598 163.852 21.9773C163.852 22.5 163.701 22.9659 163.398 23.375C163.098 23.7803 162.68 24.0985 162.142 24.3295C161.608 24.5606 160.989 24.6761 160.284 24.6761C159.307 24.6761 158.509 24.4678 157.892 24.0511C157.275 23.6307 156.896 23.0341 156.756 22.2614L158.398 22.0114C158.5 22.4394 158.71 22.7633 159.028 22.9829C159.347 23.1989 159.761 23.3068 160.273 23.3068C160.83 23.3068 161.275 23.1913 161.608 22.9602C161.941 22.7254 162.108 22.4394 162.108 22.1023C162.108 21.8295 162.006 21.6004 161.801 21.4148C161.6 21.2292 161.292 21.089 160.875 20.9943L159.398 20.6704C158.583 20.4848 157.981 20.1894 157.591 19.7841C157.205 19.3788 157.011 18.8655 157.011 18.2443C157.011 17.7292 157.155 17.2784 157.443 16.892C157.731 16.5057 158.129 16.2045 158.636 15.9886C159.144 15.7689 159.725 15.6591 160.381 15.6591C161.324 15.6591 162.066 15.8636 162.608 16.2727C163.15 16.678 163.508 17.2216 163.682 17.9034ZM173.631 24.6761C172.812 24.6761 172.098 24.4886 171.489 24.1136C170.879 23.7386 170.405 23.214 170.068 22.5398C169.731 21.8655 169.562 21.0776 169.562 20.1761C169.562 19.2708 169.731 18.4792 170.068 17.8011C170.405 17.1231 170.879 16.5966 171.489 16.2216C172.098 15.8466 172.812 15.6591 173.631 15.6591C174.449 15.6591 175.163 15.8466 175.773 16.2216C176.383 16.5966 176.856 17.1231 177.193 17.8011C177.53 18.4792 177.699 19.2708 177.699 20.1761C177.699 21.0776 177.53 21.8655 177.193 22.5398C176.856 23.214 176.383 23.7386 175.773 24.1136C175.163 24.4886 174.449 24.6761 173.631 24.6761ZM173.636 23.25C174.167 23.25 174.606 23.1098 174.954 22.8295C175.303 22.5492 175.561 22.1761 175.727 21.7102C175.898 21.2443 175.983 20.7311 175.983 20.1704C175.983 19.6136 175.898 19.1023 175.727 18.6364C175.561 18.1667 175.303 17.7898 174.954 17.5057C174.606 17.2216 174.167 17.0795 173.636 17.0795C173.102 17.0795 172.659 17.2216 172.307 17.5057C171.958 17.7898 171.699 18.1667 171.528 18.6364C171.362 19.1023 171.278 19.6136 171.278 20.1704C171.278 20.7311 171.362 21.2443 171.528 21.7102C171.699 22.1761 171.958 22.5492 172.307 22.8295C172.659 23.1098 173.102 23.25 173.636 23.25ZM181.294 19.3182V24.5H179.595V15.7727H181.226V17.1932H181.334C181.535 16.7311 181.849 16.3598 182.277 16.0795C182.709 15.7992 183.252 15.6591 183.908 15.6591C184.502 15.6591 185.023 15.7841 185.47 16.0341C185.917 16.2803 186.264 16.6477 186.51 17.1364C186.756 17.625 186.879 18.2292 186.879 18.9489V24.5H185.18V19.1534C185.18 18.5208 185.016 18.0265 184.686 17.6704C184.356 17.3106 183.904 17.1307 183.328 17.1307C182.934 17.1307 182.584 17.2159 182.277 17.3864C181.974 17.5568 181.733 17.8068 181.555 18.1364C181.381 18.4621 181.294 18.8561 181.294 19.3182Z" fill="#E8E8E8"/>
<path d="M69.0493 35.1751C68.9809 34.9215 68.8803 34.6981 68.7475 34.505C68.6147 34.3078 68.4517 34.1407 68.2585 34.0039C68.0653 33.8671 67.844 33.7644 67.5944 33.696C67.3449 33.6236 67.0712 33.5873 66.7734 33.5873C66.1738 33.5873 65.6546 33.7322 65.2159 34.022C64.7812 34.3118 64.4452 34.7344 64.2077 35.2898C63.9703 35.8411 63.8515 36.5112 63.8515 37.3001C63.8515 38.0929 63.9662 38.769 64.1957 39.3285C64.4251 39.8879 64.7571 40.3145 65.1917 40.6083C65.6264 40.9021 66.1536 41.049 66.7734 41.049C67.3208 41.049 67.7836 40.9605 68.1619 40.7834C68.5443 40.6023 68.834 40.3467 69.0312 40.0167C69.2284 39.6867 69.327 39.2983 69.327 38.8516L69.8824 38.918H66.876V36.7386H72.2067V38.3746C72.2067 39.4814 71.9712 40.4292 71.5003 41.218C71.0335 42.0069 70.3895 42.6126 69.5685 43.0351C68.7515 43.4577 67.8118 43.669 66.7493 43.669C65.5701 43.669 64.5337 43.4135 63.6403 42.9023C62.7468 42.3912 62.0505 41.6627 61.5515 40.717C61.0524 39.7672 60.8029 38.6403 60.8029 37.3363C60.8029 36.3221 60.9538 35.4226 61.2557 34.6378C61.5575 33.8489 61.9781 33.1809 62.5174 32.6335C63.0607 32.0862 63.6885 31.6716 64.4009 31.3899C65.1173 31.1082 65.888 30.9673 66.7131 30.9673C67.4294 30.9673 68.0955 31.0699 68.7113 31.2752C69.3311 31.4805 69.8784 31.7702 70.3533 32.1445C70.8322 32.5188 71.2206 32.9635 71.5184 33.4787C71.8163 33.9938 72.0014 34.5593 72.0738 35.1751H69.0493ZM74.549 43.5V34.2273H77.501V43.5H74.549ZM76.028 33.1467C75.6135 33.1467 75.2573 33.0098 74.9595 32.7361C74.6617 32.4584 74.5128 32.1244 74.5128 31.734C74.5128 31.3476 74.6617 31.0176 74.9595 30.744C75.2573 30.4663 75.6135 30.3274 76.028 30.3274C76.4466 30.3274 76.8028 30.4663 77.0966 30.744C77.3944 31.0176 77.5433 31.3476 77.5433 31.734C77.5433 32.1244 77.3944 32.4584 77.0966 32.7361C76.8028 33.0098 76.4466 33.1467 76.028 33.1467ZM84.6141 34.2273V36.4006H78.7643V34.2273H84.6141ZM79.9898 32.0057H82.9418V40.5842C82.9418 40.7653 82.97 40.9122 83.0263 41.0248C83.0867 41.1335 83.1732 41.212 83.2859 41.2603C83.3986 41.3046 83.5334 41.3267 83.6904 41.3267C83.8031 41.3267 83.9218 41.3166 84.0466 41.2965C84.1754 41.2724 84.272 41.2522 84.3364 41.2361L84.7831 43.3672C84.6422 43.4074 84.443 43.4577 84.1854 43.5181C83.9319 43.5785 83.628 43.6167 83.2739 43.6328C82.5816 43.665 81.988 43.5845 81.493 43.3913C81.002 43.1941 80.6257 42.8882 80.3641 42.4737C80.1065 42.0592 79.9817 41.538 79.9898 40.9101V32.0057ZM86.3195 43.5V31.1364H89.3078V36.0987H94.1796V31.1364H97.1618V43.5H94.1796V38.5316H89.3078V43.5H86.3195ZM105.019 39.4975V34.2273H107.965V43.5H105.152V41.7734H105.055C104.85 42.3409 104.5 42.7917 104.005 43.1257C103.514 43.4557 102.92 43.6207 102.224 43.6207C101.592 43.6207 101.037 43.4758 100.558 43.1861C100.079 42.8963 99.7064 42.4918 99.4408 41.9726C99.1751 41.4494 99.0403 40.8377 99.0363 40.1374V34.2273H101.988V39.5579C101.992 40.061 102.125 40.4574 102.387 40.7471C102.648 41.0369 103.005 41.1818 103.455 41.1818C103.749 41.1818 104.013 41.1174 104.246 40.9886C104.484 40.8558 104.671 40.6646 104.808 40.4151C104.948 40.1616 105.019 39.8557 105.019 39.4975ZM109.844 43.5V31.1364H112.796V35.815H112.856C112.977 35.5333 113.148 35.2616 113.369 35C113.595 34.7384 113.881 34.5251 114.227 34.3601C114.577 34.191 114.995 34.1065 115.482 34.1065C116.126 34.1065 116.728 34.2756 117.287 34.6136C117.851 34.9517 118.306 35.4729 118.652 36.1772C118.998 36.8815 119.171 37.779 119.171 38.8697C119.171 39.9201 119.004 40.7995 118.67 41.5078C118.34 42.2161 117.893 42.7474 117.33 43.1016C116.77 43.4557 116.148 43.6328 115.464 43.6328C114.997 43.6328 114.593 43.5563 114.251 43.4034C113.909 43.2505 113.621 43.0492 113.388 42.7997C113.158 42.5502 112.981 42.2825 112.856 41.9968H112.766V43.5H109.844ZM112.736 38.8636C112.736 39.3627 112.802 39.7973 112.935 40.1676C113.072 40.5379 113.267 40.8256 113.52 41.0309C113.778 41.2321 114.086 41.3327 114.444 41.3327C114.806 41.3327 115.114 41.2321 115.368 41.0309C115.621 40.8256 115.812 40.5379 115.941 40.1676C116.074 39.7973 116.14 39.3627 116.14 38.8636C116.14 38.3646 116.074 37.9319 115.941 37.5657C115.812 37.1994 115.621 36.9157 115.368 36.7145C115.118 36.5132 114.81 36.4126 114.444 36.4126C114.082 36.4126 113.774 36.5112 113.52 36.7084C113.267 36.9056 113.072 37.1874 112.935 37.5536C112.802 37.9199 112.736 38.3565 112.736 38.8636Z" fill="#EFEFEF"/>
</g>
</g>
<rect x="1.05" y="1.05" width="198.9" height="53.9" rx="6.95" stroke="white" stroke-opacity="0.15" stroke-width="2.1"/>
<defs>
<filter id="filter0_d_1_50" x="5.66071" y="2.28571" width="194.053" height="150.428" filterUnits="userSpaceOnUse" color-interpolation-filters="sRGB">
<feFlood flood-opacity="0" result="BackgroundImageFix"/>
<feColorMatrix in="SourceAlpha" type="matrix" values="0 0 0 0 0 0 0 0 0 0 0 0 0 0 0 0 0 0 127 0" result="hardAlpha"/>
<feOffset/>
<feGaussianBlur stdDeviation="2.85714"/>
<feComposite in2="hardAlpha" operator="out"/>
<feColorMatrix type="matrix" values="0 0 0 0 0 0 0 0 0 0 0 0 0 0 0 0 0 0 0.25 0"/>
<feBlend mode="normal" in2="BackgroundImageFix" result="effect1_dropShadow_1_50"/>
<feBlend mode="normal" in="SourceGraphic" in2="effect1_dropShadow_1_50" result="shape"/>
</filter>
<filter id="filter1_d_1_50" x="54.4" y="3.9" width="140.2" height="48.2" filterUnits="userSpaceOnUse" color-interpolation-filters="sRGB">
<feFlood flood-opacity="0" result="BackgroundImageFix"/>
<feColorMatrix in="SourceAlpha" type="matrix" values="0 0 0 0 0 0 0 0 0 0 0 0 0 0 0 0 0 0 127 0" result="hardAlpha"/>
<feOffset/>
<feGaussianBlur stdDeviation="2.8"/>
<feComposite in2="hardAlpha" operator="out"/>
<feColorMatrix type="matrix" values="0 0 0 0 0 0 0 0 0 0 0 0 0 0 0 0 0 0 0.25 0"/>
<feBlend mode="normal" in2="BackgroundImageFix" result="effect1_dropShadow_1_50"/>
<feBlend mode="normal" in="SourceGraphic" in2="effect1_dropShadow_1_50" result="shape"/>
</filter>
<linearGradient id="paint0_linear_1_50" x1="100.5" y1="0" x2="100.5" y2="56" gradientUnits="userSpaceOnUse">
<stop stop-color="#181F29"/>
<stop offset="1" stop-color="#0F131A"/>
</linearGradient>
<clipPath id="clip0_1_50">
<rect width="201" height="56" rx="8" fill="white"/>
</clipPath>
</defs>
</svg>
