<svg width="353" height="40" viewBox="0 0 353 40" fill="none" xmlns="http://www.w3.org/2000/svg">
<rect width="353.001" height="40.0014" rx="8" fill="url(#paint0_linear_1_56)"/>
<rect x="1.07143" y="1.07143" width="350.858" height="37.8585" rx="6.92857" stroke="white" stroke-opacity="0.15" stroke-width="2.14286"/>
<g filter="url(#filter0_d_1_56)">
<path fill-rule="evenodd" clip-rule="evenodd" d="M33.509 12.0265C35.0796 14.2891 36 17.0371 36 20C36 22.9629 35.0796 25.7109 33.509 27.9735L29.8825 24.347C30.5947 23.0583 31 21.5765 31 20C31 18.4235 30.5947 16.9417 29.8825 15.653L33.509 12.0265ZM29.9735 8.49095L26.347 12.1175C25.0583 11.4053 23.5765 11 22 11C17.0294 11 13 15.0294 13 20C13 24.9706 17.0294 29 22 29C23.5765 29 25.0583 28.5947 26.347 27.8825L29.9735 31.509C27.7109 33.0796 24.9629 34 22 34C14.268 34 8 27.732 8 20C8 12.268 14.268 6 22 6C24.9629 6 27.7109 6.92043 29.9735 8.49095Z" fill="#7FADF2"/>
<path fill-rule="evenodd" clip-rule="evenodd" d="M33.5091 12.0265C35.0796 14.2891 36 17.0371 36 20C36 22.9629 35.0796 25.7109 33.5091 27.9735L29.8825 24.347C30.5947 23.0583 31 21.5765 31 20C31 18.4235 30.5947 16.9417 29.8825 15.653L33.5091 12.0265Z" fill="#B8D3F4"/>
</g>
<g filter="url(#filter1_d_1_56)">
<path d="M50.103 17.3849C50.0386 16.8134 49.7729 16.3707 49.3061 16.0568C48.8392 15.7389 48.2516 15.5799 47.5433 15.5799C47.0362 15.5799 46.5975 15.6604 46.2272 15.8214C45.857 15.9783 45.5692 16.1957 45.364 16.4734C45.1627 16.747 45.0621 17.0589 45.0621 17.4091C45.0621 17.7029 45.1305 17.9564 45.2674 18.1697C45.4082 18.383 45.5914 18.5621 45.8167 18.707C46.0461 18.8479 46.2916 18.9666 46.5532 19.0632C46.8148 19.1558 47.0664 19.2322 47.3079 19.2926L48.5152 19.6065C48.9097 19.7031 49.3141 19.8339 49.7287 19.9989C50.1432 20.1639 50.5276 20.3813 50.8817 20.6509C51.2359 20.9206 51.5216 21.2546 51.739 21.653C51.9603 22.0515 52.071 22.5284 52.071 23.0838C52.071 23.7841 51.8899 24.4059 51.5277 24.9492C51.1695 25.4925 50.6483 25.9212 49.9641 26.2351C49.2839 26.549 48.4609 26.706 47.495 26.706C46.5693 26.706 45.7684 26.5591 45.0923 26.2653C44.4162 25.9715 43.8869 25.5549 43.5046 25.0156C43.1223 24.4723 42.911 23.8283 42.8707 23.0838H44.7422C44.7784 23.5305 44.9233 23.9028 45.1768 24.2006C45.4344 24.4944 45.7624 24.7138 46.1608 24.8587C46.5633 24.9995 47.004 25.0699 47.4829 25.0699C48.0102 25.0699 48.479 24.9874 48.8895 24.8224C49.3041 24.6534 49.6301 24.42 49.8675 24.1221C50.105 23.8203 50.2237 23.4681 50.2237 23.0657C50.2237 22.6994 50.1191 22.3996 49.9098 22.1662C49.7045 21.9328 49.4248 21.7396 49.0706 21.5866C48.7205 21.4337 48.3241 21.2989 47.8814 21.1822L46.4204 20.7837C45.4304 20.5141 44.6456 20.1176 44.066 19.5944C43.4905 19.0712 43.2027 18.379 43.2027 17.5177C43.2027 16.8054 43.3959 16.1836 43.7823 15.6523C44.1687 15.1211 44.6919 14.7086 45.3519 14.4148C46.0119 14.1169 46.7565 13.968 47.5856 13.968C48.4227 13.968 49.1612 14.1149 49.8011 14.4087C50.445 14.7025 50.9522 15.107 51.3224 15.6221C51.6927 16.1333 51.8859 16.7209 51.902 17.3849H50.103ZM60.0292 22.6552V17.228H61.8403V26.5007H60.0654V24.8949H59.9688C59.7555 25.3899 59.4134 25.8024 58.9425 26.1324C58.4757 26.4584 57.8941 26.6214 57.1979 26.6214C56.6022 26.6214 56.075 26.4906 55.6162 26.229C55.1614 25.9634 54.8032 25.571 54.5416 25.0518C54.284 24.5327 54.1552 23.8907 54.1552 23.1261V17.228H55.9603V22.9087C55.9603 23.5406 56.1354 24.0437 56.4855 24.418C56.8356 24.7922 57.2904 24.9794 57.8498 24.9794C58.1879 24.9794 58.524 24.8949 58.858 24.7258C59.1961 24.5568 59.4758 24.3012 59.6971 23.9591C59.9225 23.6171 60.0332 23.1824 60.0292 22.6552ZM64.2656 29.978V17.228H66.0284V18.7312H66.1793C66.2839 18.538 66.4349 18.3146 66.6321 18.0611C66.8293 17.8075 67.103 17.5862 67.4531 17.397C67.8032 17.2038 68.2661 17.1072 68.8416 17.1072C69.5902 17.1072 70.2583 17.2964 70.8458 17.6747C71.4334 18.053 71.8943 18.5984 72.2283 19.3107C72.5664 20.0231 72.7354 20.8803 72.7354 21.8824C72.7354 22.8846 72.5684 23.7438 72.2343 24.4602C71.9003 25.1726 71.4415 25.7219 70.8579 26.1083C70.2744 26.4906 69.6083 26.6818 68.8597 26.6818C68.2963 26.6818 67.8354 26.5872 67.4772 26.3981C67.1231 26.2089 66.8454 25.9876 66.6441 25.734C66.4429 25.4805 66.288 25.2551 66.1793 25.0579H66.0706V29.978H64.2656ZM66.0344 21.8643C66.0344 22.5163 66.129 23.0878 66.3182 23.5788C66.5073 24.0698 66.781 24.4542 67.1392 24.7319C67.4974 25.0056 67.936 25.1424 68.4552 25.1424C68.9945 25.1424 69.4453 24.9995 69.8075 24.7138C70.1697 24.424 70.4434 24.0316 70.6285 23.5366C70.8177 23.0415 70.9123 22.4841 70.9123 21.8643C70.9123 21.2526 70.8197 20.7032 70.6346 20.2163C70.4534 19.7293 70.1798 19.3449 69.8135 19.0632C69.4513 18.7815 68.9985 18.6406 68.4552 18.6406C67.932 18.6406 67.4893 18.7754 67.1271 19.0451C66.7689 19.3147 66.4972 19.691 66.3121 20.174C66.127 20.6569 66.0344 21.2204 66.0344 21.8643ZM74.7578 29.978V17.228H76.5206V18.7312H76.6715C76.7761 18.538 76.927 18.3146 77.1243 18.0611C77.3215 17.8075 77.5951 17.5862 77.9453 17.397C78.2954 17.2038 78.7583 17.1072 79.3338 17.1072C80.0824 17.1072 80.7504 17.2964 81.338 17.6747C81.9256 18.053 82.3864 18.5984 82.7205 19.3107C83.0586 20.0231 83.2276 20.8803 83.2276 21.8824C83.2276 22.8846 83.0606 23.7438 82.7265 24.4602C82.3925 25.1726 81.9337 25.7219 81.3501 26.1083C80.7665 26.4906 80.1005 26.6818 79.3519 26.6818C78.7884 26.6818 78.3276 26.5872 77.9694 26.3981C77.6153 26.2089 77.3376 25.9876 77.1363 25.734C76.9351 25.4805 76.7802 25.2551 76.6715 25.0579H76.5628V29.978H74.7578ZM76.5266 21.8643C76.5266 22.5163 76.6212 23.0878 76.8103 23.5788C76.9995 24.0698 77.2732 24.4542 77.6314 24.7319C77.9895 25.0056 78.4282 25.1424 78.9474 25.1424C79.4867 25.1424 79.9375 24.9995 80.2997 24.7138C80.6619 24.424 80.9356 24.0316 81.1207 23.5366C81.3099 23.0415 81.4044 22.4841 81.4044 21.8643C81.4044 21.2526 81.3119 20.7032 81.1267 20.2163C80.9456 19.7293 80.672 19.3449 80.3057 19.0632C79.9435 18.7815 79.4907 18.6406 78.9474 18.6406C78.4242 18.6406 77.9815 18.7754 77.6193 19.0451C77.2611 19.3147 76.9894 19.691 76.8043 20.174C76.6192 20.6569 76.5266 21.2204 76.5266 21.8643ZM89.1559 26.6878C88.2865 26.6878 87.5279 26.4886 86.8799 26.0902C86.232 25.6917 85.7289 25.1343 85.3707 24.418C85.0125 23.7016 84.8334 22.8645 84.8334 21.9066C84.8334 20.9447 85.0125 20.1036 85.3707 19.3832C85.7289 18.6627 86.232 18.1033 86.8799 17.7049C87.5279 17.3065 88.2865 17.1072 89.1559 17.1072C90.0252 17.1072 90.7838 17.3065 91.4318 17.7049C92.0797 18.1033 92.5828 18.6627 92.941 19.3832C93.2992 20.1036 93.4783 20.9447 93.4783 21.9066C93.4783 22.8645 93.2992 23.7016 92.941 24.418C92.5828 25.1343 92.0797 25.6917 91.4318 26.0902C90.7838 26.4886 90.0252 26.6878 89.1559 26.6878ZM89.1619 25.1726C89.7253 25.1726 90.1922 25.0237 90.5625 24.7258C90.9327 24.428 91.2064 24.0316 91.3835 23.5366C91.5646 23.0415 91.6551 22.4962 91.6551 21.9006C91.6551 21.3089 91.5646 20.7656 91.3835 20.2706C91.2064 19.7715 90.9327 19.3711 90.5625 19.0692C90.1922 18.7674 89.7253 18.6165 89.1619 18.6165C88.5944 18.6165 88.1235 18.7674 87.7493 19.0692C87.379 19.3711 87.1033 19.7715 86.9222 20.2706C86.7451 20.7656 86.6566 21.3089 86.6566 21.9006C86.6566 22.4962 86.7451 23.0415 86.9222 23.5366C87.1033 24.0316 87.379 24.428 87.7493 24.7258C88.1235 25.0237 88.5944 25.1726 89.1619 25.1726ZM95.4931 26.5007V17.228H97.2378V18.701H97.3344C97.5034 18.2019 97.8012 17.8095 98.2279 17.5238C98.6585 17.234 99.1455 17.0891 99.6888 17.0891C99.8015 17.0891 99.9343 17.0931 100.087 17.1012C100.244 17.1092 100.367 17.1193 100.455 17.1314V18.8579C100.383 18.8378 100.254 18.8157 100.069 18.7915C99.884 18.7634 99.6989 18.7493 99.5137 18.7493C99.0871 18.7493 98.7068 18.8398 98.3727 19.0209C98.0427 19.198 97.7811 19.4455 97.5879 19.7635C97.3948 20.0774 97.2982 20.4356 97.2982 20.8381V26.5007H95.4931ZM106.894 17.228V18.6768H101.829V17.228H106.894ZM103.187 15.0064H104.992V23.778C104.992 24.1282 105.045 24.3918 105.149 24.5689C105.254 24.7419 105.389 24.8607 105.554 24.9251C105.723 24.9854 105.906 25.0156 106.103 25.0156C106.248 25.0156 106.375 25.0056 106.483 24.9854C106.592 24.9653 106.677 24.9492 106.737 24.9371L107.063 26.4283C106.958 26.4685 106.809 26.5087 106.616 26.549C106.423 26.5933 106.182 26.6174 105.892 26.6214C105.417 26.6295 104.974 26.545 104.564 26.3679C104.153 26.1908 103.821 25.9171 103.568 25.5469C103.314 25.1766 103.187 24.7118 103.187 24.1523V15.0064ZM113.39 26.5007V17.228H115.122V18.7372H115.237C115.43 18.2261 115.746 17.8276 116.185 17.5419C116.623 17.2521 117.149 17.1072 117.76 17.1072C118.38 17.1072 118.899 17.2521 119.318 17.5419C119.74 17.8317 120.052 18.2301 120.254 18.7372H120.35C120.572 18.2422 120.924 17.8478 121.407 17.554C121.89 17.2561 122.465 17.1072 123.133 17.1072C123.974 17.1072 124.661 17.3708 125.192 17.8981C125.727 18.4253 125.995 19.2202 125.995 20.2827V26.5007H124.19V20.4517C124.19 19.8239 124.019 19.3691 123.677 19.0873C123.334 18.8056 122.926 18.6648 122.451 18.6648C121.863 18.6648 121.407 18.8459 121.081 19.2081C120.755 19.5663 120.592 20.0271 120.592 20.5905V26.5007H118.793V20.337C118.793 19.8339 118.636 19.4294 118.322 19.1236C118.008 18.8177 117.599 18.6648 117.096 18.6648C116.754 18.6648 116.438 18.7553 116.148 18.9364C115.863 19.1135 115.631 19.361 115.454 19.679C115.281 19.9969 115.195 20.3652 115.195 20.7837V26.5007H113.39ZM132.41 26.6878C131.497 26.6878 130.71 26.4926 130.05 26.1023C129.394 25.7078 128.887 25.1545 128.529 24.4421C128.175 23.7257 127.997 22.8866 127.997 21.9247C127.997 20.9749 128.175 20.1378 128.529 19.4133C128.887 18.6889 129.386 18.1234 130.026 17.717C130.67 17.3105 131.422 17.1072 132.284 17.1072C132.807 17.1072 133.314 17.1938 133.805 17.3668C134.296 17.5399 134.737 17.8115 135.127 18.1818C135.517 18.5521 135.825 19.033 136.051 19.6246C136.276 20.2122 136.389 20.9266 136.389 21.7677V22.4077H129.018V21.0554H134.62C134.62 20.5805 134.523 20.1599 134.33 19.7937C134.137 19.4234 133.865 19.1316 133.515 18.9183C133.169 18.705 132.763 18.5984 132.296 18.5984C131.789 18.5984 131.346 18.7231 130.968 18.9726C130.593 19.2181 130.304 19.5401 130.098 19.9386C129.897 20.333 129.796 20.7616 129.796 21.2244V22.2809C129.796 22.9007 129.905 23.4279 130.122 23.8626C130.344 24.2972 130.652 24.6292 131.046 24.8587C131.441 25.084 131.901 25.1967 132.429 25.1967C132.771 25.1967 133.083 25.1484 133.364 25.0518C133.646 24.9512 133.89 24.8023 134.095 24.6051C134.3 24.4079 134.457 24.1644 134.566 23.8746L136.274 24.1825C136.137 24.6856 135.892 25.1263 135.538 25.5046C135.187 25.8789 134.747 26.1707 134.216 26.38C133.688 26.5852 133.087 26.6878 132.41 26.6878ZM147.219 17.228V18.6768H142.154V17.228H147.219ZM143.512 15.0064H145.317V23.778C145.317 24.1282 145.37 24.3918 145.474 24.5689C145.579 24.7419 145.714 24.8607 145.879 24.9251C146.048 24.9854 146.231 25.0156 146.428 25.0156C146.573 25.0156 146.7 25.0056 146.809 24.9854C146.917 24.9653 147.002 24.9492 147.062 24.9371L147.388 26.4283C147.283 26.4685 147.135 26.5087 146.941 26.549C146.748 26.5933 146.507 26.6174 146.217 26.6214C145.742 26.6295 145.299 26.545 144.889 26.3679C144.478 26.1908 144.146 25.9171 143.893 25.5469C143.639 25.1766 143.512 24.7118 143.512 24.1523V15.0064ZM151.22 20.995V26.5007H149.415V14.1371H151.196V18.7372H151.311C151.528 18.2382 151.86 17.8417 152.307 17.5479C152.753 17.2541 153.337 17.1072 154.057 17.1072C154.693 17.1072 155.249 17.238 155.724 17.4996C156.203 17.7612 156.573 18.1516 156.834 18.6708C157.1 19.1859 157.233 19.8299 157.233 20.6026V26.5007H155.428V20.8199C155.428 20.1398 155.253 19.6126 154.903 19.2383C154.552 18.86 154.065 18.6708 153.442 18.6708C153.015 18.6708 152.633 18.7614 152.295 18.9425C151.961 19.1236 151.697 19.3892 151.504 19.7393C151.315 20.0855 151.22 20.504 151.22 20.995ZM159.642 26.5007V17.228H161.386V18.701H161.483C161.652 18.2019 161.95 17.8095 162.376 17.5238C162.807 17.234 163.294 17.0891 163.837 17.0891C163.95 17.0891 164.083 17.0931 164.236 17.1012C164.393 17.1092 164.515 17.1193 164.604 17.1314V18.8579C164.531 18.8378 164.403 18.8157 164.218 18.7915C164.032 18.7634 163.847 18.7493 163.662 18.7493C163.236 18.7493 162.855 18.8398 162.521 19.0209C162.191 19.198 161.93 19.4455 161.736 19.7635C161.543 20.0774 161.447 20.4356 161.447 20.8381V26.5007H159.642ZM169.74 26.6878C168.87 26.6878 168.112 26.4886 167.464 26.0902C166.816 25.6917 166.313 25.1343 165.955 24.418C165.596 23.7016 165.417 22.8645 165.417 21.9066C165.417 20.9447 165.596 20.1036 165.955 19.3832C166.313 18.6627 166.816 18.1033 167.464 17.7049C168.112 17.3065 168.87 17.1072 169.74 17.1072C170.609 17.1072 171.368 17.3065 172.016 17.7049C172.664 18.1033 173.167 18.6627 173.525 19.3832C173.883 20.1036 174.062 20.9447 174.062 21.9066C174.062 22.8645 173.883 23.7016 173.525 24.418C173.167 25.1343 172.664 25.6917 172.016 26.0902C171.368 26.4886 170.609 26.6878 169.74 26.6878ZM169.746 25.1726C170.309 25.1726 170.776 25.0237 171.146 24.7258C171.517 24.428 171.79 24.0316 171.967 23.5366C172.149 23.0415 172.239 22.4962 172.239 21.9006C172.239 21.3089 172.149 20.7656 171.967 20.2706C171.79 19.7715 171.517 19.3711 171.146 19.0692C170.776 18.7674 170.309 18.6165 169.746 18.6165C169.178 18.6165 168.708 18.7674 168.333 19.0692C167.963 19.3711 167.687 19.7715 167.506 20.2706C167.329 20.7656 167.241 21.3089 167.241 21.9006C167.241 22.4962 167.329 23.0415 167.506 23.5366C167.687 24.0316 167.963 24.428 168.333 24.7258C168.708 25.0237 169.178 25.1726 169.746 25.1726ZM181.951 22.6552V17.228H183.762V26.5007H181.987V24.8949H181.891C181.677 25.3899 181.335 25.8024 180.864 26.1324C180.398 26.4584 179.816 26.6214 179.12 26.6214C178.524 26.6214 177.997 26.4906 177.538 26.229C177.083 25.9634 176.725 25.571 176.463 25.0518C176.206 24.5327 176.077 23.8907 176.077 23.1261V17.228H177.882V22.9087C177.882 23.5406 178.057 24.0437 178.407 24.418C178.757 24.7922 179.212 24.9794 179.772 24.9794C180.11 24.9794 180.446 24.8949 180.78 24.7258C181.118 24.5568 181.398 24.3012 181.619 23.9591C181.844 23.6171 181.955 23.1824 181.951 22.6552ZM190.075 30.1712C189.339 30.1712 188.705 30.0746 188.174 29.8814C187.646 29.6882 187.216 29.4326 186.882 29.1147C186.548 28.7967 186.298 28.4486 186.133 28.0703L187.685 27.4304C187.793 27.6075 187.938 27.7946 188.119 27.9918C188.304 28.193 188.554 28.3641 188.868 28.505C189.186 28.6458 189.594 28.7163 190.093 28.7163C190.778 28.7163 191.343 28.5492 191.79 28.2152C192.236 27.8852 192.46 27.3579 192.46 26.6335V24.8104H192.345C192.236 25.0076 192.079 25.2269 191.874 25.4684C191.673 25.7099 191.395 25.9191 191.041 26.0962C190.687 26.2733 190.226 26.3618 189.659 26.3618C188.926 26.3618 188.266 26.1908 187.679 25.8487C187.095 25.5026 186.632 24.9935 186.29 24.3214C185.952 23.6452 185.783 22.8141 185.783 21.8281C185.783 20.8421 185.95 19.9969 186.284 19.2926C186.622 18.5883 187.085 18.049 187.673 17.6747C188.26 17.2964 188.926 17.1072 189.671 17.1072C190.246 17.1072 190.711 17.2038 191.065 17.397C191.419 17.5862 191.695 17.8075 191.892 18.0611C192.094 18.3146 192.249 18.538 192.357 18.7312H192.49V17.228H194.259V26.706C194.259 27.5028 194.074 28.1568 193.703 28.668C193.333 29.1791 192.832 29.5574 192.2 29.8029C191.572 30.0484 190.864 30.1712 190.075 30.1712ZM190.057 24.8647C190.576 24.8647 191.015 24.744 191.373 24.5025C191.735 24.257 192.009 23.9068 192.194 23.452C192.383 22.9932 192.478 22.4439 192.478 21.804C192.478 21.1801 192.385 20.6308 192.2 20.1559C192.015 19.681 191.743 19.3107 191.385 19.0451C191.027 18.7754 190.584 18.6406 190.057 18.6406C189.514 18.6406 189.061 18.7815 188.699 19.0632C188.337 19.3409 188.063 19.7192 187.878 20.1981C187.697 20.6771 187.606 21.2123 187.606 21.804C187.606 22.4117 187.699 22.9449 187.884 23.4038C188.069 23.8626 188.343 24.2207 188.705 24.4783C189.071 24.7359 189.522 24.8647 190.057 24.8647ZM198.485 20.995V26.5007H196.68V14.1371H198.461V18.7372H198.575C198.793 18.2382 199.125 17.8417 199.571 17.5479C200.018 17.2541 200.602 17.1072 201.322 17.1072C201.958 17.1072 202.513 17.238 202.988 17.4996C203.467 17.7612 203.837 18.1516 204.099 18.6708C204.365 19.1859 204.497 19.8299 204.497 20.6026V26.5007H202.692V20.8199C202.692 20.1398 202.517 19.6126 202.167 19.2383C201.817 18.86 201.33 18.6708 200.706 18.6708C200.28 18.6708 199.897 18.7614 199.559 18.9425C199.225 19.1236 198.962 19.3892 198.768 19.7393C198.579 20.0855 198.485 20.504 198.485 20.995Z" fill="#E8E8E8"/>
<path d="M222.606 20.3189C222.606 21.6792 222.345 22.8323 221.822 23.778C221.298 24.7238 220.59 25.4422 219.697 25.9332C218.807 26.4242 217.809 26.6697 216.702 26.6697C215.592 26.6697 214.591 26.4222 213.702 25.9272C212.813 25.4322 212.106 24.7138 211.583 23.772C211.064 22.8262 210.804 21.6752 210.804 20.3189C210.804 18.9586 211.064 17.8055 211.583 16.8597C212.106 15.9139 212.813 15.1955 213.702 14.7045C214.591 14.2135 215.592 13.968 216.702 13.968C217.809 13.968 218.807 14.2135 219.697 14.7045C220.59 15.1955 221.298 15.9139 221.822 16.8597C222.345 17.8055 222.606 18.9586 222.606 20.3189ZM219.552 20.3189C219.552 19.514 219.437 18.8338 219.208 18.2784C218.982 17.723 218.656 17.3024 218.23 17.0167C217.807 16.7309 217.298 16.5881 216.702 16.5881C216.111 16.5881 215.602 16.7309 215.175 17.0167C214.748 17.3024 214.42 17.723 214.191 18.2784C213.966 18.8338 213.853 19.514 213.853 20.3189C213.853 21.1238 213.966 21.804 214.191 22.3594C214.42 22.9148 214.748 23.3353 215.175 23.6211C215.602 23.9068 216.111 24.0497 216.702 24.0497C217.298 24.0497 217.807 23.9068 218.23 23.6211C218.656 23.3353 218.982 22.9148 219.208 22.3594C219.437 21.804 219.552 21.1238 219.552 20.3189ZM224.351 29.978V17.228H227.273V18.8157H227.364C227.484 18.534 227.655 18.2623 227.877 18.0007C228.102 17.7391 228.388 17.5258 228.734 17.3608C229.084 17.1918 229.503 17.1072 229.99 17.1072C230.634 17.1072 231.235 17.2763 231.795 17.6143C232.358 17.9524 232.813 18.4736 233.159 19.1779C233.505 19.8822 233.678 20.7797 233.678 21.8704C233.678 22.9208 233.511 23.8002 233.177 24.5085C232.847 25.2168 232.4 25.7481 231.837 26.1023C231.277 26.4564 230.656 26.6335 229.972 26.6335C229.505 26.6335 229.1 26.557 228.758 26.4041C228.416 26.2512 228.128 26.0499 227.895 25.8004C227.665 25.5509 227.488 25.2832 227.364 24.9975H227.303V29.978H224.351ZM227.243 21.8643C227.243 22.3634 227.309 22.798 227.442 23.1683C227.579 23.5386 227.774 23.8263 228.028 24.0316C228.285 24.2328 228.593 24.3334 228.951 24.3334C229.313 24.3334 229.621 24.2328 229.875 24.0316C230.128 23.8263 230.32 23.5386 230.448 23.1683C230.581 22.798 230.648 22.3634 230.648 21.8643C230.648 21.3653 230.581 20.9326 230.448 20.5664C230.32 20.2002 230.128 19.9164 229.875 19.7152C229.625 19.514 229.318 19.4133 228.951 19.4133C228.589 19.4133 228.281 19.5119 228.028 19.7092C227.774 19.9064 227.579 20.1881 227.442 20.5543C227.309 20.9206 227.243 21.3572 227.243 21.8643ZM239.56 26.6758C238.59 26.6758 237.753 26.4846 237.048 26.1023C236.348 25.7159 235.809 25.1665 235.43 24.4542C235.056 23.7378 234.869 22.8866 234.869 21.9006C234.869 20.9427 235.058 20.1056 235.436 19.3892C235.815 18.6688 236.348 18.1094 237.036 17.7109C237.724 17.3085 238.535 17.1072 239.469 17.1072C240.129 17.1072 240.733 17.2099 241.28 17.4151C241.828 17.6204 242.3 17.9242 242.699 18.3267C243.097 18.7292 243.407 19.2262 243.629 19.8178C243.85 20.4054 243.961 21.0795 243.961 21.8402V22.5767H235.901V20.8622H241.214C241.21 20.5483 241.135 20.2686 240.99 20.0231C240.846 19.7776 240.646 19.5864 240.393 19.4496C240.143 19.3087 239.855 19.2383 239.529 19.2383C239.199 19.2383 238.904 19.3127 238.642 19.4616C238.38 19.6065 238.173 19.8057 238.02 20.0593C237.867 20.3088 237.787 20.5926 237.779 20.9105V22.6552C237.779 23.0335 237.853 23.3655 238.002 23.6513C238.151 23.933 238.362 24.1523 238.636 24.3093C238.91 24.4663 239.236 24.5447 239.614 24.5447C239.876 24.5447 240.113 24.5085 240.326 24.4361C240.54 24.3636 240.723 24.257 240.876 24.1161C241.029 23.9752 241.143 23.8022 241.22 23.5969L243.93 23.6754C243.818 24.2831 243.57 24.8124 243.188 25.2631C242.81 25.7099 242.313 26.058 241.697 26.3075C241.081 26.553 240.369 26.6758 239.56 26.6758ZM248.42 21.2123V26.5007H245.468V17.228H248.275V18.9304H248.378C248.583 18.3629 248.934 17.9182 249.429 17.5962C249.924 17.2702 250.513 17.1072 251.197 17.1072C251.849 17.1072 252.415 17.2541 252.894 17.5479C253.377 17.8377 253.751 18.2442 254.017 18.7674C254.286 19.2866 254.419 19.8943 254.415 20.5905V26.5007H251.463V21.1701C251.467 20.6549 251.336 20.2525 251.071 19.9627C250.809 19.6729 250.445 19.528 249.978 19.528C249.668 19.528 249.394 19.5965 249.157 19.7333C248.923 19.8661 248.742 20.0573 248.614 20.3068C248.489 20.5563 248.424 20.8582 248.42 21.2123ZM271.118 18.6165H268.099C268.059 18.3066 267.976 18.0269 267.852 17.7773C267.727 17.5278 267.562 17.3145 267.357 17.1374C267.151 16.9603 266.908 16.8255 266.626 16.7329C266.349 16.6364 266.041 16.5881 265.703 16.5881C265.103 16.5881 264.586 16.735 264.151 17.0288C263.72 17.3226 263.388 17.7471 263.155 18.3025C262.926 18.8579 262.811 19.5301 262.811 20.3189C262.811 21.1399 262.928 21.8281 263.161 22.3835C263.398 22.9349 263.731 23.3514 264.157 23.6332C264.588 23.9109 265.097 24.0497 265.684 24.0497C266.014 24.0497 266.314 24.0074 266.584 23.9229C266.858 23.8384 267.097 23.7157 267.302 23.5547C267.512 23.3897 267.683 23.1904 267.816 22.957C267.952 22.7196 268.047 22.4519 268.099 22.1541L271.118 22.1722C271.065 22.7196 270.906 23.2589 270.641 23.7901C270.379 24.3214 270.019 24.8063 269.56 25.245C269.101 25.6797 268.542 26.0258 267.882 26.2834C267.226 26.5409 266.473 26.6697 265.624 26.6697C264.505 26.6697 263.503 26.4242 262.618 25.9332C261.736 25.4382 261.04 24.7178 260.529 23.772C260.018 22.8262 259.762 21.6752 259.762 20.3189C259.762 18.9586 260.022 17.8055 260.541 16.8597C261.06 15.9139 261.762 15.1955 262.648 14.7045C263.533 14.2135 264.525 13.968 265.624 13.968C266.373 13.968 267.065 14.0727 267.701 14.282C268.337 14.4872 268.896 14.7891 269.379 15.1875C269.862 15.5819 270.254 16.0669 270.556 16.6424C270.858 17.2179 271.045 17.8759 271.118 18.6165ZM277.156 26.6758C276.182 26.6758 275.345 26.4765 274.645 26.0781C273.949 25.6756 273.411 25.1162 273.033 24.3998C272.659 23.6794 272.471 22.8443 272.471 21.8945C272.471 20.9407 272.659 20.1056 273.033 19.3892C273.411 18.6688 273.949 18.1094 274.645 17.7109C275.345 17.3085 276.182 17.1072 277.156 17.1072C278.13 17.1072 278.965 17.3085 279.661 17.7109C280.362 18.1094 280.899 18.6688 281.273 19.3892C281.652 20.1056 281.841 20.9407 281.841 21.8945C281.841 22.8443 281.652 23.6794 281.273 24.3998C280.899 25.1162 280.362 25.6756 279.661 26.0781C278.965 26.4765 278.13 26.6758 277.156 26.6758ZM277.174 24.4481C277.528 24.4481 277.828 24.3395 278.074 24.1221C278.319 23.9048 278.506 23.603 278.635 23.2166C278.768 22.8302 278.834 22.3835 278.834 21.8764C278.834 21.3613 278.768 20.9105 278.635 20.5241C278.506 20.1378 278.319 19.8359 278.074 19.6186C277.828 19.4013 277.528 19.2926 277.174 19.2926C276.808 19.2926 276.498 19.4013 276.245 19.6186C275.995 19.8359 275.804 20.1378 275.671 20.5241C275.542 20.9105 275.478 21.3613 275.478 21.8764C275.478 22.3835 275.542 22.8302 275.671 23.2166C275.804 23.603 275.995 23.9048 276.245 24.1221C276.498 24.3395 276.808 24.4481 277.174 24.4481ZM286.305 14.1371V26.5007H283.353V14.1371H286.305ZM291.136 14.1371V26.5007H288.184V14.1371H291.136ZM297.35 26.6758C296.38 26.6758 295.543 26.4846 294.838 26.1023C294.138 25.7159 293.599 25.1665 293.22 24.4542C292.846 23.7378 292.659 22.8866 292.659 21.9006C292.659 20.9427 292.848 20.1056 293.226 19.3892C293.605 18.6688 294.138 18.1094 294.826 17.7109C295.514 17.3085 296.325 17.1072 297.259 17.1072C297.919 17.1072 298.523 17.2099 299.07 17.4151C299.618 17.6204 300.09 17.9242 300.489 18.3267C300.887 18.7292 301.197 19.2262 301.419 19.8178C301.64 20.4054 301.751 21.0795 301.751 21.8402V22.5767H293.691V20.8622H299.004C299 20.5483 298.925 20.2686 298.78 20.0231C298.636 19.7776 298.436 19.5864 298.183 19.4496C297.933 19.3087 297.645 19.2383 297.319 19.2383C296.989 19.2383 296.694 19.3127 296.432 19.4616C296.17 19.6065 295.963 19.8057 295.81 20.0593C295.657 20.3088 295.577 20.5926 295.569 20.9105V22.6552C295.569 23.0335 295.643 23.3655 295.792 23.6513C295.941 23.933 296.152 24.1523 296.426 24.3093C296.7 24.4663 297.026 24.5447 297.404 24.5447C297.666 24.5447 297.903 24.5085 298.116 24.4361C298.33 24.3636 298.513 24.257 298.666 24.1161C298.819 23.9752 298.933 23.8022 299.01 23.5969L301.72 23.6754C301.608 24.2831 301.36 24.8124 300.978 25.2631C300.6 25.7099 300.103 26.058 299.487 26.3075C298.871 26.553 298.159 26.6758 297.35 26.6758ZM307.587 26.6758C306.609 26.6758 305.77 26.4745 305.069 26.0721C304.373 25.6696 303.838 25.1102 303.464 24.3938C303.089 23.6734 302.902 22.8403 302.902 21.8945C302.902 20.9447 303.089 20.1116 303.464 19.3952C303.842 18.6748 304.379 18.1134 305.075 17.7109C305.776 17.3085 306.611 17.1072 307.581 17.1072C308.438 17.1072 309.185 17.2622 309.82 17.5721C310.46 17.882 310.959 18.3207 311.318 18.8881C311.68 19.4516 311.871 20.1136 311.891 20.8743H309.132C309.076 20.3994 308.915 20.0271 308.649 19.7574C308.388 19.4878 308.046 19.353 307.623 19.353C307.281 19.353 306.981 19.4496 306.724 19.6427C306.466 19.8319 306.265 20.1136 306.12 20.4879C305.979 20.8582 305.909 21.317 305.909 21.8643C305.909 22.4117 305.979 22.8745 306.12 23.2528C306.265 23.6271 306.466 23.9109 306.724 24.104C306.981 24.2932 307.281 24.3878 307.623 24.3878C307.897 24.3878 308.138 24.3294 308.347 24.2127C308.561 24.096 308.736 23.9249 308.873 23.6996C309.01 23.4702 309.096 23.1925 309.132 22.8665H311.891C311.863 23.6311 311.672 24.2992 311.318 24.8707C310.967 25.4422 310.474 25.8869 309.839 26.2049C309.207 26.5188 308.456 26.6758 307.587 26.6758ZM318.636 17.228V19.4013H312.786V17.228H318.636ZM314.012 15.0064H316.964V23.5849C316.964 23.766 316.992 23.9129 317.048 24.0256C317.109 24.1342 317.195 24.2127 317.308 24.261C317.42 24.3053 317.555 24.3274 317.712 24.3274C317.825 24.3274 317.944 24.3173 318.068 24.2972C318.197 24.2731 318.294 24.2529 318.358 24.2368L318.805 26.3679C318.664 26.4081 318.465 26.4584 318.207 26.5188C317.954 26.5792 317.65 26.6174 317.296 26.6335C316.603 26.6657 316.01 26.5852 315.515 26.392C315.024 26.1948 314.648 25.889 314.386 25.4744C314.128 25.0599 314.004 24.5387 314.012 23.9109V15.0064ZM320.142 26.5007V17.228H323.094V26.5007H320.142ZM321.621 16.1474C321.207 16.1474 320.85 16.0105 320.553 15.7369C320.255 15.4592 320.106 15.1251 320.106 14.7347C320.106 14.3484 320.255 14.0183 320.553 13.7447C320.85 13.467 321.207 13.3281 321.621 13.3281C322.04 13.3281 322.396 13.467 322.69 13.7447C322.988 14.0183 323.136 14.3484 323.136 14.7347C323.136 15.1251 322.988 15.4592 322.69 15.7369C322.396 16.0105 322.04 16.1474 321.621 16.1474ZM333.968 17.228L330.787 26.5007H327.406L324.231 17.228H327.34L329.048 23.615H329.145L330.859 17.228H333.968ZM339.136 26.6758C338.166 26.6758 337.329 26.4846 336.624 26.1023C335.924 25.7159 335.385 25.1665 335.007 24.4542C334.632 23.7378 334.445 22.8866 334.445 21.9006C334.445 20.9427 334.634 20.1056 335.013 19.3892C335.391 18.6688 335.924 18.1094 336.612 17.7109C337.301 17.3085 338.112 17.1072 339.045 17.1072C339.705 17.1072 340.309 17.2099 340.856 17.4151C341.404 17.6204 341.877 17.9242 342.275 18.3267C342.673 18.7292 342.983 19.2262 343.205 19.8178C343.426 20.4054 343.537 21.0795 343.537 21.8402V22.5767H335.477V20.8622H340.79C340.786 20.5483 340.711 20.2686 340.567 20.0231C340.422 19.7776 340.222 19.5864 339.969 19.4496C339.719 19.3087 339.432 19.2383 339.106 19.2383C338.776 19.2383 338.48 19.3127 338.218 19.4616C337.957 19.6065 337.749 19.8057 337.596 20.0593C337.443 20.3088 337.363 20.5926 337.355 20.9105V22.6552C337.355 23.0335 337.429 23.3655 337.578 23.6513C337.727 23.933 337.938 24.1523 338.212 24.3093C338.486 24.4663 338.812 24.5447 339.19 24.5447C339.452 24.5447 339.689 24.5085 339.902 24.4361C340.116 24.3636 340.299 24.257 340.452 24.1161C340.605 23.9752 340.719 23.8022 340.796 23.5969L343.507 23.6754C343.394 24.2831 343.146 24.8124 342.764 25.2631C342.386 25.7099 341.889 26.058 341.273 26.3075C340.657 26.553 339.945 26.6758 339.136 26.6758Z" fill="#7FADF2"/>
</g>
<defs>
<filter id="filter0_d_1_56" x="2.39972" y="0.39972" width="39.202" height="39.202" filterUnits="userSpaceOnUse" color-interpolation-filters="sRGB">
<feFlood flood-opacity="0" result="BackgroundImageFix"/>
<feColorMatrix in="SourceAlpha" type="matrix" values="0 0 0 0 0 0 0 0 0 0 0 0 0 0 0 0 0 0 127 0" result="hardAlpha"/>
<feOffset/>
<feGaussianBlur stdDeviation="2.80014"/>
<feComposite in2="hardAlpha" operator="out"/>
<feColorMatrix type="matrix" values="0 0 0 0 0 0 0 0 0 0 0 0 0 0 0 0 0 0 0.25 0"/>
<feBlend mode="normal" in2="BackgroundImageFix" result="effect1_dropShadow_1_56"/>
<feBlend mode="normal" in="SourceGraphic" in2="effect1_dropShadow_1_56" result="shape"/>
</filter>
<filter id="filter1_d_1_56" x="36.2871" y="3.78642" width="314.428" height="32.4286" filterUnits="userSpaceOnUse" color-interpolation-filters="sRGB">
<feFlood flood-opacity="0" result="BackgroundImageFix"/>
<feColorMatrix in="SourceAlpha" type="matrix" values="0 0 0 0 0 0 0 0 0 0 0 0 0 0 0 0 0 0 127 0" result="hardAlpha"/>
<feOffset/>
<feGaussianBlur stdDeviation="2.85714"/>
<feComposite in2="hardAlpha" operator="out"/>
<feColorMatrix type="matrix" values="0 0 0 0 0 0 0 0 0 0 0 0 0 0 0 0 0 0 0.25 0"/>
<feBlend mode="normal" in2="BackgroundImageFix" result="effect1_dropShadow_1_56"/>
<feBlend mode="normal" in="SourceGraphic" in2="effect1_dropShadow_1_56" result="shape"/>
</filter>
<linearGradient id="paint0_linear_1_56" x1="176.501" y1="0" x2="176.501" y2="40.0014" gradientUnits="userSpaceOnUse">
<stop stop-color="#445A7A"/>
<stop offset="0.9982" stop-color="#222D3D"/>
<stop offset="0.9983" stop-color="#346725"/>
<stop offset="0.9984" stop-color="#161616"/>
</linearGradient>
</defs>
</svg>
