<svg width="56" height="56" viewBox="0 0 56 56" fill="none" xmlns="http://www.w3.org/2000/svg">
<rect width="56" height="56" rx="8.4" fill="url(#paint0_linear_1_62)"/>
<rect x="1.05" y="1.05" width="53.9" height="53.9" rx="7.35" stroke="white" stroke-opacity="0.15" stroke-width="2.1"/>
<g filter="url(#filter0_d_1_62)">
<path fill-rule="evenodd" clip-rule="evenodd" d="M44.4415 16.6093C46.6851 19.8416 48 23.7672 48 28C48 32.2328 46.6851 36.1584 44.4415 39.3907L39.2607 34.21C40.2781 32.3691 40.8571 30.2522 40.8571 28C40.8571 25.7478 40.2781 23.6309 39.2607 21.79L44.4415 16.6093ZM39.3907 11.5585L34.21 16.7393C32.3691 15.7219 30.2522 15.1429 28 15.1429C20.8992 15.1429 15.1429 20.8992 15.1429 28C15.1429 35.1008 20.8992 40.8571 28 40.8571C30.2522 40.8571 32.3691 40.2781 34.21 39.2607L39.3907 44.4415C36.1584 46.6851 32.2328 48 28 48C16.9543 48 8 39.0457 8 28C8 16.9543 16.9543 8 28 8C32.2328 8 36.1584 9.3149 39.3907 11.5585Z" fill="#7FADF2"/>
<path fill-rule="evenodd" clip-rule="evenodd" d="M44.4415 16.6093C46.6851 19.8416 48 23.7673 48 28C48 32.2328 46.6851 36.1584 44.4415 39.3907L39.2607 34.21C40.2781 32.3691 40.8572 30.2522 40.8572 28C40.8572 25.7478 40.2781 23.6309 39.2607 21.7901L44.4415 16.6093Z" fill="#B8D3F4"/>
</g>
<defs>
<filter id="filter0_d_1_62" x="2.28571" y="2.28571" width="51.4286" height="51.4286" filterUnits="userSpaceOnUse" color-interpolation-filters="sRGB">
<feFlood flood-opacity="0" result="BackgroundImageFix"/>
<feColorMatrix in="SourceAlpha" type="matrix" values="0 0 0 0 0 0 0 0 0 0 0 0 0 0 0 0 0 0 127 0" result="hardAlpha"/>
<feOffset/>
<feGaussianBlur stdDeviation="2.85714"/>
<feComposite in2="hardAlpha" operator="out"/>
<feColorMatrix type="matrix" values="0 0 0 0 0 0 0 0 0 0 0 0 0 0 0 0 0 0 0.25 0"/>
<feBlend mode="normal" in2="BackgroundImageFix" result="effect1_dropShadow_1_62"/>
<feBlend mode="normal" in="SourceGraphic" in2="effect1_dropShadow_1_62" result="shape"/>
</filter>
<linearGradient id="paint0_linear_1_62" x1="28" y1="0" x2="28" y2="56" gradientUnits="userSpaceOnUse">
<stop stop-color="#445A7A"/>
<stop offset="0.9977" stop-color="#222D3D"/>
<stop offset="0.9978" stop-color="#346725"/>
<stop offset="0.9979" stop-color="#161616"/>
<stop offset="0.998" stop-color="#1A1711"/>
<stop offset="0.9981" stop-color="#352329"/>
<stop offset="0.9982" stop-color="#20332E"/>
<stop offset="0.9983" stop-color="#161616"/>
<stop offset="0.9984" stop-color="#254D6B"/>
</linearGradient>
</defs>
</svg>
