<svg width="173" height="40" viewBox="0 0 173 40" fill="none" xmlns="http://www.w3.org/2000/svg">
<rect width="173.001" height="40.0014" rx="8" fill="url(#paint0_linear_1_56)"/>
<rect x="1.07143" y="1.07143" width="170.859" height="37.8585" rx="6.92857" stroke="white" stroke-opacity="0.15" stroke-width="2.14286"/>
<g filter="url(#filter0_d_1_56)">
<path d="M36 12.3955C36 12.3955 26.6667 5.52755 19.4465 7.11245L18.9182 7.28855C17.8616 7.64076 16.9811 8.16906 16.4528 8.87346L16.1006 9.40176L13.4591 13.9804L18.0377 14.8609C19.9748 16.0936 22.4403 16.6219 24.7296 16.0936L32.8302 17.6785L36 12.3955Z" fill="#76B3E1"/>
<path opacity="0.3" d="M36 12.3955C36 12.3955 26.6667 5.52755 19.4465 7.11245L18.9182 7.28855C17.8616 7.64076 16.9811 8.16906 16.4528 8.87346L16.1006 9.40176L13.4591 13.9804L18.0377 14.8609C19.9748 16.0936 22.4403 16.6219 24.7296 16.0936L32.8302 17.6785L36 12.3955Z" fill="url(#paint1_linear_1_56)"/>
<path d="M16.4528 12.3955L15.7484 12.5716C12.7547 13.4521 11.8742 16.2697 13.4591 18.7351C15.2201 21.0244 18.9182 22.2571 21.9119 21.3766L32.8302 17.6785C32.8302 17.6785 23.4968 10.8106 16.4528 12.3955Z" fill="#518AC8"/>
<path opacity="0.3" d="M16.4528 12.3955L15.7484 12.5716C12.7547 13.4521 11.8742 16.2697 13.4591 18.7351C15.2201 21.0244 18.9182 22.2571 21.9119 21.3766L32.8302 17.6785C32.8302 17.6785 23.4968 10.8106 16.4528 12.3955Z" fill="url(#paint2_linear_1_56)"/>
<path d="M30.8931 20.32C29.9072 19.0883 28.576 18.1789 27.0701 17.7083C25.5642 17.2377 23.9521 17.2273 22.4403 17.6785L11.522 21.2005L8 27.364L27.7233 30.7099L31.2453 24.3703C31.9497 23.1376 31.7736 21.7288 30.8931 20.32Z" fill="url(#paint3_linear_1_56)"/>
<path d="M27.3711 26.4835C26.3851 25.2518 25.054 24.3424 23.5481 23.8718C22.0422 23.4012 20.4301 23.3908 18.9182 23.842L8 27.364C8 27.364 17.3333 34.4081 24.5535 32.647L25.0818 32.4709C28.0755 31.5904 29.1321 28.7728 27.3711 26.4835Z" fill="url(#paint4_linear_1_56)"/>
</g>
<g filter="url(#filter1_d_1_56)">
<path d="M43.3597 26.5007V14.1371H47.8874C48.7648 14.1371 49.4912 14.282 50.0667 14.5717C50.6423 14.8575 51.0729 15.2458 51.3586 15.7369C51.6444 16.2238 51.7873 16.7732 51.7873 17.3849C51.7873 17.9001 51.6927 18.3347 51.5035 18.6889C51.3144 19.0391 51.0608 19.3208 50.7429 19.5341C50.429 19.7434 50.0828 19.8963 49.7045 19.9929V20.1136C50.115 20.1337 50.5155 20.2666 50.9059 20.5121C51.3003 20.7535 51.6263 21.0976 51.8839 21.5444C52.1414 21.9911 52.2702 22.5344 52.2702 23.1743C52.2702 23.8062 52.1213 24.3737 51.8235 24.8768C51.5297 25.3758 51.0749 25.7722 50.4591 26.066C49.8434 26.3558 49.0566 26.5007 48.0987 26.5007H43.3597ZM45.2251 24.9009H47.9176C48.8111 24.9009 49.451 24.7279 49.8373 24.3817C50.2237 24.0356 50.4169 23.603 50.4169 23.0838C50.4169 22.6934 50.3183 22.3352 50.1211 22.0092C49.9239 21.6832 49.6421 21.4236 49.2759 21.2305C48.9137 21.0373 48.483 20.9407 47.984 20.9407H45.2251V24.9009ZM45.2251 19.4858H47.7244C48.143 19.4858 48.5193 19.4053 48.8533 19.2443C49.1914 19.0833 49.459 18.8579 49.6562 18.5682C49.8575 18.2744 49.9581 17.9283 49.9581 17.5298C49.9581 17.0187 49.779 16.5901 49.4208 16.244C49.0626 15.8978 48.5132 15.7248 47.7727 15.7248H45.2251V19.4858ZM60.2118 22.6552V17.228H62.0229V26.5007H60.248V24.8949H60.1514C59.9381 25.3899 59.596 25.8024 59.1251 26.1324C58.6583 26.4584 58.0767 26.6214 57.3805 26.6214C56.7848 26.6214 56.2576 26.4906 55.7988 26.229C55.344 25.9634 54.9858 25.571 54.7242 25.0518C54.4667 24.5327 54.3379 23.8907 54.3379 23.1261V17.228H56.1429V22.9087C56.1429 23.5406 56.318 24.0437 56.6681 24.418C57.0183 24.7922 57.473 24.9794 58.0325 24.9794C58.3705 24.9794 58.7066 24.8949 59.0406 24.7258C59.3787 24.5568 59.6584 24.3012 59.8798 23.9591C60.1051 23.6171 60.2158 23.1824 60.2118 22.6552ZM64.4482 26.5007V17.228H66.2533V26.5007H64.4482ZM65.3598 15.7972C65.0459 15.7972 64.7762 15.6926 64.5508 15.4833C64.3295 15.27 64.2188 15.0164 64.2188 14.7226C64.2188 14.4248 64.3295 14.1713 64.5508 13.962C64.7762 13.7487 65.0459 13.642 65.3598 13.642C65.6737 13.642 65.9413 13.7487 66.1627 13.962C66.3881 14.1713 66.5008 14.4248 66.5008 14.7226C66.5008 15.0164 66.3881 15.27 66.1627 15.4833C65.9413 15.6926 65.6737 15.7972 65.3598 15.7972ZM70.4867 14.1371V26.5007H68.6816V14.1371H70.4867ZM77.2435 17.228V18.6768H72.1785V17.228H77.2435ZM73.5368 15.0064H75.3419V23.778C75.3419 24.1282 75.3942 24.3918 75.4988 24.5689C75.6035 24.7419 75.7383 24.8607 75.9033 24.9251C76.0723 24.9854 76.2554 25.0156 76.4526 25.0156C76.5975 25.0156 76.7243 25.0056 76.833 24.9854C76.9416 24.9653 77.0262 24.9492 77.0865 24.9371L77.4125 26.4283C77.3079 26.4685 77.159 26.5087 76.9658 26.549C76.7726 26.5933 76.5311 26.6174 76.2414 26.6214C75.7664 26.6295 75.3237 26.545 74.9132 26.3679C74.5027 26.1908 74.1707 25.9171 73.9171 25.5469C73.6636 25.1766 73.5368 24.7118 73.5368 24.1523V15.0064ZM85.7495 26.5007L83.0208 17.228H84.8862L86.7034 24.0376H86.7939L88.6171 17.228H90.4825L92.2936 24.0074H92.3841L94.1891 17.228H96.0546L93.3319 26.5007H91.4906L89.6071 19.8057H89.4683L87.5847 26.5007H85.7495ZM97.7675 26.5007V17.228H99.5726V26.5007H97.7675ZM98.6791 15.7972C98.3652 15.7972 98.0955 15.6926 97.8702 15.4833C97.6488 15.27 97.5381 15.0164 97.5381 14.7226C97.5381 14.4248 97.6488 14.1713 97.8702 13.962C98.0955 13.7487 98.3652 13.642 98.6791 13.642C98.993 13.642 99.2607 13.7487 99.482 13.962C99.7074 14.1713 99.8201 14.4248 99.8201 14.7226C99.8201 15.0164 99.7074 15.27 99.482 15.4833C99.2607 15.6926 98.993 15.7972 98.6791 15.7972ZM106.329 17.228V18.6768H101.264V17.228H106.329ZM102.623 15.0064H104.428V23.778C104.428 24.1282 104.48 24.3918 104.585 24.5689C104.689 24.7419 104.824 24.8607 104.989 24.9251C105.158 24.9854 105.341 25.0156 105.539 25.0156C105.683 25.0156 105.81 25.0056 105.919 24.9854C106.028 24.9653 106.112 24.9492 106.172 24.9371L106.498 26.4283C106.394 26.4685 106.245 26.5087 106.052 26.549C105.859 26.5933 105.617 26.6174 105.327 26.6214C104.852 26.6295 104.41 26.545 103.999 26.3679C103.589 26.1908 103.257 25.9171 103.003 25.5469C102.75 25.1766 102.623 24.7118 102.623 24.1523V15.0064ZM110.33 20.995V26.5007H108.525V14.1371H110.306V18.7372H110.421C110.638 18.2382 110.97 17.8417 111.417 17.5479C111.864 17.2541 112.447 17.1072 113.168 17.1072C113.804 17.1072 114.359 17.238 114.834 17.4996C115.313 17.7612 115.683 18.1516 115.945 18.6708C116.21 19.1859 116.343 19.8299 116.343 20.6026V26.5007H114.538V20.8199C114.538 20.1398 114.363 19.6126 114.013 19.2383C113.663 18.86 113.176 18.6708 112.552 18.6708C112.125 18.6708 111.743 18.7614 111.405 18.9425C111.071 19.1236 110.807 19.3892 110.614 19.7393C110.425 20.0855 110.33 20.504 110.33 20.995Z" fill="#E8E8E8"/>
<path d="M129.62 17.3437C129.58 16.901 129.401 16.5569 129.083 16.3114C128.769 16.0619 128.32 15.9371 127.736 15.9371C127.35 15.9371 127.028 15.9874 126.771 16.0881C126.513 16.1887 126.32 16.3275 126.191 16.5046C126.062 16.6777 125.996 16.8769 125.992 17.1023C125.984 17.2874 126.02 17.4504 126.1 17.5913C126.185 17.7321 126.306 17.8569 126.463 17.9655C126.624 18.0702 126.817 18.1627 127.042 18.2432C127.268 18.3237 127.521 18.3942 127.803 18.4545L128.865 18.696C129.477 18.8288 130.016 19.0059 130.483 19.2273C130.954 19.4486 131.349 19.7122 131.666 20.0181C131.988 20.324 132.232 20.6761 132.397 21.0746C132.562 21.473 132.646 21.9197 132.651 22.4148C132.646 23.1955 132.449 23.8656 132.059 24.4251C131.669 24.9845 131.107 25.4131 130.375 25.7109C129.646 26.0087 128.767 26.1577 127.736 26.1577C126.702 26.1577 125.801 26.0027 125.032 25.6928C124.263 25.3829 123.666 24.912 123.239 24.2802C122.812 23.6483 122.593 22.8494 122.581 21.8835H125.442C125.467 22.2819 125.573 22.614 125.762 22.8796C125.952 23.1452 126.211 23.3465 126.541 23.4833C126.875 23.6201 127.262 23.6886 127.7 23.6886C128.103 23.6886 128.445 23.6342 128.727 23.5256C129.012 23.4169 129.232 23.266 129.385 23.0728C129.537 22.8796 129.616 22.6583 129.62 22.4087C129.616 22.1753 129.544 21.9761 129.403 21.8111C129.262 21.642 129.044 21.4971 128.751 21.3764C128.461 21.2516 128.091 21.1369 127.64 21.0323L126.348 20.7305C125.277 20.485 124.434 20.0885 123.818 19.5412C123.203 18.9898 122.897 18.2453 122.901 17.3075C122.897 16.5428 123.102 15.8727 123.517 15.2972C123.931 14.7217 124.505 14.273 125.237 13.951C125.97 13.629 126.805 13.468 127.742 13.468C128.7 13.468 129.531 13.631 130.236 13.957C130.944 14.279 131.493 14.7318 131.884 15.3153C132.274 15.8989 132.473 16.575 132.481 17.3437H129.62ZM138.488 26.1758C137.514 26.1758 136.677 25.9765 135.977 25.5781C135.281 25.1757 134.743 24.6162 134.365 23.8998C133.991 23.1794 133.804 22.3443 133.804 21.3945C133.804 20.4407 133.991 19.6056 134.365 18.8892C134.743 18.1688 135.281 17.6094 135.977 17.2109C136.677 16.8085 137.514 16.6072 138.488 16.6072C139.462 16.6072 140.297 16.8085 140.994 17.2109C141.694 17.6094 142.231 18.1688 142.605 18.8892C142.984 19.6056 143.173 20.4407 143.173 21.3945C143.173 22.3443 142.984 23.1794 142.605 23.8998C142.231 24.6162 141.694 25.1757 140.994 25.5781C140.297 25.9765 139.462 26.1758 138.488 26.1758ZM138.506 23.9481C138.861 23.9481 139.16 23.8395 139.406 23.6221C139.651 23.4048 139.838 23.103 139.967 22.7166C140.1 22.3302 140.166 21.8835 140.166 21.3764C140.166 20.8613 140.1 20.4105 139.967 20.0241C139.838 19.6378 139.651 19.3359 139.406 19.1186C139.16 18.9013 138.861 18.7926 138.506 18.7926C138.14 18.7926 137.83 18.9013 137.577 19.1186C137.327 19.3359 137.136 19.6378 137.003 20.0241C136.874 20.4105 136.81 20.8613 136.81 21.3764C136.81 21.8835 136.874 22.3302 137.003 22.7166C137.136 23.103 137.327 23.4048 137.577 23.6221C137.83 23.8395 138.14 23.9481 138.506 23.9481ZM147.637 13.6371V26.0007H144.685V13.6371H147.637ZM149.516 26.0007V16.728H152.468V26.0007H149.516ZM150.995 15.6474C150.581 15.6474 150.225 15.5105 149.927 15.2369C149.629 14.9592 149.48 14.6251 149.48 14.2347C149.48 13.8484 149.629 13.5183 149.927 13.2447C150.225 12.967 150.581 12.8281 150.995 12.8281C151.414 12.8281 151.77 12.967 152.064 13.2447C152.362 13.5183 152.511 13.8484 152.511 14.2347C152.511 14.6251 152.362 14.9592 152.064 15.2369C151.77 15.5105 151.414 15.6474 150.995 15.6474ZM157.734 26.1335C157.05 26.1335 156.428 25.9564 155.869 25.6023C155.309 25.2481 154.862 24.7168 154.528 24.0085C154.194 23.3002 154.027 22.4208 154.027 21.3704C154.027 20.2797 154.2 19.3822 154.546 18.6779C154.893 17.9736 155.345 17.4524 155.905 17.1143C156.468 16.7763 157.074 16.6072 157.722 16.6072C158.209 16.6072 158.625 16.6918 158.972 16.8608C159.318 17.0258 159.603 17.2391 159.829 17.5007C160.054 17.7623 160.225 18.034 160.342 18.3157H160.402V13.6371H163.354V26.0007H160.432V24.4975H160.342C160.217 24.7832 160.04 25.0509 159.811 25.3004C159.581 25.5499 159.294 25.7512 158.947 25.9041C158.605 26.057 158.201 26.1335 157.734 26.1335ZM158.76 23.8334C159.118 23.8334 159.424 23.7328 159.678 23.5316C159.931 23.3263 160.127 23.0386 160.263 22.6683C160.4 22.298 160.469 21.8634 160.469 21.3643C160.469 20.8572 160.4 20.4206 160.263 20.0543C160.131 19.6881 159.935 19.4064 159.678 19.2092C159.424 19.0119 159.118 18.9133 158.76 18.9133C158.394 18.9133 158.084 19.014 157.831 19.2152C157.577 19.4164 157.384 19.7002 157.251 20.0664C157.122 20.4326 157.058 20.8653 157.058 21.3643C157.058 21.8634 157.124 22.298 157.257 22.6683C157.39 23.0386 157.581 23.3263 157.831 23.5316C158.084 23.7328 158.394 23.8334 158.76 23.8334Z" fill="#7496C3"/>
</g>
<defs>
<filter id="filter0_d_1_56" x="2.39972" y="0.39972" width="39.202" height="39.202" filterUnits="userSpaceOnUse" color-interpolation-filters="sRGB">
<feFlood flood-opacity="0" result="BackgroundImageFix"/>
<feColorMatrix in="SourceAlpha" type="matrix" values="0 0 0 0 0 0 0 0 0 0 0 0 0 0 0 0 0 0 127 0" result="hardAlpha"/>
<feOffset/>
<feGaussianBlur stdDeviation="2.80014"/>
<feComposite in2="hardAlpha" operator="out"/>
<feColorMatrix type="matrix" values="0 0 0 0 0 0 0 0 0 0 0 0 0 0 0 0 0 0 0.25 0"/>
<feBlend mode="normal" in2="BackgroundImageFix" result="effect1_dropShadow_1_56"/>
<feBlend mode="normal" in="SourceGraphic" in2="effect1_dropShadow_1_56" result="shape"/>
</filter>
<filter id="filter1_d_1_56" x="36.2871" y="3.78642" width="134.429" height="32.4286" filterUnits="userSpaceOnUse" color-interpolation-filters="sRGB">
<feFlood flood-opacity="0" result="BackgroundImageFix"/>
<feColorMatrix in="SourceAlpha" type="matrix" values="0 0 0 0 0 0 0 0 0 0 0 0 0 0 0 0 0 0 127 0" result="hardAlpha"/>
<feOffset/>
<feGaussianBlur stdDeviation="2.85714"/>
<feComposite in2="hardAlpha" operator="out"/>
<feColorMatrix type="matrix" values="0 0 0 0 0 0 0 0 0 0 0 0 0 0 0 0 0 0 0.25 0"/>
<feBlend mode="normal" in2="BackgroundImageFix" result="effect1_dropShadow_1_56"/>
<feBlend mode="normal" in="SourceGraphic" in2="effect1_dropShadow_1_56" result="shape"/>
</filter>
<linearGradient id="paint0_linear_1_56" x1="86.5007" y1="0" x2="86.5007" y2="40.0014" gradientUnits="userSpaceOnUse">
<stop stop-color="#20344C"/>
<stop offset="1" stop-color="#162232"/>
</linearGradient>
<linearGradient id="paint1_linear_1_56" x1="12.1384" y1="6.76025" x2="34.0629" y2="17.4143" gradientUnits="userSpaceOnUse">
<stop offset="0.1" stop-color="#76B3E1"/>
<stop offset="0.3" stop-color="#DCF2FD"/>
<stop offset="1" stop-color="#76B3E1"/>
</linearGradient>
<linearGradient id="paint2_linear_1_56" x1="24.166" y1="11.9728" x2="20.327" y2="24.7577" gradientUnits="userSpaceOnUse">
<stop stop-color="#76B3E1"/>
<stop offset="0.5" stop-color="#4377BB"/>
<stop offset="1" stop-color="#1F3B77"/>
</linearGradient>
<linearGradient id="paint3_linear_1_56" x1="10.5358" y1="17.5376" x2="32.7069" y2="32.6118" gradientUnits="userSpaceOnUse">
<stop stop-color="#315AA9"/>
<stop offset="0.5" stop-color="#518AC8"/>
<stop offset="1" stop-color="#315AA9"/>
</linearGradient>
<linearGradient id="paint4_linear_1_56" x1="20.5384" y1="19.3515" x2="11.5925" y2="52.159" gradientUnits="userSpaceOnUse">
<stop stop-color="#4377BB"/>
<stop offset="0.5" stop-color="#1A336B"/>
<stop offset="1" stop-color="#1A336B"/>
</linearGradient>
</defs>
</svg>
