<svg width="144" height="56" viewBox="0 0 144 56" fill="none" xmlns="http://www.w3.org/2000/svg">
<rect width="144" height="56" rx="8" fill="url(#paint0_linear_1_50)"/>
<rect x="1.05" y="1.05" width="141.9" height="53.9" rx="6.95" stroke="white" stroke-opacity="0.15" stroke-width="2.1"/>
<g filter="url(#filter0_d_1_50)">
<path d="M52 17.1364C52 17.1364 38.6667 7.32507 28.3522 9.58922L27.5975 9.84079C26.0881 10.3439 24.8302 11.0987 24.0755 12.1049L23.5723 12.8597L19.7987 19.4005L26.3396 20.6584C29.1069 22.4194 32.6289 23.1741 35.8994 22.4194L47.4717 24.6836L52 17.1364Z" fill="#76B3E1"/>
<path opacity="0.3" d="M52 17.1364C52 17.1364 38.6667 7.32507 28.3522 9.58922L27.5975 9.84079C26.0881 10.3439 24.8302 11.0987 24.0755 12.1049L23.5723 12.8597L19.7987 19.4005L26.3396 20.6584C29.1069 22.4194 32.6289 23.1741 35.8994 22.4194L47.4717 24.6836L52 17.1364Z" fill="url(#paint1_linear_1_50)"/>
<path d="M24.0755 17.1364L23.0692 17.388C18.7924 18.6458 17.5346 22.671 19.7987 26.193C22.3145 29.4634 27.5975 31.2244 31.8742 29.9666L47.4717 24.6836C47.4717 24.6836 34.1384 14.8722 24.0755 17.1364Z" fill="#518AC8"/>
<path opacity="0.3" d="M24.0755 17.1364L23.0692 17.388C18.7924 18.6458 17.5346 22.671 19.7987 26.193C22.3145 29.4634 27.5975 31.2244 31.8742 29.9666L47.4717 24.6836C47.4717 24.6836 34.1384 14.8722 24.0755 17.1364Z" fill="url(#paint2_linear_1_50)"/>
<path d="M44.7044 28.4571C43.2959 26.6975 41.3943 25.3984 39.243 24.7261C37.0917 24.0538 34.7887 24.039 32.6289 24.6836L17.0314 29.715L12 38.52L40.1761 43.2999L45.2075 34.2433C46.2138 32.4823 45.9623 30.4697 44.7044 28.4571Z" fill="url(#paint3_linear_1_50)"/>
<path d="M39.673 37.2622C38.2645 35.5026 36.3628 34.2034 34.2115 33.5312C32.0602 32.8589 29.7573 32.8441 27.5975 33.4886L12 38.52C12 38.52 25.3333 48.5829 35.6478 46.0672L36.4025 45.8156C40.6792 44.5578 42.1887 40.5326 39.673 37.2622Z" fill="url(#paint4_linear_1_50)"/>
</g>
<g filter="url(#filter1_d_1_50)">
<path d="M61.2784 24.5V12.8636H65.5398C66.3655 12.8636 67.0492 13 67.5909 13.2727C68.1326 13.5417 68.5379 13.9072 68.8068 14.3693C69.0757 14.8276 69.2102 15.3447 69.2102 15.9204C69.2102 16.4053 69.1212 16.8144 68.9432 17.1477C68.7651 17.4773 68.5265 17.7424 68.2273 17.9432C67.9318 18.1401 67.606 18.2841 67.25 18.375V18.4886C67.6363 18.5076 68.0132 18.6326 68.3807 18.8636C68.7519 19.0909 69.0587 19.4148 69.3011 19.8352C69.5435 20.2557 69.6648 20.767 69.6648 21.3693C69.6648 21.964 69.5246 22.4981 69.2443 22.9716C68.9678 23.4413 68.5398 23.8144 67.9602 24.0909C67.3807 24.3636 66.6401 24.5 65.7386 24.5H61.2784ZM63.0341 22.9943H65.5682C66.4091 22.9943 67.0113 22.8314 67.375 22.5057C67.7386 22.1799 67.9204 21.7727 67.9204 21.2841C67.9204 20.9167 67.8276 20.5795 67.642 20.2727C67.4564 19.9659 67.1913 19.7216 66.8466 19.5398C66.5057 19.3579 66.1004 19.267 65.6307 19.267H63.0341V22.9943ZM63.0341 17.8977H65.3863C65.7803 17.8977 66.1345 17.822 66.4488 17.6704C66.767 17.5189 67.0189 17.3068 67.2045 17.0341C67.3939 16.7576 67.4886 16.4318 67.4886 16.0568C67.4886 15.5758 67.3201 15.1723 66.9829 14.8466C66.6458 14.5208 66.1288 14.3579 65.4318 14.3579H63.0341V17.8977ZM77.1392 20.8807V15.7727H78.8437V24.5H77.1733V22.9886H77.0824C76.8816 23.4545 76.5596 23.8428 76.1165 24.1534C75.6771 24.4602 75.1297 24.6136 74.4744 24.6136C73.9138 24.6136 73.4176 24.4905 72.9858 24.2443C72.5577 23.9943 72.2206 23.625 71.9744 23.1364C71.732 22.6477 71.6108 22.0436 71.6108 21.3239V15.7727H73.3096V21.1193C73.3096 21.714 73.4744 22.1875 73.804 22.5398C74.1335 22.892 74.5615 23.0682 75.088 23.0682C75.4062 23.0682 75.7225 22.9886 76.0369 22.8295C76.3551 22.6704 76.6184 22.4299 76.8267 22.1079C77.0388 21.786 77.143 21.3769 77.1392 20.8807ZM81.1264 24.5V15.7727H82.8253V24.5H81.1264ZM81.9844 14.4261C81.6889 14.4261 81.4351 14.3276 81.223 14.1307C81.0147 13.9299 80.9105 13.6913 80.9105 13.4148C80.9105 13.1345 81.0147 12.8958 81.223 12.6989C81.4351 12.4981 81.6889 12.3977 81.9844 12.3977C82.2798 12.3977 82.5317 12.4981 82.74 12.6989C82.9522 12.8958 83.0582 13.1345 83.0582 13.4148C83.0582 13.6913 82.9522 13.9299 82.74 14.1307C82.5317 14.3276 82.2798 14.4261 81.9844 14.4261ZM86.8096 12.8636V24.5H85.1108V12.8636H86.8096ZM93.169 15.7727V17.1364H88.402V15.7727H93.169ZM89.6804 13.6818H91.3792V21.9375C91.3792 22.267 91.4285 22.5151 91.527 22.6818C91.6254 22.8447 91.7523 22.9564 91.9076 23.017C92.0667 23.0739 92.2391 23.1023 92.4247 23.1023C92.5611 23.1023 92.6804 23.0928 92.7826 23.0739C92.8849 23.0549 92.9645 23.0398 93.0213 23.0284L93.3281 24.4318C93.2296 24.4697 93.0895 24.5076 92.9076 24.5454C92.7258 24.5871 92.4986 24.6098 92.2258 24.6136C91.7789 24.6212 91.3622 24.5417 90.9758 24.375C90.5895 24.2083 90.277 23.9508 90.0383 23.6023C89.7997 23.2538 89.6804 22.8163 89.6804 22.2898V13.6818ZM101.175 24.5L98.6065 15.7727H100.362L102.072 22.1818H102.158L103.874 15.7727H105.629L107.334 22.1534H107.419L109.118 15.7727H110.874L108.311 24.5H106.578L104.805 18.1989H104.675L102.902 24.5H101.175ZM112.486 24.5V15.7727H114.185V24.5H112.486ZM113.344 14.4261C113.048 14.4261 112.794 14.3276 112.582 14.1307C112.374 13.9299 112.27 13.6913 112.27 13.4148C112.27 13.1345 112.374 12.8958 112.582 12.6989C112.794 12.4981 113.048 12.3977 113.344 12.3977C113.639 12.3977 113.891 12.4981 114.099 12.6989C114.312 12.8958 114.418 13.1345 114.418 13.4148C114.418 13.6913 114.312 13.9299 114.099 14.1307C113.891 14.3276 113.639 14.4261 113.344 14.4261ZM120.544 15.7727V17.1364H115.777V15.7727H120.544ZM117.055 13.6818H118.754V21.9375C118.754 22.267 118.803 22.5151 118.902 22.6818C119 22.8447 119.127 22.9564 119.283 23.017C119.442 23.0739 119.614 23.1023 119.8 23.1023C119.936 23.1023 120.055 23.0928 120.158 23.0739C120.26 23.0549 120.339 23.0398 120.396 23.0284L120.703 24.4318C120.605 24.4697 120.464 24.5076 120.283 24.5454C120.101 24.5871 119.874 24.6098 119.601 24.6136C119.154 24.6212 118.737 24.5417 118.351 24.375C117.964 24.2083 117.652 23.9508 117.413 23.6023C117.175 23.2538 117.055 22.8163 117.055 22.2898V13.6818ZM124.31 19.3182V24.5H122.611V12.8636H124.287V17.1932H124.395C124.599 16.7235 124.912 16.3504 125.332 16.0739C125.753 15.7973 126.302 15.6591 126.98 15.6591C127.579 15.6591 128.101 15.7822 128.548 16.0284C128.999 16.2746 129.348 16.642 129.594 17.1307C129.844 17.6155 129.969 18.2216 129.969 18.9489V24.5H128.27V19.1534C128.27 18.5133 128.105 18.017 127.776 17.6648C127.446 17.3087 126.988 17.1307 126.401 17.1307C125.999 17.1307 125.639 17.2159 125.321 17.3864C125.007 17.5568 124.758 17.8068 124.577 18.1364C124.399 18.4621 124.31 18.8561 124.31 19.3182Z" fill="#E8E8E8"/>
<path d="M67.6186 34.843C67.5783 34.4003 67.3992 34.0562 67.0813 33.8107C66.7674 33.5612 66.3186 33.4364 65.7351 33.4364C65.3487 33.4364 65.0267 33.4867 64.7692 33.5873C64.5116 33.688 64.3184 33.8268 64.1896 34.0039C64.0608 34.177 63.9944 34.3762 63.9904 34.6016C63.9823 34.7867 64.0186 34.9497 64.0991 35.0905C64.1836 35.2314 64.3043 35.3562 64.4613 35.4648C64.6223 35.5695 64.8154 35.662 65.0408 35.7425C65.2662 35.823 65.5198 35.8935 65.8015 35.9538L66.864 36.1953C67.4757 36.3281 68.015 36.5052 68.4819 36.7266C68.9528 36.9479 69.3472 37.2115 69.6651 37.5174C69.9871 37.8233 70.2306 38.1754 70.3956 38.5739C70.5606 38.9723 70.6451 39.419 70.6491 39.9141C70.6451 40.6948 70.4479 41.3649 70.0575 41.9243C69.6671 42.4838 69.1057 42.9124 68.3732 43.2102C67.6448 43.508 66.7654 43.6569 65.7351 43.6569C64.7007 43.6569 63.7992 43.502 63.0305 43.1921C62.2618 42.8822 61.6642 42.4113 61.2376 41.7795C60.8109 41.1476 60.5916 40.3487 60.5795 39.3828H63.441C63.4652 39.7812 63.5718 40.1133 63.761 40.3789C63.9501 40.6445 64.2097 40.8458 64.5398 40.9826C64.8738 41.1194 65.2602 41.1878 65.6988 41.1878C66.1013 41.1878 66.4434 41.1335 66.7251 41.0248C67.0109 40.9162 67.2302 40.7653 67.3832 40.5721C67.5361 40.3789 67.6146 40.1575 67.6186 39.908C67.6146 39.6746 67.5421 39.4754 67.4013 39.3104C67.2604 39.1413 67.0431 38.9964 66.7493 38.8757C66.4595 38.7509 66.0892 38.6362 65.6385 38.5316L64.3466 38.2297C63.276 37.9842 62.4329 37.5878 61.8171 37.0405C61.2013 36.4891 60.8955 35.7445 60.8995 34.8068C60.8955 34.0421 61.1007 33.372 61.5153 32.7965C61.9298 32.221 62.5033 31.7722 63.2358 31.4503C63.9683 31.1283 64.8034 30.9673 65.7411 30.9673C66.699 30.9673 67.53 31.1303 68.2344 31.4563C68.9427 31.7783 69.4921 32.2311 69.8824 32.8146C70.2728 33.3982 70.472 34.0743 70.4801 34.843H67.6186ZM76.4868 43.6751C75.5129 43.6751 74.6758 43.4758 73.9755 43.0774C73.2792 42.6749 72.7419 42.1155 72.3636 41.3991C71.9893 40.6787 71.8022 39.8436 71.8022 38.8938C71.8022 37.94 71.9893 37.1049 72.3636 36.3885C72.7419 35.6681 73.2792 35.1087 73.9755 34.7102C74.6758 34.3078 75.5129 34.1065 76.4868 34.1065C77.4608 34.1065 78.2959 34.3078 78.9922 34.7102C79.6925 35.1087 80.2297 35.6681 80.604 36.3885C80.9823 37.1049 81.1715 37.94 81.1715 38.8938C81.1715 39.8436 80.9823 40.6787 80.604 41.3991C80.2297 42.1155 79.6925 42.6749 78.9922 43.0774C78.2959 43.4758 77.4608 43.6751 76.4868 43.6751ZM76.505 41.4474C76.8591 41.4474 77.159 41.3388 77.4045 41.1214C77.65 40.9041 77.8371 40.6023 77.9659 40.2159C78.0987 39.8295 78.1651 39.3828 78.1651 38.8757C78.1651 38.3605 78.0987 37.9098 77.9659 37.5234C77.8371 37.1371 77.65 36.8352 77.4045 36.6179C77.159 36.4006 76.8591 36.2919 76.505 36.2919C76.1387 36.2919 75.8288 36.4006 75.5753 36.6179C75.3257 36.8352 75.1346 37.1371 75.0018 37.5234C74.873 37.9098 74.8086 38.3605 74.8086 38.8757C74.8086 39.3828 74.873 39.8295 75.0018 40.2159C75.1346 40.6023 75.3257 40.9041 75.5753 41.1214C75.8288 41.3388 76.1387 41.4474 76.505 41.4474ZM85.6358 31.1364V43.5H82.6837V31.1364H85.6358ZM87.5148 43.5V34.2273H90.4669V43.5H87.5148ZM88.9939 33.1467C88.5793 33.1467 88.2231 33.0098 87.9253 32.7361C87.6275 32.4584 87.4786 32.1244 87.4786 31.734C87.4786 31.3476 87.6275 31.0176 87.9253 30.744C88.2231 30.4663 88.5793 30.3274 88.9939 30.3274C89.4124 30.3274 89.7686 30.4663 90.0624 30.744C90.3602 31.0176 90.5091 31.3476 90.5091 31.734C90.5091 32.1244 90.3602 32.4584 90.0624 32.7361C89.7686 33.0098 89.4124 33.1467 88.9939 33.1467ZM95.7326 43.6328C95.0484 43.6328 94.4266 43.4557 93.8672 43.1016C93.3077 42.7474 92.861 42.2161 92.527 41.5078C92.1929 40.7995 92.0259 39.9201 92.0259 38.8697C92.0259 37.779 92.199 36.8815 92.5451 36.1772C92.8912 35.4729 93.344 34.9517 93.9034 34.6136C94.4668 34.2756 95.0725 34.1065 95.7205 34.1065C96.2075 34.1065 96.624 34.191 96.9701 34.3601C97.3163 34.5251 97.602 34.7384 97.8274 35C98.0528 35.2616 98.2238 35.5333 98.3405 35.815H98.4009V31.1364H101.353V43.5H98.4311V41.9968H98.3405C98.2158 42.2825 98.0387 42.5502 97.8093 42.7997C97.5799 43.0492 97.2921 43.2505 96.946 43.4034C96.6039 43.5563 96.1994 43.6328 95.7326 43.6328ZM96.7589 41.3327C97.117 41.3327 97.4229 41.2321 97.6765 41.0309C97.93 40.8256 98.1252 40.5379 98.262 40.1676C98.3989 39.7973 98.4673 39.3627 98.4673 38.8636C98.4673 38.3565 98.3989 37.9199 98.262 37.5536C98.1292 37.1874 97.934 36.9056 97.6765 36.7084C97.4229 36.5112 97.117 36.4126 96.7589 36.4126C96.3926 36.4126 96.0827 36.5132 95.8292 36.7145C95.5756 36.9157 95.3824 37.1994 95.2496 37.5657C95.1208 37.9319 95.0564 38.3646 95.0564 38.8636C95.0564 39.3627 95.1228 39.7973 95.2557 40.1676C95.3885 40.5379 95.5796 40.8256 95.8292 41.0309C96.0827 41.2321 96.3926 41.3327 96.7589 41.3327Z" fill="#7496C3"/>
</g>
<defs>
<filter id="filter0_d_1_50" x="6.28571" y="2.28571" width="51.4286" height="51.4286" filterUnits="userSpaceOnUse" color-interpolation-filters="sRGB">
<feFlood flood-opacity="0" result="BackgroundImageFix"/>
<feColorMatrix in="SourceAlpha" type="matrix" values="0 0 0 0 0 0 0 0 0 0 0 0 0 0 0 0 0 0 127 0" result="hardAlpha"/>
<feOffset/>
<feGaussianBlur stdDeviation="2.85714"/>
<feComposite in2="hardAlpha" operator="out"/>
<feColorMatrix type="matrix" values="0 0 0 0 0 0 0 0 0 0 0 0 0 0 0 0 0 0 0.25 0"/>
<feBlend mode="normal" in2="BackgroundImageFix" result="effect1_dropShadow_1_50"/>
<feBlend mode="normal" in="SourceGraphic" in2="effect1_dropShadow_1_50" result="shape"/>
</filter>
<filter id="filter1_d_1_50" x="54.4" y="3.9" width="83.2" height="48.2" filterUnits="userSpaceOnUse" color-interpolation-filters="sRGB">
<feFlood flood-opacity="0" result="BackgroundImageFix"/>
<feColorMatrix in="SourceAlpha" type="matrix" values="0 0 0 0 0 0 0 0 0 0 0 0 0 0 0 0 0 0 127 0" result="hardAlpha"/>
<feOffset/>
<feGaussianBlur stdDeviation="2.8"/>
<feComposite in2="hardAlpha" operator="out"/>
<feColorMatrix type="matrix" values="0 0 0 0 0 0 0 0 0 0 0 0 0 0 0 0 0 0 0.25 0"/>
<feBlend mode="normal" in2="BackgroundImageFix" result="effect1_dropShadow_1_50"/>
<feBlend mode="normal" in="SourceGraphic" in2="effect1_dropShadow_1_50" result="shape"/>
</filter>
<linearGradient id="paint0_linear_1_50" x1="72" y1="0" x2="72" y2="56" gradientUnits="userSpaceOnUse">
<stop stop-color="#20344C"/>
<stop offset="1" stop-color="#162232"/>
</linearGradient>
<linearGradient id="paint1_linear_1_50" x1="17.912" y1="9.08607" x2="49.2327" y2="24.3062" gradientUnits="userSpaceOnUse">
<stop offset="0.1" stop-color="#76B3E1"/>
<stop offset="0.3" stop-color="#DCF2FD"/>
<stop offset="1" stop-color="#76B3E1"/>
</linearGradient>
<linearGradient id="paint2_linear_1_50" x1="35.0943" y1="16.5326" x2="29.6101" y2="34.7968" gradientUnits="userSpaceOnUse">
<stop stop-color="#76B3E1"/>
<stop offset="0.5" stop-color="#4377BB"/>
<stop offset="1" stop-color="#1F3B77"/>
</linearGradient>
<linearGradient id="paint3_linear_1_50" x1="15.6226" y1="24.4823" x2="47.2956" y2="46.0169" gradientUnits="userSpaceOnUse">
<stop stop-color="#315AA9"/>
<stop offset="0.5" stop-color="#518AC8"/>
<stop offset="1" stop-color="#315AA9"/>
</linearGradient>
<linearGradient id="paint4_linear_1_50" x1="29.912" y1="27.0735" x2="17.1321" y2="73.9414" gradientUnits="userSpaceOnUse">
<stop stop-color="#4377BB"/>
<stop offset="0.5" stop-color="#1A336B"/>
<stop offset="1" stop-color="#1A336B"/>
</linearGradient>
</defs>
</svg>
