<svg width="206" height="40" viewBox="0 0 206 40" fill="none" xmlns="http://www.w3.org/2000/svg">
<rect width="206.001" height="40.0014" rx="8" fill="url(#paint0_linear_1_56)"/>
<rect x="1.07143" y="1.07143" width="203.858" height="37.8585" rx="6.92857" stroke="white" stroke-opacity="0.15" stroke-width="2.14286"/>
<g filter="url(#filter0_d_1_56)">
<path fill-rule="evenodd" clip-rule="evenodd" d="M28.6142 31.2762C26.0404 31.2762 23.9536 29.1892 23.9536 26.6151C23.9536 24.0422 26.0404 21.9541 28.6142 21.9541C31.188 21.9541 33.2747 24.0422 33.2747 26.6151C33.2747 29.1892 31.188 31.2762 28.6142 31.2762ZM19.3175 20.5931C17.7084 20.5931 16.4046 19.288 16.4046 17.6799C16.4046 16.0707 17.7084 14.7668 19.3175 14.7668C20.9266 14.7668 22.2303 16.0707 22.2303 17.6799C22.2303 19.288 20.9266 20.5931 19.3175 20.5931ZM28.8204 11.4994H21.0419C17.0781 11.4994 13.8623 14.7155 13.8623 18.6809V26.459C13.8623 30.4255 17.0781 33.6393 21.0419 33.6393H28.8204C32.7865 33.6393 36 30.4255 36 26.459V18.6809C36 14.7155 32.7865 11.4994 28.8204 11.4994Z" fill="white"/>
<mask id="mask0_1_56" style="mask-type:luminance" maskUnits="userSpaceOnUse" x="8" y="6" width="5" height="6">
<path d="M8 8.76749V6.4375H12.6606V11.0975H8V8.76749Z" fill="white"/>
</mask>
<g mask="url(#mask0_1_56)">
<path fill-rule="evenodd" clip-rule="evenodd" d="M12.6606 8.76697C12.6606 10.0546 11.6166 11.0975 10.3303 11.0975C9.0428 11.0975 8 10.0546 8 8.76697C8 7.48053 9.0428 6.43645 10.3303 6.43645C11.6166 6.43645 12.6606 7.48053 12.6606 8.76697Z" fill="white"/>
</g>
</g>
<g filter="url(#filter1_d_1_56)">
<path d="M44.4041 26.5007H42.424L46.8732 14.1371H49.0284L53.4776 26.5007H51.4975L48.0021 16.3828H47.9055L44.4041 26.5007ZM44.7361 21.6591H51.1594V23.2287H44.7361V21.6591ZM61.8886 17.228L58.526 26.5007H56.5942L53.2256 17.228H55.1634L57.5118 24.3636H57.6084L59.9507 17.228H61.8886ZM66.0178 26.706C65.4302 26.706 64.899 26.5973 64.4241 26.38C63.9492 26.1586 63.5729 25.8386 63.2952 25.4201C63.0215 25.0015 62.8846 24.4884 62.8846 23.8807C62.8846 23.3575 62.9853 22.9268 63.1865 22.5888C63.3877 22.2507 63.6594 21.9831 64.0015 21.7859C64.3436 21.5886 64.7259 21.4397 65.1485 21.3391C65.5711 21.2385 66.0017 21.162 66.4404 21.1097C66.9958 21.0453 67.4466 20.993 67.7927 20.9528C68.1388 20.9085 68.3903 20.8381 68.5473 20.7415C68.7042 20.6449 68.7827 20.4879 68.7827 20.2706V20.2283C68.7827 19.7011 68.6338 19.2926 68.336 19.0028C68.0422 18.7131 67.6035 18.5682 67.0199 18.5682C66.4122 18.5682 65.9333 18.703 65.5832 18.9726C65.237 19.2383 64.9976 19.5341 64.8648 19.8601L63.1684 19.4737C63.3696 18.9103 63.6634 18.4555 64.0498 18.1094C64.4402 17.7592 64.8889 17.5057 65.396 17.3487C65.9031 17.1877 66.4364 17.1072 66.9958 17.1072C67.3661 17.1072 67.7585 17.1515 68.173 17.24C68.5916 17.3246 68.9819 17.4815 69.3442 17.7109C69.7104 17.9403 70.0102 18.2683 70.2437 18.6949C70.4771 19.1175 70.5938 19.6669 70.5938 20.343V26.5007H68.831V25.2329H68.7586C68.6419 25.4664 68.4668 25.6958 68.2334 25.9212C67.9999 26.1465 67.7001 26.3337 67.3339 26.4826C66.9676 26.6315 66.5289 26.706 66.0178 26.706ZM66.4102 25.2571C66.9093 25.2571 67.3359 25.1585 67.69 24.9613C68.0482 24.7641 68.3199 24.5065 68.505 24.1886C68.6942 23.8666 68.7888 23.5225 68.7888 23.1562V21.9609C68.7244 22.0253 68.5996 22.0857 68.4145 22.142C68.2334 22.1944 68.0261 22.2406 67.7927 22.2809C67.5592 22.3171 67.3319 22.3513 67.1105 22.3835C66.8891 22.4117 66.704 22.4358 66.5551 22.456C66.205 22.5002 65.885 22.5747 65.5952 22.6793C65.3095 22.784 65.0801 22.9349 64.907 23.1321C64.738 23.3253 64.6535 23.5828 64.6535 23.9048C64.6535 24.3515 64.8185 24.6896 65.1485 24.919C65.4785 25.1444 65.8991 25.2571 66.4102 25.2571ZM72.998 26.5007V17.228H74.8031V26.5007H72.998ZM73.9096 15.7972C73.5957 15.7972 73.326 15.6926 73.1006 15.4833C72.8793 15.27 72.7686 15.0164 72.7686 14.7226C72.7686 14.4248 72.8793 14.1713 73.1006 13.962C73.326 13.7487 73.5957 13.642 73.9096 13.642C74.2235 13.642 74.4911 13.7487 74.7125 13.962C74.9379 14.1713 75.0506 14.4248 75.0506 14.7226C75.0506 15.0164 74.9379 15.27 74.7125 15.4833C74.4911 15.6926 74.2235 15.7972 73.9096 15.7972ZM79.0365 14.1371V26.5007H77.2314V14.1371H79.0365ZM84.1633 26.706C83.5757 26.706 83.0445 26.5973 82.5696 26.38C82.0947 26.1586 81.7184 25.8386 81.4407 25.4201C81.167 25.0015 81.0301 24.4884 81.0301 23.8807C81.0301 23.3575 81.1308 22.9268 81.332 22.5888C81.5332 22.2507 81.8049 21.9831 82.147 21.7859C82.4891 21.5886 82.8714 21.4397 83.294 21.3391C83.7166 21.2385 84.1472 21.162 84.5859 21.1097C85.1413 21.0453 85.5921 20.993 85.9382 20.9528C86.2843 20.9085 86.5358 20.8381 86.6928 20.7415C86.8497 20.6449 86.9282 20.4879 86.9282 20.2706V20.2283C86.9282 19.7011 86.7793 19.2926 86.4815 19.0028C86.1877 18.7131 85.749 18.5682 85.1654 18.5682C84.5577 18.5682 84.0788 18.703 83.7287 18.9726C83.3825 19.2383 83.1431 19.5341 83.0103 19.8601L81.3139 19.4737C81.5151 18.9103 81.8089 18.4555 82.1953 18.1094C82.5857 17.7592 83.0344 17.5057 83.5415 17.3487C84.0486 17.1877 84.5819 17.1072 85.1413 17.1072C85.5116 17.1072 85.904 17.1515 86.3185 17.24C86.7371 17.3246 87.1274 17.4815 87.4897 17.7109C87.8559 17.9403 88.1557 18.2683 88.3892 18.6949C88.6226 19.1175 88.7393 19.6669 88.7393 20.343V26.5007H86.9765V25.2329H86.9041C86.7874 25.4664 86.6123 25.6958 86.3789 25.9212C86.1454 26.1465 85.8456 26.3337 85.4794 26.4826C85.1131 26.6315 84.6744 26.706 84.1633 26.706ZM84.5557 25.2571C85.0548 25.2571 85.4814 25.1585 85.8355 24.9613C86.1937 24.7641 86.4654 24.5065 86.6505 24.1886C86.8397 23.8666 86.9343 23.5225 86.9343 23.1562V21.9609C86.8699 22.0253 86.7451 22.0857 86.56 22.142C86.3789 22.1944 86.1716 22.2406 85.9382 22.2809C85.7047 22.3171 85.4774 22.3513 85.256 22.3835C85.0346 22.4117 84.8495 22.4358 84.7006 22.456C84.3505 22.5002 84.0305 22.5747 83.7407 22.6793C83.455 22.784 83.2256 22.9349 83.0525 23.1321C82.8835 23.3253 82.799 23.5828 82.799 23.9048C82.799 24.3515 82.964 24.6896 83.294 24.919C83.624 25.1444 84.0446 25.2571 84.5557 25.2571ZM91.2884 26.5007V14.1371H93.0934V18.7312H93.2021C93.3067 18.538 93.4577 18.3146 93.6549 18.0611C93.8521 17.8075 94.1258 17.5862 94.4759 17.397C94.826 17.2038 95.2889 17.1072 95.8644 17.1072C96.613 17.1072 97.2811 17.2964 97.8687 17.6747C98.4563 18.053 98.9171 18.5984 99.2511 19.3107C99.5892 20.0231 99.7582 20.8803 99.7582 21.8824C99.7582 22.8846 99.5912 23.7438 99.2571 24.4602C98.9231 25.1726 98.4643 25.7219 97.8807 26.1083C97.2972 26.4906 96.6311 26.6818 95.8825 26.6818C95.3191 26.6818 94.8582 26.5872 94.5 26.3981C94.1459 26.2089 93.8682 25.9876 93.667 25.734C93.4657 25.4805 93.3108 25.2551 93.2021 25.0579H93.0512V26.5007H91.2884ZM93.0572 21.8643C93.0572 22.5163 93.1518 23.0878 93.341 23.5788C93.5301 24.0698 93.8038 24.4542 94.162 24.7319C94.5202 25.0056 94.9589 25.1424 95.478 25.1424C96.0173 25.1424 96.4681 24.9995 96.8303 24.7138C97.1925 24.424 97.4662 24.0316 97.6513 23.5366C97.8405 23.0415 97.9351 22.4841 97.9351 21.8643C97.9351 21.2526 97.8425 20.7032 97.6574 20.2163C97.4763 19.7293 97.2026 19.3449 96.8363 19.0632C96.4741 18.7815 96.0214 18.6406 95.478 18.6406C94.9548 18.6406 94.5121 18.7754 94.1499 19.0451C93.7917 19.3147 93.5201 19.691 93.3349 20.174C93.1498 20.6569 93.0572 21.2204 93.0572 21.8643ZM103.59 14.1371V26.5007H101.785V14.1371H103.59ZM110.015 26.6878C109.101 26.6878 108.315 26.4926 107.655 26.1023C106.999 25.7078 106.491 25.1545 106.133 24.4421C105.779 23.7257 105.602 22.8866 105.602 21.9247C105.602 20.9749 105.779 20.1378 106.133 19.4133C106.491 18.6889 106.99 18.1234 107.63 17.717C108.274 17.3105 109.027 17.1072 109.888 17.1072C110.411 17.1072 110.918 17.1938 111.409 17.3668C111.9 17.5399 112.341 17.8115 112.732 18.1818C113.122 18.5521 113.43 19.033 113.655 19.6246C113.881 20.2122 113.993 20.9266 113.993 21.7677V22.4077H106.622V21.0554H112.224C112.224 20.5805 112.128 20.1599 111.935 19.7937C111.742 19.4234 111.47 19.1316 111.12 18.9183C110.774 18.705 110.367 18.5984 109.9 18.5984C109.393 18.5984 108.95 18.7231 108.572 18.9726C108.198 19.2181 107.908 19.5401 107.703 19.9386C107.502 20.333 107.401 20.7616 107.401 21.2244V22.2809C107.401 22.9007 107.51 23.4279 107.727 23.8626C107.948 24.2972 108.256 24.6292 108.651 24.8587C109.045 25.084 109.506 25.1967 110.033 25.1967C110.375 25.1967 110.687 25.1484 110.969 25.0518C111.251 24.9512 111.494 24.8023 111.699 24.6051C111.905 24.4079 112.061 24.1644 112.17 23.8746L113.879 24.1825C113.742 24.6856 113.496 25.1263 113.142 25.5046C112.792 25.8789 112.351 26.1707 111.82 26.38C111.293 26.5852 110.691 26.6878 110.015 26.6878ZM124.401 26.6878C123.532 26.6878 122.773 26.4886 122.125 26.0902C121.477 25.6917 120.974 25.1343 120.616 24.418C120.258 23.7016 120.079 22.8645 120.079 21.9066C120.079 20.9447 120.258 20.1036 120.616 19.3832C120.974 18.6627 121.477 18.1033 122.125 17.7049C122.773 17.3065 123.532 17.1072 124.401 17.1072C125.27 17.1072 126.029 17.3065 126.677 17.7049C127.325 18.1033 127.828 18.6627 128.186 19.3832C128.544 20.1036 128.723 20.9447 128.723 21.9066C128.723 22.8645 128.544 23.7016 128.186 24.418C127.828 25.1343 127.325 25.6917 126.677 26.0902C126.029 26.4886 125.27 26.6878 124.401 26.6878ZM124.407 25.1726C124.97 25.1726 125.437 25.0237 125.808 24.7258C126.178 24.428 126.452 24.0316 126.629 23.5366C126.81 23.0415 126.9 22.4962 126.9 21.9006C126.9 21.3089 126.81 20.7656 126.629 20.2706C126.452 19.7715 126.178 19.3711 125.808 19.0692C125.437 18.7674 124.97 18.6165 124.407 18.6165C123.84 18.6165 123.369 18.7674 122.994 19.0692C122.624 19.3711 122.348 19.7715 122.167 20.2706C121.99 20.7656 121.902 21.3089 121.902 21.9006C121.902 22.4962 121.99 23.0415 122.167 23.5366C122.348 24.0316 122.624 24.428 122.994 24.7258C123.369 25.0237 123.84 25.1726 124.407 25.1726ZM132.543 20.995V26.5007H130.738V17.228H132.471V18.7372H132.586C132.799 18.2462 133.133 17.8518 133.588 17.554C134.046 17.2561 134.624 17.1072 135.32 17.1072C135.952 17.1072 136.506 17.24 136.98 17.5057C137.455 17.7673 137.824 18.1577 138.085 18.6768C138.347 19.196 138.478 19.8379 138.478 20.6026V26.5007H136.673V20.8199C136.673 20.1478 136.497 19.6226 136.147 19.2443C135.797 18.862 135.316 18.6708 134.704 18.6708C134.286 18.6708 133.914 18.7614 133.588 18.9425C133.266 19.1236 133.01 19.3892 132.821 19.7393C132.636 20.0855 132.543 20.504 132.543 20.995Z" fill="#E8E8E8"/>
<path d="M155.459 13.6371V26.0007H152.924L148.004 18.865H147.925V26.0007H144.937V13.6371H147.509L152.375 20.7606H152.477V13.6371H155.459ZM163.321 21.9982V16.728H166.267V26.0007H163.454V24.2741H163.357C163.152 24.8416 162.802 25.2924 162.307 25.6264C161.816 25.9564 161.222 26.1214 160.526 26.1214C159.894 26.1214 159.339 25.9765 158.86 25.6868C158.381 25.397 158.009 24.9925 157.743 24.4734C157.477 23.9502 157.342 23.3384 157.338 22.6381V16.728H160.291V22.0586C160.295 22.5617 160.427 22.9581 160.689 23.2479C160.951 23.5376 161.307 23.6825 161.757 23.6825C162.051 23.6825 162.315 23.6181 162.548 23.4893C162.786 23.3565 162.973 23.1654 163.11 22.9158C163.251 22.6623 163.321 22.3564 163.321 21.9982ZM176.26 17.6758C176.191 17.4222 176.091 17.1989 175.958 17.0057C175.825 16.8085 175.662 16.6414 175.469 16.5046C175.276 16.3678 175.054 16.2651 174.805 16.1967C174.555 16.1243 174.282 16.0881 173.984 16.0881C173.384 16.0881 172.865 16.2329 172.426 16.5227C171.992 16.8125 171.656 17.2351 171.418 17.7905C171.181 18.3418 171.062 19.0119 171.062 19.8008C171.062 20.5936 171.177 21.2698 171.406 21.8292C171.635 22.3886 171.967 22.8152 172.402 23.109C172.837 23.4028 173.364 23.5497 173.984 23.5497C174.531 23.5497 174.994 23.4612 175.372 23.2841C175.755 23.103 176.044 22.8474 176.242 22.5174C176.439 22.1874 176.537 21.799 176.537 21.3523L177.093 21.4187H174.086V19.2393H179.417V20.8753C179.417 21.9821 179.182 22.9299 178.711 23.7187C178.244 24.5076 177.6 25.1133 176.779 25.5359C175.962 25.9584 175.022 26.1697 173.96 26.1697C172.78 26.1697 171.744 25.9142 170.851 25.403C169.957 24.8919 169.261 24.1635 168.762 23.2177C168.263 22.2679 168.013 21.141 168.013 19.837C168.013 18.8228 168.164 17.9233 168.466 17.1385C168.768 16.3497 169.188 15.6816 169.728 15.1342C170.271 14.5869 170.899 14.1723 171.611 13.8906C172.328 13.6089 173.098 13.468 173.923 13.468C174.64 13.468 175.306 13.5707 175.922 13.7759C176.541 13.9812 177.089 14.2709 177.564 14.6452C178.043 15.0195 178.431 15.4642 178.729 15.9794C179.027 16.4945 179.212 17.06 179.284 17.6758H176.26ZM185.513 26.1758C184.543 26.1758 183.706 25.9846 183.001 25.6023C182.301 25.2159 181.762 24.6665 181.384 23.9542C181.009 23.2378 180.822 22.3866 180.822 21.4006C180.822 20.4427 181.011 19.6056 181.39 18.8892C181.768 18.1688 182.301 17.6094 182.989 17.2109C183.678 16.8085 184.489 16.6072 185.422 16.6072C186.082 16.6072 186.686 16.7099 187.233 16.9151C187.781 17.1204 188.254 17.4242 188.652 17.8267C189.05 18.2292 189.36 18.7262 189.582 19.3178C189.803 19.9054 189.914 20.5795 189.914 21.3402V22.0767H181.854V20.3622H187.167C187.163 20.0483 187.088 19.7686 186.944 19.5231C186.799 19.2776 186.599 19.0864 186.346 18.9496C186.096 18.8087 185.809 18.7383 185.483 18.7383C185.153 18.7383 184.857 18.8127 184.595 18.9616C184.334 19.1065 184.126 19.3057 183.973 19.5593C183.82 19.8088 183.74 20.0926 183.732 20.4105V22.1552C183.732 22.5335 183.806 22.8655 183.955 23.1513C184.104 23.433 184.315 23.6523 184.589 23.8093C184.863 23.9663 185.189 24.0447 185.567 24.0447C185.829 24.0447 186.066 24.0085 186.28 23.9361C186.493 23.8636 186.676 23.757 186.829 23.6161C186.982 23.4752 187.097 23.3022 187.173 23.0969L189.884 23.1754C189.771 23.7831 189.523 24.3124 189.141 24.7631C188.763 25.2099 188.266 25.558 187.65 25.8075C187.034 26.053 186.322 26.1758 185.513 26.1758ZM196.655 16.728V18.9013H190.806V16.728H196.655ZM192.031 14.5064H194.983V23.0849C194.983 23.266 195.011 23.4129 195.068 23.5256C195.128 23.6342 195.215 23.7127 195.327 23.761C195.44 23.8053 195.575 23.8274 195.732 23.8274C195.845 23.8274 195.963 23.8173 196.088 23.7972C196.217 23.7731 196.313 23.7529 196.378 23.7368L196.825 25.8679C196.684 25.9081 196.484 25.9584 196.227 26.0188C195.973 26.0792 195.669 26.1174 195.315 26.1335C194.623 26.1657 194.029 26.0852 193.534 25.892C193.043 25.6948 192.667 25.389 192.405 24.9744C192.148 24.5599 192.023 24.0387 192.031 23.4109V14.5064Z" fill="white"/>
</g>
<defs>
<filter id="filter0_d_1_56" x="2.39972" y="0.39972" width="39.202" height="39.202" filterUnits="userSpaceOnUse" color-interpolation-filters="sRGB">
<feFlood flood-opacity="0" result="BackgroundImageFix"/>
<feColorMatrix in="SourceAlpha" type="matrix" values="0 0 0 0 0 0 0 0 0 0 0 0 0 0 0 0 0 0 127 0" result="hardAlpha"/>
<feOffset/>
<feGaussianBlur stdDeviation="2.80014"/>
<feComposite in2="hardAlpha" operator="out"/>
<feColorMatrix type="matrix" values="0 0 0 0 0 0 0 0 0 0 0 0 0 0 0 0 0 0 0.25 0"/>
<feBlend mode="normal" in2="BackgroundImageFix" result="effect1_dropShadow_1_56"/>
<feBlend mode="normal" in="SourceGraphic" in2="effect1_dropShadow_1_56" result="shape"/>
</filter>
<filter id="filter1_d_1_56" x="36.2871" y="3.78642" width="167.429" height="32.4286" filterUnits="userSpaceOnUse" color-interpolation-filters="sRGB">
<feFlood flood-opacity="0" result="BackgroundImageFix"/>
<feColorMatrix in="SourceAlpha" type="matrix" values="0 0 0 0 0 0 0 0 0 0 0 0 0 0 0 0 0 0 127 0" result="hardAlpha"/>
<feOffset/>
<feGaussianBlur stdDeviation="2.85714"/>
<feComposite in2="hardAlpha" operator="out"/>
<feColorMatrix type="matrix" values="0 0 0 0 0 0 0 0 0 0 0 0 0 0 0 0 0 0 0.25 0"/>
<feBlend mode="normal" in2="BackgroundImageFix" result="effect1_dropShadow_1_56"/>
<feBlend mode="normal" in="SourceGraphic" in2="effect1_dropShadow_1_56" result="shape"/>
</filter>
<linearGradient id="paint0_linear_1_56" x1="103.001" y1="0" x2="103.001" y2="40.0014" gradientUnits="userSpaceOnUse">
<stop stop-color="#004880"/>
<stop offset="1" stop-color="#002B4D"/>
</linearGradient>
</defs>
</svg>
