<svg width="56" height="56" viewBox="0 0 56 56" fill="none" xmlns="http://www.w3.org/2000/svg">
<rect width="56" height="56" rx="8.4" fill="url(#paint0_linear_1_62)"/>
<rect x="1.05" y="1.05" width="53.9" height="53.9" rx="7.35" stroke="white" stroke-opacity="0.15" stroke-width="2.1"/>
<g filter="url(#filter0_d_1_62)">
<path fill-rule="evenodd" clip-rule="evenodd" d="M37.4488 44.1088C33.7719 44.1088 30.7908 41.1274 30.7908 37.4502C30.7908 33.7746 33.7719 30.7916 37.4488 30.7916C41.1257 30.7916 44.1068 33.7746 44.1068 37.4502C44.1068 41.1274 41.1257 44.1088 37.4488 44.1088ZM24.1678 28.8472C21.8692 28.8472 20.0066 26.9828 20.0066 24.6856C20.0066 22.3867 21.8692 20.524 24.1678 20.524C26.4665 20.524 28.3291 22.3867 28.3291 24.6856C28.3291 26.9828 26.4665 28.8472 24.1678 28.8472ZM37.7434 15.8563H26.6313C20.9687 15.8563 16.3747 20.4507 16.3747 26.1155V37.2271C16.3747 42.8936 20.9687 47.4847 26.6313 47.4847H37.7434C43.4093 47.4847 48 42.8936 48 37.2271V26.1155C48 20.4507 43.4093 15.8563 37.7434 15.8563Z" fill="white"/>
<mask id="mask0_1_62" style="mask-type:luminance" maskUnits="userSpaceOnUse" x="8" y="8" width="7" height="8">
<path d="M8 11.9536V8.625H14.658V15.2821H8V11.9536Z" fill="white"/>
</mask>
<g mask="url(#mask0_1_62)">
<path fill-rule="evenodd" clip-rule="evenodd" d="M14.658 11.9528C14.658 13.7923 13.1666 15.2821 11.329 15.2821C9.48972 15.2821 8 13.7923 8 11.9528C8 10.115 9.48972 8.6235 11.329 8.6235C13.1666 8.6235 14.658 10.115 14.658 11.9528Z" fill="white"/>
</g>
</g>
<defs>
<filter id="filter0_d_1_62" x="2.28571" y="2.28571" width="51.4286" height="51.4286" filterUnits="userSpaceOnUse" color-interpolation-filters="sRGB">
<feFlood flood-opacity="0" result="BackgroundImageFix"/>
<feColorMatrix in="SourceAlpha" type="matrix" values="0 0 0 0 0 0 0 0 0 0 0 0 0 0 0 0 0 0 127 0" result="hardAlpha"/>
<feOffset/>
<feGaussianBlur stdDeviation="2.85714"/>
<feComposite in2="hardAlpha" operator="out"/>
<feColorMatrix type="matrix" values="0 0 0 0 0 0 0 0 0 0 0 0 0 0 0 0 0 0 0.25 0"/>
<feBlend mode="normal" in2="BackgroundImageFix" result="effect1_dropShadow_1_62"/>
<feBlend mode="normal" in="SourceGraphic" in2="effect1_dropShadow_1_62" result="shape"/>
</filter>
<linearGradient id="paint0_linear_1_62" x1="28" y1="0" x2="28" y2="56" gradientUnits="userSpaceOnUse">
<stop stop-color="#004880"/>
<stop offset="1" stop-color="#002B4D"/>
</linearGradient>
</defs>
</svg>
