<svg width="164" height="56" viewBox="0 0 164 56" fill="none" xmlns="http://www.w3.org/2000/svg">
<rect width="164" height="56" rx="8" fill="url(#paint0_linear_1_50)"/>
<rect x="1.05" y="1.05" width="161.9" height="53.9" rx="6.95" stroke="white" stroke-opacity="0.15" stroke-width="2.1"/>
<g filter="url(#filter0_d_1_50)">
<path fill-rule="evenodd" clip-rule="evenodd" d="M41.4488 44.1088C37.772 44.1088 34.7909 41.1274 34.7909 37.4502C34.7909 33.7746 37.772 30.7916 41.4488 30.7916C45.1257 30.7916 48.1068 33.7746 48.1068 37.4502C48.1068 41.1274 45.1257 44.1088 41.4488 44.1088ZM28.1678 28.8472C25.8692 28.8472 24.0066 26.9828 24.0066 24.6856C24.0066 22.3867 25.8692 20.524 28.1678 20.524C30.4665 20.524 32.3291 22.3867 32.3291 24.6856C32.3291 26.9828 30.4665 28.8472 28.1678 28.8472ZM41.7434 15.8563H30.6313C24.9687 15.8563 20.3747 20.4507 20.3747 26.1155V37.2271C20.3747 42.8936 24.9687 47.4847 30.6313 47.4847H41.7434C47.4093 47.4847 52 42.8936 52 37.2271V26.1155C52 20.4507 47.4093 15.8563 41.7434 15.8563Z" fill="white"/>
<mask id="mask0_1_50" style="mask-type:luminance" maskUnits="userSpaceOnUse" x="12" y="8" width="7" height="8">
<path d="M12 11.9536V8.625H18.658V15.2821H12V11.9536Z" fill="white"/>
</mask>
<g mask="url(#mask0_1_50)">
<path fill-rule="evenodd" clip-rule="evenodd" d="M18.658 11.9528C18.658 13.7923 17.1666 15.2821 15.329 15.2821C13.4897 15.2821 12 13.7923 12 11.9528C12 10.115 13.4897 8.6235 15.329 8.6235C17.1666 8.6235 18.658 10.115 18.658 11.9528Z" fill="white"/>
</g>
</g>
<g filter="url(#filter1_d_1_50)">
<path d="M62.2613 24.5H60.3977L64.5852 12.8636H66.6136L70.8011 24.5H68.9375L65.6477 14.9773H65.5568L62.2613 24.5ZM62.5738 19.9432H68.6193V21.4204H62.5738V19.9432ZM78.7173 15.7727L75.5525 24.5H73.7344L70.5639 15.7727H72.3878L74.598 22.4886H74.6889L76.8934 15.7727H78.7173ZM82.6037 24.6932C82.0506 24.6932 81.5506 24.5909 81.1037 24.3864C80.6567 24.178 80.3025 23.8769 80.0412 23.4829C79.7836 23.089 79.6548 22.6061 79.6548 22.0341C79.6548 21.5417 79.7495 21.1364 79.9389 20.8182C80.1283 20.5 80.384 20.2481 80.7059 20.0625C81.0279 19.8769 81.3878 19.7367 81.7855 19.642C82.1832 19.5473 82.5885 19.4754 83.0014 19.4261C83.5241 19.3655 83.9484 19.3163 84.2741 19.2784C84.5999 19.2367 84.8366 19.1704 84.9844 19.0795C85.1321 18.9886 85.2059 18.8409 85.2059 18.6364V18.5966C85.2059 18.1004 85.0658 17.7159 84.7855 17.4432C84.509 17.1704 84.0961 17.0341 83.5469 17.0341C82.9749 17.0341 82.5241 17.161 82.1946 17.4148C81.8688 17.6648 81.6434 17.9432 81.5184 18.25L79.9219 17.8864C80.1112 17.3561 80.3878 16.928 80.7514 16.6023C81.1188 16.2727 81.5412 16.0341 82.0184 15.8864C82.4957 15.7348 82.9976 15.6591 83.5241 15.6591C83.8726 15.6591 84.2419 15.7008 84.6321 15.7841C85.026 15.8636 85.3934 16.0114 85.7344 16.2273C86.079 16.4432 86.3612 16.7519 86.5809 17.1534C86.8006 17.5511 86.9105 18.0682 86.9105 18.7045V24.5H85.2514V23.3068H85.1832C85.0734 23.5265 84.9086 23.7424 84.6889 23.9545C84.4692 24.1667 84.187 24.3428 83.8423 24.4829C83.4976 24.6231 83.0847 24.6932 82.6037 24.6932ZM82.973 23.3295C83.4427 23.3295 83.8442 23.2367 84.1775 23.0511C84.5147 22.8655 84.7703 22.6231 84.9446 22.3239C85.1226 22.0208 85.2116 21.697 85.2116 21.3523V20.2273C85.151 20.2879 85.0336 20.3447 84.8594 20.3977C84.6889 20.447 84.4938 20.4905 84.2741 20.5284C84.0544 20.5625 83.8404 20.5947 83.6321 20.625C83.4237 20.6515 83.2495 20.6742 83.1094 20.6932C82.7798 20.7348 82.4787 20.8049 82.2059 20.9034C81.937 21.0019 81.7211 21.1439 81.5582 21.3295C81.3991 21.5114 81.3196 21.7538 81.3196 22.0568C81.3196 22.4773 81.4749 22.7954 81.7855 23.0114C82.0961 23.2235 82.4919 23.3295 82.973 23.3295ZM89.1733 24.5V15.7727H90.8721V24.5H89.1733ZM90.0312 14.4261C89.7358 14.4261 89.482 14.3276 89.2699 14.1307C89.0615 13.9299 88.9574 13.6913 88.9574 13.4148C88.9574 13.1345 89.0615 12.8958 89.2699 12.6989C89.482 12.4981 89.7358 12.3977 90.0312 12.3977C90.3267 12.3977 90.5786 12.4981 90.7869 12.6989C90.999 12.8958 91.1051 13.1345 91.1051 13.4148C91.1051 13.6913 90.999 13.9299 90.7869 14.1307C90.5786 14.3276 90.3267 14.4261 90.0312 14.4261ZM94.8565 12.8636V24.5H93.1576V12.8636H94.8565ZM99.6818 24.6932C99.1288 24.6932 98.6288 24.5909 98.1818 24.3864C97.7348 24.178 97.3807 23.8769 97.1193 23.4829C96.8617 23.089 96.7329 22.6061 96.7329 22.0341C96.7329 21.5417 96.8276 21.1364 97.017 20.8182C97.2064 20.5 97.4621 20.2481 97.7841 20.0625C98.106 19.8769 98.4659 19.7367 98.8636 19.642C99.2613 19.5473 99.6666 19.4754 100.08 19.4261C100.602 19.3655 101.026 19.3163 101.352 19.2784C101.678 19.2367 101.915 19.1704 102.062 19.0795C102.21 18.9886 102.284 18.8409 102.284 18.6364V18.5966C102.284 18.1004 102.144 17.7159 101.864 17.4432C101.587 17.1704 101.174 17.0341 100.625 17.0341C100.053 17.0341 99.6022 17.161 99.2727 17.4148C98.9469 17.6648 98.7216 17.9432 98.5966 18.25L97 17.8864C97.1894 17.3561 97.4659 16.928 97.8295 16.6023C98.1969 16.2727 98.6193 16.0341 99.0966 15.8864C99.5738 15.7348 100.076 15.6591 100.602 15.6591C100.951 15.6591 101.32 15.7008 101.71 15.7841C102.104 15.8636 102.472 16.0114 102.812 16.2273C103.157 16.4432 103.439 16.7519 103.659 17.1534C103.879 17.5511 103.989 18.0682 103.989 18.7045V24.5H102.33V23.3068H102.261C102.151 23.5265 101.987 23.7424 101.767 23.9545C101.547 24.1667 101.265 24.3428 100.92 24.4829C100.576 24.6231 100.163 24.6932 99.6818 24.6932ZM100.051 23.3295C100.521 23.3295 100.922 23.2367 101.256 23.0511C101.593 22.8655 101.848 22.6231 102.023 22.3239C102.201 22.0208 102.29 21.697 102.29 21.3523V20.2273C102.229 20.2879 102.112 20.3447 101.937 20.3977C101.767 20.447 101.572 20.4905 101.352 20.5284C101.133 20.5625 100.919 20.5947 100.71 20.625C100.502 20.6515 100.328 20.6742 100.187 20.6932C99.8579 20.7348 99.5568 20.8049 99.2841 20.9034C99.0151 21.0019 98.7992 21.1439 98.6363 21.3295C98.4772 21.5114 98.3977 21.7538 98.3977 22.0568C98.3977 22.4773 98.553 22.7954 98.8636 23.0114C99.1742 23.2235 99.57 23.3295 100.051 23.3295ZM106.388 24.5V12.8636H108.087V17.1875H108.189C108.287 17.0057 108.429 16.7954 108.615 16.5568C108.801 16.3182 109.058 16.1098 109.388 15.9318C109.717 15.75 110.153 15.6591 110.695 15.6591C111.399 15.6591 112.028 15.8371 112.581 16.1932C113.134 16.5492 113.568 17.0625 113.882 17.7329C114.2 18.4034 114.359 19.2102 114.359 20.1534C114.359 21.0966 114.202 21.9053 113.888 22.5795C113.573 23.25 113.142 23.767 112.592 24.1307C112.043 24.4905 111.416 24.6704 110.712 24.6704C110.181 24.6704 109.748 24.5814 109.41 24.4034C109.077 24.2254 108.816 24.017 108.626 23.7784C108.437 23.5398 108.291 23.3276 108.189 23.142H108.047V24.5H106.388ZM108.053 20.1364C108.053 20.75 108.142 21.2879 108.32 21.75C108.498 22.2121 108.755 22.5739 109.092 22.8352C109.429 23.0928 109.842 23.2216 110.331 23.2216C110.839 23.2216 111.263 23.0871 111.604 22.8182C111.945 22.5454 112.202 22.1761 112.376 21.7102C112.554 21.2443 112.643 20.7197 112.643 20.1364C112.643 19.5606 112.556 19.0436 112.382 18.5852C112.212 18.1269 111.954 17.7651 111.609 17.5C111.268 17.2348 110.842 17.1023 110.331 17.1023C109.839 17.1023 109.422 17.2292 109.081 17.4829C108.744 17.7367 108.488 18.0909 108.314 18.5454C108.14 19 108.053 19.5303 108.053 20.1364ZM117.966 12.8636V24.5H116.267V12.8636H117.966ZM124.013 24.6761C123.153 24.6761 122.412 24.4924 121.791 24.125C121.174 23.7538 120.696 23.2329 120.359 22.5625C120.026 21.8883 119.859 21.0985 119.859 20.1932C119.859 19.2992 120.026 18.5114 120.359 17.8295C120.696 17.1477 121.166 16.6155 121.768 16.2329C122.374 15.8504 123.083 15.6591 123.893 15.6591C124.386 15.6591 124.863 15.7405 125.325 15.9034C125.787 16.0663 126.202 16.322 126.57 16.6704C126.937 17.0189 127.227 17.4716 127.439 18.0284C127.651 18.5814 127.757 19.2538 127.757 20.0454V20.6477H120.82V19.375H126.092C126.092 18.928 126.001 18.5322 125.82 18.1875C125.638 17.839 125.382 17.5644 125.053 17.3636C124.727 17.1629 124.344 17.0625 123.905 17.0625C123.428 17.0625 123.011 17.1799 122.655 17.4148C122.303 17.6458 122.03 17.9489 121.837 18.3239C121.647 18.6951 121.553 19.0985 121.553 19.5341V20.5284C121.553 21.1117 121.655 21.6079 121.859 22.017C122.068 22.4261 122.357 22.7386 122.729 22.9545C123.1 23.1667 123.534 23.2727 124.03 23.2727C124.352 23.2727 124.645 23.2273 124.91 23.1364C125.176 23.0417 125.405 22.9015 125.598 22.7159C125.791 22.5303 125.939 22.3011 126.041 22.0284L127.649 22.3182C127.52 22.7917 127.289 23.2064 126.956 23.5625C126.626 23.9148 126.212 24.1894 125.712 24.3864C125.215 24.5795 124.649 24.6761 124.013 24.6761ZM137.553 24.6761C136.734 24.6761 136.02 24.4886 135.41 24.1136C134.801 23.7386 134.327 23.214 133.99 22.5398C133.653 21.8655 133.484 21.0776 133.484 20.1761C133.484 19.2708 133.653 18.4792 133.99 17.8011C134.327 17.1231 134.801 16.5966 135.41 16.2216C136.02 15.8466 136.734 15.6591 137.553 15.6591C138.371 15.6591 139.085 15.8466 139.695 16.2216C140.304 16.5966 140.778 17.1231 141.115 17.8011C141.452 18.4792 141.621 19.2708 141.621 20.1761C141.621 21.0776 141.452 21.8655 141.115 22.5398C140.778 23.214 140.304 23.7386 139.695 24.1136C139.085 24.4886 138.371 24.6761 137.553 24.6761ZM137.558 23.25C138.089 23.25 138.528 23.1098 138.876 22.8295C139.225 22.5492 139.482 22.1761 139.649 21.7102C139.82 21.2443 139.905 20.7311 139.905 20.1704C139.905 19.6136 139.82 19.1023 139.649 18.6364C139.482 18.1667 139.225 17.7898 138.876 17.5057C138.528 17.2216 138.089 17.0795 137.558 17.0795C137.024 17.0795 136.581 17.2216 136.229 17.5057C135.88 17.7898 135.621 18.1667 135.45 18.6364C135.284 19.1023 135.2 19.6136 135.2 20.1704C135.2 20.7311 135.284 21.2443 135.45 21.7102C135.621 22.1761 135.88 22.5492 136.229 22.8295C136.581 23.1098 137.024 23.25 137.558 23.25ZM145.216 19.3182V24.5H143.517V15.7727H145.148V17.1932H145.256C145.456 16.7311 145.771 16.3598 146.199 16.0795C146.631 15.7992 147.174 15.6591 147.83 15.6591C148.424 15.6591 148.945 15.7841 149.392 16.0341C149.839 16.2803 150.186 16.6477 150.432 17.1364C150.678 17.625 150.801 18.2292 150.801 18.9489V24.5H149.102V19.1534C149.102 18.5208 148.937 18.0265 148.608 17.6704C148.278 17.3106 147.826 17.1307 147.25 17.1307C146.856 17.1307 146.506 17.2159 146.199 17.3864C145.896 17.5568 145.655 17.8068 145.477 18.1364C145.303 18.4621 145.216 18.8561 145.216 19.3182Z" fill="#E8E8E8"/>
<path d="M71.4581 31.1364V43.5H68.9226L64.0025 36.3643H63.924V43.5H60.9357V31.1364H63.5074L68.3732 38.2599H68.4758V31.1364H71.4581ZM79.3197 39.4975V34.2273H82.2657V43.5H79.4525V41.7734H79.3559C79.1506 42.3409 78.8005 42.7917 78.3055 43.1257C77.8145 43.4557 77.2208 43.6207 76.5246 43.6207C75.8927 43.6207 75.3373 43.4758 74.8584 43.1861C74.3794 42.8963 74.0072 42.4918 73.7415 41.9726C73.4759 41.4494 73.3411 40.8377 73.3371 40.1374V34.2273H76.2891V39.5579C76.2932 40.061 76.426 40.4574 76.6876 40.7471C76.9492 41.0369 77.3053 41.1818 77.7561 41.1818C78.0499 41.1818 78.3135 41.1174 78.5469 40.9886C78.7844 40.8558 78.9715 40.6646 79.1084 40.4151C79.2492 40.1616 79.3197 39.8557 79.3197 39.4975ZM92.2583 35.1751C92.1899 34.9215 92.0893 34.6981 91.9565 34.505C91.8237 34.3078 91.6607 34.1407 91.4675 34.0039C91.2743 33.8671 91.0529 33.7644 90.8034 33.696C90.5539 33.6236 90.2802 33.5873 89.9824 33.5873C89.3827 33.5873 88.8636 33.7322 88.4249 34.022C87.9902 34.3118 87.6542 34.7344 87.4167 35.2898C87.1792 35.8411 87.0605 36.5112 87.0605 37.3001C87.0605 38.0929 87.1752 38.769 87.4046 39.3285C87.634 39.8879 87.9661 40.3145 88.4007 40.6083C88.8354 40.9021 89.3626 41.049 89.9824 41.049C90.5297 41.049 90.9926 40.9605 91.3709 40.7834C91.7532 40.6023 92.043 40.3467 92.2402 40.0167C92.4374 39.6867 92.536 39.2983 92.536 38.8516L93.0914 38.918H90.085V36.7386H95.4156V38.3746C95.4156 39.4814 95.1802 40.4292 94.7093 41.218C94.2425 42.0069 93.5985 42.6126 92.7775 43.0351C91.9605 43.4577 91.0207 43.669 89.9583 43.669C88.779 43.669 87.7427 43.4135 86.8492 42.9023C85.9558 42.3912 85.2595 41.6627 84.7605 40.717C84.2614 39.7672 84.0119 38.6403 84.0119 37.3363C84.0119 36.3221 84.1628 35.4226 84.4646 34.6378C84.7665 33.8489 85.1871 33.1809 85.7264 32.6335C86.2697 32.0862 86.8975 31.6716 87.6099 31.3899C88.3263 31.1082 89.097 30.9673 89.922 30.9673C90.6384 30.9673 91.3045 31.0699 91.9203 31.2752C92.54 31.4805 93.0874 31.7702 93.5623 32.1445C94.0412 32.5188 94.4296 32.9635 94.7274 33.4787C95.0252 33.9938 95.2104 34.5593 95.2828 35.1751H92.2583ZM101.511 43.6751C100.541 43.6751 99.7044 43.4839 99.0001 43.1016C98.2998 42.7152 97.7605 42.1658 97.3822 41.4535C97.0079 40.7371 96.8207 39.8859 96.8207 38.8998C96.8207 37.942 97.0099 37.1049 97.3882 36.3885C97.7665 35.6681 98.2998 35.1087 98.988 34.7102C99.6762 34.3078 100.487 34.1065 101.421 34.1065C102.081 34.1065 102.685 34.2092 103.232 34.4144C103.779 34.6197 104.252 34.9235 104.651 35.326C105.049 35.7284 105.359 36.2255 105.58 36.8171C105.802 37.4047 105.912 38.0788 105.912 38.8395V39.576H97.853V37.8615H103.166C103.162 37.5476 103.087 37.2679 102.942 37.0224C102.797 36.7769 102.598 36.5857 102.345 36.4489C102.095 36.308 101.807 36.2376 101.481 36.2376C101.151 36.2376 100.855 36.312 100.594 36.4609C100.332 36.6058 100.125 36.805 99.972 37.0586C99.8191 37.3081 99.7386 37.5918 99.7305 37.9098V39.6545C99.7305 40.0328 99.805 40.3648 99.9539 40.6506C100.103 40.9323 100.314 41.1516 100.588 41.3086C100.861 41.4655 101.187 41.544 101.566 41.544C101.827 41.544 102.065 41.5078 102.278 41.4354C102.491 41.3629 102.675 41.2563 102.827 41.1154C102.98 40.9745 103.095 40.8015 103.172 40.5962L105.882 40.6747C105.769 41.2824 105.522 41.8117 105.14 42.2624C104.761 42.7092 104.264 43.0573 103.648 43.3068C103.033 43.5523 102.32 43.6751 101.511 43.6751ZM112.654 34.2273V36.4006H106.804V34.2273H112.654ZM108.03 32.0057H110.982V40.5842C110.982 40.7653 111.01 40.9122 111.066 41.0248C111.127 41.1335 111.213 41.212 111.326 41.2603C111.439 41.3046 111.573 41.3267 111.73 41.3267C111.843 41.3267 111.962 41.3166 112.087 41.2965C112.215 41.2724 112.312 41.2522 112.376 41.2361L112.823 43.3672C112.682 43.4074 112.483 43.4577 112.225 43.5181C111.972 43.5785 111.668 43.6167 111.314 43.6328C110.622 43.665 110.028 43.5845 109.533 43.3913C109.042 43.1941 108.666 42.8882 108.404 42.4737C108.147 42.0592 108.022 41.538 108.03 40.9101V32.0057Z" fill="white"/>
</g>
<defs>
<filter id="filter0_d_1_50" x="6.28571" y="2.28571" width="51.4286" height="51.4286" filterUnits="userSpaceOnUse" color-interpolation-filters="sRGB">
<feFlood flood-opacity="0" result="BackgroundImageFix"/>
<feColorMatrix in="SourceAlpha" type="matrix" values="0 0 0 0 0 0 0 0 0 0 0 0 0 0 0 0 0 0 127 0" result="hardAlpha"/>
<feOffset/>
<feGaussianBlur stdDeviation="2.85714"/>
<feComposite in2="hardAlpha" operator="out"/>
<feColorMatrix type="matrix" values="0 0 0 0 0 0 0 0 0 0 0 0 0 0 0 0 0 0 0.25 0"/>
<feBlend mode="normal" in2="BackgroundImageFix" result="effect1_dropShadow_1_50"/>
<feBlend mode="normal" in="SourceGraphic" in2="effect1_dropShadow_1_50" result="shape"/>
</filter>
<filter id="filter1_d_1_50" x="54.4" y="3.9" width="103.2" height="48.2" filterUnits="userSpaceOnUse" color-interpolation-filters="sRGB">
<feFlood flood-opacity="0" result="BackgroundImageFix"/>
<feColorMatrix in="SourceAlpha" type="matrix" values="0 0 0 0 0 0 0 0 0 0 0 0 0 0 0 0 0 0 127 0" result="hardAlpha"/>
<feOffset/>
<feGaussianBlur stdDeviation="2.8"/>
<feComposite in2="hardAlpha" operator="out"/>
<feColorMatrix type="matrix" values="0 0 0 0 0 0 0 0 0 0 0 0 0 0 0 0 0 0 0.25 0"/>
<feBlend mode="normal" in2="BackgroundImageFix" result="effect1_dropShadow_1_50"/>
<feBlend mode="normal" in="SourceGraphic" in2="effect1_dropShadow_1_50" result="shape"/>
</filter>
<linearGradient id="paint0_linear_1_50" x1="82" y1="0" x2="82" y2="56" gradientUnits="userSpaceOnUse">
<stop stop-color="#004880"/>
<stop offset="1" stop-color="#002B4D"/>
</linearGradient>
</defs>
</svg>
