<?xml version="1.0" standalone="no"?>
<!DOCTYPE svg PUBLIC "-//W3C//DTD SVG 20010904//EN"
 "http://www.w3.org/TR/2001/REC-SVG-20010904/DTD/svg10.dtd">
<svg version="1.0" xmlns="http://www.w3.org/2000/svg"
 width="700.000000pt" height="700.000000pt" viewBox="0 0 700.000000 700.000000"
 preserveAspectRatio="xMidYMid meet">
<metadata>
Created by potrace 1.14, written by Peter Selinger 2001-2017
</metadata>
<g transform="translate(0.000000,700.000000) scale(0.100000,-0.100000)"
fill="#000000" stroke="none">
<path d="M1235 6988 c-238 -27 -483 -126 -681 -274 -98 -74 -250 -234 -318
-336 -103 -155 -178 -342 -214 -532 -16 -85 -17 -251 -17 -2356 l0 -2265 23
-102 c125 -565 530 -970 1095 -1095 l102 -23 2275 0 2275 0 102 23 c565 125
970 530 1095 1095 l23 102 0 2265 c0 2099 -1 2272 -17 2356 -53 276 -176 518
-368 717 -166 174 -346 290 -560 361 -230 76 -24 70 -2510 72 -1287 1 -2259
-2 -2305 -8z m2830 -1520 c242 -91 458 -174 481 -186 98 -50 191 -162 225
-273 18 -56 19 -98 19 -568 l0 -507 428 -158 c235 -87 453 -172 485 -189 71
-37 166 -136 200 -209 47 -101 49 -125 45 -733 -3 -569 -3 -570 -26 -627 -32
-78 -99 -166 -160 -212 -53 -39 -878 -403 -981 -433 -40 -11 -81 -14 -151 -11
l-96 5 -245 105 c-134 58 -367 159 -516 223 l-273 118 -202 -88 c-112 -48
-344 -148 -517 -223 l-313 -135 -93 -5 c-57 -3 -113 0 -142 7 -86 22 -940 397
-995 437 -62 46 -129 134 -160 212 -23 57 -23 58 -26 627 -3 411 0 585 8 625
26 118 100 226 203 295 32 22 212 94 499 201 l448 167 0 509 c0 488 1 511 21
571 37 112 110 202 210 260 41 24 828 323 929 353 29 8 83 12 150 10 l105 -3
440 -165z"/>
<path d="M3160 5120 c-173 -65 -321 -122 -328 -127 -8 -5 111 -55 328 -136
l340 -129 340 129 c186 70 336 131 332 135 -14 13 -656 248 -677 247 -11 0
-162 -54 -335 -119z"/>
<path d="M4039 4500 c-184 -70 -341 -130 -347 -134 -9 -5 -12 -106 -12 -378 0
-348 1 -370 18 -363 9 4 163 61 342 127 179 67 328 124 333 128 4 3 6 173 5
377 l-3 370 -336 -127z"/>
<path d="M2215 3504 c-66 -24 -218 -81 -338 -126 -119 -44 -216 -82 -214 -84
7 -7 669 -254 681 -254 11 0 676 247 683 254 3 3 -680 257 -687 256 -3 0 -59
-21 -125 -46z"/>
<path d="M4315 3425 c-181 -68 -334 -126 -338 -128 -10 -3 662 -257 681 -257
12 0 642 235 671 250 11 6 -598 241 -662 255 -13 3 -151 -44 -352 -120z"/>
<path d="M5505 2924 c-16 -7 -173 -65 -347 -131 l-318 -118 0 -421 0 -422 322
139 c324 140 365 160 374 182 2 7 3 186 2 398 l-3 385 -30 -12z"/>
<path d="M2863 2801 l-333 -126 0 -417 c0 -230 4 -418 8 -418 8 0 636 271 671
290 21 11 21 16 21 405 0 370 -1 395 -17 394 -10 -1 -168 -58 -350 -128z"/>
</g>
</svg>
