<svg width="213" height="40" viewBox="0 0 213 40" fill="none" xmlns="http://www.w3.org/2000/svg">
<rect width="213.001" height="40.0014" rx="8" fill="url(#paint0_linear_1_56)"/>
<rect x="1.07143" y="1.07143" width="210.858" height="37.8585" rx="6.92857" stroke="white" stroke-opacity="0.15" stroke-width="2.14286"/>
<g filter="url(#filter0_d_1_56)">
<path d="M32.8904 15.5462C32.7266 15.6722 29.8336 17.2879 29.8336 20.8807C29.8336 25.0363 33.5148 26.5065 33.625 26.5429C33.6081 26.6325 33.0402 28.5563 31.6841 30.5165C30.4749 32.2414 29.212 33.9636 27.2909 33.9636C25.3698 33.9636 24.8753 32.8575 22.6576 32.8575C20.4963 32.8575 19.7278 34 17.9705 34C16.2133 34 14.9871 32.4038 13.5773 30.4436C11.9444 28.1418 10.625 24.5659 10.625 21.1719C10.625 15.7282 14.1961 12.8411 17.7106 12.8411C19.5781 12.8411 21.1348 14.0564 22.3072 14.0564C23.4232 14.0564 25.1635 12.7683 27.2881 12.7683C28.0932 12.7683 30.9863 12.8411 32.8904 15.5462V15.5462ZM26.2795 10.4636C27.1581 9.43034 27.7797 7.9966 27.7797 6.56286C27.7797 6.36404 27.7627 6.16242 27.726 6C26.2964 6.05321 24.5956 6.94369 23.5701 8.12261C22.7649 9.0299 22.0134 10.4636 22.0134 11.917C22.0134 12.1354 22.0501 12.3538 22.0671 12.4238C22.1575 12.4406 22.3044 12.4602 22.4513 12.4602C23.734 12.4602 25.3471 11.609 26.2795 10.4636Z" fill="white"/>
</g>
<g filter="url(#filter1_d_1_56)">
<path d="M44.4041 26.5007H42.424L46.8732 14.1371H49.0284L53.4776 26.5007H51.4975L48.0021 16.3828H47.9055L44.4041 26.5007ZM44.7361 21.6591H51.1594V23.2287H44.7361V21.6591ZM61.8886 17.228L58.526 26.5007H56.5942L53.2256 17.228H55.1634L57.5118 24.3636H57.6084L59.9507 17.228H61.8886ZM66.0178 26.706C65.4302 26.706 64.899 26.5973 64.4241 26.38C63.9492 26.1586 63.5729 25.8386 63.2952 25.4201C63.0215 25.0015 62.8846 24.4884 62.8846 23.8807C62.8846 23.3575 62.9853 22.9268 63.1865 22.5888C63.3877 22.2507 63.6594 21.9831 64.0015 21.7859C64.3436 21.5886 64.7259 21.4397 65.1485 21.3391C65.5711 21.2385 66.0017 21.162 66.4404 21.1097C66.9958 21.0453 67.4466 20.993 67.7927 20.9528C68.1388 20.9085 68.3903 20.8381 68.5473 20.7415C68.7042 20.6449 68.7827 20.4879 68.7827 20.2706V20.2283C68.7827 19.7011 68.6338 19.2926 68.336 19.0028C68.0422 18.7131 67.6035 18.5682 67.0199 18.5682C66.4122 18.5682 65.9333 18.703 65.5832 18.9726C65.237 19.2383 64.9976 19.5341 64.8648 19.8601L63.1684 19.4737C63.3696 18.9103 63.6634 18.4555 64.0498 18.1094C64.4402 17.7592 64.8889 17.5057 65.396 17.3487C65.9031 17.1877 66.4364 17.1072 66.9958 17.1072C67.3661 17.1072 67.7585 17.1515 68.173 17.24C68.5916 17.3246 68.9819 17.4815 69.3442 17.7109C69.7104 17.9403 70.0102 18.2683 70.2437 18.6949C70.4771 19.1175 70.5938 19.6669 70.5938 20.343V26.5007H68.831V25.2329H68.7586C68.6419 25.4664 68.4668 25.6958 68.2334 25.9212C67.9999 26.1465 67.7001 26.3337 67.3339 26.4826C66.9676 26.6315 66.5289 26.706 66.0178 26.706ZM66.4102 25.2571C66.9093 25.2571 67.3359 25.1585 67.69 24.9613C68.0482 24.7641 68.3199 24.5065 68.505 24.1886C68.6942 23.8666 68.7888 23.5225 68.7888 23.1562V21.9609C68.7244 22.0253 68.5996 22.0857 68.4145 22.142C68.2334 22.1944 68.0261 22.2406 67.7927 22.2809C67.5592 22.3171 67.3319 22.3513 67.1105 22.3835C66.8891 22.4117 66.704 22.4358 66.5551 22.456C66.205 22.5002 65.885 22.5747 65.5952 22.6793C65.3095 22.784 65.0801 22.9349 64.907 23.1321C64.738 23.3253 64.6535 23.5828 64.6535 23.9048C64.6535 24.3515 64.8185 24.6896 65.1485 24.919C65.4785 25.1444 65.8991 25.2571 66.4102 25.2571ZM72.998 26.5007V17.228H74.8031V26.5007H72.998ZM73.9096 15.7972C73.5957 15.7972 73.326 15.6926 73.1006 15.4833C72.8793 15.27 72.7686 15.0164 72.7686 14.7226C72.7686 14.4248 72.8793 14.1713 73.1006 13.962C73.326 13.7487 73.5957 13.642 73.9096 13.642C74.2235 13.642 74.4911 13.7487 74.7125 13.962C74.9379 14.1713 75.0506 14.4248 75.0506 14.7226C75.0506 15.0164 74.9379 15.27 74.7125 15.4833C74.4911 15.6926 74.2235 15.7972 73.9096 15.7972ZM79.0365 14.1371V26.5007H77.2314V14.1371H79.0365ZM84.1633 26.706C83.5757 26.706 83.0445 26.5973 82.5696 26.38C82.0947 26.1586 81.7184 25.8386 81.4407 25.4201C81.167 25.0015 81.0301 24.4884 81.0301 23.8807C81.0301 23.3575 81.1308 22.9268 81.332 22.5888C81.5332 22.2507 81.8049 21.9831 82.147 21.7859C82.4891 21.5886 82.8714 21.4397 83.294 21.3391C83.7166 21.2385 84.1472 21.162 84.5859 21.1097C85.1413 21.0453 85.5921 20.993 85.9382 20.9528C86.2843 20.9085 86.5358 20.8381 86.6928 20.7415C86.8497 20.6449 86.9282 20.4879 86.9282 20.2706V20.2283C86.9282 19.7011 86.7793 19.2926 86.4815 19.0028C86.1877 18.7131 85.749 18.5682 85.1654 18.5682C84.5577 18.5682 84.0788 18.703 83.7287 18.9726C83.3825 19.2383 83.1431 19.5341 83.0103 19.8601L81.3139 19.4737C81.5151 18.9103 81.8089 18.4555 82.1953 18.1094C82.5857 17.7592 83.0344 17.5057 83.5415 17.3487C84.0486 17.1877 84.5819 17.1072 85.1413 17.1072C85.5116 17.1072 85.904 17.1515 86.3185 17.24C86.7371 17.3246 87.1274 17.4815 87.4897 17.7109C87.8559 17.9403 88.1557 18.2683 88.3892 18.6949C88.6226 19.1175 88.7393 19.6669 88.7393 20.343V26.5007H86.9765V25.2329H86.9041C86.7874 25.4664 86.6123 25.6958 86.3789 25.9212C86.1454 26.1465 85.8456 26.3337 85.4794 26.4826C85.1131 26.6315 84.6744 26.706 84.1633 26.706ZM84.5557 25.2571C85.0548 25.2571 85.4814 25.1585 85.8355 24.9613C86.1937 24.7641 86.4654 24.5065 86.6505 24.1886C86.8397 23.8666 86.9343 23.5225 86.9343 23.1562V21.9609C86.8699 22.0253 86.7451 22.0857 86.56 22.142C86.3789 22.1944 86.1716 22.2406 85.9382 22.2809C85.7047 22.3171 85.4774 22.3513 85.256 22.3835C85.0346 22.4117 84.8495 22.4358 84.7006 22.456C84.3505 22.5002 84.0305 22.5747 83.7407 22.6793C83.455 22.784 83.2256 22.9349 83.0525 23.1321C82.8835 23.3253 82.799 23.5828 82.799 23.9048C82.799 24.3515 82.964 24.6896 83.294 24.919C83.624 25.1444 84.0446 25.2571 84.5557 25.2571ZM91.2884 26.5007V14.1371H93.0934V18.7312H93.2021C93.3067 18.538 93.4577 18.3146 93.6549 18.0611C93.8521 17.8075 94.1258 17.5862 94.4759 17.397C94.826 17.2038 95.2889 17.1072 95.8644 17.1072C96.613 17.1072 97.2811 17.2964 97.8687 17.6747C98.4563 18.053 98.9171 18.5984 99.2511 19.3107C99.5892 20.0231 99.7582 20.8803 99.7582 21.8824C99.7582 22.8846 99.5912 23.7438 99.2571 24.4602C98.9231 25.1726 98.4643 25.7219 97.8807 26.1083C97.2972 26.4906 96.6311 26.6818 95.8825 26.6818C95.3191 26.6818 94.8582 26.5872 94.5 26.3981C94.1459 26.2089 93.8682 25.9876 93.667 25.734C93.4657 25.4805 93.3108 25.2551 93.2021 25.0579H93.0512V26.5007H91.2884ZM93.0572 21.8643C93.0572 22.5163 93.1518 23.0878 93.341 23.5788C93.5301 24.0698 93.8038 24.4542 94.162 24.7319C94.5202 25.0056 94.9589 25.1424 95.478 25.1424C96.0173 25.1424 96.4681 24.9995 96.8303 24.7138C97.1925 24.424 97.4662 24.0316 97.6513 23.5366C97.8405 23.0415 97.9351 22.4841 97.9351 21.8643C97.9351 21.2526 97.8425 20.7032 97.6574 20.2163C97.4763 19.7293 97.2026 19.3449 96.8363 19.0632C96.4741 18.7815 96.0214 18.6406 95.478 18.6406C94.9548 18.6406 94.5121 18.7754 94.1499 19.0451C93.7917 19.3147 93.5201 19.691 93.3349 20.174C93.1498 20.6569 93.0572 21.2204 93.0572 21.8643ZM103.59 14.1371V26.5007H101.785V14.1371H103.59ZM110.015 26.6878C109.101 26.6878 108.315 26.4926 107.655 26.1023C106.999 25.7078 106.491 25.1545 106.133 24.4421C105.779 23.7257 105.602 22.8866 105.602 21.9247C105.602 20.9749 105.779 20.1378 106.133 19.4133C106.491 18.6889 106.99 18.1234 107.63 17.717C108.274 17.3105 109.027 17.1072 109.888 17.1072C110.411 17.1072 110.918 17.1938 111.409 17.3668C111.9 17.5399 112.341 17.8115 112.732 18.1818C113.122 18.5521 113.43 19.033 113.655 19.6246C113.881 20.2122 113.993 20.9266 113.993 21.7677V22.4077H106.622V21.0554H112.224C112.224 20.5805 112.128 20.1599 111.935 19.7937C111.742 19.4234 111.47 19.1316 111.12 18.9183C110.774 18.705 110.367 18.5984 109.9 18.5984C109.393 18.5984 108.95 18.7231 108.572 18.9726C108.198 19.2181 107.908 19.5401 107.703 19.9386C107.502 20.333 107.401 20.7616 107.401 21.2244V22.2809C107.401 22.9007 107.51 23.4279 107.727 23.8626C107.948 24.2972 108.256 24.6292 108.651 24.8587C109.045 25.084 109.506 25.1967 110.033 25.1967C110.375 25.1967 110.687 25.1484 110.969 25.0518C111.251 24.9512 111.494 24.8023 111.699 24.6051C111.905 24.4079 112.061 24.1644 112.17 23.8746L113.879 24.1825C113.742 24.6856 113.496 25.1263 113.142 25.5046C112.792 25.8789 112.351 26.1707 111.82 26.38C111.293 26.5852 110.691 26.6878 110.015 26.6878ZM124.401 26.6878C123.532 26.6878 122.773 26.4886 122.125 26.0902C121.477 25.6917 120.974 25.1343 120.616 24.418C120.258 23.7016 120.079 22.8645 120.079 21.9066C120.079 20.9447 120.258 20.1036 120.616 19.3832C120.974 18.6627 121.477 18.1033 122.125 17.7049C122.773 17.3065 123.532 17.1072 124.401 17.1072C125.27 17.1072 126.029 17.3065 126.677 17.7049C127.325 18.1033 127.828 18.6627 128.186 19.3832C128.544 20.1036 128.723 20.9447 128.723 21.9066C128.723 22.8645 128.544 23.7016 128.186 24.418C127.828 25.1343 127.325 25.6917 126.677 26.0902C126.029 26.4886 125.27 26.6878 124.401 26.6878ZM124.407 25.1726C124.97 25.1726 125.437 25.0237 125.808 24.7258C126.178 24.428 126.452 24.0316 126.629 23.5366C126.81 23.0415 126.9 22.4962 126.9 21.9006C126.9 21.3089 126.81 20.7656 126.629 20.2706C126.452 19.7715 126.178 19.3711 125.808 19.0692C125.437 18.7674 124.97 18.6165 124.407 18.6165C123.84 18.6165 123.369 18.7674 122.994 19.0692C122.624 19.3711 122.348 19.7715 122.167 20.2706C121.99 20.7656 121.902 21.3089 121.902 21.9006C121.902 22.4962 121.99 23.0415 122.167 23.5366C122.348 24.0316 122.624 24.428 122.994 24.7258C123.369 25.0237 123.84 25.1726 124.407 25.1726ZM132.543 20.995V26.5007H130.738V17.228H132.471V18.7372H132.586C132.799 18.2462 133.133 17.8518 133.588 17.554C134.046 17.2561 134.624 17.1072 135.32 17.1072C135.952 17.1072 136.506 17.24 136.98 17.5057C137.455 17.7673 137.824 18.1577 138.085 18.6768C138.347 19.196 138.478 19.8379 138.478 20.6026V26.5007H136.673V20.8199C136.673 20.1478 136.497 19.6226 136.147 19.2443C135.797 18.862 135.316 18.6708 134.704 18.6708C134.286 18.6708 133.914 18.7614 133.588 18.9425C133.266 19.1236 133.01 19.3892 132.821 19.7393C132.636 20.0855 132.543 20.504 132.543 20.995Z" fill="#E8E8E8"/>
<path d="M144.937 26.0007V16.728H147.744V18.4304H147.847C148.04 17.8669 148.366 17.4222 148.825 17.0962C149.284 16.7702 149.831 16.6072 150.467 16.6072C151.111 16.6072 151.662 16.7722 152.121 17.1023C152.58 17.4323 152.872 17.875 152.996 18.4304H153.093C153.266 17.879 153.604 17.4383 154.107 17.1083C154.61 16.7743 155.204 16.6072 155.888 16.6072C156.765 16.6072 157.478 16.889 158.025 17.4524C158.573 18.0118 158.846 18.7805 158.846 19.7585V26.0007H155.894V20.4346C155.894 19.9718 155.775 19.6197 155.538 19.3782C155.3 19.1327 154.993 19.0099 154.614 19.0099C154.208 19.0099 153.888 19.1427 153.654 19.4084C153.425 19.67 153.31 20.0221 153.31 20.4648V26.0007H150.473V20.4045C150.473 19.9738 150.356 19.6337 150.123 19.3842C149.889 19.1347 149.582 19.0099 149.199 19.0099C148.942 19.0099 148.714 19.0723 148.517 19.1971C148.32 19.3178 148.165 19.4909 148.052 19.7163C147.943 19.9416 147.889 20.2073 147.889 20.5131V26.0007H144.937ZM163.289 26.1577C162.698 26.1577 162.173 26.0591 161.714 25.8618C161.259 25.6606 160.899 25.3588 160.633 24.9563C160.372 24.5498 160.241 24.0407 160.241 23.429C160.241 22.9138 160.331 22.4792 160.512 22.125C160.693 21.7708 160.943 21.4831 161.261 21.2617C161.579 21.0404 161.945 20.8733 162.36 20.7606C162.774 20.6439 163.217 20.5654 163.688 20.5252C164.215 20.4769 164.64 20.4266 164.962 20.3743C165.284 20.3179 165.517 20.2395 165.662 20.1388C165.811 20.0342 165.885 19.8873 165.885 19.6981V19.668C165.885 19.3581 165.779 19.1186 165.565 18.9496C165.352 18.7805 165.064 18.696 164.702 18.696C164.312 18.696 163.998 18.7805 163.76 18.9496C163.523 19.1186 163.372 19.352 163.307 19.6498L160.585 19.5533C160.665 18.9898 160.873 18.4867 161.207 18.044C161.545 17.5973 162.008 17.2471 162.595 16.9936C163.187 16.736 163.897 16.6072 164.726 16.6072C165.318 16.6072 165.863 16.6777 166.362 16.8185C166.861 16.9554 167.296 17.1566 167.666 17.4222C168.036 17.6838 168.322 18.0058 168.523 18.3881C168.729 18.7705 168.831 19.2071 168.831 19.6981V26.0007H166.054V24.7088H165.982C165.817 25.0227 165.606 25.2883 165.348 25.5057C165.094 25.723 164.795 25.886 164.448 25.9947C164.106 26.1033 163.72 26.1577 163.289 26.1577ZM164.201 24.2258C164.519 24.2258 164.805 24.1614 165.058 24.0327C165.316 23.9039 165.521 23.7268 165.674 23.5014C165.827 23.272 165.903 23.0064 165.903 22.7045V21.8231C165.819 21.8674 165.716 21.9077 165.595 21.9439C165.479 21.9801 165.35 22.0143 165.209 22.0465C165.068 22.0787 164.923 22.1069 164.774 22.131C164.626 22.1552 164.483 22.1773 164.346 22.1974C164.068 22.2417 163.831 22.3101 163.633 22.4027C163.44 22.4953 163.291 22.616 163.187 22.7649C163.086 22.9098 163.036 23.0828 163.036 23.2841C163.036 23.59 163.144 23.8234 163.362 23.9844C163.583 24.1453 163.863 24.2258 164.201 24.2258ZM174.965 26.1758C173.987 26.1758 173.148 25.9745 172.447 25.5721C171.751 25.1696 171.216 24.6102 170.842 23.8938C170.467 23.1734 170.28 22.3403 170.28 21.3945C170.28 20.4447 170.467 19.6116 170.842 18.8952C171.22 18.1748 171.757 17.6134 172.453 17.2109C173.154 16.8085 173.989 16.6072 174.959 16.6072C175.816 16.6072 176.563 16.7622 177.198 17.0721C177.838 17.382 178.337 17.8207 178.696 18.3881C179.058 18.9516 179.249 19.6136 179.269 20.3743H176.51C176.454 19.8994 176.293 19.5271 176.027 19.2574C175.766 18.9878 175.424 18.853 175.001 18.853C174.659 18.853 174.359 18.9496 174.102 19.1427C173.844 19.3319 173.643 19.6136 173.498 19.9879C173.357 20.3582 173.287 20.817 173.287 21.3643C173.287 21.9117 173.357 22.3745 173.498 22.7528C173.643 23.1271 173.844 23.4109 174.102 23.604C174.359 23.7932 174.659 23.8878 175.001 23.8878C175.275 23.8878 175.516 23.8294 175.725 23.7127C175.939 23.596 176.114 23.4249 176.251 23.1996C176.387 22.9702 176.474 22.6925 176.51 22.3665H179.269C179.241 23.1311 179.05 23.7992 178.696 24.3707C178.345 24.9422 177.852 25.3869 177.217 25.7049C176.585 26.0188 175.834 26.1758 174.965 26.1758ZM192.449 19.8189C192.449 21.1792 192.188 22.3323 191.664 23.278C191.141 24.2238 190.433 24.9422 189.539 25.4332C188.65 25.9242 187.652 26.1697 186.545 26.1697C185.434 26.1697 184.434 25.9222 183.545 25.4272C182.655 24.9322 181.949 24.2138 181.426 23.272C180.907 22.3262 180.647 21.1752 180.647 19.8189C180.647 18.4586 180.907 17.3055 181.426 16.3597C181.949 15.4139 182.655 14.6955 183.545 14.2045C184.434 13.7135 185.434 13.468 186.545 13.468C187.652 13.468 188.65 13.7135 189.539 14.2045C190.433 14.6955 191.141 15.4139 191.664 16.3597C192.188 17.3055 192.449 18.4586 192.449 19.8189ZM189.395 19.8189C189.395 19.014 189.28 18.3338 189.05 17.7784C188.825 17.223 188.499 16.8024 188.072 16.5167C187.65 16.2309 187.141 16.0881 186.545 16.0881C185.954 16.0881 185.444 16.2309 185.018 16.5167C184.591 16.8024 184.263 17.223 184.034 17.7784C183.808 18.3338 183.696 19.014 183.696 19.8189C183.696 20.6238 183.808 21.304 184.034 21.8594C184.263 22.4148 184.591 22.8353 185.018 23.1211C185.444 23.4068 185.954 23.5497 186.545 23.5497C187.141 23.5497 187.65 23.4068 188.072 23.1211C188.499 22.8353 188.825 22.4148 189.05 21.8594C189.28 21.304 189.395 20.6238 189.395 19.8189ZM200.877 17.3437C200.837 16.901 200.657 16.5569 200.34 16.3114C200.026 16.0619 199.577 15.9371 198.993 15.9371C198.607 15.9371 198.285 15.9874 198.027 16.0881C197.77 16.1887 197.577 16.3275 197.448 16.5046C197.319 16.6777 197.253 16.8769 197.249 17.1023C197.241 17.2874 197.277 17.4504 197.357 17.5913C197.442 17.7321 197.563 17.8569 197.719 17.9655C197.88 18.0702 198.074 18.1627 198.299 18.2432C198.524 18.3237 198.778 18.3942 199.06 18.4545L200.122 18.696C200.734 18.8288 201.273 19.0059 201.74 19.2273C202.211 19.4486 202.605 19.7122 202.923 20.0181C203.245 20.324 203.489 20.6761 203.654 21.0746C203.819 21.473 203.903 21.9197 203.907 22.4148C203.903 23.1955 203.706 23.8656 203.316 24.4251C202.925 24.9845 202.364 25.4131 201.631 25.7109C200.903 26.0087 200.024 26.1577 198.993 26.1577C197.959 26.1577 197.057 26.0027 196.289 25.6928C195.52 25.3829 194.922 24.912 194.496 24.2802C194.069 23.6483 193.85 22.8494 193.838 21.8835H196.699C196.723 22.2819 196.83 22.614 197.019 22.8796C197.208 23.1452 197.468 23.3465 197.798 23.4833C198.132 23.6201 198.518 23.6886 198.957 23.6886C199.36 23.6886 199.702 23.6342 199.983 23.5256C200.269 23.4169 200.488 23.266 200.641 23.0728C200.794 22.8796 200.873 22.6583 200.877 22.4087C200.873 22.1753 200.8 21.9761 200.659 21.8111C200.519 21.642 200.301 21.4971 200.007 21.3764C199.718 21.2516 199.347 21.1369 198.897 21.0323L197.605 20.7305C196.534 20.485 195.691 20.0885 195.075 19.5412C194.46 18.9898 194.154 18.2453 194.158 17.3075C194.154 16.5428 194.359 15.8727 194.773 15.2972C195.188 14.7217 195.762 14.273 196.494 13.951C197.226 13.629 198.062 13.468 198.999 13.468C199.957 13.468 200.788 13.631 201.493 13.957C202.201 14.279 202.75 14.7318 203.141 15.3153C203.531 15.8989 203.73 16.575 203.738 17.3437H200.877Z" fill="white"/>
</g>
<defs>
<filter id="filter0_d_1_56" x="2.39972" y="0.39972" width="39.202" height="39.202" filterUnits="userSpaceOnUse" color-interpolation-filters="sRGB">
<feFlood flood-opacity="0" result="BackgroundImageFix"/>
<feColorMatrix in="SourceAlpha" type="matrix" values="0 0 0 0 0 0 0 0 0 0 0 0 0 0 0 0 0 0 127 0" result="hardAlpha"/>
<feOffset/>
<feGaussianBlur stdDeviation="2.80014"/>
<feComposite in2="hardAlpha" operator="out"/>
<feColorMatrix type="matrix" values="0 0 0 0 0 0 0 0 0 0 0 0 0 0 0 0 0 0 0.25 0"/>
<feBlend mode="normal" in2="BackgroundImageFix" result="effect1_dropShadow_1_56"/>
<feBlend mode="normal" in="SourceGraphic" in2="effect1_dropShadow_1_56" result="shape"/>
</filter>
<filter id="filter1_d_1_56" x="36.2871" y="3.78642" width="174.429" height="32.4286" filterUnits="userSpaceOnUse" color-interpolation-filters="sRGB">
<feFlood flood-opacity="0" result="BackgroundImageFix"/>
<feColorMatrix in="SourceAlpha" type="matrix" values="0 0 0 0 0 0 0 0 0 0 0 0 0 0 0 0 0 0 127 0" result="hardAlpha"/>
<feOffset/>
<feGaussianBlur stdDeviation="2.85714"/>
<feComposite in2="hardAlpha" operator="out"/>
<feColorMatrix type="matrix" values="0 0 0 0 0 0 0 0 0 0 0 0 0 0 0 0 0 0 0.25 0"/>
<feBlend mode="normal" in2="BackgroundImageFix" result="effect1_dropShadow_1_56"/>
<feBlend mode="normal" in="SourceGraphic" in2="effect1_dropShadow_1_56" result="shape"/>
</filter>
<linearGradient id="paint0_linear_1_56" x1="106.501" y1="0" x2="106.501" y2="40.0014" gradientUnits="userSpaceOnUse">
<stop stop-color="#1E1E1E"/>
<stop offset="1" stop-color="#0D0D0D"/>
</linearGradient>
</defs>
</svg>
