<svg width="164" height="56" viewBox="0 0 164 56" fill="none" xmlns="http://www.w3.org/2000/svg">
<rect width="164" height="56" rx="8" fill="url(#paint0_linear_1_50)"/>
<rect x="1.05" y="1.05" width="161.9" height="53.9" rx="6.95" stroke="white" stroke-opacity="0.15" stroke-width="2.1"/>
<g filter="url(#filter0_d_1_50)">
<path d="M47.5578 21.6374C47.3237 21.8174 43.1908 24.1256 43.1908 29.2581C43.1908 35.1947 48.4497 37.2949 48.6071 37.3469C48.5829 37.4749 47.7717 40.2232 45.8344 43.0235C44.107 45.4877 42.3029 47.948 39.5584 47.948C36.8139 47.948 36.1076 46.3678 32.9394 46.3678C29.8518 46.3678 28.754 48 26.2436 48C23.7332 48 21.9816 45.7198 19.9676 42.9195C17.6348 39.6312 15.75 34.5227 15.75 29.6742C15.75 21.8974 20.8515 17.773 25.8723 17.773C28.5401 17.773 30.764 19.5092 32.4389 19.5092C34.0331 19.5092 36.5193 17.669 39.5544 17.669C40.7046 17.669 44.8375 17.773 47.5578 21.6374V21.6374ZM38.1135 14.3766C39.3687 12.9005 40.2566 10.8523 40.2566 8.80408C40.2566 8.52005 40.2324 8.23202 40.18 8C38.1377 8.07601 35.7081 9.34814 34.243 11.0323C33.0927 12.3284 32.0192 14.3766 32.0192 16.4528C32.0192 16.7649 32.0716 17.0769 32.0958 17.1769C32.225 17.2009 32.4349 17.2289 32.6447 17.2289C34.4771 17.2289 36.7816 16.0128 38.1135 14.3766Z" fill="white"/>
</g>
<g filter="url(#filter1_d_1_50)">
<path d="M62.2613 24.5H60.3977L64.5852 12.8636H66.6136L70.8011 24.5H68.9375L65.6477 14.9773H65.5568L62.2613 24.5ZM62.5738 19.9432H68.6193V21.4204H62.5738V19.9432ZM78.7173 15.7727L75.5525 24.5H73.7344L70.5639 15.7727H72.3878L74.598 22.4886H74.6889L76.8934 15.7727H78.7173ZM82.6037 24.6932C82.0506 24.6932 81.5506 24.5909 81.1037 24.3864C80.6567 24.178 80.3025 23.8769 80.0412 23.4829C79.7836 23.089 79.6548 22.6061 79.6548 22.0341C79.6548 21.5417 79.7495 21.1364 79.9389 20.8182C80.1283 20.5 80.384 20.2481 80.7059 20.0625C81.0279 19.8769 81.3878 19.7367 81.7855 19.642C82.1832 19.5473 82.5885 19.4754 83.0014 19.4261C83.5241 19.3655 83.9484 19.3163 84.2741 19.2784C84.5999 19.2367 84.8366 19.1704 84.9844 19.0795C85.1321 18.9886 85.2059 18.8409 85.2059 18.6364V18.5966C85.2059 18.1004 85.0658 17.7159 84.7855 17.4432C84.509 17.1704 84.0961 17.0341 83.5469 17.0341C82.9749 17.0341 82.5241 17.161 82.1946 17.4148C81.8688 17.6648 81.6434 17.9432 81.5184 18.25L79.9219 17.8864C80.1112 17.3561 80.3878 16.928 80.7514 16.6023C81.1188 16.2727 81.5412 16.0341 82.0184 15.8864C82.4957 15.7348 82.9976 15.6591 83.5241 15.6591C83.8726 15.6591 84.2419 15.7008 84.6321 15.7841C85.026 15.8636 85.3934 16.0114 85.7344 16.2273C86.079 16.4432 86.3612 16.7519 86.5809 17.1534C86.8006 17.5511 86.9105 18.0682 86.9105 18.7045V24.5H85.2514V23.3068H85.1832C85.0734 23.5265 84.9086 23.7424 84.6889 23.9545C84.4692 24.1667 84.187 24.3428 83.8423 24.4829C83.4976 24.6231 83.0847 24.6932 82.6037 24.6932ZM82.973 23.3295C83.4427 23.3295 83.8442 23.2367 84.1775 23.0511C84.5147 22.8655 84.7703 22.6231 84.9446 22.3239C85.1226 22.0208 85.2116 21.697 85.2116 21.3523V20.2273C85.151 20.2879 85.0336 20.3447 84.8594 20.3977C84.6889 20.447 84.4938 20.4905 84.2741 20.5284C84.0544 20.5625 83.8404 20.5947 83.6321 20.625C83.4237 20.6515 83.2495 20.6742 83.1094 20.6932C82.7798 20.7348 82.4787 20.8049 82.2059 20.9034C81.937 21.0019 81.7211 21.1439 81.5582 21.3295C81.3991 21.5114 81.3196 21.7538 81.3196 22.0568C81.3196 22.4773 81.4749 22.7954 81.7855 23.0114C82.0961 23.2235 82.4919 23.3295 82.973 23.3295ZM89.1733 24.5V15.7727H90.8721V24.5H89.1733ZM90.0312 14.4261C89.7358 14.4261 89.482 14.3276 89.2699 14.1307C89.0615 13.9299 88.9574 13.6913 88.9574 13.4148C88.9574 13.1345 89.0615 12.8958 89.2699 12.6989C89.482 12.4981 89.7358 12.3977 90.0312 12.3977C90.3267 12.3977 90.5786 12.4981 90.7869 12.6989C90.999 12.8958 91.1051 13.1345 91.1051 13.4148C91.1051 13.6913 90.999 13.9299 90.7869 14.1307C90.5786 14.3276 90.3267 14.4261 90.0312 14.4261ZM94.8565 12.8636V24.5H93.1576V12.8636H94.8565ZM99.6818 24.6932C99.1288 24.6932 98.6288 24.5909 98.1818 24.3864C97.7348 24.178 97.3807 23.8769 97.1193 23.4829C96.8617 23.089 96.7329 22.6061 96.7329 22.0341C96.7329 21.5417 96.8276 21.1364 97.017 20.8182C97.2064 20.5 97.4621 20.2481 97.7841 20.0625C98.106 19.8769 98.4659 19.7367 98.8636 19.642C99.2613 19.5473 99.6666 19.4754 100.08 19.4261C100.602 19.3655 101.026 19.3163 101.352 19.2784C101.678 19.2367 101.915 19.1704 102.062 19.0795C102.21 18.9886 102.284 18.8409 102.284 18.6364V18.5966C102.284 18.1004 102.144 17.7159 101.864 17.4432C101.587 17.1704 101.174 17.0341 100.625 17.0341C100.053 17.0341 99.6022 17.161 99.2727 17.4148C98.9469 17.6648 98.7216 17.9432 98.5966 18.25L97 17.8864C97.1894 17.3561 97.4659 16.928 97.8295 16.6023C98.1969 16.2727 98.6193 16.0341 99.0966 15.8864C99.5738 15.7348 100.076 15.6591 100.602 15.6591C100.951 15.6591 101.32 15.7008 101.71 15.7841C102.104 15.8636 102.472 16.0114 102.812 16.2273C103.157 16.4432 103.439 16.7519 103.659 17.1534C103.879 17.5511 103.989 18.0682 103.989 18.7045V24.5H102.33V23.3068H102.261C102.151 23.5265 101.987 23.7424 101.767 23.9545C101.547 24.1667 101.265 24.3428 100.92 24.4829C100.576 24.6231 100.163 24.6932 99.6818 24.6932ZM100.051 23.3295C100.521 23.3295 100.922 23.2367 101.256 23.0511C101.593 22.8655 101.848 22.6231 102.023 22.3239C102.201 22.0208 102.29 21.697 102.29 21.3523V20.2273C102.229 20.2879 102.112 20.3447 101.937 20.3977C101.767 20.447 101.572 20.4905 101.352 20.5284C101.133 20.5625 100.919 20.5947 100.71 20.625C100.502 20.6515 100.328 20.6742 100.187 20.6932C99.8579 20.7348 99.5568 20.8049 99.2841 20.9034C99.0151 21.0019 98.7992 21.1439 98.6363 21.3295C98.4772 21.5114 98.3977 21.7538 98.3977 22.0568C98.3977 22.4773 98.553 22.7954 98.8636 23.0114C99.1742 23.2235 99.57 23.3295 100.051 23.3295ZM106.388 24.5V12.8636H108.087V17.1875H108.189C108.287 17.0057 108.429 16.7954 108.615 16.5568C108.801 16.3182 109.058 16.1098 109.388 15.9318C109.717 15.75 110.153 15.6591 110.695 15.6591C111.399 15.6591 112.028 15.8371 112.581 16.1932C113.134 16.5492 113.568 17.0625 113.882 17.7329C114.2 18.4034 114.359 19.2102 114.359 20.1534C114.359 21.0966 114.202 21.9053 113.888 22.5795C113.573 23.25 113.142 23.767 112.592 24.1307C112.043 24.4905 111.416 24.6704 110.712 24.6704C110.181 24.6704 109.748 24.5814 109.41 24.4034C109.077 24.2254 108.816 24.017 108.626 23.7784C108.437 23.5398 108.291 23.3276 108.189 23.142H108.047V24.5H106.388ZM108.053 20.1364C108.053 20.75 108.142 21.2879 108.32 21.75C108.498 22.2121 108.755 22.5739 109.092 22.8352C109.429 23.0928 109.842 23.2216 110.331 23.2216C110.839 23.2216 111.263 23.0871 111.604 22.8182C111.945 22.5454 112.202 22.1761 112.376 21.7102C112.554 21.2443 112.643 20.7197 112.643 20.1364C112.643 19.5606 112.556 19.0436 112.382 18.5852C112.212 18.1269 111.954 17.7651 111.609 17.5C111.268 17.2348 110.842 17.1023 110.331 17.1023C109.839 17.1023 109.422 17.2292 109.081 17.4829C108.744 17.7367 108.488 18.0909 108.314 18.5454C108.14 19 108.053 19.5303 108.053 20.1364ZM117.966 12.8636V24.5H116.267V12.8636H117.966ZM124.013 24.6761C123.153 24.6761 122.412 24.4924 121.791 24.125C121.174 23.7538 120.696 23.2329 120.359 22.5625C120.026 21.8883 119.859 21.0985 119.859 20.1932C119.859 19.2992 120.026 18.5114 120.359 17.8295C120.696 17.1477 121.166 16.6155 121.768 16.2329C122.374 15.8504 123.083 15.6591 123.893 15.6591C124.386 15.6591 124.863 15.7405 125.325 15.9034C125.787 16.0663 126.202 16.322 126.57 16.6704C126.937 17.0189 127.227 17.4716 127.439 18.0284C127.651 18.5814 127.757 19.2538 127.757 20.0454V20.6477H120.82V19.375H126.092C126.092 18.928 126.001 18.5322 125.82 18.1875C125.638 17.839 125.382 17.5644 125.053 17.3636C124.727 17.1629 124.344 17.0625 123.905 17.0625C123.428 17.0625 123.011 17.1799 122.655 17.4148C122.303 17.6458 122.03 17.9489 121.837 18.3239C121.647 18.6951 121.553 19.0985 121.553 19.5341V20.5284C121.553 21.1117 121.655 21.6079 121.859 22.017C122.068 22.4261 122.357 22.7386 122.729 22.9545C123.1 23.1667 123.534 23.2727 124.03 23.2727C124.352 23.2727 124.645 23.2273 124.91 23.1364C125.176 23.0417 125.405 22.9015 125.598 22.7159C125.791 22.5303 125.939 22.3011 126.041 22.0284L127.649 22.3182C127.52 22.7917 127.289 23.2064 126.956 23.5625C126.626 23.9148 126.212 24.1894 125.712 24.3864C125.215 24.5795 124.649 24.6761 124.013 24.6761ZM137.553 24.6761C136.734 24.6761 136.02 24.4886 135.41 24.1136C134.801 23.7386 134.327 23.214 133.99 22.5398C133.653 21.8655 133.484 21.0776 133.484 20.1761C133.484 19.2708 133.653 18.4792 133.99 17.8011C134.327 17.1231 134.801 16.5966 135.41 16.2216C136.02 15.8466 136.734 15.6591 137.553 15.6591C138.371 15.6591 139.085 15.8466 139.695 16.2216C140.304 16.5966 140.778 17.1231 141.115 17.8011C141.452 18.4792 141.621 19.2708 141.621 20.1761C141.621 21.0776 141.452 21.8655 141.115 22.5398C140.778 23.214 140.304 23.7386 139.695 24.1136C139.085 24.4886 138.371 24.6761 137.553 24.6761ZM137.558 23.25C138.089 23.25 138.528 23.1098 138.876 22.8295C139.225 22.5492 139.482 22.1761 139.649 21.7102C139.82 21.2443 139.905 20.7311 139.905 20.1704C139.905 19.6136 139.82 19.1023 139.649 18.6364C139.482 18.1667 139.225 17.7898 138.876 17.5057C138.528 17.2216 138.089 17.0795 137.558 17.0795C137.024 17.0795 136.581 17.2216 136.229 17.5057C135.88 17.7898 135.621 18.1667 135.45 18.6364C135.284 19.1023 135.2 19.6136 135.2 20.1704C135.2 20.7311 135.284 21.2443 135.45 21.7102C135.621 22.1761 135.88 22.5492 136.229 22.8295C136.581 23.1098 137.024 23.25 137.558 23.25ZM145.216 19.3182V24.5H143.517V15.7727H145.148V17.1932H145.256C145.456 16.7311 145.771 16.3598 146.199 16.0795C146.631 15.7992 147.174 15.6591 147.83 15.6591C148.424 15.6591 148.945 15.7841 149.392 16.0341C149.839 16.2803 150.186 16.6477 150.432 17.1364C150.678 17.625 150.801 18.2292 150.801 18.9489V24.5H149.102V19.1534C149.102 18.5208 148.937 18.0265 148.608 17.6704C148.278 17.3106 147.826 17.1307 147.25 17.1307C146.856 17.1307 146.506 17.2159 146.199 17.3864C145.896 17.5568 145.655 17.8068 145.477 18.1364C145.303 18.4621 145.216 18.8561 145.216 19.3182Z" fill="#E8E8E8"/>
<path d="M60.9357 43.5V34.2273H63.7429V35.9297H63.8455C64.0387 35.3662 64.3647 34.9215 64.8235 34.5955C65.2823 34.2695 65.8296 34.1065 66.4655 34.1065C67.1095 34.1065 67.6608 34.2715 68.1197 34.6016C68.5785 34.9316 68.8702 35.3743 68.995 35.9297H69.0916C69.2647 35.3783 69.6027 34.9376 70.1058 34.6076C70.6089 34.2735 71.2025 34.1065 71.8867 34.1065C72.7641 34.1065 73.4764 34.3882 74.0238 34.9517C74.5711 35.5111 74.8448 36.2798 74.8448 37.2578V43.5H71.8927V37.9339C71.8927 37.4711 71.774 37.119 71.5366 36.8775C71.2991 36.632 70.9912 36.5092 70.6129 36.5092C70.2064 36.5092 69.8865 36.642 69.653 36.9077C69.4236 37.1693 69.3089 37.5214 69.3089 37.9641V43.5H66.4716V37.9038C66.4716 37.4731 66.3549 37.133 66.1214 36.8835C65.888 36.634 65.5801 36.5092 65.1978 36.5092C64.9402 36.5092 64.7128 36.5716 64.5156 36.6964C64.3184 36.8171 64.1635 36.9902 64.0508 37.2155C63.9421 37.4409 63.8878 37.7065 63.8878 38.0124V43.5H60.9357ZM79.288 43.6569C78.6964 43.6569 78.1711 43.5583 77.7123 43.3611C77.2576 43.1599 76.8974 42.8581 76.6317 42.4556C76.3701 42.0491 76.2393 41.54 76.2393 40.9283C76.2393 40.4131 76.3299 39.9784 76.511 39.6243C76.6921 39.2701 76.9416 38.9824 77.2596 38.761C77.5775 38.5396 77.9438 38.3726 78.3583 38.2599C78.7728 38.1432 79.2155 38.0647 79.6864 38.0245C80.2136 37.9762 80.6382 37.9259 80.9602 37.8736C81.2822 37.8172 81.5156 37.7387 81.6605 37.6381C81.8094 37.5335 81.8839 37.3866 81.8839 37.1974V37.1672C81.8839 36.8574 81.7772 36.6179 81.5639 36.4489C81.3506 36.2798 81.0628 36.1953 80.7006 36.1953C80.3102 36.1953 79.9963 36.2798 79.7589 36.4489C79.5214 36.6179 79.3705 36.8513 79.3061 37.1491L76.5834 37.0525C76.6639 36.4891 76.8712 35.986 77.2052 35.5433C77.5433 35.0966 78.0061 34.7464 78.5937 34.4929C79.1853 34.2353 79.8957 34.1065 80.7248 34.1065C81.3164 34.1065 81.8617 34.177 82.3608 34.3178C82.8598 34.4547 83.2945 34.6559 83.6648 34.9215C84.035 35.1831 84.3208 35.5051 84.522 35.8874C84.7273 36.2698 84.8299 36.7064 84.8299 37.1974V43.5H82.0529V42.2081H81.9804C81.8154 42.522 81.6041 42.7876 81.3466 43.005C81.093 43.2223 80.7932 43.3853 80.4471 43.494C80.105 43.6026 79.7186 43.6569 79.288 43.6569ZM80.1996 41.7251C80.5175 41.7251 80.8032 41.6607 81.0568 41.5319C81.3144 41.4032 81.5196 41.2261 81.6726 41.0007C81.8255 40.7713 81.902 40.5057 81.902 40.2038V39.3224C81.8175 39.3667 81.7148 39.4069 81.5941 39.4432C81.4774 39.4794 81.3486 39.5136 81.2077 39.5458C81.0669 39.578 80.922 39.6062 80.7731 39.6303C80.6241 39.6545 80.4813 39.6766 80.3444 39.6967C80.0667 39.741 79.8293 39.8094 79.6321 39.902C79.4389 39.9945 79.29 40.1153 79.1853 40.2642C79.0847 40.4091 79.0344 40.5821 79.0344 40.7834C79.0344 41.0892 79.1431 41.3227 79.3604 41.4837C79.5818 41.6446 79.8615 41.7251 80.1996 41.7251ZM90.9634 43.6751C89.9854 43.6751 89.1463 43.4738 88.446 43.0714C87.7497 42.6689 87.2145 42.1095 86.8402 41.3931C86.4659 40.6727 86.2787 39.8396 86.2787 38.8938C86.2787 37.944 86.4659 37.1109 86.8402 36.3945C87.2185 35.6741 87.7558 35.1127 88.452 34.7102C89.1523 34.3078 89.9874 34.1065 90.9574 34.1065C91.8146 34.1065 92.5612 34.2615 93.1971 34.5714C93.837 34.8813 94.336 35.3199 94.6942 35.8874C95.0564 36.4509 95.2476 37.1129 95.2677 37.8736H92.5089C92.4525 37.3987 92.2915 37.0264 92.0259 36.7567C91.7643 36.4871 91.4222 36.3523 90.9996 36.3523C90.6575 36.3523 90.3577 36.4489 90.1001 36.642C89.8425 36.8312 89.6413 37.1129 89.4964 37.4872C89.3556 37.8575 89.2851 38.3163 89.2851 38.8636C89.2851 39.411 89.3556 39.8738 89.4964 40.2521C89.6413 40.6264 89.8425 40.9101 90.1001 41.1033C90.3577 41.2925 90.6575 41.3871 90.9996 41.3871C91.2733 41.3871 91.5148 41.3287 91.7241 41.212C91.9374 41.0953 92.1124 40.9242 92.2493 40.6989C92.3861 40.4694 92.4726 40.1918 92.5089 39.8658H95.2677C95.2396 40.6304 95.0484 41.2985 94.6942 41.87C94.3441 42.4415 93.8511 42.8862 93.2152 43.2042C92.5833 43.5181 91.8327 43.6751 90.9634 43.6751ZM108.448 37.3182C108.448 38.6785 108.186 39.8315 107.663 40.7773C107.14 41.7231 106.432 42.4415 105.538 42.9325C104.649 43.4235 103.651 43.669 102.544 43.669C101.433 43.669 100.433 43.4215 99.5434 42.9265C98.6539 42.4315 97.9476 41.7131 97.4244 40.7713C96.9052 39.8255 96.6457 38.6745 96.6457 37.3182C96.6457 35.9578 96.9052 34.8048 97.4244 33.859C97.9476 32.9132 98.6539 32.1948 99.5434 31.7038C100.433 31.2128 101.433 30.9673 102.544 30.9673C103.651 30.9673 104.649 31.2128 105.538 31.7038C106.432 32.1948 107.14 32.9132 107.663 33.859C108.186 34.8048 108.448 35.9578 108.448 37.3182ZM105.393 37.3182C105.393 36.5132 105.278 35.8331 105.049 35.2777C104.824 34.7223 104.498 34.3017 104.071 34.016C103.648 33.7302 103.139 33.5873 102.544 33.5873C101.952 33.5873 101.443 33.7302 101.016 34.016C100.59 34.3017 100.262 34.7223 100.032 35.2777C99.807 35.8331 99.6943 36.5132 99.6943 37.3182C99.6943 38.1231 99.807 38.8033 100.032 39.3587C100.262 39.9141 100.59 40.3346 101.016 40.6204C101.443 40.9061 101.952 41.049 102.544 41.049C103.139 41.049 103.648 40.9061 104.071 40.6204C104.498 40.3346 104.824 39.9141 105.049 39.3587C105.278 38.8033 105.393 38.1231 105.393 37.3182ZM116.875 34.843C116.835 34.4003 116.656 34.0562 116.338 33.8107C116.024 33.5612 115.575 33.4364 114.992 33.4364C114.606 33.4364 114.284 33.4867 114.026 33.5873C113.768 33.688 113.575 33.8268 113.446 34.0039C113.318 34.177 113.251 34.3762 113.247 34.6016C113.239 34.7867 113.275 34.9497 113.356 35.0905C113.44 35.2314 113.561 35.3562 113.718 35.4648C113.879 35.5695 114.072 35.662 114.298 35.7425C114.523 35.823 114.777 35.8935 115.058 35.9538L116.121 36.1953C116.733 36.3281 117.272 36.5052 117.739 36.7266C118.21 36.9479 118.604 37.2115 118.922 37.5174C119.244 37.8233 119.487 38.1754 119.652 38.5739C119.817 38.9723 119.902 39.419 119.906 39.9141C119.902 40.6948 119.705 41.3649 119.314 41.9243C118.924 42.4838 118.363 42.9124 117.63 43.2102C116.902 43.508 116.022 43.6569 114.992 43.6569C113.958 43.6569 113.056 43.502 112.287 43.1921C111.519 42.8822 110.921 42.4113 110.494 41.7795C110.068 41.1476 109.848 40.3487 109.836 39.3828H112.698C112.722 39.7812 112.829 40.1133 113.018 40.3789C113.207 40.6445 113.467 40.8458 113.797 40.9826C114.131 41.1194 114.517 41.1878 114.956 41.1878C115.358 41.1878 115.7 41.1335 115.982 41.0248C116.268 40.9162 116.487 40.7653 116.64 40.5721C116.793 40.3789 116.871 40.1575 116.875 39.908C116.871 39.6746 116.799 39.4754 116.658 39.3104C116.517 39.1413 116.3 38.9964 116.006 38.8757C115.716 38.7509 115.346 38.6362 114.895 38.5316L113.603 38.2297C112.533 37.9842 111.69 37.5878 111.074 37.0405C110.458 36.4891 110.152 35.7445 110.156 34.8068C110.152 34.0421 110.358 33.372 110.772 32.7965C111.187 32.221 111.76 31.7722 112.493 31.4503C113.225 31.1283 114.06 30.9673 114.998 30.9673C115.956 30.9673 116.787 31.1303 117.491 31.4563C118.2 31.7783 118.749 32.2311 119.139 32.8146C119.53 33.3982 119.729 34.0743 119.737 34.843H116.875Z" fill="white"/>
</g>
<defs>
<filter id="filter0_d_1_50" x="6.28571" y="2.28571" width="51.4286" height="51.4286" filterUnits="userSpaceOnUse" color-interpolation-filters="sRGB">
<feFlood flood-opacity="0" result="BackgroundImageFix"/>
<feColorMatrix in="SourceAlpha" type="matrix" values="0 0 0 0 0 0 0 0 0 0 0 0 0 0 0 0 0 0 127 0" result="hardAlpha"/>
<feOffset/>
<feGaussianBlur stdDeviation="2.85714"/>
<feComposite in2="hardAlpha" operator="out"/>
<feColorMatrix type="matrix" values="0 0 0 0 0 0 0 0 0 0 0 0 0 0 0 0 0 0 0.25 0"/>
<feBlend mode="normal" in2="BackgroundImageFix" result="effect1_dropShadow_1_50"/>
<feBlend mode="normal" in="SourceGraphic" in2="effect1_dropShadow_1_50" result="shape"/>
</filter>
<filter id="filter1_d_1_50" x="54.4" y="3.9" width="103.2" height="48.2" filterUnits="userSpaceOnUse" color-interpolation-filters="sRGB">
<feFlood flood-opacity="0" result="BackgroundImageFix"/>
<feColorMatrix in="SourceAlpha" type="matrix" values="0 0 0 0 0 0 0 0 0 0 0 0 0 0 0 0 0 0 127 0" result="hardAlpha"/>
<feOffset/>
<feGaussianBlur stdDeviation="2.8"/>
<feComposite in2="hardAlpha" operator="out"/>
<feColorMatrix type="matrix" values="0 0 0 0 0 0 0 0 0 0 0 0 0 0 0 0 0 0 0.25 0"/>
<feBlend mode="normal" in2="BackgroundImageFix" result="effect1_dropShadow_1_50"/>
<feBlend mode="normal" in="SourceGraphic" in2="effect1_dropShadow_1_50" result="shape"/>
</filter>
<linearGradient id="paint0_linear_1_50" x1="82" y1="0" x2="82" y2="56" gradientUnits="userSpaceOnUse">
<stop stop-color="#1E1E1E"/>
<stop offset="1" stop-color="#0D0D0D"/>
</linearGradient>
</defs>
</svg>
