<svg width="212" height="40" viewBox="0 0 212 40" fill="none" xmlns="http://www.w3.org/2000/svg">
<rect width="212.001" height="40.0014" rx="8" fill="url(#paint0_linear_1_56)"/>
<rect x="1.07143" y="1.07143" width="209.858" height="37.8585" rx="6.92857" stroke="white" stroke-opacity="0.15" stroke-width="2.14286"/>
<g filter="url(#filter0_d_1_56)">
<path d="M24.0682 20.7933C23.6043 20.7997 24.156 21.0324 24.7617 21.1256C24.929 20.9949 25.0809 20.8627 25.2161 20.7342C24.8389 20.8266 24.455 20.8286 24.0682 20.7933Z" fill="#A80030"/>
<path d="M26.5585 20.1726C26.8347 19.7913 27.0361 19.3738 27.1071 18.9421C27.0451 19.2498 26.8781 19.5155 26.7209 19.7959C25.8536 20.342 26.6393 19.4716 26.7203 19.1409C25.7878 20.3146 26.5923 19.8447 26.5585 20.1726Z" fill="#A80030"/>
<path d="M27.4776 17.7808C27.5336 16.9453 27.3131 17.2094 27.239 17.5283C27.3255 17.5732 27.3939 18.1172 27.4776 17.7808Z" fill="#A80030"/>
<path d="M22.309 6.36121C22.5566 6.40561 22.8439 6.43969 22.8037 6.49882C23.0745 6.43944 23.1359 6.3847 22.309 6.36121Z" fill="#A80030"/>
<path d="M22.8037 6.49882L22.6286 6.53496L22.7915 6.52051L22.8037 6.49882Z" fill="#A80030"/>
<path d="M30.5244 18.0976C30.5521 18.8478 30.305 19.2119 30.0822 19.8563L29.6812 20.0567C29.3531 20.6939 29.713 20.4612 29.478 20.9681C28.9658 21.4235 27.9235 22.3933 27.5899 22.4818C27.3464 22.4764 27.7549 22.1945 27.8083 22.0839C27.1226 22.5549 27.2581 22.7909 26.2094 23.0769L26.1787 23.0088C23.5922 24.2256 19.9992 21.8141 20.0465 18.5238C20.0189 18.7327 19.968 18.6805 19.9107 18.765C19.7772 17.072 20.6925 15.3716 22.2362 14.6774C23.746 13.9299 25.5162 14.2366 26.5977 15.2446C26.0036 14.4664 24.8211 13.6415 23.4197 13.7187C22.0469 13.7404 20.7627 14.6128 20.3341 15.5598C19.6308 16.0026 19.5492 17.2667 19.2428 17.498C18.8304 20.5284 20.0183 21.8376 22.0278 23.3777C22.3441 23.591 22.1169 23.6233 22.1597 23.7856C21.4921 23.473 20.8807 23.001 20.378 22.4232C20.6447 22.8136 20.9326 23.1931 21.3046 23.4913C20.6752 23.2781 19.8343 21.966 19.5887 21.9125C20.6739 23.8554 23.9913 25.3198 25.7284 24.5933C24.9247 24.6229 23.9035 24.6098 23.0004 24.2759C22.6211 24.0808 22.1053 23.6764 22.1974 23.6008C24.5681 24.4864 27.017 24.2716 29.0683 22.6272C29.5901 22.2208 30.1601 21.5294 30.3249 21.5198C30.0767 21.8929 30.3672 21.6993 30.1767 22.0287C30.6967 21.1901 29.9508 21.6874 30.7142 20.5805L30.9961 20.9688C30.8913 20.2728 31.8606 19.4275 31.7622 18.3266C31.9845 17.9899 32.0103 18.6888 31.7743 19.4634C32.1017 18.6041 31.8606 18.466 31.9447 17.757C32.0356 17.9953 32.1549 18.2486 32.2161 18.5001C32.0028 17.6697 32.435 17.1017 32.5419 16.6192C32.4366 16.5725 32.2127 16.9863 32.1616 16.0055C32.1691 15.5795 32.2801 15.7821 32.323 15.6773C32.2393 15.6293 32.0199 15.3027 31.8864 14.6763C31.9832 14.5292 32.1451 15.0579 32.2767 15.0796C32.1921 14.5816 32.0462 14.2018 32.0403 13.8197C31.6556 13.0157 31.9042 13.9268 31.592 13.4745C31.1826 12.1972 31.9318 13.1781 31.9824 12.5977C32.6031 13.4969 32.9571 14.8906 33.1195 15.4679C32.9955 14.7641 32.7952 14.0823 32.5507 13.4226C32.7392 13.5018 32.2471 11.9744 32.7957 12.986C32.2096 10.8296 30.2874 8.81474 28.5191 7.86927C28.7355 8.06729 29.0086 8.31593 28.9105 8.35491C28.0311 7.83131 28.1858 7.79052 28.0598 7.56925C27.3433 7.27776 27.2963 7.59275 26.8218 7.56977C25.4715 6.85356 25.2112 6.92973 23.9686 6.481L24.0251 6.74512C23.1305 6.44718 22.9828 6.85821 22.0159 6.74616C21.9571 6.7002 22.3258 6.57989 22.6291 6.53574C21.7642 6.64985 21.8047 6.36533 20.9584 6.56723C21.167 6.42084 21.3875 6.32402 21.6101 6.19958C20.9047 6.24244 19.9262 6.61009 20.2282 6.27574C19.0778 6.78902 17.0345 7.50961 15.8879 8.5847L15.8517 8.34381C15.3263 8.97456 13.5606 10.2275 13.4199 11.0444L13.2794 11.0772C13.006 11.5402 12.8292 12.0648 12.6123 12.5411C12.2547 13.1505 12.0882 12.7756 12.139 12.8711C11.4357 14.2971 11.0864 15.4953 10.7846 16.478C10.9997 16.7994 10.7897 18.4131 10.8711 19.7045C10.5179 26.0827 15.3475 32.2756 20.6266 33.7054C21.4004 33.9822 22.5511 33.9716 23.5299 34C22.3751 33.6698 22.2258 33.8249 21.1009 33.4328C20.2894 33.0506 20.1115 32.6143 19.5368 32.1155L19.7643 32.5175C18.637 32.1186 19.1088 32.0238 18.1917 31.7334L18.4346 31.4161C18.0693 31.3884 17.467 30.8003 17.3022 30.4747L16.9026 30.4905C16.4223 29.8979 16.1665 29.4709 16.1851 29.1402L16.056 29.3702C15.9096 29.119 14.2892 27.148 15.1299 27.6068C14.9736 27.464 14.7661 27.3744 14.5409 26.9655L14.7121 26.7698C14.3075 26.2493 13.9675 25.5821 13.9933 25.3598C14.2092 25.6513 14.3589 25.7058 14.5071 25.7556C13.4855 23.2207 13.4281 25.6159 12.6544 23.1753L12.8181 23.1621C12.6926 22.9731 12.6164 22.7679 12.5155 22.5665L12.5867 21.8565C11.8511 21.006 12.3809 18.2403 12.4871 16.7235C12.5606 16.1067 13.101 15.4501 13.5121 14.4205L13.2616 14.3774C13.7403 13.5424 15.9948 11.024 17.0389 11.1536C17.5447 10.5183 16.9384 11.1513 16.8396 10.9912C17.9505 9.84155 18.2999 10.179 19.0496 9.97219C19.8583 9.49222 18.3556 10.1594 18.739 9.78914C20.1369 9.43206 19.7297 8.9774 21.5533 8.79615C21.7456 8.90562 21.1069 8.96526 20.9465 9.10727C22.1112 8.53745 24.6321 8.66706 26.2695 9.42354C28.1695 10.3114 30.3042 12.9362 30.3884 15.4057L30.4842 15.4315C30.4356 16.4132 30.6344 17.5484 30.29 18.5912L30.5244 18.0976Z" fill="#A80030"/>
<path d="M19.0042 21.4302L18.9391 21.7555C19.244 22.1697 19.486 22.6184 19.8753 22.9422C19.5952 22.3953 19.3871 22.1694 19.0042 21.4302Z" fill="#A80030"/>
<path d="M19.7251 21.4018C19.5637 21.2234 19.4682 21.0086 19.3613 20.7946C19.4635 21.1707 19.6729 21.494 19.8678 21.8227L19.7251 21.4018Z" fill="#A80030"/>
<path d="M32.4805 18.6294L32.4123 18.8003C32.2873 19.688 32.0175 20.5663 31.6039 21.3806C32.0609 20.5214 32.3565 19.5816 32.4805 18.6294Z" fill="#A80030"/>
<path d="M22.4006 6.13865C22.7143 6.02375 23.1718 6.07565 23.5046 6C23.0709 6.0364 22.6392 6.05809 22.2129 6.11309L22.4006 6.13865Z" fill="#A80030"/>
<path d="M11.3877 11.9948C11.46 12.664 10.8842 12.9238 11.5153 12.4825C11.8535 11.7206 11.3831 12.2721 11.3877 11.9948Z" fill="#A80030"/>
<path d="M10.6462 15.092C10.7916 14.6459 10.8179 14.3779 10.8734 14.1197C10.4717 14.6332 10.6885 14.7427 10.6462 15.092Z" fill="#A80030"/>
</g>
<g filter="url(#filter1_d_1_56)">
<path d="M44.4041 26.5007H42.424L46.8732 14.1371H49.0284L53.4776 26.5007H51.4975L48.0021 16.3828H47.9055L44.4041 26.5007ZM44.7361 21.6591H51.1594V23.2287H44.7361V21.6591ZM61.8886 17.228L58.526 26.5007H56.5942L53.2256 17.228H55.1634L57.5118 24.3636H57.6084L59.9507 17.228H61.8886ZM66.0178 26.706C65.4302 26.706 64.899 26.5973 64.4241 26.38C63.9492 26.1586 63.5729 25.8386 63.2952 25.4201C63.0215 25.0015 62.8846 24.4884 62.8846 23.8807C62.8846 23.3575 62.9853 22.9268 63.1865 22.5888C63.3877 22.2507 63.6594 21.9831 64.0015 21.7859C64.3436 21.5886 64.7259 21.4397 65.1485 21.3391C65.5711 21.2385 66.0017 21.162 66.4404 21.1097C66.9958 21.0453 67.4466 20.993 67.7927 20.9528C68.1388 20.9085 68.3903 20.8381 68.5473 20.7415C68.7042 20.6449 68.7827 20.4879 68.7827 20.2706V20.2283C68.7827 19.7011 68.6338 19.2926 68.336 19.0028C68.0422 18.7131 67.6035 18.5682 67.0199 18.5682C66.4122 18.5682 65.9333 18.703 65.5832 18.9726C65.237 19.2383 64.9976 19.5341 64.8648 19.8601L63.1684 19.4737C63.3696 18.9103 63.6634 18.4555 64.0498 18.1094C64.4402 17.7592 64.8889 17.5057 65.396 17.3487C65.9031 17.1877 66.4364 17.1072 66.9958 17.1072C67.3661 17.1072 67.7585 17.1515 68.173 17.24C68.5916 17.3246 68.9819 17.4815 69.3442 17.7109C69.7104 17.9403 70.0102 18.2683 70.2437 18.6949C70.4771 19.1175 70.5938 19.6669 70.5938 20.343V26.5007H68.831V25.2329H68.7586C68.6419 25.4664 68.4668 25.6958 68.2334 25.9212C67.9999 26.1465 67.7001 26.3337 67.3339 26.4826C66.9676 26.6315 66.5289 26.706 66.0178 26.706ZM66.4102 25.2571C66.9093 25.2571 67.3359 25.1585 67.69 24.9613C68.0482 24.7641 68.3199 24.5065 68.505 24.1886C68.6942 23.8666 68.7888 23.5225 68.7888 23.1562V21.9609C68.7244 22.0253 68.5996 22.0857 68.4145 22.142C68.2334 22.1944 68.0261 22.2406 67.7927 22.2809C67.5592 22.3171 67.3319 22.3513 67.1105 22.3835C66.8891 22.4117 66.704 22.4358 66.5551 22.456C66.205 22.5002 65.885 22.5747 65.5952 22.6793C65.3095 22.784 65.0801 22.9349 64.907 23.1321C64.738 23.3253 64.6535 23.5828 64.6535 23.9048C64.6535 24.3515 64.8185 24.6896 65.1485 24.919C65.4785 25.1444 65.8991 25.2571 66.4102 25.2571ZM72.998 26.5007V17.228H74.8031V26.5007H72.998ZM73.9096 15.7972C73.5957 15.7972 73.326 15.6926 73.1006 15.4833C72.8793 15.27 72.7686 15.0164 72.7686 14.7226C72.7686 14.4248 72.8793 14.1713 73.1006 13.962C73.326 13.7487 73.5957 13.642 73.9096 13.642C74.2235 13.642 74.4911 13.7487 74.7125 13.962C74.9379 14.1713 75.0506 14.4248 75.0506 14.7226C75.0506 15.0164 74.9379 15.27 74.7125 15.4833C74.4911 15.6926 74.2235 15.7972 73.9096 15.7972ZM79.0365 14.1371V26.5007H77.2314V14.1371H79.0365ZM84.1633 26.706C83.5757 26.706 83.0445 26.5973 82.5696 26.38C82.0947 26.1586 81.7184 25.8386 81.4407 25.4201C81.167 25.0015 81.0301 24.4884 81.0301 23.8807C81.0301 23.3575 81.1308 22.9268 81.332 22.5888C81.5332 22.2507 81.8049 21.9831 82.147 21.7859C82.4891 21.5886 82.8714 21.4397 83.294 21.3391C83.7166 21.2385 84.1472 21.162 84.5859 21.1097C85.1413 21.0453 85.5921 20.993 85.9382 20.9528C86.2843 20.9085 86.5358 20.8381 86.6928 20.7415C86.8497 20.6449 86.9282 20.4879 86.9282 20.2706V20.2283C86.9282 19.7011 86.7793 19.2926 86.4815 19.0028C86.1877 18.7131 85.749 18.5682 85.1654 18.5682C84.5577 18.5682 84.0788 18.703 83.7287 18.9726C83.3825 19.2383 83.1431 19.5341 83.0103 19.8601L81.3139 19.4737C81.5151 18.9103 81.8089 18.4555 82.1953 18.1094C82.5857 17.7592 83.0344 17.5057 83.5415 17.3487C84.0486 17.1877 84.5819 17.1072 85.1413 17.1072C85.5116 17.1072 85.904 17.1515 86.3185 17.24C86.7371 17.3246 87.1274 17.4815 87.4897 17.7109C87.8559 17.9403 88.1557 18.2683 88.3892 18.6949C88.6226 19.1175 88.7393 19.6669 88.7393 20.343V26.5007H86.9765V25.2329H86.9041C86.7874 25.4664 86.6123 25.6958 86.3789 25.9212C86.1454 26.1465 85.8456 26.3337 85.4794 26.4826C85.1131 26.6315 84.6744 26.706 84.1633 26.706ZM84.5557 25.2571C85.0548 25.2571 85.4814 25.1585 85.8355 24.9613C86.1937 24.7641 86.4654 24.5065 86.6505 24.1886C86.8397 23.8666 86.9343 23.5225 86.9343 23.1562V21.9609C86.8699 22.0253 86.7451 22.0857 86.56 22.142C86.3789 22.1944 86.1716 22.2406 85.9382 22.2809C85.7047 22.3171 85.4774 22.3513 85.256 22.3835C85.0346 22.4117 84.8495 22.4358 84.7006 22.456C84.3505 22.5002 84.0305 22.5747 83.7407 22.6793C83.455 22.784 83.2256 22.9349 83.0525 23.1321C82.8835 23.3253 82.799 23.5828 82.799 23.9048C82.799 24.3515 82.964 24.6896 83.294 24.919C83.624 25.1444 84.0446 25.2571 84.5557 25.2571ZM91.2884 26.5007V14.1371H93.0934V18.7312H93.2021C93.3067 18.538 93.4577 18.3146 93.6549 18.0611C93.8521 17.8075 94.1258 17.5862 94.4759 17.397C94.826 17.2038 95.2889 17.1072 95.8644 17.1072C96.613 17.1072 97.2811 17.2964 97.8687 17.6747C98.4563 18.053 98.9171 18.5984 99.2511 19.3107C99.5892 20.0231 99.7582 20.8803 99.7582 21.8824C99.7582 22.8846 99.5912 23.7438 99.2571 24.4602C98.9231 25.1726 98.4643 25.7219 97.8807 26.1083C97.2972 26.4906 96.6311 26.6818 95.8825 26.6818C95.3191 26.6818 94.8582 26.5872 94.5 26.3981C94.1459 26.2089 93.8682 25.9876 93.667 25.734C93.4657 25.4805 93.3108 25.2551 93.2021 25.0579H93.0512V26.5007H91.2884ZM93.0572 21.8643C93.0572 22.5163 93.1518 23.0878 93.341 23.5788C93.5301 24.0698 93.8038 24.4542 94.162 24.7319C94.5202 25.0056 94.9589 25.1424 95.478 25.1424C96.0173 25.1424 96.4681 24.9995 96.8303 24.7138C97.1925 24.424 97.4662 24.0316 97.6513 23.5366C97.8405 23.0415 97.9351 22.4841 97.9351 21.8643C97.9351 21.2526 97.8425 20.7032 97.6574 20.2163C97.4763 19.7293 97.2026 19.3449 96.8363 19.0632C96.4741 18.7815 96.0214 18.6406 95.478 18.6406C94.9548 18.6406 94.5121 18.7754 94.1499 19.0451C93.7917 19.3147 93.5201 19.691 93.3349 20.174C93.1498 20.6569 93.0572 21.2204 93.0572 21.8643ZM103.59 14.1371V26.5007H101.785V14.1371H103.59ZM110.015 26.6878C109.101 26.6878 108.315 26.4926 107.655 26.1023C106.999 25.7078 106.491 25.1545 106.133 24.4421C105.779 23.7257 105.602 22.8866 105.602 21.9247C105.602 20.9749 105.779 20.1378 106.133 19.4133C106.491 18.6889 106.99 18.1234 107.63 17.717C108.274 17.3105 109.027 17.1072 109.888 17.1072C110.411 17.1072 110.918 17.1938 111.409 17.3668C111.9 17.5399 112.341 17.8115 112.732 18.1818C113.122 18.5521 113.43 19.033 113.655 19.6246C113.881 20.2122 113.993 20.9266 113.993 21.7677V22.4077H106.622V21.0554H112.224C112.224 20.5805 112.128 20.1599 111.935 19.7937C111.742 19.4234 111.47 19.1316 111.12 18.9183C110.774 18.705 110.367 18.5984 109.9 18.5984C109.393 18.5984 108.95 18.7231 108.572 18.9726C108.198 19.2181 107.908 19.5401 107.703 19.9386C107.502 20.333 107.401 20.7616 107.401 21.2244V22.2809C107.401 22.9007 107.51 23.4279 107.727 23.8626C107.948 24.2972 108.256 24.6292 108.651 24.8587C109.045 25.084 109.506 25.1967 110.033 25.1967C110.375 25.1967 110.687 25.1484 110.969 25.0518C111.251 24.9512 111.494 24.8023 111.699 24.6051C111.905 24.4079 112.061 24.1644 112.17 23.8746L113.879 24.1825C113.742 24.6856 113.496 25.1263 113.142 25.5046C112.792 25.8789 112.351 26.1707 111.82 26.38C111.293 26.5852 110.691 26.6878 110.015 26.6878ZM124.401 26.6878C123.532 26.6878 122.773 26.4886 122.125 26.0902C121.477 25.6917 120.974 25.1343 120.616 24.418C120.258 23.7016 120.079 22.8645 120.079 21.9066C120.079 20.9447 120.258 20.1036 120.616 19.3832C120.974 18.6627 121.477 18.1033 122.125 17.7049C122.773 17.3065 123.532 17.1072 124.401 17.1072C125.27 17.1072 126.029 17.3065 126.677 17.7049C127.325 18.1033 127.828 18.6627 128.186 19.3832C128.544 20.1036 128.723 20.9447 128.723 21.9066C128.723 22.8645 128.544 23.7016 128.186 24.418C127.828 25.1343 127.325 25.6917 126.677 26.0902C126.029 26.4886 125.27 26.6878 124.401 26.6878ZM124.407 25.1726C124.97 25.1726 125.437 25.0237 125.808 24.7258C126.178 24.428 126.452 24.0316 126.629 23.5366C126.81 23.0415 126.9 22.4962 126.9 21.9006C126.9 21.3089 126.81 20.7656 126.629 20.2706C126.452 19.7715 126.178 19.3711 125.808 19.0692C125.437 18.7674 124.97 18.6165 124.407 18.6165C123.84 18.6165 123.369 18.7674 122.994 19.0692C122.624 19.3711 122.348 19.7715 122.167 20.2706C121.99 20.7656 121.902 21.3089 121.902 21.9006C121.902 22.4962 121.99 23.0415 122.167 23.5366C122.348 24.0316 122.624 24.428 122.994 24.7258C123.369 25.0237 123.84 25.1726 124.407 25.1726ZM132.543 20.995V26.5007H130.738V17.228H132.471V18.7372H132.586C132.799 18.2462 133.133 17.8518 133.588 17.554C134.046 17.2561 134.624 17.1072 135.32 17.1072C135.952 17.1072 136.506 17.24 136.98 17.5057C137.455 17.7673 137.824 18.1577 138.085 18.6768C138.347 19.196 138.478 19.8379 138.478 20.6026V26.5007H136.673V20.8199C136.673 20.1478 136.497 19.6226 136.147 19.2443C135.797 18.862 135.316 18.6708 134.704 18.6708C134.286 18.6708 133.914 18.7614 133.588 18.9425C133.266 19.1236 133.01 19.3892 132.821 19.7393C132.636 20.0855 132.543 20.504 132.543 20.995Z" fill="#E8E8E8"/>
<path d="M149.507 26.0007H144.937V13.6371H149.501C150.761 13.6371 151.845 13.8846 152.755 14.3796C153.669 14.8706 154.373 15.5789 154.868 16.5046C155.363 17.4262 155.61 18.529 155.61 19.8128C155.61 21.1007 155.363 22.2075 154.868 23.1332C154.377 24.0588 153.675 24.7692 152.761 25.2642C151.847 25.7552 150.763 26.0007 149.507 26.0007ZM147.925 23.4531H149.392C150.085 23.4531 150.67 23.3364 151.149 23.103C151.632 22.8655 151.996 22.4812 152.242 21.9499C152.491 21.4146 152.616 20.7023 152.616 19.8128C152.616 18.9234 152.491 18.2151 152.242 17.6878C151.992 17.1566 151.624 16.7743 151.137 16.5408C150.654 16.3034 150.058 16.1846 149.35 16.1846H147.925V23.4531ZM161.69 26.1758C160.72 26.1758 159.883 25.9846 159.178 25.6023C158.478 25.2159 157.939 24.6665 157.56 23.9542C157.186 23.2378 156.999 22.3866 156.999 21.4006C156.999 20.4427 157.188 19.6056 157.566 18.8892C157.945 18.1688 158.478 17.6094 159.166 17.2109C159.854 16.8085 160.665 16.6072 161.599 16.6072C162.259 16.6072 162.863 16.7099 163.41 16.9151C163.957 17.1204 164.43 17.4242 164.829 17.8267C165.227 18.2292 165.537 18.7262 165.758 19.3178C165.98 19.9054 166.091 20.5795 166.091 21.3402V22.0767H158.031V20.3622H163.344C163.34 20.0483 163.265 19.7686 163.12 19.5231C162.975 19.2776 162.776 19.0864 162.523 18.9496C162.273 18.8087 161.985 18.7383 161.659 18.7383C161.329 18.7383 161.034 18.8127 160.772 18.9616C160.51 19.1065 160.303 19.3057 160.15 19.5593C159.997 19.8088 159.917 20.0926 159.909 20.4105V22.1552C159.909 22.5335 159.983 22.8655 160.132 23.1513C160.281 23.433 160.492 23.6523 160.766 23.8093C161.04 23.9663 161.366 24.0447 161.744 24.0447C162.006 24.0447 162.243 24.0085 162.456 23.9361C162.67 23.8636 162.853 23.757 163.006 23.6161C163.159 23.4752 163.273 23.3022 163.35 23.0969L166.06 23.1754C165.948 23.7831 165.7 24.3124 165.318 24.7631C164.939 25.2099 164.442 25.558 163.827 25.8075C163.211 26.053 162.499 26.1758 161.69 26.1758ZM167.598 26.0007V13.6371H170.55V18.3157H170.611C170.731 18.034 170.902 17.7623 171.124 17.5007C171.349 17.2391 171.635 17.0258 171.981 16.8608C172.331 16.6918 172.75 16.6072 173.237 16.6072C173.881 16.6072 174.482 16.7763 175.042 17.1143C175.605 17.4524 176.06 17.9736 176.406 18.6779C176.752 19.3822 176.925 20.2797 176.925 21.3704C176.925 22.4208 176.758 23.3002 176.424 24.0085C176.094 24.7168 175.647 25.2481 175.084 25.6023C174.525 25.9564 173.903 26.1335 173.219 26.1335C172.752 26.1335 172.347 26.057 172.005 25.9041C171.663 25.7512 171.375 25.5499 171.142 25.3004C170.912 25.0509 170.735 24.7832 170.611 24.4975H170.52V26.0007H167.598ZM170.49 21.3643C170.49 21.8634 170.556 22.298 170.689 22.6683C170.826 23.0386 171.021 23.3263 171.275 23.5316C171.532 23.7328 171.84 23.8334 172.198 23.8334C172.561 23.8334 172.868 23.7328 173.122 23.5316C173.376 23.3263 173.567 23.0386 173.696 22.6683C173.828 22.298 173.895 21.8634 173.895 21.3643C173.895 20.8653 173.828 20.4326 173.696 20.0664C173.567 19.7002 173.376 19.4164 173.122 19.2152C172.872 19.014 172.565 18.9133 172.198 18.9133C171.836 18.9133 171.528 19.0119 171.275 19.2092C171.021 19.4064 170.826 19.6881 170.689 20.0543C170.556 20.4206 170.49 20.8572 170.49 21.3643ZM178.472 26.0007V16.728H181.424V26.0007H178.472ZM179.951 15.6474C179.537 15.6474 179.181 15.5105 178.883 15.2369C178.585 14.9592 178.436 14.6251 178.436 14.2347C178.436 13.8484 178.585 13.5183 178.883 13.2447C179.181 12.967 179.537 12.8281 179.951 12.8281C180.37 12.8281 180.726 12.967 181.02 13.2447C181.318 13.5183 181.467 13.8484 181.467 14.2347C181.467 14.6251 181.318 14.9592 181.02 15.2369C180.726 15.5105 180.37 15.6474 179.951 15.6474ZM185.917 26.1577C185.326 26.1577 184.8 26.0591 184.342 25.8618C183.887 25.6606 183.527 25.3588 183.261 24.9563C182.999 24.5498 182.869 24.0407 182.869 23.429C182.869 22.9138 182.959 22.4792 183.14 22.125C183.321 21.7708 183.571 21.4831 183.889 21.2617C184.207 21.0404 184.573 20.8733 184.988 20.7606C185.402 20.6439 185.845 20.5654 186.316 20.5252C186.843 20.4769 187.268 20.4266 187.59 20.3743C187.911 20.3179 188.145 20.2395 188.29 20.1388C188.439 20.0342 188.513 19.8873 188.513 19.6981V19.668C188.513 19.3581 188.407 19.1186 188.193 18.9496C187.98 18.7805 187.692 18.696 187.33 18.696C186.94 18.696 186.626 18.7805 186.388 18.9496C186.151 19.1186 186 19.352 185.935 19.6498L183.213 19.5533C183.293 18.9898 183.501 18.4867 183.835 18.044C184.173 17.5973 184.635 17.2471 185.223 16.9936C185.815 16.736 186.525 16.6072 187.354 16.6072C187.946 16.6072 188.491 16.6777 188.99 16.8185C189.489 16.9554 189.924 17.1566 190.294 17.4222C190.664 17.6838 190.95 18.0058 191.151 18.3881C191.357 18.7705 191.459 19.2071 191.459 19.6981V26.0007H188.682V24.7088H188.61C188.445 25.0227 188.233 25.2883 187.976 25.5057C187.722 25.723 187.422 25.886 187.076 25.9947C186.734 26.1033 186.348 26.1577 185.917 26.1577ZM186.829 24.2258C187.147 24.2258 187.433 24.1614 187.686 24.0327C187.944 23.9039 188.149 23.7268 188.302 23.5014C188.455 23.272 188.531 23.0064 188.531 22.7045V21.8231C188.447 21.8674 188.344 21.9077 188.223 21.9439C188.107 21.9801 187.978 22.0143 187.837 22.0465C187.696 22.0787 187.551 22.1069 187.402 22.131C187.253 22.1552 187.111 22.1773 186.974 22.1974C186.696 22.2417 186.459 22.3101 186.261 22.4027C186.068 22.4953 185.919 22.616 185.815 22.7649C185.714 22.9098 185.664 23.0828 185.664 23.2841C185.664 23.59 185.772 23.8234 185.99 23.9844C186.211 24.1453 186.491 24.2258 186.829 24.2258ZM196.216 20.7123V26.0007H193.264V16.728H196.071V18.4304H196.174C196.379 17.8629 196.729 17.4182 197.224 17.0962C197.719 16.7702 198.309 16.6072 198.993 16.6072C199.645 16.6072 200.211 16.7541 200.69 17.0479C201.173 17.3377 201.547 17.7442 201.813 18.2674C202.082 18.7866 202.215 19.3943 202.211 20.0905V26.0007H199.259V20.6701C199.263 20.1549 199.132 19.7525 198.867 19.4627C198.605 19.1729 198.241 19.028 197.774 19.028C197.464 19.028 197.19 19.0965 196.953 19.2333C196.719 19.3661 196.538 19.5573 196.409 19.8068C196.285 20.0563 196.22 20.3582 196.216 20.7123Z" fill="#A80030"/>
</g>
<defs>
<filter id="filter0_d_1_56" x="2.39972" y="0.39972" width="39.202" height="39.202" filterUnits="userSpaceOnUse" color-interpolation-filters="sRGB">
<feFlood flood-opacity="0" result="BackgroundImageFix"/>
<feColorMatrix in="SourceAlpha" type="matrix" values="0 0 0 0 0 0 0 0 0 0 0 0 0 0 0 0 0 0 127 0" result="hardAlpha"/>
<feOffset/>
<feGaussianBlur stdDeviation="2.80014"/>
<feComposite in2="hardAlpha" operator="out"/>
<feColorMatrix type="matrix" values="0 0 0 0 0 0 0 0 0 0 0 0 0 0 0 0 0 0 0.25 0"/>
<feBlend mode="normal" in2="BackgroundImageFix" result="effect1_dropShadow_1_56"/>
<feBlend mode="normal" in="SourceGraphic" in2="effect1_dropShadow_1_56" result="shape"/>
</filter>
<filter id="filter1_d_1_56" x="36.2871" y="3.78642" width="173.429" height="32.4286" filterUnits="userSpaceOnUse" color-interpolation-filters="sRGB">
<feFlood flood-opacity="0" result="BackgroundImageFix"/>
<feColorMatrix in="SourceAlpha" type="matrix" values="0 0 0 0 0 0 0 0 0 0 0 0 0 0 0 0 0 0 127 0" result="hardAlpha"/>
<feOffset/>
<feGaussianBlur stdDeviation="2.85714"/>
<feComposite in2="hardAlpha" operator="out"/>
<feColorMatrix type="matrix" values="0 0 0 0 0 0 0 0 0 0 0 0 0 0 0 0 0 0 0.25 0"/>
<feBlend mode="normal" in2="BackgroundImageFix" result="effect1_dropShadow_1_56"/>
<feBlend mode="normal" in="SourceGraphic" in2="effect1_dropShadow_1_56" result="shape"/>
</filter>
<linearGradient id="paint0_linear_1_56" x1="106.001" y1="0" x2="106.001" y2="40.0014" gradientUnits="userSpaceOnUse">
<stop stop-color="#32000E"/>
<stop offset="1" stop-color="#190007"/>
</linearGradient>
</defs>
</svg>
