<svg width="40" height="40" viewBox="0 0 40 40" fill="none" xmlns="http://www.w3.org/2000/svg">
<rect width="40" height="40" rx="8" fill="url(#paint0_linear_1_68)"/>
<rect x="1.05" y="1.05" width="37.9" height="37.9" rx="6.95" stroke="white" stroke-opacity="0.15" stroke-width="2.1"/>
<g filter="url(#filter0_d_1_68)">
<path d="M22.0682 20.7933C21.6043 20.7997 22.156 21.0324 22.7617 21.1256C22.929 20.9949 23.0809 20.8627 23.2161 20.7342C22.8389 20.8266 22.455 20.8286 22.0682 20.7933Z" fill="#A80030"/>
<path d="M24.5585 20.1726C24.8347 19.7913 25.0361 19.3738 25.1071 18.9421C25.0451 19.2498 24.8781 19.5155 24.7209 19.7959C23.8536 20.342 24.6393 19.4716 24.7203 19.1409C23.7878 20.3146 24.5923 19.8447 24.5585 20.1726Z" fill="#A80030"/>
<path d="M25.4776 17.7808C25.5336 16.9453 25.3131 17.2094 25.239 17.5283C25.3255 17.5732 25.3939 18.1172 25.4776 17.7808Z" fill="#A80030"/>
<path d="M20.309 6.36121C20.5566 6.40561 20.8439 6.43969 20.8037 6.49882C21.0745 6.43944 21.1359 6.3847 20.309 6.36121Z" fill="#A80030"/>
<path d="M20.8037 6.49882L20.6286 6.53496L20.7915 6.52051L20.8037 6.49882Z" fill="#A80030"/>
<path d="M28.5244 18.0976C28.5521 18.8478 28.305 19.2119 28.0822 19.8563L27.6812 20.0567C27.3531 20.6939 27.713 20.4612 27.478 20.9681C26.9658 21.4235 25.9235 22.3933 25.5899 22.4818C25.3464 22.4764 25.7549 22.1945 25.8083 22.0839C25.1226 22.5549 25.2581 22.7909 24.2094 23.0769L24.1787 23.0088C21.5922 24.2256 17.9992 21.8141 18.0465 18.5238C18.0189 18.7327 17.968 18.6805 17.9107 18.765C17.7772 17.072 18.6925 15.3716 20.2362 14.6774C21.746 13.9299 23.5162 14.2366 24.5977 15.2446C24.0036 14.4664 22.8211 13.6415 21.4197 13.7187C20.0469 13.7404 18.7627 14.6128 18.3341 15.5598C17.6308 16.0026 17.5492 17.2667 17.2428 17.498C16.8304 20.5284 18.0183 21.8376 20.0278 23.3777C20.3441 23.591 20.1169 23.6233 20.1597 23.7856C19.4921 23.473 18.8807 23.001 18.378 22.4232C18.6447 22.8136 18.9326 23.1931 19.3046 23.4913C18.6752 23.2781 17.8343 21.966 17.5887 21.9125C18.6739 23.8554 21.9913 25.3198 23.7284 24.5933C22.9247 24.6229 21.9035 24.6098 21.0004 24.2759C20.6211 24.0808 20.1053 23.6764 20.1974 23.6008C22.5681 24.4864 25.017 24.2716 27.0683 22.6272C27.5901 22.2208 28.1601 21.5294 28.3249 21.5198C28.0768 21.8929 28.3672 21.6993 28.1767 22.0287C28.6967 21.1901 27.9508 21.6874 28.7142 20.5805L28.9962 20.9688C28.8913 20.2728 29.8606 19.4275 29.7622 18.3266C29.9845 17.9899 30.0103 18.6888 29.7743 19.4634C30.1017 18.6041 29.8606 18.466 29.9447 17.757C30.0356 17.9953 30.1549 18.2486 30.2161 18.5001C30.0028 17.6697 30.435 17.1017 30.5419 16.6192C30.4366 16.5725 30.2127 16.9863 30.1616 16.0055C30.1691 15.5795 30.2801 15.7821 30.323 15.6773C30.2393 15.6293 30.0199 15.3027 29.8864 14.6763C29.9832 14.5292 30.1451 15.0579 30.2768 15.0796C30.1921 14.5816 30.0462 14.2018 30.0403 13.8197C29.6556 13.0157 29.9042 13.9268 29.592 13.4745C29.1826 12.1972 29.9318 13.1781 29.9824 12.5977C30.6031 13.4969 30.9571 14.8906 31.1195 15.4679C30.9955 14.7641 30.7952 14.0823 30.5507 13.4226C30.7392 13.5018 30.2471 11.9744 30.7957 12.986C30.2096 10.8296 28.2874 8.81474 26.5191 7.86927C26.7355 8.06729 27.0086 8.31593 26.9105 8.35491C26.0311 7.83131 26.1858 7.79052 26.0598 7.56925C25.3433 7.27776 25.2963 7.59275 24.8218 7.56977C23.4715 6.85356 23.2112 6.92973 21.9686 6.481L22.0251 6.74512C21.1305 6.44718 20.9828 6.85821 20.0159 6.74616C19.9571 6.7002 20.3258 6.57989 20.6291 6.53574C19.7642 6.64985 19.8047 6.36533 18.9584 6.56723C19.167 6.42084 19.3875 6.32402 19.6101 6.19958C18.9047 6.24244 17.9262 6.61009 18.2283 6.27574C17.0778 6.78902 15.0345 7.50961 13.8879 8.5847L13.8517 8.34381C13.3263 8.97456 11.5606 10.2275 11.4199 11.0444L11.2794 11.0772C11.006 11.5402 10.8292 12.0648 10.6123 12.5411C10.2547 13.1505 10.0882 12.7756 10.139 12.8711C9.43573 14.2971 9.08641 15.4953 8.78459 16.478C8.99966 16.7994 8.78975 18.4131 8.87108 19.7045C8.51788 26.0827 13.3475 32.2756 18.6266 33.7054C19.4004 33.9822 20.5512 33.9716 21.5299 34C20.3751 33.6698 20.2258 33.8249 19.1009 33.4328C18.2894 33.0506 18.1116 32.6143 17.5368 32.1155L17.7643 32.5175C16.6371 32.1186 17.1088 32.0238 16.1917 31.7334L16.4346 31.4161C16.0693 31.3884 15.467 30.8003 15.3022 30.4747L14.9026 30.4905C14.4223 29.8979 14.1665 29.4709 14.1851 29.1402L14.056 29.3702C13.9096 29.119 12.2892 27.148 13.1299 27.6068C12.9737 27.464 12.7661 27.3744 12.5409 26.9655L12.7121 26.7698C12.3075 26.2493 11.9675 25.5821 11.9933 25.3598C12.2092 25.6513 12.3589 25.7058 12.5071 25.7556C11.4855 23.2207 11.4282 25.6159 10.6544 23.1753L10.8181 23.1621C10.6926 22.9731 10.6164 22.7679 10.5155 22.5665L10.5867 21.8565C9.85115 21.006 10.381 18.2403 10.4871 16.7235C10.5606 16.1067 11.101 15.4501 11.5121 14.4205L11.2616 14.3774C11.7403 13.5424 13.9948 11.024 15.0389 11.1536C15.5447 10.5183 14.9384 11.1513 14.8396 10.9912C15.9505 9.84155 16.2999 10.179 17.0496 9.97219C17.8583 9.49222 16.3556 10.1594 16.739 9.78914C18.1369 9.43206 17.7297 8.9774 19.5533 8.79615C19.7456 8.90562 19.1069 8.96526 18.9465 9.10727C20.1112 8.53745 22.6321 8.66706 24.2695 9.42354C26.1695 10.3114 28.3042 12.9362 28.3884 15.4057L28.4842 15.4315C28.4356 16.4132 28.6344 17.5484 28.29 18.5912L28.5244 18.0976Z" fill="#A80030"/>
<path d="M17.0042 21.4302L16.9391 21.7555C17.244 22.1697 17.486 22.6184 17.8753 22.9422C17.5952 22.3953 17.3871 22.1694 17.0042 21.4302Z" fill="#A80030"/>
<path d="M17.725 21.4018C17.5637 21.2234 17.4682 21.0086 17.3613 20.7946C17.4635 21.1707 17.6729 21.494 17.8678 21.8227L17.725 21.4018Z" fill="#A80030"/>
<path d="M30.4805 18.6294L30.4123 18.8003C30.2873 19.688 30.0175 20.5663 29.6039 21.3806C30.0609 20.5214 30.3565 19.5816 30.4805 18.6294Z" fill="#A80030"/>
<path d="M20.4006 6.13865C20.7143 6.02375 21.1718 6.07565 21.5046 6C21.0709 6.0364 20.6392 6.05809 20.2129 6.11309L20.4006 6.13865Z" fill="#A80030"/>
<path d="M9.38771 11.9948C9.46 12.664 8.88425 12.9238 9.51525 12.4825C9.85348 11.7206 9.38306 12.2721 9.38771 11.9948Z" fill="#A80030"/>
<path d="M8.6462 15.092C8.79156 14.6459 8.81789 14.3779 8.8734 14.1197C8.47167 14.6332 8.68854 14.7427 8.6462 15.092Z" fill="#A80030"/>
</g>
<defs>
<filter id="filter0_d_1_68" x="2" y="2" width="36" height="36" filterUnits="userSpaceOnUse" color-interpolation-filters="sRGB">
<feFlood flood-opacity="0" result="BackgroundImageFix"/>
<feColorMatrix in="SourceAlpha" type="matrix" values="0 0 0 0 0 0 0 0 0 0 0 0 0 0 0 0 0 0 127 0" result="hardAlpha"/>
<feOffset/>
<feGaussianBlur stdDeviation="2"/>
<feComposite in2="hardAlpha" operator="out"/>
<feColorMatrix type="matrix" values="0 0 0 0 0 0 0 0 0 0 0 0 0 0 0 0 0 0 0.25 0"/>
<feBlend mode="normal" in2="BackgroundImageFix" result="effect1_dropShadow_1_68"/>
<feBlend mode="normal" in="SourceGraphic" in2="effect1_dropShadow_1_68" result="shape"/>
</filter>
<linearGradient id="paint0_linear_1_68" x1="20" y1="0" x2="20" y2="40" gradientUnits="userSpaceOnUse">
<stop stop-color="#32000E"/>
<stop offset="1" stop-color="#190007"/>
</linearGradient>
</defs>
</svg>
