<svg width="164" height="56" viewBox="0 0 164 56" fill="none" xmlns="http://www.w3.org/2000/svg">
<rect width="164" height="56" rx="8" fill="url(#paint0_linear_1_50)"/>
<rect x="1.05" y="1.05" width="161.9" height="53.9" rx="6.95" stroke="white" stroke-opacity="0.15" stroke-width="2.1"/>
<g filter="url(#filter0_d_1_50)">
<path d="M34.9546 29.1332C34.2918 29.1425 35.08 29.4748 35.9453 29.6079C36.1843 29.4213 36.4012 29.2325 36.5945 29.0488C36.0556 29.1808 35.5072 29.1838 34.9546 29.1332Z" fill="#A80030"/>
<path d="M38.5121 28.2466C38.9067 27.7018 39.1944 27.1054 39.2959 26.4887C39.2073 26.9283 38.9687 27.3079 38.7441 27.7084C37.5052 28.4885 38.6275 27.2452 38.7433 26.7727C37.4111 28.4494 38.5604 27.7781 38.5121 28.2466Z" fill="#A80030"/>
<path d="M39.8251 24.8297C39.9052 23.6361 39.5902 24.0134 39.4843 24.4689C39.6079 24.5331 39.7056 25.3103 39.8251 24.8297Z" fill="#A80030"/>
<path d="M32.4414 8.516C32.7951 8.57944 33.2056 8.62813 33.1481 8.71259C33.535 8.62776 33.6228 8.54957 32.4414 8.516Z" fill="#A80030"/>
<path d="M33.1481 8.7126L32.898 8.76423L33.1307 8.74358L33.1481 8.7126Z" fill="#A80030"/>
<path d="M44.1778 25.2822C44.2172 26.3541 43.8643 26.8741 43.546 27.7947L42.9732 28.081C42.5044 28.9912 43.0185 28.6589 42.6829 29.383C41.9511 30.0336 40.4621 31.4189 39.9856 31.5454C39.6378 31.5377 40.2213 31.1349 40.2976 30.9771C39.318 31.6498 39.5116 31.9869 38.0134 32.3956L37.9695 32.2982C34.2745 34.0366 29.1418 30.5916 29.2093 25.8912C29.1698 26.1896 29.0971 26.1151 29.0153 26.2357C28.8246 23.8172 30.1321 21.388 32.3374 20.3962C34.4943 19.3285 37.0231 19.7666 38.5681 21.2066C37.7194 20.0949 36.0302 18.9165 34.0281 19.0267C32.067 19.0577 30.2324 20.304 29.6202 21.6569C28.6154 22.2895 28.4989 24.0953 28.0611 24.4258C27.472 28.7548 29.1691 30.6252 32.0397 32.8253C32.4915 33.13 32.167 33.1761 32.2282 33.4081C31.2744 32.9614 30.401 32.2872 29.6829 31.4617C30.0639 32.0194 30.4751 32.5616 31.0066 32.9876C30.1074 32.6829 28.9061 30.8085 28.5553 30.7322C30.1055 33.5077 34.8447 35.5997 37.3263 34.5618C36.1781 34.6042 34.7193 34.5854 33.4291 34.1085C32.8873 33.8297 32.1504 33.252 32.282 33.144C35.6687 34.4091 39.1671 34.1022 42.0975 31.7531C42.843 31.1725 43.6573 30.1848 43.8927 30.1712C43.5382 30.7041 43.9532 30.4275 43.681 30.8981C44.4238 29.7002 43.3582 30.4105 44.4489 28.8293L44.8516 29.3841C44.7019 28.3897 46.0865 27.1821 45.946 25.6094C46.2635 25.1284 46.3004 26.1269 45.9633 27.2334C46.431 26.0059 46.0865 25.8086 46.2067 24.7957C46.3366 25.1362 46.507 25.498 46.5944 25.8572C46.2897 24.6711 46.9072 23.8596 47.0599 23.1703C46.9094 23.1035 46.5896 23.6947 46.5166 22.2935C46.5273 21.685 46.6859 21.9745 46.7471 21.8247C46.6276 21.7561 46.3141 21.2896 46.1234 20.3948C46.2617 20.1845 46.493 20.9399 46.6811 20.9709C46.5601 20.2594 46.3517 19.7168 46.3432 19.171C45.7937 18.0224 46.1488 19.324 45.7029 18.6778C45.1179 16.8532 46.1883 18.2544 46.2606 17.4253C47.1473 18.7099 47.653 20.7009 47.885 21.5256C47.7079 20.5202 47.4217 19.5461 47.0724 18.6037C47.3417 18.7169 46.6387 16.5349 47.4224 17.98C46.5852 14.8995 43.8392 12.0211 41.313 10.6704C41.6221 10.9533 42.0123 11.3085 41.8722 11.3642C40.6159 10.6162 40.8369 10.5579 40.6569 10.2418C39.6333 9.82537 39.5662 10.2754 38.8883 10.2425C36.9593 9.21937 36.5875 9.32818 34.8123 8.68714L34.893 9.06446C33.615 8.63882 33.4041 9.22601 32.0228 9.06594C31.9387 9.00028 32.4654 8.82841 32.8987 8.76534C31.6631 8.92836 31.721 8.5219 30.512 8.81033C30.81 8.6012 31.125 8.46289 31.4429 8.28511C30.4353 8.34634 29.0374 8.87156 29.4689 8.39392C27.8254 9.12716 24.9064 10.1566 23.2684 11.6924L23.2168 11.3483C22.4662 12.2494 19.9437 14.0393 19.7427 15.2063L19.5421 15.2532C19.1515 15.9145 18.8988 16.664 18.589 17.3445C18.0781 18.2149 17.8402 17.6794 17.9129 17.8159C16.9082 19.8529 16.4092 21.5647 15.978 22.9685C16.2852 23.4277 15.9854 25.7329 16.1015 27.5779C15.597 36.6896 22.4964 45.5365 30.038 47.5792C31.1434 47.9745 32.7874 47.9594 34.1856 48C32.5358 47.5283 32.3226 47.7499 30.7156 47.1897C29.5563 46.6438 29.3022 46.0204 28.4812 45.3079L28.8061 45.8821C27.1958 45.3123 27.8697 45.1769 26.5595 44.762L26.9066 44.3087C26.3847 44.2692 25.5242 43.429 25.2889 42.9639L24.7179 42.9864C24.0319 42.1399 23.6664 41.5299 23.6929 41.0574L23.5085 41.386C23.2994 41.0271 20.9846 38.2114 22.1855 38.8669C21.9624 38.6629 21.6658 38.5349 21.3442 37.9507L21.5887 37.6711C21.0108 36.9275 20.525 35.9744 20.5619 35.6569C20.8702 36.0733 21.0842 36.1511 21.2959 36.2223C19.8364 32.6011 19.7545 36.0228 18.6491 32.5361L18.8829 32.5173C18.7037 32.2473 18.5949 31.9541 18.4507 31.6664L18.5525 30.6521C17.5016 29.4372 18.2585 25.4862 18.4101 23.3193C18.5152 22.4381 19.2872 21.5002 19.8744 20.0292L19.5166 19.9677C20.2004 18.7748 23.4211 15.1772 24.9127 15.3624C25.6352 14.4546 24.7692 15.359 24.6279 15.1304C26.2151 13.4879 26.7141 13.97 27.7852 13.6746C28.9404 12.9889 26.7938 13.942 27.3415 13.413C29.3384 12.9029 28.7567 12.2534 31.3618 11.9945C31.6366 12.1509 30.7241 12.2361 30.495 12.439C32.1589 11.6249 35.7602 11.8101 38.0993 12.8908C40.8136 14.1592 43.8632 17.9088 43.9834 21.4367L44.1202 21.4736C44.0509 22.8759 44.3349 24.4977 43.8429 25.9874L44.1778 25.2822Z" fill="#A80030"/>
<path d="M27.7203 30.0432L27.6273 30.5079C28.0629 31.0995 28.4085 31.7406 28.9647 32.2031C28.5645 31.4219 28.2673 31.0992 27.7203 30.0432Z" fill="#A80030"/>
<path d="M28.7501 30.0026C28.5195 29.7477 28.3831 29.4409 28.2304 29.1351C28.3764 29.6725 28.6756 30.1343 28.954 30.6038L28.7501 30.0026Z" fill="#A80030"/>
<path d="M46.9721 26.042L46.8747 26.2862C46.6962 27.5543 46.3108 28.809 45.7199 29.9724C46.3727 28.7449 46.795 27.4023 46.9721 26.042Z" fill="#A80030"/>
<path d="M32.5723 8.19807C33.0205 8.03393 33.674 8.10807 34.1495 8C33.5298 8.05201 32.9131 8.08299 32.3042 8.16155L32.5723 8.19807Z" fill="#A80030"/>
<path d="M16.8396 16.564C16.9429 17.52 16.1204 17.8911 17.0218 17.2608C17.505 16.1723 16.8329 16.9602 16.8396 16.564Z" fill="#A80030"/>
<path d="M15.7803 20.9886C15.9879 20.3512 16.0256 19.9684 16.1049 19.5996C15.531 20.3332 15.8408 20.4896 15.7803 20.9886Z" fill="#A80030"/>
</g>
<g filter="url(#filter1_d_1_50)">
<path d="M62.2613 24.5H60.3977L64.5852 12.8636H66.6136L70.8011 24.5H68.9375L65.6477 14.9773H65.5568L62.2613 24.5ZM62.5738 19.9432H68.6193V21.4204H62.5738V19.9432ZM78.7173 15.7727L75.5525 24.5H73.7344L70.5639 15.7727H72.3878L74.598 22.4886H74.6889L76.8934 15.7727H78.7173ZM82.6037 24.6932C82.0506 24.6932 81.5506 24.5909 81.1037 24.3864C80.6567 24.178 80.3025 23.8769 80.0412 23.4829C79.7836 23.089 79.6548 22.6061 79.6548 22.0341C79.6548 21.5417 79.7495 21.1364 79.9389 20.8182C80.1283 20.5 80.384 20.2481 80.7059 20.0625C81.0279 19.8769 81.3878 19.7367 81.7855 19.642C82.1832 19.5473 82.5885 19.4754 83.0014 19.4261C83.5241 19.3655 83.9484 19.3163 84.2741 19.2784C84.5999 19.2367 84.8366 19.1704 84.9844 19.0795C85.1321 18.9886 85.2059 18.8409 85.2059 18.6364V18.5966C85.2059 18.1004 85.0658 17.7159 84.7855 17.4432C84.509 17.1704 84.0961 17.0341 83.5469 17.0341C82.9749 17.0341 82.5241 17.161 82.1946 17.4148C81.8688 17.6648 81.6434 17.9432 81.5184 18.25L79.9219 17.8864C80.1112 17.3561 80.3878 16.928 80.7514 16.6023C81.1188 16.2727 81.5412 16.0341 82.0184 15.8864C82.4957 15.7348 82.9976 15.6591 83.5241 15.6591C83.8726 15.6591 84.2419 15.7008 84.6321 15.7841C85.026 15.8636 85.3934 16.0114 85.7344 16.2273C86.079 16.4432 86.3612 16.7519 86.5809 17.1534C86.8006 17.5511 86.9105 18.0682 86.9105 18.7045V24.5H85.2514V23.3068H85.1832C85.0734 23.5265 84.9086 23.7424 84.6889 23.9545C84.4692 24.1667 84.187 24.3428 83.8423 24.4829C83.4976 24.6231 83.0847 24.6932 82.6037 24.6932ZM82.973 23.3295C83.4427 23.3295 83.8442 23.2367 84.1775 23.0511C84.5147 22.8655 84.7703 22.6231 84.9446 22.3239C85.1226 22.0208 85.2116 21.697 85.2116 21.3523V20.2273C85.151 20.2879 85.0336 20.3447 84.8594 20.3977C84.6889 20.447 84.4938 20.4905 84.2741 20.5284C84.0544 20.5625 83.8404 20.5947 83.6321 20.625C83.4237 20.6515 83.2495 20.6742 83.1094 20.6932C82.7798 20.7348 82.4787 20.8049 82.2059 20.9034C81.937 21.0019 81.7211 21.1439 81.5582 21.3295C81.3991 21.5114 81.3196 21.7538 81.3196 22.0568C81.3196 22.4773 81.4749 22.7954 81.7855 23.0114C82.0961 23.2235 82.4919 23.3295 82.973 23.3295ZM89.1733 24.5V15.7727H90.8721V24.5H89.1733ZM90.0312 14.4261C89.7358 14.4261 89.482 14.3276 89.2699 14.1307C89.0615 13.9299 88.9574 13.6913 88.9574 13.4148C88.9574 13.1345 89.0615 12.8958 89.2699 12.6989C89.482 12.4981 89.7358 12.3977 90.0312 12.3977C90.3267 12.3977 90.5786 12.4981 90.7869 12.6989C90.999 12.8958 91.1051 13.1345 91.1051 13.4148C91.1051 13.6913 90.999 13.9299 90.7869 14.1307C90.5786 14.3276 90.3267 14.4261 90.0312 14.4261ZM94.8565 12.8636V24.5H93.1576V12.8636H94.8565ZM99.6818 24.6932C99.1288 24.6932 98.6288 24.5909 98.1818 24.3864C97.7348 24.178 97.3807 23.8769 97.1193 23.4829C96.8617 23.089 96.7329 22.6061 96.7329 22.0341C96.7329 21.5417 96.8276 21.1364 97.017 20.8182C97.2064 20.5 97.4621 20.2481 97.7841 20.0625C98.106 19.8769 98.4659 19.7367 98.8636 19.642C99.2613 19.5473 99.6666 19.4754 100.08 19.4261C100.602 19.3655 101.026 19.3163 101.352 19.2784C101.678 19.2367 101.915 19.1704 102.062 19.0795C102.21 18.9886 102.284 18.8409 102.284 18.6364V18.5966C102.284 18.1004 102.144 17.7159 101.864 17.4432C101.587 17.1704 101.174 17.0341 100.625 17.0341C100.053 17.0341 99.6022 17.161 99.2727 17.4148C98.9469 17.6648 98.7216 17.9432 98.5966 18.25L97 17.8864C97.1894 17.3561 97.4659 16.928 97.8295 16.6023C98.1969 16.2727 98.6193 16.0341 99.0966 15.8864C99.5738 15.7348 100.076 15.6591 100.602 15.6591C100.951 15.6591 101.32 15.7008 101.71 15.7841C102.104 15.8636 102.472 16.0114 102.812 16.2273C103.157 16.4432 103.439 16.7519 103.659 17.1534C103.879 17.5511 103.989 18.0682 103.989 18.7045V24.5H102.33V23.3068H102.261C102.151 23.5265 101.987 23.7424 101.767 23.9545C101.547 24.1667 101.265 24.3428 100.92 24.4829C100.576 24.6231 100.163 24.6932 99.6818 24.6932ZM100.051 23.3295C100.521 23.3295 100.922 23.2367 101.256 23.0511C101.593 22.8655 101.848 22.6231 102.023 22.3239C102.201 22.0208 102.29 21.697 102.29 21.3523V20.2273C102.229 20.2879 102.112 20.3447 101.937 20.3977C101.767 20.447 101.572 20.4905 101.352 20.5284C101.133 20.5625 100.919 20.5947 100.71 20.625C100.502 20.6515 100.328 20.6742 100.187 20.6932C99.8579 20.7348 99.5568 20.8049 99.2841 20.9034C99.0151 21.0019 98.7992 21.1439 98.6363 21.3295C98.4772 21.5114 98.3977 21.7538 98.3977 22.0568C98.3977 22.4773 98.553 22.7954 98.8636 23.0114C99.1742 23.2235 99.57 23.3295 100.051 23.3295ZM106.388 24.5V12.8636H108.087V17.1875H108.189C108.287 17.0057 108.429 16.7954 108.615 16.5568C108.801 16.3182 109.058 16.1098 109.388 15.9318C109.717 15.75 110.153 15.6591 110.695 15.6591C111.399 15.6591 112.028 15.8371 112.581 16.1932C113.134 16.5492 113.568 17.0625 113.882 17.7329C114.2 18.4034 114.359 19.2102 114.359 20.1534C114.359 21.0966 114.202 21.9053 113.888 22.5795C113.573 23.25 113.142 23.767 112.592 24.1307C112.043 24.4905 111.416 24.6704 110.712 24.6704C110.181 24.6704 109.748 24.5814 109.41 24.4034C109.077 24.2254 108.816 24.017 108.626 23.7784C108.437 23.5398 108.291 23.3276 108.189 23.142H108.047V24.5H106.388ZM108.053 20.1364C108.053 20.75 108.142 21.2879 108.32 21.75C108.498 22.2121 108.755 22.5739 109.092 22.8352C109.429 23.0928 109.842 23.2216 110.331 23.2216C110.839 23.2216 111.263 23.0871 111.604 22.8182C111.945 22.5454 112.202 22.1761 112.376 21.7102C112.554 21.2443 112.643 20.7197 112.643 20.1364C112.643 19.5606 112.556 19.0436 112.382 18.5852C112.212 18.1269 111.954 17.7651 111.609 17.5C111.268 17.2348 110.842 17.1023 110.331 17.1023C109.839 17.1023 109.422 17.2292 109.081 17.4829C108.744 17.7367 108.488 18.0909 108.314 18.5454C108.14 19 108.053 19.5303 108.053 20.1364ZM117.966 12.8636V24.5H116.267V12.8636H117.966ZM124.013 24.6761C123.153 24.6761 122.412 24.4924 121.791 24.125C121.174 23.7538 120.696 23.2329 120.359 22.5625C120.026 21.8883 119.859 21.0985 119.859 20.1932C119.859 19.2992 120.026 18.5114 120.359 17.8295C120.696 17.1477 121.166 16.6155 121.768 16.2329C122.374 15.8504 123.083 15.6591 123.893 15.6591C124.386 15.6591 124.863 15.7405 125.325 15.9034C125.787 16.0663 126.202 16.322 126.57 16.6704C126.937 17.0189 127.227 17.4716 127.439 18.0284C127.651 18.5814 127.757 19.2538 127.757 20.0454V20.6477H120.82V19.375H126.092C126.092 18.928 126.001 18.5322 125.82 18.1875C125.638 17.839 125.382 17.5644 125.053 17.3636C124.727 17.1629 124.344 17.0625 123.905 17.0625C123.428 17.0625 123.011 17.1799 122.655 17.4148C122.303 17.6458 122.03 17.9489 121.837 18.3239C121.647 18.6951 121.553 19.0985 121.553 19.5341V20.5284C121.553 21.1117 121.655 21.6079 121.859 22.017C122.068 22.4261 122.357 22.7386 122.729 22.9545C123.1 23.1667 123.534 23.2727 124.03 23.2727C124.352 23.2727 124.645 23.2273 124.91 23.1364C125.176 23.0417 125.405 22.9015 125.598 22.7159C125.791 22.5303 125.939 22.3011 126.041 22.0284L127.649 22.3182C127.52 22.7917 127.289 23.2064 126.956 23.5625C126.626 23.9148 126.212 24.1894 125.712 24.3864C125.215 24.5795 124.649 24.6761 124.013 24.6761ZM137.553 24.6761C136.734 24.6761 136.02 24.4886 135.41 24.1136C134.801 23.7386 134.327 23.214 133.99 22.5398C133.653 21.8655 133.484 21.0776 133.484 20.1761C133.484 19.2708 133.653 18.4792 133.99 17.8011C134.327 17.1231 134.801 16.5966 135.41 16.2216C136.02 15.8466 136.734 15.6591 137.553 15.6591C138.371 15.6591 139.085 15.8466 139.695 16.2216C140.304 16.5966 140.778 17.1231 141.115 17.8011C141.452 18.4792 141.621 19.2708 141.621 20.1761C141.621 21.0776 141.452 21.8655 141.115 22.5398C140.778 23.214 140.304 23.7386 139.695 24.1136C139.085 24.4886 138.371 24.6761 137.553 24.6761ZM137.558 23.25C138.089 23.25 138.528 23.1098 138.876 22.8295C139.225 22.5492 139.482 22.1761 139.649 21.7102C139.82 21.2443 139.905 20.7311 139.905 20.1704C139.905 19.6136 139.82 19.1023 139.649 18.6364C139.482 18.1667 139.225 17.7898 138.876 17.5057C138.528 17.2216 138.089 17.0795 137.558 17.0795C137.024 17.0795 136.581 17.2216 136.229 17.5057C135.88 17.7898 135.621 18.1667 135.45 18.6364C135.284 19.1023 135.2 19.6136 135.2 20.1704C135.2 20.7311 135.284 21.2443 135.45 21.7102C135.621 22.1761 135.88 22.5492 136.229 22.8295C136.581 23.1098 137.024 23.25 137.558 23.25ZM145.216 19.3182V24.5H143.517V15.7727H145.148V17.1932H145.256C145.456 16.7311 145.771 16.3598 146.199 16.0795C146.631 15.7992 147.174 15.6591 147.83 15.6591C148.424 15.6591 148.945 15.7841 149.392 16.0341C149.839 16.2803 150.186 16.6477 150.432 17.1364C150.678 17.625 150.801 18.2292 150.801 18.9489V24.5H149.102V19.1534C149.102 18.5208 148.937 18.0265 148.608 17.6704C148.278 17.3106 147.826 17.1307 147.25 17.1307C146.856 17.1307 146.506 17.2159 146.199 17.3864C145.896 17.5568 145.655 17.8068 145.477 18.1364C145.303 18.4621 145.216 18.8561 145.216 19.3182Z" fill="#E8E8E8"/>
<path d="M65.5057 43.5H60.9357V31.1364H65.4996C66.7593 31.1364 67.844 31.3839 68.7535 31.8789C69.6671 32.3699 70.3714 33.0782 70.8665 34.0039C71.3615 34.9255 71.609 36.0283 71.609 37.3121C71.609 38.6 71.3615 39.7068 70.8665 40.6324C70.3755 41.5581 69.6732 42.2685 68.7596 42.7635C67.846 43.2545 66.7613 43.5 65.5057 43.5ZM63.924 40.9524H65.391C66.0832 40.9524 66.6688 40.8357 67.1477 40.6023C67.6307 40.3648 67.9949 39.9805 68.2404 39.4492C68.4899 38.9139 68.6147 38.2016 68.6147 37.3121C68.6147 36.4227 68.4899 35.7144 68.2404 35.1871C67.9909 34.6559 67.6226 34.2735 67.1356 34.0401C66.6527 33.8027 66.057 33.6839 65.3487 33.6839H63.924V40.9524ZM77.6882 43.6751C76.7183 43.6751 75.8811 43.4839 75.1768 43.1016C74.4765 42.7152 73.9372 42.1658 73.5589 41.4535C73.1846 40.7371 72.9975 39.8859 72.9975 38.8998C72.9975 37.942 73.1867 37.1049 73.565 36.3885C73.9433 35.6681 74.4765 35.1087 75.1648 34.7102C75.853 34.3078 76.6639 34.1065 77.5976 34.1065C78.2577 34.1065 78.8614 34.2092 79.4087 34.4144C79.9561 34.6197 80.429 34.9235 80.8274 35.326C81.2258 35.7284 81.5357 36.2255 81.7571 36.8171C81.9784 37.4047 82.0891 38.0788 82.0891 38.8395V39.576H74.0298V37.8615H79.3423C79.3383 37.5476 79.2638 37.2679 79.1189 37.0224C78.9741 36.7769 78.7748 36.5857 78.5213 36.4489C78.2718 36.308 77.984 36.2376 77.658 36.2376C77.328 36.2376 77.0322 36.312 76.7706 36.4609C76.509 36.6058 76.3017 36.805 76.1488 37.0586C75.9958 37.3081 75.9153 37.5918 75.9073 37.9098V39.6545C75.9073 40.0328 75.9818 40.3648 76.1307 40.6506C76.2796 40.9323 76.4909 41.1516 76.7645 41.3086C77.0382 41.4655 77.3642 41.544 77.7425 41.544C78.0041 41.544 78.2416 41.5078 78.4549 41.4354C78.6682 41.3629 78.8513 41.2563 79.0042 41.1154C79.1572 40.9745 79.2719 40.8015 79.3483 40.5962L82.0589 40.6747C81.9462 41.2824 81.6987 41.8117 81.3164 42.2624C80.9381 42.7092 80.441 43.0573 79.8253 43.3068C79.2095 43.5523 78.4971 43.6751 77.6882 43.6751ZM83.5968 43.5V31.1364H86.5489V35.815H86.6093C86.73 35.5333 86.901 35.2616 87.1224 35C87.3478 34.7384 87.6335 34.5251 87.9796 34.3601C88.3298 34.191 88.7483 34.1065 89.2353 34.1065C89.8793 34.1065 90.4809 34.2756 91.0404 34.6136C91.6038 34.9517 92.0586 35.4729 92.4047 36.1772C92.7508 36.8815 92.9239 37.779 92.9239 38.8697C92.9239 39.9201 92.7569 40.7995 92.4228 41.5078C92.0928 42.2161 91.6461 42.7474 91.0826 43.1016C90.5232 43.4557 89.9014 43.6328 89.2172 43.6328C88.7504 43.6328 88.3459 43.5563 88.0038 43.4034C87.6617 43.2505 87.3739 43.0492 87.1405 42.7997C86.9111 42.5502 86.734 42.2825 86.6093 41.9968H86.5187V43.5H83.5968ZM86.4885 38.8636C86.4885 39.3627 86.5549 39.7973 86.6877 40.1676C86.8246 40.5379 87.0198 40.8256 87.2733 41.0309C87.5309 41.2321 87.8388 41.3327 88.197 41.3327C88.5592 41.3327 88.8671 41.2321 89.1206 41.0309C89.3742 40.8256 89.5653 40.5379 89.6941 40.1676C89.8269 39.7973 89.8934 39.3627 89.8934 38.8636C89.8934 38.3646 89.8269 37.9319 89.6941 37.5657C89.5653 37.1994 89.3742 36.9157 89.1206 36.7145C88.8711 36.5132 88.5632 36.4126 88.197 36.4126C87.8348 36.4126 87.5269 36.5112 87.2733 36.7084C87.0198 36.9056 86.8246 37.1874 86.6877 37.5536C86.5549 37.9199 86.4885 38.3565 86.4885 38.8636ZM94.4709 43.5V34.2273H97.4229V43.5H94.4709ZM95.9499 33.1467C95.5354 33.1467 95.1792 33.0098 94.8814 32.7361C94.5835 32.4584 94.4346 32.1244 94.4346 31.734C94.4346 31.3476 94.5835 31.0176 94.8814 30.744C95.1792 30.4663 95.5354 30.3274 95.9499 30.3274C96.3685 30.3274 96.7246 30.4663 97.0184 30.744C97.3163 31.0176 97.4652 31.3476 97.4652 31.734C97.4652 32.1244 97.3163 32.4584 97.0184 32.7361C96.7246 33.0098 96.3685 33.1467 95.9499 33.1467ZM101.916 43.6569C101.324 43.6569 100.799 43.5583 100.34 43.3611C99.8855 43.1599 99.5253 42.8581 99.2596 42.4556C98.998 42.0491 98.8672 41.54 98.8672 40.9283C98.8672 40.4131 98.9578 39.9784 99.1389 39.6243C99.32 39.2701 99.5695 38.9824 99.8875 38.761C100.205 38.5396 100.572 38.3726 100.986 38.2599C101.401 38.1432 101.843 38.0647 102.314 38.0245C102.842 37.9762 103.266 37.9259 103.588 37.8736C103.91 37.8172 104.144 37.7387 104.288 37.6381C104.437 37.5335 104.512 37.3866 104.512 37.1974V37.1672C104.512 36.8574 104.405 36.6179 104.192 36.4489C103.979 36.2798 103.691 36.1953 103.329 36.1953C102.938 36.1953 102.624 36.2798 102.387 36.4489C102.149 36.6179 101.998 36.8513 101.934 37.1491L99.2114 37.0525C99.2918 36.4891 99.4991 35.986 99.8332 35.5433C100.171 35.0966 100.634 34.7464 101.222 34.4929C101.813 34.2353 102.524 34.1065 103.353 34.1065C103.944 34.1065 104.49 34.177 104.989 34.3178C105.488 34.4547 105.922 34.6559 106.293 34.9215C106.663 35.1831 106.949 35.5051 107.15 35.8874C107.355 36.2698 107.458 36.7064 107.458 37.1974V43.5H104.681V42.2081H104.608C104.443 42.522 104.232 42.7876 103.974 43.005C103.721 43.2223 103.421 43.3853 103.075 43.494C102.733 43.6026 102.347 43.6569 101.916 43.6569ZM102.827 41.7251C103.145 41.7251 103.431 41.6607 103.685 41.5319C103.942 41.4032 104.148 41.2261 104.3 41.0007C104.453 40.7713 104.53 40.5057 104.53 40.2038V39.3224C104.445 39.3667 104.343 39.4069 104.222 39.4432C104.105 39.4794 103.977 39.5136 103.836 39.5458C103.695 39.578 103.55 39.6062 103.401 39.6303C103.252 39.6545 103.109 39.6766 102.972 39.6967C102.695 39.741 102.457 39.8094 102.26 39.902C102.067 39.9945 101.918 40.1153 101.813 40.2642C101.713 40.4091 101.662 40.5821 101.662 40.7834C101.662 41.0892 101.771 41.3227 101.988 41.4837C102.21 41.6446 102.489 41.7251 102.827 41.7251ZM112.215 38.2116V43.5H109.263V34.2273H112.07V35.9297H112.173C112.378 35.3622 112.728 34.9175 113.223 34.5955C113.718 34.2695 114.308 34.1065 114.992 34.1065C115.644 34.1065 116.209 34.2534 116.688 34.5472C117.171 34.837 117.546 35.2435 117.811 35.7667C118.081 36.2859 118.214 36.8936 118.21 37.5898V43.5H115.258V38.1694C115.262 37.6542 115.131 37.2518 114.865 36.962C114.604 36.6722 114.239 36.5273 113.772 36.5273C113.463 36.5273 113.189 36.5958 112.951 36.7326C112.718 36.8654 112.537 37.0566 112.408 37.3061C112.283 37.5556 112.219 37.8575 112.215 38.2116Z" fill="#A80030"/>
</g>
<defs>
<filter id="filter0_d_1_50" x="6.28571" y="2.28571" width="51.4286" height="51.4286" filterUnits="userSpaceOnUse" color-interpolation-filters="sRGB">
<feFlood flood-opacity="0" result="BackgroundImageFix"/>
<feColorMatrix in="SourceAlpha" type="matrix" values="0 0 0 0 0 0 0 0 0 0 0 0 0 0 0 0 0 0 127 0" result="hardAlpha"/>
<feOffset/>
<feGaussianBlur stdDeviation="2.85714"/>
<feComposite in2="hardAlpha" operator="out"/>
<feColorMatrix type="matrix" values="0 0 0 0 0 0 0 0 0 0 0 0 0 0 0 0 0 0 0.25 0"/>
<feBlend mode="normal" in2="BackgroundImageFix" result="effect1_dropShadow_1_50"/>
<feBlend mode="normal" in="SourceGraphic" in2="effect1_dropShadow_1_50" result="shape"/>
</filter>
<filter id="filter1_d_1_50" x="54.4" y="3.9" width="103.2" height="48.2" filterUnits="userSpaceOnUse" color-interpolation-filters="sRGB">
<feFlood flood-opacity="0" result="BackgroundImageFix"/>
<feColorMatrix in="SourceAlpha" type="matrix" values="0 0 0 0 0 0 0 0 0 0 0 0 0 0 0 0 0 0 127 0" result="hardAlpha"/>
<feOffset/>
<feGaussianBlur stdDeviation="2.8"/>
<feComposite in2="hardAlpha" operator="out"/>
<feColorMatrix type="matrix" values="0 0 0 0 0 0 0 0 0 0 0 0 0 0 0 0 0 0 0.25 0"/>
<feBlend mode="normal" in2="BackgroundImageFix" result="effect1_dropShadow_1_50"/>
<feBlend mode="normal" in="SourceGraphic" in2="effect1_dropShadow_1_50" result="shape"/>
</filter>
<linearGradient id="paint0_linear_1_50" x1="82" y1="0" x2="82" y2="56" gradientUnits="userSpaceOnUse">
<stop stop-color="#32000E"/>
<stop offset="1" stop-color="#190007"/>
</linearGradient>
</defs>
</svg>
