<svg width="56" height="56" viewBox="0 0 56 56" fill="none" xmlns="http://www.w3.org/2000/svg">
<rect width="56" height="56" rx="8.4" fill="url(#paint0_linear_1_62)"/>
<rect x="1.05" y="1.05" width="53.9" height="53.9" rx="7.35" stroke="white" stroke-opacity="0.15" stroke-width="2.1"/>
<g filter="url(#filter0_d_1_62)">
<path d="M30.9546 29.1332C30.2918 29.1425 31.08 29.4748 31.9453 29.6079C32.1843 29.4213 32.4012 29.2325 32.5945 29.0488C32.0556 29.1808 31.5072 29.1838 30.9546 29.1332Z" fill="#A80030"/>
<path d="M34.5121 28.2466C34.9067 27.7018 35.1944 27.1054 35.2959 26.4887C35.2073 26.9283 34.9687 27.3079 34.7441 27.7084C33.5051 28.4885 34.6275 27.2452 34.7433 26.7727C33.4111 28.4494 34.5604 27.7781 34.5121 28.2466Z" fill="#A80030"/>
<path d="M35.8251 24.8297C35.9052 23.6361 35.5902 24.0134 35.4843 24.4689C35.6079 24.5331 35.7056 25.3103 35.8251 24.8297Z" fill="#A80030"/>
<path d="M28.4414 8.516C28.7951 8.57944 29.2056 8.62813 29.1481 8.71259C29.535 8.62776 29.6228 8.54957 28.4414 8.516Z" fill="#A80030"/>
<path d="M29.1481 8.7126L28.898 8.76423L29.1307 8.74358L29.1481 8.7126Z" fill="#A80030"/>
<path d="M40.1778 25.2822C40.2172 26.3541 39.8643 26.8741 39.546 27.7947L38.9732 28.081C38.5044 28.9912 39.0185 28.6589 38.6829 29.383C37.9511 30.0336 36.4621 31.4189 35.9856 31.5454C35.6378 31.5377 36.2213 31.1349 36.2976 30.9771C35.318 31.6498 35.5116 31.9869 34.0134 32.3956L33.9695 32.2982C30.2745 34.0366 25.1418 30.5916 25.2093 25.8912C25.1698 26.1896 25.0971 26.1151 25.0153 26.2357C24.8246 23.8172 26.1321 21.388 28.3374 20.3962C30.4943 19.3285 33.0231 19.7666 34.5681 21.2066C33.7194 20.0949 32.0302 18.9165 30.0281 19.0267C28.067 19.0577 26.2324 20.304 25.6202 21.6569C24.6154 22.2895 24.4989 24.0953 24.0611 24.4258C23.472 28.7548 25.1691 30.6252 28.0397 32.8253C28.4915 33.13 28.167 33.1761 28.2282 33.4081C27.2744 32.9614 26.401 32.2872 25.6829 31.4617C26.0639 32.0194 26.4751 32.5616 27.0066 32.9876C26.1074 32.6829 24.9061 30.8085 24.5553 30.7322C26.1055 33.5077 30.8447 35.5997 33.3263 34.5618C32.1781 34.6042 30.7193 34.5854 29.4291 34.1085C28.8873 33.8297 28.1504 33.252 28.2821 33.144C31.6687 34.4091 35.1671 34.1022 38.0975 31.7531C38.843 31.1725 39.6573 30.1848 39.8927 30.1712C39.5382 30.7041 39.9532 30.4275 39.681 30.8981C40.4238 29.7002 39.3582 30.4105 40.4489 28.8293L40.8516 29.3841C40.7019 28.3897 42.0865 27.1821 41.946 25.6094C42.2636 25.1284 42.3004 26.1269 41.9633 27.2334C42.431 26.0059 42.0865 25.8086 42.2067 24.7957C42.3366 25.1362 42.507 25.498 42.5944 25.8572C42.2897 24.6711 42.9072 23.8596 43.0599 23.1703C42.9094 23.1035 42.5896 23.6947 42.5166 22.2935C42.5273 21.685 42.6859 21.9745 42.7471 21.8247C42.6276 21.7561 42.3141 21.2896 42.1234 20.3948C42.2617 20.1845 42.493 20.9399 42.6811 20.9709C42.5601 20.2594 42.3517 19.7168 42.3432 19.171C41.7937 18.0224 42.1488 19.324 41.7029 18.6778C41.1179 16.8532 42.1883 18.2544 42.2606 17.4253C43.1473 18.7099 43.653 20.7009 43.885 21.5256C43.7079 20.5202 43.4217 19.5461 43.0724 18.6037C43.3417 18.7169 42.6387 16.5349 43.4224 17.98C42.5852 14.8995 39.8392 12.0211 37.313 10.6704C37.6221 10.9533 38.0123 11.3085 37.8722 11.3642C36.6159 10.6162 36.8369 10.5579 36.6569 10.2418C35.6333 9.82537 35.5662 10.2754 34.8883 10.2425C32.9593 9.21937 32.5875 9.32818 30.8123 8.68714L30.893 9.06446C29.615 8.63882 29.4041 9.22601 28.0228 9.06594C27.9387 9.00028 28.4654 8.82841 28.8987 8.76534C27.6631 8.92836 27.721 8.5219 26.512 8.81033C26.81 8.6012 27.125 8.46289 27.4429 8.28511C26.4353 8.34634 25.0374 8.87156 25.4689 8.39392C23.8254 9.12716 20.9064 10.1566 19.2684 11.6924L19.2168 11.3483C18.4662 12.2494 15.9437 14.0393 15.7427 15.2063L15.5421 15.2532C15.1515 15.9145 14.8988 16.664 14.589 17.3445C14.0781 18.2149 13.8402 17.6794 13.9129 17.8159C12.9082 19.8529 12.4092 21.5647 11.978 22.9685C12.2852 23.4277 11.9854 25.7329 12.1015 27.5779C11.597 36.6896 18.4964 45.5365 26.038 47.5792C27.1434 47.9745 28.7874 47.9594 30.1856 48C28.5358 47.5283 28.3226 47.7499 26.7156 47.1897C25.5563 46.6438 25.3022 46.0204 24.4812 45.3079L24.8061 45.8821C23.1958 45.3123 23.8697 45.1769 22.5595 44.762L22.9066 44.3087C22.3847 44.2692 21.5242 43.429 21.2889 42.9639L20.7179 42.9864C20.0319 42.1399 19.6664 41.5299 19.6929 41.0574L19.5085 41.386C19.2994 41.0271 16.9846 38.2114 18.1855 38.8669C17.9624 38.6629 17.6658 38.5349 17.3442 37.9507L17.5887 37.6711C17.0108 36.9275 16.525 35.9744 16.5619 35.6569C16.8702 36.0733 17.0842 36.1511 17.2959 36.2223C15.8364 32.6011 15.7545 36.0228 14.6491 32.5361L14.8829 32.5173C14.7037 32.2473 14.5949 31.9541 14.4507 31.6664L14.5525 30.6521C13.5016 29.4372 14.2585 25.4862 14.4101 23.3193C14.5152 22.4381 15.2872 21.5002 15.8744 20.0292L15.5166 19.9677C16.2004 18.7748 19.4211 15.1772 20.9127 15.3624C21.6352 14.4546 20.7692 15.359 20.6279 15.1304C22.2151 13.4879 22.7141 13.97 23.7852 13.6746C24.9404 12.9889 22.7938 13.942 23.3415 13.413C25.3384 12.9029 24.7567 12.2534 27.3618 11.9945C27.6366 12.1509 26.7241 12.2361 26.495 12.439C28.1589 11.6249 31.7602 11.8101 34.0993 12.8908C36.8136 14.1592 39.8632 17.9088 39.9834 21.4367L40.1202 21.4736C40.0509 22.8759 40.3349 24.4977 39.8429 25.9874L40.1778 25.2822Z" fill="#A80030"/>
<path d="M23.7203 30.0432L23.6273 30.5079C24.0629 31.0995 24.4085 31.7406 24.9647 32.2031C24.5645 31.4219 24.2673 31.0992 23.7203 30.0432Z" fill="#A80030"/>
<path d="M24.7501 30.0026C24.5195 29.7477 24.3831 29.4409 24.2304 29.1351C24.3764 29.6725 24.6756 30.1343 24.954 30.6038L24.7501 30.0026Z" fill="#A80030"/>
<path d="M42.9721 26.042L42.8747 26.2862C42.6962 27.5543 42.3108 28.809 41.7199 29.9724C42.3727 28.7449 42.795 27.4023 42.9721 26.042Z" fill="#A80030"/>
<path d="M28.5723 8.19807C29.0205 8.03393 29.674 8.10807 30.1495 8C29.5298 8.05201 28.9131 8.08299 28.3042 8.16155L28.5723 8.19807Z" fill="#A80030"/>
<path d="M12.8396 16.564C12.9429 17.52 12.1204 17.8911 13.0218 17.2608C13.505 16.1723 12.8329 16.9602 12.8396 16.564Z" fill="#A80030"/>
<path d="M11.7803 20.9886C11.9879 20.3512 12.0256 19.9684 12.1049 19.5996C11.531 20.3332 11.8408 20.4896 11.7803 20.9886Z" fill="#A80030"/>
</g>
<defs>
<filter id="filter0_d_1_62" x="2.28571" y="2.28571" width="51.4286" height="51.4286" filterUnits="userSpaceOnUse" color-interpolation-filters="sRGB">
<feFlood flood-opacity="0" result="BackgroundImageFix"/>
<feColorMatrix in="SourceAlpha" type="matrix" values="0 0 0 0 0 0 0 0 0 0 0 0 0 0 0 0 0 0 127 0" result="hardAlpha"/>
<feOffset/>
<feGaussianBlur stdDeviation="2.85714"/>
<feComposite in2="hardAlpha" operator="out"/>
<feColorMatrix type="matrix" values="0 0 0 0 0 0 0 0 0 0 0 0 0 0 0 0 0 0 0.25 0"/>
<feBlend mode="normal" in2="BackgroundImageFix" result="effect1_dropShadow_1_62"/>
<feBlend mode="normal" in="SourceGraphic" in2="effect1_dropShadow_1_62" result="shape"/>
</filter>
<linearGradient id="paint0_linear_1_62" x1="28" y1="0" x2="28" y2="56" gradientUnits="userSpaceOnUse">
<stop stop-color="#32000E"/>
<stop offset="1" stop-color="#190007"/>
</linearGradient>
</defs>
</svg>
