<svg width="193" height="40" viewBox="0 0 193 40" fill="none" xmlns="http://www.w3.org/2000/svg">
<rect width="193" height="40" rx="8" fill="url(#paint0_linear_6_2)"/>
<rect x="1.07143" y="1.07143" width="190.857" height="37.8571" rx="6.92857" stroke="white" stroke-opacity="0.15" stroke-width="2.14286"/>
<path d="M22.8656 6.18031C22.4513 5.94598 21.9595 5.94598 21.5453 6.18031L10.6471 12.5099C10.233 12.7444 10 13.1871 10 13.6561V26.3411C10 26.81 10.2589 27.2527 10.6471 27.4872L21.5453 33.8167C21.9595 34.0511 22.4513 34.0511 22.8656 33.8167L33.7637 27.4872C34.1779 27.2527 34.4108 26.81 34.4108 26.3411V13.6561C34.4108 13.1871 34.152 12.7444 33.7637 12.5099L22.8656 6.18031Z" fill="url(#paint1_linear_6_2)"/>
<path d="M33.7897 12.5099L22.8399 6.18032C22.7364 6.12823 22.6069 6.07614 22.5034 6.05016L10.2332 27.1746C10.3367 27.3048 10.4662 27.409 10.5955 27.4872L21.5456 33.8167C21.8562 33.999 22.2185 34.0511 22.555 33.9469L34.0745 12.7444C33.9969 12.6402 33.8933 12.562 33.7897 12.5099Z" fill="url(#paint2_linear_6_2)"/>
<path d="M33.7898 27.4878C34.1005 27.3055 34.3335 26.9929 34.437 26.6542L22.4515 6.02372C22.141 5.97163 21.8044 5.99756 21.5197 6.17999L10.6473 12.4837L22.3738 34C22.5291 33.9739 22.7105 33.9218 22.8658 33.8437L33.7898 27.4878Z" fill="url(#paint3_linear_6_2)"/>
<g filter="url(#filter0_d_6_2)">
<path d="M50.1016 16.8842C50.0372 16.3127 49.7715 15.87 49.3047 15.5561C48.8378 15.2382 48.2502 15.0792 47.5419 15.0792C47.0348 15.0792 46.5961 15.1597 46.2259 15.3207C45.8556 15.4776 45.5678 15.695 45.3626 15.9727C45.1613 16.2463 45.0607 16.5582 45.0607 16.9084C45.0607 17.2022 45.1291 17.4557 45.266 17.669C45.4068 17.8823 45.59 18.0614 45.8153 18.2063C46.0447 18.3472 46.2902 18.4659 46.5518 18.5625C46.8134 18.6551 47.065 18.7315 47.3065 18.7919L48.5138 19.1058C48.9083 19.2024 49.3127 19.3332 49.7273 19.4982C50.1418 19.6632 50.5262 19.8806 50.8803 20.1502C51.2345 20.4199 51.5202 20.7539 51.7376 21.1523C51.9589 21.5508 52.0696 22.0277 52.0696 22.5831C52.0696 23.2834 51.8885 23.9052 51.5263 24.4485C51.1681 24.9918 50.6469 25.4204 49.9627 25.7344C49.2826 26.0483 48.4595 26.2053 47.4936 26.2053C46.5679 26.2053 45.767 26.0584 45.0909 25.7646C44.4148 25.4708 43.8855 25.0542 43.5032 24.5149C43.1209 23.9716 42.9096 23.3276 42.8693 22.5831H44.7408C44.777 23.0298 44.9219 23.4021 45.1754 23.6999C45.433 23.9937 45.761 24.2131 46.1594 24.358C46.5619 24.4988 47.0026 24.5692 47.4815 24.5692C48.0088 24.5692 48.4776 24.4867 48.8881 24.3217C49.3027 24.1527 49.6287 23.9193 49.8661 23.6214C50.1036 23.3196 50.2223 22.9674 50.2223 22.565C50.2223 22.1987 50.1177 21.8989 49.9084 21.6655C49.7031 21.4321 49.4234 21.2389 49.0692 21.0859C48.7191 20.933 48.3227 20.7982 47.88 20.6815L46.419 20.283C45.429 20.0134 44.6442 19.6169 44.0646 19.0937C43.4891 18.5705 43.2013 17.8783 43.2013 17.017C43.2013 16.3047 43.3945 15.6829 43.7809 15.1516C44.1673 14.6204 44.6905 14.2079 45.3505 13.9141C46.0105 13.6162 46.7551 13.4673 47.5842 13.4673C48.4213 13.4673 49.1598 13.6142 49.7997 13.908C50.4437 14.2018 50.9508 14.6063 51.321 15.1214C51.6913 15.6326 51.8845 16.2202 51.9006 16.8842H50.1016ZM60.0278 22.1545V16.7273H61.8389V26H60.064V24.3942H59.9674C59.7541 24.8892 59.412 25.3017 58.9411 25.6317C58.4743 25.9577 57.8927 26.1207 57.1965 26.1207C56.6008 26.1207 56.0736 25.9899 55.6148 25.7283C55.16 25.4627 54.8018 25.0703 54.5402 24.5511C54.2826 24.032 54.1538 23.39 54.1538 22.6254V16.7273H55.9589V22.408C55.9589 23.0399 56.134 23.543 56.4841 23.9173C56.8342 24.2915 57.289 24.4787 57.8485 24.4787C58.1865 24.4787 58.5226 24.3942 58.8566 24.2251C59.1947 24.0561 59.4744 23.8005 59.6958 23.4584C59.9211 23.1164 60.0318 22.6817 60.0278 22.1545ZM64.2642 29.4773V16.7273H66.027V18.2305H66.1779C66.2825 18.0373 66.4335 17.8139 66.6307 17.5604C66.8279 17.3068 67.1016 17.0855 67.4517 16.8963C67.8018 16.7031 68.2647 16.6065 68.8402 16.6065C69.5888 16.6065 70.2569 16.7957 70.8445 17.174C71.432 17.5523 71.8929 18.0977 72.2269 18.81C72.565 19.5224 72.734 20.3796 72.734 21.3817C72.734 22.3839 72.567 23.2431 72.2329 23.9595C71.8989 24.6719 71.4401 25.2212 70.8565 25.6076C70.273 25.9899 69.6069 26.1811 68.8583 26.1811C68.2949 26.1811 67.834 26.0865 67.4758 25.8974C67.1217 25.7082 66.844 25.4869 66.6427 25.2333C66.4415 24.9798 66.2866 24.7544 66.1779 24.5572H66.0692V29.4773H64.2642ZM66.033 21.3636C66.033 22.0156 66.1276 22.5871 66.3168 23.0781C66.5059 23.5691 66.7796 23.9535 67.1378 24.2312C67.496 24.5048 67.9347 24.6417 68.4538 24.6417C68.9931 24.6417 69.4439 24.4988 69.8061 24.2131C70.1683 23.9233 70.442 23.5309 70.6271 23.0359C70.8163 22.5408 70.9109 21.9834 70.9109 21.3636C70.9109 20.7519 70.8183 20.2025 70.6332 19.7156C70.4521 19.2286 70.1784 18.8442 69.8121 18.5625C69.4499 18.2808 68.9972 18.1399 68.4538 18.1399C67.9306 18.1399 67.4879 18.2747 67.1257 18.5444C66.7675 18.814 66.4958 19.1903 66.3107 19.6733C66.1256 20.1562 66.033 20.7197 66.033 21.3636ZM74.7564 29.4773V16.7273H76.5192V18.2305H76.6701C76.7747 18.0373 76.9257 17.8139 77.1229 17.5604C77.3201 17.3068 77.5937 17.0855 77.9439 16.8963C78.294 16.7031 78.7569 16.6065 79.3324 16.6065C80.081 16.6065 80.749 16.7957 81.3366 17.174C81.9242 17.5523 82.385 18.0977 82.7191 18.81C83.0572 19.5224 83.2262 20.3796 83.2262 21.3817C83.2262 22.3839 83.0592 23.2431 82.7251 23.9595C82.3911 24.6719 81.9323 25.2212 81.3487 25.6076C80.7651 25.9899 80.0991 26.1811 79.3505 26.1811C78.787 26.1811 78.3262 26.0865 77.968 25.8974C77.6139 25.7082 77.3362 25.4869 77.1349 25.2333C76.9337 24.9798 76.7788 24.7544 76.6701 24.5572H76.5614V29.4773H74.7564ZM76.5252 21.3636C76.5252 22.0156 76.6198 22.5871 76.8089 23.0781C76.9981 23.5691 77.2718 23.9535 77.63 24.2312C77.9882 24.5048 78.4268 24.6417 78.946 24.6417C79.4853 24.6417 79.9361 24.4988 80.2983 24.2131C80.6605 23.9233 80.9342 23.5309 81.1193 23.0359C81.3085 22.5408 81.403 21.9834 81.403 21.3636C81.403 20.7519 81.3105 20.2025 81.1253 19.7156C80.9442 19.2286 80.6706 18.8442 80.3043 18.5625C79.9421 18.2808 79.4893 18.1399 78.946 18.1399C78.4228 18.1399 77.9801 18.2747 77.6179 18.5444C77.2597 18.814 76.988 19.1903 76.8029 19.6733C76.6178 20.1562 76.5252 20.7197 76.5252 21.3636ZM89.1545 26.1871C88.2851 26.1871 87.5265 25.9879 86.8785 25.5895C86.2306 25.191 85.7275 24.6336 85.3693 23.9173C85.0111 23.2009 84.832 22.3638 84.832 21.4059C84.832 20.444 85.0111 19.6029 85.3693 18.8825C85.7275 18.162 86.2306 17.6026 86.8785 17.2042C87.5265 16.8058 88.2851 16.6065 89.1545 16.6065C90.0238 16.6065 90.7824 16.8058 91.4304 17.2042C92.0783 17.6026 92.5814 18.162 92.9396 18.8825C93.2978 19.6029 93.4769 20.444 93.4769 21.4059C93.4769 22.3638 93.2978 23.2009 92.9396 23.9173C92.5814 24.6336 92.0783 25.191 91.4304 25.5895C90.7824 25.9879 90.0238 26.1871 89.1545 26.1871ZM89.1605 24.6719C89.7239 24.6719 90.1908 24.523 90.5611 24.2251C90.9313 23.9273 91.205 23.5309 91.3821 23.0359C91.5632 22.5408 91.6537 21.9955 91.6537 21.3999C91.6537 20.8082 91.5632 20.2649 91.3821 19.7699C91.205 19.2708 90.9313 18.8704 90.5611 18.5685C90.1908 18.2667 89.7239 18.1158 89.1605 18.1158C88.593 18.1158 88.1221 18.2667 87.7479 18.5685C87.3776 18.8704 87.1019 19.2708 86.9208 19.7699C86.7437 20.2649 86.6552 20.8082 86.6552 21.3999C86.6552 21.9955 86.7437 22.5408 86.9208 23.0359C87.1019 23.5309 87.3776 23.9273 87.7479 24.2251C88.1221 24.523 88.593 24.6719 89.1605 24.6719ZM95.4917 26V16.7273H97.2364V18.2003H97.333C97.502 17.7012 97.7998 17.3088 98.2265 17.0231C98.6571 16.7333 99.1441 16.5884 99.6874 16.5884C99.8001 16.5884 99.9329 16.5924 100.086 16.6005C100.243 16.6085 100.366 16.6186 100.454 16.6307V18.3572C100.382 18.3371 100.253 18.315 100.068 18.2908C99.8826 18.2627 99.6975 18.2486 99.5123 18.2486C99.0857 18.2486 98.7054 18.3391 98.3713 18.5202C98.0413 18.6973 97.7797 18.9448 97.5865 19.2628C97.3934 19.5767 97.2968 19.9349 97.2968 20.3374V26H95.4917ZM106.892 16.7273V18.1761H101.827V16.7273H106.892ZM103.186 14.5057H104.991V23.2773C104.991 23.6275 105.043 23.8911 105.148 24.0682C105.252 24.2412 105.387 24.36 105.552 24.4244C105.721 24.4847 105.904 24.5149 106.102 24.5149C106.247 24.5149 106.373 24.5048 106.482 24.4847C106.591 24.4646 106.675 24.4485 106.736 24.4364L107.062 25.9276C106.957 25.9678 106.808 26.008 106.615 26.0483C106.422 26.0926 106.18 26.1167 105.89 26.1207C105.415 26.1288 104.973 26.0443 104.562 25.8672C104.152 25.6901 103.82 25.4164 103.566 25.0462C103.313 24.6759 103.186 24.2111 103.186 23.6516V14.5057ZM115.688 18.9911L114.052 19.2809C113.984 19.0716 113.875 18.8724 113.726 18.6832C113.581 18.4941 113.384 18.3391 113.135 18.2184C112.885 18.0977 112.573 18.0373 112.199 18.0373C111.688 18.0373 111.261 18.152 110.919 18.3814C110.577 18.6068 110.406 18.8986 110.406 19.2567C110.406 19.5666 110.521 19.8162 110.75 20.0053C110.979 20.1945 111.35 20.3494 111.861 20.4702L113.334 20.8082C114.187 21.0054 114.823 21.3093 115.242 21.7198C115.66 22.1303 115.869 22.6636 115.869 23.3196C115.869 23.875 115.708 24.37 115.386 24.8047C115.068 25.2353 114.624 25.5734 114.052 25.8189C113.485 26.0644 112.827 26.1871 112.078 26.1871C111.04 26.1871 110.193 25.9658 109.537 25.5231C108.881 25.0763 108.478 24.4425 108.329 23.6214L110.074 23.3558C110.183 23.8106 110.406 24.1547 110.744 24.3881C111.082 24.6175 111.523 24.7322 112.066 24.7322C112.658 24.7322 113.131 24.6095 113.485 24.364C113.839 24.1145 114.016 23.8106 114.016 23.4524C114.016 23.1626 113.907 22.9191 113.69 22.7219C113.477 22.5247 113.149 22.3758 112.706 22.2752L111.136 21.9311C110.271 21.7339 109.631 21.42 109.217 20.9893C108.806 20.5587 108.601 20.0134 108.601 19.3533C108.601 18.806 108.754 18.3271 109.06 17.9165C109.366 17.506 109.788 17.1861 110.327 16.9567C110.867 16.7232 111.485 16.6065 112.181 16.6065C113.183 16.6065 113.972 16.8239 114.547 17.2585C115.123 17.6892 115.503 18.2667 115.688 18.9911Z" fill="#E8E8E8"/>
<path d="M132.458 14.1364V26.5H129.923L125.002 19.3643H124.924V26.5H121.936V14.1364H124.507L129.373 21.2599H129.476V14.1364H132.458ZM138.666 26.6751C137.692 26.6751 136.854 26.4758 136.154 26.0774C135.458 25.6749 134.921 25.1155 134.542 24.3991C134.168 23.6787 133.981 22.8436 133.981 21.8938C133.981 20.94 134.168 20.1049 134.542 19.3885C134.921 18.6681 135.458 18.1087 136.154 17.7102C136.854 17.3078 137.692 17.1065 138.666 17.1065C139.64 17.1065 140.475 17.3078 141.171 17.7102C141.871 18.1087 142.408 18.6681 142.783 19.3885C143.161 20.1049 143.35 20.94 143.35 21.8938C143.35 22.8436 143.161 23.6787 142.783 24.3991C142.408 25.1155 141.871 25.6749 141.171 26.0774C140.475 26.4758 139.64 26.6751 138.666 26.6751ZM138.684 24.4474C139.038 24.4474 139.338 24.3388 139.583 24.1214C139.829 23.9041 140.016 23.6023 140.145 23.2159C140.277 22.8295 140.344 22.3828 140.344 21.8757C140.344 21.3606 140.277 20.9098 140.145 20.5234C140.016 20.1371 139.829 19.8352 139.583 19.6179C139.338 19.4006 139.038 19.2919 138.684 19.2919C138.317 19.2919 138.008 19.4006 137.754 19.6179C137.504 19.8352 137.313 20.1371 137.18 20.5234C137.052 20.9098 136.987 21.3606 136.987 21.8757C136.987 22.3828 137.052 22.8295 137.18 23.2159C137.313 23.6023 137.504 23.9041 137.754 24.1214C138.008 24.3388 138.317 24.4474 138.684 24.4474ZM148.249 26.6328C147.565 26.6328 146.943 26.4557 146.384 26.1016C145.824 25.7474 145.378 25.2161 145.044 24.5078C144.71 23.7995 144.543 22.9201 144.543 21.8697C144.543 20.779 144.716 19.8815 145.062 19.1772C145.408 18.4729 145.861 17.9517 146.42 17.6136C146.983 17.2756 147.589 17.1065 148.237 17.1065C148.724 17.1065 149.141 17.191 149.487 17.3601C149.833 17.5251 150.119 17.7384 150.344 18C150.569 18.2616 150.74 18.5333 150.857 18.815H150.918V14.1364H153.87V26.5H150.948V24.9968H150.857C150.732 25.2825 150.555 25.5502 150.326 25.7997C150.096 26.0492 149.809 26.2505 149.463 26.4034C149.121 26.5563 148.716 26.6328 148.249 26.6328ZM149.275 24.3327C149.634 24.3327 149.94 24.2321 150.193 24.0309C150.447 23.8256 150.642 23.5379 150.779 23.1676C150.916 22.7973 150.984 22.3627 150.984 21.8636C150.984 21.3565 150.916 20.9199 150.779 20.5536C150.646 20.1874 150.451 19.9057 150.193 19.7084C149.94 19.5112 149.634 19.4126 149.275 19.4126C148.909 19.4126 148.599 19.5133 148.346 19.7145C148.092 19.9157 147.899 20.1995 147.766 20.5657C147.637 20.9319 147.573 21.3646 147.573 21.8636C147.573 22.3627 147.639 22.7973 147.772 23.1676C147.905 23.5379 148.096 23.8256 148.346 24.0309C148.599 24.2321 148.909 24.3327 149.275 24.3327ZM160.071 26.6751C159.101 26.6751 158.264 26.4839 157.56 26.1016C156.859 25.7152 156.32 25.1658 155.942 24.4535C155.567 23.7371 155.38 22.8859 155.38 21.8999C155.38 20.942 155.569 20.1049 155.948 19.3885C156.326 18.6681 156.859 18.1087 157.548 17.7102C158.236 17.3078 159.047 17.1065 159.98 17.1065C160.64 17.1065 161.244 17.2092 161.792 17.4144C162.339 17.6197 162.812 17.9235 163.21 18.326C163.609 18.7285 163.919 19.2255 164.14 19.8171C164.361 20.4047 164.472 21.0788 164.472 21.8395V22.576H156.413V20.8615H161.725C161.721 20.5476 161.647 20.2679 161.502 20.0224C161.357 19.7769 161.158 19.5857 160.904 19.4489C160.655 19.308 160.367 19.2376 160.041 19.2376C159.711 19.2376 159.415 19.312 159.153 19.4609C158.892 19.6058 158.685 19.805 158.532 20.0586C158.379 20.3081 158.298 20.5919 158.29 20.9098V22.6545C158.29 23.0328 158.365 23.3648 158.513 23.6506C158.662 23.9323 158.874 24.1516 159.147 24.3086C159.421 24.4655 159.747 24.544 160.125 24.544C160.387 24.544 160.624 24.5078 160.838 24.4354C161.051 24.3629 161.234 24.2563 161.387 24.1154C161.54 23.9745 161.655 23.8015 161.731 23.5962L164.442 23.6747C164.329 24.2824 164.082 24.8117 163.699 25.2624C163.321 25.7092 162.824 26.0573 162.208 26.3068C161.592 26.5523 160.88 26.6751 160.071 26.6751ZM167.64 26.6751C167.205 26.6751 166.833 26.5221 166.523 26.2163C166.217 25.9104 166.066 25.5401 166.07 25.1055C166.066 24.6789 166.217 24.3146 166.523 24.0128C166.833 23.7069 167.205 23.554 167.64 23.554C168.05 23.554 168.413 23.7069 168.726 24.0128C169.044 24.3146 169.205 24.6789 169.209 25.1055C169.205 25.3952 169.129 25.6588 168.98 25.8963C168.835 26.1338 168.644 26.3229 168.407 26.4638C168.173 26.6046 167.918 26.6751 167.64 26.6751ZM171.159 17.2273H174.111V26.8864C174.111 27.651 173.954 28.2588 173.641 28.7095C173.331 29.1603 172.892 29.4843 172.324 29.6815C171.757 29.8787 171.087 29.9773 170.314 29.9773C170.21 29.9773 170.111 29.9753 170.018 29.9712C169.926 29.9672 169.825 29.9632 169.717 29.9592V27.7195C169.789 27.7275 169.853 27.7335 169.91 27.7376C169.966 27.7416 170.022 27.7436 170.079 27.7436C170.485 27.7436 170.767 27.6671 170.924 27.5142C171.081 27.3653 171.159 27.1359 171.159 26.826V17.2273ZM172.632 16.1467C172.218 16.1467 171.862 16.0098 171.564 15.7361C171.266 15.4584 171.117 15.1244 171.117 14.734C171.117 14.3477 171.266 14.0176 171.564 13.744C171.862 13.4663 172.218 13.3274 172.632 13.3274C173.051 13.3274 173.407 13.4663 173.701 13.744C173.999 14.0176 174.148 14.3477 174.148 14.734C174.148 15.1244 173.999 15.4584 173.701 15.7361C173.407 16.0098 173.051 16.1467 172.632 16.1467ZM184.086 20.0586L181.375 20.131C181.347 19.9379 181.271 19.7668 181.146 19.6179C181.021 19.465 180.858 19.3462 180.657 19.2617C180.46 19.1732 180.23 19.1289 179.969 19.1289C179.627 19.1289 179.335 19.1973 179.093 19.3342C178.856 19.471 178.739 19.6561 178.743 19.8896C178.739 20.0707 178.812 20.2276 178.961 20.3604C179.114 20.4932 179.385 20.5999 179.776 20.6804L181.562 21.0185C182.488 21.1955 183.176 21.4893 183.627 21.8999C184.082 22.3104 184.311 22.8537 184.315 23.5298C184.311 24.1657 184.122 24.7191 183.748 25.19C183.378 25.6609 182.87 26.0271 182.227 26.2887C181.583 26.5463 180.846 26.6751 180.017 26.6751C178.693 26.6751 177.649 26.4034 176.884 25.8601C176.123 25.3127 175.689 24.5803 175.58 23.6626L178.496 23.5902C178.56 23.9283 178.727 24.1858 178.997 24.3629C179.266 24.54 179.611 24.6285 180.029 24.6285C180.407 24.6285 180.715 24.5581 180.953 24.4173C181.19 24.2764 181.311 24.0892 181.315 23.8558C181.311 23.6465 181.218 23.4795 181.037 23.3548C180.856 23.226 180.572 23.1254 180.186 23.0529L178.568 22.745C177.638 22.576 176.946 22.2641 176.491 21.8093C176.037 21.3505 175.811 20.7669 175.815 20.0586C175.811 19.4388 175.976 18.9096 176.31 18.4709C176.644 18.0282 177.119 17.6901 177.735 17.4567C178.351 17.2232 179.077 17.1065 179.914 17.1065C181.17 17.1065 182.16 17.3701 182.885 17.8974C183.609 18.4206 184.009 19.141 184.086 20.0586Z" fill="#339933"/>
</g>
<defs>
<filter id="filter0_d_6_2" x="36.2857" y="3.78571" width="154.429" height="32.4286" filterUnits="userSpaceOnUse" color-interpolation-filters="sRGB">
<feFlood flood-opacity="0" result="BackgroundImageFix"/>
<feColorMatrix in="SourceAlpha" type="matrix" values="0 0 0 0 0 0 0 0 0 0 0 0 0 0 0 0 0 0 127 0" result="hardAlpha"/>
<feOffset/>
<feGaussianBlur stdDeviation="2.85714"/>
<feComposite in2="hardAlpha" operator="out"/>
<feColorMatrix type="matrix" values="0 0 0 0 0 0 0 0 0 0 0 0 0 0 0 0 0 0 0.25 0"/>
<feBlend mode="normal" in2="BackgroundImageFix" result="effect1_dropShadow_6_2"/>
<feBlend mode="normal" in="SourceGraphic" in2="effect1_dropShadow_6_2" result="shape"/>
</filter>
<linearGradient id="paint0_linear_6_2" x1="96.5" y1="0" x2="96.5" y2="40" gradientUnits="userSpaceOnUse">
<stop stop-color="#0C300C"/>
<stop offset="1" stop-color="#082011"/>
</linearGradient>
<linearGradient id="paint1_linear_6_2" x1="26.6439" y1="10.8944" x2="16.6914" y2="31.072" gradientUnits="userSpaceOnUse">
<stop stop-color="#3F873F"/>
<stop offset="0.3296" stop-color="#3F8B3D"/>
<stop offset="0.6367" stop-color="#3E9638"/>
<stop offset="0.9341" stop-color="#3DA92E"/>
<stop offset="1" stop-color="#3DAE2B"/>
</linearGradient>
<linearGradient id="paint2_linear_6_2" x1="20.5493" y1="21.4798" x2="48.3188" y2="1.08909" gradientUnits="userSpaceOnUse">
<stop offset="0.1376" stop-color="#3F873F"/>
<stop offset="0.4016" stop-color="#52A044"/>
<stop offset="0.7129" stop-color="#64B749"/>
<stop offset="0.9081" stop-color="#6ABF4B"/>
</linearGradient>
<linearGradient id="paint3_linear_6_2" x1="9.60065" y1="19.9947" x2="34.8184" y2="19.9947" gradientUnits="userSpaceOnUse">
<stop offset="0.0919165" stop-color="#6ABF4B"/>
<stop offset="0.2871" stop-color="#64B749"/>
<stop offset="0.5984" stop-color="#52A044"/>
<stop offset="0.8624" stop-color="#3F873F"/>
</linearGradient>
</defs>
</svg>
