<svg width="40" height="40" viewBox="0 0 40 40" fill="none" xmlns="http://www.w3.org/2000/svg">
<rect width="40" height="40" rx="8" fill="url(#paint0_linear_6_26)"/>
<rect x="1.05" y="1.05" width="37.9" height="37.9" rx="6.95" stroke="white" stroke-opacity="0.15" stroke-width="2.1"/>
<path d="M20.8656 6.18031C20.4513 5.94598 19.9595 5.94598 19.5453 6.18031L8.64715 12.5099C8.23299 12.7444 8 13.1871 8 13.6561V26.3411C8 26.81 8.25886 27.2527 8.64715 27.4872L19.5453 33.8167C19.9595 34.0511 20.4513 34.0511 20.8656 33.8167L31.7637 27.4872C32.1779 27.2527 32.4108 26.81 32.4108 26.3411V13.6561C32.4108 13.1871 32.152 12.7444 31.7637 12.5099L20.8656 6.18031Z" fill="url(#paint1_linear_6_26)"/>
<path d="M31.7897 12.5099L20.8399 6.18032C20.7364 6.12823 20.6069 6.07614 20.5034 6.05016L8.23322 27.1746C8.33671 27.3048 8.4662 27.409 8.59552 27.4872L19.5456 33.8167C19.8562 33.999 20.2185 34.0511 20.555 33.9469L32.0745 12.7444C31.9969 12.6402 31.8933 12.562 31.7897 12.5099Z" fill="url(#paint2_linear_6_26)"/>
<path d="M31.7898 27.4878C32.1005 27.3055 32.3335 26.9929 32.437 26.6542L20.4515 6.02372C20.141 5.97163 19.8044 5.99756 19.5197 6.17999L8.64734 12.4837L20.3738 34C20.5291 33.9739 20.7105 33.9218 20.8658 33.8437L31.7898 27.4878Z" fill="url(#paint3_linear_6_26)"/>
<defs>
<linearGradient id="paint0_linear_6_26" x1="20" y1="0" x2="20" y2="40" gradientUnits="userSpaceOnUse">
<stop stop-color="#0C300C"/>
<stop offset="1" stop-color="#082011"/>
</linearGradient>
<linearGradient id="paint1_linear_6_26" x1="24.6439" y1="10.8944" x2="14.6914" y2="31.072" gradientUnits="userSpaceOnUse">
<stop stop-color="#3F873F"/>
<stop offset="0.3296" stop-color="#3F8B3D"/>
<stop offset="0.6367" stop-color="#3E9638"/>
<stop offset="0.9341" stop-color="#3DA92E"/>
<stop offset="1" stop-color="#3DAE2B"/>
</linearGradient>
<linearGradient id="paint2_linear_6_26" x1="18.5493" y1="21.4798" x2="46.3188" y2="1.08909" gradientUnits="userSpaceOnUse">
<stop offset="0.1376" stop-color="#3F873F"/>
<stop offset="0.4016" stop-color="#52A044"/>
<stop offset="0.7129" stop-color="#64B749"/>
<stop offset="0.9081" stop-color="#6ABF4B"/>
</linearGradient>
<linearGradient id="paint3_linear_6_26" x1="7.60065" y1="19.9947" x2="32.8184" y2="19.9947" gradientUnits="userSpaceOnUse">
<stop offset="0.0919165" stop-color="#6ABF4B"/>
<stop offset="0.2871" stop-color="#64B749"/>
<stop offset="0.5984" stop-color="#52A044"/>
<stop offset="0.8624" stop-color="#3F873F"/>
</linearGradient>
</defs>
</svg>
