<svg width="142" height="56" viewBox="0 0 142 56" fill="none" xmlns="http://www.w3.org/2000/svg">
<rect width="142" height="56" rx="8" fill="url(#paint0_linear_6_14)"/>
<rect x="1.05" y="1.05" width="139.9" height="53.9" rx="6.95" stroke="white" stroke-opacity="0.15" stroke-width="2.1"/>
<path d="M33.3794 8.25759C32.7876 7.92283 32.085 7.92283 31.4933 8.25759L15.9245 17.2999C15.3328 17.6348 15 18.2673 15 18.9372V37.0586C15 37.7286 15.3698 38.361 15.9245 38.696L31.4933 47.7382C32.085 48.073 32.7876 48.073 33.3794 47.7382L48.9481 38.696C49.5399 38.361 49.8726 37.7286 49.8726 37.0586V18.9372C49.8726 18.2673 49.5029 17.6348 48.9481 17.2999L33.3794 8.25759Z" fill="url(#paint1_linear_6_14)"/>
<path d="M48.9853 17.2999L33.3427 8.25759C33.1948 8.18318 33.0098 8.10877 32.862 8.07165L15.3332 38.2494C15.481 38.4354 15.666 38.5843 15.8508 38.696L31.4937 47.7382C31.9375 47.9986 32.4551 48.073 32.9357 47.9242L49.3922 17.6348C49.2813 17.486 49.1334 17.3743 48.9853 17.2999Z" fill="url(#paint2_linear_6_14)"/>
<path d="M48.9855 38.6954C49.4293 38.4349 49.7622 37.9884 49.91 37.5046L32.7879 8.03388C32.3443 7.95947 31.8634 7.99652 31.4567 8.25711L15.9248 17.262L32.677 47.9981C32.8988 47.9608 33.1579 47.8863 33.3797 47.7748L48.9855 38.6954Z" fill="url(#paint3_linear_6_14)"/>
<g filter="url(#filter0_d_6_14)">
<path d="M67.625 16.4205C67.5644 15.8826 67.3144 15.4659 66.875 15.1705C66.4356 14.8712 65.8826 14.7216 65.2159 14.7216C64.7386 14.7216 64.3258 14.7973 63.9773 14.9489C63.6288 15.0966 63.358 15.3011 63.1648 15.5625C62.9754 15.8201 62.8807 16.1136 62.8807 16.4432C62.8807 16.7197 62.9451 16.9583 63.0739 17.1591C63.2064 17.3598 63.3788 17.5284 63.5909 17.6648C63.8068 17.7973 64.0379 17.9091 64.2841 18C64.5303 18.0871 64.767 18.1591 64.9943 18.2159L66.1307 18.5114C66.5019 18.6023 66.8826 18.7254 67.2727 18.8807C67.6629 19.036 68.0246 19.2405 68.358 19.4943C68.6913 19.7481 68.9602 20.0625 69.1648 20.4375C69.3731 20.8125 69.4773 21.2614 69.4773 21.7841C69.4773 22.4432 69.3068 23.0284 68.9659 23.5398C68.6288 24.0511 68.1383 24.4545 67.4943 24.75C66.8542 25.0455 66.0795 25.1932 65.1705 25.1932C64.2992 25.1932 63.5455 25.0549 62.9091 24.7784C62.2727 24.5019 61.7746 24.1098 61.4148 23.6023C61.0549 23.0909 60.8561 22.4848 60.8182 21.7841H62.5795C62.6136 22.2045 62.75 22.5549 62.9886 22.8352C63.2311 23.1117 63.5398 23.3182 63.9148 23.4545C64.2936 23.5871 64.7083 23.6534 65.1591 23.6534C65.6553 23.6534 66.0966 23.5758 66.483 23.4205C66.8731 23.2614 67.1799 23.0417 67.4034 22.7614C67.6269 22.4773 67.7386 22.1458 67.7386 21.767C67.7386 21.4223 67.6401 21.1402 67.4432 20.9205C67.25 20.7008 66.9867 20.5189 66.6534 20.375C66.3239 20.2311 65.9508 20.1042 65.5341 19.9943L64.1591 19.6193C63.2273 19.3655 62.4886 18.9924 61.9432 18.5C61.4015 18.0076 61.1307 17.3561 61.1307 16.5455C61.1307 15.875 61.3125 15.2898 61.6761 14.7898C62.0398 14.2898 62.5322 13.9015 63.1534 13.625C63.7746 13.3447 64.4754 13.2045 65.2557 13.2045C66.0436 13.2045 66.7386 13.3428 67.3409 13.6193C67.947 13.8958 68.4242 14.2765 68.7727 14.7614C69.1212 15.2424 69.303 15.7955 69.3182 16.4205H67.625ZM76.9673 21.3807V16.2727H78.6719V25H77.0014V23.4886H76.9105C76.7097 23.9545 76.3878 24.3428 75.9446 24.6534C75.5052 24.9602 74.9579 25.1136 74.3026 25.1136C73.7419 25.1136 73.2457 24.9905 72.8139 24.7443C72.3859 24.4943 72.0488 24.125 71.8026 23.6364C71.5601 23.1477 71.4389 22.5436 71.4389 21.8239V16.2727H73.1378V21.6193C73.1378 22.214 73.3026 22.6875 73.6321 23.0398C73.9616 23.392 74.3897 23.5682 74.9162 23.5682C75.2344 23.5682 75.5507 23.4886 75.8651 23.3295C76.1832 23.1705 76.4465 22.9299 76.6548 22.608C76.8669 22.286 76.9711 21.8769 76.9673 21.3807ZM80.9545 28.2727V16.2727H82.6136V17.6875H82.7557C82.8542 17.5057 82.9962 17.2955 83.1818 17.0568C83.3674 16.8182 83.625 16.6098 83.9545 16.4318C84.2841 16.25 84.7197 16.1591 85.2614 16.1591C85.9659 16.1591 86.5947 16.3371 87.1477 16.6932C87.7007 17.0492 88.1345 17.5625 88.4489 18.233C88.767 18.9034 88.9261 19.7102 88.9261 20.6534C88.9261 21.5966 88.7689 22.4053 88.4545 23.0795C88.1401 23.75 87.7083 24.267 87.1591 24.6307C86.6098 24.9905 85.9829 25.1705 85.2784 25.1705C84.7481 25.1705 84.3144 25.0814 83.9773 24.9034C83.6439 24.7254 83.3826 24.517 83.1932 24.2784C83.0038 24.0398 82.8579 23.8276 82.7557 23.642H82.6534V28.2727H80.9545ZM82.6193 20.6364C82.6193 21.25 82.7083 21.7879 82.8864 22.25C83.0644 22.7121 83.322 23.0739 83.6591 23.3352C83.9962 23.5928 84.4091 23.7216 84.8977 23.7216C85.4053 23.7216 85.8295 23.5871 86.1704 23.3182C86.5114 23.0455 86.7689 22.6761 86.9432 22.2102C87.1212 21.7443 87.2102 21.2197 87.2102 20.6364C87.2102 20.0606 87.1231 19.5436 86.9489 19.0852C86.7784 18.6269 86.5208 18.2652 86.1761 18C85.8352 17.7348 85.4091 17.6023 84.8977 17.6023C84.4053 17.6023 83.9886 17.7292 83.6477 17.983C83.3106 18.2367 83.0549 18.5909 82.8807 19.0455C82.7064 19.5 82.6193 20.0303 82.6193 20.6364ZM90.8295 28.2727V16.2727H92.4886V17.6875H92.6307C92.7292 17.5057 92.8712 17.2955 93.0568 17.0568C93.2424 16.8182 93.5 16.6098 93.8295 16.4318C94.1591 16.25 94.5947 16.1591 95.1364 16.1591C95.8409 16.1591 96.4697 16.3371 97.0227 16.6932C97.5757 17.0492 98.0095 17.5625 98.3239 18.233C98.642 18.9034 98.8011 19.7102 98.8011 20.6534C98.8011 21.5966 98.6439 22.4053 98.3295 23.0795C98.0151 23.75 97.5833 24.267 97.0341 24.6307C96.4848 24.9905 95.8579 25.1705 95.1534 25.1705C94.6231 25.1705 94.1894 25.0814 93.8523 24.9034C93.5189 24.7254 93.2576 24.517 93.0682 24.2784C92.8788 24.0398 92.7329 23.8276 92.6307 23.642H92.5284V28.2727H90.8295ZM92.4943 20.6364C92.4943 21.25 92.5833 21.7879 92.7614 22.25C92.9394 22.7121 93.197 23.0739 93.5341 23.3352C93.8712 23.5928 94.2841 23.7216 94.7727 23.7216C95.2803 23.7216 95.7045 23.5871 96.0454 23.3182C96.3864 23.0455 96.6439 22.6761 96.8182 22.2102C96.9962 21.7443 97.0852 21.2197 97.0852 20.6364C97.0852 20.0606 96.9981 19.5436 96.8239 19.0852C96.6534 18.6269 96.3958 18.2652 96.0511 18C95.7102 17.7348 95.2841 17.6023 94.7727 17.6023C94.2803 17.6023 93.8636 17.7292 93.5227 17.983C93.1856 18.2367 92.9299 18.5909 92.7557 19.0455C92.5814 19.5 92.4943 20.0303 92.4943 20.6364ZM104.381 25.1761C103.562 25.1761 102.848 24.9886 102.239 24.6136C101.629 24.2386 101.155 23.714 100.818 23.0398C100.481 22.3655 100.312 21.5776 100.312 20.6761C100.312 19.7708 100.481 18.9792 100.818 18.3011C101.155 17.6231 101.629 17.0966 102.239 16.7216C102.848 16.3466 103.562 16.1591 104.381 16.1591C105.199 16.1591 105.913 16.3466 106.523 16.7216C107.133 17.0966 107.606 17.6231 107.943 18.3011C108.28 18.9792 108.449 19.7708 108.449 20.6761C108.449 21.5776 108.28 22.3655 107.943 23.0398C107.606 23.714 107.133 24.2386 106.523 24.6136C105.913 24.9886 105.199 25.1761 104.381 25.1761ZM104.386 23.75C104.917 23.75 105.356 23.6098 105.705 23.3295C106.053 23.0492 106.311 22.6761 106.477 22.2102C106.648 21.7443 106.733 21.2311 106.733 20.6705C106.733 20.1136 106.648 19.6023 106.477 19.1364C106.311 18.6667 106.053 18.2898 105.705 18.0057C105.356 17.7216 104.917 17.5795 104.386 17.5795C103.852 17.5795 103.409 17.7216 103.057 18.0057C102.708 18.2898 102.449 18.6667 102.278 19.1364C102.112 19.6023 102.028 20.1136 102.028 20.6705C102.028 21.2311 102.112 21.7443 102.278 22.2102C102.449 22.6761 102.708 23.0492 103.057 23.3295C103.409 23.6098 103.852 23.75 104.386 23.75ZM110.345 25V16.2727H111.987V17.6591H112.078C112.237 17.1894 112.518 16.8201 112.919 16.5511C113.324 16.2784 113.783 16.142 114.294 16.142C114.4 16.142 114.525 16.1458 114.669 16.1534C114.817 16.161 114.932 16.1705 115.016 16.1818V17.8068C114.947 17.7879 114.826 17.767 114.652 17.7443C114.478 17.7178 114.303 17.7045 114.129 17.7045C113.728 17.7045 113.37 17.7898 113.055 17.9602C112.745 18.1269 112.499 18.3598 112.317 18.6591C112.135 18.9545 112.044 19.2917 112.044 19.6705V25H110.345ZM121.075 16.2727V17.6364H116.308V16.2727H121.075ZM117.587 14.1818H119.285V22.4375C119.285 22.767 119.335 23.0151 119.433 23.1818C119.532 23.3447 119.659 23.4564 119.814 23.517C119.973 23.5739 120.145 23.6023 120.331 23.6023C120.467 23.6023 120.587 23.5928 120.689 23.5739C120.791 23.5549 120.871 23.5398 120.928 23.5284L121.234 24.9318C121.136 24.9697 120.996 25.0076 120.814 25.0455C120.632 25.0871 120.405 25.1098 120.132 25.1136C119.685 25.1212 119.268 25.0417 118.882 24.875C118.496 24.7083 118.183 24.4508 117.945 24.1023C117.706 23.7538 117.587 23.3163 117.587 22.7898V14.1818ZM129.354 18.4034L127.814 18.6761C127.75 18.4792 127.647 18.2917 127.507 18.1136C127.371 17.9356 127.185 17.7898 126.95 17.6761C126.715 17.5625 126.422 17.5057 126.07 17.5057C125.589 17.5057 125.187 17.6136 124.865 17.8295C124.543 18.0417 124.382 18.3163 124.382 18.6534C124.382 18.9451 124.49 19.1799 124.706 19.358C124.922 19.536 125.27 19.6818 125.751 19.7955L127.138 20.1136C127.941 20.2992 128.539 20.5852 128.933 20.9716C129.327 21.358 129.524 21.8598 129.524 22.4773C129.524 23 129.373 23.4659 129.07 23.875C128.77 24.2803 128.352 24.5985 127.814 24.8295C127.28 25.0606 126.66 25.1761 125.956 25.1761C124.979 25.1761 124.181 24.9678 123.564 24.5511C122.946 24.1307 122.568 23.5341 122.428 22.7614L124.07 22.5114C124.172 22.9394 124.382 23.2633 124.7 23.483C125.018 23.6989 125.433 23.8068 125.945 23.8068C126.501 23.8068 126.946 23.6913 127.28 23.4602C127.613 23.2254 127.78 22.9394 127.78 22.6023C127.78 22.3295 127.678 22.1004 127.473 21.9148C127.272 21.7292 126.964 21.589 126.547 21.4943L125.07 21.1705C124.255 20.9848 123.653 20.6894 123.263 20.2841C122.876 19.8788 122.683 19.3655 122.683 18.7443C122.683 18.2292 122.827 17.7784 123.115 17.392C123.403 17.0057 123.801 16.7045 124.308 16.4886C124.816 16.2689 125.397 16.1591 126.053 16.1591C126.996 16.1591 127.738 16.3636 128.28 16.7727C128.821 17.178 129.179 17.7216 129.354 18.4034Z" fill="#E8E8E8"/>
<path d="M71.4581 31.6364V44H68.9226L64.0025 36.8643H63.924V44H60.9357V31.6364H63.5075L68.3732 38.7599H68.4759V31.6364H71.4581ZM77.6656 44.1751C76.6916 44.1751 75.8545 43.9758 75.1542 43.5774C74.4579 43.1749 73.9207 42.6155 73.5423 41.8991C73.1681 41.1787 72.9809 40.3436 72.9809 39.3938C72.9809 38.44 73.1681 37.6049 73.5423 36.8885C73.9207 36.1681 74.4579 35.6087 75.1542 35.2102C75.8545 34.8078 76.6916 34.6065 77.6656 34.6065C78.6395 34.6065 79.4746 34.8078 80.1709 35.2102C80.8712 35.6087 81.4085 36.1681 81.7828 36.8885C82.1611 37.6049 82.3502 38.44 82.3502 39.3938C82.3502 40.3436 82.1611 41.1787 81.7828 41.8991C81.4085 42.6155 80.8712 43.1749 80.1709 43.5774C79.4746 43.9758 78.6395 44.1751 77.6656 44.1751ZM77.6837 41.9474C78.0378 41.9474 78.3377 41.8388 78.5832 41.6214C78.8287 41.4041 79.0158 41.1023 79.1446 40.7159C79.2774 40.3295 79.3438 39.8828 79.3438 39.3757C79.3438 38.8606 79.2774 38.4098 79.1446 38.0234C79.0158 37.6371 78.8287 37.3352 78.5832 37.1179C78.3377 36.9006 78.0378 36.7919 77.6837 36.7919C77.3174 36.7919 77.0075 36.9006 76.754 37.1179C76.5045 37.3352 76.3133 37.6371 76.1805 38.0234C76.0517 38.4098 75.9873 38.8606 75.9873 39.3757C75.9873 39.8828 76.0517 40.3295 76.1805 40.7159C76.3133 41.1023 76.5045 41.4041 76.754 41.6214C77.0075 41.8388 77.3174 41.9474 77.6837 41.9474ZM87.2492 44.1328C86.565 44.1328 85.9432 43.9557 85.3838 43.6016C84.8244 43.2474 84.3776 42.7161 84.0436 42.0078C83.7095 41.2995 83.5425 40.4201 83.5425 39.3697C83.5425 38.279 83.7156 37.3815 84.0617 36.6772C84.4078 35.9729 84.8606 35.4517 85.42 35.1136C85.9834 34.7756 86.5892 34.6065 87.2371 34.6065C87.7241 34.6065 88.1406 34.691 88.4868 34.8601C88.8329 35.0251 89.1186 35.2384 89.344 35.5C89.5694 35.7616 89.7404 36.0333 89.8571 36.315H89.9175V31.6364H92.8696V44H89.9477V42.4968H89.8571C89.7324 42.7825 89.5553 43.0502 89.3259 43.2997C89.0965 43.5492 88.8087 43.7505 88.4626 43.9034C88.1205 44.0563 87.716 44.1328 87.2492 44.1328ZM88.2755 41.8327C88.6337 41.8327 88.9395 41.7321 89.1931 41.5309C89.4466 41.3256 89.6418 41.0379 89.7787 40.6676C89.9155 40.2973 89.9839 39.8627 89.9839 39.3636C89.9839 38.8565 89.9155 38.4199 89.7787 38.0536C89.6459 37.6874 89.4507 37.4057 89.1931 37.2084C88.9395 37.0112 88.6337 36.9126 88.2755 36.9126C87.9092 36.9126 87.5993 37.0133 87.3458 37.2145C87.0922 37.4157 86.8991 37.6994 86.7662 38.0657C86.6375 38.4319 86.5731 38.8646 86.5731 39.3636C86.5731 39.8627 86.6395 40.2973 86.7723 40.6676C86.9051 41.0379 87.0963 41.3256 87.3458 41.5309C87.5993 41.7321 87.9092 41.8327 88.2755 41.8327ZM99.071 44.1751C98.1011 44.1751 97.264 43.9839 96.5596 43.6016C95.8594 43.2152 95.3201 42.6658 94.9418 41.9535C94.5675 41.2371 94.3803 40.3859 94.3803 39.3999C94.3803 38.442 94.5695 37.6049 94.9478 36.8885C95.3261 36.1681 95.8594 35.6087 96.5476 35.2102C97.2358 34.8078 98.0467 34.6065 98.9805 34.6065C99.6405 34.6065 100.244 34.7092 100.792 34.9144C101.339 35.1197 101.812 35.4235 102.21 35.826C102.609 36.2285 102.919 36.7255 103.14 37.3171C103.361 37.9047 103.472 38.5788 103.472 39.3395V40.076H95.4126V38.3615H100.725C100.721 38.0476 100.647 37.7679 100.502 37.5224C100.357 37.2769 100.158 37.0857 99.9041 36.9489C99.6546 36.808 99.3668 36.7376 99.0408 36.7376C98.7108 36.7376 98.415 36.812 98.1534 36.9609C97.8918 37.1058 97.6845 37.305 97.5316 37.5586C97.3787 37.8081 97.2982 38.0918 97.2901 38.4098V40.1545C97.2901 40.5328 97.3646 40.8648 97.5135 41.1506C97.6624 41.4323 97.8737 41.6516 98.1474 41.8086C98.421 41.9655 98.747 42.044 99.1253 42.044C99.3869 42.044 99.6244 42.0078 99.8377 41.9354C100.051 41.8629 100.234 41.7563 100.387 41.6154C100.54 41.4745 100.655 41.3015 100.731 41.0962L103.442 41.1747C103.329 41.7824 103.082 42.3117 102.699 42.7624C102.321 43.2092 101.824 43.5573 101.208 43.8068C100.592 44.0523 99.88 44.1751 99.071 44.1751ZM106.64 44.1751C106.205 44.1751 105.833 44.0221 105.523 43.7163C105.217 43.4104 105.066 43.0401 105.07 42.6055C105.066 42.1789 105.217 41.8146 105.523 41.5128C105.833 41.2069 106.205 41.054 106.64 41.054C107.05 41.054 107.413 41.2069 107.726 41.5128C108.044 41.8146 108.205 42.1789 108.209 42.6055C108.205 42.8952 108.129 43.1588 107.98 43.3963C107.835 43.6338 107.644 43.8229 107.407 43.9638C107.173 44.1046 106.918 44.1751 106.64 44.1751ZM110.159 34.7273H113.111V44.3864C113.111 45.151 112.954 45.7588 112.641 46.2095C112.331 46.6603 111.892 46.9842 111.324 47.1815C110.757 47.3787 110.087 47.4773 109.314 47.4773C109.21 47.4773 109.111 47.4753 109.018 47.4712C108.926 47.4672 108.825 47.4632 108.717 47.4592V45.2195C108.789 45.2275 108.853 45.2335 108.91 45.2376C108.966 45.2416 109.022 45.2436 109.079 45.2436C109.485 45.2436 109.767 45.1671 109.924 45.0142C110.081 44.8653 110.159 44.6359 110.159 44.326V34.7273ZM111.632 33.6467C111.218 33.6467 110.862 33.5098 110.564 33.2361C110.266 32.9584 110.117 32.6244 110.117 32.234C110.117 31.8477 110.266 31.5176 110.564 31.244C110.862 30.9663 111.218 30.8274 111.632 30.8274C112.051 30.8274 112.407 30.9663 112.701 31.244C112.999 31.5176 113.148 31.8477 113.148 32.234C113.148 32.6244 112.999 32.9584 112.701 33.2361C112.407 33.5098 112.051 33.6467 111.632 33.6467ZM123.086 37.5586L120.375 37.631C120.347 37.4378 120.271 37.2668 120.146 37.1179C120.021 36.965 119.858 36.8462 119.657 36.7617C119.46 36.6732 119.23 36.6289 118.969 36.6289C118.627 36.6289 118.335 36.6973 118.093 36.8342C117.856 36.971 117.739 37.1561 117.743 37.3896C117.739 37.5707 117.812 37.7276 117.961 37.8604C118.114 37.9932 118.385 38.0999 118.776 38.1804L120.562 38.5185C121.488 38.6955 122.176 38.9893 122.627 39.3999C123.082 39.8104 123.311 40.3537 123.315 41.0298C123.311 41.6657 123.122 42.2191 122.748 42.69C122.378 43.1609 121.87 43.5271 121.227 43.7887C120.583 44.0463 119.846 44.1751 119.017 44.1751C117.693 44.1751 116.649 43.9034 115.884 43.3601C115.123 42.8127 114.689 42.0802 114.58 41.1626L117.496 41.0902C117.56 41.4283 117.727 41.6858 117.997 41.8629C118.266 42.04 118.611 42.1285 119.029 42.1285C119.407 42.1285 119.715 42.0581 119.953 41.9173C120.19 41.7764 120.311 41.5892 120.315 41.3558C120.311 41.1465 120.218 40.9795 120.037 40.8548C119.856 40.726 119.572 40.6253 119.186 40.5529L117.568 40.245C116.638 40.076 115.946 39.7641 115.491 39.3093C115.037 38.8505 114.811 38.2669 114.815 37.5586C114.811 36.9388 114.976 36.4096 115.31 35.9709C115.644 35.5282 116.119 35.1901 116.735 34.9567C117.351 34.7232 118.077 34.6065 118.914 34.6065C120.17 34.6065 121.16 34.8701 121.885 35.3974C122.609 35.9206 123.009 36.641 123.086 37.5586Z" fill="#339933"/>
</g>
<defs>
<filter id="filter0_d_6_14" x="54.4" y="4.4" width="81.2" height="48.6773" filterUnits="userSpaceOnUse" color-interpolation-filters="sRGB">
<feFlood flood-opacity="0" result="BackgroundImageFix"/>
<feColorMatrix in="SourceAlpha" type="matrix" values="0 0 0 0 0 0 0 0 0 0 0 0 0 0 0 0 0 0 127 0" result="hardAlpha"/>
<feOffset/>
<feGaussianBlur stdDeviation="2.8"/>
<feComposite in2="hardAlpha" operator="out"/>
<feColorMatrix type="matrix" values="0 0 0 0 0 0 0 0 0 0 0 0 0 0 0 0 0 0 0.25 0"/>
<feBlend mode="normal" in2="BackgroundImageFix" result="effect1_dropShadow_6_14"/>
<feBlend mode="normal" in="SourceGraphic" in2="effect1_dropShadow_6_14" result="shape"/>
</filter>
<linearGradient id="paint0_linear_6_14" x1="71" y1="0" x2="71" y2="56" gradientUnits="userSpaceOnUse">
<stop stop-color="#0C300C"/>
<stop offset="1" stop-color="#082011"/>
</linearGradient>
<linearGradient id="paint1_linear_6_14" x1="38.777" y1="14.992" x2="24.5591" y2="43.8172" gradientUnits="userSpaceOnUse">
<stop stop-color="#3F873F"/>
<stop offset="0.3296" stop-color="#3F8B3D"/>
<stop offset="0.6367" stop-color="#3E9638"/>
<stop offset="0.9341" stop-color="#3DA92E"/>
<stop offset="1" stop-color="#3DAE2B"/>
</linearGradient>
<linearGradient id="paint2_linear_6_14" x1="30.0705" y1="30.114" x2="69.7412" y2="0.984404" gradientUnits="userSpaceOnUse">
<stop offset="0.1376" stop-color="#3F873F"/>
<stop offset="0.4016" stop-color="#52A044"/>
<stop offset="0.7129" stop-color="#64B749"/>
<stop offset="0.9081" stop-color="#6ABF4B"/>
</linearGradient>
<linearGradient id="paint3_linear_6_14" x1="14.4295" y1="27.9915" x2="50.4549" y2="27.9915" gradientUnits="userSpaceOnUse">
<stop offset="0.0919165" stop-color="#6ABF4B"/>
<stop offset="0.2871" stop-color="#64B749"/>
<stop offset="0.5984" stop-color="#52A044"/>
<stop offset="0.8624" stop-color="#3F873F"/>
</linearGradient>
</defs>
</svg>
