<svg width="56" height="56" viewBox="0 0 56 56" fill="none" xmlns="http://www.w3.org/2000/svg">
<rect width="56" height="56" rx="8.4" fill="url(#paint0_linear_6_38)"/>
<rect x="1.05" y="1.05" width="53.9" height="53.9" rx="7.35" stroke="white" stroke-opacity="0.15" stroke-width="2.1"/>
<path d="M29.3794 8.25759C28.7876 7.92283 28.085 7.92283 27.4933 8.25759L11.9245 17.2999C11.3328 17.6348 11 18.2673 11 18.9372V37.0586C11 37.7286 11.3698 38.361 11.9245 38.696L27.4933 47.7382C28.085 48.073 28.7876 48.073 29.3794 47.7382L44.9481 38.696C45.5399 38.361 45.8726 37.7286 45.8726 37.0586V18.9372C45.8726 18.2673 45.5029 17.6348 44.9481 17.2999L29.3794 8.25759Z" fill="url(#paint1_linear_6_38)"/>
<path d="M44.9853 17.2999L29.3427 8.25759C29.1948 8.18318 29.0098 8.10877 28.862 8.07165L11.3332 38.2494C11.481 38.4354 11.666 38.5843 11.8508 38.696L27.4937 47.7382C27.9375 47.9986 28.4551 48.073 28.9357 47.9242L45.3922 17.6348C45.2813 17.486 45.1334 17.3743 44.9853 17.2999Z" fill="url(#paint2_linear_6_38)"/>
<path d="M44.9855 38.6954C45.4293 38.4349 45.7622 37.9884 45.91 37.5046L28.7879 8.03388C28.3443 7.95947 27.8634 7.99652 27.4567 8.25711L11.9248 17.262L28.677 47.9981C28.8988 47.9608 29.1579 47.8863 29.3797 47.7748L44.9855 38.6954Z" fill="url(#paint3_linear_6_38)"/>
<defs>
<linearGradient id="paint0_linear_6_38" x1="28" y1="0" x2="28" y2="56" gradientUnits="userSpaceOnUse">
<stop stop-color="#0C300C"/>
<stop offset="1" stop-color="#082011"/>
</linearGradient>
<linearGradient id="paint1_linear_6_38" x1="34.777" y1="14.992" x2="20.5591" y2="43.8172" gradientUnits="userSpaceOnUse">
<stop stop-color="#3F873F"/>
<stop offset="0.3296" stop-color="#3F8B3D"/>
<stop offset="0.6367" stop-color="#3E9638"/>
<stop offset="0.9341" stop-color="#3DA92E"/>
<stop offset="1" stop-color="#3DAE2B"/>
</linearGradient>
<linearGradient id="paint2_linear_6_38" x1="26.0705" y1="30.114" x2="65.7412" y2="0.984404" gradientUnits="userSpaceOnUse">
<stop offset="0.1376" stop-color="#3F873F"/>
<stop offset="0.4016" stop-color="#52A044"/>
<stop offset="0.7129" stop-color="#64B749"/>
<stop offset="0.9081" stop-color="#6ABF4B"/>
</linearGradient>
<linearGradient id="paint3_linear_6_38" x1="10.4295" y1="27.9915" x2="46.4549" y2="27.9915" gradientUnits="userSpaceOnUse">
<stop offset="0.0919165" stop-color="#6ABF4B"/>
<stop offset="0.2871" stop-color="#64B749"/>
<stop offset="0.5984" stop-color="#52A044"/>
<stop offset="0.8624" stop-color="#3F873F"/>
</linearGradient>
</defs>
</svg>
