<svg width="143" height="56" viewBox="0 0 143 56" fill="none" xmlns="http://www.w3.org/2000/svg">
<rect width="143" height="56" rx="8" fill="url(#paint0_linear_1_50)"/>
<rect x="1.05" y="1.05" width="140.9" height="53.9" rx="6.95" stroke="white" stroke-opacity="0.15" stroke-width="2.1"/>
<g filter="url(#filter0_d_1_50)">
<mask id="mask0_1_50" style="mask-type:luminance" maskUnits="userSpaceOnUse" x="14" y="8" width="36" height="40">
<path d="M31.1247 8.25304L15.4474 17.3018C14.8602 17.6404 14.5 18.2656 14.5 18.9413V37.0515C14.5 37.7276 14.8602 38.3524 15.4474 38.691L31.1258 47.7469C31.7119 48.0844 32.4345 48.0844 33.0199 47.7469L48.6956 38.691C49.2799 38.3524 49.6408 37.7273 49.6408 37.0515V18.9413C49.6408 18.2656 49.2799 17.6404 48.6919 17.3018L33.0184 8.25304C32.7244 8.08447 32.3969 8 32.0695 8C31.742 8 31.4145 8.08447 31.1206 8.25304" fill="white"/>
</mask>
<g mask="url(#mask0_1_50)">
<path d="M65.4833 15.7653L21.3075 -5.88813L-1.34322 40.3191L42.8314 61.9736L65.4833 15.7653Z" fill="url(#paint1_linear_1_50)"/>
</g>
<mask id="mask1_1_50" style="mask-type:luminance" maskUnits="userSpaceOnUse" x="14" y="8" width="36" height="40">
<path d="M14.8885 38.2013C15.0385 38.396 15.226 38.5645 15.4467 38.691L28.8949 46.459L31.1351 47.7465C31.47 47.94 31.8518 48.0219 32.2269 47.994C32.3519 47.9839 32.4769 47.9605 32.599 47.9259L49.1336 17.6505C49.0071 17.5128 48.859 17.3974 48.693 17.3007L38.4278 11.3729L33.0016 8.25081C32.8476 8.1615 32.6805 8.09824 32.5104 8.05359L14.8885 38.2013Z" fill="white"/>
</mask>
<g mask="url(#mask1_1_50)">
<path d="M-4.21149 22.1698L26.9812 64.3875L68.234 33.909L37.0395 -8.30763L-4.21149 22.1698Z" fill="url(#paint2_linear_1_50)"/>
</g>
<mask id="mask2_1_50" style="mask-type:luminance" maskUnits="userSpaceOnUse" x="15" y="8" width="35" height="40">
<path d="M31.8823 8.01043C31.6192 8.03647 31.3621 8.11834 31.1251 8.25304L15.4924 17.2758L32.3493 47.9791C32.5837 47.9456 32.8145 47.8674 33.0228 47.7469L48.7001 38.691C49.1839 38.4105 49.515 37.9356 49.6155 37.3976L32.4312 8.04131C32.3047 8.01638 32.1781 8.00336 32.0479 8.00336C31.9958 8.00336 31.9437 8.00596 31.8916 8.01079" fill="white"/>
</mask>
<g mask="url(#mask2_1_50)">
<path d="M15.4918 8.00335V47.9798H49.6086V8.00335H15.4918Z" fill="url(#paint3_linear_1_50)"/>
</g>
</g>
<g filter="url(#filter1_d_1_50)">
<path d="M67.625 15.9204C67.5644 15.3826 67.3144 14.9659 66.875 14.6704C66.4356 14.3712 65.8826 14.2216 65.2159 14.2216C64.7386 14.2216 64.3257 14.2973 63.9773 14.4489C63.6288 14.5966 63.3579 14.8011 63.1648 15.0625C62.9754 15.3201 62.8807 15.6136 62.8807 15.9432C62.8807 16.2197 62.9451 16.4583 63.0738 16.6591C63.2064 16.8598 63.3788 17.0284 63.5909 17.1648C63.8068 17.2973 64.0379 17.4091 64.2841 17.5C64.5303 17.5871 64.767 17.6591 64.9943 17.7159L66.1307 18.0114C66.5019 18.1023 66.8826 18.2254 67.2727 18.3807C67.6629 18.536 68.0246 18.7405 68.3579 18.9943C68.6913 19.2481 68.9602 19.5625 69.1648 19.9375C69.3731 20.3125 69.4773 20.7614 69.4773 21.2841C69.4773 21.9432 69.3068 22.5284 68.9659 23.0398C68.6288 23.5511 68.1382 23.9545 67.4943 24.25C66.8541 24.5454 66.0795 24.6932 65.1704 24.6932C64.2992 24.6932 63.5454 24.5549 62.9091 24.2784C62.2727 24.0019 61.7746 23.6098 61.4148 23.1023C61.0549 22.5909 60.856 21.9848 60.8182 21.2841H62.5795C62.6136 21.7045 62.75 22.0549 62.9886 22.3352C63.231 22.6117 63.5398 22.8182 63.9148 22.9545C64.2935 23.0871 64.7083 23.1534 65.1591 23.1534C65.6553 23.1534 66.0966 23.0758 66.4829 22.9204C66.8731 22.7614 67.1799 22.5417 67.4034 22.2614C67.6269 21.9773 67.7386 21.6458 67.7386 21.267C67.7386 20.9223 67.6401 20.6401 67.4432 20.4204C67.25 20.2008 66.9867 20.0189 66.6534 19.875C66.3238 19.7311 65.9507 19.6042 65.5341 19.4943L64.1591 19.1193C63.2273 18.8655 62.4886 18.4924 61.9432 18C61.4015 17.5076 61.1307 16.8561 61.1307 16.0454C61.1307 15.375 61.3125 14.7898 61.6761 14.2898C62.0398 13.7898 62.5322 13.4015 63.1534 13.125C63.7746 12.8447 64.4754 12.7045 65.2557 12.7045C66.0435 12.7045 66.7386 12.8428 67.3409 13.1193C67.947 13.3958 68.4242 13.7765 68.7727 14.2614C69.1212 14.7424 69.303 15.2954 69.3182 15.9204H67.625ZM76.9673 20.8807V15.7727H78.6719V24.5H77.0014V22.9886H76.9105C76.7097 23.4545 76.3878 23.8428 75.9446 24.1534C75.5052 24.4602 74.9578 24.6136 74.3025 24.6136C73.7419 24.6136 73.2457 24.4905 72.8139 24.2443C72.3859 23.9943 72.0488 23.625 71.8025 23.1364C71.5601 22.6477 71.4389 22.0436 71.4389 21.3239V15.7727H73.1378V21.1193C73.1378 21.714 73.3025 22.1875 73.6321 22.5398C73.9616 22.892 74.3897 23.0682 74.9162 23.0682C75.2344 23.0682 75.5506 22.9886 75.865 22.8295C76.1832 22.6704 76.4465 22.4299 76.6548 22.1079C76.8669 21.786 76.9711 21.3769 76.9673 20.8807ZM80.9545 27.7727V15.7727H82.6136V17.1875H82.7557C82.8541 17.0057 82.9962 16.7954 83.1818 16.5568C83.3674 16.3182 83.625 16.1098 83.9545 15.9318C84.2841 15.75 84.7197 15.6591 85.2613 15.6591C85.9659 15.6591 86.5947 15.8371 87.1477 16.1932C87.7007 16.5492 88.1344 17.0625 88.4488 17.7329C88.767 18.4034 88.9261 19.2102 88.9261 20.1534C88.9261 21.0966 88.7689 21.9053 88.4545 22.5795C88.1401 23.25 87.7083 23.767 87.1591 24.1307C86.6098 24.4905 85.9829 24.6704 85.2784 24.6704C84.7481 24.6704 84.3144 24.5814 83.9773 24.4034C83.6439 24.2254 83.3826 24.017 83.1932 23.7784C83.0038 23.5398 82.8579 23.3276 82.7557 23.142H82.6534V27.7727H80.9545ZM82.6193 20.1364C82.6193 20.75 82.7083 21.2879 82.8863 21.75C83.0644 22.2121 83.3219 22.5739 83.6591 22.8352C83.9962 23.0928 84.4091 23.2216 84.8977 23.2216C85.4053 23.2216 85.8295 23.0871 86.1704 22.8182C86.5113 22.5454 86.7689 22.1761 86.9432 21.7102C87.1212 21.2443 87.2102 20.7197 87.2102 20.1364C87.2102 19.5606 87.1231 19.0436 86.9488 18.5852C86.7784 18.1269 86.5208 17.7651 86.1761 17.5C85.8352 17.2348 85.4091 17.1023 84.8977 17.1023C84.4053 17.1023 83.9886 17.2292 83.6477 17.4829C83.3106 17.7367 83.0549 18.0909 82.8807 18.5454C82.7064 19 82.6193 19.5303 82.6193 20.1364ZM90.8295 27.7727V15.7727H92.4886V17.1875H92.6307C92.7291 17.0057 92.8712 16.7954 93.0568 16.5568C93.2424 16.3182 93.5 16.1098 93.8295 15.9318C94.1591 15.75 94.5947 15.6591 95.1363 15.6591C95.8409 15.6591 96.4697 15.8371 97.0227 16.1932C97.5757 16.5492 98.0094 17.0625 98.3238 17.7329C98.642 18.4034 98.8011 19.2102 98.8011 20.1534C98.8011 21.0966 98.6439 21.9053 98.3295 22.5795C98.0151 23.25 97.5833 23.767 97.0341 24.1307C96.4848 24.4905 95.8579 24.6704 95.1534 24.6704C94.6231 24.6704 94.1894 24.5814 93.8522 24.4034C93.5189 24.2254 93.2576 24.017 93.0682 23.7784C92.8788 23.5398 92.7329 23.3276 92.6307 23.142H92.5284V27.7727H90.8295ZM92.4943 20.1364C92.4943 20.75 92.5833 21.2879 92.7613 21.75C92.9394 22.2121 93.1969 22.5739 93.5341 22.8352C93.8712 23.0928 94.2841 23.2216 94.7727 23.2216C95.2803 23.2216 95.7045 23.0871 96.0454 22.8182C96.3863 22.5454 96.6439 22.1761 96.8182 21.7102C96.9962 21.2443 97.0852 20.7197 97.0852 20.1364C97.0852 19.5606 96.9981 19.0436 96.8238 18.5852C96.6534 18.1269 96.3958 17.7651 96.0511 17.5C95.7102 17.2348 95.2841 17.1023 94.7727 17.1023C94.2803 17.1023 93.8636 17.2292 93.5227 17.4829C93.1856 17.7367 92.9299 18.0909 92.7557 18.5454C92.5814 19 92.4943 19.5303 92.4943 20.1364ZM104.381 24.6761C103.562 24.6761 102.848 24.4886 102.239 24.1136C101.629 23.7386 101.155 23.214 100.818 22.5398C100.481 21.8655 100.312 21.0776 100.312 20.1761C100.312 19.2708 100.481 18.4792 100.818 17.8011C101.155 17.1231 101.629 16.5966 102.239 16.2216C102.848 15.8466 103.562 15.6591 104.381 15.6591C105.199 15.6591 105.913 15.8466 106.523 16.2216C107.133 16.5966 107.606 17.1231 107.943 17.8011C108.28 18.4792 108.449 19.2708 108.449 20.1761C108.449 21.0776 108.28 21.8655 107.943 22.5398C107.606 23.214 107.133 23.7386 106.523 24.1136C105.913 24.4886 105.199 24.6761 104.381 24.6761ZM104.386 23.25C104.917 23.25 105.356 23.1098 105.705 22.8295C106.053 22.5492 106.311 22.1761 106.477 21.7102C106.648 21.2443 106.733 20.7311 106.733 20.1704C106.733 19.6136 106.648 19.1023 106.477 18.6364C106.311 18.1667 106.053 17.7898 105.705 17.5057C105.356 17.2216 104.917 17.0795 104.386 17.0795C103.852 17.0795 103.409 17.2216 103.057 17.5057C102.708 17.7898 102.449 18.1667 102.278 18.6364C102.112 19.1023 102.028 19.6136 102.028 20.1704C102.028 20.7311 102.112 21.2443 102.278 21.7102C102.449 22.1761 102.708 22.5492 103.057 22.8295C103.409 23.1098 103.852 23.25 104.386 23.25ZM110.345 24.5V15.7727H111.987V17.1591H112.078C112.237 16.6894 112.517 16.3201 112.919 16.0511C113.324 15.7784 113.783 15.642 114.294 15.642C114.4 15.642 114.525 15.6458 114.669 15.6534C114.817 15.661 114.932 15.6704 115.016 15.6818V17.3068C114.947 17.2879 114.826 17.267 114.652 17.2443C114.478 17.2178 114.303 17.2045 114.129 17.2045C113.728 17.2045 113.37 17.2898 113.055 17.4602C112.745 17.6269 112.499 17.8598 112.317 18.1591C112.135 18.4545 112.044 18.7917 112.044 19.1704V24.5H110.345ZM121.075 15.7727V17.1364H116.308V15.7727H121.075ZM117.587 13.6818H119.285V21.9375C119.285 22.267 119.335 22.5151 119.433 22.6818C119.532 22.8447 119.659 22.9564 119.814 23.017C119.973 23.0739 120.145 23.1023 120.331 23.1023C120.467 23.1023 120.587 23.0928 120.689 23.0739C120.791 23.0549 120.871 23.0398 120.928 23.0284L121.234 24.4318C121.136 24.4697 120.996 24.5076 120.814 24.5454C120.632 24.5871 120.405 24.6098 120.132 24.6136C119.685 24.6212 119.268 24.5417 118.882 24.375C118.496 24.2083 118.183 23.9508 117.945 23.6023C117.706 23.2538 117.587 22.8163 117.587 22.2898V13.6818ZM129.354 17.9034L127.814 18.1761C127.749 17.9792 127.647 17.7917 127.507 17.6136C127.371 17.4356 127.185 17.2898 126.95 17.1761C126.715 17.0625 126.422 17.0057 126.07 17.0057C125.589 17.0057 125.187 17.1136 124.865 17.3295C124.543 17.5417 124.382 17.8163 124.382 18.1534C124.382 18.4451 124.49 18.6799 124.706 18.8579C124.922 19.036 125.27 19.1818 125.751 19.2954L127.138 19.6136C127.941 19.7992 128.539 20.0852 128.933 20.4716C129.327 20.8579 129.524 21.3598 129.524 21.9773C129.524 22.5 129.373 22.9659 129.07 23.375C128.77 23.7803 128.352 24.0985 127.814 24.3295C127.28 24.5606 126.66 24.6761 125.956 24.6761C124.979 24.6761 124.181 24.4678 123.564 24.0511C122.946 23.6307 122.568 23.0341 122.428 22.2614L124.07 22.0114C124.172 22.4394 124.382 22.7633 124.7 22.9829C125.018 23.1989 125.433 23.3068 125.945 23.3068C126.501 23.3068 126.946 23.1913 127.28 22.9602C127.613 22.7254 127.78 22.4394 127.78 22.1023C127.78 21.8295 127.678 21.6004 127.473 21.4148C127.272 21.2292 126.964 21.089 126.547 20.9943L125.07 20.6704C124.255 20.4848 123.653 20.1894 123.263 19.7841C122.876 19.3788 122.683 18.8655 122.683 18.2443C122.683 17.7292 122.827 17.2784 123.115 16.892C123.403 16.5057 123.801 16.2045 124.308 15.9886C124.816 15.7689 125.397 15.6591 126.053 15.6591C126.996 15.6591 127.738 15.8636 128.28 16.2727C128.821 16.678 129.179 17.2216 129.354 17.9034Z" fill="#E8E8E8"/>
<path d="M71.4581 31.1364V43.5H68.9226L64.0025 36.3643H63.924V43.5H60.9357V31.1364H63.5074L68.3732 38.2599H68.4758V31.1364H71.4581ZM77.6656 43.6751C76.6916 43.6751 75.8545 43.4758 75.1542 43.0774C74.4579 42.6749 73.9206 42.1155 73.5423 41.3991C73.168 40.6787 72.9809 39.8436 72.9809 38.8938C72.9809 37.94 73.168 37.1049 73.5423 36.3885C73.9206 35.6681 74.4579 35.1087 75.1542 34.7102C75.8545 34.3078 76.6916 34.1065 77.6656 34.1065C78.6395 34.1065 79.4746 34.3078 80.1709 34.7102C80.8712 35.1087 81.4084 35.6681 81.7827 36.3885C82.1611 37.1049 82.3502 37.94 82.3502 38.8938C82.3502 39.8436 82.1611 40.6787 81.7827 41.3991C81.4084 42.1155 80.8712 42.6749 80.1709 43.0774C79.4746 43.4758 78.6395 43.6751 77.6656 43.6751ZM77.6837 41.4474C78.0378 41.4474 78.3377 41.3388 78.5832 41.1214C78.8287 40.9041 79.0158 40.6023 79.1446 40.2159C79.2774 39.8295 79.3438 39.3828 79.3438 38.8757C79.3438 38.3605 79.2774 37.9098 79.1446 37.5234C79.0158 37.1371 78.8287 36.8352 78.5832 36.6179C78.3377 36.4006 78.0378 36.2919 77.6837 36.2919C77.3174 36.2919 77.0075 36.4006 76.754 36.6179C76.5044 36.8352 76.3133 37.1371 76.1805 37.5234C76.0517 37.9098 75.9873 38.3605 75.9873 38.8757C75.9873 39.3828 76.0517 39.8295 76.1805 40.2159C76.3133 40.6023 76.5044 40.9041 76.754 41.1214C77.0075 41.3388 77.3174 41.4474 77.6837 41.4474ZM87.2492 43.6328C86.565 43.6328 85.9432 43.4557 85.3838 43.1016C84.8243 42.7474 84.3776 42.2161 84.0436 41.5078C83.7095 40.7995 83.5425 39.9201 83.5425 38.8697C83.5425 37.779 83.7156 36.8815 84.0617 36.1772C84.4078 35.4729 84.8606 34.9517 85.42 34.6136C85.9834 34.2756 86.5891 34.1065 87.2371 34.1065C87.7241 34.1065 88.1406 34.191 88.4867 34.3601C88.8329 34.5251 89.1186 34.7384 89.344 35C89.5694 35.2616 89.7404 35.5333 89.8571 35.815H89.9175V31.1364H92.8696V43.5H89.9477V41.9968H89.8571C89.7324 42.2825 89.5553 42.5502 89.3259 42.7997C89.0965 43.0492 88.8087 43.2505 88.4626 43.4034C88.1205 43.5563 87.716 43.6328 87.2492 43.6328ZM88.2755 41.3327C88.6336 41.3327 88.9395 41.2321 89.1931 41.0309C89.4466 40.8256 89.6418 40.5379 89.7787 40.1676C89.9155 39.7973 89.9839 39.3627 89.9839 38.8636C89.9839 38.3565 89.9155 37.9199 89.7787 37.5536C89.6458 37.1874 89.4506 36.9056 89.1931 36.7084C88.9395 36.5112 88.6336 36.4126 88.2755 36.4126C87.9092 36.4126 87.5993 36.5132 87.3458 36.7145C87.0922 36.9157 86.899 37.1994 86.7662 37.5657C86.6374 37.9319 86.573 38.3646 86.573 38.8636C86.573 39.3627 86.6394 39.7973 86.7723 40.1676C86.9051 40.5379 87.0962 40.8256 87.3458 41.0309C87.5993 41.2321 87.9092 41.3327 88.2755 41.3327ZM99.071 43.6751C98.1011 43.6751 97.2639 43.4839 96.5596 43.1016C95.8593 42.7152 95.3201 42.1658 94.9417 41.4535C94.5674 40.7371 94.3803 39.8859 94.3803 38.8998C94.3803 37.942 94.5695 37.1049 94.9478 36.3885C95.3261 35.6681 95.8593 35.1087 96.5476 34.7102C97.2358 34.3078 98.0467 34.1065 98.9804 34.1065C99.6405 34.1065 100.244 34.2092 100.792 34.4144C101.339 34.6197 101.812 34.9235 102.21 35.326C102.609 35.7284 102.919 36.2255 103.14 36.8171C103.361 37.4047 103.472 38.0788 103.472 38.8395V39.576H95.4126V37.8615H100.725C100.721 37.5476 100.647 37.2679 100.502 37.0224C100.357 36.7769 100.158 36.5857 99.9041 36.4489C99.6546 36.308 99.3668 36.2376 99.0408 36.2376C98.7108 36.2376 98.415 36.312 98.1534 36.4609C97.8918 36.6058 97.6845 36.805 97.5316 37.0586C97.3786 37.3081 97.2982 37.5918 97.2901 37.9098V39.6545C97.2901 40.0328 97.3646 40.3648 97.5135 40.6506C97.6624 40.9323 97.8737 41.1516 98.1473 41.3086C98.421 41.4655 98.747 41.544 99.1253 41.544C99.3869 41.544 99.6244 41.5078 99.8377 41.4354C100.051 41.3629 100.234 41.2563 100.387 41.1154C100.54 40.9745 100.655 40.8015 100.731 40.5962L103.442 40.6747C103.329 41.2824 103.082 41.8117 102.699 42.2624C102.321 42.7092 101.824 43.0573 101.208 43.3068C100.592 43.5523 99.8799 43.6751 99.071 43.6751ZM106.64 43.6751C106.205 43.6751 105.833 43.5221 105.523 43.2163C105.217 42.9104 105.066 42.5401 105.07 42.1055C105.066 41.6788 105.217 41.3146 105.523 41.0128C105.833 40.7069 106.205 40.554 106.64 40.554C107.05 40.554 107.413 40.7069 107.726 41.0128C108.044 41.3146 108.205 41.6788 108.209 42.1055C108.205 42.3952 108.129 42.6588 107.98 42.8963C107.835 43.1337 107.644 43.3229 107.406 43.4638C107.173 43.6046 106.917 43.6751 106.64 43.6751ZM110.159 34.2273H113.111V43.8864C113.111 44.651 112.954 45.2587 112.641 45.7095C112.331 46.1603 111.892 46.4842 111.324 46.6815C110.757 46.8787 110.087 46.9773 109.314 46.9773C109.21 46.9773 109.111 46.9752 109.018 46.9712C108.926 46.9672 108.825 46.9632 108.717 46.9591V44.7194C108.789 44.7275 108.853 44.7335 108.91 44.7376C108.966 44.7416 109.022 44.7436 109.079 44.7436C109.485 44.7436 109.767 44.6671 109.924 44.5142C110.081 44.3653 110.159 44.1359 110.159 43.826V34.2273ZM111.632 33.1467C111.218 33.1467 110.862 33.0098 110.564 32.7361C110.266 32.4584 110.117 32.1244 110.117 31.734C110.117 31.3476 110.266 31.0176 110.564 30.744C110.862 30.4663 111.218 30.3274 111.632 30.3274C112.051 30.3274 112.407 30.4663 112.701 30.744C112.999 31.0176 113.148 31.3476 113.148 31.734C113.148 32.1244 112.999 32.4584 112.701 32.7361C112.407 33.0098 112.051 33.1467 111.632 33.1467ZM123.086 37.0586L120.375 37.131C120.347 36.9378 120.271 36.7668 120.146 36.6179C120.021 36.465 119.858 36.3462 119.657 36.2617C119.46 36.1732 119.23 36.1289 118.969 36.1289C118.627 36.1289 118.335 36.1973 118.093 36.3342C117.856 36.471 117.739 36.6561 117.743 36.8895C117.739 37.0707 117.812 37.2276 117.961 37.3604C118.113 37.4932 118.385 37.5999 118.776 37.6804L120.562 38.0185C121.488 38.1955 122.176 38.4893 122.627 38.8998C123.082 39.3104 123.311 39.8537 123.315 40.5298C123.311 41.1657 123.122 41.7191 122.748 42.19C122.378 42.6609 121.87 43.0271 121.227 43.2887C120.583 43.5463 119.846 43.6751 119.017 43.6751C117.693 43.6751 116.649 43.4034 115.884 42.8601C115.123 42.3127 114.689 41.5802 114.58 40.6626L117.496 40.5902C117.56 40.9283 117.727 41.1858 117.997 41.3629C118.266 41.54 118.611 41.6285 119.029 41.6285C119.407 41.6285 119.715 41.5581 119.953 41.4172C120.19 41.2764 120.311 41.0892 120.315 40.8558C120.311 40.6465 120.218 40.4795 120.037 40.3547C119.856 40.226 119.572 40.1253 119.186 40.0529L117.568 39.745C116.638 39.576 115.946 39.2641 115.491 38.8093C115.037 38.3505 114.811 37.7669 114.815 37.0586C114.811 36.4388 114.976 35.9096 115.31 35.4709C115.644 35.0282 116.119 34.6901 116.735 34.4567C117.351 34.2232 118.077 34.1065 118.914 34.1065C120.17 34.1065 121.16 34.3701 121.885 34.8974C122.609 35.4206 123.009 36.141 123.086 37.0586Z" fill="#74AC64"/>
</g>
<defs>
<filter id="filter0_d_1_50" x="6.28571" y="2.28571" width="51.4286" height="51.4286" filterUnits="userSpaceOnUse" color-interpolation-filters="sRGB">
<feFlood flood-opacity="0" result="BackgroundImageFix"/>
<feColorMatrix in="SourceAlpha" type="matrix" values="0 0 0 0 0 0 0 0 0 0 0 0 0 0 0 0 0 0 127 0" result="hardAlpha"/>
<feOffset/>
<feGaussianBlur stdDeviation="2.85714"/>
<feComposite in2="hardAlpha" operator="out"/>
<feColorMatrix type="matrix" values="0 0 0 0 0 0 0 0 0 0 0 0 0 0 0 0 0 0 0.25 0"/>
<feBlend mode="normal" in2="BackgroundImageFix" result="effect1_dropShadow_1_50"/>
<feBlend mode="normal" in="SourceGraphic" in2="effect1_dropShadow_1_50" result="shape"/>
</filter>
<filter id="filter1_d_1_50" x="54.4" y="3.9" width="82.2" height="48.6773" filterUnits="userSpaceOnUse" color-interpolation-filters="sRGB">
<feFlood flood-opacity="0" result="BackgroundImageFix"/>
<feColorMatrix in="SourceAlpha" type="matrix" values="0 0 0 0 0 0 0 0 0 0 0 0 0 0 0 0 0 0 127 0" result="hardAlpha"/>
<feOffset/>
<feGaussianBlur stdDeviation="2.8"/>
<feComposite in2="hardAlpha" operator="out"/>
<feColorMatrix type="matrix" values="0 0 0 0 0 0 0 0 0 0 0 0 0 0 0 0 0 0 0.25 0"/>
<feBlend mode="normal" in2="BackgroundImageFix" result="effect1_dropShadow_1_50"/>
<feBlend mode="normal" in="SourceGraphic" in2="effect1_dropShadow_1_50" result="shape"/>
</filter>
<linearGradient id="paint0_linear_1_50" x1="71.5" y1="0" x2="71.5" y2="56" gradientUnits="userSpaceOnUse">
<stop stop-color="#3F692E"/>
<stop offset="1" stop-color="#2E4C21"/>
</linearGradient>
<linearGradient id="paint1_linear_1_50" x1="43.3821" y1="4.90455" x2="20.733" y2="51.1087" gradientUnits="userSpaceOnUse">
<stop offset="0.3" stop-color="#3E863D"/>
<stop offset="0.5" stop-color="#55934F"/>
<stop offset="0.8" stop-color="#5AAD45"/>
</linearGradient>
<linearGradient id="paint2_linear_1_50" x1="11.5718" y1="43.5207" x2="52.8262" y2="13.0385" gradientUnits="userSpaceOnUse">
<stop offset="0.57" stop-color="#3E863D"/>
<stop offset="0.72" stop-color="#619857"/>
<stop offset="1" stop-color="#76AC64"/>
</linearGradient>
<linearGradient id="paint3_linear_1_50" x1="15.5034" y1="27.9927" x2="49.615" y2="27.9927" gradientUnits="userSpaceOnUse">
<stop offset="0.16" stop-color="#6BBF47"/>
<stop offset="0.38" stop-color="#79B461"/>
<stop offset="0.47" stop-color="#75AC64"/>
<stop offset="0.7" stop-color="#659E5A"/>
<stop offset="0.9" stop-color="#3E863D"/>
</linearGradient>
</defs>
</svg>
