<svg width="230" height="40" viewBox="0 0 230 40" fill="none" xmlns="http://www.w3.org/2000/svg">
<rect width="230.001" height="40.0014" rx="8" fill="url(#paint0_linear_1_56)"/>
<rect x="1.07143" y="1.07143" width="227.858" height="37.8585" rx="6.92857" stroke="white" stroke-opacity="0.15" stroke-width="2.14286"/>
<g filter="url(#filter0_d_1_56)">
<path fill-rule="evenodd" clip-rule="evenodd" d="M8 9.50381C8 9.1547 8.13827 8.8199 8.3844 8.57304C8.63052 8.32619 8.96434 8.18751 9.31242 8.18751H16.7547C18.9018 8.18751 20.8092 9.223 22.0044 10.8219C22.6154 10.0028 23.4086 9.33817 24.3209 8.88083C25.2332 8.42348 26.2394 8.18607 27.2593 8.18751H34.6876C35.0357 8.18751 35.3695 8.32619 35.6156 8.57304C35.8617 8.8199 36 9.1547 36 9.50381V27.9321C36 28.2812 35.8617 28.616 35.6156 28.8628C35.3695 29.1097 35.0357 29.2484 34.6876 29.2484H26.8008C26.2838 29.2484 25.7718 29.3505 25.2941 29.5489C24.8164 29.7474 24.3824 30.0383 24.0167 30.405L22.9283 31.4948C22.6822 31.7413 22.3487 31.8798 22.0009 31.8798C21.6531 31.8798 21.3195 31.7413 21.0734 31.4948L19.985 30.405C19.6194 30.0383 19.1853 29.7474 18.7077 29.5489C18.23 29.3505 17.718 29.2484 17.2009 29.2484H9.31242C8.96434 29.2484 8.63052 29.1097 8.3844 28.8628C8.13827 28.616 8 28.2812 8 27.9321V9.50381ZM23.3203 14.769C23.3203 13.7217 23.7351 12.7173 24.4735 11.9767C25.2119 11.2362 26.2133 10.8201 27.2575 10.8201H33.3734V26.6158H26.7991C25.5567 26.6158 24.3492 26.9685 23.3133 27.6197L23.3203 14.769V14.769ZM20.6885 27.6232L20.6955 18.7197L20.692 14.7655C20.691 13.7188 20.2758 12.7153 19.5375 11.9755C18.7992 11.2357 17.7983 10.8201 16.7547 10.8201H10.6248V26.6158H17.1992C18.4336 26.6157 19.643 26.9649 20.6885 27.6232V27.6232Z" fill="#E8E8E8"/>
</g>
<g filter="url(#filter1_d_1_56)">
<path d="M44.4403 14.1371L47.8814 24.2067H48.0202L51.4613 14.1371H53.4776L49.0284 26.5007H46.8732L42.424 14.1371H44.4403ZM55.1181 26.5007V17.228H56.9232V26.5007H55.1181ZM56.0297 15.7972C55.7158 15.7972 55.4461 15.6926 55.2208 15.4833C54.9994 15.27 54.8887 15.0164 54.8887 14.7226C54.8887 14.4248 54.9994 14.1713 55.2208 13.962C55.4461 13.7487 55.7158 13.642 56.0297 13.642C56.3436 13.642 56.6113 13.7487 56.8326 13.962C57.058 14.1713 57.1707 14.4248 57.1707 14.7226C57.1707 15.0164 57.058 15.27 56.8326 15.4833C56.6113 15.6926 56.3436 15.7972 56.0297 15.7972ZM63.348 26.6878C62.4344 26.6878 61.6476 26.4926 60.9875 26.1023C60.3315 25.7078 59.8244 25.1545 59.4662 24.4421C59.1121 23.7257 58.935 22.8866 58.935 21.9247C58.935 20.9749 59.1121 20.1378 59.4662 19.4133C59.8244 18.6889 60.3235 18.1234 60.9634 17.717C61.6073 17.3105 62.3599 17.1072 63.2212 17.1072C63.7444 17.1072 64.2515 17.1938 64.7425 17.3668C65.2335 17.5399 65.6742 17.8115 66.0646 18.1818C66.455 18.5521 66.7629 19.033 66.9883 19.6246C67.2136 20.2122 67.3263 20.9266 67.3263 21.7677V22.4077H59.9552V21.0554H65.5575C65.5575 20.5805 65.4609 20.1599 65.2677 19.7937C65.0745 19.4234 64.8029 19.1316 64.4527 18.9183C64.1066 18.705 63.7001 18.5984 63.2333 18.5984C62.7262 18.5984 62.2835 18.7231 61.9052 18.9726C61.5309 19.2181 61.2411 19.5401 61.0358 19.9386C60.8346 20.333 60.734 20.7616 60.734 21.2244V22.2809C60.734 22.9007 60.8427 23.4279 61.06 23.8626C61.2813 24.2972 61.5892 24.6292 61.9836 24.8587C62.378 25.084 62.8389 25.1967 63.3661 25.1967C63.7082 25.1967 64.0201 25.1484 64.3018 25.0518C64.5835 24.9512 64.827 24.8023 65.0323 24.6051C65.2375 24.4079 65.3945 24.1644 65.5032 23.8746L67.2116 24.1825C67.0748 24.6856 66.8293 25.1263 66.4751 25.5046C66.125 25.8789 65.6843 26.1707 65.153 26.38C64.6258 26.5852 64.0241 26.6878 63.348 26.6878ZM71.3228 26.5007L68.5941 17.228H70.4595L72.2766 24.0376H72.3672L74.1903 17.228H76.0557L77.8668 24.0074H77.9574L79.7624 17.228H81.6278L78.9051 26.5007H77.0639L75.1804 19.8057H75.0415L73.158 26.5007H71.3228ZM92.1683 17.228V18.6768H87.1033V17.228H92.1683ZM88.4616 15.0064H90.2667V23.778C90.2667 24.1282 90.319 24.3918 90.4236 24.5689C90.5283 24.7419 90.6631 24.8607 90.8281 24.9251C90.9971 24.9854 91.1802 25.0156 91.3774 25.0156C91.5223 25.0156 91.6491 25.0056 91.7578 24.9854C91.8664 24.9653 91.951 24.9492 92.0113 24.9371L92.3373 26.4283C92.2327 26.4685 92.0838 26.5087 91.8906 26.549C91.6974 26.5933 91.4559 26.6174 91.1662 26.6214C90.6912 26.6295 90.2485 26.545 89.838 26.3679C89.4275 26.1908 89.0955 25.9171 88.8419 25.5469C88.5884 25.1766 88.4616 24.7118 88.4616 24.1523V15.0064ZM96.1693 20.995V26.5007H94.3642V14.1371H96.1451V18.7372H96.2598C96.4771 18.2382 96.8092 17.8417 97.2559 17.5479C97.7026 17.2541 98.2862 17.1072 99.0066 17.1072C99.6425 17.1072 100.198 17.238 100.673 17.4996C101.152 17.7612 101.522 18.1516 101.784 18.6708C102.049 19.1859 102.182 19.8299 102.182 20.6026V26.5007H100.377V20.8199C100.377 20.1398 100.202 19.6126 99.8518 19.2383C99.5016 18.86 99.0147 18.6708 98.3909 18.6708C97.9642 18.6708 97.5819 18.7614 97.2438 18.9425C96.9098 19.1236 96.6462 19.3892 96.453 19.7393C96.2638 20.0855 96.1693 20.504 96.1693 20.995ZM108.587 26.6878C107.674 26.6878 106.887 26.4926 106.227 26.1023C105.571 25.7078 105.064 25.1545 104.705 24.4421C104.351 23.7257 104.174 22.8866 104.174 21.9247C104.174 20.9749 104.351 20.1378 104.705 19.4133C105.064 18.6889 105.563 18.1234 106.203 17.717C106.847 17.3105 107.599 17.1072 108.46 17.1072C108.984 17.1072 109.491 17.1938 109.982 17.3668C110.473 17.5399 110.913 17.8115 111.304 18.1818C111.694 18.5521 112.002 19.033 112.227 19.6246C112.453 20.2122 112.566 20.9266 112.566 21.7677V22.4077H105.194V21.0554H110.797C110.797 20.5805 110.7 20.1599 110.507 19.7937C110.314 19.4234 110.042 19.1316 109.692 18.9183C109.346 18.705 108.939 18.5984 108.473 18.5984C107.965 18.5984 107.523 18.7231 107.144 18.9726C106.77 19.2181 106.48 19.5401 106.275 19.9386C106.074 20.333 105.973 20.7616 105.973 21.2244V22.2809C105.973 22.9007 106.082 23.4279 106.299 23.8626C106.521 24.2972 106.828 24.6292 107.223 24.8587C107.617 25.084 108.078 25.1967 108.605 25.1967C108.947 25.1967 109.259 25.1484 109.541 25.0518C109.823 24.9512 110.066 24.8023 110.272 24.6051C110.477 24.4079 110.634 24.1644 110.742 23.8746L112.451 24.1825C112.314 24.6856 112.069 25.1263 111.714 25.5046C111.364 25.8789 110.924 26.1707 110.392 26.38C109.865 26.5852 109.263 26.6878 108.587 26.6878Z" fill="#E8E8E8"/>
<path d="M125.62 17.3437C125.58 16.901 125.401 16.5569 125.083 16.3114C124.769 16.0619 124.32 15.9371 123.736 15.9371C123.35 15.9371 123.028 15.9874 122.771 16.0881C122.513 16.1887 122.32 16.3275 122.191 16.5046C122.062 16.6777 121.996 16.8769 121.992 17.1023C121.984 17.2874 122.02 17.4504 122.1 17.5913C122.185 17.7321 122.306 17.8569 122.463 17.9655C122.624 18.0702 122.817 18.1627 123.042 18.2432C123.268 18.3237 123.521 18.3942 123.803 18.4545L124.865 18.696C125.477 18.8288 126.016 19.0059 126.483 19.2273C126.954 19.4486 127.349 19.7122 127.666 20.0181C127.988 20.324 128.232 20.6761 128.397 21.0746C128.562 21.473 128.646 21.9197 128.651 22.4148C128.646 23.1955 128.449 23.8656 128.059 24.4251C127.669 24.9845 127.107 25.4131 126.375 25.7109C125.646 26.0087 124.767 26.1577 123.736 26.1577C122.702 26.1577 121.801 26.0027 121.032 25.6928C120.263 25.3829 119.666 24.912 119.239 24.2802C118.812 23.6483 118.593 22.8494 118.581 21.8835H121.442C121.467 22.2819 121.573 22.614 121.762 22.8796C121.952 23.1452 122.211 23.3465 122.541 23.4833C122.875 23.6201 123.262 23.6886 123.7 23.6886C124.103 23.6886 124.445 23.6342 124.727 23.5256C125.012 23.4169 125.232 23.266 125.385 23.0728C125.537 22.8796 125.616 22.6583 125.62 22.4087C125.616 22.1753 125.544 21.9761 125.403 21.8111C125.262 21.642 125.044 21.4971 124.751 21.3764C124.461 21.2516 124.091 21.1369 123.64 21.0323L122.348 20.7305C121.277 20.485 120.434 20.0885 119.818 19.5412C119.203 18.9898 118.897 18.2453 118.901 17.3075C118.897 16.5428 119.102 15.8727 119.517 15.2972C119.931 14.7217 120.505 14.273 121.237 13.951C121.97 13.629 122.805 13.468 123.742 13.468C124.7 13.468 125.531 13.631 126.236 13.957C126.944 14.279 127.493 14.7318 127.884 15.3153C128.274 15.8989 128.473 16.575 128.481 17.3437H125.62ZM134.494 26.1758C133.524 26.1758 132.687 25.9846 131.983 25.6023C131.283 25.2159 130.743 24.6665 130.365 23.9542C129.991 23.2378 129.804 22.3866 129.804 21.4006C129.804 20.4427 129.993 19.6056 130.371 18.8892C130.749 18.1688 131.283 17.6094 131.971 17.2109C132.659 16.8085 133.47 16.6072 134.404 16.6072C135.064 16.6072 135.667 16.7099 136.215 16.9151C136.762 17.1204 137.235 17.4242 137.633 17.8267C138.032 18.2292 138.342 18.7262 138.563 19.3178C138.785 19.9054 138.895 20.5795 138.895 21.3402V22.0767H130.836V20.3622H136.148C136.144 20.0483 136.07 19.7686 135.925 19.5231C135.78 19.2776 135.581 19.0864 135.327 18.9496C135.078 18.8087 134.79 18.7383 134.464 18.7383C134.134 18.7383 133.838 18.8127 133.577 18.9616C133.315 19.1065 133.108 19.3057 132.955 19.5593C132.802 19.8088 132.721 20.0926 132.713 20.4105V22.1552C132.713 22.5335 132.788 22.8655 132.937 23.1513C133.086 23.433 133.297 23.6523 133.571 23.8093C133.844 23.9663 134.17 24.0447 134.549 24.0447C134.81 24.0447 135.048 24.0085 135.261 23.9361C135.474 23.8636 135.657 23.757 135.81 23.6161C135.963 23.4752 136.078 23.3022 136.154 23.0969L138.865 23.1754C138.752 23.7831 138.505 24.3124 138.122 24.7631C137.744 25.2099 137.247 25.558 136.631 25.8075C136.016 26.053 135.303 26.1758 134.494 26.1758ZM145.637 16.728V18.9013H139.787V16.728H145.637ZM141.013 14.5064H143.965V23.0849C143.965 23.266 143.993 23.4129 144.049 23.5256C144.11 23.6342 144.196 23.7127 144.309 23.761C144.421 23.8053 144.556 23.8274 144.713 23.8274C144.826 23.8274 144.945 23.8173 145.069 23.7972C145.198 23.7731 145.295 23.7529 145.359 23.7368L145.806 25.8679C145.665 25.9081 145.466 25.9584 145.208 26.0188C144.955 26.0792 144.651 26.1174 144.297 26.1335C143.604 26.1657 143.011 26.0852 142.516 25.892C142.025 25.6948 141.649 25.389 141.387 24.9744C141.129 24.5599 141.005 24.0387 141.013 23.4109V14.5064ZM153.126 21.9982V16.728H156.072V26.0007H153.259V24.2741H153.162C152.957 24.8416 152.607 25.2924 152.112 25.6264C151.621 25.9564 151.027 26.1214 150.331 26.1214C149.699 26.1214 149.143 25.9765 148.664 25.6868C148.186 25.397 147.813 24.9925 147.548 24.4734C147.282 23.9502 147.147 23.3384 147.143 22.6381V16.728H150.095V22.0586C150.099 22.5617 150.232 22.9581 150.494 23.2479C150.755 23.5376 151.111 23.6825 151.562 23.6825C151.856 23.6825 152.12 23.6181 152.353 23.4893C152.59 23.3565 152.778 23.1654 152.914 22.9158C153.055 22.6623 153.126 22.3564 153.126 21.9982ZM157.951 29.478V16.728H160.873V18.3157H160.963C161.084 18.034 161.255 17.7623 161.476 17.5007C161.702 17.2391 161.987 17.0258 162.334 16.8608C162.684 16.6918 163.102 16.6072 163.589 16.6072C164.233 16.6072 164.835 16.7763 165.394 17.1143C165.958 17.4524 166.413 17.9736 166.759 18.6779C167.105 19.3822 167.278 20.2797 167.278 21.3704C167.278 22.4208 167.111 23.3002 166.777 24.0085C166.447 24.7168 166 25.2481 165.437 25.6023C164.877 25.9564 164.255 26.1335 163.571 26.1335C163.104 26.1335 162.7 26.057 162.358 25.9041C162.016 25.7512 161.728 25.5499 161.494 25.3004C161.265 25.0509 161.088 24.7832 160.963 24.4975H160.903V29.478H157.951ZM160.842 21.3643C160.842 21.8634 160.909 22.298 161.042 22.6683C161.179 23.0386 161.374 23.3263 161.627 23.5316C161.885 23.7328 162.193 23.8334 162.551 23.8334C162.913 23.8334 163.221 23.7328 163.475 23.5316C163.728 23.3263 163.919 23.0386 164.048 22.6683C164.181 22.298 164.247 21.8634 164.247 21.3643C164.247 20.8653 164.181 20.4326 164.048 20.0664C163.919 19.7002 163.728 19.4164 163.475 19.2152C163.225 19.014 162.917 18.9133 162.551 18.9133C162.189 18.9133 161.881 19.0119 161.627 19.2092C161.374 19.4064 161.179 19.6881 161.042 20.0543C160.909 20.4206 160.842 20.8572 160.842 21.3643ZM180.591 17.6758C180.522 17.4222 180.422 17.1989 180.289 17.0057C180.156 16.8085 179.993 16.6414 179.8 16.5046C179.607 16.3678 179.385 16.2651 179.136 16.1967C178.886 16.1243 178.613 16.0881 178.315 16.0881C177.715 16.0881 177.196 16.2329 176.757 16.5227C176.323 16.8125 175.987 17.2351 175.749 17.7905C175.512 18.3418 175.393 19.0119 175.393 19.8008C175.393 20.5936 175.508 21.2698 175.737 21.8292C175.966 22.3886 176.298 22.8152 176.733 23.109C177.168 23.4028 177.695 23.5497 178.315 23.5497C178.862 23.5497 179.325 23.4612 179.703 23.2841C180.086 23.103 180.375 22.8474 180.573 22.5174C180.77 22.1874 180.868 21.799 180.868 21.3523L181.424 21.4187H178.417V19.2393H183.748V20.8753C183.748 21.9821 183.513 22.9299 183.042 23.7187C182.575 24.5076 181.931 25.1133 181.11 25.5359C180.293 25.9584 179.353 26.1697 178.291 26.1697C177.111 26.1697 176.075 25.9142 175.182 25.403C174.288 24.8919 173.592 24.1635 173.093 23.2177C172.594 22.2679 172.344 21.141 172.344 19.837C172.344 18.8228 172.495 17.9233 172.797 17.1385C173.099 16.3497 173.519 15.6816 174.059 15.1342C174.602 14.5869 175.23 14.1723 175.942 13.8906C176.659 13.6089 177.429 13.468 178.254 13.468C178.971 13.468 179.637 13.5707 180.253 13.7759C180.872 13.9812 181.42 14.2709 181.895 14.6452C182.374 15.0195 182.762 15.4642 183.06 15.9794C183.358 16.4945 183.543 17.06 183.615 17.6758H180.591ZM191.492 21.9982V16.728H194.438V26.0007H191.625V24.2741H191.528C191.323 24.8416 190.973 25.2924 190.478 25.6264C189.987 25.9564 189.393 26.1214 188.697 26.1214C188.065 26.1214 187.51 25.9765 187.031 25.6868C186.552 25.397 186.179 24.9925 185.914 24.4734C185.648 23.9502 185.513 23.3384 185.509 22.6381V16.728H188.461V22.0586C188.465 22.5617 188.598 22.9581 188.86 23.2479C189.121 23.5376 189.478 23.6825 189.928 23.6825C190.222 23.6825 190.486 23.6181 190.719 23.4893C190.957 23.3565 191.144 23.1654 191.281 22.9158C191.422 22.6623 191.492 22.3564 191.492 21.9982ZM196.317 26.0007V16.728H199.269V26.0007H196.317ZM197.796 15.6474C197.381 15.6474 197.025 15.5105 196.727 15.2369C196.43 14.9592 196.281 14.6251 196.281 14.2347C196.281 13.8484 196.43 13.5183 196.727 13.2447C197.025 12.967 197.381 12.8281 197.796 12.8281C198.215 12.8281 198.571 12.967 198.865 13.2447C199.162 13.5183 199.311 13.8484 199.311 14.2347C199.311 14.6251 199.162 14.9592 198.865 15.2369C198.571 15.5105 198.215 15.6474 197.796 15.6474ZM204.535 26.1335C203.851 26.1335 203.229 25.9564 202.669 25.6023C202.11 25.2481 201.663 24.7168 201.329 24.0085C200.995 23.3002 200.828 22.4208 200.828 21.3704C200.828 20.2797 201.001 19.3822 201.347 18.6779C201.693 17.9736 202.146 17.4524 202.706 17.1143C203.269 16.7763 203.875 16.6072 204.523 16.6072C205.01 16.6072 205.426 16.6918 205.772 16.8608C206.118 17.0258 206.404 17.2391 206.63 17.5007C206.855 17.7623 207.026 18.034 207.143 18.3157H207.203V13.6371H210.155V26.0007H207.233V24.4975H207.143C207.018 24.7832 206.841 25.0509 206.611 25.3004C206.382 25.5499 206.094 25.7512 205.748 25.9041C205.406 26.057 205.002 26.1335 204.535 26.1335ZM205.561 23.8334C205.919 23.8334 206.225 23.7328 206.479 23.5316C206.732 23.3263 206.927 23.0386 207.064 22.6683C207.201 22.298 207.269 21.8634 207.269 21.3643C207.269 20.8572 207.201 20.4206 207.064 20.0543C206.931 19.6881 206.736 19.4064 206.479 19.2092C206.225 19.0119 205.919 18.9133 205.561 18.9133C205.195 18.9133 204.885 19.014 204.631 19.2152C204.378 19.4164 204.185 19.7002 204.052 20.0664C203.923 20.4326 203.859 20.8653 203.859 21.3643C203.859 21.8634 203.925 22.298 204.058 22.6683C204.191 23.0386 204.382 23.3263 204.631 23.5316C204.885 23.7328 205.195 23.8334 205.561 23.8334ZM216.357 26.1758C215.387 26.1758 214.549 25.9846 213.845 25.6023C213.145 25.2159 212.606 24.6665 212.227 23.9542C211.853 23.2378 211.666 22.3866 211.666 21.4006C211.666 20.4427 211.855 19.6056 212.233 18.8892C212.612 18.1688 213.145 17.6094 213.833 17.2109C214.521 16.8085 215.332 16.6072 216.266 16.6072C216.926 16.6072 217.53 16.7099 218.077 16.9151C218.624 17.1204 219.097 17.4242 219.496 17.8267C219.894 18.2292 220.204 18.7262 220.425 19.3178C220.647 19.9054 220.757 20.5795 220.757 21.3402V22.0767H212.698V20.3622H218.011C218.007 20.0483 217.932 19.7686 217.787 19.5231C217.642 19.2776 217.443 19.0864 217.19 18.9496C216.94 18.8087 216.652 18.7383 216.326 18.7383C215.996 18.7383 215.701 18.8127 215.439 18.9616C215.177 19.1065 214.97 19.3057 214.817 19.5593C214.664 19.8088 214.584 20.0926 214.576 20.4105V22.1552C214.576 22.5335 214.65 22.8655 214.799 23.1513C214.948 23.433 215.159 23.6523 215.433 23.8093C215.707 23.9663 216.033 24.0447 216.411 24.0447C216.672 24.0447 216.91 24.0085 217.123 23.9361C217.337 23.8636 217.52 23.757 217.673 23.6161C217.826 23.4752 217.94 23.3022 218.017 23.0969L220.727 23.1754C220.615 23.7831 220.367 24.3124 219.985 24.7631C219.606 25.2099 219.109 25.558 218.494 25.8075C217.878 26.053 217.165 26.1758 216.357 26.1758Z" fill="#F1F1F1"/>
</g>
<defs>
<filter id="filter0_d_1_56" x="2.39972" y="0.39972" width="39.202" height="39.202" filterUnits="userSpaceOnUse" color-interpolation-filters="sRGB">
<feFlood flood-opacity="0" result="BackgroundImageFix"/>
<feColorMatrix in="SourceAlpha" type="matrix" values="0 0 0 0 0 0 0 0 0 0 0 0 0 0 0 0 0 0 127 0" result="hardAlpha"/>
<feOffset/>
<feGaussianBlur stdDeviation="2.80014"/>
<feComposite in2="hardAlpha" operator="out"/>
<feColorMatrix type="matrix" values="0 0 0 0 0 0 0 0 0 0 0 0 0 0 0 0 0 0 0.25 0"/>
<feBlend mode="normal" in2="BackgroundImageFix" result="effect1_dropShadow_1_56"/>
<feBlend mode="normal" in="SourceGraphic" in2="effect1_dropShadow_1_56" result="shape"/>
</filter>
<filter id="filter1_d_1_56" x="36.2871" y="3.78642" width="191.429" height="32.4286" filterUnits="userSpaceOnUse" color-interpolation-filters="sRGB">
<feFlood flood-opacity="0" result="BackgroundImageFix"/>
<feColorMatrix in="SourceAlpha" type="matrix" values="0 0 0 0 0 0 0 0 0 0 0 0 0 0 0 0 0 0 127 0" result="hardAlpha"/>
<feOffset/>
<feGaussianBlur stdDeviation="2.85714"/>
<feComposite in2="hardAlpha" operator="out"/>
<feColorMatrix type="matrix" values="0 0 0 0 0 0 0 0 0 0 0 0 0 0 0 0 0 0 0.25 0"/>
<feBlend mode="normal" in2="BackgroundImageFix" result="effect1_dropShadow_1_56"/>
<feBlend mode="normal" in="SourceGraphic" in2="effect1_dropShadow_1_56" result="shape"/>
</filter>
<linearGradient id="paint0_linear_1_56" x1="115.001" y1="0" x2="115.001" y2="40.0014" gradientUnits="userSpaceOnUse">
<stop stop-color="#303030"/>
<stop offset="1" stop-color="#1D1D1D"/>
</linearGradient>
</defs>
</svg>
