<svg width="176" height="56" viewBox="0 0 176 56" fill="none" xmlns="http://www.w3.org/2000/svg">
<rect width="176" height="56" rx="8" fill="url(#paint0_linear_1_50)"/>
<rect x="1.05" y="1.05" width="173.9" height="53.9" rx="6.95" stroke="white" stroke-opacity="0.15" stroke-width="2.1"/>
<g filter="url(#filter0_d_1_50)">
<path fill-rule="evenodd" clip-rule="evenodd" d="M12 13.0054C12 12.5067 12.1975 12.0284 12.5491 11.6758C12.9007 11.3231 13.3776 11.125 13.8749 11.125H24.5067C27.574 11.125 30.2989 12.6043 32.0063 14.8884C32.8791 13.7183 34.0123 12.7688 35.3156 12.1155C36.6189 11.4621 38.0563 11.123 39.5133 11.125H50.1251C50.6224 11.125 51.0993 11.3231 51.4509 11.6758C51.8025 12.0284 52 12.5067 52 13.0054V39.3315C52 39.8302 51.8025 40.3085 51.4509 40.6612C51.0993 41.0138 50.6224 41.2119 50.1251 41.2119H38.8583C38.1197 41.2119 37.3883 41.3578 36.7059 41.6413C36.0234 41.9248 35.4034 42.3404 34.8811 42.8642L33.3262 44.4212C32.9746 44.7734 32.4981 44.9712 32.0013 44.9712C31.5044 44.9712 31.0279 44.7734 30.6763 44.4212L29.1214 42.8642C28.5991 42.3404 27.9791 41.9248 27.2966 41.6413C26.6142 41.3578 25.8828 41.2119 25.1442 41.2119H13.8749C13.3776 41.2119 12.9007 41.0138 12.5491 40.6612C12.1975 40.3085 12 39.8302 12 39.3315V13.0054ZM33.8861 20.5272C33.8861 19.031 34.4787 17.5961 35.5336 16.5382C36.5884 15.4802 38.019 14.8859 39.5108 14.8859H48.2477V37.4511H38.8558C37.0809 37.4511 35.356 37.955 33.8761 38.8852L33.8861 20.5272V20.5272ZM30.1264 38.8902L30.1364 26.171L30.1314 20.5222C30.13 19.0269 29.5369 17.5933 28.4822 16.5364C27.4275 15.4795 25.9976 14.8859 24.5067 14.8859H15.7498V37.4511H25.1417C26.9051 37.451 28.6328 37.9498 30.1264 38.8902V38.8902Z" fill="#E8E8E8"/>
</g>
<g filter="url(#filter1_d_1_50)">
<path d="M62.2954 12.8636L65.5341 22.3409H65.6648L68.9034 12.8636H70.8011L66.6136 24.5H64.5852L60.3977 12.8636H62.2954ZM72.3452 24.5V15.7727H74.044V24.5H72.3452ZM73.2031 14.4261C72.9077 14.4261 72.6539 14.3276 72.4417 14.1307C72.2334 13.9299 72.1292 13.6913 72.1292 13.4148C72.1292 13.1345 72.2334 12.8958 72.4417 12.6989C72.6539 12.4981 72.9077 12.3977 73.2031 12.3977C73.4986 12.3977 73.7505 12.4981 73.9588 12.6989C74.1709 12.8958 74.277 13.1345 74.277 13.4148C74.277 13.6913 74.1709 13.9299 73.9588 14.1307C73.7505 14.3276 73.4986 14.4261 73.2031 14.4261ZM80.0909 24.6761C79.231 24.6761 78.4905 24.4924 77.8693 24.125C77.2519 23.7538 76.7746 23.2329 76.4375 22.5625C76.1041 21.8883 75.9375 21.0985 75.9375 20.1932C75.9375 19.2992 76.1041 18.5114 76.4375 17.8295C76.7746 17.1477 77.2443 16.6155 77.8466 16.2329C78.4526 15.8504 79.161 15.6591 79.9716 15.6591C80.464 15.6591 80.9413 15.7405 81.4034 15.9034C81.8655 16.0663 82.2803 16.322 82.6477 16.6704C83.0151 17.0189 83.3049 17.4716 83.517 18.0284C83.7291 18.5814 83.8352 19.2538 83.8352 20.0454V20.6477H76.8977V19.375H82.1704C82.1704 18.928 82.0795 18.5322 81.8977 18.1875C81.7159 17.839 81.4602 17.5644 81.1307 17.3636C80.8049 17.1629 80.4223 17.0625 79.9829 17.0625C79.5057 17.0625 79.089 17.1799 78.7329 17.4148C78.3807 17.6458 78.1079 17.9489 77.9148 18.3239C77.7254 18.6951 77.6307 19.0985 77.6307 19.5341V20.5284C77.6307 21.1117 77.7329 21.6079 77.9375 22.017C78.1458 22.4261 78.4356 22.7386 78.8068 22.9545C79.178 23.1667 79.6117 23.2727 80.1079 23.2727C80.4299 23.2727 80.7235 23.2273 80.9886 23.1364C81.2538 23.0417 81.4829 22.9015 81.6761 22.7159C81.8693 22.5303 82.017 22.3011 82.1193 22.0284L83.7273 22.3182C83.5985 22.7917 83.3674 23.2064 83.0341 23.5625C82.7045 23.9148 82.2898 24.1894 81.7898 24.3864C81.2935 24.5795 80.7273 24.6761 80.0909 24.6761ZM87.5966 24.5L85.0284 15.7727H86.7841L88.4943 22.1818H88.5795L90.2954 15.7727H92.0511L93.7557 22.1534H93.8409L95.5397 15.7727H97.2954L94.7329 24.5H93L91.2272 18.1989H91.0966L89.3238 24.5H87.5966ZM107.216 15.7727V17.1364H102.449V15.7727H107.216ZM103.727 13.6818H105.426V21.9375C105.426 22.267 105.475 22.5151 105.574 22.6818C105.672 22.8447 105.799 22.9564 105.955 23.017C106.114 23.0739 106.286 23.1023 106.472 23.1023C106.608 23.1023 106.727 23.0928 106.83 23.0739C106.932 23.0549 107.011 23.0398 107.068 23.0284L107.375 24.4318C107.276 24.4697 107.136 24.5076 106.955 24.5454C106.773 24.5871 106.545 24.6098 106.273 24.6136C105.826 24.6212 105.409 24.5417 105.023 24.375C104.636 24.2083 104.324 23.9508 104.085 23.6023C103.847 23.2538 103.727 22.8163 103.727 22.2898V13.6818ZM110.982 19.3182V24.5H109.283V12.8636H110.959V17.1932H111.067C111.271 16.7235 111.584 16.3504 112.004 16.0739C112.425 15.7973 112.974 15.6591 113.652 15.6591C114.25 15.6591 114.773 15.7822 115.22 16.0284C115.671 16.2746 116.019 16.642 116.266 17.1307C116.516 17.6155 116.641 18.2216 116.641 18.9489V24.5H114.942V19.1534C114.942 18.5133 114.777 18.017 114.447 17.6648C114.118 17.3087 113.66 17.1307 113.072 17.1307C112.671 17.1307 112.311 17.2159 111.993 17.3864C111.678 17.5568 111.43 17.8068 111.249 18.1364C111.071 18.4621 110.982 18.8561 110.982 19.3182ZM122.669 24.6761C121.809 24.6761 121.069 24.4924 120.447 24.125C119.83 23.7538 119.353 23.2329 119.016 22.5625C118.682 21.8883 118.516 21.0985 118.516 20.1932C118.516 19.2992 118.682 18.5114 119.016 17.8295C119.353 17.1477 119.822 16.6155 120.425 16.2329C121.031 15.8504 121.739 15.6591 122.55 15.6591C123.042 15.6591 123.519 15.7405 123.982 15.9034C124.444 16.0663 124.858 16.322 125.226 16.6704C125.593 17.0189 125.883 17.4716 126.095 18.0284C126.307 18.5814 126.413 19.2538 126.413 20.0454V20.6477H119.476V19.375H124.749C124.749 18.928 124.658 18.5322 124.476 18.1875C124.294 17.839 124.038 17.5644 123.709 17.3636C123.383 17.1629 123 17.0625 122.561 17.0625C122.084 17.0625 121.667 17.1799 121.311 17.4148C120.959 17.6458 120.686 17.9489 120.493 18.3239C120.303 18.6951 120.209 19.0985 120.209 19.5341V20.5284C120.209 21.1117 120.311 21.6079 120.516 22.017C120.724 22.4261 121.014 22.7386 121.385 22.9545C121.756 23.1667 122.19 23.2727 122.686 23.2727C123.008 23.2727 123.302 23.2273 123.567 23.1364C123.832 23.0417 124.061 22.9015 124.254 22.7159C124.447 22.5303 124.595 22.3011 124.697 22.0284L126.305 22.3182C126.177 22.7917 125.946 23.2064 125.612 23.5625C125.283 23.9148 124.868 24.1894 124.368 24.3864C123.872 24.5795 123.305 24.6761 122.669 24.6761Z" fill="#E8E8E8"/>
<path d="M67.6186 34.843C67.5783 34.4003 67.3992 34.0562 67.0813 33.8107C66.7674 33.5612 66.3186 33.4364 65.7351 33.4364C65.3487 33.4364 65.0267 33.4867 64.7692 33.5873C64.5116 33.688 64.3184 33.8268 64.1896 34.0039C64.0608 34.177 63.9944 34.3762 63.9904 34.6016C63.9823 34.7867 64.0186 34.9497 64.0991 35.0905C64.1836 35.2314 64.3043 35.3562 64.4613 35.4648C64.6223 35.5695 64.8154 35.662 65.0408 35.7425C65.2662 35.823 65.5198 35.8935 65.8015 35.9538L66.864 36.1953C67.4757 36.3281 68.015 36.5052 68.4819 36.7266C68.9528 36.9479 69.3472 37.2115 69.6651 37.5174C69.9871 37.8233 70.2306 38.1754 70.3956 38.5739C70.5606 38.9723 70.6451 39.419 70.6491 39.9141C70.6451 40.6948 70.4479 41.3649 70.0575 41.9243C69.6671 42.4838 69.1057 42.9124 68.3732 43.2102C67.6448 43.508 66.7654 43.6569 65.7351 43.6569C64.7007 43.6569 63.7992 43.502 63.0305 43.1921C62.2618 42.8822 61.6642 42.4113 61.2376 41.7795C60.8109 41.1476 60.5916 40.3487 60.5795 39.3828H63.441C63.4652 39.7812 63.5718 40.1133 63.761 40.3789C63.9501 40.6445 64.2097 40.8458 64.5398 40.9826C64.8738 41.1194 65.2602 41.1878 65.6988 41.1878C66.1013 41.1878 66.4434 41.1335 66.7251 41.0248C67.0109 40.9162 67.2302 40.7653 67.3832 40.5721C67.5361 40.3789 67.6146 40.1575 67.6186 39.908C67.6146 39.6746 67.5421 39.4754 67.4013 39.3104C67.2604 39.1413 67.0431 38.9964 66.7493 38.8757C66.4595 38.7509 66.0892 38.6362 65.6385 38.5316L64.3466 38.2297C63.276 37.9842 62.4329 37.5878 61.8171 37.0405C61.2013 36.4891 60.8955 35.7445 60.8995 34.8068C60.8955 34.0421 61.1007 33.372 61.5153 32.7965C61.9298 32.221 62.5033 31.7722 63.2358 31.4503C63.9683 31.1283 64.8034 30.9673 65.7411 30.9673C66.699 30.9673 67.53 31.1303 68.2344 31.4563C68.9427 31.7783 69.4921 32.2311 69.8824 32.8146C70.2728 33.3982 70.472 34.0743 70.4801 34.843H67.6186ZM76.4929 43.6751C75.5229 43.6751 74.6858 43.4839 73.9815 43.1016C73.2812 42.7152 72.7419 42.1658 72.3636 41.4535C71.9893 40.7371 71.8022 39.8859 71.8022 38.8998C71.8022 37.942 71.9913 37.1049 72.3697 36.3885C72.748 35.6681 73.2812 35.1087 73.9694 34.7102C74.6577 34.3078 75.4686 34.1065 76.4023 34.1065C77.0624 34.1065 77.6661 34.2092 78.2134 34.4144C78.7608 34.6197 79.2336 34.9235 79.6321 35.326C80.0305 35.7284 80.3404 36.2255 80.5618 36.8171C80.7831 37.4047 80.8938 38.0788 80.8938 38.8395V39.576H72.8345V37.8615H78.147C78.143 37.5476 78.0685 37.2679 77.9236 37.0224C77.7787 36.7769 77.5795 36.5857 77.326 36.4489C77.0764 36.308 76.7887 36.2376 76.4627 36.2376C76.1327 36.2376 75.8369 36.312 75.5753 36.4609C75.3137 36.6058 75.1064 36.805 74.9535 37.0586C74.8005 37.3081 74.72 37.5918 74.712 37.9098V39.6545C74.712 40.0328 74.7864 40.3648 74.9353 40.6506C75.0843 40.9323 75.2956 41.1516 75.5692 41.3086C75.8429 41.4655 76.1689 41.544 76.5472 41.544C76.8088 41.544 77.0463 41.5078 77.2596 41.4354C77.4729 41.3629 77.656 41.2563 77.8089 41.1154C77.9619 40.9745 78.0766 40.8015 78.153 40.5962L80.8636 40.6747C80.7509 41.2824 80.5034 41.8117 80.1211 42.2624C79.7428 42.7092 79.2457 43.0573 78.63 43.3068C78.0142 43.5523 77.3018 43.6751 76.4929 43.6751ZM87.6355 34.2273V36.4006H81.7858V34.2273H87.6355ZM83.0113 32.0057H85.9633V40.5842C85.9633 40.7653 85.9915 40.9122 86.0478 41.0248C86.1082 41.1335 86.1947 41.212 86.3074 41.2603C86.4201 41.3046 86.5549 41.3267 86.7119 41.3267C86.8246 41.3267 86.9433 41.3166 87.0681 41.2965C87.1969 41.2724 87.2934 41.2522 87.3578 41.2361L87.8046 43.3672C87.6637 43.4074 87.4645 43.4577 87.2069 43.5181C86.9534 43.5785 86.6495 43.6167 86.2953 43.6328C85.6031 43.665 85.0095 43.5845 84.5144 43.3913C84.0234 43.1941 83.6471 42.8882 83.3855 42.4737C83.128 42.0592 83.0032 41.538 83.0113 40.9101V32.0057ZM95.1244 39.4975V34.2273H98.0704V43.5H95.2572V41.7734H95.1606C94.9553 42.3409 94.6052 42.7917 94.1101 43.1257C93.6191 43.4557 93.0255 43.6207 92.3293 43.6207C91.6974 43.6207 91.142 43.4758 90.6631 43.1861C90.1841 42.8963 89.8119 42.4918 89.5462 41.9726C89.2806 41.4494 89.1458 40.8377 89.1418 40.1374V34.2273H92.0938V39.5579C92.0978 40.061 92.2307 40.4574 92.4923 40.7471C92.7539 41.0369 93.11 41.1818 93.5608 41.1818C93.8546 41.1818 94.1182 41.1174 94.3516 40.9886C94.5891 40.8558 94.7762 40.6646 94.9131 40.4151C95.0539 40.1616 95.1244 39.8557 95.1244 39.4975ZM99.9494 46.9773V34.2273H102.871V35.815H102.962C103.083 35.5333 103.254 35.2616 103.475 35C103.7 34.7384 103.986 34.5251 104.332 34.3601C104.682 34.191 105.101 34.1065 105.588 34.1065C106.232 34.1065 106.833 34.2756 107.393 34.6136C107.956 34.9517 108.411 35.4729 108.757 36.1772C109.103 36.8815 109.276 37.779 109.276 38.8697C109.276 39.9201 109.109 40.7995 108.775 41.5078C108.445 42.2161 107.999 42.7474 107.435 43.1016C106.876 43.4557 106.254 43.6328 105.57 43.6328C105.103 43.6328 104.698 43.5563 104.356 43.4034C104.014 43.2505 103.726 43.0492 103.493 42.7997C103.264 42.5502 103.087 42.2825 102.962 41.9968H102.901V46.9773H99.9494ZM102.841 38.8636C102.841 39.3627 102.907 39.7973 103.04 40.1676C103.177 40.5379 103.372 40.8256 103.626 41.0309C103.883 41.2321 104.191 41.3327 104.55 41.3327C104.912 41.3327 105.22 41.2321 105.473 41.0309C105.727 40.8256 105.918 40.5379 106.047 40.1676C106.179 39.7973 106.246 39.3627 106.246 38.8636C106.246 38.3646 106.179 37.9319 106.047 37.5657C105.918 37.1994 105.727 36.9157 105.473 36.7145C105.224 36.5132 104.916 36.4126 104.55 36.4126C104.187 36.4126 103.879 36.5112 103.626 36.7084C103.372 36.9056 103.177 37.1874 103.04 37.5536C102.907 37.9199 102.841 38.3565 102.841 38.8636ZM122.589 35.1751C122.521 34.9215 122.42 34.6981 122.288 34.505C122.155 34.3078 121.992 34.1407 121.799 34.0039C121.605 33.8671 121.384 33.7644 121.134 33.696C120.885 33.6236 120.611 33.5873 120.313 33.5873C119.714 33.5873 119.195 33.7322 118.756 34.022C118.321 34.3118 117.985 34.7344 117.748 35.2898C117.51 35.8411 117.392 36.5112 117.392 37.3001C117.392 38.0929 117.506 38.769 117.736 39.3285C117.965 39.8879 118.297 40.3145 118.732 40.6083C119.166 40.9021 119.694 41.049 120.313 41.049C120.861 41.049 121.324 40.9605 121.702 40.7834C122.084 40.6023 122.374 40.3467 122.571 40.0167C122.768 39.6867 122.867 39.2983 122.867 38.8516L123.422 38.918H120.416V36.7386H125.747V38.3746C125.747 39.4814 125.511 40.4292 125.04 41.218C124.574 42.0069 123.93 42.6126 123.109 43.0351C122.292 43.4577 121.352 43.669 120.289 43.669C119.11 43.669 118.074 43.4135 117.18 42.9023C116.287 42.3912 115.591 41.6627 115.091 40.717C114.592 39.7672 114.343 38.6403 114.343 37.3363C114.343 36.3221 114.494 35.4226 114.796 34.6378C115.098 33.8489 115.518 33.1809 116.057 32.6335C116.601 32.0862 117.229 31.6716 117.941 31.3899C118.657 31.1082 119.428 30.9673 120.253 30.9673C120.969 30.9673 121.636 31.0699 122.251 31.2752C122.871 31.4805 123.418 31.7702 123.893 32.1445C124.372 32.5188 124.761 32.9635 125.058 33.4787C125.356 33.9938 125.541 34.5593 125.614 35.1751H122.589ZM133.491 39.4975V34.2273H136.437V43.5H133.623V41.7734H133.527C133.322 42.3409 132.971 42.7917 132.476 43.1257C131.985 43.4557 131.392 43.6207 130.695 43.6207C130.064 43.6207 129.508 43.4758 129.029 43.1861C128.55 42.8963 128.178 42.4918 127.912 41.9726C127.647 41.4494 127.512 40.8377 127.508 40.1374V34.2273H130.46V39.5579C130.464 40.061 130.597 40.4574 130.858 40.7471C131.12 41.0369 131.476 41.1818 131.927 41.1818C132.221 41.1818 132.484 41.1174 132.718 40.9886C132.955 40.8558 133.142 40.6646 133.279 40.4151C133.42 40.1616 133.491 39.8557 133.491 39.4975ZM138.316 43.5V34.2273H141.268V43.5H138.316ZM139.795 33.1467C139.38 33.1467 139.024 33.0098 138.726 32.7361C138.428 32.4584 138.279 32.1244 138.279 31.734C138.279 31.3476 138.428 31.0176 138.726 30.744C139.024 30.4663 139.38 30.3274 139.795 30.3274C140.213 30.3274 140.569 30.4663 140.863 30.744C141.161 31.0176 141.31 31.3476 141.31 31.734C141.31 32.1244 141.161 32.4584 140.863 32.7361C140.569 33.0098 140.213 33.1467 139.795 33.1467ZM146.533 43.6328C145.849 43.6328 145.227 43.4557 144.668 43.1016C144.109 42.7474 143.662 42.2161 143.328 41.5078C142.994 40.7995 142.827 39.9201 142.827 38.8697C142.827 37.779 143 36.8815 143.346 36.1772C143.692 35.4729 144.145 34.9517 144.704 34.6136C145.268 34.2756 145.873 34.1065 146.521 34.1065C147.008 34.1065 147.425 34.191 147.771 34.3601C148.117 34.5251 148.403 34.7384 148.628 35C148.854 35.2616 149.025 35.5333 149.141 35.815H149.202V31.1364H152.154V43.5H149.232V41.9968H149.141C149.017 42.2825 148.839 42.5502 148.61 42.7997C148.381 43.0492 148.093 43.2505 147.747 43.4034C147.405 43.5563 147 43.6328 146.533 43.6328ZM147.56 41.3327C147.918 41.3327 148.224 41.2321 148.477 41.0309C148.731 40.8256 148.926 40.5379 149.063 40.1676C149.2 39.7973 149.268 39.3627 149.268 38.8636C149.268 38.3565 149.2 37.9199 149.063 37.5536C148.93 37.1874 148.735 36.9056 148.477 36.7084C148.224 36.5112 147.918 36.4126 147.56 36.4126C147.193 36.4126 146.883 36.5132 146.63 36.7145C146.376 36.9157 146.183 37.1994 146.05 37.5657C145.922 37.9319 145.857 38.3646 145.857 38.8636C145.857 39.3627 145.924 39.7973 146.056 40.1676C146.189 40.5379 146.38 40.8256 146.63 41.0309C146.883 41.2321 147.193 41.3327 147.56 41.3327ZM158.355 43.6751C157.385 43.6751 156.548 43.4839 155.844 43.1016C155.144 42.7152 154.604 42.1658 154.226 41.4535C153.852 40.7371 153.664 39.8859 153.664 38.8998C153.664 37.942 153.854 37.1049 154.232 36.3885C154.61 35.6681 155.144 35.1087 155.832 34.7102C156.52 34.3078 157.331 34.1065 158.265 34.1065C158.925 34.1065 159.528 34.2092 160.076 34.4144C160.623 34.6197 161.096 34.9235 161.494 35.326C161.893 35.7284 162.203 36.2255 162.424 36.8171C162.645 37.4047 162.756 38.0788 162.756 38.8395V39.576H154.697V37.8615H160.009C160.005 37.5476 159.931 37.2679 159.786 37.0224C159.641 36.7769 159.442 36.5857 159.188 36.4489C158.939 36.308 158.651 36.2376 158.325 36.2376C157.995 36.2376 157.699 36.312 157.438 36.4609C157.176 36.6058 156.969 36.805 156.816 37.0586C156.663 37.3081 156.582 37.5918 156.574 37.9098V39.6545C156.574 40.0328 156.649 40.3648 156.798 40.6506C156.947 40.9323 157.158 41.1516 157.432 41.3086C157.705 41.4655 158.031 41.544 158.409 41.544C158.671 41.544 158.909 41.5078 159.122 41.4354C159.335 41.3629 159.518 41.2563 159.671 41.1154C159.824 40.9745 159.939 40.8015 160.015 40.5962L162.726 40.6747C162.613 41.2824 162.366 41.8117 161.983 42.2624C161.605 42.7092 161.108 43.0573 160.492 43.3068C159.876 43.5523 159.164 43.6751 158.355 43.6751Z" fill="#F1F1F1"/>
</g>
<defs>
<filter id="filter0_d_1_50" x="6.28571" y="2.28571" width="51.4286" height="51.4286" filterUnits="userSpaceOnUse" color-interpolation-filters="sRGB">
<feFlood flood-opacity="0" result="BackgroundImageFix"/>
<feColorMatrix in="SourceAlpha" type="matrix" values="0 0 0 0 0 0 0 0 0 0 0 0 0 0 0 0 0 0 127 0" result="hardAlpha"/>
<feOffset/>
<feGaussianBlur stdDeviation="2.85714"/>
<feComposite in2="hardAlpha" operator="out"/>
<feColorMatrix type="matrix" values="0 0 0 0 0 0 0 0 0 0 0 0 0 0 0 0 0 0 0.25 0"/>
<feBlend mode="normal" in2="BackgroundImageFix" result="effect1_dropShadow_1_50"/>
<feBlend mode="normal" in="SourceGraphic" in2="effect1_dropShadow_1_50" result="shape"/>
</filter>
<filter id="filter1_d_1_50" x="54.4" y="3.9" width="115.2" height="48.6773" filterUnits="userSpaceOnUse" color-interpolation-filters="sRGB">
<feFlood flood-opacity="0" result="BackgroundImageFix"/>
<feColorMatrix in="SourceAlpha" type="matrix" values="0 0 0 0 0 0 0 0 0 0 0 0 0 0 0 0 0 0 127 0" result="hardAlpha"/>
<feOffset/>
<feGaussianBlur stdDeviation="2.8"/>
<feComposite in2="hardAlpha" operator="out"/>
<feColorMatrix type="matrix" values="0 0 0 0 0 0 0 0 0 0 0 0 0 0 0 0 0 0 0.25 0"/>
<feBlend mode="normal" in2="BackgroundImageFix" result="effect1_dropShadow_1_50"/>
<feBlend mode="normal" in="SourceGraphic" in2="effect1_dropShadow_1_50" result="shape"/>
</filter>
<linearGradient id="paint0_linear_1_50" x1="88" y1="0" x2="88" y2="56" gradientUnits="userSpaceOnUse">
<stop stop-color="#303030"/>
<stop offset="1" stop-color="#1D1D1D"/>
</linearGradient>
</defs>
</svg>
