<svg width="203" height="40" viewBox="0 0 203 40" fill="none" xmlns="http://www.w3.org/2000/svg">
<rect width="203.001" height="40.0014" rx="8" fill="url(#paint0_linear_1_56)"/>
<rect x="1.07143" y="1.07143" width="200.858" height="37.8585" rx="6.92857" stroke="white" stroke-opacity="0.15" stroke-width="2.14286"/>
<g filter="url(#filter0_d_1_56)">
<path d="M19.0645 20.0964V19.2942H29.0234V19.4499C27.7485 19.8651 25.8607 20.2567 25.3762 20.3323C25.6403 20.4552 25.7263 20.5636 25.8388 20.6005C26.2287 20.6475 26.6152 20.7187 26.9963 20.8136C27.7462 20.9861 28.3672 21.1496 28.8781 21.3299C29.409 21.5284 29.69 21.62 30.0028 21.7101C30.3682 21.8097 30.7384 21.8907 31.112 21.9528C31.4202 21.9983 32.0754 21.7707 32.2293 21.7311C32.3832 21.6914 34.3762 20.9169 34.3762 20.9169C34.3762 20.9169 35.2413 20.5932 35.5837 20.5071C35.8984 20.4202 35.9066 20.5254 35.9066 20.5254C35.9351 20.6165 35.9577 20.7094 35.9739 20.8036C36.0057 21.0999 36.0084 21.3987 35.9821 21.6955C35.9482 21.9243 35.9026 22.1512 35.8455 22.3753C35.794 22.5604 35.7246 22.7401 35.6384 22.9117C35.5746 23.0233 35.4763 23.1972 35.4426 23.2728C35.3905 23.3768 35.3569 23.4892 35.3433 23.6047C35.3277 23.7612 35.3352 23.919 35.3656 24.0733C35.3929 24.2053 35.4813 24.5363 35.4813 24.5363L35.5855 24.9502L21.3129 24.9329V25.7698H9.75439C9.76072 25.7506 9.76182 25.73 9.75758 25.7102C9.74574 25.6592 9.68746 25.584 9.46435 25.4497C9.17704 25.2626 8.27002 24.9343 8.0073 24.8382C7.99683 24.5891 7.88892 23.4417 9.32046 22.1827C9.74906 21.8165 10.2001 21.4774 10.671 21.1674C10.671 21.1674 11.9003 20.3633 12.8775 20.0423" fill="#2800FF"/>
<path d="M35.5833 24.9502L21.3106 24.9329V25.7698H9.7544C9.69019 25.9583 8.8228 26.2916 8.22905 26.4073C8.54778 26.8458 9.14972 27.246 9.75394 27.5911C10.3363 27.9089 10.9407 28.1845 11.5625 28.4157C11.7902 28.4945 12.4686 28.7599 12.8729 28.7918C13.4355 28.8319 14.0006 28.8213 14.5613 28.7599C14.8576 28.7311 15.1521 28.6855 15.4433 28.6233C15.4433 28.6233 15.4997 28.8465 15.853 29.3364C16.1085 29.6756 16.4217 30.0226 16.7346 30.2279C17.107 30.4633 17.2309 30.5876 18.0377 30.7347C18.6377 30.849 19.251 30.8776 19.859 30.8194C20.2688 30.7816 20.6659 30.7684 21.0187 30.6705C21.0356 30.2179 20.9787 29.7999 20.7965 29.4306C21.2865 29.4502 21.5587 29.4643 22.2426 29.4511C23.5631 29.4261 25.0051 29.1543 26.1871 28.9284C27.1638 28.7422 28.7616 28.2946 29.5256 28.0405C29.9645 27.8944 31.0081 27.5397 31.1051 27.5397C31.2622 27.5397 31.4981 27.5766 31.8264 27.6735C32.314 27.8179 32.6888 27.9467 33.5111 28.2422C34.3334 28.5377 35.0651 28.7955 35.5104 28.8565C35.8396 28.902 35.8801 28.8565 35.9029 28.6916C35.9407 28.4831 35.6502 28.0087 35.5305 27.6362C35.3804 27.2599 35.3503 26.8464 35.4444 26.4523C35.4753 26.3365 35.5127 26.2225 35.5564 26.1109C35.6357 25.8836 35.6704 25.6432 35.6584 25.4028C35.6493 25.2497 35.6241 25.098 35.5833 24.9502Z" fill="#5A78FF"/>
<path d="M35.397 18.1121C35.3924 17.9553 35.4124 17.7988 35.4562 17.6481C35.4845 17.5571 35.5136 17.476 35.5673 17.3226C35.6442 17.089 35.6734 16.8423 35.6534 16.5972C35.638 16.4519 35.6142 16.3077 35.5819 16.1651L25.1148 16.1474V16.9624H9.76122C9.79218 17.186 8.8278 17.5434 8.23405 17.6609C8.54368 18.0862 9.16975 18.5055 9.77579 18.852C10.3595 19.169 10.9647 19.4446 11.5871 19.6766C11.8603 19.7732 12.4577 19.9954 12.8802 20.0441L19.0645 20.0964V19.2941H29.0234V19.4499C29.1736 19.408 29.3967 19.3415 29.5402 19.2941C29.9791 19.148 31.04 18.7828 31.137 18.7815C31.2945 18.7815 31.4953 18.8161 31.8236 18.913C32.3113 19.0569 32.6992 19.2013 33.5225 19.4949C34.3457 19.7886 35.0601 20.0413 35.5045 20.1069C35.8865 20.1638 35.9093 20.0359 35.9093 19.8833C35.9184 19.6889 35.6306 19.1976 35.5104 18.8233C35.4356 18.5937 35.3973 18.3537 35.397 18.1121Z" fill="#FEC1EE"/>
<path d="M35.9739 12.0636C35.9821 12.212 36.0049 12.8176 35.9821 12.9551C35.9524 13.1653 35.9099 13.3735 35.8546 13.5784C35.7955 13.7651 35.7053 14.0338 35.6361 14.1558C35.5723 14.2673 35.4685 14.4395 35.4348 14.515C35.3849 14.6259 35.3532 14.7442 35.341 14.8652C35.3254 15.0216 35.3329 15.1795 35.3633 15.3337C35.3907 15.4658 35.479 15.7968 35.479 15.7968L35.5819 16.1651L25.1148 16.1474V16.9624H9.76122C9.76122 16.9624 9.77488 16.8714 9.49713 16.6983C9.2467 16.5617 8.43167 16.2157 8.01732 16.0882C7.97725 15.8801 7.88892 14.7017 9.32047 13.4432C9.74922 13.0766 10.2006 12.7373 10.6719 12.4274C10.6719 12.4274 11.8594 11.5846 13.1352 11.2071C13.4427 11.1203 13.7562 11.0564 14.0732 11.0159C14.9779 10.9421 16.4281 10.9066 16.5702 10.9116C16.8547 10.5328 17.1644 10.1737 17.4972 9.83656C18.0377 9.30428 18.3441 9.09893 18.6674 9.0625C19.1136 9.08891 21.5023 9.64714 22.1766 9.84794C22.5637 9.95722 23.3386 10.1667 23.9524 10.4239C24.5853 10.6671 24.7392 10.8738 24.7392 10.8738C24.8577 11.0529 24.9863 11.2251 25.1244 11.3897C25.2738 11.539 25.7027 11.7967 25.822 11.845C26.0018 11.8905 26.306 11.8933 26.9944 12.0595C27.7139 12.2307 28.3604 12.4137 28.8749 12.574C29.4077 12.7516 29.6854 12.8745 30.0041 12.9565C30.3229 13.0384 30.8328 13.1614 31.1151 13.2023C31.3975 13.2433 32.0181 13.0202 32.172 12.9806C32.3259 12.941 34.3762 12.1769 34.3762 12.1769C34.3762 12.1769 35.4826 11.7813 35.5828 11.7489C35.9184 11.6397 35.9739 11.6319 35.9739 12.0636Z" fill="#FF7698"/>
<path d="M12.872 13.3203C12.148 13.3203 11.6017 13.8758 11.5652 14.6635C11.5288 15.4421 12.1526 16.0067 12.872 16.0067C13.5914 16.0067 14.1788 15.4057 14.1788 14.6635C14.1788 13.9213 13.5964 13.3203 12.872 13.3203ZM12.5669 15.7244C12.0114 15.7244 11.5607 15.3283 11.5652 14.6908C11.5834 14.1672 12.016 13.6572 12.5669 13.6572C13.1179 13.6572 13.5687 14.1171 13.5687 14.6908C13.5687 15.2645 13.1229 15.7244 12.5674 15.7244H12.5669Z" fill="white"/>
<path d="M12.5674 13.6613C12.0119 13.6613 11.5793 14.1713 11.5657 14.6949C11.5657 15.3324 12.0165 15.7285 12.5674 15.7285C13.1183 15.7285 13.5691 15.2686 13.5691 14.6949C13.5691 14.1212 13.1229 13.6613 12.5674 13.6613ZM12.0939 15.3824C12.0269 15.3842 11.9608 15.366 11.9043 15.3301C11.8477 15.2942 11.8031 15.2423 11.7762 15.1809C11.7492 15.1195 11.7413 15.0515 11.7532 14.9855C11.7652 14.9196 11.7965 14.8587 11.8433 14.8106C11.89 14.7626 11.95 14.7296 12.0156 14.7158C12.0812 14.7021 12.1494 14.7082 12.2115 14.7334C12.2736 14.7586 12.3268 14.8018 12.3642 14.8574C12.4017 14.913 12.4217 14.9785 12.4217 15.0455C12.4225 15.0892 12.4146 15.1327 12.3985 15.1733C12.3824 15.214 12.3585 15.2511 12.328 15.2824C12.2975 15.3138 12.2612 15.3388 12.221 15.3561C12.1808 15.3733 12.1376 15.3824 12.0939 15.3829V15.3824Z" fill="black"/>
<path d="M12.0939 15.3829C12.2749 15.3829 12.4217 15.232 12.4217 15.0459C12.4217 14.8599 12.2749 14.709 12.0939 14.709C11.9128 14.709 11.766 14.8599 11.766 15.0459C11.766 15.232 11.9128 15.3829 12.0939 15.3829Z" fill="white"/>
<path d="M12.872 22.1345C12.148 22.1345 11.6017 22.69 11.5652 23.4777C11.5288 24.2563 12.1526 24.8209 12.872 24.8209C13.5914 24.8209 14.1788 24.2199 14.1788 23.4777C14.1788 22.7355 13.5964 22.1345 12.872 22.1345ZM12.5669 24.5386C12.0114 24.5386 11.5607 24.1425 11.5652 23.505C11.5834 22.9814 12.016 22.4714 12.5669 22.4714C13.1179 22.4714 13.5687 22.9313 13.5687 23.505C13.5687 24.0787 13.1229 24.5386 12.5674 24.5386H12.5669Z" fill="white"/>
<path d="M12.5674 22.476C12.0119 22.476 11.5793 22.9859 11.5657 23.5096C11.5657 24.147 12.0165 24.5432 12.5674 24.5432C13.1183 24.5432 13.5691 24.0833 13.5691 23.5096C13.5691 22.9359 13.1229 22.476 12.5674 22.476ZM12.0939 24.1971C12.0269 24.1989 11.9608 24.1807 11.9043 24.1448C11.8477 24.1089 11.8031 24.0569 11.7762 23.9955C11.7492 23.9342 11.7413 23.8661 11.7532 23.8002C11.7652 23.7342 11.7965 23.6734 11.8433 23.6253C11.89 23.5773 11.95 23.5443 12.0156 23.5305C12.0812 23.5168 12.1494 23.5229 12.2115 23.5481C12.2736 23.5733 12.3268 23.6165 12.3642 23.6721C12.4017 23.7277 12.4217 23.7931 12.4217 23.8602C12.4224 23.9039 12.4145 23.9472 12.3984 23.9879C12.3823 24.0285 12.3583 24.0655 12.3278 24.0968C12.2974 24.1281 12.261 24.1531 12.2209 24.1703C12.1807 24.1875 12.1375 24.1966 12.0939 24.1971Z" fill="black"/>
<path d="M12.0939 24.1971C12.2749 24.1971 12.4217 24.0463 12.4217 23.8602C12.4217 23.6741 12.2749 23.5232 12.0939 23.5232C11.9128 23.5232 11.766 23.6741 11.766 23.8602C11.766 24.0463 11.9128 24.1971 12.0939 24.1971Z" fill="white"/>
<path d="M18.2203 16.9624C18.0331 17.665 17.8387 18.2433 17.8351 18.2537C17.8217 18.2934 17.8162 18.3353 17.819 18.3771C17.8217 18.4189 17.8327 18.4598 17.8513 18.4973C17.8698 18.5348 17.8956 18.5684 17.9271 18.5959C17.9587 18.6235 17.9953 18.6446 18.035 18.6581C18.0746 18.6715 18.1166 18.677 18.1584 18.6742C18.2002 18.6714 18.241 18.6604 18.2785 18.6419C18.3161 18.6233 18.3496 18.5975 18.3772 18.566C18.4048 18.5345 18.4259 18.4978 18.4393 18.4582C18.4548 18.4126 18.6788 17.7456 18.8801 16.9624H18.2203Z" fill="#5A78FF"/>
<path d="M16.7532 16.9624C16.6949 17.094 16.6531 17.1746 16.6508 17.1792C16.6198 17.2429 16.6148 17.3161 16.6368 17.3835C16.6588 17.4508 16.7061 17.507 16.7687 17.5401C16.8313 17.5732 16.9043 17.5808 16.9724 17.5611C17.0404 17.5414 17.0982 17.496 17.1334 17.4346C17.2123 17.2809 17.2834 17.1233 17.3465 16.9624H16.7532Z" fill="#5A78FF"/>
<path d="M18.559 15.2162C18.559 15.2258 18.5563 15.2349 18.5554 15.2445C18.519 15.7422 18.3733 16.3933 18.2203 16.9624H18.8823C19.0244 16.4097 19.1555 15.7982 19.1924 15.3041C19.2735 14.7536 18.937 13.7191 18.7143 13.1149C20.6211 13.1876 22.5227 13.3604 24.4114 13.6326C27.6474 14.1007 31.5509 16.0404 31.5901 16.06C31.6276 16.0796 31.6686 16.0915 31.7108 16.0951C31.753 16.0986 31.7955 16.0938 31.8357 16.0807C31.876 16.0677 31.9133 16.0468 31.9454 16.0192C31.9775 15.9916 32.0038 15.9579 32.0227 15.92C32.0417 15.8821 32.0528 15.8409 32.0557 15.7986C32.0585 15.7564 32.0528 15.714 32.0391 15.674C32.0254 15.634 32.0038 15.5971 31.9756 15.5654C31.9475 15.5338 31.9133 15.5082 31.8751 15.4899C31.7121 15.4079 27.8418 13.4865 24.5029 13.0015C21.0424 12.5007 18.2745 12.4652 18.2471 12.4652C18.1945 12.4646 18.1425 12.477 18.0958 12.5015C18.0491 12.5259 18.0092 12.5615 17.9796 12.6051C17.9501 12.6487 17.9318 12.699 17.9265 12.7514C17.9211 12.8038 17.9288 12.8568 17.9489 12.9055C18.2212 13.5702 18.6301 14.7823 18.559 15.2162Z" fill="#2800FF"/>
<path d="M17.1325 15.2814C17.1858 15.8879 16.9103 16.6091 16.7532 16.9624H17.3452C17.52 16.5235 17.7294 15.8482 17.6753 15.2322C17.5986 14.4064 17.3203 13.6121 16.8648 12.9191C16.8439 12.8899 16.8174 12.8652 16.7869 12.8462C16.7564 12.8273 16.7224 12.8145 16.687 12.8087C16.6516 12.8028 16.6153 12.804 16.5804 12.8122C16.5454 12.8204 16.5124 12.8354 16.4832 12.8563C16.454 12.8772 16.4293 12.9037 16.4103 12.9342C16.3914 12.9647 16.3786 12.9986 16.3728 13.0341C16.3669 13.0695 16.3681 13.1057 16.3763 13.1407C16.3845 13.1757 16.3995 13.2087 16.4204 13.2379C16.8171 13.8526 17.0613 14.5532 17.1325 15.2814Z" fill="#2800FF"/>
<path d="M18.2262 25.768C18.0391 26.4706 17.8446 27.0488 17.841 27.0593C17.8147 27.1392 17.8209 27.2262 17.8585 27.3014C17.896 27.3767 17.9618 27.434 18.0415 27.461C18.1211 27.488 18.2082 27.4824 18.2837 27.4454C18.3593 27.4085 18.4172 27.3432 18.4448 27.2637C18.4607 27.2182 18.6847 26.5512 18.8855 25.768H18.2262Z" fill="#FEC1EE"/>
<path d="M16.7591 25.768C16.7004 25.8996 16.6585 25.9802 16.6562 25.9847C16.6224 26.0488 16.6153 26.1237 16.6367 26.1929C16.658 26.2622 16.706 26.3201 16.7701 26.354C16.8341 26.3879 16.909 26.3949 16.9783 26.3736C17.0475 26.3522 17.1055 26.3042 17.1393 26.2402C17.2182 26.0864 17.2894 25.9289 17.3524 25.768H16.7591Z" fill="#FEC1EE"/>
<path d="M18.5636 24.0218C18.5621 24.0312 18.561 24.0406 18.5604 24.05C18.5235 24.5477 18.3783 25.1988 18.2253 25.768H18.8846C19.0267 25.2152 19.1578 24.6037 19.1951 24.1097C19.2762 23.5592 18.9397 22.5247 18.7166 21.9205C20.6235 21.9932 22.5253 22.166 24.4141 22.4382C27.6497 22.9063 31.5536 24.846 31.5923 24.8655C31.6298 24.8843 31.6705 24.8955 31.7123 24.8985C31.754 24.9015 31.796 24.8962 31.8357 24.883C31.8754 24.8698 31.9121 24.8489 31.9438 24.8215C31.9754 24.7941 32.0014 24.7607 32.0201 24.7232C32.0389 24.6858 32.05 24.6451 32.053 24.6033C32.056 24.5615 32.0508 24.5196 32.0376 24.4799C32.0243 24.4402 32.0034 24.4034 31.976 24.3718C31.9486 24.3401 31.9153 24.3142 31.8778 24.2955C31.7148 24.2135 27.8445 22.292 24.5052 21.8071C22.4323 21.5051 20.3434 21.3258 18.2494 21.2703C18.1967 21.2697 18.1447 21.2822 18.098 21.3067C18.0514 21.3312 18.0115 21.3669 17.982 21.4106C17.9525 21.4542 17.9343 21.5045 17.929 21.557C17.9237 21.6094 17.9315 21.6623 17.9516 21.711C18.2271 22.374 18.636 23.5874 18.5636 24.0218Z" fill="#FF7698"/>
<path d="M17.138 24.0883C17.1917 24.6948 16.9158 25.416 16.7591 25.7694H17.3511C17.5255 25.3304 17.7354 24.6552 17.6812 24.0391C17.6045 23.2134 17.3262 22.4191 16.8707 21.7261C16.8284 21.6671 16.7645 21.6274 16.6929 21.6156C16.6214 21.6038 16.5481 21.621 16.4891 21.6632C16.4302 21.7055 16.3905 21.7694 16.3787 21.841C16.3669 21.9125 16.384 21.9859 16.4263 22.0448C16.8228 22.6596 17.0668 23.3602 17.138 24.0883Z" fill="#FF7698"/>
</g>
<g filter="url(#filter1_d_1_56)">
<path d="M44.4041 26.5007H42.424L46.8732 14.1371H49.0284L53.4776 26.5007H51.4975L48.0021 16.3828H47.9055L44.4041 26.5007ZM44.7361 21.6591H51.1594V23.2287H44.7361V21.6591ZM61.8886 17.228L58.526 26.5007H56.5942L53.2256 17.228H55.1634L57.5118 24.3636H57.6084L59.9507 17.228H61.8886ZM66.0178 26.706C65.4302 26.706 64.899 26.5973 64.4241 26.38C63.9492 26.1586 63.5729 25.8386 63.2952 25.4201C63.0215 25.0015 62.8846 24.4884 62.8846 23.8807C62.8846 23.3575 62.9853 22.9268 63.1865 22.5888C63.3877 22.2507 63.6594 21.9831 64.0015 21.7859C64.3436 21.5886 64.7259 21.4397 65.1485 21.3391C65.5711 21.2385 66.0017 21.162 66.4404 21.1097C66.9958 21.0453 67.4466 20.993 67.7927 20.9528C68.1388 20.9085 68.3903 20.8381 68.5473 20.7415C68.7042 20.6449 68.7827 20.4879 68.7827 20.2706V20.2283C68.7827 19.7011 68.6338 19.2926 68.336 19.0028C68.0422 18.7131 67.6035 18.5682 67.0199 18.5682C66.4122 18.5682 65.9333 18.703 65.5832 18.9726C65.237 19.2383 64.9976 19.5341 64.8648 19.8601L63.1684 19.4737C63.3696 18.9103 63.6634 18.4555 64.0498 18.1094C64.4402 17.7592 64.8889 17.5057 65.396 17.3487C65.9031 17.1877 66.4364 17.1072 66.9958 17.1072C67.3661 17.1072 67.7585 17.1515 68.173 17.24C68.5916 17.3246 68.9819 17.4815 69.3442 17.7109C69.7104 17.9403 70.0102 18.2683 70.2437 18.6949C70.4771 19.1175 70.5938 19.6669 70.5938 20.343V26.5007H68.831V25.2329H68.7586C68.6419 25.4664 68.4668 25.6958 68.2334 25.9212C67.9999 26.1465 67.7001 26.3337 67.3339 26.4826C66.9676 26.6315 66.5289 26.706 66.0178 26.706ZM66.4102 25.2571C66.9093 25.2571 67.3359 25.1585 67.69 24.9613C68.0482 24.7641 68.3199 24.5065 68.505 24.1886C68.6942 23.8666 68.7888 23.5225 68.7888 23.1562V21.9609C68.7244 22.0253 68.5996 22.0857 68.4145 22.142C68.2334 22.1944 68.0261 22.2406 67.7927 22.2809C67.5592 22.3171 67.3319 22.3513 67.1105 22.3835C66.8891 22.4117 66.704 22.4358 66.5551 22.456C66.205 22.5002 65.885 22.5747 65.5952 22.6793C65.3095 22.784 65.0801 22.9349 64.907 23.1321C64.738 23.3253 64.6535 23.5828 64.6535 23.9048C64.6535 24.3515 64.8185 24.6896 65.1485 24.919C65.4785 25.1444 65.8991 25.2571 66.4102 25.2571ZM72.998 26.5007V17.228H74.8031V26.5007H72.998ZM73.9096 15.7972C73.5957 15.7972 73.326 15.6926 73.1006 15.4833C72.8793 15.27 72.7686 15.0164 72.7686 14.7226C72.7686 14.4248 72.8793 14.1713 73.1006 13.962C73.326 13.7487 73.5957 13.642 73.9096 13.642C74.2235 13.642 74.4911 13.7487 74.7125 13.962C74.9379 14.1713 75.0506 14.4248 75.0506 14.7226C75.0506 15.0164 74.9379 15.27 74.7125 15.4833C74.4911 15.6926 74.2235 15.7972 73.9096 15.7972ZM79.0365 14.1371V26.5007H77.2314V14.1371H79.0365ZM84.1633 26.706C83.5757 26.706 83.0445 26.5973 82.5696 26.38C82.0947 26.1586 81.7184 25.8386 81.4407 25.4201C81.167 25.0015 81.0301 24.4884 81.0301 23.8807C81.0301 23.3575 81.1308 22.9268 81.332 22.5888C81.5332 22.2507 81.8049 21.9831 82.147 21.7859C82.4891 21.5886 82.8714 21.4397 83.294 21.3391C83.7166 21.2385 84.1472 21.162 84.5859 21.1097C85.1413 21.0453 85.5921 20.993 85.9382 20.9528C86.2843 20.9085 86.5358 20.8381 86.6928 20.7415C86.8497 20.6449 86.9282 20.4879 86.9282 20.2706V20.2283C86.9282 19.7011 86.7793 19.2926 86.4815 19.0028C86.1877 18.7131 85.749 18.5682 85.1654 18.5682C84.5577 18.5682 84.0788 18.703 83.7287 18.9726C83.3825 19.2383 83.1431 19.5341 83.0103 19.8601L81.3139 19.4737C81.5151 18.9103 81.8089 18.4555 82.1953 18.1094C82.5857 17.7592 83.0344 17.5057 83.5415 17.3487C84.0486 17.1877 84.5819 17.1072 85.1413 17.1072C85.5116 17.1072 85.904 17.1515 86.3185 17.24C86.7371 17.3246 87.1274 17.4815 87.4897 17.7109C87.8559 17.9403 88.1557 18.2683 88.3892 18.6949C88.6226 19.1175 88.7393 19.6669 88.7393 20.343V26.5007H86.9765V25.2329H86.9041C86.7874 25.4664 86.6123 25.6958 86.3789 25.9212C86.1454 26.1465 85.8456 26.3337 85.4794 26.4826C85.1131 26.6315 84.6744 26.706 84.1633 26.706ZM84.5557 25.2571C85.0548 25.2571 85.4814 25.1585 85.8355 24.9613C86.1937 24.7641 86.4654 24.5065 86.6505 24.1886C86.8397 23.8666 86.9343 23.5225 86.9343 23.1562V21.9609C86.8699 22.0253 86.7451 22.0857 86.56 22.142C86.3789 22.1944 86.1716 22.2406 85.9382 22.2809C85.7047 22.3171 85.4774 22.3513 85.256 22.3835C85.0346 22.4117 84.8495 22.4358 84.7006 22.456C84.3505 22.5002 84.0305 22.5747 83.7407 22.6793C83.455 22.784 83.2256 22.9349 83.0525 23.1321C82.8835 23.3253 82.799 23.5828 82.799 23.9048C82.799 24.3515 82.964 24.6896 83.294 24.919C83.624 25.1444 84.0446 25.2571 84.5557 25.2571ZM91.2884 26.5007V14.1371H93.0934V18.7312H93.2021C93.3067 18.538 93.4577 18.3146 93.6549 18.0611C93.8521 17.8075 94.1258 17.5862 94.4759 17.397C94.826 17.2038 95.2889 17.1072 95.8644 17.1072C96.613 17.1072 97.2811 17.2964 97.8687 17.6747C98.4563 18.053 98.9171 18.5984 99.2511 19.3107C99.5892 20.0231 99.7582 20.8803 99.7582 21.8824C99.7582 22.8846 99.5912 23.7438 99.2571 24.4602C98.9231 25.1726 98.4643 25.7219 97.8807 26.1083C97.2972 26.4906 96.6311 26.6818 95.8825 26.6818C95.3191 26.6818 94.8582 26.5872 94.5 26.3981C94.1459 26.2089 93.8682 25.9876 93.667 25.734C93.4657 25.4805 93.3108 25.2551 93.2021 25.0579H93.0512V26.5007H91.2884ZM93.0572 21.8643C93.0572 22.5163 93.1518 23.0878 93.341 23.5788C93.5301 24.0698 93.8038 24.4542 94.162 24.7319C94.5202 25.0056 94.9589 25.1424 95.478 25.1424C96.0173 25.1424 96.4681 24.9995 96.8303 24.7138C97.1925 24.424 97.4662 24.0316 97.6513 23.5366C97.8405 23.0415 97.9351 22.4841 97.9351 21.8643C97.9351 21.2526 97.8425 20.7032 97.6574 20.2163C97.4763 19.7293 97.2026 19.3449 96.8363 19.0632C96.4741 18.7815 96.0214 18.6406 95.478 18.6406C94.9548 18.6406 94.5121 18.7754 94.1499 19.0451C93.7917 19.3147 93.5201 19.691 93.3349 20.174C93.1498 20.6569 93.0572 21.2204 93.0572 21.8643ZM103.59 14.1371V26.5007H101.785V14.1371H103.59ZM110.015 26.6878C109.101 26.6878 108.315 26.4926 107.655 26.1023C106.999 25.7078 106.491 25.1545 106.133 24.4421C105.779 23.7257 105.602 22.8866 105.602 21.9247C105.602 20.9749 105.779 20.1378 106.133 19.4133C106.491 18.6889 106.99 18.1234 107.63 17.717C108.274 17.3105 109.027 17.1072 109.888 17.1072C110.411 17.1072 110.918 17.1938 111.409 17.3668C111.9 17.5399 112.341 17.8115 112.732 18.1818C113.122 18.5521 113.43 19.033 113.655 19.6246C113.881 20.2122 113.993 20.9266 113.993 21.7677V22.4077H106.622V21.0554H112.224C112.224 20.5805 112.128 20.1599 111.935 19.7937C111.742 19.4234 111.47 19.1316 111.12 18.9183C110.774 18.705 110.367 18.5984 109.9 18.5984C109.393 18.5984 108.95 18.7231 108.572 18.9726C108.198 19.2181 107.908 19.5401 107.703 19.9386C107.502 20.333 107.401 20.7616 107.401 21.2244V22.2809C107.401 22.9007 107.51 23.4279 107.727 23.8626C107.948 24.2972 108.256 24.6292 108.651 24.8587C109.045 25.084 109.506 25.1967 110.033 25.1967C110.375 25.1967 110.687 25.1484 110.969 25.0518C111.251 24.9512 111.494 24.8023 111.699 24.6051C111.905 24.4079 112.061 24.1644 112.17 23.8746L113.879 24.1825C113.742 24.6856 113.496 25.1263 113.142 25.5046C112.792 25.8789 112.351 26.1707 111.82 26.38C111.293 26.5852 110.691 26.6878 110.015 26.6878ZM124.401 26.6878C123.532 26.6878 122.773 26.4886 122.125 26.0902C121.477 25.6917 120.974 25.1343 120.616 24.418C120.258 23.7016 120.079 22.8645 120.079 21.9066C120.079 20.9447 120.258 20.1036 120.616 19.3832C120.974 18.6627 121.477 18.1033 122.125 17.7049C122.773 17.3065 123.532 17.1072 124.401 17.1072C125.27 17.1072 126.029 17.3065 126.677 17.7049C127.325 18.1033 127.828 18.6627 128.186 19.3832C128.544 20.1036 128.723 20.9447 128.723 21.9066C128.723 22.8645 128.544 23.7016 128.186 24.418C127.828 25.1343 127.325 25.6917 126.677 26.0902C126.029 26.4886 125.27 26.6878 124.401 26.6878ZM124.407 25.1726C124.97 25.1726 125.437 25.0237 125.808 24.7258C126.178 24.428 126.452 24.0316 126.629 23.5366C126.81 23.0415 126.9 22.4962 126.9 21.9006C126.9 21.3089 126.81 20.7656 126.629 20.2706C126.452 19.7715 126.178 19.3711 125.808 19.0692C125.437 18.7674 124.97 18.6165 124.407 18.6165C123.84 18.6165 123.369 18.7674 122.994 19.0692C122.624 19.3711 122.348 19.7715 122.167 20.2706C121.99 20.7656 121.902 21.3089 121.902 21.9006C121.902 22.4962 121.99 23.0415 122.167 23.5366C122.348 24.0316 122.624 24.428 122.994 24.7258C123.369 25.0237 123.84 25.1726 124.407 25.1726ZM132.543 20.995V26.5007H130.738V17.228H132.471V18.7372H132.586C132.799 18.2462 133.133 17.8518 133.588 17.554C134.046 17.2561 134.624 17.1072 135.32 17.1072C135.952 17.1072 136.506 17.24 136.98 17.5057C137.455 17.7673 137.824 18.1577 138.085 18.6768C138.347 19.196 138.478 19.8379 138.478 20.6026V26.5007H136.673V20.8199C136.673 20.1478 136.497 19.6226 136.147 19.2443C135.797 18.862 135.316 18.6708 134.704 18.6708C134.286 18.6708 133.914 18.7614 133.588 18.9425C133.266 19.1236 133.01 19.3892 132.821 19.7393C132.636 20.0855 132.543 20.504 132.543 20.995Z" fill="#E8E8E8"/>
<path d="M153.051 17.6758C152.982 17.4222 152.882 17.1989 152.749 17.0057C152.616 16.8085 152.453 16.6414 152.26 16.5046C152.067 16.3678 151.845 16.2651 151.596 16.1967C151.346 16.1243 151.073 16.0881 150.775 16.0881C150.175 16.0881 149.656 16.2329 149.217 16.5227C148.783 16.8125 148.447 17.2351 148.209 17.7905C147.972 18.3418 147.853 19.0119 147.853 19.8008C147.853 20.5936 147.968 21.2698 148.197 21.8292C148.426 22.3886 148.758 22.8152 149.193 23.109C149.628 23.4028 150.155 23.5497 150.775 23.5497C151.322 23.5497 151.785 23.4612 152.163 23.2841C152.546 23.103 152.835 22.8474 153.033 22.5174C153.23 22.1874 153.328 21.799 153.328 21.3523L153.884 21.4187H150.877V19.2393H156.208V20.8753C156.208 21.9821 155.973 22.9299 155.502 23.7187C155.035 24.5076 154.391 25.1133 153.57 25.5359C152.753 25.9584 151.813 26.1697 150.751 26.1697C149.571 26.1697 148.535 25.9142 147.642 25.403C146.748 24.8919 146.052 24.1635 145.553 23.2177C145.054 22.2679 144.804 21.141 144.804 19.837C144.804 18.8228 144.955 17.9233 145.257 17.1385C145.559 16.3497 145.979 15.6816 146.519 15.1342C147.062 14.5869 147.69 14.1723 148.402 13.8906C149.119 13.6089 149.889 13.468 150.714 13.468C151.431 13.468 152.097 13.5707 152.713 13.7759C153.332 13.9812 153.88 14.2709 154.355 14.6452C154.834 15.0195 155.222 15.4642 155.52 15.9794C155.818 16.4945 156.003 17.06 156.075 17.6758H153.051ZM160.921 13.6371V26.0007H157.969V13.6371H160.921ZM162.8 26.0007V16.728H165.752V26.0007H162.8ZM164.279 15.6474C163.865 15.6474 163.509 15.5105 163.211 15.2369C162.913 14.9592 162.764 14.6251 162.764 14.2347C162.764 13.8484 162.913 13.5183 163.211 13.2447C163.509 12.967 163.865 12.8281 164.279 12.8281C164.698 12.8281 165.054 12.967 165.348 13.2447C165.646 13.5183 165.795 13.8484 165.795 14.2347C165.795 14.6251 165.646 14.9592 165.348 15.2369C165.054 15.5105 164.698 15.6474 164.279 15.6474ZM172.865 16.728V18.9013H167.016V16.728H172.865ZM168.241 14.5064H171.193V23.0849C171.193 23.266 171.221 23.4129 171.278 23.5256C171.338 23.6342 171.425 23.7127 171.537 23.761C171.65 23.8053 171.785 23.8274 171.942 23.8274C172.054 23.8274 172.173 23.8173 172.298 23.7972C172.427 23.7731 172.523 23.7529 172.588 23.7368L173.034 25.8679C172.894 25.9081 172.694 25.9584 172.437 26.0188C172.183 26.0792 171.879 26.1174 171.525 26.1335C170.833 26.1657 170.239 26.0852 169.744 25.892C169.253 25.6948 168.877 25.389 168.615 24.9744C168.358 24.5599 168.233 24.0387 168.241 23.4109V14.5064ZM178.601 26.1758C177.623 26.1758 176.783 25.9745 176.083 25.5721C175.387 25.1696 174.852 24.6102 174.477 23.8938C174.103 23.1734 173.916 22.3403 173.916 21.3945C173.916 20.4447 174.103 19.6116 174.477 18.8952C174.856 18.1748 175.393 17.6134 176.089 17.2109C176.789 16.8085 177.625 16.6072 178.594 16.6072C179.452 16.6072 180.198 16.7622 180.834 17.0721C181.474 17.382 181.973 17.8207 182.331 18.3881C182.694 18.9516 182.885 19.6136 182.905 20.3743H180.146C180.09 19.8994 179.929 19.5271 179.663 19.2574C179.401 18.9878 179.059 18.853 178.637 18.853C178.295 18.853 177.995 18.9496 177.737 19.1427C177.48 19.3319 177.278 19.6136 177.134 19.9879C176.993 20.3582 176.922 20.817 176.922 21.3643C176.922 21.9117 176.993 22.3745 177.134 22.7528C177.278 23.1271 177.48 23.4109 177.737 23.604C177.995 23.7932 178.295 23.8878 178.637 23.8878C178.91 23.8878 179.152 23.8294 179.361 23.7127C179.574 23.596 179.75 23.4249 179.886 23.1996C180.023 22.9702 180.11 22.6925 180.146 22.3665H182.905C182.877 23.1311 182.686 23.7992 182.331 24.3707C181.981 24.9422 181.488 25.3869 180.852 25.7049C180.22 26.0188 179.47 26.1758 178.601 26.1758ZM187.368 20.7123V26.0007H184.416V13.6371H187.271V18.4304H187.374C187.583 17.8589 187.925 17.4122 188.4 17.0902C188.879 16.7682 189.464 16.6072 190.157 16.6072C190.809 16.6072 191.376 16.7521 191.859 17.0419C192.342 17.3276 192.716 17.7321 192.982 18.2553C193.252 18.7785 193.384 19.3903 193.38 20.0905V26.0007H190.428V20.6701C190.432 20.1549 190.304 19.7525 190.042 19.4627C189.78 19.1729 189.412 19.028 188.937 19.028C188.627 19.028 188.354 19.0965 188.116 19.2333C187.883 19.3661 187.7 19.5573 187.567 19.8068C187.438 20.0563 187.372 20.3582 187.368 20.7123Z" fill="url(#paint1_linear_1_56)"/>
</g>
<defs>
<filter id="filter0_d_1_56" x="2.39972" y="0.39972" width="39.202" height="39.202" filterUnits="userSpaceOnUse" color-interpolation-filters="sRGB">
<feFlood flood-opacity="0" result="BackgroundImageFix"/>
<feColorMatrix in="SourceAlpha" type="matrix" values="0 0 0 0 0 0 0 0 0 0 0 0 0 0 0 0 0 0 127 0" result="hardAlpha"/>
<feOffset/>
<feGaussianBlur stdDeviation="2.80014"/>
<feComposite in2="hardAlpha" operator="out"/>
<feColorMatrix type="matrix" values="0 0 0 0 0 0 0 0 0 0 0 0 0 0 0 0 0 0 0.25 0"/>
<feBlend mode="normal" in2="BackgroundImageFix" result="effect1_dropShadow_1_56"/>
<feBlend mode="normal" in="SourceGraphic" in2="effect1_dropShadow_1_56" result="shape"/>
</filter>
<filter id="filter1_d_1_56" x="36.2871" y="3.78642" width="164.429" height="32.4286" filterUnits="userSpaceOnUse" color-interpolation-filters="sRGB">
<feFlood flood-opacity="0" result="BackgroundImageFix"/>
<feColorMatrix in="SourceAlpha" type="matrix" values="0 0 0 0 0 0 0 0 0 0 0 0 0 0 0 0 0 0 127 0" result="hardAlpha"/>
<feOffset/>
<feGaussianBlur stdDeviation="2.85714"/>
<feComposite in2="hardAlpha" operator="out"/>
<feColorMatrix type="matrix" values="0 0 0 0 0 0 0 0 0 0 0 0 0 0 0 0 0 0 0.25 0"/>
<feBlend mode="normal" in2="BackgroundImageFix" result="effect1_dropShadow_1_56"/>
<feBlend mode="normal" in="SourceGraphic" in2="effect1_dropShadow_1_56" result="shape"/>
</filter>
<linearGradient id="paint0_linear_1_56" x1="101.501" y1="0" x2="101.501" y2="40.0014" gradientUnits="userSpaceOnUse">
<stop stop-color="#001679"/>
<stop offset="1" stop-color="#0E0059"/>
</linearGradient>
<linearGradient id="paint1_linear_1_56" x1="169.501" y1="11.0007" x2="169.501" y2="29.0007" gradientUnits="userSpaceOnUse">
<stop stop-color="#FEC1EE"/>
<stop offset="1" stop-color="#FF7698"/>
</linearGradient>
</defs>
</svg>
