<svg width="40" height="40" viewBox="0 0 40 40" fill="none" xmlns="http://www.w3.org/2000/svg">
<rect width="40" height="40" rx="8" fill="url(#paint0_linear_1_68)"/>
<rect x="1.05" y="1.05" width="37.9" height="37.9" rx="6.95" stroke="white" stroke-opacity="0.15" stroke-width="2.1"/>
<g filter="url(#filter0_d_1_68)">
<path d="M17.0645 20.0964V19.2942H27.0234V19.4499C25.7485 19.8651 23.8607 20.2567 23.3762 20.3323C23.6403 20.4552 23.7264 20.5636 23.8388 20.6005C24.2287 20.6475 24.6152 20.7187 24.9963 20.8136C25.7462 20.9861 26.3672 21.1496 26.8781 21.3299C27.409 21.5284 27.69 21.62 28.0028 21.7101C28.3682 21.8097 28.7384 21.8907 29.112 21.9528C29.4202 21.9983 30.0754 21.7707 30.2293 21.7311C30.3832 21.6914 32.3762 20.9169 32.3762 20.9169C32.3762 20.9169 33.2413 20.5932 33.5837 20.5071C33.8984 20.4202 33.9066 20.5254 33.9066 20.5254C33.9351 20.6165 33.9577 20.7094 33.9739 20.8036C34.0057 21.0999 34.0084 21.3987 33.9821 21.6955C33.9482 21.9243 33.9026 22.1512 33.8455 22.3753C33.794 22.5604 33.7247 22.7401 33.6384 22.9117C33.5746 23.0233 33.4763 23.1972 33.4426 23.2728C33.3905 23.3768 33.3569 23.4892 33.3433 23.6047C33.3277 23.7612 33.3352 23.919 33.3656 24.0733C33.3929 24.2053 33.4813 24.5363 33.4813 24.5363L33.5855 24.9502L19.3129 24.9329V25.7698H7.75439C7.76072 25.7506 7.76182 25.73 7.75758 25.7102C7.74574 25.6592 7.68746 25.584 7.46435 25.4497C7.17704 25.2626 6.27003 24.9343 6.0073 24.8382C5.99683 24.5891 5.88892 23.4417 7.32047 22.1827C7.74906 21.8165 8.2001 21.4774 8.67097 21.1674C8.67097 21.1674 9.90035 20.3633 10.8775 20.0423" fill="#2800FF"/>
<path d="M33.5833 24.9502L19.3106 24.9329V25.7698H7.75439C7.69019 25.9583 6.82279 26.2916 6.22905 26.4073C6.54778 26.8458 7.14972 27.246 7.75394 27.5911C8.33627 27.9089 8.94068 28.1845 9.5625 28.4157C9.79016 28.4945 10.4686 28.7599 10.8729 28.7918C11.4355 28.8319 12.0006 28.8213 12.5613 28.7599C12.8576 28.7311 13.1521 28.6855 13.4432 28.6233C13.4432 28.6233 13.4997 28.8465 13.853 29.3364C14.1085 29.6756 14.4217 30.0226 14.7346 30.2279C15.107 30.4633 15.2309 30.5876 16.0377 30.7347C16.6377 30.849 17.251 30.8776 17.859 30.8194C18.2688 30.7816 18.6658 30.7684 19.0187 30.6705C19.0356 30.2179 18.9787 29.7999 18.7965 29.4306C19.2865 29.4502 19.5587 29.4643 20.2426 29.4511C21.5631 29.4261 23.0051 29.1543 24.1871 28.9284C25.1638 28.7422 26.7616 28.2946 27.5256 28.0405C27.9645 27.8944 29.0081 27.5397 29.1051 27.5397C29.2622 27.5397 29.4981 27.5766 29.8264 27.6735C30.314 27.8179 30.6888 27.9467 31.5111 28.2422C32.3334 28.5377 33.0651 28.7955 33.5104 28.8565C33.8396 28.902 33.8801 28.8565 33.9029 28.6916C33.9407 28.4831 33.6502 28.0087 33.5305 27.6362C33.3804 27.2599 33.3503 26.8464 33.4444 26.4523C33.4753 26.3365 33.5127 26.2225 33.5564 26.1109C33.6357 25.8836 33.6704 25.6432 33.6584 25.4028C33.6493 25.2497 33.6241 25.098 33.5833 24.9502Z" fill="#5A78FF"/>
<path d="M33.397 18.1121C33.3924 17.9553 33.4124 17.7988 33.4562 17.6481C33.4845 17.5571 33.5136 17.476 33.5673 17.3226C33.6442 17.089 33.6734 16.8423 33.6534 16.5972C33.638 16.4519 33.6142 16.3077 33.5819 16.1651L23.1148 16.1474V16.9624H7.76122C7.79219 17.186 6.8278 17.5434 6.23406 17.6609C6.54368 18.0862 7.16975 18.5055 7.77579 18.852C8.35948 19.169 8.96473 19.4446 9.58708 19.6766C9.86028 19.7732 10.4577 19.9954 10.8802 20.0441L17.0645 20.0964V19.2941H27.0234V19.4499C27.1736 19.408 27.3967 19.3415 27.5402 19.2941C27.9791 19.148 29.04 18.7828 29.137 18.7815C29.2945 18.7815 29.4953 18.8161 29.8236 18.913C30.3113 19.0569 30.6992 19.2013 31.5225 19.4949C32.3457 19.7886 33.0601 20.0413 33.5045 20.1069C33.8865 20.1638 33.9093 20.0359 33.9093 19.8833C33.9184 19.6889 33.6306 19.1976 33.5104 18.8233C33.4356 18.5937 33.3973 18.3537 33.397 18.1121Z" fill="#FEC1EE"/>
<path d="M33.9739 12.0636C33.9821 12.212 34.0049 12.8176 33.9821 12.9551C33.9524 13.1653 33.9099 13.3735 33.8546 13.5784C33.7955 13.7651 33.7053 14.0338 33.6361 14.1558C33.5723 14.2673 33.4685 14.4395 33.4348 14.515C33.3849 14.6259 33.3532 14.7442 33.341 14.8652C33.3254 15.0216 33.3329 15.1795 33.3633 15.3337C33.3907 15.4658 33.479 15.7968 33.479 15.7968L33.5819 16.1651L23.1148 16.1474V16.9624H7.76122C7.76122 16.9624 7.77488 16.8714 7.49713 16.6983C7.2467 16.5617 6.43167 16.2157 6.01732 16.0882C5.97725 15.8801 5.88892 14.7017 7.32047 13.4432C7.74922 13.0766 8.20058 12.7373 8.67188 12.4274C8.67188 12.4274 9.85937 11.5846 11.1352 11.2071C11.4427 11.1203 11.7562 11.0564 12.0732 11.0159C12.9779 10.9421 14.4281 10.9066 14.5702 10.9116C14.8547 10.5328 15.1644 10.1737 15.4972 9.83656C16.0377 9.30428 16.3441 9.09893 16.6674 9.0625C17.1136 9.08891 19.5023 9.64714 20.1766 9.84794C20.5637 9.95722 21.3386 10.1667 21.9524 10.4239C22.5853 10.6671 22.7392 10.8738 22.7392 10.8738C22.8577 11.0529 22.9863 11.2251 23.1244 11.3897C23.2738 11.539 23.7027 11.7967 23.822 11.845C24.0018 11.8905 24.306 11.8933 24.9944 12.0595C25.7139 12.2307 26.3604 12.4137 26.8749 12.574C27.4077 12.7516 27.6854 12.8745 28.0041 12.9565C28.3229 13.0384 28.8328 13.1614 29.1151 13.2023C29.3975 13.2433 30.0181 13.0202 30.172 12.9806C30.3259 12.941 32.3762 12.1769 32.3762 12.1769C32.3762 12.1769 33.4826 11.7813 33.5828 11.7489C33.9184 11.6397 33.9739 11.6319 33.9739 12.0636Z" fill="#FF7698"/>
<path d="M10.872 13.3203C10.148 13.3203 9.60165 13.8758 9.56523 14.6635C9.5288 15.4421 10.1526 16.0067 10.872 16.0067C11.5914 16.0067 12.1788 15.4057 12.1788 14.6635C12.1788 13.9213 11.5964 13.3203 10.872 13.3203ZM10.5669 15.7244C10.0114 15.7244 9.56068 15.3283 9.56523 14.6908C9.58344 14.1672 10.016 13.6572 10.5669 13.6572C11.1179 13.6572 11.5687 14.1171 11.5687 14.6908C11.5687 15.2645 11.1229 15.7244 10.5674 15.7244H10.5669Z" fill="white"/>
<path d="M10.5674 13.6613C10.0119 13.6613 9.57934 14.1713 9.56568 14.6949C9.56568 15.3324 10.0165 15.7285 10.5674 15.7285C11.1183 15.7285 11.5691 15.2686 11.5691 14.6949C11.5691 14.1212 11.1229 13.6613 10.5674 13.6613ZM10.0939 15.3824C10.0269 15.3842 9.96085 15.366 9.90425 15.3301C9.84766 15.2942 9.80306 15.2423 9.77615 15.1809C9.74925 15.1195 9.74126 15.0515 9.75322 14.9855C9.76517 14.9196 9.79652 14.8587 9.84326 14.8106C9.89 14.7626 9.95 14.7296 10.0156 14.7158C10.0812 14.7021 10.1494 14.7082 10.2115 14.7334C10.2736 14.7586 10.3268 14.8018 10.3642 14.8574C10.4017 14.913 10.4217 14.9785 10.4217 15.0455C10.4225 15.0892 10.4146 15.1327 10.3985 15.1733C10.3824 15.214 10.3585 15.2511 10.328 15.2824C10.2975 15.3138 10.2612 15.3388 10.221 15.3561C10.1808 15.3733 10.1376 15.3824 10.0939 15.3829V15.3824Z" fill="black"/>
<path d="M10.0939 15.3829C10.2749 15.3829 10.4217 15.232 10.4217 15.0459C10.4217 14.8599 10.2749 14.709 10.0939 14.709C9.9128 14.709 9.76603 14.8599 9.76603 15.0459C9.76603 15.232 9.9128 15.3829 10.0939 15.3829Z" fill="white"/>
<path d="M10.872 22.1345C10.148 22.1345 9.60165 22.69 9.56523 23.4777C9.5288 24.2563 10.1526 24.8209 10.872 24.8209C11.5914 24.8209 12.1788 24.2199 12.1788 23.4777C12.1788 22.7355 11.5964 22.1345 10.872 22.1345ZM10.5669 24.5386C10.0114 24.5386 9.56068 24.1425 9.56523 23.505C9.58344 22.9814 10.016 22.4714 10.5669 22.4714C11.1179 22.4714 11.5687 22.9313 11.5687 23.505C11.5687 24.0787 11.1229 24.5386 10.5674 24.5386H10.5669Z" fill="white"/>
<path d="M10.5674 22.476C10.0119 22.476 9.57934 22.9859 9.56568 23.5096C9.56568 24.147 10.0165 24.5432 10.5674 24.5432C11.1183 24.5432 11.5691 24.0833 11.5691 23.5096C11.5691 22.9359 11.1229 22.476 10.5674 22.476ZM10.0939 24.1971C10.0269 24.1989 9.96085 24.1807 9.90425 24.1448C9.84766 24.1089 9.80306 24.0569 9.77615 23.9955C9.74925 23.9342 9.74126 23.8661 9.75322 23.8002C9.76517 23.7342 9.79652 23.6734 9.84326 23.6253C9.89 23.5773 9.95 23.5443 10.0156 23.5305C10.0812 23.5168 10.1494 23.5229 10.2115 23.5481C10.2736 23.5733 10.3268 23.6165 10.3642 23.6721C10.4017 23.7277 10.4217 23.7931 10.4217 23.8602C10.4224 23.9039 10.4145 23.9472 10.3984 23.9879C10.3823 24.0285 10.3583 24.0655 10.3278 24.0968C10.2974 24.1281 10.261 24.1531 10.2209 24.1703C10.1807 24.1875 10.1375 24.1966 10.0939 24.1971Z" fill="black"/>
<path d="M10.0939 24.1971C10.2749 24.1971 10.4217 24.0463 10.4217 23.8602C10.4217 23.6741 10.2749 23.5232 10.0939 23.5232C9.9128 23.5232 9.76603 23.6741 9.76603 23.8602C9.76603 24.0463 9.9128 24.1971 10.0939 24.1971Z" fill="white"/>
<path d="M16.2203 16.9624C16.0331 17.665 15.8387 18.2433 15.8351 18.2537C15.8217 18.2934 15.8162 18.3353 15.819 18.3771C15.8217 18.4189 15.8327 18.4598 15.8513 18.4973C15.8698 18.5348 15.8956 18.5684 15.9271 18.5959C15.9587 18.6235 15.9953 18.6446 16.035 18.6581C16.0746 18.6715 16.1166 18.677 16.1584 18.6742C16.2002 18.6714 16.241 18.6604 16.2785 18.6419C16.3161 18.6233 16.3496 18.5975 16.3772 18.566C16.4048 18.5345 16.4259 18.4978 16.4393 18.4582C16.4548 18.4126 16.6788 17.7456 16.8801 16.9624H16.2203Z" fill="#5A78FF"/>
<path d="M14.7532 16.9624C14.6949 17.094 14.6531 17.1746 14.6508 17.1792C14.6198 17.2429 14.6148 17.3161 14.6368 17.3835C14.6588 17.4508 14.7061 17.507 14.7687 17.5401C14.8313 17.5732 14.9043 17.5808 14.9724 17.5611C15.0404 17.5414 15.0982 17.496 15.1334 17.4346C15.2123 17.2809 15.2834 17.1233 15.3465 16.9624H14.7532Z" fill="#5A78FF"/>
<path d="M16.5591 15.2162C16.5591 15.2258 16.5563 15.2349 16.5554 15.2445C16.519 15.7422 16.3733 16.3933 16.2203 16.9624H16.8823C17.0244 16.4097 17.1555 15.7982 17.1924 15.3041C17.2735 14.7536 16.937 13.7191 16.7143 13.1149C18.6211 13.1876 20.5227 13.3604 22.4114 13.6326C25.6474 14.1007 29.5509 16.0404 29.5901 16.06C29.6276 16.0796 29.6686 16.0915 29.7108 16.0951C29.753 16.0986 29.7955 16.0938 29.8357 16.0807C29.876 16.0677 29.9133 16.0468 29.9454 16.0192C29.9775 15.9916 30.0038 15.9579 30.0227 15.92C30.0417 15.8821 30.0529 15.8409 30.0557 15.7986C30.0585 15.7564 30.0529 15.714 30.0391 15.674C30.0254 15.634 30.0038 15.5971 29.9756 15.5654C29.9475 15.5338 29.9133 15.5082 29.8751 15.4899C29.7121 15.4079 25.8418 13.4865 22.5029 13.0015C19.0424 12.5007 16.2745 12.4652 16.2472 12.4652C16.1945 12.4646 16.1425 12.477 16.0958 12.5015C16.0491 12.5259 16.0092 12.5615 15.9796 12.6051C15.9501 12.6487 15.9318 12.699 15.9265 12.7514C15.9211 12.8038 15.9288 12.8568 15.9489 12.9055C16.2212 13.5702 16.6301 14.7823 16.5591 15.2162Z" fill="#2800FF"/>
<path d="M15.1325 15.2814C15.1858 15.8879 14.9103 16.6091 14.7532 16.9624H15.3451C15.52 16.5235 15.7294 15.8482 15.6753 15.2322C15.5986 14.4064 15.3203 13.6121 14.8648 12.9191C14.8439 12.8899 14.8174 12.8652 14.7869 12.8462C14.7564 12.8273 14.7224 12.8145 14.687 12.8087C14.6516 12.8028 14.6153 12.804 14.5804 12.8122C14.5454 12.8204 14.5124 12.8354 14.4832 12.8563C14.454 12.8772 14.4293 12.9037 14.4103 12.9342C14.3914 12.9647 14.3786 12.9986 14.3728 13.0341C14.3669 13.0695 14.3681 13.1057 14.3763 13.1407C14.3845 13.1757 14.3995 13.2087 14.4204 13.2379C14.8171 13.8526 15.0613 14.5532 15.1325 15.2814Z" fill="#2800FF"/>
<path d="M16.2262 25.768C16.0391 26.4706 15.8446 27.0488 15.841 27.0593C15.8147 27.1392 15.821 27.2262 15.8585 27.3014C15.896 27.3767 15.9618 27.434 16.0415 27.461C16.1211 27.488 16.2082 27.4824 16.2837 27.4454C16.3593 27.4085 16.4172 27.3432 16.4448 27.2637C16.4607 27.2182 16.6847 26.5512 16.8855 25.768H16.2262Z" fill="#FEC1EE"/>
<path d="M14.7591 25.768C14.7004 25.8996 14.6585 25.9802 14.6562 25.9847C14.6224 26.0488 14.6153 26.1237 14.6367 26.1929C14.658 26.2622 14.706 26.3201 14.7701 26.354C14.8341 26.3879 14.909 26.3949 14.9783 26.3736C15.0475 26.3522 15.1055 26.3042 15.1393 26.2402C15.2182 26.0864 15.2894 25.9289 15.3524 25.768H14.7591Z" fill="#FEC1EE"/>
<path d="M16.5636 24.0218C16.5621 24.0312 16.561 24.0406 16.5604 24.05C16.5235 24.5477 16.3783 25.1988 16.2253 25.768H16.8846C17.0267 25.2152 17.1578 24.6037 17.1951 24.1097C17.2762 23.5592 16.9397 22.5247 16.7166 21.9205C18.6235 21.9932 20.5253 22.166 22.4141 22.4382C25.6497 22.9063 29.5536 24.846 29.5923 24.8655C29.6298 24.8843 29.6705 24.8955 29.7123 24.8985C29.754 24.9015 29.796 24.8962 29.8357 24.883C29.8754 24.8698 29.9121 24.8489 29.9438 24.8215C29.9754 24.7941 30.0014 24.7607 30.0201 24.7232C30.0389 24.6858 30.05 24.6451 30.053 24.6033C30.056 24.5615 30.0508 24.5196 30.0376 24.4799C30.0243 24.4402 30.0034 24.4034 29.976 24.3718C29.9486 24.3401 29.9152 24.3142 29.8778 24.2955C29.7148 24.2135 25.8445 22.292 22.5052 21.8071C20.4323 21.5051 18.3434 21.3258 16.2494 21.2703C16.1967 21.2697 16.1447 21.2822 16.098 21.3067C16.0514 21.3312 16.0115 21.3669 15.982 21.4106C15.9525 21.4542 15.9343 21.5045 15.929 21.557C15.9237 21.6094 15.9315 21.6623 15.9516 21.711C16.2271 22.374 16.636 23.5874 16.5636 24.0218Z" fill="#FF7698"/>
<path d="M15.138 24.0883C15.1917 24.6948 14.9158 25.416 14.7591 25.7694H15.3511C15.5255 25.3304 15.7354 24.6552 15.6812 24.0391C15.6045 23.2134 15.3262 22.4191 14.8707 21.7261C14.8284 21.6671 14.7645 21.6274 14.6929 21.6156C14.6214 21.6038 14.5481 21.621 14.4891 21.6632C14.4302 21.7055 14.3905 21.7694 14.3787 21.841C14.3669 21.9125 14.384 21.9859 14.4263 22.0448C14.8228 22.6596 15.0668 23.3602 15.138 24.0883Z" fill="#FF7698"/>
</g>
<defs>
<filter id="filter0_d_1_68" x="2" y="2" width="36" height="36" filterUnits="userSpaceOnUse" color-interpolation-filters="sRGB">
<feFlood flood-opacity="0" result="BackgroundImageFix"/>
<feColorMatrix in="SourceAlpha" type="matrix" values="0 0 0 0 0 0 0 0 0 0 0 0 0 0 0 0 0 0 127 0" result="hardAlpha"/>
<feOffset/>
<feGaussianBlur stdDeviation="2"/>
<feComposite in2="hardAlpha" operator="out"/>
<feColorMatrix type="matrix" values="0 0 0 0 0 0 0 0 0 0 0 0 0 0 0 0 0 0 0.25 0"/>
<feBlend mode="normal" in2="BackgroundImageFix" result="effect1_dropShadow_1_68"/>
<feBlend mode="normal" in="SourceGraphic" in2="effect1_dropShadow_1_68" result="shape"/>
</filter>
<linearGradient id="paint0_linear_1_68" x1="20" y1="0" x2="20" y2="40" gradientUnits="userSpaceOnUse">
<stop stop-color="#001679"/>
<stop offset="1" stop-color="#0E0059"/>
</linearGradient>
</defs>
</svg>
