<svg width="164" height="56" viewBox="0 0 164 56" fill="none" xmlns="http://www.w3.org/2000/svg">
<rect width="164" height="56" rx="8" fill="url(#paint0_linear_1_50)"/>
<rect x="1.05" y="1.05" width="161.9" height="53.9" rx="6.95" stroke="white" stroke-opacity="0.15" stroke-width="2.1"/>
<g filter="url(#filter0_d_1_50)">
<path d="M27.8064 28.1378V26.9916H42.0334V27.2141C40.2121 27.8073 37.5152 28.3667 36.8231 28.4747C37.2004 28.6503 37.3234 28.8051 37.484 28.8578C38.0409 28.9251 38.5932 29.0267 39.1375 29.1623C40.2088 29.4088 41.0961 29.6423 41.8259 29.8999C42.5843 30.1835 42.9857 30.3142 43.4325 30.443C43.9545 30.5853 44.4834 30.701 45.0171 30.7897C45.4574 30.8548 46.3935 30.5295 46.6133 30.4729C46.8332 30.4164 49.6803 29.3099 49.6803 29.3099C49.6803 29.3099 50.9162 28.8474 51.4053 28.7245C51.8548 28.6003 51.8665 28.7505 51.8665 28.7505C51.9073 28.8807 51.9395 29.0135 51.9628 29.1479C52.0081 29.5713 52.012 29.9981 51.9745 30.4222C51.926 30.749 51.8608 31.0732 51.7793 31.3934C51.7058 31.6578 51.6066 31.9144 51.4834 32.1596C51.3923 32.319 51.2518 32.5674 51.2037 32.6754C51.1292 32.8241 51.0812 32.9845 51.0619 33.1496C51.0395 33.3731 51.0503 33.5986 51.0937 33.8189C51.1328 34.0076 51.259 34.4805 51.259 34.4805L51.4079 35.0717L31.0184 35.047V36.2426H14.5063C14.5153 36.2151 14.5169 36.1857 14.5108 36.1574C14.4939 36.0845 14.4107 35.9772 14.0919 35.7853C13.6815 35.518 12.3857 35.049 12.0104 34.9117C11.9955 34.5559 11.8413 32.9168 13.8864 31.1182C14.4987 30.595 15.143 30.1106 15.8157 29.6677C15.8157 29.6677 17.5719 28.5189 18.9678 28.0604" fill="#2800FF"/>
<path d="M51.4047 35.0717L31.0151 35.047V36.2426H14.5063C14.4146 36.5119 13.1754 36.988 12.3272 37.1532C12.7825 37.7796 13.6425 38.3514 14.5056 38.8445C15.3375 39.2985 16.201 39.6922 17.0893 40.0225C17.4145 40.135 18.3837 40.5142 18.9613 40.5597C19.765 40.617 20.5723 40.6018 21.3733 40.5142C21.7966 40.473 22.2172 40.4079 22.6332 40.3191C22.6332 40.3191 22.7139 40.6378 23.2186 41.3377C23.5835 41.8223 24.0311 42.318 24.4779 42.6113C25.01 42.9476 25.1869 43.1252 26.3396 43.3353C27.1968 43.4986 28.0728 43.5394 28.9414 43.4563C29.5269 43.4023 30.0941 43.3834 30.5982 43.2436C30.6222 42.597 30.5409 41.9999 30.2808 41.4723C30.9807 41.5003 31.3696 41.5205 32.3466 41.5016C34.233 41.4658 36.293 41.0775 37.9816 40.7549C39.3769 40.4888 41.6594 39.8494 42.7509 39.4865C43.3779 39.2777 44.8688 38.771 45.0073 38.771C45.2317 38.771 45.5687 38.8236 46.0377 38.9622C46.7343 39.1684 47.2697 39.3525 48.4444 39.7746C49.6191 40.1968 50.6644 40.5649 51.3006 40.6521C51.7709 40.7172 51.8288 40.6521 51.8613 40.4166C51.9153 40.1187 51.5003 39.4409 51.3292 38.9089C51.1148 38.3713 51.0719 37.7806 51.2063 37.2176C51.2504 37.0522 51.3038 36.8893 51.3663 36.7298C51.4796 36.4052 51.5291 36.0617 51.512 35.7183C51.499 35.4996 51.463 35.2829 51.4047 35.0717Z" fill="#5A78FF"/>
<path d="M51.1386 25.303C51.132 25.079 51.1606 24.8554 51.2232 24.6402C51.2635 24.5101 51.3051 24.3943 51.3819 24.1751C51.4917 23.8414 51.5335 23.4891 51.5048 23.1389C51.4829 22.9313 51.4488 22.7252 51.4027 22.5216L36.4498 22.4963V23.6606H14.516C14.5603 23.98 13.1826 24.4906 12.3344 24.6584C12.7767 25.266 13.6711 25.865 14.5368 26.36C15.3707 26.8129 16.2353 27.2065 17.1244 27.538C17.5147 27.6759 18.3681 27.9934 18.9717 28.063L27.8064 28.1378V26.9916H42.0334V27.2141C42.248 27.1543 42.5668 27.0593 42.7717 26.9916C43.3987 26.7828 44.9143 26.2612 45.0529 26.2592C45.2779 26.2592 45.5648 26.3087 46.0338 26.4472C46.7304 26.6528 47.2846 26.8589 48.4607 27.2785C49.6367 27.6981 50.6573 28.0591 51.2921 28.1527C51.8379 28.234 51.8704 28.0513 51.8704 27.8333C51.8834 27.5556 51.4723 26.8537 51.3006 26.3191C51.1937 25.991 51.1391 25.6481 51.1386 25.303Z" fill="#FEC1EE"/>
<path d="M51.9628 16.6622C51.9745 16.8743 52.007 17.7394 51.9745 17.9358C51.932 18.2361 51.8712 18.5335 51.7924 18.8263C51.7078 19.093 51.579 19.4768 51.4801 19.6511C51.3891 19.8105 51.2408 20.0564 51.1926 20.1643C51.1213 20.3228 51.076 20.4917 51.0586 20.6646C51.0363 20.888 51.047 21.1136 51.0905 21.3339C51.1295 21.5225 51.2557 21.9954 51.2557 21.9954L51.4027 22.5216L36.4498 22.4963V23.6606H14.516C14.516 23.6606 14.5355 23.5305 14.1388 23.2833C13.781 23.0882 12.6167 22.5938 12.0247 22.4117C11.9675 22.1144 11.8413 20.431 13.8864 18.6331C14.4989 18.1095 15.1437 17.6248 15.817 17.182C15.817 17.182 17.5134 15.9779 19.336 15.4387C19.7753 15.3147 20.2232 15.2234 20.676 15.1655C21.9684 15.0601 24.0402 15.0094 24.2431 15.0165C24.6496 14.4755 25.092 13.9624 25.5675 13.4808C26.3396 12.7204 26.7773 12.427 27.2392 12.375C27.8766 12.4127 31.289 13.2102 32.2523 13.4971C32.8052 13.6532 33.9123 13.9524 34.7891 14.3199C35.6933 14.6672 35.9132 14.9626 35.9132 14.9626C36.0825 15.2184 36.2662 15.4645 36.4634 15.6995C36.6768 15.9129 37.2895 16.2811 37.46 16.35C37.7169 16.4151 38.1514 16.419 39.1349 16.6564C40.1627 16.9009 41.0863 17.1624 41.8213 17.3914C42.5824 17.6451 42.9792 17.8207 43.4345 17.9378C43.8898 18.0549 44.6184 18.2305 45.0216 18.289C45.4249 18.3476 46.3115 18.0289 46.5314 17.9723C46.7512 17.9157 49.6803 16.8242 49.6803 16.8242C49.6803 16.8242 51.2609 16.2589 51.404 16.2128C51.8834 16.0566 51.9628 16.0456 51.9628 16.6622Z" fill="#FF7698"/>
<path d="M18.96 18.4575C17.9258 18.4575 17.1452 19.2511 17.0932 20.3764C17.0411 21.4887 17.9323 22.2953 18.96 22.2953C19.9878 22.2953 20.8269 21.4367 20.8269 20.3764C20.8269 19.3161 19.9949 18.4575 18.96 18.4575ZM18.5242 21.892C17.7306 21.892 17.0867 21.3261 17.0932 20.4154C17.1192 19.6674 17.7371 18.9389 18.5242 18.9389C19.3113 18.9389 19.9552 19.5958 19.9552 20.4154C19.9552 21.235 19.3184 21.892 18.5249 21.892H18.5242Z" fill="white"/>
<path d="M18.5249 18.9447C17.7313 18.9447 17.1133 19.6732 17.0938 20.4213C17.0938 21.3319 17.7378 21.8978 18.5249 21.8978C19.3119 21.8978 19.9559 21.2409 19.9559 20.4213C19.9559 19.6017 19.3184 18.9447 18.5249 18.9447ZM17.8484 21.4035C17.7527 21.4061 17.6584 21.3801 17.5775 21.3288C17.4967 21.2775 17.4329 21.2032 17.3945 21.1155C17.3561 21.0278 17.3447 20.9307 17.3617 20.8365C17.3788 20.7422 17.4236 20.6553 17.4904 20.5866C17.5571 20.518 17.6429 20.4709 17.7366 20.4512C17.8303 20.4316 17.9277 20.4403 18.0164 20.4763C18.1052 20.5123 18.1811 20.574 18.2346 20.6534C18.2881 20.7328 18.3167 20.8264 18.3167 20.9221C18.3178 20.9846 18.3066 21.0467 18.2836 21.1048C18.2606 21.1628 18.2264 21.2158 18.1829 21.2606C18.1393 21.3054 18.0874 21.3412 18.03 21.3658C17.9726 21.3904 17.9108 21.4035 17.8484 21.4041V21.4035Z" fill="black"/>
<path d="M17.8484 21.4041C18.107 21.4041 18.3167 21.1886 18.3167 20.9228C18.3167 20.6569 18.107 20.4414 17.8484 20.4414C17.5897 20.4414 17.38 20.6569 17.38 20.9228C17.38 21.1886 17.5897 21.4041 17.8484 21.4041Z" fill="white"/>
<path d="M18.96 31.0493C17.9258 31.0493 17.1452 31.8428 17.0932 32.9681C17.0411 34.0804 17.9323 34.887 18.96 34.887C19.9878 34.887 20.8269 34.0284 20.8269 32.9681C20.8269 31.9079 19.9949 31.0493 18.96 31.0493ZM18.5242 34.4837C17.7306 34.4837 17.0867 33.9178 17.0932 33.0072C17.1192 32.2591 17.7371 31.5306 18.5242 31.5306C19.3113 31.5306 19.9552 32.1876 19.9552 33.0072C19.9552 33.8268 19.3184 34.4837 18.5249 34.4837H18.5242Z" fill="white"/>
<path d="M18.5249 31.5371C17.7313 31.5371 17.1133 32.2656 17.0938 33.0137C17.0938 33.9243 17.7378 34.4902 18.5249 34.4902C19.3119 34.4902 19.9559 33.8333 19.9559 33.0137C19.9559 32.1941 19.3184 31.5371 18.5249 31.5371ZM17.8484 33.9959C17.7527 33.9985 17.6584 33.9724 17.5775 33.9212C17.4967 33.8699 17.4329 33.7956 17.3945 33.7079C17.3561 33.6202 17.3447 33.5231 17.3617 33.4289C17.3788 33.3346 17.4236 33.2477 17.4904 33.179C17.5571 33.1104 17.6429 33.0633 17.7366 33.0436C17.8303 33.024 17.9277 33.0327 18.0164 33.0687C18.1052 33.1047 18.1811 33.1664 18.2346 33.2458C18.2881 33.3252 18.3167 33.4188 18.3167 33.5145C18.3177 33.5769 18.3064 33.6389 18.2834 33.6969C18.2604 33.755 18.2262 33.8079 18.1826 33.8526C18.1391 33.8973 18.0872 33.933 18.0298 33.9576C17.9724 33.9822 17.9108 33.9952 17.8484 33.9959Z" fill="black"/>
<path d="M17.8484 33.9959C18.107 33.9959 18.3167 33.7804 18.3167 33.5145C18.3167 33.2487 18.107 33.0332 17.8484 33.0332C17.5897 33.0332 17.38 33.2487 17.38 33.5145C17.38 33.7804 17.5897 33.9959 17.8484 33.9959Z" fill="white"/>
<path d="M26.6004 23.6606C26.3331 24.6643 26.0553 25.4904 26.0501 25.5053C26.0309 25.562 26.0231 25.6219 26.0271 25.6816C26.0311 25.7413 26.0467 25.7996 26.0733 25.8533C26.0998 25.9069 26.1366 25.9548 26.1816 25.9942C26.2266 26.0336 26.279 26.0638 26.3357 26.0829C26.3923 26.1021 26.4522 26.1099 26.5119 26.106C26.5716 26.102 26.63 26.0863 26.6836 26.0598C26.7373 26.0333 26.7851 25.9965 26.8245 25.9514C26.864 25.9064 26.8941 25.8541 26.9133 25.7974C26.9354 25.7323 27.2554 24.7794 27.5429 23.6606H26.6004Z" fill="#5A78FF"/>
<path d="M24.5046 23.6606C24.4213 23.8486 24.3615 23.9637 24.3583 23.9702C24.314 24.0612 24.3068 24.1659 24.3382 24.2621C24.3697 24.3583 24.4372 24.4385 24.5267 24.4859C24.6161 24.5332 24.7205 24.5439 24.8177 24.5158C24.9149 24.4877 24.9974 24.4229 25.0477 24.3351C25.1605 24.1155 25.2621 23.8904 25.3522 23.6606H24.5046Z" fill="#5A78FF"/>
<path d="M27.0844 21.1661C27.0844 21.1797 27.0805 21.1927 27.0792 21.2064C27.0271 21.9174 26.819 22.8475 26.6004 23.6606H27.5462C27.7491 22.8709 27.9365 21.9974 27.9892 21.2916C28.1049 20.5052 27.6242 19.0273 27.3062 18.1642C30.0301 18.268 32.7468 18.5149 35.4448 18.9037C40.0677 19.5724 45.6441 22.3434 45.7001 22.3714C45.7537 22.3994 45.8123 22.4164 45.8726 22.4215C45.9328 22.4266 45.9935 22.4196 46.0511 22.401C46.1086 22.3824 46.1619 22.3525 46.2077 22.3131C46.2536 22.2737 46.2911 22.2255 46.3182 22.1714C46.3452 22.1173 46.3612 22.0584 46.3652 21.9981C46.3693 21.9377 46.3612 21.8772 46.3416 21.82C46.3219 21.7628 46.2911 21.7101 46.2509 21.6649C46.2107 21.6198 46.1618 21.5831 46.1073 21.557C45.8744 21.4399 40.3454 18.6949 35.5756 18.0022C30.632 17.2867 26.6778 17.2359 26.6388 17.2359C26.5635 17.2351 26.4892 17.2529 26.4225 17.2878C26.3559 17.3227 26.2989 17.3736 26.2566 17.4359C26.2144 17.4982 26.1883 17.57 26.1807 17.6449C26.173 17.7198 26.184 17.7954 26.2127 17.8649C26.6017 18.8146 27.1858 20.5462 27.0844 21.1661Z" fill="#2800FF"/>
<path d="M25.0464 21.2591C25.1225 22.1255 24.729 23.1558 24.5046 23.6606H25.3502C25.6 23.0336 25.8992 22.0689 25.8218 21.1888C25.7123 20.0092 25.3147 18.8745 24.664 17.8845C24.6341 17.8428 24.5963 17.8074 24.5527 17.7803C24.5091 17.7532 24.4606 17.735 24.41 17.7267C24.3594 17.7183 24.3076 17.7201 24.2577 17.7317C24.2077 17.7434 24.1606 17.7648 24.1189 17.7947C24.0772 17.8246 24.0418 17.8624 24.0147 17.906C23.9877 17.9496 23.9694 17.998 23.9611 18.0486C23.9528 18.0993 23.9545 18.151 23.9662 18.201C23.9778 18.2509 23.9992 18.2981 24.0291 18.3398C24.5959 19.218 24.9447 20.2188 25.0464 21.2591Z" fill="#2800FF"/>
<path d="M26.6089 36.24C26.3415 37.2437 26.0638 38.0698 26.0586 38.0847C26.0209 38.1988 26.0299 38.3231 26.0836 38.4306C26.1372 38.5381 26.2312 38.6201 26.345 38.6586C26.4587 38.6971 26.5831 38.6891 26.6911 38.6363C26.799 38.5836 26.8817 38.4903 26.9211 38.3768C26.9439 38.3117 27.2639 37.3588 27.5507 36.24H26.6089Z" fill="#FEC1EE"/>
<path d="M24.5131 36.24C24.4291 36.428 24.3693 36.5431 24.3661 36.5496C24.3177 36.6411 24.3076 36.7481 24.3381 36.8471C24.3686 36.946 24.4372 37.0287 24.5287 37.0771C24.6202 37.1255 24.7272 37.1356 24.8261 37.1051C24.925 37.0746 25.0078 37.006 25.0562 36.9145C25.1689 36.6949 25.2705 36.4698 25.3606 36.24H24.5131Z" fill="#FEC1EE"/>
<path d="M27.0909 33.7454C27.0887 33.7588 27.0871 33.7723 27.0863 33.7858C27.0336 34.4967 26.8261 35.4269 26.6076 36.24H27.5494C27.7524 35.4503 27.9397 34.5767 27.9931 33.871C28.1088 33.0846 27.6281 31.6067 27.3094 30.7435C30.0336 30.8474 32.7504 31.0943 35.4487 31.4831C40.0709 32.1518 45.648 34.9228 45.7033 34.9508C45.7568 34.9775 45.815 34.9935 45.8747 34.9978C45.9343 35.0021 45.9942 34.9946 46.051 34.9757C46.1077 34.9568 46.1602 34.9269 46.2054 34.8878C46.2506 34.8486 46.2877 34.801 46.3144 34.7475C46.3412 34.694 46.3572 34.6358 46.3615 34.5761C46.3658 34.5165 46.3582 34.4566 46.3394 34.3998C46.3205 34.3431 46.2906 34.2906 46.2515 34.2454C46.2123 34.2002 46.1646 34.1632 46.1112 34.1364C45.8783 34.0193 40.3493 31.2743 35.5788 30.5816C32.6176 30.1501 29.6335 29.8941 26.642 29.8147C26.5668 29.8139 26.4924 29.8318 26.4258 29.8667C26.3591 29.9017 26.3021 29.9527 26.26 30.0151C26.2178 30.0775 26.1918 30.1493 26.1842 30.2242C26.1767 30.2992 26.1878 30.3748 26.2166 30.4443C26.6102 31.3914 27.1943 33.1249 27.0909 33.7454Z" fill="#FF7698"/>
<path d="M25.0543 33.8404C25.131 34.7068 24.7368 35.7372 24.5131 36.2419H25.3587C25.6078 35.6149 25.9077 34.6502 25.8303 33.7702C25.7207 32.5905 25.3231 31.4558 24.6724 30.4658C24.612 30.3816 24.5207 30.3249 24.4185 30.308C24.3162 30.2912 24.2115 30.3156 24.1273 30.376C24.0432 30.4364 23.9864 30.5278 23.9696 30.63C23.9527 30.7322 23.9772 30.8369 24.0376 30.9211C24.604 31.7994 24.9525 32.8003 25.0543 33.8404Z" fill="#FF7698"/>
</g>
<g filter="url(#filter1_d_1_50)">
<path d="M62.2613 24.5H60.3977L64.5852 12.8636H66.6136L70.8011 24.5H68.9375L65.6477 14.9773H65.5568L62.2613 24.5ZM62.5738 19.9432H68.6193V21.4204H62.5738V19.9432ZM78.7173 15.7727L75.5525 24.5H73.7344L70.5639 15.7727H72.3878L74.598 22.4886H74.6889L76.8934 15.7727H78.7173ZM82.6037 24.6932C82.0506 24.6932 81.5506 24.5909 81.1037 24.3864C80.6567 24.178 80.3025 23.8769 80.0412 23.4829C79.7836 23.089 79.6548 22.6061 79.6548 22.0341C79.6548 21.5417 79.7495 21.1364 79.9389 20.8182C80.1283 20.5 80.384 20.2481 80.7059 20.0625C81.0279 19.8769 81.3878 19.7367 81.7855 19.642C82.1832 19.5473 82.5885 19.4754 83.0014 19.4261C83.5241 19.3655 83.9484 19.3163 84.2741 19.2784C84.5999 19.2367 84.8366 19.1704 84.9844 19.0795C85.1321 18.9886 85.2059 18.8409 85.2059 18.6364V18.5966C85.2059 18.1004 85.0658 17.7159 84.7855 17.4432C84.509 17.1704 84.0961 17.0341 83.5469 17.0341C82.9749 17.0341 82.5241 17.161 82.1946 17.4148C81.8688 17.6648 81.6434 17.9432 81.5184 18.25L79.9219 17.8864C80.1112 17.3561 80.3878 16.928 80.7514 16.6023C81.1188 16.2727 81.5412 16.0341 82.0184 15.8864C82.4957 15.7348 82.9976 15.6591 83.5241 15.6591C83.8726 15.6591 84.2419 15.7008 84.6321 15.7841C85.026 15.8636 85.3934 16.0114 85.7344 16.2273C86.079 16.4432 86.3612 16.7519 86.5809 17.1534C86.8006 17.5511 86.9105 18.0682 86.9105 18.7045V24.5H85.2514V23.3068H85.1832C85.0734 23.5265 84.9086 23.7424 84.6889 23.9545C84.4692 24.1667 84.187 24.3428 83.8423 24.4829C83.4976 24.6231 83.0847 24.6932 82.6037 24.6932ZM82.973 23.3295C83.4427 23.3295 83.8442 23.2367 84.1775 23.0511C84.5147 22.8655 84.7703 22.6231 84.9446 22.3239C85.1226 22.0208 85.2116 21.697 85.2116 21.3523V20.2273C85.151 20.2879 85.0336 20.3447 84.8594 20.3977C84.6889 20.447 84.4938 20.4905 84.2741 20.5284C84.0544 20.5625 83.8404 20.5947 83.6321 20.625C83.4237 20.6515 83.2495 20.6742 83.1094 20.6932C82.7798 20.7348 82.4787 20.8049 82.2059 20.9034C81.937 21.0019 81.7211 21.1439 81.5582 21.3295C81.3991 21.5114 81.3196 21.7538 81.3196 22.0568C81.3196 22.4773 81.4749 22.7954 81.7855 23.0114C82.0961 23.2235 82.4919 23.3295 82.973 23.3295ZM89.1733 24.5V15.7727H90.8721V24.5H89.1733ZM90.0312 14.4261C89.7358 14.4261 89.482 14.3276 89.2699 14.1307C89.0615 13.9299 88.9574 13.6913 88.9574 13.4148C88.9574 13.1345 89.0615 12.8958 89.2699 12.6989C89.482 12.4981 89.7358 12.3977 90.0312 12.3977C90.3267 12.3977 90.5786 12.4981 90.7869 12.6989C90.999 12.8958 91.1051 13.1345 91.1051 13.4148C91.1051 13.6913 90.999 13.9299 90.7869 14.1307C90.5786 14.3276 90.3267 14.4261 90.0312 14.4261ZM94.8565 12.8636V24.5H93.1576V12.8636H94.8565ZM99.6818 24.6932C99.1288 24.6932 98.6288 24.5909 98.1818 24.3864C97.7348 24.178 97.3807 23.8769 97.1193 23.4829C96.8617 23.089 96.7329 22.6061 96.7329 22.0341C96.7329 21.5417 96.8276 21.1364 97.017 20.8182C97.2064 20.5 97.4621 20.2481 97.7841 20.0625C98.106 19.8769 98.4659 19.7367 98.8636 19.642C99.2613 19.5473 99.6666 19.4754 100.08 19.4261C100.602 19.3655 101.026 19.3163 101.352 19.2784C101.678 19.2367 101.915 19.1704 102.062 19.0795C102.21 18.9886 102.284 18.8409 102.284 18.6364V18.5966C102.284 18.1004 102.144 17.7159 101.864 17.4432C101.587 17.1704 101.174 17.0341 100.625 17.0341C100.053 17.0341 99.6022 17.161 99.2727 17.4148C98.9469 17.6648 98.7216 17.9432 98.5966 18.25L97 17.8864C97.1894 17.3561 97.4659 16.928 97.8295 16.6023C98.1969 16.2727 98.6193 16.0341 99.0966 15.8864C99.5738 15.7348 100.076 15.6591 100.602 15.6591C100.951 15.6591 101.32 15.7008 101.71 15.7841C102.104 15.8636 102.472 16.0114 102.812 16.2273C103.157 16.4432 103.439 16.7519 103.659 17.1534C103.879 17.5511 103.989 18.0682 103.989 18.7045V24.5H102.33V23.3068H102.261C102.151 23.5265 101.987 23.7424 101.767 23.9545C101.547 24.1667 101.265 24.3428 100.92 24.4829C100.576 24.6231 100.163 24.6932 99.6818 24.6932ZM100.051 23.3295C100.521 23.3295 100.922 23.2367 101.256 23.0511C101.593 22.8655 101.848 22.6231 102.023 22.3239C102.201 22.0208 102.29 21.697 102.29 21.3523V20.2273C102.229 20.2879 102.112 20.3447 101.937 20.3977C101.767 20.447 101.572 20.4905 101.352 20.5284C101.133 20.5625 100.919 20.5947 100.71 20.625C100.502 20.6515 100.328 20.6742 100.187 20.6932C99.8579 20.7348 99.5568 20.8049 99.2841 20.9034C99.0151 21.0019 98.7992 21.1439 98.6363 21.3295C98.4772 21.5114 98.3977 21.7538 98.3977 22.0568C98.3977 22.4773 98.553 22.7954 98.8636 23.0114C99.1742 23.2235 99.57 23.3295 100.051 23.3295ZM106.388 24.5V12.8636H108.087V17.1875H108.189C108.287 17.0057 108.429 16.7954 108.615 16.5568C108.801 16.3182 109.058 16.1098 109.388 15.9318C109.717 15.75 110.153 15.6591 110.695 15.6591C111.399 15.6591 112.028 15.8371 112.581 16.1932C113.134 16.5492 113.568 17.0625 113.882 17.7329C114.2 18.4034 114.359 19.2102 114.359 20.1534C114.359 21.0966 114.202 21.9053 113.888 22.5795C113.573 23.25 113.142 23.767 112.592 24.1307C112.043 24.4905 111.416 24.6704 110.712 24.6704C110.181 24.6704 109.748 24.5814 109.41 24.4034C109.077 24.2254 108.816 24.017 108.626 23.7784C108.437 23.5398 108.291 23.3276 108.189 23.142H108.047V24.5H106.388ZM108.053 20.1364C108.053 20.75 108.142 21.2879 108.32 21.75C108.498 22.2121 108.755 22.5739 109.092 22.8352C109.429 23.0928 109.842 23.2216 110.331 23.2216C110.839 23.2216 111.263 23.0871 111.604 22.8182C111.945 22.5454 112.202 22.1761 112.376 21.7102C112.554 21.2443 112.643 20.7197 112.643 20.1364C112.643 19.5606 112.556 19.0436 112.382 18.5852C112.212 18.1269 111.954 17.7651 111.609 17.5C111.268 17.2348 110.842 17.1023 110.331 17.1023C109.839 17.1023 109.422 17.2292 109.081 17.4829C108.744 17.7367 108.488 18.0909 108.314 18.5454C108.14 19 108.053 19.5303 108.053 20.1364ZM117.966 12.8636V24.5H116.267V12.8636H117.966ZM124.013 24.6761C123.153 24.6761 122.412 24.4924 121.791 24.125C121.174 23.7538 120.696 23.2329 120.359 22.5625C120.026 21.8883 119.859 21.0985 119.859 20.1932C119.859 19.2992 120.026 18.5114 120.359 17.8295C120.696 17.1477 121.166 16.6155 121.768 16.2329C122.374 15.8504 123.083 15.6591 123.893 15.6591C124.386 15.6591 124.863 15.7405 125.325 15.9034C125.787 16.0663 126.202 16.322 126.57 16.6704C126.937 17.0189 127.227 17.4716 127.439 18.0284C127.651 18.5814 127.757 19.2538 127.757 20.0454V20.6477H120.82V19.375H126.092C126.092 18.928 126.001 18.5322 125.82 18.1875C125.638 17.839 125.382 17.5644 125.053 17.3636C124.727 17.1629 124.344 17.0625 123.905 17.0625C123.428 17.0625 123.011 17.1799 122.655 17.4148C122.303 17.6458 122.03 17.9489 121.837 18.3239C121.647 18.6951 121.553 19.0985 121.553 19.5341V20.5284C121.553 21.1117 121.655 21.6079 121.859 22.017C122.068 22.4261 122.357 22.7386 122.729 22.9545C123.1 23.1667 123.534 23.2727 124.03 23.2727C124.352 23.2727 124.645 23.2273 124.91 23.1364C125.176 23.0417 125.405 22.9015 125.598 22.7159C125.791 22.5303 125.939 22.3011 126.041 22.0284L127.649 22.3182C127.52 22.7917 127.289 23.2064 126.956 23.5625C126.626 23.9148 126.212 24.1894 125.712 24.3864C125.215 24.5795 124.649 24.6761 124.013 24.6761ZM137.553 24.6761C136.734 24.6761 136.02 24.4886 135.41 24.1136C134.801 23.7386 134.327 23.214 133.99 22.5398C133.653 21.8655 133.484 21.0776 133.484 20.1761C133.484 19.2708 133.653 18.4792 133.99 17.8011C134.327 17.1231 134.801 16.5966 135.41 16.2216C136.02 15.8466 136.734 15.6591 137.553 15.6591C138.371 15.6591 139.085 15.8466 139.695 16.2216C140.304 16.5966 140.778 17.1231 141.115 17.8011C141.452 18.4792 141.621 19.2708 141.621 20.1761C141.621 21.0776 141.452 21.8655 141.115 22.5398C140.778 23.214 140.304 23.7386 139.695 24.1136C139.085 24.4886 138.371 24.6761 137.553 24.6761ZM137.558 23.25C138.089 23.25 138.528 23.1098 138.876 22.8295C139.225 22.5492 139.482 22.1761 139.649 21.7102C139.82 21.2443 139.905 20.7311 139.905 20.1704C139.905 19.6136 139.82 19.1023 139.649 18.6364C139.482 18.1667 139.225 17.7898 138.876 17.5057C138.528 17.2216 138.089 17.0795 137.558 17.0795C137.024 17.0795 136.581 17.2216 136.229 17.5057C135.88 17.7898 135.621 18.1667 135.45 18.6364C135.284 19.1023 135.2 19.6136 135.2 20.1704C135.2 20.7311 135.284 21.2443 135.45 21.7102C135.621 22.1761 135.88 22.5492 136.229 22.8295C136.581 23.1098 137.024 23.25 137.558 23.25ZM145.216 19.3182V24.5H143.517V15.7727H145.148V17.1932H145.256C145.456 16.7311 145.771 16.3598 146.199 16.0795C146.631 15.7992 147.174 15.6591 147.83 15.6591C148.424 15.6591 148.945 15.7841 149.392 16.0341C149.839 16.2803 150.186 16.6477 150.432 17.1364C150.678 17.625 150.801 18.2292 150.801 18.9489V24.5H149.102V19.1534C149.102 18.5208 148.937 18.0265 148.608 17.6704C148.278 17.3106 147.826 17.1307 147.25 17.1307C146.856 17.1307 146.506 17.2159 146.199 17.3864C145.896 17.5568 145.655 17.8068 145.477 18.1364C145.303 18.4621 145.216 18.8561 145.216 19.3182Z" fill="#E8E8E8"/>
<path d="M69.0493 35.1751C68.9809 34.9215 68.8803 34.6981 68.7475 34.505C68.6147 34.3078 68.4517 34.1407 68.2585 34.0039C68.0653 33.8671 67.844 33.7644 67.5944 33.696C67.3449 33.6236 67.0712 33.5873 66.7734 33.5873C66.1738 33.5873 65.6546 33.7322 65.2159 34.022C64.7812 34.3118 64.4452 34.7344 64.2077 35.2898C63.9703 35.8411 63.8515 36.5112 63.8515 37.3001C63.8515 38.0929 63.9662 38.769 64.1957 39.3285C64.4251 39.8879 64.7571 40.3145 65.1917 40.6083C65.6264 40.9021 66.1536 41.049 66.7734 41.049C67.3208 41.049 67.7836 40.9605 68.1619 40.7834C68.5443 40.6023 68.834 40.3467 69.0312 40.0167C69.2284 39.6867 69.327 39.2983 69.327 38.8516L69.8824 38.918H66.876V36.7386H72.2067V38.3746C72.2067 39.4814 71.9712 40.4292 71.5003 41.218C71.0335 42.0069 70.3895 42.6126 69.5685 43.0351C68.7515 43.4577 67.8118 43.669 66.7493 43.669C65.5701 43.669 64.5337 43.4135 63.6403 42.9023C62.7468 42.3912 62.0505 41.6627 61.5515 40.717C61.0524 39.7672 60.8029 38.6403 60.8029 37.3363C60.8029 36.3221 60.9538 35.4226 61.2557 34.6378C61.5575 33.8489 61.9781 33.1809 62.5174 32.6335C63.0607 32.0862 63.6885 31.6716 64.4009 31.3899C65.1173 31.1082 65.888 30.9673 66.7131 30.9673C67.4294 30.9673 68.0955 31.0699 68.7113 31.2752C69.3311 31.4805 69.8784 31.7702 70.3533 32.1445C70.8322 32.5188 71.2206 32.9635 71.5184 33.4787C71.8163 33.9938 72.0014 34.5593 72.0738 35.1751H69.0493ZM76.92 31.1364V43.5H73.9679V31.1364H76.92ZM78.799 43.5V34.2273H81.751V43.5H78.799ZM80.278 33.1467C79.8635 33.1467 79.5073 33.0098 79.2095 32.7361C78.9117 32.4584 78.7628 32.1244 78.7628 31.734C78.7628 31.3476 78.9117 31.0176 79.2095 30.744C79.5073 30.4663 79.8635 30.3274 80.278 30.3274C80.6966 30.3274 81.0528 30.4663 81.3466 30.744C81.6444 31.0176 81.7933 31.3476 81.7933 31.734C81.7933 32.1244 81.6444 32.4584 81.3466 32.7361C81.0528 33.0098 80.6966 33.1467 80.278 33.1467ZM88.8641 34.2273V36.4006H83.0143V34.2273H88.8641ZM84.2398 32.0057H87.1918V40.5842C87.1918 40.7653 87.22 40.9122 87.2763 41.0248C87.3367 41.1335 87.4232 41.212 87.5359 41.2603C87.6486 41.3046 87.7834 41.3267 87.9404 41.3267C88.0531 41.3267 88.1718 41.3166 88.2966 41.2965C88.4254 41.2724 88.522 41.2522 88.5864 41.2361L89.0331 43.3672C88.8922 43.4074 88.693 43.4577 88.4354 43.5181C88.1819 43.5785 87.878 43.6167 87.5239 43.6328C86.8316 43.665 86.238 43.5845 85.743 43.3913C85.252 43.1941 84.8757 42.8882 84.6141 42.4737C84.3565 42.0592 84.2317 41.538 84.2398 40.9101V32.0057ZM94.5991 43.6751C93.6212 43.6751 92.782 43.4738 92.0817 43.0714C91.3855 42.6689 90.8502 42.1095 90.4759 41.3931C90.1016 40.6727 89.9145 39.8396 89.9145 38.8938C89.9145 37.944 90.1016 37.1109 90.4759 36.3945C90.8542 35.6741 91.3915 35.1127 92.0878 34.7102C92.7881 34.3078 93.6232 34.1065 94.5931 34.1065C95.4503 34.1065 96.1969 34.2615 96.8328 34.5714C97.4727 34.8813 97.9718 35.3199 98.33 35.8874C98.6922 36.4509 98.8833 37.1129 98.9035 37.8736H96.1446C96.0882 37.3987 95.9273 37.0264 95.6616 36.7567C95.4 36.4871 95.0579 36.3523 94.6354 36.3523C94.2933 36.3523 93.9934 36.4489 93.7359 36.642C93.4783 36.8312 93.2771 37.1129 93.1322 37.4872C92.9913 37.8575 92.9209 38.3163 92.9209 38.8636C92.9209 39.411 92.9913 39.8738 93.1322 40.2521C93.2771 40.6264 93.4783 40.9101 93.7359 41.1033C93.9934 41.2925 94.2933 41.3871 94.6354 41.3871C94.909 41.3871 95.1505 41.3287 95.3598 41.212C95.5731 41.0953 95.7482 40.9242 95.885 40.6989C96.0218 40.4694 96.1084 40.1918 96.1446 39.8658H98.9035C98.8753 40.6304 98.6841 41.2985 98.33 41.87C97.9798 42.4415 97.4868 42.8862 96.8509 43.2042C96.219 43.5181 95.4685 43.6751 94.5991 43.6751ZM103.366 38.2116V43.5H100.414V31.1364H103.27V35.9297H103.372C103.582 35.3582 103.924 34.9114 104.399 34.5895C104.878 34.2675 105.463 34.1065 106.155 34.1065C106.807 34.1065 107.375 34.2514 107.858 34.5412C108.341 34.8269 108.715 35.2314 108.981 35.7546C109.25 36.2778 109.383 36.8895 109.379 37.5898V43.5H106.427V38.1694C106.431 37.6542 106.302 37.2518 106.041 36.962C105.779 36.6722 105.411 36.5273 104.936 36.5273C104.626 36.5273 104.352 36.5958 104.115 36.7326C103.881 36.8654 103.698 37.0566 103.565 37.3061C103.437 37.5556 103.37 37.8575 103.366 38.2116Z" fill="url(#paint1_linear_1_50)"/>
</g>
<defs>
<filter id="filter0_d_1_50" x="6.28571" y="2.28571" width="51.4286" height="51.4286" filterUnits="userSpaceOnUse" color-interpolation-filters="sRGB">
<feFlood flood-opacity="0" result="BackgroundImageFix"/>
<feColorMatrix in="SourceAlpha" type="matrix" values="0 0 0 0 0 0 0 0 0 0 0 0 0 0 0 0 0 0 127 0" result="hardAlpha"/>
<feOffset/>
<feGaussianBlur stdDeviation="2.85714"/>
<feComposite in2="hardAlpha" operator="out"/>
<feColorMatrix type="matrix" values="0 0 0 0 0 0 0 0 0 0 0 0 0 0 0 0 0 0 0.25 0"/>
<feBlend mode="normal" in2="BackgroundImageFix" result="effect1_dropShadow_1_50"/>
<feBlend mode="normal" in="SourceGraphic" in2="effect1_dropShadow_1_50" result="shape"/>
</filter>
<filter id="filter1_d_1_50" x="54.4" y="3.9" width="103.2" height="48.2" filterUnits="userSpaceOnUse" color-interpolation-filters="sRGB">
<feFlood flood-opacity="0" result="BackgroundImageFix"/>
<feColorMatrix in="SourceAlpha" type="matrix" values="0 0 0 0 0 0 0 0 0 0 0 0 0 0 0 0 0 0 127 0" result="hardAlpha"/>
<feOffset/>
<feGaussianBlur stdDeviation="2.8"/>
<feComposite in2="hardAlpha" operator="out"/>
<feColorMatrix type="matrix" values="0 0 0 0 0 0 0 0 0 0 0 0 0 0 0 0 0 0 0.25 0"/>
<feBlend mode="normal" in2="BackgroundImageFix" result="effect1_dropShadow_1_50"/>
<feBlend mode="normal" in="SourceGraphic" in2="effect1_dropShadow_1_50" result="shape"/>
</filter>
<linearGradient id="paint0_linear_1_50" x1="82" y1="0" x2="82" y2="56" gradientUnits="userSpaceOnUse">
<stop stop-color="#001679"/>
<stop offset="1" stop-color="#0E0059"/>
</linearGradient>
<linearGradient id="paint1_linear_1_50" x1="85.5" y1="28.5" x2="85.5" y2="46.5" gradientUnits="userSpaceOnUse">
<stop stop-color="#FEC1EE"/>
<stop offset="1" stop-color="#FF7698"/>
</linearGradient>
</defs>
</svg>
