<svg width="56" height="56" viewBox="0 0 56 56" fill="none" xmlns="http://www.w3.org/2000/svg">
<rect width="56" height="56" rx="8.4" fill="url(#paint0_linear_1_62)"/>
<rect x="1.05" y="1.05" width="53.9" height="53.9" rx="7.35" stroke="white" stroke-opacity="0.15" stroke-width="2.1"/>
<g filter="url(#filter0_d_1_62)">
<path d="M23.8064 28.1378V26.9916H38.0334V27.2141C36.2121 27.8073 33.5152 28.3667 32.8232 28.4747C33.2004 28.6503 33.3234 28.8051 33.484 28.8578C34.0409 28.9251 34.5932 29.0267 35.1375 29.1623C36.2088 29.4088 37.0961 29.6423 37.8259 29.8999C38.5843 30.1835 38.9857 30.3142 39.4325 30.443C39.9545 30.5853 40.4834 30.701 41.0171 30.7897C41.4575 30.8548 42.3935 30.5295 42.6133 30.4729C42.8332 30.4164 45.6803 29.3099 45.6803 29.3099C45.6803 29.3099 46.9162 28.8474 47.4053 28.7245C47.8548 28.6003 47.8665 28.7505 47.8665 28.7505C47.9073 28.8807 47.9395 29.0135 47.9628 29.1479C48.0081 29.5713 48.012 29.9981 47.9745 30.4222C47.926 30.749 47.8609 31.0732 47.7793 31.3934C47.7058 31.6578 47.6066 31.9144 47.4834 32.1596C47.3923 32.319 47.2518 32.5674 47.2037 32.6754C47.1292 32.8241 47.0812 32.9845 47.0619 33.1496C47.0395 33.3731 47.0503 33.5986 47.0938 33.8189C47.1328 34.0076 47.259 34.4805 47.259 34.4805L47.4079 35.0717L27.0184 35.047V36.2426H10.5063C10.5153 36.2151 10.5169 36.1857 10.5108 36.1574C10.4939 36.0845 10.4107 35.9772 10.0919 35.7853C9.68148 35.518 8.38575 35.049 8.01043 34.9117C7.99547 34.5559 7.84131 32.9168 9.88638 31.1182C10.4987 30.595 11.143 30.1106 11.8157 29.6677C11.8157 29.6677 13.5719 28.5189 14.9678 28.0604" fill="#2800FF"/>
<path d="M47.4047 35.0717L27.0151 35.047V36.2426H10.5063C10.4146 36.5119 9.17542 36.988 8.32721 37.1532C8.78254 37.7796 9.64246 38.3514 10.5056 38.8445C11.3375 39.2985 12.201 39.6922 13.0893 40.0225C13.4145 40.135 14.3837 40.5142 14.9613 40.5597C15.765 40.617 16.5723 40.6018 17.3733 40.5142C17.7966 40.473 18.2172 40.4079 18.6332 40.3191C18.6332 40.3191 18.7139 40.6378 19.2186 41.3377C19.5835 41.8223 20.0311 42.318 20.4779 42.6113C21.01 42.9476 21.1869 43.1252 22.3396 43.3353C23.1968 43.4986 24.0728 43.5394 24.9414 43.4563C25.5269 43.4023 26.0941 43.3834 26.5982 43.2436C26.6223 42.597 26.5409 41.9999 26.2808 41.4723C26.9807 41.5003 27.3696 41.5205 28.3466 41.5016C30.233 41.4658 32.293 41.0775 33.9816 40.7549C35.3769 40.4888 37.6594 39.8494 38.7509 39.4865C39.3779 39.2777 40.8688 38.771 41.0073 38.771C41.2317 38.771 41.5687 38.8236 42.0377 38.9622C42.7343 39.1684 43.2697 39.3525 44.4444 39.7746C45.6191 40.1968 46.6644 40.5649 47.3006 40.6521C47.7709 40.7172 47.8288 40.6521 47.8613 40.4166C47.9153 40.1187 47.5003 39.4409 47.3292 38.9089C47.1148 38.3713 47.0719 37.7806 47.2063 37.2176C47.2504 37.0522 47.3038 36.8893 47.3663 36.7298C47.4796 36.4052 47.5291 36.0617 47.512 35.7183C47.499 35.4996 47.463 35.2829 47.4047 35.0717Z" fill="#5A78FF"/>
<path d="M47.1386 25.303C47.132 25.079 47.1606 24.8554 47.2232 24.6402C47.2635 24.5101 47.3051 24.3943 47.3819 24.1751C47.4917 23.8414 47.5335 23.4891 47.5048 23.1389C47.4829 22.9313 47.4488 22.7252 47.4027 22.5216L32.4498 22.4963V23.6606H10.516C10.5603 23.98 9.18258 24.4906 8.33437 24.6584C8.77668 25.266 9.67108 25.865 10.5368 26.36C11.3707 26.8129 12.2353 27.2065 13.1244 27.538C13.5147 27.6759 14.3681 27.9934 14.9717 28.063L23.8064 28.1378V26.9916H38.0334V27.2141C38.248 27.1543 38.5668 27.0593 38.7717 26.9916C39.3987 26.7828 40.9143 26.2612 41.0529 26.2592C41.2779 26.2592 41.5648 26.3087 42.0338 26.4472C42.7304 26.6528 43.2846 26.8589 44.4607 27.2785C45.6367 27.6981 46.6573 28.0591 47.2921 28.1527C47.8379 28.234 47.8704 28.0513 47.8704 27.8333C47.8834 27.5556 47.4723 26.8537 47.3006 26.3191C47.1937 25.991 47.1391 25.6481 47.1386 25.303Z" fill="#FEC1EE"/>
<path d="M47.9628 16.6622C47.9745 16.8743 48.007 17.7394 47.9745 17.9358C47.932 18.2361 47.8712 18.5335 47.7924 18.8263C47.7078 19.093 47.579 19.4768 47.4801 19.6511C47.3891 19.8105 47.2408 20.0564 47.1926 20.1643C47.1213 20.3228 47.076 20.4917 47.0586 20.6646C47.0363 20.888 47.047 21.1136 47.0905 21.3339C47.1295 21.5225 47.2557 21.9954 47.2557 21.9954L47.4027 22.5216L32.4498 22.4963V23.6606H10.516C10.516 23.6606 10.5355 23.5305 10.1388 23.2833C9.781 23.0882 8.61667 22.5938 8.02474 22.4117C7.9675 22.1144 7.84131 20.431 9.88638 18.6331C10.4989 18.1095 11.1437 17.6248 11.817 17.182C11.817 17.182 13.5134 15.9779 15.336 15.4387C15.7753 15.3147 16.2232 15.2234 16.676 15.1655C17.9684 15.0601 20.0402 15.0094 20.2431 15.0165C20.6496 14.4755 21.092 13.9624 21.5675 13.4808C22.3396 12.7204 22.7773 12.427 23.2392 12.375C23.8766 12.4127 27.289 13.2102 28.2523 13.4971C28.8052 13.6532 29.9123 13.9524 30.7891 14.3199C31.6933 14.6672 31.9132 14.9626 31.9132 14.9626C32.0825 15.2184 32.2662 15.4645 32.4634 15.6995C32.6768 15.9129 33.2895 16.2811 33.46 16.35C33.7169 16.4151 34.1514 16.419 35.1349 16.6564C36.1627 16.9009 37.0863 17.1624 37.8213 17.3914C38.5824 17.6451 38.9792 17.8207 39.4345 17.9378C39.8898 18.0549 40.6184 18.2305 41.0216 18.289C41.4249 18.3476 42.3115 18.0289 42.5314 17.9723C42.7512 17.9157 45.6803 16.8242 45.6803 16.8242C45.6803 16.8242 47.2609 16.2589 47.404 16.2128C47.8834 16.0566 47.9628 16.0456 47.9628 16.6622Z" fill="#FF7698"/>
<path d="M14.96 18.4575C13.9258 18.4575 13.1452 19.2511 13.0932 20.3764C13.0411 21.4887 13.9323 22.2953 14.96 22.2953C15.9878 22.2953 16.8269 21.4367 16.8269 20.3764C16.8269 19.3161 15.9949 18.4575 14.96 18.4575ZM14.5242 21.892C13.7306 21.892 13.0867 21.3261 13.0932 20.4154C13.1192 19.6674 13.7371 18.9389 14.5242 18.9389C15.3113 18.9389 15.9552 19.5958 15.9552 20.4154C15.9552 21.235 15.3184 21.892 14.5249 21.892H14.5242Z" fill="white"/>
<path d="M14.5249 18.9447C13.7313 18.9447 13.1133 19.6732 13.0938 20.4213C13.0938 21.3319 13.7378 21.8978 14.5249 21.8978C15.3119 21.8978 15.9559 21.2409 15.9559 20.4213C15.9559 19.6017 15.3184 18.9447 14.5249 18.9447ZM13.8484 21.4035C13.7527 21.4061 13.6584 21.3801 13.5775 21.3288C13.4967 21.2775 13.4329 21.2032 13.3945 21.1155C13.3561 21.0278 13.3447 20.9307 13.3617 20.8365C13.3788 20.7422 13.4236 20.6553 13.4904 20.5866C13.5571 20.518 13.6429 20.4709 13.7366 20.4512C13.8303 20.4316 13.9277 20.4403 14.0164 20.4763C14.1052 20.5123 14.1811 20.574 14.2346 20.6534C14.2881 20.7328 14.3167 20.8264 14.3167 20.9221C14.3178 20.9846 14.3066 21.0467 14.2836 21.1048C14.2606 21.1628 14.2264 21.2158 14.1829 21.2606C14.1393 21.3054 14.0874 21.3412 14.03 21.3658C13.9726 21.3904 13.9108 21.4035 13.8484 21.4041V21.4035Z" fill="black"/>
<path d="M13.8484 21.4041C14.107 21.4041 14.3167 21.1886 14.3167 20.9228C14.3167 20.6569 14.107 20.4414 13.8484 20.4414C13.5897 20.4414 13.38 20.6569 13.38 20.9228C13.38 21.1886 13.5897 21.4041 13.8484 21.4041Z" fill="white"/>
<path d="M14.96 31.0493C13.9258 31.0493 13.1452 31.8428 13.0932 32.9681C13.0411 34.0804 13.9323 34.887 14.96 34.887C15.9878 34.887 16.8269 34.0284 16.8269 32.9681C16.8269 31.9079 15.9949 31.0493 14.96 31.0493ZM14.5242 34.4837C13.7306 34.4837 13.0867 33.9178 13.0932 33.0072C13.1192 32.2591 13.7371 31.5306 14.5242 31.5306C15.3113 31.5306 15.9552 32.1876 15.9552 33.0072C15.9552 33.8268 15.3184 34.4837 14.5249 34.4837H14.5242Z" fill="white"/>
<path d="M14.5249 31.5371C13.7313 31.5371 13.1133 32.2656 13.0938 33.0137C13.0938 33.9243 13.7378 34.4902 14.5249 34.4902C15.3119 34.4902 15.9559 33.8333 15.9559 33.0137C15.9559 32.1941 15.3184 31.5371 14.5249 31.5371ZM13.8484 33.9959C13.7527 33.9985 13.6584 33.9724 13.5775 33.9212C13.4967 33.8699 13.4329 33.7956 13.3945 33.7079C13.3561 33.6202 13.3447 33.5231 13.3617 33.4289C13.3788 33.3346 13.4236 33.2477 13.4904 33.179C13.5571 33.1104 13.6429 33.0633 13.7366 33.0436C13.8303 33.024 13.9277 33.0327 14.0164 33.0687C14.1052 33.1047 14.1811 33.1664 14.2346 33.2458C14.2881 33.3252 14.3167 33.4188 14.3167 33.5145C14.3177 33.5769 14.3064 33.6389 14.2834 33.6969C14.2604 33.755 14.2262 33.8079 14.1826 33.8526C14.1391 33.8973 14.0872 33.933 14.0298 33.9576C13.9724 33.9822 13.9108 33.9952 13.8484 33.9959Z" fill="black"/>
<path d="M13.8484 33.9959C14.107 33.9959 14.3167 33.7804 14.3167 33.5145C14.3167 33.2487 14.107 33.0332 13.8484 33.0332C13.5897 33.0332 13.38 33.2487 13.38 33.5145C13.38 33.7804 13.5897 33.9959 13.8484 33.9959Z" fill="white"/>
<path d="M22.6004 23.6606C22.3331 24.6643 22.0553 25.4904 22.0501 25.5053C22.0309 25.562 22.0231 25.6219 22.0271 25.6816C22.0311 25.7413 22.0467 25.7996 22.0733 25.8533C22.0998 25.9069 22.1366 25.9548 22.1816 25.9942C22.2266 26.0336 22.279 26.0638 22.3357 26.0829C22.3923 26.1021 22.4522 26.1099 22.5119 26.106C22.5716 26.102 22.63 26.0863 22.6836 26.0598C22.7373 26.0333 22.7851 25.9965 22.8245 25.9514C22.864 25.9064 22.8941 25.8541 22.9133 25.7974C22.9354 25.7323 23.2554 24.7794 23.5429 23.6606H22.6004Z" fill="#5A78FF"/>
<path d="M20.5046 23.6606C20.4213 23.8486 20.3615 23.9637 20.3583 23.9702C20.314 24.0612 20.3068 24.1659 20.3382 24.2621C20.3697 24.3583 20.4372 24.4385 20.5267 24.4859C20.6161 24.5332 20.7205 24.5439 20.8177 24.5158C20.9149 24.4877 20.9974 24.4229 21.0477 24.3351C21.1605 24.1155 21.2621 23.8904 21.3522 23.6606H20.5046Z" fill="#5A78FF"/>
<path d="M23.0844 21.1661C23.0844 21.1797 23.0805 21.1927 23.0792 21.2064C23.0271 21.9174 22.819 22.8475 22.6004 23.6606H23.5462C23.7491 22.8709 23.9365 21.9974 23.9892 21.2916C24.1049 20.5052 23.6242 19.0273 23.3062 18.1642C26.0301 18.268 28.7467 18.5149 31.4448 18.9037C36.0677 19.5724 41.6441 22.3434 41.7001 22.3714C41.7537 22.3994 41.8123 22.4164 41.8726 22.4215C41.9328 22.4266 41.9935 22.4196 42.0511 22.401C42.1086 22.3824 42.1619 22.3525 42.2077 22.3131C42.2536 22.2737 42.2911 22.2255 42.3182 22.1714C42.3452 22.1173 42.3612 22.0584 42.3652 21.9981C42.3693 21.9377 42.3612 21.8772 42.3416 21.82C42.3219 21.7628 42.2911 21.7101 42.2509 21.6649C42.2107 21.6198 42.1618 21.5831 42.1073 21.557C41.8744 21.4399 36.3454 18.6949 31.5756 18.0022C26.632 17.2867 22.6778 17.2359 22.6388 17.2359C22.5635 17.2351 22.4892 17.2529 22.4225 17.2878C22.3558 17.3227 22.2988 17.3736 22.2566 17.4359C22.2144 17.4982 22.1883 17.57 22.1807 17.6449C22.173 17.7198 22.184 17.7954 22.2127 17.8649C22.6017 18.8146 23.1858 20.5462 23.0844 21.1661Z" fill="#2800FF"/>
<path d="M21.0464 21.2591C21.1226 22.1255 20.729 23.1558 20.5046 23.6606H21.3502C21.6 23.0336 21.8992 22.0689 21.8218 21.1888C21.7123 20.0092 21.3147 18.8745 20.664 17.8845C20.6341 17.8428 20.5963 17.8074 20.5527 17.7803C20.5091 17.7532 20.4606 17.735 20.41 17.7267C20.3594 17.7183 20.3076 17.7201 20.2577 17.7317C20.2077 17.7434 20.1606 17.7648 20.1189 17.7947C20.0772 17.8246 20.0418 17.8624 20.0147 17.906C19.9877 17.9496 19.9694 17.998 19.9611 18.0486C19.9528 18.0993 19.9545 18.151 19.9662 18.201C19.9778 18.2509 19.9992 18.2981 20.0291 18.3398C20.5959 19.218 20.9447 20.2188 21.0464 21.2591Z" fill="#2800FF"/>
<path d="M22.6089 36.24C22.3415 37.2437 22.0638 38.0698 22.0586 38.0847C22.0209 38.1988 22.0299 38.3231 22.0836 38.4306C22.1372 38.5381 22.2312 38.6201 22.345 38.6586C22.4587 38.6971 22.5831 38.6891 22.6911 38.6363C22.799 38.5836 22.8817 38.4903 22.9211 38.3768C22.9439 38.3117 23.2639 37.3588 23.5507 36.24H22.6089Z" fill="#FEC1EE"/>
<path d="M20.5131 36.24C20.4292 36.428 20.3693 36.5431 20.3661 36.5496C20.3177 36.6411 20.3076 36.7481 20.3381 36.8471C20.3686 36.946 20.4372 37.0287 20.5287 37.0771C20.6202 37.1255 20.7272 37.1356 20.8261 37.1051C20.925 37.0746 21.0078 37.006 21.0562 36.9145C21.1689 36.6949 21.2705 36.4698 21.3606 36.24H20.5131Z" fill="#FEC1EE"/>
<path d="M23.0909 33.7454C23.0887 33.7588 23.0871 33.7723 23.0863 33.7858C23.0336 34.4967 22.8261 35.4269 22.6076 36.24H23.5494C23.7524 35.4503 23.9397 34.5767 23.9931 33.871C24.1088 33.0846 23.6281 31.6067 23.3094 30.7435C26.0336 30.8474 28.7504 31.0943 31.4487 31.4831C36.0709 32.1518 41.648 34.9228 41.7033 34.9508C41.7568 34.9775 41.815 34.9935 41.8747 34.9978C41.9343 35.0021 41.9942 34.9946 42.051 34.9757C42.1077 34.9568 42.1602 34.9269 42.2054 34.8878C42.2506 34.8486 42.2877 34.801 42.3144 34.7475C42.3412 34.694 42.3572 34.6358 42.3615 34.5761C42.3658 34.5165 42.3582 34.4566 42.3394 34.3998C42.3205 34.3431 42.2906 34.2906 42.2515 34.2454C42.2123 34.2002 42.1646 34.1632 42.1112 34.1364C41.8783 34.0193 36.3493 31.2743 31.5788 30.5816C28.6176 30.1501 25.6335 29.8941 22.642 29.8147C22.5668 29.8139 22.4924 29.8318 22.4258 29.8667C22.3591 29.9017 22.3021 29.9527 22.26 30.0151C22.2178 30.0775 22.1918 30.1493 22.1842 30.2242C22.1767 30.2992 22.1878 30.3748 22.2166 30.4443C22.6102 31.3914 23.1943 33.1249 23.0909 33.7454Z" fill="#FF7698"/>
<path d="M21.0542 33.8404C21.131 34.7068 20.7368 35.7372 20.5131 36.2419H21.3587C21.6078 35.6149 21.9077 34.6502 21.8303 33.7702C21.7207 32.5905 21.3231 31.4558 20.6724 30.4658C20.612 30.3816 20.5207 30.3249 20.4185 30.308C20.3162 30.2912 20.2115 30.3156 20.1273 30.376C20.0431 30.4364 19.9864 30.5278 19.9696 30.63C19.9527 30.7322 19.9772 30.8369 20.0376 30.9211C20.604 31.7994 20.9525 32.8003 21.0542 33.8404Z" fill="#FF7698"/>
</g>
<defs>
<filter id="filter0_d_1_62" x="2.28571" y="2.28571" width="51.4286" height="51.4286" filterUnits="userSpaceOnUse" color-interpolation-filters="sRGB">
<feFlood flood-opacity="0" result="BackgroundImageFix"/>
<feColorMatrix in="SourceAlpha" type="matrix" values="0 0 0 0 0 0 0 0 0 0 0 0 0 0 0 0 0 0 127 0" result="hardAlpha"/>
<feOffset/>
<feGaussianBlur stdDeviation="2.85714"/>
<feComposite in2="hardAlpha" operator="out"/>
<feColorMatrix type="matrix" values="0 0 0 0 0 0 0 0 0 0 0 0 0 0 0 0 0 0 0.25 0"/>
<feBlend mode="normal" in2="BackgroundImageFix" result="effect1_dropShadow_1_62"/>
<feBlend mode="normal" in="SourceGraphic" in2="effect1_dropShadow_1_62" result="shape"/>
</filter>
<linearGradient id="paint0_linear_1_62" x1="28" y1="0" x2="28" y2="56" gradientUnits="userSpaceOnUse">
<stop stop-color="#001679"/>
<stop offset="1" stop-color="#0E0059"/>
</linearGradient>
</defs>
</svg>
