<svg width="374" height="40" viewBox="0 0 374 40" fill="none" xmlns="http://www.w3.org/2000/svg">
<rect width="374.001" height="40.0014" rx="8" fill="url(#paint0_linear_1_56)"/>
<rect x="1.07143" y="1.07143" width="371.858" height="37.8585" rx="6.92857" stroke="white" stroke-opacity="0.15" stroke-width="2.14286"/>
<g filter="url(#filter0_d_1_56)">
<path d="M12.0454 28.0336C11.8814 28.1745 11.6817 28.2669 11.4685 28.3005C11.2553 28.3342 11.037 28.3077 10.8379 28.2241L8.7175 27.3299C8.50599 27.2412 8.32515 27.0919 8.19755 26.9006C8.06995 26.7092 8.00124 26.4843 8 26.2539V13.7466C8.00124 13.5163 8.06995 13.2914 8.19755 13.1C8.32515 12.9087 8.50599 12.7593 8.7175 12.6707L10.8379 11.7911C11.037 11.7075 11.2553 11.6811 11.4685 11.7147C11.6817 11.7484 11.8814 11.8408 12.0454 11.9817L12.5208 12.3775C12.4244 12.3078 12.3107 12.2663 12.1923 12.2574C12.0739 12.2486 11.9554 12.2728 11.8498 12.3274C11.7442 12.382 11.6556 12.4648 11.5939 12.5668C11.5322 12.6687 11.4997 12.7858 11.5 12.9052V27.0954C11.4997 27.2147 11.5322 27.3319 11.5939 27.4338C11.6556 27.5358 11.7442 27.6186 11.8498 27.6732C11.9554 27.7278 12.0739 27.752 12.1923 27.7432C12.3107 27.7343 12.4244 27.6928 12.5208 27.6231L12.0454 28.0336Z" fill="#52218A"/>
<path d="M8.7175 27.3299C8.50599 27.2412 8.32515 27.0919 8.19755 26.9005C8.06995 26.7092 8.00124 26.4843 8 26.2539V26.1572C8.00144 26.2925 8.0432 26.4244 8.11989 26.5356C8.19659 26.6469 8.3047 26.7325 8.43027 26.7815C8.55584 26.8304 8.69312 26.8403 8.82438 26.8101C8.95564 26.7798 9.07486 26.7107 9.16667 26.6116L27.25 6.51375C27.5061 6.25761 27.8348 6.08741 28.1909 6.02652C28.5471 5.96563 28.9132 6.01702 29.2392 6.17366L35.0083 8.96478C35.3055 9.10841 35.5562 9.33349 35.7317 9.61412C35.9071 9.89474 36.0001 10.2195 36 10.5509V10.6183C35.9998 10.4081 35.9403 10.2022 35.8283 10.0246C35.7164 9.84696 35.5566 9.70493 35.3675 9.61497C35.1785 9.52501 34.9679 9.49082 34.7603 9.51637C34.5526 9.54192 34.3565 9.62617 34.1946 9.75931L12.5208 27.6231L12.0454 28.0336C11.8814 28.1745 11.6817 28.2669 11.4685 28.3005C11.2553 28.3342 11.037 28.3077 10.8379 28.2241L8.7175 27.3299Z" fill="#6C33AF"/>
<path d="M8.7175 12.6707C8.50599 12.7593 8.32515 12.9087 8.19755 13.1C8.06995 13.2914 8.00124 13.5163 8 13.7466V13.8434C8.00144 13.708 8.0432 13.5762 8.11989 13.4649C8.19659 13.3537 8.3047 13.268 8.43027 13.2191C8.55584 13.1702 8.69312 13.1602 8.82438 13.1905C8.95564 13.2208 9.07486 13.2899 9.16667 13.389L27.25 33.4868C27.5061 33.743 27.8348 33.9132 28.1909 33.9741C28.5471 34.035 28.9132 33.9836 29.2392 33.8269L35.0083 31.0358C35.3055 30.8922 35.5562 30.6671 35.7317 30.3865C35.9071 30.1058 36.0001 29.7811 36 29.4497V29.3822C35.9998 29.5925 35.9403 29.7984 35.8283 29.976C35.7164 30.1536 35.5566 30.2957 35.3675 30.3856C35.1785 30.4756 34.9679 30.5098 34.7603 30.4842C34.5526 30.4587 34.3565 30.3744 34.1946 30.2413L12.5208 12.3775L12.0454 11.967C11.8799 11.8285 11.6795 11.7388 11.4664 11.7077C11.2532 11.6767 11.0357 11.7055 10.8379 11.7911L8.7175 12.6707Z" fill="#854CC7"/>
<path d="M29.2392 33.8269C28.9132 33.9836 28.5471 34.035 28.1909 33.9741C27.8348 33.9132 27.5061 33.743 27.25 33.4868C27.3937 33.6303 27.5765 33.7278 27.7752 33.7671C27.9739 33.8064 28.1798 33.7857 28.3669 33.7076C28.5539 33.6296 28.7139 33.4977 28.8265 33.3285C28.9392 33.1593 28.9995 32.9604 29 32.7568V7.24965C29.0007 7.04556 28.9412 6.84584 28.829 6.67575C28.7167 6.50566 28.5569 6.37283 28.3696 6.29407C28.1822 6.2153 27.9759 6.19413 27.7766 6.23324C27.5774 6.27234 27.3941 6.36996 27.25 6.51376C27.5061 6.25762 27.8348 6.08742 28.1909 6.02653C28.5471 5.96563 28.9132 6.01703 29.2392 6.17366L35.0083 8.96186C35.3055 9.10548 35.5562 9.33057 35.7317 9.61119C35.9071 9.89182 36.0001 10.2166 36 10.548V29.4526C36.0001 29.784 35.9071 30.1088 35.7317 30.3894C35.5562 30.67 35.3055 30.8951 35.0083 31.0387L29.2392 33.8269Z" fill="#B179F1"/>
<g opacity="0.25">
<path fill-rule="evenodd" clip-rule="evenodd" d="M28.0929 33.9559C28.4785 34.0444 28.8826 33.9989 29.2392 33.8269L35.0083 31.0387C35.3055 30.8951 35.5562 30.67 35.7317 30.3894C35.9071 30.1088 36.0001 29.784 36 29.4526V10.548C36.0001 10.2166 35.9071 9.89181 35.7317 9.61119C35.5562 9.33057 35.3055 9.10548 35.0083 8.96186L29.2392 6.17366C28.831 5.97642 28.3626 5.94594 27.9325 6.08864C27.6753 6.17526 27.4416 6.3208 27.25 6.51376L17.9517 16.8515L12.5208 12.3775L12.0454 11.967C11.9024 11.8441 11.732 11.7578 11.5487 11.7154C11.3653 11.6731 11.1745 11.6759 10.9925 11.7237C10.9392 11.7355 10.8874 11.7532 10.8379 11.7764L8.7175 12.6707C8.51904 12.753 8.34704 12.8889 8.22044 13.0632C8.09385 13.2375 8.01757 13.4436 8 13.6587C8 13.688 8 13.7173 8 13.7466V26.2539C8 26.2833 8 26.3126 8 26.3419C8.01757 26.557 8.09385 26.7631 8.22044 26.9374C8.34704 27.1117 8.51904 27.2476 8.7175 27.3299L10.8379 28.2095C10.8874 28.2327 10.9392 28.2504 10.9925 28.2623C11.1745 28.31 11.3653 28.3129 11.5487 28.2705C11.732 28.2281 11.9024 28.1418 12.0454 28.0189L12.5208 27.6231L17.9517 23.1491L27.25 33.4868C27.4818 33.7194 27.7738 33.8819 28.0929 33.9559ZM29 14.0428L21.7696 20.0003L29 25.9578V14.0428ZM11.5 15.9749L15.1196 20.0003L11.5 24.0257V15.9749Z" fill="url(#paint1_linear_1_56)"/>
</g>
</g>
<g filter="url(#filter1_d_1_56)">
<path d="M44.4041 26.5007H42.424L46.8732 14.1371H49.0284L53.4776 26.5007H51.4975L48.0021 16.3828H47.9055L44.4041 26.5007ZM44.7361 21.6591H51.1594V23.2287H44.7361V21.6591ZM61.8886 17.228L58.526 26.5007H56.5942L53.2256 17.228H55.1634L57.5118 24.3636H57.6084L59.9507 17.228H61.8886ZM66.0178 26.706C65.4302 26.706 64.899 26.5973 64.4241 26.38C63.9492 26.1586 63.5729 25.8386 63.2952 25.4201C63.0215 25.0015 62.8846 24.4884 62.8846 23.8807C62.8846 23.3575 62.9853 22.9268 63.1865 22.5888C63.3877 22.2507 63.6594 21.9831 64.0015 21.7859C64.3436 21.5886 64.7259 21.4397 65.1485 21.3391C65.5711 21.2385 66.0017 21.162 66.4404 21.1097C66.9958 21.0453 67.4466 20.993 67.7927 20.9528C68.1388 20.9085 68.3903 20.8381 68.5473 20.7415C68.7042 20.6449 68.7827 20.4879 68.7827 20.2706V20.2283C68.7827 19.7011 68.6338 19.2926 68.336 19.0028C68.0422 18.7131 67.6035 18.5682 67.0199 18.5682C66.4122 18.5682 65.9333 18.703 65.5832 18.9726C65.237 19.2383 64.9976 19.5341 64.8648 19.8601L63.1684 19.4737C63.3696 18.9103 63.6634 18.4555 64.0498 18.1094C64.4402 17.7592 64.8889 17.5057 65.396 17.3487C65.9031 17.1877 66.4364 17.1072 66.9958 17.1072C67.3661 17.1072 67.7585 17.1515 68.173 17.24C68.5916 17.3246 68.9819 17.4815 69.3442 17.7109C69.7104 17.9403 70.0102 18.2683 70.2437 18.6949C70.4771 19.1175 70.5938 19.6669 70.5938 20.343V26.5007H68.831V25.2329H68.7586C68.6419 25.4664 68.4668 25.6958 68.2334 25.9212C67.9999 26.1465 67.7001 26.3337 67.3339 26.4826C66.9676 26.6315 66.5289 26.706 66.0178 26.706ZM66.4102 25.2571C66.9093 25.2571 67.3359 25.1585 67.69 24.9613C68.0482 24.7641 68.3199 24.5065 68.505 24.1886C68.6942 23.8666 68.7888 23.5225 68.7888 23.1562V21.9609C68.7244 22.0253 68.5996 22.0857 68.4145 22.142C68.2334 22.1944 68.0261 22.2406 67.7927 22.2809C67.5592 22.3171 67.3319 22.3513 67.1105 22.3835C66.8891 22.4117 66.704 22.4358 66.5551 22.456C66.205 22.5002 65.885 22.5747 65.5952 22.6793C65.3095 22.784 65.0801 22.9349 64.907 23.1321C64.738 23.3253 64.6535 23.5828 64.6535 23.9048C64.6535 24.3515 64.8185 24.6896 65.1485 24.919C65.4785 25.1444 65.8991 25.2571 66.4102 25.2571ZM72.998 26.5007V17.228H74.8031V26.5007H72.998ZM73.9096 15.7972C73.5957 15.7972 73.326 15.6926 73.1006 15.4833C72.8793 15.27 72.7686 15.0164 72.7686 14.7226C72.7686 14.4248 72.8793 14.1713 73.1006 13.962C73.326 13.7487 73.5957 13.642 73.9096 13.642C74.2235 13.642 74.4911 13.7487 74.7125 13.962C74.9379 14.1713 75.0506 14.4248 75.0506 14.7226C75.0506 15.0164 74.9379 15.27 74.7125 15.4833C74.4911 15.6926 74.2235 15.7972 73.9096 15.7972ZM79.0365 14.1371V26.5007H77.2314V14.1371H79.0365ZM84.1633 26.706C83.5757 26.706 83.0445 26.5973 82.5696 26.38C82.0947 26.1586 81.7184 25.8386 81.4407 25.4201C81.167 25.0015 81.0301 24.4884 81.0301 23.8807C81.0301 23.3575 81.1308 22.9268 81.332 22.5888C81.5332 22.2507 81.8049 21.9831 82.147 21.7859C82.4891 21.5886 82.8714 21.4397 83.294 21.3391C83.7166 21.2385 84.1472 21.162 84.5859 21.1097C85.1413 21.0453 85.5921 20.993 85.9382 20.9528C86.2843 20.9085 86.5358 20.8381 86.6928 20.7415C86.8497 20.6449 86.9282 20.4879 86.9282 20.2706V20.2283C86.9282 19.7011 86.7793 19.2926 86.4815 19.0028C86.1877 18.7131 85.749 18.5682 85.1654 18.5682C84.5577 18.5682 84.0788 18.703 83.7287 18.9726C83.3825 19.2383 83.1431 19.5341 83.0103 19.8601L81.3139 19.4737C81.5151 18.9103 81.8089 18.4555 82.1953 18.1094C82.5857 17.7592 83.0344 17.5057 83.5415 17.3487C84.0486 17.1877 84.5819 17.1072 85.1413 17.1072C85.5116 17.1072 85.904 17.1515 86.3185 17.24C86.7371 17.3246 87.1274 17.4815 87.4897 17.7109C87.8559 17.9403 88.1557 18.2683 88.3892 18.6949C88.6226 19.1175 88.7393 19.6669 88.7393 20.343V26.5007H86.9765V25.2329H86.9041C86.7874 25.4664 86.6123 25.6958 86.3789 25.9212C86.1454 26.1465 85.8456 26.3337 85.4794 26.4826C85.1131 26.6315 84.6744 26.706 84.1633 26.706ZM84.5557 25.2571C85.0548 25.2571 85.4814 25.1585 85.8355 24.9613C86.1937 24.7641 86.4654 24.5065 86.6505 24.1886C86.8397 23.8666 86.9343 23.5225 86.9343 23.1562V21.9609C86.8699 22.0253 86.7451 22.0857 86.56 22.142C86.3789 22.1944 86.1716 22.2406 85.9382 22.2809C85.7047 22.3171 85.4774 22.3513 85.256 22.3835C85.0346 22.4117 84.8495 22.4358 84.7006 22.456C84.3505 22.5002 84.0305 22.5747 83.7407 22.6793C83.455 22.784 83.2256 22.9349 83.0525 23.1321C82.8835 23.3253 82.799 23.5828 82.799 23.9048C82.799 24.3515 82.964 24.6896 83.294 24.919C83.624 25.1444 84.0446 25.2571 84.5557 25.2571ZM91.2884 26.5007V14.1371H93.0934V18.7312H93.2021C93.3067 18.538 93.4577 18.3146 93.6549 18.0611C93.8521 17.8075 94.1258 17.5862 94.4759 17.397C94.826 17.2038 95.2889 17.1072 95.8644 17.1072C96.613 17.1072 97.2811 17.2964 97.8687 17.6747C98.4563 18.053 98.9171 18.5984 99.2511 19.3107C99.5892 20.0231 99.7582 20.8803 99.7582 21.8824C99.7582 22.8846 99.5912 23.7438 99.2571 24.4602C98.9231 25.1726 98.4643 25.7219 97.8807 26.1083C97.2972 26.4906 96.6311 26.6818 95.8825 26.6818C95.3191 26.6818 94.8582 26.5872 94.5 26.3981C94.1459 26.2089 93.8682 25.9876 93.667 25.734C93.4657 25.4805 93.3108 25.2551 93.2021 25.0579H93.0512V26.5007H91.2884ZM93.0572 21.8643C93.0572 22.5163 93.1518 23.0878 93.341 23.5788C93.5301 24.0698 93.8038 24.4542 94.162 24.7319C94.5202 25.0056 94.9589 25.1424 95.478 25.1424C96.0173 25.1424 96.4681 24.9995 96.8303 24.7138C97.1925 24.424 97.4662 24.0316 97.6513 23.5366C97.8405 23.0415 97.9351 22.4841 97.9351 21.8643C97.9351 21.2526 97.8425 20.7032 97.6574 20.2163C97.4763 19.7293 97.2026 19.3449 96.8363 19.0632C96.4741 18.7815 96.0214 18.6406 95.478 18.6406C94.9548 18.6406 94.5121 18.7754 94.1499 19.0451C93.7917 19.3147 93.5201 19.691 93.3349 20.174C93.1498 20.6569 93.0572 21.2204 93.0572 21.8643ZM103.59 14.1371V26.5007H101.785V14.1371H103.59ZM110.015 26.6878C109.101 26.6878 108.315 26.4926 107.655 26.1023C106.999 25.7078 106.491 25.1545 106.133 24.4421C105.779 23.7257 105.602 22.8866 105.602 21.9247C105.602 20.9749 105.779 20.1378 106.133 19.4133C106.491 18.6889 106.99 18.1234 107.63 17.717C108.274 17.3105 109.027 17.1072 109.888 17.1072C110.411 17.1072 110.918 17.1938 111.409 17.3668C111.9 17.5399 112.341 17.8115 112.732 18.1818C113.122 18.5521 113.43 19.033 113.655 19.6246C113.881 20.2122 113.993 20.9266 113.993 21.7677V22.4077H106.622V21.0554H112.224C112.224 20.5805 112.128 20.1599 111.935 19.7937C111.742 19.4234 111.47 19.1316 111.12 18.9183C110.774 18.705 110.367 18.5984 109.9 18.5984C109.393 18.5984 108.95 18.7231 108.572 18.9726C108.198 19.2181 107.908 19.5401 107.703 19.9386C107.502 20.333 107.401 20.7616 107.401 21.2244V22.2809C107.401 22.9007 107.51 23.4279 107.727 23.8626C107.948 24.2972 108.256 24.6292 108.651 24.8587C109.045 25.084 109.506 25.1967 110.033 25.1967C110.375 25.1967 110.687 25.1484 110.969 25.0518C111.251 24.9512 111.494 24.8023 111.699 24.6051C111.905 24.4079 112.061 24.1644 112.17 23.8746L113.879 24.1825C113.742 24.6856 113.496 25.1263 113.142 25.5046C112.792 25.8789 112.351 26.1707 111.82 26.38C111.293 26.5852 110.691 26.6878 110.015 26.6878ZM124.401 26.6878C123.532 26.6878 122.773 26.4886 122.125 26.0902C121.477 25.6917 120.974 25.1343 120.616 24.418C120.258 23.7016 120.079 22.8645 120.079 21.9066C120.079 20.9447 120.258 20.1036 120.616 19.3832C120.974 18.6627 121.477 18.1033 122.125 17.7049C122.773 17.3065 123.532 17.1072 124.401 17.1072C125.27 17.1072 126.029 17.3065 126.677 17.7049C127.325 18.1033 127.828 18.6627 128.186 19.3832C128.544 20.1036 128.723 20.9447 128.723 21.9066C128.723 22.8645 128.544 23.7016 128.186 24.418C127.828 25.1343 127.325 25.6917 126.677 26.0902C126.029 26.4886 125.27 26.6878 124.401 26.6878ZM124.407 25.1726C124.97 25.1726 125.437 25.0237 125.808 24.7258C126.178 24.428 126.452 24.0316 126.629 23.5366C126.81 23.0415 126.9 22.4962 126.9 21.9006C126.9 21.3089 126.81 20.7656 126.629 20.2706C126.452 19.7715 126.178 19.3711 125.808 19.0692C125.437 18.7674 124.97 18.6165 124.407 18.6165C123.84 18.6165 123.369 18.7674 122.994 19.0692C122.624 19.3711 122.348 19.7715 122.167 20.2706C121.99 20.7656 121.902 21.3089 121.902 21.9006C121.902 22.4962 121.99 23.0415 122.167 23.5366C122.348 24.0316 122.624 24.428 122.994 24.7258C123.369 25.0237 123.84 25.1726 124.407 25.1726ZM132.543 20.995V26.5007H130.738V17.228H132.471V18.7372H132.586C132.799 18.2462 133.133 17.8518 133.588 17.554C134.046 17.2561 134.624 17.1072 135.32 17.1072C135.952 17.1072 136.506 17.24 136.98 17.5057C137.455 17.7673 137.824 18.1577 138.085 18.6768C138.347 19.196 138.478 19.8379 138.478 20.6026V26.5007H136.673V20.8199C136.673 20.1478 136.497 19.6226 136.147 19.2443C135.797 18.862 135.316 18.6708 134.704 18.6708C134.286 18.6708 133.914 18.7614 133.588 18.9425C133.266 19.1236 133.01 19.3892 132.821 19.7393C132.636 20.0855 132.543 20.504 132.543 20.995Z" fill="#E8E8E8"/>
<path d="M147.744 13.6371L150.509 22.6925H150.612L153.377 13.6371H156.721L152.55 26.0007H148.571L144.4 13.6371H147.744ZM158.052 26.0007V16.728H161.004V26.0007H158.052ZM159.531 15.6474C159.117 15.6474 158.761 15.5105 158.463 15.2369C158.165 14.9592 158.016 14.6251 158.016 14.2347C158.016 13.8484 158.165 13.5183 158.463 13.2447C158.761 12.967 159.117 12.8281 159.531 12.8281C159.95 12.8281 160.306 12.967 160.6 13.2447C160.898 13.5183 161.047 13.8484 161.047 14.2347C161.047 14.6251 160.898 14.9592 160.6 15.2369C160.306 15.5105 159.95 15.6474 159.531 15.6474ZM170.979 19.5593L168.268 19.6317C168.24 19.4386 168.164 19.2675 168.039 19.1186C167.914 18.9657 167.751 18.8469 167.55 18.7624C167.353 18.6739 167.123 18.6296 166.862 18.6296C166.52 18.6296 166.228 18.698 165.986 18.8349C165.749 18.9717 165.632 19.1568 165.636 19.3903C165.632 19.5714 165.705 19.7283 165.854 19.8611C166.006 19.994 166.278 20.1006 166.669 20.1811L168.455 20.5192C169.381 20.6962 170.069 20.99 170.52 21.4006C170.975 21.8111 171.204 22.3544 171.208 23.0305C171.204 23.6664 171.015 24.2198 170.641 24.6907C170.271 25.1616 169.763 25.5278 169.12 25.7894C168.476 26.047 167.739 26.1758 166.91 26.1758C165.586 26.1758 164.542 25.9041 163.777 25.3608C163.016 24.8134 162.582 24.081 162.473 23.1633L165.389 23.0909C165.453 23.429 165.62 23.6865 165.89 23.8636C166.159 24.0407 166.504 24.1292 166.922 24.1292C167.3 24.1292 167.608 24.0588 167.846 23.918C168.083 23.7771 168.204 23.5899 168.208 23.3565C168.204 23.1472 168.111 22.9802 167.93 22.8555C167.749 22.7267 167.465 22.6261 167.079 22.5536L165.461 22.2457C164.531 22.0767 163.839 21.7648 163.384 21.31C162.93 20.8512 162.704 20.2676 162.708 19.5593C162.704 18.9395 162.869 18.4103 163.203 17.9716C163.537 17.5289 164.012 17.1908 164.628 16.9574C165.244 16.7239 165.97 16.6072 166.807 16.6072C168.063 16.6072 169.053 16.8708 169.778 17.3981C170.502 17.9213 170.902 18.6417 170.979 19.5593ZM178.644 21.9982V16.728H181.59V26.0007H178.777V24.2741H178.681C178.475 24.8416 178.125 25.2924 177.63 25.6264C177.139 25.9564 176.545 26.1214 175.849 26.1214C175.217 26.1214 174.662 25.9765 174.183 25.6868C173.704 25.397 173.332 24.9925 173.066 24.4734C172.801 23.9502 172.666 23.3384 172.662 22.6381V16.728H175.614V22.0586C175.618 22.5617 175.751 22.9581 176.012 23.2479C176.274 23.5376 176.63 23.6825 177.081 23.6825C177.375 23.6825 177.638 23.6181 177.872 23.4893C178.109 23.3565 178.296 23.1654 178.433 22.9158C178.574 22.6623 178.644 22.3564 178.644 21.9982ZM186.083 26.1577C185.492 26.1577 184.966 26.0591 184.508 25.8618C184.053 25.6606 183.693 25.3588 183.427 24.9563C183.165 24.5498 183.035 24.0407 183.035 23.429C183.035 22.9138 183.125 22.4792 183.306 22.125C183.487 21.7708 183.737 21.4831 184.055 21.2617C184.373 21.0404 184.739 20.8733 185.154 20.7606C185.568 20.6439 186.011 20.5654 186.482 20.5252C187.009 20.4769 187.434 20.4266 187.756 20.3743C188.078 20.3179 188.311 20.2395 188.456 20.1388C188.605 20.0342 188.679 19.8873 188.679 19.6981V19.668C188.679 19.3581 188.573 19.1186 188.359 18.9496C188.146 18.7805 187.858 18.696 187.496 18.696C187.106 18.696 186.792 18.7805 186.554 18.9496C186.317 19.1186 186.166 19.352 186.101 19.6498L183.379 19.5533C183.459 18.9898 183.667 18.4867 184.001 18.044C184.339 17.5973 184.801 17.2471 185.389 16.9936C185.981 16.736 186.691 16.6072 187.52 16.6072C188.112 16.6072 188.657 16.6777 189.156 16.8185C189.655 16.9554 190.09 17.1566 190.46 17.4222C190.83 17.6838 191.116 18.0058 191.317 18.3881C191.523 18.7705 191.625 19.2071 191.625 19.6981V26.0007H188.848V24.7088H188.776C188.611 25.0227 188.399 25.2883 188.142 25.5057C187.888 25.723 187.589 25.886 187.242 25.9947C186.9 26.1033 186.514 26.1577 186.083 26.1577ZM186.995 24.2258C187.313 24.2258 187.599 24.1614 187.852 24.0327C188.11 23.9039 188.315 23.7268 188.468 23.5014C188.621 23.272 188.697 23.0064 188.697 22.7045V21.8231C188.613 21.8674 188.51 21.9077 188.389 21.9439C188.273 21.9801 188.144 22.0143 188.003 22.0465C187.862 22.0787 187.717 22.1069 187.568 22.131C187.419 22.1552 187.277 22.1773 187.14 22.1974C186.862 22.2417 186.625 22.3101 186.427 22.4027C186.234 22.4953 186.085 22.616 185.981 22.7649C185.88 22.9098 185.83 23.0828 185.83 23.2841C185.83 23.59 185.938 23.8234 186.156 23.9844C186.377 24.1453 186.657 24.2258 186.995 24.2258ZM196.382 13.6371V26.0007H193.43V13.6371H196.382ZM208.597 17.3437C208.556 16.901 208.377 16.5569 208.059 16.3114C207.745 16.0619 207.297 15.9371 206.713 15.9371C206.327 15.9371 206.005 15.9874 205.747 16.0881C205.49 16.1887 205.296 16.3275 205.168 16.5046C205.039 16.6777 204.972 16.8769 204.968 17.1023C204.96 17.2874 204.997 17.4504 205.077 17.5913C205.162 17.7321 205.282 17.8569 205.439 17.9655C205.6 18.0702 205.793 18.1627 206.019 18.2432C206.244 18.3237 206.498 18.3942 206.779 18.4545L207.842 18.696C208.454 18.8288 208.993 19.0059 209.46 19.2273C209.931 19.4486 210.325 19.7122 210.643 20.0181C210.965 20.324 211.209 20.6761 211.374 21.0746C211.539 21.473 211.623 21.9197 211.627 22.4148C211.623 23.1955 211.426 23.8656 211.035 24.4251C210.645 24.9845 210.084 25.4131 209.351 25.7109C208.623 26.0087 207.743 26.1577 206.713 26.1577C205.679 26.1577 204.777 26.0027 204.008 25.6928C203.24 25.3829 202.642 24.912 202.215 24.2802C201.789 23.6483 201.57 22.8494 201.557 21.8835H204.419C204.443 22.2819 204.55 22.614 204.739 22.8796C204.928 23.1452 205.188 23.3465 205.518 23.4833C205.852 23.6201 206.238 23.6886 206.677 23.6886C207.079 23.6886 207.421 23.6342 207.703 23.5256C207.989 23.4169 208.208 23.266 208.361 23.0728C208.514 22.8796 208.593 22.6583 208.597 22.4087C208.593 22.1753 208.52 21.9761 208.379 21.8111C208.238 21.642 208.021 21.4971 207.727 21.3764C207.437 21.2516 207.067 21.1369 206.616 21.0323L205.325 20.7305C204.254 20.485 203.411 20.0885 202.795 19.5412C202.179 18.9898 201.873 18.2453 201.877 17.3075C201.873 16.5428 202.079 15.8727 202.493 15.2972C202.908 14.7217 203.481 14.273 204.214 13.951C204.946 13.629 205.781 13.468 206.719 13.468C207.677 13.468 208.508 13.631 209.212 13.957C209.921 14.279 210.47 14.7318 210.86 15.3153C211.251 15.8989 211.45 16.575 211.458 17.3437H208.597ZM218.37 16.728V18.9013H212.521V16.728H218.37ZM213.746 14.5064H216.698V23.0849C216.698 23.266 216.726 23.4129 216.783 23.5256C216.843 23.6342 216.93 23.7127 217.042 23.761C217.155 23.8053 217.29 23.8274 217.447 23.8274C217.559 23.8274 217.678 23.8173 217.803 23.7972C217.932 23.7731 218.028 23.7529 218.093 23.7368L218.539 25.8679C218.398 25.9081 218.199 25.9584 217.942 26.0188C217.688 26.0792 217.384 26.1174 217.03 26.1335C216.338 26.1657 215.744 26.0852 215.249 25.892C214.758 25.6948 214.382 25.389 214.12 24.9744C213.863 24.5599 213.738 24.0387 213.746 23.4109V14.5064ZM225.859 21.9982V16.728H228.805V26.0007H225.992V24.2741H225.895C225.69 24.8416 225.34 25.2924 224.845 25.6264C224.354 25.9564 223.76 26.1214 223.064 26.1214C222.432 26.1214 221.877 25.9765 221.398 25.6868C220.919 25.397 220.547 24.9925 220.281 24.4734C220.015 23.9502 219.881 23.3384 219.877 22.6381V16.728H222.829V22.0586C222.833 22.5617 222.965 22.9581 223.227 23.2479C223.489 23.5376 223.845 23.6825 224.296 23.6825C224.589 23.6825 224.853 23.6181 225.086 23.4893C225.324 23.3565 225.511 23.1654 225.648 22.9158C225.789 22.6623 225.859 22.3564 225.859 21.9982ZM234.071 26.1335C233.387 26.1335 232.765 25.9564 232.205 25.6023C231.646 25.2481 231.199 24.7168 230.865 24.0085C230.531 23.3002 230.364 22.4208 230.364 21.3704C230.364 20.2797 230.537 19.3822 230.883 18.6779C231.229 17.9736 231.682 17.4524 232.242 17.1143C232.805 16.7763 233.411 16.6072 234.059 16.6072C234.546 16.6072 234.962 16.6918 235.308 16.8608C235.655 17.0258 235.94 17.2391 236.166 17.5007C236.391 17.7623 236.562 18.034 236.679 18.3157H236.739V13.6371H239.691V26.0007H236.769V24.4975H236.679C236.554 24.7832 236.377 25.0509 236.148 25.3004C235.918 25.5499 235.63 25.7512 235.284 25.9041C234.942 26.057 234.538 26.1335 234.071 26.1335ZM235.097 23.8334C235.455 23.8334 235.761 23.7328 236.015 23.5316C236.268 23.3263 236.463 23.0386 236.6 22.6683C236.737 22.298 236.806 21.8634 236.806 21.3643C236.806 20.8572 236.737 20.4206 236.6 20.0543C236.468 19.6881 236.272 19.4064 236.015 19.2092C235.761 19.0119 235.455 18.9133 235.097 18.9133C234.731 18.9133 234.421 19.014 234.167 19.2152C233.914 19.4164 233.721 19.7002 233.588 20.0664C233.459 20.4326 233.395 20.8653 233.395 21.3643C233.395 21.8634 233.461 22.298 233.594 22.6683C233.727 23.0386 233.918 23.3263 234.167 23.5316C234.421 23.7328 234.731 23.8334 235.097 23.8334ZM241.558 26.0007V16.728H244.51V26.0007H241.558ZM243.037 15.6474C242.623 15.6474 242.266 15.5105 241.969 15.2369C241.671 14.9592 241.522 14.6251 241.522 14.2347C241.522 13.8484 241.671 13.5183 241.969 13.2447C242.266 12.967 242.623 12.8281 243.037 12.8281C243.456 12.8281 243.812 12.967 244.106 13.2447C244.404 13.5183 244.552 13.8484 244.552 14.2347C244.552 14.6251 244.404 14.9592 244.106 15.2369C243.812 15.5105 243.456 15.6474 243.037 15.6474ZM250.718 26.1758C249.744 26.1758 248.907 25.9765 248.206 25.5781C247.51 25.1757 246.973 24.6162 246.594 23.8998C246.22 23.1794 246.033 22.3443 246.033 21.3945C246.033 20.4407 246.22 19.6056 246.594 18.8892C246.973 18.1688 247.51 17.6094 248.206 17.2109C248.907 16.8085 249.744 16.6072 250.718 16.6072C251.692 16.6072 252.527 16.8085 253.223 17.2109C253.923 17.6094 254.461 18.1688 254.835 18.8892C255.213 19.6056 255.402 20.4407 255.402 21.3945C255.402 22.3443 255.213 23.1794 254.835 23.8998C254.461 24.6162 253.923 25.1757 253.223 25.5781C252.527 25.9765 251.692 26.1758 250.718 26.1758ZM250.736 23.9481C251.09 23.9481 251.39 23.8395 251.635 23.6221C251.881 23.4048 252.068 23.103 252.197 22.7166C252.33 22.3302 252.396 21.8835 252.396 21.3764C252.396 20.8613 252.33 20.4105 252.197 20.0241C252.068 19.6378 251.881 19.3359 251.635 19.1186C251.39 18.9013 251.09 18.7926 250.736 18.7926C250.37 18.7926 250.06 18.9013 249.806 19.1186C249.557 19.3359 249.365 19.6378 249.233 20.0241C249.104 20.4105 249.039 20.8613 249.039 21.3764C249.039 21.8835 249.104 22.3302 249.233 22.7166C249.365 23.103 249.557 23.4048 249.806 23.6221C250.06 23.8395 250.37 23.9481 250.736 23.9481ZM260.567 13.6371H264.268L267.407 21.2919H267.552L270.691 13.6371H274.392V26.0007H271.482V18.4062H271.379L268.409 25.9222H266.55L263.579 18.364H263.477V26.0007H260.567V13.6371ZM278.869 26.1577C278.278 26.1577 277.753 26.0591 277.294 25.8618C276.839 25.6606 276.479 25.3588 276.213 24.9563C275.952 24.5498 275.821 24.0407 275.821 23.429C275.821 22.9138 275.911 22.4792 276.092 22.125C276.274 21.7708 276.523 21.4831 276.841 21.2617C277.159 21.0404 277.525 20.8733 277.94 20.7606C278.354 20.6439 278.797 20.5654 279.268 20.5252C279.795 20.4769 280.22 20.4266 280.542 20.3743C280.864 20.3179 281.097 20.2395 281.242 20.1388C281.391 20.0342 281.465 19.8873 281.465 19.6981V19.668C281.465 19.3581 281.359 19.1186 281.145 18.9496C280.932 18.7805 280.644 18.696 280.282 18.696C279.892 18.696 279.578 18.7805 279.34 18.9496C279.103 19.1186 278.952 19.352 278.888 19.6498L276.165 19.5533C276.245 18.9898 276.453 18.4867 276.787 18.044C277.125 17.5973 277.588 17.2471 278.175 16.9936C278.767 16.736 279.477 16.6072 280.306 16.6072C280.898 16.6072 281.443 16.6777 281.942 16.8185C282.441 16.9554 282.876 17.1566 283.246 17.4222C283.616 17.6838 283.902 18.0058 284.103 18.3881C284.309 18.7705 284.411 19.2071 284.411 19.6981V26.0007H281.634V24.7088H281.562C281.397 25.0227 281.186 25.2883 280.928 25.5057C280.674 25.723 280.375 25.886 280.028 25.9947C279.686 26.1033 279.3 26.1577 278.869 26.1577ZM279.781 24.2258C280.099 24.2258 280.385 24.1614 280.638 24.0327C280.896 23.9039 281.101 23.7268 281.254 23.5014C281.407 23.272 281.483 23.0064 281.483 22.7045V21.8231C281.399 21.8674 281.296 21.9077 281.176 21.9439C281.059 21.9801 280.93 22.0143 280.789 22.0465C280.648 22.0787 280.503 22.1069 280.354 22.131C280.206 22.1552 280.063 22.1773 279.926 22.1974C279.648 22.2417 279.411 22.3101 279.214 22.4027C279.02 22.4953 278.871 22.616 278.767 22.7649C278.666 22.9098 278.616 23.0828 278.616 23.2841C278.616 23.59 278.725 23.8234 278.942 23.9844C279.163 24.1453 279.443 24.2258 279.781 24.2258ZM286.216 26.0007V16.728H289.084V18.4183H289.18C289.35 17.8066 289.625 17.3518 290.008 17.054C290.39 16.7521 290.835 16.6012 291.342 16.6012C291.479 16.6012 291.619 16.6113 291.764 16.6314C291.909 16.6475 292.044 16.6736 292.169 16.7099V19.2756C292.028 19.2273 291.843 19.189 291.613 19.1609C291.388 19.1327 291.187 19.1186 291.01 19.1186C290.66 19.1186 290.344 19.1971 290.062 19.354C289.784 19.507 289.565 19.7223 289.404 20C289.247 20.2737 289.168 20.5956 289.168 20.9659V26.0007H286.216ZM296.034 23.5678L296.046 20.0483H296.456L299.064 16.728H302.409L298.533 21.4851H297.754L296.034 23.5678ZM293.372 26.0007V13.6371H296.324V26.0007H293.372ZM299.131 26.0007L296.704 22.1491L298.648 20.0543L302.542 26.0007H299.131ZM307.418 26.1758C306.448 26.1758 305.611 25.9846 304.907 25.6023C304.206 25.2159 303.667 24.6665 303.289 23.9542C302.915 23.2378 302.727 22.3866 302.727 21.4006C302.727 20.4427 302.917 19.6056 303.295 18.8892C303.673 18.1688 304.206 17.6094 304.895 17.2109C305.583 16.8085 306.394 16.6072 307.327 16.6072C307.988 16.6072 308.591 16.7099 309.139 16.9151C309.686 17.1204 310.159 17.4242 310.557 17.8267C310.956 18.2292 311.266 18.7262 311.487 19.3178C311.708 19.9054 311.819 20.5795 311.819 21.3402V22.0767H303.76V20.3622H309.072C309.068 20.0483 308.994 19.7686 308.849 19.5231C308.704 19.2776 308.505 19.0864 308.251 18.9496C308.002 18.8087 307.714 18.7383 307.388 18.7383C307.058 18.7383 306.762 18.8127 306.5 18.9616C306.239 19.1065 306.032 19.3057 305.879 19.5593C305.726 19.8088 305.645 20.0926 305.637 20.4105V22.1552C305.637 22.5335 305.712 22.8655 305.861 23.1513C306.009 23.433 306.221 23.6523 306.494 23.8093C306.768 23.9663 307.094 24.0447 307.472 24.0447C307.734 24.0447 307.971 24.0085 308.185 23.9361C308.398 23.8636 308.581 23.757 308.734 23.6161C308.887 23.4752 309.002 23.3022 309.078 23.0969L311.789 23.1754C311.676 23.7831 311.429 24.3124 311.046 24.7631C310.668 25.2099 310.171 25.558 309.555 25.8075C308.939 26.053 308.227 26.1758 307.418 26.1758ZM318.561 16.728V18.9013H312.711V16.728H318.561ZM313.936 14.5064H316.888V23.0849C316.888 23.266 316.917 23.4129 316.973 23.5256C317.033 23.6342 317.12 23.7127 317.233 23.761C317.345 23.8053 317.48 23.8274 317.637 23.8274C317.75 23.8274 317.868 23.8173 317.993 23.7972C318.122 23.7731 318.219 23.7529 318.283 23.7368L318.73 25.8679C318.589 25.9081 318.39 25.9584 318.132 26.0188C317.879 26.0792 317.575 26.1174 317.221 26.1335C316.528 26.1657 315.935 26.0852 315.44 25.892C314.949 25.6948 314.572 25.389 314.311 24.9744C314.053 24.5599 313.928 24.0387 313.936 23.4109V14.5064ZM320.067 29.478V16.728H322.989V18.3157H323.079C323.2 18.034 323.371 17.7623 323.592 17.5007C323.818 17.2391 324.104 17.0258 324.45 16.8608C324.8 16.6918 325.218 16.6072 325.705 16.6072C326.349 16.6072 326.951 16.7763 327.51 17.1143C328.074 17.4524 328.529 17.9736 328.875 18.6779C329.221 19.3822 329.394 20.2797 329.394 21.3704C329.394 22.4208 329.227 23.3002 328.893 24.0085C328.563 24.7168 328.116 25.2481 327.553 25.6023C326.993 25.9564 326.371 26.1335 325.687 26.1335C325.22 26.1335 324.816 26.057 324.474 25.9041C324.132 25.7512 323.844 25.5499 323.611 25.3004C323.381 25.0509 323.204 24.7832 323.079 24.4975H323.019V29.478H320.067ZM322.959 21.3643C322.959 21.8634 323.025 22.298 323.158 22.6683C323.295 23.0386 323.49 23.3263 323.743 23.5316C324.001 23.7328 324.309 23.8334 324.667 23.8334C325.029 23.8334 325.337 23.7328 325.591 23.5316C325.844 23.3263 326.035 23.0386 326.164 22.6683C326.297 22.298 326.363 21.8634 326.363 21.3643C326.363 20.8653 326.297 20.4326 326.164 20.0664C326.035 19.7002 325.844 19.4164 325.591 19.2152C325.341 19.014 325.033 18.9133 324.667 18.9133C324.305 18.9133 323.997 19.0119 323.743 19.2092C323.49 19.4064 323.295 19.6881 323.158 20.0543C323.025 20.4206 322.959 20.8572 322.959 21.3643ZM333.893 13.6371V26.0007H330.941V13.6371H333.893ZM338.386 26.1577C337.794 26.1577 337.269 26.0591 336.81 25.8618C336.356 25.6606 335.995 25.3588 335.73 24.9563C335.468 24.5498 335.337 24.0407 335.337 23.429C335.337 22.9138 335.428 22.4792 335.609 22.125C335.79 21.7708 336.04 21.4831 336.358 21.2617C336.676 21.0404 337.042 20.8733 337.456 20.7606C337.871 20.6439 338.314 20.5654 338.784 20.5252C339.312 20.4769 339.736 20.4266 340.058 20.3743C340.38 20.3179 340.614 20.2395 340.759 20.1388C340.907 20.0342 340.982 19.8873 340.982 19.6981V19.668C340.982 19.3581 340.875 19.1186 340.662 18.9496C340.449 18.7805 340.161 18.696 339.799 18.696C339.408 18.696 339.094 18.7805 338.857 18.9496C338.619 19.1186 338.468 19.352 338.404 19.6498L335.681 19.5533C335.762 18.9898 335.969 18.4867 336.303 18.044C336.641 17.5973 337.104 17.2471 337.692 16.9936C338.283 16.736 338.994 16.6072 339.823 16.6072C340.414 16.6072 340.96 16.6777 341.459 16.8185C341.958 16.9554 342.393 17.1566 342.763 17.4222C343.133 17.6838 343.419 18.0058 343.62 18.3881C343.825 18.7705 343.928 19.2071 343.928 19.6981V26.0007H341.151V24.7088H341.078C340.913 25.0227 340.702 25.2883 340.445 25.5057C340.191 25.723 339.891 25.886 339.545 25.9947C339.203 26.1033 338.817 26.1577 338.386 26.1577ZM339.298 24.2258C339.616 24.2258 339.901 24.1614 340.155 24.0327C340.412 23.9039 340.618 23.7268 340.771 23.5014C340.924 23.272 341 23.0064 341 22.7045V21.8231C340.915 21.8674 340.813 21.9077 340.692 21.9439C340.575 21.9801 340.447 22.0143 340.306 22.0465C340.165 22.0787 340.02 22.1069 339.871 22.131C339.722 22.1552 339.579 22.1773 339.442 22.1974C339.165 22.2417 338.927 22.3101 338.73 22.4027C338.537 22.4953 338.388 22.616 338.283 22.7649C338.183 22.9098 338.132 23.0828 338.132 23.2841C338.132 23.59 338.241 23.8234 338.458 23.9844C338.68 24.1453 338.96 24.2258 339.298 24.2258ZM350.061 26.1758C349.083 26.1758 348.244 25.9745 347.544 25.5721C346.848 25.1696 346.312 24.6102 345.938 23.8938C345.564 23.1734 345.377 22.3403 345.377 21.3945C345.377 20.4447 345.564 19.6116 345.938 18.8952C346.317 18.1748 346.854 17.6134 347.55 17.2109C348.25 16.8085 349.085 16.6072 350.055 16.6072C350.913 16.6072 351.659 16.7622 352.295 17.0721C352.935 17.382 353.434 17.8207 353.792 18.3881C354.154 18.9516 354.346 19.6136 354.366 20.3743H351.607C351.551 19.8994 351.39 19.5271 351.124 19.2574C350.862 18.9878 350.52 18.853 350.098 18.853C349.756 18.853 349.456 18.9496 349.198 19.1427C348.941 19.3319 348.739 19.6136 348.594 19.9879C348.454 20.3582 348.383 20.817 348.383 21.3643C348.383 21.9117 348.454 22.3745 348.594 22.7528C348.739 23.1271 348.941 23.4109 349.198 23.604C349.456 23.7932 349.756 23.8878 350.098 23.8878C350.371 23.8878 350.613 23.8294 350.822 23.7127C351.035 23.596 351.21 23.4249 351.347 23.1996C351.484 22.9702 351.571 22.6925 351.607 22.3665H354.366C354.338 23.1311 354.146 23.7992 353.792 24.3707C353.442 24.9422 352.949 25.3869 352.313 25.7049C351.681 26.0188 350.931 26.1758 350.061 26.1758ZM360.211 26.1758C359.241 26.1758 358.404 25.9846 357.7 25.6023C356.999 25.2159 356.46 24.6665 356.082 23.9542C355.707 23.2378 355.52 22.3866 355.52 21.4006C355.52 20.4427 355.709 19.6056 356.088 18.8892C356.466 18.1688 356.999 17.6094 357.688 17.2109C358.376 16.8085 359.187 16.6072 360.12 16.6072C360.78 16.6072 361.384 16.7099 361.932 16.9151C362.479 17.1204 362.952 17.4242 363.35 17.8267C363.749 18.2292 364.059 18.7262 364.28 19.3178C364.501 19.9054 364.612 20.5795 364.612 21.3402V22.0767H356.553V20.3622H361.865C361.861 20.0483 361.787 19.7686 361.642 19.5231C361.497 19.2776 361.298 19.0864 361.044 18.9496C360.795 18.8087 360.507 18.7383 360.181 18.7383C359.851 18.7383 359.555 18.8127 359.293 18.9616C359.032 19.1065 358.825 19.3057 358.672 19.5593C358.519 19.8088 358.438 20.0926 358.43 20.4105V22.1552C358.43 22.5335 358.505 22.8655 358.653 23.1513C358.802 23.433 359.014 23.6523 359.287 23.8093C359.561 23.9663 359.887 24.0447 360.265 24.0447C360.527 24.0447 360.764 24.0085 360.978 23.9361C361.191 23.8636 361.374 23.757 361.527 23.6161C361.68 23.4752 361.795 23.3022 361.871 23.0969L364.582 23.1754C364.469 23.7831 364.222 24.3124 363.839 24.7631C363.461 25.2099 362.964 25.558 362.348 25.8075C361.732 26.053 361.02 26.1758 360.211 26.1758Z" fill="#B987F2"/>
</g>
<defs>
<filter id="filter0_d_1_56" x="2.39972" y="0.39972" width="39.202" height="39.202" filterUnits="userSpaceOnUse" color-interpolation-filters="sRGB">
<feFlood flood-opacity="0" result="BackgroundImageFix"/>
<feColorMatrix in="SourceAlpha" type="matrix" values="0 0 0 0 0 0 0 0 0 0 0 0 0 0 0 0 0 0 127 0" result="hardAlpha"/>
<feOffset/>
<feGaussianBlur stdDeviation="2.80014"/>
<feComposite in2="hardAlpha" operator="out"/>
<feColorMatrix type="matrix" values="0 0 0 0 0 0 0 0 0 0 0 0 0 0 0 0 0 0 0.25 0"/>
<feBlend mode="normal" in2="BackgroundImageFix" result="effect1_dropShadow_1_56"/>
<feBlend mode="normal" in="SourceGraphic" in2="effect1_dropShadow_1_56" result="shape"/>
</filter>
<filter id="filter1_d_1_56" x="36.2871" y="3.78642" width="335.428" height="32.4286" filterUnits="userSpaceOnUse" color-interpolation-filters="sRGB">
<feFlood flood-opacity="0" result="BackgroundImageFix"/>
<feColorMatrix in="SourceAlpha" type="matrix" values="0 0 0 0 0 0 0 0 0 0 0 0 0 0 0 0 0 0 127 0" result="hardAlpha"/>
<feOffset/>
<feGaussianBlur stdDeviation="2.85714"/>
<feComposite in2="hardAlpha" operator="out"/>
<feColorMatrix type="matrix" values="0 0 0 0 0 0 0 0 0 0 0 0 0 0 0 0 0 0 0.25 0"/>
<feBlend mode="normal" in2="BackgroundImageFix" result="effect1_dropShadow_1_56"/>
<feBlend mode="normal" in="SourceGraphic" in2="effect1_dropShadow_1_56" result="shape"/>
</filter>
<linearGradient id="paint0_linear_1_56" x1="187.001" y1="0" x2="187.001" y2="40.0014" gradientUnits="userSpaceOnUse">
<stop stop-color="#470E88"/>
<stop offset="1" stop-color="#28173C"/>
</linearGradient>
<linearGradient id="paint1_linear_1_56" x1="22" y1="6.00068" x2="22" y2="33.9999" gradientUnits="userSpaceOnUse">
<stop stop-color="white"/>
<stop offset="1" stop-color="white" stop-opacity="0"/>
</linearGradient>
</defs>
</svg>
