<svg width="40" height="40" viewBox="0 0 40 40" fill="none" xmlns="http://www.w3.org/2000/svg">
<rect width="40" height="40" rx="8" fill="url(#paint0_linear_1_68)"/>
<rect x="1.05" y="1.05" width="37.9" height="37.9" rx="6.95" stroke="white" stroke-opacity="0.15" stroke-width="2.1"/>
<g filter="url(#filter0_d_1_68)">
<path d="M10.0454 28.0336C9.88137 28.1745 9.68165 28.2669 9.46848 28.3005C9.25531 28.3342 9.03703 28.3077 8.83792 28.2241L6.7175 27.3299C6.50599 27.2412 6.32515 27.0919 6.19755 26.9006C6.06995 26.7092 6.00124 26.4843 6 26.2539V13.7466C6.00124 13.5163 6.06995 13.2914 6.19755 13.1C6.32515 12.9087 6.50599 12.7593 6.7175 12.6707L8.83792 11.7911C9.03703 11.7075 9.25531 11.6811 9.46848 11.7147C9.68165 11.7484 9.88137 11.8408 10.0454 11.9817L10.5208 12.3775C10.4244 12.3078 10.3107 12.2663 10.1923 12.2574C10.0739 12.2486 9.95538 12.2728 9.84978 12.3274C9.74419 12.382 9.65565 12.4648 9.59393 12.5668C9.5322 12.6687 9.4997 12.7858 9.5 12.9052V27.0954C9.4997 27.2147 9.5322 27.3319 9.59393 27.4338C9.65565 27.5358 9.74419 27.6186 9.84978 27.6732C9.95538 27.7278 10.0739 27.752 10.1923 27.7432C10.3107 27.7343 10.4244 27.6928 10.5208 27.6231L10.0454 28.0336Z" fill="#52218A"/>
<path d="M6.7175 27.3299C6.50599 27.2412 6.32515 27.0919 6.19755 26.9005C6.06995 26.7092 6.00124 26.4843 6 26.2539V26.1572C6.00144 26.2925 6.0432 26.4244 6.11989 26.5356C6.19659 26.6469 6.3047 26.7325 6.43027 26.7815C6.55584 26.8304 6.69312 26.8403 6.82438 26.8101C6.95564 26.7798 7.07486 26.7107 7.16667 26.6116L25.25 6.51375C25.5061 6.25761 25.8348 6.08741 26.1909 6.02652C26.5471 5.96563 26.9132 6.01702 27.2392 6.17366L33.0083 8.96478C33.3055 9.10841 33.5562 9.33349 33.7317 9.61412C33.9071 9.89474 34.0001 10.2195 34 10.5509V10.6183C33.9998 10.4081 33.9403 10.2022 33.8283 10.0246C33.7164 9.84696 33.5566 9.70493 33.3675 9.61497C33.1785 9.52501 32.9679 9.49082 32.7603 9.51637C32.5526 9.54192 32.3565 9.62617 32.1946 9.75931L10.5208 27.6231L10.0454 28.0336C9.88137 28.1745 9.68165 28.2669 9.46848 28.3005C9.25531 28.3342 9.03703 28.3077 8.83792 28.2241L6.7175 27.3299Z" fill="#6C33AF"/>
<path d="M6.7175 12.6707C6.50599 12.7593 6.32515 12.9087 6.19755 13.1C6.06995 13.2914 6.00124 13.5163 6 13.7466V13.8434C6.00144 13.708 6.0432 13.5762 6.11989 13.4649C6.19659 13.3537 6.3047 13.268 6.43027 13.2191C6.55584 13.1702 6.69312 13.1602 6.82438 13.1905C6.95564 13.2208 7.07486 13.2899 7.16667 13.389L25.25 33.4868C25.5061 33.743 25.8348 33.9132 26.1909 33.9741C26.5471 34.035 26.9132 33.9836 27.2392 33.8269L33.0083 31.0358C33.3055 30.8922 33.5562 30.6671 33.7317 30.3865C33.9071 30.1058 34.0001 29.7811 34 29.4497V29.3822C33.9998 29.5925 33.9403 29.7984 33.8283 29.976C33.7164 30.1536 33.5566 30.2957 33.3675 30.3856C33.1785 30.4756 32.9679 30.5098 32.7603 30.4842C32.5526 30.4587 32.3565 30.3744 32.1946 30.2413L10.5208 12.3775L10.0454 11.967C9.8799 11.8285 9.67949 11.7388 9.46637 11.7077C9.25324 11.6767 9.03573 11.7055 8.83792 11.7911L6.7175 12.6707Z" fill="#854CC7"/>
<path d="M27.2392 33.8269C26.9132 33.9836 26.5471 34.035 26.1909 33.9741C25.8348 33.9132 25.5061 33.743 25.25 33.4868C25.3937 33.6303 25.5765 33.7278 25.7752 33.7671C25.9739 33.8064 26.1798 33.7857 26.3669 33.7076C26.5539 33.6296 26.7139 33.4977 26.8265 33.3285C26.9392 33.1593 26.9995 32.9604 27 32.7568V7.24965C27.0007 7.04556 26.9412 6.84584 26.829 6.67575C26.7167 6.50566 26.5569 6.37283 26.3696 6.29407C26.1822 6.2153 25.9759 6.19413 25.7766 6.23324C25.5774 6.27234 25.3941 6.36996 25.25 6.51376C25.5061 6.25762 25.8348 6.08742 26.1909 6.02653C26.5471 5.96563 26.9132 6.01703 27.2392 6.17366L33.0083 8.96186C33.3055 9.10548 33.5562 9.33057 33.7317 9.61119C33.9071 9.89182 34.0001 10.2166 34 10.548V29.4526C34.0001 29.784 33.9071 30.1088 33.7317 30.3894C33.5562 30.67 33.3055 30.8951 33.0083 31.0387L27.2392 33.8269Z" fill="#B179F1"/>
<g opacity="0.25">
<path fill-rule="evenodd" clip-rule="evenodd" d="M26.0929 33.9559C26.4785 34.0444 26.8826 33.9989 27.2392 33.8269L33.0083 31.0387C33.3055 30.8951 33.5562 30.67 33.7317 30.3894C33.9071 30.1088 34.0001 29.784 34 29.4526V10.548C34.0001 10.2166 33.9071 9.89181 33.7317 9.61119C33.5562 9.33057 33.3055 9.10548 33.0083 8.96186L27.2392 6.17366C26.831 5.97642 26.3626 5.94594 25.9325 6.08864C25.6753 6.17526 25.4416 6.3208 25.25 6.51376L15.9517 16.8515L10.5208 12.3775L10.0454 11.967C9.90243 11.8441 9.73201 11.7578 9.54867 11.7154C9.36533 11.6731 9.17452 11.6759 8.9925 11.7237C8.9392 11.7355 8.88736 11.7532 8.83792 11.7764L6.7175 12.6707C6.51904 12.753 6.34704 12.8889 6.22044 13.0632C6.09385 13.2375 6.01757 13.4436 6 13.6587C6 13.688 6 13.7173 6 13.7466V26.2539C6 26.2833 6 26.3126 6 26.3419C6.01757 26.557 6.09385 26.7631 6.22044 26.9374C6.34704 27.1117 6.51904 27.2476 6.7175 27.3299L8.83792 28.2095C8.88736 28.2327 8.9392 28.2504 8.9925 28.2623C9.17452 28.31 9.36533 28.3129 9.54867 28.2705C9.73201 28.2281 9.90243 28.1418 10.0454 28.0189L10.5208 27.6231L15.9517 23.1491L25.25 33.4868C25.4818 33.7194 25.7738 33.8819 26.0929 33.9559ZM27 14.0428L19.7696 20.0003L27 25.9578V14.0428ZM9.5 15.9749L13.1196 20.0003L9.5 24.0257V15.9749Z" fill="url(#paint1_linear_1_68)"/>
</g>
</g>
<defs>
<filter id="filter0_d_1_68" x="2" y="2" width="36" height="36" filterUnits="userSpaceOnUse" color-interpolation-filters="sRGB">
<feFlood flood-opacity="0" result="BackgroundImageFix"/>
<feColorMatrix in="SourceAlpha" type="matrix" values="0 0 0 0 0 0 0 0 0 0 0 0 0 0 0 0 0 0 127 0" result="hardAlpha"/>
<feOffset/>
<feGaussianBlur stdDeviation="2"/>
<feComposite in2="hardAlpha" operator="out"/>
<feColorMatrix type="matrix" values="0 0 0 0 0 0 0 0 0 0 0 0 0 0 0 0 0 0 0.25 0"/>
<feBlend mode="normal" in2="BackgroundImageFix" result="effect1_dropShadow_1_68"/>
<feBlend mode="normal" in="SourceGraphic" in2="effect1_dropShadow_1_68" result="shape"/>
</filter>
<linearGradient id="paint0_linear_1_68" x1="20" y1="0" x2="20" y2="40" gradientUnits="userSpaceOnUse">
<stop stop-color="#470E88"/>
<stop offset="1" stop-color="#28173C"/>
</linearGradient>
<linearGradient id="paint1_linear_1_68" x1="20" y1="6.00068" x2="20" y2="33.9999" gradientUnits="userSpaceOnUse">
<stop stop-color="white"/>
<stop offset="1" stop-color="white" stop-opacity="0"/>
</linearGradient>
</defs>
</svg>
