<svg width="294" height="56" viewBox="0 0 294 56" fill="none" xmlns="http://www.w3.org/2000/svg">
<rect width="294" height="56" rx="8" fill="url(#paint0_linear_1_50)"/>
<rect x="1.05" y="1.05" width="291.9" height="53.9" rx="6.95" stroke="white" stroke-opacity="0.15" stroke-width="2.1"/>
<g filter="url(#filter0_d_1_50)">
<path d="M17.7792 39.4765C17.5448 39.6778 17.2595 39.8098 16.955 39.8579C16.6504 39.906 16.3386 39.8682 16.0542 39.7488L13.025 38.4713C12.7228 38.3446 12.4645 38.1313 12.2822 37.8579C12.0999 37.5846 12.0018 37.2633 12 36.9342V19.0666C12.0018 18.7375 12.0999 18.4163 12.2822 18.1429C12.4645 17.8695 12.7228 17.6562 13.025 17.5295L16.0542 16.273C16.3386 16.1536 16.6504 16.1158 16.955 16.1639C17.2595 16.2119 17.5448 16.3439 17.7792 16.5452L18.4583 17.1107C18.3206 17.0111 18.1582 16.9518 17.989 16.9392C17.8199 16.9265 17.6505 16.9611 17.4997 17.0391C17.3488 17.1171 17.2224 17.2354 17.1342 17.3811C17.046 17.5268 16.9996 17.6941 17 17.8646V38.1363C16.9996 38.3068 17.046 38.4741 17.1342 38.6197C17.2224 38.7654 17.3488 38.8838 17.4997 38.9617C17.6505 39.0397 17.8199 39.0743 17.989 39.0617C18.1582 39.049 18.3206 38.9897 18.4583 38.8902L17.7792 39.4765Z" fill="#52218A"/>
<path d="M13.025 38.4713C12.7228 38.3446 12.4645 38.1313 12.2822 37.8579C12.0999 37.5845 12.0018 37.2633 12 36.9342V36.796C12.0021 36.9893 12.0617 37.1777 12.1713 37.3366C12.2808 37.4956 12.4353 37.6179 12.6147 37.6878C12.7941 37.7577 12.9902 37.7719 13.1777 37.7286C13.3652 37.6854 13.5355 37.5867 13.6667 37.4452L39.5 8.73393C39.8658 8.36801 40.3354 8.12487 40.8442 8.03788C41.3529 7.95089 41.876 8.02431 42.3417 8.24808L50.5833 12.2354C51.0078 12.4406 51.3661 12.7621 51.6167 13.163C51.8673 13.5639 52.0002 14.0278 52 14.5013V14.5976C51.9997 14.2973 51.9147 14.0031 51.7548 13.7494C51.5948 13.4957 51.3665 13.2927 51.0965 13.1642C50.8264 13.0357 50.5255 12.9869 50.2289 13.0234C49.9323 13.0599 49.6521 13.1802 49.4208 13.3704L18.4583 38.8902L17.7792 39.4765C17.5448 39.6778 17.2595 39.8098 16.955 39.8579C16.6504 39.906 16.3386 39.8682 16.0542 39.7488L13.025 38.4713Z" fill="#6C33AF"/>
<path d="M13.025 17.5295C12.7228 17.6562 12.4645 17.8695 12.2822 18.1429C12.0999 18.4163 12.0018 18.7375 12 19.0666V19.2048C12.0021 19.0115 12.0617 18.8231 12.1713 18.6642C12.2808 18.5052 12.4353 18.3829 12.6147 18.313C12.7941 18.2432 12.9902 18.2289 13.1777 18.2722C13.3652 18.3154 13.5355 18.4142 13.6667 18.5557L39.5 47.2669C39.8658 47.6328 40.3354 47.8759 40.8442 47.9629C41.3529 48.0499 41.876 47.9765 42.3417 47.7527L50.5833 43.7654C51.0078 43.5602 51.3661 43.2387 51.6167 42.8378C51.8673 42.4369 52.0002 41.973 52 41.4995V41.4032C51.9997 41.7036 51.9147 41.9977 51.7548 42.2514C51.5948 42.5052 51.3665 42.7081 51.0965 42.8366C50.8264 42.9651 50.5255 43.0139 50.2289 42.9774C49.9323 42.9409 49.6521 42.8206 49.4208 42.6304L18.4583 17.1107L17.7792 16.5243C17.5427 16.3265 17.2564 16.1983 16.952 16.1539C16.6475 16.1095 16.3368 16.1508 16.0542 16.273L13.025 17.5295Z" fill="#854CC7"/>
<path d="M42.3417 47.7527C41.876 47.9765 41.3529 48.0499 40.8442 47.9629C40.3354 47.8759 39.8658 47.6328 39.5 47.2669C39.7053 47.4718 39.9664 47.6111 40.2503 47.6672C40.5342 47.7234 40.8283 47.6938 41.0955 47.5823C41.3628 47.4709 41.5912 47.2824 41.7522 47.0407C41.9131 46.799 41.9993 46.5148 42 46.224V9.78522C42.001 9.49365 41.916 9.20834 41.7556 8.96535C41.5953 8.72237 41.367 8.53262 41.0994 8.42009C40.8318 8.30757 40.537 8.27733 40.2523 8.33319C39.9676 8.38906 39.7058 8.52852 39.5 8.73394C39.8658 8.36802 40.3354 8.12488 40.8442 8.03789C41.3529 7.9509 41.876 8.02433 42.3417 8.24809L50.5833 12.2312C51.0078 12.4364 51.3661 12.758 51.6167 13.1588C51.8673 13.5597 52.0002 14.0236 52 14.4971V41.5037C52.0002 41.9772 51.8673 42.4411 51.6167 42.842C51.3661 43.2429 51.0078 43.5644 50.5833 43.7696L42.3417 47.7527Z" fill="#B179F1"/>
<g opacity="0.25">
<path fill-rule="evenodd" clip-rule="evenodd" d="M40.7042 47.937C41.255 48.0634 41.8322 47.9984 42.3417 47.7527L50.5833 43.7696C51.0078 43.5644 51.3661 43.2429 51.6167 42.842C51.8673 42.4411 52.0002 41.9772 52 41.5037V14.4971C52.0002 14.0236 51.8673 13.5597 51.6167 13.1588C51.3661 12.758 51.0078 12.4364 50.5833 12.2312L42.3417 8.24809C41.7585 7.96632 41.0894 7.92278 40.475 8.12663C40.1076 8.25037 39.7738 8.45828 39.5 8.73394L26.2167 23.5021L18.4583 17.1107L17.7792 16.5243C17.5749 16.3487 17.3314 16.2254 17.0695 16.1649C16.8076 16.1044 16.535 16.1084 16.275 16.1767C16.1989 16.1936 16.1248 16.2189 16.0542 16.2521L13.025 17.5295C12.7415 17.6472 12.4958 17.8412 12.3149 18.0903C12.1341 18.3393 12.0251 18.6337 12 18.941C12 18.9829 12 19.0248 12 19.0666V36.9342C12 36.9761 12 37.018 12 37.0598C12.0251 37.3671 12.1341 37.6615 12.3149 37.9106C12.4958 38.1596 12.7415 38.3537 13.025 38.4713L16.0542 39.7278C16.1248 39.761 16.1989 39.7863 16.275 39.8032C16.535 39.8715 16.8076 39.8755 17.0695 39.815C17.3314 39.7544 17.5749 39.6311 17.7792 39.4556L18.4583 38.8902L26.2167 32.4987L39.5 47.2669C39.8311 47.5991 40.2483 47.8313 40.7042 47.937ZM42 19.4897L31.6708 28.0004L42 36.5112V19.4897ZM17 22.2498L22.1708 28.0004L17 33.751V22.2498Z" fill="url(#paint1_linear_1_50)"/>
</g>
</g>
<g filter="url(#filter1_d_1_50)">
<path d="M62.2613 24.5H60.3977L64.5852 12.8636H66.6136L70.8011 24.5H68.9375L65.6477 14.9773H65.5568L62.2613 24.5ZM62.5738 19.9432H68.6193V21.4204H62.5738V19.9432ZM78.7173 15.7727L75.5525 24.5H73.7344L70.5639 15.7727H72.3878L74.598 22.4886H74.6889L76.8934 15.7727H78.7173ZM82.6037 24.6932C82.0506 24.6932 81.5506 24.5909 81.1037 24.3864C80.6567 24.178 80.3025 23.8769 80.0412 23.4829C79.7836 23.089 79.6548 22.6061 79.6548 22.0341C79.6548 21.5417 79.7495 21.1364 79.9389 20.8182C80.1283 20.5 80.384 20.2481 80.7059 20.0625C81.0279 19.8769 81.3878 19.7367 81.7855 19.642C82.1832 19.5473 82.5885 19.4754 83.0014 19.4261C83.5241 19.3655 83.9484 19.3163 84.2741 19.2784C84.5999 19.2367 84.8366 19.1704 84.9844 19.0795C85.1321 18.9886 85.2059 18.8409 85.2059 18.6364V18.5966C85.2059 18.1004 85.0658 17.7159 84.7855 17.4432C84.509 17.1704 84.0961 17.0341 83.5469 17.0341C82.9749 17.0341 82.5241 17.161 82.1946 17.4148C81.8688 17.6648 81.6434 17.9432 81.5184 18.25L79.9219 17.8864C80.1112 17.3561 80.3878 16.928 80.7514 16.6023C81.1188 16.2727 81.5412 16.0341 82.0184 15.8864C82.4957 15.7348 82.9976 15.6591 83.5241 15.6591C83.8726 15.6591 84.2419 15.7008 84.6321 15.7841C85.026 15.8636 85.3934 16.0114 85.7344 16.2273C86.079 16.4432 86.3612 16.7519 86.5809 17.1534C86.8006 17.5511 86.9105 18.0682 86.9105 18.7045V24.5H85.2514V23.3068H85.1832C85.0734 23.5265 84.9086 23.7424 84.6889 23.9545C84.4692 24.1667 84.187 24.3428 83.8423 24.4829C83.4976 24.6231 83.0847 24.6932 82.6037 24.6932ZM82.973 23.3295C83.4427 23.3295 83.8442 23.2367 84.1775 23.0511C84.5147 22.8655 84.7703 22.6231 84.9446 22.3239C85.1226 22.0208 85.2116 21.697 85.2116 21.3523V20.2273C85.151 20.2879 85.0336 20.3447 84.8594 20.3977C84.6889 20.447 84.4938 20.4905 84.2741 20.5284C84.0544 20.5625 83.8404 20.5947 83.6321 20.625C83.4237 20.6515 83.2495 20.6742 83.1094 20.6932C82.7798 20.7348 82.4787 20.8049 82.2059 20.9034C81.937 21.0019 81.7211 21.1439 81.5582 21.3295C81.3991 21.5114 81.3196 21.7538 81.3196 22.0568C81.3196 22.4773 81.4749 22.7954 81.7855 23.0114C82.0961 23.2235 82.4919 23.3295 82.973 23.3295ZM89.1733 24.5V15.7727H90.8721V24.5H89.1733ZM90.0312 14.4261C89.7358 14.4261 89.482 14.3276 89.2699 14.1307C89.0615 13.9299 88.9574 13.6913 88.9574 13.4148C88.9574 13.1345 89.0615 12.8958 89.2699 12.6989C89.482 12.4981 89.7358 12.3977 90.0312 12.3977C90.3267 12.3977 90.5786 12.4981 90.7869 12.6989C90.999 12.8958 91.1051 13.1345 91.1051 13.4148C91.1051 13.6913 90.999 13.9299 90.7869 14.1307C90.5786 14.3276 90.3267 14.4261 90.0312 14.4261ZM94.8565 12.8636V24.5H93.1576V12.8636H94.8565ZM99.6818 24.6932C99.1288 24.6932 98.6288 24.5909 98.1818 24.3864C97.7348 24.178 97.3807 23.8769 97.1193 23.4829C96.8617 23.089 96.7329 22.6061 96.7329 22.0341C96.7329 21.5417 96.8276 21.1364 97.017 20.8182C97.2064 20.5 97.4621 20.2481 97.7841 20.0625C98.106 19.8769 98.4659 19.7367 98.8636 19.642C99.2613 19.5473 99.6666 19.4754 100.08 19.4261C100.602 19.3655 101.026 19.3163 101.352 19.2784C101.678 19.2367 101.915 19.1704 102.062 19.0795C102.21 18.9886 102.284 18.8409 102.284 18.6364V18.5966C102.284 18.1004 102.144 17.7159 101.864 17.4432C101.587 17.1704 101.174 17.0341 100.625 17.0341C100.053 17.0341 99.6022 17.161 99.2727 17.4148C98.9469 17.6648 98.7216 17.9432 98.5966 18.25L97 17.8864C97.1894 17.3561 97.4659 16.928 97.8295 16.6023C98.1969 16.2727 98.6193 16.0341 99.0966 15.8864C99.5738 15.7348 100.076 15.6591 100.602 15.6591C100.951 15.6591 101.32 15.7008 101.71 15.7841C102.104 15.8636 102.472 16.0114 102.812 16.2273C103.157 16.4432 103.439 16.7519 103.659 17.1534C103.879 17.5511 103.989 18.0682 103.989 18.7045V24.5H102.33V23.3068H102.261C102.151 23.5265 101.987 23.7424 101.767 23.9545C101.547 24.1667 101.265 24.3428 100.92 24.4829C100.576 24.6231 100.163 24.6932 99.6818 24.6932ZM100.051 23.3295C100.521 23.3295 100.922 23.2367 101.256 23.0511C101.593 22.8655 101.848 22.6231 102.023 22.3239C102.201 22.0208 102.29 21.697 102.29 21.3523V20.2273C102.229 20.2879 102.112 20.3447 101.937 20.3977C101.767 20.447 101.572 20.4905 101.352 20.5284C101.133 20.5625 100.919 20.5947 100.71 20.625C100.502 20.6515 100.328 20.6742 100.187 20.6932C99.8579 20.7348 99.5568 20.8049 99.2841 20.9034C99.0151 21.0019 98.7992 21.1439 98.6363 21.3295C98.4772 21.5114 98.3977 21.7538 98.3977 22.0568C98.3977 22.4773 98.553 22.7954 98.8636 23.0114C99.1742 23.2235 99.57 23.3295 100.051 23.3295ZM106.388 24.5V12.8636H108.087V17.1875H108.189C108.287 17.0057 108.429 16.7954 108.615 16.5568C108.801 16.3182 109.058 16.1098 109.388 15.9318C109.717 15.75 110.153 15.6591 110.695 15.6591C111.399 15.6591 112.028 15.8371 112.581 16.1932C113.134 16.5492 113.568 17.0625 113.882 17.7329C114.2 18.4034 114.359 19.2102 114.359 20.1534C114.359 21.0966 114.202 21.9053 113.888 22.5795C113.573 23.25 113.142 23.767 112.592 24.1307C112.043 24.4905 111.416 24.6704 110.712 24.6704C110.181 24.6704 109.748 24.5814 109.41 24.4034C109.077 24.2254 108.816 24.017 108.626 23.7784C108.437 23.5398 108.291 23.3276 108.189 23.142H108.047V24.5H106.388ZM108.053 20.1364C108.053 20.75 108.142 21.2879 108.32 21.75C108.498 22.2121 108.755 22.5739 109.092 22.8352C109.429 23.0928 109.842 23.2216 110.331 23.2216C110.839 23.2216 111.263 23.0871 111.604 22.8182C111.945 22.5454 112.202 22.1761 112.376 21.7102C112.554 21.2443 112.643 20.7197 112.643 20.1364C112.643 19.5606 112.556 19.0436 112.382 18.5852C112.212 18.1269 111.954 17.7651 111.609 17.5C111.268 17.2348 110.842 17.1023 110.331 17.1023C109.839 17.1023 109.422 17.2292 109.081 17.4829C108.744 17.7367 108.488 18.0909 108.314 18.5454C108.14 19 108.053 19.5303 108.053 20.1364ZM117.966 12.8636V24.5H116.267V12.8636H117.966ZM124.013 24.6761C123.153 24.6761 122.412 24.4924 121.791 24.125C121.174 23.7538 120.696 23.2329 120.359 22.5625C120.026 21.8883 119.859 21.0985 119.859 20.1932C119.859 19.2992 120.026 18.5114 120.359 17.8295C120.696 17.1477 121.166 16.6155 121.768 16.2329C122.374 15.8504 123.083 15.6591 123.893 15.6591C124.386 15.6591 124.863 15.7405 125.325 15.9034C125.787 16.0663 126.202 16.322 126.57 16.6704C126.937 17.0189 127.227 17.4716 127.439 18.0284C127.651 18.5814 127.757 19.2538 127.757 20.0454V20.6477H120.82V19.375H126.092C126.092 18.928 126.001 18.5322 125.82 18.1875C125.638 17.839 125.382 17.5644 125.053 17.3636C124.727 17.1629 124.344 17.0625 123.905 17.0625C123.428 17.0625 123.011 17.1799 122.655 17.4148C122.303 17.6458 122.03 17.9489 121.837 18.3239C121.647 18.6951 121.553 19.0985 121.553 19.5341V20.5284C121.553 21.1117 121.655 21.6079 121.859 22.017C122.068 22.4261 122.357 22.7386 122.729 22.9545C123.1 23.1667 123.534 23.2727 124.03 23.2727C124.352 23.2727 124.645 23.2273 124.91 23.1364C125.176 23.0417 125.405 22.9015 125.598 22.7159C125.791 22.5303 125.939 22.3011 126.041 22.0284L127.649 22.3182C127.52 22.7917 127.289 23.2064 126.956 23.5625C126.626 23.9148 126.212 24.1894 125.712 24.3864C125.215 24.5795 124.649 24.6761 124.013 24.6761ZM137.553 24.6761C136.734 24.6761 136.02 24.4886 135.41 24.1136C134.801 23.7386 134.327 23.214 133.99 22.5398C133.653 21.8655 133.484 21.0776 133.484 20.1761C133.484 19.2708 133.653 18.4792 133.99 17.8011C134.327 17.1231 134.801 16.5966 135.41 16.2216C136.02 15.8466 136.734 15.6591 137.553 15.6591C138.371 15.6591 139.085 15.8466 139.695 16.2216C140.304 16.5966 140.778 17.1231 141.115 17.8011C141.452 18.4792 141.621 19.2708 141.621 20.1761C141.621 21.0776 141.452 21.8655 141.115 22.5398C140.778 23.214 140.304 23.7386 139.695 24.1136C139.085 24.4886 138.371 24.6761 137.553 24.6761ZM137.558 23.25C138.089 23.25 138.528 23.1098 138.876 22.8295C139.225 22.5492 139.482 22.1761 139.649 21.7102C139.82 21.2443 139.905 20.7311 139.905 20.1704C139.905 19.6136 139.82 19.1023 139.649 18.6364C139.482 18.1667 139.225 17.7898 138.876 17.5057C138.528 17.2216 138.089 17.0795 137.558 17.0795C137.024 17.0795 136.581 17.2216 136.229 17.5057C135.88 17.7898 135.621 18.1667 135.45 18.6364C135.284 19.1023 135.2 19.6136 135.2 20.1704C135.2 20.7311 135.284 21.2443 135.45 21.7102C135.621 22.1761 135.88 22.5492 136.229 22.8295C136.581 23.1098 137.024 23.25 137.558 23.25ZM145.216 19.3182V24.5H143.517V15.7727H145.148V17.1932H145.256C145.456 16.7311 145.771 16.3598 146.199 16.0795C146.631 15.7992 147.174 15.6591 147.83 15.6591C148.424 15.6591 148.945 15.7841 149.392 16.0341C149.839 16.2803 150.186 16.6477 150.432 17.1364C150.678 17.625 150.801 18.2292 150.801 18.9489V24.5H149.102V19.1534C149.102 18.5208 148.937 18.0265 148.608 17.6704C148.278 17.3106 147.826 17.1307 147.25 17.1307C146.856 17.1307 146.506 17.2159 146.199 17.3864C145.896 17.5568 145.655 17.8068 145.477 18.1364C145.303 18.4621 145.216 18.8561 145.216 19.3182Z" fill="#E8E8E8"/>
<path d="M63.7429 31.1364L66.5078 40.1918H66.6104L69.3753 31.1364H72.7198L68.5483 43.5H64.5699L60.3984 31.1364H63.7429ZM74.0509 43.5V34.2273H77.003V43.5H74.0509ZM75.53 33.1467C75.1155 33.1467 74.7593 33.0098 74.4615 32.7361C74.1636 32.4584 74.0147 32.1244 74.0147 31.734C74.0147 31.3476 74.1636 31.0176 74.4615 30.744C74.7593 30.4663 75.1155 30.3274 75.53 30.3274C75.9485 30.3274 76.3047 30.4663 76.5985 30.744C76.8963 31.0176 77.0453 31.3476 77.0453 31.734C77.0453 32.1244 76.8963 32.4584 76.5985 32.7361C76.3047 33.0098 75.9485 33.1467 75.53 33.1467ZM86.9775 37.0586L84.2669 37.131C84.2388 36.9378 84.1623 36.7668 84.0375 36.6179C83.9128 36.465 83.7498 36.3462 83.5485 36.2617C83.3513 36.1732 83.1219 36.1289 82.8603 36.1289C82.5182 36.1289 82.2265 36.1973 81.985 36.3342C81.7475 36.471 81.6308 36.6561 81.6348 36.8895C81.6308 37.0707 81.7033 37.2276 81.8522 37.3604C82.0051 37.4932 82.2768 37.5999 82.6671 37.6804L84.4541 38.0185C85.3797 38.1955 86.068 38.4893 86.5187 38.8998C86.9735 39.3104 87.2029 39.8537 87.2069 40.5298C87.2029 41.1657 87.0137 41.7191 86.6394 42.19C86.2692 42.6609 85.7621 43.0271 85.1181 43.2887C84.4742 43.5463 83.7377 43.6751 82.9086 43.6751C81.5845 43.6751 80.5401 43.4034 79.7755 42.8601C79.0148 42.3127 78.5801 41.5802 78.4715 40.6626L81.3873 40.5902C81.4517 40.9283 81.6187 41.1858 81.8884 41.3629C82.158 41.54 82.5021 41.6285 82.9207 41.6285C83.299 41.6285 83.6069 41.5581 83.8443 41.4172C84.0818 41.2764 84.2025 41.0892 84.2066 40.8558C84.2025 40.6465 84.11 40.4795 83.9289 40.3547C83.7478 40.226 83.464 40.1253 83.0777 40.0529L81.4598 39.745C80.5301 39.576 79.8378 39.2641 79.3831 38.8093C78.9283 38.3505 78.7029 37.7669 78.7069 37.0586C78.7029 36.4388 78.8679 35.9096 79.2019 35.4709C79.536 35.0282 80.0109 34.6901 80.6267 34.4567C81.2424 34.2232 81.9689 34.1065 82.806 34.1065C84.0617 34.1065 85.0517 34.3701 85.7762 34.8974C86.5006 35.4206 86.901 36.141 86.9775 37.0586ZM94.6429 39.4975V34.2273H97.5889V43.5H94.7757V41.7734H94.6791C94.4739 42.3409 94.1237 42.7917 93.6287 43.1257C93.1377 43.4557 92.5441 43.6207 91.8478 43.6207C91.2159 43.6207 90.6605 43.4758 90.1816 43.1861C89.7027 42.8963 89.3304 42.4918 89.0648 41.9726C88.7992 41.4494 88.6643 40.8377 88.6603 40.1374V34.2273H91.6124V39.5579C91.6164 40.061 91.7492 40.4574 92.0108 40.7471C92.2724 41.0369 92.6286 41.1818 93.0793 41.1818C93.3731 41.1818 93.6368 41.1174 93.8702 40.9886C94.1076 40.8558 94.2948 40.6646 94.4316 40.4151C94.5725 40.1616 94.6429 39.8557 94.6429 39.4975ZM102.082 43.6569C101.49 43.6569 100.965 43.5583 100.506 43.3611C100.051 43.1599 99.6913 42.8581 99.4257 42.4556C99.1641 42.0491 99.0333 41.54 99.0333 40.9283C99.0333 40.4131 99.1238 39.9784 99.3049 39.6243C99.486 39.2701 99.7356 38.9824 100.054 38.761C100.371 38.5396 100.738 38.3726 101.152 38.2599C101.567 38.1432 102.009 38.0647 102.48 38.0245C103.008 37.9762 103.432 37.9259 103.754 37.8736C104.076 37.8172 104.31 37.7387 104.454 37.6381C104.603 37.5335 104.678 37.3866 104.678 37.1974V37.1672C104.678 36.8574 104.571 36.6179 104.358 36.4489C104.145 36.2798 103.857 36.1953 103.495 36.1953C103.104 36.1953 102.79 36.2798 102.553 36.4489C102.315 36.6179 102.164 36.8513 102.1 37.1491L99.3774 37.0525C99.4579 36.4891 99.6651 35.986 99.9992 35.5433C100.337 35.0966 100.8 34.7464 101.388 34.4929C101.979 34.2353 102.69 34.1065 103.519 34.1065C104.11 34.1065 104.656 34.177 105.155 34.3178C105.654 34.4547 106.088 34.6559 106.459 34.9215C106.829 35.1831 107.115 35.5051 107.316 35.8874C107.521 36.2698 107.624 36.7064 107.624 37.1974V43.5H104.847V42.2081H104.774C104.609 42.522 104.398 42.7876 104.141 43.005C103.887 43.2223 103.587 43.3853 103.241 43.494C102.899 43.6026 102.513 43.6569 102.082 43.6569ZM102.993 41.7251C103.311 41.7251 103.597 41.6607 103.851 41.5319C104.108 41.4032 104.314 41.2261 104.467 41.0007C104.619 40.7713 104.696 40.5057 104.696 40.2038V39.3224C104.611 39.3667 104.509 39.4069 104.388 39.4432C104.271 39.4794 104.143 39.5136 104.002 39.5458C103.861 39.578 103.716 39.6062 103.567 39.6303C103.418 39.6545 103.275 39.6766 103.138 39.6967C102.861 39.741 102.623 39.8094 102.426 39.902C102.233 39.9945 102.084 40.1153 101.979 40.2642C101.879 40.4091 101.828 40.5821 101.828 40.7834C101.828 41.0892 101.937 41.3227 102.154 41.4837C102.376 41.6446 102.655 41.7251 102.993 41.7251ZM112.381 31.1364V43.5H109.429V31.1364H112.381ZM124.595 34.843C124.555 34.4003 124.376 34.0562 124.058 33.8107C123.744 33.5612 123.295 33.4364 122.712 33.4364C122.325 33.4364 122.003 33.4867 121.746 33.5873C121.488 33.688 121.295 33.8268 121.166 34.0039C121.037 34.177 120.971 34.3762 120.967 34.6016C120.959 34.7867 120.995 34.9497 121.076 35.0905C121.16 35.2314 121.281 35.3562 121.438 35.4648C121.599 35.5695 121.792 35.662 122.017 35.7425C122.243 35.823 122.496 35.8935 122.778 35.9538L123.841 36.1953C124.452 36.3281 124.992 36.5052 125.458 36.7266C125.929 36.9479 126.324 37.2115 126.642 37.5174C126.964 37.8233 127.207 38.1754 127.372 38.5739C127.537 38.9723 127.622 39.419 127.626 39.9141C127.622 40.6948 127.424 41.3649 127.034 41.9243C126.644 42.4838 126.082 42.9124 125.35 43.2102C124.621 43.508 123.742 43.6569 122.712 43.6569C121.677 43.6569 120.776 43.502 120.007 43.1921C119.238 42.8822 118.641 42.4113 118.214 41.7795C117.787 41.1476 117.568 40.3487 117.556 39.3828H120.418C120.442 39.7812 120.548 40.1133 120.738 40.3789C120.927 40.6445 121.186 40.8458 121.516 40.9826C121.85 41.1194 122.237 41.1878 122.675 41.1878C123.078 41.1878 123.42 41.1335 123.702 41.0248C123.987 40.9162 124.207 40.7653 124.36 40.5721C124.513 40.3789 124.591 40.1575 124.595 39.908C124.591 39.6746 124.519 39.4754 124.378 39.3104C124.237 39.1413 124.02 38.9964 123.726 38.8757C123.436 38.7509 123.066 38.6362 122.615 38.5316L121.323 38.2297C120.253 37.9842 119.409 37.5878 118.794 37.0405C118.178 36.4891 117.872 35.7445 117.876 34.8068C117.872 34.0421 118.077 33.372 118.492 32.7965C118.906 32.221 119.48 31.7722 120.212 31.4503C120.945 31.1283 121.78 30.9673 122.718 30.9673C123.676 30.9673 124.507 31.1303 125.211 31.4563C125.919 31.7783 126.469 32.2311 126.859 32.8146C127.249 33.3982 127.449 34.0743 127.457 34.843H124.595ZM134.369 34.2273V36.4006H128.519V34.2273H134.369ZM129.745 32.0057H132.697V40.5842C132.697 40.7653 132.725 40.9122 132.781 41.0248C132.842 41.1335 132.928 41.212 133.041 41.2603C133.153 41.3046 133.288 41.3267 133.445 41.3267C133.558 41.3267 133.677 41.3166 133.801 41.2965C133.93 41.2724 134.027 41.2522 134.091 41.2361L134.538 43.3672C134.397 43.4074 134.198 43.4577 133.94 43.5181C133.687 43.5785 133.383 43.6167 133.029 43.6328C132.336 43.665 131.743 43.5845 131.248 43.3913C130.757 43.1941 130.381 42.8882 130.119 42.4737C129.861 42.0592 129.737 41.538 129.745 40.9101V32.0057ZM141.858 39.4975V34.2273H144.804V43.5H141.991V41.7734H141.894C141.689 42.3409 141.339 42.7917 140.844 43.1257C140.353 43.4557 139.759 43.6207 139.063 43.6207C138.431 43.6207 137.875 43.4758 137.396 43.1861C136.918 42.8963 136.545 42.4918 136.28 41.9726C136.014 41.4494 135.879 40.8377 135.875 40.1374V34.2273H138.827V39.5579C138.831 40.061 138.964 40.4574 139.226 40.7471C139.487 41.0369 139.843 41.1818 140.294 41.1818C140.588 41.1818 140.852 41.1174 141.085 40.9886C141.322 40.8558 141.51 40.6646 141.646 40.4151C141.787 40.1616 141.858 39.8557 141.858 39.4975ZM150.069 43.6328C149.385 43.6328 148.763 43.4557 148.204 43.1016C147.645 42.7474 147.198 42.2161 146.864 41.5078C146.53 40.7995 146.363 39.9201 146.363 38.8697C146.363 37.779 146.536 36.8815 146.882 36.1772C147.228 35.4729 147.681 34.9517 148.24 34.6136C148.804 34.2756 149.409 34.1065 150.057 34.1065C150.544 34.1065 150.961 34.191 151.307 34.3601C151.653 34.5251 151.939 34.7384 152.164 35C152.39 35.2616 152.561 35.5333 152.677 35.815H152.738V31.1364H155.69V43.5H152.768V41.9968H152.677C152.553 42.2825 152.376 42.5502 152.146 42.7997C151.917 43.0492 151.629 43.2505 151.283 43.4034C150.941 43.5563 150.536 43.6328 150.069 43.6328ZM151.096 41.3327C151.454 41.3327 151.76 41.2321 152.013 41.0309C152.267 40.8256 152.462 40.5379 152.599 40.1676C152.736 39.7973 152.804 39.3627 152.804 38.8636C152.804 38.3565 152.736 37.9199 152.599 37.5536C152.466 37.1874 152.271 36.9056 152.013 36.7084C151.76 36.5112 151.454 36.4126 151.096 36.4126C150.73 36.4126 150.42 36.5132 150.166 36.7145C149.913 36.9157 149.719 37.1994 149.587 37.5657C149.458 37.9319 149.393 38.3646 149.393 38.8636C149.393 39.3627 149.46 39.7973 149.593 40.1676C149.725 40.5379 149.917 40.8256 150.166 41.0309C150.42 41.2321 150.73 41.3327 151.096 41.3327ZM157.557 43.5V34.2273H160.509V43.5H157.557ZM159.036 33.1467C158.621 33.1467 158.265 33.0098 157.967 32.7361C157.669 32.4584 157.521 32.1244 157.521 31.734C157.521 31.3476 157.669 31.0176 157.967 30.744C158.265 30.4663 158.621 30.3274 159.036 30.3274C159.454 30.3274 159.811 30.4663 160.104 30.744C160.402 31.0176 160.551 31.3476 160.551 31.734C160.551 32.1244 160.402 32.4584 160.104 32.7361C159.811 33.0098 159.454 33.1467 159.036 33.1467ZM166.716 43.6751C165.742 43.6751 164.905 43.4758 164.205 43.0774C163.509 42.6749 162.971 42.1155 162.593 41.3991C162.219 40.6787 162.032 39.8436 162.032 38.8938C162.032 37.94 162.219 37.1049 162.593 36.3885C162.971 35.6681 163.509 35.1087 164.205 34.7102C164.905 34.3078 165.742 34.1065 166.716 34.1065C167.69 34.1065 168.525 34.3078 169.222 34.7102C169.922 35.1087 170.459 35.6681 170.833 36.3885C171.212 37.1049 171.401 37.94 171.401 38.8938C171.401 39.8436 171.212 40.6787 170.833 41.3991C170.459 42.1155 169.922 42.6749 169.222 43.0774C168.525 43.4758 167.69 43.6751 166.716 43.6751ZM166.734 41.4474C167.089 41.4474 167.388 41.3388 167.634 41.1214C167.879 40.9041 168.067 40.6023 168.195 40.2159C168.328 39.8295 168.395 39.3828 168.395 38.8757C168.395 38.3605 168.328 37.9098 168.195 37.5234C168.067 37.1371 167.879 36.8352 167.634 36.6179C167.388 36.4006 167.089 36.2919 166.734 36.2919C166.368 36.2919 166.058 36.4006 165.805 36.6179C165.555 36.8352 165.364 37.1371 165.231 37.5234C165.102 37.9098 165.038 38.3605 165.038 38.8757C165.038 39.3828 165.102 39.8295 165.231 40.2159C165.364 40.6023 165.555 40.9041 165.805 41.1214C166.058 41.3388 166.368 41.4474 166.734 41.4474ZM176.566 31.1364H180.266L183.405 38.7912H183.55L186.689 31.1364H190.39V43.5H187.48V35.9055H187.378L184.408 43.4215H182.548L179.578 35.8633H179.475V43.5H176.566V31.1364ZM194.868 43.6569C194.276 43.6569 193.751 43.5583 193.292 43.3611C192.838 43.1599 192.477 42.8581 192.212 42.4556C191.95 42.0491 191.819 41.54 191.819 40.9283C191.819 40.4131 191.91 39.9784 192.091 39.6243C192.272 39.2701 192.522 38.9824 192.84 38.761C193.158 38.5396 193.524 38.3726 193.938 38.2599C194.353 38.1432 194.796 38.0647 195.266 38.0245C195.794 37.9762 196.218 37.9259 196.54 37.8736C196.862 37.8172 197.096 37.7387 197.241 37.6381C197.389 37.5335 197.464 37.3866 197.464 37.1974V37.1672C197.464 36.8574 197.357 36.6179 197.144 36.4489C196.931 36.2798 196.643 36.1953 196.281 36.1953C195.89 36.1953 195.576 36.2798 195.339 36.4489C195.101 36.6179 194.951 36.8513 194.886 37.1491L192.163 37.0525C192.244 36.4891 192.451 35.986 192.785 35.5433C193.123 35.0966 193.586 34.7464 194.174 34.4929C194.765 34.2353 195.476 34.1065 196.305 34.1065C196.896 34.1065 197.442 34.177 197.941 34.3178C198.44 34.4547 198.875 34.6559 199.245 34.9215C199.615 35.1831 199.901 35.5051 200.102 35.8874C200.307 36.2698 200.41 36.7064 200.41 37.1974V43.5H197.633V42.2081H197.56C197.395 42.522 197.184 42.7876 196.927 43.005C196.673 43.2223 196.373 43.3853 196.027 43.494C195.685 43.6026 195.299 43.6569 194.868 43.6569ZM195.78 41.7251C196.098 41.7251 196.383 41.6607 196.637 41.5319C196.894 41.4032 197.1 41.2261 197.253 41.0007C197.406 40.7713 197.482 40.5057 197.482 40.2038V39.3224C197.397 39.3667 197.295 39.4069 197.174 39.4432C197.057 39.4794 196.929 39.5136 196.788 39.5458C196.647 39.578 196.502 39.6062 196.353 39.6303C196.204 39.6545 196.061 39.6766 195.924 39.6967C195.647 39.741 195.409 39.8094 195.212 39.902C195.019 39.9945 194.87 40.1153 194.765 40.2642C194.665 40.4091 194.614 40.5821 194.614 40.7834C194.614 41.0892 194.723 41.3227 194.94 41.4837C195.162 41.6446 195.442 41.7251 195.78 41.7251ZM202.215 43.5V34.2273H205.083V35.9176H205.179C205.348 35.3059 205.624 34.8511 206.006 34.5533C206.388 34.2514 206.833 34.1005 207.34 34.1005C207.477 34.1005 207.618 34.1105 207.763 34.1307C207.908 34.1468 208.043 34.1729 208.167 34.2092V36.7748C208.027 36.7266 207.841 36.6883 207.612 36.6601C207.387 36.632 207.185 36.6179 207.008 36.6179C206.658 36.6179 206.342 36.6964 206.06 36.8533C205.783 37.0063 205.563 37.2216 205.402 37.4993C205.246 37.773 205.167 38.0949 205.167 38.4652V43.5H202.215ZM212.033 41.0671L212.045 37.5476H212.455L215.063 34.2273H218.408L214.532 38.9844H213.753L212.033 41.0671ZM209.37 43.5V31.1364H212.322V43.5H209.37ZM215.129 43.5L212.703 39.6484L214.647 37.5536L218.54 43.5H215.129ZM223.417 43.6751C222.447 43.6751 221.61 43.4839 220.905 43.1016C220.205 42.7152 219.666 42.1658 219.287 41.4535C218.913 40.7371 218.726 39.8859 218.726 38.8998C218.726 37.942 218.915 37.1049 219.293 36.3885C219.672 35.6681 220.205 35.1087 220.893 34.7102C221.581 34.3078 222.392 34.1065 223.326 34.1065C223.986 34.1065 224.59 34.2092 225.137 34.4144C225.685 34.6197 226.157 34.9235 226.556 35.326C226.954 35.7284 227.264 36.2255 227.486 36.8171C227.707 37.4047 227.818 38.0788 227.818 38.8395V39.576H219.758V37.8615H225.071C225.067 37.5476 224.992 37.2679 224.847 37.0224C224.703 36.7769 224.503 36.5857 224.25 36.4489C224 36.308 223.712 36.2376 223.386 36.2376C223.056 36.2376 222.761 36.312 222.499 36.4609C222.237 36.6058 222.03 36.805 221.877 37.0586C221.724 37.3081 221.644 37.5918 221.636 37.9098V39.6545C221.636 40.0328 221.71 40.3648 221.859 40.6506C222.008 40.9323 222.219 41.1516 222.493 41.3086C222.767 41.4655 223.093 41.544 223.471 41.544C223.733 41.544 223.97 41.5078 224.183 41.4354C224.397 41.3629 224.58 41.2563 224.733 41.1154C224.886 40.9745 225 40.8015 225.077 40.5962L227.787 40.6747C227.675 41.2824 227.427 41.8117 227.045 42.2624C226.667 42.7092 226.17 43.0573 225.554 43.3068C224.938 43.5523 224.226 43.6751 223.417 43.6751ZM234.559 34.2273V36.4006H228.71V34.2273H234.559ZM229.935 32.0057H232.887V40.5842C232.887 40.7653 232.915 40.9122 232.972 41.0248C233.032 41.1335 233.119 41.212 233.231 41.2603C233.344 41.3046 233.479 41.3267 233.636 41.3267C233.748 41.3267 233.867 41.3166 233.992 41.2965C234.121 41.2724 234.217 41.2522 234.282 41.2361L234.728 43.3672C234.587 43.4074 234.388 43.4577 234.131 43.5181C233.877 43.5785 233.573 43.6167 233.219 43.6328C232.527 43.665 231.933 43.5845 231.438 43.3913C230.947 43.1941 230.571 42.8882 230.309 42.4737C230.052 42.0592 229.927 41.538 229.935 40.9101V32.0057ZM236.066 46.9773V34.2273H238.987V35.815H239.078C239.199 35.5333 239.37 35.2616 239.591 35C239.816 34.7384 240.102 34.5251 240.448 34.3601C240.798 34.191 241.217 34.1065 241.704 34.1065C242.348 34.1065 242.95 34.2756 243.509 34.6136C244.073 34.9517 244.527 35.4729 244.873 36.1772C245.22 36.8815 245.393 37.779 245.393 38.8697C245.393 39.9201 245.226 40.7995 244.892 41.5078C244.562 42.2161 244.115 42.7474 243.551 43.1016C242.992 43.4557 242.37 43.6328 241.686 43.6328C241.219 43.6328 240.815 43.5563 240.472 43.4034C240.13 43.2505 239.843 43.0492 239.609 42.7997C239.38 42.5502 239.203 42.2825 239.078 41.9968H239.018V46.9773H236.066ZM238.957 38.8636C238.957 39.3627 239.024 39.7973 239.156 40.1676C239.293 40.5379 239.488 40.8256 239.742 41.0309C240 41.2321 240.307 41.3327 240.666 41.3327C241.028 41.3327 241.336 41.2321 241.589 41.0309C241.843 40.8256 242.034 40.5379 242.163 40.1676C242.296 39.7973 242.362 39.3627 242.362 38.8636C242.362 38.3646 242.296 37.9319 242.163 37.5657C242.034 37.1994 241.843 36.9157 241.589 36.7145C241.34 36.5132 241.032 36.4126 240.666 36.4126C240.303 36.4126 239.996 36.5112 239.742 36.7084C239.488 36.9056 239.293 37.1874 239.156 37.5536C239.024 37.9199 238.957 38.3565 238.957 38.8636ZM249.892 31.1364V43.5H246.94V31.1364H249.892ZM254.385 43.6569C253.793 43.6569 253.268 43.5583 252.809 43.3611C252.354 43.1599 251.994 42.8581 251.728 42.4556C251.467 42.0491 251.336 41.54 251.336 40.9283C251.336 40.4131 251.427 39.9784 251.608 39.6243C251.789 39.2701 252.038 38.9824 252.356 38.761C252.674 38.5396 253.04 38.3726 253.455 38.2599C253.869 38.1432 254.312 38.0647 254.783 38.0245C255.31 37.9762 255.735 37.9259 256.057 37.8736C256.379 37.8172 256.612 37.7387 256.757 37.6381C256.906 37.5335 256.98 37.3866 256.98 37.1974V37.1672C256.98 36.8574 256.874 36.6179 256.661 36.4489C256.447 36.2798 256.159 36.1953 255.797 36.1953C255.407 36.1953 255.093 36.2798 254.855 36.4489C254.618 36.6179 254.467 36.8513 254.403 37.1491L251.68 37.0525C251.761 36.4891 251.968 35.986 252.302 35.5433C252.64 35.0966 253.103 34.7464 253.69 34.4929C254.282 34.2353 254.992 34.1065 255.821 34.1065C256.413 34.1065 256.958 34.177 257.457 34.3178C257.956 34.4547 258.391 34.6559 258.761 34.9215C259.132 35.1831 259.417 35.5051 259.619 35.8874C259.824 36.2698 259.927 36.7064 259.927 37.1974V43.5H257.15V42.2081H257.077C256.912 42.522 256.701 42.7876 256.443 43.005C256.19 43.2223 255.89 43.3853 255.544 43.494C255.202 43.6026 254.815 43.6569 254.385 43.6569ZM255.296 41.7251C255.614 41.7251 255.9 41.6607 256.153 41.5319C256.411 41.4032 256.616 41.2261 256.769 41.0007C256.922 40.7713 256.999 40.5057 256.999 40.2038V39.3224C256.914 39.3667 256.811 39.4069 256.691 39.4432C256.574 39.4794 256.445 39.5136 256.304 39.5458C256.163 39.578 256.019 39.6062 255.87 39.6303C255.721 39.6545 255.578 39.6766 255.441 39.6967C255.163 39.741 254.926 39.8094 254.729 39.902C254.536 39.9945 254.387 40.1153 254.282 40.2642C254.181 40.4091 254.131 40.5821 254.131 40.7834C254.131 41.0892 254.24 41.3227 254.457 41.4837C254.678 41.6446 254.958 41.7251 255.296 41.7251ZM266.06 43.6751C265.082 43.6751 264.243 43.4738 263.543 43.0714C262.846 42.6689 262.311 42.1095 261.937 41.3931C261.563 40.6727 261.375 39.8396 261.375 38.8938C261.375 37.944 261.563 37.1109 261.937 36.3945C262.315 35.6741 262.852 35.1127 263.549 34.7102C264.249 34.3078 265.084 34.1065 266.054 34.1065C266.911 34.1065 267.658 34.2615 268.294 34.5714C268.934 34.8813 269.433 35.3199 269.791 35.8874C270.153 36.4509 270.344 37.1129 270.364 37.8736H267.605C267.549 37.3987 267.388 37.0264 267.123 36.7567C266.861 36.4871 266.519 36.3523 266.096 36.3523C265.754 36.3523 265.454 36.4489 265.197 36.642C264.939 36.8312 264.738 37.1129 264.593 37.4872C264.452 37.8575 264.382 38.3163 264.382 38.8636C264.382 39.411 264.452 39.8738 264.593 40.2521C264.738 40.6264 264.939 40.9101 265.197 41.1033C265.454 41.2925 265.754 41.3871 266.096 41.3871C266.37 41.3871 266.611 41.3287 266.821 41.212C267.034 41.0953 267.209 40.9242 267.346 40.6989C267.483 40.4694 267.569 40.1918 267.605 39.8658H270.364C270.336 40.6304 270.145 41.2985 269.791 41.87C269.441 42.4415 268.948 42.8862 268.312 43.2042C267.68 43.5181 266.929 43.6751 266.06 43.6751ZM276.21 43.6751C275.24 43.6751 274.403 43.4839 273.698 43.1016C272.998 42.7152 272.459 42.1658 272.08 41.4535C271.706 40.7371 271.519 39.8859 271.519 38.8998C271.519 37.942 271.708 37.1049 272.086 36.3885C272.465 35.6681 272.998 35.1087 273.686 34.7102C274.374 34.3078 275.185 34.1065 276.119 34.1065C276.779 34.1065 277.383 34.2092 277.93 34.4144C278.477 34.6197 278.95 34.9235 279.349 35.326C279.747 35.7284 280.057 36.2255 280.279 36.8171C280.5 37.4047 280.611 38.0788 280.611 38.8395V39.576H272.551V37.8615H277.864C277.86 37.5476 277.785 37.2679 277.64 37.0224C277.495 36.7769 277.296 36.5857 277.043 36.4489C276.793 36.308 276.505 36.2376 276.179 36.2376C275.849 36.2376 275.554 36.312 275.292 36.4609C275.03 36.6058 274.823 36.805 274.67 37.0586C274.517 37.3081 274.437 37.5918 274.429 37.9098V39.6545C274.429 40.0328 274.503 40.3648 274.652 40.6506C274.801 40.9323 275.012 41.1516 275.286 41.3086C275.56 41.4655 275.886 41.544 276.264 41.544C276.526 41.544 276.763 41.5078 276.976 41.4354C277.19 41.3629 277.373 41.2563 277.526 41.1154C277.679 40.9745 277.793 40.8015 277.87 40.5962L280.58 40.6747C280.468 41.2824 280.22 41.8117 279.838 42.2624C279.459 42.7092 278.962 43.0573 278.347 43.3068C277.731 43.5523 277.019 43.6751 276.21 43.6751Z" fill="#B987F2"/>
</g>
<defs>
<filter id="filter0_d_1_50" x="6.28571" y="2.28571" width="51.4286" height="51.4286" filterUnits="userSpaceOnUse" color-interpolation-filters="sRGB">
<feFlood flood-opacity="0" result="BackgroundImageFix"/>
<feColorMatrix in="SourceAlpha" type="matrix" values="0 0 0 0 0 0 0 0 0 0 0 0 0 0 0 0 0 0 127 0" result="hardAlpha"/>
<feOffset/>
<feGaussianBlur stdDeviation="2.85714"/>
<feComposite in2="hardAlpha" operator="out"/>
<feColorMatrix type="matrix" values="0 0 0 0 0 0 0 0 0 0 0 0 0 0 0 0 0 0 0.25 0"/>
<feBlend mode="normal" in2="BackgroundImageFix" result="effect1_dropShadow_1_50"/>
<feBlend mode="normal" in="SourceGraphic" in2="effect1_dropShadow_1_50" result="shape"/>
</filter>
<filter id="filter1_d_1_50" x="54.4" y="3.9" width="233.2" height="48.6773" filterUnits="userSpaceOnUse" color-interpolation-filters="sRGB">
<feFlood flood-opacity="0" result="BackgroundImageFix"/>
<feColorMatrix in="SourceAlpha" type="matrix" values="0 0 0 0 0 0 0 0 0 0 0 0 0 0 0 0 0 0 127 0" result="hardAlpha"/>
<feOffset/>
<feGaussianBlur stdDeviation="2.8"/>
<feComposite in2="hardAlpha" operator="out"/>
<feColorMatrix type="matrix" values="0 0 0 0 0 0 0 0 0 0 0 0 0 0 0 0 0 0 0.25 0"/>
<feBlend mode="normal" in2="BackgroundImageFix" result="effect1_dropShadow_1_50"/>
<feBlend mode="normal" in="SourceGraphic" in2="effect1_dropShadow_1_50" result="shape"/>
</filter>
<linearGradient id="paint0_linear_1_50" x1="147" y1="0" x2="147" y2="56" gradientUnits="userSpaceOnUse">
<stop stop-color="#470E88"/>
<stop offset="1" stop-color="#28173C"/>
</linearGradient>
<linearGradient id="paint1_linear_1_50" x1="32" y1="8.00098" x2="32" y2="47.9999" gradientUnits="userSpaceOnUse">
<stop stop-color="white"/>
<stop offset="1" stop-color="white" stop-opacity="0"/>
</linearGradient>
</defs>
</svg>
