<svg width="56" height="56" viewBox="0 0 56 56" fill="none" xmlns="http://www.w3.org/2000/svg">
<rect width="56" height="56" rx="8.4" fill="url(#paint0_linear_1_62)"/>
<rect x="1.05" y="1.05" width="53.9" height="53.9" rx="7.35" stroke="white" stroke-opacity="0.15" stroke-width="2.1"/>
<g filter="url(#filter0_d_1_62)">
<path d="M13.7792 39.4765C13.5448 39.6778 13.2595 39.8098 12.955 39.8579C12.6504 39.906 12.3386 39.8682 12.0542 39.7488L9.025 38.4713C8.72285 38.3446 8.4645 38.1313 8.28222 37.8579C8.09993 37.5846 8.00178 37.2633 8 36.9342V19.0666C8.00178 18.7375 8.09993 18.4163 8.28222 18.1429C8.4645 17.8695 8.72285 17.6562 9.025 17.5295L12.0542 16.273C12.3386 16.1536 12.6504 16.1158 12.955 16.1639C13.2595 16.2119 13.5448 16.3439 13.7792 16.5452L14.4583 17.1107C14.3206 17.0111 14.1582 16.9518 13.989 16.9392C13.8199 16.9265 13.6505 16.9611 13.4997 17.0391C13.3488 17.1171 13.2224 17.2354 13.1342 17.3811C13.046 17.5268 12.9996 17.6941 13 17.8646V38.1363C12.9996 38.3068 13.046 38.4741 13.1342 38.6197C13.2224 38.7654 13.3488 38.8838 13.4997 38.9617C13.6505 39.0397 13.8199 39.0743 13.989 39.0617C14.1582 39.049 14.3206 38.9897 14.4583 38.8902L13.7792 39.4765Z" fill="#52218A"/>
<path d="M9.025 38.4713C8.72285 38.3446 8.4645 38.1313 8.28222 37.8579C8.09993 37.5845 8.00178 37.2633 8 36.9342V36.796C8.00205 36.9893 8.06171 37.1777 8.17128 37.3366C8.28084 37.4956 8.43528 37.6179 8.61467 37.6878C8.79406 37.7577 8.99017 37.7719 9.17769 37.7286C9.3652 37.6854 9.53552 37.5867 9.66667 37.4452L35.5 8.73393C35.8658 8.36801 36.3354 8.12487 36.8442 8.03788C37.3529 7.95089 37.876 8.02431 38.3417 8.24808L46.5833 12.2354C47.0078 12.4406 47.3661 12.7621 47.6167 13.163C47.8673 13.5639 48.0002 14.0278 48 14.5013V14.5976C47.9997 14.2973 47.9147 14.0031 47.7548 13.7494C47.5948 13.4957 47.3665 13.2927 47.0965 13.1642C46.8264 13.0357 46.5255 12.9869 46.2289 13.0234C45.9323 13.0599 45.6521 13.1802 45.4208 13.3704L14.4583 38.8902L13.7792 39.4765C13.5448 39.6778 13.2595 39.8098 12.955 39.8579C12.6504 39.906 12.3386 39.8682 12.0542 39.7488L9.025 38.4713Z" fill="#6C33AF"/>
<path d="M9.025 17.5295C8.72285 17.6562 8.4645 17.8695 8.28222 18.1429C8.09993 18.4163 8.00178 18.7375 8 19.0666V19.2048C8.00205 19.0115 8.06171 18.8231 8.17128 18.6642C8.28084 18.5052 8.43528 18.3829 8.61467 18.313C8.79406 18.2432 8.99017 18.2289 9.17769 18.2722C9.3652 18.3154 9.53552 18.4142 9.66667 18.5557L35.5 47.2669C35.8658 47.6328 36.3354 47.8759 36.8442 47.9629C37.3529 48.0499 37.876 47.9765 38.3417 47.7527L46.5833 43.7654C47.0078 43.5602 47.3661 43.2387 47.6167 42.8378C47.8673 42.4369 48.0002 41.973 48 41.4995V41.4032C47.9997 41.7036 47.9147 41.9977 47.7548 42.2514C47.5948 42.5052 47.3665 42.7081 47.0965 42.8366C46.8264 42.9651 46.5255 43.0139 46.2289 42.9774C45.9323 42.9409 45.6521 42.8206 45.4208 42.6304L14.4583 17.1107L13.7792 16.5243C13.5427 16.3265 13.2564 16.1983 12.952 16.1539C12.6475 16.1095 12.3368 16.1508 12.0542 16.273L9.025 17.5295Z" fill="#854CC7"/>
<path d="M38.3417 47.7527C37.876 47.9765 37.3529 48.0499 36.8442 47.9629C36.3354 47.8759 35.8658 47.6328 35.5 47.2669C35.7053 47.4718 35.9664 47.6111 36.2503 47.6672C36.5342 47.7234 36.8283 47.6938 37.0955 47.5823C37.3628 47.4709 37.5912 47.2824 37.7522 47.0407C37.9131 46.799 37.9993 46.5148 38 46.224V9.78522C38.001 9.49365 37.916 9.20834 37.7556 8.96535C37.5953 8.72237 37.367 8.53262 37.0994 8.42009C36.8318 8.30757 36.537 8.27733 36.2523 8.33319C35.9676 8.38906 35.7058 8.52852 35.5 8.73394C35.8658 8.36802 36.3354 8.12488 36.8442 8.03789C37.3529 7.9509 37.876 8.02433 38.3417 8.24809L46.5833 12.2312C47.0078 12.4364 47.3661 12.758 47.6167 13.1588C47.8673 13.5597 48.0002 14.0236 48 14.4971V41.5037C48.0002 41.9772 47.8673 42.4411 47.6167 42.842C47.3661 43.2429 47.0078 43.5644 46.5833 43.7696L38.3417 47.7527Z" fill="#B179F1"/>
<g opacity="0.25">
<path fill-rule="evenodd" clip-rule="evenodd" d="M36.7042 47.937C37.255 48.0634 37.8322 47.9984 38.3417 47.7527L46.5833 43.7696C47.0078 43.5644 47.3661 43.2429 47.6167 42.842C47.8673 42.4411 48.0002 41.9772 48 41.5037V14.4971C48.0002 14.0236 47.8673 13.5597 47.6167 13.1588C47.3661 12.758 47.0078 12.4364 46.5833 12.2312L38.3417 8.24809C37.7585 7.96632 37.0894 7.92278 36.475 8.12663C36.1076 8.25037 35.7738 8.45828 35.5 8.73394L22.2167 23.5021L14.4583 17.1107L13.7792 16.5243C13.5749 16.3487 13.3314 16.2254 13.0695 16.1649C12.8076 16.1044 12.535 16.1084 12.275 16.1767C12.1989 16.1936 12.1248 16.2189 12.0542 16.2521L9.025 17.5295C8.74148 17.6472 8.49577 17.8412 8.31492 18.0903C8.13407 18.3393 8.02509 18.6337 8 18.941C8 18.9829 8 19.0248 8 19.0666V36.9342C8 36.9761 8 37.018 8 37.0598C8.02509 37.3671 8.13407 37.6615 8.31492 37.9106C8.49577 38.1596 8.74148 38.3537 9.025 38.4713L12.0542 39.7278C12.1248 39.761 12.1989 39.7863 12.275 39.8032C12.535 39.8715 12.8076 39.8755 13.0695 39.815C13.3314 39.7544 13.5749 39.6311 13.7792 39.4556L14.4583 38.8902L22.2167 32.4987L35.5 47.2669C35.8311 47.5991 36.2483 47.8313 36.7042 47.937ZM38 19.4897L27.6708 28.0004L38 36.5112V19.4897ZM13 22.2498L18.1708 28.0004L13 33.751V22.2498Z" fill="url(#paint1_linear_1_62)"/>
</g>
</g>
<defs>
<filter id="filter0_d_1_62" x="2.28571" y="2.28571" width="51.4286" height="51.4286" filterUnits="userSpaceOnUse" color-interpolation-filters="sRGB">
<feFlood flood-opacity="0" result="BackgroundImageFix"/>
<feColorMatrix in="SourceAlpha" type="matrix" values="0 0 0 0 0 0 0 0 0 0 0 0 0 0 0 0 0 0 127 0" result="hardAlpha"/>
<feOffset/>
<feGaussianBlur stdDeviation="2.85714"/>
<feComposite in2="hardAlpha" operator="out"/>
<feColorMatrix type="matrix" values="0 0 0 0 0 0 0 0 0 0 0 0 0 0 0 0 0 0 0.25 0"/>
<feBlend mode="normal" in2="BackgroundImageFix" result="effect1_dropShadow_1_62"/>
<feBlend mode="normal" in="SourceGraphic" in2="effect1_dropShadow_1_62" result="shape"/>
</filter>
<linearGradient id="paint0_linear_1_62" x1="28" y1="0" x2="28" y2="56" gradientUnits="userSpaceOnUse">
<stop stop-color="#470E88"/>
<stop offset="0.989583" stop-color="#28173C"/>
</linearGradient>
<linearGradient id="paint1_linear_1_62" x1="28" y1="8.00098" x2="28" y2="47.9999" gradientUnits="userSpaceOnUse">
<stop stop-color="white"/>
<stop offset="1" stop-color="white" stop-opacity="0"/>
</linearGradient>
</defs>
</svg>
