<svg width="193" height="40" viewBox="0 0 193 40" fill="none" xmlns="http://www.w3.org/2000/svg">
<rect width="193.001" height="40.0014" rx="8" fill="url(#paint0_linear_1_56)"/>
<rect x="1.07143" y="1.07143" width="190.858" height="37.8585" rx="6.92857" stroke="white" stroke-opacity="0.15" stroke-width="2.14286"/>
<g filter="url(#filter0_d_1_56)">
<path d="M8 29.7022L14.5882 19.8199L8 9.9375H12.9412L19.5294 19.8199L12.9412 29.7022" fill="#453A62"/>
<path d="M14.5882 29.7022L21.1765 19.8199L14.5882 9.9375H19.5294L32.7059 29.7022H27.7647L23.6471 23.5257L19.5294 29.7022" fill="#5E5086"/>
<path d="M30.4988 23.9375L28.3132 20.6434H36V23.9375M27.2146 18.9963L25.0191 15.7022H36V18.9963" fill="#8F4E8B"/>
</g>
<g filter="url(#filter1_d_1_56)">
<path d="M43.3597 26.5007V14.1371H47.8874C48.7648 14.1371 49.4912 14.282 50.0667 14.5717C50.6423 14.8575 51.0729 15.2458 51.3586 15.7369C51.6444 16.2238 51.7873 16.7732 51.7873 17.3849C51.7873 17.9001 51.6927 18.3347 51.5035 18.6889C51.3144 19.0391 51.0608 19.3208 50.7429 19.5341C50.429 19.7434 50.0828 19.8963 49.7045 19.9929V20.1136C50.115 20.1337 50.5155 20.2666 50.9059 20.5121C51.3003 20.7535 51.6263 21.0976 51.8839 21.5444C52.1414 21.9911 52.2702 22.5344 52.2702 23.1743C52.2702 23.8062 52.1213 24.3737 51.8235 24.8768C51.5297 25.3758 51.0749 25.7722 50.4591 26.066C49.8434 26.3558 49.0566 26.5007 48.0987 26.5007H43.3597ZM45.2251 24.9009H47.9176C48.8111 24.9009 49.451 24.7279 49.8373 24.3817C50.2237 24.0356 50.4169 23.603 50.4169 23.0838C50.4169 22.6934 50.3183 22.3352 50.1211 22.0092C49.9239 21.6832 49.6421 21.4236 49.2759 21.2305C48.9137 21.0373 48.483 20.9407 47.984 20.9407H45.2251V24.9009ZM45.2251 19.4858H47.7244C48.143 19.4858 48.5193 19.4053 48.8533 19.2443C49.1914 19.0833 49.459 18.8579 49.6562 18.5682C49.8575 18.2744 49.9581 17.9283 49.9581 17.5298C49.9581 17.0187 49.779 16.5901 49.4208 16.244C49.0626 15.8978 48.5132 15.7248 47.7727 15.7248H45.2251V19.4858ZM60.2118 22.6552V17.228H62.0229V26.5007H60.248V24.8949H60.1514C59.9381 25.3899 59.596 25.8024 59.1251 26.1324C58.6583 26.4584 58.0767 26.6214 57.3805 26.6214C56.7848 26.6214 56.2576 26.4906 55.7988 26.229C55.344 25.9634 54.9858 25.571 54.7242 25.0518C54.4667 24.5327 54.3379 23.8907 54.3379 23.1261V17.228H56.1429V22.9087C56.1429 23.5406 56.318 24.0437 56.6681 24.418C57.0183 24.7922 57.473 24.9794 58.0325 24.9794C58.3705 24.9794 58.7066 24.8949 59.0406 24.7258C59.3787 24.5568 59.6584 24.3012 59.8798 23.9591C60.1051 23.6171 60.2158 23.1824 60.2118 22.6552ZM64.4482 26.5007V17.228H66.2533V26.5007H64.4482ZM65.3598 15.7972C65.0459 15.7972 64.7762 15.6926 64.5508 15.4833C64.3295 15.27 64.2188 15.0164 64.2188 14.7226C64.2188 14.4248 64.3295 14.1713 64.5508 13.962C64.7762 13.7487 65.0459 13.642 65.3598 13.642C65.6737 13.642 65.9413 13.7487 66.1627 13.962C66.3881 14.1713 66.5008 14.4248 66.5008 14.7226C66.5008 15.0164 66.3881 15.27 66.1627 15.4833C65.9413 15.6926 65.6737 15.7972 65.3598 15.7972ZM70.4867 14.1371V26.5007H68.6816V14.1371H70.4867ZM77.2435 17.228V18.6768H72.1785V17.228H77.2435ZM73.5368 15.0064H75.3419V23.778C75.3419 24.1282 75.3942 24.3918 75.4988 24.5689C75.6035 24.7419 75.7383 24.8607 75.9033 24.9251C76.0723 24.9854 76.2554 25.0156 76.4526 25.0156C76.5975 25.0156 76.7243 25.0056 76.833 24.9854C76.9416 24.9653 77.0262 24.9492 77.0865 24.9371L77.4125 26.4283C77.3079 26.4685 77.159 26.5087 76.9658 26.549C76.7726 26.5933 76.5311 26.6174 76.2414 26.6214C75.7664 26.6295 75.3237 26.545 74.9132 26.3679C74.5027 26.1908 74.1707 25.9171 73.9171 25.5469C73.6636 25.1766 73.5368 24.7118 73.5368 24.1523V15.0064ZM85.7495 26.5007L83.0208 17.228H84.8862L86.7034 24.0376H86.7939L88.6171 17.228H90.4825L92.2936 24.0074H92.3841L94.1891 17.228H96.0546L93.3319 26.5007H91.4906L89.6071 19.8057H89.4683L87.5847 26.5007H85.7495ZM97.7675 26.5007V17.228H99.5726V26.5007H97.7675ZM98.6791 15.7972C98.3652 15.7972 98.0955 15.6926 97.8702 15.4833C97.6488 15.27 97.5381 15.0164 97.5381 14.7226C97.5381 14.4248 97.6488 14.1713 97.8702 13.962C98.0955 13.7487 98.3652 13.642 98.6791 13.642C98.993 13.642 99.2607 13.7487 99.482 13.962C99.7074 14.1713 99.8201 14.4248 99.8201 14.7226C99.8201 15.0164 99.7074 15.27 99.482 15.4833C99.2607 15.6926 98.993 15.7972 98.6791 15.7972ZM106.329 17.228V18.6768H101.264V17.228H106.329ZM102.623 15.0064H104.428V23.778C104.428 24.1282 104.48 24.3918 104.585 24.5689C104.689 24.7419 104.824 24.8607 104.989 24.9251C105.158 24.9854 105.341 25.0156 105.539 25.0156C105.683 25.0156 105.81 25.0056 105.919 24.9854C106.028 24.9653 106.112 24.9492 106.172 24.9371L106.498 26.4283C106.394 26.4685 106.245 26.5087 106.052 26.549C105.859 26.5933 105.617 26.6174 105.327 26.6214C104.852 26.6295 104.41 26.545 103.999 26.3679C103.589 26.1908 103.257 25.9171 103.003 25.5469C102.75 25.1766 102.623 24.7118 102.623 24.1523V15.0064ZM110.33 20.995V26.5007H108.525V14.1371H110.306V18.7372H110.421C110.638 18.2382 110.97 17.8417 111.417 17.5479C111.864 17.2541 112.447 17.1072 113.168 17.1072C113.804 17.1072 114.359 17.238 114.834 17.4996C115.313 17.7612 115.683 18.1516 115.945 18.6708C116.21 19.1859 116.343 19.8299 116.343 20.6026V26.5007H114.538V20.8199C114.538 20.1398 114.363 19.6126 114.013 19.2383C113.663 18.86 113.176 18.6708 112.552 18.6708C112.125 18.6708 111.743 18.7614 111.405 18.9425C111.071 19.1236 110.807 19.3892 110.614 19.7393C110.425 20.0855 110.33 20.504 110.33 20.995Z" fill="#E8E8E8"/>
<path d="M122.937 26.0007V13.6371H125.925V18.5994H130.797V13.6371H133.779V26.0007H130.797V21.0323H125.925V26.0007H122.937ZM138.268 26.1577C137.676 26.1577 137.151 26.0591 136.692 25.8618C136.237 25.6606 135.877 25.3588 135.612 24.9563C135.35 24.5498 135.219 24.0407 135.219 23.429C135.219 22.9138 135.31 22.4792 135.491 22.125C135.672 21.7708 135.922 21.4831 136.239 21.2617C136.557 21.0404 136.924 20.8733 137.338 20.7606C137.753 20.6439 138.195 20.5654 138.666 20.5252C139.194 20.4769 139.618 20.4266 139.94 20.3743C140.262 20.3179 140.496 20.2395 140.64 20.1388C140.789 20.0342 140.864 19.8873 140.864 19.6981V19.668C140.864 19.3581 140.757 19.1186 140.544 18.9496C140.33 18.7805 140.043 18.696 139.681 18.696C139.29 18.696 138.976 18.7805 138.739 18.9496C138.501 19.1186 138.35 19.352 138.286 19.6498L135.563 19.5533C135.644 18.9898 135.851 18.4867 136.185 18.044C136.523 17.5973 136.986 17.2471 137.574 16.9936C138.165 16.736 138.876 16.6072 139.705 16.6072C140.296 16.6072 140.842 16.6777 141.341 16.8185C141.84 16.9554 142.274 17.1566 142.645 17.4222C143.015 17.6838 143.301 18.0058 143.502 18.3881C143.707 18.7705 143.81 19.2071 143.81 19.6981V26.0007H141.033V24.7088H140.96C140.795 25.0227 140.584 25.2883 140.326 25.5057C140.073 25.723 139.773 25.886 139.427 25.9947C139.085 26.1033 138.699 26.1577 138.268 26.1577ZM139.179 24.2258C139.497 24.2258 139.783 24.1614 140.037 24.0327C140.294 23.9039 140.5 23.7268 140.652 23.5014C140.805 23.272 140.882 23.0064 140.882 22.7045V21.8231C140.797 21.8674 140.695 21.9077 140.574 21.9439C140.457 21.9801 140.328 22.0143 140.188 22.0465C140.047 22.0787 139.902 22.1069 139.753 22.131C139.604 22.1552 139.461 22.1773 139.324 22.1974C139.047 22.2417 138.809 22.3101 138.612 22.4027C138.419 22.4953 138.27 22.616 138.165 22.7649C138.065 22.9098 138.014 23.0828 138.014 23.2841C138.014 23.59 138.123 23.8234 138.34 23.9844C138.562 24.1453 138.841 24.2258 139.179 24.2258ZM153.71 19.5593L151 19.6317C150.972 19.4386 150.895 19.2675 150.77 19.1186C150.646 18.9657 150.483 18.8469 150.281 18.7624C150.084 18.6739 149.855 18.6296 149.593 18.6296C149.251 18.6296 148.959 18.698 148.718 18.8349C148.48 18.9717 148.364 19.1568 148.368 19.3903C148.364 19.5714 148.436 19.7283 148.585 19.8611C148.738 19.994 149.01 20.1006 149.4 20.1811L151.187 20.5192C152.113 20.6962 152.801 20.99 153.252 21.4006C153.706 21.8111 153.936 22.3544 153.94 23.0305C153.936 23.6664 153.747 24.2198 153.372 24.6907C153.002 25.1616 152.495 25.5278 151.851 25.7894C151.207 26.047 150.471 26.1758 149.641 26.1758C148.317 26.1758 147.273 25.9041 146.508 25.3608C145.748 24.8134 145.313 24.081 145.204 23.1633L148.12 23.0909C148.185 23.429 148.352 23.6865 148.621 23.8636C148.891 24.0407 149.235 24.1292 149.654 24.1292C150.032 24.1292 150.34 24.0588 150.577 23.918C150.815 23.7771 150.935 23.5899 150.939 23.3565C150.935 23.1472 150.843 22.9802 150.662 22.8555C150.481 22.7267 150.197 22.6261 149.81 22.5536L148.193 22.2457C147.263 22.0767 146.571 21.7648 146.116 21.31C145.661 20.8512 145.436 20.2676 145.44 19.5593C145.436 18.9395 145.601 18.4103 145.935 17.9716C146.269 17.5289 146.744 17.1908 147.359 16.9574C147.975 16.7239 148.702 16.6072 149.539 16.6072C150.795 16.6072 151.785 16.8708 152.509 17.3981C153.233 17.9213 153.634 18.6417 153.71 19.5593ZM158.055 23.5678L158.068 20.0483H158.478L161.086 16.728H164.43L160.555 21.4851H159.776L158.055 23.5678ZM155.393 26.0007V13.6371H158.345V26.0007H155.393ZM161.152 26.0007L158.726 22.1491L160.669 20.0543L164.563 26.0007H161.152ZM169.44 26.1758C168.47 26.1758 167.633 25.9846 166.928 25.6023C166.228 25.2159 165.689 24.6665 165.31 23.9542C164.936 23.2378 164.749 22.3866 164.749 21.4006C164.749 20.4427 164.938 19.6056 165.316 18.8892C165.695 18.1688 166.228 17.6094 166.916 17.2109C167.604 16.8085 168.415 16.6072 169.349 16.6072C170.009 16.6072 170.613 16.7099 171.16 16.9151C171.707 17.1204 172.18 17.4242 172.579 17.8267C172.977 18.2292 173.287 18.7262 173.508 19.3178C173.73 19.9054 173.84 20.5795 173.84 21.3402V22.0767H165.781V20.3622H171.094C171.09 20.0483 171.015 19.7686 170.87 19.5231C170.725 19.2776 170.526 19.0864 170.273 18.9496C170.023 18.8087 169.735 18.7383 169.409 18.7383C169.079 18.7383 168.784 18.8127 168.522 18.9616C168.26 19.1065 168.053 19.3057 167.9 19.5593C167.747 19.8088 167.667 20.0926 167.659 20.4105V22.1552C167.659 22.5335 167.733 22.8655 167.882 23.1513C168.031 23.433 168.242 23.6523 168.516 23.8093C168.79 23.9663 169.116 24.0447 169.494 24.0447C169.756 24.0447 169.993 24.0085 170.206 23.9361C170.42 23.8636 170.603 23.757 170.756 23.6161C170.909 23.4752 171.023 23.3022 171.1 23.0969L173.81 23.1754C173.698 23.7831 173.45 24.3124 173.068 24.7631C172.689 25.2099 172.192 25.558 171.577 25.8075C170.961 26.053 170.249 26.1758 169.44 26.1758ZM178.3 13.6371V26.0007H175.348V13.6371H178.3ZM183.131 13.6371V26.0007H180.179V13.6371H183.131Z" fill="#453A62"/>
</g>
<defs>
<filter id="filter0_d_1_56" x="2.39972" y="0.39972" width="39.202" height="39.202" filterUnits="userSpaceOnUse" color-interpolation-filters="sRGB">
<feFlood flood-opacity="0" result="BackgroundImageFix"/>
<feColorMatrix in="SourceAlpha" type="matrix" values="0 0 0 0 0 0 0 0 0 0 0 0 0 0 0 0 0 0 127 0" result="hardAlpha"/>
<feOffset/>
<feGaussianBlur stdDeviation="2.80014"/>
<feComposite in2="hardAlpha" operator="out"/>
<feColorMatrix type="matrix" values="0 0 0 0 0 0 0 0 0 0 0 0 0 0 0 0 0 0 0.25 0"/>
<feBlend mode="normal" in2="BackgroundImageFix" result="effect1_dropShadow_1_56"/>
<feBlend mode="normal" in="SourceGraphic" in2="effect1_dropShadow_1_56" result="shape"/>
</filter>
<filter id="filter1_d_1_56" x="36.2871" y="3.78642" width="154.429" height="32.4286" filterUnits="userSpaceOnUse" color-interpolation-filters="sRGB">
<feFlood flood-opacity="0" result="BackgroundImageFix"/>
<feColorMatrix in="SourceAlpha" type="matrix" values="0 0 0 0 0 0 0 0 0 0 0 0 0 0 0 0 0 0 127 0" result="hardAlpha"/>
<feOffset/>
<feGaussianBlur stdDeviation="2.85714"/>
<feComposite in2="hardAlpha" operator="out"/>
<feColorMatrix type="matrix" values="0 0 0 0 0 0 0 0 0 0 0 0 0 0 0 0 0 0 0.25 0"/>
<feBlend mode="normal" in2="BackgroundImageFix" result="effect1_dropShadow_1_56"/>
<feBlend mode="normal" in="SourceGraphic" in2="effect1_dropShadow_1_56" result="shape"/>
</filter>
<linearGradient id="paint0_linear_1_56" x1="96.5007" y1="0" x2="96.5007" y2="40.0014" gradientUnits="userSpaceOnUse">
<stop stop-color="#9C90BD"/>
<stop offset="1" stop-color="#C28FBF"/>
</linearGradient>
</defs>
</svg>
