<svg width="144" height="56" viewBox="0 0 144 56" fill="none" xmlns="http://www.w3.org/2000/svg">
<rect width="144" height="56" rx="8" fill="url(#paint0_linear_1_50)"/>
<rect x="1.05" y="1.05" width="141.9" height="53.9" rx="6.95" stroke="white" stroke-opacity="0.15" stroke-width="2.1"/>
<g filter="url(#filter0_d_1_50)">
<path d="M12 41.8603L21.4118 27.7426L12 13.625H19.0588L28.4706 27.7426L19.0588 41.8603" fill="#453A62"/>
<path d="M21.4118 41.8603L30.8235 27.7426L21.4118 13.625H28.4706L47.2941 41.8603H40.2353L34.3529 33.0368L28.4706 41.8603" fill="#5E5086"/>
<path d="M44.1412 33.625L41.0188 28.9191H52V33.625M39.4494 26.5662L36.3129 21.8603H52V26.5662" fill="#8F4E8B"/>
</g>
<g filter="url(#filter1_d_1_50)">
<path d="M61.2784 24.5V12.8636H65.5398C66.3655 12.8636 67.0492 13 67.5909 13.2727C68.1326 13.5417 68.5379 13.9072 68.8068 14.3693C69.0757 14.8276 69.2102 15.3447 69.2102 15.9204C69.2102 16.4053 69.1212 16.8144 68.9432 17.1477C68.7651 17.4773 68.5265 17.7424 68.2273 17.9432C67.9318 18.1401 67.606 18.2841 67.25 18.375V18.4886C67.6363 18.5076 68.0132 18.6326 68.3807 18.8636C68.7519 19.0909 69.0587 19.4148 69.3011 19.8352C69.5435 20.2557 69.6648 20.767 69.6648 21.3693C69.6648 21.964 69.5246 22.4981 69.2443 22.9716C68.9678 23.4413 68.5398 23.8144 67.9602 24.0909C67.3807 24.3636 66.6401 24.5 65.7386 24.5H61.2784ZM63.0341 22.9943H65.5682C66.4091 22.9943 67.0113 22.8314 67.375 22.5057C67.7386 22.1799 67.9204 21.7727 67.9204 21.2841C67.9204 20.9167 67.8276 20.5795 67.642 20.2727C67.4564 19.9659 67.1913 19.7216 66.8466 19.5398C66.5057 19.3579 66.1004 19.267 65.6307 19.267H63.0341V22.9943ZM63.0341 17.8977H65.3863C65.7803 17.8977 66.1345 17.822 66.4488 17.6704C66.767 17.5189 67.0189 17.3068 67.2045 17.0341C67.3939 16.7576 67.4886 16.4318 67.4886 16.0568C67.4886 15.5758 67.3201 15.1723 66.9829 14.8466C66.6458 14.5208 66.1288 14.3579 65.4318 14.3579H63.0341V17.8977ZM77.1392 20.8807V15.7727H78.8437V24.5H77.1733V22.9886H77.0824C76.8816 23.4545 76.5596 23.8428 76.1165 24.1534C75.6771 24.4602 75.1297 24.6136 74.4744 24.6136C73.9138 24.6136 73.4176 24.4905 72.9858 24.2443C72.5577 23.9943 72.2206 23.625 71.9744 23.1364C71.732 22.6477 71.6108 22.0436 71.6108 21.3239V15.7727H73.3096V21.1193C73.3096 21.714 73.4744 22.1875 73.804 22.5398C74.1335 22.892 74.5615 23.0682 75.088 23.0682C75.4062 23.0682 75.7225 22.9886 76.0369 22.8295C76.3551 22.6704 76.6184 22.4299 76.8267 22.1079C77.0388 21.786 77.143 21.3769 77.1392 20.8807ZM81.1264 24.5V15.7727H82.8253V24.5H81.1264ZM81.9844 14.4261C81.6889 14.4261 81.4351 14.3276 81.223 14.1307C81.0147 13.9299 80.9105 13.6913 80.9105 13.4148C80.9105 13.1345 81.0147 12.8958 81.223 12.6989C81.4351 12.4981 81.6889 12.3977 81.9844 12.3977C82.2798 12.3977 82.5317 12.4981 82.74 12.6989C82.9522 12.8958 83.0582 13.1345 83.0582 13.4148C83.0582 13.6913 82.9522 13.9299 82.74 14.1307C82.5317 14.3276 82.2798 14.4261 81.9844 14.4261ZM86.8096 12.8636V24.5H85.1108V12.8636H86.8096ZM93.169 15.7727V17.1364H88.402V15.7727H93.169ZM89.6804 13.6818H91.3792V21.9375C91.3792 22.267 91.4285 22.5151 91.527 22.6818C91.6254 22.8447 91.7523 22.9564 91.9076 23.017C92.0667 23.0739 92.2391 23.1023 92.4247 23.1023C92.5611 23.1023 92.6804 23.0928 92.7826 23.0739C92.8849 23.0549 92.9645 23.0398 93.0213 23.0284L93.3281 24.4318C93.2296 24.4697 93.0895 24.5076 92.9076 24.5454C92.7258 24.5871 92.4986 24.6098 92.2258 24.6136C91.7789 24.6212 91.3622 24.5417 90.9758 24.375C90.5895 24.2083 90.277 23.9508 90.0383 23.6023C89.7997 23.2538 89.6804 22.8163 89.6804 22.2898V13.6818ZM101.175 24.5L98.6065 15.7727H100.362L102.072 22.1818H102.158L103.874 15.7727H105.629L107.334 22.1534H107.419L109.118 15.7727H110.874L108.311 24.5H106.578L104.805 18.1989H104.675L102.902 24.5H101.175ZM112.486 24.5V15.7727H114.185V24.5H112.486ZM113.344 14.4261C113.048 14.4261 112.794 14.3276 112.582 14.1307C112.374 13.9299 112.27 13.6913 112.27 13.4148C112.27 13.1345 112.374 12.8958 112.582 12.6989C112.794 12.4981 113.048 12.3977 113.344 12.3977C113.639 12.3977 113.891 12.4981 114.099 12.6989C114.312 12.8958 114.418 13.1345 114.418 13.4148C114.418 13.6913 114.312 13.9299 114.099 14.1307C113.891 14.3276 113.639 14.4261 113.344 14.4261ZM120.544 15.7727V17.1364H115.777V15.7727H120.544ZM117.055 13.6818H118.754V21.9375C118.754 22.267 118.803 22.5151 118.902 22.6818C119 22.8447 119.127 22.9564 119.283 23.017C119.442 23.0739 119.614 23.1023 119.8 23.1023C119.936 23.1023 120.055 23.0928 120.158 23.0739C120.26 23.0549 120.339 23.0398 120.396 23.0284L120.703 24.4318C120.605 24.4697 120.464 24.5076 120.283 24.5454C120.101 24.5871 119.874 24.6098 119.601 24.6136C119.154 24.6212 118.737 24.5417 118.351 24.375C117.964 24.2083 117.652 23.9508 117.413 23.6023C117.175 23.2538 117.055 22.8163 117.055 22.2898V13.6818ZM124.31 19.3182V24.5H122.611V12.8636H124.287V17.1932H124.395C124.599 16.7235 124.912 16.3504 125.332 16.0739C125.753 15.7973 126.302 15.6591 126.98 15.6591C127.579 15.6591 128.101 15.7822 128.548 16.0284C128.999 16.2746 129.348 16.642 129.594 17.1307C129.844 17.6155 129.969 18.2216 129.969 18.9489V24.5H128.27V19.1534C128.27 18.5133 128.105 18.017 127.776 17.6648C127.446 17.3087 126.988 17.1307 126.401 17.1307C125.999 17.1307 125.639 17.2159 125.321 17.3864C125.007 17.5568 124.758 17.8068 124.577 18.1364C124.399 18.4621 124.31 18.8561 124.31 19.3182Z" fill="#E8E8E8"/>
<path d="M60.9357 43.5V31.1364H63.924V36.0987H68.7958V31.1364H71.778V43.5H68.7958V38.5316H63.924V43.5H60.9357ZM76.2665 43.6569C75.6749 43.6569 75.1497 43.5583 74.6909 43.3611C74.2361 43.1599 73.8759 42.8581 73.6102 42.4556C73.3486 42.0491 73.2178 41.54 73.2178 40.9283C73.2178 40.4131 73.3084 39.9784 73.4895 39.6243C73.6706 39.2701 73.9201 38.9824 74.2381 38.761C74.556 38.5396 74.9223 38.3726 75.3368 38.2599C75.7513 38.1432 76.194 38.0647 76.6649 38.0245C77.1922 37.9762 77.6168 37.9259 77.9387 37.8736C78.2607 37.8172 78.4941 37.7387 78.639 37.6381C78.7879 37.5335 78.8624 37.3866 78.8624 37.1974V37.1672C78.8624 36.8574 78.7557 36.6179 78.5424 36.4489C78.3291 36.2798 78.0414 36.1953 77.6791 36.1953C77.2887 36.1953 76.9748 36.2798 76.7374 36.4489C76.4999 36.6179 76.349 36.8513 76.2846 37.1491L73.5619 37.0525C73.6424 36.4891 73.8497 35.986 74.1838 35.5433C74.5218 35.0966 74.9847 34.7464 75.5722 34.4929C76.1639 34.2353 76.8742 34.1065 77.7033 34.1065C78.2949 34.1065 78.8402 34.177 79.3393 34.3178C79.8383 34.4547 80.273 34.6559 80.6433 34.9215C81.0135 35.1831 81.2993 35.5051 81.5005 35.8874C81.7058 36.2698 81.8084 36.7064 81.8084 37.1974V43.5H79.0314V42.2081H78.959C78.794 42.522 78.5827 42.7876 78.3251 43.005C78.0715 43.2223 77.7717 43.3853 77.4256 43.494C77.0835 43.6026 76.6971 43.6569 76.2665 43.6569ZM77.1781 41.7251C77.496 41.7251 77.7818 41.6607 78.0353 41.5319C78.2929 41.4032 78.4981 41.2261 78.6511 41.0007C78.804 40.7713 78.8805 40.5057 78.8805 40.2038V39.3224C78.796 39.3667 78.6933 39.4069 78.5726 39.4432C78.4559 39.4794 78.3271 39.5136 78.1862 39.5458C78.0454 39.578 77.9005 39.6062 77.7516 39.6303C77.6027 39.6545 77.4598 39.6766 77.323 39.6967C77.0453 39.741 76.8078 39.8094 76.6106 39.902C76.4174 39.9945 76.2685 40.1153 76.1639 40.2642C76.0632 40.4091 76.0129 40.5821 76.0129 40.7834C76.0129 41.0892 76.1216 41.3227 76.3389 41.4837C76.5603 41.6446 76.84 41.7251 77.1781 41.7251ZM91.709 37.0586L88.9984 37.131C88.9702 36.9378 88.8937 36.7668 88.769 36.6179C88.6442 36.465 88.4812 36.3462 88.28 36.2617C88.0828 36.1732 87.8534 36.1289 87.5918 36.1289C87.2497 36.1289 86.9579 36.1973 86.7164 36.3342C86.479 36.471 86.3623 36.6561 86.3663 36.8895C86.3623 37.0707 86.4347 37.2276 86.5836 37.3604C86.7365 37.4932 87.0082 37.5999 87.3986 37.6804L89.1855 38.0185C90.1112 38.1955 90.7994 38.4893 91.2502 38.8998C91.7049 39.3104 91.9343 39.8537 91.9384 40.5298C91.9343 41.1657 91.7452 41.7191 91.3709 42.19C91.0006 42.6609 90.4935 43.0271 89.8496 43.2887C89.2056 43.5463 88.4691 43.6751 87.6401 43.6751C86.316 43.6751 85.2716 43.4034 84.5069 42.8601C83.7462 42.3127 83.3116 41.5802 83.2029 40.6626L86.1188 40.5902C86.1832 40.9283 86.3502 41.1858 86.6198 41.3629C86.8895 41.54 87.2336 41.6285 87.6521 41.6285C88.0305 41.6285 88.3383 41.5581 88.5758 41.4172C88.8132 41.2764 88.934 41.0892 88.938 40.8558C88.934 40.6465 88.8414 40.4795 88.6603 40.3547C88.4792 40.226 88.1955 40.1253 87.8091 40.0529L86.1912 39.745C85.2615 39.576 84.5693 39.2641 84.1145 38.8093C83.6597 38.3505 83.4343 37.7669 83.4384 37.0586C83.4343 36.4388 83.5994 35.9096 83.9334 35.4709C84.2674 35.0282 84.7423 34.6901 85.3581 34.4567C85.9739 34.2232 86.7003 34.1065 87.5374 34.1065C88.7931 34.1065 89.7832 34.3701 90.5076 34.8974C91.232 35.4206 91.6325 36.141 91.709 37.0586ZM96.054 41.0671L96.0661 37.5476H96.4766L99.0846 34.2273H102.429L98.5533 38.9844H97.7746L96.054 41.0671ZM93.3918 43.5V31.1364H96.3438V43.5H93.3918ZM99.151 43.5L96.7241 39.6484L98.668 37.5536L102.562 43.5H99.151ZM107.438 43.6751C106.468 43.6751 105.631 43.4839 104.927 43.1016C104.227 42.7152 103.687 42.1658 103.309 41.4535C102.935 40.7371 102.747 39.8859 102.747 38.8998C102.747 37.942 102.937 37.1049 103.315 36.3885C103.693 35.6681 104.227 35.1087 104.915 34.7102C105.603 34.3078 106.414 34.1065 107.348 34.1065C108.008 34.1065 108.611 34.2092 109.159 34.4144C109.706 34.6197 110.179 34.9235 110.577 35.326C110.976 35.7284 111.286 36.2255 111.507 36.8171C111.728 37.4047 111.839 38.0788 111.839 38.8395V39.576H103.78V37.8615H109.092C109.088 37.5476 109.014 37.2679 108.869 37.0224C108.724 36.7769 108.525 36.5857 108.271 36.4489C108.022 36.308 107.734 36.2376 107.408 36.2376C107.078 36.2376 106.782 36.312 106.521 36.4609C106.259 36.6058 106.052 36.805 105.899 37.0586C105.746 37.3081 105.665 37.5918 105.657 37.9098V39.6545C105.657 40.0328 105.732 40.3648 105.881 40.6506C106.03 40.9323 106.241 41.1516 106.515 41.3086C106.788 41.4655 107.114 41.544 107.493 41.544C107.754 41.544 107.992 41.5078 108.205 41.4354C108.418 41.3629 108.601 41.2563 108.754 41.1154C108.907 40.9745 109.022 40.8015 109.098 40.5962L111.809 40.6747C111.696 41.2824 111.449 41.8117 111.066 42.2624C110.688 42.7092 110.191 43.0573 109.575 43.3068C108.959 43.5523 108.247 43.6751 107.438 43.6751ZM116.299 31.1364V43.5H113.347V31.1364H116.299ZM121.13 31.1364V43.5H118.178V31.1364H121.13Z" fill="#453A62"/>
</g>
<defs>
<filter id="filter0_d_1_50" x="6.28571" y="2.28571" width="51.4286" height="51.4286" filterUnits="userSpaceOnUse" color-interpolation-filters="sRGB">
<feFlood flood-opacity="0" result="BackgroundImageFix"/>
<feColorMatrix in="SourceAlpha" type="matrix" values="0 0 0 0 0 0 0 0 0 0 0 0 0 0 0 0 0 0 127 0" result="hardAlpha"/>
<feOffset/>
<feGaussianBlur stdDeviation="2.85714"/>
<feComposite in2="hardAlpha" operator="out"/>
<feColorMatrix type="matrix" values="0 0 0 0 0 0 0 0 0 0 0 0 0 0 0 0 0 0 0.25 0"/>
<feBlend mode="normal" in2="BackgroundImageFix" result="effect1_dropShadow_1_50"/>
<feBlend mode="normal" in="SourceGraphic" in2="effect1_dropShadow_1_50" result="shape"/>
</filter>
<filter id="filter1_d_1_50" x="54.4" y="3.9" width="83.2" height="48.2" filterUnits="userSpaceOnUse" color-interpolation-filters="sRGB">
<feFlood flood-opacity="0" result="BackgroundImageFix"/>
<feColorMatrix in="SourceAlpha" type="matrix" values="0 0 0 0 0 0 0 0 0 0 0 0 0 0 0 0 0 0 127 0" result="hardAlpha"/>
<feOffset/>
<feGaussianBlur stdDeviation="2.8"/>
<feComposite in2="hardAlpha" operator="out"/>
<feColorMatrix type="matrix" values="0 0 0 0 0 0 0 0 0 0 0 0 0 0 0 0 0 0 0.25 0"/>
<feBlend mode="normal" in2="BackgroundImageFix" result="effect1_dropShadow_1_50"/>
<feBlend mode="normal" in="SourceGraphic" in2="effect1_dropShadow_1_50" result="shape"/>
</filter>
<linearGradient id="paint0_linear_1_50" x1="72" y1="0" x2="72" y2="56" gradientUnits="userSpaceOnUse">
<stop stop-color="#9C90BD"/>
<stop offset="1" stop-color="#C28FBF"/>
<stop offset="1" stop-color="#C28FBF"/>
</linearGradient>
</defs>
</svg>
