<svg width="40" height="40" viewBox="0 0 40 40" fill="none" xmlns="http://www.w3.org/2000/svg">
<rect width="40" height="40" rx="8" fill="url(#paint0_linear_1_68)"/>
<rect x="1.05" y="1.05" width="37.9" height="37.9" rx="6.95" stroke="white" stroke-opacity="0.15" stroke-width="2.1"/>
<g filter="url(#filter0_d_1_68)">
<path d="M32.3297 13.7176C33.8542 16.7095 34.239 20.1536 33.4125 23.4082C32.586 26.6628 30.6045 29.506 27.8372 31.408C25.0699 33.3099 21.7055 34.141 18.3709 33.7464C15.0363 33.3518 11.9588 31.7584 9.71187 29.263C7.46495 26.7676 6.2018 23.5405 6.15779 20.1829C6.11377 16.8253 7.29187 13.5662 9.47261 11.0128C11.6533 8.45934 14.688 6.78578 18.0111 6.30388C21.3343 5.82197 24.7193 6.5646 27.5355 8.39339" stroke="#808080" stroke-width="0.734118" stroke-dasharray="2.76 2.76"/>
<path d="M19.9972 30.7063C25.9095 30.7063 30.7024 25.9134 30.7024 20.0011C30.7024 14.0888 25.9095 9.29597 19.9972 9.29597C14.0849 9.29597 9.29206 14.0888 9.29206 20.0011C9.29206 25.9134 14.0849 30.7063 19.9972 30.7063Z" fill="#000080"/>
<path d="M24.4316 18.7024C26.1633 18.7024 27.567 17.2987 27.567 15.5671C27.567 13.8354 26.1633 12.4317 24.4316 12.4317C22.7 12.4317 21.2962 13.8354 21.2962 15.5671C21.2962 17.2987 22.7 18.7024 24.4316 18.7024Z" fill="white"/>
<path d="M30.7027 12.4317C32.4345 12.4317 33.8384 11.0278 33.8384 9.29597C33.8384 7.56418 32.4345 6.16028 30.7027 6.16028C28.9709 6.16028 27.567 7.56418 27.567 9.29597C27.567 11.0278 28.9709 12.4317 30.7027 12.4317Z" fill="#000080"/>
<path d="M17.0973 25.3536V24.5635H13.6289V18.3297H12.7328V25.3537H17.0972M21.9127 25.3536V20.3051H21.113V23.0896C21.113 24.1205 20.5735 24.795 19.7352 24.795C19.0994 24.795 18.6946 24.4096 18.6946 23.8026V20.305H17.895V24.1208C17.895 24.9591 18.5212 25.4986 19.5043 25.4986C20.2462 25.4986 20.7183 25.2385 21.1904 24.5737V25.3541H21.913M27.7864 25.3345V24.7275C27.6997 24.7468 27.6612 24.7468 27.613 24.7468C27.3336 24.7468 27.1794 24.6023 27.1794 24.3517V21.5384C27.1794 20.6423 26.5243 20.1606 25.2814 20.1606C24.0578 20.1606 23.3062 20.6327 23.2581 21.7985H24.0674C24.1348 21.1819 24.5009 20.9025 25.2524 20.9025C25.9751 20.9025 26.3797 21.1722 26.3797 21.654V21.8659C26.3797 22.2032 26.1774 22.3477 25.5415 22.4248C24.4046 22.5693 24.2311 22.6078 23.9228 22.7331C23.3351 22.974 23.0365 23.4268 23.0365 24.0434C23.0365 24.9588 23.6723 25.4983 24.6936 25.4983C25.3392 25.4983 25.9654 25.2286 26.4086 24.7564C26.4953 25.1418 26.8422 25.4212 27.2373 25.4212C27.4011 25.4212 27.5263 25.402 27.7865 25.3345M26.3798 23.6099C26.3798 24.3325 25.6475 24.795 24.8674 24.795C24.2411 24.795 23.875 24.5734 23.875 24.0242C23.875 23.4943 24.2315 23.263 25.089 23.1378C25.9369 23.0221 26.1103 22.9836 26.3801 22.8583V23.6099" fill="white"/>
</g>
<defs>
<filter id="filter0_d_1_68" x="1.78954" y="1.81424" width="36.4126" height="36.3897" filterUnits="userSpaceOnUse" color-interpolation-filters="sRGB">
<feFlood flood-opacity="0" result="BackgroundImageFix"/>
<feColorMatrix in="SourceAlpha" type="matrix" values="0 0 0 0 0 0 0 0 0 0 0 0 0 0 0 0 0 0 127 0" result="hardAlpha"/>
<feOffset/>
<feGaussianBlur stdDeviation="2"/>
<feComposite in2="hardAlpha" operator="out"/>
<feColorMatrix type="matrix" values="0 0 0 0 0 0 0 0 0 0 0 0 0 0 0 0 0 0 0.25 0"/>
<feBlend mode="normal" in2="BackgroundImageFix" result="effect1_dropShadow_1_68"/>
<feBlend mode="normal" in="SourceGraphic" in2="effect1_dropShadow_1_68" result="shape"/>
</filter>
<linearGradient id="paint0_linear_1_68" x1="20" y1="0" x2="20" y2="40" gradientUnits="userSpaceOnUse">
<stop stop-color="#000046"/>
<stop offset="1" stop-color="#000026"/>
</linearGradient>
</defs>
</svg>
