<svg width="161" height="40" viewBox="0 0 161 40" fill="none" xmlns="http://www.w3.org/2000/svg">
<rect width="161.001" height="40.0014" rx="8" fill="url(#paint0_linear_1_56)"/>
<rect x="1.07143" y="1.07143" width="158.859" height="37.8585" rx="6.92857" stroke="white" stroke-opacity="0.15" stroke-width="2.14286"/>
<g filter="url(#filter0_d_1_56)">
<path d="M34.3297 13.7176C35.8542 16.7095 36.239 20.1536 35.4125 23.4082C34.586 26.6628 32.6045 29.506 29.8372 31.408C27.0699 33.3099 23.7055 34.141 20.3709 33.7464C17.0363 33.3518 13.9588 31.7584 11.7119 29.263C9.46494 26.7676 8.2018 23.5405 8.15778 20.1829C8.11377 16.8253 9.29187 13.5662 11.4726 11.0128C13.6533 8.45934 16.688 6.78578 20.0111 6.30388C23.3343 5.82197 26.7193 6.5646 29.5355 8.39339" stroke="#808080" stroke-width="0.734118" stroke-dasharray="2.76 2.76"/>
<path d="M21.9972 30.7063C27.9095 30.7063 32.7024 25.9134 32.7024 20.0011C32.7024 14.0888 27.9095 9.29597 21.9972 9.29597C16.0849 9.29597 11.2921 14.0888 11.2921 20.0011C11.2921 25.9134 16.0849 30.7063 21.9972 30.7063Z" fill="#000080"/>
<path d="M26.4316 18.7024C28.1633 18.7024 29.567 17.2987 29.567 15.5671C29.567 13.8354 28.1633 12.4317 26.4316 12.4317C24.7 12.4317 23.2962 13.8354 23.2962 15.5671C23.2962 17.2987 24.7 18.7024 26.4316 18.7024Z" fill="white"/>
<path d="M32.7027 12.4317C34.4345 12.4317 35.8384 11.0278 35.8384 9.29597C35.8384 7.56418 34.4345 6.16028 32.7027 6.16028C30.9709 6.16028 29.567 7.56418 29.567 9.29597C29.567 11.0278 30.9709 12.4317 32.7027 12.4317Z" fill="#000080"/>
<path d="M19.0973 25.3536V24.5635H15.6289V18.3297H14.7328V25.3537H19.0972M23.9127 25.3536V20.3051H23.113V23.0896C23.113 24.1205 22.5735 24.795 21.7352 24.795C21.0993 24.795 20.6946 24.4096 20.6946 23.8026V20.305H19.895V24.1208C19.895 24.9591 20.5212 25.4986 21.5043 25.4986C22.2462 25.4986 22.7183 25.2385 23.1904 24.5737V25.3541H23.913M29.7864 25.3345V24.7275C29.6997 24.7468 29.6612 24.7468 29.613 24.7468C29.3336 24.7468 29.1794 24.6023 29.1794 24.3517V21.5384C29.1794 20.6423 28.5243 20.1606 27.2814 20.1606C26.0577 20.1606 25.3062 20.6327 25.2581 21.7985H26.0674C26.1348 21.1819 26.5009 20.9025 27.2524 20.9025C27.975 20.9025 28.3797 21.1722 28.3797 21.654V21.8659C28.3797 22.2032 28.1774 22.3477 27.5415 22.4248C26.4046 22.5693 26.2311 22.6078 25.9228 22.7331C25.3351 22.974 25.0364 23.4268 25.0364 24.0434C25.0364 24.9588 25.6723 25.4983 26.6936 25.4983C27.3392 25.4983 27.9654 25.2286 28.4086 24.7564C28.4953 25.1418 28.8422 25.4212 29.2373 25.4212C29.401 25.4212 29.5263 25.402 29.7864 25.3345M28.3798 23.6099C28.3798 24.3325 27.6475 24.795 26.8674 24.795C26.2411 24.795 25.875 24.5734 25.875 24.0242C25.875 23.4943 26.2315 23.263 27.089 23.1378C27.9369 23.0221 28.1103 22.9836 28.3801 22.8583V23.6099" fill="white"/>
</g>
<g filter="url(#filter1_d_1_56)">
<path d="M43.3597 26.5007V14.1371H47.8874C48.7648 14.1371 49.4912 14.282 50.0667 14.5717C50.6423 14.8575 51.0729 15.2458 51.3586 15.7369C51.6444 16.2238 51.7873 16.7732 51.7873 17.3849C51.7873 17.9001 51.6927 18.3347 51.5035 18.6889C51.3144 19.0391 51.0608 19.3208 50.7429 19.5341C50.429 19.7434 50.0828 19.8963 49.7045 19.9929V20.1136C50.115 20.1337 50.5155 20.2666 50.9059 20.5121C51.3003 20.7535 51.6263 21.0976 51.8839 21.5444C52.1414 21.9911 52.2702 22.5344 52.2702 23.1743C52.2702 23.8062 52.1213 24.3737 51.8235 24.8768C51.5297 25.3758 51.0749 25.7722 50.4591 26.066C49.8434 26.3558 49.0566 26.5007 48.0987 26.5007H43.3597ZM45.2251 24.9009H47.9176C48.8111 24.9009 49.451 24.7279 49.8373 24.3817C50.2237 24.0356 50.4169 23.603 50.4169 23.0838C50.4169 22.6934 50.3183 22.3352 50.1211 22.0092C49.9239 21.6832 49.6421 21.4236 49.2759 21.2305C48.9137 21.0373 48.483 20.9407 47.984 20.9407H45.2251V24.9009ZM45.2251 19.4858H47.7244C48.143 19.4858 48.5193 19.4053 48.8533 19.2443C49.1914 19.0833 49.459 18.8579 49.6562 18.5682C49.8575 18.2744 49.9581 17.9283 49.9581 17.5298C49.9581 17.0187 49.779 16.5901 49.4208 16.244C49.0626 15.8978 48.5132 15.7248 47.7727 15.7248H45.2251V19.4858ZM60.2118 22.6552V17.228H62.0229V26.5007H60.248V24.8949H60.1514C59.9381 25.3899 59.596 25.8024 59.1251 26.1324C58.6583 26.4584 58.0767 26.6214 57.3805 26.6214C56.7848 26.6214 56.2576 26.4906 55.7988 26.229C55.344 25.9634 54.9858 25.571 54.7242 25.0518C54.4667 24.5327 54.3379 23.8907 54.3379 23.1261V17.228H56.1429V22.9087C56.1429 23.5406 56.318 24.0437 56.6681 24.418C57.0183 24.7922 57.473 24.9794 58.0325 24.9794C58.3705 24.9794 58.7066 24.8949 59.0406 24.7258C59.3787 24.5568 59.6584 24.3012 59.8798 23.9591C60.1051 23.6171 60.2158 23.1824 60.2118 22.6552ZM64.4482 26.5007V17.228H66.2533V26.5007H64.4482ZM65.3598 15.7972C65.0459 15.7972 64.7762 15.6926 64.5508 15.4833C64.3295 15.27 64.2188 15.0164 64.2188 14.7226C64.2188 14.4248 64.3295 14.1713 64.5508 13.962C64.7762 13.7487 65.0459 13.642 65.3598 13.642C65.6737 13.642 65.9413 13.7487 66.1627 13.962C66.3881 14.1713 66.5008 14.4248 66.5008 14.7226C66.5008 15.0164 66.3881 15.27 66.1627 15.4833C65.9413 15.6926 65.6737 15.7972 65.3598 15.7972ZM70.4867 14.1371V26.5007H68.6816V14.1371H70.4867ZM77.2435 17.228V18.6768H72.1785V17.228H77.2435ZM73.5368 15.0064H75.3419V23.778C75.3419 24.1282 75.3942 24.3918 75.4988 24.5689C75.6035 24.7419 75.7383 24.8607 75.9033 24.9251C76.0723 24.9854 76.2554 25.0156 76.4526 25.0156C76.5975 25.0156 76.7243 25.0056 76.833 24.9854C76.9416 24.9653 77.0262 24.9492 77.0865 24.9371L77.4125 26.4283C77.3079 26.4685 77.159 26.5087 76.9658 26.549C76.7726 26.5933 76.5311 26.6174 76.2414 26.6214C75.7664 26.6295 75.3237 26.545 74.9132 26.3679C74.5027 26.1908 74.1707 25.9171 73.9171 25.5469C73.6636 25.1766 73.5368 24.7118 73.5368 24.1523V15.0064ZM85.7495 26.5007L83.0208 17.228H84.8862L86.7034 24.0376H86.7939L88.6171 17.228H90.4825L92.2936 24.0074H92.3841L94.1891 17.228H96.0546L93.3319 26.5007H91.4906L89.6071 19.8057H89.4683L87.5847 26.5007H85.7495ZM97.7675 26.5007V17.228H99.5726V26.5007H97.7675ZM98.6791 15.7972C98.3652 15.7972 98.0955 15.6926 97.8702 15.4833C97.6488 15.27 97.5381 15.0164 97.5381 14.7226C97.5381 14.4248 97.6488 14.1713 97.8702 13.962C98.0955 13.7487 98.3652 13.642 98.6791 13.642C98.993 13.642 99.2607 13.7487 99.482 13.962C99.7074 14.1713 99.8201 14.4248 99.8201 14.7226C99.8201 15.0164 99.7074 15.27 99.482 15.4833C99.2607 15.6926 98.993 15.7972 98.6791 15.7972ZM106.329 17.228V18.6768H101.264V17.228H106.329ZM102.623 15.0064H104.428V23.778C104.428 24.1282 104.48 24.3918 104.585 24.5689C104.689 24.7419 104.824 24.8607 104.989 24.9251C105.158 24.9854 105.341 25.0156 105.539 25.0156C105.683 25.0156 105.81 25.0056 105.919 24.9854C106.028 24.9653 106.112 24.9492 106.172 24.9371L106.498 26.4283C106.394 26.4685 106.245 26.5087 106.052 26.549C105.859 26.5933 105.617 26.6174 105.327 26.6214C104.852 26.6295 104.41 26.545 103.999 26.3679C103.589 26.1908 103.257 25.9171 103.003 25.5469C102.75 25.1766 102.623 24.7118 102.623 24.1523V15.0064ZM110.33 20.995V26.5007H108.525V14.1371H110.306V18.7372H110.421C110.638 18.2382 110.97 17.8417 111.417 17.5479C111.864 17.2541 112.447 17.1072 113.168 17.1072C113.804 17.1072 114.359 17.238 114.834 17.4996C115.313 17.7612 115.683 18.1516 115.945 18.6708C116.21 19.1859 116.343 19.8299 116.343 20.6026V26.5007H114.538V20.8199C114.538 20.1398 114.363 19.6126 114.013 19.2383C113.663 18.86 113.176 18.6708 112.552 18.6708C112.125 18.6708 111.743 18.7614 111.405 18.9425C111.071 19.1236 110.807 19.3892 110.614 19.7393C110.425 20.0855 110.33 20.504 110.33 20.995Z" fill="#E8E8E8"/>
<path d="M122.937 26.5007V14.1371H125.925V24.0739H131.069V26.5007H122.937ZM138.598 22.4982V17.228H141.544V26.5007H138.731V24.7741H138.635C138.429 25.3416 138.079 25.7924 137.584 26.1264C137.093 26.4564 136.5 26.6214 135.803 26.6214C135.171 26.6214 134.616 26.4765 134.137 26.1868C133.658 25.897 133.286 25.4925 133.02 24.9734C132.755 24.4502 132.62 23.8384 132.616 23.1381V17.228H135.568V22.5586C135.572 23.0617 135.705 23.4581 135.966 23.7479C136.228 24.0376 136.584 24.1825 137.035 24.1825C137.329 24.1825 137.592 24.1181 137.826 23.9893C138.063 23.8565 138.25 23.6654 138.387 23.4158C138.528 23.1623 138.598 22.8564 138.598 22.4982ZM146.037 26.6577C145.446 26.6577 144.921 26.5591 144.462 26.3618C144.007 26.1606 143.647 25.8588 143.381 25.4563C143.12 25.0498 142.989 24.5407 142.989 23.929C142.989 23.4138 143.079 22.9792 143.26 22.625C143.442 22.2708 143.691 21.9831 144.009 21.7617C144.327 21.5404 144.693 21.3733 145.108 21.2606C145.522 21.1439 145.965 21.0654 146.436 21.0252C146.963 20.9769 147.388 20.9266 147.71 20.8743C148.032 20.8179 148.265 20.7395 148.41 20.6388C148.559 20.5342 148.633 20.3873 148.633 20.1981V20.168C148.633 19.8581 148.527 19.6186 148.313 19.4496C148.1 19.2805 147.812 19.196 147.45 19.196C147.06 19.196 146.746 19.2805 146.508 19.4496C146.271 19.6186 146.12 19.852 146.056 20.1498L143.333 20.0533C143.413 19.4898 143.621 18.9867 143.955 18.544C144.293 18.0973 144.756 17.7471 145.343 17.4936C145.935 17.236 146.645 17.1072 147.474 17.1072C148.066 17.1072 148.611 17.1777 149.11 17.3185C149.609 17.4554 150.044 17.6566 150.414 17.9222C150.784 18.1838 151.07 18.5058 151.271 18.8881C151.477 19.2705 151.579 19.7071 151.579 20.1981V26.5007H148.802V25.2088H148.73C148.565 25.5227 148.354 25.7883 148.096 26.0057C147.842 26.223 147.543 26.386 147.197 26.4947C146.854 26.6033 146.468 26.6577 146.037 26.6577ZM146.949 24.7258C147.267 24.7258 147.553 24.6614 147.806 24.5327C148.064 24.4039 148.269 24.2268 148.422 24.0014C148.575 23.772 148.651 23.5064 148.651 23.2045V22.3231C148.567 22.3674 148.464 22.4077 148.344 22.4439C148.227 22.4801 148.098 22.5143 147.957 22.5465C147.816 22.5787 147.671 22.6069 147.522 22.631C147.374 22.6552 147.231 22.6773 147.094 22.6974C146.816 22.7417 146.579 22.8101 146.382 22.9027C146.188 22.9953 146.039 23.116 145.935 23.2649C145.834 23.4098 145.784 23.5828 145.784 23.7841C145.784 24.0899 145.893 24.3234 146.11 24.4844C146.331 24.6453 146.611 24.7258 146.949 24.7258Z" fill="white"/>
</g>
<defs>
<filter id="filter0_d_1_56" x="2.18926" y="0.213959" width="39.6132" height="39.5903" filterUnits="userSpaceOnUse" color-interpolation-filters="sRGB">
<feFlood flood-opacity="0" result="BackgroundImageFix"/>
<feColorMatrix in="SourceAlpha" type="matrix" values="0 0 0 0 0 0 0 0 0 0 0 0 0 0 0 0 0 0 127 0" result="hardAlpha"/>
<feOffset/>
<feGaussianBlur stdDeviation="2.80014"/>
<feComposite in2="hardAlpha" operator="out"/>
<feColorMatrix type="matrix" values="0 0 0 0 0 0 0 0 0 0 0 0 0 0 0 0 0 0 0.25 0"/>
<feBlend mode="normal" in2="BackgroundImageFix" result="effect1_dropShadow_1_56"/>
<feBlend mode="normal" in="SourceGraphic" in2="effect1_dropShadow_1_56" result="shape"/>
</filter>
<filter id="filter1_d_1_56" x="36.2871" y="3.78642" width="122.429" height="32.4286" filterUnits="userSpaceOnUse" color-interpolation-filters="sRGB">
<feFlood flood-opacity="0" result="BackgroundImageFix"/>
<feColorMatrix in="SourceAlpha" type="matrix" values="0 0 0 0 0 0 0 0 0 0 0 0 0 0 0 0 0 0 127 0" result="hardAlpha"/>
<feOffset/>
<feGaussianBlur stdDeviation="2.85714"/>
<feComposite in2="hardAlpha" operator="out"/>
<feColorMatrix type="matrix" values="0 0 0 0 0 0 0 0 0 0 0 0 0 0 0 0 0 0 0.25 0"/>
<feBlend mode="normal" in2="BackgroundImageFix" result="effect1_dropShadow_1_56"/>
<feBlend mode="normal" in="SourceGraphic" in2="effect1_dropShadow_1_56" result="shape"/>
</filter>
<linearGradient id="paint0_linear_1_56" x1="80.5007" y1="0" x2="80.5007" y2="40.0014" gradientUnits="userSpaceOnUse">
<stop stop-color="#000046"/>
<stop offset="1" stop-color="#000026"/>
</linearGradient>
</defs>
</svg>
