<svg width="144" height="56" viewBox="0 0 144 56" fill="none" xmlns="http://www.w3.org/2000/svg">
<rect width="144" height="56" rx="8" fill="url(#paint0_linear_1_50)"/>
<rect x="1.05" y="1.05" width="141.9" height="53.9" rx="6.95" stroke="white" stroke-opacity="0.15" stroke-width="2.1"/>
<g filter="url(#filter0_d_1_50)">
<path d="M49.6138 19.0252C51.7917 23.2993 52.3415 28.2195 51.1607 32.8689C49.98 37.5183 47.1493 41.58 43.196 44.2971C39.2427 47.0142 34.4365 48.2015 29.6727 47.6378C24.9089 47.074 20.5126 44.7977 17.3027 41.2329C14.0928 37.6681 12.2883 33.0579 12.2254 28.2613C12.1625 23.4647 13.8455 18.8088 16.9609 15.1611C20.0762 11.5134 24.4114 9.12255 29.1588 8.43412C33.9061 7.74569 38.7418 8.80658 42.765 11.4191" stroke="#808080" stroke-width="0.734118" stroke-dasharray="2.76 2.76"/>
<path d="M31.996 43.2948C40.4422 43.2948 47.2892 36.4478 47.2892 28.0016C47.2892 19.5555 40.4422 12.7085 31.996 12.7085C23.5499 12.7085 16.7029 19.5555 16.7029 28.0016C16.7029 36.4478 23.5499 43.2948 31.996 43.2948Z" fill="#000080"/>
<path d="M38.3309 26.1463C40.8047 26.1463 42.81 24.141 42.81 21.6672C42.81 19.1935 40.8047 17.1881 38.3309 17.1881C35.8572 17.1881 33.8518 19.1935 33.8518 21.6672C33.8518 24.141 35.8572 26.1463 38.3309 26.1463Z" fill="white"/>
<path d="M47.2896 17.1881C49.7636 17.1881 51.7692 15.1825 51.7692 12.7085C51.7692 10.2345 49.7636 8.22897 47.2896 8.22897C44.8156 8.22897 42.81 10.2345 42.81 12.7085C42.81 15.1825 44.8156 17.1881 47.2896 17.1881Z" fill="#000080"/>
<path d="M27.8533 35.648V34.5193H22.8984V25.6139H21.6183V35.6481H27.8532M34.7325 35.648V28.4359H33.59V32.4137C33.59 33.8865 32.8193 34.85 31.6217 34.85C30.7134 34.85 30.1352 34.2994 30.1352 33.4323V28.4357H28.9928V33.8869C28.9928 35.0844 29.8875 35.8552 31.2919 35.8552C32.3517 35.8552 33.0262 35.4836 33.7006 34.5338V35.6488H34.7328M43.1235 35.6207V34.7536C42.9996 34.7811 42.9445 34.7811 42.8757 34.7811C42.4765 34.7811 42.2563 34.5747 42.2563 34.2168V30.1977C42.2563 28.9176 41.3204 28.2294 39.5448 28.2294C37.7968 28.2294 36.7231 28.9038 36.6544 30.5693H37.8106C37.9069 29.6884 38.4299 29.2892 39.5035 29.2892C40.5358 29.2892 41.1139 29.6746 41.1139 30.3628V30.6657C41.1139 31.1474 40.8248 31.3539 39.9164 31.464C38.2922 31.6704 38.0445 31.7255 37.6041 31.9044C36.7644 32.2485 36.3378 32.8954 36.3378 33.7764C36.3378 35.0839 37.2462 35.8547 38.7052 35.8547C39.6275 35.8547 40.5221 35.4694 41.1552 34.7949C41.279 35.3455 41.7746 35.7446 42.339 35.7446C42.5729 35.7446 42.7519 35.7171 43.1235 35.6208M41.1139 33.157C41.1139 34.1893 40.0679 34.85 38.9534 34.85C38.0587 34.85 37.5357 34.5334 37.5357 33.7488C37.5357 32.9918 38.045 32.6614 39.27 32.4825C40.4812 32.3174 40.729 32.2623 41.1144 32.0833V33.1569" fill="white"/>
</g>
<g filter="url(#filter1_d_1_50)">
<path d="M61.2784 24.5V12.8636H65.5398C66.3655 12.8636 67.0492 13 67.5909 13.2727C68.1326 13.5417 68.5379 13.9072 68.8068 14.3693C69.0757 14.8276 69.2102 15.3447 69.2102 15.9204C69.2102 16.4053 69.1212 16.8144 68.9432 17.1477C68.7651 17.4773 68.5265 17.7424 68.2273 17.9432C67.9318 18.1401 67.606 18.2841 67.25 18.375V18.4886C67.6363 18.5076 68.0132 18.6326 68.3807 18.8636C68.7519 19.0909 69.0587 19.4148 69.3011 19.8352C69.5435 20.2557 69.6648 20.767 69.6648 21.3693C69.6648 21.964 69.5246 22.4981 69.2443 22.9716C68.9678 23.4413 68.5398 23.8144 67.9602 24.0909C67.3807 24.3636 66.6401 24.5 65.7386 24.5H61.2784ZM63.0341 22.9943H65.5682C66.4091 22.9943 67.0113 22.8314 67.375 22.5057C67.7386 22.1799 67.9204 21.7727 67.9204 21.2841C67.9204 20.9167 67.8276 20.5795 67.642 20.2727C67.4564 19.9659 67.1913 19.7216 66.8466 19.5398C66.5057 19.3579 66.1004 19.267 65.6307 19.267H63.0341V22.9943ZM63.0341 17.8977H65.3863C65.7803 17.8977 66.1345 17.822 66.4488 17.6704C66.767 17.5189 67.0189 17.3068 67.2045 17.0341C67.3939 16.7576 67.4886 16.4318 67.4886 16.0568C67.4886 15.5758 67.3201 15.1723 66.9829 14.8466C66.6458 14.5208 66.1288 14.3579 65.4318 14.3579H63.0341V17.8977ZM77.1392 20.8807V15.7727H78.8437V24.5H77.1733V22.9886H77.0824C76.8816 23.4545 76.5596 23.8428 76.1165 24.1534C75.6771 24.4602 75.1297 24.6136 74.4744 24.6136C73.9138 24.6136 73.4176 24.4905 72.9858 24.2443C72.5577 23.9943 72.2206 23.625 71.9744 23.1364C71.732 22.6477 71.6108 22.0436 71.6108 21.3239V15.7727H73.3096V21.1193C73.3096 21.714 73.4744 22.1875 73.804 22.5398C74.1335 22.892 74.5615 23.0682 75.088 23.0682C75.4062 23.0682 75.7225 22.9886 76.0369 22.8295C76.3551 22.6704 76.6184 22.4299 76.8267 22.1079C77.0388 21.786 77.143 21.3769 77.1392 20.8807ZM81.1264 24.5V15.7727H82.8253V24.5H81.1264ZM81.9844 14.4261C81.6889 14.4261 81.4351 14.3276 81.223 14.1307C81.0147 13.9299 80.9105 13.6913 80.9105 13.4148C80.9105 13.1345 81.0147 12.8958 81.223 12.6989C81.4351 12.4981 81.6889 12.3977 81.9844 12.3977C82.2798 12.3977 82.5317 12.4981 82.74 12.6989C82.9522 12.8958 83.0582 13.1345 83.0582 13.4148C83.0582 13.6913 82.9522 13.9299 82.74 14.1307C82.5317 14.3276 82.2798 14.4261 81.9844 14.4261ZM86.8096 12.8636V24.5H85.1108V12.8636H86.8096ZM93.169 15.7727V17.1364H88.402V15.7727H93.169ZM89.6804 13.6818H91.3792V21.9375C91.3792 22.267 91.4285 22.5151 91.527 22.6818C91.6254 22.8447 91.7523 22.9564 91.9076 23.017C92.0667 23.0739 92.2391 23.1023 92.4247 23.1023C92.5611 23.1023 92.6804 23.0928 92.7826 23.0739C92.8849 23.0549 92.9645 23.0398 93.0213 23.0284L93.3281 24.4318C93.2296 24.4697 93.0895 24.5076 92.9076 24.5454C92.7258 24.5871 92.4986 24.6098 92.2258 24.6136C91.7789 24.6212 91.3622 24.5417 90.9758 24.375C90.5895 24.2083 90.277 23.9508 90.0383 23.6023C89.7997 23.2538 89.6804 22.8163 89.6804 22.2898V13.6818ZM101.175 24.5L98.6065 15.7727H100.362L102.072 22.1818H102.158L103.874 15.7727H105.629L107.334 22.1534H107.419L109.118 15.7727H110.874L108.311 24.5H106.578L104.805 18.1989H104.675L102.902 24.5H101.175ZM112.486 24.5V15.7727H114.185V24.5H112.486ZM113.344 14.4261C113.048 14.4261 112.794 14.3276 112.582 14.1307C112.374 13.9299 112.27 13.6913 112.27 13.4148C112.27 13.1345 112.374 12.8958 112.582 12.6989C112.794 12.4981 113.048 12.3977 113.344 12.3977C113.639 12.3977 113.891 12.4981 114.099 12.6989C114.312 12.8958 114.418 13.1345 114.418 13.4148C114.418 13.6913 114.312 13.9299 114.099 14.1307C113.891 14.3276 113.639 14.4261 113.344 14.4261ZM120.544 15.7727V17.1364H115.777V15.7727H120.544ZM117.055 13.6818H118.754V21.9375C118.754 22.267 118.803 22.5151 118.902 22.6818C119 22.8447 119.127 22.9564 119.283 23.017C119.442 23.0739 119.614 23.1023 119.8 23.1023C119.936 23.1023 120.055 23.0928 120.158 23.0739C120.26 23.0549 120.339 23.0398 120.396 23.0284L120.703 24.4318C120.605 24.4697 120.464 24.5076 120.283 24.5454C120.101 24.5871 119.874 24.6098 119.601 24.6136C119.154 24.6212 118.737 24.5417 118.351 24.375C117.964 24.2083 117.652 23.9508 117.413 23.6023C117.175 23.2538 117.055 22.8163 117.055 22.2898V13.6818ZM124.31 19.3182V24.5H122.611V12.8636H124.287V17.1932H124.395C124.599 16.7235 124.912 16.3504 125.332 16.0739C125.753 15.7973 126.302 15.6591 126.98 15.6591C127.579 15.6591 128.101 15.7822 128.548 16.0284C128.999 16.2746 129.348 16.642 129.594 17.1307C129.844 17.6155 129.969 18.2216 129.969 18.9489V24.5H128.27V19.1534C128.27 18.5133 128.105 18.017 127.776 17.6648C127.446 17.3087 126.988 17.1307 126.401 17.1307C125.999 17.1307 125.639 17.2159 125.321 17.3864C125.007 17.5568 124.758 17.8068 124.577 18.1364C124.399 18.4621 124.31 18.8561 124.31 19.3182Z" fill="#E8E8E8"/>
<path d="M60.9357 43.5V31.1364H63.924V41.0731H69.0675V43.5H60.9357ZM76.597 39.4975V34.2273H79.543V43.5H76.7298V41.7734H76.6332C76.428 42.3409 76.0778 42.7917 75.5828 43.1257C75.0918 43.4557 74.4982 43.6207 73.8019 43.6207C73.1701 43.6207 72.6147 43.4758 72.1357 43.1861C71.6568 42.8963 71.2845 42.4918 71.0189 41.9726C70.7533 41.4494 70.6184 40.8377 70.6144 40.1374V34.2273H73.5665V39.5579C73.5705 40.061 73.7033 40.4574 73.9649 40.7471C74.2265 41.0369 74.5827 41.1818 75.0334 41.1818C75.3272 41.1818 75.5909 41.1174 75.8243 40.9886C76.0617 40.8558 76.2489 40.6646 76.3857 40.4151C76.5266 40.1616 76.597 39.8557 76.597 39.4975ZM84.036 43.6569C83.4444 43.6569 82.9192 43.5583 82.4604 43.3611C82.0056 43.1599 81.6454 42.8581 81.3798 42.4556C81.1182 42.0491 80.9874 41.54 80.9874 40.9283C80.9874 40.4131 81.0779 39.9784 81.259 39.6243C81.4401 39.2701 81.6897 38.9824 82.0076 38.761C82.3256 38.5396 82.6918 38.3726 83.1063 38.2599C83.5209 38.1432 83.9636 38.0647 84.4345 38.0245C84.9617 37.9762 85.3863 37.9259 85.7083 37.8736C86.0302 37.8172 86.2636 37.7387 86.4085 37.6381C86.5574 37.5335 86.6319 37.3866 86.6319 37.1974V37.1672C86.6319 36.8574 86.5252 36.6179 86.3119 36.4489C86.0986 36.2798 85.8109 36.1953 85.4487 36.1953C85.0583 36.1953 84.7444 36.2798 84.5069 36.4489C84.2694 36.6179 84.1185 36.8513 84.0541 37.1491L81.3315 37.0525C81.412 36.4891 81.6192 35.986 81.9533 35.5433C82.2913 35.0966 82.7542 34.7464 83.3418 34.4929C83.9334 34.2353 84.6437 34.1065 85.4728 34.1065C86.0644 34.1065 86.6098 34.177 87.1088 34.3178C87.6079 34.4547 88.0425 34.6559 88.4128 34.9215C88.7831 35.1831 89.0688 35.5051 89.27 35.8874C89.4753 36.2698 89.5779 36.7064 89.5779 37.1974V43.5H86.8009V42.2081H86.7285C86.5635 42.522 86.3522 42.7876 86.0946 43.005C85.8411 43.2223 85.5412 43.3853 85.1951 43.494C84.853 43.6026 84.4667 43.6569 84.036 43.6569ZM84.9476 41.7251C85.2655 41.7251 85.5513 41.6607 85.8048 41.5319C86.0624 41.4032 86.2677 41.2261 86.4206 41.0007C86.5735 40.7713 86.65 40.5057 86.65 40.2038V39.3224C86.5655 39.3667 86.4629 39.4069 86.3421 39.4432C86.2254 39.4794 86.0966 39.5136 85.9558 39.5458C85.8149 39.578 85.67 39.6062 85.5211 39.6303C85.3722 39.6545 85.2293 39.6766 85.0925 39.6967C84.8148 39.741 84.5773 39.8094 84.3801 39.902C84.1869 39.9945 84.038 40.1153 83.9334 40.2642C83.8328 40.4091 83.7825 40.5821 83.7825 40.7834C83.7825 41.0892 83.8911 41.3227 84.1085 41.4837C84.3298 41.6446 84.6095 41.7251 84.9476 41.7251Z" fill="white"/>
</g>
<defs>
<filter id="filter0_d_1_50" x="6.14237" y="2.16108" width="51.7081" height="51.6614" filterUnits="userSpaceOnUse" color-interpolation-filters="sRGB">
<feFlood flood-opacity="0" result="BackgroundImageFix"/>
<feColorMatrix in="SourceAlpha" type="matrix" values="0 0 0 0 0 0 0 0 0 0 0 0 0 0 0 0 0 0 127 0" result="hardAlpha"/>
<feOffset/>
<feGaussianBlur stdDeviation="2.85714"/>
<feComposite in2="hardAlpha" operator="out"/>
<feColorMatrix type="matrix" values="0 0 0 0 0 0 0 0 0 0 0 0 0 0 0 0 0 0 0.25 0"/>
<feBlend mode="normal" in2="BackgroundImageFix" result="effect1_dropShadow_1_50"/>
<feBlend mode="normal" in="SourceGraphic" in2="effect1_dropShadow_1_50" result="shape"/>
</filter>
<filter id="filter1_d_1_50" x="54.4" y="3.9" width="83.2" height="48.2" filterUnits="userSpaceOnUse" color-interpolation-filters="sRGB">
<feFlood flood-opacity="0" result="BackgroundImageFix"/>
<feColorMatrix in="SourceAlpha" type="matrix" values="0 0 0 0 0 0 0 0 0 0 0 0 0 0 0 0 0 0 127 0" result="hardAlpha"/>
<feOffset/>
<feGaussianBlur stdDeviation="2.8"/>
<feComposite in2="hardAlpha" operator="out"/>
<feColorMatrix type="matrix" values="0 0 0 0 0 0 0 0 0 0 0 0 0 0 0 0 0 0 0.25 0"/>
<feBlend mode="normal" in2="BackgroundImageFix" result="effect1_dropShadow_1_50"/>
<feBlend mode="normal" in="SourceGraphic" in2="effect1_dropShadow_1_50" result="shape"/>
</filter>
<linearGradient id="paint0_linear_1_50" x1="72" y1="0" x2="72" y2="56" gradientUnits="userSpaceOnUse">
<stop stop-color="#000046"/>
<stop offset="1" stop-color="#000026"/>
</linearGradient>
</defs>
</svg>
