<svg width="56" height="56" viewBox="0 0 56 56" fill="none" xmlns="http://www.w3.org/2000/svg">
<rect width="56" height="56" rx="8.4" fill="url(#paint0_linear_1_62)"/>
<rect x="1.05" y="1.05" width="53.9" height="53.9" rx="7.35" stroke="white" stroke-opacity="0.15" stroke-width="2.1"/>
<g filter="url(#filter0_d_1_62)">
<path d="M45.6138 19.0252C47.7917 23.2993 48.3415 28.2195 47.1607 32.8689C45.98 37.5183 43.1493 41.58 39.196 44.2971C35.2427 47.0142 30.4365 48.2015 25.6727 47.6378C20.9089 47.074 16.5126 44.7977 13.3027 41.2329C10.0928 37.6681 8.28829 33.0579 8.22541 28.2613C8.16252 23.4647 9.84553 18.8088 12.9609 15.1611C16.0762 11.5134 20.4114 9.12255 25.1587 8.43412C29.9061 7.74569 34.7418 8.80658 38.765 11.4191" stroke="#808080" stroke-width="0.734118" stroke-dasharray="2.76 2.76"/>
<path d="M27.996 43.2948C36.4422 43.2948 43.2892 36.4478 43.2892 28.0016C43.2892 19.5555 36.4422 12.7085 27.996 12.7085C19.5499 12.7085 12.7029 19.5555 12.7029 28.0016C12.7029 36.4478 19.5499 43.2948 27.996 43.2948Z" fill="#000080"/>
<path d="M34.3309 26.1463C36.8047 26.1463 38.81 24.141 38.81 21.6672C38.81 19.1935 36.8047 17.1881 34.3309 17.1881C31.8572 17.1881 29.8518 19.1935 29.8518 21.6672C29.8518 24.141 31.8572 26.1463 34.3309 26.1463Z" fill="white"/>
<path d="M43.2896 17.1881C45.7636 17.1881 47.7692 15.1825 47.7692 12.7085C47.7692 10.2345 45.7636 8.22897 43.2896 8.22897C40.8156 8.22897 38.81 10.2345 38.81 12.7085C38.81 15.1825 40.8156 17.1881 43.2896 17.1881Z" fill="#000080"/>
<path d="M23.8533 35.648V34.5193H18.8984V25.6139H17.6183V35.6481H23.8532M30.7325 35.648V28.4359H29.59V32.4137C29.59 33.8865 28.8193 34.85 27.6217 34.85C26.7134 34.85 26.1352 34.2994 26.1352 33.4323V28.4357H24.9928V33.8869C24.9928 35.0844 25.8875 35.8552 27.2919 35.8552C28.3517 35.8552 29.0262 35.4836 29.7006 34.5338V35.6488H30.7328M39.1235 35.6207V34.7536C38.9996 34.7811 38.9445 34.7811 38.8757 34.7811C38.4765 34.7811 38.2563 34.5747 38.2563 34.2168V30.1977C38.2563 28.9176 37.3204 28.2294 35.5448 28.2294C33.7968 28.2294 32.7231 28.9038 32.6544 30.5693H33.8106C33.9069 29.6884 34.4299 29.2892 35.5035 29.2892C36.5358 29.2892 37.1139 29.6746 37.1139 30.3628V30.6657C37.1139 31.1474 36.8248 31.3539 35.9164 31.464C34.2922 31.6704 34.0445 31.7255 33.6041 31.9044C32.7644 32.2485 32.3378 32.8954 32.3378 33.7764C32.3378 35.0839 33.2462 35.8547 34.7052 35.8547C35.6275 35.8547 36.5221 35.4694 37.1552 34.7949C37.279 35.3455 37.7746 35.7446 38.339 35.7446C38.5729 35.7446 38.7519 35.7171 39.1235 35.6208M37.1139 33.157C37.1139 34.1893 36.0679 34.85 34.9534 34.85C34.0587 34.85 33.5357 34.5334 33.5357 33.7488C33.5357 32.9918 34.045 32.6614 35.27 32.4825C36.4812 32.3174 36.729 32.2623 37.1144 32.0833V33.1569" fill="white"/>
</g>
<defs>
<filter id="filter0_d_1_62" x="2.14236" y="2.16108" width="51.7081" height="51.6614" filterUnits="userSpaceOnUse" color-interpolation-filters="sRGB">
<feFlood flood-opacity="0" result="BackgroundImageFix"/>
<feColorMatrix in="SourceAlpha" type="matrix" values="0 0 0 0 0 0 0 0 0 0 0 0 0 0 0 0 0 0 127 0" result="hardAlpha"/>
<feOffset/>
<feGaussianBlur stdDeviation="2.85714"/>
<feComposite in2="hardAlpha" operator="out"/>
<feColorMatrix type="matrix" values="0 0 0 0 0 0 0 0 0 0 0 0 0 0 0 0 0 0 0.25 0"/>
<feBlend mode="normal" in2="BackgroundImageFix" result="effect1_dropShadow_1_62"/>
<feBlend mode="normal" in="SourceGraphic" in2="effect1_dropShadow_1_62" result="shape"/>
</filter>
<linearGradient id="paint0_linear_1_62" x1="28" y1="0" x2="28" y2="56" gradientUnits="userSpaceOnUse">
<stop stop-color="#000046"/>
<stop offset="1" stop-color="#000026"/>
</linearGradient>
</defs>
</svg>
