<svg width="227" height="56" viewBox="0 0 227 56" fill="none" xmlns="http://www.w3.org/2000/svg">
<g clip-path="url(#clip0_1_50)">
<rect width="227" height="56" rx="8" fill="url(#paint0_linear_1_50)"/>
<g filter="url(#filter0_d_1_50)">
<path d="M32.0013 8.00128C20.6066 8.00128 11.375 17.1863 11.375 28.5064C11.375 37.5709 17.2844 45.2539 25.4744 47.9645C26.5095 48.158 26.8834 47.5236 26.8834 46.9751C26.8834 46.4881 26.8718 45.2001 26.8641 43.4905C21.1235 44.7259 19.9143 40.7338 19.9143 40.7338C18.9745 38.3706 17.6183 37.7362 17.6183 37.7362C15.7516 36.4688 17.7666 36.4957 17.7666 36.4957C19.8344 36.6354 20.9224 38.6039 20.9224 38.6039C22.762 41.7412 25.7489 40.8338 26.9311 40.3058C27.1116 38.9845 27.6491 38.0759 28.2344 37.5696C23.6554 37.0557 18.8404 35.2936 18.8404 27.4363C18.8404 25.1923 19.6397 23.3647 20.9611 21.9294C20.7329 21.4155 20.0342 19.3265 21.1428 16.5019C21.1428 16.5019 22.869 15.9547 26.8151 18.605C28.4665 18.15 30.2197 17.9232 31.9716 17.9117C33.7249 17.9232 35.4768 18.1513 37.1282 18.605C41.0511 15.9547 42.7759 16.5019 42.7759 16.5019C43.8833 19.3265 43.1846 21.4142 42.9835 21.9294C44.292 23.3647 45.0912 25.1935 45.0912 27.4363C45.0912 35.3115 40.2699 37.048 35.6857 37.5491C36.4024 38.163 37.0741 39.4254 37.0741 41.3413C37.0741 44.0839 37.0483 46.2933 37.0483 46.961C37.0483 47.4941 37.4092 48.1349 38.4715 47.9286C46.722 45.2462 52.625 37.5568 52.625 28.5051C52.625 17.185 43.3934 8 31.9987 8L32.0013 8.00128Z" fill="white"/>
</g>
<g filter="url(#filter1_d_1_50)">
<path d="M67.625 15.9204C67.5644 15.3826 67.3144 14.9659 66.875 14.6704C66.4356 14.3712 65.8826 14.2216 65.2159 14.2216C64.7386 14.2216 64.3257 14.2973 63.9773 14.4489C63.6288 14.5966 63.3579 14.8011 63.1648 15.0625C62.9754 15.3201 62.8807 15.6136 62.8807 15.9432C62.8807 16.2197 62.9451 16.4583 63.0738 16.6591C63.2064 16.8598 63.3788 17.0284 63.5909 17.1648C63.8068 17.2973 64.0379 17.4091 64.2841 17.5C64.5303 17.5871 64.767 17.6591 64.9943 17.7159L66.1307 18.0114C66.5019 18.1023 66.8826 18.2254 67.2727 18.3807C67.6629 18.536 68.0246 18.7405 68.3579 18.9943C68.6913 19.2481 68.9602 19.5625 69.1648 19.9375C69.3731 20.3125 69.4773 20.7614 69.4773 21.2841C69.4773 21.9432 69.3068 22.5284 68.9659 23.0398C68.6288 23.5511 68.1382 23.9545 67.4943 24.25C66.8541 24.5454 66.0795 24.6932 65.1704 24.6932C64.2992 24.6932 63.5454 24.5549 62.9091 24.2784C62.2727 24.0019 61.7746 23.6098 61.4148 23.1023C61.0549 22.5909 60.856 21.9848 60.8182 21.2841H62.5795C62.6136 21.7045 62.75 22.0549 62.9886 22.3352C63.231 22.6117 63.5398 22.8182 63.9148 22.9545C64.2935 23.0871 64.7083 23.1534 65.1591 23.1534C65.6553 23.1534 66.0966 23.0758 66.4829 22.9204C66.8731 22.7614 67.1799 22.5417 67.4034 22.2614C67.6269 21.9773 67.7386 21.6458 67.7386 21.267C67.7386 20.9223 67.6401 20.6401 67.4432 20.4204C67.25 20.2008 66.9867 20.0189 66.6534 19.875C66.3238 19.7311 65.9507 19.6042 65.5341 19.4943L64.1591 19.1193C63.2273 18.8655 62.4886 18.4924 61.9432 18C61.4015 17.5076 61.1307 16.8561 61.1307 16.0454C61.1307 15.375 61.3125 14.7898 61.6761 14.2898C62.0398 13.7898 62.5322 13.4015 63.1534 13.125C63.7746 12.8447 64.4754 12.7045 65.2557 12.7045C66.0435 12.7045 66.7386 12.8428 67.3409 13.1193C67.947 13.3958 68.4242 13.7765 68.7727 14.2614C69.1212 14.7424 69.303 15.2954 69.3182 15.9204H67.625ZM76.9673 20.8807V15.7727H78.6719V24.5H77.0014V22.9886H76.9105C76.7097 23.4545 76.3878 23.8428 75.9446 24.1534C75.5052 24.4602 74.9578 24.6136 74.3025 24.6136C73.7419 24.6136 73.2457 24.4905 72.8139 24.2443C72.3859 23.9943 72.0488 23.625 71.8025 23.1364C71.5601 22.6477 71.4389 22.0436 71.4389 21.3239V15.7727H73.1378V21.1193C73.1378 21.714 73.3025 22.1875 73.6321 22.5398C73.9616 22.892 74.3897 23.0682 74.9162 23.0682C75.2344 23.0682 75.5506 22.9886 75.865 22.8295C76.1832 22.6704 76.4465 22.4299 76.6548 22.1079C76.8669 21.786 76.9711 21.3769 76.9673 20.8807ZM84.6136 27.9545C83.9204 27.9545 83.3238 27.8636 82.8238 27.6818C82.3276 27.5 81.9223 27.2595 81.6079 26.9602C81.2935 26.661 81.0587 26.3333 80.9034 25.9773L82.3636 25.375C82.4659 25.5417 82.6023 25.7178 82.7727 25.9034C82.9469 26.0928 83.1818 26.2538 83.4773 26.3864C83.7765 26.5189 84.161 26.5852 84.6307 26.5852C85.2746 26.5852 85.8068 26.428 86.2272 26.1136C86.6477 25.803 86.8579 25.3068 86.8579 24.625V22.9091H86.75C86.6477 23.0947 86.5 23.3011 86.3068 23.5284C86.1174 23.7557 85.856 23.9526 85.5227 24.1193C85.1894 24.286 84.7557 24.3693 84.2216 24.3693C83.5322 24.3693 82.911 24.2083 82.3579 23.8864C81.8087 23.5606 81.3731 23.0814 81.0511 22.4489C80.7329 21.8125 80.5738 21.0303 80.5738 20.1023C80.5738 19.1742 80.731 18.3788 81.0454 17.7159C81.3636 17.053 81.7992 16.5454 82.3523 16.1932C82.9053 15.8371 83.5322 15.6591 84.2329 15.6591C84.7746 15.6591 85.2121 15.75 85.5454 15.9318C85.8788 16.1098 86.1382 16.3182 86.3238 16.5568C86.5132 16.7954 86.6591 17.0057 86.7613 17.1875H86.8863V15.7727H88.5511V24.6932C88.5511 25.4432 88.3769 26.0587 88.0284 26.5398C87.6799 27.0208 87.2083 27.3769 86.6136 27.6079C86.0227 27.839 85.356 27.9545 84.6136 27.9545ZM84.5966 22.9602C85.0852 22.9602 85.4981 22.8466 85.8352 22.6193C86.1761 22.3883 86.4337 22.0587 86.6079 21.6307C86.786 21.1989 86.875 20.6818 86.875 20.0795C86.875 19.4924 86.7879 18.9754 86.6136 18.5284C86.4394 18.0814 86.1837 17.7329 85.8466 17.4829C85.5094 17.2292 85.0928 17.1023 84.5966 17.1023C84.0852 17.1023 83.6591 17.2348 83.3182 17.5C82.9773 17.7614 82.7197 18.1174 82.5454 18.5682C82.375 19.0189 82.2898 19.5227 82.2898 20.0795C82.2898 20.6515 82.3769 21.1534 82.5511 21.5852C82.7254 22.017 82.9829 22.3542 83.3238 22.5966C83.6685 22.839 84.0928 22.9602 84.5966 22.9602ZM94.4886 27.9545C93.7954 27.9545 93.1988 27.8636 92.6988 27.6818C92.2026 27.5 91.7973 27.2595 91.4829 26.9602C91.1685 26.661 90.9337 26.3333 90.7784 25.9773L92.2386 25.375C92.3409 25.5417 92.4772 25.7178 92.6477 25.9034C92.8219 26.0928 93.0568 26.2538 93.3522 26.3864C93.6515 26.5189 94.036 26.5852 94.5057 26.5852C95.1496 26.5852 95.6818 26.428 96.1022 26.1136C96.5227 25.803 96.7329 25.3068 96.7329 24.625V22.9091H96.625C96.5227 23.0947 96.375 23.3011 96.1818 23.5284C95.9924 23.7557 95.731 23.9526 95.3977 24.1193C95.0644 24.286 94.6307 24.3693 94.0966 24.3693C93.4072 24.3693 92.786 24.2083 92.2329 23.8864C91.6837 23.5606 91.2481 23.0814 90.9261 22.4489C90.6079 21.8125 90.4488 21.0303 90.4488 20.1023C90.4488 19.1742 90.606 18.3788 90.9204 17.7159C91.2386 17.053 91.6742 16.5454 92.2272 16.1932C92.7803 15.8371 93.4072 15.6591 94.1079 15.6591C94.6496 15.6591 95.0871 15.75 95.4204 15.9318C95.7538 16.1098 96.0132 16.3182 96.1988 16.5568C96.3882 16.7954 96.5341 17.0057 96.6363 17.1875H96.7613V15.7727H98.4261V24.6932C98.4261 25.4432 98.2519 26.0587 97.9034 26.5398C97.5549 27.0208 97.0833 27.3769 96.4886 27.6079C95.8977 27.839 95.231 27.9545 94.4886 27.9545ZM94.4716 22.9602C94.9602 22.9602 95.3731 22.8466 95.7102 22.6193C96.0511 22.3883 96.3087 22.0587 96.4829 21.6307C96.661 21.1989 96.75 20.6818 96.75 20.0795C96.75 19.4924 96.6629 18.9754 96.4886 18.5284C96.3144 18.0814 96.0587 17.7329 95.7216 17.4829C95.3844 17.2292 94.9678 17.1023 94.4716 17.1023C93.9602 17.1023 93.5341 17.2348 93.1932 17.5C92.8522 17.7614 92.5947 18.1174 92.4204 18.5682C92.25 19.0189 92.1647 19.5227 92.1647 20.0795C92.1647 20.6515 92.2519 21.1534 92.4261 21.5852C92.6004 22.017 92.8579 22.3542 93.1988 22.5966C93.5435 22.839 93.9678 22.9602 94.4716 22.9602ZM104.466 24.6761C103.606 24.6761 102.866 24.4924 102.244 24.125C101.627 23.7538 101.15 23.2329 100.812 22.5625C100.479 21.8883 100.312 21.0985 100.312 20.1932C100.312 19.2992 100.479 18.5114 100.812 17.8295C101.15 17.1477 101.619 16.6155 102.222 16.2329C102.828 15.8504 103.536 15.6591 104.347 15.6591C104.839 15.6591 105.316 15.7405 105.778 15.9034C106.241 16.0663 106.655 16.322 107.023 16.6704C107.39 17.0189 107.68 17.4716 107.892 18.0284C108.104 18.5814 108.21 19.2538 108.21 20.0454V20.6477H101.273V19.375H106.545C106.545 18.928 106.455 18.5322 106.273 18.1875C106.091 17.839 105.835 17.5644 105.506 17.3636C105.18 17.1629 104.797 17.0625 104.358 17.0625C103.881 17.0625 103.464 17.1799 103.108 17.4148C102.756 17.6458 102.483 17.9489 102.29 18.3239C102.1 18.6951 102.006 19.0985 102.006 19.5341V20.5284C102.006 21.1117 102.108 21.6079 102.312 22.017C102.521 22.4261 102.811 22.7386 103.182 22.9545C103.553 23.1667 103.987 23.2727 104.483 23.2727C104.805 23.2727 105.098 23.2273 105.364 23.1364C105.629 23.0417 105.858 22.9015 106.051 22.7159C106.244 22.5303 106.392 22.3011 106.494 22.0284L108.102 22.3182C107.973 22.7917 107.742 23.2064 107.409 23.5625C107.08 23.9148 106.665 24.1894 106.165 24.3864C105.669 24.5795 105.102 24.6761 104.466 24.6761ZM116.635 17.9034L115.095 18.1761C115.031 17.9792 114.928 17.7917 114.788 17.6136C114.652 17.4356 114.466 17.2898 114.232 17.1761C113.997 17.0625 113.703 17.0057 113.351 17.0057C112.87 17.0057 112.468 17.1136 112.146 17.3295C111.824 17.5417 111.663 17.8163 111.663 18.1534C111.663 18.4451 111.771 18.6799 111.987 18.8579C112.203 19.036 112.552 19.1818 113.033 19.2954L114.419 19.6136C115.222 19.7992 115.821 20.0852 116.214 20.4716C116.608 20.8579 116.805 21.3598 116.805 21.9773C116.805 22.5 116.654 22.9659 116.351 23.375C116.052 23.7803 115.633 24.0985 115.095 24.3295C114.561 24.5606 113.942 24.6761 113.237 24.6761C112.26 24.6761 111.463 24.4678 110.845 24.0511C110.228 23.6307 109.849 23.0341 109.709 22.2614L111.351 22.0114C111.453 22.4394 111.663 22.7633 111.982 22.9829C112.3 23.1989 112.714 23.3068 113.226 23.3068C113.783 23.3068 114.228 23.1913 114.561 22.9602C114.894 22.7254 115.061 22.4394 115.061 22.1023C115.061 21.8295 114.959 21.6004 114.754 21.4148C114.553 21.2292 114.245 21.089 113.828 20.9943L112.351 20.6704C111.536 20.4848 110.934 20.1894 110.544 19.7841C110.158 19.3788 109.964 18.8655 109.964 18.2443C109.964 17.7292 110.108 17.2784 110.396 16.892C110.684 16.5057 111.082 16.2045 111.589 15.9886C112.097 15.7689 112.678 15.6591 113.334 15.6591C114.277 15.6591 115.019 15.8636 115.561 16.2727C116.103 16.678 116.461 17.2216 116.635 17.9034ZM122.747 15.7727V17.1364H117.98V15.7727H122.747ZM119.258 13.6818H120.957V21.9375C120.957 22.267 121.007 22.5151 121.105 22.6818C121.204 22.8447 121.33 22.9564 121.486 23.017C121.645 23.0739 121.817 23.1023 122.003 23.1023C122.139 23.1023 122.258 23.0928 122.361 23.0739C122.463 23.0549 122.543 23.0398 122.599 23.0284L122.906 24.4318C122.808 24.4697 122.668 24.5076 122.486 24.5454C122.304 24.5871 122.077 24.6098 121.804 24.6136C121.357 24.6212 120.94 24.5417 120.554 24.375C120.168 24.2083 119.855 23.9508 119.616 23.6023C119.378 23.2538 119.258 22.8163 119.258 22.2898V13.6818ZM133.014 15.7727V17.1364H128.082V15.7727H133.014ZM129.435 24.5V14.7614C129.435 14.2159 129.554 13.7633 129.793 13.4034C130.031 13.0398 130.348 12.7689 130.741 12.5909C131.135 12.4091 131.563 12.3182 132.026 12.3182C132.366 12.3182 132.658 12.3466 132.901 12.4034C133.143 12.4564 133.323 12.5057 133.44 12.5511L133.043 13.9261C132.963 13.9034 132.861 13.8769 132.736 13.8466C132.611 13.8125 132.459 13.7954 132.281 13.7954C131.868 13.7954 131.573 13.8977 131.395 14.1023C131.221 14.3068 131.133 14.6023 131.133 14.9886V24.5H129.435ZM138.185 24.6761C137.325 24.6761 136.584 24.4924 135.963 24.125C135.346 23.7538 134.868 23.2329 134.531 22.5625C134.198 21.8883 134.031 21.0985 134.031 20.1932C134.031 19.2992 134.198 18.5114 134.531 17.8295C134.868 17.1477 135.338 16.6155 135.94 16.2329C136.546 15.8504 137.255 15.6591 138.065 15.6591C138.558 15.6591 139.035 15.7405 139.497 15.9034C139.959 16.0663 140.374 16.322 140.741 16.6704C141.109 17.0189 141.399 17.4716 141.611 18.0284C141.823 18.5814 141.929 19.2538 141.929 20.0454V20.6477H134.991V19.375H140.264C140.264 18.928 140.173 18.5322 139.991 18.1875C139.81 17.839 139.554 17.5644 139.224 17.3636C138.899 17.1629 138.516 17.0625 138.077 17.0625C137.599 17.0625 137.183 17.1799 136.827 17.4148C136.474 17.6458 136.202 17.9489 136.008 18.3239C135.819 18.6951 135.724 19.0985 135.724 19.5341V20.5284C135.724 21.1117 135.827 21.6079 136.031 22.017C136.24 22.4261 136.529 22.7386 136.901 22.9545C137.272 23.1667 137.705 23.2727 138.202 23.2727C138.524 23.2727 138.817 23.2273 139.082 23.1364C139.347 23.0417 139.577 22.9015 139.77 22.7159C139.963 22.5303 140.111 22.3011 140.213 22.0284L141.821 22.3182C141.692 22.7917 141.461 23.2064 141.128 23.5625C140.798 23.9148 140.383 24.1894 139.883 24.3864C139.387 24.5795 138.821 24.6761 138.185 24.6761ZM146.354 24.6932C145.801 24.6932 145.301 24.5909 144.854 24.3864C144.407 24.178 144.053 23.8769 143.791 23.4829C143.534 23.089 143.405 22.6061 143.405 22.0341C143.405 21.5417 143.499 21.1364 143.689 20.8182C143.878 20.5 144.134 20.2481 144.456 20.0625C144.778 19.8769 145.138 19.7367 145.535 19.642C145.933 19.5473 146.339 19.4754 146.751 19.4261C147.274 19.3655 147.698 19.3163 148.024 19.2784C148.35 19.2367 148.587 19.1704 148.734 19.0795C148.882 18.9886 148.956 18.8409 148.956 18.6364V18.5966C148.956 18.1004 148.816 17.7159 148.535 17.4432C148.259 17.1704 147.846 17.0341 147.297 17.0341C146.725 17.0341 146.274 17.161 145.945 17.4148C145.619 17.6648 145.393 17.9432 145.268 18.25L143.672 17.8864C143.861 17.3561 144.138 16.928 144.501 16.6023C144.869 16.2727 145.291 16.0341 145.768 15.8864C146.246 15.7348 146.748 15.6591 147.274 15.6591C147.623 15.6591 147.992 15.7008 148.382 15.7841C148.776 15.8636 149.143 16.0114 149.484 16.2273C149.829 16.4432 150.111 16.7519 150.331 17.1534C150.551 17.5511 150.66 18.0682 150.66 18.7045V24.5H149.001V23.3068H148.933C148.823 23.5265 148.659 23.7424 148.439 23.9545C148.219 24.1667 147.937 24.3428 147.592 24.4829C147.248 24.6231 146.835 24.6932 146.354 24.6932ZM146.723 23.3295C147.193 23.3295 147.594 23.2367 147.928 23.0511C148.265 22.8655 148.52 22.6231 148.695 22.3239C148.873 22.0208 148.962 21.697 148.962 21.3523V20.2273C148.901 20.2879 148.784 20.3447 148.609 20.3977C148.439 20.447 148.244 20.4905 148.024 20.5284C147.804 20.5625 147.59 20.5947 147.382 20.625C147.174 20.6515 146.999 20.6742 146.859 20.6932C146.53 20.7348 146.229 20.8049 145.956 20.9034C145.687 21.0019 145.471 21.1439 145.308 21.3295C145.149 21.5114 145.07 21.7538 145.07 22.0568C145.07 22.4773 145.225 22.7954 145.535 23.0114C145.846 23.2235 146.242 23.3295 146.723 23.3295ZM156.997 15.7727V17.1364H152.23V15.7727H156.997ZM153.508 13.6818H155.207V21.9375C155.207 22.267 155.257 22.5151 155.355 22.6818C155.454 22.8447 155.58 22.9564 155.736 23.017C155.895 23.0739 156.067 23.1023 156.253 23.1023C156.389 23.1023 156.508 23.0928 156.611 23.0739C156.713 23.0549 156.793 23.0398 156.849 23.0284L157.156 24.4318C157.058 24.4697 156.918 24.5076 156.736 24.5454C156.554 24.5871 156.327 24.6098 156.054 24.6136C155.607 24.6212 155.19 24.5417 154.804 24.375C154.418 24.2083 154.105 23.9508 153.866 23.6023C153.628 23.2538 153.508 22.8163 153.508 22.2898V13.6818ZM164.405 20.8807V15.7727H166.109V24.5H164.439V22.9886H164.348C164.147 23.4545 163.825 23.8428 163.382 24.1534C162.943 24.4602 162.395 24.6136 161.74 24.6136C161.179 24.6136 160.683 24.4905 160.251 24.2443C159.823 23.9943 159.486 23.625 159.24 23.1364C158.998 22.6477 158.876 22.0436 158.876 21.3239V15.7727H160.575V21.1193C160.575 21.714 160.74 22.1875 161.07 22.5398C161.399 22.892 161.827 23.0682 162.354 23.0682C162.672 23.0682 162.988 22.9886 163.303 22.8295C163.621 22.6704 163.884 22.4299 164.092 22.1079C164.304 21.786 164.409 21.3769 164.405 20.8807ZM168.392 24.5V15.7727H170.034V17.1591H170.125C170.284 16.6894 170.564 16.3201 170.966 16.0511C171.371 15.7784 171.829 15.642 172.341 15.642C172.447 15.642 172.572 15.6458 172.716 15.6534C172.864 15.661 172.979 15.6704 173.062 15.6818V17.3068C172.994 17.2879 172.873 17.267 172.699 17.2443C172.525 17.2178 172.35 17.2045 172.176 17.2045C171.775 17.2045 171.417 17.2898 171.102 17.4602C170.792 17.6269 170.545 17.8598 170.364 18.1591C170.182 18.4545 170.091 18.7917 170.091 19.1704V24.5H168.392ZM177.981 24.6761C177.122 24.6761 176.381 24.4924 175.76 24.125C175.142 23.7538 174.665 23.2329 174.328 22.5625C173.995 21.8883 173.828 21.0985 173.828 20.1932C173.828 19.2992 173.995 18.5114 174.328 17.8295C174.665 17.1477 175.135 16.6155 175.737 16.2329C176.343 15.8504 177.052 15.6591 177.862 15.6591C178.355 15.6591 178.832 15.7405 179.294 15.9034C179.756 16.0663 180.171 16.322 180.538 16.6704C180.906 17.0189 181.195 17.4716 181.408 18.0284C181.62 18.5814 181.726 19.2538 181.726 20.0454V20.6477H174.788V19.375H180.061C180.061 18.928 179.97 18.5322 179.788 18.1875C179.606 17.839 179.351 17.5644 179.021 17.3636C178.695 17.1629 178.313 17.0625 177.874 17.0625C177.396 17.0625 176.98 17.1799 176.624 17.4148C176.271 17.6458 175.999 17.9489 175.805 18.3239C175.616 18.6951 175.521 19.0985 175.521 19.5341V20.5284C175.521 21.1117 175.624 21.6079 175.828 22.017C176.036 22.4261 176.326 22.7386 176.697 22.9545C177.069 23.1667 177.502 23.2727 177.999 23.2727C178.32 23.2727 178.614 23.2273 178.879 23.1364C179.144 23.0417 179.374 22.9015 179.567 22.7159C179.76 22.5303 179.908 22.3011 180.01 22.0284L181.618 22.3182C181.489 22.7917 181.258 23.2064 180.925 23.5625C180.595 23.9148 180.18 24.1894 179.68 24.3864C179.184 24.5795 178.618 24.6761 177.981 24.6761ZM190.151 17.9034L188.611 18.1761C188.546 17.9792 188.444 17.7917 188.304 17.6136C188.168 17.4356 187.982 17.2898 187.747 17.1761C187.512 17.0625 187.219 17.0057 186.866 17.0057C186.385 17.0057 185.984 17.1136 185.662 17.3295C185.34 17.5417 185.179 17.8163 185.179 18.1534C185.179 18.4451 185.287 18.6799 185.503 18.8579C185.719 19.036 186.067 19.1818 186.548 19.2954L187.935 19.6136C188.738 19.7992 189.336 20.0852 189.73 20.4716C190.124 20.8579 190.321 21.3598 190.321 21.9773C190.321 22.5 190.169 22.9659 189.866 23.375C189.567 23.7803 189.149 24.0985 188.611 24.3295C188.077 24.5606 187.457 24.6761 186.753 24.6761C185.776 24.6761 184.978 24.4678 184.361 24.0511C183.743 23.6307 183.365 23.0341 183.224 22.2614L184.866 22.0114C184.969 22.4394 185.179 22.7633 185.497 22.9829C185.815 23.1989 186.23 23.3068 186.741 23.3068C187.298 23.3068 187.743 23.1913 188.077 22.9602C188.41 22.7254 188.577 22.4394 188.577 22.1023C188.577 21.8295 188.474 21.6004 188.27 21.4148C188.069 21.2292 187.76 21.089 187.344 20.9943L185.866 20.6704C185.052 20.4848 184.45 20.1894 184.06 19.7841C183.673 19.3788 183.48 18.8655 183.48 18.2443C183.48 17.7292 183.624 17.2784 183.912 16.892C184.2 16.5057 184.597 16.2045 185.105 15.9886C185.613 15.7689 186.194 15.6591 186.849 15.6591C187.793 15.6591 188.535 15.8636 189.077 16.2727C189.618 16.678 189.976 17.2216 190.151 17.9034ZM200.099 24.6761C199.281 24.6761 198.567 24.4886 197.957 24.1136C197.347 23.7386 196.874 23.214 196.537 22.5398C196.2 21.8655 196.031 21.0776 196.031 20.1761C196.031 19.2708 196.2 18.4792 196.537 17.8011C196.874 17.1231 197.347 16.5966 197.957 16.2216C198.567 15.8466 199.281 15.6591 200.099 15.6591C200.918 15.6591 201.632 15.8466 202.241 16.2216C202.851 16.5966 203.325 17.1231 203.662 17.8011C203.999 18.4792 204.168 19.2708 204.168 20.1761C204.168 21.0776 203.999 21.8655 203.662 22.5398C203.325 23.214 202.851 23.7386 202.241 24.1136C201.632 24.4886 200.918 24.6761 200.099 24.6761ZM200.105 23.25C200.635 23.25 201.075 23.1098 201.423 22.8295C201.772 22.5492 202.029 22.1761 202.196 21.7102C202.366 21.2443 202.452 20.7311 202.452 20.1704C202.452 19.6136 202.366 19.1023 202.196 18.6364C202.029 18.1667 201.772 17.7898 201.423 17.5057C201.075 17.2216 200.635 17.0795 200.105 17.0795C199.571 17.0795 199.128 17.2216 198.776 17.5057C198.427 17.7898 198.168 18.1667 197.997 18.6364C197.83 19.1023 197.747 19.6136 197.747 20.1704C197.747 20.7311 197.83 21.2443 197.997 21.7102C198.168 22.1761 198.427 22.5492 198.776 22.8295C199.128 23.1098 199.571 23.25 200.105 23.25ZM207.763 19.3182V24.5H206.064V15.7727H207.695V17.1932H207.802C208.003 16.7311 208.318 16.3598 208.746 16.0795C209.177 15.7992 209.721 15.6591 210.376 15.6591C210.971 15.6591 211.492 15.7841 211.939 16.0341C212.386 16.2803 212.732 16.6477 212.979 17.1364C213.225 17.625 213.348 18.2292 213.348 18.9489V24.5H211.649V19.1534C211.649 18.5208 211.484 18.0265 211.155 17.6704C210.825 17.3106 210.373 17.1307 209.797 17.1307C209.403 17.1307 209.052 17.2159 208.746 17.3864C208.443 17.5568 208.202 17.8068 208.024 18.1364C207.85 18.4621 207.763 18.8561 207.763 19.3182Z" fill="#E8E8E8"/>
<path d="M69.0493 35.1751C68.9809 34.9215 68.8803 34.6981 68.7475 34.505C68.6147 34.3078 68.4517 34.1407 68.2585 34.0039C68.0653 33.8671 67.844 33.7644 67.5944 33.696C67.3449 33.6236 67.0712 33.5873 66.7734 33.5873C66.1738 33.5873 65.6546 33.7322 65.2159 34.022C64.7812 34.3118 64.4452 34.7344 64.2077 35.2898C63.9703 35.8411 63.8515 36.5112 63.8515 37.3001C63.8515 38.0929 63.9662 38.769 64.1957 39.3285C64.4251 39.8879 64.7571 40.3145 65.1917 40.6083C65.6264 40.9021 66.1536 41.049 66.7734 41.049C67.3208 41.049 67.7836 40.9605 68.1619 40.7834C68.5443 40.6023 68.834 40.3467 69.0312 40.0167C69.2284 39.6867 69.327 39.2983 69.327 38.8516L69.8824 38.918H66.876V36.7386H72.2067V38.3746C72.2067 39.4814 71.9712 40.4292 71.5003 41.218C71.0335 42.0069 70.3895 42.6126 69.5685 43.0351C68.7515 43.4577 67.8118 43.669 66.7493 43.669C65.5701 43.669 64.5337 43.4135 63.6403 42.9023C62.7468 42.3912 62.0505 41.6627 61.5515 40.717C61.0524 39.7672 60.8029 38.6403 60.8029 37.3363C60.8029 36.3221 60.9538 35.4226 61.2557 34.6378C61.5575 33.8489 61.9781 33.1809 62.5174 32.6335C63.0607 32.0862 63.6885 31.6716 64.4009 31.3899C65.1173 31.1082 65.888 30.9673 66.7131 30.9673C67.4294 30.9673 68.0955 31.0699 68.7113 31.2752C69.3311 31.4805 69.8784 31.7702 70.3533 32.1445C70.8322 32.5188 71.2206 32.9635 71.5184 33.4787C71.8163 33.9938 72.0014 34.5593 72.0738 35.1751H69.0493ZM74.549 43.5V34.2273H77.501V43.5H74.549ZM76.028 33.1467C75.6135 33.1467 75.2573 33.0098 74.9595 32.7361C74.6617 32.4584 74.5128 32.1244 74.5128 31.734C74.5128 31.3476 74.6617 31.0176 74.9595 30.744C75.2573 30.4663 75.6135 30.3274 76.028 30.3274C76.4466 30.3274 76.8028 30.4663 77.0966 30.744C77.3944 31.0176 77.5433 31.3476 77.5433 31.734C77.5433 32.1244 77.3944 32.4584 77.0966 32.7361C76.8028 33.0098 76.4466 33.1467 76.028 33.1467ZM84.6141 34.2273V36.4006H78.7643V34.2273H84.6141ZM79.9898 32.0057H82.9418V40.5842C82.9418 40.7653 82.97 40.9122 83.0263 41.0248C83.0867 41.1335 83.1732 41.212 83.2859 41.2603C83.3986 41.3046 83.5334 41.3267 83.6904 41.3267C83.8031 41.3267 83.9218 41.3166 84.0466 41.2965C84.1754 41.2724 84.272 41.2522 84.3364 41.2361L84.7831 43.3672C84.6422 43.4074 84.443 43.4577 84.1854 43.5181C83.9319 43.5785 83.628 43.6167 83.2739 43.6328C82.5816 43.665 81.988 43.5845 81.493 43.3913C81.002 43.1941 80.6257 42.8882 80.3641 42.4737C80.1065 42.0592 79.9817 41.538 79.9898 40.9101V32.0057ZM86.3195 43.5V31.1364H89.3078V36.0987H94.1796V31.1364H97.1618V43.5H94.1796V38.5316H89.3078V43.5H86.3195ZM105.019 39.4975V34.2273H107.965V43.5H105.152V41.7734H105.055C104.85 42.3409 104.5 42.7917 104.005 43.1257C103.514 43.4557 102.92 43.6207 102.224 43.6207C101.592 43.6207 101.037 43.4758 100.558 43.1861C100.079 42.8963 99.7064 42.4918 99.4408 41.9726C99.1751 41.4494 99.0403 40.8377 99.0363 40.1374V34.2273H101.988V39.5579C101.992 40.061 102.125 40.4574 102.387 40.7471C102.648 41.0369 103.005 41.1818 103.455 41.1818C103.749 41.1818 104.013 41.1174 104.246 40.9886C104.484 40.8558 104.671 40.6646 104.808 40.4151C104.948 40.1616 105.019 39.8557 105.019 39.4975ZM109.844 43.5V31.1364H112.796V35.815H112.856C112.977 35.5333 113.148 35.2616 113.369 35C113.595 34.7384 113.881 34.5251 114.227 34.3601C114.577 34.191 114.995 34.1065 115.482 34.1065C116.126 34.1065 116.728 34.2756 117.287 34.6136C117.851 34.9517 118.306 35.4729 118.652 36.1772C118.998 36.8815 119.171 37.779 119.171 38.8697C119.171 39.9201 119.004 40.7995 118.67 41.5078C118.34 42.2161 117.893 42.7474 117.33 43.1016C116.77 43.4557 116.148 43.6328 115.464 43.6328C114.997 43.6328 114.593 43.5563 114.251 43.4034C113.909 43.2505 113.621 43.0492 113.388 42.7997C113.158 42.5502 112.981 42.2825 112.856 41.9968H112.766V43.5H109.844ZM112.736 38.8636C112.736 39.3627 112.802 39.7973 112.935 40.1676C113.072 40.5379 113.267 40.8256 113.52 41.0309C113.778 41.2321 114.086 41.3327 114.444 41.3327C114.806 41.3327 115.114 41.2321 115.368 41.0309C115.621 40.8256 115.812 40.5379 115.941 40.1676C116.074 39.7973 116.14 39.3627 116.14 38.8636C116.14 38.3646 116.074 37.9319 115.941 37.5657C115.812 37.1994 115.621 36.9157 115.368 36.7145C115.118 36.5132 114.81 36.4126 114.444 36.4126C114.082 36.4126 113.774 36.5112 113.52 36.7084C113.267 36.9056 113.072 37.1874 112.935 37.5536C112.802 37.9199 112.736 38.3565 112.736 38.8636Z" fill="#EFEFEF"/>
</g>
</g>
<rect x="1.05" y="1.05" width="224.9" height="53.9" rx="6.95" stroke="white" stroke-opacity="0.15" stroke-width="2.1"/>
<defs>
<filter id="filter0_d_1_50" x="5.66071" y="2.28571" width="194.053" height="150.428" filterUnits="userSpaceOnUse" color-interpolation-filters="sRGB">
<feFlood flood-opacity="0" result="BackgroundImageFix"/>
<feColorMatrix in="SourceAlpha" type="matrix" values="0 0 0 0 0 0 0 0 0 0 0 0 0 0 0 0 0 0 127 0" result="hardAlpha"/>
<feOffset/>
<feGaussianBlur stdDeviation="2.85714"/>
<feComposite in2="hardAlpha" operator="out"/>
<feColorMatrix type="matrix" values="0 0 0 0 0 0 0 0 0 0 0 0 0 0 0 0 0 0 0.25 0"/>
<feBlend mode="normal" in2="BackgroundImageFix" result="effect1_dropShadow_1_50"/>
<feBlend mode="normal" in="SourceGraphic" in2="effect1_dropShadow_1_50" result="shape"/>
</filter>
<filter id="filter1_d_1_50" x="54.4" y="3.9" width="166.2" height="48.2" filterUnits="userSpaceOnUse" color-interpolation-filters="sRGB">
<feFlood flood-opacity="0" result="BackgroundImageFix"/>
<feColorMatrix in="SourceAlpha" type="matrix" values="0 0 0 0 0 0 0 0 0 0 0 0 0 0 0 0 0 0 127 0" result="hardAlpha"/>
<feOffset/>
<feGaussianBlur stdDeviation="2.8"/>
<feComposite in2="hardAlpha" operator="out"/>
<feColorMatrix type="matrix" values="0 0 0 0 0 0 0 0 0 0 0 0 0 0 0 0 0 0 0.25 0"/>
<feBlend mode="normal" in2="BackgroundImageFix" result="effect1_dropShadow_1_50"/>
<feBlend mode="normal" in="SourceGraphic" in2="effect1_dropShadow_1_50" result="shape"/>
</filter>
<linearGradient id="paint0_linear_1_50" x1="113.5" y1="0" x2="113.5" y2="56" gradientUnits="userSpaceOnUse">
<stop stop-color="#181F29"/>
<stop offset="1" stop-color="#0F131A"/>
</linearGradient>
<clipPath id="clip0_1_50">
<rect width="227" height="56" rx="8" fill="white"/>
</clipPath>
</defs>
</svg>
