<svg width="249" height="40" viewBox="0 0 249 40" fill="none" xmlns="http://www.w3.org/2000/svg">
<rect width="249.001" height="40.0014" rx="8" fill="url(#paint0_linear_1_56)"/>
<rect x="1.07143" y="1.07143" width="246.858" height="37.8585" rx="6.92857" stroke="white" stroke-opacity="0.15" stroke-width="2.14286"/>
<g filter="url(#filter0_d_1_56)">
<path d="M24.184 21.442L31.765 32.649L29.854 34L21.7982 22.9517L13.7423 34L11.8325 32.649L19.4135 21.442L8.4375 16.7567L9.155 14.785L20.3503 18.8252L20.7272 6H22.8575L23.2343 18.8252L34.4297 14.7862L35.1472 16.7578L24.1957 21.442H24.184Z" fill="#FFFF66"/>
</g>
<g filter="url(#filter1_d_1_56)">
<path d="M43.3597 26.5007V14.1371H47.8874C48.7648 14.1371 49.4912 14.282 50.0667 14.5717C50.6423 14.8575 51.0729 15.2458 51.3586 15.7369C51.6444 16.2238 51.7873 16.7732 51.7873 17.3849C51.7873 17.9001 51.6927 18.3347 51.5035 18.6889C51.3144 19.0391 51.0608 19.3208 50.7429 19.5341C50.429 19.7434 50.0828 19.8963 49.7045 19.9929V20.1136C50.115 20.1337 50.5155 20.2666 50.9059 20.5121C51.3003 20.7535 51.6263 21.0976 51.8839 21.5444C52.1414 21.9911 52.2702 22.5344 52.2702 23.1743C52.2702 23.8062 52.1213 24.3737 51.8235 24.8768C51.5297 25.3758 51.0749 25.7722 50.4591 26.066C49.8434 26.3558 49.0566 26.5007 48.0987 26.5007H43.3597ZM45.2251 24.9009H47.9176C48.8111 24.9009 49.451 24.7279 49.8373 24.3817C50.2237 24.0356 50.4169 23.603 50.4169 23.0838C50.4169 22.6934 50.3183 22.3352 50.1211 22.0092C49.9239 21.6832 49.6421 21.4236 49.2759 21.2305C48.9137 21.0373 48.483 20.9407 47.984 20.9407H45.2251V24.9009ZM45.2251 19.4858H47.7244C48.143 19.4858 48.5193 19.4053 48.8533 19.2443C49.1914 19.0833 49.459 18.8579 49.6562 18.5682C49.8575 18.2744 49.9581 17.9283 49.9581 17.5298C49.9581 17.0187 49.779 16.5901 49.4208 16.244C49.0626 15.8978 48.5132 15.7248 47.7727 15.7248H45.2251V19.4858ZM60.2118 22.6552V17.228H62.0229V26.5007H60.248V24.8949H60.1514C59.9381 25.3899 59.596 25.8024 59.1251 26.1324C58.6583 26.4584 58.0767 26.6214 57.3805 26.6214C56.7848 26.6214 56.2576 26.4906 55.7988 26.229C55.344 25.9634 54.9858 25.571 54.7242 25.0518C54.4667 24.5327 54.3379 23.8907 54.3379 23.1261V17.228H56.1429V22.9087C56.1429 23.5406 56.318 24.0437 56.6681 24.418C57.0183 24.7922 57.473 24.9794 58.0325 24.9794C58.3705 24.9794 58.7066 24.8949 59.0406 24.7258C59.3787 24.5568 59.6584 24.3012 59.8798 23.9591C60.1051 23.6171 60.2158 23.1824 60.2118 22.6552ZM64.4482 26.5007V17.228H66.2533V26.5007H64.4482ZM65.3598 15.7972C65.0459 15.7972 64.7762 15.6926 64.5508 15.4833C64.3295 15.27 64.2188 15.0164 64.2188 14.7226C64.2188 14.4248 64.3295 14.1713 64.5508 13.962C64.7762 13.7487 65.0459 13.642 65.3598 13.642C65.6737 13.642 65.9413 13.7487 66.1627 13.962C66.3881 14.1713 66.5008 14.4248 66.5008 14.7226C66.5008 15.0164 66.3881 15.27 66.1627 15.4833C65.9413 15.6926 65.6737 15.7972 65.3598 15.7972ZM70.4867 14.1371V26.5007H68.6816V14.1371H70.4867ZM77.2435 17.228V18.6768H72.1785V17.228H77.2435ZM73.5368 15.0064H75.3419V23.778C75.3419 24.1282 75.3942 24.3918 75.4988 24.5689C75.6035 24.7419 75.7383 24.8607 75.9033 24.9251C76.0723 24.9854 76.2554 25.0156 76.4526 25.0156C76.5975 25.0156 76.7243 25.0056 76.833 24.9854C76.9416 24.9653 77.0262 24.9492 77.0865 24.9371L77.4125 26.4283C77.3079 26.4685 77.159 26.5087 76.9658 26.549C76.7726 26.5933 76.5311 26.6174 76.2414 26.6214C75.7664 26.6295 75.3237 26.545 74.9132 26.3679C74.5027 26.1908 74.1707 25.9171 73.9171 25.5469C73.6636 25.1766 73.5368 24.7118 73.5368 24.1523V15.0064ZM88.1522 17.228V18.6768H82.9122V17.228H88.1522ZM84.349 26.5007V16.1534C84.349 15.5739 84.4757 15.0929 84.7293 14.7106C84.9828 14.3242 85.3189 14.0364 85.7374 13.8473C86.156 13.6541 86.6108 13.5575 87.1018 13.5575C87.464 13.5575 87.7739 13.5877 88.0315 13.6481C88.2891 13.7044 88.4802 13.7567 88.605 13.805L88.1824 15.266C88.0979 15.2418 87.9892 15.2136 87.8564 15.1815C87.7236 15.1452 87.5626 15.1271 87.3735 15.1271C86.9348 15.1271 86.6208 15.2358 86.4317 15.4531C86.2466 15.6704 86.154 15.9844 86.154 16.3949V26.5007H84.349ZM93.5553 26.6878C92.686 26.6878 91.9273 26.4886 91.2793 26.0902C90.6314 25.6917 90.1283 25.1343 89.7701 24.418C89.4119 23.7016 89.2328 22.8645 89.2328 21.9066C89.2328 20.9447 89.4119 20.1036 89.7701 19.3832C90.1283 18.6627 90.6314 18.1033 91.2793 17.7049C91.9273 17.3065 92.686 17.1072 93.5553 17.1072C94.4246 17.1072 95.1832 17.3065 95.8312 17.7049C96.4792 18.1033 96.9822 18.6627 97.3404 19.3832C97.6986 20.1036 97.8777 20.9447 97.8777 21.9066C97.8777 22.8645 97.6986 23.7016 97.3404 24.418C96.9822 25.1343 96.4792 25.6917 95.8312 26.0902C95.1832 26.4886 94.4246 26.6878 93.5553 26.6878ZM93.5613 25.1726C94.1248 25.1726 94.5916 25.0237 94.9619 24.7258C95.3321 24.428 95.6058 24.0316 95.7829 23.5366C95.964 23.0415 96.0546 22.4962 96.0546 21.9006C96.0546 21.3089 95.964 20.7656 95.7829 20.2706C95.6058 19.7715 95.3321 19.3711 94.9619 19.0692C94.5916 18.7674 94.1248 18.6165 93.5613 18.6165C92.9938 18.6165 92.523 18.7674 92.1487 19.0692C91.7784 19.3711 91.5027 19.7715 91.3216 20.2706C91.1445 20.7656 91.056 21.3089 91.056 21.9006C91.056 22.4962 91.1445 23.0415 91.3216 23.5366C91.5027 24.0316 91.7784 24.428 92.1487 24.7258C92.523 25.0237 92.9938 25.1726 93.5613 25.1726ZM99.8925 26.5007V17.228H101.637V18.701H101.734C101.903 18.2019 102.201 17.8095 102.627 17.5238C103.058 17.234 103.545 17.0891 104.088 17.0891C104.201 17.0891 104.334 17.0931 104.487 17.1012C104.644 17.1092 104.766 17.1193 104.855 17.1314V18.8579C104.782 18.8378 104.654 18.8157 104.469 18.7915C104.283 18.7634 104.098 18.7493 103.913 18.7493C103.487 18.7493 103.106 18.8398 102.772 19.0209C102.442 19.198 102.181 19.4455 101.987 19.7635C101.794 20.0774 101.698 20.4356 101.698 20.8381V26.5007H99.8925Z" fill="#E8E8E8"/>
<path d="M113.611 26.0007H110.4L114.571 13.6371H118.55L122.721 26.0007H119.51L116.606 16.7521H116.509L113.611 26.0007ZM113.183 21.1349H119.896V23.4048H113.183V21.1349ZM126.858 26.1335C126.174 26.1335 125.552 25.9564 124.993 25.6023C124.433 25.2481 123.986 24.7168 123.652 24.0085C123.318 23.3002 123.151 22.4208 123.151 21.3704C123.151 20.2797 123.324 19.3822 123.67 18.6779C124.017 17.9736 124.469 17.4524 125.029 17.1143C125.592 16.7763 126.198 16.6072 126.846 16.6072C127.333 16.6072 127.749 16.6918 128.096 16.8608C128.442 17.0258 128.727 17.2391 128.953 17.5007C129.178 17.7623 129.349 18.034 129.466 18.3157H129.526V13.6371H132.478V26.0007H129.556V24.4975H129.466C129.341 24.7832 129.164 25.0509 128.935 25.3004C128.705 25.5499 128.418 25.7512 128.071 25.9041C127.729 26.057 127.325 26.1335 126.858 26.1335ZM127.884 23.8334C128.242 23.8334 128.548 23.7328 128.802 23.5316C129.055 23.3263 129.251 23.0386 129.387 22.6683C129.524 22.298 129.593 21.8634 129.593 21.3643C129.593 20.8572 129.524 20.4206 129.387 20.0543C129.255 19.6881 129.059 19.4064 128.802 19.2092C128.548 19.0119 128.242 18.9133 127.884 18.9133C127.518 18.9133 127.208 19.014 126.955 19.2152C126.701 19.4164 126.508 19.7002 126.375 20.0664C126.246 20.4326 126.182 20.8653 126.182 21.3643C126.182 21.8634 126.248 22.298 126.381 22.6683C126.514 23.0386 126.705 23.3263 126.955 23.5316C127.208 23.7328 127.518 23.8334 127.884 23.8334ZM143.34 16.728L140.159 26.0007H136.778L133.603 16.728H136.712L138.42 23.115H138.517L140.231 16.728H143.34ZM148.508 26.1758C147.538 26.1758 146.701 25.9846 145.997 25.6023C145.296 25.2159 144.757 24.6665 144.379 23.9542C144.004 23.2378 143.817 22.3866 143.817 21.4006C143.817 20.4427 144.006 19.6056 144.385 18.8892C144.763 18.1688 145.296 17.6094 145.984 17.2109C146.673 16.8085 147.484 16.6072 148.417 16.6072C149.077 16.6072 149.681 16.7099 150.228 16.9151C150.776 17.1204 151.249 17.4242 151.647 17.8267C152.046 18.2292 152.355 18.7262 152.577 19.3178C152.798 19.9054 152.909 20.5795 152.909 21.3402V22.0767H144.85V20.3622H150.162C150.158 20.0483 150.084 19.7686 149.939 19.5231C149.794 19.2776 149.595 19.0864 149.341 18.9496C149.092 18.8087 148.804 18.7383 148.478 18.7383C148.148 18.7383 147.852 18.8127 147.59 18.9616C147.329 19.1065 147.121 19.3057 146.969 19.5593C146.816 19.8088 146.735 20.0926 146.727 20.4105V22.1552C146.727 22.5335 146.801 22.8655 146.95 23.1513C147.099 23.433 147.311 23.6523 147.584 23.8093C147.858 23.9663 148.184 24.0447 148.562 24.0447C148.824 24.0447 149.061 24.0085 149.275 23.9361C149.488 23.8636 149.671 23.757 149.824 23.6161C149.977 23.4752 150.092 23.3022 150.168 23.0969L152.879 23.1754C152.766 23.7831 152.518 24.3124 152.136 24.7631C151.758 25.2099 151.261 25.558 150.645 25.8075C150.029 26.053 149.317 26.1758 148.508 26.1758ZM157.369 20.7123V26.0007H154.417V16.728H157.224V18.4304H157.326C157.532 17.8629 157.882 17.4182 158.377 17.0962C158.872 16.7702 159.461 16.6072 160.146 16.6072C160.798 16.6072 161.363 16.7541 161.842 17.0479C162.325 17.3377 162.699 17.7442 162.965 18.2674C163.235 18.7866 163.367 19.3943 163.363 20.0905V26.0007H160.411V20.6701C160.415 20.1549 160.284 19.7525 160.019 19.4627C159.757 19.1729 159.393 19.028 158.926 19.028C158.616 19.028 158.343 19.0965 158.105 19.2333C157.872 19.3661 157.691 19.5573 157.562 19.8068C157.437 20.0563 157.373 20.3582 157.369 20.7123ZM170.425 16.728V18.9013H164.575V16.728H170.425ZM165.801 14.5064H168.753V23.0849C168.753 23.266 168.781 23.4129 168.837 23.5256C168.898 23.6342 168.984 23.7127 169.097 23.761C169.21 23.8053 169.344 23.8274 169.501 23.8274C169.614 23.8274 169.733 23.8173 169.858 23.7972C169.986 23.7731 170.083 23.7529 170.147 23.7368L170.594 25.8679C170.453 25.9081 170.254 25.9584 169.996 26.0188C169.743 26.0792 169.439 26.1174 169.085 26.1335C168.393 26.1657 167.799 26.0852 167.304 25.892C166.813 25.6948 166.437 25.389 166.175 24.9744C165.917 24.5599 165.793 24.0387 165.801 23.4109V14.5064ZM179.912 26.1758C178.938 26.1758 178.101 25.9765 177.401 25.5781C176.704 25.1757 176.167 24.6162 175.789 23.8998C175.415 23.1794 175.227 22.3443 175.227 21.3945C175.227 20.4407 175.415 19.6056 175.789 18.8892C176.167 18.1688 176.704 17.6094 177.401 17.2109C178.101 16.8085 178.938 16.6072 179.912 16.6072C180.886 16.6072 181.721 16.8085 182.417 17.2109C183.118 17.6094 183.655 18.1688 184.029 18.8892C184.408 19.6056 184.597 20.4407 184.597 21.3945C184.597 22.3443 184.408 23.1794 184.029 23.8998C183.655 24.6162 183.118 25.1757 182.417 25.5781C181.721 25.9765 180.886 26.1758 179.912 26.1758ZM179.93 23.9481C180.284 23.9481 180.584 23.8395 180.83 23.6221C181.075 23.4048 181.262 23.103 181.391 22.7166C181.524 22.3302 181.59 21.8835 181.59 21.3764C181.59 20.8613 181.524 20.4105 181.391 20.0241C181.262 19.6378 181.075 19.3359 180.83 19.1186C180.584 18.9013 180.284 18.7926 179.93 18.7926C179.564 18.7926 179.254 18.9013 179 19.1186C178.751 19.3359 178.56 19.6378 178.427 20.0241C178.298 20.4105 178.234 20.8613 178.234 21.3764C178.234 21.8835 178.298 22.3302 178.427 22.7166C178.56 23.103 178.751 23.4048 179 23.6221C179.254 23.8395 179.564 23.9481 179.93 23.9481ZM191.379 16.728V18.9013H185.415V16.728H191.379ZM186.658 26.0007V16.2571C186.658 15.5407 186.793 14.9471 187.063 14.4762C187.332 14.0013 187.707 13.6471 188.186 13.4137C188.665 13.1762 189.218 13.0575 189.846 13.0575C190.256 13.0575 190.643 13.0897 191.005 13.1541C191.371 13.2145 191.643 13.2688 191.82 13.3171L191.349 15.4783C191.24 15.4421 191.108 15.4119 190.951 15.3878C190.798 15.3636 190.653 15.3516 190.516 15.3516C190.17 15.3516 189.932 15.428 189.804 15.581C189.675 15.7339 189.61 15.9432 189.61 16.2088V26.0007H186.658ZM207.674 18.1165H204.656C204.616 17.8066 204.533 17.5269 204.408 17.2773C204.284 17.0278 204.119 16.8145 203.913 16.6374C203.708 16.4603 203.465 16.3255 203.183 16.2329C202.905 16.1364 202.597 16.0881 202.259 16.0881C201.66 16.0881 201.142 16.235 200.708 16.5288C200.277 16.8226 199.945 17.2471 199.712 17.8025C199.482 18.3579 199.368 19.0301 199.368 19.8189C199.368 20.6399 199.484 21.3281 199.718 21.8835C199.955 22.4349 200.287 22.8514 200.714 23.1332C201.144 23.4109 201.654 23.5497 202.241 23.5497C202.571 23.5497 202.871 23.5074 203.141 23.4229C203.414 23.3384 203.654 23.2157 203.859 23.0547C204.068 22.8897 204.239 22.6904 204.372 22.457C204.509 22.2196 204.604 21.9519 204.656 21.6541L207.674 21.6722C207.622 22.2196 207.463 22.7589 207.197 23.2901C206.936 23.8214 206.576 24.3063 206.117 24.745C205.658 25.1797 205.099 25.5258 204.439 25.7834C203.783 26.0409 203.03 26.1697 202.181 26.1697C201.062 26.1697 200.06 25.9242 199.174 25.4332C198.293 24.9382 197.597 24.2178 197.086 23.272C196.574 22.3262 196.319 21.1752 196.319 19.8189C196.319 18.4586 196.578 17.3055 197.098 16.3597C197.617 15.4139 198.319 14.6955 199.205 14.2045C200.09 13.7135 201.082 13.468 202.181 13.468C202.929 13.468 203.622 13.5727 204.257 13.782C204.893 13.9872 205.453 14.2891 205.936 14.6875C206.419 15.0819 206.811 15.5669 207.113 16.1424C207.415 16.7179 207.602 17.3759 207.674 18.1165ZM213.713 26.1758C212.739 26.1758 211.902 25.9765 211.201 25.5781C210.505 25.1757 209.968 24.6162 209.59 23.8998C209.215 23.1794 209.028 22.3443 209.028 21.3945C209.028 20.4407 209.215 19.6056 209.59 18.8892C209.968 18.1688 210.505 17.6094 211.201 17.2109C211.902 16.8085 212.739 16.6072 213.713 16.6072C214.687 16.6072 215.522 16.8085 216.218 17.2109C216.918 17.6094 217.456 18.1688 217.83 18.8892C218.208 19.6056 218.397 20.4407 218.397 21.3945C218.397 22.3443 218.208 23.1794 217.83 23.8998C217.456 24.6162 216.918 25.1757 216.218 25.5781C215.522 25.9765 214.687 26.1758 213.713 26.1758ZM213.731 23.9481C214.085 23.9481 214.385 23.8395 214.63 23.6221C214.876 23.4048 215.063 23.103 215.192 22.7166C215.325 22.3302 215.391 21.8835 215.391 21.3764C215.391 20.8613 215.325 20.4105 215.192 20.0241C215.063 19.6378 214.876 19.3359 214.63 19.1186C214.385 18.9013 214.085 18.7926 213.731 18.7926C213.365 18.7926 213.055 18.9013 212.801 19.1186C212.552 19.3359 212.361 19.6378 212.228 20.0241C212.099 20.4105 212.035 20.8613 212.035 21.3764C212.035 21.8835 212.099 22.3302 212.228 22.7166C212.361 23.103 212.552 23.4048 212.801 23.6221C213.055 23.8395 213.365 23.9481 213.731 23.9481ZM223.296 26.1335C222.612 26.1335 221.99 25.9564 221.431 25.6023C220.872 25.2481 220.425 24.7168 220.091 24.0085C219.757 23.3002 219.59 22.4208 219.59 21.3704C219.59 20.2797 219.763 19.3822 220.109 18.6779C220.455 17.9736 220.908 17.4524 221.467 17.1143C222.031 16.7763 222.636 16.6072 223.284 16.6072C223.771 16.6072 224.188 16.6918 224.534 16.8608C224.88 17.0258 225.166 17.2391 225.391 17.5007C225.617 17.7623 225.788 18.034 225.904 18.3157H225.965V13.6371H228.917V26.0007H225.995V24.4975H225.904C225.78 24.7832 225.603 25.0509 225.373 25.3004C225.144 25.5499 224.856 25.7512 224.51 25.9041C224.168 26.057 223.763 26.1335 223.296 26.1335ZM224.323 23.8334C224.681 23.8334 224.987 23.7328 225.24 23.5316C225.494 23.3263 225.689 23.0386 225.826 22.6683C225.963 22.298 226.031 21.8634 226.031 21.3643C226.031 20.8572 225.963 20.4206 225.826 20.0543C225.693 19.6881 225.498 19.4064 225.24 19.2092C224.987 19.0119 224.681 18.9133 224.323 18.9133C223.956 18.9133 223.647 19.014 223.393 19.2152C223.139 19.4164 222.946 19.7002 222.813 20.0664C222.685 20.4326 222.62 20.8653 222.62 21.3643C222.62 21.8634 222.687 22.298 222.82 22.6683C222.952 23.0386 223.144 23.3263 223.393 23.5316C223.647 23.7328 223.956 23.8334 224.323 23.8334ZM235.118 26.1758C234.148 26.1758 233.311 25.9846 232.607 25.6023C231.907 25.2159 231.367 24.6665 230.989 23.9542C230.615 23.2378 230.428 22.3866 230.428 21.4006C230.428 20.4427 230.617 19.6056 230.995 18.8892C231.373 18.1688 231.907 17.6094 232.595 17.2109C233.283 16.8085 234.094 16.6072 235.028 16.6072C235.688 16.6072 236.291 16.7099 236.839 16.9151C237.386 17.1204 237.859 17.4242 238.257 17.8267C238.656 18.2292 238.966 18.7262 239.187 19.3178C239.409 19.9054 239.519 20.5795 239.519 21.3402V22.0767H231.46V20.3622H236.772C236.768 20.0483 236.694 19.7686 236.549 19.5231C236.404 19.2776 236.205 19.0864 235.951 18.9496C235.702 18.8087 235.414 18.7383 235.088 18.7383C234.758 18.7383 234.462 18.8127 234.201 18.9616C233.939 19.1065 233.732 19.3057 233.579 19.5593C233.426 19.8088 233.345 20.0926 233.337 20.4105V22.1552C233.337 22.5335 233.412 22.8655 233.561 23.1513C233.71 23.433 233.921 23.6523 234.195 23.8093C234.468 23.9663 234.794 24.0447 235.173 24.0447C235.434 24.0447 235.672 24.0085 235.885 23.9361C236.098 23.8636 236.281 23.757 236.434 23.6161C236.587 23.4752 236.702 23.3022 236.778 23.0969L239.489 23.1754C239.376 23.7831 239.129 24.3124 238.746 24.7631C238.368 25.2099 237.871 25.558 237.255 25.8075C236.64 26.053 235.927 26.1758 235.118 26.1758Z" fill="#00CC00"/>
</g>
<defs>
<filter id="filter0_d_1_56" x="2.39972" y="0.39972" width="39.202" height="39.202" filterUnits="userSpaceOnUse" color-interpolation-filters="sRGB">
<feFlood flood-opacity="0" result="BackgroundImageFix"/>
<feColorMatrix in="SourceAlpha" type="matrix" values="0 0 0 0 0 0 0 0 0 0 0 0 0 0 0 0 0 0 127 0" result="hardAlpha"/>
<feOffset/>
<feGaussianBlur stdDeviation="2.80014"/>
<feComposite in2="hardAlpha" operator="out"/>
<feColorMatrix type="matrix" values="0 0 0 0 0 0 0 0 0 0 0 0 0 0 0 0 0 0 0.25 0"/>
<feBlend mode="normal" in2="BackgroundImageFix" result="effect1_dropShadow_1_56"/>
<feBlend mode="normal" in="SourceGraphic" in2="effect1_dropShadow_1_56" result="shape"/>
</filter>
<filter id="filter1_d_1_56" x="36.2871" y="3.78642" width="210.429" height="32.4286" filterUnits="userSpaceOnUse" color-interpolation-filters="sRGB">
<feFlood flood-opacity="0" result="BackgroundImageFix"/>
<feColorMatrix in="SourceAlpha" type="matrix" values="0 0 0 0 0 0 0 0 0 0 0 0 0 0 0 0 0 0 127 0" result="hardAlpha"/>
<feOffset/>
<feGaussianBlur stdDeviation="2.85714"/>
<feComposite in2="hardAlpha" operator="out"/>
<feColorMatrix type="matrix" values="0 0 0 0 0 0 0 0 0 0 0 0 0 0 0 0 0 0 0.25 0"/>
<feBlend mode="normal" in2="BackgroundImageFix" result="effect1_dropShadow_1_56"/>
<feBlend mode="normal" in="SourceGraphic" in2="effect1_dropShadow_1_56" result="shape"/>
</filter>
<linearGradient id="paint0_linear_1_56" x1="124.501" y1="0" x2="124.501" y2="40.0014" gradientUnits="userSpaceOnUse">
<stop stop-color="#0F0F23"/>
<stop offset="1" stop-color="#0A0A18"/>
</linearGradient>
</defs>
</svg>
