<svg width="203" height="56" viewBox="0 0 203 56" fill="none" xmlns="http://www.w3.org/2000/svg">
<rect width="203" height="56" rx="8" fill="url(#paint0_linear_1_50)"/>
<rect x="1.05" y="1.05" width="200.9" height="53.9" rx="6.95" stroke="white" stroke-opacity="0.15" stroke-width="2.1"/>
<g filter="url(#filter0_d_1_50)">
<path d="M35.12 30.06L45.95 46.07L43.22 48L31.7117 32.2167L20.2033 48L17.475 46.07L28.305 30.06L12.625 23.3667L13.65 20.55L29.6433 26.3217L30.1817 8H33.225L33.7633 26.3217L49.7567 20.5517L50.7817 23.3683L35.1367 30.06H35.12Z" fill="#FFFF66"/>
</g>
<g filter="url(#filter1_d_1_50)">
<path d="M61.2784 24.5V12.8636H65.5398C66.3655 12.8636 67.0492 13 67.5909 13.2727C68.1326 13.5417 68.5379 13.9072 68.8068 14.3693C69.0757 14.8276 69.2102 15.3447 69.2102 15.9204C69.2102 16.4053 69.1212 16.8144 68.9432 17.1477C68.7651 17.4773 68.5265 17.7424 68.2273 17.9432C67.9318 18.1401 67.606 18.2841 67.25 18.375V18.4886C67.6363 18.5076 68.0132 18.6326 68.3807 18.8636C68.7519 19.0909 69.0587 19.4148 69.3011 19.8352C69.5435 20.2557 69.6648 20.767 69.6648 21.3693C69.6648 21.964 69.5246 22.4981 69.2443 22.9716C68.9678 23.4413 68.5398 23.8144 67.9602 24.0909C67.3807 24.3636 66.6401 24.5 65.7386 24.5H61.2784ZM63.0341 22.9943H65.5682C66.4091 22.9943 67.0113 22.8314 67.375 22.5057C67.7386 22.1799 67.9204 21.7727 67.9204 21.2841C67.9204 20.9167 67.8276 20.5795 67.642 20.2727C67.4564 19.9659 67.1913 19.7216 66.8466 19.5398C66.5057 19.3579 66.1004 19.267 65.6307 19.267H63.0341V22.9943ZM63.0341 17.8977H65.3863C65.7803 17.8977 66.1345 17.822 66.4488 17.6704C66.767 17.5189 67.0189 17.3068 67.2045 17.0341C67.3939 16.7576 67.4886 16.4318 67.4886 16.0568C67.4886 15.5758 67.3201 15.1723 66.9829 14.8466C66.6458 14.5208 66.1288 14.3579 65.4318 14.3579H63.0341V17.8977ZM77.1392 20.8807V15.7727H78.8437V24.5H77.1733V22.9886H77.0824C76.8816 23.4545 76.5596 23.8428 76.1165 24.1534C75.6771 24.4602 75.1297 24.6136 74.4744 24.6136C73.9138 24.6136 73.4176 24.4905 72.9858 24.2443C72.5577 23.9943 72.2206 23.625 71.9744 23.1364C71.732 22.6477 71.6108 22.0436 71.6108 21.3239V15.7727H73.3096V21.1193C73.3096 21.714 73.4744 22.1875 73.804 22.5398C74.1335 22.892 74.5615 23.0682 75.088 23.0682C75.4062 23.0682 75.7225 22.9886 76.0369 22.8295C76.3551 22.6704 76.6184 22.4299 76.8267 22.1079C77.0388 21.786 77.143 21.3769 77.1392 20.8807ZM81.1264 24.5V15.7727H82.8253V24.5H81.1264ZM81.9844 14.4261C81.6889 14.4261 81.4351 14.3276 81.223 14.1307C81.0147 13.9299 80.9105 13.6913 80.9105 13.4148C80.9105 13.1345 81.0147 12.8958 81.223 12.6989C81.4351 12.4981 81.6889 12.3977 81.9844 12.3977C82.2798 12.3977 82.5317 12.4981 82.74 12.6989C82.9522 12.8958 83.0582 13.1345 83.0582 13.4148C83.0582 13.6913 82.9522 13.9299 82.74 14.1307C82.5317 14.3276 82.2798 14.4261 81.9844 14.4261ZM86.8096 12.8636V24.5H85.1108V12.8636H86.8096ZM93.169 15.7727V17.1364H88.402V15.7727H93.169ZM89.6804 13.6818H91.3792V21.9375C91.3792 22.267 91.4285 22.5151 91.527 22.6818C91.6254 22.8447 91.7523 22.9564 91.9076 23.017C92.0667 23.0739 92.2391 23.1023 92.4247 23.1023C92.5611 23.1023 92.6804 23.0928 92.7826 23.0739C92.8849 23.0549 92.9645 23.0398 93.0213 23.0284L93.3281 24.4318C93.2296 24.4697 93.0895 24.5076 92.9076 24.5454C92.7258 24.5871 92.4986 24.6098 92.2258 24.6136C91.7789 24.6212 91.3622 24.5417 90.9758 24.375C90.5895 24.2083 90.277 23.9508 90.0383 23.6023C89.7997 23.2538 89.6804 22.8163 89.6804 22.2898V13.6818ZM103.436 15.7727V17.1364H98.5042V15.7727H103.436ZM99.8565 24.5V14.7614C99.8565 14.2159 99.9758 13.7633 100.214 13.4034C100.453 13.0398 100.769 12.7689 101.163 12.5909C101.557 12.4091 101.985 12.3182 102.447 12.3182C102.788 12.3182 103.08 12.3466 103.322 12.4034C103.565 12.4564 103.745 12.5057 103.862 12.5511L103.464 13.9261C103.385 13.9034 103.283 13.8769 103.158 13.8466C103.033 13.8125 102.881 13.7954 102.703 13.7954C102.29 13.7954 101.995 13.8977 101.817 14.1023C101.642 14.3068 101.555 14.6023 101.555 14.9886V24.5H99.8565ZM108.521 24.6761C107.703 24.6761 106.989 24.4886 106.379 24.1136C105.769 23.7386 105.296 23.214 104.959 22.5398C104.622 21.8655 104.453 21.0776 104.453 20.1761C104.453 19.2708 104.622 18.4792 104.959 17.8011C105.296 17.1231 105.769 16.5966 106.379 16.2216C106.989 15.8466 107.703 15.6591 108.521 15.6591C109.339 15.6591 110.053 15.8466 110.663 16.2216C111.273 16.5966 111.747 17.1231 112.084 17.8011C112.421 18.4792 112.589 19.2708 112.589 20.1761C112.589 21.0776 112.421 21.8655 112.084 22.5398C111.747 23.214 111.273 23.7386 110.663 24.1136C110.053 24.4886 109.339 24.6761 108.521 24.6761ZM108.527 23.25C109.057 23.25 109.497 23.1098 109.845 22.8295C110.194 22.5492 110.451 22.1761 110.618 21.7102C110.788 21.2443 110.874 20.7311 110.874 20.1704C110.874 19.6136 110.788 19.1023 110.618 18.6364C110.451 18.1667 110.194 17.7898 109.845 17.5057C109.497 17.2216 109.057 17.0795 108.527 17.0795C107.993 17.0795 107.55 17.2216 107.197 17.5057C106.849 17.7898 106.589 18.1667 106.419 18.6364C106.252 19.1023 106.169 19.6136 106.169 20.1704C106.169 20.7311 106.252 21.2443 106.419 21.7102C106.589 22.1761 106.849 22.5492 107.197 22.8295C107.55 23.1098 107.993 23.25 108.527 23.25ZM114.486 24.5V15.7727H116.128V17.1591H116.219C116.378 16.6894 116.658 16.3201 117.06 16.0511C117.465 15.7784 117.923 15.642 118.435 15.642C118.541 15.642 118.666 15.6458 118.81 15.6534C118.957 15.661 119.073 15.6704 119.156 15.6818V17.3068C119.088 17.2879 118.967 17.267 118.793 17.2443C118.618 17.2178 118.444 17.2045 118.27 17.2045C117.868 17.2045 117.51 17.2898 117.196 17.4602C116.885 17.6269 116.639 17.8598 116.457 18.1591C116.276 18.4545 116.185 18.7917 116.185 19.1704V24.5H114.486Z" fill="#E8E8E8"/>
<path d="M63.6101 43.5H60.3984L64.5699 31.1364H68.5483L72.7198 43.5H69.5081L66.6044 34.2514H66.5078L63.6101 43.5ZM63.1814 38.6342H69.8945V40.9041H63.1814V38.6342ZM76.8566 43.6328C76.1724 43.6328 75.5506 43.4557 74.9912 43.1016C74.4318 42.7474 73.985 42.2161 73.651 41.5078C73.3169 40.7995 73.1499 39.9201 73.1499 38.8697C73.1499 37.779 73.323 36.8815 73.6691 36.1772C74.0152 35.4729 74.468 34.9517 75.0274 34.6136C75.5909 34.2756 76.1966 34.1065 76.8445 34.1065C77.3315 34.1065 77.7481 34.191 78.0942 34.3601C78.4403 34.5251 78.726 34.7384 78.9514 35C79.1768 35.2616 79.3478 35.5333 79.4646 35.815H79.5249V31.1364H82.477V43.5H79.5551V41.9968H79.4646C79.3398 42.2825 79.1627 42.5502 78.9333 42.7997C78.7039 43.0492 78.4161 43.2505 78.07 43.4034C77.7279 43.5563 77.3235 43.6328 76.8566 43.6328ZM77.8829 41.3327C78.2411 41.3327 78.5469 41.2321 78.8005 41.0309C79.054 40.8256 79.2492 40.5379 79.3861 40.1676C79.5229 39.7973 79.5913 39.3627 79.5913 38.8636C79.5913 38.3565 79.5229 37.9199 79.3861 37.5536C79.2533 37.1874 79.0581 36.9056 78.8005 36.7084C78.5469 36.5112 78.2411 36.4126 77.8829 36.4126C77.5166 36.4126 77.2067 36.5132 76.9532 36.7145C76.6996 36.9157 76.5065 37.1994 76.3736 37.5657C76.2449 37.9319 76.1805 38.3646 76.1805 38.8636C76.1805 39.3627 76.2469 39.7973 76.3797 40.1676C76.5125 40.5379 76.7037 40.8256 76.9532 41.0309C77.2067 41.2321 77.5166 41.3327 77.8829 41.3327ZM93.3389 34.2273L90.1575 43.5H86.7768L83.6014 34.2273H86.7104L88.4188 40.6143H88.5154L90.2299 34.2273H93.3389ZM98.5065 43.6751C97.5366 43.6751 96.6995 43.4839 95.9952 43.1016C95.2949 42.7152 94.7556 42.1658 94.3773 41.4535C94.003 40.7371 93.8158 39.8859 93.8158 38.8998C93.8158 37.942 94.005 37.1049 94.3833 36.3885C94.7616 35.6681 95.2949 35.1087 95.9831 34.7102C96.6713 34.3078 97.4823 34.1065 98.416 34.1065C99.076 34.1065 99.6797 34.2092 100.227 34.4144C100.774 34.6197 101.247 34.9235 101.646 35.326C102.044 35.7284 102.354 36.2255 102.575 36.8171C102.797 37.4047 102.907 38.0788 102.907 38.8395V39.576H94.8482V37.8615H100.161C100.157 37.5476 100.082 37.2679 99.9373 37.0224C99.7924 36.7769 99.5932 36.5857 99.3396 36.4489C99.0901 36.308 98.8024 36.2376 98.4764 36.2376C98.1463 36.2376 97.8505 36.312 97.5889 36.4609C97.3273 36.6058 97.1201 36.805 96.9671 37.0586C96.8142 37.3081 96.7337 37.5918 96.7256 37.9098V39.6545C96.7256 40.0328 96.8001 40.3648 96.949 40.6506C97.0979 40.9323 97.3092 41.1516 97.5829 41.3086C97.8566 41.4655 98.1826 41.544 98.5609 41.544C98.8225 41.544 99.0599 41.5078 99.2732 41.4354C99.4865 41.3629 99.6697 41.2563 99.8226 41.1154C99.9755 40.9745 100.09 40.8015 100.167 40.5962L102.877 40.6747C102.765 41.2824 102.517 41.8117 102.135 42.2624C101.756 42.7092 101.259 43.0573 100.644 43.3068C100.028 43.5523 99.3155 43.6751 98.5065 43.6751ZM107.367 38.2116V43.5H104.415V34.2273H107.222V35.9297H107.325C107.53 35.3622 107.88 34.9175 108.375 34.5955C108.87 34.2695 109.46 34.1065 110.144 34.1065C110.796 34.1065 111.362 34.2534 111.841 34.5472C112.324 34.837 112.698 35.2435 112.963 35.7667C113.233 36.2859 113.366 36.8936 113.362 37.5898V43.5H110.41V38.1694C110.414 37.6542 110.283 37.2518 110.017 36.962C109.756 36.6722 109.392 36.5273 108.925 36.5273C108.615 36.5273 108.341 36.5958 108.104 36.7326C107.87 36.8654 107.689 37.0566 107.56 37.3061C107.436 37.5556 107.371 37.8575 107.367 38.2116ZM120.424 34.2273V36.4006H114.574V34.2273H120.424ZM115.799 32.0057H118.751V40.5842C118.751 40.7653 118.78 40.9122 118.836 41.0248C118.896 41.1335 118.983 41.212 119.095 41.2603C119.208 41.3046 119.343 41.3267 119.5 41.3267C119.613 41.3267 119.731 41.3166 119.856 41.2965C119.985 41.2724 120.082 41.2522 120.146 41.2361L120.593 43.3672C120.452 43.4074 120.253 43.4577 119.995 43.5181C119.741 43.5785 119.438 43.6167 119.083 43.6328C118.391 43.665 117.798 43.5845 117.303 43.3913C116.812 43.1941 116.435 42.8882 116.174 42.4737C115.916 42.0592 115.791 41.538 115.799 40.9101V32.0057ZM129.911 43.6751C128.937 43.6751 128.1 43.4758 127.399 43.0774C126.703 42.6749 126.166 42.1155 125.787 41.3991C125.413 40.6787 125.226 39.8436 125.226 38.8938C125.226 37.94 125.413 37.1049 125.787 36.3885C126.166 35.6681 126.703 35.1087 127.399 34.7102C128.1 34.3078 128.937 34.1065 129.911 34.1065C130.885 34.1065 131.72 34.3078 132.416 34.7102C133.116 35.1087 133.654 35.6681 134.028 36.3885C134.406 37.1049 134.595 37.94 134.595 38.8938C134.595 39.8436 134.406 40.6787 134.028 41.3991C133.654 42.1155 133.116 42.6749 132.416 43.0774C131.72 43.4758 130.885 43.6751 129.911 43.6751ZM129.929 41.4474C130.283 41.4474 130.583 41.3388 130.828 41.1214C131.074 40.9041 131.261 40.6023 131.39 40.2159C131.523 39.8295 131.589 39.3828 131.589 38.8757C131.589 38.3605 131.523 37.9098 131.39 37.5234C131.261 37.1371 131.074 36.8352 130.828 36.6179C130.583 36.4006 130.283 36.2919 129.929 36.2919C129.563 36.2919 129.253 36.4006 128.999 36.6179C128.75 36.8352 128.558 37.1371 128.426 37.5234C128.297 37.9098 128.232 38.3605 128.232 38.8757C128.232 39.3828 128.297 39.8295 128.426 40.2159C128.558 40.6023 128.75 40.9041 128.999 41.1214C129.253 41.3388 129.563 41.4474 129.929 41.4474ZM141.378 34.2273V36.4006H135.413V34.2273H141.378ZM136.657 43.5V33.7564C136.657 33.04 136.792 32.4464 137.061 31.9755C137.331 31.5006 137.705 31.1464 138.184 30.913C138.663 30.6755 139.217 30.5568 139.844 30.5568C140.255 30.5568 140.641 30.589 141.004 30.6534C141.37 30.7138 141.641 30.7681 141.818 30.8164L141.348 32.9776C141.239 32.9414 141.106 32.9112 140.949 32.8871C140.796 32.8629 140.651 32.8508 140.515 32.8508C140.168 32.8508 139.931 32.9273 139.802 33.0802C139.673 33.2332 139.609 33.4425 139.609 33.7081V43.5H136.657ZM157.673 35.6158H154.655C154.614 35.3059 154.532 35.0261 154.407 34.7766C154.282 34.5271 154.117 34.3138 153.912 34.1367C153.707 33.9596 153.463 33.8248 153.182 33.7322C152.904 33.6356 152.596 33.5873 152.258 33.5873C151.658 33.5873 151.141 33.7342 150.706 34.028C150.276 34.3218 149.944 34.7464 149.71 35.3018C149.481 35.8572 149.366 36.5293 149.366 37.3182C149.366 38.1392 149.483 38.8274 149.716 39.3828C149.954 39.9342 150.286 40.3507 150.712 40.6324C151.143 40.9101 151.652 41.049 152.24 41.049C152.57 41.049 152.87 41.0067 153.139 40.9222C153.413 40.8377 153.652 40.715 153.858 40.554C154.067 40.389 154.238 40.1897 154.371 39.9563C154.508 39.7189 154.602 39.4512 154.655 39.1534L157.673 39.1715C157.621 39.7189 157.462 40.2582 157.196 40.7894C156.934 41.3207 156.574 41.8056 156.115 42.2443C155.657 42.679 155.097 43.0251 154.437 43.2827C153.781 43.5402 153.029 43.669 152.179 43.669C151.061 43.669 150.058 43.4235 149.173 42.9325C148.292 42.4375 147.595 41.7171 147.084 40.7713C146.573 39.8255 146.318 38.6745 146.318 37.3182C146.318 35.9578 146.577 34.8048 147.096 33.859C147.615 32.9132 148.318 32.1948 149.203 31.7038C150.089 31.2128 151.081 30.9673 152.179 30.9673C152.928 30.9673 153.62 31.072 154.256 31.2812C154.892 31.4865 155.451 31.7883 155.934 32.1868C156.417 32.5812 156.81 33.0662 157.112 33.6417C157.413 34.2172 157.601 34.8752 157.673 35.6158ZM163.711 43.6751C162.737 43.6751 161.9 43.4758 161.2 43.0774C160.504 42.6749 159.967 42.1155 159.588 41.3991C159.214 40.6787 159.027 39.8436 159.027 38.8938C159.027 37.94 159.214 37.1049 159.588 36.3885C159.967 35.6681 160.504 35.1087 161.2 34.7102C161.9 34.3078 162.737 34.1065 163.711 34.1065C164.685 34.1065 165.52 34.3078 166.217 34.7102C166.917 35.1087 167.454 35.6681 167.829 36.3885C168.207 37.1049 168.396 37.94 168.396 38.8938C168.396 39.8436 168.207 40.6787 167.829 41.3991C167.454 42.1155 166.917 42.6749 166.217 43.0774C165.52 43.4758 164.685 43.6751 163.711 43.6751ZM163.73 41.4474C164.084 41.4474 164.384 41.3388 164.629 41.1214C164.875 40.9041 165.062 40.6023 165.19 40.2159C165.323 39.8295 165.39 39.3828 165.39 38.8757C165.39 38.3605 165.323 37.9098 165.19 37.5234C165.062 37.1371 164.875 36.8352 164.629 36.6179C164.384 36.4006 164.084 36.2919 163.73 36.2919C163.363 36.2919 163.053 36.4006 162.8 36.6179C162.55 36.8352 162.359 37.1371 162.226 37.5234C162.098 37.9098 162.033 38.3605 162.033 38.8757C162.033 39.3828 162.098 39.8295 162.226 40.2159C162.359 40.6023 162.55 40.9041 162.8 41.1214C163.053 41.3388 163.363 41.4474 163.73 41.4474ZM173.295 43.6328C172.611 43.6328 171.989 43.4557 171.43 43.1016C170.87 42.7474 170.423 42.2161 170.089 41.5078C169.755 40.7995 169.588 39.9201 169.588 38.8697C169.588 37.779 169.761 36.8815 170.108 36.1772C170.454 35.4729 170.906 34.9517 171.466 34.6136C172.029 34.2756 172.635 34.1065 173.283 34.1065C173.77 34.1065 174.187 34.191 174.533 34.3601C174.879 34.5251 175.164 34.7384 175.39 35C175.615 35.2616 175.786 35.5333 175.903 35.815H175.963V31.1364H178.915V43.5H175.994V41.9968H175.903C175.778 42.2825 175.601 42.5502 175.372 42.7997C175.142 43.0492 174.855 43.2505 174.508 43.4034C174.166 43.5563 173.762 43.6328 173.295 43.6328ZM174.321 41.3327C174.68 41.3327 174.985 41.2321 175.239 41.0309C175.492 40.8256 175.688 40.5379 175.825 40.1676C175.961 39.7973 176.03 39.3627 176.03 38.8636C176.03 38.3565 175.961 37.9199 175.825 37.5536C175.692 37.1874 175.497 36.9056 175.239 36.7084C174.985 36.5112 174.68 36.4126 174.321 36.4126C173.955 36.4126 173.645 36.5132 173.392 36.7145C173.138 36.9157 172.945 37.1994 172.812 37.5657C172.683 37.9319 172.619 38.3646 172.619 38.8636C172.619 39.3627 172.685 39.7973 172.818 40.1676C172.951 40.5379 173.142 40.8256 173.392 41.0309C173.645 41.2321 173.955 41.3327 174.321 41.3327ZM185.117 43.6751C184.147 43.6751 183.31 43.4839 182.606 43.1016C181.905 42.7152 181.366 42.1658 180.988 41.4535C180.613 40.7371 180.426 39.8859 180.426 38.8998C180.426 37.942 180.615 37.1049 180.994 36.3885C181.372 35.6681 181.905 35.1087 182.593 34.7102C183.282 34.3078 184.093 34.1065 185.026 34.1065C185.686 34.1065 186.29 34.2092 186.837 34.4144C187.385 34.6197 187.858 34.9235 188.256 35.326C188.655 35.7284 188.964 36.2255 189.186 36.8171C189.407 37.4047 189.518 38.0788 189.518 38.8395V39.576H181.458V37.8615H186.771C186.767 37.5476 186.693 37.2679 186.548 37.0224C186.403 36.7769 186.204 36.5857 185.95 36.4489C185.7 36.308 185.413 36.2376 185.087 36.2376C184.757 36.2376 184.461 36.312 184.199 36.4609C183.938 36.6058 183.73 36.805 183.577 37.0586C183.425 37.3081 183.344 37.5918 183.336 37.9098V39.6545C183.336 40.0328 183.41 40.3648 183.559 40.6506C183.708 40.9323 183.92 41.1516 184.193 41.3086C184.467 41.4655 184.793 41.544 185.171 41.544C185.433 41.544 185.67 41.5078 185.884 41.4354C186.097 41.3629 186.28 41.2563 186.433 41.1154C186.586 40.9745 186.701 40.8015 186.777 40.5962L189.488 40.6747C189.375 41.2824 189.127 41.8117 188.745 42.2624C188.367 42.7092 187.87 43.0573 187.254 43.3068C186.638 43.5523 185.926 43.6751 185.117 43.6751Z" fill="#00CC00"/>
</g>
<defs>
<filter id="filter0_d_1_50" x="6.28571" y="2.28571" width="51.4286" height="51.4286" filterUnits="userSpaceOnUse" color-interpolation-filters="sRGB">
<feFlood flood-opacity="0" result="BackgroundImageFix"/>
<feColorMatrix in="SourceAlpha" type="matrix" values="0 0 0 0 0 0 0 0 0 0 0 0 0 0 0 0 0 0 127 0" result="hardAlpha"/>
<feOffset/>
<feGaussianBlur stdDeviation="2.85714"/>
<feComposite in2="hardAlpha" operator="out"/>
<feColorMatrix type="matrix" values="0 0 0 0 0 0 0 0 0 0 0 0 0 0 0 0 0 0 0.25 0"/>
<feBlend mode="normal" in2="BackgroundImageFix" result="effect1_dropShadow_1_50"/>
<feBlend mode="normal" in="SourceGraphic" in2="effect1_dropShadow_1_50" result="shape"/>
</filter>
<filter id="filter1_d_1_50" x="54.4" y="3.9" width="142.2" height="48.2" filterUnits="userSpaceOnUse" color-interpolation-filters="sRGB">
<feFlood flood-opacity="0" result="BackgroundImageFix"/>
<feColorMatrix in="SourceAlpha" type="matrix" values="0 0 0 0 0 0 0 0 0 0 0 0 0 0 0 0 0 0 127 0" result="hardAlpha"/>
<feOffset/>
<feGaussianBlur stdDeviation="2.8"/>
<feComposite in2="hardAlpha" operator="out"/>
<feColorMatrix type="matrix" values="0 0 0 0 0 0 0 0 0 0 0 0 0 0 0 0 0 0 0.25 0"/>
<feBlend mode="normal" in2="BackgroundImageFix" result="effect1_dropShadow_1_50"/>
<feBlend mode="normal" in="SourceGraphic" in2="effect1_dropShadow_1_50" result="shape"/>
</filter>
<linearGradient id="paint0_linear_1_50" x1="101.5" y1="0" x2="101.5" y2="56" gradientUnits="userSpaceOnUse">
<stop stop-color="#0F0F23"/>
<stop offset="1" stop-color="#0A0A18"/>
</linearGradient>
</defs>
</svg>
