<svg width="213" height="40" viewBox="0 0 213 40" fill="none" xmlns="http://www.w3.org/2000/svg">
<g clip-path="url(#clip0_1_56)">
<rect width="213.001" height="40.0014" rx="8" fill="url(#paint0_linear_1_56)"/>
<g filter="url(#filter0_d_1_56)">
<g clip-path="url(#clip1_1_56)">
<path d="M22 6C25.713 6 29.274 7.475 31.8995 10.1005C34.525 12.726 36 16.287 36 20C36 23.713 34.525 27.274 31.8995 29.8995C29.274 32.525 25.713 34 22 34C18.287 34 14.726 32.525 12.1005 29.8995C9.475 27.274 8 23.713 8 20C8 16.287 9.475 12.726 12.1005 10.1005C14.726 7.475 18.287 6 22 6Z" fill="black"/>
<path d="M21.4531 13.9242C17.3844 13.9242 14.2125 16.4891 14.2125 19.6773C14.2125 22.6852 17.1273 24.6047 21.6445 24.5117L21.7813 24.5062L22.2789 24.4898L22.1531 24.818L22.1695 24.8508C22.2056 24.9352 22.2384 25.0209 22.268 25.1078L22.2789 25.1406L22.2953 25.1953L22.3172 25.2719L22.3336 25.3211L22.3555 25.3758L22.3719 25.4359L22.3938 25.5234L22.4211 25.6164L22.4375 25.6766L22.4648 25.775L22.4922 25.8789L22.5141 25.9828L22.5414 26.0922L22.5633 26.1687L22.5906 26.2891L22.618 26.4094L22.6563 26.5734L22.6727 26.6609L22.7 26.7922L22.7273 26.9289L22.7602 27.0711L22.7984 27.2734L22.8313 27.4375L22.875 27.6672L22.8969 27.782L22.9352 27.9625L22.968 28.1484L23.0117 28.4L23.0609 28.6625L23.1047 28.9359L23.1539 29.2148L23.2031 29.4992L23.2523 29.7945L23.3016 30.1008L23.3398 30.3359L23.4 30.7352L23.4273 30.8992L23.493 31.3203L23.5422 31.6648L23.5859 31.9273L23.6352 32.2883L23.6625 32.4687C26.6648 32.0695 29.3336 30.6148 31.2805 28.4875L31.3406 28.4219L31.0617 27.3828L30.3234 24.6211L29.8641 22.9039L29.4594 21.3945L29.2078 20.4758L29.0492 19.8961L28.9563 19.5461L28.8688 19.2398L28.8359 19.1086L28.8141 19.0375L28.8031 18.9992L28.7922 18.9664C28.3656 17.5937 27.5398 16.3797 26.4133 15.4992C25.0898 14.4656 23.4109 13.9242 21.4531 13.9242ZM17.8766 28.5203C17.5211 28.4219 17.1492 28.6297 17.0453 28.9852L17.0398 29.0016L16.4273 31.2766C16.8103 31.4661 17.2028 31.6358 17.6031 31.7852L17.6961 31.8234L18.3578 29.357L18.3633 29.3406C18.4508 28.9797 18.2375 28.6133 17.8766 28.5203ZM21.6883 26.8523C21.3273 26.7539 20.9555 26.9617 20.8516 27.3172L20.8461 27.3336L19.9164 30.7789V30.7953C19.8804 30.9663 19.9112 31.1445 20.0025 31.2935C20.0938 31.4424 20.2386 31.5508 20.4073 31.5963C20.576 31.6418 20.7557 31.621 20.9095 31.5381C21.0633 31.4553 21.1796 31.3167 21.2344 31.1508L21.2398 31.1344L22.1695 27.6891V27.6727L22.1859 27.5961L22.1914 27.5687L22.1695 27.4539L22.1367 27.2953L22.1148 27.1969C22.0714 27.1131 22.011 27.0393 21.9376 26.98C21.8642 26.9207 21.7793 26.8772 21.6883 26.8523ZM15.2078 23.3031L15.1641 23.407L15.1586 23.4289L14.2289 26.8742L14.2234 26.8906C14.182 27.0633 14.2094 27.2453 14.2997 27.3981C14.3901 27.5509 14.5364 27.6626 14.7076 27.7095C14.8788 27.7564 15.0616 27.7348 15.2172 27.6493C15.3728 27.5639 15.4891 27.4212 15.5414 27.2516L15.5469 27.2352L16.3891 24.107C15.9516 23.8773 15.5523 23.6039 15.2078 23.3031ZM12.993 19.3383C12.632 19.2453 12.2602 19.4531 12.1563 19.8031L12.1508 19.8195L11.2211 23.2648V23.2812C11.1797 23.4539 11.207 23.6359 11.2974 23.7887C11.3877 23.9415 11.534 24.0532 11.7053 24.1001C11.8765 24.147 12.0593 24.1254 12.2149 24.04C12.3705 23.9545 12.4868 23.8118 12.5391 23.6422L12.5445 23.6258L13.4742 20.1805V20.1641C13.5617 19.8031 13.3484 19.4367 12.993 19.3383ZM33.8344 18.5562C33.4789 18.4633 33.107 18.6711 33.0031 19.0211L32.9977 19.0375L32.068 22.4828L32.0625 22.4992C32.0146 22.6747 32.0385 22.862 32.1287 23.02C32.219 23.1779 32.3683 23.2935 32.5438 23.3414C32.7192 23.3893 32.9066 23.3655 33.0645 23.2752C33.2225 23.185 33.3381 23.0357 33.3859 22.8602V22.8437L34.3211 19.3984V19.3766C34.4086 19.0211 34.1953 18.6547 33.8344 18.5562ZM10.9641 13.957C10.185 15.3756 9.68913 16.9321 9.50391 18.5398C9.59362 18.6414 9.71172 18.7138 9.84297 18.7477C10.1984 18.8406 10.5703 18.6328 10.6742 18.2828L10.6797 18.2664L11.6094 14.8211L11.6148 14.8047C11.7023 14.4437 11.4891 14.0773 11.1281 13.9789C11.0745 13.9651 11.0194 13.9578 10.9641 13.957ZM31.4828 13.9789C31.1219 13.8859 30.7555 14.0937 30.6461 14.4437V14.4602L29.7164 17.9055L29.7109 17.9219C29.6695 18.0945 29.6969 18.2765 29.7872 18.4293C29.8776 18.5822 30.0239 18.6938 30.1951 18.7407C30.3663 18.7876 30.5491 18.7661 30.7047 18.6806C30.8603 18.5951 30.9766 18.4525 31.0289 18.2828L31.0344 18.2664L31.9641 14.8211L31.9695 14.8047C32.057 14.4437 31.8383 14.0773 31.4828 13.9789Z" fill="white"/>
<path d="M22.3281 16.2266C22.5602 16.2266 22.7827 16.3187 22.9468 16.4828C23.1109 16.6469 23.2031 16.8695 23.2031 17.1016C23.2031 17.3336 23.1109 17.5562 22.9468 17.7203C22.7827 17.8844 22.5602 17.9766 22.3281 17.9766C22.0961 17.9766 21.8735 17.8844 21.7094 17.7203C21.5453 17.5562 21.4531 17.3336 21.4531 17.1016C21.4531 16.8695 21.5453 16.6469 21.7094 16.4828C21.8735 16.3187 22.0961 16.2266 22.3281 16.2266Z" fill="black"/>
<path d="M15.0109 10.7031C14.6555 10.6102 14.2836 10.818 14.1797 11.168L14.1742 11.1844L13.2445 14.6297L13.2391 14.6461C13.1976 14.8187 13.225 15.0007 13.3153 15.1535C13.4057 15.3064 13.552 15.4181 13.7232 15.4649C13.8945 15.5118 14.0772 15.4903 14.2328 15.4048C14.3885 15.3193 14.5047 15.1767 14.557 15.007L14.5625 14.9906L15.4922 11.5453L15.4977 11.5234C15.5852 11.168 15.3719 10.8016 15.0109 10.7031ZM26.9602 11.3539C26.5992 11.2609 26.2273 11.4687 26.1234 11.8187L26.118 11.8352L25.4945 14.1539C25.899 14.3528 26.2852 14.587 26.6484 14.8539L26.7086 14.9031L27.4414 12.1961V12.1797C27.5289 11.8187 27.3156 11.4523 26.9602 11.3539ZM20.8789 7.47109C20.4421 7.51033 20.0077 7.57239 19.5773 7.65703L19.4844 7.67344L18.6203 10.8836L18.6148 10.9C18.5788 11.071 18.6096 11.2492 18.7009 11.3982C18.7922 11.5471 18.9371 11.6555 19.1057 11.701C19.2744 11.7465 19.4541 11.7257 19.6079 11.6428C19.7617 11.5599 19.878 11.4214 19.9328 11.2555L19.9383 11.2391L20.868 7.79375L20.8734 7.77734C20.8986 7.67701 20.9005 7.57226 20.8789 7.47109ZM29.432 9.85L29.2516 10.5281L29.2461 10.5445C29.2101 10.7155 29.2409 10.8937 29.3322 11.0427C29.4234 11.1917 29.5683 11.3 29.737 11.3455C29.9057 11.391 30.0854 11.3702 30.2392 11.2873C30.393 11.2045 30.5092 11.0659 30.5641 10.9L30.5695 10.8836L30.5914 10.8125C30.2493 10.492 29.8896 10.1907 29.5141 9.91015L29.432 9.85ZM24.0234 7.58594L23.6953 8.80547L23.6898 8.82187C23.6538 8.99283 23.6846 9.17108 23.7759 9.32004C23.8672 9.469 24.0121 9.57735 24.1807 9.62285C24.3494 9.66834 24.5291 9.64753 24.6829 9.56467C24.8367 9.48182 24.953 9.34323 25.0078 9.17734L25.0133 9.16094L25.3578 7.87578C24.9507 7.76382 24.5382 7.67256 24.1219 7.60234L24.0234 7.58594Z" fill="white"/>
</g>
<g opacity="0.7">
<mask id="path-7-outside-1_1_56" maskUnits="userSpaceOnUse" x="16.9789" y="14.979" width="21" height="21" fill="black">
<rect fill="white" x="16.9789" y="14.979" width="21" height="21"/>
<path fill-rule="evenodd" clip-rule="evenodd" d="M21.9961 18.1882C21.7172 17.9092 21.265 17.9092 20.9861 18.1882L20.1886 18.9859C19.9097 19.2649 19.9097 19.7172 20.1886 19.9962L26.011 25.8201L20.1882 31.6419C19.9092 31.9209 19.9092 32.3731 20.1882 32.652L20.9858 33.4495C21.2648 33.7285 21.7171 33.7285 21.9961 33.4495L27.8185 27.6281L33.6387 33.4498C33.9176 33.7288 34.3698 33.7288 34.6487 33.4498L35.4462 32.6521C35.7251 32.3731 35.7251 31.9208 35.4462 31.6418L29.6264 25.8205L35.4491 19.9988C35.7281 19.7199 35.7281 19.2677 35.4491 18.9887L34.6514 18.1912C34.3724 17.9123 33.9201 17.9123 33.6412 18.1912L27.8189 24.0125L21.9961 18.1882Z"/>
</mask>
<path fill-rule="evenodd" clip-rule="evenodd" d="M21.9961 18.1882C21.7172 17.9092 21.265 17.9092 20.9861 18.1882L20.1886 18.9859C19.9097 19.2649 19.9097 19.7172 20.1886 19.9962L26.011 25.8201L20.1882 31.6419C19.9092 31.9209 19.9092 32.3731 20.1882 32.652L20.9858 33.4495C21.2648 33.7285 21.7171 33.7285 21.9961 33.4495L27.8185 27.6281L33.6387 33.4498C33.9176 33.7288 34.3698 33.7288 34.6487 33.4498L35.4462 32.6521C35.7251 32.3731 35.7251 31.9208 35.4462 31.6418L29.6264 25.8205L35.4491 19.9988C35.7281 19.7199 35.7281 19.2677 35.4491 18.9887L34.6514 18.1912C34.3724 17.9123 33.9201 17.9123 33.6412 18.1912L27.8189 24.0125L21.9961 18.1882Z" fill="url(#paint1_linear_1_56)"/>
<path d="M20.9861 18.1882L19.4706 16.6732L19.4706 16.6732L20.9861 18.1882ZM21.9961 18.1882L23.5115 16.6732L23.5115 16.6732L21.9961 18.1882ZM20.1886 18.9859L18.6731 17.4709L20.1886 18.9859ZM20.1886 19.9962L18.6731 21.5112L18.6731 21.5112L20.1886 19.9962ZM26.011 25.8201L27.5261 27.3355L29.0414 25.8204L27.5264 24.3051L26.011 25.8201ZM20.1882 31.6419L21.7033 33.1573L21.7033 33.1573L20.1882 31.6419ZM20.1882 32.652L21.7033 31.1367L21.7033 31.1367L20.1882 32.652ZM20.9858 33.4495L19.4707 34.9649L19.4707 34.9649L20.9858 33.4495ZM21.9961 33.4495L23.5112 34.9649L23.5112 34.9649L21.9961 33.4495ZM27.8185 27.6281L29.3339 26.1131L27.8188 24.5976L26.3034 26.1128L27.8185 27.6281ZM33.6387 33.4498L32.1232 34.9649L32.1232 34.9649L33.6387 33.4498ZM34.6487 33.4498L33.1333 31.9348L33.1333 31.9348L34.6487 33.4498ZM35.4462 32.6521L33.9308 31.1371L33.9308 31.1371L35.4462 32.6521ZM35.4462 31.6418L36.9616 30.1268L36.9616 30.1268L35.4462 31.6418ZM29.6264 25.8205L28.1113 24.3052L26.596 25.8202L28.111 27.3355L29.6264 25.8205ZM35.4491 19.9988L33.934 18.4835L33.934 18.4835L35.4491 19.9988ZM35.4491 18.9887L33.934 20.5041L33.934 20.5041L35.4491 18.9887ZM34.6514 18.1912L36.1665 16.6759L36.1665 16.6759L34.6514 18.1912ZM33.6412 18.1912L35.1563 19.7066L35.1563 19.7066L33.6412 18.1912ZM27.8189 24.0125L26.3035 25.5275L27.8186 27.043L29.334 25.5279L27.8189 24.0125ZM22.5015 19.7032C21.9435 20.2613 21.0386 20.2613 20.4807 19.7032L23.5115 16.6732C22.3957 15.5571 20.5864 15.5571 19.4706 16.6732L22.5015 19.7032ZM21.704 20.5009L22.5015 19.7032L19.4706 16.6732L18.6731 17.4709L21.704 20.5009ZM21.704 18.4812C22.2617 19.039 22.2617 19.9431 21.704 20.5009L18.6731 17.4709C17.5577 18.5866 17.5577 20.3954 18.6731 21.5112L21.704 18.4812ZM27.5264 24.3051L21.704 18.4812L18.6731 21.5112L24.4955 27.3351L27.5264 24.3051ZM21.7033 33.1573L27.5261 27.3355L24.4959 24.3048L18.6731 30.1266L21.7033 33.1573ZM21.7033 31.1367C22.2613 31.6946 22.2613 32.5994 21.7033 33.1573L18.6731 30.1266C17.5571 31.2424 17.5571 33.0516 18.6731 34.1674L21.7033 31.1367ZM22.5009 31.9342L21.7033 31.1367L18.6731 34.1674L19.4707 34.9649L22.5009 31.9342ZM20.481 31.9342C21.0388 31.3764 21.9431 31.3764 22.5009 31.9342L19.4707 34.9649C20.5865 36.0805 22.3954 36.0805 23.5112 34.9649L20.481 31.9342ZM26.3034 26.1128L20.481 31.9342L23.5112 34.9649L29.3336 29.1435L26.3034 26.1128ZM35.1541 31.9348L29.3339 26.1131L26.3031 29.1431L32.1232 34.9649L35.1541 31.9348ZM33.1333 31.9348C33.6912 31.3767 34.5961 31.3767 35.1541 31.9348L32.1232 34.9649C33.239 36.0809 35.0483 36.0809 36.1641 34.9648L33.1333 31.9348ZM33.9308 31.1371L33.1333 31.9348L36.1641 34.9649L36.9616 34.1671L33.9308 31.1371ZM33.9308 33.1569C33.3731 32.599 33.3731 31.6949 33.9308 31.1371L36.9616 34.1671C38.0771 33.0514 38.0771 31.2426 36.9616 30.1268L33.9308 33.1569ZM28.111 27.3355L33.9308 33.1569L36.9616 30.1268L31.1418 24.3055L28.111 27.3355ZM33.934 18.4835L28.1113 24.3052L31.1415 27.3359L36.9642 21.5142L33.934 18.4835ZM33.934 20.5041C33.3759 19.9462 33.3759 19.0414 33.934 18.4835L36.9642 21.5142C38.0802 20.3984 38.0802 18.5892 36.9642 17.4734L33.934 20.5041ZM33.1363 19.7066L33.934 20.5041L36.9642 17.4734L36.1665 16.6759L33.1363 19.7066ZM35.1563 19.7066C34.5984 20.2643 33.6941 20.2643 33.1363 19.7066L36.1665 16.6759C35.0507 15.5603 33.2419 15.5603 32.1261 16.6759L35.1563 19.7066ZM29.334 25.5279L35.1563 19.7066L32.1261 16.6759L26.3038 22.4972L29.334 25.5279ZM20.4807 19.7032L26.3035 25.5275L29.3343 22.4975L23.5115 16.6732L20.4807 19.7032Z" fill="black" mask="url(#path-7-outside-1_1_56)"/>
</g>
</g>
<g filter="url(#filter1_d_1_56)">
<path d="M45.7805 26.5007L42.3515 14.1371H44.3135L46.7223 23.7116H46.837L49.3423 14.1371H51.2862L53.7915 23.7177H53.9062L56.3089 14.1371H58.277L54.8419 26.5007H52.9645L50.3625 17.24H50.266L47.664 26.5007H45.7805ZM62.8258 26.6878C61.9565 26.6878 61.1978 26.4886 60.5499 26.0902C59.9019 25.6917 59.3988 25.1343 59.0406 24.418C58.6824 23.7016 58.5033 22.8645 58.5033 21.9066C58.5033 20.9447 58.6824 20.1036 59.0406 19.3832C59.3988 18.6627 59.9019 18.1033 60.5499 17.7049C61.1978 17.3065 61.9565 17.1072 62.8258 17.1072C63.6951 17.1072 64.4537 17.3065 65.1017 17.7049C65.7497 18.1033 66.2528 18.6627 66.6109 19.3832C66.9691 20.1036 67.1482 20.9447 67.1482 21.9066C67.1482 22.8645 66.9691 23.7016 66.6109 24.418C66.2528 25.1343 65.7497 25.6917 65.1017 26.0902C64.4537 26.4886 63.6951 26.6878 62.8258 26.6878ZM62.8318 25.1726C63.3953 25.1726 63.8621 25.0237 64.2324 24.7258C64.6027 24.428 64.8763 24.0316 65.0534 23.5366C65.2345 23.0415 65.3251 22.4962 65.3251 21.9006C65.3251 21.3089 65.2345 20.7656 65.0534 20.2706C64.8763 19.7715 64.6027 19.3711 64.2324 19.0692C63.8621 18.7674 63.3953 18.6165 62.8318 18.6165C62.2644 18.6165 61.7935 18.7674 61.4192 19.0692C61.0489 19.3711 60.7732 19.7715 60.5921 20.2706C60.415 20.7656 60.3265 21.3089 60.3265 21.9006C60.3265 22.4962 60.415 23.0415 60.5921 23.5366C60.7732 24.0316 61.0489 24.428 61.4192 24.7258C61.7935 25.0237 62.2644 25.1726 62.8318 25.1726ZM70.9681 20.995V26.5007H69.1631V17.228H70.8957V18.7372H71.0104C71.2237 18.2462 71.5577 17.8518 72.0125 17.554C72.4713 17.2561 73.0488 17.1072 73.7451 17.1072C74.3769 17.1072 74.9303 17.24 75.4052 17.5057C75.8801 17.7673 76.2484 18.1577 76.51 18.6768C76.7716 19.196 76.9024 19.8379 76.9024 20.6026V26.5007H75.0974V20.8199C75.0974 20.1478 74.9223 19.6226 74.5721 19.2443C74.222 18.862 73.7411 18.6708 73.1293 18.6708C72.7108 18.6708 72.3385 18.7614 72.0125 18.9425C71.6905 19.1236 71.435 19.3892 71.2458 19.7393C71.0607 20.0855 70.9681 20.504 70.9681 20.995ZM80.8747 14.1371V15.2962C80.8747 15.6382 80.8103 15.9985 80.6815 16.3768C80.5568 16.7511 80.3797 17.1113 80.1503 17.4574C79.9209 17.8035 79.6512 18.1013 79.3413 18.3508L78.4479 17.7109C78.6853 17.3648 78.8906 16.9966 79.0636 16.6062C79.2407 16.2158 79.3292 15.7851 79.3292 15.3143V14.1371H80.8747ZM87.304 17.228V18.6768H82.239V17.228H87.304ZM83.5974 15.0064H85.4024V23.778C85.4024 24.1282 85.4547 24.3918 85.5594 24.5689C85.664 24.7419 85.7988 24.8607 85.9638 24.9251C86.1329 24.9854 86.316 25.0156 86.5132 25.0156C86.6581 25.0156 86.7849 25.0056 86.8935 24.9854C87.0022 24.9653 87.0867 24.9492 87.1471 24.9371L87.4731 26.4283C87.3684 26.4685 87.2195 26.5087 87.0263 26.549C86.8331 26.5933 86.5917 26.6174 86.3019 26.6214C85.827 26.6295 85.3843 26.545 84.9738 26.3679C84.5633 26.1908 84.2312 25.9171 83.9777 25.5469C83.7241 25.1766 83.5974 24.7118 83.5974 24.1523V15.0064ZM100.748 19.4918L99.1123 19.7816C99.0438 19.5723 98.9352 19.3731 98.7863 19.1839C98.6414 18.9948 98.4442 18.8398 98.1947 18.7191C97.9451 18.5984 97.6332 18.538 97.2589 18.538C96.7478 18.538 96.3212 18.6527 95.9791 18.8821C95.637 19.1075 95.466 19.3993 95.466 19.7574C95.466 20.0673 95.5807 20.3169 95.8101 20.506C96.0395 20.6952 96.4097 20.8501 96.9209 20.9709L98.3939 21.3089C99.2471 21.5061 99.883 21.81 100.302 22.2205C100.72 22.631 100.929 23.1643 100.929 23.8203C100.929 24.3757 100.768 24.8707 100.446 25.3054C100.128 25.736 99.6838 26.0741 99.1123 26.3196C98.5448 26.5651 97.8868 26.6878 97.1382 26.6878C96.0998 26.6878 95.2527 26.4665 94.5966 26.0238C93.9406 25.577 93.5382 24.9432 93.3893 24.1221L95.1339 23.8565C95.2426 24.3113 95.466 24.6554 95.804 24.8888C96.1421 25.1182 96.5828 25.2329 97.1261 25.2329C97.7177 25.2329 98.1906 25.1102 98.5448 24.8647C98.899 24.6152 99.076 24.3113 99.076 23.9531C99.076 23.6633 98.9674 23.4199 98.75 23.2226C98.5367 23.0254 98.2087 22.8765 97.766 22.7759L96.1964 22.4318C95.3311 22.2346 94.6912 21.9207 94.2767 21.49C93.8662 21.0594 93.6609 20.5141 93.6609 19.854C93.6609 19.3067 93.8139 18.8278 94.1197 18.4172C94.4256 18.0067 94.8482 17.6868 95.3875 17.4574C95.9268 17.2239 96.5446 17.1072 97.2408 17.1072C98.2429 17.1072 99.0318 17.3246 99.6073 17.7592C100.183 18.1899 100.563 18.7674 100.748 19.4918ZM108.788 22.6552V17.228H110.599V26.5007H108.824V24.8949H108.728C108.514 25.3899 108.172 25.8024 107.701 26.1324C107.234 26.4584 106.653 26.6214 105.957 26.6214C105.361 26.6214 104.834 26.4906 104.375 26.229C103.92 25.9634 103.562 25.571 103.3 25.0518C103.043 24.5327 102.914 23.8907 102.914 23.1261V17.228H104.719V22.9087C104.719 23.5406 104.894 24.0437 105.244 24.418C105.594 24.7922 106.049 24.9794 106.609 24.9794C106.947 24.9794 107.283 24.8949 107.617 24.7258C107.955 24.5568 108.235 24.3012 108.456 23.9591C108.681 23.6171 108.792 23.1824 108.788 22.6552ZM113.024 29.978V17.228H114.787V18.7312H114.938C115.043 18.538 115.194 18.3146 115.391 18.0611C115.588 17.8075 115.862 17.5862 116.212 17.397C116.562 17.2038 117.025 17.1072 117.6 17.1072C118.349 17.1072 119.017 17.2964 119.605 17.6747C120.192 18.053 120.653 18.5984 120.987 19.3107C121.325 20.0231 121.494 20.8803 121.494 21.8824C121.494 22.8846 121.327 23.7438 120.993 24.4602C120.659 25.1726 120.2 25.7219 119.617 26.1083C119.033 26.4906 118.367 26.6818 117.618 26.6818C117.055 26.6818 116.594 26.5872 116.236 26.3981C115.882 26.2089 115.604 25.9876 115.403 25.734C115.202 25.4805 115.047 25.2551 114.938 25.0579H114.829V29.978H113.024ZM114.793 21.8643C114.793 22.5163 114.888 23.0878 115.077 23.5788C115.266 24.0698 115.54 24.4542 115.898 24.7319C116.256 25.0056 116.695 25.1424 117.214 25.1424C117.753 25.1424 118.204 24.9995 118.566 24.7138C118.928 24.424 119.202 24.0316 119.387 23.5366C119.576 23.0415 119.671 22.4841 119.671 21.8643C119.671 21.2526 119.578 20.7032 119.393 20.2163C119.212 19.7293 118.939 19.3449 118.572 19.0632C118.21 18.7815 117.757 18.6406 117.214 18.6406C116.691 18.6406 116.248 18.7754 115.886 19.0451C115.528 19.3147 115.256 19.691 115.071 20.174C114.886 20.6569 114.793 21.2204 114.793 21.8643ZM123.517 29.978V17.228H125.279V18.7312H125.43C125.535 18.538 125.686 18.3146 125.883 18.0611C126.08 17.8075 126.354 17.5862 126.704 17.397C127.054 17.2038 127.517 17.1072 128.093 17.1072C128.841 17.1072 129.509 17.2964 130.097 17.6747C130.684 18.053 131.145 18.5984 131.479 19.3107C131.817 20.0231 131.986 20.8803 131.986 21.8824C131.986 22.8846 131.819 23.7438 131.485 24.4602C131.151 25.1726 130.692 25.7219 130.109 26.1083C129.525 26.4906 128.859 26.6818 128.111 26.6818C127.547 26.6818 127.086 26.5872 126.728 26.3981C126.374 26.2089 126.096 25.9876 125.895 25.734C125.694 25.4805 125.539 25.2551 125.43 25.0579H125.322V29.978H123.517ZM125.285 21.8643C125.285 22.5163 125.38 23.0878 125.569 23.5788C125.758 24.0698 126.032 24.4542 126.39 24.7319C126.748 25.0056 127.187 25.1424 127.706 25.1424C128.245 25.1424 128.696 24.9995 129.058 24.7138C129.421 24.424 129.694 24.0316 129.879 23.5366C130.069 23.0415 130.163 22.4841 130.163 21.8643C130.163 21.2526 130.071 20.7032 129.886 20.2163C129.704 19.7293 129.431 19.3449 129.064 19.0632C128.702 18.7815 128.25 18.6406 127.706 18.6406C127.183 18.6406 126.74 18.7754 126.378 19.0451C126.02 19.3147 125.748 19.691 125.563 20.174C125.378 20.6569 125.285 21.2204 125.285 21.8643ZM137.915 26.6878C137.045 26.6878 136.287 26.4886 135.639 26.0902C134.991 25.6917 134.488 25.1343 134.129 24.418C133.771 23.7016 133.592 22.8645 133.592 21.9066C133.592 20.9447 133.771 20.1036 134.129 19.3832C134.488 18.6627 134.991 18.1033 135.639 17.7049C136.287 17.3065 137.045 17.1072 137.915 17.1072C138.784 17.1072 139.543 17.3065 140.191 17.7049C140.839 18.1033 141.342 18.6627 141.7 19.3832C142.058 20.1036 142.237 20.9447 142.237 21.9066C142.237 22.8645 142.058 23.7016 141.7 24.418C141.342 25.1343 140.839 25.6917 140.191 26.0902C139.543 26.4886 138.784 26.6878 137.915 26.6878ZM137.921 25.1726C138.484 25.1726 138.951 25.0237 139.321 24.7258C139.692 24.428 139.965 24.0316 140.142 23.5366C140.323 23.0415 140.414 22.4962 140.414 21.9006C140.414 21.3089 140.323 20.7656 140.142 20.2706C139.965 19.7715 139.692 19.3711 139.321 19.0692C138.951 18.7674 138.484 18.6165 137.921 18.6165C137.353 18.6165 136.882 18.7674 136.508 19.0692C136.138 19.3711 135.862 19.7715 135.681 20.2706C135.504 20.7656 135.415 21.3089 135.415 21.9006C135.415 22.4962 135.504 23.0415 135.681 23.5366C135.862 24.0316 136.138 24.428 136.508 24.7258C136.882 25.0237 137.353 25.1726 137.921 25.1726ZM144.252 26.5007V17.228H145.997V18.701H146.093C146.262 18.2019 146.56 17.8095 146.987 17.5238C147.417 17.234 147.904 17.0891 148.448 17.0891C148.56 17.0891 148.693 17.0931 148.846 17.1012C149.003 17.1092 149.126 17.1193 149.214 17.1314V18.8579C149.142 18.8378 149.013 18.8157 148.828 18.7915C148.643 18.7634 148.458 18.7493 148.272 18.7493C147.846 18.7493 147.466 18.8398 147.132 19.0209C146.801 19.198 146.54 19.4455 146.347 19.7635C146.154 20.0774 146.057 20.4356 146.057 20.8381V26.5007H144.252ZM155.653 17.228V18.6768H150.588V17.228H155.653ZM151.946 15.0064H153.751V23.778C153.751 24.1282 153.803 24.3918 153.908 24.5689C154.013 24.7419 154.147 24.8607 154.312 24.9251C154.481 24.9854 154.665 25.0156 154.862 25.0156C155.007 25.0156 155.133 25.0056 155.242 24.9854C155.351 24.9653 155.435 24.9492 155.496 24.9371L155.822 26.4283C155.717 26.4685 155.568 26.5087 155.375 26.549C155.182 26.5933 154.94 26.6174 154.651 26.6214C154.176 26.6295 153.733 26.545 153.322 26.3679C152.912 26.1908 152.58 25.9171 152.326 25.5469C152.073 25.1766 151.946 24.7118 151.946 24.1523V15.0064Z" fill="#E8E8E8"/>
<path d="M166.507 26.0007H161.937V13.6371H166.501C167.761 13.6371 168.845 13.8846 169.755 14.3796C170.668 14.8706 171.373 15.5789 171.868 16.5046C172.363 17.4262 172.61 18.529 172.61 19.8128C172.61 21.1007 172.363 22.2075 171.868 23.1332C171.377 24.0588 170.675 24.7692 169.761 25.2642C168.847 25.7552 167.763 26.0007 166.507 26.0007ZM164.925 23.4531H166.392C167.085 23.4531 167.67 23.3364 168.149 23.103C168.632 22.8655 168.996 22.4812 169.242 21.9499C169.491 21.4146 169.616 20.7023 169.616 19.8128C169.616 18.9234 169.491 18.2151 169.242 17.6878C168.992 17.1566 168.624 16.7743 168.137 16.5408C167.654 16.3034 167.058 16.1846 166.35 16.1846H164.925V23.4531ZM178.69 26.1758C177.72 26.1758 176.883 25.9846 176.178 25.6023C175.478 25.2159 174.939 24.6665 174.56 23.9542C174.186 23.2378 173.999 22.3866 173.999 21.4006C173.999 20.4427 174.188 19.6056 174.566 18.8892C174.945 18.1688 175.478 17.6094 176.166 17.2109C176.854 16.8085 177.665 16.6072 178.599 16.6072C179.259 16.6072 179.863 16.7099 180.41 16.9151C180.957 17.1204 181.43 17.4242 181.829 17.8267C182.227 18.2292 182.537 18.7262 182.758 19.3178C182.98 19.9054 183.09 20.5795 183.09 21.3402V22.0767H175.031V20.3622H180.344C180.34 20.0483 180.265 19.7686 180.12 19.5231C179.975 19.2776 179.776 19.0864 179.523 18.9496C179.273 18.8087 178.985 18.7383 178.659 18.7383C178.329 18.7383 178.034 18.8127 177.772 18.9616C177.51 19.1065 177.303 19.3057 177.15 19.5593C176.997 19.8088 176.917 20.0926 176.909 20.4105V22.1552C176.909 22.5335 176.983 22.8655 177.132 23.1513C177.281 23.433 177.492 23.6523 177.766 23.8093C178.04 23.9663 178.366 24.0447 178.744 24.0447C179.005 24.0447 179.243 24.0085 179.456 23.9361C179.67 23.8636 179.853 23.757 180.006 23.6161C180.159 23.4752 180.273 23.3022 180.35 23.0969L183.06 23.1754C182.948 23.7831 182.7 24.3124 182.318 24.7631C181.939 25.2099 181.442 25.558 180.827 25.8075C180.211 26.053 179.499 26.1758 178.69 26.1758ZM187.55 20.7123V26.0007H184.598V16.728H187.405V18.4304H187.508C187.713 17.8629 188.063 17.4182 188.558 17.0962C189.053 16.7702 189.643 16.6072 190.327 16.6072C190.979 16.6072 191.545 16.7541 192.024 17.0479C192.507 17.3377 192.881 17.7442 193.147 18.2674C193.416 18.7866 193.549 19.3943 193.545 20.0905V26.0007H190.593V20.6701C190.597 20.1549 190.466 19.7525 190.2 19.4627C189.939 19.1729 189.575 19.028 189.108 19.028C188.798 19.028 188.524 19.0965 188.287 19.2333C188.053 19.3661 187.872 19.5573 187.743 19.8068C187.619 20.0563 187.554 20.3582 187.55 20.7123ZM199.701 26.1758C198.727 26.1758 197.89 25.9765 197.19 25.5781C196.493 25.1757 195.956 24.6162 195.578 23.8998C195.204 23.1794 195.016 22.3443 195.016 21.3945C195.016 20.4407 195.204 19.6056 195.578 18.8892C195.956 18.1688 196.493 17.6094 197.19 17.2109C197.89 16.8085 198.727 16.6072 199.701 16.6072C200.675 16.6072 201.51 16.8085 202.206 17.2109C202.907 17.6094 203.444 18.1688 203.818 18.8892C204.197 19.6056 204.386 20.4407 204.386 21.3945C204.386 22.3443 204.197 23.1794 203.818 23.8998C203.444 24.6162 202.907 25.1757 202.206 25.5781C201.51 25.9765 200.675 26.1758 199.701 26.1758ZM199.719 23.9481C200.073 23.9481 200.373 23.8395 200.619 23.6221C200.864 23.4048 201.051 23.103 201.18 22.7166C201.313 22.3302 201.379 21.8835 201.379 21.3764C201.379 20.8613 201.313 20.4105 201.18 20.0241C201.051 19.6378 200.864 19.3359 200.619 19.1186C200.373 18.9013 200.073 18.7926 199.719 18.7926C199.353 18.7926 199.043 18.9013 198.79 19.1186C198.54 19.3359 198.349 19.6378 198.216 20.0241C198.087 20.4105 198.023 20.8613 198.023 21.3764C198.023 21.8835 198.087 22.3302 198.216 22.7166C198.349 23.103 198.54 23.4048 198.79 23.6221C199.043 23.8395 199.353 23.9481 199.719 23.9481Z" fill="white"/>
</g>
</g>
<rect x="1.07143" y="1.07143" width="210.858" height="37.8585" rx="6.92857" stroke="white" stroke-opacity="0.15" stroke-width="2.14286"/>
<defs>
<filter id="filter0_d_1_56" x="2.39972" y="0.39972" width="41.0017" height="41.0025" filterUnits="userSpaceOnUse" color-interpolation-filters="sRGB">
<feFlood flood-opacity="0" result="BackgroundImageFix"/>
<feColorMatrix in="SourceAlpha" type="matrix" values="0 0 0 0 0 0 0 0 0 0 0 0 0 0 0 0 0 0 127 0" result="hardAlpha"/>
<feOffset/>
<feGaussianBlur stdDeviation="2.80014"/>
<feComposite in2="hardAlpha" operator="out"/>
<feColorMatrix type="matrix" values="0 0 0 0 0 0 0 0 0 0 0 0 0 0 0 0 0 0 0.25 0"/>
<feBlend mode="normal" in2="BackgroundImageFix" result="effect1_dropShadow_1_56"/>
<feBlend mode="normal" in="SourceGraphic" in2="effect1_dropShadow_1_56" result="shape"/>
</filter>
<filter id="filter1_d_1_56" x="36.2871" y="3.78642" width="174.429" height="32.4286" filterUnits="userSpaceOnUse" color-interpolation-filters="sRGB">
<feFlood flood-opacity="0" result="BackgroundImageFix"/>
<feColorMatrix in="SourceAlpha" type="matrix" values="0 0 0 0 0 0 0 0 0 0 0 0 0 0 0 0 0 0 127 0" result="hardAlpha"/>
<feOffset/>
<feGaussianBlur stdDeviation="2.85714"/>
<feComposite in2="hardAlpha" operator="out"/>
<feColorMatrix type="matrix" values="0 0 0 0 0 0 0 0 0 0 0 0 0 0 0 0 0 0 0.25 0"/>
<feBlend mode="normal" in2="BackgroundImageFix" result="effect1_dropShadow_1_56"/>
<feBlend mode="normal" in="SourceGraphic" in2="effect1_dropShadow_1_56" result="shape"/>
</filter>
<linearGradient id="paint0_linear_1_56" x1="106.501" y1="0" x2="106.501" y2="40.0014" gradientUnits="userSpaceOnUse">
<stop stop-color="#2C1B1B"/>
<stop offset="1" stop-color="#1F1414"/>
</linearGradient>
<linearGradient id="paint1_linear_1_56" x1="27.8186" y1="17.979" x2="27.8186" y2="33.6591" gradientUnits="userSpaceOnUse">
<stop stop-color="#FF0000"/>
<stop offset="1" stop-color="#CC0000"/>
</linearGradient>
<clipPath id="clip0_1_56">
<rect width="213.001" height="40.0014" rx="8" fill="white"/>
</clipPath>
<clipPath id="clip1_1_56">
<rect width="28" height="28" fill="white" transform="translate(8 6)"/>
</clipPath>
</defs>
</svg>
