<svg width="40" height="40" viewBox="0 0 40 40" fill="none" xmlns="http://www.w3.org/2000/svg">
<g clip-path="url(#clip0_1_68)">
<rect width="40" height="40" rx="8" fill="url(#paint0_linear_1_68)"/>
<g filter="url(#filter0_d_1_68)">
<g clip-path="url(#clip1_1_68)">
<path d="M20 6C23.713 6 27.274 7.475 29.8995 10.1005C32.525 12.726 34 16.287 34 20C34 23.713 32.525 27.274 29.8995 29.8995C27.274 32.525 23.713 34 20 34C16.287 34 12.726 32.525 10.1005 29.8995C7.475 27.274 6 23.713 6 20C6 16.287 7.475 12.726 10.1005 10.1005C12.726 7.475 16.287 6 20 6Z" fill="black"/>
<path d="M19.4531 13.9242C15.3844 13.9242 12.2125 16.4891 12.2125 19.6773C12.2125 22.6852 15.1273 24.6047 19.6445 24.5117L19.7813 24.5062L20.2789 24.4898L20.1531 24.818L20.1695 24.8508C20.2056 24.9352 20.2384 25.0209 20.268 25.1078L20.2789 25.1406L20.2953 25.1953L20.3172 25.2719L20.3336 25.3211L20.3555 25.3758L20.3719 25.4359L20.3938 25.5234L20.4211 25.6164L20.4375 25.6766L20.4648 25.775L20.4922 25.8789L20.5141 25.9828L20.5414 26.0922L20.5633 26.1687L20.5906 26.2891L20.618 26.4094L20.6563 26.5734L20.6727 26.6609L20.7 26.7922L20.7273 26.9289L20.7602 27.0711L20.7984 27.2734L20.8313 27.4375L20.875 27.6672L20.8969 27.782L20.9352 27.9625L20.968 28.1484L21.0117 28.4L21.0609 28.6625L21.1047 28.9359L21.1539 29.2148L21.2031 29.4992L21.2523 29.7945L21.3016 30.1008L21.3398 30.3359L21.4 30.7352L21.4273 30.8992L21.493 31.3203L21.5422 31.6648L21.5859 31.9273L21.6352 32.2883L21.6625 32.4687C24.6648 32.0695 27.3336 30.6148 29.2805 28.4875L29.3406 28.4219L29.0617 27.3828L28.3234 24.6211L27.8641 22.9039L27.4594 21.3945L27.2078 20.4758L27.0492 19.8961L26.9563 19.5461L26.8688 19.2398L26.8359 19.1086L26.8141 19.0375L26.8031 18.9992L26.7922 18.9664C26.3656 17.5937 25.5398 16.3797 24.4133 15.4992C23.0898 14.4656 21.4109 13.9242 19.4531 13.9242ZM15.8766 28.5203C15.5211 28.4219 15.1492 28.6297 15.0453 28.9852L15.0398 29.0016L14.4273 31.2766C14.8103 31.4661 15.2028 31.6358 15.6031 31.7852L15.6961 31.8234L16.3578 29.357L16.3633 29.3406C16.4508 28.9797 16.2375 28.6133 15.8766 28.5203ZM19.6883 26.8523C19.3273 26.7539 18.9555 26.9617 18.8516 27.3172L18.8461 27.3336L17.9164 30.7789V30.7953C17.8804 30.9663 17.9112 31.1445 18.0025 31.2935C18.0938 31.4424 18.2386 31.5508 18.4073 31.5963C18.576 31.6418 18.7557 31.621 18.9095 31.5381C19.0633 31.4553 19.1796 31.3167 19.2344 31.1508L19.2398 31.1344L20.1695 27.6891V27.6727L20.1859 27.5961L20.1914 27.5687L20.1695 27.4539L20.1367 27.2953L20.1148 27.1969C20.0714 27.1131 20.011 27.0393 19.9376 26.98C19.8642 26.9207 19.7793 26.8772 19.6883 26.8523ZM13.2078 23.3031L13.1641 23.407L13.1586 23.4289L12.2289 26.8742L12.2234 26.8906C12.182 27.0633 12.2094 27.2453 12.2997 27.3981C12.3901 27.5509 12.5364 27.6626 12.7076 27.7095C12.8788 27.7564 13.0616 27.7348 13.2172 27.6493C13.3728 27.5639 13.4891 27.4212 13.5414 27.2516L13.5469 27.2352L14.3891 24.107C13.9516 23.8773 13.5523 23.6039 13.2078 23.3031ZM10.993 19.3383C10.632 19.2453 10.2602 19.4531 10.1563 19.8031L10.1508 19.8195L9.22109 23.2648V23.2812C9.17966 23.4539 9.20702 23.6359 9.29738 23.7887C9.38774 23.9415 9.53401 24.0532 9.70525 24.1001C9.87649 24.147 10.0593 24.1254 10.2149 24.04C10.3705 23.9545 10.4868 23.8118 10.5391 23.6422L10.5445 23.6258L11.4742 20.1805V20.1641C11.5617 19.8031 11.3484 19.4367 10.993 19.3383ZM31.8344 18.5562C31.4789 18.4633 31.107 18.6711 31.0031 19.0211L30.9977 19.0375L30.068 22.4828L30.0625 22.4992C30.0146 22.6747 30.0385 22.862 30.1287 23.02C30.219 23.1779 30.3683 23.2935 30.5438 23.3414C30.7192 23.3893 30.9066 23.3655 31.0645 23.2752C31.2225 23.185 31.3381 23.0357 31.3859 22.8602V22.8437L32.3211 19.3984V19.3766C32.4086 19.0211 32.1953 18.6547 31.8344 18.5562ZM8.96406 13.957C8.18504 15.3756 7.68913 16.9321 7.50391 18.5398C7.59362 18.6414 7.71172 18.7138 7.84297 18.7477C8.19844 18.8406 8.57031 18.6328 8.67422 18.2828L8.67969 18.2664L9.60938 14.8211L9.61484 14.8047C9.70234 14.4437 9.48906 14.0773 9.12813 13.9789C9.0745 13.9651 9.01943 13.9578 8.96406 13.957ZM29.4828 13.9789C29.1219 13.8859 28.7555 14.0937 28.6461 14.4437V14.4602L27.7164 17.9055L27.7109 17.9219C27.6695 18.0945 27.6969 18.2765 27.7872 18.4293C27.8776 18.5822 28.0239 18.6938 28.1951 18.7407C28.3663 18.7876 28.5491 18.7661 28.7047 18.6806C28.8603 18.5951 28.9766 18.4525 29.0289 18.2828L29.0344 18.2664L29.9641 14.8211L29.9695 14.8047C30.057 14.4437 29.8383 14.0773 29.4828 13.9789Z" fill="white"/>
<path d="M20.3281 16.2266C20.5602 16.2266 20.7827 16.3187 20.9468 16.4828C21.1109 16.6469 21.2031 16.8695 21.2031 17.1016C21.2031 17.3336 21.1109 17.5562 20.9468 17.7203C20.7827 17.8844 20.5602 17.9766 20.3281 17.9766C20.0961 17.9766 19.8735 17.8844 19.7094 17.7203C19.5453 17.5562 19.4531 17.3336 19.4531 17.1016C19.4531 16.8695 19.5453 16.6469 19.7094 16.4828C19.8735 16.3187 20.0961 16.2266 20.3281 16.2266Z" fill="black"/>
<path d="M13.0109 10.7031C12.6555 10.6102 12.2836 10.818 12.1797 11.168L12.1742 11.1844L11.2445 14.6297L11.2391 14.6461C11.1976 14.8187 11.225 15.0007 11.3153 15.1535C11.4057 15.3064 11.552 15.4181 11.7232 15.4649C11.8945 15.5118 12.0772 15.4903 12.2328 15.4048C12.3885 15.3193 12.5047 15.1767 12.557 15.007L12.5625 14.9906L13.4922 11.5453L13.4977 11.5234C13.5852 11.168 13.3719 10.8016 13.0109 10.7031ZM24.9602 11.3539C24.5992 11.2609 24.2273 11.4687 24.1234 11.8187L24.118 11.8352L23.4945 14.1539C23.899 14.3528 24.2852 14.587 24.6484 14.8539L24.7086 14.9031L25.4414 12.1961V12.1797C25.5289 11.8187 25.3156 11.4523 24.9602 11.3539ZM18.8789 7.47109C18.4421 7.51033 18.0077 7.57239 17.5773 7.65703L17.4844 7.67344L16.6203 10.8836L16.6148 10.9C16.5788 11.071 16.6096 11.2492 16.7009 11.3982C16.7922 11.5471 16.9371 11.6555 17.1057 11.701C17.2744 11.7465 17.4541 11.7257 17.6079 11.6428C17.7617 11.5599 17.878 11.4214 17.9328 11.2555L17.9383 11.2391L18.868 7.79375L18.8734 7.77734C18.8986 7.67701 18.9005 7.57226 18.8789 7.47109ZM27.432 9.85L27.2516 10.5281L27.2461 10.5445C27.2101 10.7155 27.2409 10.8937 27.3322 11.0427C27.4234 11.1917 27.5683 11.3 27.737 11.3455C27.9057 11.391 28.0854 11.3702 28.2392 11.2873C28.393 11.2045 28.5092 11.0659 28.5641 10.9L28.5695 10.8836L28.5914 10.8125C28.2493 10.492 27.8896 10.1907 27.5141 9.91015L27.432 9.85ZM22.0234 7.58594L21.6953 8.80547L21.6898 8.82187C21.6538 8.99283 21.6846 9.17108 21.7759 9.32004C21.8672 9.469 22.0121 9.57735 22.1807 9.62285C22.3494 9.66834 22.5291 9.64753 22.6829 9.56467C22.8367 9.48182 22.953 9.34323 23.0078 9.17734L23.0133 9.16094L23.3578 7.87578C22.9507 7.76382 22.5382 7.67256 22.1219 7.60234L22.0234 7.58594Z" fill="white"/>
</g>
<g opacity="0.7">
<mask id="path-7-outside-1_1_68" maskUnits="userSpaceOnUse" x="14.9789" y="14.979" width="21" height="21" fill="black">
<rect fill="white" x="14.9789" y="14.979" width="21" height="21"/>
<path fill-rule="evenodd" clip-rule="evenodd" d="M19.9961 18.1882C19.7172 17.9092 19.265 17.9092 18.9861 18.1882L18.1886 18.9859C17.9097 19.2649 17.9097 19.7172 18.1886 19.9962L24.011 25.8201L18.1882 31.6419C17.9092 31.9209 17.9092 32.3731 18.1882 32.652L18.9858 33.4495C19.2648 33.7285 19.7171 33.7285 19.9961 33.4495L25.8185 27.6281L31.6387 33.4498C31.9176 33.7288 32.3698 33.7288 32.6487 33.4498L33.4462 32.6521C33.7251 32.3731 33.7251 31.9208 33.4462 31.6418L27.6264 25.8205L33.4491 19.9988C33.7281 19.7199 33.7281 19.2677 33.4491 18.9887L32.6514 18.1912C32.3724 17.9123 31.9201 17.9123 31.6412 18.1912L25.8189 24.0125L19.9961 18.1882Z"/>
</mask>
<path fill-rule="evenodd" clip-rule="evenodd" d="M19.9961 18.1882C19.7172 17.9092 19.265 17.9092 18.9861 18.1882L18.1886 18.9859C17.9097 19.2649 17.9097 19.7172 18.1886 19.9962L24.011 25.8201L18.1882 31.6419C17.9092 31.9209 17.9092 32.3731 18.1882 32.652L18.9858 33.4495C19.2648 33.7285 19.7171 33.7285 19.9961 33.4495L25.8185 27.6281L31.6387 33.4498C31.9176 33.7288 32.3698 33.7288 32.6487 33.4498L33.4462 32.6521C33.7251 32.3731 33.7251 31.9208 33.4462 31.6418L27.6264 25.8205L33.4491 19.9988C33.7281 19.7199 33.7281 19.2677 33.4491 18.9887L32.6514 18.1912C32.3724 17.9123 31.9201 17.9123 31.6412 18.1912L25.8189 24.0125L19.9961 18.1882Z" fill="url(#paint1_linear_1_68)"/>
<path d="M18.9861 18.1882L17.4706 16.6732L17.4706 16.6732L18.9861 18.1882ZM19.9961 18.1882L21.5115 16.6732L21.5115 16.6732L19.9961 18.1882ZM18.1886 18.9859L16.6732 17.4709L18.1886 18.9859ZM18.1886 19.9962L16.6732 21.5112L16.6732 21.5112L18.1886 19.9962ZM24.011 25.8201L25.5261 27.3355L27.0414 25.8204L25.5264 24.3051L24.011 25.8201ZM18.1882 31.6419L19.7033 33.1573L19.7033 33.1573L18.1882 31.6419ZM18.1882 32.652L19.7033 31.1367L19.7033 31.1367L18.1882 32.652ZM18.9858 33.4495L17.4707 34.9649L17.4707 34.9649L18.9858 33.4495ZM19.9961 33.4495L21.5112 34.9649L21.5112 34.9649L19.9961 33.4495ZM25.8185 27.6281L27.3339 26.1131L25.8188 24.5976L24.3034 26.1128L25.8185 27.6281ZM31.6387 33.4498L30.1232 34.9649L30.1232 34.9649L31.6387 33.4498ZM32.6487 33.4498L31.1333 31.9348L31.1333 31.9348L32.6487 33.4498ZM33.4462 32.6521L31.9308 31.1371L31.9308 31.1371L33.4462 32.6521ZM33.4462 31.6418L34.9616 30.1268L34.9616 30.1268L33.4462 31.6418ZM27.6264 25.8205L26.1113 24.3052L24.596 25.8202L26.111 27.3355L27.6264 25.8205ZM33.4491 19.9988L31.934 18.4835L31.934 18.4835L33.4491 19.9988ZM33.4491 18.9887L31.934 20.5041L31.934 20.5041L33.4491 18.9887ZM32.6514 18.1912L34.1665 16.6759L34.1665 16.6759L32.6514 18.1912ZM31.6412 18.1912L33.1563 19.7066L33.1563 19.7066L31.6412 18.1912ZM25.8189 24.0125L24.3035 25.5275L25.8186 27.043L27.334 25.5279L25.8189 24.0125ZM20.5015 19.7032C19.9435 20.2613 19.0386 20.2613 18.4807 19.7032L21.5115 16.6732C20.3957 15.5571 18.5864 15.5571 17.4706 16.6732L20.5015 19.7032ZM19.704 20.5009L20.5015 19.7032L17.4706 16.6732L16.6732 17.4709L19.704 20.5009ZM19.704 18.4812C20.2617 19.039 20.2617 19.9431 19.704 20.5009L16.6732 17.4709C15.5577 18.5866 15.5577 20.3954 16.6732 21.5112L19.704 18.4812ZM25.5264 24.3051L19.704 18.4812L16.6732 21.5112L22.4956 27.3351L25.5264 24.3051ZM19.7033 33.1573L25.5261 27.3355L22.4959 24.3048L16.6731 30.1266L19.7033 33.1573ZM19.7033 31.1367C20.2613 31.6946 20.2613 32.5994 19.7033 33.1573L16.6731 30.1266C15.5571 31.2424 15.5571 33.0516 16.6731 34.1674L19.7033 31.1367ZM20.5009 31.9342L19.7033 31.1367L16.6731 34.1674L17.4707 34.9649L20.5009 31.9342ZM18.481 31.9342C19.0388 31.3764 19.9431 31.3764 20.5009 31.9342L17.4707 34.9649C18.5865 36.0805 20.3954 36.0805 21.5112 34.9649L18.481 31.9342ZM24.3034 26.1128L18.481 31.9342L21.5112 34.9649L27.3336 29.1435L24.3034 26.1128ZM33.1541 31.9348L27.3339 26.1131L24.3031 29.1431L30.1232 34.9649L33.1541 31.9348ZM31.1333 31.9348C31.6912 31.3767 32.5961 31.3767 33.1541 31.9348L30.1232 34.9649C31.239 36.0809 33.0483 36.0809 34.1641 34.9648L31.1333 31.9348ZM31.9308 31.1371L31.1333 31.9348L34.1641 34.9649L34.9616 34.1671L31.9308 31.1371ZM31.9308 33.1569C31.3731 32.599 31.3731 31.6949 31.9308 31.1371L34.9616 34.1671C36.0771 33.0514 36.0771 31.2426 34.9616 30.1268L31.9308 33.1569ZM26.111 27.3355L31.9308 33.1569L34.9616 30.1268L29.1418 24.3055L26.111 27.3355ZM31.934 18.4835L26.1113 24.3052L29.1415 27.3359L34.9642 21.5142L31.934 18.4835ZM31.934 20.5041C31.3759 19.9462 31.3759 19.0414 31.934 18.4835L34.9642 21.5142C36.0802 20.3984 36.0802 18.5892 34.9642 17.4734L31.934 20.5041ZM31.1363 19.7066L31.934 20.5041L34.9642 17.4734L34.1665 16.6759L31.1363 19.7066ZM33.1563 19.7066C32.5984 20.2643 31.6942 20.2643 31.1363 19.7066L34.1665 16.6759C33.0507 15.5603 31.2419 15.5603 30.1261 16.6759L33.1563 19.7066ZM27.334 25.5279L33.1563 19.7066L30.1261 16.6759L24.3038 22.4972L27.334 25.5279ZM18.4807 19.7032L24.3035 25.5275L27.3343 22.4975L21.5115 16.6732L18.4807 19.7032Z" fill="black" mask="url(#path-7-outside-1_1_68)"/>
</g>
</g>
</g>
<rect x="1.05" y="1.05" width="37.9" height="37.9" rx="6.95" stroke="white" stroke-opacity="0.15" stroke-width="2.1"/>
<defs>
<filter id="filter0_d_1_68" x="2" y="2" width="37.8012" height="37.8019" filterUnits="userSpaceOnUse" color-interpolation-filters="sRGB">
<feFlood flood-opacity="0" result="BackgroundImageFix"/>
<feColorMatrix in="SourceAlpha" type="matrix" values="0 0 0 0 0 0 0 0 0 0 0 0 0 0 0 0 0 0 127 0" result="hardAlpha"/>
<feOffset/>
<feGaussianBlur stdDeviation="2"/>
<feComposite in2="hardAlpha" operator="out"/>
<feColorMatrix type="matrix" values="0 0 0 0 0 0 0 0 0 0 0 0 0 0 0 0 0 0 0.25 0"/>
<feBlend mode="normal" in2="BackgroundImageFix" result="effect1_dropShadow_1_68"/>
<feBlend mode="normal" in="SourceGraphic" in2="effect1_dropShadow_1_68" result="shape"/>
</filter>
<linearGradient id="paint0_linear_1_68" x1="20" y1="0" x2="20" y2="40" gradientUnits="userSpaceOnUse">
<stop stop-color="#2C1B1B"/>
<stop offset="1" stop-color="#1F1414"/>
</linearGradient>
<linearGradient id="paint1_linear_1_68" x1="25.8186" y1="17.979" x2="25.8186" y2="33.6591" gradientUnits="userSpaceOnUse">
<stop stop-color="#FF0000"/>
<stop offset="1" stop-color="#CC0000"/>
</linearGradient>
<clipPath id="clip0_1_68">
<rect width="40" height="40" rx="8" fill="white"/>
</clipPath>
<clipPath id="clip1_1_68">
<rect width="28" height="28" fill="white" transform="translate(6 6)"/>
</clipPath>
</defs>
</svg>
