<svg width="180" height="56" viewBox="0 0 180 56" fill="none" xmlns="http://www.w3.org/2000/svg">
<g clip-path="url(#clip0_1_50)">
<rect width="180" height="56" rx="8" fill="url(#paint0_linear_1_50)"/>
<g filter="url(#filter0_d_1_50)">
<g clip-path="url(#clip1_1_50)">
<path d="M32 8C37.3043 8 42.3914 10.1071 46.1421 13.8579C49.8929 17.6086 52 22.6957 52 28C52 33.3043 49.8929 38.3914 46.1421 42.1421C42.3914 45.8929 37.3043 48 32 48C26.6957 48 21.6086 45.8929 17.8579 42.1421C14.1071 38.3914 12 33.3043 12 28C12 22.6957 14.1071 17.6086 17.8579 13.8579C21.6086 10.1071 26.6957 8 32 8Z" fill="black"/>
<path d="M31.2188 19.3203C25.4063 19.3203 20.875 22.9844 20.875 27.5391C20.875 31.8359 25.0391 34.5781 31.4922 34.4453L31.6875 34.4375L32.3984 34.4141L32.2188 34.8828L32.2422 34.9297C32.2937 35.0503 32.3406 35.1728 32.3828 35.2969L32.3984 35.3437L32.4219 35.4219L32.4531 35.5312L32.4766 35.6016L32.5078 35.6797L32.5313 35.7656L32.5625 35.8906L32.6016 36.0234L32.625 36.1094L32.6641 36.25L32.7031 36.3984L32.7344 36.5469L32.7734 36.7031L32.8047 36.8125L32.8438 36.9844L32.8828 37.1562L32.9375 37.3906L32.9609 37.5156L33 37.7031L33.0391 37.8984L33.0859 38.1016L33.1406 38.3906L33.1875 38.625L33.25 38.9531L33.2813 39.1172L33.3359 39.375L33.3828 39.6406L33.4453 40L33.5156 40.375L33.5781 40.7656L33.6484 41.1641L33.7188 41.5703L33.7891 41.9922L33.8594 42.4297L33.9141 42.7656L34 43.3359L34.0391 43.5703L34.1328 44.1719L34.2031 44.6641L34.2656 45.0391L34.3359 45.5547L34.375 45.8125C38.6641 45.2422 42.4766 43.1641 45.2578 40.125L45.3438 40.0312L44.9453 38.5469L43.8906 34.6016L43.2344 32.1484L42.6563 29.9922L42.2969 28.6797L42.0703 27.8516L41.9375 27.3516L41.8125 26.9141L41.7656 26.7266L41.7344 26.625L41.7188 26.5703L41.7031 26.5234C41.0938 24.5625 39.9141 22.8281 38.3047 21.5703C36.4141 20.0937 34.0156 19.3203 31.2188 19.3203ZM26.1094 40.1719C25.6016 40.0312 25.0703 40.3281 24.9219 40.8359L24.9141 40.8594L24.0391 44.1094C24.5862 44.3801 25.1468 44.6226 25.7188 44.8359L25.8516 44.8906L26.7969 41.3672L26.8047 41.3437C26.9297 40.8281 26.625 40.3047 26.1094 40.1719ZM31.5547 37.7891C31.0391 37.6484 30.5078 37.9453 30.3594 38.4531L30.3516 38.4766L29.0234 43.3984V43.4219C28.972 43.6661 29.016 43.9207 29.1464 44.1335C29.2768 44.3463 29.4837 44.5011 29.7247 44.5661C29.9657 44.6311 30.2224 44.6014 30.4421 44.483C30.6619 44.3647 30.8279 44.1667 30.9063 43.9297L30.9141 43.9062L32.2422 38.9844V38.9609L32.2656 38.8516L32.2734 38.8125L32.2422 38.6484L32.1953 38.4219L32.1641 38.2812C32.102 38.1616 32.0158 38.0561 31.9109 37.9714C31.806 37.8867 31.6847 37.8246 31.5547 37.7891ZM22.2969 32.7187L22.2344 32.8672L22.2266 32.8984L20.8984 37.8203L20.8906 37.8437C20.8314 38.0904 20.8705 38.3504 20.9996 38.5687C21.1287 38.787 21.3377 38.9465 21.5823 39.0135C21.8269 39.0805 22.088 39.0497 22.3103 38.9276C22.5326 38.8055 22.6987 38.6017 22.7734 38.3594L22.7813 38.3359L23.9844 33.8672C23.3594 33.5391 22.7891 33.1484 22.2969 32.7187ZM19.1328 27.0547C18.6172 26.9219 18.0859 27.2187 17.9375 27.7187L17.9297 27.7422L16.6016 32.6641V32.6875C16.5424 32.9341 16.5815 33.1941 16.7105 33.4124C16.8396 33.6308 17.0486 33.7903 17.2932 33.8573C17.5378 33.9243 17.7989 33.8935 18.0212 33.7714C18.2436 33.6493 18.4096 33.4455 18.4844 33.2031L18.4922 33.1797L19.8203 28.2578V28.2344C19.9453 27.7187 19.6406 27.1953 19.1328 27.0547ZM48.9063 25.9375C48.3984 25.8047 47.8672 26.1016 47.7188 26.6016L47.7109 26.625L46.3828 31.5469L46.375 31.5703C46.3066 31.821 46.3406 32.0886 46.4696 32.3143C46.5985 32.5399 46.8118 32.7051 47.0625 32.7734C47.3132 32.8418 47.5808 32.8078 47.8065 32.6789C48.0321 32.5499 48.1973 32.3366 48.2656 32.0859V32.0625L49.6016 27.1406V27.1094C49.7266 26.6016 49.4219 26.0781 48.9063 25.9375ZM16.2344 19.3672C15.1215 21.3937 14.413 23.6172 14.1484 25.9141C14.2766 26.0592 14.4453 26.1626 14.6328 26.2109C15.1406 26.3437 15.6719 26.0469 15.8203 25.5469L15.8281 25.5234L17.1563 20.6016L17.1641 20.5781C17.2891 20.0625 16.9844 19.5391 16.4688 19.3984C16.3922 19.3787 16.3135 19.3682 16.2344 19.3672ZM45.5469 19.3984C45.0313 19.2656 44.5078 19.5625 44.3516 20.0625V20.0859L43.0234 25.0078L43.0156 25.0312C42.9564 25.2779 42.9955 25.5379 43.1246 25.7562C43.2537 25.9745 43.4627 26.134 43.7073 26.201C43.9519 26.268 44.213 26.2372 44.4353 26.1151C44.6576 25.993 44.8237 25.7892 44.8984 25.5469L44.9063 25.5234L46.2344 20.6016L46.2422 20.5781C46.3672 20.0625 46.0547 19.5391 45.5469 19.3984Z" fill="white"/>
<path d="M32.4687 22.6094C32.8003 22.6094 33.1182 22.7411 33.3526 22.9755C33.5871 23.2099 33.7187 23.5279 33.7187 23.8594C33.7187 24.1909 33.5871 24.5088 33.3526 24.7433C33.1182 24.9777 32.8003 25.1094 32.4687 25.1094C32.1372 25.1094 31.8193 24.9777 31.5849 24.7433C31.3504 24.5088 31.2188 24.1909 31.2188 23.8594C31.2188 23.5279 31.3504 23.2099 31.5849 22.9755C31.8193 22.7411 32.1372 22.6094 32.4687 22.6094Z" fill="black"/>
<path d="M22.0156 14.7188C21.5078 14.5859 20.9766 14.8828 20.8281 15.3828L20.8203 15.4063L19.4922 20.3281L19.4844 20.3516C19.4252 20.5982 19.4643 20.8582 19.5934 21.0765C19.7224 21.2948 19.9314 21.4544 20.176 21.5214C20.4207 21.5883 20.6817 21.5575 20.9041 21.4354C21.1264 21.3134 21.2925 21.1096 21.3672 20.8672L21.375 20.8438L22.7031 15.9219L22.7109 15.8906C22.8359 15.3828 22.5312 14.8594 22.0156 14.7188ZM39.0859 15.6484C38.5703 15.5156 38.0391 15.8125 37.8906 16.3125L37.8828 16.3359L36.9922 19.6484C37.5701 19.9326 38.1217 20.2672 38.6406 20.6484L38.7266 20.7188L39.7734 16.8516V16.8281C39.8984 16.3125 39.5938 15.7891 39.0859 15.6484ZM30.3984 10.1016C29.7744 10.1576 29.1538 10.2463 28.5391 10.3672L28.4063 10.3906L27.1719 14.9766L27.1641 15C27.1126 15.2442 27.1566 15.4989 27.287 15.7117C27.4174 15.9245 27.6244 16.0793 27.8653 16.1442C28.1063 16.2092 28.363 16.1795 28.5827 16.0611C28.8025 15.9428 28.9686 15.7448 29.0469 15.5078L29.0547 15.4844L30.3828 10.5625L30.3906 10.5391C30.4266 10.3957 30.4292 10.2461 30.3984 10.1016ZM42.6172 13.5L42.3594 14.4688L42.3516 14.4922C42.3001 14.7364 42.3441 14.9911 42.4745 15.2039C42.6049 15.4167 42.8119 15.5714 43.0528 15.6364C43.2938 15.7014 43.5505 15.6717 43.7702 15.5533C43.99 15.435 44.1561 15.237 44.2344 15L44.2422 14.9766L44.2734 14.875C43.7847 14.4171 43.2709 13.9868 42.7344 13.5859L42.6172 13.5ZM34.8906 10.2656L34.4219 12.0078L34.4141 12.0313C34.3626 12.2755 34.4066 12.5301 34.537 12.7429C34.6674 12.9557 34.8744 13.1105 35.1153 13.1755C35.3563 13.2405 35.613 13.2108 35.8327 13.0924C36.0525 12.974 36.2186 12.776 36.2969 12.5391L36.3047 12.5156L36.7969 10.6797C36.2153 10.5197 35.626 10.3894 35.0313 10.2891L34.8906 10.2656Z" fill="white"/>
</g>
<g opacity="0.7">
<mask id="path-7-outside-1_1_50" maskUnits="userSpaceOnUse" x="25.986" y="21.986" width="28" height="28" fill="black">
<rect fill="white" x="25.986" y="21.986" width="28" height="28"/>
<path fill-rule="evenodd" clip-rule="evenodd" d="M31.778 25.1952C31.4991 24.9162 31.0469 24.9162 30.768 25.1952L29.1958 26.7678C28.9169 27.0467 28.9169 27.4991 29.1958 27.778L37.73 36.3144L29.1952 44.8478C28.9162 45.1267 28.9162 45.5789 29.1952 45.8579L30.7677 47.4301C31.0466 47.709 31.4989 47.709 31.7779 47.4301L40.3121 38.8973L48.8431 47.4305C49.122 47.7095 49.5742 47.7095 49.8531 47.4305L51.4253 45.858C51.7042 45.579 51.7042 45.1267 51.4253 44.8477L42.8949 36.315L51.4295 27.7819C51.7084 27.5029 51.7084 27.0507 51.4295 26.7718L49.857 25.1996C49.578 24.9206 49.1257 24.9206 48.8467 25.1996L40.3127 33.7322L31.778 25.1952Z"/>
</mask>
<path fill-rule="evenodd" clip-rule="evenodd" d="M31.778 25.1952C31.4991 24.9162 31.0469 24.9162 30.768 25.1952L29.1958 26.7678C28.9169 27.0467 28.9169 27.4991 29.1958 27.778L37.73 36.3144L29.1952 44.8478C28.9162 45.1267 28.9162 45.5789 29.1952 45.8579L30.7677 47.4301C31.0466 47.709 31.4989 47.709 31.7779 47.4301L40.3121 38.8973L48.8431 47.4305C49.122 47.7095 49.5742 47.7095 49.8531 47.4305L51.4253 45.858C51.7042 45.579 51.7042 45.1267 51.4253 44.8477L42.8949 36.315L51.4295 27.7819C51.7084 27.5029 51.7084 27.0507 51.4295 26.7718L49.857 25.1996C49.578 24.9206 49.1257 24.9206 48.8467 25.1996L40.3127 33.7322L31.778 25.1952Z" fill="url(#paint1_linear_1_50)"/>
<path d="M30.768 25.1952L29.2525 23.6802L29.2525 23.6802L30.768 25.1952ZM31.778 25.1952L30.2626 26.7102L30.2626 26.7102L31.778 25.1952ZM29.1958 26.7678L27.6804 25.2527L27.6804 25.2527L29.1958 26.7678ZM29.1958 27.778L27.6804 29.2931L27.6804 29.2931L29.1958 27.778ZM37.73 36.3144L39.2451 37.8298L40.7604 36.3148L39.2454 34.7994L37.73 36.3144ZM29.1952 44.8478L27.6801 43.3324L27.6801 43.3324L29.1952 44.8478ZM29.1952 45.8579L27.6801 47.3732L27.6801 47.3732L29.1952 45.8579ZM30.7677 47.4301L29.2526 48.9454L29.2526 48.9454L30.7677 47.4301ZM31.7779 47.4301L30.2628 45.9147L30.2628 45.9147L31.7779 47.4301ZM40.3121 38.8973L41.8276 37.3823L40.3125 35.8668L38.797 37.3819L40.3121 38.8973ZM48.8431 47.4305L47.3277 48.9456L47.3277 48.9456L48.8431 47.4305ZM49.8531 47.4305L51.3686 48.9456L51.3686 48.9456L49.8531 47.4305ZM51.4253 45.858L52.9407 47.373L52.9407 47.373L51.4253 45.858ZM51.4253 44.8477L52.9407 43.3327L52.9407 43.3326L51.4253 44.8477ZM42.8949 36.315L41.3798 34.7997L39.8645 36.3147L41.3794 37.83L42.8949 36.315ZM51.4295 27.7819L49.9144 26.2665L49.9144 26.2665L51.4295 27.7819ZM51.4295 26.7718L49.9144 28.2871L49.9144 28.2871L51.4295 26.7718ZM49.857 25.1996L51.3721 23.6842L51.3721 23.6842L49.857 25.1996ZM48.8467 25.1996L47.3316 23.6842L47.3316 23.6842L48.8467 25.1996ZM40.3127 33.7322L38.7973 35.2472L40.3124 36.7627L41.8278 35.2475L40.3127 33.7322ZM32.2834 26.7102C31.7254 27.2684 30.8205 27.2684 30.2626 26.7102L33.2934 23.6802C32.1776 22.5641 30.3683 22.5641 29.2525 23.6802L32.2834 26.7102ZM30.7113 28.2828L32.2834 26.7102L29.2525 23.6802L27.6804 25.2527L30.7113 28.2828ZM30.7113 26.263C31.2689 26.8208 31.2689 27.725 30.7113 28.2828L27.6804 25.2527C26.5649 26.3685 26.5649 28.1773 27.6804 29.2931L30.7113 26.263ZM39.2454 34.7994L30.7113 26.263L27.6804 29.2931L36.2145 37.8295L39.2454 34.7994ZM30.7103 46.3631L39.2451 37.8298L36.2149 34.7991L27.6801 43.3324L30.7103 46.3631ZM30.7103 44.3425C31.2683 44.9004 31.2683 45.8052 30.7103 46.3631L27.6801 43.3324C26.5641 44.4482 26.5641 46.2574 27.6801 47.3732L30.7103 44.3425ZM32.2828 45.9147L30.7103 44.3425L27.6801 47.3732L29.2526 48.9454L32.2828 45.9147ZM30.2628 45.9147C30.8207 45.357 31.7249 45.357 32.2828 45.9147L29.2526 48.9454C30.3683 50.061 32.1772 50.061 33.293 48.9454L30.2628 45.9147ZM38.797 37.3819L30.2628 45.9147L33.293 48.9454L41.8272 40.4126L38.797 37.3819ZM50.3585 45.9155L41.8276 37.3823L38.7967 40.4123L47.3277 48.9456L50.3585 45.9155ZM48.3377 45.9155C48.8957 45.3574 49.8006 45.3574 50.3585 45.9155L47.3277 48.9456C48.4435 50.0616 50.2528 50.0616 51.3686 48.9456L48.3377 45.9155ZM49.9098 44.3429L48.3377 45.9155L51.3686 48.9456L52.9407 47.373L49.9098 44.3429ZM49.9098 46.3627C49.3522 45.8049 49.3522 44.9007 49.9098 44.3429L52.9407 47.373C54.0562 46.2572 54.0562 44.4484 52.9407 43.3327L49.9098 46.3627ZM41.3794 37.83L49.9098 46.3627L52.9407 43.3326L44.4103 34.8L41.3794 37.83ZM49.9144 26.2665L41.3798 34.7997L44.41 37.8304L52.9446 29.2972L49.9144 26.2665ZM49.9144 28.2871C49.3563 27.7292 49.3563 26.8244 49.9144 26.2665L52.9446 29.2972C54.0605 28.1814 54.0605 26.3722 52.9446 25.2564L49.9144 28.2871ZM48.3419 26.7149L49.9144 28.2871L52.9446 25.2564L51.3721 23.6842L48.3419 26.7149ZM50.3618 26.7149C49.804 27.2727 48.8997 27.2727 48.3419 26.7149L51.3721 23.6842C50.2563 22.5686 48.4474 22.5686 47.3316 23.6842L50.3618 26.7149ZM41.8278 35.2475L50.3618 26.7149L47.3316 23.6842L38.7976 32.2168L41.8278 35.2475ZM30.2626 26.7102L38.7973 35.2472L41.8281 32.2171L33.2934 23.6802L30.2626 26.7102Z" fill="black" mask="url(#path-7-outside-1_1_50)"/>
</g>
</g>
<g filter="url(#filter1_d_1_50)">
<path d="M63.5568 24.5L60.3295 12.8636H62.1761L64.4432 21.875H64.5511L66.9091 12.8636H68.7386L71.0966 21.8807H71.2045L73.4659 12.8636H75.3182L72.0852 24.5H70.3182L67.8693 15.7841H67.7784L65.3295 24.5H63.5568ZM79.5994 24.6761C78.7812 24.6761 78.0672 24.4886 77.4574 24.1136C76.8475 23.7386 76.374 23.214 76.0369 22.5398C75.6998 21.8655 75.5312 21.0776 75.5312 20.1761C75.5312 19.2708 75.6998 18.4792 76.0369 17.8011C76.374 17.1231 76.8475 16.5966 77.4574 16.2216C78.0672 15.8466 78.7812 15.6591 79.5994 15.6591C80.4176 15.6591 81.1316 15.8466 81.7415 16.2216C82.3513 16.5966 82.8248 17.1231 83.1619 17.8011C83.499 18.4792 83.6676 19.2708 83.6676 20.1761C83.6676 21.0776 83.499 21.8655 83.1619 22.5398C82.8248 23.214 82.3513 23.7386 81.7415 24.1136C81.1316 24.4886 80.4176 24.6761 79.5994 24.6761ZM79.6051 23.25C80.1354 23.25 80.5748 23.1098 80.9233 22.8295C81.2718 22.5492 81.5293 22.1761 81.696 21.7102C81.8665 21.2443 81.9517 20.7311 81.9517 20.1704C81.9517 19.6136 81.8665 19.1023 81.696 18.6364C81.5293 18.1667 81.2718 17.7898 80.9233 17.5057C80.5748 17.2216 80.1354 17.0795 79.6051 17.0795C79.071 17.0795 78.6278 17.2216 78.2755 17.5057C77.9271 17.7898 77.6676 18.1667 77.4971 18.6364C77.3305 19.1023 77.2471 19.6136 77.2471 20.1704C77.2471 20.7311 77.3305 21.2443 77.4971 21.7102C77.6676 22.1761 77.9271 22.5492 78.2755 22.8295C78.6278 23.1098 79.071 23.25 79.6051 23.25ZM87.2628 19.3182V24.5H85.5639V15.7727H87.1946V17.1932H87.3025C87.5033 16.7311 87.8177 16.3598 88.2457 16.0795C88.6775 15.7992 89.2211 15.6591 89.8764 15.6591C90.4711 15.6591 90.9919 15.7841 91.4389 16.0341C91.8859 16.2803 92.2325 16.6477 92.4787 17.1364C92.7249 17.625 92.848 18.2292 92.848 18.9489V24.5H91.1491V19.1534C91.1491 18.5208 90.9844 18.0265 90.6548 17.6704C90.3253 17.3106 89.8726 17.1307 89.2969 17.1307C88.9029 17.1307 88.5525 17.2159 88.2457 17.3864C87.9427 17.5568 87.7022 17.8068 87.5241 18.1364C87.3499 18.4621 87.2628 18.8561 87.2628 19.3182ZM96.5866 12.8636V13.9545C96.5866 14.2765 96.526 14.6155 96.4048 14.9716C96.2874 15.3239 96.1207 15.6629 95.9048 15.9886C95.6889 16.3144 95.4351 16.5947 95.1434 16.8295L94.3025 16.2273C94.526 15.9015 94.7192 15.5549 94.8821 15.1875C95.0487 14.8201 95.1321 14.4148 95.1321 13.9716V12.8636H96.5866ZM102.638 15.7727V17.1364H97.8707V15.7727H102.638ZM99.1491 13.6818H100.848V21.9375C100.848 22.267 100.897 22.5151 100.996 22.6818C101.094 22.8447 101.221 22.9564 101.376 23.017C101.535 23.0739 101.708 23.1023 101.893 23.1023C102.03 23.1023 102.149 23.0928 102.251 23.0739C102.354 23.0549 102.433 23.0398 102.49 23.0284L102.797 24.4318C102.698 24.4697 102.558 24.5076 102.376 24.5454C102.195 24.5871 101.967 24.6098 101.695 24.6136C101.248 24.6212 100.831 24.5417 100.445 24.375C100.058 24.2083 99.7457 23.9508 99.5071 23.6023C99.2684 23.2538 99.1491 22.8163 99.1491 22.2898V13.6818ZM115.291 17.9034L113.751 18.1761C113.687 17.9792 113.585 17.7917 113.445 17.6136C113.308 17.4356 113.123 17.2898 112.888 17.1761C112.653 17.0625 112.359 17.0057 112.007 17.0057C111.526 17.0057 111.124 17.1136 110.803 17.3295C110.481 17.5417 110.32 17.8163 110.32 18.1534C110.32 18.4451 110.428 18.6799 110.643 18.8579C110.859 19.036 111.208 19.1818 111.689 19.2954L113.075 19.6136C113.878 19.7992 114.477 20.0852 114.871 20.4716C115.265 20.8579 115.462 21.3598 115.462 21.9773C115.462 22.5 115.31 22.9659 115.007 23.375C114.708 23.7803 114.289 24.0985 113.751 24.3295C113.217 24.5606 112.598 24.6761 111.893 24.6761C110.916 24.6761 110.119 24.4678 109.501 24.0511C108.884 23.6307 108.505 23.0341 108.365 22.2614L110.007 22.0114C110.109 22.4394 110.32 22.7633 110.638 22.9829C110.956 23.1989 111.371 23.3068 111.882 23.3068C112.439 23.3068 112.884 23.1913 113.217 22.9602C113.551 22.7254 113.717 22.4394 113.717 22.1023C113.717 21.8295 113.615 21.6004 113.41 21.4148C113.21 21.2292 112.901 21.089 112.484 20.9943L111.007 20.6704C110.193 20.4848 109.59 20.1894 109.2 19.7841C108.814 19.3788 108.621 18.8655 108.621 18.2443C108.621 17.7292 108.765 17.2784 109.053 16.892C109.34 16.5057 109.738 16.2045 110.246 15.9886C110.753 15.7689 111.335 15.6591 111.99 15.6591C112.933 15.6591 113.676 15.8636 114.217 16.2727C114.759 16.678 115.117 17.2216 115.291 17.9034ZM122.858 20.8807V15.7727H124.562V24.5H122.892V22.9886H122.801C122.6 23.4545 122.278 23.8428 121.835 24.1534C121.396 24.4602 120.848 24.6136 120.193 24.6136C119.633 24.6136 119.136 24.4905 118.705 24.2443C118.276 23.9943 117.939 23.625 117.693 23.1364C117.451 22.6477 117.33 22.0436 117.33 21.3239V15.7727H119.028V21.1193C119.028 21.714 119.193 22.1875 119.523 22.5398C119.852 22.892 120.28 23.0682 120.807 23.0682C121.125 23.0682 121.441 22.9886 121.756 22.8295C122.074 22.6704 122.337 22.4299 122.545 22.1079C122.758 21.786 122.862 21.3769 122.858 20.8807ZM126.845 27.7727V15.7727H128.504V17.1875H128.646C128.745 17.0057 128.887 16.7954 129.072 16.5568C129.258 16.3182 129.516 16.1098 129.845 15.9318C130.175 15.75 130.61 15.6591 131.152 15.6591C131.856 15.6591 132.485 15.8371 133.038 16.1932C133.591 16.5492 134.025 17.0625 134.339 17.7329C134.658 18.4034 134.817 19.2102 134.817 20.1534C134.817 21.0966 134.66 21.9053 134.345 22.5795C134.031 23.25 133.599 23.767 133.05 24.1307C132.5 24.4905 131.874 24.6704 131.169 24.6704C130.639 24.6704 130.205 24.5814 129.868 24.4034C129.535 24.2254 129.273 24.017 129.084 23.7784C128.894 23.5398 128.749 23.3276 128.646 23.142H128.544V27.7727H126.845ZM128.51 20.1364C128.51 20.75 128.599 21.2879 128.777 21.75C128.955 22.2121 129.213 22.5739 129.55 22.8352C129.887 23.0928 130.3 23.2216 130.788 23.2216C131.296 23.2216 131.72 23.0871 132.061 22.8182C132.402 22.5454 132.66 22.1761 132.834 21.7102C133.012 21.2443 133.101 20.7197 133.101 20.1364C133.101 19.5606 133.014 19.0436 132.839 18.5852C132.669 18.1269 132.411 17.7651 132.067 17.5C131.726 17.2348 131.3 17.1023 130.788 17.1023C130.296 17.1023 129.879 17.2292 129.538 17.4829C129.201 17.7367 128.946 18.0909 128.771 18.5454C128.597 19 128.51 19.5303 128.51 20.1364ZM136.72 27.7727V15.7727H138.379V17.1875H138.521C138.62 17.0057 138.762 16.7954 138.947 16.5568C139.133 16.3182 139.391 16.1098 139.72 15.9318C140.05 15.75 140.485 15.6591 141.027 15.6591C141.731 15.6591 142.36 15.8371 142.913 16.1932C143.466 16.5492 143.9 17.0625 144.214 17.7329C144.533 18.4034 144.692 19.2102 144.692 20.1534C144.692 21.0966 144.535 21.9053 144.22 22.5795C143.906 23.25 143.474 23.767 142.925 24.1307C142.375 24.4905 141.749 24.6704 141.044 24.6704C140.514 24.6704 140.08 24.5814 139.743 24.4034C139.41 24.2254 139.148 24.017 138.959 23.7784C138.769 23.5398 138.624 23.3276 138.521 23.142H138.419V27.7727H136.72ZM138.385 20.1364C138.385 20.75 138.474 21.2879 138.652 21.75C138.83 22.2121 139.088 22.5739 139.425 22.8352C139.762 23.0928 140.175 23.2216 140.663 23.2216C141.171 23.2216 141.595 23.0871 141.936 22.8182C142.277 22.5454 142.535 22.1761 142.709 21.7102C142.887 21.2443 142.976 20.7197 142.976 20.1364C142.976 19.5606 142.889 19.0436 142.714 18.5852C142.544 18.1269 142.286 17.7651 141.942 17.5C141.601 17.2348 141.175 17.1023 140.663 17.1023C140.171 17.1023 139.754 17.2292 139.413 17.4829C139.076 17.7367 138.821 18.0909 138.646 18.5454C138.472 19 138.385 19.5303 138.385 20.1364ZM150.271 24.6761C149.453 24.6761 148.739 24.4886 148.129 24.1136C147.519 23.7386 147.046 23.214 146.709 22.5398C146.372 21.8655 146.203 21.0776 146.203 20.1761C146.203 19.2708 146.372 18.4792 146.709 17.8011C147.046 17.1231 147.519 16.5966 148.129 16.2216C148.739 15.8466 149.453 15.6591 150.271 15.6591C151.089 15.6591 151.803 15.8466 152.413 16.2216C153.023 16.5966 153.497 17.1231 153.834 17.8011C154.171 18.4792 154.339 19.2708 154.339 20.1761C154.339 21.0776 154.171 21.8655 153.834 22.5398C153.497 23.214 153.023 23.7386 152.413 24.1136C151.803 24.4886 151.089 24.6761 150.271 24.6761ZM150.277 23.25C150.807 23.25 151.247 23.1098 151.595 22.8295C151.944 22.5492 152.201 22.1761 152.368 21.7102C152.538 21.2443 152.624 20.7311 152.624 20.1704C152.624 19.6136 152.538 19.1023 152.368 18.6364C152.201 18.1667 151.944 17.7898 151.595 17.5057C151.247 17.2216 150.807 17.0795 150.277 17.0795C149.743 17.0795 149.3 17.2216 148.947 17.5057C148.599 17.7898 148.339 18.1667 148.169 18.6364C148.002 19.1023 147.919 19.6136 147.919 20.1704C147.919 20.7311 148.002 21.2443 148.169 21.7102C148.339 22.1761 148.599 22.5492 148.947 22.8295C149.3 23.1098 149.743 23.25 150.277 23.25ZM156.236 24.5V15.7727H157.878V17.1591H157.969C158.128 16.6894 158.408 16.3201 158.81 16.0511C159.215 15.7784 159.673 15.642 160.185 15.642C160.291 15.642 160.416 15.6458 160.56 15.6534C160.707 15.661 160.823 15.6704 160.906 15.6818V17.3068C160.838 17.2879 160.717 17.267 160.543 17.2443C160.368 17.2178 160.194 17.2045 160.02 17.2045C159.618 17.2045 159.26 17.2898 158.946 17.4602C158.635 17.6269 158.389 17.8598 158.207 18.1591C158.026 18.4545 157.935 18.7917 157.935 19.1704V24.5H156.236ZM166.966 15.7727V17.1364H162.199V15.7727H166.966ZM163.477 13.6818H165.176V21.9375C165.176 22.267 165.225 22.5151 165.324 22.6818C165.422 22.8447 165.549 22.9564 165.704 23.017C165.864 23.0739 166.036 23.1023 166.222 23.1023C166.358 23.1023 166.477 23.0928 166.579 23.0739C166.682 23.0549 166.761 23.0398 166.818 23.0284L167.125 24.4318C167.026 24.4697 166.886 24.5076 166.704 24.5454C166.523 24.5871 166.295 24.6098 166.023 24.6136C165.576 24.6212 165.159 24.5417 164.773 24.375C164.386 24.2083 164.074 23.9508 163.835 23.6023C163.597 23.2538 163.477 22.8163 163.477 22.2898V13.6818Z" fill="#E8E8E8"/>
<path d="M65.5057 43.5H60.9357V31.1364H65.4996C66.7593 31.1364 67.844 31.3839 68.7535 31.8789C69.6671 32.3699 70.3714 33.0782 70.8665 34.0039C71.3615 34.9255 71.609 36.0283 71.609 37.3121C71.609 38.6 71.3615 39.7068 70.8665 40.6324C70.3755 41.5581 69.6732 42.2685 68.7596 42.7635C67.846 43.2545 66.7613 43.5 65.5057 43.5ZM63.924 40.9524H65.391C66.0832 40.9524 66.6688 40.8357 67.1477 40.6023C67.6307 40.3648 67.9949 39.9805 68.2404 39.4492C68.4899 38.9139 68.6147 38.2016 68.6147 37.3121C68.6147 36.4227 68.4899 35.7144 68.2404 35.1871C67.9909 34.6559 67.6226 34.2735 67.1356 34.0401C66.6527 33.8027 66.057 33.6839 65.3487 33.6839H63.924V40.9524ZM77.6882 43.6751C76.7183 43.6751 75.8811 43.4839 75.1768 43.1016C74.4765 42.7152 73.9372 42.1658 73.5589 41.4535C73.1846 40.7371 72.9975 39.8859 72.9975 38.8998C72.9975 37.942 73.1867 37.1049 73.565 36.3885C73.9433 35.6681 74.4765 35.1087 75.1648 34.7102C75.853 34.3078 76.6639 34.1065 77.5976 34.1065C78.2577 34.1065 78.8614 34.2092 79.4087 34.4144C79.9561 34.6197 80.429 34.9235 80.8274 35.326C81.2258 35.7284 81.5357 36.2255 81.7571 36.8171C81.9784 37.4047 82.0891 38.0788 82.0891 38.8395V39.576H74.0298V37.8615H79.3423C79.3383 37.5476 79.2638 37.2679 79.1189 37.0224C78.9741 36.7769 78.7748 36.5857 78.5213 36.4489C78.2718 36.308 77.984 36.2376 77.658 36.2376C77.328 36.2376 77.0322 36.312 76.7706 36.4609C76.509 36.6058 76.3017 36.805 76.1488 37.0586C75.9958 37.3081 75.9153 37.5918 75.9073 37.9098V39.6545C75.9073 40.0328 75.9818 40.3648 76.1307 40.6506C76.2796 40.9323 76.4909 41.1516 76.7645 41.3086C77.0382 41.4655 77.3642 41.544 77.7425 41.544C78.0041 41.544 78.2416 41.5078 78.4549 41.4354C78.6682 41.3629 78.8513 41.2563 79.0042 41.1154C79.1572 40.9745 79.2719 40.8015 79.3483 40.5962L82.0589 40.6747C81.9462 41.2824 81.6987 41.8117 81.3164 42.2624C80.9381 42.7092 80.441 43.0573 79.8253 43.3068C79.2095 43.5523 78.4971 43.6751 77.6882 43.6751ZM86.5489 38.2116V43.5H83.5968V34.2273H86.404V35.9297H86.5066C86.7119 35.3622 87.062 34.9175 87.5571 34.5955C88.0521 34.2695 88.6417 34.1065 89.3259 34.1065C89.9779 34.1065 90.5433 34.2534 91.0223 34.5472C91.5052 34.837 91.8795 35.2435 92.1451 35.7667C92.4148 36.2859 92.5476 36.8936 92.5436 37.5898V43.5H89.5915V38.1694C89.5955 37.6542 89.4647 37.2518 89.1991 36.962C88.9375 36.6722 88.5733 36.5273 88.1064 36.5273C87.7965 36.5273 87.5229 36.5958 87.2854 36.7326C87.052 36.8654 86.8709 37.0566 86.7421 37.3061C86.6173 37.5556 86.5529 37.8575 86.5489 38.2116ZM98.6997 43.6751C97.7258 43.6751 96.8886 43.4758 96.1884 43.0774C95.4921 42.6749 94.9548 42.1155 94.5765 41.3991C94.2022 40.6787 94.0151 39.8436 94.0151 38.8938C94.0151 37.94 94.2022 37.1049 94.5765 36.3885C94.9548 35.6681 95.4921 35.1087 96.1884 34.7102C96.8886 34.3078 97.7258 34.1065 98.6997 34.1065C99.6737 34.1065 100.509 34.3078 101.205 34.7102C101.905 35.1087 102.443 35.6681 102.817 36.3885C103.195 37.1049 103.384 37.94 103.384 38.8938C103.384 39.8436 103.195 40.6787 102.817 41.3991C102.443 42.1155 101.905 42.6749 101.205 43.0774C100.509 43.4758 99.6737 43.6751 98.6997 43.6751ZM98.7178 41.4474C99.072 41.4474 99.3718 41.3388 99.6173 41.1214C99.8628 40.9041 100.05 40.6023 100.179 40.2159C100.312 39.8295 100.378 39.3828 100.378 38.8757C100.378 38.3605 100.312 37.9098 100.179 37.5234C100.05 37.1371 99.8628 36.8352 99.6173 36.6179C99.3718 36.4006 99.072 36.2919 98.7178 36.2919C98.3516 36.2919 98.0417 36.4006 97.7881 36.6179C97.5386 36.8352 97.3475 37.1371 97.2146 37.5234C97.0859 37.9098 97.0215 38.3605 97.0215 38.8757C97.0215 39.3828 97.0859 39.8295 97.2146 40.2159C97.3475 40.6023 97.5386 40.9041 97.7881 41.1214C98.0417 41.3388 98.3516 41.4474 98.7178 41.4474Z" fill="white"/>
</g>
</g>
<rect x="1.05" y="1.05" width="177.9" height="53.9" rx="6.95" stroke="white" stroke-opacity="0.15" stroke-width="2.1"/>
<defs>
<filter id="filter0_d_1_50" x="6.28571" y="2.28571" width="53.2101" height="53.2112" filterUnits="userSpaceOnUse" color-interpolation-filters="sRGB">
<feFlood flood-opacity="0" result="BackgroundImageFix"/>
<feColorMatrix in="SourceAlpha" type="matrix" values="0 0 0 0 0 0 0 0 0 0 0 0 0 0 0 0 0 0 127 0" result="hardAlpha"/>
<feOffset/>
<feGaussianBlur stdDeviation="2.85714"/>
<feComposite in2="hardAlpha" operator="out"/>
<feColorMatrix type="matrix" values="0 0 0 0 0 0 0 0 0 0 0 0 0 0 0 0 0 0 0.25 0"/>
<feBlend mode="normal" in2="BackgroundImageFix" result="effect1_dropShadow_1_50"/>
<feBlend mode="normal" in="SourceGraphic" in2="effect1_dropShadow_1_50" result="shape"/>
</filter>
<filter id="filter1_d_1_50" x="54.4" y="3.9" width="119.2" height="48.2" filterUnits="userSpaceOnUse" color-interpolation-filters="sRGB">
<feFlood flood-opacity="0" result="BackgroundImageFix"/>
<feColorMatrix in="SourceAlpha" type="matrix" values="0 0 0 0 0 0 0 0 0 0 0 0 0 0 0 0 0 0 127 0" result="hardAlpha"/>
<feOffset/>
<feGaussianBlur stdDeviation="2.8"/>
<feComposite in2="hardAlpha" operator="out"/>
<feColorMatrix type="matrix" values="0 0 0 0 0 0 0 0 0 0 0 0 0 0 0 0 0 0 0.25 0"/>
<feBlend mode="normal" in2="BackgroundImageFix" result="effect1_dropShadow_1_50"/>
<feBlend mode="normal" in="SourceGraphic" in2="effect1_dropShadow_1_50" result="shape"/>
</filter>
<linearGradient id="paint0_linear_1_50" x1="90" y1="0" x2="90" y2="56" gradientUnits="userSpaceOnUse">
<stop stop-color="#2C1B1B"/>
<stop offset="1" stop-color="#1F1414"/>
</linearGradient>
<linearGradient id="paint1_linear_1_50" x1="40.3123" y1="24.986" x2="40.3123" y2="47.6398" gradientUnits="userSpaceOnUse">
<stop stop-color="#FF0000"/>
<stop offset="1" stop-color="#CC0000"/>
</linearGradient>
<clipPath id="clip0_1_50">
<rect width="180" height="56" rx="8" fill="white"/>
</clipPath>
<clipPath id="clip1_1_50">
<rect width="40" height="40" fill="white" transform="translate(12 8)"/>
</clipPath>
</defs>
</svg>
