<svg width="40" height="40" viewBox="0 0 40 40" fill="none" xmlns="http://www.w3.org/2000/svg">
<rect width="40" height="40" rx="8" fill="url(#paint0_linear_1_68)"/>
<rect x="1.05" y="1.05" width="37.9" height="37.9" rx="6.95" stroke="white" stroke-opacity="0.15" stroke-width="2.1"/>
<g filter="url(#filter0_d_1_68)">
<path d="M18.334 6.00011C16.208 6.00328 14.1105 6.49065 12.2008 7.42523C10.2912 8.35981 8.61945 9.71706 7.3125 11.394C9.02011 11.8502 10.2287 12.2423 10.5907 12.3639C10.5964 12.1418 10.6332 10.1555 10.6332 10.1555C10.6332 10.1555 10.6379 10.1101 10.6621 10.0863C10.6934 10.0558 10.7386 10.065 10.7386 10.065C11.1877 10.13 20.7742 11.5511 24.8149 13.9058C25.314 14.1977 25.5603 14.508 25.868 14.8227C26.985 15.9779 28.461 20.7816 28.6195 21.7722C28.6257 21.8111 28.5776 21.8532 28.5571 21.8693H28.5566C28.4419 21.9588 28.3169 22.0519 28.1917 22.1351C27.2356 22.7766 25.0329 24.3185 22.2068 24.0668C19.6683 23.8422 16.3518 22.3861 12.3537 19.7518C12.7468 20.6721 13.1341 21.5954 13.5216 22.5181C14.1006 22.8188 19.6892 25.6666 22.4474 25.6109C24.669 25.5647 27.0449 24.4811 27.9955 23.909C27.9955 23.909 28.2044 23.7831 28.2953 23.8534C28.3947 23.9302 28.3672 24.0479 28.3436 24.1681C28.2852 24.4409 28.152 24.9388 28.0615 25.1751L27.9851 25.3677C27.8763 25.6592 27.7718 25.9301 27.5704 26.097C27.0105 26.6062 26.1168 27.0113 24.7164 27.6199C22.5518 28.5668 19.0399 29.169 15.7793 29.1482C14.6115 29.1222 13.4832 28.9927 12.4925 28.8769C10.4593 28.6474 8.80504 28.4612 7.79631 29.1907C9.1079 30.6979 10.7269 31.9069 12.5445 32.7364C14.362 33.5659 16.3361 33.9967 18.334 34C20.1725 34 21.993 33.6379 23.6916 32.9344C25.3902 32.2308 26.9335 31.1995 28.2335 29.8995C29.5335 28.5995 30.5648 27.0562 31.2683 25.3576C31.9719 23.6591 32.334 21.8386 32.334 20.0001C32.334 18.1616 31.9719 16.3411 31.2683 14.6425C30.5648 12.9439 29.5335 11.4006 28.2335 10.1006C26.9335 8.80057 25.3902 7.76932 23.6916 7.06576C21.993 6.36219 20.1726 6.00011 18.334 6.00011ZM21.4567 14.1233C20.3609 14.0884 19.316 14.4751 18.5149 15.223C17.7142 15.9684 17.256 16.9847 17.2154 18.0798C17.1397 20.3389 18.9133 22.2424 21.1705 22.3256C22.2713 22.3626 23.3139 21.9756 24.115 21.2232C24.9137 20.4801 25.3719 19.4638 25.4145 18.3687C25.4921 16.1116 23.7163 14.2041 21.4567 14.1233ZM21.4223 15.3315C23.0015 15.3875 24.2378 16.7141 24.1846 18.2927C24.1602 19.054 23.8391 19.7598 23.2812 20.2832C22.7225 20.8041 21.9923 21.075 21.2261 21.0519C19.6506 20.9937 18.4143 19.6656 18.4674 18.0865C18.4906 17.3224 18.8181 16.6166 19.3736 16.0956C19.929 15.5747 20.6557 15.3039 21.4223 15.3315ZM21.8903 16.7671C21.1887 16.7671 20.622 17.1447 20.622 17.6145C20.622 18.0798 21.1887 18.4596 21.8903 18.4596C22.5915 18.4596 23.1605 18.0798 23.1605 17.6145C23.1605 17.1447 22.5919 16.7671 21.8903 16.7671Z" fill="#73BA25"/>
</g>
<defs>
<filter id="filter0_d_1_68" x="2" y="2" width="36" height="36" filterUnits="userSpaceOnUse" color-interpolation-filters="sRGB">
<feFlood flood-opacity="0" result="BackgroundImageFix"/>
<feColorMatrix in="SourceAlpha" type="matrix" values="0 0 0 0 0 0 0 0 0 0 0 0 0 0 0 0 0 0 127 0" result="hardAlpha"/>
<feOffset/>
<feGaussianBlur stdDeviation="2"/>
<feComposite in2="hardAlpha" operator="out"/>
<feColorMatrix type="matrix" values="0 0 0 0 0 0 0 0 0 0 0 0 0 0 0 0 0 0 0.25 0"/>
<feBlend mode="normal" in2="BackgroundImageFix" result="effect1_dropShadow_1_68"/>
<feBlend mode="normal" in="SourceGraphic" in2="effect1_dropShadow_1_68" result="shape"/>
</filter>
<linearGradient id="paint0_linear_1_68" x1="20" y1="0" x2="20" y2="40" gradientUnits="userSpaceOnUse">
<stop stop-color="#345411"/>
<stop offset="1" stop-color="#22380B"/>
</linearGradient>
</defs>
</svg>
