<svg width="243" height="40" viewBox="0 0 243 40" fill="none" xmlns="http://www.w3.org/2000/svg">
<rect width="243.001" height="40.0014" rx="8" fill="url(#paint0_linear_1_56)"/>
<rect x="1.07143" y="1.07143" width="240.858" height="37.8585" rx="6.92857" stroke="white" stroke-opacity="0.15" stroke-width="2.14286"/>
<g filter="url(#filter0_d_1_56)">
<path d="M20.334 6.00011C18.208 6.00328 16.1105 6.49065 14.2008 7.42523C12.2912 8.35981 10.6195 9.71706 9.3125 11.394C11.0201 11.8502 12.2287 12.2423 12.5907 12.3639C12.5964 12.1418 12.6332 10.1555 12.6332 10.1555C12.6332 10.1555 12.6379 10.1101 12.6621 10.0863C12.6934 10.0558 12.7386 10.065 12.7386 10.065C13.1877 10.13 22.7742 11.5511 26.8149 13.9058C27.314 14.1977 27.5603 14.508 27.868 14.8227C28.985 15.9779 30.461 20.7816 30.6195 21.7722C30.6257 21.8111 30.5776 21.8532 30.5571 21.8693H30.5566C30.4419 21.9588 30.3169 22.0519 30.1917 22.1351C29.2356 22.7766 27.0329 24.3185 24.2068 24.0668C21.6683 23.8422 18.3518 22.3861 14.3537 19.7518C14.7468 20.6721 15.1341 21.5954 15.5216 22.5181C16.1006 22.8188 21.6892 25.6666 24.4474 25.6109C26.669 25.5647 29.0449 24.4811 29.9955 23.909C29.9955 23.909 30.2044 23.7831 30.2953 23.8534C30.3947 23.9302 30.3672 24.0479 30.3436 24.1681C30.2852 24.4409 30.152 24.9388 30.0615 25.1751L29.9851 25.3677C29.8763 25.6592 29.7718 25.9301 29.5704 26.097C29.0105 26.6062 28.1168 27.0113 26.7164 27.6199C24.5518 28.5668 21.0399 29.169 17.7793 29.1482C16.6115 29.1222 15.4832 28.9927 14.4925 28.8769C12.4593 28.6474 10.805 28.4612 9.79631 29.1907C11.1079 30.6979 12.7269 31.9069 14.5445 32.7364C16.362 33.5659 18.3361 33.9967 20.334 34C22.1725 34 23.993 33.6379 25.6916 32.9344C27.3902 32.2308 28.9335 31.1995 30.2335 29.8995C31.5335 28.5995 32.5648 27.0562 33.2683 25.3576C33.9719 23.6591 34.334 21.8386 34.334 20.0001C34.334 18.1616 33.9719 16.3411 33.2683 14.6425C32.5648 12.9439 31.5335 11.4006 30.2335 10.1006C28.9335 8.80057 27.3902 7.76932 25.6916 7.06576C23.993 6.36219 22.1726 6.00011 20.334 6.00011ZM23.4567 14.1233C22.3609 14.0884 21.316 14.4751 20.5149 15.223C19.7142 15.9684 19.256 16.9847 19.2154 18.0798C19.1397 20.3389 20.9133 22.2424 23.1705 22.3256C24.2713 22.3626 25.3139 21.9756 26.115 21.2232C26.9137 20.4801 27.3719 19.4638 27.4145 18.3687C27.4921 16.1116 25.7163 14.2041 23.4567 14.1233ZM23.4223 15.3315C25.0015 15.3875 26.2378 16.7141 26.1846 18.2927C26.1602 19.054 25.8391 19.7598 25.2812 20.2832C24.7225 20.8041 23.9923 21.075 23.2261 21.0519C21.6506 20.9937 20.4143 19.6656 20.4674 18.0865C20.4906 17.3224 20.8181 16.6166 21.3736 16.0956C21.929 15.5747 22.6557 15.3039 23.4223 15.3315ZM23.8903 16.7671C23.1887 16.7671 22.622 17.1447 22.622 17.6145C22.622 18.0798 23.1887 18.4596 23.8903 18.4596C24.5915 18.4596 25.1605 18.0798 25.1605 17.6145C25.1605 17.1447 24.5919 16.7671 23.8903 16.7671Z" fill="#73BA25"/>
</g>
<g filter="url(#filter1_d_1_56)">
<path d="M44.4041 26.5007H42.424L46.8732 14.1371H49.0284L53.4776 26.5007H51.4975L48.0021 16.3828H47.9055L44.4041 26.5007ZM44.7361 21.6591H51.1594V23.2287H44.7361V21.6591ZM61.8886 17.228L58.526 26.5007H56.5942L53.2256 17.228H55.1634L57.5118 24.3636H57.6084L59.9507 17.228H61.8886ZM66.0178 26.706C65.4302 26.706 64.899 26.5973 64.4241 26.38C63.9492 26.1586 63.5729 25.8386 63.2952 25.4201C63.0215 25.0015 62.8846 24.4884 62.8846 23.8807C62.8846 23.3575 62.9853 22.9268 63.1865 22.5888C63.3877 22.2507 63.6594 21.9831 64.0015 21.7859C64.3436 21.5886 64.7259 21.4397 65.1485 21.3391C65.5711 21.2385 66.0017 21.162 66.4404 21.1097C66.9958 21.0453 67.4466 20.993 67.7927 20.9528C68.1388 20.9085 68.3903 20.8381 68.5473 20.7415C68.7042 20.6449 68.7827 20.4879 68.7827 20.2706V20.2283C68.7827 19.7011 68.6338 19.2926 68.336 19.0028C68.0422 18.7131 67.6035 18.5682 67.0199 18.5682C66.4122 18.5682 65.9333 18.703 65.5832 18.9726C65.237 19.2383 64.9976 19.5341 64.8648 19.8601L63.1684 19.4737C63.3696 18.9103 63.6634 18.4555 64.0498 18.1094C64.4402 17.7592 64.8889 17.5057 65.396 17.3487C65.9031 17.1877 66.4364 17.1072 66.9958 17.1072C67.3661 17.1072 67.7585 17.1515 68.173 17.24C68.5916 17.3246 68.9819 17.4815 69.3442 17.7109C69.7104 17.9403 70.0102 18.2683 70.2437 18.6949C70.4771 19.1175 70.5938 19.6669 70.5938 20.343V26.5007H68.831V25.2329H68.7586C68.6419 25.4664 68.4668 25.6958 68.2334 25.9212C67.9999 26.1465 67.7001 26.3337 67.3339 26.4826C66.9676 26.6315 66.5289 26.706 66.0178 26.706ZM66.4102 25.2571C66.9093 25.2571 67.3359 25.1585 67.69 24.9613C68.0482 24.7641 68.3199 24.5065 68.505 24.1886C68.6942 23.8666 68.7888 23.5225 68.7888 23.1562V21.9609C68.7244 22.0253 68.5996 22.0857 68.4145 22.142C68.2334 22.1944 68.0261 22.2406 67.7927 22.2809C67.5592 22.3171 67.3319 22.3513 67.1105 22.3835C66.8891 22.4117 66.704 22.4358 66.5551 22.456C66.205 22.5002 65.885 22.5747 65.5952 22.6793C65.3095 22.784 65.0801 22.9349 64.907 23.1321C64.738 23.3253 64.6535 23.5828 64.6535 23.9048C64.6535 24.3515 64.8185 24.6896 65.1485 24.919C65.4785 25.1444 65.8991 25.2571 66.4102 25.2571ZM72.998 26.5007V17.228H74.8031V26.5007H72.998ZM73.9096 15.7972C73.5957 15.7972 73.326 15.6926 73.1006 15.4833C72.8793 15.27 72.7686 15.0164 72.7686 14.7226C72.7686 14.4248 72.8793 14.1713 73.1006 13.962C73.326 13.7487 73.5957 13.642 73.9096 13.642C74.2235 13.642 74.4911 13.7487 74.7125 13.962C74.9379 14.1713 75.0506 14.4248 75.0506 14.7226C75.0506 15.0164 74.9379 15.27 74.7125 15.4833C74.4911 15.6926 74.2235 15.7972 73.9096 15.7972ZM79.0365 14.1371V26.5007H77.2314V14.1371H79.0365ZM84.1633 26.706C83.5757 26.706 83.0445 26.5973 82.5696 26.38C82.0947 26.1586 81.7184 25.8386 81.4407 25.4201C81.167 25.0015 81.0301 24.4884 81.0301 23.8807C81.0301 23.3575 81.1308 22.9268 81.332 22.5888C81.5332 22.2507 81.8049 21.9831 82.147 21.7859C82.4891 21.5886 82.8714 21.4397 83.294 21.3391C83.7166 21.2385 84.1472 21.162 84.5859 21.1097C85.1413 21.0453 85.5921 20.993 85.9382 20.9528C86.2843 20.9085 86.5358 20.8381 86.6928 20.7415C86.8497 20.6449 86.9282 20.4879 86.9282 20.2706V20.2283C86.9282 19.7011 86.7793 19.2926 86.4815 19.0028C86.1877 18.7131 85.749 18.5682 85.1654 18.5682C84.5577 18.5682 84.0788 18.703 83.7287 18.9726C83.3825 19.2383 83.1431 19.5341 83.0103 19.8601L81.3139 19.4737C81.5151 18.9103 81.8089 18.4555 82.1953 18.1094C82.5857 17.7592 83.0344 17.5057 83.5415 17.3487C84.0486 17.1877 84.5819 17.1072 85.1413 17.1072C85.5116 17.1072 85.904 17.1515 86.3185 17.24C86.7371 17.3246 87.1274 17.4815 87.4897 17.7109C87.8559 17.9403 88.1557 18.2683 88.3892 18.6949C88.6226 19.1175 88.7393 19.6669 88.7393 20.343V26.5007H86.9765V25.2329H86.9041C86.7874 25.4664 86.6123 25.6958 86.3789 25.9212C86.1454 26.1465 85.8456 26.3337 85.4794 26.4826C85.1131 26.6315 84.6744 26.706 84.1633 26.706ZM84.5557 25.2571C85.0548 25.2571 85.4814 25.1585 85.8355 24.9613C86.1937 24.7641 86.4654 24.5065 86.6505 24.1886C86.8397 23.8666 86.9343 23.5225 86.9343 23.1562V21.9609C86.8699 22.0253 86.7451 22.0857 86.56 22.142C86.3789 22.1944 86.1716 22.2406 85.9382 22.2809C85.7047 22.3171 85.4774 22.3513 85.256 22.3835C85.0346 22.4117 84.8495 22.4358 84.7006 22.456C84.3505 22.5002 84.0305 22.5747 83.7407 22.6793C83.455 22.784 83.2256 22.9349 83.0525 23.1321C82.8835 23.3253 82.799 23.5828 82.799 23.9048C82.799 24.3515 82.964 24.6896 83.294 24.919C83.624 25.1444 84.0446 25.2571 84.5557 25.2571ZM91.2884 26.5007V14.1371H93.0934V18.7312H93.2021C93.3067 18.538 93.4577 18.3146 93.6549 18.0611C93.8521 17.8075 94.1258 17.5862 94.4759 17.397C94.826 17.2038 95.2889 17.1072 95.8644 17.1072C96.613 17.1072 97.2811 17.2964 97.8687 17.6747C98.4563 18.053 98.9171 18.5984 99.2511 19.3107C99.5892 20.0231 99.7582 20.8803 99.7582 21.8824C99.7582 22.8846 99.5912 23.7438 99.2571 24.4602C98.9231 25.1726 98.4643 25.7219 97.8807 26.1083C97.2972 26.4906 96.6311 26.6818 95.8825 26.6818C95.3191 26.6818 94.8582 26.5872 94.5 26.3981C94.1459 26.2089 93.8682 25.9876 93.667 25.734C93.4657 25.4805 93.3108 25.2551 93.2021 25.0579H93.0512V26.5007H91.2884ZM93.0572 21.8643C93.0572 22.5163 93.1518 23.0878 93.341 23.5788C93.5301 24.0698 93.8038 24.4542 94.162 24.7319C94.5202 25.0056 94.9589 25.1424 95.478 25.1424C96.0173 25.1424 96.4681 24.9995 96.8303 24.7138C97.1925 24.424 97.4662 24.0316 97.6513 23.5366C97.8405 23.0415 97.9351 22.4841 97.9351 21.8643C97.9351 21.2526 97.8425 20.7032 97.6574 20.2163C97.4763 19.7293 97.2026 19.3449 96.8363 19.0632C96.4741 18.7815 96.0214 18.6406 95.478 18.6406C94.9548 18.6406 94.5121 18.7754 94.1499 19.0451C93.7917 19.3147 93.5201 19.691 93.3349 20.174C93.1498 20.6569 93.0572 21.2204 93.0572 21.8643ZM103.59 14.1371V26.5007H101.785V14.1371H103.59ZM110.015 26.6878C109.101 26.6878 108.315 26.4926 107.655 26.1023C106.999 25.7078 106.491 25.1545 106.133 24.4421C105.779 23.7257 105.602 22.8866 105.602 21.9247C105.602 20.9749 105.779 20.1378 106.133 19.4133C106.491 18.6889 106.99 18.1234 107.63 17.717C108.274 17.3105 109.027 17.1072 109.888 17.1072C110.411 17.1072 110.918 17.1938 111.409 17.3668C111.9 17.5399 112.341 17.8115 112.732 18.1818C113.122 18.5521 113.43 19.033 113.655 19.6246C113.881 20.2122 113.993 20.9266 113.993 21.7677V22.4077H106.622V21.0554H112.224C112.224 20.5805 112.128 20.1599 111.935 19.7937C111.742 19.4234 111.47 19.1316 111.12 18.9183C110.774 18.705 110.367 18.5984 109.9 18.5984C109.393 18.5984 108.95 18.7231 108.572 18.9726C108.198 19.2181 107.908 19.5401 107.703 19.9386C107.502 20.333 107.401 20.7616 107.401 21.2244V22.2809C107.401 22.9007 107.51 23.4279 107.727 23.8626C107.948 24.2972 108.256 24.6292 108.651 24.8587C109.045 25.084 109.506 25.1967 110.033 25.1967C110.375 25.1967 110.687 25.1484 110.969 25.0518C111.251 24.9512 111.494 24.8023 111.699 24.6051C111.905 24.4079 112.061 24.1644 112.17 23.8746L113.879 24.1825C113.742 24.6856 113.496 25.1263 113.142 25.5046C112.792 25.8789 112.351 26.1707 111.82 26.38C111.293 26.5852 110.691 26.6878 110.015 26.6878ZM124.401 26.6878C123.532 26.6878 122.773 26.4886 122.125 26.0902C121.477 25.6917 120.974 25.1343 120.616 24.418C120.258 23.7016 120.079 22.8645 120.079 21.9066C120.079 20.9447 120.258 20.1036 120.616 19.3832C120.974 18.6627 121.477 18.1033 122.125 17.7049C122.773 17.3065 123.532 17.1072 124.401 17.1072C125.27 17.1072 126.029 17.3065 126.677 17.7049C127.325 18.1033 127.828 18.6627 128.186 19.3832C128.544 20.1036 128.723 20.9447 128.723 21.9066C128.723 22.8645 128.544 23.7016 128.186 24.418C127.828 25.1343 127.325 25.6917 126.677 26.0902C126.029 26.4886 125.27 26.6878 124.401 26.6878ZM124.407 25.1726C124.97 25.1726 125.437 25.0237 125.808 24.7258C126.178 24.428 126.452 24.0316 126.629 23.5366C126.81 23.0415 126.9 22.4962 126.9 21.9006C126.9 21.3089 126.81 20.7656 126.629 20.2706C126.452 19.7715 126.178 19.3711 125.808 19.0692C125.437 18.7674 124.97 18.6165 124.407 18.6165C123.84 18.6165 123.369 18.7674 122.994 19.0692C122.624 19.3711 122.348 19.7715 122.167 20.2706C121.99 20.7656 121.902 21.3089 121.902 21.9006C121.902 22.4962 121.99 23.0415 122.167 23.5366C122.348 24.0316 122.624 24.428 122.994 24.7258C123.369 25.0237 123.84 25.1726 124.407 25.1726ZM132.543 20.995V26.5007H130.738V17.228H132.471V18.7372H132.586C132.799 18.2462 133.133 17.8518 133.588 17.554C134.046 17.2561 134.624 17.1072 135.32 17.1072C135.952 17.1072 136.506 17.24 136.98 17.5057C137.455 17.7673 137.824 18.1577 138.085 18.6768C138.347 19.196 138.478 19.8379 138.478 20.6026V26.5007H136.673V20.8199C136.673 20.1478 136.497 19.6226 136.147 19.2443C135.797 18.862 135.316 18.6708 134.704 18.6708C134.286 18.6708 133.914 18.7614 133.588 18.9425C133.266 19.1236 133.01 19.3892 132.821 19.7393C132.636 20.0855 132.543 20.504 132.543 20.995Z" fill="#E8E8E8"/>
<path d="M156.606 19.8189C156.606 21.1792 156.345 22.3323 155.822 23.278C155.298 24.2238 154.59 24.9422 153.697 25.4332C152.807 25.9242 151.809 26.1697 150.702 26.1697C149.592 26.1697 148.591 25.9222 147.702 25.4272C146.813 24.9322 146.106 24.2138 145.583 23.272C145.064 22.3262 144.804 21.1752 144.804 19.8189C144.804 18.4586 145.064 17.3055 145.583 16.3597C146.106 15.4139 146.813 14.6955 147.702 14.2045C148.591 13.7135 149.592 13.468 150.702 13.468C151.809 13.468 152.807 13.7135 153.697 14.2045C154.59 14.6955 155.298 15.4139 155.822 16.3597C156.345 17.3055 156.606 18.4586 156.606 19.8189ZM153.552 19.8189C153.552 19.014 153.437 18.3338 153.208 17.7784C152.982 17.223 152.656 16.8024 152.23 16.5167C151.807 16.2309 151.298 16.0881 150.702 16.0881C150.111 16.0881 149.602 16.2309 149.175 16.5167C148.748 16.8024 148.42 17.223 148.191 17.7784C147.966 18.3338 147.853 19.014 147.853 19.8189C147.853 20.6238 147.966 21.304 148.191 21.8594C148.42 22.4148 148.748 22.8353 149.175 23.1211C149.602 23.4068 150.111 23.5497 150.702 23.5497C151.298 23.5497 151.807 23.4068 152.23 23.1211C152.656 22.8353 152.982 22.4148 153.208 21.8594C153.437 21.304 153.552 20.6238 153.552 19.8189ZM158.351 29.478V16.728H161.273V18.3157H161.364C161.484 18.034 161.655 17.7623 161.877 17.5007C162.102 17.2391 162.388 17.0258 162.734 16.8608C163.084 16.6918 163.503 16.6072 163.99 16.6072C164.634 16.6072 165.235 16.7763 165.795 17.1143C166.358 17.4524 166.813 17.9736 167.159 18.6779C167.505 19.3822 167.678 20.2797 167.678 21.3704C167.678 22.4208 167.511 23.3002 167.177 24.0085C166.847 24.7168 166.4 25.2481 165.837 25.6023C165.278 25.9564 164.656 26.1335 163.972 26.1335C163.505 26.1335 163.1 26.057 162.758 25.9041C162.416 25.7512 162.128 25.5499 161.895 25.3004C161.665 25.0509 161.488 24.7832 161.364 24.4975H161.303V29.478H158.351ZM161.243 21.3643C161.243 21.8634 161.309 22.298 161.442 22.6683C161.579 23.0386 161.774 23.3263 162.028 23.5316C162.285 23.7328 162.593 23.8334 162.951 23.8334C163.314 23.8334 163.621 23.7328 163.875 23.5316C164.128 23.3263 164.32 23.0386 164.448 22.6683C164.581 22.298 164.648 21.8634 164.648 21.3643C164.648 20.8653 164.581 20.4326 164.448 20.0664C164.32 19.7002 164.128 19.4164 163.875 19.2152C163.625 19.014 163.318 18.9133 162.951 18.9133C162.589 18.9133 162.281 19.0119 162.028 19.2092C161.774 19.4064 161.579 19.6881 161.442 20.0543C161.309 20.4206 161.243 20.8572 161.243 21.3643ZM173.56 26.1758C172.59 26.1758 171.753 25.9846 171.048 25.6023C170.348 25.2159 169.809 24.6665 169.43 23.9542C169.056 23.2378 168.869 22.3866 168.869 21.4006C168.869 20.4427 169.058 19.6056 169.436 18.8892C169.815 18.1688 170.348 17.6094 171.036 17.2109C171.724 16.8085 172.535 16.6072 173.469 16.6072C174.129 16.6072 174.733 16.7099 175.28 16.9151C175.828 17.1204 176.3 17.4242 176.699 17.8267C177.097 18.2292 177.407 18.7262 177.629 19.3178C177.85 19.9054 177.961 20.5795 177.961 21.3402V22.0767H169.901V20.3622H175.214C175.21 20.0483 175.135 19.7686 174.99 19.5231C174.846 19.2776 174.646 19.0864 174.393 18.9496C174.143 18.8087 173.856 18.7383 173.53 18.7383C173.199 18.7383 172.904 18.8127 172.642 18.9616C172.38 19.1065 172.173 19.3057 172.02 19.5593C171.867 19.8088 171.787 20.0926 171.779 20.4105V22.1552C171.779 22.5335 171.853 22.8655 172.002 23.1513C172.151 23.433 172.362 23.6523 172.636 23.8093C172.91 23.9663 173.236 24.0447 173.614 24.0447C173.876 24.0447 174.113 24.0085 174.326 23.9361C174.54 23.8636 174.723 23.757 174.876 23.6161C175.029 23.4752 175.143 23.3022 175.22 23.0969L177.93 23.1754C177.818 23.7831 177.57 24.3124 177.188 24.7631C176.81 25.2099 176.313 25.558 175.697 25.8075C175.081 26.053 174.369 26.1758 173.56 26.1758ZM182.42 20.7123V26.0007H179.468V16.728H182.276V18.4304H182.378C182.583 17.8629 182.934 17.4182 183.429 17.0962C183.924 16.7702 184.513 16.6072 185.197 16.6072C185.849 16.6072 186.415 16.7541 186.894 17.0479C187.377 17.3377 187.751 17.7442 188.017 18.2674C188.286 18.7866 188.419 19.3943 188.415 20.0905V26.0007H185.463V20.6701C185.467 20.1549 185.336 19.7525 185.071 19.4627C184.809 19.1729 184.445 19.028 183.978 19.028C183.668 19.028 183.394 19.0965 183.157 19.2333C182.923 19.3661 182.742 19.5573 182.614 19.8068C182.489 20.0563 182.424 20.3582 182.42 20.7123ZM196.926 17.3437C196.885 16.901 196.706 16.5569 196.388 16.3114C196.074 16.0619 195.626 15.9371 195.042 15.9371C194.656 15.9371 194.334 15.9874 194.076 16.0881C193.819 16.1887 193.625 16.3275 193.497 16.5046C193.368 16.6777 193.301 16.8769 193.297 17.1023C193.289 17.2874 193.326 17.4504 193.406 17.5913C193.491 17.7321 193.611 17.8569 193.768 17.9655C193.929 18.0702 194.122 18.1627 194.348 18.2432C194.573 18.3237 194.827 18.3942 195.109 18.4545L196.171 18.696C196.783 18.8288 197.322 19.0059 197.789 19.2273C198.26 19.4486 198.654 19.7122 198.972 20.0181C199.294 20.324 199.538 20.6761 199.703 21.0746C199.868 21.473 199.952 21.9197 199.956 22.4148C199.952 23.1955 199.755 23.8656 199.365 24.4251C198.974 24.9845 198.413 25.4131 197.68 25.7109C196.952 26.0087 196.072 26.1577 195.042 26.1577C194.008 26.1577 193.106 26.0027 192.338 25.6928C191.569 25.3829 190.971 24.912 190.545 24.2802C190.118 23.6483 189.899 22.8494 189.887 21.8835H192.748C192.772 22.2819 192.879 22.614 193.068 22.8796C193.257 23.1452 193.517 23.3465 193.847 23.4833C194.181 23.6201 194.567 23.6886 195.006 23.6886C195.408 23.6886 195.75 23.6342 196.032 23.5256C196.318 23.4169 196.537 23.266 196.69 23.0728C196.843 22.8796 196.922 22.6583 196.926 22.4087C196.922 22.1753 196.849 21.9761 196.708 21.8111C196.567 21.642 196.35 21.4971 196.056 21.3764C195.767 21.2516 195.396 21.1369 194.946 21.0323L193.654 20.7305C192.583 20.485 191.74 20.0885 191.124 19.5412C190.508 18.9898 190.203 18.2453 190.207 17.3075C190.203 16.5428 190.408 15.8727 190.822 15.2972C191.237 14.7217 191.81 14.273 192.543 13.951C193.275 13.629 194.11 13.468 195.048 13.468C196.006 13.468 196.837 13.631 197.541 13.957C198.25 14.279 198.799 14.7318 199.189 15.3153C199.58 15.8989 199.779 16.575 199.787 17.3437H196.926ZM208.945 13.6371H211.927V21.6118C211.927 22.5335 211.708 23.3364 211.269 24.0206C210.831 24.7007 210.219 25.228 209.434 25.6023C208.649 25.9725 207.738 26.1577 206.699 26.1577C205.649 26.1577 204.731 25.9725 203.947 25.6023C203.162 25.228 202.552 24.7007 202.117 24.0206C201.683 23.3364 201.465 22.5335 201.465 21.6118V13.6371H204.454V21.3523C204.454 21.7789 204.546 22.1592 204.731 22.4932C204.921 22.8273 205.184 23.0889 205.522 23.278C205.86 23.4672 206.253 23.5618 206.699 23.5618C207.146 23.5618 207.537 23.4672 207.871 23.278C208.209 23.0889 208.472 22.8273 208.661 22.4932C208.851 22.1592 208.945 21.7789 208.945 21.3523V13.6371ZM220.483 17.3437C220.443 16.901 220.264 16.5569 219.946 16.3114C219.632 16.0619 219.183 15.9371 218.6 15.9371C218.213 15.9371 217.891 15.9874 217.634 16.0881C217.376 16.1887 217.183 16.3275 217.054 16.5046C216.925 16.6777 216.859 16.8769 216.855 17.1023C216.847 17.2874 216.883 17.4504 216.964 17.5913C217.048 17.7321 217.169 17.8569 217.326 17.9655C217.487 18.0702 217.68 18.1627 217.905 18.2432C218.131 18.3237 218.384 18.3942 218.666 18.4545L219.729 18.696C220.34 18.8288 220.88 19.0059 221.347 19.2273C221.817 19.4486 222.212 19.7122 222.53 20.0181C222.852 20.324 223.095 20.6761 223.26 21.0746C223.425 21.473 223.51 21.9197 223.514 22.4148C223.51 23.1955 223.313 23.8656 222.922 24.4251C222.532 24.9845 221.97 25.4131 221.238 25.7109C220.509 26.0087 219.63 26.1577 218.6 26.1577C217.565 26.1577 216.664 26.0027 215.895 25.6928C215.126 25.3829 214.529 24.912 214.102 24.2802C213.676 23.6483 213.456 22.8494 213.444 21.8835H216.306C216.33 22.2819 216.436 22.614 216.626 22.8796C216.815 23.1452 217.074 23.3465 217.404 23.4833C217.738 23.6201 218.125 23.6886 218.563 23.6886C218.966 23.6886 219.308 23.6342 219.59 23.5256C219.876 23.4169 220.095 23.266 220.248 23.0728C220.401 22.8796 220.479 22.6583 220.483 22.4087C220.479 22.1753 220.407 21.9761 220.266 21.8111C220.125 21.642 219.908 21.4971 219.614 21.3764C219.324 21.2516 218.954 21.1369 218.503 21.0323L217.211 20.7305C216.141 20.485 215.298 20.0885 214.682 19.5412C214.066 18.9898 213.76 18.2453 213.764 17.3075C213.76 16.5428 213.965 15.8727 214.38 15.2972C214.794 14.7217 215.368 14.273 216.1 13.951C216.833 13.629 217.668 13.468 218.606 13.468C219.564 13.468 220.395 13.631 221.099 13.957C221.807 14.279 222.357 14.7318 222.747 15.3153C223.137 15.8989 223.337 16.575 223.345 17.3437H220.483ZM225.023 26.0007V13.6371H233.644V16.0639H228.011V18.5994H233.203V21.0323H228.011V23.5739H233.644V26.0007H225.023Z" fill="#73BA25"/>
</g>
<defs>
<filter id="filter0_d_1_56" x="2.39972" y="0.39972" width="39.202" height="39.202" filterUnits="userSpaceOnUse" color-interpolation-filters="sRGB">
<feFlood flood-opacity="0" result="BackgroundImageFix"/>
<feColorMatrix in="SourceAlpha" type="matrix" values="0 0 0 0 0 0 0 0 0 0 0 0 0 0 0 0 0 0 127 0" result="hardAlpha"/>
<feOffset/>
<feGaussianBlur stdDeviation="2.80014"/>
<feComposite in2="hardAlpha" operator="out"/>
<feColorMatrix type="matrix" values="0 0 0 0 0 0 0 0 0 0 0 0 0 0 0 0 0 0 0.25 0"/>
<feBlend mode="normal" in2="BackgroundImageFix" result="effect1_dropShadow_1_56"/>
<feBlend mode="normal" in="SourceGraphic" in2="effect1_dropShadow_1_56" result="shape"/>
</filter>
<filter id="filter1_d_1_56" x="36.2871" y="3.78642" width="204.429" height="32.4286" filterUnits="userSpaceOnUse" color-interpolation-filters="sRGB">
<feFlood flood-opacity="0" result="BackgroundImageFix"/>
<feColorMatrix in="SourceAlpha" type="matrix" values="0 0 0 0 0 0 0 0 0 0 0 0 0 0 0 0 0 0 127 0" result="hardAlpha"/>
<feOffset/>
<feGaussianBlur stdDeviation="2.85714"/>
<feComposite in2="hardAlpha" operator="out"/>
<feColorMatrix type="matrix" values="0 0 0 0 0 0 0 0 0 0 0 0 0 0 0 0 0 0 0.25 0"/>
<feBlend mode="normal" in2="BackgroundImageFix" result="effect1_dropShadow_1_56"/>
<feBlend mode="normal" in="SourceGraphic" in2="effect1_dropShadow_1_56" result="shape"/>
</filter>
<linearGradient id="paint0_linear_1_56" x1="121.501" y1="0" x2="121.501" y2="40.0014" gradientUnits="userSpaceOnUse">
<stop stop-color="#345411"/>
<stop offset="1" stop-color="#22380B"/>
</linearGradient>
</defs>
</svg>
