<svg width="164" height="56" viewBox="0 0 164 56" fill="none" xmlns="http://www.w3.org/2000/svg">
<rect width="164" height="56" rx="8" fill="url(#paint0_linear_1_50)"/>
<rect x="1.05" y="1.05" width="161.9" height="53.9" rx="6.95" stroke="white" stroke-opacity="0.15" stroke-width="2.1"/>
<g filter="url(#filter0_d_1_50)">
<path d="M29.6201 8.00016C26.5828 8.00468 23.5864 8.70093 20.8583 10.036C18.1303 11.3712 15.7421 13.3101 13.875 15.7057C16.3144 16.3575 18.041 16.9176 18.5581 17.0913C18.5662 16.774 18.6189 13.9365 18.6189 13.9365C18.6189 13.9365 18.6255 13.8715 18.6602 13.8376C18.7048 13.794 18.7694 13.8071 18.7694 13.8071C19.411 13.9001 33.106 15.9302 38.8785 19.294C39.5914 19.7111 39.9433 20.1543 40.3829 20.6038C41.9786 22.2542 44.0871 29.1166 44.3135 30.5317C44.3224 30.5872 44.2537 30.6475 44.2244 30.6704H44.2237C44.0598 30.7983 43.8812 30.9313 43.7024 31.0502C42.3365 31.9666 39.1898 34.1693 35.1526 33.8097C31.5262 33.4889 26.7884 31.4087 21.0767 27.6454C21.6383 28.9602 22.1916 30.2791 22.7452 31.5973C23.5723 32.0269 31.556 36.0951 35.4963 36.0156C38.6699 35.9495 42.0642 34.4016 43.4221 33.5843C43.4221 33.5843 43.7205 33.4045 43.8504 33.5048C43.9924 33.6145 43.9531 33.7827 43.9195 33.9544C43.8359 34.3442 43.6458 35.0554 43.5164 35.3929L43.4072 35.6681C43.2518 36.0846 43.1026 36.4716 42.8149 36.71C42.015 37.4374 40.7382 38.0161 38.7377 38.8856C35.6454 40.2383 30.6284 41.0985 25.9704 41.0689C24.3021 41.0318 22.6903 40.8467 21.275 40.6814C18.3705 40.3534 16.0072 40.0874 14.5662 41.1296C16.4399 43.2827 18.7527 45.0099 21.3492 46.1949C23.9458 47.3799 26.7659 47.9953 29.6201 48C32.2465 48 34.8472 47.4827 37.2737 46.4776C39.7002 45.4726 41.905 43.9993 43.7622 42.1422C45.6193 40.285 47.0925 38.0803 48.0976 35.6537C49.1027 33.2272 49.62 30.6266 49.62 28.0002C49.62 25.3737 49.1027 22.7729 48.0976 20.3464C47.0925 17.9199 45.6193 15.7152 43.7622 13.858C41.905 12.0008 39.7002 10.5276 37.2737 9.52251C34.8472 8.51742 32.2465 8.00015 29.6201 8.00016ZM34.081 19.6047C32.5156 19.5548 31.0229 20.1072 29.8785 21.1757C28.7346 22.2406 28.08 23.6924 28.022 25.2568C27.9138 28.4841 30.4476 31.2034 33.6721 31.3223C35.2447 31.3751 36.7341 30.8223 37.8786 29.7475C39.0195 28.6859 39.6741 27.234 39.735 25.6696C39.8458 22.4452 37.309 19.7201 34.081 19.6047ZM34.0319 21.3307C36.2878 21.4107 38.054 23.3058 37.978 25.561C37.9432 26.6486 37.4844 27.6569 36.6874 28.4045C35.8893 29.1487 34.8461 29.5357 33.7516 29.5026C31.5009 29.4196 29.7347 27.5223 29.8106 25.2665C29.8437 24.1748 30.3116 23.1666 31.1051 22.4224C31.8986 21.6782 32.9368 21.2912 34.0319 21.3307ZM34.7005 23.3816C33.6981 23.3816 32.8886 23.921 32.8886 24.5921C32.8886 25.2569 33.6981 25.7994 34.7005 25.7994C35.7022 25.7994 36.515 25.2568 36.515 24.5921C36.515 23.921 35.7028 23.3816 34.7005 23.3816Z" fill="#73BA25"/>
</g>
<g filter="url(#filter1_d_1_50)">
<path d="M62.2613 24.5H60.3977L64.5852 12.8636H66.6136L70.8011 24.5H68.9375L65.6477 14.9773H65.5568L62.2613 24.5ZM62.5738 19.9432H68.6193V21.4204H62.5738V19.9432ZM78.7173 15.7727L75.5525 24.5H73.7344L70.5639 15.7727H72.3878L74.598 22.4886H74.6889L76.8934 15.7727H78.7173ZM82.6037 24.6932C82.0506 24.6932 81.5506 24.5909 81.1037 24.3864C80.6567 24.178 80.3025 23.8769 80.0412 23.4829C79.7836 23.089 79.6548 22.6061 79.6548 22.0341C79.6548 21.5417 79.7495 21.1364 79.9389 20.8182C80.1283 20.5 80.384 20.2481 80.7059 20.0625C81.0279 19.8769 81.3878 19.7367 81.7855 19.642C82.1832 19.5473 82.5885 19.4754 83.0014 19.4261C83.5241 19.3655 83.9484 19.3163 84.2741 19.2784C84.5999 19.2367 84.8366 19.1704 84.9844 19.0795C85.1321 18.9886 85.2059 18.8409 85.2059 18.6364V18.5966C85.2059 18.1004 85.0658 17.7159 84.7855 17.4432C84.509 17.1704 84.0961 17.0341 83.5469 17.0341C82.9749 17.0341 82.5241 17.161 82.1946 17.4148C81.8688 17.6648 81.6434 17.9432 81.5184 18.25L79.9219 17.8864C80.1112 17.3561 80.3878 16.928 80.7514 16.6023C81.1188 16.2727 81.5412 16.0341 82.0184 15.8864C82.4957 15.7348 82.9976 15.6591 83.5241 15.6591C83.8726 15.6591 84.2419 15.7008 84.6321 15.7841C85.026 15.8636 85.3934 16.0114 85.7344 16.2273C86.079 16.4432 86.3612 16.7519 86.5809 17.1534C86.8006 17.5511 86.9105 18.0682 86.9105 18.7045V24.5H85.2514V23.3068H85.1832C85.0734 23.5265 84.9086 23.7424 84.6889 23.9545C84.4692 24.1667 84.187 24.3428 83.8423 24.4829C83.4976 24.6231 83.0847 24.6932 82.6037 24.6932ZM82.973 23.3295C83.4427 23.3295 83.8442 23.2367 84.1775 23.0511C84.5147 22.8655 84.7703 22.6231 84.9446 22.3239C85.1226 22.0208 85.2116 21.697 85.2116 21.3523V20.2273C85.151 20.2879 85.0336 20.3447 84.8594 20.3977C84.6889 20.447 84.4938 20.4905 84.2741 20.5284C84.0544 20.5625 83.8404 20.5947 83.6321 20.625C83.4237 20.6515 83.2495 20.6742 83.1094 20.6932C82.7798 20.7348 82.4787 20.8049 82.2059 20.9034C81.937 21.0019 81.7211 21.1439 81.5582 21.3295C81.3991 21.5114 81.3196 21.7538 81.3196 22.0568C81.3196 22.4773 81.4749 22.7954 81.7855 23.0114C82.0961 23.2235 82.4919 23.3295 82.973 23.3295ZM89.1733 24.5V15.7727H90.8721V24.5H89.1733ZM90.0312 14.4261C89.7358 14.4261 89.482 14.3276 89.2699 14.1307C89.0615 13.9299 88.9574 13.6913 88.9574 13.4148C88.9574 13.1345 89.0615 12.8958 89.2699 12.6989C89.482 12.4981 89.7358 12.3977 90.0312 12.3977C90.3267 12.3977 90.5786 12.4981 90.7869 12.6989C90.999 12.8958 91.1051 13.1345 91.1051 13.4148C91.1051 13.6913 90.999 13.9299 90.7869 14.1307C90.5786 14.3276 90.3267 14.4261 90.0312 14.4261ZM94.8565 12.8636V24.5H93.1576V12.8636H94.8565ZM99.6818 24.6932C99.1288 24.6932 98.6288 24.5909 98.1818 24.3864C97.7348 24.178 97.3807 23.8769 97.1193 23.4829C96.8617 23.089 96.7329 22.6061 96.7329 22.0341C96.7329 21.5417 96.8276 21.1364 97.017 20.8182C97.2064 20.5 97.4621 20.2481 97.7841 20.0625C98.106 19.8769 98.4659 19.7367 98.8636 19.642C99.2613 19.5473 99.6666 19.4754 100.08 19.4261C100.602 19.3655 101.026 19.3163 101.352 19.2784C101.678 19.2367 101.915 19.1704 102.062 19.0795C102.21 18.9886 102.284 18.8409 102.284 18.6364V18.5966C102.284 18.1004 102.144 17.7159 101.864 17.4432C101.587 17.1704 101.174 17.0341 100.625 17.0341C100.053 17.0341 99.6022 17.161 99.2727 17.4148C98.9469 17.6648 98.7216 17.9432 98.5966 18.25L97 17.8864C97.1894 17.3561 97.4659 16.928 97.8295 16.6023C98.1969 16.2727 98.6193 16.0341 99.0966 15.8864C99.5738 15.7348 100.076 15.6591 100.602 15.6591C100.951 15.6591 101.32 15.7008 101.71 15.7841C102.104 15.8636 102.472 16.0114 102.812 16.2273C103.157 16.4432 103.439 16.7519 103.659 17.1534C103.879 17.5511 103.989 18.0682 103.989 18.7045V24.5H102.33V23.3068H102.261C102.151 23.5265 101.987 23.7424 101.767 23.9545C101.547 24.1667 101.265 24.3428 100.92 24.4829C100.576 24.6231 100.163 24.6932 99.6818 24.6932ZM100.051 23.3295C100.521 23.3295 100.922 23.2367 101.256 23.0511C101.593 22.8655 101.848 22.6231 102.023 22.3239C102.201 22.0208 102.29 21.697 102.29 21.3523V20.2273C102.229 20.2879 102.112 20.3447 101.937 20.3977C101.767 20.447 101.572 20.4905 101.352 20.5284C101.133 20.5625 100.919 20.5947 100.71 20.625C100.502 20.6515 100.328 20.6742 100.187 20.6932C99.8579 20.7348 99.5568 20.8049 99.2841 20.9034C99.0151 21.0019 98.7992 21.1439 98.6363 21.3295C98.4772 21.5114 98.3977 21.7538 98.3977 22.0568C98.3977 22.4773 98.553 22.7954 98.8636 23.0114C99.1742 23.2235 99.57 23.3295 100.051 23.3295ZM106.388 24.5V12.8636H108.087V17.1875H108.189C108.287 17.0057 108.429 16.7954 108.615 16.5568C108.801 16.3182 109.058 16.1098 109.388 15.9318C109.717 15.75 110.153 15.6591 110.695 15.6591C111.399 15.6591 112.028 15.8371 112.581 16.1932C113.134 16.5492 113.568 17.0625 113.882 17.7329C114.2 18.4034 114.359 19.2102 114.359 20.1534C114.359 21.0966 114.202 21.9053 113.888 22.5795C113.573 23.25 113.142 23.767 112.592 24.1307C112.043 24.4905 111.416 24.6704 110.712 24.6704C110.181 24.6704 109.748 24.5814 109.41 24.4034C109.077 24.2254 108.816 24.017 108.626 23.7784C108.437 23.5398 108.291 23.3276 108.189 23.142H108.047V24.5H106.388ZM108.053 20.1364C108.053 20.75 108.142 21.2879 108.32 21.75C108.498 22.2121 108.755 22.5739 109.092 22.8352C109.429 23.0928 109.842 23.2216 110.331 23.2216C110.839 23.2216 111.263 23.0871 111.604 22.8182C111.945 22.5454 112.202 22.1761 112.376 21.7102C112.554 21.2443 112.643 20.7197 112.643 20.1364C112.643 19.5606 112.556 19.0436 112.382 18.5852C112.212 18.1269 111.954 17.7651 111.609 17.5C111.268 17.2348 110.842 17.1023 110.331 17.1023C109.839 17.1023 109.422 17.2292 109.081 17.4829C108.744 17.7367 108.488 18.0909 108.314 18.5454C108.14 19 108.053 19.5303 108.053 20.1364ZM117.966 12.8636V24.5H116.267V12.8636H117.966ZM124.013 24.6761C123.153 24.6761 122.412 24.4924 121.791 24.125C121.174 23.7538 120.696 23.2329 120.359 22.5625C120.026 21.8883 119.859 21.0985 119.859 20.1932C119.859 19.2992 120.026 18.5114 120.359 17.8295C120.696 17.1477 121.166 16.6155 121.768 16.2329C122.374 15.8504 123.083 15.6591 123.893 15.6591C124.386 15.6591 124.863 15.7405 125.325 15.9034C125.787 16.0663 126.202 16.322 126.57 16.6704C126.937 17.0189 127.227 17.4716 127.439 18.0284C127.651 18.5814 127.757 19.2538 127.757 20.0454V20.6477H120.82V19.375H126.092C126.092 18.928 126.001 18.5322 125.82 18.1875C125.638 17.839 125.382 17.5644 125.053 17.3636C124.727 17.1629 124.344 17.0625 123.905 17.0625C123.428 17.0625 123.011 17.1799 122.655 17.4148C122.303 17.6458 122.03 17.9489 121.837 18.3239C121.647 18.6951 121.553 19.0985 121.553 19.5341V20.5284C121.553 21.1117 121.655 21.6079 121.859 22.017C122.068 22.4261 122.357 22.7386 122.729 22.9545C123.1 23.1667 123.534 23.2727 124.03 23.2727C124.352 23.2727 124.645 23.2273 124.91 23.1364C125.176 23.0417 125.405 22.9015 125.598 22.7159C125.791 22.5303 125.939 22.3011 126.041 22.0284L127.649 22.3182C127.52 22.7917 127.289 23.2064 126.956 23.5625C126.626 23.9148 126.212 24.1894 125.712 24.3864C125.215 24.5795 124.649 24.6761 124.013 24.6761ZM137.553 24.6761C136.734 24.6761 136.02 24.4886 135.41 24.1136C134.801 23.7386 134.327 23.214 133.99 22.5398C133.653 21.8655 133.484 21.0776 133.484 20.1761C133.484 19.2708 133.653 18.4792 133.99 17.8011C134.327 17.1231 134.801 16.5966 135.41 16.2216C136.02 15.8466 136.734 15.6591 137.553 15.6591C138.371 15.6591 139.085 15.8466 139.695 16.2216C140.304 16.5966 140.778 17.1231 141.115 17.8011C141.452 18.4792 141.621 19.2708 141.621 20.1761C141.621 21.0776 141.452 21.8655 141.115 22.5398C140.778 23.214 140.304 23.7386 139.695 24.1136C139.085 24.4886 138.371 24.6761 137.553 24.6761ZM137.558 23.25C138.089 23.25 138.528 23.1098 138.876 22.8295C139.225 22.5492 139.482 22.1761 139.649 21.7102C139.82 21.2443 139.905 20.7311 139.905 20.1704C139.905 19.6136 139.82 19.1023 139.649 18.6364C139.482 18.1667 139.225 17.7898 138.876 17.5057C138.528 17.2216 138.089 17.0795 137.558 17.0795C137.024 17.0795 136.581 17.2216 136.229 17.5057C135.88 17.7898 135.621 18.1667 135.45 18.6364C135.284 19.1023 135.2 19.6136 135.2 20.1704C135.2 20.7311 135.284 21.2443 135.45 21.7102C135.621 22.1761 135.88 22.5492 136.229 22.8295C136.581 23.1098 137.024 23.25 137.558 23.25ZM145.216 19.3182V24.5H143.517V15.7727H145.148V17.1932H145.256C145.456 16.7311 145.771 16.3598 146.199 16.0795C146.631 15.7992 147.174 15.6591 147.83 15.6591C148.424 15.6591 148.945 15.7841 149.392 16.0341C149.839 16.2803 150.186 16.6477 150.432 17.1364C150.678 17.625 150.801 18.2292 150.801 18.9489V24.5H149.102V19.1534C149.102 18.5208 148.937 18.0265 148.608 17.6704C148.278 17.3106 147.826 17.1307 147.25 17.1307C146.856 17.1307 146.506 17.2159 146.199 17.3864C145.896 17.5568 145.655 17.8068 145.477 18.1364C145.303 18.4621 145.216 18.8561 145.216 19.3182Z" fill="#E8E8E8"/>
<path d="M72.6051 37.3182C72.6051 38.6785 72.3435 39.8315 71.8203 40.7773C71.2971 41.7231 70.5888 42.4415 69.6953 42.9325C68.8059 43.4235 67.8077 43.669 66.701 43.669C65.5902 43.669 64.5901 43.4215 63.7006 42.9265C62.8112 42.4315 62.1049 41.7131 61.5817 40.7713C61.0625 39.8255 60.8029 38.6745 60.8029 37.3182C60.8029 35.9578 61.0625 34.8048 61.5817 33.859C62.1049 32.9132 62.8112 32.1948 63.7006 31.7038C64.5901 31.2128 65.5902 30.9673 66.701 30.9673C67.8077 30.9673 68.8059 31.2128 69.6953 31.7038C70.5888 32.1948 71.2971 32.9132 71.8203 33.859C72.3435 34.8048 72.6051 35.9578 72.6051 37.3182ZM69.5504 37.3182C69.5504 36.5132 69.4357 35.8331 69.2063 35.2777C68.9809 34.7223 68.6549 34.3017 68.2283 34.016C67.8057 33.7302 67.2966 33.5873 66.701 33.5873C66.1094 33.5873 65.6002 33.7302 65.1736 34.016C64.747 34.3017 64.419 34.7223 64.1896 35.2777C63.9642 35.8331 63.8515 36.5132 63.8515 37.3182C63.8515 38.1231 63.9642 38.8033 64.1896 39.3587C64.419 39.9141 64.747 40.3346 65.1736 40.6204C65.6002 40.9061 66.1094 41.049 66.701 41.049C67.2966 41.049 67.8057 40.9061 68.2283 40.6204C68.6549 40.3346 68.9809 39.9141 69.2063 39.3587C69.4357 38.8033 69.5504 38.1231 69.5504 37.3182ZM74.3498 46.9773V34.2273H77.2716V35.815H77.3622C77.4829 35.5333 77.654 35.2616 77.8753 35C78.1007 34.7384 78.3865 34.5251 78.7326 34.3601C79.0827 34.191 79.5013 34.1065 79.9883 34.1065C80.6322 34.1065 81.2339 34.2756 81.7933 34.6136C82.3567 34.9517 82.8115 35.4729 83.1576 36.1772C83.5038 36.8815 83.6768 37.779 83.6768 38.8697C83.6768 39.9201 83.5098 40.7995 83.1758 41.5078C82.8457 42.2161 82.399 42.7474 81.8356 43.1016C81.2761 43.4557 80.6543 43.6328 79.9701 43.6328C79.5033 43.6328 79.0988 43.5563 78.7567 43.4034C78.4146 43.2505 78.1269 43.0492 77.8934 42.7997C77.664 42.5502 77.487 42.2825 77.3622 41.9968H77.3018V46.9773H74.3498ZM77.2415 38.8636C77.2415 39.3627 77.3079 39.7973 77.4407 40.1676C77.5775 40.5379 77.7727 40.8256 78.0263 41.0309C78.2838 41.2321 78.5917 41.3327 78.9499 41.3327C79.3121 41.3327 79.62 41.2321 79.8736 41.0309C80.1271 40.8256 80.3183 40.5379 80.4471 40.1676C80.5799 39.7973 80.6463 39.3627 80.6463 38.8636C80.6463 38.3646 80.5799 37.9319 80.4471 37.5657C80.3183 37.1994 80.1271 36.9157 79.8736 36.7145C79.624 36.5132 79.3161 36.4126 78.9499 36.4126C78.5877 36.4126 78.2798 36.5112 78.0263 36.7084C77.7727 36.9056 77.5775 37.1874 77.4407 37.5536C77.3079 37.9199 77.2415 38.3565 77.2415 38.8636ZM89.5583 43.6751C88.5884 43.6751 87.7512 43.4839 87.0469 43.1016C86.3467 42.7152 85.8074 42.1658 85.429 41.4535C85.0548 40.7371 84.8676 39.8859 84.8676 38.8998C84.8676 37.942 85.0568 37.1049 85.4351 36.3885C85.8134 35.6681 86.3467 35.1087 87.0349 34.7102C87.7231 34.3078 88.534 34.1065 89.4677 34.1065C90.1278 34.1065 90.7315 34.2092 91.2788 34.4144C91.8262 34.6197 92.2991 34.9235 92.6975 35.326C93.0959 35.7284 93.4058 36.2255 93.6272 36.8171C93.8485 37.4047 93.9592 38.0788 93.9592 38.8395V39.576H85.8999V37.8615H91.2124C91.2084 37.5476 91.1339 37.2679 90.9891 37.0224C90.8442 36.7769 90.645 36.5857 90.3914 36.4489C90.1419 36.308 89.8541 36.2376 89.5281 36.2376C89.1981 36.2376 88.9023 36.312 88.6407 36.4609C88.3791 36.6058 88.1718 36.805 88.0189 37.0586C87.866 37.3081 87.7855 37.5918 87.7774 37.9098V39.6545C87.7774 40.0328 87.8519 40.3648 88.0008 40.6506C88.1497 40.9323 88.361 41.1516 88.6347 41.3086C88.9083 41.4655 89.2343 41.544 89.6126 41.544C89.8742 41.544 90.1117 41.5078 90.325 41.4354C90.5383 41.3629 90.7214 41.2563 90.8744 41.1154C91.0273 40.9745 91.142 40.8015 91.2185 40.5962L93.929 40.6747C93.8164 41.2824 93.5688 41.8117 93.1865 42.2624C92.8082 42.7092 92.3111 43.0573 91.6954 43.3068C91.0796 43.5523 90.3673 43.6751 89.5583 43.6751ZM98.419 38.2116V43.5H95.4669V34.2273H98.2741V35.9297H98.3767C98.582 35.3622 98.9321 34.9175 99.4272 34.5955C99.9222 34.2695 100.512 34.1065 101.196 34.1065C101.848 34.1065 102.413 34.2534 102.892 34.5472C103.375 34.837 103.75 35.2435 104.015 35.7667C104.285 36.2859 104.418 36.8936 104.414 37.5898V43.5H101.462V38.1694C101.466 37.6542 101.335 37.2518 101.069 36.962C100.808 36.6722 100.443 36.5273 99.9765 36.5273C99.6666 36.5273 99.393 36.5958 99.1555 36.7326C98.9221 36.8654 98.741 37.0566 98.6122 37.3061C98.4874 37.5556 98.423 37.8575 98.419 38.2116ZM112.924 34.843C112.884 34.4003 112.705 34.0562 112.387 33.8107C112.073 33.5612 111.624 33.4364 111.041 33.4364C110.654 33.4364 110.332 33.4867 110.075 33.5873C109.817 33.688 109.624 33.8268 109.495 34.0039C109.366 34.177 109.3 34.3762 109.296 34.6016C109.288 34.7867 109.324 34.9497 109.405 35.0905C109.489 35.2314 109.61 35.3562 109.767 35.4648C109.928 35.5695 110.121 35.662 110.346 35.7425C110.572 35.823 110.825 35.8935 111.107 35.9538L112.17 36.1953C112.781 36.3281 113.321 36.5052 113.788 36.7266C114.258 36.9479 114.653 37.2115 114.971 37.5174C115.293 37.8233 115.536 38.1754 115.701 38.5739C115.866 38.9723 115.951 39.419 115.955 39.9141C115.951 40.6948 115.754 41.3649 115.363 41.9243C114.973 42.4838 114.411 42.9124 113.679 43.2102C112.95 43.508 112.071 43.6569 111.041 43.6569C110.006 43.6569 109.105 43.502 108.336 43.1921C107.567 42.8822 106.97 42.4113 106.543 41.7795C106.117 41.1476 105.897 40.3487 105.885 39.3828H108.747C108.771 39.7812 108.877 40.1133 109.067 40.3789C109.256 40.6445 109.515 40.8458 109.845 40.9826C110.179 41.1194 110.566 41.1878 111.004 41.1878C111.407 41.1878 111.749 41.1335 112.031 41.0248C112.317 40.9162 112.536 40.7653 112.689 40.5721C112.842 40.3789 112.92 40.1575 112.924 39.908C112.92 39.6746 112.848 39.4754 112.707 39.3104C112.566 39.1413 112.349 38.9964 112.055 38.8757C111.765 38.7509 111.395 38.6362 110.944 38.5316L109.652 38.2297C108.582 37.9842 107.739 37.5878 107.123 37.0405C106.507 36.4891 106.201 35.7445 106.205 34.8068C106.201 34.0421 106.406 33.372 106.821 32.7965C107.235 32.221 107.809 31.7722 108.541 31.4503C109.274 31.1283 110.109 30.9673 111.047 30.9673C112.005 30.9673 112.836 31.1303 113.54 31.4563C114.248 31.7783 114.798 32.2311 115.188 32.8146C115.578 33.3982 115.778 34.0743 115.786 34.843H112.924ZM124.944 31.1364H127.926V39.1111C127.926 40.0328 127.707 40.8357 127.268 41.5199C126.829 42.2 126.218 42.7273 125.433 43.1016C124.648 43.4718 123.736 43.6569 122.698 43.6569C121.648 43.6569 120.73 43.4718 119.945 43.1016C119.16 42.7273 118.551 42.2 118.116 41.5199C117.681 40.8357 117.464 40.0328 117.464 39.1111V31.1364H120.452V38.8516C120.452 39.2782 120.545 39.6585 120.73 39.9925C120.919 40.3266 121.183 40.5882 121.521 40.7773C121.859 40.9665 122.251 41.0611 122.698 41.0611C123.145 41.0611 123.535 40.9665 123.869 40.7773C124.207 40.5882 124.471 40.3266 124.66 39.9925C124.849 39.6585 124.944 39.2782 124.944 38.8516V31.1364ZM136.482 34.843C136.442 34.4003 136.263 34.0562 135.945 33.8107C135.631 33.5612 135.182 33.4364 134.598 33.4364C134.212 33.4364 133.89 33.4867 133.632 33.5873C133.375 33.688 133.182 33.8268 133.053 34.0039C132.924 34.177 132.858 34.3762 132.854 34.6016C132.846 34.7867 132.882 34.9497 132.962 35.0905C133.047 35.2314 133.168 35.3562 133.325 35.4648C133.486 35.5695 133.679 35.662 133.904 35.7425C134.129 35.823 134.383 35.8935 134.665 35.9538L135.727 36.1953C136.339 36.3281 136.878 36.5052 137.345 36.7266C137.816 36.9479 138.21 37.2115 138.528 37.5174C138.85 37.8233 139.094 38.1754 139.259 38.5739C139.424 38.9723 139.508 39.419 139.512 39.9141C139.508 40.6948 139.311 41.3649 138.921 41.9243C138.53 42.4838 137.969 42.9124 137.236 43.2102C136.508 43.508 135.629 43.6569 134.598 43.6569C133.564 43.6569 132.662 43.502 131.894 43.1921C131.125 42.8822 130.527 42.4113 130.101 41.7795C129.674 41.1476 129.455 40.3487 129.443 39.3828H132.304C132.328 39.7812 132.435 40.1133 132.624 40.3789C132.813 40.6445 133.073 40.8458 133.403 40.9826C133.737 41.1194 134.123 41.1878 134.562 41.1878C134.965 41.1878 135.307 41.1335 135.588 41.0248C135.874 40.9162 136.093 40.7653 136.246 40.5721C136.399 40.3789 136.478 40.1575 136.482 39.908C136.478 39.6746 136.405 39.4754 136.265 39.3104C136.124 39.1413 135.906 38.9964 135.613 38.8757C135.323 38.7509 134.952 38.6362 134.502 38.5316L133.21 38.2297C132.139 37.9842 131.296 37.5878 130.68 37.0405C130.065 36.4891 129.759 35.7445 129.763 34.8068C129.759 34.0421 129.964 33.372 130.379 32.7965C130.793 32.221 131.367 31.7722 132.099 31.4503C132.832 31.1283 133.667 30.9673 134.604 30.9673C135.562 30.9673 136.393 31.1303 137.098 31.4563C137.806 31.7783 138.355 32.2311 138.746 32.8146C139.136 33.3982 139.335 34.0743 139.343 34.843H136.482ZM141.022 43.5V31.1364H149.642V33.5632H144.01V36.0987H149.202V38.5316H144.01V41.0731H149.642V43.5H141.022Z" fill="#73BA25"/>
</g>
<defs>
<filter id="filter0_d_1_50" x="6.28571" y="2.28571" width="51.4286" height="51.4286" filterUnits="userSpaceOnUse" color-interpolation-filters="sRGB">
<feFlood flood-opacity="0" result="BackgroundImageFix"/>
<feColorMatrix in="SourceAlpha" type="matrix" values="0 0 0 0 0 0 0 0 0 0 0 0 0 0 0 0 0 0 127 0" result="hardAlpha"/>
<feOffset/>
<feGaussianBlur stdDeviation="2.85714"/>
<feComposite in2="hardAlpha" operator="out"/>
<feColorMatrix type="matrix" values="0 0 0 0 0 0 0 0 0 0 0 0 0 0 0 0 0 0 0.25 0"/>
<feBlend mode="normal" in2="BackgroundImageFix" result="effect1_dropShadow_1_50"/>
<feBlend mode="normal" in="SourceGraphic" in2="effect1_dropShadow_1_50" result="shape"/>
</filter>
<filter id="filter1_d_1_50" x="54.4" y="3.9" width="103.2" height="48.6773" filterUnits="userSpaceOnUse" color-interpolation-filters="sRGB">
<feFlood flood-opacity="0" result="BackgroundImageFix"/>
<feColorMatrix in="SourceAlpha" type="matrix" values="0 0 0 0 0 0 0 0 0 0 0 0 0 0 0 0 0 0 127 0" result="hardAlpha"/>
<feOffset/>
<feGaussianBlur stdDeviation="2.8"/>
<feComposite in2="hardAlpha" operator="out"/>
<feColorMatrix type="matrix" values="0 0 0 0 0 0 0 0 0 0 0 0 0 0 0 0 0 0 0.25 0"/>
<feBlend mode="normal" in2="BackgroundImageFix" result="effect1_dropShadow_1_50"/>
<feBlend mode="normal" in="SourceGraphic" in2="effect1_dropShadow_1_50" result="shape"/>
</filter>
<linearGradient id="paint0_linear_1_50" x1="82" y1="0" x2="82" y2="56" gradientUnits="userSpaceOnUse">
<stop stop-color="#345411"/>
<stop offset="1" stop-color="#22380B"/>
</linearGradient>
</defs>
</svg>
