<svg width="56" height="56" viewBox="0 0 56 56" fill="none" xmlns="http://www.w3.org/2000/svg">
<rect width="56" height="56" rx="8.4" fill="url(#paint0_linear_1_62)"/>
<rect x="1.05" y="1.05" width="53.9" height="53.9" rx="7.35" stroke="white" stroke-opacity="0.15" stroke-width="2.1"/>
<g filter="url(#filter0_d_1_62)">
<path d="M25.6201 8.00016C22.5828 8.00468 19.5864 8.70093 16.8583 10.036C14.1303 11.3712 11.7421 13.3101 9.875 15.7057C12.3144 16.3575 14.041 16.9176 14.5581 17.0913C14.5662 16.774 14.6189 13.9365 14.6189 13.9365C14.6189 13.9365 14.6255 13.8715 14.6602 13.8376C14.7048 13.794 14.7694 13.8071 14.7694 13.8071C15.411 13.9001 29.106 15.9302 34.8785 19.294C35.5914 19.7111 35.9433 20.1543 36.3829 20.6038C37.9786 22.2542 40.0871 29.1166 40.3135 30.5317C40.3224 30.5872 40.2537 30.6475 40.2244 30.6704H40.2237C40.0598 30.7983 39.8812 30.9313 39.7024 31.0502C38.3365 31.9666 35.1898 34.1693 31.1526 33.8097C27.5262 33.4889 22.7884 31.4087 17.0767 27.6454C17.6383 28.9602 18.1916 30.2791 18.7452 31.5973C19.5723 32.0269 27.556 36.0951 31.4963 36.0156C34.6699 35.9495 38.0642 34.4016 39.4221 33.5843C39.4221 33.5843 39.7205 33.4045 39.8504 33.5048C39.9924 33.6145 39.9531 33.7827 39.9195 33.9544C39.8359 34.3442 39.6458 35.0554 39.5164 35.3929L39.4072 35.6681C39.2518 36.0846 39.1026 36.4716 38.8149 36.71C38.015 37.4374 36.7382 38.0161 34.7377 38.8856C31.6454 40.2383 26.6284 41.0985 21.9704 41.0689C20.3021 41.0318 18.6903 40.8467 17.275 40.6814C14.3705 40.3534 12.0072 40.0874 10.5662 41.1296C12.4399 43.2827 14.7527 45.0099 17.3492 46.1949C19.9458 47.3799 22.7659 47.9953 25.6201 48C28.2465 48 30.8472 47.4827 33.2737 46.4776C35.7002 45.4726 37.905 43.9993 39.7622 42.1422C41.6193 40.285 43.0925 38.0803 44.0976 35.6537C45.1027 33.2272 45.62 30.6266 45.62 28.0002C45.62 25.3737 45.1027 22.7729 44.0976 20.3464C43.0925 17.9199 41.6193 15.7152 39.7622 13.858C37.905 12.0008 35.7002 10.5276 33.2737 9.52251C30.8472 8.51742 28.2465 8.00015 25.6201 8.00016ZM30.081 19.6047C28.5156 19.5548 27.0229 20.1072 25.8785 21.1757C24.7346 22.2406 24.08 23.6924 24.022 25.2568C23.9138 28.4841 26.4476 31.2034 29.6721 31.3223C31.2447 31.3751 32.7341 30.8223 33.8786 29.7475C35.0195 28.6859 35.6741 27.234 35.735 25.6696C35.8458 22.4452 33.309 19.7201 30.081 19.6047ZM30.0319 21.3307C32.2878 21.4107 34.054 23.3058 33.978 25.561C33.9432 26.6486 33.4844 27.6569 32.6874 28.4045C31.8893 29.1487 30.8461 29.5357 29.7516 29.5026C27.5009 29.4196 25.7347 27.5223 25.8106 25.2665C25.8437 24.1748 26.3116 23.1666 27.1051 22.4224C27.8986 21.6782 28.9368 21.2912 30.0319 21.3307ZM30.7005 23.3816C29.6981 23.3816 28.8886 23.921 28.8886 24.5921C28.8886 25.2569 29.6981 25.7994 30.7005 25.7994C31.7022 25.7994 32.515 25.2568 32.515 24.5921C32.515 23.921 31.7028 23.3816 30.7005 23.3816Z" fill="#73BA25"/>
</g>
<defs>
<filter id="filter0_d_1_62" x="2.28571" y="2.28571" width="51.4286" height="51.4286" filterUnits="userSpaceOnUse" color-interpolation-filters="sRGB">
<feFlood flood-opacity="0" result="BackgroundImageFix"/>
<feColorMatrix in="SourceAlpha" type="matrix" values="0 0 0 0 0 0 0 0 0 0 0 0 0 0 0 0 0 0 127 0" result="hardAlpha"/>
<feOffset/>
<feGaussianBlur stdDeviation="2.85714"/>
<feComposite in2="hardAlpha" operator="out"/>
<feColorMatrix type="matrix" values="0 0 0 0 0 0 0 0 0 0 0 0 0 0 0 0 0 0 0.25 0"/>
<feBlend mode="normal" in2="BackgroundImageFix" result="effect1_dropShadow_1_62"/>
<feBlend mode="normal" in="SourceGraphic" in2="effect1_dropShadow_1_62" result="shape"/>
</filter>
<linearGradient id="paint0_linear_1_62" x1="28" y1="0" x2="28" y2="56" gradientUnits="userSpaceOnUse">
<stop stop-color="#345411"/>
<stop offset="1" stop-color="#22380B"/>
</linearGradient>
</defs>
</svg>
