<svg width="202" height="40" viewBox="0 0 202 40" fill="none" xmlns="http://www.w3.org/2000/svg">
<g clip-path="url(#clip0_1_56)">
<rect width="202.001" height="40.0014" rx="8" fill="url(#paint0_linear_1_56)"/>
<g filter="url(#filter0_d_1_56)">
<g clip-path="url(#clip1_1_56)">
<path d="M32.8815 15.009C32.8255 14.9495 32.766 14.89 32.7065 14.834C32.647 14.778 32.591 14.715 32.5315 14.659C32.472 14.603 32.416 14.54 32.3565 14.484C32.297 14.428 32.241 14.365 32.1815 14.309C32.122 14.253 32.066 14.19 32.0065 14.134C31.947 14.078 31.891 14.015 31.8315 13.959C31.772 13.903 31.716 13.84 31.6565 13.784C33.3926 15.4901 34.3871 17.8112 34.425 20.245C34.425 26.0445 28.538 30.7625 21.3 30.7625C17.247 30.7625 13.621 29.282 11.2095 26.9615L11.3845 27.1365L11.5595 27.3115L11.7345 27.4865L11.9095 27.6615L12.0845 27.8365L12.2595 28.0115L12.4345 28.1865C14.8425 30.605 18.549 32.1625 22.7 32.1625C29.938 32.1625 35.825 27.4445 35.825 21.6625C35.825 19.1915 34.761 16.85 32.8815 15.009Z" fill="black"/>
<path d="M33.55 20.245C33.55 25.5685 28.0655 29.884 21.3 29.884C14.5345 29.884 9.05 25.5685 9.05 20.245C9.05 16.9445 11.15 14.029 14.377 12.3C17.604 10.571 19.613 8.8 21.3 8.8C22.987 8.8 24.429 10.2455 28.223 12.3C31.45 14.029 33.55 16.9445 33.55 20.245Z" fill="#FBF0DF"/>
<path d="M33.55 20.245C33.5483 19.5611 33.4541 18.8806 33.27 18.222C32.3145 29.877 18.0975 30.437 12.508 26.951C15.0207 28.8985 18.1213 29.9329 21.3 29.884C28.055 29.884 33.55 25.5615 33.55 20.245Z" fill="#F6DECE"/>
<path d="M16.5855 11.6595C18.15 10.7215 20.229 8.961 22.273 8.9575C21.9586 8.85586 21.6305 8.80275 21.3 8.8C20.453 8.8 19.55 9.2375 18.4125 9.8955C18.017 10.1265 17.6075 10.382 17.1735 10.648C16.358 11.152 15.4235 11.7225 14.3735 12.293C11.0415 14.0955 9.05 17.067 9.05 20.245C9.05 20.385 9.05 20.525 9.05 20.6615C11.171 13.168 15.0245 12.5975 16.5855 11.6595Z" fill="#FFFEFC"/>
<path fill-rule="evenodd" clip-rule="evenodd" d="M20.292 9.6855C20.2969 10.5119 20.1234 11.3297 19.7833 12.0829C19.4432 12.8361 18.9446 13.5071 18.3215 14.05C18.2235 14.1375 18.3005 14.3055 18.4265 14.2565C19.606 13.798 21.1985 12.426 20.5265 9.6575C20.4985 9.5 20.292 9.542 20.292 9.6855ZM21.0865 9.6855C21.5148 10.3843 21.7868 11.1673 21.8841 11.9811C21.9814 12.7948 21.9015 13.62 21.65 14.4C21.608 14.5225 21.7585 14.6275 21.8425 14.526C22.609 13.546 23.2775 11.6 21.2755 9.5C21.174 9.409 21.0165 9.549 21.0865 9.6715V9.6855ZM22.0525 9.626C22.7232 10.1008 23.2842 10.7139 23.6978 11.4239C24.1114 12.134 24.3679 12.9244 24.45 13.742C24.4465 13.7715 24.4544 13.8012 24.4722 13.8249C24.4899 13.8487 24.5161 13.8647 24.5454 13.8697C24.5747 13.8746 24.6047 13.8681 24.6293 13.8515C24.6539 13.8349 24.6712 13.8095 24.6775 13.7805C24.9995 12.559 24.8175 10.4765 22.168 9.395C22.028 9.339 21.937 9.528 22.0525 9.612V9.626ZM15.5915 13.266C16.3893 13.0277 17.1279 12.624 17.7592 12.0813C18.3906 11.5385 18.9006 10.8689 19.256 10.116C19.319 9.99 19.5185 10.039 19.487 10.179C18.8815 12.979 16.855 13.5635 15.595 13.4865C15.462 13.49 15.4655 13.3045 15.5915 13.266Z" fill="#CCBEA7"/>
<path d="M21.3 30.7625C14.062 30.7625 8.175 26.0445 8.175 20.245C8.175 16.745 10.338 13.4795 13.9605 11.523C15.0105 10.963 15.91 10.3995 16.7115 9.906C17.1525 9.633 17.569 9.3775 17.9715 9.1395C19.2 8.4115 20.25 7.925 21.3 7.925C22.35 7.925 23.267 8.345 24.415 9.024C24.765 9.2235 25.115 9.4405 25.4895 9.6785C26.361 10.2175 27.3445 10.8265 28.6395 11.523C32.262 13.4795 34.425 16.7415 34.425 20.245C34.425 26.0445 28.538 30.7625 21.3 30.7625ZM21.3 8.8C20.453 8.8 19.55 9.2375 18.4125 9.8955C18.017 10.1265 17.6075 10.382 17.1735 10.648C16.358 11.152 15.4235 11.7225 14.3735 12.293C11.0415 14.0955 9.05 17.067 9.05 20.245C9.05 25.5615 14.545 29.8875 21.3 29.8875C28.055 29.8875 33.55 25.5615 33.55 20.245C33.55 17.067 31.5585 14.0955 28.223 12.3C26.9 11.6 25.8675 10.942 25.031 10.424C24.6495 10.1895 24.2995 9.9725 23.981 9.78C22.9205 9.15 22.147 8.8 21.3 8.8Z" fill="black"/>
<path d="M23.7675 22.8C23.6103 23.444 23.2524 24.0213 22.7455 24.4485C22.365 24.8174 21.8723 25.0489 21.3455 25.1065C20.8028 25.058 20.2929 24.8259 19.9 24.4485C19.3983 24.0193 19.0454 23.4422 18.892 22.8C18.8869 22.7619 18.8906 22.7231 18.9028 22.6866C18.9151 22.6502 18.9355 22.617 18.9625 22.5896C18.9895 22.5622 19.0225 22.5414 19.0588 22.5287C19.0951 22.5161 19.1338 22.5119 19.172 22.5165H23.491C23.5289 22.5125 23.5672 22.5171 23.6031 22.53C23.639 22.5429 23.6714 22.5638 23.6981 22.5911C23.7247 22.6184 23.7448 22.6514 23.7568 22.6876C23.7688 22.7238 23.7725 22.7622 23.7675 22.8Z" fill="#B71422"/>
<path d="M19.9 24.4765C20.2921 24.8541 20.8002 25.0884 21.342 25.1415C21.8826 25.0877 22.3893 24.8534 22.7805 24.4765C22.9056 24.3599 23.0226 24.2347 23.1305 24.102C22.9149 23.8574 22.6515 23.6595 22.3566 23.5205C22.0617 23.3814 21.7414 23.3042 21.4155 23.2935C21.0668 23.3018 20.7253 23.3946 20.4205 23.5641C20.1156 23.7336 19.8565 23.9747 19.6655 24.2665C19.746 24.34 19.816 24.41 19.9 24.4765Z" fill="#FF6164"/>
<path d="M19.956 24.2C20.1295 23.9757 20.3516 23.7937 20.6056 23.6676C20.8597 23.5415 21.1389 23.4746 21.4225 23.472C21.9467 23.4875 22.4461 23.6985 22.8225 24.0635C22.903 23.976 22.98 23.885 23.0535 23.794C22.6082 23.3699 22.0198 23.1288 21.405 23.1185C21.0764 23.1213 20.7526 23.1969 20.4567 23.3397C20.1608 23.4825 19.9001 23.689 19.6935 23.9445C19.7763 24.0344 19.8639 24.1197 19.956 24.2Z" fill="black"/>
<path d="M21.3315 25.3165C20.7483 25.2654 20.1994 25.0187 19.774 24.6165C19.2322 24.1583 18.8509 23.539 18.6855 22.849C18.6736 22.7876 18.6757 22.7243 18.6914 22.6637C18.7071 22.6031 18.7362 22.5469 18.7765 22.499C18.8245 22.4411 18.885 22.3949 18.9536 22.3639C19.0221 22.333 19.0968 22.3182 19.172 22.3205H23.491C23.5661 22.3189 23.6405 22.3341 23.7089 22.365C23.7774 22.3959 23.838 22.4417 23.8865 22.499C23.9264 22.547 23.955 22.6034 23.9701 22.664C23.9853 22.7246 23.9866 22.7878 23.974 22.849C23.8086 23.539 23.4273 24.1583 22.8855 24.6165C22.461 25.018 21.9135 25.2646 21.3315 25.3165ZM19.172 22.7265C19.116 22.7265 19.102 22.751 19.0985 22.758C19.2464 23.3564 19.5811 23.8921 20.054 24.2875C20.3998 24.6282 20.8494 24.8437 21.3315 24.9C21.8124 24.8444 22.2615 24.6315 22.609 24.2945C23.0804 23.8984 23.4138 23.3628 23.561 22.765C23.5534 22.7538 23.5428 22.7449 23.5304 22.7394C23.5181 22.7338 23.5044 22.7318 23.491 22.7335L19.172 22.7265Z" fill="black"/>
<path d="M26.627 23.017C27.7578 23.017 28.6745 22.478 28.6745 21.813C28.6745 21.148 27.7578 20.609 26.627 20.609C25.4962 20.609 24.5795 21.148 24.5795 21.813C24.5795 22.478 25.4962 23.017 26.627 23.017Z" fill="#FEBBD0"/>
<path d="M16.0325 23.017C17.1633 23.017 18.08 22.478 18.08 21.813C18.08 21.148 17.1633 20.609 16.0325 20.609C14.9017 20.609 13.985 21.148 13.985 21.813C13.985 22.478 14.9017 23.017 16.0325 23.017Z" fill="#FEBBD0"/>
<path fill-rule="evenodd" clip-rule="evenodd" d="M16.995 21.33C17.3766 21.3307 17.7498 21.2182 18.0674 21.0067C18.385 20.7952 18.6327 20.4943 18.7792 20.1419C18.9257 19.7896 18.9644 19.4017 18.8904 19.0274C18.8164 18.6531 18.633 18.3091 18.3634 18.0391C18.0938 17.769 17.7502 17.585 17.376 17.5103C17.0018 17.4356 16.6139 17.4736 16.2613 17.6195C15.9087 17.7653 15.6073 18.0125 15.3953 18.3297C15.1832 18.6469 15.07 19.0199 15.07 19.4015C15.07 19.9124 15.2727 20.4024 15.6336 20.7639C15.9945 21.1255 16.4841 21.3291 16.995 21.33ZM25.6645 21.33C26.0465 21.3328 26.4207 21.222 26.7397 21.0118C27.0587 20.8016 27.308 20.5014 27.4562 20.1493C27.6043 19.7971 27.6445 19.4089 27.5716 19.0339C27.4988 18.6589 27.3163 18.314 27.0471 18.0429C26.778 17.7718 26.4344 17.5867 26.0599 17.5111C25.6854 17.4356 25.297 17.473 24.9438 17.6185C24.5906 17.764 24.2885 18.0112 24.076 18.3286C23.8635 18.6461 23.75 19.0195 23.75 19.4015C23.7491 19.9108 23.95 20.3998 24.3089 20.7612C24.6677 21.1227 25.1552 21.3272 25.6645 21.33Z" fill="black"/>
<path fill-rule="evenodd" clip-rule="evenodd" d="M16.4 19.524C16.5434 19.5247 16.6839 19.4828 16.8035 19.4036C16.9231 19.3244 17.0165 19.2115 17.0718 19.0792C17.1272 18.9469 17.1421 18.8011 17.1145 18.6603C17.0869 18.5195 17.0182 18.3901 16.917 18.2884C16.8159 18.1868 16.6868 18.1174 16.5461 18.0892C16.4055 18.0609 16.2597 18.0751 16.1271 18.1298C15.9945 18.1845 15.8811 18.2774 15.8013 18.3966C15.7216 18.5158 15.679 18.6561 15.679 18.7995C15.679 18.991 15.7548 19.1748 15.89 19.3106C16.0251 19.4463 16.2085 19.5231 16.4 19.524ZM25.0695 19.524C25.2129 19.5247 25.3534 19.4828 25.473 19.4036C25.5926 19.3244 25.686 19.2115 25.7413 19.0792C25.7967 18.9469 25.8116 18.8011 25.784 18.6603C25.7564 18.5195 25.6877 18.3901 25.5865 18.2884C25.4854 18.1868 25.3563 18.1174 25.2156 18.0892C25.075 18.0609 24.9291 18.0751 24.7966 18.1298C24.664 18.1845 24.5506 18.2774 24.4708 18.3966C24.3911 18.5158 24.3485 18.6561 24.3485 18.7995C24.3485 18.9898 24.4234 19.1725 24.557 19.3081C24.6906 19.4437 24.8722 19.5212 25.0625 19.524H25.0695Z" fill="white"/>
</g>
<g opacity="0.7">
<mask id="path-17-outside-1_1_56" maskUnits="userSpaceOnUse" x="16.9789" y="14.979" width="21" height="21" fill="black">
<rect fill="white" x="16.9789" y="14.979" width="21" height="21"/>
<path fill-rule="evenodd" clip-rule="evenodd" d="M21.9961 18.1882C21.7172 17.9092 21.265 17.9092 20.9861 18.1882L20.1886 18.9859C19.9097 19.2649 19.9097 19.7172 20.1886 19.9962L26.011 25.8201L20.1882 31.6419C19.9092 31.9209 19.9092 32.3731 20.1882 32.652L20.9858 33.4495C21.2648 33.7285 21.7171 33.7285 21.9961 33.4495L27.8185 27.6281L33.6387 33.4498C33.9176 33.7288 34.3698 33.7288 34.6487 33.4498L35.4462 32.6521C35.7251 32.3731 35.7251 31.9208 35.4462 31.6418L29.6264 25.8205L35.4491 19.9988C35.7281 19.7199 35.7281 19.2677 35.4491 18.9887L34.6514 18.1912C34.3724 17.9123 33.9201 17.9123 33.6412 18.1912L27.8189 24.0125L21.9961 18.1882Z"/>
</mask>
<path fill-rule="evenodd" clip-rule="evenodd" d="M21.9961 18.1882C21.7172 17.9092 21.265 17.9092 20.9861 18.1882L20.1886 18.9859C19.9097 19.2649 19.9097 19.7172 20.1886 19.9962L26.011 25.8201L20.1882 31.6419C19.9092 31.9209 19.9092 32.3731 20.1882 32.652L20.9858 33.4495C21.2648 33.7285 21.7171 33.7285 21.9961 33.4495L27.8185 27.6281L33.6387 33.4498C33.9176 33.7288 34.3698 33.7288 34.6487 33.4498L35.4462 32.6521C35.7251 32.3731 35.7251 31.9208 35.4462 31.6418L29.6264 25.8205L35.4491 19.9988C35.7281 19.7199 35.7281 19.2677 35.4491 18.9887L34.6514 18.1912C34.3724 17.9123 33.9201 17.9123 33.6412 18.1912L27.8189 24.0125L21.9961 18.1882Z" fill="url(#paint1_linear_1_56)"/>
<path d="M20.9861 18.1882L19.4706 16.6732L19.4706 16.6732L20.9861 18.1882ZM21.9961 18.1882L23.5115 16.6732L23.5115 16.6732L21.9961 18.1882ZM20.1886 18.9859L18.6731 17.4709L20.1886 18.9859ZM20.1886 19.9962L18.6731 21.5112L18.6731 21.5112L20.1886 19.9962ZM26.011 25.8201L27.5261 27.3355L29.0414 25.8204L27.5264 24.3051L26.011 25.8201ZM20.1882 31.6419L21.7033 33.1573L21.7033 33.1573L20.1882 31.6419ZM20.1882 32.652L21.7033 31.1367L21.7033 31.1367L20.1882 32.652ZM20.9858 33.4495L19.4707 34.9649L19.4707 34.9649L20.9858 33.4495ZM21.9961 33.4495L23.5112 34.9649L23.5112 34.9649L21.9961 33.4495ZM27.8185 27.6281L29.3339 26.1131L27.8188 24.5976L26.3034 26.1128L27.8185 27.6281ZM33.6387 33.4498L32.1232 34.9649L32.1232 34.9649L33.6387 33.4498ZM34.6487 33.4498L33.1333 31.9348L33.1333 31.9348L34.6487 33.4498ZM35.4462 32.6521L33.9308 31.1371L33.9308 31.1371L35.4462 32.6521ZM35.4462 31.6418L36.9616 30.1268L36.9616 30.1268L35.4462 31.6418ZM29.6264 25.8205L28.1113 24.3052L26.596 25.8202L28.111 27.3355L29.6264 25.8205ZM35.4491 19.9988L33.934 18.4835L33.934 18.4835L35.4491 19.9988ZM35.4491 18.9887L33.934 20.5041L33.934 20.5041L35.4491 18.9887ZM34.6514 18.1912L36.1665 16.6759L36.1665 16.6759L34.6514 18.1912ZM33.6412 18.1912L35.1563 19.7066L35.1563 19.7066L33.6412 18.1912ZM27.8189 24.0125L26.3035 25.5275L27.8186 27.043L29.334 25.5279L27.8189 24.0125ZM22.5015 19.7032C21.9435 20.2613 21.0386 20.2613 20.4807 19.7032L23.5115 16.6732C22.3957 15.5571 20.5864 15.5571 19.4706 16.6732L22.5015 19.7032ZM21.704 20.5009L22.5015 19.7032L19.4706 16.6732L18.6731 17.4709L21.704 20.5009ZM21.704 18.4812C22.2617 19.039 22.2617 19.9431 21.704 20.5009L18.6731 17.4709C17.5577 18.5866 17.5577 20.3954 18.6731 21.5112L21.704 18.4812ZM27.5264 24.3051L21.704 18.4812L18.6731 21.5112L24.4955 27.3351L27.5264 24.3051ZM21.7033 33.1573L27.5261 27.3355L24.4959 24.3048L18.6731 30.1266L21.7033 33.1573ZM21.7033 31.1367C22.2613 31.6946 22.2613 32.5994 21.7033 33.1573L18.6731 30.1266C17.5571 31.2424 17.5571 33.0516 18.6731 34.1674L21.7033 31.1367ZM22.5009 31.9342L21.7033 31.1367L18.6731 34.1674L19.4707 34.9649L22.5009 31.9342ZM20.481 31.9342C21.0388 31.3764 21.9431 31.3764 22.5009 31.9342L19.4707 34.9649C20.5865 36.0805 22.3954 36.0805 23.5112 34.9649L20.481 31.9342ZM26.3034 26.1128L20.481 31.9342L23.5112 34.9649L29.3336 29.1435L26.3034 26.1128ZM35.1541 31.9348L29.3339 26.1131L26.3031 29.1431L32.1232 34.9649L35.1541 31.9348ZM33.1333 31.9348C33.6912 31.3767 34.5961 31.3767 35.1541 31.9348L32.1232 34.9649C33.239 36.0809 35.0483 36.0809 36.1641 34.9648L33.1333 31.9348ZM33.9308 31.1371L33.1333 31.9348L36.1641 34.9649L36.9616 34.1671L33.9308 31.1371ZM33.9308 33.1569C33.3731 32.599 33.3731 31.6949 33.9308 31.1371L36.9616 34.1671C38.0771 33.0514 38.0771 31.2426 36.9616 30.1268L33.9308 33.1569ZM28.111 27.3355L33.9308 33.1569L36.9616 30.1268L31.1418 24.3055L28.111 27.3355ZM33.934 18.4835L28.1113 24.3052L31.1415 27.3359L36.9642 21.5142L33.934 18.4835ZM33.934 20.5041C33.3759 19.9462 33.3759 19.0414 33.934 18.4835L36.9642 21.5142C38.0802 20.3984 38.0802 18.5892 36.9642 17.4734L33.934 20.5041ZM33.1363 19.7066L33.934 20.5041L36.9642 17.4734L36.1665 16.6759L33.1363 19.7066ZM35.1563 19.7066C34.5984 20.2643 33.6941 20.2643 33.1363 19.7066L36.1665 16.6759C35.0507 15.5603 33.2419 15.5603 32.1261 16.6759L35.1563 19.7066ZM29.334 25.5279L35.1563 19.7066L32.1261 16.6759L26.3038 22.4972L29.334 25.5279ZM20.4807 19.7032L26.3035 25.5275L29.3343 22.4975L23.5115 16.6732L20.4807 19.7032Z" fill="black" mask="url(#path-17-outside-1_1_56)"/>
</g>
</g>
<g filter="url(#filter1_d_1_56)">
<path d="M45.7805 26.5007L42.3515 14.1371H44.3135L46.7223 23.7116H46.837L49.3423 14.1371H51.2862L53.7915 23.7177H53.9062L56.3089 14.1371H58.277L54.8419 26.5007H52.9645L50.3625 17.24H50.266L47.664 26.5007H45.7805ZM62.8258 26.6878C61.9565 26.6878 61.1978 26.4886 60.5499 26.0902C59.9019 25.6917 59.3988 25.1343 59.0406 24.418C58.6824 23.7016 58.5033 22.8645 58.5033 21.9066C58.5033 20.9447 58.6824 20.1036 59.0406 19.3832C59.3988 18.6627 59.9019 18.1033 60.5499 17.7049C61.1978 17.3065 61.9565 17.1072 62.8258 17.1072C63.6951 17.1072 64.4537 17.3065 65.1017 17.7049C65.7497 18.1033 66.2528 18.6627 66.6109 19.3832C66.9691 20.1036 67.1482 20.9447 67.1482 21.9066C67.1482 22.8645 66.9691 23.7016 66.6109 24.418C66.2528 25.1343 65.7497 25.6917 65.1017 26.0902C64.4537 26.4886 63.6951 26.6878 62.8258 26.6878ZM62.8318 25.1726C63.3953 25.1726 63.8621 25.0237 64.2324 24.7258C64.6027 24.428 64.8763 24.0316 65.0534 23.5366C65.2345 23.0415 65.3251 22.4962 65.3251 21.9006C65.3251 21.3089 65.2345 20.7656 65.0534 20.2706C64.8763 19.7715 64.6027 19.3711 64.2324 19.0692C63.8621 18.7674 63.3953 18.6165 62.8318 18.6165C62.2644 18.6165 61.7935 18.7674 61.4192 19.0692C61.0489 19.3711 60.7732 19.7715 60.5921 20.2706C60.415 20.7656 60.3265 21.3089 60.3265 21.9006C60.3265 22.4962 60.415 23.0415 60.5921 23.5366C60.7732 24.0316 61.0489 24.428 61.4192 24.7258C61.7935 25.0237 62.2644 25.1726 62.8318 25.1726ZM70.9681 20.995V26.5007H69.1631V17.228H70.8957V18.7372H71.0104C71.2237 18.2462 71.5577 17.8518 72.0125 17.554C72.4713 17.2561 73.0488 17.1072 73.7451 17.1072C74.3769 17.1072 74.9303 17.24 75.4052 17.5057C75.8801 17.7673 76.2484 18.1577 76.51 18.6768C76.7716 19.196 76.9024 19.8379 76.9024 20.6026V26.5007H75.0974V20.8199C75.0974 20.1478 74.9223 19.6226 74.5721 19.2443C74.222 18.862 73.7411 18.6708 73.1293 18.6708C72.7108 18.6708 72.3385 18.7614 72.0125 18.9425C71.6905 19.1236 71.435 19.3892 71.2458 19.7393C71.0607 20.0855 70.9681 20.504 70.9681 20.995ZM80.8747 14.1371V15.2962C80.8747 15.6382 80.8103 15.9985 80.6815 16.3768C80.5568 16.7511 80.3797 17.1113 80.1503 17.4574C79.9209 17.8035 79.6512 18.1013 79.3413 18.3508L78.4479 17.7109C78.6853 17.3648 78.8906 16.9966 79.0636 16.6062C79.2407 16.2158 79.3292 15.7851 79.3292 15.3143V14.1371H80.8747ZM87.304 17.228V18.6768H82.239V17.228H87.304ZM83.5974 15.0064H85.4024V23.778C85.4024 24.1282 85.4547 24.3918 85.5594 24.5689C85.664 24.7419 85.7988 24.8607 85.9638 24.9251C86.1329 24.9854 86.316 25.0156 86.5132 25.0156C86.6581 25.0156 86.7849 25.0056 86.8935 24.9854C87.0022 24.9653 87.0867 24.9492 87.1471 24.9371L87.4731 26.4283C87.3684 26.4685 87.2195 26.5087 87.0263 26.549C86.8331 26.5933 86.5917 26.6174 86.3019 26.6214C85.827 26.6295 85.3843 26.545 84.9738 26.3679C84.5633 26.1908 84.2312 25.9171 83.9777 25.5469C83.7241 25.1766 83.5974 24.7118 83.5974 24.1523V15.0064ZM100.748 19.4918L99.1123 19.7816C99.0438 19.5723 98.9352 19.3731 98.7863 19.1839C98.6414 18.9948 98.4442 18.8398 98.1947 18.7191C97.9451 18.5984 97.6332 18.538 97.2589 18.538C96.7478 18.538 96.3212 18.6527 95.9791 18.8821C95.637 19.1075 95.466 19.3993 95.466 19.7574C95.466 20.0673 95.5807 20.3169 95.8101 20.506C96.0395 20.6952 96.4097 20.8501 96.9209 20.9709L98.3939 21.3089C99.2471 21.5061 99.883 21.81 100.302 22.2205C100.72 22.631 100.929 23.1643 100.929 23.8203C100.929 24.3757 100.768 24.8707 100.446 25.3054C100.128 25.736 99.6838 26.0741 99.1123 26.3196C98.5448 26.5651 97.8868 26.6878 97.1382 26.6878C96.0998 26.6878 95.2527 26.4665 94.5966 26.0238C93.9406 25.577 93.5382 24.9432 93.3893 24.1221L95.1339 23.8565C95.2426 24.3113 95.466 24.6554 95.804 24.8888C96.1421 25.1182 96.5828 25.2329 97.1261 25.2329C97.7177 25.2329 98.1906 25.1102 98.5448 24.8647C98.899 24.6152 99.076 24.3113 99.076 23.9531C99.076 23.6633 98.9674 23.4199 98.75 23.2226C98.5367 23.0254 98.2087 22.8765 97.766 22.7759L96.1964 22.4318C95.3311 22.2346 94.6912 21.9207 94.2767 21.49C93.8662 21.0594 93.6609 20.5141 93.6609 19.854C93.6609 19.3067 93.8139 18.8278 94.1197 18.4172C94.4256 18.0067 94.8482 17.6868 95.3875 17.4574C95.9268 17.2239 96.5446 17.1072 97.2408 17.1072C98.2429 17.1072 99.0318 17.3246 99.6073 17.7592C100.183 18.1899 100.563 18.7674 100.748 19.4918ZM108.788 22.6552V17.228H110.599V26.5007H108.824V24.8949H108.728C108.514 25.3899 108.172 25.8024 107.701 26.1324C107.234 26.4584 106.653 26.6214 105.957 26.6214C105.361 26.6214 104.834 26.4906 104.375 26.229C103.92 25.9634 103.562 25.571 103.3 25.0518C103.043 24.5327 102.914 23.8907 102.914 23.1261V17.228H104.719V22.9087C104.719 23.5406 104.894 24.0437 105.244 24.418C105.594 24.7922 106.049 24.9794 106.609 24.9794C106.947 24.9794 107.283 24.8949 107.617 24.7258C107.955 24.5568 108.235 24.3012 108.456 23.9591C108.681 23.6171 108.792 23.1824 108.788 22.6552ZM113.024 29.978V17.228H114.787V18.7312H114.938C115.043 18.538 115.194 18.3146 115.391 18.0611C115.588 17.8075 115.862 17.5862 116.212 17.397C116.562 17.2038 117.025 17.1072 117.6 17.1072C118.349 17.1072 119.017 17.2964 119.605 17.6747C120.192 18.053 120.653 18.5984 120.987 19.3107C121.325 20.0231 121.494 20.8803 121.494 21.8824C121.494 22.8846 121.327 23.7438 120.993 24.4602C120.659 25.1726 120.2 25.7219 119.617 26.1083C119.033 26.4906 118.367 26.6818 117.618 26.6818C117.055 26.6818 116.594 26.5872 116.236 26.3981C115.882 26.2089 115.604 25.9876 115.403 25.734C115.202 25.4805 115.047 25.2551 114.938 25.0579H114.829V29.978H113.024ZM114.793 21.8643C114.793 22.5163 114.888 23.0878 115.077 23.5788C115.266 24.0698 115.54 24.4542 115.898 24.7319C116.256 25.0056 116.695 25.1424 117.214 25.1424C117.753 25.1424 118.204 24.9995 118.566 24.7138C118.928 24.424 119.202 24.0316 119.387 23.5366C119.576 23.0415 119.671 22.4841 119.671 21.8643C119.671 21.2526 119.578 20.7032 119.393 20.2163C119.212 19.7293 118.939 19.3449 118.572 19.0632C118.21 18.7815 117.757 18.6406 117.214 18.6406C116.691 18.6406 116.248 18.7754 115.886 19.0451C115.528 19.3147 115.256 19.691 115.071 20.174C114.886 20.6569 114.793 21.2204 114.793 21.8643ZM123.517 29.978V17.228H125.279V18.7312H125.43C125.535 18.538 125.686 18.3146 125.883 18.0611C126.08 17.8075 126.354 17.5862 126.704 17.397C127.054 17.2038 127.517 17.1072 128.093 17.1072C128.841 17.1072 129.509 17.2964 130.097 17.6747C130.684 18.053 131.145 18.5984 131.479 19.3107C131.817 20.0231 131.986 20.8803 131.986 21.8824C131.986 22.8846 131.819 23.7438 131.485 24.4602C131.151 25.1726 130.692 25.7219 130.109 26.1083C129.525 26.4906 128.859 26.6818 128.111 26.6818C127.547 26.6818 127.086 26.5872 126.728 26.3981C126.374 26.2089 126.096 25.9876 125.895 25.734C125.694 25.4805 125.539 25.2551 125.43 25.0579H125.322V29.978H123.517ZM125.285 21.8643C125.285 22.5163 125.38 23.0878 125.569 23.5788C125.758 24.0698 126.032 24.4542 126.39 24.7319C126.748 25.0056 127.187 25.1424 127.706 25.1424C128.245 25.1424 128.696 24.9995 129.058 24.7138C129.421 24.424 129.694 24.0316 129.879 23.5366C130.069 23.0415 130.163 22.4841 130.163 21.8643C130.163 21.2526 130.071 20.7032 129.886 20.2163C129.704 19.7293 129.431 19.3449 129.064 19.0632C128.702 18.7815 128.25 18.6406 127.706 18.6406C127.183 18.6406 126.74 18.7754 126.378 19.0451C126.02 19.3147 125.748 19.691 125.563 20.174C125.378 20.6569 125.285 21.2204 125.285 21.8643ZM137.915 26.6878C137.045 26.6878 136.287 26.4886 135.639 26.0902C134.991 25.6917 134.488 25.1343 134.129 24.418C133.771 23.7016 133.592 22.8645 133.592 21.9066C133.592 20.9447 133.771 20.1036 134.129 19.3832C134.488 18.6627 134.991 18.1033 135.639 17.7049C136.287 17.3065 137.045 17.1072 137.915 17.1072C138.784 17.1072 139.543 17.3065 140.191 17.7049C140.839 18.1033 141.342 18.6627 141.7 19.3832C142.058 20.1036 142.237 20.9447 142.237 21.9066C142.237 22.8645 142.058 23.7016 141.7 24.418C141.342 25.1343 140.839 25.6917 140.191 26.0902C139.543 26.4886 138.784 26.6878 137.915 26.6878ZM137.921 25.1726C138.484 25.1726 138.951 25.0237 139.321 24.7258C139.692 24.428 139.965 24.0316 140.142 23.5366C140.323 23.0415 140.414 22.4962 140.414 21.9006C140.414 21.3089 140.323 20.7656 140.142 20.2706C139.965 19.7715 139.692 19.3711 139.321 19.0692C138.951 18.7674 138.484 18.6165 137.921 18.6165C137.353 18.6165 136.882 18.7674 136.508 19.0692C136.138 19.3711 135.862 19.7715 135.681 20.2706C135.504 20.7656 135.415 21.3089 135.415 21.9006C135.415 22.4962 135.504 23.0415 135.681 23.5366C135.862 24.0316 136.138 24.428 136.508 24.7258C136.882 25.0237 137.353 25.1726 137.921 25.1726ZM144.252 26.5007V17.228H145.997V18.701H146.093C146.262 18.2019 146.56 17.8095 146.987 17.5238C147.417 17.234 147.904 17.0891 148.448 17.0891C148.56 17.0891 148.693 17.0931 148.846 17.1012C149.003 17.1092 149.126 17.1193 149.214 17.1314V18.8579C149.142 18.8378 149.013 18.8157 148.828 18.7915C148.643 18.7634 148.458 18.7493 148.272 18.7493C147.846 18.7493 147.466 18.8398 147.132 19.0209C146.801 19.198 146.54 19.4455 146.347 19.7635C146.154 20.0774 146.057 20.4356 146.057 20.8381V26.5007H144.252ZM155.653 17.228V18.6768H150.588V17.228H155.653ZM151.946 15.0064H153.751V23.778C153.751 24.1282 153.803 24.3918 153.908 24.5689C154.013 24.7419 154.147 24.8607 154.312 24.9251C154.481 24.9854 154.665 25.0156 154.862 25.0156C155.007 25.0156 155.133 25.0056 155.242 24.9854C155.351 24.9653 155.435 24.9492 155.496 24.9371L155.822 26.4283C155.717 26.4685 155.568 26.5087 155.375 26.549C155.182 26.5933 154.94 26.6174 154.651 26.6214C154.176 26.6295 153.733 26.545 153.322 26.3679C152.912 26.1908 152.58 25.9171 152.326 25.5469C152.073 25.1766 151.946 24.7118 151.946 24.1523V15.0064Z" fill="#E8E8E8"/>
<path d="M161.937 26.0007V13.6371H167.093C168.018 13.6371 168.793 13.7679 169.417 14.0295C170.045 14.2911 170.516 14.6573 170.829 15.1282C171.147 15.5991 171.306 16.1444 171.306 16.7642C171.306 17.2351 171.208 17.6556 171.011 18.0259C170.813 18.3922 170.542 18.696 170.196 18.9375C169.849 19.179 169.449 19.348 168.994 19.4446V19.5653C169.493 19.5895 169.954 19.7243 170.377 19.9698C170.803 20.2153 171.145 20.5574 171.403 20.9961C171.661 21.4307 171.789 21.9459 171.789 22.5415C171.789 23.2056 171.62 23.7992 171.282 24.3224C170.944 24.8416 170.455 25.2521 169.815 25.554C169.175 25.8518 168.399 26.0007 167.485 26.0007H161.937ZM164.925 23.592H166.773C167.421 23.592 167.898 23.4692 168.203 23.2237C168.513 22.9782 168.668 22.6361 168.668 22.1974C168.668 21.8795 168.594 21.6058 168.445 21.3764C168.296 21.143 168.085 20.9639 167.811 20.8391C167.537 20.7103 167.209 20.6459 166.827 20.6459H164.925V23.592ZM164.925 18.7202H166.579C166.905 18.7202 167.195 18.6658 167.449 18.5572C167.702 18.4485 167.9 18.2915 168.04 18.0863C168.185 17.881 168.258 17.6335 168.258 17.3437C168.258 16.9292 168.111 16.6032 167.817 16.3658C167.523 16.1283 167.127 16.0096 166.628 16.0096H164.925V18.7202ZM179.209 21.9982V16.728H182.155V26.0007H179.342V24.2741H179.245C179.04 24.8416 178.69 25.2924 178.195 25.6264C177.704 25.9564 177.11 26.1214 176.414 26.1214C175.782 26.1214 175.226 25.9765 174.747 25.6868C174.269 25.397 173.896 24.9925 173.631 24.4734C173.365 23.9502 173.23 23.3384 173.226 22.6381V16.728H176.178V22.0586C176.182 22.5617 176.315 22.9581 176.577 23.2479C176.838 23.5376 177.194 23.6825 177.645 23.6825C177.939 23.6825 178.203 23.6181 178.436 23.4893C178.673 23.3565 178.861 23.1654 178.997 22.9158C179.138 22.6623 179.209 22.3564 179.209 21.9982ZM186.986 20.7123V26.0007H184.034V16.728H186.841V18.4304H186.944C187.149 17.8629 187.499 17.4182 187.994 17.0962C188.489 16.7702 189.079 16.6072 189.763 16.6072C190.415 16.6072 190.98 16.7541 191.459 17.0479C191.942 17.3377 192.316 17.7442 192.582 18.2674C192.852 18.7866 192.985 19.3943 192.98 20.0905V26.0007H190.028V20.6701C190.032 20.1549 189.902 19.7525 189.636 19.4627C189.374 19.1729 189.01 19.028 188.543 19.028C188.233 19.028 187.96 19.0965 187.722 19.2333C187.489 19.3661 187.308 19.5573 187.179 19.8068C187.054 20.0563 186.99 20.3582 186.986 20.7123Z" fill="#FAF0DF"/>
</g>
</g>
<rect x="1.07143" y="1.07143" width="199.858" height="37.8585" rx="6.92857" stroke="white" stroke-opacity="0.15" stroke-width="2.14286"/>
<defs>
<filter id="filter0_d_1_56" x="2.39972" y="0.39972" width="41.0017" height="41.0025" filterUnits="userSpaceOnUse" color-interpolation-filters="sRGB">
<feFlood flood-opacity="0" result="BackgroundImageFix"/>
<feColorMatrix in="SourceAlpha" type="matrix" values="0 0 0 0 0 0 0 0 0 0 0 0 0 0 0 0 0 0 127 0" result="hardAlpha"/>
<feOffset/>
<feGaussianBlur stdDeviation="2.80014"/>
<feComposite in2="hardAlpha" operator="out"/>
<feColorMatrix type="matrix" values="0 0 0 0 0 0 0 0 0 0 0 0 0 0 0 0 0 0 0.25 0"/>
<feBlend mode="normal" in2="BackgroundImageFix" result="effect1_dropShadow_1_56"/>
<feBlend mode="normal" in="SourceGraphic" in2="effect1_dropShadow_1_56" result="shape"/>
</filter>
<filter id="filter1_d_1_56" x="36.2871" y="3.78642" width="163.429" height="32.4286" filterUnits="userSpaceOnUse" color-interpolation-filters="sRGB">
<feFlood flood-opacity="0" result="BackgroundImageFix"/>
<feColorMatrix in="SourceAlpha" type="matrix" values="0 0 0 0 0 0 0 0 0 0 0 0 0 0 0 0 0 0 127 0" result="hardAlpha"/>
<feOffset/>
<feGaussianBlur stdDeviation="2.85714"/>
<feComposite in2="hardAlpha" operator="out"/>
<feColorMatrix type="matrix" values="0 0 0 0 0 0 0 0 0 0 0 0 0 0 0 0 0 0 0.25 0"/>
<feBlend mode="normal" in2="BackgroundImageFix" result="effect1_dropShadow_1_56"/>
<feBlend mode="normal" in="SourceGraphic" in2="effect1_dropShadow_1_56" result="shape"/>
</filter>
<linearGradient id="paint0_linear_1_56" x1="101.001" y1="0" x2="101.001" y2="40.0014" gradientUnits="userSpaceOnUse">
<stop stop-color="#2C1B1B"/>
<stop offset="1" stop-color="#1F1414"/>
</linearGradient>
<linearGradient id="paint1_linear_1_56" x1="27.8186" y1="17.979" x2="27.8186" y2="33.6591" gradientUnits="userSpaceOnUse">
<stop stop-color="#FF0000"/>
<stop offset="1" stop-color="#CC0000"/>
</linearGradient>
<clipPath id="clip0_1_56">
<rect width="202.001" height="40.0014" rx="8" fill="white"/>
</clipPath>
<clipPath id="clip1_1_56">
<rect width="28" height="24.5" fill="white" transform="translate(8 7.75)"/>
</clipPath>
</defs>
</svg>
