<svg width="40" height="40" viewBox="0 0 40 40" fill="none" xmlns="http://www.w3.org/2000/svg">
<g clip-path="url(#clip0_1_68)">
<rect width="40" height="40" rx="8" fill="url(#paint0_linear_1_68)"/>
<g filter="url(#filter0_d_1_68)">
<g clip-path="url(#clip1_1_68)">
<path d="M30.8815 15.009C30.8255 14.9495 30.766 14.89 30.7065 14.834C30.647 14.778 30.591 14.715 30.5315 14.659C30.472 14.603 30.416 14.54 30.3565 14.484C30.297 14.428 30.241 14.365 30.1815 14.309C30.122 14.253 30.066 14.19 30.0065 14.134C29.947 14.078 29.891 14.015 29.8315 13.959C29.772 13.903 29.716 13.84 29.6565 13.784C31.3926 15.4901 32.3871 17.8112 32.425 20.245C32.425 26.0445 26.538 30.7625 19.3 30.7625C15.247 30.7625 11.621 29.282 9.2095 26.9615L9.3845 27.1365L9.5595 27.3115L9.7345 27.4865L9.9095 27.6615L10.0845 27.8365L10.2595 28.0115L10.4345 28.1865C12.8425 30.605 16.549 32.1625 20.7 32.1625C27.938 32.1625 33.825 27.4445 33.825 21.6625C33.825 19.1915 32.761 16.85 30.8815 15.009Z" fill="black"/>
<path d="M31.55 20.245C31.55 25.5685 26.0655 29.884 19.3 29.884C12.5345 29.884 7.05 25.5685 7.05 20.245C7.05 16.9445 9.15 14.029 12.377 12.3C15.604 10.571 17.613 8.8 19.3 8.8C20.987 8.8 22.429 10.2455 26.223 12.3C29.45 14.029 31.55 16.9445 31.55 20.245Z" fill="#FBF0DF"/>
<path d="M31.55 20.245C31.5483 19.5611 31.4541 18.8806 31.27 18.222C30.3145 29.877 16.0975 30.437 10.508 26.951C13.0207 28.8985 16.1213 29.9329 19.3 29.884C26.055 29.884 31.55 25.5615 31.55 20.245Z" fill="#F6DECE"/>
<path d="M14.5855 11.6595C16.15 10.7215 18.229 8.961 20.273 8.9575C19.9586 8.85586 19.6305 8.80275 19.3 8.8C18.453 8.8 17.55 9.2375 16.4125 9.8955C16.017 10.1265 15.6075 10.382 15.1735 10.648C14.358 11.152 13.4235 11.7225 12.3735 12.293C9.0415 14.0955 7.05 17.067 7.05 20.245C7.05 20.385 7.05 20.525 7.05 20.6615C9.171 13.168 13.0245 12.5975 14.5855 11.6595Z" fill="#FFFEFC"/>
<path fill-rule="evenodd" clip-rule="evenodd" d="M18.292 9.6855C18.2969 10.5119 18.1234 11.3297 17.7833 12.0829C17.4432 12.8361 16.9446 13.5071 16.3215 14.05C16.2235 14.1375 16.3005 14.3055 16.4265 14.2565C17.606 13.798 19.1985 12.426 18.5265 9.6575C18.4985 9.5 18.292 9.542 18.292 9.6855ZM19.0865 9.6855C19.5148 10.3843 19.7868 11.1673 19.8841 11.9811C19.9814 12.7948 19.9015 13.62 19.65 14.4C19.608 14.5225 19.7585 14.6275 19.8425 14.526C20.609 13.546 21.2775 11.6 19.2755 9.5C19.174 9.409 19.0165 9.549 19.0865 9.6715V9.6855ZM20.0525 9.626C20.7231 10.1008 21.2842 10.7139 21.6978 11.4239C22.1113 12.134 22.3679 12.9244 22.45 13.742C22.4465 13.7715 22.4544 13.8012 22.4721 13.8249C22.4899 13.8487 22.5161 13.8647 22.5454 13.8697C22.5747 13.8746 22.6047 13.8681 22.6293 13.8515C22.6539 13.8349 22.6712 13.8095 22.6775 13.7805C22.9995 12.559 22.8175 10.4765 20.168 9.395C20.028 9.339 19.937 9.528 20.0525 9.612V9.626ZM13.5915 13.266C14.3892 13.0277 15.1278 12.624 15.7592 12.0813C16.3906 11.5385 16.9006 10.8689 17.256 10.116C17.319 9.99 17.5185 10.039 17.487 10.179C16.8815 12.979 14.855 13.5635 13.595 13.4865C13.462 13.49 13.4655 13.3045 13.5915 13.266Z" fill="#CCBEA7"/>
<path d="M19.3 30.7625C12.062 30.7625 6.175 26.0445 6.175 20.245C6.175 16.745 8.338 13.4795 11.9605 11.523C13.0105 10.963 13.91 10.3995 14.7115 9.906C15.1525 9.633 15.569 9.3775 15.9715 9.1395C17.2 8.4115 18.25 7.925 19.3 7.925C20.35 7.925 21.267 8.345 22.415 9.024C22.765 9.2235 23.115 9.4405 23.4895 9.6785C24.361 10.2175 25.3445 10.8265 26.6395 11.523C30.262 13.4795 32.425 16.7415 32.425 20.245C32.425 26.0445 26.538 30.7625 19.3 30.7625ZM19.3 8.8C18.453 8.8 17.55 9.2375 16.4125 9.8955C16.017 10.1265 15.6075 10.382 15.1735 10.648C14.358 11.152 13.4235 11.7225 12.3735 12.293C9.0415 14.0955 7.05 17.067 7.05 20.245C7.05 25.5615 12.545 29.8875 19.3 29.8875C26.055 29.8875 31.55 25.5615 31.55 20.245C31.55 17.067 29.5585 14.0955 26.223 12.3C24.9 11.6 23.8675 10.942 23.031 10.424C22.6495 10.1895 22.2995 9.9725 21.981 9.78C20.9205 9.15 20.147 8.8 19.3 8.8Z" fill="black"/>
<path d="M21.7675 22.8C21.6103 23.444 21.2524 24.0213 20.7455 24.4485C20.365 24.8174 19.8723 25.0489 19.3455 25.1065C18.8028 25.058 18.2929 24.8259 17.9 24.4485C17.3983 24.0193 17.0454 23.4422 16.892 22.8C16.8869 22.7619 16.8906 22.7231 16.9028 22.6866C16.9151 22.6502 16.9355 22.617 16.9625 22.5896C16.9895 22.5622 17.0225 22.5414 17.0588 22.5287C17.0951 22.5161 17.1338 22.5119 17.172 22.5165H21.491C21.5289 22.5125 21.5672 22.5171 21.6031 22.53C21.639 22.5429 21.6714 22.5638 21.6981 22.5911C21.7247 22.6184 21.7448 22.6514 21.7568 22.6876C21.7688 22.7238 21.7725 22.7622 21.7675 22.8Z" fill="#B71422"/>
<path d="M17.9 24.4765C18.2921 24.8541 18.8002 25.0884 19.342 25.1415C19.8826 25.0877 20.3893 24.8534 20.7805 24.4765C20.9056 24.3599 21.0226 24.2347 21.1305 24.102C20.9149 23.8574 20.6515 23.6595 20.3566 23.5205C20.0616 23.3814 19.7414 23.3042 19.4155 23.2935C19.0668 23.3018 18.7253 23.3946 18.4205 23.5641C18.1156 23.7336 17.8565 23.9747 17.6655 24.2665C17.746 24.34 17.816 24.41 17.9 24.4765Z" fill="#FF6164"/>
<path d="M17.956 24.2C18.1295 23.9757 18.3516 23.7937 18.6056 23.6676C18.8596 23.5415 19.1389 23.4746 19.4225 23.472C19.9466 23.4875 20.446 23.6985 20.8225 24.0635C20.903 23.976 20.98 23.885 21.0535 23.794C20.6082 23.3699 20.0198 23.1288 19.405 23.1185C19.0764 23.1213 18.7526 23.1969 18.4567 23.3397C18.1608 23.4825 17.9001 23.689 17.6935 23.9445C17.7763 24.0344 17.8639 24.1197 17.956 24.2Z" fill="black"/>
<path d="M19.3315 25.3165C18.7483 25.2654 18.1994 25.0187 17.774 24.6165C17.2322 24.1583 16.8509 23.539 16.6855 22.849C16.6736 22.7876 16.6757 22.7243 16.6914 22.6637C16.7071 22.6031 16.7362 22.5469 16.7765 22.499C16.8245 22.4411 16.885 22.3949 16.9536 22.3639C17.0221 22.333 17.0968 22.3182 17.172 22.3205H21.491C21.5661 22.3189 21.6405 22.3341 21.7089 22.365C21.7774 22.3959 21.838 22.4417 21.8865 22.499C21.9264 22.547 21.955 22.6034 21.9701 22.664C21.9853 22.7246 21.9866 22.7878 21.974 22.849C21.8086 23.539 21.4273 24.1583 20.8855 24.6165C20.461 25.018 19.9135 25.2646 19.3315 25.3165ZM17.172 22.7265C17.116 22.7265 17.102 22.751 17.0985 22.758C17.2464 23.3564 17.5811 23.8921 18.054 24.2875C18.3998 24.6282 18.8494 24.8437 19.3315 24.9C19.8124 24.8444 20.2615 24.6315 20.609 24.2945C21.0804 23.8984 21.4138 23.3628 21.561 22.765C21.5534 22.7538 21.5428 22.7449 21.5304 22.7394C21.5181 22.7338 21.5044 22.7318 21.491 22.7335L17.172 22.7265Z" fill="black"/>
<path d="M24.627 23.017C25.7578 23.017 26.6745 22.478 26.6745 21.813C26.6745 21.148 25.7578 20.609 24.627 20.609C23.4962 20.609 22.5795 21.148 22.5795 21.813C22.5795 22.478 23.4962 23.017 24.627 23.017Z" fill="#FEBBD0"/>
<path d="M14.0325 23.017C15.1633 23.017 16.08 22.478 16.08 21.813C16.08 21.148 15.1633 20.609 14.0325 20.609C12.9017 20.609 11.985 21.148 11.985 21.813C11.985 22.478 12.9017 23.017 14.0325 23.017Z" fill="#FEBBD0"/>
<path fill-rule="evenodd" clip-rule="evenodd" d="M14.995 21.33C15.3766 21.3307 15.7498 21.2182 16.0674 21.0067C16.385 20.7952 16.6327 20.4943 16.7792 20.1419C16.9257 19.7896 16.9644 19.4017 16.8904 19.0274C16.8164 18.6531 16.633 18.3091 16.3634 18.0391C16.0938 17.769 15.7502 17.585 15.376 17.5103C15.0018 17.4356 14.6139 17.4736 14.2613 17.6195C13.9087 17.7653 13.6073 18.0125 13.3953 18.3297C13.1832 18.6469 13.07 19.0199 13.07 19.4015C13.07 19.9124 13.2727 20.4024 13.6336 20.7639C13.9945 21.1255 14.4841 21.3291 14.995 21.33ZM23.6645 21.33C24.0465 21.3328 24.4207 21.222 24.7397 21.0118C25.0587 20.8016 25.308 20.5014 25.4562 20.1493C25.6043 19.7971 25.6445 19.4089 25.5716 19.0339C25.4988 18.6589 25.3163 18.314 25.0471 18.0429C24.778 17.7718 24.4344 17.5867 24.0599 17.5111C23.6854 17.4356 23.297 17.473 22.9438 17.6185C22.5906 17.764 22.2885 18.0112 22.076 18.3286C21.8635 18.6461 21.75 19.0195 21.75 19.4015C21.7491 19.9108 21.95 20.3998 22.3089 20.7612C22.6677 21.1227 23.1552 21.3272 23.6645 21.33Z" fill="black"/>
<path fill-rule="evenodd" clip-rule="evenodd" d="M14.4 19.524C14.5434 19.5247 14.6839 19.4828 14.8035 19.4036C14.9231 19.3244 15.0165 19.2115 15.0718 19.0792C15.1272 18.9469 15.1421 18.8011 15.1145 18.6603C15.0869 18.5195 15.0182 18.3901 14.917 18.2884C14.8159 18.1868 14.6868 18.1174 14.5461 18.0892C14.4055 18.0609 14.2596 18.0751 14.1271 18.1298C13.9945 18.1845 13.8811 18.2774 13.8013 18.3966C13.7216 18.5158 13.679 18.6561 13.679 18.7995C13.679 18.991 13.7548 19.1748 13.89 19.3106C14.0251 19.4463 14.2085 19.5231 14.4 19.524ZM23.0695 19.524C23.2129 19.5247 23.3534 19.4828 23.473 19.4036C23.5926 19.3244 23.686 19.2115 23.7413 19.0792C23.7967 18.9469 23.8116 18.8011 23.784 18.6603C23.7564 18.5195 23.6877 18.3901 23.5865 18.2884C23.4854 18.1868 23.3563 18.1174 23.2156 18.0892C23.075 18.0609 22.9291 18.0751 22.7966 18.1298C22.664 18.1845 22.5506 18.2774 22.4708 18.3966C22.3911 18.5158 22.3485 18.6561 22.3485 18.7995C22.3485 18.9898 22.4234 19.1725 22.557 19.3081C22.6906 19.4437 22.8722 19.5212 23.0625 19.524H23.0695Z" fill="white"/>
</g>
<g opacity="0.7">
<mask id="path-17-outside-1_1_68" maskUnits="userSpaceOnUse" x="14.9789" y="14.979" width="21" height="21" fill="black">
<rect fill="white" x="14.9789" y="14.979" width="21" height="21"/>
<path fill-rule="evenodd" clip-rule="evenodd" d="M19.9961 18.1882C19.7172 17.9092 19.265 17.9092 18.9861 18.1882L18.1886 18.9859C17.9097 19.2649 17.9097 19.7172 18.1886 19.9962L24.011 25.8201L18.1882 31.6419C17.9092 31.9209 17.9092 32.3731 18.1882 32.652L18.9858 33.4495C19.2648 33.7285 19.7171 33.7285 19.9961 33.4495L25.8185 27.6281L31.6387 33.4498C31.9176 33.7288 32.3698 33.7288 32.6487 33.4498L33.4462 32.6521C33.7251 32.3731 33.7251 31.9208 33.4462 31.6418L27.6264 25.8205L33.4491 19.9988C33.7281 19.7199 33.7281 19.2677 33.4491 18.9887L32.6514 18.1912C32.3724 17.9123 31.9201 17.9123 31.6412 18.1912L25.8189 24.0125L19.9961 18.1882Z"/>
</mask>
<path fill-rule="evenodd" clip-rule="evenodd" d="M19.9961 18.1882C19.7172 17.9092 19.265 17.9092 18.9861 18.1882L18.1886 18.9859C17.9097 19.2649 17.9097 19.7172 18.1886 19.9962L24.011 25.8201L18.1882 31.6419C17.9092 31.9209 17.9092 32.3731 18.1882 32.652L18.9858 33.4495C19.2648 33.7285 19.7171 33.7285 19.9961 33.4495L25.8185 27.6281L31.6387 33.4498C31.9176 33.7288 32.3698 33.7288 32.6487 33.4498L33.4462 32.6521C33.7251 32.3731 33.7251 31.9208 33.4462 31.6418L27.6264 25.8205L33.4491 19.9988C33.7281 19.7199 33.7281 19.2677 33.4491 18.9887L32.6514 18.1912C32.3724 17.9123 31.9201 17.9123 31.6412 18.1912L25.8189 24.0125L19.9961 18.1882Z" fill="url(#paint1_linear_1_68)"/>
<path d="M18.9861 18.1882L17.4706 16.6732L17.4706 16.6732L18.9861 18.1882ZM19.9961 18.1882L21.5115 16.6732L21.5115 16.6732L19.9961 18.1882ZM18.1886 18.9859L16.6732 17.4709L18.1886 18.9859ZM18.1886 19.9962L16.6732 21.5112L16.6732 21.5112L18.1886 19.9962ZM24.011 25.8201L25.5261 27.3355L27.0414 25.8204L25.5264 24.3051L24.011 25.8201ZM18.1882 31.6419L19.7033 33.1573L19.7033 33.1573L18.1882 31.6419ZM18.1882 32.652L19.7033 31.1367L19.7033 31.1367L18.1882 32.652ZM18.9858 33.4495L17.4707 34.9649L17.4707 34.9649L18.9858 33.4495ZM19.9961 33.4495L21.5112 34.9649L21.5112 34.9649L19.9961 33.4495ZM25.8185 27.6281L27.3339 26.1131L25.8188 24.5976L24.3034 26.1128L25.8185 27.6281ZM31.6387 33.4498L30.1232 34.9649L30.1232 34.9649L31.6387 33.4498ZM32.6487 33.4498L31.1333 31.9348L31.1333 31.9348L32.6487 33.4498ZM33.4462 32.6521L31.9308 31.1371L31.9308 31.1371L33.4462 32.6521ZM33.4462 31.6418L34.9616 30.1268L34.9616 30.1268L33.4462 31.6418ZM27.6264 25.8205L26.1113 24.3052L24.596 25.8202L26.111 27.3355L27.6264 25.8205ZM33.4491 19.9988L31.934 18.4835L31.934 18.4835L33.4491 19.9988ZM33.4491 18.9887L31.934 20.5041L31.934 20.5041L33.4491 18.9887ZM32.6514 18.1912L34.1665 16.6759L34.1665 16.6759L32.6514 18.1912ZM31.6412 18.1912L33.1563 19.7066L33.1563 19.7066L31.6412 18.1912ZM25.8189 24.0125L24.3035 25.5275L25.8186 27.043L27.334 25.5279L25.8189 24.0125ZM20.5015 19.7032C19.9435 20.2613 19.0386 20.2613 18.4807 19.7032L21.5115 16.6732C20.3957 15.5571 18.5864 15.5571 17.4706 16.6732L20.5015 19.7032ZM19.704 20.5009L20.5015 19.7032L17.4706 16.6732L16.6732 17.4709L19.704 20.5009ZM19.704 18.4812C20.2617 19.039 20.2617 19.9431 19.704 20.5009L16.6732 17.4709C15.5577 18.5866 15.5577 20.3954 16.6732 21.5112L19.704 18.4812ZM25.5264 24.3051L19.704 18.4812L16.6732 21.5112L22.4956 27.3351L25.5264 24.3051ZM19.7033 33.1573L25.5261 27.3355L22.4959 24.3048L16.6731 30.1266L19.7033 33.1573ZM19.7033 31.1367C20.2613 31.6946 20.2613 32.5994 19.7033 33.1573L16.6731 30.1266C15.5571 31.2424 15.5571 33.0516 16.6731 34.1674L19.7033 31.1367ZM20.5009 31.9342L19.7033 31.1367L16.6731 34.1674L17.4707 34.9649L20.5009 31.9342ZM18.481 31.9342C19.0388 31.3764 19.9431 31.3764 20.5009 31.9342L17.4707 34.9649C18.5865 36.0805 20.3954 36.0805 21.5112 34.9649L18.481 31.9342ZM24.3034 26.1128L18.481 31.9342L21.5112 34.9649L27.3336 29.1435L24.3034 26.1128ZM33.1541 31.9348L27.3339 26.1131L24.3031 29.1431L30.1232 34.9649L33.1541 31.9348ZM31.1333 31.9348C31.6912 31.3767 32.5961 31.3767 33.1541 31.9348L30.1232 34.9649C31.239 36.0809 33.0483 36.0809 34.1641 34.9648L31.1333 31.9348ZM31.9308 31.1371L31.1333 31.9348L34.1641 34.9649L34.9616 34.1671L31.9308 31.1371ZM31.9308 33.1569C31.3731 32.599 31.3731 31.6949 31.9308 31.1371L34.9616 34.1671C36.0771 33.0514 36.0771 31.2426 34.9616 30.1268L31.9308 33.1569ZM26.111 27.3355L31.9308 33.1569L34.9616 30.1268L29.1418 24.3055L26.111 27.3355ZM31.934 18.4835L26.1113 24.3052L29.1415 27.3359L34.9642 21.5142L31.934 18.4835ZM31.934 20.5041C31.3759 19.9462 31.3759 19.0414 31.934 18.4835L34.9642 21.5142C36.0802 20.3984 36.0802 18.5892 34.9642 17.4734L31.934 20.5041ZM31.1363 19.7066L31.934 20.5041L34.9642 17.4734L34.1665 16.6759L31.1363 19.7066ZM33.1563 19.7066C32.5984 20.2643 31.6942 20.2643 31.1363 19.7066L34.1665 16.6759C33.0507 15.5603 31.2419 15.5603 30.1261 16.6759L33.1563 19.7066ZM27.334 25.5279L33.1563 19.7066L30.1261 16.6759L24.3038 22.4972L27.334 25.5279ZM18.4807 19.7032L24.3035 25.5275L27.3343 22.4975L21.5115 16.6732L18.4807 19.7032Z" fill="black" mask="url(#path-17-outside-1_1_68)"/>
</g>
</g>
</g>
<rect x="1.05" y="1.05" width="37.9" height="37.9" rx="6.95" stroke="white" stroke-opacity="0.15" stroke-width="2.1"/>
<defs>
<filter id="filter0_d_1_68" x="2" y="2" width="37.8012" height="37.8019" filterUnits="userSpaceOnUse" color-interpolation-filters="sRGB">
<feFlood flood-opacity="0" result="BackgroundImageFix"/>
<feColorMatrix in="SourceAlpha" type="matrix" values="0 0 0 0 0 0 0 0 0 0 0 0 0 0 0 0 0 0 127 0" result="hardAlpha"/>
<feOffset/>
<feGaussianBlur stdDeviation="2"/>
<feComposite in2="hardAlpha" operator="out"/>
<feColorMatrix type="matrix" values="0 0 0 0 0 0 0 0 0 0 0 0 0 0 0 0 0 0 0.25 0"/>
<feBlend mode="normal" in2="BackgroundImageFix" result="effect1_dropShadow_1_68"/>
<feBlend mode="normal" in="SourceGraphic" in2="effect1_dropShadow_1_68" result="shape"/>
</filter>
<linearGradient id="paint0_linear_1_68" x1="20" y1="0" x2="20" y2="40" gradientUnits="userSpaceOnUse">
<stop stop-color="#2C1B1B"/>
<stop offset="1" stop-color="#1F1414"/>
</linearGradient>
<linearGradient id="paint1_linear_1_68" x1="25.8186" y1="17.979" x2="25.8186" y2="33.6591" gradientUnits="userSpaceOnUse">
<stop stop-color="#FF0000"/>
<stop offset="1" stop-color="#CC0000"/>
</linearGradient>
<clipPath id="clip0_1_68">
<rect width="40" height="40" rx="8" fill="white"/>
</clipPath>
<clipPath id="clip1_1_68">
<rect width="28" height="24.5" fill="white" transform="translate(6 7.75)"/>
</clipPath>
</defs>
</svg>
