<svg width="180" height="56" viewBox="0 0 180 56" fill="none" xmlns="http://www.w3.org/2000/svg">
<g clip-path="url(#clip0_1_50)">
<rect width="180" height="56" rx="8" fill="url(#paint0_linear_1_50)"/>
<g filter="url(#filter0_d_1_50)">
<g clip-path="url(#clip1_1_50)">
<path d="M47.545 20.87C47.465 20.785 47.38 20.7 47.295 20.62C47.21 20.54 47.13 20.45 47.045 20.37C46.96 20.29 46.88 20.2 46.795 20.12C46.71 20.04 46.63 19.95 46.545 19.87C46.46 19.79 46.38 19.7 46.295 19.62C46.21 19.54 46.13 19.45 46.045 19.37C45.96 19.29 45.88 19.2 45.795 19.12C48.2751 21.5574 49.6959 24.8731 49.75 28.35C49.75 36.635 41.34 43.375 31 43.375C25.21 43.375 20.03 41.26 16.585 37.945L16.835 38.195L17.085 38.445L17.335 38.695L17.585 38.945L17.835 39.195L18.085 39.445L18.335 39.695C21.775 43.15 27.07 45.375 33 45.375C43.34 45.375 51.75 38.635 51.75 30.375C51.75 26.845 50.23 23.5 47.545 20.87Z" fill="black"/>
<path d="M48.5 28.35C48.5 35.955 40.665 42.12 31 42.12C21.335 42.12 13.5 35.955 13.5 28.35C13.5 23.635 16.5 19.47 21.11 17C25.72 14.53 28.59 12 31 12C33.41 12 35.47 14.065 40.89 17C45.5 19.47 48.5 23.635 48.5 28.35Z" fill="#FBF0DF"/>
<path d="M48.5 28.35C48.4976 27.373 48.363 26.4009 48.1 25.46C46.735 42.11 26.425 42.91 18.44 37.93C22.0295 40.7122 26.459 42.1899 31 42.12C40.65 42.12 48.5 35.945 48.5 28.35Z" fill="#F6DECE"/>
<path d="M24.265 16.085C26.5 14.745 29.47 12.23 32.39 12.225C31.9408 12.0798 31.4721 12.0039 31 12C29.79 12 28.5 12.625 26.875 13.565C26.31 13.895 25.725 14.26 25.105 14.64C23.94 15.36 22.605 16.175 21.105 16.99C16.345 19.565 13.5 23.81 13.5 28.35C13.5 28.55 13.5 28.75 13.5 28.945C16.53 18.24 22.035 17.425 24.265 16.085Z" fill="#FFFEFC"/>
<path fill-rule="evenodd" clip-rule="evenodd" d="M29.56 13.265C29.567 14.4456 29.3191 15.6138 28.8333 16.6899C28.3475 17.7659 27.6352 18.7244 26.745 19.5C26.605 19.625 26.715 19.865 26.895 19.795C28.58 19.14 30.855 17.18 29.895 13.225C29.855 13 29.56 13.06 29.56 13.265ZM30.695 13.265C31.3068 14.2632 31.6955 15.3819 31.8344 16.5444C31.9734 17.7069 31.8593 18.8857 31.5 20C31.44 20.175 31.655 20.325 31.775 20.18C32.87 18.78 33.825 16 30.965 13C30.82 12.87 30.595 13.07 30.695 13.245V13.265ZM32.075 13.18C33.0331 13.8583 33.8345 14.7341 34.4254 15.7484C35.0162 16.7628 35.3827 17.892 35.5 19.06C35.4949 19.1021 35.5063 19.1445 35.5316 19.1785C35.557 19.2124 35.5945 19.2353 35.6363 19.2424C35.6781 19.2495 35.721 19.2402 35.7561 19.2165C35.7913 19.1927 35.8159 19.1564 35.825 19.115C36.285 17.37 36.025 14.395 32.24 12.85C32.04 12.77 31.91 13.04 32.075 13.16V13.18ZM22.845 18.38C23.9846 18.0395 25.0398 17.4629 25.9418 16.6875C26.8437 15.9122 27.5723 14.9556 28.08 13.88C28.17 13.7 28.455 13.77 28.41 13.97C27.545 17.97 24.65 18.805 22.85 18.695C22.66 18.7 22.665 18.435 22.845 18.38Z" fill="#CCBEA7"/>
<path d="M31 43.375C20.66 43.375 12.25 36.635 12.25 28.35C12.25 23.35 15.34 18.685 20.515 15.89C22.015 15.09 23.3 14.285 24.445 13.58C25.075 13.19 25.67 12.825 26.245 12.485C28 11.445 29.5 10.75 31 10.75C32.5 10.75 33.81 11.35 35.45 12.32C35.95 12.605 36.45 12.915 36.985 13.255C38.23 14.025 39.635 14.895 41.485 15.89C46.66 18.685 49.75 23.345 49.75 28.35C49.75 36.635 41.34 43.375 31 43.375ZM31 12C29.79 12 28.5 12.625 26.875 13.565C26.31 13.895 25.725 14.26 25.105 14.64C23.94 15.36 22.605 16.175 21.105 16.99C16.345 19.565 13.5 23.81 13.5 28.35C13.5 35.945 21.35 42.125 31 42.125C40.65 42.125 48.5 35.945 48.5 28.35C48.5 23.81 45.655 19.565 40.89 17C39 16 37.525 15.06 36.33 14.32C35.785 13.985 35.285 13.675 34.83 13.4C33.315 12.5 32.21 12 31 12Z" fill="black"/>
<path d="M34.525 32C34.3004 32.92 33.7891 33.7447 33.065 34.355C32.5214 34.882 31.8176 35.2127 31.065 35.295C30.2898 35.2258 29.5613 34.8942 29 34.355C28.2833 33.7418 27.7792 32.9174 27.56 32C27.5527 31.9455 27.558 31.8901 27.5755 31.838C27.5929 31.7859 27.6221 31.7385 27.6607 31.6994C27.6993 31.6603 27.7464 31.6306 27.7982 31.6125C27.8501 31.5944 27.9054 31.5884 27.96 31.595H34.13C34.1842 31.5892 34.2389 31.5958 34.2902 31.6143C34.3414 31.6328 34.3878 31.6626 34.4258 31.7016C34.4638 31.7406 34.4925 31.7877 34.5097 31.8394C34.5269 31.8911 34.5321 31.946 34.525 32Z" fill="#B71422"/>
<path d="M29 34.395C29.5602 34.9345 30.286 35.2692 31.06 35.345C31.8322 35.2681 32.5561 34.9335 33.115 34.395C33.2938 34.2284 33.4608 34.0496 33.615 33.86C33.307 33.5106 32.9307 33.2278 32.5094 33.0292C32.0881 32.8306 31.6306 32.7203 31.165 32.705C30.6668 32.7168 30.179 32.8495 29.7435 33.0916C29.308 33.3338 28.9379 33.6781 28.665 34.095C28.78 34.2 28.88 34.3 29 34.395Z" fill="#FF6164"/>
<path d="M29.08 34C29.3279 33.6796 29.6452 33.4195 30.0081 33.2394C30.3709 33.0593 30.7699 32.9637 31.175 32.96C31.9238 32.9821 32.6372 33.2835 33.175 33.805C33.29 33.68 33.4 33.55 33.505 33.42C32.8689 32.8142 32.0283 32.4698 31.15 32.455C30.6806 32.459 30.218 32.567 29.7952 32.771C29.3725 32.975 29.0002 33.2701 28.705 33.635C28.8232 33.7634 28.9484 33.8853 29.08 34Z" fill="black"/>
<path d="M31.045 35.595C30.2118 35.522 29.4277 35.1696 28.82 34.595C28.046 33.9404 27.5012 33.0558 27.265 32.07C27.2481 31.9822 27.2509 31.8918 27.2734 31.8053C27.2959 31.7188 27.3375 31.6384 27.395 31.57C27.4635 31.4873 27.55 31.4213 27.648 31.3771C27.7459 31.3329 27.8526 31.3116 27.96 31.315H34.13C34.2372 31.3127 34.3436 31.3345 34.4413 31.3786C34.5391 31.4227 34.6258 31.4881 34.695 31.57C34.752 31.6386 34.7928 31.7192 34.8144 31.8058C34.8361 31.8923 34.838 31.9826 34.82 32.07C34.5837 33.0558 34.039 33.9404 33.265 34.595C32.6586 35.1686 31.8764 35.5209 31.045 35.595ZM27.96 31.895C27.88 31.895 27.86 31.93 27.855 31.94C28.0664 32.7948 28.5445 33.5602 29.22 34.125C29.714 34.6117 30.3562 34.9196 31.045 35C31.732 34.9205 32.3735 34.6164 32.87 34.135C33.5434 33.5692 34.0197 32.8041 34.23 31.95C34.2191 31.934 34.204 31.9214 34.1863 31.9134C34.1687 31.9055 34.1492 31.9026 34.13 31.905L27.96 31.895Z" fill="black"/>
<path d="M38.61 32.31C40.2254 32.31 41.535 31.5399 41.535 30.59C41.535 29.6401 40.2254 28.87 38.61 28.87C36.9946 28.87 35.685 29.6401 35.685 30.59C35.685 31.5399 36.9946 32.31 38.61 32.31Z" fill="#FEBBD0"/>
<path d="M23.475 32.31C25.0904 32.31 26.4 31.5399 26.4 30.59C26.4 29.6401 25.0904 28.87 23.475 28.87C21.8596 28.87 20.55 29.6401 20.55 30.59C20.55 31.5399 21.8596 32.31 23.475 32.31Z" fill="#FEBBD0"/>
<path fill-rule="evenodd" clip-rule="evenodd" d="M24.85 29.9C25.3951 29.901 25.9282 29.7403 26.382 29.4381C26.8357 29.136 27.1896 28.7061 27.3989 28.2028C27.6081 27.6994 27.6634 27.1453 27.5577 26.6106C27.4519 26.0759 27.1899 25.5845 26.8049 25.1987C26.4198 24.8129 25.9289 24.55 25.3943 24.4433C24.8598 24.3366 24.3056 24.3909 23.8019 24.5992C23.2982 24.8076 22.8676 25.1607 22.5647 25.6139C22.2617 26.0671 22.1 26.5999 22.1 27.145C22.1 27.8748 22.3896 28.5748 22.9052 29.0913C23.4207 29.6078 24.1202 29.8987 24.85 29.9ZM37.235 29.9C37.7807 29.904 38.3153 29.7458 38.771 29.4455C39.2267 29.1451 39.5829 28.7163 39.7945 28.2132C40.0061 27.7102 40.0635 27.1556 39.9595 26.6199C39.8555 26.0842 39.5947 25.5914 39.2102 25.2041C38.8257 24.8168 38.3348 24.5524 37.7999 24.4445C37.2649 24.3366 36.71 24.3899 36.2054 24.5979C35.7008 24.8058 35.2694 25.1589 34.9657 25.6123C34.6621 26.0658 34.5 26.5993 34.5 27.145C34.4987 27.8726 34.7858 28.5711 35.2984 29.0875C35.811 29.6039 36.5074 29.896 37.235 29.9Z" fill="black"/>
<path fill-rule="evenodd" clip-rule="evenodd" d="M24 27.32C24.2049 27.321 24.4055 27.2611 24.5764 27.148C24.7472 27.0349 24.8807 26.8736 24.9598 26.6846C25.0389 26.4955 25.0601 26.2873 25.0207 26.0862C24.9814 25.8851 24.8832 25.7002 24.7386 25.5549C24.5941 25.4097 24.4097 25.3106 24.2088 25.2703C24.0079 25.2299 23.7995 25.2501 23.6101 25.3283C23.4207 25.4065 23.2587 25.5392 23.1448 25.7095C23.0308 25.8798 22.97 26.0801 22.97 26.285C22.97 26.5586 23.0784 26.8211 23.2714 27.0151C23.4644 27.209 23.7264 27.3187 24 27.32ZM36.385 27.32C36.5899 27.321 36.7905 27.2611 36.9614 27.148C37.1322 27.0349 37.2657 26.8736 37.3448 26.6846C37.4239 26.4955 37.4451 26.2873 37.4057 26.0862C37.3663 25.8851 37.2682 25.7002 37.1236 25.5549C36.9791 25.4097 36.7947 25.3106 36.5938 25.2703C36.3929 25.2299 36.1845 25.2501 35.9951 25.3283C35.8057 25.4065 35.6437 25.5392 35.5298 25.7095C35.4158 25.8798 35.355 26.0801 35.355 26.285C35.355 26.5569 35.462 26.8179 35.6528 27.0116C35.8437 27.2053 36.1031 27.3161 36.375 27.32H36.385Z" fill="white"/>
</g>
<g opacity="0.7">
<mask id="path-17-outside-1_1_50" maskUnits="userSpaceOnUse" x="25.986" y="21.986" width="28" height="28" fill="black">
<rect fill="white" x="25.986" y="21.986" width="28" height="28"/>
<path fill-rule="evenodd" clip-rule="evenodd" d="M31.778 25.1952C31.4991 24.9162 31.0469 24.9162 30.768 25.1952L29.1958 26.7678C28.9169 27.0467 28.9169 27.4991 29.1958 27.778L37.73 36.3144L29.1952 44.8478C28.9162 45.1267 28.9162 45.5789 29.1952 45.8579L30.7677 47.4301C31.0466 47.709 31.4989 47.709 31.7779 47.4301L40.3121 38.8973L48.8431 47.4305C49.122 47.7095 49.5742 47.7095 49.8531 47.4305L51.4253 45.858C51.7042 45.579 51.7042 45.1267 51.4253 44.8477L42.8949 36.315L51.4295 27.7819C51.7084 27.5029 51.7084 27.0507 51.4295 26.7718L49.857 25.1996C49.578 24.9206 49.1257 24.9206 48.8467 25.1996L40.3127 33.7322L31.778 25.1952Z"/>
</mask>
<path fill-rule="evenodd" clip-rule="evenodd" d="M31.778 25.1952C31.4991 24.9162 31.0469 24.9162 30.768 25.1952L29.1958 26.7678C28.9169 27.0467 28.9169 27.4991 29.1958 27.778L37.73 36.3144L29.1952 44.8478C28.9162 45.1267 28.9162 45.5789 29.1952 45.8579L30.7677 47.4301C31.0466 47.709 31.4989 47.709 31.7779 47.4301L40.3121 38.8973L48.8431 47.4305C49.122 47.7095 49.5742 47.7095 49.8531 47.4305L51.4253 45.858C51.7042 45.579 51.7042 45.1267 51.4253 44.8477L42.8949 36.315L51.4295 27.7819C51.7084 27.5029 51.7084 27.0507 51.4295 26.7718L49.857 25.1996C49.578 24.9206 49.1257 24.9206 48.8467 25.1996L40.3127 33.7322L31.778 25.1952Z" fill="url(#paint1_linear_1_50)"/>
<path d="M30.768 25.1952L29.2525 23.6802L29.2525 23.6802L30.768 25.1952ZM31.778 25.1952L30.2626 26.7102L30.2626 26.7102L31.778 25.1952ZM29.1958 26.7678L27.6804 25.2527L27.6804 25.2527L29.1958 26.7678ZM29.1958 27.778L27.6804 29.2931L27.6804 29.2931L29.1958 27.778ZM37.73 36.3144L39.2451 37.8298L40.7604 36.3148L39.2454 34.7994L37.73 36.3144ZM29.1952 44.8478L27.6801 43.3324L27.6801 43.3324L29.1952 44.8478ZM29.1952 45.8579L27.6801 47.3732L27.6801 47.3732L29.1952 45.8579ZM30.7677 47.4301L29.2526 48.9454L29.2526 48.9454L30.7677 47.4301ZM31.7779 47.4301L30.2628 45.9147L30.2628 45.9147L31.7779 47.4301ZM40.3121 38.8973L41.8276 37.3823L40.3125 35.8668L38.797 37.3819L40.3121 38.8973ZM48.8431 47.4305L47.3277 48.9456L47.3277 48.9456L48.8431 47.4305ZM49.8531 47.4305L51.3686 48.9456L51.3686 48.9456L49.8531 47.4305ZM51.4253 45.858L52.9407 47.373L52.9407 47.373L51.4253 45.858ZM51.4253 44.8477L52.9407 43.3327L52.9407 43.3326L51.4253 44.8477ZM42.8949 36.315L41.3798 34.7997L39.8645 36.3147L41.3794 37.83L42.8949 36.315ZM51.4295 27.7819L49.9144 26.2665L49.9144 26.2665L51.4295 27.7819ZM51.4295 26.7718L49.9144 28.2871L49.9144 28.2871L51.4295 26.7718ZM49.857 25.1996L51.3721 23.6842L51.3721 23.6842L49.857 25.1996ZM48.8467 25.1996L47.3316 23.6842L47.3316 23.6842L48.8467 25.1996ZM40.3127 33.7322L38.7973 35.2472L40.3124 36.7627L41.8278 35.2475L40.3127 33.7322ZM32.2834 26.7102C31.7254 27.2684 30.8205 27.2684 30.2626 26.7102L33.2934 23.6802C32.1776 22.5641 30.3683 22.5641 29.2525 23.6802L32.2834 26.7102ZM30.7113 28.2828L32.2834 26.7102L29.2525 23.6802L27.6804 25.2527L30.7113 28.2828ZM30.7113 26.263C31.2689 26.8208 31.2689 27.725 30.7113 28.2828L27.6804 25.2527C26.5649 26.3685 26.5649 28.1773 27.6804 29.2931L30.7113 26.263ZM39.2454 34.7994L30.7113 26.263L27.6804 29.2931L36.2145 37.8295L39.2454 34.7994ZM30.7103 46.3631L39.2451 37.8298L36.2149 34.7991L27.6801 43.3324L30.7103 46.3631ZM30.7103 44.3425C31.2683 44.9004 31.2683 45.8052 30.7103 46.3631L27.6801 43.3324C26.5641 44.4482 26.5641 46.2574 27.6801 47.3732L30.7103 44.3425ZM32.2828 45.9147L30.7103 44.3425L27.6801 47.3732L29.2526 48.9454L32.2828 45.9147ZM30.2628 45.9147C30.8207 45.357 31.7249 45.357 32.2828 45.9147L29.2526 48.9454C30.3683 50.061 32.1772 50.061 33.293 48.9454L30.2628 45.9147ZM38.797 37.3819L30.2628 45.9147L33.293 48.9454L41.8272 40.4126L38.797 37.3819ZM50.3585 45.9155L41.8276 37.3823L38.7967 40.4123L47.3277 48.9456L50.3585 45.9155ZM48.3377 45.9155C48.8957 45.3574 49.8006 45.3574 50.3585 45.9155L47.3277 48.9456C48.4435 50.0616 50.2528 50.0616 51.3686 48.9456L48.3377 45.9155ZM49.9098 44.3429L48.3377 45.9155L51.3686 48.9456L52.9407 47.373L49.9098 44.3429ZM49.9098 46.3627C49.3522 45.8049 49.3522 44.9007 49.9098 44.3429L52.9407 47.373C54.0562 46.2572 54.0562 44.4484 52.9407 43.3327L49.9098 46.3627ZM41.3794 37.83L49.9098 46.3627L52.9407 43.3326L44.4103 34.8L41.3794 37.83ZM49.9144 26.2665L41.3798 34.7997L44.41 37.8304L52.9446 29.2972L49.9144 26.2665ZM49.9144 28.2871C49.3563 27.7292 49.3563 26.8244 49.9144 26.2665L52.9446 29.2972C54.0605 28.1814 54.0605 26.3722 52.9446 25.2564L49.9144 28.2871ZM48.3419 26.7149L49.9144 28.2871L52.9446 25.2564L51.3721 23.6842L48.3419 26.7149ZM50.3618 26.7149C49.804 27.2727 48.8997 27.2727 48.3419 26.7149L51.3721 23.6842C50.2563 22.5686 48.4474 22.5686 47.3316 23.6842L50.3618 26.7149ZM41.8278 35.2475L50.3618 26.7149L47.3316 23.6842L38.7976 32.2168L41.8278 35.2475ZM30.2626 26.7102L38.7973 35.2472L41.8281 32.2171L33.2934 23.6802L30.2626 26.7102Z" fill="black" mask="url(#path-17-outside-1_1_50)"/>
</g>
</g>
<g filter="url(#filter1_d_1_50)">
<path d="M63.5568 24.5L60.3295 12.8636H62.1761L64.4432 21.875H64.5511L66.9091 12.8636H68.7386L71.0966 21.8807H71.2045L73.4659 12.8636H75.3182L72.0852 24.5H70.3182L67.8693 15.7841H67.7784L65.3295 24.5H63.5568ZM79.5994 24.6761C78.7812 24.6761 78.0672 24.4886 77.4574 24.1136C76.8475 23.7386 76.374 23.214 76.0369 22.5398C75.6998 21.8655 75.5312 21.0776 75.5312 20.1761C75.5312 19.2708 75.6998 18.4792 76.0369 17.8011C76.374 17.1231 76.8475 16.5966 77.4574 16.2216C78.0672 15.8466 78.7812 15.6591 79.5994 15.6591C80.4176 15.6591 81.1316 15.8466 81.7415 16.2216C82.3513 16.5966 82.8248 17.1231 83.1619 17.8011C83.499 18.4792 83.6676 19.2708 83.6676 20.1761C83.6676 21.0776 83.499 21.8655 83.1619 22.5398C82.8248 23.214 82.3513 23.7386 81.7415 24.1136C81.1316 24.4886 80.4176 24.6761 79.5994 24.6761ZM79.6051 23.25C80.1354 23.25 80.5748 23.1098 80.9233 22.8295C81.2718 22.5492 81.5293 22.1761 81.696 21.7102C81.8665 21.2443 81.9517 20.7311 81.9517 20.1704C81.9517 19.6136 81.8665 19.1023 81.696 18.6364C81.5293 18.1667 81.2718 17.7898 80.9233 17.5057C80.5748 17.2216 80.1354 17.0795 79.6051 17.0795C79.071 17.0795 78.6278 17.2216 78.2755 17.5057C77.9271 17.7898 77.6676 18.1667 77.4971 18.6364C77.3305 19.1023 77.2471 19.6136 77.2471 20.1704C77.2471 20.7311 77.3305 21.2443 77.4971 21.7102C77.6676 22.1761 77.9271 22.5492 78.2755 22.8295C78.6278 23.1098 79.071 23.25 79.6051 23.25ZM87.2628 19.3182V24.5H85.5639V15.7727H87.1946V17.1932H87.3025C87.5033 16.7311 87.8177 16.3598 88.2457 16.0795C88.6775 15.7992 89.2211 15.6591 89.8764 15.6591C90.4711 15.6591 90.9919 15.7841 91.4389 16.0341C91.8859 16.2803 92.2325 16.6477 92.4787 17.1364C92.7249 17.625 92.848 18.2292 92.848 18.9489V24.5H91.1491V19.1534C91.1491 18.5208 90.9844 18.0265 90.6548 17.6704C90.3253 17.3106 89.8726 17.1307 89.2969 17.1307C88.9029 17.1307 88.5525 17.2159 88.2457 17.3864C87.9427 17.5568 87.7022 17.8068 87.5241 18.1364C87.3499 18.4621 87.2628 18.8561 87.2628 19.3182ZM96.5866 12.8636V13.9545C96.5866 14.2765 96.526 14.6155 96.4048 14.9716C96.2874 15.3239 96.1207 15.6629 95.9048 15.9886C95.6889 16.3144 95.4351 16.5947 95.1434 16.8295L94.3025 16.2273C94.526 15.9015 94.7192 15.5549 94.8821 15.1875C95.0487 14.8201 95.1321 14.4148 95.1321 13.9716V12.8636H96.5866ZM102.638 15.7727V17.1364H97.8707V15.7727H102.638ZM99.1491 13.6818H100.848V21.9375C100.848 22.267 100.897 22.5151 100.996 22.6818C101.094 22.8447 101.221 22.9564 101.376 23.017C101.535 23.0739 101.708 23.1023 101.893 23.1023C102.03 23.1023 102.149 23.0928 102.251 23.0739C102.354 23.0549 102.433 23.0398 102.49 23.0284L102.797 24.4318C102.698 24.4697 102.558 24.5076 102.376 24.5454C102.195 24.5871 101.967 24.6098 101.695 24.6136C101.248 24.6212 100.831 24.5417 100.445 24.375C100.058 24.2083 99.7457 23.9508 99.5071 23.6023C99.2684 23.2538 99.1491 22.8163 99.1491 22.2898V13.6818ZM115.291 17.9034L113.751 18.1761C113.687 17.9792 113.585 17.7917 113.445 17.6136C113.308 17.4356 113.123 17.2898 112.888 17.1761C112.653 17.0625 112.359 17.0057 112.007 17.0057C111.526 17.0057 111.124 17.1136 110.803 17.3295C110.481 17.5417 110.32 17.8163 110.32 18.1534C110.32 18.4451 110.428 18.6799 110.643 18.8579C110.859 19.036 111.208 19.1818 111.689 19.2954L113.075 19.6136C113.878 19.7992 114.477 20.0852 114.871 20.4716C115.265 20.8579 115.462 21.3598 115.462 21.9773C115.462 22.5 115.31 22.9659 115.007 23.375C114.708 23.7803 114.289 24.0985 113.751 24.3295C113.217 24.5606 112.598 24.6761 111.893 24.6761C110.916 24.6761 110.119 24.4678 109.501 24.0511C108.884 23.6307 108.505 23.0341 108.365 22.2614L110.007 22.0114C110.109 22.4394 110.32 22.7633 110.638 22.9829C110.956 23.1989 111.371 23.3068 111.882 23.3068C112.439 23.3068 112.884 23.1913 113.217 22.9602C113.551 22.7254 113.717 22.4394 113.717 22.1023C113.717 21.8295 113.615 21.6004 113.41 21.4148C113.21 21.2292 112.901 21.089 112.484 20.9943L111.007 20.6704C110.193 20.4848 109.59 20.1894 109.2 19.7841C108.814 19.3788 108.621 18.8655 108.621 18.2443C108.621 17.7292 108.765 17.2784 109.053 16.892C109.34 16.5057 109.738 16.2045 110.246 15.9886C110.753 15.7689 111.335 15.6591 111.99 15.6591C112.933 15.6591 113.676 15.8636 114.217 16.2727C114.759 16.678 115.117 17.2216 115.291 17.9034ZM122.858 20.8807V15.7727H124.562V24.5H122.892V22.9886H122.801C122.6 23.4545 122.278 23.8428 121.835 24.1534C121.396 24.4602 120.848 24.6136 120.193 24.6136C119.633 24.6136 119.136 24.4905 118.705 24.2443C118.276 23.9943 117.939 23.625 117.693 23.1364C117.451 22.6477 117.33 22.0436 117.33 21.3239V15.7727H119.028V21.1193C119.028 21.714 119.193 22.1875 119.523 22.5398C119.852 22.892 120.28 23.0682 120.807 23.0682C121.125 23.0682 121.441 22.9886 121.756 22.8295C122.074 22.6704 122.337 22.4299 122.545 22.1079C122.758 21.786 122.862 21.3769 122.858 20.8807ZM126.845 27.7727V15.7727H128.504V17.1875H128.646C128.745 17.0057 128.887 16.7954 129.072 16.5568C129.258 16.3182 129.516 16.1098 129.845 15.9318C130.175 15.75 130.61 15.6591 131.152 15.6591C131.856 15.6591 132.485 15.8371 133.038 16.1932C133.591 16.5492 134.025 17.0625 134.339 17.7329C134.658 18.4034 134.817 19.2102 134.817 20.1534C134.817 21.0966 134.66 21.9053 134.345 22.5795C134.031 23.25 133.599 23.767 133.05 24.1307C132.5 24.4905 131.874 24.6704 131.169 24.6704C130.639 24.6704 130.205 24.5814 129.868 24.4034C129.535 24.2254 129.273 24.017 129.084 23.7784C128.894 23.5398 128.749 23.3276 128.646 23.142H128.544V27.7727H126.845ZM128.51 20.1364C128.51 20.75 128.599 21.2879 128.777 21.75C128.955 22.2121 129.213 22.5739 129.55 22.8352C129.887 23.0928 130.3 23.2216 130.788 23.2216C131.296 23.2216 131.72 23.0871 132.061 22.8182C132.402 22.5454 132.66 22.1761 132.834 21.7102C133.012 21.2443 133.101 20.7197 133.101 20.1364C133.101 19.5606 133.014 19.0436 132.839 18.5852C132.669 18.1269 132.411 17.7651 132.067 17.5C131.726 17.2348 131.3 17.1023 130.788 17.1023C130.296 17.1023 129.879 17.2292 129.538 17.4829C129.201 17.7367 128.946 18.0909 128.771 18.5454C128.597 19 128.51 19.5303 128.51 20.1364ZM136.72 27.7727V15.7727H138.379V17.1875H138.521C138.62 17.0057 138.762 16.7954 138.947 16.5568C139.133 16.3182 139.391 16.1098 139.72 15.9318C140.05 15.75 140.485 15.6591 141.027 15.6591C141.731 15.6591 142.36 15.8371 142.913 16.1932C143.466 16.5492 143.9 17.0625 144.214 17.7329C144.533 18.4034 144.692 19.2102 144.692 20.1534C144.692 21.0966 144.535 21.9053 144.22 22.5795C143.906 23.25 143.474 23.767 142.925 24.1307C142.375 24.4905 141.749 24.6704 141.044 24.6704C140.514 24.6704 140.08 24.5814 139.743 24.4034C139.41 24.2254 139.148 24.017 138.959 23.7784C138.769 23.5398 138.624 23.3276 138.521 23.142H138.419V27.7727H136.72ZM138.385 20.1364C138.385 20.75 138.474 21.2879 138.652 21.75C138.83 22.2121 139.088 22.5739 139.425 22.8352C139.762 23.0928 140.175 23.2216 140.663 23.2216C141.171 23.2216 141.595 23.0871 141.936 22.8182C142.277 22.5454 142.535 22.1761 142.709 21.7102C142.887 21.2443 142.976 20.7197 142.976 20.1364C142.976 19.5606 142.889 19.0436 142.714 18.5852C142.544 18.1269 142.286 17.7651 141.942 17.5C141.601 17.2348 141.175 17.1023 140.663 17.1023C140.171 17.1023 139.754 17.2292 139.413 17.4829C139.076 17.7367 138.821 18.0909 138.646 18.5454C138.472 19 138.385 19.5303 138.385 20.1364ZM150.271 24.6761C149.453 24.6761 148.739 24.4886 148.129 24.1136C147.519 23.7386 147.046 23.214 146.709 22.5398C146.372 21.8655 146.203 21.0776 146.203 20.1761C146.203 19.2708 146.372 18.4792 146.709 17.8011C147.046 17.1231 147.519 16.5966 148.129 16.2216C148.739 15.8466 149.453 15.6591 150.271 15.6591C151.089 15.6591 151.803 15.8466 152.413 16.2216C153.023 16.5966 153.497 17.1231 153.834 17.8011C154.171 18.4792 154.339 19.2708 154.339 20.1761C154.339 21.0776 154.171 21.8655 153.834 22.5398C153.497 23.214 153.023 23.7386 152.413 24.1136C151.803 24.4886 151.089 24.6761 150.271 24.6761ZM150.277 23.25C150.807 23.25 151.247 23.1098 151.595 22.8295C151.944 22.5492 152.201 22.1761 152.368 21.7102C152.538 21.2443 152.624 20.7311 152.624 20.1704C152.624 19.6136 152.538 19.1023 152.368 18.6364C152.201 18.1667 151.944 17.7898 151.595 17.5057C151.247 17.2216 150.807 17.0795 150.277 17.0795C149.743 17.0795 149.3 17.2216 148.947 17.5057C148.599 17.7898 148.339 18.1667 148.169 18.6364C148.002 19.1023 147.919 19.6136 147.919 20.1704C147.919 20.7311 148.002 21.2443 148.169 21.7102C148.339 22.1761 148.599 22.5492 148.947 22.8295C149.3 23.1098 149.743 23.25 150.277 23.25ZM156.236 24.5V15.7727H157.878V17.1591H157.969C158.128 16.6894 158.408 16.3201 158.81 16.0511C159.215 15.7784 159.673 15.642 160.185 15.642C160.291 15.642 160.416 15.6458 160.56 15.6534C160.707 15.661 160.823 15.6704 160.906 15.6818V17.3068C160.838 17.2879 160.717 17.267 160.543 17.2443C160.368 17.2178 160.194 17.2045 160.02 17.2045C159.618 17.2045 159.26 17.2898 158.946 17.4602C158.635 17.6269 158.389 17.8598 158.207 18.1591C158.026 18.4545 157.935 18.7917 157.935 19.1704V24.5H156.236ZM166.966 15.7727V17.1364H162.199V15.7727H166.966ZM163.477 13.6818H165.176V21.9375C165.176 22.267 165.225 22.5151 165.324 22.6818C165.422 22.8447 165.549 22.9564 165.704 23.017C165.864 23.0739 166.036 23.1023 166.222 23.1023C166.358 23.1023 166.477 23.0928 166.579 23.0739C166.682 23.0549 166.761 23.0398 166.818 23.0284L167.125 24.4318C167.026 24.4697 166.886 24.5076 166.704 24.5454C166.523 24.5871 166.295 24.6098 166.023 24.6136C165.576 24.6212 165.159 24.5417 164.773 24.375C164.386 24.2083 164.074 23.9508 163.835 23.6023C163.597 23.2538 163.477 22.8163 163.477 22.2898V13.6818Z" fill="#E8E8E8"/>
<path d="M60.9357 43.5V31.1364H66.0912C67.0169 31.1364 67.7916 31.2672 68.4155 31.5288C69.0433 31.7904 69.5142 32.1566 69.8281 32.6275C70.1461 33.0984 70.305 33.6437 70.305 34.2635C70.305 34.7344 70.2064 35.1549 70.0092 35.5252C69.812 35.8914 69.5403 36.1953 69.1942 36.4368C68.8481 36.6783 68.4477 36.8473 67.9929 36.9439V37.0646C68.4919 37.0888 68.9528 37.2236 69.3753 37.4691C69.8019 37.7146 70.144 38.0567 70.4016 38.4954C70.6592 38.93 70.788 39.4452 70.788 40.0408C70.788 40.7049 70.6189 41.2985 70.2809 41.8217C69.9428 42.3409 69.4538 42.7514 68.8139 43.0533C68.174 43.3511 67.3972 43.5 66.4836 43.5H60.9357ZM63.924 41.0913H65.7713C66.4193 41.0913 66.8962 40.9685 67.202 40.723C67.5119 40.4775 67.6669 40.1354 67.6669 39.6967C67.6669 39.3788 67.5924 39.1051 67.4435 38.8757C67.2946 38.6423 67.0833 38.4632 66.8096 38.3384C66.536 38.2096 66.208 38.1452 65.8256 38.1452H63.924V41.0913ZM63.924 36.2195H65.5781C65.9041 36.2195 66.1939 36.1651 66.4474 36.0565C66.701 35.9478 66.8982 35.7908 67.039 35.5856C67.1839 35.3803 67.2564 35.1328 67.2564 34.843C67.2564 34.4285 67.1095 34.1025 66.8157 33.865C66.5219 33.6276 66.1255 33.5089 65.6264 33.5089H63.924V36.2195ZM78.2074 39.4975V34.2273H81.1534V43.5H78.3402V41.7734H78.2436C78.0383 42.3409 77.6882 42.7917 77.1932 43.1257C76.7022 43.4557 76.1085 43.6207 75.4123 43.6207C74.7804 43.6207 74.225 43.4758 73.7461 43.1861C73.2671 42.8963 72.8949 42.4918 72.6292 41.9726C72.3636 41.4494 72.2288 40.8377 72.2248 40.1374V34.2273H75.1768V39.5579C75.1809 40.061 75.3137 40.4574 75.5753 40.7471C75.8369 41.0369 76.193 41.1818 76.6438 41.1818C76.9376 41.1818 77.2012 41.1174 77.4346 40.9886C77.6721 40.8558 77.8592 40.6646 77.9961 40.4151C78.1369 40.1616 78.2074 39.8557 78.2074 39.4975ZM85.9844 38.2116V43.5H83.0324V34.2273H85.8396V35.9297H85.9422C86.1474 35.3622 86.4976 34.9175 86.9926 34.5955C87.4876 34.2695 88.0772 34.1065 88.7614 34.1065C89.4134 34.1065 89.9789 34.2534 90.4578 34.5472C90.9408 34.837 91.3151 35.2435 91.5807 35.7667C91.8503 36.2859 91.9831 36.8936 91.9791 37.5898V43.5H89.0271V38.1694C89.0311 37.6542 88.9003 37.2518 88.6347 36.962C88.3731 36.6722 88.0088 36.5273 87.542 36.5273C87.2321 36.5273 86.9584 36.5958 86.7209 36.7326C86.4875 36.8654 86.3064 37.0566 86.1776 37.3061C86.0529 37.5556 85.9885 37.8575 85.9844 38.2116Z" fill="#FAF0DF"/>
</g>
</g>
<rect x="1.05" y="1.05" width="177.9" height="53.9" rx="6.95" stroke="white" stroke-opacity="0.15" stroke-width="2.1"/>
<defs>
<filter id="filter0_d_1_50" x="6.28571" y="2.28571" width="53.2101" height="53.2112" filterUnits="userSpaceOnUse" color-interpolation-filters="sRGB">
<feFlood flood-opacity="0" result="BackgroundImageFix"/>
<feColorMatrix in="SourceAlpha" type="matrix" values="0 0 0 0 0 0 0 0 0 0 0 0 0 0 0 0 0 0 127 0" result="hardAlpha"/>
<feOffset/>
<feGaussianBlur stdDeviation="2.85714"/>
<feComposite in2="hardAlpha" operator="out"/>
<feColorMatrix type="matrix" values="0 0 0 0 0 0 0 0 0 0 0 0 0 0 0 0 0 0 0.25 0"/>
<feBlend mode="normal" in2="BackgroundImageFix" result="effect1_dropShadow_1_50"/>
<feBlend mode="normal" in="SourceGraphic" in2="effect1_dropShadow_1_50" result="shape"/>
</filter>
<filter id="filter1_d_1_50" x="54.4" y="3.9" width="119.2" height="48.2" filterUnits="userSpaceOnUse" color-interpolation-filters="sRGB">
<feFlood flood-opacity="0" result="BackgroundImageFix"/>
<feColorMatrix in="SourceAlpha" type="matrix" values="0 0 0 0 0 0 0 0 0 0 0 0 0 0 0 0 0 0 127 0" result="hardAlpha"/>
<feOffset/>
<feGaussianBlur stdDeviation="2.8"/>
<feComposite in2="hardAlpha" operator="out"/>
<feColorMatrix type="matrix" values="0 0 0 0 0 0 0 0 0 0 0 0 0 0 0 0 0 0 0.25 0"/>
<feBlend mode="normal" in2="BackgroundImageFix" result="effect1_dropShadow_1_50"/>
<feBlend mode="normal" in="SourceGraphic" in2="effect1_dropShadow_1_50" result="shape"/>
</filter>
<linearGradient id="paint0_linear_1_50" x1="90" y1="0" x2="90" y2="56" gradientUnits="userSpaceOnUse">
<stop stop-color="#2C1B1B"/>
<stop offset="1" stop-color="#1F1414"/>
</linearGradient>
<linearGradient id="paint1_linear_1_50" x1="40.3123" y1="24.986" x2="40.3123" y2="47.6398" gradientUnits="userSpaceOnUse">
<stop stop-color="#FF0000"/>
<stop offset="1" stop-color="#CC0000"/>
</linearGradient>
<clipPath id="clip0_1_50">
<rect width="180" height="56" rx="8" fill="white"/>
</clipPath>
<clipPath id="clip1_1_50">
<rect width="40" height="35" fill="white" transform="translate(12 10.5)"/>
</clipPath>
</defs>
</svg>
