<svg width="56" height="56" viewBox="0 0 56 56" fill="none" xmlns="http://www.w3.org/2000/svg">
<g clip-path="url(#clip0_1_62)">
<rect width="56" height="56" rx="8.4" fill="url(#paint0_linear_1_62)"/>
<g filter="url(#filter0_d_1_62)">
<g clip-path="url(#clip1_1_62)">
<path d="M43.545 20.87C43.465 20.785 43.38 20.7 43.295 20.62C43.21 20.54 43.13 20.45 43.045 20.37C42.96 20.29 42.88 20.2 42.795 20.12C42.71 20.04 42.63 19.95 42.545 19.87C42.46 19.79 42.38 19.7 42.295 19.62C42.21 19.54 42.13 19.45 42.045 19.37C41.96 19.29 41.88 19.2 41.795 19.12C44.2751 21.5574 45.6959 24.8731 45.75 28.35C45.75 36.635 37.34 43.375 27 43.375C21.21 43.375 16.03 41.26 12.585 37.945L12.835 38.195L13.085 38.445L13.335 38.695L13.585 38.945L13.835 39.195L14.085 39.445L14.335 39.695C17.775 43.15 23.07 45.375 29 45.375C39.34 45.375 47.75 38.635 47.75 30.375C47.75 26.845 46.23 23.5 43.545 20.87Z" fill="black"/>
<path d="M44.5 28.35C44.5 35.955 36.665 42.12 27 42.12C17.335 42.12 9.5 35.955 9.5 28.35C9.5 23.635 12.5 19.47 17.11 17C21.72 14.53 24.59 12 27 12C29.41 12 31.47 14.065 36.89 17C41.5 19.47 44.5 23.635 44.5 28.35Z" fill="#FBF0DF"/>
<path d="M44.5 28.35C44.4976 27.373 44.363 26.4009 44.1 25.46C42.735 42.11 22.425 42.91 14.44 37.93C18.0295 40.7122 22.459 42.1899 27 42.12C36.65 42.12 44.5 35.945 44.5 28.35Z" fill="#F6DECE"/>
<path d="M20.265 16.085C22.5 14.745 25.47 12.23 28.39 12.225C27.9408 12.0798 27.4721 12.0039 27 12C25.79 12 24.5 12.625 22.875 13.565C22.31 13.895 21.725 14.26 21.105 14.64C19.94 15.36 18.605 16.175 17.105 16.99C12.345 19.565 9.5 23.81 9.5 28.35C9.5 28.55 9.5 28.75 9.5 28.945C12.53 18.24 18.035 17.425 20.265 16.085Z" fill="#FFFEFC"/>
<path fill-rule="evenodd" clip-rule="evenodd" d="M25.56 13.265C25.567 14.4456 25.3191 15.6138 24.8333 16.6899C24.3475 17.7659 23.6352 18.7244 22.745 19.5C22.605 19.625 22.715 19.865 22.895 19.795C24.58 19.14 26.855 17.18 25.895 13.225C25.855 13 25.56 13.06 25.56 13.265ZM26.695 13.265C27.3068 14.2632 27.6955 15.3819 27.8344 16.5444C27.9734 17.7069 27.8593 18.8857 27.5 20C27.44 20.175 27.655 20.325 27.775 20.18C28.87 18.78 29.825 16 26.965 13C26.82 12.87 26.595 13.07 26.695 13.245V13.265ZM28.075 13.18C29.0331 13.8583 29.8345 14.7341 30.4254 15.7484C31.0162 16.7628 31.3827 17.892 31.5 19.06C31.4949 19.1021 31.5063 19.1445 31.5316 19.1785C31.557 19.2124 31.5945 19.2353 31.6363 19.2424C31.6781 19.2495 31.721 19.2402 31.7561 19.2165C31.7913 19.1927 31.8159 19.1564 31.825 19.115C32.285 17.37 32.025 14.395 28.24 12.85C28.04 12.77 27.91 13.04 28.075 13.16V13.18ZM18.845 18.38C19.9846 18.0395 21.0398 17.4629 21.9418 16.6875C22.8437 15.9122 23.5723 14.9556 24.08 13.88C24.17 13.7 24.455 13.77 24.41 13.97C23.545 17.97 20.65 18.805 18.85 18.695C18.66 18.7 18.665 18.435 18.845 18.38Z" fill="#CCBEA7"/>
<path d="M27 43.375C16.66 43.375 8.25 36.635 8.25 28.35C8.25 23.35 11.34 18.685 16.515 15.89C18.015 15.09 19.3 14.285 20.445 13.58C21.075 13.19 21.67 12.825 22.245 12.485C24 11.445 25.5 10.75 27 10.75C28.5 10.75 29.81 11.35 31.45 12.32C31.95 12.605 32.45 12.915 32.985 13.255C34.23 14.025 35.635 14.895 37.485 15.89C42.66 18.685 45.75 23.345 45.75 28.35C45.75 36.635 37.34 43.375 27 43.375ZM27 12C25.79 12 24.5 12.625 22.875 13.565C22.31 13.895 21.725 14.26 21.105 14.64C19.94 15.36 18.605 16.175 17.105 16.99C12.345 19.565 9.5 23.81 9.5 28.35C9.5 35.945 17.35 42.125 27 42.125C36.65 42.125 44.5 35.945 44.5 28.35C44.5 23.81 41.655 19.565 36.89 17C35 16 33.525 15.06 32.33 14.32C31.785 13.985 31.285 13.675 30.83 13.4C29.315 12.5 28.21 12 27 12Z" fill="black"/>
<path d="M30.525 32C30.3004 32.92 29.7891 33.7447 29.065 34.355C28.5214 34.882 27.8176 35.2127 27.065 35.295C26.2898 35.2258 25.5613 34.8942 25 34.355C24.2833 33.7418 23.7792 32.9174 23.56 32C23.5527 31.9455 23.558 31.8901 23.5755 31.838C23.5929 31.7859 23.6221 31.7385 23.6607 31.6994C23.6993 31.6603 23.7464 31.6306 23.7982 31.6125C23.8501 31.5944 23.9055 31.5884 23.96 31.595H30.13C30.1842 31.5892 30.2389 31.5958 30.2902 31.6143C30.3414 31.6328 30.3878 31.6626 30.4258 31.7016C30.4638 31.7406 30.4925 31.7877 30.5097 31.8394C30.5269 31.8911 30.5321 31.946 30.525 32Z" fill="#B71422"/>
<path d="M25 34.395C25.5602 34.9345 26.286 35.2692 27.06 35.345C27.8323 35.2681 28.5561 34.9335 29.115 34.395C29.2938 34.2284 29.4608 34.0496 29.615 33.86C29.307 33.5106 28.9307 33.2278 28.5094 33.0292C28.0881 32.8306 27.6306 32.7203 27.165 32.705C26.6669 32.7168 26.179 32.8495 25.7435 33.0916C25.308 33.3338 24.9379 33.6781 24.665 34.095C24.78 34.2 24.88 34.3 25 34.395Z" fill="#FF6164"/>
<path d="M25.08 34C25.3279 33.6796 25.6452 33.4195 26.0081 33.2394C26.3709 33.0593 26.7699 32.9637 27.175 32.96C27.9238 32.9821 28.6372 33.2835 29.175 33.805C29.29 33.68 29.4 33.55 29.505 33.42C28.8689 32.8142 28.0283 32.4698 27.15 32.455C26.6806 32.459 26.218 32.567 25.7952 32.771C25.3725 32.975 25.0002 33.2701 24.705 33.635C24.8232 33.7634 24.9484 33.8853 25.08 34Z" fill="black"/>
<path d="M27.045 35.595C26.2118 35.522 25.4277 35.1696 24.82 34.595C24.046 33.9404 23.5013 33.0558 23.265 32.07C23.2481 31.9822 23.2509 31.8918 23.2734 31.8053C23.2959 31.7188 23.3375 31.6384 23.395 31.57C23.4635 31.4873 23.55 31.4213 23.648 31.3771C23.7459 31.3329 23.8526 31.3116 23.96 31.315H30.13C30.2372 31.3127 30.3436 31.3345 30.4413 31.3786C30.5391 31.4227 30.6258 31.4881 30.695 31.57C30.752 31.6386 30.7928 31.7192 30.8144 31.8058C30.8361 31.8923 30.838 31.9826 30.82 32.07C30.5838 33.0558 30.039 33.9404 29.265 34.595C28.6586 35.1686 27.8764 35.5209 27.045 35.595ZM23.96 31.895C23.88 31.895 23.86 31.93 23.855 31.94C24.0664 32.7948 24.5445 33.5602 25.22 34.125C25.714 34.6117 26.3562 34.9196 27.045 35C27.732 34.9205 28.3735 34.6164 28.87 34.135C29.5434 33.5692 30.0197 32.8041 30.23 31.95C30.2191 31.934 30.204 31.9214 30.1863 31.9134C30.1687 31.9055 30.1492 31.9026 30.13 31.905L23.96 31.895Z" fill="black"/>
<path d="M34.61 32.31C36.2254 32.31 37.535 31.5399 37.535 30.59C37.535 29.6401 36.2254 28.87 34.61 28.87C32.9946 28.87 31.685 29.6401 31.685 30.59C31.685 31.5399 32.9946 32.31 34.61 32.31Z" fill="#FEBBD0"/>
<path d="M19.475 32.31C21.0904 32.31 22.4 31.5399 22.4 30.59C22.4 29.6401 21.0904 28.87 19.475 28.87C17.8596 28.87 16.55 29.6401 16.55 30.59C16.55 31.5399 17.8596 32.31 19.475 32.31Z" fill="#FEBBD0"/>
<path fill-rule="evenodd" clip-rule="evenodd" d="M20.85 29.9C21.3951 29.901 21.9282 29.7403 22.382 29.4381C22.8357 29.136 23.1896 28.7061 23.3989 28.2028C23.6081 27.6994 23.6634 27.1453 23.5577 26.6106C23.4519 26.0759 23.1899 25.5845 22.8048 25.1987C22.4198 24.8129 21.9289 24.55 21.3943 24.4433C20.8598 24.3366 20.3056 24.3909 19.8019 24.5992C19.2982 24.8076 18.8676 25.1607 18.5647 25.6139C18.2617 26.0671 18.1 26.5999 18.1 27.145C18.1 27.8748 18.3896 28.5748 18.9052 29.0913C19.4207 29.6078 20.1202 29.8987 20.85 29.9ZM33.235 29.9C33.7807 29.904 34.3153 29.7458 34.771 29.4455C35.2267 29.1451 35.5829 28.7163 35.7945 28.2132C36.0061 27.7102 36.0635 27.1556 35.9595 26.6199C35.8554 26.0842 35.5946 25.5914 35.2102 25.2041C34.8257 24.8168 34.3348 24.5524 33.7999 24.4445C33.2649 24.3366 32.71 24.3899 32.2054 24.5979C31.7008 24.8058 31.2693 25.1589 30.9657 25.6123C30.6621 26.0658 30.5 26.5993 30.5 27.145C30.4987 27.8726 30.7858 28.5711 31.2984 29.0875C31.811 29.6039 32.5074 29.896 33.235 29.9Z" fill="black"/>
<path fill-rule="evenodd" clip-rule="evenodd" d="M20 27.32C20.2049 27.321 20.4055 27.2611 20.5764 27.148C20.7472 27.0349 20.8807 26.8736 20.9598 26.6846C21.0389 26.4955 21.0601 26.2873 21.0207 26.0862C20.9814 25.8851 20.8832 25.7002 20.7386 25.5549C20.5941 25.4097 20.4097 25.3106 20.2088 25.2703C20.0079 25.2299 19.7995 25.2501 19.6101 25.3283C19.4207 25.4065 19.2587 25.5392 19.1448 25.7095C19.0308 25.8798 18.97 26.0801 18.97 26.285C18.97 26.5586 19.0784 26.8211 19.2714 27.0151C19.4644 27.209 19.7264 27.3187 20 27.32ZM32.385 27.32C32.5899 27.321 32.7905 27.2611 32.9614 27.148C33.1322 27.0349 33.2657 26.8736 33.3448 26.6846C33.4239 26.4955 33.4451 26.2873 33.4057 26.0862C33.3663 25.8851 33.2682 25.7002 33.1236 25.5549C32.9791 25.4097 32.7947 25.3106 32.5938 25.2703C32.3929 25.2299 32.1845 25.2501 31.9951 25.3283C31.8057 25.4065 31.6437 25.5392 31.5298 25.7095C31.4158 25.8798 31.355 26.0801 31.355 26.285C31.355 26.5569 31.462 26.8179 31.6528 27.0116C31.8437 27.2053 32.1031 27.3161 32.375 27.32H32.385Z" fill="white"/>
</g>
<g opacity="0.7">
<mask id="path-17-outside-1_1_62" maskUnits="userSpaceOnUse" x="21.986" y="21.986" width="28" height="28" fill="black">
<rect fill="white" x="21.986" y="21.986" width="28" height="28"/>
<path fill-rule="evenodd" clip-rule="evenodd" d="M27.778 25.1952C27.4991 24.9162 27.0469 24.9162 26.768 25.1952L25.1958 26.7678C24.9169 27.0467 24.9169 27.4991 25.1958 27.778L33.73 36.3144L25.1952 44.8478C24.9162 45.1267 24.9162 45.5789 25.1952 45.8579L26.7677 47.4301C27.0466 47.709 27.4989 47.709 27.7779 47.4301L36.3121 38.8973L44.8431 47.4305C45.122 47.7095 45.5742 47.7095 45.8531 47.4305L47.4253 45.858C47.7042 45.579 47.7042 45.1267 47.4253 44.8477L38.8949 36.315L47.4295 27.7819C47.7084 27.5029 47.7084 27.0507 47.4295 26.7718L45.857 25.1996C45.578 24.9206 45.1257 24.9206 44.8467 25.1996L36.3127 33.7322L27.778 25.1952Z"/>
</mask>
<path fill-rule="evenodd" clip-rule="evenodd" d="M27.778 25.1952C27.4991 24.9162 27.0469 24.9162 26.768 25.1952L25.1958 26.7678C24.9169 27.0467 24.9169 27.4991 25.1958 27.778L33.73 36.3144L25.1952 44.8478C24.9162 45.1267 24.9162 45.5789 25.1952 45.8579L26.7677 47.4301C27.0466 47.709 27.4989 47.709 27.7779 47.4301L36.3121 38.8973L44.8431 47.4305C45.122 47.7095 45.5742 47.7095 45.8531 47.4305L47.4253 45.858C47.7042 45.579 47.7042 45.1267 47.4253 44.8477L38.8949 36.315L47.4295 27.7819C47.7084 27.5029 47.7084 27.0507 47.4295 26.7718L45.857 25.1996C45.578 24.9206 45.1257 24.9206 44.8467 25.1996L36.3127 33.7322L27.778 25.1952Z" fill="url(#paint1_linear_1_62)"/>
<path d="M26.768 25.1952L25.2525 23.6802L25.2525 23.6802L26.768 25.1952ZM27.778 25.1952L26.2626 26.7102L26.2626 26.7102L27.778 25.1952ZM25.1958 26.7678L23.6804 25.2527L23.6804 25.2527L25.1958 26.7678ZM25.1958 27.778L23.6804 29.2931L23.6804 29.2931L25.1958 27.778ZM33.73 36.3144L35.2451 37.8298L36.7604 36.3148L35.2454 34.7994L33.73 36.3144ZM25.1952 44.8478L23.6801 43.3324L23.6801 43.3324L25.1952 44.8478ZM25.1952 45.8579L23.6801 47.3732L23.6801 47.3732L25.1952 45.8579ZM26.7677 47.4301L25.2526 48.9454L25.2526 48.9454L26.7677 47.4301ZM27.7779 47.4301L26.2628 45.9147L26.2628 45.9147L27.7779 47.4301ZM36.3121 38.8973L37.8276 37.3823L36.3125 35.8668L34.797 37.3819L36.3121 38.8973ZM44.8431 47.4305L43.3277 48.9456L43.3277 48.9456L44.8431 47.4305ZM45.8531 47.4305L47.3686 48.9456L47.3686 48.9456L45.8531 47.4305ZM47.4253 45.858L48.9407 47.373L48.9407 47.373L47.4253 45.858ZM47.4253 44.8477L48.9407 43.3327L48.9407 43.3326L47.4253 44.8477ZM38.8949 36.315L37.3798 34.7997L35.8645 36.3147L37.3794 37.83L38.8949 36.315ZM47.4295 27.7819L45.9144 26.2665L45.9144 26.2665L47.4295 27.7819ZM47.4295 26.7718L45.9144 28.2871L45.9144 28.2871L47.4295 26.7718ZM45.857 25.1996L47.3721 23.6842L47.3721 23.6842L45.857 25.1996ZM44.8467 25.1996L43.3316 23.6842L43.3316 23.6842L44.8467 25.1996ZM36.3127 33.7322L34.7973 35.2472L36.3124 36.7627L37.8278 35.2475L36.3127 33.7322ZM28.2834 26.7102C27.7254 27.2684 26.8205 27.2684 26.2626 26.7102L29.2934 23.6802C28.1776 22.5641 26.3683 22.5641 25.2525 23.6802L28.2834 26.7102ZM26.7113 28.2828L28.2834 26.7102L25.2525 23.6802L23.6804 25.2527L26.7113 28.2828ZM26.7113 26.263C27.2689 26.8208 27.2689 27.725 26.7113 28.2828L23.6804 25.2527C22.5649 26.3685 22.5649 28.1773 23.6804 29.2931L26.7113 26.263ZM35.2454 34.7994L26.7113 26.263L23.6804 29.2931L32.2145 37.8295L35.2454 34.7994ZM26.7103 46.3631L35.2451 37.8298L32.2149 34.7991L23.6801 43.3324L26.7103 46.3631ZM26.7103 44.3425C27.2683 44.9004 27.2683 45.8052 26.7103 46.3631L23.6801 43.3324C22.5641 44.4482 22.5641 46.2574 23.6801 47.3732L26.7103 44.3425ZM28.2828 45.9147L26.7103 44.3425L23.6801 47.3732L25.2526 48.9454L28.2828 45.9147ZM26.2628 45.9147C26.8207 45.357 27.7249 45.357 28.2828 45.9147L25.2526 48.9454C26.3683 50.061 28.1772 50.061 29.293 48.9454L26.2628 45.9147ZM34.797 37.3819L26.2628 45.9147L29.293 48.9454L37.8272 40.4126L34.797 37.3819ZM46.3585 45.9155L37.8276 37.3823L34.7967 40.4123L43.3277 48.9456L46.3585 45.9155ZM44.3377 45.9155C44.8957 45.3574 45.8006 45.3574 46.3585 45.9155L43.3277 48.9456C44.4435 50.0616 46.2528 50.0616 47.3686 48.9456L44.3377 45.9155ZM45.9098 44.3429L44.3377 45.9155L47.3686 48.9456L48.9407 47.373L45.9098 44.3429ZM45.9098 46.3627C45.3522 45.8049 45.3522 44.9007 45.9098 44.3429L48.9407 47.373C50.0562 46.2572 50.0562 44.4484 48.9407 43.3327L45.9098 46.3627ZM37.3794 37.83L45.9098 46.3627L48.9407 43.3326L40.4103 34.8L37.3794 37.83ZM45.9144 26.2665L37.3798 34.7997L40.41 37.8304L48.9446 29.2972L45.9144 26.2665ZM45.9144 28.2871C45.3563 27.7292 45.3563 26.8244 45.9144 26.2665L48.9446 29.2972C50.0605 28.1814 50.0605 26.3722 48.9446 25.2564L45.9144 28.2871ZM44.3419 26.7149L45.9144 28.2871L48.9446 25.2564L47.3721 23.6842L44.3419 26.7149ZM46.3618 26.7149C45.804 27.2727 44.8997 27.2727 44.3419 26.7149L47.3721 23.6842C46.2563 22.5686 44.4474 22.5686 43.3316 23.6842L46.3618 26.7149ZM37.8278 35.2475L46.3618 26.7149L43.3316 23.6842L34.7976 32.2168L37.8278 35.2475ZM26.2626 26.7102L34.7973 35.2472L37.8281 32.2171L29.2934 23.6802L26.2626 26.7102Z" fill="black" mask="url(#path-17-outside-1_1_62)"/>
</g>
</g>
</g>
<rect x="1.05" y="1.05" width="53.9" height="53.9" rx="7.35" stroke="white" stroke-opacity="0.15" stroke-width="2.1"/>
<defs>
<filter id="filter0_d_1_62" x="2.28571" y="2.28571" width="53.2101" height="53.2112" filterUnits="userSpaceOnUse" color-interpolation-filters="sRGB">
<feFlood flood-opacity="0" result="BackgroundImageFix"/>
<feColorMatrix in="SourceAlpha" type="matrix" values="0 0 0 0 0 0 0 0 0 0 0 0 0 0 0 0 0 0 127 0" result="hardAlpha"/>
<feOffset/>
<feGaussianBlur stdDeviation="2.85714"/>
<feComposite in2="hardAlpha" operator="out"/>
<feColorMatrix type="matrix" values="0 0 0 0 0 0 0 0 0 0 0 0 0 0 0 0 0 0 0.25 0"/>
<feBlend mode="normal" in2="BackgroundImageFix" result="effect1_dropShadow_1_62"/>
<feBlend mode="normal" in="SourceGraphic" in2="effect1_dropShadow_1_62" result="shape"/>
</filter>
<linearGradient id="paint0_linear_1_62" x1="28" y1="0" x2="28" y2="56" gradientUnits="userSpaceOnUse">
<stop stop-color="#2C1B1B"/>
<stop offset="1" stop-color="#1F1414"/>
</linearGradient>
<linearGradient id="paint1_linear_1_62" x1="36.3123" y1="24.986" x2="36.3123" y2="47.6398" gradientUnits="userSpaceOnUse">
<stop stop-color="#FF0000"/>
<stop offset="1" stop-color="#CC0000"/>
</linearGradient>
<clipPath id="clip0_1_62">
<rect width="56" height="56" rx="8.4" fill="white"/>
</clipPath>
<clipPath id="clip1_1_62">
<rect width="40" height="35" fill="white" transform="translate(8 10.5)"/>
</clipPath>
</defs>
</svg>
