<svg width="56" height="56" viewBox="0 0 56 56" fill="none" xmlns="http://www.w3.org/2000/svg">
<rect width="56" height="56" rx="8.4" fill="url(#paint0_linear_1_62)"/>
<rect x="1.05" y="1.05" width="53.9" height="53.9" rx="7.35" stroke="white" stroke-opacity="0.15" stroke-width="2.1"/>
<g filter="url(#filter0_d_1_62)">
<path d="M34.6947 30.4461C37.3221 30.4461 41.1266 29.8996 41.1266 26.7677C41.1265 26.5281 41.1054 26.289 41.0636 26.0531L39.5081 19.2428C39.1508 17.7504 38.8355 17.0568 36.2081 15.7535C34.1692 14.7026 29.7341 13 28.4099 13C27.1697 13 26.8124 14.5765 25.3621 14.5765C23.9538 14.5765 22.9238 13.3994 21.5996 13.3994C20.3384 13.3994 19.5187 14.2612 18.8881 16.0268C18.8881 16.0268 17.1224 21.0084 16.8912 21.7441C16.8565 21.8742 16.8423 22.009 16.8492 22.1435C16.8282 24.0772 24.4582 30.4251 34.6947 30.4461ZM41.526 28.0499C41.8833 29.7735 41.8833 29.9627 41.8833 30.1729C41.8833 33.1156 38.5833 34.7551 34.2323 34.7551C24.3952 34.7551 15.7982 28.9958 15.7982 25.1913C15.7972 24.6636 15.9046 24.1414 16.1135 23.6569C12.5822 23.825 8 24.4556 8 28.4913C8 35.1125 23.6805 43.268 36.082 43.268C45.6038 43.268 48 38.959 48 35.5539C48 32.8844 45.6879 29.8576 41.526 28.0499Z" fill="#EE0000"/>
<path d="M41.526 28.0499C41.8833 29.7735 41.8833 29.9627 41.8833 30.1729C41.8833 33.1156 38.5833 34.7551 34.2323 34.7551C24.3952 34.7551 15.7982 28.9958 15.7982 25.1913C15.7972 24.6636 15.9046 24.1414 16.1135 23.6569L16.8912 21.7441C16.8565 21.8742 16.8423 22.009 16.8492 22.1435C16.8492 24.0772 24.4792 30.4251 34.6947 30.4251C37.3221 30.4251 41.1266 29.8786 41.1266 26.7467C41.1265 26.5071 41.1054 26.268 41.0636 26.0321L41.526 28.0499Z" fill="black"/>
</g>
<defs>
<filter id="filter0_d_1_62" x="2.28571" y="2.28571" width="51.4286" height="51.4286" filterUnits="userSpaceOnUse" color-interpolation-filters="sRGB">
<feFlood flood-opacity="0" result="BackgroundImageFix"/>
<feColorMatrix in="SourceAlpha" type="matrix" values="0 0 0 0 0 0 0 0 0 0 0 0 0 0 0 0 0 0 127 0" result="hardAlpha"/>
<feOffset/>
<feGaussianBlur stdDeviation="2.85714"/>
<feComposite in2="hardAlpha" operator="out"/>
<feColorMatrix type="matrix" values="0 0 0 0 0 0 0 0 0 0 0 0 0 0 0 0 0 0 0.25 0"/>
<feBlend mode="normal" in2="BackgroundImageFix" result="effect1_dropShadow_1_62"/>
<feBlend mode="normal" in="SourceGraphic" in2="effect1_dropShadow_1_62" result="shape"/>
</filter>
<linearGradient id="paint0_linear_1_62" x1="28" y1="0" x2="28" y2="56" gradientUnits="userSpaceOnUse">
<stop stop-color="#770000"/>
<stop offset="1" stop-color="#470000"/>
</linearGradient>
</defs>
</svg>
