<svg width="191" height="40" viewBox="0 0 191 40" fill="none" xmlns="http://www.w3.org/2000/svg">
<rect width="191.001" height="40.0014" rx="8" fill="url(#paint0_linear_1_56)"/>
<rect x="1.07143" y="1.07143" width="188.858" height="37.8585" rx="6.92857" stroke="white" stroke-opacity="0.15" stroke-width="2.14286"/>
<g filter="url(#filter0_d_1_56)">
<path d="M22 34C29.732 34 36 27.732 36 20C36 12.268 29.732 6 22 6C14.268 6 8 12.268 8 20C8 27.732 14.268 34 22 34Z" fill="#663399"/>
<path d="M14.2 27.8C12.1 25.7 11 22.9 11 20.2L21.9 31C19.1 30.9 16.3 29.9 14.2 27.8ZM24.4 30.7L11.3 17.6C12.4 12.7 16.8 9 22 9C25.7 9 28.9 10.8 30.9 13.5L29.4 14.8C27.7 12.5 25 11 22 11C18.1 11 14.8 13.5 13.5 17L25 28.5C27.9 27.5 30.1 25 30.8 22H26V20H33C33 25.2 29.3 29.6 24.4 30.7Z" fill="white"/>
</g>
<g filter="url(#filter1_d_1_56)">
<path d="M43.3597 26.5007V14.1371H47.8874C48.7648 14.1371 49.4912 14.282 50.0667 14.5717C50.6423 14.8575 51.0729 15.2458 51.3586 15.7369C51.6444 16.2238 51.7873 16.7732 51.7873 17.3849C51.7873 17.9001 51.6927 18.3347 51.5035 18.6889C51.3144 19.0391 51.0608 19.3208 50.7429 19.5341C50.429 19.7434 50.0828 19.8963 49.7045 19.9929V20.1136C50.115 20.1337 50.5155 20.2666 50.9059 20.5121C51.3003 20.7535 51.6263 21.0976 51.8839 21.5444C52.1414 21.9911 52.2702 22.5344 52.2702 23.1743C52.2702 23.8062 52.1213 24.3737 51.8235 24.8768C51.5297 25.3758 51.0749 25.7722 50.4591 26.066C49.8434 26.3558 49.0566 26.5007 48.0987 26.5007H43.3597ZM45.2251 24.9009H47.9176C48.8111 24.9009 49.451 24.7279 49.8373 24.3817C50.2237 24.0356 50.4169 23.603 50.4169 23.0838C50.4169 22.6934 50.3183 22.3352 50.1211 22.0092C49.9239 21.6832 49.6421 21.4236 49.2759 21.2305C48.9137 21.0373 48.483 20.9407 47.984 20.9407H45.2251V24.9009ZM45.2251 19.4858H47.7244C48.143 19.4858 48.5193 19.4053 48.8533 19.2443C49.1914 19.0833 49.459 18.8579 49.6562 18.5682C49.8575 18.2744 49.9581 17.9283 49.9581 17.5298C49.9581 17.0187 49.779 16.5901 49.4208 16.244C49.0626 15.8978 48.5132 15.7248 47.7727 15.7248H45.2251V19.4858ZM60.2118 22.6552V17.228H62.0229V26.5007H60.248V24.8949H60.1514C59.9381 25.3899 59.596 25.8024 59.1251 26.1324C58.6583 26.4584 58.0767 26.6214 57.3805 26.6214C56.7848 26.6214 56.2576 26.4906 55.7988 26.229C55.344 25.9634 54.9858 25.571 54.7242 25.0518C54.4667 24.5327 54.3379 23.8907 54.3379 23.1261V17.228H56.1429V22.9087C56.1429 23.5406 56.318 24.0437 56.6681 24.418C57.0183 24.7922 57.473 24.9794 58.0325 24.9794C58.3705 24.9794 58.7066 24.8949 59.0406 24.7258C59.3787 24.5568 59.6584 24.3012 59.8798 23.9591C60.1051 23.6171 60.2158 23.1824 60.2118 22.6552ZM64.4482 26.5007V17.228H66.2533V26.5007H64.4482ZM65.3598 15.7972C65.0459 15.7972 64.7762 15.6926 64.5508 15.4833C64.3295 15.27 64.2188 15.0164 64.2188 14.7226C64.2188 14.4248 64.3295 14.1713 64.5508 13.962C64.7762 13.7487 65.0459 13.642 65.3598 13.642C65.6737 13.642 65.9413 13.7487 66.1627 13.962C66.3881 14.1713 66.5008 14.4248 66.5008 14.7226C66.5008 15.0164 66.3881 15.27 66.1627 15.4833C65.9413 15.6926 65.6737 15.7972 65.3598 15.7972ZM70.4867 14.1371V26.5007H68.6816V14.1371H70.4867ZM77.2435 17.228V18.6768H72.1785V17.228H77.2435ZM73.5368 15.0064H75.3419V23.778C75.3419 24.1282 75.3942 24.3918 75.4988 24.5689C75.6035 24.7419 75.7383 24.8607 75.9033 24.9251C76.0723 24.9854 76.2554 25.0156 76.4526 25.0156C76.5975 25.0156 76.7243 25.0056 76.833 24.9854C76.9416 24.9653 77.0262 24.9492 77.0865 24.9371L77.4125 26.4283C77.3079 26.4685 77.159 26.5087 76.9658 26.549C76.7726 26.5933 76.5311 26.6174 76.2414 26.6214C75.7664 26.6295 75.3237 26.545 74.9132 26.3679C74.5027 26.1908 74.1707 25.9171 73.9171 25.5469C73.6636 25.1766 73.5368 24.7118 73.5368 24.1523V15.0064ZM85.7495 26.5007L83.0208 17.228H84.8862L86.7034 24.0376H86.7939L88.6171 17.228H90.4825L92.2936 24.0074H92.3841L94.1891 17.228H96.0546L93.3319 26.5007H91.4906L89.6071 19.8057H89.4683L87.5847 26.5007H85.7495ZM97.7675 26.5007V17.228H99.5726V26.5007H97.7675ZM98.6791 15.7972C98.3652 15.7972 98.0955 15.6926 97.8702 15.4833C97.6488 15.27 97.5381 15.0164 97.5381 14.7226C97.5381 14.4248 97.6488 14.1713 97.8702 13.962C98.0955 13.7487 98.3652 13.642 98.6791 13.642C98.993 13.642 99.2607 13.7487 99.482 13.962C99.7074 14.1713 99.8201 14.4248 99.8201 14.7226C99.8201 15.0164 99.7074 15.27 99.482 15.4833C99.2607 15.6926 98.993 15.7972 98.6791 15.7972ZM106.329 17.228V18.6768H101.264V17.228H106.329ZM102.623 15.0064H104.428V23.778C104.428 24.1282 104.48 24.3918 104.585 24.5689C104.689 24.7419 104.824 24.8607 104.989 24.9251C105.158 24.9854 105.341 25.0156 105.539 25.0156C105.683 25.0156 105.81 25.0056 105.919 24.9854C106.028 24.9653 106.112 24.9492 106.172 24.9371L106.498 26.4283C106.394 26.4685 106.245 26.5087 106.052 26.549C105.859 26.5933 105.617 26.6174 105.327 26.6214C104.852 26.6295 104.41 26.545 103.999 26.3679C103.589 26.1908 103.257 25.9171 103.003 25.5469C102.75 25.1766 102.623 24.7118 102.623 24.1523V15.0064ZM110.33 20.995V26.5007H108.525V14.1371H110.306V18.7372H110.421C110.638 18.2382 110.97 17.8417 111.417 17.5479C111.864 17.2541 112.447 17.1072 113.168 17.1072C113.804 17.1072 114.359 17.238 114.834 17.4996C115.313 17.7612 115.683 18.1516 115.945 18.6708C116.21 19.1859 116.343 19.8299 116.343 20.6026V26.5007H114.538V20.8199C114.538 20.1398 114.363 19.6126 114.013 19.2383C113.663 18.86 113.176 18.6708 112.552 18.6708C112.125 18.6708 111.743 18.7614 111.405 18.9425C111.071 19.1236 110.807 19.3892 110.614 19.7393C110.425 20.0855 110.33 20.504 110.33 20.995Z" fill="#E8E8E8"/>
<path d="M131.051 17.6758C130.982 17.4222 130.882 17.1989 130.749 17.0057C130.616 16.8085 130.453 16.6414 130.26 16.5046C130.067 16.3678 129.845 16.2651 129.596 16.1967C129.346 16.1243 129.073 16.0881 128.775 16.0881C128.175 16.0881 127.656 16.2329 127.217 16.5227C126.783 16.8125 126.447 17.2351 126.209 17.7905C125.972 18.3418 125.853 19.0119 125.853 19.8008C125.853 20.5936 125.968 21.2698 126.197 21.8292C126.426 22.3886 126.758 22.8152 127.193 23.109C127.628 23.4028 128.155 23.5497 128.775 23.5497C129.322 23.5497 129.785 23.4612 130.163 23.2841C130.546 23.103 130.835 22.8474 131.033 22.5174C131.23 22.1874 131.328 21.799 131.328 21.3523L131.884 21.4187H128.877V19.2393H134.208V20.8753C134.208 21.9821 133.973 22.9299 133.502 23.7187C133.035 24.5076 132.391 25.1133 131.57 25.5359C130.753 25.9584 129.813 26.1697 128.751 26.1697C127.571 26.1697 126.535 25.9142 125.642 25.403C124.748 24.8919 124.052 24.1635 123.553 23.2177C123.054 22.2679 122.804 21.141 122.804 19.837C122.804 18.8228 122.955 17.9233 123.257 17.1385C123.559 16.3497 123.979 15.6816 124.519 15.1342C125.062 14.5869 125.69 14.1723 126.402 13.8906C127.119 13.6089 127.889 13.468 128.714 13.468C129.431 13.468 130.097 13.5707 130.713 13.7759C131.332 13.9812 131.88 14.2709 132.355 14.6452C132.834 15.0195 133.222 15.4642 133.52 15.9794C133.818 16.4945 134.003 17.06 134.075 17.6758H131.051ZM138.583 26.1577C137.992 26.1577 137.466 26.0591 137.008 25.8618C136.553 25.6606 136.193 25.3588 135.927 24.9563C135.665 24.5498 135.535 24.0407 135.535 23.429C135.535 22.9138 135.625 22.4792 135.806 22.125C135.987 21.7708 136.237 21.4831 136.555 21.2617C136.873 21.0404 137.239 20.8733 137.654 20.7606C138.068 20.6439 138.511 20.5654 138.982 20.5252C139.509 20.4769 139.934 20.4266 140.256 20.3743C140.578 20.3179 140.811 20.2395 140.956 20.1388C141.105 20.0342 141.179 19.8873 141.179 19.6981V19.668C141.179 19.3581 141.073 19.1186 140.859 18.9496C140.646 18.7805 140.358 18.696 139.996 18.696C139.606 18.696 139.292 18.7805 139.054 18.9496C138.817 19.1186 138.666 19.352 138.601 19.6498L135.879 19.5533C135.959 18.9898 136.167 18.4867 136.501 18.044C136.839 17.5973 137.301 17.2471 137.889 16.9936C138.481 16.736 139.191 16.6072 140.02 16.6072C140.612 16.6072 141.157 16.6777 141.656 16.8185C142.155 16.9554 142.59 17.1566 142.96 17.4222C143.33 17.6838 143.616 18.0058 143.817 18.3881C144.023 18.7705 144.125 19.2071 144.125 19.6981V26.0007H141.348V24.7088H141.276C141.111 25.0227 140.899 25.2883 140.642 25.5057C140.388 25.723 140.089 25.886 139.742 25.9947C139.4 26.1033 139.014 26.1577 138.583 26.1577ZM139.495 24.2258C139.813 24.2258 140.099 24.1614 140.352 24.0327C140.61 23.9039 140.815 23.7268 140.968 23.5014C141.121 23.272 141.197 23.0064 141.197 22.7045V21.8231C141.113 21.8674 141.01 21.9077 140.889 21.9439C140.773 21.9801 140.644 22.0143 140.503 22.0465C140.362 22.0787 140.217 22.1069 140.068 22.131C139.919 22.1552 139.777 22.1773 139.64 22.1974C139.362 22.2417 139.125 22.3101 138.927 22.4027C138.734 22.4953 138.585 22.616 138.481 22.7649C138.38 22.9098 138.33 23.0828 138.33 23.2841C138.33 23.59 138.438 23.8234 138.656 23.9844C138.877 24.1453 139.157 24.2258 139.495 24.2258ZM151.164 16.728V18.9013H145.314V16.728H151.164ZM146.54 14.5064H149.492V23.0849C149.492 23.266 149.52 23.4129 149.577 23.5256C149.637 23.6342 149.723 23.7127 149.836 23.761C149.949 23.8053 150.084 23.8274 150.241 23.8274C150.353 23.8274 150.472 23.8173 150.597 23.7972C150.726 23.7731 150.822 23.7529 150.887 23.7368L151.333 25.8679C151.192 25.9081 150.993 25.9584 150.736 26.0188C150.482 26.0792 150.178 26.1174 149.824 26.1335C149.132 26.1657 148.538 26.0852 148.043 25.892C147.552 25.6948 147.176 25.389 146.914 24.9744C146.657 24.5599 146.532 24.0387 146.54 23.4109V14.5064ZM160.65 19.5593L157.939 19.6317C157.911 19.4386 157.835 19.2675 157.71 19.1186C157.585 18.9657 157.422 18.8469 157.221 18.7624C157.024 18.6739 156.794 18.6296 156.533 18.6296C156.191 18.6296 155.899 18.698 155.657 18.8349C155.42 18.9717 155.303 19.1568 155.307 19.3903C155.303 19.5714 155.376 19.7283 155.524 19.8611C155.677 19.994 155.949 20.1006 156.339 20.1811L158.126 20.5192C159.052 20.6962 159.74 20.99 160.191 21.4006C160.646 21.8111 160.875 22.3544 160.879 23.0305C160.875 23.6664 160.686 24.2198 160.312 24.6907C159.941 25.1616 159.434 25.5278 158.79 25.7894C158.146 26.047 157.41 26.1758 156.581 26.1758C155.257 26.1758 154.212 25.9041 153.448 25.3608C152.687 24.8134 152.252 24.081 152.144 23.1633L155.06 23.0909C155.124 23.429 155.291 23.6865 155.561 23.8636C155.83 24.0407 156.174 24.1292 156.593 24.1292C156.971 24.1292 157.279 24.0588 157.517 23.918C157.754 23.7771 157.875 23.5899 157.879 23.3565C157.875 23.1472 157.782 22.9802 157.601 22.8555C157.42 22.7267 157.136 22.6261 156.75 22.5536L155.132 22.2457C154.202 22.0767 153.51 21.7648 153.055 21.31C152.601 20.8512 152.375 20.2676 152.379 19.5593C152.375 18.9395 152.54 18.4103 152.874 17.9716C153.208 17.5289 153.683 17.1908 154.299 16.9574C154.915 16.7239 155.641 16.6072 156.478 16.6072C157.734 16.6072 158.724 16.8708 159.448 17.3981C160.173 17.9213 160.573 18.6417 160.65 19.5593ZM162.333 26.0007V13.6371H165.285V18.3157H165.345C165.466 18.034 165.637 17.7623 165.858 17.5007C166.084 17.2391 166.369 17.0258 166.715 16.8608C167.066 16.6918 167.484 16.6072 167.971 16.6072C168.615 16.6072 169.217 16.7763 169.776 17.1143C170.34 17.4524 170.794 17.9736 171.14 18.6779C171.487 19.3822 171.66 20.2797 171.66 21.3704C171.66 22.4208 171.493 23.3002 171.159 24.0085C170.829 24.7168 170.382 25.2481 169.818 25.6023C169.259 25.9564 168.637 26.1335 167.953 26.1335C167.486 26.1335 167.082 26.057 166.74 25.9041C166.397 25.7512 166.11 25.5499 165.876 25.3004C165.647 25.0509 165.47 24.7832 165.345 24.4975H165.254V26.0007H162.333ZM165.224 21.3643C165.224 21.8634 165.291 22.298 165.424 22.6683C165.56 23.0386 165.756 23.3263 166.009 23.5316C166.267 23.7328 166.575 23.8334 166.933 23.8334C167.295 23.8334 167.603 23.7328 167.856 23.5316C168.11 23.3263 168.301 23.0386 168.43 22.6683C168.563 22.298 168.629 21.8634 168.629 21.3643C168.629 20.8653 168.563 20.4326 168.43 20.0664C168.301 19.7002 168.11 19.4164 167.856 19.2152C167.607 19.014 167.299 18.9133 166.933 18.9133C166.571 18.9133 166.263 19.0119 166.009 19.2092C165.756 19.4064 165.56 19.6881 165.424 20.0543C165.291 20.4206 165.224 20.8572 165.224 21.3643ZM174.713 29.478C174.359 29.478 174.025 29.4498 173.711 29.3935C173.397 29.3411 173.127 29.2707 172.902 29.1822L173.554 27.039C173.844 27.1356 174.105 27.192 174.339 27.2081C174.576 27.2242 174.779 27.1859 174.948 27.0934C175.121 27.0048 175.254 26.8459 175.347 26.6165L175.461 26.3388L172.165 16.728H175.256L176.965 23.3444H177.061L178.794 16.728H181.903L178.407 26.8881C178.238 27.3952 177.999 27.842 177.689 28.2283C177.383 28.6187 176.987 28.9246 176.5 29.1459C176.017 29.3673 175.421 29.478 174.713 29.478Z" fill="#663399"/>
</g>
<defs>
<filter id="filter0_d_1_56" x="2.39972" y="0.39972" width="39.202" height="39.202" filterUnits="userSpaceOnUse" color-interpolation-filters="sRGB">
<feFlood flood-opacity="0" result="BackgroundImageFix"/>
<feColorMatrix in="SourceAlpha" type="matrix" values="0 0 0 0 0 0 0 0 0 0 0 0 0 0 0 0 0 0 127 0" result="hardAlpha"/>
<feOffset/>
<feGaussianBlur stdDeviation="2.80014"/>
<feComposite in2="hardAlpha" operator="out"/>
<feColorMatrix type="matrix" values="0 0 0 0 0 0 0 0 0 0 0 0 0 0 0 0 0 0 0.25 0"/>
<feBlend mode="normal" in2="BackgroundImageFix" result="effect1_dropShadow_1_56"/>
<feBlend mode="normal" in="SourceGraphic" in2="effect1_dropShadow_1_56" result="shape"/>
</filter>
<filter id="filter1_d_1_56" x="36.2871" y="3.78642" width="152.429" height="32.4286" filterUnits="userSpaceOnUse" color-interpolation-filters="sRGB">
<feFlood flood-opacity="0" result="BackgroundImageFix"/>
<feColorMatrix in="SourceAlpha" type="matrix" values="0 0 0 0 0 0 0 0 0 0 0 0 0 0 0 0 0 0 127 0" result="hardAlpha"/>
<feOffset/>
<feGaussianBlur stdDeviation="2.85714"/>
<feComposite in2="hardAlpha" operator="out"/>
<feColorMatrix type="matrix" values="0 0 0 0 0 0 0 0 0 0 0 0 0 0 0 0 0 0 0.25 0"/>
<feBlend mode="normal" in2="BackgroundImageFix" result="effect1_dropShadow_1_56"/>
<feBlend mode="normal" in="SourceGraphic" in2="effect1_dropShadow_1_56" result="shape"/>
</filter>
<linearGradient id="paint0_linear_1_56" x1="95.5007" y1="0" x2="95.5007" y2="40.0014" gradientUnits="userSpaceOnUse">
<stop stop-color="#1F0F2E"/>
<stop offset="1" stop-color="#140A1F"/>
</linearGradient>
</defs>
</svg>
