<svg width="144" height="56" viewBox="0 0 144 56" fill="none" xmlns="http://www.w3.org/2000/svg">
<rect width="144" height="56" rx="8" fill="url(#paint0_linear_1_50)"/>
<rect x="1.05" y="1.05" width="141.9" height="53.9" rx="6.95" stroke="white" stroke-opacity="0.15" stroke-width="2.1"/>
<g filter="url(#filter0_d_1_50)">
<path d="M32 48C43.0457 48 52 39.0457 52 28C52 16.9543 43.0457 8 32 8C20.9543 8 12 16.9543 12 28C12 39.0457 20.9543 48 32 48Z" fill="#663399"/>
<path d="M20.8571 39.1429C17.8571 36.1429 16.2857 32.1429 16.2857 28.2857L31.8571 43.7143C27.8571 43.5714 23.8571 42.1429 20.8571 39.1429ZM35.4286 43.2857L16.7143 24.5714C18.2857 17.5714 24.5714 12.2857 32 12.2857C37.2857 12.2857 41.8571 14.8571 44.7143 18.7143L42.5714 20.5714C40.1429 17.2857 36.2857 15.1429 32 15.1429C26.4286 15.1429 21.7143 18.7143 19.8571 23.7143L36.2857 40.1429C40.4286 38.7143 43.5714 35.1429 44.5714 30.8571H37.7143V28H47.7143C47.7143 35.4286 42.4286 41.7143 35.4286 43.2857Z" fill="white"/>
</g>
<g filter="url(#filter1_d_1_50)">
<path d="M61.2784 24.5V12.8636H65.5398C66.3655 12.8636 67.0492 13 67.5909 13.2727C68.1326 13.5417 68.5379 13.9072 68.8068 14.3693C69.0757 14.8276 69.2102 15.3447 69.2102 15.9204C69.2102 16.4053 69.1212 16.8144 68.9432 17.1477C68.7651 17.4773 68.5265 17.7424 68.2273 17.9432C67.9318 18.1401 67.606 18.2841 67.25 18.375V18.4886C67.6363 18.5076 68.0132 18.6326 68.3807 18.8636C68.7519 19.0909 69.0587 19.4148 69.3011 19.8352C69.5435 20.2557 69.6648 20.767 69.6648 21.3693C69.6648 21.964 69.5246 22.4981 69.2443 22.9716C68.9678 23.4413 68.5398 23.8144 67.9602 24.0909C67.3807 24.3636 66.6401 24.5 65.7386 24.5H61.2784ZM63.0341 22.9943H65.5682C66.4091 22.9943 67.0113 22.8314 67.375 22.5057C67.7386 22.1799 67.9204 21.7727 67.9204 21.2841C67.9204 20.9167 67.8276 20.5795 67.642 20.2727C67.4564 19.9659 67.1913 19.7216 66.8466 19.5398C66.5057 19.3579 66.1004 19.267 65.6307 19.267H63.0341V22.9943ZM63.0341 17.8977H65.3863C65.7803 17.8977 66.1345 17.822 66.4488 17.6704C66.767 17.5189 67.0189 17.3068 67.2045 17.0341C67.3939 16.7576 67.4886 16.4318 67.4886 16.0568C67.4886 15.5758 67.3201 15.1723 66.9829 14.8466C66.6458 14.5208 66.1288 14.3579 65.4318 14.3579H63.0341V17.8977ZM77.1392 20.8807V15.7727H78.8437V24.5H77.1733V22.9886H77.0824C76.8816 23.4545 76.5596 23.8428 76.1165 24.1534C75.6771 24.4602 75.1297 24.6136 74.4744 24.6136C73.9138 24.6136 73.4176 24.4905 72.9858 24.2443C72.5577 23.9943 72.2206 23.625 71.9744 23.1364C71.732 22.6477 71.6108 22.0436 71.6108 21.3239V15.7727H73.3096V21.1193C73.3096 21.714 73.4744 22.1875 73.804 22.5398C74.1335 22.892 74.5615 23.0682 75.088 23.0682C75.4062 23.0682 75.7225 22.9886 76.0369 22.8295C76.3551 22.6704 76.6184 22.4299 76.8267 22.1079C77.0388 21.786 77.143 21.3769 77.1392 20.8807ZM81.1264 24.5V15.7727H82.8253V24.5H81.1264ZM81.9844 14.4261C81.6889 14.4261 81.4351 14.3276 81.223 14.1307C81.0147 13.9299 80.9105 13.6913 80.9105 13.4148C80.9105 13.1345 81.0147 12.8958 81.223 12.6989C81.4351 12.4981 81.6889 12.3977 81.9844 12.3977C82.2798 12.3977 82.5317 12.4981 82.74 12.6989C82.9522 12.8958 83.0582 13.1345 83.0582 13.4148C83.0582 13.6913 82.9522 13.9299 82.74 14.1307C82.5317 14.3276 82.2798 14.4261 81.9844 14.4261ZM86.8096 12.8636V24.5H85.1108V12.8636H86.8096ZM93.169 15.7727V17.1364H88.402V15.7727H93.169ZM89.6804 13.6818H91.3792V21.9375C91.3792 22.267 91.4285 22.5151 91.527 22.6818C91.6254 22.8447 91.7523 22.9564 91.9076 23.017C92.0667 23.0739 92.2391 23.1023 92.4247 23.1023C92.5611 23.1023 92.6804 23.0928 92.7826 23.0739C92.8849 23.0549 92.9645 23.0398 93.0213 23.0284L93.3281 24.4318C93.2296 24.4697 93.0895 24.5076 92.9076 24.5454C92.7258 24.5871 92.4986 24.6098 92.2258 24.6136C91.7789 24.6212 91.3622 24.5417 90.9758 24.375C90.5895 24.2083 90.277 23.9508 90.0383 23.6023C89.7997 23.2538 89.6804 22.8163 89.6804 22.2898V13.6818ZM101.175 24.5L98.6065 15.7727H100.362L102.072 22.1818H102.158L103.874 15.7727H105.629L107.334 22.1534H107.419L109.118 15.7727H110.874L108.311 24.5H106.578L104.805 18.1989H104.675L102.902 24.5H101.175ZM112.486 24.5V15.7727H114.185V24.5H112.486ZM113.344 14.4261C113.048 14.4261 112.794 14.3276 112.582 14.1307C112.374 13.9299 112.27 13.6913 112.27 13.4148C112.27 13.1345 112.374 12.8958 112.582 12.6989C112.794 12.4981 113.048 12.3977 113.344 12.3977C113.639 12.3977 113.891 12.4981 114.099 12.6989C114.312 12.8958 114.418 13.1345 114.418 13.4148C114.418 13.6913 114.312 13.9299 114.099 14.1307C113.891 14.3276 113.639 14.4261 113.344 14.4261ZM120.544 15.7727V17.1364H115.777V15.7727H120.544ZM117.055 13.6818H118.754V21.9375C118.754 22.267 118.803 22.5151 118.902 22.6818C119 22.8447 119.127 22.9564 119.283 23.017C119.442 23.0739 119.614 23.1023 119.8 23.1023C119.936 23.1023 120.055 23.0928 120.158 23.0739C120.26 23.0549 120.339 23.0398 120.396 23.0284L120.703 24.4318C120.605 24.4697 120.464 24.5076 120.283 24.5454C120.101 24.5871 119.874 24.6098 119.601 24.6136C119.154 24.6212 118.737 24.5417 118.351 24.375C117.964 24.2083 117.652 23.9508 117.413 23.6023C117.175 23.2538 117.055 22.8163 117.055 22.2898V13.6818ZM124.31 19.3182V24.5H122.611V12.8636H124.287V17.1932H124.395C124.599 16.7235 124.912 16.3504 125.332 16.0739C125.753 15.7973 126.302 15.6591 126.98 15.6591C127.579 15.6591 128.101 15.7822 128.548 16.0284C128.999 16.2746 129.348 16.642 129.594 17.1307C129.844 17.6155 129.969 18.2216 129.969 18.9489V24.5H128.27V19.1534C128.27 18.5133 128.105 18.017 127.776 17.6648C127.446 17.3087 126.988 17.1307 126.401 17.1307C125.999 17.1307 125.639 17.2159 125.321 17.3864C125.007 17.5568 124.758 17.8068 124.577 18.1364C124.399 18.4621 124.31 18.8561 124.31 19.3182Z" fill="#E8E8E8"/>
<path d="M69.0493 35.1751C68.9809 34.9215 68.8803 34.6981 68.7475 34.505C68.6147 34.3078 68.4517 34.1407 68.2585 34.0039C68.0653 33.8671 67.844 33.7644 67.5944 33.696C67.3449 33.6236 67.0712 33.5873 66.7734 33.5873C66.1738 33.5873 65.6546 33.7322 65.2159 34.022C64.7812 34.3118 64.4452 34.7344 64.2077 35.2898C63.9703 35.8411 63.8515 36.5112 63.8515 37.3001C63.8515 38.0929 63.9662 38.769 64.1957 39.3285C64.4251 39.8879 64.7571 40.3145 65.1917 40.6083C65.6264 40.9021 66.1536 41.049 66.7734 41.049C67.3208 41.049 67.7836 40.9605 68.1619 40.7834C68.5443 40.6023 68.834 40.3467 69.0312 40.0167C69.2284 39.6867 69.327 39.2983 69.327 38.8516L69.8824 38.918H66.876V36.7386H72.2067V38.3746C72.2067 39.4814 71.9712 40.4292 71.5003 41.218C71.0335 42.0069 70.3895 42.6126 69.5685 43.0351C68.7515 43.4577 67.8118 43.669 66.7493 43.669C65.5701 43.669 64.5337 43.4135 63.6403 42.9023C62.7468 42.3912 62.0505 41.6627 61.5515 40.717C61.0524 39.7672 60.8029 38.6403 60.8029 37.3363C60.8029 36.3221 60.9538 35.4226 61.2557 34.6378C61.5575 33.8489 61.9781 33.1809 62.5174 32.6335C63.0607 32.0862 63.6885 31.6716 64.4009 31.3899C65.1173 31.1082 65.888 30.9673 66.7131 30.9673C67.4294 30.9673 68.0955 31.0699 68.7113 31.2752C69.3311 31.4805 69.8784 31.7702 70.3533 32.1445C70.8322 32.5188 71.2206 32.9635 71.5184 33.4787C71.8163 33.9938 72.0014 34.5593 72.0738 35.1751H69.0493ZM76.5819 43.6569C75.9903 43.6569 75.4651 43.5583 75.0063 43.3611C74.5515 43.1599 74.1913 42.8581 73.9257 42.4556C73.6641 42.0491 73.5333 41.54 73.5333 40.9283C73.5333 40.4131 73.6238 39.9784 73.8049 39.6243C73.986 39.2701 74.2356 38.9824 74.5535 38.761C74.8715 38.5396 75.2377 38.3726 75.6522 38.2599C76.0668 38.1432 76.5095 38.0647 76.9804 38.0245C77.5076 37.9762 77.9322 37.9259 78.2542 37.8736C78.5761 37.8172 78.8095 37.7387 78.9544 37.6381C79.1033 37.5335 79.1778 37.3866 79.1778 37.1974V37.1672C79.1778 36.8574 79.0711 36.6179 78.8578 36.4489C78.6445 36.2798 78.3568 36.1953 77.9946 36.1953C77.6042 36.1953 77.2903 36.2798 77.0528 36.4489C76.8154 36.6179 76.6644 36.8513 76.6 37.1491L73.8774 37.0525C73.9579 36.4891 74.1651 35.986 74.4992 35.5433C74.8372 35.0966 75.3001 34.7464 75.8877 34.4929C76.4793 34.2353 77.1896 34.1065 78.0187 34.1065C78.6103 34.1065 79.1557 34.177 79.6547 34.3178C80.1538 34.4547 80.5884 34.6559 80.9587 34.9215C81.329 35.1831 81.6147 35.5051 81.8159 35.8874C82.0212 36.2698 82.1238 36.7064 82.1238 37.1974V43.5H79.3468V42.2081H79.2744C79.1094 42.522 78.8981 42.7876 78.6405 43.005C78.387 43.2223 78.0871 43.3853 77.741 43.494C77.3989 43.6026 77.0126 43.6569 76.5819 43.6569ZM77.4935 41.7251C77.8114 41.7251 78.0972 41.6607 78.3507 41.5319C78.6083 41.4032 78.8136 41.2261 78.9665 41.0007C79.1194 40.7713 79.1959 40.5057 79.1959 40.2038V39.3224C79.1114 39.3667 79.0088 39.4069 78.888 39.4432C78.7713 39.4794 78.6425 39.5136 78.5017 39.5458C78.3608 39.578 78.2159 39.6062 78.067 39.6303C77.9181 39.6545 77.7752 39.6766 77.6384 39.6967C77.3607 39.741 77.1232 39.8094 76.926 39.902C76.7328 39.9945 76.5839 40.1153 76.4793 40.2642C76.3787 40.4091 76.3284 40.5821 76.3284 40.7834C76.3284 41.0892 76.437 41.3227 76.6544 41.4837C76.8757 41.6446 77.1554 41.7251 77.4935 41.7251ZM89.1629 34.2273V36.4006H83.3131V34.2273H89.1629ZM84.5386 32.0057H87.4907V40.5842C87.4907 40.7653 87.5188 40.9122 87.5752 41.0248C87.6355 41.1335 87.7221 41.212 87.8348 41.2603C87.9474 41.3046 88.0823 41.3267 88.2392 41.3267C88.3519 41.3267 88.4706 41.3166 88.5954 41.2965C88.7242 41.2724 88.8208 41.2522 88.8852 41.2361L89.3319 43.3672C89.1911 43.4074 88.9918 43.4577 88.7343 43.5181C88.4807 43.5785 88.1769 43.6167 87.8227 43.6328C87.1305 43.665 86.5368 43.5845 86.0418 43.3913C85.5508 43.1941 85.1745 42.8882 84.9129 42.4737C84.6553 42.0592 84.5305 41.538 84.5386 40.9101V32.0057ZM98.6484 37.0586L95.9378 37.131C95.9097 36.9378 95.8332 36.7668 95.7084 36.6179C95.5837 36.465 95.4207 36.3462 95.2194 36.2617C95.0222 36.1732 94.7928 36.1289 94.5312 36.1289C94.1891 36.1289 93.8973 36.1973 93.6559 36.3342C93.4184 36.471 93.3017 36.6561 93.3057 36.8895C93.3017 37.0707 93.3741 37.2276 93.5231 37.3604C93.676 37.4932 93.9477 37.5999 94.338 37.6804L96.125 38.0185C97.0506 38.1955 97.7388 38.4893 98.1896 38.8998C98.6444 39.3104 98.8738 39.8537 98.8778 40.5298C98.8738 41.1657 98.6846 41.7191 98.3103 42.19C97.9401 42.6609 97.433 43.0271 96.789 43.2887C96.1451 43.5463 95.4086 43.6751 94.5795 43.6751C93.2554 43.6751 92.211 43.4034 91.4464 42.8601C90.6857 42.3127 90.251 41.5802 90.1424 40.6626L93.0582 40.5902C93.1226 40.9283 93.2896 41.1858 93.5593 41.3629C93.8289 41.54 94.173 41.6285 94.5916 41.6285C94.9699 41.6285 95.2778 41.5581 95.5152 41.4172C95.7527 41.2764 95.8734 41.0892 95.8775 40.8558C95.8734 40.6465 95.7809 40.4795 95.5998 40.3547C95.4187 40.226 95.1349 40.1253 94.7486 40.0529L93.1307 39.745C92.201 39.576 91.5087 39.2641 91.054 38.8093C90.5992 38.3505 90.3738 37.7669 90.3778 37.0586C90.3738 36.4388 90.5388 35.9096 90.8728 35.4709C91.2069 35.0282 91.6818 34.6901 92.2976 34.4567C92.9133 34.2232 93.6398 34.1065 94.4769 34.1065C95.7326 34.1065 96.7226 34.3701 97.4471 34.8974C98.1715 35.4206 98.5719 36.141 98.6484 37.0586ZM100.331 43.5V31.1364H103.283V35.815H103.344C103.464 35.5333 103.635 35.2616 103.857 35C104.082 34.7384 104.368 34.5251 104.714 34.3601C105.064 34.191 105.483 34.1065 105.97 34.1065C106.614 34.1065 107.215 34.2756 107.775 34.6136C108.338 34.9517 108.793 35.4729 109.139 36.1772C109.485 36.8815 109.658 37.779 109.658 38.8697C109.658 39.9201 109.491 40.7995 109.157 41.5078C108.827 42.2161 108.38 42.7474 107.817 43.1016C107.258 43.4557 106.636 43.6328 105.952 43.6328C105.485 43.6328 105.08 43.5563 104.738 43.4034C104.396 43.2505 104.108 43.0492 103.875 42.7997C103.645 42.5502 103.468 42.2825 103.344 41.9968H103.253V43.5H100.331ZM103.223 38.8636C103.223 39.3627 103.289 39.7973 103.422 40.1676C103.559 40.5379 103.754 40.8256 104.008 41.0309C104.265 41.2321 104.573 41.3327 104.931 41.3327C105.294 41.3327 105.601 41.2321 105.855 41.0309C106.109 40.8256 106.3 40.5379 106.429 40.1676C106.561 39.7973 106.628 39.3627 106.628 38.8636C106.628 38.3646 106.561 37.9319 106.429 37.5657C106.3 37.1994 106.109 36.9157 105.855 36.7145C105.605 36.5132 105.298 36.4126 104.931 36.4126C104.569 36.4126 104.261 36.5112 104.008 36.7084C103.754 36.9056 103.559 37.1874 103.422 37.5536C103.289 37.9199 103.223 38.3565 103.223 38.8636ZM112.711 46.9773C112.357 46.9773 112.023 46.9491 111.709 46.8927C111.395 46.8404 111.126 46.77 110.9 46.6815L111.552 44.5383C111.842 44.6349 112.104 44.6913 112.337 44.7074C112.575 44.7235 112.778 44.6852 112.947 44.5927C113.12 44.5041 113.253 44.3452 113.345 44.1158L113.46 43.8381L110.164 34.2273H113.255L114.963 40.8437H115.06L116.792 34.2273H119.901L116.406 44.3874C116.237 44.8945 115.998 45.3413 115.688 45.7276C115.382 46.118 114.985 46.4239 114.498 46.6452C114.015 46.8666 113.42 46.9773 112.711 46.9773Z" fill="#663399"/>
</g>
<defs>
<filter id="filter0_d_1_50" x="6.28571" y="2.28571" width="51.4286" height="51.4286" filterUnits="userSpaceOnUse" color-interpolation-filters="sRGB">
<feFlood flood-opacity="0" result="BackgroundImageFix"/>
<feColorMatrix in="SourceAlpha" type="matrix" values="0 0 0 0 0 0 0 0 0 0 0 0 0 0 0 0 0 0 127 0" result="hardAlpha"/>
<feOffset/>
<feGaussianBlur stdDeviation="2.85714"/>
<feComposite in2="hardAlpha" operator="out"/>
<feColorMatrix type="matrix" values="0 0 0 0 0 0 0 0 0 0 0 0 0 0 0 0 0 0 0.25 0"/>
<feBlend mode="normal" in2="BackgroundImageFix" result="effect1_dropShadow_1_50"/>
<feBlend mode="normal" in="SourceGraphic" in2="effect1_dropShadow_1_50" result="shape"/>
</filter>
<filter id="filter1_d_1_50" x="54.4" y="3.9" width="83.2" height="48.6773" filterUnits="userSpaceOnUse" color-interpolation-filters="sRGB">
<feFlood flood-opacity="0" result="BackgroundImageFix"/>
<feColorMatrix in="SourceAlpha" type="matrix" values="0 0 0 0 0 0 0 0 0 0 0 0 0 0 0 0 0 0 127 0" result="hardAlpha"/>
<feOffset/>
<feGaussianBlur stdDeviation="2.8"/>
<feComposite in2="hardAlpha" operator="out"/>
<feColorMatrix type="matrix" values="0 0 0 0 0 0 0 0 0 0 0 0 0 0 0 0 0 0 0.25 0"/>
<feBlend mode="normal" in2="BackgroundImageFix" result="effect1_dropShadow_1_50"/>
<feBlend mode="normal" in="SourceGraphic" in2="effect1_dropShadow_1_50" result="shape"/>
</filter>
<linearGradient id="paint0_linear_1_50" x1="72" y1="0" x2="72" y2="56" gradientUnits="userSpaceOnUse">
<stop stop-color="#1F0F2E"/>
<stop offset="1" stop-color="#140A1F"/>
</linearGradient>
</defs>
</svg>
