<svg width="56" height="56" viewBox="0 0 56 56" fill="none" xmlns="http://www.w3.org/2000/svg">
<rect width="56" height="56" rx="8.4" fill="url(#paint0_linear_1_62)"/>
<rect x="1.05" y="1.05" width="53.9" height="53.9" rx="7.35" stroke="white" stroke-opacity="0.15" stroke-width="2.1"/>
<g filter="url(#filter0_d_1_62)">
<path d="M28 48C39.0457 48 48 39.0457 48 28C48 16.9543 39.0457 8 28 8C16.9543 8 8 16.9543 8 28C8 39.0457 16.9543 48 28 48Z" fill="#663399"/>
<path d="M16.8571 39.1429C13.8571 36.1429 12.2857 32.1429 12.2857 28.2857L27.8571 43.7143C23.8571 43.5714 19.8571 42.1429 16.8571 39.1429ZM31.4286 43.2857L12.7143 24.5714C14.2857 17.5714 20.5714 12.2857 28 12.2857C33.2857 12.2857 37.8571 14.8571 40.7143 18.7143L38.5714 20.5714C36.1429 17.2857 32.2857 15.1429 28 15.1429C22.4286 15.1429 17.7143 18.7143 15.8571 23.7143L32.2857 40.1429C36.4286 38.7143 39.5714 35.1429 40.5714 30.8571H33.7143V28H43.7143C43.7143 35.4286 38.4286 41.7143 31.4286 43.2857Z" fill="white"/>
</g>
<defs>
<filter id="filter0_d_1_62" x="2.28571" y="2.28571" width="51.4286" height="51.4286" filterUnits="userSpaceOnUse" color-interpolation-filters="sRGB">
<feFlood flood-opacity="0" result="BackgroundImageFix"/>
<feColorMatrix in="SourceAlpha" type="matrix" values="0 0 0 0 0 0 0 0 0 0 0 0 0 0 0 0 0 0 127 0" result="hardAlpha"/>
<feOffset/>
<feGaussianBlur stdDeviation="2.85714"/>
<feComposite in2="hardAlpha" operator="out"/>
<feColorMatrix type="matrix" values="0 0 0 0 0 0 0 0 0 0 0 0 0 0 0 0 0 0 0.25 0"/>
<feBlend mode="normal" in2="BackgroundImageFix" result="effect1_dropShadow_1_62"/>
<feBlend mode="normal" in="SourceGraphic" in2="effect1_dropShadow_1_62" result="shape"/>
</filter>
<linearGradient id="paint0_linear_1_62" x1="28" y1="0" x2="28" y2="56" gradientUnits="userSpaceOnUse">
<stop stop-color="#1F0F2E"/>
<stop offset="1" stop-color="#140A1F"/>
</linearGradient>
</defs>
</svg>
