<svg width="222" height="40" viewBox="0 0 222 40" fill="none" xmlns="http://www.w3.org/2000/svg">
<rect width="222.001" height="40.0014" rx="8" fill="url(#paint0_linear_1_56)"/>
<rect x="1.07143" y="1.07143" width="219.858" height="37.8585" rx="6.92857" stroke="white" stroke-opacity="0.15" stroke-width="2.14286"/>
<g filter="url(#filter0_d_1_56)">
<path d="M35.9744 6.4585C35.9674 6.427 35.9674 6.39315 35.9545 6.36285C35.895 6.2182 35.7806 6.10385 35.636 6.04435C35.6056 6.0315 35.573 6.0327 35.5404 6.0245C35.5006 6.01635 35.461 6 35.4166 6H16.75C16.7161 6 16.6859 6.014 16.6531 6.01985C16.6111 6.02685 16.568 6.028 16.5283 6.04435C16.4559 6.0747 16.3918 6.1167 16.3369 6.1715L8.17035 14.3381C8.1657 14.3428 8.1645 14.3498 8.1587 14.3545C8.11205 14.4046 8.0712 14.4619 8.04435 14.526C8.01515 14.5995 8 14.6754 8 14.7524V33.4167C8 33.7386 8.26135 34 8.58335 34H27.25C27.3259 34 27.4016 33.9849 27.4729 33.9545C27.5382 33.9276 27.5942 33.8869 27.6455 33.8401C27.6501 33.8355 27.6571 33.8343 27.6619 33.8296L35.8285 25.663C35.8821 25.6094 35.9254 25.544 35.9545 25.4729C35.9709 25.432 35.9731 25.39 35.9801 25.3469C35.986 25.3142 36 25.2839 36 25.25V6.58335C36 6.539 35.9836 6.49935 35.9744 6.4585ZM26.6666 32.8334H9.16665V15.3334H26.6666V32.8334ZM27.0085 14.1666H9.9915L16.9915 7.16665H34.0085L27.0085 14.1666ZM34.8334 25.0085L27.8334 32.0085V14.9915L34.8334 7.9915V25.0085Z" fill="white"/>
</g>
<g filter="url(#filter1_d_1_56)">
<path d="M43.3597 26.5007V14.1371H47.7667C48.7245 14.1371 49.5194 14.3021 50.1513 14.6321C50.7871 14.9621 51.262 15.4189 51.576 16.0025C51.8899 16.582 52.0468 17.2521 52.0468 18.0128C52.0468 18.7694 51.8879 19.4355 51.5699 20.011C51.256 20.5825 50.7811 21.0272 50.1452 21.3452C49.5133 21.6631 48.7185 21.8221 47.7606 21.8221H44.4222V20.2163H47.5916C48.1953 20.2163 48.6863 20.1297 49.0646 19.9567C49.4469 19.7836 49.7267 19.5321 49.9037 19.202C50.0808 18.872 50.1694 18.4756 50.1694 18.0128C50.1694 17.5459 50.0788 17.1414 49.8977 16.7994C49.7206 16.4573 49.4409 16.1957 49.0586 16.0145C48.6803 15.8294 48.1832 15.7369 47.5674 15.7369H45.2251V26.5007H43.3597ZM49.463 20.9226L52.5177 26.5007H50.3927L47.3984 20.9226H49.463ZM58.0521 26.6878C57.1385 26.6878 56.3517 26.4926 55.6916 26.1023C55.0356 25.7078 54.5285 25.1545 54.1703 24.4421C53.8162 23.7257 53.6391 22.8866 53.6391 21.9247C53.6391 20.9749 53.8162 20.1378 54.1703 19.4133C54.5285 18.6889 55.0276 18.1234 55.6675 17.717C56.3114 17.3105 57.064 17.1072 57.9253 17.1072C58.4485 17.1072 58.9556 17.1938 59.4466 17.3668C59.9376 17.5399 60.3783 17.8115 60.7687 18.1818C61.1591 18.5521 61.467 19.033 61.6924 19.6246C61.9177 20.2122 62.0304 20.9266 62.0304 21.7677V22.4077H54.6593V21.0554H60.2616C60.2616 20.5805 60.165 20.1599 59.9718 19.7937C59.7786 19.4234 59.507 19.1316 59.1568 18.9183C58.8107 18.705 58.4042 18.5984 57.9374 18.5984C57.4303 18.5984 56.9876 18.7231 56.6093 18.9726C56.235 19.2181 55.9452 19.5401 55.7399 19.9386C55.5387 20.333 55.4381 20.7616 55.4381 21.2244V22.2809C55.4381 22.9007 55.5468 23.4279 55.7641 23.8626C55.9854 24.2972 56.2933 24.6292 56.6877 24.8587C57.0822 25.084 57.543 25.1967 58.0702 25.1967C58.4123 25.1967 58.7242 25.1484 59.0059 25.0518C59.2876 24.9512 59.5311 24.8023 59.7364 24.6051C59.9416 24.4079 60.0986 24.1644 60.2073 23.8746L61.9157 24.1825C61.7789 24.6856 61.5334 25.1263 61.1792 25.5046C60.8291 25.8789 60.3884 26.1707 59.8571 26.38C59.3299 26.5852 58.7282 26.6878 58.0521 26.6878ZM70.2935 29.978V25.0579H70.1848C70.0761 25.2551 69.9192 25.4805 69.7139 25.734C69.5127 25.9876 69.235 26.2089 68.8808 26.3981C68.5267 26.5872 68.0679 26.6818 67.5044 26.6818C66.7558 26.6818 66.0877 26.4906 65.5001 26.1083C64.9166 25.7219 64.4578 25.1726 64.1237 24.4602C63.7937 23.7438 63.6287 22.8846 63.6287 21.8824C63.6287 20.8803 63.7957 20.0231 64.1298 19.3107C64.4678 18.5984 64.9307 18.053 65.5183 17.6747C66.1059 17.2964 66.7719 17.1072 67.5165 17.1072C68.092 17.1072 68.5548 17.2038 68.905 17.397C69.2591 17.5862 69.5328 17.8075 69.726 18.0611C69.9232 18.3146 70.0761 18.538 70.1848 18.7312H70.3357V17.228H72.0985V29.978H70.2935ZM67.9028 25.1424C68.422 25.1424 68.8607 25.0056 69.2189 24.7319C69.5811 24.4542 69.8548 24.0698 70.0399 23.5788C70.2291 23.0878 70.3237 22.5163 70.3237 21.8643C70.3237 21.2204 70.2311 20.6569 70.046 20.174C69.8608 19.691 69.5892 19.3147 69.231 19.0451C68.8728 18.7754 68.4301 18.6406 67.9028 18.6406C67.3595 18.6406 66.9068 18.7815 66.5445 19.0632C66.1823 19.3449 65.9086 19.7293 65.7235 20.2163C65.5424 20.7032 65.4519 21.2526 65.4519 21.8643C65.4519 22.4841 65.5444 23.0415 65.7295 23.5366C65.9147 24.0316 66.1884 24.424 66.5506 24.7138C66.9168 24.9995 67.3676 25.1424 67.9028 25.1424ZM80.3993 22.6552V17.228H82.2104V26.5007H80.4355V24.8949H80.3389C80.1256 25.3899 79.7835 25.8024 79.3126 26.1324C78.8458 26.4584 78.2642 26.6214 77.568 26.6214C76.9723 26.6214 76.4451 26.4906 75.9863 26.229C75.5315 25.9634 75.1733 25.571 74.9117 25.0518C74.6541 24.5327 74.5254 23.8907 74.5254 23.1261V17.228H76.3304V22.9087C76.3304 23.5406 76.5055 24.0437 76.8556 24.418C77.2058 24.7922 77.6605 24.9794 78.22 24.9794C78.558 24.9794 78.8941 24.8949 79.2281 24.7258C79.5662 24.5568 79.8459 24.3012 80.0673 23.9591C80.2926 23.6171 80.4033 23.1824 80.3993 22.6552ZM84.6357 26.5007V17.228H86.4407V26.5007H84.6357ZM85.5473 15.7972C85.2334 15.7972 84.9637 15.6926 84.7383 15.4833C84.517 15.27 84.4063 15.0164 84.4063 14.7226C84.4063 14.4248 84.517 14.1713 84.7383 13.962C84.9637 13.7487 85.2334 13.642 85.5473 13.642C85.8612 13.642 86.1288 13.7487 86.3502 13.962C86.5756 14.1713 86.6883 14.4248 86.6883 14.7226C86.6883 15.0164 86.5756 15.27 86.3502 15.4833C86.1288 15.6926 85.8612 15.7972 85.5473 15.7972ZM88.8691 26.5007V17.228H90.6138V18.701H90.7104C90.8794 18.2019 91.1772 17.8095 91.6038 17.5238C92.0345 17.234 92.5214 17.0891 93.0648 17.0891C93.1775 17.0891 93.3103 17.0931 93.4632 17.1012C93.6202 17.1092 93.7429 17.1193 93.8315 17.1314V18.8579C93.759 18.8378 93.6302 18.8157 93.4451 18.7915C93.26 18.7634 93.0748 18.7493 92.8897 18.7493C92.4631 18.7493 92.0828 18.8398 91.7487 19.0209C91.4187 19.198 91.1571 19.4455 90.9639 19.7635C90.7707 20.0774 90.6741 20.4356 90.6741 20.8381V26.5007H88.8691ZM99.0579 26.6878C98.1443 26.6878 97.3575 26.4926 96.6975 26.1023C96.0415 25.7078 95.5344 25.1545 95.1762 24.4421C94.822 23.7257 94.6449 22.8866 94.6449 21.9247C94.6449 20.9749 94.822 20.1378 95.1762 19.4133C95.5344 18.6889 96.0334 18.1234 96.6733 17.717C97.3173 17.3105 98.0699 17.1072 98.9312 17.1072C99.4544 17.1072 99.9615 17.1938 100.452 17.3668C100.943 17.5399 101.384 17.8115 101.775 18.1818C102.165 18.5521 102.473 19.033 102.698 19.6246C102.924 20.2122 103.036 20.9266 103.036 21.7677V22.4077H95.6652V21.0554H101.267C101.267 20.5805 101.171 20.1599 100.978 19.7937C100.784 19.4234 100.513 19.1316 100.163 18.9183C99.8166 18.705 99.4101 18.5984 98.9432 18.5984C98.4361 18.5984 97.9934 18.7231 97.6151 18.9726C97.2408 19.2181 96.951 19.5401 96.7458 19.9386C96.5446 20.333 96.4439 20.7616 96.4439 21.2244V22.2809C96.4439 22.9007 96.5526 23.4279 96.7699 23.8626C96.9913 24.2972 97.2992 24.6292 97.6936 24.8587C98.088 25.084 98.5488 25.1967 99.076 25.1967C99.4181 25.1967 99.73 25.1484 100.012 25.0518C100.293 24.9512 100.537 24.8023 100.742 24.6051C100.947 24.4079 101.104 24.1644 101.213 23.8746L102.922 24.1825C102.785 24.6856 102.539 25.1263 102.185 25.5046C101.835 25.8789 101.394 26.1707 100.863 26.38C100.336 26.5852 99.7341 26.6878 99.0579 26.6878ZM111.988 19.4918L110.352 19.7816C110.283 19.5723 110.174 19.3731 110.026 19.1839C109.881 18.9948 109.683 18.8398 109.434 18.7191C109.184 18.5984 108.872 18.538 108.498 18.538C107.987 18.538 107.56 18.6527 107.218 18.8821C106.876 19.1075 106.705 19.3993 106.705 19.7574C106.705 20.0673 106.82 20.3169 107.049 20.506C107.279 20.6952 107.649 20.8501 108.16 20.9709L109.633 21.3089C110.486 21.5061 111.122 21.81 111.541 22.2205C111.959 22.631 112.169 23.1643 112.169 23.8203C112.169 24.3757 112.008 24.8707 111.686 25.3054C111.368 25.736 110.923 26.0741 110.352 26.3196C109.784 26.5651 109.126 26.6878 108.377 26.6878C107.339 26.6878 106.492 26.4665 105.836 26.0238C105.18 25.577 104.777 24.9432 104.629 24.1221L106.373 23.8565C106.482 24.3113 106.705 24.6554 107.043 24.8888C107.381 25.1182 107.822 25.2329 108.365 25.2329C108.957 25.2329 109.43 25.1102 109.784 24.8647C110.138 24.6152 110.315 24.3113 110.315 23.9531C110.315 23.6633 110.207 23.4199 109.989 23.2226C109.776 23.0254 109.448 22.8765 109.005 22.7759L107.436 22.4318C106.57 22.2346 105.93 21.9207 105.516 21.49C105.105 21.0594 104.9 20.5141 104.9 19.854C104.9 19.3067 105.053 18.8278 105.359 18.4172C105.665 18.0067 106.087 17.6868 106.627 17.4574C107.166 17.2239 107.784 17.1072 108.48 17.1072C109.482 17.1072 110.271 17.3246 110.847 17.7592C111.422 18.1899 111.802 18.7674 111.988 19.4918Z" fill="#E8E8E8"/>
<path d="M117.937 26.5007V14.1371H123.044C123.97 14.1371 124.769 14.3182 125.441 14.6804C126.117 15.0386 126.638 15.5396 127.005 16.1836C127.371 16.8235 127.554 17.5681 127.554 18.4172C127.554 19.2705 127.367 20.017 126.992 20.6569C126.622 21.2928 126.093 21.7859 125.405 22.136C124.717 22.4861 123.9 22.6612 122.954 22.6612H119.803V20.3068H122.398C122.849 20.3068 123.225 20.2283 123.527 20.0714C123.833 19.9144 124.065 19.6951 124.222 19.4133C124.379 19.1276 124.457 18.7956 124.457 18.4172C124.457 18.0349 124.379 17.7049 124.222 17.4272C124.065 17.1455 123.833 16.9281 123.527 16.7752C123.221 16.6223 122.845 16.5458 122.398 16.5458H120.925V26.5007H117.937ZM129.027 26.5007V17.228H131.894V18.9183H131.991C132.16 18.3066 132.436 17.8518 132.818 17.554C133.2 17.2521 133.645 17.1012 134.152 17.1012C134.289 17.1012 134.43 17.1113 134.575 17.1314C134.72 17.1475 134.855 17.1736 134.979 17.2099V19.7756C134.838 19.7273 134.653 19.689 134.424 19.6609C134.199 19.6327 133.997 19.6186 133.82 19.6186C133.47 19.6186 133.154 19.6971 132.872 19.854C132.595 20.007 132.375 20.2223 132.214 20.5C132.057 20.7737 131.979 21.0956 131.979 21.4659V26.5007H129.027ZM140.029 26.6758C139.055 26.6758 138.218 26.4765 137.518 26.0781C136.822 25.6756 136.284 25.1162 135.906 24.3998C135.532 23.6794 135.345 22.8443 135.345 21.8945C135.345 20.9407 135.532 20.1056 135.906 19.3892C136.284 18.6688 136.822 18.1094 137.518 17.7109C138.218 17.3085 139.055 17.1072 140.029 17.1072C141.003 17.1072 141.838 17.3085 142.535 17.7109C143.235 18.1094 143.772 18.6688 144.146 19.3892C144.525 20.1056 144.714 20.9407 144.714 21.8945C144.714 22.8443 144.525 23.6794 144.146 24.3998C143.772 25.1162 143.235 25.6756 142.535 26.0781C141.838 26.4765 141.003 26.6758 140.029 26.6758ZM140.047 24.4481C140.402 24.4481 140.701 24.3395 140.947 24.1221C141.192 23.9048 141.38 23.603 141.508 23.2166C141.641 22.8302 141.708 22.3835 141.708 21.8764C141.708 21.3613 141.641 20.9105 141.508 20.5241C141.38 20.1378 141.192 19.8359 140.947 19.6186C140.701 19.4013 140.402 19.2926 140.047 19.2926C139.681 19.2926 139.371 19.4013 139.118 19.6186C138.868 19.8359 138.677 20.1378 138.544 20.5241C138.415 20.9105 138.351 21.3613 138.351 21.8764C138.351 22.3835 138.415 22.8302 138.544 23.2166C138.677 23.603 138.868 23.9048 139.118 24.1221C139.371 24.3395 139.681 24.4481 140.047 24.4481ZM151.46 17.228V19.4013H145.61V17.228H151.46ZM146.836 15.0064H149.788V23.5849C149.788 23.766 149.816 23.9129 149.872 24.0256C149.933 24.1342 150.019 24.2127 150.132 24.261C150.245 24.3053 150.38 24.3274 150.537 24.3274C150.649 24.3274 150.768 24.3173 150.893 24.2972C151.021 24.2731 151.118 24.2529 151.182 24.2368L151.629 26.3679C151.488 26.4081 151.289 26.4584 151.032 26.5188C150.778 26.5792 150.474 26.6174 150.12 26.6335C149.428 26.6657 148.834 26.5852 148.339 26.392C147.848 26.1948 147.472 25.889 147.21 25.4744C146.953 25.0599 146.828 24.5387 146.836 23.9109V15.0064ZM157.195 26.6758C156.221 26.6758 155.384 26.4765 154.684 26.0781C153.988 25.6756 153.45 25.1162 153.072 24.3998C152.698 23.6794 152.511 22.8443 152.511 21.8945C152.511 20.9407 152.698 20.1056 153.072 19.3892C153.45 18.6688 153.988 18.1094 154.684 17.7109C155.384 17.3085 156.221 17.1072 157.195 17.1072C158.169 17.1072 159.004 17.3085 159.701 17.7109C160.401 18.1094 160.938 18.6688 161.312 19.3892C161.691 20.1056 161.88 20.9407 161.88 21.8945C161.88 22.8443 161.691 23.6794 161.312 24.3998C160.938 25.1162 160.401 25.6756 159.701 26.0781C159.004 26.4765 158.169 26.6758 157.195 26.6758ZM157.213 24.4481C157.568 24.4481 157.867 24.3395 158.113 24.1221C158.358 23.9048 158.546 23.603 158.674 23.2166C158.807 22.8302 158.874 22.3835 158.874 21.8764C158.874 21.3613 158.807 20.9105 158.674 20.5241C158.546 20.1378 158.358 19.8359 158.113 19.6186C157.867 19.4013 157.568 19.2926 157.213 19.2926C156.847 19.2926 156.537 19.4013 156.284 19.6186C156.034 19.8359 155.843 20.1378 155.71 20.5241C155.581 20.9105 155.517 21.3613 155.517 21.8764C155.517 22.3835 155.581 22.8302 155.71 23.2166C155.843 23.603 156.034 23.9048 156.284 24.1221C156.537 24.3395 156.847 24.4481 157.213 24.4481ZM167.721 26.6758C166.743 26.6758 165.904 26.4745 165.203 26.0721C164.507 25.6696 163.972 25.1102 163.597 24.3938C163.223 23.6734 163.036 22.8403 163.036 21.8945C163.036 20.9447 163.223 20.1116 163.597 19.3952C163.976 18.6748 164.513 18.1134 165.209 17.7109C165.91 17.3085 166.745 17.1072 167.715 17.1072C168.572 17.1072 169.318 17.2622 169.954 17.5721C170.594 17.882 171.093 18.3207 171.451 18.8881C171.814 19.4516 172.005 20.1136 172.025 20.8743H169.266C169.21 20.3994 169.049 20.0271 168.783 19.7574C168.522 19.4878 168.179 19.353 167.757 19.353C167.415 19.353 167.115 19.4496 166.857 19.6427C166.6 19.8319 166.399 20.1136 166.254 20.4879C166.113 20.8582 166.042 21.317 166.042 21.8643C166.042 22.4117 166.113 22.8745 166.254 23.2528C166.399 23.6271 166.6 23.9109 166.857 24.104C167.115 24.2932 167.415 24.3878 167.757 24.3878C168.031 24.3878 168.272 24.3294 168.481 24.2127C168.695 24.096 168.87 23.9249 169.007 23.6996C169.143 23.4702 169.23 23.1925 169.266 22.8665H172.025C171.997 23.6311 171.806 24.2992 171.451 24.8707C171.101 25.4422 170.608 25.8869 169.972 26.2049C169.341 26.5188 168.59 26.6758 167.721 26.6758ZM177.864 26.6758C176.89 26.6758 176.053 26.4765 175.353 26.0781C174.657 25.6756 174.119 25.1162 173.741 24.3998C173.367 23.6794 173.18 22.8443 173.18 21.8945C173.18 20.9407 173.367 20.1056 173.741 19.3892C174.119 18.6688 174.657 18.1094 175.353 17.7109C176.053 17.3085 176.89 17.1072 177.864 17.1072C178.838 17.1072 179.673 17.3085 180.37 17.7109C181.07 18.1094 181.607 18.6688 181.981 19.3892C182.36 20.1056 182.549 20.9407 182.549 21.8945C182.549 22.8443 182.36 23.6794 181.981 24.3998C181.607 25.1162 181.07 25.6756 180.37 26.0781C179.673 26.4765 178.838 26.6758 177.864 26.6758ZM177.882 24.4481C178.236 24.4481 178.536 24.3395 178.782 24.1221C179.027 23.9048 179.214 23.603 179.343 23.2166C179.476 22.8302 179.542 22.3835 179.542 21.8764C179.542 21.3613 179.476 20.9105 179.343 20.5241C179.214 20.1378 179.027 19.8359 178.782 19.6186C178.536 19.4013 178.236 19.2926 177.882 19.2926C177.516 19.2926 177.206 19.4013 176.953 19.6186C176.703 19.8359 176.512 20.1378 176.379 20.5241C176.25 20.9105 176.186 21.3613 176.186 21.8764C176.186 22.3835 176.25 22.8302 176.379 23.2166C176.512 23.603 176.703 23.9048 176.953 24.1221C177.206 24.3395 177.516 24.4481 177.882 24.4481ZM187.013 14.1371V26.5007H184.061V14.1371H187.013ZM188.892 26.5007V14.1371H191.88V24.0739H197.024V26.5007H188.892ZM198.571 26.5007V17.228H201.523V26.5007H198.571ZM200.05 16.1474C199.635 16.1474 199.279 16.0105 198.981 15.7369C198.684 15.4592 198.535 15.1251 198.535 14.7347C198.535 14.3484 198.684 14.0183 198.981 13.7447C199.279 13.467 199.635 13.3281 200.05 13.3281C200.468 13.3281 200.825 13.467 201.118 13.7447C201.416 14.0183 201.565 14.3484 201.565 14.7347C201.565 15.1251 201.416 15.4592 201.118 15.7369C200.825 16.0105 200.468 16.1474 200.05 16.1474ZM203.402 26.5007V14.1371H206.354V18.8157H206.414C206.535 18.534 206.706 18.2623 206.927 18.0007C207.153 17.7391 207.439 17.5258 207.785 17.3608C208.135 17.1918 208.553 17.1072 209.04 17.1072C209.684 17.1072 210.286 17.2763 210.845 17.6143C211.409 17.9524 211.864 18.4736 212.21 19.1779C212.556 19.8822 212.729 20.7797 212.729 21.8704C212.729 22.9208 212.562 23.8002 212.228 24.5085C211.898 25.2168 211.451 25.7481 210.888 26.1023C210.328 26.4564 209.706 26.6335 209.022 26.6335C208.555 26.6335 208.151 26.557 207.809 26.4041C207.467 26.2512 207.179 26.0499 206.946 25.8004C206.716 25.5509 206.539 25.2832 206.414 24.9975H206.324V26.5007H203.402ZM206.294 21.8643C206.294 22.3634 206.36 22.798 206.493 23.1683C206.63 23.5386 206.825 23.8263 207.078 24.0316C207.336 24.2328 207.644 24.3334 208.002 24.3334C208.364 24.3334 208.672 24.2328 208.926 24.0316C209.179 23.8263 209.37 23.5386 209.499 23.1683C209.632 22.798 209.698 22.3634 209.698 21.8643C209.698 21.3653 209.632 20.9326 209.499 20.5664C209.37 20.2002 209.179 19.9164 208.926 19.7152C208.676 19.514 208.368 19.4133 208.002 19.4133C207.64 19.4133 207.332 19.5119 207.078 19.7092C206.825 19.9064 206.63 20.1881 206.493 20.5543C206.36 20.9206 206.294 21.3572 206.294 21.8643Z" fill="white"/>
</g>
<defs>
<filter id="filter0_d_1_56" x="2.39972" y="0.39972" width="39.202" height="39.202" filterUnits="userSpaceOnUse" color-interpolation-filters="sRGB">
<feFlood flood-opacity="0" result="BackgroundImageFix"/>
<feColorMatrix in="SourceAlpha" type="matrix" values="0 0 0 0 0 0 0 0 0 0 0 0 0 0 0 0 0 0 127 0" result="hardAlpha"/>
<feOffset/>
<feGaussianBlur stdDeviation="2.80014"/>
<feComposite in2="hardAlpha" operator="out"/>
<feColorMatrix type="matrix" values="0 0 0 0 0 0 0 0 0 0 0 0 0 0 0 0 0 0 0.25 0"/>
<feBlend mode="normal" in2="BackgroundImageFix" result="effect1_dropShadow_1_56"/>
<feBlend mode="normal" in="SourceGraphic" in2="effect1_dropShadow_1_56" result="shape"/>
</filter>
<filter id="filter1_d_1_56" x="36.2871" y="3.78642" width="183.429" height="32.4286" filterUnits="userSpaceOnUse" color-interpolation-filters="sRGB">
<feFlood flood-opacity="0" result="BackgroundImageFix"/>
<feColorMatrix in="SourceAlpha" type="matrix" values="0 0 0 0 0 0 0 0 0 0 0 0 0 0 0 0 0 0 127 0" result="hardAlpha"/>
<feOffset/>
<feGaussianBlur stdDeviation="2.85714"/>
<feComposite in2="hardAlpha" operator="out"/>
<feColorMatrix type="matrix" values="0 0 0 0 0 0 0 0 0 0 0 0 0 0 0 0 0 0 0.25 0"/>
<feBlend mode="normal" in2="BackgroundImageFix" result="effect1_dropShadow_1_56"/>
<feBlend mode="normal" in="SourceGraphic" in2="effect1_dropShadow_1_56" result="shape"/>
</filter>
<linearGradient id="paint0_linear_1_56" x1="111.001" y1="0" x2="111.001" y2="40.0014" gradientUnits="userSpaceOnUse">
<stop stop-color="#2D2D2D"/>
<stop offset="0.9984" stop-color="#161616"/>
<stop offset="0.9985" stop-color="#1A1711"/>
<stop offset="0.9986" stop-color="#352329"/>
<stop offset="0.9987" stop-color="#20332E"/>
<stop offset="0.9988" stop-color="#161616"/>
</linearGradient>
</defs>
</svg>
