<svg width="169" height="56" viewBox="0 0 169 56" fill="none" xmlns="http://www.w3.org/2000/svg">
<rect width="169" height="56" rx="8" fill="url(#paint0_linear_1_50)"/>
<rect x="1.05" y="1.05" width="166.9" height="53.9" rx="6.95" stroke="white" stroke-opacity="0.15" stroke-width="2.1"/>
<g filter="url(#filter0_d_1_50)">
<path d="M51.9634 8.655C51.9534 8.61 51.9534 8.56164 51.935 8.51836C51.85 8.31172 51.6866 8.14836 51.48 8.06336C51.4366 8.045 51.39 8.04672 51.3434 8.035C51.2866 8.02336 51.23 8 51.1666 8H24.5C24.4516 8 24.4084 8.02 24.3616 8.02836C24.3016 8.03836 24.24 8.04 24.1833 8.06336C24.0799 8.10672 23.9883 8.16672 23.9099 8.245L12.2434 19.9116C12.2367 19.9183 12.235 19.9283 12.2267 19.935C12.1601 20.0066 12.1017 20.0884 12.0634 20.18C12.0216 20.285 12 20.3934 12 20.5034V47.1667C12 47.6266 12.3734 48 12.8334 48H39.5C39.6084 48 39.7166 47.9784 39.8184 47.935C39.9117 47.8966 39.9917 47.8384 40.065 47.7716C40.0716 47.765 40.0816 47.7633 40.0884 47.7566L51.755 36.09C51.8316 36.0134 51.8934 35.92 51.935 35.8184C51.9584 35.76 51.9616 35.7 51.9716 35.6384C51.98 35.5917 52 35.5484 52 35.5V8.83336C52 8.77 51.9766 8.71336 51.9634 8.655ZM38.6666 46.3334H13.6666V21.3334H38.6666V46.3334ZM39.155 19.6666H14.845L24.845 9.66664H49.155L39.155 19.6666ZM50.3334 35.155L40.3334 45.155V20.845L50.3334 10.845V35.155Z" fill="white"/>
</g>
<g filter="url(#filter1_d_1_50)">
<path d="M61.2784 24.5V12.8636H65.4261C66.3276 12.8636 67.0757 13.0189 67.6704 13.3295C68.2689 13.6401 68.7159 14.0701 69.0113 14.6193C69.3068 15.1648 69.4545 15.7954 69.4545 16.5114C69.4545 17.2235 69.3049 17.8504 69.0057 18.392C68.7102 18.9299 68.2632 19.3485 67.6648 19.6477C67.0701 19.947 66.322 20.0966 65.4204 20.0966H62.2784V18.5852H65.2613C65.8295 18.5852 66.2916 18.5038 66.6477 18.3409C67.0076 18.178 67.2708 17.9413 67.4375 17.6307C67.6041 17.3201 67.6875 16.947 67.6875 16.5114C67.6875 16.072 67.6023 15.6913 67.4318 15.3693C67.2651 15.0473 67.0019 14.8011 66.642 14.6307C66.286 14.4564 65.8182 14.3693 65.2386 14.3693H63.0341V24.5H61.2784ZM67.0227 19.25L69.8977 24.5H67.8977L65.0795 19.25H67.0227ZM75.1065 24.6761C74.2467 24.6761 73.5061 24.4924 72.8849 24.125C72.2675 23.7538 71.7902 23.2329 71.4531 22.5625C71.1198 21.8883 70.9531 21.0985 70.9531 20.1932C70.9531 19.2992 71.1198 18.5114 71.4531 17.8295C71.7902 17.1477 72.2599 16.6155 72.8622 16.2329C73.4683 15.8504 74.1766 15.6591 74.9872 15.6591C75.4796 15.6591 75.9569 15.7405 76.419 15.9034C76.8811 16.0663 77.2959 16.322 77.6633 16.6704C78.0308 17.0189 78.3205 17.4716 78.5327 18.0284C78.7448 18.5814 78.8508 19.2538 78.8508 20.0454V20.6477H71.9133V19.375H77.1861C77.1861 18.928 77.0952 18.5322 76.9133 18.1875C76.7315 17.839 76.4758 17.5644 76.1463 17.3636C75.8205 17.1629 75.438 17.0625 74.9986 17.0625C74.5213 17.0625 74.1046 17.1799 73.7486 17.4148C73.3963 17.6458 73.1236 17.9489 72.9304 18.3239C72.741 18.6951 72.6463 19.0985 72.6463 19.5341V20.5284C72.6463 21.1117 72.7486 21.6079 72.9531 22.017C73.1614 22.4261 73.4512 22.7386 73.8224 22.9545C74.1936 23.1667 74.6273 23.2727 75.1236 23.2727C75.4455 23.2727 75.7391 23.2273 76.0042 23.1364C76.2694 23.0417 76.4986 22.9015 76.6917 22.7159C76.8849 22.5303 77.0327 22.3011 77.1349 22.0284L78.7429 22.3182C78.6141 22.7917 78.383 23.2064 78.0497 23.5625C77.7202 23.9148 77.3054 24.1894 76.8054 24.3864C76.3092 24.5795 75.7429 24.6761 75.1065 24.6761ZM86.6278 27.7727V23.142H86.5255C86.4233 23.3276 86.2755 23.5398 86.0824 23.7784C85.893 24.017 85.6316 24.2254 85.2983 24.4034C84.9649 24.5814 84.5331 24.6704 84.0028 24.6704C83.2983 24.6704 82.6695 24.4905 82.1165 24.1307C81.5672 23.767 81.1354 23.25 80.821 22.5795C80.5104 21.9053 80.3551 21.0966 80.3551 20.1534C80.3551 19.2102 80.5123 18.4034 80.8267 17.7329C81.1449 17.0625 81.5805 16.5492 82.1335 16.1932C82.6865 15.8371 83.3134 15.6591 84.0142 15.6591C84.5558 15.6591 84.9915 15.75 85.321 15.9318C85.6543 16.1098 85.9119 16.3182 86.0937 16.5568C86.2793 16.7954 86.4233 17.0057 86.5255 17.1875H86.6676V15.7727H88.3267V27.7727H86.6278ZM84.3778 23.2216C84.8665 23.2216 85.2793 23.0928 85.6165 22.8352C85.9574 22.5739 86.2149 22.2121 86.3892 21.75C86.5672 21.2879 86.6562 20.75 86.6562 20.1364C86.6562 19.5303 86.5691 19 86.3949 18.5454C86.2206 18.0909 85.9649 17.7367 85.6278 17.4829C85.2907 17.2292 84.874 17.1023 84.3778 17.1023C83.8665 17.1023 83.4403 17.2348 83.0994 17.5C82.7585 17.7651 82.5009 18.1269 82.3267 18.5852C82.1562 19.0436 82.071 19.5606 82.071 20.1364C82.071 20.7197 82.1581 21.2443 82.3324 21.7102C82.5066 22.1761 82.7642 22.5454 83.1051 22.8182C83.4498 23.0871 83.874 23.2216 84.3778 23.2216ZM96.1392 20.8807V15.7727H97.8437V24.5H96.1733V22.9886H96.0824C95.8816 23.4545 95.5596 23.8428 95.1165 24.1534C94.6771 24.4602 94.1297 24.6136 93.4744 24.6136C92.9138 24.6136 92.4176 24.4905 91.9858 24.2443C91.5577 23.9943 91.2206 23.625 90.9744 23.1364C90.732 22.6477 90.6108 22.0436 90.6108 21.3239V15.7727H92.3096V21.1193C92.3096 21.714 92.4744 22.1875 92.804 22.5398C93.1335 22.892 93.5615 23.0682 94.088 23.0682C94.4062 23.0682 94.7225 22.9886 95.0369 22.8295C95.3551 22.6704 95.6183 22.4299 95.8267 22.1079C96.0388 21.786 96.143 21.3769 96.1392 20.8807ZM100.126 24.5V15.7727H101.825V24.5H100.126ZM100.984 14.4261C100.689 14.4261 100.435 14.3276 100.223 14.1307C100.015 13.9299 99.9105 13.6913 99.9105 13.4148C99.9105 13.1345 100.015 12.8958 100.223 12.6989C100.435 12.4981 100.689 12.3977 100.984 12.3977C101.28 12.3977 101.532 12.4981 101.74 12.6989C101.952 12.8958 102.058 13.1345 102.058 13.4148C102.058 13.6913 101.952 13.9299 101.74 14.1307C101.532 14.3276 101.28 14.4261 100.984 14.4261ZM104.111 24.5V15.7727H105.753V17.1591H105.844C106.003 16.6894 106.283 16.3201 106.685 16.0511C107.09 15.7784 107.548 15.642 108.06 15.642C108.166 15.642 108.291 15.6458 108.435 15.6534C108.582 15.661 108.698 15.6704 108.781 15.6818V17.3068C108.713 17.2879 108.592 17.267 108.418 17.2443C108.243 17.2178 108.069 17.2045 107.895 17.2045C107.493 17.2045 107.135 17.2898 106.821 17.4602C106.51 17.6269 106.264 17.8598 106.082 18.1591C105.901 18.4545 105.81 18.7917 105.81 19.1704V24.5H104.111ZM113.7 24.6761C112.84 24.6761 112.1 24.4924 111.479 24.125C110.861 23.7538 110.384 23.2329 110.047 22.5625C109.714 21.8883 109.547 21.0985 109.547 20.1932C109.547 19.2992 109.714 18.5114 110.047 17.8295C110.384 17.1477 110.854 16.6155 111.456 16.2329C112.062 15.8504 112.77 15.6591 113.581 15.6591C114.073 15.6591 114.551 15.7405 115.013 15.9034C115.475 16.0663 115.89 16.322 116.257 16.6704C116.624 17.0189 116.914 17.4716 117.126 18.0284C117.339 18.5814 117.445 19.2538 117.445 20.0454V20.6477H110.507V19.375H115.78C115.78 18.928 115.689 18.5322 115.507 18.1875C115.325 17.839 115.07 17.5644 114.74 17.3636C114.414 17.1629 114.032 17.0625 113.592 17.0625C113.115 17.0625 112.698 17.1799 112.342 17.4148C111.99 17.6458 111.717 17.9489 111.524 18.3239C111.335 18.6951 111.24 19.0985 111.24 19.5341V20.5284C111.24 21.1117 111.342 21.6079 111.547 22.017C111.755 22.4261 112.045 22.7386 112.416 22.9545C112.787 23.1667 113.221 23.2727 113.717 23.2727C114.039 23.2727 114.333 23.2273 114.598 23.1364C114.863 23.0417 115.092 22.9015 115.285 22.7159C115.479 22.5303 115.626 22.3011 115.729 22.0284L117.337 22.3182C117.208 22.7917 116.977 23.2064 116.643 23.5625C116.314 23.9148 115.899 24.1894 115.399 24.3864C114.903 24.5795 114.337 24.6761 113.7 24.6761ZM125.869 17.9034L124.33 18.1761C124.265 17.9792 124.163 17.7917 124.023 17.6136C123.886 17.4356 123.701 17.2898 123.466 17.1761C123.231 17.0625 122.937 17.0057 122.585 17.0057C122.104 17.0057 121.703 17.1136 121.381 17.3295C121.059 17.5417 120.898 17.8163 120.898 18.1534C120.898 18.4451 121.006 18.6799 121.222 18.8579C121.437 19.036 121.786 19.1818 122.267 19.2954L123.653 19.6136C124.456 19.7992 125.055 20.0852 125.449 20.4716C125.843 20.8579 126.04 21.3598 126.04 21.9773C126.04 22.5 125.888 22.9659 125.585 23.375C125.286 23.7803 124.867 24.0985 124.33 24.3295C123.795 24.5606 123.176 24.6761 122.472 24.6761C121.494 24.6761 120.697 24.4678 120.08 24.0511C119.462 23.6307 119.083 23.0341 118.943 22.2614L120.585 22.0114C120.687 22.4394 120.898 22.7633 121.216 22.9829C121.534 23.1989 121.949 23.3068 122.46 23.3068C123.017 23.3068 123.462 23.1913 123.795 22.9602C124.129 22.7254 124.295 22.4394 124.295 22.1023C124.295 21.8295 124.193 21.6004 123.989 21.4148C123.788 21.2292 123.479 21.089 123.062 20.9943L121.585 20.6704C120.771 20.4848 120.169 20.1894 119.778 19.7841C119.392 19.3788 119.199 18.8655 119.199 18.2443C119.199 17.7292 119.343 17.2784 119.631 16.892C119.919 16.5057 120.316 16.2045 120.824 15.9886C121.331 15.7689 121.913 15.6591 122.568 15.6591C123.511 15.6591 124.254 15.8636 124.795 16.2727C125.337 16.678 125.695 17.2216 125.869 17.9034Z" fill="#E8E8E8"/>
<path d="M60.9357 43.5V31.1364H66.043C66.9686 31.1364 67.7675 31.3175 68.4396 31.6797C69.1157 32.0379 69.6369 32.5389 70.0032 33.1829C70.3694 33.8228 70.5525 34.5673 70.5525 35.4165C70.5525 36.2698 70.3654 37.0163 69.9911 37.6562C69.6208 38.2921 69.0916 38.7851 68.4034 39.1353C67.7152 39.4854 66.8982 39.6605 65.9524 39.6605H62.8011V37.3061H65.397C65.8478 37.3061 66.2241 37.2276 66.5259 37.0707C66.8318 36.9137 67.0632 36.6944 67.2202 36.4126C67.3771 36.1269 67.4556 35.7949 67.4556 35.4165C67.4556 35.0342 67.3771 34.7042 67.2202 34.4265C67.0632 34.1448 66.8318 33.9274 66.5259 33.7745C66.22 33.6216 65.8437 33.5451 65.397 33.5451H63.924V43.5H60.9357ZM72.0255 43.5V34.2273H74.8931V35.9176H74.9897C75.1587 35.3059 75.4344 34.8511 75.8167 34.5533C76.1991 34.2514 76.6438 34.1005 77.1509 34.1005C77.2877 34.1005 77.4286 34.1105 77.5735 34.1307C77.7184 34.1468 77.8532 34.1729 77.978 34.2092V36.7748C77.8371 36.7266 77.652 36.6883 77.4226 36.6601C77.1972 36.632 76.996 36.6179 76.8189 36.6179C76.4687 36.6179 76.1528 36.6964 75.8711 36.8533C75.5934 37.0063 75.374 37.2216 75.213 37.4993C75.0561 37.773 74.9776 38.0949 74.9776 38.4652V43.5H72.0255ZM83.0279 43.6751C82.0539 43.6751 81.2168 43.4758 80.5165 43.0774C79.8202 42.6749 79.2829 42.1155 78.9046 41.3991C78.5303 40.6787 78.3432 39.8436 78.3432 38.8938C78.3432 37.94 78.5303 37.1049 78.9046 36.3885C79.2829 35.6681 79.8202 35.1087 80.5165 34.7102C81.2168 34.3078 82.0539 34.1065 83.0279 34.1065C84.0018 34.1065 84.8369 34.3078 85.5332 34.7102C86.2335 35.1087 86.7708 35.6681 87.145 36.3885C87.5234 37.1049 87.7125 37.94 87.7125 38.8938C87.7125 39.8436 87.5234 40.6787 87.145 41.3991C86.7708 42.1155 86.2335 42.6749 85.5332 43.0774C84.8369 43.4758 84.0018 43.6751 83.0279 43.6751ZM83.046 41.4474C83.4001 41.4474 83.7 41.3388 83.9455 41.1214C84.191 40.9041 84.3781 40.6023 84.5069 40.2159C84.6397 39.8295 84.7061 39.3828 84.7061 38.8757C84.7061 38.3605 84.6397 37.9098 84.5069 37.5234C84.3781 37.1371 84.191 36.8352 83.9455 36.6179C83.7 36.4006 83.4001 36.2919 83.046 36.2919C82.6797 36.2919 82.3698 36.4006 82.1163 36.6179C81.8668 36.8352 81.6756 37.1371 81.5428 37.5234C81.414 37.9098 81.3496 38.3605 81.3496 38.8757C81.3496 39.3828 81.414 39.8295 81.5428 40.2159C81.6756 40.6023 81.8668 40.9041 82.1163 41.1214C82.3698 41.3388 82.6797 41.4474 83.046 41.4474ZM94.4588 34.2273V36.4006H88.609V34.2273H94.4588ZM89.8345 32.0057H92.7866V40.5842C92.7866 40.7653 92.8147 40.9122 92.8711 41.0248C92.9314 41.1335 93.018 41.212 93.1307 41.2603C93.2433 41.3046 93.3782 41.3267 93.5351 41.3267C93.6478 41.3267 93.7665 41.3166 93.8913 41.2965C94.0201 41.2724 94.1167 41.2522 94.1811 41.2361L94.6278 43.3672C94.487 43.4074 94.2877 43.4577 94.0302 43.5181C93.7766 43.5785 93.4727 43.6167 93.1186 43.6328C92.4263 43.665 91.8327 43.5845 91.3377 43.3913C90.8467 43.1941 90.4704 42.8882 90.2088 42.4737C89.9512 42.0592 89.8264 41.538 89.8345 40.9101V32.0057ZM100.194 43.6751C99.2199 43.6751 98.3828 43.4758 97.6825 43.0774C96.9862 42.6749 96.449 42.1155 96.0706 41.3991C95.6964 40.6787 95.5092 39.8436 95.5092 38.8938C95.5092 37.94 95.6964 37.1049 96.0706 36.3885C96.449 35.6681 96.9862 35.1087 97.6825 34.7102C98.3828 34.3078 99.2199 34.1065 100.194 34.1065C101.168 34.1065 102.003 34.3078 102.699 34.7102C103.399 35.1087 103.937 35.6681 104.311 36.3885C104.689 37.1049 104.879 37.94 104.879 38.8938C104.879 39.8436 104.689 40.6787 104.311 41.3991C103.937 42.1155 103.399 42.6749 102.699 43.0774C102.003 43.4758 101.168 43.6751 100.194 43.6751ZM100.212 41.4474C100.566 41.4474 100.866 41.3388 101.111 41.1214C101.357 40.9041 101.544 40.6023 101.673 40.2159C101.806 39.8295 101.872 39.3828 101.872 38.8757C101.872 38.3605 101.806 37.9098 101.673 37.5234C101.544 37.1371 101.357 36.8352 101.111 36.6179C100.866 36.4006 100.566 36.2919 100.212 36.2919C99.8457 36.2919 99.5358 36.4006 99.2823 36.6179C99.0328 36.8352 98.8416 37.1371 98.7088 37.5234C98.58 37.9098 98.5156 38.3605 98.5156 38.8757C98.5156 39.3828 98.58 39.8295 98.7088 40.2159C98.8416 40.6023 99.0328 40.9041 99.2823 41.1214C99.5358 41.3388 99.8457 41.4474 100.212 41.4474ZM110.719 43.6751C109.741 43.6751 108.902 43.4738 108.202 43.0714C107.506 42.6689 106.97 42.1095 106.596 41.3931C106.222 40.6727 106.035 39.8396 106.035 38.8938C106.035 37.944 106.222 37.1109 106.596 36.3945C106.974 35.6741 107.512 35.1127 108.208 34.7102C108.908 34.3078 109.743 34.1065 110.713 34.1065C111.57 34.1065 112.317 34.2615 112.953 34.5714C113.593 34.8813 114.092 35.3199 114.45 35.8874C114.812 36.4509 115.003 37.1129 115.024 37.8736H112.265C112.208 37.3987 112.047 37.0264 111.782 36.7567C111.52 36.4871 111.178 36.3523 110.755 36.3523C110.413 36.3523 110.114 36.4489 109.856 36.642C109.598 36.8312 109.397 37.1129 109.252 37.4872C109.111 37.8575 109.041 38.3163 109.041 38.8636C109.041 39.411 109.111 39.8738 109.252 40.2521C109.397 40.6264 109.598 40.9101 109.856 41.1033C110.114 41.2925 110.413 41.3871 110.755 41.3871C111.029 41.3871 111.271 41.3287 111.48 41.212C111.693 41.0953 111.868 40.9242 112.005 40.6989C112.142 40.4694 112.228 40.1918 112.265 39.8658H115.024C114.995 40.6304 114.804 41.2985 114.45 41.87C114.1 42.4415 113.607 42.8862 112.971 43.2042C112.339 43.5181 111.589 43.6751 110.719 43.6751ZM120.863 43.6751C119.889 43.6751 119.052 43.4758 118.351 43.0774C117.655 42.6749 117.118 42.1155 116.74 41.3991C116.365 40.6787 116.178 39.8436 116.178 38.8938C116.178 37.94 116.365 37.1049 116.74 36.3885C117.118 35.6681 117.655 35.1087 118.351 34.7102C119.052 34.3078 119.889 34.1065 120.863 34.1065C121.837 34.1065 122.672 34.3078 123.368 34.7102C124.068 35.1087 124.606 35.6681 124.98 36.3885C125.358 37.1049 125.547 37.94 125.547 38.8938C125.547 39.8436 125.358 40.6787 124.98 41.3991C124.606 42.1155 124.068 42.6749 123.368 43.0774C122.672 43.4758 121.837 43.6751 120.863 43.6751ZM120.881 41.4474C121.235 41.4474 121.535 41.3388 121.78 41.1214C122.026 40.9041 122.213 40.6023 122.342 40.2159C122.475 39.8295 122.541 39.3828 122.541 38.8757C122.541 38.3605 122.475 37.9098 122.342 37.5234C122.213 37.1371 122.026 36.8352 121.78 36.6179C121.535 36.4006 121.235 36.2919 120.881 36.2919C120.515 36.2919 120.205 36.4006 119.951 36.6179C119.702 36.8352 119.511 37.1371 119.378 37.5234C119.249 37.9098 119.185 38.3605 119.185 38.8757C119.185 39.3828 119.249 39.8295 119.378 40.2159C119.511 40.6023 119.702 40.9041 119.951 41.1214C120.205 41.3388 120.515 41.4474 120.881 41.4474ZM130.012 31.1364V43.5H127.06V31.1364H130.012ZM131.891 43.5V31.1364H134.879V41.0731H140.023V43.5H131.891ZM141.569 43.5V34.2273H144.522V43.5H141.569ZM143.049 33.1467C142.634 33.1467 142.278 33.0098 141.98 32.7361C141.682 32.4584 141.533 32.1244 141.533 31.734C141.533 31.3476 141.682 31.0176 141.98 30.744C142.278 30.4663 142.634 30.3274 143.049 30.3274C143.467 30.3274 143.823 30.4663 144.117 30.744C144.415 31.0176 144.564 31.3476 144.564 31.734C144.564 32.1244 144.415 32.4584 144.117 32.7361C143.823 33.0098 143.467 33.1467 143.049 33.1467ZM146.401 43.5V31.1364H149.353V35.815H149.413C149.534 35.5333 149.705 35.2616 149.926 35C150.151 34.7384 150.437 34.5251 150.783 34.3601C151.133 34.191 151.552 34.1065 152.039 34.1065C152.683 34.1065 153.285 34.2756 153.844 34.6136C154.408 34.9517 154.862 35.4729 155.208 36.1772C155.555 36.8815 155.728 37.779 155.728 38.8697C155.728 39.9201 155.561 40.7995 155.227 41.5078C154.897 42.2161 154.45 42.7474 153.886 43.1016C153.327 43.4557 152.705 43.6328 152.021 43.6328C151.554 43.6328 151.15 43.5563 150.807 43.4034C150.465 43.2505 150.178 43.0492 149.944 42.7997C149.715 42.5502 149.538 42.2825 149.413 41.9968H149.322V43.5H146.401ZM149.292 38.8636C149.292 39.3627 149.359 39.7973 149.491 40.1676C149.628 40.5379 149.823 40.8256 150.077 41.0309C150.335 41.2321 150.642 41.3327 151.001 41.3327C151.363 41.3327 151.671 41.2321 151.924 41.0309C152.178 40.8256 152.369 40.5379 152.498 40.1676C152.631 39.7973 152.697 39.3627 152.697 38.8636C152.697 38.3646 152.631 37.9319 152.498 37.5657C152.369 37.1994 152.178 36.9157 151.924 36.7145C151.675 36.5132 151.367 36.4126 151.001 36.4126C150.638 36.4126 150.331 36.5112 150.077 36.7084C149.823 36.9056 149.628 37.1874 149.491 37.5536C149.359 37.9199 149.292 38.3565 149.292 38.8636Z" fill="white"/>
</g>
<defs>
<filter id="filter0_d_1_50" x="6.28571" y="2.28571" width="51.4286" height="51.4286" filterUnits="userSpaceOnUse" color-interpolation-filters="sRGB">
<feFlood flood-opacity="0" result="BackgroundImageFix"/>
<feColorMatrix in="SourceAlpha" type="matrix" values="0 0 0 0 0 0 0 0 0 0 0 0 0 0 0 0 0 0 127 0" result="hardAlpha"/>
<feOffset/>
<feGaussianBlur stdDeviation="2.85714"/>
<feComposite in2="hardAlpha" operator="out"/>
<feColorMatrix type="matrix" values="0 0 0 0 0 0 0 0 0 0 0 0 0 0 0 0 0 0 0.25 0"/>
<feBlend mode="normal" in2="BackgroundImageFix" result="effect1_dropShadow_1_50"/>
<feBlend mode="normal" in="SourceGraphic" in2="effect1_dropShadow_1_50" result="shape"/>
</filter>
<filter id="filter1_d_1_50" x="54.4" y="3.9" width="108.2" height="48.2" filterUnits="userSpaceOnUse" color-interpolation-filters="sRGB">
<feFlood flood-opacity="0" result="BackgroundImageFix"/>
<feColorMatrix in="SourceAlpha" type="matrix" values="0 0 0 0 0 0 0 0 0 0 0 0 0 0 0 0 0 0 127 0" result="hardAlpha"/>
<feOffset/>
<feGaussianBlur stdDeviation="2.8"/>
<feComposite in2="hardAlpha" operator="out"/>
<feColorMatrix type="matrix" values="0 0 0 0 0 0 0 0 0 0 0 0 0 0 0 0 0 0 0.25 0"/>
<feBlend mode="normal" in2="BackgroundImageFix" result="effect1_dropShadow_1_50"/>
<feBlend mode="normal" in="SourceGraphic" in2="effect1_dropShadow_1_50" result="shape"/>
</filter>
<linearGradient id="paint0_linear_1_50" x1="84.5" y1="0" x2="84.5" y2="56" gradientUnits="userSpaceOnUse">
<stop offset="0.0016" stop-color="#2D2D2D"/>
<stop offset="0.0017" stop-color="#304C45"/>
<stop offset="0.0018" stop-color="#691230"/>
<stop offset="0.0019" stop-color="#64461A"/>
<stop offset="0.002" stop-color="#1A1711"/>
<stop offset="0.0021" stop-color="#2D2D2D"/>
<stop offset="0.9977" stop-color="#161616"/>
<stop offset="0.9978" stop-color="#302026"/>
</linearGradient>
</defs>
</svg>
