<svg width="144" height="56" viewBox="0 0 144 56" fill="none" xmlns="http://www.w3.org/2000/svg">
<rect width="144" height="56" rx="8" fill="url(#paint0_linear_1_50)"/>
<rect x="1.05" y="1.05" width="141.9" height="53.9" rx="6.95" stroke="white" stroke-opacity="0.15" stroke-width="2.1"/>
<g filter="url(#filter0_d_1_50)">
<path d="M31.6143 8.11019L12.1102 46.6777L33.3774 28.6061L31.6143 8.11019Z" fill="#064F8C"/>
<path d="M50.6777 47.8898L24.4518 37.3113L12 47.8898H50.6777Z" fill="#249847"/>
<path d="M52 47.5592L32.4959 8.77135L35.3609 40.8375L52 47.5592Z" fill="#BE2128"/>
<path d="M34.4793 40.5069L33.4876 29.5978L25.1129 36.7603L34.4793 40.5069Z" fill="#CDCDCE"/>
</g>
<g filter="url(#filter1_d_1_50)">
<path d="M61.2784 24.5V12.8636H65.5398C66.3655 12.8636 67.0492 13 67.5909 13.2727C68.1326 13.5417 68.5379 13.9072 68.8068 14.3693C69.0757 14.8276 69.2102 15.3447 69.2102 15.9204C69.2102 16.4053 69.1212 16.8144 68.9432 17.1477C68.7651 17.4773 68.5265 17.7424 68.2273 17.9432C67.9318 18.1401 67.606 18.2841 67.25 18.375V18.4886C67.6363 18.5076 68.0132 18.6326 68.3807 18.8636C68.7519 19.0909 69.0587 19.4148 69.3011 19.8352C69.5435 20.2557 69.6648 20.767 69.6648 21.3693C69.6648 21.964 69.5246 22.4981 69.2443 22.9716C68.9678 23.4413 68.5398 23.8144 67.9602 24.0909C67.3807 24.3636 66.6401 24.5 65.7386 24.5H61.2784ZM63.0341 22.9943H65.5682C66.4091 22.9943 67.0113 22.8314 67.375 22.5057C67.7386 22.1799 67.9204 21.7727 67.9204 21.2841C67.9204 20.9167 67.8276 20.5795 67.642 20.2727C67.4564 19.9659 67.1913 19.7216 66.8466 19.5398C66.5057 19.3579 66.1004 19.267 65.6307 19.267H63.0341V22.9943ZM63.0341 17.8977H65.3863C65.7803 17.8977 66.1345 17.822 66.4488 17.6704C66.767 17.5189 67.0189 17.3068 67.2045 17.0341C67.3939 16.7576 67.4886 16.4318 67.4886 16.0568C67.4886 15.5758 67.3201 15.1723 66.9829 14.8466C66.6458 14.5208 66.1288 14.3579 65.4318 14.3579H63.0341V17.8977ZM77.1392 20.8807V15.7727H78.8437V24.5H77.1733V22.9886H77.0824C76.8816 23.4545 76.5596 23.8428 76.1165 24.1534C75.6771 24.4602 75.1297 24.6136 74.4744 24.6136C73.9138 24.6136 73.4176 24.4905 72.9858 24.2443C72.5577 23.9943 72.2206 23.625 71.9744 23.1364C71.732 22.6477 71.6108 22.0436 71.6108 21.3239V15.7727H73.3096V21.1193C73.3096 21.714 73.4744 22.1875 73.804 22.5398C74.1335 22.892 74.5615 23.0682 75.088 23.0682C75.4062 23.0682 75.7225 22.9886 76.0369 22.8295C76.3551 22.6704 76.6184 22.4299 76.8267 22.1079C77.0388 21.786 77.143 21.3769 77.1392 20.8807ZM81.1264 24.5V15.7727H82.8253V24.5H81.1264ZM81.9844 14.4261C81.6889 14.4261 81.4351 14.3276 81.223 14.1307C81.0147 13.9299 80.9105 13.6913 80.9105 13.4148C80.9105 13.1345 81.0147 12.8958 81.223 12.6989C81.4351 12.4981 81.6889 12.3977 81.9844 12.3977C82.2798 12.3977 82.5317 12.4981 82.74 12.6989C82.9522 12.8958 83.0582 13.1345 83.0582 13.4148C83.0582 13.6913 82.9522 13.9299 82.74 14.1307C82.5317 14.3276 82.2798 14.4261 81.9844 14.4261ZM86.8096 12.8636V24.5H85.1108V12.8636H86.8096ZM93.169 15.7727V17.1364H88.402V15.7727H93.169ZM89.6804 13.6818H91.3792V21.9375C91.3792 22.267 91.4285 22.5151 91.527 22.6818C91.6254 22.8447 91.7523 22.9564 91.9076 23.017C92.0667 23.0739 92.2391 23.1023 92.4247 23.1023C92.5611 23.1023 92.6804 23.0928 92.7826 23.0739C92.8849 23.0549 92.9645 23.0398 93.0213 23.0284L93.3281 24.4318C93.2296 24.4697 93.0895 24.5076 92.9076 24.5454C92.7258 24.5871 92.4986 24.6098 92.2258 24.6136C91.7789 24.6212 91.3622 24.5417 90.9758 24.375C90.5895 24.2083 90.277 23.9508 90.0383 23.6023C89.7997 23.2538 89.6804 22.8163 89.6804 22.2898V13.6818ZM101.175 24.5L98.6065 15.7727H100.362L102.072 22.1818H102.158L103.874 15.7727H105.629L107.334 22.1534H107.419L109.118 15.7727H110.874L108.311 24.5H106.578L104.805 18.1989H104.675L102.902 24.5H101.175ZM112.486 24.5V15.7727H114.185V24.5H112.486ZM113.344 14.4261C113.048 14.4261 112.794 14.3276 112.582 14.1307C112.374 13.9299 112.27 13.6913 112.27 13.4148C112.27 13.1345 112.374 12.8958 112.582 12.6989C112.794 12.4981 113.048 12.3977 113.344 12.3977C113.639 12.3977 113.891 12.4981 114.099 12.6989C114.312 12.8958 114.418 13.1345 114.418 13.4148C114.418 13.6913 114.312 13.9299 114.099 14.1307C113.891 14.3276 113.639 14.4261 113.344 14.4261ZM120.544 15.7727V17.1364H115.777V15.7727H120.544ZM117.055 13.6818H118.754V21.9375C118.754 22.267 118.803 22.5151 118.902 22.6818C119 22.8447 119.127 22.9564 119.283 23.017C119.442 23.0739 119.614 23.1023 119.8 23.1023C119.936 23.1023 120.055 23.0928 120.158 23.0739C120.26 23.0549 120.339 23.0398 120.396 23.0284L120.703 24.4318C120.605 24.4697 120.464 24.5076 120.283 24.5454C120.101 24.5871 119.874 24.6098 119.601 24.6136C119.154 24.6212 118.737 24.5417 118.351 24.375C117.964 24.2083 117.652 23.9508 117.413 23.6023C117.175 23.2538 117.055 22.8163 117.055 22.2898V13.6818ZM124.31 19.3182V24.5H122.611V12.8636H124.287V17.1932H124.395C124.599 16.7235 124.912 16.3504 125.332 16.0739C125.753 15.7973 126.302 15.6591 126.98 15.6591C127.579 15.6591 128.101 15.7822 128.548 16.0284C128.999 16.2746 129.348 16.642 129.594 17.1307C129.844 17.6155 129.969 18.2216 129.969 18.9489V24.5H128.27V19.1534C128.27 18.5133 128.105 18.017 127.776 17.6648C127.446 17.3087 126.988 17.1307 126.401 17.1307C125.999 17.1307 125.639 17.2159 125.321 17.3864C125.007 17.5568 124.758 17.8068 124.577 18.1364C124.399 18.4621 124.31 18.8561 124.31 19.3182Z" fill="#E8E8E8"/>
<path d="M72.1584 35.6158H69.1399C69.0997 35.3059 69.0171 35.0261 68.8924 34.7766C68.7676 34.5271 68.6026 34.3138 68.3974 34.1367C68.1921 33.9596 67.9486 33.8248 67.6669 33.7322C67.3892 33.6356 67.0813 33.5873 66.7432 33.5873C66.1436 33.5873 65.6264 33.7342 65.1917 34.028C64.7611 34.3218 64.4291 34.7464 64.1957 35.3018C63.9662 35.8572 63.8515 36.5293 63.8515 37.3182C63.8515 38.1392 63.9683 38.8274 64.2017 39.3828C64.4391 39.9342 64.7712 40.3507 65.1978 40.6324C65.6284 40.9101 66.1375 41.049 66.7251 41.049C67.0551 41.049 67.355 41.0067 67.6246 40.9222C67.8983 40.8377 68.1378 40.715 68.343 40.554C68.5523 40.389 68.7233 40.1897 68.8562 39.9563C68.993 39.7189 69.0876 39.4512 69.1399 39.1534L72.1584 39.1715C72.106 39.7189 71.9471 40.2582 71.6814 40.7894C71.4198 41.3207 71.0596 41.8056 70.6008 42.2443C70.142 42.679 69.5826 43.0251 68.9226 43.2827C68.2666 43.5402 67.514 43.669 66.6648 43.669C65.5459 43.669 64.5438 43.4235 63.6584 42.9325C62.777 42.4375 62.0807 41.7171 61.5696 40.7713C61.0585 39.8255 60.8029 38.6745 60.8029 37.3182C60.8029 35.9578 61.0625 34.8048 61.5817 33.859C62.1008 32.9132 62.8031 32.1948 63.6885 31.7038C64.574 31.2128 65.566 30.9673 66.6648 30.9673C67.4133 30.9673 68.1056 31.072 68.7415 31.2812C69.3773 31.4865 69.9368 31.7883 70.4197 32.1868C70.9027 32.5812 71.2951 33.0662 71.5969 33.6417C71.8988 34.2172 72.0859 34.8752 72.1584 35.6158ZM73.8683 31.1364H77.569L80.7082 38.7912H80.8531L83.9923 31.1364H87.6929V43.5H84.7831V35.9055H84.6805L81.7103 43.4215H79.8509L76.8808 35.8633H76.7781V43.5H73.8683V31.1364ZM92.1708 43.6569C91.5792 43.6569 91.054 43.5583 90.5951 43.3611C90.1404 43.1599 89.7802 42.8581 89.5145 42.4556C89.2529 42.0491 89.1221 41.54 89.1221 40.9283C89.1221 40.4131 89.2127 39.9784 89.3938 39.6243C89.5749 39.2701 89.8244 38.9824 90.1424 38.761C90.4603 38.5396 90.8266 38.3726 91.2411 38.2599C91.6556 38.1432 92.0983 38.0647 92.5692 38.0245C93.0964 37.9762 93.521 37.9259 93.843 37.8736C94.165 37.8172 94.3984 37.7387 94.5433 37.6381C94.6922 37.5335 94.7667 37.3866 94.7667 37.1974V37.1672C94.7667 36.8574 94.66 36.6179 94.4467 36.4489C94.2334 36.2798 93.9456 36.1953 93.5834 36.1953C93.193 36.1953 92.8791 36.2798 92.6417 36.4489C92.4042 36.6179 92.2533 36.8513 92.1889 37.1491L89.4662 37.0525C89.5467 36.4891 89.754 35.986 90.088 35.5433C90.4261 35.0966 90.8889 34.7464 91.4765 34.4929C92.0682 34.2353 92.7785 34.1065 93.6076 34.1065C94.1992 34.1065 94.7445 34.177 95.2436 34.3178C95.7426 34.4547 96.1773 34.6559 96.5476 34.9215C96.9178 35.1831 97.2036 35.5051 97.4048 35.8874C97.6101 36.2698 97.7127 36.7064 97.7127 37.1974V43.5H94.9357V42.2081H94.8633C94.6982 42.522 94.487 42.7876 94.2294 43.005C93.9758 43.2223 93.676 43.3853 93.3299 43.494C92.9878 43.6026 92.6014 43.6569 92.1708 43.6569ZM93.0824 41.7251C93.4003 41.7251 93.6861 41.6607 93.9396 41.5319C94.1972 41.4032 94.4024 41.2261 94.5554 41.0007C94.7083 40.7713 94.7848 40.5057 94.7848 40.2038V39.3224C94.7003 39.3667 94.5976 39.4069 94.4769 39.4432C94.3602 39.4794 94.2314 39.5136 94.0905 39.5458C93.9497 39.578 93.8048 39.6062 93.6559 39.6303C93.507 39.6545 93.3641 39.6766 93.2272 39.6967C92.9495 39.741 92.7121 39.8094 92.5149 39.902C92.3217 39.9945 92.1728 40.1153 92.0682 40.2642C91.9675 40.4091 91.9172 40.5821 91.9172 40.7834C91.9172 41.0892 92.0259 41.3227 92.2432 41.4837C92.4646 41.6446 92.7443 41.7251 93.0824 41.7251ZM102.18 41.0671L102.192 37.5476H102.603L105.211 34.2273H108.555L104.679 38.9844H103.901L102.18 41.0671ZM99.5177 43.5V31.1364H102.47V43.5H99.5177ZM105.277 43.5L102.85 39.6484L104.794 37.5536L108.688 43.5H105.277ZM113.564 43.6751C112.594 43.6751 111.757 43.4839 111.053 43.1016C110.353 42.7152 109.813 42.1658 109.435 41.4535C109.061 40.7371 108.873 39.8859 108.873 38.8998C108.873 37.942 109.063 37.1049 109.441 36.3885C109.819 35.6681 110.353 35.1087 111.041 34.7102C111.729 34.3078 112.54 34.1065 113.474 34.1065C114.134 34.1065 114.737 34.2092 115.285 34.4144C115.832 34.6197 116.305 34.9235 116.703 35.326C117.102 35.7284 117.412 36.2255 117.633 36.8171C117.854 37.4047 117.965 38.0788 117.965 38.8395V39.576H109.906V37.8615H115.218C115.214 37.5476 115.14 37.2679 114.995 37.0224C114.85 36.7769 114.651 36.5857 114.397 36.4489C114.148 36.308 113.86 36.2376 113.534 36.2376C113.204 36.2376 112.908 36.312 112.647 36.4609C112.385 36.6058 112.178 36.805 112.025 37.0586C111.872 37.3081 111.791 37.5918 111.783 37.9098V39.6545C111.783 40.0328 111.858 40.3648 112.007 40.6506C112.156 40.9323 112.367 41.1516 112.641 41.3086C112.914 41.4655 113.24 41.544 113.618 41.544C113.88 41.544 114.118 41.5078 114.331 41.4354C114.544 41.3629 114.727 41.2563 114.88 41.1154C115.033 40.9745 115.148 40.8015 115.224 40.5962L117.935 40.6747C117.822 41.2824 117.575 41.8117 117.192 42.2624C116.814 42.7092 116.317 43.0573 115.701 43.3068C115.085 43.5523 114.373 43.6751 113.564 43.6751Z" fill="url(#paint1_linear_1_50)"/>
</g>
<defs>
<filter id="filter0_d_1_50" x="6.28571" y="2.28571" width="51.4286" height="51.4286" filterUnits="userSpaceOnUse" color-interpolation-filters="sRGB">
<feFlood flood-opacity="0" result="BackgroundImageFix"/>
<feColorMatrix in="SourceAlpha" type="matrix" values="0 0 0 0 0 0 0 0 0 0 0 0 0 0 0 0 0 0 127 0" result="hardAlpha"/>
<feOffset/>
<feGaussianBlur stdDeviation="2.85714"/>
<feComposite in2="hardAlpha" operator="out"/>
<feColorMatrix type="matrix" values="0 0 0 0 0 0 0 0 0 0 0 0 0 0 0 0 0 0 0.25 0"/>
<feBlend mode="normal" in2="BackgroundImageFix" result="effect1_dropShadow_1_50"/>
<feBlend mode="normal" in="SourceGraphic" in2="effect1_dropShadow_1_50" result="shape"/>
</filter>
<filter id="filter1_d_1_50" x="54.4" y="3.9" width="83.2" height="48.2" filterUnits="userSpaceOnUse" color-interpolation-filters="sRGB">
<feFlood flood-opacity="0" result="BackgroundImageFix"/>
<feColorMatrix in="SourceAlpha" type="matrix" values="0 0 0 0 0 0 0 0 0 0 0 0 0 0 0 0 0 0 127 0" result="hardAlpha"/>
<feOffset/>
<feGaussianBlur stdDeviation="2.8"/>
<feComposite in2="hardAlpha" operator="out"/>
<feColorMatrix type="matrix" values="0 0 0 0 0 0 0 0 0 0 0 0 0 0 0 0 0 0 0.25 0"/>
<feBlend mode="normal" in2="BackgroundImageFix" result="effect1_dropShadow_1_50"/>
<feBlend mode="normal" in="SourceGraphic" in2="effect1_dropShadow_1_50" result="shape"/>
</filter>
<linearGradient id="paint0_linear_1_50" x1="72" y1="0" x2="72" y2="56" gradientUnits="userSpaceOnUse">
<stop offset="0.0006" stop-color="#0081A1"/>
<stop offset="0.0007" stop-color="#067CB0"/>
<stop offset="0.0008" stop-color="#BE2128"/>
<stop offset="0.0009" stop-color="#BE2128"/>
<stop offset="0.541667" stop-color="#064F8C"/>
<stop offset="0.9994" stop-color="#1E8955"/>
<stop offset="0.9995" stop-color="#249847"/>
<stop offset="0.9996" stop-color="#249847"/>
</linearGradient>
<linearGradient id="paint1_linear_1_50" x1="89.5" y1="28.5" x2="89.5" y2="46.5" gradientUnits="userSpaceOnUse">
<stop stop-color="#49D473"/>
</linearGradient>
</defs>
</svg>
