<svg width="215" height="40" viewBox="0 0 215 40" fill="none" xmlns="http://www.w3.org/2000/svg">
<rect width="215.001" height="40.0014" rx="8" fill="url(#paint0_linear_1_56)"/>
<rect x="1.07143" y="1.07143" width="212.858" height="37.8585" rx="6.92857" stroke="white" stroke-opacity="0.15" stroke-width="2.14286"/>
<g filter="url(#filter0_d_1_56)">
<path d="M32.2115 17.0616C32.0648 15.9965 31.4781 15.0717 30.4193 14.2362L29.807 13.8216L29.3989 14.4403C28.8759 15.2375 28.6144 16.3473 28.6973 17.4124C28.7356 17.7823 28.8567 18.4584 29.233 19.0388C28.8567 19.2493 28.1105 19.5299 27.1156 19.5107H8.10939L8.07112 19.734C7.89254 20.7991 7.89254 24.1347 10.0291 26.6923C11.6555 28.6375 14.0855 29.6261 17.2617 29.6261C24.1498 29.6261 29.2394 26.418 31.6311 20.5759C32.5687 20.595 34.5905 20.5822 35.6301 18.5732C35.6556 18.5285 35.7194 18.4074 35.898 18.0247L36 17.8142L35.4196 17.4188C34.7818 17.0042 33.334 16.8448 32.2115 17.0616ZM23.308 9.9375H20.4188V12.5971H23.308V9.9375ZM23.308 13.1328H20.4188V15.7924H23.308V13.1328ZM19.8894 13.1328H17.0002V15.7924H19.8894V13.1328ZM16.4772 13.1328H13.588V15.7924H16.4772V13.1328ZM13.0586 16.3282H10.1695V18.9878H13.0586V16.3282ZM16.4772 16.3282H13.588V18.9878H16.4772V16.3282ZM19.8894 16.3282H17.0002V18.9878H19.8894V16.3282ZM23.308 16.3282H20.4188V18.9878H23.308V16.3282ZM26.7265 16.3282H23.8373V18.9878H26.7265V16.3282Z" fill="#1D63ED"/>
</g>
<g filter="url(#filter1_d_1_56)">
<path d="M44.4041 26.5007H42.424L46.8732 14.1371H49.0284L53.4776 26.5007H51.4975L48.0021 16.3828H47.9055L44.4041 26.5007ZM44.7361 21.6591H51.1594V23.2287H44.7361V21.6591ZM61.8886 17.228L58.526 26.5007H56.5942L53.2256 17.228H55.1634L57.5118 24.3636H57.6084L59.9507 17.228H61.8886ZM66.0178 26.706C65.4302 26.706 64.899 26.5973 64.4241 26.38C63.9492 26.1586 63.5729 25.8386 63.2952 25.4201C63.0215 25.0015 62.8846 24.4884 62.8846 23.8807C62.8846 23.3575 62.9853 22.9268 63.1865 22.5888C63.3877 22.2507 63.6594 21.9831 64.0015 21.7859C64.3436 21.5886 64.7259 21.4397 65.1485 21.3391C65.5711 21.2385 66.0017 21.162 66.4404 21.1097C66.9958 21.0453 67.4466 20.993 67.7927 20.9528C68.1388 20.9085 68.3903 20.8381 68.5473 20.7415C68.7042 20.6449 68.7827 20.4879 68.7827 20.2706V20.2283C68.7827 19.7011 68.6338 19.2926 68.336 19.0028C68.0422 18.7131 67.6035 18.5682 67.0199 18.5682C66.4122 18.5682 65.9333 18.703 65.5832 18.9726C65.237 19.2383 64.9976 19.5341 64.8648 19.8601L63.1684 19.4737C63.3696 18.9103 63.6634 18.4555 64.0498 18.1094C64.4402 17.7592 64.8889 17.5057 65.396 17.3487C65.9031 17.1877 66.4364 17.1072 66.9958 17.1072C67.3661 17.1072 67.7585 17.1515 68.173 17.24C68.5916 17.3246 68.9819 17.4815 69.3442 17.7109C69.7104 17.9403 70.0102 18.2683 70.2437 18.6949C70.4771 19.1175 70.5938 19.6669 70.5938 20.343V26.5007H68.831V25.2329H68.7586C68.6419 25.4664 68.4668 25.6958 68.2334 25.9212C67.9999 26.1465 67.7001 26.3337 67.3339 26.4826C66.9676 26.6315 66.5289 26.706 66.0178 26.706ZM66.4102 25.2571C66.9093 25.2571 67.3359 25.1585 67.69 24.9613C68.0482 24.7641 68.3199 24.5065 68.505 24.1886C68.6942 23.8666 68.7888 23.5225 68.7888 23.1562V21.9609C68.7244 22.0253 68.5996 22.0857 68.4145 22.142C68.2334 22.1944 68.0261 22.2406 67.7927 22.2809C67.5592 22.3171 67.3319 22.3513 67.1105 22.3835C66.8891 22.4117 66.704 22.4358 66.5551 22.456C66.205 22.5002 65.885 22.5747 65.5952 22.6793C65.3095 22.784 65.0801 22.9349 64.907 23.1321C64.738 23.3253 64.6535 23.5828 64.6535 23.9048C64.6535 24.3515 64.8185 24.6896 65.1485 24.919C65.4785 25.1444 65.8991 25.2571 66.4102 25.2571ZM72.998 26.5007V17.228H74.8031V26.5007H72.998ZM73.9096 15.7972C73.5957 15.7972 73.326 15.6926 73.1006 15.4833C72.8793 15.27 72.7686 15.0164 72.7686 14.7226C72.7686 14.4248 72.8793 14.1713 73.1006 13.962C73.326 13.7487 73.5957 13.642 73.9096 13.642C74.2235 13.642 74.4911 13.7487 74.7125 13.962C74.9379 14.1713 75.0506 14.4248 75.0506 14.7226C75.0506 15.0164 74.9379 15.27 74.7125 15.4833C74.4911 15.6926 74.2235 15.7972 73.9096 15.7972ZM79.0365 14.1371V26.5007H77.2314V14.1371H79.0365ZM84.1633 26.706C83.5757 26.706 83.0445 26.5973 82.5696 26.38C82.0947 26.1586 81.7184 25.8386 81.4407 25.4201C81.167 25.0015 81.0301 24.4884 81.0301 23.8807C81.0301 23.3575 81.1308 22.9268 81.332 22.5888C81.5332 22.2507 81.8049 21.9831 82.147 21.7859C82.4891 21.5886 82.8714 21.4397 83.294 21.3391C83.7166 21.2385 84.1472 21.162 84.5859 21.1097C85.1413 21.0453 85.5921 20.993 85.9382 20.9528C86.2843 20.9085 86.5358 20.8381 86.6928 20.7415C86.8497 20.6449 86.9282 20.4879 86.9282 20.2706V20.2283C86.9282 19.7011 86.7793 19.2926 86.4815 19.0028C86.1877 18.7131 85.749 18.5682 85.1654 18.5682C84.5577 18.5682 84.0788 18.703 83.7287 18.9726C83.3825 19.2383 83.1431 19.5341 83.0103 19.8601L81.3139 19.4737C81.5151 18.9103 81.8089 18.4555 82.1953 18.1094C82.5857 17.7592 83.0344 17.5057 83.5415 17.3487C84.0486 17.1877 84.5819 17.1072 85.1413 17.1072C85.5116 17.1072 85.904 17.1515 86.3185 17.24C86.7371 17.3246 87.1274 17.4815 87.4897 17.7109C87.8559 17.9403 88.1557 18.2683 88.3892 18.6949C88.6226 19.1175 88.7393 19.6669 88.7393 20.343V26.5007H86.9765V25.2329H86.9041C86.7874 25.4664 86.6123 25.6958 86.3789 25.9212C86.1454 26.1465 85.8456 26.3337 85.4794 26.4826C85.1131 26.6315 84.6744 26.706 84.1633 26.706ZM84.5557 25.2571C85.0548 25.2571 85.4814 25.1585 85.8355 24.9613C86.1937 24.7641 86.4654 24.5065 86.6505 24.1886C86.8397 23.8666 86.9343 23.5225 86.9343 23.1562V21.9609C86.8699 22.0253 86.7451 22.0857 86.56 22.142C86.3789 22.1944 86.1716 22.2406 85.9382 22.2809C85.7047 22.3171 85.4774 22.3513 85.256 22.3835C85.0346 22.4117 84.8495 22.4358 84.7006 22.456C84.3505 22.5002 84.0305 22.5747 83.7407 22.6793C83.455 22.784 83.2256 22.9349 83.0525 23.1321C82.8835 23.3253 82.799 23.5828 82.799 23.9048C82.799 24.3515 82.964 24.6896 83.294 24.919C83.624 25.1444 84.0446 25.2571 84.5557 25.2571ZM91.2884 26.5007V14.1371H93.0934V18.7312H93.2021C93.3067 18.538 93.4577 18.3146 93.6549 18.0611C93.8521 17.8075 94.1258 17.5862 94.4759 17.397C94.826 17.2038 95.2889 17.1072 95.8644 17.1072C96.613 17.1072 97.2811 17.2964 97.8687 17.6747C98.4563 18.053 98.9171 18.5984 99.2511 19.3107C99.5892 20.0231 99.7582 20.8803 99.7582 21.8824C99.7582 22.8846 99.5912 23.7438 99.2571 24.4602C98.9231 25.1726 98.4643 25.7219 97.8807 26.1083C97.2972 26.4906 96.6311 26.6818 95.8825 26.6818C95.3191 26.6818 94.8582 26.5872 94.5 26.3981C94.1459 26.2089 93.8682 25.9876 93.667 25.734C93.4657 25.4805 93.3108 25.2551 93.2021 25.0579H93.0512V26.5007H91.2884ZM93.0572 21.8643C93.0572 22.5163 93.1518 23.0878 93.341 23.5788C93.5301 24.0698 93.8038 24.4542 94.162 24.7319C94.5202 25.0056 94.9589 25.1424 95.478 25.1424C96.0173 25.1424 96.4681 24.9995 96.8303 24.7138C97.1925 24.424 97.4662 24.0316 97.6513 23.5366C97.8405 23.0415 97.9351 22.4841 97.9351 21.8643C97.9351 21.2526 97.8425 20.7032 97.6574 20.2163C97.4763 19.7293 97.2026 19.3449 96.8363 19.0632C96.4741 18.7815 96.0214 18.6406 95.478 18.6406C94.9548 18.6406 94.5121 18.7754 94.1499 19.0451C93.7917 19.3147 93.5201 19.691 93.3349 20.174C93.1498 20.6569 93.0572 21.2204 93.0572 21.8643ZM103.59 14.1371V26.5007H101.785V14.1371H103.59ZM110.015 26.6878C109.101 26.6878 108.315 26.4926 107.655 26.1023C106.999 25.7078 106.491 25.1545 106.133 24.4421C105.779 23.7257 105.602 22.8866 105.602 21.9247C105.602 20.9749 105.779 20.1378 106.133 19.4133C106.491 18.6889 106.99 18.1234 107.63 17.717C108.274 17.3105 109.027 17.1072 109.888 17.1072C110.411 17.1072 110.918 17.1938 111.409 17.3668C111.9 17.5399 112.341 17.8115 112.732 18.1818C113.122 18.5521 113.43 19.033 113.655 19.6246C113.881 20.2122 113.993 20.9266 113.993 21.7677V22.4077H106.622V21.0554H112.224C112.224 20.5805 112.128 20.1599 111.935 19.7937C111.742 19.4234 111.47 19.1316 111.12 18.9183C110.774 18.705 110.367 18.5984 109.9 18.5984C109.393 18.5984 108.95 18.7231 108.572 18.9726C108.198 19.2181 107.908 19.5401 107.703 19.9386C107.502 20.333 107.401 20.7616 107.401 21.2244V22.2809C107.401 22.9007 107.51 23.4279 107.727 23.8626C107.948 24.2972 108.256 24.6292 108.651 24.8587C109.045 25.084 109.506 25.1967 110.033 25.1967C110.375 25.1967 110.687 25.1484 110.969 25.0518C111.251 24.9512 111.494 24.8023 111.699 24.6051C111.905 24.4079 112.061 24.1644 112.17 23.8746L113.879 24.1825C113.742 24.6856 113.496 25.1263 113.142 25.5046C112.792 25.8789 112.351 26.1707 111.82 26.38C111.293 26.5852 110.691 26.6878 110.015 26.6878ZM124.908 17.228V18.6768H119.668V17.228H124.908ZM121.105 26.5007V16.1534C121.105 15.5739 121.232 15.0929 121.485 14.7106C121.739 14.3242 122.075 14.0364 122.493 13.8473C122.912 13.6541 123.367 13.5575 123.858 13.5575C124.22 13.5575 124.53 13.5877 124.787 13.6481C125.045 13.7044 125.236 13.7567 125.361 13.805L124.938 15.266C124.854 15.2418 124.745 15.2136 124.612 15.1815C124.479 15.1452 124.318 15.1271 124.129 15.1271C123.691 15.1271 123.377 15.2358 123.188 15.4531C123.002 15.6704 122.91 15.9844 122.91 16.3949V26.5007H121.105ZM130.311 26.6878C129.442 26.6878 128.683 26.4886 128.035 26.0902C127.387 25.6917 126.884 25.1343 126.526 24.418C126.168 23.7016 125.989 22.8645 125.989 21.9066C125.989 20.9447 126.168 20.1036 126.526 19.3832C126.884 18.6627 127.387 18.1033 128.035 17.7049C128.683 17.3065 129.442 17.1072 130.311 17.1072C131.18 17.1072 131.939 17.3065 132.587 17.7049C133.235 18.1033 133.738 18.6627 134.096 19.3832C134.454 20.1036 134.634 20.9447 134.634 21.9066C134.634 22.8645 134.454 23.7016 134.096 24.418C133.738 25.1343 133.235 25.6917 132.587 26.0902C131.939 26.4886 131.18 26.6878 130.311 26.6878ZM130.317 25.1726C130.881 25.1726 131.347 25.0237 131.718 24.7258C132.088 24.428 132.362 24.0316 132.539 23.5366C132.72 23.0415 132.81 22.4962 132.81 21.9006C132.81 21.3089 132.72 20.7656 132.539 20.2706C132.362 19.7715 132.088 19.3711 131.718 19.0692C131.347 18.7674 130.881 18.6165 130.317 18.6165C129.75 18.6165 129.279 18.7674 128.905 19.0692C128.534 19.3711 128.259 19.7715 128.077 20.2706C127.9 20.7656 127.812 21.3089 127.812 21.9006C127.812 22.4962 127.9 23.0415 128.077 23.5366C128.259 24.0316 128.534 24.428 128.905 24.7258C129.279 25.0237 129.75 25.1726 130.317 25.1726ZM136.648 26.5007V17.228H138.393V18.701H138.49C138.659 18.2019 138.957 17.8095 139.383 17.5238C139.814 17.234 140.301 17.0891 140.844 17.0891C140.957 17.0891 141.09 17.0931 141.242 17.1012C141.399 17.1092 141.522 17.1193 141.611 17.1314V18.8579C141.538 18.8378 141.41 18.8157 141.224 18.7915C141.039 18.7634 140.854 18.7493 140.669 18.7493C140.242 18.7493 139.862 18.8398 139.528 19.0209C139.198 19.198 138.936 19.4455 138.743 19.7635C138.55 20.0774 138.453 20.4356 138.453 20.8381V26.5007H136.648Z" fill="#E8E8E8"/>
<path d="M151.507 26.0007H146.937V13.6371H151.501C152.761 13.6371 153.845 13.8846 154.755 14.3796C155.668 14.8706 156.373 15.5789 156.868 16.5046C157.363 17.4262 157.61 18.529 157.61 19.8128C157.61 21.1007 157.363 22.2075 156.868 23.1332C156.377 24.0588 155.675 24.7692 154.761 25.2642C153.847 25.7552 152.763 26.0007 151.507 26.0007ZM149.925 23.4531H151.392C152.085 23.4531 152.67 23.3364 153.149 23.103C153.632 22.8655 153.996 22.4812 154.242 21.9499C154.491 21.4146 154.616 20.7023 154.616 19.8128C154.616 18.9234 154.491 18.2151 154.242 17.6878C153.992 17.1566 153.624 16.7743 153.137 16.5408C152.654 16.3034 152.058 16.1846 151.35 16.1846H149.925V23.4531ZM163.684 26.1758C162.71 26.1758 161.872 25.9765 161.172 25.5781C160.476 25.1757 159.939 24.6162 159.56 23.8998C159.186 23.1794 158.999 22.3443 158.999 21.3945C158.999 20.4407 159.186 19.6056 159.56 18.8892C159.939 18.1688 160.476 17.6094 161.172 17.2109C161.872 16.8085 162.71 16.6072 163.684 16.6072C164.657 16.6072 165.493 16.8085 166.189 17.2109C166.889 17.6094 167.426 18.1688 167.801 18.8892C168.179 19.6056 168.368 20.4407 168.368 21.3945C168.368 22.3443 168.179 23.1794 167.801 23.8998C167.426 24.6162 166.889 25.1757 166.189 25.5781C165.493 25.9765 164.657 26.1758 163.684 26.1758ZM163.702 23.9481C164.056 23.9481 164.356 23.8395 164.601 23.6221C164.847 23.4048 165.034 23.103 165.163 22.7166C165.295 22.3302 165.362 21.8835 165.362 21.3764C165.362 20.8613 165.295 20.4105 165.163 20.0241C165.034 19.6378 164.847 19.3359 164.601 19.1186C164.356 18.9013 164.056 18.7926 163.702 18.7926C163.335 18.7926 163.026 18.9013 162.772 19.1186C162.522 19.3359 162.331 19.6378 162.198 20.0241C162.07 20.4105 162.005 20.8613 162.005 21.3764C162.005 21.8835 162.07 22.3302 162.198 22.7166C162.331 23.103 162.522 23.4048 162.772 23.6221C163.026 23.8395 163.335 23.9481 163.702 23.9481ZM174.209 26.1758C173.231 26.1758 172.392 25.9745 171.692 25.5721C170.995 25.1696 170.46 24.6102 170.086 23.8938C169.711 23.1734 169.524 22.3403 169.524 21.3945C169.524 20.4447 169.711 19.6116 170.086 18.8952C170.464 18.1748 171.001 17.6134 171.698 17.2109C172.398 16.8085 173.233 16.6072 174.203 16.6072C175.06 16.6072 175.807 16.7622 176.443 17.0721C177.082 17.382 177.582 17.8207 177.94 18.3881C178.302 18.9516 178.493 19.6136 178.513 20.3743H175.754C175.698 19.8994 175.537 19.5271 175.271 19.2574C175.01 18.9878 174.668 18.853 174.245 18.853C173.903 18.853 173.603 18.9496 173.346 19.1427C173.088 19.3319 172.887 19.6136 172.742 19.9879C172.601 20.3582 172.531 20.817 172.531 21.3643C172.531 21.9117 172.601 22.3745 172.742 22.7528C172.887 23.1271 173.088 23.4109 173.346 23.604C173.603 23.7932 173.903 23.8878 174.245 23.8878C174.519 23.8878 174.76 23.8294 174.97 23.7127C175.183 23.596 175.358 23.4249 175.495 23.1996C175.632 22.9702 175.718 22.6925 175.754 22.3665H178.513C178.485 23.1311 178.294 23.7992 177.94 24.3707C177.59 24.9422 177.097 25.3869 176.461 25.7049C175.829 26.0188 175.078 26.1758 174.209 26.1758ZM182.686 23.5678L182.698 20.0483H183.109L185.717 16.728H189.061L185.186 21.4851H184.407L182.686 23.5678ZM180.024 26.0007V13.6371H182.976V26.0007H180.024ZM185.783 26.0007L183.356 22.1491L185.3 20.0543L189.194 26.0007H185.783ZM194.07 26.1758C193.1 26.1758 192.263 25.9846 191.559 25.6023C190.859 25.2159 190.319 24.6665 189.941 23.9542C189.567 23.2378 189.38 22.3866 189.38 21.4006C189.38 20.4427 189.569 19.6056 189.947 18.8892C190.326 18.1688 190.859 17.6094 191.547 17.2109C192.235 16.8085 193.046 16.6072 193.98 16.6072C194.64 16.6072 195.244 16.7099 195.791 16.9151C196.338 17.1204 196.811 17.4242 197.21 17.8267C197.608 18.2292 197.918 18.7262 198.139 19.3178C198.361 19.9054 198.471 20.5795 198.471 21.3402V22.0767H190.412V20.3622H195.725C195.721 20.0483 195.646 19.7686 195.501 19.5231C195.356 19.2776 195.157 19.0864 194.904 18.9496C194.654 18.8087 194.366 18.7383 194.04 18.7383C193.71 18.7383 193.414 18.8127 193.153 18.9616C192.891 19.1065 192.684 19.3057 192.531 19.5593C192.378 19.8088 192.298 20.0926 192.29 20.4105V22.1552C192.29 22.5335 192.364 22.8655 192.513 23.1513C192.662 23.433 192.873 23.6523 193.147 23.8093C193.42 23.9663 193.746 24.0447 194.125 24.0447C194.386 24.0447 194.624 24.0085 194.837 23.9361C195.05 23.8636 195.234 23.757 195.386 23.6161C195.539 23.4752 195.654 23.3022 195.731 23.0969L198.441 23.1754C198.328 23.7831 198.081 24.3124 197.699 24.7631C197.32 25.2099 196.823 25.558 196.207 25.8075C195.592 26.053 194.879 26.1758 194.07 26.1758ZM199.979 26.0007V16.728H202.847V18.4183H202.943C203.112 17.8066 203.388 17.3518 203.77 17.054C204.153 16.7521 204.597 16.6012 205.104 16.6012C205.241 16.6012 205.382 16.6113 205.527 16.6314C205.672 16.6475 205.807 16.6736 205.931 16.7099V19.2756C205.791 19.2273 205.605 19.189 205.376 19.1609C205.151 19.1327 204.949 19.1186 204.772 19.1186C204.422 19.1186 204.106 19.1971 203.825 19.354C203.547 19.507 203.328 19.7223 203.167 20C203.01 20.2737 202.931 20.5956 202.931 20.9659V26.0007H199.979Z" fill="#E5F2FC"/>
</g>
<defs>
<filter id="filter0_d_1_56" x="2.39972" y="0.39972" width="39.202" height="39.202" filterUnits="userSpaceOnUse" color-interpolation-filters="sRGB">
<feFlood flood-opacity="0" result="BackgroundImageFix"/>
<feColorMatrix in="SourceAlpha" type="matrix" values="0 0 0 0 0 0 0 0 0 0 0 0 0 0 0 0 0 0 127 0" result="hardAlpha"/>
<feOffset/>
<feGaussianBlur stdDeviation="2.80014"/>
<feComposite in2="hardAlpha" operator="out"/>
<feColorMatrix type="matrix" values="0 0 0 0 0 0 0 0 0 0 0 0 0 0 0 0 0 0 0.25 0"/>
<feBlend mode="normal" in2="BackgroundImageFix" result="effect1_dropShadow_1_56"/>
<feBlend mode="normal" in="SourceGraphic" in2="effect1_dropShadow_1_56" result="shape"/>
</filter>
<filter id="filter1_d_1_56" x="36.2871" y="3.78642" width="176.429" height="32.4286" filterUnits="userSpaceOnUse" color-interpolation-filters="sRGB">
<feFlood flood-opacity="0" result="BackgroundImageFix"/>
<feColorMatrix in="SourceAlpha" type="matrix" values="0 0 0 0 0 0 0 0 0 0 0 0 0 0 0 0 0 0 127 0" result="hardAlpha"/>
<feOffset/>
<feGaussianBlur stdDeviation="2.85714"/>
<feComposite in2="hardAlpha" operator="out"/>
<feColorMatrix type="matrix" values="0 0 0 0 0 0 0 0 0 0 0 0 0 0 0 0 0 0 0.25 0"/>
<feBlend mode="normal" in2="BackgroundImageFix" result="effect1_dropShadow_1_56"/>
<feBlend mode="normal" in="SourceGraphic" in2="effect1_dropShadow_1_56" result="shape"/>
</filter>
<linearGradient id="paint0_linear_1_56" x1="107.501" y1="0" x2="107.501" y2="40.0014" gradientUnits="userSpaceOnUse">
<stop stop-color="#0A307B"/>
<stop offset="1" stop-color="#061D4A"/>
</linearGradient>
</defs>
</svg>
