<svg width="310" height="40" viewBox="0 0 310 40" fill="none" xmlns="http://www.w3.org/2000/svg">
<rect width="310.001" height="40.0014" rx="8" fill="url(#paint0_linear_1_56)"/>
<rect x="1.07143" y="1.07143" width="307.858" height="37.8585" rx="6.92857" stroke="white" stroke-opacity="0.15" stroke-width="2.14286"/>
<g filter="url(#filter0_d_1_56)">
<path d="M8 7.75V30.1542C8 31.2079 8.85452 32.0642 9.90998 32.0642H34.09C35.1436 32.0642 36 31.2097 36 30.1542L35.9982 7.75H8ZM18.8181 10.4245H25.1801C25.8838 10.4245 26.453 10.9937 26.453 11.6973C26.453 12.3991 25.8838 12.9702 25.1801 12.9702H18.8181C18.1144 12.9702 17.5452 12.401 17.5452 11.6973C17.5452 10.9937 18.1144 10.4245 18.8181 10.4245Z" fill="#F1F3F4"/>
<path d="M8 7.75V30.1542C8 31.2079 8.85452 32.0642 9.90998 32.0642H34.09C35.1436 32.0642 36 31.2097 36 30.1542L35.9982 7.75H8ZM18.8181 10.4245H25.1801C25.8838 10.4245 26.453 10.9937 26.453 11.6973C26.453 12.3991 25.8838 12.9702 25.1801 12.9702H18.8181C18.1144 12.9702 17.5452 12.401 17.5452 11.6973C17.5452 10.9937 18.1144 10.4245 18.8181 10.4245Z" fill="#F1F3F4"/>
<path d="M8 7.75V19.9715H35.9982V7.75H8ZM18.8181 10.4245H25.1801C25.8838 10.4245 26.453 10.9937 26.453 11.6973C26.453 12.3991 25.8838 12.9702 25.1801 12.9702H18.8181C18.1144 12.9702 17.5452 12.401 17.5452 11.6973C17.5452 10.9937 18.1144 10.4245 18.8181 10.4245Z" fill="#E8EAED"/>
<path d="M21.9991 18.0633C17.5249 18.0633 13.6199 20.493 11.5293 24.107L13.1964 29.1926L15.7694 32.0642H17.4078L21.9991 24.1088L32.4689 24.1069C30.3783 20.493 26.4733 18.0633 21.9991 18.0633Z" fill="url(#paint1_linear_1_56)"/>
<path d="M11.5293 24.107C10.154 26.4951 9.62068 29.3111 10.0604 32.0642H16.122L11.5293 24.107Z" fill="url(#paint2_linear_1_56)"/>
<path d="M21.9991 24.1088L26.5918 32.0642H33.9378C34.3774 29.3117 33.8441 26.4968 32.4689 24.1088H21.9991Z" fill="url(#paint3_linear_1_56)"/>
<path d="M21.9991 24.1088C18.6613 24.1088 15.9554 26.8155 15.9554 30.1542C15.9554 30.822 16.0657 31.4636 16.2656 32.0642H27.7326C27.9325 31.4636 28.0428 30.822 28.0428 30.1542C28.0428 26.8155 25.3369 24.1088 21.9991 24.1088Z" fill="#F1F3F4"/>
<path d="M21.9991 25.2417C21.3542 25.2417 20.7156 25.3687 20.1198 25.6156C19.524 25.8625 18.9827 26.2244 18.5267 26.6805C18.0707 27.1367 17.7089 27.6783 17.4621 28.2743C17.2154 28.8703 17.0883 29.5091 17.0883 30.1542C17.0912 30.8109 17.2256 31.4604 17.4837 32.0642H26.5145C26.7726 31.4604 26.907 30.8109 26.9099 30.1542C26.9099 29.5091 26.7828 28.8703 26.5361 28.2743C26.2893 27.6783 25.9275 27.1367 25.4715 26.6805C25.0155 26.2244 24.4742 25.8625 23.8784 25.6156C23.2826 25.3687 22.644 25.2417 21.9991 25.2417Z" fill="#1A73E8"/>
<path opacity="0.1" d="M35.9982 19.9716H8V20.13H35.9982V19.9716Z" fill="#BDC1C6"/>
<path opacity="0.1" d="M35.9982 19.8113H8V19.9697H35.9982V19.8113Z" fill="#BDC1C6"/>
</g>
<g filter="url(#filter1_d_1_56)">
<path d="M44.4041 26.5007H42.424L46.8732 14.1371H49.0284L53.4776 26.5007H51.4975L48.0021 16.3828H47.9055L44.4041 26.5007ZM44.7361 21.6591H51.1594V23.2287H44.7361V21.6591ZM61.8886 17.228L58.526 26.5007H56.5942L53.2256 17.228H55.1634L57.5118 24.3636H57.6084L59.9507 17.228H61.8886ZM66.0178 26.706C65.4302 26.706 64.899 26.5973 64.4241 26.38C63.9492 26.1586 63.5729 25.8386 63.2952 25.4201C63.0215 25.0015 62.8846 24.4884 62.8846 23.8807C62.8846 23.3575 62.9853 22.9268 63.1865 22.5888C63.3877 22.2507 63.6594 21.9831 64.0015 21.7859C64.3436 21.5886 64.7259 21.4397 65.1485 21.3391C65.5711 21.2385 66.0017 21.162 66.4404 21.1097C66.9958 21.0453 67.4466 20.993 67.7927 20.9528C68.1388 20.9085 68.3903 20.8381 68.5473 20.7415C68.7042 20.6449 68.7827 20.4879 68.7827 20.2706V20.2283C68.7827 19.7011 68.6338 19.2926 68.336 19.0028C68.0422 18.7131 67.6035 18.5682 67.0199 18.5682C66.4122 18.5682 65.9333 18.703 65.5832 18.9726C65.237 19.2383 64.9976 19.5341 64.8648 19.8601L63.1684 19.4737C63.3696 18.9103 63.6634 18.4555 64.0498 18.1094C64.4402 17.7592 64.8889 17.5057 65.396 17.3487C65.9031 17.1877 66.4364 17.1072 66.9958 17.1072C67.3661 17.1072 67.7585 17.1515 68.173 17.24C68.5916 17.3246 68.9819 17.4815 69.3442 17.7109C69.7104 17.9403 70.0102 18.2683 70.2437 18.6949C70.4771 19.1175 70.5938 19.6669 70.5938 20.343V26.5007H68.831V25.2329H68.7586C68.6419 25.4664 68.4668 25.6958 68.2334 25.9212C67.9999 26.1465 67.7001 26.3337 67.3339 26.4826C66.9676 26.6315 66.5289 26.706 66.0178 26.706ZM66.4102 25.2571C66.9093 25.2571 67.3359 25.1585 67.69 24.9613C68.0482 24.7641 68.3199 24.5065 68.505 24.1886C68.6942 23.8666 68.7888 23.5225 68.7888 23.1562V21.9609C68.7244 22.0253 68.5996 22.0857 68.4145 22.142C68.2334 22.1944 68.0261 22.2406 67.7927 22.2809C67.5592 22.3171 67.3319 22.3513 67.1105 22.3835C66.8891 22.4117 66.704 22.4358 66.5551 22.456C66.205 22.5002 65.885 22.5747 65.5952 22.6793C65.3095 22.784 65.0801 22.9349 64.907 23.1321C64.738 23.3253 64.6535 23.5828 64.6535 23.9048C64.6535 24.3515 64.8185 24.6896 65.1485 24.919C65.4785 25.1444 65.8991 25.2571 66.4102 25.2571ZM72.998 26.5007V17.228H74.8031V26.5007H72.998ZM73.9096 15.7972C73.5957 15.7972 73.326 15.6926 73.1006 15.4833C72.8793 15.27 72.7686 15.0164 72.7686 14.7226C72.7686 14.4248 72.8793 14.1713 73.1006 13.962C73.326 13.7487 73.5957 13.642 73.9096 13.642C74.2235 13.642 74.4911 13.7487 74.7125 13.962C74.9379 14.1713 75.0506 14.4248 75.0506 14.7226C75.0506 15.0164 74.9379 15.27 74.7125 15.4833C74.4911 15.6926 74.2235 15.7972 73.9096 15.7972ZM79.0365 14.1371V26.5007H77.2314V14.1371H79.0365ZM84.1633 26.706C83.5757 26.706 83.0445 26.5973 82.5696 26.38C82.0947 26.1586 81.7184 25.8386 81.4407 25.4201C81.167 25.0015 81.0301 24.4884 81.0301 23.8807C81.0301 23.3575 81.1308 22.9268 81.332 22.5888C81.5332 22.2507 81.8049 21.9831 82.147 21.7859C82.4891 21.5886 82.8714 21.4397 83.294 21.3391C83.7166 21.2385 84.1472 21.162 84.5859 21.1097C85.1413 21.0453 85.5921 20.993 85.9382 20.9528C86.2843 20.9085 86.5358 20.8381 86.6928 20.7415C86.8497 20.6449 86.9282 20.4879 86.9282 20.2706V20.2283C86.9282 19.7011 86.7793 19.2926 86.4815 19.0028C86.1877 18.7131 85.749 18.5682 85.1654 18.5682C84.5577 18.5682 84.0788 18.703 83.7287 18.9726C83.3825 19.2383 83.1431 19.5341 83.0103 19.8601L81.3139 19.4737C81.5151 18.9103 81.8089 18.4555 82.1953 18.1094C82.5857 17.7592 83.0344 17.5057 83.5415 17.3487C84.0486 17.1877 84.5819 17.1072 85.1413 17.1072C85.5116 17.1072 85.904 17.1515 86.3185 17.24C86.7371 17.3246 87.1274 17.4815 87.4897 17.7109C87.8559 17.9403 88.1557 18.2683 88.3892 18.6949C88.6226 19.1175 88.7393 19.6669 88.7393 20.343V26.5007H86.9765V25.2329H86.9041C86.7874 25.4664 86.6123 25.6958 86.3789 25.9212C86.1454 26.1465 85.8456 26.3337 85.4794 26.4826C85.1131 26.6315 84.6744 26.706 84.1633 26.706ZM84.5557 25.2571C85.0548 25.2571 85.4814 25.1585 85.8355 24.9613C86.1937 24.7641 86.4654 24.5065 86.6505 24.1886C86.8397 23.8666 86.9343 23.5225 86.9343 23.1562V21.9609C86.8699 22.0253 86.7451 22.0857 86.56 22.142C86.3789 22.1944 86.1716 22.2406 85.9382 22.2809C85.7047 22.3171 85.4774 22.3513 85.256 22.3835C85.0346 22.4117 84.8495 22.4358 84.7006 22.456C84.3505 22.5002 84.0305 22.5747 83.7407 22.6793C83.455 22.784 83.2256 22.9349 83.0525 23.1321C82.8835 23.3253 82.799 23.5828 82.799 23.9048C82.799 24.3515 82.964 24.6896 83.294 24.919C83.624 25.1444 84.0446 25.2571 84.5557 25.2571ZM91.2884 26.5007V14.1371H93.0934V18.7312H93.2021C93.3067 18.538 93.4577 18.3146 93.6549 18.0611C93.8521 17.8075 94.1258 17.5862 94.4759 17.397C94.826 17.2038 95.2889 17.1072 95.8644 17.1072C96.613 17.1072 97.2811 17.2964 97.8687 17.6747C98.4563 18.053 98.9171 18.5984 99.2511 19.3107C99.5892 20.0231 99.7582 20.8803 99.7582 21.8824C99.7582 22.8846 99.5912 23.7438 99.2571 24.4602C98.9231 25.1726 98.4643 25.7219 97.8807 26.1083C97.2972 26.4906 96.6311 26.6818 95.8825 26.6818C95.3191 26.6818 94.8582 26.5872 94.5 26.3981C94.1459 26.2089 93.8682 25.9876 93.667 25.734C93.4657 25.4805 93.3108 25.2551 93.2021 25.0579H93.0512V26.5007H91.2884ZM93.0572 21.8643C93.0572 22.5163 93.1518 23.0878 93.341 23.5788C93.5301 24.0698 93.8038 24.4542 94.162 24.7319C94.5202 25.0056 94.9589 25.1424 95.478 25.1424C96.0173 25.1424 96.4681 24.9995 96.8303 24.7138C97.1925 24.424 97.4662 24.0316 97.6513 23.5366C97.8405 23.0415 97.9351 22.4841 97.9351 21.8643C97.9351 21.2526 97.8425 20.7032 97.6574 20.2163C97.4763 19.7293 97.2026 19.3449 96.8363 19.0632C96.4741 18.7815 96.0214 18.6406 95.478 18.6406C94.9548 18.6406 94.5121 18.7754 94.1499 19.0451C93.7917 19.3147 93.5201 19.691 93.3349 20.174C93.1498 20.6569 93.0572 21.2204 93.0572 21.8643ZM103.59 14.1371V26.5007H101.785V14.1371H103.59ZM110.015 26.6878C109.101 26.6878 108.315 26.4926 107.655 26.1023C106.999 25.7078 106.491 25.1545 106.133 24.4421C105.779 23.7257 105.602 22.8866 105.602 21.9247C105.602 20.9749 105.779 20.1378 106.133 19.4133C106.491 18.6889 106.99 18.1234 107.63 17.717C108.274 17.3105 109.027 17.1072 109.888 17.1072C110.411 17.1072 110.918 17.1938 111.409 17.3668C111.9 17.5399 112.341 17.8115 112.732 18.1818C113.122 18.5521 113.43 19.033 113.655 19.6246C113.881 20.2122 113.993 20.9266 113.993 21.7677V22.4077H106.622V21.0554H112.224C112.224 20.5805 112.128 20.1599 111.935 19.7937C111.742 19.4234 111.47 19.1316 111.12 18.9183C110.774 18.705 110.367 18.5984 109.9 18.5984C109.393 18.5984 108.95 18.7231 108.572 18.9726C108.198 19.2181 107.908 19.5401 107.703 19.9386C107.502 20.333 107.401 20.7616 107.401 21.2244V22.2809C107.401 22.9007 107.51 23.4279 107.727 23.8626C107.948 24.2972 108.256 24.6292 108.651 24.8587C109.045 25.084 109.506 25.1967 110.033 25.1967C110.375 25.1967 110.687 25.1484 110.969 25.0518C111.251 24.9512 111.494 24.8023 111.699 24.6051C111.905 24.4079 112.061 24.1644 112.17 23.8746L113.879 24.1825C113.742 24.6856 113.496 25.1263 113.142 25.5046C112.792 25.8789 112.351 26.1707 111.82 26.38C111.293 26.5852 110.691 26.6878 110.015 26.6878ZM124.401 26.6878C123.532 26.6878 122.773 26.4886 122.125 26.0902C121.477 25.6917 120.974 25.1343 120.616 24.418C120.258 23.7016 120.079 22.8645 120.079 21.9066C120.079 20.9447 120.258 20.1036 120.616 19.3832C120.974 18.6627 121.477 18.1033 122.125 17.7049C122.773 17.3065 123.532 17.1072 124.401 17.1072C125.27 17.1072 126.029 17.3065 126.677 17.7049C127.325 18.1033 127.828 18.6627 128.186 19.3832C128.544 20.1036 128.723 20.9447 128.723 21.9066C128.723 22.8645 128.544 23.7016 128.186 24.418C127.828 25.1343 127.325 25.6917 126.677 26.0902C126.029 26.4886 125.27 26.6878 124.401 26.6878ZM124.407 25.1726C124.97 25.1726 125.437 25.0237 125.808 24.7258C126.178 24.428 126.452 24.0316 126.629 23.5366C126.81 23.0415 126.9 22.4962 126.9 21.9006C126.9 21.3089 126.81 20.7656 126.629 20.2706C126.452 19.7715 126.178 19.3711 125.808 19.0692C125.437 18.7674 124.97 18.6165 124.407 18.6165C123.84 18.6165 123.369 18.7674 122.994 19.0692C122.624 19.3711 122.348 19.7715 122.167 20.2706C121.99 20.7656 121.902 21.3089 121.902 21.9006C121.902 22.4962 121.99 23.0415 122.167 23.5366C122.348 24.0316 122.624 24.428 122.994 24.7258C123.369 25.0237 123.84 25.1726 124.407 25.1726ZM132.543 20.995V26.5007H130.738V17.228H132.471V18.7372H132.586C132.799 18.2462 133.133 17.8518 133.588 17.554C134.046 17.2561 134.624 17.1072 135.32 17.1072C135.952 17.1072 136.506 17.24 136.98 17.5057C137.455 17.7673 137.824 18.1577 138.085 18.6768C138.347 19.196 138.478 19.8379 138.478 20.6026V26.5007H136.673V20.8199C136.673 20.1478 136.497 19.6226 136.147 19.2443C135.797 18.862 135.316 18.6708 134.704 18.6708C134.286 18.6708 133.914 18.7614 133.588 18.9425C133.266 19.1236 133.01 19.3892 132.821 19.7393C132.636 20.0855 132.543 20.504 132.543 20.995Z" fill="#E8E8E8"/>
<path d="M156.16 18.1165H153.141C153.101 17.8066 153.019 17.5269 152.894 17.2773C152.769 17.0278 152.604 16.8145 152.399 16.6374C152.193 16.4603 151.95 16.3255 151.668 16.2329C151.391 16.1364 151.083 16.0881 150.745 16.0881C150.145 16.0881 149.628 16.235 149.193 16.5288C148.762 16.8226 148.43 17.2471 148.197 17.8025C147.968 18.3579 147.853 19.0301 147.853 19.8189C147.853 20.6399 147.97 21.3281 148.203 21.8835C148.441 22.4349 148.773 22.8514 149.199 23.1332C149.63 23.4109 150.139 23.5497 150.727 23.5497C151.057 23.5497 151.356 23.5074 151.626 23.4229C151.9 23.3384 152.139 23.2157 152.344 23.0547C152.554 22.8897 152.725 22.6904 152.858 22.457C152.994 22.2196 153.089 21.9519 153.141 21.6541L156.16 21.6722C156.107 22.2196 155.948 22.7589 155.683 23.2901C155.421 23.8214 155.061 24.3063 154.602 24.745C154.143 25.1797 153.584 25.5258 152.924 25.7834C152.268 26.0409 151.515 26.1697 150.666 26.1697C149.547 26.1697 148.545 25.9242 147.66 25.4332C146.778 24.9382 146.082 24.2178 145.571 23.272C145.06 22.3262 144.804 21.1752 144.804 19.8189C144.804 18.4586 145.064 17.3055 145.583 16.3597C146.102 15.4139 146.805 14.6955 147.69 14.2045C148.575 13.7135 149.567 13.468 150.666 13.468C151.415 13.468 152.107 13.5727 152.743 13.782C153.379 13.9872 153.938 14.2891 154.421 14.6875C154.904 15.0819 155.296 15.5669 155.598 16.1424C155.9 16.7179 156.087 17.3759 156.16 18.1165ZM160.822 20.7123V26.0007H157.87V13.6371H160.725V18.4304H160.828C161.037 17.8589 161.379 17.4122 161.854 17.0902C162.333 16.7682 162.919 16.6072 163.611 16.6072C164.263 16.6072 164.83 16.7521 165.313 17.0419C165.796 17.3276 166.17 17.7321 166.436 18.2553C166.706 18.7785 166.839 19.3903 166.835 20.0905V26.0007H163.882V20.6701C163.887 20.1549 163.758 19.7525 163.496 19.4627C163.235 19.1729 162.866 19.028 162.391 19.028C162.081 19.028 161.808 19.0965 161.57 19.2333C161.337 19.3661 161.154 19.5573 161.021 19.8068C160.892 20.0563 160.826 20.3582 160.822 20.7123ZM168.677 26.0007V16.728H171.545V18.4183H171.641C171.81 17.8066 172.086 17.3518 172.469 17.054C172.851 16.7521 173.296 16.6012 173.803 16.6012C173.94 16.6012 174.08 16.6113 174.225 16.6314C174.37 16.6475 174.505 16.6736 174.63 16.7099V19.2756C174.489 19.2273 174.304 19.189 174.074 19.1609C173.849 19.1327 173.648 19.1186 173.471 19.1186C173.121 19.1186 172.805 19.1971 172.523 19.354C172.245 19.507 172.026 19.7223 171.865 20C171.708 20.2737 171.629 20.5956 171.629 20.9659V26.0007H168.677ZM179.68 26.1758C178.706 26.1758 177.869 25.9765 177.168 25.5781C176.472 25.1757 175.935 24.6162 175.556 23.8998C175.182 23.1794 174.995 22.3443 174.995 21.3945C174.995 20.4407 175.182 19.6056 175.556 18.8892C175.935 18.1688 176.472 17.6094 177.168 17.2109C177.869 16.8085 178.706 16.6072 179.68 16.6072C180.654 16.6072 181.489 16.8085 182.185 17.2109C182.885 17.6094 183.423 18.1688 183.797 18.8892C184.175 19.6056 184.364 20.4407 184.364 21.3945C184.364 22.3443 184.175 23.1794 183.797 23.8998C183.423 24.6162 182.885 25.1757 182.185 25.5781C181.489 25.9765 180.654 26.1758 179.68 26.1758ZM179.698 23.9481C180.052 23.9481 180.352 23.8395 180.597 23.6221C180.843 23.4048 181.03 23.103 181.159 22.7166C181.291 22.3302 181.358 21.8835 181.358 21.3764C181.358 20.8613 181.291 20.4105 181.159 20.0241C181.03 19.6378 180.843 19.3359 180.597 19.1186C180.352 18.9013 180.052 18.7926 179.698 18.7926C179.332 18.7926 179.022 18.9013 178.768 19.1186C178.519 19.3359 178.327 19.6378 178.195 20.0241C178.066 20.4105 178.001 20.8613 178.001 21.3764C178.001 21.8835 178.066 22.3302 178.195 22.7166C178.327 23.103 178.519 23.4048 178.768 23.6221C179.022 23.8395 179.332 23.9481 179.698 23.9481ZM185.877 26.0007V16.728H188.684V18.4304H188.786C188.98 17.8669 189.306 17.4222 189.764 17.0962C190.223 16.7702 190.77 16.6072 191.406 16.6072C192.05 16.6072 192.602 16.7722 193.06 17.1023C193.519 17.4323 193.811 17.875 193.936 18.4304H194.032C194.205 17.879 194.544 17.4383 195.047 17.1083C195.55 16.7743 196.143 16.6072 196.828 16.6072C197.705 16.6072 198.417 16.889 198.965 17.4524C199.512 18.0118 199.786 18.7805 199.786 19.7585V26.0007H196.834V20.4346C196.834 19.9718 196.715 19.6197 196.477 19.3782C196.24 19.1327 195.932 19.0099 195.554 19.0099C195.147 19.0099 194.827 19.1427 194.594 19.4084C194.364 19.67 194.25 20.0221 194.25 20.4648V26.0007H191.412V20.4045C191.412 19.9738 191.296 19.6337 191.062 19.3842C190.829 19.1347 190.521 19.0099 190.139 19.0099C189.881 19.0099 189.654 19.0723 189.456 19.1971C189.259 19.3178 189.104 19.4909 188.992 19.7163C188.883 19.9416 188.829 20.2073 188.829 20.5131V26.0007H185.877ZM205.949 26.1758C204.979 26.1758 204.142 25.9846 203.438 25.6023C202.738 25.2159 202.198 24.6665 201.82 23.9542C201.446 23.2378 201.259 22.3866 201.259 21.4006C201.259 20.4427 201.448 19.6056 201.826 18.8892C202.204 18.1688 202.738 17.6094 203.426 17.2109C204.114 16.8085 204.925 16.6072 205.859 16.6072C206.519 16.6072 207.123 16.7099 207.67 16.9151C208.217 17.1204 208.69 17.4242 209.089 17.8267C209.487 18.2292 209.797 18.7262 210.018 19.3178C210.24 19.9054 210.35 20.5795 210.35 21.3402V22.0767H202.291V20.3622H207.603C207.599 20.0483 207.525 19.7686 207.38 19.5231C207.235 19.2776 207.036 19.0864 206.782 18.9496C206.533 18.8087 206.245 18.7383 205.919 18.7383C205.589 18.7383 205.293 18.8127 205.032 18.9616C204.77 19.1065 204.563 19.3057 204.41 19.5593C204.257 19.8088 204.176 20.0926 204.168 20.4105V22.1552C204.168 22.5335 204.243 22.8655 204.392 23.1513C204.541 23.433 204.752 23.6523 205.026 23.8093C205.299 23.9663 205.625 24.0447 206.004 24.0447C206.265 24.0447 206.503 24.0085 206.716 23.9361C206.929 23.8636 207.112 23.757 207.265 23.6161C207.418 23.4752 207.533 23.3022 207.609 23.0969L210.32 23.1754C210.207 23.7831 209.96 24.3124 209.578 24.7631C209.199 25.2099 208.702 25.558 208.086 25.8075C207.471 26.053 206.758 26.1758 205.949 26.1758ZM218.474 26.0007L214.876 13.6371H218.179L220.044 21.7386H220.147L222.278 13.6371H224.97L227.101 21.7567H227.204L229.075 13.6371H232.371L228.779 26.0007H225.9L223.672 18.5028H223.576L221.348 26.0007H218.474ZM236.911 26.1758C235.941 26.1758 235.104 25.9846 234.4 25.6023C233.7 25.2159 233.16 24.6665 232.782 23.9542C232.408 23.2378 232.221 22.3866 232.221 21.4006C232.221 20.4427 232.41 19.6056 232.788 18.8892C233.166 18.1688 233.7 17.6094 234.388 17.2109C235.076 16.8085 235.887 16.6072 236.821 16.6072C237.481 16.6072 238.084 16.7099 238.632 16.9151C239.179 17.1204 239.652 17.4242 240.05 17.8267C240.449 18.2292 240.759 18.7262 240.98 19.3178C241.201 19.9054 241.312 20.5795 241.312 21.3402V22.0767H233.253V20.3622H238.565C238.561 20.0483 238.487 19.7686 238.342 19.5231C238.197 19.2776 237.998 19.0864 237.744 18.9496C237.495 18.8087 237.207 18.7383 236.881 18.7383C236.551 18.7383 236.255 18.8127 235.994 18.9616C235.732 19.1065 235.525 19.3057 235.372 19.5593C235.219 19.8088 235.138 20.0926 235.13 20.4105V22.1552C235.13 22.5335 235.205 22.8655 235.354 23.1513C235.503 23.433 235.714 23.6523 235.988 23.8093C236.261 23.9663 236.587 24.0447 236.966 24.0447C237.227 24.0447 237.465 24.0085 237.678 23.9361C237.891 23.8636 238.074 23.757 238.227 23.6161C238.38 23.4752 238.495 23.3022 238.571 23.0969L241.282 23.1754C241.169 23.7831 240.922 24.3124 240.539 24.7631C240.161 25.2099 239.664 25.558 239.048 25.8075C238.433 26.053 237.72 26.1758 236.911 26.1758ZM242.82 26.0007V13.6371H245.772V18.3157H245.832C245.953 18.034 246.124 17.7623 246.345 17.5007C246.571 17.2391 246.857 17.0258 247.203 16.8608C247.553 16.6918 247.971 16.6072 248.458 16.6072C249.102 16.6072 249.704 16.7763 250.263 17.1143C250.827 17.4524 251.282 17.9736 251.628 18.6779C251.974 19.3822 252.147 20.2797 252.147 21.3704C252.147 22.4208 251.98 23.3002 251.646 24.0085C251.316 24.7168 250.869 25.2481 250.306 25.6023C249.746 25.9564 249.124 26.1335 248.44 26.1335C247.973 26.1335 247.569 26.057 247.227 25.9041C246.885 25.7512 246.597 25.5499 246.364 25.3004C246.134 25.0509 245.957 24.7832 245.832 24.4975H245.742V26.0007H242.82ZM245.712 21.3643C245.712 21.8634 245.778 22.298 245.911 22.6683C246.048 23.0386 246.243 23.3263 246.496 23.5316C246.754 23.7328 247.062 23.8334 247.42 23.8334C247.782 23.8334 248.09 23.7328 248.344 23.5316C248.597 23.3263 248.788 23.0386 248.917 22.6683C249.05 22.298 249.116 21.8634 249.116 21.3643C249.116 20.8653 249.05 20.4326 248.917 20.0664C248.788 19.7002 248.597 19.4164 248.344 19.2152C248.094 19.014 247.786 18.9133 247.42 18.9133C247.058 18.9133 246.75 19.0119 246.496 19.2092C246.243 19.4064 246.048 19.6881 245.911 20.0543C245.778 20.4206 245.712 20.8572 245.712 21.3643ZM264.029 17.3437C263.989 16.901 263.81 16.5569 263.492 16.3114C263.178 16.0619 262.729 15.9371 262.146 15.9371C261.759 15.9371 261.437 15.9874 261.18 16.0881C260.922 16.1887 260.729 16.3275 260.6 16.5046C260.471 16.6777 260.405 16.8769 260.401 17.1023C260.393 17.2874 260.429 17.4504 260.51 17.5913C260.594 17.7321 260.715 17.8569 260.872 17.9655C261.033 18.0702 261.226 18.1627 261.451 18.2432C261.677 18.3237 261.93 18.3942 262.212 18.4545L263.275 18.696C263.886 18.8288 264.426 19.0059 264.892 19.2273C265.363 19.4486 265.758 19.7122 266.076 20.0181C266.398 20.324 266.641 20.6761 266.806 21.0746C266.971 21.473 267.056 21.9197 267.06 22.4148C267.056 23.1955 266.858 23.8656 266.468 24.4251C266.078 24.9845 265.516 25.4131 264.784 25.7109C264.055 26.0087 263.176 26.1577 262.146 26.1577C261.111 26.1577 260.21 26.0027 259.441 25.6928C258.672 25.3829 258.075 24.912 257.648 24.2802C257.221 23.6483 257.002 22.8494 256.99 21.8835H259.852C259.876 22.2819 259.982 22.614 260.172 22.8796C260.361 23.1452 260.62 23.3465 260.95 23.4833C261.284 23.6201 261.671 23.6886 262.109 23.6886C262.512 23.6886 262.854 23.6342 263.136 23.5256C263.421 23.4169 263.641 23.266 263.794 23.0728C263.947 22.8796 264.025 22.6583 264.029 22.4087C264.025 22.1753 263.953 21.9761 263.812 21.8111C263.671 21.642 263.454 21.4971 263.16 21.3764C262.87 21.2516 262.5 21.1369 262.049 21.0323L260.757 20.7305C259.687 20.485 258.843 20.0885 258.228 19.5412C257.612 18.9898 257.306 18.2453 257.31 17.3075C257.306 16.5428 257.511 15.8727 257.926 15.2972C258.34 14.7217 258.914 14.273 259.646 13.951C260.379 13.629 261.214 13.468 262.152 13.468C263.109 13.468 263.941 13.631 264.645 13.957C265.353 14.279 265.903 14.7318 266.293 15.3153C266.683 15.8989 266.883 16.575 266.891 17.3437H264.029ZM273.803 16.728V18.9013L267.953 18.9013V16.728H273.803ZM269.179 14.5064H272.131V23.0849C272.131 23.266 272.159 23.4129 272.215 23.5256C272.276 23.6342 272.362 23.7127 272.475 23.761C272.587 23.8053 272.722 23.8274 272.879 23.8274C272.992 23.8274 273.111 23.8173 273.235 23.7972C273.364 23.7731 273.461 23.7529 273.525 23.7368L273.972 25.8679C273.831 25.9081 273.632 25.9584 273.374 26.0188C273.121 26.0792 272.817 26.1174 272.463 26.1335C271.77 26.1657 271.177 26.0852 270.682 25.892C270.191 25.6948 269.815 25.389 269.553 24.9744C269.295 24.5599 269.171 24.0387 269.179 23.4109V14.5064ZM279.538 26.1758C278.564 26.1758 277.727 25.9765 277.027 25.5781C276.33 25.1757 275.793 24.6162 275.415 23.8998C275.04 23.1794 274.853 22.3443 274.853 21.3945C274.853 20.4407 275.04 19.6056 275.415 18.8892C275.793 18.1688 276.33 17.6094 277.027 17.2109C277.727 16.8085 278.564 16.6072 279.538 16.6072C280.512 16.6072 281.347 16.8085 282.043 17.2109C282.744 17.6094 283.281 18.1688 283.655 18.8892C284.033 19.6056 284.223 20.4407 284.223 21.3945C284.223 22.3443 284.033 23.1794 283.655 23.8998C283.281 24.6162 282.744 25.1757 282.043 25.5781C281.347 25.9765 280.512 26.1758 279.538 26.1758ZM279.556 23.9481C279.91 23.9481 280.21 23.8395 280.456 23.6221C280.701 23.4048 280.888 23.103 281.017 22.7166C281.15 22.3302 281.216 21.8835 281.216 21.3764C281.216 20.8613 281.15 20.4105 281.017 20.0241C280.888 19.6378 280.701 19.3359 280.456 19.1186C280.21 18.9013 279.91 18.7926 279.556 18.7926C279.19 18.7926 278.88 18.9013 278.626 19.1186C278.377 19.3359 278.186 19.6378 278.053 20.0241C277.924 20.4105 277.86 20.8613 277.86 21.3764C277.86 21.8835 277.924 22.3302 278.053 22.7166C278.186 23.103 278.377 23.4048 278.626 23.6221C278.88 23.8395 279.19 23.9481 279.556 23.9481ZM285.735 26.0007V16.728H288.602V18.4183H288.699C288.868 17.8066 289.144 17.3518 289.526 17.054C289.908 16.7521 290.353 16.6012 290.86 16.6012C290.997 16.6012 291.138 16.6113 291.283 16.6314C291.428 16.6475 291.563 16.6736 291.687 16.7099V19.2756C291.546 19.2273 291.361 19.189 291.132 19.1609C290.907 19.1327 290.705 19.1186 290.528 19.1186C290.178 19.1186 289.862 19.1971 289.58 19.354C289.303 19.507 289.083 19.7223 288.922 20C288.765 20.2737 288.687 20.5956 288.687 20.9659V26.0007H285.735ZM296.743 26.1758C295.773 26.1758 294.936 25.9846 294.232 25.6023C293.532 25.2159 292.992 24.6665 292.614 23.9542C292.24 23.2378 292.053 22.3866 292.053 21.4006C292.053 20.4427 292.242 19.6056 292.62 18.8892C292.998 18.1688 293.532 17.6094 294.22 17.2109C294.908 16.8085 295.719 16.6072 296.653 16.6072C297.313 16.6072 297.916 16.7099 298.464 16.9151C299.011 17.1204 299.484 17.4242 299.882 17.8267C300.281 18.2292 300.591 18.7262 300.812 19.3178C301.033 19.9054 301.144 20.5795 301.144 21.3402V22.0767H293.085V20.3622H298.397C298.393 20.0483 298.319 19.7686 298.174 19.5231C298.029 19.2776 297.83 19.0864 297.576 18.9496C297.327 18.8087 297.039 18.7383 296.713 18.7383C296.383 18.7383 296.087 18.8127 295.826 18.9616C295.564 19.1065 295.357 19.3057 295.204 19.5593C295.051 19.8088 294.97 20.0926 294.962 20.4105V22.1552C294.962 22.5335 295.037 22.8655 295.186 23.1513C295.335 23.433 295.546 23.6523 295.82 23.8093C296.093 23.9663 296.419 24.0447 296.798 24.0447C297.059 24.0447 297.297 24.0085 297.51 23.9361C297.723 23.8636 297.906 23.757 298.059 23.6161C298.212 23.4752 298.327 23.3022 298.403 23.0969L301.114 23.1754C301.001 23.7831 300.754 24.3124 300.371 24.7631C299.993 25.2099 299.496 25.558 298.88 25.8075C298.265 26.053 297.552 26.1758 296.743 26.1758Z" fill="url(#paint4_linear_1_56)"/>
</g>
<defs>
<filter id="filter0_d_1_56" x="2.39972" y="0.39972" width="39.202" height="39.202" filterUnits="userSpaceOnUse" color-interpolation-filters="sRGB">
<feFlood flood-opacity="0" result="BackgroundImageFix"/>
<feColorMatrix in="SourceAlpha" type="matrix" values="0 0 0 0 0 0 0 0 0 0 0 0 0 0 0 0 0 0 127 0" result="hardAlpha"/>
<feOffset/>
<feGaussianBlur stdDeviation="2.80014"/>
<feComposite in2="hardAlpha" operator="out"/>
<feColorMatrix type="matrix" values="0 0 0 0 0 0 0 0 0 0 0 0 0 0 0 0 0 0 0.25 0"/>
<feBlend mode="normal" in2="BackgroundImageFix" result="effect1_dropShadow_1_56"/>
<feBlend mode="normal" in="SourceGraphic" in2="effect1_dropShadow_1_56" result="shape"/>
</filter>
<filter id="filter1_d_1_56" x="36.2871" y="3.78642" width="271.428" height="32.4286" filterUnits="userSpaceOnUse" color-interpolation-filters="sRGB">
<feFlood flood-opacity="0" result="BackgroundImageFix"/>
<feColorMatrix in="SourceAlpha" type="matrix" values="0 0 0 0 0 0 0 0 0 0 0 0 0 0 0 0 0 0 127 0" result="hardAlpha"/>
<feOffset/>
<feGaussianBlur stdDeviation="2.85714"/>
<feComposite in2="hardAlpha" operator="out"/>
<feColorMatrix type="matrix" values="0 0 0 0 0 0 0 0 0 0 0 0 0 0 0 0 0 0 0.25 0"/>
<feBlend mode="normal" in2="BackgroundImageFix" result="effect1_dropShadow_1_56"/>
<feBlend mode="normal" in="SourceGraphic" in2="effect1_dropShadow_1_56" result="shape"/>
</filter>
<linearGradient id="paint0_linear_1_56" x1="155.001" y1="0" x2="155.001" y2="40.0014" gradientUnits="userSpaceOnUse">
<stop stop-color="#00171C"/>
<stop offset="0.333333" stop-color="#0A1209"/>
<stop offset="0.666667" stop-color="#100F06"/>
<stop offset="1" stop-color="#1A0000"/>
</linearGradient>
<linearGradient id="paint1_linear_1_56" x1="11.5292" y1="25.62" x2="32.469" y2="25.62" gradientUnits="userSpaceOnUse">
<stop stop-color="#D93025"/>
<stop offset="1" stop-color="#EA4335"/>
</linearGradient>
<linearGradient id="paint2_linear_1_56" x1="23.3086" y1="41.4896" x2="12.8366" y2="23.3521" gradientUnits="userSpaceOnUse">
<stop stop-color="#1E8E3E"/>
<stop offset="1" stop-color="#34A853"/>
</linearGradient>
<linearGradient id="paint3_linear_1_56" x1="30.7376" y1="24.0843" x2="20.2659" y2="42.2213" gradientUnits="userSpaceOnUse">
<stop stop-color="#FBBC04"/>
<stop offset="1" stop-color="#FCC934"/>
</linearGradient>
<linearGradient id="paint4_linear_1_56" x1="145.5" y1="20" x2="302" y2="20" gradientUnits="userSpaceOnUse">
<stop stop-color="#5991EE"/>
<stop offset="0.333333" stop-color="#56AB6C"/>
<stop offset="0.666667" stop-color="#F5D26A"/>
<stop offset="1" stop-color="#EB786F"/>
</linearGradient>
</defs>
</svg>
