<svg width="173" height="40" viewBox="0 0 173 40" fill="none" xmlns="http://www.w3.org/2000/svg">
<rect width="173.001" height="40.0014" rx="8" fill="url(#paint0_linear_1_56)"/>
<rect x="1.07143" y="1.07143" width="170.859" height="37.8585" rx="6.92857" stroke="white" stroke-opacity="0.15" stroke-width="2.14286"/>
<g filter="url(#filter0_d_1_56)">
<path d="M26.8643 16.2013C26.8643 16.9058 26.5859 17.5815 26.0902 18.0796C25.5945 18.5778 24.9222 18.8577 24.2212 18.8577C23.5202 18.8577 22.848 18.5778 22.3523 18.0796C21.8566 17.5815 21.5781 16.9058 21.5781 16.2013C21.5781 15.4968 21.8566 14.8212 22.3523 14.323C22.848 13.8249 23.5202 13.545 24.2212 13.545C24.9222 13.545 25.5945 13.8249 26.0902 14.323C26.5859 14.8212 26.8643 15.4968 26.8643 16.2013Z" fill="#FFC131"/>
<path d="M19.776 21.1518C18.3163 21.1518 17.133 22.341 17.133 23.8081C17.133 25.2751 18.3163 26.4644 19.776 26.4644C21.2358 26.4644 22.4191 25.2751 22.4191 23.8081C22.4191 22.341 21.2358 21.1518 19.776 21.1518Z" fill="#24C8DB"/>
<path fill-rule="evenodd" clip-rule="evenodd" d="M29.6996 24.7136C28.6374 25.4038 27.4555 25.8871 26.2156 26.1384C26.5749 25.1088 26.6941 24.0099 26.564 22.9267C27.6153 22.5573 28.5652 21.9442 29.3367 21.137C30.1082 20.3298 30.6796 19.3513 31.0046 18.2807C31.3296 17.2102 31.399 16.0778 31.2072 14.9752C31.0154 13.8727 30.5678 12.8311 29.9007 11.9348C29.2336 11.0386 28.3658 10.3129 27.3675 9.81666C26.3693 9.32041 25.2688 9.06755 24.1551 9.07856C23.0415 9.08956 21.9461 9.36414 20.9578 9.88002C19.9694 10.3959 19.1159 11.1386 18.4665 12.0478C17.1217 12.1999 15.813 12.5839 14.598 13.1828C15.0783 11.6253 15.9252 10.2072 17.0668 9.04864C18.2085 7.89007 19.6113 7.02521 21.1562 6.52738C22.7012 6.02954 24.3428 5.91341 25.942 6.18882C27.5411 6.46424 29.0506 7.12308 30.3425 8.10949C31.6343 9.09591 32.6705 10.3808 33.3632 11.8553C34.0559 13.3298 34.3846 14.9504 34.3215 16.5797C34.2585 18.2091 33.8054 19.7991 33.0009 21.215C32.1963 22.631 31.0639 23.8311 29.6996 24.7136ZM14.7181 15.0302L17.193 15.332C17.2492 14.8517 17.3538 14.3783 17.5054 13.9193C16.5265 14.1481 15.587 14.5225 14.7181 15.0302Z" fill="#FFC131"/>
<path fill-rule="evenodd" clip-rule="evenodd" d="M14.2856 15.2958C15.3543 14.5986 16.5446 14.1111 17.7937 13.859C17.4159 14.8884 17.2802 15.9918 17.3973 17.0828C16.3496 17.4573 15.4043 18.0744 14.6378 18.8841C13.8713 19.6937 13.3051 20.6732 12.985 21.7435C12.6648 22.8137 12.5997 23.9446 12.7949 25.0449C12.9901 26.1451 13.4401 27.1837 14.1085 28.0768C14.777 28.9699 15.6452 29.6924 16.6428 30.1859C17.6405 30.6795 18.7398 30.9302 19.8517 30.9178C20.9636 30.9054 22.057 30.6302 23.0436 30.1146C24.0302 29.599 24.8822 28.8573 25.5308 27.9495C26.8749 27.8012 28.1835 27.4214 29.3993 26.8266C28.9177 28.3825 28.0703 29.7988 26.9288 30.9558C25.7872 32.1128 24.3851 32.9763 22.8411 33.4733C21.2971 33.9703 19.6566 34.0861 18.0587 33.8109C16.4607 33.5358 14.9522 32.8777 13.6609 31.8925C12.3696 30.9073 11.3334 29.624 10.6402 28.1511C9.94697 26.6782 9.61703 25.0591 9.67832 23.4309C9.73961 21.8027 10.1903 20.2133 10.9923 18.7972C11.7943 17.3811 12.9239 16.1801 14.2856 15.2958Z" fill="#24C8DB"/>
</g>
<g filter="url(#filter1_d_1_56)">
<g filter="url(#filter2_d_1_56)">
<path d="M43.3597 26.5007V14.1371H47.8874C48.7648 14.1371 49.4912 14.282 50.0667 14.5717C50.6423 14.8575 51.0729 15.2458 51.3586 15.7369C51.6444 16.2238 51.7873 16.7732 51.7873 17.3849C51.7873 17.9001 51.6927 18.3347 51.5035 18.6889C51.3144 19.0391 51.0608 19.3208 50.7429 19.5341C50.429 19.7434 50.0828 19.8963 49.7045 19.9929V20.1136C50.115 20.1337 50.5155 20.2666 50.9059 20.5121C51.3003 20.7535 51.6263 21.0976 51.8839 21.5444C52.1414 21.9911 52.2702 22.5344 52.2702 23.1743C52.2702 23.8062 52.1213 24.3737 51.8235 24.8768C51.5297 25.3758 51.0749 25.7722 50.4591 26.066C49.8434 26.3558 49.0566 26.5007 48.0987 26.5007H43.3597ZM45.2251 24.9009H47.9176C48.8111 24.9009 49.451 24.7279 49.8373 24.3817C50.2237 24.0356 50.4169 23.603 50.4169 23.0838C50.4169 22.6934 50.3183 22.3352 50.1211 22.0092C49.9239 21.6832 49.6421 21.4236 49.2759 21.2305C48.9137 21.0373 48.483 20.9407 47.984 20.9407H45.2251V24.9009ZM45.2251 19.4858H47.7244C48.143 19.4858 48.5193 19.4053 48.8533 19.2443C49.1914 19.0833 49.459 18.8579 49.6562 18.5682C49.8575 18.2744 49.9581 17.9283 49.9581 17.5298C49.9581 17.0187 49.779 16.5901 49.4208 16.244C49.0626 15.8978 48.5132 15.7248 47.7727 15.7248H45.2251V19.4858ZM60.2118 22.6552V17.228H62.0229V26.5007H60.248V24.8949H60.1514C59.9381 25.3899 59.596 25.8024 59.1251 26.1324C58.6583 26.4584 58.0767 26.6214 57.3805 26.6214C56.7848 26.6214 56.2576 26.4906 55.7988 26.229C55.344 25.9634 54.9858 25.571 54.7242 25.0518C54.4667 24.5327 54.3379 23.8907 54.3379 23.1261V17.228H56.1429V22.9087C56.1429 23.5406 56.318 24.0437 56.6681 24.418C57.0183 24.7922 57.473 24.9794 58.0325 24.9794C58.3705 24.9794 58.7066 24.8949 59.0406 24.7258C59.3787 24.5568 59.6584 24.3012 59.8798 23.9591C60.1051 23.6171 60.2158 23.1824 60.2118 22.6552ZM64.4482 26.5007V17.228H66.2533V26.5007H64.4482ZM65.3598 15.7972C65.0459 15.7972 64.7762 15.6926 64.5508 15.4833C64.3295 15.27 64.2188 15.0164 64.2188 14.7226C64.2188 14.4248 64.3295 14.1713 64.5508 13.962C64.7762 13.7487 65.0459 13.642 65.3598 13.642C65.6737 13.642 65.9413 13.7487 66.1627 13.962C66.3881 14.1713 66.5008 14.4248 66.5008 14.7226C66.5008 15.0164 66.3881 15.27 66.1627 15.4833C65.9413 15.6926 65.6737 15.7972 65.3598 15.7972ZM70.4867 14.1371V26.5007H68.6816V14.1371H70.4867ZM77.2435 17.228V18.6768H72.1785V17.228H77.2435ZM73.5368 15.0064H75.3419V23.778C75.3419 24.1282 75.3942 24.3918 75.4988 24.5689C75.6035 24.7419 75.7383 24.8607 75.9033 24.9251C76.0723 24.9854 76.2554 25.0156 76.4526 25.0156C76.5975 25.0156 76.7243 25.0056 76.833 24.9854C76.9416 24.9653 77.0262 24.9492 77.0865 24.9371L77.4125 26.4283C77.3079 26.4685 77.159 26.5087 76.9658 26.549C76.7726 26.5933 76.5311 26.6174 76.2414 26.6214C75.7664 26.6295 75.3237 26.545 74.9132 26.3679C74.5027 26.1908 74.1707 25.9171 73.9171 25.5469C73.6636 25.1766 73.5368 24.7118 73.5368 24.1523V15.0064ZM85.7495 26.5007L83.0208 17.228H84.8862L86.7034 24.0376H86.7939L88.6171 17.228H90.4825L92.2936 24.0074H92.3841L94.1891 17.228H96.0546L93.3319 26.5007H91.4906L89.6071 19.8057H89.4683L87.5847 26.5007H85.7495ZM97.7675 26.5007V17.228H99.5726V26.5007H97.7675ZM98.6791 15.7972C98.3652 15.7972 98.0955 15.6926 97.8702 15.4833C97.6488 15.27 97.5381 15.0164 97.5381 14.7226C97.5381 14.4248 97.6488 14.1713 97.8702 13.962C98.0955 13.7487 98.3652 13.642 98.6791 13.642C98.993 13.642 99.2607 13.7487 99.482 13.962C99.7074 14.1713 99.8201 14.4248 99.8201 14.7226C99.8201 15.0164 99.7074 15.27 99.482 15.4833C99.2607 15.6926 98.993 15.7972 98.6791 15.7972ZM106.329 17.228V18.6768H101.264V17.228H106.329ZM102.623 15.0064H104.428V23.778C104.428 24.1282 104.48 24.3918 104.585 24.5689C104.689 24.7419 104.824 24.8607 104.989 24.9251C105.158 24.9854 105.341 25.0156 105.539 25.0156C105.683 25.0156 105.81 25.0056 105.919 24.9854C106.028 24.9653 106.112 24.9492 106.172 24.9371L106.498 26.4283C106.394 26.4685 106.245 26.5087 106.052 26.549C105.859 26.5933 105.617 26.6174 105.327 26.6214C104.852 26.6295 104.41 26.545 103.999 26.3679C103.589 26.1908 103.257 25.9171 103.003 25.5469C102.75 25.1766 102.623 24.7118 102.623 24.1523V15.0064ZM110.33 20.995V26.5007H108.525V14.1371H110.306V18.7372H110.421C110.638 18.2382 110.97 17.8417 111.417 17.5479C111.864 17.2541 112.447 17.1072 113.168 17.1072C113.804 17.1072 114.359 17.238 114.834 17.4996C115.313 17.7612 115.683 18.1516 115.945 18.6708C116.21 19.1859 116.343 19.8299 116.343 20.6026V26.5007H114.538V20.8199C114.538 20.1398 114.363 19.6126 114.013 19.2383C113.663 18.86 113.176 18.6708 112.552 18.6708C112.125 18.6708 111.743 18.7614 111.405 18.9425C111.071 19.1236 110.807 19.3892 110.614 19.7393C110.425 20.0855 110.33 20.504 110.33 20.995Z" fill="#E8E8E8"/>
</g>
<path d="M122.533 16.0639V13.6371H132.983V16.0639H129.234V26.0007H126.288V16.0639H122.533ZM135.794 26.1577C135.203 26.1577 134.677 26.0591 134.219 25.8618C133.764 25.6606 133.404 25.3588 133.138 24.9563C132.876 24.5498 132.746 24.0407 132.746 23.429C132.746 22.9138 132.836 22.4792 133.017 22.125C133.198 21.7708 133.448 21.4831 133.766 21.2617C134.084 21.0404 134.45 20.8733 134.865 20.7606C135.279 20.6439 135.722 20.5654 136.193 20.5252C136.72 20.4769 137.145 20.4266 137.466 20.3743C137.788 20.3179 138.022 20.2395 138.167 20.1388C138.316 20.0342 138.39 19.8873 138.39 19.6981V19.668C138.39 19.3581 138.283 19.1186 138.07 18.9496C137.857 18.7805 137.569 18.696 137.207 18.696C136.817 18.696 136.503 18.7805 136.265 18.9496C136.028 19.1186 135.877 19.352 135.812 19.6498L133.09 19.5533C133.17 18.9898 133.377 18.4867 133.712 18.044C134.05 17.5973 134.512 17.2471 135.1 16.9936C135.692 16.736 136.402 16.6072 137.231 16.6072C137.823 16.6072 138.368 16.6777 138.867 16.8185C139.366 16.9554 139.801 17.1566 140.171 17.4222C140.541 17.6838 140.827 18.0058 141.028 18.3881C141.234 18.7705 141.336 19.2071 141.336 19.6981V26.0007H138.559V24.7088H138.487C138.322 25.0227 138.11 25.2883 137.853 25.5057C137.599 25.723 137.299 25.886 136.953 25.9947C136.611 26.1033 136.225 26.1577 135.794 26.1577ZM136.706 24.2258C137.024 24.2258 137.31 24.1614 137.563 24.0327C137.821 23.9039 138.026 23.7268 138.179 23.5014C138.332 23.272 138.408 23.0064 138.408 22.7045V21.8231C138.324 21.8674 138.221 21.9077 138.1 21.9439C137.984 21.9801 137.855 22.0143 137.714 22.0465C137.573 22.0787 137.428 22.1069 137.279 22.131C137.13 22.1552 136.988 22.1773 136.851 22.1974C136.573 22.2417 136.336 22.3101 136.138 22.4027C135.945 22.4953 135.796 22.616 135.692 22.7649C135.591 22.9098 135.541 23.0828 135.541 23.2841C135.541 23.59 135.649 23.8234 135.867 23.9844C136.088 24.1453 136.368 24.2258 136.706 24.2258ZM149.124 21.9982V16.728H152.07V26.0007H149.257V24.2741H149.16C148.955 24.8416 148.605 25.2924 148.11 25.6264C147.619 25.9564 147.025 26.1214 146.329 26.1214C145.697 26.1214 145.141 25.9765 144.662 25.6868C144.184 25.397 143.811 24.9925 143.546 24.4734C143.28 23.9502 143.145 23.3384 143.141 22.6381V16.728H146.093V22.0586C146.097 22.5617 146.23 22.9581 146.492 23.2479C146.753 23.5376 147.109 23.6825 147.56 23.6825C147.854 23.6825 148.118 23.6181 148.351 23.4893C148.589 23.3565 148.776 23.1654 148.912 22.9158C149.053 22.6623 149.124 22.3564 149.124 21.9982ZM153.949 26.0007V16.728H156.816V18.4183H156.913C157.082 17.8066 157.358 17.3518 157.74 17.054C158.122 16.7521 158.567 16.6012 159.074 16.6012C159.211 16.6012 159.352 16.6113 159.497 16.6314C159.642 16.6475 159.776 16.6736 159.901 16.7099V19.2756C159.76 19.2273 159.575 19.189 159.346 19.1609C159.12 19.1327 158.919 19.1186 158.742 19.1186C158.392 19.1186 158.076 19.1971 157.794 19.354C157.517 19.507 157.297 19.7223 157.136 20C156.979 20.2737 156.901 20.5956 156.901 20.9659V26.0007H153.949ZM161.104 26.0007V16.728H164.056V26.0007H161.104ZM162.583 15.6474C162.169 15.6474 161.812 15.5105 161.515 15.2369C161.217 14.9592 161.068 14.6251 161.068 14.2347C161.068 13.8484 161.217 13.5183 161.515 13.2447C161.812 12.967 162.169 12.8281 162.583 12.8281C163.002 12.8281 163.358 12.967 163.652 13.2447C163.949 13.5183 164.098 13.8484 164.098 14.2347C164.098 14.6251 163.949 14.9592 163.652 15.2369C163.358 15.5105 163.002 15.6474 162.583 15.6474Z" fill="#FFC131"/>
</g>
<defs>
<filter id="filter0_d_1_56" x="2.39972" y="0.39972" width="39.202" height="39.202" filterUnits="userSpaceOnUse" color-interpolation-filters="sRGB">
<feFlood flood-opacity="0" result="BackgroundImageFix"/>
<feColorMatrix in="SourceAlpha" type="matrix" values="0 0 0 0 0 0 0 0 0 0 0 0 0 0 0 0 0 0 127 0" result="hardAlpha"/>
<feOffset/>
<feGaussianBlur stdDeviation="2.80014"/>
<feComposite in2="hardAlpha" operator="out"/>
<feColorMatrix type="matrix" values="0 0 0 0 0 0 0 0 0 0 0 0 0 0 0 0 0 0 0.25 0"/>
<feBlend mode="normal" in2="BackgroundImageFix" result="effect1_dropShadow_1_56"/>
<feBlend mode="normal" in="SourceGraphic" in2="effect1_dropShadow_1_56" result="shape"/>
</filter>
<filter id="filter1_d_1_56" x="36.2871" y="3.78642" width="134.429" height="32.4286" filterUnits="userSpaceOnUse" color-interpolation-filters="sRGB">
<feFlood flood-opacity="0" result="BackgroundImageFix"/>
<feColorMatrix in="SourceAlpha" type="matrix" values="0 0 0 0 0 0 0 0 0 0 0 0 0 0 0 0 0 0 127 0" result="hardAlpha"/>
<feOffset/>
<feGaussianBlur stdDeviation="2.85714"/>
<feComposite in2="hardAlpha" operator="out"/>
<feColorMatrix type="matrix" values="0 0 0 0 0 0 0 0 0 0 0 0 0 0 0 0 0 0 0.25 0"/>
<feBlend mode="normal" in2="BackgroundImageFix" result="effect1_dropShadow_1_56"/>
<feBlend mode="normal" in="SourceGraphic" in2="effect1_dropShadow_1_56" result="shape"/>
</filter>
<filter id="filter2_d_1_56" x="39.3597" y="13.642" width="80.9835" height="20.9915" filterUnits="userSpaceOnUse" color-interpolation-filters="sRGB">
<feFlood flood-opacity="0" result="BackgroundImageFix"/>
<feColorMatrix in="SourceAlpha" type="matrix" values="0 0 0 0 0 0 0 0 0 0 0 0 0 0 0 0 0 0 127 0" result="hardAlpha"/>
<feOffset dy="4"/>
<feGaussianBlur stdDeviation="2"/>
<feComposite in2="hardAlpha" operator="out"/>
<feColorMatrix type="matrix" values="0 0 0 0 0 0 0 0 0 0 0 0 0 0 0 0 0 0 0.25 0"/>
<feBlend mode="normal" in2="BackgroundImageFix" result="effect1_dropShadow_1_56"/>
<feBlend mode="normal" in="SourceGraphic" in2="effect1_dropShadow_1_56" result="shape"/>
</filter>
<linearGradient id="paint0_linear_1_56" x1="86.5007" y1="0" x2="86.5007" y2="40.0014" gradientUnits="userSpaceOnUse">
<stop stop-color="#5B4000"/>
<stop offset="1" stop-color="#0B3C42"/>
</linearGradient>
</defs>
</svg>
