<svg width="40" height="40" viewBox="0 0 40 40" fill="none" xmlns="http://www.w3.org/2000/svg">
<rect width="40" height="40" rx="8" fill="url(#paint0_linear_1_68)"/>
<rect x="1.05" y="1.05" width="37.9" height="37.9" rx="6.95" stroke="white" stroke-opacity="0.15" stroke-width="2.1"/>
<g filter="url(#filter0_d_1_68)">
<path d="M24.8643 16.2013C24.8643 16.9058 24.5859 17.5815 24.0902 18.0796C23.5945 18.5778 22.9222 18.8577 22.2212 18.8577C21.5202 18.8577 20.848 18.5778 20.3523 18.0796C19.8566 17.5815 19.5781 16.9058 19.5781 16.2013C19.5781 15.4968 19.8566 14.8212 20.3523 14.323C20.848 13.8249 21.5202 13.545 22.2212 13.545C22.9222 13.545 23.5945 13.8249 24.0902 14.323C24.5859 14.8212 24.8643 15.4968 24.8643 16.2013Z" fill="#FFC131"/>
<path d="M17.776 21.1518C16.3163 21.1518 15.133 22.341 15.133 23.8081C15.133 25.2751 16.3163 26.4644 17.776 26.4644C19.2358 26.4644 20.4191 25.2751 20.4191 23.8081C20.4191 22.341 19.2358 21.1518 17.776 21.1518Z" fill="#24C8DB"/>
<path fill-rule="evenodd" clip-rule="evenodd" d="M27.6996 24.7136C26.6374 25.4038 25.4555 25.8871 24.2156 26.1384C24.5749 25.1088 24.6941 24.0099 24.564 22.9267C25.6153 22.5573 26.5652 21.9442 27.3367 21.137C28.1082 20.3298 28.6796 19.3513 29.0046 18.2807C29.3296 17.2102 29.399 16.0778 29.2072 14.9752C29.0154 13.8727 28.5678 12.8311 27.9007 11.9348C27.2336 11.0386 26.3658 10.3129 25.3675 9.81666C24.3693 9.32041 23.2688 9.06755 22.1551 9.07856C21.0415 9.08956 19.9461 9.36414 18.9578 9.88002C17.9694 10.3959 17.1159 11.1386 16.4665 12.0478C15.1217 12.1999 13.813 12.5839 12.598 13.1828C13.0783 11.6253 13.9252 10.2072 15.0668 9.04864C16.2085 7.89007 17.6113 7.02521 19.1562 6.52738C20.7012 6.02954 22.3428 5.91341 23.942 6.18882C25.5411 6.46424 27.0506 7.12308 28.3425 8.10949C29.6344 9.09591 30.6705 10.3808 31.3632 11.8553C32.0559 13.3298 32.3846 14.9504 32.3215 16.5797C32.2585 18.2091 31.8054 19.7991 31.0009 21.215C30.1963 22.631 29.0639 23.8311 27.6996 24.7136ZM12.7181 15.0302L15.193 15.332C15.2492 14.8517 15.3538 14.3783 15.5054 13.9193C14.5265 14.1481 13.587 14.5225 12.7181 15.0302Z" fill="#FFC131"/>
<path fill-rule="evenodd" clip-rule="evenodd" d="M12.2856 15.2958C13.3543 14.5986 14.5446 14.1111 15.7937 13.859C15.4159 14.8884 15.2802 15.9918 15.3973 17.0828C14.3496 17.4573 13.4043 18.0744 12.6378 18.8841C11.8713 19.6937 11.3051 20.6732 10.985 21.7435C10.6648 22.8137 10.5997 23.9446 10.7949 25.0449C10.9901 26.1451 11.4401 27.1837 12.1085 28.0768C12.777 28.9699 13.6452 29.6924 14.6428 30.1859C15.6405 30.6795 16.7398 30.9302 17.8517 30.9178C18.9636 30.9054 20.057 30.6302 21.0436 30.1146C22.0302 29.599 22.8822 28.8573 23.5308 27.9495C24.8749 27.8012 26.1835 27.4214 27.3993 26.8266C26.9177 28.3825 26.0703 29.7988 24.9288 30.9558C23.7872 32.1128 22.3851 32.9763 20.8411 33.4733C19.2971 33.9703 17.6566 34.0861 16.0587 33.8109C14.4607 33.5358 12.9522 32.8777 11.6609 31.8925C10.3696 30.9073 9.33345 29.624 8.64021 28.1511C7.94697 26.6782 7.61703 25.0591 7.67832 23.4309C7.73961 21.8027 8.19032 20.2133 8.99231 18.7972C9.7943 17.3811 10.9239 16.1801 12.2856 15.2958Z" fill="#24C8DB"/>
</g>
<defs>
<filter id="filter0_d_1_68" x="2" y="2" width="36" height="36" filterUnits="userSpaceOnUse" color-interpolation-filters="sRGB">
<feFlood flood-opacity="0" result="BackgroundImageFix"/>
<feColorMatrix in="SourceAlpha" type="matrix" values="0 0 0 0 0 0 0 0 0 0 0 0 0 0 0 0 0 0 127 0" result="hardAlpha"/>
<feOffset/>
<feGaussianBlur stdDeviation="2"/>
<feComposite in2="hardAlpha" operator="out"/>
<feColorMatrix type="matrix" values="0 0 0 0 0 0 0 0 0 0 0 0 0 0 0 0 0 0 0.25 0"/>
<feBlend mode="normal" in2="BackgroundImageFix" result="effect1_dropShadow_1_68"/>
<feBlend mode="normal" in="SourceGraphic" in2="effect1_dropShadow_1_68" result="shape"/>
</filter>
<linearGradient id="paint0_linear_1_68" x1="20" y1="0" x2="20" y2="40" gradientUnits="userSpaceOnUse">
<stop stop-color="#5B4000"/>
<stop offset="1" stop-color="#0B3C42"/>
</linearGradient>
</defs>
</svg>
