<svg width="56" height="56" viewBox="0 0 56 56" fill="none" xmlns="http://www.w3.org/2000/svg">
<rect width="56" height="56" rx="8.4" fill="url(#paint0_linear_1_62)"/>
<rect x="1.05" y="1.05" width="53.9" height="53.9" rx="7.35" stroke="white" stroke-opacity="0.15" stroke-width="2.1"/>
<g filter="url(#filter0_d_1_62)">
<path d="M34.949 22.5734C34.949 23.5798 34.5512 24.545 33.8431 25.2566C33.135 25.9683 32.1746 26.3681 31.1732 26.3681C30.1718 26.3681 29.2114 25.9683 28.5033 25.2566C27.7952 24.545 27.3974 23.5798 27.3974 22.5734C27.3974 21.5669 27.7952 20.6017 28.5033 19.8901C29.2114 19.1784 30.1718 18.7786 31.1732 18.7786C32.1746 18.7786 33.135 19.1784 33.8431 19.8901C34.5512 20.6017 34.949 21.5669 34.949 22.5734Z" fill="#FFC131"/>
<path d="M24.8229 29.6454C22.7376 29.6454 21.0471 31.3443 21.0471 33.4401C21.0471 35.5359 22.7376 37.2348 24.8229 37.2348C26.9083 37.2348 28.5988 35.5359 28.5988 33.4401C28.5988 31.3443 26.9083 29.6454 24.8229 29.6454Z" fill="#24C8DB"/>
<path fill-rule="evenodd" clip-rule="evenodd" d="M38.9995 34.7338C37.482 35.7197 35.7936 36.4101 34.0222 36.7691C34.5356 35.2982 34.7059 33.7285 34.52 32.1809C36.0218 31.6533 37.3788 30.7774 38.481 29.6243C39.5832 28.4712 40.3995 27.0733 40.8637 25.5439C41.328 24.0146 41.4271 22.3968 41.1532 20.8217C40.8792 19.2467 40.2398 17.7586 39.2868 16.4783C38.3338 15.1979 37.094 14.1613 35.6679 13.4524C34.2419 12.7434 32.6697 12.3822 31.0787 12.3979C29.4878 12.4137 27.923 12.8059 26.5111 13.5429C25.0992 14.2799 23.8799 15.3408 22.9522 16.6398C21.031 16.857 19.1615 17.4055 17.4257 18.2612C18.1119 16.0362 19.3217 14.0103 20.9526 12.3552C22.5836 10.7001 24.5875 9.46458 26.7946 8.75339C29.0017 8.0422 31.3469 7.8763 33.6314 8.26974C35.9159 8.66319 38.0723 9.60439 39.9178 11.0136C41.7634 12.4227 43.2436 14.2583 44.2332 16.3647C45.2227 18.4711 45.6923 20.7863 45.6022 23.1139C45.5121 25.4415 44.8649 27.713 43.7155 29.7358C42.5661 31.7585 40.9484 33.473 38.9995 34.7338ZM17.5973 20.9002L21.1329 21.3314C21.2131 20.6453 21.3626 19.9691 21.5791 19.3133C20.1806 19.6401 18.8386 20.1749 17.5973 20.9002Z" fill="#FFC131"/>
<path fill-rule="evenodd" clip-rule="evenodd" d="M16.9795 21.2797C18.5061 20.2837 20.2066 19.5872 21.991 19.2271C21.4513 20.6978 21.2574 22.274 21.4247 23.8325C19.928 24.3676 18.5776 25.2491 17.4826 26.4058C16.3876 27.5624 15.5787 28.9618 15.1214 30.4907C14.664 32.0196 14.571 33.6352 14.8498 35.2069C15.1287 36.7787 15.7715 38.2624 16.7265 39.5383C17.6814 40.8141 18.9217 41.8463 20.3469 42.5513C21.7722 43.2564 23.3425 43.6145 24.931 43.5968C26.5195 43.5791 28.0815 43.1861 29.4909 42.4494C30.9002 41.7128 32.1174 40.6533 33.0439 39.3564C34.9641 39.1446 36.8336 38.602 38.5704 37.7523C37.8825 39.9749 36.6719 41.9983 35.0411 43.6511C33.4103 45.3039 31.4072 46.5375 29.2015 47.2475C26.9958 47.9575 24.6523 48.123 22.3695 47.7299C20.0867 47.3368 17.9317 46.3968 16.087 44.9893C14.2423 43.5819 12.7621 41.7485 11.7717 39.6444C10.7814 37.5402 10.31 35.2273 10.3976 32.9012C10.4852 30.5752 11.129 28.3047 12.2747 26.2817C13.4204 24.2588 15.0342 22.543 16.9795 21.2797Z" fill="#24C8DB"/>
</g>
<defs>
<filter id="filter0_d_1_62" x="2.28571" y="2.28571" width="51.4286" height="51.4286" filterUnits="userSpaceOnUse" color-interpolation-filters="sRGB">
<feFlood flood-opacity="0" result="BackgroundImageFix"/>
<feColorMatrix in="SourceAlpha" type="matrix" values="0 0 0 0 0 0 0 0 0 0 0 0 0 0 0 0 0 0 127 0" result="hardAlpha"/>
<feOffset/>
<feGaussianBlur stdDeviation="2.85714"/>
<feComposite in2="hardAlpha" operator="out"/>
<feColorMatrix type="matrix" values="0 0 0 0 0 0 0 0 0 0 0 0 0 0 0 0 0 0 0.25 0"/>
<feBlend mode="normal" in2="BackgroundImageFix" result="effect1_dropShadow_1_62"/>
<feBlend mode="normal" in="SourceGraphic" in2="effect1_dropShadow_1_62" result="shape"/>
</filter>
<linearGradient id="paint0_linear_1_62" x1="28" y1="0" x2="28" y2="56" gradientUnits="userSpaceOnUse">
<stop stop-color="#5B4000"/>
<stop stop-color="#5B4000"/>
<stop offset="0.0001" stop-color="#292929"/>
<stop offset="0.0002" stop-color="#5B4000"/>
<stop offset="0.9999" stop-color="#0B3C42"/>
<stop offset="1"/>
</linearGradient>
</defs>
</svg>
