<svg width="144" height="56" viewBox="0 0 144 56" fill="none" xmlns="http://www.w3.org/2000/svg">
<rect width="144" height="56" rx="8" fill="url(#paint0_linear_1_50)"/>
<rect x="1.05" y="1.05" width="141.9" height="53.9" rx="6.95" stroke="white" stroke-opacity="0.15" stroke-width="2.1"/>
<g filter="url(#filter0_d_1_50)">
<path d="M38.949 22.5734C38.949 23.5798 38.5512 24.545 37.8431 25.2566C37.135 25.9683 36.1746 26.3681 35.1732 26.3681C34.1718 26.3681 33.2114 25.9683 32.5033 25.2566C31.7952 24.545 31.3974 23.5798 31.3974 22.5734C31.3974 21.5669 31.7952 20.6017 32.5033 19.8901C33.2114 19.1784 34.1718 18.7786 35.1732 18.7786C36.1746 18.7786 37.135 19.1784 37.8431 19.8901C38.5512 20.6017 38.949 21.5669 38.949 22.5734Z" fill="#FFC131"/>
<path d="M28.8229 29.6454C26.7376 29.6454 25.0471 31.3443 25.0471 33.4401C25.0471 35.5359 26.7376 37.2348 28.8229 37.2348C30.9083 37.2348 32.5988 35.5359 32.5988 33.4401C32.5988 31.3443 30.9083 29.6454 28.8229 29.6454Z" fill="#24C8DB"/>
<path fill-rule="evenodd" clip-rule="evenodd" d="M42.9995 34.7338C41.482 35.7197 39.7936 36.4101 38.0222 36.7691C38.5356 35.2982 38.7059 33.7285 38.52 32.1809C40.0218 31.6533 41.3788 30.7774 42.481 29.6243C43.5832 28.4712 44.3995 27.0733 44.8637 25.5439C45.328 24.0146 45.4271 22.3968 45.1532 20.8217C44.8792 19.2467 44.2398 17.7586 43.2868 16.4783C42.3338 15.1979 41.094 14.1613 39.6679 13.4524C38.2419 12.7434 36.6697 12.3822 35.0787 12.3979C33.4878 12.4137 31.923 12.8059 30.5111 13.5429C29.0992 14.2799 27.8799 15.3408 26.9522 16.6398C25.031 16.857 23.1615 17.4055 21.4257 18.2612C22.1119 16.0362 23.3217 14.0103 24.9526 12.3552C26.5836 10.7001 28.5875 9.46458 30.7946 8.75339C33.0017 8.0422 35.3469 7.8763 37.6314 8.26974C39.9159 8.66319 42.0723 9.60439 43.9178 11.0136C45.7634 12.4227 47.2436 14.2583 48.2332 16.3647C49.2227 18.4711 49.6923 20.7863 49.6022 23.1139C49.5121 25.4415 48.8649 27.713 47.7155 29.7358C46.5661 31.7585 44.9484 33.473 42.9995 34.7338ZM21.5973 20.9002L25.1329 21.3314C25.2131 20.6453 25.3626 19.9691 25.5791 19.3133C24.1807 19.6401 22.8386 20.1749 21.5973 20.9002Z" fill="#FFC131"/>
<path fill-rule="evenodd" clip-rule="evenodd" d="M20.9795 21.2797C22.5061 20.2837 24.2066 19.5872 25.991 19.2271C25.4513 20.6978 25.2574 22.274 25.4247 23.8325C23.928 24.3676 22.5776 25.2491 21.4826 26.4058C20.3876 27.5624 19.5787 28.9618 19.1214 30.4907C18.664 32.0196 18.571 33.6352 18.8498 35.2069C19.1287 36.7787 19.7715 38.2624 20.7265 39.5383C21.6814 40.8141 22.9217 41.8463 24.3469 42.5513C25.7722 43.2564 27.3425 43.6145 28.931 43.5968C30.5195 43.5791 32.0815 43.1861 33.4909 42.4494C34.9002 41.7128 36.1174 40.6533 37.0439 39.3564C38.9641 39.1446 40.8336 38.602 42.5704 37.7523C41.8825 39.9749 40.6719 41.9983 39.0411 43.6511C37.4103 45.3039 35.4072 46.5375 33.2015 47.2475C30.9958 47.9575 28.6524 48.123 26.3695 47.7299C24.0867 47.3368 21.9317 46.3968 20.087 44.9893C18.2423 43.5819 16.7621 41.7485 15.7717 39.6444C14.7814 37.5402 14.31 35.2273 14.3976 32.9012C14.4852 30.5752 15.129 28.3047 16.2747 26.2817C17.4204 24.2588 19.0342 22.543 20.9795 21.2797Z" fill="#24C8DB"/>
</g>
<g filter="url(#filter1_d_1_50)">
<path d="M61.2784 24.5V12.8636H65.5398C66.3655 12.8636 67.0492 13 67.5909 13.2727C68.1326 13.5417 68.5379 13.9072 68.8068 14.3693C69.0757 14.8276 69.2102 15.3447 69.2102 15.9204C69.2102 16.4053 69.1212 16.8144 68.9432 17.1477C68.7651 17.4773 68.5265 17.7424 68.2273 17.9432C67.9318 18.1401 67.606 18.2841 67.25 18.375V18.4886C67.6363 18.5076 68.0132 18.6326 68.3807 18.8636C68.7519 19.0909 69.0587 19.4148 69.3011 19.8352C69.5435 20.2557 69.6648 20.767 69.6648 21.3693C69.6648 21.964 69.5246 22.4981 69.2443 22.9716C68.9678 23.4413 68.5398 23.8144 67.9602 24.0909C67.3807 24.3636 66.6401 24.5 65.7386 24.5H61.2784ZM63.0341 22.9943H65.5682C66.4091 22.9943 67.0113 22.8314 67.375 22.5057C67.7386 22.1799 67.9204 21.7727 67.9204 21.2841C67.9204 20.9167 67.8276 20.5795 67.642 20.2727C67.4564 19.9659 67.1913 19.7216 66.8466 19.5398C66.5057 19.3579 66.1004 19.267 65.6307 19.267H63.0341V22.9943ZM63.0341 17.8977H65.3863C65.7803 17.8977 66.1345 17.822 66.4488 17.6704C66.767 17.5189 67.0189 17.3068 67.2045 17.0341C67.3939 16.7576 67.4886 16.4318 67.4886 16.0568C67.4886 15.5758 67.3201 15.1723 66.9829 14.8466C66.6458 14.5208 66.1288 14.3579 65.4318 14.3579H63.0341V17.8977ZM77.1392 20.8807V15.7727H78.8437V24.5H77.1733V22.9886H77.0824C76.8816 23.4545 76.5596 23.8428 76.1165 24.1534C75.6771 24.4602 75.1297 24.6136 74.4744 24.6136C73.9138 24.6136 73.4176 24.4905 72.9858 24.2443C72.5577 23.9943 72.2206 23.625 71.9744 23.1364C71.732 22.6477 71.6108 22.0436 71.6108 21.3239V15.7727H73.3096V21.1193C73.3096 21.714 73.4744 22.1875 73.804 22.5398C74.1335 22.892 74.5615 23.0682 75.088 23.0682C75.4062 23.0682 75.7225 22.9886 76.0369 22.8295C76.3551 22.6704 76.6184 22.4299 76.8267 22.1079C77.0388 21.786 77.143 21.3769 77.1392 20.8807ZM81.1264 24.5V15.7727H82.8253V24.5H81.1264ZM81.9844 14.4261C81.6889 14.4261 81.4351 14.3276 81.223 14.1307C81.0147 13.9299 80.9105 13.6913 80.9105 13.4148C80.9105 13.1345 81.0147 12.8958 81.223 12.6989C81.4351 12.4981 81.6889 12.3977 81.9844 12.3977C82.2798 12.3977 82.5317 12.4981 82.74 12.6989C82.9522 12.8958 83.0582 13.1345 83.0582 13.4148C83.0582 13.6913 82.9522 13.9299 82.74 14.1307C82.5317 14.3276 82.2798 14.4261 81.9844 14.4261ZM86.8096 12.8636V24.5H85.1108V12.8636H86.8096ZM93.169 15.7727V17.1364H88.402V15.7727H93.169ZM89.6804 13.6818H91.3792V21.9375C91.3792 22.267 91.4285 22.5151 91.527 22.6818C91.6254 22.8447 91.7523 22.9564 91.9076 23.017C92.0667 23.0739 92.2391 23.1023 92.4247 23.1023C92.5611 23.1023 92.6804 23.0928 92.7826 23.0739C92.8849 23.0549 92.9645 23.0398 93.0213 23.0284L93.3281 24.4318C93.2296 24.4697 93.0895 24.5076 92.9076 24.5454C92.7258 24.5871 92.4986 24.6098 92.2258 24.6136C91.7789 24.6212 91.3622 24.5417 90.9758 24.375C90.5895 24.2083 90.277 23.9508 90.0383 23.6023C89.7997 23.2538 89.6804 22.8163 89.6804 22.2898V13.6818ZM101.175 24.5L98.6065 15.7727H100.362L102.072 22.1818H102.158L103.874 15.7727H105.629L107.334 22.1534H107.419L109.118 15.7727H110.874L108.311 24.5H106.578L104.805 18.1989H104.675L102.902 24.5H101.175ZM112.486 24.5V15.7727H114.185V24.5H112.486ZM113.344 14.4261C113.048 14.4261 112.794 14.3276 112.582 14.1307C112.374 13.9299 112.27 13.6913 112.27 13.4148C112.27 13.1345 112.374 12.8958 112.582 12.6989C112.794 12.4981 113.048 12.3977 113.344 12.3977C113.639 12.3977 113.891 12.4981 114.099 12.6989C114.312 12.8958 114.418 13.1345 114.418 13.4148C114.418 13.6913 114.312 13.9299 114.099 14.1307C113.891 14.3276 113.639 14.4261 113.344 14.4261ZM120.544 15.7727V17.1364H115.777V15.7727H120.544ZM117.055 13.6818H118.754V21.9375C118.754 22.267 118.803 22.5151 118.902 22.6818C119 22.8447 119.127 22.9564 119.283 23.017C119.442 23.0739 119.614 23.1023 119.8 23.1023C119.936 23.1023 120.055 23.0928 120.158 23.0739C120.26 23.0549 120.339 23.0398 120.396 23.0284L120.703 24.4318C120.605 24.4697 120.464 24.5076 120.283 24.5454C120.101 24.5871 119.874 24.6098 119.601 24.6136C119.154 24.6212 118.737 24.5417 118.351 24.375C117.964 24.2083 117.652 23.9508 117.413 23.6023C117.175 23.2538 117.055 22.8163 117.055 22.2898V13.6818ZM124.31 19.3182V24.5H122.611V12.8636H124.287V17.1932H124.395C124.599 16.7235 124.912 16.3504 125.332 16.0739C125.753 15.7973 126.302 15.6591 126.98 15.6591C127.579 15.6591 128.101 15.7822 128.548 16.0284C128.999 16.2746 129.348 16.642 129.594 17.1307C129.844 17.6155 129.969 18.2216 129.969 18.9489V24.5H128.27V19.1534C128.27 18.5133 128.105 18.017 127.776 17.6648C127.446 17.3087 126.988 17.1307 126.401 17.1307C125.999 17.1307 125.639 17.2159 125.321 17.3864C125.007 17.5568 124.758 17.8068 124.577 18.1364C124.399 18.4621 124.31 18.8561 124.31 19.3182Z" fill="#E8E8E8"/>
<path d="M60.5312 33.5632V31.1364H70.9812V33.5632H67.2322V43.5H64.2862V33.5632H60.5312ZM73.7929 43.6569C73.2012 43.6569 72.676 43.5583 72.2172 43.3611C71.7624 43.1599 71.4022 42.8581 71.1366 42.4556C70.875 42.0491 70.7442 41.54 70.7442 40.9283C70.7442 40.4131 70.8348 39.9784 71.0159 39.6243C71.197 39.2701 71.4465 38.9824 71.7645 38.761C72.0824 38.5396 72.4486 38.3726 72.8632 38.2599C73.2777 38.1432 73.7204 38.0647 74.1913 38.0245C74.7185 37.9762 75.1431 37.9259 75.4651 37.8736C75.7871 37.8172 76.0205 37.7387 76.1654 37.6381C76.3143 37.5335 76.3887 37.3866 76.3887 37.1974V37.1672C76.3887 36.8574 76.2821 36.6179 76.0688 36.4489C75.8555 36.2798 75.5677 36.1953 75.2055 36.1953C74.8151 36.1953 74.5012 36.2798 74.2637 36.4489C74.0263 36.6179 73.8754 36.8513 73.811 37.1491L71.0883 37.0525C71.1688 36.4891 71.3761 35.986 71.7101 35.5433C72.0482 35.0966 72.511 34.7464 73.0986 34.4929C73.6902 34.2353 74.4006 34.1065 75.2297 34.1065C75.8213 34.1065 76.3666 34.177 76.8657 34.3178C77.3647 34.4547 77.7994 34.6559 78.1696 34.9215C78.5399 35.1831 78.8256 35.5051 79.0269 35.8874C79.2321 36.2698 79.3348 36.7064 79.3348 37.1974V43.5H76.5578V42.2081H76.4853C76.3203 42.522 76.109 42.7876 75.8515 43.005C75.5979 43.2223 75.2981 43.3853 74.952 43.494C74.6099 43.6026 74.2235 43.6569 73.7929 43.6569ZM74.7044 41.7251C75.0224 41.7251 75.3081 41.6607 75.5617 41.5319C75.8193 41.4032 76.0245 41.2261 76.1774 41.0007C76.3304 40.7713 76.4069 40.5057 76.4069 40.2038V39.3224C76.3223 39.3667 76.2197 39.4069 76.099 39.4432C75.9823 39.4794 75.8535 39.5136 75.7126 39.5458C75.5717 39.578 75.4269 39.6062 75.2779 39.6303C75.129 39.6545 74.9862 39.6766 74.8493 39.6967C74.5716 39.741 74.3342 39.8094 74.137 39.902C73.9438 39.9945 73.7949 40.1153 73.6902 40.2642C73.5896 40.4091 73.5393 40.5821 73.5393 40.7834C73.5393 41.0892 73.648 41.3227 73.8653 41.4837C74.0867 41.6446 74.3664 41.7251 74.7044 41.7251ZM87.1224 39.4975V34.2273H90.0684V43.5H87.2552V41.7734H87.1586C86.9534 42.3409 86.6032 42.7917 86.1082 43.1257C85.6172 43.4557 85.0236 43.6207 84.3273 43.6207C83.6954 43.6207 83.14 43.4758 82.6611 43.1861C82.1822 42.8963 81.8099 42.4918 81.5443 41.9726C81.2787 41.4494 81.1438 40.8377 81.1398 40.1374V34.2273H84.0919V39.5579C84.0959 40.061 84.2287 40.4574 84.4903 40.7471C84.7519 41.0369 85.1081 41.1818 85.5588 41.1818C85.8526 41.1818 86.1162 41.1174 86.3497 40.9886C86.5871 40.8558 86.7743 40.6646 86.9111 40.4151C87.052 40.1616 87.1224 39.8557 87.1224 39.4975ZM91.9474 43.5V34.2273H94.815V35.9176H94.9116C95.0806 35.3059 95.3563 34.8511 95.7386 34.5533C96.1209 34.2514 96.5657 34.1005 97.0728 34.1005C97.2096 34.1005 97.3505 34.1105 97.4954 34.1307C97.6402 34.1468 97.7751 34.1729 97.8998 34.2092V36.7748C97.759 36.7266 97.5738 36.6883 97.3444 36.6601C97.1191 36.632 96.9178 36.6179 96.7407 36.6179C96.3906 36.6179 96.0747 36.6964 95.7929 36.8533C95.5152 37.0063 95.2959 37.2216 95.1349 37.4993C94.978 37.773 94.8995 38.0949 94.8995 38.4652V43.5H91.9474ZM99.1027 43.5V34.2273H102.055V43.5H99.1027ZM100.582 33.1467C100.167 33.1467 99.811 33.0098 99.5132 32.7361C99.2154 32.4584 99.0665 32.1244 99.0665 31.734C99.0665 31.3476 99.2154 31.0176 99.5132 30.744C99.811 30.4663 100.167 30.3274 100.582 30.3274C101 30.3274 101.356 30.4663 101.65 30.744C101.948 31.0176 102.097 31.3476 102.097 31.734C102.097 32.1244 101.948 32.4584 101.65 32.7361C101.356 33.0098 101 33.1467 100.582 33.1467Z" fill="#FFC131"/>
</g>
<defs>
<filter id="filter0_d_1_50" x="6.28571" y="2.28571" width="51.4286" height="51.4286" filterUnits="userSpaceOnUse" color-interpolation-filters="sRGB">
<feFlood flood-opacity="0" result="BackgroundImageFix"/>
<feColorMatrix in="SourceAlpha" type="matrix" values="0 0 0 0 0 0 0 0 0 0 0 0 0 0 0 0 0 0 127 0" result="hardAlpha"/>
<feOffset/>
<feGaussianBlur stdDeviation="2.85714"/>
<feComposite in2="hardAlpha" operator="out"/>
<feColorMatrix type="matrix" values="0 0 0 0 0 0 0 0 0 0 0 0 0 0 0 0 0 0 0.25 0"/>
<feBlend mode="normal" in2="BackgroundImageFix" result="effect1_dropShadow_1_50"/>
<feBlend mode="normal" in="SourceGraphic" in2="effect1_dropShadow_1_50" result="shape"/>
</filter>
<filter id="filter1_d_1_50" x="54.4" y="3.9" width="83.2" height="48.2" filterUnits="userSpaceOnUse" color-interpolation-filters="sRGB">
<feFlood flood-opacity="0" result="BackgroundImageFix"/>
<feColorMatrix in="SourceAlpha" type="matrix" values="0 0 0 0 0 0 0 0 0 0 0 0 0 0 0 0 0 0 127 0" result="hardAlpha"/>
<feOffset/>
<feGaussianBlur stdDeviation="2.8"/>
<feComposite in2="hardAlpha" operator="out"/>
<feColorMatrix type="matrix" values="0 0 0 0 0 0 0 0 0 0 0 0 0 0 0 0 0 0 0.25 0"/>
<feBlend mode="normal" in2="BackgroundImageFix" result="effect1_dropShadow_1_50"/>
<feBlend mode="normal" in="SourceGraphic" in2="effect1_dropShadow_1_50" result="shape"/>
</filter>
<linearGradient id="paint0_linear_1_50" x1="72" y1="0" x2="72" y2="56" gradientUnits="userSpaceOnUse">
<stop stop-color="#5B4000"/>
<stop offset="1" stop-color="#0B3C42"/>
</linearGradient>
</defs>
</svg>
