<svg width="40" height="40" viewBox="0 0 40 40" fill="none" xmlns="http://www.w3.org/2000/svg">
<rect width="40" height="40" rx="8" fill="url(#paint0_linear_1_68)"/>
<rect x="1.05" y="1.05" width="37.9" height="37.9" rx="6.95" stroke="white" stroke-opacity="0.15" stroke-width="2.1"/>
<g filter="url(#filter0_d_1_68)">
<path d="M29.2818 28.4361L24.2541 19.9871L29.2818 11.5381L31.7054 19.9871L29.2818 28.4361ZM18.0922 27.6116L11.7752 21.3522H21.8305L26.8581 29.8012L18.0922 27.6116ZM18.0922 12.3367L26.8325 10.1471L21.8049 18.5961H11.7496L18.0922 12.3367ZM30.932 6L19.51 8.96237L17.8084 11.873L14.3795 11.8472L6 19.9871L14.3795 28.127L17.8084 28.1011L19.51 31.0118L30.932 34L34 22.8977L32.2725 20.0129L34 17.1278L30.932 6Z" fill="white"/>
</g>
<defs>
<filter id="filter0_d_1_68" x="2" y="2" width="36" height="36" filterUnits="userSpaceOnUse" color-interpolation-filters="sRGB">
<feFlood flood-opacity="0" result="BackgroundImageFix"/>
<feColorMatrix in="SourceAlpha" type="matrix" values="0 0 0 0 0 0 0 0 0 0 0 0 0 0 0 0 0 0 127 0" result="hardAlpha"/>
<feOffset/>
<feGaussianBlur stdDeviation="2"/>
<feComposite in2="hardAlpha" operator="out"/>
<feColorMatrix type="matrix" values="0 0 0 0 0 0 0 0 0 0 0 0 0 0 0 0 0 0 0.25 0"/>
<feBlend mode="normal" in2="BackgroundImageFix" result="effect1_dropShadow_1_68"/>
<feBlend mode="normal" in="SourceGraphic" in2="effect1_dropShadow_1_68" result="shape"/>
</filter>
<linearGradient id="paint0_linear_1_68" x1="20" y1="0" x2="20" y2="40" gradientUnits="userSpaceOnUse">
<stop stop-color="#1D1D1D"/>
<stop offset="0.9991" stop-color="#0E0E0E"/>
<stop offset="0.9992" stop-color="#0D1026"/>
<stop offset="0.9993" stop-color="#193958"/>
<stop offset="0.9994" stop-color="#249847"/>
</linearGradient>
</defs>
</svg>
