<svg width="175" height="40" viewBox="0 0 175 40" fill="none" xmlns="http://www.w3.org/2000/svg">
<rect width="175.001" height="40.0014" rx="8" fill="url(#paint0_linear_1_56)"/>
<rect x="1.07143" y="1.07143" width="172.859" height="37.8585" rx="6.92857" stroke="white" stroke-opacity="0.15" stroke-width="2.14286"/>
<g filter="url(#filter0_d_1_56)">
<path d="M31.2818 28.4361L26.2541 19.9871L31.2818 11.5381L33.7054 19.9871L31.2818 28.4361ZM20.0922 27.6116L13.7752 21.3522H23.8305L28.8581 29.8012L20.0922 27.6116ZM20.0922 12.3367L28.8325 10.1471L23.8049 18.5961H13.7496L20.0922 12.3367ZM32.932 6L21.51 8.96237L19.8084 11.873L16.3795 11.8472L8 19.9871L16.3795 28.127L19.8084 28.1011L21.51 31.0118L32.932 34L36 22.8977L34.2725 20.0129L36 17.1278L32.932 6Z" fill="white"/>
</g>
<g filter="url(#filter1_d_1_56)">
<path d="M43.3597 26.5007V14.1371H47.8874C48.7648 14.1371 49.4912 14.282 50.0667 14.5717C50.6423 14.8575 51.0729 15.2458 51.3586 15.7369C51.6444 16.2238 51.7873 16.7732 51.7873 17.3849C51.7873 17.9001 51.6927 18.3347 51.5035 18.6889C51.3144 19.0391 51.0608 19.3208 50.7429 19.5341C50.429 19.7434 50.0828 19.8963 49.7045 19.9929V20.1136C50.115 20.1337 50.5155 20.2666 50.9059 20.5121C51.3003 20.7535 51.6263 21.0976 51.8839 21.5444C52.1414 21.9911 52.2702 22.5344 52.2702 23.1743C52.2702 23.8062 52.1213 24.3737 51.8235 24.8768C51.5297 25.3758 51.0749 25.7722 50.4591 26.066C49.8434 26.3558 49.0566 26.5007 48.0987 26.5007H43.3597ZM45.2251 24.9009H47.9176C48.8111 24.9009 49.451 24.7279 49.8373 24.3817C50.2237 24.0356 50.4169 23.603 50.4169 23.0838C50.4169 22.6934 50.3183 22.3352 50.1211 22.0092C49.9239 21.6832 49.6421 21.4236 49.2759 21.2305C48.9137 21.0373 48.483 20.9407 47.984 20.9407H45.2251V24.9009ZM45.2251 19.4858H47.7244C48.143 19.4858 48.5193 19.4053 48.8533 19.2443C49.1914 19.0833 49.459 18.8579 49.6562 18.5682C49.8575 18.2744 49.9581 17.9283 49.9581 17.5298C49.9581 17.0187 49.779 16.5901 49.4208 16.244C49.0626 15.8978 48.5132 15.7248 47.7727 15.7248H45.2251V19.4858ZM60.2118 22.6552V17.228H62.0229V26.5007H60.248V24.8949H60.1514C59.9381 25.3899 59.596 25.8024 59.1251 26.1324C58.6583 26.4584 58.0767 26.6214 57.3805 26.6214C56.7848 26.6214 56.2576 26.4906 55.7988 26.229C55.344 25.9634 54.9858 25.571 54.7242 25.0518C54.4667 24.5327 54.3379 23.8907 54.3379 23.1261V17.228H56.1429V22.9087C56.1429 23.5406 56.318 24.0437 56.6681 24.418C57.0183 24.7922 57.473 24.9794 58.0325 24.9794C58.3705 24.9794 58.7066 24.8949 59.0406 24.7258C59.3787 24.5568 59.6584 24.3012 59.8798 23.9591C60.1051 23.6171 60.2158 23.1824 60.2118 22.6552ZM64.4482 26.5007V17.228H66.2533V26.5007H64.4482ZM65.3598 15.7972C65.0459 15.7972 64.7762 15.6926 64.5508 15.4833C64.3295 15.27 64.2188 15.0164 64.2188 14.7226C64.2188 14.4248 64.3295 14.1713 64.5508 13.962C64.7762 13.7487 65.0459 13.642 65.3598 13.642C65.6737 13.642 65.9413 13.7487 66.1627 13.962C66.3881 14.1713 66.5008 14.4248 66.5008 14.7226C66.5008 15.0164 66.3881 15.27 66.1627 15.4833C65.9413 15.6926 65.6737 15.7972 65.3598 15.7972ZM70.4867 14.1371V26.5007H68.6816V14.1371H70.4867ZM77.2435 17.228V18.6768H72.1785V17.228H77.2435ZM73.5368 15.0064H75.3419V23.778C75.3419 24.1282 75.3942 24.3918 75.4988 24.5689C75.6035 24.7419 75.7383 24.8607 75.9033 24.9251C76.0723 24.9854 76.2554 25.0156 76.4526 25.0156C76.5975 25.0156 76.7243 25.0056 76.833 24.9854C76.9416 24.9653 77.0262 24.9492 77.0865 24.9371L77.4125 26.4283C77.3079 26.4685 77.159 26.5087 76.9658 26.549C76.7726 26.5933 76.5311 26.6174 76.2414 26.6214C75.7664 26.6295 75.3237 26.545 74.9132 26.3679C74.5027 26.1908 74.1707 25.9171 73.9171 25.5469C73.6636 25.1766 73.5368 24.7118 73.5368 24.1523V15.0064ZM85.7495 26.5007L83.0208 17.228H84.8862L86.7034 24.0376H86.7939L88.6171 17.228H90.4825L92.2936 24.0074H92.3841L94.1891 17.228H96.0546L93.3319 26.5007H91.4906L89.6071 19.8057H89.4683L87.5847 26.5007H85.7495ZM97.7675 26.5007V17.228H99.5726V26.5007H97.7675ZM98.6791 15.7972C98.3652 15.7972 98.0955 15.6926 97.8702 15.4833C97.6488 15.27 97.5381 15.0164 97.5381 14.7226C97.5381 14.4248 97.6488 14.1713 97.8702 13.962C98.0955 13.7487 98.3652 13.642 98.6791 13.642C98.993 13.642 99.2607 13.7487 99.482 13.962C99.7074 14.1713 99.8201 14.4248 99.8201 14.7226C99.8201 15.0164 99.7074 15.27 99.482 15.4833C99.2607 15.6926 98.993 15.7972 98.6791 15.7972ZM106.329 17.228V18.6768H101.264V17.228H106.329ZM102.623 15.0064H104.428V23.778C104.428 24.1282 104.48 24.3918 104.585 24.5689C104.689 24.7419 104.824 24.8607 104.989 24.9251C105.158 24.9854 105.341 25.0156 105.539 25.0156C105.683 25.0156 105.81 25.0056 105.919 24.9854C106.028 24.9653 106.112 24.9492 106.172 24.9371L106.498 26.4283C106.394 26.4685 106.245 26.5087 106.052 26.549C105.859 26.5933 105.617 26.6174 105.327 26.6214C104.852 26.6295 104.41 26.545 103.999 26.3679C103.589 26.1908 103.257 25.9171 103.003 25.5469C102.75 25.1766 102.623 24.7118 102.623 24.1523V15.0064ZM110.33 20.995V26.5007H108.525V14.1371H110.306V18.7372H110.421C110.638 18.2382 110.97 17.8417 111.417 17.5479C111.864 17.2541 112.447 17.1072 113.168 17.1072C113.804 17.1072 114.359 17.238 114.834 17.4996C115.313 17.7612 115.683 18.1516 115.945 18.6708C116.21 19.1859 116.343 19.8299 116.343 20.6026V26.5007H114.538V20.8199C114.538 20.1398 114.363 19.6126 114.013 19.2383C113.663 18.86 113.176 18.6708 112.552 18.6708C112.125 18.6708 111.743 18.7614 111.405 18.9425C111.071 19.1236 110.807 19.3892 110.614 19.7393C110.425 20.0855 110.33 20.504 110.33 20.995Z" fill="#E8E8E8"/>
<path d="M130.417 14.1371H133.399V22.1118C133.399 23.0335 133.18 23.8364 132.741 24.5206C132.302 25.2007 131.691 25.728 130.906 26.1023C130.121 26.4725 129.209 26.6577 128.171 26.6577C127.121 26.6577 126.203 26.4725 125.418 26.1023C124.633 25.728 124.024 25.2007 123.589 24.5206C123.154 23.8364 122.937 23.0335 122.937 22.1118V14.1371H125.925V21.8523C125.925 22.2789 126.018 22.6592 126.203 22.9932C126.392 23.3273 126.656 23.5889 126.994 23.778C127.332 23.9672 127.724 24.0618 128.171 24.0618C128.618 24.0618 129.008 23.9672 129.342 23.778C129.68 23.5889 129.944 23.3273 130.133 22.9932C130.322 22.6592 130.417 22.2789 130.417 21.8523V14.1371ZM138.224 21.2123V26.5007H135.272V17.228H138.079V18.9304H138.182C138.387 18.3629 138.737 17.9182 139.232 17.5962C139.727 17.2702 140.317 17.1072 141.001 17.1072C141.653 17.1072 142.219 17.2541 142.697 17.5479C143.18 17.8377 143.555 18.2442 143.82 18.7674C144.09 19.2866 144.223 19.8943 144.219 20.5905V26.5007H141.267V21.1701C141.271 20.6549 141.14 20.2525 140.874 19.9627C140.613 19.6729 140.248 19.528 139.782 19.528C139.472 19.528 139.198 19.5965 138.961 19.7333C138.727 19.8661 138.546 20.0573 138.417 20.3068C138.293 20.5563 138.228 20.8582 138.224 21.2123ZM146.046 26.5007V17.228H148.999V26.5007H146.046ZM147.526 16.1474C147.111 16.1474 146.755 16.0105 146.457 15.7369C146.159 15.4592 146.01 15.1251 146.01 14.7347C146.01 14.3484 146.159 14.0183 146.457 13.7447C146.755 13.467 147.111 13.3281 147.526 13.3281C147.944 13.3281 148.3 13.467 148.594 13.7447C148.892 14.0183 149.041 14.3484 149.041 14.7347C149.041 15.1251 148.892 15.4592 148.594 15.7369C148.3 16.0105 147.944 16.1474 147.526 16.1474ZM156.112 17.228V19.4013H150.262V17.228H156.112ZM151.487 15.0064H154.439V23.5849C154.439 23.766 154.467 23.9129 154.524 24.0256C154.584 24.1342 154.671 24.2127 154.783 24.261C154.896 24.3053 155.031 24.3274 155.188 24.3274C155.301 24.3274 155.419 24.3173 155.544 24.2972C155.673 24.2731 155.769 24.2529 155.834 24.2368L156.281 26.3679C156.14 26.4081 155.94 26.4584 155.683 26.5188C155.429 26.5792 155.126 26.6174 154.771 26.6335C154.079 26.6657 153.485 26.5852 152.99 26.392C152.499 26.1948 152.123 25.889 151.862 25.4744C151.604 25.0599 151.479 24.5387 151.487 23.9109V15.0064ZM159.423 29.978C159.069 29.978 158.735 29.9498 158.421 29.8935C158.107 29.8411 157.837 29.7707 157.612 29.6822L158.264 27.539C158.553 27.6356 158.815 27.692 159.049 27.7081C159.286 27.7242 159.489 27.6859 159.658 27.5934C159.831 27.5048 159.964 27.3459 160.057 27.1165L160.171 26.8388L156.875 17.228H159.966L161.675 23.8444H161.771L163.504 17.228H166.613L163.117 27.3881C162.948 27.8952 162.709 28.342 162.399 28.7283C162.093 29.1187 161.697 29.4246 161.21 29.6459C160.727 29.8673 160.131 29.978 159.423 29.978Z" fill="white"/>
</g>
<defs>
<filter id="filter0_d_1_56" x="2.39972" y="0.39972" width="39.202" height="39.202" filterUnits="userSpaceOnUse" color-interpolation-filters="sRGB">
<feFlood flood-opacity="0" result="BackgroundImageFix"/>
<feColorMatrix in="SourceAlpha" type="matrix" values="0 0 0 0 0 0 0 0 0 0 0 0 0 0 0 0 0 0 127 0" result="hardAlpha"/>
<feOffset/>
<feGaussianBlur stdDeviation="2.80014"/>
<feComposite in2="hardAlpha" operator="out"/>
<feColorMatrix type="matrix" values="0 0 0 0 0 0 0 0 0 0 0 0 0 0 0 0 0 0 0.25 0"/>
<feBlend mode="normal" in2="BackgroundImageFix" result="effect1_dropShadow_1_56"/>
<feBlend mode="normal" in="SourceGraphic" in2="effect1_dropShadow_1_56" result="shape"/>
</filter>
<filter id="filter1_d_1_56" x="36.2871" y="3.78642" width="136.429" height="32.4286" filterUnits="userSpaceOnUse" color-interpolation-filters="sRGB">
<feFlood flood-opacity="0" result="BackgroundImageFix"/>
<feColorMatrix in="SourceAlpha" type="matrix" values="0 0 0 0 0 0 0 0 0 0 0 0 0 0 0 0 0 0 127 0" result="hardAlpha"/>
<feOffset/>
<feGaussianBlur stdDeviation="2.85714"/>
<feComposite in2="hardAlpha" operator="out"/>
<feColorMatrix type="matrix" values="0 0 0 0 0 0 0 0 0 0 0 0 0 0 0 0 0 0 0.25 0"/>
<feBlend mode="normal" in2="BackgroundImageFix" result="effect1_dropShadow_1_56"/>
<feBlend mode="normal" in="SourceGraphic" in2="effect1_dropShadow_1_56" result="shape"/>
</filter>
<linearGradient id="paint0_linear_1_56" x1="87.5007" y1="0" x2="87.5007" y2="40.0014" gradientUnits="userSpaceOnUse">
<stop stop-color="#1D1D1D"/>
<stop offset="0.9991" stop-color="#0E0E0E"/>
<stop offset="0.9992" stop-color="#0D1026"/>
<stop offset="0.9993" stop-color="#193958"/>
<stop offset="0.9994" stop-color="#249847"/>
</linearGradient>
</defs>
</svg>
