<svg width="144" height="56" viewBox="0 0 144 56" fill="none" xmlns="http://www.w3.org/2000/svg">
<rect width="144" height="56" rx="8" fill="url(#paint0_linear_1_50)"/>
<rect x="1.05" y="1.05" width="141.9" height="53.9" rx="6.95" stroke="white" stroke-opacity="0.15" stroke-width="2.1"/>
<g filter="url(#filter0_d_1_50)">
<path d="M45.2597 40.0515L38.0773 27.9815L45.2597 15.9115L48.722 27.9815L45.2597 40.0515ZM29.2745 38.8737L20.2503 29.9317H34.615L41.7973 42.0017L29.2745 38.8737ZM29.2745 17.0524L41.7607 13.9244L34.5784 25.9944H20.2138L29.2745 17.0524ZM47.6171 8L31.3 12.232L28.8691 16.39L23.9707 16.3531L12 27.9815L23.9707 39.61L28.8691 39.573L31.3 43.7311L47.6171 48L52 32.1396L49.5321 28.0185L52 23.8969L47.6171 8Z" fill="white"/>
</g>
<g filter="url(#filter1_d_1_50)">
<path d="M61.2784 24.5V12.8636H65.5398C66.3655 12.8636 67.0492 13 67.5909 13.2727C68.1326 13.5417 68.5379 13.9072 68.8068 14.3693C69.0757 14.8276 69.2102 15.3447 69.2102 15.9204C69.2102 16.4053 69.1212 16.8144 68.9432 17.1477C68.7651 17.4773 68.5265 17.7424 68.2273 17.9432C67.9318 18.1401 67.606 18.2841 67.25 18.375V18.4886C67.6363 18.5076 68.0132 18.6326 68.3807 18.8636C68.7519 19.0909 69.0587 19.4148 69.3011 19.8352C69.5435 20.2557 69.6648 20.767 69.6648 21.3693C69.6648 21.964 69.5246 22.4981 69.2443 22.9716C68.9678 23.4413 68.5398 23.8144 67.9602 24.0909C67.3807 24.3636 66.6401 24.5 65.7386 24.5H61.2784ZM63.0341 22.9943H65.5682C66.4091 22.9943 67.0113 22.8314 67.375 22.5057C67.7386 22.1799 67.9204 21.7727 67.9204 21.2841C67.9204 20.9167 67.8276 20.5795 67.642 20.2727C67.4564 19.9659 67.1913 19.7216 66.8466 19.5398C66.5057 19.3579 66.1004 19.267 65.6307 19.267H63.0341V22.9943ZM63.0341 17.8977H65.3863C65.7803 17.8977 66.1345 17.822 66.4488 17.6704C66.767 17.5189 67.0189 17.3068 67.2045 17.0341C67.3939 16.7576 67.4886 16.4318 67.4886 16.0568C67.4886 15.5758 67.3201 15.1723 66.9829 14.8466C66.6458 14.5208 66.1288 14.3579 65.4318 14.3579H63.0341V17.8977ZM77.1392 20.8807V15.7727H78.8437V24.5H77.1733V22.9886H77.0824C76.8816 23.4545 76.5596 23.8428 76.1165 24.1534C75.6771 24.4602 75.1297 24.6136 74.4744 24.6136C73.9138 24.6136 73.4176 24.4905 72.9858 24.2443C72.5577 23.9943 72.2206 23.625 71.9744 23.1364C71.732 22.6477 71.6108 22.0436 71.6108 21.3239V15.7727H73.3096V21.1193C73.3096 21.714 73.4744 22.1875 73.804 22.5398C74.1335 22.892 74.5615 23.0682 75.088 23.0682C75.4062 23.0682 75.7225 22.9886 76.0369 22.8295C76.3551 22.6704 76.6184 22.4299 76.8267 22.1079C77.0388 21.786 77.143 21.3769 77.1392 20.8807ZM81.1264 24.5V15.7727H82.8253V24.5H81.1264ZM81.9844 14.4261C81.6889 14.4261 81.4351 14.3276 81.223 14.1307C81.0147 13.9299 80.9105 13.6913 80.9105 13.4148C80.9105 13.1345 81.0147 12.8958 81.223 12.6989C81.4351 12.4981 81.6889 12.3977 81.9844 12.3977C82.2798 12.3977 82.5317 12.4981 82.74 12.6989C82.9522 12.8958 83.0582 13.1345 83.0582 13.4148C83.0582 13.6913 82.9522 13.9299 82.74 14.1307C82.5317 14.3276 82.2798 14.4261 81.9844 14.4261ZM86.8096 12.8636V24.5H85.1108V12.8636H86.8096ZM93.169 15.7727V17.1364H88.402V15.7727H93.169ZM89.6804 13.6818H91.3792V21.9375C91.3792 22.267 91.4285 22.5151 91.527 22.6818C91.6254 22.8447 91.7523 22.9564 91.9076 23.017C92.0667 23.0739 92.2391 23.1023 92.4247 23.1023C92.5611 23.1023 92.6804 23.0928 92.7826 23.0739C92.8849 23.0549 92.9645 23.0398 93.0213 23.0284L93.3281 24.4318C93.2296 24.4697 93.0895 24.5076 92.9076 24.5454C92.7258 24.5871 92.4986 24.6098 92.2258 24.6136C91.7789 24.6212 91.3622 24.5417 90.9758 24.375C90.5895 24.2083 90.277 23.9508 90.0383 23.6023C89.7997 23.2538 89.6804 22.8163 89.6804 22.2898V13.6818ZM101.175 24.5L98.6065 15.7727H100.362L102.072 22.1818H102.158L103.874 15.7727H105.629L107.334 22.1534H107.419L109.118 15.7727H110.874L108.311 24.5H106.578L104.805 18.1989H104.675L102.902 24.5H101.175ZM112.486 24.5V15.7727H114.185V24.5H112.486ZM113.344 14.4261C113.048 14.4261 112.794 14.3276 112.582 14.1307C112.374 13.9299 112.27 13.6913 112.27 13.4148C112.27 13.1345 112.374 12.8958 112.582 12.6989C112.794 12.4981 113.048 12.3977 113.344 12.3977C113.639 12.3977 113.891 12.4981 114.099 12.6989C114.312 12.8958 114.418 13.1345 114.418 13.4148C114.418 13.6913 114.312 13.9299 114.099 14.1307C113.891 14.3276 113.639 14.4261 113.344 14.4261ZM120.544 15.7727V17.1364H115.777V15.7727H120.544ZM117.055 13.6818H118.754V21.9375C118.754 22.267 118.803 22.5151 118.902 22.6818C119 22.8447 119.127 22.9564 119.283 23.017C119.442 23.0739 119.614 23.1023 119.8 23.1023C119.936 23.1023 120.055 23.0928 120.158 23.0739C120.26 23.0549 120.339 23.0398 120.396 23.0284L120.703 24.4318C120.605 24.4697 120.464 24.5076 120.283 24.5454C120.101 24.5871 119.874 24.6098 119.601 24.6136C119.154 24.6212 118.737 24.5417 118.351 24.375C117.964 24.2083 117.652 23.9508 117.413 23.6023C117.175 23.2538 117.055 22.8163 117.055 22.2898V13.6818ZM124.31 19.3182V24.5H122.611V12.8636H124.287V17.1932H124.395C124.599 16.7235 124.912 16.3504 125.332 16.0739C125.753 15.7973 126.302 15.6591 126.98 15.6591C127.579 15.6591 128.101 15.7822 128.548 16.0284C128.999 16.2746 129.348 16.642 129.594 17.1307C129.844 17.6155 129.969 18.2216 129.969 18.9489V24.5H128.27V19.1534C128.27 18.5133 128.105 18.017 127.776 17.6648C127.446 17.3087 126.988 17.1307 126.401 17.1307C125.999 17.1307 125.639 17.2159 125.321 17.3864C125.007 17.5568 124.758 17.8068 124.577 18.1364C124.399 18.4621 124.31 18.8561 124.31 19.3182Z" fill="#E8E8E8"/>
<path d="M68.4155 31.1364H71.3977V39.1111C71.3977 40.0328 71.1784 40.8357 70.7397 41.5199C70.301 42.2 69.6893 42.7273 68.9045 43.1016C68.1197 43.4718 67.2081 43.6569 66.1697 43.6569C65.1193 43.6569 64.2017 43.4718 63.4169 43.1016C62.6321 42.7273 62.0224 42.2 61.5877 41.5199C61.153 40.8357 60.9357 40.0328 60.9357 39.1111V31.1364H63.924V38.8516C63.924 39.2782 64.0166 39.6585 64.2017 39.9925C64.3908 40.3266 64.6545 40.5882 64.9925 40.7773C65.3306 40.9665 65.723 41.0611 66.1697 41.0611C66.6165 41.0611 67.0068 40.9665 67.3409 40.7773C67.679 40.5882 67.9426 40.3266 68.1317 39.9925C68.3209 39.6585 68.4155 39.2782 68.4155 38.8516V31.1364ZM76.2227 38.2116V43.5H73.2707V34.2273H76.0778V35.9297H76.1805C76.3857 35.3622 76.7359 34.9175 77.2309 34.5955C77.7259 34.2695 78.3155 34.1065 78.9997 34.1065C79.6517 34.1065 80.2172 34.2534 80.6961 34.5472C81.179 34.837 81.5533 35.2435 81.819 35.7667C82.0886 36.2859 82.2214 36.8936 82.2174 37.5898V43.5H79.2653V38.1694C79.2694 37.6542 79.1386 37.2518 78.8729 36.962C78.6113 36.6722 78.2471 36.5273 77.7803 36.5273C77.4704 36.5273 77.1967 36.5958 76.9592 36.7326C76.7258 36.8654 76.5447 37.0566 76.4159 37.3061C76.2911 37.5556 76.2267 37.8575 76.2227 38.2116ZM84.0451 43.5V34.2273H86.9971V43.5H84.0451ZM85.5241 33.1467C85.1096 33.1467 84.7534 33.0098 84.4556 32.7361C84.1578 32.4584 84.0089 32.1244 84.0089 31.734C84.0089 31.3476 84.1578 31.0176 84.4556 30.744C84.7534 30.4663 85.1096 30.3274 85.5241 30.3274C85.9427 30.3274 86.2989 30.4663 86.5927 30.744C86.8905 31.0176 87.0394 31.3476 87.0394 31.734C87.0394 32.1244 86.8905 32.4584 86.5927 32.7361C86.2989 33.0098 85.9427 33.1467 85.5241 33.1467ZM94.1101 34.2273V36.4006H88.2604V34.2273H94.1101ZM89.4859 32.0057H92.4379V40.5842C92.4379 40.7653 92.4661 40.9122 92.5224 41.0248C92.5828 41.1335 92.6693 41.212 92.782 41.2603C92.8947 41.3046 93.0295 41.3267 93.1865 41.3267C93.2992 41.3267 93.4179 41.3166 93.5427 41.2965C93.6715 41.2724 93.7681 41.2522 93.8324 41.2361L94.2792 43.3672C94.1383 43.4074 93.9391 43.4577 93.6815 43.5181C93.428 43.5785 93.1241 43.6167 92.77 43.6328C92.0777 43.665 91.4841 43.5845 90.9891 43.3913C90.4981 43.1941 90.1218 42.8882 89.8601 42.4737C89.6026 42.0592 89.4778 41.538 89.4859 40.9101V32.0057ZM97.4214 46.9773C97.0672 46.9773 96.7332 46.9491 96.4193 46.8927C96.1054 46.8404 95.8357 46.77 95.6103 46.6815L96.2623 44.5383C96.5521 44.6349 96.8137 44.6913 97.0471 44.7074C97.2846 44.7235 97.4878 44.6852 97.6568 44.5927C97.8299 44.5041 97.9627 44.3452 98.0553 44.1158L98.17 43.8381L94.8738 34.2273H97.9647L99.6732 40.8437H99.7698L101.502 34.2273H104.611L101.116 44.3874C100.947 44.8945 100.708 45.3413 100.398 45.7276C100.092 46.118 99.6953 46.4239 99.2083 46.6452C98.7254 46.8666 98.1297 46.9773 97.4214 46.9773Z" fill="white"/>
</g>
<defs>
<filter id="filter0_d_1_50" x="6.28571" y="2.28571" width="51.4286" height="51.4286" filterUnits="userSpaceOnUse" color-interpolation-filters="sRGB">
<feFlood flood-opacity="0" result="BackgroundImageFix"/>
<feColorMatrix in="SourceAlpha" type="matrix" values="0 0 0 0 0 0 0 0 0 0 0 0 0 0 0 0 0 0 127 0" result="hardAlpha"/>
<feOffset/>
<feGaussianBlur stdDeviation="2.85714"/>
<feComposite in2="hardAlpha" operator="out"/>
<feColorMatrix type="matrix" values="0 0 0 0 0 0 0 0 0 0 0 0 0 0 0 0 0 0 0.25 0"/>
<feBlend mode="normal" in2="BackgroundImageFix" result="effect1_dropShadow_1_50"/>
<feBlend mode="normal" in="SourceGraphic" in2="effect1_dropShadow_1_50" result="shape"/>
</filter>
<filter id="filter1_d_1_50" x="54.4" y="3.9" width="83.2" height="48.6773" filterUnits="userSpaceOnUse" color-interpolation-filters="sRGB">
<feFlood flood-opacity="0" result="BackgroundImageFix"/>
<feColorMatrix in="SourceAlpha" type="matrix" values="0 0 0 0 0 0 0 0 0 0 0 0 0 0 0 0 0 0 127 0" result="hardAlpha"/>
<feOffset/>
<feGaussianBlur stdDeviation="2.8"/>
<feComposite in2="hardAlpha" operator="out"/>
<feColorMatrix type="matrix" values="0 0 0 0 0 0 0 0 0 0 0 0 0 0 0 0 0 0 0.25 0"/>
<feBlend mode="normal" in2="BackgroundImageFix" result="effect1_dropShadow_1_50"/>
<feBlend mode="normal" in="SourceGraphic" in2="effect1_dropShadow_1_50" result="shape"/>
</filter>
<linearGradient id="paint0_linear_1_50" x1="72" y1="0" x2="72" y2="56" gradientUnits="userSpaceOnUse">
<stop offset="0.0008" stop-color="#1D1D1D"/>
<stop offset="0.0009" stop-color="#BE2128"/>
<stop offset="0.001" stop-color="#984D00"/>
<stop offset="0.0011" stop-color="#20275B"/>
<stop offset="0.0012" stop-color="#1D1D1D"/>
<stop offset="0.9987" stop-color="#0E0E0E"/>
<stop offset="0.9988" stop-color="#0E0E0E"/>
<stop offset="0.9989" stop-color="#0D1026"/>
<stop offset="0.999" stop-color="#0C0E22"/>
</linearGradient>
</defs>
</svg>
