<svg width="243" height="40" viewBox="0 0 243 40" fill="none" xmlns="http://www.w3.org/2000/svg">
<rect width="243.001" height="40.0014" rx="8" fill="url(#paint0_linear_1_56)"/>
<rect x="1.07143" y="1.07143" width="240.858" height="37.8585" rx="6.92857" stroke="white" stroke-opacity="0.15" stroke-width="2.14286"/>
<g filter="url(#filter0_d_1_56)">
<g clip-path="url(#clip0_1_56)">
<path d="M35.7145 20.1651V21.4449H33.4433V22.0355H34.5895C35.2031 22.0355 35.8565 22.4918 35.8955 23.2696L35.8973 23.3434V23.8356C35.87 24.7715 35.1061 25.1233 34.6306 25.1427L34.5895 25.1435H32.2901V23.8708L34.6176 23.8638V23.245L34.2473 23.2452L34.1394 23.2455L34.1131 23.2456L34.0734 23.2458L34.0594 23.2459L34.0421 23.2462L34.037 23.2464C34.0372 23.2466 34.0411 23.2467 34.0477 23.2468L34.0639 23.2471C34.0734 23.2472 34.0847 23.2473 34.0967 23.2474L34.121 23.2476L34.0726 23.2475C33.9748 23.247 33.8074 23.2462 33.5347 23.245C32.9824 23.245 32.2648 22.8284 32.2218 22.0146L32.2198 21.9371V21.4941C32.2198 20.6547 32.9286 20.1928 33.4846 20.1663L33.5347 20.1651H35.7145ZM29.8994 20.1651V23.8567H31.819V25.1435H28.479V20.1651H29.8994ZM27.8953 20.1651V25.1435H26.4679V20.1651H27.8953ZM24.5342 20.1651C24.8633 20.1651 25.794 20.3924 25.8403 21.3944L25.8421 21.473V25.1435H24.5131V24.2646H23.2263V25.1435H21.8552V21.473C21.8552 21.0628 22.1676 20.214 23.0831 20.1672L23.163 20.1651H24.5342ZM17.0218 20.1643L19.6912 20.1645C19.747 20.1706 21.17 20.3419 21.17 21.8892C21.17 23.4365 19.9953 23.5676 19.9493 23.5721L19.9479 23.5722L21.5052 25.1435H19.5219L18.3626 23.9424V25.1435H17.0218V20.1643ZM23.9965 19.3252L24.0069 19.3354C24.0069 19.3354 23.8873 19.4198 23.7607 19.5253C19.7668 16.572 17.3268 17.9642 16.5604 18.3369C13.0797 20.2791 14.0855 25.0469 14.106 25.1421L14.1063 25.1435H8.55133C8.55133 25.1435 8.76227 23.0622 10.2389 20.6011C11.7156 18.14 14.2329 16.2766 16.2791 16.0938C20.2245 15.6986 23.7803 19.1135 23.9965 19.3252ZM14.3173 23.7372L15.0767 24.0114C15.1118 24.2868 15.1616 24.5476 15.2139 24.7856L15.2454 24.9255L14.4016 24.6232C14.3665 24.4122 14.3313 24.1099 14.3173 23.7372ZM24.1193 21.3535H23.6482C23.2973 21.3535 23.2335 21.5371 23.2219 21.6038L23.2196 21.6213L23.2193 21.6261L23.2193 22.8442H24.5061L24.506 21.6257C24.5045 21.601 24.4801 21.3535 24.1193 21.3535ZM8.41069 21.459L9.21933 21.7543C9.12089 21.9819 8.99553 22.2742 8.90449 22.5039L8.86775 22.5981L8.05911 22.3027C8.12943 22.1129 8.27709 21.7613 8.41069 21.459ZM19.4381 21.4143H18.3626V22.5526H19.4311C19.4311 22.5526 19.7384 22.4339 19.7384 21.98C19.7384 21.5261 19.4381 21.4143 19.4381 21.4143ZM14.6337 21.1777L15.14 21.5785C15.0837 21.7979 15.041 22.0173 15.0117 22.2367L14.9923 22.4012L14.4227 21.9512C14.479 21.698 14.5423 21.4379 14.6337 21.1777ZM15.8783 19.2159L16.1947 19.694C16.0709 19.8234 15.9562 19.9528 15.854 20.0894L15.7798 20.1933L15.4423 19.687C15.5689 19.5253 15.7166 19.3635 15.8783 19.2159ZM10.8436 18.1752L11.3429 18.6111C11.2163 18.743 11.0937 18.8827 10.978 19.0245L10.8647 19.1666L10.3233 18.7026C10.485 18.5268 10.6608 18.351 10.8436 18.1752ZM17.812 18.1471L17.9667 18.6111C17.8035 18.6618 17.6404 18.7259 17.4773 18.7999L17.3549 18.8573L17.1932 18.3721C17.369 18.2947 17.5729 18.2174 17.812 18.1471ZM19.4574 17.9783C19.6374 17.9895 19.8219 18.0098 20.0109 18.0427L20.1535 18.0697L20.1254 18.5057C19.9398 18.4663 19.7541 18.4404 19.5685 18.428L19.4293 18.4213L19.4574 17.9783ZM13.6844 16.0376L14.0008 16.5227C13.8637 16.5913 13.7306 16.6678 13.5954 16.7492L13.4594 16.8321L13.1359 16.3399C13.3258 16.2274 13.5086 16.129 13.6844 16.0376ZM19.4714 15.7704C19.8898 15.8899 20.0699 15.9718 20.1419 16.0102L20.1535 16.0165L20.1254 16.4876C19.9754 16.4267 19.8254 16.3688 19.6733 16.3141L19.4433 16.2345L19.4714 15.7704ZM16.7854 15.3555L16.926 15.7844H16.8557C16.7027 15.7844 16.5498 15.7884 16.3969 15.7993L16.2439 15.8126L16.1103 15.3977C16.3424 15.3696 16.5674 15.3555 16.7854 15.3555Z" fill="#D30001"/>
</g>
</g>
<g filter="url(#filter1_d_1_56)">
<path d="M43.3597 26.5007V14.1371H47.8874C48.7648 14.1371 49.4912 14.282 50.0667 14.5717C50.6423 14.8575 51.0729 15.2458 51.3586 15.7369C51.6444 16.2238 51.7873 16.7732 51.7873 17.3849C51.7873 17.9001 51.6927 18.3347 51.5035 18.6889C51.3144 19.0391 51.0608 19.3208 50.7429 19.5341C50.429 19.7434 50.0828 19.8963 49.7045 19.9929V20.1136C50.115 20.1337 50.5155 20.2666 50.9059 20.5121C51.3003 20.7535 51.6263 21.0976 51.8839 21.5444C52.1414 21.9911 52.2702 22.5344 52.2702 23.1743C52.2702 23.8062 52.1213 24.3737 51.8235 24.8768C51.5297 25.3758 51.0749 25.7722 50.4591 26.066C49.8434 26.3558 49.0566 26.5007 48.0987 26.5007H43.3597ZM45.2251 24.9009H47.9176C48.8111 24.9009 49.451 24.7279 49.8373 24.3817C50.2237 24.0356 50.4169 23.603 50.4169 23.0838C50.4169 22.6934 50.3183 22.3352 50.1211 22.0092C49.9239 21.6832 49.6421 21.4236 49.2759 21.2305C48.9137 21.0373 48.483 20.9407 47.984 20.9407H45.2251V24.9009ZM45.2251 19.4858H47.7244C48.143 19.4858 48.5193 19.4053 48.8533 19.2443C49.1914 19.0833 49.459 18.8579 49.6562 18.5682C49.8575 18.2744 49.9581 17.9283 49.9581 17.5298C49.9581 17.0187 49.779 16.5901 49.4208 16.244C49.0626 15.8978 48.5132 15.7248 47.7727 15.7248H45.2251V19.4858ZM60.2118 22.6552V17.228H62.0229V26.5007H60.248V24.8949H60.1514C59.9381 25.3899 59.596 25.8024 59.1251 26.1324C58.6583 26.4584 58.0767 26.6214 57.3805 26.6214C56.7848 26.6214 56.2576 26.4906 55.7988 26.229C55.344 25.9634 54.9858 25.571 54.7242 25.0518C54.4667 24.5327 54.3379 23.8907 54.3379 23.1261V17.228H56.1429V22.9087C56.1429 23.5406 56.318 24.0437 56.6681 24.418C57.0183 24.7922 57.473 24.9794 58.0325 24.9794C58.3705 24.9794 58.7066 24.8949 59.0406 24.7258C59.3787 24.5568 59.6584 24.3012 59.8798 23.9591C60.1051 23.6171 60.2158 23.1824 60.2118 22.6552ZM64.4482 26.5007V17.228H66.2533V26.5007H64.4482ZM65.3598 15.7972C65.0459 15.7972 64.7762 15.6926 64.5508 15.4833C64.3295 15.27 64.2188 15.0164 64.2188 14.7226C64.2188 14.4248 64.3295 14.1713 64.5508 13.962C64.7762 13.7487 65.0459 13.642 65.3598 13.642C65.6737 13.642 65.9413 13.7487 66.1627 13.962C66.3881 14.1713 66.5008 14.4248 66.5008 14.7226C66.5008 15.0164 66.3881 15.27 66.1627 15.4833C65.9413 15.6926 65.6737 15.7972 65.3598 15.7972ZM70.4867 14.1371V26.5007H68.6816V14.1371H70.4867ZM77.2435 17.228V18.6768H72.1785V17.228H77.2435ZM73.5368 15.0064H75.3419V23.778C75.3419 24.1282 75.3942 24.3918 75.4988 24.5689C75.6035 24.7419 75.7383 24.8607 75.9033 24.9251C76.0723 24.9854 76.2554 25.0156 76.4526 25.0156C76.5975 25.0156 76.7243 25.0056 76.833 24.9854C76.9416 24.9653 77.0262 24.9492 77.0865 24.9371L77.4125 26.4283C77.3079 26.4685 77.159 26.5087 76.9658 26.549C76.7726 26.5933 76.5311 26.6174 76.2414 26.6214C75.7664 26.6295 75.3237 26.545 74.9132 26.3679C74.5027 26.1908 74.1707 25.9171 73.9171 25.5469C73.6636 25.1766 73.5368 24.7118 73.5368 24.1523V15.0064ZM85.7495 26.5007L83.0208 17.228H84.8862L86.7034 24.0376H86.7939L88.6171 17.228H90.4825L92.2936 24.0074H92.3841L94.1891 17.228H96.0546L93.3319 26.5007H91.4906L89.6071 19.8057H89.4683L87.5847 26.5007H85.7495ZM97.7675 26.5007V17.228H99.5726V26.5007H97.7675ZM98.6791 15.7972C98.3652 15.7972 98.0955 15.6926 97.8702 15.4833C97.6488 15.27 97.5381 15.0164 97.5381 14.7226C97.5381 14.4248 97.6488 14.1713 97.8702 13.962C98.0955 13.7487 98.3652 13.642 98.6791 13.642C98.993 13.642 99.2607 13.7487 99.482 13.962C99.7074 14.1713 99.8201 14.4248 99.8201 14.7226C99.8201 15.0164 99.7074 15.27 99.482 15.4833C99.2607 15.6926 98.993 15.7972 98.6791 15.7972ZM106.329 17.228V18.6768H101.264V17.228H106.329ZM102.623 15.0064H104.428V23.778C104.428 24.1282 104.48 24.3918 104.585 24.5689C104.689 24.7419 104.824 24.8607 104.989 24.9251C105.158 24.9854 105.341 25.0156 105.539 25.0156C105.683 25.0156 105.81 25.0056 105.919 24.9854C106.028 24.9653 106.112 24.9492 106.172 24.9371L106.498 26.4283C106.394 26.4685 106.245 26.5087 106.052 26.549C105.859 26.5933 105.617 26.6174 105.327 26.6214C104.852 26.6295 104.41 26.545 103.999 26.3679C103.589 26.1908 103.257 25.9171 103.003 25.5469C102.75 25.1766 102.623 24.7118 102.623 24.1523V15.0064ZM110.33 20.995V26.5007H108.525V14.1371H110.306V18.7372H110.421C110.638 18.2382 110.97 17.8417 111.417 17.5479C111.864 17.2541 112.447 17.1072 113.168 17.1072C113.804 17.1072 114.359 17.238 114.834 17.4996C115.313 17.7612 115.683 18.1516 115.945 18.6708C116.21 19.1859 116.343 19.8299 116.343 20.6026V26.5007H114.538V20.8199C114.538 20.1398 114.363 19.6126 114.013 19.2383C113.663 18.86 113.176 18.6708 112.552 18.6708C112.125 18.6708 111.743 18.7614 111.405 18.9425C111.071 19.1236 110.807 19.3892 110.614 19.7393C110.425 20.0855 110.33 20.504 110.33 20.995Z" fill="#E8E8E8"/>
<path d="M122.937 26.0007V13.6371H128.044C128.97 13.6371 129.769 13.8041 130.441 14.1381C131.117 14.4681 131.638 14.9431 132.005 15.5628C132.371 16.1786 132.554 16.9091 132.554 17.7543C132.554 18.6115 132.367 19.34 131.992 19.9396C131.618 20.5353 131.087 20.99 130.399 21.304C129.711 21.6139 128.896 21.7688 127.954 21.7688H124.724V19.4144H127.398C127.849 19.4144 128.225 19.356 128.527 19.2393C128.833 19.1186 129.065 18.9375 129.222 18.696C129.379 18.4505 129.457 18.1366 129.457 17.7543C129.457 17.3719 129.379 17.056 129.222 16.8065C129.065 16.5529 128.833 16.3637 128.527 16.239C128.221 16.1102 127.845 16.0458 127.398 16.0458H125.925V26.0007H122.937ZM129.898 20.3501L132.977 26.0007H129.717L126.698 20.3501H129.898ZM140.176 21.9982V16.728H143.122V26.0007H140.308V24.2741H140.212C140.007 24.8416 139.656 25.2924 139.161 25.6264C138.67 25.9564 138.077 26.1214 137.38 26.1214C136.749 26.1214 136.193 25.9765 135.714 25.6868C135.235 25.397 134.863 24.9925 134.597 24.4734C134.332 23.9502 134.197 23.3384 134.193 22.6381V16.728H137.145V22.0586C137.149 22.5617 137.282 22.9581 137.543 23.2479C137.805 23.5376 138.161 23.6825 138.612 23.6825C138.906 23.6825 139.169 23.6181 139.403 23.4893C139.64 23.3565 139.827 23.1654 139.964 22.9158C140.105 22.6623 140.176 22.3564 140.176 21.9982ZM145.001 26.0007V13.6371H147.953V18.3157H148.013C148.134 18.034 148.305 17.7623 148.526 17.5007C148.752 17.2391 149.037 17.0258 149.383 16.8608C149.734 16.6918 150.152 16.6072 150.639 16.6072C151.283 16.6072 151.885 16.7763 152.444 17.1143C153.008 17.4524 153.462 17.9736 153.808 18.6779C154.155 19.3822 154.328 20.2797 154.328 21.3704C154.328 22.4208 154.161 23.3002 153.827 24.0085C153.497 24.7168 153.05 25.2481 152.486 25.6023C151.927 25.9564 151.305 26.1335 150.621 26.1335C150.154 26.1335 149.75 26.057 149.408 25.9041C149.065 25.7512 148.778 25.5499 148.544 25.3004C148.315 25.0509 148.138 24.7832 148.013 24.4975H147.922V26.0007H145.001ZM147.892 21.3643C147.892 21.8634 147.959 22.298 148.091 22.6683C148.228 23.0386 148.424 23.3263 148.677 23.5316C148.935 23.7328 149.243 23.8334 149.601 23.8334C149.963 23.8334 150.271 23.7328 150.524 23.5316C150.778 23.3263 150.969 23.0386 151.098 22.6683C151.231 22.298 151.297 21.8634 151.297 21.3643C151.297 20.8653 151.231 20.4326 151.098 20.0664C150.969 19.7002 150.778 19.4164 150.524 19.2152C150.275 19.014 149.967 18.9133 149.601 18.9133C149.238 18.9133 148.931 19.0119 148.677 19.2092C148.424 19.4064 148.228 19.6881 148.091 20.0543C147.959 20.4206 147.892 20.8572 147.892 21.3643ZM157.381 29.478C157.027 29.478 156.693 29.4498 156.379 29.3935C156.065 29.3411 155.795 29.2707 155.57 29.1822L156.222 27.039C156.511 27.1356 156.773 27.192 157.007 27.2081C157.244 27.2242 157.447 27.1859 157.616 27.0934C157.789 27.0048 157.922 26.8459 158.015 26.6165L158.129 26.3388L154.833 16.728H157.924L159.633 23.3444H159.729L161.462 16.728H164.571L161.075 26.8881C160.906 27.3952 160.667 27.842 160.357 28.2283C160.051 28.6187 159.655 28.9246 159.168 29.1459C158.685 29.3673 158.089 29.478 157.381 29.478ZM173.684 26.1758C172.71 26.1758 171.872 25.9765 171.172 25.5781C170.476 25.1757 169.939 24.6162 169.56 23.8998C169.186 23.1794 168.999 22.3443 168.999 21.3945C168.999 20.4407 169.186 19.6056 169.56 18.8892C169.939 18.1688 170.476 17.6094 171.172 17.2109C171.872 16.8085 172.71 16.6072 173.684 16.6072C174.657 16.6072 175.493 16.8085 176.189 17.2109C176.889 17.6094 177.426 18.1688 177.801 18.8892C178.179 19.6056 178.368 20.4407 178.368 21.3945C178.368 22.3443 178.179 23.1794 177.801 23.8998C177.426 24.6162 176.889 25.1757 176.189 25.5781C175.493 25.9765 174.657 26.1758 173.684 26.1758ZM173.702 23.9481C174.056 23.9481 174.356 23.8395 174.601 23.6221C174.847 23.4048 175.034 23.103 175.163 22.7166C175.295 22.3302 175.362 21.8835 175.362 21.3764C175.362 20.8613 175.295 20.4105 175.163 20.0241C175.034 19.6378 174.847 19.3359 174.601 19.1186C174.356 18.9013 174.056 18.7926 173.702 18.7926C173.335 18.7926 173.026 18.9013 172.772 19.1186C172.522 19.3359 172.331 19.6378 172.198 20.0241C172.07 20.4105 172.005 20.8613 172.005 21.3764C172.005 21.8835 172.07 22.3302 172.198 22.7166C172.331 23.103 172.522 23.4048 172.772 23.6221C173.026 23.8395 173.335 23.9481 173.702 23.9481ZM182.832 20.7123V26.0007H179.88V16.728H182.688V18.4304H182.79C182.995 17.8629 183.346 17.4182 183.841 17.0962C184.336 16.7702 184.925 16.6072 185.609 16.6072C186.261 16.6072 186.827 16.7541 187.306 17.0479C187.789 17.3377 188.163 17.7442 188.429 18.2674C188.698 18.7866 188.831 19.3943 188.827 20.0905V26.0007H185.875V20.6701C185.879 20.1549 185.748 19.7525 185.483 19.4627C185.221 19.1729 184.857 19.028 184.39 19.028C184.08 19.028 183.806 19.0965 183.569 19.2333C183.336 19.3661 183.154 19.5573 183.026 19.8068C182.901 20.0563 182.837 20.3582 182.832 20.7123ZM194.307 26.0007V13.6371H199.414C200.34 13.6371 201.139 13.8041 201.811 14.1381C202.487 14.4681 203.008 14.9431 203.375 15.5628C203.741 16.1786 203.924 16.9091 203.924 17.7543C203.924 18.6115 203.737 19.34 203.363 19.9396C202.988 20.5353 202.457 20.99 201.769 21.304C201.081 21.6139 200.266 21.7688 199.324 21.7688H196.094V19.4144H198.768C199.219 19.4144 199.596 19.356 199.897 19.2393C200.203 19.1186 200.435 18.9375 200.592 18.696C200.749 18.4505 200.827 18.1366 200.827 17.7543C200.827 17.3719 200.749 17.056 200.592 16.8065C200.435 16.5529 200.203 16.3637 199.897 16.239C199.592 16.1102 199.215 16.0458 198.768 16.0458H197.295V26.0007H194.307ZM201.268 20.3501L204.347 26.0007H201.087L198.068 20.3501H201.268ZM208.177 26.1577C207.585 26.1577 207.06 26.0591 206.601 25.8618C206.147 25.6606 205.786 25.3588 205.521 24.9563C205.259 24.5498 205.128 24.0407 205.128 23.429C205.128 22.9138 205.219 22.4792 205.4 22.125C205.581 21.7708 205.831 21.4831 206.149 21.2617C206.467 21.0404 206.833 20.8733 207.247 20.7606C207.662 20.6439 208.105 20.5654 208.575 20.5252C209.103 20.4769 209.527 20.4266 209.849 20.3743C210.171 20.3179 210.405 20.2395 210.55 20.1388C210.698 20.0342 210.773 19.8873 210.773 19.6981V19.668C210.773 19.3581 210.666 19.1186 210.453 18.9496C210.24 18.7805 209.952 18.696 209.59 18.696C209.199 18.696 208.885 18.7805 208.648 18.9496C208.41 19.1186 208.26 19.352 208.195 19.6498L205.472 19.5533C205.553 18.9898 205.76 18.4867 206.094 18.044C206.432 17.5973 206.895 17.2471 207.483 16.9936C208.074 16.736 208.785 16.6072 209.614 16.6072C210.205 16.6072 210.751 16.6777 211.25 16.8185C211.749 16.9554 212.184 17.1566 212.554 17.4222C212.924 17.6838 213.21 18.0058 213.411 18.3881C213.616 18.7705 213.719 19.2071 213.719 19.6981V26.0007H210.942V24.7088H210.87C210.705 25.0227 210.493 25.2883 210.236 25.5057C209.982 25.723 209.682 25.886 209.336 25.9947C208.994 26.1033 208.608 26.1577 208.177 26.1577ZM209.089 24.2258C209.407 24.2258 209.692 24.1614 209.946 24.0327C210.203 23.9039 210.409 23.7268 210.562 23.5014C210.715 23.272 210.791 23.0064 210.791 22.7045V21.8231C210.707 21.8674 210.604 21.9077 210.483 21.9439C210.366 21.9801 210.238 22.0143 210.097 22.0465C209.956 22.0787 209.811 22.1069 209.662 22.131C209.513 22.1552 209.37 22.1773 209.234 22.1974C208.956 22.2417 208.718 22.3101 208.521 22.4027C208.328 22.4953 208.179 22.616 208.074 22.7649C207.974 22.9098 207.923 23.0828 207.923 23.2841C207.923 23.59 208.032 23.8234 208.249 23.9844C208.471 24.1453 208.751 24.2258 209.089 24.2258ZM215.524 26.0007V16.728H218.476V26.0007H215.524ZM217.003 15.6474C216.588 15.6474 216.232 15.5105 215.934 15.2369C215.637 14.9592 215.488 14.6251 215.488 14.2347C215.488 13.8484 215.637 13.5183 215.934 13.2447C216.232 12.967 216.588 12.8281 217.003 12.8281C217.422 12.8281 217.778 12.967 218.072 13.2447C218.369 13.5183 218.518 13.8484 218.518 14.2347C218.518 14.6251 218.369 14.9592 218.072 15.2369C217.778 15.5105 217.422 15.6474 217.003 15.6474ZM223.307 13.6371V26.0007H220.355V13.6371H223.307ZM233.282 19.5593L230.571 19.6317C230.543 19.4386 230.466 19.2675 230.342 19.1186C230.217 18.9657 230.054 18.8469 229.853 18.7624C229.655 18.6739 229.426 18.6296 229.164 18.6296C228.822 18.6296 228.531 18.698 228.289 18.8349C228.052 18.9717 227.935 19.1568 227.939 19.3903C227.935 19.5714 228.007 19.7283 228.156 19.8611C228.309 19.994 228.581 20.1006 228.971 20.1811L230.758 20.5192C231.684 20.6962 232.372 20.99 232.823 21.4006C233.278 21.8111 233.507 22.3544 233.511 23.0305C233.507 23.6664 233.318 24.2198 232.944 24.6907C232.573 25.1616 232.066 25.5278 231.422 25.7894C230.778 26.047 230.042 26.1758 229.213 26.1758C227.889 26.1758 226.844 25.9041 226.08 25.3608C225.319 24.8134 224.884 24.081 224.776 23.1633L227.691 23.0909C227.756 23.429 227.923 23.6865 228.192 23.8636C228.462 24.0407 228.806 24.1292 229.225 24.1292C229.603 24.1292 229.911 24.0588 230.148 23.918C230.386 23.7771 230.507 23.5899 230.511 23.3565C230.507 23.1472 230.414 22.9802 230.233 22.8555C230.052 22.7267 229.768 22.6261 229.382 22.5536L227.764 22.2457C226.834 22.0767 226.142 21.7648 225.687 21.31C225.232 20.8512 225.007 20.2676 225.011 19.5593C225.007 18.9395 225.172 18.4103 225.506 17.9716C225.84 17.5289 226.315 17.1908 226.931 16.9574C227.547 16.7239 228.273 16.6072 229.11 16.6072C230.366 16.6072 231.356 16.8708 232.08 17.3981C232.805 17.9213 233.205 18.6417 233.282 19.5593Z" fill="#D30001"/>
</g>
<defs>
<filter id="filter0_d_1_56" x="2.39972" y="0.39972" width="39.202" height="39.202" filterUnits="userSpaceOnUse" color-interpolation-filters="sRGB">
<feFlood flood-opacity="0" result="BackgroundImageFix"/>
<feColorMatrix in="SourceAlpha" type="matrix" values="0 0 0 0 0 0 0 0 0 0 0 0 0 0 0 0 0 0 127 0" result="hardAlpha"/>
<feOffset/>
<feGaussianBlur stdDeviation="2.80014"/>
<feComposite in2="hardAlpha" operator="out"/>
<feColorMatrix type="matrix" values="0 0 0 0 0 0 0 0 0 0 0 0 0 0 0 0 0 0 0.25 0"/>
<feBlend mode="normal" in2="BackgroundImageFix" result="effect1_dropShadow_1_56"/>
<feBlend mode="normal" in="SourceGraphic" in2="effect1_dropShadow_1_56" result="shape"/>
</filter>
<filter id="filter1_d_1_56" x="36.2871" y="3.78642" width="204.429" height="32.4286" filterUnits="userSpaceOnUse" color-interpolation-filters="sRGB">
<feFlood flood-opacity="0" result="BackgroundImageFix"/>
<feColorMatrix in="SourceAlpha" type="matrix" values="0 0 0 0 0 0 0 0 0 0 0 0 0 0 0 0 0 0 127 0" result="hardAlpha"/>
<feOffset/>
<feGaussianBlur stdDeviation="2.85714"/>
<feComposite in2="hardAlpha" operator="out"/>
<feColorMatrix type="matrix" values="0 0 0 0 0 0 0 0 0 0 0 0 0 0 0 0 0 0 0.25 0"/>
<feBlend mode="normal" in2="BackgroundImageFix" result="effect1_dropShadow_1_56"/>
<feBlend mode="normal" in="SourceGraphic" in2="effect1_dropShadow_1_56" result="shape"/>
</filter>
<linearGradient id="paint0_linear_1_56" x1="121.501" y1="0" x2="121.501" y2="40.0014" gradientUnits="userSpaceOnUse">
<stop stop-color="#540000"/>
<stop offset="1" stop-color="#350000"/>
</linearGradient>
<clipPath id="clip0_1_56">
<rect width="28" height="9.95556" fill="white" transform="translate(8 15.1875)"/>
</clipPath>
</defs>
</svg>
