<svg width="40" height="40" viewBox="0 0 40 40" fill="none" xmlns="http://www.w3.org/2000/svg">
<rect width="40" height="40" rx="8" fill="url(#paint0_linear_1_68)"/>
<rect x="1.05" y="1.05" width="37.9" height="37.9" rx="6.95" stroke="white" stroke-opacity="0.15" stroke-width="2.1"/>
<g filter="url(#filter0_d_1_68)">
<g clip-path="url(#clip0_1_68)">
<path d="M33.7145 20.1651V21.4449H31.4433V22.0355H32.5895C33.2031 22.0355 33.8565 22.4918 33.8955 23.2696L33.8973 23.3434V23.8356C33.87 24.7715 33.1061 25.1233 32.6306 25.1427L32.5895 25.1435H30.2901V23.8708L32.6176 23.8638V23.245L32.2473 23.2452L32.1394 23.2455L32.1131 23.2456L32.0734 23.2458L32.0594 23.2459L32.0421 23.2462L32.037 23.2464C32.0372 23.2466 32.0411 23.2467 32.0477 23.2468L32.0639 23.2471C32.0734 23.2472 32.0847 23.2473 32.0967 23.2474L32.121 23.2476L32.0726 23.2475C31.9748 23.247 31.8074 23.2462 31.5347 23.245C30.9824 23.245 30.2648 22.8284 30.2218 22.0146L30.2198 21.9371V21.4941C30.2198 20.6547 30.9286 20.1928 31.4846 20.1663L31.5347 20.1651H33.7145ZM27.8994 20.1651V23.8567H29.819V25.1435H26.479V20.1651H27.8994ZM25.8953 20.1651V25.1435H24.4679V20.1651H25.8953ZM22.5342 20.1651C22.8633 20.1651 23.794 20.3924 23.8403 21.3944L23.8421 21.473V25.1435H22.5131V24.2646H21.2263V25.1435H19.8552V21.473C19.8552 21.0628 20.1676 20.214 21.0831 20.1672L21.163 20.1651H22.5342ZM15.0218 20.1643L17.6912 20.1645C17.747 20.1706 19.17 20.3419 19.17 21.8892C19.17 23.4365 17.9953 23.5676 17.9493 23.5721L17.9479 23.5722L19.5052 25.1435H17.5219L16.3626 23.9424V25.1435H15.0218V20.1643ZM21.9965 19.3252L22.0068 19.3354C22.0068 19.3354 21.8873 19.4198 21.7607 19.5253C17.7668 16.572 15.3268 17.9642 14.5603 18.3369C11.0797 20.2791 12.0855 25.0469 12.106 25.1421L12.1063 25.1435H6.55133C6.55133 25.1435 6.76227 23.0622 8.23891 20.6011C9.71555 18.14 12.2329 16.2766 14.2791 16.0938C18.2245 15.6986 21.7803 19.1135 21.9965 19.3252ZM12.3173 23.7372L13.0767 24.0114C13.1118 24.2868 13.1616 24.5476 13.2139 24.7856L13.2454 24.9255L12.4016 24.6232C12.3665 24.4122 12.3313 24.1099 12.3173 23.7372ZM22.1193 21.3535H21.6482C21.2973 21.3535 21.2335 21.5371 21.2219 21.6038L21.2196 21.6213L21.2193 21.6261L21.2193 22.8442H22.5061L22.506 21.6257C22.5045 21.601 22.4801 21.3535 22.1193 21.3535ZM6.41069 21.459L7.21933 21.7543C7.12089 21.9819 6.99553 22.2742 6.90449 22.5039L6.86775 22.5981L6.05911 22.3027C6.12943 22.1129 6.27709 21.7613 6.41069 21.459ZM17.4381 21.4143H16.3626V22.5526H17.4311C17.4311 22.5526 17.7384 22.4339 17.7384 21.98C17.7384 21.5261 17.4381 21.4143 17.4381 21.4143ZM12.6337 21.1777L13.14 21.5785C13.0837 21.7979 13.041 22.0173 13.0117 22.2367L12.9923 22.4012L12.4227 21.9512C12.479 21.698 12.5423 21.4379 12.6337 21.1777ZM13.8783 19.2159L14.1947 19.694C14.0709 19.8234 13.9562 19.9528 13.854 20.0894L13.7798 20.1933L13.4423 19.687C13.5689 19.5253 13.7166 19.3635 13.8783 19.2159ZM8.84364 18.1752L9.34288 18.6111C9.21631 18.743 9.0937 18.8827 8.97801 19.0245L8.86473 19.1666L8.3233 18.7026C8.48503 18.5268 8.66081 18.351 8.84364 18.1752ZM15.812 18.1471L15.9667 18.6111C15.8035 18.6618 15.6404 18.7259 15.4773 18.7999L15.3549 18.8573L15.1932 18.3721C15.369 18.2947 15.5729 18.2174 15.812 18.1471ZM17.4574 17.9783C17.6374 17.9895 17.8219 18.0098 18.0109 18.0427L18.1535 18.0697L18.1254 18.5057C17.9398 18.4663 17.7541 18.4404 17.5685 18.428L17.4293 18.4213L17.4574 17.9783ZM11.6844 16.0376L12.0008 16.5227C11.8637 16.5913 11.7306 16.6678 11.5954 16.7492L11.4594 16.8321L11.1359 16.3399C11.3258 16.2274 11.5086 16.129 11.6844 16.0376ZM17.4714 15.7704C17.8898 15.8899 18.0699 15.9718 18.1419 16.0102L18.1535 16.0165L18.1254 16.4876C17.9754 16.4267 17.8254 16.3688 17.6733 16.3141L17.4433 16.2345L17.4714 15.7704ZM14.7854 15.3555L14.926 15.7844H14.8557C14.7027 15.7844 14.5498 15.7884 14.3969 15.7993L14.2439 15.8126L14.1103 15.3977C14.3424 15.3696 14.5674 15.3555 14.7854 15.3555Z" fill="#D30001"/>
</g>
</g>
<defs>
<filter id="filter0_d_1_68" x="2" y="2" width="36" height="36" filterUnits="userSpaceOnUse" color-interpolation-filters="sRGB">
<feFlood flood-opacity="0" result="BackgroundImageFix"/>
<feColorMatrix in="SourceAlpha" type="matrix" values="0 0 0 0 0 0 0 0 0 0 0 0 0 0 0 0 0 0 127 0" result="hardAlpha"/>
<feOffset/>
<feGaussianBlur stdDeviation="2"/>
<feComposite in2="hardAlpha" operator="out"/>
<feColorMatrix type="matrix" values="0 0 0 0 0 0 0 0 0 0 0 0 0 0 0 0 0 0 0.25 0"/>
<feBlend mode="normal" in2="BackgroundImageFix" result="effect1_dropShadow_1_68"/>
<feBlend mode="normal" in="SourceGraphic" in2="effect1_dropShadow_1_68" result="shape"/>
</filter>
<linearGradient id="paint0_linear_1_68" x1="20" y1="0" x2="20" y2="40" gradientUnits="userSpaceOnUse">
<stop stop-color="#540000"/>
<stop offset="1" stop-color="#350000"/>
</linearGradient>
<clipPath id="clip0_1_68">
<rect width="28" height="9.95556" fill="white" transform="translate(6 15.1875)"/>
</clipPath>
</defs>
</svg>
