<svg width="56" height="56" viewBox="0 0 56 56" fill="none" xmlns="http://www.w3.org/2000/svg">
<rect width="56" height="56" rx="8.4" fill="url(#paint0_linear_1_62)"/>
<rect x="1.05" y="1.05" width="53.9" height="53.9" rx="7.35" stroke="white" stroke-opacity="0.15" stroke-width="2.1"/>
<g filter="url(#filter0_d_1_62)">
<g clip-path="url(#clip0_1_62)">
<path d="M47.5922 28.2359V30.0641H44.3476V30.9079H45.9849C46.8616 30.9079 47.7949 31.5597 47.8507 32.6708L47.8533 32.7763V33.4795C47.8143 34.8164 46.7231 35.319 46.0438 35.3467L45.9849 35.3479H42.7002V33.5297L46.0251 33.5197V32.6357L45.4962 32.636L45.342 32.6364L45.3044 32.6365L45.2477 32.6369L45.2278 32.637L45.203 32.6374L45.1957 32.6377C45.1959 32.6379 45.2016 32.6381 45.211 32.6383L45.2342 32.6387C45.2477 32.6388 45.2639 32.639 45.2809 32.6392L45.3157 32.6395L45.2466 32.6393C45.1069 32.6386 44.8677 32.6374 44.4781 32.6357C43.6891 32.6357 42.664 32.0406 42.6026 30.878L42.5997 30.7673V30.1344C42.5997 28.9352 43.6122 28.2754 44.4066 28.2376L44.4781 28.2359H47.5922ZM39.2848 28.2359V33.5096H42.0271V35.3479H37.2557V28.2359H39.2848ZM36.4219 28.2359V35.3479H34.3827V28.2359H36.4219ZM31.6203 28.2359C32.0904 28.2359 33.42 28.5606 33.4862 29.992L33.4887 30.1043V35.3479H31.5902V34.0922H29.7519V35.3479H27.7931V30.1043C27.7931 29.5183 28.2394 28.3057 29.5473 28.2388L29.6615 28.2359H31.6203ZM20.8882 28.2347L24.7016 28.2349C24.7814 28.2437 26.8142 28.4884 26.8142 30.6989C26.8142 32.9093 25.1362 33.0965 25.0704 33.103L25.0684 33.1032L27.2931 35.3479H24.4598L22.8037 33.6319V35.3479H20.8882V28.2347ZM30.8521 27.0359L30.8669 27.0506C30.8669 27.0506 30.6962 27.1711 30.5153 27.3218C24.8097 23.1028 21.324 25.0918 20.2291 25.6242C15.2567 28.3987 16.6936 35.2099 16.7229 35.3458L16.7233 35.3479H8.78761C8.78761 35.3479 9.08896 32.3745 11.1984 28.8587C13.3079 25.3429 16.9041 22.6809 19.8273 22.4197C25.4636 21.8551 30.5433 26.7336 30.8521 27.0359ZM17.0247 33.3389L18.1095 33.7306C18.1598 34.1241 18.2309 34.4966 18.3056 34.8365L18.3506 35.0365L17.1452 34.6046C17.095 34.3032 17.0447 33.8713 17.0247 33.3389ZM31.0276 29.9335H30.3546C29.8533 29.9335 29.7621 30.1958 29.7456 30.2912L29.7423 30.3162L29.7419 30.323L29.7419 32.0631H31.5801L31.58 30.3225C31.5778 30.2871 31.543 29.9335 31.0276 29.9335ZM8.5867 30.0842L9.7419 30.5061C9.60127 30.8313 9.42219 31.2488 9.29213 31.5769L9.23964 31.7115L8.08445 31.2896C8.1849 31.0184 8.39584 30.5162 8.5867 30.0842ZM24.3401 30.0205H22.8037V31.6466H24.3301C24.3301 31.6466 24.7691 31.477 24.7691 30.8286C24.7691 30.1801 24.3401 30.0205 24.3401 30.0205ZM17.4767 29.6824L18.2 30.255C18.1196 30.5684 18.0585 30.8818 18.0167 31.1952L17.989 31.4303L17.1753 30.7874C17.2557 30.4258 17.3461 30.0541 17.4767 29.6824ZM19.2547 26.8798L19.7067 27.5629C19.5299 27.7477 19.366 27.9325 19.2201 28.1277L19.1141 28.2761L18.6319 27.5528C18.8127 27.3218 19.0237 27.0908 19.2547 26.8798ZM12.0623 25.3931L12.7755 26.0159C12.5947 26.2043 12.4196 26.4039 12.2543 26.6064L12.0925 26.8095L11.319 26.1465C11.55 25.8954 11.8012 25.6442 12.0623 25.3931ZM22.0171 25.3529L22.2381 26.0159C22.0051 26.0882 21.772 26.1799 21.539 26.2856L21.3642 26.3675L21.1331 25.6744C21.3843 25.5639 21.6756 25.4534 22.0171 25.3529ZM24.3677 25.1119C24.6248 25.1279 24.8884 25.1569 25.1584 25.2038L25.3622 25.2424L25.322 25.8652C25.0568 25.809 24.7916 25.772 24.5264 25.7543L24.3275 25.7447L24.3677 25.1119ZM16.1206 22.3394L16.5726 23.0325C16.3768 23.1304 16.1865 23.2397 15.9935 23.356L15.7991 23.4745L15.3371 22.7713C15.6083 22.6106 15.8695 22.47 16.1206 22.3394ZM24.3878 21.9577C24.9855 22.1284 25.2427 22.2454 25.3456 22.3002L25.3622 22.3092L25.322 22.9823C25.1077 22.8952 24.8934 22.8126 24.6761 22.7345L24.3476 22.6206L24.3878 21.9577ZM20.5505 21.365L20.7514 21.9778H20.651C20.4325 21.9778 20.214 21.9834 19.9955 21.9989L19.777 22.0179L19.5862 21.4253C19.9177 21.3851 20.2391 21.365 20.5505 21.365Z" fill="#D30001"/>
</g>
</g>
<defs>
<filter id="filter0_d_1_62" x="2.28571" y="2.28571" width="51.4286" height="51.4286" filterUnits="userSpaceOnUse" color-interpolation-filters="sRGB">
<feFlood flood-opacity="0" result="BackgroundImageFix"/>
<feColorMatrix in="SourceAlpha" type="matrix" values="0 0 0 0 0 0 0 0 0 0 0 0 0 0 0 0 0 0 127 0" result="hardAlpha"/>
<feOffset/>
<feGaussianBlur stdDeviation="2.85714"/>
<feComposite in2="hardAlpha" operator="out"/>
<feColorMatrix type="matrix" values="0 0 0 0 0 0 0 0 0 0 0 0 0 0 0 0 0 0 0.25 0"/>
<feBlend mode="normal" in2="BackgroundImageFix" result="effect1_dropShadow_1_62"/>
<feBlend mode="normal" in="SourceGraphic" in2="effect1_dropShadow_1_62" result="shape"/>
</filter>
<linearGradient id="paint0_linear_1_62" x1="28" y1="0" x2="28" y2="56" gradientUnits="userSpaceOnUse">
<stop stop-color="#540000"/>
<stop offset="1" stop-color="#350000"/>
</linearGradient>
<clipPath id="clip0_1_62">
<rect width="40" height="14.2222" fill="white" transform="translate(8 21.125)"/>
</clipPath>
</defs>
</svg>
