<svg width="185" height="56" viewBox="0 0 185 56" fill="none" xmlns="http://www.w3.org/2000/svg">
<rect width="185" height="56" rx="8" fill="url(#paint0_linear_1_50)"/>
<rect x="1.05" y="1.05" width="182.9" height="53.9" rx="6.95" stroke="white" stroke-opacity="0.15" stroke-width="2.1"/>
<g filter="url(#filter0_d_1_50)">
<g clip-path="url(#clip0_1_50)">
<path d="M51.5922 28.2359V30.0641H48.3476V30.9079H49.9849C50.8616 30.9079 51.7949 31.5597 51.8507 32.6708L51.8533 32.7763V33.4795C51.8143 34.8164 50.723 35.319 50.0438 35.3467L49.9849 35.3479H46.7002V33.5297L50.0251 33.5197V32.6357L49.4962 32.636L49.342 32.6364L49.3044 32.6365L49.2477 32.6369L49.2278 32.637L49.203 32.6374L49.1957 32.6377C49.1959 32.6379 49.2016 32.6381 49.211 32.6383L49.2342 32.6387C49.2477 32.6388 49.2639 32.639 49.2809 32.6392L49.3157 32.6395L49.2466 32.6393C49.1069 32.6386 48.8677 32.6374 48.4781 32.6357C47.6891 32.6357 46.664 32.0406 46.6026 30.878L46.5997 30.7673V30.1344C46.5997 28.9352 47.6122 28.2754 48.4066 28.2376L48.4781 28.2359H51.5922ZM43.2848 28.2359V33.5096H46.0271V35.3479H41.2557V28.2359H43.2848ZM40.4219 28.2359V35.3479H38.3827V28.2359H40.4219ZM35.6203 28.2359C36.0904 28.2359 37.42 28.5606 37.4861 29.992L37.4887 30.1043V35.3479H35.5902V34.0922H33.7519V35.3479H31.7931V30.1043C31.7931 29.5183 32.2394 28.3057 33.5473 28.2388L33.6615 28.2359H35.6203ZM24.8882 28.2347L28.7016 28.2349C28.7814 28.2437 30.8142 28.4884 30.8142 30.6989C30.8142 32.9093 29.1362 33.0965 29.0704 33.103L29.0684 33.1032L31.2931 35.3479H28.4598L26.8037 33.6319V35.3479H24.8882V28.2347ZM34.8521 27.0359L34.8669 27.0506C34.8669 27.0506 34.6961 27.1711 34.5153 27.3218C28.8097 23.1028 25.324 25.0918 24.2291 25.6242C19.2567 28.3987 20.6936 35.2099 20.7229 35.3458L20.7233 35.3479H12.7876C12.7876 35.3479 13.089 32.3745 15.1984 28.8587C17.3079 25.3429 20.9041 22.6809 23.8273 22.4197C29.4635 21.8551 34.5433 26.7336 34.8521 27.0359ZM21.0247 33.3389L22.1095 33.7306C22.1598 34.1241 22.2309 34.4966 22.3056 34.8365L22.3506 35.0365L21.1452 34.6046C21.095 34.3032 21.0447 33.8713 21.0247 33.3389ZM35.0276 29.9335H34.3546C33.8533 29.9335 33.7621 30.1958 33.7455 30.2912L33.7423 30.3162L33.7419 30.323L33.7419 32.0631H35.5801L35.58 30.3225C35.5778 30.2871 35.543 29.9335 35.0276 29.9335ZM12.5867 30.0842L13.7419 30.5061C13.6013 30.8313 13.4222 31.2488 13.2921 31.5769L13.2396 31.7115L12.0844 31.2896C12.1849 31.0184 12.3958 30.5162 12.5867 30.0842ZM28.3401 30.0205H26.8037V31.6466H28.3301C28.3301 31.6466 28.7691 31.477 28.7691 30.8286C28.7691 30.1801 28.3401 30.0205 28.3401 30.0205ZM21.4767 29.6824L22.1999 30.255C22.1196 30.5684 22.0585 30.8818 22.0167 31.1952L21.989 31.4303L21.1753 30.7874C21.2557 30.4258 21.3461 30.0541 21.4767 29.6824ZM23.2547 26.8798L23.7067 27.5629C23.5299 27.7477 23.366 27.9325 23.22 28.1277L23.1141 28.2761L22.6319 27.5528C22.8127 27.3218 23.0236 27.0908 23.2547 26.8798ZM16.0623 25.3931L16.7755 26.0159C16.5947 26.2043 16.4196 26.4039 16.2543 26.6064L16.0925 26.8095L15.319 26.1465C15.55 25.8954 15.8012 25.6442 16.0623 25.3931ZM26.0171 25.3529L26.2381 26.0159C26.0051 26.0882 25.772 26.1799 25.539 26.2856L25.3642 26.3675L25.1331 25.6744C25.3843 25.5639 25.6756 25.4534 26.0171 25.3529ZM28.3677 25.1119C28.6248 25.1279 28.8884 25.1569 29.1584 25.2038L29.3622 25.2424L29.322 25.8652C29.0568 25.809 28.7916 25.772 28.5264 25.7543L28.3275 25.7447L28.3677 25.1119ZM20.1206 22.3394L20.5726 23.0325C20.3767 23.1304 20.1865 23.2397 19.9935 23.356L19.7991 23.4745L19.3371 22.7713C19.6083 22.6106 19.8695 22.47 20.1206 22.3394ZM28.3878 21.9577C28.9855 22.1284 29.2427 22.2454 29.3456 22.3002L29.3622 22.3092L29.322 22.9823C29.1077 22.8952 28.8934 22.8126 28.6761 22.7345L28.3476 22.6206L28.3878 21.9577ZM24.5505 21.365L24.7514 21.9778H24.651C24.4325 21.9778 24.214 21.9834 23.9955 21.9989L23.777 22.0179L23.5862 21.4253C23.9177 21.3851 24.2391 21.365 24.5505 21.365Z" fill="#D30001"/>
</g>
</g>
<g filter="url(#filter1_d_1_50)">
<path d="M61.2784 24.5V12.8636H65.5398C66.3655 12.8636 67.0492 13 67.5909 13.2727C68.1326 13.5417 68.5379 13.9072 68.8068 14.3693C69.0757 14.8276 69.2102 15.3447 69.2102 15.9204C69.2102 16.4053 69.1212 16.8144 68.9432 17.1477C68.7651 17.4773 68.5265 17.7424 68.2273 17.9432C67.9318 18.1401 67.606 18.2841 67.25 18.375V18.4886C67.6363 18.5076 68.0132 18.6326 68.3807 18.8636C68.7519 19.0909 69.0587 19.4148 69.3011 19.8352C69.5435 20.2557 69.6648 20.767 69.6648 21.3693C69.6648 21.964 69.5246 22.4981 69.2443 22.9716C68.9678 23.4413 68.5398 23.8144 67.9602 24.0909C67.3807 24.3636 66.6401 24.5 65.7386 24.5H61.2784ZM63.0341 22.9943H65.5682C66.4091 22.9943 67.0113 22.8314 67.375 22.5057C67.7386 22.1799 67.9204 21.7727 67.9204 21.2841C67.9204 20.9167 67.8276 20.5795 67.642 20.2727C67.4564 19.9659 67.1913 19.7216 66.8466 19.5398C66.5057 19.3579 66.1004 19.267 65.6307 19.267H63.0341V22.9943ZM63.0341 17.8977H65.3863C65.7803 17.8977 66.1345 17.822 66.4488 17.6704C66.767 17.5189 67.0189 17.3068 67.2045 17.0341C67.3939 16.7576 67.4886 16.4318 67.4886 16.0568C67.4886 15.5758 67.3201 15.1723 66.9829 14.8466C66.6458 14.5208 66.1288 14.3579 65.4318 14.3579H63.0341V17.8977ZM77.1392 20.8807V15.7727H78.8437V24.5H77.1733V22.9886H77.0824C76.8816 23.4545 76.5596 23.8428 76.1165 24.1534C75.6771 24.4602 75.1297 24.6136 74.4744 24.6136C73.9138 24.6136 73.4176 24.4905 72.9858 24.2443C72.5577 23.9943 72.2206 23.625 71.9744 23.1364C71.732 22.6477 71.6108 22.0436 71.6108 21.3239V15.7727H73.3096V21.1193C73.3096 21.714 73.4744 22.1875 73.804 22.5398C74.1335 22.892 74.5615 23.0682 75.088 23.0682C75.4062 23.0682 75.7225 22.9886 76.0369 22.8295C76.3551 22.6704 76.6184 22.4299 76.8267 22.1079C77.0388 21.786 77.143 21.3769 77.1392 20.8807ZM81.1264 24.5V15.7727H82.8253V24.5H81.1264ZM81.9844 14.4261C81.6889 14.4261 81.4351 14.3276 81.223 14.1307C81.0147 13.9299 80.9105 13.6913 80.9105 13.4148C80.9105 13.1345 81.0147 12.8958 81.223 12.6989C81.4351 12.4981 81.6889 12.3977 81.9844 12.3977C82.2798 12.3977 82.5317 12.4981 82.74 12.6989C82.9522 12.8958 83.0582 13.1345 83.0582 13.4148C83.0582 13.6913 82.9522 13.9299 82.74 14.1307C82.5317 14.3276 82.2798 14.4261 81.9844 14.4261ZM86.8096 12.8636V24.5H85.1108V12.8636H86.8096ZM93.169 15.7727V17.1364H88.402V15.7727H93.169ZM89.6804 13.6818H91.3792V21.9375C91.3792 22.267 91.4285 22.5151 91.527 22.6818C91.6254 22.8447 91.7523 22.9564 91.9076 23.017C92.0667 23.0739 92.2391 23.1023 92.4247 23.1023C92.5611 23.1023 92.6804 23.0928 92.7826 23.0739C92.8849 23.0549 92.9645 23.0398 93.0213 23.0284L93.3281 24.4318C93.2296 24.4697 93.0895 24.5076 92.9076 24.5454C92.7258 24.5871 92.4986 24.6098 92.2258 24.6136C91.7789 24.6212 91.3622 24.5417 90.9758 24.375C90.5895 24.2083 90.277 23.9508 90.0383 23.6023C89.7997 23.2538 89.6804 22.8163 89.6804 22.2898V13.6818ZM101.175 24.5L98.6065 15.7727H100.362L102.072 22.1818H102.158L103.874 15.7727H105.629L107.334 22.1534H107.419L109.118 15.7727H110.874L108.311 24.5H106.578L104.805 18.1989H104.675L102.902 24.5H101.175ZM112.486 24.5V15.7727H114.185V24.5H112.486ZM113.344 14.4261C113.048 14.4261 112.794 14.3276 112.582 14.1307C112.374 13.9299 112.27 13.6913 112.27 13.4148C112.27 13.1345 112.374 12.8958 112.582 12.6989C112.794 12.4981 113.048 12.3977 113.344 12.3977C113.639 12.3977 113.891 12.4981 114.099 12.6989C114.312 12.8958 114.418 13.1345 114.418 13.4148C114.418 13.6913 114.312 13.9299 114.099 14.1307C113.891 14.3276 113.639 14.4261 113.344 14.4261ZM120.544 15.7727V17.1364H115.777V15.7727H120.544ZM117.055 13.6818H118.754V21.9375C118.754 22.267 118.803 22.5151 118.902 22.6818C119 22.8447 119.127 22.9564 119.283 23.017C119.442 23.0739 119.614 23.1023 119.8 23.1023C119.936 23.1023 120.055 23.0928 120.158 23.0739C120.26 23.0549 120.339 23.0398 120.396 23.0284L120.703 24.4318C120.605 24.4697 120.464 24.5076 120.283 24.5454C120.101 24.5871 119.874 24.6098 119.601 24.6136C119.154 24.6212 118.737 24.5417 118.351 24.375C117.964 24.2083 117.652 23.9508 117.413 23.6023C117.175 23.2538 117.055 22.8163 117.055 22.2898V13.6818ZM124.31 19.3182V24.5H122.611V12.8636H124.287V17.1932H124.395C124.599 16.7235 124.912 16.3504 125.332 16.0739C125.753 15.7973 126.302 15.6591 126.98 15.6591C127.579 15.6591 128.101 15.7822 128.548 16.0284C128.999 16.2746 129.348 16.642 129.594 17.1307C129.844 17.6155 129.969 18.2216 129.969 18.9489V24.5H128.27V19.1534C128.27 18.5133 128.105 18.017 127.776 17.6648C127.446 17.3087 126.988 17.1307 126.401 17.1307C125.999 17.1307 125.639 17.2159 125.321 17.3864C125.007 17.5568 124.758 17.8068 124.577 18.1364C124.399 18.4621 124.31 18.8561 124.31 19.3182Z" fill="#E8E8E8"/>
<path d="M60.9357 43.5V31.1364H66.043C66.9686 31.1364 67.7675 31.3034 68.4396 31.6374C69.1157 31.9674 69.6369 32.4423 70.0032 33.0621C70.3694 33.6779 70.5525 34.4084 70.5525 35.2535C70.5525 36.1108 70.3654 36.8392 69.9911 37.4389C69.6168 38.0346 69.0856 38.4893 68.3974 38.8033C67.7091 39.1132 66.8942 39.2681 65.9524 39.2681H62.7226V36.9137H65.397C65.8478 36.9137 66.2241 36.8553 66.5259 36.7386C66.8318 36.6179 67.0632 36.4368 67.2202 36.1953C67.3771 35.9498 67.4556 35.6359 67.4556 35.2535C67.4556 34.8712 67.3771 34.5553 67.2202 34.3057C67.0632 34.0522 66.8318 33.863 66.5259 33.7383C66.22 33.6095 65.8437 33.5451 65.397 33.5451H63.924V43.5H60.9357ZM67.8963 37.8494L70.9751 43.5H67.7152L64.6967 37.8494H67.8963ZM78.1742 39.4975V34.2273H81.1202V43.5H78.307V41.7734H78.2104C78.0051 42.3409 77.655 42.7917 77.16 43.1257C76.669 43.4557 76.0753 43.6207 75.3791 43.6207C74.7472 43.6207 74.1918 43.4758 73.7129 43.1861C73.2339 42.8963 72.8617 42.4918 72.596 41.9726C72.3304 41.4494 72.1956 40.8377 72.1916 40.1374V34.2273H75.1436V39.5579C75.1476 40.061 75.2805 40.4574 75.5421 40.7471C75.8037 41.0369 76.1598 41.1818 76.6106 41.1818C76.9044 41.1818 77.168 41.1174 77.4014 40.9886C77.6389 40.8558 77.826 40.6646 77.9629 40.4151C78.1037 40.1616 78.1742 39.8557 78.1742 39.4975ZM82.9992 43.5V31.1364H85.9512V35.815H86.0116C86.1323 35.5333 86.3034 35.2616 86.5247 35C86.7501 34.7384 87.0359 34.5251 87.382 34.3601C87.7321 34.191 88.1507 34.1065 88.6377 34.1065C89.2816 34.1065 89.8833 34.2756 90.4427 34.6136C91.0062 34.9517 91.4609 35.4729 91.8071 36.1772C92.1532 36.8815 92.3262 37.779 92.3262 38.8697C92.3262 39.9201 92.1592 40.7995 91.8252 41.5078C91.4952 42.2161 91.0484 42.7474 90.485 43.1016C89.9256 43.4557 89.3037 43.6328 88.6196 43.6328C88.1527 43.6328 87.7482 43.5563 87.4061 43.4034C87.064 43.2505 86.7763 43.0492 86.5429 42.7997C86.3135 42.5502 86.1364 42.2825 86.0116 41.9968H85.9211V43.5H82.9992ZM85.8909 38.8636C85.8909 39.3627 85.9573 39.7973 86.0901 40.1676C86.2269 40.5379 86.4221 40.8256 86.6757 41.0309C86.9332 41.2321 87.2411 41.3327 87.5993 41.3327C87.9615 41.3327 88.2694 41.2321 88.523 41.0309C88.7765 40.8256 88.9677 40.5379 89.0965 40.1676C89.2293 39.7973 89.2957 39.3627 89.2957 38.8636C89.2957 38.3646 89.2293 37.9319 89.0965 37.5657C88.9677 37.1994 88.7765 36.9157 88.523 36.7145C88.2734 36.5132 87.9656 36.4126 87.5993 36.4126C87.2371 36.4126 86.9292 36.5112 86.6757 36.7084C86.4221 36.9056 86.2269 37.1874 86.0901 37.5536C85.9573 37.9199 85.8909 38.3565 85.8909 38.8636ZM95.3794 46.9773C95.0252 46.9773 94.6912 46.9491 94.3773 46.8927C94.0634 46.8404 93.7937 46.77 93.5683 46.6815L94.2203 44.5383C94.5101 44.6349 94.7717 44.6913 95.0051 44.7074C95.2426 44.7235 95.4458 44.6852 95.6149 44.5927C95.7879 44.5041 95.9207 44.3452 96.0133 44.1158L96.128 43.8381L92.8318 34.2273H95.9227L97.6312 40.8437H97.7278L99.4604 34.2273H102.569L99.074 44.3874C98.905 44.8945 98.6655 45.3413 98.3556 45.7276C98.0497 46.118 97.6533 46.4239 97.1663 46.6452C96.6834 46.8666 96.0877 46.9773 95.3794 46.9773ZM111.682 43.6751C110.708 43.6751 109.871 43.4758 109.171 43.0774C108.475 42.6749 107.937 42.1155 107.559 41.3991C107.185 40.6787 106.997 39.8436 106.997 38.8938C106.997 37.94 107.185 37.1049 107.559 36.3885C107.937 35.6681 108.475 35.1087 109.171 34.7102C109.871 34.3078 110.708 34.1065 111.682 34.1065C112.656 34.1065 113.491 34.3078 114.187 34.7102C114.888 35.1087 115.425 35.6681 115.799 36.3885C116.178 37.1049 116.367 37.94 116.367 38.8938C116.367 39.8436 116.178 40.6787 115.799 41.3991C115.425 42.1155 114.888 42.6749 114.187 43.0774C113.491 43.4758 112.656 43.6751 111.682 43.6751ZM111.7 41.4474C112.054 41.4474 112.354 41.3388 112.6 41.1214C112.845 40.9041 113.032 40.6023 113.161 40.2159C113.294 39.8295 113.36 39.3828 113.36 38.8757C113.36 38.3605 113.294 37.9098 113.161 37.5234C113.032 37.1371 112.845 36.8352 112.6 36.6179C112.354 36.4006 112.054 36.2919 111.7 36.2919C111.334 36.2919 111.024 36.4006 110.771 36.6179C110.521 36.8352 110.33 37.1371 110.197 37.5234C110.068 37.9098 110.004 38.3605 110.004 38.8757C110.004 39.3828 110.068 39.8295 110.197 40.2159C110.33 40.6023 110.521 40.9041 110.771 41.1214C111.024 41.3388 111.334 41.4474 111.7 41.4474ZM120.831 38.2116V43.5H117.879V34.2273H120.686V35.9297H120.789C120.994 35.3622 121.344 34.9175 121.839 34.5955C122.334 34.2695 122.924 34.1065 123.608 34.1065C124.26 34.1065 124.826 34.2534 125.304 34.5472C125.787 34.837 126.162 35.2435 126.427 35.7667C126.697 36.2859 126.83 36.8936 126.826 37.5898V43.5H123.874V38.1694C123.878 37.6542 123.747 37.2518 123.481 36.962C123.22 36.6722 122.855 36.5273 122.389 36.5273C122.079 36.5273 121.805 36.5958 121.568 36.7326C121.334 36.8654 121.153 37.0566 121.024 37.3061C120.9 37.5556 120.835 37.8575 120.831 38.2116ZM132.306 43.5V31.1364H137.413C138.339 31.1364 139.138 31.3034 139.81 31.6374C140.486 31.9674 141.007 32.4423 141.373 33.0621C141.74 33.6779 141.923 34.4084 141.923 35.2535C141.923 36.1108 141.735 36.8392 141.361 37.4389C140.987 38.0346 140.456 38.4893 139.767 38.8033C139.079 39.1132 138.264 39.2681 137.322 39.2681H134.093V36.9137H136.767C137.218 36.9137 137.594 36.8553 137.896 36.7386C138.202 36.6179 138.433 36.4368 138.59 36.1953C138.747 35.9498 138.826 35.6359 138.826 35.2535C138.826 34.8712 138.747 34.5553 138.59 34.3057C138.433 34.0522 138.202 33.863 137.896 33.7383C137.59 33.6095 137.214 33.5451 136.767 33.5451H135.294V43.5H132.306ZM139.266 37.8494L142.345 43.5H139.085L136.067 37.8494H139.266ZM146.176 43.6569C145.584 43.6569 145.059 43.5583 144.6 43.3611C144.145 43.1599 143.785 42.8581 143.519 42.4556C143.258 42.0491 143.127 41.54 143.127 40.9283C143.127 40.4131 143.218 39.9784 143.399 39.6243C143.58 39.2701 143.829 38.9824 144.147 38.761C144.465 38.5396 144.831 38.3726 145.246 38.2599C145.661 38.1432 146.103 38.0647 146.574 38.0245C147.101 37.9762 147.526 37.9259 147.848 37.8736C148.17 37.8172 148.403 37.7387 148.548 37.6381C148.697 37.5335 148.772 37.3866 148.772 37.1974V37.1672C148.772 36.8574 148.665 36.6179 148.452 36.4489C148.238 36.2798 147.951 36.1953 147.588 36.1953C147.198 36.1953 146.884 36.2798 146.647 36.4489C146.409 36.6179 146.258 36.8513 146.194 37.1491L143.471 37.0525C143.552 36.4891 143.759 35.986 144.093 35.5433C144.431 35.0966 144.894 34.7464 145.481 34.4929C146.073 34.2353 146.783 34.1065 147.612 34.1065C148.204 34.1065 148.749 34.177 149.248 34.3178C149.748 34.4547 150.182 34.6559 150.552 34.9215C150.923 35.1831 151.208 35.5051 151.41 35.8874C151.615 36.2698 151.718 36.7064 151.718 37.1974V43.5H148.941V42.2081H148.868C148.703 42.522 148.492 42.7876 148.234 43.005C147.981 43.2223 147.681 43.3853 147.335 43.494C146.993 43.6026 146.606 43.6569 146.176 43.6569ZM147.087 41.7251C147.405 41.7251 147.691 41.6607 147.944 41.5319C148.202 41.4032 148.407 41.2261 148.56 41.0007C148.713 40.7713 148.79 40.5057 148.79 40.2038V39.3224C148.705 39.3667 148.602 39.4069 148.482 39.4432C148.365 39.4794 148.236 39.5136 148.095 39.5458C147.955 39.578 147.81 39.6062 147.661 39.6303C147.512 39.6545 147.369 39.6766 147.232 39.6967C146.954 39.741 146.717 39.8094 146.52 39.902C146.327 39.9945 146.178 40.1153 146.073 40.2642C145.972 40.4091 145.922 40.5821 145.922 40.7834C145.922 41.0892 146.031 41.3227 146.248 41.4837C146.469 41.6446 146.749 41.7251 147.087 41.7251ZM153.523 43.5V34.2273H156.475V43.5H153.523ZM155.002 33.1467C154.587 33.1467 154.231 33.0098 153.933 32.7361C153.635 32.4584 153.486 32.1244 153.486 31.734C153.486 31.3476 153.635 31.0176 153.933 30.744C154.231 30.4663 154.587 30.3274 155.002 30.3274C155.42 30.3274 155.776 30.4663 156.07 30.744C156.368 31.0176 156.517 31.3476 156.517 31.734C156.517 32.1244 156.368 32.4584 156.07 32.7361C155.776 33.0098 155.42 33.1467 155.002 33.1467ZM161.306 31.1364V43.5H158.354V31.1364H161.306ZM171.28 37.0586L168.57 37.131C168.541 36.9378 168.465 36.7668 168.34 36.6179C168.215 36.465 168.052 36.3462 167.851 36.2617C167.654 36.1732 167.425 36.1289 167.163 36.1289C166.821 36.1289 166.529 36.1973 166.288 36.3342C166.05 36.471 165.934 36.6561 165.938 36.8895C165.934 37.0707 166.006 37.2276 166.155 37.3604C166.308 37.4932 166.579 37.5999 166.97 37.6804L168.757 38.0185C169.682 38.1955 170.371 38.4893 170.821 38.8998C171.276 39.3104 171.506 39.8537 171.51 40.5298C171.506 41.1657 171.316 41.7191 170.942 42.19C170.572 42.6609 170.065 43.0271 169.421 43.2887C168.777 43.5463 168.04 43.6751 167.211 43.6751C165.887 43.6751 164.843 43.4034 164.078 42.8601C163.318 42.3127 162.883 41.5802 162.774 40.6626L165.69 40.5902C165.754 40.9283 165.921 41.1858 166.191 41.3629C166.461 41.54 166.805 41.6285 167.223 41.6285C167.602 41.6285 167.91 41.5581 168.147 41.4172C168.385 41.2764 168.505 41.0892 168.509 40.8558C168.505 40.6465 168.413 40.4795 168.232 40.3547C168.05 40.226 167.767 40.1253 167.38 40.0529L165.762 39.745C164.833 39.576 164.141 39.2641 163.686 38.8093C163.231 38.3505 163.006 37.7669 163.01 37.0586C163.006 36.4388 163.171 35.9096 163.505 35.4709C163.839 35.0282 164.314 34.6901 164.929 34.4567C165.545 34.2232 166.272 34.1065 167.109 34.1065C168.364 34.1065 169.354 34.3701 170.079 34.8974C170.803 35.4206 171.204 36.141 171.28 37.0586Z" fill="#D30001"/>
</g>
<defs>
<filter id="filter0_d_1_50" x="6.28571" y="2.28571" width="51.4286" height="51.4286" filterUnits="userSpaceOnUse" color-interpolation-filters="sRGB">
<feFlood flood-opacity="0" result="BackgroundImageFix"/>
<feColorMatrix in="SourceAlpha" type="matrix" values="0 0 0 0 0 0 0 0 0 0 0 0 0 0 0 0 0 0 127 0" result="hardAlpha"/>
<feOffset/>
<feGaussianBlur stdDeviation="2.85714"/>
<feComposite in2="hardAlpha" operator="out"/>
<feColorMatrix type="matrix" values="0 0 0 0 0 0 0 0 0 0 0 0 0 0 0 0 0 0 0.25 0"/>
<feBlend mode="normal" in2="BackgroundImageFix" result="effect1_dropShadow_1_50"/>
<feBlend mode="normal" in="SourceGraphic" in2="effect1_dropShadow_1_50" result="shape"/>
</filter>
<filter id="filter1_d_1_50" x="54.4" y="3.9" width="124.2" height="48.6773" filterUnits="userSpaceOnUse" color-interpolation-filters="sRGB">
<feFlood flood-opacity="0" result="BackgroundImageFix"/>
<feColorMatrix in="SourceAlpha" type="matrix" values="0 0 0 0 0 0 0 0 0 0 0 0 0 0 0 0 0 0 127 0" result="hardAlpha"/>
<feOffset/>
<feGaussianBlur stdDeviation="2.8"/>
<feComposite in2="hardAlpha" operator="out"/>
<feColorMatrix type="matrix" values="0 0 0 0 0 0 0 0 0 0 0 0 0 0 0 0 0 0 0.25 0"/>
<feBlend mode="normal" in2="BackgroundImageFix" result="effect1_dropShadow_1_50"/>
<feBlend mode="normal" in="SourceGraphic" in2="effect1_dropShadow_1_50" result="shape"/>
</filter>
<linearGradient id="paint0_linear_1_50" x1="92.5" y1="0" x2="92.5" y2="56" gradientUnits="userSpaceOnUse">
<stop stop-color="#540000"/>
<stop offset="1" stop-color="#350000"/>
</linearGradient>
<clipPath id="clip0_1_50">
<rect width="40" height="14.2222" fill="white" transform="translate(12 21.125)"/>
</clipPath>
</defs>
</svg>
