<svg width="40" height="40" viewBox="0 0 40 40" fill="none" xmlns="http://www.w3.org/2000/svg">
<rect width="40" height="40" rx="8" fill="url(#paint0_linear_1_68)"/>
<rect x="1.05" y="1.05" width="37.9" height="37.9" rx="6.95" stroke="white" stroke-opacity="0.15" stroke-width="2.1"/>
<g filter="url(#filter0_d_1_68)">
<path d="M6.89885 7.3125C6.33937 7.3125 5.91977 7.82536 6.01301 8.33821L9.7895 31.4633C9.88274 32.0695 10.3956 32.4891 11.0017 32.4891H29.2781C29.6977 32.4891 30.0707 32.1628 30.1639 31.7431L33.987 8.38484C34.0803 7.82536 33.6607 7.35913 33.1012 7.35913L6.89885 7.3125ZM22.9373 24.0037H17.1094L15.5708 15.7514H24.3826L22.9373 24.0037Z" fill="#2684FF"/>
<path d="M32.7281 15.7514H24.3359L22.9372 24.0037H17.1092L10.2557 32.1628C10.2557 32.1628 10.582 32.4425 11.0482 32.4425H29.3246C29.7443 32.4425 30.1172 32.1161 30.2105 31.6964L32.7281 15.7514Z" fill="url(#paint1_linear_1_68)"/>
</g>
<defs>
<filter id="filter0_d_1_68" x="2" y="2" width="36" height="36" filterUnits="userSpaceOnUse" color-interpolation-filters="sRGB">
<feFlood flood-opacity="0" result="BackgroundImageFix"/>
<feColorMatrix in="SourceAlpha" type="matrix" values="0 0 0 0 0 0 0 0 0 0 0 0 0 0 0 0 0 0 127 0" result="hardAlpha"/>
<feOffset/>
<feGaussianBlur stdDeviation="2"/>
<feComposite in2="hardAlpha" operator="out"/>
<feColorMatrix type="matrix" values="0 0 0 0 0 0 0 0 0 0 0 0 0 0 0 0 0 0 0.25 0"/>
<feBlend mode="normal" in2="BackgroundImageFix" result="effect1_dropShadow_1_68"/>
<feBlend mode="normal" in="SourceGraphic" in2="effect1_dropShadow_1_68" result="shape"/>
</filter>
<linearGradient id="paint0_linear_1_68" x1="20" y1="0" x2="20" y2="40" gradientUnits="userSpaceOnUse">
<stop stop-color="#003C8B"/>
<stop offset="1" stop-color="#001531"/>
</linearGradient>
<linearGradient id="paint1_linear_1_68" x1="34.6913" y1="18.0768" x2="20.784" y2="28.9327" gradientUnits="userSpaceOnUse">
<stop offset="0.176" stop-color="#0052CC"/>
<stop offset="1" stop-color="#2684FF"/>
</linearGradient>
</defs>
</svg>
