<svg width="234" height="40" viewBox="0 0 234 40" fill="none" xmlns="http://www.w3.org/2000/svg">
<rect width="234.001" height="40.0014" rx="8" fill="url(#paint0_linear_1_56)"/>
<rect x="1.07143" y="1.07143" width="231.858" height="37.8585" rx="6.92857" stroke="white" stroke-opacity="0.15" stroke-width="2.14286"/>
<g filter="url(#filter0_d_1_56)">
<path d="M8.89885 7.3125C8.33937 7.3125 7.91977 7.82536 8.01301 8.33821L11.7895 31.4633C11.8827 32.0695 12.3956 32.4891 13.0017 32.4891H31.2781C31.6977 32.4891 32.0707 32.1628 32.1639 31.7431L35.987 8.38484C36.0803 7.82536 35.6607 7.35913 35.1012 7.35913L8.89885 7.3125ZM24.9373 24.0037H19.1094L17.5708 15.7514H26.3826L24.9373 24.0037Z" fill="#2684FF"/>
<path d="M34.7281 15.7514H26.3359L24.9372 24.0037H19.1092L12.2557 32.1628C12.2557 32.1628 12.582 32.4425 13.0482 32.4425H31.3246C31.7443 32.4425 32.1172 32.1161 32.2105 31.6964L34.7281 15.7514Z" fill="url(#paint1_linear_1_56)"/>
</g>
<g filter="url(#filter1_d_1_56)">
<path d="M44.4041 26.5007H42.424L46.8732 14.1371H49.0284L53.4776 26.5007H51.4975L48.0021 16.3828H47.9055L44.4041 26.5007ZM44.7361 21.6591H51.1594V23.2287H44.7361V21.6591ZM61.8886 17.228L58.526 26.5007H56.5942L53.2256 17.228H55.1634L57.5118 24.3636H57.6084L59.9507 17.228H61.8886ZM66.0178 26.706C65.4302 26.706 64.899 26.5973 64.4241 26.38C63.9492 26.1586 63.5729 25.8386 63.2952 25.4201C63.0215 25.0015 62.8846 24.4884 62.8846 23.8807C62.8846 23.3575 62.9853 22.9268 63.1865 22.5888C63.3877 22.2507 63.6594 21.9831 64.0015 21.7859C64.3436 21.5886 64.7259 21.4397 65.1485 21.3391C65.5711 21.2385 66.0017 21.162 66.4404 21.1097C66.9958 21.0453 67.4466 20.993 67.7927 20.9528C68.1388 20.9085 68.3903 20.8381 68.5473 20.7415C68.7042 20.6449 68.7827 20.4879 68.7827 20.2706V20.2283C68.7827 19.7011 68.6338 19.2926 68.336 19.0028C68.0422 18.7131 67.6035 18.5682 67.0199 18.5682C66.4122 18.5682 65.9333 18.703 65.5832 18.9726C65.237 19.2383 64.9976 19.5341 64.8648 19.8601L63.1684 19.4737C63.3696 18.9103 63.6634 18.4555 64.0498 18.1094C64.4402 17.7592 64.8889 17.5057 65.396 17.3487C65.9031 17.1877 66.4364 17.1072 66.9958 17.1072C67.3661 17.1072 67.7585 17.1515 68.173 17.24C68.5916 17.3246 68.9819 17.4815 69.3442 17.7109C69.7104 17.9403 70.0102 18.2683 70.2437 18.6949C70.4771 19.1175 70.5938 19.6669 70.5938 20.343V26.5007H68.831V25.2329H68.7586C68.6419 25.4664 68.4668 25.6958 68.2334 25.9212C67.9999 26.1465 67.7001 26.3337 67.3339 26.4826C66.9676 26.6315 66.5289 26.706 66.0178 26.706ZM66.4102 25.2571C66.9093 25.2571 67.3359 25.1585 67.69 24.9613C68.0482 24.7641 68.3199 24.5065 68.505 24.1886C68.6942 23.8666 68.7888 23.5225 68.7888 23.1562V21.9609C68.7244 22.0253 68.5996 22.0857 68.4145 22.142C68.2334 22.1944 68.0261 22.2406 67.7927 22.2809C67.5592 22.3171 67.3319 22.3513 67.1105 22.3835C66.8891 22.4117 66.704 22.4358 66.5551 22.456C66.205 22.5002 65.885 22.5747 65.5952 22.6793C65.3095 22.784 65.0801 22.9349 64.907 23.1321C64.738 23.3253 64.6535 23.5828 64.6535 23.9048C64.6535 24.3515 64.8185 24.6896 65.1485 24.919C65.4785 25.1444 65.8991 25.2571 66.4102 25.2571ZM72.998 26.5007V17.228H74.8031V26.5007H72.998ZM73.9096 15.7972C73.5957 15.7972 73.326 15.6926 73.1006 15.4833C72.8793 15.27 72.7686 15.0164 72.7686 14.7226C72.7686 14.4248 72.8793 14.1713 73.1006 13.962C73.326 13.7487 73.5957 13.642 73.9096 13.642C74.2235 13.642 74.4911 13.7487 74.7125 13.962C74.9379 14.1713 75.0506 14.4248 75.0506 14.7226C75.0506 15.0164 74.9379 15.27 74.7125 15.4833C74.4911 15.6926 74.2235 15.7972 73.9096 15.7972ZM79.0365 14.1371V26.5007H77.2314V14.1371H79.0365ZM84.1633 26.706C83.5757 26.706 83.0445 26.5973 82.5696 26.38C82.0947 26.1586 81.7184 25.8386 81.4407 25.4201C81.167 25.0015 81.0301 24.4884 81.0301 23.8807C81.0301 23.3575 81.1308 22.9268 81.332 22.5888C81.5332 22.2507 81.8049 21.9831 82.147 21.7859C82.4891 21.5886 82.8714 21.4397 83.294 21.3391C83.7166 21.2385 84.1472 21.162 84.5859 21.1097C85.1413 21.0453 85.5921 20.993 85.9382 20.9528C86.2843 20.9085 86.5358 20.8381 86.6928 20.7415C86.8497 20.6449 86.9282 20.4879 86.9282 20.2706V20.2283C86.9282 19.7011 86.7793 19.2926 86.4815 19.0028C86.1877 18.7131 85.749 18.5682 85.1654 18.5682C84.5577 18.5682 84.0788 18.703 83.7287 18.9726C83.3825 19.2383 83.1431 19.5341 83.0103 19.8601L81.3139 19.4737C81.5151 18.9103 81.8089 18.4555 82.1953 18.1094C82.5857 17.7592 83.0344 17.5057 83.5415 17.3487C84.0486 17.1877 84.5819 17.1072 85.1413 17.1072C85.5116 17.1072 85.904 17.1515 86.3185 17.24C86.7371 17.3246 87.1274 17.4815 87.4897 17.7109C87.8559 17.9403 88.1557 18.2683 88.3892 18.6949C88.6226 19.1175 88.7393 19.6669 88.7393 20.343V26.5007H86.9765V25.2329H86.9041C86.7874 25.4664 86.6123 25.6958 86.3789 25.9212C86.1454 26.1465 85.8456 26.3337 85.4794 26.4826C85.1131 26.6315 84.6744 26.706 84.1633 26.706ZM84.5557 25.2571C85.0548 25.2571 85.4814 25.1585 85.8355 24.9613C86.1937 24.7641 86.4654 24.5065 86.6505 24.1886C86.8397 23.8666 86.9343 23.5225 86.9343 23.1562V21.9609C86.8699 22.0253 86.7451 22.0857 86.56 22.142C86.3789 22.1944 86.1716 22.2406 85.9382 22.2809C85.7047 22.3171 85.4774 22.3513 85.256 22.3835C85.0346 22.4117 84.8495 22.4358 84.7006 22.456C84.3505 22.5002 84.0305 22.5747 83.7407 22.6793C83.455 22.784 83.2256 22.9349 83.0525 23.1321C82.8835 23.3253 82.799 23.5828 82.799 23.9048C82.799 24.3515 82.964 24.6896 83.294 24.919C83.624 25.1444 84.0446 25.2571 84.5557 25.2571ZM91.2884 26.5007V14.1371H93.0934V18.7312H93.2021C93.3067 18.538 93.4577 18.3146 93.6549 18.0611C93.8521 17.8075 94.1258 17.5862 94.4759 17.397C94.826 17.2038 95.2889 17.1072 95.8644 17.1072C96.613 17.1072 97.2811 17.2964 97.8687 17.6747C98.4563 18.053 98.9171 18.5984 99.2511 19.3107C99.5892 20.0231 99.7582 20.8803 99.7582 21.8824C99.7582 22.8846 99.5912 23.7438 99.2571 24.4602C98.9231 25.1726 98.4643 25.7219 97.8807 26.1083C97.2972 26.4906 96.6311 26.6818 95.8825 26.6818C95.3191 26.6818 94.8582 26.5872 94.5 26.3981C94.1459 26.2089 93.8682 25.9876 93.667 25.734C93.4657 25.4805 93.3108 25.2551 93.2021 25.0579H93.0512V26.5007H91.2884ZM93.0572 21.8643C93.0572 22.5163 93.1518 23.0878 93.341 23.5788C93.5301 24.0698 93.8038 24.4542 94.162 24.7319C94.5202 25.0056 94.9589 25.1424 95.478 25.1424C96.0173 25.1424 96.4681 24.9995 96.8303 24.7138C97.1925 24.424 97.4662 24.0316 97.6513 23.5366C97.8405 23.0415 97.9351 22.4841 97.9351 21.8643C97.9351 21.2526 97.8425 20.7032 97.6574 20.2163C97.4763 19.7293 97.2026 19.3449 96.8363 19.0632C96.4741 18.7815 96.0214 18.6406 95.478 18.6406C94.9548 18.6406 94.5121 18.7754 94.1499 19.0451C93.7917 19.3147 93.5201 19.691 93.3349 20.174C93.1498 20.6569 93.0572 21.2204 93.0572 21.8643ZM103.59 14.1371V26.5007H101.785V14.1371H103.59ZM110.015 26.6878C109.101 26.6878 108.315 26.4926 107.655 26.1023C106.999 25.7078 106.491 25.1545 106.133 24.4421C105.779 23.7257 105.602 22.8866 105.602 21.9247C105.602 20.9749 105.779 20.1378 106.133 19.4133C106.491 18.6889 106.99 18.1234 107.63 17.717C108.274 17.3105 109.027 17.1072 109.888 17.1072C110.411 17.1072 110.918 17.1938 111.409 17.3668C111.9 17.5399 112.341 17.8115 112.732 18.1818C113.122 18.5521 113.43 19.033 113.655 19.6246C113.881 20.2122 113.993 20.9266 113.993 21.7677V22.4077H106.622V21.0554H112.224C112.224 20.5805 112.128 20.1599 111.935 19.7937C111.742 19.4234 111.47 19.1316 111.12 18.9183C110.774 18.705 110.367 18.5984 109.9 18.5984C109.393 18.5984 108.95 18.7231 108.572 18.9726C108.198 19.2181 107.908 19.5401 107.703 19.9386C107.502 20.333 107.401 20.7616 107.401 21.2244V22.2809C107.401 22.9007 107.51 23.4279 107.727 23.8626C107.948 24.2972 108.256 24.6292 108.651 24.8587C109.045 25.084 109.506 25.1967 110.033 25.1967C110.375 25.1967 110.687 25.1484 110.969 25.0518C111.251 24.9512 111.494 24.8023 111.699 24.6051C111.905 24.4079 112.061 24.1644 112.17 23.8746L113.879 24.1825C113.742 24.6856 113.496 25.1263 113.142 25.5046C112.792 25.8789 112.351 26.1707 111.82 26.38C111.293 26.5852 110.691 26.6878 110.015 26.6878ZM124.401 26.6878C123.532 26.6878 122.773 26.4886 122.125 26.0902C121.477 25.6917 120.974 25.1343 120.616 24.418C120.258 23.7016 120.079 22.8645 120.079 21.9066C120.079 20.9447 120.258 20.1036 120.616 19.3832C120.974 18.6627 121.477 18.1033 122.125 17.7049C122.773 17.3065 123.532 17.1072 124.401 17.1072C125.27 17.1072 126.029 17.3065 126.677 17.7049C127.325 18.1033 127.828 18.6627 128.186 19.3832C128.544 20.1036 128.723 20.9447 128.723 21.9066C128.723 22.8645 128.544 23.7016 128.186 24.418C127.828 25.1343 127.325 25.6917 126.677 26.0902C126.029 26.4886 125.27 26.6878 124.401 26.6878ZM124.407 25.1726C124.97 25.1726 125.437 25.0237 125.808 24.7258C126.178 24.428 126.452 24.0316 126.629 23.5366C126.81 23.0415 126.9 22.4962 126.9 21.9006C126.9 21.3089 126.81 20.7656 126.629 20.2706C126.452 19.7715 126.178 19.3711 125.808 19.0692C125.437 18.7674 124.97 18.6165 124.407 18.6165C123.84 18.6165 123.369 18.7674 122.994 19.0692C122.624 19.3711 122.348 19.7715 122.167 20.2706C121.99 20.7656 121.902 21.3089 121.902 21.9006C121.902 22.4962 121.99 23.0415 122.167 23.5366C122.348 24.0316 122.624 24.428 122.994 24.7258C123.369 25.0237 123.84 25.1726 124.407 25.1726ZM132.543 20.995V26.5007H130.738V17.228H132.471V18.7372H132.586C132.799 18.2462 133.133 17.8518 133.588 17.554C134.046 17.2561 134.624 17.1072 135.32 17.1072C135.952 17.1072 136.506 17.24 136.98 17.5057C137.455 17.7673 137.824 18.1577 138.085 18.6768C138.347 19.196 138.478 19.8379 138.478 20.6026V26.5007H136.673V20.8199C136.673 20.1478 136.497 19.6226 136.147 19.2443C135.797 18.862 135.316 18.6708 134.704 18.6708C134.286 18.6708 133.914 18.7614 133.588 18.9425C133.266 19.1236 133.01 19.3892 132.821 19.7393C132.636 20.0855 132.543 20.504 132.543 20.995Z" fill="#E8E8E8"/>
<path d="M144.937 26.0007V13.6371H150.093C151.018 13.6371 151.793 13.7679 152.417 14.0295C153.045 14.2911 153.516 14.6573 153.829 15.1282C154.147 15.5991 154.306 16.1444 154.306 16.7642C154.306 17.2351 154.208 17.6556 154.011 18.0259C153.813 18.3922 153.542 18.696 153.196 18.9375C152.85 19.179 152.449 19.348 151.994 19.4446V19.5653C152.493 19.5895 152.954 19.7243 153.377 19.9698C153.803 20.2153 154.145 20.5574 154.403 20.9961C154.661 21.4307 154.789 21.9459 154.789 22.5415C154.789 23.2056 154.62 23.7992 154.282 24.3224C153.944 24.8416 153.455 25.2521 152.815 25.554C152.175 25.8518 151.399 26.0007 150.485 26.0007H144.937ZM147.925 23.592H149.773C150.421 23.592 150.898 23.4692 151.203 23.2237C151.513 22.9782 151.668 22.6361 151.668 22.1974C151.668 21.8795 151.594 21.6058 151.445 21.3764C151.296 21.143 151.085 20.9639 150.811 20.8391C150.537 20.7103 150.209 20.6459 149.827 20.6459H147.925V23.592ZM147.925 18.7202H149.579C149.905 18.7202 150.195 18.6658 150.449 18.5572C150.702 18.4485 150.9 18.2915 151.04 18.0863C151.185 17.881 151.258 17.6335 151.258 17.3437C151.258 16.9292 151.111 16.6032 150.817 16.3658C150.523 16.1283 150.127 16.0096 149.628 16.0096H147.925V18.7202ZM156.226 26.0007V16.728H159.178V26.0007H156.226ZM157.705 15.6474C157.291 15.6474 156.934 15.5105 156.637 15.2369C156.339 14.9592 156.19 14.6251 156.19 14.2347C156.19 13.8484 156.339 13.5183 156.637 13.2447C156.934 12.967 157.291 12.8281 157.705 12.8281C158.124 12.8281 158.48 12.967 158.774 13.2447C159.072 13.5183 159.22 13.8484 159.22 14.2347C159.22 14.6251 159.072 14.9592 158.774 15.2369C158.48 15.5105 158.124 15.6474 157.705 15.6474ZM166.291 16.728V18.9013H160.441V16.728H166.291ZM161.667 14.5064H164.619V23.0849C164.619 23.266 164.647 23.4129 164.704 23.5256C164.764 23.6342 164.85 23.7127 164.963 23.761C165.076 23.8053 165.211 23.8274 165.368 23.8274C165.48 23.8274 165.599 23.8173 165.724 23.7972C165.853 23.7731 165.949 23.7529 166.014 23.7368L166.46 25.8679C166.319 25.9081 166.12 25.9584 165.863 26.0188C165.609 26.0792 165.305 26.1174 164.951 26.1335C164.259 26.1657 163.665 26.0852 163.17 25.892C162.679 25.6948 162.303 25.389 162.041 24.9744C161.784 24.5599 161.659 24.0387 161.667 23.4109V14.5064ZM167.997 26.0007V13.6371H170.949V18.3157H171.009C171.13 18.034 171.301 17.7623 171.522 17.5007C171.748 17.2391 172.033 17.0258 172.379 16.8608C172.73 16.6918 173.148 16.6072 173.635 16.6072C174.279 16.6072 174.881 16.7763 175.44 17.1143C176.004 17.4524 176.458 17.9736 176.805 18.6779C177.151 19.3822 177.324 20.2797 177.324 21.3704C177.324 22.4208 177.157 23.3002 176.823 24.0085C176.493 24.7168 176.046 25.2481 175.482 25.6023C174.923 25.9564 174.301 26.1335 173.617 26.1335C173.15 26.1335 172.746 26.057 172.404 25.9041C172.062 25.7512 171.774 25.5499 171.54 25.3004C171.311 25.0509 171.134 24.7832 171.009 24.4975H170.919V26.0007H167.997ZM170.888 21.3643C170.888 21.8634 170.955 22.298 171.088 22.6683C171.224 23.0386 171.42 23.3263 171.673 23.5316C171.931 23.7328 172.239 23.8334 172.597 23.8334C172.959 23.8334 173.267 23.7328 173.52 23.5316C173.774 23.3263 173.965 23.0386 174.094 22.6683C174.227 22.298 174.293 21.8634 174.293 21.3643C174.293 20.8653 174.227 20.4326 174.094 20.0664C173.965 19.7002 173.774 19.4164 173.52 19.2152C173.271 19.014 172.963 18.9133 172.597 18.9133C172.235 18.9133 171.927 19.0119 171.673 19.2092C171.42 19.4064 171.224 19.6881 171.088 20.0543C170.955 20.4206 170.888 20.8572 170.888 21.3643ZM184.853 21.9982V16.728H187.799V26.0007H184.986V24.2741H184.89C184.684 24.8416 184.334 25.2924 183.839 25.6264C183.348 25.9564 182.754 26.1214 182.058 26.1214C181.426 26.1214 180.871 25.9765 180.392 25.6868C179.913 25.397 179.541 24.9925 179.275 24.4734C179.01 23.9502 178.875 23.3384 178.871 22.6381V16.728H181.823V22.0586C181.827 22.5617 181.96 22.9581 182.221 23.2479C182.483 23.5376 182.839 23.6825 183.29 23.6825C183.584 23.6825 183.847 23.6181 184.081 23.4893C184.318 23.3565 184.505 23.1654 184.642 22.9158C184.783 22.6623 184.853 22.3564 184.853 21.9982ZM194.007 26.1758C193.029 26.1758 192.19 25.9745 191.489 25.5721C190.793 25.1696 190.258 24.6102 189.884 23.8938C189.509 23.1734 189.322 22.3403 189.322 21.3945C189.322 20.4447 189.509 19.6116 189.884 18.8952C190.262 18.1748 190.799 17.6134 191.495 17.2109C192.196 16.8085 193.031 16.6072 194.001 16.6072C194.858 16.6072 195.605 16.7622 196.24 17.0721C196.88 17.382 197.379 17.8207 197.738 18.3881C198.1 18.9516 198.291 19.6136 198.311 20.3743H195.552C195.496 19.8994 195.335 19.5271 195.069 19.2574C194.808 18.9878 194.466 18.853 194.043 18.853C193.701 18.853 193.401 18.9496 193.143 19.1427C192.886 19.3319 192.685 19.6136 192.54 19.9879C192.399 20.3582 192.329 20.817 192.329 21.3643C192.329 21.9117 192.399 22.3745 192.54 22.7528C192.685 23.1271 192.886 23.4109 193.143 23.604C193.401 23.7932 193.701 23.8878 194.043 23.8878C194.317 23.8878 194.558 23.8294 194.767 23.7127C194.981 23.596 195.156 23.4249 195.293 23.1996C195.429 22.9702 195.516 22.6925 195.552 22.3665H198.311C198.283 23.1311 198.092 23.7992 197.738 24.3707C197.387 24.9422 196.894 25.3869 196.259 25.7049C195.627 26.0188 194.876 26.1758 194.007 26.1758ZM202.484 23.5678L202.496 20.0483H202.907L205.515 16.728H208.859L204.983 21.4851H204.205L202.484 23.5678ZM199.822 26.0007V13.6371H202.774V26.0007H199.822ZM205.581 26.0007L203.154 22.1491L205.098 20.0543L208.992 26.0007H205.581ZM213.868 26.1758C212.898 26.1758 212.061 25.9846 211.357 25.6023C210.657 25.2159 210.117 24.6665 209.739 23.9542C209.365 23.2378 209.178 22.3866 209.178 21.4006C209.178 20.4427 209.367 19.6056 209.745 18.8892C210.123 18.1688 210.657 17.6094 211.345 17.2109C212.033 16.8085 212.844 16.6072 213.778 16.6072C214.438 16.6072 215.041 16.7099 215.589 16.9151C216.136 17.1204 216.609 17.4242 217.007 17.8267C217.406 18.2292 217.716 18.7262 217.937 19.3178C218.159 19.9054 218.269 20.5795 218.269 21.3402V22.0767H210.21V20.3622H215.522C215.518 20.0483 215.444 19.7686 215.299 19.5231C215.154 19.2776 214.955 19.0864 214.701 18.9496C214.452 18.8087 214.164 18.7383 213.838 18.7383C213.508 18.7383 213.212 18.8127 212.951 18.9616C212.689 19.1065 212.482 19.3057 212.329 19.5593C212.176 19.8088 212.095 20.0926 212.087 20.4105V22.1552C212.087 22.5335 212.162 22.8655 212.311 23.1513C212.46 23.433 212.671 23.6523 212.945 23.8093C213.218 23.9663 213.544 24.0447 213.923 24.0447C214.184 24.0447 214.422 24.0085 214.635 23.9361C214.848 23.8636 215.031 23.757 215.184 23.6161C215.337 23.4752 215.452 23.3022 215.528 23.0969L218.239 23.1754C218.126 23.7831 217.879 24.3124 217.496 24.7631C217.118 25.2099 216.621 25.558 216.005 25.8075C215.39 26.053 214.677 26.1758 213.868 26.1758ZM225.011 16.728V18.9013H219.161V16.728H225.011ZM220.387 14.5064H223.339V23.0849C223.339 23.266 223.367 23.4129 223.423 23.5256C223.484 23.6342 223.57 23.7127 223.683 23.761C223.796 23.8053 223.93 23.8274 224.087 23.8274C224.2 23.8274 224.319 23.8173 224.443 23.7972C224.572 23.7731 224.669 23.7529 224.733 23.7368L225.18 25.8679C225.039 25.9081 224.84 25.9584 224.582 26.0188C224.329 26.0792 224.025 26.1174 223.671 26.1335C222.979 26.1657 222.385 26.0852 221.89 25.892C221.399 25.6948 221.023 25.389 220.761 24.9744C220.503 24.5599 220.379 24.0387 220.387 23.4109V14.5064Z" fill="#2684FF"/>
</g>
<defs>
<filter id="filter0_d_1_56" x="2.39972" y="0.39972" width="39.202" height="39.202" filterUnits="userSpaceOnUse" color-interpolation-filters="sRGB">
<feFlood flood-opacity="0" result="BackgroundImageFix"/>
<feColorMatrix in="SourceAlpha" type="matrix" values="0 0 0 0 0 0 0 0 0 0 0 0 0 0 0 0 0 0 127 0" result="hardAlpha"/>
<feOffset/>
<feGaussianBlur stdDeviation="2.80014"/>
<feComposite in2="hardAlpha" operator="out"/>
<feColorMatrix type="matrix" values="0 0 0 0 0 0 0 0 0 0 0 0 0 0 0 0 0 0 0.25 0"/>
<feBlend mode="normal" in2="BackgroundImageFix" result="effect1_dropShadow_1_56"/>
<feBlend mode="normal" in="SourceGraphic" in2="effect1_dropShadow_1_56" result="shape"/>
</filter>
<filter id="filter1_d_1_56" x="36.2871" y="3.78642" width="195.429" height="32.4286" filterUnits="userSpaceOnUse" color-interpolation-filters="sRGB">
<feFlood flood-opacity="0" result="BackgroundImageFix"/>
<feColorMatrix in="SourceAlpha" type="matrix" values="0 0 0 0 0 0 0 0 0 0 0 0 0 0 0 0 0 0 127 0" result="hardAlpha"/>
<feOffset/>
<feGaussianBlur stdDeviation="2.85714"/>
<feComposite in2="hardAlpha" operator="out"/>
<feColorMatrix type="matrix" values="0 0 0 0 0 0 0 0 0 0 0 0 0 0 0 0 0 0 0.25 0"/>
<feBlend mode="normal" in2="BackgroundImageFix" result="effect1_dropShadow_1_56"/>
<feBlend mode="normal" in="SourceGraphic" in2="effect1_dropShadow_1_56" result="shape"/>
</filter>
<linearGradient id="paint0_linear_1_56" x1="117.001" y1="0" x2="117.001" y2="40.0014" gradientUnits="userSpaceOnUse">
<stop stop-color="#003C8B"/>
<stop offset="1" stop-color="#001531"/>
</linearGradient>
<linearGradient id="paint1_linear_1_56" x1="36.6913" y1="18.0768" x2="22.784" y2="28.9327" gradientUnits="userSpaceOnUse">
<stop offset="0.176" stop-color="#0052CC"/>
<stop offset="1" stop-color="#2684FF"/>
</linearGradient>
</defs>
</svg>
