<svg width="164" height="56" viewBox="0 0 164 56" fill="none" xmlns="http://www.w3.org/2000/svg">
<rect width="164" height="56" rx="8" fill="url(#paint0_linear_1_50)"/>
<rect x="1.05" y="1.05" width="161.9" height="53.9" rx="6.95" stroke="white" stroke-opacity="0.15" stroke-width="2.1"/>
<g filter="url(#filter0_d_1_50)">
<path d="M13.2841 9.875C12.4848 9.875 11.8854 10.6077 12.0186 11.3403L17.4136 44.3762C17.5468 45.2422 18.2794 45.8415 19.1453 45.8415H45.2544C45.8539 45.8415 46.3867 45.3754 46.5199 44.7759L51.9814 11.4069C52.1147 10.6077 51.5152 9.94162 50.716 9.94162L13.2841 9.875ZM36.1962 33.7195H27.8705L25.6725 21.9305H38.2609L36.1962 33.7195Z" fill="#2684FF"/>
<path d="M50.183 21.9305H38.1942L36.196 33.7195H27.8703L18.0795 45.3754C18.0795 45.3754 18.5457 45.775 19.2118 45.775H45.3209C45.9204 45.775 46.4532 45.3087 46.5864 44.7092L50.183 21.9305Z" fill="url(#paint1_linear_1_50)"/>
</g>
<g filter="url(#filter1_d_1_50)">
<path d="M62.2613 24.5H60.3977L64.5852 12.8636H66.6136L70.8011 24.5H68.9375L65.6477 14.9773H65.5568L62.2613 24.5ZM62.5738 19.9432H68.6193V21.4204H62.5738V19.9432ZM78.7173 15.7727L75.5525 24.5H73.7344L70.5639 15.7727H72.3878L74.598 22.4886H74.6889L76.8934 15.7727H78.7173ZM82.6037 24.6932C82.0506 24.6932 81.5506 24.5909 81.1037 24.3864C80.6567 24.178 80.3025 23.8769 80.0412 23.4829C79.7836 23.089 79.6548 22.6061 79.6548 22.0341C79.6548 21.5417 79.7495 21.1364 79.9389 20.8182C80.1283 20.5 80.384 20.2481 80.7059 20.0625C81.0279 19.8769 81.3878 19.7367 81.7855 19.642C82.1832 19.5473 82.5885 19.4754 83.0014 19.4261C83.5241 19.3655 83.9484 19.3163 84.2741 19.2784C84.5999 19.2367 84.8366 19.1704 84.9844 19.0795C85.1321 18.9886 85.2059 18.8409 85.2059 18.6364V18.5966C85.2059 18.1004 85.0658 17.7159 84.7855 17.4432C84.509 17.1704 84.0961 17.0341 83.5469 17.0341C82.9749 17.0341 82.5241 17.161 82.1946 17.4148C81.8688 17.6648 81.6434 17.9432 81.5184 18.25L79.9219 17.8864C80.1112 17.3561 80.3878 16.928 80.7514 16.6023C81.1188 16.2727 81.5412 16.0341 82.0184 15.8864C82.4957 15.7348 82.9976 15.6591 83.5241 15.6591C83.8726 15.6591 84.2419 15.7008 84.6321 15.7841C85.026 15.8636 85.3934 16.0114 85.7344 16.2273C86.079 16.4432 86.3612 16.7519 86.5809 17.1534C86.8006 17.5511 86.9105 18.0682 86.9105 18.7045V24.5H85.2514V23.3068H85.1832C85.0734 23.5265 84.9086 23.7424 84.6889 23.9545C84.4692 24.1667 84.187 24.3428 83.8423 24.4829C83.4976 24.6231 83.0847 24.6932 82.6037 24.6932ZM82.973 23.3295C83.4427 23.3295 83.8442 23.2367 84.1775 23.0511C84.5147 22.8655 84.7703 22.6231 84.9446 22.3239C85.1226 22.0208 85.2116 21.697 85.2116 21.3523V20.2273C85.151 20.2879 85.0336 20.3447 84.8594 20.3977C84.6889 20.447 84.4938 20.4905 84.2741 20.5284C84.0544 20.5625 83.8404 20.5947 83.6321 20.625C83.4237 20.6515 83.2495 20.6742 83.1094 20.6932C82.7798 20.7348 82.4787 20.8049 82.2059 20.9034C81.937 21.0019 81.7211 21.1439 81.5582 21.3295C81.3991 21.5114 81.3196 21.7538 81.3196 22.0568C81.3196 22.4773 81.4749 22.7954 81.7855 23.0114C82.0961 23.2235 82.4919 23.3295 82.973 23.3295ZM89.1733 24.5V15.7727H90.8721V24.5H89.1733ZM90.0312 14.4261C89.7358 14.4261 89.482 14.3276 89.2699 14.1307C89.0615 13.9299 88.9574 13.6913 88.9574 13.4148C88.9574 13.1345 89.0615 12.8958 89.2699 12.6989C89.482 12.4981 89.7358 12.3977 90.0312 12.3977C90.3267 12.3977 90.5786 12.4981 90.7869 12.6989C90.999 12.8958 91.1051 13.1345 91.1051 13.4148C91.1051 13.6913 90.999 13.9299 90.7869 14.1307C90.5786 14.3276 90.3267 14.4261 90.0312 14.4261ZM94.8565 12.8636V24.5H93.1576V12.8636H94.8565ZM99.6818 24.6932C99.1288 24.6932 98.6288 24.5909 98.1818 24.3864C97.7348 24.178 97.3807 23.8769 97.1193 23.4829C96.8617 23.089 96.7329 22.6061 96.7329 22.0341C96.7329 21.5417 96.8276 21.1364 97.017 20.8182C97.2064 20.5 97.4621 20.2481 97.7841 20.0625C98.106 19.8769 98.4659 19.7367 98.8636 19.642C99.2613 19.5473 99.6666 19.4754 100.08 19.4261C100.602 19.3655 101.026 19.3163 101.352 19.2784C101.678 19.2367 101.915 19.1704 102.062 19.0795C102.21 18.9886 102.284 18.8409 102.284 18.6364V18.5966C102.284 18.1004 102.144 17.7159 101.864 17.4432C101.587 17.1704 101.174 17.0341 100.625 17.0341C100.053 17.0341 99.6022 17.161 99.2727 17.4148C98.9469 17.6648 98.7216 17.9432 98.5966 18.25L97 17.8864C97.1894 17.3561 97.4659 16.928 97.8295 16.6023C98.1969 16.2727 98.6193 16.0341 99.0966 15.8864C99.5738 15.7348 100.076 15.6591 100.602 15.6591C100.951 15.6591 101.32 15.7008 101.71 15.7841C102.104 15.8636 102.472 16.0114 102.812 16.2273C103.157 16.4432 103.439 16.7519 103.659 17.1534C103.879 17.5511 103.989 18.0682 103.989 18.7045V24.5H102.33V23.3068H102.261C102.151 23.5265 101.987 23.7424 101.767 23.9545C101.547 24.1667 101.265 24.3428 100.92 24.4829C100.576 24.6231 100.163 24.6932 99.6818 24.6932ZM100.051 23.3295C100.521 23.3295 100.922 23.2367 101.256 23.0511C101.593 22.8655 101.848 22.6231 102.023 22.3239C102.201 22.0208 102.29 21.697 102.29 21.3523V20.2273C102.229 20.2879 102.112 20.3447 101.937 20.3977C101.767 20.447 101.572 20.4905 101.352 20.5284C101.133 20.5625 100.919 20.5947 100.71 20.625C100.502 20.6515 100.328 20.6742 100.187 20.6932C99.8579 20.7348 99.5568 20.8049 99.2841 20.9034C99.0151 21.0019 98.7992 21.1439 98.6363 21.3295C98.4772 21.5114 98.3977 21.7538 98.3977 22.0568C98.3977 22.4773 98.553 22.7954 98.8636 23.0114C99.1742 23.2235 99.57 23.3295 100.051 23.3295ZM106.388 24.5V12.8636H108.087V17.1875H108.189C108.287 17.0057 108.429 16.7954 108.615 16.5568C108.801 16.3182 109.058 16.1098 109.388 15.9318C109.717 15.75 110.153 15.6591 110.695 15.6591C111.399 15.6591 112.028 15.8371 112.581 16.1932C113.134 16.5492 113.568 17.0625 113.882 17.7329C114.2 18.4034 114.359 19.2102 114.359 20.1534C114.359 21.0966 114.202 21.9053 113.888 22.5795C113.573 23.25 113.142 23.767 112.592 24.1307C112.043 24.4905 111.416 24.6704 110.712 24.6704C110.181 24.6704 109.748 24.5814 109.41 24.4034C109.077 24.2254 108.816 24.017 108.626 23.7784C108.437 23.5398 108.291 23.3276 108.189 23.142H108.047V24.5H106.388ZM108.053 20.1364C108.053 20.75 108.142 21.2879 108.32 21.75C108.498 22.2121 108.755 22.5739 109.092 22.8352C109.429 23.0928 109.842 23.2216 110.331 23.2216C110.839 23.2216 111.263 23.0871 111.604 22.8182C111.945 22.5454 112.202 22.1761 112.376 21.7102C112.554 21.2443 112.643 20.7197 112.643 20.1364C112.643 19.5606 112.556 19.0436 112.382 18.5852C112.212 18.1269 111.954 17.7651 111.609 17.5C111.268 17.2348 110.842 17.1023 110.331 17.1023C109.839 17.1023 109.422 17.2292 109.081 17.4829C108.744 17.7367 108.488 18.0909 108.314 18.5454C108.14 19 108.053 19.5303 108.053 20.1364ZM117.966 12.8636V24.5H116.267V12.8636H117.966ZM124.013 24.6761C123.153 24.6761 122.412 24.4924 121.791 24.125C121.174 23.7538 120.696 23.2329 120.359 22.5625C120.026 21.8883 119.859 21.0985 119.859 20.1932C119.859 19.2992 120.026 18.5114 120.359 17.8295C120.696 17.1477 121.166 16.6155 121.768 16.2329C122.374 15.8504 123.083 15.6591 123.893 15.6591C124.386 15.6591 124.863 15.7405 125.325 15.9034C125.787 16.0663 126.202 16.322 126.57 16.6704C126.937 17.0189 127.227 17.4716 127.439 18.0284C127.651 18.5814 127.757 19.2538 127.757 20.0454V20.6477H120.82V19.375H126.092C126.092 18.928 126.001 18.5322 125.82 18.1875C125.638 17.839 125.382 17.5644 125.053 17.3636C124.727 17.1629 124.344 17.0625 123.905 17.0625C123.428 17.0625 123.011 17.1799 122.655 17.4148C122.303 17.6458 122.03 17.9489 121.837 18.3239C121.647 18.6951 121.553 19.0985 121.553 19.5341V20.5284C121.553 21.1117 121.655 21.6079 121.859 22.017C122.068 22.4261 122.357 22.7386 122.729 22.9545C123.1 23.1667 123.534 23.2727 124.03 23.2727C124.352 23.2727 124.645 23.2273 124.91 23.1364C125.176 23.0417 125.405 22.9015 125.598 22.7159C125.791 22.5303 125.939 22.3011 126.041 22.0284L127.649 22.3182C127.52 22.7917 127.289 23.2064 126.956 23.5625C126.626 23.9148 126.212 24.1894 125.712 24.3864C125.215 24.5795 124.649 24.6761 124.013 24.6761ZM137.553 24.6761C136.734 24.6761 136.02 24.4886 135.41 24.1136C134.801 23.7386 134.327 23.214 133.99 22.5398C133.653 21.8655 133.484 21.0776 133.484 20.1761C133.484 19.2708 133.653 18.4792 133.99 17.8011C134.327 17.1231 134.801 16.5966 135.41 16.2216C136.02 15.8466 136.734 15.6591 137.553 15.6591C138.371 15.6591 139.085 15.8466 139.695 16.2216C140.304 16.5966 140.778 17.1231 141.115 17.8011C141.452 18.4792 141.621 19.2708 141.621 20.1761C141.621 21.0776 141.452 21.8655 141.115 22.5398C140.778 23.214 140.304 23.7386 139.695 24.1136C139.085 24.4886 138.371 24.6761 137.553 24.6761ZM137.558 23.25C138.089 23.25 138.528 23.1098 138.876 22.8295C139.225 22.5492 139.482 22.1761 139.649 21.7102C139.82 21.2443 139.905 20.7311 139.905 20.1704C139.905 19.6136 139.82 19.1023 139.649 18.6364C139.482 18.1667 139.225 17.7898 138.876 17.5057C138.528 17.2216 138.089 17.0795 137.558 17.0795C137.024 17.0795 136.581 17.2216 136.229 17.5057C135.88 17.7898 135.621 18.1667 135.45 18.6364C135.284 19.1023 135.2 19.6136 135.2 20.1704C135.2 20.7311 135.284 21.2443 135.45 21.7102C135.621 22.1761 135.88 22.5492 136.229 22.8295C136.581 23.1098 137.024 23.25 137.558 23.25ZM145.216 19.3182V24.5H143.517V15.7727H145.148V17.1932H145.256C145.456 16.7311 145.771 16.3598 146.199 16.0795C146.631 15.7992 147.174 15.6591 147.83 15.6591C148.424 15.6591 148.945 15.7841 149.392 16.0341C149.839 16.2803 150.186 16.6477 150.432 17.1364C150.678 17.625 150.801 18.2292 150.801 18.9489V24.5H149.102V19.1534C149.102 18.5208 148.937 18.0265 148.608 17.6704C148.278 17.3106 147.826 17.1307 147.25 17.1307C146.856 17.1307 146.506 17.2159 146.199 17.3864C145.896 17.5568 145.655 17.8068 145.477 18.1364C145.303 18.4621 145.216 18.8561 145.216 19.3182Z" fill="#E8E8E8"/>
<path d="M60.9357 43.5V31.1364H66.0912C67.0169 31.1364 67.7916 31.2672 68.4155 31.5288C69.0433 31.7904 69.5142 32.1566 69.8281 32.6275C70.1461 33.0984 70.305 33.6437 70.305 34.2635C70.305 34.7344 70.2064 35.1549 70.0092 35.5252C69.812 35.8914 69.5403 36.1953 69.1942 36.4368C68.8481 36.6783 68.4477 36.8473 67.9929 36.9439V37.0646C68.4919 37.0888 68.9528 37.2236 69.3753 37.4691C69.8019 37.7146 70.144 38.0567 70.4016 38.4954C70.6592 38.93 70.788 39.4452 70.788 40.0408C70.788 40.7049 70.6189 41.2985 70.2809 41.8217C69.9428 42.3409 69.4538 42.7514 68.8139 43.0533C68.174 43.3511 67.3972 43.5 66.4836 43.5H60.9357ZM63.924 41.0913H65.7713C66.4193 41.0913 66.8962 40.9685 67.202 40.723C67.5119 40.4775 67.6669 40.1354 67.6669 39.6967C67.6669 39.3788 67.5924 39.1051 67.4435 38.8757C67.2946 38.6423 67.0833 38.4632 66.8096 38.3384C66.536 38.2096 66.208 38.1452 65.8256 38.1452H63.924V41.0913ZM63.924 36.2195H65.5781C65.9041 36.2195 66.1939 36.1651 66.4474 36.0565C66.701 35.9478 66.8982 35.7908 67.039 35.5856C67.1839 35.3803 67.2564 35.1328 67.2564 34.843C67.2564 34.4285 67.1095 34.1025 66.8157 33.865C66.5219 33.6276 66.1255 33.5089 65.6264 33.5089H63.924V36.2195ZM72.2248 43.5V34.2273H75.1768V43.5H72.2248ZM73.7038 33.1467C73.2893 33.1467 72.9331 33.0098 72.6353 32.7361C72.3375 32.4584 72.1885 32.1244 72.1885 31.734C72.1885 31.3476 72.3375 31.0176 72.6353 30.744C72.9331 30.4663 73.2893 30.3274 73.7038 30.3274C74.1224 30.3274 74.4786 30.4663 74.7724 30.744C75.0702 31.0176 75.2191 31.3476 75.2191 31.734C75.2191 32.1244 75.0702 32.4584 74.7724 32.7361C74.4786 33.0098 74.1224 33.1467 73.7038 33.1467ZM82.2898 34.2273V36.4006H76.4401V34.2273H82.2898ZM77.6656 32.0057H80.6176V40.5842C80.6176 40.7653 80.6458 40.9122 80.7021 41.0248C80.7625 41.1335 80.849 41.212 80.9617 41.2603C81.0744 41.3046 81.2092 41.3267 81.3662 41.3267C81.4789 41.3267 81.5976 41.3166 81.7224 41.2965C81.8512 41.2724 81.9477 41.2522 82.0121 41.2361L82.4589 43.3672C82.318 43.4074 82.1188 43.4577 81.8612 43.5181C81.6077 43.5785 81.3038 43.6167 80.9496 43.6328C80.2574 43.665 79.6638 43.5845 79.1687 43.3913C78.6777 43.1941 78.3014 42.8882 78.0398 42.4737C77.7823 42.0592 77.6575 41.538 77.6656 40.9101V32.0057ZM83.9953 43.5V31.1364H86.9473V35.815H87.0077C87.1284 35.5333 87.2995 35.2616 87.5208 35C87.7462 34.7384 88.032 34.5251 88.3781 34.3601C88.7282 34.191 89.1468 34.1065 89.6338 34.1065C90.2777 34.1065 90.8794 34.2756 91.4388 34.6136C92.0023 34.9517 92.457 35.4729 92.8032 36.1772C93.1493 36.8815 93.3223 37.779 93.3223 38.8697C93.3223 39.9201 93.1553 40.7995 92.8213 41.5078C92.4912 42.2161 92.0445 42.7474 91.4811 43.1016C90.9216 43.4557 90.2998 43.6328 89.6157 43.6328C89.1488 43.6328 88.7443 43.5563 88.4022 43.4034C88.0601 43.2505 87.7724 43.0492 87.539 42.7997C87.3095 42.5502 87.1325 42.2825 87.0077 41.9968H86.9171V43.5H83.9953ZM86.887 38.8636C86.887 39.3627 86.9534 39.7973 87.0862 40.1676C87.223 40.5379 87.4182 40.8256 87.6718 41.0309C87.9293 41.2321 88.2372 41.3327 88.5954 41.3327C88.9576 41.3327 89.2655 41.2321 89.5191 41.0309C89.7726 40.8256 89.9638 40.5379 90.0926 40.1676C90.2254 39.7973 90.2918 39.3627 90.2918 38.8636C90.2918 38.3646 90.2254 37.9319 90.0926 37.5657C89.9638 37.1994 89.7726 36.9157 89.5191 36.7145C89.2695 36.5132 88.9617 36.4126 88.5954 36.4126C88.2332 36.4126 87.9253 36.5112 87.6718 36.7084C87.4182 36.9056 87.223 37.1874 87.0862 37.5536C86.9534 37.9199 86.887 38.3565 86.887 38.8636ZM100.852 39.4975V34.2273H103.798V43.5H100.985V41.7734H100.888C100.683 42.3409 100.333 42.7917 99.8377 43.1257C99.3467 43.4557 98.7531 43.6207 98.0568 43.6207C97.4249 43.6207 96.8695 43.4758 96.3906 43.1861C95.9117 42.8963 95.5394 42.4918 95.2738 41.9726C95.0081 41.4494 94.8733 40.8377 94.8693 40.1374V34.2273H97.8214V39.5579C97.8254 40.061 97.9582 40.4574 98.2198 40.7471C98.4814 41.0369 98.8376 41.1818 99.2883 41.1818C99.5821 41.1818 99.8457 41.1174 100.079 40.9886C100.317 40.8558 100.504 40.6646 100.641 40.4151C100.781 40.1616 100.852 39.8557 100.852 39.4975ZM110.005 43.6751C109.027 43.6751 108.188 43.4738 107.488 43.0714C106.792 42.6689 106.256 42.1095 105.882 41.3931C105.508 40.6727 105.321 39.8396 105.321 38.8938C105.321 37.944 105.508 37.1109 105.882 36.3945C106.26 35.6741 106.798 35.1127 107.494 34.7102C108.194 34.3078 109.029 34.1065 109.999 34.1065C110.857 34.1065 111.603 34.2615 112.239 34.5714C112.879 34.8813 113.378 35.3199 113.736 35.8874C114.098 36.4509 114.29 37.1129 114.31 37.8736H111.551C111.494 37.3987 111.334 37.0264 111.068 36.7567C110.806 36.4871 110.464 36.3523 110.042 36.3523C109.7 36.3523 109.4 36.4489 109.142 36.642C108.885 36.8312 108.683 37.1129 108.538 37.4872C108.398 37.8575 108.327 38.3163 108.327 38.8636C108.327 39.411 108.398 39.8738 108.538 40.2521C108.683 40.6264 108.885 40.9101 109.142 41.1033C109.4 41.2925 109.7 41.3871 110.042 41.3871C110.315 41.3871 110.557 41.3287 110.766 41.212C110.979 41.0953 111.154 40.9242 111.291 40.6989C111.428 40.4694 111.515 40.1918 111.551 39.8658H114.31C114.282 40.6304 114.09 41.2985 113.736 41.87C113.386 42.4415 112.893 42.8862 112.257 43.2042C111.625 43.5181 110.875 43.6751 110.005 43.6751ZM118.483 41.0671L118.495 37.5476H118.905L121.513 34.2273H124.858L120.982 38.9844H120.203L118.483 41.0671ZM115.82 43.5V31.1364H118.773V43.5H115.82ZM121.58 43.5L119.153 39.6484L121.097 37.5536L124.991 43.5H121.58ZM129.867 43.6751C128.897 43.6751 128.06 43.4839 127.356 43.1016C126.655 42.7152 126.116 42.1658 125.738 41.4535C125.363 40.7371 125.176 39.8859 125.176 38.8998C125.176 37.942 125.365 37.1049 125.744 36.3885C126.122 35.6681 126.655 35.1087 127.343 34.7102C128.032 34.3078 128.843 34.1065 129.776 34.1065C130.436 34.1065 131.04 34.2092 131.587 34.4144C132.135 34.6197 132.608 34.9235 133.006 35.326C133.405 35.7284 133.714 36.2255 133.936 36.8171C134.157 37.4047 134.268 38.0788 134.268 38.8395V39.576H126.209V37.8615H131.521C131.517 37.5476 131.443 37.2679 131.298 37.0224C131.153 36.7769 130.954 36.5857 130.7 36.4489C130.45 36.308 130.163 36.2376 129.837 36.2376C129.507 36.2376 129.211 36.312 128.949 36.4609C128.688 36.6058 128.48 36.805 128.327 37.0586C128.175 37.3081 128.094 37.5918 128.086 37.9098V39.6545C128.086 40.0328 128.16 40.3648 128.309 40.6506C128.458 40.9323 128.67 41.1516 128.943 41.3086C129.217 41.4655 129.543 41.544 129.921 41.544C130.183 41.544 130.42 41.5078 130.634 41.4354C130.847 41.3629 131.03 41.2563 131.183 41.1154C131.336 40.9745 131.451 40.8015 131.527 40.5962L134.238 40.6747C134.125 41.2824 133.877 41.8117 133.495 42.2624C133.117 42.7092 132.62 43.0573 132.004 43.3068C131.388 43.5523 130.676 43.6751 129.867 43.6751ZM141.01 34.2273V36.4006H135.16V34.2273H141.01ZM136.385 32.0057H139.337V40.5842C139.337 40.7653 139.365 40.9122 139.422 41.0248C139.482 41.1335 139.569 41.212 139.681 41.2603C139.794 41.3046 139.929 41.3267 140.086 41.3267C140.199 41.3267 140.317 41.3166 140.442 41.2965C140.571 41.2724 140.667 41.2522 140.732 41.2361L141.179 43.3672C141.038 43.4074 140.839 43.4577 140.581 43.5181C140.327 43.5785 140.024 43.6167 139.669 43.6328C138.977 43.665 138.383 43.5845 137.888 43.3913C137.397 43.1941 137.021 42.8882 136.76 42.4737C136.502 42.0592 136.377 41.538 136.385 40.9101V32.0057Z" fill="#2684FF"/>
</g>
<defs>
<filter id="filter0_d_1_50" x="6.28571" y="2.28571" width="51.4286" height="51.4286" filterUnits="userSpaceOnUse" color-interpolation-filters="sRGB">
<feFlood flood-opacity="0" result="BackgroundImageFix"/>
<feColorMatrix in="SourceAlpha" type="matrix" values="0 0 0 0 0 0 0 0 0 0 0 0 0 0 0 0 0 0 127 0" result="hardAlpha"/>
<feOffset/>
<feGaussianBlur stdDeviation="2.85714"/>
<feComposite in2="hardAlpha" operator="out"/>
<feColorMatrix type="matrix" values="0 0 0 0 0 0 0 0 0 0 0 0 0 0 0 0 0 0 0.25 0"/>
<feBlend mode="normal" in2="BackgroundImageFix" result="effect1_dropShadow_1_50"/>
<feBlend mode="normal" in="SourceGraphic" in2="effect1_dropShadow_1_50" result="shape"/>
</filter>
<filter id="filter1_d_1_50" x="54.4" y="3.9" width="103.2" height="48.2" filterUnits="userSpaceOnUse" color-interpolation-filters="sRGB">
<feFlood flood-opacity="0" result="BackgroundImageFix"/>
<feColorMatrix in="SourceAlpha" type="matrix" values="0 0 0 0 0 0 0 0 0 0 0 0 0 0 0 0 0 0 127 0" result="hardAlpha"/>
<feOffset/>
<feGaussianBlur stdDeviation="2.8"/>
<feComposite in2="hardAlpha" operator="out"/>
<feColorMatrix type="matrix" values="0 0 0 0 0 0 0 0 0 0 0 0 0 0 0 0 0 0 0.25 0"/>
<feBlend mode="normal" in2="BackgroundImageFix" result="effect1_dropShadow_1_50"/>
<feBlend mode="normal" in="SourceGraphic" in2="effect1_dropShadow_1_50" result="shape"/>
</filter>
<linearGradient id="paint0_linear_1_50" x1="82" y1="0" x2="82" y2="56" gradientUnits="userSpaceOnUse">
<stop stop-color="#003C8B"/>
<stop offset="1" stop-color="#001531"/>
</linearGradient>
<linearGradient id="paint1_linear_1_50" x1="52.9875" y1="25.2525" x2="33.12" y2="40.761" gradientUnits="userSpaceOnUse">
<stop offset="0.176" stop-color="#0052CC"/>
<stop offset="1" stop-color="#2684FF"/>
</linearGradient>
</defs>
</svg>
