<svg width="40" height="40" viewBox="0 0 40 40" fill="none" xmlns="http://www.w3.org/2000/svg">
<g clip-path="url(#clip0_1_68)">
<rect width="40" height="40" rx="8" fill="url(#paint0_linear_1_68)"/>
<g filter="url(#filter0_d_1_68)">
<g clip-path="url(#clip1_1_68)">
<path d="M27 13.875C14.4 16.675 11.46 25.313 8.548 32.551L11.194 33.475L12.524 30.255C13.196 30.493 13.896 30.675 14.4 30.675C29.8 30.675 34 6.875 34 6.875C32.6 9.675 22.8 10.025 15.8 11.425C8.8 12.825 6 18.775 6 21.575C6 24.375 8.45 26.825 8.45 26.825C13 13.875 27 13.875 27 13.875Z" fill="white"/>
</g>
<g opacity="0.7">
<mask id="path-4-outside-1_1_68" maskUnits="userSpaceOnUse" x="14.9789" y="14.979" width="21" height="21" fill="black">
<rect fill="white" x="14.9789" y="14.979" width="21" height="21"/>
<path fill-rule="evenodd" clip-rule="evenodd" d="M19.9961 18.1882C19.7172 17.9092 19.265 17.9092 18.9861 18.1882L18.1886 18.9859C17.9097 19.2649 17.9097 19.7172 18.1886 19.9962L24.011 25.8201L18.1882 31.6419C17.9092 31.9209 17.9092 32.3731 18.1882 32.652L18.9858 33.4495C19.2648 33.7285 19.7171 33.7285 19.9961 33.4495L25.8185 27.6281L31.6387 33.4498C31.9176 33.7288 32.3698 33.7288 32.6487 33.4498L33.4462 32.6521C33.7251 32.3731 33.7251 31.9208 33.4462 31.6418L27.6264 25.8205L33.4491 19.9988C33.7281 19.7199 33.7281 19.2677 33.4491 18.9887L32.6514 18.1912C32.3724 17.9123 31.9201 17.9123 31.6412 18.1912L25.8189 24.0125L19.9961 18.1882Z"/>
</mask>
<path fill-rule="evenodd" clip-rule="evenodd" d="M19.9961 18.1882C19.7172 17.9092 19.265 17.9092 18.9861 18.1882L18.1886 18.9859C17.9097 19.2649 17.9097 19.7172 18.1886 19.9962L24.011 25.8201L18.1882 31.6419C17.9092 31.9209 17.9092 32.3731 18.1882 32.652L18.9858 33.4495C19.2648 33.7285 19.7171 33.7285 19.9961 33.4495L25.8185 27.6281L31.6387 33.4498C31.9176 33.7288 32.3698 33.7288 32.6487 33.4498L33.4462 32.6521C33.7251 32.3731 33.7251 31.9208 33.4462 31.6418L27.6264 25.8205L33.4491 19.9988C33.7281 19.7199 33.7281 19.2677 33.4491 18.9887L32.6514 18.1912C32.3724 17.9123 31.9201 17.9123 31.6412 18.1912L25.8189 24.0125L19.9961 18.1882Z" fill="url(#paint1_linear_1_68)"/>
<path d="M18.9861 18.1882L17.4706 16.6732L17.4706 16.6732L18.9861 18.1882ZM19.9961 18.1882L21.5115 16.6732L21.5115 16.6732L19.9961 18.1882ZM18.1886 18.9859L16.6732 17.4709L18.1886 18.9859ZM18.1886 19.9962L16.6732 21.5112L16.6732 21.5112L18.1886 19.9962ZM24.011 25.8201L25.5261 27.3355L27.0414 25.8204L25.5264 24.3051L24.011 25.8201ZM18.1882 31.6419L19.7033 33.1573L19.7033 33.1573L18.1882 31.6419ZM18.1882 32.652L19.7033 31.1367L19.7033 31.1367L18.1882 32.652ZM18.9858 33.4495L17.4707 34.9649L17.4707 34.9649L18.9858 33.4495ZM19.9961 33.4495L21.5112 34.9649L21.5112 34.9649L19.9961 33.4495ZM25.8185 27.6281L27.3339 26.1131L25.8188 24.5976L24.3034 26.1128L25.8185 27.6281ZM31.6387 33.4498L30.1232 34.9649L30.1232 34.9649L31.6387 33.4498ZM32.6487 33.4498L31.1333 31.9348L31.1333 31.9348L32.6487 33.4498ZM33.4462 32.6521L31.9308 31.1371L31.9308 31.1371L33.4462 32.6521ZM33.4462 31.6418L34.9616 30.1268L34.9616 30.1268L33.4462 31.6418ZM27.6264 25.8205L26.1113 24.3052L24.596 25.8202L26.111 27.3355L27.6264 25.8205ZM33.4491 19.9988L31.934 18.4835L31.934 18.4835L33.4491 19.9988ZM33.4491 18.9887L31.934 20.5041L31.934 20.5041L33.4491 18.9887ZM32.6514 18.1912L34.1665 16.6759L34.1665 16.6759L32.6514 18.1912ZM31.6412 18.1912L33.1563 19.7066L33.1563 19.7066L31.6412 18.1912ZM25.8189 24.0125L24.3035 25.5275L25.8186 27.043L27.334 25.5279L25.8189 24.0125ZM20.5015 19.7032C19.9435 20.2613 19.0386 20.2613 18.4807 19.7032L21.5115 16.6732C20.3957 15.5571 18.5864 15.5571 17.4706 16.6732L20.5015 19.7032ZM19.704 20.5009L20.5015 19.7032L17.4706 16.6732L16.6732 17.4709L19.704 20.5009ZM19.704 18.4812C20.2617 19.039 20.2617 19.9431 19.704 20.5009L16.6732 17.4709C15.5577 18.5866 15.5577 20.3954 16.6732 21.5112L19.704 18.4812ZM25.5264 24.3051L19.704 18.4812L16.6732 21.5112L22.4956 27.3351L25.5264 24.3051ZM19.7033 33.1573L25.5261 27.3355L22.4959 24.3048L16.6731 30.1266L19.7033 33.1573ZM19.7033 31.1367C20.2613 31.6946 20.2613 32.5994 19.7033 33.1573L16.6731 30.1266C15.5571 31.2424 15.5571 33.0516 16.6731 34.1674L19.7033 31.1367ZM20.5009 31.9342L19.7033 31.1367L16.6731 34.1674L17.4707 34.9649L20.5009 31.9342ZM18.481 31.9342C19.0388 31.3764 19.9431 31.3764 20.5009 31.9342L17.4707 34.9649C18.5865 36.0805 20.3954 36.0805 21.5112 34.9649L18.481 31.9342ZM24.3034 26.1128L18.481 31.9342L21.5112 34.9649L27.3336 29.1435L24.3034 26.1128ZM33.1541 31.9348L27.3339 26.1131L24.3031 29.1431L30.1232 34.9649L33.1541 31.9348ZM31.1333 31.9348C31.6912 31.3767 32.5961 31.3767 33.1541 31.9348L30.1232 34.9649C31.239 36.0809 33.0483 36.0809 34.1641 34.9648L31.1333 31.9348ZM31.9308 31.1371L31.1333 31.9348L34.1641 34.9649L34.9616 34.1671L31.9308 31.1371ZM31.9308 33.1569C31.3731 32.599 31.3731 31.6949 31.9308 31.1371L34.9616 34.1671C36.0771 33.0514 36.0771 31.2426 34.9616 30.1268L31.9308 33.1569ZM26.111 27.3355L31.9308 33.1569L34.9616 30.1268L29.1418 24.3055L26.111 27.3355ZM31.934 18.4835L26.1113 24.3052L29.1415 27.3359L34.9642 21.5142L31.934 18.4835ZM31.934 20.5041C31.3759 19.9462 31.3759 19.0414 31.934 18.4835L34.9642 21.5142C36.0802 20.3984 36.0802 18.5892 34.9642 17.4734L31.934 20.5041ZM31.1363 19.7066L31.934 20.5041L34.9642 17.4734L34.1665 16.6759L31.1363 19.7066ZM33.1563 19.7066C32.5984 20.2643 31.6942 20.2643 31.1363 19.7066L34.1665 16.6759C33.0507 15.5603 31.2419 15.5603 30.1261 16.6759L33.1563 19.7066ZM27.334 25.5279L33.1563 19.7066L30.1261 16.6759L24.3038 22.4972L27.334 25.5279ZM18.4807 19.7032L24.3035 25.5275L27.3343 22.4975L21.5115 16.6732L18.4807 19.7032Z" fill="black" mask="url(#path-4-outside-1_1_68)"/>
</g>
</g>
</g>
<rect x="1.05" y="1.05" width="37.9" height="37.9" rx="6.95" stroke="white" stroke-opacity="0.15" stroke-width="2.1"/>
<defs>
<filter id="filter0_d_1_68" x="2" y="2" width="37.8012" height="37.8019" filterUnits="userSpaceOnUse" color-interpolation-filters="sRGB">
<feFlood flood-opacity="0" result="BackgroundImageFix"/>
<feColorMatrix in="SourceAlpha" type="matrix" values="0 0 0 0 0 0 0 0 0 0 0 0 0 0 0 0 0 0 127 0" result="hardAlpha"/>
<feOffset/>
<feGaussianBlur stdDeviation="2"/>
<feComposite in2="hardAlpha" operator="out"/>
<feColorMatrix type="matrix" values="0 0 0 0 0 0 0 0 0 0 0 0 0 0 0 0 0 0 0.25 0"/>
<feBlend mode="normal" in2="BackgroundImageFix" result="effect1_dropShadow_1_68"/>
<feBlend mode="normal" in="SourceGraphic" in2="effect1_dropShadow_1_68" result="shape"/>
</filter>
<linearGradient id="paint0_linear_1_68" x1="20" y1="0" x2="20" y2="40" gradientUnits="userSpaceOnUse">
<stop stop-color="#2C1B1B"/>
<stop offset="1" stop-color="#1F1414"/>
</linearGradient>
<linearGradient id="paint1_linear_1_68" x1="25.8186" y1="17.979" x2="25.8186" y2="33.6591" gradientUnits="userSpaceOnUse">
<stop stop-color="#FF0000"/>
<stop offset="1" stop-color="#CC0000"/>
</linearGradient>
<clipPath id="clip0_1_68">
<rect width="40" height="40" rx="8" fill="white"/>
</clipPath>
<clipPath id="clip1_1_68">
<rect width="28" height="28" fill="white" transform="translate(6 6)"/>
</clipPath>
</defs>
</svg>
