<svg width="56" height="56" viewBox="0 0 56 56" fill="none" xmlns="http://www.w3.org/2000/svg">
<g clip-path="url(#clip0_1_62)">
<rect width="56" height="56" rx="8.4" fill="url(#paint0_linear_1_62)"/>
<g filter="url(#filter0_d_1_62)">
<g clip-path="url(#clip1_1_62)">
<path d="M38 19.25C20 23.25 15.8 35.59 11.64 45.93L15.42 47.25L17.32 42.65C18.28 42.99 19.28 43.25 20 43.25C42 43.25 48 9.25 48 9.25C46 13.25 32 13.75 22 15.75C12 17.75 8 26.25 8 30.25C8 34.25 11.5 37.75 11.5 37.75C18 19.25 38 19.25 38 19.25Z" fill="white"/>
</g>
<g opacity="0.7">
<mask id="path-4-outside-1_1_62" maskUnits="userSpaceOnUse" x="21.986" y="21.986" width="28" height="28" fill="black">
<rect fill="white" x="21.986" y="21.986" width="28" height="28"/>
<path fill-rule="evenodd" clip-rule="evenodd" d="M27.778 25.1952C27.4991 24.9162 27.0469 24.9162 26.768 25.1952L25.1958 26.7678C24.9169 27.0467 24.9169 27.4991 25.1958 27.778L33.73 36.3144L25.1952 44.8478C24.9162 45.1267 24.9162 45.5789 25.1952 45.8579L26.7677 47.4301C27.0466 47.709 27.4989 47.709 27.7779 47.4301L36.3121 38.8973L44.8431 47.4305C45.122 47.7095 45.5742 47.7095 45.8531 47.4305L47.4253 45.858C47.7042 45.579 47.7042 45.1267 47.4253 44.8477L38.8949 36.315L47.4295 27.7819C47.7084 27.5029 47.7084 27.0507 47.4295 26.7718L45.857 25.1996C45.578 24.9206 45.1257 24.9206 44.8467 25.1996L36.3127 33.7322L27.778 25.1952Z"/>
</mask>
<path fill-rule="evenodd" clip-rule="evenodd" d="M27.778 25.1952C27.4991 24.9162 27.0469 24.9162 26.768 25.1952L25.1958 26.7678C24.9169 27.0467 24.9169 27.4991 25.1958 27.778L33.73 36.3144L25.1952 44.8478C24.9162 45.1267 24.9162 45.5789 25.1952 45.8579L26.7677 47.4301C27.0466 47.709 27.4989 47.709 27.7779 47.4301L36.3121 38.8973L44.8431 47.4305C45.122 47.7095 45.5742 47.7095 45.8531 47.4305L47.4253 45.858C47.7042 45.579 47.7042 45.1267 47.4253 44.8477L38.8949 36.315L47.4295 27.7819C47.7084 27.5029 47.7084 27.0507 47.4295 26.7718L45.857 25.1996C45.578 24.9206 45.1257 24.9206 44.8467 25.1996L36.3127 33.7322L27.778 25.1952Z" fill="url(#paint1_linear_1_62)"/>
<path d="M26.768 25.1952L25.2525 23.6802L25.2525 23.6802L26.768 25.1952ZM27.778 25.1952L26.2626 26.7102L26.2626 26.7102L27.778 25.1952ZM25.1958 26.7678L23.6804 25.2527L23.6804 25.2527L25.1958 26.7678ZM25.1958 27.778L23.6804 29.2931L23.6804 29.2931L25.1958 27.778ZM33.73 36.3144L35.2451 37.8298L36.7604 36.3148L35.2454 34.7994L33.73 36.3144ZM25.1952 44.8478L23.6801 43.3324L23.6801 43.3324L25.1952 44.8478ZM25.1952 45.8579L23.6801 47.3732L23.6801 47.3732L25.1952 45.8579ZM26.7677 47.4301L25.2526 48.9454L25.2526 48.9454L26.7677 47.4301ZM27.7779 47.4301L26.2628 45.9147L26.2628 45.9147L27.7779 47.4301ZM36.3121 38.8973L37.8276 37.3823L36.3125 35.8668L34.797 37.3819L36.3121 38.8973ZM44.8431 47.4305L43.3277 48.9456L43.3277 48.9456L44.8431 47.4305ZM45.8531 47.4305L47.3686 48.9456L47.3686 48.9456L45.8531 47.4305ZM47.4253 45.858L48.9407 47.373L48.9407 47.373L47.4253 45.858ZM47.4253 44.8477L48.9407 43.3327L48.9407 43.3326L47.4253 44.8477ZM38.8949 36.315L37.3798 34.7997L35.8645 36.3147L37.3794 37.83L38.8949 36.315ZM47.4295 27.7819L45.9144 26.2665L45.9144 26.2665L47.4295 27.7819ZM47.4295 26.7718L45.9144 28.2871L45.9144 28.2871L47.4295 26.7718ZM45.857 25.1996L47.3721 23.6842L47.3721 23.6842L45.857 25.1996ZM44.8467 25.1996L43.3316 23.6842L43.3316 23.6842L44.8467 25.1996ZM36.3127 33.7322L34.7973 35.2472L36.3124 36.7627L37.8278 35.2475L36.3127 33.7322ZM28.2834 26.7102C27.7254 27.2684 26.8205 27.2684 26.2626 26.7102L29.2934 23.6802C28.1776 22.5641 26.3683 22.5641 25.2525 23.6802L28.2834 26.7102ZM26.7113 28.2828L28.2834 26.7102L25.2525 23.6802L23.6804 25.2527L26.7113 28.2828ZM26.7113 26.263C27.2689 26.8208 27.2689 27.725 26.7113 28.2828L23.6804 25.2527C22.5649 26.3685 22.5649 28.1773 23.6804 29.2931L26.7113 26.263ZM35.2454 34.7994L26.7113 26.263L23.6804 29.2931L32.2145 37.8295L35.2454 34.7994ZM26.7103 46.3631L35.2451 37.8298L32.2149 34.7991L23.6801 43.3324L26.7103 46.3631ZM26.7103 44.3425C27.2683 44.9004 27.2683 45.8052 26.7103 46.3631L23.6801 43.3324C22.5641 44.4482 22.5641 46.2574 23.6801 47.3732L26.7103 44.3425ZM28.2828 45.9147L26.7103 44.3425L23.6801 47.3732L25.2526 48.9454L28.2828 45.9147ZM26.2628 45.9147C26.8207 45.357 27.7249 45.357 28.2828 45.9147L25.2526 48.9454C26.3683 50.061 28.1772 50.061 29.293 48.9454L26.2628 45.9147ZM34.797 37.3819L26.2628 45.9147L29.293 48.9454L37.8272 40.4126L34.797 37.3819ZM46.3585 45.9155L37.8276 37.3823L34.7967 40.4123L43.3277 48.9456L46.3585 45.9155ZM44.3377 45.9155C44.8957 45.3574 45.8006 45.3574 46.3585 45.9155L43.3277 48.9456C44.4435 50.0616 46.2528 50.0616 47.3686 48.9456L44.3377 45.9155ZM45.9098 44.3429L44.3377 45.9155L47.3686 48.9456L48.9407 47.373L45.9098 44.3429ZM45.9098 46.3627C45.3522 45.8049 45.3522 44.9007 45.9098 44.3429L48.9407 47.373C50.0562 46.2572 50.0562 44.4484 48.9407 43.3327L45.9098 46.3627ZM37.3794 37.83L45.9098 46.3627L48.9407 43.3326L40.4103 34.8L37.3794 37.83ZM45.9144 26.2665L37.3798 34.7997L40.41 37.8304L48.9446 29.2972L45.9144 26.2665ZM45.9144 28.2871C45.3563 27.7292 45.3563 26.8244 45.9144 26.2665L48.9446 29.2972C50.0605 28.1814 50.0605 26.3722 48.9446 25.2564L45.9144 28.2871ZM44.3419 26.7149L45.9144 28.2871L48.9446 25.2564L47.3721 23.6842L44.3419 26.7149ZM46.3618 26.7149C45.804 27.2727 44.8997 27.2727 44.3419 26.7149L47.3721 23.6842C46.2563 22.5686 44.4474 22.5686 43.3316 23.6842L46.3618 26.7149ZM37.8278 35.2475L46.3618 26.7149L43.3316 23.6842L34.7976 32.2168L37.8278 35.2475ZM26.2626 26.7102L34.7973 35.2472L37.8281 32.2171L29.2934 23.6802L26.2626 26.7102Z" fill="black" mask="url(#path-4-outside-1_1_62)"/>
</g>
</g>
</g>
<rect x="1.05" y="1.05" width="53.9" height="53.9" rx="7.35" stroke="white" stroke-opacity="0.15" stroke-width="2.1"/>
<defs>
<filter id="filter0_d_1_62" x="2.28571" y="2.28571" width="53.2101" height="53.2112" filterUnits="userSpaceOnUse" color-interpolation-filters="sRGB">
<feFlood flood-opacity="0" result="BackgroundImageFix"/>
<feColorMatrix in="SourceAlpha" type="matrix" values="0 0 0 0 0 0 0 0 0 0 0 0 0 0 0 0 0 0 127 0" result="hardAlpha"/>
<feOffset/>
<feGaussianBlur stdDeviation="2.85714"/>
<feComposite in2="hardAlpha" operator="out"/>
<feColorMatrix type="matrix" values="0 0 0 0 0 0 0 0 0 0 0 0 0 0 0 0 0 0 0.25 0"/>
<feBlend mode="normal" in2="BackgroundImageFix" result="effect1_dropShadow_1_62"/>
<feBlend mode="normal" in="SourceGraphic" in2="effect1_dropShadow_1_62" result="shape"/>
</filter>
<linearGradient id="paint0_linear_1_62" x1="28" y1="0" x2="28" y2="56" gradientUnits="userSpaceOnUse">
<stop stop-color="#2C1B1B"/>
<stop offset="1" stop-color="#1F1414"/>
</linearGradient>
<linearGradient id="paint1_linear_1_62" x1="36.3123" y1="24.986" x2="36.3123" y2="47.6398" gradientUnits="userSpaceOnUse">
<stop stop-color="#FF0000"/>
<stop offset="1" stop-color="#CC0000"/>
</linearGradient>
<clipPath id="clip0_1_62">
<rect width="56" height="56" rx="8.4" fill="white"/>
</clipPath>
<clipPath id="clip1_1_62">
<rect width="40" height="40" fill="white" transform="translate(8 8)"/>
</clipPath>
</defs>
</svg>
