<svg width="180" height="56" viewBox="0 0 180 56" fill="none" xmlns="http://www.w3.org/2000/svg">
<g clip-path="url(#clip0_1_50)">
<rect width="180" height="56" rx="8" fill="url(#paint0_linear_1_50)"/>
<g filter="url(#filter0_d_1_50)">
<g clip-path="url(#clip1_1_50)">
<path d="M42 19.25C24 23.25 19.8 35.59 15.64 45.93L19.42 47.25L21.32 42.65C22.28 42.99 23.28 43.25 24 43.25C46 43.25 52 9.25 52 9.25C50 13.25 36 13.75 26 15.75C16 17.75 12 26.25 12 30.25C12 34.25 15.5 37.75 15.5 37.75C22 19.25 42 19.25 42 19.25Z" fill="white"/>
</g>
<g opacity="0.7">
<mask id="path-4-outside-1_1_50" maskUnits="userSpaceOnUse" x="25.986" y="21.986" width="28" height="28" fill="black">
<rect fill="white" x="25.986" y="21.986" width="28" height="28"/>
<path fill-rule="evenodd" clip-rule="evenodd" d="M31.778 25.1952C31.4991 24.9162 31.0469 24.9162 30.768 25.1952L29.1958 26.7678C28.9169 27.0467 28.9169 27.4991 29.1958 27.778L37.73 36.3144L29.1952 44.8478C28.9162 45.1267 28.9162 45.5789 29.1952 45.8579L30.7677 47.4301C31.0466 47.709 31.4989 47.709 31.7779 47.4301L40.3121 38.8973L48.8431 47.4305C49.122 47.7095 49.5742 47.7095 49.8531 47.4305L51.4253 45.858C51.7042 45.579 51.7042 45.1267 51.4253 44.8477L42.8949 36.315L51.4295 27.7819C51.7084 27.5029 51.7084 27.0507 51.4295 26.7718L49.857 25.1996C49.578 24.9206 49.1257 24.9206 48.8467 25.1996L40.3127 33.7322L31.778 25.1952Z"/>
</mask>
<path fill-rule="evenodd" clip-rule="evenodd" d="M31.778 25.1952C31.4991 24.9162 31.0469 24.9162 30.768 25.1952L29.1958 26.7678C28.9169 27.0467 28.9169 27.4991 29.1958 27.778L37.73 36.3144L29.1952 44.8478C28.9162 45.1267 28.9162 45.5789 29.1952 45.8579L30.7677 47.4301C31.0466 47.709 31.4989 47.709 31.7779 47.4301L40.3121 38.8973L48.8431 47.4305C49.122 47.7095 49.5742 47.7095 49.8531 47.4305L51.4253 45.858C51.7042 45.579 51.7042 45.1267 51.4253 44.8477L42.8949 36.315L51.4295 27.7819C51.7084 27.5029 51.7084 27.0507 51.4295 26.7718L49.857 25.1996C49.578 24.9206 49.1257 24.9206 48.8467 25.1996L40.3127 33.7322L31.778 25.1952Z" fill="url(#paint1_linear_1_50)"/>
<path d="M30.768 25.1952L29.2525 23.6802L29.2525 23.6802L30.768 25.1952ZM31.778 25.1952L30.2626 26.7102L30.2626 26.7102L31.778 25.1952ZM29.1958 26.7678L27.6804 25.2527L27.6804 25.2527L29.1958 26.7678ZM29.1958 27.778L27.6804 29.2931L27.6804 29.2931L29.1958 27.778ZM37.73 36.3144L39.2451 37.8298L40.7604 36.3148L39.2454 34.7994L37.73 36.3144ZM29.1952 44.8478L27.6801 43.3324L27.6801 43.3324L29.1952 44.8478ZM29.1952 45.8579L27.6801 47.3732L27.6801 47.3732L29.1952 45.8579ZM30.7677 47.4301L29.2526 48.9454L29.2526 48.9454L30.7677 47.4301ZM31.7779 47.4301L30.2628 45.9147L30.2628 45.9147L31.7779 47.4301ZM40.3121 38.8973L41.8276 37.3823L40.3125 35.8668L38.797 37.3819L40.3121 38.8973ZM48.8431 47.4305L47.3277 48.9456L47.3277 48.9456L48.8431 47.4305ZM49.8531 47.4305L51.3686 48.9456L51.3686 48.9456L49.8531 47.4305ZM51.4253 45.858L52.9407 47.373L52.9407 47.373L51.4253 45.858ZM51.4253 44.8477L52.9407 43.3327L52.9407 43.3326L51.4253 44.8477ZM42.8949 36.315L41.3798 34.7997L39.8645 36.3147L41.3794 37.83L42.8949 36.315ZM51.4295 27.7819L49.9144 26.2665L49.9144 26.2665L51.4295 27.7819ZM51.4295 26.7718L49.9144 28.2871L49.9144 28.2871L51.4295 26.7718ZM49.857 25.1996L51.3721 23.6842L51.3721 23.6842L49.857 25.1996ZM48.8467 25.1996L47.3316 23.6842L47.3316 23.6842L48.8467 25.1996ZM40.3127 33.7322L38.7973 35.2472L40.3124 36.7627L41.8278 35.2475L40.3127 33.7322ZM32.2834 26.7102C31.7254 27.2684 30.8205 27.2684 30.2626 26.7102L33.2934 23.6802C32.1776 22.5641 30.3683 22.5641 29.2525 23.6802L32.2834 26.7102ZM30.7113 28.2828L32.2834 26.7102L29.2525 23.6802L27.6804 25.2527L30.7113 28.2828ZM30.7113 26.263C31.2689 26.8208 31.2689 27.725 30.7113 28.2828L27.6804 25.2527C26.5649 26.3685 26.5649 28.1773 27.6804 29.2931L30.7113 26.263ZM39.2454 34.7994L30.7113 26.263L27.6804 29.2931L36.2145 37.8295L39.2454 34.7994ZM30.7103 46.3631L39.2451 37.8298L36.2149 34.7991L27.6801 43.3324L30.7103 46.3631ZM30.7103 44.3425C31.2683 44.9004 31.2683 45.8052 30.7103 46.3631L27.6801 43.3324C26.5641 44.4482 26.5641 46.2574 27.6801 47.3732L30.7103 44.3425ZM32.2828 45.9147L30.7103 44.3425L27.6801 47.3732L29.2526 48.9454L32.2828 45.9147ZM30.2628 45.9147C30.8207 45.357 31.7249 45.357 32.2828 45.9147L29.2526 48.9454C30.3683 50.061 32.1772 50.061 33.293 48.9454L30.2628 45.9147ZM38.797 37.3819L30.2628 45.9147L33.293 48.9454L41.8272 40.4126L38.797 37.3819ZM50.3585 45.9155L41.8276 37.3823L38.7967 40.4123L47.3277 48.9456L50.3585 45.9155ZM48.3377 45.9155C48.8957 45.3574 49.8006 45.3574 50.3585 45.9155L47.3277 48.9456C48.4435 50.0616 50.2528 50.0616 51.3686 48.9456L48.3377 45.9155ZM49.9098 44.3429L48.3377 45.9155L51.3686 48.9456L52.9407 47.373L49.9098 44.3429ZM49.9098 46.3627C49.3522 45.8049 49.3522 44.9007 49.9098 44.3429L52.9407 47.373C54.0562 46.2572 54.0562 44.4484 52.9407 43.3327L49.9098 46.3627ZM41.3794 37.83L49.9098 46.3627L52.9407 43.3326L44.4103 34.8L41.3794 37.83ZM49.9144 26.2665L41.3798 34.7997L44.41 37.8304L52.9446 29.2972L49.9144 26.2665ZM49.9144 28.2871C49.3563 27.7292 49.3563 26.8244 49.9144 26.2665L52.9446 29.2972C54.0605 28.1814 54.0605 26.3722 52.9446 25.2564L49.9144 28.2871ZM48.3419 26.7149L49.9144 28.2871L52.9446 25.2564L51.3721 23.6842L48.3419 26.7149ZM50.3618 26.7149C49.804 27.2727 48.8997 27.2727 48.3419 26.7149L51.3721 23.6842C50.2563 22.5686 48.4474 22.5686 47.3316 23.6842L50.3618 26.7149ZM41.8278 35.2475L50.3618 26.7149L47.3316 23.6842L38.7976 32.2168L41.8278 35.2475ZM30.2626 26.7102L38.7973 35.2472L41.8281 32.2171L33.2934 23.6802L30.2626 26.7102Z" fill="black" mask="url(#path-4-outside-1_1_50)"/>
</g>
</g>
<g filter="url(#filter1_d_1_50)">
<path d="M63.5568 24.5L60.3295 12.8636H62.1761L64.4432 21.875H64.5511L66.9091 12.8636H68.7386L71.0966 21.8807H71.2045L73.4659 12.8636H75.3182L72.0852 24.5H70.3182L67.8693 15.7841H67.7784L65.3295 24.5H63.5568ZM79.5994 24.6761C78.7812 24.6761 78.0672 24.4886 77.4574 24.1136C76.8475 23.7386 76.374 23.214 76.0369 22.5398C75.6998 21.8655 75.5312 21.0776 75.5312 20.1761C75.5312 19.2708 75.6998 18.4792 76.0369 17.8011C76.374 17.1231 76.8475 16.5966 77.4574 16.2216C78.0672 15.8466 78.7812 15.6591 79.5994 15.6591C80.4176 15.6591 81.1316 15.8466 81.7415 16.2216C82.3513 16.5966 82.8248 17.1231 83.1619 17.8011C83.499 18.4792 83.6676 19.2708 83.6676 20.1761C83.6676 21.0776 83.499 21.8655 83.1619 22.5398C82.8248 23.214 82.3513 23.7386 81.7415 24.1136C81.1316 24.4886 80.4176 24.6761 79.5994 24.6761ZM79.6051 23.25C80.1354 23.25 80.5748 23.1098 80.9233 22.8295C81.2718 22.5492 81.5293 22.1761 81.696 21.7102C81.8665 21.2443 81.9517 20.7311 81.9517 20.1704C81.9517 19.6136 81.8665 19.1023 81.696 18.6364C81.5293 18.1667 81.2718 17.7898 80.9233 17.5057C80.5748 17.2216 80.1354 17.0795 79.6051 17.0795C79.071 17.0795 78.6278 17.2216 78.2755 17.5057C77.9271 17.7898 77.6676 18.1667 77.4971 18.6364C77.3305 19.1023 77.2471 19.6136 77.2471 20.1704C77.2471 20.7311 77.3305 21.2443 77.4971 21.7102C77.6676 22.1761 77.9271 22.5492 78.2755 22.8295C78.6278 23.1098 79.071 23.25 79.6051 23.25ZM87.2628 19.3182V24.5H85.5639V15.7727H87.1946V17.1932H87.3025C87.5033 16.7311 87.8177 16.3598 88.2457 16.0795C88.6775 15.7992 89.2211 15.6591 89.8764 15.6591C90.4711 15.6591 90.9919 15.7841 91.4389 16.0341C91.8859 16.2803 92.2325 16.6477 92.4787 17.1364C92.7249 17.625 92.848 18.2292 92.848 18.9489V24.5H91.1491V19.1534C91.1491 18.5208 90.9844 18.0265 90.6548 17.6704C90.3253 17.3106 89.8726 17.1307 89.2969 17.1307C88.9029 17.1307 88.5525 17.2159 88.2457 17.3864C87.9427 17.5568 87.7022 17.8068 87.5241 18.1364C87.3499 18.4621 87.2628 18.8561 87.2628 19.3182ZM96.5866 12.8636V13.9545C96.5866 14.2765 96.526 14.6155 96.4048 14.9716C96.2874 15.3239 96.1207 15.6629 95.9048 15.9886C95.6889 16.3144 95.4351 16.5947 95.1434 16.8295L94.3025 16.2273C94.526 15.9015 94.7192 15.5549 94.8821 15.1875C95.0487 14.8201 95.1321 14.4148 95.1321 13.9716V12.8636H96.5866ZM102.638 15.7727V17.1364H97.8707V15.7727H102.638ZM99.1491 13.6818H100.848V21.9375C100.848 22.267 100.897 22.5151 100.996 22.6818C101.094 22.8447 101.221 22.9564 101.376 23.017C101.535 23.0739 101.708 23.1023 101.893 23.1023C102.03 23.1023 102.149 23.0928 102.251 23.0739C102.354 23.0549 102.433 23.0398 102.49 23.0284L102.797 24.4318C102.698 24.4697 102.558 24.5076 102.376 24.5454C102.195 24.5871 101.967 24.6098 101.695 24.6136C101.248 24.6212 100.831 24.5417 100.445 24.375C100.058 24.2083 99.7457 23.9508 99.5071 23.6023C99.2684 23.2538 99.1491 22.8163 99.1491 22.2898V13.6818ZM115.291 17.9034L113.751 18.1761C113.687 17.9792 113.585 17.7917 113.445 17.6136C113.308 17.4356 113.123 17.2898 112.888 17.1761C112.653 17.0625 112.359 17.0057 112.007 17.0057C111.526 17.0057 111.124 17.1136 110.803 17.3295C110.481 17.5417 110.32 17.8163 110.32 18.1534C110.32 18.4451 110.428 18.6799 110.643 18.8579C110.859 19.036 111.208 19.1818 111.689 19.2954L113.075 19.6136C113.878 19.7992 114.477 20.0852 114.871 20.4716C115.265 20.8579 115.462 21.3598 115.462 21.9773C115.462 22.5 115.31 22.9659 115.007 23.375C114.708 23.7803 114.289 24.0985 113.751 24.3295C113.217 24.5606 112.598 24.6761 111.893 24.6761C110.916 24.6761 110.119 24.4678 109.501 24.0511C108.884 23.6307 108.505 23.0341 108.365 22.2614L110.007 22.0114C110.109 22.4394 110.32 22.7633 110.638 22.9829C110.956 23.1989 111.371 23.3068 111.882 23.3068C112.439 23.3068 112.884 23.1913 113.217 22.9602C113.551 22.7254 113.717 22.4394 113.717 22.1023C113.717 21.8295 113.615 21.6004 113.41 21.4148C113.21 21.2292 112.901 21.089 112.484 20.9943L111.007 20.6704C110.193 20.4848 109.59 20.1894 109.2 19.7841C108.814 19.3788 108.621 18.8655 108.621 18.2443C108.621 17.7292 108.765 17.2784 109.053 16.892C109.34 16.5057 109.738 16.2045 110.246 15.9886C110.753 15.7689 111.335 15.6591 111.99 15.6591C112.933 15.6591 113.676 15.8636 114.217 16.2727C114.759 16.678 115.117 17.2216 115.291 17.9034ZM122.858 20.8807V15.7727H124.562V24.5H122.892V22.9886H122.801C122.6 23.4545 122.278 23.8428 121.835 24.1534C121.396 24.4602 120.848 24.6136 120.193 24.6136C119.633 24.6136 119.136 24.4905 118.705 24.2443C118.276 23.9943 117.939 23.625 117.693 23.1364C117.451 22.6477 117.33 22.0436 117.33 21.3239V15.7727H119.028V21.1193C119.028 21.714 119.193 22.1875 119.523 22.5398C119.852 22.892 120.28 23.0682 120.807 23.0682C121.125 23.0682 121.441 22.9886 121.756 22.8295C122.074 22.6704 122.337 22.4299 122.545 22.1079C122.758 21.786 122.862 21.3769 122.858 20.8807ZM126.845 27.7727V15.7727H128.504V17.1875H128.646C128.745 17.0057 128.887 16.7954 129.072 16.5568C129.258 16.3182 129.516 16.1098 129.845 15.9318C130.175 15.75 130.61 15.6591 131.152 15.6591C131.856 15.6591 132.485 15.8371 133.038 16.1932C133.591 16.5492 134.025 17.0625 134.339 17.7329C134.658 18.4034 134.817 19.2102 134.817 20.1534C134.817 21.0966 134.66 21.9053 134.345 22.5795C134.031 23.25 133.599 23.767 133.05 24.1307C132.5 24.4905 131.874 24.6704 131.169 24.6704C130.639 24.6704 130.205 24.5814 129.868 24.4034C129.535 24.2254 129.273 24.017 129.084 23.7784C128.894 23.5398 128.749 23.3276 128.646 23.142H128.544V27.7727H126.845ZM128.51 20.1364C128.51 20.75 128.599 21.2879 128.777 21.75C128.955 22.2121 129.213 22.5739 129.55 22.8352C129.887 23.0928 130.3 23.2216 130.788 23.2216C131.296 23.2216 131.72 23.0871 132.061 22.8182C132.402 22.5454 132.66 22.1761 132.834 21.7102C133.012 21.2443 133.101 20.7197 133.101 20.1364C133.101 19.5606 133.014 19.0436 132.839 18.5852C132.669 18.1269 132.411 17.7651 132.067 17.5C131.726 17.2348 131.3 17.1023 130.788 17.1023C130.296 17.1023 129.879 17.2292 129.538 17.4829C129.201 17.7367 128.946 18.0909 128.771 18.5454C128.597 19 128.51 19.5303 128.51 20.1364ZM136.72 27.7727V15.7727H138.379V17.1875H138.521C138.62 17.0057 138.762 16.7954 138.947 16.5568C139.133 16.3182 139.391 16.1098 139.72 15.9318C140.05 15.75 140.485 15.6591 141.027 15.6591C141.731 15.6591 142.36 15.8371 142.913 16.1932C143.466 16.5492 143.9 17.0625 144.214 17.7329C144.533 18.4034 144.692 19.2102 144.692 20.1534C144.692 21.0966 144.535 21.9053 144.22 22.5795C143.906 23.25 143.474 23.767 142.925 24.1307C142.375 24.4905 141.749 24.6704 141.044 24.6704C140.514 24.6704 140.08 24.5814 139.743 24.4034C139.41 24.2254 139.148 24.017 138.959 23.7784C138.769 23.5398 138.624 23.3276 138.521 23.142H138.419V27.7727H136.72ZM138.385 20.1364C138.385 20.75 138.474 21.2879 138.652 21.75C138.83 22.2121 139.088 22.5739 139.425 22.8352C139.762 23.0928 140.175 23.2216 140.663 23.2216C141.171 23.2216 141.595 23.0871 141.936 22.8182C142.277 22.5454 142.535 22.1761 142.709 21.7102C142.887 21.2443 142.976 20.7197 142.976 20.1364C142.976 19.5606 142.889 19.0436 142.714 18.5852C142.544 18.1269 142.286 17.7651 141.942 17.5C141.601 17.2348 141.175 17.1023 140.663 17.1023C140.171 17.1023 139.754 17.2292 139.413 17.4829C139.076 17.7367 138.821 18.0909 138.646 18.5454C138.472 19 138.385 19.5303 138.385 20.1364ZM150.271 24.6761C149.453 24.6761 148.739 24.4886 148.129 24.1136C147.519 23.7386 147.046 23.214 146.709 22.5398C146.372 21.8655 146.203 21.0776 146.203 20.1761C146.203 19.2708 146.372 18.4792 146.709 17.8011C147.046 17.1231 147.519 16.5966 148.129 16.2216C148.739 15.8466 149.453 15.6591 150.271 15.6591C151.089 15.6591 151.803 15.8466 152.413 16.2216C153.023 16.5966 153.497 17.1231 153.834 17.8011C154.171 18.4792 154.339 19.2708 154.339 20.1761C154.339 21.0776 154.171 21.8655 153.834 22.5398C153.497 23.214 153.023 23.7386 152.413 24.1136C151.803 24.4886 151.089 24.6761 150.271 24.6761ZM150.277 23.25C150.807 23.25 151.247 23.1098 151.595 22.8295C151.944 22.5492 152.201 22.1761 152.368 21.7102C152.538 21.2443 152.624 20.7311 152.624 20.1704C152.624 19.6136 152.538 19.1023 152.368 18.6364C152.201 18.1667 151.944 17.7898 151.595 17.5057C151.247 17.2216 150.807 17.0795 150.277 17.0795C149.743 17.0795 149.3 17.2216 148.947 17.5057C148.599 17.7898 148.339 18.1667 148.169 18.6364C148.002 19.1023 147.919 19.6136 147.919 20.1704C147.919 20.7311 148.002 21.2443 148.169 21.7102C148.339 22.1761 148.599 22.5492 148.947 22.8295C149.3 23.1098 149.743 23.25 150.277 23.25ZM156.236 24.5V15.7727H157.878V17.1591H157.969C158.128 16.6894 158.408 16.3201 158.81 16.0511C159.215 15.7784 159.673 15.642 160.185 15.642C160.291 15.642 160.416 15.6458 160.56 15.6534C160.707 15.661 160.823 15.6704 160.906 15.6818V17.3068C160.838 17.2879 160.717 17.267 160.543 17.2443C160.368 17.2178 160.194 17.2045 160.02 17.2045C159.618 17.2045 159.26 17.2898 158.946 17.4602C158.635 17.6269 158.389 17.8598 158.207 18.1591C158.026 18.4545 157.935 18.7917 157.935 19.1704V24.5H156.236ZM166.966 15.7727V17.1364H162.199V15.7727H166.966ZM163.477 13.6818H165.176V21.9375C165.176 22.267 165.225 22.5151 165.324 22.6818C165.422 22.8447 165.549 22.9564 165.704 23.017C165.864 23.0739 166.036 23.1023 166.222 23.1023C166.358 23.1023 166.477 23.0928 166.579 23.0739C166.682 23.0549 166.761 23.0398 166.818 23.0284L167.125 24.4318C167.026 24.4697 166.886 24.5076 166.704 24.5454C166.523 24.5871 166.295 24.6098 166.023 24.6136C165.576 24.6212 165.159 24.5417 164.773 24.375C164.386 24.2083 164.074 23.9508 163.835 23.6023C163.597 23.2538 163.477 22.8163 163.477 22.2898V13.6818Z" fill="#E8E8E8"/>
<path d="M60.9357 43.5V31.1364H69.3753V33.5632H63.924V36.0987H68.8381V38.5316H63.924V43.5H60.9357ZM74.5279 43.6751C73.5539 43.6751 72.7168 43.4758 72.0165 43.0774C71.3202 42.6749 70.7829 42.1155 70.4046 41.3991C70.0303 40.6787 69.8432 39.8436 69.8432 38.8938C69.8432 37.94 70.0303 37.1049 70.4046 36.3885C70.7829 35.6681 71.3202 35.1087 72.0165 34.7102C72.7168 34.3078 73.5539 34.1065 74.5279 34.1065C75.5018 34.1065 76.3369 34.3078 77.0332 34.7102C77.7335 35.1087 78.2708 35.6681 78.645 36.3885C79.0234 37.1049 79.2125 37.94 79.2125 38.8938C79.2125 39.8436 79.0234 40.6787 78.645 41.3991C78.2708 42.1155 77.7335 42.6749 77.0332 43.0774C76.3369 43.4758 75.5018 43.6751 74.5279 43.6751ZM74.546 41.4474C74.9001 41.4474 75.2 41.3388 75.4455 41.1214C75.691 40.9041 75.8781 40.6023 76.0069 40.2159C76.1397 39.8295 76.2061 39.3828 76.2061 38.8757C76.2061 38.3605 76.1397 37.9098 76.0069 37.5234C75.8781 37.1371 75.691 36.8352 75.4455 36.6179C75.2 36.4006 74.9001 36.2919 74.546 36.2919C74.1797 36.2919 73.8698 36.4006 73.6163 36.6179C73.3668 36.8352 73.1756 37.1371 73.0428 37.5234C72.914 37.9098 72.8496 38.3605 72.8496 38.8757C72.8496 39.3828 72.914 39.8295 73.0428 40.2159C73.1756 40.6023 73.3668 40.9041 73.6163 41.1214C73.8698 41.3388 74.1797 41.4474 74.546 41.4474ZM83.6768 31.1364V43.5H80.7248V31.1364H83.6768ZM85.5558 43.5V34.2273H88.5079V43.5H85.5558ZM87.0349 33.1467C86.6203 33.1467 86.2642 33.0098 85.9663 32.7361C85.6685 32.4584 85.5196 32.1244 85.5196 31.734C85.5196 31.3476 85.6685 31.0176 85.9663 30.744C86.2642 30.4663 86.6203 30.3274 87.0349 30.3274C87.4534 30.3274 87.8096 30.4663 88.1034 30.744C88.4012 31.0176 88.5501 31.3476 88.5501 31.734C88.5501 32.1244 88.4012 32.4584 88.1034 32.7361C87.8096 33.0098 87.4534 33.1467 87.0349 33.1467ZM93.0009 43.6569C92.4092 43.6569 91.884 43.5583 91.4252 43.3611C90.9704 43.1599 90.6102 42.8581 90.3446 42.4556C90.083 42.0491 89.9522 41.54 89.9522 40.9283C89.9522 40.4131 90.0428 39.9784 90.2239 39.6243C90.405 39.2701 90.6545 38.9824 90.9725 38.761C91.2904 38.5396 91.6566 38.3726 92.0712 38.2599C92.4857 38.1432 92.9284 38.0647 93.3993 38.0245C93.9265 37.9762 94.3511 37.9259 94.6731 37.8736C94.9951 37.8172 95.2285 37.7387 95.3734 37.6381C95.5223 37.5335 95.5967 37.3866 95.5967 37.1974V37.1672C95.5967 36.8574 95.4901 36.6179 95.2768 36.4489C95.0635 36.2798 94.7757 36.1953 94.4135 36.1953C94.0231 36.1953 93.7092 36.2798 93.4717 36.4489C93.2343 36.6179 93.0834 36.8513 93.019 37.1491L90.2963 37.0525C90.3768 36.4891 90.5841 35.986 90.9181 35.5433C91.2562 35.0966 91.719 34.7464 92.3066 34.4929C92.8982 34.2353 93.6086 34.1065 94.4377 34.1065C95.0293 34.1065 95.5746 34.177 96.0737 34.3178C96.5727 34.4547 97.0074 34.6559 97.3776 34.9215C97.7479 35.1831 98.0337 35.5051 98.2349 35.8874C98.4401 36.2698 98.5428 36.7064 98.5428 37.1974V43.5H95.7658V42.2081H95.6933C95.5283 42.522 95.317 42.7876 95.0595 43.005C94.8059 43.2223 94.5061 43.3853 94.16 43.494C93.8179 43.6026 93.4315 43.6569 93.0009 43.6569ZM93.9124 41.7251C94.2304 41.7251 94.5161 41.6607 94.7697 41.5319C95.0273 41.4032 95.2325 41.2261 95.3855 41.0007C95.5384 40.7713 95.6149 40.5057 95.6149 40.2038V39.3224C95.5303 39.3667 95.4277 39.4069 95.307 39.4432C95.1903 39.4794 95.0615 39.5136 94.9206 39.5458C94.7797 39.578 94.6349 39.6062 94.4859 39.6303C94.337 39.6545 94.1942 39.6766 94.0573 39.6967C93.7796 39.741 93.5422 39.8094 93.345 39.902C93.1518 39.9945 93.0029 40.1153 92.8982 40.2642C92.7976 40.4091 92.7473 40.5821 92.7473 40.7834C92.7473 41.0892 92.856 41.3227 93.0733 41.4837C93.2947 41.6446 93.5744 41.7251 93.9124 41.7251Z" fill="url(#paint2_linear_1_50)"/>
</g>
</g>
<rect x="1.05" y="1.05" width="177.9" height="53.9" rx="6.95" stroke="white" stroke-opacity="0.15" stroke-width="2.1"/>
<defs>
<filter id="filter0_d_1_50" x="6.28571" y="2.28571" width="53.2101" height="53.2112" filterUnits="userSpaceOnUse" color-interpolation-filters="sRGB">
<feFlood flood-opacity="0" result="BackgroundImageFix"/>
<feColorMatrix in="SourceAlpha" type="matrix" values="0 0 0 0 0 0 0 0 0 0 0 0 0 0 0 0 0 0 127 0" result="hardAlpha"/>
<feOffset/>
<feGaussianBlur stdDeviation="2.85714"/>
<feComposite in2="hardAlpha" operator="out"/>
<feColorMatrix type="matrix" values="0 0 0 0 0 0 0 0 0 0 0 0 0 0 0 0 0 0 0.25 0"/>
<feBlend mode="normal" in2="BackgroundImageFix" result="effect1_dropShadow_1_50"/>
<feBlend mode="normal" in="SourceGraphic" in2="effect1_dropShadow_1_50" result="shape"/>
</filter>
<filter id="filter1_d_1_50" x="54.4" y="3.9" width="119.2" height="48.2" filterUnits="userSpaceOnUse" color-interpolation-filters="sRGB">
<feFlood flood-opacity="0" result="BackgroundImageFix"/>
<feColorMatrix in="SourceAlpha" type="matrix" values="0 0 0 0 0 0 0 0 0 0 0 0 0 0 0 0 0 0 127 0" result="hardAlpha"/>
<feOffset/>
<feGaussianBlur stdDeviation="2.8"/>
<feComposite in2="hardAlpha" operator="out"/>
<feColorMatrix type="matrix" values="0 0 0 0 0 0 0 0 0 0 0 0 0 0 0 0 0 0 0.25 0"/>
<feBlend mode="normal" in2="BackgroundImageFix" result="effect1_dropShadow_1_50"/>
<feBlend mode="normal" in="SourceGraphic" in2="effect1_dropShadow_1_50" result="shape"/>
</filter>
<linearGradient id="paint0_linear_1_50" x1="90" y1="0" x2="90" y2="56" gradientUnits="userSpaceOnUse">
<stop stop-color="#2C1B1B"/>
<stop offset="1" stop-color="#1F1414"/>
</linearGradient>
<linearGradient id="paint1_linear_1_50" x1="40.3123" y1="24.986" x2="40.3123" y2="47.6398" gradientUnits="userSpaceOnUse">
<stop stop-color="#FF0000"/>
<stop offset="1" stop-color="#CC0000"/>
</linearGradient>
<linearGradient id="paint2_linear_1_50" x1="61" y1="37.5" x2="98.5" y2="37.5" gradientUnits="userSpaceOnUse">
<stop stop-color="#FF27F5"/>
<stop offset="0.142857" stop-color="#C33CC6"/>
<stop offset="0.285714" stop-color="#FF67B0"/>
<stop offset="0.428571" stop-color="#FF498A"/>
<stop offset="0.619792" stop-color="#FF8181"/>
<stop offset="0.666667" stop-color="#6BFFEC"/>
<stop offset="0.857143" stop-color="#17CFA3"/>
<stop offset="1" stop-color="#7AFF68"/>
</linearGradient>
<clipPath id="clip0_1_50">
<rect width="180" height="56" rx="8" fill="white"/>
</clipPath>
<clipPath id="clip1_1_50">
<rect width="40" height="40" fill="white" transform="translate(12 8)"/>
</clipPath>
</defs>
</svg>
