<svg width="40" height="40" viewBox="0 0 40 40" fill="none" xmlns="http://www.w3.org/2000/svg">
<rect width="40" height="40" rx="8" fill="url(#paint0_linear_1_68)"/>
<rect x="1.05" y="1.05" width="37.9" height="37.9" rx="6.95" stroke="white" stroke-opacity="0.15" stroke-width="2.1"/>
<g filter="url(#filter0_d_1_68)">
<path fill-rule="evenodd" clip-rule="evenodd" d="M33.6211 12.3343C33.6312 12.3717 33.6363 12.4101 33.6364 12.4488V18.4589C33.6364 18.5361 33.6161 18.6119 33.5774 18.6786C33.5387 18.7454 33.4831 18.8007 33.4162 18.8391L28.3718 21.7434V27.4999C28.3718 27.6565 28.2886 27.8011 28.1527 27.88L17.6229 33.9416C17.5988 33.9553 17.5726 33.9641 17.5463 33.9734C17.5364 33.9767 17.5271 33.9827 17.5167 33.9855C17.4431 34.0048 17.3657 34.0048 17.2921 33.9855C17.28 33.9822 17.2691 33.9756 17.2576 33.9712C17.2335 33.9625 17.2083 33.9548 17.1853 33.9416L6.6577 27.88C6.59082 27.8416 6.53526 27.7862 6.4966 27.7195C6.45794 27.6528 6.43755 27.577 6.4375 27.4999V9.4695C6.4375 9.43006 6.44298 9.39172 6.45284 9.35447C6.45612 9.34187 6.46379 9.33037 6.46818 9.31777C6.47639 9.29476 6.48406 9.27121 6.49611 9.24984C6.50433 9.2356 6.51638 9.2241 6.52624 9.21095C6.53884 9.19342 6.55034 9.17535 6.56513 9.16001C6.57773 9.14741 6.59416 9.1381 6.6084 9.12714C6.62429 9.114 6.63853 9.09976 6.65661 9.08935L11.9212 6.05854C11.9879 6.02019 12.0634 6 12.1403 6C12.2172 6 12.2928 6.02019 12.3594 6.05854L17.6235 9.08935H17.6246C17.6421 9.1003 17.6569 9.114 17.6728 9.1266C17.687 9.13755 17.7029 9.14741 17.7155 9.15946C17.7309 9.17535 17.7418 9.19342 17.755 9.21095C17.7643 9.2241 17.7769 9.2356 17.7845 9.24984C17.7971 9.27176 17.8043 9.29476 17.813 9.31777C17.8174 9.33037 17.8251 9.34187 17.8284 9.35502C17.8384 9.39234 17.8436 9.43083 17.8437 9.4695V20.7311L22.2302 18.2053V12.4483C22.2302 12.4099 22.2357 12.371 22.2456 12.3343C22.2494 12.3212 22.2565 12.3097 22.2609 12.2971C22.2697 12.2741 22.2773 12.2505 22.2894 12.2292C22.2976 12.2149 22.3097 12.2034 22.319 12.1903C22.3321 12.1727 22.3431 12.1547 22.3584 12.1393C22.371 12.1267 22.3869 12.1174 22.4011 12.1065C22.4176 12.0933 22.4318 12.0791 22.4493 12.0687L27.7145 9.03786C27.7811 8.99945 27.8567 8.97923 27.9336 8.97923C28.0105 8.97923 28.0861 8.99945 28.1527 9.03786L33.4168 12.0687C33.4354 12.0796 33.4496 12.0933 33.4661 12.1059C33.4798 12.1169 33.4957 12.1267 33.5083 12.1388C33.5236 12.1547 33.5346 12.1727 33.5477 12.1903C33.5576 12.2034 33.5696 12.2149 33.5773 12.2292C33.5899 12.2505 33.597 12.2741 33.6058 12.2971C33.6107 12.3097 33.6178 12.3212 33.6211 12.3343ZM32.7589 18.2053V13.2075L30.9168 14.268L28.3718 15.7332V20.7311L32.7595 18.2053H32.7589ZM27.4948 27.2463V22.2451L24.9915 23.6748L17.8432 27.7546V32.8028L27.4948 27.2463ZM7.31503 10.2282V27.2463L16.9656 32.8023V27.7551L11.924 24.9018L11.9223 24.9007L11.9201 24.8996C11.9031 24.8898 11.8889 24.8755 11.873 24.8635C11.8593 24.8525 11.8434 24.8437 11.8314 24.8317L11.8303 24.83C11.816 24.8164 11.8062 24.7994 11.7941 24.784C11.7832 24.7692 11.77 24.7566 11.7613 24.7413L11.7607 24.7397C11.7509 24.7232 11.7448 24.7035 11.7377 24.6849C11.7306 24.6685 11.7213 24.6531 11.7169 24.6356C11.7114 24.6148 11.7103 24.5923 11.7081 24.571C11.7059 24.5545 11.7016 24.5381 11.7016 24.5217V24.5206V12.7539L9.15717 11.2881L7.31503 10.2282ZM12.1409 6.94483L7.75489 9.4695L12.1398 11.9942L16.5252 9.46895L12.1398 6.94483H12.1409ZM14.4218 22.7009L16.9662 21.2361V10.2282L15.124 11.2886L12.5791 12.7539V23.7619L14.4218 22.7009ZM27.9336 9.92415L23.5482 12.4488L27.9336 14.9735L32.3185 12.4483L27.9336 9.92415ZM27.4948 15.7332L24.9499 14.268L23.1078 13.2075V18.2053L25.6521 19.6701L27.4948 20.7311V15.7332ZM17.4038 26.9959L23.8363 23.3237L27.0517 21.4887L22.6695 18.9656L17.624 21.8704L13.0255 24.5178L17.4038 26.9959Z" fill="#FF2D20"/>
</g>
<defs>
<filter id="filter0_d_1_68" x="2" y="2" width="36" height="36" filterUnits="userSpaceOnUse" color-interpolation-filters="sRGB">
<feFlood flood-opacity="0" result="BackgroundImageFix"/>
<feColorMatrix in="SourceAlpha" type="matrix" values="0 0 0 0 0 0 0 0 0 0 0 0 0 0 0 0 0 0 127 0" result="hardAlpha"/>
<feOffset/>
<feGaussianBlur stdDeviation="2"/>
<feComposite in2="hardAlpha" operator="out"/>
<feColorMatrix type="matrix" values="0 0 0 0 0 0 0 0 0 0 0 0 0 0 0 0 0 0 0.25 0"/>
<feBlend mode="normal" in2="BackgroundImageFix" result="effect1_dropShadow_1_68"/>
<feBlend mode="normal" in="SourceGraphic" in2="effect1_dropShadow_1_68" result="shape"/>
</filter>
<linearGradient id="paint0_linear_1_68" x1="20" y1="0" x2="20" y2="40" gradientUnits="userSpaceOnUse">
<stop stop-color="#690600"/>
<stop offset="1" stop-color="#2D0300"/>
</linearGradient>
</defs>
</svg>
