<svg width="191" height="40" viewBox="0 0 191 40" fill="none" xmlns="http://www.w3.org/2000/svg">
<rect width="191.001" height="40.0014" rx="8" fill="url(#paint0_linear_1_56)"/>
<rect x="1.07143" y="1.07143" width="188.858" height="37.8585" rx="6.92857" stroke="white" stroke-opacity="0.15" stroke-width="2.14286"/>
<g filter="url(#filter0_d_1_56)">
<path fill-rule="evenodd" clip-rule="evenodd" d="M35.6211 12.3343C35.6312 12.3717 35.6363 12.4101 35.6364 12.4488V18.4589C35.6364 18.5361 35.6161 18.6119 35.5774 18.6786C35.5387 18.7454 35.4831 18.8007 35.4162 18.8391L30.3718 21.7434V27.4999C30.3718 27.6565 30.2886 27.8011 30.1527 27.88L19.6229 33.9416C19.5988 33.9553 19.5726 33.9641 19.5463 33.9734C19.5364 33.9767 19.5271 33.9827 19.5167 33.9855C19.4431 34.0048 19.3657 34.0048 19.2921 33.9855C19.28 33.9822 19.2691 33.9756 19.2576 33.9712C19.2335 33.9625 19.2083 33.9548 19.1853 33.9416L8.6577 27.88C8.59082 27.8416 8.53526 27.7862 8.4966 27.7195C8.45794 27.6528 8.43755 27.577 8.4375 27.4999V9.4695C8.4375 9.43006 8.44298 9.39172 8.45284 9.35447C8.45612 9.34187 8.46379 9.33037 8.46818 9.31777C8.47639 9.29476 8.48406 9.27121 8.49611 9.24984C8.50433 9.2356 8.51638 9.2241 8.52624 9.21095C8.53884 9.19342 8.55034 9.17535 8.56513 9.16001C8.57773 9.14741 8.59416 9.1381 8.6084 9.12714C8.62429 9.114 8.63853 9.09976 8.65661 9.08935L13.9212 6.05854C13.9879 6.02019 14.0634 6 14.1403 6C14.2172 6 14.2928 6.02019 14.3594 6.05854L19.6235 9.08935H19.6246C19.6421 9.1003 19.6569 9.114 19.6728 9.1266C19.687 9.13755 19.7029 9.14741 19.7155 9.15946C19.7309 9.17535 19.7418 9.19342 19.755 9.21095C19.7643 9.2241 19.7769 9.2356 19.7845 9.24984C19.7971 9.27176 19.8043 9.29476 19.813 9.31777C19.8174 9.33037 19.8251 9.34187 19.8284 9.35502C19.8384 9.39234 19.8436 9.43083 19.8437 9.4695V20.7311L24.2302 18.2053V12.4483C24.2302 12.4099 24.2357 12.371 24.2456 12.3343C24.2494 12.3212 24.2565 12.3097 24.2609 12.2971C24.2697 12.2741 24.2773 12.2505 24.2894 12.2292C24.2976 12.2149 24.3097 12.2034 24.319 12.1903C24.3321 12.1727 24.3431 12.1547 24.3584 12.1393C24.371 12.1267 24.3869 12.1174 24.4011 12.1065C24.4176 12.0933 24.4318 12.0791 24.4493 12.0687L29.7145 9.03786C29.7811 8.99945 29.8567 8.97923 29.9336 8.97923C30.0105 8.97923 30.0861 8.99945 30.1527 9.03786L35.4168 12.0687C35.4354 12.0796 35.4496 12.0933 35.4661 12.1059C35.4798 12.1169 35.4957 12.1267 35.5083 12.1388C35.5236 12.1547 35.5346 12.1727 35.5477 12.1903C35.5576 12.2034 35.5696 12.2149 35.5773 12.2292C35.5899 12.2505 35.597 12.2741 35.6058 12.2971C35.6107 12.3097 35.6178 12.3212 35.6211 12.3343ZM34.7589 18.2053V13.2075L32.9168 14.268L30.3718 15.7332V20.7311L34.7595 18.2053H34.7589ZM29.4948 27.2463V22.2451L26.9915 23.6748L19.8432 27.7546V32.8028L29.4948 27.2463ZM9.31503 10.2282V27.2463L18.9656 32.8023V27.7551L13.924 24.9018L13.9223 24.9007L13.9201 24.8996C13.9031 24.8898 13.8889 24.8755 13.873 24.8635C13.8593 24.8525 13.8434 24.8437 13.8314 24.8317L13.8303 24.83C13.816 24.8164 13.8062 24.7994 13.7941 24.784C13.7832 24.7692 13.77 24.7566 13.7613 24.7413L13.7607 24.7397C13.7509 24.7232 13.7448 24.7035 13.7377 24.6849C13.7306 24.6685 13.7213 24.6531 13.7169 24.6356C13.7114 24.6148 13.7103 24.5923 13.7081 24.571C13.7059 24.5545 13.7016 24.5381 13.7016 24.5217V24.5206V12.7539L11.1572 11.2881L9.31503 10.2282ZM14.1409 6.94483L9.75489 9.4695L14.1398 11.9942L18.5252 9.46895L14.1398 6.94483H14.1409ZM16.4218 22.7009L18.9662 21.2361V10.2282L17.124 11.2886L14.5791 12.7539V23.7619L16.4218 22.7009ZM29.9336 9.92415L25.5482 12.4488L29.9336 14.9735L34.3185 12.4483L29.9336 9.92415ZM29.4948 15.7332L26.9499 14.268L25.1078 13.2075V18.2053L27.6521 19.6701L29.4948 20.7311V15.7332ZM19.4038 26.9959L25.8363 23.3237L29.0517 21.4887L24.6695 18.9656L19.624 21.8704L15.0255 24.5178L19.4038 26.9959Z" fill="#FF2D20"/>
</g>
<g filter="url(#filter1_d_1_56)">
<path d="M43.3597 26.5007V14.1371H47.8874C48.7648 14.1371 49.4912 14.282 50.0667 14.5717C50.6423 14.8575 51.0729 15.2458 51.3586 15.7369C51.6444 16.2238 51.7873 16.7732 51.7873 17.3849C51.7873 17.9001 51.6927 18.3347 51.5035 18.6889C51.3144 19.0391 51.0608 19.3208 50.7429 19.5341C50.429 19.7434 50.0828 19.8963 49.7045 19.9929V20.1136C50.115 20.1337 50.5155 20.2666 50.9059 20.5121C51.3003 20.7535 51.6263 21.0976 51.8839 21.5444C52.1414 21.9911 52.2702 22.5344 52.2702 23.1743C52.2702 23.8062 52.1213 24.3737 51.8235 24.8768C51.5297 25.3758 51.0749 25.7722 50.4591 26.066C49.8434 26.3558 49.0566 26.5007 48.0987 26.5007H43.3597ZM45.2251 24.9009H47.9176C48.8111 24.9009 49.451 24.7279 49.8373 24.3817C50.2237 24.0356 50.4169 23.603 50.4169 23.0838C50.4169 22.6934 50.3183 22.3352 50.1211 22.0092C49.9239 21.6832 49.6421 21.4236 49.2759 21.2305C48.9137 21.0373 48.483 20.9407 47.984 20.9407H45.2251V24.9009ZM45.2251 19.4858H47.7244C48.143 19.4858 48.5193 19.4053 48.8533 19.2443C49.1914 19.0833 49.459 18.8579 49.6562 18.5682C49.8575 18.2744 49.9581 17.9283 49.9581 17.5298C49.9581 17.0187 49.779 16.5901 49.4208 16.244C49.0626 15.8978 48.5132 15.7248 47.7727 15.7248H45.2251V19.4858ZM60.2118 22.6552V17.228H62.0229V26.5007H60.248V24.8949H60.1514C59.9381 25.3899 59.596 25.8024 59.1251 26.1324C58.6583 26.4584 58.0767 26.6214 57.3805 26.6214C56.7848 26.6214 56.2576 26.4906 55.7988 26.229C55.344 25.9634 54.9858 25.571 54.7242 25.0518C54.4667 24.5327 54.3379 23.8907 54.3379 23.1261V17.228H56.1429V22.9087C56.1429 23.5406 56.318 24.0437 56.6681 24.418C57.0183 24.7922 57.473 24.9794 58.0325 24.9794C58.3705 24.9794 58.7066 24.8949 59.0406 24.7258C59.3787 24.5568 59.6584 24.3012 59.8798 23.9591C60.1051 23.6171 60.2158 23.1824 60.2118 22.6552ZM64.4482 26.5007V17.228H66.2533V26.5007H64.4482ZM65.3598 15.7972C65.0459 15.7972 64.7762 15.6926 64.5508 15.4833C64.3295 15.27 64.2188 15.0164 64.2188 14.7226C64.2188 14.4248 64.3295 14.1713 64.5508 13.962C64.7762 13.7487 65.0459 13.642 65.3598 13.642C65.6737 13.642 65.9413 13.7487 66.1627 13.962C66.3881 14.1713 66.5008 14.4248 66.5008 14.7226C66.5008 15.0164 66.3881 15.27 66.1627 15.4833C65.9413 15.6926 65.6737 15.7972 65.3598 15.7972ZM70.4867 14.1371V26.5007H68.6816V14.1371H70.4867ZM77.2435 17.228V18.6768H72.1785V17.228H77.2435ZM73.5368 15.0064H75.3419V23.778C75.3419 24.1282 75.3942 24.3918 75.4988 24.5689C75.6035 24.7419 75.7383 24.8607 75.9033 24.9251C76.0723 24.9854 76.2554 25.0156 76.4526 25.0156C76.5975 25.0156 76.7243 25.0056 76.833 24.9854C76.9416 24.9653 77.0262 24.9492 77.0865 24.9371L77.4125 26.4283C77.3079 26.4685 77.159 26.5087 76.9658 26.549C76.7726 26.5933 76.5311 26.6174 76.2414 26.6214C75.7664 26.6295 75.3237 26.545 74.9132 26.3679C74.5027 26.1908 74.1707 25.9171 73.9171 25.5469C73.6636 25.1766 73.5368 24.7118 73.5368 24.1523V15.0064ZM85.7495 26.5007L83.0208 17.228H84.8862L86.7034 24.0376H86.7939L88.6171 17.228H90.4825L92.2936 24.0074H92.3841L94.1891 17.228H96.0546L93.3319 26.5007H91.4906L89.6071 19.8057H89.4683L87.5847 26.5007H85.7495ZM97.7675 26.5007V17.228H99.5726V26.5007H97.7675ZM98.6791 15.7972C98.3652 15.7972 98.0955 15.6926 97.8702 15.4833C97.6488 15.27 97.5381 15.0164 97.5381 14.7226C97.5381 14.4248 97.6488 14.1713 97.8702 13.962C98.0955 13.7487 98.3652 13.642 98.6791 13.642C98.993 13.642 99.2607 13.7487 99.482 13.962C99.7074 14.1713 99.8201 14.4248 99.8201 14.7226C99.8201 15.0164 99.7074 15.27 99.482 15.4833C99.2607 15.6926 98.993 15.7972 98.6791 15.7972ZM106.329 17.228V18.6768H101.264V17.228H106.329ZM102.623 15.0064H104.428V23.778C104.428 24.1282 104.48 24.3918 104.585 24.5689C104.689 24.7419 104.824 24.8607 104.989 24.9251C105.158 24.9854 105.341 25.0156 105.539 25.0156C105.683 25.0156 105.81 25.0056 105.919 24.9854C106.028 24.9653 106.112 24.9492 106.172 24.9371L106.498 26.4283C106.394 26.4685 106.245 26.5087 106.052 26.549C105.859 26.5933 105.617 26.6174 105.327 26.6214C104.852 26.6295 104.41 26.545 103.999 26.3679C103.589 26.1908 103.257 25.9171 103.003 25.5469C102.75 25.1766 102.623 24.7118 102.623 24.1523V15.0064ZM110.33 20.995V26.5007H108.525V14.1371H110.306V18.7372H110.421C110.638 18.2382 110.97 17.8417 111.417 17.5479C111.864 17.2541 112.447 17.1072 113.168 17.1072C113.804 17.1072 114.359 17.238 114.834 17.4996C115.313 17.7612 115.683 18.1516 115.945 18.6708C116.21 19.1859 116.343 19.8299 116.343 20.6026V26.5007H114.538V20.8199C114.538 20.1398 114.363 19.6126 114.013 19.2383C113.663 18.86 113.176 18.6708 112.552 18.6708C112.125 18.6708 111.743 18.7614 111.405 18.9425C111.071 19.1236 110.807 19.3892 110.614 19.7393C110.425 20.0855 110.33 20.504 110.33 20.995Z" fill="#E8E8E8"/>
<path d="M122.937 26.0007V13.6371H125.925V23.5739H131.069V26.0007H122.937ZM135.23 26.1577C134.638 26.1577 134.113 26.0591 133.654 25.8618C133.199 25.6606 132.839 25.3588 132.574 24.9563C132.312 24.5498 132.181 24.0407 132.181 23.429C132.181 22.9138 132.272 22.4792 132.453 22.125C132.634 21.7708 132.883 21.4831 133.201 21.2617C133.519 21.0404 133.886 20.8733 134.3 20.7606C134.715 20.6439 135.157 20.5654 135.628 20.5252C136.155 20.4769 136.58 20.4266 136.902 20.3743C137.224 20.3179 137.457 20.2395 137.602 20.1388C137.751 20.0342 137.826 19.8873 137.826 19.6981V19.668C137.826 19.3581 137.719 19.1186 137.506 18.9496C137.292 18.7805 137.005 18.696 136.642 18.696C136.252 18.696 135.938 18.7805 135.701 18.9496C135.463 19.1186 135.312 19.352 135.248 19.6498L132.525 19.5533C132.606 18.9898 132.813 18.4867 133.147 18.044C133.485 17.5973 133.948 17.2471 134.536 16.9936C135.127 16.736 135.838 16.6072 136.667 16.6072C137.258 16.6072 137.804 16.6777 138.303 16.8185C138.802 16.9554 139.236 17.1566 139.607 17.4222C139.977 17.6838 140.263 18.0058 140.464 18.3881C140.669 18.7705 140.772 19.2071 140.772 19.6981V26.0007H137.995V24.7088H137.922C137.757 25.0227 137.546 25.2883 137.288 25.5057C137.035 25.723 136.735 25.886 136.389 25.9947C136.047 26.1033 135.66 26.1577 135.23 26.1577ZM136.141 24.2258C136.459 24.2258 136.745 24.1614 136.999 24.0327C137.256 23.9039 137.461 23.7268 137.614 23.5014C137.767 23.272 137.844 23.0064 137.844 22.7045V21.8231C137.759 21.8674 137.657 21.9077 137.536 21.9439C137.419 21.9801 137.29 22.0143 137.15 22.0465C137.009 22.0787 136.864 22.1069 136.715 22.131C136.566 22.1552 136.423 22.1773 136.286 22.1974C136.009 22.2417 135.771 22.3101 135.574 22.4027C135.381 22.4953 135.232 22.616 135.127 22.7649C135.027 22.9098 134.976 23.0828 134.976 23.2841C134.976 23.59 135.085 23.8234 135.302 23.9844C135.524 24.1453 135.803 24.2258 136.141 24.2258ZM142.577 26.0007V16.728H145.444V18.4183H145.541C145.71 17.8066 145.986 17.3518 146.368 17.054C146.75 16.7521 147.195 16.6012 147.702 16.6012C147.839 16.6012 147.98 16.6113 148.125 16.6314C148.27 16.6475 148.404 16.6736 148.529 16.7099V19.2756C148.388 19.2273 148.203 19.189 147.974 19.1609C147.748 19.1327 147.547 19.1186 147.37 19.1186C147.02 19.1186 146.704 19.1971 146.422 19.354C146.145 19.507 145.925 19.7223 145.764 20C145.607 20.2737 145.529 20.5956 145.529 20.9659V26.0007H142.577ZM151.997 26.1577C151.406 26.1577 150.881 26.0591 150.422 25.8618C149.967 25.6606 149.607 25.3588 149.341 24.9563C149.08 24.5498 148.949 24.0407 148.949 23.429C148.949 22.9138 149.039 22.4792 149.22 22.125C149.401 21.7708 149.651 21.4831 149.969 21.2617C150.287 21.0404 150.653 20.8733 151.068 20.7606C151.482 20.6439 151.925 20.5654 152.396 20.5252C152.923 20.4769 153.348 20.4266 153.67 20.3743C153.992 20.3179 154.225 20.2395 154.37 20.1388C154.519 20.0342 154.593 19.8873 154.593 19.6981V19.668C154.593 19.3581 154.487 19.1186 154.273 18.9496C154.06 18.7805 153.772 18.696 153.41 18.696C153.02 18.696 152.706 18.7805 152.468 18.9496C152.231 19.1186 152.08 19.352 152.015 19.6498L149.293 19.5533C149.373 18.9898 149.581 18.4867 149.915 18.044C150.253 17.5973 150.716 17.2471 151.303 16.9936C151.895 16.736 152.605 16.6072 153.434 16.6072C154.026 16.6072 154.571 16.6777 155.07 16.8185C155.569 16.9554 156.004 17.1566 156.374 17.4222C156.744 17.6838 157.03 18.0058 157.231 18.3881C157.437 18.7705 157.539 19.2071 157.539 19.6981V26.0007H154.762V24.7088H154.69C154.525 25.0227 154.314 25.2883 154.056 25.5057C153.802 25.723 153.503 25.886 153.156 25.9947C152.814 26.1033 152.428 26.1577 151.997 26.1577ZM152.909 24.2258C153.227 24.2258 153.513 24.1614 153.766 24.0327C154.024 23.9039 154.229 23.7268 154.382 23.5014C154.535 23.272 154.611 23.0064 154.611 22.7045V21.8231C154.527 21.8674 154.424 21.9077 154.303 21.9439C154.187 21.9801 154.058 22.0143 153.917 22.0465C153.776 22.0787 153.631 22.1069 153.482 22.131C153.334 22.1552 153.191 22.1773 153.054 22.1974C152.776 22.2417 152.539 22.3101 152.341 22.4027C152.148 22.4953 151.999 22.616 151.895 22.7649C151.794 22.9098 151.744 23.0828 151.744 23.2841C151.744 23.59 151.852 23.8234 152.07 23.9844C152.291 24.1453 152.571 24.2258 152.909 24.2258ZM168.007 16.728L164.826 26.0007H161.445L158.27 16.728H161.379L163.087 23.115H163.184L164.898 16.728H168.007ZM173.175 26.1758C172.205 26.1758 171.368 25.9846 170.664 25.6023C169.963 25.2159 169.424 24.6665 169.046 23.9542C168.671 23.2378 168.484 22.3866 168.484 21.4006C168.484 20.4427 168.673 19.6056 169.052 18.8892C169.43 18.1688 169.963 17.6094 170.651 17.2109C171.34 16.8085 172.151 16.6072 173.084 16.6072C173.744 16.6072 174.348 16.7099 174.895 16.9151C175.443 17.1204 175.916 17.4242 176.314 17.8267C176.713 18.2292 177.022 18.7262 177.244 19.3178C177.465 19.9054 177.576 20.5795 177.576 21.3402V22.0767H169.517V20.3622H174.829C174.825 20.0483 174.751 19.7686 174.606 19.5231C174.461 19.2776 174.262 19.0864 174.008 18.9496C173.758 18.8087 173.471 18.7383 173.145 18.7383C172.815 18.7383 172.519 18.8127 172.257 18.9616C171.996 19.1065 171.788 19.3057 171.636 19.5593C171.483 19.8088 171.402 20.0926 171.394 20.4105V22.1552C171.394 22.5335 171.468 22.8655 171.617 23.1513C171.766 23.433 171.978 23.6523 172.251 23.8093C172.525 23.9663 172.851 24.0447 173.229 24.0447C173.491 24.0447 173.728 24.0085 173.942 23.9361C174.155 23.8636 174.338 23.757 174.491 23.6161C174.644 23.4752 174.759 23.3022 174.835 23.0969L177.546 23.1754C177.433 23.7831 177.185 24.3124 176.803 24.7631C176.425 25.2099 175.928 25.558 175.312 25.8075C174.696 26.053 173.984 26.1758 173.175 26.1758ZM182.036 13.6371V26.0007H179.084V13.6371H182.036Z" fill="#FF2D20"/>
</g>
<defs>
<filter id="filter0_d_1_56" x="2.39972" y="0.39972" width="39.202" height="39.202" filterUnits="userSpaceOnUse" color-interpolation-filters="sRGB">
<feFlood flood-opacity="0" result="BackgroundImageFix"/>
<feColorMatrix in="SourceAlpha" type="matrix" values="0 0 0 0 0 0 0 0 0 0 0 0 0 0 0 0 0 0 127 0" result="hardAlpha"/>
<feOffset/>
<feGaussianBlur stdDeviation="2.80014"/>
<feComposite in2="hardAlpha" operator="out"/>
<feColorMatrix type="matrix" values="0 0 0 0 0 0 0 0 0 0 0 0 0 0 0 0 0 0 0.25 0"/>
<feBlend mode="normal" in2="BackgroundImageFix" result="effect1_dropShadow_1_56"/>
<feBlend mode="normal" in="SourceGraphic" in2="effect1_dropShadow_1_56" result="shape"/>
</filter>
<filter id="filter1_d_1_56" x="36.2871" y="3.78642" width="152.429" height="32.4286" filterUnits="userSpaceOnUse" color-interpolation-filters="sRGB">
<feFlood flood-opacity="0" result="BackgroundImageFix"/>
<feColorMatrix in="SourceAlpha" type="matrix" values="0 0 0 0 0 0 0 0 0 0 0 0 0 0 0 0 0 0 127 0" result="hardAlpha"/>
<feOffset/>
<feGaussianBlur stdDeviation="2.85714"/>
<feComposite in2="hardAlpha" operator="out"/>
<feColorMatrix type="matrix" values="0 0 0 0 0 0 0 0 0 0 0 0 0 0 0 0 0 0 0.25 0"/>
<feBlend mode="normal" in2="BackgroundImageFix" result="effect1_dropShadow_1_56"/>
<feBlend mode="normal" in="SourceGraphic" in2="effect1_dropShadow_1_56" result="shape"/>
</filter>
<linearGradient id="paint0_linear_1_56" x1="95.5007" y1="0" x2="95.5007" y2="40.0014" gradientUnits="userSpaceOnUse">
<stop stop-color="#690600"/>
<stop offset="1" stop-color="#2D0300"/>
</linearGradient>
</defs>
</svg>
