<svg width="144" height="56" viewBox="0 0 144 56" fill="none" xmlns="http://www.w3.org/2000/svg">
<rect width="144" height="56" rx="8" fill="url(#paint0_linear_1_50)"/>
<rect x="1.05" y="1.05" width="141.9" height="53.9" rx="6.95" stroke="white" stroke-opacity="0.15" stroke-width="2.1"/>
<g filter="url(#filter0_d_1_50)">
<path fill-rule="evenodd" clip-rule="evenodd" d="M51.4587 17.049C51.4731 17.1024 51.4805 17.1574 51.4806 17.2126V25.7985C51.4806 25.9087 51.4515 26.0169 51.3963 26.1123C51.3411 26.2076 51.2616 26.2867 51.166 26.3416L43.9597 30.4905V38.7141C43.9597 38.9379 43.8408 39.1445 43.6467 39.2572L28.6042 47.9166C28.5698 47.9362 28.5322 47.9487 28.4947 47.962C28.4806 47.9667 28.4673 47.9753 28.4524 47.9792C28.3472 48.0069 28.2367 48.0069 28.1316 47.9792C28.1143 47.9745 28.0987 47.9651 28.0823 47.9589C28.0478 47.9464 28.0118 47.9354 27.979 47.9166L12.9396 39.2572C12.844 39.2023 12.7647 39.1232 12.7094 39.0278C12.6542 38.9325 12.6251 38.8243 12.625 38.7141V12.9564C12.625 12.9001 12.6328 12.8453 12.6469 12.7921C12.6516 12.7741 12.6626 12.7577 12.6688 12.7397C12.6806 12.7068 12.6915 12.6732 12.7087 12.6426C12.7205 12.6223 12.7377 12.6059 12.7518 12.5871C12.7698 12.562 12.7862 12.5362 12.8073 12.5143C12.8253 12.4963 12.8488 12.483 12.8691 12.4673C12.8918 12.4486 12.9122 12.4282 12.938 12.4134L20.4589 8.08363C20.5541 8.02884 20.662 8 20.7719 8C20.8818 8 20.9897 8.02884 21.0849 8.08363L28.605 12.4134H28.6066C28.6316 12.429 28.6527 12.4486 28.6754 12.4666C28.6958 12.4822 28.7185 12.4963 28.7365 12.5135C28.7584 12.5362 28.774 12.562 28.7928 12.5871C28.8061 12.6059 28.8241 12.6223 28.8351 12.6426C28.8531 12.6739 28.8632 12.7068 28.8757 12.7397C28.882 12.7577 28.893 12.7741 28.8977 12.7929C28.9121 12.8462 28.9194 12.9012 28.9196 12.9564V29.0444L35.1861 25.4362V17.2118C35.1861 17.157 35.1939 17.1015 35.208 17.049C35.2134 17.0303 35.2236 17.0138 35.2299 16.9958C35.2424 16.963 35.2533 16.9293 35.2706 16.8988C35.2823 16.8785 35.2995 16.862 35.3128 16.8432C35.3316 16.8182 35.3473 16.7924 35.3692 16.7705C35.3872 16.7525 35.4099 16.7392 35.4302 16.7235C35.4537 16.7047 35.474 16.6844 35.4991 16.6695L43.0207 12.3398C43.1159 12.2849 43.2239 12.256 43.3337 12.256C43.4436 12.256 43.5515 12.2849 43.6467 12.3398L51.1668 16.6695C51.1934 16.6852 51.2138 16.7047 51.2373 16.7227C51.2568 16.7384 51.2795 16.7525 51.2975 16.7697C51.3194 16.7924 51.3351 16.8182 51.3539 16.8432C51.3679 16.862 51.3852 16.8785 51.3961 16.8988C51.4141 16.9293 51.4243 16.963 51.4368 16.9958C51.4438 17.0138 51.454 17.0303 51.4587 17.049ZM50.227 25.4362V18.2964L47.5954 19.8114L43.9597 21.9046V29.0444L50.2278 25.4362H50.227ZM42.7069 38.3518V31.2073L39.1308 33.2497L28.9188 39.078V46.2898L42.7069 38.3518ZM13.8786 14.0402V38.3518L27.6652 46.289V39.0788L20.4628 35.0026L20.4604 35.001L20.4573 34.9994C20.4331 34.9854 20.4127 34.965 20.39 34.9478C20.3705 34.9321 20.3478 34.9196 20.3305 34.9024L20.329 34.9001C20.3086 34.8805 20.2946 34.8562 20.2773 34.8343C20.2617 34.8132 20.2429 34.7952 20.2304 34.7733L20.2296 34.7709C20.2155 34.7475 20.2069 34.7193 20.1967 34.6927C20.1866 34.6692 20.1733 34.6473 20.167 34.6223C20.1592 34.5925 20.1576 34.5604 20.1545 34.5299C20.1513 34.5065 20.1451 34.483 20.1451 34.4595V34.4579V17.6485L16.5102 15.5544L13.8786 14.0402ZM20.7727 9.34976L14.507 12.9564L20.7711 16.5631L27.036 12.9556L20.7711 9.34976H20.7727ZM24.0311 31.8584L27.666 29.7659V14.0402L25.0343 15.5552L21.3987 17.6485V33.3741L24.0311 31.8584ZM43.3337 13.6059L37.0688 17.2126L43.3337 20.8193L49.5979 17.2118L43.3337 13.6059ZM42.7069 21.9046L39.0713 19.8114L36.4397 18.2964V25.4362L40.0745 27.5287L42.7069 29.0444V21.9046ZM28.2912 37.9942L37.4804 32.7481L42.0739 30.1266L35.8136 26.5223L28.6058 30.6721L22.0365 34.454L28.2912 37.9942Z" fill="#FF2D20"/>
</g>
<g filter="url(#filter1_d_1_50)">
<path d="M61.2784 24.5V12.8636H65.5398C66.3655 12.8636 67.0492 13 67.5909 13.2727C68.1326 13.5417 68.5379 13.9072 68.8068 14.3693C69.0757 14.8276 69.2102 15.3447 69.2102 15.9204C69.2102 16.4053 69.1212 16.8144 68.9432 17.1477C68.7651 17.4773 68.5265 17.7424 68.2273 17.9432C67.9318 18.1401 67.606 18.2841 67.25 18.375V18.4886C67.6363 18.5076 68.0132 18.6326 68.3807 18.8636C68.7519 19.0909 69.0587 19.4148 69.3011 19.8352C69.5435 20.2557 69.6648 20.767 69.6648 21.3693C69.6648 21.964 69.5246 22.4981 69.2443 22.9716C68.9678 23.4413 68.5398 23.8144 67.9602 24.0909C67.3807 24.3636 66.6401 24.5 65.7386 24.5H61.2784ZM63.0341 22.9943H65.5682C66.4091 22.9943 67.0113 22.8314 67.375 22.5057C67.7386 22.1799 67.9204 21.7727 67.9204 21.2841C67.9204 20.9167 67.8276 20.5795 67.642 20.2727C67.4564 19.9659 67.1913 19.7216 66.8466 19.5398C66.5057 19.3579 66.1004 19.267 65.6307 19.267H63.0341V22.9943ZM63.0341 17.8977H65.3863C65.7803 17.8977 66.1345 17.822 66.4488 17.6704C66.767 17.5189 67.0189 17.3068 67.2045 17.0341C67.3939 16.7576 67.4886 16.4318 67.4886 16.0568C67.4886 15.5758 67.3201 15.1723 66.9829 14.8466C66.6458 14.5208 66.1288 14.3579 65.4318 14.3579H63.0341V17.8977ZM77.1392 20.8807V15.7727H78.8437V24.5H77.1733V22.9886H77.0824C76.8816 23.4545 76.5596 23.8428 76.1165 24.1534C75.6771 24.4602 75.1297 24.6136 74.4744 24.6136C73.9138 24.6136 73.4176 24.4905 72.9858 24.2443C72.5577 23.9943 72.2206 23.625 71.9744 23.1364C71.732 22.6477 71.6108 22.0436 71.6108 21.3239V15.7727H73.3096V21.1193C73.3096 21.714 73.4744 22.1875 73.804 22.5398C74.1335 22.892 74.5615 23.0682 75.088 23.0682C75.4062 23.0682 75.7225 22.9886 76.0369 22.8295C76.3551 22.6704 76.6184 22.4299 76.8267 22.1079C77.0388 21.786 77.143 21.3769 77.1392 20.8807ZM81.1264 24.5V15.7727H82.8253V24.5H81.1264ZM81.9844 14.4261C81.6889 14.4261 81.4351 14.3276 81.223 14.1307C81.0147 13.9299 80.9105 13.6913 80.9105 13.4148C80.9105 13.1345 81.0147 12.8958 81.223 12.6989C81.4351 12.4981 81.6889 12.3977 81.9844 12.3977C82.2798 12.3977 82.5317 12.4981 82.74 12.6989C82.9522 12.8958 83.0582 13.1345 83.0582 13.4148C83.0582 13.6913 82.9522 13.9299 82.74 14.1307C82.5317 14.3276 82.2798 14.4261 81.9844 14.4261ZM86.8096 12.8636V24.5H85.1108V12.8636H86.8096ZM93.169 15.7727V17.1364H88.402V15.7727H93.169ZM89.6804 13.6818H91.3792V21.9375C91.3792 22.267 91.4285 22.5151 91.527 22.6818C91.6254 22.8447 91.7523 22.9564 91.9076 23.017C92.0667 23.0739 92.2391 23.1023 92.4247 23.1023C92.5611 23.1023 92.6804 23.0928 92.7826 23.0739C92.8849 23.0549 92.9645 23.0398 93.0213 23.0284L93.3281 24.4318C93.2296 24.4697 93.0895 24.5076 92.9076 24.5454C92.7258 24.5871 92.4986 24.6098 92.2258 24.6136C91.7789 24.6212 91.3622 24.5417 90.9758 24.375C90.5895 24.2083 90.277 23.9508 90.0383 23.6023C89.7997 23.2538 89.6804 22.8163 89.6804 22.2898V13.6818ZM101.175 24.5L98.6065 15.7727H100.362L102.072 22.1818H102.158L103.874 15.7727H105.629L107.334 22.1534H107.419L109.118 15.7727H110.874L108.311 24.5H106.578L104.805 18.1989H104.675L102.902 24.5H101.175ZM112.486 24.5V15.7727H114.185V24.5H112.486ZM113.344 14.4261C113.048 14.4261 112.794 14.3276 112.582 14.1307C112.374 13.9299 112.27 13.6913 112.27 13.4148C112.27 13.1345 112.374 12.8958 112.582 12.6989C112.794 12.4981 113.048 12.3977 113.344 12.3977C113.639 12.3977 113.891 12.4981 114.099 12.6989C114.312 12.8958 114.418 13.1345 114.418 13.4148C114.418 13.6913 114.312 13.9299 114.099 14.1307C113.891 14.3276 113.639 14.4261 113.344 14.4261ZM120.544 15.7727V17.1364H115.777V15.7727H120.544ZM117.055 13.6818H118.754V21.9375C118.754 22.267 118.803 22.5151 118.902 22.6818C119 22.8447 119.127 22.9564 119.283 23.017C119.442 23.0739 119.614 23.1023 119.8 23.1023C119.936 23.1023 120.055 23.0928 120.158 23.0739C120.26 23.0549 120.339 23.0398 120.396 23.0284L120.703 24.4318C120.605 24.4697 120.464 24.5076 120.283 24.5454C120.101 24.5871 119.874 24.6098 119.601 24.6136C119.154 24.6212 118.737 24.5417 118.351 24.375C117.964 24.2083 117.652 23.9508 117.413 23.6023C117.175 23.2538 117.055 22.8163 117.055 22.2898V13.6818ZM124.31 19.3182V24.5H122.611V12.8636H124.287V17.1932H124.395C124.599 16.7235 124.912 16.3504 125.332 16.0739C125.753 15.7973 126.302 15.6591 126.98 15.6591C127.579 15.6591 128.101 15.7822 128.548 16.0284C128.999 16.2746 129.348 16.642 129.594 17.1307C129.844 17.6155 129.969 18.2216 129.969 18.9489V24.5H128.27V19.1534C128.27 18.5133 128.105 18.017 127.776 17.6648C127.446 17.3087 126.988 17.1307 126.401 17.1307C125.999 17.1307 125.639 17.2159 125.321 17.3864C125.007 17.5568 124.758 17.8068 124.577 18.1364C124.399 18.4621 124.31 18.8561 124.31 19.3182Z" fill="#E8E8E8"/>
<path d="M60.9357 43.5V31.1364H63.924V41.0731H69.0675V43.5H60.9357ZM73.2284 43.6569C72.6368 43.6569 72.1116 43.5583 71.6528 43.3611C71.198 43.1599 70.8378 42.8581 70.5722 42.4556C70.3106 42.0491 70.1798 41.54 70.1798 40.9283C70.1798 40.4131 70.2703 39.9784 70.4514 39.6243C70.6325 39.2701 70.8821 38.9824 71.2 38.761C71.5179 38.5396 71.8842 38.3726 72.2987 38.2599C72.7133 38.1432 73.156 38.0647 73.6268 38.0245C74.1541 37.9762 74.5787 37.9259 74.9006 37.8736C75.2226 37.8172 75.456 37.7387 75.6009 37.6381C75.7498 37.5335 75.8243 37.3866 75.8243 37.1974V37.1672C75.8243 36.8574 75.7176 36.6179 75.5043 36.4489C75.291 36.2798 75.0033 36.1953 74.641 36.1953C74.2507 36.1953 73.9367 36.2798 73.6993 36.4489C73.4618 36.6179 73.3109 36.8513 73.2465 37.1491L70.5239 37.0525C70.6044 36.4891 70.8116 35.986 71.1457 35.5433C71.4837 35.0966 71.9466 34.7464 72.5342 34.4929C73.1258 34.2353 73.8361 34.1065 74.6652 34.1065C75.2568 34.1065 75.8022 34.177 76.3012 34.3178C76.8003 34.4547 77.2349 34.6559 77.6052 34.9215C77.9754 35.1831 78.2612 35.5051 78.4624 35.8874C78.6677 36.2698 78.7703 36.7064 78.7703 37.1974V43.5H75.9933V42.2081H75.9209C75.7559 42.522 75.5446 42.7876 75.287 43.005C75.0334 43.2223 74.7336 43.3853 74.3875 43.494C74.0454 43.6026 73.659 43.6569 73.2284 43.6569ZM74.14 41.7251C74.4579 41.7251 74.7437 41.6607 74.9972 41.5319C75.2548 41.4032 75.4601 41.2261 75.613 41.0007C75.7659 40.7713 75.8424 40.5057 75.8424 40.2038V39.3224C75.7579 39.3667 75.6553 39.4069 75.5345 39.4432C75.4178 39.4794 75.289 39.5136 75.1482 39.5458C75.0073 39.578 74.8624 39.6062 74.7135 39.6303C74.5646 39.6545 74.4217 39.6766 74.2849 39.6967C74.0072 39.741 73.7697 39.8094 73.5725 39.902C73.3793 39.9945 73.2304 40.1153 73.1258 40.2642C73.0252 40.4091 72.9749 40.5821 72.9749 40.7834C72.9749 41.0892 73.0835 41.3227 73.3009 41.4837C73.5222 41.6446 73.8019 41.7251 74.14 41.7251ZM80.5754 43.5V34.2273H83.4429V35.9176H83.5395C83.7085 35.3059 83.9842 34.8511 84.3665 34.5533C84.7489 34.2514 85.1936 34.1005 85.7007 34.1005C85.8375 34.1005 85.9784 34.1105 86.1233 34.1307C86.2682 34.1468 86.403 34.1729 86.5278 34.2092V36.7748C86.3869 36.7266 86.2018 36.6883 85.9724 36.6601C85.747 36.632 85.5458 36.6179 85.3687 36.6179C85.0185 36.6179 84.7026 36.6964 84.4209 36.8533C84.1432 37.0063 83.9238 37.2216 83.7629 37.4993C83.6059 37.773 83.5274 38.0949 83.5274 38.4652V43.5H80.5754ZM89.996 43.6569C89.4044 43.6569 88.8791 43.5583 88.4203 43.3611C87.9656 43.1599 87.6054 42.8581 87.3397 42.4556C87.0781 42.0491 86.9473 41.54 86.9473 40.9283C86.9473 40.4131 87.0379 39.9784 87.219 39.6243C87.4001 39.2701 87.6496 38.9824 87.9676 38.761C88.2855 38.5396 88.6518 38.3726 89.0663 38.2599C89.4808 38.1432 89.9235 38.0647 90.3944 38.0245C90.9216 37.9762 91.3462 37.9259 91.6682 37.8736C91.9902 37.8172 92.2236 37.7387 92.3685 37.6381C92.5174 37.5335 92.5919 37.3866 92.5919 37.1974V37.1672C92.5919 36.8574 92.4852 36.6179 92.2719 36.4489C92.0586 36.2798 91.7708 36.1953 91.4086 36.1953C91.0182 36.1953 90.7043 36.2798 90.4669 36.4489C90.2294 36.6179 90.0785 36.8513 90.0141 37.1491L87.2914 37.0525C87.3719 36.4891 87.5792 35.986 87.9132 35.5433C88.2513 35.0966 88.7141 34.7464 89.3017 34.4929C89.8934 34.2353 90.6037 34.1065 91.4328 34.1065C92.0244 34.1065 92.5697 34.177 93.0688 34.3178C93.5678 34.4547 94.0025 34.6559 94.3728 34.9215C94.743 35.1831 95.0288 35.5051 95.23 35.8874C95.4353 36.2698 95.5379 36.7064 95.5379 37.1974V43.5H92.7609V42.2081H92.6885C92.5234 42.522 92.3121 42.7876 92.0546 43.005C91.801 43.2223 91.5012 43.3853 91.1551 43.494C90.813 43.6026 90.4266 43.6569 89.996 43.6569ZM90.9076 41.7251C91.2255 41.7251 91.5113 41.6607 91.7648 41.5319C92.0224 41.4032 92.2276 41.2261 92.3806 41.0007C92.5335 40.7713 92.61 40.5057 92.61 40.2038V39.3224C92.5255 39.3667 92.4228 39.4069 92.3021 39.4432C92.1854 39.4794 92.0566 39.5136 91.9157 39.5458C91.7749 39.578 91.63 39.6062 91.4811 39.6303C91.3322 39.6545 91.1893 39.6766 91.0524 39.6967C90.7747 39.741 90.5373 39.8094 90.3401 39.902C90.1469 39.9945 89.998 40.1153 89.8934 40.2642C89.7927 40.4091 89.7424 40.5821 89.7424 40.7834C89.7424 41.0892 89.8511 41.3227 90.0684 41.4837C90.2898 41.6446 90.5695 41.7251 90.9076 41.7251ZM106.006 34.2273L102.824 43.5H99.4438L96.2684 34.2273H99.3774L101.086 40.6143H101.182L102.897 34.2273H106.006ZM111.174 43.6751C110.204 43.6751 109.366 43.4839 108.662 43.1016C107.962 42.7152 107.423 42.1658 107.044 41.4535C106.67 40.7371 106.483 39.8859 106.483 38.8998C106.483 37.942 106.672 37.1049 107.05 36.3885C107.429 35.6681 107.962 35.1087 108.65 34.7102C109.338 34.3078 110.149 34.1065 111.083 34.1065C111.743 34.1065 112.347 34.2092 112.894 34.4144C113.441 34.6197 113.914 34.9235 114.313 35.326C114.711 35.7284 115.021 36.2255 115.242 36.8171C115.464 37.4047 115.574 38.0788 115.574 38.8395V39.576H107.515V37.8615H112.828C112.824 37.5476 112.749 37.2679 112.604 37.0224C112.459 36.7769 112.26 36.5857 112.007 36.4489C111.757 36.308 111.469 36.2376 111.143 36.2376C110.813 36.2376 110.518 36.312 110.256 36.4609C109.994 36.6058 109.787 36.805 109.634 37.0586C109.481 37.3081 109.401 37.5918 109.393 37.9098V39.6545C109.393 40.0328 109.467 40.3648 109.616 40.6506C109.765 40.9323 109.976 41.1516 110.25 41.3086C110.524 41.4655 110.85 41.544 111.228 41.544C111.489 41.544 111.727 41.5078 111.94 41.4354C112.154 41.3629 112.337 41.2563 112.49 41.1154C112.643 40.9745 112.757 40.8015 112.834 40.5962L115.544 40.6747C115.432 41.2824 115.184 41.8117 114.802 42.2624C114.423 42.7092 113.926 43.0573 113.311 43.3068C112.695 43.5523 111.982 43.6751 111.174 43.6751ZM120.034 31.1364V43.5H117.082V31.1364H120.034Z" fill="#FF2D20"/>
</g>
<defs>
<filter id="filter0_d_1_50" x="6.28571" y="2.28571" width="51.4286" height="51.4286" filterUnits="userSpaceOnUse" color-interpolation-filters="sRGB">
<feFlood flood-opacity="0" result="BackgroundImageFix"/>
<feColorMatrix in="SourceAlpha" type="matrix" values="0 0 0 0 0 0 0 0 0 0 0 0 0 0 0 0 0 0 127 0" result="hardAlpha"/>
<feOffset/>
<feGaussianBlur stdDeviation="2.85714"/>
<feComposite in2="hardAlpha" operator="out"/>
<feColorMatrix type="matrix" values="0 0 0 0 0 0 0 0 0 0 0 0 0 0 0 0 0 0 0.25 0"/>
<feBlend mode="normal" in2="BackgroundImageFix" result="effect1_dropShadow_1_50"/>
<feBlend mode="normal" in="SourceGraphic" in2="effect1_dropShadow_1_50" result="shape"/>
</filter>
<filter id="filter1_d_1_50" x="54.4" y="3.9" width="83.2" height="48.2" filterUnits="userSpaceOnUse" color-interpolation-filters="sRGB">
<feFlood flood-opacity="0" result="BackgroundImageFix"/>
<feColorMatrix in="SourceAlpha" type="matrix" values="0 0 0 0 0 0 0 0 0 0 0 0 0 0 0 0 0 0 127 0" result="hardAlpha"/>
<feOffset/>
<feGaussianBlur stdDeviation="2.8"/>
<feComposite in2="hardAlpha" operator="out"/>
<feColorMatrix type="matrix" values="0 0 0 0 0 0 0 0 0 0 0 0 0 0 0 0 0 0 0.25 0"/>
<feBlend mode="normal" in2="BackgroundImageFix" result="effect1_dropShadow_1_50"/>
<feBlend mode="normal" in="SourceGraphic" in2="effect1_dropShadow_1_50" result="shape"/>
</filter>
<linearGradient id="paint0_linear_1_50" x1="72" y1="0" x2="72" y2="56" gradientUnits="userSpaceOnUse">
<stop stop-color="#690600"/>
<stop offset="1" stop-color="#2D0300"/>
</linearGradient>
</defs>
</svg>
