<svg width="56" height="56" viewBox="0 0 56 56" fill="none" xmlns="http://www.w3.org/2000/svg">
<rect width="56" height="56" rx="8.4" fill="url(#paint0_linear_1_62)"/>
<rect x="1.05" y="1.05" width="53.9" height="53.9" rx="7.35" stroke="white" stroke-opacity="0.15" stroke-width="2.1"/>
<g filter="url(#filter0_d_1_62)">
<path fill-rule="evenodd" clip-rule="evenodd" d="M47.4587 17.049C47.4731 17.1024 47.4805 17.1574 47.4806 17.2126V25.7985C47.4806 25.9087 47.4515 26.0169 47.3963 26.1123C47.3411 26.2076 47.2616 26.2867 47.166 26.3416L39.9597 30.4905V38.7141C39.9597 38.9379 39.8408 39.1445 39.6467 39.2572L24.6042 47.9166C24.5698 47.9362 24.5322 47.9487 24.4947 47.962C24.4806 47.9667 24.4673 47.9753 24.4524 47.9792C24.3472 48.0069 24.2367 48.0069 24.1316 47.9792C24.1143 47.9745 24.0987 47.9651 24.0823 47.9589C24.0478 47.9464 24.0118 47.9354 23.979 47.9166L8.93958 39.2572C8.84404 39.2023 8.76465 39.1232 8.70942 39.0278C8.65419 38.9325 8.62508 38.8243 8.625 38.7141V12.9564C8.625 12.9001 8.63283 12.8453 8.64691 12.7921C8.65161 12.7741 8.66256 12.7577 8.66882 12.7397C8.68056 12.7068 8.69151 12.6732 8.70873 12.6426C8.72047 12.6223 8.73768 12.6059 8.75177 12.5871C8.76977 12.562 8.7862 12.5362 8.80733 12.5143C8.82533 12.4963 8.8488 12.483 8.86915 12.4673C8.89184 12.4486 8.91219 12.4282 8.93801 12.4134L16.4589 8.08363C16.5541 8.02884 16.662 8 16.7719 8C16.8818 8 16.9897 8.02884 17.0849 8.08363L24.605 12.4134H24.6066C24.6316 12.429 24.6527 12.4486 24.6754 12.4666C24.6958 12.4822 24.7185 12.4963 24.7365 12.5135C24.7584 12.5362 24.774 12.562 24.7928 12.5871C24.8061 12.6059 24.8241 12.6223 24.8351 12.6426C24.8531 12.6739 24.8632 12.7068 24.8757 12.7397C24.882 12.7577 24.893 12.7741 24.8977 12.7929C24.9121 12.8462 24.9194 12.9012 24.9196 12.9564V29.0444L31.1861 25.4362V17.2118C31.1861 17.157 31.1939 17.1015 31.208 17.049C31.2134 17.0303 31.2236 17.0138 31.2299 16.9958C31.2424 16.963 31.2533 16.9293 31.2706 16.8988C31.2823 16.8785 31.2995 16.862 31.3128 16.8432C31.3316 16.8182 31.3473 16.7924 31.3692 16.7705C31.3872 16.7525 31.4099 16.7392 31.4302 16.7235C31.4537 16.7047 31.474 16.6844 31.4991 16.6695L39.0207 12.3398C39.1159 12.2849 39.2239 12.256 39.3337 12.256C39.4436 12.256 39.5515 12.2849 39.6467 12.3398L47.1668 16.6695C47.1934 16.6852 47.2138 16.7047 47.2373 16.7227C47.2568 16.7384 47.2795 16.7525 47.2975 16.7697C47.3194 16.7924 47.3351 16.8182 47.3539 16.8432C47.3679 16.862 47.3852 16.8785 47.3961 16.8988C47.4141 16.9293 47.4243 16.963 47.4368 16.9958C47.4438 17.0138 47.454 17.0303 47.4587 17.049ZM46.227 25.4362V18.2964L43.5954 19.8114L39.9597 21.9046V29.0444L46.2278 25.4362H46.227ZM38.7069 38.3518V31.2073L35.1308 33.2497L24.9188 39.078V46.2898L38.7069 38.3518ZM9.87861 14.0402V38.3518L23.6652 46.289V39.0788L16.4628 35.0026L16.4604 35.001L16.4573 34.9994C16.4331 34.9854 16.4127 34.965 16.39 34.9478C16.3705 34.9321 16.3478 34.9196 16.3305 34.9024L16.329 34.9001C16.3086 34.8805 16.2946 34.8562 16.2773 34.8343C16.2617 34.8132 16.2429 34.7952 16.2304 34.7733L16.2296 34.7709C16.2155 34.7475 16.2069 34.7193 16.1967 34.6927C16.1866 34.6692 16.1733 34.6473 16.167 34.6223C16.1592 34.5925 16.1576 34.5604 16.1545 34.5299C16.1513 34.5065 16.1451 34.483 16.1451 34.4595V34.4579V17.6485L12.5102 15.5544L9.87861 14.0402ZM16.7727 9.34976L10.507 12.9564L16.7711 16.5631L23.036 12.9556L16.7711 9.34976H16.7727ZM20.0311 31.8584L23.666 29.7659V14.0402L21.0343 15.5552L17.3987 17.6485V33.3741L20.0311 31.8584ZM39.3337 13.6059L33.0688 17.2126L39.3337 20.8193L45.5979 17.2118L39.3337 13.6059ZM38.7069 21.9046L35.0713 19.8114L32.4397 18.2964V25.4362L36.0745 27.5287L38.7069 29.0444V21.9046ZM24.2912 37.9942L33.4804 32.7481L38.0739 30.1266L31.8136 26.5223L24.6058 30.6721L18.0365 34.454L24.2912 37.9942Z" fill="#FF2D20"/>
</g>
<defs>
<filter id="filter0_d_1_62" x="2.28571" y="2.28571" width="51.4286" height="51.4286" filterUnits="userSpaceOnUse" color-interpolation-filters="sRGB">
<feFlood flood-opacity="0" result="BackgroundImageFix"/>
<feColorMatrix in="SourceAlpha" type="matrix" values="0 0 0 0 0 0 0 0 0 0 0 0 0 0 0 0 0 0 127 0" result="hardAlpha"/>
<feOffset/>
<feGaussianBlur stdDeviation="2.85714"/>
<feComposite in2="hardAlpha" operator="out"/>
<feColorMatrix type="matrix" values="0 0 0 0 0 0 0 0 0 0 0 0 0 0 0 0 0 0 0.25 0"/>
<feBlend mode="normal" in2="BackgroundImageFix" result="effect1_dropShadow_1_62"/>
<feBlend mode="normal" in="SourceGraphic" in2="effect1_dropShadow_1_62" result="shape"/>
</filter>
<linearGradient id="paint0_linear_1_62" x1="28" y1="0" x2="28" y2="56" gradientUnits="userSpaceOnUse">
<stop stop-color="#690600"/>
<stop offset="1" stop-color="#2D0300"/>
</linearGradient>
</defs>
</svg>
