<svg width="216" height="40" viewBox="0 0 216 40" fill="none" xmlns="http://www.w3.org/2000/svg">
<rect width="216.001" height="40.0014" rx="8" fill="url(#paint0_linear_1_56)"/>
<rect x="1.07143" y="1.07143" width="213.858" height="37.8585" rx="6.92857" stroke="white" stroke-opacity="0.15" stroke-width="2.14286"/>
<g filter="url(#filter0_d_1_56)">
<g clip-path="url(#clip0_1_56)">
<g filter="url(#filter1_f_1_56)">
<path fill-rule="evenodd" clip-rule="evenodd" d="M9.52452 7.15886C9.38558 7.15503 9.24844 7.19097 9.12925 7.26247C9.01006 7.33397 8.91378 7.43804 8.85177 7.56243C8.78975 7.68682 8.76457 7.82636 8.77921 7.96458C8.79384 8.1028 8.84767 8.23397 8.93435 8.34262L11.0364 11.0633C10.9623 11.2576 10.9179 11.4667 10.9179 11.6877V14.021V15.6924V15.771C10.9179 16.7405 11.6984 17.521 12.6679 17.521H31.3346C32.3041 17.521 33.0846 16.7405 33.0846 15.771V13.4377V11.7663V11.6877C33.0846 11.4658 33.0396 11.256 32.9649 11.0611L35.0659 8.34262C35.1536 8.23252 35.2076 8.09939 35.2214 7.95927C35.2351 7.81915 35.208 7.67804 35.1433 7.553C35.0786 7.42795 34.9791 7.3243 34.8568 7.25457C34.7345 7.18483 34.5946 7.15201 34.454 7.16004C34.3479 7.16602 34.2444 7.19509 34.1508 7.24527C34.0571 7.29545 33.9755 7.36552 33.9117 7.45053L31.9099 10.0413C31.729 9.97841 31.5375 9.93767 31.3346 9.93767H12.6679C12.4646 9.93767 12.2727 9.97794 12.0914 10.0413L10.0885 7.45053C10.0225 7.36254 9.93757 7.29058 9.83991 7.24007C9.74225 7.18957 9.63443 7.16182 9.52452 7.15886ZM12.6679 18.1044C12.5467 18.1044 12.4288 18.1166 12.3147 18.1399C11.5158 18.301 10.9179 18.9973 10.9179 19.8375V19.8544V31.3923V31.4092V31.5209C10.9179 32.4904 11.6984 33.2709 12.6679 33.2709H31.3346C32.3041 33.2709 33.0846 32.4904 33.0846 31.5209V19.8542V19.8373C33.0846 18.9971 32.4866 18.3008 31.6878 18.1398C31.5736 18.117 31.4558 18.1042 31.3346 18.1042L12.6679 18.1044Z" fill="#263238" fill-opacity="0.4"/>
</g>
<path fill-rule="evenodd" clip-rule="evenodd" d="M34.4897 7.45834L32.0105 10.6667Z" fill="#8AB000"/>
<path d="M34.4897 7.45834L32.0105 10.6667" stroke="#769616" stroke-width="2.5" stroke-linecap="round"/>
<path fill-rule="evenodd" clip-rule="evenodd" d="M34.4766 6.72753C34.7411 6.73453 34.9209 6.83779 35.0487 6.98922C33.8663 8.39441 33.6671 8.61767 32.053 10.6184C31.4583 11.3878 30.8387 10.9901 31.4335 10.2207L33.9126 7.0124C34.0462 6.83413 34.2539 6.73354 34.4766 6.72753Z" fill="white" fill-opacity="0.298039"/>
<path fill-rule="evenodd" clip-rule="evenodd" d="M35.0536 6.99652C35.1259 7.0828 35.381 7.46588 35.0668 7.90431L32.5876 11.1126C31.9929 11.8821 31.9168 10.7555 31.9168 10.7555C31.9168 10.7555 34.0953 8.12463 35.0536 6.99652Z" fill="#263238" fill-opacity="0.2"/>
<path fill-rule="evenodd" clip-rule="evenodd" d="M34.6361 6.86457C34.8917 6.86457 35.196 6.94716 35.1169 7.33041C35.0565 7.62301 32.3981 10.8738 32.3981 10.8738C31.8034 11.6432 30.9436 11.2683 31.5383 10.499L34.0083 7.30663C34.1601 7.13746 34.3633 6.87285 34.6361 6.86457Z" fill="#8AB000"/>
<path fill-rule="evenodd" clip-rule="evenodd" d="M9.51021 7.45834L11.9894 10.6667Z" fill="#8AB000"/>
<path d="M9.51021 7.45834L11.9894 10.6667" stroke="#769616" stroke-width="2.5" stroke-linecap="round"/>
<path fill-rule="evenodd" clip-rule="evenodd" d="M9.52327 6.72753C9.25875 6.73453 9.07895 6.83779 8.95117 6.98922C10.1335 8.39441 10.3327 8.61767 11.9469 10.6184C12.5416 11.3878 13.1611 10.9901 12.5664 10.2207L10.0872 7.0124C9.95366 6.83413 9.74594 6.73354 9.52327 6.72753Z" fill="white" fill-opacity="0.298039"/>
<path fill-rule="evenodd" clip-rule="evenodd" d="M8.94622 6.99652C8.87395 7.0828 8.61887 7.46588 8.93311 7.90431L11.4123 11.1126C12.007 11.8821 12.083 10.7555 12.083 10.7555C12.083 10.7555 9.9046 8.12463 8.94622 6.99652Z" fill="#263238" fill-opacity="0.2"/>
<path fill-rule="evenodd" clip-rule="evenodd" d="M9.36377 6.86457C9.10817 6.86457 8.80385 6.94716 8.88298 7.33041C8.94339 7.62301 11.6018 10.8738 11.6018 10.8738C12.1965 11.6432 13.0563 11.2683 12.4616 10.499L9.99154 7.30663C9.83973 7.13746 9.63657 6.87285 9.36377 6.86457Z" fill="#8AB000"/>
<path d="M31.3333 9.5H12.6667C11.7002 9.5 10.9167 10.2835 10.9167 11.25V15.3333C10.9167 16.2998 11.7002 17.0833 12.6667 17.0833H31.3333C32.2998 17.0833 33.0833 16.2998 33.0833 15.3333V11.25C33.0833 10.2835 32.2998 9.5 31.3333 9.5Z" fill="#AEEA00"/>
<path d="M31.3333 11.25H12.6667C11.7002 11.25 10.9167 12.0335 10.9167 13V15.3333C10.9167 16.2998 11.7002 17.0833 12.6667 17.0833H31.3333C32.2998 17.0833 33.0833 16.2998 33.0833 15.3333V13C33.0833 12.0335 32.2998 11.25 31.3333 11.25Z" fill="#263238" fill-opacity="0.2"/>
<path d="M31.3333 9.5H12.6667C11.7002 9.5 10.9167 10.2835 10.9167 11.25V13.5833C10.9167 14.5498 11.7002 15.3333 12.6667 15.3333H31.3333C32.2998 15.3333 33.0833 14.5498 33.0833 13.5833V11.25C33.0833 10.2835 32.2998 9.5 31.3333 9.5Z" fill="white" fill-opacity="0.298039"/>
<path d="M31.3333 10.0833H12.6667C11.7002 10.0833 10.9167 10.7463 10.9167 11.5641V15.0192C10.9167 15.837 11.7002 16.5 12.6667 16.5H31.3333C32.2998 16.5 33.0833 15.837 33.0833 15.0192V11.5641C33.0833 10.7463 32.2998 10.0833 31.3333 10.0833Z" fill="#AEEA00"/>
<path d="M31.3333 17.6667H12.6667C11.7002 17.6667 10.9167 18.4502 10.9167 19.4167V31.0833C10.9167 32.0498 11.7002 32.8333 12.6667 32.8333H31.3333C32.2998 32.8333 33.0833 32.0498 33.0833 31.0833V19.4167C33.0833 18.4502 32.2998 17.6667 31.3333 17.6667Z" fill="#1976D2"/>
<path d="M31.3333 25.25H12.6667C11.7002 25.25 10.9167 26.0335 10.9167 27V31.0833C10.9167 32.0498 11.7002 32.8333 12.6667 32.8333H31.3333C32.2998 32.8333 33.0833 32.0498 33.0833 31.0833V27C33.0833 26.0335 32.2998 25.25 31.3333 25.25Z" fill="#263238" fill-opacity="0.2"/>
<path d="M31.3333 17.6667H12.6667C11.7002 17.6667 10.9167 18.4502 10.9167 19.4167V23.5C10.9167 24.4665 11.7002 25.25 12.6667 25.25H31.3333C32.2998 25.25 33.0833 24.4665 33.0833 23.5V19.4167C33.0833 18.4502 32.2998 17.6667 31.3333 17.6667Z" fill="white" fill-opacity="0.2"/>
<path d="M31.3333 18.25H12.6667C11.7002 18.25 10.9167 18.9733 10.9167 19.8654V30.6347C10.9167 31.5268 11.7002 32.25 12.6667 32.25H31.3333C32.2998 32.25 33.0833 31.5268 33.0833 30.6347V19.8654C33.0833 18.9733 32.2998 18.25 31.3333 18.25Z" fill="#1976D2"/>
<path d="M22 21.6041C20.3196 21.6041 18.8968 22.7619 18.4806 24.3169H20.3548C20.6782 23.7421 21.2853 23.3541 22 23.3541C23.0574 23.3541 23.8958 24.1926 23.8958 25.25C23.8958 26.3074 23.0574 27.1458 22 27.1458C21.2374 27.1458 20.5934 26.7067 20.291 26.0669H18.451C18.8257 27.6802 20.2779 28.8958 22 28.8958C24.0032 28.8958 25.6458 27.2531 25.6458 25.25C25.6458 23.2468 24.0032 21.6041 22 21.6041Z" fill="#0D47A1"/>
<path d="M22 30.8208C25.0767 30.8208 27.5708 28.3267 27.5708 25.25C27.5708 22.1733 25.0767 19.6791 22 19.6791C18.9233 19.6791 16.4292 22.1733 16.4292 25.25C16.4292 28.3267 18.9233 30.8208 22 30.8208Z" stroke="#0D47A1" stroke-width="1.9" stroke-linecap="round"/>
<path d="M16.3854 15.625C17.4727 15.625 18.3542 14.613 18.3542 13.3646C18.3542 12.1162 17.4727 11.1042 16.3854 11.1042C15.2981 11.1042 14.4167 12.1162 14.4167 13.3646C14.4167 14.613 15.2981 15.625 16.3854 15.625Z" fill="#263238" fill-opacity="0.2"/>
<path d="M16.3854 15.625C17.4727 15.625 18.3542 14.7436 18.3542 13.6563C18.3542 12.5689 17.4727 11.6875 16.3854 11.6875C15.2981 11.6875 14.4167 12.5689 14.4167 13.6563C14.4167 14.7436 15.2981 15.625 16.3854 15.625Z" fill="white"/>
<path d="M27.7604 15.625C28.8477 15.625 29.7292 14.613 29.7292 13.3646C29.7292 12.1162 28.8477 11.1042 27.7604 11.1042C26.6731 11.1042 25.7917 12.1162 25.7917 13.3646C25.7917 14.613 26.6731 15.625 27.7604 15.625Z" fill="#263238" fill-opacity="0.2"/>
<path d="M27.7604 15.625C28.8477 15.625 29.7292 14.7436 29.7292 13.6563C29.7292 12.5689 28.8477 11.6875 27.7604 11.6875C26.6731 11.6875 25.7917 12.5689 25.7917 13.6563C25.7917 14.7436 26.6731 15.625 27.7604 15.625Z" fill="white"/>
<path fill-rule="evenodd" clip-rule="evenodd" d="M9.52452 6.72129C9.38558 6.71746 9.24844 6.7534 9.12925 6.8249C9.01006 6.8964 8.91378 7.00051 8.85177 7.1249C8.78975 7.24929 8.76457 7.38879 8.77921 7.52701C8.79384 7.66523 8.84767 7.7964 8.93435 7.90505L11.0364 10.6258C10.9623 10.8201 10.9179 11.0292 10.9179 11.2501V13.5835V15.2548V15.3335C10.9179 16.303 11.6984 17.0835 12.6679 17.0835H31.3346C32.3041 17.0835 33.0846 16.303 33.0846 15.3335V13.0001V11.3288V11.2501C33.0846 11.0283 33.0396 10.8185 32.9649 10.6235L35.0659 7.90505C35.1536 7.79496 35.2076 7.66182 35.2214 7.5217C35.2351 7.38159 35.208 7.24048 35.1433 7.11543C35.0786 6.99038 34.9791 6.88673 34.8568 6.817C34.7345 6.74726 34.5946 6.71444 34.454 6.72247C34.3479 6.72845 34.2444 6.75756 34.1508 6.80774C34.0571 6.85792 33.9755 6.92795 33.9117 7.01296L31.9099 9.60378C31.729 9.54084 31.5375 9.50014 31.3346 9.50014H12.6679C12.4646 9.50014 12.2727 9.54037 12.0914 9.60378L10.0885 7.01296C10.0225 6.92497 9.93757 6.85305 9.83991 6.80254C9.74225 6.75203 9.63443 6.72425 9.52452 6.72129ZM12.6679 17.6668C12.5467 17.6668 12.4288 17.679 12.3147 17.7023C11.5158 17.8634 10.9179 18.5598 10.9179 19.3999V19.4169V30.9548V30.9717V31.0833C10.9179 32.0528 11.6984 32.8333 12.6679 32.8333H31.3346C32.3041 32.8333 33.0846 32.0528 33.0846 31.0833V19.4167V19.3998C33.0846 18.5596 32.4866 17.8633 31.6878 17.7022C31.5736 17.6794 31.4558 17.6666 31.3346 17.6666L12.6679 17.6668Z" fill="url(#paint1_radial_1_56)"/>
</g>
</g>
<g filter="url(#filter2_d_1_56)">
<path d="M44.4041 26.5007H42.424L46.8732 14.1371H49.0284L53.4776 26.5007H51.4975L48.0021 16.3828H47.9055L44.4041 26.5007ZM44.7361 21.6591H51.1594V23.2287H44.7361V21.6591ZM61.8886 17.228L58.526 26.5007H56.5942L53.2256 17.228H55.1634L57.5118 24.3636H57.6084L59.9507 17.228H61.8886ZM66.0178 26.706C65.4302 26.706 64.899 26.5973 64.4241 26.38C63.9492 26.1586 63.5729 25.8386 63.2952 25.4201C63.0215 25.0015 62.8846 24.4884 62.8846 23.8807C62.8846 23.3575 62.9853 22.9268 63.1865 22.5888C63.3877 22.2507 63.6594 21.9831 64.0015 21.7859C64.3436 21.5886 64.7259 21.4397 65.1485 21.3391C65.5711 21.2385 66.0017 21.162 66.4404 21.1097C66.9958 21.0453 67.4466 20.993 67.7927 20.9528C68.1388 20.9085 68.3903 20.8381 68.5473 20.7415C68.7042 20.6449 68.7827 20.4879 68.7827 20.2706V20.2283C68.7827 19.7011 68.6338 19.2926 68.336 19.0028C68.0422 18.7131 67.6035 18.5682 67.0199 18.5682C66.4122 18.5682 65.9333 18.703 65.5832 18.9726C65.237 19.2383 64.9976 19.5341 64.8648 19.8601L63.1684 19.4737C63.3696 18.9103 63.6634 18.4555 64.0498 18.1094C64.4402 17.7592 64.8889 17.5057 65.396 17.3487C65.9031 17.1877 66.4364 17.1072 66.9958 17.1072C67.3661 17.1072 67.7585 17.1515 68.173 17.24C68.5916 17.3246 68.9819 17.4815 69.3442 17.7109C69.7104 17.9403 70.0102 18.2683 70.2437 18.6949C70.4771 19.1175 70.5938 19.6669 70.5938 20.343V26.5007H68.831V25.2329H68.7586C68.6419 25.4664 68.4668 25.6958 68.2334 25.9212C67.9999 26.1465 67.7001 26.3337 67.3339 26.4826C66.9676 26.6315 66.5289 26.706 66.0178 26.706ZM66.4102 25.2571C66.9093 25.2571 67.3359 25.1585 67.69 24.9613C68.0482 24.7641 68.3199 24.5065 68.505 24.1886C68.6942 23.8666 68.7888 23.5225 68.7888 23.1562V21.9609C68.7244 22.0253 68.5996 22.0857 68.4145 22.142C68.2334 22.1944 68.0261 22.2406 67.7927 22.2809C67.5592 22.3171 67.3319 22.3513 67.1105 22.3835C66.8891 22.4117 66.704 22.4358 66.5551 22.456C66.205 22.5002 65.885 22.5747 65.5952 22.6793C65.3095 22.784 65.0801 22.9349 64.907 23.1321C64.738 23.3253 64.6535 23.5828 64.6535 23.9048C64.6535 24.3515 64.8185 24.6896 65.1485 24.919C65.4785 25.1444 65.8991 25.2571 66.4102 25.2571ZM72.998 26.5007V17.228H74.8031V26.5007H72.998ZM73.9096 15.7972C73.5957 15.7972 73.326 15.6926 73.1006 15.4833C72.8793 15.27 72.7686 15.0164 72.7686 14.7226C72.7686 14.4248 72.8793 14.1713 73.1006 13.962C73.326 13.7487 73.5957 13.642 73.9096 13.642C74.2235 13.642 74.4911 13.7487 74.7125 13.962C74.9379 14.1713 75.0506 14.4248 75.0506 14.7226C75.0506 15.0164 74.9379 15.27 74.7125 15.4833C74.4911 15.6926 74.2235 15.7972 73.9096 15.7972ZM79.0365 14.1371V26.5007H77.2314V14.1371H79.0365ZM84.1633 26.706C83.5757 26.706 83.0445 26.5973 82.5696 26.38C82.0947 26.1586 81.7184 25.8386 81.4407 25.4201C81.167 25.0015 81.0301 24.4884 81.0301 23.8807C81.0301 23.3575 81.1308 22.9268 81.332 22.5888C81.5332 22.2507 81.8049 21.9831 82.147 21.7859C82.4891 21.5886 82.8714 21.4397 83.294 21.3391C83.7166 21.2385 84.1472 21.162 84.5859 21.1097C85.1413 21.0453 85.5921 20.993 85.9382 20.9528C86.2843 20.9085 86.5358 20.8381 86.6928 20.7415C86.8497 20.6449 86.9282 20.4879 86.9282 20.2706V20.2283C86.9282 19.7011 86.7793 19.2926 86.4815 19.0028C86.1877 18.7131 85.749 18.5682 85.1654 18.5682C84.5577 18.5682 84.0788 18.703 83.7287 18.9726C83.3825 19.2383 83.1431 19.5341 83.0103 19.8601L81.3139 19.4737C81.5151 18.9103 81.8089 18.4555 82.1953 18.1094C82.5857 17.7592 83.0344 17.5057 83.5415 17.3487C84.0486 17.1877 84.5819 17.1072 85.1413 17.1072C85.5116 17.1072 85.904 17.1515 86.3185 17.24C86.7371 17.3246 87.1274 17.4815 87.4897 17.7109C87.8559 17.9403 88.1557 18.2683 88.3892 18.6949C88.6226 19.1175 88.7393 19.6669 88.7393 20.343V26.5007H86.9765V25.2329H86.9041C86.7874 25.4664 86.6123 25.6958 86.3789 25.9212C86.1454 26.1465 85.8456 26.3337 85.4794 26.4826C85.1131 26.6315 84.6744 26.706 84.1633 26.706ZM84.5557 25.2571C85.0548 25.2571 85.4814 25.1585 85.8355 24.9613C86.1937 24.7641 86.4654 24.5065 86.6505 24.1886C86.8397 23.8666 86.9343 23.5225 86.9343 23.1562V21.9609C86.8699 22.0253 86.7451 22.0857 86.56 22.142C86.3789 22.1944 86.1716 22.2406 85.9382 22.2809C85.7047 22.3171 85.4774 22.3513 85.256 22.3835C85.0346 22.4117 84.8495 22.4358 84.7006 22.456C84.3505 22.5002 84.0305 22.5747 83.7407 22.6793C83.455 22.784 83.2256 22.9349 83.0525 23.1321C82.8835 23.3253 82.799 23.5828 82.799 23.9048C82.799 24.3515 82.964 24.6896 83.294 24.919C83.624 25.1444 84.0446 25.2571 84.5557 25.2571ZM91.2884 26.5007V14.1371H93.0934V18.7312H93.2021C93.3067 18.538 93.4577 18.3146 93.6549 18.0611C93.8521 17.8075 94.1258 17.5862 94.4759 17.397C94.826 17.2038 95.2889 17.1072 95.8644 17.1072C96.613 17.1072 97.2811 17.2964 97.8687 17.6747C98.4563 18.053 98.9171 18.5984 99.2511 19.3107C99.5892 20.0231 99.7582 20.8803 99.7582 21.8824C99.7582 22.8846 99.5912 23.7438 99.2571 24.4602C98.9231 25.1726 98.4643 25.7219 97.8807 26.1083C97.2972 26.4906 96.6311 26.6818 95.8825 26.6818C95.3191 26.6818 94.8582 26.5872 94.5 26.3981C94.1459 26.2089 93.8682 25.9876 93.667 25.734C93.4657 25.4805 93.3108 25.2551 93.2021 25.0579H93.0512V26.5007H91.2884ZM93.0572 21.8643C93.0572 22.5163 93.1518 23.0878 93.341 23.5788C93.5301 24.0698 93.8038 24.4542 94.162 24.7319C94.5202 25.0056 94.9589 25.1424 95.478 25.1424C96.0173 25.1424 96.4681 24.9995 96.8303 24.7138C97.1925 24.424 97.4662 24.0316 97.6513 23.5366C97.8405 23.0415 97.9351 22.4841 97.9351 21.8643C97.9351 21.2526 97.8425 20.7032 97.6574 20.2163C97.4763 19.7293 97.2026 19.3449 96.8363 19.0632C96.4741 18.7815 96.0214 18.6406 95.478 18.6406C94.9548 18.6406 94.5121 18.7754 94.1499 19.0451C93.7917 19.3147 93.5201 19.691 93.3349 20.174C93.1498 20.6569 93.0572 21.2204 93.0572 21.8643ZM103.59 14.1371V26.5007H101.785V14.1371H103.59ZM110.015 26.6878C109.101 26.6878 108.315 26.4926 107.655 26.1023C106.999 25.7078 106.491 25.1545 106.133 24.4421C105.779 23.7257 105.602 22.8866 105.602 21.9247C105.602 20.9749 105.779 20.1378 106.133 19.4133C106.491 18.6889 106.99 18.1234 107.63 17.717C108.274 17.3105 109.027 17.1072 109.888 17.1072C110.411 17.1072 110.918 17.1938 111.409 17.3668C111.9 17.5399 112.341 17.8115 112.732 18.1818C113.122 18.5521 113.43 19.033 113.655 19.6246C113.881 20.2122 113.993 20.9266 113.993 21.7677V22.4077H106.622V21.0554H112.224C112.224 20.5805 112.128 20.1599 111.935 19.7937C111.742 19.4234 111.47 19.1316 111.12 18.9183C110.774 18.705 110.367 18.5984 109.9 18.5984C109.393 18.5984 108.95 18.7231 108.572 18.9726C108.198 19.2181 107.908 19.5401 107.703 19.9386C107.502 20.333 107.401 20.7616 107.401 21.2244V22.2809C107.401 22.9007 107.51 23.4279 107.727 23.8626C107.948 24.2972 108.256 24.6292 108.651 24.8587C109.045 25.084 109.506 25.1967 110.033 25.1967C110.375 25.1967 110.687 25.1484 110.969 25.0518C111.251 24.9512 111.494 24.8023 111.699 24.6051C111.905 24.4079 112.061 24.1644 112.17 23.8746L113.879 24.1825C113.742 24.6856 113.496 25.1263 113.142 25.5046C112.792 25.8789 112.351 26.1707 111.82 26.38C111.293 26.5852 110.691 26.6878 110.015 26.6878ZM124.401 26.6878C123.532 26.6878 122.773 26.4886 122.125 26.0902C121.477 25.6917 120.974 25.1343 120.616 24.418C120.258 23.7016 120.079 22.8645 120.079 21.9066C120.079 20.9447 120.258 20.1036 120.616 19.3832C120.974 18.6627 121.477 18.1033 122.125 17.7049C122.773 17.3065 123.532 17.1072 124.401 17.1072C125.27 17.1072 126.029 17.3065 126.677 17.7049C127.325 18.1033 127.828 18.6627 128.186 19.3832C128.544 20.1036 128.723 20.9447 128.723 21.9066C128.723 22.8645 128.544 23.7016 128.186 24.418C127.828 25.1343 127.325 25.6917 126.677 26.0902C126.029 26.4886 125.27 26.6878 124.401 26.6878ZM124.407 25.1726C124.97 25.1726 125.437 25.0237 125.808 24.7258C126.178 24.428 126.452 24.0316 126.629 23.5366C126.81 23.0415 126.9 22.4962 126.9 21.9006C126.9 21.3089 126.81 20.7656 126.629 20.2706C126.452 19.7715 126.178 19.3711 125.808 19.0692C125.437 18.7674 124.97 18.6165 124.407 18.6165C123.84 18.6165 123.369 18.7674 122.994 19.0692C122.624 19.3711 122.348 19.7715 122.167 20.2706C121.99 20.7656 121.902 21.3089 121.902 21.9006C121.902 22.4962 121.99 23.0415 122.167 23.5366C122.348 24.0316 122.624 24.428 122.994 24.7258C123.369 25.0237 123.84 25.1726 124.407 25.1726ZM132.543 20.995V26.5007H130.738V17.228H132.471V18.7372H132.586C132.799 18.2462 133.133 17.8518 133.588 17.554C134.046 17.2561 134.624 17.1072 135.32 17.1072C135.952 17.1072 136.506 17.24 136.98 17.5057C137.455 17.7673 137.824 18.1577 138.085 18.6768C138.347 19.196 138.478 19.8379 138.478 20.6026V26.5007H136.673V20.8199C136.673 20.1478 136.497 19.6226 136.147 19.2443C135.797 18.862 135.316 18.6708 134.704 18.6708C134.286 18.6708 133.914 18.7614 133.588 18.9425C133.266 19.1236 133.01 19.3892 132.821 19.7393C132.636 20.0855 132.543 20.504 132.543 20.995Z" fill="#E8E8E8"/>
<path d="M144.937 26.0007V13.6371H153.377V16.0639H147.925V18.5994H152.839V21.0323H147.925V26.0007H144.937ZM160.816 18.6839V20.9538H155.093V18.6839H160.816ZM167.47 26.0007H162.9V13.6371H167.464C168.724 13.6371 169.808 13.8846 170.718 14.3796C171.631 14.8706 172.336 15.5789 172.831 16.5046C173.326 17.4262 173.573 18.529 173.573 19.8128C173.573 21.1007 173.326 22.2075 172.831 23.1332C172.34 24.0588 171.637 24.7692 170.724 25.2642C169.81 25.7552 168.726 26.0007 167.47 26.0007ZM165.888 23.4531H167.355C168.047 23.4531 168.633 23.3364 169.112 23.103C169.595 22.8655 169.959 22.4812 170.205 21.9499C170.454 21.4146 170.579 20.7023 170.579 19.8128C170.579 18.9234 170.454 18.2151 170.205 17.6878C169.955 17.1566 169.587 16.7743 169.1 16.5408C168.617 16.3034 168.021 16.1846 167.313 16.1846H165.888V23.4531ZM175.318 26.0007V16.728H178.185V18.4183H178.282C178.451 17.8066 178.727 17.3518 179.109 17.054C179.491 16.7521 179.936 16.6012 180.443 16.6012C180.58 16.6012 180.721 16.6113 180.866 16.6314C181.011 16.6475 181.146 16.6736 181.27 16.7099V19.2756C181.129 19.2273 180.944 19.189 180.715 19.1609C180.49 19.1327 180.288 19.1186 180.111 19.1186C179.761 19.1186 179.445 19.1971 179.163 19.354C178.886 19.507 178.666 19.7223 178.505 20C178.348 20.2737 178.27 20.5956 178.27 20.9659V26.0007H175.318ZM186.32 26.1758C185.346 26.1758 184.509 25.9765 183.809 25.5781C183.113 25.1757 182.575 24.6162 182.197 23.8998C181.823 23.1794 181.636 22.3443 181.636 21.3945C181.636 20.4407 181.823 19.6056 182.197 18.8892C182.575 18.1688 183.113 17.6094 183.809 17.2109C184.509 16.8085 185.346 16.6072 186.32 16.6072C187.294 16.6072 188.129 16.8085 188.826 17.2109C189.526 17.6094 190.063 18.1688 190.437 18.8892C190.816 19.6056 191.005 20.4407 191.005 21.3945C191.005 22.3443 190.816 23.1794 190.437 23.8998C190.063 24.6162 189.526 25.1757 188.826 25.5781C188.129 25.9765 187.294 26.1758 186.32 26.1758ZM186.338 23.9481C186.693 23.9481 186.992 23.8395 187.238 23.6221C187.483 23.4048 187.671 23.103 187.799 22.7166C187.932 22.3302 187.999 21.8835 187.999 21.3764C187.999 20.8613 187.932 20.4105 187.799 20.0241C187.671 19.6378 187.483 19.3359 187.238 19.1186C186.992 18.9013 186.693 18.7926 186.338 18.7926C185.972 18.7926 185.662 18.9013 185.409 19.1186C185.159 19.3359 184.968 19.6378 184.835 20.0241C184.706 20.4105 184.642 20.8613 184.642 21.3764C184.642 21.8835 184.706 22.3302 184.835 22.7166C184.968 23.103 185.159 23.4048 185.409 23.6221C185.662 23.8395 185.972 23.9481 186.338 23.9481ZM192.517 26.0007V16.728H195.469V26.0007H192.517ZM193.996 15.6474C193.582 15.6474 193.225 15.5105 192.928 15.2369C192.63 14.9592 192.481 14.6251 192.481 14.2347C192.481 13.8484 192.63 13.5183 192.928 13.2447C193.225 12.967 193.582 12.8281 193.996 12.8281C194.415 12.8281 194.771 12.967 195.065 13.2447C195.363 13.5183 195.511 13.8484 195.511 14.2347C195.511 14.6251 195.363 14.9592 195.065 15.2369C194.771 15.5105 194.415 15.6474 193.996 15.6474ZM200.735 26.1335C200.051 26.1335 199.429 25.9564 198.87 25.6023C198.31 25.2481 197.863 24.7168 197.529 24.0085C197.195 23.3002 197.028 22.4208 197.028 21.3704C197.028 20.2797 197.201 19.3822 197.547 18.6779C197.894 17.9736 198.346 17.4524 198.906 17.1143C199.469 16.7763 200.075 16.6072 200.723 16.6072C201.21 16.6072 201.626 16.6918 201.973 16.8608C202.319 17.0258 202.604 17.2391 202.83 17.5007C203.055 17.7623 203.226 18.034 203.343 18.3157H203.403V13.6371H206.355V26.0007H203.433V24.4975H203.343C203.218 24.7832 203.041 25.0509 202.812 25.3004C202.582 25.5499 202.294 25.7512 201.948 25.9041C201.606 26.057 201.202 26.1335 200.735 26.1335ZM201.761 23.8334C202.119 23.8334 202.425 23.7328 202.679 23.5316C202.932 23.3263 203.128 23.0386 203.264 22.6683C203.401 22.298 203.47 21.8634 203.47 21.3643C203.47 20.8572 203.401 20.4206 203.264 20.0543C203.132 19.6881 202.936 19.4064 202.679 19.2092C202.425 19.0119 202.119 18.9133 201.761 18.9133C201.395 18.9133 201.085 19.014 200.832 19.2152C200.578 19.4164 200.385 19.7002 200.252 20.0664C200.123 20.4326 200.059 20.8653 200.059 21.3643C200.059 21.8634 200.125 22.298 200.258 22.6683C200.391 23.0386 200.582 23.3263 200.832 23.5316C201.085 23.7328 201.395 23.8334 201.761 23.8334Z" fill="url(#paint2_linear_1_56)"/>
</g>
<defs>
<filter id="filter0_d_1_56" x="2.39972" y="0.39972" width="39.202" height="39.202" filterUnits="userSpaceOnUse" color-interpolation-filters="sRGB">
<feFlood flood-opacity="0" result="BackgroundImageFix"/>
<feColorMatrix in="SourceAlpha" type="matrix" values="0 0 0 0 0 0 0 0 0 0 0 0 0 0 0 0 0 0 127 0" result="hardAlpha"/>
<feOffset/>
<feGaussianBlur stdDeviation="2.80014"/>
<feComposite in2="hardAlpha" operator="out"/>
<feColorMatrix type="matrix" values="0 0 0 0 0 0 0 0 0 0 0 0 0 0 0 0 0 0 0.25 0"/>
<feBlend mode="normal" in2="BackgroundImageFix" result="effect1_dropShadow_1_56"/>
<feBlend mode="normal" in="SourceGraphic" in2="effect1_dropShadow_1_56" result="shape"/>
</filter>
<filter id="filter1_f_1_56" x="7.87409" y="6.25752" width="28.2518" height="27.9144" filterUnits="userSpaceOnUse" color-interpolation-filters="sRGB">
<feFlood flood-opacity="0" result="BackgroundImageFix"/>
<feBlend mode="normal" in="SourceGraphic" in2="BackgroundImageFix" result="shape"/>
<feGaussianBlur stdDeviation="0.450532" result="effect1_foregroundBlur_1_56"/>
</filter>
<filter id="filter2_d_1_56" x="36.2871" y="3.78642" width="177.429" height="32.4286" filterUnits="userSpaceOnUse" color-interpolation-filters="sRGB">
<feFlood flood-opacity="0" result="BackgroundImageFix"/>
<feColorMatrix in="SourceAlpha" type="matrix" values="0 0 0 0 0 0 0 0 0 0 0 0 0 0 0 0 0 0 127 0" result="hardAlpha"/>
<feOffset/>
<feGaussianBlur stdDeviation="2.85714"/>
<feComposite in2="hardAlpha" operator="out"/>
<feColorMatrix type="matrix" values="0 0 0 0 0 0 0 0 0 0 0 0 0 0 0 0 0 0 0.25 0"/>
<feBlend mode="normal" in2="BackgroundImageFix" result="effect1_dropShadow_1_56"/>
<feBlend mode="normal" in="SourceGraphic" in2="effect1_dropShadow_1_56" result="shape"/>
</filter>
<linearGradient id="paint0_linear_1_56" x1="108.001" y1="0" x2="108.001" y2="40.0014" gradientUnits="userSpaceOnUse">
<stop stop-color="#0F477E"/>
<stop offset="1" stop-color="#0B355E"/>
</linearGradient>
<radialGradient id="paint1_radial_1_56" cx="0" cy="0" r="1" gradientUnits="userSpaceOnUse" gradientTransform="translate(8.77662 6.7218) rotate(90) scale(26.1159 28)">
<stop stop-color="white" stop-opacity="0.0980392"/>
<stop offset="1" stop-color="white" stop-opacity="0"/>
</radialGradient>
<linearGradient id="paint2_linear_1_56" x1="145" y1="20" x2="206.5" y2="20" gradientUnits="userSpaceOnUse">
<stop stop-color="#BAF411"/>
<stop offset="1" stop-color="#36AACF"/>
</linearGradient>
<clipPath id="clip0_1_56">
<rect width="28" height="28" fill="white" transform="translate(8 6)"/>
</clipPath>
</defs>
</svg>
