<svg width="40" height="40" viewBox="0 0 40 40" fill="none" xmlns="http://www.w3.org/2000/svg">
<rect width="40" height="40" rx="8" fill="url(#paint0_linear_1_68)"/>
<rect x="1.05" y="1.05" width="37.9" height="37.9" rx="6.95" stroke="white" stroke-opacity="0.15" stroke-width="2.1"/>
<g filter="url(#filter0_d_1_68)">
<g clip-path="url(#clip0_1_68)">
<g filter="url(#filter1_f_1_68)">
<path fill-rule="evenodd" clip-rule="evenodd" d="M7.52452 7.15886C7.38558 7.15503 7.24844 7.19097 7.12925 7.26247C7.01005 7.33397 6.91378 7.43804 6.85177 7.56243C6.78975 7.68682 6.76457 7.82636 6.77921 7.96458C6.79384 8.1028 6.84767 8.23397 6.93435 8.34262L9.0364 11.0633C8.96232 11.2576 8.91791 11.4667 8.91791 11.6877V14.021V15.6924V15.771C8.91791 16.7405 9.69841 17.521 10.6679 17.521H29.3346C30.3041 17.521 31.0846 16.7405 31.0846 15.771V13.4377V11.7663V11.6877C31.0846 11.4658 31.0396 11.256 30.9649 11.0611L33.0659 8.34262C33.1536 8.23252 33.2076 8.09939 33.2214 7.95927C33.2351 7.81915 33.208 7.67804 33.1433 7.553C33.0786 7.42795 32.9791 7.3243 32.8568 7.25457C32.7345 7.18483 32.5946 7.15201 32.454 7.16004C32.3479 7.16602 32.2444 7.19509 32.1508 7.24527C32.0571 7.29545 31.9755 7.36552 31.9117 7.45053L29.9099 10.0413C29.729 9.97841 29.5375 9.93767 29.3346 9.93767H10.6679C10.4646 9.93767 10.2727 9.97794 10.0914 10.0413L8.08848 7.45053C8.02255 7.36254 7.93757 7.29058 7.83991 7.24007C7.74225 7.18957 7.63443 7.16182 7.52452 7.15886ZM10.6679 18.1044C10.5467 18.1044 10.4288 18.1166 10.3147 18.1399C9.51584 18.301 8.91791 18.9973 8.91791 19.8375V19.8544V31.3923V31.4092V31.5209C8.91791 32.4904 9.69841 33.2709 10.6679 33.2709H29.3346C30.3041 33.2709 31.0846 32.4904 31.0846 31.5209V19.8542V19.8373C31.0846 18.9971 30.4866 18.3008 29.6878 18.1398C29.5736 18.117 29.4558 18.1042 29.3346 18.1042L10.6679 18.1044Z" fill="#263238" fill-opacity="0.4"/>
</g>
<path fill-rule="evenodd" clip-rule="evenodd" d="M32.4897 7.45834L30.0105 10.6667Z" fill="#8AB000"/>
<path d="M32.4897 7.45834L30.0105 10.6667" stroke="#769616" stroke-width="2.5" stroke-linecap="round"/>
<path fill-rule="evenodd" clip-rule="evenodd" d="M32.4766 6.72753C32.7411 6.73453 32.9209 6.83779 33.0487 6.98922C31.8663 8.39441 31.6671 8.61767 30.053 10.6184C29.4583 11.3878 28.8387 10.9901 29.4335 10.2207L31.9126 7.0124C32.0462 6.83413 32.2539 6.73354 32.4766 6.72753Z" fill="white" fill-opacity="0.298039"/>
<path fill-rule="evenodd" clip-rule="evenodd" d="M33.0536 6.99652C33.1259 7.0828 33.381 7.46588 33.0668 7.90431L30.5876 11.1126C29.9929 11.8821 29.9168 10.7555 29.9168 10.7555C29.9168 10.7555 32.0953 8.12463 33.0536 6.99652Z" fill="#263238" fill-opacity="0.2"/>
<path fill-rule="evenodd" clip-rule="evenodd" d="M32.6361 6.86457C32.8917 6.86457 33.196 6.94716 33.1169 7.33041C33.0565 7.62301 30.3981 10.8738 30.3981 10.8738C29.8034 11.6432 28.9436 11.2683 29.5383 10.499L32.0083 7.30663C32.1601 7.13746 32.3633 6.87285 32.6361 6.86457Z" fill="#8AB000"/>
<path fill-rule="evenodd" clip-rule="evenodd" d="M7.51021 7.45834L9.98938 10.6667Z" fill="#8AB000"/>
<path d="M7.51021 7.45834L9.98938 10.6667" stroke="#769616" stroke-width="2.5" stroke-linecap="round"/>
<path fill-rule="evenodd" clip-rule="evenodd" d="M7.52327 6.72753C7.25876 6.73453 7.07895 6.83779 6.95117 6.98922C8.13355 8.39441 8.33274 8.61767 9.94687 10.6184C10.5416 11.3878 11.1611 10.9901 10.5664 10.2207L8.08724 7.0124C7.95366 6.83413 7.74594 6.73354 7.52327 6.72753Z" fill="white" fill-opacity="0.298039"/>
<path fill-rule="evenodd" clip-rule="evenodd" d="M6.94622 6.99652C6.87395 7.0828 6.61887 7.46588 6.93311 7.90431L9.41227 11.1126C10.007 11.8821 10.083 10.7555 10.083 10.7555C10.083 10.7555 7.9046 8.12463 6.94622 6.99652Z" fill="#263238" fill-opacity="0.2"/>
<path fill-rule="evenodd" clip-rule="evenodd" d="M7.36377 6.86457C7.10817 6.86457 6.80385 6.94716 6.88298 7.33041C6.94339 7.62301 9.60179 10.8738 9.60179 10.8738C10.1965 11.6432 11.0563 11.2683 10.4616 10.499L7.99154 7.30663C7.83973 7.13746 7.63657 6.87285 7.36377 6.86457Z" fill="#8AB000"/>
<path d="M29.3333 9.5H10.6667C9.70017 9.5 8.91667 10.2835 8.91667 11.25V15.3333C8.91667 16.2998 9.70017 17.0833 10.6667 17.0833H29.3333C30.2998 17.0833 31.0833 16.2998 31.0833 15.3333V11.25C31.0833 10.2835 30.2998 9.5 29.3333 9.5Z" fill="#AEEA00"/>
<path d="M29.3333 11.25H10.6667C9.70017 11.25 8.91667 12.0335 8.91667 13V15.3333C8.91667 16.2998 9.70017 17.0833 10.6667 17.0833H29.3333C30.2998 17.0833 31.0833 16.2998 31.0833 15.3333V13C31.0833 12.0335 30.2998 11.25 29.3333 11.25Z" fill="#263238" fill-opacity="0.2"/>
<path d="M29.3333 9.5H10.6667C9.70017 9.5 8.91667 10.2835 8.91667 11.25V13.5833C8.91667 14.5498 9.70017 15.3333 10.6667 15.3333H29.3333C30.2998 15.3333 31.0833 14.5498 31.0833 13.5833V11.25C31.0833 10.2835 30.2998 9.5 29.3333 9.5Z" fill="white" fill-opacity="0.298039"/>
<path d="M29.3333 10.0833H10.6667C9.70017 10.0833 8.91667 10.7463 8.91667 11.5641V15.0192C8.91667 15.837 9.70017 16.5 10.6667 16.5H29.3333C30.2998 16.5 31.0833 15.837 31.0833 15.0192V11.5641C31.0833 10.7463 30.2998 10.0833 29.3333 10.0833Z" fill="#AEEA00"/>
<path d="M29.3333 17.6667H10.6667C9.70017 17.6667 8.91667 18.4502 8.91667 19.4167V31.0833C8.91667 32.0498 9.70017 32.8333 10.6667 32.8333H29.3333C30.2998 32.8333 31.0833 32.0498 31.0833 31.0833V19.4167C31.0833 18.4502 30.2998 17.6667 29.3333 17.6667Z" fill="#1976D2"/>
<path d="M29.3333 25.25H10.6667C9.70017 25.25 8.91667 26.0335 8.91667 27V31.0833C8.91667 32.0498 9.70017 32.8333 10.6667 32.8333H29.3333C30.2998 32.8333 31.0833 32.0498 31.0833 31.0833V27C31.0833 26.0335 30.2998 25.25 29.3333 25.25Z" fill="#263238" fill-opacity="0.2"/>
<path d="M29.3333 17.6667H10.6667C9.70017 17.6667 8.91667 18.4502 8.91667 19.4167V23.5C8.91667 24.4665 9.70017 25.25 10.6667 25.25H29.3333C30.2998 25.25 31.0833 24.4665 31.0833 23.5V19.4167C31.0833 18.4502 30.2998 17.6667 29.3333 17.6667Z" fill="white" fill-opacity="0.2"/>
<path d="M29.3333 18.25H10.6667C9.70017 18.25 8.91667 18.9733 8.91667 19.8654V30.6347C8.91667 31.5268 9.70017 32.25 10.6667 32.25H29.3333C30.2998 32.25 31.0833 31.5268 31.0833 30.6347V19.8654C31.0833 18.9733 30.2998 18.25 29.3333 18.25Z" fill="#1976D2"/>
<path d="M20 21.6041C18.3196 21.6041 16.8968 22.7619 16.4806 24.3169H18.3548C18.6782 23.7421 19.2853 23.3541 20 23.3541C21.0574 23.3541 21.8958 24.1926 21.8958 25.25C21.8958 26.3074 21.0574 27.1458 20 27.1458C19.2374 27.1458 18.5934 26.7067 18.291 26.0669H16.451C16.8257 27.6802 18.2779 28.8958 20 28.8958C22.0032 28.8958 23.6458 27.2531 23.6458 25.25C23.6458 23.2468 22.0032 21.6041 20 21.6041Z" fill="#0D47A1"/>
<path d="M20 30.8208C23.0767 30.8208 25.5708 28.3267 25.5708 25.25C25.5708 22.1733 23.0767 19.6791 20 19.6791C16.9233 19.6791 14.4292 22.1733 14.4292 25.25C14.4292 28.3267 16.9233 30.8208 20 30.8208Z" stroke="#0D47A1" stroke-width="1.9" stroke-linecap="round"/>
<path d="M14.3854 15.625C15.4727 15.625 16.3542 14.613 16.3542 13.3646C16.3542 12.1162 15.4727 11.1042 14.3854 11.1042C13.2981 11.1042 12.4167 12.1162 12.4167 13.3646C12.4167 14.613 13.2981 15.625 14.3854 15.625Z" fill="#263238" fill-opacity="0.2"/>
<path d="M14.3854 15.625C15.4727 15.625 16.3542 14.7436 16.3542 13.6563C16.3542 12.5689 15.4727 11.6875 14.3854 11.6875C13.2981 11.6875 12.4167 12.5689 12.4167 13.6563C12.4167 14.7436 13.2981 15.625 14.3854 15.625Z" fill="white"/>
<path d="M25.7604 15.625C26.8477 15.625 27.7292 14.613 27.7292 13.3646C27.7292 12.1162 26.8477 11.1042 25.7604 11.1042C24.6731 11.1042 23.7917 12.1162 23.7917 13.3646C23.7917 14.613 24.6731 15.625 25.7604 15.625Z" fill="#263238" fill-opacity="0.2"/>
<path d="M25.7604 15.625C26.8477 15.625 27.7292 14.7436 27.7292 13.6563C27.7292 12.5689 26.8477 11.6875 25.7604 11.6875C24.6731 11.6875 23.7917 12.5689 23.7917 13.6563C23.7917 14.7436 24.6731 15.625 25.7604 15.625Z" fill="white"/>
<path fill-rule="evenodd" clip-rule="evenodd" d="M7.52452 6.72129C7.38558 6.71746 7.24844 6.7534 7.12925 6.8249C7.01005 6.8964 6.91378 7.00051 6.85177 7.1249C6.78975 7.24929 6.76457 7.38879 6.77921 7.52701C6.79384 7.66523 6.84767 7.7964 6.93435 7.90505L9.0364 10.6258C8.96232 10.8201 8.91791 11.0292 8.91791 11.2501V13.5835V15.2548V15.3335C8.91791 16.303 9.69841 17.0835 10.6679 17.0835H29.3346C30.3041 17.0835 31.0846 16.303 31.0846 15.3335V13.0001V11.3288V11.2501C31.0846 11.0283 31.0396 10.8185 30.9649 10.6235L33.0659 7.90505C33.1536 7.79496 33.2076 7.66182 33.2214 7.5217C33.2351 7.38159 33.208 7.24048 33.1433 7.11543C33.0786 6.99038 32.9791 6.88673 32.8568 6.817C32.7345 6.74726 32.5946 6.71444 32.454 6.72247C32.3479 6.72845 32.2444 6.75756 32.1508 6.80774C32.0571 6.85792 31.9755 6.92795 31.9117 7.01296L29.9099 9.60378C29.729 9.54084 29.5375 9.50014 29.3346 9.50014H10.6679C10.4646 9.50014 10.2727 9.54037 10.0914 9.60378L8.08848 7.01296C8.02255 6.92497 7.93757 6.85305 7.83991 6.80254C7.74225 6.75203 7.63443 6.72425 7.52452 6.72129ZM10.6679 17.6668C10.5467 17.6668 10.4288 17.679 10.3147 17.7023C9.51584 17.8634 8.91791 18.5598 8.91791 19.3999V19.4169V30.9548V30.9717V31.0833C8.91791 32.0528 9.69841 32.8333 10.6679 32.8333H29.3346C30.3041 32.8333 31.0846 32.0528 31.0846 31.0833V19.4167V19.3998C31.0846 18.5596 30.4866 17.8633 29.6878 17.7022C29.5736 17.6794 29.4558 17.6666 29.3346 17.6666L10.6679 17.6668Z" fill="url(#paint1_radial_1_68)"/>
</g>
</g>
<defs>
<filter id="filter0_d_1_68" x="2" y="2" width="36" height="36" filterUnits="userSpaceOnUse" color-interpolation-filters="sRGB">
<feFlood flood-opacity="0" result="BackgroundImageFix"/>
<feColorMatrix in="SourceAlpha" type="matrix" values="0 0 0 0 0 0 0 0 0 0 0 0 0 0 0 0 0 0 127 0" result="hardAlpha"/>
<feOffset/>
<feGaussianBlur stdDeviation="2"/>
<feComposite in2="hardAlpha" operator="out"/>
<feColorMatrix type="matrix" values="0 0 0 0 0 0 0 0 0 0 0 0 0 0 0 0 0 0 0.25 0"/>
<feBlend mode="normal" in2="BackgroundImageFix" result="effect1_dropShadow_1_68"/>
<feBlend mode="normal" in="SourceGraphic" in2="effect1_dropShadow_1_68" result="shape"/>
</filter>
<filter id="filter1_f_1_68" x="5.87409" y="6.25752" width="28.2518" height="27.9144" filterUnits="userSpaceOnUse" color-interpolation-filters="sRGB">
<feFlood flood-opacity="0" result="BackgroundImageFix"/>
<feBlend mode="normal" in="SourceGraphic" in2="BackgroundImageFix" result="shape"/>
<feGaussianBlur stdDeviation="0.450532" result="effect1_foregroundBlur_1_68"/>
</filter>
<linearGradient id="paint0_linear_1_68" x1="20" y1="0" x2="20" y2="40" gradientUnits="userSpaceOnUse">
<stop stop-color="#0F477E"/>
<stop offset="1" stop-color="#0B355E"/>
</linearGradient>
<radialGradient id="paint1_radial_1_68" cx="0" cy="0" r="1" gradientUnits="userSpaceOnUse" gradientTransform="translate(6.77662 6.7218) rotate(90) scale(26.1159 28)">
<stop stop-color="white" stop-opacity="0.0980392"/>
<stop offset="1" stop-color="white" stop-opacity="0"/>
</radialGradient>
<clipPath id="clip0_1_68">
<rect width="28" height="28" fill="white" transform="translate(6 6)"/>
</clipPath>
</defs>
</svg>
