<svg width="164" height="56" viewBox="0 0 164 56" fill="none" xmlns="http://www.w3.org/2000/svg">
<rect width="164" height="56" rx="8" fill="url(#paint0_linear_1_50)"/>
<rect x="1.05" y="1.05" width="161.9" height="53.9" rx="6.95" stroke="white" stroke-opacity="0.15" stroke-width="2.1"/>
<g filter="url(#filter0_d_1_50)">
<g clip-path="url(#clip0_1_50)">
<g filter="url(#filter1_f_1_50)">
<path fill-rule="evenodd" clip-rule="evenodd" d="M14.1779 9.65552C13.9794 9.65004 13.7835 9.70138 13.6132 9.80353C13.4429 9.90568 13.3054 10.0543 13.2168 10.232C13.1282 10.4097 13.0922 10.6091 13.1131 10.8065C13.1341 11.004 13.2109 11.1914 13.3348 11.3466L16.3377 15.2333C16.2319 15.5109 16.1684 15.8096 16.1684 16.1252V19.4586V21.8463V21.9586C16.1684 23.3436 17.2834 24.4586 18.6684 24.4586H45.3351C46.7201 24.4586 47.8351 23.3436 47.8351 21.9586V18.6252V16.2376V16.1252C47.8351 15.8083 47.7709 15.5086 47.6642 15.2301L50.6655 11.3466C50.7909 11.1893 50.868 10.9991 50.8877 10.799C50.9073 10.5988 50.8686 10.3972 50.7761 10.2186C50.6837 10.0399 50.5416 9.89185 50.3668 9.79224C50.1921 9.69262 49.9923 9.64573 49.7915 9.6572C49.6399 9.66574 49.492 9.70728 49.3582 9.77896C49.2244 9.85065 49.1078 9.95074 49.0167 10.0722L46.157 13.7734C45.8985 13.6834 45.625 13.6252 45.3351 13.6252H18.6684C18.378 13.6252 18.1038 13.6828 17.8449 13.7734L14.9835 10.0722C14.8893 9.94649 14.768 9.84369 14.6284 9.77154C14.4889 9.69938 14.3349 9.65974 14.1779 9.65552ZM18.6684 25.292C18.4953 25.292 18.3269 25.3094 18.1639 25.3427C17.0226 25.5728 16.1684 26.5676 16.1684 27.7679V27.792V44.2747V44.2989V44.4584C16.1684 45.8434 17.2834 46.9584 18.6684 46.9584H45.3351C46.7201 46.9584 47.8351 45.8434 47.8351 44.4584V27.7918V27.7675C47.8351 26.5673 46.9809 25.5726 45.8397 25.3425C45.6766 25.31 45.5082 25.2917 45.3351 25.2917L18.6684 25.292Z" fill="#263238" fill-opacity="0.4"/>
</g>
<path fill-rule="evenodd" clip-rule="evenodd" d="M49.8424 10.0833L46.3007 14.6667Z" fill="#8AB000"/>
<path d="M49.8424 10.0833L46.3007 14.6667" stroke="#769616" stroke-width="2.5" stroke-linecap="round"/>
<path fill-rule="evenodd" clip-rule="evenodd" d="M49.8237 9.03933C50.2016 9.04933 50.4585 9.19683 50.641 9.41317C48.9519 11.4206 48.6673 11.7395 46.3614 14.5977C45.5118 15.6969 44.6268 15.1288 45.4764 14.0296L49.018 9.44628C49.2089 9.19161 49.5056 9.04791 49.8237 9.03933Z" fill="white" fill-opacity="0.298039"/>
<path fill-rule="evenodd" clip-rule="evenodd" d="M50.6481 9.42359C50.7513 9.54684 51.1157 10.0941 50.6668 10.7204L47.1251 15.3038C46.2755 16.4029 46.1669 14.7935 46.1669 14.7935C46.1669 14.7935 49.279 11.0352 50.6481 9.42359Z" fill="#263238" fill-opacity="0.2"/>
<path fill-rule="evenodd" clip-rule="evenodd" d="M50.0516 9.2351C50.4167 9.2351 50.8515 9.35308 50.7384 9.90058C50.6521 10.3186 46.8544 14.9626 46.8544 14.9626C46.0048 16.0618 44.7765 15.5262 45.6261 14.4272L49.1548 9.86661C49.3716 9.62494 49.6619 9.24693 50.0516 9.2351Z" fill="#8AB000"/>
<path fill-rule="evenodd" clip-rule="evenodd" d="M14.1574 10.0833L17.6991 14.6667Z" fill="#8AB000"/>
<path d="M14.1574 10.0833L17.6991 14.6667" stroke="#769616" stroke-width="2.5" stroke-linecap="round"/>
<path fill-rule="evenodd" clip-rule="evenodd" d="M14.1761 9.03933C13.7982 9.04933 13.5414 9.19683 13.3588 9.41317C15.0479 11.4206 15.3325 11.7395 17.6384 14.5977C18.488 15.6969 19.373 15.1288 18.5234 14.0296L14.9818 9.44628C14.7909 9.19161 14.4942 9.04791 14.1761 9.03933Z" fill="white" fill-opacity="0.298039"/>
<path fill-rule="evenodd" clip-rule="evenodd" d="M13.3517 9.42359C13.2485 9.54684 12.8841 10.0941 13.333 10.7204L16.8747 15.3038C17.7243 16.4029 17.8329 14.7935 17.8329 14.7935C17.8329 14.7935 14.7209 11.0352 13.3517 9.42359Z" fill="#263238" fill-opacity="0.2"/>
<path fill-rule="evenodd" clip-rule="evenodd" d="M13.9482 9.2351C13.5831 9.2351 13.1484 9.35308 13.2614 9.90058C13.3477 10.3186 17.1454 14.9626 17.1454 14.9626C17.995 16.0618 19.2233 15.5262 18.3737 14.4272L14.845 9.86661C14.6282 9.62494 14.3379 9.24693 13.9482 9.2351Z" fill="#8AB000"/>
<path d="M45.3333 13H18.6667C17.286 13 16.1667 14.1193 16.1667 15.5V21.3333C16.1667 22.714 17.286 23.8333 18.6667 23.8333H45.3333C46.714 23.8333 47.8333 22.714 47.8333 21.3333V15.5C47.8333 14.1193 46.714 13 45.3333 13Z" fill="#AEEA00"/>
<path d="M45.3333 15.5H18.6667C17.286 15.5 16.1667 16.6193 16.1667 18V21.3333C16.1667 22.714 17.286 23.8333 18.6667 23.8333H45.3333C46.714 23.8333 47.8333 22.714 47.8333 21.3333V18C47.8333 16.6193 46.714 15.5 45.3333 15.5Z" fill="#263238" fill-opacity="0.2"/>
<path d="M45.3333 13H18.6667C17.286 13 16.1667 14.1193 16.1667 15.5V18.8333C16.1667 20.214 17.286 21.3333 18.6667 21.3333H45.3333C46.714 21.3333 47.8333 20.214 47.8333 18.8333V15.5C47.8333 14.1193 46.714 13 45.3333 13Z" fill="white" fill-opacity="0.298039"/>
<path d="M45.3333 13.8333H18.6667C17.286 13.8333 16.1667 14.7804 16.1667 15.9487V20.8846C16.1667 22.0529 17.286 23 18.6667 23H45.3333C46.714 23 47.8333 22.0529 47.8333 20.8846V15.9487C47.8333 14.7804 46.714 13.8333 45.3333 13.8333Z" fill="#AEEA00"/>
<path d="M45.3333 24.6667H18.6667C17.286 24.6667 16.1667 25.786 16.1667 27.1667V43.8333C16.1667 45.214 17.286 46.3333 18.6667 46.3333H45.3333C46.714 46.3333 47.8333 45.214 47.8333 43.8333V27.1667C47.8333 25.786 46.714 24.6667 45.3333 24.6667Z" fill="#1976D2"/>
<path d="M45.3333 35.5H18.6667C17.286 35.5 16.1667 36.6193 16.1667 38V43.8333C16.1667 45.214 17.286 46.3333 18.6667 46.3333H45.3333C46.714 46.3333 47.8333 45.214 47.8333 43.8333V38C47.8333 36.6193 46.714 35.5 45.3333 35.5Z" fill="#263238" fill-opacity="0.2"/>
<path d="M45.3333 24.6667H18.6667C17.286 24.6667 16.1667 25.786 16.1667 27.1667V33C16.1667 34.3807 17.286 35.5 18.6667 35.5H45.3333C46.714 35.5 47.8333 34.3807 47.8333 33V27.1667C47.8333 25.786 46.714 24.6667 45.3333 24.6667Z" fill="white" fill-opacity="0.2"/>
<path d="M45.3333 25.5H18.6667C17.286 25.5 16.1667 26.5332 16.1667 27.8077V43.1924C16.1667 44.4669 17.286 45.5 18.6667 45.5H45.3333C46.714 45.5 47.8333 44.4669 47.8333 43.1924V27.8077C47.8333 26.5332 46.714 25.5 45.3333 25.5Z" fill="#1976D2"/>
<path d="M32 30.2916C29.5994 30.2916 27.5668 31.9455 26.9723 34.167H29.6497C30.1117 33.3458 30.979 32.7916 32 32.7916C33.5106 32.7916 34.7083 33.9894 34.7083 35.5C34.7083 37.0105 33.5106 38.2083 32 38.2083C30.9105 38.2083 29.9906 37.5811 29.5586 36.667H26.93C27.4652 38.9717 29.5399 40.7083 32 40.7083C34.8617 40.7083 37.2083 38.3616 37.2083 35.5C37.2083 32.6383 34.8617 30.2916 32 30.2916Z" fill="#0D47A1"/>
<path d="M32 43.4583C36.3953 43.4583 39.9583 39.8952 39.9583 35.5C39.9583 31.1047 36.3953 27.5416 32 27.5416C27.6047 27.5416 24.0417 31.1047 24.0417 35.5C24.0417 39.8952 27.6047 43.4583 32 43.4583Z" stroke="#0D47A1" stroke-width="1.9" stroke-linecap="round"/>
<path d="M23.9792 21.75C25.5325 21.75 26.7917 20.3043 26.7917 18.5208C26.7917 16.7374 25.5325 15.2917 23.9792 15.2917C22.4259 15.2917 21.1667 16.7374 21.1667 18.5208C21.1667 20.3043 22.4259 21.75 23.9792 21.75Z" fill="#263238" fill-opacity="0.2"/>
<path d="M23.9792 21.75C25.5325 21.75 26.7917 20.4908 26.7917 18.9375C26.7917 17.3842 25.5325 16.125 23.9792 16.125C22.4259 16.125 21.1667 17.3842 21.1667 18.9375C21.1667 20.4908 22.4259 21.75 23.9792 21.75Z" fill="white"/>
<path d="M40.2292 21.75C41.7825 21.75 43.0417 20.3043 43.0417 18.5208C43.0417 16.7374 41.7825 15.2917 40.2292 15.2917C38.6759 15.2917 37.4167 16.7374 37.4167 18.5208C37.4167 20.3043 38.6759 21.75 40.2292 21.75Z" fill="#263238" fill-opacity="0.2"/>
<path d="M40.2292 21.75C41.7825 21.75 43.0417 20.4908 43.0417 18.9375C43.0417 17.3842 41.7825 16.125 40.2292 16.125C38.6759 16.125 37.4167 17.3842 37.4167 18.9375C37.4167 20.4908 38.6759 21.75 40.2292 21.75Z" fill="white"/>
<path fill-rule="evenodd" clip-rule="evenodd" d="M14.1779 9.03042C13.9794 9.02494 13.7835 9.07628 13.6132 9.17843C13.4429 9.28057 13.3054 9.42929 13.2168 9.60699C13.1282 9.7847 13.0922 9.98398 13.1131 10.1814C13.1341 10.3789 13.2109 10.5663 13.3348 10.7215L16.3377 14.6083C16.2319 14.8858 16.1684 15.1845 16.1684 15.5002V18.8335V21.2212V21.3335C16.1684 22.7185 17.2834 23.8335 18.6684 23.8335H45.3351C46.7201 23.8335 47.8351 22.7185 47.8351 21.3335V18.0002V15.6125V15.5002C47.8351 15.1833 47.7709 14.8835 47.6642 14.605L50.6655 10.7215C50.7909 10.5642 50.868 10.374 50.8877 10.1739C50.9073 9.97369 50.8686 9.7721 50.7761 9.59347C50.6837 9.41483 50.5416 9.26675 50.3668 9.16713C50.1921 9.06752 49.9923 9.02063 49.7915 9.03209C49.6399 9.04064 49.492 9.08222 49.3582 9.15391C49.2244 9.2256 49.1078 9.32564 49.0167 9.44708L46.157 13.1483C45.8985 13.0583 45.625 13.0002 45.3351 13.0002H18.6684C18.378 13.0002 18.1038 13.0577 17.8449 13.1483L14.9835 9.44708C14.8893 9.32139 14.768 9.21864 14.6284 9.14648C14.4889 9.07433 14.3349 9.03464 14.1779 9.03042ZM18.6684 24.6669C18.4953 24.6669 18.3269 24.6843 18.1639 24.7176C17.0226 24.9477 16.1684 25.9425 16.1684 27.1428V27.167V43.6497V43.6738V43.8333C16.1684 45.2183 17.2834 46.3333 18.6684 46.3333H45.3351C46.7201 46.3333 47.8351 45.2183 47.8351 43.8333V27.1667V27.1425C47.8351 25.9423 46.9809 24.9475 45.8397 24.7174C45.6766 24.6849 45.5082 24.6666 45.3351 24.6666L18.6684 24.6669Z" fill="url(#paint1_radial_1_50)"/>
</g>
</g>
<g filter="url(#filter2_d_1_50)">
<path d="M62.2613 24.5H60.3977L64.5852 12.8636H66.6136L70.8011 24.5H68.9375L65.6477 14.9773H65.5568L62.2613 24.5ZM62.5738 19.9432H68.6193V21.4204H62.5738V19.9432ZM78.7173 15.7727L75.5525 24.5H73.7344L70.5639 15.7727H72.3878L74.598 22.4886H74.6889L76.8934 15.7727H78.7173ZM82.6037 24.6932C82.0506 24.6932 81.5506 24.5909 81.1037 24.3864C80.6567 24.178 80.3025 23.8769 80.0412 23.4829C79.7836 23.089 79.6548 22.6061 79.6548 22.0341C79.6548 21.5417 79.7495 21.1364 79.9389 20.8182C80.1283 20.5 80.384 20.2481 80.7059 20.0625C81.0279 19.8769 81.3878 19.7367 81.7855 19.642C82.1832 19.5473 82.5885 19.4754 83.0014 19.4261C83.5241 19.3655 83.9484 19.3163 84.2741 19.2784C84.5999 19.2367 84.8366 19.1704 84.9844 19.0795C85.1321 18.9886 85.2059 18.8409 85.2059 18.6364V18.5966C85.2059 18.1004 85.0658 17.7159 84.7855 17.4432C84.509 17.1704 84.0961 17.0341 83.5469 17.0341C82.9749 17.0341 82.5241 17.161 82.1946 17.4148C81.8688 17.6648 81.6434 17.9432 81.5184 18.25L79.9219 17.8864C80.1112 17.3561 80.3878 16.928 80.7514 16.6023C81.1188 16.2727 81.5412 16.0341 82.0184 15.8864C82.4957 15.7348 82.9976 15.6591 83.5241 15.6591C83.8726 15.6591 84.2419 15.7008 84.6321 15.7841C85.026 15.8636 85.3934 16.0114 85.7344 16.2273C86.079 16.4432 86.3612 16.7519 86.5809 17.1534C86.8006 17.5511 86.9105 18.0682 86.9105 18.7045V24.5H85.2514V23.3068H85.1832C85.0734 23.5265 84.9086 23.7424 84.6889 23.9545C84.4692 24.1667 84.187 24.3428 83.8423 24.4829C83.4976 24.6231 83.0847 24.6932 82.6037 24.6932ZM82.973 23.3295C83.4427 23.3295 83.8442 23.2367 84.1775 23.0511C84.5147 22.8655 84.7703 22.6231 84.9446 22.3239C85.1226 22.0208 85.2116 21.697 85.2116 21.3523V20.2273C85.151 20.2879 85.0336 20.3447 84.8594 20.3977C84.6889 20.447 84.4938 20.4905 84.2741 20.5284C84.0544 20.5625 83.8404 20.5947 83.6321 20.625C83.4237 20.6515 83.2495 20.6742 83.1094 20.6932C82.7798 20.7348 82.4787 20.8049 82.2059 20.9034C81.937 21.0019 81.7211 21.1439 81.5582 21.3295C81.3991 21.5114 81.3196 21.7538 81.3196 22.0568C81.3196 22.4773 81.4749 22.7954 81.7855 23.0114C82.0961 23.2235 82.4919 23.3295 82.973 23.3295ZM89.1733 24.5V15.7727H90.8721V24.5H89.1733ZM90.0312 14.4261C89.7358 14.4261 89.482 14.3276 89.2699 14.1307C89.0615 13.9299 88.9574 13.6913 88.9574 13.4148C88.9574 13.1345 89.0615 12.8958 89.2699 12.6989C89.482 12.4981 89.7358 12.3977 90.0312 12.3977C90.3267 12.3977 90.5786 12.4981 90.7869 12.6989C90.999 12.8958 91.1051 13.1345 91.1051 13.4148C91.1051 13.6913 90.999 13.9299 90.7869 14.1307C90.5786 14.3276 90.3267 14.4261 90.0312 14.4261ZM94.8565 12.8636V24.5H93.1576V12.8636H94.8565ZM99.6818 24.6932C99.1288 24.6932 98.6288 24.5909 98.1818 24.3864C97.7348 24.178 97.3807 23.8769 97.1193 23.4829C96.8617 23.089 96.7329 22.6061 96.7329 22.0341C96.7329 21.5417 96.8276 21.1364 97.017 20.8182C97.2064 20.5 97.4621 20.2481 97.7841 20.0625C98.106 19.8769 98.4659 19.7367 98.8636 19.642C99.2613 19.5473 99.6666 19.4754 100.08 19.4261C100.602 19.3655 101.026 19.3163 101.352 19.2784C101.678 19.2367 101.915 19.1704 102.062 19.0795C102.21 18.9886 102.284 18.8409 102.284 18.6364V18.5966C102.284 18.1004 102.144 17.7159 101.864 17.4432C101.587 17.1704 101.174 17.0341 100.625 17.0341C100.053 17.0341 99.6022 17.161 99.2727 17.4148C98.9469 17.6648 98.7216 17.9432 98.5966 18.25L97 17.8864C97.1894 17.3561 97.4659 16.928 97.8295 16.6023C98.1969 16.2727 98.6193 16.0341 99.0966 15.8864C99.5738 15.7348 100.076 15.6591 100.602 15.6591C100.951 15.6591 101.32 15.7008 101.71 15.7841C102.104 15.8636 102.472 16.0114 102.812 16.2273C103.157 16.4432 103.439 16.7519 103.659 17.1534C103.879 17.5511 103.989 18.0682 103.989 18.7045V24.5H102.33V23.3068H102.261C102.151 23.5265 101.987 23.7424 101.767 23.9545C101.547 24.1667 101.265 24.3428 100.92 24.4829C100.576 24.6231 100.163 24.6932 99.6818 24.6932ZM100.051 23.3295C100.521 23.3295 100.922 23.2367 101.256 23.0511C101.593 22.8655 101.848 22.6231 102.023 22.3239C102.201 22.0208 102.29 21.697 102.29 21.3523V20.2273C102.229 20.2879 102.112 20.3447 101.937 20.3977C101.767 20.447 101.572 20.4905 101.352 20.5284C101.133 20.5625 100.919 20.5947 100.71 20.625C100.502 20.6515 100.328 20.6742 100.187 20.6932C99.8579 20.7348 99.5568 20.8049 99.2841 20.9034C99.0151 21.0019 98.7992 21.1439 98.6363 21.3295C98.4772 21.5114 98.3977 21.7538 98.3977 22.0568C98.3977 22.4773 98.553 22.7954 98.8636 23.0114C99.1742 23.2235 99.57 23.3295 100.051 23.3295ZM106.388 24.5V12.8636H108.087V17.1875H108.189C108.287 17.0057 108.429 16.7954 108.615 16.5568C108.801 16.3182 109.058 16.1098 109.388 15.9318C109.717 15.75 110.153 15.6591 110.695 15.6591C111.399 15.6591 112.028 15.8371 112.581 16.1932C113.134 16.5492 113.568 17.0625 113.882 17.7329C114.2 18.4034 114.359 19.2102 114.359 20.1534C114.359 21.0966 114.202 21.9053 113.888 22.5795C113.573 23.25 113.142 23.767 112.592 24.1307C112.043 24.4905 111.416 24.6704 110.712 24.6704C110.181 24.6704 109.748 24.5814 109.41 24.4034C109.077 24.2254 108.816 24.017 108.626 23.7784C108.437 23.5398 108.291 23.3276 108.189 23.142H108.047V24.5H106.388ZM108.053 20.1364C108.053 20.75 108.142 21.2879 108.32 21.75C108.498 22.2121 108.755 22.5739 109.092 22.8352C109.429 23.0928 109.842 23.2216 110.331 23.2216C110.839 23.2216 111.263 23.0871 111.604 22.8182C111.945 22.5454 112.202 22.1761 112.376 21.7102C112.554 21.2443 112.643 20.7197 112.643 20.1364C112.643 19.5606 112.556 19.0436 112.382 18.5852C112.212 18.1269 111.954 17.7651 111.609 17.5C111.268 17.2348 110.842 17.1023 110.331 17.1023C109.839 17.1023 109.422 17.2292 109.081 17.4829C108.744 17.7367 108.488 18.0909 108.314 18.5454C108.14 19 108.053 19.5303 108.053 20.1364ZM117.966 12.8636V24.5H116.267V12.8636H117.966ZM124.013 24.6761C123.153 24.6761 122.412 24.4924 121.791 24.125C121.174 23.7538 120.696 23.2329 120.359 22.5625C120.026 21.8883 119.859 21.0985 119.859 20.1932C119.859 19.2992 120.026 18.5114 120.359 17.8295C120.696 17.1477 121.166 16.6155 121.768 16.2329C122.374 15.8504 123.083 15.6591 123.893 15.6591C124.386 15.6591 124.863 15.7405 125.325 15.9034C125.787 16.0663 126.202 16.322 126.57 16.6704C126.937 17.0189 127.227 17.4716 127.439 18.0284C127.651 18.5814 127.757 19.2538 127.757 20.0454V20.6477H120.82V19.375H126.092C126.092 18.928 126.001 18.5322 125.82 18.1875C125.638 17.839 125.382 17.5644 125.053 17.3636C124.727 17.1629 124.344 17.0625 123.905 17.0625C123.428 17.0625 123.011 17.1799 122.655 17.4148C122.303 17.6458 122.03 17.9489 121.837 18.3239C121.647 18.6951 121.553 19.0985 121.553 19.5341V20.5284C121.553 21.1117 121.655 21.6079 121.859 22.017C122.068 22.4261 122.357 22.7386 122.729 22.9545C123.1 23.1667 123.534 23.2727 124.03 23.2727C124.352 23.2727 124.645 23.2273 124.91 23.1364C125.176 23.0417 125.405 22.9015 125.598 22.7159C125.791 22.5303 125.939 22.3011 126.041 22.0284L127.649 22.3182C127.52 22.7917 127.289 23.2064 126.956 23.5625C126.626 23.9148 126.212 24.1894 125.712 24.3864C125.215 24.5795 124.649 24.6761 124.013 24.6761ZM137.553 24.6761C136.734 24.6761 136.02 24.4886 135.41 24.1136C134.801 23.7386 134.327 23.214 133.99 22.5398C133.653 21.8655 133.484 21.0776 133.484 20.1761C133.484 19.2708 133.653 18.4792 133.99 17.8011C134.327 17.1231 134.801 16.5966 135.41 16.2216C136.02 15.8466 136.734 15.6591 137.553 15.6591C138.371 15.6591 139.085 15.8466 139.695 16.2216C140.304 16.5966 140.778 17.1231 141.115 17.8011C141.452 18.4792 141.621 19.2708 141.621 20.1761C141.621 21.0776 141.452 21.8655 141.115 22.5398C140.778 23.214 140.304 23.7386 139.695 24.1136C139.085 24.4886 138.371 24.6761 137.553 24.6761ZM137.558 23.25C138.089 23.25 138.528 23.1098 138.876 22.8295C139.225 22.5492 139.482 22.1761 139.649 21.7102C139.82 21.2443 139.905 20.7311 139.905 20.1704C139.905 19.6136 139.82 19.1023 139.649 18.6364C139.482 18.1667 139.225 17.7898 138.876 17.5057C138.528 17.2216 138.089 17.0795 137.558 17.0795C137.024 17.0795 136.581 17.2216 136.229 17.5057C135.88 17.7898 135.621 18.1667 135.45 18.6364C135.284 19.1023 135.2 19.6136 135.2 20.1704C135.2 20.7311 135.284 21.2443 135.45 21.7102C135.621 22.1761 135.88 22.5492 136.229 22.8295C136.581 23.1098 137.024 23.25 137.558 23.25ZM145.216 19.3182V24.5H143.517V15.7727H145.148V17.1932H145.256C145.456 16.7311 145.771 16.3598 146.199 16.0795C146.631 15.7992 147.174 15.6591 147.83 15.6591C148.424 15.6591 148.945 15.7841 149.392 16.0341C149.839 16.2803 150.186 16.6477 150.432 17.1364C150.678 17.625 150.801 18.2292 150.801 18.9489V24.5H149.102V19.1534C149.102 18.5208 148.937 18.0265 148.608 17.6704C148.278 17.3106 147.826 17.1307 147.25 17.1307C146.856 17.1307 146.506 17.2159 146.199 17.3864C145.896 17.5568 145.655 17.8068 145.477 18.1364C145.303 18.4621 145.216 18.8561 145.216 19.3182Z" fill="#E8E8E8"/>
<path d="M60.9357 43.5V31.1364H69.3753V33.5632H63.924V36.0987H68.8381V38.5316H63.924V43.5H60.9357ZM76.8143 36.1832V38.4531H71.0913V36.1832H76.8143ZM83.4686 43.5H78.8986V31.1364H83.4625C84.7222 31.1364 85.8069 31.3839 86.7164 31.8789C87.63 32.3699 88.3343 33.0782 88.8293 34.0039C89.3244 34.9255 89.5719 36.0283 89.5719 37.3121C89.5719 38.6 89.3244 39.7068 88.8293 40.6324C88.3383 41.5581 87.636 42.2685 86.7225 42.7635C85.8089 43.2545 84.7242 43.5 83.4686 43.5ZM81.8869 40.9524H83.3538C84.0461 40.9524 84.6317 40.8357 85.1106 40.6023C85.5935 40.3648 85.9578 39.9805 86.2033 39.4492C86.4528 38.9139 86.5776 38.2016 86.5776 37.3121C86.5776 36.4227 86.4528 35.7144 86.2033 35.1871C85.9538 34.6559 85.5855 34.2735 85.0985 34.0401C84.6156 33.8027 84.0199 33.6839 83.3116 33.6839H81.8869V40.9524ZM91.3166 43.5V34.2273H94.1841V35.9176H94.2807C94.4497 35.3059 94.7254 34.8511 95.1078 34.5533C95.4901 34.2514 95.9348 34.1005 96.4419 34.1005C96.5788 34.1005 96.7196 34.1105 96.8645 34.1307C97.0094 34.1468 97.1442 34.1729 97.269 34.2092V36.7748C97.1281 36.7266 96.943 36.6883 96.7136 36.6601C96.4882 36.632 96.287 36.6179 96.1099 36.6179C95.7597 36.6179 95.4438 36.6964 95.1621 36.8533C94.8844 37.0063 94.665 37.2216 94.5041 37.4993C94.3471 37.773 94.2686 38.0949 94.2686 38.4652V43.5H91.3166ZM102.319 43.6751C101.345 43.6751 100.508 43.4758 99.8075 43.0774C99.1112 42.6749 98.574 42.1155 98.1956 41.3991C97.8214 40.6787 97.6342 39.8436 97.6342 38.8938C97.6342 37.94 97.8214 37.1049 98.1956 36.3885C98.574 35.6681 99.1112 35.1087 99.8075 34.7102C100.508 34.3078 101.345 34.1065 102.319 34.1065C103.293 34.1065 104.128 34.3078 104.824 34.7102C105.524 35.1087 106.062 35.6681 106.436 36.3885C106.814 37.1049 107.004 37.94 107.004 38.8938C107.004 39.8436 106.814 40.6787 106.436 41.3991C106.062 42.1155 105.524 42.6749 104.824 43.0774C104.128 43.4758 103.293 43.6751 102.319 43.6751ZM102.337 41.4474C102.691 41.4474 102.991 41.3388 103.236 41.1214C103.482 40.9041 103.669 40.6023 103.798 40.2159C103.931 39.8295 103.997 39.3828 103.997 38.8757C103.997 38.3605 103.931 37.9098 103.798 37.5234C103.669 37.1371 103.482 36.8352 103.236 36.6179C102.991 36.4006 102.691 36.2919 102.337 36.2919C101.971 36.2919 101.661 36.4006 101.407 36.6179C101.158 36.8352 100.967 37.1371 100.834 37.5234C100.705 37.9098 100.641 38.3605 100.641 38.8757C100.641 39.3828 100.705 39.8295 100.834 40.2159C100.967 40.6023 101.158 40.9041 101.407 41.1214C101.661 41.3388 101.971 41.4474 102.337 41.4474ZM108.516 43.5V34.2273H111.468V43.5H108.516ZM109.995 33.1467C109.58 33.1467 109.224 33.0098 108.926 32.7361C108.628 32.4584 108.48 32.1244 108.48 31.734C108.48 31.3476 108.628 31.0176 108.926 30.744C109.224 30.4663 109.58 30.3274 109.995 30.3274C110.413 30.3274 110.77 30.4663 111.063 30.744C111.361 31.0176 111.51 31.3476 111.51 31.734C111.51 32.1244 111.361 32.4584 111.063 32.7361C110.77 33.0098 110.413 33.1467 109.995 33.1467ZM116.734 43.6328C116.049 43.6328 115.428 43.4557 114.868 43.1016C114.309 42.7474 113.862 42.2161 113.528 41.5078C113.194 40.7995 113.027 39.9201 113.027 38.8697C113.027 37.779 113.2 36.8815 113.546 36.1772C113.892 35.4729 114.345 34.9517 114.904 34.6136C115.468 34.2756 116.074 34.1065 116.721 34.1065C117.208 34.1065 117.625 34.191 117.971 34.3601C118.317 34.5251 118.603 34.7384 118.828 35C119.054 35.2616 119.225 35.5333 119.341 35.815H119.402V31.1364H122.354V43.5H119.432V41.9968H119.341C119.217 42.2825 119.04 42.5502 118.81 42.7997C118.581 43.0492 118.293 43.2505 117.947 43.4034C117.605 43.5563 117.2 43.6328 116.734 43.6328ZM117.76 41.3327C118.118 41.3327 118.424 41.2321 118.677 41.0309C118.931 40.8256 119.126 40.5379 119.263 40.1676C119.4 39.7973 119.468 39.3627 119.468 38.8636C119.468 38.3565 119.4 37.9199 119.263 37.5536C119.13 37.1874 118.935 36.9056 118.677 36.7084C118.424 36.5112 118.118 36.4126 117.76 36.4126C117.394 36.4126 117.084 36.5132 116.83 36.7145C116.577 36.9157 116.383 37.1994 116.251 37.5657C116.122 37.9319 116.057 38.3646 116.057 38.8636C116.057 39.3627 116.124 39.7973 116.257 40.1676C116.389 40.5379 116.581 40.8256 116.83 41.0309C117.084 41.2321 117.394 41.3327 117.76 41.3327Z" fill="url(#paint2_linear_1_50)"/>
</g>
<defs>
<filter id="filter0_d_1_50" x="6.28571" y="2.28571" width="51.4286" height="51.4286" filterUnits="userSpaceOnUse" color-interpolation-filters="sRGB">
<feFlood flood-opacity="0" result="BackgroundImageFix"/>
<feColorMatrix in="SourceAlpha" type="matrix" values="0 0 0 0 0 0 0 0 0 0 0 0 0 0 0 0 0 0 127 0" result="hardAlpha"/>
<feOffset/>
<feGaussianBlur stdDeviation="2.85714"/>
<feComposite in2="hardAlpha" operator="out"/>
<feColorMatrix type="matrix" values="0 0 0 0 0 0 0 0 0 0 0 0 0 0 0 0 0 0 0.25 0"/>
<feBlend mode="normal" in2="BackgroundImageFix" result="effect1_dropShadow_1_50"/>
<feBlend mode="normal" in="SourceGraphic" in2="effect1_dropShadow_1_50" result="shape"/>
</filter>
<filter id="filter1_f_1_50" x="12.2063" y="8.75406" width="39.5874" height="39.1054" filterUnits="userSpaceOnUse" color-interpolation-filters="sRGB">
<feFlood flood-opacity="0" result="BackgroundImageFix"/>
<feBlend mode="normal" in="SourceGraphic" in2="BackgroundImageFix" result="shape"/>
<feGaussianBlur stdDeviation="0.450532" result="effect1_foregroundBlur_1_50"/>
</filter>
<filter id="filter2_d_1_50" x="54.4" y="3.9" width="103.2" height="48.2" filterUnits="userSpaceOnUse" color-interpolation-filters="sRGB">
<feFlood flood-opacity="0" result="BackgroundImageFix"/>
<feColorMatrix in="SourceAlpha" type="matrix" values="0 0 0 0 0 0 0 0 0 0 0 0 0 0 0 0 0 0 127 0" result="hardAlpha"/>
<feOffset/>
<feGaussianBlur stdDeviation="2.8"/>
<feComposite in2="hardAlpha" operator="out"/>
<feColorMatrix type="matrix" values="0 0 0 0 0 0 0 0 0 0 0 0 0 0 0 0 0 0 0.25 0"/>
<feBlend mode="normal" in2="BackgroundImageFix" result="effect1_dropShadow_1_50"/>
<feBlend mode="normal" in="SourceGraphic" in2="effect1_dropShadow_1_50" result="shape"/>
</filter>
<linearGradient id="paint0_linear_1_50" x1="82" y1="0" x2="82" y2="56" gradientUnits="userSpaceOnUse">
<stop stop-color="#0F477E"/>
<stop offset="1" stop-color="#0B355E"/>
</linearGradient>
<radialGradient id="paint1_radial_1_50" cx="0" cy="0" r="1" gradientUnits="userSpaceOnUse" gradientTransform="translate(13.1095 9.03114) rotate(90) scale(37.3085 40)">
<stop stop-color="white" stop-opacity="0.0980392"/>
<stop offset="1" stop-color="white" stop-opacity="0"/>
</radialGradient>
<linearGradient id="paint2_linear_1_50" x1="61" y1="37" x2="122.5" y2="37.5" gradientUnits="userSpaceOnUse">
<stop stop-color="#BAF411"/>
<stop offset="1" stop-color="#36AACF"/>
</linearGradient>
<clipPath id="clip0_1_50">
<rect width="40" height="40" fill="white" transform="translate(12 8)"/>
</clipPath>
</defs>
</svg>
