<svg width="56" height="56" viewBox="0 0 56 56" fill="none" xmlns="http://www.w3.org/2000/svg">
<rect width="56" height="56" rx="8.4" fill="url(#paint0_linear_1_62)"/>
<rect x="1.05" y="1.05" width="53.9" height="53.9" rx="7.35" stroke="white" stroke-opacity="0.15" stroke-width="2.1"/>
<g filter="url(#filter0_d_1_62)">
<g clip-path="url(#clip0_1_62)">
<g filter="url(#filter1_f_1_62)">
<path fill-rule="evenodd" clip-rule="evenodd" d="M10.1779 9.65552C9.9794 9.65004 9.78348 9.70138 9.61321 9.80353C9.44294 9.90568 9.3054 10.0543 9.21681 10.232C9.12821 10.4097 9.09225 10.6091 9.11315 10.8065C9.13405 11.004 9.21095 11.1914 9.33479 11.3466L12.3377 15.2333C12.2319 15.5109 12.1684 15.8096 12.1684 16.1252V19.4586V21.8463V21.9586C12.1684 23.3436 13.2834 24.4586 14.6684 24.4586H41.3351C42.7201 24.4586 43.8351 23.3436 43.8351 21.9586V18.6252V16.2376V16.1252C43.8351 15.8083 43.7709 15.5086 43.6642 15.2301L46.6655 11.3466C46.7909 11.1893 46.868 10.9991 46.8877 10.799C46.9073 10.5988 46.8686 10.3972 46.7761 10.2186C46.6837 10.0399 46.5416 9.89185 46.3668 9.79224C46.1921 9.69262 45.9923 9.64573 45.7915 9.6572C45.6399 9.66574 45.492 9.70728 45.3582 9.77896C45.2244 9.85065 45.1078 9.95074 45.0167 10.0722L42.157 13.7734C41.8985 13.6834 41.625 13.6252 41.3351 13.6252H14.6684C14.378 13.6252 14.1038 13.6828 13.8449 13.7734L10.9835 10.0722C10.8894 9.94649 10.768 9.84369 10.6284 9.77154C10.4889 9.69938 10.3349 9.65974 10.1779 9.65552ZM14.6684 25.292C14.4953 25.292 14.3269 25.3094 14.1639 25.3427C13.0226 25.5728 12.1684 26.5676 12.1684 27.7679V27.792V44.2747V44.2989V44.4584C12.1684 45.8434 13.2834 46.9584 14.6684 46.9584H41.3351C42.7201 46.9584 43.8351 45.8434 43.8351 44.4584V27.7918V27.7675C43.8351 26.5673 42.9809 25.5726 41.8397 25.3425C41.6766 25.31 41.5082 25.2917 41.3351 25.2917L14.6684 25.292Z" fill="#263238" fill-opacity="0.4"/>
</g>
<path fill-rule="evenodd" clip-rule="evenodd" d="M45.8424 10.0833L42.3007 14.6667Z" fill="#8AB000"/>
<path d="M45.8424 10.0833L42.3007 14.6667" stroke="#769616" stroke-width="2.5" stroke-linecap="round"/>
<path fill-rule="evenodd" clip-rule="evenodd" d="M45.8237 9.03933C46.2016 9.04933 46.4585 9.19683 46.641 9.41317C44.9519 11.4206 44.6673 11.7395 42.3614 14.5977C41.5118 15.6969 40.6268 15.1288 41.4764 14.0296L45.018 9.44628C45.2089 9.19161 45.5056 9.04791 45.8237 9.03933Z" fill="white" fill-opacity="0.298039"/>
<path fill-rule="evenodd" clip-rule="evenodd" d="M46.6481 9.42359C46.7513 9.54684 47.1157 10.0941 46.6668 10.7204L43.1251 15.3038C42.2755 16.4029 42.1669 14.7935 42.1669 14.7935C42.1669 14.7935 45.279 11.0352 46.6481 9.42359Z" fill="#263238" fill-opacity="0.2"/>
<path fill-rule="evenodd" clip-rule="evenodd" d="M46.0516 9.2351C46.4167 9.2351 46.8515 9.35308 46.7384 9.90058C46.6521 10.3186 42.8544 14.9626 42.8544 14.9626C42.0048 16.0618 40.7765 15.5262 41.6261 14.4272L45.1548 9.86661C45.3716 9.62494 45.6619 9.24693 46.0516 9.2351Z" fill="#8AB000"/>
<path fill-rule="evenodd" clip-rule="evenodd" d="M10.1574 10.0833L13.6991 14.6667Z" fill="#8AB000"/>
<path d="M10.1574 10.0833L13.6991 14.6667" stroke="#769616" stroke-width="2.5" stroke-linecap="round"/>
<path fill-rule="evenodd" clip-rule="evenodd" d="M10.1761 9.03933C9.79822 9.04933 9.54136 9.19683 9.35882 9.41317C11.0479 11.4206 11.3325 11.7395 13.6384 14.5977C14.488 15.6969 15.373 15.1288 14.5234 14.0296L10.9818 9.44628C10.7909 9.19161 10.4942 9.04791 10.1761 9.03933Z" fill="white" fill-opacity="0.298039"/>
<path fill-rule="evenodd" clip-rule="evenodd" d="M9.35175 9.42359C9.24851 9.54684 8.8841 10.0941 9.33301 10.7204L12.8747 15.3038C13.7243 16.4029 13.8329 14.7935 13.8329 14.7935C13.8329 14.7935 10.7209 11.0352 9.35175 9.42359Z" fill="#263238" fill-opacity="0.2"/>
<path fill-rule="evenodd" clip-rule="evenodd" d="M9.94824 9.2351C9.5831 9.2351 9.14836 9.35308 9.26139 9.90058C9.34769 10.3186 13.1454 14.9626 13.1454 14.9626C13.995 16.0618 15.2233 15.5262 14.3737 14.4272L10.8451 9.86661C10.6282 9.62494 10.338 9.24693 9.94824 9.2351Z" fill="#8AB000"/>
<path d="M41.3333 13H14.6667C13.286 13 12.1667 14.1193 12.1667 15.5V21.3333C12.1667 22.714 13.286 23.8333 14.6667 23.8333H41.3333C42.714 23.8333 43.8333 22.714 43.8333 21.3333V15.5C43.8333 14.1193 42.714 13 41.3333 13Z" fill="#AEEA00"/>
<path d="M41.3333 15.5H14.6667C13.286 15.5 12.1667 16.6193 12.1667 18V21.3333C12.1667 22.714 13.286 23.8333 14.6667 23.8333H41.3333C42.714 23.8333 43.8333 22.714 43.8333 21.3333V18C43.8333 16.6193 42.714 15.5 41.3333 15.5Z" fill="#263238" fill-opacity="0.2"/>
<path d="M41.3333 13H14.6667C13.286 13 12.1667 14.1193 12.1667 15.5V18.8333C12.1667 20.214 13.286 21.3333 14.6667 21.3333H41.3333C42.714 21.3333 43.8333 20.214 43.8333 18.8333V15.5C43.8333 14.1193 42.714 13 41.3333 13Z" fill="white" fill-opacity="0.298039"/>
<path d="M41.3333 13.8333H14.6667C13.286 13.8333 12.1667 14.7804 12.1667 15.9487V20.8846C12.1667 22.0529 13.286 23 14.6667 23H41.3333C42.714 23 43.8333 22.0529 43.8333 20.8846V15.9487C43.8333 14.7804 42.714 13.8333 41.3333 13.8333Z" fill="#AEEA00"/>
<path d="M41.3333 24.6667H14.6667C13.286 24.6667 12.1667 25.786 12.1667 27.1667V43.8333C12.1667 45.214 13.286 46.3333 14.6667 46.3333H41.3333C42.714 46.3333 43.8333 45.214 43.8333 43.8333V27.1667C43.8333 25.786 42.714 24.6667 41.3333 24.6667Z" fill="#1976D2"/>
<path d="M41.3333 35.5H14.6667C13.286 35.5 12.1667 36.6193 12.1667 38V43.8333C12.1667 45.214 13.286 46.3333 14.6667 46.3333H41.3333C42.714 46.3333 43.8333 45.214 43.8333 43.8333V38C43.8333 36.6193 42.714 35.5 41.3333 35.5Z" fill="#263238" fill-opacity="0.2"/>
<path d="M41.3333 24.6667H14.6667C13.286 24.6667 12.1667 25.786 12.1667 27.1667V33C12.1667 34.3807 13.286 35.5 14.6667 35.5H41.3333C42.714 35.5 43.8333 34.3807 43.8333 33V27.1667C43.8333 25.786 42.714 24.6667 41.3333 24.6667Z" fill="white" fill-opacity="0.2"/>
<path d="M41.3333 25.5H14.6667C13.286 25.5 12.1667 26.5332 12.1667 27.8077V43.1924C12.1667 44.4669 13.286 45.5 14.6667 45.5H41.3333C42.714 45.5 43.8333 44.4669 43.8333 43.1924V27.8077C43.8333 26.5332 42.714 25.5 41.3333 25.5Z" fill="#1976D2"/>
<path d="M28 30.2916C25.5994 30.2916 23.5668 31.9455 22.9723 34.167H25.6497C26.1117 33.3458 26.979 32.7916 28 32.7916C29.5106 32.7916 30.7083 33.9894 30.7083 35.5C30.7083 37.0105 29.5106 38.2083 28 38.2083C26.9105 38.2083 25.9906 37.5811 25.5586 36.667H22.93C23.4652 38.9717 25.5399 40.7083 28 40.7083C30.8617 40.7083 33.2083 38.3616 33.2083 35.5C33.2083 32.6383 30.8617 30.2916 28 30.2916Z" fill="#0D47A1"/>
<path d="M28 43.4583C32.3953 43.4583 35.9583 39.8952 35.9583 35.5C35.9583 31.1047 32.3953 27.5416 28 27.5416C23.6047 27.5416 20.0417 31.1047 20.0417 35.5C20.0417 39.8952 23.6047 43.4583 28 43.4583Z" stroke="#0D47A1" stroke-width="1.9" stroke-linecap="round"/>
<path d="M19.9792 21.75C21.5325 21.75 22.7917 20.3043 22.7917 18.5208C22.7917 16.7374 21.5325 15.2917 19.9792 15.2917C18.4259 15.2917 17.1667 16.7374 17.1667 18.5208C17.1667 20.3043 18.4259 21.75 19.9792 21.75Z" fill="#263238" fill-opacity="0.2"/>
<path d="M19.9792 21.75C21.5325 21.75 22.7917 20.4908 22.7917 18.9375C22.7917 17.3842 21.5325 16.125 19.9792 16.125C18.4259 16.125 17.1667 17.3842 17.1667 18.9375C17.1667 20.4908 18.4259 21.75 19.9792 21.75Z" fill="white"/>
<path d="M36.2292 21.75C37.7825 21.75 39.0417 20.3043 39.0417 18.5208C39.0417 16.7374 37.7825 15.2917 36.2292 15.2917C34.6759 15.2917 33.4167 16.7374 33.4167 18.5208C33.4167 20.3043 34.6759 21.75 36.2292 21.75Z" fill="#263238" fill-opacity="0.2"/>
<path d="M36.2292 21.75C37.7825 21.75 39.0417 20.4908 39.0417 18.9375C39.0417 17.3842 37.7825 16.125 36.2292 16.125C34.6759 16.125 33.4167 17.3842 33.4167 18.9375C33.4167 20.4908 34.6759 21.75 36.2292 21.75Z" fill="white"/>
<path fill-rule="evenodd" clip-rule="evenodd" d="M10.1779 9.03042C9.9794 9.02494 9.78348 9.07628 9.61321 9.17843C9.44294 9.28057 9.3054 9.42929 9.21681 9.60699C9.12821 9.7847 9.09225 9.98398 9.11315 10.1814C9.13405 10.3789 9.21095 10.5663 9.33479 10.7215L12.3377 14.6083C12.2319 14.8858 12.1684 15.1845 12.1684 15.5002V18.8335V21.2212V21.3335C12.1684 22.7185 13.2834 23.8335 14.6684 23.8335H41.3351C42.7201 23.8335 43.8351 22.7185 43.8351 21.3335V18.0002V15.6125V15.5002C43.8351 15.1833 43.7709 14.8835 43.6642 14.605L46.6655 10.7215C46.7909 10.5642 46.868 10.374 46.8877 10.1739C46.9073 9.97369 46.8686 9.7721 46.7761 9.59347C46.6837 9.41483 46.5416 9.26675 46.3668 9.16713C46.1921 9.06752 45.9923 9.02063 45.7915 9.03209C45.6399 9.04064 45.492 9.08222 45.3582 9.15391C45.2244 9.2256 45.1078 9.32564 45.0167 9.44708L42.157 13.1483C41.8985 13.0583 41.625 13.0002 41.3351 13.0002H14.6684C14.378 13.0002 14.1038 13.0577 13.8449 13.1483L10.9835 9.44708C10.8894 9.32139 10.768 9.21864 10.6284 9.14648C10.4889 9.07433 10.3349 9.03464 10.1779 9.03042ZM14.6684 24.6669C14.4953 24.6669 14.3269 24.6843 14.1639 24.7176C13.0226 24.9477 12.1684 25.9425 12.1684 27.1428V27.167V43.6497V43.6738V43.8333C12.1684 45.2183 13.2834 46.3333 14.6684 46.3333H41.3351C42.7201 46.3333 43.8351 45.2183 43.8351 43.8333V27.1667V27.1425C43.8351 25.9423 42.9809 24.9475 41.8397 24.7174C41.6766 24.6849 41.5082 24.6666 41.3351 24.6666L14.6684 24.6669Z" fill="url(#paint1_radial_1_62)"/>
</g>
</g>
<defs>
<filter id="filter0_d_1_62" x="2.28571" y="2.28571" width="51.4286" height="51.4286" filterUnits="userSpaceOnUse" color-interpolation-filters="sRGB">
<feFlood flood-opacity="0" result="BackgroundImageFix"/>
<feColorMatrix in="SourceAlpha" type="matrix" values="0 0 0 0 0 0 0 0 0 0 0 0 0 0 0 0 0 0 127 0" result="hardAlpha"/>
<feOffset/>
<feGaussianBlur stdDeviation="2.85714"/>
<feComposite in2="hardAlpha" operator="out"/>
<feColorMatrix type="matrix" values="0 0 0 0 0 0 0 0 0 0 0 0 0 0 0 0 0 0 0.25 0"/>
<feBlend mode="normal" in2="BackgroundImageFix" result="effect1_dropShadow_1_62"/>
<feBlend mode="normal" in="SourceGraphic" in2="effect1_dropShadow_1_62" result="shape"/>
</filter>
<filter id="filter1_f_1_62" x="8.2063" y="8.75406" width="39.5874" height="39.1054" filterUnits="userSpaceOnUse" color-interpolation-filters="sRGB">
<feFlood flood-opacity="0" result="BackgroundImageFix"/>
<feBlend mode="normal" in="SourceGraphic" in2="BackgroundImageFix" result="shape"/>
<feGaussianBlur stdDeviation="0.450532" result="effect1_foregroundBlur_1_62"/>
</filter>
<linearGradient id="paint0_linear_1_62" x1="28" y1="0" x2="28" y2="56" gradientUnits="userSpaceOnUse">
<stop stop-color="#0F477E"/>
<stop offset="1" stop-color="#0B355E"/>
</linearGradient>
<radialGradient id="paint1_radial_1_62" cx="0" cy="0" r="1" gradientUnits="userSpaceOnUse" gradientTransform="translate(9.10946 9.03114) rotate(90) scale(37.3085 40)">
<stop stop-color="white" stop-opacity="0.0980392"/>
<stop offset="1" stop-color="white" stop-opacity="0"/>
</radialGradient>
<clipPath id="clip0_1_62">
<rect width="40" height="40" fill="white" transform="translate(8 8)"/>
</clipPath>
</defs>
</svg>
