<svg width="198" height="40" viewBox="0 0 198 40" fill="none" xmlns="http://www.w3.org/2000/svg">
<rect width="198.001" height="40.0014" rx="8" fill="url(#paint0_linear_1_56)"/>
<rect x="1.07143" y="1.07143" width="195.858" height="37.8585" rx="6.92857" stroke="white" stroke-opacity="0.15" stroke-width="2.14286"/>
<g filter="url(#filter0_d_1_56)">
<path d="M18.7113 20C18.7113 18.1635 20.2018 16.673 22.0383 16.673C23.8748 16.673 25.3653 18.1635 25.3653 20C25.3653 21.8365 23.8748 23.327 22.0383 23.327C20.2018 23.3536 18.7113 21.8365 18.7113 20ZM22.0383 6C15.4907 6 10.0078 10.4715 8.46412 16.5399C8.46412 16.5932 8.4375 16.6198 8.4375 16.673C8.4375 17.0456 8.73028 17.3384 9.1029 17.3384H14.7455C15.0116 17.3384 15.2512 17.1787 15.3577 16.9392C16.5288 14.4106 19.0573 12.654 22.0383 12.654C26.0839 12.654 29.3843 15.9544 29.3843 20C29.3843 24.0456 26.0839 27.346 22.0383 27.346C19.0839 27.346 16.5288 25.5894 15.3577 23.0608C15.2512 22.8213 15.0116 22.6616 14.7455 22.6616H9.1029C8.73028 22.6616 8.4375 22.9544 8.4375 23.327C8.4375 23.3802 8.4375 23.4068 8.46412 23.4601C10.0078 29.5285 15.4907 34 22.0383 34C29.7835 34 36.0649 27.7186 36.0649 19.9734C36.0649 12.2548 29.7835 6 22.0383 6Z" fill="white"/>
</g>
<g filter="url(#filter1_d_1_56)">
<path d="M43.3597 26.5007V14.1371H47.8874C48.7648 14.1371 49.4912 14.282 50.0667 14.5717C50.6423 14.8575 51.0729 15.2458 51.3586 15.7369C51.6444 16.2238 51.7873 16.7732 51.7873 17.3849C51.7873 17.9001 51.6927 18.3347 51.5035 18.6889C51.3144 19.0391 51.0608 19.3208 50.7429 19.5341C50.429 19.7434 50.0828 19.8963 49.7045 19.9929V20.1136C50.115 20.1337 50.5155 20.2666 50.9059 20.5121C51.3003 20.7535 51.6263 21.0976 51.8839 21.5444C52.1414 21.9911 52.2702 22.5344 52.2702 23.1743C52.2702 23.8062 52.1213 24.3737 51.8235 24.8768C51.5297 25.3758 51.0749 25.7722 50.4591 26.066C49.8434 26.3558 49.0566 26.5007 48.0987 26.5007H43.3597ZM45.2251 24.9009H47.9176C48.8111 24.9009 49.451 24.7279 49.8373 24.3817C50.2237 24.0356 50.4169 23.603 50.4169 23.0838C50.4169 22.6934 50.3183 22.3352 50.1211 22.0092C49.9239 21.6832 49.6421 21.4236 49.2759 21.2305C48.9137 21.0373 48.483 20.9407 47.984 20.9407H45.2251V24.9009ZM45.2251 19.4858H47.7244C48.143 19.4858 48.5193 19.4053 48.8533 19.2443C49.1914 19.0833 49.459 18.8579 49.6562 18.5682C49.8575 18.2744 49.9581 17.9283 49.9581 17.5298C49.9581 17.0187 49.779 16.5901 49.4208 16.244C49.0626 15.8978 48.5132 15.7248 47.7727 15.7248H45.2251V19.4858ZM60.2118 22.6552V17.228H62.0229V26.5007H60.248V24.8949H60.1514C59.9381 25.3899 59.596 25.8024 59.1251 26.1324C58.6583 26.4584 58.0767 26.6214 57.3805 26.6214C56.7848 26.6214 56.2576 26.4906 55.7988 26.229C55.344 25.9634 54.9858 25.571 54.7242 25.0518C54.4667 24.5327 54.3379 23.8907 54.3379 23.1261V17.228H56.1429V22.9087C56.1429 23.5406 56.318 24.0437 56.6681 24.418C57.0183 24.7922 57.473 24.9794 58.0325 24.9794C58.3705 24.9794 58.7066 24.8949 59.0406 24.7258C59.3787 24.5568 59.6584 24.3012 59.8798 23.9591C60.1051 23.6171 60.2158 23.1824 60.2118 22.6552ZM64.4482 26.5007V17.228H66.2533V26.5007H64.4482ZM65.3598 15.7972C65.0459 15.7972 64.7762 15.6926 64.5508 15.4833C64.3295 15.27 64.2188 15.0164 64.2188 14.7226C64.2188 14.4248 64.3295 14.1713 64.5508 13.962C64.7762 13.7487 65.0459 13.642 65.3598 13.642C65.6737 13.642 65.9413 13.7487 66.1627 13.962C66.3881 14.1713 66.5008 14.4248 66.5008 14.7226C66.5008 15.0164 66.3881 15.27 66.1627 15.4833C65.9413 15.6926 65.6737 15.7972 65.3598 15.7972ZM70.4867 14.1371V26.5007H68.6816V14.1371H70.4867ZM77.2435 17.228V18.6768H72.1785V17.228H77.2435ZM73.5368 15.0064H75.3419V23.778C75.3419 24.1282 75.3942 24.3918 75.4988 24.5689C75.6035 24.7419 75.7383 24.8607 75.9033 24.9251C76.0723 24.9854 76.2554 25.0156 76.4526 25.0156C76.5975 25.0156 76.7243 25.0056 76.833 24.9854C76.9416 24.9653 77.0262 24.9492 77.0865 24.9371L77.4125 26.4283C77.3079 26.4685 77.159 26.5087 76.9658 26.549C76.7726 26.5933 76.5311 26.6174 76.2414 26.6214C75.7664 26.6295 75.3237 26.545 74.9132 26.3679C74.5027 26.1908 74.1707 25.9171 73.9171 25.5469C73.6636 25.1766 73.5368 24.7118 73.5368 24.1523V15.0064ZM85.7495 26.5007L83.0208 17.228H84.8862L86.7034 24.0376H86.7939L88.6171 17.228H90.4825L92.2936 24.0074H92.3841L94.1891 17.228H96.0546L93.3319 26.5007H91.4906L89.6071 19.8057H89.4683L87.5847 26.5007H85.7495ZM97.7675 26.5007V17.228H99.5726V26.5007H97.7675ZM98.6791 15.7972C98.3652 15.7972 98.0955 15.6926 97.8702 15.4833C97.6488 15.27 97.5381 15.0164 97.5381 14.7226C97.5381 14.4248 97.6488 14.1713 97.8702 13.962C98.0955 13.7487 98.3652 13.642 98.6791 13.642C98.993 13.642 99.2607 13.7487 99.482 13.962C99.7074 14.1713 99.8201 14.4248 99.8201 14.7226C99.8201 15.0164 99.7074 15.27 99.482 15.4833C99.2607 15.6926 98.993 15.7972 98.6791 15.7972ZM106.329 17.228V18.6768H101.264V17.228H106.329ZM102.623 15.0064H104.428V23.778C104.428 24.1282 104.48 24.3918 104.585 24.5689C104.689 24.7419 104.824 24.8607 104.989 24.9251C105.158 24.9854 105.341 25.0156 105.539 25.0156C105.683 25.0156 105.81 25.0056 105.919 24.9854C106.028 24.9653 106.112 24.9492 106.172 24.9371L106.498 26.4283C106.394 26.4685 106.245 26.5087 106.052 26.549C105.859 26.5933 105.617 26.6174 105.327 26.6214C104.852 26.6295 104.41 26.545 103.999 26.3679C103.589 26.1908 103.257 25.9171 103.003 25.5469C102.75 25.1766 102.623 24.7118 102.623 24.1523V15.0064ZM110.33 20.995V26.5007H108.525V14.1371H110.306V18.7372H110.421C110.638 18.2382 110.97 17.8417 111.417 17.5479C111.864 17.2541 112.447 17.1072 113.168 17.1072C113.804 17.1072 114.359 17.238 114.834 17.4996C115.313 17.7612 115.683 18.1516 115.945 18.6708C116.21 19.1859 116.343 19.8299 116.343 20.6026V26.5007H114.538V20.8199C114.538 20.1398 114.363 19.6126 114.013 19.2383C113.663 18.86 113.176 18.6708 112.552 18.6708C112.125 18.6708 111.743 18.7614 111.405 18.9425C111.071 19.1236 110.807 19.3892 110.614 19.7393C110.425 20.0855 110.33 20.504 110.33 20.995Z" fill="#E8E8E8"/>
<path d="M134.16 18.1165H131.141C131.101 17.8066 131.019 17.5269 130.894 17.2773C130.769 17.0278 130.604 16.8145 130.399 16.6374C130.193 16.4603 129.95 16.3255 129.668 16.2329C129.391 16.1364 129.083 16.0881 128.745 16.0881C128.145 16.0881 127.628 16.235 127.193 16.5288C126.762 16.8226 126.43 17.2471 126.197 17.8025C125.968 18.3579 125.853 19.0301 125.853 19.8189C125.853 20.6399 125.97 21.3281 126.203 21.8835C126.441 22.4349 126.773 22.8514 127.199 23.1332C127.63 23.4109 128.139 23.5497 128.727 23.5497C129.057 23.5497 129.356 23.5074 129.626 23.4229C129.9 23.3384 130.139 23.2157 130.344 23.0547C130.554 22.8897 130.725 22.6904 130.858 22.457C130.994 22.2196 131.089 21.9519 131.141 21.6541L134.16 21.6722C134.107 22.2196 133.948 22.7589 133.683 23.2901C133.421 23.8214 133.061 24.3063 132.602 24.745C132.143 25.1797 131.584 25.5258 130.924 25.7834C130.268 26.0409 129.515 26.1697 128.666 26.1697C127.547 26.1697 126.545 25.9242 125.66 25.4332C124.778 24.9382 124.082 24.2178 123.571 23.272C123.06 22.3262 122.804 21.1752 122.804 19.8189C122.804 18.4586 123.064 17.3055 123.583 16.3597C124.102 15.4139 124.805 14.6955 125.69 14.2045C126.575 13.7135 127.567 13.468 128.666 13.468C129.415 13.468 130.107 13.5727 130.743 13.782C131.379 13.9872 131.938 14.2891 132.421 14.6875C132.904 15.0819 133.296 15.5669 133.598 16.1424C133.9 16.7179 134.087 17.3759 134.16 18.1165ZM135.87 26.0007V16.728H138.822V26.0007H135.87ZM137.349 15.6474C136.934 15.6474 136.578 15.5105 136.28 15.2369C135.982 14.9592 135.833 14.6251 135.833 14.2347C135.833 13.8484 135.982 13.5183 136.28 13.2447C136.578 12.967 136.934 12.8281 137.349 12.8281C137.767 12.8281 138.123 12.967 138.417 13.2447C138.715 13.5183 138.864 13.8484 138.864 14.2347C138.864 14.6251 138.715 14.9592 138.417 15.2369C138.123 15.5105 137.767 15.6474 137.349 15.6474ZM140.701 26.0007V16.728H143.568V18.4183H143.665C143.834 17.8066 144.11 17.3518 144.492 17.054C144.874 16.7521 145.319 16.6012 145.826 16.6012C145.963 16.6012 146.104 16.6113 146.249 16.6314C146.394 16.6475 146.528 16.6736 146.653 16.7099V19.2756C146.512 19.2273 146.327 19.189 146.098 19.1609C145.872 19.1327 145.671 19.1186 145.494 19.1186C145.144 19.1186 144.828 19.1971 144.546 19.354C144.269 19.507 144.049 19.7223 143.888 20C143.731 20.2737 143.653 20.5956 143.653 20.9659V26.0007H140.701ZM151.703 26.1758C150.725 26.1758 149.886 25.9745 149.186 25.5721C148.489 25.1696 147.954 24.6102 147.58 23.8938C147.206 23.1734 147.018 22.3403 147.018 21.3945C147.018 20.4447 147.206 19.6116 147.58 18.8952C147.958 18.1748 148.495 17.6134 149.192 17.2109C149.892 16.8085 150.727 16.6072 151.697 16.6072C152.554 16.6072 153.301 16.7622 153.937 17.0721C154.577 17.382 155.076 17.8207 155.434 18.3881C155.796 18.9516 155.987 19.6136 156.007 20.3743H153.249C153.192 19.8994 153.031 19.5271 152.766 19.2574C152.504 18.9878 152.162 18.853 151.739 18.853C151.397 18.853 151.097 18.9496 150.84 19.1427C150.582 19.3319 150.381 19.6136 150.236 19.9879C150.095 20.3582 150.025 20.817 150.025 21.3643C150.025 21.9117 150.095 22.3745 150.236 22.7528C150.381 23.1271 150.582 23.4109 150.84 23.604C151.097 23.7932 151.397 23.8878 151.739 23.8878C152.013 23.8878 152.254 23.8294 152.464 23.7127C152.677 23.596 152.852 23.4249 152.989 23.1996C153.126 22.9702 153.212 22.6925 153.249 22.3665H156.007C155.979 23.1311 155.788 23.7992 155.434 24.3707C155.084 24.9422 154.591 25.3869 153.955 25.7049C153.323 26.0188 152.572 26.1758 151.703 26.1758ZM160.47 13.6371V26.0007H157.518V13.6371H160.47ZM166.684 26.1758C165.714 26.1758 164.877 25.9846 164.172 25.6023C163.472 25.2159 162.933 24.6665 162.554 23.9542C162.18 23.2378 161.993 22.3866 161.993 21.4006C161.993 20.4427 162.182 19.6056 162.56 18.8892C162.939 18.1688 163.472 17.6094 164.16 17.2109C164.848 16.8085 165.659 16.6072 166.593 16.6072C167.253 16.6072 167.857 16.7099 168.404 16.9151C168.952 17.1204 169.424 17.4242 169.823 17.8267C170.221 18.2292 170.531 18.7262 170.753 19.3178C170.974 19.9054 171.085 20.5795 171.085 21.3402V22.0767H163.025V20.3622H168.338C168.334 20.0483 168.259 19.7686 168.114 19.5231C167.97 19.2776 167.77 19.0864 167.517 18.9496C167.267 18.8087 166.98 18.7383 166.654 18.7383C166.324 18.7383 166.028 18.8127 165.766 18.9616C165.504 19.1065 165.297 19.3057 165.144 19.5593C164.991 19.8088 164.911 20.0926 164.903 20.4105V22.1552C164.903 22.5335 164.977 22.8655 165.126 23.1513C165.275 23.433 165.486 23.6523 165.76 23.8093C166.034 23.9663 166.36 24.0447 166.738 24.0447C167 24.0447 167.237 24.0085 167.45 23.9361C167.664 23.8636 167.847 23.757 168 23.6161C168.153 23.4752 168.267 23.3022 168.344 23.0969L171.054 23.1754C170.942 23.7831 170.694 24.3124 170.312 24.7631C169.934 25.2099 169.437 25.558 168.821 25.8075C168.205 26.053 167.493 26.1758 166.684 26.1758ZM183.815 18.1165H180.797C180.756 17.8066 180.674 17.5269 180.549 17.2773C180.424 17.0278 180.259 16.8145 180.054 16.6374C179.849 16.4603 179.605 16.3255 179.324 16.2329C179.046 16.1364 178.738 16.0881 178.4 16.0881C177.8 16.0881 177.283 16.235 176.848 16.5288C176.418 16.8226 176.086 17.2471 175.852 17.8025C175.623 18.3579 175.508 19.0301 175.508 19.8189C175.508 20.6399 175.625 21.3281 175.858 21.8835C176.096 22.4349 176.428 22.8514 176.854 23.1332C177.285 23.4109 177.794 23.5497 178.382 23.5497C178.712 23.5497 179.012 23.5074 179.281 23.4229C179.555 23.3384 179.794 23.2157 180 23.0547C180.209 22.8897 180.38 22.6904 180.513 22.457C180.65 22.2196 180.744 21.9519 180.797 21.6541L183.815 21.6722C183.763 22.2196 183.604 22.7589 183.338 23.2901C183.076 23.8214 182.716 24.3063 182.257 24.745C181.799 25.1797 181.239 25.5258 180.579 25.7834C179.923 26.0409 179.171 26.1697 178.321 26.1697C177.203 26.1697 176.2 25.9242 175.315 25.4332C174.434 24.9382 173.737 24.2178 173.226 23.272C172.715 22.3262 172.46 21.1752 172.46 19.8189C172.46 18.4586 172.719 17.3055 173.238 16.3597C173.757 15.4139 174.46 14.6955 175.345 14.2045C176.231 13.7135 177.223 13.468 178.321 13.468C179.07 13.468 179.762 13.5727 180.398 13.782C181.034 13.9872 181.593 14.2891 182.076 14.6875C182.559 15.0819 182.952 15.5669 183.254 16.1424C183.555 16.7179 183.743 17.3759 183.815 18.1165ZM188.513 13.6371V26.0007H185.525V13.6371H188.513Z" fill="white"/>
</g>
<defs>
<filter id="filter0_d_1_56" x="2.39972" y="0.39972" width="39.2654" height="39.202" filterUnits="userSpaceOnUse" color-interpolation-filters="sRGB">
<feFlood flood-opacity="0" result="BackgroundImageFix"/>
<feColorMatrix in="SourceAlpha" type="matrix" values="0 0 0 0 0 0 0 0 0 0 0 0 0 0 0 0 0 0 127 0" result="hardAlpha"/>
<feOffset/>
<feGaussianBlur stdDeviation="2.80014"/>
<feComposite in2="hardAlpha" operator="out"/>
<feColorMatrix type="matrix" values="0 0 0 0 0 0 0 0 0 0 0 0 0 0 0 0 0 0 0.25 0"/>
<feBlend mode="normal" in2="BackgroundImageFix" result="effect1_dropShadow_1_56"/>
<feBlend mode="normal" in="SourceGraphic" in2="effect1_dropShadow_1_56" result="shape"/>
</filter>
<filter id="filter1_d_1_56" x="36.2871" y="3.78642" width="159.429" height="32.4286" filterUnits="userSpaceOnUse" color-interpolation-filters="sRGB">
<feFlood flood-opacity="0" result="BackgroundImageFix"/>
<feColorMatrix in="SourceAlpha" type="matrix" values="0 0 0 0 0 0 0 0 0 0 0 0 0 0 0 0 0 0 127 0" result="hardAlpha"/>
<feOffset/>
<feGaussianBlur stdDeviation="2.85714"/>
<feComposite in2="hardAlpha" operator="out"/>
<feColorMatrix type="matrix" values="0 0 0 0 0 0 0 0 0 0 0 0 0 0 0 0 0 0 0.25 0"/>
<feBlend mode="normal" in2="BackgroundImageFix" result="effect1_dropShadow_1_56"/>
<feBlend mode="normal" in="SourceGraphic" in2="effect1_dropShadow_1_56" result="shape"/>
</filter>
<linearGradient id="paint0_linear_1_56" x1="99.0007" y1="0" x2="99.0007" y2="40.0014" gradientUnits="userSpaceOnUse">
<stop stop-color="#161616"/>
<stop offset="1" stop-color="#0F0F0F"/>
</linearGradient>
</defs>
</svg>
