<svg width="56" height="56" viewBox="0 0 56 56" fill="none" xmlns="http://www.w3.org/2000/svg">
<rect width="56" height="56" rx="8.4" fill="url(#paint0_linear_1_62)"/>
<rect x="1.05" y="1.05" width="53.9" height="53.9" rx="7.35" stroke="white" stroke-opacity="0.15" stroke-width="2.1"/>
<g filter="url(#filter0_d_1_62)">
<path d="M23.3018 28C23.3018 25.3764 25.4311 23.2471 28.0547 23.2471C30.6782 23.2471 32.8075 25.3764 32.8075 28C32.8075 30.6236 30.6782 32.7529 28.0547 32.7529C25.4311 32.7909 23.3018 30.6236 23.3018 28ZM28.0547 8C18.701 8 10.8683 14.3878 8.66302 23.057C8.66302 23.1331 8.625 23.1711 8.625 23.2471C8.625 23.7795 9.04325 24.1977 9.57557 24.1977H17.6364C18.0166 24.1977 18.3588 23.9696 18.5109 23.6274C20.1839 20.0152 23.7961 17.5057 28.0547 17.5057C33.8341 17.5057 38.549 22.2205 38.549 28C38.549 33.7795 33.8341 38.4943 28.0547 38.4943C23.8341 38.4943 20.1839 35.9848 18.5109 32.3726C18.3588 32.0304 18.0166 31.8023 17.6364 31.8023H9.57557C9.04325 31.8023 8.625 32.2205 8.625 32.7529C8.625 32.8289 8.625 32.8669 8.66302 32.943C10.8683 41.6122 18.701 48 28.0547 48C39.1193 48 48.0927 39.0266 48.0927 27.962C48.0927 16.9354 39.1193 8 28.0547 8Z" fill="white"/>
</g>
<defs>
<filter id="filter0_d_1_62" x="2.28571" y="2.28571" width="51.5213" height="51.4286" filterUnits="userSpaceOnUse" color-interpolation-filters="sRGB">
<feFlood flood-opacity="0" result="BackgroundImageFix"/>
<feColorMatrix in="SourceAlpha" type="matrix" values="0 0 0 0 0 0 0 0 0 0 0 0 0 0 0 0 0 0 127 0" result="hardAlpha"/>
<feOffset/>
<feGaussianBlur stdDeviation="2.85714"/>
<feComposite in2="hardAlpha" operator="out"/>
<feColorMatrix type="matrix" values="0 0 0 0 0 0 0 0 0 0 0 0 0 0 0 0 0 0 0.25 0"/>
<feBlend mode="normal" in2="BackgroundImageFix" result="effect1_dropShadow_1_62"/>
<feBlend mode="normal" in="SourceGraphic" in2="effect1_dropShadow_1_62" result="shape"/>
</filter>
<linearGradient id="paint0_linear_1_62" x1="28" y1="0" x2="28" y2="56" gradientUnits="userSpaceOnUse">
<stop stop-color="#161616"/>
<stop offset="1" stop-color="#0F0F0F"/>
</linearGradient>
</defs>
</svg>
