<svg width="244" height="40" viewBox="0 0 244 40" fill="none" xmlns="http://www.w3.org/2000/svg">
<rect width="244.001" height="40.0014" rx="8" fill="url(#paint0_linear_1_56)"/>
<rect x="1.07143" y="1.07143" width="241.858" height="37.8585" rx="6.92857" stroke="white" stroke-opacity="0.15" stroke-width="2.14286"/>
<g filter="url(#filter0_d_1_56)">
<path d="M17.0767 15.2167L13.6117 18.6583L22 27.035L25.4533 23.5933L30.3767 18.6583L26.9233 15.205V15.1933H17.065L17.0767 15.2167ZM21.965 6L9.75 13V27L21.965 34L34.18 27V13L21.965 6ZM31.8467 25.6583L21.965 31.3517L12.0833 25.6583V14.3067L21.965 8.61333L31.8467 14.3067V25.6583Z" fill="#E9573F"/>
</g>
<g filter="url(#filter1_d_1_56)">
<path d="M44.4041 26.5007H42.424L46.8732 14.1371H49.0284L53.4776 26.5007H51.4975L48.0021 16.3828H47.9055L44.4041 26.5007ZM44.7361 21.6591H51.1594V23.2287H44.7361V21.6591ZM61.8886 17.228L58.526 26.5007H56.5942L53.2256 17.228H55.1634L57.5118 24.3636H57.6084L59.9507 17.228H61.8886ZM66.0178 26.706C65.4302 26.706 64.899 26.5973 64.4241 26.38C63.9492 26.1586 63.5729 25.8386 63.2952 25.4201C63.0215 25.0015 62.8846 24.4884 62.8846 23.8807C62.8846 23.3575 62.9853 22.9268 63.1865 22.5888C63.3877 22.2507 63.6594 21.9831 64.0015 21.7859C64.3436 21.5886 64.7259 21.4397 65.1485 21.3391C65.5711 21.2385 66.0017 21.162 66.4404 21.1097C66.9958 21.0453 67.4466 20.993 67.7927 20.9528C68.1388 20.9085 68.3903 20.8381 68.5473 20.7415C68.7042 20.6449 68.7827 20.4879 68.7827 20.2706V20.2283C68.7827 19.7011 68.6338 19.2926 68.336 19.0028C68.0422 18.7131 67.6035 18.5682 67.0199 18.5682C66.4122 18.5682 65.9333 18.703 65.5832 18.9726C65.237 19.2383 64.9976 19.5341 64.8648 19.8601L63.1684 19.4737C63.3696 18.9103 63.6634 18.4555 64.0498 18.1094C64.4402 17.7592 64.8889 17.5057 65.396 17.3487C65.9031 17.1877 66.4364 17.1072 66.9958 17.1072C67.3661 17.1072 67.7585 17.1515 68.173 17.24C68.5916 17.3246 68.9819 17.4815 69.3442 17.7109C69.7104 17.9403 70.0102 18.2683 70.2437 18.6949C70.4771 19.1175 70.5938 19.6669 70.5938 20.343V26.5007H68.831V25.2329H68.7586C68.6419 25.4664 68.4668 25.6958 68.2334 25.9212C67.9999 26.1465 67.7001 26.3337 67.3339 26.4826C66.9676 26.6315 66.5289 26.706 66.0178 26.706ZM66.4102 25.2571C66.9093 25.2571 67.3359 25.1585 67.69 24.9613C68.0482 24.7641 68.3199 24.5065 68.505 24.1886C68.6942 23.8666 68.7888 23.5225 68.7888 23.1562V21.9609C68.7244 22.0253 68.5996 22.0857 68.4145 22.142C68.2334 22.1944 68.0261 22.2406 67.7927 22.2809C67.5592 22.3171 67.3319 22.3513 67.1105 22.3835C66.8891 22.4117 66.704 22.4358 66.5551 22.456C66.205 22.5002 65.885 22.5747 65.5952 22.6793C65.3095 22.784 65.0801 22.9349 64.907 23.1321C64.738 23.3253 64.6535 23.5828 64.6535 23.9048C64.6535 24.3515 64.8185 24.6896 65.1485 24.919C65.4785 25.1444 65.8991 25.2571 66.4102 25.2571ZM72.998 26.5007V17.228H74.8031V26.5007H72.998ZM73.9096 15.7972C73.5957 15.7972 73.326 15.6926 73.1006 15.4833C72.8793 15.27 72.7686 15.0164 72.7686 14.7226C72.7686 14.4248 72.8793 14.1713 73.1006 13.962C73.326 13.7487 73.5957 13.642 73.9096 13.642C74.2235 13.642 74.4911 13.7487 74.7125 13.962C74.9379 14.1713 75.0506 14.4248 75.0506 14.7226C75.0506 15.0164 74.9379 15.27 74.7125 15.4833C74.4911 15.6926 74.2235 15.7972 73.9096 15.7972ZM79.0365 14.1371V26.5007H77.2314V14.1371H79.0365ZM84.1633 26.706C83.5757 26.706 83.0445 26.5973 82.5696 26.38C82.0947 26.1586 81.7184 25.8386 81.4407 25.4201C81.167 25.0015 81.0301 24.4884 81.0301 23.8807C81.0301 23.3575 81.1308 22.9268 81.332 22.5888C81.5332 22.2507 81.8049 21.9831 82.147 21.7859C82.4891 21.5886 82.8714 21.4397 83.294 21.3391C83.7166 21.2385 84.1472 21.162 84.5859 21.1097C85.1413 21.0453 85.5921 20.993 85.9382 20.9528C86.2843 20.9085 86.5358 20.8381 86.6928 20.7415C86.8497 20.6449 86.9282 20.4879 86.9282 20.2706V20.2283C86.9282 19.7011 86.7793 19.2926 86.4815 19.0028C86.1877 18.7131 85.749 18.5682 85.1654 18.5682C84.5577 18.5682 84.0788 18.703 83.7287 18.9726C83.3825 19.2383 83.1431 19.5341 83.0103 19.8601L81.3139 19.4737C81.5151 18.9103 81.8089 18.4555 82.1953 18.1094C82.5857 17.7592 83.0344 17.5057 83.5415 17.3487C84.0486 17.1877 84.5819 17.1072 85.1413 17.1072C85.5116 17.1072 85.904 17.1515 86.3185 17.24C86.7371 17.3246 87.1274 17.4815 87.4897 17.7109C87.8559 17.9403 88.1557 18.2683 88.3892 18.6949C88.6226 19.1175 88.7393 19.6669 88.7393 20.343V26.5007H86.9765V25.2329H86.9041C86.7874 25.4664 86.6123 25.6958 86.3789 25.9212C86.1454 26.1465 85.8456 26.3337 85.4794 26.4826C85.1131 26.6315 84.6744 26.706 84.1633 26.706ZM84.5557 25.2571C85.0548 25.2571 85.4814 25.1585 85.8355 24.9613C86.1937 24.7641 86.4654 24.5065 86.6505 24.1886C86.8397 23.8666 86.9343 23.5225 86.9343 23.1562V21.9609C86.8699 22.0253 86.7451 22.0857 86.56 22.142C86.3789 22.1944 86.1716 22.2406 85.9382 22.2809C85.7047 22.3171 85.4774 22.3513 85.256 22.3835C85.0346 22.4117 84.8495 22.4358 84.7006 22.456C84.3505 22.5002 84.0305 22.5747 83.7407 22.6793C83.455 22.784 83.2256 22.9349 83.0525 23.1321C82.8835 23.3253 82.799 23.5828 82.799 23.9048C82.799 24.3515 82.964 24.6896 83.294 24.919C83.624 25.1444 84.0446 25.2571 84.5557 25.2571ZM91.2884 26.5007V14.1371H93.0934V18.7312H93.2021C93.3067 18.538 93.4577 18.3146 93.6549 18.0611C93.8521 17.8075 94.1258 17.5862 94.4759 17.397C94.826 17.2038 95.2889 17.1072 95.8644 17.1072C96.613 17.1072 97.2811 17.2964 97.8687 17.6747C98.4563 18.053 98.9171 18.5984 99.2511 19.3107C99.5892 20.0231 99.7582 20.8803 99.7582 21.8824C99.7582 22.8846 99.5912 23.7438 99.2571 24.4602C98.9231 25.1726 98.4643 25.7219 97.8807 26.1083C97.2972 26.4906 96.6311 26.6818 95.8825 26.6818C95.3191 26.6818 94.8582 26.5872 94.5 26.3981C94.1459 26.2089 93.8682 25.9876 93.667 25.734C93.4657 25.4805 93.3108 25.2551 93.2021 25.0579H93.0512V26.5007H91.2884ZM93.0572 21.8643C93.0572 22.5163 93.1518 23.0878 93.341 23.5788C93.5301 24.0698 93.8038 24.4542 94.162 24.7319C94.5202 25.0056 94.9589 25.1424 95.478 25.1424C96.0173 25.1424 96.4681 24.9995 96.8303 24.7138C97.1925 24.424 97.4662 24.0316 97.6513 23.5366C97.8405 23.0415 97.9351 22.4841 97.9351 21.8643C97.9351 21.2526 97.8425 20.7032 97.6574 20.2163C97.4763 19.7293 97.2026 19.3449 96.8363 19.0632C96.4741 18.7815 96.0214 18.6406 95.478 18.6406C94.9548 18.6406 94.5121 18.7754 94.1499 19.0451C93.7917 19.3147 93.5201 19.691 93.3349 20.174C93.1498 20.6569 93.0572 21.2204 93.0572 21.8643ZM103.59 14.1371V26.5007H101.785V14.1371H103.59ZM110.015 26.6878C109.101 26.6878 108.315 26.4926 107.655 26.1023C106.999 25.7078 106.491 25.1545 106.133 24.4421C105.779 23.7257 105.602 22.8866 105.602 21.9247C105.602 20.9749 105.779 20.1378 106.133 19.4133C106.491 18.6889 106.99 18.1234 107.63 17.717C108.274 17.3105 109.027 17.1072 109.888 17.1072C110.411 17.1072 110.918 17.1938 111.409 17.3668C111.9 17.5399 112.341 17.8115 112.732 18.1818C113.122 18.5521 113.43 19.033 113.655 19.6246C113.881 20.2122 113.993 20.9266 113.993 21.7677V22.4077H106.622V21.0554H112.224C112.224 20.5805 112.128 20.1599 111.935 19.7937C111.742 19.4234 111.47 19.1316 111.12 18.9183C110.774 18.705 110.367 18.5984 109.9 18.5984C109.393 18.5984 108.95 18.7231 108.572 18.9726C108.198 19.2181 107.908 19.5401 107.703 19.9386C107.502 20.333 107.401 20.7616 107.401 21.2244V22.2809C107.401 22.9007 107.51 23.4279 107.727 23.8626C107.948 24.2972 108.256 24.6292 108.651 24.8587C109.045 25.084 109.506 25.1967 110.033 25.1967C110.375 25.1967 110.687 25.1484 110.969 25.0518C111.251 24.9512 111.494 24.8023 111.699 24.6051C111.905 24.4079 112.061 24.1644 112.17 23.8746L113.879 24.1825C113.742 24.6856 113.496 25.1263 113.142 25.5046C112.792 25.8789 112.351 26.1707 111.82 26.38C111.293 26.5852 110.691 26.6878 110.015 26.6878ZM124.401 26.6878C123.532 26.6878 122.773 26.4886 122.125 26.0902C121.477 25.6917 120.974 25.1343 120.616 24.418C120.258 23.7016 120.079 22.8645 120.079 21.9066C120.079 20.9447 120.258 20.1036 120.616 19.3832C120.974 18.6627 121.477 18.1033 122.125 17.7049C122.773 17.3065 123.532 17.1072 124.401 17.1072C125.27 17.1072 126.029 17.3065 126.677 17.7049C127.325 18.1033 127.828 18.6627 128.186 19.3832C128.544 20.1036 128.723 20.9447 128.723 21.9066C128.723 22.8645 128.544 23.7016 128.186 24.418C127.828 25.1343 127.325 25.6917 126.677 26.0902C126.029 26.4886 125.27 26.6878 124.401 26.6878ZM124.407 25.1726C124.97 25.1726 125.437 25.0237 125.808 24.7258C126.178 24.428 126.452 24.0316 126.629 23.5366C126.81 23.0415 126.9 22.4962 126.9 21.9006C126.9 21.3089 126.81 20.7656 126.629 20.2706C126.452 19.7715 126.178 19.3711 125.808 19.0692C125.437 18.7674 124.97 18.6165 124.407 18.6165C123.84 18.6165 123.369 18.7674 122.994 19.0692C122.624 19.3711 122.348 19.7715 122.167 20.2706C121.99 20.7656 121.902 21.3089 121.902 21.9006C121.902 22.4962 121.99 23.0415 122.167 23.5366C122.348 24.0316 122.624 24.428 122.994 24.7258C123.369 25.0237 123.84 25.1726 124.407 25.1726ZM132.543 20.995V26.5007H130.738V17.228H132.471V18.7372H132.586C132.799 18.2462 133.133 17.8518 133.588 17.554C134.046 17.2561 134.624 17.1072 135.32 17.1072C135.952 17.1072 136.506 17.24 136.98 17.5057C137.455 17.7673 137.824 18.1577 138.085 18.6768C138.347 19.196 138.478 19.8379 138.478 20.6026V26.5007H136.673V20.8199C136.673 20.1478 136.497 19.6226 136.147 19.2443C135.797 18.862 135.316 18.6708 134.704 18.6708C134.286 18.6708 133.914 18.7614 133.588 18.9425C133.266 19.1236 133.01 19.3892 132.821 19.7393C132.636 20.0855 132.543 20.504 132.543 20.995Z" fill="#E8E8E8"/>
<path d="M144.937 26.0007V13.6371H150.044C150.97 13.6371 151.769 13.8041 152.441 14.1381C153.117 14.4681 153.638 14.9431 154.005 15.5628C154.371 16.1786 154.554 16.9091 154.554 17.7543C154.554 18.6115 154.367 19.34 153.992 19.9396C153.618 20.5353 153.087 20.99 152.399 21.304C151.711 21.6139 150.896 21.7688 149.954 21.7688H146.724V19.4144H149.398C149.849 19.4144 150.225 19.356 150.527 19.2393C150.833 19.1186 151.065 18.9375 151.222 18.696C151.379 18.4505 151.457 18.1366 151.457 17.7543C151.457 17.3719 151.379 17.056 151.222 16.8065C151.065 16.5529 150.833 16.3637 150.527 16.239C150.221 16.1102 149.845 16.0458 149.398 16.0458H147.925V26.0007H144.937ZM151.898 20.3501L154.977 26.0007H151.717L148.698 20.3501H151.898ZM162.176 21.9982V16.728H165.122V26.0007H162.308V24.2741H162.212C162.007 24.8416 161.656 25.2924 161.161 25.6264C160.67 25.9564 160.077 26.1214 159.38 26.1214C158.749 26.1214 158.193 25.9765 157.714 25.6868C157.235 25.397 156.863 24.9925 156.597 24.4734C156.332 23.9502 156.197 23.3384 156.193 22.6381V16.728H159.145V22.0586C159.149 22.5617 159.282 22.9581 159.543 23.2479C159.805 23.5376 160.161 23.6825 160.612 23.6825C160.906 23.6825 161.169 23.6181 161.403 23.4893C161.64 23.3565 161.827 23.1654 161.964 22.9158C162.105 22.6623 162.176 22.3564 162.176 21.9982ZM167.001 26.0007V13.6371H169.953V18.3157H170.013C170.134 18.034 170.305 17.7623 170.526 17.5007C170.752 17.2391 171.037 17.0258 171.383 16.8608C171.734 16.6918 172.152 16.6072 172.639 16.6072C173.283 16.6072 173.885 16.7763 174.444 17.1143C175.008 17.4524 175.462 17.9736 175.808 18.6779C176.155 19.3822 176.328 20.2797 176.328 21.3704C176.328 22.4208 176.161 23.3002 175.827 24.0085C175.497 24.7168 175.05 25.2481 174.486 25.6023C173.927 25.9564 173.305 26.1335 172.621 26.1335C172.154 26.1335 171.75 26.057 171.408 25.9041C171.065 25.7512 170.778 25.5499 170.544 25.3004C170.315 25.0509 170.138 24.7832 170.013 24.4975H169.922V26.0007H167.001ZM169.892 21.3643C169.892 21.8634 169.959 22.298 170.091 22.6683C170.228 23.0386 170.424 23.3263 170.677 23.5316C170.935 23.7328 171.243 23.8334 171.601 23.8334C171.963 23.8334 172.271 23.7328 172.524 23.5316C172.778 23.3263 172.969 23.0386 173.098 22.6683C173.231 22.298 173.297 21.8634 173.297 21.3643C173.297 20.8653 173.231 20.4326 173.098 20.0664C172.969 19.7002 172.778 19.4164 172.524 19.2152C172.275 19.014 171.967 18.9133 171.601 18.9133C171.238 18.9133 170.931 19.0119 170.677 19.2092C170.424 19.4064 170.228 19.6881 170.091 20.0543C169.959 20.4206 169.892 20.8572 169.892 21.3643ZM179.381 29.478C179.027 29.478 178.693 29.4498 178.379 29.3935C178.065 29.3411 177.795 29.2707 177.57 29.1822L178.222 27.039C178.511 27.1356 178.773 27.192 179.007 27.2081C179.244 27.2242 179.447 27.1859 179.616 27.0934C179.789 27.0048 179.922 26.8459 180.015 26.6165L180.129 26.3388L176.833 16.728H179.924L181.633 23.3444H181.729L183.462 16.728H186.571L183.075 26.8881C182.906 27.3952 182.667 27.842 182.357 28.2283C182.051 28.6187 181.655 28.9246 181.168 29.1459C180.685 29.3673 180.089 29.478 179.381 29.478ZM195.816 17.6758C195.748 17.4222 195.647 17.1989 195.514 17.0057C195.382 16.8085 195.219 16.6414 195.026 16.5046C194.832 16.3678 194.611 16.2651 194.361 16.1967C194.112 16.1243 193.838 16.0881 193.54 16.0881C192.941 16.0881 192.422 16.2329 191.983 16.5227C191.548 16.8125 191.212 17.2351 190.975 17.7905C190.737 18.3418 190.619 19.0119 190.619 19.8008C190.619 20.5936 190.733 21.2698 190.963 21.8292C191.192 22.3886 191.524 22.8152 191.959 23.109C192.393 23.4028 192.921 23.5497 193.54 23.5497C194.088 23.5497 194.551 23.4612 194.929 23.2841C195.311 23.103 195.601 22.8474 195.798 22.5174C195.995 22.1874 196.094 21.799 196.094 21.3523L196.649 21.4187H193.643V19.2393H198.974V20.8753C198.974 21.9821 198.738 22.9299 198.267 23.7187C197.8 24.5076 197.157 25.1133 196.336 25.5359C195.519 25.9584 194.579 26.1697 193.516 26.1697C192.337 26.1697 191.301 25.9142 190.407 25.403C189.514 24.8919 188.818 24.1635 188.318 23.2177C187.819 22.2679 187.57 21.141 187.57 19.837C187.57 18.8228 187.721 17.9233 188.023 17.1385C188.325 16.3497 188.745 15.6816 189.284 15.1342C189.828 14.5869 190.456 14.1723 191.168 13.8906C191.884 13.6089 192.655 13.468 193.48 13.468C194.196 13.468 194.863 13.5707 195.478 13.7759C196.098 13.9812 196.645 14.2709 197.12 14.6452C197.599 15.0195 197.988 15.4642 198.285 15.9794C198.583 16.4945 198.768 17.06 198.841 17.6758H195.816ZM205.069 26.1758C204.1 26.1758 203.262 25.9846 202.558 25.6023C201.858 25.2159 201.319 24.6665 200.94 23.9542C200.566 23.2378 200.379 22.3866 200.379 21.4006C200.379 20.4427 200.568 19.6056 200.946 18.8892C201.325 18.1688 201.858 17.6094 202.546 17.2109C203.234 16.8085 204.045 16.6072 204.979 16.6072C205.639 16.6072 206.243 16.7099 206.79 16.9151C207.337 17.1204 207.81 17.4242 208.209 17.8267C208.607 18.2292 208.917 18.7262 209.138 19.3178C209.36 19.9054 209.47 20.5795 209.47 21.3402V22.0767H201.411V20.3622H206.724C206.72 20.0483 206.645 19.7686 206.5 19.5231C206.355 19.2776 206.156 19.0864 205.903 18.9496C205.653 18.8087 205.365 18.7383 205.039 18.7383C204.709 18.7383 204.413 18.8127 204.152 18.9616C203.89 19.1065 203.683 19.3057 203.53 19.5593C203.377 19.8088 203.297 20.0926 203.289 20.4105V22.1552C203.289 22.5335 203.363 22.8655 203.512 23.1513C203.661 23.433 203.872 23.6523 204.146 23.8093C204.419 23.9663 204.745 24.0447 205.124 24.0447C205.385 24.0447 205.623 24.0085 205.836 23.9361C206.049 23.8636 206.233 23.757 206.385 23.6161C206.538 23.4752 206.653 23.3022 206.73 23.0969L209.44 23.1754C209.327 23.7831 209.08 24.3124 208.698 24.7631C208.319 25.2099 207.822 25.558 207.207 25.8075C206.591 26.053 205.878 26.1758 205.069 26.1758ZM210.978 26.0007V16.728H213.785V18.4304H213.888C214.081 17.8669 214.407 17.4222 214.866 17.0962C215.325 16.7702 215.872 16.6072 216.508 16.6072C217.152 16.6072 217.703 16.7722 218.162 17.1023C218.621 17.4323 218.913 17.875 219.037 18.4304H219.134C219.307 17.879 219.645 17.4383 220.148 17.1083C220.651 16.7743 221.245 16.6072 221.929 16.6072C222.806 16.6072 223.519 16.889 224.066 17.4524C224.614 18.0118 224.887 18.7805 224.887 19.7585V26.0007H221.935V20.4346C221.935 19.9718 221.816 19.6197 221.579 19.3782C221.341 19.1327 221.034 19.0099 220.655 19.0099C220.249 19.0099 219.929 19.1427 219.695 19.4084C219.466 19.67 219.351 20.0221 219.351 20.4648V26.0007H216.514V20.4045C216.514 19.9738 216.397 19.6337 216.164 19.3842C215.93 19.1347 215.623 19.0099 215.24 19.0099C214.983 19.0099 214.755 19.0723 214.558 19.1971C214.361 19.3178 214.206 19.4909 214.093 19.7163C213.984 19.9416 213.93 20.2073 213.93 20.5131V26.0007H210.978ZM234.812 19.5593L232.101 19.6317C232.073 19.4386 231.997 19.2675 231.872 19.1186C231.747 18.9657 231.584 18.8469 231.383 18.7624C231.186 18.6739 230.956 18.6296 230.695 18.6296C230.353 18.6296 230.061 18.698 229.819 18.8349C229.582 18.9717 229.465 19.1568 229.469 19.3903C229.465 19.5714 229.538 19.7283 229.687 19.8611C229.839 19.994 230.111 20.1006 230.502 20.1811L232.288 20.5192C233.214 20.6962 233.902 20.99 234.353 21.4006C234.808 21.8111 235.037 22.3544 235.041 23.0305C235.037 23.6664 234.848 24.2198 234.474 24.6907C234.104 25.1616 233.596 25.5278 232.953 25.7894C232.309 26.047 231.572 26.1758 230.743 26.1758C229.419 26.1758 228.375 25.9041 227.61 25.3608C226.849 24.8134 226.415 24.081 226.306 23.1633L229.222 23.0909C229.286 23.429 229.453 23.6865 229.723 23.8636C229.992 24.0407 230.337 24.1292 230.755 24.1292C231.133 24.1292 231.441 24.0588 231.679 23.918C231.916 23.7771 232.037 23.5899 232.041 23.3565C232.037 23.1472 231.944 22.9802 231.763 22.8555C231.582 22.7267 231.298 22.6261 230.912 22.5536L229.294 22.2457C228.364 22.0767 227.672 21.7648 227.217 21.31C226.763 20.8512 226.537 20.2676 226.541 19.5593C226.537 18.9395 226.702 18.4103 227.036 17.9716C227.37 17.5289 227.845 17.1908 228.461 16.9574C229.077 16.7239 229.803 16.6072 230.64 16.6072C231.896 16.6072 232.886 16.8708 233.611 17.3981C234.335 17.9213 234.735 18.6417 234.812 19.5593Z" fill="#E9573F"/>
</g>
<defs>
<filter id="filter0_d_1_56" x="2.39972" y="0.39972" width="39.202" height="39.202" filterUnits="userSpaceOnUse" color-interpolation-filters="sRGB">
<feFlood flood-opacity="0" result="BackgroundImageFix"/>
<feColorMatrix in="SourceAlpha" type="matrix" values="0 0 0 0 0 0 0 0 0 0 0 0 0 0 0 0 0 0 127 0" result="hardAlpha"/>
<feOffset/>
<feGaussianBlur stdDeviation="2.80014"/>
<feComposite in2="hardAlpha" operator="out"/>
<feColorMatrix type="matrix" values="0 0 0 0 0 0 0 0 0 0 0 0 0 0 0 0 0 0 0.25 0"/>
<feBlend mode="normal" in2="BackgroundImageFix" result="effect1_dropShadow_1_56"/>
<feBlend mode="normal" in="SourceGraphic" in2="effect1_dropShadow_1_56" result="shape"/>
</filter>
<filter id="filter1_d_1_56" x="36.2871" y="3.78642" width="205.429" height="32.4286" filterUnits="userSpaceOnUse" color-interpolation-filters="sRGB">
<feFlood flood-opacity="0" result="BackgroundImageFix"/>
<feColorMatrix in="SourceAlpha" type="matrix" values="0 0 0 0 0 0 0 0 0 0 0 0 0 0 0 0 0 0 127 0" result="hardAlpha"/>
<feOffset/>
<feGaussianBlur stdDeviation="2.85714"/>
<feComposite in2="hardAlpha" operator="out"/>
<feColorMatrix type="matrix" values="0 0 0 0 0 0 0 0 0 0 0 0 0 0 0 0 0 0 0.25 0"/>
<feBlend mode="normal" in2="BackgroundImageFix" result="effect1_dropShadow_1_56"/>
<feBlend mode="normal" in="SourceGraphic" in2="effect1_dropShadow_1_56" result="shape"/>
</filter>
<linearGradient id="paint0_linear_1_56" x1="122.001" y1="0" x2="122.001" y2="40.0014" gradientUnits="userSpaceOnUse">
<stop stop-color="#85200F"/>
<stop offset="1" stop-color="#501309"/>
</linearGradient>
</defs>
</svg>
