<svg width="301" height="40" viewBox="0 0 301 40" fill="none" xmlns="http://www.w3.org/2000/svg">
<g clip-path="url(#clip0_1_56)">
<rect width="301.001" height="40.0014" rx="8" fill="url(#paint0_linear_1_56)"/>
<g filter="url(#filter0_d_1_56)">
<path d="M22.0009 6.0009C14.0246 6.0009 7.5625 12.4304 7.5625 20.3545C7.5625 26.6996 11.6991 32.0778 17.4321 33.9751C18.1567 34.1106 18.4184 33.6665 18.4184 33.2826C18.4184 32.9417 18.4103 32.0401 18.4048 30.8433C14.3864 31.7081 13.54 28.9137 13.54 28.9137C12.8821 27.2594 11.9328 26.8154 11.9328 26.8154C10.6261 25.9281 12.0366 25.947 12.0366 25.947C13.484 26.0448 14.2457 27.4227 14.2457 27.4227C15.5334 29.6188 17.6243 28.9837 18.4518 28.6141C18.5781 27.6891 18.9544 27.0531 19.3641 26.6988C16.1588 26.339 12.7883 25.1055 12.7883 19.6054C12.7883 18.0346 13.3478 16.7553 14.2727 15.7506C14.113 15.3908 13.6239 13.9286 14.4 11.9514C14.4 11.9514 15.6083 11.5683 18.3705 13.4235C19.5265 13.105 20.7538 12.9462 21.9801 12.9382C23.2074 12.9462 24.4338 13.1059 25.5897 13.4235C28.3358 11.5683 29.5432 11.9514 29.5432 11.9514C30.3183 13.9286 29.8292 15.3899 29.6884 15.7506C30.6044 16.7553 31.1639 18.0355 31.1639 19.6054C31.1639 25.1181 27.7889 26.3336 24.58 26.6844C25.0817 27.1141 25.5518 27.9977 25.5518 29.3389C25.5518 31.2587 25.5338 32.8053 25.5338 33.2727C25.5338 33.6459 25.7865 34.0944 26.53 33.95C32.3054 32.0724 36.4375 26.6898 36.4375 20.3536C36.4375 12.4295 29.9754 6 21.9991 6L22.0009 6.0009Z" fill="white"/>
</g>
<g filter="url(#filter1_d_1_56)">
<g filter="url(#filter2_d_1_56)">
<path d="M43.3597 26.5007V14.1371H47.7667C48.7245 14.1371 49.5194 14.3021 50.1513 14.6321C50.7871 14.9621 51.262 15.4189 51.576 16.0025C51.8899 16.582 52.0468 17.2521 52.0468 18.0128C52.0468 18.7694 51.8879 19.4355 51.5699 20.011C51.256 20.5825 50.7811 21.0272 50.1452 21.3452C49.5133 21.6631 48.7185 21.8221 47.7606 21.8221H44.4222V20.2163H47.5916C48.1953 20.2163 48.6863 20.1297 49.0646 19.9567C49.4469 19.7836 49.7267 19.5321 49.9037 19.202C50.0808 18.872 50.1694 18.4756 50.1694 18.0128C50.1694 17.5459 50.0788 17.1414 49.8977 16.7994C49.7206 16.4573 49.4409 16.1957 49.0586 16.0145C48.6803 15.8294 48.1832 15.7369 47.5674 15.7369H45.2251V26.5007H43.3597ZM49.463 20.9226L52.5177 26.5007H50.3927L47.3984 20.9226H49.463ZM58.0521 26.6878C57.1385 26.6878 56.3517 26.4926 55.6916 26.1023C55.0356 25.7078 54.5285 25.1545 54.1703 24.4421C53.8162 23.7257 53.6391 22.8866 53.6391 21.9247C53.6391 20.9749 53.8162 20.1378 54.1703 19.4133C54.5285 18.6889 55.0276 18.1234 55.6675 17.717C56.3114 17.3105 57.064 17.1072 57.9253 17.1072C58.4485 17.1072 58.9556 17.1938 59.4466 17.3668C59.9376 17.5399 60.3783 17.8115 60.7687 18.1818C61.1591 18.5521 61.467 19.033 61.6924 19.6246C61.9177 20.2122 62.0304 20.9266 62.0304 21.7677V22.4077H54.6593V21.0554H60.2616C60.2616 20.5805 60.165 20.1599 59.9718 19.7937C59.7786 19.4234 59.507 19.1316 59.1568 18.9183C58.8107 18.705 58.4042 18.5984 57.9374 18.5984C57.4303 18.5984 56.9876 18.7231 56.6093 18.9726C56.235 19.2181 55.9452 19.5401 55.7399 19.9386C55.5387 20.333 55.4381 20.7616 55.4381 21.2244V22.2809C55.4381 22.9007 55.5468 23.4279 55.7641 23.8626C55.9854 24.2972 56.2933 24.6292 56.6877 24.8587C57.0822 25.084 57.543 25.1967 58.0702 25.1967C58.4123 25.1967 58.7242 25.1484 59.0059 25.0518C59.2876 24.9512 59.5311 24.8023 59.7364 24.6051C59.9416 24.4079 60.0986 24.1644 60.2073 23.8746L61.9157 24.1825C61.7789 24.6856 61.5334 25.1263 61.1792 25.5046C60.8291 25.8789 60.3884 26.1707 59.8571 26.38C59.3299 26.5852 58.7282 26.6878 58.0521 26.6878ZM66.7317 26.706C66.1441 26.706 65.6128 26.5973 65.1379 26.38C64.663 26.1586 64.2867 25.8386 64.009 25.4201C63.7354 25.0015 63.5985 24.4884 63.5985 23.8807C63.5985 23.3575 63.6991 22.9268 63.9004 22.5888C64.1016 22.2507 64.3733 21.9831 64.7153 21.7859C65.0574 21.5886 65.4398 21.4397 65.8624 21.3391C66.2849 21.2385 66.7156 21.162 67.1543 21.1097C67.7097 21.0453 68.1604 20.993 68.5065 20.9528C68.8527 20.9085 69.1042 20.8381 69.2612 20.7415C69.4181 20.6449 69.4966 20.4879 69.4966 20.2706V20.2283C69.4966 19.7011 69.3477 19.2926 69.0499 19.0028C68.7561 18.7131 68.3174 18.5682 67.7338 18.5682C67.1261 18.5682 66.6472 18.703 66.297 18.9726C65.9509 19.2383 65.7114 19.5341 65.5786 19.8601L63.8822 19.4737C64.0835 18.9103 64.3773 18.4555 64.7636 18.1094C65.154 17.7592 65.6028 17.5057 66.1099 17.3487C66.617 17.1877 67.1502 17.1072 67.7097 17.1072C68.0799 17.1072 68.4723 17.1515 68.8869 17.24C69.3054 17.3246 69.6958 17.4815 70.058 17.7109C70.4243 17.9403 70.7241 18.2683 70.9575 18.6949C71.191 19.1175 71.3077 19.6669 71.3077 20.343V26.5007H69.5449V25.2329H69.4724C69.3557 25.4664 69.1807 25.6958 68.9472 25.9212C68.7138 26.1465 68.414 26.3337 68.0477 26.4826C67.6815 26.6315 67.2428 26.706 66.7317 26.706ZM67.1241 25.2571C67.6231 25.2571 68.0497 25.1585 68.4039 24.9613C68.7621 24.7641 69.0338 24.5065 69.2189 24.1886C69.4081 23.8666 69.5026 23.5225 69.5026 23.1562V21.9609C69.4382 22.0253 69.3135 22.0857 69.1283 22.142C68.9472 22.1944 68.74 22.2406 68.5065 22.2809C68.2731 22.3171 68.0457 22.3513 67.8244 22.3835C67.603 22.4117 67.4179 22.4358 67.269 22.456C66.9188 22.5002 66.5989 22.5747 66.3091 22.6793C66.0233 22.784 65.7939 22.9349 65.6209 23.1321C65.4519 23.3253 65.3673 23.5828 65.3673 23.9048C65.3673 24.3515 65.5323 24.6896 65.8624 24.919C66.1924 25.1444 66.613 25.2571 67.1241 25.2571ZM77.1831 26.6818C76.4345 26.6818 75.7664 26.4906 75.1789 26.1083C74.5953 25.7219 74.1365 25.1726 73.8024 24.4602C73.4724 23.7438 73.3074 22.8846 73.3074 21.8824C73.3074 20.8803 73.4744 20.0231 73.8085 19.3107C74.1465 18.5984 74.6094 18.053 75.197 17.6747C75.7846 17.2964 76.4506 17.1072 77.1952 17.1072C77.7707 17.1072 78.2335 17.2038 78.5837 17.397C78.9378 17.5862 79.2115 17.8075 79.4047 18.0611C79.6019 18.3146 79.7548 18.538 79.8635 18.7312H79.9722V14.1371H81.7772V26.5007H80.0144V25.0579H79.8635C79.7548 25.2551 79.5979 25.4805 79.3926 25.734C79.1914 25.9876 78.9137 26.2089 78.5595 26.3981C78.2054 26.5872 77.7466 26.6818 77.1831 26.6818ZM77.5816 25.1424C78.1007 25.1424 78.5394 25.0056 78.8976 24.7319C79.2598 24.4542 79.5335 24.0698 79.7186 23.5788C79.9078 23.0878 80.0024 22.5163 80.0024 21.8643C80.0024 21.2204 79.9098 20.6569 79.7247 20.174C79.5395 19.691 79.2679 19.3147 78.9097 19.0451C78.5515 18.7754 78.1088 18.6406 77.5816 18.6406C77.0382 18.6406 76.5855 18.7815 76.2232 19.0632C75.861 19.3449 75.5874 19.7293 75.4022 20.2163C75.2211 20.7032 75.1306 21.2526 75.1306 21.8643C75.1306 22.4841 75.2231 23.0415 75.4083 23.5366C75.5934 24.0316 75.8671 24.424 76.2293 24.7138C76.5955 24.9995 77.0463 25.1424 77.5816 25.1424ZM85.4945 29.978C85.2248 29.978 84.9793 29.9558 84.758 29.9116C84.5366 29.8713 84.3716 29.827 84.2629 29.7787L84.6976 28.2997C85.0276 28.3882 85.3214 28.4265 85.579 28.4144C85.8366 28.4023 86.0639 28.3057 86.2611 28.1246C86.4624 27.9435 86.6395 27.6477 86.7924 27.2372L87.0158 26.6214L83.623 17.228H85.5548L87.9032 24.424H87.9998L90.3482 17.228H92.286L88.4646 27.7383C88.2875 28.2212 88.0622 28.6297 87.7885 28.9638C87.5148 29.3018 87.1888 29.5554 86.8105 29.7244C86.4322 29.8935 85.9935 29.978 85.4945 29.978ZM102.894 17.228V18.6768H97.6543V17.228H102.894ZM99.0911 26.5007V16.1534C99.0911 15.5739 99.2179 15.0929 99.4715 14.7106C99.725 14.3242 100.061 14.0364 100.48 13.8473C100.898 13.6541 101.353 13.5575 101.844 13.5575C102.206 13.5575 102.516 13.5877 102.774 13.6481C103.031 13.7044 103.222 13.7567 103.347 13.805L102.925 15.266C102.84 15.2418 102.731 15.2136 102.599 15.1815C102.466 15.1452 102.305 15.1271 102.116 15.1271C101.677 15.1271 101.363 15.2358 101.174 15.4531C100.989 15.6704 100.896 15.9844 100.896 16.3949V26.5007H99.0911ZM108.297 26.6878C107.428 26.6878 106.669 26.4886 106.022 26.0902C105.374 25.6917 104.87 25.1343 104.512 24.418C104.154 23.7016 103.975 22.8645 103.975 21.9066C103.975 20.9447 104.154 20.1036 104.512 19.3832C104.87 18.6627 105.374 18.1033 106.022 17.7049C106.669 17.3065 107.428 17.1072 108.297 17.1072C109.167 17.1072 109.925 17.3065 110.573 17.7049C111.221 18.1033 111.724 18.6627 112.083 19.3832C112.441 20.1036 112.62 20.9447 112.62 21.9066C112.62 22.8645 112.441 23.7016 112.083 24.418C111.724 25.1343 111.221 25.6917 110.573 26.0902C109.925 26.4886 109.167 26.6878 108.297 26.6878ZM108.303 25.1726C108.867 25.1726 109.334 25.0237 109.704 24.7258C110.074 24.428 110.348 24.0316 110.525 23.5366C110.706 23.0415 110.797 22.4962 110.797 21.9006C110.797 21.3089 110.706 20.7656 110.525 20.2706C110.348 19.7715 110.074 19.3711 109.704 19.0692C109.334 18.7674 108.867 18.6165 108.303 18.6165C107.736 18.6165 107.265 18.7674 106.891 19.0692C106.521 19.3711 106.245 19.7715 106.064 20.2706C105.887 20.7656 105.798 21.3089 105.798 21.9006C105.798 22.4962 105.887 23.0415 106.064 23.5366C106.245 24.0316 106.521 24.428 106.891 24.7258C107.265 25.0237 107.736 25.1726 108.303 25.1726ZM114.635 26.5007V17.228H116.379V18.701H116.476C116.645 18.2019 116.943 17.8095 117.369 17.5238C117.8 17.234 118.287 17.0891 118.83 17.0891C118.943 17.0891 119.076 17.0931 119.229 17.1012C119.386 17.1092 119.509 17.1193 119.597 17.1314V18.8579C119.525 18.8378 119.396 18.8157 119.211 18.7915C119.026 18.7634 118.84 18.7493 118.655 18.7493C118.229 18.7493 117.848 18.8398 117.514 19.0209C117.184 19.198 116.923 19.4455 116.73 19.7635C116.536 20.0774 116.44 20.4356 116.44 20.8381V26.5007H114.635Z" fill="#E8E8E8"/>
</g>
<path d="M133.051 18.1758C132.982 17.9222 132.882 17.6989 132.749 17.5057C132.616 17.3085 132.453 17.1414 132.26 17.0046C132.067 16.8678 131.845 16.7651 131.596 16.6967C131.346 16.6243 131.073 16.5881 130.775 16.5881C130.175 16.5881 129.656 16.7329 129.217 17.0227C128.783 17.3125 128.447 17.7351 128.209 18.2905C127.972 18.8418 127.853 19.5119 127.853 20.3008C127.853 21.0936 127.968 21.7698 128.197 22.3292C128.426 22.8886 128.758 23.3152 129.193 23.609C129.628 23.9028 130.155 24.0497 130.775 24.0497C131.322 24.0497 131.785 23.9612 132.163 23.7841C132.546 23.603 132.835 23.3474 133.033 23.0174C133.23 22.6874 133.328 22.299 133.328 21.8523L133.884 21.9187H130.877V19.7393H136.208V21.3753C136.208 22.4821 135.973 23.4299 135.502 24.2187C135.035 25.0076 134.391 25.6133 133.57 26.0359C132.753 26.4584 131.813 26.6697 130.751 26.6697C129.571 26.6697 128.535 26.4142 127.642 25.903C126.748 25.3919 126.052 24.6635 125.553 23.7177C125.054 22.7679 124.804 21.641 124.804 20.337C124.804 19.3228 124.955 18.4233 125.257 17.6385C125.559 16.8497 125.979 16.1816 126.519 15.6342C127.062 15.0869 127.69 14.6723 128.402 14.3906C129.119 14.1089 129.889 13.968 130.714 13.968C131.431 13.968 132.097 14.0707 132.713 14.2759C133.332 14.4812 133.88 14.7709 134.355 15.1452C134.834 15.5195 135.222 15.9642 135.52 16.4794C135.818 16.9945 136.003 17.56 136.075 18.1758H133.051ZM138.55 26.5007V17.228H141.502V26.5007H138.55ZM140.029 16.1474C139.615 16.1474 139.259 16.0105 138.961 15.7369C138.663 15.4592 138.514 15.1251 138.514 14.7347C138.514 14.3484 138.663 14.0183 138.961 13.7447C139.259 13.467 139.615 13.3281 140.029 13.3281C140.448 13.3281 140.804 13.467 141.098 13.7447C141.396 14.0183 141.545 14.3484 141.545 14.7347C141.545 15.1251 141.396 15.4592 141.098 15.7369C140.804 16.0105 140.448 16.1474 140.029 16.1474ZM148.615 17.228V19.4013H142.766V17.228H148.615ZM143.991 15.0064H146.943V23.5849C146.943 23.766 146.971 23.9129 147.028 24.0256C147.088 24.1342 147.175 24.2127 147.287 24.261C147.4 24.3053 147.535 24.3274 147.692 24.3274C147.804 24.3274 147.923 24.3173 148.048 24.2972C148.177 24.2731 148.273 24.2529 148.338 24.2368L148.784 26.3679C148.644 26.4081 148.444 26.4584 148.187 26.5188C147.933 26.5792 147.629 26.6174 147.275 26.6335C146.583 26.6657 145.989 26.5852 145.494 26.392C145.003 26.1948 144.627 25.889 144.365 25.4744C144.108 25.0599 143.983 24.5387 143.991 23.9109V15.0064ZM150.321 26.5007V14.1371H153.309V19.0994H158.181V14.1371H161.163V26.5007H158.181V21.5323H153.309V26.5007H150.321ZM169.02 22.4982V17.228H171.966V26.5007H169.153V24.7741H169.056C168.851 25.3416 168.501 25.7924 168.006 26.1264C167.515 26.4564 166.921 26.6214 166.225 26.6214C165.593 26.6214 165.038 26.4765 164.559 26.1868C164.08 25.897 163.708 25.4925 163.442 24.9734C163.177 24.4502 163.042 23.8384 163.038 23.1381V17.228H165.99V22.5586C165.994 23.0617 166.127 23.4581 166.388 23.7479C166.65 24.0376 167.006 24.1825 167.457 24.1825C167.751 24.1825 168.014 24.1181 168.248 23.9893C168.485 23.8565 168.672 23.6654 168.809 23.4158C168.95 23.1623 169.02 22.8564 169.02 22.4982ZM173.845 26.5007V14.1371H176.797V18.8157H176.858C176.978 18.534 177.149 18.2623 177.371 18.0007C177.596 17.7391 177.882 17.5258 178.228 17.3608C178.578 17.1918 178.997 17.1072 179.484 17.1072C180.128 17.1072 180.729 17.2763 181.289 17.6143C181.852 17.9524 182.307 18.4736 182.653 19.1779C182.999 19.8822 183.172 20.7797 183.172 21.8704C183.172 22.9208 183.005 23.8002 182.671 24.5085C182.341 25.2168 181.895 25.7481 181.331 26.1023C180.772 26.4564 180.15 26.6335 179.466 26.6335C178.999 26.6335 178.594 26.557 178.252 26.4041C177.91 26.2512 177.622 26.0499 177.389 25.8004C177.16 25.5509 176.982 25.2832 176.858 24.9975H176.767V26.5007H173.845ZM176.737 21.8643C176.737 22.3634 176.803 22.798 176.936 23.1683C177.073 23.5386 177.268 23.8263 177.522 24.0316C177.779 24.2328 178.087 24.3334 178.445 24.3334C178.808 24.3334 179.116 24.2328 179.369 24.0316C179.623 23.8263 179.814 23.5386 179.943 23.1683C180.075 22.798 180.142 22.3634 180.142 21.8643C180.142 21.3653 180.075 20.9326 179.943 20.5664C179.814 20.2002 179.623 19.9164 179.369 19.7152C179.12 19.514 178.812 19.4133 178.445 19.4133C178.083 19.4133 177.775 19.5119 177.522 19.7092C177.268 19.9064 177.073 20.1881 176.936 20.5543C176.803 20.9206 176.737 21.3572 176.737 21.8643ZM199.594 18.6165H196.576C196.536 18.3066 196.453 18.0269 196.328 17.7773C196.204 17.5278 196.039 17.3145 195.833 17.1374C195.628 16.9603 195.385 16.8255 195.103 16.7329C194.825 16.6364 194.517 16.5881 194.179 16.5881C193.58 16.5881 193.062 16.735 192.628 17.0288C192.197 17.3226 191.865 17.7471 191.632 18.3025C191.402 18.8579 191.287 19.5301 191.287 20.3189C191.287 21.1399 191.404 21.8281 191.638 22.3835C191.875 22.9349 192.207 23.3514 192.634 23.6332C193.064 23.9109 193.573 24.0497 194.161 24.0497C194.491 24.0497 194.791 24.0074 195.061 23.9229C195.334 23.8384 195.574 23.7157 195.779 23.5547C195.988 23.3897 196.159 23.1904 196.292 22.957C196.429 22.7196 196.524 22.4519 196.576 22.1541L199.594 22.1722C199.542 22.7196 199.383 23.2589 199.117 23.7901C198.856 24.3214 198.496 24.8063 198.037 25.245C197.578 25.6797 197.019 26.0258 196.359 26.2834C195.702 26.5409 194.95 26.6697 194.101 26.6697C192.982 26.6697 191.98 26.4242 191.094 25.9332C190.213 25.4382 189.517 24.7178 189.006 23.772C188.494 22.8262 188.239 21.6752 188.239 20.3189C188.239 18.9586 188.498 17.8055 189.018 16.8597C189.537 15.9139 190.239 15.1955 191.124 14.7045C192.01 14.2135 193.002 13.968 194.101 13.968C194.849 13.968 195.542 14.0727 196.177 14.282C196.813 14.4872 197.373 14.7891 197.856 15.1875C198.339 15.5819 198.731 16.0669 199.033 16.6424C199.335 17.2179 199.522 17.8759 199.594 18.6165ZM205.633 26.6758C204.659 26.6758 203.822 26.4765 203.121 26.0781C202.425 25.6756 201.888 25.1162 201.51 24.3998C201.135 23.6794 200.948 22.8443 200.948 21.8945C200.948 20.9407 201.135 20.1056 201.51 19.3892C201.888 18.6688 202.425 18.1094 203.121 17.7109C203.822 17.3085 204.659 17.1072 205.633 17.1072C206.607 17.1072 207.442 17.3085 208.138 17.7109C208.838 18.1094 209.376 18.6688 209.75 19.3892C210.128 20.1056 210.317 20.9407 210.317 21.8945C210.317 22.8443 210.128 23.6794 209.75 24.3998C209.376 25.1162 208.838 25.6756 208.138 26.0781C207.442 26.4765 206.607 26.6758 205.633 26.6758ZM205.651 24.4481C206.005 24.4481 206.305 24.3395 206.55 24.1221C206.796 23.9048 206.983 23.603 207.112 23.2166C207.245 22.8302 207.311 22.3835 207.311 21.8764C207.311 21.3613 207.245 20.9105 207.112 20.5241C206.983 20.1378 206.796 19.8359 206.55 19.6186C206.305 19.4013 206.005 19.2926 205.651 19.2926C205.285 19.2926 204.975 19.4013 204.721 19.6186C204.472 19.8359 204.28 20.1378 204.148 20.5241C204.019 20.9105 203.954 21.3613 203.954 21.8764C203.954 22.3835 204.019 22.8302 204.148 23.2166C204.28 23.603 204.472 23.9048 204.721 24.1221C204.975 24.3395 205.285 24.4481 205.651 24.4481ZM215.216 26.6335C214.532 26.6335 213.91 26.4564 213.351 26.1023C212.792 25.7481 212.345 25.2168 212.011 24.5085C211.677 23.8002 211.51 22.9208 211.51 21.8704C211.51 20.7797 211.683 19.8822 212.029 19.1779C212.375 18.4736 212.828 17.9524 213.387 17.6143C213.951 17.2763 214.556 17.1072 215.204 17.1072C215.691 17.1072 216.108 17.1918 216.454 17.3608C216.8 17.5258 217.086 17.7391 217.311 18.0007C217.537 18.2623 217.708 18.534 217.824 18.8157H217.885V14.1371H220.837V26.5007H217.915V24.9975H217.824C217.7 25.2832 217.522 25.5509 217.293 25.8004C217.064 26.0499 216.776 26.2512 216.43 26.4041C216.088 26.557 215.683 26.6335 215.216 26.6335ZM216.243 24.3334C216.601 24.3334 216.907 24.2328 217.16 24.0316C217.414 23.8263 217.609 23.5386 217.746 23.1683C217.883 22.798 217.951 22.3634 217.951 21.8643C217.951 21.3572 217.883 20.9206 217.746 20.5543C217.613 20.1881 217.418 19.9064 217.16 19.7092C216.907 19.5119 216.601 19.4133 216.243 19.4133C215.876 19.4133 215.567 19.514 215.313 19.7152C215.059 19.9164 214.866 20.2002 214.733 20.5664C214.605 20.9326 214.54 21.3653 214.54 21.8643C214.54 22.3634 214.607 22.798 214.739 23.1683C214.872 23.5386 215.063 23.8263 215.313 24.0316C215.567 24.2328 215.876 24.3334 216.243 24.3334ZM227.038 26.6758C226.068 26.6758 225.231 26.4846 224.527 26.1023C223.827 25.7159 223.287 25.1665 222.909 24.4542C222.535 23.7378 222.347 22.8866 222.347 21.9006C222.347 20.9427 222.537 20.1056 222.915 19.3892C223.293 18.6688 223.827 18.1094 224.515 17.7109C225.203 17.3085 226.014 17.1072 226.948 17.1072C227.608 17.1072 228.211 17.2099 228.759 17.4151C229.306 17.6204 229.779 17.9242 230.177 18.3267C230.576 18.7292 230.886 19.2262 231.107 19.8178C231.328 20.4054 231.439 21.0795 231.439 21.8402V22.5767H223.38V20.8622H228.692C228.688 20.5483 228.614 20.2686 228.469 20.0231C228.324 19.7776 228.125 19.5864 227.871 19.4496C227.622 19.3087 227.334 19.2383 227.008 19.2383C226.678 19.2383 226.382 19.3127 226.121 19.4616C225.859 19.6065 225.652 19.8057 225.499 20.0593C225.346 20.3088 225.265 20.5926 225.257 20.9105V22.6552C225.257 23.0335 225.332 23.3655 225.481 23.6513C225.63 23.933 225.841 24.1523 226.115 24.3093C226.388 24.4663 226.714 24.5447 227.093 24.5447C227.354 24.5447 227.592 24.5085 227.805 24.4361C228.018 24.3636 228.201 24.257 228.354 24.1161C228.507 23.9752 228.622 23.8022 228.698 23.5969L231.409 23.6754C231.296 24.2831 231.049 24.8124 230.666 25.2631C230.288 25.7099 229.791 26.058 229.175 26.3075C228.559 26.553 227.847 26.6758 227.038 26.6758ZM241.042 20.0593L238.332 20.1317C238.304 19.9386 238.227 19.7675 238.102 19.6186C237.978 19.4657 237.815 19.3469 237.613 19.2624C237.416 19.1739 237.187 19.1296 236.925 19.1296C236.583 19.1296 236.291 19.198 236.05 19.3349C235.812 19.4717 235.696 19.6568 235.7 19.8903C235.696 20.0714 235.768 20.2283 235.917 20.3611C236.07 20.494 236.342 20.6006 236.732 20.6811L238.519 21.0192C239.445 21.1962 240.133 21.49 240.584 21.9006C241.038 22.3111 241.268 22.8544 241.272 23.5305C241.268 24.1664 241.079 24.7198 240.704 25.1907C240.334 25.6616 239.827 26.0278 239.183 26.2894C238.539 26.547 237.803 26.6758 236.973 26.6758C235.649 26.6758 234.605 26.4041 233.84 25.8608C233.08 25.3134 232.645 24.581 232.536 23.6633L235.452 23.5909C235.517 23.929 235.684 24.1865 235.953 24.3636C236.223 24.5407 236.567 24.6292 236.986 24.6292C237.364 24.6292 237.672 24.5588 237.909 24.418C238.147 24.2771 238.267 24.0899 238.271 23.8565C238.267 23.6472 238.175 23.4802 237.994 23.3555C237.813 23.2267 237.529 23.1261 237.142 23.0536L235.525 22.7457C234.595 22.5767 233.903 22.2648 233.448 21.81C232.993 21.3512 232.768 20.7676 232.772 20.0593C232.768 19.4395 232.933 18.9103 233.267 18.4716C233.601 18.0289 234.076 17.6908 234.692 17.4574C235.307 17.2239 236.034 17.1072 236.871 17.1072C238.127 17.1072 239.117 17.3708 239.841 17.8981C240.565 18.4213 240.966 19.1417 241.042 20.0593ZM242.725 29.978V17.228H245.647V18.8157H245.738C245.858 18.534 246.029 18.2623 246.251 18.0007C246.476 17.7391 246.762 17.5258 247.108 17.3608C247.458 17.1918 247.877 17.1072 248.364 17.1072C249.008 17.1072 249.609 17.2763 250.169 17.6143C250.732 17.9524 251.187 18.4736 251.533 19.1779C251.879 19.8822 252.052 20.7797 252.052 21.8704C252.052 22.9208 251.885 23.8002 251.551 24.5085C251.221 25.2168 250.774 25.7481 250.211 26.1023C249.652 26.4564 249.03 26.6335 248.346 26.6335C247.879 26.6335 247.474 26.557 247.132 26.4041C246.79 26.2512 246.502 26.0499 246.269 25.8004C246.039 25.5509 245.862 25.2832 245.738 24.9975H245.677V29.978H242.725ZM245.617 21.8643C245.617 22.3634 245.683 22.798 245.816 23.1683C245.953 23.5386 246.148 23.8263 246.402 24.0316C246.659 24.2328 246.967 24.3334 247.325 24.3334C247.688 24.3334 247.995 24.2328 248.249 24.0316C248.502 23.8263 248.694 23.5386 248.822 23.1683C248.955 22.798 249.022 22.3634 249.022 21.8643C249.022 21.3653 248.955 20.9326 248.822 20.5664C248.694 20.2002 248.502 19.9164 248.249 19.7152C247.999 19.514 247.692 19.4133 247.325 19.4133C246.963 19.4133 246.655 19.5119 246.402 19.7092C246.148 19.9064 245.953 20.1881 245.816 20.5543C245.683 20.9206 245.617 21.3572 245.617 21.8643ZM256.213 26.6577C255.622 26.6577 255.096 26.5591 254.638 26.3618C254.183 26.1606 253.823 25.8588 253.557 25.4563C253.295 25.0498 253.165 24.5407 253.165 23.929C253.165 23.4138 253.255 22.9792 253.436 22.625C253.617 22.2708 253.867 21.9831 254.185 21.7617C254.503 21.5404 254.869 21.3733 255.283 21.2606C255.698 21.1439 256.141 21.0654 256.612 21.0252C257.139 20.9769 257.563 20.9266 257.885 20.8743C258.207 20.8179 258.441 20.7395 258.586 20.6388C258.735 20.5342 258.809 20.3873 258.809 20.1981V20.168C258.809 19.8581 258.702 19.6186 258.489 19.4496C258.276 19.2805 257.988 19.196 257.626 19.196C257.235 19.196 256.921 19.2805 256.684 19.4496C256.447 19.6186 256.296 19.852 256.231 20.1498L253.509 20.0533C253.589 19.4898 253.796 18.9867 254.13 18.544C254.468 18.0973 254.931 17.7471 255.519 17.4936C256.111 17.236 256.821 17.1072 257.65 17.1072C258.242 17.1072 258.787 17.1777 259.286 17.3185C259.785 17.4554 260.22 17.6566 260.59 17.9222C260.96 18.1838 261.246 18.5058 261.447 18.8881C261.652 19.2705 261.755 19.7071 261.755 20.1981V26.5007H258.978V25.2088H258.906C258.741 25.5227 258.529 25.7883 258.272 26.0057C258.018 26.223 257.718 26.386 257.372 26.4947C257.03 26.6033 256.644 26.6577 256.213 26.6577ZM257.125 24.7258C257.443 24.7258 257.728 24.6614 257.982 24.5327C258.24 24.4039 258.445 24.2268 258.598 24.0014C258.751 23.772 258.827 23.5064 258.827 23.2045V22.3231C258.743 22.3674 258.64 22.4077 258.519 22.4439C258.403 22.4801 258.274 22.5143 258.133 22.5465C257.992 22.5787 257.847 22.6069 257.698 22.631C257.549 22.6552 257.406 22.6773 257.27 22.6974C256.992 22.7417 256.754 22.8101 256.557 22.9027C256.364 22.9953 256.215 23.116 256.111 23.2649C256.01 23.4098 255.96 23.5828 255.96 23.7841C255.96 24.0899 256.068 24.3234 256.286 24.4844C256.507 24.6453 256.787 24.7258 257.125 24.7258ZM267.889 26.6758C266.911 26.6758 266.071 26.4745 265.371 26.0721C264.675 25.6696 264.14 25.1102 263.765 24.3938C263.391 23.6734 263.204 22.8403 263.204 21.8945C263.204 20.9447 263.391 20.1116 263.765 19.3952C264.144 18.6748 264.681 18.1134 265.377 17.7109C266.078 17.3085 266.913 17.1072 267.883 17.1072C268.74 17.1072 269.486 17.2622 270.122 17.5721C270.762 17.882 271.261 18.3207 271.619 18.8881C271.982 19.4516 272.173 20.1136 272.193 20.8743H269.434C269.378 20.3994 269.217 20.0271 268.951 19.7574C268.689 19.4878 268.347 19.353 267.925 19.353C267.583 19.353 267.283 19.4496 267.025 19.6427C266.768 19.8319 266.566 20.1136 266.422 20.4879C266.281 20.8582 266.21 21.317 266.21 21.8643C266.21 22.4117 266.281 22.8745 266.422 23.2528C266.566 23.6271 266.768 23.9109 267.025 24.104C267.283 24.2932 267.583 24.3878 267.925 24.3878C268.198 24.3878 268.44 24.3294 268.649 24.2127C268.863 24.096 269.038 23.9249 269.174 23.6996C269.311 23.4702 269.398 23.1925 269.434 22.8665H272.193C272.165 23.6311 271.974 24.2992 271.619 24.8707C271.269 25.4422 270.776 25.8869 270.14 26.2049C269.508 26.5188 268.758 26.6758 267.889 26.6758ZM278.038 26.6758C277.068 26.6758 276.231 26.4846 275.527 26.1023C274.827 25.7159 274.287 25.1665 273.909 24.4542C273.535 23.7378 273.347 22.8866 273.347 21.9006C273.347 20.9427 273.537 20.1056 273.915 19.3892C274.293 18.6688 274.827 18.1094 275.515 17.7109C276.203 17.3085 277.014 17.1072 277.948 17.1072C278.608 17.1072 279.211 17.2099 279.759 17.4151C280.306 17.6204 280.779 17.9242 281.177 18.3267C281.576 18.7292 281.886 19.2262 282.107 19.8178C282.328 20.4054 282.439 21.0795 282.439 21.8402V22.5767H274.38V20.8622H279.692C279.688 20.5483 279.614 20.2686 279.469 20.0231C279.324 19.7776 279.125 19.5864 278.871 19.4496C278.622 19.3087 278.334 19.2383 278.008 19.2383C277.678 19.2383 277.382 19.3127 277.121 19.4616C276.859 19.6065 276.652 19.8057 276.499 20.0593C276.346 20.3088 276.265 20.5926 276.257 20.9105V22.6552C276.257 23.0335 276.332 23.3655 276.481 23.6513C276.63 23.933 276.841 24.1523 277.115 24.3093C277.388 24.4663 277.714 24.5447 278.093 24.5447C278.354 24.5447 278.592 24.5085 278.805 24.4361C279.018 24.3636 279.201 24.257 279.354 24.1161C279.507 23.9752 279.622 23.8022 279.698 23.5969L282.409 23.6754C282.296 24.2831 282.049 24.8124 281.666 25.2631C281.288 25.7099 280.791 26.058 280.175 26.3075C279.559 26.553 278.847 26.6758 278.038 26.6758ZM292.042 20.0593L289.332 20.1317C289.304 19.9386 289.227 19.7675 289.102 19.6186C288.978 19.4657 288.815 19.3469 288.613 19.2624C288.416 19.1739 288.187 19.1296 287.925 19.1296C287.583 19.1296 287.291 19.198 287.05 19.3349C286.812 19.4717 286.696 19.6568 286.7 19.8903C286.696 20.0714 286.768 20.2283 286.917 20.3611C287.07 20.494 287.342 20.6006 287.732 20.6811L289.519 21.0192C290.445 21.1962 291.133 21.49 291.584 21.9006C292.038 22.3111 292.268 22.8544 292.272 23.5305C292.268 24.1664 292.079 24.7198 291.704 25.1907C291.334 25.6616 290.827 26.0278 290.183 26.2894C289.539 26.547 288.803 26.6758 287.973 26.6758C286.649 26.6758 285.605 26.4041 284.84 25.8608C284.08 25.3134 283.645 24.581 283.536 23.6633L286.452 23.5909C286.517 23.929 286.684 24.1865 286.953 24.3636C287.223 24.5407 287.567 24.6292 287.986 24.6292C288.364 24.6292 288.672 24.5588 288.909 24.418C289.147 24.2771 289.267 24.0899 289.271 23.8565C289.267 23.6472 289.175 23.4802 288.994 23.3555C288.813 23.2267 288.529 23.1261 288.142 23.0536L286.525 22.7457C285.595 22.5767 284.903 22.2648 284.448 21.81C283.993 21.3512 283.768 20.7676 283.772 20.0593C283.768 19.4395 283.933 18.9103 284.267 18.4716C284.601 18.0289 285.076 17.6908 285.691 17.4574C286.307 17.2239 287.034 17.1072 287.871 17.1072C289.127 17.1072 290.117 17.3708 290.841 17.8981C291.565 18.4213 291.966 19.1417 292.042 20.0593Z" fill="#EFEFEF"/>
</g>
</g>
<rect x="1.07143" y="1.07143" width="298.858" height="37.8585" rx="6.92857" stroke="white" stroke-opacity="0.15" stroke-width="2.14286"/>
<defs>
<filter id="filter0_d_1_56" x="1.96222" y="0.39972" width="187.638" height="144.2" filterUnits="userSpaceOnUse" color-interpolation-filters="sRGB">
<feFlood flood-opacity="0" result="BackgroundImageFix"/>
<feColorMatrix in="SourceAlpha" type="matrix" values="0 0 0 0 0 0 0 0 0 0 0 0 0 0 0 0 0 0 127 0" result="hardAlpha"/>
<feOffset/>
<feGaussianBlur stdDeviation="2.80014"/>
<feComposite in2="hardAlpha" operator="out"/>
<feColorMatrix type="matrix" values="0 0 0 0 0 0 0 0 0 0 0 0 0 0 0 0 0 0 0.25 0"/>
<feBlend mode="normal" in2="BackgroundImageFix" result="effect1_dropShadow_1_56"/>
<feBlend mode="normal" in="SourceGraphic" in2="effect1_dropShadow_1_56" result="shape"/>
</filter>
<filter id="filter1_d_1_56" x="36.2871" y="3.78642" width="262.428" height="32.4286" filterUnits="userSpaceOnUse" color-interpolation-filters="sRGB">
<feFlood flood-opacity="0" result="BackgroundImageFix"/>
<feColorMatrix in="SourceAlpha" type="matrix" values="0 0 0 0 0 0 0 0 0 0 0 0 0 0 0 0 0 0 127 0" result="hardAlpha"/>
<feOffset/>
<feGaussianBlur stdDeviation="2.85714"/>
<feComposite in2="hardAlpha" operator="out"/>
<feColorMatrix type="matrix" values="0 0 0 0 0 0 0 0 0 0 0 0 0 0 0 0 0 0 0.25 0"/>
<feBlend mode="normal" in2="BackgroundImageFix" result="effect1_dropShadow_1_56"/>
<feBlend mode="normal" in="SourceGraphic" in2="effect1_dropShadow_1_56" result="shape"/>
</filter>
<filter id="filter2_d_1_56" x="39.3597" y="13.5575" width="84.2374" height="24.4204" filterUnits="userSpaceOnUse" color-interpolation-filters="sRGB">
<feFlood flood-opacity="0" result="BackgroundImageFix"/>
<feColorMatrix in="SourceAlpha" type="matrix" values="0 0 0 0 0 0 0 0 0 0 0 0 0 0 0 0 0 0 127 0" result="hardAlpha"/>
<feOffset dy="4"/>
<feGaussianBlur stdDeviation="2"/>
<feComposite in2="hardAlpha" operator="out"/>
<feColorMatrix type="matrix" values="0 0 0 0 0 0 0 0 0 0 0 0 0 0 0 0 0 0 0.25 0"/>
<feBlend mode="normal" in2="BackgroundImageFix" result="effect1_dropShadow_1_56"/>
<feBlend mode="normal" in="SourceGraphic" in2="effect1_dropShadow_1_56" result="shape"/>
</filter>
<linearGradient id="paint0_linear_1_56" x1="150.501" y1="0" x2="150.501" y2="40.0014" gradientUnits="userSpaceOnUse">
<stop stop-color="#181F29"/>
<stop offset="1" stop-color="#0F131A"/>
</linearGradient>
<clipPath id="clip0_1_56">
<rect width="301.001" height="40.0014" rx="8" fill="white"/>
</clipPath>
</defs>
</svg>
