<svg width="247" height="40" viewBox="0 0 247 40" fill="none" xmlns="http://www.w3.org/2000/svg">
<rect width="247.001" height="40.0014" rx="8" fill="url(#paint0_linear_1_56)"/>
<rect x="1.07143" y="1.07143" width="244.858" height="37.8585" rx="6.92857" stroke="white" stroke-opacity="0.15" stroke-width="2.14286"/>
<g filter="url(#filter0_d_1_56)">
<path fill-rule="evenodd" clip-rule="evenodd" d="M30.3183 22.0132C30.077 23.1774 29.003 26.1634 25.5801 27.7808L24.2064 26.2355L21.8884 28.5672C20.5686 28.5495 19.2707 28.2268 18.0962 27.6244C16.9217 27.0219 15.9025 26.1561 15.1181 25.0945C15.3647 25.1712 15.6194 25.219 15.877 25.237C16.2565 25.2439 16.6677 25.1048 16.6677 24.4643V18.1756C16.6734 18.0138 16.641 17.8529 16.5732 17.7059C16.5054 17.5588 16.4041 17.4297 16.2773 17.3289C16.1506 17.2282 16.002 17.1585 15.8434 17.1256C15.6849 17.0927 15.5208 17.0974 15.3645 17.1394C14.2913 17.3849 13.4328 20.0644 13.4328 20.0644C13.4208 18.827 13.6785 17.6019 14.188 16.4743C14.6974 15.3466 15.4463 14.3434 16.3827 13.5344C17.9812 12.1797 19.5429 11.7109 20.7294 11.5272C19.5575 12.1951 18.8981 13.2855 18.8981 14.2007C18.8981 15.6679 19.7841 15.4945 20.0469 15.2781V23.7706C20.0913 23.8774 20.149 23.978 20.2186 24.0703C20.3359 24.2326 20.4905 24.3644 20.6693 24.4546C20.8481 24.5448 21.0459 24.5908 21.2462 24.5888C22.1339 24.5888 23.2852 23.5758 23.2852 23.5758V16.699C23.2852 15.9993 22.7581 15.1536 22.2301 14.8652C22.2301 14.8652 23.2071 14.6934 23.9626 15.2695C24.1043 15.096 24.255 14.9301 24.4142 14.7724C26.1707 13.0468 27.8285 12.5574 29.2091 12.3119C29.2091 12.3119 26.6961 14.2865 26.6961 16.9308C26.6961 18.8994 26.7468 23.6994 26.7468 23.6994C27.6817 24.5974 29.0665 23.301 30.3183 22.0132Z" fill="white"/>
<path fill-rule="evenodd" clip-rule="evenodd" d="M21.9991 6C19.2302 6.00017 16.5235 6.82142 14.2213 8.3599C11.9191 9.89838 10.1248 12.085 9.06536 14.6432C8.00589 17.2015 7.72882 20.0164 8.26918 22.7321C8.80954 25.4478 10.1431 27.9423 12.1011 29.9001C14.0592 31.8579 16.5538 33.1911 19.2696 33.7312C21.9853 34.2712 24.8003 33.9938 27.3584 32.934C29.9165 31.8742 32.1029 30.0796 33.6411 27.7773C35.1793 25.4749 36.0002 22.7681 36 19.9991C36 18.1606 35.6378 16.3401 34.9342 14.6415C34.2306 12.9429 33.1993 11.3996 31.8991 10.0996C30.599 8.79968 29.0556 7.76855 27.3569 7.06513C25.6583 6.36171 23.8377 5.99977 21.9991 6ZM21.9991 33.4394C19.3409 33.4395 16.7423 32.6514 14.5319 31.1747C12.3216 29.698 10.5988 27.599 9.58137 25.1431C8.56398 22.6872 8.2977 19.9848 8.81619 17.3776C9.33469 14.7704 10.6147 12.3755 12.4943 10.4958C14.3739 8.61602 16.7687 7.33588 19.3759 6.81721C21.9831 6.29855 24.6855 6.56466 27.1414 7.5819C29.5974 8.59913 31.6965 10.3218 33.1734 12.5321C34.6502 14.7423 35.4385 17.3409 35.4385 19.9991C35.4385 23.5636 34.0226 26.982 31.5023 29.5025C28.9819 32.023 25.5636 33.4391 21.9991 33.4394Z" fill="white"/>
</g>
<g filter="url(#filter1_d_1_56)">
<path d="M43.3597 26.5007V14.1371H47.8874C48.7648 14.1371 49.4912 14.282 50.0667 14.5717C50.6423 14.8575 51.0729 15.2458 51.3586 15.7369C51.6444 16.2238 51.7873 16.7732 51.7873 17.3849C51.7873 17.9001 51.6927 18.3347 51.5035 18.6889C51.3144 19.0391 51.0608 19.3208 50.7429 19.5341C50.429 19.7434 50.0828 19.8963 49.7045 19.9929V20.1136C50.115 20.1337 50.5155 20.2666 50.9059 20.5121C51.3003 20.7535 51.6263 21.0976 51.8839 21.5444C52.1414 21.9911 52.2702 22.5344 52.2702 23.1743C52.2702 23.8062 52.1213 24.3737 51.8235 24.8768C51.5297 25.3758 51.0749 25.7722 50.4591 26.066C49.8434 26.3558 49.0566 26.5007 48.0987 26.5007H43.3597ZM45.2251 24.9009H47.9176C48.8111 24.9009 49.451 24.7279 49.8373 24.3817C50.2237 24.0356 50.4169 23.603 50.4169 23.0838C50.4169 22.6934 50.3183 22.3352 50.1211 22.0092C49.9239 21.6832 49.6421 21.4236 49.2759 21.2305C48.9137 21.0373 48.483 20.9407 47.984 20.9407H45.2251V24.9009ZM45.2251 19.4858H47.7244C48.143 19.4858 48.5193 19.4053 48.8533 19.2443C49.1914 19.0833 49.459 18.8579 49.6562 18.5682C49.8575 18.2744 49.9581 17.9283 49.9581 17.5298C49.9581 17.0187 49.779 16.5901 49.4208 16.244C49.0626 15.8978 48.5132 15.7248 47.7727 15.7248H45.2251V19.4858ZM60.2118 22.6552V17.228H62.0229V26.5007H60.248V24.8949H60.1514C59.9381 25.3899 59.596 25.8024 59.1251 26.1324C58.6583 26.4584 58.0767 26.6214 57.3805 26.6214C56.7848 26.6214 56.2576 26.4906 55.7988 26.229C55.344 25.9634 54.9858 25.571 54.7242 25.0518C54.4667 24.5327 54.3379 23.8907 54.3379 23.1261V17.228H56.1429V22.9087C56.1429 23.5406 56.318 24.0437 56.6681 24.418C57.0183 24.7922 57.473 24.9794 58.0325 24.9794C58.3705 24.9794 58.7066 24.8949 59.0406 24.7258C59.3787 24.5568 59.6584 24.3012 59.8798 23.9591C60.1051 23.6171 60.2158 23.1824 60.2118 22.6552ZM64.4482 26.5007V17.228H66.2533V26.5007H64.4482ZM65.3598 15.7972C65.0459 15.7972 64.7762 15.6926 64.5508 15.4833C64.3295 15.27 64.2188 15.0164 64.2188 14.7226C64.2188 14.4248 64.3295 14.1713 64.5508 13.962C64.7762 13.7487 65.0459 13.642 65.3598 13.642C65.6737 13.642 65.9413 13.7487 66.1627 13.962C66.3881 14.1713 66.5008 14.4248 66.5008 14.7226C66.5008 15.0164 66.3881 15.27 66.1627 15.4833C65.9413 15.6926 65.6737 15.7972 65.3598 15.7972ZM70.4867 14.1371V26.5007H68.6816V14.1371H70.4867ZM77.2435 17.228V18.6768H72.1785V17.228H77.2435ZM73.5368 15.0064H75.3419V23.778C75.3419 24.1282 75.3942 24.3918 75.4988 24.5689C75.6035 24.7419 75.7383 24.8607 75.9033 24.9251C76.0723 24.9854 76.2554 25.0156 76.4526 25.0156C76.5975 25.0156 76.7243 25.0056 76.833 24.9854C76.9416 24.9653 77.0262 24.9492 77.0865 24.9371L77.4125 26.4283C77.3079 26.4685 77.159 26.5087 76.9658 26.549C76.7726 26.5933 76.5311 26.6174 76.2414 26.6214C75.7664 26.6295 75.3237 26.545 74.9132 26.3679C74.5027 26.1908 74.1707 25.9171 73.9171 25.5469C73.6636 25.1766 73.5368 24.7118 73.5368 24.1523V15.0064ZM85.7495 26.5007L83.0208 17.228H84.8862L86.7034 24.0376H86.7939L88.6171 17.228H90.4825L92.2936 24.0074H92.3841L94.1891 17.228H96.0546L93.3319 26.5007H91.4906L89.6071 19.8057H89.4683L87.5847 26.5007H85.7495ZM97.7675 26.5007V17.228H99.5726V26.5007H97.7675ZM98.6791 15.7972C98.3652 15.7972 98.0955 15.6926 97.8702 15.4833C97.6488 15.27 97.5381 15.0164 97.5381 14.7226C97.5381 14.4248 97.6488 14.1713 97.8702 13.962C98.0955 13.7487 98.3652 13.642 98.6791 13.642C98.993 13.642 99.2607 13.7487 99.482 13.962C99.7074 14.1713 99.8201 14.4248 99.8201 14.7226C99.8201 15.0164 99.7074 15.27 99.482 15.4833C99.2607 15.6926 98.993 15.7972 98.6791 15.7972ZM106.329 17.228V18.6768H101.264V17.228H106.329ZM102.623 15.0064H104.428V23.778C104.428 24.1282 104.48 24.3918 104.585 24.5689C104.689 24.7419 104.824 24.8607 104.989 24.9251C105.158 24.9854 105.341 25.0156 105.539 25.0156C105.683 25.0156 105.81 25.0056 105.919 24.9854C106.028 24.9653 106.112 24.9492 106.172 24.9371L106.498 26.4283C106.394 26.4685 106.245 26.5087 106.052 26.549C105.859 26.5933 105.617 26.6174 105.327 26.6214C104.852 26.6295 104.41 26.545 103.999 26.3679C103.589 26.1908 103.257 25.9171 103.003 25.5469C102.75 25.1766 102.623 24.7118 102.623 24.1523V15.0064ZM110.33 20.995V26.5007H108.525V14.1371H110.306V18.7372H110.421C110.638 18.2382 110.97 17.8417 111.417 17.5479C111.864 17.2541 112.447 17.1072 113.168 17.1072C113.804 17.1072 114.359 17.238 114.834 17.4996C115.313 17.7612 115.683 18.1516 115.945 18.6708C116.21 19.1859 116.343 19.8299 116.343 20.6026V26.5007H114.538V20.8199C114.538 20.1398 114.363 19.6126 114.013 19.2383C113.663 18.86 113.176 18.6708 112.552 18.6708C112.125 18.6708 111.743 18.7614 111.405 18.9425C111.071 19.1236 110.807 19.3892 110.614 19.7393C110.425 20.0855 110.33 20.504 110.33 20.995Z" fill="#E8E8E8"/>
<path d="M130.417 14.1371H133.399V22.1118C133.399 23.0335 133.18 23.8364 132.741 24.5206C132.302 25.2007 131.691 25.728 130.906 26.1023C130.121 26.4725 129.209 26.6577 128.171 26.6577C127.121 26.6577 126.203 26.4725 125.418 26.1023C124.633 25.728 124.024 25.2007 123.589 24.5206C123.154 23.8364 122.937 23.0335 122.937 22.1118V14.1371H125.925V21.8523C125.925 22.2789 126.018 22.6592 126.203 22.9932C126.392 23.3273 126.656 23.5889 126.994 23.778C127.332 23.9672 127.724 24.0618 128.171 24.0618C128.618 24.0618 129.008 23.9672 129.342 23.778C129.68 23.5889 129.944 23.3273 130.133 22.9932C130.322 22.6592 130.417 22.2789 130.417 21.8523V14.1371ZM138.224 21.2123V26.5007H135.272V17.228H138.079V18.9304H138.182C138.387 18.3629 138.737 17.9182 139.232 17.5962C139.727 17.2702 140.317 17.1072 141.001 17.1072C141.653 17.1072 142.219 17.2541 142.697 17.5479C143.18 17.8377 143.555 18.2442 143.82 18.7674C144.09 19.2866 144.223 19.8943 144.219 20.5905V26.5007H141.267V21.1701C141.271 20.6549 141.14 20.2525 140.874 19.9627C140.613 19.6729 140.248 19.528 139.782 19.528C139.472 19.528 139.198 19.5965 138.961 19.7333C138.727 19.8661 138.546 20.0573 138.417 20.3068C138.293 20.5563 138.228 20.8582 138.224 21.2123ZM146.046 26.5007V17.228H148.914V18.9183H149.011C149.18 18.3066 149.455 17.8518 149.838 17.554C150.22 17.2521 150.665 17.1012 151.172 17.1012C151.309 17.1012 151.45 17.1113 151.594 17.1314C151.739 17.1475 151.874 17.1736 151.999 17.2099V19.7756C151.858 19.7273 151.673 19.689 151.443 19.6609C151.218 19.6327 151.017 19.6186 150.84 19.6186C150.49 19.6186 150.174 19.6971 149.892 19.854C149.614 20.007 149.395 20.2223 149.234 20.5C149.077 20.7737 148.999 21.0956 148.999 21.4659V26.5007H146.046ZM157.055 26.6758C156.085 26.6758 155.248 26.4846 154.543 26.1023C153.843 25.7159 153.304 25.1665 152.926 24.4542C152.551 23.7378 152.364 22.8866 152.364 21.9006C152.364 20.9427 152.553 20.1056 152.932 19.3892C153.31 18.6688 153.843 18.1094 154.531 17.7109C155.22 17.3085 156.031 17.1072 156.964 17.1072C157.624 17.1072 158.228 17.2099 158.775 17.4151C159.323 17.6204 159.796 17.9242 160.194 18.3267C160.592 18.7292 160.902 19.2262 161.124 19.8178C161.345 20.4054 161.456 21.0795 161.456 21.8402V22.5767H153.396V20.8622H158.709C158.705 20.5483 158.63 20.2686 158.486 20.0231C158.341 19.7776 158.141 19.5864 157.888 19.4496C157.638 19.3087 157.351 19.2383 157.025 19.2383C156.695 19.2383 156.399 19.3127 156.137 19.4616C155.876 19.6065 155.668 19.8057 155.515 20.0593C155.362 20.3088 155.282 20.5926 155.274 20.9105V22.6552C155.274 23.0335 155.348 23.3655 155.497 23.6513C155.646 23.933 155.857 24.1523 156.131 24.3093C156.405 24.4663 156.731 24.5447 157.109 24.5447C157.371 24.5447 157.608 24.5085 157.821 24.4361C158.035 24.3636 158.218 24.257 158.371 24.1161C158.524 23.9752 158.638 23.8022 158.715 23.5969L161.426 23.6754C161.313 24.2831 161.065 24.8124 160.683 25.2631C160.305 25.7099 159.808 26.058 159.192 26.3075C158.576 26.553 157.864 26.6758 157.055 26.6758ZM165.577 26.6577C164.986 26.6577 164.461 26.5591 164.002 26.3618C163.547 26.1606 163.187 25.8588 162.921 25.4563C162.66 25.0498 162.529 24.5407 162.529 23.929C162.529 23.4138 162.619 22.9792 162.8 22.625C162.982 22.2708 163.231 21.9831 163.549 21.7617C163.867 21.5404 164.233 21.3733 164.648 21.2606C165.062 21.1439 165.505 21.0654 165.976 21.0252C166.503 20.9769 166.928 20.9266 167.25 20.8743C167.572 20.8179 167.805 20.7395 167.95 20.6388C168.099 20.5342 168.173 20.3873 168.173 20.1981V20.168C168.173 19.8581 168.067 19.6186 167.853 19.4496C167.64 19.2805 167.352 19.196 166.99 19.196C166.6 19.196 166.286 19.2805 166.048 19.4496C165.811 19.6186 165.66 19.852 165.596 20.1498L162.873 20.0533C162.953 19.4898 163.161 18.9867 163.495 18.544C163.833 18.0973 164.296 17.7471 164.883 17.4936C165.475 17.236 166.185 17.1072 167.014 17.1072C167.606 17.1072 168.151 17.1777 168.65 17.3185C169.149 17.4554 169.584 17.6566 169.954 17.9222C170.324 18.1838 170.61 18.5058 170.811 18.8881C171.017 19.2705 171.119 19.7071 171.119 20.1981V26.5007H168.342V25.2088H168.27C168.105 25.5227 167.894 25.7883 167.636 26.0057C167.382 26.223 167.083 26.386 166.737 26.4947C166.394 26.6033 166.008 26.6577 165.577 26.6577ZM166.489 24.7258C166.807 24.7258 167.093 24.6614 167.346 24.5327C167.604 24.4039 167.809 24.2268 167.962 24.0014C168.115 23.772 168.191 23.5064 168.191 23.2045V22.3231C168.107 22.3674 168.004 22.4077 167.884 22.4439C167.767 22.4801 167.638 22.5143 167.497 22.5465C167.356 22.5787 167.211 22.6069 167.063 22.631C166.914 22.6552 166.771 22.6773 166.634 22.6974C166.356 22.7417 166.119 22.8101 165.922 22.9027C165.728 22.9953 165.579 23.116 165.475 23.2649C165.374 23.4098 165.324 23.5828 165.324 23.7841C165.324 24.0899 165.433 24.3234 165.65 24.4844C165.871 24.6453 166.151 24.7258 166.489 24.7258ZM175.876 14.1371V26.5007H172.924V14.1371H175.876ZM181.408 26.5007V14.1371H190.029V16.5639H184.396V19.0994H189.588V21.5323H184.396V24.0739H190.029V26.5007H181.408ZM194.852 21.2123V26.5007H191.9V17.228H194.707V18.9304H194.81C195.015 18.3629 195.365 17.9182 195.86 17.5962C196.355 17.2702 196.945 17.1072 197.629 17.1072C198.281 17.1072 198.846 17.2541 199.325 17.5479C199.808 17.8377 200.183 18.2442 200.448 18.7674C200.718 19.2866 200.851 19.8943 200.847 20.5905V26.5007H197.895V21.1701C197.899 20.6549 197.768 20.2525 197.502 19.9627C197.241 19.6729 196.876 19.528 196.41 19.528C196.1 19.528 195.826 19.5965 195.589 19.7333C195.355 19.8661 195.174 20.0573 195.045 20.3068C194.92 20.5563 194.856 20.8582 194.852 21.2123ZM206.997 30.1712C206.115 30.1712 205.361 30.0484 204.733 29.8029C204.105 29.5574 203.612 29.2213 203.254 28.7947C202.896 28.3681 202.68 27.8852 202.608 27.3459L205.403 27.1889C205.455 27.3781 205.552 27.5431 205.693 27.6839C205.838 27.8248 206.025 27.9335 206.254 28.0099C206.488 28.0864 206.761 28.1246 207.075 28.1246C207.57 28.1246 207.979 28.0039 208.301 27.7624C208.627 27.525 208.79 27.1084 208.79 26.5128V24.8828H208.687C208.57 25.1685 208.393 25.4241 208.156 25.6495C207.918 25.8749 207.623 26.052 207.268 26.1807C206.918 26.3095 206.516 26.3739 206.061 26.3739C205.385 26.3739 204.765 26.217 204.202 25.903C203.642 25.5851 203.194 25.0941 202.855 24.43C202.521 23.7619 202.354 22.9027 202.354 21.8523C202.354 20.7696 202.527 19.8782 202.874 19.1779C203.22 18.4736 203.672 17.9524 204.232 17.6143C204.795 17.2763 205.401 17.1072 206.049 17.1072C206.536 17.1072 206.953 17.1918 207.299 17.3608C207.649 17.5258 207.937 17.7391 208.162 18.0007C208.387 18.2623 208.558 18.534 208.675 18.8157H208.76V17.228H211.7V26.5369C211.7 27.3217 211.502 27.9838 211.108 28.5231C210.714 29.0624 210.162 29.4709 209.454 29.7486C208.746 30.0303 207.927 30.1712 206.997 30.1712ZM207.087 24.2248C207.446 24.2248 207.751 24.1302 208.005 23.941C208.259 23.7519 208.454 23.4802 208.591 23.1261C208.727 22.7719 208.796 22.3473 208.796 21.8523C208.796 21.3492 208.727 20.9165 208.591 20.5543C208.458 20.1881 208.263 19.9064 208.005 19.7092C207.751 19.5119 207.446 19.4133 207.087 19.4133C206.721 19.4133 206.411 19.514 206.158 19.7152C205.904 19.9164 205.711 20.2002 205.578 20.5664C205.449 20.9286 205.385 21.3572 205.385 21.8523C205.385 22.3473 205.451 22.7719 205.584 23.1261C205.717 23.4802 205.908 23.7519 206.158 23.941C206.411 24.1302 206.721 24.2248 207.087 24.2248ZM213.582 26.5007V17.228H216.534V26.5007H213.582ZM215.061 16.1474C214.646 16.1474 214.29 16.0105 213.992 15.7369C213.694 15.4592 213.545 15.1251 213.545 14.7347C213.545 14.3484 213.694 14.0183 213.992 13.7447C214.29 13.467 214.646 13.3281 215.061 13.3281C215.479 13.3281 215.835 13.467 216.129 13.7447C216.427 14.0183 216.576 14.3484 216.576 14.7347C216.576 15.1251 216.427 15.4592 216.129 15.7369C215.835 16.0105 215.479 16.1474 215.061 16.1474ZM221.365 21.2123V26.5007H218.413V17.228H221.22V18.9304H221.322C221.528 18.3629 221.878 17.9182 222.373 17.5962C222.868 17.2702 223.458 17.1072 224.142 17.1072C224.794 17.1072 225.359 17.2541 225.838 17.5479C226.321 17.8377 226.695 18.2442 226.961 18.7674C227.231 19.2866 227.363 19.8943 227.359 20.5905V26.5007H224.407V21.1701C224.411 20.6549 224.281 20.2525 224.015 19.9627C223.753 19.6729 223.389 19.528 222.922 19.528C222.612 19.528 222.339 19.5965 222.101 19.7333C221.868 19.8661 221.687 20.0573 221.558 20.3068C221.433 20.5563 221.369 20.8582 221.365 21.2123ZM233.522 26.6758C232.552 26.6758 231.715 26.4846 231.01 26.1023C230.31 25.7159 229.771 25.1665 229.392 24.4542C229.018 23.7378 228.831 22.8866 228.831 21.9006C228.831 20.9427 229.02 20.1056 229.398 19.3892C229.777 18.6688 230.31 18.1094 230.998 17.7109C231.686 17.3085 232.497 17.1072 233.431 17.1072C234.091 17.1072 234.695 17.2099 235.242 17.4151C235.789 17.6204 236.262 17.9242 236.661 18.3267C237.059 18.7292 237.369 19.2262 237.59 19.8178C237.812 20.4054 237.923 21.0795 237.923 21.8402V22.5767H229.863V20.8622H235.176C235.172 20.5483 235.097 20.2686 234.952 20.0231C234.807 19.7776 234.608 19.5864 234.355 19.4496C234.105 19.3087 233.817 19.2383 233.491 19.2383C233.161 19.2383 232.866 19.3127 232.604 19.4616C232.342 19.6065 232.135 19.8057 231.982 20.0593C231.829 20.3088 231.749 20.5926 231.741 20.9105V22.6552C231.741 23.0335 231.815 23.3655 231.964 23.6513C232.113 23.933 232.324 24.1523 232.598 24.3093C232.872 24.4663 233.198 24.5447 233.576 24.5447C233.838 24.5447 234.075 24.5085 234.288 24.4361C234.502 24.3636 234.685 24.257 234.838 24.1161C234.991 23.9752 235.105 23.8022 235.182 23.5969L237.892 23.6754C237.78 24.2831 237.532 24.8124 237.15 25.2631C236.771 25.7099 236.274 26.058 235.659 26.3075C235.043 26.553 234.331 26.6758 233.522 26.6758Z" fill="white"/>
</g>
<defs>
<filter id="filter0_d_1_56" x="2.39972" y="0.39972" width="39.202" height="39.202" filterUnits="userSpaceOnUse" color-interpolation-filters="sRGB">
<feFlood flood-opacity="0" result="BackgroundImageFix"/>
<feColorMatrix in="SourceAlpha" type="matrix" values="0 0 0 0 0 0 0 0 0 0 0 0 0 0 0 0 0 0 127 0" result="hardAlpha"/>
<feOffset/>
<feGaussianBlur stdDeviation="2.80014"/>
<feComposite in2="hardAlpha" operator="out"/>
<feColorMatrix type="matrix" values="0 0 0 0 0 0 0 0 0 0 0 0 0 0 0 0 0 0 0.25 0"/>
<feBlend mode="normal" in2="BackgroundImageFix" result="effect1_dropShadow_1_56"/>
<feBlend mode="normal" in="SourceGraphic" in2="effect1_dropShadow_1_56" result="shape"/>
</filter>
<filter id="filter1_d_1_56" x="36.2871" y="3.78642" width="208.429" height="32.4286" filterUnits="userSpaceOnUse" color-interpolation-filters="sRGB">
<feFlood flood-opacity="0" result="BackgroundImageFix"/>
<feColorMatrix in="SourceAlpha" type="matrix" values="0 0 0 0 0 0 0 0 0 0 0 0 0 0 0 0 0 0 127 0" result="hardAlpha"/>
<feOffset/>
<feGaussianBlur stdDeviation="2.85714"/>
<feComposite in2="hardAlpha" operator="out"/>
<feColorMatrix type="matrix" values="0 0 0 0 0 0 0 0 0 0 0 0 0 0 0 0 0 0 0.25 0"/>
<feBlend mode="normal" in2="BackgroundImageFix" result="effect1_dropShadow_1_56"/>
<feBlend mode="normal" in="SourceGraphic" in2="effect1_dropShadow_1_56" result="shape"/>
</filter>
<linearGradient id="paint0_linear_1_56" x1="123.501" y1="0" x2="123.501" y2="40.0014" gradientUnits="userSpaceOnUse">
<stop stop-color="#20275B"/>
<stop offset="0.9992" stop-color="#0D1026"/>
<stop offset="0.9993" stop-color="#193958"/>
<stop offset="0.9994" stop-color="#249847"/>
<stop offset="0.9995" stop-color="#045375"/>
</linearGradient>
</defs>
</svg>
