<svg width="40" height="40" viewBox="0 0 40 40" fill="none" xmlns="http://www.w3.org/2000/svg">
<rect width="40" height="40" rx="8" fill="url(#paint0_linear_1_68)"/>
<rect x="1.05" y="1.05" width="37.9" height="37.9" rx="6.95" stroke="white" stroke-opacity="0.15" stroke-width="2.1"/>
<g filter="url(#filter0_d_1_68)">
<path fill-rule="evenodd" clip-rule="evenodd" d="M28.3183 22.0132C28.077 23.1774 27.003 26.1634 23.5801 27.7808L22.2064 26.2355L19.8884 28.5672C18.5686 28.5495 17.2707 28.2268 16.0962 27.6244C14.9217 27.0219 13.9025 26.1561 13.1181 25.0945C13.3647 25.1712 13.6193 25.219 13.877 25.237C14.2565 25.2439 14.6677 25.1048 14.6677 24.4643V18.1756C14.6734 18.0138 14.641 17.8529 14.5732 17.7059C14.5054 17.5588 14.4041 17.4297 14.2773 17.3289C14.1506 17.2282 14.002 17.1585 13.8434 17.1256C13.6849 17.0927 13.5208 17.0974 13.3645 17.1394C12.2913 17.3849 11.4328 20.0644 11.4328 20.0644C11.4208 18.827 11.6785 17.6019 12.188 16.4743C12.6974 15.3466 13.4463 14.3434 14.3827 13.5344C15.9812 12.1797 17.5429 11.7109 18.7294 11.5272C17.5575 12.1951 16.8981 13.2855 16.8981 14.2007C16.8981 15.6679 17.7841 15.4945 18.0469 15.2781V23.7706C18.0913 23.8774 18.1489 23.978 18.2186 24.0703C18.3359 24.2326 18.4905 24.3644 18.6693 24.4546C18.8481 24.5448 19.0459 24.5908 19.2462 24.5888C20.1339 24.5888 21.2852 23.5758 21.2852 23.5758V16.699C21.2852 15.9993 20.7581 15.1536 20.2301 14.8652C20.2301 14.8652 21.2071 14.6934 21.9626 15.2695C22.1043 15.096 22.255 14.9301 22.4142 14.7724C24.1707 13.0468 25.8285 12.5574 27.2091 12.3119C27.2091 12.3119 24.6961 14.2865 24.6961 16.9308C24.6961 18.8994 24.7468 23.6994 24.7468 23.6994C25.6817 24.5974 27.0665 23.301 28.3183 22.0132Z" fill="white"/>
<path fill-rule="evenodd" clip-rule="evenodd" d="M19.9991 6C17.2302 6.00017 14.5235 6.82142 12.2213 8.3599C9.91911 9.89838 8.12483 12.085 7.06536 14.6432C6.00589 17.2015 5.72882 20.0164 6.26918 22.7321C6.80954 25.4478 8.14306 27.9423 10.1011 29.9001C12.0592 31.8579 14.5538 33.1911 17.2696 33.7312C19.9853 34.2712 22.8003 33.9938 25.3584 32.934C27.9165 31.8742 30.1029 30.0796 31.6411 27.7773C33.1793 25.4749 34.0002 22.7681 34 19.9991C34 18.1606 33.6378 16.3401 32.9342 14.6415C32.2306 12.9429 31.1993 11.3996 29.8991 10.0996C28.599 8.79968 27.0556 7.76855 25.3569 7.06513C23.6583 6.36171 21.8377 5.99977 19.9991 6ZM19.9991 33.4394C17.3409 33.4395 14.7423 32.6514 12.5319 31.1747C10.3216 29.698 8.59876 27.599 7.58137 25.1431C6.56398 22.6872 6.2977 19.9848 6.81619 17.3776C7.33469 14.7704 8.61468 12.3755 10.4943 10.4958C12.3739 8.61602 14.7687 7.33588 17.3759 6.81721C19.9831 6.29855 22.6855 6.56466 25.1414 7.5819C27.5974 8.59913 29.6965 10.3218 31.1734 12.5321C32.6502 14.7423 33.4385 17.3409 33.4385 19.9991C33.4385 23.5636 32.0226 26.982 29.5023 29.5025C26.9819 32.023 23.5636 33.4391 19.9991 33.4394Z" fill="white"/>
</g>
<defs>
<filter id="filter0_d_1_68" x="2" y="2" width="36" height="36" filterUnits="userSpaceOnUse" color-interpolation-filters="sRGB">
<feFlood flood-opacity="0" result="BackgroundImageFix"/>
<feColorMatrix in="SourceAlpha" type="matrix" values="0 0 0 0 0 0 0 0 0 0 0 0 0 0 0 0 0 0 127 0" result="hardAlpha"/>
<feOffset/>
<feGaussianBlur stdDeviation="2"/>
<feComposite in2="hardAlpha" operator="out"/>
<feColorMatrix type="matrix" values="0 0 0 0 0 0 0 0 0 0 0 0 0 0 0 0 0 0 0.25 0"/>
<feBlend mode="normal" in2="BackgroundImageFix" result="effect1_dropShadow_1_68"/>
<feBlend mode="normal" in="SourceGraphic" in2="effect1_dropShadow_1_68" result="shape"/>
</filter>
<linearGradient id="paint0_linear_1_68" x1="20" y1="0" x2="20" y2="40" gradientUnits="userSpaceOnUse">
<stop stop-color="#20275B"/>
<stop offset="0.9992" stop-color="#0D1026"/>
<stop offset="0.9993" stop-color="#193958"/>
<stop offset="0.9994" stop-color="#249847"/>
</linearGradient>
</defs>
</svg>
