<svg width="56" height="56" viewBox="0 0 56 56" fill="none" xmlns="http://www.w3.org/2000/svg">
<rect width="56" height="56" rx="8.4" fill="url(#paint0_linear_1_62)"/>
<rect x="1.05" y="1.05" width="53.9" height="53.9" rx="7.35" stroke="white" stroke-opacity="0.15" stroke-width="2.1"/>
<g filter="url(#filter0_d_1_62)">
<path fill-rule="evenodd" clip-rule="evenodd" d="M39.8832 30.8761C39.5386 32.5392 38.0043 36.8048 33.1144 39.1155L31.152 36.9078L27.8406 40.2389C25.9551 40.2135 24.101 39.7526 22.4232 38.8919C20.7453 38.0313 19.2892 36.7944 18.1686 35.2779C18.521 35.3874 18.8848 35.4558 19.2528 35.4814C19.7949 35.4913 20.3824 35.2926 20.3824 34.3776V25.3938C20.3905 25.1626 20.3443 24.9327 20.2474 24.7226C20.1506 24.5126 20.0058 24.3281 19.8248 24.1842C19.6437 24.0402 19.4314 23.9407 19.2049 23.8937C18.9784 23.8467 18.7441 23.8534 18.5206 23.9134C16.9876 24.2642 15.7611 28.092 15.7611 28.092C15.744 26.3243 16.1122 24.5742 16.84 22.9632C17.5677 21.3523 18.6376 19.9191 19.9752 18.7635C22.2589 16.8281 24.4899 16.1585 26.1848 15.896C24.5107 16.8502 23.5688 18.4078 23.5688 19.7152C23.5688 21.8112 24.8345 21.5635 25.2098 21.2544V33.3866C25.2732 33.5391 25.3556 33.6829 25.4551 33.8147C25.6227 34.0465 25.8436 34.2348 26.099 34.3637C26.3544 34.4926 26.6371 34.5583 26.9232 34.5555C28.1913 34.5555 29.836 33.1082 29.836 33.1082V23.2842C29.836 22.2847 29.083 21.0766 28.3287 20.6645C28.3287 20.6645 29.7244 20.4192 30.8037 21.2422C31.0061 20.9943 31.2215 20.7572 31.4488 20.532C33.9582 18.0668 36.3265 17.3678 38.2986 17.017C38.2986 17.017 34.7088 19.8379 34.7088 23.6154C34.7088 26.4277 34.7811 33.2848 34.7811 33.2848C36.1168 34.5677 38.0951 32.7158 39.8832 30.8761Z" fill="white"/>
<path fill-rule="evenodd" clip-rule="evenodd" d="M27.9988 8C24.0432 8.00024 20.1764 9.17346 16.8876 11.3713C13.5987 13.5691 11.0355 16.6928 9.52195 20.3475C8.00842 24.0021 7.6126 28.0234 8.38454 31.903C9.15648 35.7826 11.0615 39.3461 13.8587 42.143C16.656 44.9399 20.2197 46.8445 24.0994 47.6159C27.9791 48.3874 32.0004 47.9911 35.6548 46.4771C39.3092 44.9631 42.4326 42.3995 44.6301 39.1104C46.8275 35.8213 48.0002 31.9544 48 27.9988C48 25.3723 47.4826 22.7715 46.4774 20.345C45.4723 17.9185 43.9989 15.7137 42.1416 13.8566C40.2843 11.9995 38.0794 10.5265 35.6527 9.52161C33.2261 8.51672 30.6253 7.99968 27.9988 8ZM27.9988 47.1991C24.2013 47.1993 20.4889 46.0735 17.3313 43.9639C14.1737 41.8542 11.7125 38.8557 10.2591 35.3473C8.80569 31.8389 8.42528 27.9783 9.16599 24.2537C9.9067 20.5291 11.7353 17.1079 14.4204 14.4225C17.1056 11.7372 20.5268 9.9084 24.2513 9.16745C27.9758 8.4265 31.8364 8.80666 35.3449 10.2599C38.8534 11.713 41.8521 14.174 43.962 17.3315C46.0718 20.489 47.1979 24.2012 47.1979 27.9988C47.1979 33.0908 45.1752 37.9743 41.5747 41.575C37.9742 45.1757 33.0908 47.1988 27.9988 47.1991Z" fill="white"/>
</g>
<defs>
<filter id="filter0_d_1_62" x="2.28571" y="2.28571" width="51.4286" height="51.4286" filterUnits="userSpaceOnUse" color-interpolation-filters="sRGB">
<feFlood flood-opacity="0" result="BackgroundImageFix"/>
<feColorMatrix in="SourceAlpha" type="matrix" values="0 0 0 0 0 0 0 0 0 0 0 0 0 0 0 0 0 0 127 0" result="hardAlpha"/>
<feOffset/>
<feGaussianBlur stdDeviation="2.85714"/>
<feComposite in2="hardAlpha" operator="out"/>
<feColorMatrix type="matrix" values="0 0 0 0 0 0 0 0 0 0 0 0 0 0 0 0 0 0 0.25 0"/>
<feBlend mode="normal" in2="BackgroundImageFix" result="effect1_dropShadow_1_62"/>
<feBlend mode="normal" in="SourceGraphic" in2="effect1_dropShadow_1_62" result="shape"/>
</filter>
<linearGradient id="paint0_linear_1_62" x1="28" y1="0" x2="28" y2="56" gradientUnits="userSpaceOnUse">
<stop stop-color="#20275B"/>
<stop offset="0.9986" stop-color="#0D1026"/>
<stop offset="0.9987" stop-color="#193958"/>
<stop offset="0.9988" stop-color="#249847"/>
<stop offset="0.9989" stop-color="#045375"/>
<stop offset="0.999"/>
<stop offset="0.9991" stop-color="#0672A1"/>
<stop offset="0.9992" stop-color="#0672A1"/>
</linearGradient>
</defs>
</svg>
