<svg width="189" height="56" viewBox="0 0 189 56" fill="none" xmlns="http://www.w3.org/2000/svg">
<rect width="189" height="56" rx="8" fill="url(#paint0_linear_1_50)"/>
<rect x="1.05" y="1.05" width="186.9" height="53.9" rx="6.95" stroke="white" stroke-opacity="0.15" stroke-width="2.1"/>
<g filter="url(#filter0_d_1_50)">
<path fill-rule="evenodd" clip-rule="evenodd" d="M43.8832 30.8761C43.5386 32.5392 42.0043 36.8048 37.1144 39.1155L35.152 36.9078L31.8406 40.2389C29.9551 40.2135 28.101 39.7526 26.4232 38.8919C24.7453 38.0313 23.2892 36.7944 22.1686 35.2779C22.521 35.3874 22.8848 35.4558 23.2528 35.4814C23.7949 35.4913 24.3824 35.2926 24.3824 34.3776V25.3938C24.3905 25.1626 24.3443 24.9327 24.2474 24.7226C24.1506 24.5126 24.0058 24.3281 23.8248 24.1842C23.6437 24.0402 23.4314 23.9407 23.2049 23.8937C22.9784 23.8467 22.7441 23.8534 22.5206 23.9134C20.9876 24.2642 19.7611 28.092 19.7611 28.092C19.744 26.3243 20.1122 24.5742 20.84 22.9632C21.5677 21.3523 22.6376 19.9191 23.9752 18.7635C26.2589 16.8281 28.4899 16.1585 30.1848 15.896C28.5107 16.8502 27.5688 18.4078 27.5688 19.7152C27.5688 21.8112 28.8345 21.5635 29.2098 21.2544V33.3866C29.2732 33.5391 29.3556 33.6829 29.4551 33.8147C29.6227 34.0465 29.8436 34.2348 30.099 34.3637C30.3544 34.4926 30.6371 34.5583 30.9232 34.5555C32.1913 34.5555 33.836 33.1082 33.836 33.1082V23.2842C33.836 22.2847 33.083 21.0766 32.3287 20.6645C32.3287 20.6645 33.7244 20.4192 34.8037 21.2422C35.0061 20.9943 35.2215 20.7572 35.4488 20.532C37.9582 18.0668 40.3265 17.3678 42.2986 17.017C42.2986 17.017 38.7088 19.8379 38.7088 23.6154C38.7088 26.4277 38.7811 33.2848 38.7811 33.2848C40.1168 34.5677 42.0951 32.7158 43.8832 30.8761Z" fill="white"/>
<path fill-rule="evenodd" clip-rule="evenodd" d="M31.9988 8C28.0432 8.00024 24.1764 9.17346 20.8876 11.3713C17.5987 13.5691 15.0355 16.6928 13.5219 20.3475C12.0084 24.0021 11.6126 28.0234 12.3845 31.903C13.1565 35.7826 15.0615 39.3461 17.8587 42.143C20.656 44.9399 24.2197 46.8445 28.0994 47.6159C31.9791 48.3874 36.0004 47.9911 39.6548 46.4771C43.3092 44.9631 46.4326 42.3995 48.6301 39.1104C50.8275 35.8213 52.0002 31.9544 52 27.9988C52 25.3723 51.4826 22.7715 50.4774 20.345C49.4723 17.9185 47.9989 15.7137 46.1416 13.8566C44.2843 11.9995 42.0794 10.5265 39.6527 9.52161C37.2261 8.51672 34.6253 7.99968 31.9988 8ZM31.9988 47.1991C28.2013 47.1993 24.4889 46.0735 21.3313 43.9639C18.1737 41.8542 15.7125 38.8557 14.2591 35.3473C12.8057 31.8389 12.4253 27.9783 13.166 24.2537C13.9067 20.5291 15.7353 17.1079 18.4204 14.4225C21.1056 11.7372 24.5268 9.9084 28.2513 9.16745C31.9758 8.4265 35.8364 8.80666 39.3449 10.2599C42.8534 11.713 45.8521 14.174 47.962 17.3315C50.0718 20.489 51.1979 24.2012 51.1979 27.9988C51.1979 33.0908 49.1752 37.9743 45.5747 41.575C41.9742 45.1757 37.0908 47.1988 31.9988 47.1991Z" fill="white"/>
</g>
<g filter="url(#filter1_d_1_50)">
<path d="M61.2784 24.5V12.8636H65.5398C66.3655 12.8636 67.0492 13 67.5909 13.2727C68.1326 13.5417 68.5379 13.9072 68.8068 14.3693C69.0757 14.8276 69.2102 15.3447 69.2102 15.9204C69.2102 16.4053 69.1212 16.8144 68.9432 17.1477C68.7651 17.4773 68.5265 17.7424 68.2273 17.9432C67.9318 18.1401 67.606 18.2841 67.25 18.375V18.4886C67.6363 18.5076 68.0132 18.6326 68.3807 18.8636C68.7519 19.0909 69.0587 19.4148 69.3011 19.8352C69.5435 20.2557 69.6648 20.767 69.6648 21.3693C69.6648 21.964 69.5246 22.4981 69.2443 22.9716C68.9678 23.4413 68.5398 23.8144 67.9602 24.0909C67.3807 24.3636 66.6401 24.5 65.7386 24.5H61.2784ZM63.0341 22.9943H65.5682C66.4091 22.9943 67.0113 22.8314 67.375 22.5057C67.7386 22.1799 67.9204 21.7727 67.9204 21.2841C67.9204 20.9167 67.8276 20.5795 67.642 20.2727C67.4564 19.9659 67.1913 19.7216 66.8466 19.5398C66.5057 19.3579 66.1004 19.267 65.6307 19.267H63.0341V22.9943ZM63.0341 17.8977H65.3863C65.7803 17.8977 66.1345 17.822 66.4488 17.6704C66.767 17.5189 67.0189 17.3068 67.2045 17.0341C67.3939 16.7576 67.4886 16.4318 67.4886 16.0568C67.4886 15.5758 67.3201 15.1723 66.9829 14.8466C66.6458 14.5208 66.1288 14.3579 65.4318 14.3579H63.0341V17.8977ZM77.1392 20.8807V15.7727H78.8437V24.5H77.1733V22.9886H77.0824C76.8816 23.4545 76.5596 23.8428 76.1165 24.1534C75.6771 24.4602 75.1297 24.6136 74.4744 24.6136C73.9138 24.6136 73.4176 24.4905 72.9858 24.2443C72.5577 23.9943 72.2206 23.625 71.9744 23.1364C71.732 22.6477 71.6108 22.0436 71.6108 21.3239V15.7727H73.3096V21.1193C73.3096 21.714 73.4744 22.1875 73.804 22.5398C74.1335 22.892 74.5615 23.0682 75.088 23.0682C75.4062 23.0682 75.7225 22.9886 76.0369 22.8295C76.3551 22.6704 76.6184 22.4299 76.8267 22.1079C77.0388 21.786 77.143 21.3769 77.1392 20.8807ZM81.1264 24.5V15.7727H82.8253V24.5H81.1264ZM81.9844 14.4261C81.6889 14.4261 81.4351 14.3276 81.223 14.1307C81.0147 13.9299 80.9105 13.6913 80.9105 13.4148C80.9105 13.1345 81.0147 12.8958 81.223 12.6989C81.4351 12.4981 81.6889 12.3977 81.9844 12.3977C82.2798 12.3977 82.5317 12.4981 82.74 12.6989C82.9522 12.8958 83.0582 13.1345 83.0582 13.4148C83.0582 13.6913 82.9522 13.9299 82.74 14.1307C82.5317 14.3276 82.2798 14.4261 81.9844 14.4261ZM86.8096 12.8636V24.5H85.1108V12.8636H86.8096ZM93.169 15.7727V17.1364H88.402V15.7727H93.169ZM89.6804 13.6818H91.3792V21.9375C91.3792 22.267 91.4285 22.5151 91.527 22.6818C91.6254 22.8447 91.7523 22.9564 91.9076 23.017C92.0667 23.0739 92.2391 23.1023 92.4247 23.1023C92.5611 23.1023 92.6804 23.0928 92.7826 23.0739C92.8849 23.0549 92.9645 23.0398 93.0213 23.0284L93.3281 24.4318C93.2296 24.4697 93.0895 24.5076 92.9076 24.5454C92.7258 24.5871 92.4986 24.6098 92.2258 24.6136C91.7789 24.6212 91.3622 24.5417 90.9758 24.375C90.5895 24.2083 90.277 23.9508 90.0383 23.6023C89.7997 23.2538 89.6804 22.8163 89.6804 22.2898V13.6818ZM101.175 24.5L98.6065 15.7727H100.362L102.072 22.1818H102.158L103.874 15.7727H105.629L107.334 22.1534H107.419L109.118 15.7727H110.874L108.311 24.5H106.578L104.805 18.1989H104.675L102.902 24.5H101.175ZM112.486 24.5V15.7727H114.185V24.5H112.486ZM113.344 14.4261C113.048 14.4261 112.794 14.3276 112.582 14.1307C112.374 13.9299 112.27 13.6913 112.27 13.4148C112.27 13.1345 112.374 12.8958 112.582 12.6989C112.794 12.4981 113.048 12.3977 113.344 12.3977C113.639 12.3977 113.891 12.4981 114.099 12.6989C114.312 12.8958 114.418 13.1345 114.418 13.4148C114.418 13.6913 114.312 13.9299 114.099 14.1307C113.891 14.3276 113.639 14.4261 113.344 14.4261ZM120.544 15.7727V17.1364H115.777V15.7727H120.544ZM117.055 13.6818H118.754V21.9375C118.754 22.267 118.803 22.5151 118.902 22.6818C119 22.8447 119.127 22.9564 119.283 23.017C119.442 23.0739 119.614 23.1023 119.8 23.1023C119.936 23.1023 120.055 23.0928 120.158 23.0739C120.26 23.0549 120.339 23.0398 120.396 23.0284L120.703 24.4318C120.605 24.4697 120.464 24.5076 120.283 24.5454C120.101 24.5871 119.874 24.6098 119.601 24.6136C119.154 24.6212 118.737 24.5417 118.351 24.375C117.964 24.2083 117.652 23.9508 117.413 23.6023C117.175 23.2538 117.055 22.8163 117.055 22.2898V13.6818ZM124.31 19.3182V24.5H122.611V12.8636H124.287V17.1932H124.395C124.599 16.7235 124.912 16.3504 125.332 16.0739C125.753 15.7973 126.302 15.6591 126.98 15.6591C127.579 15.6591 128.101 15.7822 128.548 16.0284C128.999 16.2746 129.348 16.642 129.594 17.1307C129.844 17.6155 129.969 18.2216 129.969 18.9489V24.5H128.27V19.1534C128.27 18.5133 128.105 18.017 127.776 17.6648C127.446 17.3087 126.988 17.1307 126.401 17.1307C125.999 17.1307 125.639 17.2159 125.321 17.3864C125.007 17.5568 124.758 17.8068 124.577 18.1364C124.399 18.4621 124.31 18.8561 124.31 19.3182Z" fill="#E8E8E8"/>
<path d="M68.4155 31.1364H71.3977V39.1111C71.3977 40.0328 71.1784 40.8357 70.7397 41.5199C70.301 42.2 69.6893 42.7273 68.9045 43.1016C68.1197 43.4718 67.2081 43.6569 66.1697 43.6569C65.1193 43.6569 64.2017 43.4718 63.4169 43.1016C62.6321 42.7273 62.0224 42.2 61.5877 41.5199C61.153 40.8357 60.9357 40.0328 60.9357 39.1111V31.1364H63.924V38.8516C63.924 39.2782 64.0166 39.6585 64.2017 39.9925C64.3908 40.3266 64.6545 40.5882 64.9925 40.7773C65.3306 40.9665 65.723 41.0611 66.1697 41.0611C66.6165 41.0611 67.0068 40.9665 67.3409 40.7773C67.679 40.5882 67.9426 40.3266 68.1317 39.9925C68.3209 39.6585 68.4155 39.2782 68.4155 38.8516V31.1364ZM76.2227 38.2116V43.5H73.2707V34.2273H76.0778V35.9297H76.1805C76.3857 35.3622 76.7359 34.9175 77.2309 34.5955C77.7259 34.2695 78.3155 34.1065 78.9997 34.1065C79.6517 34.1065 80.2172 34.2534 80.6961 34.5472C81.179 34.837 81.5533 35.2435 81.819 35.7667C82.0886 36.2859 82.2214 36.8936 82.2174 37.5898V43.5H79.2653V38.1694C79.2694 37.6542 79.1386 37.2518 78.8729 36.962C78.6113 36.6722 78.2471 36.5273 77.7803 36.5273C77.4704 36.5273 77.1967 36.5958 76.9592 36.7326C76.7258 36.8654 76.5447 37.0566 76.4159 37.3061C76.2911 37.5556 76.2267 37.8575 76.2227 38.2116ZM84.0451 43.5V34.2273H86.9126V35.9176H87.0092C87.1782 35.3059 87.4539 34.8511 87.8363 34.5533C88.2186 34.2514 88.6633 34.1005 89.1704 34.1005C89.3073 34.1005 89.4481 34.1105 89.593 34.1307C89.7379 34.1468 89.8727 34.1729 89.9975 34.2092V36.7748C89.8566 36.7266 89.6715 36.6883 89.4421 36.6601C89.2167 36.632 89.0155 36.6179 88.8384 36.6179C88.4883 36.6179 88.1723 36.6964 87.8906 36.8533C87.6129 37.0063 87.3936 37.2216 87.2326 37.4993C87.0756 37.773 86.9971 38.0949 86.9971 38.4652V43.5H84.0451ZM95.0534 43.6751C94.0835 43.6751 93.2464 43.4839 92.5421 43.1016C91.8418 42.7152 91.3025 42.1658 90.9242 41.4535C90.5499 40.7371 90.3627 39.8859 90.3627 38.8998C90.3627 37.942 90.5519 37.1049 90.9302 36.3885C91.3085 35.6681 91.8418 35.1087 92.53 34.7102C93.2182 34.3078 94.0292 34.1065 94.9629 34.1065C95.6229 34.1065 96.2266 34.2092 96.7739 34.4144C97.3213 34.6197 97.7942 34.9235 98.1926 35.326C98.5911 35.7284 98.901 36.2255 99.1223 36.8171C99.3437 37.4047 99.4543 38.0788 99.4543 38.8395V39.576H91.395V37.8615H96.7075C96.7035 37.5476 96.6291 37.2679 96.4842 37.0224C96.3393 36.7769 96.1401 36.5857 95.8865 36.4489C95.637 36.308 95.3492 36.2376 95.0232 36.2376C94.6932 36.2376 94.3974 36.312 94.1358 36.4609C93.8742 36.6058 93.6669 36.805 93.514 37.0586C93.3611 37.3081 93.2806 37.5918 93.2725 37.9098V39.6545C93.2725 40.0328 93.347 40.3648 93.4959 40.6506C93.6448 40.9323 93.8561 41.1516 94.1298 41.3086C94.4034 41.4655 94.7294 41.544 95.1078 41.544C95.3694 41.544 95.6068 41.5078 95.8201 41.4354C96.0334 41.3629 96.2165 41.2563 96.3695 41.1154C96.5224 40.9745 96.6371 40.8015 96.7136 40.5962L99.4242 40.6747C99.3115 41.2824 99.064 41.8117 98.6816 42.2624C98.3033 42.7092 97.8063 43.0573 97.1905 43.3068C96.5747 43.5523 95.8624 43.6751 95.0534 43.6751ZM103.576 43.6569C102.984 43.6569 102.459 43.5583 102 43.3611C101.546 43.1599 101.185 42.8581 100.92 42.4556C100.658 42.0491 100.527 41.54 100.527 40.9283C100.527 40.4131 100.618 39.9784 100.799 39.6243C100.98 39.2701 101.23 38.9824 101.548 38.761C101.866 38.5396 102.232 38.3726 102.646 38.2599C103.061 38.1432 103.504 38.0647 103.974 38.0245C104.502 37.9762 104.926 37.9259 105.248 37.8736C105.57 37.8172 105.804 37.7387 105.949 37.6381C106.097 37.5335 106.172 37.3866 106.172 37.1974V37.1672C106.172 36.8574 106.065 36.6179 105.852 36.4489C105.639 36.2798 105.351 36.1953 104.989 36.1953C104.598 36.1953 104.284 36.2798 104.047 36.4489C103.809 36.6179 103.659 36.8513 103.594 37.1491L100.872 37.0525C100.952 36.4891 101.159 35.986 101.493 35.5433C101.831 35.0966 102.294 34.7464 102.882 34.4929C103.473 34.2353 104.184 34.1065 105.013 34.1065C105.604 34.1065 106.15 34.177 106.649 34.3178C107.148 34.4547 107.583 34.6559 107.953 34.9215C108.323 35.1831 108.609 35.5051 108.81 35.8874C109.015 36.2698 109.118 36.7064 109.118 37.1974V43.5H106.341V42.2081H106.269C106.104 42.522 105.892 42.7876 105.635 43.005C105.381 43.2223 105.081 43.3853 104.735 43.494C104.393 43.6026 104.007 43.6569 103.576 43.6569ZM104.488 41.7251C104.806 41.7251 105.091 41.6607 105.345 41.5319C105.602 41.4032 105.808 41.2261 105.961 41.0007C106.114 40.7713 106.19 40.5057 106.19 40.2038V39.3224C106.106 39.3667 106.003 39.4069 105.882 39.4432C105.765 39.4794 105.637 39.5136 105.496 39.5458C105.355 39.578 105.21 39.6062 105.061 39.6303C104.912 39.6545 104.769 39.6766 104.633 39.6967C104.355 39.741 104.117 39.8094 103.92 39.902C103.727 39.9945 103.578 40.1153 103.473 40.2642C103.373 40.4091 103.323 40.5821 103.323 40.7834C103.323 41.0892 103.431 41.3227 103.648 41.4837C103.87 41.6446 104.15 41.7251 104.488 41.7251ZM113.875 31.1364V43.5H110.923V31.1364H113.875ZM119.406 43.5V31.1364H128.027V33.5632H122.395V36.0987H127.586V38.5316H122.395V41.0731H128.027V43.5H119.406ZM132.851 38.2116V43.5H129.899V34.2273H132.706V35.9297H132.808C133.014 35.3622 133.364 34.9175 133.859 34.5955C134.354 34.2695 134.943 34.1065 135.628 34.1065C136.28 34.1065 136.845 34.2534 137.324 34.5472C137.807 34.837 138.181 35.2435 138.447 35.7667C138.717 36.2859 138.849 36.8936 138.845 37.5898V43.5H135.893V38.1694C135.897 37.6542 135.766 37.2518 135.501 36.962C135.239 36.6722 134.875 36.5273 134.408 36.5273C134.098 36.5273 133.825 36.5958 133.587 36.7326C133.354 36.8654 133.173 37.0566 133.044 37.3061C132.919 37.5556 132.855 37.8575 132.851 38.2116ZM144.995 47.1704C144.114 47.1704 143.359 47.0477 142.732 46.8022C142.104 46.5567 141.611 46.2206 141.253 45.794C140.894 45.3674 140.679 44.8845 140.607 44.3452L143.402 44.1882C143.454 44.3774 143.551 44.5424 143.691 44.6832C143.836 44.8241 144.023 44.9328 144.253 45.0092C144.486 45.0857 144.76 45.1239 145.074 45.1239C145.569 45.1239 145.977 45.0032 146.299 44.7617C146.625 44.5243 146.788 44.1077 146.788 43.5121V41.8821H146.686C146.569 42.1678 146.392 42.4234 146.155 42.6488C145.917 42.8742 145.621 43.0512 145.267 43.18C144.917 43.3088 144.514 43.3732 144.06 43.3732C143.384 43.3732 142.764 43.2163 142.2 42.9023C141.641 42.5844 141.192 42.0934 140.854 41.4293C140.52 40.7612 140.353 39.902 140.353 38.8516C140.353 37.7689 140.526 36.8775 140.872 36.1772C141.218 35.4729 141.671 34.9517 142.231 34.6136C142.794 34.2756 143.4 34.1065 144.048 34.1065C144.535 34.1065 144.951 34.191 145.297 34.3601C145.647 34.5251 145.935 34.7384 146.161 35C146.386 35.2616 146.557 35.5333 146.674 35.815H146.758V34.2273H149.698V43.5362C149.698 44.321 149.501 44.9831 149.107 45.5224C148.712 46.0617 148.161 46.4702 147.452 46.7479C146.744 47.0296 145.925 47.1704 144.995 47.1704ZM145.086 41.2241C145.444 41.2241 145.75 41.1295 146.004 40.9403C146.257 40.7512 146.452 40.4795 146.589 40.1253C146.726 39.7712 146.794 39.3466 146.794 38.8516C146.794 38.3485 146.726 37.9158 146.589 37.5536C146.456 37.1874 146.261 36.9056 146.004 36.7084C145.75 36.5112 145.444 36.4126 145.086 36.4126C144.72 36.4126 144.41 36.5132 144.156 36.7145C143.903 36.9157 143.71 37.1994 143.577 37.5657C143.448 37.9279 143.384 38.3565 143.384 38.8516C143.384 39.3466 143.45 39.7712 143.583 40.1253C143.716 40.4795 143.907 40.7512 144.156 40.9403C144.41 41.1295 144.72 41.2241 145.086 41.2241ZM151.58 43.5V34.2273H154.532V43.5H151.58ZM153.059 33.1467C152.645 33.1467 152.289 33.0098 151.991 32.7361C151.693 32.4584 151.544 32.1244 151.544 31.734C151.544 31.3476 151.693 31.0176 151.991 30.744C152.289 30.4663 152.645 30.3274 153.059 30.3274C153.478 30.3274 153.834 30.4663 154.128 30.744C154.426 31.0176 154.575 31.3476 154.575 31.734C154.575 32.1244 154.426 32.4584 154.128 32.7361C153.834 33.0098 153.478 33.1467 153.059 33.1467ZM159.363 38.2116V43.5H156.411V34.2273H159.218V35.9297H159.321C159.526 35.3622 159.876 34.9175 160.371 34.5955C160.867 34.2695 161.456 34.1065 162.14 34.1065C162.792 34.1065 163.358 34.2534 163.837 34.5472C164.32 34.837 164.694 35.2435 164.96 35.7667C165.229 36.2859 165.362 36.8936 165.358 37.5898V43.5H162.406V38.1694C162.41 37.6542 162.279 37.2518 162.014 36.962C161.752 36.6722 161.388 36.5273 160.921 36.5273C160.611 36.5273 160.337 36.5958 160.1 36.7326C159.866 36.8654 159.685 37.0566 159.557 37.3061C159.432 37.5556 159.367 37.8575 159.363 38.2116ZM171.52 43.6751C170.55 43.6751 169.713 43.4839 169.009 43.1016C168.309 42.7152 167.769 42.1658 167.391 41.4535C167.017 40.7371 166.829 39.8859 166.829 38.8998C166.829 37.942 167.019 37.1049 167.397 36.3885C167.775 35.6681 168.309 35.1087 168.997 34.7102C169.685 34.3078 170.496 34.1065 171.43 34.1065C172.09 34.1065 172.693 34.2092 173.241 34.4144C173.788 34.6197 174.261 34.9235 174.659 35.326C175.058 35.7284 175.368 36.2255 175.589 36.8171C175.81 37.4047 175.921 38.0788 175.921 38.8395V39.576H167.862V37.8615H173.174C173.17 37.5476 173.096 37.2679 172.951 37.0224C172.806 36.7769 172.607 36.5857 172.353 36.4489C172.104 36.308 171.816 36.2376 171.49 36.2376C171.16 36.2376 170.864 36.312 170.603 36.4609C170.341 36.6058 170.134 36.805 169.981 37.0586C169.828 37.3081 169.747 37.5918 169.739 37.9098V39.6545C169.739 40.0328 169.814 40.3648 169.963 40.6506C170.112 40.9323 170.323 41.1516 170.597 41.3086C170.87 41.4655 171.196 41.544 171.575 41.544C171.836 41.544 172.074 41.5078 172.287 41.4354C172.5 41.3629 172.683 41.2563 172.836 41.1154C172.989 40.9745 173.104 40.8015 173.18 40.5962L175.891 40.6747C175.778 41.2824 175.531 41.8117 175.148 42.2624C174.77 42.7092 174.273 43.0573 173.657 43.3068C173.041 43.5523 172.329 43.6751 171.52 43.6751Z" fill="white"/>
</g>
<defs>
<filter id="filter0_d_1_50" x="6.28571" y="2.28571" width="51.4286" height="51.4286" filterUnits="userSpaceOnUse" color-interpolation-filters="sRGB">
<feFlood flood-opacity="0" result="BackgroundImageFix"/>
<feColorMatrix in="SourceAlpha" type="matrix" values="0 0 0 0 0 0 0 0 0 0 0 0 0 0 0 0 0 0 127 0" result="hardAlpha"/>
<feOffset/>
<feGaussianBlur stdDeviation="2.85714"/>
<feComposite in2="hardAlpha" operator="out"/>
<feColorMatrix type="matrix" values="0 0 0 0 0 0 0 0 0 0 0 0 0 0 0 0 0 0 0.25 0"/>
<feBlend mode="normal" in2="BackgroundImageFix" result="effect1_dropShadow_1_50"/>
<feBlend mode="normal" in="SourceGraphic" in2="effect1_dropShadow_1_50" result="shape"/>
</filter>
<filter id="filter1_d_1_50" x="54.4" y="3.9" width="128.2" height="48.8704" filterUnits="userSpaceOnUse" color-interpolation-filters="sRGB">
<feFlood flood-opacity="0" result="BackgroundImageFix"/>
<feColorMatrix in="SourceAlpha" type="matrix" values="0 0 0 0 0 0 0 0 0 0 0 0 0 0 0 0 0 0 127 0" result="hardAlpha"/>
<feOffset/>
<feGaussianBlur stdDeviation="2.8"/>
<feComposite in2="hardAlpha" operator="out"/>
<feColorMatrix type="matrix" values="0 0 0 0 0 0 0 0 0 0 0 0 0 0 0 0 0 0 0.25 0"/>
<feBlend mode="normal" in2="BackgroundImageFix" result="effect1_dropShadow_1_50"/>
<feBlend mode="normal" in="SourceGraphic" in2="effect1_dropShadow_1_50" result="shape"/>
</filter>
<linearGradient id="paint0_linear_1_50" x1="94.5" y1="0" x2="94.5" y2="56" gradientUnits="userSpaceOnUse">
<stop offset="0.0008" stop-color="#BE2128"/>
<stop offset="0.0009" stop-color="#BE2128"/>
<stop offset="0.001" stop-color="#984D00"/>
<stop offset="0.0011" stop-color="#20275B"/>
<stop offset="0.9989" stop-color="#0D1026"/>
<stop offset="0.999" stop-color="#0C0E22"/>
<stop offset="0.9991"/>
<stop offset="0.9992"/>
</linearGradient>
</defs>
</svg>
