<svg width="232" height="40" viewBox="0 0 232 40" fill="none" xmlns="http://www.w3.org/2000/svg">
<rect width="232.001" height="40.0014" rx="8" fill="url(#paint0_linear_1_56)"/>
<rect x="1.07143" y="1.07143" width="229.858" height="37.8585" rx="6.92857" stroke="white" stroke-opacity="0.15" stroke-width="2.14286"/>
<g filter="url(#filter0_d_1_56)">
<path d="M31.933 6.59267V6.595H10.1035C9.2285 6.595 8.09217 7.32417 8 8.64833V28.6368H8.00233V31.3493C8.09567 32.6747 9.22733 33.4062 10.1023 33.4062H11.8582L11.8605 33.4038H33.8743C35.3397 33.342 35.9347 32.1602 36 31.4217V27.8948H35.9977V8.57717C35.9323 7.83867 35.3362 6.6545 33.8697 6.59267H31.933ZM11.9807 7.8935H31.9937C33.0413 7.8935 33.8813 8.7335 33.8813 9.78V29.1933C33.8813 30.241 33.0413 31.0833 31.9937 31.0833H11.9807C11.7324 31.0838 11.4865 31.0352 11.257 30.9404C11.0276 30.8456 10.8191 30.7063 10.6436 30.5307C10.4681 30.3551 10.329 30.1466 10.2343 29.9171C10.1396 29.6876 10.0912 29.4416 10.0918 29.1933V9.78C10.0918 8.7335 10.9342 7.8935 11.9818 7.8935H11.9807ZM15.8482 22.3742L13.6373 28.2507H14.4575L15.0712 26.5392H17.4278L18.0077 28.2507H18.8757L16.7477 22.3742H15.8482ZM25.6832 22.3835V28.26H26.4753V26.1985L27.4005 25.3142L29.4538 28.26H30.4852L27.9722 24.7577L30.4198 22.3835H29.3232L26.4753 25.2313V22.3835H25.6832ZM19.6713 22.415V28.2915H20.467V25.5487H23.533V28.2915H24.3287V22.415H23.533V24.8463H20.467V22.415H19.6713ZM16.2577 23.2515H16.274L17.1397 25.838H15.3162L16.2577 23.2515Z" fill="#EEEFF0"/>
</g>
<g filter="url(#filter1_d_1_56)">
<path d="M43.3597 26.5007V14.1371H47.8874C48.7648 14.1371 49.4912 14.282 50.0667 14.5717C50.6423 14.8575 51.0729 15.2458 51.3586 15.7369C51.6444 16.2238 51.7873 16.7732 51.7873 17.3849C51.7873 17.9001 51.6927 18.3347 51.5035 18.6889C51.3144 19.0391 51.0608 19.3208 50.7429 19.5341C50.429 19.7434 50.0828 19.8963 49.7045 19.9929V20.1136C50.115 20.1337 50.5155 20.2666 50.9059 20.5121C51.3003 20.7535 51.6263 21.0976 51.8839 21.5444C52.1414 21.9911 52.2702 22.5344 52.2702 23.1743C52.2702 23.8062 52.1213 24.3737 51.8235 24.8768C51.5297 25.3758 51.0749 25.7722 50.4591 26.066C49.8434 26.3558 49.0566 26.5007 48.0987 26.5007H43.3597ZM45.2251 24.9009H47.9176C48.8111 24.9009 49.451 24.7279 49.8373 24.3817C50.2237 24.0356 50.4169 23.603 50.4169 23.0838C50.4169 22.6934 50.3183 22.3352 50.1211 22.0092C49.9239 21.6832 49.6421 21.4236 49.2759 21.2305C48.9137 21.0373 48.483 20.9407 47.984 20.9407H45.2251V24.9009ZM45.2251 19.4858H47.7244C48.143 19.4858 48.5193 19.4053 48.8533 19.2443C49.1914 19.0833 49.459 18.8579 49.6562 18.5682C49.8575 18.2744 49.9581 17.9283 49.9581 17.5298C49.9581 17.0187 49.779 16.5901 49.4208 16.244C49.0626 15.8978 48.5132 15.7248 47.7727 15.7248H45.2251V19.4858ZM60.2118 22.6552V17.228H62.0229V26.5007H60.248V24.8949H60.1514C59.9381 25.3899 59.596 25.8024 59.1251 26.1324C58.6583 26.4584 58.0767 26.6214 57.3805 26.6214C56.7848 26.6214 56.2576 26.4906 55.7988 26.229C55.344 25.9634 54.9858 25.571 54.7242 25.0518C54.4667 24.5327 54.3379 23.8907 54.3379 23.1261V17.228H56.1429V22.9087C56.1429 23.5406 56.318 24.0437 56.6681 24.418C57.0183 24.7922 57.473 24.9794 58.0325 24.9794C58.3705 24.9794 58.7066 24.8949 59.0406 24.7258C59.3787 24.5568 59.6584 24.3012 59.8798 23.9591C60.1051 23.6171 60.2158 23.1824 60.2118 22.6552ZM64.4482 26.5007V17.228H66.2533V26.5007H64.4482ZM65.3598 15.7972C65.0459 15.7972 64.7762 15.6926 64.5508 15.4833C64.3295 15.27 64.2188 15.0164 64.2188 14.7226C64.2188 14.4248 64.3295 14.1713 64.5508 13.962C64.7762 13.7487 65.0459 13.642 65.3598 13.642C65.6737 13.642 65.9413 13.7487 66.1627 13.962C66.3881 14.1713 66.5008 14.4248 66.5008 14.7226C66.5008 15.0164 66.3881 15.27 66.1627 15.4833C65.9413 15.6926 65.6737 15.7972 65.3598 15.7972ZM70.4867 14.1371V26.5007H68.6816V14.1371H70.4867ZM77.2435 17.228V18.6768H72.1785V17.228H77.2435ZM73.5368 15.0064H75.3419V23.778C75.3419 24.1282 75.3942 24.3918 75.4988 24.5689C75.6035 24.7419 75.7383 24.8607 75.9033 24.9251C76.0723 24.9854 76.2554 25.0156 76.4526 25.0156C76.5975 25.0156 76.7243 25.0056 76.833 24.9854C76.9416 24.9653 77.0262 24.9492 77.0865 24.9371L77.4125 26.4283C77.3079 26.4685 77.159 26.5087 76.9658 26.549C76.7726 26.5933 76.5311 26.6174 76.2414 26.6214C75.7664 26.6295 75.3237 26.545 74.9132 26.3679C74.5027 26.1908 74.1707 25.9171 73.9171 25.5469C73.6636 25.1766 73.5368 24.7118 73.5368 24.1523V15.0064ZM85.7495 26.5007L83.0208 17.228H84.8862L86.7034 24.0376H86.7939L88.6171 17.228H90.4825L92.2936 24.0074H92.3841L94.1891 17.228H96.0546L93.3319 26.5007H91.4906L89.6071 19.8057H89.4683L87.5847 26.5007H85.7495ZM97.7675 26.5007V17.228H99.5726V26.5007H97.7675ZM98.6791 15.7972C98.3652 15.7972 98.0955 15.6926 97.8702 15.4833C97.6488 15.27 97.5381 15.0164 97.5381 14.7226C97.5381 14.4248 97.6488 14.1713 97.8702 13.962C98.0955 13.7487 98.3652 13.642 98.6791 13.642C98.993 13.642 99.2607 13.7487 99.482 13.962C99.7074 14.1713 99.8201 14.4248 99.8201 14.7226C99.8201 15.0164 99.7074 15.27 99.482 15.4833C99.2607 15.6926 98.993 15.7972 98.6791 15.7972ZM106.329 17.228V18.6768H101.264V17.228H106.329ZM102.623 15.0064H104.428V23.778C104.428 24.1282 104.48 24.3918 104.585 24.5689C104.689 24.7419 104.824 24.8607 104.989 24.9251C105.158 24.9854 105.341 25.0156 105.539 25.0156C105.683 25.0156 105.81 25.0056 105.919 24.9854C106.028 24.9653 106.112 24.9492 106.172 24.9371L106.498 26.4283C106.394 26.4685 106.245 26.5087 106.052 26.549C105.859 26.5933 105.617 26.6174 105.327 26.6214C104.852 26.6295 104.41 26.545 103.999 26.3679C103.589 26.1908 103.257 25.9171 103.003 25.5469C102.75 25.1766 102.623 24.7118 102.623 24.1523V15.0064ZM110.33 20.995V26.5007H108.525V14.1371H110.306V18.7372H110.421C110.638 18.2382 110.97 17.8417 111.417 17.5479C111.864 17.2541 112.447 17.1072 113.168 17.1072C113.804 17.1072 114.359 17.238 114.834 17.4996C115.313 17.7612 115.683 18.1516 115.945 18.6708C116.21 19.1859 116.343 19.8299 116.343 20.6026V26.5007H114.538V20.8199C114.538 20.1398 114.363 19.6126 114.013 19.2383C113.663 18.86 113.176 18.6708 112.552 18.6708C112.125 18.6708 111.743 18.7614 111.405 18.9425C111.071 19.1236 110.807 19.3892 110.614 19.7393C110.425 20.0855 110.33 20.504 110.33 20.995Z" fill="#E8E8E8"/>
<path d="M125.611 26.5007H122.4L126.571 14.1371H130.55L134.721 26.5007H131.51L128.606 17.2521H128.509L125.611 26.5007ZM125.183 21.6349H131.896V23.9048H125.183V21.6349ZM142.035 22.4982V17.228H144.981V26.5007H142.168V24.7741H142.071C141.866 25.3416 141.516 25.7924 141.021 26.1264C140.53 26.4564 139.936 26.6214 139.24 26.6214C138.608 26.6214 138.053 26.4765 137.574 26.1868C137.095 25.897 136.722 25.4925 136.457 24.9734C136.191 24.4502 136.056 23.8384 136.052 23.1381V17.228H139.004V22.5586C139.008 23.0617 139.141 23.4581 139.403 23.7479C139.664 24.0376 140.021 24.1825 140.471 24.1825C140.765 24.1825 141.029 24.1181 141.262 23.9893C141.5 23.8565 141.687 23.6654 141.824 23.4158C141.964 23.1623 142.035 22.8564 142.035 22.4982ZM152.094 17.228V19.4013H146.244V17.228H152.094ZM147.47 15.0064H150.422V23.5849C150.422 23.766 150.45 23.9129 150.506 24.0256C150.567 24.1342 150.653 24.2127 150.766 24.261C150.879 24.3053 151.013 24.3274 151.17 24.3274C151.283 24.3274 151.402 24.3173 151.526 24.2972C151.655 24.2731 151.752 24.2529 151.816 24.2368L152.263 26.3679C152.122 26.4081 151.923 26.4584 151.665 26.5188C151.412 26.5792 151.108 26.6174 150.754 26.6335C150.062 26.6657 149.468 26.5852 148.973 26.392C148.482 26.1948 148.106 25.889 147.844 25.4744C147.586 25.0599 147.462 24.5387 147.47 23.9109V15.0064ZM157.829 26.6758C156.855 26.6758 156.018 26.4765 155.318 26.0781C154.621 25.6756 154.084 25.1162 153.706 24.3998C153.332 23.6794 153.144 22.8443 153.144 21.8945C153.144 20.9407 153.332 20.1056 153.706 19.3892C154.084 18.6688 154.621 18.1094 155.318 17.7109C156.018 17.3085 156.855 17.1072 157.829 17.1072C158.803 17.1072 159.638 17.3085 160.334 17.7109C161.035 18.1094 161.572 18.6688 161.946 19.3892C162.325 20.1056 162.514 20.9407 162.514 21.8945C162.514 22.8443 162.325 23.6794 161.946 24.3998C161.572 25.1162 161.035 25.6756 160.334 26.0781C159.638 26.4765 158.803 26.6758 157.829 26.6758ZM157.847 24.4481C158.201 24.4481 158.501 24.3395 158.747 24.1221C158.992 23.9048 159.179 23.603 159.308 23.2166C159.441 22.8302 159.507 22.3835 159.507 21.8764C159.507 21.3613 159.441 20.9105 159.308 20.5241C159.179 20.1378 158.992 19.8359 158.747 19.6186C158.501 19.4013 158.201 19.2926 157.847 19.2926C157.481 19.2926 157.171 19.4013 156.917 19.6186C156.668 19.8359 156.477 20.1378 156.344 20.5241C156.215 20.9105 156.151 21.3613 156.151 21.8764C156.151 22.3835 156.215 22.8302 156.344 23.2166C156.477 23.603 156.668 23.9048 156.917 24.1221C157.171 24.3395 157.481 24.4481 157.847 24.4481ZM164.026 26.5007V14.1371H167.014V19.0994H171.886V14.1371H174.868V26.5007H171.886V21.5323H167.014V26.5007H164.026ZM181.071 26.6758C180.097 26.6758 179.26 26.4765 178.56 26.0781C177.864 25.6756 177.326 25.1162 176.948 24.3998C176.574 23.6794 176.387 22.8443 176.387 21.8945C176.387 20.9407 176.574 20.1056 176.948 19.3892C177.326 18.6688 177.864 18.1094 178.56 17.7109C179.26 17.3085 180.097 17.1072 181.071 17.1072C182.045 17.1072 182.88 17.3085 183.577 17.7109C184.277 18.1094 184.814 18.6688 185.188 19.3892C185.567 20.1056 185.756 20.9407 185.756 21.8945C185.756 22.8443 185.567 23.6794 185.188 24.3998C184.814 25.1162 184.277 25.6756 183.577 26.0781C182.88 26.4765 182.045 26.6758 181.071 26.6758ZM181.089 24.4481C181.444 24.4481 181.743 24.3395 181.989 24.1221C182.234 23.9048 182.421 23.603 182.55 23.2166C182.683 22.8302 182.749 22.3835 182.749 21.8764C182.749 21.3613 182.683 20.9105 182.55 20.5241C182.421 20.1378 182.234 19.8359 181.989 19.6186C181.743 19.4013 181.444 19.2926 181.089 19.2926C180.723 19.2926 180.413 19.4013 180.16 19.6186C179.91 19.8359 179.719 20.1378 179.586 20.5241C179.457 20.9105 179.393 21.3613 179.393 21.8764C179.393 22.3835 179.457 22.8302 179.586 23.2166C179.719 23.603 179.91 23.9048 180.16 24.1221C180.413 24.3395 180.723 24.4481 181.089 24.4481ZM192.502 17.228V19.4013H186.652V17.228H192.502ZM187.878 15.0064H190.83V23.5849C190.83 23.766 190.858 23.9129 190.914 24.0256C190.975 24.1342 191.061 24.2127 191.174 24.261C191.287 24.3053 191.422 24.3274 191.579 24.3274C191.691 24.3274 191.81 24.3173 191.935 24.2972C192.063 24.2731 192.16 24.2529 192.224 24.2368L192.671 26.3679C192.53 26.4081 192.331 26.4584 192.074 26.5188C191.82 26.5792 191.516 26.6174 191.162 26.6335C190.47 26.6657 189.876 26.5852 189.381 26.392C188.89 26.1948 188.514 25.889 188.252 25.4744C187.995 25.0599 187.87 24.5387 187.878 23.9109V15.0064ZM196.87 24.0678L196.882 20.5483H197.292L199.9 17.228H203.245L199.369 21.9851H198.59L196.87 24.0678ZM194.208 26.5007V14.1371H197.16V26.5007H194.208ZM199.967 26.5007L197.54 22.6491L199.484 20.5543L203.378 26.5007H199.967ZM208.254 26.6758C207.284 26.6758 206.447 26.4846 205.743 26.1023C205.042 25.7159 204.503 25.1665 204.125 24.4542C203.75 23.7378 203.563 22.8866 203.563 21.9006C203.563 20.9427 203.752 20.1056 204.131 19.3892C204.509 18.6688 205.042 18.1094 205.731 17.7109C206.419 17.3085 207.23 17.1072 208.163 17.1072C208.823 17.1072 209.427 17.2099 209.975 17.4151C210.522 17.6204 210.995 17.9242 211.393 18.3267C211.792 18.7292 212.102 19.2262 212.323 19.8178C212.544 20.4054 212.655 21.0795 212.655 21.8402V22.5767H204.596V20.8622H209.908C209.904 20.5483 209.83 20.2686 209.685 20.0231C209.54 19.7776 209.341 19.5864 209.087 19.4496C208.838 19.3087 208.55 19.2383 208.224 19.2383C207.894 19.2383 207.598 19.3127 207.336 19.4616C207.075 19.6065 206.868 19.8057 206.715 20.0593C206.562 20.3088 206.481 20.5926 206.473 20.9105V22.6552C206.473 23.0335 206.548 23.3655 206.696 23.6513C206.845 23.933 207.057 24.1523 207.33 24.3093C207.604 24.4663 207.93 24.5447 208.308 24.5447C208.57 24.5447 208.807 24.5085 209.021 24.4361C209.234 24.3636 209.417 24.257 209.57 24.1161C209.723 23.9752 209.838 23.8022 209.914 23.5969L212.625 23.6754C212.512 24.2831 212.265 24.8124 211.882 25.2631C211.504 25.7099 211.007 26.058 210.391 26.3075C209.775 26.553 209.063 26.6758 208.254 26.6758ZM215.719 29.978C215.365 29.978 215.03 29.9498 214.717 29.8935C214.403 29.8411 214.133 29.7707 213.908 29.6822L214.56 27.539C214.849 27.6356 215.111 27.692 215.344 27.7081C215.582 27.7242 215.785 27.6859 215.954 27.5934C216.127 27.5048 216.26 27.3459 216.353 27.1165L216.467 26.8388L213.171 17.228H216.262L217.97 23.8444H218.067L219.8 17.228H222.909L219.413 27.3881C219.244 27.8952 219.005 28.342 218.695 28.7283C218.389 29.1187 217.993 29.4246 217.506 29.6459C217.023 29.8673 216.427 29.978 215.719 29.978Z" fill="#EEEFF0"/>
</g>
<defs>
<filter id="filter0_d_1_56" x="2.39972" y="0.39972" width="39.202" height="39.202" filterUnits="userSpaceOnUse" color-interpolation-filters="sRGB">
<feFlood flood-opacity="0" result="BackgroundImageFix"/>
<feColorMatrix in="SourceAlpha" type="matrix" values="0 0 0 0 0 0 0 0 0 0 0 0 0 0 0 0 0 0 127 0" result="hardAlpha"/>
<feOffset/>
<feGaussianBlur stdDeviation="2.80014"/>
<feComposite in2="hardAlpha" operator="out"/>
<feColorMatrix type="matrix" values="0 0 0 0 0 0 0 0 0 0 0 0 0 0 0 0 0 0 0.25 0"/>
<feBlend mode="normal" in2="BackgroundImageFix" result="effect1_dropShadow_1_56"/>
<feBlend mode="normal" in="SourceGraphic" in2="effect1_dropShadow_1_56" result="shape"/>
</filter>
<filter id="filter1_d_1_56" x="36.2871" y="3.78642" width="193.429" height="32.4286" filterUnits="userSpaceOnUse" color-interpolation-filters="sRGB">
<feFlood flood-opacity="0" result="BackgroundImageFix"/>
<feColorMatrix in="SourceAlpha" type="matrix" values="0 0 0 0 0 0 0 0 0 0 0 0 0 0 0 0 0 0 127 0" result="hardAlpha"/>
<feOffset/>
<feGaussianBlur stdDeviation="2.85714"/>
<feComposite in2="hardAlpha" operator="out"/>
<feColorMatrix type="matrix" values="0 0 0 0 0 0 0 0 0 0 0 0 0 0 0 0 0 0 0.25 0"/>
<feBlend mode="normal" in2="BackgroundImageFix" result="effect1_dropShadow_1_56"/>
<feBlend mode="normal" in="SourceGraphic" in2="effect1_dropShadow_1_56" result="shape"/>
</filter>
<linearGradient id="paint0_linear_1_56" x1="116.001" y1="0" x2="116.001" y2="40.0014" gradientUnits="userSpaceOnUse">
<stop stop-color="#2D2D2D"/>
<stop offset="0.9988" stop-color="#161616"/>
<stop offset="0.9989" stop-color="#254D6B"/>
<stop offset="0.999" stop-color="#2F6288"/>
<stop offset="0.9991" stop-color="#0E0E0E"/>
<stop offset="0.9992" stop-color="#0D1026"/>
</linearGradient>
</defs>
</svg>
