<svg width="174" height="56" viewBox="0 0 174 56" fill="none" xmlns="http://www.w3.org/2000/svg">
<rect width="174" height="56" rx="8" fill="url(#paint0_linear_1_50)"/>
<rect x="1.05" y="1.05" width="171.9" height="53.9" rx="6.95" stroke="white" stroke-opacity="0.15" stroke-width="2.1"/>
<g filter="url(#filter0_d_1_50)">
<path d="M46.19 8.84667V8.85H15.005C13.755 8.85 12.1317 9.89167 12 11.7833V40.3383H12.0033V44.2133C12.1367 46.1067 13.7533 47.1517 15.0033 47.1517H17.5117L17.515 47.1483H48.9633C51.0567 47.06 51.9067 45.3717 52 44.3167V39.2783H51.9967V11.6817C51.9033 10.6267 51.0517 8.935 48.9567 8.84667H46.19ZM17.6867 10.705L46.2767 10.705C47.7733 10.705 48.9733 11.905 48.9733 13.4V41.1333C48.9733 42.63 47.7733 43.8333 46.2767 43.8333H17.6867C17.332 43.834 16.9807 43.7646 16.6529 43.6291C16.3251 43.4936 16.0273 43.2948 15.7766 43.0439C15.5259 42.793 15.3272 42.4951 15.1919 42.1672C15.0566 41.8394 14.9875 41.488 14.9883 41.1333V13.4C14.9883 11.905 16.1917 10.705 17.6883 10.705H17.6867ZM23.2117 31.3917L20.0533 39.7867H21.225L22.1017 37.3417H25.4683L26.2967 39.7867H27.5367L24.4967 31.3917H23.2117ZM37.2617 31.405V39.8H38.3933V36.855L39.715 35.5917L42.6483 39.8H44.1217L40.5317 34.7967L44.0283 31.405H42.4617L38.3933 35.4733V31.405H37.2617ZM28.6733 31.45V39.845H29.81V35.9267H34.19V39.845H35.3267V31.45H34.19V34.9233H29.81V31.45H28.6733ZM23.7967 32.645H23.82L25.0567 36.34H22.4517L23.7967 32.645Z" fill="#EEEFF0"/>
</g>
<g filter="url(#filter1_d_1_50)">
<path d="M61.2784 24.5V12.8636H65.5398C66.3655 12.8636 67.0492 13 67.5909 13.2727C68.1326 13.5417 68.5379 13.9072 68.8068 14.3693C69.0757 14.8276 69.2102 15.3447 69.2102 15.9204C69.2102 16.4053 69.1212 16.8144 68.9432 17.1477C68.7651 17.4773 68.5265 17.7424 68.2273 17.9432C67.9318 18.1401 67.606 18.2841 67.25 18.375V18.4886C67.6363 18.5076 68.0132 18.6326 68.3807 18.8636C68.7519 19.0909 69.0587 19.4148 69.3011 19.8352C69.5435 20.2557 69.6648 20.767 69.6648 21.3693C69.6648 21.964 69.5246 22.4981 69.2443 22.9716C68.9678 23.4413 68.5398 23.8144 67.9602 24.0909C67.3807 24.3636 66.6401 24.5 65.7386 24.5H61.2784ZM63.0341 22.9943H65.5682C66.4091 22.9943 67.0113 22.8314 67.375 22.5057C67.7386 22.1799 67.9204 21.7727 67.9204 21.2841C67.9204 20.9167 67.8276 20.5795 67.642 20.2727C67.4564 19.9659 67.1913 19.7216 66.8466 19.5398C66.5057 19.3579 66.1004 19.267 65.6307 19.267H63.0341V22.9943ZM63.0341 17.8977H65.3863C65.7803 17.8977 66.1345 17.822 66.4488 17.6704C66.767 17.5189 67.0189 17.3068 67.2045 17.0341C67.3939 16.7576 67.4886 16.4318 67.4886 16.0568C67.4886 15.5758 67.3201 15.1723 66.9829 14.8466C66.6458 14.5208 66.1288 14.3579 65.4318 14.3579H63.0341V17.8977ZM77.1392 20.8807V15.7727H78.8437V24.5H77.1733V22.9886H77.0824C76.8816 23.4545 76.5596 23.8428 76.1165 24.1534C75.6771 24.4602 75.1297 24.6136 74.4744 24.6136C73.9138 24.6136 73.4176 24.4905 72.9858 24.2443C72.5577 23.9943 72.2206 23.625 71.9744 23.1364C71.732 22.6477 71.6108 22.0436 71.6108 21.3239V15.7727H73.3096V21.1193C73.3096 21.714 73.4744 22.1875 73.804 22.5398C74.1335 22.892 74.5615 23.0682 75.088 23.0682C75.4062 23.0682 75.7225 22.9886 76.0369 22.8295C76.3551 22.6704 76.6184 22.4299 76.8267 22.1079C77.0388 21.786 77.143 21.3769 77.1392 20.8807ZM81.1264 24.5V15.7727H82.8253V24.5H81.1264ZM81.9844 14.4261C81.6889 14.4261 81.4351 14.3276 81.223 14.1307C81.0147 13.9299 80.9105 13.6913 80.9105 13.4148C80.9105 13.1345 81.0147 12.8958 81.223 12.6989C81.4351 12.4981 81.6889 12.3977 81.9844 12.3977C82.2798 12.3977 82.5317 12.4981 82.74 12.6989C82.9522 12.8958 83.0582 13.1345 83.0582 13.4148C83.0582 13.6913 82.9522 13.9299 82.74 14.1307C82.5317 14.3276 82.2798 14.4261 81.9844 14.4261ZM86.8096 12.8636V24.5H85.1108V12.8636H86.8096ZM93.169 15.7727V17.1364H88.402V15.7727H93.169ZM89.6804 13.6818H91.3792V21.9375C91.3792 22.267 91.4285 22.5151 91.527 22.6818C91.6254 22.8447 91.7523 22.9564 91.9076 23.017C92.0667 23.0739 92.2391 23.1023 92.4247 23.1023C92.5611 23.1023 92.6804 23.0928 92.7826 23.0739C92.8849 23.0549 92.9645 23.0398 93.0213 23.0284L93.3281 24.4318C93.2296 24.4697 93.0895 24.5076 92.9076 24.5454C92.7258 24.5871 92.4986 24.6098 92.2258 24.6136C91.7789 24.6212 91.3622 24.5417 90.9758 24.375C90.5895 24.2083 90.277 23.9508 90.0383 23.6023C89.7997 23.2538 89.6804 22.8163 89.6804 22.2898V13.6818ZM101.175 24.5L98.6065 15.7727H100.362L102.072 22.1818H102.158L103.874 15.7727H105.629L107.334 22.1534H107.419L109.118 15.7727H110.874L108.311 24.5H106.578L104.805 18.1989H104.675L102.902 24.5H101.175ZM112.486 24.5V15.7727H114.185V24.5H112.486ZM113.344 14.4261C113.048 14.4261 112.794 14.3276 112.582 14.1307C112.374 13.9299 112.27 13.6913 112.27 13.4148C112.27 13.1345 112.374 12.8958 112.582 12.6989C112.794 12.4981 113.048 12.3977 113.344 12.3977C113.639 12.3977 113.891 12.4981 114.099 12.6989C114.312 12.8958 114.418 13.1345 114.418 13.4148C114.418 13.6913 114.312 13.9299 114.099 14.1307C113.891 14.3276 113.639 14.4261 113.344 14.4261ZM120.544 15.7727V17.1364H115.777V15.7727H120.544ZM117.055 13.6818H118.754V21.9375C118.754 22.267 118.803 22.5151 118.902 22.6818C119 22.8447 119.127 22.9564 119.283 23.017C119.442 23.0739 119.614 23.1023 119.8 23.1023C119.936 23.1023 120.055 23.0928 120.158 23.0739C120.26 23.0549 120.339 23.0398 120.396 23.0284L120.703 24.4318C120.605 24.4697 120.464 24.5076 120.283 24.5454C120.101 24.5871 119.874 24.6098 119.601 24.6136C119.154 24.6212 118.737 24.5417 118.351 24.375C117.964 24.2083 117.652 23.9508 117.413 23.6023C117.175 23.2538 117.055 22.8163 117.055 22.2898V13.6818ZM124.31 19.3182V24.5H122.611V12.8636H124.287V17.1932H124.395C124.599 16.7235 124.912 16.3504 125.332 16.0739C125.753 15.7973 126.302 15.6591 126.98 15.6591C127.579 15.6591 128.101 15.7822 128.548 16.0284C128.999 16.2746 129.348 16.642 129.594 17.1307C129.844 17.6155 129.969 18.2216 129.969 18.9489V24.5H128.27V19.1534C128.27 18.5133 128.105 18.017 127.776 17.6648C127.446 17.3087 126.988 17.1307 126.401 17.1307C125.999 17.1307 125.639 17.2159 125.321 17.3864C125.007 17.5568 124.758 17.8068 124.577 18.1364C124.399 18.4621 124.31 18.8561 124.31 19.3182Z" fill="#E8E8E8"/>
<path d="M63.6101 43.5H60.3984L64.5699 31.1364H68.5483L72.7198 43.5H69.5081L66.6044 34.2514H66.5078L63.6101 43.5ZM63.1814 38.6342H69.8945V40.9041H63.1814V38.6342ZM80.0335 39.4975V34.2273H82.9796V43.5H80.1663V41.7734H80.0698C79.8645 42.3409 79.5144 42.7917 79.0193 43.1257C78.5283 43.4557 77.9347 43.6207 77.2384 43.6207C76.6066 43.6207 76.0512 43.4758 75.5722 43.1861C75.0933 42.8963 74.721 42.4918 74.4554 41.9726C74.1898 41.4494 74.055 40.8377 74.0509 40.1374V34.2273H77.003V39.5579C77.007 40.061 77.1398 40.4574 77.4014 40.7471C77.663 41.0369 78.0192 41.1818 78.47 41.1818C78.7638 41.1818 79.0274 41.1174 79.2608 40.9886C79.4983 40.8558 79.6854 40.6646 79.8222 40.4151C79.9631 40.1616 80.0335 39.8557 80.0335 39.4975ZM90.0926 34.2273V36.4006H84.2428V34.2273H90.0926ZM85.4683 32.0057H88.4203V40.5842C88.4203 40.7653 88.4485 40.9122 88.5049 41.0248C88.5652 41.1335 88.6518 41.212 88.7644 41.2603C88.8771 41.3046 89.012 41.3267 89.1689 41.3267C89.2816 41.3267 89.4003 41.3166 89.5251 41.2965C89.6539 41.2724 89.7505 41.2522 89.8149 41.2361L90.2616 43.3672C90.1207 43.4074 89.9215 43.4577 89.664 43.5181C89.4104 43.5785 89.1065 43.6167 88.7524 43.6328C88.0601 43.665 87.4665 43.5845 86.9715 43.3913C86.4805 43.1941 86.1042 42.8882 85.8426 42.4737C85.585 42.0592 85.4602 41.538 85.4683 40.9101V32.0057ZM95.8277 43.6751C94.8537 43.6751 94.0166 43.4758 93.3163 43.0774C92.62 42.6749 92.0827 42.1155 91.7044 41.3991C91.3301 40.6787 91.143 39.8436 91.143 38.8938C91.143 37.94 91.3301 37.1049 91.7044 36.3885C92.0827 35.6681 92.62 35.1087 93.3163 34.7102C94.0166 34.3078 94.8537 34.1065 95.8277 34.1065C96.8016 34.1065 97.6367 34.3078 98.333 34.7102C99.0333 35.1087 99.5706 35.6681 99.9448 36.3885C100.323 37.1049 100.512 37.94 100.512 38.8938C100.512 39.8436 100.323 40.6787 99.9448 41.3991C99.5706 42.1155 99.0333 42.6749 98.333 43.0774C97.6367 43.4758 96.8016 43.6751 95.8277 43.6751ZM95.8458 41.4474C96.1999 41.4474 96.4998 41.3388 96.7453 41.1214C96.9908 40.9041 97.1779 40.6023 97.3067 40.2159C97.4395 39.8295 97.5059 39.3828 97.5059 38.8757C97.5059 38.3605 97.4395 37.9098 97.3067 37.5234C97.1779 37.1371 96.9908 36.8352 96.7453 36.6179C96.4998 36.4006 96.1999 36.2919 95.8458 36.2919C95.4795 36.2919 95.1696 36.4006 94.9161 36.6179C94.6666 36.8352 94.4754 37.1371 94.3426 37.5234C94.2138 37.9098 94.1494 38.3605 94.1494 38.8757C94.1494 39.3828 94.2138 39.8295 94.3426 40.2159C94.4754 40.6023 94.6666 40.9041 94.9161 41.1214C95.1696 41.3388 95.4795 41.4474 95.8458 41.4474ZM102.025 43.5V31.1364H105.013V36.0987H109.885V31.1364H112.867V43.5H109.885V38.5316H105.013V43.5H102.025ZM119.07 43.6751C118.096 43.6751 117.259 43.4758 116.558 43.0774C115.862 42.6749 115.325 42.1155 114.947 41.3991C114.572 40.6787 114.385 39.8436 114.385 38.8938C114.385 37.94 114.572 37.1049 114.947 36.3885C115.325 35.6681 115.862 35.1087 116.558 34.7102C117.259 34.3078 118.096 34.1065 119.07 34.1065C120.044 34.1065 120.879 34.3078 121.575 34.7102C122.275 35.1087 122.813 35.6681 123.187 36.3885C123.565 37.1049 123.754 37.94 123.754 38.8938C123.754 39.8436 123.565 40.6787 123.187 41.3991C122.813 42.1155 122.275 42.6749 121.575 43.0774C120.879 43.4758 120.044 43.6751 119.07 43.6751ZM119.088 41.4474C119.442 41.4474 119.742 41.3388 119.987 41.1214C120.233 40.9041 120.42 40.6023 120.549 40.2159C120.682 39.8295 120.748 39.3828 120.748 38.8757C120.748 38.3605 120.682 37.9098 120.549 37.5234C120.42 37.1371 120.233 36.8352 119.987 36.6179C119.742 36.4006 119.442 36.2919 119.088 36.2919C118.722 36.2919 118.412 36.4006 118.158 36.6179C117.909 36.8352 117.718 37.1371 117.585 37.5234C117.456 37.9098 117.392 38.3605 117.392 38.8757C117.392 39.3828 117.456 39.8295 117.585 40.2159C117.718 40.6023 117.909 40.9041 118.158 41.1214C118.412 41.3388 118.722 41.4474 119.088 41.4474ZM130.501 34.2273V36.4006H124.651V34.2273H130.501ZM125.876 32.0057H128.829V40.5842C128.829 40.7653 128.857 40.9122 128.913 41.0248C128.973 41.1335 129.06 41.212 129.173 41.2603C129.285 41.3046 129.42 41.3267 129.577 41.3267C129.69 41.3267 129.809 41.3166 129.933 41.2965C130.062 41.2724 130.159 41.2522 130.223 41.2361L130.67 43.3672C130.529 43.4074 130.33 43.4577 130.072 43.5181C129.819 43.5785 129.515 43.6167 129.161 43.6328C128.468 43.665 127.875 43.5845 127.38 43.3913C126.889 43.1941 126.512 42.8882 126.251 42.4737C125.993 42.0592 125.868 41.538 125.876 40.9101V32.0057ZM134.868 41.0671L134.881 37.5476H135.291L137.899 34.2273H141.243L137.368 38.9844H136.589L134.868 41.0671ZM132.206 43.5V31.1364H135.158V43.5H132.206ZM137.965 43.5L135.539 39.6484L137.482 37.5536L141.376 43.5H137.965ZM146.253 43.6751C145.283 43.6751 144.446 43.4839 143.741 43.1016C143.041 42.7152 142.502 42.1658 142.123 41.4535C141.749 40.7371 141.562 39.8859 141.562 38.8998C141.562 37.942 141.751 37.1049 142.129 36.3885C142.508 35.6681 143.041 35.1087 143.729 34.7102C144.417 34.3078 145.228 34.1065 146.162 34.1065C146.822 34.1065 147.426 34.2092 147.973 34.4144C148.52 34.6197 148.993 34.9235 149.392 35.326C149.79 35.7284 150.1 36.2255 150.322 36.8171C150.543 37.4047 150.654 38.0788 150.654 38.8395V39.576H142.594V37.8615H147.907C147.903 37.5476 147.828 37.2679 147.683 37.0224C147.538 36.7769 147.339 36.5857 147.086 36.4489C146.836 36.308 146.548 36.2376 146.222 36.2376C145.892 36.2376 145.597 36.312 145.335 36.4609C145.073 36.6058 144.866 36.805 144.713 37.0586C144.56 37.3081 144.48 37.5918 144.472 37.9098V39.6545C144.472 40.0328 144.546 40.3648 144.695 40.6506C144.844 40.9323 145.055 41.1516 145.329 41.3086C145.603 41.4655 145.929 41.544 146.307 41.544C146.569 41.544 146.806 41.5078 147.019 41.4354C147.233 41.3629 147.416 41.2563 147.569 41.1154C147.722 40.9745 147.836 40.8015 147.913 40.5962L150.623 40.6747C150.511 41.2824 150.263 41.8117 149.881 42.2624C149.503 42.7092 149.005 43.0573 148.39 43.3068C147.774 43.5523 147.062 43.6751 146.253 43.6751ZM153.717 46.9773C153.363 46.9773 153.029 46.9491 152.715 46.8927C152.401 46.8404 152.132 46.77 151.906 46.6815L152.558 44.5383C152.848 44.6349 153.11 44.6913 153.343 44.7074C153.58 44.7235 153.784 44.6852 153.953 44.5927C154.126 44.5041 154.259 44.3452 154.351 44.1158L154.466 43.8381L151.17 34.2273H154.261L155.969 40.8437H156.066L157.798 34.2273H160.907L157.412 44.3874C157.243 44.8945 157.003 45.3413 156.693 45.7276C156.388 46.118 155.991 46.4239 155.504 46.6452C155.021 46.8666 154.426 46.9773 153.717 46.9773Z" fill="#EEEFF0"/>
</g>
<defs>
<filter id="filter0_d_1_50" x="6.28571" y="2.28571" width="51.4286" height="51.4286" filterUnits="userSpaceOnUse" color-interpolation-filters="sRGB">
<feFlood flood-opacity="0" result="BackgroundImageFix"/>
<feColorMatrix in="SourceAlpha" type="matrix" values="0 0 0 0 0 0 0 0 0 0 0 0 0 0 0 0 0 0 127 0" result="hardAlpha"/>
<feOffset/>
<feGaussianBlur stdDeviation="2.85714"/>
<feComposite in2="hardAlpha" operator="out"/>
<feColorMatrix type="matrix" values="0 0 0 0 0 0 0 0 0 0 0 0 0 0 0 0 0 0 0.25 0"/>
<feBlend mode="normal" in2="BackgroundImageFix" result="effect1_dropShadow_1_50"/>
<feBlend mode="normal" in="SourceGraphic" in2="effect1_dropShadow_1_50" result="shape"/>
</filter>
<filter id="filter1_d_1_50" x="54.4" y="3.9" width="113.2" height="48.6773" filterUnits="userSpaceOnUse" color-interpolation-filters="sRGB">
<feFlood flood-opacity="0" result="BackgroundImageFix"/>
<feColorMatrix in="SourceAlpha" type="matrix" values="0 0 0 0 0 0 0 0 0 0 0 0 0 0 0 0 0 0 127 0" result="hardAlpha"/>
<feOffset/>
<feGaussianBlur stdDeviation="2.8"/>
<feComposite in2="hardAlpha" operator="out"/>
<feColorMatrix type="matrix" values="0 0 0 0 0 0 0 0 0 0 0 0 0 0 0 0 0 0 0.25 0"/>
<feBlend mode="normal" in2="BackgroundImageFix" result="effect1_dropShadow_1_50"/>
<feBlend mode="normal" in="SourceGraphic" in2="effect1_dropShadow_1_50" result="shape"/>
</filter>
<linearGradient id="paint0_linear_1_50" x1="87" y1="0" x2="87" y2="56" gradientUnits="userSpaceOnUse">
<stop offset="0.0012" stop-color="#1D1D1D"/>
<stop offset="0.0013" stop-color="#3977A5"/>
<stop offset="0.0014" stop-color="#2F6288"/>
<stop offset="0.0015" stop-color="#2F6288"/>
<stop offset="0.0016" stop-color="#2D2D2D"/>
<stop offset="0.9984" stop-color="#161616"/>
<stop offset="0.9985" stop-color="#254D6B"/>
<stop offset="0.9986" stop-color="#2F6288"/>
<stop offset="0.9987" stop-color="#161616"/>
</linearGradient>
</defs>
</svg>
