<svg width="174" height="40" viewBox="0 0 174 40" fill="none" xmlns="http://www.w3.org/2000/svg">
<rect width="174.001" height="40.0014" rx="8" fill="url(#paint0_linear_1_56)"/>
<rect x="1.07143" y="1.07143" width="171.859" height="37.8585" rx="6.92857" stroke="white" stroke-opacity="0.15" stroke-width="2.14286"/>
<g filter="url(#filter0_d_1_56)">
<path fill-rule="evenodd" clip-rule="evenodd" d="M32.676 6H11.3285C9.49198 6 8.00253 7.4884 8.00003 9.32607V30.656C7.99648 31.5416 8.34557 32.3922 8.97015 33.0197C9.59474 33.6473 10.4434 34 11.3285 34H32.676C33.5603 33.9988 34.4078 33.6455 35.0314 33.0182C35.655 32.3908 36.0035 31.5408 36 30.656V9.32607C35.9975 7.49016 34.5107 6.00247 32.676 6ZM20.0756 26.1674C20.0744 26.4634 19.9555 26.7467 19.745 26.9548C19.5346 27.1628 19.25 27.2784 18.9542 27.2761H14.289C13.6789 27.2736 13.1856 26.7779 13.1856 26.1674V12.2751C13.1856 11.6645 13.6789 11.1689 14.289 11.1664H18.9542C19.5651 11.1689 20.0597 11.6638 20.0622 12.2751L20.0756 26.1674ZM30.8414 19.789C30.8414 20.0854 30.7228 20.3695 30.5121 20.5778C30.3014 20.7861 30.0161 20.9013 29.7199 20.8978H25.0548C24.4439 20.8953 23.9493 20.4003 23.9468 19.789V12.2751C23.9493 11.6638 24.4439 11.1689 25.0548 11.1664H29.7199C30.3301 11.1689 30.8234 11.6645 30.8234 12.2751L30.8414 19.789Z" fill="url(#paint1_linear_1_56)"/>
</g>
<g filter="url(#filter1_d_1_56)">
<path d="M44.4403 14.1371L47.8814 24.2067H48.0202L51.4613 14.1371H53.4776L49.0284 26.5007H46.8732L42.424 14.1371H44.4403ZM55.1181 26.5007V17.228H56.9232V26.5007H55.1181ZM56.0297 15.7972C55.7158 15.7972 55.4461 15.6926 55.2208 15.4833C54.9994 15.27 54.8887 15.0164 54.8887 14.7226C54.8887 14.4248 54.9994 14.1713 55.2208 13.962C55.4461 13.7487 55.7158 13.642 56.0297 13.642C56.3436 13.642 56.6113 13.7487 56.8326 13.962C57.058 14.1713 57.1707 14.4248 57.1707 14.7226C57.1707 15.0164 57.058 15.27 56.8326 15.4833C56.6113 15.6926 56.3436 15.7972 56.0297 15.7972ZM63.348 26.6878C62.4344 26.6878 61.6476 26.4926 60.9875 26.1023C60.3315 25.7078 59.8244 25.1545 59.4662 24.4421C59.1121 23.7257 58.935 22.8866 58.935 21.9247C58.935 20.9749 59.1121 20.1378 59.4662 19.4133C59.8244 18.6889 60.3235 18.1234 60.9634 17.717C61.6073 17.3105 62.3599 17.1072 63.2212 17.1072C63.7444 17.1072 64.2515 17.1938 64.7425 17.3668C65.2335 17.5399 65.6742 17.8115 66.0646 18.1818C66.455 18.5521 66.7629 19.033 66.9883 19.6246C67.2136 20.2122 67.3263 20.9266 67.3263 21.7677V22.4077H59.9552V21.0554H65.5575C65.5575 20.5805 65.4609 20.1599 65.2677 19.7937C65.0745 19.4234 64.8029 19.1316 64.4527 18.9183C64.1066 18.705 63.7001 18.5984 63.2333 18.5984C62.7262 18.5984 62.2835 18.7231 61.9052 18.9726C61.5309 19.2181 61.2411 19.5401 61.0358 19.9386C60.8346 20.333 60.734 20.7616 60.734 21.2244V22.2809C60.734 22.9007 60.8427 23.4279 61.06 23.8626C61.2813 24.2972 61.5892 24.6292 61.9836 24.8587C62.378 25.084 62.8389 25.1967 63.3661 25.1967C63.7082 25.1967 64.0201 25.1484 64.3018 25.0518C64.5835 24.9512 64.827 24.8023 65.0323 24.6051C65.2375 24.4079 65.3945 24.1644 65.5032 23.8746L67.2116 24.1825C67.0748 24.6856 66.8293 25.1263 66.4751 25.5046C66.125 25.8789 65.6843 26.1707 65.153 26.38C64.6258 26.5852 64.0241 26.6878 63.348 26.6878ZM71.3228 26.5007L68.5941 17.228H70.4595L72.2766 24.0376H72.3672L74.1903 17.228H76.0557L77.8668 24.0074H77.9574L79.7624 17.228H81.6278L78.9051 26.5007H77.0639L75.1804 19.8057H75.0415L73.158 26.5007H71.3228ZM92.1683 17.228V18.6768H87.1033V17.228H92.1683ZM88.4616 15.0064H90.2667V23.778C90.2667 24.1282 90.319 24.3918 90.4236 24.5689C90.5283 24.7419 90.6631 24.8607 90.8281 24.9251C90.9971 24.9854 91.1802 25.0156 91.3774 25.0156C91.5223 25.0156 91.6491 25.0056 91.7578 24.9854C91.8664 24.9653 91.951 24.9492 92.0113 24.9371L92.3373 26.4283C92.2327 26.4685 92.0838 26.5087 91.8906 26.549C91.6974 26.5933 91.4559 26.6174 91.1662 26.6214C90.6912 26.6295 90.2485 26.545 89.838 26.3679C89.4275 26.1908 89.0955 25.9171 88.8419 25.5469C88.5884 25.1766 88.4616 24.7118 88.4616 24.1523V15.0064ZM96.1693 20.995V26.5007H94.3642V14.1371H96.1451V18.7372H96.2598C96.4771 18.2382 96.8092 17.8417 97.2559 17.5479C97.7026 17.2541 98.2862 17.1072 99.0066 17.1072C99.6425 17.1072 100.198 17.238 100.673 17.4996C101.152 17.7612 101.522 18.1516 101.784 18.6708C102.049 19.1859 102.182 19.8299 102.182 20.6026V26.5007H100.377V20.8199C100.377 20.1398 100.202 19.6126 99.8518 19.2383C99.5016 18.86 99.0147 18.6708 98.3909 18.6708C97.9642 18.6708 97.5819 18.7614 97.2438 18.9425C96.9098 19.1236 96.6462 19.3892 96.453 19.7393C96.2638 20.0855 96.1693 20.504 96.1693 20.995ZM108.587 26.6878C107.674 26.6878 106.887 26.4926 106.227 26.1023C105.571 25.7078 105.064 25.1545 104.705 24.4421C104.351 23.7257 104.174 22.8866 104.174 21.9247C104.174 20.9749 104.351 20.1378 104.705 19.4133C105.064 18.6889 105.563 18.1234 106.203 17.717C106.847 17.3105 107.599 17.1072 108.46 17.1072C108.984 17.1072 109.491 17.1938 109.982 17.3668C110.473 17.5399 110.913 17.8115 111.304 18.1818C111.694 18.5521 112.002 19.033 112.227 19.6246C112.453 20.2122 112.566 20.9266 112.566 21.7677V22.4077H105.194V21.0554H110.797C110.797 20.5805 110.7 20.1599 110.507 19.7937C110.314 19.4234 110.042 19.1316 109.692 18.9183C109.346 18.705 108.939 18.5984 108.473 18.5984C107.965 18.5984 107.523 18.7231 107.144 18.9726C106.77 19.2181 106.48 19.5401 106.275 19.9386C106.074 20.333 105.973 20.7616 105.973 21.2244V22.2809C105.973 22.9007 106.082 23.4279 106.299 23.8626C106.521 24.2972 106.828 24.6292 107.223 24.8587C107.617 25.084 108.078 25.1967 108.605 25.1967C108.947 25.1967 109.259 25.1484 109.541 25.0518C109.823 24.9512 110.066 24.8023 110.272 24.6051C110.477 24.4079 110.634 24.1644 110.742 23.8746L112.451 24.1825C112.314 24.6856 112.069 25.1263 111.714 25.5046C111.364 25.8789 110.924 26.1707 110.392 26.38C109.865 26.5852 109.263 26.6878 108.587 26.6878Z" fill="#E8E8E8"/>
<path d="M118.533 16.0639V13.6371H128.983V16.0639H125.234V26.0007H122.288V16.0639H118.533ZM129.479 26.0007V16.728H132.347V18.4183H132.443C132.612 17.8066 132.888 17.3518 133.27 17.054C133.653 16.7521 134.097 16.6012 134.604 16.6012C134.741 16.6012 134.882 16.6113 135.027 16.6314C135.172 16.6475 135.307 16.6736 135.431 16.7099V19.2756C135.291 19.2273 135.106 19.189 134.876 19.1609C134.651 19.1327 134.449 19.1186 134.272 19.1186C133.922 19.1186 133.606 19.1971 133.325 19.354C133.047 19.507 132.828 19.7223 132.667 20C132.51 20.2737 132.431 20.5956 132.431 20.9659V26.0007H129.479ZM140.487 26.1758C139.517 26.1758 138.68 25.9846 137.976 25.6023C137.276 25.2159 136.736 24.6665 136.358 23.9542C135.984 23.2378 135.797 22.3866 135.797 21.4006C135.797 20.4427 135.986 19.6056 136.364 18.8892C136.743 18.1688 137.276 17.6094 137.964 17.2109C138.652 16.8085 139.463 16.6072 140.397 16.6072C141.057 16.6072 141.661 16.7099 142.208 16.9151C142.755 17.1204 143.228 17.4242 143.627 17.8267C144.025 18.2292 144.335 18.7262 144.556 19.3178C144.778 19.9054 144.888 20.5795 144.888 21.3402V22.0767H136.829V20.3622H142.142C142.138 20.0483 142.063 19.7686 141.918 19.5231C141.773 19.2776 141.574 19.0864 141.321 18.9496C141.071 18.8087 140.783 18.7383 140.457 18.7383C140.127 18.7383 139.831 18.8127 139.57 18.9616C139.308 19.1065 139.101 19.3057 138.948 19.5593C138.795 19.8088 138.715 20.0926 138.707 20.4105V22.1552C138.707 22.5335 138.781 22.8655 138.93 23.1513C139.079 23.433 139.29 23.6523 139.564 23.8093C139.837 23.9663 140.163 24.0447 140.542 24.0447C140.803 24.0447 141.041 24.0085 141.254 23.9361C141.467 23.8636 141.651 23.757 141.803 23.6161C141.956 23.4752 142.071 23.3022 142.148 23.0969L144.858 23.1754C144.745 23.7831 144.498 24.3124 144.116 24.7631C143.737 25.2099 143.24 25.558 142.625 25.8075C142.009 26.053 141.296 26.1758 140.487 26.1758ZM149.348 13.6371V26.0007H146.396V13.6371H149.348ZM154.179 13.6371V26.0007H151.227V13.6371H154.179ZM160.387 26.1758C159.413 26.1758 158.576 25.9765 157.875 25.5781C157.179 25.1757 156.642 24.6162 156.263 23.8998C155.889 23.1794 155.702 22.3443 155.702 21.3945C155.702 20.4407 155.889 19.6056 156.263 18.8892C156.642 18.1688 157.179 17.6094 157.875 17.2109C158.576 16.8085 159.413 16.6072 160.387 16.6072C161.361 16.6072 162.196 16.8085 162.892 17.2109C163.592 17.6094 164.13 18.1688 164.504 18.8892C164.882 19.6056 165.071 20.4407 165.071 21.3945C165.071 22.3443 164.882 23.1794 164.504 23.8998C164.13 24.6162 163.592 25.1757 162.892 25.5781C162.196 25.9765 161.361 26.1758 160.387 26.1758ZM160.405 23.9481C160.759 23.9481 161.059 23.8395 161.304 23.6221C161.55 23.4048 161.737 23.103 161.866 22.7166C161.999 22.3302 162.065 21.8835 162.065 21.3764C162.065 20.8613 161.999 20.4105 161.866 20.0241C161.737 19.6378 161.55 19.3359 161.304 19.1186C161.059 18.9013 160.759 18.7926 160.405 18.7926C160.039 18.7926 159.729 18.9013 159.475 19.1186C159.226 19.3359 159.034 19.6378 158.902 20.0241C158.773 20.4105 158.708 20.8613 158.708 21.3764C158.708 21.8835 158.773 22.3302 158.902 22.7166C159.034 23.103 159.226 23.4048 159.475 23.6221C159.729 23.8395 160.039 23.9481 160.405 23.9481Z" fill="#2684FF"/>
</g>
<defs>
<filter id="filter0_d_1_56" x="2.39972" y="0.39972" width="39.202" height="39.202" filterUnits="userSpaceOnUse" color-interpolation-filters="sRGB">
<feFlood flood-opacity="0" result="BackgroundImageFix"/>
<feColorMatrix in="SourceAlpha" type="matrix" values="0 0 0 0 0 0 0 0 0 0 0 0 0 0 0 0 0 0 127 0" result="hardAlpha"/>
<feOffset/>
<feGaussianBlur stdDeviation="2.80014"/>
<feComposite in2="hardAlpha" operator="out"/>
<feColorMatrix type="matrix" values="0 0 0 0 0 0 0 0 0 0 0 0 0 0 0 0 0 0 0.25 0"/>
<feBlend mode="normal" in2="BackgroundImageFix" result="effect1_dropShadow_1_56"/>
<feBlend mode="normal" in="SourceGraphic" in2="effect1_dropShadow_1_56" result="shape"/>
</filter>
<filter id="filter1_d_1_56" x="36.2871" y="3.78642" width="135.429" height="32.4286" filterUnits="userSpaceOnUse" color-interpolation-filters="sRGB">
<feFlood flood-opacity="0" result="BackgroundImageFix"/>
<feColorMatrix in="SourceAlpha" type="matrix" values="0 0 0 0 0 0 0 0 0 0 0 0 0 0 0 0 0 0 127 0" result="hardAlpha"/>
<feOffset/>
<feGaussianBlur stdDeviation="2.85714"/>
<feComposite in2="hardAlpha" operator="out"/>
<feColorMatrix type="matrix" values="0 0 0 0 0 0 0 0 0 0 0 0 0 0 0 0 0 0 0.25 0"/>
<feBlend mode="normal" in2="BackgroundImageFix" result="effect1_dropShadow_1_56"/>
<feBlend mode="normal" in="SourceGraphic" in2="effect1_dropShadow_1_56" result="shape"/>
</filter>
<linearGradient id="paint0_linear_1_56" x1="87.0007" y1="0" x2="87.0007" y2="40.0014" gradientUnits="userSpaceOnUse">
<stop stop-color="#003C8B"/>
<stop offset="1" stop-color="#001531"/>
</linearGradient>
<linearGradient id="paint1_linear_1_56" x1="4380.2" y1="1798" x2="4380.2" y2="6" gradientUnits="userSpaceOnUse">
<stop stop-color="#0052CC"/>
<stop offset="1" stop-color="#2684FF"/>
</linearGradient>
</defs>
</svg>
