<svg width="56" height="56" viewBox="0 0 56 56" fill="none" xmlns="http://www.w3.org/2000/svg">
<rect width="56" height="56" rx="8.4" fill="url(#paint0_linear_1_62)"/>
<rect x="1.05" y="1.05" width="53.9" height="53.9" rx="7.35" stroke="white" stroke-opacity="0.15" stroke-width="2.1"/>
<g filter="url(#filter0_d_1_62)">
<path fill-rule="evenodd" clip-rule="evenodd" d="M43.2515 8H12.7549C10.1314 8 8.00361 10.1263 8.00004 12.7515V43.2228C7.99497 44.488 8.49367 45.7032 9.38593 46.5996C10.2782 47.4961 11.4905 48 12.7549 48H43.2515C44.5148 47.9983 45.7255 47.4936 46.6163 46.5974C47.5072 45.7011 48.005 44.4869 48 43.2228V12.7515C47.9964 10.1288 45.8725 8.00353 43.2515 8ZM25.2509 36.8105C25.2492 37.2334 25.0793 37.6382 24.7786 37.9354C24.478 38.2326 24.0714 38.3978 23.6488 38.3944H16.9843C16.1127 38.3908 15.4079 37.6827 15.4079 36.8105V16.9644C15.4079 16.0922 16.1127 15.3841 16.9843 15.3806H23.6488C24.5216 15.3841 25.2282 16.0911 25.2317 16.9644L25.2509 36.8105ZM40.6305 27.6986C40.6305 28.122 40.4612 28.5278 40.1601 28.8254C39.8591 29.123 39.4516 29.2876 39.0285 29.2826H32.364C31.4913 29.2789 30.7847 28.5719 30.7811 27.6986V16.9644C30.7847 16.0911 31.4913 15.3841 32.364 15.3806H39.0285C39.9001 15.3841 40.6049 16.0922 40.6049 16.9644L40.6305 27.6986Z" fill="url(#paint1_linear_1_62)"/>
</g>
<defs>
<filter id="filter0_d_1_62" x="2.28571" y="2.28571" width="51.4286" height="51.4286" filterUnits="userSpaceOnUse" color-interpolation-filters="sRGB">
<feFlood flood-opacity="0" result="BackgroundImageFix"/>
<feColorMatrix in="SourceAlpha" type="matrix" values="0 0 0 0 0 0 0 0 0 0 0 0 0 0 0 0 0 0 127 0" result="hardAlpha"/>
<feOffset/>
<feGaussianBlur stdDeviation="2.85714"/>
<feComposite in2="hardAlpha" operator="out"/>
<feColorMatrix type="matrix" values="0 0 0 0 0 0 0 0 0 0 0 0 0 0 0 0 0 0 0.25 0"/>
<feBlend mode="normal" in2="BackgroundImageFix" result="effect1_dropShadow_1_62"/>
<feBlend mode="normal" in="SourceGraphic" in2="effect1_dropShadow_1_62" result="shape"/>
</filter>
<linearGradient id="paint0_linear_1_62" x1="28" y1="0" x2="28" y2="56" gradientUnits="userSpaceOnUse">
<stop stop-color="#003C8B"/>
<stop offset="1" stop-color="#001531"/>
</linearGradient>
<linearGradient id="paint1_linear_1_62" x1="6254" y1="2568" x2="6254" y2="8" gradientUnits="userSpaceOnUse">
<stop stop-color="#0052CC"/>
<stop offset="1" stop-color="#2684FF"/>
</linearGradient>
</defs>
</svg>
