<svg width="140" height="56" viewBox="0 0 140 56" fill="none" xmlns="http://www.w3.org/2000/svg">
<rect width="140" height="56" rx="8" fill="url(#paint0_linear_1_50)"/>
<rect x="1.05" y="1.05" width="137.9" height="53.9" rx="6.95" stroke="white" stroke-opacity="0.15" stroke-width="2.1"/>
<g filter="url(#filter0_d_1_50)">
<path fill-rule="evenodd" clip-rule="evenodd" d="M47.2515 8H16.7549C14.1314 8 12.0036 10.1263 12 12.7515V43.2228C11.995 44.488 12.4937 45.7032 13.3859 46.5996C14.2782 47.4961 15.4905 48 16.7549 48H47.2515C48.5148 47.9983 49.7255 47.4936 50.6163 46.5974C51.5072 45.7011 52.005 44.4869 52 43.2228V12.7515C51.9964 10.1288 49.8725 8.00353 47.2515 8ZM29.2509 36.8105C29.2492 37.2334 29.0793 37.6382 28.7786 37.9354C28.478 38.2326 28.0714 38.3978 27.6488 38.3944H20.9843C20.1127 38.3908 19.4079 37.6827 19.4079 36.8105V16.9644C19.4079 16.0922 20.1127 15.3841 20.9843 15.3806H27.6488C28.5216 15.3841 29.2282 16.0911 29.2317 16.9644L29.2509 36.8105ZM44.6305 27.6986C44.6305 28.122 44.4612 28.5278 44.1601 28.8254C43.8591 29.123 43.4516 29.2876 43.0285 29.2826H36.364C35.4913 29.2789 34.7847 28.5719 34.7811 27.6986V16.9644C34.7847 16.0911 35.4913 15.3841 36.364 15.3806H43.0285C43.9001 15.3841 44.6049 16.0922 44.6049 16.9644L44.6305 27.6986Z" fill="url(#paint1_linear_1_50)"/>
</g>
<g filter="url(#filter1_d_1_50)">
<path d="M62.2954 12.8636L65.5341 22.3409H65.6648L68.9034 12.8636H70.8011L66.6136 24.5H64.5852L60.3977 12.8636H62.2954ZM72.3452 24.5V15.7727H74.044V24.5H72.3452ZM73.2031 14.4261C72.9077 14.4261 72.6539 14.3276 72.4417 14.1307C72.2334 13.9299 72.1292 13.6913 72.1292 13.4148C72.1292 13.1345 72.2334 12.8958 72.4417 12.6989C72.6539 12.4981 72.9077 12.3977 73.2031 12.3977C73.4986 12.3977 73.7505 12.4981 73.9588 12.6989C74.1709 12.8958 74.277 13.1345 74.277 13.4148C74.277 13.6913 74.1709 13.9299 73.9588 14.1307C73.7505 14.3276 73.4986 14.4261 73.2031 14.4261ZM80.0909 24.6761C79.231 24.6761 78.4905 24.4924 77.8693 24.125C77.2519 23.7538 76.7746 23.2329 76.4375 22.5625C76.1041 21.8883 75.9375 21.0985 75.9375 20.1932C75.9375 19.2992 76.1041 18.5114 76.4375 17.8295C76.7746 17.1477 77.2443 16.6155 77.8466 16.2329C78.4526 15.8504 79.161 15.6591 79.9716 15.6591C80.464 15.6591 80.9413 15.7405 81.4034 15.9034C81.8655 16.0663 82.2803 16.322 82.6477 16.6704C83.0151 17.0189 83.3049 17.4716 83.517 18.0284C83.7291 18.5814 83.8352 19.2538 83.8352 20.0454V20.6477H76.8977V19.375H82.1704C82.1704 18.928 82.0795 18.5322 81.8977 18.1875C81.7159 17.839 81.4602 17.5644 81.1307 17.3636C80.8049 17.1629 80.4223 17.0625 79.9829 17.0625C79.5057 17.0625 79.089 17.1799 78.7329 17.4148C78.3807 17.6458 78.1079 17.9489 77.9148 18.3239C77.7254 18.6951 77.6307 19.0985 77.6307 19.5341V20.5284C77.6307 21.1117 77.7329 21.6079 77.9375 22.017C78.1458 22.4261 78.4356 22.7386 78.8068 22.9545C79.178 23.1667 79.6117 23.2727 80.1079 23.2727C80.4299 23.2727 80.7235 23.2273 80.9886 23.1364C81.2538 23.0417 81.4829 22.9015 81.6761 22.7159C81.8693 22.5303 82.017 22.3011 82.1193 22.0284L83.7273 22.3182C83.5985 22.7917 83.3674 23.2064 83.0341 23.5625C82.7045 23.9148 82.2898 24.1894 81.7898 24.3864C81.2935 24.5795 80.7273 24.6761 80.0909 24.6761ZM87.5966 24.5L85.0284 15.7727H86.7841L88.4943 22.1818H88.5795L90.2954 15.7727H92.0511L93.7557 22.1534H93.8409L95.5397 15.7727H97.2954L94.7329 24.5H93L91.2272 18.1989H91.0966L89.3238 24.5H87.5966ZM107.216 15.7727V17.1364H102.449V15.7727H107.216ZM103.727 13.6818H105.426V21.9375C105.426 22.267 105.475 22.5151 105.574 22.6818C105.672 22.8447 105.799 22.9564 105.955 23.017C106.114 23.0739 106.286 23.1023 106.472 23.1023C106.608 23.1023 106.727 23.0928 106.83 23.0739C106.932 23.0549 107.011 23.0398 107.068 23.0284L107.375 24.4318C107.276 24.4697 107.136 24.5076 106.955 24.5454C106.773 24.5871 106.545 24.6098 106.273 24.6136C105.826 24.6212 105.409 24.5417 105.023 24.375C104.636 24.2083 104.324 23.9508 104.085 23.6023C103.847 23.2538 103.727 22.8163 103.727 22.2898V13.6818ZM110.982 19.3182V24.5H109.283V12.8636H110.959V17.1932H111.067C111.271 16.7235 111.584 16.3504 112.004 16.0739C112.425 15.7973 112.974 15.6591 113.652 15.6591C114.25 15.6591 114.773 15.7822 115.22 16.0284C115.671 16.2746 116.019 16.642 116.266 17.1307C116.516 17.6155 116.641 18.2216 116.641 18.9489V24.5H114.942V19.1534C114.942 18.5133 114.777 18.017 114.447 17.6648C114.118 17.3087 113.66 17.1307 113.072 17.1307C112.671 17.1307 112.311 17.2159 111.993 17.3864C111.678 17.5568 111.43 17.8068 111.249 18.1364C111.071 18.4621 110.982 18.8561 110.982 19.3182ZM122.669 24.6761C121.809 24.6761 121.069 24.4924 120.447 24.125C119.83 23.7538 119.353 23.2329 119.016 22.5625C118.682 21.8883 118.516 21.0985 118.516 20.1932C118.516 19.2992 118.682 18.5114 119.016 17.8295C119.353 17.1477 119.822 16.6155 120.425 16.2329C121.031 15.8504 121.739 15.6591 122.55 15.6591C123.042 15.6591 123.519 15.7405 123.982 15.9034C124.444 16.0663 124.858 16.322 125.226 16.6704C125.593 17.0189 125.883 17.4716 126.095 18.0284C126.307 18.5814 126.413 19.2538 126.413 20.0454V20.6477H119.476V19.375H124.749C124.749 18.928 124.658 18.5322 124.476 18.1875C124.294 17.839 124.038 17.5644 123.709 17.3636C123.383 17.1629 123 17.0625 122.561 17.0625C122.084 17.0625 121.667 17.1799 121.311 17.4148C120.959 17.6458 120.686 17.9489 120.493 18.3239C120.303 18.6951 120.209 19.0985 120.209 19.5341V20.5284C120.209 21.1117 120.311 21.6079 120.516 22.017C120.724 22.4261 121.014 22.7386 121.385 22.9545C121.756 23.1667 122.19 23.2727 122.686 23.2727C123.008 23.2727 123.302 23.2273 123.567 23.1364C123.832 23.0417 124.061 22.9015 124.254 22.7159C124.447 22.5303 124.595 22.3011 124.697 22.0284L126.305 22.3182C126.177 22.7917 125.946 23.2064 125.612 23.5625C125.283 23.9148 124.868 24.1894 124.368 24.3864C123.872 24.5795 123.305 24.6761 122.669 24.6761Z" fill="#E8E8E8"/>
<path d="M60.5312 33.5632V31.1364H70.9812V33.5632H67.2322V43.5H64.2862V33.5632H60.5312ZM71.4777 43.5V34.2273H74.3452V35.9176H74.4418C74.6109 35.3059 74.8866 34.8511 75.2689 34.5533C75.6512 34.2514 76.0959 34.1005 76.6031 34.1005C76.7399 34.1005 76.8808 34.1105 77.0256 34.1307C77.1705 34.1468 77.3053 34.1729 77.4301 34.2092V36.7748C77.2892 36.7266 77.1041 36.6883 76.8747 36.6601C76.6493 36.632 76.4481 36.6179 76.271 36.6179C75.9209 36.6179 75.6049 36.6964 75.3232 36.8533C75.0455 37.0063 74.8262 37.2216 74.6652 37.4993C74.5082 37.773 74.4298 38.0949 74.4298 38.4652V43.5H71.4777ZM82.486 43.6751C81.5161 43.6751 80.679 43.4839 79.9747 43.1016C79.2744 42.7152 78.7351 42.1658 78.3568 41.4535C77.9825 40.7371 77.7953 39.8859 77.7953 38.8998C77.7953 37.942 77.9845 37.1049 78.3628 36.3885C78.7411 35.6681 79.2744 35.1087 79.9626 34.7102C80.6508 34.3078 81.4618 34.1065 82.3955 34.1065C83.0555 34.1065 83.6592 34.2092 84.2066 34.4144C84.7539 34.6197 85.2268 34.9235 85.6252 35.326C86.0237 35.7284 86.3336 36.2255 86.5549 36.8171C86.7763 37.4047 86.887 38.0788 86.887 38.8395V39.576H78.8277V37.8615H84.1402C84.1361 37.5476 84.0617 37.2679 83.9168 37.0224C83.7719 36.7769 83.5727 36.5857 83.3191 36.4489C83.0696 36.308 82.7818 36.2376 82.4559 36.2376C82.1258 36.2376 81.83 36.312 81.5684 36.4609C81.3068 36.6058 81.0996 36.805 80.9466 37.0586C80.7937 37.3081 80.7132 37.5918 80.7051 37.9098V39.6545C80.7051 40.0328 80.7796 40.3648 80.9285 40.6506C81.0774 40.9323 81.2887 41.1516 81.5624 41.3086C81.8361 41.4655 82.1621 41.544 82.5404 41.544C82.802 41.544 83.0394 41.5078 83.2527 41.4354C83.466 41.3629 83.6492 41.2563 83.8021 41.1154C83.955 40.9745 84.0697 40.8015 84.1462 40.5962L86.8568 40.6747C86.7441 41.2824 86.4966 41.8117 86.1142 42.2624C85.7359 42.7092 85.2389 43.0573 84.6231 43.3068C84.0073 43.5523 83.295 43.6751 82.486 43.6751ZM91.3467 31.1364V43.5H88.3947V31.1364H91.3467ZM96.1778 31.1364V43.5H93.2257V31.1364H96.1778ZM102.385 43.6751C101.411 43.6751 100.574 43.4758 99.8739 43.0774C99.1776 42.6749 98.6404 42.1155 98.262 41.3991C97.8878 40.6787 97.7006 39.8436 97.7006 38.8938C97.7006 37.94 97.8878 37.1049 98.262 36.3885C98.6404 35.6681 99.1776 35.1087 99.8739 34.7102C100.574 34.3078 101.411 34.1065 102.385 34.1065C103.359 34.1065 104.194 34.3078 104.891 34.7102C105.591 35.1087 106.128 35.6681 106.502 36.3885C106.881 37.1049 107.07 37.94 107.07 38.8938C107.07 39.8436 106.881 40.6787 106.502 41.3991C106.128 42.1155 105.591 42.6749 104.891 43.0774C104.194 43.4758 103.359 43.6751 102.385 43.6751ZM102.403 41.4474C102.758 41.4474 103.057 41.3388 103.303 41.1214C103.548 40.9041 103.736 40.6023 103.864 40.2159C103.997 39.8295 104.064 39.3828 104.064 38.8757C104.064 38.3605 103.997 37.9098 103.864 37.5234C103.736 37.1371 103.548 36.8352 103.303 36.6179C103.057 36.4006 102.758 36.2919 102.403 36.2919C102.037 36.2919 101.727 36.4006 101.474 36.6179C101.224 36.8352 101.033 37.1371 100.9 37.5234C100.771 37.9098 100.707 38.3605 100.707 38.8757C100.707 39.3828 100.771 39.8295 100.9 40.2159C101.033 40.6023 101.224 40.9041 101.474 41.1214C101.727 41.3388 102.037 41.4474 102.403 41.4474Z" fill="#2684FF"/>
</g>
<defs>
<filter id="filter0_d_1_50" x="6.28571" y="2.28571" width="51.4286" height="51.4286" filterUnits="userSpaceOnUse" color-interpolation-filters="sRGB">
<feFlood flood-opacity="0" result="BackgroundImageFix"/>
<feColorMatrix in="SourceAlpha" type="matrix" values="0 0 0 0 0 0 0 0 0 0 0 0 0 0 0 0 0 0 127 0" result="hardAlpha"/>
<feOffset/>
<feGaussianBlur stdDeviation="2.85714"/>
<feComposite in2="hardAlpha" operator="out"/>
<feColorMatrix type="matrix" values="0 0 0 0 0 0 0 0 0 0 0 0 0 0 0 0 0 0 0.25 0"/>
<feBlend mode="normal" in2="BackgroundImageFix" result="effect1_dropShadow_1_50"/>
<feBlend mode="normal" in="SourceGraphic" in2="effect1_dropShadow_1_50" result="shape"/>
</filter>
<filter id="filter1_d_1_50" x="54.4" y="3.9" width="79.2" height="48.2" filterUnits="userSpaceOnUse" color-interpolation-filters="sRGB">
<feFlood flood-opacity="0" result="BackgroundImageFix"/>
<feColorMatrix in="SourceAlpha" type="matrix" values="0 0 0 0 0 0 0 0 0 0 0 0 0 0 0 0 0 0 127 0" result="hardAlpha"/>
<feOffset/>
<feGaussianBlur stdDeviation="2.8"/>
<feComposite in2="hardAlpha" operator="out"/>
<feColorMatrix type="matrix" values="0 0 0 0 0 0 0 0 0 0 0 0 0 0 0 0 0 0 0.25 0"/>
<feBlend mode="normal" in2="BackgroundImageFix" result="effect1_dropShadow_1_50"/>
<feBlend mode="normal" in="SourceGraphic" in2="effect1_dropShadow_1_50" result="shape"/>
</filter>
<linearGradient id="paint0_linear_1_50" x1="70" y1="0" x2="70" y2="56" gradientUnits="userSpaceOnUse">
<stop stop-color="#003C8B"/>
<stop offset="1" stop-color="#001531"/>
</linearGradient>
<linearGradient id="paint1_linear_1_50" x1="6258" y1="2568" x2="6258" y2="8" gradientUnits="userSpaceOnUse">
<stop stop-color="#0052CC"/>
<stop offset="1" stop-color="#2684FF"/>
</linearGradient>
</defs>
</svg>
