<svg width="143" height="56" viewBox="0 0 143 56" fill="none" xmlns="http://www.w3.org/2000/svg">
<rect width="143" height="56" rx="8" fill="url(#paint0_linear_1_50)"/>
<rect x="1.05" y="1.05" width="140.9" height="53.9" rx="6.95" stroke="white" stroke-opacity="0.15" stroke-width="2.1"/>
<g filter="url(#filter0_d_1_50)">
<path d="M47.7418 20.7481C47.6608 20.662 47.5747 20.5759 47.4886 20.4949C47.4025 20.4139 47.3215 20.3228 47.2354 20.2418C47.1494 20.1608 47.0683 20.0696 46.9823 19.9886C46.8962 19.9076 46.8152 19.8165 46.7291 19.7354C46.643 19.6544 46.562 19.5633 46.4759 19.4823C46.3899 19.4013 46.3089 19.3101 46.2228 19.2291C46.1367 19.1481 46.0557 19.057 45.9696 18.9759C48.4811 21.4442 49.9199 24.8019 49.9747 28.3228C49.9747 36.7127 41.4582 43.538 30.9873 43.538C25.124 43.538 19.8785 41.3962 16.3899 38.0392L16.643 38.2924L16.8962 38.5456L17.1494 38.7987L17.4025 39.0519L17.6557 39.3051L17.9089 39.5582L18.162 39.8114C21.6456 43.3101 27.0076 45.5633 33.0127 45.5633C43.4835 45.5633 52 38.738 52 30.3734C52 26.7987 50.4608 23.4114 47.7418 20.7481Z" fill="black"/>
<path d="M48.7089 28.3228C48.7089 36.024 40.7747 42.2671 30.9873 42.2671C21.2 42.2671 13.2658 36.024 13.2658 28.3228C13.2658 23.5481 16.3038 19.3304 20.9722 16.8291C25.6405 14.3278 28.5468 11.7658 30.9873 11.7658C33.4279 11.7658 35.5139 13.857 41.0025 16.8291C45.6709 19.3304 48.7089 23.5481 48.7089 28.3228Z" fill="#FBF0DF"/>
<path d="M48.7089 28.3228C48.7064 27.3335 48.5701 26.349 48.3038 25.3962C46.9215 42.257 26.3544 43.0671 18.2684 38.024C21.9033 40.8415 26.3889 42.3378 30.9873 42.2671C40.7595 42.2671 48.7089 36.0139 48.7089 28.3228Z" fill="#F6DECE"/>
<path d="M24.1671 15.9025C26.4304 14.5456 29.438 11.9987 32.3949 11.9937C31.94 11.8466 31.4654 11.7698 30.9873 11.7658C29.762 11.7658 28.4557 12.3987 26.8101 13.3506C26.238 13.6848 25.6456 14.0544 25.0177 14.4392C23.838 15.1684 22.4861 15.9937 20.9671 16.819C16.1468 19.4266 13.2658 23.7253 13.2658 28.3228C13.2658 28.5253 13.2658 28.7278 13.2658 28.9253C16.3342 18.0848 21.9089 17.2595 24.1671 15.9025Z" fill="#FFFEFC"/>
<path fill-rule="evenodd" clip-rule="evenodd" d="M29.5291 13.0468C29.5362 14.2424 29.2852 15.4254 28.7932 16.5151C28.3013 17.6047 27.5799 18.5754 26.6785 19.3608C26.5367 19.4873 26.6481 19.7304 26.8304 19.6595C28.5367 18.9962 30.8405 17.0114 29.8684 13.0063C29.8278 12.7785 29.5291 12.8392 29.5291 13.0468ZM30.6785 13.0468C31.298 14.0577 31.6916 15.1906 31.8323 16.3678C31.973 17.545 31.8575 18.7387 31.4937 19.8671C31.4329 20.0443 31.6506 20.1962 31.7722 20.0494C32.881 18.6316 33.8481 15.8165 30.9519 12.7785C30.8051 12.6468 30.5772 12.8494 30.6785 13.0266V13.0468ZM32.076 12.9608C33.0461 13.6476 33.8578 14.5345 34.4561 15.5617C35.0544 16.5889 35.4255 17.7324 35.5443 18.9152C35.5392 18.9578 35.5507 19.0008 35.5763 19.0352C35.602 19.0695 35.64 19.0927 35.6823 19.0999C35.7246 19.1071 35.7681 19.0977 35.8037 19.0736C35.8393 19.0496 35.8642 19.0128 35.8734 18.9709C36.3392 17.2038 36.0759 14.1911 32.243 12.6266C32.0405 12.5456 31.9089 12.819 32.076 12.9405V12.9608ZM22.7291 18.2266C23.8832 17.8818 24.9517 17.2978 25.8651 16.5127C26.7785 15.7275 27.5162 14.7588 28.0304 13.6696C28.1215 13.4873 28.4101 13.5582 28.3646 13.7608C27.4886 17.8114 24.557 18.657 22.7342 18.5456C22.5418 18.5506 22.5468 18.2823 22.7291 18.2266Z" fill="#CCBEA7"/>
<path d="M30.9873 43.538C20.5165 43.538 12 36.7127 12 28.3228C12 23.2595 15.1291 18.5354 20.3696 15.7051C21.8886 14.8949 23.1899 14.0797 24.3494 13.3658C24.9873 12.9709 25.5899 12.6013 26.1722 12.257C27.9494 11.2038 29.4684 10.5 30.9873 10.5C32.5063 10.5 33.8329 11.1076 35.4937 12.0899C36 12.3785 36.5063 12.6924 37.0481 13.0367C38.3089 13.8165 39.7316 14.6975 41.6051 15.7051C46.8456 18.5354 49.9747 23.2544 49.9747 28.3228C49.9747 36.7127 41.4582 43.538 30.9873 43.538ZM30.9873 11.7658C29.762 11.7658 28.4557 12.3987 26.8101 13.3506C26.238 13.6848 25.6456 14.0544 25.0177 14.4392C23.838 15.1684 22.4861 15.9937 20.9671 16.819C16.1468 19.4266 13.2658 23.7253 13.2658 28.3228C13.2658 36.0139 21.2152 42.2722 30.9873 42.2722C40.7595 42.2722 48.7089 36.0139 48.7089 28.3228C48.7089 23.7253 45.8278 19.4266 41.0025 16.8291C39.0886 15.8165 37.5949 14.8646 36.3848 14.1152C35.8329 13.7759 35.3266 13.462 34.8658 13.1835C33.3316 12.2722 32.2127 11.7658 30.9873 11.7658Z" fill="black"/>
<path d="M34.557 32.019C34.3295 32.9506 33.8117 33.7858 33.0785 34.4038C32.528 34.9374 31.8153 35.2724 31.0532 35.3557C30.2681 35.2856 29.5304 34.9498 28.962 34.4038C28.2363 33.7828 27.7258 32.948 27.5038 32.019C27.4964 31.9638 27.5018 31.9077 27.5195 31.855C27.5372 31.8022 27.5667 31.7542 27.6058 31.7146C27.6449 31.675 27.6925 31.6449 27.7451 31.6266C27.7976 31.6083 27.8536 31.6022 27.9089 31.6089H34.157C34.2118 31.603 34.2673 31.6097 34.3191 31.6284C34.371 31.6471 34.418 31.6774 34.4565 31.7168C34.495 31.7563 34.5241 31.804 34.5415 31.8564C34.5589 31.9087 34.5642 31.9643 34.557 32.019Z" fill="#B71422"/>
<path d="M28.962 34.4443C29.5293 34.9906 30.2643 35.3296 31.0481 35.4063C31.8301 35.3285 32.5632 34.9896 33.1291 34.4443C33.3101 34.2756 33.4793 34.0946 33.6354 33.9025C33.3235 33.5487 32.9425 33.2624 32.5158 33.0612C32.0892 32.8601 31.6259 32.7484 31.1544 32.7329C30.65 32.7449 30.156 32.8792 29.715 33.1244C29.274 33.3696 28.8991 33.7183 28.6228 34.1405C28.7392 34.2468 28.8405 34.3481 28.962 34.4443Z" fill="#FF6164"/>
<path d="M29.043 34.0443C29.2941 33.7198 29.6154 33.4565 29.9828 33.2741C30.3503 33.0917 30.7543 32.9949 31.1645 32.9911C31.9228 33.0135 32.6453 33.3187 33.1899 33.8468C33.3063 33.7203 33.4177 33.5886 33.524 33.457C32.8799 32.8435 32.0286 32.4947 31.1392 32.4797C30.6639 32.4838 30.1954 32.5931 29.7673 32.7997C29.3393 33.0063 28.9622 33.3051 28.6633 33.6747C28.783 33.8048 28.9098 33.9281 29.043 34.0443Z" fill="black"/>
<path d="M31.0329 35.6595C30.1892 35.5856 29.3952 35.2287 28.7797 34.6468C27.996 33.9839 27.4443 33.0881 27.2051 32.0899C27.1879 32.001 27.1908 31.9094 27.2136 31.8218C27.2364 31.7342 27.2784 31.6528 27.3367 31.5835C27.4061 31.4998 27.4937 31.4329 27.5929 31.3882C27.692 31.3434 27.8001 31.3219 27.9089 31.3253H34.157C34.2655 31.323 34.3733 31.345 34.4722 31.3897C34.5712 31.4344 34.659 31.5006 34.7291 31.5835C34.7868 31.6531 34.8282 31.7347 34.8501 31.8223C34.872 31.9099 34.8739 32.0014 34.8557 32.0899C34.6165 33.0881 34.0648 33.9839 33.281 34.6468C32.6669 35.2277 31.8749 35.5845 31.0329 35.6595ZM27.9089 31.9127C27.8278 31.9127 27.8076 31.9481 27.8025 31.9582C28.0166 32.8239 28.5007 33.5989 29.1848 34.1709C29.685 34.6637 30.3354 34.9755 31.0329 35.057C31.7286 34.9765 32.3782 34.6686 32.881 34.181C33.563 33.608 34.0452 32.8332 34.2582 31.9684C34.2472 31.9522 34.2319 31.9393 34.214 31.9313C34.1961 31.9233 34.1764 31.9203 34.157 31.9228L27.9089 31.9127Z" fill="black"/>
<path d="M38.6937 32.3329C40.3296 32.3329 41.6557 31.5531 41.6557 30.5911C41.6557 29.6292 40.3296 28.8494 38.6937 28.8494C37.0578 28.8494 35.7317 29.6292 35.7317 30.5911C35.7317 31.5531 37.0578 32.3329 38.6937 32.3329Z" fill="#FEBBD0"/>
<path d="M23.3671 32.3329C25.003 32.3329 26.3291 31.5531 26.3291 30.5911C26.3291 29.6292 25.003 28.8494 23.3671 28.8494C21.7312 28.8494 20.4051 29.6292 20.4051 30.5911C20.4051 31.5531 21.7312 32.3329 23.3671 32.3329Z" fill="#FEBBD0"/>
<path fill-rule="evenodd" clip-rule="evenodd" d="M24.7595 29.8924C25.3115 29.8934 25.8514 29.7306 26.3109 29.4247C26.7703 29.1187 27.1287 28.6834 27.3406 28.1737C27.5526 27.664 27.6085 27.1029 27.5014 26.5614C27.3944 26.0198 27.1291 25.5223 26.7391 25.1316C26.3491 24.7409 25.852 24.4747 25.3107 24.3666C24.7694 24.2586 24.2082 24.3135 23.6981 24.5245C23.188 24.7356 22.752 25.0931 22.4452 25.552C22.1384 26.0109 21.9747 26.5505 21.9747 27.1025C21.9747 27.8416 22.2679 28.5504 22.79 29.0735C23.3121 29.5965 24.0205 29.8911 24.7595 29.8924ZM37.3013 29.8924C37.8539 29.8964 38.3953 29.7362 38.8567 29.4321C39.3182 29.128 39.6789 28.6937 39.8932 28.1843C40.1074 27.6749 40.1656 27.1133 40.0602 26.5708C39.9549 26.0283 39.6908 25.5293 39.3014 25.1371C38.9121 24.7449 38.415 24.4771 37.8733 24.3678C37.3316 24.2585 36.7696 24.3126 36.2586 24.5231C35.7477 24.7337 35.3107 25.0913 35.0033 25.5505C34.6958 26.0097 34.5317 26.5499 34.5317 27.1025C34.5303 27.8394 34.821 28.5467 35.3401 29.0696C35.8593 29.5925 36.5645 29.8884 37.3013 29.8924Z" fill="black"/>
<path fill-rule="evenodd" clip-rule="evenodd" d="M23.8987 27.2797C24.1062 27.2807 24.3094 27.2201 24.4824 27.1056C24.6554 26.991 24.7906 26.8277 24.8707 26.6363C24.9508 26.4448 24.9722 26.2339 24.9324 26.0303C24.8925 25.8266 24.7931 25.6394 24.6467 25.4923C24.5003 25.3452 24.3136 25.2449 24.1101 25.2041C23.9067 25.1632 23.6957 25.1837 23.5039 25.2629C23.3121 25.342 23.1481 25.4764 23.0327 25.6488C22.9173 25.8213 22.8557 26.0241 22.8557 26.2316C22.8557 26.5087 22.9654 26.7746 23.1609 26.971C23.3564 27.1674 23.6216 27.2784 23.8987 27.2797ZM36.4405 27.2797C36.648 27.2807 36.8511 27.2201 37.0242 27.1056C37.1972 26.991 37.3323 26.8277 37.4124 26.6363C37.4925 26.4448 37.514 26.2339 37.4741 26.0303C37.4343 25.8266 37.3349 25.6394 37.1885 25.4923C37.0421 25.3452 36.8554 25.2449 36.6519 25.2041C36.4485 25.1632 36.2375 25.1837 36.0457 25.2629C35.8538 25.342 35.6899 25.4764 35.5745 25.6488C35.4591 25.8213 35.3975 26.0241 35.3975 26.2316C35.3974 26.507 35.5058 26.7713 35.6991 26.9674C35.8923 27.1636 36.155 27.2758 36.4304 27.2797H36.4405Z" fill="white"/>
</g>
<g filter="url(#filter1_d_1_50)">
<path d="M67.625 15.9204C67.5644 15.3826 67.3144 14.9659 66.875 14.6704C66.4356 14.3712 65.8826 14.2216 65.2159 14.2216C64.7386 14.2216 64.3257 14.2973 63.9773 14.4489C63.6288 14.5966 63.3579 14.8011 63.1648 15.0625C62.9754 15.3201 62.8807 15.6136 62.8807 15.9432C62.8807 16.2197 62.9451 16.4583 63.0738 16.6591C63.2064 16.8598 63.3788 17.0284 63.5909 17.1648C63.8068 17.2973 64.0379 17.4091 64.2841 17.5C64.5303 17.5871 64.767 17.6591 64.9943 17.7159L66.1307 18.0114C66.5019 18.1023 66.8826 18.2254 67.2727 18.3807C67.6629 18.536 68.0246 18.7405 68.3579 18.9943C68.6913 19.2481 68.9602 19.5625 69.1648 19.9375C69.3731 20.3125 69.4773 20.7614 69.4773 21.2841C69.4773 21.9432 69.3068 22.5284 68.9659 23.0398C68.6288 23.5511 68.1382 23.9545 67.4943 24.25C66.8541 24.5454 66.0795 24.6932 65.1704 24.6932C64.2992 24.6932 63.5454 24.5549 62.9091 24.2784C62.2727 24.0019 61.7746 23.6098 61.4148 23.1023C61.0549 22.5909 60.856 21.9848 60.8182 21.2841H62.5795C62.6136 21.7045 62.75 22.0549 62.9886 22.3352C63.231 22.6117 63.5398 22.8182 63.9148 22.9545C64.2935 23.0871 64.7083 23.1534 65.1591 23.1534C65.6553 23.1534 66.0966 23.0758 66.4829 22.9204C66.8731 22.7614 67.1799 22.5417 67.4034 22.2614C67.6269 21.9773 67.7386 21.6458 67.7386 21.267C67.7386 20.9223 67.6401 20.6401 67.4432 20.4204C67.25 20.2008 66.9867 20.0189 66.6534 19.875C66.3238 19.7311 65.9507 19.6042 65.5341 19.4943L64.1591 19.1193C63.2273 18.8655 62.4886 18.4924 61.9432 18C61.4015 17.5076 61.1307 16.8561 61.1307 16.0454C61.1307 15.375 61.3125 14.7898 61.6761 14.2898C62.0398 13.7898 62.5322 13.4015 63.1534 13.125C63.7746 12.8447 64.4754 12.7045 65.2557 12.7045C66.0435 12.7045 66.7386 12.8428 67.3409 13.1193C67.947 13.3958 68.4242 13.7765 68.7727 14.2614C69.1212 14.7424 69.303 15.2954 69.3182 15.9204H67.625ZM76.9673 20.8807V15.7727H78.6719V24.5H77.0014V22.9886H76.9105C76.7097 23.4545 76.3878 23.8428 75.9446 24.1534C75.5052 24.4602 74.9578 24.6136 74.3025 24.6136C73.7419 24.6136 73.2457 24.4905 72.8139 24.2443C72.3859 23.9943 72.0488 23.625 71.8025 23.1364C71.5601 22.6477 71.4389 22.0436 71.4389 21.3239V15.7727H73.1378V21.1193C73.1378 21.714 73.3025 22.1875 73.6321 22.5398C73.9616 22.892 74.3897 23.0682 74.9162 23.0682C75.2344 23.0682 75.5506 22.9886 75.865 22.8295C76.1832 22.6704 76.4465 22.4299 76.6548 22.1079C76.8669 21.786 76.9711 21.3769 76.9673 20.8807ZM80.9545 27.7727V15.7727H82.6136V17.1875H82.7557C82.8541 17.0057 82.9962 16.7954 83.1818 16.5568C83.3674 16.3182 83.625 16.1098 83.9545 15.9318C84.2841 15.75 84.7197 15.6591 85.2613 15.6591C85.9659 15.6591 86.5947 15.8371 87.1477 16.1932C87.7007 16.5492 88.1344 17.0625 88.4488 17.7329C88.767 18.4034 88.9261 19.2102 88.9261 20.1534C88.9261 21.0966 88.7689 21.9053 88.4545 22.5795C88.1401 23.25 87.7083 23.767 87.1591 24.1307C86.6098 24.4905 85.9829 24.6704 85.2784 24.6704C84.7481 24.6704 84.3144 24.5814 83.9773 24.4034C83.6439 24.2254 83.3826 24.017 83.1932 23.7784C83.0038 23.5398 82.8579 23.3276 82.7557 23.142H82.6534V27.7727H80.9545ZM82.6193 20.1364C82.6193 20.75 82.7083 21.2879 82.8863 21.75C83.0644 22.2121 83.3219 22.5739 83.6591 22.8352C83.9962 23.0928 84.4091 23.2216 84.8977 23.2216C85.4053 23.2216 85.8295 23.0871 86.1704 22.8182C86.5113 22.5454 86.7689 22.1761 86.9432 21.7102C87.1212 21.2443 87.2102 20.7197 87.2102 20.1364C87.2102 19.5606 87.1231 19.0436 86.9488 18.5852C86.7784 18.1269 86.5208 17.7651 86.1761 17.5C85.8352 17.2348 85.4091 17.1023 84.8977 17.1023C84.4053 17.1023 83.9886 17.2292 83.6477 17.4829C83.3106 17.7367 83.0549 18.0909 82.8807 18.5454C82.7064 19 82.6193 19.5303 82.6193 20.1364ZM90.8295 27.7727V15.7727H92.4886V17.1875H92.6307C92.7291 17.0057 92.8712 16.7954 93.0568 16.5568C93.2424 16.3182 93.5 16.1098 93.8295 15.9318C94.1591 15.75 94.5947 15.6591 95.1363 15.6591C95.8409 15.6591 96.4697 15.8371 97.0227 16.1932C97.5757 16.5492 98.0094 17.0625 98.3238 17.7329C98.642 18.4034 98.8011 19.2102 98.8011 20.1534C98.8011 21.0966 98.6439 21.9053 98.3295 22.5795C98.0151 23.25 97.5833 23.767 97.0341 24.1307C96.4848 24.4905 95.8579 24.6704 95.1534 24.6704C94.6231 24.6704 94.1894 24.5814 93.8522 24.4034C93.5189 24.2254 93.2576 24.017 93.0682 23.7784C92.8788 23.5398 92.7329 23.3276 92.6307 23.142H92.5284V27.7727H90.8295ZM92.4943 20.1364C92.4943 20.75 92.5833 21.2879 92.7613 21.75C92.9394 22.2121 93.1969 22.5739 93.5341 22.8352C93.8712 23.0928 94.2841 23.2216 94.7727 23.2216C95.2803 23.2216 95.7045 23.0871 96.0454 22.8182C96.3863 22.5454 96.6439 22.1761 96.8182 21.7102C96.9962 21.2443 97.0852 20.7197 97.0852 20.1364C97.0852 19.5606 96.9981 19.0436 96.8238 18.5852C96.6534 18.1269 96.3958 17.7651 96.0511 17.5C95.7102 17.2348 95.2841 17.1023 94.7727 17.1023C94.2803 17.1023 93.8636 17.2292 93.5227 17.4829C93.1856 17.7367 92.9299 18.0909 92.7557 18.5454C92.5814 19 92.4943 19.5303 92.4943 20.1364ZM104.381 24.6761C103.562 24.6761 102.848 24.4886 102.239 24.1136C101.629 23.7386 101.155 23.214 100.818 22.5398C100.481 21.8655 100.312 21.0776 100.312 20.1761C100.312 19.2708 100.481 18.4792 100.818 17.8011C101.155 17.1231 101.629 16.5966 102.239 16.2216C102.848 15.8466 103.562 15.6591 104.381 15.6591C105.199 15.6591 105.913 15.8466 106.523 16.2216C107.133 16.5966 107.606 17.1231 107.943 17.8011C108.28 18.4792 108.449 19.2708 108.449 20.1761C108.449 21.0776 108.28 21.8655 107.943 22.5398C107.606 23.214 107.133 23.7386 106.523 24.1136C105.913 24.4886 105.199 24.6761 104.381 24.6761ZM104.386 23.25C104.917 23.25 105.356 23.1098 105.705 22.8295C106.053 22.5492 106.311 22.1761 106.477 21.7102C106.648 21.2443 106.733 20.7311 106.733 20.1704C106.733 19.6136 106.648 19.1023 106.477 18.6364C106.311 18.1667 106.053 17.7898 105.705 17.5057C105.356 17.2216 104.917 17.0795 104.386 17.0795C103.852 17.0795 103.409 17.2216 103.057 17.5057C102.708 17.7898 102.449 18.1667 102.278 18.6364C102.112 19.1023 102.028 19.6136 102.028 20.1704C102.028 20.7311 102.112 21.2443 102.278 21.7102C102.449 22.1761 102.708 22.5492 103.057 22.8295C103.409 23.1098 103.852 23.25 104.386 23.25ZM110.345 24.5V15.7727H111.987V17.1591H112.078C112.237 16.6894 112.517 16.3201 112.919 16.0511C113.324 15.7784 113.783 15.642 114.294 15.642C114.4 15.642 114.525 15.6458 114.669 15.6534C114.817 15.661 114.932 15.6704 115.016 15.6818V17.3068C114.947 17.2879 114.826 17.267 114.652 17.2443C114.478 17.2178 114.303 17.2045 114.129 17.2045C113.728 17.2045 113.37 17.2898 113.055 17.4602C112.745 17.6269 112.499 17.8598 112.317 18.1591C112.135 18.4545 112.044 18.7917 112.044 19.1704V24.5H110.345ZM121.075 15.7727V17.1364H116.308V15.7727H121.075ZM117.587 13.6818H119.285V21.9375C119.285 22.267 119.335 22.5151 119.433 22.6818C119.532 22.8447 119.659 22.9564 119.814 23.017C119.973 23.0739 120.145 23.1023 120.331 23.1023C120.467 23.1023 120.587 23.0928 120.689 23.0739C120.791 23.0549 120.871 23.0398 120.928 23.0284L121.234 24.4318C121.136 24.4697 120.996 24.5076 120.814 24.5454C120.632 24.5871 120.405 24.6098 120.132 24.6136C119.685 24.6212 119.268 24.5417 118.882 24.375C118.496 24.2083 118.183 23.9508 117.945 23.6023C117.706 23.2538 117.587 22.8163 117.587 22.2898V13.6818ZM129.354 17.9034L127.814 18.1761C127.749 17.9792 127.647 17.7917 127.507 17.6136C127.371 17.4356 127.185 17.2898 126.95 17.1761C126.715 17.0625 126.422 17.0057 126.07 17.0057C125.589 17.0057 125.187 17.1136 124.865 17.3295C124.543 17.5417 124.382 17.8163 124.382 18.1534C124.382 18.4451 124.49 18.6799 124.706 18.8579C124.922 19.036 125.27 19.1818 125.751 19.2954L127.138 19.6136C127.941 19.7992 128.539 20.0852 128.933 20.4716C129.327 20.8579 129.524 21.3598 129.524 21.9773C129.524 22.5 129.373 22.9659 129.07 23.375C128.77 23.7803 128.352 24.0985 127.814 24.3295C127.28 24.5606 126.66 24.6761 125.956 24.6761C124.979 24.6761 124.181 24.4678 123.564 24.0511C122.946 23.6307 122.568 23.0341 122.428 22.2614L124.07 22.0114C124.172 22.4394 124.382 22.7633 124.7 22.9829C125.018 23.1989 125.433 23.3068 125.945 23.3068C126.501 23.3068 126.946 23.1913 127.28 22.9602C127.613 22.7254 127.78 22.4394 127.78 22.1023C127.78 21.8295 127.678 21.6004 127.473 21.4148C127.272 21.2292 126.964 21.089 126.547 20.9943L125.07 20.6704C124.255 20.4848 123.653 20.1894 123.263 19.7841C122.876 19.3788 122.683 18.8655 122.683 18.2443C122.683 17.7292 122.827 17.2784 123.115 16.892C123.403 16.5057 123.801 16.2045 124.308 15.9886C124.816 15.7689 125.397 15.6591 126.053 15.6591C126.996 15.6591 127.738 15.8636 128.28 16.2727C128.821 16.678 129.179 17.2216 129.354 17.9034Z" fill="#E8E8E8"/>
<path d="M60.9357 43.5V31.1364H66.0912C67.0169 31.1364 67.7916 31.2672 68.4155 31.5288C69.0433 31.7904 69.5142 32.1566 69.8281 32.6275C70.1461 33.0984 70.305 33.6437 70.305 34.2635C70.305 34.7344 70.2064 35.1549 70.0092 35.5252C69.812 35.8914 69.5403 36.1953 69.1942 36.4368C68.8481 36.6783 68.4477 36.8473 67.9929 36.9439V37.0646C68.4919 37.0888 68.9528 37.2236 69.3753 37.4691C69.8019 37.7146 70.144 38.0567 70.4016 38.4954C70.6592 38.93 70.788 39.4452 70.788 40.0408C70.788 40.7049 70.6189 41.2985 70.2809 41.8217C69.9428 42.3409 69.4538 42.7514 68.8139 43.0533C68.174 43.3511 67.3972 43.5 66.4836 43.5H60.9357ZM63.924 41.0913H65.7713C66.4193 41.0913 66.8962 40.9685 67.202 40.723C67.5119 40.4775 67.6669 40.1354 67.6669 39.6967C67.6669 39.3788 67.5924 39.1051 67.4435 38.8757C67.2946 38.6423 67.0833 38.4632 66.8096 38.3384C66.536 38.2096 66.208 38.1452 65.8256 38.1452H63.924V41.0913ZM63.924 36.2195H65.5781C65.9041 36.2195 66.1939 36.1651 66.4474 36.0565C66.701 35.9478 66.8982 35.7908 67.039 35.5856C67.1839 35.3803 67.2564 35.1328 67.2564 34.843C67.2564 34.4285 67.1095 34.1025 66.8157 33.865C66.5219 33.6276 66.1255 33.5089 65.6264 33.5089H63.924V36.2195ZM78.2074 39.4975V34.2273H81.1534V43.5H78.3402V41.7734H78.2436C78.0383 42.3409 77.6882 42.7917 77.1932 43.1257C76.7022 43.4557 76.1085 43.6207 75.4123 43.6207C74.7804 43.6207 74.225 43.4758 73.7461 43.1861C73.2671 42.8963 72.8949 42.4918 72.6292 41.9726C72.3636 41.4494 72.2288 40.8377 72.2248 40.1374V34.2273H75.1768V39.5579C75.1809 40.061 75.3137 40.4574 75.5753 40.7471C75.8369 41.0369 76.193 41.1818 76.6438 41.1818C76.9376 41.1818 77.2012 41.1174 77.4346 40.9886C77.6721 40.8558 77.8592 40.6646 77.9961 40.4151C78.1369 40.1616 78.2074 39.8557 78.2074 39.4975ZM85.9844 38.2116V43.5H83.0324V34.2273H85.8396V35.9297H85.9422C86.1474 35.3622 86.4976 34.9175 86.9926 34.5955C87.4876 34.2695 88.0772 34.1065 88.7614 34.1065C89.4134 34.1065 89.9789 34.2534 90.4578 34.5472C90.9408 34.837 91.3151 35.2435 91.5807 35.7667C91.8503 36.2859 91.9831 36.8936 91.9791 37.5898V43.5H89.0271V38.1694C89.0311 37.6542 88.9003 37.2518 88.6347 36.962C88.3731 36.6722 88.0088 36.5273 87.542 36.5273C87.2321 36.5273 86.9584 36.5958 86.7209 36.7326C86.4875 36.8654 86.3064 37.0566 86.1776 37.3061C86.0529 37.5556 85.9885 37.8575 85.9844 38.2116Z" fill="#FBF0DF"/>
</g>
<defs>
<filter id="filter0_d_1_50" x="6.28571" y="2.28571" width="51.4286" height="51.4286" filterUnits="userSpaceOnUse" color-interpolation-filters="sRGB">
<feFlood flood-opacity="0" result="BackgroundImageFix"/>
<feColorMatrix in="SourceAlpha" type="matrix" values="0 0 0 0 0 0 0 0 0 0 0 0 0 0 0 0 0 0 127 0" result="hardAlpha"/>
<feOffset/>
<feGaussianBlur stdDeviation="2.85714"/>
<feComposite in2="hardAlpha" operator="out"/>
<feColorMatrix type="matrix" values="0 0 0 0 0 0 0 0 0 0 0 0 0 0 0 0 0 0 0.25 0"/>
<feBlend mode="normal" in2="BackgroundImageFix" result="effect1_dropShadow_1_50"/>
<feBlend mode="normal" in="SourceGraphic" in2="effect1_dropShadow_1_50" result="shape"/>
</filter>
<filter id="filter1_d_1_50" x="54.4" y="3.9" width="82.2" height="48.2" filterUnits="userSpaceOnUse" color-interpolation-filters="sRGB">
<feFlood flood-opacity="0" result="BackgroundImageFix"/>
<feColorMatrix in="SourceAlpha" type="matrix" values="0 0 0 0 0 0 0 0 0 0 0 0 0 0 0 0 0 0 127 0" result="hardAlpha"/>
<feOffset/>
<feGaussianBlur stdDeviation="2.8"/>
<feComposite in2="hardAlpha" operator="out"/>
<feColorMatrix type="matrix" values="0 0 0 0 0 0 0 0 0 0 0 0 0 0 0 0 0 0 0.25 0"/>
<feBlend mode="normal" in2="BackgroundImageFix" result="effect1_dropShadow_1_50"/>
<feBlend mode="normal" in="SourceGraphic" in2="effect1_dropShadow_1_50" result="shape"/>
</filter>
<linearGradient id="paint0_linear_1_50" x1="71.5" y1="0" x2="71.5" y2="56" gradientUnits="userSpaceOnUse">
<stop stop-color="#947C56"/>
<stop offset="1" stop-color="#6A593D"/>
</linearGradient>
</defs>
</svg>
