<svg width="196" height="40" viewBox="0 0 196 40" fill="none" xmlns="http://www.w3.org/2000/svg">
<rect width="196.001" height="40.0014" rx="8" fill="url(#paint0_linear_1_56)"/>
<rect x="1.07143" y="1.07143" width="193.858" height="37.8585" rx="6.92857" stroke="white" stroke-opacity="0.15" stroke-width="2.14286"/>
<g filter="url(#filter0_d_1_56)">
<path d="M18.5651 21.4522C18.6646 19.6776 19.5322 18.1095 20.8467 17.0016C22.1331 15.9124 23.8607 15.2458 25.7574 15.2458C27.6447 15.2458 29.3723 15.9115 30.6587 17.0016C31.9732 18.1095 32.837 19.6776 32.9403 21.4522C33.0398 23.2737 32.3065 24.9732 31.0249 26.2314C29.7103 27.5084 27.8512 28.3158 25.7574 28.3158C23.6636 28.3158 21.7951 27.514 20.4899 26.2314C19.2036 24.9732 18.4712 23.2831 18.5745 21.4616L18.5651 21.4522Z" fill="white"/>
<path d="M22.4991 21.2348C22.5502 20.3229 22.9961 19.5171 23.6716 18.9477C24.3326 18.388 25.2205 18.0454 26.1951 18.0454C27.165 18.0454 28.0528 18.3875 28.7139 18.9477C29.3894 19.5171 29.8333 20.3229 29.8864 21.2348C29.9375 22.1709 29.5607 23.0442 28.902 23.6908C28.2265 24.347 27.2711 24.762 26.1951 24.762C25.1191 24.762 24.1589 24.3499 23.4882 23.6908C22.8272 23.0442 22.4508 22.1757 22.5039 21.2397L22.4991 21.2348Z" fill="#265787"/>
<path d="M16.7089 23.1649C16.7152 23.5219 16.8291 24.2168 16.9999 24.7572C17.3589 25.9056 17.9698 26.9671 18.8141 27.8983C19.6827 28.8585 20.7538 29.6306 21.9891 30.1806C23.287 30.7548 24.696 31.0491 26.158 31.0491C27.62 31.0472 29.0289 30.7481 30.3269 30.1661C31.5621 29.6113 32.6333 28.8392 33.5018 27.8742C34.3511 26.9333 34.959 25.8718 35.3161 24.7234C35.497 24.1444 35.6114 23.5557 35.6572 22.9671C35.7021 22.388 35.6833 21.8042 35.6008 21.2204C35.4396 20.0865 35.0459 19.0201 34.4427 18.0551C33.8927 17.1624 33.1785 16.3856 32.3293 15.7294L32.3313 15.7279L23.7908 9.16574C23.7831 9.15995 23.7768 9.15367 23.7686 9.14837C23.2089 8.71796 22.2631 8.71941 21.6504 9.15078C21.0279 9.58697 20.9555 10.3088 21.5104 10.7624L21.508 10.7648L25.0738 13.6647L14.2172 13.6763H14.2028C13.3053 13.6772 12.4416 14.2649 12.2727 15.0128C12.0971 15.7704 12.707 16.4025 13.6431 16.4025L13.6416 16.4058L19.1423 16.3952L9.299 23.9224C9.28645 23.9316 9.27294 23.9412 9.26136 23.9504C8.33494 24.6597 8.03578 25.8419 8.61962 26.5849C9.21311 27.3425 10.4725 27.3473 11.4085 26.5893L16.7644 22.1984C16.7644 22.1984 16.6863 22.7919 16.6925 23.1441L16.7089 23.1649ZM30.5088 25.148C29.4039 26.2723 27.855 26.914 26.1855 26.914C24.5112 26.9169 22.9623 26.2867 21.8574 25.1625C21.3169 24.6124 20.9213 23.9852 20.6752 23.3145C20.4354 22.6534 20.3423 21.9538 20.404 21.2493C20.4624 20.5593 20.668 19.8983 20.9975 19.3048C21.3198 18.7209 21.7647 18.1902 22.31 17.7414C23.386 16.8681 24.7515 16.3904 26.1797 16.3904C27.6128 16.3885 28.9783 16.858 30.0543 17.7318C30.5995 18.1776 31.0434 18.7065 31.3667 19.2903C31.6963 19.8838 31.9023 20.54 31.9602 21.2348C32.021 21.9393 31.9279 22.6389 31.6881 23.3C31.443 23.9755 31.0463 24.6028 30.5059 25.1528L30.5088 25.148Z" fill="#EA7600"/>
</g>
<g filter="url(#filter1_d_1_56)">
<path d="M43.3597 26.5007V14.1371H47.8874C48.7648 14.1371 49.4912 14.282 50.0667 14.5717C50.6423 14.8575 51.0729 15.2458 51.3586 15.7369C51.6444 16.2238 51.7873 16.7732 51.7873 17.3849C51.7873 17.9001 51.6927 18.3347 51.5035 18.6889C51.3144 19.0391 51.0608 19.3208 50.7429 19.5341C50.429 19.7434 50.0828 19.8963 49.7045 19.9929V20.1136C50.115 20.1337 50.5155 20.2666 50.9059 20.5121C51.3003 20.7535 51.6263 21.0976 51.8839 21.5444C52.1414 21.9911 52.2702 22.5344 52.2702 23.1743C52.2702 23.8062 52.1213 24.3737 51.8235 24.8768C51.5297 25.3758 51.0749 25.7722 50.4591 26.066C49.8434 26.3558 49.0566 26.5007 48.0987 26.5007H43.3597ZM45.2251 24.9009H47.9176C48.8111 24.9009 49.451 24.7279 49.8373 24.3817C50.2237 24.0356 50.4169 23.603 50.4169 23.0838C50.4169 22.6934 50.3183 22.3352 50.1211 22.0092C49.9239 21.6832 49.6421 21.4236 49.2759 21.2305C48.9137 21.0373 48.483 20.9407 47.984 20.9407H45.2251V24.9009ZM45.2251 19.4858H47.7244C48.143 19.4858 48.5193 19.4053 48.8533 19.2443C49.1914 19.0833 49.459 18.8579 49.6562 18.5682C49.8575 18.2744 49.9581 17.9283 49.9581 17.5298C49.9581 17.0187 49.779 16.5901 49.4208 16.244C49.0626 15.8978 48.5132 15.7248 47.7727 15.7248H45.2251V19.4858ZM60.2118 22.6552V17.228H62.0229V26.5007H60.248V24.8949H60.1514C59.9381 25.3899 59.596 25.8024 59.1251 26.1324C58.6583 26.4584 58.0767 26.6214 57.3805 26.6214C56.7848 26.6214 56.2576 26.4906 55.7988 26.229C55.344 25.9634 54.9858 25.571 54.7242 25.0518C54.4667 24.5327 54.3379 23.8907 54.3379 23.1261V17.228H56.1429V22.9087C56.1429 23.5406 56.318 24.0437 56.6681 24.418C57.0183 24.7922 57.473 24.9794 58.0325 24.9794C58.3705 24.9794 58.7066 24.8949 59.0406 24.7258C59.3787 24.5568 59.6584 24.3012 59.8798 23.9591C60.1051 23.6171 60.2158 23.1824 60.2118 22.6552ZM64.4482 26.5007V17.228H66.2533V26.5007H64.4482ZM65.3598 15.7972C65.0459 15.7972 64.7762 15.6926 64.5508 15.4833C64.3295 15.27 64.2188 15.0164 64.2188 14.7226C64.2188 14.4248 64.3295 14.1713 64.5508 13.962C64.7762 13.7487 65.0459 13.642 65.3598 13.642C65.6737 13.642 65.9413 13.7487 66.1627 13.962C66.3881 14.1713 66.5008 14.4248 66.5008 14.7226C66.5008 15.0164 66.3881 15.27 66.1627 15.4833C65.9413 15.6926 65.6737 15.7972 65.3598 15.7972ZM70.4867 14.1371V26.5007H68.6816V14.1371H70.4867ZM77.2435 17.228V18.6768H72.1785V17.228H77.2435ZM73.5368 15.0064H75.3419V23.778C75.3419 24.1282 75.3942 24.3918 75.4988 24.5689C75.6035 24.7419 75.7383 24.8607 75.9033 24.9251C76.0723 24.9854 76.2554 25.0156 76.4526 25.0156C76.5975 25.0156 76.7243 25.0056 76.833 24.9854C76.9416 24.9653 77.0262 24.9492 77.0865 24.9371L77.4125 26.4283C77.3079 26.4685 77.159 26.5087 76.9658 26.549C76.7726 26.5933 76.5311 26.6174 76.2414 26.6214C75.7664 26.6295 75.3237 26.545 74.9132 26.3679C74.5027 26.1908 74.1707 25.9171 73.9171 25.5469C73.6636 25.1766 73.5368 24.7118 73.5368 24.1523V15.0064ZM85.7495 26.5007L83.0208 17.228H84.8862L86.7034 24.0376H86.7939L88.6171 17.228H90.4825L92.2936 24.0074H92.3841L94.1891 17.228H96.0546L93.3319 26.5007H91.4906L89.6071 19.8057H89.4683L87.5847 26.5007H85.7495ZM97.7675 26.5007V17.228H99.5726V26.5007H97.7675ZM98.6791 15.7972C98.3652 15.7972 98.0955 15.6926 97.8702 15.4833C97.6488 15.27 97.5381 15.0164 97.5381 14.7226C97.5381 14.4248 97.6488 14.1713 97.8702 13.962C98.0955 13.7487 98.3652 13.642 98.6791 13.642C98.993 13.642 99.2607 13.7487 99.482 13.962C99.7074 14.1713 99.8201 14.4248 99.8201 14.7226C99.8201 15.0164 99.7074 15.27 99.482 15.4833C99.2607 15.6926 98.993 15.7972 98.6791 15.7972ZM106.329 17.228V18.6768H101.264V17.228H106.329ZM102.623 15.0064H104.428V23.778C104.428 24.1282 104.48 24.3918 104.585 24.5689C104.689 24.7419 104.824 24.8607 104.989 24.9251C105.158 24.9854 105.341 25.0156 105.539 25.0156C105.683 25.0156 105.81 25.0056 105.919 24.9854C106.028 24.9653 106.112 24.9492 106.172 24.9371L106.498 26.4283C106.394 26.4685 106.245 26.5087 106.052 26.549C105.859 26.5933 105.617 26.6174 105.327 26.6214C104.852 26.6295 104.41 26.545 103.999 26.3679C103.589 26.1908 103.257 25.9171 103.003 25.5469C102.75 25.1766 102.623 24.7118 102.623 24.1523V15.0064ZM110.33 20.995V26.5007H108.525V14.1371H110.306V18.7372H110.421C110.638 18.2382 110.97 17.8417 111.417 17.5479C111.864 17.2541 112.447 17.1072 113.168 17.1072C113.804 17.1072 114.359 17.238 114.834 17.4996C115.313 17.7612 115.683 18.1516 115.945 18.6708C116.21 19.1859 116.343 19.8299 116.343 20.6026V26.5007H114.538V20.8199C114.538 20.1398 114.363 19.6126 114.013 19.2383C113.663 18.86 113.176 18.6708 112.552 18.6708C112.125 18.6708 111.743 18.7614 111.405 18.9425C111.071 19.1236 110.807 19.3892 110.614 19.7393C110.425 20.0855 110.33 20.504 110.33 20.995Z" fill="#E8E8E8"/>
<path d="M122.937 26.5007V14.1371H128.093C129.018 14.1371 129.793 14.2679 130.417 14.5295C131.045 14.7911 131.516 15.1573 131.829 15.6282C132.147 16.0991 132.306 16.6444 132.306 17.2642C132.306 17.7351 132.208 18.1556 132.011 18.5259C131.813 18.8922 131.542 19.196 131.196 19.4375C130.85 19.679 130.449 19.848 129.994 19.9446V20.0653C130.493 20.0895 130.954 20.2243 131.377 20.4698C131.803 20.7153 132.145 21.0574 132.403 21.4961C132.661 21.9307 132.789 22.4459 132.789 23.0415C132.789 23.7056 132.62 24.2992 132.282 24.8224C131.944 25.3416 131.455 25.7521 130.815 26.054C130.175 26.3518 129.399 26.5007 128.485 26.5007H122.937ZM125.925 24.092H127.773C128.421 24.092 128.898 23.9692 129.203 23.7237C129.513 23.4782 129.668 23.1361 129.668 22.6974C129.668 22.3795 129.594 22.1058 129.445 21.8764C129.296 21.643 129.085 21.4639 128.811 21.3391C128.537 21.2103 128.209 21.1459 127.827 21.1459H125.925V24.092ZM125.925 19.2202H127.579C127.905 19.2202 128.195 19.1658 128.449 19.0572C128.702 18.9485 128.9 18.7915 129.04 18.5863C129.185 18.381 129.258 18.1335 129.258 17.8437C129.258 17.4292 129.111 17.1032 128.817 16.8658C128.523 16.6283 128.127 16.5096 127.628 16.5096H125.925V19.2202ZM137.178 14.1371V26.5007H134.226V14.1371H137.178ZM143.392 26.6758C142.422 26.6758 141.585 26.4846 140.88 26.1023C140.18 25.7159 139.641 25.1665 139.262 24.4542C138.888 23.7378 138.701 22.8866 138.701 21.9006C138.701 20.9427 138.89 20.1056 139.269 19.3892C139.647 18.6688 140.18 18.1094 140.868 17.7109C141.556 17.3085 142.367 17.1072 143.301 17.1072C143.961 17.1072 144.565 17.2099 145.112 17.4151C145.66 17.6204 146.132 17.9242 146.531 18.3267C146.929 18.7292 147.239 19.2262 147.461 19.8178C147.682 20.4054 147.793 21.0795 147.793 21.8402V22.5767H139.733V20.8622H145.046C145.042 20.5483 144.967 20.2686 144.822 20.0231C144.678 19.7776 144.478 19.5864 144.225 19.4496C143.975 19.3087 143.688 19.2383 143.362 19.2383C143.032 19.2383 142.736 19.3127 142.474 19.4616C142.213 19.6065 142.005 19.8057 141.852 20.0593C141.699 20.3088 141.619 20.5926 141.611 20.9105V22.6552C141.611 23.0335 141.685 23.3655 141.834 23.6513C141.983 23.933 142.194 24.1523 142.468 24.3093C142.742 24.4663 143.068 24.5447 143.446 24.5447C143.708 24.5447 143.945 24.5085 144.158 24.4361C144.372 24.3636 144.555 24.257 144.708 24.1161C144.861 23.9752 144.975 23.8022 145.052 23.5969L147.762 23.6754C147.65 24.2831 147.402 24.8124 147.02 25.2631C146.642 25.7099 146.145 26.058 145.529 26.3075C144.913 26.553 144.201 26.6758 143.392 26.6758ZM152.252 21.2123V26.5007H149.3V17.228H152.108V18.9304H152.21C152.415 18.3629 152.766 17.9182 153.261 17.5962C153.756 17.2702 154.345 17.1072 155.029 17.1072C155.681 17.1072 156.247 17.2541 156.726 17.5479C157.209 17.8377 157.583 18.2442 157.849 18.7674C158.118 19.2866 158.251 19.8943 158.247 20.5905V26.5007H155.295V21.1701C155.299 20.6549 155.168 20.2525 154.903 19.9627C154.641 19.6729 154.277 19.528 153.81 19.528C153.5 19.528 153.226 19.5965 152.989 19.7333C152.756 19.8661 152.574 20.0573 152.446 20.3068C152.321 20.5563 152.256 20.8582 152.252 21.2123ZM163.461 26.6335C162.777 26.6335 162.156 26.4564 161.596 26.1023C161.037 25.7481 160.59 25.2168 160.256 24.5085C159.922 23.8002 159.755 22.9208 159.755 21.8704C159.755 20.7797 159.928 19.8822 160.274 19.1779C160.62 18.4736 161.073 17.9524 161.632 17.6143C162.196 17.2763 162.801 17.1072 163.449 17.1072C163.936 17.1072 164.353 17.1918 164.699 17.3608C165.045 17.5258 165.331 17.7391 165.556 18.0007C165.782 18.2623 165.953 18.534 166.069 18.8157H166.13V14.1371H169.082V26.5007H166.16V24.9975H166.069C165.945 25.2832 165.768 25.5509 165.538 25.8004C165.309 26.0499 165.021 26.2512 164.675 26.4041C164.333 26.557 163.928 26.6335 163.461 26.6335ZM164.488 24.3334C164.846 24.3334 165.152 24.2328 165.405 24.0316C165.659 23.8263 165.854 23.5386 165.991 23.1683C166.128 22.798 166.196 22.3634 166.196 21.8643C166.196 21.3572 166.128 20.9206 165.991 20.5543C165.858 20.1881 165.663 19.9064 165.405 19.7092C165.152 19.5119 164.846 19.4133 164.488 19.4133C164.122 19.4133 163.812 19.514 163.558 19.7152C163.305 19.9164 163.111 20.2002 162.979 20.5664C162.85 20.9326 162.785 21.3653 162.785 21.8643C162.785 22.3634 162.852 22.798 162.985 23.1683C163.117 23.5386 163.309 23.8263 163.558 24.0316C163.812 24.2328 164.122 24.3334 164.488 24.3334ZM175.283 26.6758C174.313 26.6758 173.476 26.4846 172.772 26.1023C172.072 25.7159 171.532 25.1665 171.154 24.4542C170.78 23.7378 170.593 22.8866 170.593 21.9006C170.593 20.9427 170.782 20.1056 171.16 19.3892C171.538 18.6688 172.072 18.1094 172.76 17.7109C173.448 17.3085 174.259 17.1072 175.193 17.1072C175.853 17.1072 176.456 17.2099 177.004 17.4151C177.551 17.6204 178.024 17.9242 178.423 18.3267C178.821 18.7292 179.131 19.2262 179.352 19.8178C179.574 20.4054 179.684 21.0795 179.684 21.8402V22.5767H171.625V20.8622H176.937C176.933 20.5483 176.859 20.2686 176.714 20.0231C176.569 19.7776 176.37 19.5864 176.116 19.4496C175.867 19.3087 175.579 19.2383 175.253 19.2383C174.923 19.2383 174.627 19.3127 174.366 19.4616C174.104 19.6065 173.897 19.8057 173.744 20.0593C173.591 20.3088 173.51 20.5926 173.502 20.9105V22.6552C173.502 23.0335 173.577 23.3655 173.726 23.6513C173.875 23.933 174.086 24.1523 174.36 24.3093C174.633 24.4663 174.959 24.5447 175.338 24.5447C175.599 24.5447 175.837 24.5085 176.05 24.4361C176.263 24.3636 176.446 24.257 176.599 24.1161C176.752 23.9752 176.867 23.8022 176.943 23.5969L179.654 23.6754C179.541 24.2831 179.294 24.8124 178.912 25.2631C178.533 25.7099 178.036 26.058 177.42 26.3075C176.805 26.553 176.092 26.6758 175.283 26.6758ZM181.192 26.5007V17.228H184.06V18.9183H184.156C184.325 18.3066 184.601 17.8518 184.983 17.554C185.365 17.2521 185.81 17.1012 186.317 17.1012C186.454 17.1012 186.595 17.1113 186.74 17.1314C186.885 17.1475 187.02 17.1736 187.144 17.2099V19.7756C187.004 19.7273 186.818 19.689 186.589 19.6609C186.364 19.6327 186.162 19.6186 185.985 19.6186C185.635 19.6186 185.319 19.6971 185.037 19.854C184.76 20.007 184.54 20.2223 184.379 20.5C184.223 20.7737 184.144 21.0956 184.144 21.4659V26.5007H181.192Z" fill="#EA7600"/>
</g>
<defs>
<filter id="filter0_d_1_56" x="2.39972" y="0.39972" width="39.202" height="39.202" filterUnits="userSpaceOnUse" color-interpolation-filters="sRGB">
<feFlood flood-opacity="0" result="BackgroundImageFix"/>
<feColorMatrix in="SourceAlpha" type="matrix" values="0 0 0 0 0 0 0 0 0 0 0 0 0 0 0 0 0 0 127 0" result="hardAlpha"/>
<feOffset/>
<feGaussianBlur stdDeviation="2.80014"/>
<feComposite in2="hardAlpha" operator="out"/>
<feColorMatrix type="matrix" values="0 0 0 0 0 0 0 0 0 0 0 0 0 0 0 0 0 0 0.25 0"/>
<feBlend mode="normal" in2="BackgroundImageFix" result="effect1_dropShadow_1_56"/>
<feBlend mode="normal" in="SourceGraphic" in2="effect1_dropShadow_1_56" result="shape"/>
</filter>
<filter id="filter1_d_1_56" x="36.2871" y="3.78642" width="157.429" height="32.4286" filterUnits="userSpaceOnUse" color-interpolation-filters="sRGB">
<feFlood flood-opacity="0" result="BackgroundImageFix"/>
<feColorMatrix in="SourceAlpha" type="matrix" values="0 0 0 0 0 0 0 0 0 0 0 0 0 0 0 0 0 0 127 0" result="hardAlpha"/>
<feOffset/>
<feGaussianBlur stdDeviation="2.85714"/>
<feComposite in2="hardAlpha" operator="out"/>
<feColorMatrix type="matrix" values="0 0 0 0 0 0 0 0 0 0 0 0 0 0 0 0 0 0 0.25 0"/>
<feBlend mode="normal" in2="BackgroundImageFix" result="effect1_dropShadow_1_56"/>
<feBlend mode="normal" in="SourceGraphic" in2="effect1_dropShadow_1_56" result="shape"/>
</filter>
<linearGradient id="paint0_linear_1_56" x1="98.0007" y1="0" x2="98.0007" y2="40.0014" gradientUnits="userSpaceOnUse">
<stop stop-color="#984D00"/>
<stop offset="0.9993" stop-color="#193958"/>
<stop offset="0.9994" stop-color="#249847"/>
<stop offset="0.9995" stop-color="#045375"/>
</linearGradient>
</defs>
</svg>
