<svg width="40" height="40" viewBox="0 0 40 40" fill="none" xmlns="http://www.w3.org/2000/svg">
<rect width="40" height="40" rx="8" fill="url(#paint0_linear_1_68)"/>
<rect x="1.05" y="1.05" width="37.9" height="37.9" rx="6.95" stroke="white" stroke-opacity="0.15" stroke-width="2.1"/>
<g filter="url(#filter0_d_1_68)">
<path d="M16.5651 21.4522C16.6646 19.6776 17.5322 18.1095 18.8467 17.0016C20.1331 15.9124 21.8607 15.2458 23.7574 15.2458C25.6447 15.2458 27.3723 15.9115 28.6587 17.0016C29.9732 18.1095 30.837 19.6776 30.9403 21.4522C31.0398 23.2737 30.3065 24.9732 29.0249 26.2314C27.7103 27.5084 25.8512 28.3158 23.7574 28.3158C21.6636 28.3158 19.7951 27.514 18.4899 26.2314C17.2036 24.9732 16.4712 23.2831 16.5745 21.4616L16.5651 21.4522Z" fill="white"/>
<path d="M20.4991 21.2348C20.5502 20.3229 20.9961 19.5171 21.6716 18.9477C22.3326 18.388 23.2205 18.0454 24.1951 18.0454C25.165 18.0454 26.0528 18.3875 26.7139 18.9477C27.3894 19.5171 27.8333 20.3229 27.8864 21.2348C27.9375 22.1709 27.5607 23.0442 26.902 23.6908C26.2265 24.347 25.2711 24.762 24.1951 24.762C23.1191 24.762 22.1589 24.3499 21.4882 23.6908C20.8272 23.0442 20.4508 22.1757 20.5039 21.2397L20.4991 21.2348Z" fill="#265787"/>
<path d="M14.7089 23.1649C14.7152 23.5219 14.8291 24.2168 14.9999 24.7572C15.3589 25.9056 15.9698 26.9671 16.8142 27.8983C17.6827 28.8585 18.7538 29.6306 19.9891 30.1806C21.287 30.7548 22.696 31.0491 24.158 31.0491C25.62 31.0472 27.0289 30.7481 28.3269 30.1661C29.5621 29.6113 30.6333 28.8392 31.5018 27.8742C32.3511 26.9333 32.959 25.8718 33.3161 24.7234C33.497 24.1444 33.6114 23.5557 33.6572 22.9671C33.7021 22.388 33.6833 21.8042 33.6008 21.2204C33.4396 20.0865 33.0459 19.0201 32.4427 18.0551C31.8927 17.1624 31.1785 16.3856 30.3293 15.7294L30.3313 15.7279L21.7908 9.16574C21.7831 9.15995 21.7768 9.15367 21.7686 9.14837C21.2089 8.71796 20.2631 8.71941 19.6504 9.15078C19.0279 9.58697 18.9555 10.3088 19.5104 10.7624L19.508 10.7648L23.0738 13.6647L12.2172 13.6763H12.2028C11.3053 13.6772 10.4416 14.2649 10.2727 15.0128C10.0971 15.7704 10.707 16.4025 11.6431 16.4025L11.6416 16.4058L17.1423 16.3952L7.299 23.9224C7.28646 23.9316 7.27294 23.9412 7.26136 23.9504C6.33494 24.6597 6.03578 25.8419 6.61962 26.5849C7.21311 27.3425 8.47247 27.3473 9.40854 26.5893L14.7644 22.1984C14.7644 22.1984 14.6863 22.7919 14.6925 23.1441L14.7089 23.1649ZM28.5088 25.148C27.4039 26.2723 25.855 26.914 24.1855 26.914C22.5112 26.9169 20.9623 26.2867 19.8574 25.1625C19.3169 24.6124 18.9213 23.9852 18.6752 23.3145C18.4354 22.6534 18.3423 21.9538 18.404 21.2493C18.4624 20.5593 18.668 19.8983 18.9975 19.3048C19.3198 18.7209 19.7647 18.1902 20.31 17.7414C21.386 16.8681 22.7515 16.3904 24.1797 16.3904C25.6128 16.3885 26.9783 16.858 28.0543 17.7318C28.5995 18.1776 29.0434 18.7065 29.3667 19.2903C29.6963 19.8838 29.9023 20.54 29.9602 21.2348C30.021 21.9393 29.9279 22.6389 29.6881 23.3C29.443 23.9755 29.0463 24.6028 28.5059 25.1528L28.5088 25.148Z" fill="#EA7600"/>
</g>
<defs>
<filter id="filter0_d_1_68" x="2" y="2" width="36" height="36" filterUnits="userSpaceOnUse" color-interpolation-filters="sRGB">
<feFlood flood-opacity="0" result="BackgroundImageFix"/>
<feColorMatrix in="SourceAlpha" type="matrix" values="0 0 0 0 0 0 0 0 0 0 0 0 0 0 0 0 0 0 127 0" result="hardAlpha"/>
<feOffset/>
<feGaussianBlur stdDeviation="2"/>
<feComposite in2="hardAlpha" operator="out"/>
<feColorMatrix type="matrix" values="0 0 0 0 0 0 0 0 0 0 0 0 0 0 0 0 0 0 0.25 0"/>
<feBlend mode="normal" in2="BackgroundImageFix" result="effect1_dropShadow_1_68"/>
<feBlend mode="normal" in="SourceGraphic" in2="effect1_dropShadow_1_68" result="shape"/>
</filter>
<linearGradient id="paint0_linear_1_68" x1="20" y1="0" x2="20" y2="40" gradientUnits="userSpaceOnUse">
<stop stop-color="#984D00"/>
<stop offset="0.9993" stop-color="#193958"/>
<stop offset="0.9994" stop-color="#249847"/>
<stop offset="0.9995"/>
</linearGradient>
</defs>
</svg>
