<svg width="56" height="56" viewBox="0 0 56 56" fill="none" xmlns="http://www.w3.org/2000/svg">
<rect width="56" height="56" rx="8.4" fill="url(#paint0_linear_1_62)"/>
<rect x="1.05" y="1.05" width="53.9" height="53.9" rx="7.35" stroke="white" stroke-opacity="0.15" stroke-width="2.1"/>
<g filter="url(#filter0_d_1_62)">
<path d="M23.093 30.0745C23.2352 27.5394 24.4746 25.2993 26.3525 23.7166C28.1901 22.1606 30.6582 21.2082 33.3677 21.2082C36.0638 21.2082 38.5319 22.1592 40.3696 23.7166C42.2474 25.2993 43.4815 27.5394 43.629 30.0745C43.7712 32.6767 42.7236 35.1046 40.8927 36.902C39.0148 38.7262 36.3589 39.8798 33.3677 39.8798C30.3765 39.8798 27.7072 38.7343 25.8428 36.902C24.0051 35.1046 22.9588 32.6902 23.1064 30.088L23.093 30.0745Z" fill="white"/>
<path d="M28.713 29.764C28.786 28.4613 29.423 27.3101 30.388 26.4967C31.3323 25.6972 32.6007 25.2077 33.9931 25.2077C35.3786 25.2077 36.6469 25.6965 37.5912 26.4967C38.5562 27.3101 39.1904 28.4613 39.2662 29.764C39.3393 31.1013 38.8009 32.3489 37.86 33.2726C36.895 34.21 35.5302 34.8028 33.9931 34.8028C32.4559 34.8028 31.0842 34.2142 30.1261 33.2726C29.1817 32.3489 28.644 31.1082 28.7199 29.7709L28.713 29.764Z" fill="#265787"/>
<path d="M20.4414 32.5213C20.4503 33.0313 20.613 34.0239 20.857 34.796C21.3698 36.4365 22.2425 37.953 23.4488 39.2833C24.6895 40.655 26.2198 41.7579 27.9844 42.5437C29.8386 43.364 31.8514 43.7845 33.94 43.7845C36.0286 43.7817 38.0413 43.3544 39.8956 42.5231C41.6602 41.7304 43.1905 40.6275 44.4312 39.2489C45.6444 37.9047 46.5129 36.3883 47.023 34.7477C47.2815 33.9206 47.4448 33.0796 47.5103 32.2386C47.5744 31.4115 47.5475 30.5774 47.4297 29.7434C47.1995 28.1235 46.637 26.6001 45.7753 25.2215C44.9895 23.9463 43.9694 22.8365 42.7562 21.8991L42.759 21.897L30.5583 12.5225C30.5472 12.5142 30.5383 12.5052 30.5266 12.4977C29.727 11.8828 28.3759 11.8849 27.5005 12.5011C26.6113 13.1242 26.5079 14.1554 27.3006 14.8034L27.2972 14.8068L32.3911 18.9496L16.8818 18.9661H16.8611C15.579 18.9675 14.3451 19.8071 14.1039 20.8755C13.853 21.9577 14.7243 22.8607 16.0615 22.8607L16.0595 22.8655L23.9175 22.8503L9.85572 33.6035C9.83779 33.6166 9.81849 33.6303 9.80195 33.6434C8.47848 34.6567 8.05111 36.3455 8.88517 37.4071C9.73302 38.4893 11.5321 38.4961 12.8693 37.4132L20.5206 31.1406C20.5206 31.1406 20.409 31.9884 20.4179 32.4916L20.4414 32.5213ZM40.1554 35.3543C38.5769 36.9604 36.3643 37.8771 33.9793 37.8771C31.5874 37.8813 29.3747 36.9811 27.7962 35.375C27.0242 34.5892 26.459 33.6931 26.1074 32.7349C25.7648 31.7906 25.6318 30.7911 25.72 29.7847C25.8034 28.799 26.0971 27.8547 26.5679 27.0068C27.0283 26.1728 27.6639 25.4145 28.4428 24.7735C29.9799 23.5259 31.9307 22.8434 33.971 22.8434C36.0182 22.8407 37.969 23.5114 39.5061 24.7597C40.285 25.3966 40.9192 26.1521 41.381 26.9862C41.8518 27.834 42.1462 28.7714 42.2289 29.764C42.3157 30.7704 42.1827 31.7699 41.8401 32.7143C41.4899 33.6793 40.9233 34.5754 40.1513 35.3612L40.1554 35.3543Z" fill="#EA7600"/>
</g>
<defs>
<filter id="filter0_d_1_62" x="2.28571" y="2.28571" width="51.4286" height="51.4286" filterUnits="userSpaceOnUse" color-interpolation-filters="sRGB">
<feFlood flood-opacity="0" result="BackgroundImageFix"/>
<feColorMatrix in="SourceAlpha" type="matrix" values="0 0 0 0 0 0 0 0 0 0 0 0 0 0 0 0 0 0 127 0" result="hardAlpha"/>
<feOffset/>
<feGaussianBlur stdDeviation="2.85714"/>
<feComposite in2="hardAlpha" operator="out"/>
<feColorMatrix type="matrix" values="0 0 0 0 0 0 0 0 0 0 0 0 0 0 0 0 0 0 0.25 0"/>
<feBlend mode="normal" in2="BackgroundImageFix" result="effect1_dropShadow_1_62"/>
<feBlend mode="normal" in="SourceGraphic" in2="effect1_dropShadow_1_62" result="shape"/>
</filter>
<linearGradient id="paint0_linear_1_62" x1="28" y1="0" x2="28" y2="56" gradientUnits="userSpaceOnUse">
<stop stop-color="#984D00"/>
<stop offset="0.9987" stop-color="#193958"/>
<stop offset="0.9988" stop-color="#249847"/>
<stop offset="0.9989" stop-color="#045375"/>
<stop offset="0.999"/>
<stop offset="0.9991" stop-color="#0672A1"/>
<stop offset="0.9992" stop-color="#0672A1"/>
<stop offset="0.9993" stop-color="#00566B"/>
</linearGradient>
</defs>
</svg>
