<svg width="144" height="56" viewBox="0 0 144 56" fill="none" xmlns="http://www.w3.org/2000/svg">
<rect width="144" height="56" rx="8" fill="url(#paint0_linear_1_50)"/>
<rect x="1.05" y="1.05" width="141.9" height="53.9" rx="6.95" stroke="white" stroke-opacity="0.15" stroke-width="2.1"/>
<g filter="url(#filter0_d_1_50)">
<path d="M27.093 30.0745C27.2352 27.5394 28.4746 25.2993 30.3525 23.7166C32.1901 22.1606 34.6582 21.2082 37.3677 21.2082C40.0638 21.2082 42.5319 22.1592 44.3696 23.7166C46.2475 25.2993 47.4815 27.5394 47.629 30.0745C47.7712 32.6767 46.7236 35.1046 44.8927 36.902C43.0148 38.7262 40.3589 39.8798 37.3677 39.8798C34.3765 39.8798 31.7072 38.7343 29.8428 36.902C28.0051 35.1046 26.9589 32.6902 27.1064 30.088L27.093 30.0745Z" fill="white"/>
<path d="M32.713 29.764C32.7861 28.4613 33.423 27.3101 34.388 26.4967C35.3323 25.6972 36.6007 25.2077 37.9931 25.2077C39.3786 25.2077 40.6469 25.6965 41.5912 26.4967C42.5563 27.3101 43.1904 28.4613 43.2662 29.764C43.3393 31.1013 42.8009 32.3489 41.86 33.2726C40.895 34.21 39.5302 34.8028 37.9931 34.8028C36.4559 34.8028 35.0842 34.2142 34.1261 33.2726C33.1817 32.3489 32.6441 31.1082 32.7199 29.7709L32.713 29.764Z" fill="#265787"/>
<path d="M24.4414 32.5213C24.4503 33.0313 24.613 34.0239 24.857 34.796C25.3698 36.4365 26.2425 37.953 27.4488 39.2833C28.6895 40.655 30.2198 41.7579 31.9844 42.5437C33.8386 43.364 35.8514 43.7845 37.94 43.7845C40.0286 43.7817 42.0413 43.3544 43.8956 42.5231C45.6602 41.7304 47.1905 40.6275 48.4312 39.2489C49.6444 37.9047 50.5129 36.3883 51.023 34.7477C51.2815 33.9206 51.4448 33.0796 51.5103 32.2386C51.5744 31.4115 51.5476 30.5774 51.4297 29.7434C51.1995 28.1235 50.637 26.6001 49.7753 25.2215C48.9895 23.9463 47.9694 22.8365 46.7562 21.8991L46.759 21.897L34.5583 12.5225C34.5472 12.5142 34.5383 12.5052 34.5266 12.4977C33.727 11.8828 32.3759 11.8849 31.5005 12.5011C30.6113 13.1242 30.5079 14.1554 31.3006 14.8034L31.2972 14.8068L36.3911 18.9496L20.8818 18.9661H20.8611C19.579 18.9675 18.3452 19.8071 18.1039 20.8755C17.853 21.9577 18.7243 22.8607 20.0615 22.8607L20.0595 22.8655L27.9175 22.8503L13.8557 33.6035C13.8378 33.6166 13.8185 33.6303 13.802 33.6434C12.4785 34.6567 12.0511 36.3455 12.8852 37.4071C13.733 38.4893 15.5321 38.4961 16.8694 37.4132L24.5206 31.1406C24.5206 31.1406 24.409 31.9884 24.4179 32.4916L24.4414 32.5213ZM44.1555 35.3543C42.5769 36.9604 40.3643 37.8771 37.9793 37.8771C35.5874 37.8813 33.3747 36.9811 31.7962 35.375C31.0242 34.5892 30.459 33.6931 30.1074 32.7349C29.7648 31.7906 29.6318 30.7911 29.72 29.7847C29.8035 28.799 30.0971 27.8547 30.5679 27.0068C31.0283 26.1728 31.6639 25.4145 32.4428 24.7735C33.9799 23.5259 35.9307 22.8434 37.971 22.8434C40.0182 22.8407 41.969 23.5114 43.5061 24.7597C44.285 25.3966 44.9192 26.1521 45.381 26.9862C45.8518 27.834 46.1462 28.7714 46.2289 29.764C46.3157 30.7704 46.1827 31.7699 45.8401 32.7143C45.4899 33.6793 44.9233 34.5754 44.1513 35.3612L44.1555 35.3543Z" fill="#EA7600"/>
</g>
<g filter="url(#filter1_d_1_50)">
<path d="M61.2784 24.5V12.8636H65.5398C66.3655 12.8636 67.0492 13 67.5909 13.2727C68.1326 13.5417 68.5379 13.9072 68.8068 14.3693C69.0757 14.8276 69.2102 15.3447 69.2102 15.9204C69.2102 16.4053 69.1212 16.8144 68.9432 17.1477C68.7651 17.4773 68.5265 17.7424 68.2273 17.9432C67.9318 18.1401 67.606 18.2841 67.25 18.375V18.4886C67.6363 18.5076 68.0132 18.6326 68.3807 18.8636C68.7519 19.0909 69.0587 19.4148 69.3011 19.8352C69.5435 20.2557 69.6648 20.767 69.6648 21.3693C69.6648 21.964 69.5246 22.4981 69.2443 22.9716C68.9678 23.4413 68.5398 23.8144 67.9602 24.0909C67.3807 24.3636 66.6401 24.5 65.7386 24.5H61.2784ZM63.0341 22.9943H65.5682C66.4091 22.9943 67.0113 22.8314 67.375 22.5057C67.7386 22.1799 67.9204 21.7727 67.9204 21.2841C67.9204 20.9167 67.8276 20.5795 67.642 20.2727C67.4564 19.9659 67.1913 19.7216 66.8466 19.5398C66.5057 19.3579 66.1004 19.267 65.6307 19.267H63.0341V22.9943ZM63.0341 17.8977H65.3863C65.7803 17.8977 66.1345 17.822 66.4488 17.6704C66.767 17.5189 67.0189 17.3068 67.2045 17.0341C67.3939 16.7576 67.4886 16.4318 67.4886 16.0568C67.4886 15.5758 67.3201 15.1723 66.9829 14.8466C66.6458 14.5208 66.1288 14.3579 65.4318 14.3579H63.0341V17.8977ZM77.1392 20.8807V15.7727H78.8437V24.5H77.1733V22.9886H77.0824C76.8816 23.4545 76.5596 23.8428 76.1165 24.1534C75.6771 24.4602 75.1297 24.6136 74.4744 24.6136C73.9138 24.6136 73.4176 24.4905 72.9858 24.2443C72.5577 23.9943 72.2206 23.625 71.9744 23.1364C71.732 22.6477 71.6108 22.0436 71.6108 21.3239V15.7727H73.3096V21.1193C73.3096 21.714 73.4744 22.1875 73.804 22.5398C74.1335 22.892 74.5615 23.0682 75.088 23.0682C75.4062 23.0682 75.7225 22.9886 76.0369 22.8295C76.3551 22.6704 76.6184 22.4299 76.8267 22.1079C77.0388 21.786 77.143 21.3769 77.1392 20.8807ZM81.1264 24.5V15.7727H82.8253V24.5H81.1264ZM81.9844 14.4261C81.6889 14.4261 81.4351 14.3276 81.223 14.1307C81.0147 13.9299 80.9105 13.6913 80.9105 13.4148C80.9105 13.1345 81.0147 12.8958 81.223 12.6989C81.4351 12.4981 81.6889 12.3977 81.9844 12.3977C82.2798 12.3977 82.5317 12.4981 82.74 12.6989C82.9522 12.8958 83.0582 13.1345 83.0582 13.4148C83.0582 13.6913 82.9522 13.9299 82.74 14.1307C82.5317 14.3276 82.2798 14.4261 81.9844 14.4261ZM86.8096 12.8636V24.5H85.1108V12.8636H86.8096ZM93.169 15.7727V17.1364H88.402V15.7727H93.169ZM89.6804 13.6818H91.3792V21.9375C91.3792 22.267 91.4285 22.5151 91.527 22.6818C91.6254 22.8447 91.7523 22.9564 91.9076 23.017C92.0667 23.0739 92.2391 23.1023 92.4247 23.1023C92.5611 23.1023 92.6804 23.0928 92.7826 23.0739C92.8849 23.0549 92.9645 23.0398 93.0213 23.0284L93.3281 24.4318C93.2296 24.4697 93.0895 24.5076 92.9076 24.5454C92.7258 24.5871 92.4986 24.6098 92.2258 24.6136C91.7789 24.6212 91.3622 24.5417 90.9758 24.375C90.5895 24.2083 90.277 23.9508 90.0383 23.6023C89.7997 23.2538 89.6804 22.8163 89.6804 22.2898V13.6818ZM101.175 24.5L98.6065 15.7727H100.362L102.072 22.1818H102.158L103.874 15.7727H105.629L107.334 22.1534H107.419L109.118 15.7727H110.874L108.311 24.5H106.578L104.805 18.1989H104.675L102.902 24.5H101.175ZM112.486 24.5V15.7727H114.185V24.5H112.486ZM113.344 14.4261C113.048 14.4261 112.794 14.3276 112.582 14.1307C112.374 13.9299 112.27 13.6913 112.27 13.4148C112.27 13.1345 112.374 12.8958 112.582 12.6989C112.794 12.4981 113.048 12.3977 113.344 12.3977C113.639 12.3977 113.891 12.4981 114.099 12.6989C114.312 12.8958 114.418 13.1345 114.418 13.4148C114.418 13.6913 114.312 13.9299 114.099 14.1307C113.891 14.3276 113.639 14.4261 113.344 14.4261ZM120.544 15.7727V17.1364H115.777V15.7727H120.544ZM117.055 13.6818H118.754V21.9375C118.754 22.267 118.803 22.5151 118.902 22.6818C119 22.8447 119.127 22.9564 119.283 23.017C119.442 23.0739 119.614 23.1023 119.8 23.1023C119.936 23.1023 120.055 23.0928 120.158 23.0739C120.26 23.0549 120.339 23.0398 120.396 23.0284L120.703 24.4318C120.605 24.4697 120.464 24.5076 120.283 24.5454C120.101 24.5871 119.874 24.6098 119.601 24.6136C119.154 24.6212 118.737 24.5417 118.351 24.375C117.964 24.2083 117.652 23.9508 117.413 23.6023C117.175 23.2538 117.055 22.8163 117.055 22.2898V13.6818ZM124.31 19.3182V24.5H122.611V12.8636H124.287V17.1932H124.395C124.599 16.7235 124.912 16.3504 125.332 16.0739C125.753 15.7973 126.302 15.6591 126.98 15.6591C127.579 15.6591 128.101 15.7822 128.548 16.0284C128.999 16.2746 129.348 16.642 129.594 17.1307C129.844 17.6155 129.969 18.2216 129.969 18.9489V24.5H128.27V19.1534C128.27 18.5133 128.105 18.017 127.776 17.6648C127.446 17.3087 126.988 17.1307 126.401 17.1307C125.999 17.1307 125.639 17.2159 125.321 17.3864C125.007 17.5568 124.758 17.8068 124.577 18.1364C124.399 18.4621 124.31 18.8561 124.31 19.3182Z" fill="#E8E8E8"/>
<path d="M60.9357 43.5V31.1364H66.0912C67.0169 31.1364 67.7916 31.2672 68.4155 31.5288C69.0433 31.7904 69.5142 32.1566 69.8281 32.6275C70.1461 33.0984 70.305 33.6437 70.305 34.2635C70.305 34.7344 70.2064 35.1549 70.0092 35.5252C69.812 35.8914 69.5403 36.1953 69.1942 36.4368C68.8481 36.6783 68.4477 36.8473 67.9929 36.9439V37.0646C68.4919 37.0888 68.9528 37.2236 69.3753 37.4691C69.8019 37.7146 70.144 38.0567 70.4016 38.4954C70.6592 38.93 70.788 39.4452 70.788 40.0408C70.788 40.7049 70.6189 41.2985 70.2809 41.8217C69.9428 42.3409 69.4538 42.7514 68.8139 43.0533C68.174 43.3511 67.3972 43.5 66.4836 43.5H60.9357ZM63.924 41.0913H65.7713C66.4193 41.0913 66.8962 40.9685 67.202 40.723C67.5119 40.4775 67.6669 40.1354 67.6669 39.6967C67.6669 39.3788 67.5924 39.1051 67.4435 38.8757C67.2946 38.6423 67.0833 38.4632 66.8096 38.3384C66.536 38.2096 66.208 38.1452 65.8256 38.1452H63.924V41.0913ZM63.924 36.2195H65.5781C65.9041 36.2195 66.1939 36.1651 66.4474 36.0565C66.701 35.9478 66.8982 35.7908 67.039 35.5856C67.1839 35.3803 67.2564 35.1328 67.2564 34.843C67.2564 34.4285 67.1095 34.1025 66.8157 33.865C66.5219 33.6276 66.1255 33.5089 65.6264 33.5089H63.924V36.2195ZM75.1768 31.1364V43.5H72.2248V31.1364H75.1768ZM81.3903 43.6751C80.4204 43.6751 79.5833 43.4839 78.879 43.1016C78.1787 42.7152 77.6394 42.1658 77.2611 41.4535C76.8868 40.7371 76.6996 39.8859 76.6996 38.8998C76.6996 37.942 76.8888 37.1049 77.2671 36.3885C77.6454 35.6681 78.1787 35.1087 78.8669 34.7102C79.5551 34.3078 80.3661 34.1065 81.2998 34.1065C81.9598 34.1065 82.5635 34.2092 83.1109 34.4144C83.6582 34.6197 84.1311 34.9235 84.5295 35.326C84.928 35.7284 85.2379 36.2255 85.4592 36.8171C85.6806 37.4047 85.7913 38.0788 85.7913 38.8395V39.576H77.732V37.8615H83.0445C83.0404 37.5476 82.966 37.2679 82.8211 37.0224C82.6762 36.7769 82.477 36.5857 82.2234 36.4489C81.9739 36.308 81.6861 36.2376 81.3602 36.2376C81.0301 36.2376 80.7343 36.312 80.4727 36.4609C80.2111 36.6058 80.0039 36.805 79.8509 37.0586C79.698 37.3081 79.6175 37.5918 79.6094 37.9098V39.6545C79.6094 40.0328 79.6839 40.3648 79.8328 40.6506C79.9817 40.9323 80.193 41.1516 80.4667 41.3086C80.7404 41.4655 81.0664 41.544 81.4447 41.544C81.7063 41.544 81.9437 41.5078 82.157 41.4354C82.3703 41.3629 82.5535 41.2563 82.7064 41.1154C82.8593 40.9745 82.974 40.8015 83.0505 40.5962L85.7611 40.6747C85.6484 41.2824 85.4009 41.8117 85.0185 42.2624C84.6402 42.7092 84.1432 43.0573 83.5274 43.3068C82.9116 43.5523 82.1993 43.6751 81.3903 43.6751ZM90.251 38.2116V43.5H87.299V34.2273H90.1062V35.9297H90.2088C90.414 35.3622 90.7642 34.9175 91.2592 34.5955C91.7542 34.2695 92.3438 34.1065 93.028 34.1065C93.68 34.1065 94.2455 34.2534 94.7244 34.5472C95.2074 34.837 95.5817 35.2435 95.8473 35.7667C96.1169 36.2859 96.2497 36.8936 96.2457 37.5898V43.5H93.2937V38.1694C93.2977 37.6542 93.1669 37.2518 92.9013 36.962C92.6397 36.6722 92.2754 36.5273 91.8086 36.5273C91.4987 36.5273 91.225 36.5958 90.9875 36.7326C90.7541 36.8654 90.573 37.0566 90.4442 37.3061C90.3195 37.5556 90.2551 37.8575 90.251 38.2116ZM101.46 43.6328C100.776 43.6328 100.154 43.4557 99.5947 43.1016C99.0353 42.7474 98.5885 42.2161 98.2545 41.5078C97.9205 40.7995 97.7534 39.9201 97.7534 38.8697C97.7534 37.779 97.9265 36.8815 98.2726 36.1772C98.6187 35.4729 99.0715 34.9517 99.6309 34.6136C100.194 34.2756 100.8 34.1065 101.448 34.1065C101.935 34.1065 102.352 34.191 102.698 34.3601C103.044 34.5251 103.33 34.7384 103.555 35C103.78 35.2616 103.951 35.5333 104.068 35.815H104.128V31.1364H107.08V43.5H104.159V41.9968H104.068C103.943 42.2825 103.766 42.5502 103.537 42.7997C103.307 43.0492 103.02 43.2505 102.674 43.4034C102.331 43.5563 101.927 43.6328 101.46 43.6328ZM102.486 41.3327C102.845 41.3327 103.15 41.2321 103.404 41.0309C103.658 40.8256 103.853 40.5379 103.99 40.1676C104.126 39.7973 104.195 39.3627 104.195 38.8636C104.195 38.3565 104.126 37.9199 103.99 37.5536C103.857 37.1874 103.662 36.9056 103.404 36.7084C103.15 36.5112 102.845 36.4126 102.486 36.4126C102.12 36.4126 101.81 36.5132 101.557 36.7145C101.303 36.9157 101.11 37.1994 100.977 37.5657C100.848 37.9319 100.784 38.3646 100.784 38.8636C100.784 39.3627 100.85 39.7973 100.983 40.1676C101.116 40.5379 101.307 40.8256 101.557 41.0309C101.81 41.2321 102.12 41.3327 102.486 41.3327ZM113.282 43.6751C112.312 43.6751 111.475 43.4839 110.771 43.1016C110.07 42.7152 109.531 42.1658 109.153 41.4535C108.778 40.7371 108.591 39.8859 108.591 38.8998C108.591 37.942 108.78 37.1049 109.159 36.3885C109.537 35.6681 110.07 35.1087 110.758 34.7102C111.447 34.3078 112.258 34.1065 113.191 34.1065C113.851 34.1065 114.455 34.2092 115.002 34.4144C115.55 34.6197 116.023 34.9235 116.421 35.326C116.82 35.7284 117.129 36.2255 117.351 36.8171C117.572 37.4047 117.683 38.0788 117.683 38.8395V39.576H109.624V37.8615H114.936C114.932 37.5476 114.858 37.2679 114.713 37.0224C114.568 36.7769 114.369 36.5857 114.115 36.4489C113.865 36.308 113.578 36.2376 113.252 36.2376C112.922 36.2376 112.626 36.312 112.364 36.4609C112.103 36.6058 111.895 36.805 111.743 37.0586C111.59 37.3081 111.509 37.5918 111.501 37.9098V39.6545C111.501 40.0328 111.575 40.3648 111.724 40.6506C111.873 40.9323 112.085 41.1516 112.358 41.3086C112.632 41.4655 112.958 41.544 113.336 41.544C113.598 41.544 113.835 41.5078 114.049 41.4354C114.262 41.3629 114.445 41.2563 114.598 41.1154C114.751 40.9745 114.866 40.8015 114.942 40.5962L117.653 40.6747C117.54 41.2824 117.292 41.8117 116.91 42.2624C116.532 42.7092 116.035 43.0573 115.419 43.3068C114.803 43.5523 114.091 43.6751 113.282 43.6751ZM119.191 43.5V34.2273H122.058V35.9176H122.155C122.324 35.3059 122.599 34.8511 122.982 34.5533C123.364 34.2514 123.809 34.1005 124.316 34.1005C124.453 34.1005 124.594 34.1105 124.739 34.1307C124.883 34.1468 125.018 34.1729 125.143 34.2092V36.7748C125.002 36.7266 124.817 36.6883 124.588 36.6601C124.362 36.632 124.161 36.6179 123.984 36.6179C123.634 36.6179 123.318 36.6964 123.036 36.8533C122.758 37.0063 122.539 37.2216 122.378 37.4993C122.221 37.773 122.143 38.0949 122.143 38.4652V43.5H119.191Z" fill="#EA7600"/>
</g>
<defs>
<filter id="filter0_d_1_50" x="6.28571" y="2.28571" width="51.4286" height="51.4286" filterUnits="userSpaceOnUse" color-interpolation-filters="sRGB">
<feFlood flood-opacity="0" result="BackgroundImageFix"/>
<feColorMatrix in="SourceAlpha" type="matrix" values="0 0 0 0 0 0 0 0 0 0 0 0 0 0 0 0 0 0 127 0" result="hardAlpha"/>
<feOffset/>
<feGaussianBlur stdDeviation="2.85714"/>
<feComposite in2="hardAlpha" operator="out"/>
<feColorMatrix type="matrix" values="0 0 0 0 0 0 0 0 0 0 0 0 0 0 0 0 0 0 0.25 0"/>
<feBlend mode="normal" in2="BackgroundImageFix" result="effect1_dropShadow_1_50"/>
<feBlend mode="normal" in="SourceGraphic" in2="effect1_dropShadow_1_50" result="shape"/>
</filter>
<filter id="filter1_d_1_50" x="54.4" y="3.9" width="83.2" height="48.2" filterUnits="userSpaceOnUse" color-interpolation-filters="sRGB">
<feFlood flood-opacity="0" result="BackgroundImageFix"/>
<feColorMatrix in="SourceAlpha" type="matrix" values="0 0 0 0 0 0 0 0 0 0 0 0 0 0 0 0 0 0 127 0" result="hardAlpha"/>
<feOffset/>
<feGaussianBlur stdDeviation="2.8"/>
<feComposite in2="hardAlpha" operator="out"/>
<feColorMatrix type="matrix" values="0 0 0 0 0 0 0 0 0 0 0 0 0 0 0 0 0 0 0.25 0"/>
<feBlend mode="normal" in2="BackgroundImageFix" result="effect1_dropShadow_1_50"/>
<feBlend mode="normal" in="SourceGraphic" in2="effect1_dropShadow_1_50" result="shape"/>
</filter>
<linearGradient id="paint0_linear_1_50" x1="72" y1="0" x2="72" y2="56" gradientUnits="userSpaceOnUse">
<stop offset="0.0007" stop-color="#067CB0"/>
<stop offset="0.0008" stop-color="#BE2128"/>
<stop offset="0.0009" stop-color="#BE2128"/>
<stop offset="0.001" stop-color="#984D00"/>
<stop offset="0.9993" stop-color="#193958"/>
<stop offset="0.9994" stop-color="#1E8955"/>
<stop offset="0.9995" stop-color="#249847"/>
</linearGradient>
</defs>
</svg>
