<svg width="241" height="56" viewBox="0 0 241 56" fill="none" xmlns="http://www.w3.org/2000/svg">
<g clip-path="url(#clip0_1_50)">
<rect width="241" height="56" rx="8" fill="url(#paint0_linear_1_50)"/>
<g filter="url(#filter0_d_1_50)">
<path d="M32.0013 8.00128C20.6066 8.00128 11.375 17.1863 11.375 28.5064C11.375 37.5709 17.2844 45.2539 25.4744 47.9645C26.5095 48.158 26.8834 47.5236 26.8834 46.9751C26.8834 46.4881 26.8718 45.2001 26.8641 43.4905C21.1235 44.7259 19.9143 40.7338 19.9143 40.7338C18.9745 38.3706 17.6183 37.7362 17.6183 37.7362C15.7516 36.4688 17.7666 36.4957 17.7666 36.4957C19.8344 36.6354 20.9224 38.6039 20.9224 38.6039C22.762 41.7412 25.7489 40.8338 26.9311 40.3058C27.1116 38.9845 27.6491 38.0759 28.2344 37.5696C23.6554 37.0557 18.8404 35.2936 18.8404 27.4363C18.8404 25.1923 19.6397 23.3647 20.9611 21.9294C20.7329 21.4155 20.0342 19.3265 21.1428 16.5019C21.1428 16.5019 22.869 15.9547 26.8151 18.605C28.4665 18.15 30.2197 17.9232 31.9716 17.9117C33.7249 17.9232 35.4768 18.1513 37.1282 18.605C41.0511 15.9547 42.7759 16.5019 42.7759 16.5019C43.8833 19.3265 43.1846 21.4142 42.9835 21.9294C44.292 23.3647 45.0912 25.1935 45.0912 27.4363C45.0912 35.3115 40.2699 37.048 35.6857 37.5491C36.4024 38.163 37.0741 39.4254 37.0741 41.3413C37.0741 44.0839 37.0483 46.2933 37.0483 46.961C37.0483 47.4941 37.4092 48.1349 38.4715 47.9286C46.722 45.2462 52.625 37.5568 52.625 28.5051C52.625 17.185 43.3934 8 31.9987 8L32.0013 8.00128Z" fill="white"/>
</g>
<g filter="url(#filter1_d_1_50)">
<path d="M61.2784 24.5V12.8636H65.4261C66.3276 12.8636 67.0757 13.0189 67.6704 13.3295C68.2689 13.6401 68.7159 14.0701 69.0113 14.6193C69.3068 15.1648 69.4545 15.7954 69.4545 16.5114C69.4545 17.2235 69.3049 17.8504 69.0057 18.392C68.7102 18.9299 68.2632 19.3485 67.6648 19.6477C67.0701 19.947 66.322 20.0966 65.4204 20.0966H62.2784V18.5852H65.2613C65.8295 18.5852 66.2916 18.5038 66.6477 18.3409C67.0076 18.178 67.2708 17.9413 67.4375 17.6307C67.6041 17.3201 67.6875 16.947 67.6875 16.5114C67.6875 16.072 67.6023 15.6913 67.4318 15.3693C67.2651 15.0473 67.0019 14.8011 66.642 14.6307C66.286 14.4564 65.8182 14.3693 65.2386 14.3693H63.0341V24.5H61.2784ZM67.0227 19.25L69.8977 24.5H67.8977L65.0795 19.25H67.0227ZM75.1065 24.6761C74.2467 24.6761 73.5061 24.4924 72.8849 24.125C72.2675 23.7538 71.7902 23.2329 71.4531 22.5625C71.1198 21.8883 70.9531 21.0985 70.9531 20.1932C70.9531 19.2992 71.1198 18.5114 71.4531 17.8295C71.7902 17.1477 72.2599 16.6155 72.8622 16.2329C73.4683 15.8504 74.1766 15.6591 74.9872 15.6591C75.4796 15.6591 75.9569 15.7405 76.419 15.9034C76.8811 16.0663 77.2959 16.322 77.6633 16.6704C78.0308 17.0189 78.3205 17.4716 78.5327 18.0284C78.7448 18.5814 78.8508 19.2538 78.8508 20.0454V20.6477H71.9133V19.375H77.1861C77.1861 18.928 77.0952 18.5322 76.9133 18.1875C76.7315 17.839 76.4758 17.5644 76.1463 17.3636C75.8205 17.1629 75.438 17.0625 74.9986 17.0625C74.5213 17.0625 74.1046 17.1799 73.7486 17.4148C73.3963 17.6458 73.1236 17.9489 72.9304 18.3239C72.741 18.6951 72.6463 19.0985 72.6463 19.5341V20.5284C72.6463 21.1117 72.7486 21.6079 72.9531 22.017C73.1614 22.4261 73.4512 22.7386 73.8224 22.9545C74.1936 23.1667 74.6273 23.2727 75.1236 23.2727C75.4455 23.2727 75.7391 23.2273 76.0042 23.1364C76.2694 23.0417 76.4986 22.9015 76.6917 22.7159C76.8849 22.5303 77.0327 22.3011 77.1349 22.0284L78.7429 22.3182C78.6141 22.7917 78.383 23.2064 78.0497 23.5625C77.7202 23.9148 77.3054 24.1894 76.8054 24.3864C76.3092 24.5795 75.7429 24.6761 75.1065 24.6761ZM83.2755 24.6932C82.7225 24.6932 82.2225 24.5909 81.7755 24.3864C81.3286 24.178 80.9744 23.8769 80.713 23.4829C80.4555 23.089 80.3267 22.6061 80.3267 22.0341C80.3267 21.5417 80.4214 21.1364 80.6108 20.8182C80.8002 20.5 81.0558 20.2481 81.3778 20.0625C81.6998 19.8769 82.0596 19.7367 82.4574 19.642C82.8551 19.5473 83.2604 19.4754 83.6733 19.4261C84.196 19.3655 84.6202 19.3163 84.946 19.2784C85.2718 19.2367 85.5085 19.1704 85.6562 19.0795C85.804 18.9886 85.8778 18.8409 85.8778 18.6364V18.5966C85.8778 18.1004 85.7377 17.7159 85.4574 17.4432C85.1808 17.1704 84.768 17.0341 84.2187 17.0341C83.6468 17.0341 83.196 17.161 82.8665 17.4148C82.5407 17.6648 82.3153 17.9432 82.1903 18.25L80.5937 17.8864C80.7831 17.3561 81.0596 16.928 81.4233 16.6023C81.7907 16.2727 82.213 16.0341 82.6903 15.8864C83.1676 15.7348 83.6695 15.6591 84.196 15.6591C84.5445 15.6591 84.9138 15.7008 85.304 15.7841C85.6979 15.8636 86.0653 16.0114 86.4062 16.2273C86.7509 16.4432 87.0331 16.7519 87.2528 17.1534C87.4725 17.5511 87.5824 18.0682 87.5824 18.7045V24.5H85.9233V23.3068H85.8551C85.7452 23.5265 85.5805 23.7424 85.3608 23.9545C85.1411 24.1667 84.8589 24.3428 84.5142 24.4829C84.1695 24.6231 83.7566 24.6932 83.2755 24.6932ZM83.6449 23.3295C84.1146 23.3295 84.5161 23.2367 84.8494 23.0511C85.1865 22.8655 85.4422 22.6231 85.6165 22.3239C85.7945 22.0208 85.8835 21.697 85.8835 21.3523V20.2273C85.8229 20.2879 85.7055 20.3447 85.5312 20.3977C85.3608 20.447 85.1657 20.4905 84.946 20.5284C84.7263 20.5625 84.5123 20.5947 84.304 20.625C84.0956 20.6515 83.9214 20.6742 83.7812 20.6932C83.4517 20.7348 83.1505 20.8049 82.8778 20.9034C82.6089 21.0019 82.393 21.1439 82.2301 21.3295C82.071 21.5114 81.9915 21.7538 81.9915 22.0568C81.9915 22.4773 82.1468 22.7954 82.4574 23.0114C82.768 23.2235 83.1638 23.3295 83.6449 23.3295ZM93.1122 24.6704C92.4076 24.6704 91.7789 24.4905 91.2258 24.1307C90.6766 23.767 90.2448 23.25 89.9304 22.5795C89.6198 21.9053 89.4645 21.0966 89.4645 20.1534C89.4645 19.2102 89.6217 18.4034 89.9361 17.7329C90.2542 17.0625 90.6898 16.5492 91.2429 16.1932C91.7959 15.8371 92.4228 15.6591 93.1236 15.6591C93.6652 15.6591 94.1008 15.75 94.4304 15.9318C94.7637 16.1098 95.0213 16.3182 95.2031 16.5568C95.3887 16.7954 95.5326 17.0057 95.6349 17.1875H95.7372V12.8636H97.4361V24.5H95.777V23.142H95.6349C95.5326 23.3276 95.3849 23.5398 95.1917 23.7784C95.0023 24.017 94.741 24.2254 94.4076 24.4034C94.0743 24.5814 93.6425 24.6704 93.1122 24.6704ZM93.4872 23.2216C93.9758 23.2216 94.3887 23.0928 94.7258 22.8352C95.0667 22.5739 95.3243 22.2121 95.4986 21.75C95.6766 21.2879 95.7656 20.75 95.7656 20.1364C95.7656 19.5303 95.6785 19 95.5042 18.5454C95.33 18.0909 95.0743 17.7367 94.7372 17.4829C94.4001 17.2292 93.9834 17.1023 93.4872 17.1023C92.9758 17.1023 92.5497 17.2348 92.2088 17.5C91.8679 17.7651 91.6103 18.1269 91.4361 18.5852C91.2656 19.0436 91.1804 19.5606 91.1804 20.1364C91.1804 20.7197 91.2675 21.2443 91.4417 21.7102C91.616 22.1761 91.8736 22.5454 92.2145 22.8182C92.5592 23.0871 92.9834 23.2216 93.4872 23.2216ZM100.935 27.7727C100.681 27.7727 100.45 27.7519 100.241 27.7102C100.033 27.6723 99.8778 27.6307 99.7755 27.5852L100.185 26.1932C100.495 26.2765 100.772 26.3125 101.014 26.3011C101.257 26.2898 101.471 26.1989 101.656 26.0284C101.846 25.8579 102.012 25.5795 102.156 25.1932L102.366 24.6136L99.1733 15.7727H100.991L103.202 22.5454H103.293L105.503 15.7727H107.327L103.73 25.6648C103.563 26.1193 103.351 26.5038 103.094 26.8182C102.836 27.1364 102.529 27.375 102.173 27.5341C101.817 27.6932 101.404 27.7727 100.935 27.7727ZM117.311 15.7727V17.1364H112.379V15.7727H117.311ZM113.732 24.5V14.7614C113.732 14.2159 113.851 13.7633 114.089 13.4034C114.328 13.0398 114.644 12.7689 115.038 12.5909C115.432 12.4091 115.86 12.3182 116.322 12.3182C116.663 12.3182 116.955 12.3466 117.197 12.4034C117.44 12.4564 117.62 12.5057 117.737 12.5511L117.339 13.9261C117.26 13.9034 117.158 13.8769 117.033 13.8466C116.908 13.8125 116.756 13.7954 116.578 13.7954C116.165 13.7954 115.87 13.8977 115.692 14.1023C115.517 14.3068 115.43 14.6023 115.43 14.9886V24.5H113.732ZM122.396 24.6761C121.578 24.6761 120.864 24.4886 120.254 24.1136C119.644 23.7386 119.171 23.214 118.834 22.5398C118.497 21.8655 118.328 21.0776 118.328 20.1761C118.328 19.2708 118.497 18.4792 118.834 17.8011C119.171 17.1231 119.644 16.5966 120.254 16.2216C120.864 15.8466 121.578 15.6591 122.396 15.6591C123.214 15.6591 123.928 15.8466 124.538 16.2216C125.148 16.5966 125.622 17.1231 125.959 17.8011C126.296 18.4792 126.464 19.2708 126.464 20.1761C126.464 21.0776 126.296 21.8655 125.959 22.5398C125.622 23.214 125.148 23.7386 124.538 24.1136C123.928 24.4886 123.214 24.6761 122.396 24.6761ZM122.402 23.25C122.932 23.25 123.372 23.1098 123.72 22.8295C124.069 22.5492 124.326 22.1761 124.493 21.7102C124.663 21.2443 124.749 20.7311 124.749 20.1704C124.749 19.6136 124.663 19.1023 124.493 18.6364C124.326 18.1667 124.069 17.7898 123.72 17.5057C123.372 17.2216 122.932 17.0795 122.402 17.0795C121.868 17.0795 121.425 17.2216 121.072 17.5057C120.724 17.7898 120.464 18.1667 120.294 18.6364C120.127 19.1023 120.044 19.6136 120.044 20.1704C120.044 20.7311 120.127 21.2443 120.294 21.7102C120.464 22.1761 120.724 22.5492 121.072 22.8295C121.425 23.1098 121.868 23.25 122.402 23.25ZM128.361 24.5V15.7727H130.003V17.1591H130.094C130.253 16.6894 130.533 16.3201 130.935 16.0511C131.34 15.7784 131.798 15.642 132.31 15.642C132.416 15.642 132.541 15.6458 132.685 15.6534C132.832 15.661 132.948 15.6704 133.031 15.6818V17.3068C132.963 17.2879 132.842 17.267 132.668 17.2443C132.493 17.2178 132.319 17.2045 132.145 17.2045C131.743 17.2045 131.385 17.2898 131.071 17.4602C130.76 17.6269 130.514 17.8598 130.332 18.1591C130.151 18.4545 130.06 18.7917 130.06 19.1704V24.5H128.361Z" fill="#E8E8E8"/>
<path d="M69.0493 35.1751C68.9809 34.9215 68.8803 34.6981 68.7475 34.505C68.6147 34.3078 68.4517 34.1407 68.2585 34.0039C68.0653 33.8671 67.844 33.7644 67.5944 33.696C67.3449 33.6236 67.0712 33.5873 66.7734 33.5873C66.1738 33.5873 65.6546 33.7322 65.2159 34.022C64.7812 34.3118 64.4452 34.7344 64.2077 35.2898C63.9703 35.8411 63.8515 36.5112 63.8515 37.3001C63.8515 38.0929 63.9662 38.769 64.1957 39.3285C64.4251 39.8879 64.7571 40.3145 65.1917 40.6083C65.6264 40.9021 66.1536 41.049 66.7734 41.049C67.3208 41.049 67.7836 40.9605 68.1619 40.7834C68.5443 40.6023 68.834 40.3467 69.0312 40.0167C69.2284 39.6867 69.327 39.2983 69.327 38.8516L69.8824 38.918H66.876V36.7386H72.2067V38.3746C72.2067 39.4814 71.9712 40.4292 71.5003 41.218C71.0335 42.0069 70.3895 42.6126 69.5685 43.0351C68.7515 43.4577 67.8118 43.669 66.7493 43.669C65.5701 43.669 64.5337 43.4135 63.6403 42.9023C62.7468 42.3912 62.0505 41.6627 61.5515 40.717C61.0524 39.7672 60.8029 38.6403 60.8029 37.3363C60.8029 36.3221 60.9538 35.4226 61.2557 34.6378C61.5575 33.8489 61.9781 33.1809 62.5174 32.6335C63.0607 32.0862 63.6885 31.6716 64.4009 31.3899C65.1173 31.1082 65.888 30.9673 66.7131 30.9673C67.4294 30.9673 68.0955 31.0699 68.7113 31.2752C69.3311 31.4805 69.8784 31.7702 70.3533 32.1445C70.8322 32.5188 71.2206 32.9635 71.5184 33.4787C71.8163 33.9938 72.0014 34.5593 72.0738 35.1751H69.0493ZM74.549 43.5V34.2273H77.501V43.5H74.549ZM76.028 33.1467C75.6135 33.1467 75.2573 33.0098 74.9595 32.7361C74.6617 32.4584 74.5128 32.1244 74.5128 31.734C74.5128 31.3476 74.6617 31.0176 74.9595 30.744C75.2573 30.4663 75.6135 30.3274 76.028 30.3274C76.4466 30.3274 76.8028 30.4663 77.0966 30.744C77.3944 31.0176 77.5433 31.3476 77.5433 31.734C77.5433 32.1244 77.3944 32.4584 77.0966 32.7361C76.8028 33.0098 76.4466 33.1467 76.028 33.1467ZM84.6141 34.2273V36.4006H78.7643V34.2273H84.6141ZM79.9898 32.0057H82.9418V40.5842C82.9418 40.7653 82.97 40.9122 83.0263 41.0248C83.0867 41.1335 83.1732 41.212 83.2859 41.2603C83.3986 41.3046 83.5334 41.3267 83.6904 41.3267C83.8031 41.3267 83.9218 41.3166 84.0466 41.2965C84.1754 41.2724 84.272 41.2522 84.3364 41.2361L84.7831 43.3672C84.6422 43.4074 84.443 43.4577 84.1854 43.5181C83.9319 43.5785 83.628 43.6167 83.2739 43.6328C82.5816 43.665 81.988 43.5845 81.493 43.3913C81.002 43.1941 80.6257 42.8882 80.3641 42.4737C80.1065 42.0592 79.9817 41.538 79.9898 40.9101V32.0057ZM86.3195 43.5V31.1364H89.3078V36.0987H94.1796V31.1364H97.1618V43.5H94.1796V38.5316H89.3078V43.5H86.3195ZM105.019 39.4975V34.2273H107.965V43.5H105.152V41.7734H105.055C104.85 42.3409 104.5 42.7917 104.005 43.1257C103.514 43.4557 102.92 43.6207 102.224 43.6207C101.592 43.6207 101.037 43.4758 100.558 43.1861C100.079 42.8963 99.7064 42.4918 99.4408 41.9726C99.1751 41.4494 99.0403 40.8377 99.0363 40.1374V34.2273H101.988V39.5579C101.992 40.061 102.125 40.4574 102.387 40.7471C102.648 41.0369 103.005 41.1818 103.455 41.1818C103.749 41.1818 104.013 41.1174 104.246 40.9886C104.484 40.8558 104.671 40.6646 104.808 40.4151C104.948 40.1616 105.019 39.8557 105.019 39.4975ZM109.844 43.5V31.1364H112.796V35.815H112.856C112.977 35.5333 113.148 35.2616 113.369 35C113.595 34.7384 113.881 34.5251 114.227 34.3601C114.577 34.191 114.995 34.1065 115.482 34.1065C116.126 34.1065 116.728 34.2756 117.287 34.6136C117.851 34.9517 118.306 35.4729 118.652 36.1772C118.998 36.8815 119.171 37.779 119.171 38.8697C119.171 39.9201 119.004 40.7995 118.67 41.5078C118.34 42.2161 117.893 42.7474 117.33 43.1016C116.77 43.4557 116.148 43.6328 115.464 43.6328C114.997 43.6328 114.593 43.5563 114.251 43.4034C113.909 43.2505 113.621 43.0492 113.388 42.7997C113.158 42.5502 112.981 42.2825 112.856 41.9968H112.766V43.5H109.844ZM112.736 38.8636C112.736 39.3627 112.802 39.7973 112.935 40.1676C113.072 40.5379 113.267 40.8256 113.52 41.0309C113.778 41.2321 114.086 41.3327 114.444 41.3327C114.806 41.3327 115.114 41.2321 115.368 41.0309C115.621 40.8256 115.812 40.5379 115.941 40.1676C116.074 39.7973 116.14 39.3627 116.14 38.8636C116.14 38.3646 116.074 37.9319 115.941 37.5657C115.812 37.1994 115.621 36.9157 115.368 36.7145C115.118 36.5132 114.81 36.4126 114.444 36.4126C114.082 36.4126 113.774 36.5112 113.52 36.7084C113.267 36.9056 113.072 37.1874 112.935 37.5536C112.802 37.9199 112.736 38.3565 112.736 38.8636ZM135.593 35.6158H132.574C132.534 35.3059 132.452 35.0261 132.327 34.7766C132.202 34.5271 132.037 34.3138 131.832 34.1367C131.627 33.9596 131.383 33.8248 131.101 33.7322C130.824 33.6356 130.516 33.5873 130.178 33.5873C129.578 33.5873 129.061 33.7342 128.626 34.028C128.196 34.3218 127.864 34.7464 127.63 35.3018C127.401 35.8572 127.286 36.5293 127.286 37.3182C127.286 38.1392 127.403 38.8274 127.636 39.3828C127.874 39.9342 128.206 40.3507 128.632 40.6324C129.063 40.9101 129.572 41.049 130.16 41.049C130.49 41.049 130.79 41.0067 131.059 40.9222C131.333 40.8377 131.572 40.715 131.778 40.554C131.987 40.389 132.158 40.1897 132.291 39.9563C132.428 39.7189 132.522 39.4512 132.574 39.1534L135.593 39.1715C135.541 39.7189 135.382 40.2582 135.116 40.7894C134.854 41.3207 134.494 41.8056 134.035 42.2443C133.577 42.679 133.017 43.0251 132.357 43.2827C131.701 43.5402 130.949 43.669 130.099 43.669C128.98 43.669 127.978 43.4235 127.093 42.9325C126.212 42.4375 125.515 41.7171 125.004 40.7713C124.493 39.8255 124.237 38.6745 124.237 37.3182C124.237 35.9578 124.497 34.8048 125.016 33.859C125.535 32.9132 126.238 32.1948 127.123 31.7038C128.009 31.2128 129.001 30.9673 130.099 30.9673C130.848 30.9673 131.54 31.072 132.176 31.2812C132.812 31.4865 133.371 31.7883 133.854 32.1868C134.337 32.5812 134.73 33.0662 135.031 33.6417C135.333 34.2172 135.52 34.8752 135.593 35.6158ZM141.631 43.6751C140.657 43.6751 139.82 43.4758 139.12 43.0774C138.424 42.6749 137.886 42.1155 137.508 41.3991C137.134 40.6787 136.947 39.8436 136.947 38.8938C136.947 37.94 137.134 37.1049 137.508 36.3885C137.886 35.6681 138.424 35.1087 139.12 34.7102C139.82 34.3078 140.657 34.1065 141.631 34.1065C142.605 34.1065 143.44 34.3078 144.137 34.7102C144.837 35.1087 145.374 35.6681 145.749 36.3885C146.127 37.1049 146.316 37.94 146.316 38.8938C146.316 39.8436 146.127 40.6787 145.749 41.3991C145.374 42.1155 144.837 42.6749 144.137 43.0774C143.44 43.4758 142.605 43.6751 141.631 43.6751ZM141.649 41.4474C142.004 41.4474 142.303 41.3388 142.549 41.1214C142.794 40.9041 142.982 40.6023 143.11 40.2159C143.243 39.8295 143.31 39.3828 143.31 38.8757C143.31 38.3605 143.243 37.9098 143.11 37.5234C142.982 37.1371 142.794 36.8352 142.549 36.6179C142.303 36.4006 142.004 36.2919 141.649 36.2919C141.283 36.2919 140.973 36.4006 140.72 36.6179C140.47 36.8352 140.279 37.1371 140.146 37.5234C140.017 37.9098 139.953 38.3605 139.953 38.8757C139.953 39.3828 140.017 39.8295 140.146 40.2159C140.279 40.6023 140.47 40.9041 140.72 41.1214C140.973 41.3388 141.283 41.4474 141.649 41.4474ZM151.215 43.6328C150.531 43.6328 149.909 43.4557 149.35 43.1016C148.79 42.7474 148.343 42.2161 148.009 41.5078C147.675 40.7995 147.508 39.9201 147.508 38.8697C147.508 37.779 147.681 36.8815 148.027 36.1772C148.374 35.4729 148.826 34.9517 149.386 34.6136C149.949 34.2756 150.555 34.1065 151.203 34.1065C151.69 34.1065 152.106 34.191 152.453 34.3601C152.799 34.5251 153.084 34.7384 153.31 35C153.535 35.2616 153.706 35.5333 153.823 35.815H153.883V31.1364H156.835V43.5H153.913V41.9968H153.823C153.698 42.2825 153.521 42.5502 153.292 42.7997C153.062 43.0492 152.775 43.2505 152.428 43.4034C152.086 43.5563 151.682 43.6328 151.215 43.6328ZM152.241 41.3327C152.599 41.3327 152.905 41.2321 153.159 41.0309C153.412 40.8256 153.608 40.5379 153.744 40.1676C153.881 39.7973 153.95 39.3627 153.95 38.8636C153.95 38.3565 153.881 37.9199 153.744 37.5536C153.612 37.1874 153.416 36.9056 153.159 36.7084C152.905 36.5112 152.599 36.4126 152.241 36.4126C151.875 36.4126 151.565 36.5132 151.312 36.7145C151.058 36.9157 150.865 37.1994 150.732 37.5657C150.603 37.9319 150.539 38.3646 150.539 38.8636C150.539 39.3627 150.605 39.7973 150.738 40.1676C150.871 40.5379 151.062 40.8256 151.312 41.0309C151.565 41.2321 151.875 41.3327 152.241 41.3327ZM163.037 43.6751C162.067 43.6751 161.23 43.4839 160.525 43.1016C159.825 42.7152 159.286 42.1658 158.908 41.4535C158.533 40.7371 158.346 39.8859 158.346 38.8998C158.346 37.942 158.535 37.1049 158.914 36.3885C159.292 35.6681 159.825 35.1087 160.513 34.7102C161.202 34.3078 162.013 34.1065 162.946 34.1065C163.606 34.1065 164.21 34.2092 164.757 34.4144C165.305 34.6197 165.778 34.9235 166.176 35.326C166.574 35.7284 166.884 36.2255 167.106 36.8171C167.327 37.4047 167.438 38.0788 167.438 38.8395V39.576H159.378V37.8615H164.691C164.687 37.5476 164.612 37.2679 164.468 37.0224C164.323 36.7769 164.123 36.5857 163.87 36.4489C163.62 36.308 163.333 36.2376 163.007 36.2376C162.677 36.2376 162.381 36.312 162.119 36.4609C161.858 36.6058 161.65 36.805 161.497 37.0586C161.344 37.3081 161.264 37.5918 161.256 37.9098V39.6545C161.256 40.0328 161.33 40.3648 161.479 40.6506C161.628 40.9323 161.839 41.1516 162.113 41.3086C162.387 41.4655 162.713 41.544 163.091 41.544C163.353 41.544 163.59 41.5078 163.803 41.4354C164.017 41.3629 164.2 41.2563 164.353 41.1154C164.506 40.9745 164.62 40.8015 164.697 40.5962L167.408 40.6747C167.295 41.2824 167.047 41.8117 166.665 42.2624C166.287 42.7092 165.79 43.0573 165.174 43.3068C164.558 43.5523 163.846 43.6751 163.037 43.6751ZM177.041 37.0586L174.33 37.131C174.302 36.9378 174.226 36.7668 174.101 36.6179C173.976 36.465 173.813 36.3462 173.612 36.2617C173.415 36.1732 173.185 36.1289 172.924 36.1289C172.582 36.1289 172.29 36.1973 172.048 36.3342C171.811 36.471 171.694 36.6561 171.698 36.8895C171.694 37.0707 171.767 37.2276 171.916 37.3604C172.069 37.4932 172.34 37.5999 172.731 37.6804L174.518 38.0185C175.443 38.1955 176.131 38.4893 176.582 38.8998C177.037 39.3104 177.266 39.8537 177.27 40.5298C177.266 41.1657 177.077 41.7191 176.703 42.19C176.333 42.6609 175.826 43.0271 175.182 43.2887C174.538 43.5463 173.801 43.6751 172.972 43.6751C171.648 43.6751 170.604 43.4034 169.839 42.8601C169.078 42.3127 168.644 41.5802 168.535 40.6626L171.451 40.5902C171.515 40.9283 171.682 41.1858 171.952 41.3629C172.221 41.54 172.566 41.6285 172.984 41.6285C173.362 41.6285 173.67 41.5581 173.908 41.4172C174.145 41.2764 174.266 41.0892 174.27 40.8558C174.266 40.6465 174.173 40.4795 173.992 40.3547C173.811 40.226 173.527 40.1253 173.141 40.0529L171.523 39.745C170.594 39.576 169.901 39.2641 169.447 38.8093C168.992 38.3505 168.766 37.7669 168.77 37.0586C168.766 36.4388 168.931 35.9096 169.265 35.4709C169.599 35.0282 170.074 34.6901 170.69 34.4567C171.306 34.2232 172.032 34.1065 172.869 34.1065C174.125 34.1065 175.115 34.3701 175.84 34.8974C176.564 35.4206 176.964 36.141 177.041 37.0586ZM178.724 46.9773V34.2273H181.646V35.815H181.736C181.857 35.5333 182.028 35.2616 182.249 35C182.475 34.7384 182.76 34.5251 183.107 34.3601C183.457 34.191 183.875 34.1065 184.362 34.1065C185.006 34.1065 185.608 34.2756 186.167 34.6136C186.731 34.9517 187.186 35.4729 187.532 36.1772C187.878 36.8815 188.051 37.779 188.051 38.8697C188.051 39.9201 187.884 40.7995 187.55 41.5078C187.22 42.2161 186.773 42.7474 186.21 43.1016C185.65 43.4557 185.028 43.6328 184.344 43.6328C183.877 43.6328 183.473 43.5563 183.131 43.4034C182.789 43.2505 182.501 43.0492 182.267 42.7997C182.038 42.5502 181.861 42.2825 181.736 41.9968H181.676V46.9773H178.724ZM181.615 38.8636C181.615 39.3627 181.682 39.7973 181.815 40.1676C181.952 40.5379 182.147 40.8256 182.4 41.0309C182.658 41.2321 182.966 41.3327 183.324 41.3327C183.686 41.3327 183.994 41.2321 184.248 41.0309C184.501 40.8256 184.692 40.5379 184.821 40.1676C184.954 39.7973 185.02 39.3627 185.02 38.8636C185.02 38.3646 184.954 37.9319 184.821 37.5657C184.692 37.1994 184.501 36.9157 184.248 36.7145C183.998 36.5132 183.69 36.4126 183.324 36.4126C182.962 36.4126 182.654 36.5112 182.4 36.7084C182.147 36.9056 181.952 37.1874 181.815 37.5536C181.682 37.9199 181.615 38.3565 181.615 38.8636ZM192.212 43.6569C191.62 43.6569 191.095 43.5583 190.636 43.3611C190.181 43.1599 189.821 42.8581 189.556 42.4556C189.294 42.0491 189.163 41.54 189.163 40.9283C189.163 40.4131 189.254 39.9784 189.435 39.6243C189.616 39.2701 189.865 38.9824 190.183 38.761C190.501 38.5396 190.868 38.3726 191.282 38.2599C191.697 38.1432 192.139 38.0647 192.61 38.0245C193.137 37.9762 193.562 37.9259 193.884 37.8736C194.206 37.8172 194.439 37.7387 194.584 37.6381C194.733 37.5335 194.808 37.3866 194.808 37.1974V37.1672C194.808 36.8574 194.701 36.6179 194.488 36.4489C194.274 36.2798 193.987 36.1953 193.624 36.1953C193.234 36.1953 192.92 36.2798 192.683 36.4489C192.445 36.6179 192.294 36.8513 192.23 37.1491L189.507 37.0525C189.588 36.4891 189.795 35.986 190.129 35.5433C190.467 35.0966 190.93 34.7464 191.518 34.4929C192.109 34.2353 192.819 34.1065 193.649 34.1065C194.24 34.1065 194.786 34.177 195.285 34.3178C195.784 34.4547 196.218 34.6559 196.589 34.9215C196.959 35.1831 197.245 35.5051 197.446 35.8874C197.651 36.2698 197.754 36.7064 197.754 37.1974V43.5H194.977V42.2081H194.904C194.739 42.522 194.528 42.7876 194.27 43.005C194.017 43.2223 193.717 43.3853 193.371 43.494C193.029 43.6026 192.642 43.6569 192.212 43.6569ZM193.123 41.7251C193.441 41.7251 193.727 41.6607 193.981 41.5319C194.238 41.4032 194.443 41.2261 194.596 41.0007C194.749 40.7713 194.826 40.5057 194.826 40.2038V39.3224C194.741 39.3667 194.639 39.4069 194.518 39.4432C194.401 39.4794 194.272 39.5136 194.132 39.5458C193.991 39.578 193.846 39.6062 193.697 39.6303C193.548 39.6545 193.405 39.6766 193.268 39.6967C192.991 39.741 192.753 39.8094 192.556 39.902C192.363 39.9945 192.214 40.1153 192.109 40.2642C192.009 40.4091 191.958 40.5821 191.958 40.7834C191.958 41.0892 192.067 41.3227 192.284 41.4837C192.506 41.6446 192.785 41.7251 193.123 41.7251ZM203.887 43.6751C202.909 43.6751 202.07 43.4738 201.37 43.0714C200.674 42.6689 200.138 42.1095 199.764 41.3931C199.39 40.6727 199.203 39.8396 199.203 38.8938C199.203 37.944 199.39 37.1109 199.764 36.3945C200.142 35.6741 200.68 35.1127 201.376 34.7102C202.076 34.3078 202.911 34.1065 203.881 34.1065C204.738 34.1065 205.485 34.2615 206.121 34.5714C206.761 34.8813 207.26 35.3199 207.618 35.8874C207.98 36.4509 208.171 37.1129 208.192 37.8736H205.433C205.376 37.3987 205.215 37.0264 204.95 36.7567C204.688 36.4871 204.346 36.3523 203.923 36.3523C203.581 36.3523 203.281 36.4489 203.024 36.642C202.766 36.8312 202.565 37.1129 202.42 37.4872C202.279 37.8575 202.209 38.3163 202.209 38.8636C202.209 39.411 202.279 39.8738 202.42 40.2521C202.565 40.6264 202.766 40.9101 203.024 41.1033C203.281 41.2925 203.581 41.3871 203.923 41.3871C204.197 41.3871 204.439 41.3287 204.648 41.212C204.861 41.0953 205.036 40.9242 205.173 40.6989C205.31 40.4694 205.396 40.1918 205.433 39.8658H208.192C208.163 40.6304 207.972 41.2985 207.618 41.87C207.268 42.4415 206.775 42.8862 206.139 43.2042C205.507 43.5181 204.757 43.6751 203.887 43.6751ZM214.037 43.6751C213.067 43.6751 212.23 43.4839 211.525 43.1016C210.825 42.7152 210.286 42.1658 209.908 41.4535C209.533 40.7371 209.346 39.8859 209.346 38.8998C209.346 37.942 209.535 37.1049 209.914 36.3885C210.292 35.6681 210.825 35.1087 211.513 34.7102C212.202 34.3078 213.013 34.1065 213.946 34.1065C214.606 34.1065 215.21 34.2092 215.757 34.4144C216.305 34.6197 216.778 34.9235 217.176 35.326C217.574 35.7284 217.884 36.2255 218.106 36.8171C218.327 37.4047 218.438 38.0788 218.438 38.8395V39.576H210.378V37.8615H215.691C215.687 37.5476 215.612 37.2679 215.468 37.0224C215.323 36.7769 215.123 36.5857 214.87 36.4489C214.62 36.308 214.333 36.2376 214.007 36.2376C213.677 36.2376 213.381 36.312 213.119 36.4609C212.858 36.6058 212.65 36.805 212.497 37.0586C212.344 37.3081 212.264 37.5918 212.256 37.9098V39.6545C212.256 40.0328 212.33 40.3648 212.479 40.6506C212.628 40.9323 212.839 41.1516 213.113 41.3086C213.387 41.4655 213.713 41.544 214.091 41.544C214.353 41.544 214.59 41.5078 214.803 41.4354C215.017 41.3629 215.2 41.2563 215.353 41.1154C215.506 40.9745 215.62 40.8015 215.697 40.5962L218.408 40.6747C218.295 41.2824 218.047 41.8117 217.665 42.2624C217.287 42.7092 216.79 43.0573 216.174 43.3068C215.558 43.5523 214.846 43.6751 214.037 43.6751ZM228.041 37.0586L225.33 37.131C225.302 36.9378 225.226 36.7668 225.101 36.6179C224.976 36.465 224.813 36.3462 224.612 36.2617C224.415 36.1732 224.185 36.1289 223.924 36.1289C223.582 36.1289 223.29 36.1973 223.048 36.3342C222.811 36.471 222.694 36.6561 222.698 36.8895C222.694 37.0707 222.767 37.2276 222.916 37.3604C223.069 37.4932 223.34 37.5999 223.731 37.6804L225.518 38.0185C226.443 38.1955 227.131 38.4893 227.582 38.8998C228.037 39.3104 228.266 39.8537 228.27 40.5298C228.266 41.1657 228.077 41.7191 227.703 42.19C227.333 42.6609 226.826 43.0271 226.182 43.2887C225.538 43.5463 224.801 43.6751 223.972 43.6751C222.648 43.6751 221.604 43.4034 220.839 42.8601C220.078 42.3127 219.644 41.5802 219.535 40.6626L222.451 40.5902C222.515 40.9283 222.682 41.1858 222.952 41.3629C223.221 41.54 223.566 41.6285 223.984 41.6285C224.362 41.6285 224.67 41.5581 224.908 41.4172C225.145 41.2764 225.266 41.0892 225.27 40.8558C225.266 40.6465 225.173 40.4795 224.992 40.3547C224.811 40.226 224.527 40.1253 224.141 40.0529L222.523 39.745C221.594 39.576 220.901 39.2641 220.446 38.8093C219.992 38.3505 219.766 37.7669 219.77 37.0586C219.766 36.4388 219.931 35.9096 220.265 35.4709C220.599 35.0282 221.074 34.6901 221.69 34.4567C222.306 34.2232 223.032 34.1065 223.869 34.1065C225.125 34.1065 226.115 34.3701 226.84 34.8974C227.564 35.4206 227.964 36.141 228.041 37.0586Z" fill="#EFEFEF"/>
</g>
</g>
<rect x="1.05" y="1.05" width="238.9" height="53.9" rx="6.95" stroke="white" stroke-opacity="0.15" stroke-width="2.1"/>
<defs>
<filter id="filter0_d_1_50" x="5.66071" y="2.28571" width="194.053" height="150.428" filterUnits="userSpaceOnUse" color-interpolation-filters="sRGB">
<feFlood flood-opacity="0" result="BackgroundImageFix"/>
<feColorMatrix in="SourceAlpha" type="matrix" values="0 0 0 0 0 0 0 0 0 0 0 0 0 0 0 0 0 0 127 0" result="hardAlpha"/>
<feOffset/>
<feGaussianBlur stdDeviation="2.85714"/>
<feComposite in2="hardAlpha" operator="out"/>
<feColorMatrix type="matrix" values="0 0 0 0 0 0 0 0 0 0 0 0 0 0 0 0 0 0 0.25 0"/>
<feBlend mode="normal" in2="BackgroundImageFix" result="effect1_dropShadow_1_50"/>
<feBlend mode="normal" in="SourceGraphic" in2="effect1_dropShadow_1_50" result="shape"/>
</filter>
<filter id="filter1_d_1_50" x="54.4" y="3.9" width="180.2" height="48.6773" filterUnits="userSpaceOnUse" color-interpolation-filters="sRGB">
<feFlood flood-opacity="0" result="BackgroundImageFix"/>
<feColorMatrix in="SourceAlpha" type="matrix" values="0 0 0 0 0 0 0 0 0 0 0 0 0 0 0 0 0 0 127 0" result="hardAlpha"/>
<feOffset/>
<feGaussianBlur stdDeviation="2.8"/>
<feComposite in2="hardAlpha" operator="out"/>
<feColorMatrix type="matrix" values="0 0 0 0 0 0 0 0 0 0 0 0 0 0 0 0 0 0 0.25 0"/>
<feBlend mode="normal" in2="BackgroundImageFix" result="effect1_dropShadow_1_50"/>
<feBlend mode="normal" in="SourceGraphic" in2="effect1_dropShadow_1_50" result="shape"/>
</filter>
<linearGradient id="paint0_linear_1_50" x1="120.5" y1="0" x2="120.5" y2="56" gradientUnits="userSpaceOnUse">
<stop stop-color="#181F29"/>
<stop offset="1" stop-color="#0F131A"/>
</linearGradient>
<clipPath id="clip0_1_50">
<rect width="241" height="56" rx="8" fill="white"/>
</clipPath>
</defs>
</svg>
