<svg width="213" height="40" viewBox="0 0 213 40" fill="none" xmlns="http://www.w3.org/2000/svg">
<rect width="213.001" height="40.0014" rx="8" fill="url(#paint0_linear_1_56)"/>
<rect x="1.07143" y="1.07143" width="210.858" height="37.8585" rx="6.92857" stroke="white" stroke-opacity="0.15" stroke-width="2.14286"/>
<g filter="url(#filter0_d_1_56)">
<path d="M22.0859 34L8.875 26.9811L13.3933 24.5996L18.4801 27.3009L22.7486 25.0508L17.6616 22.3495L22.1799 19.9624L35.3908 26.9813L30.8725 29.3627L26.0666 26.81L21.7925 29.0657L26.6043 31.6186L22.0859 34Z" fill="black"/>
<path d="M22.0859 20.0376L8.875 13.0187L13.393 10.6373L18.4801 13.3386L22.7483 11.0884L17.6612 8.38717L22.1796 6L35.3905 13.0189L30.8725 15.4003L26.0666 12.8476L21.7921 15.1034L26.6039 17.6562L22.0859 20.0376Z" fill="url(#paint1_linear_1_56)"/>
</g>
<g filter="url(#filter1_d_1_56)">
<path d="M43.3597 26.5007V14.1371H47.8874C48.7648 14.1371 49.4912 14.282 50.0667 14.5717C50.6423 14.8575 51.0729 15.2458 51.3586 15.7369C51.6444 16.2238 51.7873 16.7732 51.7873 17.3849C51.7873 17.9001 51.6927 18.3347 51.5035 18.6889C51.3144 19.0391 51.0608 19.3208 50.7429 19.5341C50.429 19.7434 50.0828 19.8963 49.7045 19.9929V20.1136C50.115 20.1337 50.5155 20.2666 50.9059 20.5121C51.3003 20.7535 51.6263 21.0976 51.8839 21.5444C52.1414 21.9911 52.2702 22.5344 52.2702 23.1743C52.2702 23.8062 52.1213 24.3737 51.8235 24.8768C51.5297 25.3758 51.0749 25.7722 50.4591 26.066C49.8434 26.3558 49.0566 26.5007 48.0987 26.5007H43.3597ZM45.2251 24.9009H47.9176C48.8111 24.9009 49.451 24.7279 49.8373 24.3817C50.2237 24.0356 50.4169 23.603 50.4169 23.0838C50.4169 22.6934 50.3183 22.3352 50.1211 22.0092C49.9239 21.6832 49.6421 21.4236 49.2759 21.2305C48.9137 21.0373 48.483 20.9407 47.984 20.9407H45.2251V24.9009ZM45.2251 19.4858H47.7244C48.143 19.4858 48.5193 19.4053 48.8533 19.2443C49.1914 19.0833 49.459 18.8579 49.6562 18.5682C49.8575 18.2744 49.9581 17.9283 49.9581 17.5298C49.9581 17.0187 49.779 16.5901 49.4208 16.244C49.0626 15.8978 48.5132 15.7248 47.7727 15.7248H45.2251V19.4858ZM60.2118 22.6552V17.228H62.0229V26.5007H60.248V24.8949H60.1514C59.9381 25.3899 59.596 25.8024 59.1251 26.1324C58.6583 26.4584 58.0767 26.6214 57.3805 26.6214C56.7848 26.6214 56.2576 26.4906 55.7988 26.229C55.344 25.9634 54.9858 25.571 54.7242 25.0518C54.4667 24.5327 54.3379 23.8907 54.3379 23.1261V17.228H56.1429V22.9087C56.1429 23.5406 56.318 24.0437 56.6681 24.418C57.0183 24.7922 57.473 24.9794 58.0325 24.9794C58.3705 24.9794 58.7066 24.8949 59.0406 24.7258C59.3787 24.5568 59.6584 24.3012 59.8798 23.9591C60.1051 23.6171 60.2158 23.1824 60.2118 22.6552ZM64.4482 26.5007V17.228H66.2533V26.5007H64.4482ZM65.3598 15.7972C65.0459 15.7972 64.7762 15.6926 64.5508 15.4833C64.3295 15.27 64.2188 15.0164 64.2188 14.7226C64.2188 14.4248 64.3295 14.1713 64.5508 13.962C64.7762 13.7487 65.0459 13.642 65.3598 13.642C65.6737 13.642 65.9413 13.7487 66.1627 13.962C66.3881 14.1713 66.5008 14.4248 66.5008 14.7226C66.5008 15.0164 66.3881 15.27 66.1627 15.4833C65.9413 15.6926 65.6737 15.7972 65.3598 15.7972ZM70.4867 14.1371V26.5007H68.6816V14.1371H70.4867ZM77.2435 17.228V18.6768H72.1785V17.228H77.2435ZM73.5368 15.0064H75.3419V23.778C75.3419 24.1282 75.3942 24.3918 75.4988 24.5689C75.6035 24.7419 75.7383 24.8607 75.9033 24.9251C76.0723 24.9854 76.2554 25.0156 76.4526 25.0156C76.5975 25.0156 76.7243 25.0056 76.833 24.9854C76.9416 24.9653 77.0262 24.9492 77.0865 24.9371L77.4125 26.4283C77.3079 26.4685 77.159 26.5087 76.9658 26.549C76.7726 26.5933 76.5311 26.6174 76.2414 26.6214C75.7664 26.6295 75.3237 26.545 74.9132 26.3679C74.5027 26.1908 74.1707 25.9171 73.9171 25.5469C73.6636 25.1766 73.5368 24.7118 73.5368 24.1523V15.0064ZM85.7495 26.5007L83.0208 17.228H84.8862L86.7034 24.0376H86.7939L88.6171 17.228H90.4825L92.2936 24.0074H92.3841L94.1891 17.228H96.0546L93.3319 26.5007H91.4906L89.6071 19.8057H89.4683L87.5847 26.5007H85.7495ZM97.7675 26.5007V17.228H99.5726V26.5007H97.7675ZM98.6791 15.7972C98.3652 15.7972 98.0955 15.6926 97.8702 15.4833C97.6488 15.27 97.5381 15.0164 97.5381 14.7226C97.5381 14.4248 97.6488 14.1713 97.8702 13.962C98.0955 13.7487 98.3652 13.642 98.6791 13.642C98.993 13.642 99.2607 13.7487 99.482 13.962C99.7074 14.1713 99.8201 14.4248 99.8201 14.7226C99.8201 15.0164 99.7074 15.27 99.482 15.4833C99.2607 15.6926 98.993 15.7972 98.6791 15.7972ZM106.329 17.228V18.6768H101.264V17.228H106.329ZM102.623 15.0064H104.428V23.778C104.428 24.1282 104.48 24.3918 104.585 24.5689C104.689 24.7419 104.824 24.8607 104.989 24.9251C105.158 24.9854 105.341 25.0156 105.539 25.0156C105.683 25.0156 105.81 25.0056 105.919 24.9854C106.028 24.9653 106.112 24.9492 106.172 24.9371L106.498 26.4283C106.394 26.4685 106.245 26.5087 106.052 26.549C105.859 26.5933 105.617 26.6174 105.327 26.6214C104.852 26.6295 104.41 26.545 103.999 26.3679C103.589 26.1908 103.257 25.9171 103.003 25.5469C102.75 25.1766 102.623 24.7118 102.623 24.1523V15.0064ZM110.33 20.995V26.5007H108.525V14.1371H110.306V18.7372H110.421C110.638 18.2382 110.97 17.8417 111.417 17.5479C111.864 17.2541 112.447 17.1072 113.168 17.1072C113.804 17.1072 114.359 17.238 114.834 17.4996C115.313 17.7612 115.683 18.1516 115.945 18.6708C116.21 19.1859 116.343 19.8299 116.343 20.6026V26.5007H114.538V20.8199C114.538 20.1398 114.363 19.6126 114.013 19.2383C113.663 18.86 113.176 18.6708 112.552 18.6708C112.125 18.6708 111.743 18.7614 111.405 18.9425C111.071 19.1236 110.807 19.3892 110.614 19.7393C110.425 20.0855 110.33 20.504 110.33 20.995Z" fill="#E8E8E8"/>
<path d="M122.937 26.0007V13.6371H125.925V18.5994H130.797V13.6371H133.779V26.0007H130.797V21.0323H125.925V26.0007H122.937ZM137.459 29.478C137.105 29.478 136.771 29.4498 136.457 29.3935C136.143 29.3411 135.873 29.2707 135.648 29.1822L136.3 27.039C136.59 27.1356 136.851 27.192 137.085 27.2081C137.322 27.2242 137.525 27.1859 137.694 27.0934C137.867 27.0048 138 26.8459 138.093 26.6165L138.208 26.3388L134.911 16.728H138.002L139.711 23.3444H139.807L141.54 16.728H144.649L141.154 26.8881C140.984 27.3952 140.745 27.842 140.435 28.2283C140.129 28.6187 139.733 28.9246 139.246 29.1459C138.763 29.3673 138.167 29.478 137.459 29.478ZM148.869 26.1335C148.185 26.1335 147.563 25.9564 147.003 25.6023C146.444 25.2481 145.997 24.7168 145.663 24.0085C145.329 23.3002 145.162 22.4208 145.162 21.3704C145.162 20.2797 145.335 19.3822 145.681 18.6779C146.027 17.9736 146.48 17.4524 147.04 17.1143C147.603 16.7763 148.209 16.6072 148.857 16.6072C149.344 16.6072 149.76 16.6918 150.106 16.8608C150.452 17.0258 150.738 17.2391 150.964 17.5007C151.189 17.7623 151.36 18.034 151.477 18.3157H151.537V13.6371H154.489V26.0007H151.567V24.4975H151.477C151.352 24.7832 151.175 25.0509 150.945 25.3004C150.716 25.5499 150.428 25.7512 150.082 25.9041C149.74 26.057 149.336 26.1335 148.869 26.1335ZM149.895 23.8334C150.253 23.8334 150.559 23.7328 150.813 23.5316C151.066 23.3263 151.261 23.0386 151.398 22.6683C151.535 22.298 151.603 21.8634 151.603 21.3643C151.603 20.8572 151.535 20.4206 151.398 20.0543C151.265 19.6881 151.07 19.4064 150.813 19.2092C150.559 19.0119 150.253 18.9133 149.895 18.9133C149.529 18.9133 149.219 19.014 148.965 19.2152C148.712 19.4164 148.519 19.7002 148.386 20.0664C148.257 20.4326 148.193 20.8653 148.193 21.3643C148.193 21.8634 148.259 22.298 148.392 22.6683C148.525 23.0386 148.716 23.3263 148.965 23.5316C149.219 23.7328 149.529 23.8334 149.895 23.8334ZM156.356 26.0007V16.728H159.224V18.4183H159.32C159.489 17.8066 159.765 17.3518 160.147 17.054C160.53 16.7521 160.974 16.6012 161.481 16.6012C161.618 16.6012 161.759 16.6113 161.904 16.6314C162.049 16.6475 162.184 16.6736 162.308 16.7099V19.2756C162.168 19.2273 161.982 19.189 161.753 19.1609C161.528 19.1327 161.326 19.1186 161.149 19.1186C160.799 19.1186 160.483 19.1971 160.202 19.354C159.924 19.507 159.705 19.7223 159.544 20C159.387 20.2737 159.308 20.5956 159.308 20.9659V26.0007H156.356ZM167.358 26.1758C166.384 26.1758 165.547 25.9765 164.847 25.5781C164.151 25.1757 163.613 24.6162 163.235 23.8998C162.861 23.1794 162.674 22.3443 162.674 21.3945C162.674 20.4407 162.861 19.6056 163.235 18.8892C163.613 18.1688 164.151 17.6094 164.847 17.2109C165.547 16.8085 166.384 16.6072 167.358 16.6072C168.332 16.6072 169.167 16.8085 169.864 17.2109C170.564 17.6094 171.101 18.1688 171.476 18.8892C171.854 19.6056 172.043 20.4407 172.043 21.3945C172.043 22.3443 171.854 23.1794 171.476 23.8998C171.101 24.6162 170.564 25.1757 169.864 25.5781C169.167 25.9765 168.332 26.1758 167.358 26.1758ZM167.376 23.9481C167.731 23.9481 168.03 23.8395 168.276 23.6221C168.521 23.4048 168.709 23.103 168.837 22.7166C168.97 22.3302 169.037 21.8835 169.037 21.3764C169.037 20.8613 168.97 20.4105 168.837 20.0241C168.709 19.6378 168.521 19.3359 168.276 19.1186C168.03 18.9013 167.731 18.7926 167.376 18.7926C167.01 18.7926 166.7 18.9013 166.447 19.1186C166.197 19.3359 166.006 19.6378 165.873 20.0241C165.744 20.4105 165.68 20.8613 165.68 21.3764C165.68 21.8835 165.744 22.3302 165.873 22.7166C166.006 23.103 166.197 23.4048 166.447 23.6221C166.7 23.8395 167.01 23.9481 167.376 23.9481ZM177.878 29.6712C176.996 29.6712 176.242 29.5484 175.614 29.3029C174.986 29.0574 174.493 28.7213 174.135 28.2947C173.777 27.8681 173.561 27.3852 173.489 26.8459L176.284 26.6889C176.336 26.8781 176.433 27.0431 176.574 27.1839C176.719 27.3248 176.906 27.4335 177.135 27.5099C177.369 27.5864 177.642 27.6246 177.956 27.6246C178.451 27.6246 178.86 27.5039 179.182 27.2624C179.508 27.025 179.671 26.6084 179.671 26.0128V24.3828H179.568C179.451 24.6685 179.274 24.9241 179.037 25.1495C178.799 25.3749 178.504 25.552 178.149 25.6807C177.799 25.8095 177.397 25.8739 176.942 25.8739C176.266 25.8739 175.646 25.717 175.083 25.403C174.523 25.0851 174.074 24.5941 173.736 23.93C173.402 23.2619 173.235 22.4027 173.235 21.3523C173.235 20.2696 173.408 19.3782 173.754 18.6779C174.101 17.9736 174.553 17.4524 175.113 17.1143C175.676 16.7763 176.282 16.6072 176.93 16.6072C177.417 16.6072 177.833 16.6918 178.18 16.8608C178.53 17.0258 178.817 17.2391 179.043 17.5007C179.268 17.7623 179.439 18.034 179.556 18.3157H179.64V16.728H182.58V26.0369C182.58 26.8217 182.383 27.4838 181.989 28.0231C181.594 28.5624 181.043 28.9709 180.335 29.2486C179.626 29.5303 178.807 29.6712 177.878 29.6712ZM177.968 23.7248C178.326 23.7248 178.632 23.6302 178.886 23.441C179.139 23.2519 179.335 22.9802 179.471 22.6261C179.608 22.2719 179.677 21.8473 179.677 21.3523C179.677 20.8492 179.608 20.4165 179.471 20.0543C179.339 19.6881 179.143 19.4064 178.886 19.2092C178.632 19.0119 178.326 18.9133 177.968 18.9133C177.602 18.9133 177.292 19.014 177.039 19.2152C176.785 19.4164 176.592 19.7002 176.459 20.0664C176.33 20.4286 176.266 20.8572 176.266 21.3523C176.266 21.8473 176.332 22.2719 176.465 22.6261C176.598 22.9802 176.789 23.2519 177.039 23.441C177.292 23.6302 177.602 23.7248 177.968 23.7248ZM188.797 26.1758C187.827 26.1758 186.99 25.9846 186.286 25.6023C185.585 25.2159 185.046 24.6665 184.668 23.9542C184.293 23.2378 184.106 22.3866 184.106 21.4006C184.106 20.4427 184.295 19.6056 184.674 18.8892C185.052 18.1688 185.585 17.6094 186.274 17.2109C186.962 16.8085 187.773 16.6072 188.706 16.6072C189.366 16.6072 189.97 16.7099 190.518 16.9151C191.065 17.1204 191.538 17.4242 191.936 17.8267C192.335 18.2292 192.645 18.7262 192.866 19.3178C193.087 19.9054 193.198 20.5795 193.198 21.3402V22.0767H185.139V20.3622H190.451C190.447 20.0483 190.373 19.7686 190.228 19.5231C190.083 19.2776 189.884 19.0864 189.63 18.9496C189.381 18.8087 189.093 18.7383 188.767 18.7383C188.437 18.7383 188.141 18.8127 187.879 18.9616C187.618 19.1065 187.411 19.3057 187.258 19.5593C187.105 19.8088 187.024 20.0926 187.016 20.4105V22.1552C187.016 22.5335 187.091 22.8655 187.239 23.1513C187.388 23.433 187.6 23.6523 187.873 23.8093C188.147 23.9663 188.473 24.0447 188.851 24.0447C189.113 24.0447 189.35 24.0085 189.564 23.9361C189.777 23.8636 189.96 23.757 190.113 23.6161C190.266 23.4752 190.381 23.3022 190.457 23.0969L193.168 23.1754C193.055 23.7831 192.808 24.3124 192.425 24.7631C192.047 25.2099 191.55 25.558 190.934 25.8075C190.318 26.053 189.606 26.1758 188.797 26.1758ZM197.658 20.7123V26.0007H194.706V16.728H197.513V18.4304H197.615C197.821 17.8629 198.171 17.4182 198.666 17.0962C199.161 16.7702 199.75 16.6072 200.435 16.6072C201.087 16.6072 201.652 16.7541 202.131 17.0479C202.614 17.3377 202.988 17.7442 203.254 18.2674C203.524 18.7866 203.656 19.3943 203.652 20.0905V26.0007H200.7V20.6701C200.704 20.1549 200.574 19.7525 200.308 19.4627C200.046 19.1729 199.682 19.028 199.215 19.028C198.905 19.028 198.632 19.0965 198.394 19.2333C198.161 19.3661 197.98 19.5573 197.851 19.8068C197.726 20.0563 197.662 20.3582 197.658 20.7123Z" fill="white"/>
</g>
<defs>
<filter id="filter0_d_1_56" x="2.39972" y="0.39972" width="39.202" height="39.202" filterUnits="userSpaceOnUse" color-interpolation-filters="sRGB">
<feFlood flood-opacity="0" result="BackgroundImageFix"/>
<feColorMatrix in="SourceAlpha" type="matrix" values="0 0 0 0 0 0 0 0 0 0 0 0 0 0 0 0 0 0 127 0" result="hardAlpha"/>
<feOffset/>
<feGaussianBlur stdDeviation="2.80014"/>
<feComposite in2="hardAlpha" operator="out"/>
<feColorMatrix type="matrix" values="0 0 0 0 0 0 0 0 0 0 0 0 0 0 0 0 0 0 0.25 0"/>
<feBlend mode="normal" in2="BackgroundImageFix" result="effect1_dropShadow_1_56"/>
<feBlend mode="normal" in="SourceGraphic" in2="effect1_dropShadow_1_56" result="shape"/>
</filter>
<filter id="filter1_d_1_56" x="36.2871" y="3.78642" width="174.429" height="32.4286" filterUnits="userSpaceOnUse" color-interpolation-filters="sRGB">
<feFlood flood-opacity="0" result="BackgroundImageFix"/>
<feColorMatrix in="SourceAlpha" type="matrix" values="0 0 0 0 0 0 0 0 0 0 0 0 0 0 0 0 0 0 127 0" result="hardAlpha"/>
<feOffset/>
<feGaussianBlur stdDeviation="2.85714"/>
<feComposite in2="hardAlpha" operator="out"/>
<feColorMatrix type="matrix" values="0 0 0 0 0 0 0 0 0 0 0 0 0 0 0 0 0 0 0.25 0"/>
<feBlend mode="normal" in2="BackgroundImageFix" result="effect1_dropShadow_1_56"/>
<feBlend mode="normal" in="SourceGraphic" in2="effect1_dropShadow_1_56" result="shape"/>
</filter>
<linearGradient id="paint0_linear_1_56" x1="106.501" y1="0" x2="106.501" y2="40.0014" gradientUnits="userSpaceOnUse">
<stop stop-color="#C271FB"/>
<stop offset="1" stop-color="#45F7FE"/>
</linearGradient>
<linearGradient id="paint1_linear_1_56" x1="34.8927" y1="13.5644" x2="15.4171" y2="24.0589" gradientUnits="userSpaceOnUse">
<stop offset="0.0022437" stop-color="#430470"/>
<stop offset="0.38547" stop-color="#8E01F0"/>
<stop offset="0.63547" stop-color="#354CF6"/>
<stop offset="1" stop-color="#01FFFF"/>
</linearGradient>
</defs>
</svg>
