<svg width="40" height="40" viewBox="0 0 40 40" fill="none" xmlns="http://www.w3.org/2000/svg">
<rect width="40" height="40" rx="8" fill="url(#paint0_linear_1_68)"/>
<rect x="1.05" y="1.05" width="37.9" height="37.9" rx="6.95" stroke="white" stroke-opacity="0.15" stroke-width="2.1"/>
<g filter="url(#filter0_d_1_68)">
<path d="M20.0859 34L6.875 26.9811L11.3933 24.5996L16.4801 27.3009L20.7486 25.0508L15.6616 22.3495L20.1799 19.9624L33.3908 26.9813L28.8725 29.3627L24.0666 26.81L19.7925 29.0657L24.6043 31.6186L20.0859 34Z" fill="black"/>
<path d="M20.0859 20.0376L6.875 13.0187L11.393 10.6373L16.4801 13.3386L20.7483 11.0884L15.6612 8.38717L20.1796 6L33.3905 13.0189L28.8725 15.4003L24.0666 12.8476L19.7921 15.1034L24.6039 17.6562L20.0859 20.0376Z" fill="url(#paint1_linear_1_68)"/>
</g>
<defs>
<filter id="filter0_d_1_68" x="2" y="2" width="36" height="36" filterUnits="userSpaceOnUse" color-interpolation-filters="sRGB">
<feFlood flood-opacity="0" result="BackgroundImageFix"/>
<feColorMatrix in="SourceAlpha" type="matrix" values="0 0 0 0 0 0 0 0 0 0 0 0 0 0 0 0 0 0 127 0" result="hardAlpha"/>
<feOffset/>
<feGaussianBlur stdDeviation="2"/>
<feComposite in2="hardAlpha" operator="out"/>
<feColorMatrix type="matrix" values="0 0 0 0 0 0 0 0 0 0 0 0 0 0 0 0 0 0 0.25 0"/>
<feBlend mode="normal" in2="BackgroundImageFix" result="effect1_dropShadow_1_68"/>
<feBlend mode="normal" in="SourceGraphic" in2="effect1_dropShadow_1_68" result="shape"/>
</filter>
<linearGradient id="paint0_linear_1_68" x1="20" y1="0" x2="20" y2="40" gradientUnits="userSpaceOnUse">
<stop stop-color="#C271FB"/>
<stop offset="1" stop-color="#45F7FE"/>
</linearGradient>
<linearGradient id="paint1_linear_1_68" x1="32.8927" y1="13.5644" x2="13.4171" y2="24.0589" gradientUnits="userSpaceOnUse">
<stop offset="0.0022437" stop-color="#430470"/>
<stop offset="0.38547" stop-color="#8E01F0"/>
<stop offset="0.63547" stop-color="#354CF6"/>
<stop offset="1" stop-color="#01FFFF"/>
</linearGradient>
</defs>
</svg>
