<svg width="56" height="56" viewBox="0 0 56 56" fill="none" xmlns="http://www.w3.org/2000/svg">
<rect width="56" height="56" rx="8.4" fill="url(#paint0_linear_1_62)"/>
<rect x="1.05" y="1.05" width="53.9" height="53.9" rx="7.35" stroke="white" stroke-opacity="0.15" stroke-width="2.1"/>
<g filter="url(#filter0_d_1_62)">
<path d="M28.1228 48L9.25 37.973L15.7048 34.5709L22.9715 38.4299L29.0695 35.2154L21.8022 31.3565L28.257 27.9462L47.1298 37.9732L40.675 41.3753L33.8095 37.7285L27.7036 40.9511L34.5775 44.5979L28.1228 48Z" fill="black"/>
<path d="M28.1228 28.0538L9.25 18.0268L15.7043 14.6247L22.9715 18.4836L29.069 15.2692L21.8017 11.4102L28.2565 8L47.1293 18.027L40.675 21.4291L33.8095 17.7823L27.7031 21.0049L34.577 24.6517L28.1228 28.0538Z" fill="url(#paint1_linear_1_62)"/>
</g>
<defs>
<filter id="filter0_d_1_62" x="2.28571" y="2.28571" width="51.4286" height="51.4286" filterUnits="userSpaceOnUse" color-interpolation-filters="sRGB">
<feFlood flood-opacity="0" result="BackgroundImageFix"/>
<feColorMatrix in="SourceAlpha" type="matrix" values="0 0 0 0 0 0 0 0 0 0 0 0 0 0 0 0 0 0 127 0" result="hardAlpha"/>
<feOffset/>
<feGaussianBlur stdDeviation="2.85714"/>
<feComposite in2="hardAlpha" operator="out"/>
<feColorMatrix type="matrix" values="0 0 0 0 0 0 0 0 0 0 0 0 0 0 0 0 0 0 0.25 0"/>
<feBlend mode="normal" in2="BackgroundImageFix" result="effect1_dropShadow_1_62"/>
<feBlend mode="normal" in="SourceGraphic" in2="effect1_dropShadow_1_62" result="shape"/>
</filter>
<linearGradient id="paint0_linear_1_62" x1="28" y1="0" x2="28" y2="56" gradientUnits="userSpaceOnUse">
<stop stop-color="#C271FB"/>
<stop offset="1" stop-color="#45F7FE"/>
</linearGradient>
<linearGradient id="paint1_linear_1_62" x1="46.4181" y1="18.8063" x2="18.5958" y2="33.7984" gradientUnits="userSpaceOnUse">
<stop offset="0.0022437" stop-color="#430470"/>
<stop offset="0.38547" stop-color="#8E01F0"/>
<stop offset="0.63547" stop-color="#354CF6"/>
<stop offset="1" stop-color="#01FFFF"/>
</linearGradient>
</defs>
</svg>
