<svg width="155" height="56" viewBox="0 0 155 56" fill="none" xmlns="http://www.w3.org/2000/svg">
<rect width="155" height="56" rx="8" fill="url(#paint0_linear_1_50)"/>
<rect x="1.05" y="1.05" width="152.9" height="53.9" rx="6.95" stroke="white" stroke-opacity="0.15" stroke-width="2.1"/>
<g filter="url(#filter0_d_1_50)">
<path d="M32.1228 48L13.25 37.973L19.7048 34.5709L26.9715 38.4299L33.0695 35.2154L25.8022 31.3565L32.257 27.9462L51.1298 37.9732L44.675 41.3753L37.8095 37.7285L31.7036 40.9511L38.5775 44.5979L32.1228 48Z" fill="black"/>
<path d="M32.1228 28.0538L13.25 18.0268L19.7043 14.6247L26.9715 18.4836L33.069 15.2692L25.8017 11.4102L32.2565 8L51.1293 18.027L44.675 21.4291L37.8095 17.7823L31.7031 21.0049L38.577 24.6517L32.1228 28.0538Z" fill="url(#paint1_linear_1_50)"/>
</g>
<g filter="url(#filter1_d_1_50)">
<path d="M61.2784 24.5V12.8636H65.5398C66.3655 12.8636 67.0492 13 67.5909 13.2727C68.1326 13.5417 68.5379 13.9072 68.8068 14.3693C69.0757 14.8276 69.2102 15.3447 69.2102 15.9204C69.2102 16.4053 69.1212 16.8144 68.9432 17.1477C68.7651 17.4773 68.5265 17.7424 68.2273 17.9432C67.9318 18.1401 67.606 18.2841 67.25 18.375V18.4886C67.6363 18.5076 68.0132 18.6326 68.3807 18.8636C68.7519 19.0909 69.0587 19.4148 69.3011 19.8352C69.5435 20.2557 69.6648 20.767 69.6648 21.3693C69.6648 21.964 69.5246 22.4981 69.2443 22.9716C68.9678 23.4413 68.5398 23.8144 67.9602 24.0909C67.3807 24.3636 66.6401 24.5 65.7386 24.5H61.2784ZM63.0341 22.9943H65.5682C66.4091 22.9943 67.0113 22.8314 67.375 22.5057C67.7386 22.1799 67.9204 21.7727 67.9204 21.2841C67.9204 20.9167 67.8276 20.5795 67.642 20.2727C67.4564 19.9659 67.1913 19.7216 66.8466 19.5398C66.5057 19.3579 66.1004 19.267 65.6307 19.267H63.0341V22.9943ZM63.0341 17.8977H65.3863C65.7803 17.8977 66.1345 17.822 66.4488 17.6704C66.767 17.5189 67.0189 17.3068 67.2045 17.0341C67.3939 16.7576 67.4886 16.4318 67.4886 16.0568C67.4886 15.5758 67.3201 15.1723 66.9829 14.8466C66.6458 14.5208 66.1288 14.3579 65.4318 14.3579H63.0341V17.8977ZM77.1392 20.8807V15.7727H78.8437V24.5H77.1733V22.9886H77.0824C76.8816 23.4545 76.5596 23.8428 76.1165 24.1534C75.6771 24.4602 75.1297 24.6136 74.4744 24.6136C73.9138 24.6136 73.4176 24.4905 72.9858 24.2443C72.5577 23.9943 72.2206 23.625 71.9744 23.1364C71.732 22.6477 71.6108 22.0436 71.6108 21.3239V15.7727H73.3096V21.1193C73.3096 21.714 73.4744 22.1875 73.804 22.5398C74.1335 22.892 74.5615 23.0682 75.088 23.0682C75.4062 23.0682 75.7225 22.9886 76.0369 22.8295C76.3551 22.6704 76.6184 22.4299 76.8267 22.1079C77.0388 21.786 77.143 21.3769 77.1392 20.8807ZM81.1264 24.5V15.7727H82.8253V24.5H81.1264ZM81.9844 14.4261C81.6889 14.4261 81.4351 14.3276 81.223 14.1307C81.0147 13.9299 80.9105 13.6913 80.9105 13.4148C80.9105 13.1345 81.0147 12.8958 81.223 12.6989C81.4351 12.4981 81.6889 12.3977 81.9844 12.3977C82.2798 12.3977 82.5317 12.4981 82.74 12.6989C82.9522 12.8958 83.0582 13.1345 83.0582 13.4148C83.0582 13.6913 82.9522 13.9299 82.74 14.1307C82.5317 14.3276 82.2798 14.4261 81.9844 14.4261ZM86.8096 12.8636V24.5H85.1108V12.8636H86.8096ZM93.169 15.7727V17.1364H88.402V15.7727H93.169ZM89.6804 13.6818H91.3792V21.9375C91.3792 22.267 91.4285 22.5151 91.527 22.6818C91.6254 22.8447 91.7523 22.9564 91.9076 23.017C92.0667 23.0739 92.2391 23.1023 92.4247 23.1023C92.5611 23.1023 92.6804 23.0928 92.7826 23.0739C92.8849 23.0549 92.9645 23.0398 93.0213 23.0284L93.3281 24.4318C93.2296 24.4697 93.0895 24.5076 92.9076 24.5454C92.7258 24.5871 92.4986 24.6098 92.2258 24.6136C91.7789 24.6212 91.3622 24.5417 90.9758 24.375C90.5895 24.2083 90.277 23.9508 90.0383 23.6023C89.7997 23.2538 89.6804 22.8163 89.6804 22.2898V13.6818ZM101.175 24.5L98.6065 15.7727H100.362L102.072 22.1818H102.158L103.874 15.7727H105.629L107.334 22.1534H107.419L109.118 15.7727H110.874L108.311 24.5H106.578L104.805 18.1989H104.675L102.902 24.5H101.175ZM112.486 24.5V15.7727H114.185V24.5H112.486ZM113.344 14.4261C113.048 14.4261 112.794 14.3276 112.582 14.1307C112.374 13.9299 112.27 13.6913 112.27 13.4148C112.27 13.1345 112.374 12.8958 112.582 12.6989C112.794 12.4981 113.048 12.3977 113.344 12.3977C113.639 12.3977 113.891 12.4981 114.099 12.6989C114.312 12.8958 114.418 13.1345 114.418 13.4148C114.418 13.6913 114.312 13.9299 114.099 14.1307C113.891 14.3276 113.639 14.4261 113.344 14.4261ZM120.544 15.7727V17.1364H115.777V15.7727H120.544ZM117.055 13.6818H118.754V21.9375C118.754 22.267 118.803 22.5151 118.902 22.6818C119 22.8447 119.127 22.9564 119.283 23.017C119.442 23.0739 119.614 23.1023 119.8 23.1023C119.936 23.1023 120.055 23.0928 120.158 23.0739C120.26 23.0549 120.339 23.0398 120.396 23.0284L120.703 24.4318C120.605 24.4697 120.464 24.5076 120.283 24.5454C120.101 24.5871 119.874 24.6098 119.601 24.6136C119.154 24.6212 118.737 24.5417 118.351 24.375C117.964 24.2083 117.652 23.9508 117.413 23.6023C117.175 23.2538 117.055 22.8163 117.055 22.2898V13.6818ZM124.31 19.3182V24.5H122.611V12.8636H124.287V17.1932H124.395C124.599 16.7235 124.912 16.3504 125.332 16.0739C125.753 15.7973 126.302 15.6591 126.98 15.6591C127.579 15.6591 128.101 15.7822 128.548 16.0284C128.999 16.2746 129.348 16.642 129.594 17.1307C129.844 17.6155 129.969 18.2216 129.969 18.9489V24.5H128.27V19.1534C128.27 18.5133 128.105 18.017 127.776 17.6648C127.446 17.3087 126.988 17.1307 126.401 17.1307C125.999 17.1307 125.639 17.2159 125.321 17.3864C125.007 17.5568 124.758 17.8068 124.577 18.1364C124.399 18.4621 124.31 18.8561 124.31 19.3182Z" fill="#E8E8E8"/>
<path d="M60.9357 43.5V31.1364H63.924V36.0987H68.7958V31.1364H71.778V43.5H68.7958V38.5316H63.924V43.5H60.9357ZM75.4575 46.9773C75.1034 46.9773 74.7693 46.9491 74.4554 46.8927C74.1415 46.8404 73.8718 46.77 73.6465 46.6815L74.2985 44.5383C74.5882 44.6349 74.8498 44.6913 75.0833 44.7074C75.3207 44.7235 75.524 44.6852 75.693 44.5927C75.866 44.5041 75.9989 44.3452 76.0914 44.1158L76.2061 43.8381L72.91 34.2273H76.0009L77.7093 40.8437H77.8059L79.5385 34.2273H82.6475L79.1521 44.3874C78.9831 44.8945 78.7436 45.3413 78.4338 45.7276C78.1279 46.118 77.7315 46.4239 77.2445 46.6452C76.7615 46.8666 76.1659 46.9773 75.4575 46.9773ZM86.8673 43.6328C86.1832 43.6328 85.5614 43.4557 85.0019 43.1016C84.4425 42.7474 83.9958 42.2161 83.6617 41.5078C83.3277 40.7995 83.1607 39.9201 83.1607 38.8697C83.1607 37.779 83.3337 36.8815 83.6798 36.1772C84.026 35.4729 84.4787 34.9517 85.0382 34.6136C85.6016 34.2756 86.2073 34.1065 86.8553 34.1065C87.3422 34.1065 87.7588 34.191 88.1049 34.3601C88.451 34.5251 88.7368 34.7384 88.9622 35C89.1875 35.2616 89.3586 35.5333 89.4753 35.815H89.5357V31.1364H92.4877V43.5H89.5658V41.9968H89.4753C89.3505 42.2825 89.1734 42.5502 88.944 42.7997C88.7146 43.0492 88.4269 43.2505 88.0808 43.4034C87.7387 43.5563 87.3342 43.6328 86.8673 43.6328ZM87.8936 41.3327C88.2518 41.3327 88.5577 41.2321 88.8112 41.0309C89.0648 40.8256 89.26 40.5379 89.3968 40.1676C89.5337 39.7973 89.6021 39.3627 89.6021 38.8636C89.6021 38.3565 89.5337 37.9199 89.3968 37.5536C89.264 37.1874 89.0688 36.9056 88.8112 36.7084C88.5577 36.5112 88.2518 36.4126 87.8936 36.4126C87.5274 36.4126 87.2175 36.5132 86.9639 36.7145C86.7104 36.9157 86.5172 37.1994 86.3844 37.5657C86.2556 37.9319 86.1912 38.3646 86.1912 38.8636C86.1912 39.3627 86.2576 39.7973 86.3904 40.1676C86.5232 40.5379 86.7144 40.8256 86.9639 41.0309C87.2175 41.2321 87.5274 41.3327 87.8936 41.3327ZM94.3546 43.5V34.2273H97.2222V35.9176H97.3188C97.4878 35.3059 97.7635 34.8511 98.1458 34.5533C98.5282 34.2514 98.9729 34.1005 99.48 34.1005C99.6168 34.1005 99.7577 34.1105 99.9026 34.1307C100.047 34.1468 100.182 34.1729 100.307 34.2092V36.7748C100.166 36.7266 99.9811 36.6883 99.7517 36.6601C99.5263 36.632 99.3251 36.6179 99.148 36.6179C98.7978 36.6179 98.4819 36.6964 98.2002 36.8533C97.9225 37.0063 97.7031 37.2216 97.5421 37.4993C97.3852 37.773 97.3067 38.0949 97.3067 38.4652V43.5H94.3546ZM105.357 43.6751C104.383 43.6751 103.546 43.4758 102.846 43.0774C102.149 42.6749 101.612 42.1155 101.234 41.3991C100.859 40.6787 100.672 39.8436 100.672 38.8938C100.672 37.94 100.859 37.1049 101.234 36.3885C101.612 35.6681 102.149 35.1087 102.846 34.7102C103.546 34.3078 104.383 34.1065 105.357 34.1065C106.331 34.1065 107.166 34.3078 107.862 34.7102C108.563 35.1087 109.1 35.6681 109.474 36.3885C109.852 37.1049 110.042 37.94 110.042 38.8938C110.042 39.8436 109.852 40.6787 109.474 41.3991C109.1 42.1155 108.563 42.6749 107.862 43.0774C107.166 43.4758 106.331 43.6751 105.357 43.6751ZM105.375 41.4474C105.729 41.4474 106.029 41.3388 106.275 41.1214C106.52 40.9041 106.707 40.6023 106.836 40.2159C106.969 39.8295 107.035 39.3828 107.035 38.8757C107.035 38.3605 106.969 37.9098 106.836 37.5234C106.707 37.1371 106.52 36.8352 106.275 36.6179C106.029 36.4006 105.729 36.2919 105.375 36.2919C105.009 36.2919 104.699 36.4006 104.445 36.6179C104.196 36.8352 104.005 37.1371 103.872 37.5234C103.743 37.9098 103.679 38.3605 103.679 38.8757C103.679 39.3828 103.743 39.8295 103.872 40.2159C104.005 40.6023 104.196 40.9041 104.445 41.1214C104.699 41.3388 105.009 41.4474 105.375 41.4474ZM115.876 47.1704C114.995 47.1704 114.24 47.0477 113.612 46.8022C112.985 46.5567 112.492 46.2206 112.133 45.794C111.775 45.3674 111.56 44.8845 111.487 44.3452L114.283 44.1882C114.335 44.3774 114.431 44.5424 114.572 44.6832C114.717 44.8241 114.904 44.9328 115.134 45.0092C115.367 45.0857 115.641 45.1239 115.955 45.1239C116.45 45.1239 116.858 45.0032 117.18 44.7617C117.506 44.5243 117.669 44.1077 117.669 43.5121V41.8821H117.567C117.45 42.1678 117.273 42.4234 117.035 42.6488C116.798 42.8742 116.502 43.0512 116.148 43.18C115.798 43.3088 115.395 43.3732 114.941 43.3732C114.264 43.3732 113.645 43.2163 113.081 42.9023C112.522 42.5844 112.073 42.0934 111.735 41.4293C111.401 40.7612 111.234 39.902 111.234 38.8516C111.234 37.7689 111.407 36.8775 111.753 36.1772C112.099 35.4729 112.552 34.9517 113.111 34.6136C113.675 34.2756 114.281 34.1065 114.929 34.1065C115.415 34.1065 115.832 34.191 116.178 34.3601C116.528 34.5251 116.816 34.7384 117.041 35C117.267 35.2616 117.438 35.5333 117.555 35.815H117.639V34.2273H120.579V43.5362C120.579 44.321 120.382 44.9831 119.987 45.5224C119.593 46.0617 119.042 46.4702 118.333 46.7479C117.625 47.0296 116.806 47.1704 115.876 47.1704ZM115.967 41.2241C116.325 41.2241 116.631 41.1295 116.884 40.9403C117.138 40.7512 117.333 40.4795 117.47 40.1253C117.607 39.7712 117.675 39.3466 117.675 38.8516C117.675 38.3485 117.607 37.9158 117.47 37.5536C117.337 37.1874 117.142 36.9056 116.884 36.7084C116.631 36.5112 116.325 36.4126 115.967 36.4126C115.601 36.4126 115.291 36.5132 115.037 36.7145C114.784 36.9157 114.59 37.1994 114.458 37.5657C114.329 37.9279 114.264 38.3565 114.264 38.8516C114.264 39.3466 114.331 39.7712 114.464 40.1253C114.596 40.4795 114.788 40.7512 115.037 40.9403C115.291 41.1295 115.601 41.2241 115.967 41.2241ZM126.796 43.6751C125.826 43.6751 124.989 43.4839 124.284 43.1016C123.584 42.7152 123.045 42.1658 122.666 41.4535C122.292 40.7371 122.105 39.8859 122.105 38.8998C122.105 37.942 122.294 37.1049 122.672 36.3885C123.051 35.6681 123.584 35.1087 124.272 34.7102C124.96 34.3078 125.771 34.1065 126.705 34.1065C127.365 34.1065 127.969 34.2092 128.516 34.4144C129.063 34.6197 129.536 34.9235 129.935 35.326C130.333 35.7284 130.643 36.2255 130.864 36.8171C131.086 37.4047 131.197 38.0788 131.197 38.8395V39.576H123.137V37.8615H128.45C128.446 37.5476 128.371 37.2679 128.226 37.0224C128.081 36.7769 127.882 36.5857 127.629 36.4489C127.379 36.308 127.091 36.2376 126.765 36.2376C126.435 36.2376 126.14 36.312 125.878 36.4609C125.616 36.6058 125.409 36.805 125.256 37.0586C125.103 37.3081 125.023 37.5918 125.015 37.9098V39.6545C125.015 40.0328 125.089 40.3648 125.238 40.6506C125.387 40.9323 125.598 41.1516 125.872 41.3086C126.146 41.4655 126.472 41.544 126.85 41.544C127.112 41.544 127.349 41.5078 127.562 41.4354C127.776 41.3629 127.959 41.2563 128.112 41.1154C128.265 40.9745 128.379 40.8015 128.456 40.5962L131.166 40.6747C131.054 41.2824 130.806 41.8117 130.424 42.2624C130.045 42.7092 129.548 43.0573 128.933 43.3068C128.317 43.5523 127.605 43.6751 126.796 43.6751ZM135.656 38.2116V43.5H132.704V34.2273H135.511V35.9297H135.614C135.819 35.3622 136.169 34.9175 136.664 34.5955C137.159 34.2695 137.749 34.1065 138.433 34.1065C139.085 34.1065 139.651 34.2534 140.13 34.5472C140.613 34.837 140.987 35.2435 141.253 35.7667C141.522 36.2859 141.655 36.8936 141.651 37.5898V43.5H138.699V38.1694C138.703 37.6542 138.572 37.2518 138.307 36.962C138.045 36.6722 137.681 36.5273 137.214 36.5273C136.904 36.5273 136.63 36.5958 136.393 36.7326C136.159 36.8654 135.978 37.0566 135.849 37.3061C135.725 37.5556 135.66 37.8575 135.656 38.2116Z" fill="white"/>
</g>
<defs>
<filter id="filter0_d_1_50" x="6.28571" y="2.28571" width="51.4286" height="51.4286" filterUnits="userSpaceOnUse" color-interpolation-filters="sRGB">
<feFlood flood-opacity="0" result="BackgroundImageFix"/>
<feColorMatrix in="SourceAlpha" type="matrix" values="0 0 0 0 0 0 0 0 0 0 0 0 0 0 0 0 0 0 127 0" result="hardAlpha"/>
<feOffset/>
<feGaussianBlur stdDeviation="2.85714"/>
<feComposite in2="hardAlpha" operator="out"/>
<feColorMatrix type="matrix" values="0 0 0 0 0 0 0 0 0 0 0 0 0 0 0 0 0 0 0.25 0"/>
<feBlend mode="normal" in2="BackgroundImageFix" result="effect1_dropShadow_1_50"/>
<feBlend mode="normal" in="SourceGraphic" in2="effect1_dropShadow_1_50" result="shape"/>
</filter>
<filter id="filter1_d_1_50" x="54.4" y="3.9" width="94.2" height="48.8704" filterUnits="userSpaceOnUse" color-interpolation-filters="sRGB">
<feFlood flood-opacity="0" result="BackgroundImageFix"/>
<feColorMatrix in="SourceAlpha" type="matrix" values="0 0 0 0 0 0 0 0 0 0 0 0 0 0 0 0 0 0 127 0" result="hardAlpha"/>
<feOffset/>
<feGaussianBlur stdDeviation="2.8"/>
<feComposite in2="hardAlpha" operator="out"/>
<feColorMatrix type="matrix" values="0 0 0 0 0 0 0 0 0 0 0 0 0 0 0 0 0 0 0.25 0"/>
<feBlend mode="normal" in2="BackgroundImageFix" result="effect1_dropShadow_1_50"/>
<feBlend mode="normal" in="SourceGraphic" in2="effect1_dropShadow_1_50" result="shape"/>
</filter>
<linearGradient id="paint0_linear_1_50" x1="77.5" y1="0" x2="77.5" y2="56" gradientUnits="userSpaceOnUse">
<stop stop-color="#C271FB"/>
<stop offset="1" stop-color="#45F7FE"/>
</linearGradient>
<linearGradient id="paint1_linear_1_50" x1="50.4181" y1="18.8063" x2="22.5958" y2="33.7984" gradientUnits="userSpaceOnUse">
<stop offset="0.0022437" stop-color="#430470"/>
<stop offset="0.38547" stop-color="#8E01F0"/>
<stop offset="0.63547" stop-color="#354CF6"/>
<stop offset="1" stop-color="#01FFFF"/>
</linearGradient>
</defs>
</svg>
