<svg width="243" height="40" viewBox="0 0 243 40" fill="none" xmlns="http://www.w3.org/2000/svg">
<rect width="243.001" height="40.0014" rx="8" fill="url(#paint0_linear_1_56)"/>
<rect x="1.07143" y="1.07143" width="240.858" height="37.8585" rx="6.92857" stroke="white" stroke-opacity="0.15" stroke-width="2.14286"/>
<g filter="url(#filter0_d_1_56)">
<path fill-rule="evenodd" clip-rule="evenodd" d="M22.0013 6C20.7544 9.05594 20.0028 11.0549 18.6151 14.0203C19.466 14.9224 20.5103 15.9724 22.2026 17.1589C20.3791 16.4086 19.1401 15.6552 18.2056 14.8734C16.4293 18.579 13.6468 23.8587 8 34.0052C12.4424 31.4432 15.8789 29.8639 19.0893 29.2601C18.9515 28.6677 18.8732 28.0272 18.8793 27.3592L18.8846 27.217C18.9546 24.3733 20.4342 22.1866 22.1864 22.3354C23.9386 22.4841 25.3005 24.9105 25.2301 27.7542C25.2194 28.2679 25.1595 28.7794 25.0511 29.2816C28.223 29.9019 31.6268 31.4778 36.0048 34.0052L33.6336 29.6189C32.4742 28.7207 31.2654 27.5512 28.7992 26.2851C30.4945 26.7257 31.7086 27.2336 32.6492 27.8019C25.1679 13.8719 24.5616 12.0213 21.9961 6H22.0013Z" fill="#1793D1"/>
</g>
<g filter="url(#filter1_d_1_56)">
<path d="M44.4041 26.5007H42.424L46.8732 14.1371H49.0284L53.4776 26.5007H51.4975L48.0021 16.3828H47.9055L44.4041 26.5007ZM44.7361 21.6591H51.1594V23.2287H44.7361V21.6591ZM61.8886 17.228L58.526 26.5007H56.5942L53.2256 17.228H55.1634L57.5118 24.3636H57.6084L59.9507 17.228H61.8886ZM66.0178 26.706C65.4302 26.706 64.899 26.5973 64.4241 26.38C63.9492 26.1586 63.5729 25.8386 63.2952 25.4201C63.0215 25.0015 62.8846 24.4884 62.8846 23.8807C62.8846 23.3575 62.9853 22.9268 63.1865 22.5888C63.3877 22.2507 63.6594 21.9831 64.0015 21.7859C64.3436 21.5886 64.7259 21.4397 65.1485 21.3391C65.5711 21.2385 66.0017 21.162 66.4404 21.1097C66.9958 21.0453 67.4466 20.993 67.7927 20.9528C68.1388 20.9085 68.3903 20.8381 68.5473 20.7415C68.7042 20.6449 68.7827 20.4879 68.7827 20.2706V20.2283C68.7827 19.7011 68.6338 19.2926 68.336 19.0028C68.0422 18.7131 67.6035 18.5682 67.0199 18.5682C66.4122 18.5682 65.9333 18.703 65.5832 18.9726C65.237 19.2383 64.9976 19.5341 64.8648 19.8601L63.1684 19.4737C63.3696 18.9103 63.6634 18.4555 64.0498 18.1094C64.4402 17.7592 64.8889 17.5057 65.396 17.3487C65.9031 17.1877 66.4364 17.1072 66.9958 17.1072C67.3661 17.1072 67.7585 17.1515 68.173 17.24C68.5916 17.3246 68.9819 17.4815 69.3442 17.7109C69.7104 17.9403 70.0102 18.2683 70.2437 18.6949C70.4771 19.1175 70.5938 19.6669 70.5938 20.343V26.5007H68.831V25.2329H68.7586C68.6419 25.4664 68.4668 25.6958 68.2334 25.9212C67.9999 26.1465 67.7001 26.3337 67.3339 26.4826C66.9676 26.6315 66.5289 26.706 66.0178 26.706ZM66.4102 25.2571C66.9093 25.2571 67.3359 25.1585 67.69 24.9613C68.0482 24.7641 68.3199 24.5065 68.505 24.1886C68.6942 23.8666 68.7888 23.5225 68.7888 23.1562V21.9609C68.7244 22.0253 68.5996 22.0857 68.4145 22.142C68.2334 22.1944 68.0261 22.2406 67.7927 22.2809C67.5592 22.3171 67.3319 22.3513 67.1105 22.3835C66.8891 22.4117 66.704 22.4358 66.5551 22.456C66.205 22.5002 65.885 22.5747 65.5952 22.6793C65.3095 22.784 65.0801 22.9349 64.907 23.1321C64.738 23.3253 64.6535 23.5828 64.6535 23.9048C64.6535 24.3515 64.8185 24.6896 65.1485 24.919C65.4785 25.1444 65.8991 25.2571 66.4102 25.2571ZM72.998 26.5007V17.228H74.8031V26.5007H72.998ZM73.9096 15.7972C73.5957 15.7972 73.326 15.6926 73.1006 15.4833C72.8793 15.27 72.7686 15.0164 72.7686 14.7226C72.7686 14.4248 72.8793 14.1713 73.1006 13.962C73.326 13.7487 73.5957 13.642 73.9096 13.642C74.2235 13.642 74.4911 13.7487 74.7125 13.962C74.9379 14.1713 75.0506 14.4248 75.0506 14.7226C75.0506 15.0164 74.9379 15.27 74.7125 15.4833C74.4911 15.6926 74.2235 15.7972 73.9096 15.7972ZM79.0365 14.1371V26.5007H77.2314V14.1371H79.0365ZM84.1633 26.706C83.5757 26.706 83.0445 26.5973 82.5696 26.38C82.0947 26.1586 81.7184 25.8386 81.4407 25.4201C81.167 25.0015 81.0301 24.4884 81.0301 23.8807C81.0301 23.3575 81.1308 22.9268 81.332 22.5888C81.5332 22.2507 81.8049 21.9831 82.147 21.7859C82.4891 21.5886 82.8714 21.4397 83.294 21.3391C83.7166 21.2385 84.1472 21.162 84.5859 21.1097C85.1413 21.0453 85.5921 20.993 85.9382 20.9528C86.2843 20.9085 86.5358 20.8381 86.6928 20.7415C86.8497 20.6449 86.9282 20.4879 86.9282 20.2706V20.2283C86.9282 19.7011 86.7793 19.2926 86.4815 19.0028C86.1877 18.7131 85.749 18.5682 85.1654 18.5682C84.5577 18.5682 84.0788 18.703 83.7287 18.9726C83.3825 19.2383 83.1431 19.5341 83.0103 19.8601L81.3139 19.4737C81.5151 18.9103 81.8089 18.4555 82.1953 18.1094C82.5857 17.7592 83.0344 17.5057 83.5415 17.3487C84.0486 17.1877 84.5819 17.1072 85.1413 17.1072C85.5116 17.1072 85.904 17.1515 86.3185 17.24C86.7371 17.3246 87.1274 17.4815 87.4897 17.7109C87.8559 17.9403 88.1557 18.2683 88.3892 18.6949C88.6226 19.1175 88.7393 19.6669 88.7393 20.343V26.5007H86.9765V25.2329H86.9041C86.7874 25.4664 86.6123 25.6958 86.3789 25.9212C86.1454 26.1465 85.8456 26.3337 85.4794 26.4826C85.1131 26.6315 84.6744 26.706 84.1633 26.706ZM84.5557 25.2571C85.0548 25.2571 85.4814 25.1585 85.8355 24.9613C86.1937 24.7641 86.4654 24.5065 86.6505 24.1886C86.8397 23.8666 86.9343 23.5225 86.9343 23.1562V21.9609C86.8699 22.0253 86.7451 22.0857 86.56 22.142C86.3789 22.1944 86.1716 22.2406 85.9382 22.2809C85.7047 22.3171 85.4774 22.3513 85.256 22.3835C85.0346 22.4117 84.8495 22.4358 84.7006 22.456C84.3505 22.5002 84.0305 22.5747 83.7407 22.6793C83.455 22.784 83.2256 22.9349 83.0525 23.1321C82.8835 23.3253 82.799 23.5828 82.799 23.9048C82.799 24.3515 82.964 24.6896 83.294 24.919C83.624 25.1444 84.0446 25.2571 84.5557 25.2571ZM91.2884 26.5007V14.1371H93.0934V18.7312H93.2021C93.3067 18.538 93.4577 18.3146 93.6549 18.0611C93.8521 17.8075 94.1258 17.5862 94.4759 17.397C94.826 17.2038 95.2889 17.1072 95.8644 17.1072C96.613 17.1072 97.2811 17.2964 97.8687 17.6747C98.4563 18.053 98.9171 18.5984 99.2511 19.3107C99.5892 20.0231 99.7582 20.8803 99.7582 21.8824C99.7582 22.8846 99.5912 23.7438 99.2571 24.4602C98.9231 25.1726 98.4643 25.7219 97.8807 26.1083C97.2972 26.4906 96.6311 26.6818 95.8825 26.6818C95.3191 26.6818 94.8582 26.5872 94.5 26.3981C94.1459 26.2089 93.8682 25.9876 93.667 25.734C93.4657 25.4805 93.3108 25.2551 93.2021 25.0579H93.0512V26.5007H91.2884ZM93.0572 21.8643C93.0572 22.5163 93.1518 23.0878 93.341 23.5788C93.5301 24.0698 93.8038 24.4542 94.162 24.7319C94.5202 25.0056 94.9589 25.1424 95.478 25.1424C96.0173 25.1424 96.4681 24.9995 96.8303 24.7138C97.1925 24.424 97.4662 24.0316 97.6513 23.5366C97.8405 23.0415 97.9351 22.4841 97.9351 21.8643C97.9351 21.2526 97.8425 20.7032 97.6574 20.2163C97.4763 19.7293 97.2026 19.3449 96.8363 19.0632C96.4741 18.7815 96.0214 18.6406 95.478 18.6406C94.9548 18.6406 94.5121 18.7754 94.1499 19.0451C93.7917 19.3147 93.5201 19.691 93.3349 20.174C93.1498 20.6569 93.0572 21.2204 93.0572 21.8643ZM103.59 14.1371V26.5007H101.785V14.1371H103.59ZM110.015 26.6878C109.101 26.6878 108.315 26.4926 107.655 26.1023C106.999 25.7078 106.491 25.1545 106.133 24.4421C105.779 23.7257 105.602 22.8866 105.602 21.9247C105.602 20.9749 105.779 20.1378 106.133 19.4133C106.491 18.6889 106.99 18.1234 107.63 17.717C108.274 17.3105 109.027 17.1072 109.888 17.1072C110.411 17.1072 110.918 17.1938 111.409 17.3668C111.9 17.5399 112.341 17.8115 112.732 18.1818C113.122 18.5521 113.43 19.033 113.655 19.6246C113.881 20.2122 113.993 20.9266 113.993 21.7677V22.4077H106.622V21.0554H112.224C112.224 20.5805 112.128 20.1599 111.935 19.7937C111.742 19.4234 111.47 19.1316 111.12 18.9183C110.774 18.705 110.367 18.5984 109.9 18.5984C109.393 18.5984 108.95 18.7231 108.572 18.9726C108.198 19.2181 107.908 19.5401 107.703 19.9386C107.502 20.333 107.401 20.7616 107.401 21.2244V22.2809C107.401 22.9007 107.51 23.4279 107.727 23.8626C107.948 24.2972 108.256 24.6292 108.651 24.8587C109.045 25.084 109.506 25.1967 110.033 25.1967C110.375 25.1967 110.687 25.1484 110.969 25.0518C111.251 24.9512 111.494 24.8023 111.699 24.6051C111.905 24.4079 112.061 24.1644 112.17 23.8746L113.879 24.1825C113.742 24.6856 113.496 25.1263 113.142 25.5046C112.792 25.8789 112.351 26.1707 111.82 26.38C111.293 26.5852 110.691 26.6878 110.015 26.6878ZM124.401 26.6878C123.532 26.6878 122.773 26.4886 122.125 26.0902C121.477 25.6917 120.974 25.1343 120.616 24.418C120.258 23.7016 120.079 22.8645 120.079 21.9066C120.079 20.9447 120.258 20.1036 120.616 19.3832C120.974 18.6627 121.477 18.1033 122.125 17.7049C122.773 17.3065 123.532 17.1072 124.401 17.1072C125.27 17.1072 126.029 17.3065 126.677 17.7049C127.325 18.1033 127.828 18.6627 128.186 19.3832C128.544 20.1036 128.723 20.9447 128.723 21.9066C128.723 22.8645 128.544 23.7016 128.186 24.418C127.828 25.1343 127.325 25.6917 126.677 26.0902C126.029 26.4886 125.27 26.6878 124.401 26.6878ZM124.407 25.1726C124.97 25.1726 125.437 25.0237 125.808 24.7258C126.178 24.428 126.452 24.0316 126.629 23.5366C126.81 23.0415 126.9 22.4962 126.9 21.9006C126.9 21.3089 126.81 20.7656 126.629 20.2706C126.452 19.7715 126.178 19.3711 125.808 19.0692C125.437 18.7674 124.97 18.6165 124.407 18.6165C123.84 18.6165 123.369 18.7674 122.994 19.0692C122.624 19.3711 122.348 19.7715 122.167 20.2706C121.99 20.7656 121.902 21.3089 121.902 21.9006C121.902 22.4962 121.99 23.0415 122.167 23.5366C122.348 24.0316 122.624 24.428 122.994 24.7258C123.369 25.0237 123.84 25.1726 124.407 25.1726ZM132.543 20.995V26.5007H130.738V17.228H132.471V18.7372H132.586C132.799 18.2462 133.133 17.8518 133.588 17.554C134.046 17.2561 134.624 17.1072 135.32 17.1072C135.952 17.1072 136.506 17.24 136.98 17.5057C137.455 17.7673 137.824 18.1577 138.085 18.6768C138.347 19.196 138.478 19.8379 138.478 20.6026V26.5007H136.673V20.8199C136.673 20.1478 136.497 19.6226 136.147 19.2443C135.797 18.862 135.316 18.6708 134.704 18.6708C134.286 18.6708 133.914 18.7614 133.588 18.9425C133.266 19.1236 133.01 19.3892 132.821 19.7393C132.636 20.0855 132.543 20.504 132.543 20.995Z" fill="#E8E8E8"/>
<path d="M147.611 26.0007H144.4L148.571 13.6371H152.55L156.721 26.0007H153.51L150.606 16.7521H150.509L147.611 26.0007ZM147.183 21.1349H153.896V23.4048H147.183V21.1349ZM158.052 26.0007V16.728H160.92V18.4183H161.016C161.185 17.8066 161.461 17.3518 161.844 17.054C162.226 16.7521 162.671 16.6012 163.178 16.6012C163.315 16.6012 163.455 16.6113 163.6 16.6314C163.745 16.6475 163.88 16.6736 164.005 16.7099V19.2756C163.864 19.2273 163.679 19.189 163.449 19.1609C163.224 19.1327 163.023 19.1186 162.846 19.1186C162.496 19.1186 162.18 19.1971 161.898 19.354C161.62 19.507 161.401 19.7223 161.24 20C161.083 20.2737 161.004 20.5956 161.004 20.9659V26.0007H158.052ZM169.055 26.1758C168.077 26.1758 167.238 25.9745 166.537 25.5721C165.841 25.1696 165.306 24.6102 164.931 23.8938C164.557 23.1734 164.37 22.3403 164.37 21.3945C164.37 20.4447 164.557 19.6116 164.931 18.8952C165.31 18.1748 165.847 17.6134 166.543 17.2109C167.244 16.8085 168.079 16.6072 169.049 16.6072C169.906 16.6072 170.652 16.7622 171.288 17.0721C171.928 17.382 172.427 17.8207 172.785 18.3881C173.148 18.9516 173.339 19.6136 173.359 20.3743H170.6C170.544 19.8994 170.383 19.5271 170.117 19.2574C169.856 18.9878 169.513 18.853 169.091 18.853C168.749 18.853 168.449 18.9496 168.191 19.1427C167.934 19.3319 167.733 19.6136 167.588 19.9879C167.447 20.3582 167.376 20.817 167.376 21.3643C167.376 21.9117 167.447 22.3745 167.588 22.7528C167.733 23.1271 167.934 23.4109 168.191 23.604C168.449 23.7932 168.749 23.8878 169.091 23.8878C169.365 23.8878 169.606 23.8294 169.815 23.7127C170.029 23.596 170.204 23.4249 170.34 23.1996C170.477 22.9702 170.564 22.6925 170.6 22.3665H173.359C173.331 23.1311 173.14 23.7992 172.785 24.3707C172.435 24.9422 171.942 25.3869 171.306 25.7049C170.675 26.0188 169.924 26.1758 169.055 26.1758ZM177.822 20.7123V26.0007H174.87V13.6371H177.725V18.4304H177.828C178.037 17.8589 178.379 17.4122 178.854 17.0902C179.333 16.7682 179.919 16.6072 180.611 16.6072C181.263 16.6072 181.83 16.7521 182.313 17.0419C182.796 17.3276 183.17 17.7321 183.436 18.2553C183.706 18.7785 183.839 19.3903 183.835 20.0905V26.0007H180.882V20.6701C180.887 20.1549 180.758 19.7525 180.496 19.4627C180.235 19.1729 179.866 19.028 179.391 19.028C179.081 19.028 178.808 19.0965 178.57 19.2333C178.337 19.3661 178.154 19.5573 178.021 19.8068C177.892 20.0563 177.826 20.3582 177.822 20.7123ZM189.33 26.0007V13.6371H192.318V23.5739H197.461V26.0007H189.33ZM199.008 26.0007V16.728H201.96V26.0007H199.008ZM200.487 15.6474C200.073 15.6474 199.717 15.5105 199.419 15.2369C199.121 14.9592 198.972 14.6251 198.972 14.2347C198.972 13.8484 199.121 13.5183 199.419 13.2447C199.717 12.967 200.073 12.8281 200.487 12.8281C200.906 12.8281 201.262 12.967 201.556 13.2447C201.854 13.5183 202.003 13.8484 202.003 14.2347C202.003 14.6251 201.854 14.9592 201.556 15.2369C201.262 15.5105 200.906 15.6474 200.487 15.6474ZM206.791 20.7123V26.0007H203.839V16.728H206.647V18.4304H206.749C206.954 17.8629 207.305 17.4182 207.8 17.0962C208.295 16.7702 208.884 16.6072 209.568 16.6072C210.22 16.6072 210.786 16.7541 211.265 17.0479C211.748 17.3377 212.122 17.7442 212.388 18.2674C212.657 18.7866 212.79 19.3943 212.786 20.0905V26.0007H209.834V20.6701C209.838 20.1549 209.707 19.7525 209.442 19.4627C209.18 19.1729 208.816 19.028 208.349 19.028C208.039 19.028 207.765 19.0965 207.528 19.2333C207.295 19.3661 207.113 19.5573 206.985 19.8068C206.86 20.0563 206.796 20.3582 206.791 20.7123ZM220.596 21.9982V16.728H223.542V26.0007H220.729V24.2741H220.633C220.427 24.8416 220.077 25.2924 219.582 25.6264C219.091 25.9564 218.498 26.1214 217.801 26.1214C217.169 26.1214 216.614 25.9765 216.135 25.6868C215.656 25.397 215.284 24.9925 215.018 24.4734C214.753 23.9502 214.618 23.3384 214.614 22.6381V16.728H217.566V22.0586C217.57 22.5617 217.703 22.9581 217.964 23.2479C218.226 23.5376 218.582 23.6825 219.033 23.6825C219.327 23.6825 219.59 23.6181 219.824 23.4893C220.061 23.3565 220.248 23.1654 220.385 22.9158C220.526 22.6623 220.596 22.3564 220.596 21.9982ZM227.933 16.728L229.46 19.7827L231.042 16.728H234.018L231.428 21.3643L234.115 26.0007H231.163L229.46 22.9219L227.8 26.0007H224.806L227.498 21.3643L224.938 16.728H227.933Z" fill="#1793D1"/>
</g>
<defs>
<filter id="filter0_d_1_56" x="2.39972" y="0.39972" width="39.2054" height="39.2058" filterUnits="userSpaceOnUse" color-interpolation-filters="sRGB">
<feFlood flood-opacity="0" result="BackgroundImageFix"/>
<feColorMatrix in="SourceAlpha" type="matrix" values="0 0 0 0 0 0 0 0 0 0 0 0 0 0 0 0 0 0 127 0" result="hardAlpha"/>
<feOffset/>
<feGaussianBlur stdDeviation="2.80014"/>
<feComposite in2="hardAlpha" operator="out"/>
<feColorMatrix type="matrix" values="0 0 0 0 0 0 0 0 0 0 0 0 0 0 0 0 0 0 0.25 0"/>
<feBlend mode="normal" in2="BackgroundImageFix" result="effect1_dropShadow_1_56"/>
<feBlend mode="normal" in="SourceGraphic" in2="effect1_dropShadow_1_56" result="shape"/>
</filter>
<filter id="filter1_d_1_56" x="36.2871" y="3.78642" width="204.429" height="32.4286" filterUnits="userSpaceOnUse" color-interpolation-filters="sRGB">
<feFlood flood-opacity="0" result="BackgroundImageFix"/>
<feColorMatrix in="SourceAlpha" type="matrix" values="0 0 0 0 0 0 0 0 0 0 0 0 0 0 0 0 0 0 127 0" result="hardAlpha"/>
<feOffset/>
<feGaussianBlur stdDeviation="2.85714"/>
<feComposite in2="hardAlpha" operator="out"/>
<feColorMatrix type="matrix" values="0 0 0 0 0 0 0 0 0 0 0 0 0 0 0 0 0 0 0.25 0"/>
<feBlend mode="normal" in2="BackgroundImageFix" result="effect1_dropShadow_1_56"/>
<feBlend mode="normal" in="SourceGraphic" in2="effect1_dropShadow_1_56" result="shape"/>
</filter>
<linearGradient id="paint0_linear_1_56" x1="121.501" y1="0" x2="121.501" y2="40.0014" gradientUnits="userSpaceOnUse">
<stop stop-color="#083349"/>
<stop offset="1" stop-color="#062534"/>
</linearGradient>
</defs>
</svg>
