<svg width="56" height="56" viewBox="0 0 56 56" fill="none" xmlns="http://www.w3.org/2000/svg">
<rect width="56" height="56" rx="8.4" fill="url(#paint0_linear_1_62)"/>
<rect x="1.05" y="1.05" width="53.9" height="53.9" rx="7.35" stroke="white" stroke-opacity="0.15" stroke-width="2.1"/>
<g filter="url(#filter0_d_1_62)">
<path fill-rule="evenodd" clip-rule="evenodd" d="M28.0019 8C26.2206 12.3656 25.1469 15.2213 23.1644 19.4575C24.38 20.7463 25.8719 22.2463 28.2894 23.9413C25.6844 22.8694 23.9144 21.7931 22.5794 20.6762C20.0419 25.97 16.0669 33.5125 8 48.0075C14.3463 44.3475 19.2556 42.0912 23.8419 41.2287C23.645 40.3825 23.5331 39.4675 23.5419 38.5131L23.5494 38.31C23.6494 34.2475 25.7631 31.1238 28.2662 31.3363C30.7694 31.5488 32.715 35.015 32.6144 39.0775C32.5991 39.8113 32.5135 40.5419 32.3587 41.2594C36.89 42.1456 41.7525 44.3969 48.0069 48.0075L44.6194 41.7412C42.9631 40.4581 41.2362 38.7875 37.7131 36.9788C40.135 37.6081 41.8694 38.3337 43.2131 39.1456C32.5256 19.2456 31.6594 16.6019 27.9944 8H28.0019Z" fill="#1793D1"/>
</g>
<defs>
<filter id="filter0_d_1_62" x="2.28571" y="2.28571" width="51.4354" height="51.4361" filterUnits="userSpaceOnUse" color-interpolation-filters="sRGB">
<feFlood flood-opacity="0" result="BackgroundImageFix"/>
<feColorMatrix in="SourceAlpha" type="matrix" values="0 0 0 0 0 0 0 0 0 0 0 0 0 0 0 0 0 0 127 0" result="hardAlpha"/>
<feOffset/>
<feGaussianBlur stdDeviation="2.85714"/>
<feComposite in2="hardAlpha" operator="out"/>
<feColorMatrix type="matrix" values="0 0 0 0 0 0 0 0 0 0 0 0 0 0 0 0 0 0 0.25 0"/>
<feBlend mode="normal" in2="BackgroundImageFix" result="effect1_dropShadow_1_62"/>
<feBlend mode="normal" in="SourceGraphic" in2="effect1_dropShadow_1_62" result="shape"/>
</filter>
<linearGradient id="paint0_linear_1_62" x1="28" y1="0" x2="28" y2="56" gradientUnits="userSpaceOnUse">
<stop stop-color="#083349"/>
<stop offset="1" stop-color="#062534"/>
</linearGradient>
</defs>
</svg>
