<svg width="164" height="56" viewBox="0 0 164 56" fill="none" xmlns="http://www.w3.org/2000/svg">
<rect width="164" height="56" rx="8" fill="url(#paint0_linear_1_50)"/>
<rect x="1.05" y="1.05" width="161.9" height="53.9" rx="6.95" stroke="white" stroke-opacity="0.15" stroke-width="2.1"/>
<g filter="url(#filter0_d_1_50)">
<path fill-rule="evenodd" clip-rule="evenodd" d="M32.0019 8C30.2206 12.3656 29.1469 15.2213 27.1644 19.4575C28.38 20.7463 29.8719 22.2463 32.2894 23.9413C29.6844 22.8694 27.9144 21.7931 26.5794 20.6762C24.0419 25.97 20.0669 33.5125 12 48.0075C18.3463 44.3475 23.2556 42.0912 27.8419 41.2287C27.645 40.3825 27.5331 39.4675 27.5419 38.5131L27.5494 38.31C27.6494 34.2475 29.7631 31.1238 32.2662 31.3363C34.7694 31.5488 36.715 35.015 36.6144 39.0775C36.5991 39.8113 36.5135 40.5419 36.3587 41.2594C40.89 42.1456 45.7525 44.3969 52.0069 48.0075L48.6194 41.7412C46.9631 40.4581 45.2362 38.7875 41.7131 36.9788C44.135 37.6081 45.8694 38.3337 47.2131 39.1456C36.5256 19.2456 35.6594 16.6019 31.9944 8H32.0019Z" fill="#1793D1"/>
</g>
<g filter="url(#filter1_d_1_50)">
<path d="M62.2613 24.5H60.3977L64.5852 12.8636H66.6136L70.8011 24.5H68.9375L65.6477 14.9773H65.5568L62.2613 24.5ZM62.5738 19.9432H68.6193V21.4204H62.5738V19.9432ZM78.7173 15.7727L75.5525 24.5H73.7344L70.5639 15.7727H72.3878L74.598 22.4886H74.6889L76.8934 15.7727H78.7173ZM82.6037 24.6932C82.0506 24.6932 81.5506 24.5909 81.1037 24.3864C80.6567 24.178 80.3025 23.8769 80.0412 23.4829C79.7836 23.089 79.6548 22.6061 79.6548 22.0341C79.6548 21.5417 79.7495 21.1364 79.9389 20.8182C80.1283 20.5 80.384 20.2481 80.7059 20.0625C81.0279 19.8769 81.3878 19.7367 81.7855 19.642C82.1832 19.5473 82.5885 19.4754 83.0014 19.4261C83.5241 19.3655 83.9484 19.3163 84.2741 19.2784C84.5999 19.2367 84.8366 19.1704 84.9844 19.0795C85.1321 18.9886 85.2059 18.8409 85.2059 18.6364V18.5966C85.2059 18.1004 85.0658 17.7159 84.7855 17.4432C84.509 17.1704 84.0961 17.0341 83.5469 17.0341C82.9749 17.0341 82.5241 17.161 82.1946 17.4148C81.8688 17.6648 81.6434 17.9432 81.5184 18.25L79.9219 17.8864C80.1112 17.3561 80.3878 16.928 80.7514 16.6023C81.1188 16.2727 81.5412 16.0341 82.0184 15.8864C82.4957 15.7348 82.9976 15.6591 83.5241 15.6591C83.8726 15.6591 84.2419 15.7008 84.6321 15.7841C85.026 15.8636 85.3934 16.0114 85.7344 16.2273C86.079 16.4432 86.3612 16.7519 86.5809 17.1534C86.8006 17.5511 86.9105 18.0682 86.9105 18.7045V24.5H85.2514V23.3068H85.1832C85.0734 23.5265 84.9086 23.7424 84.6889 23.9545C84.4692 24.1667 84.187 24.3428 83.8423 24.4829C83.4976 24.6231 83.0847 24.6932 82.6037 24.6932ZM82.973 23.3295C83.4427 23.3295 83.8442 23.2367 84.1775 23.0511C84.5147 22.8655 84.7703 22.6231 84.9446 22.3239C85.1226 22.0208 85.2116 21.697 85.2116 21.3523V20.2273C85.151 20.2879 85.0336 20.3447 84.8594 20.3977C84.6889 20.447 84.4938 20.4905 84.2741 20.5284C84.0544 20.5625 83.8404 20.5947 83.6321 20.625C83.4237 20.6515 83.2495 20.6742 83.1094 20.6932C82.7798 20.7348 82.4787 20.8049 82.2059 20.9034C81.937 21.0019 81.7211 21.1439 81.5582 21.3295C81.3991 21.5114 81.3196 21.7538 81.3196 22.0568C81.3196 22.4773 81.4749 22.7954 81.7855 23.0114C82.0961 23.2235 82.4919 23.3295 82.973 23.3295ZM89.1733 24.5V15.7727H90.8721V24.5H89.1733ZM90.0312 14.4261C89.7358 14.4261 89.482 14.3276 89.2699 14.1307C89.0615 13.9299 88.9574 13.6913 88.9574 13.4148C88.9574 13.1345 89.0615 12.8958 89.2699 12.6989C89.482 12.4981 89.7358 12.3977 90.0312 12.3977C90.3267 12.3977 90.5786 12.4981 90.7869 12.6989C90.999 12.8958 91.1051 13.1345 91.1051 13.4148C91.1051 13.6913 90.999 13.9299 90.7869 14.1307C90.5786 14.3276 90.3267 14.4261 90.0312 14.4261ZM94.8565 12.8636V24.5H93.1576V12.8636H94.8565ZM99.6818 24.6932C99.1288 24.6932 98.6288 24.5909 98.1818 24.3864C97.7348 24.178 97.3807 23.8769 97.1193 23.4829C96.8617 23.089 96.7329 22.6061 96.7329 22.0341C96.7329 21.5417 96.8276 21.1364 97.017 20.8182C97.2064 20.5 97.4621 20.2481 97.7841 20.0625C98.106 19.8769 98.4659 19.7367 98.8636 19.642C99.2613 19.5473 99.6666 19.4754 100.08 19.4261C100.602 19.3655 101.026 19.3163 101.352 19.2784C101.678 19.2367 101.915 19.1704 102.062 19.0795C102.21 18.9886 102.284 18.8409 102.284 18.6364V18.5966C102.284 18.1004 102.144 17.7159 101.864 17.4432C101.587 17.1704 101.174 17.0341 100.625 17.0341C100.053 17.0341 99.6022 17.161 99.2727 17.4148C98.9469 17.6648 98.7216 17.9432 98.5966 18.25L97 17.8864C97.1894 17.3561 97.4659 16.928 97.8295 16.6023C98.1969 16.2727 98.6193 16.0341 99.0966 15.8864C99.5738 15.7348 100.076 15.6591 100.602 15.6591C100.951 15.6591 101.32 15.7008 101.71 15.7841C102.104 15.8636 102.472 16.0114 102.812 16.2273C103.157 16.4432 103.439 16.7519 103.659 17.1534C103.879 17.5511 103.989 18.0682 103.989 18.7045V24.5H102.33V23.3068H102.261C102.151 23.5265 101.987 23.7424 101.767 23.9545C101.547 24.1667 101.265 24.3428 100.92 24.4829C100.576 24.6231 100.163 24.6932 99.6818 24.6932ZM100.051 23.3295C100.521 23.3295 100.922 23.2367 101.256 23.0511C101.593 22.8655 101.848 22.6231 102.023 22.3239C102.201 22.0208 102.29 21.697 102.29 21.3523V20.2273C102.229 20.2879 102.112 20.3447 101.937 20.3977C101.767 20.447 101.572 20.4905 101.352 20.5284C101.133 20.5625 100.919 20.5947 100.71 20.625C100.502 20.6515 100.328 20.6742 100.187 20.6932C99.8579 20.7348 99.5568 20.8049 99.2841 20.9034C99.0151 21.0019 98.7992 21.1439 98.6363 21.3295C98.4772 21.5114 98.3977 21.7538 98.3977 22.0568C98.3977 22.4773 98.553 22.7954 98.8636 23.0114C99.1742 23.2235 99.57 23.3295 100.051 23.3295ZM106.388 24.5V12.8636H108.087V17.1875H108.189C108.287 17.0057 108.429 16.7954 108.615 16.5568C108.801 16.3182 109.058 16.1098 109.388 15.9318C109.717 15.75 110.153 15.6591 110.695 15.6591C111.399 15.6591 112.028 15.8371 112.581 16.1932C113.134 16.5492 113.568 17.0625 113.882 17.7329C114.2 18.4034 114.359 19.2102 114.359 20.1534C114.359 21.0966 114.202 21.9053 113.888 22.5795C113.573 23.25 113.142 23.767 112.592 24.1307C112.043 24.4905 111.416 24.6704 110.712 24.6704C110.181 24.6704 109.748 24.5814 109.41 24.4034C109.077 24.2254 108.816 24.017 108.626 23.7784C108.437 23.5398 108.291 23.3276 108.189 23.142H108.047V24.5H106.388ZM108.053 20.1364C108.053 20.75 108.142 21.2879 108.32 21.75C108.498 22.2121 108.755 22.5739 109.092 22.8352C109.429 23.0928 109.842 23.2216 110.331 23.2216C110.839 23.2216 111.263 23.0871 111.604 22.8182C111.945 22.5454 112.202 22.1761 112.376 21.7102C112.554 21.2443 112.643 20.7197 112.643 20.1364C112.643 19.5606 112.556 19.0436 112.382 18.5852C112.212 18.1269 111.954 17.7651 111.609 17.5C111.268 17.2348 110.842 17.1023 110.331 17.1023C109.839 17.1023 109.422 17.2292 109.081 17.4829C108.744 17.7367 108.488 18.0909 108.314 18.5454C108.14 19 108.053 19.5303 108.053 20.1364ZM117.966 12.8636V24.5H116.267V12.8636H117.966ZM124.013 24.6761C123.153 24.6761 122.412 24.4924 121.791 24.125C121.174 23.7538 120.696 23.2329 120.359 22.5625C120.026 21.8883 119.859 21.0985 119.859 20.1932C119.859 19.2992 120.026 18.5114 120.359 17.8295C120.696 17.1477 121.166 16.6155 121.768 16.2329C122.374 15.8504 123.083 15.6591 123.893 15.6591C124.386 15.6591 124.863 15.7405 125.325 15.9034C125.787 16.0663 126.202 16.322 126.57 16.6704C126.937 17.0189 127.227 17.4716 127.439 18.0284C127.651 18.5814 127.757 19.2538 127.757 20.0454V20.6477H120.82V19.375H126.092C126.092 18.928 126.001 18.5322 125.82 18.1875C125.638 17.839 125.382 17.5644 125.053 17.3636C124.727 17.1629 124.344 17.0625 123.905 17.0625C123.428 17.0625 123.011 17.1799 122.655 17.4148C122.303 17.6458 122.03 17.9489 121.837 18.3239C121.647 18.6951 121.553 19.0985 121.553 19.5341V20.5284C121.553 21.1117 121.655 21.6079 121.859 22.017C122.068 22.4261 122.357 22.7386 122.729 22.9545C123.1 23.1667 123.534 23.2727 124.03 23.2727C124.352 23.2727 124.645 23.2273 124.91 23.1364C125.176 23.0417 125.405 22.9015 125.598 22.7159C125.791 22.5303 125.939 22.3011 126.041 22.0284L127.649 22.3182C127.52 22.7917 127.289 23.2064 126.956 23.5625C126.626 23.9148 126.212 24.1894 125.712 24.3864C125.215 24.5795 124.649 24.6761 124.013 24.6761ZM137.553 24.6761C136.734 24.6761 136.02 24.4886 135.41 24.1136C134.801 23.7386 134.327 23.214 133.99 22.5398C133.653 21.8655 133.484 21.0776 133.484 20.1761C133.484 19.2708 133.653 18.4792 133.99 17.8011C134.327 17.1231 134.801 16.5966 135.41 16.2216C136.02 15.8466 136.734 15.6591 137.553 15.6591C138.371 15.6591 139.085 15.8466 139.695 16.2216C140.304 16.5966 140.778 17.1231 141.115 17.8011C141.452 18.4792 141.621 19.2708 141.621 20.1761C141.621 21.0776 141.452 21.8655 141.115 22.5398C140.778 23.214 140.304 23.7386 139.695 24.1136C139.085 24.4886 138.371 24.6761 137.553 24.6761ZM137.558 23.25C138.089 23.25 138.528 23.1098 138.876 22.8295C139.225 22.5492 139.482 22.1761 139.649 21.7102C139.82 21.2443 139.905 20.7311 139.905 20.1704C139.905 19.6136 139.82 19.1023 139.649 18.6364C139.482 18.1667 139.225 17.7898 138.876 17.5057C138.528 17.2216 138.089 17.0795 137.558 17.0795C137.024 17.0795 136.581 17.2216 136.229 17.5057C135.88 17.7898 135.621 18.1667 135.45 18.6364C135.284 19.1023 135.2 19.6136 135.2 20.1704C135.2 20.7311 135.284 21.2443 135.45 21.7102C135.621 22.1761 135.88 22.5492 136.229 22.8295C136.581 23.1098 137.024 23.25 137.558 23.25ZM145.216 19.3182V24.5H143.517V15.7727H145.148V17.1932H145.256C145.456 16.7311 145.771 16.3598 146.199 16.0795C146.631 15.7992 147.174 15.6591 147.83 15.6591C148.424 15.6591 148.945 15.7841 149.392 16.0341C149.839 16.2803 150.186 16.6477 150.432 17.1364C150.678 17.625 150.801 18.2292 150.801 18.9489V24.5H149.102V19.1534C149.102 18.5208 148.937 18.0265 148.608 17.6704C148.278 17.3106 147.826 17.1307 147.25 17.1307C146.856 17.1307 146.506 17.2159 146.199 17.3864C145.896 17.5568 145.655 17.8068 145.477 18.1364C145.303 18.4621 145.216 18.8561 145.216 19.3182Z" fill="#E8E8E8"/>
<path d="M63.6101 43.5H60.3984L64.5699 31.1364H68.5483L72.7198 43.5H69.5081L66.6044 34.2514H66.5078L63.6101 43.5ZM63.1814 38.6342H69.8945V40.9041H63.1814V38.6342ZM74.0509 43.5V34.2273H76.9185V35.9176H77.0151C77.1841 35.3059 77.4598 34.8511 77.8421 34.5533C78.2245 34.2514 78.6692 34.1005 79.1763 34.1005C79.3131 34.1005 79.454 34.1105 79.5989 34.1307C79.7438 34.1468 79.8786 34.1729 80.0034 34.2092V36.7748C79.8625 36.7266 79.6774 36.6883 79.448 36.6601C79.2226 36.632 79.0213 36.6179 78.8443 36.6179C78.4941 36.6179 78.1782 36.6964 77.8965 36.8533C77.6188 37.0063 77.3994 37.2216 77.2384 37.4993C77.0815 37.773 77.003 38.0949 77.003 38.4652V43.5H74.0509ZM85.0532 43.6751C84.0753 43.6751 83.2361 43.4738 82.5358 43.0714C81.8396 42.6689 81.3043 42.1095 80.93 41.3931C80.5557 40.6727 80.3686 39.8396 80.3686 38.8938C80.3686 37.944 80.5557 37.1109 80.93 36.3945C81.3083 35.6741 81.8456 35.1127 82.5419 34.7102C83.2422 34.3078 84.0773 34.1065 85.0472 34.1065C85.9045 34.1065 86.651 34.2615 87.2869 34.5714C87.9268 34.8813 88.4259 35.3199 88.7841 35.8874C89.1463 36.4509 89.3375 37.1129 89.3576 37.8736H86.5987C86.5424 37.3987 86.3814 37.0264 86.1157 36.7567C85.8541 36.4871 85.5121 36.3523 85.0895 36.3523C84.7474 36.3523 84.4475 36.4489 84.19 36.642C83.9324 36.8312 83.7312 37.1129 83.5863 37.4872C83.4454 37.8575 83.375 38.3163 83.375 38.8636C83.375 39.411 83.4454 39.8738 83.5863 40.2521C83.7312 40.6264 83.9324 40.9101 84.19 41.1033C84.4475 41.2925 84.7474 41.3871 85.0895 41.3871C85.3631 41.3871 85.6046 41.3287 85.8139 41.212C86.0272 41.0953 86.2023 40.9242 86.3391 40.6989C86.4759 40.4694 86.5625 40.1918 86.5987 39.8658H89.3576C89.3294 40.6304 89.1382 41.2985 88.7841 41.87C88.4339 42.4415 87.9409 42.8862 87.305 43.2042C86.6732 43.5181 85.9226 43.6751 85.0532 43.6751ZM93.8204 38.2116V43.5H90.8683V31.1364H93.7238V35.9297H93.8264C94.0357 35.3582 94.3778 34.9114 94.8527 34.5895C95.3316 34.2675 95.9172 34.1065 96.6094 34.1065C97.2614 34.1065 97.8289 34.2514 98.3119 34.5412C98.7948 34.8269 99.1691 35.2314 99.4347 35.7546C99.7044 36.2778 99.8372 36.8895 99.8332 37.5898V43.5H96.8811V38.1694C96.8851 37.6542 96.7563 37.2518 96.4947 36.962C96.2331 36.6722 95.8649 36.5273 95.39 36.5273C95.0801 36.5273 94.8064 36.5958 94.569 36.7326C94.3355 36.8654 94.1524 37.0566 94.0196 37.3061C93.8908 37.5556 93.8244 37.8575 93.8204 38.2116ZM105.328 43.5V31.1364H108.317V41.0731H113.46V43.5H105.328ZM115.007 43.5V34.2273H117.959V43.5H115.007ZM116.486 33.1467C116.071 33.1467 115.715 33.0098 115.417 32.7361C115.12 32.4584 114.971 32.1244 114.971 31.734C114.971 31.3476 115.12 31.0176 115.417 30.744C115.715 30.4663 116.071 30.3274 116.486 30.3274C116.905 30.3274 117.261 30.4663 117.555 30.744C117.852 31.0176 118.001 31.3476 118.001 31.734C118.001 32.1244 117.852 32.4584 117.555 32.7361C117.261 33.0098 116.905 33.1467 116.486 33.1467ZM122.79 38.2116V43.5H119.838V34.2273H122.645V35.9297H122.748C122.953 35.3622 123.303 34.9175 123.798 34.5955C124.293 34.2695 124.883 34.1065 125.567 34.1065C126.219 34.1065 126.785 34.2534 127.263 34.5472C127.746 34.837 128.121 35.2435 128.386 35.7667C128.656 36.2859 128.789 36.8936 128.785 37.5898V43.5H125.833V38.1694C125.837 37.6542 125.706 37.2518 125.44 36.962C125.179 36.6722 124.814 36.5273 124.348 36.5273C124.038 36.5273 123.764 36.5958 123.527 36.7326C123.293 36.8654 123.112 37.0566 122.983 37.3061C122.859 37.5556 122.794 37.8575 122.79 38.2116ZM136.595 39.4975V34.2273H139.541V43.5H136.728V41.7734H136.631C136.426 42.3409 136.076 42.7917 135.581 43.1257C135.09 43.4557 134.496 43.6207 133.8 43.6207C133.168 43.6207 132.613 43.4758 132.134 43.1861C131.655 42.8963 131.283 42.4918 131.017 41.9726C130.751 41.4494 130.616 40.8377 130.612 40.1374V34.2273H133.565V39.5579C133.569 40.061 133.701 40.4574 133.963 40.7471C134.225 41.0369 134.581 41.1818 135.031 41.1818C135.325 41.1818 135.589 41.1174 135.822 40.9886C136.06 40.8558 136.247 40.6646 136.384 40.4151C136.525 40.1616 136.595 39.8557 136.595 39.4975ZM143.931 34.2273L145.459 37.2819L147.04 34.2273H150.017L147.427 38.8636L150.113 43.5H147.161L145.459 40.4212L143.799 43.5H140.804L143.497 38.8636L140.937 34.2273H143.931Z" fill="#1793D1"/>
</g>
<defs>
<filter id="filter0_d_1_50" x="6.28571" y="2.28571" width="51.4354" height="51.4361" filterUnits="userSpaceOnUse" color-interpolation-filters="sRGB">
<feFlood flood-opacity="0" result="BackgroundImageFix"/>
<feColorMatrix in="SourceAlpha" type="matrix" values="0 0 0 0 0 0 0 0 0 0 0 0 0 0 0 0 0 0 127 0" result="hardAlpha"/>
<feOffset/>
<feGaussianBlur stdDeviation="2.85714"/>
<feComposite in2="hardAlpha" operator="out"/>
<feColorMatrix type="matrix" values="0 0 0 0 0 0 0 0 0 0 0 0 0 0 0 0 0 0 0.25 0"/>
<feBlend mode="normal" in2="BackgroundImageFix" result="effect1_dropShadow_1_50"/>
<feBlend mode="normal" in="SourceGraphic" in2="effect1_dropShadow_1_50" result="shape"/>
</filter>
<filter id="filter1_d_1_50" x="54.4" y="3.9" width="103.2" height="48.2" filterUnits="userSpaceOnUse" color-interpolation-filters="sRGB">
<feFlood flood-opacity="0" result="BackgroundImageFix"/>
<feColorMatrix in="SourceAlpha" type="matrix" values="0 0 0 0 0 0 0 0 0 0 0 0 0 0 0 0 0 0 127 0" result="hardAlpha"/>
<feOffset/>
<feGaussianBlur stdDeviation="2.8"/>
<feComposite in2="hardAlpha" operator="out"/>
<feColorMatrix type="matrix" values="0 0 0 0 0 0 0 0 0 0 0 0 0 0 0 0 0 0 0.25 0"/>
<feBlend mode="normal" in2="BackgroundImageFix" result="effect1_dropShadow_1_50"/>
<feBlend mode="normal" in="SourceGraphic" in2="effect1_dropShadow_1_50" result="shape"/>
</filter>
<linearGradient id="paint0_linear_1_50" x1="82" y1="0" x2="82" y2="56" gradientUnits="userSpaceOnUse">
<stop stop-color="#083349"/>
<stop offset="1" stop-color="#062534"/>
</linearGradient>
</defs>
</svg>
