<svg width="171" height="56" viewBox="0 0 171 56" fill="none" xmlns="http://www.w3.org/2000/svg">
<rect width="171" height="56" rx="8" fill="url(#paint0_linear_1_50)"/>
<rect x="1.05" y="1.05" width="168.9" height="53.9" rx="6.95" stroke="white" stroke-opacity="0.15" stroke-width="2.1"/>
<g filter="url(#filter0_d_1_50)">
<path d="M46.5879 23.8023C46.3783 22.2807 45.5401 20.9596 44.0276 19.766L43.1529 19.1738L42.5698 20.0576C41.8227 21.1965 41.4491 22.7819 41.5676 24.3034C41.6222 24.8319 41.7953 25.7977 42.3329 26.6268C41.7953 26.9275 40.7293 27.3284 39.308 27.3011H12.1563L12.1016 27.62C11.8465 29.1416 11.8465 33.9068 14.8988 37.5604C17.2222 40.3393 20.6936 41.7516 25.231 41.7516C35.0712 41.7516 42.342 37.1686 45.7588 28.8227C47.0981 28.85 49.9864 28.8318 51.4715 25.9617C51.508 25.8979 51.5991 25.7248 51.8542 25.1781L52 24.8775L51.1709 24.3126C50.2597 23.7203 48.1915 23.4925 46.5879 23.8023ZM33.8685 13.625H29.7411V17.4244H33.8685V13.625ZM33.8685 18.1898H29.7411V21.9892H33.8685V18.1898ZM28.9848 18.1898H24.8574V21.9892H28.9848V18.1898ZM24.1103 18.1898H19.9829V21.9892H24.1103V18.1898ZM19.2266 22.7545H15.0992V26.5539H19.2266V22.7545ZM24.1103 22.7545H19.9829V26.5539H24.1103V22.7545ZM28.9848 22.7545H24.8574V26.5539H28.9848V22.7545ZM33.8685 22.7545H29.7411V26.5539H33.8685V22.7545ZM38.7522 22.7545H34.6247V26.5539H38.7522V22.7545Z" fill="#1D63ED"/>
</g>
<g filter="url(#filter1_d_1_50)">
<path d="M62.2613 24.5H60.3977L64.5852 12.8636H66.6136L70.8011 24.5H68.9375L65.6477 14.9773H65.5568L62.2613 24.5ZM62.5738 19.9432H68.6193V21.4204H62.5738V19.9432ZM78.7173 15.7727L75.5525 24.5H73.7344L70.5639 15.7727H72.3878L74.598 22.4886H74.6889L76.8934 15.7727H78.7173ZM82.6037 24.6932C82.0506 24.6932 81.5506 24.5909 81.1037 24.3864C80.6567 24.178 80.3025 23.8769 80.0412 23.4829C79.7836 23.089 79.6548 22.6061 79.6548 22.0341C79.6548 21.5417 79.7495 21.1364 79.9389 20.8182C80.1283 20.5 80.384 20.2481 80.7059 20.0625C81.0279 19.8769 81.3878 19.7367 81.7855 19.642C82.1832 19.5473 82.5885 19.4754 83.0014 19.4261C83.5241 19.3655 83.9484 19.3163 84.2741 19.2784C84.5999 19.2367 84.8366 19.1704 84.9844 19.0795C85.1321 18.9886 85.2059 18.8409 85.2059 18.6364V18.5966C85.2059 18.1004 85.0658 17.7159 84.7855 17.4432C84.509 17.1704 84.0961 17.0341 83.5469 17.0341C82.9749 17.0341 82.5241 17.161 82.1946 17.4148C81.8688 17.6648 81.6434 17.9432 81.5184 18.25L79.9219 17.8864C80.1112 17.3561 80.3878 16.928 80.7514 16.6023C81.1188 16.2727 81.5412 16.0341 82.0184 15.8864C82.4957 15.7348 82.9976 15.6591 83.5241 15.6591C83.8726 15.6591 84.2419 15.7008 84.6321 15.7841C85.026 15.8636 85.3934 16.0114 85.7344 16.2273C86.079 16.4432 86.3612 16.7519 86.5809 17.1534C86.8006 17.5511 86.9105 18.0682 86.9105 18.7045V24.5H85.2514V23.3068H85.1832C85.0734 23.5265 84.9086 23.7424 84.6889 23.9545C84.4692 24.1667 84.187 24.3428 83.8423 24.4829C83.4976 24.6231 83.0847 24.6932 82.6037 24.6932ZM82.973 23.3295C83.4427 23.3295 83.8442 23.2367 84.1775 23.0511C84.5147 22.8655 84.7703 22.6231 84.9446 22.3239C85.1226 22.0208 85.2116 21.697 85.2116 21.3523V20.2273C85.151 20.2879 85.0336 20.3447 84.8594 20.3977C84.6889 20.447 84.4938 20.4905 84.2741 20.5284C84.0544 20.5625 83.8404 20.5947 83.6321 20.625C83.4237 20.6515 83.2495 20.6742 83.1094 20.6932C82.7798 20.7348 82.4787 20.8049 82.2059 20.9034C81.937 21.0019 81.7211 21.1439 81.5582 21.3295C81.3991 21.5114 81.3196 21.7538 81.3196 22.0568C81.3196 22.4773 81.4749 22.7954 81.7855 23.0114C82.0961 23.2235 82.4919 23.3295 82.973 23.3295ZM89.1733 24.5V15.7727H90.8721V24.5H89.1733ZM90.0312 14.4261C89.7358 14.4261 89.482 14.3276 89.2699 14.1307C89.0615 13.9299 88.9574 13.6913 88.9574 13.4148C88.9574 13.1345 89.0615 12.8958 89.2699 12.6989C89.482 12.4981 89.7358 12.3977 90.0312 12.3977C90.3267 12.3977 90.5786 12.4981 90.7869 12.6989C90.999 12.8958 91.1051 13.1345 91.1051 13.4148C91.1051 13.6913 90.999 13.9299 90.7869 14.1307C90.5786 14.3276 90.3267 14.4261 90.0312 14.4261ZM94.8565 12.8636V24.5H93.1576V12.8636H94.8565ZM99.6818 24.6932C99.1288 24.6932 98.6288 24.5909 98.1818 24.3864C97.7348 24.178 97.3807 23.8769 97.1193 23.4829C96.8617 23.089 96.7329 22.6061 96.7329 22.0341C96.7329 21.5417 96.8276 21.1364 97.017 20.8182C97.2064 20.5 97.4621 20.2481 97.7841 20.0625C98.106 19.8769 98.4659 19.7367 98.8636 19.642C99.2613 19.5473 99.6666 19.4754 100.08 19.4261C100.602 19.3655 101.026 19.3163 101.352 19.2784C101.678 19.2367 101.915 19.1704 102.062 19.0795C102.21 18.9886 102.284 18.8409 102.284 18.6364V18.5966C102.284 18.1004 102.144 17.7159 101.864 17.4432C101.587 17.1704 101.174 17.0341 100.625 17.0341C100.053 17.0341 99.6022 17.161 99.2727 17.4148C98.9469 17.6648 98.7216 17.9432 98.5966 18.25L97 17.8864C97.1894 17.3561 97.4659 16.928 97.8295 16.6023C98.1969 16.2727 98.6193 16.0341 99.0966 15.8864C99.5738 15.7348 100.076 15.6591 100.602 15.6591C100.951 15.6591 101.32 15.7008 101.71 15.7841C102.104 15.8636 102.472 16.0114 102.812 16.2273C103.157 16.4432 103.439 16.7519 103.659 17.1534C103.879 17.5511 103.989 18.0682 103.989 18.7045V24.5H102.33V23.3068H102.261C102.151 23.5265 101.987 23.7424 101.767 23.9545C101.547 24.1667 101.265 24.3428 100.92 24.4829C100.576 24.6231 100.163 24.6932 99.6818 24.6932ZM100.051 23.3295C100.521 23.3295 100.922 23.2367 101.256 23.0511C101.593 22.8655 101.848 22.6231 102.023 22.3239C102.201 22.0208 102.29 21.697 102.29 21.3523V20.2273C102.229 20.2879 102.112 20.3447 101.937 20.3977C101.767 20.447 101.572 20.4905 101.352 20.5284C101.133 20.5625 100.919 20.5947 100.71 20.625C100.502 20.6515 100.328 20.6742 100.187 20.6932C99.8579 20.7348 99.5568 20.8049 99.2841 20.9034C99.0151 21.0019 98.7992 21.1439 98.6363 21.3295C98.4772 21.5114 98.3977 21.7538 98.3977 22.0568C98.3977 22.4773 98.553 22.7954 98.8636 23.0114C99.1742 23.2235 99.57 23.3295 100.051 23.3295ZM106.388 24.5V12.8636H108.087V17.1875H108.189C108.287 17.0057 108.429 16.7954 108.615 16.5568C108.801 16.3182 109.058 16.1098 109.388 15.9318C109.717 15.75 110.153 15.6591 110.695 15.6591C111.399 15.6591 112.028 15.8371 112.581 16.1932C113.134 16.5492 113.568 17.0625 113.882 17.7329C114.2 18.4034 114.359 19.2102 114.359 20.1534C114.359 21.0966 114.202 21.9053 113.888 22.5795C113.573 23.25 113.142 23.767 112.592 24.1307C112.043 24.4905 111.416 24.6704 110.712 24.6704C110.181 24.6704 109.748 24.5814 109.41 24.4034C109.077 24.2254 108.816 24.017 108.626 23.7784C108.437 23.5398 108.291 23.3276 108.189 23.142H108.047V24.5H106.388ZM108.053 20.1364C108.053 20.75 108.142 21.2879 108.32 21.75C108.498 22.2121 108.755 22.5739 109.092 22.8352C109.429 23.0928 109.842 23.2216 110.331 23.2216C110.839 23.2216 111.263 23.0871 111.604 22.8182C111.945 22.5454 112.202 22.1761 112.376 21.7102C112.554 21.2443 112.643 20.7197 112.643 20.1364C112.643 19.5606 112.556 19.0436 112.382 18.5852C112.212 18.1269 111.954 17.7651 111.609 17.5C111.268 17.2348 110.842 17.1023 110.331 17.1023C109.839 17.1023 109.422 17.2292 109.081 17.4829C108.744 17.7367 108.488 18.0909 108.314 18.5454C108.14 19 108.053 19.5303 108.053 20.1364ZM117.966 12.8636V24.5H116.267V12.8636H117.966ZM124.013 24.6761C123.153 24.6761 122.412 24.4924 121.791 24.125C121.174 23.7538 120.696 23.2329 120.359 22.5625C120.026 21.8883 119.859 21.0985 119.859 20.1932C119.859 19.2992 120.026 18.5114 120.359 17.8295C120.696 17.1477 121.166 16.6155 121.768 16.2329C122.374 15.8504 123.083 15.6591 123.893 15.6591C124.386 15.6591 124.863 15.7405 125.325 15.9034C125.787 16.0663 126.202 16.322 126.57 16.6704C126.937 17.0189 127.227 17.4716 127.439 18.0284C127.651 18.5814 127.757 19.2538 127.757 20.0454V20.6477H120.82V19.375H126.092C126.092 18.928 126.001 18.5322 125.82 18.1875C125.638 17.839 125.382 17.5644 125.053 17.3636C124.727 17.1629 124.344 17.0625 123.905 17.0625C123.428 17.0625 123.011 17.1799 122.655 17.4148C122.303 17.6458 122.03 17.9489 121.837 18.3239C121.647 18.6951 121.553 19.0985 121.553 19.5341V20.5284C121.553 21.1117 121.655 21.6079 121.859 22.017C122.068 22.4261 122.357 22.7386 122.729 22.9545C123.1 23.1667 123.534 23.2727 124.03 23.2727C124.352 23.2727 124.645 23.2273 124.91 23.1364C125.176 23.0417 125.405 22.9015 125.598 22.7159C125.791 22.5303 125.939 22.3011 126.041 22.0284L127.649 22.3182C127.52 22.7917 127.289 23.2064 126.956 23.5625C126.626 23.9148 126.212 24.1894 125.712 24.3864C125.215 24.5795 124.649 24.6761 124.013 24.6761ZM137.553 24.6761C136.734 24.6761 136.02 24.4886 135.41 24.1136C134.801 23.7386 134.327 23.214 133.99 22.5398C133.653 21.8655 133.484 21.0776 133.484 20.1761C133.484 19.2708 133.653 18.4792 133.99 17.8011C134.327 17.1231 134.801 16.5966 135.41 16.2216C136.02 15.8466 136.734 15.6591 137.553 15.6591C138.371 15.6591 139.085 15.8466 139.695 16.2216C140.304 16.5966 140.778 17.1231 141.115 17.8011C141.452 18.4792 141.621 19.2708 141.621 20.1761C141.621 21.0776 141.452 21.8655 141.115 22.5398C140.778 23.214 140.304 23.7386 139.695 24.1136C139.085 24.4886 138.371 24.6761 137.553 24.6761ZM137.558 23.25C138.089 23.25 138.528 23.1098 138.876 22.8295C139.225 22.5492 139.482 22.1761 139.649 21.7102C139.82 21.2443 139.905 20.7311 139.905 20.1704C139.905 19.6136 139.82 19.1023 139.649 18.6364C139.482 18.1667 139.225 17.7898 138.876 17.5057C138.528 17.2216 138.089 17.0795 137.558 17.0795C137.024 17.0795 136.581 17.2216 136.229 17.5057C135.88 17.7898 135.621 18.1667 135.45 18.6364C135.284 19.1023 135.2 19.6136 135.2 20.1704C135.2 20.7311 135.284 21.2443 135.45 21.7102C135.621 22.1761 135.88 22.5492 136.229 22.8295C136.581 23.1098 137.024 23.25 137.558 23.25ZM145.216 19.3182V24.5H143.517V15.7727H145.148V17.1932H145.256C145.456 16.7311 145.771 16.3598 146.199 16.0795C146.631 15.7992 147.174 15.6591 147.83 15.6591C148.424 15.6591 148.945 15.7841 149.392 16.0341C149.839 16.2803 150.186 16.6477 150.432 17.1364C150.678 17.625 150.801 18.2292 150.801 18.9489V24.5H149.102V19.1534C149.102 18.5208 148.937 18.0265 148.608 17.6704C148.278 17.3106 147.826 17.1307 147.25 17.1307C146.856 17.1307 146.506 17.2159 146.199 17.3864C145.896 17.5568 145.655 17.8068 145.477 18.1364C145.303 18.4621 145.216 18.8561 145.216 19.3182Z" fill="#E8E8E8"/>
<path d="M65.5057 43.5H60.9357V31.1364H65.4996C66.7593 31.1364 67.844 31.3839 68.7535 31.8789C69.6671 32.3699 70.3714 33.0782 70.8665 34.0039C71.3615 34.9255 71.609 36.0283 71.609 37.3121C71.609 38.6 71.3615 39.7068 70.8665 40.6324C70.3755 41.5581 69.6732 42.2685 68.7596 42.7635C67.846 43.2545 66.7613 43.5 65.5057 43.5ZM63.924 40.9524H65.391C66.0832 40.9524 66.6688 40.8357 67.1477 40.6023C67.6307 40.3648 67.9949 39.9805 68.2404 39.4492C68.4899 38.9139 68.6147 38.2016 68.6147 37.3121C68.6147 36.4227 68.4899 35.7144 68.2404 35.1871C67.9909 34.6559 67.6226 34.2735 67.1356 34.0401C66.6527 33.8027 66.057 33.6839 65.3487 33.6839H63.924V40.9524ZM77.6822 43.6751C76.7082 43.6751 75.8711 43.4758 75.1708 43.0774C74.4745 42.6749 73.9372 42.1155 73.5589 41.3991C73.1846 40.6787 72.9975 39.8436 72.9975 38.8938C72.9975 37.94 73.1846 37.1049 73.5589 36.3885C73.9372 35.6681 74.4745 35.1087 75.1708 34.7102C75.8711 34.3078 76.7082 34.1065 77.6822 34.1065C78.6561 34.1065 79.4912 34.3078 80.1875 34.7102C80.8878 35.1087 81.425 35.6681 81.7993 36.3885C82.1777 37.1049 82.3668 37.94 82.3668 38.8938C82.3668 39.8436 82.1777 40.6787 81.7993 41.3991C81.425 42.1155 80.8878 42.6749 80.1875 43.0774C79.4912 43.4758 78.6561 43.6751 77.6822 43.6751ZM77.7003 41.4474C78.0544 41.4474 78.3543 41.3388 78.5998 41.1214C78.8453 40.9041 79.0324 40.6023 79.1612 40.2159C79.294 39.8295 79.3604 39.3828 79.3604 38.8757C79.3604 38.3605 79.294 37.9098 79.1612 37.5234C79.0324 37.1371 78.8453 36.8352 78.5998 36.6179C78.3543 36.4006 78.0544 36.2919 77.7003 36.2919C77.334 36.2919 77.0241 36.4006 76.7706 36.6179C76.521 36.8352 76.3299 37.1371 76.1971 37.5234C76.0683 37.9098 76.0039 38.3605 76.0039 38.8757C76.0039 39.3828 76.0683 39.8295 76.1971 40.2159C76.3299 40.6023 76.521 40.9041 76.7706 41.1214C77.0241 41.3388 77.334 41.4474 77.7003 41.4474ZM88.2075 43.6751C87.2296 43.6751 86.3904 43.4738 85.6901 43.0714C84.9939 42.6689 84.4586 42.1095 84.0843 41.3931C83.71 40.6727 83.5229 39.8396 83.5229 38.8938C83.5229 37.944 83.71 37.1109 84.0843 36.3945C84.4626 35.6741 84.9999 35.1127 85.6962 34.7102C86.3965 34.3078 87.2316 34.1065 88.2015 34.1065C89.0587 34.1065 89.8053 34.2615 90.4412 34.5714C91.0811 34.8813 91.5802 35.3199 91.9384 35.8874C92.3006 36.4509 92.4917 37.1129 92.5119 37.8736H89.753C89.6966 37.3987 89.5357 37.0264 89.27 36.7567C89.0084 36.4871 88.6663 36.3523 88.2438 36.3523C87.9017 36.3523 87.6018 36.4489 87.3443 36.642C87.0867 36.8312 86.8855 37.1129 86.7406 37.4872C86.5997 37.8575 86.5293 38.3163 86.5293 38.8636C86.5293 39.411 86.5997 39.8738 86.7406 40.2521C86.8855 40.6264 87.0867 40.9101 87.3443 41.1033C87.6018 41.2925 87.9017 41.3871 88.2438 41.3871C88.5174 41.3871 88.7589 41.3287 88.9682 41.212C89.1815 41.0953 89.3566 40.9242 89.4934 40.6989C89.6302 40.4694 89.7168 40.1918 89.753 39.8658H92.5119C92.4837 40.6304 92.2925 41.2985 91.9384 41.87C91.5882 42.4415 91.0952 42.8862 90.4593 43.2042C89.8275 43.5181 89.0769 43.6751 88.2075 43.6751ZM96.6849 41.0671L96.697 37.5476H97.1075L99.7154 34.2273H103.06L99.1842 38.9844H98.4054L96.6849 41.0671ZM94.0226 43.5V31.1364H96.9747V43.5H94.0226ZM99.7818 43.5L97.355 39.6484L99.2989 37.5536L103.193 43.5H99.7818ZM108.069 43.6751C107.099 43.6751 106.262 43.4839 105.558 43.1016C104.857 42.7152 104.318 42.1658 103.94 41.4535C103.565 40.7371 103.378 39.8859 103.378 38.8998C103.378 37.942 103.568 37.1049 103.946 36.3885C104.324 35.6681 104.857 35.1087 105.546 34.7102C106.234 34.3078 107.045 34.1065 107.978 34.1065C108.639 34.1065 109.242 34.2092 109.79 34.4144C110.337 34.6197 110.81 34.9235 111.208 35.326C111.607 35.7284 111.917 36.2255 112.138 36.8171C112.359 37.4047 112.47 38.0788 112.47 38.8395V39.576H104.411V37.8615H109.723C109.719 37.5476 109.645 37.2679 109.5 37.0224C109.355 36.7769 109.156 36.5857 108.902 36.4489C108.653 36.308 108.365 36.2376 108.039 36.2376C107.709 36.2376 107.413 36.312 107.151 36.4609C106.89 36.6058 106.683 36.805 106.53 37.0586C106.377 37.3081 106.296 37.5918 106.288 37.9098V39.6545C106.288 40.0328 106.363 40.3648 106.512 40.6506C106.66 40.9323 106.872 41.1516 107.145 41.3086C107.419 41.4655 107.745 41.544 108.123 41.544C108.385 41.544 108.622 41.5078 108.836 41.4354C109.049 41.3629 109.232 41.2563 109.385 41.1154C109.538 40.9745 109.653 40.8015 109.729 40.5962L112.44 40.6747C112.327 41.2824 112.08 41.8117 111.697 42.2624C111.319 42.7092 110.822 43.0573 110.206 43.3068C109.59 43.5523 108.878 43.6751 108.069 43.6751ZM113.978 43.5V34.2273H116.845V35.9176H116.942C117.111 35.3059 117.387 34.8511 117.769 34.5533C118.151 34.2514 118.596 34.1005 119.103 34.1005C119.24 34.1005 119.381 34.1105 119.526 34.1307C119.671 34.1468 119.805 34.1729 119.93 34.2092V36.7748C119.789 36.7266 119.604 36.6883 119.375 36.6601C119.149 36.632 118.948 36.6179 118.771 36.6179C118.421 36.6179 118.105 36.6964 117.823 36.8533C117.546 37.0063 117.326 37.2216 117.165 37.4993C117.008 37.773 116.93 38.0949 116.93 38.4652V43.5H113.978ZM124.785 43.5V31.1364H127.774V36.0987H132.645V31.1364H135.628V43.5H132.645V38.5316H127.774V43.5H124.785ZM143.485 39.4975V34.2273H146.431V43.5H143.618V41.7734H143.521C143.316 42.3409 142.966 42.7917 142.47 43.1257C141.979 43.4557 141.386 43.6207 140.69 43.6207C140.058 43.6207 139.502 43.4758 139.023 43.1861C138.544 42.8963 138.172 42.4918 137.907 41.9726C137.641 41.4494 137.506 40.8377 137.502 40.1374V34.2273H140.454V39.5579C140.458 40.061 140.591 40.4574 140.853 40.7471C141.114 41.0369 141.47 41.1818 141.921 41.1818C142.215 41.1818 142.479 41.1174 142.712 40.9886C142.949 40.8558 143.137 40.6646 143.273 40.4151C143.414 40.1616 143.485 39.8557 143.485 39.4975ZM148.31 43.5V31.1364H151.262V35.815H151.322C151.443 35.5333 151.614 35.2616 151.835 35C152.061 34.7384 152.346 34.5251 152.693 34.3601C153.043 34.191 153.461 34.1065 153.948 34.1065C154.592 34.1065 155.194 34.2756 155.753 34.6136C156.317 34.9517 156.771 35.4729 157.118 36.1772C157.464 36.8815 157.637 37.779 157.637 38.8697C157.637 39.9201 157.47 40.7995 157.136 41.5078C156.806 42.2161 156.359 42.7474 155.795 43.1016C155.236 43.4557 154.614 43.6328 153.93 43.6328C153.463 43.6328 153.059 43.5563 152.717 43.4034C152.375 43.2505 152.087 43.0492 151.853 42.7997C151.624 42.5502 151.447 42.2825 151.322 41.9968H151.232V43.5H148.31ZM151.201 38.8636C151.201 39.3627 151.268 39.7973 151.401 40.1676C151.537 40.5379 151.733 40.8256 151.986 41.0309C152.244 41.2321 152.552 41.3327 152.91 41.3327C153.272 41.3327 153.58 41.2321 153.833 41.0309C154.087 40.8256 154.278 40.5379 154.407 40.1676C154.54 39.7973 154.606 39.3627 154.606 38.8636C154.606 38.3646 154.54 37.9319 154.407 37.5657C154.278 37.1994 154.087 36.9157 153.833 36.7145C153.584 36.5132 153.276 36.4126 152.91 36.4126C152.548 36.4126 152.24 36.5112 151.986 36.7084C151.733 36.9056 151.537 37.1874 151.401 37.5536C151.268 37.9199 151.201 38.3565 151.201 38.8636Z" fill="#E5F2FC"/>
</g>
<defs>
<filter id="filter0_d_1_50" x="6.28571" y="2.28571" width="51.4286" height="51.4286" filterUnits="userSpaceOnUse" color-interpolation-filters="sRGB">
<feFlood flood-opacity="0" result="BackgroundImageFix"/>
<feColorMatrix in="SourceAlpha" type="matrix" values="0 0 0 0 0 0 0 0 0 0 0 0 0 0 0 0 0 0 127 0" result="hardAlpha"/>
<feOffset/>
<feGaussianBlur stdDeviation="2.85714"/>
<feComposite in2="hardAlpha" operator="out"/>
<feColorMatrix type="matrix" values="0 0 0 0 0 0 0 0 0 0 0 0 0 0 0 0 0 0 0.25 0"/>
<feBlend mode="normal" in2="BackgroundImageFix" result="effect1_dropShadow_1_50"/>
<feBlend mode="normal" in="SourceGraphic" in2="effect1_dropShadow_1_50" result="shape"/>
</filter>
<filter id="filter1_d_1_50" x="54.4" y="3.9" width="110.2" height="48.2" filterUnits="userSpaceOnUse" color-interpolation-filters="sRGB">
<feFlood flood-opacity="0" result="BackgroundImageFix"/>
<feColorMatrix in="SourceAlpha" type="matrix" values="0 0 0 0 0 0 0 0 0 0 0 0 0 0 0 0 0 0 127 0" result="hardAlpha"/>
<feOffset/>
<feGaussianBlur stdDeviation="2.8"/>
<feComposite in2="hardAlpha" operator="out"/>
<feColorMatrix type="matrix" values="0 0 0 0 0 0 0 0 0 0 0 0 0 0 0 0 0 0 0.25 0"/>
<feBlend mode="normal" in2="BackgroundImageFix" result="effect1_dropShadow_1_50"/>
<feBlend mode="normal" in="SourceGraphic" in2="effect1_dropShadow_1_50" result="shape"/>
</filter>
<linearGradient id="paint0_linear_1_50" x1="85.5" y1="0" x2="85.5" y2="56" gradientUnits="userSpaceOnUse">
<stop stop-color="#0A307B"/>
<stop offset="1" stop-color="#061D4A"/>
</linearGradient>
</defs>
</svg>
