<svg width="57" height="56" viewBox="0 0 57 56" fill="none" xmlns="http://www.w3.org/2000/svg">
<rect x="0.0107422" y="-0.000183105" width="56" height="56" rx="8.4" fill="url(#paint0_linear_28_3374)"/>
<rect x="1.06074" y="1.04982" width="53.9" height="53.9" rx="7.35" stroke="white" stroke-opacity="0.15" stroke-width="2.1"/>
<g filter="url(#filter0_d_28_3374)">
<mask id="path-3-outside-1_28_3374" maskUnits="userSpaceOnUse" x="8.43994" y="11.2856" width="39" height="34" fill="black">
<rect fill="white" x="8.43994" y="11.2856" width="39" height="34"/>
<path fill-rule="evenodd" clip-rule="evenodd" d="M19.1241 14.773C15.6141 14.773 11.9724 17.8905 11.9724 22.2583C11.9724 27.4104 15.896 32.1413 20.1793 35.7231C22.5753 37.7114 25.1563 39.4741 27.8881 40.988L28.0114 41.056L28.1346 40.9897C28.5921 40.736 29.2506 40.3596 30.0424 39.872C31.6294 38.897 33.7398 37.4825 35.8434 35.7231C40.1267 32.1413 44.0503 27.4104 44.0503 22.2583C44.0503 17.8905 40.4086 14.773 36.8986 14.773C33.3431 14.773 30.4814 17.0763 29.2118 20.8139C29.1273 21.061 28.966 21.2757 28.7506 21.4278C28.5353 21.58 28.2767 21.6618 28.0114 21.6618C27.7461 21.6618 27.4875 21.58 27.2721 21.4278C27.0567 21.2757 26.8954 21.061 26.811 20.8139C25.5414 17.0763 22.678 14.773 19.1241 14.773ZM28.0114 42.4705L28.5905 43.5765C28.4113 43.667 28.2128 43.7142 28.0114 43.7142C27.8099 43.7142 27.6114 43.667 27.4323 43.5765L28.0114 42.4705ZM9.43994 22.2566C9.43994 16.5191 14.2162 12.2856 19.1241 12.2856C22.9971 12.2856 26.1221 14.3186 28.0114 17.4345C29.9023 14.3186 33.0257 12.2856 36.8986 12.2856C41.8049 12.2856 46.5828 16.5175 46.5828 22.2583C46.5828 28.5894 41.8538 33.9654 37.4845 37.6168C34.7525 39.8834 31.7922 41.8703 28.6496 43.5467L28.6073 43.5682L28.5955 43.5732L28.5921 43.5749L28.0114 42.4705L27.4323 43.5765L27.4272 43.5732L27.4154 43.5682L27.3732 43.5467C26.4436 43.0537 25.5303 42.5317 24.6347 41.9813C22.4988 40.6717 20.4614 39.2131 18.5383 37.6168C14.1672 33.9637 9.43994 28.5894 9.43994 22.2583V22.2566Z"/>
</mask>
<path fill-rule="evenodd" clip-rule="evenodd" d="M19.1241 14.773C15.6141 14.773 11.9724 17.8905 11.9724 22.2583C11.9724 27.4104 15.896 32.1413 20.1793 35.7231C22.5753 37.7114 25.1563 39.4741 27.8881 40.988L28.0114 41.056L28.1346 40.9897C28.5921 40.736 29.2506 40.3596 30.0424 39.872C31.6294 38.897 33.7398 37.4825 35.8434 35.7231C40.1267 32.1413 44.0503 27.4104 44.0503 22.2583C44.0503 17.8905 40.4086 14.773 36.8986 14.773C33.3431 14.773 30.4814 17.0763 29.2118 20.8139C29.1273 21.061 28.966 21.2757 28.7506 21.4278C28.5353 21.58 28.2767 21.6618 28.0114 21.6618C27.7461 21.6618 27.4875 21.58 27.2721 21.4278C27.0567 21.2757 26.8954 21.061 26.811 20.8139C25.5414 17.0763 22.678 14.773 19.1241 14.773ZM28.0114 42.4705L28.5905 43.5765C28.4113 43.667 28.2128 43.7142 28.0114 43.7142C27.8099 43.7142 27.6114 43.667 27.4323 43.5765L28.0114 42.4705ZM9.43994 22.2566C9.43994 16.5191 14.2162 12.2856 19.1241 12.2856C22.9971 12.2856 26.1221 14.3186 28.0114 17.4345C29.9023 14.3186 33.0257 12.2856 36.8986 12.2856C41.8049 12.2856 46.5828 16.5175 46.5828 22.2583C46.5828 28.5894 41.8538 33.9654 37.4845 37.6168C34.7525 39.8834 31.7922 41.8703 28.6496 43.5467L28.6073 43.5682L28.5955 43.5732L28.5921 43.5749L28.0114 42.4705L27.4323 43.5765L27.4272 43.5732L27.4154 43.5682L27.3732 43.5467C26.4436 43.0537 25.5303 42.5317 24.6347 41.9813C22.4988 40.6717 20.4614 39.2131 18.5383 37.6168C14.1672 33.9637 9.43994 28.5894 9.43994 22.2583V22.2566Z" fill="#DB61A2"/>
<path d="M27.7487 43.7422L28.3278 42.6361L27.695 42.3048L27.1159 43.4109L27.7487 43.7422ZM20.1793 35.7231L19.7211 36.2711L19.7232 36.2728L20.1793 35.7231ZM27.8881 40.988L27.5419 41.6128L27.5431 41.6135L27.8881 40.988ZM28.0114 41.056L27.6664 41.6815L28.0072 41.8694L28.3499 41.685L28.0114 41.056ZM28.1346 40.9897L28.4731 41.6187L28.481 41.6144L28.1346 40.9897ZM30.0424 39.872L29.6685 39.2634L29.6679 39.2638L30.0424 39.872ZM35.8434 35.7231L35.3852 35.1752L35.3852 35.1752L35.8434 35.7231ZM29.2118 20.8139L29.8877 21.045L29.8881 21.0437L29.2118 20.8139ZM26.811 20.8139L26.1346 21.0437L26.1351 21.045L26.811 20.8139ZM28.0114 42.4705L28.6436 42.138L27.3786 42.8018L28.0114 42.4705ZM28.5905 43.5765L28.9125 44.2141L29.5594 43.8873L29.2233 43.2452L28.5905 43.5765ZM27.4323 43.5765L27.041 44.1741L27.0745 44.196L27.1102 44.2141L27.4323 43.5765ZM28.0114 17.4345L27.4006 17.8048L28.0111 18.8117L28.622 17.805L28.0114 17.4345ZM37.4845 37.6168L37.9406 38.1666L37.9425 38.1649L37.4845 37.6168ZM28.6496 43.5467L28.9745 44.1829L28.9857 44.1769L28.6496 43.5467ZM28.6073 43.5682L28.8845 44.2266L28.9088 44.2163L28.9322 44.2044L28.6073 43.5682ZM28.5955 43.5732L28.3184 42.9149L28.2994 42.9229L28.2809 42.932L28.5955 43.5732ZM28.5921 43.5749L27.96 43.9073L28.2833 44.5221L28.9068 44.2161L28.5921 43.5749ZM27.4272 43.5732L27.8185 42.9757L27.7642 42.9401L27.7044 42.9149L27.4272 43.5732ZM27.4154 43.5682L27.0905 44.2044L27.1139 44.2163L27.1382 44.2266L27.4154 43.5682ZM27.3732 43.5467L27.0385 44.1778L27.0483 44.1828L27.3732 43.5467ZM24.6347 41.9813L25.0087 41.3728L25.0081 41.3724L24.6347 41.9813ZM18.5383 37.6168L18.0802 38.1649L18.082 38.1665L18.5383 37.6168ZM19.1241 14.0587C15.2317 14.0587 11.2581 17.484 11.2581 22.2583H12.6867C12.6867 18.2969 15.9965 15.4873 19.1241 15.4873V14.0587ZM11.2581 22.2583C11.2581 27.7544 15.4163 32.6713 19.7211 36.2711L20.6375 35.1752C16.3758 31.6114 12.6867 27.0664 12.6867 22.2583H11.2581ZM19.7232 36.2728C22.1535 38.2895 24.7713 40.0774 27.5419 41.6128L28.2344 40.3633C25.5413 38.8708 22.9971 37.1332 20.6354 35.1735L19.7232 36.2728ZM27.5431 41.6135L27.6664 41.6815L28.3564 40.4306L28.2331 40.3626L27.5431 41.6135ZM28.3499 41.685L28.4731 41.6187L27.7961 40.3607L27.6729 40.427L28.3499 41.685ZM28.481 41.6144C28.9464 41.3563 29.6144 40.9744 30.4169 40.4803L29.6679 39.2638C28.8868 39.7447 28.2379 40.1157 27.7882 40.365L28.481 41.6144ZM30.4163 40.4806C32.0234 39.4933 34.1641 38.0588 36.3017 36.2711L35.3852 35.1752C33.3155 36.9062 31.2354 38.3007 29.6685 39.2634L30.4163 40.4806ZM36.3017 36.2711C40.6064 32.6713 44.7646 27.7544 44.7646 22.2583H43.336C43.336 27.0664 39.647 31.6114 35.3852 35.1752L36.3017 36.2711ZM44.7646 22.2583C44.7646 17.484 40.7911 14.0587 36.8986 14.0587V15.4873C40.0262 15.4873 43.336 18.2969 43.336 22.2583H44.7646ZM36.8986 14.0587C32.9832 14.0587 29.8849 16.6114 28.5354 20.5842L29.8881 21.0437C31.0778 17.5412 33.7029 15.4873 36.8986 15.4873V14.0587ZM28.5359 20.5829C28.5006 20.6861 28.4324 20.7781 28.3386 20.8444L29.1627 22.0113C29.4996 21.7733 29.754 21.4358 29.8877 21.045L28.5359 20.5829ZM28.3386 20.8444C28.2445 20.9108 28.13 20.9475 28.0114 20.9475V22.3761C28.4233 22.3761 28.826 22.2491 29.1627 22.0113L28.3386 20.8444ZM28.0114 20.9475C27.8927 20.9475 27.7782 20.9108 27.6842 20.8444L26.86 22.0113C27.1967 22.2491 27.5995 22.3761 28.0114 22.3761V20.9475ZM27.6842 20.8444C27.5903 20.7781 27.5221 20.6861 27.4869 20.5829L26.1351 21.045C26.2687 21.4358 26.5231 21.7733 26.86 22.0113L27.6842 20.8444ZM27.4873 20.5842C26.1378 16.6113 23.0377 14.0587 19.1241 14.0587V15.4873C22.3183 15.4873 24.945 17.5413 26.1346 21.0437L27.4873 20.5842ZM27.3786 42.8018L27.9577 43.9079L29.2233 43.2452L28.6442 42.1392L27.3786 42.8018ZM28.2684 42.939C28.1895 42.9788 28.1014 42.9999 28.0114 42.9999V44.4285C28.3242 44.4285 28.6331 44.3552 28.9125 44.2141L28.2684 42.939ZM28.0114 42.9999C27.9214 42.9999 27.8332 42.9788 27.7543 42.939L27.1102 44.2141C27.3896 44.3552 27.6985 44.4285 28.0114 44.4285V42.9999ZM10.1542 22.2566C10.1542 16.9256 14.5986 12.9999 19.1241 12.9999V11.5714C13.8338 11.5714 8.72566 16.1127 8.72566 22.2566H10.1542ZM19.1241 12.9999C22.7196 12.9999 25.6258 14.8777 27.4006 17.8048L28.6222 17.0641C26.6185 13.7596 23.2745 11.5714 19.1241 11.5714V12.9999ZM28.622 17.805C30.3986 14.8775 33.3033 12.9999 36.8986 12.9999V11.5714C32.748 11.5714 29.4059 13.7598 27.4007 17.0639L28.622 17.805ZM36.8986 12.9999C41.4225 12.9999 45.8685 16.924 45.8685 22.2583H47.2971C47.2971 16.1109 42.1872 11.5714 36.8986 11.5714V12.9999ZM45.8685 22.2583C45.8685 28.2453 41.3742 33.4354 37.0265 37.0687L37.9425 38.1649C42.3335 34.4954 47.2971 28.9335 47.2971 22.2583H45.8685ZM37.0284 37.0671C34.3337 39.3027 31.4135 41.2627 28.3134 42.9165L28.9857 44.1769C32.1708 42.4779 35.1713 40.464 37.9406 38.1666L37.0284 37.0671ZM28.3246 42.9106L28.2824 42.9321L28.9322 44.2044L28.9745 44.1828L28.3246 42.9106ZM28.3302 42.9099L28.3184 42.9149L28.8727 44.2315L28.8845 44.2266L28.3302 42.9099ZM28.2809 42.932L28.2775 42.9336L28.9068 44.2161L28.9102 44.2145L28.2809 42.932ZM29.2243 43.2424L28.6436 42.138L27.3792 42.803L27.96 43.9073L29.2243 43.2424ZM27.8236 42.979L27.8185 42.9757L27.0359 44.1708L27.041 44.1741L27.8236 42.979ZM27.7044 42.9149L27.6926 42.9099L27.1382 44.2266L27.15 44.2315L27.7044 42.9149ZM27.7403 42.9321L27.6981 42.9106L27.0483 44.1828L27.0905 44.2044L27.7403 42.9321ZM27.7078 42.9156C26.7916 42.4298 25.8914 41.9152 25.0087 41.3728L24.2608 42.5899C25.1692 43.1482 26.0956 43.6777 27.0386 44.1777L27.7078 42.9156ZM25.0081 41.3724C22.9011 40.0805 20.8914 38.6418 18.9945 37.0672L18.082 38.1665C20.0314 39.7845 22.0965 41.2629 24.2614 42.5903L25.0081 41.3724ZM18.9963 37.0688C14.6469 33.4337 10.1542 28.2454 10.1542 22.2583H8.72566C8.72566 28.9335 13.6876 34.4938 18.0802 38.1649L18.9963 37.0688ZM10.1542 22.2583V22.2566H8.72566V22.2583H10.1542Z" fill="#DB61A2" mask="url(#path-3-outside-1_28_3374)"/>
</g>
<defs>
<filter id="filter0_d_28_3374" x="2.29646" y="2.28553" width="51.4286" height="51.4286" filterUnits="userSpaceOnUse" color-interpolation-filters="sRGB">
<feFlood flood-opacity="0" result="BackgroundImageFix"/>
<feColorMatrix in="SourceAlpha" type="matrix" values="0 0 0 0 0 0 0 0 0 0 0 0 0 0 0 0 0 0 127 0" result="hardAlpha"/>
<feOffset/>
<feGaussianBlur stdDeviation="2.85714"/>
<feComposite in2="hardAlpha" operator="out"/>
<feColorMatrix type="matrix" values="0 0 0 0 0 0 0 0 0 0 0 0 0 0 0 0 0 0 0.25 0"/>
<feBlend mode="normal" in2="BackgroundImageFix" result="effect1_dropShadow_28_3374"/>
<feBlend mode="normal" in="SourceGraphic" in2="effect1_dropShadow_28_3374" result="shape"/>
</filter>
<linearGradient id="paint0_linear_28_3374" x1="28.0107" y1="-0.000183105" x2="28.0107" y2="55.9998" gradientUnits="userSpaceOnUse">
<stop stop-color="#181F29"/>
<stop offset="1" stop-color="#0F131A"/>
</linearGradient>
</defs>
</svg>
