<svg width="56" height="56" viewBox="0 0 56 56" fill="none" xmlns="http://www.w3.org/2000/svg">
<rect width="56" height="56" rx="8.4" fill="url(#paint0_linear_1_62)"/>
<rect x="1.05" y="1.05" width="53.9" height="53.9" rx="7.35" stroke="white" stroke-opacity="0.15" stroke-width="2.1"/>
<g filter="url(#filter0_d_1_62)">
<path d="M17.5625 31.375C18.125 31 18.625 30.0625 18.3125 29.375C17.5625 29.75 17.625 30.5 17.5625 31.375Z" fill="#E3E3F8"/>
<path d="M26.4375 33.5C27.0625 33.3125 27.6875 32.625 27.3125 31.875C26.875 32.1875 26.5625 32.6875 26.4375 33.5Z" fill="#E3E3F8"/>
<path d="M9 43.8125C9 44.625 9.1875 45.4375 9.75 45.75C11.75 46.875 18.875 46 21.25 45.4375C22.5 45.125 23.5625 44.1875 24.6875 43.6875C27.375 42.5 29.3125 41.5625 31.4375 40.0625C33 38.9375 35.4375 35.75 35.6875 33.8125L33.625 33.375C33.5625 35.5 33.0625 36 31.1875 36.5C29.875 36.875 27.375 36.9375 26.0625 36.6875C24.3125 36.375 23.5625 35.5 22.75 34.4375C21.25 32.4375 23.0625 31 20.6875 30.875C18.1875 34 13.6875 31.75 11.75 31.4375C10.9375 32.625 8.9375 40.5 9 42.3125C10.1875 41.875 11 42.375 12.0625 42.75C15.875 44.25 12.5625 45.5625 11 45.1875C9.9375 44.9375 9.625 44.25 9 43.8125Z" fill="#FDFDFD"/>
<path d="M14.0625 25.9375C15.625 26.25 17 26.875 18.3125 27.5625C20.5 28.625 20.875 28.5 21.0625 30C21.0625 30.25 21.0625 30.4375 21.8125 30.6875C23.125 31.125 21.0625 30.375 24.5625 30.375C26.6875 30.375 31.5 31.25 33.0625 32.25C33.6875 32.6875 33.5625 33.1875 35.75 33.125C35.75 30.5625 35.0625 26.6875 34 24.3125C32.75 21.4375 31.125 21 27.8125 19.9375C25.875 19.3125 20.1875 18.625 18.375 19.75C16.6875 20.8125 16.375 22 14.875 24.1875C14.5 24.6875 14.3125 25.1875 14.0625 25.9375Z" fill="#FDFDFD"/>
<path d="M27.75 31.1875C29 31.6875 27.6875 35 25.9375 34.1875C25.375 32.625 26.6875 31.6875 27.0625 31C26.3125 30.875 24.1875 30.5625 23.5625 30.8125C22.75 31.125 22.5625 32.875 23 33.6875C25 37.625 33.8125 36.75 32.875 33.75C32.5 32.5 32.125 32.3125 30.875 31.875C29.875 31.5625 28.875 31.1875 27.75 31.1875Z" fill="#FDFDFD"/>
<path d="M12.125 30.75C13.125 31.6875 15.375 31.875 16.8125 31.9375C17 30 17.1875 28.5625 18.6875 28.6875C19.4375 29.75 19.0625 30.9375 18.25 31.75C19.625 31.75 20.375 30.6875 20.1875 29.25C19.0625 28.4375 15.5625 26.75 13.8125 26.5625C13.375 27.0625 12.1875 29.875 12.125 30.75Z" fill="#FDFDFD"/>
<path d="M9.75 43.125C10.5625 43.0625 12.6875 43.6875 12.875 44.375C11.5625 44.5 9.875 44.375 9.75 43.125ZM9 43.8125C9.625 44.25 9.9375 44.9375 11 45.1875C12.5625 45.5625 15.875 44.25 12.0625 42.75C11 42.3125 10.1875 41.875 9 42.3125C9 40.5 10.9375 32.6875 11.75 31.4375C13.6875 31.75 18.1875 34 20.6875 30.875C23.125 31 21.25 32.4375 22.75 34.4375C23.5625 35.5 24.3125 36.375 26.0625 36.6875C27.375 36.9375 29.875 36.8125 31.1875 36.5C33.125 36 33.5625 35.5 33.625 33.375L35.75 33.875C35.5 35.8125 33.0625 39 31.5 40.125C29.375 41.6875 27.4375 42.625 24.75 43.75C23.5625 44.25 22.5625 45.1875 21.3125 45.5C18.875 46.0625 11.8125 46.9375 9.8125 45.8125C9.1875 45.4375 9 44.625 9 43.8125ZM26.4375 33.5C26.5 32.6875 26.8125 32.1875 27.3125 31.875C27.6875 32.625 27.0625 33.3125 26.4375 33.5ZM27.75 31.1875C28.875 31.1875 29.875 31.5625 30.875 31.875C32.125 32.3125 32.5 32.5 32.875 33.75C33.8125 36.8125 25 37.625 23 33.6875C22.5625 32.875 22.75 31.125 23.5625 30.8125C24.1875 30.5625 26.3125 30.9375 27.0625 31C26.75 31.75 25.4375 32.625 26 34.25C27.6875 35 29 31.75 27.75 31.1875ZM17.5625 31.375C17.5625 30.5 17.5625 29.75 18.3125 29.375C18.625 30.0625 18.1875 31 17.5625 31.375ZM12.125 30.75C12.1875 29.875 13.375 27 13.875 26.5C15.625 26.75 19.125 28.375 20.25 29.1875C20.4375 30.6875 19.6875 31.6875 18.3125 31.6875C19.125 30.875 19.5 29.6875 18.75 28.625C17.1875 28.5 17.0625 29.9375 16.875 31.875C15.375 31.875 13.125 31.75 12.125 30.75ZM10.875 29.75C10.4375 28.5 10.4375 26.5 12.375 26.3125L11.375 29.0625C11.0625 29.75 11.0625 29.625 10.875 29.75ZM14.0625 25.9375C14.375 25.1875 14.5 24.75 14.9375 24.0625C16.5 21.875 16.8125 20.6875 18.4375 19.625C20.1875 18.5 25.9375 19.1875 27.875 19.8125C31.1875 20.875 32.8125 21.3125 34.0625 24.1875C35.0625 26.5625 35.75 30.4375 35.8125 33C33.625 33.0625 33.75 32.5625 33.125 32.125C31.5625 31.125 26.75 30.3125 24.625 30.25C21.0625 30.25 23.1875 31 21.875 30.5625C21.0625 30.3125 21.125 30.1875 21.125 29.875C20.9375 28.375 20.5625 28.5 18.375 27.4375C17 26.875 15.625 26.1875 14.0625 25.9375ZM36.125 25.3125C35.875 24.5 36.3125 24.5625 37.0625 24.0625C37.5 23.75 37.875 23.4375 38.375 23.125C40.375 22 44.125 21.8125 45.75 23.125C46.375 23.6875 47.4375 24.6875 47.3125 26.0625C47 28.8125 45.125 30.3125 43.5625 31.5625C42 32.8125 39.4375 34.125 36.75 33.25C36.5 32.6875 36.6875 29.25 36.4375 27.9375C36.1875 26.8125 36.3125 26.6875 37 26C38.9375 24 43.1875 22.5 45.5625 24.25C46.5625 25 46.3125 25.3125 46.8125 25.875C47.4375 25.1875 46.25 22.8125 41.8125 23C38.6875 23.0625 37.375 25.4375 36.125 25.3125ZM17.9375 18.1875C18 16.4375 19.625 12.875 21.1875 11.625C23.125 10.125 25.125 8.75 28.125 10.375C28.875 10.8125 28.8125 11 28.875 12C28.9375 13 28.875 13.375 28.625 14.125C26.625 20.5 25 16.8125 18.6875 18.3125C18.9375 16.25 20.75 14.375 21.6875 13.4375C23.375 11.75 24.625 10.6875 27.1875 11.0625C27.875 12.25 28 13 27.125 14.375C26 16.25 25.6875 16.125 25.875 17.375C26.75 17.125 27.0625 16.25 27.4375 15.375C29.9375 10.125 26.3125 9.5 24.0625 10.4375C22.5625 11.0625 19.875 14 19 15.8125C18.8125 16.1875 18.625 16.625 18.5 17L17.9375 18.1875ZM27.8125 18.4375C28.0625 16.875 29.625 16.5 29.625 11.6875C29.625 9.625 27.0625 7.75 23.75 9.125C20.875 10.3125 20.4375 11.1875 18.9375 13.5C17.5 15.6875 17.5625 18.0625 16.3125 20.0625C15.9375 20.625 15.625 20.8125 15.25 21.4375C14.9375 21.875 14.75 22.375 14.4375 22.875C13.875 23.8125 13.25 24.5625 12.75 25.6875C11.25 25.75 10 25.75 9.875 27.3125C9.6875 29.4375 10.6875 29.9375 10.6875 30.75C10.6875 31.625 7.1875 40.3125 8.1875 45.4375C8.4375 46.875 9.375 46.875 10.875 47.0625C14.5 47.5 19.125 47.375 22.375 46.0625L28.25 43.25C29.75 42.4375 32.25 40.8125 33.3125 39.6875C34.125 38.875 34.5 38.1875 35.1875 37.25C36.125 35.875 36.125 35.9375 36.3125 34.125C37.5625 34.375 39.8125 34.875 40.5625 35.5625C40.5 36.4375 40.0625 36 40.0625 36.8125C40.5625 36.8125 41.375 36.1875 41.5625 35.5625C41.0625 34.8125 40.5 34.9375 39.75 34.3125C40.3125 33.875 41.375 33.625 42.1875 33.3125C43.9375 32.5625 46.9375 30.375 47.625 28.375C48.1875 26.75 47.75 24.0625 46.8125 23.0625C45.8125 21.9375 43.5 21.375 41.625 21.375C39.375 21.375 37.0625 23 35.1875 23.6875C34.5 23.0625 34.4375 22.375 33.9375 21.6875C33.5 20.875 29.625 18.875 27.8125 18.4375Z" fill="#020202"/>
<path d="M36.125 25.3125C37.375 25.4375 38.6875 23.0625 41.75 22.9375C46.1875 22.8125 47.4375 25.125 46.75 25.8125C46.25 25.25 46.5 24.9375 45.5 24.1875C43.125 22.4375 38.875 23.9375 36.9375 25.9375C36.25 26.625 36.125 26.75 36.375 27.875C36.625 29.1875 36.4375 32.625 36.6875 33.1875C39.375 34.0625 41.9375 32.75 43.5 31.5C45.0625 30.25 46.875 28.75 47.25 26C47.4375 24.625 46.375 23.5625 45.6875 23.0625C44.0625 21.75 40.375 21.9375 38.3125 23.0625C37.75 23.375 37.4375 23.6875 37 24C36.3125 24.5625 35.875 24.5 36.125 25.3125Z" fill="#FDF2F2"/>
<path d="M17.9375 18.1875L18.5625 17.125C18.75 16.75 18.9375 16.3125 19.0625 15.9375C19.9375 14.1875 22.625 11.25 24.125 10.5625C26.375 9.625 30 10.25 27.5 15.5C27.0625 16.375 26.8125 17.25 25.9375 17.5C25.75 16.25 26.0625 16.375 27.1875 14.5C28.0625 13.125 28 12.375 27.25 11.1875C24.6875 10.8125 23.4375 11.9375 21.75 13.5625C20.75 14.5 18.9375 16.375 18.75 18.4375C25.0625 16.9375 26.6875 20.5625 28.6875 14.25C28.9375 13.4375 29 13.0625 28.9375 12.125C28.875 11.125 28.875 10.875 28.1875 10.5C25.25 8.8125 23.1875 10.25 21.25 11.75C19.625 12.875 18 16.5 17.9375 18.1875Z" fill="#FEF3F3"/>
<path d="M10.875 29.75C11.125 29.5625 11.125 29.6875 11.375 29.125L12.375 26.375C10.375 26.5 10.375 28.5 10.875 29.75Z" fill="#EFEFEF"/>
<path d="M12.875 44.375C12.6875 43.6875 10.5625 43.0625 9.75 43.125C9.875 44.375 11.5625 44.5 12.875 44.375Z" fill="#FAF1F1"/>
</g>
<defs>
<filter id="filter0_d_1_62" x="2.28571" y="2.28571" width="51.4286" height="51.4286" filterUnits="userSpaceOnUse" color-interpolation-filters="sRGB">
<feFlood flood-opacity="0" result="BackgroundImageFix"/>
<feColorMatrix in="SourceAlpha" type="matrix" values="0 0 0 0 0 0 0 0 0 0 0 0 0 0 0 0 0 0 127 0" result="hardAlpha"/>
<feOffset/>
<feGaussianBlur stdDeviation="2.85714"/>
<feComposite in2="hardAlpha" operator="out"/>
<feColorMatrix type="matrix" values="0 0 0 0 0 0 0 0 0 0 0 0 0 0 0 0 0 0 0.25 0"/>
<feBlend mode="normal" in2="BackgroundImageFix" result="effect1_dropShadow_1_62"/>
<feBlend mode="normal" in="SourceGraphic" in2="effect1_dropShadow_1_62" result="shape"/>
</filter>
<linearGradient id="paint0_linear_1_62" x1="28" y1="0" x2="28" y2="56" gradientUnits="userSpaceOnUse">
<stop stop-color="#84C0C0"/>
<stop offset="1" stop-color="#478989"/>
</linearGradient>
</defs>
</svg>
