<svg width="218" height="40" viewBox="0 0 218 40" fill="none" xmlns="http://www.w3.org/2000/svg">
<rect width="218.001" height="40.0014" rx="8" fill="url(#paint0_linear_1_56)"/>
<rect x="1.07143" y="1.07143" width="215.858" height="37.8585" rx="6.92857" stroke="white" stroke-opacity="0.15" stroke-width="2.14286"/>
<g filter="url(#filter0_d_1_56)">
<path d="M8.13005 17.9814C8.06334 18.4489 8.01994 18.9194 8 19.3912H29.2679C29.1937 19.2461 29.0939 19.1153 28.9933 18.9873C25.3574 14.2899 23.4015 14.6972 20.6037 14.5778C19.6709 14.5395 19.0383 14.524 15.3253 14.524C13.3381 14.524 11.1776 14.5291 9.07379 14.5347C8.80145 15.2698 8.53878 15.9823 8.41089 16.562H19.3093V17.9814H8.13005ZM29.4356 20.812H8.01091C8.03333 21.1907 8.06866 21.5644 8.11968 21.9331H27.8999C28.7817 21.9331 29.2753 21.4328 29.4356 20.812ZM9.23093 25.8053C9.23093 25.8053 12.5101 33.857 21.9852 34C27.6485 34 32.5145 30.6366 34.7249 25.8053H9.23093Z" fill="white"/>
<path d="M21.9851 6C16.7487 6 12.1921 8.87547 9.78583 13.1261C11.6663 13.1222 15.3285 13.1199 15.3285 13.1199H15.3294V13.1185C19.6581 13.1185 19.819 13.1379 20.6646 13.1732L21.1882 13.1925C23.0121 13.2533 25.2538 13.4491 27.0176 14.7836C27.9751 15.5074 29.3575 17.105 30.1815 18.2431C30.9434 19.2958 31.1625 20.506 30.6445 21.6654C30.1678 22.731 29.1419 23.3666 27.8997 23.3666H8.45638C8.45638 23.3666 8.57212 23.8573 8.74567 24.3989H35.2864C35.7577 22.9822 35.9987 21.499 36 20.006C36.0003 12.2714 29.7255 6 21.9851 6Z" fill="white"/>
</g>
<g filter="url(#filter1_d_1_56)">
<path d="M44.4041 26.5007H42.424L46.8732 14.1371H49.0284L53.4776 26.5007H51.4975L48.0021 16.3828H47.9055L44.4041 26.5007ZM44.7361 21.6591H51.1594V23.2287H44.7361V21.6591ZM61.8886 17.228L58.526 26.5007H56.5942L53.2256 17.228H55.1634L57.5118 24.3636H57.6084L59.9507 17.228H61.8886ZM66.0178 26.706C65.4302 26.706 64.899 26.5973 64.4241 26.38C63.9492 26.1586 63.5729 25.8386 63.2952 25.4201C63.0215 25.0015 62.8846 24.4884 62.8846 23.8807C62.8846 23.3575 62.9853 22.9268 63.1865 22.5888C63.3877 22.2507 63.6594 21.9831 64.0015 21.7859C64.3436 21.5886 64.7259 21.4397 65.1485 21.3391C65.5711 21.2385 66.0017 21.162 66.4404 21.1097C66.9958 21.0453 67.4466 20.993 67.7927 20.9528C68.1388 20.9085 68.3903 20.8381 68.5473 20.7415C68.7042 20.6449 68.7827 20.4879 68.7827 20.2706V20.2283C68.7827 19.7011 68.6338 19.2926 68.336 19.0028C68.0422 18.7131 67.6035 18.5682 67.0199 18.5682C66.4122 18.5682 65.9333 18.703 65.5832 18.9726C65.237 19.2383 64.9976 19.5341 64.8648 19.8601L63.1684 19.4737C63.3696 18.9103 63.6634 18.4555 64.0498 18.1094C64.4402 17.7592 64.8889 17.5057 65.396 17.3487C65.9031 17.1877 66.4364 17.1072 66.9958 17.1072C67.3661 17.1072 67.7585 17.1515 68.173 17.24C68.5916 17.3246 68.9819 17.4815 69.3442 17.7109C69.7104 17.9403 70.0102 18.2683 70.2437 18.6949C70.4771 19.1175 70.5938 19.6669 70.5938 20.343V26.5007H68.831V25.2329H68.7586C68.6419 25.4664 68.4668 25.6958 68.2334 25.9212C67.9999 26.1465 67.7001 26.3337 67.3339 26.4826C66.9676 26.6315 66.5289 26.706 66.0178 26.706ZM66.4102 25.2571C66.9093 25.2571 67.3359 25.1585 67.69 24.9613C68.0482 24.7641 68.3199 24.5065 68.505 24.1886C68.6942 23.8666 68.7888 23.5225 68.7888 23.1562V21.9609C68.7244 22.0253 68.5996 22.0857 68.4145 22.142C68.2334 22.1944 68.0261 22.2406 67.7927 22.2809C67.5592 22.3171 67.3319 22.3513 67.1105 22.3835C66.8891 22.4117 66.704 22.4358 66.5551 22.456C66.205 22.5002 65.885 22.5747 65.5952 22.6793C65.3095 22.784 65.0801 22.9349 64.907 23.1321C64.738 23.3253 64.6535 23.5828 64.6535 23.9048C64.6535 24.3515 64.8185 24.6896 65.1485 24.919C65.4785 25.1444 65.8991 25.2571 66.4102 25.2571ZM72.998 26.5007V17.228H74.8031V26.5007H72.998ZM73.9096 15.7972C73.5957 15.7972 73.326 15.6926 73.1006 15.4833C72.8793 15.27 72.7686 15.0164 72.7686 14.7226C72.7686 14.4248 72.8793 14.1713 73.1006 13.962C73.326 13.7487 73.5957 13.642 73.9096 13.642C74.2235 13.642 74.4911 13.7487 74.7125 13.962C74.9379 14.1713 75.0506 14.4248 75.0506 14.7226C75.0506 15.0164 74.9379 15.27 74.7125 15.4833C74.4911 15.6926 74.2235 15.7972 73.9096 15.7972ZM79.0365 14.1371V26.5007H77.2314V14.1371H79.0365ZM84.1633 26.706C83.5757 26.706 83.0445 26.5973 82.5696 26.38C82.0947 26.1586 81.7184 25.8386 81.4407 25.4201C81.167 25.0015 81.0301 24.4884 81.0301 23.8807C81.0301 23.3575 81.1308 22.9268 81.332 22.5888C81.5332 22.2507 81.8049 21.9831 82.147 21.7859C82.4891 21.5886 82.8714 21.4397 83.294 21.3391C83.7166 21.2385 84.1472 21.162 84.5859 21.1097C85.1413 21.0453 85.5921 20.993 85.9382 20.9528C86.2843 20.9085 86.5358 20.8381 86.6928 20.7415C86.8497 20.6449 86.9282 20.4879 86.9282 20.2706V20.2283C86.9282 19.7011 86.7793 19.2926 86.4815 19.0028C86.1877 18.7131 85.749 18.5682 85.1654 18.5682C84.5577 18.5682 84.0788 18.703 83.7287 18.9726C83.3825 19.2383 83.1431 19.5341 83.0103 19.8601L81.3139 19.4737C81.5151 18.9103 81.8089 18.4555 82.1953 18.1094C82.5857 17.7592 83.0344 17.5057 83.5415 17.3487C84.0486 17.1877 84.5819 17.1072 85.1413 17.1072C85.5116 17.1072 85.904 17.1515 86.3185 17.24C86.7371 17.3246 87.1274 17.4815 87.4897 17.7109C87.8559 17.9403 88.1557 18.2683 88.3892 18.6949C88.6226 19.1175 88.7393 19.6669 88.7393 20.343V26.5007H86.9765V25.2329H86.9041C86.7874 25.4664 86.6123 25.6958 86.3789 25.9212C86.1454 26.1465 85.8456 26.3337 85.4794 26.4826C85.1131 26.6315 84.6744 26.706 84.1633 26.706ZM84.5557 25.2571C85.0548 25.2571 85.4814 25.1585 85.8355 24.9613C86.1937 24.7641 86.4654 24.5065 86.6505 24.1886C86.8397 23.8666 86.9343 23.5225 86.9343 23.1562V21.9609C86.8699 22.0253 86.7451 22.0857 86.56 22.142C86.3789 22.1944 86.1716 22.2406 85.9382 22.2809C85.7047 22.3171 85.4774 22.3513 85.256 22.3835C85.0346 22.4117 84.8495 22.4358 84.7006 22.456C84.3505 22.5002 84.0305 22.5747 83.7407 22.6793C83.455 22.784 83.2256 22.9349 83.0525 23.1321C82.8835 23.3253 82.799 23.5828 82.799 23.9048C82.799 24.3515 82.964 24.6896 83.294 24.919C83.624 25.1444 84.0446 25.2571 84.5557 25.2571ZM91.2884 26.5007V14.1371H93.0934V18.7312H93.2021C93.3067 18.538 93.4577 18.3146 93.6549 18.0611C93.8521 17.8075 94.1258 17.5862 94.4759 17.397C94.826 17.2038 95.2889 17.1072 95.8644 17.1072C96.613 17.1072 97.2811 17.2964 97.8687 17.6747C98.4563 18.053 98.9171 18.5984 99.2511 19.3107C99.5892 20.0231 99.7582 20.8803 99.7582 21.8824C99.7582 22.8846 99.5912 23.7438 99.2571 24.4602C98.9231 25.1726 98.4643 25.7219 97.8807 26.1083C97.2972 26.4906 96.6311 26.6818 95.8825 26.6818C95.3191 26.6818 94.8582 26.5872 94.5 26.3981C94.1459 26.2089 93.8682 25.9876 93.667 25.734C93.4657 25.4805 93.3108 25.2551 93.2021 25.0579H93.0512V26.5007H91.2884ZM93.0572 21.8643C93.0572 22.5163 93.1518 23.0878 93.341 23.5788C93.5301 24.0698 93.8038 24.4542 94.162 24.7319C94.5202 25.0056 94.9589 25.1424 95.478 25.1424C96.0173 25.1424 96.4681 24.9995 96.8303 24.7138C97.1925 24.424 97.4662 24.0316 97.6513 23.5366C97.8405 23.0415 97.9351 22.4841 97.9351 21.8643C97.9351 21.2526 97.8425 20.7032 97.6574 20.2163C97.4763 19.7293 97.2026 19.3449 96.8363 19.0632C96.4741 18.7815 96.0214 18.6406 95.478 18.6406C94.9548 18.6406 94.5121 18.7754 94.1499 19.0451C93.7917 19.3147 93.5201 19.691 93.3349 20.174C93.1498 20.6569 93.0572 21.2204 93.0572 21.8643ZM103.59 14.1371V26.5007H101.785V14.1371H103.59ZM110.015 26.6878C109.101 26.6878 108.315 26.4926 107.655 26.1023C106.999 25.7078 106.491 25.1545 106.133 24.4421C105.779 23.7257 105.602 22.8866 105.602 21.9247C105.602 20.9749 105.779 20.1378 106.133 19.4133C106.491 18.6889 106.99 18.1234 107.63 17.717C108.274 17.3105 109.027 17.1072 109.888 17.1072C110.411 17.1072 110.918 17.1938 111.409 17.3668C111.9 17.5399 112.341 17.8115 112.732 18.1818C113.122 18.5521 113.43 19.033 113.655 19.6246C113.881 20.2122 113.993 20.9266 113.993 21.7677V22.4077H106.622V21.0554H112.224C112.224 20.5805 112.128 20.1599 111.935 19.7937C111.742 19.4234 111.47 19.1316 111.12 18.9183C110.774 18.705 110.367 18.5984 109.9 18.5984C109.393 18.5984 108.95 18.7231 108.572 18.9726C108.198 19.2181 107.908 19.5401 107.703 19.9386C107.502 20.333 107.401 20.7616 107.401 21.2244V22.2809C107.401 22.9007 107.51 23.4279 107.727 23.8626C107.948 24.2972 108.256 24.6292 108.651 24.8587C109.045 25.084 109.506 25.1967 110.033 25.1967C110.375 25.1967 110.687 25.1484 110.969 25.0518C111.251 24.9512 111.494 24.8023 111.699 24.6051C111.905 24.4079 112.061 24.1644 112.17 23.8746L113.879 24.1825C113.742 24.6856 113.496 25.1263 113.142 25.5046C112.792 25.8789 112.351 26.1707 111.82 26.38C111.293 26.5852 110.691 26.6878 110.015 26.6878ZM124.401 26.6878C123.532 26.6878 122.773 26.4886 122.125 26.0902C121.477 25.6917 120.974 25.1343 120.616 24.418C120.258 23.7016 120.079 22.8645 120.079 21.9066C120.079 20.9447 120.258 20.1036 120.616 19.3832C120.974 18.6627 121.477 18.1033 122.125 17.7049C122.773 17.3065 123.532 17.1072 124.401 17.1072C125.27 17.1072 126.029 17.3065 126.677 17.7049C127.325 18.1033 127.828 18.6627 128.186 19.3832C128.544 20.1036 128.723 20.9447 128.723 21.9066C128.723 22.8645 128.544 23.7016 128.186 24.418C127.828 25.1343 127.325 25.6917 126.677 26.0902C126.029 26.4886 125.27 26.6878 124.401 26.6878ZM124.407 25.1726C124.97 25.1726 125.437 25.0237 125.808 24.7258C126.178 24.428 126.452 24.0316 126.629 23.5366C126.81 23.0415 126.9 22.4962 126.9 21.9006C126.9 21.3089 126.81 20.7656 126.629 20.2706C126.452 19.7715 126.178 19.3711 125.808 19.0692C125.437 18.7674 124.97 18.6165 124.407 18.6165C123.84 18.6165 123.369 18.7674 122.994 19.0692C122.624 19.3711 122.348 19.7715 122.167 20.2706C121.99 20.7656 121.902 21.3089 121.902 21.9006C121.902 22.4962 121.99 23.0415 122.167 23.5366C122.348 24.0316 122.624 24.428 122.994 24.7258C123.369 25.0237 123.84 25.1726 124.407 25.1726ZM132.543 20.995V26.5007H130.738V17.228H132.471V18.7372H132.586C132.799 18.2462 133.133 17.8518 133.588 17.554C134.046 17.2561 134.624 17.1072 135.32 17.1072C135.952 17.1072 136.506 17.24 136.98 17.5057C137.455 17.7673 137.824 18.1577 138.085 18.6768C138.347 19.196 138.478 19.8379 138.478 20.6026V26.5007H136.673V20.8199C136.673 20.1478 136.497 19.6226 136.147 19.2443C135.797 18.862 135.316 18.6708 134.704 18.6708C134.286 18.6708 133.914 18.7614 133.588 18.9425C133.266 19.1236 133.01 19.3892 132.821 19.7393C132.636 20.0855 132.543 20.504 132.543 20.995Z" fill="#E8E8E8"/>
<path d="M144.937 26.0007V13.6371H150.044C150.97 13.6371 151.769 13.8041 152.441 14.1381C153.117 14.4681 153.638 14.9431 154.005 15.5628C154.371 16.1786 154.554 16.9091 154.554 17.7543C154.554 18.6115 154.367 19.34 153.992 19.9396C153.618 20.5353 153.087 20.99 152.399 21.304C151.711 21.6139 150.896 21.7688 149.954 21.7688H146.724V19.4144H149.398C149.849 19.4144 150.225 19.356 150.527 19.2393C150.833 19.1186 151.065 18.9375 151.222 18.696C151.379 18.4505 151.457 18.1366 151.457 17.7543C151.457 17.3719 151.379 17.056 151.222 16.8065C151.065 16.5529 150.833 16.3637 150.527 16.239C150.221 16.1102 149.845 16.0458 149.398 16.0458H147.925V26.0007H144.937ZM151.898 20.3501L154.977 26.0007H151.717L148.698 20.3501H151.898ZM158.807 26.1577C158.215 26.1577 157.69 26.0591 157.231 25.8618C156.777 25.6606 156.416 25.3588 156.151 24.9563C155.889 24.5498 155.758 24.0407 155.758 23.429C155.758 22.9138 155.849 22.4792 156.03 22.125C156.211 21.7708 156.461 21.4831 156.779 21.2617C157.096 21.0404 157.463 20.8733 157.877 20.7606C158.292 20.6439 158.735 20.5654 159.205 20.5252C159.733 20.4769 160.157 20.4266 160.479 20.3743C160.801 20.3179 161.035 20.2395 161.179 20.1388C161.328 20.0342 161.403 19.8873 161.403 19.6981V19.668C161.403 19.3581 161.296 19.1186 161.083 18.9496C160.87 18.7805 160.582 18.696 160.22 18.696C159.829 18.696 159.515 18.7805 159.278 18.9496C159.04 19.1186 158.889 19.352 158.825 19.6498L156.102 19.5533C156.183 18.9898 156.39 18.4867 156.724 18.044C157.062 17.5973 157.525 17.2471 158.113 16.9936C158.704 16.736 159.415 16.6072 160.244 16.6072C160.835 16.6072 161.381 16.6777 161.88 16.8185C162.379 16.9554 162.813 17.1566 163.184 17.4222C163.554 17.6838 163.84 18.0058 164.041 18.3881C164.246 18.7705 164.349 19.2071 164.349 19.6981V26.0007H161.572V24.7088H161.499C161.334 25.0227 161.123 25.2883 160.866 25.5057C160.612 25.723 160.312 25.886 159.966 25.9947C159.624 26.1033 159.238 26.1577 158.807 26.1577ZM159.719 24.2258C160.036 24.2258 160.322 24.1614 160.576 24.0327C160.833 23.9039 161.039 23.7268 161.192 23.5014C161.344 23.272 161.421 23.0064 161.421 22.7045V21.8231C161.336 21.8674 161.234 21.9077 161.113 21.9439C160.996 21.9801 160.868 22.0143 160.727 22.0465C160.586 22.0787 160.441 22.1069 160.292 22.131C160.143 22.1552 160 22.1773 159.863 22.1974C159.586 22.2417 159.348 22.3101 159.151 22.4027C158.958 22.4953 158.809 22.616 158.704 22.7649C158.604 22.9098 158.553 23.0828 158.553 23.2841C158.553 23.59 158.662 23.8234 158.879 23.9844C159.101 24.1453 159.38 24.2258 159.719 24.2258ZM166.154 26.0007V16.728H169.106V26.0007H166.154ZM167.633 15.6474C167.218 15.6474 166.862 15.5105 166.564 15.2369C166.267 14.9592 166.118 14.6251 166.118 14.2347C166.118 13.8484 166.267 13.5183 166.564 13.2447C166.862 12.967 167.218 12.8281 167.633 12.8281C168.051 12.8281 168.408 12.967 168.701 13.2447C168.999 13.5183 169.148 13.8484 169.148 14.2347C169.148 14.6251 168.999 14.9592 168.701 15.2369C168.408 15.5105 168.051 15.6474 167.633 15.6474ZM173.937 13.6371V26.0007H170.985V13.6371H173.937ZM177.549 26.0007L175.134 16.728H178.098L179.348 22.6683H179.426L180.766 16.728H183.658L185.034 22.6261H185.113L186.326 16.728H189.29L186.87 26.0007H183.712L182.263 20.5976H182.161L180.712 26.0007H177.549ZM193.089 26.1577C192.498 26.1577 191.972 26.0591 191.514 25.8618C191.059 25.6606 190.699 25.3588 190.433 24.9563C190.171 24.5498 190.041 24.0407 190.041 23.429C190.041 22.9138 190.131 22.4792 190.312 22.125C190.493 21.7708 190.743 21.4831 191.061 21.2617C191.379 21.0404 191.745 20.8733 192.159 20.7606C192.574 20.6439 193.017 20.5654 193.488 20.5252C194.015 20.4769 194.439 20.4266 194.761 20.3743C195.083 20.3179 195.317 20.2395 195.462 20.1388C195.611 20.0342 195.685 19.8873 195.685 19.6981V19.668C195.685 19.3581 195.578 19.1186 195.365 18.9496C195.152 18.7805 194.864 18.696 194.502 18.696C194.111 18.696 193.797 18.7805 193.56 18.9496C193.323 19.1186 193.172 19.352 193.107 19.6498L190.385 19.5533C190.465 18.9898 190.672 18.4867 191.006 18.044C191.344 17.5973 191.807 17.2471 192.395 16.9936C192.987 16.736 193.697 16.6072 194.526 16.6072C195.118 16.6072 195.663 16.6777 196.162 16.8185C196.661 16.9554 197.096 17.1566 197.466 17.4222C197.836 17.6838 198.122 18.0058 198.323 18.3881C198.528 18.7705 198.631 19.2071 198.631 19.6981V26.0007H195.854V24.7088H195.782C195.617 25.0227 195.405 25.2883 195.148 25.5057C194.894 25.723 194.594 25.886 194.248 25.9947C193.906 26.1033 193.52 26.1577 193.089 26.1577ZM194.001 24.2258C194.319 24.2258 194.604 24.1614 194.858 24.0327C195.116 23.9039 195.321 23.7268 195.474 23.5014C195.627 23.272 195.703 23.0064 195.703 22.7045V21.8231C195.619 21.8674 195.516 21.9077 195.395 21.9439C195.279 21.9801 195.15 22.0143 195.009 22.0465C194.868 22.0787 194.723 22.1069 194.574 22.131C194.425 22.1552 194.282 22.1773 194.146 22.1974C193.868 22.2417 193.63 22.3101 193.433 22.4027C193.24 22.4953 193.091 22.616 192.987 22.7649C192.886 22.9098 192.836 23.0828 192.836 23.2841C192.836 23.59 192.944 23.8234 193.162 23.9844C193.383 24.1453 193.663 24.2258 194.001 24.2258ZM201.909 29.478C201.555 29.478 201.221 29.4498 200.907 29.3935C200.593 29.3411 200.323 29.2707 200.098 29.1822L200.75 27.039C201.04 27.1356 201.301 27.192 201.535 27.2081C201.772 27.2242 201.976 27.1859 202.145 27.0934C202.318 27.0048 202.45 26.8459 202.543 26.6165L202.658 26.3388L199.362 16.728H202.452L204.161 23.3444H204.257L205.99 16.728H209.099L205.604 26.8881C205.435 27.3952 205.195 27.842 204.885 28.2283C204.579 28.6187 204.183 28.9246 203.696 29.1459C203.213 29.3673 202.617 29.478 201.909 29.478Z" fill="url(#paint1_linear_1_56)"/>
</g>
<defs>
<filter id="filter0_d_1_56" x="2.39972" y="0.39972" width="39.202" height="39.202" filterUnits="userSpaceOnUse" color-interpolation-filters="sRGB">
<feFlood flood-opacity="0" result="BackgroundImageFix"/>
<feColorMatrix in="SourceAlpha" type="matrix" values="0 0 0 0 0 0 0 0 0 0 0 0 0 0 0 0 0 0 127 0" result="hardAlpha"/>
<feOffset/>
<feGaussianBlur stdDeviation="2.80014"/>
<feComposite in2="hardAlpha" operator="out"/>
<feColorMatrix type="matrix" values="0 0 0 0 0 0 0 0 0 0 0 0 0 0 0 0 0 0 0.25 0"/>
<feBlend mode="normal" in2="BackgroundImageFix" result="effect1_dropShadow_1_56"/>
<feBlend mode="normal" in="SourceGraphic" in2="effect1_dropShadow_1_56" result="shape"/>
</filter>
<filter id="filter1_d_1_56" x="36.2871" y="3.78642" width="179.429" height="32.4286" filterUnits="userSpaceOnUse" color-interpolation-filters="sRGB">
<feFlood flood-opacity="0" result="BackgroundImageFix"/>
<feColorMatrix in="SourceAlpha" type="matrix" values="0 0 0 0 0 0 0 0 0 0 0 0 0 0 0 0 0 0 127 0" result="hardAlpha"/>
<feOffset/>
<feGaussianBlur stdDeviation="2.85714"/>
<feComposite in2="hardAlpha" operator="out"/>
<feColorMatrix type="matrix" values="0 0 0 0 0 0 0 0 0 0 0 0 0 0 0 0 0 0 0.25 0"/>
<feBlend mode="normal" in2="BackgroundImageFix" result="effect1_dropShadow_1_56"/>
<feBlend mode="normal" in="SourceGraphic" in2="effect1_dropShadow_1_56" result="shape"/>
</filter>
<linearGradient id="paint0_linear_1_56" x1="109.001" y1="0" x2="109.001" y2="40.0014" gradientUnits="userSpaceOnUse">
<stop stop-color="#13111C"/>
<stop offset="1" stop-color="#0C0B12"/>
</linearGradient>
<linearGradient id="paint1_linear_1_56" x1="145" y1="19.5" x2="209.5" y2="19.5" gradientUnits="userSpaceOnUse">
<stop stop-color="#B63BCE"/>
<stop offset="1" stop-color="#7C26B5"/>
</linearGradient>
</defs>
</svg>
