<svg width="164" height="56" viewBox="0 0 164 56" fill="none" xmlns="http://www.w3.org/2000/svg">
<rect width="164" height="56" rx="8" fill="url(#paint0_linear_1_50)"/>
<rect x="1.05" y="1.05" width="161.9" height="53.9" rx="6.95" stroke="white" stroke-opacity="0.15" stroke-width="2.1"/>
<g filter="url(#filter0_d_1_50)">
<path d="M12.1858 25.1162C12.0905 25.7841 12.0285 26.4563 12 27.1303H42.3828C42.2767 26.923 42.1341 26.7361 41.9904 26.5533C36.7963 19.8427 34.0022 20.4245 30.0053 20.254C28.6727 20.1992 27.769 20.1772 22.4648 20.1772C19.6258 20.1772 16.5395 20.1844 13.534 20.1924C13.1449 21.2426 12.7697 22.2605 12.587 23.0885H28.1562V25.1162H12.1858ZM42.6223 29.16H12.0156C12.0476 29.7011 12.0981 30.2349 12.171 30.7615H40.4284C41.6881 30.7615 42.3932 30.0468 42.6223 29.16ZM13.7585 36.2932C13.7585 36.2932 18.443 47.7957 31.9789 48C40.0692 48 47.0207 43.1951 50.1784 36.2932H13.7585Z" fill="white"/>
<path d="M31.9787 8C24.4982 8 17.9887 12.1078 14.5512 18.1802C17.2376 18.1745 22.4693 18.1713 22.4693 18.1713H22.4705V18.1693C28.6545 18.1693 28.8843 18.197 30.0923 18.2474L30.8403 18.275C33.4458 18.3618 36.6483 18.6415 39.1681 20.548C40.5358 21.582 42.5107 23.8643 43.6879 25.4902C44.7762 26.9941 45.0893 28.7229 44.3494 30.3792C43.6683 31.9014 42.2028 32.8095 40.4281 32.8095H12.652C12.652 32.8095 12.8173 33.5104 13.0653 34.2841H50.9806C51.6539 32.2602 51.9981 30.1414 52 28.0085C52.0004 16.9592 43.0364 8 31.9787 8Z" fill="white"/>
</g>
<g filter="url(#filter1_d_1_50)">
<path d="M62.2613 24.5H60.3977L64.5852 12.8636H66.6136L70.8011 24.5H68.9375L65.6477 14.9773H65.5568L62.2613 24.5ZM62.5738 19.9432H68.6193V21.4204H62.5738V19.9432ZM78.7173 15.7727L75.5525 24.5H73.7344L70.5639 15.7727H72.3878L74.598 22.4886H74.6889L76.8934 15.7727H78.7173ZM82.6037 24.6932C82.0506 24.6932 81.5506 24.5909 81.1037 24.3864C80.6567 24.178 80.3025 23.8769 80.0412 23.4829C79.7836 23.089 79.6548 22.6061 79.6548 22.0341C79.6548 21.5417 79.7495 21.1364 79.9389 20.8182C80.1283 20.5 80.384 20.2481 80.7059 20.0625C81.0279 19.8769 81.3878 19.7367 81.7855 19.642C82.1832 19.5473 82.5885 19.4754 83.0014 19.4261C83.5241 19.3655 83.9484 19.3163 84.2741 19.2784C84.5999 19.2367 84.8366 19.1704 84.9844 19.0795C85.1321 18.9886 85.2059 18.8409 85.2059 18.6364V18.5966C85.2059 18.1004 85.0658 17.7159 84.7855 17.4432C84.509 17.1704 84.0961 17.0341 83.5469 17.0341C82.9749 17.0341 82.5241 17.161 82.1946 17.4148C81.8688 17.6648 81.6434 17.9432 81.5184 18.25L79.9219 17.8864C80.1112 17.3561 80.3878 16.928 80.7514 16.6023C81.1188 16.2727 81.5412 16.0341 82.0184 15.8864C82.4957 15.7348 82.9976 15.6591 83.5241 15.6591C83.8726 15.6591 84.2419 15.7008 84.6321 15.7841C85.026 15.8636 85.3934 16.0114 85.7344 16.2273C86.079 16.4432 86.3612 16.7519 86.5809 17.1534C86.8006 17.5511 86.9105 18.0682 86.9105 18.7045V24.5H85.2514V23.3068H85.1832C85.0734 23.5265 84.9086 23.7424 84.6889 23.9545C84.4692 24.1667 84.187 24.3428 83.8423 24.4829C83.4976 24.6231 83.0847 24.6932 82.6037 24.6932ZM82.973 23.3295C83.4427 23.3295 83.8442 23.2367 84.1775 23.0511C84.5147 22.8655 84.7703 22.6231 84.9446 22.3239C85.1226 22.0208 85.2116 21.697 85.2116 21.3523V20.2273C85.151 20.2879 85.0336 20.3447 84.8594 20.3977C84.6889 20.447 84.4938 20.4905 84.2741 20.5284C84.0544 20.5625 83.8404 20.5947 83.6321 20.625C83.4237 20.6515 83.2495 20.6742 83.1094 20.6932C82.7798 20.7348 82.4787 20.8049 82.2059 20.9034C81.937 21.0019 81.7211 21.1439 81.5582 21.3295C81.3991 21.5114 81.3196 21.7538 81.3196 22.0568C81.3196 22.4773 81.4749 22.7954 81.7855 23.0114C82.0961 23.2235 82.4919 23.3295 82.973 23.3295ZM89.1733 24.5V15.7727H90.8721V24.5H89.1733ZM90.0312 14.4261C89.7358 14.4261 89.482 14.3276 89.2699 14.1307C89.0615 13.9299 88.9574 13.6913 88.9574 13.4148C88.9574 13.1345 89.0615 12.8958 89.2699 12.6989C89.482 12.4981 89.7358 12.3977 90.0312 12.3977C90.3267 12.3977 90.5786 12.4981 90.7869 12.6989C90.999 12.8958 91.1051 13.1345 91.1051 13.4148C91.1051 13.6913 90.999 13.9299 90.7869 14.1307C90.5786 14.3276 90.3267 14.4261 90.0312 14.4261ZM94.8565 12.8636V24.5H93.1576V12.8636H94.8565ZM99.6818 24.6932C99.1288 24.6932 98.6288 24.5909 98.1818 24.3864C97.7348 24.178 97.3807 23.8769 97.1193 23.4829C96.8617 23.089 96.7329 22.6061 96.7329 22.0341C96.7329 21.5417 96.8276 21.1364 97.017 20.8182C97.2064 20.5 97.4621 20.2481 97.7841 20.0625C98.106 19.8769 98.4659 19.7367 98.8636 19.642C99.2613 19.5473 99.6666 19.4754 100.08 19.4261C100.602 19.3655 101.026 19.3163 101.352 19.2784C101.678 19.2367 101.915 19.1704 102.062 19.0795C102.21 18.9886 102.284 18.8409 102.284 18.6364V18.5966C102.284 18.1004 102.144 17.7159 101.864 17.4432C101.587 17.1704 101.174 17.0341 100.625 17.0341C100.053 17.0341 99.6022 17.161 99.2727 17.4148C98.9469 17.6648 98.7216 17.9432 98.5966 18.25L97 17.8864C97.1894 17.3561 97.4659 16.928 97.8295 16.6023C98.1969 16.2727 98.6193 16.0341 99.0966 15.8864C99.5738 15.7348 100.076 15.6591 100.602 15.6591C100.951 15.6591 101.32 15.7008 101.71 15.7841C102.104 15.8636 102.472 16.0114 102.812 16.2273C103.157 16.4432 103.439 16.7519 103.659 17.1534C103.879 17.5511 103.989 18.0682 103.989 18.7045V24.5H102.33V23.3068H102.261C102.151 23.5265 101.987 23.7424 101.767 23.9545C101.547 24.1667 101.265 24.3428 100.92 24.4829C100.576 24.6231 100.163 24.6932 99.6818 24.6932ZM100.051 23.3295C100.521 23.3295 100.922 23.2367 101.256 23.0511C101.593 22.8655 101.848 22.6231 102.023 22.3239C102.201 22.0208 102.29 21.697 102.29 21.3523V20.2273C102.229 20.2879 102.112 20.3447 101.937 20.3977C101.767 20.447 101.572 20.4905 101.352 20.5284C101.133 20.5625 100.919 20.5947 100.71 20.625C100.502 20.6515 100.328 20.6742 100.187 20.6932C99.8579 20.7348 99.5568 20.8049 99.2841 20.9034C99.0151 21.0019 98.7992 21.1439 98.6363 21.3295C98.4772 21.5114 98.3977 21.7538 98.3977 22.0568C98.3977 22.4773 98.553 22.7954 98.8636 23.0114C99.1742 23.2235 99.57 23.3295 100.051 23.3295ZM106.388 24.5V12.8636H108.087V17.1875H108.189C108.287 17.0057 108.429 16.7954 108.615 16.5568C108.801 16.3182 109.058 16.1098 109.388 15.9318C109.717 15.75 110.153 15.6591 110.695 15.6591C111.399 15.6591 112.028 15.8371 112.581 16.1932C113.134 16.5492 113.568 17.0625 113.882 17.7329C114.2 18.4034 114.359 19.2102 114.359 20.1534C114.359 21.0966 114.202 21.9053 113.888 22.5795C113.573 23.25 113.142 23.767 112.592 24.1307C112.043 24.4905 111.416 24.6704 110.712 24.6704C110.181 24.6704 109.748 24.5814 109.41 24.4034C109.077 24.2254 108.816 24.017 108.626 23.7784C108.437 23.5398 108.291 23.3276 108.189 23.142H108.047V24.5H106.388ZM108.053 20.1364C108.053 20.75 108.142 21.2879 108.32 21.75C108.498 22.2121 108.755 22.5739 109.092 22.8352C109.429 23.0928 109.842 23.2216 110.331 23.2216C110.839 23.2216 111.263 23.0871 111.604 22.8182C111.945 22.5454 112.202 22.1761 112.376 21.7102C112.554 21.2443 112.643 20.7197 112.643 20.1364C112.643 19.5606 112.556 19.0436 112.382 18.5852C112.212 18.1269 111.954 17.7651 111.609 17.5C111.268 17.2348 110.842 17.1023 110.331 17.1023C109.839 17.1023 109.422 17.2292 109.081 17.4829C108.744 17.7367 108.488 18.0909 108.314 18.5454C108.14 19 108.053 19.5303 108.053 20.1364ZM117.966 12.8636V24.5H116.267V12.8636H117.966ZM124.013 24.6761C123.153 24.6761 122.412 24.4924 121.791 24.125C121.174 23.7538 120.696 23.2329 120.359 22.5625C120.026 21.8883 119.859 21.0985 119.859 20.1932C119.859 19.2992 120.026 18.5114 120.359 17.8295C120.696 17.1477 121.166 16.6155 121.768 16.2329C122.374 15.8504 123.083 15.6591 123.893 15.6591C124.386 15.6591 124.863 15.7405 125.325 15.9034C125.787 16.0663 126.202 16.322 126.57 16.6704C126.937 17.0189 127.227 17.4716 127.439 18.0284C127.651 18.5814 127.757 19.2538 127.757 20.0454V20.6477H120.82V19.375H126.092C126.092 18.928 126.001 18.5322 125.82 18.1875C125.638 17.839 125.382 17.5644 125.053 17.3636C124.727 17.1629 124.344 17.0625 123.905 17.0625C123.428 17.0625 123.011 17.1799 122.655 17.4148C122.303 17.6458 122.03 17.9489 121.837 18.3239C121.647 18.6951 121.553 19.0985 121.553 19.5341V20.5284C121.553 21.1117 121.655 21.6079 121.859 22.017C122.068 22.4261 122.357 22.7386 122.729 22.9545C123.1 23.1667 123.534 23.2727 124.03 23.2727C124.352 23.2727 124.645 23.2273 124.91 23.1364C125.176 23.0417 125.405 22.9015 125.598 22.7159C125.791 22.5303 125.939 22.3011 126.041 22.0284L127.649 22.3182C127.52 22.7917 127.289 23.2064 126.956 23.5625C126.626 23.9148 126.212 24.1894 125.712 24.3864C125.215 24.5795 124.649 24.6761 124.013 24.6761ZM137.553 24.6761C136.734 24.6761 136.02 24.4886 135.41 24.1136C134.801 23.7386 134.327 23.214 133.99 22.5398C133.653 21.8655 133.484 21.0776 133.484 20.1761C133.484 19.2708 133.653 18.4792 133.99 17.8011C134.327 17.1231 134.801 16.5966 135.41 16.2216C136.02 15.8466 136.734 15.6591 137.553 15.6591C138.371 15.6591 139.085 15.8466 139.695 16.2216C140.304 16.5966 140.778 17.1231 141.115 17.8011C141.452 18.4792 141.621 19.2708 141.621 20.1761C141.621 21.0776 141.452 21.8655 141.115 22.5398C140.778 23.214 140.304 23.7386 139.695 24.1136C139.085 24.4886 138.371 24.6761 137.553 24.6761ZM137.558 23.25C138.089 23.25 138.528 23.1098 138.876 22.8295C139.225 22.5492 139.482 22.1761 139.649 21.7102C139.82 21.2443 139.905 20.7311 139.905 20.1704C139.905 19.6136 139.82 19.1023 139.649 18.6364C139.482 18.1667 139.225 17.7898 138.876 17.5057C138.528 17.2216 138.089 17.0795 137.558 17.0795C137.024 17.0795 136.581 17.2216 136.229 17.5057C135.88 17.7898 135.621 18.1667 135.45 18.6364C135.284 19.1023 135.2 19.6136 135.2 20.1704C135.2 20.7311 135.284 21.2443 135.45 21.7102C135.621 22.1761 135.88 22.5492 136.229 22.8295C136.581 23.1098 137.024 23.25 137.558 23.25ZM145.216 19.3182V24.5H143.517V15.7727H145.148V17.1932H145.256C145.456 16.7311 145.771 16.3598 146.199 16.0795C146.631 15.7992 147.174 15.6591 147.83 15.6591C148.424 15.6591 148.945 15.7841 149.392 16.0341C149.839 16.2803 150.186 16.6477 150.432 17.1364C150.678 17.625 150.801 18.2292 150.801 18.9489V24.5H149.102V19.1534C149.102 18.5208 148.937 18.0265 148.608 17.6704C148.278 17.3106 147.826 17.1307 147.25 17.1307C146.856 17.1307 146.506 17.2159 146.199 17.3864C145.896 17.5568 145.655 17.8068 145.477 18.1364C145.303 18.4621 145.216 18.8561 145.216 19.3182Z" fill="#E8E8E8"/>
<path d="M60.9357 43.5V31.1364H66.043C66.9686 31.1364 67.7675 31.3034 68.4396 31.6374C69.1157 31.9674 69.6369 32.4423 70.0032 33.0621C70.3694 33.6779 70.5525 34.4084 70.5525 35.2535C70.5525 36.1108 70.3654 36.8392 69.9911 37.4389C69.6168 38.0346 69.0856 38.4893 68.3974 38.8033C67.7091 39.1132 66.8942 39.2681 65.9524 39.2681H62.7226V36.9137H65.397C65.8478 36.9137 66.2241 36.8553 66.5259 36.7386C66.8318 36.6179 67.0632 36.4368 67.2202 36.1953C67.3771 35.9498 67.4556 35.6359 67.4556 35.2535C67.4556 34.8712 67.3771 34.5553 67.2202 34.3057C67.0632 34.0522 66.8318 33.863 66.5259 33.7383C66.22 33.6095 65.8437 33.5451 65.397 33.5451H63.924V43.5H60.9357ZM67.8963 37.8494L70.9751 43.5H67.7152L64.6967 37.8494H67.8963ZM74.8056 43.6569C74.2139 43.6569 73.6887 43.5583 73.2299 43.3611C72.7751 43.1599 72.4149 42.8581 72.1493 42.4556C71.8877 42.0491 71.7569 41.54 71.7569 40.9283C71.7569 40.4131 71.8475 39.9784 72.0286 39.6243C72.2097 39.2701 72.4592 38.9824 72.7771 38.761C73.0951 38.5396 73.4613 38.3726 73.8759 38.2599C74.2904 38.1432 74.7331 38.0647 75.204 38.0245C75.7312 37.9762 76.1558 37.9259 76.4778 37.8736C76.7998 37.8172 77.0332 37.7387 77.1781 37.6381C77.327 37.5335 77.4014 37.3866 77.4014 37.1974V37.1672C77.4014 36.8574 77.2948 36.6179 77.0815 36.4489C76.8682 36.2798 76.5804 36.1953 76.2182 36.1953C75.8278 36.1953 75.5139 36.2798 75.2764 36.4489C75.039 36.6179 74.8881 36.8513 74.8237 37.1491L72.101 37.0525C72.1815 36.4891 72.3888 35.986 72.7228 35.5433C73.0609 35.0966 73.5237 34.7464 74.1113 34.4929C74.7029 34.2353 75.4133 34.1065 76.2423 34.1065C76.834 34.1065 77.3793 34.177 77.8784 34.3178C78.3774 34.4547 78.8121 34.6559 79.1823 34.9215C79.5526 35.1831 79.8383 35.5051 80.0396 35.8874C80.2448 36.2698 80.3475 36.7064 80.3475 37.1974V43.5H77.5705V42.2081H77.498C77.333 42.522 77.1217 42.7876 76.8641 43.005C76.6106 43.2223 76.3108 43.3853 75.9646 43.494C75.6226 43.6026 75.2362 43.6569 74.8056 43.6569ZM75.7171 41.7251C76.0351 41.7251 76.3208 41.6607 76.5744 41.5319C76.832 41.4032 77.0372 41.2261 77.1901 41.0007C77.3431 40.7713 77.4195 40.5057 77.4195 40.2038V39.3224C77.335 39.3667 77.2324 39.4069 77.1117 39.4432C76.9949 39.4794 76.8662 39.5136 76.7253 39.5458C76.5844 39.578 76.4396 39.6062 76.2906 39.6303C76.1417 39.6545 75.9989 39.6766 75.862 39.6967C75.5843 39.741 75.3469 39.8094 75.1497 39.902C74.9565 39.9945 74.8076 40.1153 74.7029 40.2642C74.6023 40.4091 74.552 40.5821 74.552 40.7834C74.552 41.0892 74.6607 41.3227 74.878 41.4837C75.0994 41.6446 75.3791 41.7251 75.7171 41.7251ZM82.1525 43.5V34.2273H85.1046V43.5H82.1525ZM83.6315 33.1467C83.217 33.1467 82.8608 33.0098 82.563 32.7361C82.2652 32.4584 82.1163 32.1244 82.1163 31.734C82.1163 31.3476 82.2652 31.0176 82.563 30.744C82.8608 30.4663 83.217 30.3274 83.6315 30.3274C84.0501 30.3274 84.4063 30.4663 84.7001 30.744C84.9979 31.0176 85.1468 31.3476 85.1468 31.734C85.1468 32.1244 84.9979 32.4584 84.7001 32.7361C84.4063 33.0098 84.0501 33.1467 83.6315 33.1467ZM89.9356 31.1364V43.5H86.9836V31.1364H89.9356ZM93.5472 43.5L91.1324 34.2273H94.0966L95.3462 40.1676H95.4247L96.7649 34.2273H99.6566L101.033 40.1253H101.111L102.325 34.2273H105.289L102.868 43.5H99.7109L98.262 38.0969H98.1594L96.7106 43.5H93.5472ZM109.088 43.6569C108.496 43.6569 107.971 43.5583 107.512 43.3611C107.057 43.1599 106.697 42.8581 106.432 42.4556C106.17 42.0491 106.039 41.54 106.039 40.9283C106.039 40.4131 106.13 39.9784 106.311 39.6243C106.492 39.2701 106.741 38.9824 107.059 38.761C107.377 38.5396 107.744 38.3726 108.158 38.2599C108.573 38.1432 109.015 38.0647 109.486 38.0245C110.013 37.9762 110.438 37.9259 110.76 37.8736C111.082 37.8172 111.315 37.7387 111.46 37.6381C111.609 37.5335 111.684 37.3866 111.684 37.1974V37.1672C111.684 36.8574 111.577 36.6179 111.364 36.4489C111.15 36.2798 110.863 36.1953 110.5 36.1953C110.11 36.1953 109.796 36.2798 109.559 36.4489C109.321 36.6179 109.17 36.8513 109.106 37.1491L106.383 37.0525C106.464 36.4891 106.671 35.986 107.005 35.5433C107.343 35.0966 107.806 34.7464 108.394 34.4929C108.985 34.2353 109.695 34.1065 110.525 34.1065C111.116 34.1065 111.662 34.177 112.161 34.3178C112.66 34.4547 113.094 34.6559 113.465 34.9215C113.835 35.1831 114.121 35.5051 114.322 35.8874C114.527 36.2698 114.63 36.7064 114.63 37.1974V43.5H111.853V42.2081H111.78C111.615 42.522 111.404 42.7876 111.146 43.005C110.893 43.2223 110.593 43.3853 110.247 43.494C109.905 43.6026 109.518 43.6569 109.088 43.6569ZM109.999 41.7251C110.317 41.7251 110.603 41.6607 110.857 41.5319C111.114 41.4032 111.319 41.2261 111.472 41.0007C111.625 40.7713 111.702 40.5057 111.702 40.2038V39.3224C111.617 39.3667 111.515 39.4069 111.394 39.4432C111.277 39.4794 111.148 39.5136 111.008 39.5458C110.867 39.578 110.722 39.6062 110.573 39.6303C110.424 39.6545 110.281 39.6766 110.144 39.6967C109.867 39.741 109.629 39.8094 109.432 39.902C109.239 39.9945 109.09 40.1153 108.985 40.2642C108.885 40.4091 108.834 40.5821 108.834 40.7834C108.834 41.0892 108.943 41.3227 109.16 41.4837C109.382 41.6446 109.661 41.7251 109.999 41.7251ZM117.908 46.9773C117.554 46.9773 117.22 46.9491 116.906 46.8927C116.592 46.8404 116.322 46.77 116.097 46.6815L116.749 44.5383C117.038 44.6349 117.3 44.6913 117.533 44.7074C117.771 44.7235 117.974 44.6852 118.143 44.5927C118.316 44.5041 118.449 44.3452 118.542 44.1158L118.656 43.8381L115.36 34.2273H118.451L120.16 40.8437H120.256L121.989 34.2273H125.098L121.602 44.3874C121.433 44.8945 121.194 45.3413 120.884 45.7276C120.578 46.118 120.182 46.4239 119.695 46.6452C119.212 46.8666 118.616 46.9773 117.908 46.9773Z" fill="url(#paint1_linear_1_50)"/>
</g>
<defs>
<filter id="filter0_d_1_50" x="6.28571" y="2.28571" width="51.4286" height="51.4286" filterUnits="userSpaceOnUse" color-interpolation-filters="sRGB">
<feFlood flood-opacity="0" result="BackgroundImageFix"/>
<feColorMatrix in="SourceAlpha" type="matrix" values="0 0 0 0 0 0 0 0 0 0 0 0 0 0 0 0 0 0 127 0" result="hardAlpha"/>
<feOffset/>
<feGaussianBlur stdDeviation="2.85714"/>
<feComposite in2="hardAlpha" operator="out"/>
<feColorMatrix type="matrix" values="0 0 0 0 0 0 0 0 0 0 0 0 0 0 0 0 0 0 0.25 0"/>
<feBlend mode="normal" in2="BackgroundImageFix" result="effect1_dropShadow_1_50"/>
<feBlend mode="normal" in="SourceGraphic" in2="effect1_dropShadow_1_50" result="shape"/>
</filter>
<filter id="filter1_d_1_50" x="54.4" y="3.9" width="103.2" height="48.6773" filterUnits="userSpaceOnUse" color-interpolation-filters="sRGB">
<feFlood flood-opacity="0" result="BackgroundImageFix"/>
<feColorMatrix in="SourceAlpha" type="matrix" values="0 0 0 0 0 0 0 0 0 0 0 0 0 0 0 0 0 0 127 0" result="hardAlpha"/>
<feOffset/>
<feGaussianBlur stdDeviation="2.8"/>
<feComposite in2="hardAlpha" operator="out"/>
<feColorMatrix type="matrix" values="0 0 0 0 0 0 0 0 0 0 0 0 0 0 0 0 0 0 0.25 0"/>
<feBlend mode="normal" in2="BackgroundImageFix" result="effect1_dropShadow_1_50"/>
<feBlend mode="normal" in="SourceGraphic" in2="effect1_dropShadow_1_50" result="shape"/>
</filter>
<linearGradient id="paint0_linear_1_50" x1="82" y1="0" x2="82" y2="56" gradientUnits="userSpaceOnUse">
<stop stop-color="#13111C"/>
<stop offset="1" stop-color="#0C0B12"/>
</linearGradient>
<linearGradient id="paint1_linear_1_50" x1="61" y1="37" x2="125" y2="37" gradientUnits="userSpaceOnUse">
<stop stop-color="#B63BCE"/>
<stop offset="1" stop-color="#7C26B5"/>
</linearGradient>
</defs>
</svg>
