<svg width="205" height="40" viewBox="0 0 205 40" fill="none" xmlns="http://www.w3.org/2000/svg">
<rect width="205.001" height="40.0014" rx="8" fill="url(#paint0_linear_1_56)"/>
<rect x="1.07143" y="1.07143" width="202.858" height="37.8585" rx="6.92857" stroke="white" stroke-opacity="0.15" stroke-width="2.14286"/>
<g filter="url(#filter0_d_1_56)">
<path d="M11.6505 7.46827C10.4291 8.19346 8.02282 10.9579 8 11.6828V12.8828C8 14.404 9.42185 15.7409 10.7128 15.7409C12.2629 15.7409 13.5545 14.4562 13.5546 12.9314C13.5546 14.4562 14.8018 15.7409 16.352 15.7409C17.9024 15.7409 19.1096 14.4562 19.1096 12.9314C19.1096 14.4562 20.4358 15.7409 21.986 15.7409H22.0141C23.5644 15.7409 24.8907 14.4562 24.8907 12.9314C24.8907 14.4562 26.098 15.7409 27.6481 15.7409C29.1983 15.7409 30.4456 14.4562 30.4456 12.9314C30.4456 14.4562 31.7373 15.7409 33.2873 15.7409C34.5783 15.7409 36.0001 14.4042 36.0001 12.8828V11.6828C35.9773 10.9577 33.571 8.19323 32.3499 7.46827C28.5538 7.33499 25.9221 7.31194 22 7.31251C18.0779 7.31285 12.7308 7.37413 11.6502 7.46827H11.6505ZM19.09 15.0245C18.9417 15.2829 18.7581 15.5193 18.5445 15.7269C17.9593 16.299 17.1572 16.6537 16.273 16.6537C15.4221 16.6545 14.6048 16.3216 13.9966 15.7264C13.7846 15.5187 13.6235 15.2967 13.4759 15.0381L13.4753 15.0385C13.3278 15.2976 13.1224 15.5195 12.9099 15.7274C12.3016 16.3221 11.4844 16.6548 10.6336 16.654C10.527 16.654 10.4161 16.6246 10.3264 16.5938C10.2018 17.8915 10.1492 19.1317 10.1306 20.0359L10.1304 20.041C10.1281 20.5002 10.1258 20.8778 10.1235 21.4024C10.1475 24.1251 9.85388 30.2272 11.324 31.7265C13.6022 32.2577 17.7942 32.4997 21.9998 32.5011H22.0005C26.2061 32.4997 30.3981 32.2577 32.6763 31.7265C34.1464 30.2271 33.8528 24.125 33.8767 21.4023C33.8742 20.8778 33.8722 20.5002 33.8699 20.0409L33.8695 20.0358C33.8511 19.1313 33.7984 17.8912 33.6738 16.5936C33.5841 16.6244 33.4733 16.6538 33.3666 16.6538C32.5159 16.6546 31.6987 16.3219 31.0903 15.7272C30.8778 15.5193 30.6724 15.2975 30.5249 15.0383L30.5242 15.0378C30.3765 15.2964 30.2155 15.5186 30.0035 15.7262C29.3954 16.3213 28.5781 16.6542 27.7273 16.6533C26.8431 16.6533 26.0409 16.2985 25.4558 15.7264C25.2421 15.5188 25.0585 15.2824 24.9103 15.024C24.7637 15.2821 24.5818 15.5185 24.3699 15.7264C23.7616 16.3214 22.9442 16.6543 22.0933 16.6535C22.0625 16.6535 22.0317 16.6521 22.0009 16.6512H22.0001C21.9693 16.6521 21.9385 16.6535 21.9073 16.6535C21.0564 16.6543 20.239 16.3215 19.6307 15.7265C19.4188 15.5186 19.2369 15.2823 19.0903 15.0242L19.09 15.0245ZM16.7522 18.0474L16.752 18.0485H16.7537C17.6795 18.0504 18.5019 18.0485 19.521 19.1606C20.323 19.0765 21.161 19.0345 21.9997 19.0358H22.0004C22.8391 19.0347 23.6772 19.0765 24.4793 19.1606C25.4983 18.0484 26.3207 18.0503 27.2465 18.0485H27.2481L27.2479 18.0474C27.6853 18.0474 29.435 18.0474 30.6542 21.4715L31.9637 26.169C32.9342 29.6636 31.653 29.7491 30.055 29.7522C27.6851 29.6639 26.3729 27.9429 26.3729 26.2221C25.061 26.4371 23.5307 26.5446 22.0003 26.5447H21.9996C20.4691 26.5447 18.9388 26.4371 17.627 26.2221C17.627 27.9429 16.3147 29.6639 13.9449 29.7522C12.3469 29.7491 11.0659 29.6637 12.0363 26.169L13.3462 21.4717C14.5654 18.0475 16.3151 18.0475 16.7525 18.0475L16.7522 18.0474ZM21.9997 20.7384V20.7391C21.9974 20.7413 19.5049 23.0304 19.0568 23.8446L20.689 23.7793V25.2027C20.689 25.2693 21.344 25.2422 21.9997 25.2118H22.0004C22.6559 25.2422 23.311 25.2693 23.311 25.2027V23.7793L24.9433 23.8446C24.495 23.0304 22.0003 20.7391 22.0003 20.7391V20.7384L22 20.7386L21.9997 20.7384Z" fill="white"/>
</g>
<g filter="url(#filter1_d_1_56)">
<path d="M44.4041 26.5007H42.424L46.8732 14.1371H49.0284L53.4776 26.5007H51.4975L48.0021 16.3828H47.9055L44.4041 26.5007ZM44.7361 21.6591H51.1594V23.2287H44.7361V21.6591ZM61.8886 17.228L58.526 26.5007H56.5942L53.2256 17.228H55.1634L57.5118 24.3636H57.6084L59.9507 17.228H61.8886ZM66.0178 26.706C65.4302 26.706 64.899 26.5973 64.4241 26.38C63.9492 26.1586 63.5729 25.8386 63.2952 25.4201C63.0215 25.0015 62.8846 24.4884 62.8846 23.8807C62.8846 23.3575 62.9853 22.9268 63.1865 22.5888C63.3877 22.2507 63.6594 21.9831 64.0015 21.7859C64.3436 21.5886 64.7259 21.4397 65.1485 21.3391C65.5711 21.2385 66.0017 21.162 66.4404 21.1097C66.9958 21.0453 67.4466 20.993 67.7927 20.9528C68.1388 20.9085 68.3903 20.8381 68.5473 20.7415C68.7042 20.6449 68.7827 20.4879 68.7827 20.2706V20.2283C68.7827 19.7011 68.6338 19.2926 68.336 19.0028C68.0422 18.7131 67.6035 18.5682 67.0199 18.5682C66.4122 18.5682 65.9333 18.703 65.5832 18.9726C65.237 19.2383 64.9976 19.5341 64.8648 19.8601L63.1684 19.4737C63.3696 18.9103 63.6634 18.4555 64.0498 18.1094C64.4402 17.7592 64.8889 17.5057 65.396 17.3487C65.9031 17.1877 66.4364 17.1072 66.9958 17.1072C67.3661 17.1072 67.7585 17.1515 68.173 17.24C68.5916 17.3246 68.9819 17.4815 69.3442 17.7109C69.7104 17.9403 70.0102 18.2683 70.2437 18.6949C70.4771 19.1175 70.5938 19.6669 70.5938 20.343V26.5007H68.831V25.2329H68.7586C68.6419 25.4664 68.4668 25.6958 68.2334 25.9212C67.9999 26.1465 67.7001 26.3337 67.3339 26.4826C66.9676 26.6315 66.5289 26.706 66.0178 26.706ZM66.4102 25.2571C66.9093 25.2571 67.3359 25.1585 67.69 24.9613C68.0482 24.7641 68.3199 24.5065 68.505 24.1886C68.6942 23.8666 68.7888 23.5225 68.7888 23.1562V21.9609C68.7244 22.0253 68.5996 22.0857 68.4145 22.142C68.2334 22.1944 68.0261 22.2406 67.7927 22.2809C67.5592 22.3171 67.3319 22.3513 67.1105 22.3835C66.8891 22.4117 66.704 22.4358 66.5551 22.456C66.205 22.5002 65.885 22.5747 65.5952 22.6793C65.3095 22.784 65.0801 22.9349 64.907 23.1321C64.738 23.3253 64.6535 23.5828 64.6535 23.9048C64.6535 24.3515 64.8185 24.6896 65.1485 24.919C65.4785 25.1444 65.8991 25.2571 66.4102 25.2571ZM72.998 26.5007V17.228H74.8031V26.5007H72.998ZM73.9096 15.7972C73.5957 15.7972 73.326 15.6926 73.1006 15.4833C72.8793 15.27 72.7686 15.0164 72.7686 14.7226C72.7686 14.4248 72.8793 14.1713 73.1006 13.962C73.326 13.7487 73.5957 13.642 73.9096 13.642C74.2235 13.642 74.4911 13.7487 74.7125 13.962C74.9379 14.1713 75.0506 14.4248 75.0506 14.7226C75.0506 15.0164 74.9379 15.27 74.7125 15.4833C74.4911 15.6926 74.2235 15.7972 73.9096 15.7972ZM79.0365 14.1371V26.5007H77.2314V14.1371H79.0365ZM84.1633 26.706C83.5757 26.706 83.0445 26.5973 82.5696 26.38C82.0947 26.1586 81.7184 25.8386 81.4407 25.4201C81.167 25.0015 81.0301 24.4884 81.0301 23.8807C81.0301 23.3575 81.1308 22.9268 81.332 22.5888C81.5332 22.2507 81.8049 21.9831 82.147 21.7859C82.4891 21.5886 82.8714 21.4397 83.294 21.3391C83.7166 21.2385 84.1472 21.162 84.5859 21.1097C85.1413 21.0453 85.5921 20.993 85.9382 20.9528C86.2843 20.9085 86.5358 20.8381 86.6928 20.7415C86.8497 20.6449 86.9282 20.4879 86.9282 20.2706V20.2283C86.9282 19.7011 86.7793 19.2926 86.4815 19.0028C86.1877 18.7131 85.749 18.5682 85.1654 18.5682C84.5577 18.5682 84.0788 18.703 83.7287 18.9726C83.3825 19.2383 83.1431 19.5341 83.0103 19.8601L81.3139 19.4737C81.5151 18.9103 81.8089 18.4555 82.1953 18.1094C82.5857 17.7592 83.0344 17.5057 83.5415 17.3487C84.0486 17.1877 84.5819 17.1072 85.1413 17.1072C85.5116 17.1072 85.904 17.1515 86.3185 17.24C86.7371 17.3246 87.1274 17.4815 87.4897 17.7109C87.8559 17.9403 88.1557 18.2683 88.3892 18.6949C88.6226 19.1175 88.7393 19.6669 88.7393 20.343V26.5007H86.9765V25.2329H86.9041C86.7874 25.4664 86.6123 25.6958 86.3789 25.9212C86.1454 26.1465 85.8456 26.3337 85.4794 26.4826C85.1131 26.6315 84.6744 26.706 84.1633 26.706ZM84.5557 25.2571C85.0548 25.2571 85.4814 25.1585 85.8355 24.9613C86.1937 24.7641 86.4654 24.5065 86.6505 24.1886C86.8397 23.8666 86.9343 23.5225 86.9343 23.1562V21.9609C86.8699 22.0253 86.7451 22.0857 86.56 22.142C86.3789 22.1944 86.1716 22.2406 85.9382 22.2809C85.7047 22.3171 85.4774 22.3513 85.256 22.3835C85.0346 22.4117 84.8495 22.4358 84.7006 22.456C84.3505 22.5002 84.0305 22.5747 83.7407 22.6793C83.455 22.784 83.2256 22.9349 83.0525 23.1321C82.8835 23.3253 82.799 23.5828 82.799 23.9048C82.799 24.3515 82.964 24.6896 83.294 24.919C83.624 25.1444 84.0446 25.2571 84.5557 25.2571ZM91.2884 26.5007V14.1371H93.0934V18.7312H93.2021C93.3067 18.538 93.4577 18.3146 93.6549 18.0611C93.8521 17.8075 94.1258 17.5862 94.4759 17.397C94.826 17.2038 95.2889 17.1072 95.8644 17.1072C96.613 17.1072 97.2811 17.2964 97.8687 17.6747C98.4563 18.053 98.9171 18.5984 99.2511 19.3107C99.5892 20.0231 99.7582 20.8803 99.7582 21.8824C99.7582 22.8846 99.5912 23.7438 99.2571 24.4602C98.9231 25.1726 98.4643 25.7219 97.8807 26.1083C97.2972 26.4906 96.6311 26.6818 95.8825 26.6818C95.3191 26.6818 94.8582 26.5872 94.5 26.3981C94.1459 26.2089 93.8682 25.9876 93.667 25.734C93.4657 25.4805 93.3108 25.2551 93.2021 25.0579H93.0512V26.5007H91.2884ZM93.0572 21.8643C93.0572 22.5163 93.1518 23.0878 93.341 23.5788C93.5301 24.0698 93.8038 24.4542 94.162 24.7319C94.5202 25.0056 94.9589 25.1424 95.478 25.1424C96.0173 25.1424 96.4681 24.9995 96.8303 24.7138C97.1925 24.424 97.4662 24.0316 97.6513 23.5366C97.8405 23.0415 97.9351 22.4841 97.9351 21.8643C97.9351 21.2526 97.8425 20.7032 97.6574 20.2163C97.4763 19.7293 97.2026 19.3449 96.8363 19.0632C96.4741 18.7815 96.0214 18.6406 95.478 18.6406C94.9548 18.6406 94.5121 18.7754 94.1499 19.0451C93.7917 19.3147 93.5201 19.691 93.3349 20.174C93.1498 20.6569 93.0572 21.2204 93.0572 21.8643ZM103.59 14.1371V26.5007H101.785V14.1371H103.59ZM110.015 26.6878C109.101 26.6878 108.315 26.4926 107.655 26.1023C106.999 25.7078 106.491 25.1545 106.133 24.4421C105.779 23.7257 105.602 22.8866 105.602 21.9247C105.602 20.9749 105.779 20.1378 106.133 19.4133C106.491 18.6889 106.99 18.1234 107.63 17.717C108.274 17.3105 109.027 17.1072 109.888 17.1072C110.411 17.1072 110.918 17.1938 111.409 17.3668C111.9 17.5399 112.341 17.8115 112.732 18.1818C113.122 18.5521 113.43 19.033 113.655 19.6246C113.881 20.2122 113.993 20.9266 113.993 21.7677V22.4077H106.622V21.0554H112.224C112.224 20.5805 112.128 20.1599 111.935 19.7937C111.742 19.4234 111.47 19.1316 111.12 18.9183C110.774 18.705 110.367 18.5984 109.9 18.5984C109.393 18.5984 108.95 18.7231 108.572 18.9726C108.198 19.2181 107.908 19.5401 107.703 19.9386C107.502 20.333 107.401 20.7616 107.401 21.2244V22.2809C107.401 22.9007 107.51 23.4279 107.727 23.8626C107.948 24.2972 108.256 24.6292 108.651 24.8587C109.045 25.084 109.506 25.1967 110.033 25.1967C110.375 25.1967 110.687 25.1484 110.969 25.0518C111.251 24.9512 111.494 24.8023 111.699 24.6051C111.905 24.4079 112.061 24.1644 112.17 23.8746L113.879 24.1825C113.742 24.6856 113.496 25.1263 113.142 25.5046C112.792 25.8789 112.351 26.1707 111.82 26.38C111.293 26.5852 110.691 26.6878 110.015 26.6878ZM124.401 26.6878C123.532 26.6878 122.773 26.4886 122.125 26.0902C121.477 25.6917 120.974 25.1343 120.616 24.418C120.258 23.7016 120.079 22.8645 120.079 21.9066C120.079 20.9447 120.258 20.1036 120.616 19.3832C120.974 18.6627 121.477 18.1033 122.125 17.7049C122.773 17.3065 123.532 17.1072 124.401 17.1072C125.27 17.1072 126.029 17.3065 126.677 17.7049C127.325 18.1033 127.828 18.6627 128.186 19.3832C128.544 20.1036 128.723 20.9447 128.723 21.9066C128.723 22.8645 128.544 23.7016 128.186 24.418C127.828 25.1343 127.325 25.6917 126.677 26.0902C126.029 26.4886 125.27 26.6878 124.401 26.6878ZM124.407 25.1726C124.97 25.1726 125.437 25.0237 125.808 24.7258C126.178 24.428 126.452 24.0316 126.629 23.5366C126.81 23.0415 126.9 22.4962 126.9 21.9006C126.9 21.3089 126.81 20.7656 126.629 20.2706C126.452 19.7715 126.178 19.3711 125.808 19.0692C125.437 18.7674 124.97 18.6165 124.407 18.6165C123.84 18.6165 123.369 18.7674 122.994 19.0692C122.624 19.3711 122.348 19.7715 122.167 20.2706C121.99 20.7656 121.902 21.3089 121.902 21.9006C121.902 22.4962 121.99 23.0415 122.167 23.5366C122.348 24.0316 122.624 24.428 122.994 24.7258C123.369 25.0237 123.84 25.1726 124.407 25.1726ZM132.543 20.995V26.5007H130.738V17.228H132.471V18.7372H132.586C132.799 18.2462 133.133 17.8518 133.588 17.554C134.046 17.2561 134.624 17.1072 135.32 17.1072C135.952 17.1072 136.506 17.24 136.98 17.5057C137.455 17.7673 137.824 18.1577 138.085 18.6768C138.347 19.196 138.478 19.8379 138.478 20.6026V26.5007H136.673V20.8199C136.673 20.1478 136.497 19.6226 136.147 19.2443C135.797 18.862 135.316 18.6708 134.704 18.6708C134.286 18.6708 133.914 18.7614 133.588 18.9425C133.266 19.1236 133.01 19.3892 132.821 19.7393C132.636 20.0855 132.543 20.504 132.543 20.995Z" fill="#E8E8E8"/>
<path d="M144.937 26.0007V16.728H147.889V26.0007H144.937ZM146.416 15.6474C146.002 15.6474 145.645 15.5105 145.348 15.2369C145.05 14.9592 144.901 14.6251 144.901 14.2347C144.901 13.8484 145.05 13.5183 145.348 13.2447C145.645 12.967 146.002 12.8281 146.416 12.8281C146.835 12.8281 147.191 12.967 147.485 13.2447C147.783 13.5183 147.931 13.8484 147.931 14.2347C147.931 14.6251 147.783 14.9592 147.485 15.2369C147.191 15.5105 146.835 15.6474 146.416 15.6474ZM155.002 16.728V18.9013H149.152V16.728H155.002ZM150.378 14.5064H153.33V23.0849C153.33 23.266 153.358 23.4129 153.414 23.5256C153.475 23.6342 153.561 23.7127 153.674 23.761C153.787 23.8053 153.922 23.8274 154.079 23.8274C154.191 23.8274 154.31 23.8173 154.435 23.7972C154.563 23.7731 154.66 23.7529 154.724 23.7368L155.171 25.8679C155.03 25.9081 154.831 25.9584 154.574 26.0188C154.32 26.0792 154.016 26.1174 153.662 26.1335C152.97 26.1657 152.376 26.0852 151.881 25.892C151.39 25.6948 151.014 25.389 150.752 24.9744C150.495 24.5599 150.37 24.0387 150.378 23.4109V14.5064ZM160.737 26.1758C159.759 26.1758 158.92 25.9745 158.22 25.5721C157.524 25.1696 156.988 24.6102 156.614 23.8938C156.24 23.1734 156.053 22.3403 156.053 21.3945C156.053 20.4447 156.24 19.6116 156.614 18.8952C156.992 18.1748 157.53 17.6134 158.226 17.2109C158.926 16.8085 159.761 16.6072 160.731 16.6072C161.588 16.6072 162.335 16.7622 162.971 17.0721C163.611 17.382 164.11 17.8207 164.468 18.3881C164.83 18.9516 165.021 19.6136 165.042 20.3743H162.283C162.226 19.8994 162.065 19.5271 161.8 19.2574C161.538 18.9878 161.196 18.853 160.773 18.853C160.431 18.853 160.132 18.9496 159.874 19.1427C159.616 19.3319 159.415 19.6136 159.27 19.9879C159.129 20.3582 159.059 20.817 159.059 21.3643C159.059 21.9117 159.129 22.3745 159.27 22.7528C159.415 23.1271 159.616 23.4109 159.874 23.604C160.132 23.7932 160.431 23.8878 160.773 23.8878C161.047 23.8878 161.289 23.8294 161.498 23.7127C161.711 23.596 161.886 23.4249 162.023 23.1996C162.16 22.9702 162.246 22.6925 162.283 22.3665H165.042C165.013 23.1311 164.822 23.7992 164.468 24.3707C164.118 24.9422 163.625 25.3869 162.989 25.7049C162.357 26.0188 161.607 26.1758 160.737 26.1758ZM169.504 20.7123V26.0007H166.552V13.6371H169.408V18.4304H169.51C169.72 17.8589 170.062 17.4122 170.537 17.0902C171.016 16.7682 171.601 16.6072 172.293 16.6072C172.945 16.6072 173.513 16.7521 173.996 17.0419C174.479 17.3276 174.853 17.7321 175.119 18.2553C175.388 18.7785 175.521 19.3903 175.517 20.0905V26.0007H172.565V20.6701C172.569 20.1549 172.44 19.7525 172.179 19.4627C171.917 19.1729 171.549 19.028 171.074 19.028C170.764 19.028 170.49 19.0965 170.253 19.2333C170.02 19.3661 169.836 19.5573 169.704 19.8068C169.575 20.0563 169.508 20.3582 169.504 20.7123ZM179.02 26.1758C178.585 26.1758 178.213 26.0228 177.903 25.717C177.597 25.4111 177.446 25.0408 177.45 24.6062C177.446 24.1796 177.597 23.8153 177.903 23.5135C178.213 23.2076 178.585 23.0547 179.02 23.0547C179.431 23.0547 179.793 23.2076 180.107 23.5135C180.425 23.8153 180.586 24.1796 180.59 24.6062C180.586 24.8959 180.509 25.1596 180.36 25.397C180.215 25.6345 180.024 25.8236 179.787 25.9645C179.553 26.1053 179.298 26.1758 179.02 26.1758ZM182.54 26.0007V16.728H185.492V26.0007H182.54ZM184.019 15.6474C183.604 15.6474 183.248 15.5105 182.95 15.2369C182.652 14.9592 182.503 14.6251 182.503 14.2347C182.503 13.8484 182.652 13.5183 182.95 13.2447C183.248 12.967 183.604 12.8281 184.019 12.8281C184.437 12.8281 184.793 12.967 185.087 13.2447C185.385 13.5183 185.534 13.8484 185.534 14.2347C185.534 14.6251 185.385 14.9592 185.087 15.2369C184.793 15.5105 184.437 15.6474 184.019 15.6474ZM191.699 26.1758C190.725 26.1758 189.888 25.9765 189.188 25.5781C188.492 25.1757 187.954 24.6162 187.576 23.8998C187.202 23.1794 187.014 22.3443 187.014 21.3945C187.014 20.4407 187.202 19.6056 187.576 18.8892C187.954 18.1688 188.492 17.6094 189.188 17.2109C189.888 16.8085 190.725 16.6072 191.699 16.6072C192.673 16.6072 193.508 16.8085 194.204 17.2109C194.905 17.6094 195.442 18.1688 195.816 18.8892C196.195 19.6056 196.384 20.4407 196.384 21.3945C196.384 22.3443 196.195 23.1794 195.816 23.8998C195.442 24.6162 194.905 25.1757 194.204 25.5781C193.508 25.9765 192.673 26.1758 191.699 26.1758ZM191.717 23.9481C192.071 23.9481 192.371 23.8395 192.617 23.6221C192.862 23.4048 193.049 23.103 193.178 22.7166C193.311 22.3302 193.377 21.8835 193.377 21.3764C193.377 20.8613 193.311 20.4105 193.178 20.0241C193.049 19.6378 192.862 19.3359 192.617 19.1186C192.371 18.9013 192.071 18.7926 191.717 18.7926C191.351 18.7926 191.041 18.9013 190.788 19.1186C190.538 19.3359 190.347 19.6378 190.214 20.0241C190.085 20.4105 190.021 20.8613 190.021 21.3764C190.021 21.8835 190.085 22.3302 190.214 22.7166C190.347 23.103 190.538 23.4048 190.788 23.6221C191.041 23.8395 191.351 23.9481 191.717 23.9481Z" fill="#FA5C5C"/>
</g>
<defs>
<filter id="filter0_d_1_56" x="2.39972" y="0.39972" width="39.202" height="39.202" filterUnits="userSpaceOnUse" color-interpolation-filters="sRGB">
<feFlood flood-opacity="0" result="BackgroundImageFix"/>
<feColorMatrix in="SourceAlpha" type="matrix" values="0 0 0 0 0 0 0 0 0 0 0 0 0 0 0 0 0 0 127 0" result="hardAlpha"/>
<feOffset/>
<feGaussianBlur stdDeviation="2.80014"/>
<feComposite in2="hardAlpha" operator="out"/>
<feColorMatrix type="matrix" values="0 0 0 0 0 0 0 0 0 0 0 0 0 0 0 0 0 0 0.25 0"/>
<feBlend mode="normal" in2="BackgroundImageFix" result="effect1_dropShadow_1_56"/>
<feBlend mode="normal" in="SourceGraphic" in2="effect1_dropShadow_1_56" result="shape"/>
</filter>
<filter id="filter1_d_1_56" x="36.2871" y="3.78642" width="166.429" height="32.4286" filterUnits="userSpaceOnUse" color-interpolation-filters="sRGB">
<feFlood flood-opacity="0" result="BackgroundImageFix"/>
<feColorMatrix in="SourceAlpha" type="matrix" values="0 0 0 0 0 0 0 0 0 0 0 0 0 0 0 0 0 0 127 0" result="hardAlpha"/>
<feOffset/>
<feGaussianBlur stdDeviation="2.85714"/>
<feComposite in2="hardAlpha" operator="out"/>
<feColorMatrix type="matrix" values="0 0 0 0 0 0 0 0 0 0 0 0 0 0 0 0 0 0 0.25 0"/>
<feBlend mode="normal" in2="BackgroundImageFix" result="effect1_dropShadow_1_56"/>
<feBlend mode="normal" in="SourceGraphic" in2="effect1_dropShadow_1_56" result="shape"/>
</filter>
<linearGradient id="paint0_linear_1_56" x1="102.501" y1="0" x2="102.501" y2="40.0014" gradientUnits="userSpaceOnUse">
<stop stop-color="#F93B3B"/>
<stop offset="1" stop-color="#5C0303"/>
</linearGradient>
</defs>
</svg>
