<svg width="40" height="40" viewBox="0 0 40 40" fill="none" xmlns="http://www.w3.org/2000/svg">
<rect width="40" height="40" rx="8" fill="url(#paint0_linear_1_68)"/>
<rect x="1.05" y="1.05" width="37.9" height="37.9" rx="6.95" stroke="white" stroke-opacity="0.15" stroke-width="2.1"/>
<g filter="url(#filter0_d_1_68)">
<path d="M9.65048 7.46827C8.42912 8.19346 6.02282 10.9579 6 11.6828V12.8828C6 14.404 7.42185 15.7409 8.71281 15.7409C10.2629 15.7409 11.5545 14.4562 11.5546 12.9314C11.5546 14.4562 12.8018 15.7409 14.352 15.7409C15.9024 15.7409 17.1096 14.4562 17.1096 12.9314C17.1096 14.4562 18.4358 15.7409 19.986 15.7409H20.0141C21.5644 15.7409 22.8907 14.4562 22.8907 12.9314C22.8907 14.4562 24.098 15.7409 25.6481 15.7409C27.1983 15.7409 28.4456 14.4562 28.4456 12.9314C28.4456 14.4562 29.7373 15.7409 31.2873 15.7409C32.5783 15.7409 34.0001 14.4042 34.0001 12.8828V11.6828C33.9773 10.9577 31.571 8.19323 30.3499 7.46827C26.5538 7.33499 23.9221 7.31194 20 7.31251C16.0779 7.31285 10.7308 7.37413 9.65025 7.46827H9.65048ZM17.09 15.0245C16.9417 15.2829 16.7581 15.5193 16.5445 15.7269C15.9593 16.299 15.1572 16.6537 14.273 16.6537C13.4221 16.6545 12.6048 16.3216 11.9966 15.7264C11.7846 15.5187 11.6235 15.2967 11.4759 15.0381L11.4753 15.0385C11.3278 15.2976 11.1224 15.5195 10.9099 15.7274C10.3016 16.3221 9.48438 16.6548 8.63362 16.654C8.52703 16.654 8.41612 16.6246 8.32642 16.5938C8.20181 17.8915 8.14921 19.1317 8.1306 20.0359L8.13038 20.041C8.12809 20.5002 8.12581 20.8778 8.12353 21.4024C8.14749 24.1251 7.85388 30.2272 9.324 31.7265C11.6022 32.2577 15.7942 32.4997 19.9998 32.5011H20.0005C24.2061 32.4997 28.3981 32.2577 30.6763 31.7265C32.1464 30.2271 31.8528 24.125 31.8767 21.4023C31.8742 20.8778 31.8722 20.5002 31.8699 20.0409L31.8695 20.0358C31.8511 19.1313 31.7984 17.8912 31.6738 16.5936C31.5841 16.6244 31.4733 16.6538 31.3666 16.6538C30.5159 16.6546 29.6987 16.3219 29.0903 15.7272C28.8778 15.5193 28.6724 15.2975 28.5249 15.0383L28.5242 15.0378C28.3765 15.2964 28.2155 15.5186 28.0035 15.7262C27.3954 16.3213 26.5781 16.6542 25.7273 16.6533C24.8431 16.6533 24.0409 16.2985 23.4558 15.7264C23.2421 15.5188 23.0585 15.2824 22.9103 15.024C22.7637 15.2821 22.5818 15.5185 22.3699 15.7264C21.7616 16.3214 20.9442 16.6543 20.0933 16.6535C20.0625 16.6535 20.0317 16.6521 20.0009 16.6512H20.0001C19.9693 16.6521 19.9385 16.6535 19.9073 16.6535C19.0564 16.6543 18.239 16.3215 17.6307 15.7265C17.4188 15.5186 17.2369 15.2823 17.0903 15.0242L17.09 15.0245ZM14.7522 18.0474L14.752 18.0485H14.7537C15.6795 18.0504 16.5019 18.0485 17.521 19.1606C18.323 19.0765 19.161 19.0345 19.9997 19.0358H20.0004C20.8391 19.0347 21.6772 19.0765 22.4793 19.1606C23.4983 18.0484 24.3207 18.0503 25.2465 18.0485H25.2481L25.2479 18.0474C25.6853 18.0474 27.435 18.0474 28.6542 21.4715L29.9637 26.169C30.9342 29.6636 29.653 29.7491 28.055 29.7522C25.6851 29.6639 24.3729 27.9429 24.3729 26.2221C23.061 26.4371 21.5307 26.5446 20.0003 26.5447H19.9996C18.4691 26.5447 16.9388 26.4371 15.627 26.2221C15.627 27.9429 14.3147 29.6639 11.9449 29.7522C10.3469 29.7491 9.06588 29.6637 10.0363 26.169L11.3462 21.4717C12.5654 18.0475 14.3151 18.0475 14.7525 18.0475L14.7522 18.0474ZM19.9997 20.7384V20.7391C19.9974 20.7413 17.5049 23.0304 17.0568 23.8446L18.689 23.7793V25.2027C18.689 25.2693 19.344 25.2422 19.9997 25.2118H20.0004C20.6559 25.2422 21.311 25.2693 21.311 25.2027V23.7793L22.9433 23.8446C22.495 23.0304 20.0003 20.7391 20.0003 20.7391V20.7384L20 20.7386L19.9997 20.7384Z" fill="white"/>
</g>
<defs>
<filter id="filter0_d_1_68" x="2" y="2" width="36.0001" height="36" filterUnits="userSpaceOnUse" color-interpolation-filters="sRGB">
<feFlood flood-opacity="0" result="BackgroundImageFix"/>
<feColorMatrix in="SourceAlpha" type="matrix" values="0 0 0 0 0 0 0 0 0 0 0 0 0 0 0 0 0 0 127 0" result="hardAlpha"/>
<feOffset/>
<feGaussianBlur stdDeviation="2"/>
<feComposite in2="hardAlpha" operator="out"/>
<feColorMatrix type="matrix" values="0 0 0 0 0 0 0 0 0 0 0 0 0 0 0 0 0 0 0.25 0"/>
<feBlend mode="normal" in2="BackgroundImageFix" result="effect1_dropShadow_1_68"/>
<feBlend mode="normal" in="SourceGraphic" in2="effect1_dropShadow_1_68" result="shape"/>
</filter>
<linearGradient id="paint0_linear_1_68" x1="20" y1="0" x2="20" y2="40" gradientUnits="userSpaceOnUse">
<stop stop-color="#F93B3B"/>
<stop offset="1" stop-color="#5C0303"/>
</linearGradient>
</defs>
</svg>
