<svg width="56" height="56" viewBox="0 0 56 56" fill="none" xmlns="http://www.w3.org/2000/svg">
<rect width="56" height="56" rx="8.4" fill="url(#paint0_linear_1_62)"/>
<rect x="1.05" y="1.05" width="53.9" height="53.9" rx="7.35" stroke="white" stroke-opacity="0.15" stroke-width="2.1"/>
<g filter="url(#filter0_d_1_62)">
<path d="M13.215 10.0975C11.4702 11.1335 8.0326 15.0826 8 16.1183V17.8326C8 20.0056 10.0312 21.9156 11.8754 21.9156C14.0899 21.9156 15.9349 20.0803 15.9351 17.9021C15.9351 20.0803 17.7169 21.9156 19.9315 21.9156C22.1463 21.9156 23.8708 20.0803 23.8708 17.9021C23.8708 20.0803 25.7654 21.9156 27.9801 21.9156H28.0202C30.2349 21.9156 32.1295 20.0803 32.1295 17.9021C32.1295 20.0803 33.8543 21.9156 36.0687 21.9156C38.2833 21.9156 40.0651 20.0803 40.0651 17.9021C40.0651 20.0803 41.9105 21.9156 44.1248 21.9156C45.969 21.9156 48.0002 20.006 48.0002 17.8326V16.1183C47.9676 15.0825 44.53 11.1332 42.7856 10.0975C37.3626 9.90713 33.6031 9.8742 27.9999 9.87501C22.397 9.8755 14.7583 9.96304 13.2146 10.0975H13.215ZM23.8428 20.8921C23.6311 21.2613 23.3688 21.599 23.0636 21.8955C22.2276 22.7129 21.0818 23.2196 19.8185 23.2196C18.6029 23.2207 17.4354 22.7451 16.5666 21.8949C16.2637 21.5982 16.0336 21.2809 15.8228 20.9115L15.8218 20.9122C15.6112 21.2822 15.3177 21.5993 15.0142 21.8963C14.1451 22.7459 12.9777 23.2211 11.7623 23.22C11.61 23.22 11.4516 23.178 11.3235 23.134C11.1454 24.9878 11.0703 26.7595 11.0437 28.0513L11.0434 28.0586C11.0401 28.7146 11.0369 29.254 11.0336 30.0034C11.0678 33.893 10.6484 42.6103 12.7486 44.7522C16.0031 45.5111 21.9917 45.8567 27.9998 45.8588H28.0008C34.0086 45.8567 39.9973 45.5111 43.2518 44.7522C45.352 42.6101 44.9325 33.8929 44.9668 30.0033C44.9632 29.254 44.9602 28.7146 44.957 28.0584L44.9565 28.0511C44.9301 26.759 44.8549 24.9875 44.6769 23.1336C44.5488 23.1777 44.3905 23.2197 44.2381 23.2197C43.0227 23.2208 41.8553 22.7456 40.9862 21.896C40.6826 21.599 40.3892 21.2821 40.1784 20.9119L40.1774 20.9112C39.9665 21.2806 39.7365 21.598 39.4336 21.8945C38.5648 22.7447 37.3974 23.2202 36.1818 23.2191C34.9188 23.2191 33.7728 22.7121 32.9368 21.8949C32.6316 21.5983 32.3693 21.2606 32.1576 20.8915C31.9481 21.2602 31.6882 21.5979 31.3855 21.8949C30.5165 22.7449 29.3489 23.2204 28.1333 23.2192C28.0893 23.2192 28.0453 23.2173 28.0012 23.216H28.0001C27.9561 23.2173 27.9121 23.2192 27.8676 23.2192C26.652 23.2204 25.4844 22.745 24.6153 21.895C24.3126 21.5981 24.0528 21.2604 23.8433 20.8917L23.8428 20.8921ZM20.5032 25.2105L20.5029 25.2121H20.5053C21.8279 25.2149 23.0028 25.2121 24.4585 26.8009C25.6042 26.6808 26.8014 26.6208 27.9996 26.6226H28.0006C29.1988 26.6209 30.396 26.6808 31.5418 26.8009C32.9976 25.212 34.1725 25.2147 35.4951 25.2121H35.4973L35.497 25.2105C36.1219 25.2105 38.6214 25.2105 40.3631 30.1022L42.2339 36.8129C43.6202 41.8052 41.79 41.9273 39.5071 41.9317C36.1215 41.8056 34.247 39.347 34.247 36.8887C32.3729 37.1958 30.1867 37.3494 28.0004 37.3495H27.9995C25.813 37.3495 23.6268 37.1958 21.7529 36.8887C21.7529 39.347 19.8782 41.8056 16.4928 41.9317C14.2099 41.9273 12.3798 41.8053 13.7661 36.8129L15.6374 30.1024C17.3791 25.2107 19.8787 25.2107 20.5035 25.2107L20.5032 25.2105ZM27.9996 29.0548V29.0558C27.9964 29.0591 24.4355 32.3292 23.7954 33.4923L26.1272 33.3989V35.4324C26.1272 35.5276 27.0629 35.4888 27.9996 35.4455H28.0006C28.937 35.4888 29.8729 35.5276 29.8729 35.4324V33.3989L32.2047 33.4923C31.5643 32.3292 28.0004 29.0558 28.0004 29.0558V29.0548L27.9999 29.0551L27.9996 29.0548Z" fill="white"/>
</g>
<defs>
<filter id="filter0_d_1_62" x="2.28571" y="2.28571" width="51.4288" height="51.4286" filterUnits="userSpaceOnUse" color-interpolation-filters="sRGB">
<feFlood flood-opacity="0" result="BackgroundImageFix"/>
<feColorMatrix in="SourceAlpha" type="matrix" values="0 0 0 0 0 0 0 0 0 0 0 0 0 0 0 0 0 0 127 0" result="hardAlpha"/>
<feOffset/>
<feGaussianBlur stdDeviation="2.85714"/>
<feComposite in2="hardAlpha" operator="out"/>
<feColorMatrix type="matrix" values="0 0 0 0 0 0 0 0 0 0 0 0 0 0 0 0 0 0 0.25 0"/>
<feBlend mode="normal" in2="BackgroundImageFix" result="effect1_dropShadow_1_62"/>
<feBlend mode="normal" in="SourceGraphic" in2="effect1_dropShadow_1_62" result="shape"/>
</filter>
<linearGradient id="paint0_linear_1_62" x1="28" y1="0" x2="28" y2="56" gradientUnits="userSpaceOnUse">
<stop stop-color="#F93B3B"/>
<stop offset="1" stop-color="#5C0303"/>
</linearGradient>
</defs>
</svg>
