<svg width="40" height="40" viewBox="0 0 40 40" fill="none" xmlns="http://www.w3.org/2000/svg">
<rect width="40" height="40" rx="8" fill="url(#paint0_linear_1_68)"/>
<rect x="1.05" y="1.05" width="37.9" height="37.9" rx="6.95" stroke="white" stroke-opacity="0.15" stroke-width="2.1"/>
<g filter="url(#filter0_d_1_68)">
<path d="M7.98996 19.9992C7.98996 24.7529 10.7526 28.861 14.7585 30.8078L9.02973 15.1116C8.36337 16.6052 7.98996 18.2581 7.98996 19.9992Z" fill="#3499CD"/>
<path d="M28.1071 19.3932C28.1071 17.9089 27.574 16.881 27.1167 16.081C26.5079 15.0917 25.9373 14.254 25.9373 13.2647C25.9373 12.1607 26.7746 11.133 27.954 11.133C28.0073 11.133 28.0578 11.1397 28.1096 11.1426C25.973 9.18512 23.1263 7.98996 19.9997 7.98996C15.804 7.98996 12.1127 10.1426 9.9653 13.4032C10.2471 13.4116 10.5126 13.4176 10.7382 13.4176C11.9943 13.4176 13.9388 13.2651 13.9388 13.2651C14.5862 13.227 14.6625 14.1779 14.0158 14.2544C14.0158 14.2544 13.3652 14.331 12.6413 14.3689L17.0147 27.3775L19.6429 19.4951L17.7718 14.3684C17.1251 14.3305 16.5124 14.254 16.5124 14.254C15.8653 14.216 15.9411 13.2265 16.5883 13.2647C16.5883 13.2647 18.5716 13.4171 19.7517 13.4171C21.0077 13.4171 22.9524 13.2647 22.9524 13.2647C23.6002 13.2265 23.6763 14.1774 23.0294 14.254C23.0294 14.254 22.3774 14.3305 21.6548 14.3684L25.9949 27.2785L27.1928 23.2755C27.712 21.6144 28.1071 20.4213 28.1071 19.3932Z" fill="#3499CD"/>
<path d="M20.2104 21.0497L16.607 31.5203C17.6829 31.8366 18.8207 32.0096 19.9997 32.0096C21.3982 32.0096 22.7394 31.7678 23.9878 31.3288C23.9556 31.2774 23.9263 31.2228 23.9023 31.1634L20.2104 21.0497Z" fill="#3499CD"/>
<path d="M30.5377 14.2373C30.5893 14.6198 30.6186 15.0305 30.6186 15.4722C30.6186 16.6909 30.391 18.0609 29.7054 19.7739L26.037 30.3802C29.6074 28.2982 32.0089 24.43 32.0089 19.9994C32.0091 17.9114 31.4758 15.948 30.5377 14.2373Z" fill="#3499CD"/>
<path d="M19.9997 6C12.2804 6 6 12.28 6 19.9992C6 27.7193 12.2804 33.9991 19.9997 33.9991C27.7186 33.9991 34 27.7193 34 19.9992C33.9998 12.28 27.7186 6 19.9997 6ZM19.9997 33.3574C12.6344 33.3574 6.64192 27.3649 6.64192 19.9992C6.64192 12.634 12.6342 6.64192 19.9997 6.64192C27.3647 6.64192 33.3567 12.634 33.3567 19.9992C33.3567 27.3649 27.3647 33.3574 19.9997 33.3574Z" fill="#3499CD"/>
</g>
<defs>
<filter id="filter0_d_1_68" x="2" y="2" width="36" height="36" filterUnits="userSpaceOnUse" color-interpolation-filters="sRGB">
<feFlood flood-opacity="0" result="BackgroundImageFix"/>
<feColorMatrix in="SourceAlpha" type="matrix" values="0 0 0 0 0 0 0 0 0 0 0 0 0 0 0 0 0 0 127 0" result="hardAlpha"/>
<feOffset/>
<feGaussianBlur stdDeviation="2"/>
<feComposite in2="hardAlpha" operator="out"/>
<feColorMatrix type="matrix" values="0 0 0 0 0 0 0 0 0 0 0 0 0 0 0 0 0 0 0.25 0"/>
<feBlend mode="normal" in2="BackgroundImageFix" result="effect1_dropShadow_1_68"/>
<feBlend mode="normal" in="SourceGraphic" in2="effect1_dropShadow_1_68" result="shape"/>
</filter>
<linearGradient id="paint0_linear_1_68" x1="20" y1="0" x2="20" y2="40" gradientUnits="userSpaceOnUse">
<stop stop-color="#17455D"/>
<stop offset="1" stop-color="#0A1F29"/>
</linearGradient>
</defs>
</svg>
