<svg width="223" height="40" viewBox="0 0 223 40" fill="none" xmlns="http://www.w3.org/2000/svg">
<rect width="223.001" height="40.0014" rx="8" fill="url(#paint0_linear_1_56)"/>
<rect x="1.07143" y="1.07143" width="220.858" height="37.8585" rx="6.92857" stroke="white" stroke-opacity="0.15" stroke-width="2.14286"/>
<g filter="url(#filter0_d_1_56)">
<path d="M9.98996 19.9992C9.98996 24.7529 12.7526 28.861 16.7585 30.8078L11.0297 15.1116C10.3634 16.6052 9.98996 18.2581 9.98996 19.9992Z" fill="#3499CD"/>
<path d="M30.1071 19.3932C30.1071 17.9089 29.574 16.881 29.1167 16.081C28.5079 15.0917 27.9373 14.254 27.9373 13.2647C27.9373 12.1607 28.7746 11.133 29.954 11.133C30.0073 11.133 30.0578 11.1397 30.1096 11.1426C27.973 9.18512 25.1263 7.98996 21.9997 7.98996C17.804 7.98996 14.1127 10.1426 11.9653 13.4032C12.2471 13.4116 12.5126 13.4176 12.7382 13.4176C13.9943 13.4176 15.9388 13.2651 15.9388 13.2651C16.5862 13.227 16.6625 14.1779 16.0158 14.2544C16.0158 14.2544 15.3652 14.331 14.6413 14.3689L19.0147 27.3775L21.6429 19.4951L19.7718 14.3684C19.1251 14.3305 18.5124 14.254 18.5124 14.254C17.8653 14.216 17.9411 13.2265 18.5883 13.2647C18.5883 13.2647 20.5716 13.4171 21.7517 13.4171C23.0077 13.4171 24.9524 13.2647 24.9524 13.2647C25.6002 13.2265 25.6763 14.1774 25.0294 14.254C25.0294 14.254 24.3774 14.3305 23.6548 14.3684L27.9949 27.2785L29.1928 23.2755C29.712 21.6144 30.1071 20.4213 30.1071 19.3932Z" fill="#3499CD"/>
<path d="M22.2104 21.0497L18.607 31.5203C19.6829 31.8366 20.8207 32.0096 21.9997 32.0096C23.3982 32.0096 24.7394 31.7678 25.9878 31.3288C25.9556 31.2774 25.9263 31.2228 25.9023 31.1634L22.2104 21.0497Z" fill="#3499CD"/>
<path d="M32.5377 14.2373C32.5893 14.6198 32.6186 15.0305 32.6186 15.4722C32.6186 16.6909 32.391 18.0609 31.7054 19.7739L28.037 30.3802C31.6074 28.2982 34.0089 24.43 34.0089 19.9994C34.0091 17.9114 33.4758 15.948 32.5377 14.2373Z" fill="#3499CD"/>
<path d="M21.9997 6C14.2804 6 8 12.28 8 19.9992C8 27.7193 14.2804 33.9991 21.9997 33.9991C29.7186 33.9991 36 27.7193 36 19.9992C35.9998 12.28 29.7186 6 21.9997 6ZM21.9997 33.3574C14.6344 33.3574 8.64192 27.3649 8.64192 19.9992C8.64192 12.634 14.6342 6.64192 21.9997 6.64192C29.3647 6.64192 35.3567 12.634 35.3567 19.9992C35.3567 27.3649 29.3647 33.3574 21.9997 33.3574Z" fill="#3499CD"/>
</g>
<g filter="url(#filter1_d_1_56)">
<path d="M43.3597 26.5007V14.1371H47.8874C48.7648 14.1371 49.4912 14.282 50.0667 14.5717C50.6423 14.8575 51.0729 15.2458 51.3586 15.7369C51.6444 16.2238 51.7873 16.7732 51.7873 17.3849C51.7873 17.9001 51.6927 18.3347 51.5035 18.6889C51.3144 19.0391 51.0608 19.3208 50.7429 19.5341C50.429 19.7434 50.0828 19.8963 49.7045 19.9929V20.1136C50.115 20.1337 50.5155 20.2666 50.9059 20.5121C51.3003 20.7535 51.6263 21.0976 51.8839 21.5444C52.1414 21.9911 52.2702 22.5344 52.2702 23.1743C52.2702 23.8062 52.1213 24.3737 51.8235 24.8768C51.5297 25.3758 51.0749 25.7722 50.4591 26.066C49.8434 26.3558 49.0566 26.5007 48.0987 26.5007H43.3597ZM45.2251 24.9009H47.9176C48.8111 24.9009 49.451 24.7279 49.8373 24.3817C50.2237 24.0356 50.4169 23.603 50.4169 23.0838C50.4169 22.6934 50.3183 22.3352 50.1211 22.0092C49.9239 21.6832 49.6421 21.4236 49.2759 21.2305C48.9137 21.0373 48.483 20.9407 47.984 20.9407H45.2251V24.9009ZM45.2251 19.4858H47.7244C48.143 19.4858 48.5193 19.4053 48.8533 19.2443C49.1914 19.0833 49.459 18.8579 49.6562 18.5682C49.8575 18.2744 49.9581 17.9283 49.9581 17.5298C49.9581 17.0187 49.779 16.5901 49.4208 16.244C49.0626 15.8978 48.5132 15.7248 47.7727 15.7248H45.2251V19.4858ZM60.2118 22.6552V17.228H62.0229V26.5007H60.248V24.8949H60.1514C59.9381 25.3899 59.596 25.8024 59.1251 26.1324C58.6583 26.4584 58.0767 26.6214 57.3805 26.6214C56.7848 26.6214 56.2576 26.4906 55.7988 26.229C55.344 25.9634 54.9858 25.571 54.7242 25.0518C54.4667 24.5327 54.3379 23.8907 54.3379 23.1261V17.228H56.1429V22.9087C56.1429 23.5406 56.318 24.0437 56.6681 24.418C57.0183 24.7922 57.473 24.9794 58.0325 24.9794C58.3705 24.9794 58.7066 24.8949 59.0406 24.7258C59.3787 24.5568 59.6584 24.3012 59.8798 23.9591C60.1051 23.6171 60.2158 23.1824 60.2118 22.6552ZM64.4482 26.5007V17.228H66.2533V26.5007H64.4482ZM65.3598 15.7972C65.0459 15.7972 64.7762 15.6926 64.5508 15.4833C64.3295 15.27 64.2188 15.0164 64.2188 14.7226C64.2188 14.4248 64.3295 14.1713 64.5508 13.962C64.7762 13.7487 65.0459 13.642 65.3598 13.642C65.6737 13.642 65.9413 13.7487 66.1627 13.962C66.3881 14.1713 66.5008 14.4248 66.5008 14.7226C66.5008 15.0164 66.3881 15.27 66.1627 15.4833C65.9413 15.6926 65.6737 15.7972 65.3598 15.7972ZM70.4867 14.1371V26.5007H68.6816V14.1371H70.4867ZM77.2435 17.228V18.6768H72.1785V17.228H77.2435ZM73.5368 15.0064H75.3419V23.778C75.3419 24.1282 75.3942 24.3918 75.4988 24.5689C75.6035 24.7419 75.7383 24.8607 75.9033 24.9251C76.0723 24.9854 76.2554 25.0156 76.4526 25.0156C76.5975 25.0156 76.7243 25.0056 76.833 24.9854C76.9416 24.9653 77.0262 24.9492 77.0865 24.9371L77.4125 26.4283C77.3079 26.4685 77.159 26.5087 76.9658 26.549C76.7726 26.5933 76.5311 26.6174 76.2414 26.6214C75.7664 26.6295 75.3237 26.545 74.9132 26.3679C74.5027 26.1908 74.1707 25.9171 73.9171 25.5469C73.6636 25.1766 73.5368 24.7118 73.5368 24.1523V15.0064ZM85.7495 26.5007L83.0208 17.228H84.8862L86.7034 24.0376H86.7939L88.6171 17.228H90.4825L92.2936 24.0074H92.3841L94.1891 17.228H96.0546L93.3319 26.5007H91.4906L89.6071 19.8057H89.4683L87.5847 26.5007H85.7495ZM97.7675 26.5007V17.228H99.5726V26.5007H97.7675ZM98.6791 15.7972C98.3652 15.7972 98.0955 15.6926 97.8702 15.4833C97.6488 15.27 97.5381 15.0164 97.5381 14.7226C97.5381 14.4248 97.6488 14.1713 97.8702 13.962C98.0955 13.7487 98.3652 13.642 98.6791 13.642C98.993 13.642 99.2607 13.7487 99.482 13.962C99.7074 14.1713 99.8201 14.4248 99.8201 14.7226C99.8201 15.0164 99.7074 15.27 99.482 15.4833C99.2607 15.6926 98.993 15.7972 98.6791 15.7972ZM106.329 17.228V18.6768H101.264V17.228H106.329ZM102.623 15.0064H104.428V23.778C104.428 24.1282 104.48 24.3918 104.585 24.5689C104.689 24.7419 104.824 24.8607 104.989 24.9251C105.158 24.9854 105.341 25.0156 105.539 25.0156C105.683 25.0156 105.81 25.0056 105.919 24.9854C106.028 24.9653 106.112 24.9492 106.172 24.9371L106.498 26.4283C106.394 26.4685 106.245 26.5087 106.052 26.549C105.859 26.5933 105.617 26.6174 105.327 26.6214C104.852 26.6295 104.41 26.545 103.999 26.3679C103.589 26.1908 103.257 25.9171 103.003 25.5469C102.75 25.1766 102.623 24.7118 102.623 24.1523V15.0064ZM110.33 20.995V26.5007H108.525V14.1371H110.306V18.7372H110.421C110.638 18.2382 110.97 17.8417 111.417 17.5479C111.864 17.2541 112.447 17.1072 113.168 17.1072C113.804 17.1072 114.359 17.238 114.834 17.4996C115.313 17.7612 115.683 18.1516 115.945 18.6708C116.21 19.1859 116.343 19.8299 116.343 20.6026V26.5007H114.538V20.8199C114.538 20.1398 114.363 19.6126 114.013 19.2383C113.663 18.86 113.176 18.6708 112.552 18.6708C112.125 18.6708 111.743 18.7614 111.405 18.9425C111.071 19.1236 110.807 19.3892 110.614 19.7393C110.425 20.0855 110.33 20.504 110.33 20.995Z" fill="#E8E8E8"/>
<path d="M125.901 26.0007L122.303 13.6371H125.605L127.471 21.7386H127.573L129.704 13.6371H132.397L134.528 21.7567H134.631L136.502 13.6371H139.798L136.206 26.0007H133.327L131.099 18.5028H131.002L128.775 26.0007H125.901ZM144.332 26.1758C143.358 26.1758 142.521 25.9765 141.821 25.5781C141.124 25.1757 140.587 24.6162 140.209 23.8998C139.834 23.1794 139.647 22.3443 139.647 21.3945C139.647 20.4407 139.834 19.6056 140.209 18.8892C140.587 18.1688 141.124 17.6094 141.821 17.2109C142.521 16.8085 143.358 16.6072 144.332 16.6072C145.306 16.6072 146.141 16.8085 146.837 17.2109C147.538 17.6094 148.075 18.1688 148.449 18.8892C148.827 19.6056 149.017 20.4407 149.017 21.3945C149.017 22.3443 148.827 23.1794 148.449 23.8998C148.075 24.6162 147.538 25.1757 146.837 25.5781C146.141 25.9765 145.306 26.1758 144.332 26.1758ZM144.35 23.9481C144.704 23.9481 145.004 23.8395 145.25 23.6221C145.495 23.4048 145.682 23.103 145.811 22.7166C145.944 22.3302 146.01 21.8835 146.01 21.3764C146.01 20.8613 145.944 20.4105 145.811 20.0241C145.682 19.6378 145.495 19.3359 145.25 19.1186C145.004 18.9013 144.704 18.7926 144.35 18.7926C143.984 18.7926 143.674 18.9013 143.42 19.1186C143.171 19.3359 142.98 19.6378 142.847 20.0241C142.718 20.4105 142.654 20.8613 142.654 21.3764C142.654 21.8835 142.718 22.3302 142.847 22.7166C142.98 23.103 143.171 23.4048 143.42 23.6221C143.674 23.8395 143.984 23.9481 144.35 23.9481ZM150.529 26.0007V16.728H153.396V18.4183H153.493C153.662 17.8066 153.938 17.3518 154.32 17.054C154.702 16.7521 155.147 16.6012 155.654 16.6012C155.791 16.6012 155.932 16.6113 156.077 16.6314C156.222 16.6475 156.357 16.6736 156.481 16.7099V19.2756C156.34 19.2273 156.155 19.189 155.926 19.1609C155.701 19.1327 155.499 19.1186 155.322 19.1186C154.972 19.1186 154.656 19.1971 154.374 19.354C154.097 19.507 153.877 19.7223 153.716 20C153.559 20.2737 153.481 20.5956 153.481 20.9659V26.0007H150.529ZM160.589 26.1335C159.905 26.1335 159.283 25.9564 158.724 25.6023C158.165 25.2481 157.718 24.7168 157.384 24.0085C157.05 23.3002 156.883 22.4208 156.883 21.3704C156.883 20.2797 157.056 19.3822 157.402 18.6779C157.748 17.9736 158.201 17.4524 158.76 17.1143C159.324 16.7763 159.929 16.6072 160.577 16.6072C161.064 16.6072 161.481 16.6918 161.827 16.8608C162.173 17.0258 162.459 17.2391 162.684 17.5007C162.91 17.7623 163.081 18.034 163.197 18.3157H163.258V13.6371H166.21V26.0007H163.288V24.4975H163.197C163.073 24.7832 162.896 25.0509 162.666 25.3004C162.437 25.5499 162.149 25.7512 161.803 25.9041C161.461 26.057 161.056 26.1335 160.589 26.1335ZM161.616 23.8334C161.974 23.8334 162.28 23.7328 162.533 23.5316C162.787 23.3263 162.982 23.0386 163.119 22.6683C163.256 22.298 163.324 21.8634 163.324 21.3643C163.324 20.8572 163.256 20.4206 163.119 20.0543C162.986 19.6881 162.791 19.4064 162.533 19.2092C162.28 19.0119 161.974 18.9133 161.616 18.9133C161.249 18.9133 160.94 19.014 160.686 19.2152C160.432 19.4164 160.239 19.7002 160.106 20.0664C159.978 20.4326 159.913 20.8653 159.913 21.3643C159.913 21.8634 159.98 22.298 160.113 22.6683C160.245 23.0386 160.436 23.3263 160.686 23.5316C160.94 23.7328 161.249 23.8334 161.616 23.8334ZM168.077 26.0007V13.6371H173.184C174.11 13.6371 174.909 13.8182 175.581 14.1804C176.257 14.5386 176.778 15.0396 177.144 15.6836C177.51 16.3235 177.694 17.0681 177.694 17.9172C177.694 18.7705 177.506 19.517 177.132 20.1569C176.762 20.7928 176.233 21.2859 175.544 21.636C174.856 21.9861 174.039 22.1612 173.093 22.1612H169.942V19.8068H172.538C172.989 19.8068 173.365 19.7283 173.667 19.5714C173.973 19.4144 174.204 19.1951 174.361 18.9133C174.518 18.6276 174.597 18.2956 174.597 17.9172C174.597 17.5349 174.518 17.2049 174.361 16.9272C174.204 16.6455 173.973 16.4281 173.667 16.2752C173.361 16.1223 172.985 16.0458 172.538 16.0458H171.065V26.0007H168.077ZM179.167 26.0007V16.728H182.034V18.4183H182.131C182.3 17.8066 182.575 17.3518 182.958 17.054C183.34 16.7521 183.785 16.6012 184.292 16.6012C184.429 16.6012 184.57 16.6113 184.715 16.6314C184.859 16.6475 184.994 16.6736 185.119 16.7099V19.2756C184.978 19.2273 184.793 19.189 184.564 19.1609C184.338 19.1327 184.137 19.1186 183.96 19.1186C183.61 19.1186 183.294 19.1971 183.012 19.354C182.734 19.507 182.515 19.7223 182.354 20C182.197 20.2737 182.119 20.5956 182.119 20.9659V26.0007H179.167ZM190.175 26.1758C189.205 26.1758 188.368 25.9846 187.664 25.6023C186.963 25.2159 186.424 24.6665 186.046 23.9542C185.671 23.2378 185.484 22.3866 185.484 21.4006C185.484 20.4427 185.673 19.6056 186.052 18.8892C186.43 18.1688 186.963 17.6094 187.651 17.2109C188.34 16.8085 189.151 16.6072 190.084 16.6072C190.744 16.6072 191.348 16.7099 191.895 16.9151C192.443 17.1204 192.916 17.4242 193.314 17.8267C193.713 18.2292 194.022 18.7262 194.244 19.3178C194.465 19.9054 194.576 20.5795 194.576 21.3402V22.0767H186.517V20.3622H191.829C191.825 20.0483 191.751 19.7686 191.606 19.5231C191.461 19.2776 191.262 19.0864 191.008 18.9496C190.758 18.8087 190.471 18.7383 190.145 18.7383C189.815 18.7383 189.519 18.8127 189.257 18.9616C188.996 19.1065 188.788 19.3057 188.635 19.5593C188.483 19.8088 188.402 20.0926 188.394 20.4105V22.1552C188.394 22.5335 188.468 22.8655 188.617 23.1513C188.766 23.433 188.978 23.6523 189.251 23.8093C189.525 23.9663 189.851 24.0447 190.229 24.0447C190.491 24.0447 190.728 24.0085 190.942 23.9361C191.155 23.8636 191.338 23.757 191.491 23.6161C191.644 23.4752 191.759 23.3022 191.835 23.0969L194.546 23.1754C194.433 23.7831 194.185 24.3124 193.803 24.7631C193.425 25.2099 192.928 25.558 192.312 25.8075C191.696 26.053 190.984 26.1758 190.175 26.1758ZM204.179 19.5593L201.469 19.6317C201.44 19.4386 201.364 19.2675 201.239 19.1186C201.114 18.9657 200.951 18.8469 200.75 18.7624C200.553 18.6739 200.323 18.6296 200.062 18.6296C199.72 18.6296 199.428 18.698 199.187 18.8349C198.949 18.9717 198.832 19.1568 198.836 19.3903C198.832 19.5714 198.905 19.7283 199.054 19.8611C199.207 19.994 199.478 20.1006 199.869 20.1811L201.656 20.5192C202.581 20.6962 203.27 20.99 203.72 21.4006C204.175 21.8111 204.404 22.3544 204.408 23.0305C204.404 23.6664 204.215 24.2198 203.841 24.6907C203.471 25.1616 202.964 25.5278 202.32 25.7894C201.676 26.047 200.939 26.1758 200.11 26.1758C198.786 26.1758 197.742 25.9041 196.977 25.3608C196.216 24.8134 195.782 24.081 195.673 23.1633L198.589 23.0909C198.653 23.429 198.82 23.6865 199.09 23.8636C199.36 24.0407 199.704 24.1292 200.122 24.1292C200.501 24.1292 200.808 24.0588 201.046 23.918C201.283 23.7771 201.404 23.5899 201.408 23.3565C201.404 23.1472 201.312 22.9802 201.13 22.8555C200.949 22.7267 200.666 22.6261 200.279 22.5536L198.661 22.2457C197.732 22.0767 197.039 21.7648 196.585 21.31C196.13 20.8512 195.904 20.2676 195.908 19.5593C195.904 18.9395 196.069 18.4103 196.404 17.9716C196.738 17.5289 197.212 17.1908 197.828 16.9574C198.444 16.7239 199.17 16.6072 200.008 16.6072C201.263 16.6072 202.253 16.8708 202.978 17.3981C203.702 17.9213 204.103 18.6417 204.179 19.5593ZM213.957 19.5593L211.247 19.6317C211.219 19.4386 211.142 19.2675 211.017 19.1186C210.893 18.9657 210.73 18.8469 210.528 18.7624C210.331 18.6739 210.102 18.6296 209.84 18.6296C209.498 18.6296 209.206 18.698 208.965 18.8349C208.727 18.9717 208.611 19.1568 208.615 19.3903C208.611 19.5714 208.683 19.7283 208.832 19.8611C208.985 19.994 209.257 20.1006 209.647 20.1811L211.434 20.5192C212.36 20.6962 213.048 20.99 213.499 21.4006C213.953 21.8111 214.183 22.3544 214.187 23.0305C214.183 23.6664 213.994 24.2198 213.619 24.6907C213.249 25.1616 212.742 25.5278 212.098 25.7894C211.454 26.047 210.718 26.1758 209.889 26.1758C208.564 26.1758 207.52 25.9041 206.755 25.3608C205.995 24.8134 205.56 24.081 205.451 23.1633L208.367 23.0909C208.432 23.429 208.599 23.6865 208.868 23.8636C209.138 24.0407 209.482 24.1292 209.901 24.1292C210.279 24.1292 210.587 24.0588 210.824 23.918C211.062 23.7771 211.182 23.5899 211.186 23.3565C211.182 23.1472 211.09 22.9802 210.909 22.8555C210.728 22.7267 210.444 22.6261 210.058 22.5536L208.44 22.2457C207.51 22.0767 206.818 21.7648 206.363 21.31C205.908 20.8512 205.683 20.2676 205.687 19.5593C205.683 18.9395 205.848 18.4103 206.182 17.9716C206.516 17.5289 206.991 17.1908 207.607 16.9574C208.222 16.7239 208.949 16.6072 209.786 16.6072C211.042 16.6072 212.032 16.8708 212.756 17.3981C213.48 17.9213 213.881 18.6417 213.957 19.5593Z" fill="#3499CD"/>
</g>
<defs>
<filter id="filter0_d_1_56" x="2.39972" y="0.39972" width="39.202" height="39.202" filterUnits="userSpaceOnUse" color-interpolation-filters="sRGB">
<feFlood flood-opacity="0" result="BackgroundImageFix"/>
<feColorMatrix in="SourceAlpha" type="matrix" values="0 0 0 0 0 0 0 0 0 0 0 0 0 0 0 0 0 0 127 0" result="hardAlpha"/>
<feOffset/>
<feGaussianBlur stdDeviation="2.80014"/>
<feComposite in2="hardAlpha" operator="out"/>
<feColorMatrix type="matrix" values="0 0 0 0 0 0 0 0 0 0 0 0 0 0 0 0 0 0 0.25 0"/>
<feBlend mode="normal" in2="BackgroundImageFix" result="effect1_dropShadow_1_56"/>
<feBlend mode="normal" in="SourceGraphic" in2="effect1_dropShadow_1_56" result="shape"/>
</filter>
<filter id="filter1_d_1_56" x="36.2871" y="3.78642" width="184.429" height="32.4286" filterUnits="userSpaceOnUse" color-interpolation-filters="sRGB">
<feFlood flood-opacity="0" result="BackgroundImageFix"/>
<feColorMatrix in="SourceAlpha" type="matrix" values="0 0 0 0 0 0 0 0 0 0 0 0 0 0 0 0 0 0 127 0" result="hardAlpha"/>
<feOffset/>
<feGaussianBlur stdDeviation="2.85714"/>
<feComposite in2="hardAlpha" operator="out"/>
<feColorMatrix type="matrix" values="0 0 0 0 0 0 0 0 0 0 0 0 0 0 0 0 0 0 0.25 0"/>
<feBlend mode="normal" in2="BackgroundImageFix" result="effect1_dropShadow_1_56"/>
<feBlend mode="normal" in="SourceGraphic" in2="effect1_dropShadow_1_56" result="shape"/>
</filter>
<linearGradient id="paint0_linear_1_56" x1="111.501" y1="0" x2="111.501" y2="40.0014" gradientUnits="userSpaceOnUse">
<stop stop-color="#17455D"/>
<stop offset="1" stop-color="#0A1F29"/>
</linearGradient>
</defs>
</svg>
