<svg width="165" height="56" viewBox="0 0 165 56" fill="none" xmlns="http://www.w3.org/2000/svg">
<rect width="165" height="56" rx="8" fill="url(#paint0_linear_1_50)"/>
<rect x="1.05" y="1.05" width="162.9" height="53.9" rx="6.95" stroke="white" stroke-opacity="0.15" stroke-width="2.1"/>
<g filter="url(#filter0_d_1_50)">
<path d="M14.8428 27.9989C14.8428 34.7899 18.7894 40.6586 24.5122 43.4397L16.3282 21.0166C15.3762 23.1503 14.8428 25.5116 14.8428 27.9989Z" fill="#3499CD"/>
<path d="M43.5816 27.1331C43.5816 25.0127 42.82 23.5443 42.1667 22.4014C41.2971 20.9882 40.4819 19.7914 40.4819 18.3781C40.4819 16.801 41.678 15.3329 43.3629 15.3329C43.4389 15.3329 43.5111 15.3424 43.5852 15.3466C40.5328 12.5502 36.4661 10.8428 31.9995 10.8428C26.0057 10.8428 20.7324 13.918 17.6647 18.576C18.0672 18.588 18.4466 18.5965 18.7688 18.5965C20.5633 18.5965 23.3412 18.3788 23.3412 18.3788C24.266 18.3243 24.3751 19.6827 23.4512 19.792C23.4512 19.792 22.5218 19.9014 21.4875 19.9556L27.7353 38.5392L31.4899 27.2787L28.8169 19.9549C27.893 19.9007 27.0178 19.7914 27.0178 19.7914C26.0932 19.7372 26.2016 18.3236 27.1261 18.3781C27.1261 18.3781 29.9595 18.5959 31.6453 18.5959C33.4395 18.5959 36.2177 18.3781 36.2177 18.3781C37.1432 18.3236 37.2519 19.682 36.3277 19.7914C36.3277 19.7914 35.3963 19.9007 34.3641 19.9549L40.5642 38.3979L42.2754 32.6793C43.0172 30.3063 43.5816 28.6018 43.5816 27.1331Z" fill="#3499CD"/>
<path d="M32.3005 29.4996L27.1529 44.4576C28.6899 44.9094 30.3153 45.1565 31.9995 45.1565C33.9974 45.1565 35.9134 44.8111 37.6969 44.184C37.6508 44.1106 37.6091 44.0325 37.5748 43.9477L32.3005 29.4996Z" fill="#3499CD"/>
<path d="M47.0538 19.7675C47.1276 20.314 47.1694 20.9007 47.1694 21.5317C47.1694 23.2727 46.8442 25.2298 45.8649 27.677L40.6242 42.8289C45.7248 39.8545 49.1556 34.3286 49.1556 27.9992C49.1559 25.0163 48.3939 22.2114 47.0538 19.7675Z" fill="#3499CD"/>
<path d="M31.9995 8C20.9721 8 12 16.9714 12 27.9989C12 39.0276 20.9721 47.9987 31.9995 47.9987C43.0266 47.9987 52 39.0276 52 27.9989C51.9997 16.9714 43.0266 8 31.9995 8ZM31.9995 47.082C21.4777 47.082 12.917 38.5213 12.917 27.9989C12.917 17.4771 21.4774 8.91702 31.9995 8.91702C42.5209 8.91702 51.081 17.4771 51.081 27.9989C51.081 38.5213 42.5209 47.082 31.9995 47.082Z" fill="#3499CD"/>
</g>
<g filter="url(#filter1_d_1_50)">
<path d="M61.2784 24.5V12.8636H65.5398C66.3655 12.8636 67.0492 13 67.5909 13.2727C68.1326 13.5417 68.5379 13.9072 68.8068 14.3693C69.0757 14.8276 69.2102 15.3447 69.2102 15.9204C69.2102 16.4053 69.1212 16.8144 68.9432 17.1477C68.7651 17.4773 68.5265 17.7424 68.2273 17.9432C67.9318 18.1401 67.606 18.2841 67.25 18.375V18.4886C67.6363 18.5076 68.0132 18.6326 68.3807 18.8636C68.7519 19.0909 69.0587 19.4148 69.3011 19.8352C69.5435 20.2557 69.6648 20.767 69.6648 21.3693C69.6648 21.964 69.5246 22.4981 69.2443 22.9716C68.9678 23.4413 68.5398 23.8144 67.9602 24.0909C67.3807 24.3636 66.6401 24.5 65.7386 24.5H61.2784ZM63.0341 22.9943H65.5682C66.4091 22.9943 67.0113 22.8314 67.375 22.5057C67.7386 22.1799 67.9204 21.7727 67.9204 21.2841C67.9204 20.9167 67.8276 20.5795 67.642 20.2727C67.4564 19.9659 67.1913 19.7216 66.8466 19.5398C66.5057 19.3579 66.1004 19.267 65.6307 19.267H63.0341V22.9943ZM63.0341 17.8977H65.3863C65.7803 17.8977 66.1345 17.822 66.4488 17.6704C66.767 17.5189 67.0189 17.3068 67.2045 17.0341C67.3939 16.7576 67.4886 16.4318 67.4886 16.0568C67.4886 15.5758 67.3201 15.1723 66.9829 14.8466C66.6458 14.5208 66.1288 14.3579 65.4318 14.3579H63.0341V17.8977ZM77.1392 20.8807V15.7727H78.8437V24.5H77.1733V22.9886H77.0824C76.8816 23.4545 76.5596 23.8428 76.1165 24.1534C75.6771 24.4602 75.1297 24.6136 74.4744 24.6136C73.9138 24.6136 73.4176 24.4905 72.9858 24.2443C72.5577 23.9943 72.2206 23.625 71.9744 23.1364C71.732 22.6477 71.6108 22.0436 71.6108 21.3239V15.7727H73.3096V21.1193C73.3096 21.714 73.4744 22.1875 73.804 22.5398C74.1335 22.892 74.5615 23.0682 75.088 23.0682C75.4062 23.0682 75.7225 22.9886 76.0369 22.8295C76.3551 22.6704 76.6184 22.4299 76.8267 22.1079C77.0388 21.786 77.143 21.3769 77.1392 20.8807ZM81.1264 24.5V15.7727H82.8253V24.5H81.1264ZM81.9844 14.4261C81.6889 14.4261 81.4351 14.3276 81.223 14.1307C81.0147 13.9299 80.9105 13.6913 80.9105 13.4148C80.9105 13.1345 81.0147 12.8958 81.223 12.6989C81.4351 12.4981 81.6889 12.3977 81.9844 12.3977C82.2798 12.3977 82.5317 12.4981 82.74 12.6989C82.9522 12.8958 83.0582 13.1345 83.0582 13.4148C83.0582 13.6913 82.9522 13.9299 82.74 14.1307C82.5317 14.3276 82.2798 14.4261 81.9844 14.4261ZM86.8096 12.8636V24.5H85.1108V12.8636H86.8096ZM93.169 15.7727V17.1364H88.402V15.7727H93.169ZM89.6804 13.6818H91.3792V21.9375C91.3792 22.267 91.4285 22.5151 91.527 22.6818C91.6254 22.8447 91.7523 22.9564 91.9076 23.017C92.0667 23.0739 92.2391 23.1023 92.4247 23.1023C92.5611 23.1023 92.6804 23.0928 92.7826 23.0739C92.8849 23.0549 92.9645 23.0398 93.0213 23.0284L93.3281 24.4318C93.2296 24.4697 93.0895 24.5076 92.9076 24.5454C92.7258 24.5871 92.4986 24.6098 92.2258 24.6136C91.7789 24.6212 91.3622 24.5417 90.9758 24.375C90.5895 24.2083 90.277 23.9508 90.0383 23.6023C89.7997 23.2538 89.6804 22.8163 89.6804 22.2898V13.6818ZM101.175 24.5L98.6065 15.7727H100.362L102.072 22.1818H102.158L103.874 15.7727H105.629L107.334 22.1534H107.419L109.118 15.7727H110.874L108.311 24.5H106.578L104.805 18.1989H104.675L102.902 24.5H101.175ZM112.486 24.5V15.7727H114.185V24.5H112.486ZM113.344 14.4261C113.048 14.4261 112.794 14.3276 112.582 14.1307C112.374 13.9299 112.27 13.6913 112.27 13.4148C112.27 13.1345 112.374 12.8958 112.582 12.6989C112.794 12.4981 113.048 12.3977 113.344 12.3977C113.639 12.3977 113.891 12.4981 114.099 12.6989C114.312 12.8958 114.418 13.1345 114.418 13.4148C114.418 13.6913 114.312 13.9299 114.099 14.1307C113.891 14.3276 113.639 14.4261 113.344 14.4261ZM120.544 15.7727V17.1364H115.777V15.7727H120.544ZM117.055 13.6818H118.754V21.9375C118.754 22.267 118.803 22.5151 118.902 22.6818C119 22.8447 119.127 22.9564 119.283 23.017C119.442 23.0739 119.614 23.1023 119.8 23.1023C119.936 23.1023 120.055 23.0928 120.158 23.0739C120.26 23.0549 120.339 23.0398 120.396 23.0284L120.703 24.4318C120.605 24.4697 120.464 24.5076 120.283 24.5454C120.101 24.5871 119.874 24.6098 119.601 24.6136C119.154 24.6212 118.737 24.5417 118.351 24.375C117.964 24.2083 117.652 23.9508 117.413 23.6023C117.175 23.2538 117.055 22.8163 117.055 22.2898V13.6818ZM124.31 19.3182V24.5H122.611V12.8636H124.287V17.1932H124.395C124.599 16.7235 124.912 16.3504 125.332 16.0739C125.753 15.7973 126.302 15.6591 126.98 15.6591C127.579 15.6591 128.101 15.7822 128.548 16.0284C128.999 16.2746 129.348 16.642 129.594 17.1307C129.844 17.6155 129.969 18.2216 129.969 18.9489V24.5H128.27V19.1534C128.27 18.5133 128.105 18.017 127.776 17.6648C127.446 17.3087 126.988 17.1307 126.401 17.1307C125.999 17.1307 125.639 17.2159 125.321 17.3864C125.007 17.5568 124.758 17.8068 124.577 18.1364C124.399 18.4621 124.31 18.8561 124.31 19.3182Z" fill="#E8E8E8"/>
<path d="M63.8998 43.5L60.3018 31.1364H63.604L65.4694 39.2379H65.5721L67.7031 31.1364H70.3956L72.5266 39.256H72.6292L74.5007 31.1364H77.7969L74.2049 43.5H71.3253L69.0976 36.0021H69.001L66.7734 43.5H63.8998ZM82.3306 43.6751C81.3566 43.6751 80.5195 43.4758 79.8192 43.0774C79.123 42.6749 78.5857 42.1155 78.2074 41.3991C77.8331 40.6787 77.6459 39.8436 77.6459 38.8938C77.6459 37.94 77.8331 37.1049 78.2074 36.3885C78.5857 35.6681 79.123 35.1087 79.8192 34.7102C80.5195 34.3078 81.3566 34.1065 82.3306 34.1065C83.3045 34.1065 84.1397 34.3078 84.8359 34.7102C85.5362 35.1087 86.0735 35.6681 86.4478 36.3885C86.8261 37.1049 87.0152 37.94 87.0152 38.8938C87.0152 39.8436 86.8261 40.6787 86.4478 41.3991C86.0735 42.1155 85.5362 42.6749 84.8359 43.0774C84.1397 43.4758 83.3045 43.6751 82.3306 43.6751ZM82.3487 41.4474C82.7029 41.4474 83.0027 41.3388 83.2482 41.1214C83.4937 40.9041 83.6808 40.6023 83.8096 40.2159C83.9424 39.8295 84.0089 39.3828 84.0089 38.8757C84.0089 38.3605 83.9424 37.9098 83.8096 37.5234C83.6808 37.1371 83.4937 36.8352 83.2482 36.6179C83.0027 36.4006 82.7029 36.2919 82.3487 36.2919C81.9825 36.2919 81.6726 36.4006 81.419 36.6179C81.1695 36.8352 80.9783 37.1371 80.8455 37.5234C80.7167 37.9098 80.6523 38.3605 80.6523 38.8757C80.6523 39.3828 80.7167 39.8295 80.8455 40.2159C80.9783 40.6023 81.1695 40.9041 81.419 41.1214C81.6726 41.3388 81.9825 41.4474 82.3487 41.4474ZM88.5275 43.5V34.2273H91.395V35.9176H91.4916C91.6607 35.3059 91.9364 34.8511 92.3187 34.5533C92.701 34.2514 93.1457 34.1005 93.6529 34.1005C93.7897 34.1005 93.9306 34.1105 94.0754 34.1307C94.2203 34.1468 94.3551 34.1729 94.4799 34.2092V36.7748C94.339 36.7266 94.1539 36.6883 93.9245 36.6601C93.6991 36.632 93.4979 36.6179 93.3208 36.6179C92.9707 36.6179 92.6547 36.6964 92.373 36.8533C92.0953 37.0063 91.876 37.2216 91.715 37.4993C91.558 37.773 91.4796 38.0949 91.4796 38.4652V43.5H88.5275ZM98.588 43.6328C97.9039 43.6328 97.2821 43.4557 96.7226 43.1016C96.1632 42.7474 95.7165 42.2161 95.3824 41.5078C95.0484 40.7995 94.8814 39.9201 94.8814 38.8697C94.8814 37.779 95.0544 36.8815 95.4005 36.1772C95.7467 35.4729 96.1994 34.9517 96.7589 34.6136C97.3223 34.2756 97.928 34.1065 98.576 34.1065C99.0629 34.1065 99.4795 34.191 99.8256 34.3601C100.172 34.5251 100.457 34.7384 100.683 35C100.908 35.2616 101.079 35.5333 101.196 35.815H101.256V31.1364H104.208V43.5H101.287V41.9968H101.196C101.071 42.2825 100.894 42.5502 100.665 42.7997C100.435 43.0492 100.148 43.2505 99.8015 43.4034C99.4594 43.5563 99.0549 43.6328 98.588 43.6328ZM99.6143 41.3327C99.9725 41.3327 100.278 41.2321 100.532 41.0309C100.785 40.8256 100.981 40.5379 101.118 40.1676C101.254 39.7973 101.323 39.3627 101.323 38.8636C101.323 38.3565 101.254 37.9199 101.118 37.5536C100.985 37.1874 100.79 36.9056 100.532 36.7084C100.278 36.5112 99.9725 36.4126 99.6143 36.4126C99.2481 36.4126 98.9382 36.5132 98.6846 36.7145C98.4311 36.9157 98.2379 37.1994 98.1051 37.5657C97.9763 37.9319 97.9119 38.3646 97.9119 38.8636C97.9119 39.3627 97.9783 39.7973 98.1111 40.1676C98.2439 40.5379 98.4351 40.8256 98.6846 41.0309C98.9382 41.2321 99.2481 41.3327 99.6143 41.3327ZM106.075 43.5V31.1364H111.183C112.108 31.1364 112.907 31.3175 113.579 31.6797C114.255 32.0379 114.777 32.5389 115.143 33.1829C115.509 33.8228 115.692 34.5673 115.692 35.4165C115.692 36.2698 115.505 37.0163 115.131 37.6562C114.76 38.2921 114.231 38.7851 113.543 39.1353C112.855 39.4854 112.038 39.6605 111.092 39.6605H107.941V37.3061H110.537C110.987 37.3061 111.364 37.2276 111.666 37.0707C111.971 36.9137 112.203 36.6944 112.36 36.4126C112.517 36.1269 112.595 35.7949 112.595 35.4165C112.595 35.0342 112.517 34.7042 112.36 34.4265C112.203 34.1448 111.971 33.9274 111.666 33.7745C111.36 33.6216 110.983 33.5451 110.537 33.5451H109.064V43.5H106.075ZM117.165 43.5V34.2273H120.033V35.9176H120.129C120.298 35.3059 120.574 34.8511 120.956 34.5533C121.339 34.2514 121.783 34.1005 122.291 34.1005C122.427 34.1005 122.568 34.1105 122.713 34.1307C122.858 34.1468 122.993 34.1729 123.118 34.2092V36.7748C122.977 36.7266 122.792 36.6883 122.562 36.6601C122.337 36.632 122.136 36.6179 121.959 36.6179C121.608 36.6179 121.292 36.6964 121.011 36.8533C120.733 37.0063 120.514 37.2216 120.353 37.4993C120.196 37.773 120.117 38.0949 120.117 38.4652V43.5H117.165ZM128.174 43.6751C127.204 43.6751 126.366 43.4839 125.662 43.1016C124.962 42.7152 124.423 42.1658 124.044 41.4535C123.67 40.7371 123.483 39.8859 123.483 38.8998C123.483 37.942 123.672 37.1049 124.05 36.3885C124.429 35.6681 124.962 35.1087 125.65 34.7102C126.338 34.3078 127.149 34.1065 128.083 34.1065C128.743 34.1065 129.347 34.2092 129.894 34.4144C130.441 34.6197 130.914 34.9235 131.313 35.326C131.711 35.7284 132.021 36.2255 132.242 36.8171C132.464 37.4047 132.574 38.0788 132.574 38.8395V39.576H124.515V37.8615H129.828C129.824 37.5476 129.749 37.2679 129.604 37.0224C129.459 36.7769 129.26 36.5857 129.007 36.4489C128.757 36.308 128.469 36.2376 128.143 36.2376C127.813 36.2376 127.518 36.312 127.256 36.4609C126.994 36.6058 126.787 36.805 126.634 37.0586C126.481 37.3081 126.401 37.5918 126.393 37.9098V39.6545C126.393 40.0328 126.467 40.3648 126.616 40.6506C126.765 40.9323 126.976 41.1516 127.25 41.3086C127.524 41.4655 127.85 41.544 128.228 41.544C128.489 41.544 128.727 41.5078 128.94 41.4354C129.154 41.3629 129.337 41.2563 129.49 41.1154C129.643 40.9745 129.757 40.8015 129.834 40.5962L132.544 40.6747C132.432 41.2824 132.184 41.8117 131.802 42.2624C131.423 42.7092 130.926 43.0573 130.311 43.3068C129.695 43.5523 128.982 43.6751 128.174 43.6751ZM142.178 37.0586L139.467 37.131C139.439 36.9378 139.362 36.7668 139.238 36.6179C139.113 36.465 138.95 36.3462 138.749 36.2617C138.552 36.1732 138.322 36.1289 138.061 36.1289C137.718 36.1289 137.427 36.1973 137.185 36.3342C136.948 36.471 136.831 36.6561 136.835 36.8895C136.831 37.0707 136.903 37.2276 137.052 37.3604C137.205 37.4932 137.477 37.5999 137.867 37.6804L139.654 38.0185C140.58 38.1955 141.268 38.4893 141.719 38.8998C142.174 39.3104 142.403 39.8537 142.407 40.5298C142.403 41.1657 142.214 41.7191 141.84 42.19C141.469 42.6609 140.962 43.0271 140.318 43.2887C139.674 43.5463 138.938 43.6751 138.109 43.6751C136.785 43.6751 135.74 43.4034 134.976 42.8601C134.215 42.3127 133.78 41.5802 133.672 40.6626L136.587 40.5902C136.652 40.9283 136.819 41.1858 137.089 41.3629C137.358 41.54 137.702 41.6285 138.121 41.6285C138.499 41.6285 138.807 41.5581 139.045 41.4172C139.282 41.2764 139.403 41.0892 139.407 40.8558C139.403 40.6465 139.31 40.4795 139.129 40.3547C138.948 40.226 138.664 40.1253 138.278 40.0529L136.66 39.745C135.73 39.576 135.038 39.2641 134.583 38.8093C134.128 38.3505 133.903 37.7669 133.907 37.0586C133.903 36.4388 134.068 35.9096 134.402 35.4709C134.736 35.0282 135.211 34.6901 135.827 34.4567C136.443 34.2232 137.169 34.1065 138.006 34.1065C139.262 34.1065 140.252 34.3701 140.976 34.8974C141.701 35.4206 142.101 36.141 142.178 37.0586ZM151.956 37.0586L149.245 37.131C149.217 36.9378 149.141 36.7668 149.016 36.6179C148.891 36.465 148.728 36.3462 148.527 36.2617C148.33 36.1732 148.1 36.1289 147.839 36.1289C147.497 36.1289 147.205 36.1973 146.963 36.3342C146.726 36.471 146.609 36.6561 146.613 36.8895C146.609 37.0707 146.682 37.2276 146.831 37.3604C146.984 37.4932 147.255 37.5999 147.646 37.6804L149.433 38.0185C150.358 38.1955 151.046 38.4893 151.497 38.8998C151.952 39.3104 152.181 39.8537 152.185 40.5298C152.181 41.1657 151.992 41.7191 151.618 42.19C151.248 42.6609 150.741 43.0271 150.097 43.2887C149.453 43.5463 148.716 43.6751 147.887 43.6751C146.563 43.6751 145.519 43.4034 144.754 42.8601C143.993 42.3127 143.559 41.5802 143.45 40.6626L146.366 40.5902C146.43 40.9283 146.597 41.1858 146.867 41.3629C147.137 41.54 147.481 41.6285 147.899 41.6285C148.278 41.6285 148.585 41.5581 148.823 41.4172C149.06 41.2764 149.181 41.0892 149.185 40.8558C149.181 40.6465 149.088 40.4795 148.907 40.3547C148.726 40.226 148.443 40.1253 148.056 40.0529L146.438 39.745C145.509 39.576 144.816 39.2641 144.362 38.8093C143.907 38.3505 143.681 37.7669 143.685 37.0586C143.681 36.4388 143.846 35.9096 144.18 35.4709C144.514 35.0282 144.989 34.6901 145.605 34.4567C146.221 34.2232 146.947 34.1065 147.784 34.1065C149.04 34.1065 150.03 34.3701 150.755 34.8974C151.479 35.4206 151.88 36.141 151.956 37.0586Z" fill="#3499CD"/>
</g>
<defs>
<filter id="filter0_d_1_50" x="6.28571" y="2.28571" width="51.4286" height="51.4286" filterUnits="userSpaceOnUse" color-interpolation-filters="sRGB">
<feFlood flood-opacity="0" result="BackgroundImageFix"/>
<feColorMatrix in="SourceAlpha" type="matrix" values="0 0 0 0 0 0 0 0 0 0 0 0 0 0 0 0 0 0 127 0" result="hardAlpha"/>
<feOffset/>
<feGaussianBlur stdDeviation="2.85714"/>
<feComposite in2="hardAlpha" operator="out"/>
<feColorMatrix type="matrix" values="0 0 0 0 0 0 0 0 0 0 0 0 0 0 0 0 0 0 0.25 0"/>
<feBlend mode="normal" in2="BackgroundImageFix" result="effect1_dropShadow_1_50"/>
<feBlend mode="normal" in="SourceGraphic" in2="effect1_dropShadow_1_50" result="shape"/>
</filter>
<filter id="filter1_d_1_50" x="54.4" y="3.9" width="104.2" height="48.2" filterUnits="userSpaceOnUse" color-interpolation-filters="sRGB">
<feFlood flood-opacity="0" result="BackgroundImageFix"/>
<feColorMatrix in="SourceAlpha" type="matrix" values="0 0 0 0 0 0 0 0 0 0 0 0 0 0 0 0 0 0 127 0" result="hardAlpha"/>
<feOffset/>
<feGaussianBlur stdDeviation="2.8"/>
<feComposite in2="hardAlpha" operator="out"/>
<feColorMatrix type="matrix" values="0 0 0 0 0 0 0 0 0 0 0 0 0 0 0 0 0 0 0.25 0"/>
<feBlend mode="normal" in2="BackgroundImageFix" result="effect1_dropShadow_1_50"/>
<feBlend mode="normal" in="SourceGraphic" in2="effect1_dropShadow_1_50" result="shape"/>
</filter>
<linearGradient id="paint0_linear_1_50" x1="82.5" y1="0" x2="82.5" y2="56" gradientUnits="userSpaceOnUse">
<stop stop-color="#17455D"/>
<stop offset="1" stop-color="#0A1F29"/>
</linearGradient>
</defs>
</svg>
