<svg width="56" height="56" viewBox="0 0 56 56" fill="none" xmlns="http://www.w3.org/2000/svg">
<rect width="56" height="56" rx="8.4" fill="url(#paint0_linear_1_62)"/>
<rect x="1.05" y="1.05" width="53.9" height="53.9" rx="7.35" stroke="white" stroke-opacity="0.15" stroke-width="2.1"/>
<g filter="url(#filter0_d_1_62)">
<path d="M10.8428 27.9989C10.8428 34.7899 14.7894 40.6586 20.5122 43.4397L12.3282 21.0166C11.3762 23.1503 10.8428 25.5116 10.8428 27.9989Z" fill="#3499CD"/>
<path d="M39.5816 27.1331C39.5816 25.0127 38.82 23.5443 38.1667 22.4014C37.2971 20.9882 36.4819 19.7914 36.4819 18.3781C36.4819 16.801 37.678 15.3329 39.3629 15.3329C39.4389 15.3329 39.5111 15.3424 39.5852 15.3466C36.5328 12.5502 32.4661 10.8428 27.9995 10.8428C22.0057 10.8428 16.7324 13.918 13.6647 18.576C14.0672 18.588 14.4466 18.5965 14.7688 18.5965C16.5633 18.5965 19.3412 18.3788 19.3412 18.3788C20.266 18.3243 20.3751 19.6827 19.4512 19.792C19.4512 19.792 18.5218 19.9014 17.4875 19.9556L23.7353 38.5392L27.4899 27.2787L24.8169 19.9549C23.893 19.9007 23.0178 19.7914 23.0178 19.7914C22.0932 19.7372 22.2016 18.3236 23.1261 18.3781C23.1261 18.3781 25.9595 18.5959 27.6453 18.5959C29.4395 18.5959 32.2177 18.3781 32.2177 18.3781C33.1432 18.3236 33.2519 19.682 32.3277 19.7914C32.3277 19.7914 31.3963 19.9007 30.364 19.9549L36.5642 38.3979L38.2754 32.6793C39.0172 30.3063 39.5816 28.6018 39.5816 27.1331Z" fill="#3499CD"/>
<path d="M28.3005 29.4996L23.1529 44.4576C24.6899 44.9094 26.3153 45.1565 27.9995 45.1565C29.9974 45.1565 31.9134 44.8111 33.6969 44.184C33.6508 44.1106 33.609 44.0325 33.5748 43.9477L28.3005 29.4996Z" fill="#3499CD"/>
<path d="M43.0538 19.7675C43.1276 20.314 43.1694 20.9007 43.1694 21.5317C43.1694 23.2727 42.8442 25.2298 41.8649 27.677L36.6242 42.8289C41.7248 39.8545 45.1556 34.3286 45.1556 27.9992C45.1559 25.0163 44.3939 22.2114 43.0538 19.7675Z" fill="#3499CD"/>
<path d="M27.9995 8C16.9721 8 8 16.9714 8 27.9989C8 39.0276 16.9721 47.9987 27.9995 47.9987C39.0266 47.9987 48 39.0276 48 27.9989C47.9997 16.9714 39.0266 8 27.9995 8ZM27.9995 47.082C17.4777 47.082 8.91702 38.5213 8.91702 27.9989C8.91702 17.4771 17.4774 8.91702 27.9995 8.91702C38.5209 8.91702 47.081 17.4771 47.081 27.9989C47.081 38.5213 38.5209 47.082 27.9995 47.082Z" fill="#3499CD"/>
</g>
<defs>
<filter id="filter0_d_1_62" x="2.28571" y="2.28571" width="51.4286" height="51.4286" filterUnits="userSpaceOnUse" color-interpolation-filters="sRGB">
<feFlood flood-opacity="0" result="BackgroundImageFix"/>
<feColorMatrix in="SourceAlpha" type="matrix" values="0 0 0 0 0 0 0 0 0 0 0 0 0 0 0 0 0 0 127 0" result="hardAlpha"/>
<feOffset/>
<feGaussianBlur stdDeviation="2.85714"/>
<feComposite in2="hardAlpha" operator="out"/>
<feColorMatrix type="matrix" values="0 0 0 0 0 0 0 0 0 0 0 0 0 0 0 0 0 0 0.25 0"/>
<feBlend mode="normal" in2="BackgroundImageFix" result="effect1_dropShadow_1_62"/>
<feBlend mode="normal" in="SourceGraphic" in2="effect1_dropShadow_1_62" result="shape"/>
</filter>
<linearGradient id="paint0_linear_1_62" x1="28" y1="0" x2="28" y2="56" gradientUnits="userSpaceOnUse">
<stop stop-color="#17455D"/>
<stop offset="1" stop-color="#0A1F29"/>
</linearGradient>
</defs>
</svg>
