<svg width="220" height="40" viewBox="0 0 220 40" fill="none" xmlns="http://www.w3.org/2000/svg">
<rect width="220.001" height="40.0014" rx="8" fill="url(#paint0_linear_1_56)"/>
<rect x="1.07143" y="1.07143" width="217.858" height="37.8585" rx="6.92857" stroke="white" stroke-opacity="0.15" stroke-width="2.14286"/>
<g filter="url(#filter0_d_1_56)">
<path d="M28.8308 16.8558L31.1535 12.8323C31.2845 12.6067 31.2053 12.3202 30.9828 12.1891C30.7603 12.0581 30.4707 12.1343 30.3427 12.3598L27.9895 16.4351C26.1942 15.6152 24.1733 15.158 22 15.158C19.8267 15.158 17.8058 15.6152 16.0104 16.4351L13.6573 12.3598C13.5262 12.1343 13.2397 12.0581 13.0141 12.1891C12.7886 12.3202 12.7124 12.6067 12.8434 12.8323L15.1661 16.8558C11.1609 19.026 8.44806 23.08 8 27.8259H36C35.5519 23.08 32.8391 19.026 28.8308 16.8558ZM15.5715 23.8939C14.9223 23.8939 14.398 23.3665 14.398 22.7203C14.398 22.0711 14.9253 21.5468 15.5715 21.5468C16.2208 21.5468 16.745 22.0741 16.745 22.7203C16.7481 23.3665 16.2208 23.8939 15.5715 23.8939ZM28.4254 23.8939C27.7762 23.8939 27.2519 23.3665 27.2519 22.7203C27.2519 22.0711 27.7792 21.5468 28.4254 21.5468C29.0747 21.5468 29.599 22.0741 29.599 22.7203C29.602 23.3665 29.0747 23.8939 28.4254 23.8939Z" fill="#32DE84"/>
</g>
<g filter="url(#filter1_d_1_56)">
<path d="M44.4041 26.5007H42.424L46.8732 14.1371H49.0284L53.4776 26.5007H51.4975L48.0021 16.3828H47.9055L44.4041 26.5007ZM44.7361 21.6591H51.1594V23.2287H44.7361V21.6591ZM61.8886 17.228L58.526 26.5007H56.5942L53.2256 17.228H55.1634L57.5118 24.3636H57.6084L59.9507 17.228H61.8886ZM66.0178 26.706C65.4302 26.706 64.899 26.5973 64.4241 26.38C63.9492 26.1586 63.5729 25.8386 63.2952 25.4201C63.0215 25.0015 62.8846 24.4884 62.8846 23.8807C62.8846 23.3575 62.9853 22.9268 63.1865 22.5888C63.3877 22.2507 63.6594 21.9831 64.0015 21.7859C64.3436 21.5886 64.7259 21.4397 65.1485 21.3391C65.5711 21.2385 66.0017 21.162 66.4404 21.1097C66.9958 21.0453 67.4466 20.993 67.7927 20.9528C68.1388 20.9085 68.3903 20.8381 68.5473 20.7415C68.7042 20.6449 68.7827 20.4879 68.7827 20.2706V20.2283C68.7827 19.7011 68.6338 19.2926 68.336 19.0028C68.0422 18.7131 67.6035 18.5682 67.0199 18.5682C66.4122 18.5682 65.9333 18.703 65.5832 18.9726C65.237 19.2383 64.9976 19.5341 64.8648 19.8601L63.1684 19.4737C63.3696 18.9103 63.6634 18.4555 64.0498 18.1094C64.4402 17.7592 64.8889 17.5057 65.396 17.3487C65.9031 17.1877 66.4364 17.1072 66.9958 17.1072C67.3661 17.1072 67.7585 17.1515 68.173 17.24C68.5916 17.3246 68.9819 17.4815 69.3442 17.7109C69.7104 17.9403 70.0102 18.2683 70.2437 18.6949C70.4771 19.1175 70.5938 19.6669 70.5938 20.343V26.5007H68.831V25.2329H68.7586C68.6419 25.4664 68.4668 25.6958 68.2334 25.9212C67.9999 26.1465 67.7001 26.3337 67.3339 26.4826C66.9676 26.6315 66.5289 26.706 66.0178 26.706ZM66.4102 25.2571C66.9093 25.2571 67.3359 25.1585 67.69 24.9613C68.0482 24.7641 68.3199 24.5065 68.505 24.1886C68.6942 23.8666 68.7888 23.5225 68.7888 23.1562V21.9609C68.7244 22.0253 68.5996 22.0857 68.4145 22.142C68.2334 22.1944 68.0261 22.2406 67.7927 22.2809C67.5592 22.3171 67.3319 22.3513 67.1105 22.3835C66.8891 22.4117 66.704 22.4358 66.5551 22.456C66.205 22.5002 65.885 22.5747 65.5952 22.6793C65.3095 22.784 65.0801 22.9349 64.907 23.1321C64.738 23.3253 64.6535 23.5828 64.6535 23.9048C64.6535 24.3515 64.8185 24.6896 65.1485 24.919C65.4785 25.1444 65.8991 25.2571 66.4102 25.2571ZM72.998 26.5007V17.228H74.8031V26.5007H72.998ZM73.9096 15.7972C73.5957 15.7972 73.326 15.6926 73.1006 15.4833C72.8793 15.27 72.7686 15.0164 72.7686 14.7226C72.7686 14.4248 72.8793 14.1713 73.1006 13.962C73.326 13.7487 73.5957 13.642 73.9096 13.642C74.2235 13.642 74.4911 13.7487 74.7125 13.962C74.9379 14.1713 75.0506 14.4248 75.0506 14.7226C75.0506 15.0164 74.9379 15.27 74.7125 15.4833C74.4911 15.6926 74.2235 15.7972 73.9096 15.7972ZM79.0365 14.1371V26.5007H77.2314V14.1371H79.0365ZM84.1633 26.706C83.5757 26.706 83.0445 26.5973 82.5696 26.38C82.0947 26.1586 81.7184 25.8386 81.4407 25.4201C81.167 25.0015 81.0301 24.4884 81.0301 23.8807C81.0301 23.3575 81.1308 22.9268 81.332 22.5888C81.5332 22.2507 81.8049 21.9831 82.147 21.7859C82.4891 21.5886 82.8714 21.4397 83.294 21.3391C83.7166 21.2385 84.1472 21.162 84.5859 21.1097C85.1413 21.0453 85.5921 20.993 85.9382 20.9528C86.2843 20.9085 86.5358 20.8381 86.6928 20.7415C86.8497 20.6449 86.9282 20.4879 86.9282 20.2706V20.2283C86.9282 19.7011 86.7793 19.2926 86.4815 19.0028C86.1877 18.7131 85.749 18.5682 85.1654 18.5682C84.5577 18.5682 84.0788 18.703 83.7287 18.9726C83.3825 19.2383 83.1431 19.5341 83.0103 19.8601L81.3139 19.4737C81.5151 18.9103 81.8089 18.4555 82.1953 18.1094C82.5857 17.7592 83.0344 17.5057 83.5415 17.3487C84.0486 17.1877 84.5819 17.1072 85.1413 17.1072C85.5116 17.1072 85.904 17.1515 86.3185 17.24C86.7371 17.3246 87.1274 17.4815 87.4897 17.7109C87.8559 17.9403 88.1557 18.2683 88.3892 18.6949C88.6226 19.1175 88.7393 19.6669 88.7393 20.343V26.5007H86.9765V25.2329H86.9041C86.7874 25.4664 86.6123 25.6958 86.3789 25.9212C86.1454 26.1465 85.8456 26.3337 85.4794 26.4826C85.1131 26.6315 84.6744 26.706 84.1633 26.706ZM84.5557 25.2571C85.0548 25.2571 85.4814 25.1585 85.8355 24.9613C86.1937 24.7641 86.4654 24.5065 86.6505 24.1886C86.8397 23.8666 86.9343 23.5225 86.9343 23.1562V21.9609C86.8699 22.0253 86.7451 22.0857 86.56 22.142C86.3789 22.1944 86.1716 22.2406 85.9382 22.2809C85.7047 22.3171 85.4774 22.3513 85.256 22.3835C85.0346 22.4117 84.8495 22.4358 84.7006 22.456C84.3505 22.5002 84.0305 22.5747 83.7407 22.6793C83.455 22.784 83.2256 22.9349 83.0525 23.1321C82.8835 23.3253 82.799 23.5828 82.799 23.9048C82.799 24.3515 82.964 24.6896 83.294 24.919C83.624 25.1444 84.0446 25.2571 84.5557 25.2571ZM91.2884 26.5007V14.1371H93.0934V18.7312H93.2021C93.3067 18.538 93.4577 18.3146 93.6549 18.0611C93.8521 17.8075 94.1258 17.5862 94.4759 17.397C94.826 17.2038 95.2889 17.1072 95.8644 17.1072C96.613 17.1072 97.2811 17.2964 97.8687 17.6747C98.4563 18.053 98.9171 18.5984 99.2511 19.3107C99.5892 20.0231 99.7582 20.8803 99.7582 21.8824C99.7582 22.8846 99.5912 23.7438 99.2571 24.4602C98.9231 25.1726 98.4643 25.7219 97.8807 26.1083C97.2972 26.4906 96.6311 26.6818 95.8825 26.6818C95.3191 26.6818 94.8582 26.5872 94.5 26.3981C94.1459 26.2089 93.8682 25.9876 93.667 25.734C93.4657 25.4805 93.3108 25.2551 93.2021 25.0579H93.0512V26.5007H91.2884ZM93.0572 21.8643C93.0572 22.5163 93.1518 23.0878 93.341 23.5788C93.5301 24.0698 93.8038 24.4542 94.162 24.7319C94.5202 25.0056 94.9589 25.1424 95.478 25.1424C96.0173 25.1424 96.4681 24.9995 96.8303 24.7138C97.1925 24.424 97.4662 24.0316 97.6513 23.5366C97.8405 23.0415 97.9351 22.4841 97.9351 21.8643C97.9351 21.2526 97.8425 20.7032 97.6574 20.2163C97.4763 19.7293 97.2026 19.3449 96.8363 19.0632C96.4741 18.7815 96.0214 18.6406 95.478 18.6406C94.9548 18.6406 94.5121 18.7754 94.1499 19.0451C93.7917 19.3147 93.5201 19.691 93.3349 20.174C93.1498 20.6569 93.0572 21.2204 93.0572 21.8643ZM103.59 14.1371V26.5007H101.785V14.1371H103.59ZM110.015 26.6878C109.101 26.6878 108.315 26.4926 107.655 26.1023C106.999 25.7078 106.491 25.1545 106.133 24.4421C105.779 23.7257 105.602 22.8866 105.602 21.9247C105.602 20.9749 105.779 20.1378 106.133 19.4133C106.491 18.6889 106.99 18.1234 107.63 17.717C108.274 17.3105 109.027 17.1072 109.888 17.1072C110.411 17.1072 110.918 17.1938 111.409 17.3668C111.9 17.5399 112.341 17.8115 112.732 18.1818C113.122 18.5521 113.43 19.033 113.655 19.6246C113.881 20.2122 113.993 20.9266 113.993 21.7677V22.4077H106.622V21.0554H112.224C112.224 20.5805 112.128 20.1599 111.935 19.7937C111.742 19.4234 111.47 19.1316 111.12 18.9183C110.774 18.705 110.367 18.5984 109.9 18.5984C109.393 18.5984 108.95 18.7231 108.572 18.9726C108.198 19.2181 107.908 19.5401 107.703 19.9386C107.502 20.333 107.401 20.7616 107.401 21.2244V22.2809C107.401 22.9007 107.51 23.4279 107.727 23.8626C107.948 24.2972 108.256 24.6292 108.651 24.8587C109.045 25.084 109.506 25.1967 110.033 25.1967C110.375 25.1967 110.687 25.1484 110.969 25.0518C111.251 24.9512 111.494 24.8023 111.699 24.6051C111.905 24.4079 112.061 24.1644 112.17 23.8746L113.879 24.1825C113.742 24.6856 113.496 25.1263 113.142 25.5046C112.792 25.8789 112.351 26.1707 111.82 26.38C111.293 26.5852 110.691 26.6878 110.015 26.6878ZM124.401 26.6878C123.532 26.6878 122.773 26.4886 122.125 26.0902C121.477 25.6917 120.974 25.1343 120.616 24.418C120.258 23.7016 120.079 22.8645 120.079 21.9066C120.079 20.9447 120.258 20.1036 120.616 19.3832C120.974 18.6627 121.477 18.1033 122.125 17.7049C122.773 17.3065 123.532 17.1072 124.401 17.1072C125.27 17.1072 126.029 17.3065 126.677 17.7049C127.325 18.1033 127.828 18.6627 128.186 19.3832C128.544 20.1036 128.723 20.9447 128.723 21.9066C128.723 22.8645 128.544 23.7016 128.186 24.418C127.828 25.1343 127.325 25.6917 126.677 26.0902C126.029 26.4886 125.27 26.6878 124.401 26.6878ZM124.407 25.1726C124.97 25.1726 125.437 25.0237 125.808 24.7258C126.178 24.428 126.452 24.0316 126.629 23.5366C126.81 23.0415 126.9 22.4962 126.9 21.9006C126.9 21.3089 126.81 20.7656 126.629 20.2706C126.452 19.7715 126.178 19.3711 125.808 19.0692C125.437 18.7674 124.97 18.6165 124.407 18.6165C123.84 18.6165 123.369 18.7674 122.994 19.0692C122.624 19.3711 122.348 19.7715 122.167 20.2706C121.99 20.7656 121.902 21.3089 121.902 21.9006C121.902 22.4962 121.99 23.0415 122.167 23.5366C122.348 24.0316 122.624 24.428 122.994 24.7258C123.369 25.0237 123.84 25.1726 124.407 25.1726ZM132.543 20.995V26.5007H130.738V17.228H132.471V18.7372H132.586C132.799 18.2462 133.133 17.8518 133.588 17.554C134.046 17.2561 134.624 17.1072 135.32 17.1072C135.952 17.1072 136.506 17.24 136.98 17.5057C137.455 17.7673 137.824 18.1577 138.085 18.6768C138.347 19.196 138.478 19.8379 138.478 20.6026V26.5007H136.673V20.8199C136.673 20.1478 136.497 19.6226 136.147 19.2443C135.797 18.862 135.316 18.6708 134.704 18.6708C134.286 18.6708 133.914 18.7614 133.588 18.9425C133.266 19.1236 133.01 19.3892 132.821 19.7393C132.636 20.0855 132.543 20.504 132.543 20.995Z" fill="#E8E8E8"/>
<path d="M147.611 26.0007H144.4L148.571 13.6371H152.55L156.721 26.0007H153.51L150.606 16.7521H150.509L147.611 26.0007ZM147.183 21.1349H153.896V23.4048H147.183V21.1349ZM161.004 20.7123V26.0007H158.052V16.728H160.86V18.4304H160.962C161.167 17.8629 161.518 17.4182 162.013 17.0962C162.508 16.7702 163.097 16.6072 163.781 16.6072C164.433 16.6072 164.999 16.7541 165.478 17.0479C165.961 17.3377 166.335 17.7442 166.601 18.2674C166.87 18.7866 167.003 19.3943 166.999 20.0905V26.0007H164.047V20.6701C164.051 20.1549 163.92 19.7525 163.655 19.4627C163.393 19.1729 163.029 19.028 162.562 19.028C162.252 19.028 161.978 19.0965 161.741 19.2333C161.507 19.3661 161.326 19.5573 161.198 19.8068C161.073 20.0563 161.008 20.3582 161.004 20.7123ZM172.213 26.1335C171.529 26.1335 170.907 25.9564 170.348 25.6023C169.789 25.2481 169.342 24.7168 169.008 24.0085C168.674 23.3002 168.507 22.4208 168.507 21.3704C168.507 20.2797 168.68 19.3822 169.026 18.6779C169.372 17.9736 169.825 17.4524 170.384 17.1143C170.948 16.7763 171.553 16.6072 172.201 16.6072C172.688 16.6072 173.105 16.6918 173.451 16.8608C173.797 17.0258 174.083 17.2391 174.308 17.5007C174.534 17.7623 174.705 18.034 174.821 18.3157H174.882V13.6371H177.834V26.0007H174.912V24.4975H174.821C174.697 24.7832 174.52 25.0509 174.29 25.3004C174.061 25.5499 173.773 25.7512 173.427 25.9041C173.085 26.057 172.68 26.1335 172.213 26.1335ZM173.24 23.8334C173.598 23.8334 173.904 23.7328 174.157 23.5316C174.411 23.3263 174.606 23.0386 174.743 22.6683C174.88 22.298 174.948 21.8634 174.948 21.3643C174.948 20.8572 174.88 20.4206 174.743 20.0543C174.61 19.6881 174.415 19.4064 174.157 19.2092C173.904 19.0119 173.598 18.9133 173.24 18.9133C172.873 18.9133 172.564 19.014 172.31 19.2152C172.056 19.4164 171.863 19.7002 171.731 20.0664C171.602 20.4326 171.537 20.8653 171.537 21.3643C171.537 21.8634 171.604 22.298 171.737 22.6683C171.869 23.0386 172.061 23.3263 172.31 23.5316C172.564 23.7328 172.873 23.8334 173.24 23.8334ZM179.701 26.0007V16.728H182.568V18.4183H182.665C182.834 17.8066 183.11 17.3518 183.492 17.054C183.874 16.7521 184.319 16.6012 184.826 16.6012C184.963 16.6012 185.104 16.6113 185.249 16.6314C185.394 16.6475 185.528 16.6736 185.653 16.7099V19.2756C185.512 19.2273 185.327 19.189 185.098 19.1609C184.872 19.1327 184.671 19.1186 184.494 19.1186C184.144 19.1186 183.828 19.1971 183.546 19.354C183.269 19.507 183.049 19.7223 182.888 20C182.731 20.2737 182.653 20.5956 182.653 20.9659V26.0007H179.701ZM190.703 26.1758C189.729 26.1758 188.892 25.9765 188.192 25.5781C187.495 25.1757 186.958 24.6162 186.58 23.8998C186.206 23.1794 186.018 22.3443 186.018 21.3945C186.018 20.4407 186.206 19.6056 186.58 18.8892C186.958 18.1688 187.495 17.6094 188.192 17.2109C188.892 16.8085 189.729 16.6072 190.703 16.6072C191.677 16.6072 192.512 16.8085 193.208 17.2109C193.909 17.6094 194.446 18.1688 194.82 18.8892C195.199 19.6056 195.388 20.4407 195.388 21.3945C195.388 22.3443 195.199 23.1794 194.82 23.8998C194.446 24.6162 193.909 25.1757 193.208 25.5781C192.512 25.9765 191.677 26.1758 190.703 26.1758ZM190.721 23.9481C191.075 23.9481 191.375 23.8395 191.621 23.6221C191.866 23.4048 192.053 23.103 192.182 22.7166C192.315 22.3302 192.381 21.8835 192.381 21.3764C192.381 20.8613 192.315 20.4105 192.182 20.0241C192.053 19.6378 191.866 19.3359 191.621 19.1186C191.375 18.9013 191.075 18.7926 190.721 18.7926C190.355 18.7926 190.045 18.9013 189.791 19.1186C189.542 19.3359 189.351 19.6378 189.218 20.0241C189.089 20.4105 189.025 20.8613 189.025 21.3764C189.025 21.8835 189.089 22.3302 189.218 22.7166C189.351 23.103 189.542 23.4048 189.791 23.6221C190.045 23.8395 190.355 23.9481 190.721 23.9481ZM196.9 26.0007V16.728H199.852V26.0007H196.9ZM198.379 15.6474C197.964 15.6474 197.608 15.5105 197.31 15.2369C197.013 14.9592 196.864 14.6251 196.864 14.2347C196.864 13.8484 197.013 13.5183 197.31 13.2447C197.608 12.967 197.964 12.8281 198.379 12.8281C198.798 12.8281 199.154 12.967 199.448 13.2447C199.745 13.5183 199.894 13.8484 199.894 14.2347C199.894 14.6251 199.745 14.9592 199.448 15.2369C199.154 15.5105 198.798 15.6474 198.379 15.6474ZM205.118 26.1335C204.434 26.1335 203.812 25.9564 203.252 25.6023C202.693 25.2481 202.246 24.7168 201.912 24.0085C201.578 23.3002 201.411 22.4208 201.411 21.3704C201.411 20.2797 201.584 19.3822 201.93 18.6779C202.276 17.9736 202.729 17.4524 203.289 17.1143C203.852 16.7763 204.458 16.6072 205.106 16.6072C205.593 16.6072 206.009 16.6918 206.355 16.8608C206.701 17.0258 206.987 17.2391 207.213 17.5007C207.438 17.7623 207.609 18.034 207.726 18.3157H207.786V13.6371H210.738V26.0007H207.816V24.4975H207.726C207.601 24.7832 207.424 25.0509 207.194 25.3004C206.965 25.5499 206.677 25.7512 206.331 25.9041C205.989 26.057 205.585 26.1335 205.118 26.1335ZM206.144 23.8334C206.502 23.8334 206.808 23.7328 207.062 23.5316C207.315 23.3263 207.51 23.0386 207.647 22.6683C207.784 22.298 207.852 21.8634 207.852 21.3643C207.852 20.8572 207.784 20.4206 207.647 20.0543C207.514 19.6881 207.319 19.4064 207.062 19.2092C206.808 19.0119 206.502 18.9133 206.144 18.9133C205.778 18.9133 205.468 19.014 205.214 19.2152C204.961 19.4164 204.768 19.7002 204.635 20.0664C204.506 20.4326 204.442 20.8653 204.442 21.3643C204.442 21.8634 204.508 22.298 204.641 22.6683C204.774 23.0386 204.965 23.3263 205.214 23.5316C205.468 23.7328 205.778 23.8334 206.144 23.8334Z" fill="#32DE84"/>
</g>
<defs>
<filter id="filter0_d_1_56" x="2.39972" y="0.39972" width="39.202" height="39.202" filterUnits="userSpaceOnUse" color-interpolation-filters="sRGB">
<feFlood flood-opacity="0" result="BackgroundImageFix"/>
<feColorMatrix in="SourceAlpha" type="matrix" values="0 0 0 0 0 0 0 0 0 0 0 0 0 0 0 0 0 0 127 0" result="hardAlpha"/>
<feOffset/>
<feGaussianBlur stdDeviation="2.80014"/>
<feComposite in2="hardAlpha" operator="out"/>
<feColorMatrix type="matrix" values="0 0 0 0 0 0 0 0 0 0 0 0 0 0 0 0 0 0 0.25 0"/>
<feBlend mode="normal" in2="BackgroundImageFix" result="effect1_dropShadow_1_56"/>
<feBlend mode="normal" in="SourceGraphic" in2="effect1_dropShadow_1_56" result="shape"/>
</filter>
<filter id="filter1_d_1_56" x="36.2871" y="3.78642" width="181.429" height="32.4286" filterUnits="userSpaceOnUse" color-interpolation-filters="sRGB">
<feFlood flood-opacity="0" result="BackgroundImageFix"/>
<feColorMatrix in="SourceAlpha" type="matrix" values="0 0 0 0 0 0 0 0 0 0 0 0 0 0 0 0 0 0 127 0" result="hardAlpha"/>
<feOffset/>
<feGaussianBlur stdDeviation="2.85714"/>
<feComposite in2="hardAlpha" operator="out"/>
<feColorMatrix type="matrix" values="0 0 0 0 0 0 0 0 0 0 0 0 0 0 0 0 0 0 0.25 0"/>
<feBlend mode="normal" in2="BackgroundImageFix" result="effect1_dropShadow_1_56"/>
<feBlend mode="normal" in="SourceGraphic" in2="effect1_dropShadow_1_56" result="shape"/>
</filter>
<linearGradient id="paint0_linear_1_56" x1="110.001" y1="0" x2="110.001" y2="40.0014" gradientUnits="userSpaceOnUse">
<stop stop-color="#151515"/>
<stop offset="1" stop-color="#0E0E0E"/>
</linearGradient>
</defs>
</svg>
