<svg width="164" height="56" viewBox="0 0 164 56" fill="none" xmlns="http://www.w3.org/2000/svg">
<rect width="164" height="56" rx="8" fill="url(#paint0_linear_1_50)"/>
<rect x="1.05" y="1.05" width="161.9" height="53.9" rx="6.95" stroke="white" stroke-opacity="0.15" stroke-width="2.1"/>
<g filter="url(#filter0_d_1_50)">
<path d="M41.7583 23.5083L45.0764 17.7604C45.2636 17.4382 45.1504 17.0288 44.8325 16.8416C44.5147 16.6544 44.101 16.7632 43.9181 17.0855L40.5565 22.9073C37.9917 21.736 35.1047 21.0828 32 21.0828C28.8953 21.0828 26.0083 21.736 23.4435 22.9073L20.0819 17.0855C19.8946 16.7632 19.4853 16.6544 19.1631 16.8416C18.8408 17.0288 18.732 17.4382 18.9192 17.7604L22.2373 23.5083C16.5156 26.6086 12.6401 32.4 12 39.1799H52C51.3599 32.4 47.4844 26.6086 41.7583 23.5083ZM22.8164 33.5627C21.8889 33.5627 21.14 32.8094 21.14 31.8862C21.14 30.9587 21.8933 30.2097 22.8164 30.2097C23.7439 30.2097 24.4929 30.9631 24.4929 31.8862C24.4973 32.8094 23.7439 33.5627 22.8164 33.5627ZM41.1792 33.5627C40.2517 33.5627 39.5027 32.8094 39.5027 31.8862C39.5027 30.9587 40.2561 30.2097 41.1792 30.2097C42.1067 30.2097 42.8557 30.9631 42.8557 31.8862C42.86 32.8094 42.1067 33.5627 41.1792 33.5627Z" fill="#32DE84"/>
</g>
<g filter="url(#filter1_d_1_50)">
<path d="M62.2613 24.5H60.3977L64.5852 12.8636H66.6136L70.8011 24.5H68.9375L65.6477 14.9773H65.5568L62.2613 24.5ZM62.5738 19.9432H68.6193V21.4204H62.5738V19.9432ZM78.7173 15.7727L75.5525 24.5H73.7344L70.5639 15.7727H72.3878L74.598 22.4886H74.6889L76.8934 15.7727H78.7173ZM82.6037 24.6932C82.0506 24.6932 81.5506 24.5909 81.1037 24.3864C80.6567 24.178 80.3025 23.8769 80.0412 23.4829C79.7836 23.089 79.6548 22.6061 79.6548 22.0341C79.6548 21.5417 79.7495 21.1364 79.9389 20.8182C80.1283 20.5 80.384 20.2481 80.7059 20.0625C81.0279 19.8769 81.3878 19.7367 81.7855 19.642C82.1832 19.5473 82.5885 19.4754 83.0014 19.4261C83.5241 19.3655 83.9484 19.3163 84.2741 19.2784C84.5999 19.2367 84.8366 19.1704 84.9844 19.0795C85.1321 18.9886 85.2059 18.8409 85.2059 18.6364V18.5966C85.2059 18.1004 85.0658 17.7159 84.7855 17.4432C84.509 17.1704 84.0961 17.0341 83.5469 17.0341C82.9749 17.0341 82.5241 17.161 82.1946 17.4148C81.8688 17.6648 81.6434 17.9432 81.5184 18.25L79.9219 17.8864C80.1112 17.3561 80.3878 16.928 80.7514 16.6023C81.1188 16.2727 81.5412 16.0341 82.0184 15.8864C82.4957 15.7348 82.9976 15.6591 83.5241 15.6591C83.8726 15.6591 84.2419 15.7008 84.6321 15.7841C85.026 15.8636 85.3934 16.0114 85.7344 16.2273C86.079 16.4432 86.3612 16.7519 86.5809 17.1534C86.8006 17.5511 86.9105 18.0682 86.9105 18.7045V24.5H85.2514V23.3068H85.1832C85.0734 23.5265 84.9086 23.7424 84.6889 23.9545C84.4692 24.1667 84.187 24.3428 83.8423 24.4829C83.4976 24.6231 83.0847 24.6932 82.6037 24.6932ZM82.973 23.3295C83.4427 23.3295 83.8442 23.2367 84.1775 23.0511C84.5147 22.8655 84.7703 22.6231 84.9446 22.3239C85.1226 22.0208 85.2116 21.697 85.2116 21.3523V20.2273C85.151 20.2879 85.0336 20.3447 84.8594 20.3977C84.6889 20.447 84.4938 20.4905 84.2741 20.5284C84.0544 20.5625 83.8404 20.5947 83.6321 20.625C83.4237 20.6515 83.2495 20.6742 83.1094 20.6932C82.7798 20.7348 82.4787 20.8049 82.2059 20.9034C81.937 21.0019 81.7211 21.1439 81.5582 21.3295C81.3991 21.5114 81.3196 21.7538 81.3196 22.0568C81.3196 22.4773 81.4749 22.7954 81.7855 23.0114C82.0961 23.2235 82.4919 23.3295 82.973 23.3295ZM89.1733 24.5V15.7727H90.8721V24.5H89.1733ZM90.0312 14.4261C89.7358 14.4261 89.482 14.3276 89.2699 14.1307C89.0615 13.9299 88.9574 13.6913 88.9574 13.4148C88.9574 13.1345 89.0615 12.8958 89.2699 12.6989C89.482 12.4981 89.7358 12.3977 90.0312 12.3977C90.3267 12.3977 90.5786 12.4981 90.7869 12.6989C90.999 12.8958 91.1051 13.1345 91.1051 13.4148C91.1051 13.6913 90.999 13.9299 90.7869 14.1307C90.5786 14.3276 90.3267 14.4261 90.0312 14.4261ZM94.8565 12.8636V24.5H93.1576V12.8636H94.8565ZM99.6818 24.6932C99.1288 24.6932 98.6288 24.5909 98.1818 24.3864C97.7348 24.178 97.3807 23.8769 97.1193 23.4829C96.8617 23.089 96.7329 22.6061 96.7329 22.0341C96.7329 21.5417 96.8276 21.1364 97.017 20.8182C97.2064 20.5 97.4621 20.2481 97.7841 20.0625C98.106 19.8769 98.4659 19.7367 98.8636 19.642C99.2613 19.5473 99.6666 19.4754 100.08 19.4261C100.602 19.3655 101.026 19.3163 101.352 19.2784C101.678 19.2367 101.915 19.1704 102.062 19.0795C102.21 18.9886 102.284 18.8409 102.284 18.6364V18.5966C102.284 18.1004 102.144 17.7159 101.864 17.4432C101.587 17.1704 101.174 17.0341 100.625 17.0341C100.053 17.0341 99.6022 17.161 99.2727 17.4148C98.9469 17.6648 98.7216 17.9432 98.5966 18.25L97 17.8864C97.1894 17.3561 97.4659 16.928 97.8295 16.6023C98.1969 16.2727 98.6193 16.0341 99.0966 15.8864C99.5738 15.7348 100.076 15.6591 100.602 15.6591C100.951 15.6591 101.32 15.7008 101.71 15.7841C102.104 15.8636 102.472 16.0114 102.812 16.2273C103.157 16.4432 103.439 16.7519 103.659 17.1534C103.879 17.5511 103.989 18.0682 103.989 18.7045V24.5H102.33V23.3068H102.261C102.151 23.5265 101.987 23.7424 101.767 23.9545C101.547 24.1667 101.265 24.3428 100.92 24.4829C100.576 24.6231 100.163 24.6932 99.6818 24.6932ZM100.051 23.3295C100.521 23.3295 100.922 23.2367 101.256 23.0511C101.593 22.8655 101.848 22.6231 102.023 22.3239C102.201 22.0208 102.29 21.697 102.29 21.3523V20.2273C102.229 20.2879 102.112 20.3447 101.937 20.3977C101.767 20.447 101.572 20.4905 101.352 20.5284C101.133 20.5625 100.919 20.5947 100.71 20.625C100.502 20.6515 100.328 20.6742 100.187 20.6932C99.8579 20.7348 99.5568 20.8049 99.2841 20.9034C99.0151 21.0019 98.7992 21.1439 98.6363 21.3295C98.4772 21.5114 98.3977 21.7538 98.3977 22.0568C98.3977 22.4773 98.553 22.7954 98.8636 23.0114C99.1742 23.2235 99.57 23.3295 100.051 23.3295ZM106.388 24.5V12.8636H108.087V17.1875H108.189C108.287 17.0057 108.429 16.7954 108.615 16.5568C108.801 16.3182 109.058 16.1098 109.388 15.9318C109.717 15.75 110.153 15.6591 110.695 15.6591C111.399 15.6591 112.028 15.8371 112.581 16.1932C113.134 16.5492 113.568 17.0625 113.882 17.7329C114.2 18.4034 114.359 19.2102 114.359 20.1534C114.359 21.0966 114.202 21.9053 113.888 22.5795C113.573 23.25 113.142 23.767 112.592 24.1307C112.043 24.4905 111.416 24.6704 110.712 24.6704C110.181 24.6704 109.748 24.5814 109.41 24.4034C109.077 24.2254 108.816 24.017 108.626 23.7784C108.437 23.5398 108.291 23.3276 108.189 23.142H108.047V24.5H106.388ZM108.053 20.1364C108.053 20.75 108.142 21.2879 108.32 21.75C108.498 22.2121 108.755 22.5739 109.092 22.8352C109.429 23.0928 109.842 23.2216 110.331 23.2216C110.839 23.2216 111.263 23.0871 111.604 22.8182C111.945 22.5454 112.202 22.1761 112.376 21.7102C112.554 21.2443 112.643 20.7197 112.643 20.1364C112.643 19.5606 112.556 19.0436 112.382 18.5852C112.212 18.1269 111.954 17.7651 111.609 17.5C111.268 17.2348 110.842 17.1023 110.331 17.1023C109.839 17.1023 109.422 17.2292 109.081 17.4829C108.744 17.7367 108.488 18.0909 108.314 18.5454C108.14 19 108.053 19.5303 108.053 20.1364ZM117.966 12.8636V24.5H116.267V12.8636H117.966ZM124.013 24.6761C123.153 24.6761 122.412 24.4924 121.791 24.125C121.174 23.7538 120.696 23.2329 120.359 22.5625C120.026 21.8883 119.859 21.0985 119.859 20.1932C119.859 19.2992 120.026 18.5114 120.359 17.8295C120.696 17.1477 121.166 16.6155 121.768 16.2329C122.374 15.8504 123.083 15.6591 123.893 15.6591C124.386 15.6591 124.863 15.7405 125.325 15.9034C125.787 16.0663 126.202 16.322 126.57 16.6704C126.937 17.0189 127.227 17.4716 127.439 18.0284C127.651 18.5814 127.757 19.2538 127.757 20.0454V20.6477H120.82V19.375H126.092C126.092 18.928 126.001 18.5322 125.82 18.1875C125.638 17.839 125.382 17.5644 125.053 17.3636C124.727 17.1629 124.344 17.0625 123.905 17.0625C123.428 17.0625 123.011 17.1799 122.655 17.4148C122.303 17.6458 122.03 17.9489 121.837 18.3239C121.647 18.6951 121.553 19.0985 121.553 19.5341V20.5284C121.553 21.1117 121.655 21.6079 121.859 22.017C122.068 22.4261 122.357 22.7386 122.729 22.9545C123.1 23.1667 123.534 23.2727 124.03 23.2727C124.352 23.2727 124.645 23.2273 124.91 23.1364C125.176 23.0417 125.405 22.9015 125.598 22.7159C125.791 22.5303 125.939 22.3011 126.041 22.0284L127.649 22.3182C127.52 22.7917 127.289 23.2064 126.956 23.5625C126.626 23.9148 126.212 24.1894 125.712 24.3864C125.215 24.5795 124.649 24.6761 124.013 24.6761ZM137.553 24.6761C136.734 24.6761 136.02 24.4886 135.41 24.1136C134.801 23.7386 134.327 23.214 133.99 22.5398C133.653 21.8655 133.484 21.0776 133.484 20.1761C133.484 19.2708 133.653 18.4792 133.99 17.8011C134.327 17.1231 134.801 16.5966 135.41 16.2216C136.02 15.8466 136.734 15.6591 137.553 15.6591C138.371 15.6591 139.085 15.8466 139.695 16.2216C140.304 16.5966 140.778 17.1231 141.115 17.8011C141.452 18.4792 141.621 19.2708 141.621 20.1761C141.621 21.0776 141.452 21.8655 141.115 22.5398C140.778 23.214 140.304 23.7386 139.695 24.1136C139.085 24.4886 138.371 24.6761 137.553 24.6761ZM137.558 23.25C138.089 23.25 138.528 23.1098 138.876 22.8295C139.225 22.5492 139.482 22.1761 139.649 21.7102C139.82 21.2443 139.905 20.7311 139.905 20.1704C139.905 19.6136 139.82 19.1023 139.649 18.6364C139.482 18.1667 139.225 17.7898 138.876 17.5057C138.528 17.2216 138.089 17.0795 137.558 17.0795C137.024 17.0795 136.581 17.2216 136.229 17.5057C135.88 17.7898 135.621 18.1667 135.45 18.6364C135.284 19.1023 135.2 19.6136 135.2 20.1704C135.2 20.7311 135.284 21.2443 135.45 21.7102C135.621 22.1761 135.88 22.5492 136.229 22.8295C136.581 23.1098 137.024 23.25 137.558 23.25ZM145.216 19.3182V24.5H143.517V15.7727H145.148V17.1932H145.256C145.456 16.7311 145.771 16.3598 146.199 16.0795C146.631 15.7992 147.174 15.6591 147.83 15.6591C148.424 15.6591 148.945 15.7841 149.392 16.0341C149.839 16.2803 150.186 16.6477 150.432 17.1364C150.678 17.625 150.801 18.2292 150.801 18.9489V24.5H149.102V19.1534C149.102 18.5208 148.937 18.0265 148.608 17.6704C148.278 17.3106 147.826 17.1307 147.25 17.1307C146.856 17.1307 146.506 17.2159 146.199 17.3864C145.896 17.5568 145.655 17.8068 145.477 18.1364C145.303 18.4621 145.216 18.8561 145.216 19.3182Z" fill="#E8E8E8"/>
<path d="M63.6101 43.5H60.3984L64.5699 31.1364H68.5483L72.7198 43.5H69.5081L66.6044 34.2514H66.5078L63.6101 43.5ZM63.1814 38.6342H69.8945V40.9041H63.1814V38.6342ZM77.003 38.2116V43.5H74.0509V34.2273H76.8581V35.9297H76.9607C77.166 35.3622 77.5161 34.9175 78.0112 34.5955C78.5062 34.2695 79.0958 34.1065 79.78 34.1065C80.432 34.1065 80.9974 34.2534 81.4764 34.5472C81.9593 34.837 82.3336 35.2435 82.5992 35.7667C82.8689 36.2859 83.0017 36.8936 82.9977 37.5898V43.5H80.0456V38.1694C80.0496 37.6542 79.9188 37.2518 79.6532 36.962C79.3916 36.6722 79.0274 36.5273 78.5605 36.5273C78.2506 36.5273 77.977 36.5958 77.7395 36.7326C77.5061 36.8654 77.325 37.0566 77.1962 37.3061C77.0714 37.5556 77.007 37.8575 77.003 38.2116ZM88.2121 43.6328C87.5279 43.6328 86.9061 43.4557 86.3467 43.1016C85.7872 42.7474 85.3405 42.2161 85.0065 41.5078C84.6724 40.7995 84.5054 39.9201 84.5054 38.8697C84.5054 37.779 84.6785 36.8815 85.0246 36.1772C85.3707 35.4729 85.8235 34.9517 86.3829 34.6136C86.9463 34.2756 87.552 34.1065 88.2 34.1065C88.687 34.1065 89.1035 34.191 89.4496 34.3601C89.7958 34.5251 90.0815 34.7384 90.3069 35C90.5323 35.2616 90.7033 35.5333 90.82 35.815H90.8804V31.1364H93.8325V43.5H90.9106V41.9968H90.82C90.6953 42.2825 90.5182 42.5502 90.2888 42.7997C90.0594 43.0492 89.7716 43.2505 89.4255 43.4034C89.0834 43.5563 88.6789 43.6328 88.2121 43.6328ZM89.2383 41.3327C89.5965 41.3327 89.9024 41.2321 90.156 41.0309C90.4095 40.8256 90.6047 40.5379 90.7415 40.1676C90.8784 39.7973 90.9468 39.3627 90.9468 38.8636C90.9468 38.3565 90.8784 37.9199 90.7415 37.5536C90.6087 37.1874 90.4135 36.9056 90.156 36.7084C89.9024 36.5112 89.5965 36.4126 89.2383 36.4126C88.8721 36.4126 88.5622 36.5132 88.3087 36.7145C88.0551 36.9157 87.8619 37.1994 87.7291 37.5657C87.6003 37.9319 87.5359 38.3646 87.5359 38.8636C87.5359 39.3627 87.6023 39.7973 87.7352 40.1676C87.868 40.5379 88.0591 40.8256 88.3087 41.0309C88.5622 41.2321 88.8721 41.3327 89.2383 41.3327ZM95.6994 43.5V34.2273H98.5669V35.9176H98.6635C98.8325 35.3059 99.1082 34.8511 99.4906 34.5533C99.8729 34.2514 100.318 34.1005 100.825 34.1005C100.962 34.1005 101.102 34.1105 101.247 34.1307C101.392 34.1468 101.527 34.1729 101.652 34.2092V36.7748C101.511 36.7266 101.326 36.6883 101.096 36.6601C100.871 36.632 100.67 36.6179 100.493 36.6179C100.143 36.6179 99.8266 36.6964 99.5449 36.8533C99.2672 37.0063 99.0479 37.2216 98.8869 37.4993C98.7299 37.773 98.6514 38.0949 98.6514 38.4652V43.5H95.6994ZM106.702 43.6751C105.728 43.6751 104.891 43.4758 104.19 43.0774C103.494 42.6749 102.957 42.1155 102.578 41.3991C102.204 40.6787 102.017 39.8436 102.017 38.8938C102.017 37.94 102.204 37.1049 102.578 36.3885C102.957 35.6681 103.494 35.1087 104.19 34.7102C104.891 34.3078 105.728 34.1065 106.702 34.1065C107.676 34.1065 108.511 34.3078 109.207 34.7102C109.907 35.1087 110.445 35.6681 110.819 36.3885C111.197 37.1049 111.386 37.94 111.386 38.8938C111.386 39.8436 111.197 40.6787 110.819 41.3991C110.445 42.1155 109.907 42.6749 109.207 43.0774C108.511 43.4758 107.676 43.6751 106.702 43.6751ZM106.72 41.4474C107.074 41.4474 107.374 41.3388 107.619 41.1214C107.865 40.9041 108.052 40.6023 108.181 40.2159C108.314 39.8295 108.38 39.3828 108.38 38.8757C108.38 38.3605 108.314 37.9098 108.181 37.5234C108.052 37.1371 107.865 36.8352 107.619 36.6179C107.374 36.4006 107.074 36.2919 106.72 36.2919C106.354 36.2919 106.044 36.4006 105.79 36.6179C105.541 36.8352 105.349 37.1371 105.217 37.5234C105.088 37.9098 105.023 38.3605 105.023 38.8757C105.023 39.3828 105.088 39.8295 105.217 40.2159C105.349 40.6023 105.541 40.9041 105.79 41.1214C106.044 41.3388 106.354 41.4474 106.72 41.4474ZM112.899 43.5V34.2273H115.851V43.5H112.899ZM114.378 33.1467C113.963 33.1467 113.607 33.0098 113.309 32.7361C113.011 32.4584 112.862 32.1244 112.862 31.734C112.862 31.3476 113.011 31.0176 113.309 30.744C113.607 30.4663 113.963 30.3274 114.378 30.3274C114.796 30.3274 115.152 30.4663 115.446 30.744C115.744 31.0176 115.893 31.3476 115.893 31.734C115.893 32.1244 115.744 32.4584 115.446 32.7361C115.152 33.0098 114.796 33.1467 114.378 33.1467ZM121.116 43.6328C120.432 43.6328 119.81 43.4557 119.251 43.1016C118.692 42.7474 118.245 42.2161 117.911 41.5078C117.577 40.7995 117.41 39.9201 117.41 38.8697C117.41 37.779 117.583 36.8815 117.929 36.1772C118.275 35.4729 118.728 34.9517 119.287 34.6136C119.851 34.2756 120.456 34.1065 121.104 34.1065C121.591 34.1065 122.008 34.191 122.354 34.3601C122.7 34.5251 122.986 34.7384 123.211 35C123.437 35.2616 123.608 35.5333 123.724 35.815H123.785V31.1364H126.737V43.5H123.815V41.9968H123.724C123.6 42.2825 123.422 42.5502 123.193 42.7997C122.964 43.0492 122.676 43.2505 122.33 43.4034C121.988 43.5563 121.583 43.6328 121.116 43.6328ZM122.143 41.3327C122.501 41.3327 122.807 41.2321 123.06 41.0309C123.314 40.8256 123.509 40.5379 123.646 40.1676C123.783 39.7973 123.851 39.3627 123.851 38.8636C123.851 38.3565 123.783 37.9199 123.646 37.5536C123.513 37.1874 123.318 36.9056 123.06 36.7084C122.807 36.5112 122.501 36.4126 122.143 36.4126C121.776 36.4126 121.466 36.5132 121.213 36.7145C120.959 36.9157 120.766 37.1994 120.633 37.5657C120.505 37.9319 120.44 38.3646 120.44 38.8636C120.44 39.3627 120.507 39.7973 120.639 40.1676C120.772 40.5379 120.963 40.8256 121.213 41.0309C121.466 41.2321 121.776 41.3327 122.143 41.3327Z" fill="#32DE84"/>
</g>
<defs>
<filter id="filter0_d_1_50" x="6.28571" y="2.28571" width="51.4286" height="51.4286" filterUnits="userSpaceOnUse" color-interpolation-filters="sRGB">
<feFlood flood-opacity="0" result="BackgroundImageFix"/>
<feColorMatrix in="SourceAlpha" type="matrix" values="0 0 0 0 0 0 0 0 0 0 0 0 0 0 0 0 0 0 127 0" result="hardAlpha"/>
<feOffset/>
<feGaussianBlur stdDeviation="2.85714"/>
<feComposite in2="hardAlpha" operator="out"/>
<feColorMatrix type="matrix" values="0 0 0 0 0 0 0 0 0 0 0 0 0 0 0 0 0 0 0.25 0"/>
<feBlend mode="normal" in2="BackgroundImageFix" result="effect1_dropShadow_1_50"/>
<feBlend mode="normal" in="SourceGraphic" in2="effect1_dropShadow_1_50" result="shape"/>
</filter>
<filter id="filter1_d_1_50" x="54.4" y="3.9" width="103.2" height="48.2" filterUnits="userSpaceOnUse" color-interpolation-filters="sRGB">
<feFlood flood-opacity="0" result="BackgroundImageFix"/>
<feColorMatrix in="SourceAlpha" type="matrix" values="0 0 0 0 0 0 0 0 0 0 0 0 0 0 0 0 0 0 127 0" result="hardAlpha"/>
<feOffset/>
<feGaussianBlur stdDeviation="2.8"/>
<feComposite in2="hardAlpha" operator="out"/>
<feColorMatrix type="matrix" values="0 0 0 0 0 0 0 0 0 0 0 0 0 0 0 0 0 0 0.25 0"/>
<feBlend mode="normal" in2="BackgroundImageFix" result="effect1_dropShadow_1_50"/>
<feBlend mode="normal" in="SourceGraphic" in2="effect1_dropShadow_1_50" result="shape"/>
</filter>
<linearGradient id="paint0_linear_1_50" x1="82" y1="0" x2="82" y2="56" gradientUnits="userSpaceOnUse">
<stop stop-color="#151515"/>
<stop offset="1" stop-color="#0E0E0E"/>
</linearGradient>
</defs>
</svg>
