<svg width="293" height="40" viewBox="0 0 293 40" fill="none" xmlns="http://www.w3.org/2000/svg">
<rect width="293.001" height="40.0014" rx="8" fill="url(#paint0_linear_1_56)"/>
<rect x="1.07143" y="1.07143" width="290.858" height="37.8585" rx="6.92857" stroke="white" stroke-opacity="0.15" stroke-width="2.14286"/>
<g filter="url(#filter0_d_1_56)">
<path d="M8.89885 7.3125C8.33937 7.3125 7.91977 7.82536 8.01301 8.33821L11.7895 31.4633C11.8827 32.0695 12.3956 32.4891 13.0017 32.4891H31.2781C31.6977 32.4891 32.0707 32.1628 32.1639 31.7431L35.987 8.38484C36.0803 7.82536 35.6607 7.35913 35.1012 7.35913L8.89885 7.3125ZM24.9373 24.0037H19.1094L17.5708 15.7514H26.3826L24.9373 24.0037Z" fill="#2684FF"/>
<path d="M34.7281 15.7514H26.3359L24.9372 24.0037H19.1092L12.2557 32.1628C12.2557 32.1628 12.582 32.4425 13.0482 32.4425H31.3246C31.7443 32.4425 32.1172 32.1161 32.2105 31.6964L34.7281 15.7514Z" fill="url(#paint1_linear_1_56)"/>
</g>
<g filter="url(#filter1_d_1_56)">
<path d="M43.3597 26.5007V14.1371H47.8874C48.7648 14.1371 49.4912 14.282 50.0667 14.5717C50.6423 14.8575 51.0729 15.2458 51.3586 15.7369C51.6444 16.2238 51.7873 16.7732 51.7873 17.3849C51.7873 17.9001 51.6927 18.3347 51.5035 18.6889C51.3144 19.0391 51.0608 19.3208 50.7429 19.5341C50.429 19.7434 50.0828 19.8963 49.7045 19.9929V20.1136C50.115 20.1337 50.5155 20.2666 50.9059 20.5121C51.3003 20.7535 51.6263 21.0976 51.8839 21.5444C52.1414 21.9911 52.2702 22.5344 52.2702 23.1743C52.2702 23.8062 52.1213 24.3737 51.8235 24.8768C51.5297 25.3758 51.0749 25.7722 50.4591 26.066C49.8434 26.3558 49.0566 26.5007 48.0987 26.5007H43.3597ZM45.2251 24.9009H47.9176C48.8111 24.9009 49.451 24.7279 49.8373 24.3817C50.2237 24.0356 50.4169 23.603 50.4169 23.0838C50.4169 22.6934 50.3183 22.3352 50.1211 22.0092C49.9239 21.6832 49.6421 21.4236 49.2759 21.2305C48.9137 21.0373 48.483 20.9407 47.984 20.9407H45.2251V24.9009ZM45.2251 19.4858H47.7244C48.143 19.4858 48.5193 19.4053 48.8533 19.2443C49.1914 19.0833 49.459 18.8579 49.6562 18.5682C49.8575 18.2744 49.9581 17.9283 49.9581 17.5298C49.9581 17.0187 49.779 16.5901 49.4208 16.244C49.0626 15.8978 48.5132 15.7248 47.7727 15.7248H45.2251V19.4858ZM60.2118 22.6552V17.228H62.0229V26.5007H60.248V24.8949H60.1514C59.9381 25.3899 59.596 25.8024 59.1251 26.1324C58.6583 26.4584 58.0767 26.6214 57.3805 26.6214C56.7848 26.6214 56.2576 26.4906 55.7988 26.229C55.344 25.9634 54.9858 25.571 54.7242 25.0518C54.4667 24.5327 54.3379 23.8907 54.3379 23.1261V17.228H56.1429V22.9087C56.1429 23.5406 56.318 24.0437 56.6681 24.418C57.0183 24.7922 57.473 24.9794 58.0325 24.9794C58.3705 24.9794 58.7066 24.8949 59.0406 24.7258C59.3787 24.5568 59.6584 24.3012 59.8798 23.9591C60.1051 23.6171 60.2158 23.1824 60.2118 22.6552ZM64.4482 26.5007V17.228H66.2533V26.5007H64.4482ZM65.3598 15.7972C65.0459 15.7972 64.7762 15.6926 64.5508 15.4833C64.3295 15.27 64.2188 15.0164 64.2188 14.7226C64.2188 14.4248 64.3295 14.1713 64.5508 13.962C64.7762 13.7487 65.0459 13.642 65.3598 13.642C65.6737 13.642 65.9413 13.7487 66.1627 13.962C66.3881 14.1713 66.5008 14.4248 66.5008 14.7226C66.5008 15.0164 66.3881 15.27 66.1627 15.4833C65.9413 15.6926 65.6737 15.7972 65.3598 15.7972ZM70.4867 14.1371V26.5007H68.6816V14.1371H70.4867ZM77.2435 17.228V18.6768H72.1785V17.228H77.2435ZM73.5368 15.0064H75.3419V23.778C75.3419 24.1282 75.3942 24.3918 75.4988 24.5689C75.6035 24.7419 75.7383 24.8607 75.9033 24.9251C76.0723 24.9854 76.2554 25.0156 76.4526 25.0156C76.5975 25.0156 76.7243 25.0056 76.833 24.9854C76.9416 24.9653 77.0262 24.9492 77.0865 24.9371L77.4125 26.4283C77.3079 26.4685 77.159 26.5087 76.9658 26.549C76.7726 26.5933 76.5311 26.6174 76.2414 26.6214C75.7664 26.6295 75.3237 26.545 74.9132 26.3679C74.5027 26.1908 74.1707 25.9171 73.9171 25.5469C73.6636 25.1766 73.5368 24.7118 73.5368 24.1523V15.0064ZM85.7495 26.5007L83.0208 17.228H84.8862L86.7034 24.0376H86.7939L88.6171 17.228H90.4825L92.2936 24.0074H92.3841L94.1891 17.228H96.0546L93.3319 26.5007H91.4906L89.6071 19.8057H89.4683L87.5847 26.5007H85.7495ZM97.7675 26.5007V17.228H99.5726V26.5007H97.7675ZM98.6791 15.7972C98.3652 15.7972 98.0955 15.6926 97.8702 15.4833C97.6488 15.27 97.5381 15.0164 97.5381 14.7226C97.5381 14.4248 97.6488 14.1713 97.8702 13.962C98.0955 13.7487 98.3652 13.642 98.6791 13.642C98.993 13.642 99.2607 13.7487 99.482 13.962C99.7074 14.1713 99.8201 14.4248 99.8201 14.7226C99.8201 15.0164 99.7074 15.27 99.482 15.4833C99.2607 15.6926 98.993 15.7972 98.6791 15.7972ZM106.329 17.228V18.6768H101.264V17.228H106.329ZM102.623 15.0064H104.428V23.778C104.428 24.1282 104.48 24.3918 104.585 24.5689C104.689 24.7419 104.824 24.8607 104.989 24.9251C105.158 24.9854 105.341 25.0156 105.539 25.0156C105.683 25.0156 105.81 25.0056 105.919 24.9854C106.028 24.9653 106.112 24.9492 106.172 24.9371L106.498 26.4283C106.394 26.4685 106.245 26.5087 106.052 26.549C105.859 26.5933 105.617 26.6174 105.327 26.6214C104.852 26.6295 104.41 26.545 103.999 26.3679C103.589 26.1908 103.257 25.9171 103.003 25.5469C102.75 25.1766 102.623 24.7118 102.623 24.1523V15.0064ZM110.33 20.995V26.5007H108.525V14.1371H110.306V18.7372H110.421C110.638 18.2382 110.97 17.8417 111.417 17.5479C111.864 17.2541 112.447 17.1072 113.168 17.1072C113.804 17.1072 114.359 17.238 114.834 17.4996C115.313 17.7612 115.683 18.1516 115.945 18.6708C116.21 19.1859 116.343 19.8299 116.343 20.6026V26.5007H114.538V20.8199C114.538 20.1398 114.363 19.6126 114.013 19.2383C113.663 18.86 113.176 18.6708 112.552 18.6708C112.125 18.6708 111.743 18.7614 111.405 18.9425C111.071 19.1236 110.807 19.3892 110.614 19.7393C110.425 20.0855 110.33 20.504 110.33 20.995Z" fill="#E8E8E8"/>
<path d="M122.937 26.0007V13.6371H128.093C129.018 13.6371 129.793 13.7679 130.417 14.0295C131.045 14.2911 131.516 14.6573 131.829 15.1282C132.147 15.5991 132.306 16.1444 132.306 16.7642C132.306 17.2351 132.208 17.6556 132.011 18.0259C131.813 18.3922 131.542 18.696 131.196 18.9375C130.85 19.179 130.449 19.348 129.994 19.4446V19.5653C130.493 19.5895 130.954 19.7243 131.377 19.9698C131.803 20.2153 132.145 20.5574 132.403 20.9961C132.661 21.4307 132.789 21.9459 132.789 22.5415C132.789 23.2056 132.62 23.7992 132.282 24.3224C131.944 24.8416 131.455 25.2521 130.815 25.554C130.175 25.8518 129.399 26.0007 128.485 26.0007H122.937ZM125.925 23.592H127.773C128.421 23.592 128.898 23.4692 129.203 23.2237C129.513 22.9782 129.668 22.6361 129.668 22.1974C129.668 21.8795 129.594 21.6058 129.445 21.3764C129.296 21.143 129.085 20.9639 128.811 20.8391C128.537 20.7103 128.209 20.6459 127.827 20.6459H125.925V23.592ZM125.925 18.7202H127.579C127.905 18.7202 128.195 18.6658 128.449 18.5572C128.702 18.4485 128.9 18.2915 129.04 18.0863C129.185 17.881 129.258 17.6335 129.258 17.3437C129.258 16.9292 129.111 16.6032 128.817 16.3658C128.523 16.1283 128.127 16.0096 127.628 16.0096H125.925V18.7202ZM134.226 26.0007V16.728H137.178V26.0007H134.226ZM135.705 15.6474C135.291 15.6474 134.934 15.5105 134.637 15.2369C134.339 14.9592 134.19 14.6251 134.19 14.2347C134.19 13.8484 134.339 13.5183 134.637 13.2447C134.934 12.967 135.291 12.8281 135.705 12.8281C136.124 12.8281 136.48 12.967 136.774 13.2447C137.072 13.5183 137.22 13.8484 137.22 14.2347C137.22 14.6251 137.072 14.9592 136.774 15.2369C136.48 15.5105 136.124 15.6474 135.705 15.6474ZM144.291 16.728V18.9013H138.441V16.728H144.291ZM139.667 14.5064H142.619V23.0849C142.619 23.266 142.647 23.4129 142.704 23.5256C142.764 23.6342 142.85 23.7127 142.963 23.761C143.076 23.8053 143.211 23.8274 143.368 23.8274C143.48 23.8274 143.599 23.8173 143.724 23.7972C143.853 23.7731 143.949 23.7529 144.014 23.7368L144.46 25.8679C144.319 25.9081 144.12 25.9584 143.863 26.0188C143.609 26.0792 143.305 26.1174 142.951 26.1335C142.259 26.1657 141.665 26.0852 141.17 25.892C140.679 25.6948 140.303 25.389 140.041 24.9744C139.784 24.5599 139.659 24.0387 139.667 23.4109V14.5064ZM145.997 26.0007V13.6371H148.949V18.3157H149.009C149.13 18.034 149.301 17.7623 149.522 17.5007C149.748 17.2391 150.033 17.0258 150.379 16.8608C150.73 16.6918 151.148 16.6072 151.635 16.6072C152.279 16.6072 152.881 16.7763 153.44 17.1143C154.004 17.4524 154.458 17.9736 154.805 18.6779C155.151 19.3822 155.324 20.2797 155.324 21.3704C155.324 22.4208 155.157 23.3002 154.823 24.0085C154.493 24.7168 154.046 25.2481 153.482 25.6023C152.923 25.9564 152.301 26.1335 151.617 26.1335C151.15 26.1335 150.746 26.057 150.404 25.9041C150.062 25.7512 149.774 25.5499 149.54 25.3004C149.311 25.0509 149.134 24.7832 149.009 24.4975H148.919V26.0007H145.997ZM148.888 21.3643C148.888 21.8634 148.955 22.298 149.088 22.6683C149.224 23.0386 149.42 23.3263 149.673 23.5316C149.931 23.7328 150.239 23.8334 150.597 23.8334C150.959 23.8334 151.267 23.7328 151.52 23.5316C151.774 23.3263 151.965 23.0386 152.094 22.6683C152.227 22.298 152.293 21.8634 152.293 21.3643C152.293 20.8653 152.227 20.4326 152.094 20.0664C151.965 19.7002 151.774 19.4164 151.52 19.2152C151.271 19.014 150.963 18.9133 150.597 18.9133C150.235 18.9133 149.927 19.0119 149.673 19.2092C149.42 19.4064 149.224 19.6881 149.088 20.0543C148.955 20.4206 148.888 20.8572 148.888 21.3643ZM162.853 21.9982V16.728H165.799V26.0007H162.986V24.2741H162.89C162.684 24.8416 162.334 25.2924 161.839 25.6264C161.348 25.9564 160.754 26.1214 160.058 26.1214C159.426 26.1214 158.871 25.9765 158.392 25.6868C157.913 25.397 157.541 24.9925 157.275 24.4734C157.01 23.9502 156.875 23.3384 156.871 22.6381V16.728H159.823V22.0586C159.827 22.5617 159.96 22.9581 160.221 23.2479C160.483 23.5376 160.839 23.6825 161.29 23.6825C161.584 23.6825 161.847 23.6181 162.081 23.4893C162.318 23.3565 162.505 23.1654 162.642 22.9158C162.783 22.6623 162.853 22.3564 162.853 21.9982ZM172.007 26.1758C171.029 26.1758 170.19 25.9745 169.489 25.5721C168.793 25.1696 168.258 24.6102 167.884 23.8938C167.509 23.1734 167.322 22.3403 167.322 21.3945C167.322 20.4447 167.509 19.6116 167.884 18.8952C168.262 18.1748 168.799 17.6134 169.495 17.2109C170.196 16.8085 171.031 16.6072 172.001 16.6072C172.858 16.6072 173.605 16.7622 174.24 17.0721C174.88 17.382 175.379 17.8207 175.738 18.3881C176.1 18.9516 176.291 19.6136 176.311 20.3743H173.552C173.496 19.8994 173.335 19.5271 173.069 19.2574C172.808 18.9878 172.466 18.853 172.043 18.853C171.701 18.853 171.401 18.9496 171.143 19.1427C170.886 19.3319 170.685 19.6136 170.54 19.9879C170.399 20.3582 170.329 20.817 170.329 21.3643C170.329 21.9117 170.399 22.3745 170.54 22.7528C170.685 23.1271 170.886 23.4109 171.143 23.604C171.401 23.7932 171.701 23.8878 172.043 23.8878C172.317 23.8878 172.558 23.8294 172.767 23.7127C172.981 23.596 173.156 23.4249 173.293 23.1996C173.429 22.9702 173.516 22.6925 173.552 22.3665H176.311C176.283 23.1311 176.092 23.7992 175.738 24.3707C175.387 24.9422 174.894 25.3869 174.259 25.7049C173.627 26.0188 172.876 26.1758 172.007 26.1758ZM180.484 23.5678L180.496 20.0483H180.907L183.515 16.728H186.859L182.983 21.4851H182.205L180.484 23.5678ZM177.822 26.0007V13.6371H180.774V26.0007H177.822ZM183.581 26.0007L181.154 22.1491L183.098 20.0543L186.992 26.0007H183.581ZM191.868 26.1758C190.898 26.1758 190.061 25.9846 189.357 25.6023C188.657 25.2159 188.117 24.6665 187.739 23.9542C187.365 23.2378 187.178 22.3866 187.178 21.4006C187.178 20.4427 187.367 19.6056 187.745 18.8892C188.123 18.1688 188.657 17.6094 189.345 17.2109C190.033 16.8085 190.844 16.6072 191.778 16.6072C192.438 16.6072 193.041 16.7099 193.589 16.9151C194.136 17.1204 194.609 17.4242 195.007 17.8267C195.406 18.2292 195.716 18.7262 195.937 19.3178C196.159 19.9054 196.269 20.5795 196.269 21.3402V22.0767H188.21V20.3622H193.522C193.518 20.0483 193.444 19.7686 193.299 19.5231C193.154 19.2776 192.955 19.0864 192.701 18.9496C192.452 18.8087 192.164 18.7383 191.838 18.7383C191.508 18.7383 191.212 18.8127 190.951 18.9616C190.689 19.1065 190.482 19.3057 190.329 19.5593C190.176 19.8088 190.095 20.0926 190.087 20.4105V22.1552C190.087 22.5335 190.162 22.8655 190.311 23.1513C190.46 23.433 190.671 23.6523 190.945 23.8093C191.218 23.9663 191.544 24.0447 191.923 24.0447C192.184 24.0447 192.422 24.0085 192.635 23.9361C192.848 23.8636 193.031 23.757 193.184 23.6161C193.337 23.4752 193.452 23.3022 193.528 23.0969L196.239 23.1754C196.126 23.7831 195.879 24.3124 195.496 24.7631C195.118 25.2099 194.621 25.558 194.005 25.8075C193.39 26.053 192.677 26.1758 191.868 26.1758ZM203.011 16.728V18.9013H197.161V16.728H203.011ZM198.387 14.5064H201.339V23.0849C201.339 23.266 201.367 23.4129 201.423 23.5256C201.484 23.6342 201.57 23.7127 201.683 23.761C201.796 23.8053 201.93 23.8274 202.087 23.8274C202.2 23.8274 202.319 23.8173 202.443 23.7972C202.572 23.7731 202.669 23.7529 202.733 23.7368L203.18 25.8679C203.039 25.9081 202.84 25.9584 202.582 26.0188C202.329 26.0792 202.025 26.1174 201.671 26.1335C200.979 26.1657 200.385 26.0852 199.89 25.892C199.399 25.6948 199.023 25.389 198.761 24.9744C198.503 24.5599 198.379 24.0387 198.387 23.4109V14.5064ZM208.169 26.0007V13.6371H213.277C214.202 13.6371 215.001 13.8182 215.673 14.1804C216.35 14.5386 216.871 15.0396 217.237 15.6836C217.603 16.3235 217.786 17.0681 217.786 17.9172C217.786 18.7705 217.599 19.517 217.225 20.1569C216.855 20.7928 216.325 21.2859 215.637 21.636C214.949 21.9861 214.132 22.1612 213.186 22.1612H210.035V19.8068H212.631C213.082 19.8068 213.458 19.7283 213.76 19.5714C214.066 19.4144 214.297 19.1951 214.454 18.9133C214.611 18.6276 214.689 18.2956 214.689 17.9172C214.689 17.5349 214.611 17.2049 214.454 16.9272C214.297 16.6455 214.066 16.4281 213.76 16.2752C213.454 16.1223 213.078 16.0458 212.631 16.0458H211.158V26.0007H208.169ZM219.259 26.0007V16.728H222.211V26.0007H219.259ZM220.738 15.6474C220.324 15.6474 219.968 15.5105 219.67 15.2369C219.372 14.9592 219.223 14.6251 219.223 14.2347C219.223 13.8484 219.372 13.5183 219.67 13.2447C219.968 12.967 220.324 12.8281 220.738 12.8281C221.157 12.8281 221.513 12.967 221.807 13.2447C222.105 13.5183 222.254 13.8484 222.254 14.2347C222.254 14.6251 222.105 14.9592 221.807 15.2369C221.513 15.5105 221.157 15.6474 220.738 15.6474ZM224.09 29.478V16.728H227.012V18.3157H227.103C227.224 18.034 227.395 17.7623 227.616 17.5007C227.841 17.2391 228.127 17.0258 228.473 16.8608C228.823 16.6918 229.242 16.6072 229.729 16.6072C230.373 16.6072 230.975 16.7763 231.534 17.1143C232.097 17.4524 232.552 17.9736 232.898 18.6779C233.244 19.3822 233.417 20.2797 233.417 21.3704C233.417 22.4208 233.25 23.3002 232.916 24.0085C232.586 24.7168 232.14 25.2481 231.576 25.6023C231.017 25.9564 230.395 26.1335 229.711 26.1335C229.244 26.1335 228.839 26.057 228.497 25.9041C228.155 25.7512 227.867 25.5499 227.634 25.3004C227.405 25.0509 227.228 24.7832 227.103 24.4975H227.042V29.478H224.09ZM226.982 21.3643C226.982 21.8634 227.048 22.298 227.181 22.6683C227.318 23.0386 227.513 23.3263 227.767 23.5316C228.024 23.7328 228.332 23.8334 228.691 23.8334C229.053 23.8334 229.361 23.7328 229.614 23.5316C229.868 23.3263 230.059 23.0386 230.188 22.6683C230.32 22.298 230.387 21.8634 230.387 21.3643C230.387 20.8653 230.32 20.4326 230.188 20.0664C230.059 19.7002 229.868 19.4164 229.614 19.2152C229.365 19.014 229.057 18.9133 228.691 18.9133C228.328 18.9133 228.02 19.0119 227.767 19.2092C227.513 19.4064 227.318 19.6881 227.181 20.0543C227.048 20.4206 226.982 20.8572 226.982 21.3643ZM239.299 26.1758C238.329 26.1758 237.492 25.9846 236.788 25.6023C236.087 25.2159 235.548 24.6665 235.17 23.9542C234.795 23.2378 234.608 22.3866 234.608 21.4006C234.608 20.4427 234.797 19.6056 235.176 18.8892C235.554 18.1688 236.087 17.6094 236.775 17.2109C237.464 16.8085 238.275 16.6072 239.208 16.6072C239.868 16.6072 240.472 16.7099 241.019 16.9151C241.567 17.1204 242.04 17.4242 242.438 17.8267C242.837 18.2292 243.146 18.7262 243.368 19.3178C243.589 19.9054 243.7 20.5795 243.7 21.3402V22.0767H235.641V20.3622H240.953C240.949 20.0483 240.875 19.7686 240.73 19.5231C240.585 19.2776 240.386 19.0864 240.132 18.9496C239.882 18.8087 239.595 18.7383 239.269 18.7383C238.939 18.7383 238.643 18.8127 238.381 18.9616C238.12 19.1065 237.912 19.3057 237.76 19.5593C237.607 19.8088 237.526 20.0926 237.518 20.4105V22.1552C237.518 22.5335 237.592 22.8655 237.741 23.1513C237.89 23.433 238.102 23.6523 238.375 23.8093C238.649 23.9663 238.975 24.0447 239.353 24.0447C239.615 24.0447 239.852 24.0085 240.066 23.9361C240.279 23.8636 240.462 23.757 240.615 23.6161C240.768 23.4752 240.883 23.3022 240.959 23.0969L243.67 23.1754C243.557 23.7831 243.309 24.3124 242.927 24.7631C242.549 25.2099 242.052 25.558 241.436 25.8075C240.82 26.053 240.108 26.1758 239.299 26.1758ZM248.16 13.6371V26.0007H245.208V13.6371H248.16ZM250.039 26.0007V16.728H252.991V26.0007H250.039ZM251.518 15.6474C251.103 15.6474 250.747 15.5105 250.449 15.2369C250.151 14.9592 250.002 14.6251 250.002 14.2347C250.002 13.8484 250.151 13.5183 250.449 13.2447C250.747 12.967 251.103 12.8281 251.518 12.8281C251.936 12.8281 252.292 12.967 252.586 13.2447C252.884 13.5183 253.033 13.8484 253.033 14.2347C253.033 14.6251 252.884 14.9592 252.586 15.2369C252.292 15.5105 251.936 15.6474 251.518 15.6474ZM257.822 20.7123V26.0007H254.87V16.728H257.677V18.4304H257.779C257.985 17.8629 258.335 17.4182 258.83 17.0962C259.325 16.7702 259.915 16.6072 260.599 16.6072C261.251 16.6072 261.816 16.7541 262.295 17.0479C262.778 17.3377 263.152 17.7442 263.418 18.2674C263.688 18.7866 263.82 19.3943 263.816 20.0905V26.0007H260.864V20.6701C260.868 20.1549 260.738 19.7525 260.472 19.4627C260.21 19.1729 259.846 19.028 259.379 19.028C259.069 19.028 258.796 19.0965 258.558 19.2333C258.325 19.3661 258.144 19.5573 258.015 19.8068C257.89 20.0563 257.826 20.3582 257.822 20.7123ZM269.979 26.1758C269.009 26.1758 268.172 25.9846 267.467 25.6023C266.767 25.2159 266.228 24.6665 265.849 23.9542C265.475 23.2378 265.288 22.3866 265.288 21.4006C265.288 20.4427 265.477 19.6056 265.855 18.8892C266.234 18.1688 266.767 17.6094 267.455 17.2109C268.143 16.8085 268.954 16.6072 269.888 16.6072C270.548 16.6072 271.152 16.7099 271.699 16.9151C272.246 17.1204 272.719 17.4242 273.118 17.8267C273.516 18.2292 273.826 18.7262 274.047 19.3178C274.269 19.9054 274.38 20.5795 274.38 21.3402V22.0767H266.32V20.3622H271.633C271.629 20.0483 271.554 19.7686 271.409 19.5231C271.264 19.2776 271.065 19.0864 270.812 18.9496C270.562 18.8087 270.274 18.7383 269.948 18.7383C269.618 18.7383 269.323 18.8127 269.061 18.9616C268.799 19.1065 268.592 19.3057 268.439 19.5593C268.286 19.8088 268.206 20.0926 268.198 20.4105V22.1552C268.198 22.5335 268.272 22.8655 268.421 23.1513C268.57 23.433 268.781 23.6523 269.055 23.8093C269.329 23.9663 269.655 24.0447 270.033 24.0447C270.295 24.0447 270.532 24.0085 270.745 23.9361C270.959 23.8636 271.142 23.757 271.295 23.6161C271.448 23.4752 271.562 23.3022 271.639 23.0969L274.349 23.1754C274.237 23.7831 273.989 24.3124 273.607 24.7631C273.228 25.2099 272.731 25.558 272.116 25.8075C271.5 26.053 270.788 26.1758 269.979 26.1758ZM283.983 19.5593L281.272 19.6317C281.244 19.4386 281.168 19.2675 281.043 19.1186C280.918 18.9657 280.755 18.8469 280.554 18.7624C280.357 18.6739 280.127 18.6296 279.866 18.6296C279.523 18.6296 279.232 18.698 278.99 18.8349C278.753 18.9717 278.636 19.1568 278.64 19.3903C278.636 19.5714 278.709 19.7283 278.857 19.8611C279.01 19.994 279.282 20.1006 279.672 20.1811L281.459 20.5192C282.385 20.6962 283.073 20.99 283.524 21.4006C283.979 21.8111 284.208 22.3544 284.212 23.0305C284.208 23.6664 284.019 24.2198 283.645 24.6907C283.274 25.1616 282.767 25.5278 282.123 25.7894C281.479 26.047 280.743 26.1758 279.914 26.1758C278.59 26.1758 277.545 25.9041 276.781 25.3608C276.02 24.8134 275.585 24.081 275.477 23.1633L278.393 23.0909C278.457 23.429 278.624 23.6865 278.894 23.8636C279.163 24.0407 279.507 24.1292 279.926 24.1292C280.304 24.1292 280.612 24.0588 280.85 23.918C281.087 23.7771 281.208 23.5899 281.212 23.3565C281.208 23.1472 281.115 22.9802 280.934 22.8555C280.753 22.7267 280.469 22.6261 280.083 22.5536L278.465 22.2457C277.535 22.0767 276.843 21.7648 276.388 21.31C275.934 20.8512 275.708 20.2676 275.712 19.5593C275.708 18.9395 275.873 18.4103 276.207 17.9716C276.541 17.5289 277.016 17.1908 277.632 16.9574C278.248 16.7239 278.974 16.6072 279.811 16.6072C281.067 16.6072 282.057 16.8708 282.781 17.3981C283.506 17.9213 283.906 18.6417 283.983 19.5593Z" fill="#2684FF"/>
</g>
<defs>
<filter id="filter0_d_1_56" x="2.39972" y="0.39972" width="39.202" height="39.202" filterUnits="userSpaceOnUse" color-interpolation-filters="sRGB">
<feFlood flood-opacity="0" result="BackgroundImageFix"/>
<feColorMatrix in="SourceAlpha" type="matrix" values="0 0 0 0 0 0 0 0 0 0 0 0 0 0 0 0 0 0 127 0" result="hardAlpha"/>
<feOffset/>
<feGaussianBlur stdDeviation="2.80014"/>
<feComposite in2="hardAlpha" operator="out"/>
<feColorMatrix type="matrix" values="0 0 0 0 0 0 0 0 0 0 0 0 0 0 0 0 0 0 0.25 0"/>
<feBlend mode="normal" in2="BackgroundImageFix" result="effect1_dropShadow_1_56"/>
<feBlend mode="normal" in="SourceGraphic" in2="effect1_dropShadow_1_56" result="shape"/>
</filter>
<filter id="filter1_d_1_56" x="36.2871" y="3.78642" width="254.428" height="32.4286" filterUnits="userSpaceOnUse" color-interpolation-filters="sRGB">
<feFlood flood-opacity="0" result="BackgroundImageFix"/>
<feColorMatrix in="SourceAlpha" type="matrix" values="0 0 0 0 0 0 0 0 0 0 0 0 0 0 0 0 0 0 127 0" result="hardAlpha"/>
<feOffset/>
<feGaussianBlur stdDeviation="2.85714"/>
<feComposite in2="hardAlpha" operator="out"/>
<feColorMatrix type="matrix" values="0 0 0 0 0 0 0 0 0 0 0 0 0 0 0 0 0 0 0.25 0"/>
<feBlend mode="normal" in2="BackgroundImageFix" result="effect1_dropShadow_1_56"/>
<feBlend mode="normal" in="SourceGraphic" in2="effect1_dropShadow_1_56" result="shape"/>
</filter>
<linearGradient id="paint0_linear_1_56" x1="146.501" y1="0" x2="146.501" y2="40.0014" gradientUnits="userSpaceOnUse">
<stop stop-color="#003C8B"/>
<stop offset="1" stop-color="#001531"/>
</linearGradient>
<linearGradient id="paint1_linear_1_56" x1="36.6913" y1="18.0768" x2="22.784" y2="28.9327" gradientUnits="userSpaceOnUse">
<stop offset="0.176" stop-color="#0052CC"/>
<stop offset="1" stop-color="#2684FF"/>
</linearGradient>
</defs>
</svg>
