<svg width="235" height="56" viewBox="0 0 235 56" fill="none" xmlns="http://www.w3.org/2000/svg">
<rect width="235" height="56" rx="8" fill="url(#paint0_linear_1_50)"/>
<rect x="1.05" y="1.05" width="232.9" height="53.9" rx="6.95" stroke="white" stroke-opacity="0.15" stroke-width="2.1"/>
<g filter="url(#filter0_d_1_50)">
<path d="M13.2841 9.875C12.4848 9.875 11.8854 10.6077 12.0186 11.3403L17.4136 44.3762C17.5468 45.2422 18.2794 45.8415 19.1453 45.8415H45.2544C45.8539 45.8415 46.3867 45.3754 46.5199 44.7759L51.9814 11.4069C52.1147 10.6077 51.5152 9.94162 50.716 9.94162L13.2841 9.875ZM36.1962 33.7195H27.8705L25.6725 21.9305H38.2609L36.1962 33.7195Z" fill="#2684FF"/>
<path d="M50.183 21.9305H38.1942L36.196 33.7195H27.8703L18.0795 45.3754C18.0795 45.3754 18.5457 45.775 19.2118 45.775H45.3209C45.9204 45.775 46.4532 45.3087 46.5864 44.7092L50.183 21.9305Z" fill="url(#paint1_linear_1_50)"/>
</g>
<g filter="url(#filter1_d_1_50)">
<path d="M61.2784 24.5V12.8636H65.5398C66.3655 12.8636 67.0492 13 67.5909 13.2727C68.1326 13.5417 68.5379 13.9072 68.8068 14.3693C69.0757 14.8276 69.2102 15.3447 69.2102 15.9204C69.2102 16.4053 69.1212 16.8144 68.9432 17.1477C68.7651 17.4773 68.5265 17.7424 68.2273 17.9432C67.9318 18.1401 67.606 18.2841 67.25 18.375V18.4886C67.6363 18.5076 68.0132 18.6326 68.3807 18.8636C68.7519 19.0909 69.0587 19.4148 69.3011 19.8352C69.5435 20.2557 69.6648 20.767 69.6648 21.3693C69.6648 21.964 69.5246 22.4981 69.2443 22.9716C68.9678 23.4413 68.5398 23.8144 67.9602 24.0909C67.3807 24.3636 66.6401 24.5 65.7386 24.5H61.2784ZM63.0341 22.9943H65.5682C66.4091 22.9943 67.0113 22.8314 67.375 22.5057C67.7386 22.1799 67.9204 21.7727 67.9204 21.2841C67.9204 20.9167 67.8276 20.5795 67.642 20.2727C67.4564 19.9659 67.1913 19.7216 66.8466 19.5398C66.5057 19.3579 66.1004 19.267 65.6307 19.267H63.0341V22.9943ZM63.0341 17.8977H65.3863C65.7803 17.8977 66.1345 17.822 66.4488 17.6704C66.767 17.5189 67.0189 17.3068 67.2045 17.0341C67.3939 16.7576 67.4886 16.4318 67.4886 16.0568C67.4886 15.5758 67.3201 15.1723 66.9829 14.8466C66.6458 14.5208 66.1288 14.3579 65.4318 14.3579H63.0341V17.8977ZM77.1392 20.8807V15.7727H78.8437V24.5H77.1733V22.9886H77.0824C76.8816 23.4545 76.5596 23.8428 76.1165 24.1534C75.6771 24.4602 75.1297 24.6136 74.4744 24.6136C73.9138 24.6136 73.4176 24.4905 72.9858 24.2443C72.5577 23.9943 72.2206 23.625 71.9744 23.1364C71.732 22.6477 71.6108 22.0436 71.6108 21.3239V15.7727H73.3096V21.1193C73.3096 21.714 73.4744 22.1875 73.804 22.5398C74.1335 22.892 74.5615 23.0682 75.088 23.0682C75.4062 23.0682 75.7225 22.9886 76.0369 22.8295C76.3551 22.6704 76.6184 22.4299 76.8267 22.1079C77.0388 21.786 77.143 21.3769 77.1392 20.8807ZM81.1264 24.5V15.7727H82.8253V24.5H81.1264ZM81.9844 14.4261C81.6889 14.4261 81.4351 14.3276 81.223 14.1307C81.0147 13.9299 80.9105 13.6913 80.9105 13.4148C80.9105 13.1345 81.0147 12.8958 81.223 12.6989C81.4351 12.4981 81.6889 12.3977 81.9844 12.3977C82.2798 12.3977 82.5317 12.4981 82.74 12.6989C82.9522 12.8958 83.0582 13.1345 83.0582 13.4148C83.0582 13.6913 82.9522 13.9299 82.74 14.1307C82.5317 14.3276 82.2798 14.4261 81.9844 14.4261ZM86.8096 12.8636V24.5H85.1108V12.8636H86.8096ZM93.169 15.7727V17.1364H88.402V15.7727H93.169ZM89.6804 13.6818H91.3792V21.9375C91.3792 22.267 91.4285 22.5151 91.527 22.6818C91.6254 22.8447 91.7523 22.9564 91.9076 23.017C92.0667 23.0739 92.2391 23.1023 92.4247 23.1023C92.5611 23.1023 92.6804 23.0928 92.7826 23.0739C92.8849 23.0549 92.9645 23.0398 93.0213 23.0284L93.3281 24.4318C93.2296 24.4697 93.0895 24.5076 92.9076 24.5454C92.7258 24.5871 92.4986 24.6098 92.2258 24.6136C91.7789 24.6212 91.3622 24.5417 90.9758 24.375C90.5895 24.2083 90.277 23.9508 90.0383 23.6023C89.7997 23.2538 89.6804 22.8163 89.6804 22.2898V13.6818ZM101.175 24.5L98.6065 15.7727H100.362L102.072 22.1818H102.158L103.874 15.7727H105.629L107.334 22.1534H107.419L109.118 15.7727H110.874L108.311 24.5H106.578L104.805 18.1989H104.675L102.902 24.5H101.175ZM112.486 24.5V15.7727H114.185V24.5H112.486ZM113.344 14.4261C113.048 14.4261 112.794 14.3276 112.582 14.1307C112.374 13.9299 112.27 13.6913 112.27 13.4148C112.27 13.1345 112.374 12.8958 112.582 12.6989C112.794 12.4981 113.048 12.3977 113.344 12.3977C113.639 12.3977 113.891 12.4981 114.099 12.6989C114.312 12.8958 114.418 13.1345 114.418 13.4148C114.418 13.6913 114.312 13.9299 114.099 14.1307C113.891 14.3276 113.639 14.4261 113.344 14.4261ZM120.544 15.7727V17.1364H115.777V15.7727H120.544ZM117.055 13.6818H118.754V21.9375C118.754 22.267 118.803 22.5151 118.902 22.6818C119 22.8447 119.127 22.9564 119.283 23.017C119.442 23.0739 119.614 23.1023 119.8 23.1023C119.936 23.1023 120.055 23.0928 120.158 23.0739C120.26 23.0549 120.339 23.0398 120.396 23.0284L120.703 24.4318C120.605 24.4697 120.464 24.5076 120.283 24.5454C120.101 24.5871 119.874 24.6098 119.601 24.6136C119.154 24.6212 118.737 24.5417 118.351 24.375C117.964 24.2083 117.652 23.9508 117.413 23.6023C117.175 23.2538 117.055 22.8163 117.055 22.2898V13.6818ZM124.31 19.3182V24.5H122.611V12.8636H124.287V17.1932H124.395C124.599 16.7235 124.912 16.3504 125.332 16.0739C125.753 15.7973 126.302 15.6591 126.98 15.6591C127.579 15.6591 128.101 15.7822 128.548 16.0284C128.999 16.2746 129.348 16.642 129.594 17.1307C129.844 17.6155 129.969 18.2216 129.969 18.9489V24.5H128.27V19.1534C128.27 18.5133 128.105 18.017 127.776 17.6648C127.446 17.3087 126.988 17.1307 126.401 17.1307C125.999 17.1307 125.639 17.2159 125.321 17.3864C125.007 17.5568 124.758 17.8068 124.577 18.1364C124.399 18.4621 124.31 18.8561 124.31 19.3182Z" fill="#E8E8E8"/>
<path d="M60.9357 43.5V31.1364H66.0912C67.0169 31.1364 67.7916 31.2672 68.4155 31.5288C69.0433 31.7904 69.5142 32.1566 69.8281 32.6275C70.1461 33.0984 70.305 33.6437 70.305 34.2635C70.305 34.7344 70.2064 35.1549 70.0092 35.5252C69.812 35.8914 69.5403 36.1953 69.1942 36.4368C68.8481 36.6783 68.4477 36.8473 67.9929 36.9439V37.0646C68.4919 37.0888 68.9528 37.2236 69.3753 37.4691C69.8019 37.7146 70.144 38.0567 70.4016 38.4954C70.6592 38.93 70.788 39.4452 70.788 40.0408C70.788 40.7049 70.6189 41.2985 70.2809 41.8217C69.9428 42.3409 69.4538 42.7514 68.8139 43.0533C68.174 43.3511 67.3972 43.5 66.4836 43.5H60.9357ZM63.924 41.0913H65.7713C66.4193 41.0913 66.8962 40.9685 67.202 40.723C67.5119 40.4775 67.6669 40.1354 67.6669 39.6967C67.6669 39.3788 67.5924 39.1051 67.4435 38.8757C67.2946 38.6423 67.0833 38.4632 66.8096 38.3384C66.536 38.2096 66.208 38.1452 65.8256 38.1452H63.924V41.0913ZM63.924 36.2195H65.5781C65.9041 36.2195 66.1939 36.1651 66.4474 36.0565C66.701 35.9478 66.8982 35.7908 67.039 35.5856C67.1839 35.3803 67.2564 35.1328 67.2564 34.843C67.2564 34.4285 67.1095 34.1025 66.8157 33.865C66.5219 33.6276 66.1255 33.5089 65.6264 33.5089H63.924V36.2195ZM72.2248 43.5V34.2273H75.1768V43.5H72.2248ZM73.7038 33.1467C73.2893 33.1467 72.9331 33.0098 72.6353 32.7361C72.3375 32.4584 72.1885 32.1244 72.1885 31.734C72.1885 31.3476 72.3375 31.0176 72.6353 30.744C72.9331 30.4663 73.2893 30.3274 73.7038 30.3274C74.1224 30.3274 74.4786 30.4663 74.7724 30.744C75.0702 31.0176 75.2191 31.3476 75.2191 31.734C75.2191 32.1244 75.0702 32.4584 74.7724 32.7361C74.4786 33.0098 74.1224 33.1467 73.7038 33.1467ZM82.2898 34.2273V36.4006H76.4401V34.2273H82.2898ZM77.6656 32.0057H80.6176V40.5842C80.6176 40.7653 80.6458 40.9122 80.7021 41.0248C80.7625 41.1335 80.849 41.212 80.9617 41.2603C81.0744 41.3046 81.2092 41.3267 81.3662 41.3267C81.4789 41.3267 81.5976 41.3166 81.7224 41.2965C81.8512 41.2724 81.9477 41.2522 82.0121 41.2361L82.4589 43.3672C82.318 43.4074 82.1188 43.4577 81.8612 43.5181C81.6077 43.5785 81.3038 43.6167 80.9496 43.6328C80.2574 43.665 79.6638 43.5845 79.1687 43.3913C78.6777 43.1941 78.3014 42.8882 78.0398 42.4737C77.7823 42.0592 77.6575 41.538 77.6656 40.9101V32.0057ZM83.9953 43.5V31.1364H86.9473V35.815H87.0077C87.1284 35.5333 87.2995 35.2616 87.5208 35C87.7462 34.7384 88.032 34.5251 88.3781 34.3601C88.7282 34.191 89.1468 34.1065 89.6338 34.1065C90.2777 34.1065 90.8794 34.2756 91.4388 34.6136C92.0023 34.9517 92.457 35.4729 92.8032 36.1772C93.1493 36.8815 93.3223 37.779 93.3223 38.8697C93.3223 39.9201 93.1553 40.7995 92.8213 41.5078C92.4912 42.2161 92.0445 42.7474 91.4811 43.1016C90.9216 43.4557 90.2998 43.6328 89.6157 43.6328C89.1488 43.6328 88.7443 43.5563 88.4022 43.4034C88.0601 43.2505 87.7724 43.0492 87.539 42.7997C87.3095 42.5502 87.1325 42.2825 87.0077 41.9968H86.9171V43.5H83.9953ZM86.887 38.8636C86.887 39.3627 86.9534 39.7973 87.0862 40.1676C87.223 40.5379 87.4182 40.8256 87.6718 41.0309C87.9293 41.2321 88.2372 41.3327 88.5954 41.3327C88.9576 41.3327 89.2655 41.2321 89.5191 41.0309C89.7726 40.8256 89.9638 40.5379 90.0926 40.1676C90.2254 39.7973 90.2918 39.3627 90.2918 38.8636C90.2918 38.3646 90.2254 37.9319 90.0926 37.5657C89.9638 37.1994 89.7726 36.9157 89.5191 36.7145C89.2695 36.5132 88.9617 36.4126 88.5954 36.4126C88.2332 36.4126 87.9253 36.5112 87.6718 36.7084C87.4182 36.9056 87.223 37.1874 87.0862 37.5536C86.9534 37.9199 86.887 38.3565 86.887 38.8636ZM100.852 39.4975V34.2273H103.798V43.5H100.985V41.7734H100.888C100.683 42.3409 100.333 42.7917 99.8377 43.1257C99.3467 43.4557 98.7531 43.6207 98.0568 43.6207C97.4249 43.6207 96.8695 43.4758 96.3906 43.1861C95.9117 42.8963 95.5394 42.4918 95.2738 41.9726C95.0081 41.4494 94.8733 40.8377 94.8693 40.1374V34.2273H97.8214V39.5579C97.8254 40.061 97.9582 40.4574 98.2198 40.7471C98.4814 41.0369 98.8376 41.1818 99.2883 41.1818C99.5821 41.1818 99.8457 41.1174 100.079 40.9886C100.317 40.8558 100.504 40.6646 100.641 40.4151C100.781 40.1616 100.852 39.8557 100.852 39.4975ZM110.005 43.6751C109.027 43.6751 108.188 43.4738 107.488 43.0714C106.792 42.6689 106.256 42.1095 105.882 41.3931C105.508 40.6727 105.321 39.8396 105.321 38.8938C105.321 37.944 105.508 37.1109 105.882 36.3945C106.26 35.6741 106.798 35.1127 107.494 34.7102C108.194 34.3078 109.029 34.1065 109.999 34.1065C110.857 34.1065 111.603 34.2615 112.239 34.5714C112.879 34.8813 113.378 35.3199 113.736 35.8874C114.098 36.4509 114.29 37.1129 114.31 37.8736H111.551C111.494 37.3987 111.334 37.0264 111.068 36.7567C110.806 36.4871 110.464 36.3523 110.042 36.3523C109.7 36.3523 109.4 36.4489 109.142 36.642C108.885 36.8312 108.683 37.1129 108.538 37.4872C108.398 37.8575 108.327 38.3163 108.327 38.8636C108.327 39.411 108.398 39.8738 108.538 40.2521C108.683 40.6264 108.885 40.9101 109.142 41.1033C109.4 41.2925 109.7 41.3871 110.042 41.3871C110.315 41.3871 110.557 41.3287 110.766 41.212C110.979 41.0953 111.154 40.9242 111.291 40.6989C111.428 40.4694 111.515 40.1918 111.551 39.8658H114.31C114.282 40.6304 114.09 41.2985 113.736 41.87C113.386 42.4415 112.893 42.8862 112.257 43.2042C111.625 43.5181 110.875 43.6751 110.005 43.6751ZM118.483 41.0671L118.495 37.5476H118.905L121.513 34.2273H124.858L120.982 38.9844H120.203L118.483 41.0671ZM115.82 43.5V31.1364H118.773V43.5H115.82ZM121.58 43.5L119.153 39.6484L121.097 37.5536L124.991 43.5H121.58ZM129.867 43.6751C128.897 43.6751 128.06 43.4839 127.356 43.1016C126.655 42.7152 126.116 42.1658 125.738 41.4535C125.363 40.7371 125.176 39.8859 125.176 38.8998C125.176 37.942 125.365 37.1049 125.744 36.3885C126.122 35.6681 126.655 35.1087 127.343 34.7102C128.032 34.3078 128.843 34.1065 129.776 34.1065C130.436 34.1065 131.04 34.2092 131.587 34.4144C132.135 34.6197 132.608 34.9235 133.006 35.326C133.405 35.7284 133.714 36.2255 133.936 36.8171C134.157 37.4047 134.268 38.0788 134.268 38.8395V39.576H126.209V37.8615H131.521C131.517 37.5476 131.443 37.2679 131.298 37.0224C131.153 36.7769 130.954 36.5857 130.7 36.4489C130.45 36.308 130.163 36.2376 129.837 36.2376C129.507 36.2376 129.211 36.312 128.949 36.4609C128.688 36.6058 128.48 36.805 128.327 37.0586C128.175 37.3081 128.094 37.5918 128.086 37.9098V39.6545C128.086 40.0328 128.16 40.3648 128.309 40.6506C128.458 40.9323 128.67 41.1516 128.943 41.3086C129.217 41.4655 129.543 41.544 129.921 41.544C130.183 41.544 130.42 41.5078 130.634 41.4354C130.847 41.3629 131.03 41.2563 131.183 41.1154C131.336 40.9745 131.451 40.8015 131.527 40.5962L134.238 40.6747C134.125 41.2824 133.877 41.8117 133.495 42.2624C133.117 42.7092 132.62 43.0573 132.004 43.3068C131.388 43.5523 130.676 43.6751 129.867 43.6751ZM141.01 34.2273V36.4006H135.16V34.2273H141.01ZM136.385 32.0057H139.337V40.5842C139.337 40.7653 139.365 40.9122 139.422 41.0248C139.482 41.1335 139.569 41.212 139.681 41.2603C139.794 41.3046 139.929 41.3267 140.086 41.3267C140.199 41.3267 140.317 41.3166 140.442 41.2965C140.571 41.2724 140.667 41.2522 140.732 41.2361L141.179 43.3672C141.038 43.4074 140.839 43.4577 140.581 43.5181C140.327 43.5785 140.024 43.6167 139.669 43.6328C138.977 43.665 138.383 43.5845 137.888 43.3913C137.397 43.1941 137.021 42.8882 136.76 42.4737C136.502 42.0592 136.377 41.538 136.385 40.9101V32.0057ZM146.168 43.5V31.1364H151.275C152.201 31.1364 153 31.3175 153.672 31.6797C154.348 32.0379 154.869 32.5389 155.236 33.1829C155.602 33.8228 155.785 34.5673 155.785 35.4165C155.785 36.2698 155.598 37.0163 155.224 37.6562C154.853 38.2921 154.324 38.7851 153.636 39.1353C152.948 39.4854 152.131 39.6605 151.185 39.6605H148.034V37.3061H150.629C151.08 37.3061 151.456 37.2276 151.758 37.0707C152.064 36.9137 152.296 36.6944 152.453 36.4126C152.61 36.1269 152.688 35.7949 152.688 35.4165C152.688 35.0342 152.61 34.7042 152.453 34.4265C152.296 34.1448 152.064 33.9274 151.758 33.7745C151.452 33.6216 151.076 33.5451 150.629 33.5451H149.156V43.5H146.168ZM157.258 43.5V34.2273H160.21V43.5H157.258ZM158.737 33.1467C158.322 33.1467 157.966 33.0098 157.668 32.7361C157.371 32.4584 157.222 32.1244 157.222 31.734C157.222 31.3476 157.371 31.0176 157.668 30.744C157.966 30.4663 158.322 30.3274 158.737 30.3274C159.156 30.3274 159.512 30.4663 159.806 30.744C160.103 31.0176 160.252 31.3476 160.252 31.734C160.252 32.1244 160.103 32.4584 159.806 32.7361C159.512 33.0098 159.156 33.1467 158.737 33.1467ZM162.089 46.9773V34.2273H165.011V35.815H165.101C165.222 35.5333 165.393 35.2616 165.615 35C165.84 34.7384 166.126 34.5251 166.472 34.3601C166.822 34.191 167.241 34.1065 167.727 34.1065C168.371 34.1065 168.973 34.2756 169.533 34.6136C170.096 34.9517 170.551 35.4729 170.897 36.1772C171.243 36.8815 171.416 37.779 171.416 38.8697C171.416 39.9201 171.249 40.7995 170.915 41.5078C170.585 42.2161 170.138 42.7474 169.575 43.1016C169.015 43.4557 168.394 43.6328 167.709 43.6328C167.243 43.6328 166.838 43.5563 166.496 43.4034C166.154 43.2505 165.866 43.0492 165.633 42.7997C165.403 42.5502 165.226 42.2825 165.101 41.9968H165.041V46.9773H162.089ZM164.981 38.8636C164.981 39.3627 165.047 39.7973 165.18 40.1676C165.317 40.5379 165.512 40.8256 165.765 41.0309C166.023 41.2321 166.331 41.3327 166.689 41.3327C167.051 41.3327 167.359 41.2321 167.613 41.0309C167.866 40.8256 168.058 40.5379 168.186 40.1676C168.319 39.7973 168.386 39.3627 168.386 38.8636C168.386 38.3646 168.319 37.9319 168.186 37.5657C168.058 37.1994 167.866 36.9157 167.613 36.7145C167.363 36.5132 167.055 36.4126 166.689 36.4126C166.327 36.4126 166.019 36.5112 165.765 36.7084C165.512 36.9056 165.317 37.1874 165.18 37.5536C165.047 37.9199 164.981 38.3565 164.981 38.8636ZM177.298 43.6751C176.328 43.6751 175.49 43.4839 174.786 43.1016C174.086 42.7152 173.547 42.1658 173.168 41.4535C172.794 40.7371 172.607 39.8859 172.607 38.8998C172.607 37.942 172.796 37.1049 173.174 36.3885C173.553 35.6681 174.086 35.1087 174.774 34.7102C175.462 34.3078 176.273 34.1065 177.207 34.1065C177.867 34.1065 178.471 34.2092 179.018 34.4144C179.565 34.6197 180.038 34.9235 180.437 35.326C180.835 35.7284 181.145 36.2255 181.366 36.8171C181.588 37.4047 181.698 38.0788 181.698 38.8395V39.576H173.639V37.8615H178.952C178.948 37.5476 178.873 37.2679 178.728 37.0224C178.583 36.7769 178.384 36.5857 178.131 36.4489C177.881 36.308 177.593 36.2376 177.267 36.2376C176.937 36.2376 176.642 36.312 176.38 36.4609C176.118 36.6058 175.911 36.805 175.758 37.0586C175.605 37.3081 175.525 37.5918 175.517 37.9098V39.6545C175.517 40.0328 175.591 40.3648 175.74 40.6506C175.889 40.9323 176.1 41.1516 176.374 41.3086C176.648 41.4655 176.974 41.544 177.352 41.544C177.613 41.544 177.851 41.5078 178.064 41.4354C178.278 41.3629 178.461 41.2563 178.614 41.1154C178.767 40.9745 178.881 40.8015 178.958 40.5962L181.668 40.6747C181.556 41.2824 181.308 41.8117 180.926 42.2624C180.547 42.7092 180.05 43.0573 179.435 43.3068C178.819 43.5523 178.106 43.6751 177.298 43.6751ZM186.158 31.1364V43.5H183.206V31.1364H186.158ZM188.037 43.5V34.2273H190.989V43.5H188.037ZM189.516 33.1467C189.102 33.1467 188.746 33.0098 188.448 32.7361C188.15 32.4584 188.001 32.1244 188.001 31.734C188.001 31.3476 188.15 31.0176 188.448 30.744C188.746 30.4663 189.102 30.3274 189.516 30.3274C189.935 30.3274 190.291 30.4663 190.585 30.744C190.883 31.0176 191.032 31.3476 191.032 31.734C191.032 32.1244 190.883 32.4584 190.585 32.7361C190.291 33.0098 189.935 33.1467 189.516 33.1467ZM195.82 38.2116V43.5H192.868V34.2273H195.675V35.9297H195.778C195.983 35.3622 196.333 34.9175 196.829 34.5955C197.324 34.2695 197.913 34.1065 198.597 34.1065C199.249 34.1065 199.815 34.2534 200.294 34.5472C200.777 34.837 201.151 35.2435 201.417 35.7667C201.686 36.2859 201.819 36.8936 201.815 37.5898V43.5H198.863V38.1694C198.867 37.6542 198.736 37.2518 198.471 36.962C198.209 36.6722 197.845 36.5273 197.378 36.5273C197.068 36.5273 196.794 36.5958 196.557 36.7326C196.323 36.8654 196.142 37.0566 196.014 37.3061C195.889 37.5556 195.824 37.8575 195.82 38.2116ZM207.977 43.6751C207.007 43.6751 206.17 43.4839 205.466 43.1016C204.766 42.7152 204.226 42.1658 203.848 41.4535C203.474 40.7371 203.287 39.8859 203.287 38.8998C203.287 37.942 203.476 37.1049 203.854 36.3885C204.232 35.6681 204.766 35.1087 205.454 34.7102C206.142 34.3078 206.953 34.1065 207.887 34.1065C208.547 34.1065 209.15 34.2092 209.698 34.4144C210.245 34.6197 210.718 34.9235 211.116 35.326C211.515 35.7284 211.825 36.2255 212.046 36.8171C212.267 37.4047 212.378 38.0788 212.378 38.8395V39.576H204.319V37.8615H209.631C209.627 37.5476 209.553 37.2679 209.408 37.0224C209.263 36.7769 209.064 36.5857 208.81 36.4489C208.561 36.308 208.273 36.2376 207.947 36.2376C207.617 36.2376 207.321 36.312 207.06 36.4609C206.798 36.6058 206.591 36.805 206.438 37.0586C206.285 37.3081 206.204 37.5918 206.196 37.9098V39.6545C206.196 40.0328 206.271 40.3648 206.42 40.6506C206.569 40.9323 206.78 41.1516 207.054 41.3086C207.327 41.4655 207.653 41.544 208.032 41.544C208.293 41.544 208.531 41.5078 208.744 41.4354C208.957 41.3629 209.14 41.2563 209.293 41.1154C209.446 40.9745 209.561 40.8015 209.637 40.5962L212.348 40.6747C212.235 41.2824 211.988 41.8117 211.605 42.2624C211.227 42.7092 210.73 43.0573 210.114 43.3068C209.499 43.5523 208.786 43.6751 207.977 43.6751ZM221.981 37.0586L219.271 37.131C219.243 36.9378 219.166 36.7668 219.041 36.6179C218.917 36.465 218.754 36.3462 218.552 36.2617C218.355 36.1732 218.126 36.1289 217.864 36.1289C217.522 36.1289 217.23 36.1973 216.989 36.3342C216.751 36.471 216.635 36.6561 216.639 36.8895C216.635 37.0707 216.707 37.2276 216.856 37.3604C217.009 37.4932 217.281 37.5999 217.671 37.6804L219.458 38.0185C220.384 38.1955 221.072 38.4893 221.523 38.8998C221.977 39.3104 222.207 39.8537 222.211 40.5298C222.207 41.1657 222.018 41.7191 221.643 42.19C221.273 42.6609 220.766 43.0271 220.122 43.2887C219.478 43.5463 218.742 43.6751 217.912 43.6751C216.588 43.6751 215.544 43.4034 214.779 42.8601C214.019 42.3127 213.584 41.5802 213.475 40.6626L216.391 40.5902C216.456 40.9283 216.623 41.1858 216.892 41.3629C217.162 41.54 217.506 41.6285 217.925 41.6285C218.303 41.6285 218.611 41.5581 218.848 41.4172C219.086 41.2764 219.206 41.0892 219.21 40.8558C219.206 40.6465 219.114 40.4795 218.933 40.3547C218.752 40.226 218.468 40.1253 218.082 40.0529L216.464 39.745C215.534 39.576 214.842 39.2641 214.387 38.8093C213.932 38.3505 213.707 37.7669 213.711 37.0586C213.707 36.4388 213.872 35.9096 214.206 35.4709C214.54 35.0282 215.015 34.6901 215.631 34.4567C216.246 34.2232 216.973 34.1065 217.81 34.1065C219.066 34.1065 220.056 34.3701 220.78 34.8974C221.504 35.4206 221.905 36.141 221.981 37.0586Z" fill="#2684FF"/>
</g>
<defs>
<filter id="filter0_d_1_50" x="6.28571" y="2.28571" width="51.4286" height="51.4286" filterUnits="userSpaceOnUse" color-interpolation-filters="sRGB">
<feFlood flood-opacity="0" result="BackgroundImageFix"/>
<feColorMatrix in="SourceAlpha" type="matrix" values="0 0 0 0 0 0 0 0 0 0 0 0 0 0 0 0 0 0 127 0" result="hardAlpha"/>
<feOffset/>
<feGaussianBlur stdDeviation="2.85714"/>
<feComposite in2="hardAlpha" operator="out"/>
<feColorMatrix type="matrix" values="0 0 0 0 0 0 0 0 0 0 0 0 0 0 0 0 0 0 0.25 0"/>
<feBlend mode="normal" in2="BackgroundImageFix" result="effect1_dropShadow_1_50"/>
<feBlend mode="normal" in="SourceGraphic" in2="effect1_dropShadow_1_50" result="shape"/>
</filter>
<filter id="filter1_d_1_50" x="54.4" y="3.9" width="174.2" height="48.6773" filterUnits="userSpaceOnUse" color-interpolation-filters="sRGB">
<feFlood flood-opacity="0" result="BackgroundImageFix"/>
<feColorMatrix in="SourceAlpha" type="matrix" values="0 0 0 0 0 0 0 0 0 0 0 0 0 0 0 0 0 0 127 0" result="hardAlpha"/>
<feOffset/>
<feGaussianBlur stdDeviation="2.8"/>
<feComposite in2="hardAlpha" operator="out"/>
<feColorMatrix type="matrix" values="0 0 0 0 0 0 0 0 0 0 0 0 0 0 0 0 0 0 0.25 0"/>
<feBlend mode="normal" in2="BackgroundImageFix" result="effect1_dropShadow_1_50"/>
<feBlend mode="normal" in="SourceGraphic" in2="effect1_dropShadow_1_50" result="shape"/>
</filter>
<linearGradient id="paint0_linear_1_50" x1="117.5" y1="0" x2="117.5" y2="56" gradientUnits="userSpaceOnUse">
<stop stop-color="#003C8B"/>
<stop offset="1" stop-color="#001531"/>
</linearGradient>
<linearGradient id="paint1_linear_1_50" x1="52.9875" y1="25.2525" x2="33.12" y2="40.761" gradientUnits="userSpaceOnUse">
<stop offset="0.176" stop-color="#0052CC"/>
<stop offset="1" stop-color="#2684FF"/>
</linearGradient>
</defs>
</svg>
