<svg width="212" height="40" viewBox="0 0 212 40" fill="none" xmlns="http://www.w3.org/2000/svg">
<rect width="212.001" height="40.0014" rx="8" fill="url(#paint0_linear_1_56)"/>
<rect x="1.07143" y="1.07143" width="209.858" height="37.8585" rx="6.92857" stroke="white" stroke-opacity="0.15" stroke-width="2.14286"/>
<g filter="url(#filter0_d_1_56)">
<path d="M36 20C36 12.268 29.732 6 22 6C14.268 6 8 12.268 8 20C8 27.732 14.268 34 22 34C29.732 34 36 27.732 36 20Z" fill="url(#paint1_linear_1_56)"/>
<path d="M15.5783 20.5976L25.1214 11.1202C25.2996 10.9431 25.5866 11.1586 25.4662 11.3791L21.9144 17.8891C21.835 18.0342 21.9402 18.2114 22.1056 18.2114H28.2438C28.4415 18.2114 28.537 18.4536 28.3924 18.5886L17.636 28.6274C17.4432 28.8074 17.1561 28.5537 17.311 28.3402L22.4028 21.3159C22.5072 21.1719 22.4043 20.9701 22.2264 20.9701H15.7318C15.5374 20.9701 15.4403 20.7346 15.5783 20.5976Z" fill="white"/>
</g>
<g filter="url(#filter1_d_1_56)">
<path d="M43.3597 26.5007V14.1371H47.8874C48.7648 14.1371 49.4912 14.282 50.0667 14.5717C50.6423 14.8575 51.0729 15.2458 51.3586 15.7369C51.6444 16.2238 51.7873 16.7732 51.7873 17.3849C51.7873 17.9001 51.6927 18.3347 51.5035 18.6889C51.3144 19.0391 51.0608 19.3208 50.7429 19.5341C50.429 19.7434 50.0828 19.8963 49.7045 19.9929V20.1136C50.115 20.1337 50.5155 20.2666 50.9059 20.5121C51.3003 20.7535 51.6263 21.0976 51.8839 21.5444C52.1414 21.9911 52.2702 22.5344 52.2702 23.1743C52.2702 23.8062 52.1213 24.3737 51.8235 24.8768C51.5297 25.3758 51.0749 25.7722 50.4591 26.066C49.8434 26.3558 49.0566 26.5007 48.0987 26.5007H43.3597ZM45.2251 24.9009H47.9176C48.8111 24.9009 49.451 24.7279 49.8373 24.3817C50.2237 24.0356 50.4169 23.603 50.4169 23.0838C50.4169 22.6934 50.3183 22.3352 50.1211 22.0092C49.9239 21.6832 49.6421 21.4236 49.2759 21.2305C48.9137 21.0373 48.483 20.9407 47.984 20.9407H45.2251V24.9009ZM45.2251 19.4858H47.7244C48.143 19.4858 48.5193 19.4053 48.8533 19.2443C49.1914 19.0833 49.459 18.8579 49.6562 18.5682C49.8575 18.2744 49.9581 17.9283 49.9581 17.5298C49.9581 17.0187 49.779 16.5901 49.4208 16.244C49.0626 15.8978 48.5132 15.7248 47.7727 15.7248H45.2251V19.4858ZM60.2118 22.6552V17.228H62.0229V26.5007H60.248V24.8949H60.1514C59.9381 25.3899 59.596 25.8024 59.1251 26.1324C58.6583 26.4584 58.0767 26.6214 57.3805 26.6214C56.7848 26.6214 56.2576 26.4906 55.7988 26.229C55.344 25.9634 54.9858 25.571 54.7242 25.0518C54.4667 24.5327 54.3379 23.8907 54.3379 23.1261V17.228H56.1429V22.9087C56.1429 23.5406 56.318 24.0437 56.6681 24.418C57.0183 24.7922 57.473 24.9794 58.0325 24.9794C58.3705 24.9794 58.7066 24.8949 59.0406 24.7258C59.3787 24.5568 59.6584 24.3012 59.8798 23.9591C60.1051 23.6171 60.2158 23.1824 60.2118 22.6552ZM64.4482 26.5007V17.228H66.2533V26.5007H64.4482ZM65.3598 15.7972C65.0459 15.7972 64.7762 15.6926 64.5508 15.4833C64.3295 15.27 64.2188 15.0164 64.2188 14.7226C64.2188 14.4248 64.3295 14.1713 64.5508 13.962C64.7762 13.7487 65.0459 13.642 65.3598 13.642C65.6737 13.642 65.9413 13.7487 66.1627 13.962C66.3881 14.1713 66.5008 14.4248 66.5008 14.7226C66.5008 15.0164 66.3881 15.27 66.1627 15.4833C65.9413 15.6926 65.6737 15.7972 65.3598 15.7972ZM70.4867 14.1371V26.5007H68.6816V14.1371H70.4867ZM77.2435 17.228V18.6768H72.1785V17.228H77.2435ZM73.5368 15.0064H75.3419V23.778C75.3419 24.1282 75.3942 24.3918 75.4988 24.5689C75.6035 24.7419 75.7383 24.8607 75.9033 24.9251C76.0723 24.9854 76.2554 25.0156 76.4526 25.0156C76.5975 25.0156 76.7243 25.0056 76.833 24.9854C76.9416 24.9653 77.0262 24.9492 77.0865 24.9371L77.4125 26.4283C77.3079 26.4685 77.159 26.5087 76.9658 26.549C76.7726 26.5933 76.5311 26.6174 76.2414 26.6214C75.7664 26.6295 75.3237 26.545 74.9132 26.3679C74.5027 26.1908 74.1707 25.9171 73.9171 25.5469C73.6636 25.1766 73.5368 24.7118 73.5368 24.1523V15.0064ZM85.7495 26.5007L83.0208 17.228H84.8862L86.7034 24.0376H86.7939L88.6171 17.228H90.4825L92.2936 24.0074H92.3841L94.1891 17.228H96.0546L93.3319 26.5007H91.4906L89.6071 19.8057H89.4683L87.5847 26.5007H85.7495ZM97.7675 26.5007V17.228H99.5726V26.5007H97.7675ZM98.6791 15.7972C98.3652 15.7972 98.0955 15.6926 97.8702 15.4833C97.6488 15.27 97.5381 15.0164 97.5381 14.7226C97.5381 14.4248 97.6488 14.1713 97.8702 13.962C98.0955 13.7487 98.3652 13.642 98.6791 13.642C98.993 13.642 99.2607 13.7487 99.482 13.962C99.7074 14.1713 99.8201 14.4248 99.8201 14.7226C99.8201 15.0164 99.7074 15.27 99.482 15.4833C99.2607 15.6926 98.993 15.7972 98.6791 15.7972ZM106.329 17.228V18.6768H101.264V17.228H106.329ZM102.623 15.0064H104.428V23.778C104.428 24.1282 104.48 24.3918 104.585 24.5689C104.689 24.7419 104.824 24.8607 104.989 24.9251C105.158 24.9854 105.341 25.0156 105.539 25.0156C105.683 25.0156 105.81 25.0056 105.919 24.9854C106.028 24.9653 106.112 24.9492 106.172 24.9371L106.498 26.4283C106.394 26.4685 106.245 26.5087 106.052 26.549C105.859 26.5933 105.617 26.6174 105.327 26.6214C104.852 26.6295 104.41 26.545 103.999 26.3679C103.589 26.1908 103.257 25.9171 103.003 25.5469C102.75 25.1766 102.623 24.7118 102.623 24.1523V15.0064ZM110.33 20.995V26.5007H108.525V14.1371H110.306V18.7372H110.421C110.638 18.2382 110.97 17.8417 111.417 17.5479C111.864 17.2541 112.447 17.1072 113.168 17.1072C113.804 17.1072 114.359 17.238 114.834 17.4996C115.313 17.7612 115.683 18.1516 115.945 18.6708C116.21 19.1859 116.343 19.8299 116.343 20.6026V26.5007H114.538V20.8199C114.538 20.1398 114.363 19.6126 114.013 19.2383C113.663 18.86 113.176 18.6708 112.552 18.6708C112.125 18.6708 111.743 18.7614 111.405 18.9425C111.071 19.1236 110.807 19.3892 110.614 19.7393C110.425 20.0855 110.33 20.504 110.33 20.995Z" fill="#E8E8E8"/>
<path d="M134.16 18.1165H131.141C131.101 17.8066 131.019 17.5269 130.894 17.2773C130.769 17.0278 130.604 16.8145 130.399 16.6374C130.193 16.4603 129.95 16.3255 129.668 16.2329C129.391 16.1364 129.083 16.0881 128.745 16.0881C128.145 16.0881 127.628 16.235 127.193 16.5288C126.762 16.8226 126.43 17.2471 126.197 17.8025C125.968 18.3579 125.853 19.0301 125.853 19.8189C125.853 20.6399 125.97 21.3281 126.203 21.8835C126.441 22.4349 126.773 22.8514 127.199 23.1332C127.63 23.4109 128.139 23.5497 128.727 23.5497C129.057 23.5497 129.356 23.5074 129.626 23.4229C129.9 23.3384 130.139 23.2157 130.344 23.0547C130.554 22.8897 130.725 22.6904 130.858 22.457C130.994 22.2196 131.089 21.9519 131.141 21.6541L134.16 21.6722C134.107 22.2196 133.948 22.7589 133.683 23.2901C133.421 23.8214 133.061 24.3063 132.602 24.745C132.143 25.1797 131.584 25.5258 130.924 25.7834C130.268 26.0409 129.515 26.1697 128.666 26.1697C127.547 26.1697 126.545 25.9242 125.66 25.4332C124.778 24.9382 124.082 24.2178 123.571 23.272C123.06 22.3262 122.804 21.1752 122.804 19.8189C122.804 18.4586 123.064 17.3055 123.583 16.3597C124.102 15.4139 124.805 14.6955 125.69 14.2045C126.575 13.7135 127.567 13.468 128.666 13.468C129.415 13.468 130.107 13.5727 130.743 13.782C131.379 13.9872 131.938 14.2891 132.421 14.6875C132.904 15.0819 133.296 15.5669 133.598 16.1424C133.9 16.7179 134.087 17.3759 134.16 18.1165ZM138.822 20.7123V26.0007H135.87V13.6371H138.725V18.4304H138.828C139.037 17.8589 139.379 17.4122 139.854 17.0902C140.333 16.7682 140.919 16.6072 141.611 16.6072C142.263 16.6072 142.83 16.7521 143.313 17.0419C143.796 17.3276 144.17 17.7321 144.436 18.2553C144.706 18.7785 144.839 19.3903 144.835 20.0905V26.0007H141.882V20.6701C141.887 20.1549 141.758 19.7525 141.496 19.4627C141.235 19.1729 140.866 19.028 140.391 19.028C140.081 19.028 139.808 19.0965 139.57 19.2333C139.337 19.3661 139.154 19.5573 139.021 19.8068C138.892 20.0563 138.826 20.3582 138.822 20.7123ZM149.291 26.1577C148.7 26.1577 148.174 26.0591 147.716 25.8618C147.261 25.6606 146.901 25.3588 146.635 24.9563C146.373 24.5498 146.243 24.0407 146.243 23.429C146.243 22.9138 146.333 22.4792 146.514 22.125C146.695 21.7708 146.945 21.4831 147.263 21.2617C147.581 21.0404 147.947 20.8733 148.362 20.7606C148.776 20.6439 149.219 20.5654 149.69 20.5252C150.217 20.4769 150.642 20.4266 150.964 20.3743C151.286 20.3179 151.519 20.2395 151.664 20.1388C151.813 20.0342 151.887 19.8873 151.887 19.6981V19.668C151.887 19.3581 151.781 19.1186 151.567 18.9496C151.354 18.7805 151.066 18.696 150.704 18.696C150.314 18.696 150 18.7805 149.762 18.9496C149.525 19.1186 149.374 19.352 149.309 19.6498L146.587 19.5533C146.667 18.9898 146.875 18.4867 147.209 18.044C147.547 17.5973 148.009 17.2471 148.597 16.9936C149.189 16.736 149.899 16.6072 150.728 16.6072C151.32 16.6072 151.865 16.6777 152.364 16.8185C152.863 16.9554 153.298 17.1566 153.668 17.4222C154.038 17.6838 154.324 18.0058 154.525 18.3881C154.731 18.7705 154.833 19.2071 154.833 19.6981V26.0007H152.056V24.7088H151.984C151.819 25.0227 151.607 25.2883 151.35 25.5057C151.096 25.723 150.797 25.886 150.45 25.9947C150.108 26.1033 149.722 26.1577 149.291 26.1577ZM150.203 24.2258C150.521 24.2258 150.807 24.1614 151.06 24.0327C151.318 23.9039 151.523 23.7268 151.676 23.5014C151.829 23.272 151.905 23.0064 151.905 22.7045V21.8231C151.821 21.8674 151.718 21.9077 151.597 21.9439C151.481 21.9801 151.352 22.0143 151.211 22.0465C151.07 22.0787 150.925 22.1069 150.776 22.131C150.627 22.1552 150.485 22.1773 150.348 22.1974C150.07 22.2417 149.833 22.3101 149.635 22.4027C149.442 22.4953 149.293 22.616 149.189 22.7649C149.088 22.9098 149.038 23.0828 149.038 23.2841C149.038 23.59 149.146 23.8234 149.364 23.9844C149.585 24.1453 149.865 24.2258 150.203 24.2258ZM159.301 23.5678L159.313 20.0483H159.723L162.331 16.728H165.676L161.8 21.4851H161.021L159.301 23.5678ZM156.638 26.0007V13.6371H159.59V26.0007H156.638ZM162.397 26.0007L159.971 22.1491L161.915 20.0543L165.808 26.0007H162.397ZM166.732 26.0007V16.728H169.6V18.4183H169.696C169.865 17.8066 170.141 17.3518 170.523 17.054C170.906 16.7521 171.35 16.6012 171.857 16.6012C171.994 16.6012 172.135 16.6113 172.28 16.6314C172.425 16.6475 172.56 16.6736 172.684 16.7099V19.2756C172.544 19.2273 172.358 19.189 172.129 19.1609C171.904 19.1327 171.702 19.1186 171.525 19.1186C171.175 19.1186 170.859 19.1971 170.578 19.354C170.3 19.507 170.08 19.7223 169.92 20C169.763 20.2737 169.684 20.5956 169.684 20.9659V26.0007H166.732ZM176.153 26.1577C175.561 26.1577 175.036 26.0591 174.577 25.8618C174.122 25.6606 173.762 25.3588 173.496 24.9563C173.235 24.5498 173.104 24.0407 173.104 23.429C173.104 22.9138 173.195 22.4792 173.376 22.125C173.557 21.7708 173.806 21.4831 174.124 21.2617C174.442 21.0404 174.808 20.8733 175.223 20.7606C175.637 20.6439 176.08 20.5654 176.551 20.5252C177.078 20.4769 177.503 20.4266 177.825 20.3743C178.147 20.3179 178.38 20.2395 178.525 20.1388C178.674 20.0342 178.749 19.8873 178.749 19.6981V19.668C178.749 19.3581 178.642 19.1186 178.429 18.9496C178.215 18.7805 177.927 18.696 177.565 18.696C177.175 18.696 176.861 18.7805 176.624 18.9496C176.386 19.1186 176.235 19.352 176.171 19.6498L173.448 19.5533C173.529 18.9898 173.736 18.4867 174.07 18.044C174.408 17.5973 174.871 17.2471 175.458 16.9936C176.05 16.736 176.76 16.6072 177.589 16.6072C178.181 16.6072 178.726 16.6777 179.225 16.8185C179.724 16.9554 180.159 17.1566 180.529 17.4222C180.9 17.6838 181.185 18.0058 181.387 18.3881C181.592 18.7705 181.695 19.2071 181.695 19.6981V26.0007H178.918V24.7088H178.845C178.68 25.0227 178.469 25.2883 178.211 25.5057C177.958 25.723 177.658 25.886 177.312 25.9947C176.97 26.1033 176.583 26.1577 176.153 26.1577ZM177.064 24.2258C177.382 24.2258 177.668 24.1614 177.921 24.0327C178.179 23.9039 178.384 23.7268 178.537 23.5014C178.69 23.272 178.767 23.0064 178.767 22.7045V21.8231C178.682 21.8674 178.579 21.9077 178.459 21.9439C178.342 21.9801 178.213 22.0143 178.072 22.0465C177.932 22.0787 177.787 22.1069 177.638 22.131C177.489 22.1552 177.346 22.1773 177.209 22.1974C176.931 22.2417 176.694 22.3101 176.497 22.4027C176.304 22.4953 176.155 22.616 176.05 22.7649C175.949 22.9098 175.899 23.0828 175.899 23.2841C175.899 23.59 176.008 23.8234 176.225 23.9844C176.446 24.1453 176.726 24.2258 177.064 24.2258ZM194.632 13.6371H197.614V21.6118C197.614 22.5335 197.395 23.3364 196.956 24.0206C196.517 24.7007 195.905 25.228 195.121 25.6023C194.336 25.9725 193.424 26.1577 192.386 26.1577C191.336 26.1577 190.418 25.9725 189.633 25.6023C188.848 25.228 188.239 24.7007 187.804 24.0206C187.369 23.3364 187.152 22.5335 187.152 21.6118V13.6371H190.14V21.3523C190.14 21.7789 190.233 22.1592 190.418 22.4932C190.607 22.8273 190.871 23.0889 191.209 23.278C191.547 23.4672 191.939 23.5618 192.386 23.5618C192.833 23.5618 193.223 23.4672 193.557 23.278C193.895 23.0889 194.159 22.8273 194.348 22.4932C194.537 22.1592 194.632 21.7789 194.632 21.3523V13.6371ZM202.475 13.6371V26.0007H199.487V13.6371H202.475Z" fill="#319795"/>
</g>
<defs>
<filter id="filter0_d_1_56" x="2.39972" y="0.39972" width="39.202" height="39.202" filterUnits="userSpaceOnUse" color-interpolation-filters="sRGB">
<feFlood flood-opacity="0" result="BackgroundImageFix"/>
<feColorMatrix in="SourceAlpha" type="matrix" values="0 0 0 0 0 0 0 0 0 0 0 0 0 0 0 0 0 0 127 0" result="hardAlpha"/>
<feOffset/>
<feGaussianBlur stdDeviation="2.80014"/>
<feComposite in2="hardAlpha" operator="out"/>
<feColorMatrix type="matrix" values="0 0 0 0 0 0 0 0 0 0 0 0 0 0 0 0 0 0 0.25 0"/>
<feBlend mode="normal" in2="BackgroundImageFix" result="effect1_dropShadow_1_56"/>
<feBlend mode="normal" in="SourceGraphic" in2="effect1_dropShadow_1_56" result="shape"/>
</filter>
<filter id="filter1_d_1_56" x="36.2871" y="3.78642" width="173.429" height="32.4286" filterUnits="userSpaceOnUse" color-interpolation-filters="sRGB">
<feFlood flood-opacity="0" result="BackgroundImageFix"/>
<feColorMatrix in="SourceAlpha" type="matrix" values="0 0 0 0 0 0 0 0 0 0 0 0 0 0 0 0 0 0 127 0" result="hardAlpha"/>
<feOffset/>
<feGaussianBlur stdDeviation="2.85714"/>
<feComposite in2="hardAlpha" operator="out"/>
<feColorMatrix type="matrix" values="0 0 0 0 0 0 0 0 0 0 0 0 0 0 0 0 0 0 0.25 0"/>
<feBlend mode="normal" in2="BackgroundImageFix" result="effect1_dropShadow_1_56"/>
<feBlend mode="normal" in="SourceGraphic" in2="effect1_dropShadow_1_56" result="shape"/>
</filter>
<linearGradient id="paint0_linear_1_56" x1="106.001" y1="0" x2="106.001" y2="40.0014" gradientUnits="userSpaceOnUse">
<stop stop-color="#184B4A"/>
<stop offset="1" stop-color="#0C2625"/>
</linearGradient>
<linearGradient id="paint1_linear_1_56" x1="22" y1="6" x2="22" y2="34" gradientUnits="userSpaceOnUse">
<stop stop-color="#7BCBD4"/>
<stop offset="1" stop-color="#29C6B7"/>
</linearGradient>
</defs>
</svg>
