<svg width="154" height="56" viewBox="0 0 154 56" fill="none" xmlns="http://www.w3.org/2000/svg">
<rect width="154" height="56" rx="8" fill="url(#paint0_linear_1_50)"/>
<rect x="1.05" y="1.05" width="151.9" height="53.9" rx="6.95" stroke="white" stroke-opacity="0.15" stroke-width="2.1"/>
<g filter="url(#filter0_d_1_50)">
<path d="M52 28C52 16.9543 43.0457 8 32 8C20.9543 8 12 16.9543 12 28C12 39.0457 20.9543 48 32 48C43.0457 48 52 39.0457 52 28Z" fill="url(#paint1_linear_1_50)"/>
<path d="M22.8261 28.8537L36.4591 15.3145C36.7138 15.0616 37.1237 15.3694 36.9517 15.6845L31.8777 24.9844C31.7644 25.1918 31.9145 25.4448 32.1508 25.4448H40.9197C41.2022 25.4448 41.3385 25.7908 41.132 25.9837L25.7658 40.3248C25.4903 40.5819 25.0802 40.2196 25.3014 39.9146L32.5754 29.8798C32.7245 29.6741 32.5776 29.3858 32.3234 29.3858H23.0455C22.7677 29.3858 22.629 29.0495 22.8261 28.8537Z" fill="white"/>
</g>
<g filter="url(#filter1_d_1_50)">
<path d="M61.2784 24.5V12.8636H65.5398C66.3655 12.8636 67.0492 13 67.5909 13.2727C68.1326 13.5417 68.5379 13.9072 68.8068 14.3693C69.0757 14.8276 69.2102 15.3447 69.2102 15.9204C69.2102 16.4053 69.1212 16.8144 68.9432 17.1477C68.7651 17.4773 68.5265 17.7424 68.2273 17.9432C67.9318 18.1401 67.606 18.2841 67.25 18.375V18.4886C67.6363 18.5076 68.0132 18.6326 68.3807 18.8636C68.7519 19.0909 69.0587 19.4148 69.3011 19.8352C69.5435 20.2557 69.6648 20.767 69.6648 21.3693C69.6648 21.964 69.5246 22.4981 69.2443 22.9716C68.9678 23.4413 68.5398 23.8144 67.9602 24.0909C67.3807 24.3636 66.6401 24.5 65.7386 24.5H61.2784ZM63.0341 22.9943H65.5682C66.4091 22.9943 67.0113 22.8314 67.375 22.5057C67.7386 22.1799 67.9204 21.7727 67.9204 21.2841C67.9204 20.9167 67.8276 20.5795 67.642 20.2727C67.4564 19.9659 67.1913 19.7216 66.8466 19.5398C66.5057 19.3579 66.1004 19.267 65.6307 19.267H63.0341V22.9943ZM63.0341 17.8977H65.3863C65.7803 17.8977 66.1345 17.822 66.4488 17.6704C66.767 17.5189 67.0189 17.3068 67.2045 17.0341C67.3939 16.7576 67.4886 16.4318 67.4886 16.0568C67.4886 15.5758 67.3201 15.1723 66.9829 14.8466C66.6458 14.5208 66.1288 14.3579 65.4318 14.3579H63.0341V17.8977ZM77.1392 20.8807V15.7727H78.8437V24.5H77.1733V22.9886H77.0824C76.8816 23.4545 76.5596 23.8428 76.1165 24.1534C75.6771 24.4602 75.1297 24.6136 74.4744 24.6136C73.9138 24.6136 73.4176 24.4905 72.9858 24.2443C72.5577 23.9943 72.2206 23.625 71.9744 23.1364C71.732 22.6477 71.6108 22.0436 71.6108 21.3239V15.7727H73.3096V21.1193C73.3096 21.714 73.4744 22.1875 73.804 22.5398C74.1335 22.892 74.5615 23.0682 75.088 23.0682C75.4062 23.0682 75.7225 22.9886 76.0369 22.8295C76.3551 22.6704 76.6184 22.4299 76.8267 22.1079C77.0388 21.786 77.143 21.3769 77.1392 20.8807ZM81.1264 24.5V15.7727H82.8253V24.5H81.1264ZM81.9844 14.4261C81.6889 14.4261 81.4351 14.3276 81.223 14.1307C81.0147 13.9299 80.9105 13.6913 80.9105 13.4148C80.9105 13.1345 81.0147 12.8958 81.223 12.6989C81.4351 12.4981 81.6889 12.3977 81.9844 12.3977C82.2798 12.3977 82.5317 12.4981 82.74 12.6989C82.9522 12.8958 83.0582 13.1345 83.0582 13.4148C83.0582 13.6913 82.9522 13.9299 82.74 14.1307C82.5317 14.3276 82.2798 14.4261 81.9844 14.4261ZM86.8096 12.8636V24.5H85.1108V12.8636H86.8096ZM93.169 15.7727V17.1364H88.402V15.7727H93.169ZM89.6804 13.6818H91.3792V21.9375C91.3792 22.267 91.4285 22.5151 91.527 22.6818C91.6254 22.8447 91.7523 22.9564 91.9076 23.017C92.0667 23.0739 92.2391 23.1023 92.4247 23.1023C92.5611 23.1023 92.6804 23.0928 92.7826 23.0739C92.8849 23.0549 92.9645 23.0398 93.0213 23.0284L93.3281 24.4318C93.2296 24.4697 93.0895 24.5076 92.9076 24.5454C92.7258 24.5871 92.4986 24.6098 92.2258 24.6136C91.7789 24.6212 91.3622 24.5417 90.9758 24.375C90.5895 24.2083 90.277 23.9508 90.0383 23.6023C89.7997 23.2538 89.6804 22.8163 89.6804 22.2898V13.6818ZM101.175 24.5L98.6065 15.7727H100.362L102.072 22.1818H102.158L103.874 15.7727H105.629L107.334 22.1534H107.419L109.118 15.7727H110.874L108.311 24.5H106.578L104.805 18.1989H104.675L102.902 24.5H101.175ZM112.486 24.5V15.7727H114.185V24.5H112.486ZM113.344 14.4261C113.048 14.4261 112.794 14.3276 112.582 14.1307C112.374 13.9299 112.27 13.6913 112.27 13.4148C112.27 13.1345 112.374 12.8958 112.582 12.6989C112.794 12.4981 113.048 12.3977 113.344 12.3977C113.639 12.3977 113.891 12.4981 114.099 12.6989C114.312 12.8958 114.418 13.1345 114.418 13.4148C114.418 13.6913 114.312 13.9299 114.099 14.1307C113.891 14.3276 113.639 14.4261 113.344 14.4261ZM120.544 15.7727V17.1364H115.777V15.7727H120.544ZM117.055 13.6818H118.754V21.9375C118.754 22.267 118.803 22.5151 118.902 22.6818C119 22.8447 119.127 22.9564 119.283 23.017C119.442 23.0739 119.614 23.1023 119.8 23.1023C119.936 23.1023 120.055 23.0928 120.158 23.0739C120.26 23.0549 120.339 23.0398 120.396 23.0284L120.703 24.4318C120.605 24.4697 120.464 24.5076 120.283 24.5454C120.101 24.5871 119.874 24.6098 119.601 24.6136C119.154 24.6212 118.737 24.5417 118.351 24.375C117.964 24.2083 117.652 23.9508 117.413 23.6023C117.175 23.2538 117.055 22.8163 117.055 22.2898V13.6818ZM124.31 19.3182V24.5H122.611V12.8636H124.287V17.1932H124.395C124.599 16.7235 124.912 16.3504 125.332 16.0739C125.753 15.7973 126.302 15.6591 126.98 15.6591C127.579 15.6591 128.101 15.7822 128.548 16.0284C128.999 16.2746 129.348 16.642 129.594 17.1307C129.844 17.6155 129.969 18.2216 129.969 18.9489V24.5H128.27V19.1534C128.27 18.5133 128.105 18.017 127.776 17.6648C127.446 17.3087 126.988 17.1307 126.401 17.1307C125.999 17.1307 125.639 17.2159 125.321 17.3864C125.007 17.5568 124.758 17.8068 124.577 18.1364C124.399 18.4621 124.31 18.8561 124.31 19.3182Z" fill="#E8E8E8"/>
<path d="M72.1584 35.6158H69.1399C69.0997 35.3059 69.0171 35.0261 68.8924 34.7766C68.7676 34.5271 68.6026 34.3138 68.3974 34.1367C68.1921 33.9596 67.9486 33.8248 67.6669 33.7322C67.3892 33.6356 67.0813 33.5873 66.7432 33.5873C66.1436 33.5873 65.6264 33.7342 65.1917 34.028C64.7611 34.3218 64.4291 34.7464 64.1957 35.3018C63.9662 35.8572 63.8515 36.5293 63.8515 37.3182C63.8515 38.1392 63.9683 38.8274 64.2017 39.3828C64.4391 39.9342 64.7712 40.3507 65.1978 40.6324C65.6284 40.9101 66.1375 41.049 66.7251 41.049C67.0551 41.049 67.355 41.0067 67.6246 40.9222C67.8983 40.8377 68.1378 40.715 68.343 40.554C68.5523 40.389 68.7233 40.1897 68.8562 39.9563C68.993 39.7189 69.0876 39.4512 69.1399 39.1534L72.1584 39.1715C72.106 39.7189 71.9471 40.2582 71.6814 40.7894C71.4198 41.3207 71.0596 41.8056 70.6008 42.2443C70.142 42.679 69.5826 43.0251 68.9226 43.2827C68.2666 43.5402 67.514 43.669 66.6648 43.669C65.5459 43.669 64.5438 43.4235 63.6584 42.9325C62.777 42.4375 62.0807 41.7171 61.5696 40.7713C61.0585 39.8255 60.8029 38.6745 60.8029 37.3182C60.8029 35.9578 61.0625 34.8048 61.5817 33.859C62.1008 32.9132 62.8031 32.1948 63.6885 31.7038C64.574 31.2128 65.566 30.9673 66.6648 30.9673C67.4133 30.9673 68.1056 31.072 68.7415 31.2812C69.3773 31.4865 69.9368 31.7883 70.4197 32.1868C70.9027 32.5812 71.2951 33.0662 71.5969 33.6417C71.8988 34.2172 72.0859 34.8752 72.1584 35.6158ZM76.8204 38.2116V43.5H73.8683V31.1364H76.7238V35.9297H76.8264C77.0357 35.3582 77.3778 34.9114 77.8527 34.5895C78.3316 34.2675 78.9172 34.1065 79.6094 34.1065C80.2614 34.1065 80.8289 34.2514 81.3119 34.5412C81.7948 34.8269 82.1691 35.2314 82.4347 35.7546C82.7044 36.2778 82.8372 36.8895 82.8332 37.5898V43.5H79.8811V38.1694C79.8851 37.6542 79.7563 37.2518 79.4947 36.962C79.2331 36.6722 78.8649 36.5273 78.39 36.5273C78.0801 36.5273 77.8064 36.5958 77.569 36.7326C77.3355 36.8654 77.1524 37.0566 77.0196 37.3061C76.8908 37.5556 76.8244 37.8575 76.8204 38.2116ZM87.2899 43.6569C86.6983 43.6569 86.1731 43.5583 85.7143 43.3611C85.2595 43.1599 84.8993 42.8581 84.6337 42.4556C84.3721 42.0491 84.2413 41.54 84.2413 40.9283C84.2413 40.4131 84.3318 39.9784 84.5129 39.6243C84.694 39.2701 84.9436 38.9824 85.2615 38.761C85.5795 38.5396 85.9457 38.3726 86.3602 38.2599C86.7748 38.1432 87.2175 38.0647 87.6884 38.0245C88.2156 37.9762 88.6402 37.9259 88.9622 37.8736C89.2841 37.8172 89.5176 37.7387 89.6624 37.6381C89.8114 37.5335 89.8858 37.3866 89.8858 37.1974V37.1672C89.8858 36.8574 89.7792 36.6179 89.5658 36.4489C89.3525 36.2798 89.0648 36.1953 88.7026 36.1953C88.3122 36.1953 87.9983 36.2798 87.7608 36.4489C87.5234 36.6179 87.3724 36.8513 87.308 37.1491L84.5854 37.0525C84.6659 36.4891 84.8731 35.986 85.2072 35.5433C85.5453 35.0966 86.0081 34.7464 86.5957 34.4929C87.1873 34.2353 87.8976 34.1065 88.7267 34.1065C89.3183 34.1065 89.8637 34.177 90.3627 34.3178C90.8618 34.4547 91.2964 34.6559 91.6667 34.9215C92.037 35.1831 92.3227 35.5051 92.5239 35.8874C92.7292 36.2698 92.8318 36.7064 92.8318 37.1974V43.5H90.0548V42.2081H89.9824C89.8174 42.522 89.6061 42.7876 89.3485 43.005C89.095 43.2223 88.7951 43.3853 88.449 43.494C88.1069 43.6026 87.7206 43.6569 87.2899 43.6569ZM88.2015 41.7251C88.5194 41.7251 88.8052 41.6607 89.0587 41.5319C89.3163 41.4032 89.5216 41.2261 89.6745 41.0007C89.8274 40.7713 89.9039 40.5057 89.9039 40.2038V39.3224C89.8194 39.3667 89.7168 39.4069 89.596 39.4432C89.4793 39.4794 89.3505 39.5136 89.2097 39.5458C89.0688 39.578 88.9239 39.6062 88.775 39.6303C88.6261 39.6545 88.4832 39.6766 88.3464 39.6967C88.0687 39.741 87.8312 39.8094 87.634 39.902C87.4409 39.9945 87.2919 40.1153 87.1873 40.2642C87.0867 40.4091 87.0364 40.5821 87.0364 40.7834C87.0364 41.0892 87.145 41.3227 87.3624 41.4837C87.5837 41.6446 87.8634 41.7251 88.2015 41.7251ZM97.2992 41.0671L97.3112 37.5476H97.7217L100.33 34.2273H103.674L99.7984 38.9844H99.0197L97.2992 41.0671ZM94.6369 43.5V31.1364H97.5889V43.5H94.6369ZM100.396 43.5L97.9693 39.6484L99.9131 37.5536L103.807 43.5H100.396ZM104.731 43.5V34.2273H107.598V35.9176H107.695C107.864 35.3059 108.139 34.8511 108.522 34.5533C108.904 34.2514 109.349 34.1005 109.856 34.1005C109.993 34.1005 110.134 34.1105 110.279 34.1307C110.423 34.1468 110.558 34.1729 110.683 34.2092V36.7748C110.542 36.7266 110.357 36.6883 110.128 36.6601C109.902 36.632 109.701 36.6179 109.524 36.6179C109.174 36.6179 108.858 36.6964 108.576 36.8533C108.298 37.0063 108.079 37.2216 107.918 37.4993C107.761 37.773 107.683 38.0949 107.683 38.4652V43.5H104.731ZM114.151 43.6569C113.56 43.6569 113.034 43.5583 112.576 43.3611C112.121 43.1599 111.761 42.8581 111.495 42.4556C111.233 42.0491 111.103 41.54 111.103 40.9283C111.103 40.4131 111.193 39.9784 111.374 39.6243C111.555 39.2701 111.805 38.9824 112.123 38.761C112.441 38.5396 112.807 38.3726 113.222 38.2599C113.636 38.1432 114.079 38.0647 114.55 38.0245C115.077 37.9762 115.502 37.9259 115.823 37.8736C116.145 37.8172 116.379 37.7387 116.524 37.6381C116.673 37.5335 116.747 37.3866 116.747 37.1974V37.1672C116.747 36.8574 116.64 36.6179 116.427 36.4489C116.214 36.2798 115.926 36.1953 115.564 36.1953C115.174 36.1953 114.86 36.2798 114.622 36.4489C114.385 36.6179 114.234 36.8513 114.169 37.1491L111.447 37.0525C111.527 36.4891 111.734 35.986 112.069 35.5433C112.407 35.0966 112.869 34.7464 113.457 34.4929C114.049 34.2353 114.759 34.1065 115.588 34.1065C116.18 34.1065 116.725 34.177 117.224 34.3178C117.723 34.4547 118.158 34.6559 118.528 34.9215C118.898 35.1831 119.184 35.5051 119.385 35.8874C119.591 36.2698 119.693 36.7064 119.693 37.1974V43.5H116.916V42.2081H116.844C116.679 42.522 116.467 42.7876 116.21 43.005C115.956 43.2223 115.656 43.3853 115.31 43.494C114.968 43.6026 114.582 43.6569 114.151 43.6569ZM115.063 41.7251C115.381 41.7251 115.667 41.6607 115.92 41.5319C116.178 41.4032 116.383 41.2261 116.536 41.0007C116.689 40.7713 116.765 40.5057 116.765 40.2038V39.3224C116.681 39.3667 116.578 39.4069 116.457 39.4432C116.341 39.4794 116.212 39.5136 116.071 39.5458C115.93 39.578 115.785 39.6062 115.636 39.6303C115.487 39.6545 115.345 39.6766 115.208 39.6967C114.93 39.741 114.693 39.8094 114.495 39.902C114.302 39.9945 114.153 40.1153 114.049 40.2642C113.948 40.4091 113.898 40.5821 113.898 40.7834C113.898 41.0892 114.006 41.3227 114.224 41.4837C114.445 41.6446 114.725 41.7251 115.063 41.7251ZM132.63 31.1364H135.613V39.1111C135.613 40.0328 135.393 40.8357 134.955 41.5199C134.516 42.2 133.904 42.7273 133.119 43.1016C132.334 43.4718 131.423 43.6569 130.385 43.6569C129.334 43.6569 128.417 43.4718 127.632 43.1016C126.847 42.7273 126.237 42.2 125.803 41.5199C125.368 40.8357 125.151 40.0328 125.151 39.1111V31.1364H128.139V38.8516C128.139 39.2782 128.231 39.6585 128.417 39.9925C128.606 40.3266 128.869 40.5882 129.207 40.7773C129.545 40.9665 129.938 41.0611 130.385 41.0611C130.831 41.0611 131.222 40.9665 131.556 40.7773C131.894 40.5882 132.157 40.3266 132.347 39.9925C132.536 39.6585 132.63 39.2782 132.63 38.8516V31.1364ZM140.474 31.1364V43.5H137.485V31.1364H140.474Z" fill="#319795"/>
</g>
<defs>
<filter id="filter0_d_1_50" x="6.28571" y="2.28571" width="51.4286" height="51.4286" filterUnits="userSpaceOnUse" color-interpolation-filters="sRGB">
<feFlood flood-opacity="0" result="BackgroundImageFix"/>
<feColorMatrix in="SourceAlpha" type="matrix" values="0 0 0 0 0 0 0 0 0 0 0 0 0 0 0 0 0 0 127 0" result="hardAlpha"/>
<feOffset/>
<feGaussianBlur stdDeviation="2.85714"/>
<feComposite in2="hardAlpha" operator="out"/>
<feColorMatrix type="matrix" values="0 0 0 0 0 0 0 0 0 0 0 0 0 0 0 0 0 0 0.25 0"/>
<feBlend mode="normal" in2="BackgroundImageFix" result="effect1_dropShadow_1_50"/>
<feBlend mode="normal" in="SourceGraphic" in2="effect1_dropShadow_1_50" result="shape"/>
</filter>
<filter id="filter1_d_1_50" x="54.4" y="3.9" width="93.2" height="48.2" filterUnits="userSpaceOnUse" color-interpolation-filters="sRGB">
<feFlood flood-opacity="0" result="BackgroundImageFix"/>
<feColorMatrix in="SourceAlpha" type="matrix" values="0 0 0 0 0 0 0 0 0 0 0 0 0 0 0 0 0 0 127 0" result="hardAlpha"/>
<feOffset/>
<feGaussianBlur stdDeviation="2.8"/>
<feComposite in2="hardAlpha" operator="out"/>
<feColorMatrix type="matrix" values="0 0 0 0 0 0 0 0 0 0 0 0 0 0 0 0 0 0 0.25 0"/>
<feBlend mode="normal" in2="BackgroundImageFix" result="effect1_dropShadow_1_50"/>
<feBlend mode="normal" in="SourceGraphic" in2="effect1_dropShadow_1_50" result="shape"/>
</filter>
<linearGradient id="paint0_linear_1_50" x1="77" y1="0" x2="77" y2="56" gradientUnits="userSpaceOnUse">
<stop stop-color="#184B4A"/>
<stop offset="1" stop-color="#0C2625"/>
</linearGradient>
<linearGradient id="paint1_linear_1_50" x1="32" y1="8" x2="32" y2="48" gradientUnits="userSpaceOnUse">
<stop stop-color="#7BCBD4"/>
<stop offset="1" stop-color="#29C6B7"/>
</linearGradient>
</defs>
</svg>
