<svg width="40" height="40" viewBox="0 0 40 40" fill="none" xmlns="http://www.w3.org/2000/svg">
<rect width="40" height="40" rx="8" fill="url(#paint0_linear_1_68)"/>
<rect x="1.05" y="1.05" width="37.9" height="37.9" rx="6.95" stroke="white" stroke-opacity="0.15" stroke-width="2.1"/>
<g filter="url(#filter0_d_1_68)">
<path d="M31.5505 12.4571C31.3904 11.9448 31.0062 11.5286 30.5259 11.2724L20.76 6.5976C20.5039 6.46952 20.2157 6.4375 19.9596 6.4375C19.7034 6.4375 19.4152 6.4375 19.1591 6.50154L9.39322 11.2084C8.91293 11.4325 8.56072 11.8487 8.43264 12.3931L6.0312 22.9274C5.93514 23.4717 6.06322 24.0161 6.38341 24.4643L13.1395 32.8213C13.5237 33.2056 14.068 33.4617 14.6124 33.4937H25.3708C25.9472 33.5578 26.4915 33.3016 26.8437 32.8213L33.5998 24.4643C33.9199 24.0161 34.048 23.4717 33.984 22.9274L31.5505 12.4571Z" fill="#326DE6"/>
<path d="M30.0456 22.5112C30.0136 22.5112 29.9816 22.5112 29.9816 22.4791C29.9816 22.4471 29.9175 22.4471 29.8535 22.4471C29.7254 22.4151 29.5974 22.4151 29.4693 22.4151C29.4052 22.4151 29.3412 22.4151 29.2772 22.3831H29.2451C28.8929 22.3511 28.5087 22.287 28.1565 22.191C28.0604 22.1589 27.9644 22.0629 27.9324 21.9668L27.6762 21.9028C27.8043 20.9742 27.7402 20.0137 27.5481 19.0851C27.324 18.1565 26.9398 17.26 26.4275 16.4595L26.6196 16.2674V16.2354C26.6196 16.1393 26.6516 16.0112 26.7156 15.9472C27.0038 15.6911 27.292 15.4989 27.6122 15.3068C27.6762 15.2748 27.7402 15.2428 27.8043 15.2108C27.9324 15.1467 28.0284 15.0827 28.1565 15.0187C28.1885 14.9866 28.2205 14.9866 28.2525 14.9546C28.2846 14.9226 28.2525 14.9226 28.2525 14.8906C28.5407 14.6664 28.6048 14.2822 28.3806 13.994C28.2846 13.866 28.0925 13.7699 27.9324 13.7699C27.7723 13.7699 27.6122 13.8339 27.4841 13.93L27.4521 13.962C27.42 13.994 27.388 14.0261 27.356 14.0261C27.26 14.1221 27.1639 14.2182 27.0999 14.3142C27.0678 14.3783 27.0038 14.4103 26.9718 14.4423C26.7476 14.6985 26.4595 14.9546 26.1713 15.1467C26.1073 15.1787 26.0432 15.2108 25.9792 15.2108C25.9472 15.2108 25.8831 15.2108 25.8511 15.1787H25.8191L25.5629 15.3388C25.3068 15.0827 25.0186 14.8265 24.7625 14.5704C23.5777 13.6418 22.1049 13.0655 20.6 12.9054L20.5679 12.6492V12.6812C20.4719 12.6172 20.4399 12.5212 20.4078 12.4251C20.4078 12.0729 20.4078 11.7207 20.4719 11.3364V11.3044C20.4719 11.2404 20.5039 11.1763 20.5039 11.1123C20.5359 10.9842 20.5359 10.8562 20.5679 10.7281V10.536C20.6 10.2158 20.3438 9.89558 20.0236 9.86356C19.8315 9.83154 19.6394 9.9276 19.4793 10.0877C19.3512 10.2158 19.2872 10.3759 19.2872 10.536V10.6961C19.2872 10.8241 19.3192 10.9522 19.3512 11.0803C19.3832 11.1443 19.3832 11.2084 19.3832 11.2724V11.3044C19.4473 11.6566 19.4473 12.0088 19.4473 12.3931C19.4152 12.4891 19.3832 12.5852 19.2872 12.6492V12.7133L19.2551 12.9694C18.9029 13.0014 18.5507 13.0655 18.1665 13.1295C16.6616 13.4497 15.2848 14.2502 14.2281 15.3709L14.036 15.2428H14.004C13.972 15.2428 13.94 15.2748 13.8759 15.2748C13.8119 15.2748 13.7478 15.2428 13.6838 15.2108C13.3956 14.9866 13.1075 14.7305 12.8833 14.4743C12.8513 14.4103 12.7873 14.3783 12.7552 14.3462C12.6592 14.2502 12.5951 14.1541 12.4991 14.0581C12.4671 14.0261 12.435 14.0261 12.403 13.994C12.371 13.962 12.371 13.962 12.371 13.962C12.2429 13.866 12.0828 13.8019 11.9227 13.8019C11.7306 13.8019 11.5705 13.866 11.4745 14.0261C11.2824 14.3142 11.3464 14.6985 11.6025 14.9226C11.6346 14.9226 11.6346 14.9546 11.6346 14.9546C11.6346 14.9546 11.6986 15.0187 11.7306 15.0187C11.8267 15.0827 11.9548 15.1467 12.0828 15.2108C12.1469 15.2428 12.2109 15.2748 12.275 15.3068C12.5951 15.4989 12.9153 15.6911 13.1715 15.9472C13.2355 16.0112 13.2996 16.1393 13.2675 16.2354V16.2034L13.4597 16.3955C13.4276 16.4595 13.3956 16.4915 13.3636 16.5556C12.371 18.1245 11.9548 19.9816 12.2429 21.8067L11.9868 21.8708C11.9868 21.9028 11.9548 21.9028 11.9548 21.9028C11.9227 21.9988 11.8267 22.0629 11.7306 22.1269C11.3784 22.223 11.0262 22.287 10.642 22.319C10.5779 22.319 10.5139 22.319 10.4499 22.3511C10.3218 22.3511 10.1937 22.3831 10.0656 22.3831C10.0336 22.3831 10.0016 22.4151 9.93755 22.4151C9.90553 22.4151 9.90553 22.4151 9.87351 22.4471C9.5213 22.5112 9.29716 22.8313 9.3612 23.1836C9.42524 23.4717 9.71341 23.6638 10.0016 23.6318C10.0656 23.6318 10.0976 23.6318 10.1617 23.5998C10.1937 23.5998 10.1937 23.5998 10.1937 23.5678C10.1937 23.5358 10.2898 23.5678 10.3218 23.5678C10.4499 23.5358 10.5779 23.4717 10.674 23.4397C10.738 23.4077 10.8021 23.3757 10.8661 23.3757H10.8981C11.2503 23.2476 11.5705 23.1515 11.9548 23.0875H11.9868C12.0828 23.0875 12.1789 23.1195 12.2429 23.1836C12.2749 23.1836 12.275 23.2156 12.275 23.2156L12.5631 23.1836C13.0434 24.6564 13.9399 25.9692 15.1887 26.9298C15.4769 27.1539 15.733 27.3461 16.0532 27.5062L15.8931 27.7303C15.8931 27.7623 15.9251 27.7623 15.9251 27.7623C15.9892 27.8584 15.9892 27.9864 15.9572 28.0825C15.8291 28.4027 15.637 28.7229 15.4449 29.0111V29.0431C15.4128 29.1071 15.3808 29.1391 15.3168 29.2032C15.2527 29.2672 15.1887 29.3953 15.0926 29.5234C15.0606 29.5554 15.0606 29.5874 15.0286 29.6194C15.0286 29.6194 15.0286 29.6514 14.9966 29.6514C14.8365 29.9716 14.9646 30.3559 15.2527 30.516C15.3168 30.548 15.4128 30.58 15.4769 30.58C15.733 30.58 15.9572 30.4199 16.0852 30.1958C16.0852 30.1958 16.0852 30.1637 16.1173 30.1637C16.1173 30.1317 16.1493 30.0997 16.1813 30.0677C16.2133 29.9396 16.2774 29.8436 16.3094 29.7155L16.3734 29.5234C16.4695 29.1712 16.6296 28.851 16.7897 28.5308C16.8537 28.4347 16.9498 28.3707 17.0458 28.3387C17.0778 28.3387 17.0778 28.3387 17.0778 28.3066L17.2059 28.0505C18.1025 28.4027 19.031 28.5628 19.9916 28.5628C20.5679 28.5628 21.1443 28.4987 21.7206 28.3387C22.0728 28.2746 22.425 28.1465 22.7452 28.0505L22.8733 28.2746C22.9053 28.2746 22.9053 28.2746 22.9053 28.3066C23.0014 28.3387 23.0975 28.4027 23.1615 28.4987C23.3216 28.8189 23.4817 29.1391 23.5777 29.4913V29.5234L23.6418 29.7155C23.6738 29.8436 23.7058 29.9716 23.7699 30.0677C23.8019 30.0997 23.8019 30.1317 23.8339 30.1637C23.8339 30.1637 23.8339 30.1958 23.8659 30.1958C23.994 30.4199 24.2181 30.58 24.4743 30.58C24.5703 30.58 24.6344 30.548 24.7304 30.516C24.8585 30.4519 24.9866 30.3238 25.0186 30.1637C25.0506 30.0037 25.0506 29.8436 24.9866 29.6835C24.9866 29.6514 24.9546 29.6514 24.9546 29.6514C24.9546 29.6194 24.9225 29.5874 24.8905 29.5554C24.8265 29.4273 24.7625 29.3312 24.6664 29.2352C24.6344 29.1712 24.6024 29.1391 24.5383 29.0751V29.0111C24.3142 28.7229 24.1541 28.4027 24.026 28.0825C23.994 27.9864 23.994 27.8584 24.058 27.7623C24.058 27.7303 24.09 27.7303 24.09 27.7303L23.994 27.4741C25.627 26.4815 26.8757 24.9446 27.4521 23.1195L27.7082 23.1515C27.7402 23.1515 27.7402 23.1195 27.7402 23.1195C27.8043 23.0555 27.9003 23.0235 27.9964 23.0235H28.0284C28.3806 23.0875 28.7328 23.1836 29.053 23.3116H29.085C29.1491 23.3437 29.2131 23.3757 29.2772 23.3757C29.4052 23.4397 29.5013 23.5037 29.6294 23.5358C29.6614 23.5358 29.6934 23.5678 29.7575 23.5678C29.7895 23.5678 29.7895 23.5678 29.8215 23.5998C29.8855 23.6318 29.9175 23.6318 29.9816 23.6318C30.2698 23.6318 30.5259 23.4397 30.622 23.1836C30.59 22.8313 30.3338 22.5752 30.0456 22.5112ZM20.7921 21.5186L19.9275 21.9348L19.063 21.5186L18.8389 20.59L19.4473 19.8215H20.4078L21.0162 20.59L20.7921 21.5186ZM26.0112 19.4373C26.1713 20.1097 26.2033 20.7821 26.1393 21.4545L23.0975 20.59C22.8093 20.526 22.6492 20.2378 22.7132 19.9496C22.7452 19.8536 22.7773 19.7895 22.8413 19.7255L25.2427 17.5482C25.595 18.1245 25.8511 18.7649 26.0112 19.4373ZM24.2822 16.3635L21.6566 18.2206C21.4324 18.3487 21.1123 18.3166 20.9522 18.0925C20.8881 18.0285 20.8561 17.9644 20.8561 17.8684L20.664 14.6344C22.0728 14.7945 23.3216 15.4029 24.2822 16.3635ZM18.4867 14.7305L19.1271 14.6024L18.967 17.8043C18.967 18.0925 18.7108 18.3166 18.4226 18.3166C18.3266 18.3166 18.2625 18.2846 18.1665 18.2526L15.5089 16.3635C16.3414 15.563 17.366 14.9866 18.4867 14.7305ZM14.5803 17.5482L16.9498 19.6614C17.1739 19.8536 17.2059 20.1737 17.0138 20.3979C16.9498 20.4939 16.8857 20.526 16.7576 20.558L13.6518 21.4545C13.5557 20.1097 13.8759 18.7329 14.5803 17.5482ZM14.036 22.9594L17.2059 22.4151C17.4621 22.4151 17.7182 22.5752 17.7502 22.8313C17.7823 22.9274 17.7823 23.0555 17.7182 23.1515L16.5015 26.0973C15.3808 25.3609 14.4843 24.2402 14.036 22.9594ZM21.3044 26.9298C20.8561 27.0259 20.4078 27.0899 19.9275 27.0899C19.2551 27.0899 18.5507 26.9618 17.9103 26.7697L19.4793 23.92C19.6394 23.7279 19.8955 23.6638 20.1197 23.7919C20.2157 23.856 20.2798 23.92 20.3758 24.0161L21.9127 26.8017C21.7206 26.8337 21.5285 26.8658 21.3044 26.9298ZM25.2107 24.1441C24.7304 24.9126 24.058 25.585 23.2896 26.0653L22.0408 23.0555C21.9768 22.7993 22.1049 22.5432 22.329 22.4471C22.425 22.4151 22.5211 22.3831 22.6172 22.3831L25.8191 22.9274C25.659 23.3757 25.4669 23.7919 25.2107 24.1441Z" fill="white"/>
</g>
<defs>
<filter id="filter0_d_1_68" x="2" y="2" width="36" height="36" filterUnits="userSpaceOnUse" color-interpolation-filters="sRGB">
<feFlood flood-opacity="0" result="BackgroundImageFix"/>
<feColorMatrix in="SourceAlpha" type="matrix" values="0 0 0 0 0 0 0 0 0 0 0 0 0 0 0 0 0 0 127 0" result="hardAlpha"/>
<feOffset/>
<feGaussianBlur stdDeviation="2"/>
<feComposite in2="hardAlpha" operator="out"/>
<feColorMatrix type="matrix" values="0 0 0 0 0 0 0 0 0 0 0 0 0 0 0 0 0 0 0.25 0"/>
<feBlend mode="normal" in2="BackgroundImageFix" result="effect1_dropShadow_1_68"/>
<feBlend mode="normal" in="SourceGraphic" in2="effect1_dropShadow_1_68" result="shape"/>
</filter>
<linearGradient id="paint0_linear_1_68" x1="20" y1="0" x2="20" y2="40" gradientUnits="userSpaceOnUse">
<stop stop-color="#0B2457"/>
<stop offset="1" stop-color="#050F25"/>
</linearGradient>
</defs>
</svg>
