<svg width="229" height="40" viewBox="0 0 229 40" fill="none" xmlns="http://www.w3.org/2000/svg">
<rect width="229.001" height="40.0014" rx="8" fill="url(#paint0_linear_1_56)"/>
<rect x="1.07143" y="1.07143" width="226.858" height="37.8585" rx="6.92857" stroke="white" stroke-opacity="0.15" stroke-width="2.14286"/>
<g filter="url(#filter0_d_1_56)">
<path d="M33.5505 12.4571C33.3904 11.9448 33.0062 11.5286 32.5259 11.2724L22.76 6.5976C22.5039 6.46952 22.2157 6.4375 21.9596 6.4375C21.7034 6.4375 21.4152 6.4375 21.1591 6.50154L11.3932 11.2084C10.9129 11.4325 10.5607 11.8487 10.4326 12.3931L8.0312 22.9274C7.93514 23.4717 8.06322 24.0161 8.38341 24.4643L15.1395 32.8213C15.5237 33.2056 16.068 33.4617 16.6124 33.4937H27.3708C27.9472 33.5578 28.4915 33.3016 28.8437 32.8213L35.5998 24.4643C35.9199 24.0161 36.048 23.4717 35.984 22.9274L33.5505 12.4571Z" fill="#326DE6"/>
<path d="M32.0456 22.5112C32.0136 22.5112 31.9816 22.5112 31.9816 22.4791C31.9816 22.4471 31.9175 22.4471 31.8535 22.4471C31.7254 22.4151 31.5974 22.4151 31.4693 22.4151C31.4052 22.4151 31.3412 22.4151 31.2772 22.3831H31.2451C30.8929 22.3511 30.5087 22.287 30.1565 22.191C30.0604 22.1589 29.9644 22.0629 29.9324 21.9668L29.6762 21.9028C29.8043 20.9742 29.7402 20.0137 29.5481 19.0851C29.324 18.1565 28.9398 17.26 28.4275 16.4595L28.6196 16.2674V16.2354C28.6196 16.1393 28.6516 16.0112 28.7156 15.9472C29.0038 15.6911 29.292 15.4989 29.6122 15.3068C29.6762 15.2748 29.7402 15.2428 29.8043 15.2108C29.9324 15.1467 30.0284 15.0827 30.1565 15.0187C30.1885 14.9866 30.2205 14.9866 30.2525 14.9546C30.2846 14.9226 30.2525 14.9226 30.2525 14.8906C30.5407 14.6664 30.6048 14.2822 30.3806 13.994C30.2846 13.866 30.0925 13.7699 29.9324 13.7699C29.7723 13.7699 29.6122 13.8339 29.4841 13.93L29.4521 13.962C29.42 13.994 29.388 14.0261 29.356 14.0261C29.26 14.1221 29.1639 14.2182 29.0999 14.3142C29.0678 14.3783 29.0038 14.4103 28.9718 14.4423C28.7476 14.6985 28.4595 14.9546 28.1713 15.1467C28.1073 15.1787 28.0432 15.2108 27.9792 15.2108C27.9472 15.2108 27.8831 15.2108 27.8511 15.1787H27.8191L27.5629 15.3388C27.3068 15.0827 27.0186 14.8265 26.7625 14.5704C25.5777 13.6418 24.1049 13.0655 22.6 12.9054L22.5679 12.6492V12.6812C22.4719 12.6172 22.4399 12.5212 22.4078 12.4251C22.4078 12.0729 22.4078 11.7207 22.4719 11.3364V11.3044C22.4719 11.2404 22.5039 11.1763 22.5039 11.1123C22.5359 10.9842 22.5359 10.8562 22.5679 10.7281V10.536C22.6 10.2158 22.3438 9.89558 22.0236 9.86356C21.8315 9.83154 21.6394 9.9276 21.4793 10.0877C21.3512 10.2158 21.2872 10.3759 21.2872 10.536V10.6961C21.2872 10.8241 21.3192 10.9522 21.3512 11.0803C21.3832 11.1443 21.3832 11.2084 21.3832 11.2724V11.3044C21.4473 11.6566 21.4473 12.0088 21.4473 12.3931C21.4152 12.4891 21.3832 12.5852 21.2872 12.6492V12.7133L21.2551 12.9694C20.9029 13.0014 20.5507 13.0655 20.1665 13.1295C18.6616 13.4497 17.2848 14.2502 16.2281 15.3709L16.036 15.2428H16.004C15.972 15.2428 15.94 15.2748 15.8759 15.2748C15.8119 15.2748 15.7478 15.2428 15.6838 15.2108C15.3956 14.9866 15.1075 14.7305 14.8833 14.4743C14.8513 14.4103 14.7873 14.3783 14.7552 14.3462C14.6592 14.2502 14.5951 14.1541 14.4991 14.0581C14.4671 14.0261 14.435 14.0261 14.403 13.994C14.371 13.962 14.371 13.962 14.371 13.962C14.2429 13.866 14.0828 13.8019 13.9227 13.8019C13.7306 13.8019 13.5705 13.866 13.4745 14.0261C13.2824 14.3142 13.3464 14.6985 13.6025 14.9226C13.6346 14.9226 13.6346 14.9546 13.6346 14.9546C13.6346 14.9546 13.6986 15.0187 13.7306 15.0187C13.8267 15.0827 13.9548 15.1467 14.0828 15.2108C14.1469 15.2428 14.2109 15.2748 14.275 15.3068C14.5951 15.4989 14.9153 15.6911 15.1715 15.9472C15.2355 16.0112 15.2996 16.1393 15.2675 16.2354V16.2034L15.4597 16.3955C15.4276 16.4595 15.3956 16.4915 15.3636 16.5556C14.371 18.1245 13.9548 19.9816 14.2429 21.8067L13.9868 21.8708C13.9868 21.9028 13.9548 21.9028 13.9548 21.9028C13.9227 21.9988 13.8267 22.0629 13.7306 22.1269C13.3784 22.223 13.0262 22.287 12.642 22.319C12.5779 22.319 12.5139 22.319 12.4499 22.3511C12.3218 22.3511 12.1937 22.3831 12.0656 22.3831C12.0336 22.3831 12.0016 22.4151 11.9375 22.4151C11.9055 22.4151 11.9055 22.4151 11.8735 22.4471C11.5213 22.5112 11.2972 22.8313 11.3612 23.1836C11.4252 23.4717 11.7134 23.6638 12.0016 23.6318C12.0656 23.6318 12.0976 23.6318 12.1617 23.5998C12.1937 23.5998 12.1937 23.5998 12.1937 23.5678C12.1937 23.5358 12.2898 23.5678 12.3218 23.5678C12.4499 23.5358 12.5779 23.4717 12.674 23.4397C12.738 23.4077 12.8021 23.3757 12.8661 23.3757H12.8981C13.2503 23.2476 13.5705 23.1515 13.9548 23.0875H13.9868C14.0828 23.0875 14.1789 23.1195 14.2429 23.1836C14.2749 23.1836 14.275 23.2156 14.275 23.2156L14.5631 23.1836C15.0434 24.6564 15.9399 25.9692 17.1887 26.9298C17.4769 27.1539 17.733 27.3461 18.0532 27.5062L17.8931 27.7303C17.8931 27.7623 17.9251 27.7623 17.9251 27.7623C17.9892 27.8584 17.9892 27.9864 17.9572 28.0825C17.8291 28.4027 17.637 28.7229 17.4449 29.0111V29.0431C17.4128 29.1071 17.3808 29.1391 17.3168 29.2032C17.2527 29.2672 17.1887 29.3953 17.0926 29.5234C17.0606 29.5554 17.0606 29.5874 17.0286 29.6194C17.0286 29.6194 17.0286 29.6514 16.9966 29.6514C16.8365 29.9716 16.9646 30.3559 17.2527 30.516C17.3168 30.548 17.4128 30.58 17.4769 30.58C17.733 30.58 17.9572 30.4199 18.0852 30.1958C18.0852 30.1958 18.0852 30.1637 18.1173 30.1637C18.1173 30.1317 18.1493 30.0997 18.1813 30.0677C18.2133 29.9396 18.2774 29.8436 18.3094 29.7155L18.3734 29.5234C18.4695 29.1712 18.6296 28.851 18.7897 28.5308C18.8537 28.4347 18.9498 28.3707 19.0458 28.3387C19.0778 28.3387 19.0778 28.3387 19.0778 28.3066L19.2059 28.0505C20.1025 28.4027 21.031 28.5628 21.9916 28.5628C22.5679 28.5628 23.1443 28.4987 23.7206 28.3387C24.0728 28.2746 24.425 28.1465 24.7452 28.0505L24.8733 28.2746C24.9053 28.2746 24.9053 28.2746 24.9053 28.3066C25.0014 28.3387 25.0975 28.4027 25.1615 28.4987C25.3216 28.8189 25.4817 29.1391 25.5777 29.4913V29.5234L25.6418 29.7155C25.6738 29.8436 25.7058 29.9716 25.7699 30.0677C25.8019 30.0997 25.8019 30.1317 25.8339 30.1637C25.8339 30.1637 25.8339 30.1958 25.8659 30.1958C25.994 30.4199 26.2181 30.58 26.4743 30.58C26.5703 30.58 26.6344 30.548 26.7304 30.516C26.8585 30.4519 26.9866 30.3238 27.0186 30.1637C27.0506 30.0037 27.0506 29.8436 26.9866 29.6835C26.9866 29.6514 26.9546 29.6514 26.9546 29.6514C26.9546 29.6194 26.9225 29.5874 26.8905 29.5554C26.8265 29.4273 26.7625 29.3312 26.6664 29.2352C26.6344 29.1712 26.6024 29.1391 26.5383 29.0751V29.0111C26.3142 28.7229 26.1541 28.4027 26.026 28.0825C25.994 27.9864 25.994 27.8584 26.058 27.7623C26.058 27.7303 26.09 27.7303 26.09 27.7303L25.994 27.4741C27.627 26.4815 28.8757 24.9446 29.4521 23.1195L29.7082 23.1515C29.7402 23.1515 29.7402 23.1195 29.7402 23.1195C29.8043 23.0555 29.9003 23.0235 29.9964 23.0235H30.0284C30.3806 23.0875 30.7328 23.1836 31.053 23.3116H31.085C31.1491 23.3437 31.2131 23.3757 31.2772 23.3757C31.4052 23.4397 31.5013 23.5037 31.6294 23.5358C31.6614 23.5358 31.6934 23.5678 31.7575 23.5678C31.7895 23.5678 31.7895 23.5678 31.8215 23.5998C31.8855 23.6318 31.9175 23.6318 31.9816 23.6318C32.2698 23.6318 32.5259 23.4397 32.622 23.1836C32.59 22.8313 32.3338 22.5752 32.0456 22.5112ZM22.7921 21.5186L21.9275 21.9348L21.063 21.5186L20.8389 20.59L21.4473 19.8215H22.4078L23.0162 20.59L22.7921 21.5186ZM28.0112 19.4373C28.1713 20.1097 28.2033 20.7821 28.1393 21.4545L25.0975 20.59C24.8093 20.526 24.6492 20.2378 24.7132 19.9496C24.7452 19.8536 24.7773 19.7895 24.8413 19.7255L27.2427 17.5482C27.595 18.1245 27.8511 18.7649 28.0112 19.4373ZM26.2822 16.3635L23.6566 18.2206C23.4324 18.3487 23.1123 18.3166 22.9522 18.0925C22.8881 18.0285 22.8561 17.9644 22.8561 17.8684L22.664 14.6344C24.0728 14.7945 25.3216 15.4029 26.2822 16.3635ZM20.4867 14.7305L21.1271 14.6024L20.967 17.8043C20.967 18.0925 20.7108 18.3166 20.4226 18.3166C20.3266 18.3166 20.2625 18.2846 20.1665 18.2526L17.5089 16.3635C18.3414 15.563 19.366 14.9866 20.4867 14.7305ZM16.5803 17.5482L18.9498 19.6614C19.1739 19.8536 19.2059 20.1737 19.0138 20.3979C18.9498 20.4939 18.8857 20.526 18.7576 20.558L15.6518 21.4545C15.5557 20.1097 15.8759 18.7329 16.5803 17.5482ZM16.036 22.9594L19.2059 22.4151C19.4621 22.4151 19.7182 22.5752 19.7502 22.8313C19.7823 22.9274 19.7823 23.0555 19.7182 23.1515L18.5015 26.0973C17.3808 25.3609 16.4843 24.2402 16.036 22.9594ZM23.3044 26.9298C22.8561 27.0259 22.4078 27.0899 21.9275 27.0899C21.2551 27.0899 20.5507 26.9618 19.9103 26.7697L21.4793 23.92C21.6394 23.7279 21.8955 23.6638 22.1197 23.7919C22.2157 23.856 22.2798 23.92 22.3758 24.0161L23.9127 26.8017C23.7206 26.8337 23.5285 26.8658 23.3044 26.9298ZM27.2107 24.1441C26.7304 24.9126 26.058 25.585 25.2896 26.0653L24.0408 23.0555C23.9768 22.7993 24.1049 22.5432 24.329 22.4471C24.425 22.4151 24.5211 22.3831 24.6172 22.3831L27.8191 22.9274C27.659 23.3757 27.4669 23.7919 27.2107 24.1441Z" fill="white"/>
</g>
<g filter="url(#filter1_d_1_56)">
<path d="M43.3597 26.5007V14.1371H47.8874C48.7648 14.1371 49.4912 14.282 50.0667 14.5717C50.6423 14.8575 51.0729 15.2458 51.3586 15.7369C51.6444 16.2238 51.7873 16.7732 51.7873 17.3849C51.7873 17.9001 51.6927 18.3347 51.5035 18.6889C51.3144 19.0391 51.0608 19.3208 50.7429 19.5341C50.429 19.7434 50.0828 19.8963 49.7045 19.9929V20.1136C50.115 20.1337 50.5155 20.2666 50.9059 20.5121C51.3003 20.7535 51.6263 21.0976 51.8839 21.5444C52.1414 21.9911 52.2702 22.5344 52.2702 23.1743C52.2702 23.8062 52.1213 24.3737 51.8235 24.8768C51.5297 25.3758 51.0749 25.7722 50.4591 26.066C49.8434 26.3558 49.0566 26.5007 48.0987 26.5007H43.3597ZM45.2251 24.9009H47.9176C48.8111 24.9009 49.451 24.7279 49.8373 24.3817C50.2237 24.0356 50.4169 23.603 50.4169 23.0838C50.4169 22.6934 50.3183 22.3352 50.1211 22.0092C49.9239 21.6832 49.6421 21.4236 49.2759 21.2305C48.9137 21.0373 48.483 20.9407 47.984 20.9407H45.2251V24.9009ZM45.2251 19.4858H47.7244C48.143 19.4858 48.5193 19.4053 48.8533 19.2443C49.1914 19.0833 49.459 18.8579 49.6562 18.5682C49.8575 18.2744 49.9581 17.9283 49.9581 17.5298C49.9581 17.0187 49.779 16.5901 49.4208 16.244C49.0626 15.8978 48.5132 15.7248 47.7727 15.7248H45.2251V19.4858ZM60.2118 22.6552V17.228H62.0229V26.5007H60.248V24.8949H60.1514C59.9381 25.3899 59.596 25.8024 59.1251 26.1324C58.6583 26.4584 58.0767 26.6214 57.3805 26.6214C56.7848 26.6214 56.2576 26.4906 55.7988 26.229C55.344 25.9634 54.9858 25.571 54.7242 25.0518C54.4667 24.5327 54.3379 23.8907 54.3379 23.1261V17.228H56.1429V22.9087C56.1429 23.5406 56.318 24.0437 56.6681 24.418C57.0183 24.7922 57.473 24.9794 58.0325 24.9794C58.3705 24.9794 58.7066 24.8949 59.0406 24.7258C59.3787 24.5568 59.6584 24.3012 59.8798 23.9591C60.1051 23.6171 60.2158 23.1824 60.2118 22.6552ZM64.4482 26.5007V17.228H66.2533V26.5007H64.4482ZM65.3598 15.7972C65.0459 15.7972 64.7762 15.6926 64.5508 15.4833C64.3295 15.27 64.2188 15.0164 64.2188 14.7226C64.2188 14.4248 64.3295 14.1713 64.5508 13.962C64.7762 13.7487 65.0459 13.642 65.3598 13.642C65.6737 13.642 65.9413 13.7487 66.1627 13.962C66.3881 14.1713 66.5008 14.4248 66.5008 14.7226C66.5008 15.0164 66.3881 15.27 66.1627 15.4833C65.9413 15.6926 65.6737 15.7972 65.3598 15.7972ZM70.4867 14.1371V26.5007H68.6816V14.1371H70.4867ZM77.2435 17.228V18.6768H72.1785V17.228H77.2435ZM73.5368 15.0064H75.3419V23.778C75.3419 24.1282 75.3942 24.3918 75.4988 24.5689C75.6035 24.7419 75.7383 24.8607 75.9033 24.9251C76.0723 24.9854 76.2554 25.0156 76.4526 25.0156C76.5975 25.0156 76.7243 25.0056 76.833 24.9854C76.9416 24.9653 77.0262 24.9492 77.0865 24.9371L77.4125 26.4283C77.3079 26.4685 77.159 26.5087 76.9658 26.549C76.7726 26.5933 76.5311 26.6174 76.2414 26.6214C75.7664 26.6295 75.3237 26.545 74.9132 26.3679C74.5027 26.1908 74.1707 25.9171 73.9171 25.5469C73.6636 25.1766 73.5368 24.7118 73.5368 24.1523V15.0064ZM85.7495 26.5007L83.0208 17.228H84.8862L86.7034 24.0376H86.7939L88.6171 17.228H90.4825L92.2936 24.0074H92.3841L94.1891 17.228H96.0546L93.3319 26.5007H91.4906L89.6071 19.8057H89.4683L87.5847 26.5007H85.7495ZM97.7675 26.5007V17.228H99.5726V26.5007H97.7675ZM98.6791 15.7972C98.3652 15.7972 98.0955 15.6926 97.8702 15.4833C97.6488 15.27 97.5381 15.0164 97.5381 14.7226C97.5381 14.4248 97.6488 14.1713 97.8702 13.962C98.0955 13.7487 98.3652 13.642 98.6791 13.642C98.993 13.642 99.2607 13.7487 99.482 13.962C99.7074 14.1713 99.8201 14.4248 99.8201 14.7226C99.8201 15.0164 99.7074 15.27 99.482 15.4833C99.2607 15.6926 98.993 15.7972 98.6791 15.7972ZM106.329 17.228V18.6768H101.264V17.228H106.329ZM102.623 15.0064H104.428V23.778C104.428 24.1282 104.48 24.3918 104.585 24.5689C104.689 24.7419 104.824 24.8607 104.989 24.9251C105.158 24.9854 105.341 25.0156 105.539 25.0156C105.683 25.0156 105.81 25.0056 105.919 24.9854C106.028 24.9653 106.112 24.9492 106.172 24.9371L106.498 26.4283C106.394 26.4685 106.245 26.5087 106.052 26.549C105.859 26.5933 105.617 26.6174 105.327 26.6214C104.852 26.6295 104.41 26.545 103.999 26.3679C103.589 26.1908 103.257 25.9171 103.003 25.5469C102.75 25.1766 102.623 24.7118 102.623 24.1523V15.0064ZM110.33 20.995V26.5007H108.525V14.1371H110.306V18.7372H110.421C110.638 18.2382 110.97 17.8417 111.417 17.5479C111.864 17.2541 112.447 17.1072 113.168 17.1072C113.804 17.1072 114.359 17.238 114.834 17.4996C115.313 17.7612 115.683 18.1516 115.945 18.6708C116.21 19.1859 116.343 19.8299 116.343 20.6026V26.5007H114.538V20.8199C114.538 20.1398 114.363 19.6126 114.013 19.2383C113.663 18.86 113.176 18.6708 112.552 18.6708C112.125 18.6708 111.743 18.7614 111.405 18.9425C111.071 19.1236 110.807 19.3892 110.614 19.7393C110.425 20.0855 110.33 20.504 110.33 20.995Z" fill="#E8E8E8"/>
<path d="M122.937 26.0007V13.6371H125.925V18.865H126.088L130.175 13.6371H133.695L129.312 19.1548L133.773 26.0007H130.2L127.121 21.141L125.925 22.6502V26.0007H122.937ZM140.275 21.9982V16.728H143.221V26.0007H140.408V24.2741H140.311C140.106 24.8416 139.756 25.2924 139.261 25.6264C138.77 25.9564 138.176 26.1214 137.48 26.1214C136.848 26.1214 136.293 25.9765 135.814 25.6868C135.335 25.397 134.963 24.9925 134.697 24.4734C134.431 23.9502 134.297 23.3384 134.293 22.6381V16.728H137.245V22.0586C137.249 22.5617 137.381 22.9581 137.643 23.2479C137.905 23.5376 138.261 23.6825 138.712 23.6825C139.005 23.6825 139.269 23.6181 139.502 23.4893C139.74 23.3565 139.927 23.1654 140.064 22.9158C140.205 22.6623 140.275 22.3564 140.275 21.9982ZM145.1 26.0007V13.6371H148.052V18.3157H148.113C148.233 18.034 148.404 17.7623 148.626 17.5007C148.851 17.2391 149.137 17.0258 149.483 16.8608C149.833 16.6918 150.252 16.6072 150.739 16.6072C151.383 16.6072 151.984 16.7763 152.544 17.1143C153.107 17.4524 153.562 17.9736 153.908 18.6779C154.254 19.3822 154.427 20.2797 154.427 21.3704C154.427 22.4208 154.26 23.3002 153.926 24.0085C153.596 24.7168 153.149 25.2481 152.586 25.6023C152.027 25.9564 151.405 26.1335 150.721 26.1335C150.254 26.1335 149.849 26.057 149.507 25.9041C149.165 25.7512 148.877 25.5499 148.644 25.3004C148.414 25.0509 148.237 24.7832 148.113 24.4975H148.022V26.0007H145.1ZM147.992 21.3643C147.992 21.8634 148.058 22.298 148.191 22.6683C148.328 23.0386 148.523 23.3263 148.777 23.5316C149.034 23.7328 149.342 23.8334 149.7 23.8334C150.063 23.8334 150.37 23.7328 150.624 23.5316C150.878 23.3263 151.069 23.0386 151.197 22.6683C151.33 22.298 151.397 21.8634 151.397 21.3643C151.397 20.8653 151.33 20.4326 151.197 20.0664C151.069 19.7002 150.878 19.4164 150.624 19.2152C150.374 19.014 150.067 18.9133 149.7 18.9133C149.338 18.9133 149.03 19.0119 148.777 19.2092C148.523 19.4064 148.328 19.6881 148.191 20.0543C148.058 20.4206 147.992 20.8572 147.992 21.3643ZM160.309 26.1758C159.339 26.1758 158.502 25.9846 157.797 25.6023C157.097 25.2159 156.558 24.6665 156.179 23.9542C155.805 23.2378 155.618 22.3866 155.618 21.4006C155.618 20.4427 155.807 19.6056 156.185 18.8892C156.564 18.1688 157.097 17.6094 157.785 17.2109C158.473 16.8085 159.284 16.6072 160.218 16.6072C160.878 16.6072 161.482 16.7099 162.029 16.9151C162.577 17.1204 163.049 17.4242 163.448 17.8267C163.846 18.2292 164.156 18.7262 164.378 19.3178C164.599 19.9054 164.71 20.5795 164.71 21.3402V22.0767H156.65V20.3622H161.963C161.959 20.0483 161.884 19.7686 161.739 19.5231C161.595 19.2776 161.395 19.0864 161.142 18.9496C160.892 18.8087 160.605 18.7383 160.279 18.7383C159.949 18.7383 159.653 18.8127 159.391 18.9616C159.129 19.1065 158.922 19.3057 158.769 19.5593C158.616 19.8088 158.536 20.0926 158.528 20.4105V22.1552C158.528 22.5335 158.602 22.8655 158.751 23.1513C158.9 23.433 159.111 23.6523 159.385 23.8093C159.659 23.9663 159.985 24.0447 160.363 24.0447C160.625 24.0447 160.862 24.0085 161.075 23.9361C161.289 23.8636 161.472 23.757 161.625 23.6161C161.778 23.4752 161.892 23.3022 161.969 23.0969L164.679 23.1754C164.567 23.7831 164.319 24.3124 163.937 24.7631C163.559 25.2099 163.062 25.558 162.446 25.8075C161.83 26.053 161.118 26.1758 160.309 26.1758ZM166.217 26.0007V16.728H169.085V18.4183H169.181C169.351 17.8066 169.626 17.3518 170.009 17.054C170.391 16.7521 170.836 16.6012 171.343 16.6012C171.48 16.6012 171.62 16.6113 171.765 16.6314C171.91 16.6475 172.045 16.6736 172.17 16.7099V19.2756C172.029 19.2273 171.844 19.189 171.614 19.1609C171.389 19.1327 171.188 19.1186 171.011 19.1186C170.661 19.1186 170.345 19.1971 170.063 19.354C169.785 19.507 169.566 19.7223 169.405 20C169.248 20.2737 169.169 20.5956 169.169 20.9659V26.0007H166.217ZM176.325 20.7123V26.0007H173.373V16.728H176.18V18.4304H176.282C176.488 17.8629 176.838 17.4182 177.333 17.0962C177.828 16.7702 178.417 16.6072 179.102 16.6072C179.754 16.6072 180.319 16.7541 180.798 17.0479C181.281 17.3377 181.655 17.7442 181.921 18.2674C182.191 18.7866 182.323 19.3943 182.319 20.0905V26.0007H179.367V20.6701C179.371 20.1549 179.241 19.7525 178.975 19.4627C178.713 19.1729 178.349 19.028 177.882 19.028C177.572 19.028 177.299 19.0965 177.061 19.2333C176.828 19.3661 176.647 19.5573 176.518 19.8068C176.393 20.0563 176.329 20.3582 176.325 20.7123ZM188.482 26.1758C187.512 26.1758 186.675 25.9846 185.97 25.6023C185.27 25.2159 184.731 24.6665 184.352 23.9542C183.978 23.2378 183.791 22.3866 183.791 21.4006C183.791 20.4427 183.98 19.6056 184.358 18.8892C184.737 18.1688 185.27 17.6094 185.958 17.2109C186.646 16.8085 187.457 16.6072 188.391 16.6072C189.051 16.6072 189.655 16.7099 190.202 16.9151C190.749 17.1204 191.222 17.4242 191.621 17.8267C192.019 18.2292 192.329 18.7262 192.55 19.3178C192.772 19.9054 192.882 20.5795 192.882 21.3402V22.0767H184.823V20.3622H190.136C190.132 20.0483 190.057 19.7686 189.912 19.5231C189.767 19.2776 189.568 19.0864 189.315 18.9496C189.065 18.8087 188.777 18.7383 188.451 18.7383C188.121 18.7383 187.826 18.8127 187.564 18.9616C187.302 19.1065 187.095 19.3057 186.942 19.5593C186.789 19.8088 186.709 20.0926 186.701 20.4105V22.1552C186.701 22.5335 186.775 22.8655 186.924 23.1513C187.073 23.433 187.284 23.6523 187.558 23.8093C187.832 23.9663 188.158 24.0447 188.536 24.0447C188.797 24.0447 189.035 24.0085 189.248 23.9361C189.462 23.8636 189.645 23.757 189.798 23.6161C189.951 23.4752 190.065 23.3022 190.142 23.0969L192.852 23.1754C192.74 23.7831 192.492 24.3124 192.11 24.7631C191.731 25.2099 191.234 25.558 190.619 25.8075C190.003 26.053 189.291 26.1758 188.482 26.1758ZM199.624 16.728V18.9013H193.774V16.728H199.624ZM195 14.5064H197.952V23.0849C197.952 23.266 197.98 23.4129 198.037 23.5256C198.097 23.6342 198.183 23.7127 198.296 23.761C198.409 23.8053 198.544 23.8274 198.701 23.8274C198.813 23.8274 198.932 23.8173 199.057 23.7972C199.186 23.7731 199.282 23.7529 199.347 23.7368L199.793 25.8679C199.652 25.9081 199.453 25.9584 199.196 26.0188C198.942 26.0792 198.638 26.1174 198.284 26.1335C197.592 26.1657 196.998 26.0852 196.503 25.892C196.012 25.6948 195.636 25.389 195.374 24.9744C195.117 24.5599 194.992 24.0387 195 23.4109V14.5064ZM205.365 26.1758C204.395 26.1758 203.558 25.9846 202.854 25.6023C202.154 25.2159 201.614 24.6665 201.236 23.9542C200.862 23.2378 200.675 22.3866 200.675 21.4006C200.675 20.4427 200.864 19.6056 201.242 18.8892C201.62 18.1688 202.154 17.6094 202.842 17.2109C203.53 16.8085 204.341 16.6072 205.275 16.6072C205.935 16.6072 206.539 16.7099 207.086 16.9151C207.633 17.1204 208.106 17.4242 208.505 17.8267C208.903 18.2292 209.213 18.7262 209.434 19.3178C209.656 19.9054 209.766 20.5795 209.766 21.3402V22.0767H201.707V20.3622H207.019C207.015 20.0483 206.941 19.7686 206.796 19.5231C206.651 19.2776 206.452 19.0864 206.198 18.9496C205.949 18.8087 205.661 18.7383 205.335 18.7383C205.005 18.7383 204.709 18.8127 204.448 18.9616C204.186 19.1065 203.979 19.3057 203.826 19.5593C203.673 19.8088 203.592 20.0926 203.584 20.4105V22.1552C203.584 22.5335 203.659 22.8655 203.808 23.1513C203.957 23.433 204.168 23.6523 204.442 23.8093C204.715 23.9663 205.041 24.0447 205.42 24.0447C205.681 24.0447 205.919 24.0085 206.132 23.9361C206.345 23.8636 206.528 23.757 206.681 23.6161C206.834 23.4752 206.949 23.3022 207.025 23.0969L209.736 23.1754C209.623 23.7831 209.376 24.3124 208.994 24.7631C208.615 25.2099 208.118 25.558 207.502 25.8075C206.887 26.053 206.174 26.1758 205.365 26.1758ZM219.37 19.5593L216.659 19.6317C216.631 19.4386 216.554 19.2675 216.43 19.1186C216.305 18.9657 216.142 18.8469 215.941 18.7624C215.743 18.6739 215.514 18.6296 215.252 18.6296C214.91 18.6296 214.618 18.698 214.377 18.8349C214.14 18.9717 214.023 19.1568 214.027 19.3903C214.023 19.5714 214.095 19.7283 214.244 19.8611C214.397 19.994 214.669 20.1006 215.059 20.1811L216.846 20.5192C217.772 20.6962 218.46 20.99 218.911 21.4006C219.365 21.8111 219.595 22.3544 219.599 23.0305C219.595 23.6664 219.406 24.2198 219.031 24.6907C218.661 25.1616 218.154 25.5278 217.51 25.7894C216.866 26.047 216.13 26.1758 215.301 26.1758C213.977 26.1758 212.932 25.9041 212.167 25.3608C211.407 24.8134 210.972 24.081 210.863 23.1633L213.779 23.0909C213.844 23.429 214.011 23.6865 214.28 23.8636C214.55 24.0407 214.894 24.1292 215.313 24.1292C215.691 24.1292 215.999 24.0588 216.236 23.918C216.474 23.7771 216.595 23.5899 216.599 23.3565C216.595 23.1472 216.502 22.9802 216.321 22.8555C216.14 22.7267 215.856 22.6261 215.47 22.5536L213.852 22.2457C212.922 22.0767 212.23 21.7648 211.775 21.31C211.32 20.8512 211.095 20.2676 211.099 19.5593C211.095 18.9395 211.26 18.4103 211.594 17.9716C211.928 17.5289 212.403 17.1908 213.019 16.9574C213.634 16.7239 214.361 16.6072 215.198 16.6072C216.454 16.6072 217.444 16.8708 218.168 17.3981C218.893 17.9213 219.293 18.6417 219.37 19.5593Z" fill="#326DE6"/>
</g>
<defs>
<filter id="filter0_d_1_56" x="2.39972" y="0.39972" width="39.202" height="39.202" filterUnits="userSpaceOnUse" color-interpolation-filters="sRGB">
<feFlood flood-opacity="0" result="BackgroundImageFix"/>
<feColorMatrix in="SourceAlpha" type="matrix" values="0 0 0 0 0 0 0 0 0 0 0 0 0 0 0 0 0 0 127 0" result="hardAlpha"/>
<feOffset/>
<feGaussianBlur stdDeviation="2.80014"/>
<feComposite in2="hardAlpha" operator="out"/>
<feColorMatrix type="matrix" values="0 0 0 0 0 0 0 0 0 0 0 0 0 0 0 0 0 0 0.25 0"/>
<feBlend mode="normal" in2="BackgroundImageFix" result="effect1_dropShadow_1_56"/>
<feBlend mode="normal" in="SourceGraphic" in2="effect1_dropShadow_1_56" result="shape"/>
</filter>
<filter id="filter1_d_1_56" x="36.2871" y="3.78642" width="190.429" height="32.4286" filterUnits="userSpaceOnUse" color-interpolation-filters="sRGB">
<feFlood flood-opacity="0" result="BackgroundImageFix"/>
<feColorMatrix in="SourceAlpha" type="matrix" values="0 0 0 0 0 0 0 0 0 0 0 0 0 0 0 0 0 0 127 0" result="hardAlpha"/>
<feOffset/>
<feGaussianBlur stdDeviation="2.85714"/>
<feComposite in2="hardAlpha" operator="out"/>
<feColorMatrix type="matrix" values="0 0 0 0 0 0 0 0 0 0 0 0 0 0 0 0 0 0 0.25 0"/>
<feBlend mode="normal" in2="BackgroundImageFix" result="effect1_dropShadow_1_56"/>
<feBlend mode="normal" in="SourceGraphic" in2="effect1_dropShadow_1_56" result="shape"/>
</filter>
<linearGradient id="paint0_linear_1_56" x1="114.501" y1="0" x2="114.501" y2="40.0014" gradientUnits="userSpaceOnUse">
<stop stop-color="#0B2457"/>
<stop offset="1" stop-color="#050F25"/>
</linearGradient>
</defs>
</svg>
