<svg width="171" height="56" viewBox="0 0 171 56" fill="none" xmlns="http://www.w3.org/2000/svg">
<rect width="171" height="56" rx="8" fill="url(#paint0_linear_1_50)"/>
<rect x="1.05" y="1.05" width="168.9" height="53.9" rx="6.95" stroke="white" stroke-opacity="0.15" stroke-width="2.1"/>
<g filter="url(#filter0_d_1_50)">
<path d="M48.5008 17.2244C48.272 16.4926 47.7231 15.8979 47.037 15.532L33.0858 8.85371C32.7198 8.67074 32.3082 8.625 31.9422 8.625C31.5763 8.625 31.1646 8.625 30.7987 8.71648L16.8475 15.4405C16.1613 15.7607 15.6582 16.3554 15.4752 17.133L12.0446 32.182C11.9073 32.9596 12.0903 33.7372 12.5477 34.3776L22.1992 46.3162C22.7481 46.8651 23.5258 47.231 24.3034 47.2768H39.6726C40.4959 47.3683 41.2736 47.0023 41.7767 46.3162L51.4282 34.3776C51.8856 33.7372 52.0686 32.9596 51.9771 32.182L48.5008 17.2244Z" fill="#326DE6"/>
<path d="M46.3509 31.5874C46.3052 31.5874 46.2594 31.5874 46.2594 31.5416C46.2594 31.4959 46.1679 31.4959 46.0764 31.4959C45.8935 31.4501 45.7105 31.4501 45.5275 31.4501C45.4361 31.4501 45.3446 31.4501 45.2531 31.4044H45.2073C44.7042 31.3587 44.1553 31.2672 43.6521 31.1299C43.5149 31.0842 43.3777 30.947 43.3319 30.8098L42.966 30.7183C43.149 29.3918 43.0575 28.0195 42.783 26.693C42.4628 25.3665 41.9139 24.0857 41.1821 22.9422L41.4565 22.6677V22.622C41.4565 22.4848 41.5023 22.3018 41.5937 22.2103C42.0054 21.8444 42.4171 21.5699 42.8745 21.2955C42.966 21.2497 43.0575 21.204 43.149 21.1582C43.3319 21.0668 43.4692 20.9753 43.6521 20.8838C43.6979 20.838 43.7436 20.838 43.7894 20.7923C43.8351 20.7466 43.7894 20.7466 43.7894 20.7008C44.201 20.3806 44.2925 19.8317 43.9723 19.4201C43.8351 19.2371 43.5606 19.0999 43.3319 19.0999C43.1032 19.0999 42.8745 19.1913 42.6916 19.3286L42.6458 19.3743C42.6001 19.4201 42.5543 19.4658 42.5086 19.4658C42.3714 19.603 42.2341 19.7402 42.1427 19.8775C42.0969 19.969 42.0054 20.0147 41.9597 20.0604C41.6395 20.4264 41.2278 20.7923 40.8161 21.0668C40.7247 21.1125 40.6332 21.1582 40.5417 21.1582C40.4959 21.1582 40.4045 21.1582 40.3587 21.1125H40.313L39.947 21.3412C39.5811 20.9753 39.1694 20.6093 38.8035 20.2434C37.1111 18.9169 35.0069 18.0935 32.8571 17.8648L32.8113 17.4989V17.5446C32.6741 17.4532 32.6284 17.3159 32.5826 17.1787C32.5826 16.6755 32.5826 16.1724 32.6741 15.6235V15.5777C32.6741 15.4863 32.7198 15.3948 32.7198 15.3033C32.7656 15.1203 32.7656 14.9374 32.8113 14.7544V14.4799C32.8571 14.0225 32.4911 13.5651 32.0337 13.5194C31.7593 13.4736 31.4848 13.6109 31.2561 13.8396C31.0731 14.0225 30.9817 14.2512 30.9817 14.4799V14.7087C30.9817 14.8916 31.0274 15.0746 31.0731 15.2576C31.1189 15.349 31.1189 15.4405 31.1189 15.532V15.5777C31.2104 16.0809 31.2104 16.5841 31.2104 17.133C31.1646 17.2702 31.1189 17.4074 30.9817 17.4989V17.5904L30.9359 17.9563C30.4328 18.0021 29.9296 18.0935 29.3807 18.185C27.2308 18.6424 25.2639 19.786 23.7545 21.3869L23.48 21.204H23.4343C23.3885 21.204 23.3428 21.2497 23.2513 21.2497C23.1598 21.2497 23.0683 21.204 22.9769 21.1582C22.5652 20.838 22.1535 20.4721 21.8333 20.1062C21.7876 20.0147 21.6961 19.969 21.6503 19.9232C21.5131 19.786 21.4216 19.6488 21.2844 19.5115C21.2387 19.4658 21.1929 19.4658 21.1472 19.4201C21.1014 19.3743 21.1014 19.3743 21.1014 19.3743C20.9185 19.2371 20.6898 19.1456 20.4611 19.1456C20.1866 19.1456 19.9579 19.2371 19.8207 19.4658C19.5462 19.8775 19.6377 20.4264 20.0036 20.7466C20.0494 20.7466 20.0494 20.7923 20.0494 20.7923C20.0494 20.7923 20.1409 20.8838 20.1866 20.8838C20.3238 20.9753 20.5068 21.0668 20.6898 21.1582C20.7813 21.204 20.8727 21.2497 20.9642 21.2955C21.4216 21.5699 21.8791 21.8444 22.245 22.2103C22.3365 22.3018 22.428 22.4848 22.3822 22.622V22.5762L22.6567 22.8507C22.6109 22.9422 22.5652 22.9879 22.5194 23.0794C21.1014 25.3207 20.5068 27.9738 20.9185 30.581L20.5525 30.6725C20.5525 30.7183 20.5068 30.7183 20.5068 30.7183C20.4611 30.8555 20.3238 30.947 20.1866 31.0385C19.6834 31.1757 19.1803 31.2672 18.6314 31.3129C18.5399 31.3129 18.4484 31.3129 18.3569 31.3587C18.174 31.3587 17.991 31.4044 17.808 31.4044C17.7623 31.4044 17.7166 31.4501 17.6251 31.4501C17.5793 31.4501 17.5793 31.4501 17.5336 31.4959C17.0304 31.5874 16.7102 32.0448 16.8017 32.5479C16.8932 32.9596 17.3049 33.2341 17.7166 33.1883C17.808 33.1883 17.8538 33.1883 17.9453 33.1426C17.991 33.1426 17.991 33.1426 17.991 33.0968C17.991 33.0511 18.1282 33.0968 18.174 33.0968C18.3569 33.0511 18.5399 32.9596 18.6771 32.9139C18.7686 32.8681 18.8601 32.8224 18.9516 32.8224H18.9973C19.5005 32.6394 19.9579 32.5022 20.5068 32.4107H20.5525C20.6898 32.4107 20.827 32.4565 20.9185 32.5479C20.9642 32.5479 20.9642 32.5937 20.9642 32.5937L21.3759 32.5479C22.062 34.6521 23.3428 36.5275 25.1267 37.8997C25.5384 38.2199 25.9043 38.4944 26.3617 38.7231L26.133 39.0433C26.133 39.089 26.1788 39.089 26.1788 39.089C26.2703 39.2262 26.2703 39.4092 26.2245 39.5464C26.0416 40.0038 25.7671 40.4613 25.4927 40.8729V40.9187C25.4469 41.0102 25.4012 41.0559 25.3097 41.1474C25.2182 41.2389 25.1267 41.4218 24.9895 41.6048C24.9438 41.6505 24.9437 41.6963 24.898 41.742C24.898 41.742 24.898 41.7878 24.8523 41.7878C24.6236 42.2452 24.8065 42.7941 25.2182 43.0228C25.3097 43.0685 25.4469 43.1143 25.5384 43.1143C25.9043 43.1143 26.2245 42.8856 26.4075 42.5654C26.4075 42.5654 26.4075 42.5196 26.4532 42.5196C26.4532 42.4739 26.499 42.4282 26.5447 42.3824C26.5905 42.1995 26.6819 42.0622 26.7277 41.8793L26.8192 41.6048C26.9564 41.1016 27.1851 40.6442 27.4138 40.1868C27.5053 40.0496 27.6425 39.9581 27.7797 39.9124C27.8255 39.9124 27.8255 39.9124 27.8255 39.8666L28.0084 39.5007C29.2892 40.0038 30.6157 40.2326 31.988 40.2326C32.8113 40.2326 33.6347 40.1411 34.458 39.9124C34.9612 39.8209 35.4644 39.6379 35.9218 39.5007L36.1047 39.8209C36.1505 39.8209 36.1505 39.8209 36.1505 39.8666C36.2877 39.9124 36.4249 40.0038 36.5164 40.1411C36.7451 40.5985 36.9738 41.0559 37.1111 41.5591V41.6048L37.2025 41.8793C37.2483 42.0622 37.294 42.2452 37.3855 42.3824C37.4313 42.4282 37.4313 42.4739 37.477 42.5196C37.477 42.5196 37.477 42.5654 37.5227 42.5654C37.7057 42.8856 38.0259 43.1143 38.3918 43.1143C38.5291 43.1143 38.6205 43.0685 38.7578 43.0228C38.9407 42.9313 39.1237 42.7484 39.1694 42.5196C39.2152 42.2909 39.2152 42.0622 39.1237 41.8335C39.1237 41.7878 39.078 41.7878 39.078 41.7878C39.078 41.742 39.0322 41.6963 38.9865 41.6505C38.895 41.4676 38.8035 41.3304 38.6663 41.1931C38.6205 41.1016 38.5748 41.0559 38.4833 40.9644V40.8729C38.1631 40.4613 37.9344 40.0038 37.7514 39.5464C37.7057 39.4092 37.7057 39.2262 37.7972 39.089C37.7972 39.0433 37.8429 39.0433 37.8429 39.0433L37.7057 38.6773C40.0385 37.2593 41.8225 35.0637 42.6458 32.4565L43.0117 32.5022C43.0575 32.5022 43.0575 32.4565 43.0575 32.4565C43.149 32.365 43.2862 32.3192 43.4234 32.3192H43.4692C43.9723 32.4107 44.4755 32.5479 44.9329 32.7309H44.9786C45.0701 32.7766 45.1616 32.8224 45.2531 32.8224C45.4361 32.9139 45.5733 33.0054 45.7563 33.0511C45.802 33.0511 45.8477 33.0968 45.9392 33.0968C45.985 33.0968 45.985 33.0968 46.0307 33.1426C46.1222 33.1883 46.1679 33.1883 46.2594 33.1883C46.6711 33.1883 47.037 32.9139 47.1742 32.5479C47.1285 32.0448 46.7626 31.6788 46.3509 31.5874ZM33.1315 30.1694L31.8965 30.764L30.6615 30.1694L30.3413 28.8429L31.2104 27.7451H32.5826L33.4517 28.8429L33.1315 30.1694ZM40.5874 27.1962C40.8161 28.1567 40.8619 29.1173 40.7704 30.0779L36.4249 28.8429C36.0133 28.7514 35.7845 28.3397 35.876 27.928C35.9218 27.7908 35.9675 27.6993 36.059 27.6078L39.4896 24.4974C39.9928 25.3207 40.3587 26.2356 40.5874 27.1962ZM38.1174 22.8049L34.3666 25.458C34.0464 25.6409 33.5889 25.5952 33.3602 25.275C33.2688 25.1835 33.223 25.092 33.223 24.9548L32.9486 20.3349C34.9612 20.5636 36.7451 21.4327 38.1174 22.8049ZM29.8381 20.4721L30.753 20.2891L30.5242 24.8633C30.5242 25.275 30.1583 25.5952 29.7466 25.5952C29.6094 25.5952 29.5179 25.5495 29.3807 25.5037L25.5841 22.8049C26.7734 21.6614 28.2372 20.838 29.8381 20.4721ZM24.2576 24.4974L27.6425 27.5163C27.9627 27.7908 28.0084 28.2482 27.734 28.5684C27.6425 28.7056 27.551 28.7514 27.3681 28.7971L22.9311 30.0779C22.7939 28.1567 23.2513 26.1898 24.2576 24.4974ZM23.48 32.2277L28.0084 31.4501C28.3744 31.4501 28.7403 31.6788 28.7861 32.0448C28.8318 32.182 28.8318 32.365 28.7403 32.5022L27.0021 36.7104C25.4012 35.6584 24.1204 34.0574 23.48 32.2277ZM33.8634 37.8997C33.223 38.037 32.5826 38.1284 31.8965 38.1284C30.9359 38.1284 29.9296 37.9455 29.0148 37.671L31.2561 33.6C31.4848 33.3255 31.8508 33.2341 32.1709 33.417C32.3082 33.5085 32.3997 33.6 32.5369 33.7372L34.7325 37.7168C34.458 37.7625 34.1836 37.8082 33.8634 37.8997ZM39.4439 33.9202C38.7578 35.018 37.7972 35.9786 36.6994 36.6647L34.9155 32.365C34.824 31.999 35.0069 31.6331 35.3271 31.4959C35.4644 31.4501 35.6016 31.4044 35.7388 31.4044L40.313 32.182C40.0843 32.8224 39.8098 33.417 39.4439 33.9202Z" fill="white"/>
</g>
<g filter="url(#filter1_d_1_50)">
<path d="M61.2784 24.5V12.8636H65.5398C66.3655 12.8636 67.0492 13 67.5909 13.2727C68.1326 13.5417 68.5379 13.9072 68.8068 14.3693C69.0757 14.8276 69.2102 15.3447 69.2102 15.9204C69.2102 16.4053 69.1212 16.8144 68.9432 17.1477C68.7651 17.4773 68.5265 17.7424 68.2273 17.9432C67.9318 18.1401 67.606 18.2841 67.25 18.375V18.4886C67.6363 18.5076 68.0132 18.6326 68.3807 18.8636C68.7519 19.0909 69.0587 19.4148 69.3011 19.8352C69.5435 20.2557 69.6648 20.767 69.6648 21.3693C69.6648 21.964 69.5246 22.4981 69.2443 22.9716C68.9678 23.4413 68.5398 23.8144 67.9602 24.0909C67.3807 24.3636 66.6401 24.5 65.7386 24.5H61.2784ZM63.0341 22.9943H65.5682C66.4091 22.9943 67.0113 22.8314 67.375 22.5057C67.7386 22.1799 67.9204 21.7727 67.9204 21.2841C67.9204 20.9167 67.8276 20.5795 67.642 20.2727C67.4564 19.9659 67.1913 19.7216 66.8466 19.5398C66.5057 19.3579 66.1004 19.267 65.6307 19.267H63.0341V22.9943ZM63.0341 17.8977H65.3863C65.7803 17.8977 66.1345 17.822 66.4488 17.6704C66.767 17.5189 67.0189 17.3068 67.2045 17.0341C67.3939 16.7576 67.4886 16.4318 67.4886 16.0568C67.4886 15.5758 67.3201 15.1723 66.9829 14.8466C66.6458 14.5208 66.1288 14.3579 65.4318 14.3579H63.0341V17.8977ZM77.1392 20.8807V15.7727H78.8437V24.5H77.1733V22.9886H77.0824C76.8816 23.4545 76.5596 23.8428 76.1165 24.1534C75.6771 24.4602 75.1297 24.6136 74.4744 24.6136C73.9138 24.6136 73.4176 24.4905 72.9858 24.2443C72.5577 23.9943 72.2206 23.625 71.9744 23.1364C71.732 22.6477 71.6108 22.0436 71.6108 21.3239V15.7727H73.3096V21.1193C73.3096 21.714 73.4744 22.1875 73.804 22.5398C74.1335 22.892 74.5615 23.0682 75.088 23.0682C75.4062 23.0682 75.7225 22.9886 76.0369 22.8295C76.3551 22.6704 76.6184 22.4299 76.8267 22.1079C77.0388 21.786 77.143 21.3769 77.1392 20.8807ZM81.1264 24.5V15.7727H82.8253V24.5H81.1264ZM81.9844 14.4261C81.6889 14.4261 81.4351 14.3276 81.223 14.1307C81.0147 13.9299 80.9105 13.6913 80.9105 13.4148C80.9105 13.1345 81.0147 12.8958 81.223 12.6989C81.4351 12.4981 81.6889 12.3977 81.9844 12.3977C82.2798 12.3977 82.5317 12.4981 82.74 12.6989C82.9522 12.8958 83.0582 13.1345 83.0582 13.4148C83.0582 13.6913 82.9522 13.9299 82.74 14.1307C82.5317 14.3276 82.2798 14.4261 81.9844 14.4261ZM86.8096 12.8636V24.5H85.1108V12.8636H86.8096ZM93.169 15.7727V17.1364H88.402V15.7727H93.169ZM89.6804 13.6818H91.3792V21.9375C91.3792 22.267 91.4285 22.5151 91.527 22.6818C91.6254 22.8447 91.7523 22.9564 91.9076 23.017C92.0667 23.0739 92.2391 23.1023 92.4247 23.1023C92.5611 23.1023 92.6804 23.0928 92.7826 23.0739C92.8849 23.0549 92.9645 23.0398 93.0213 23.0284L93.3281 24.4318C93.2296 24.4697 93.0895 24.5076 92.9076 24.5454C92.7258 24.5871 92.4986 24.6098 92.2258 24.6136C91.7789 24.6212 91.3622 24.5417 90.9758 24.375C90.5895 24.2083 90.277 23.9508 90.0383 23.6023C89.7997 23.2538 89.6804 22.8163 89.6804 22.2898V13.6818ZM101.175 24.5L98.6065 15.7727H100.362L102.072 22.1818H102.158L103.874 15.7727H105.629L107.334 22.1534H107.419L109.118 15.7727H110.874L108.311 24.5H106.578L104.805 18.1989H104.675L102.902 24.5H101.175ZM112.486 24.5V15.7727H114.185V24.5H112.486ZM113.344 14.4261C113.048 14.4261 112.794 14.3276 112.582 14.1307C112.374 13.9299 112.27 13.6913 112.27 13.4148C112.27 13.1345 112.374 12.8958 112.582 12.6989C112.794 12.4981 113.048 12.3977 113.344 12.3977C113.639 12.3977 113.891 12.4981 114.099 12.6989C114.312 12.8958 114.418 13.1345 114.418 13.4148C114.418 13.6913 114.312 13.9299 114.099 14.1307C113.891 14.3276 113.639 14.4261 113.344 14.4261ZM120.544 15.7727V17.1364H115.777V15.7727H120.544ZM117.055 13.6818H118.754V21.9375C118.754 22.267 118.803 22.5151 118.902 22.6818C119 22.8447 119.127 22.9564 119.283 23.017C119.442 23.0739 119.614 23.1023 119.8 23.1023C119.936 23.1023 120.055 23.0928 120.158 23.0739C120.26 23.0549 120.339 23.0398 120.396 23.0284L120.703 24.4318C120.605 24.4697 120.464 24.5076 120.283 24.5454C120.101 24.5871 119.874 24.6098 119.601 24.6136C119.154 24.6212 118.737 24.5417 118.351 24.375C117.964 24.2083 117.652 23.9508 117.413 23.6023C117.175 23.2538 117.055 22.8163 117.055 22.2898V13.6818ZM124.31 19.3182V24.5H122.611V12.8636H124.287V17.1932H124.395C124.599 16.7235 124.912 16.3504 125.332 16.0739C125.753 15.7973 126.302 15.6591 126.98 15.6591C127.579 15.6591 128.101 15.7822 128.548 16.0284C128.999 16.2746 129.348 16.642 129.594 17.1307C129.844 17.6155 129.969 18.2216 129.969 18.9489V24.5H128.27V19.1534C128.27 18.5133 128.105 18.017 127.776 17.6648C127.446 17.3087 126.988 17.1307 126.401 17.1307C125.999 17.1307 125.639 17.2159 125.321 17.3864C125.007 17.5568 124.758 17.8068 124.577 18.1364C124.399 18.4621 124.31 18.8561 124.31 19.3182Z" fill="#E8E8E8"/>
<path d="M60.9357 43.5V31.1364H63.924V36.3643H64.087L68.174 31.1364H71.6935L67.3107 36.6541L71.772 43.5H68.1981L65.1193 38.6403L63.924 40.1495V43.5H60.9357ZM78.2738 39.4975V34.2273H81.2198V43.5H78.4066V41.7734H78.31C78.1047 42.3409 77.7546 42.7917 77.2596 43.1257C76.7686 43.4557 76.1749 43.6207 75.4787 43.6207C74.8468 43.6207 74.2914 43.4758 73.8125 43.1861C73.3336 42.8963 72.9613 42.4918 72.6956 41.9726C72.43 41.4494 72.2952 40.8377 72.2912 40.1374V34.2273H75.2432V39.5579C75.2473 40.061 75.3801 40.4574 75.6417 40.7471C75.9033 41.0369 76.2594 41.1818 76.7102 41.1818C77.004 41.1818 77.2676 41.1174 77.501 40.9886C77.7385 40.8558 77.9256 40.6646 78.0625 40.4151C78.2033 40.1616 78.2738 39.8557 78.2738 39.4975ZM83.0988 43.5V31.1364H86.0508V35.815H86.1112C86.232 35.5333 86.403 35.2616 86.6244 35C86.8497 34.7384 87.1355 34.5251 87.4816 34.3601C87.8317 34.191 88.2503 34.1065 88.7373 34.1065C89.3812 34.1065 89.9829 34.2756 90.5423 34.6136C91.1058 34.9517 91.5606 35.4729 91.9067 36.1772C92.2528 36.8815 92.4258 37.779 92.4258 38.8697C92.4258 39.9201 92.2588 40.7995 91.9248 41.5078C91.5948 42.2161 91.148 42.7474 90.5846 43.1016C90.0252 43.4557 89.4034 43.6328 88.7192 43.6328C88.2523 43.6328 87.8478 43.5563 87.5057 43.4034C87.1637 43.2505 86.8759 43.0492 86.6425 42.7997C86.4131 42.5502 86.236 42.2825 86.1112 41.9968H86.0207V43.5H83.0988ZM85.9905 38.8636C85.9905 39.3627 86.0569 39.7973 86.1897 40.1676C86.3265 40.5379 86.5217 40.8256 86.7753 41.0309C87.0329 41.2321 87.3407 41.3327 87.6989 41.3327C88.0611 41.3327 88.369 41.2321 88.6226 41.0309C88.8761 40.8256 89.0673 40.5379 89.1961 40.1676C89.3289 39.7973 89.3953 39.3627 89.3953 38.8636C89.3953 38.3646 89.3289 37.9319 89.1961 37.5657C89.0673 37.1994 88.8761 36.9157 88.6226 36.7145C88.3731 36.5132 88.0652 36.4126 87.6989 36.4126C87.3367 36.4126 87.0288 36.5112 86.7753 36.7084C86.5217 36.9056 86.3265 37.1874 86.1897 37.5536C86.0569 37.9199 85.9905 38.3565 85.9905 38.8636ZM98.3073 43.6751C97.3374 43.6751 96.5003 43.4839 95.796 43.1016C95.0957 42.7152 94.5564 42.1658 94.1781 41.4535C93.8038 40.7371 93.6166 39.8859 93.6166 38.8998C93.6166 37.942 93.8058 37.1049 94.1841 36.3885C94.5624 35.6681 95.0957 35.1087 95.7839 34.7102C96.4721 34.3078 97.2831 34.1065 98.2168 34.1065C98.8768 34.1065 99.4805 34.2092 100.028 34.4144C100.575 34.6197 101.048 34.9235 101.447 35.326C101.845 35.7284 102.155 36.2255 102.376 36.8171C102.598 37.4047 102.708 38.0788 102.708 38.8395V39.576H94.6489V37.8615H99.9614C99.9574 37.5476 99.883 37.2679 99.7381 37.0224C99.5932 36.7769 99.394 36.5857 99.1404 36.4489C98.8909 36.308 98.6031 36.2376 98.2771 36.2376C97.9471 36.2376 97.6513 36.312 97.3897 36.4609C97.1281 36.6058 96.9208 36.805 96.7679 37.0586C96.615 37.3081 96.5345 37.5918 96.5264 37.9098V39.6545C96.5264 40.0328 96.6009 40.3648 96.7498 40.6506C96.8987 40.9323 97.11 41.1516 97.3837 41.3086C97.6573 41.4655 97.9833 41.544 98.3617 41.544C98.6233 41.544 98.8607 41.5078 99.074 41.4354C99.2873 41.3629 99.4704 41.2563 99.6234 41.1154C99.7763 40.9745 99.891 40.8015 99.9675 40.5962L102.678 40.6747C102.565 41.2824 102.318 41.8117 101.936 42.2624C101.557 42.7092 101.06 43.0573 100.444 43.3068C99.8286 43.5523 99.1163 43.6751 98.3073 43.6751ZM104.216 43.5V34.2273H107.084V35.9176H107.18C107.349 35.3059 107.625 34.8511 108.007 34.5533C108.39 34.2514 108.834 34.1005 109.341 34.1005C109.478 34.1005 109.619 34.1105 109.764 34.1307C109.909 34.1468 110.044 34.1729 110.168 34.2092V36.7748C110.028 36.7266 109.842 36.6883 109.613 36.6601C109.388 36.632 109.186 36.6179 109.009 36.6179C108.659 36.6179 108.343 36.6964 108.061 36.8533C107.784 37.0063 107.564 37.2216 107.403 37.4993C107.247 37.773 107.168 38.0949 107.168 38.4652V43.5H104.216ZM114.323 38.2116V43.5H111.371V34.2273H114.178V35.9297H114.281C114.486 35.3622 114.836 34.9175 115.331 34.5955C115.826 34.2695 116.416 34.1065 117.1 34.1065C117.752 34.1065 118.318 34.2534 118.797 34.5472C119.28 34.837 119.654 35.2435 119.92 35.7667C120.189 36.2859 120.322 36.8936 120.318 37.5898V43.5H117.366V38.1694C117.37 37.6542 117.239 37.2518 116.974 36.962C116.712 36.6722 116.348 36.5273 115.881 36.5273C115.571 36.5273 115.297 36.5958 115.06 36.7326C114.826 36.8654 114.645 37.0566 114.516 37.3061C114.392 37.5556 114.327 37.8575 114.323 38.2116ZM126.48 43.6751C125.51 43.6751 124.673 43.4839 123.969 43.1016C123.269 42.7152 122.729 42.1658 122.351 41.4535C121.977 40.7371 121.789 39.8859 121.789 38.8998C121.789 37.942 121.979 37.1049 122.357 36.3885C122.735 35.6681 123.269 35.1087 123.957 34.7102C124.645 34.3078 125.456 34.1065 126.39 34.1065C127.05 34.1065 127.653 34.2092 128.201 34.4144C128.748 34.6197 129.221 34.9235 129.619 35.326C130.018 35.7284 130.328 36.2255 130.549 36.8171C130.77 37.4047 130.881 38.0788 130.881 38.8395V39.576H122.822V37.8615H128.134C128.13 37.5476 128.056 37.2679 127.911 37.0224C127.766 36.7769 127.567 36.5857 127.313 36.4489C127.064 36.308 126.776 36.2376 126.45 36.2376C126.12 36.2376 125.824 36.312 125.563 36.4609C125.301 36.6058 125.094 36.805 124.941 37.0586C124.788 37.3081 124.707 37.5918 124.699 37.9098V39.6545C124.699 40.0328 124.774 40.3648 124.923 40.6506C125.072 40.9323 125.283 41.1516 125.557 41.3086C125.83 41.4655 126.156 41.544 126.535 41.544C126.796 41.544 127.034 41.5078 127.247 41.4354C127.46 41.3629 127.643 41.2563 127.796 41.1154C127.949 40.9745 128.064 40.8015 128.14 40.5962L130.851 40.6747C130.738 41.2824 130.491 41.8117 130.108 42.2624C129.73 42.7092 129.233 43.0573 128.617 43.3068C128.001 43.5523 127.289 43.6751 126.48 43.6751ZM137.623 34.2273V36.4006H131.773V34.2273H137.623ZM132.999 32.0057H135.951V40.5842C135.951 40.7653 135.979 40.9122 136.035 41.0248C136.095 41.1335 136.182 41.212 136.295 41.2603C136.407 41.3046 136.542 41.3267 136.699 41.3267C136.812 41.3267 136.931 41.3166 137.055 41.2965C137.184 41.2724 137.281 41.2522 137.345 41.2361L137.792 43.3672C137.651 43.4074 137.452 43.4577 137.194 43.5181C136.941 43.5785 136.637 43.6167 136.283 43.6328C135.59 43.665 134.997 43.5845 134.502 43.3913C134.011 43.1941 133.634 42.8882 133.373 42.4737C133.115 42.0592 132.99 41.538 132.999 40.9101V32.0057ZM143.364 43.6751C142.394 43.6751 141.557 43.4839 140.853 43.1016C140.152 42.7152 139.613 42.1658 139.235 41.4535C138.86 40.7371 138.673 39.8859 138.673 38.8998C138.673 37.942 138.862 37.1049 139.241 36.3885C139.619 35.6681 140.152 35.1087 140.841 34.7102C141.529 34.3078 142.34 34.1065 143.273 34.1065C143.933 34.1065 144.537 34.2092 145.084 34.4144C145.632 34.6197 146.105 34.9235 146.503 35.326C146.902 35.7284 147.211 36.2255 147.433 36.8171C147.654 37.4047 147.765 38.0788 147.765 38.8395V39.576H139.706V37.8615H145.018C145.014 37.5476 144.94 37.2679 144.795 37.0224C144.65 36.7769 144.451 36.5857 144.197 36.4489C143.948 36.308 143.66 36.2376 143.334 36.2376C143.004 36.2376 142.708 36.312 142.446 36.4609C142.185 36.6058 141.977 36.805 141.825 37.0586C141.672 37.3081 141.591 37.5918 141.583 37.9098V39.6545C141.583 40.0328 141.658 40.3648 141.806 40.6506C141.955 40.9323 142.167 41.1516 142.44 41.3086C142.714 41.4655 143.04 41.544 143.418 41.544C143.68 41.544 143.917 41.5078 144.131 41.4354C144.344 41.3629 144.527 41.2563 144.68 41.1154C144.833 40.9745 144.948 40.8015 145.024 40.5962L147.735 40.6747C147.622 41.2824 147.374 41.8117 146.992 42.2624C146.614 42.7092 146.117 43.0573 145.501 43.3068C144.885 43.5523 144.173 43.6751 143.364 43.6751ZM157.368 37.0586L154.658 37.131C154.629 36.9378 154.553 36.7668 154.428 36.6179C154.303 36.465 154.14 36.3462 153.939 36.2617C153.742 36.1732 153.513 36.1289 153.251 36.1289C152.909 36.1289 152.617 36.1973 152.376 36.3342C152.138 36.471 152.021 36.6561 152.025 36.8895C152.021 37.0707 152.094 37.2276 152.243 37.3604C152.396 37.4932 152.667 37.5999 153.058 37.6804L154.845 38.0185C155.77 38.1955 156.459 38.4893 156.909 38.8998C157.364 39.3104 157.593 39.8537 157.598 40.5298C157.593 41.1657 157.404 41.7191 157.03 42.19C156.66 42.6609 156.153 43.0271 155.509 43.2887C154.865 43.5463 154.128 43.6751 153.299 43.6751C151.975 43.6751 150.931 43.4034 150.166 42.8601C149.405 42.3127 148.971 41.5802 148.862 40.6626L151.778 40.5902C151.842 40.9283 152.009 41.1858 152.279 41.3629C152.549 41.54 152.893 41.6285 153.311 41.6285C153.69 41.6285 153.998 41.5581 154.235 41.4172C154.472 41.2764 154.593 41.0892 154.597 40.8558C154.593 40.6465 154.501 40.4795 154.319 40.3547C154.138 40.226 153.855 40.1253 153.468 40.0529L151.85 39.745C150.921 39.576 150.228 39.2641 149.774 38.8093C149.319 38.3505 149.094 37.7669 149.098 37.0586C149.094 36.4388 149.259 35.9096 149.593 35.4709C149.927 35.0282 150.402 34.6901 151.017 34.4567C151.633 34.2232 152.359 34.1065 153.197 34.1065C154.452 34.1065 155.442 34.3701 156.167 34.8974C156.891 35.4206 157.292 36.141 157.368 37.0586Z" fill="#326DE6"/>
</g>
<defs>
<filter id="filter0_d_1_50" x="6.28571" y="2.28571" width="51.4286" height="51.4286" filterUnits="userSpaceOnUse" color-interpolation-filters="sRGB">
<feFlood flood-opacity="0" result="BackgroundImageFix"/>
<feColorMatrix in="SourceAlpha" type="matrix" values="0 0 0 0 0 0 0 0 0 0 0 0 0 0 0 0 0 0 127 0" result="hardAlpha"/>
<feOffset/>
<feGaussianBlur stdDeviation="2.85714"/>
<feComposite in2="hardAlpha" operator="out"/>
<feColorMatrix type="matrix" values="0 0 0 0 0 0 0 0 0 0 0 0 0 0 0 0 0 0 0.25 0"/>
<feBlend mode="normal" in2="BackgroundImageFix" result="effect1_dropShadow_1_50"/>
<feBlend mode="normal" in="SourceGraphic" in2="effect1_dropShadow_1_50" result="shape"/>
</filter>
<filter id="filter1_d_1_50" x="54.4" y="3.9" width="110.2" height="48.2" filterUnits="userSpaceOnUse" color-interpolation-filters="sRGB">
<feFlood flood-opacity="0" result="BackgroundImageFix"/>
<feColorMatrix in="SourceAlpha" type="matrix" values="0 0 0 0 0 0 0 0 0 0 0 0 0 0 0 0 0 0 127 0" result="hardAlpha"/>
<feOffset/>
<feGaussianBlur stdDeviation="2.8"/>
<feComposite in2="hardAlpha" operator="out"/>
<feColorMatrix type="matrix" values="0 0 0 0 0 0 0 0 0 0 0 0 0 0 0 0 0 0 0.25 0"/>
<feBlend mode="normal" in2="BackgroundImageFix" result="effect1_dropShadow_1_50"/>
<feBlend mode="normal" in="SourceGraphic" in2="effect1_dropShadow_1_50" result="shape"/>
</filter>
<linearGradient id="paint0_linear_1_50" x1="85.5" y1="0" x2="85.5" y2="56" gradientUnits="userSpaceOnUse">
<stop stop-color="#0B2457"/>
<stop offset="1" stop-color="#050F25"/>
</linearGradient>
</defs>
</svg>
