<svg width="56" height="56" viewBox="0 0 56 56" fill="none" xmlns="http://www.w3.org/2000/svg">
<rect width="56" height="56" rx="8.4" fill="url(#paint0_linear_1_62)"/>
<rect x="1.05" y="1.05" width="53.9" height="53.9" rx="7.35" stroke="white" stroke-opacity="0.15" stroke-width="2.1"/>
<g filter="url(#filter0_d_1_62)">
<path d="M44.5008 17.2244C44.272 16.4926 43.7231 15.8979 43.037 15.532L29.0858 8.85371C28.7198 8.67074 28.3082 8.625 27.9422 8.625C27.5763 8.625 27.1646 8.625 26.7987 8.71648L12.8475 15.4405C12.1613 15.7607 11.6582 16.3554 11.4752 17.133L8.04457 32.182C7.90734 32.9596 8.09031 33.7372 8.54773 34.3776L18.1992 46.3162C18.7481 46.8651 19.5258 47.231 20.3034 47.2768H35.6726C36.4959 47.3683 37.2736 47.0023 37.7767 46.3162L47.4282 34.3776C47.8856 33.7372 48.0686 32.9596 47.9771 32.182L44.5008 17.2244Z" fill="#326DE6"/>
<path d="M42.3509 31.5874C42.3052 31.5874 42.2594 31.5874 42.2594 31.5416C42.2594 31.4959 42.1679 31.4959 42.0764 31.4959C41.8935 31.4501 41.7105 31.4501 41.5275 31.4501C41.4361 31.4501 41.3446 31.4501 41.2531 31.4044H41.2073C40.7042 31.3587 40.1553 31.2672 39.6521 31.1299C39.5149 31.0842 39.3777 30.947 39.3319 30.8098L38.966 30.7183C39.149 29.3918 39.0575 28.0195 38.783 26.693C38.4628 25.3665 37.9139 24.0857 37.1821 22.9422L37.4565 22.6677V22.622C37.4565 22.4848 37.5023 22.3018 37.5937 22.2103C38.0054 21.8444 38.4171 21.5699 38.8745 21.2955C38.966 21.2497 39.0575 21.204 39.149 21.1582C39.3319 21.0668 39.4692 20.9753 39.6521 20.8838C39.6979 20.838 39.7436 20.838 39.7894 20.7923C39.8351 20.7466 39.7894 20.7466 39.7894 20.7008C40.201 20.3806 40.2925 19.8317 39.9723 19.4201C39.8351 19.2371 39.5606 19.0999 39.3319 19.0999C39.1032 19.0999 38.8745 19.1913 38.6915 19.3286L38.6458 19.3743C38.6001 19.4201 38.5543 19.4658 38.5086 19.4658C38.3714 19.603 38.2341 19.7402 38.1426 19.8775C38.0969 19.969 38.0054 20.0147 37.9597 20.0604C37.6395 20.4264 37.2278 20.7923 36.8161 21.0668C36.7247 21.1125 36.6332 21.1582 36.5417 21.1582C36.4959 21.1582 36.4045 21.1582 36.3587 21.1125H36.313L35.947 21.3412C35.5811 20.9753 35.1694 20.6093 34.8035 20.2434C33.1111 18.9169 31.0069 18.0935 28.8571 17.8648L28.8113 17.4989V17.5446C28.6741 17.4532 28.6284 17.3159 28.5826 17.1787C28.5826 16.6755 28.5826 16.1724 28.6741 15.6235V15.5777C28.6741 15.4863 28.7198 15.3948 28.7198 15.3033C28.7656 15.1203 28.7656 14.9374 28.8113 14.7544V14.4799C28.8571 14.0225 28.4911 13.5651 28.0337 13.5194C27.7593 13.4736 27.4848 13.6109 27.2561 13.8396C27.0731 14.0225 26.9817 14.2512 26.9817 14.4799V14.7087C26.9817 14.8916 27.0274 15.0746 27.0731 15.2576C27.1189 15.349 27.1189 15.4405 27.1189 15.532V15.5777C27.2104 16.0809 27.2104 16.5841 27.2104 17.133C27.1646 17.2702 27.1189 17.4074 26.9817 17.4989V17.5904L26.9359 17.9563C26.4328 18.0021 25.9296 18.0935 25.3807 18.185C23.2308 18.6424 21.2639 19.786 19.7545 21.3869L19.48 21.204H19.4343C19.3885 21.204 19.3428 21.2497 19.2513 21.2497C19.1598 21.2497 19.0683 21.204 18.9769 21.1582C18.5652 20.838 18.1535 20.4721 17.8333 20.1062C17.7876 20.0147 17.6961 19.969 17.6503 19.9232C17.5131 19.786 17.4216 19.6488 17.2844 19.5115C17.2387 19.4658 17.1929 19.4658 17.1472 19.4201C17.1014 19.3743 17.1014 19.3743 17.1014 19.3743C16.9185 19.2371 16.6898 19.1456 16.4611 19.1456C16.1866 19.1456 15.9579 19.2371 15.8207 19.4658C15.5462 19.8775 15.6377 20.4264 16.0036 20.7466C16.0494 20.7466 16.0494 20.7923 16.0494 20.7923C16.0494 20.7923 16.1409 20.8838 16.1866 20.8838C16.3238 20.9753 16.5068 21.0668 16.6898 21.1582C16.7812 21.204 16.8727 21.2497 16.9642 21.2955C17.4216 21.5699 17.879 21.8444 18.245 22.2103C18.3365 22.3018 18.428 22.4848 18.3822 22.622V22.5762L18.6567 22.8507C18.6109 22.9422 18.5652 22.9879 18.5194 23.0794C17.1014 25.3207 16.5068 27.9738 16.9185 30.581L16.5525 30.6725C16.5525 30.7183 16.5068 30.7183 16.5068 30.7183C16.4611 30.8555 16.3238 30.947 16.1866 31.0385C15.6834 31.1757 15.1803 31.2672 14.6314 31.3129C14.5399 31.3129 14.4484 31.3129 14.3569 31.3587C14.174 31.3587 13.991 31.4044 13.808 31.4044C13.7623 31.4044 13.7165 31.4501 13.6251 31.4501C13.5793 31.4501 13.5793 31.4501 13.5336 31.4959C13.0304 31.5874 12.7102 32.0448 12.8017 32.5479C12.8932 32.9596 13.3049 33.2341 13.7165 33.1883C13.808 33.1883 13.8538 33.1883 13.9453 33.1426C13.991 33.1426 13.991 33.1426 13.991 33.0968C13.991 33.0511 14.1282 33.0968 14.174 33.0968C14.3569 33.0511 14.5399 32.9596 14.6771 32.9139C14.7686 32.8681 14.8601 32.8224 14.9516 32.8224H14.9973C15.5005 32.6394 15.9579 32.5022 16.5068 32.4107H16.5525C16.6898 32.4107 16.827 32.4565 16.9185 32.5479C16.9642 32.5479 16.9642 32.5937 16.9642 32.5937L17.3759 32.5479C18.062 34.6521 19.3428 36.5275 21.1267 37.8997C21.5384 38.2199 21.9043 38.4944 22.3617 38.7231L22.133 39.0433C22.133 39.089 22.1788 39.089 22.1788 39.089C22.2703 39.2262 22.2703 39.4092 22.2245 39.5464C22.0415 40.0038 21.7671 40.4613 21.4926 40.8729V40.9187C21.4469 41.0102 21.4012 41.0559 21.3097 41.1474C21.2182 41.2389 21.1267 41.4218 20.9895 41.6048C20.9437 41.6505 20.9437 41.6963 20.898 41.742C20.898 41.742 20.898 41.7878 20.8523 41.7878C20.6236 42.2452 20.8065 42.7941 21.2182 43.0228C21.3097 43.0685 21.4469 43.1143 21.5384 43.1143C21.9043 43.1143 22.2245 42.8856 22.4075 42.5654C22.4075 42.5654 22.4075 42.5196 22.4532 42.5196C22.4532 42.4739 22.499 42.4282 22.5447 42.3824C22.5905 42.1995 22.6819 42.0622 22.7277 41.8793L22.8192 41.6048C22.9564 41.1016 23.1851 40.6442 23.4138 40.1868C23.5053 40.0496 23.6425 39.9581 23.7797 39.9124C23.8255 39.9124 23.8255 39.9124 23.8255 39.8666L24.0084 39.5007C25.2892 40.0038 26.6157 40.2326 27.988 40.2326C28.8113 40.2326 29.6347 40.1411 30.458 39.9124C30.9612 39.8209 31.4644 39.6379 31.9218 39.5007L32.1047 39.8209C32.1505 39.8209 32.1505 39.8209 32.1505 39.8666C32.2877 39.9124 32.4249 40.0038 32.5164 40.1411C32.7451 40.5985 32.9738 41.0559 33.1111 41.5591V41.6048L33.2025 41.8793C33.2483 42.0622 33.294 42.2452 33.3855 42.3824C33.4312 42.4282 33.4312 42.4739 33.477 42.5196C33.477 42.5196 33.477 42.5654 33.5227 42.5654C33.7057 42.8856 34.0259 43.1143 34.3918 43.1143C34.5291 43.1143 34.6205 43.0685 34.7578 43.0228C34.9407 42.9313 35.1237 42.7484 35.1694 42.5196C35.2152 42.2909 35.2152 42.0622 35.1237 41.8335C35.1237 41.7878 35.078 41.7878 35.078 41.7878C35.078 41.742 35.0322 41.6963 34.9865 41.6505C34.895 41.4676 34.8035 41.3304 34.6663 41.1931C34.6205 41.1016 34.5748 41.0559 34.4833 40.9644V40.8729C34.1631 40.4613 33.9344 40.0038 33.7514 39.5464C33.7057 39.4092 33.7057 39.2262 33.7972 39.089C33.7972 39.0433 33.8429 39.0433 33.8429 39.0433L33.7057 38.6773C36.0385 37.2593 37.8225 35.0637 38.6458 32.4565L39.0117 32.5022C39.0575 32.5022 39.0575 32.4565 39.0575 32.4565C39.149 32.365 39.2862 32.3192 39.4234 32.3192H39.4692C39.9723 32.4107 40.4755 32.5479 40.9329 32.7309H40.9786C41.0701 32.7766 41.1616 32.8224 41.2531 32.8224C41.4361 32.9139 41.5733 33.0054 41.7562 33.0511C41.802 33.0511 41.8477 33.0968 41.9392 33.0968C41.985 33.0968 41.985 33.0968 42.0307 33.1426C42.1222 33.1883 42.1679 33.1883 42.2594 33.1883C42.6711 33.1883 43.037 32.9139 43.1742 32.5479C43.1285 32.0448 42.7626 31.6788 42.3509 31.5874ZM29.1315 30.1694L27.8965 30.764L26.6615 30.1694L26.3413 28.8429L27.2104 27.7451H28.5826L29.4517 28.8429L29.1315 30.1694ZM36.5874 27.1962C36.8161 28.1567 36.8619 29.1173 36.7704 30.0779L32.4249 28.8429C32.0133 28.7514 31.7845 28.3397 31.876 27.928C31.9218 27.7908 31.9675 27.6993 32.059 27.6078L35.4896 24.4974C35.9928 25.3207 36.3587 26.2356 36.5874 27.1962ZM34.1174 22.8049L30.3665 25.458C30.0464 25.6409 29.5889 25.5952 29.3602 25.275C29.2687 25.1835 29.223 25.092 29.223 24.9548L28.9486 20.3349C30.9612 20.5636 32.7451 21.4327 34.1174 22.8049ZM25.8381 20.4721L26.753 20.2891L26.5242 24.8633C26.5242 25.275 26.1583 25.5952 25.7466 25.5952C25.6094 25.5952 25.5179 25.5495 25.3807 25.5037L21.5841 22.8049C22.7734 21.6614 24.2372 20.838 25.8381 20.4721ZM20.2576 24.4974L23.6425 27.5163C23.9627 27.7908 24.0084 28.2482 23.734 28.5684C23.6425 28.7056 23.551 28.7514 23.3681 28.7971L18.9311 30.0779C18.7939 28.1567 19.2513 26.1898 20.2576 24.4974ZM19.48 32.2277L24.0084 31.4501C24.3744 31.4501 24.7403 31.6788 24.7861 32.0448C24.8318 32.182 24.8318 32.365 24.7403 32.5022L23.0021 36.7104C21.4012 35.6584 20.1204 34.0574 19.48 32.2277ZM29.8634 37.8997C29.223 38.037 28.5826 38.1284 27.8965 38.1284C26.9359 38.1284 25.9296 37.9455 25.0148 37.671L27.2561 33.6C27.4848 33.3255 27.8508 33.2341 28.1709 33.417C28.3082 33.5085 28.3997 33.6 28.5369 33.7372L30.7325 37.7168C30.458 37.7625 30.1836 37.8082 29.8634 37.8997ZM35.4439 33.9202C34.7578 35.018 33.7972 35.9786 32.6994 36.6647L30.9155 32.365C30.824 31.999 31.0069 31.6331 31.3271 31.4959C31.4644 31.4501 31.6016 31.4044 31.7388 31.4044L36.313 32.182C36.0843 32.8224 35.8098 33.417 35.4439 33.9202Z" fill="white"/>
</g>
<defs>
<filter id="filter0_d_1_62" x="2.28571" y="2.28571" width="51.4286" height="51.4286" filterUnits="userSpaceOnUse" color-interpolation-filters="sRGB">
<feFlood flood-opacity="0" result="BackgroundImageFix"/>
<feColorMatrix in="SourceAlpha" type="matrix" values="0 0 0 0 0 0 0 0 0 0 0 0 0 0 0 0 0 0 127 0" result="hardAlpha"/>
<feOffset/>
<feGaussianBlur stdDeviation="2.85714"/>
<feComposite in2="hardAlpha" operator="out"/>
<feColorMatrix type="matrix" values="0 0 0 0 0 0 0 0 0 0 0 0 0 0 0 0 0 0 0.25 0"/>
<feBlend mode="normal" in2="BackgroundImageFix" result="effect1_dropShadow_1_62"/>
<feBlend mode="normal" in="SourceGraphic" in2="effect1_dropShadow_1_62" result="shape"/>
</filter>
<linearGradient id="paint0_linear_1_62" x1="28" y1="0" x2="28" y2="56" gradientUnits="userSpaceOnUse">
<stop stop-color="#0B2457"/>
<stop offset="1" stop-color="#050F25"/>
</linearGradient>
</defs>
</svg>
