<svg width="164" height="56" viewBox="0 0 164 56" fill="none" xmlns="http://www.w3.org/2000/svg">
<rect width="164" height="56" rx="8" fill="url(#paint0_linear_1_50)"/>
<rect x="1.05" y="1.05" width="161.9" height="53.9" rx="6.95" stroke="white" stroke-opacity="0.15" stroke-width="2.1"/>
<g filter="url(#filter0_d_1_50)">
<path d="M47.5578 21.6374C47.3237 21.8174 43.1908 24.1256 43.1908 29.2581C43.1908 35.1947 48.4497 37.2949 48.6071 37.3469C48.5829 37.4749 47.7717 40.2232 45.8344 43.0235C44.107 45.4877 42.3029 47.948 39.5584 47.948C36.8139 47.948 36.1076 46.3678 32.9394 46.3678C29.8518 46.3678 28.754 48 26.2436 48C23.7332 48 21.9816 45.7198 19.9676 42.9195C17.6348 39.6312 15.75 34.5227 15.75 29.6742C15.75 21.8974 20.8515 17.773 25.8723 17.773C28.5401 17.773 30.764 19.5092 32.4389 19.5092C34.0331 19.5092 36.5193 17.669 39.5544 17.669C40.7046 17.669 44.8375 17.773 47.5578 21.6374V21.6374ZM38.1135 14.3766C39.3687 12.9005 40.2566 10.8523 40.2566 8.80408C40.2566 8.52005 40.2324 8.23202 40.18 8C38.1377 8.07601 35.7081 9.34814 34.243 11.0323C33.0927 12.3284 32.0192 14.3766 32.0192 16.4528C32.0192 16.7649 32.0716 17.0769 32.0958 17.1769C32.225 17.2009 32.4349 17.2289 32.6447 17.2289C34.4771 17.2289 36.7816 16.0128 38.1135 14.3766Z" fill="white"/>
</g>
<g filter="url(#filter1_d_1_50)">
<path d="M62.2613 24.5H60.3977L64.5852 12.8636H66.6136L70.8011 24.5H68.9375L65.6477 14.9773H65.5568L62.2613 24.5ZM62.5738 19.9432H68.6193V21.4204H62.5738V19.9432ZM78.7173 15.7727L75.5525 24.5H73.7344L70.5639 15.7727H72.3878L74.598 22.4886H74.6889L76.8934 15.7727H78.7173ZM82.6037 24.6932C82.0506 24.6932 81.5506 24.5909 81.1037 24.3864C80.6567 24.178 80.3025 23.8769 80.0412 23.4829C79.7836 23.089 79.6548 22.6061 79.6548 22.0341C79.6548 21.5417 79.7495 21.1364 79.9389 20.8182C80.1283 20.5 80.384 20.2481 80.7059 20.0625C81.0279 19.8769 81.3878 19.7367 81.7855 19.642C82.1832 19.5473 82.5885 19.4754 83.0014 19.4261C83.5241 19.3655 83.9484 19.3163 84.2741 19.2784C84.5999 19.2367 84.8366 19.1704 84.9844 19.0795C85.1321 18.9886 85.2059 18.8409 85.2059 18.6364V18.5966C85.2059 18.1004 85.0658 17.7159 84.7855 17.4432C84.509 17.1704 84.0961 17.0341 83.5469 17.0341C82.9749 17.0341 82.5241 17.161 82.1946 17.4148C81.8688 17.6648 81.6434 17.9432 81.5184 18.25L79.9219 17.8864C80.1112 17.3561 80.3878 16.928 80.7514 16.6023C81.1188 16.2727 81.5412 16.0341 82.0184 15.8864C82.4957 15.7348 82.9976 15.6591 83.5241 15.6591C83.8726 15.6591 84.2419 15.7008 84.6321 15.7841C85.026 15.8636 85.3934 16.0114 85.7344 16.2273C86.079 16.4432 86.3612 16.7519 86.5809 17.1534C86.8006 17.5511 86.9105 18.0682 86.9105 18.7045V24.5H85.2514V23.3068H85.1832C85.0734 23.5265 84.9086 23.7424 84.6889 23.9545C84.4692 24.1667 84.187 24.3428 83.8423 24.4829C83.4976 24.6231 83.0847 24.6932 82.6037 24.6932ZM82.973 23.3295C83.4427 23.3295 83.8442 23.2367 84.1775 23.0511C84.5147 22.8655 84.7703 22.6231 84.9446 22.3239C85.1226 22.0208 85.2116 21.697 85.2116 21.3523V20.2273C85.151 20.2879 85.0336 20.3447 84.8594 20.3977C84.6889 20.447 84.4938 20.4905 84.2741 20.5284C84.0544 20.5625 83.8404 20.5947 83.6321 20.625C83.4237 20.6515 83.2495 20.6742 83.1094 20.6932C82.7798 20.7348 82.4787 20.8049 82.2059 20.9034C81.937 21.0019 81.7211 21.1439 81.5582 21.3295C81.3991 21.5114 81.3196 21.7538 81.3196 22.0568C81.3196 22.4773 81.4749 22.7954 81.7855 23.0114C82.0961 23.2235 82.4919 23.3295 82.973 23.3295ZM89.1733 24.5V15.7727H90.8721V24.5H89.1733ZM90.0312 14.4261C89.7358 14.4261 89.482 14.3276 89.2699 14.1307C89.0615 13.9299 88.9574 13.6913 88.9574 13.4148C88.9574 13.1345 89.0615 12.8958 89.2699 12.6989C89.482 12.4981 89.7358 12.3977 90.0312 12.3977C90.3267 12.3977 90.5786 12.4981 90.7869 12.6989C90.999 12.8958 91.1051 13.1345 91.1051 13.4148C91.1051 13.6913 90.999 13.9299 90.7869 14.1307C90.5786 14.3276 90.3267 14.4261 90.0312 14.4261ZM94.8565 12.8636V24.5H93.1576V12.8636H94.8565ZM99.6818 24.6932C99.1288 24.6932 98.6288 24.5909 98.1818 24.3864C97.7348 24.178 97.3807 23.8769 97.1193 23.4829C96.8617 23.089 96.7329 22.6061 96.7329 22.0341C96.7329 21.5417 96.8276 21.1364 97.017 20.8182C97.2064 20.5 97.4621 20.2481 97.7841 20.0625C98.106 19.8769 98.4659 19.7367 98.8636 19.642C99.2613 19.5473 99.6666 19.4754 100.08 19.4261C100.602 19.3655 101.026 19.3163 101.352 19.2784C101.678 19.2367 101.915 19.1704 102.062 19.0795C102.21 18.9886 102.284 18.8409 102.284 18.6364V18.5966C102.284 18.1004 102.144 17.7159 101.864 17.4432C101.587 17.1704 101.174 17.0341 100.625 17.0341C100.053 17.0341 99.6022 17.161 99.2727 17.4148C98.9469 17.6648 98.7216 17.9432 98.5966 18.25L97 17.8864C97.1894 17.3561 97.4659 16.928 97.8295 16.6023C98.1969 16.2727 98.6193 16.0341 99.0966 15.8864C99.5738 15.7348 100.076 15.6591 100.602 15.6591C100.951 15.6591 101.32 15.7008 101.71 15.7841C102.104 15.8636 102.472 16.0114 102.812 16.2273C103.157 16.4432 103.439 16.7519 103.659 17.1534C103.879 17.5511 103.989 18.0682 103.989 18.7045V24.5H102.33V23.3068H102.261C102.151 23.5265 101.987 23.7424 101.767 23.9545C101.547 24.1667 101.265 24.3428 100.92 24.4829C100.576 24.6231 100.163 24.6932 99.6818 24.6932ZM100.051 23.3295C100.521 23.3295 100.922 23.2367 101.256 23.0511C101.593 22.8655 101.848 22.6231 102.023 22.3239C102.201 22.0208 102.29 21.697 102.29 21.3523V20.2273C102.229 20.2879 102.112 20.3447 101.937 20.3977C101.767 20.447 101.572 20.4905 101.352 20.5284C101.133 20.5625 100.919 20.5947 100.71 20.625C100.502 20.6515 100.328 20.6742 100.187 20.6932C99.8579 20.7348 99.5568 20.8049 99.2841 20.9034C99.0151 21.0019 98.7992 21.1439 98.6363 21.3295C98.4772 21.5114 98.3977 21.7538 98.3977 22.0568C98.3977 22.4773 98.553 22.7954 98.8636 23.0114C99.1742 23.2235 99.57 23.3295 100.051 23.3295ZM106.388 24.5V12.8636H108.087V17.1875H108.189C108.287 17.0057 108.429 16.7954 108.615 16.5568C108.801 16.3182 109.058 16.1098 109.388 15.9318C109.717 15.75 110.153 15.6591 110.695 15.6591C111.399 15.6591 112.028 15.8371 112.581 16.1932C113.134 16.5492 113.568 17.0625 113.882 17.7329C114.2 18.4034 114.359 19.2102 114.359 20.1534C114.359 21.0966 114.202 21.9053 113.888 22.5795C113.573 23.25 113.142 23.767 112.592 24.1307C112.043 24.4905 111.416 24.6704 110.712 24.6704C110.181 24.6704 109.748 24.5814 109.41 24.4034C109.077 24.2254 108.816 24.017 108.626 23.7784C108.437 23.5398 108.291 23.3276 108.189 23.142H108.047V24.5H106.388ZM108.053 20.1364C108.053 20.75 108.142 21.2879 108.32 21.75C108.498 22.2121 108.755 22.5739 109.092 22.8352C109.429 23.0928 109.842 23.2216 110.331 23.2216C110.839 23.2216 111.263 23.0871 111.604 22.8182C111.945 22.5454 112.202 22.1761 112.376 21.7102C112.554 21.2443 112.643 20.7197 112.643 20.1364C112.643 19.5606 112.556 19.0436 112.382 18.5852C112.212 18.1269 111.954 17.7651 111.609 17.5C111.268 17.2348 110.842 17.1023 110.331 17.1023C109.839 17.1023 109.422 17.2292 109.081 17.4829C108.744 17.7367 108.488 18.0909 108.314 18.5454C108.14 19 108.053 19.5303 108.053 20.1364ZM117.966 12.8636V24.5H116.267V12.8636H117.966ZM124.013 24.6761C123.153 24.6761 122.412 24.4924 121.791 24.125C121.174 23.7538 120.696 23.2329 120.359 22.5625C120.026 21.8883 119.859 21.0985 119.859 20.1932C119.859 19.2992 120.026 18.5114 120.359 17.8295C120.696 17.1477 121.166 16.6155 121.768 16.2329C122.374 15.8504 123.083 15.6591 123.893 15.6591C124.386 15.6591 124.863 15.7405 125.325 15.9034C125.787 16.0663 126.202 16.322 126.57 16.6704C126.937 17.0189 127.227 17.4716 127.439 18.0284C127.651 18.5814 127.757 19.2538 127.757 20.0454V20.6477H120.82V19.375H126.092C126.092 18.928 126.001 18.5322 125.82 18.1875C125.638 17.839 125.382 17.5644 125.053 17.3636C124.727 17.1629 124.344 17.0625 123.905 17.0625C123.428 17.0625 123.011 17.1799 122.655 17.4148C122.303 17.6458 122.03 17.9489 121.837 18.3239C121.647 18.6951 121.553 19.0985 121.553 19.5341V20.5284C121.553 21.1117 121.655 21.6079 121.859 22.017C122.068 22.4261 122.357 22.7386 122.729 22.9545C123.1 23.1667 123.534 23.2727 124.03 23.2727C124.352 23.2727 124.645 23.2273 124.91 23.1364C125.176 23.0417 125.405 22.9015 125.598 22.7159C125.791 22.5303 125.939 22.3011 126.041 22.0284L127.649 22.3182C127.52 22.7917 127.289 23.2064 126.956 23.5625C126.626 23.9148 126.212 24.1894 125.712 24.3864C125.215 24.5795 124.649 24.6761 124.013 24.6761ZM137.553 24.6761C136.734 24.6761 136.02 24.4886 135.41 24.1136C134.801 23.7386 134.327 23.214 133.99 22.5398C133.653 21.8655 133.484 21.0776 133.484 20.1761C133.484 19.2708 133.653 18.4792 133.99 17.8011C134.327 17.1231 134.801 16.5966 135.41 16.2216C136.02 15.8466 136.734 15.6591 137.553 15.6591C138.371 15.6591 139.085 15.8466 139.695 16.2216C140.304 16.5966 140.778 17.1231 141.115 17.8011C141.452 18.4792 141.621 19.2708 141.621 20.1761C141.621 21.0776 141.452 21.8655 141.115 22.5398C140.778 23.214 140.304 23.7386 139.695 24.1136C139.085 24.4886 138.371 24.6761 137.553 24.6761ZM137.558 23.25C138.089 23.25 138.528 23.1098 138.876 22.8295C139.225 22.5492 139.482 22.1761 139.649 21.7102C139.82 21.2443 139.905 20.7311 139.905 20.1704C139.905 19.6136 139.82 19.1023 139.649 18.6364C139.482 18.1667 139.225 17.7898 138.876 17.5057C138.528 17.2216 138.089 17.0795 137.558 17.0795C137.024 17.0795 136.581 17.2216 136.229 17.5057C135.88 17.7898 135.621 18.1667 135.45 18.6364C135.284 19.1023 135.2 19.6136 135.2 20.1704C135.2 20.7311 135.284 21.2443 135.45 21.7102C135.621 22.1761 135.88 22.5492 136.229 22.8295C136.581 23.1098 137.024 23.25 137.558 23.25ZM145.216 19.3182V24.5H143.517V15.7727H145.148V17.1932H145.256C145.456 16.7311 145.771 16.3598 146.199 16.0795C146.631 15.7992 147.174 15.6591 147.83 15.6591C148.424 15.6591 148.945 15.7841 149.392 16.0341C149.839 16.2803 150.186 16.6477 150.432 17.1364C150.678 17.625 150.801 18.2292 150.801 18.9489V24.5H149.102V19.1534C149.102 18.5208 148.937 18.0265 148.608 17.6704C148.278 17.3106 147.826 17.1307 147.25 17.1307C146.856 17.1307 146.506 17.2159 146.199 17.3864C145.896 17.5568 145.655 17.8068 145.477 18.1364C145.303 18.4621 145.216 18.8561 145.216 19.3182Z" fill="#E8E8E8"/>
<path d="M60.9357 43.5V34.2273H63.8878V43.5H60.9357ZM62.4148 33.1467C62.0002 33.1467 61.644 33.0098 61.3462 32.7361C61.0484 32.4584 60.8995 32.1244 60.8995 31.734C60.8995 31.3476 61.0484 31.0176 61.3462 30.744C61.644 30.4663 62.0002 30.3274 62.4148 30.3274C62.8333 30.3274 63.1895 30.4663 63.4833 30.744C63.7811 31.0176 63.93 31.3476 63.93 31.734C63.93 32.1244 63.7811 32.4584 63.4833 32.7361C63.1895 33.0098 62.8333 33.1467 62.4148 33.1467ZM77.4361 37.3182C77.4361 38.6785 77.1745 39.8315 76.6513 40.7773C76.1281 41.7231 75.4198 42.4415 74.5263 42.9325C73.6369 43.4235 72.6388 43.669 71.532 43.669C70.4212 43.669 69.4211 43.4215 68.5317 42.9265C67.6422 42.4315 66.9359 41.7131 66.4127 40.7713C65.8935 39.8255 65.6339 38.6745 65.6339 37.3182C65.6339 35.9578 65.8935 34.8048 66.4127 33.859C66.9359 32.9132 67.6422 32.1948 68.5317 31.7038C69.4211 31.2128 70.4212 30.9673 71.532 30.9673C72.6388 30.9673 73.6369 31.2128 74.5263 31.7038C75.4198 32.1948 76.1281 32.9132 76.6513 33.859C77.1745 34.8048 77.4361 35.9578 77.4361 37.3182ZM74.3815 37.3182C74.3815 36.5132 74.2668 35.8331 74.0374 35.2777C73.812 34.7223 73.486 34.3017 73.0594 34.016C72.6368 33.7302 72.1277 33.5873 71.532 33.5873C70.9404 33.5873 70.4313 33.7302 70.0047 34.016C69.5781 34.3017 69.2501 34.7223 69.0207 35.2777C68.7953 35.8331 68.6826 36.5132 68.6826 37.3182C68.6826 38.1231 68.7953 38.8033 69.0207 39.3587C69.2501 39.9141 69.5781 40.3346 70.0047 40.6204C70.4313 40.9061 70.9404 41.049 71.532 41.049C72.1277 41.049 72.6368 40.9061 73.0594 40.6204C73.486 40.3346 73.812 39.9141 74.0374 39.3587C74.2668 38.8033 74.3815 38.1231 74.3815 37.3182ZM85.8637 34.843C85.8235 34.4003 85.6444 34.0562 85.3264 33.8107C85.0125 33.5612 84.5638 33.4364 83.9802 33.4364C83.5938 33.4364 83.2718 33.4867 83.0143 33.5873C82.7567 33.688 82.5635 33.8268 82.4347 34.0039C82.3059 34.177 82.2395 34.3762 82.2355 34.6016C82.2275 34.7867 82.2637 34.9497 82.3442 35.0905C82.4287 35.2314 82.5494 35.3562 82.7064 35.4648C82.8674 35.5695 83.0606 35.662 83.2859 35.7425C83.5113 35.823 83.7649 35.8935 84.0466 35.9538L85.1091 36.1953C85.7208 36.3281 86.2601 36.5052 86.727 36.7266C87.1979 36.9479 87.5923 37.2115 87.9102 37.5174C88.2322 37.8233 88.4757 38.1754 88.6407 38.5739C88.8057 38.9723 88.8902 39.419 88.8942 39.9141C88.8902 40.6948 88.693 41.3649 88.3026 41.9243C87.9122 42.4838 87.3508 42.9124 86.6183 43.2102C85.8899 43.508 85.0105 43.6569 83.9802 43.6569C82.9459 43.6569 82.0443 43.502 81.2756 43.1921C80.5069 42.8822 79.9093 42.4113 79.4827 41.7795C79.0561 41.1476 78.8367 40.3487 78.8246 39.3828H81.6861C81.7103 39.7812 81.8169 40.1133 82.0061 40.3789C82.1953 40.6445 82.4548 40.8458 82.7849 40.9826C83.1189 41.1194 83.5053 41.1878 83.944 41.1878C84.3464 41.1878 84.6885 41.1335 84.9702 41.0248C85.256 40.9162 85.4753 40.7653 85.6283 40.5721C85.7812 40.3789 85.8597 40.1575 85.8637 39.908C85.8597 39.6746 85.7872 39.4754 85.6464 39.3104C85.5055 39.1413 85.2882 38.9964 84.9944 38.8757C84.7046 38.7509 84.3343 38.6362 83.8836 38.5316L82.5917 38.2297C81.5211 37.9842 80.678 37.5878 80.0622 37.0405C79.4464 36.4891 79.1406 35.7445 79.1446 34.8068C79.1406 34.0421 79.3458 33.372 79.7604 32.7965C80.1749 32.221 80.7484 31.7722 81.4809 31.4503C82.2134 31.1283 83.0485 30.9673 83.9862 30.9673C84.9441 30.9673 85.7752 31.1303 86.4795 31.4563C87.1878 31.7783 87.7372 32.2311 88.1276 32.8146C88.5179 33.3982 88.7172 34.0743 88.7252 34.843H85.8637Z" fill="url(#paint1_linear_1_50)"/>
</g>
<defs>
<filter id="filter0_d_1_50" x="6.28571" y="2.28571" width="51.4286" height="51.4286" filterUnits="userSpaceOnUse" color-interpolation-filters="sRGB">
<feFlood flood-opacity="0" result="BackgroundImageFix"/>
<feColorMatrix in="SourceAlpha" type="matrix" values="0 0 0 0 0 0 0 0 0 0 0 0 0 0 0 0 0 0 127 0" result="hardAlpha"/>
<feOffset/>
<feGaussianBlur stdDeviation="2.85714"/>
<feComposite in2="hardAlpha" operator="out"/>
<feColorMatrix type="matrix" values="0 0 0 0 0 0 0 0 0 0 0 0 0 0 0 0 0 0 0.25 0"/>
<feBlend mode="normal" in2="BackgroundImageFix" result="effect1_dropShadow_1_50"/>
<feBlend mode="normal" in="SourceGraphic" in2="effect1_dropShadow_1_50" result="shape"/>
</filter>
<filter id="filter1_d_1_50" x="54.4" y="3.9" width="103.2" height="48.2" filterUnits="userSpaceOnUse" color-interpolation-filters="sRGB">
<feFlood flood-opacity="0" result="BackgroundImageFix"/>
<feColorMatrix in="SourceAlpha" type="matrix" values="0 0 0 0 0 0 0 0 0 0 0 0 0 0 0 0 0 0 127 0" result="hardAlpha"/>
<feOffset/>
<feGaussianBlur stdDeviation="2.8"/>
<feComposite in2="hardAlpha" operator="out"/>
<feColorMatrix type="matrix" values="0 0 0 0 0 0 0 0 0 0 0 0 0 0 0 0 0 0 0.25 0"/>
<feBlend mode="normal" in2="BackgroundImageFix" result="effect1_dropShadow_1_50"/>
<feBlend mode="normal" in="SourceGraphic" in2="effect1_dropShadow_1_50" result="shape"/>
</filter>
<linearGradient id="paint0_linear_1_50" x1="82" y1="0" x2="82" y2="56" gradientUnits="userSpaceOnUse">
<stop stop-color="#1E1E1E"/>
<stop offset="1" stop-color="#0D0D0D"/>
</linearGradient>
<linearGradient id="paint1_linear_1_50" x1="71.5" y1="30" x2="71.5" y2="44" gradientUnits="userSpaceOnUse">
<stop stop-color="#40C983"/>
<stop offset="1" stop-color="#D8F032"/>
</linearGradient>
</defs>
</svg>
