<svg width="236" height="40" viewBox="0 0 236 40" fill="none" xmlns="http://www.w3.org/2000/svg">
<rect width="236.001" height="40.0014" rx="8" fill="url(#paint0_linear_1_56)"/>
<rect x="1.07143" y="1.07143" width="233.858" height="37.8585" rx="6.92857" stroke="white" stroke-opacity="0.15" stroke-width="2.14286"/>
<g filter="url(#filter0_d_1_56)">
<path d="M33.3843 33.3281V6.64391H31.4683V6.00349H34.1279V34H31.4683V33.3596L33.3843 33.3281Z" fill="white"/>
<path d="M16.8751 15.1304V16.4777H16.9136C17.2504 15.9843 17.6949 15.5766 18.2172 15.2791C18.7246 14.9965 19.3108 14.8548 19.9582 14.8548C20.5881 14.8548 21.1656 14.9773 21.6818 15.2222C22.2023 15.4663 22.6004 15.8968 22.8716 16.5171C23.1673 16.0796 23.568 15.6938 24.079 15.3622C24.5864 15.0271 25.1901 14.86 25.8812 14.86C26.4079 14.86 26.8961 14.9248 27.3423 15.0525C27.792 15.182 28.1769 15.3876 28.4972 15.671C28.8174 15.9536 29.0685 16.3237 29.2487 16.7822C29.428 17.2388 29.5182 17.7883 29.5182 18.4357V25.1111H26.7797V19.4593C26.7797 19.1242 26.7666 18.8093 26.7413 18.5144C26.723 18.2458 26.6511 17.9834 26.5295 17.7428C26.4132 17.5232 26.2356 17.3421 26.0186 17.2213C25.7937 17.0936 25.4884 17.0289 25.1 17.0289C24.715 17.0289 24.4035 17.1032 24.1638 17.2502C23.9259 17.3989 23.7395 17.5914 23.6048 17.8294C23.4657 18.0805 23.3738 18.3561 23.3353 18.6404C23.2898 18.944 23.2671 19.2502 23.2671 19.5591V25.1146H20.5287V19.5153C20.5287 19.2196 20.5225 18.9265 20.5103 18.6404C20.5003 18.3657 20.4448 18.0954 20.3458 17.839C20.2513 17.5967 20.0833 17.3911 19.8646 17.2502C19.6389 17.1032 19.3082 17.0289 18.8672 17.0289C18.694 17.0361 18.5225 17.0656 18.3563 17.1164C18.1306 17.1815 17.9206 17.2931 17.7395 17.4436C17.54 17.6045 17.3703 17.8364 17.2286 18.1382C17.0877 18.4409 17.0168 18.8364 17.0168 19.3281V25.1199H14.2784V15.1461L16.8751 15.1304Z" fill="white"/>
<path d="M10.4937 6.67192V33.3561H12.4097V33.9965H9.75V6H12.4009V6.64042L10.4937 6.67192Z" fill="white"/>
</g>
<g filter="url(#filter1_d_1_56)">
<path d="M53.6285 18.1577H51.745C51.6726 17.7552 51.5377 17.401 51.3405 17.0952C51.1433 16.7893 50.9018 16.5297 50.6161 16.3164C50.3303 16.1031 50.0104 15.9421 49.6562 15.8334C49.3061 15.7248 48.9338 15.6704 48.5394 15.6704C47.827 15.6704 47.1891 15.8495 46.6257 16.2077C46.0663 16.5659 45.6236 17.0911 45.2976 17.7834C44.9756 18.4756 44.8146 19.3208 44.8146 20.3189C44.8146 21.325 44.9756 22.1742 45.2976 22.8665C45.6236 23.5587 46.0683 24.0819 46.6317 24.4361C47.1952 24.7902 47.829 24.9673 48.5334 24.9673C48.9237 24.9673 49.294 24.915 49.6441 24.8104C49.9983 24.7017 50.3183 24.5427 50.604 24.3334C50.8898 24.1242 51.1312 23.8686 51.3285 23.5667C51.5297 23.2609 51.6685 22.9107 51.745 22.5163L53.6285 22.5224C53.5279 23.1301 53.3327 23.6895 53.0429 24.2006C52.7572 24.7077 52.3889 25.1464 51.9382 25.5167C51.4915 25.8829 50.9803 26.1667 50.4048 26.3679C49.8293 26.5691 49.2014 26.6697 48.5213 26.6697C47.4507 26.6697 46.4969 26.4162 45.6598 25.9091C44.8227 25.398 44.1626 24.6675 43.6797 23.7177C43.2007 22.7679 42.9613 21.6349 42.9613 20.3189C42.9613 18.9988 43.2027 17.8659 43.6857 16.9201C44.1687 15.9703 44.8287 15.2418 45.6658 14.7347C46.5029 14.2236 47.4548 13.968 48.5213 13.968C49.1773 13.968 49.789 14.0626 50.3565 14.2518C50.928 14.4369 51.4411 14.7106 51.8959 15.0728C52.3507 15.431 52.727 15.8697 53.0248 16.3888C53.3227 16.904 53.5239 17.4936 53.6285 18.1577ZM57.5208 20.995V26.5007H55.7158V14.1371H57.4967V18.7372H57.6114C57.8287 18.2382 58.1607 17.8417 58.6075 17.5479C59.0542 17.2541 59.6378 17.1072 60.3582 17.1072C60.9941 17.1072 61.5495 17.238 62.0244 17.4996C62.5033 17.7612 62.8736 18.1516 63.1352 18.6708C63.4008 19.1859 63.5336 19.8299 63.5336 20.6026V26.5007H61.7286V20.8199C61.7286 20.1398 61.5535 19.6126 61.2034 19.2383C60.8532 18.86 60.3662 18.6708 59.7424 18.6708C59.3158 18.6708 58.9335 18.7614 58.5954 18.9425C58.2614 19.1236 57.9978 19.3892 57.8046 19.7393C57.6154 20.0855 57.5208 20.504 57.5208 20.995ZM68.6409 26.706C68.0533 26.706 67.522 26.5973 67.0471 26.38C66.5722 26.1586 66.1959 25.8386 65.9182 25.4201C65.6445 25.0015 65.5077 24.4884 65.5077 23.8807C65.5077 23.3575 65.6083 22.9268 65.8095 22.5888C66.0108 22.2507 66.2824 21.9831 66.6245 21.7859C66.9666 21.5886 67.349 21.4397 67.7715 21.3391C68.1941 21.2385 68.6248 21.162 69.0634 21.1097C69.6188 21.0453 70.0696 20.993 70.4157 20.9528C70.7618 20.9085 71.0134 20.8381 71.1703 20.7415C71.3273 20.6449 71.4058 20.4879 71.4058 20.2706V20.2283C71.4058 19.7011 71.2569 19.2926 70.959 19.0028C70.6652 18.7131 70.2266 18.5682 69.643 18.5682C69.0353 18.5682 68.5563 18.703 68.2062 18.9726C67.8601 19.2383 67.6206 19.5341 67.4878 19.8601L65.7914 19.4737C65.9927 18.9103 66.2865 18.4555 66.6728 18.1094C67.0632 17.7592 67.512 17.5057 68.0191 17.3487C68.5262 17.1877 69.0594 17.1072 69.6188 17.1072C69.9891 17.1072 70.3815 17.1515 70.796 17.24C71.2146 17.3246 71.605 17.4815 71.9672 17.7109C72.3334 17.9403 72.6333 18.2683 72.8667 18.6949C73.1001 19.1175 73.2169 19.6669 73.2169 20.343V26.5007H71.4541V25.2329H71.3816C71.2649 25.4664 71.0898 25.6958 70.8564 25.9212C70.623 26.1465 70.3232 26.3337 69.9569 26.4826C69.5907 26.6315 69.152 26.706 68.6409 26.706ZM69.0333 25.2571C69.5323 25.2571 69.9589 25.1585 70.3131 24.9613C70.6713 24.7641 70.9429 24.5065 71.1281 24.1886C71.3172 23.8666 71.4118 23.5225 71.4118 23.1562V21.9609C71.3474 22.0253 71.2227 22.0857 71.0375 22.142C70.8564 22.1944 70.6491 22.2406 70.4157 22.2809C70.1823 22.3171 69.9549 22.3513 69.7335 22.3835C69.5122 22.4117 69.3271 22.4358 69.1781 22.456C68.828 22.5002 68.508 22.5747 68.2183 22.6793C67.9325 22.784 67.7031 22.9349 67.5301 23.1321C67.361 23.3253 67.2765 23.5828 67.2765 23.9048C67.2765 24.3515 67.4415 24.6896 67.7715 24.919C68.1016 25.1444 68.5221 25.2571 69.0333 25.2571ZM79.9495 17.228V18.6768H74.8846V17.228H79.9495ZM76.2429 15.0064H78.0479V23.778C78.0479 24.1282 78.1002 24.3918 78.2049 24.5689C78.3095 24.7419 78.4443 24.8607 78.6093 24.9251C78.7784 24.9854 78.9615 25.0156 79.1587 25.0156C79.3036 25.0156 79.4304 25.0056 79.539 24.9854C79.6477 24.9653 79.7322 24.9492 79.7926 24.9371L80.1186 26.4283C80.0139 26.4685 79.865 26.5087 79.6718 26.549C79.4787 26.5933 79.2372 26.6174 78.9474 26.6214C78.4725 26.6295 78.0298 26.545 77.6193 26.3679C77.2088 26.1908 76.8767 25.9171 76.6232 25.5469C76.3696 25.1766 76.2429 24.7118 76.2429 24.1523V15.0064ZM88.4556 26.5007L85.7269 17.228H87.5923L89.4094 24.0376H89.5L91.3231 17.228H93.1885L94.9996 24.0074H95.0902L96.8952 17.228H98.7606L96.038 26.5007H94.1967L92.3132 19.8057H92.1743L90.2908 26.5007H88.4556ZM100.474 26.5007V17.228H102.279V26.5007H100.474ZM101.385 15.7972C101.071 15.7972 100.802 15.6926 100.576 15.4833C100.355 15.27 100.244 15.0164 100.244 14.7226C100.244 14.4248 100.355 14.1713 100.576 13.962C100.802 13.7487 101.071 13.642 101.385 13.642C101.699 13.642 101.967 13.7487 102.188 13.962C102.413 14.1713 102.526 14.4248 102.526 14.7226C102.526 15.0164 102.413 15.27 102.188 15.4833C101.967 15.6926 101.699 15.7972 101.385 15.7972ZM109.035 17.228V18.6768H103.97V17.228H109.035ZM105.329 15.0064H107.134V23.778C107.134 24.1282 107.186 24.3918 107.291 24.5689C107.395 24.7419 107.53 24.8607 107.695 24.9251C107.864 24.9854 108.047 25.0156 108.245 25.0156C108.39 25.0156 108.516 25.0056 108.625 24.9854C108.734 24.9653 108.818 24.9492 108.879 24.9371L109.205 26.4283C109.1 26.4685 108.951 26.5087 108.758 26.549C108.565 26.5933 108.323 26.6174 108.033 26.6214C107.558 26.6295 107.116 26.545 106.705 26.3679C106.295 26.1908 105.963 25.9171 105.709 25.5469C105.456 25.1766 105.329 24.7118 105.329 24.1523V15.0064ZM113.036 20.995V26.5007H111.231V14.1371H113.012V18.7372H113.127C113.344 18.2382 113.676 17.8417 114.123 17.5479C114.57 17.2541 115.153 17.1072 115.874 17.1072C116.51 17.1072 117.065 17.238 117.54 17.4996C118.019 17.7612 118.389 18.1516 118.651 18.6708C118.916 19.1859 119.049 19.8299 119.049 20.6026V26.5007H117.244V20.8199C117.244 20.1398 117.069 19.6126 116.719 19.2383C116.369 18.86 115.882 18.6708 115.258 18.6708C114.831 18.6708 114.449 18.7614 114.111 18.9425C113.777 19.1236 113.513 19.3892 113.32 19.7393C113.131 20.0855 113.036 20.504 113.036 20.995ZM131.831 22.6552V17.228H133.642V26.5007H131.867V24.8949H131.771C131.557 25.3899 131.215 25.8024 130.744 26.1324C130.277 26.4584 129.696 26.6214 129 26.6214C128.404 26.6214 127.877 26.4906 127.418 26.229C126.963 25.9634 126.605 25.571 126.343 25.0518C126.086 24.5327 125.957 23.8907 125.957 23.1261V17.228H127.762V22.9087C127.762 23.5406 127.937 24.0437 128.287 24.418C128.637 24.7922 129.092 24.9794 129.652 24.9794C129.99 24.9794 130.326 24.8949 130.66 24.7258C130.998 24.5568 131.278 24.3012 131.499 23.9591C131.724 23.6171 131.835 23.1824 131.831 22.6552ZM143.016 19.4918L141.38 19.7816C141.311 19.5723 141.203 19.3731 141.054 19.1839C140.909 18.9948 140.712 18.8398 140.462 18.7191C140.213 18.5984 139.901 18.538 139.526 18.538C139.015 18.538 138.589 18.6527 138.247 18.8821C137.905 19.1075 137.734 19.3993 137.734 19.7574C137.734 20.0673 137.848 20.3169 138.078 20.506C138.307 20.6952 138.677 20.8501 139.188 20.9709L140.661 21.3089C141.515 21.5061 142.151 21.81 142.569 22.2205C142.988 22.631 143.197 23.1643 143.197 23.8203C143.197 24.3757 143.036 24.8707 142.714 25.3054C142.396 25.736 141.951 26.0741 141.38 26.3196C140.812 26.5651 140.154 26.6878 139.406 26.6878C138.367 26.6878 137.52 26.4665 136.864 26.0238C136.208 25.577 135.806 24.9432 135.657 24.1221L137.401 23.8565C137.51 24.3113 137.734 24.6554 138.072 24.8888C138.41 25.1182 138.85 25.2329 139.394 25.2329C139.985 25.2329 140.458 25.1102 140.812 24.8647C141.167 24.6152 141.344 24.3113 141.344 23.9531C141.344 23.6633 141.235 23.4199 141.018 23.2226C140.804 23.0254 140.476 22.8765 140.034 22.7759L138.464 22.4318C137.599 22.2346 136.959 21.9207 136.544 21.49C136.134 21.0594 135.928 20.5141 135.928 19.854C135.928 19.3067 136.081 18.8278 136.387 18.4172C136.693 18.0067 137.116 17.6868 137.655 17.4574C138.194 17.2239 138.812 17.1072 139.508 17.1072C140.511 17.1072 141.299 17.3246 141.875 17.7592C142.45 18.1899 142.831 18.7674 143.016 19.4918ZM153.587 26.6878C152.717 26.6878 151.959 26.4886 151.311 26.0902C150.663 25.6917 150.16 25.1343 149.801 24.418C149.443 23.7016 149.264 22.8645 149.264 21.9066C149.264 20.9447 149.443 20.1036 149.801 19.3832C150.16 18.6627 150.663 18.1033 151.311 17.7049C151.959 17.3065 152.717 17.1072 153.587 17.1072C154.456 17.1072 155.214 17.3065 155.862 17.7049C156.51 18.1033 157.013 18.6627 157.372 19.3832C157.73 20.1036 157.909 20.9447 157.909 21.9066C157.909 22.8645 157.73 23.7016 157.372 24.418C157.013 25.1343 156.51 25.6917 155.862 26.0902C155.214 26.4886 154.456 26.6878 153.587 26.6878ZM153.593 25.1726C154.156 25.1726 154.623 25.0237 154.993 24.7258C155.363 24.428 155.637 24.0316 155.814 23.5366C155.995 23.0415 156.086 22.4962 156.086 21.9006C156.086 21.3089 155.995 20.7656 155.814 20.2706C155.637 19.7715 155.363 19.3711 154.993 19.0692C154.623 18.7674 154.156 18.6165 153.593 18.6165C153.025 18.6165 152.554 18.7674 152.18 19.0692C151.81 19.3711 151.534 19.7715 151.353 20.2706C151.176 20.7656 151.087 21.3089 151.087 21.9006C151.087 22.4962 151.176 23.0415 151.353 23.5366C151.534 24.0316 151.81 24.428 152.18 24.7258C152.554 25.0237 153.025 25.1726 153.593 25.1726ZM161.729 20.995V26.5007H159.924V17.228H161.656V18.7372H161.771C161.984 18.2462 162.318 17.8518 162.773 17.554C163.232 17.2561 163.81 17.1072 164.506 17.1072C165.138 17.1072 165.691 17.24 166.166 17.5057C166.641 17.7673 167.009 18.1577 167.271 18.6768C167.532 19.196 167.663 19.8379 167.663 20.6026V26.5007H165.858V20.8199C165.858 20.1478 165.683 19.6226 165.333 19.2443C164.983 18.862 164.502 18.6708 163.89 18.6708C163.471 18.6708 163.099 18.7614 162.773 18.9425C162.451 19.1236 162.196 19.3892 162.007 19.7393C161.821 20.0855 161.729 20.504 161.729 20.995Z" fill="#E8E8E8"/>
<path d="M173.937 13.6371H177.638L180.777 21.2919H180.922L184.061 13.6371H187.762V26.0007H184.852V18.4062H184.749L181.779 25.9222H179.92L176.95 18.364H176.847V26.0007H173.937V13.6371ZM192.24 26.1577C191.648 26.1577 191.123 26.0591 190.664 25.8618C190.209 25.6606 189.849 25.3588 189.583 24.9563C189.322 24.5498 189.191 24.0407 189.191 23.429C189.191 22.9138 189.281 22.4792 189.463 22.125C189.644 21.7708 189.893 21.4831 190.211 21.2617C190.529 21.0404 190.895 20.8733 191.31 20.7606C191.724 20.6439 192.167 20.5654 192.638 20.5252C193.165 20.4769 193.59 20.4266 193.912 20.3743C194.234 20.3179 194.467 20.2395 194.612 20.1388C194.761 20.0342 194.835 19.8873 194.835 19.6981V19.668C194.835 19.3581 194.729 19.1186 194.515 18.9496C194.302 18.7805 194.014 18.696 193.652 18.696C193.262 18.696 192.948 18.7805 192.71 18.9496C192.473 19.1186 192.322 19.352 192.258 19.6498L189.535 19.5533C189.615 18.9898 189.823 18.4867 190.157 18.044C190.495 17.5973 190.958 17.2471 191.545 16.9936C192.137 16.736 192.847 16.6072 193.676 16.6072C194.268 16.6072 194.813 16.6777 195.312 16.8185C195.811 16.9554 196.246 17.1566 196.616 17.4222C196.987 17.6838 197.272 18.0058 197.474 18.3881C197.679 18.7705 197.781 19.2071 197.781 19.6981V26.0007H195.004V24.7088H194.932C194.767 25.0227 194.556 25.2883 194.298 25.5057C194.045 25.723 193.745 25.886 193.399 25.9947C193.057 26.1033 192.67 26.1577 192.24 26.1577ZM193.151 24.2258C193.469 24.2258 193.755 24.1614 194.008 24.0327C194.266 23.9039 194.471 23.7268 194.624 23.5014C194.777 23.272 194.854 23.0064 194.854 22.7045V21.8231C194.769 21.8674 194.666 21.9077 194.546 21.9439C194.429 21.9801 194.3 22.0143 194.159 22.0465C194.018 22.0787 193.874 22.1069 193.725 22.131C193.576 22.1552 193.433 22.1773 193.296 22.1974C193.018 22.2417 192.781 22.3101 192.584 22.4027C192.39 22.4953 192.242 22.616 192.137 22.7649C192.036 22.9098 191.986 23.0828 191.986 23.2841C191.986 23.59 192.095 23.8234 192.312 23.9844C192.533 24.1453 192.813 24.2258 193.151 24.2258ZM204.821 16.728V18.9013H198.971V16.728H204.821ZM200.196 14.5064H203.148V23.0849C203.148 23.266 203.176 23.4129 203.233 23.5256C203.293 23.6342 203.38 23.7127 203.492 23.761C203.605 23.8053 203.74 23.8274 203.897 23.8274C204.01 23.8274 204.128 23.8173 204.253 23.7972C204.382 23.7731 204.478 23.7529 204.543 23.7368L204.99 25.8679C204.849 25.9081 204.649 25.9584 204.392 26.0188C204.138 26.0792 203.834 26.1174 203.48 26.1335C202.788 26.1657 202.194 26.0852 201.699 25.892C201.208 25.6948 200.832 25.389 200.571 24.9744C200.313 24.5599 200.188 24.0387 200.196 23.4109V14.5064ZM206.327 26.0007V16.728H209.194V18.4183H209.291C209.46 17.8066 209.736 17.3518 210.118 17.054C210.5 16.7521 210.945 16.6012 211.452 16.6012C211.589 16.6012 211.73 16.6113 211.875 16.6314C212.02 16.6475 212.154 16.6736 212.279 16.7099V19.2756C212.138 19.2273 211.953 19.189 211.724 19.1609C211.498 19.1327 211.297 19.1186 211.12 19.1186C210.77 19.1186 210.454 19.1971 210.172 19.354C209.895 19.507 209.675 19.7223 209.514 20C209.357 20.2737 209.279 20.5956 209.279 20.9659V26.0007H206.327ZM213.482 26.0007V16.728H216.434V26.0007H213.482ZM214.961 15.6474C214.547 15.6474 214.19 15.5105 213.893 15.2369C213.595 14.9592 213.446 14.6251 213.446 14.2347C213.446 13.8484 213.595 13.5183 213.893 13.2447C214.19 12.967 214.547 12.8281 214.961 12.8281C215.38 12.8281 215.736 12.967 216.03 13.2447C216.327 13.5183 216.476 13.8484 216.476 14.2347C216.476 14.6251 216.327 14.9592 216.03 15.2369C215.736 15.5105 215.38 15.6474 214.961 15.6474ZM220.824 16.728L222.352 19.7827L223.933 16.728H226.91L224.32 21.3643L227.006 26.0007H224.054L222.352 22.9219L220.692 26.0007H217.697L220.39 21.3643L217.83 16.728H220.824Z" fill="white"/>
</g>
<defs>
<filter id="filter0_d_1_56" x="2.39972" y="0.39972" width="39.202" height="39.202" filterUnits="userSpaceOnUse" color-interpolation-filters="sRGB">
<feFlood flood-opacity="0" result="BackgroundImageFix"/>
<feColorMatrix in="SourceAlpha" type="matrix" values="0 0 0 0 0 0 0 0 0 0 0 0 0 0 0 0 0 0 127 0" result="hardAlpha"/>
<feOffset/>
<feGaussianBlur stdDeviation="2.80014"/>
<feComposite in2="hardAlpha" operator="out"/>
<feColorMatrix type="matrix" values="0 0 0 0 0 0 0 0 0 0 0 0 0 0 0 0 0 0 0.25 0"/>
<feBlend mode="normal" in2="BackgroundImageFix" result="effect1_dropShadow_1_56"/>
<feBlend mode="normal" in="SourceGraphic" in2="effect1_dropShadow_1_56" result="shape"/>
</filter>
<filter id="filter1_d_1_56" x="36.2871" y="3.78642" width="197.429" height="32.4286" filterUnits="userSpaceOnUse" color-interpolation-filters="sRGB">
<feFlood flood-opacity="0" result="BackgroundImageFix"/>
<feColorMatrix in="SourceAlpha" type="matrix" values="0 0 0 0 0 0 0 0 0 0 0 0 0 0 0 0 0 0 127 0" result="hardAlpha"/>
<feOffset/>
<feGaussianBlur stdDeviation="2.85714"/>
<feComposite in2="hardAlpha" operator="out"/>
<feColorMatrix type="matrix" values="0 0 0 0 0 0 0 0 0 0 0 0 0 0 0 0 0 0 0.25 0"/>
<feBlend mode="normal" in2="BackgroundImageFix" result="effect1_dropShadow_1_56"/>
<feBlend mode="normal" in="SourceGraphic" in2="effect1_dropShadow_1_56" result="shape"/>
</filter>
<linearGradient id="paint0_linear_1_56" x1="118.001" y1="0" x2="118.001" y2="40.0014" gradientUnits="userSpaceOnUse">
<stop stop-color="#1E1E1E"/>
<stop offset="1" stop-color="#0D0D0D"/>
</linearGradient>
</defs>
</svg>
