<svg width="40" height="40" viewBox="0 0 40 40" fill="none" xmlns="http://www.w3.org/2000/svg">
<rect width="40" height="40" rx="8" fill="url(#paint0_linear_1_68)"/>
<rect x="1.05" y="1.05" width="37.9" height="37.9" rx="6.95" stroke="white" stroke-opacity="0.15" stroke-width="2.1"/>
<g filter="url(#filter0_d_1_68)">
<path d="M32.6455 14.2106C32.6453 13.7411 32.5447 13.3261 32.3412 12.97C32.1413 12.6198 31.842 12.3263 31.4404 12.0942C28.126 10.1868 24.8083 8.28524 21.4949 6.3759C20.6017 5.8612 19.7356 5.87997 18.8489 6.40205C17.5297 7.17856 10.9247 10.9554 8.95645 12.0931C8.14588 12.5615 7.75146 13.2782 7.75127 14.2098C7.75 18.0457 7.75127 21.8815 7.75 25.7175C7.75 26.1768 7.84654 26.5836 8.04107 26.9344C8.24105 27.2952 8.54459 27.5968 8.95538 27.8341C10.9237 28.9719 17.5296 32.7484 18.8486 33.5251C19.7356 34.0475 20.6017 34.0661 21.4952 33.5513C24.8087 31.6418 28.1266 29.7403 31.4415 27.8329C31.8523 27.5957 32.1558 27.2939 32.3558 26.9334C32.5501 26.5827 32.6468 26.1758 32.6468 25.7164C32.6468 25.7164 32.6468 18.0466 32.6455 14.2106Z" fill="#A179DC"/>
<path d="M20.2365 19.9262L8.04107 26.9344C8.24105 27.2952 8.54459 27.5968 8.95538 27.8341C10.9237 28.9719 17.5296 32.7484 18.8486 33.5251C19.7356 34.0475 20.6017 34.0661 21.4952 33.5513C24.8087 31.6418 28.1266 29.7403 31.4415 27.8329C31.8523 27.5957 32.1558 27.2939 32.3558 26.9334L20.2365 19.9262Z" fill="#280068"/>
<path d="M32.6455 14.2106C32.6453 13.7411 32.5447 13.3261 32.3412 12.97L20.2365 19.9262L32.3558 26.9334C32.5501 26.5827 32.6466 26.1758 32.6468 25.7164C32.6468 25.7164 32.6468 18.0466 32.6455 14.2106Z" fill="#390091"/>
<path d="M27.4168 17.3064V18.6163H28.7293V17.3064H29.3855V18.6163H30.698V19.2713H29.3855V20.5812H30.698V21.2362H29.3855V22.5461H28.7293V21.2362H27.4168V22.5461H26.7605V21.2362H25.448V20.5812H26.7605V19.2713H25.448V18.6163H26.7605V17.3064H27.4168ZM28.7293 19.2713H27.4168V20.5812H28.7293V19.2713Z" fill="white"/>
<path d="M20.2632 10.7275C23.6867 10.7275 26.6756 12.5831 28.2765 15.3413L28.2609 15.3148L24.2331 17.6294C23.4395 16.2884 21.9846 15.3834 20.3158 15.3648L20.2632 15.3645C17.7183 15.3645 15.6551 17.4236 15.6551 19.9636C15.6551 20.7942 15.8769 21.5728 16.2628 22.2453C17.0571 23.6293 18.5503 24.5628 20.2632 24.5628C21.9867 24.5628 23.4884 23.6174 24.2787 22.2187L24.2595 22.2522L28.2813 24.5776C26.6979 27.3124 23.75 29.1623 20.3663 29.1992L20.2632 29.1997C16.829 29.1997 13.8316 27.3327 12.2347 24.5599C11.4551 23.2063 11.009 21.637 11.009 19.9636C11.009 14.8627 15.1522 10.7275 20.2632 10.7275Z" fill="white"/>
</g>
<defs>
<filter id="filter0_d_1_68" x="2" y="2" width="36" height="36" filterUnits="userSpaceOnUse" color-interpolation-filters="sRGB">
<feFlood flood-opacity="0" result="BackgroundImageFix"/>
<feColorMatrix in="SourceAlpha" type="matrix" values="0 0 0 0 0 0 0 0 0 0 0 0 0 0 0 0 0 0 127 0" result="hardAlpha"/>
<feOffset/>
<feGaussianBlur stdDeviation="2"/>
<feComposite in2="hardAlpha" operator="out"/>
<feColorMatrix type="matrix" values="0 0 0 0 0 0 0 0 0 0 0 0 0 0 0 0 0 0 0.25 0"/>
<feBlend mode="normal" in2="BackgroundImageFix" result="effect1_dropShadow_1_68"/>
<feBlend mode="normal" in="SourceGraphic" in2="effect1_dropShadow_1_68" result="shape"/>
</filter>
<linearGradient id="paint0_linear_1_68" x1="20" y1="0" x2="20" y2="40" gradientUnits="userSpaceOnUse">
<stop stop-color="#390091"/>
<stop offset="0.9997" stop-color="#1C0049"/>
<stop offset="0.9998" stop-color="#00305B"/>
<stop offset="0.9999" stop-color="#353B7D"/>
<stop offset="1" stop-color="#1C0049"/>
</linearGradient>
</defs>
</svg>
