<svg width="56" height="56" viewBox="0 0 56 56" fill="none" xmlns="http://www.w3.org/2000/svg">
<rect width="56" height="56" rx="8.4" fill="url(#paint0_linear_1_62)"/>
<rect x="1.05" y="1.05" width="53.9" height="53.9" rx="7.35" stroke="white" stroke-opacity="0.15" stroke-width="2.1"/>
<g filter="url(#filter0_d_1_62)">
<path d="M46.065 19.7295C46.0647 19.0587 45.921 18.4659 45.6303 17.9571C45.3447 17.4569 44.9171 17.0376 44.3435 16.706C39.6085 13.9812 34.869 11.2646 30.1356 8.537C28.8595 7.80172 27.6223 7.82852 26.3556 8.57436C24.471 9.68366 15.0352 15.0791 12.2235 16.7045C11.0655 17.3735 10.5021 18.3974 10.5018 19.7282C10.5 25.2081 10.5018 30.6878 10.5 36.1678C10.5 36.8239 10.6379 37.4052 10.9158 37.9063C11.2015 38.4217 11.6351 38.8526 12.222 39.1916C15.0338 40.817 24.4708 46.212 26.3551 47.3216C27.6223 48.0678 28.8595 48.0945 30.1361 47.3589C34.8696 44.6312 39.6094 41.9148 44.345 39.1899C44.9318 38.851 45.3655 38.4199 45.6512 37.9049C45.9286 37.4038 46.0668 36.8226 46.0668 36.1663C46.0668 36.1663 46.0668 25.2095 46.065 19.7295Z" fill="#A179DC"/>
<path d="M28.3378 27.8946L10.9158 37.9063C11.2015 38.4217 11.6351 38.8526 12.222 39.1916C15.0338 40.817 24.4708 46.212 26.3551 47.3216C27.6223 48.0678 28.8595 48.0945 30.1361 47.3589C34.8696 44.6312 39.6094 41.9148 44.345 39.1899C44.9318 38.851 45.3655 38.4199 45.6512 37.9049L28.3378 27.8946Z" fill="#280068"/>
<path d="M46.065 19.7295C46.0647 19.0587 45.921 18.4659 45.6303 17.9571L28.3378 27.8946L45.6512 37.9049C45.9286 37.4038 46.0666 36.8226 46.0668 36.1663C46.0668 36.1663 46.0668 25.2095 46.065 19.7295Z" fill="#390091"/>
<path d="M38.5954 24.1519V26.0233H40.4704V24.1519H41.4079V26.0233H43.2829V26.959H41.4079V28.8303H43.2829V29.766H41.4079V31.6373H40.4704V29.766H38.5954V31.6373H37.6579V29.766H35.7829V28.8303H37.6579V26.959H35.7829V26.0233H37.6579V24.1519H38.5954ZM40.4704 26.959H38.5954V28.8303H40.4704V26.959Z" fill="white"/>
<path d="M28.3761 14.7536C33.2667 14.7536 37.5366 17.4045 39.8236 21.3447L39.8013 21.3068L34.0472 24.6135C32.9135 22.6977 30.8352 21.4049 28.4512 21.3782L28.3761 21.3778C24.7404 21.3778 21.7929 24.3194 21.7929 27.948C21.7929 29.1346 22.1099 30.2469 22.6612 31.2076C23.7959 33.1847 25.929 34.5182 28.3761 34.5182C30.8382 34.5182 32.9835 33.1678 34.1125 31.1695L34.085 31.2175L39.8305 34.5394C37.5685 38.4463 33.3571 41.089 28.5233 41.1417L28.3761 41.1425C23.47 41.1425 19.188 38.4753 16.9067 34.5142C15.793 32.5805 15.1558 30.3386 15.1558 27.948C15.1558 20.661 21.0746 14.7536 28.3761 14.7536Z" fill="white"/>
</g>
<defs>
<filter id="filter0_d_1_62" x="2.28571" y="2.28571" width="51.4286" height="51.4286" filterUnits="userSpaceOnUse" color-interpolation-filters="sRGB">
<feFlood flood-opacity="0" result="BackgroundImageFix"/>
<feColorMatrix in="SourceAlpha" type="matrix" values="0 0 0 0 0 0 0 0 0 0 0 0 0 0 0 0 0 0 127 0" result="hardAlpha"/>
<feOffset/>
<feGaussianBlur stdDeviation="2.85714"/>
<feComposite in2="hardAlpha" operator="out"/>
<feColorMatrix type="matrix" values="0 0 0 0 0 0 0 0 0 0 0 0 0 0 0 0 0 0 0.25 0"/>
<feBlend mode="normal" in2="BackgroundImageFix" result="effect1_dropShadow_1_62"/>
<feBlend mode="normal" in="SourceGraphic" in2="effect1_dropShadow_1_62" result="shape"/>
</filter>
<linearGradient id="paint0_linear_1_62" x1="28" y1="0" x2="28" y2="56" gradientUnits="userSpaceOnUse">
<stop stop-color="#280065"/>
<stop stop-color="#5B4000"/>
<stop offset="0.0001" stop-color="#292929"/>
<stop offset="0.0002" stop-color="#5B4000"/>
<stop offset="0.0003" stop-color="#316BA8"/>
<stop offset="0.0004" stop-color="#280065"/>
<stop offset="0.9998" stop-color="#1C0049"/>
<stop offset="0.9999" stop-color="#0B3C42"/>
<stop offset="1" stop-color="#1C0049"/>
</linearGradient>
</defs>
</svg>
