<svg width="40" height="40" viewBox="0 0 40 40" fill="none" xmlns="http://www.w3.org/2000/svg">
<rect width="40" height="40" rx="8" fill="url(#paint0_linear_1_68)"/>
<rect x="1.05" y="1.05" width="37.9" height="37.9" rx="6.95" stroke="white" stroke-opacity="0.15" stroke-width="2.1"/>
<g filter="url(#filter0_d_1_68)">
<path d="M20 34C27.732 34 34 27.732 34 20C34 12.268 27.732 6 20 6C12.268 6 6 12.268 6 20C6 27.732 12.268 34 20 34Z" fill="white"/>
<path d="M26.1208 11.1802C24.6989 11.2301 23.4566 12.014 22.5335 13.0983C21.5096 14.2872 20.8294 15.6981 20.3386 17.1374C19.4614 16.4182 18.7846 15.4876 17.3772 15.0817C16.2885 14.769 15.1465 14.8976 14.0957 15.6806C13.5975 16.0527 13.2548 16.6147 13.0918 17.1429C12.6689 18.5163 13.5351 19.7387 13.9291 20.178L14.7894 21.0987C14.9669 21.2797 15.3933 21.7515 15.1854 22.4273C14.9595 23.1629 14.0737 23.6381 13.1646 23.3584C12.7586 23.2327 12.1751 22.931 12.3063 22.5061C12.3601 22.3315 12.4848 22.2003 12.5522 22.0512C12.6135 21.9216 12.6424 21.8248 12.6609 21.768C12.8269 21.2254 12.6 20.5202 12.0195 20.3411C11.4774 20.1756 10.9238 20.3072 10.7089 21.0039C10.4645 21.7974 10.844 23.2342 12.8753 23.8611C15.2552 24.5927 17.2685 23.296 17.5538 21.6064C17.7338 20.5481 17.2551 19.7611 16.3798 18.7492L15.6666 17.9607C15.2343 17.5284 15.0861 16.7928 15.533 16.2277C15.9105 15.7504 16.4476 15.547 17.3289 15.7858C18.6141 16.1339 19.1871 17.0262 20.1426 17.7458C19.7481 19.04 19.4898 20.3391 19.2569 21.5051L19.1138 22.3729C18.43 25.9567 17.9089 27.9241 16.5534 29.0537C16.2806 29.2487 15.8896 29.539 15.3016 29.5594C14.9929 29.5694 14.8936 29.3569 14.8886 29.2642C14.8817 29.0477 15.0647 28.9485 15.1859 28.8512C15.3669 28.752 15.6407 28.5884 15.6223 28.0643C15.6018 27.4429 15.0881 26.9052 14.346 26.9307C13.789 26.9491 12.9417 27.4723 12.9736 28.4318C13.0065 29.4213 13.9291 30.1639 15.3205 30.116C16.0646 30.0916 17.7253 29.7888 19.3616 27.8433C21.2662 25.6126 21.7994 23.0556 22.2003 21.1845L22.6472 18.7143C22.8961 18.7437 23.1614 18.7642 23.4506 18.7707C25.823 18.8215 27.0095 17.5922 27.0279 16.6985C27.0394 16.1574 26.6728 15.6253 26.1592 15.6372C25.7921 15.6477 25.3303 15.8921 25.2196 16.3998C25.1114 16.8985 25.9746 17.3483 25.2999 17.7857C24.8206 18.0964 23.9613 18.3148 22.7514 18.1373L22.9719 16.9209C23.4202 14.6149 23.9748 11.7781 26.0759 11.7098C26.229 11.7018 26.7895 11.7168 26.8025 12.0869C26.806 12.2105 26.7756 12.2425 26.6309 12.5257C26.4828 12.7462 26.4275 12.9342 26.434 13.1506C26.4549 13.7391 26.9022 14.1261 27.5501 14.1032C28.4164 14.0747 28.6657 13.2314 28.6518 12.7975C28.6158 11.7776 27.5416 11.1343 26.1208 11.1802Z" fill="#1A171B"/>
</g>
<defs>
<filter id="filter0_d_1_68" x="2" y="2" width="36" height="36" filterUnits="userSpaceOnUse" color-interpolation-filters="sRGB">
<feFlood flood-opacity="0" result="BackgroundImageFix"/>
<feColorMatrix in="SourceAlpha" type="matrix" values="0 0 0 0 0 0 0 0 0 0 0 0 0 0 0 0 0 0 127 0" result="hardAlpha"/>
<feOffset/>
<feGaussianBlur stdDeviation="2"/>
<feComposite in2="hardAlpha" operator="out"/>
<feColorMatrix type="matrix" values="0 0 0 0 0 0 0 0 0 0 0 0 0 0 0 0 0 0 0.25 0"/>
<feBlend mode="normal" in2="BackgroundImageFix" result="effect1_dropShadow_1_68"/>
<feBlend mode="normal" in="SourceGraphic" in2="effect1_dropShadow_1_68" result="shape"/>
</filter>
<linearGradient id="paint0_linear_1_68" x1="20" y1="0" x2="20" y2="40" gradientUnits="userSpaceOnUse">
<stop stop-color="#1A171B"/>
<stop offset="1" stop-color="#121013"/>
</linearGradient>
</defs>
</svg>
