<svg width="205" height="40" viewBox="0 0 205 40" fill="none" xmlns="http://www.w3.org/2000/svg">
<rect x="1.07143" y="1.07143" width="202.858" height="37.8585" rx="6.92857" stroke="white" stroke-opacity="0.15" stroke-width="2.14286"  fill="url(#paint0_linear_1_50)"/>
<g filter="url(#filter0_d_1_56)">
<path d="M22 34C29.732 34 36 27.732 36 20C36 12.268 29.732 6 22 6C14.268 6 8 12.268 8 20C8 27.732 14.268 34 22 34Z" fill="white"/>
<path d="M28.1208 11.1802C26.6989 11.2301 25.4566 12.014 24.5335 13.0983C23.5096 14.2872 22.8294 15.6981 22.3386 17.1374C21.4614 16.4182 20.7846 15.4876 19.3772 15.0817C18.2885 14.769 17.1465 14.8976 16.0957 15.6806C15.5975 16.0527 15.2548 16.6147 15.0918 17.1429C14.6688 18.5163 15.5351 19.7387 15.9291 20.178L16.7894 21.0987C16.9669 21.2797 17.3933 21.7515 17.1854 22.4273C16.9595 23.1629 16.0737 23.6381 15.1646 23.3584C14.7586 23.2327 14.1751 22.931 14.3063 22.5061C14.3601 22.3315 14.4848 22.2003 14.5521 22.0512C14.6135 21.9216 14.6424 21.8248 14.6609 21.768C14.8269 21.2254 14.6 20.5202 14.0195 20.3411C13.4774 20.1756 12.9238 20.3072 12.7089 21.0039C12.4645 21.7974 12.844 23.2342 14.8753 23.8611C17.2552 24.5927 19.2685 23.296 19.5538 21.6064C19.7338 20.5481 19.2551 19.7611 18.3798 18.7492L17.6666 17.9607C17.2343 17.5284 17.0861 16.7928 17.533 16.2277C17.9105 15.7504 18.4476 15.547 19.3289 15.7858C20.6141 16.1339 21.1871 17.0262 22.1426 17.7458C21.7481 19.04 21.4898 20.3391 21.2569 21.5051L21.1138 22.3729C20.43 25.9567 19.9089 27.9241 18.5534 29.0537C18.2806 29.2487 17.8896 29.539 17.3016 29.5594C16.9929 29.5694 16.8936 29.3569 16.8886 29.2642C16.8817 29.0477 17.0647 28.9485 17.1859 28.8512C17.3669 28.752 17.6407 28.5884 17.6223 28.0643C17.6018 27.4429 17.0881 26.9052 16.346 26.9307C15.789 26.9491 14.9416 27.4723 14.9736 28.4318C15.0065 29.4213 15.9291 30.1639 17.3205 30.116C18.0646 30.0916 19.7253 29.7888 21.3616 27.8433C23.2662 25.6126 23.7994 23.0556 24.2003 21.1845L24.6472 18.7143C24.896 18.7437 25.1614 18.7642 25.4506 18.7707C27.823 18.8215 29.0095 17.5922 29.0279 16.6985C29.0394 16.1574 28.6728 15.6253 28.1592 15.6372C27.7921 15.6477 27.3303 15.8921 27.2196 16.3998C27.1114 16.8985 27.9746 17.3483 27.2999 17.7857C26.8206 18.0964 25.9613 18.3148 24.7514 18.1373L24.9719 16.9209C25.4202 14.6149 25.9748 11.7781 28.0759 11.7098C28.229 11.7018 28.7895 11.7168 28.8025 12.0869C28.806 12.2105 28.7756 12.2425 28.6309 12.5257C28.4828 12.7462 28.4275 12.9342 28.434 13.1506C28.4549 13.7391 28.9022 14.1261 29.5501 14.1032C30.4164 14.0747 30.6657 13.2314 30.6517 12.7975C30.6158 11.7776 29.5416 11.1343 28.1208 11.1802Z" fill="#1A171B"/>
</g>
<g filter="url(#filter1_d_1_56)">
<path d="M43.3597 26.5007V14.1371H47.8874C48.7648 14.1371 49.4912 14.282 50.0667 14.5717C50.6423 14.8575 51.0729 15.2458 51.3586 15.7369C51.6444 16.2238 51.7873 16.7732 51.7873 17.3849C51.7873 17.9001 51.6927 18.3347 51.5035 18.6889C51.3144 19.0391 51.0608 19.3208 50.7429 19.5341C50.429 19.7434 50.0828 19.8963 49.7045 19.9929V20.1136C50.115 20.1337 50.5155 20.2666 50.9059 20.5121C51.3003 20.7535 51.6263 21.0976 51.8839 21.5444C52.1414 21.9911 52.2702 22.5344 52.2702 23.1743C52.2702 23.8062 52.1213 24.3737 51.8235 24.8768C51.5297 25.3758 51.0749 25.7722 50.4591 26.066C49.8434 26.3558 49.0566 26.5007 48.0987 26.5007H43.3597ZM45.2251 24.9009H47.9176C48.8111 24.9009 49.451 24.7279 49.8373 24.3817C50.2237 24.0356 50.4169 23.603 50.4169 23.0838C50.4169 22.6934 50.3183 22.3352 50.1211 22.0092C49.9239 21.6832 49.6421 21.4236 49.2759 21.2305C48.9137 21.0373 48.483 20.9407 47.984 20.9407H45.2251V24.9009ZM45.2251 19.4858H47.7244C48.143 19.4858 48.5193 19.4053 48.8533 19.2443C49.1914 19.0833 49.459 18.8579 49.6562 18.5682C49.8575 18.2744 49.9581 17.9283 49.9581 17.5298C49.9581 17.0187 49.779 16.5901 49.4208 16.244C49.0626 15.8978 48.5132 15.7248 47.7727 15.7248H45.2251V19.4858ZM60.2118 22.6552V17.228H62.0229V26.5007H60.248V24.8949H60.1514C59.9381 25.3899 59.596 25.8024 59.1251 26.1324C58.6583 26.4584 58.0767 26.6214 57.3805 26.6214C56.7848 26.6214 56.2576 26.4906 55.7988 26.229C55.344 25.9634 54.9858 25.571 54.7242 25.0518C54.4667 24.5327 54.3379 23.8907 54.3379 23.1261V17.228H56.1429V22.9087C56.1429 23.5406 56.318 24.0437 56.6681 24.418C57.0183 24.7922 57.473 24.9794 58.0325 24.9794C58.3705 24.9794 58.7066 24.8949 59.0406 24.7258C59.3787 24.5568 59.6584 24.3012 59.8798 23.9591C60.1051 23.6171 60.2158 23.1824 60.2118 22.6552ZM64.4482 26.5007V17.228H66.2533V26.5007H64.4482ZM65.3598 15.7972C65.0459 15.7972 64.7762 15.6926 64.5508 15.4833C64.3295 15.27 64.2188 15.0164 64.2188 14.7226C64.2188 14.4248 64.3295 14.1713 64.5508 13.962C64.7762 13.7487 65.0459 13.642 65.3598 13.642C65.6737 13.642 65.9413 13.7487 66.1627 13.962C66.3881 14.1713 66.5008 14.4248 66.5008 14.7226C66.5008 15.0164 66.3881 15.27 66.1627 15.4833C65.9413 15.6926 65.6737 15.7972 65.3598 15.7972ZM70.4867 14.1371V26.5007H68.6816V14.1371H70.4867ZM77.2435 17.228V18.6768H72.1785V17.228H77.2435ZM73.5368 15.0064H75.3419V23.778C75.3419 24.1282 75.3942 24.3918 75.4988 24.5689C75.6035 24.7419 75.7383 24.8607 75.9033 24.9251C76.0723 24.9854 76.2554 25.0156 76.4526 25.0156C76.5975 25.0156 76.7243 25.0056 76.833 24.9854C76.9416 24.9653 77.0262 24.9492 77.0865 24.9371L77.4125 26.4283C77.3079 26.4685 77.159 26.5087 76.9658 26.549C76.7726 26.5933 76.5311 26.6174 76.2414 26.6214C75.7664 26.6295 75.3237 26.545 74.9132 26.3679C74.5027 26.1908 74.1707 25.9171 73.9171 25.5469C73.6636 25.1766 73.5368 24.7118 73.5368 24.1523V15.0064ZM85.7495 26.5007L83.0208 17.228H84.8862L86.7034 24.0376H86.7939L88.6171 17.228H90.4825L92.2936 24.0074H92.3841L94.1891 17.228H96.0546L93.3319 26.5007H91.4906L89.6071 19.8057H89.4683L87.5847 26.5007H85.7495ZM97.7675 26.5007V17.228H99.5726V26.5007H97.7675ZM98.6791 15.7972C98.3652 15.7972 98.0955 15.6926 97.8702 15.4833C97.6488 15.27 97.5381 15.0164 97.5381 14.7226C97.5381 14.4248 97.6488 14.1713 97.8702 13.962C98.0955 13.7487 98.3652 13.642 98.6791 13.642C98.993 13.642 99.2607 13.7487 99.482 13.962C99.7074 14.1713 99.8201 14.4248 99.8201 14.7226C99.8201 15.0164 99.7074 15.27 99.482 15.4833C99.2607 15.6926 98.993 15.7972 98.6791 15.7972ZM106.329 17.228V18.6768H101.264V17.228H106.329ZM102.623 15.0064H104.428V23.778C104.428 24.1282 104.48 24.3918 104.585 24.5689C104.689 24.7419 104.824 24.8607 104.989 24.9251C105.158 24.9854 105.341 25.0156 105.539 25.0156C105.683 25.0156 105.81 25.0056 105.919 24.9854C106.028 24.9653 106.112 24.9492 106.172 24.9371L106.498 26.4283C106.394 26.4685 106.245 26.5087 106.052 26.549C105.859 26.5933 105.617 26.6174 105.327 26.6214C104.852 26.6295 104.41 26.545 103.999 26.3679C103.589 26.1908 103.257 25.9171 103.003 25.5469C102.75 25.1766 102.623 24.7118 102.623 24.1523V15.0064ZM110.33 20.995V26.5007H108.525V14.1371H110.306V18.7372H110.421C110.638 18.2382 110.97 17.8417 111.417 17.5479C111.864 17.2541 112.447 17.1072 113.168 17.1072C113.804 17.1072 114.359 17.238 114.834 17.4996C115.313 17.7612 115.683 18.1516 115.945 18.6708C116.21 19.1859 116.343 19.8299 116.343 20.6026V26.5007H114.538V20.8199C114.538 20.1398 114.363 19.6126 114.013 19.2383C113.663 18.86 113.176 18.6708 112.552 18.6708C112.125 18.6708 111.743 18.7614 111.405 18.9425C111.071 19.1236 110.807 19.3892 110.614 19.7393C110.425 20.0855 110.33 20.504 110.33 20.995Z" fill="#E8E8E8"/>
<path d="M129.62 17.3437C129.58 16.901 129.401 16.5569 129.083 16.3114C128.769 16.0619 128.32 15.9371 127.736 15.9371C127.35 15.9371 127.028 15.9874 126.771 16.0881C126.513 16.1887 126.32 16.3275 126.191 16.5046C126.062 16.6777 125.996 16.8769 125.992 17.1023C125.984 17.2874 126.02 17.4504 126.1 17.5913C126.185 17.7321 126.306 17.8569 126.463 17.9655C126.624 18.0702 126.817 18.1627 127.042 18.2432C127.268 18.3237 127.521 18.3942 127.803 18.4545L128.865 18.696C129.477 18.8288 130.016 19.0059 130.483 19.2273C130.954 19.4486 131.349 19.7122 131.666 20.0181C131.988 20.324 132.232 20.6761 132.397 21.0746C132.562 21.473 132.646 21.9197 132.651 22.4148C132.646 23.1955 132.449 23.8656 132.059 24.4251C131.669 24.9845 131.107 25.4131 130.375 25.7109C129.646 26.0087 128.767 26.1577 127.736 26.1577C126.702 26.1577 125.801 26.0027 125.032 25.6928C124.263 25.3829 123.666 24.912 123.239 24.2802C122.812 23.6483 122.593 22.8494 122.581 21.8835H125.442C125.467 22.2819 125.573 22.614 125.762 22.8796C125.952 23.1452 126.211 23.3465 126.541 23.4833C126.875 23.6201 127.262 23.6886 127.7 23.6886C128.103 23.6886 128.445 23.6342 128.727 23.5256C129.012 23.4169 129.232 23.266 129.385 23.0728C129.537 22.8796 129.616 22.6583 129.62 22.4087C129.616 22.1753 129.544 21.9761 129.403 21.8111C129.262 21.642 129.044 21.4971 128.751 21.3764C128.461 21.2516 128.091 21.1369 127.64 21.0323L126.348 20.7305C125.277 20.485 124.434 20.0885 123.818 19.5412C123.203 18.9898 122.897 18.2453 122.901 17.3075C122.897 16.5428 123.102 15.8727 123.517 15.2972C123.931 14.7217 124.505 14.273 125.237 13.951C125.97 13.629 126.805 13.468 127.742 13.468C128.7 13.468 129.531 13.631 130.236 13.957C130.944 14.279 131.493 14.7318 131.884 15.3153C132.274 15.8989 132.473 16.575 132.481 17.3437H129.62ZM135.965 29.478C135.611 29.478 135.277 29.4498 134.963 29.3935C134.649 29.3411 134.379 29.2707 134.154 29.1822L134.806 27.039C135.095 27.1356 135.357 27.192 135.591 27.2081C135.828 27.2242 136.031 27.1859 136.2 27.0934C136.373 27.0048 136.506 26.8459 136.599 26.6165L136.713 26.3388L133.417 16.728H136.508L138.217 23.3444H138.313L140.046 16.728H143.155L139.659 26.8881C139.49 27.3952 139.251 27.842 138.941 28.2283C138.635 28.6187 138.239 28.9246 137.752 29.1459C137.269 29.3673 136.673 29.478 135.965 29.478ZM144.287 26.0007V16.728H147.094V18.4304H147.197C147.39 17.8669 147.716 17.4222 148.174 17.0962C148.633 16.7702 149.181 16.6072 149.817 16.6072C150.46 16.6072 151.012 16.7722 151.471 17.1023C151.929 17.4323 152.221 17.875 152.346 18.4304H152.443C152.616 17.879 152.954 17.4383 153.457 17.1083C153.96 16.7743 154.554 16.6072 155.238 16.6072C156.115 16.6072 156.827 16.889 157.375 17.4524C157.922 18.0118 158.196 18.7805 158.196 19.7585V26.0007H155.244V20.4346C155.244 19.9718 155.125 19.6197 154.888 19.3782C154.65 19.1327 154.342 19.0099 153.964 19.0099C153.557 19.0099 153.237 19.1427 153.004 19.4084C152.775 19.67 152.66 20.0221 152.66 20.4648V26.0007H149.823V20.4045C149.823 19.9738 149.706 19.6337 149.472 19.3842C149.239 19.1347 148.931 19.0099 148.549 19.0099C148.291 19.0099 148.064 19.0723 147.867 19.1971C147.669 19.3178 147.514 19.4909 147.402 19.7163C147.293 19.9416 147.239 20.2073 147.239 20.5131V26.0007H144.287ZM165.295 16.728V18.9013H159.331V16.728H165.295ZM160.574 26.0007V16.2571C160.574 15.5407 160.709 14.9471 160.979 14.4762C161.248 14.0013 161.623 13.6471 162.102 13.4137C162.581 13.1762 163.134 13.0575 163.762 13.0575C164.172 13.0575 164.559 13.0897 164.921 13.1541C165.287 13.2145 165.559 13.2688 165.736 13.3171L165.265 15.4783C165.156 15.4421 165.024 15.4119 164.867 15.3878C164.714 15.3636 164.569 15.3516 164.432 15.3516C164.086 15.3516 163.848 15.428 163.72 15.581C163.591 15.7339 163.526 15.9432 163.526 16.2088V26.0007H160.574ZM170.745 26.1758C169.771 26.1758 168.934 25.9765 168.234 25.5781C167.537 25.1757 167 24.6162 166.622 23.8998C166.248 23.1794 166.06 22.3443 166.06 21.3945C166.06 20.4407 166.248 19.6056 166.622 18.8892C167 18.1688 167.537 17.6094 168.234 17.2109C168.934 16.8085 169.771 16.6072 170.745 16.6072C171.719 16.6072 172.554 16.8085 173.25 17.2109C173.951 17.6094 174.488 18.1688 174.862 18.8892C175.241 19.6056 175.43 20.4407 175.43 21.3945C175.43 22.3443 175.241 23.1794 174.862 23.8998C174.488 24.6162 173.951 25.1757 173.25 25.5781C172.554 25.9765 171.719 26.1758 170.745 26.1758ZM170.763 23.9481C171.117 23.9481 171.417 23.8395 171.663 23.6221C171.908 23.4048 172.095 23.103 172.224 22.7166C172.357 22.3302 172.423 21.8835 172.423 21.3764C172.423 20.8613 172.357 20.4105 172.224 20.0241C172.095 19.6378 171.908 19.3359 171.663 19.1186C171.417 18.9013 171.117 18.7926 170.763 18.7926C170.397 18.7926 170.087 18.9013 169.833 19.1186C169.584 19.3359 169.393 19.6378 169.26 20.0241C169.131 20.4105 169.067 20.8613 169.067 21.3764C169.067 21.8835 169.131 22.3302 169.26 22.7166C169.393 23.103 169.584 23.4048 169.833 23.6221C170.087 23.8395 170.397 23.9481 170.763 23.9481ZM179.894 20.7123V26.0007H176.942V16.728H179.749V18.4304H179.852C180.057 17.8629 180.407 17.4182 180.902 17.0962C181.397 16.7702 181.987 16.6072 182.671 16.6072C183.323 16.6072 183.888 16.7541 184.367 17.0479C184.85 17.3377 185.225 17.7442 185.49 18.2674C185.76 18.7866 185.893 19.3943 185.889 20.0905V26.0007H182.937V20.6701C182.941 20.1549 182.81 19.7525 182.544 19.4627C182.283 19.1729 181.918 19.028 181.452 19.028C181.142 19.028 180.868 19.0965 180.631 19.2333C180.397 19.3661 180.216 19.5573 180.087 19.8068C179.962 20.0563 179.898 20.3582 179.894 20.7123ZM189.189 29.478C188.835 29.478 188.501 29.4498 188.187 29.3935C187.873 29.3411 187.604 29.2707 187.378 29.1822L188.03 27.039C188.32 27.1356 188.582 27.192 188.815 27.2081C189.053 27.2242 189.256 27.1859 189.425 27.0934C189.598 27.0048 189.731 26.8459 189.823 26.6165L189.938 26.3388L186.642 16.728H189.733L191.441 23.3444H191.538L193.27 16.728H196.379L192.884 26.8881C192.715 27.3952 192.475 27.842 192.166 28.2283C191.86 28.6187 191.463 28.9246 190.976 29.1459C190.493 29.3673 189.898 29.478 189.189 29.478Z" fill="white"/>
</g>
<defs>
<filter id="filter0_d_1_56" x="2.39972" y="0.39972" width="39.202" height="39.202" filterUnits="userSpaceOnUse" color-interpolation-filters="sRGB">
<feFlood flood-opacity="0" result="BackgroundImageFix"/>
<feColorMatrix in="SourceAlpha" type="matrix" values="0 0 0 0 0 0 0 0 0 0 0 0 0 0 0 0 0 0 127 0" result="hardAlpha"/>
<feOffset/>
<feGaussianBlur stdDeviation="2.80014"/>
<feComposite in2="hardAlpha" operator="out"/>
<feColorMatrix type="matrix" values="0 0 0 0 0 0 0 0 0 0 0 0 0 0 0 0 0 0 0.25 0"/>
<feBlend mode="normal" in2="BackgroundImageFix" result="effect1_dropShadow_1_56"/>
<feBlend mode="normal" in="SourceGraphic" in2="effect1_dropShadow_1_56" result="shape"/>
</filter>
<filter id="filter1_d_1_56" x="36.2871" y="3.78642" width="166.429" height="32.4286" filterUnits="userSpaceOnUse" color-interpolation-filters="sRGB">
<feFlood flood-opacity="0" result="BackgroundImageFix"/>
<feColorMatrix in="SourceAlpha" type="matrix" values="0 0 0 0 0 0 0 0 0 0 0 0 0 0 0 0 0 0 127 0" result="hardAlpha"/>
<feOffset/>
<feGaussianBlur stdDeviation="2.85714"/>
<feComposite in2="hardAlpha" operator="out"/>
<feColorMatrix type="matrix" values="0 0 0 0 0 0 0 0 0 0 0 0 0 0 0 0 0 0 0.25 0"/>
<feBlend mode="normal" in2="BackgroundImageFix" result="effect1_dropShadow_1_56"/>
<feBlend mode="normal" in="SourceGraphic" in2="effect1_dropShadow_1_56" result="shape"/>
</filter>
<linearGradient id="paint0_linear_1_50" x1="73.5" y1="0" x2="73.5" y2="56" gradientUnits="userSpaceOnUse">
<stop stop-color="#1A171B"/>
<stop offset="1" stop-color="#121013"/>
</linearGradient>
</defs>
</svg>
