<svg width="147" height="56" viewBox="0 0 147 56" fill="none" xmlns="http://www.w3.org/2000/svg">
<rect width="147" height="56" rx="8" fill="url(#paint0_linear_1_50)"/>
<rect x="1.05" y="1.05" width="144.9" height="53.9" rx="6.95" stroke="white" stroke-opacity="0.15" stroke-width="2.1"/>
<g filter="url(#filter0_d_1_50)">
<path d="M32 48C43.0457 48 52 39.0457 52 28C52 16.9543 43.0457 8 32 8C20.9543 8 12 16.9543 12 28C12 39.0457 20.9543 48 32 48Z" fill="white"/>
<path d="M40.7439 15.4003C38.7127 15.4715 36.938 16.5915 35.6193 18.1404C34.1566 19.8388 33.1848 21.8544 32.4838 23.9105C31.2305 22.8832 30.2637 21.5537 28.2532 20.9738C26.6979 20.5271 25.0664 20.7109 23.5653 21.8294C22.8535 22.3609 22.3641 23.1639 22.1311 23.9184C21.5269 25.8805 22.7645 27.6267 23.3273 28.2543L24.5563 29.5695C24.8099 29.8282 25.4191 30.5021 25.122 31.4675C24.7992 32.5184 23.5339 33.1974 22.2351 32.7977C21.6552 32.6181 20.8216 32.1871 21.009 31.5801C21.0859 31.3307 21.264 31.1433 21.3602 30.9303C21.4478 30.7451 21.4892 30.6069 21.5155 30.5257C21.7528 29.7505 21.4286 28.7431 20.5993 28.4873C19.8249 28.2508 19.0341 28.4389 18.727 29.4342C18.3779 30.5677 18.9201 32.6203 21.8219 33.5158C25.2217 34.561 28.0979 32.7086 28.5054 30.2948C28.7626 28.783 28.0787 27.6587 26.8283 26.2132L25.8095 25.0868C25.1918 24.4691 24.9802 23.4182 25.6186 22.611C26.1579 21.9292 26.9252 21.6385 28.1841 21.9798C30.0201 22.4771 30.8387 23.7516 32.2038 24.7797C31.6402 26.6285 31.2712 28.4845 30.9384 30.1502L30.734 31.3899C29.7572 36.5096 29.0127 39.3202 27.0762 40.9339C26.6865 41.2125 26.128 41.6271 25.288 41.6563C24.847 41.6706 24.7052 41.3671 24.6981 41.2345C24.6881 40.9253 24.9496 40.7836 25.1227 40.6446C25.3813 40.5029 25.7724 40.2692 25.7461 39.5204C25.7169 38.6327 24.983 37.8646 23.9229 37.901C23.1271 37.9273 21.9166 38.6747 21.9622 40.0455C22.0093 41.459 23.3273 42.5198 25.315 42.4514C26.378 42.4165 28.7505 41.984 31.0881 39.2048C33.8089 36.018 34.5705 32.3652 35.1433 29.6921L35.7817 26.1633C36.1372 26.2053 36.5162 26.2345 36.9295 26.2438C40.3186 26.3165 42.0135 24.5603 42.0399 23.2836C42.0563 22.5105 41.5326 21.7504 40.7988 21.7675C40.2744 21.7824 39.6147 22.1315 39.4565 22.8568C39.3019 23.5693 40.5352 24.2119 39.5712 24.8367C38.8866 25.2806 37.659 25.5926 35.9306 25.339L36.2455 23.6013C36.886 20.3069 37.6783 16.2545 40.6798 16.1569C40.8985 16.1455 41.6993 16.1669 41.7179 16.6955C41.7229 16.8722 41.6794 16.9178 41.4728 17.3225C41.2612 17.6374 41.1821 17.906 41.1914 18.2152C41.2213 19.0559 41.8604 19.6087 42.7858 19.5759C44.0234 19.5353 44.3796 18.3306 44.3596 17.7107C44.3083 16.2538 42.7737 15.3347 40.7439 15.4003Z" fill="#1A171B"/>
</g>
<g filter="url(#filter1_d_1_50)">
<path d="M61.2784 24.5V12.8636H65.5398C66.3655 12.8636 67.0492 13 67.5909 13.2727C68.1326 13.5417 68.5379 13.9072 68.8068 14.3693C69.0757 14.8276 69.2102 15.3447 69.2102 15.9204C69.2102 16.4053 69.1212 16.8144 68.9432 17.1477C68.7651 17.4773 68.5265 17.7424 68.2273 17.9432C67.9318 18.1401 67.606 18.2841 67.25 18.375V18.4886C67.6363 18.5076 68.0132 18.6326 68.3807 18.8636C68.7519 19.0909 69.0587 19.4148 69.3011 19.8352C69.5435 20.2557 69.6648 20.767 69.6648 21.3693C69.6648 21.964 69.5246 22.4981 69.2443 22.9716C68.9678 23.4413 68.5398 23.8144 67.9602 24.0909C67.3807 24.3636 66.6401 24.5 65.7386 24.5H61.2784ZM63.0341 22.9943H65.5682C66.4091 22.9943 67.0113 22.8314 67.375 22.5057C67.7386 22.1799 67.9204 21.7727 67.9204 21.2841C67.9204 20.9167 67.8276 20.5795 67.642 20.2727C67.4564 19.9659 67.1913 19.7216 66.8466 19.5398C66.5057 19.3579 66.1004 19.267 65.6307 19.267H63.0341V22.9943ZM63.0341 17.8977H65.3863C65.7803 17.8977 66.1345 17.822 66.4488 17.6704C66.767 17.5189 67.0189 17.3068 67.2045 17.0341C67.3939 16.7576 67.4886 16.4318 67.4886 16.0568C67.4886 15.5758 67.3201 15.1723 66.9829 14.8466C66.6458 14.5208 66.1288 14.3579 65.4318 14.3579H63.0341V17.8977ZM77.1392 20.8807V15.7727H78.8437V24.5H77.1733V22.9886H77.0824C76.8816 23.4545 76.5596 23.8428 76.1165 24.1534C75.6771 24.4602 75.1297 24.6136 74.4744 24.6136C73.9138 24.6136 73.4176 24.4905 72.9858 24.2443C72.5577 23.9943 72.2206 23.625 71.9744 23.1364C71.732 22.6477 71.6108 22.0436 71.6108 21.3239V15.7727H73.3096V21.1193C73.3096 21.714 73.4744 22.1875 73.804 22.5398C74.1335 22.892 74.5615 23.0682 75.088 23.0682C75.4062 23.0682 75.7225 22.9886 76.0369 22.8295C76.3551 22.6704 76.6184 22.4299 76.8267 22.1079C77.0388 21.786 77.143 21.3769 77.1392 20.8807ZM81.1264 24.5V15.7727H82.8253V24.5H81.1264ZM81.9844 14.4261C81.6889 14.4261 81.4351 14.3276 81.223 14.1307C81.0147 13.9299 80.9105 13.6913 80.9105 13.4148C80.9105 13.1345 81.0147 12.8958 81.223 12.6989C81.4351 12.4981 81.6889 12.3977 81.9844 12.3977C82.2798 12.3977 82.5317 12.4981 82.74 12.6989C82.9522 12.8958 83.0582 13.1345 83.0582 13.4148C83.0582 13.6913 82.9522 13.9299 82.74 14.1307C82.5317 14.3276 82.2798 14.4261 81.9844 14.4261ZM86.8096 12.8636V24.5H85.1108V12.8636H86.8096ZM93.169 15.7727V17.1364H88.402V15.7727H93.169ZM89.6804 13.6818H91.3792V21.9375C91.3792 22.267 91.4285 22.5151 91.527 22.6818C91.6254 22.8447 91.7523 22.9564 91.9076 23.017C92.0667 23.0739 92.2391 23.1023 92.4247 23.1023C92.5611 23.1023 92.6804 23.0928 92.7826 23.0739C92.8849 23.0549 92.9645 23.0398 93.0213 23.0284L93.3281 24.4318C93.2296 24.4697 93.0895 24.5076 92.9076 24.5454C92.7258 24.5871 92.4986 24.6098 92.2258 24.6136C91.7789 24.6212 91.3622 24.5417 90.9758 24.375C90.5895 24.2083 90.277 23.9508 90.0383 23.6023C89.7997 23.2538 89.6804 22.8163 89.6804 22.2898V13.6818ZM101.175 24.5L98.6065 15.7727H100.362L102.072 22.1818H102.158L103.874 15.7727H105.629L107.334 22.1534H107.419L109.118 15.7727H110.874L108.311 24.5H106.578L104.805 18.1989H104.675L102.902 24.5H101.175ZM112.486 24.5V15.7727H114.185V24.5H112.486ZM113.344 14.4261C113.048 14.4261 112.794 14.3276 112.582 14.1307C112.374 13.9299 112.27 13.6913 112.27 13.4148C112.27 13.1345 112.374 12.8958 112.582 12.6989C112.794 12.4981 113.048 12.3977 113.344 12.3977C113.639 12.3977 113.891 12.4981 114.099 12.6989C114.312 12.8958 114.418 13.1345 114.418 13.4148C114.418 13.6913 114.312 13.9299 114.099 14.1307C113.891 14.3276 113.639 14.4261 113.344 14.4261ZM120.544 15.7727V17.1364H115.777V15.7727H120.544ZM117.055 13.6818H118.754V21.9375C118.754 22.267 118.803 22.5151 118.902 22.6818C119 22.8447 119.127 22.9564 119.283 23.017C119.442 23.0739 119.614 23.1023 119.8 23.1023C119.936 23.1023 120.055 23.0928 120.158 23.0739C120.26 23.0549 120.339 23.0398 120.396 23.0284L120.703 24.4318C120.605 24.4697 120.464 24.5076 120.283 24.5454C120.101 24.5871 119.874 24.6098 119.601 24.6136C119.154 24.6212 118.737 24.5417 118.351 24.375C117.964 24.2083 117.652 23.9508 117.413 23.6023C117.175 23.2538 117.055 22.8163 117.055 22.2898V13.6818ZM124.31 19.3182V24.5H122.611V12.8636H124.287V17.1932H124.395C124.599 16.7235 124.912 16.3504 125.332 16.0739C125.753 15.7973 126.302 15.6591 126.98 15.6591C127.579 15.6591 128.101 15.7822 128.548 16.0284C128.999 16.2746 129.348 16.642 129.594 17.1307C129.844 17.6155 129.969 18.2216 129.969 18.9489V24.5H128.27V19.1534C128.27 18.5133 128.105 18.017 127.776 17.6648C127.446 17.3087 126.988 17.1307 126.401 17.1307C125.999 17.1307 125.639 17.2159 125.321 17.3864C125.007 17.5568 124.758 17.8068 124.577 18.1364C124.399 18.4621 124.31 18.8561 124.31 19.3182Z" fill="#E8E8E8"/>
<path d="M67.6186 34.843C67.5783 34.4003 67.3992 34.0562 67.0813 33.8107C66.7674 33.5612 66.3186 33.4364 65.7351 33.4364C65.3487 33.4364 65.0267 33.4867 64.7692 33.5873C64.5116 33.688 64.3184 33.8268 64.1896 34.0039C64.0608 34.177 63.9944 34.3762 63.9904 34.6016C63.9823 34.7867 64.0186 34.9497 64.0991 35.0905C64.1836 35.2314 64.3043 35.3562 64.4613 35.4648C64.6223 35.5695 64.8154 35.662 65.0408 35.7425C65.2662 35.823 65.5198 35.8935 65.8015 35.9538L66.864 36.1953C67.4757 36.3281 68.015 36.5052 68.4819 36.7266C68.9528 36.9479 69.3472 37.2115 69.6651 37.5174C69.9871 37.8233 70.2306 38.1754 70.3956 38.5739C70.5606 38.9723 70.6451 39.419 70.6491 39.9141C70.6451 40.6948 70.4479 41.3649 70.0575 41.9243C69.6671 42.4838 69.1057 42.9124 68.3732 43.2102C67.6448 43.508 66.7654 43.6569 65.7351 43.6569C64.7007 43.6569 63.7992 43.502 63.0305 43.1921C62.2618 42.8822 61.6642 42.4113 61.2376 41.7795C60.8109 41.1476 60.5916 40.3487 60.5795 39.3828H63.441C63.4652 39.7812 63.5718 40.1133 63.761 40.3789C63.9501 40.6445 64.2097 40.8458 64.5398 40.9826C64.8738 41.1194 65.2602 41.1878 65.6988 41.1878C66.1013 41.1878 66.4434 41.1335 66.7251 41.0248C67.0109 40.9162 67.2302 40.7653 67.3832 40.5721C67.5361 40.3789 67.6146 40.1575 67.6186 39.908C67.6146 39.6746 67.5421 39.4754 67.4013 39.3104C67.2604 39.1413 67.0431 38.9964 66.7493 38.8757C66.4595 38.7509 66.0892 38.6362 65.6385 38.5316L64.3466 38.2297C63.276 37.9842 62.4329 37.5878 61.8171 37.0405C61.2013 36.4891 60.8955 35.7445 60.8995 34.8068C60.8955 34.0421 61.1007 33.372 61.5153 32.7965C61.9298 32.221 62.5033 31.7722 63.2358 31.4503C63.9683 31.1283 64.8034 30.9673 65.7411 30.9673C66.699 30.9673 67.53 31.1303 68.2344 31.4563C68.9427 31.7783 69.4921 32.2311 69.8824 32.8146C70.2728 33.3982 70.472 34.0743 70.4801 34.843H67.6186ZM73.9634 46.9773C73.6092 46.9773 73.2752 46.9491 72.9613 46.8927C72.6474 46.8404 72.3777 46.77 72.1523 46.6815L72.8043 44.5383C73.0941 44.6349 73.3557 44.6913 73.5891 44.7074C73.8266 44.7235 74.0298 44.6852 74.1988 44.5927C74.3719 44.5041 74.5047 44.3452 74.5973 44.1158L74.712 43.8381L71.4158 34.2273H74.5067L76.2152 40.8437H76.3118L78.0444 34.2273H81.1534L77.658 44.3874C77.489 44.8945 77.2495 45.3413 76.9396 45.7276C76.6337 46.118 76.2373 46.4239 75.7503 46.6452C75.2674 46.8666 74.6717 46.9773 73.9634 46.9773ZM82.2853 43.5V34.2273H85.0925V35.9297H85.1951C85.3883 35.3662 85.7143 34.9215 86.1731 34.5955C86.6319 34.2695 87.1792 34.1065 87.8151 34.1065C88.4591 34.1065 89.0105 34.2715 89.4693 34.6016C89.9281 34.9316 90.2199 35.3743 90.3446 35.9297H90.4412C90.6143 35.3783 90.9523 34.9376 91.4554 34.6076C91.9585 34.2735 92.5521 34.1065 93.2363 34.1065C94.1137 34.1065 94.826 34.3882 95.3734 34.9517C95.9207 35.5111 96.1944 36.2798 96.1944 37.2578V43.5H93.2423V37.9339C93.2423 37.4711 93.1236 37.119 92.8862 36.8775C92.6487 36.632 92.3408 36.5092 91.9625 36.5092C91.556 36.5092 91.2361 36.642 91.0026 36.9077C90.7732 37.1693 90.6585 37.5214 90.6585 37.9641V43.5H87.8212V37.9038C87.8212 37.4731 87.7045 37.133 87.471 36.8835C87.2376 36.634 86.9297 36.5092 86.5474 36.5092C86.2898 36.5092 86.0624 36.5716 85.8652 36.6964C85.668 36.8171 85.5131 36.9902 85.4004 37.2155C85.2917 37.4409 85.2374 37.7065 85.2374 38.0124V43.5H82.2853ZM103.294 34.2273V36.4006H97.3293V34.2273H103.294ZM98.5729 43.5V33.7564C98.5729 33.04 98.7078 32.4464 98.9774 31.9755C99.2471 31.5006 99.6214 31.1464 100.1 30.913C100.579 30.6755 101.133 30.5568 101.76 30.5568C102.171 30.5568 102.557 30.589 102.92 30.6534C103.286 30.7138 103.557 30.7681 103.735 30.8164L103.264 32.9776C103.155 32.9414 103.022 32.9112 102.865 32.8871C102.712 32.8629 102.567 32.8508 102.431 32.8508C102.084 32.8508 101.847 32.9273 101.718 33.0802C101.589 33.2332 101.525 33.4425 101.525 33.7081V43.5H98.5729ZM108.744 43.6751C107.77 43.6751 106.933 43.4758 106.232 43.0774C105.536 42.6749 104.999 42.1155 104.62 41.3991C104.246 40.6787 104.059 39.8436 104.059 38.8938C104.059 37.94 104.246 37.1049 104.62 36.3885C104.999 35.6681 105.536 35.1087 106.232 34.7102C106.933 34.3078 107.77 34.1065 108.744 34.1065C109.718 34.1065 110.553 34.3078 111.249 34.7102C111.949 35.1087 112.487 35.6681 112.861 36.3885C113.239 37.1049 113.428 37.94 113.428 38.8938C113.428 39.8436 113.239 40.6787 112.861 41.3991C112.487 42.1155 111.949 42.6749 111.249 43.0774C110.553 43.4758 109.718 43.6751 108.744 43.6751ZM108.762 41.4474C109.116 41.4474 109.416 41.3388 109.661 41.1214C109.907 40.9041 110.094 40.6023 110.223 40.2159C110.356 39.8295 110.422 39.3828 110.422 38.8757C110.422 38.3605 110.356 37.9098 110.223 37.5234C110.094 37.1371 109.907 36.8352 109.661 36.6179C109.416 36.4006 109.116 36.2919 108.762 36.2919C108.396 36.2919 108.086 36.4006 107.832 36.6179C107.583 36.8352 107.391 37.1371 107.259 37.5234C107.13 37.9098 107.065 38.3605 107.065 38.8757C107.065 39.3828 107.13 39.8295 107.259 40.2159C107.391 40.6023 107.583 40.9041 107.832 41.1214C108.086 41.3388 108.396 41.4474 108.762 41.4474ZM117.893 38.2116V43.5H114.941V34.2273H117.748V35.9297H117.85C118.056 35.3622 118.406 34.9175 118.901 34.5955C119.396 34.2695 119.985 34.1065 120.67 34.1065C121.322 34.1065 121.887 34.2534 122.366 34.5472C122.849 34.837 123.223 35.2435 123.489 35.7667C123.759 36.2859 123.891 36.8936 123.887 37.5898V43.5H120.935V38.1694C120.939 37.6542 120.808 37.2518 120.543 36.962C120.281 36.6722 119.917 36.5273 119.45 36.5273C119.14 36.5273 118.867 36.5958 118.629 36.7326C118.396 36.8654 118.215 37.0566 118.086 37.3061C117.961 37.5556 117.897 37.8575 117.893 38.2116ZM127.188 46.9773C126.834 46.9773 126.5 46.9491 126.186 46.8927C125.872 46.8404 125.602 46.77 125.377 46.6815L126.029 44.5383C126.319 44.6349 126.58 44.6913 126.814 44.7074C127.051 44.7235 127.254 44.6852 127.423 44.5927C127.596 44.5041 127.729 44.3452 127.822 44.1158L127.937 43.8381L124.64 34.2273H127.731L129.44 40.8437H129.536L131.269 34.2273H134.378L130.883 44.3874C130.714 44.8945 130.474 45.3413 130.164 45.7276C129.858 46.118 129.462 46.4239 128.975 46.6452C128.492 46.8666 127.896 46.9773 127.188 46.9773Z" fill="white"/>
</g>
<defs>
<filter id="filter0_d_1_50" x="6.28571" y="2.28571" width="51.4286" height="51.4286" filterUnits="userSpaceOnUse" color-interpolation-filters="sRGB">
<feFlood flood-opacity="0" result="BackgroundImageFix"/>
<feColorMatrix in="SourceAlpha" type="matrix" values="0 0 0 0 0 0 0 0 0 0 0 0 0 0 0 0 0 0 127 0" result="hardAlpha"/>
<feOffset/>
<feGaussianBlur stdDeviation="2.85714"/>
<feComposite in2="hardAlpha" operator="out"/>
<feColorMatrix type="matrix" values="0 0 0 0 0 0 0 0 0 0 0 0 0 0 0 0 0 0 0.25 0"/>
<feBlend mode="normal" in2="BackgroundImageFix" result="effect1_dropShadow_1_50"/>
<feBlend mode="normal" in="SourceGraphic" in2="effect1_dropShadow_1_50" result="shape"/>
</filter>
<filter id="filter1_d_1_50" x="54.4" y="3.9" width="86.2" height="48.6773" filterUnits="userSpaceOnUse" color-interpolation-filters="sRGB">
<feFlood flood-opacity="0" result="BackgroundImageFix"/>
<feColorMatrix in="SourceAlpha" type="matrix" values="0 0 0 0 0 0 0 0 0 0 0 0 0 0 0 0 0 0 127 0" result="hardAlpha"/>
<feOffset/>
<feGaussianBlur stdDeviation="2.8"/>
<feComposite in2="hardAlpha" operator="out"/>
<feColorMatrix type="matrix" values="0 0 0 0 0 0 0 0 0 0 0 0 0 0 0 0 0 0 0.25 0"/>
<feBlend mode="normal" in2="BackgroundImageFix" result="effect1_dropShadow_1_50"/>
<feBlend mode="normal" in="SourceGraphic" in2="effect1_dropShadow_1_50" result="shape"/>
</filter>
<linearGradient id="paint0_linear_1_50" x1="73.5" y1="0" x2="73.5" y2="56" gradientUnits="userSpaceOnUse">
<stop stop-color="#1A171B"/>
<stop offset="1" stop-color="#121013"/>
</linearGradient>
</defs>
</svg>
