<svg width="56" height="56" viewBox="0 0 56 56" fill="none" xmlns="http://www.w3.org/2000/svg">
<rect width="56" height="56" rx="8.4" fill="url(#paint0_linear_1_62)"/>
<rect x="1.05" y="1.05" width="53.9" height="53.9" rx="7.35" stroke="white" stroke-opacity="0.15" stroke-width="2.1"/>
<g filter="url(#filter0_d_1_62)">
<path d="M28 48C39.0457 48 48 39.0457 48 28C48 16.9543 39.0457 8 28 8C16.9543 8 8 16.9543 8 28C8 39.0457 16.9543 48 28 48Z" fill="white"/>
<path d="M36.7439 15.4003C34.7127 15.4715 32.938 16.5915 31.6193 18.1404C30.1566 19.8388 29.1848 21.8544 28.4838 23.9105C27.2305 22.8832 26.2637 21.5537 24.2532 20.9738C22.6979 20.5271 21.0664 20.7109 19.5653 21.8294C18.8535 22.3609 18.3641 23.1639 18.1311 23.9184C17.5269 25.8805 18.7645 27.6267 19.3273 28.2543L20.5563 29.5695C20.8099 29.8282 21.4191 30.5021 21.122 31.4675C20.7992 32.5184 19.5339 33.1974 18.2351 32.7977C17.6552 32.6181 16.8216 32.1871 17.009 31.5801C17.0859 31.3307 17.264 31.1433 17.3602 30.9303C17.4478 30.7451 17.4892 30.6069 17.5155 30.5257C17.7528 29.7505 17.4286 28.7431 16.5993 28.4873C15.8249 28.2508 15.0341 28.4389 14.727 29.4342C14.3779 30.5677 14.9201 32.6203 17.8219 33.5158C21.2217 34.561 24.0979 32.7086 24.5054 30.2948C24.7626 28.783 24.0787 27.6587 22.8283 26.2132L21.8095 25.0868C21.1918 24.4691 20.9802 23.4182 21.6186 22.611C22.1579 21.9292 22.9252 21.6385 24.1841 21.9798C26.0201 22.4771 26.8387 23.7516 28.2038 24.7797C27.6402 26.6285 27.2712 28.4845 26.9384 30.1502L26.734 31.3899C25.7572 36.5096 25.0127 39.3202 23.0762 40.9339C22.6865 41.2125 22.128 41.6271 21.288 41.6563C20.847 41.6706 20.7052 41.3671 20.6981 41.2345C20.6881 40.9253 20.9496 40.7836 21.1227 40.6446C21.3813 40.5029 21.7724 40.2692 21.7461 39.5204C21.7169 38.6327 20.983 37.8646 19.9229 37.901C19.1271 37.9273 17.9166 38.6747 17.9622 40.0455C18.0093 41.459 19.3273 42.5198 21.315 42.4514C22.378 42.4165 24.7505 41.984 27.0881 39.2048C29.8089 36.018 30.5705 32.3652 31.1433 29.6921L31.7817 26.1633C32.1372 26.2053 32.5162 26.2345 32.9295 26.2438C36.3186 26.3165 38.0135 24.5603 38.0399 23.2836C38.0563 22.5105 37.5326 21.7504 36.7988 21.7675C36.2744 21.7824 35.6147 22.1315 35.4565 22.8568C35.3019 23.5693 36.5352 24.2119 35.5712 24.8367C34.8866 25.2806 33.659 25.5926 31.9306 25.339L32.2455 23.6013C32.886 20.3069 33.6783 16.2545 36.6798 16.1569C36.8985 16.1455 37.6993 16.1669 37.7179 16.6955C37.7229 16.8722 37.6794 16.9178 37.4728 17.3225C37.2612 17.6374 37.1821 17.906 37.1914 18.2152C37.2213 19.0559 37.8604 19.6087 38.7858 19.5759C40.0234 19.5353 40.3796 18.3306 40.3596 17.7107C40.3083 16.2538 38.7737 15.3347 36.7439 15.4003Z" fill="#1A171B"/>
</g>
<defs>
<filter id="filter0_d_1_62" x="2.28571" y="2.28571" width="51.4286" height="51.4286" filterUnits="userSpaceOnUse" color-interpolation-filters="sRGB">
<feFlood flood-opacity="0" result="BackgroundImageFix"/>
<feColorMatrix in="SourceAlpha" type="matrix" values="0 0 0 0 0 0 0 0 0 0 0 0 0 0 0 0 0 0 127 0" result="hardAlpha"/>
<feOffset/>
<feGaussianBlur stdDeviation="2.85714"/>
<feComposite in2="hardAlpha" operator="out"/>
<feColorMatrix type="matrix" values="0 0 0 0 0 0 0 0 0 0 0 0 0 0 0 0 0 0 0.25 0"/>
<feBlend mode="normal" in2="BackgroundImageFix" result="effect1_dropShadow_1_62"/>
<feBlend mode="normal" in="SourceGraphic" in2="effect1_dropShadow_1_62" result="shape"/>
</filter>
<linearGradient id="paint0_linear_1_62" x1="28" y1="0" x2="28" y2="56" gradientUnits="userSpaceOnUse">
<stop stop-color="#1A171B"/>
<stop offset="1" stop-color="#121013"/>
</linearGradient>
</defs>
</svg>
