<svg width="198" height="40" viewBox="0 0 198 40" fill="none" xmlns="http://www.w3.org/2000/svg">
<rect width="198.001" height="40.0014" rx="8" fill="url(#paint0_linear_1_56)"/>
<rect x="1.07143" y="1.07143" width="195.858" height="37.8585" rx="6.92857" stroke="white" stroke-opacity="0.15" stroke-width="2.14286"/>
<g filter="url(#filter0_d_1_56)">
<path d="M21.909 6L8.875 10.648L10.863 27.882L21.909 34L32.955 27.882L34.943 10.648L21.909 6Z" fill="#DD0031"/>
<path d="M21.909 6V9.108V9.094V23.276V34L32.955 27.882L34.943 10.648L21.909 6Z" fill="#C3002F"/>
<path d="M21.909 9.094L13.761 27.364H16.799L18.437 23.276H25.353L26.991 27.364H30.029L21.909 9.094ZM24.289 20.756H19.529L21.909 15.03L24.289 20.756Z" fill="white"/>
</g>
<g filter="url(#filter1_d_1_56)">
<path d="M43.3597 26.5007V14.1371H47.8874C48.7648 14.1371 49.4912 14.282 50.0667 14.5717C50.6423 14.8575 51.0729 15.2458 51.3586 15.7369C51.6444 16.2238 51.7873 16.7732 51.7873 17.3849C51.7873 17.9001 51.6927 18.3347 51.5035 18.6889C51.3144 19.0391 51.0608 19.3208 50.7429 19.5341C50.429 19.7434 50.0828 19.8963 49.7045 19.9929V20.1136C50.115 20.1337 50.5155 20.2666 50.9059 20.5121C51.3003 20.7535 51.6263 21.0976 51.8839 21.5444C52.1414 21.9911 52.2702 22.5344 52.2702 23.1743C52.2702 23.8062 52.1213 24.3737 51.8235 24.8768C51.5297 25.3758 51.0749 25.7722 50.4591 26.066C49.8434 26.3558 49.0566 26.5007 48.0987 26.5007H43.3597ZM45.2251 24.9009H47.9176C48.8111 24.9009 49.451 24.7279 49.8373 24.3817C50.2237 24.0356 50.4169 23.603 50.4169 23.0838C50.4169 22.6934 50.3183 22.3352 50.1211 22.0092C49.9239 21.6832 49.6421 21.4236 49.2759 21.2305C48.9137 21.0373 48.483 20.9407 47.984 20.9407H45.2251V24.9009ZM45.2251 19.4858H47.7244C48.143 19.4858 48.5193 19.4053 48.8533 19.2443C49.1914 19.0833 49.459 18.8579 49.6562 18.5682C49.8575 18.2744 49.9581 17.9283 49.9581 17.5298C49.9581 17.0187 49.779 16.5901 49.4208 16.244C49.0626 15.8978 48.5132 15.7248 47.7727 15.7248H45.2251V19.4858ZM60.2118 22.6552V17.228H62.0229V26.5007H60.248V24.8949H60.1514C59.9381 25.3899 59.596 25.8024 59.1251 26.1324C58.6583 26.4584 58.0767 26.6214 57.3805 26.6214C56.7848 26.6214 56.2576 26.4906 55.7988 26.229C55.344 25.9634 54.9858 25.571 54.7242 25.0518C54.4667 24.5327 54.3379 23.8907 54.3379 23.1261V17.228H56.1429V22.9087C56.1429 23.5406 56.318 24.0437 56.6681 24.418C57.0183 24.7922 57.473 24.9794 58.0325 24.9794C58.3705 24.9794 58.7066 24.8949 59.0406 24.7258C59.3787 24.5568 59.6584 24.3012 59.8798 23.9591C60.1051 23.6171 60.2158 23.1824 60.2118 22.6552ZM64.4482 26.5007V17.228H66.2533V26.5007H64.4482ZM65.3598 15.7972C65.0459 15.7972 64.7762 15.6926 64.5508 15.4833C64.3295 15.27 64.2188 15.0164 64.2188 14.7226C64.2188 14.4248 64.3295 14.1713 64.5508 13.962C64.7762 13.7487 65.0459 13.642 65.3598 13.642C65.6737 13.642 65.9413 13.7487 66.1627 13.962C66.3881 14.1713 66.5008 14.4248 66.5008 14.7226C66.5008 15.0164 66.3881 15.27 66.1627 15.4833C65.9413 15.6926 65.6737 15.7972 65.3598 15.7972ZM70.4867 14.1371V26.5007H68.6816V14.1371H70.4867ZM77.2435 17.228V18.6768H72.1785V17.228H77.2435ZM73.5368 15.0064H75.3419V23.778C75.3419 24.1282 75.3942 24.3918 75.4988 24.5689C75.6035 24.7419 75.7383 24.8607 75.9033 24.9251C76.0723 24.9854 76.2554 25.0156 76.4526 25.0156C76.5975 25.0156 76.7243 25.0056 76.833 24.9854C76.9416 24.9653 77.0262 24.9492 77.0865 24.9371L77.4125 26.4283C77.3079 26.4685 77.159 26.5087 76.9658 26.549C76.7726 26.5933 76.5311 26.6174 76.2414 26.6214C75.7664 26.6295 75.3237 26.545 74.9132 26.3679C74.5027 26.1908 74.1707 25.9171 73.9171 25.5469C73.6636 25.1766 73.5368 24.7118 73.5368 24.1523V15.0064ZM85.7495 26.5007L83.0208 17.228H84.8862L86.7034 24.0376H86.7939L88.6171 17.228H90.4825L92.2936 24.0074H92.3841L94.1891 17.228H96.0546L93.3319 26.5007H91.4906L89.6071 19.8057H89.4683L87.5847 26.5007H85.7495ZM97.7675 26.5007V17.228H99.5726V26.5007H97.7675ZM98.6791 15.7972C98.3652 15.7972 98.0955 15.6926 97.8702 15.4833C97.6488 15.27 97.5381 15.0164 97.5381 14.7226C97.5381 14.4248 97.6488 14.1713 97.8702 13.962C98.0955 13.7487 98.3652 13.642 98.6791 13.642C98.993 13.642 99.2607 13.7487 99.482 13.962C99.7074 14.1713 99.8201 14.4248 99.8201 14.7226C99.8201 15.0164 99.7074 15.27 99.482 15.4833C99.2607 15.6926 98.993 15.7972 98.6791 15.7972ZM106.329 17.228V18.6768H101.264V17.228H106.329ZM102.623 15.0064H104.428V23.778C104.428 24.1282 104.48 24.3918 104.585 24.5689C104.689 24.7419 104.824 24.8607 104.989 24.9251C105.158 24.9854 105.341 25.0156 105.539 25.0156C105.683 25.0156 105.81 25.0056 105.919 24.9854C106.028 24.9653 106.112 24.9492 106.172 24.9371L106.498 26.4283C106.394 26.4685 106.245 26.5087 106.052 26.549C105.859 26.5933 105.617 26.6174 105.327 26.6214C104.852 26.6295 104.41 26.545 103.999 26.3679C103.589 26.1908 103.257 25.9171 103.003 25.5469C102.75 25.1766 102.623 24.7118 102.623 24.1523V15.0064ZM110.33 20.995V26.5007H108.525V14.1371H110.306V18.7372H110.421C110.638 18.2382 110.97 17.8417 111.417 17.5479C111.864 17.2541 112.447 17.1072 113.168 17.1072C113.804 17.1072 114.359 17.238 114.834 17.4996C115.313 17.7612 115.683 18.1516 115.945 18.6708C116.21 19.1859 116.343 19.8299 116.343 20.6026V26.5007H114.538V20.8199C114.538 20.1398 114.363 19.6126 114.013 19.2383C113.663 18.86 113.176 18.6708 112.552 18.6708C112.125 18.6708 111.743 18.7614 111.405 18.9425C111.071 19.1236 110.807 19.3892 110.614 19.7393C110.425 20.0855 110.33 20.504 110.33 20.995Z" fill="#E8E8E8"/>
<path d="M125.611 26.0007H122.4L126.571 13.6371H130.55L134.721 26.0007H131.51L128.606 16.7521H128.509L125.611 26.0007ZM125.183 21.1349H131.896V23.4048H125.183V21.1349ZM139.004 20.7123V26.0007H136.052V16.728H138.86V18.4304H138.962C139.167 17.8629 139.518 17.4182 140.013 17.0962C140.508 16.7702 141.097 16.6072 141.781 16.6072C142.433 16.6072 142.999 16.7541 143.478 17.0479C143.961 17.3377 144.335 17.7442 144.601 18.2674C144.87 18.7866 145.003 19.3943 144.999 20.0905V26.0007H142.047V20.6701C142.051 20.1549 141.92 19.7525 141.655 19.4627C141.393 19.1729 141.029 19.028 140.562 19.028C140.252 19.028 139.978 19.0965 139.741 19.2333C139.507 19.3661 139.326 19.5573 139.198 19.8068C139.073 20.0563 139.008 20.3582 139.004 20.7123ZM151.149 29.6712C150.268 29.6712 149.513 29.5484 148.885 29.3029C148.257 29.0574 147.764 28.7213 147.406 28.2947C147.048 27.8681 146.833 27.3852 146.76 26.8459L149.555 26.6889C149.608 26.8781 149.704 27.0431 149.845 27.1839C149.99 27.3248 150.177 27.4335 150.407 27.5099C150.64 27.5864 150.914 27.6246 151.228 27.6246C151.723 27.6246 152.131 27.5039 152.453 27.2624C152.779 27.025 152.942 26.6084 152.942 26.0128V24.3828H152.84C152.723 24.6685 152.546 24.9241 152.308 25.1495C152.071 25.3749 151.775 25.552 151.421 25.6807C151.071 25.8095 150.668 25.8739 150.213 25.8739C149.537 25.8739 148.918 25.717 148.354 25.403C147.795 25.0851 147.346 24.5941 147.008 23.93C146.674 23.2619 146.507 22.4027 146.507 21.3523C146.507 20.2696 146.68 19.3782 147.026 18.6779C147.372 17.9736 147.825 17.4524 148.384 17.1143C148.948 16.7763 149.553 16.6072 150.201 16.6072C150.688 16.6072 151.105 16.6918 151.451 16.8608C151.801 17.0258 152.089 17.2391 152.314 17.5007C152.54 17.7623 152.711 18.034 152.827 18.3157H152.912V16.728H155.852V26.0369C155.852 26.8217 155.655 27.4838 155.26 28.0231C154.866 28.5624 154.315 28.9709 153.606 29.2486C152.898 29.5303 152.079 29.6712 151.149 29.6712ZM151.24 23.7248C151.598 23.7248 151.904 23.6302 152.157 23.441C152.411 23.2519 152.606 22.9802 152.743 22.6261C152.88 22.2719 152.948 21.8473 152.948 21.3523C152.948 20.8492 152.88 20.4165 152.743 20.0543C152.61 19.6881 152.415 19.4064 152.157 19.2092C151.904 19.0119 151.598 18.9133 151.24 18.9133C150.873 18.9133 150.564 19.014 150.31 19.2152C150.056 19.4164 149.863 19.7002 149.731 20.0664C149.602 20.4286 149.537 20.8572 149.537 21.3523C149.537 21.8473 149.604 22.2719 149.737 22.6261C149.869 22.9802 150.061 23.2519 150.31 23.441C150.564 23.6302 150.873 23.7248 151.24 23.7248ZM163.717 21.9982V16.728H166.663V26.0007H163.849V24.2741H163.753C163.548 24.8416 163.197 25.2924 162.702 25.6264C162.211 25.9564 161.618 26.1214 160.921 26.1214C160.29 26.1214 159.734 25.9765 159.255 25.6868C158.776 25.397 158.404 24.9925 158.138 24.4734C157.873 23.9502 157.738 23.3384 157.734 22.6381V16.728H160.686V22.0586C160.69 22.5617 160.823 22.9581 161.084 23.2479C161.346 23.5376 161.702 23.6825 162.153 23.6825C162.447 23.6825 162.71 23.6181 162.944 23.4893C163.181 23.3565 163.368 23.1654 163.505 22.9158C163.646 22.6623 163.717 22.3564 163.717 21.9982ZM171.494 13.6371V26.0007H168.542V13.6371H171.494ZM175.987 26.1577C175.395 26.1577 174.87 26.0591 174.411 25.8618C173.956 25.6606 173.596 25.3588 173.33 24.9563C173.069 24.5498 172.938 24.0407 172.938 23.429C172.938 22.9138 173.029 22.4792 173.21 22.125C173.391 21.7708 173.64 21.4831 173.958 21.2617C174.276 21.0404 174.642 20.8733 175.057 20.7606C175.471 20.6439 175.914 20.5654 176.385 20.5252C176.912 20.4769 177.337 20.4266 177.659 20.3743C177.981 20.3179 178.214 20.2395 178.359 20.1388C178.508 20.0342 178.582 19.8873 178.582 19.6981V19.668C178.582 19.3581 178.476 19.1186 178.263 18.9496C178.049 18.7805 177.761 18.696 177.399 18.696C177.009 18.696 176.695 18.7805 176.458 18.9496C176.22 19.1186 176.069 19.352 176.005 19.6498L173.282 19.5533C173.363 18.9898 173.57 18.4867 173.904 18.044C174.242 17.5973 174.705 17.2471 175.292 16.9936C175.884 16.736 176.594 16.6072 177.423 16.6072C178.015 16.6072 178.56 16.6777 179.059 16.8185C179.558 16.9554 179.993 17.1566 180.363 17.4222C180.734 17.6838 181.019 18.0058 181.221 18.3881C181.426 18.7705 181.529 19.2071 181.529 19.6981V26.0007H178.752V24.7088H178.679C178.514 25.0227 178.303 25.2883 178.045 25.5057C177.792 25.723 177.492 25.886 177.146 25.9947C176.804 26.1033 176.417 26.1577 175.987 26.1577ZM176.898 24.2258C177.216 24.2258 177.502 24.1614 177.755 24.0327C178.013 23.9039 178.218 23.7268 178.371 23.5014C178.524 23.272 178.601 23.0064 178.601 22.7045V21.8231C178.516 21.8674 178.413 21.9077 178.293 21.9439C178.176 21.9801 178.047 22.0143 177.906 22.0465C177.766 22.0787 177.621 22.1069 177.472 22.131C177.323 22.1552 177.18 22.1773 177.043 22.1974C176.765 22.2417 176.528 22.3101 176.331 22.4027C176.138 22.4953 175.989 22.616 175.884 22.7649C175.783 22.9098 175.733 23.0828 175.733 23.2841C175.733 23.59 175.842 23.8234 176.059 23.9844C176.28 24.1453 176.56 24.2258 176.898 24.2258ZM183.334 26.0007V16.728H186.201V18.4183H186.298C186.467 17.8066 186.742 17.3518 187.125 17.054C187.507 16.7521 187.952 16.6012 188.459 16.6012C188.596 16.6012 188.737 16.6113 188.882 16.6314C189.026 16.6475 189.161 16.6736 189.286 16.7099V19.2756C189.145 19.2273 188.96 19.189 188.731 19.1609C188.505 19.1327 188.304 19.1186 188.127 19.1186C187.777 19.1186 187.461 19.1971 187.179 19.354C186.901 19.507 186.682 19.7223 186.521 20C186.364 20.2737 186.286 20.5956 186.286 20.9659V26.0007H183.334Z" fill="#DD0031"/>
</g>
<defs>
<filter id="filter0_d_1_56" x="2.39972" y="0.39972" width="39.202" height="39.202" filterUnits="userSpaceOnUse" color-interpolation-filters="sRGB">
<feFlood flood-opacity="0" result="BackgroundImageFix"/>
<feColorMatrix in="SourceAlpha" type="matrix" values="0 0 0 0 0 0 0 0 0 0 0 0 0 0 0 0 0 0 127 0" result="hardAlpha"/>
<feOffset/>
<feGaussianBlur stdDeviation="2.80014"/>
<feComposite in2="hardAlpha" operator="out"/>
<feColorMatrix type="matrix" values="0 0 0 0 0 0 0 0 0 0 0 0 0 0 0 0 0 0 0.25 0"/>
<feBlend mode="normal" in2="BackgroundImageFix" result="effect1_dropShadow_1_56"/>
<feBlend mode="normal" in="SourceGraphic" in2="effect1_dropShadow_1_56" result="shape"/>
</filter>
<filter id="filter1_d_1_56" x="36.2871" y="3.78642" width="159.429" height="32.4286" filterUnits="userSpaceOnUse" color-interpolation-filters="sRGB">
<feFlood flood-opacity="0" result="BackgroundImageFix"/>
<feColorMatrix in="SourceAlpha" type="matrix" values="0 0 0 0 0 0 0 0 0 0 0 0 0 0 0 0 0 0 127 0" result="hardAlpha"/>
<feOffset/>
<feGaussianBlur stdDeviation="2.85714"/>
<feComposite in2="hardAlpha" operator="out"/>
<feColorMatrix type="matrix" values="0 0 0 0 0 0 0 0 0 0 0 0 0 0 0 0 0 0 0.25 0"/>
<feBlend mode="normal" in2="BackgroundImageFix" result="effect1_dropShadow_1_56"/>
<feBlend mode="normal" in="SourceGraphic" in2="effect1_dropShadow_1_56" result="shape"/>
</filter>
<linearGradient id="paint0_linear_1_56" x1="99.0007" y1="0" x2="99.0007" y2="40.0014" gradientUnits="userSpaceOnUse">
<stop stop-color="#85001D"/>
<stop offset="1" stop-color="#42000F"/>
</linearGradient>
</defs>
</svg>
