<svg width="144" height="56" viewBox="0 0 144 56" fill="none" xmlns="http://www.w3.org/2000/svg">
<rect width="144" height="56" rx="8" fill="url(#paint0_linear_1_50)"/>
<rect x="1.05" y="1.05" width="141.9" height="53.9" rx="6.95" stroke="white" stroke-opacity="0.15" stroke-width="2.1"/>
<g filter="url(#filter0_d_1_50)">
<path d="M31.87 8L13.25 14.64L16.09 39.26L31.87 48L47.65 39.26L50.49 14.64L31.87 8Z" fill="#DD0031"/>
<path d="M31.87 8V12.44V12.42V32.68V48L47.65 39.26L50.49 14.64L31.87 8Z" fill="#C3002F"/>
<path d="M31.87 12.42L20.23 38.52H24.57L26.91 32.68H36.79L39.13 38.52H43.47L31.87 12.42ZM35.27 29.08H28.47L31.87 20.9L35.27 29.08Z" fill="white"/>
</g>
<g filter="url(#filter1_d_1_50)">
<path d="M61.2784 24.5V12.8636H65.5398C66.3655 12.8636 67.0492 13 67.5909 13.2727C68.1326 13.5417 68.5379 13.9072 68.8068 14.3693C69.0757 14.8276 69.2102 15.3447 69.2102 15.9204C69.2102 16.4053 69.1212 16.8144 68.9432 17.1477C68.7651 17.4773 68.5265 17.7424 68.2273 17.9432C67.9318 18.1401 67.606 18.2841 67.25 18.375V18.4886C67.6363 18.5076 68.0132 18.6326 68.3807 18.8636C68.7519 19.0909 69.0587 19.4148 69.3011 19.8352C69.5435 20.2557 69.6648 20.767 69.6648 21.3693C69.6648 21.964 69.5246 22.4981 69.2443 22.9716C68.9678 23.4413 68.5398 23.8144 67.9602 24.0909C67.3807 24.3636 66.6401 24.5 65.7386 24.5H61.2784ZM63.0341 22.9943H65.5682C66.4091 22.9943 67.0113 22.8314 67.375 22.5057C67.7386 22.1799 67.9204 21.7727 67.9204 21.2841C67.9204 20.9167 67.8276 20.5795 67.642 20.2727C67.4564 19.9659 67.1913 19.7216 66.8466 19.5398C66.5057 19.3579 66.1004 19.267 65.6307 19.267H63.0341V22.9943ZM63.0341 17.8977H65.3863C65.7803 17.8977 66.1345 17.822 66.4488 17.6704C66.767 17.5189 67.0189 17.3068 67.2045 17.0341C67.3939 16.7576 67.4886 16.4318 67.4886 16.0568C67.4886 15.5758 67.3201 15.1723 66.9829 14.8466C66.6458 14.5208 66.1288 14.3579 65.4318 14.3579H63.0341V17.8977ZM77.1392 20.8807V15.7727H78.8437V24.5H77.1733V22.9886H77.0824C76.8816 23.4545 76.5596 23.8428 76.1165 24.1534C75.6771 24.4602 75.1297 24.6136 74.4744 24.6136C73.9138 24.6136 73.4176 24.4905 72.9858 24.2443C72.5577 23.9943 72.2206 23.625 71.9744 23.1364C71.732 22.6477 71.6108 22.0436 71.6108 21.3239V15.7727H73.3096V21.1193C73.3096 21.714 73.4744 22.1875 73.804 22.5398C74.1335 22.892 74.5615 23.0682 75.088 23.0682C75.4062 23.0682 75.7225 22.9886 76.0369 22.8295C76.3551 22.6704 76.6184 22.4299 76.8267 22.1079C77.0388 21.786 77.143 21.3769 77.1392 20.8807ZM81.1264 24.5V15.7727H82.8253V24.5H81.1264ZM81.9844 14.4261C81.6889 14.4261 81.4351 14.3276 81.223 14.1307C81.0147 13.9299 80.9105 13.6913 80.9105 13.4148C80.9105 13.1345 81.0147 12.8958 81.223 12.6989C81.4351 12.4981 81.6889 12.3977 81.9844 12.3977C82.2798 12.3977 82.5317 12.4981 82.74 12.6989C82.9522 12.8958 83.0582 13.1345 83.0582 13.4148C83.0582 13.6913 82.9522 13.9299 82.74 14.1307C82.5317 14.3276 82.2798 14.4261 81.9844 14.4261ZM86.8096 12.8636V24.5H85.1108V12.8636H86.8096ZM93.169 15.7727V17.1364H88.402V15.7727H93.169ZM89.6804 13.6818H91.3792V21.9375C91.3792 22.267 91.4285 22.5151 91.527 22.6818C91.6254 22.8447 91.7523 22.9564 91.9076 23.017C92.0667 23.0739 92.2391 23.1023 92.4247 23.1023C92.5611 23.1023 92.6804 23.0928 92.7826 23.0739C92.8849 23.0549 92.9645 23.0398 93.0213 23.0284L93.3281 24.4318C93.2296 24.4697 93.0895 24.5076 92.9076 24.5454C92.7258 24.5871 92.4986 24.6098 92.2258 24.6136C91.7789 24.6212 91.3622 24.5417 90.9758 24.375C90.5895 24.2083 90.277 23.9508 90.0383 23.6023C89.7997 23.2538 89.6804 22.8163 89.6804 22.2898V13.6818ZM101.175 24.5L98.6065 15.7727H100.362L102.072 22.1818H102.158L103.874 15.7727H105.629L107.334 22.1534H107.419L109.118 15.7727H110.874L108.311 24.5H106.578L104.805 18.1989H104.675L102.902 24.5H101.175ZM112.486 24.5V15.7727H114.185V24.5H112.486ZM113.344 14.4261C113.048 14.4261 112.794 14.3276 112.582 14.1307C112.374 13.9299 112.27 13.6913 112.27 13.4148C112.27 13.1345 112.374 12.8958 112.582 12.6989C112.794 12.4981 113.048 12.3977 113.344 12.3977C113.639 12.3977 113.891 12.4981 114.099 12.6989C114.312 12.8958 114.418 13.1345 114.418 13.4148C114.418 13.6913 114.312 13.9299 114.099 14.1307C113.891 14.3276 113.639 14.4261 113.344 14.4261ZM120.544 15.7727V17.1364H115.777V15.7727H120.544ZM117.055 13.6818H118.754V21.9375C118.754 22.267 118.803 22.5151 118.902 22.6818C119 22.8447 119.127 22.9564 119.283 23.017C119.442 23.0739 119.614 23.1023 119.8 23.1023C119.936 23.1023 120.055 23.0928 120.158 23.0739C120.26 23.0549 120.339 23.0398 120.396 23.0284L120.703 24.4318C120.605 24.4697 120.464 24.5076 120.283 24.5454C120.101 24.5871 119.874 24.6098 119.601 24.6136C119.154 24.6212 118.737 24.5417 118.351 24.375C117.964 24.2083 117.652 23.9508 117.413 23.6023C117.175 23.2538 117.055 22.8163 117.055 22.2898V13.6818ZM124.31 19.3182V24.5H122.611V12.8636H124.287V17.1932H124.395C124.599 16.7235 124.912 16.3504 125.332 16.0739C125.753 15.7973 126.302 15.6591 126.98 15.6591C127.579 15.6591 128.101 15.7822 128.548 16.0284C128.999 16.2746 129.348 16.642 129.594 17.1307C129.844 17.6155 129.969 18.2216 129.969 18.9489V24.5H128.27V19.1534C128.27 18.5133 128.105 18.017 127.776 17.6648C127.446 17.3087 126.988 17.1307 126.401 17.1307C125.999 17.1307 125.639 17.2159 125.321 17.3864C125.007 17.5568 124.758 17.8068 124.577 18.1364C124.399 18.4621 124.31 18.8561 124.31 19.3182Z" fill="#E8E8E8"/>
<path d="M63.6101 43.5H60.3984L64.5699 31.1364H68.5483L72.7198 43.5H69.5081L66.6044 34.2514H66.5078L63.6101 43.5ZM63.1814 38.6342H69.8945V40.9041H63.1814V38.6342ZM77.003 38.2116V43.5H74.0509V34.2273H76.8581V35.9297H76.9607C77.166 35.3622 77.5161 34.9175 78.0112 34.5955C78.5062 34.2695 79.0958 34.1065 79.78 34.1065C80.432 34.1065 80.9974 34.2534 81.4764 34.5472C81.9593 34.837 82.3336 35.2435 82.5992 35.7667C82.8689 36.2859 83.0017 36.8936 82.9977 37.5898V43.5H80.0456V38.1694C80.0496 37.6542 79.9188 37.2518 79.6532 36.962C79.3916 36.6722 79.0274 36.5273 78.5605 36.5273C78.2506 36.5273 77.977 36.5958 77.7395 36.7326C77.5061 36.8654 77.325 37.0566 77.1962 37.3061C77.0714 37.5556 77.007 37.8575 77.003 38.2116ZM89.1478 47.1704C88.2664 47.1704 87.5118 47.0477 86.8839 46.8022C86.2561 46.5567 85.7631 46.2206 85.4049 45.794C85.0467 45.3674 84.8314 44.8845 84.7589 44.3452L87.554 44.1882C87.6064 44.3774 87.703 44.5424 87.8438 44.6832C87.9887 44.8241 88.1758 44.9328 88.4052 45.0092C88.6387 45.0857 88.9124 45.1239 89.2263 45.1239C89.7213 45.1239 90.1298 45.0032 90.4518 44.7617C90.7778 44.5243 90.9408 44.1077 90.9408 43.5121V41.8821H90.8381C90.7214 42.1678 90.5443 42.4234 90.3069 42.6488C90.0694 42.8742 89.7736 43.0512 89.4195 43.18C89.0693 43.3088 88.6669 43.3732 88.2121 43.3732C87.5359 43.3732 86.9161 43.2163 86.3527 42.9023C85.7933 42.5844 85.3445 42.0934 85.0065 41.4293C84.6724 40.7612 84.5054 39.902 84.5054 38.8516C84.5054 37.7689 84.6785 36.8775 85.0246 36.1772C85.3707 35.4729 85.8235 34.9517 86.3829 34.6136C86.9463 34.2756 87.552 34.1065 88.2 34.1065C88.687 34.1065 89.1035 34.191 89.4496 34.3601C89.7998 34.5251 90.0875 34.7384 90.3129 35C90.5383 35.2616 90.7093 35.5333 90.8261 35.815H90.9106V34.2273H93.8506V43.5362C93.8506 44.321 93.6534 44.9831 93.2589 45.5224C92.8645 46.0617 92.3132 46.4702 91.6048 46.7479C90.8965 47.0296 90.0775 47.1704 89.1478 47.1704ZM89.2383 41.2241C89.5965 41.2241 89.9024 41.1295 90.156 40.9403C90.4095 40.7512 90.6047 40.4795 90.7415 40.1253C90.8784 39.7712 90.9468 39.3466 90.9468 38.8516C90.9468 38.3485 90.8784 37.9158 90.7415 37.5536C90.6087 37.1874 90.4135 36.9056 90.156 36.7084C89.9024 36.5112 89.5965 36.4126 89.2383 36.4126C88.8721 36.4126 88.5622 36.5132 88.3087 36.7145C88.0551 36.9157 87.8619 37.1994 87.7291 37.5657C87.6003 37.9279 87.5359 38.3565 87.5359 38.8516C87.5359 39.3466 87.6023 39.7712 87.7352 40.1253C87.868 40.4795 88.0591 40.7512 88.3087 40.9403C88.5622 41.1295 88.8721 41.2241 89.2383 41.2241ZM101.715 39.4975V34.2273H104.661V43.5H101.848V41.7734H101.751C101.546 42.3409 101.196 42.7917 100.701 43.1257C100.21 43.4557 99.6163 43.6207 98.9201 43.6207C98.2882 43.6207 97.7328 43.4758 97.2539 43.1861C96.775 42.8963 96.4027 42.4918 96.137 41.9726C95.8714 41.4494 95.7366 40.8377 95.7326 40.1374V34.2273H98.6846V39.5579C98.6887 40.061 98.8215 40.4574 99.0831 40.7471C99.3447 41.0369 99.7008 41.1818 100.152 41.1818C100.445 41.1818 100.709 41.1174 100.942 40.9886C101.18 40.8558 101.367 40.6646 101.504 40.4151C101.645 40.1616 101.715 39.8557 101.715 39.4975ZM109.492 31.1364V43.5H106.54V31.1364H109.492ZM113.985 43.6569C113.394 43.6569 112.868 43.5583 112.41 43.3611C111.955 43.1599 111.595 42.8581 111.329 42.4556C111.067 42.0491 110.937 41.54 110.937 40.9283C110.937 40.4131 111.027 39.9784 111.208 39.6243C111.389 39.2701 111.639 38.9824 111.957 38.761C112.275 38.5396 112.641 38.3726 113.056 38.2599C113.47 38.1432 113.913 38.0647 114.384 38.0245C114.911 37.9762 115.335 37.9259 115.657 37.8736C115.979 37.8172 116.213 37.7387 116.358 37.6381C116.507 37.5335 116.581 37.3866 116.581 37.1974V37.1672C116.581 36.8574 116.474 36.6179 116.261 36.4489C116.048 36.2798 115.76 36.1953 115.398 36.1953C115.007 36.1953 114.694 36.2798 114.456 36.4489C114.219 36.6179 114.068 36.8513 114.003 37.1491L111.281 37.0525C111.361 36.4891 111.568 35.986 111.902 35.5433C112.241 35.0966 112.703 34.7464 113.291 34.4929C113.883 34.2353 114.593 34.1065 115.422 34.1065C116.014 34.1065 116.559 34.177 117.058 34.3178C117.557 34.4547 117.992 34.6559 118.362 34.9215C118.732 35.1831 119.018 35.5051 119.219 35.8874C119.425 36.2698 119.527 36.7064 119.527 37.1974V43.5H116.75V42.2081H116.678C116.513 42.522 116.301 42.7876 116.044 43.005C115.79 43.2223 115.49 43.3853 115.144 43.494C114.802 43.6026 114.416 43.6569 113.985 43.6569ZM114.897 41.7251C115.215 41.7251 115.501 41.6607 115.754 41.5319C116.012 41.4032 116.217 41.2261 116.37 41.0007C116.523 40.7713 116.599 40.5057 116.599 40.2038V39.3224C116.515 39.3667 116.412 39.4069 116.291 39.4432C116.175 39.4794 116.046 39.5136 115.905 39.5458C115.764 39.578 115.619 39.6062 115.47 39.6303C115.321 39.6545 115.179 39.6766 115.042 39.6967C114.764 39.741 114.527 39.8094 114.329 39.902C114.136 39.9945 113.987 40.1153 113.883 40.2642C113.782 40.4091 113.732 40.5821 113.732 40.7834C113.732 41.0892 113.84 41.3227 114.058 41.4837C114.279 41.6446 114.559 41.7251 114.897 41.7251ZM121.332 43.5V34.2273H124.2V35.9176H124.296C124.465 35.3059 124.741 34.8511 125.123 34.5533C125.506 34.2514 125.95 34.1005 126.458 34.1005C126.594 34.1005 126.735 34.1105 126.88 34.1307C127.025 34.1468 127.16 34.1729 127.285 34.2092V36.7748C127.144 36.7266 126.959 36.6883 126.729 36.6601C126.504 36.632 126.303 36.6179 126.125 36.6179C125.775 36.6179 125.459 36.6964 125.178 36.8533C124.9 37.0063 124.681 37.2216 124.52 37.4993C124.363 37.773 124.284 38.0949 124.284 38.4652V43.5H121.332Z" fill="#DD0031"/>
</g>
<defs>
<filter id="filter0_d_1_50" x="6.28571" y="2.28571" width="51.4286" height="51.4286" filterUnits="userSpaceOnUse" color-interpolation-filters="sRGB">
<feFlood flood-opacity="0" result="BackgroundImageFix"/>
<feColorMatrix in="SourceAlpha" type="matrix" values="0 0 0 0 0 0 0 0 0 0 0 0 0 0 0 0 0 0 127 0" result="hardAlpha"/>
<feOffset/>
<feGaussianBlur stdDeviation="2.85714"/>
<feComposite in2="hardAlpha" operator="out"/>
<feColorMatrix type="matrix" values="0 0 0 0 0 0 0 0 0 0 0 0 0 0 0 0 0 0 0.25 0"/>
<feBlend mode="normal" in2="BackgroundImageFix" result="effect1_dropShadow_1_50"/>
<feBlend mode="normal" in="SourceGraphic" in2="effect1_dropShadow_1_50" result="shape"/>
</filter>
<filter id="filter1_d_1_50" x="54.4" y="3.9" width="83.2" height="48.8704" filterUnits="userSpaceOnUse" color-interpolation-filters="sRGB">
<feFlood flood-opacity="0" result="BackgroundImageFix"/>
<feColorMatrix in="SourceAlpha" type="matrix" values="0 0 0 0 0 0 0 0 0 0 0 0 0 0 0 0 0 0 127 0" result="hardAlpha"/>
<feOffset/>
<feGaussianBlur stdDeviation="2.8"/>
<feComposite in2="hardAlpha" operator="out"/>
<feColorMatrix type="matrix" values="0 0 0 0 0 0 0 0 0 0 0 0 0 0 0 0 0 0 0.25 0"/>
<feBlend mode="normal" in2="BackgroundImageFix" result="effect1_dropShadow_1_50"/>
<feBlend mode="normal" in="SourceGraphic" in2="effect1_dropShadow_1_50" result="shape"/>
</filter>
<linearGradient id="paint0_linear_1_50" x1="72" y1="0" x2="72" y2="56" gradientUnits="userSpaceOnUse">
<stop stop-color="#85001D"/>
<stop offset="1" stop-color="#42000F"/>
</linearGradient>
</defs>
</svg>
