<svg width="40" height="40" viewBox="0 0 40 40" fill="none" xmlns="http://www.w3.org/2000/svg">
<rect width="40" height="40" rx="8" fill="url(#paint0_linear_1_68)"/>
<rect x="1.05" y="1.05" width="37.9" height="37.9" rx="6.95" stroke="white" stroke-opacity="0.15" stroke-width="2.1"/>
<g filter="url(#filter0_d_1_68)">
<path d="M12.6937 22.3625C13.0875 22.1 13.4375 21.4438 13.2187 20.9625C12.6937 21.225 12.7375 21.75 12.6937 22.3625Z" fill="#E3E3F8"/>
<path d="M18.9062 23.85C19.3437 23.7188 19.7812 23.2375 19.5187 22.7125C19.2125 22.9313 18.9937 23.2813 18.9062 23.85Z" fill="#E3E3F8"/>
<path d="M6.7 31.0688C6.7 31.6375 6.83125 32.2063 7.225 32.425C8.625 33.2125 13.6125 32.6 15.275 32.2063C16.15 31.9875 16.8937 31.3313 17.6812 30.9813C19.5625 30.15 20.9187 29.4938 22.4062 28.4438C23.5 27.6563 25.2062 25.425 25.3812 24.0688L23.9375 23.7625C23.8937 25.25 23.5437 25.6 22.2312 25.95C21.3125 26.2125 19.5625 26.2563 18.6437 26.0813C17.4187 25.8625 16.8937 25.25 16.325 24.5063C15.275 23.1063 16.5437 22.1 14.8812 22.0125C13.1312 24.2 9.98125 22.625 8.625 22.4063C8.05625 23.2375 6.65625 28.75 6.7 30.0188C7.53125 29.7125 8.1 30.0625 8.84375 30.325C11.5125 31.375 9.19375 32.2938 8.1 32.0313C7.35625 31.8563 7.1375 31.375 6.7 31.0688Z" fill="#FDFDFD"/>
<path d="M10.2437 18.5563C11.3375 18.775 12.3 19.2125 13.2187 19.6938C14.75 20.4375 15.0125 20.35 15.1437 21.4C15.1437 21.575 15.1437 21.7063 15.6687 21.8813C16.5875 22.1875 15.1437 21.6625 17.5937 21.6625C19.0812 21.6625 22.45 22.275 23.5437 22.975C23.9812 23.2813 23.8937 23.6313 25.425 23.5875C25.425 21.7938 24.9437 19.0813 24.2 17.4188C23.325 15.4063 22.1875 15.1 19.8687 14.3563C18.5125 13.9188 14.5312 13.4375 13.2625 14.225C12.0812 14.9688 11.8625 15.8 10.8125 17.3313C10.55 17.6813 10.4187 18.0313 10.2437 18.5563Z" fill="#FDFDFD"/>
<path d="M19.825 22.2312C20.7 22.5812 19.7812 24.9 18.5562 24.3313C18.1625 23.2375 19.0812 22.5813 19.3437 22.1C18.8187 22.0125 17.3312 21.7938 16.8937 21.9688C16.325 22.1875 16.1937 23.4125 16.5 23.9812C17.9 26.7375 24.0687 26.125 23.4125 24.025C23.15 23.15 22.8875 23.0188 22.0125 22.7125C21.3125 22.4938 20.6125 22.2312 19.825 22.2312Z" fill="#FDFDFD"/>
<path d="M8.8875 21.925C9.5875 22.5813 11.1625 22.7125 12.1687 22.7563C12.3 21.4 12.4312 20.3938 13.4812 20.4813C14.0062 21.225 13.7437 22.0563 13.175 22.625C14.1375 22.625 14.6625 21.8813 14.5312 20.875C13.7437 20.3063 11.2937 19.125 10.0687 18.9938C9.7625 19.3438 8.93125 21.3125 8.8875 21.925Z" fill="#FDFDFD"/>
<path d="M7.225 30.5875C7.79375 30.5437 9.28125 30.9812 9.4125 31.4625C8.49375 31.55 7.3125 31.4625 7.225 30.5875ZM6.7 31.0687C7.1375 31.375 7.35625 31.8562 8.1 32.0312C9.19375 32.2937 11.5125 31.375 8.84375 30.325C8.1 30.0187 7.53125 29.7125 6.7 30.0188C6.7 28.75 8.05625 23.2812 8.625 22.4062C9.98125 22.625 13.1312 24.2 14.8812 22.0125C16.5875 22.1 15.275 23.1062 16.325 24.5062C16.8937 25.25 17.4187 25.8625 18.6437 26.0813C19.5625 26.2563 21.3125 26.1687 22.2312 25.95C23.5875 25.6 23.8937 25.25 23.9375 23.7625L25.425 24.1125C25.25 25.4688 23.5437 27.7 22.45 28.4875C20.9625 29.5813 19.6062 30.2375 17.725 31.025C16.8937 31.375 16.1937 32.0312 15.3187 32.25C13.6125 32.6437 8.66875 33.2562 7.26875 32.4687C6.83125 32.2062 6.7 31.6375 6.7 31.0687ZM18.9062 23.85C18.95 23.2812 19.1687 22.9313 19.5187 22.7125C19.7812 23.2375 19.3437 23.7187 18.9062 23.85ZM19.825 22.2312C20.6125 22.2312 21.3125 22.4938 22.0125 22.7125C22.8875 23.0188 23.15 23.15 23.4125 24.025C24.0687 26.1688 17.9 26.7375 16.5 23.9812C16.1937 23.4125 16.325 22.1875 16.8937 21.9687C17.3312 21.7937 18.8187 22.0562 19.3437 22.1C19.125 22.625 18.2062 23.2375 18.6 24.375C19.7812 24.9 20.7 22.625 19.825 22.2312ZM12.6937 22.3625C12.6937 21.75 12.6937 21.225 13.2187 20.9625C13.4375 21.4438 13.1312 22.1 12.6937 22.3625ZM8.8875 21.925C8.93125 21.3125 9.7625 19.3 10.1125 18.95C11.3375 19.125 13.7875 20.2625 14.575 20.8313C14.7062 21.8813 14.1812 22.5813 13.2187 22.5813C13.7875 22.0125 14.05 21.1812 13.525 20.4375C12.4312 20.35 12.3437 21.3563 12.2125 22.7125C11.1625 22.7125 9.5875 22.625 8.8875 21.925ZM8.0125 21.225C7.70625 20.35 7.70625 18.95 9.0625 18.8187L8.3625 20.7438C8.14375 21.225 8.14375 21.1375 8.0125 21.225ZM10.2437 18.5563C10.4625 18.0313 10.55 17.725 10.8562 17.2438C11.95 15.7125 12.1687 14.8813 13.3062 14.1375C14.5312 13.35 18.5562 13.8312 19.9125 14.2687C22.2312 15.0125 23.3687 15.3187 24.2437 17.3312C24.9437 18.9937 25.425 21.7062 25.4687 23.5C23.9375 23.5437 24.025 23.1937 23.5875 22.8875C22.4937 22.1875 19.125 21.6187 17.6375 21.575C15.1437 21.575 16.6312 22.1 15.7125 21.7937C15.1437 21.6187 15.1875 21.5312 15.1875 21.3125C15.0562 20.2625 14.7937 20.35 13.2625 19.6063C12.3 19.2125 11.3375 18.7313 10.2437 18.5563ZM25.6875 18.1188C25.5125 17.55 25.8187 17.5938 26.3437 17.2438C26.65 17.025 26.9125 16.8063 27.2625 16.5875C28.6625 15.8 31.2875 15.6688 32.425 16.5875C32.8625 16.9813 33.6062 17.6812 33.5187 18.6437C33.3 20.5687 31.9875 21.6188 30.8937 22.4938C29.8 23.3688 28.0062 24.2875 26.125 23.675C25.95 23.2813 26.0812 20.875 25.9062 19.9562C25.7312 19.1687 25.8187 19.0812 26.3 18.6C27.6562 17.2 30.6312 16.15 32.2937 17.375C32.9937 17.9 32.8187 18.1188 33.1687 18.5125C33.6062 18.0313 32.775 16.3687 29.6687 16.5C27.4812 16.5437 26.5625 18.2063 25.6875 18.1188ZM12.9562 13.1312C13 11.9062 14.1375 9.4125 15.2312 8.5375C16.5875 7.4875 17.9875 6.525 20.0875 7.6625C20.6125 7.96875 20.5687 8.1 20.6125 8.8C20.6562 9.5 20.6125 9.7625 20.4375 10.2875C19.0375 14.75 17.9 12.1688 13.4812 13.2188C13.6562 11.775 14.925 10.4625 15.5812 9.80625C16.7625 8.625 17.6375 7.88125 19.4312 8.14375C19.9125 8.975 20 9.5 19.3875 10.4625C18.6 11.775 18.3812 11.6875 18.5125 12.5625C19.125 12.3875 19.3437 11.775 19.6062 11.1625C21.3562 7.4875 18.8187 7.05 17.2437 7.70625C16.1937 8.14375 14.3125 10.2 13.7 11.4688C13.5687 11.7313 13.4375 12.0375 13.35 12.3L12.9562 13.1312ZM19.8687 13.3063C20.0437 12.2125 21.1375 11.95 21.1375 8.58125C21.1375 7.1375 19.3437 5.825 17.025 6.7875C15.0125 7.61875 14.7062 8.23125 13.6562 9.85C12.65 11.3813 12.6937 13.0437 11.8187 14.4437C11.5562 14.8375 11.3375 14.9688 11.075 15.4063C10.8562 15.7125 10.725 16.0625 10.5062 16.4125C10.1125 17.0687 9.675 17.5937 9.325 18.3812C8.275 18.425 7.4 18.425 7.3125 19.5187C7.18125 21.0062 7.88125 21.3563 7.88125 21.925C7.88125 22.5375 5.43125 28.6188 6.13125 32.2063C6.30625 33.2125 6.9625 33.2125 8.0125 33.3437C10.55 33.65 13.7875 33.5625 16.0625 32.6438L20.175 30.675C21.225 30.1063 22.975 28.9687 23.7187 28.1813C24.2875 27.6125 24.55 27.1312 25.0312 26.475C25.6875 25.5125 25.6875 25.5562 25.8187 24.2875C26.6937 24.4625 28.2687 24.8125 28.7937 25.2937C28.75 25.9062 28.4437 25.6 28.4437 26.1687C28.7937 26.1687 29.3625 25.7312 29.4937 25.2937C29.1437 24.7687 28.75 24.8562 28.225 24.4187C28.6187 24.1125 29.3625 23.9375 29.9312 23.7187C31.1562 23.1937 33.2562 21.6625 33.7375 20.2625C34.1312 19.125 33.825 17.2438 33.1687 16.5438C32.4687 15.7563 30.85 15.3625 29.5375 15.3625C27.9625 15.3625 26.3437 16.5 25.0312 16.9813C24.55 16.5438 24.5062 16.0625 24.1562 15.5812C23.85 15.0125 21.1375 13.6125 19.8687 13.3063Z" fill="#020202"/>
<path d="M25.6875 18.1187C26.5625 18.2062 27.4812 16.5437 29.625 16.4562C32.7312 16.3687 33.6062 17.9875 33.125 18.4687C32.775 18.075 32.95 17.8562 32.25 17.3312C30.5875 16.1062 27.6125 17.1562 26.2562 18.5562C25.775 19.0375 25.6875 19.125 25.8625 19.9125C26.0375 20.8312 25.9062 23.2375 26.0812 23.6312C27.9625 24.2437 29.7562 23.325 30.85 22.45C31.9437 21.575 33.2125 20.525 33.475 18.6C33.6062 17.6375 32.8625 16.8937 32.3812 16.5437C31.2437 15.625 28.6625 15.7562 27.2187 16.5437C26.825 16.7625 26.6062 16.9812 26.3 17.2C25.8187 17.5937 25.5125 17.55 25.6875 18.1187Z" fill="#FDF2F2"/>
<path d="M12.9562 13.1312L13.3937 12.3875C13.525 12.125 13.6562 11.8187 13.7437 11.5562C14.3562 10.3312 16.2375 8.275 17.2875 7.79375C18.8625 7.1375 21.4 7.575 19.65 11.25C19.3437 11.8625 19.1687 12.475 18.5562 12.65C18.425 11.775 18.6437 11.8625 19.4312 10.55C20.0437 9.5875 20 9.0625 19.475 8.23125C17.6812 7.96875 16.8062 8.75625 15.625 9.89375C14.925 10.55 13.6562 11.8625 13.525 13.3062C17.9437 12.2562 19.0812 14.7937 20.4812 10.375C20.6562 9.80625 20.7 9.54375 20.6562 8.8875C20.6125 8.1875 20.6125 8.0125 20.1312 7.75C18.075 6.56875 16.6312 7.575 15.275 8.625C14.1375 9.4125 13 11.95 12.9562 13.1312Z" fill="#FEF3F3"/>
<path d="M8.0125 21.225C8.1875 21.0938 8.1875 21.1813 8.3625 20.7875L9.0625 18.8625C7.6625 18.95 7.6625 20.35 8.0125 21.225Z" fill="#EFEFEF"/>
<path d="M9.4125 31.4625C9.28125 30.9812 7.79375 30.5437 7.225 30.5875C7.3125 31.4625 8.49375 31.55 9.4125 31.4625Z" fill="#FAF1F1"/>
</g>
<defs>
<filter id="filter0_d_1_68" x="2" y="2" width="36" height="36" filterUnits="userSpaceOnUse" color-interpolation-filters="sRGB">
<feFlood flood-opacity="0" result="BackgroundImageFix"/>
<feColorMatrix in="SourceAlpha" type="matrix" values="0 0 0 0 0 0 0 0 0 0 0 0 0 0 0 0 0 0 127 0" result="hardAlpha"/>
<feOffset/>
<feGaussianBlur stdDeviation="2"/>
<feComposite in2="hardAlpha" operator="out"/>
<feColorMatrix type="matrix" values="0 0 0 0 0 0 0 0 0 0 0 0 0 0 0 0 0 0 0.25 0"/>
<feBlend mode="normal" in2="BackgroundImageFix" result="effect1_dropShadow_1_68"/>
<feBlend mode="normal" in="SourceGraphic" in2="effect1_dropShadow_1_68" result="shape"/>
</filter>
<linearGradient id="paint0_linear_1_68" x1="20" y1="0" x2="20" y2="40" gradientUnits="userSpaceOnUse">
<stop stop-color="#84C0C0"/>
<stop offset="1" stop-color="#478989"/>
</linearGradient>
</defs>
</svg>
