<svg width="237" height="40" viewBox="0 0 237 40" fill="none" xmlns="http://www.w3.org/2000/svg">
<rect width="237.001" height="40.0014" rx="8" fill="url(#paint0_linear_1_56)"/>
<rect x="1.07143" y="1.07143" width="234.858" height="37.8585" rx="6.92857" stroke="white" stroke-opacity="0.15" stroke-width="2.14286"/>
<g filter="url(#filter0_d_1_56)">
<path d="M14.6937 22.3625C15.0875 22.1 15.4375 21.4438 15.2187 20.9625C14.6937 21.225 14.7375 21.75 14.6937 22.3625Z" fill="#E3E3F8"/>
<path d="M20.9062 23.85C21.3438 23.7188 21.7813 23.2375 21.5188 22.7125C21.2125 22.9313 20.9938 23.2813 20.9062 23.85Z" fill="#E3E3F8"/>
<path d="M8.7 31.0688C8.7 31.6375 8.83125 32.2063 9.225 32.425C10.625 33.2125 15.6125 32.6 17.275 32.2063C18.15 31.9875 18.8937 31.3313 19.6812 30.9813C21.5625 30.15 22.9187 29.4938 24.4062 28.4438C25.5 27.6563 27.2062 25.425 27.3812 24.0688L25.9375 23.7625C25.8937 25.25 25.5437 25.6 24.2312 25.95C23.3125 26.2125 21.5625 26.2563 20.6437 26.0813C19.4187 25.8625 18.8937 25.25 18.325 24.5063C17.275 23.1063 18.5437 22.1 16.8812 22.0125C15.1312 24.2 11.9812 22.625 10.625 22.4063C10.0562 23.2375 8.65625 28.75 8.7 30.0188C9.53125 29.7125 10.1 30.0625 10.8437 30.325C13.5125 31.375 11.1937 32.2938 10.1 32.0313C9.35625 31.8563 9.1375 31.375 8.7 31.0688Z" fill="#FDFDFD"/>
<path d="M12.2438 18.5563C13.3375 18.775 14.3 19.2125 15.2188 19.6938C16.75 20.4375 17.0125 20.35 17.1438 21.4C17.1438 21.575 17.1438 21.7063 17.6688 21.8813C18.5875 22.1875 17.1438 21.6625 19.5938 21.6625C21.0813 21.6625 24.45 22.275 25.5438 22.975C25.9813 23.2813 25.8938 23.6313 27.425 23.5875C27.425 21.7938 26.9438 19.0813 26.2 17.4188C25.325 15.4063 24.1875 15.1 21.8688 14.3563C20.5125 13.9188 16.5313 13.4375 15.2625 14.225C14.0813 14.9688 13.8625 15.8 12.8125 17.3313C12.55 17.6813 12.4188 18.0313 12.2438 18.5563Z" fill="#FDFDFD"/>
<path d="M21.825 22.2312C22.7 22.5812 21.7812 24.9 20.5562 24.3313C20.1625 23.2375 21.0812 22.5813 21.3437 22.1C20.8187 22.0125 19.3312 21.7938 18.8937 21.9688C18.325 22.1875 18.1937 23.4125 18.5 23.9812C19.9 26.7375 26.0687 26.125 25.4125 24.025C25.15 23.15 24.8875 23.0188 24.0125 22.7125C23.3125 22.4938 22.6125 22.2312 21.825 22.2312Z" fill="#FDFDFD"/>
<path d="M10.8875 21.925C11.5875 22.5813 13.1625 22.7125 14.1687 22.7563C14.3 21.4 14.4312 20.3938 15.4812 20.4813C16.0062 21.225 15.7437 22.0563 15.175 22.625C16.1375 22.625 16.6625 21.8813 16.5312 20.875C15.7437 20.3063 13.2937 19.125 12.0687 18.9938C11.7625 19.3438 10.9312 21.3125 10.8875 21.925Z" fill="#FDFDFD"/>
<path d="M9.225 30.5875C9.79375 30.5437 11.2813 30.9812 11.4125 31.4625C10.4938 31.55 9.3125 31.4625 9.225 30.5875ZM8.7 31.0687C9.1375 31.375 9.35625 31.8562 10.1 32.0312C11.1938 32.2937 13.5125 31.375 10.8438 30.325C10.1 30.0187 9.53125 29.7125 8.7 30.0188C8.7 28.75 10.0563 23.2812 10.625 22.4062C11.9813 22.625 15.1313 24.2 16.8813 22.0125C18.5875 22.1 17.275 23.1062 18.325 24.5062C18.8938 25.25 19.4187 25.8625 20.6437 26.0813C21.5625 26.2563 23.3125 26.1687 24.2312 25.95C25.5875 25.6 25.8937 25.25 25.9375 23.7625L27.425 24.1125C27.25 25.4688 25.5437 27.7 24.45 28.4875C22.9625 29.5813 21.6062 30.2375 19.725 31.025C18.8937 31.375 18.1937 32.0312 17.3187 32.25C15.6125 32.6437 10.6688 33.2562 9.26875 32.4687C8.83125 32.2062 8.7 31.6375 8.7 31.0687ZM20.9062 23.85C20.95 23.2812 21.1687 22.9313 21.5187 22.7125C21.7812 23.2375 21.3437 23.7187 20.9062 23.85ZM21.825 22.2312C22.6125 22.2312 23.3125 22.4938 24.0125 22.7125C24.8875 23.0188 25.15 23.15 25.4125 24.025C26.0687 26.1688 19.9 26.7375 18.5 23.9812C18.1938 23.4125 18.325 22.1875 18.8938 21.9687C19.3312 21.7937 20.8187 22.0562 21.3437 22.1C21.125 22.625 20.2062 23.2375 20.6 24.375C21.7812 24.9 22.7 22.625 21.825 22.2312ZM14.6938 22.3625C14.6938 21.75 14.6938 21.225 15.2188 20.9625C15.4375 21.4438 15.1313 22.1 14.6938 22.3625ZM10.8875 21.925C10.9313 21.3125 11.7625 19.3 12.1125 18.95C13.3375 19.125 15.7875 20.2625 16.575 20.8313C16.7063 21.8813 16.1813 22.5813 15.2188 22.5813C15.7875 22.0125 16.05 21.1812 15.525 20.4375C14.4313 20.35 14.3438 21.3563 14.2125 22.7125C13.1625 22.7125 11.5875 22.625 10.8875 21.925ZM10.0125 21.225C9.70625 20.35 9.70625 18.95 11.0625 18.8187L10.3625 20.7438C10.1438 21.225 10.1438 21.1375 10.0125 21.225ZM12.2438 18.5563C12.4625 18.0313 12.55 17.725 12.8563 17.2438C13.95 15.7125 14.1688 14.8813 15.3063 14.1375C16.5313 13.35 20.5562 13.8312 21.9125 14.2687C24.2312 15.0125 25.3687 15.3187 26.2437 17.3312C26.9437 18.9937 27.425 21.7062 27.4687 23.5C25.9375 23.5437 26.025 23.1937 25.5875 22.8875C24.4937 22.1875 21.125 21.6187 19.6375 21.575C17.1438 21.575 18.6313 22.1 17.7125 21.7937C17.1438 21.6187 17.1875 21.5312 17.1875 21.3125C17.0563 20.2625 16.7938 20.35 15.2625 19.6063C14.3 19.2125 13.3375 18.7313 12.2438 18.5563ZM27.6875 18.1188C27.5125 17.55 27.8187 17.5938 28.3437 17.2438C28.65 17.025 28.9125 16.8063 29.2625 16.5875C30.6625 15.8 33.2875 15.6688 34.425 16.5875C34.8625 16.9813 35.6062 17.6812 35.5187 18.6437C35.3 20.5687 33.9875 21.6188 32.8937 22.4938C31.8 23.3688 30.0062 24.2875 28.125 23.675C27.95 23.2813 28.0812 20.875 27.9062 19.9562C27.7312 19.1687 27.8187 19.0812 28.3 18.6C29.6562 17.2 32.6312 16.15 34.2937 17.375C34.9937 17.9 34.8187 18.1188 35.1687 18.5125C35.6062 18.0313 34.775 16.3687 31.6687 16.5C29.4812 16.5437 28.5625 18.2063 27.6875 18.1188ZM14.9563 13.1312C15 11.9062 16.1375 9.4125 17.2313 8.5375C18.5875 7.4875 19.9875 6.525 22.0875 7.6625C22.6125 7.96875 22.5688 8.1 22.6125 8.8C22.6563 9.5 22.6125 9.7625 22.4375 10.2875C21.0375 14.75 19.9 12.1688 15.4813 13.2188C15.6563 11.775 16.925 10.4625 17.5813 9.80625C18.7625 8.625 19.6375 7.88125 21.4313 8.14375C21.9125 8.975 22 9.5 21.3875 10.4625C20.6 11.775 20.3813 11.6875 20.5125 12.5625C21.125 12.3875 21.3438 11.775 21.6063 11.1625C23.3562 7.4875 20.8188 7.05 19.2438 7.70625C18.1938 8.14375 16.3125 10.2 15.7 11.4688C15.5688 11.7313 15.4375 12.0375 15.35 12.3L14.9563 13.1312ZM21.8688 13.3063C22.0438 12.2125 23.1375 11.95 23.1375 8.58125C23.1375 7.1375 21.3438 5.825 19.025 6.7875C17.0125 7.61875 16.7063 8.23125 15.6563 9.85C14.65 11.3813 14.6938 13.0437 13.8188 14.4437C13.5563 14.8375 13.3375 14.9688 13.075 15.4063C12.8563 15.7125 12.725 16.0625 12.5063 16.4125C12.1125 17.0687 11.675 17.5937 11.325 18.3812C10.275 18.425 9.4 18.425 9.3125 19.5187C9.18125 21.0062 9.88125 21.3563 9.88125 21.925C9.88125 22.5375 7.43125 28.6188 8.13125 32.2063C8.30625 33.2125 8.9625 33.2125 10.0125 33.3437C12.55 33.65 15.7875 33.5625 18.0625 32.6438L22.175 30.675C23.225 30.1063 24.975 28.9687 25.7187 28.1813C26.2875 27.6125 26.55 27.1312 27.0312 26.475C27.6875 25.5125 27.6875 25.5562 27.8187 24.2875C28.6937 24.4625 30.2687 24.8125 30.7937 25.2937C30.75 25.9062 30.4437 25.6 30.4437 26.1687C30.7937 26.1687 31.3625 25.7312 31.4937 25.2937C31.1437 24.7687 30.75 24.8562 30.225 24.4187C30.6187 24.1125 31.3625 23.9375 31.9312 23.7187C33.1562 23.1937 35.2562 21.6625 35.7375 20.2625C36.1312 19.125 35.825 17.2438 35.1687 16.5438C34.4687 15.7563 32.85 15.3625 31.5375 15.3625C29.9625 15.3625 28.3437 16.5 27.0312 16.9813C26.55 16.5438 26.5062 16.0625 26.1562 15.5812C25.85 15.0125 23.1375 13.6125 21.8688 13.3063Z" fill="#020202"/>
<path d="M27.6875 18.1187C28.5625 18.2062 29.4812 16.5437 31.625 16.4562C34.7312 16.3687 35.6062 17.9875 35.125 18.4687C34.775 18.075 34.95 17.8562 34.25 17.3312C32.5875 16.1062 29.6125 17.1562 28.2562 18.5562C27.775 19.0375 27.6875 19.125 27.8625 19.9125C28.0375 20.8312 27.9062 23.2375 28.0812 23.6312C29.9625 24.2437 31.7562 23.325 32.85 22.45C33.9437 21.575 35.2125 20.525 35.475 18.6C35.6062 17.6375 34.8625 16.8937 34.3812 16.5437C33.2437 15.625 30.6625 15.7562 29.2187 16.5437C28.825 16.7625 28.6062 16.9812 28.3 17.2C27.8187 17.5937 27.5125 17.55 27.6875 18.1187Z" fill="#FDF2F2"/>
<path d="M14.9563 13.1312L15.3938 12.3875C15.525 12.125 15.6563 11.8187 15.7438 11.5562C16.3563 10.3312 18.2375 8.275 19.2875 7.79375C20.8625 7.1375 23.4 7.575 21.65 11.25C21.3438 11.8625 21.1688 12.475 20.5563 12.65C20.425 11.775 20.6438 11.8625 21.4313 10.55C22.0438 9.5875 22 9.0625 21.475 8.23125C19.6813 7.96875 18.8063 8.75625 17.625 9.89375C16.925 10.55 15.6563 11.8625 15.525 13.3062C19.9438 12.2562 21.0813 14.7937 22.4813 10.375C22.6563 9.80625 22.7 9.54375 22.6563 8.8875C22.6125 8.1875 22.6125 8.0125 22.1313 7.75C20.075 6.56875 18.6313 7.575 17.275 8.625C16.1375 9.4125 15 11.95 14.9563 13.1312Z" fill="#FEF3F3"/>
<path d="M10.0125 21.225C10.1875 21.0938 10.1875 21.1813 10.3625 20.7875L11.0625 18.8625C9.6625 18.95 9.6625 20.35 10.0125 21.225Z" fill="#EFEFEF"/>
<path d="M11.4125 31.4625C11.2812 30.9812 9.79375 30.5437 9.225 30.5875C9.3125 31.4625 10.4937 31.55 11.4125 31.4625Z" fill="#FAF1F1"/>
</g>
<g filter="url(#filter1_d_1_56)">
<path d="M50.103 17.3849C50.0386 16.8134 49.7729 16.3707 49.3061 16.0568C48.8392 15.7389 48.2516 15.5799 47.5433 15.5799C47.0362 15.5799 46.5975 15.6604 46.2272 15.8214C45.857 15.9783 45.5692 16.1957 45.364 16.4734C45.1627 16.747 45.0621 17.0589 45.0621 17.4091C45.0621 17.7029 45.1305 17.9564 45.2674 18.1697C45.4082 18.383 45.5914 18.5621 45.8167 18.707C46.0461 18.8479 46.2916 18.9666 46.5532 19.0632C46.8148 19.1558 47.0664 19.2322 47.3079 19.2926L48.5152 19.6065C48.9097 19.7031 49.3141 19.8339 49.7287 19.9989C50.1432 20.1639 50.5276 20.3813 50.8817 20.6509C51.2359 20.9206 51.5216 21.2546 51.739 21.653C51.9603 22.0515 52.071 22.5284 52.071 23.0838C52.071 23.7841 51.8899 24.4059 51.5277 24.9492C51.1695 25.4925 50.6483 25.9212 49.9641 26.2351C49.2839 26.549 48.4609 26.706 47.495 26.706C46.5693 26.706 45.7684 26.5591 45.0923 26.2653C44.4162 25.9715 43.8869 25.5549 43.5046 25.0156C43.1223 24.4723 42.911 23.8283 42.8707 23.0838H44.7422C44.7784 23.5305 44.9233 23.9028 45.1768 24.2006C45.4344 24.4944 45.7624 24.7138 46.1608 24.8587C46.5633 24.9995 47.004 25.0699 47.4829 25.0699C48.0102 25.0699 48.479 24.9874 48.8895 24.8224C49.3041 24.6534 49.6301 24.42 49.8675 24.1221C50.105 23.8203 50.2237 23.4681 50.2237 23.0657C50.2237 22.6994 50.1191 22.3996 49.9098 22.1662C49.7045 21.9328 49.4248 21.7396 49.0706 21.5866C48.7205 21.4337 48.3241 21.2989 47.8814 21.1822L46.4204 20.7837C45.4304 20.5141 44.6456 20.1176 44.066 19.5944C43.4905 19.0712 43.2027 18.379 43.2027 17.5177C43.2027 16.8054 43.3959 16.1836 43.7823 15.6523C44.1687 15.1211 44.6919 14.7086 45.3519 14.4148C46.0119 14.1169 46.7565 13.968 47.5856 13.968C48.4227 13.968 49.1612 14.1149 49.8011 14.4087C50.445 14.7025 50.9522 15.107 51.3224 15.6221C51.6927 16.1333 51.8859 16.7209 51.902 17.3849H50.103ZM60.0292 22.6552V17.228H61.8403V26.5007H60.0654V24.8949H59.9688C59.7555 25.3899 59.4134 25.8024 58.9425 26.1324C58.4757 26.4584 57.8941 26.6214 57.1979 26.6214C56.6022 26.6214 56.075 26.4906 55.6162 26.229C55.1614 25.9634 54.8032 25.571 54.5416 25.0518C54.284 24.5327 54.1552 23.8907 54.1552 23.1261V17.228H55.9603V22.9087C55.9603 23.5406 56.1354 24.0437 56.4855 24.418C56.8356 24.7922 57.2904 24.9794 57.8498 24.9794C58.1879 24.9794 58.524 24.8949 58.858 24.7258C59.1961 24.5568 59.4758 24.3012 59.6971 23.9591C59.9225 23.6171 60.0332 23.1824 60.0292 22.6552ZM64.2656 29.978V17.228H66.0284V18.7312H66.1793C66.2839 18.538 66.4349 18.3146 66.6321 18.0611C66.8293 17.8075 67.103 17.5862 67.4531 17.397C67.8032 17.2038 68.2661 17.1072 68.8416 17.1072C69.5902 17.1072 70.2583 17.2964 70.8458 17.6747C71.4334 18.053 71.8943 18.5984 72.2283 19.3107C72.5664 20.0231 72.7354 20.8803 72.7354 21.8824C72.7354 22.8846 72.5684 23.7438 72.2343 24.4602C71.9003 25.1726 71.4415 25.7219 70.8579 26.1083C70.2744 26.4906 69.6083 26.6818 68.8597 26.6818C68.2963 26.6818 67.8354 26.5872 67.4772 26.3981C67.1231 26.2089 66.8454 25.9876 66.6441 25.734C66.4429 25.4805 66.288 25.2551 66.1793 25.0579H66.0706V29.978H64.2656ZM66.0344 21.8643C66.0344 22.5163 66.129 23.0878 66.3182 23.5788C66.5073 24.0698 66.781 24.4542 67.1392 24.7319C67.4974 25.0056 67.936 25.1424 68.4552 25.1424C68.9945 25.1424 69.4453 24.9995 69.8075 24.7138C70.1697 24.424 70.4434 24.0316 70.6285 23.5366C70.8177 23.0415 70.9123 22.4841 70.9123 21.8643C70.9123 21.2526 70.8197 20.7032 70.6346 20.2163C70.4534 19.7293 70.1798 19.3449 69.8135 19.0632C69.4513 18.7815 68.9985 18.6406 68.4552 18.6406C67.932 18.6406 67.4893 18.7754 67.1271 19.0451C66.7689 19.3147 66.4972 19.691 66.3121 20.174C66.127 20.6569 66.0344 21.2204 66.0344 21.8643ZM74.7578 29.978V17.228H76.5206V18.7312H76.6715C76.7761 18.538 76.927 18.3146 77.1243 18.0611C77.3215 17.8075 77.5951 17.5862 77.9453 17.397C78.2954 17.2038 78.7583 17.1072 79.3338 17.1072C80.0824 17.1072 80.7504 17.2964 81.338 17.6747C81.9256 18.053 82.3864 18.5984 82.7205 19.3107C83.0586 20.0231 83.2276 20.8803 83.2276 21.8824C83.2276 22.8846 83.0606 23.7438 82.7265 24.4602C82.3925 25.1726 81.9337 25.7219 81.3501 26.1083C80.7665 26.4906 80.1005 26.6818 79.3519 26.6818C78.7884 26.6818 78.3276 26.5872 77.9694 26.3981C77.6153 26.2089 77.3376 25.9876 77.1363 25.734C76.9351 25.4805 76.7802 25.2551 76.6715 25.0579H76.5628V29.978H74.7578ZM76.5266 21.8643C76.5266 22.5163 76.6212 23.0878 76.8103 23.5788C76.9995 24.0698 77.2732 24.4542 77.6314 24.7319C77.9895 25.0056 78.4282 25.1424 78.9474 25.1424C79.4867 25.1424 79.9375 24.9995 80.2997 24.7138C80.6619 24.424 80.9356 24.0316 81.1207 23.5366C81.3099 23.0415 81.4044 22.4841 81.4044 21.8643C81.4044 21.2526 81.3119 20.7032 81.1267 20.2163C80.9456 19.7293 80.672 19.3449 80.3057 19.0632C79.9435 18.7815 79.4907 18.6406 78.9474 18.6406C78.4242 18.6406 77.9815 18.7754 77.6193 19.0451C77.2611 19.3147 76.9894 19.691 76.8043 20.174C76.6192 20.6569 76.5266 21.2204 76.5266 21.8643ZM89.1559 26.6878C88.2865 26.6878 87.5279 26.4886 86.8799 26.0902C86.232 25.6917 85.7289 25.1343 85.3707 24.418C85.0125 23.7016 84.8334 22.8645 84.8334 21.9066C84.8334 20.9447 85.0125 20.1036 85.3707 19.3832C85.7289 18.6627 86.232 18.1033 86.8799 17.7049C87.5279 17.3065 88.2865 17.1072 89.1559 17.1072C90.0252 17.1072 90.7838 17.3065 91.4318 17.7049C92.0797 18.1033 92.5828 18.6627 92.941 19.3832C93.2992 20.1036 93.4783 20.9447 93.4783 21.9066C93.4783 22.8645 93.2992 23.7016 92.941 24.418C92.5828 25.1343 92.0797 25.6917 91.4318 26.0902C90.7838 26.4886 90.0252 26.6878 89.1559 26.6878ZM89.1619 25.1726C89.7253 25.1726 90.1922 25.0237 90.5625 24.7258C90.9327 24.428 91.2064 24.0316 91.3835 23.5366C91.5646 23.0415 91.6551 22.4962 91.6551 21.9006C91.6551 21.3089 91.5646 20.7656 91.3835 20.2706C91.2064 19.7715 90.9327 19.3711 90.5625 19.0692C90.1922 18.7674 89.7253 18.6165 89.1619 18.6165C88.5944 18.6165 88.1235 18.7674 87.7493 19.0692C87.379 19.3711 87.1033 19.7715 86.9222 20.2706C86.7451 20.7656 86.6566 21.3089 86.6566 21.9006C86.6566 22.4962 86.7451 23.0415 86.9222 23.5366C87.1033 24.0316 87.379 24.428 87.7493 24.7258C88.1235 25.0237 88.5944 25.1726 89.1619 25.1726ZM95.4931 26.5007V17.228H97.2378V18.701H97.3344C97.5034 18.2019 97.8012 17.8095 98.2279 17.5238C98.6585 17.234 99.1455 17.0891 99.6888 17.0891C99.8015 17.0891 99.9343 17.0931 100.087 17.1012C100.244 17.1092 100.367 17.1193 100.455 17.1314V18.8579C100.383 18.8378 100.254 18.8157 100.069 18.7915C99.884 18.7634 99.6989 18.7493 99.5137 18.7493C99.0871 18.7493 98.7068 18.8398 98.3727 19.0209C98.0427 19.198 97.7811 19.4455 97.5879 19.7635C97.3948 20.0774 97.2982 20.4356 97.2982 20.8381V26.5007H95.4931ZM106.894 17.228V18.6768H101.829V17.228H106.894ZM103.187 15.0064H104.992V23.778C104.992 24.1282 105.045 24.3918 105.149 24.5689C105.254 24.7419 105.389 24.8607 105.554 24.9251C105.723 24.9854 105.906 25.0156 106.103 25.0156C106.248 25.0156 106.375 25.0056 106.483 24.9854C106.592 24.9653 106.677 24.9492 106.737 24.9371L107.063 26.4283C106.958 26.4685 106.809 26.5087 106.616 26.549C106.423 26.5933 106.182 26.6174 105.892 26.6214C105.417 26.6295 104.974 26.545 104.564 26.3679C104.153 26.1908 103.821 25.9171 103.568 25.5469C103.314 25.1766 103.187 24.7118 103.187 24.1523V15.0064ZM115.69 19.4918L114.054 19.7816C113.985 19.5723 113.877 19.3731 113.728 19.1839C113.583 18.9948 113.386 18.8398 113.136 18.7191C112.887 18.5984 112.575 18.538 112.2 18.538C111.689 18.538 111.263 18.6527 110.92 18.8821C110.578 19.1075 110.407 19.3993 110.407 19.7574C110.407 20.0673 110.522 20.3169 110.751 20.506C110.981 20.6952 111.351 20.8501 111.862 20.9709L113.335 21.3089C114.188 21.5061 114.824 21.81 115.243 22.2205C115.662 22.631 115.871 23.1643 115.871 23.8203C115.871 24.3757 115.71 24.8707 115.388 25.3054C115.07 25.736 114.625 26.0741 114.054 26.3196C113.486 26.5651 112.828 26.6878 112.08 26.6878C111.041 26.6878 110.194 26.4665 109.538 26.0238C108.882 25.577 108.48 24.9432 108.331 24.1221L110.075 23.8565C110.184 24.3113 110.407 24.6554 110.745 24.8888C111.083 25.1182 111.524 25.2329 112.068 25.2329C112.659 25.2329 113.132 25.1102 113.486 24.8647C113.84 24.6152 114.017 24.3113 114.017 23.9531C114.017 23.6633 113.909 23.4199 113.691 23.2226C113.478 23.0254 113.15 22.8765 112.707 22.7759L111.138 22.4318C110.273 22.2346 109.633 21.9207 109.218 21.49C108.808 21.0594 108.602 20.5141 108.602 19.854C108.602 19.3067 108.755 18.8278 109.061 18.4172C109.367 18.0067 109.79 17.6868 110.329 17.4574C110.868 17.2239 111.486 17.1072 112.182 17.1072C113.184 17.1072 113.973 17.3246 114.549 17.7592C115.124 18.1899 115.505 18.7674 115.69 19.4918Z" fill="#E8E8E8"/>
<path d="M121.937 26.0007V13.6371H130.558V16.0639H124.925V18.5994H130.117V21.0323H124.925V23.5739H130.558V26.0007H121.937ZM135.816 26.1335C135.132 26.1335 134.51 25.9564 133.951 25.6023C133.391 25.2481 132.944 24.7168 132.61 24.0085C132.276 23.3002 132.109 22.4208 132.109 21.3704C132.109 20.2797 132.282 19.3822 132.629 18.6779C132.975 17.9736 133.427 17.4524 133.987 17.1143C134.55 16.7763 135.156 16.6072 135.804 16.6072C136.291 16.6072 136.707 16.6918 137.054 16.8608C137.4 17.0258 137.685 17.2391 137.911 17.5007C138.136 17.7623 138.307 18.034 138.424 18.3157H138.484V13.6371H141.436V26.0007H138.515V24.4975H138.424C138.299 24.7832 138.122 25.0509 137.893 25.3004C137.663 25.5499 137.376 25.7512 137.029 25.9041C136.687 26.057 136.283 26.1335 135.816 26.1335ZM136.842 23.8334C137.2 23.8334 137.506 23.7328 137.76 23.5316C138.013 23.3263 138.209 23.0386 138.345 22.6683C138.482 22.298 138.551 21.8634 138.551 21.3643C138.551 20.8572 138.482 20.4206 138.345 20.0543C138.213 19.6881 138.017 19.4064 137.76 19.2092C137.506 19.0119 137.2 18.9133 136.842 18.9133C136.476 18.9133 136.166 19.014 135.913 19.2152C135.659 19.4164 135.466 19.7002 135.333 20.0664C135.204 20.4326 135.14 20.8653 135.14 21.3643C135.14 21.8634 135.206 22.298 135.339 22.6683C135.472 23.0386 135.663 23.3263 135.913 23.5316C136.166 23.7328 136.476 23.8334 136.842 23.8334ZM143.303 26.0007V16.728H146.255V26.0007H143.303ZM144.782 15.6474C144.368 15.6474 144.012 15.5105 143.714 15.2369C143.416 14.9592 143.267 14.6251 143.267 14.2347C143.267 13.8484 143.416 13.5183 143.714 13.2447C144.012 12.967 144.368 12.8281 144.782 12.8281C145.201 12.8281 145.557 12.967 145.851 13.2447C146.149 13.5183 146.298 13.8484 146.298 14.2347C146.298 14.6251 146.149 14.9592 145.851 15.2369C145.557 15.5105 145.201 15.6474 144.782 15.6474ZM153.368 16.728V18.9013H147.519V16.728H153.368ZM148.744 14.5064H151.696V23.0849C151.696 23.266 151.724 23.4129 151.781 23.5256C151.841 23.6342 151.928 23.7127 152.04 23.761C152.153 23.8053 152.288 23.8274 152.445 23.8274C152.557 23.8274 152.676 23.8173 152.801 23.7972C152.93 23.7731 153.026 23.7529 153.091 23.7368L153.537 25.8679C153.397 25.9081 153.197 25.9584 152.94 26.0188C152.686 26.0792 152.382 26.1174 152.028 26.1335C151.336 26.1657 150.742 26.0852 150.247 25.892C149.756 25.6948 149.38 25.389 149.118 24.9744C148.861 24.5599 148.736 24.0387 148.744 23.4109V14.5064ZM159.103 26.1758C158.129 26.1758 157.292 25.9765 156.592 25.5781C155.896 25.1757 155.359 24.6162 154.98 23.8998C154.606 23.1794 154.419 22.3443 154.419 21.3945C154.419 20.4407 154.606 19.6056 154.98 18.8892C155.359 18.1688 155.896 17.6094 156.592 17.2109C157.292 16.8085 158.129 16.6072 159.103 16.6072C160.077 16.6072 160.913 16.8085 161.609 17.2109C162.309 17.6094 162.846 18.1688 163.221 18.8892C163.599 19.6056 163.788 20.4407 163.788 21.3945C163.788 22.3443 163.599 23.1794 163.221 23.8998C162.846 24.6162 162.309 25.1757 161.609 25.5781C160.913 25.9765 160.077 26.1758 159.103 26.1758ZM159.122 23.9481C159.476 23.9481 159.776 23.8395 160.021 23.6221C160.267 23.4048 160.454 23.103 160.583 22.7166C160.715 22.3302 160.782 21.8835 160.782 21.3764C160.782 20.8613 160.715 20.4105 160.583 20.0241C160.454 19.6378 160.267 19.3359 160.021 19.1186C159.776 18.9013 159.476 18.7926 159.122 18.7926C158.755 18.7926 158.445 18.9013 158.192 19.1186C157.942 19.3359 157.751 19.6378 157.618 20.0241C157.49 20.4105 157.425 20.8613 157.425 21.3764C157.425 21.8835 157.49 22.3302 157.618 22.7166C157.751 23.103 157.942 23.4048 158.192 23.6221C158.445 23.8395 158.755 23.9481 159.122 23.9481ZM165.3 26.0007V16.728H168.168V18.4183H168.264C168.434 17.8066 168.709 17.3518 169.092 17.054C169.474 16.7521 169.919 16.6012 170.426 16.6012C170.563 16.6012 170.703 16.6113 170.848 16.6314C170.993 16.6475 171.128 16.6736 171.253 16.7099V19.2756C171.112 19.2273 170.927 19.189 170.697 19.1609C170.472 19.1327 170.271 19.1186 170.094 19.1186C169.744 19.1186 169.428 19.1971 169.146 19.354C168.868 19.507 168.649 19.7223 168.488 20C168.331 20.2737 168.252 20.5956 168.252 20.9659V26.0007H165.3ZM183.678 18.1165H180.66C180.62 17.8066 180.537 17.5269 180.412 17.2773C180.288 17.0278 180.123 16.8145 179.917 16.6374C179.712 16.4603 179.469 16.3255 179.187 16.2329C178.909 16.1364 178.601 16.0881 178.263 16.0881C177.663 16.0881 177.146 16.235 176.712 16.5288C176.281 16.8226 175.949 17.2471 175.716 17.8025C175.486 18.3579 175.371 19.0301 175.371 19.8189C175.371 20.6399 175.488 21.3281 175.722 21.8835C175.959 22.4349 176.291 22.8514 176.718 23.1332C177.148 23.4109 177.657 23.5497 178.245 23.5497C178.575 23.5497 178.875 23.5074 179.145 23.4229C179.418 23.3384 179.658 23.2157 179.863 23.0547C180.072 22.8897 180.243 22.6904 180.376 22.457C180.513 22.2196 180.608 21.9519 180.66 21.6541L183.678 21.6722C183.626 22.2196 183.467 22.7589 183.201 23.2901C182.94 23.8214 182.58 24.3063 182.121 24.745C181.662 25.1797 181.103 25.5258 180.442 25.7834C179.786 26.0409 179.034 26.1697 178.185 26.1697C177.066 26.1697 176.064 25.9242 175.178 25.4332C174.297 24.9382 173.601 24.2178 173.09 23.272C172.578 22.3262 172.323 21.1752 172.323 19.8189C172.323 18.4586 172.582 17.3055 173.102 16.3597C173.621 15.4139 174.323 14.6955 175.208 14.2045C176.094 13.7135 177.086 13.468 178.185 13.468C178.933 13.468 179.625 13.5727 180.261 13.782C180.897 13.9872 181.457 14.2891 181.94 14.6875C182.423 15.0819 182.815 15.5669 183.117 16.1424C183.419 16.7179 183.606 17.3759 183.678 18.1165ZM189.717 26.1758C188.743 26.1758 187.906 25.9765 187.205 25.5781C186.509 25.1757 185.972 24.6162 185.594 23.8998C185.219 23.1794 185.032 22.3443 185.032 21.3945C185.032 20.4407 185.219 19.6056 185.594 18.8892C185.972 18.1688 186.509 17.6094 187.205 17.2109C187.906 16.8085 188.743 16.6072 189.717 16.6072C190.691 16.6072 191.526 16.8085 192.222 17.2109C192.922 17.6094 193.46 18.1688 193.834 18.8892C194.212 19.6056 194.401 20.4407 194.401 21.3945C194.401 22.3443 194.212 23.1794 193.834 23.8998C193.46 24.6162 192.922 25.1757 192.222 25.5781C191.526 25.9765 190.691 26.1758 189.717 26.1758ZM189.735 23.9481C190.089 23.9481 190.389 23.8395 190.634 23.6221C190.88 23.4048 191.067 23.103 191.196 22.7166C191.329 22.3302 191.395 21.8835 191.395 21.3764C191.395 20.8613 191.329 20.4105 191.196 20.0241C191.067 19.6378 190.88 19.3359 190.634 19.1186C190.389 18.9013 190.089 18.7926 189.735 18.7926C189.369 18.7926 189.059 18.9013 188.805 19.1186C188.556 19.3359 188.364 19.6378 188.232 20.0241C188.103 20.4105 188.038 20.8613 188.038 21.3764C188.038 21.8835 188.103 22.3302 188.232 22.7166C188.364 23.103 188.556 23.4048 188.805 23.6221C189.059 23.8395 189.369 23.9481 189.735 23.9481ZM198.866 20.7123V26.0007H195.914V16.728H198.721V18.4304H198.823C199.029 17.8629 199.379 17.4182 199.874 17.0962C200.369 16.7702 200.958 16.6072 201.643 16.6072C202.295 16.6072 202.86 16.7541 203.339 17.0479C203.822 17.3377 204.196 17.7442 204.462 18.2674C204.732 18.7866 204.864 19.3943 204.86 20.0905V26.0007H201.908V20.6701C201.912 20.1549 201.782 19.7525 201.516 19.4627C201.254 19.1729 200.89 19.028 200.423 19.028C200.113 19.028 199.84 19.0965 199.602 19.2333C199.369 19.3661 199.188 19.5573 199.059 19.8068C198.934 20.0563 198.87 20.3582 198.866 20.7123ZM211.958 16.728V18.9013H205.994V16.728H211.958ZM207.237 26.0007V16.2571C207.237 15.5407 207.372 14.9471 207.642 14.4762C207.912 14.0013 208.286 13.6471 208.765 13.4137C209.244 13.1762 209.797 13.0575 210.425 13.0575C210.835 13.0575 211.222 13.0897 211.584 13.1541C211.95 13.2145 212.222 13.2688 212.399 13.3171L211.928 15.4783C211.819 15.4421 211.687 15.4119 211.53 15.3878C211.377 15.3636 211.232 15.3516 211.095 15.3516C210.749 15.3516 210.511 15.428 210.383 15.581C210.254 15.7339 210.189 15.9432 210.189 16.2088V26.0007H207.237ZM213.378 26.0007V16.728H216.331V26.0007H213.378ZM214.858 15.6474C214.443 15.6474 214.087 15.5105 213.789 15.2369C213.491 14.9592 213.342 14.6251 213.342 14.2347C213.342 13.8484 213.491 13.5183 213.789 13.2447C214.087 12.967 214.443 12.8281 214.858 12.8281C215.276 12.8281 215.632 12.967 215.926 13.2447C216.224 13.5183 216.373 13.8484 216.373 14.2347C216.373 14.6251 216.224 14.9592 215.926 15.2369C215.632 15.5105 215.276 15.6474 214.858 15.6474ZM222.532 29.6712C221.651 29.6712 220.896 29.5484 220.268 29.3029C219.64 29.0574 219.147 28.7213 218.789 28.2947C218.431 27.8681 218.216 27.3852 218.143 26.8459L220.938 26.6889C220.991 26.8781 221.087 27.0431 221.228 27.1839C221.373 27.3248 221.56 27.4335 221.789 27.5099C222.023 27.5864 222.297 27.6246 222.61 27.6246C223.105 27.6246 223.514 27.5039 223.836 27.2624C224.162 27.025 224.325 26.6084 224.325 26.0128V24.3828H224.222C224.106 24.6685 223.929 24.9241 223.691 25.1495C223.454 25.3749 223.158 25.552 222.804 25.6807C222.453 25.8095 222.051 25.8739 221.596 25.8739C220.92 25.8739 220.3 25.717 219.737 25.403C219.177 25.0851 218.729 24.5941 218.391 23.93C218.057 23.2619 217.89 22.4027 217.89 21.3523C217.89 20.2696 218.063 19.3782 218.409 18.6779C218.755 17.9736 219.208 17.4524 219.767 17.1143C220.331 16.7763 220.936 16.6072 221.584 16.6072C222.071 16.6072 222.488 16.6918 222.834 16.8608C223.184 17.0258 223.472 17.2391 223.697 17.5007C223.922 17.7623 224.094 18.034 224.21 18.3157H224.295V16.728H227.235V26.0369C227.235 26.8217 227.038 27.4838 226.643 28.0231C226.249 28.5624 225.697 28.9709 224.989 29.2486C224.281 29.5303 223.462 29.6712 222.532 29.6712ZM222.623 23.7248C222.981 23.7248 223.287 23.6302 223.54 23.441C223.794 23.2519 223.989 22.9802 224.126 22.6261C224.263 22.2719 224.331 21.8473 224.331 21.3523C224.331 20.8492 224.263 20.4165 224.126 20.0543C223.993 19.6881 223.798 19.4064 223.54 19.2092C223.287 19.0119 222.981 18.9133 222.623 18.9133C222.256 18.9133 221.946 19.014 221.693 19.2152C221.439 19.4164 221.246 19.7002 221.113 20.0664C220.985 20.4286 220.92 20.8572 220.92 21.3523C220.92 21.8473 220.987 22.2719 221.119 22.6261C221.252 22.9802 221.443 23.2519 221.693 23.441C221.946 23.6302 222.256 23.7248 222.623 23.7248Z" fill="#E0EFEF"/>
</g>
<defs>
<filter id="filter0_d_1_56" x="2.39972" y="0.39972" width="39.202" height="39.202" filterUnits="userSpaceOnUse" color-interpolation-filters="sRGB">
<feFlood flood-opacity="0" result="BackgroundImageFix"/>
<feColorMatrix in="SourceAlpha" type="matrix" values="0 0 0 0 0 0 0 0 0 0 0 0 0 0 0 0 0 0 127 0" result="hardAlpha"/>
<feOffset/>
<feGaussianBlur stdDeviation="2.80014"/>
<feComposite in2="hardAlpha" operator="out"/>
<feColorMatrix type="matrix" values="0 0 0 0 0 0 0 0 0 0 0 0 0 0 0 0 0 0 0.25 0"/>
<feBlend mode="normal" in2="BackgroundImageFix" result="effect1_dropShadow_1_56"/>
<feBlend mode="normal" in="SourceGraphic" in2="effect1_dropShadow_1_56" result="shape"/>
</filter>
<filter id="filter1_d_1_56" x="36.2871" y="3.78642" width="198.429" height="32.4286" filterUnits="userSpaceOnUse" color-interpolation-filters="sRGB">
<feFlood flood-opacity="0" result="BackgroundImageFix"/>
<feColorMatrix in="SourceAlpha" type="matrix" values="0 0 0 0 0 0 0 0 0 0 0 0 0 0 0 0 0 0 127 0" result="hardAlpha"/>
<feOffset/>
<feGaussianBlur stdDeviation="2.85714"/>
<feComposite in2="hardAlpha" operator="out"/>
<feColorMatrix type="matrix" values="0 0 0 0 0 0 0 0 0 0 0 0 0 0 0 0 0 0 0.25 0"/>
<feBlend mode="normal" in2="BackgroundImageFix" result="effect1_dropShadow_1_56"/>
<feBlend mode="normal" in="SourceGraphic" in2="effect1_dropShadow_1_56" result="shape"/>
</filter>
<linearGradient id="paint0_linear_1_56" x1="118.501" y1="0" x2="118.501" y2="40.0014" gradientUnits="userSpaceOnUse">
<stop stop-color="#84C0C0"/>
<stop offset="1" stop-color="#478989"/>
</linearGradient>
</defs>
</svg>
