<svg width="180" height="56" viewBox="0 0 180 56" fill="none" xmlns="http://www.w3.org/2000/svg">
<rect width="180" height="56" rx="8" fill="url(#paint0_linear_1_50)"/>
<rect x="1.05" y="1.05" width="177.9" height="53.9" rx="6.95" stroke="white" stroke-opacity="0.15" stroke-width="2.1"/>
<g filter="url(#filter0_d_1_50)">
<path d="M21.5625 31.375C22.125 31 22.625 30.0625 22.3125 29.375C21.5625 29.75 21.625 30.5 21.5625 31.375Z" fill="#E3E3F8"/>
<path d="M30.4375 33.5C31.0625 33.3125 31.6875 32.625 31.3125 31.875C30.875 32.1875 30.5625 32.6875 30.4375 33.5Z" fill="#E3E3F8"/>
<path d="M13 43.8125C13 44.625 13.1875 45.4375 13.75 45.75C15.75 46.875 22.875 46 25.25 45.4375C26.5 45.125 27.5625 44.1875 28.6875 43.6875C31.375 42.5 33.3125 41.5625 35.4375 40.0625C37 38.9375 39.4375 35.75 39.6875 33.8125L37.625 33.375C37.5625 35.5 37.0625 36 35.1875 36.5C33.875 36.875 31.375 36.9375 30.0625 36.6875C28.3125 36.375 27.5625 35.5 26.75 34.4375C25.25 32.4375 27.0625 31 24.6875 30.875C22.1875 34 17.6875 31.75 15.75 31.4375C14.9375 32.625 12.9375 40.5 13 42.3125C14.1875 41.875 15 42.375 16.0625 42.75C19.875 44.25 16.5625 45.5625 15 45.1875C13.9375 44.9375 13.625 44.25 13 43.8125Z" fill="#FDFDFD"/>
<path d="M18.0625 25.9375C19.625 26.25 21 26.875 22.3125 27.5625C24.5 28.625 24.875 28.5 25.0625 30C25.0625 30.25 25.0625 30.4375 25.8125 30.6875C27.125 31.125 25.0625 30.375 28.5625 30.375C30.6875 30.375 35.5 31.25 37.0625 32.25C37.6875 32.6875 37.5625 33.1875 39.75 33.125C39.75 30.5625 39.0625 26.6875 38 24.3125C36.75 21.4375 35.125 21 31.8125 19.9375C29.875 19.3125 24.1875 18.625 22.375 19.75C20.6875 20.8125 20.375 22 18.875 24.1875C18.5 24.6875 18.3125 25.1875 18.0625 25.9375Z" fill="#FDFDFD"/>
<path d="M31.75 31.1875C33 31.6875 31.6875 35 29.9375 34.1875C29.375 32.625 30.6875 31.6875 31.0625 31C30.3125 30.875 28.1875 30.5625 27.5625 30.8125C26.75 31.125 26.5625 32.875 27 33.6875C29 37.625 37.8125 36.75 36.875 33.75C36.5 32.5 36.125 32.3125 34.875 31.875C33.875 31.5625 32.875 31.1875 31.75 31.1875Z" fill="#FDFDFD"/>
<path d="M16.125 30.75C17.125 31.6875 19.375 31.875 20.8125 31.9375C21 30 21.1875 28.5625 22.6875 28.6875C23.4375 29.75 23.0625 30.9375 22.25 31.75C23.625 31.75 24.375 30.6875 24.1875 29.25C23.0625 28.4375 19.5625 26.75 17.8125 26.5625C17.375 27.0625 16.1875 29.875 16.125 30.75Z" fill="#FDFDFD"/>
<path d="M13.75 43.125C14.5625 43.0625 16.6875 43.6875 16.875 44.375C15.5625 44.5 13.875 44.375 13.75 43.125ZM13 43.8125C13.625 44.25 13.9375 44.9375 15 45.1875C16.5625 45.5625 19.875 44.25 16.0625 42.75C15 42.3125 14.1875 41.875 13 42.3125C13 40.5 14.9375 32.6875 15.75 31.4375C17.6875 31.75 22.1875 34 24.6875 30.875C27.125 31 25.25 32.4375 26.75 34.4375C27.5625 35.5 28.3125 36.375 30.0625 36.6875C31.375 36.9375 33.875 36.8125 35.1875 36.5C37.125 36 37.5625 35.5 37.625 33.375L39.75 33.875C39.5 35.8125 37.0625 39 35.5 40.125C33.375 41.6875 31.4375 42.625 28.75 43.75C27.5625 44.25 26.5625 45.1875 25.3125 45.5C22.875 46.0625 15.8125 46.9375 13.8125 45.8125C13.1875 45.4375 13 44.625 13 43.8125ZM30.4375 33.5C30.5 32.6875 30.8125 32.1875 31.3125 31.875C31.6875 32.625 31.0625 33.3125 30.4375 33.5ZM31.75 31.1875C32.875 31.1875 33.875 31.5625 34.875 31.875C36.125 32.3125 36.5 32.5 36.875 33.75C37.8125 36.8125 29 37.625 27 33.6875C26.5625 32.875 26.75 31.125 27.5625 30.8125C28.1875 30.5625 30.3125 30.9375 31.0625 31C30.75 31.75 29.4375 32.625 30 34.25C31.6875 35 33 31.75 31.75 31.1875ZM21.5625 31.375C21.5625 30.5 21.5625 29.75 22.3125 29.375C22.625 30.0625 22.1875 31 21.5625 31.375ZM16.125 30.75C16.1875 29.875 17.375 27 17.875 26.5C19.625 26.75 23.125 28.375 24.25 29.1875C24.4375 30.6875 23.6875 31.6875 22.3125 31.6875C23.125 30.875 23.5 29.6875 22.75 28.625C21.1875 28.5 21.0625 29.9375 20.875 31.875C19.375 31.875 17.125 31.75 16.125 30.75ZM14.875 29.75C14.4375 28.5 14.4375 26.5 16.375 26.3125L15.375 29.0625C15.0625 29.75 15.0625 29.625 14.875 29.75ZM18.0625 25.9375C18.375 25.1875 18.5 24.75 18.9375 24.0625C20.5 21.875 20.8125 20.6875 22.4375 19.625C24.1875 18.5 29.9375 19.1875 31.875 19.8125C35.1875 20.875 36.8125 21.3125 38.0625 24.1875C39.0625 26.5625 39.75 30.4375 39.8125 33C37.625 33.0625 37.75 32.5625 37.125 32.125C35.5625 31.125 30.75 30.3125 28.625 30.25C25.0625 30.25 27.1875 31 25.875 30.5625C25.0625 30.3125 25.125 30.1875 25.125 29.875C24.9375 28.375 24.5625 28.5 22.375 27.4375C21 26.875 19.625 26.1875 18.0625 25.9375ZM40.125 25.3125C39.875 24.5 40.3125 24.5625 41.0625 24.0625C41.5 23.75 41.875 23.4375 42.375 23.125C44.375 22 48.125 21.8125 49.75 23.125C50.375 23.6875 51.4375 24.6875 51.3125 26.0625C51 28.8125 49.125 30.3125 47.5625 31.5625C46 32.8125 43.4375 34.125 40.75 33.25C40.5 32.6875 40.6875 29.25 40.4375 27.9375C40.1875 26.8125 40.3125 26.6875 41 26C42.9375 24 47.1875 22.5 49.5625 24.25C50.5625 25 50.3125 25.3125 50.8125 25.875C51.4375 25.1875 50.25 22.8125 45.8125 23C42.6875 23.0625 41.375 25.4375 40.125 25.3125ZM21.9375 18.1875C22 16.4375 23.625 12.875 25.1875 11.625C27.125 10.125 29.125 8.75 32.125 10.375C32.875 10.8125 32.8125 11 32.875 12C32.9375 13 32.875 13.375 32.625 14.125C30.625 20.5 29 16.8125 22.6875 18.3125C22.9375 16.25 24.75 14.375 25.6875 13.4375C27.375 11.75 28.625 10.6875 31.1875 11.0625C31.875 12.25 32 13 31.125 14.375C30 16.25 29.6875 16.125 29.875 17.375C30.75 17.125 31.0625 16.25 31.4375 15.375C33.9375 10.125 30.3125 9.5 28.0625 10.4375C26.5625 11.0625 23.875 14 23 15.8125C22.8125 16.1875 22.625 16.625 22.5 17L21.9375 18.1875ZM31.8125 18.4375C32.0625 16.875 33.625 16.5 33.625 11.6875C33.625 9.625 31.0625 7.75 27.75 9.125C24.875 10.3125 24.4375 11.1875 22.9375 13.5C21.5 15.6875 21.5625 18.0625 20.3125 20.0625C19.9375 20.625 19.625 20.8125 19.25 21.4375C18.9375 21.875 18.75 22.375 18.4375 22.875C17.875 23.8125 17.25 24.5625 16.75 25.6875C15.25 25.75 14 25.75 13.875 27.3125C13.6875 29.4375 14.6875 29.9375 14.6875 30.75C14.6875 31.625 11.1875 40.3125 12.1875 45.4375C12.4375 46.875 13.375 46.875 14.875 47.0625C18.5 47.5 23.125 47.375 26.375 46.0625L32.25 43.25C33.75 42.4375 36.25 40.8125 37.3125 39.6875C38.125 38.875 38.5 38.1875 39.1875 37.25C40.125 35.875 40.125 35.9375 40.3125 34.125C41.5625 34.375 43.8125 34.875 44.5625 35.5625C44.5 36.4375 44.0625 36 44.0625 36.8125C44.5625 36.8125 45.375 36.1875 45.5625 35.5625C45.0625 34.8125 44.5 34.9375 43.75 34.3125C44.3125 33.875 45.375 33.625 46.1875 33.3125C47.9375 32.5625 50.9375 30.375 51.625 28.375C52.1875 26.75 51.75 24.0625 50.8125 23.0625C49.8125 21.9375 47.5 21.375 45.625 21.375C43.375 21.375 41.0625 23 39.1875 23.6875C38.5 23.0625 38.4375 22.375 37.9375 21.6875C37.5 20.875 33.625 18.875 31.8125 18.4375Z" fill="#020202"/>
<path d="M40.125 25.3125C41.375 25.4375 42.6875 23.0625 45.75 22.9375C50.1875 22.8125 51.4375 25.125 50.75 25.8125C50.25 25.25 50.5 24.9375 49.5 24.1875C47.125 22.4375 42.875 23.9375 40.9375 25.9375C40.25 26.625 40.125 26.75 40.375 27.875C40.625 29.1875 40.4375 32.625 40.6875 33.1875C43.375 34.0625 45.9375 32.75 47.5 31.5C49.0625 30.25 50.875 28.75 51.25 26C51.4375 24.625 50.375 23.5625 49.6875 23.0625C48.0625 21.75 44.375 21.9375 42.3125 23.0625C41.75 23.375 41.4375 23.6875 41 24C40.3125 24.5625 39.875 24.5 40.125 25.3125Z" fill="#FDF2F2"/>
<path d="M21.9375 18.1875L22.5625 17.125C22.75 16.75 22.9375 16.3125 23.0625 15.9375C23.9375 14.1875 26.625 11.25 28.125 10.5625C30.375 9.625 34 10.25 31.5 15.5C31.0625 16.375 30.8125 17.25 29.9375 17.5C29.75 16.25 30.0625 16.375 31.1875 14.5C32.0625 13.125 32 12.375 31.25 11.1875C28.6875 10.8125 27.4375 11.9375 25.75 13.5625C24.75 14.5 22.9375 16.375 22.75 18.4375C29.0625 16.9375 30.6875 20.5625 32.6875 14.25C32.9375 13.4375 33 13.0625 32.9375 12.125C32.875 11.125 32.875 10.875 32.1875 10.5C29.25 8.8125 27.1875 10.25 25.25 11.75C23.625 12.875 22 16.5 21.9375 18.1875Z" fill="#FEF3F3"/>
<path d="M14.875 29.75C15.125 29.5625 15.125 29.6875 15.375 29.125L16.375 26.375C14.375 26.5 14.375 28.5 14.875 29.75Z" fill="#EFEFEF"/>
<path d="M16.875 44.375C16.6875 43.6875 14.5625 43.0625 13.75 43.125C13.875 44.375 15.5625 44.5 16.875 44.375Z" fill="#FAF1F1"/>
</g>
<g filter="url(#filter1_d_1_50)">
<path d="M67.625 15.9204C67.5644 15.3826 67.3144 14.9659 66.875 14.6704C66.4356 14.3712 65.8826 14.2216 65.2159 14.2216C64.7386 14.2216 64.3257 14.2973 63.9773 14.4489C63.6288 14.5966 63.3579 14.8011 63.1648 15.0625C62.9754 15.3201 62.8807 15.6136 62.8807 15.9432C62.8807 16.2197 62.9451 16.4583 63.0738 16.6591C63.2064 16.8598 63.3788 17.0284 63.5909 17.1648C63.8068 17.2973 64.0379 17.4091 64.2841 17.5C64.5303 17.5871 64.767 17.6591 64.9943 17.7159L66.1307 18.0114C66.5019 18.1023 66.8826 18.2254 67.2727 18.3807C67.6629 18.536 68.0246 18.7405 68.3579 18.9943C68.6913 19.2481 68.9602 19.5625 69.1648 19.9375C69.3731 20.3125 69.4773 20.7614 69.4773 21.2841C69.4773 21.9432 69.3068 22.5284 68.9659 23.0398C68.6288 23.5511 68.1382 23.9545 67.4943 24.25C66.8541 24.5454 66.0795 24.6932 65.1704 24.6932C64.2992 24.6932 63.5454 24.5549 62.9091 24.2784C62.2727 24.0019 61.7746 23.6098 61.4148 23.1023C61.0549 22.5909 60.856 21.9848 60.8182 21.2841H62.5795C62.6136 21.7045 62.75 22.0549 62.9886 22.3352C63.231 22.6117 63.5398 22.8182 63.9148 22.9545C64.2935 23.0871 64.7083 23.1534 65.1591 23.1534C65.6553 23.1534 66.0966 23.0758 66.4829 22.9204C66.8731 22.7614 67.1799 22.5417 67.4034 22.2614C67.6269 21.9773 67.7386 21.6458 67.7386 21.267C67.7386 20.9223 67.6401 20.6401 67.4432 20.4204C67.25 20.2008 66.9867 20.0189 66.6534 19.875C66.3238 19.7311 65.9507 19.6042 65.5341 19.4943L64.1591 19.1193C63.2273 18.8655 62.4886 18.4924 61.9432 18C61.4015 17.5076 61.1307 16.8561 61.1307 16.0454C61.1307 15.375 61.3125 14.7898 61.6761 14.2898C62.0398 13.7898 62.5322 13.4015 63.1534 13.125C63.7746 12.8447 64.4754 12.7045 65.2557 12.7045C66.0435 12.7045 66.7386 12.8428 67.3409 13.1193C67.947 13.3958 68.4242 13.7765 68.7727 14.2614C69.1212 14.7424 69.303 15.2954 69.3182 15.9204H67.625ZM76.9673 20.8807V15.7727H78.6719V24.5H77.0014V22.9886H76.9105C76.7097 23.4545 76.3878 23.8428 75.9446 24.1534C75.5052 24.4602 74.9578 24.6136 74.3025 24.6136C73.7419 24.6136 73.2457 24.4905 72.8139 24.2443C72.3859 23.9943 72.0488 23.625 71.8025 23.1364C71.5601 22.6477 71.4389 22.0436 71.4389 21.3239V15.7727H73.1378V21.1193C73.1378 21.714 73.3025 22.1875 73.6321 22.5398C73.9616 22.892 74.3897 23.0682 74.9162 23.0682C75.2344 23.0682 75.5506 22.9886 75.865 22.8295C76.1832 22.6704 76.4465 22.4299 76.6548 22.1079C76.8669 21.786 76.9711 21.3769 76.9673 20.8807ZM80.9545 27.7727V15.7727H82.6136V17.1875H82.7557C82.8541 17.0057 82.9962 16.7954 83.1818 16.5568C83.3674 16.3182 83.625 16.1098 83.9545 15.9318C84.2841 15.75 84.7197 15.6591 85.2613 15.6591C85.9659 15.6591 86.5947 15.8371 87.1477 16.1932C87.7007 16.5492 88.1344 17.0625 88.4488 17.7329C88.767 18.4034 88.9261 19.2102 88.9261 20.1534C88.9261 21.0966 88.7689 21.9053 88.4545 22.5795C88.1401 23.25 87.7083 23.767 87.1591 24.1307C86.6098 24.4905 85.9829 24.6704 85.2784 24.6704C84.7481 24.6704 84.3144 24.5814 83.9773 24.4034C83.6439 24.2254 83.3826 24.017 83.1932 23.7784C83.0038 23.5398 82.8579 23.3276 82.7557 23.142H82.6534V27.7727H80.9545ZM82.6193 20.1364C82.6193 20.75 82.7083 21.2879 82.8863 21.75C83.0644 22.2121 83.3219 22.5739 83.6591 22.8352C83.9962 23.0928 84.4091 23.2216 84.8977 23.2216C85.4053 23.2216 85.8295 23.0871 86.1704 22.8182C86.5113 22.5454 86.7689 22.1761 86.9432 21.7102C87.1212 21.2443 87.2102 20.7197 87.2102 20.1364C87.2102 19.5606 87.1231 19.0436 86.9488 18.5852C86.7784 18.1269 86.5208 17.7651 86.1761 17.5C85.8352 17.2348 85.4091 17.1023 84.8977 17.1023C84.4053 17.1023 83.9886 17.2292 83.6477 17.4829C83.3106 17.7367 83.0549 18.0909 82.8807 18.5454C82.7064 19 82.6193 19.5303 82.6193 20.1364ZM90.8295 27.7727V15.7727H92.4886V17.1875H92.6307C92.7291 17.0057 92.8712 16.7954 93.0568 16.5568C93.2424 16.3182 93.5 16.1098 93.8295 15.9318C94.1591 15.75 94.5947 15.6591 95.1363 15.6591C95.8409 15.6591 96.4697 15.8371 97.0227 16.1932C97.5757 16.5492 98.0094 17.0625 98.3238 17.7329C98.642 18.4034 98.8011 19.2102 98.8011 20.1534C98.8011 21.0966 98.6439 21.9053 98.3295 22.5795C98.0151 23.25 97.5833 23.767 97.0341 24.1307C96.4848 24.4905 95.8579 24.6704 95.1534 24.6704C94.6231 24.6704 94.1894 24.5814 93.8522 24.4034C93.5189 24.2254 93.2576 24.017 93.0682 23.7784C92.8788 23.5398 92.7329 23.3276 92.6307 23.142H92.5284V27.7727H90.8295ZM92.4943 20.1364C92.4943 20.75 92.5833 21.2879 92.7613 21.75C92.9394 22.2121 93.1969 22.5739 93.5341 22.8352C93.8712 23.0928 94.2841 23.2216 94.7727 23.2216C95.2803 23.2216 95.7045 23.0871 96.0454 22.8182C96.3863 22.5454 96.6439 22.1761 96.8182 21.7102C96.9962 21.2443 97.0852 20.7197 97.0852 20.1364C97.0852 19.5606 96.9981 19.0436 96.8238 18.5852C96.6534 18.1269 96.3958 17.7651 96.0511 17.5C95.7102 17.2348 95.2841 17.1023 94.7727 17.1023C94.2803 17.1023 93.8636 17.2292 93.5227 17.4829C93.1856 17.7367 92.9299 18.0909 92.7557 18.5454C92.5814 19 92.4943 19.5303 92.4943 20.1364ZM104.381 24.6761C103.562 24.6761 102.848 24.4886 102.239 24.1136C101.629 23.7386 101.155 23.214 100.818 22.5398C100.481 21.8655 100.312 21.0776 100.312 20.1761C100.312 19.2708 100.481 18.4792 100.818 17.8011C101.155 17.1231 101.629 16.5966 102.239 16.2216C102.848 15.8466 103.562 15.6591 104.381 15.6591C105.199 15.6591 105.913 15.8466 106.523 16.2216C107.133 16.5966 107.606 17.1231 107.943 17.8011C108.28 18.4792 108.449 19.2708 108.449 20.1761C108.449 21.0776 108.28 21.8655 107.943 22.5398C107.606 23.214 107.133 23.7386 106.523 24.1136C105.913 24.4886 105.199 24.6761 104.381 24.6761ZM104.386 23.25C104.917 23.25 105.356 23.1098 105.705 22.8295C106.053 22.5492 106.311 22.1761 106.477 21.7102C106.648 21.2443 106.733 20.7311 106.733 20.1704C106.733 19.6136 106.648 19.1023 106.477 18.6364C106.311 18.1667 106.053 17.7898 105.705 17.5057C105.356 17.2216 104.917 17.0795 104.386 17.0795C103.852 17.0795 103.409 17.2216 103.057 17.5057C102.708 17.7898 102.449 18.1667 102.278 18.6364C102.112 19.1023 102.028 19.6136 102.028 20.1704C102.028 20.7311 102.112 21.2443 102.278 21.7102C102.449 22.1761 102.708 22.5492 103.057 22.8295C103.409 23.1098 103.852 23.25 104.386 23.25ZM110.345 24.5V15.7727H111.987V17.1591H112.078C112.237 16.6894 112.517 16.3201 112.919 16.0511C113.324 15.7784 113.783 15.642 114.294 15.642C114.4 15.642 114.525 15.6458 114.669 15.6534C114.817 15.661 114.932 15.6704 115.016 15.6818V17.3068C114.947 17.2879 114.826 17.267 114.652 17.2443C114.478 17.2178 114.303 17.2045 114.129 17.2045C113.728 17.2045 113.37 17.2898 113.055 17.4602C112.745 17.6269 112.499 17.8598 112.317 18.1591C112.135 18.4545 112.044 18.7917 112.044 19.1704V24.5H110.345ZM121.075 15.7727V17.1364H116.308V15.7727H121.075ZM117.587 13.6818H119.285V21.9375C119.285 22.267 119.335 22.5151 119.433 22.6818C119.532 22.8447 119.659 22.9564 119.814 23.017C119.973 23.0739 120.145 23.1023 120.331 23.1023C120.467 23.1023 120.587 23.0928 120.689 23.0739C120.791 23.0549 120.871 23.0398 120.928 23.0284L121.234 24.4318C121.136 24.4697 120.996 24.5076 120.814 24.5454C120.632 24.5871 120.405 24.6098 120.132 24.6136C119.685 24.6212 119.268 24.5417 118.882 24.375C118.496 24.2083 118.183 23.9508 117.945 23.6023C117.706 23.2538 117.587 22.8163 117.587 22.2898V13.6818ZM129.354 17.9034L127.814 18.1761C127.749 17.9792 127.647 17.7917 127.507 17.6136C127.371 17.4356 127.185 17.2898 126.95 17.1761C126.715 17.0625 126.422 17.0057 126.07 17.0057C125.589 17.0057 125.187 17.1136 124.865 17.3295C124.543 17.5417 124.382 17.8163 124.382 18.1534C124.382 18.4451 124.49 18.6799 124.706 18.8579C124.922 19.036 125.27 19.1818 125.751 19.2954L127.138 19.6136C127.941 19.7992 128.539 20.0852 128.933 20.4716C129.327 20.8579 129.524 21.3598 129.524 21.9773C129.524 22.5 129.373 22.9659 129.07 23.375C128.77 23.7803 128.352 24.0985 127.814 24.3295C127.28 24.5606 126.66 24.6761 125.956 24.6761C124.979 24.6761 124.181 24.4678 123.564 24.0511C122.946 23.6307 122.568 23.0341 122.428 22.2614L124.07 22.0114C124.172 22.4394 124.382 22.7633 124.7 22.9829C125.018 23.1989 125.433 23.3068 125.945 23.3068C126.501 23.3068 126.946 23.1913 127.28 22.9602C127.613 22.7254 127.78 22.4394 127.78 22.1023C127.78 21.8295 127.678 21.6004 127.473 21.4148C127.272 21.2292 126.964 21.089 126.547 20.9943L125.07 20.6704C124.255 20.4848 123.653 20.1894 123.263 19.7841C122.876 19.3788 122.683 18.8655 122.683 18.2443C122.683 17.7292 122.827 17.2784 123.115 16.892C123.403 16.5057 123.801 16.2045 124.308 15.9886C124.816 15.7689 125.397 15.6591 126.053 15.6591C126.996 15.6591 127.738 15.8636 128.28 16.2727C128.821 16.678 129.179 17.2216 129.354 17.9034Z" fill="#E8E8E8"/>
<path d="M60.9357 43.5V31.1364H69.5564V33.5632H63.924V36.0987H69.1157V38.5316H63.924V41.0731H69.5564V43.5H60.9357ZM74.8146 43.6328C74.1304 43.6328 73.5086 43.4557 72.9492 43.1016C72.3898 42.7474 71.943 42.2161 71.609 41.5078C71.275 40.7995 71.1079 39.9201 71.1079 38.8697C71.1079 37.779 71.281 36.8815 71.6271 36.1772C71.9732 35.4729 72.426 34.9517 72.9854 34.6136C73.5489 34.2756 74.1546 34.1065 74.8025 34.1065C75.2895 34.1065 75.7061 34.191 76.0522 34.3601C76.3983 34.5251 76.684 34.7384 76.9094 35C77.1348 35.2616 77.3059 35.5333 77.4226 35.815H77.4829V31.1364H80.435V43.5H77.5131V41.9968H77.4226C77.2978 42.2825 77.1207 42.5502 76.8913 42.7997C76.6619 43.0492 76.3742 43.2505 76.028 43.4034C75.6859 43.5563 75.2815 43.6328 74.8146 43.6328ZM75.8409 41.3327C76.1991 41.3327 76.505 41.2321 76.7585 41.0309C77.0121 40.8256 77.2072 40.5379 77.3441 40.1676C77.4809 39.7973 77.5493 39.3627 77.5493 38.8636C77.5493 38.3565 77.4809 37.9199 77.3441 37.5536C77.2113 37.1874 77.0161 36.9056 76.7585 36.7084C76.505 36.5112 76.1991 36.4126 75.8409 36.4126C75.4746 36.4126 75.1648 36.5132 74.9112 36.7145C74.6577 36.9157 74.4645 37.1994 74.3317 37.5657C74.2029 37.9319 74.1385 38.3646 74.1385 38.8636C74.1385 39.3627 74.2049 39.7973 74.3377 40.1676C74.4705 40.5379 74.6617 40.8256 74.9112 41.0309C75.1648 41.2321 75.4746 41.3327 75.8409 41.3327ZM82.3019 43.5V34.2273H85.254V43.5H82.3019ZM83.781 33.1467C83.3664 33.1467 83.0102 33.0098 82.7124 32.7361C82.4146 32.4584 82.2657 32.1244 82.2657 31.734C82.2657 31.3476 82.4146 31.0176 82.7124 30.744C83.0102 30.4663 83.3664 30.3274 83.781 30.3274C84.1995 30.3274 84.5557 30.4663 84.8495 30.744C85.1473 31.0176 85.2962 31.3476 85.2962 31.734C85.2962 32.1244 85.1473 32.4584 84.8495 32.7361C84.5557 33.0098 84.1995 33.1467 83.781 33.1467ZM92.367 34.2273V36.4006H86.5172V34.2273H92.367ZM87.7427 32.0057H90.6948V40.5842C90.6948 40.7653 90.7229 40.9122 90.7793 41.0248C90.8396 41.1335 90.9262 41.212 91.0389 41.2603C91.1515 41.3046 91.2864 41.3267 91.4433 41.3267C91.556 41.3267 91.6748 41.3166 91.7995 41.2965C91.9283 41.2724 92.0249 41.2522 92.0893 41.2361L92.536 43.3672C92.3952 43.4074 92.1959 43.4577 91.9384 43.5181C91.6848 43.5785 91.381 43.6167 91.0268 43.6328C90.3346 43.665 89.7409 43.5845 89.2459 43.3913C88.7549 43.1941 88.3786 42.8882 88.117 42.4737C87.8594 42.0592 87.7346 41.538 87.7427 40.9101V32.0057ZM98.1021 43.6751C97.1281 43.6751 96.291 43.4758 95.5907 43.0774C94.8944 42.6749 94.3572 42.1155 93.9788 41.3991C93.6046 40.6787 93.4174 39.8436 93.4174 38.8938C93.4174 37.94 93.6046 37.1049 93.9788 36.3885C94.3572 35.6681 94.8944 35.1087 95.5907 34.7102C96.291 34.3078 97.1281 34.1065 98.1021 34.1065C99.076 34.1065 99.9111 34.3078 100.607 34.7102C101.308 35.1087 101.845 35.6681 102.219 36.3885C102.598 37.1049 102.787 37.94 102.787 38.8938C102.787 39.8436 102.598 40.6787 102.219 41.3991C101.845 42.1155 101.308 42.6749 100.607 43.0774C99.9111 43.4758 99.076 43.6751 98.1021 43.6751ZM98.1202 41.4474C98.4743 41.4474 98.7742 41.3388 99.0197 41.1214C99.2652 40.9041 99.4523 40.6023 99.5811 40.2159C99.7139 39.8295 99.7803 39.3828 99.7803 38.8757C99.7803 38.3605 99.7139 37.9098 99.5811 37.5234C99.4523 37.1371 99.2652 36.8352 99.0197 36.6179C98.7742 36.4006 98.4743 36.2919 98.1202 36.2919C97.7539 36.2919 97.444 36.4006 97.1905 36.6179C96.941 36.8352 96.7498 37.1371 96.617 37.5234C96.4882 37.9098 96.4238 38.3605 96.4238 38.8757C96.4238 39.3828 96.4882 39.8295 96.617 40.2159C96.7498 40.6023 96.941 40.9041 97.1905 41.1214C97.444 41.3388 97.7539 41.4474 98.1202 41.4474ZM104.299 43.5V34.2273H107.167V35.9176H107.263C107.432 35.3059 107.708 34.8511 108.09 34.5533C108.473 34.2514 108.917 34.1005 109.424 34.1005C109.561 34.1005 109.702 34.1105 109.847 34.1307C109.992 34.1468 110.127 34.1729 110.251 34.2092V36.7748C110.111 36.7266 109.925 36.6883 109.696 36.6601C109.471 36.632 109.269 36.6179 109.092 36.6179C108.742 36.6179 108.426 36.6964 108.145 36.8533C107.867 37.0063 107.647 37.2216 107.486 37.4993C107.33 37.773 107.251 38.0949 107.251 38.4652V43.5H104.299ZM122.677 35.6158H119.658C119.618 35.3059 119.536 35.0261 119.411 34.7766C119.286 34.5271 119.121 34.3138 118.916 34.1367C118.711 33.9596 118.467 33.8248 118.185 33.7322C117.908 33.6356 117.6 33.5873 117.262 33.5873C116.662 33.5873 116.145 33.7342 115.71 34.028C115.28 34.3218 114.948 34.7464 114.714 35.3018C114.485 35.8572 114.37 36.5293 114.37 37.3182C114.37 38.1392 114.487 38.8274 114.72 39.3828C114.958 39.9342 115.29 40.3507 115.716 40.6324C116.147 40.9101 116.656 41.049 117.244 41.049C117.574 41.049 117.874 41.0067 118.143 40.9222C118.417 40.8377 118.656 40.715 118.862 40.554C119.071 40.389 119.242 40.1897 119.375 39.9563C119.512 39.7189 119.606 39.4512 119.658 39.1534L122.677 39.1715C122.625 39.7189 122.466 40.2582 122.2 40.7894C121.938 41.3207 121.578 41.8056 121.119 42.2443C120.661 42.679 120.101 43.0251 119.441 43.2827C118.785 43.5402 118.032 43.669 117.183 43.669C116.064 43.669 115.062 43.4235 114.177 42.9325C113.296 42.4375 112.599 41.7171 112.088 40.7713C111.577 39.8255 111.321 38.6745 111.321 37.3182C111.321 35.9578 111.581 34.8048 112.1 33.859C112.619 32.9132 113.322 32.1948 114.207 31.7038C115.093 31.2128 116.085 30.9673 117.183 30.9673C117.932 30.9673 118.624 31.072 119.26 31.2812C119.896 31.4865 120.455 31.7883 120.938 32.1868C121.421 32.5812 121.814 33.0662 122.115 33.6417C122.417 34.2172 122.604 34.8752 122.677 35.6158ZM128.715 43.6751C127.741 43.6751 126.904 43.4758 126.204 43.0774C125.508 42.6749 124.97 42.1155 124.592 41.3991C124.218 40.6787 124.031 39.8436 124.031 38.8938C124.031 37.94 124.218 37.1049 124.592 36.3885C124.97 35.6681 125.508 35.1087 126.204 34.7102C126.904 34.3078 127.741 34.1065 128.715 34.1065C129.689 34.1065 130.524 34.3078 131.221 34.7102C131.921 35.1087 132.458 35.6681 132.833 36.3885C133.211 37.1049 133.4 37.94 133.4 38.8938C133.4 39.8436 133.211 40.6787 132.833 41.3991C132.458 42.1155 131.921 42.6749 131.221 43.0774C130.524 43.4758 129.689 43.6751 128.715 43.6751ZM128.733 41.4474C129.088 41.4474 129.387 41.3388 129.633 41.1214C129.878 40.9041 130.066 40.6023 130.194 40.2159C130.327 39.8295 130.394 39.3828 130.394 38.8757C130.394 38.3605 130.327 37.9098 130.194 37.5234C130.066 37.1371 129.878 36.8352 129.633 36.6179C129.387 36.4006 129.088 36.2919 128.733 36.2919C128.367 36.2919 128.057 36.4006 127.804 36.6179C127.554 36.8352 127.363 37.1371 127.23 37.5234C127.101 37.9098 127.037 38.3605 127.037 38.8757C127.037 39.3828 127.101 39.8295 127.23 40.2159C127.363 40.6023 127.554 40.9041 127.804 41.1214C128.057 41.3388 128.367 41.4474 128.733 41.4474ZM137.864 38.2116V43.5H134.912V34.2273H137.719V35.9297H137.822C138.027 35.3622 138.377 34.9175 138.872 34.5955C139.368 34.2695 139.957 34.1065 140.641 34.1065C141.293 34.1065 141.859 34.2534 142.338 34.5472C142.821 34.837 143.195 35.2435 143.461 35.7667C143.73 36.2859 143.863 36.8936 143.859 37.5898V43.5H140.907V38.1694C140.911 37.6542 140.78 37.2518 140.515 36.962C140.253 36.6722 139.889 36.5273 139.422 36.5273C139.112 36.5273 138.838 36.5958 138.601 36.7326C138.367 36.8654 138.186 37.0566 138.057 37.3061C137.933 37.5556 137.868 37.8575 137.864 38.2116ZM150.957 34.2273V36.4006H144.992V34.2273H150.957ZM146.236 43.5V33.7564C146.236 33.04 146.371 32.4464 146.64 31.9755C146.91 31.5006 147.284 31.1464 147.763 30.913C148.242 30.6755 148.796 30.5568 149.424 30.5568C149.834 30.5568 150.22 30.589 150.583 30.6534C150.949 30.7138 151.221 30.7681 151.398 30.8164L150.927 32.9776C150.818 32.9414 150.685 32.9112 150.528 32.8871C150.375 32.8629 150.23 32.8508 150.094 32.8508C149.748 32.8508 149.51 32.9273 149.381 33.0802C149.252 33.2332 149.188 33.4425 149.188 33.7081V43.5H146.236ZM152.377 43.5V34.2273H155.329V43.5H152.377ZM153.856 33.1467C153.442 33.1467 153.085 33.0098 152.788 32.7361C152.49 32.4584 152.341 32.1244 152.341 31.734C152.341 31.3476 152.49 31.0176 152.788 30.744C153.085 30.4663 153.442 30.3274 153.856 30.3274C154.275 30.3274 154.631 30.4663 154.925 30.744C155.222 31.0176 155.371 31.3476 155.371 31.734C155.371 32.1244 155.222 32.4584 154.925 32.7361C154.631 33.0098 154.275 33.1467 153.856 33.1467ZM161.531 47.1704C160.649 47.1704 159.895 47.0477 159.267 46.8022C158.639 46.5567 158.146 46.2206 157.788 45.794C157.429 45.3674 157.214 44.8845 157.142 44.3452L159.937 44.1882C159.989 44.3774 160.086 44.5424 160.227 44.6832C160.371 44.8241 160.559 44.9328 160.788 45.0092C161.021 45.0857 161.295 45.1239 161.609 45.1239C162.104 45.1239 162.513 45.0032 162.835 44.7617C163.161 44.5243 163.324 44.1077 163.324 43.5121V41.8821H163.221C163.104 42.1678 162.927 42.4234 162.69 42.6488C162.452 42.8742 162.156 43.0512 161.802 43.18C161.452 43.3088 161.05 43.3732 160.595 43.3732C159.919 43.3732 159.299 43.2163 158.735 42.9023C158.176 42.5844 157.727 42.0934 157.389 41.4293C157.055 40.7612 156.888 39.902 156.888 38.8516C156.888 37.7689 157.061 36.8775 157.407 36.1772C157.753 35.4729 158.206 34.9517 158.766 34.6136C159.329 34.2756 159.935 34.1065 160.583 34.1065C161.07 34.1065 161.486 34.191 161.832 34.3601C162.183 34.5251 162.47 34.7384 162.696 35C162.921 35.2616 163.092 35.5333 163.209 35.815H163.293V34.2273H166.233V43.5362C166.233 44.321 166.036 44.9831 165.642 45.5224C165.247 46.0617 164.696 46.4702 163.988 46.7479C163.279 47.0296 162.46 47.1704 161.531 47.1704ZM161.621 41.2241C161.979 41.2241 162.285 41.1295 162.539 40.9403C162.792 40.7512 162.987 40.4795 163.124 40.1253C163.261 39.7712 163.33 39.3466 163.33 38.8516C163.33 38.3485 163.261 37.9158 163.124 37.5536C162.992 37.1874 162.796 36.9056 162.539 36.7084C162.285 36.5112 161.979 36.4126 161.621 36.4126C161.255 36.4126 160.945 36.5132 160.691 36.7145C160.438 36.9157 160.245 37.1994 160.112 37.5657C159.983 37.9279 159.919 38.3565 159.919 38.8516C159.919 39.3466 159.985 39.7712 160.118 40.1253C160.251 40.4795 160.442 40.7512 160.691 40.9403C160.945 41.1295 161.255 41.2241 161.621 41.2241Z" fill="#E0EFEF"/>
</g>
<defs>
<filter id="filter0_d_1_50" x="6.28571" y="2.28571" width="51.4286" height="51.4286" filterUnits="userSpaceOnUse" color-interpolation-filters="sRGB">
<feFlood flood-opacity="0" result="BackgroundImageFix"/>
<feColorMatrix in="SourceAlpha" type="matrix" values="0 0 0 0 0 0 0 0 0 0 0 0 0 0 0 0 0 0 127 0" result="hardAlpha"/>
<feOffset/>
<feGaussianBlur stdDeviation="2.85714"/>
<feComposite in2="hardAlpha" operator="out"/>
<feColorMatrix type="matrix" values="0 0 0 0 0 0 0 0 0 0 0 0 0 0 0 0 0 0 0.25 0"/>
<feBlend mode="normal" in2="BackgroundImageFix" result="effect1_dropShadow_1_50"/>
<feBlend mode="normal" in="SourceGraphic" in2="effect1_dropShadow_1_50" result="shape"/>
</filter>
<filter id="filter1_d_1_50" x="54.4" y="3.9" width="119.2" height="48.8704" filterUnits="userSpaceOnUse" color-interpolation-filters="sRGB">
<feFlood flood-opacity="0" result="BackgroundImageFix"/>
<feColorMatrix in="SourceAlpha" type="matrix" values="0 0 0 0 0 0 0 0 0 0 0 0 0 0 0 0 0 0 127 0" result="hardAlpha"/>
<feOffset/>
<feGaussianBlur stdDeviation="2.8"/>
<feComposite in2="hardAlpha" operator="out"/>
<feColorMatrix type="matrix" values="0 0 0 0 0 0 0 0 0 0 0 0 0 0 0 0 0 0 0.25 0"/>
<feBlend mode="normal" in2="BackgroundImageFix" result="effect1_dropShadow_1_50"/>
<feBlend mode="normal" in="SourceGraphic" in2="effect1_dropShadow_1_50" result="shape"/>
</filter>
<linearGradient id="paint0_linear_1_50" x1="90" y1="0" x2="90" y2="56" gradientUnits="userSpaceOnUse">
<stop stop-color="#84C0C0"/>
<stop offset="1" stop-color="#478989"/>
</linearGradient>
</defs>
</svg>
