<svg width="257" height="40" viewBox="0 0 257 40" fill="none" xmlns="http://www.w3.org/2000/svg">
<rect width="257.001" height="40.0014" rx="8" fill="url(#paint0_linear_1_56)"/>
<rect x="1.07143" y="1.07143" width="254.858" height="37.8585" rx="6.92857" stroke="white" stroke-opacity="0.15" stroke-width="2.14286"/>
<g filter="url(#filter0_d_1_56)">
<path d="M14.9977 7.75L8 19.8752L14.9977 32.0003H29.0023L36 19.8752L29.0023 7.75H14.9977ZM19.6258 14.1818L22.77 17.4252L24.6343 19.286L24.6367 19.2837L27.4483 22.0405C27.215 22.2038 26.998 22.3345 26.7915 22.4418C26.605 22.54 26.4116 22.6246 26.2128 22.695C26.0513 22.7516 25.8855 22.7949 25.717 22.8245C25.5642 22.8513 25.4253 22.8642 25.2993 22.8642C25.1477 22.8642 25.017 22.8478 24.905 22.8245C24.8092 22.8055 24.7155 22.7773 24.625 22.7405C24.5422 22.7062 24.4638 22.6619 24.3917 22.6087L23.1527 21.3347L19.6072 17.7868L18.3238 19.0153L14.7422 22.5993C14.6697 22.6515 14.5914 22.695 14.5088 22.7288C14.4197 22.7661 14.3271 22.7947 14.2323 22.814C14.1203 22.8373 13.9885 22.8525 13.838 22.8525C13.712 22.8525 13.5732 22.842 13.4203 22.8163C13.2517 22.7856 13.0859 22.7411 12.9245 22.6833C12.7258 22.613 12.5324 22.5284 12.3458 22.4302C12.1187 22.3107 11.8993 22.1771 11.689 22.03L19.6258 14.1818ZM25.1325 15.0977L30.4747 20.462L32.087 22.0405C31.8763 22.188 31.6566 22.322 31.429 22.4418C31.2433 22.54 31.0506 22.6246 30.8527 22.695C30.6908 22.7516 30.5246 22.7949 30.3557 22.8245C30.204 22.8513 30.0628 22.8642 29.9357 22.8642C29.7852 22.8642 29.6545 22.8478 29.5425 22.8245C29.3846 22.7922 29.2329 22.7347 29.0933 22.6542C29.0548 22.6308 29.035 22.6122 29.0315 22.6075L27.5942 21.1865L25.1313 18.7237L24.7417 19.1133L22.9217 17.3085L25.1337 15.0953L25.1325 15.0977ZM18.1722 19.9043V22.8548C18.0328 22.8529 17.8939 22.8392 17.7568 22.814C17.5894 22.782 17.4248 22.7367 17.2645 22.6787C17.069 22.6092 16.8787 22.5258 16.6952 22.429C16.4713 22.3104 16.255 22.1779 16.0477 22.0323L18.171 19.9032L18.1722 19.9043Z" fill="#0D597F"/>
</g>
<g filter="url(#filter1_d_1_56)">
<path d="M44.4041 26.5007H42.424L46.8732 14.1371H49.0284L53.4776 26.5007H51.4975L48.0021 16.3828H47.9055L44.4041 26.5007ZM44.7361 21.6591H51.1594V23.2287H44.7361V21.6591ZM61.8886 17.228L58.526 26.5007H56.5942L53.2256 17.228H55.1634L57.5118 24.3636H57.6084L59.9507 17.228H61.8886ZM66.0178 26.706C65.4302 26.706 64.899 26.5973 64.4241 26.38C63.9492 26.1586 63.5729 25.8386 63.2952 25.4201C63.0215 25.0015 62.8846 24.4884 62.8846 23.8807C62.8846 23.3575 62.9853 22.9268 63.1865 22.5888C63.3877 22.2507 63.6594 21.9831 64.0015 21.7859C64.3436 21.5886 64.7259 21.4397 65.1485 21.3391C65.5711 21.2385 66.0017 21.162 66.4404 21.1097C66.9958 21.0453 67.4466 20.993 67.7927 20.9528C68.1388 20.9085 68.3903 20.8381 68.5473 20.7415C68.7042 20.6449 68.7827 20.4879 68.7827 20.2706V20.2283C68.7827 19.7011 68.6338 19.2926 68.336 19.0028C68.0422 18.7131 67.6035 18.5682 67.0199 18.5682C66.4122 18.5682 65.9333 18.703 65.5832 18.9726C65.237 19.2383 64.9976 19.5341 64.8648 19.8601L63.1684 19.4737C63.3696 18.9103 63.6634 18.4555 64.0498 18.1094C64.4402 17.7592 64.8889 17.5057 65.396 17.3487C65.9031 17.1877 66.4364 17.1072 66.9958 17.1072C67.3661 17.1072 67.7585 17.1515 68.173 17.24C68.5916 17.3246 68.9819 17.4815 69.3442 17.7109C69.7104 17.9403 70.0102 18.2683 70.2437 18.6949C70.4771 19.1175 70.5938 19.6669 70.5938 20.343V26.5007H68.831V25.2329H68.7586C68.6419 25.4664 68.4668 25.6958 68.2334 25.9212C67.9999 26.1465 67.7001 26.3337 67.3339 26.4826C66.9676 26.6315 66.5289 26.706 66.0178 26.706ZM66.4102 25.2571C66.9093 25.2571 67.3359 25.1585 67.69 24.9613C68.0482 24.7641 68.3199 24.5065 68.505 24.1886C68.6942 23.8666 68.7888 23.5225 68.7888 23.1562V21.9609C68.7244 22.0253 68.5996 22.0857 68.4145 22.142C68.2334 22.1944 68.0261 22.2406 67.7927 22.2809C67.5592 22.3171 67.3319 22.3513 67.1105 22.3835C66.8891 22.4117 66.704 22.4358 66.5551 22.456C66.205 22.5002 65.885 22.5747 65.5952 22.6793C65.3095 22.784 65.0801 22.9349 64.907 23.1321C64.738 23.3253 64.6535 23.5828 64.6535 23.9048C64.6535 24.3515 64.8185 24.6896 65.1485 24.919C65.4785 25.1444 65.8991 25.2571 66.4102 25.2571ZM72.998 26.5007V17.228H74.8031V26.5007H72.998ZM73.9096 15.7972C73.5957 15.7972 73.326 15.6926 73.1006 15.4833C72.8793 15.27 72.7686 15.0164 72.7686 14.7226C72.7686 14.4248 72.8793 14.1713 73.1006 13.962C73.326 13.7487 73.5957 13.642 73.9096 13.642C74.2235 13.642 74.4911 13.7487 74.7125 13.962C74.9379 14.1713 75.0506 14.4248 75.0506 14.7226C75.0506 15.0164 74.9379 15.27 74.7125 15.4833C74.4911 15.6926 74.2235 15.7972 73.9096 15.7972ZM79.0365 14.1371V26.5007H77.2314V14.1371H79.0365ZM84.1633 26.706C83.5757 26.706 83.0445 26.5973 82.5696 26.38C82.0947 26.1586 81.7184 25.8386 81.4407 25.4201C81.167 25.0015 81.0301 24.4884 81.0301 23.8807C81.0301 23.3575 81.1308 22.9268 81.332 22.5888C81.5332 22.2507 81.8049 21.9831 82.147 21.7859C82.4891 21.5886 82.8714 21.4397 83.294 21.3391C83.7166 21.2385 84.1472 21.162 84.5859 21.1097C85.1413 21.0453 85.5921 20.993 85.9382 20.9528C86.2843 20.9085 86.5358 20.8381 86.6928 20.7415C86.8497 20.6449 86.9282 20.4879 86.9282 20.2706V20.2283C86.9282 19.7011 86.7793 19.2926 86.4815 19.0028C86.1877 18.7131 85.749 18.5682 85.1654 18.5682C84.5577 18.5682 84.0788 18.703 83.7287 18.9726C83.3825 19.2383 83.1431 19.5341 83.0103 19.8601L81.3139 19.4737C81.5151 18.9103 81.8089 18.4555 82.1953 18.1094C82.5857 17.7592 83.0344 17.5057 83.5415 17.3487C84.0486 17.1877 84.5819 17.1072 85.1413 17.1072C85.5116 17.1072 85.904 17.1515 86.3185 17.24C86.7371 17.3246 87.1274 17.4815 87.4897 17.7109C87.8559 17.9403 88.1557 18.2683 88.3892 18.6949C88.6226 19.1175 88.7393 19.6669 88.7393 20.343V26.5007H86.9765V25.2329H86.9041C86.7874 25.4664 86.6123 25.6958 86.3789 25.9212C86.1454 26.1465 85.8456 26.3337 85.4794 26.4826C85.1131 26.6315 84.6744 26.706 84.1633 26.706ZM84.5557 25.2571C85.0548 25.2571 85.4814 25.1585 85.8355 24.9613C86.1937 24.7641 86.4654 24.5065 86.6505 24.1886C86.8397 23.8666 86.9343 23.5225 86.9343 23.1562V21.9609C86.8699 22.0253 86.7451 22.0857 86.56 22.142C86.3789 22.1944 86.1716 22.2406 85.9382 22.2809C85.7047 22.3171 85.4774 22.3513 85.256 22.3835C85.0346 22.4117 84.8495 22.4358 84.7006 22.456C84.3505 22.5002 84.0305 22.5747 83.7407 22.6793C83.455 22.784 83.2256 22.9349 83.0525 23.1321C82.8835 23.3253 82.799 23.5828 82.799 23.9048C82.799 24.3515 82.964 24.6896 83.294 24.919C83.624 25.1444 84.0446 25.2571 84.5557 25.2571ZM91.2884 26.5007V14.1371H93.0934V18.7312H93.2021C93.3067 18.538 93.4577 18.3146 93.6549 18.0611C93.8521 17.8075 94.1258 17.5862 94.4759 17.397C94.826 17.2038 95.2889 17.1072 95.8644 17.1072C96.613 17.1072 97.2811 17.2964 97.8687 17.6747C98.4563 18.053 98.9171 18.5984 99.2511 19.3107C99.5892 20.0231 99.7582 20.8803 99.7582 21.8824C99.7582 22.8846 99.5912 23.7438 99.2571 24.4602C98.9231 25.1726 98.4643 25.7219 97.8807 26.1083C97.2972 26.4906 96.6311 26.6818 95.8825 26.6818C95.3191 26.6818 94.8582 26.5872 94.5 26.3981C94.1459 26.2089 93.8682 25.9876 93.667 25.734C93.4657 25.4805 93.3108 25.2551 93.2021 25.0579H93.0512V26.5007H91.2884ZM93.0572 21.8643C93.0572 22.5163 93.1518 23.0878 93.341 23.5788C93.5301 24.0698 93.8038 24.4542 94.162 24.7319C94.5202 25.0056 94.9589 25.1424 95.478 25.1424C96.0173 25.1424 96.4681 24.9995 96.8303 24.7138C97.1925 24.424 97.4662 24.0316 97.6513 23.5366C97.8405 23.0415 97.9351 22.4841 97.9351 21.8643C97.9351 21.2526 97.8425 20.7032 97.6574 20.2163C97.4763 19.7293 97.2026 19.3449 96.8363 19.0632C96.4741 18.7815 96.0214 18.6406 95.478 18.6406C94.9548 18.6406 94.5121 18.7754 94.1499 19.0451C93.7917 19.3147 93.5201 19.691 93.3349 20.174C93.1498 20.6569 93.0572 21.2204 93.0572 21.8643ZM103.59 14.1371V26.5007H101.785V14.1371H103.59ZM110.015 26.6878C109.101 26.6878 108.315 26.4926 107.655 26.1023C106.999 25.7078 106.491 25.1545 106.133 24.4421C105.779 23.7257 105.602 22.8866 105.602 21.9247C105.602 20.9749 105.779 20.1378 106.133 19.4133C106.491 18.6889 106.99 18.1234 107.63 17.717C108.274 17.3105 109.027 17.1072 109.888 17.1072C110.411 17.1072 110.918 17.1938 111.409 17.3668C111.9 17.5399 112.341 17.8115 112.732 18.1818C113.122 18.5521 113.43 19.033 113.655 19.6246C113.881 20.2122 113.993 20.9266 113.993 21.7677V22.4077H106.622V21.0554H112.224C112.224 20.5805 112.128 20.1599 111.935 19.7937C111.742 19.4234 111.47 19.1316 111.12 18.9183C110.774 18.705 110.367 18.5984 109.9 18.5984C109.393 18.5984 108.95 18.7231 108.572 18.9726C108.198 19.2181 107.908 19.5401 107.703 19.9386C107.502 20.333 107.401 20.7616 107.401 21.2244V22.2809C107.401 22.9007 107.51 23.4279 107.727 23.8626C107.948 24.2972 108.256 24.6292 108.651 24.8587C109.045 25.084 109.506 25.1967 110.033 25.1967C110.375 25.1967 110.687 25.1484 110.969 25.0518C111.251 24.9512 111.494 24.8023 111.699 24.6051C111.905 24.4079 112.061 24.1644 112.17 23.8746L113.879 24.1825C113.742 24.6856 113.496 25.1263 113.142 25.5046C112.792 25.8789 112.351 26.1707 111.82 26.38C111.293 26.5852 110.691 26.6878 110.015 26.6878ZM124.401 26.6878C123.532 26.6878 122.773 26.4886 122.125 26.0902C121.477 25.6917 120.974 25.1343 120.616 24.418C120.258 23.7016 120.079 22.8645 120.079 21.9066C120.079 20.9447 120.258 20.1036 120.616 19.3832C120.974 18.6627 121.477 18.1033 122.125 17.7049C122.773 17.3065 123.532 17.1072 124.401 17.1072C125.27 17.1072 126.029 17.3065 126.677 17.7049C127.325 18.1033 127.828 18.6627 128.186 19.3832C128.544 20.1036 128.723 20.9447 128.723 21.9066C128.723 22.8645 128.544 23.7016 128.186 24.418C127.828 25.1343 127.325 25.6917 126.677 26.0902C126.029 26.4886 125.27 26.6878 124.401 26.6878ZM124.407 25.1726C124.97 25.1726 125.437 25.0237 125.808 24.7258C126.178 24.428 126.452 24.0316 126.629 23.5366C126.81 23.0415 126.9 22.4962 126.9 21.9006C126.9 21.3089 126.81 20.7656 126.629 20.2706C126.452 19.7715 126.178 19.3711 125.808 19.0692C125.437 18.7674 124.97 18.6165 124.407 18.6165C123.84 18.6165 123.369 18.7674 122.994 19.0692C122.624 19.3711 122.348 19.7715 122.167 20.2706C121.99 20.7656 121.902 21.3089 121.902 21.9006C121.902 22.4962 121.99 23.0415 122.167 23.5366C122.348 24.0316 122.624 24.428 122.994 24.7258C123.369 25.0237 123.84 25.1726 124.407 25.1726ZM132.543 20.995V26.5007H130.738V17.228H132.471V18.7372H132.586C132.799 18.2462 133.133 17.8518 133.588 17.554C134.046 17.2561 134.624 17.1072 135.32 17.1072C135.952 17.1072 136.506 17.24 136.98 17.5057C137.455 17.7673 137.824 18.1577 138.085 18.6768C138.347 19.196 138.478 19.8379 138.478 20.6026V26.5007H136.673V20.8199C136.673 20.1478 136.497 19.6226 136.147 19.2443C135.797 18.862 135.316 18.6708 134.704 18.6708C134.286 18.6708 133.914 18.7614 133.588 18.9425C133.266 19.1236 133.01 19.3892 132.821 19.7393C132.636 20.0855 132.543 20.504 132.543 20.995Z" fill="#E8E8E8"/>
<path d="M147.611 26.0007H144.4L148.571 13.6371H152.55L156.721 26.0007H153.51L150.606 16.7521H150.509L147.611 26.0007ZM147.183 21.1349H153.896V23.4048H147.183V21.1349ZM161.004 13.6371V26.0007H158.052V13.6371H161.004ZM162.883 29.478V16.728H165.805V18.3157H165.896C166.017 18.034 166.188 17.7623 166.409 17.5007C166.634 17.2391 166.92 17.0258 167.266 16.8608C167.616 16.6918 168.035 16.6072 168.522 16.6072C169.166 16.6072 169.767 16.7763 170.327 17.1143C170.89 17.4524 171.345 17.9736 171.691 18.6779C172.037 19.3822 172.21 20.2797 172.21 21.3704C172.21 22.4208 172.043 23.3002 171.709 24.0085C171.379 24.7168 170.933 25.2481 170.369 25.6023C169.81 25.9564 169.188 26.1335 168.504 26.1335C168.037 26.1335 167.632 26.057 167.29 25.9041C166.948 25.7512 166.66 25.5499 166.427 25.3004C166.198 25.0509 166.021 24.7832 165.896 24.4975H165.835V29.478H162.883ZM165.775 21.3643C165.775 21.8634 165.841 22.298 165.974 22.6683C166.111 23.0386 166.306 23.3263 166.56 23.5316C166.817 23.7328 167.125 23.8334 167.484 23.8334C167.846 23.8334 168.154 23.7328 168.407 23.5316C168.661 23.3263 168.852 23.0386 168.981 22.6683C169.113 22.298 169.18 21.8634 169.18 21.3643C169.18 20.8653 169.113 20.4326 168.981 20.0664C168.852 19.7002 168.661 19.4164 168.407 19.2152C168.158 19.014 167.85 18.9133 167.484 18.9133C167.121 18.9133 166.813 19.0119 166.56 19.2092C166.306 19.4064 166.111 19.6881 165.974 20.0543C165.841 20.4206 165.775 20.8572 165.775 21.3643ZM173.757 26.0007V16.728H176.709V26.0007H173.757ZM175.236 15.6474C174.822 15.6474 174.466 15.5105 174.168 15.2369C173.87 14.9592 173.721 14.6251 173.721 14.2347C173.721 13.8484 173.87 13.5183 174.168 13.2447C174.466 12.967 174.822 12.8281 175.236 12.8281C175.655 12.8281 176.011 12.967 176.305 13.2447C176.603 13.5183 176.752 13.8484 176.752 14.2347C176.752 14.6251 176.603 14.9592 176.305 15.2369C176.011 15.5105 175.655 15.6474 175.236 15.6474ZM181.541 20.7123V26.0007H178.588V16.728H181.396V18.4304H181.498C181.704 17.8629 182.054 17.4182 182.549 17.0962C183.044 16.7702 183.633 16.6072 184.318 16.6072C184.969 16.6072 185.535 16.7541 186.014 17.0479C186.497 17.3377 186.871 17.7442 187.137 18.2674C187.406 18.7866 187.539 19.3943 187.535 20.0905V26.0007H184.583V20.6701C184.587 20.1549 184.456 19.7525 184.191 19.4627C183.929 19.1729 183.565 19.028 183.098 19.028C182.788 19.028 182.514 19.0965 182.277 19.2333C182.044 19.3661 181.862 19.5573 181.734 19.8068C181.609 20.0563 181.545 20.3582 181.541 20.7123ZM193.697 26.1758C192.727 26.1758 191.89 25.9846 191.186 25.6023C190.486 25.2159 189.946 24.6665 189.568 23.9542C189.194 23.2378 189.007 22.3866 189.007 21.4006C189.007 20.4427 189.196 19.6056 189.574 18.8892C189.952 18.1688 190.486 17.6094 191.174 17.2109C191.862 16.8085 192.673 16.6072 193.607 16.6072C194.267 16.6072 194.871 16.7099 195.418 16.9151C195.965 17.1204 196.438 17.4242 196.837 17.8267C197.235 18.2292 197.545 18.7262 197.766 19.3178C197.988 19.9054 198.098 20.5795 198.098 21.3402V22.0767H190.039V20.3622H195.352C195.347 20.0483 195.273 19.7686 195.128 19.5231C194.983 19.2776 194.784 19.0864 194.53 18.9496C194.281 18.8087 193.993 18.7383 193.667 18.7383C193.337 18.7383 193.041 18.8127 192.78 18.9616C192.518 19.1065 192.311 19.3057 192.158 19.5593C192.005 19.8088 191.925 20.0926 191.916 20.4105V22.1552C191.916 22.5335 191.991 22.8655 192.14 23.1513C192.289 23.433 192.5 23.6523 192.774 23.8093C193.047 23.9663 193.373 24.0447 193.752 24.0447C194.013 24.0447 194.251 24.0085 194.464 23.9361C194.677 23.8636 194.86 23.757 195.013 23.6161C195.166 23.4752 195.281 23.3022 195.358 23.0969L198.068 23.1754C197.955 23.7831 197.708 24.3124 197.326 24.7631C196.947 25.2099 196.45 25.558 195.834 25.8075C195.219 26.053 194.506 26.1758 193.697 26.1758ZM203.258 26.0007V13.6371H206.247V23.5739H211.39V26.0007H203.258ZM212.937 26.0007V16.728H215.889V26.0007H212.937ZM214.416 15.6474C214.002 15.6474 213.645 15.5105 213.348 15.2369C213.05 14.9592 212.901 14.6251 212.901 14.2347C212.901 13.8484 213.05 13.5183 213.348 13.2447C213.645 12.967 214.002 12.8281 214.416 12.8281C214.835 12.8281 215.191 12.967 215.485 13.2447C215.782 13.5183 215.931 13.8484 215.931 14.2347C215.931 14.6251 215.782 14.9592 215.485 15.2369C215.191 15.5105 214.835 15.6474 214.416 15.6474ZM220.72 20.7123V26.0007H217.768V16.728H220.575V18.4304H220.678C220.883 17.8629 221.233 17.4182 221.728 17.0962C222.223 16.7702 222.813 16.6072 223.497 16.6072C224.149 16.6072 224.715 16.7541 225.194 17.0479C225.677 17.3377 226.051 17.7442 226.316 18.2674C226.586 18.7866 226.719 19.3943 226.715 20.0905V26.0007H223.763V20.6701C223.767 20.1549 223.636 19.7525 223.37 19.4627C223.109 19.1729 222.745 19.028 222.278 19.028C221.968 19.028 221.694 19.0965 221.457 19.2333C221.223 19.3661 221.042 19.5573 220.913 19.8068C220.789 20.0563 220.724 20.3582 220.72 20.7123ZM234.525 21.9982V16.728H237.471V26.0007H234.658V24.2741H234.561C234.356 24.8416 234.006 25.2924 233.511 25.6264C233.02 25.9564 232.426 26.1214 231.73 26.1214C231.098 26.1214 230.543 25.9765 230.064 25.6868C229.585 25.397 229.213 24.9925 228.947 24.4734C228.681 23.9502 228.547 23.3384 228.543 22.6381V16.728H231.495V22.0586C231.499 22.5617 231.631 22.9581 231.893 23.2479C232.155 23.5376 232.511 23.6825 232.962 23.6825C233.255 23.6825 233.519 23.6181 233.752 23.4893C233.99 23.3565 234.177 23.1654 234.314 22.9158C234.455 22.6623 234.525 22.3564 234.525 21.9982ZM241.862 16.728L243.389 19.7827L244.971 16.728H247.947L245.357 21.3643L248.043 26.0007H245.091L243.389 22.9219L241.729 26.0007H238.734L241.427 21.3643L238.867 16.728H241.862Z" fill="#0D597F"/>
</g>
<defs>
<filter id="filter0_d_1_56" x="2.39972" y="0.39972" width="39.202" height="39.202" filterUnits="userSpaceOnUse" color-interpolation-filters="sRGB">
<feFlood flood-opacity="0" result="BackgroundImageFix"/>
<feColorMatrix in="SourceAlpha" type="matrix" values="0 0 0 0 0 0 0 0 0 0 0 0 0 0 0 0 0 0 127 0" result="hardAlpha"/>
<feOffset/>
<feGaussianBlur stdDeviation="2.80014"/>
<feComposite in2="hardAlpha" operator="out"/>
<feColorMatrix type="matrix" values="0 0 0 0 0 0 0 0 0 0 0 0 0 0 0 0 0 0 0.25 0"/>
<feBlend mode="normal" in2="BackgroundImageFix" result="effect1_dropShadow_1_56"/>
<feBlend mode="normal" in="SourceGraphic" in2="effect1_dropShadow_1_56" result="shape"/>
</filter>
<filter id="filter1_d_1_56" x="36.2871" y="3.78642" width="218.429" height="32.4286" filterUnits="userSpaceOnUse" color-interpolation-filters="sRGB">
<feFlood flood-opacity="0" result="BackgroundImageFix"/>
<feColorMatrix in="SourceAlpha" type="matrix" values="0 0 0 0 0 0 0 0 0 0 0 0 0 0 0 0 0 0 127 0" result="hardAlpha"/>
<feOffset/>
<feGaussianBlur stdDeviation="2.85714"/>
<feComposite in2="hardAlpha" operator="out"/>
<feColorMatrix type="matrix" values="0 0 0 0 0 0 0 0 0 0 0 0 0 0 0 0 0 0 0.25 0"/>
<feBlend mode="normal" in2="BackgroundImageFix" result="effect1_dropShadow_1_56"/>
<feBlend mode="normal" in="SourceGraphic" in2="effect1_dropShadow_1_56" result="shape"/>
</filter>
<linearGradient id="paint0_linear_1_56" x1="128.501" y1="0" x2="128.501" y2="40.0014" gradientUnits="userSpaceOnUse">
<stop stop-color="#052433"/>
<stop offset="1" stop-color="#020D13"/>
</linearGradient>
</defs>
</svg>
