<svg width="40" height="40" viewBox="0 0 40 40" fill="none" xmlns="http://www.w3.org/2000/svg">
<rect width="40" height="40" rx="8" fill="url(#paint0_linear_1_68)"/>
<rect x="1.05" y="1.05" width="37.9" height="37.9" rx="6.95" stroke="white" stroke-opacity="0.15" stroke-width="2.1"/>
<g filter="url(#filter0_d_1_68)">
<path d="M12.9977 7.75L6 19.8752L12.9977 32.0003H27.0023L34 19.8752L27.0023 7.75H12.9977ZM17.6258 14.1818L20.77 17.4252L22.6343 19.286L22.6367 19.2837L25.4483 22.0405C25.215 22.2038 24.998 22.3345 24.7915 22.4418C24.605 22.54 24.4116 22.6246 24.2128 22.695C24.0513 22.7516 23.8855 22.7949 23.717 22.8245C23.5642 22.8513 23.4253 22.8642 23.2993 22.8642C23.1477 22.8642 23.017 22.8478 22.905 22.8245C22.8092 22.8055 22.7155 22.7773 22.625 22.7405C22.5422 22.7062 22.4638 22.6619 22.3917 22.6087L21.1527 21.3347L17.6072 17.7868L16.3238 19.0153L12.7422 22.5993C12.6697 22.6515 12.5914 22.695 12.5088 22.7288C12.4197 22.7661 12.3271 22.7947 12.2323 22.814C12.1203 22.8373 11.9885 22.8525 11.838 22.8525C11.712 22.8525 11.5732 22.842 11.4203 22.8163C11.2517 22.7856 11.0859 22.7411 10.9245 22.6833C10.7258 22.613 10.5324 22.5284 10.3458 22.4302C10.1187 22.3107 9.89931 22.1771 9.689 22.03L17.6258 14.1818ZM23.1325 15.0977L28.4747 20.462L30.087 22.0405C29.8763 22.188 29.6566 22.322 29.429 22.4418C29.2433 22.54 29.0506 22.6246 28.8527 22.695C28.6908 22.7516 28.5246 22.7949 28.3557 22.8245C28.204 22.8513 28.0628 22.8642 27.9357 22.8642C27.7852 22.8642 27.6545 22.8478 27.5425 22.8245C27.3846 22.7922 27.2329 22.7347 27.0933 22.6542C27.0548 22.6308 27.035 22.6122 27.0315 22.6075L25.5942 21.1865L23.1313 18.7237L22.7417 19.1133L20.9217 17.3085L23.1337 15.0953L23.1325 15.0977ZM16.1722 19.9043V22.8548C16.0328 22.8529 15.8939 22.8392 15.7568 22.814C15.5894 22.782 15.4248 22.7367 15.2645 22.6787C15.069 22.6092 14.8787 22.5258 14.6952 22.429C14.4713 22.3104 14.255 22.1779 14.0477 22.0323L16.171 19.9032L16.1722 19.9043Z" fill="#0D597F"/>
</g>
<defs>
<filter id="filter0_d_1_68" x="2" y="2" width="36" height="36" filterUnits="userSpaceOnUse" color-interpolation-filters="sRGB">
<feFlood flood-opacity="0" result="BackgroundImageFix"/>
<feColorMatrix in="SourceAlpha" type="matrix" values="0 0 0 0 0 0 0 0 0 0 0 0 0 0 0 0 0 0 127 0" result="hardAlpha"/>
<feOffset/>
<feGaussianBlur stdDeviation="2"/>
<feComposite in2="hardAlpha" operator="out"/>
<feColorMatrix type="matrix" values="0 0 0 0 0 0 0 0 0 0 0 0 0 0 0 0 0 0 0.25 0"/>
<feBlend mode="normal" in2="BackgroundImageFix" result="effect1_dropShadow_1_68"/>
<feBlend mode="normal" in="SourceGraphic" in2="effect1_dropShadow_1_68" result="shape"/>
</filter>
<linearGradient id="paint0_linear_1_68" x1="20" y1="0" x2="20" y2="40" gradientUnits="userSpaceOnUse">
<stop stop-color="#052433"/>
<stop offset="1" stop-color="#020D13"/>
</linearGradient>
</defs>
</svg>
