<svg width="56" height="56" viewBox="0 0 56 56" fill="none" xmlns="http://www.w3.org/2000/svg">
<rect width="56" height="56" rx="8.4" fill="url(#paint0_linear_1_62)"/>
<rect x="1.05" y="1.05" width="53.9" height="53.9" rx="7.35" stroke="white" stroke-opacity="0.15" stroke-width="2.1"/>
<g filter="url(#filter0_d_1_62)">
<path d="M17.9967 10.5L8 27.8217L17.9967 45.1433H38.0033L48 27.8217L38.0033 10.5H17.9967ZM24.6083 19.6883L29.1 24.3217L31.7633 26.98L31.7667 26.9767L35.7833 30.915C35.45 31.1483 35.14 31.335 34.845 31.4883C34.5785 31.6286 34.3022 31.7495 34.0183 31.85C33.7876 31.9308 33.5507 31.9927 33.31 32.035C33.0917 32.0733 32.8933 32.0917 32.7133 32.0917C32.4967 32.0917 32.31 32.0683 32.15 32.035C32.0132 32.0078 31.8792 31.9676 31.75 31.915C31.6317 31.8659 31.5198 31.8027 31.4167 31.7267L29.6467 29.9067L24.5817 24.8383L22.7483 26.5933L17.6317 31.7133C17.5282 31.7879 17.4163 31.85 17.2983 31.8983C17.1709 31.9516 17.0386 31.9924 16.9033 32.02C16.7433 32.0533 16.555 32.075 16.34 32.075C16.16 32.075 15.9617 32.06 15.7433 32.0233C15.5024 31.9794 15.2655 31.9158 15.035 31.8333C14.7511 31.7329 14.4748 31.612 14.2083 31.4717C13.8838 31.301 13.5704 31.1101 13.27 30.9L24.6083 19.6883ZM32.475 20.9967L40.1067 28.66L42.41 30.915C42.109 31.1257 41.7951 31.3172 41.47 31.4883C41.2046 31.6286 40.9295 31.7495 40.6467 31.85C40.4154 31.9309 40.178 31.9928 39.9367 32.035C39.72 32.0733 39.5183 32.0917 39.3367 32.0917C39.1217 32.0917 38.935 32.0683 38.775 32.035C38.5494 31.9889 38.3328 31.9067 38.1333 31.7917C38.0783 31.7583 38.05 31.7317 38.045 31.725L35.9917 29.695L32.4733 26.1767L31.9167 26.7333L29.3167 24.155L32.4767 20.9933L32.475 20.9967ZM22.5317 27.8633V32.0783C22.3326 32.0756 22.1341 32.0561 21.9383 32.02C21.6991 31.9742 21.464 31.9096 21.235 31.8267C20.9557 31.7274 20.6839 31.6082 20.4217 31.47C20.1018 31.3005 19.7929 31.1113 19.4967 30.9033L22.53 27.8617L22.5317 27.8633Z" fill="#0D597F"/>
</g>
<defs>
<filter id="filter0_d_1_62" x="2.28571" y="2.28571" width="51.4286" height="51.4286" filterUnits="userSpaceOnUse" color-interpolation-filters="sRGB">
<feFlood flood-opacity="0" result="BackgroundImageFix"/>
<feColorMatrix in="SourceAlpha" type="matrix" values="0 0 0 0 0 0 0 0 0 0 0 0 0 0 0 0 0 0 127 0" result="hardAlpha"/>
<feOffset/>
<feGaussianBlur stdDeviation="2.85714"/>
<feComposite in2="hardAlpha" operator="out"/>
<feColorMatrix type="matrix" values="0 0 0 0 0 0 0 0 0 0 0 0 0 0 0 0 0 0 0.25 0"/>
<feBlend mode="normal" in2="BackgroundImageFix" result="effect1_dropShadow_1_62"/>
<feBlend mode="normal" in="SourceGraphic" in2="effect1_dropShadow_1_62" result="shape"/>
</filter>
<linearGradient id="paint0_linear_1_62" x1="28" y1="0" x2="28" y2="56" gradientUnits="userSpaceOnUse">
<stop stop-color="#052433"/>
<stop offset="1" stop-color="#020D13"/>
</linearGradient>
</defs>
</svg>
