<svg width="177" height="56" viewBox="0 0 177 56" fill="none" xmlns="http://www.w3.org/2000/svg">
<rect width="177" height="56" rx="8" fill="url(#paint0_linear_1_50)"/>
<rect x="1.05" y="1.05" width="174.9" height="53.9" rx="6.95" stroke="white" stroke-opacity="0.15" stroke-width="2.1"/>
<g filter="url(#filter0_d_1_50)">
<path d="M21.9967 10.5L12 27.8217L21.9967 45.1433H42.0033L52 27.8217L42.0033 10.5H21.9967ZM28.6083 19.6883L33.1 24.3217L35.7633 26.98L35.7667 26.9767L39.7833 30.915C39.45 31.1483 39.14 31.335 38.845 31.4883C38.5785 31.6286 38.3022 31.7495 38.0183 31.85C37.7876 31.9308 37.5507 31.9927 37.31 32.035C37.0917 32.0733 36.8933 32.0917 36.7133 32.0917C36.4967 32.0917 36.31 32.0683 36.15 32.035C36.0132 32.0078 35.8792 31.9676 35.75 31.915C35.6317 31.8659 35.5198 31.8027 35.4167 31.7267L33.6467 29.9067L28.5817 24.8383L26.7483 26.5933L21.6317 31.7133C21.5282 31.7879 21.4163 31.85 21.2983 31.8983C21.1709 31.9516 21.0386 31.9924 20.9033 32.02C20.7433 32.0533 20.555 32.075 20.34 32.075C20.16 32.075 19.9617 32.06 19.7433 32.0233C19.5024 31.9794 19.2655 31.9158 19.035 31.8333C18.7511 31.7329 18.4748 31.612 18.2083 31.4717C17.8838 31.301 17.5704 31.1101 17.27 30.9L28.6083 19.6883ZM36.475 20.9967L44.1067 28.66L46.41 30.915C46.109 31.1257 45.7951 31.3172 45.47 31.4883C45.2046 31.6286 44.9295 31.7495 44.6467 31.85C44.4154 31.9309 44.178 31.9928 43.9367 32.035C43.72 32.0733 43.5183 32.0917 43.3367 32.0917C43.1217 32.0917 42.935 32.0683 42.775 32.035C42.5494 31.9889 42.3328 31.9067 42.1333 31.7917C42.0783 31.7583 42.05 31.7317 42.045 31.725L39.9917 29.695L36.4733 26.1767L35.9167 26.7333L33.3167 24.155L36.4767 20.9933L36.475 20.9967ZM26.5317 27.8633V32.0783C26.3326 32.0756 26.1341 32.0561 25.9383 32.02C25.6991 31.9742 25.464 31.9096 25.235 31.8267C24.9557 31.7274 24.6839 31.6082 24.4217 31.47C24.1018 31.3005 23.7929 31.1113 23.4967 30.9033L26.53 27.8617L26.5317 27.8633Z" fill="#0D597F"/>
</g>
<g filter="url(#filter1_d_1_50)">
<path d="M62.2613 24.5H60.3977L64.5852 12.8636H66.6136L70.8011 24.5H68.9375L65.6477 14.9773H65.5568L62.2613 24.5ZM62.5738 19.9432H68.6193V21.4204H62.5738V19.9432ZM78.7173 15.7727L75.5525 24.5H73.7344L70.5639 15.7727H72.3878L74.598 22.4886H74.6889L76.8934 15.7727H78.7173ZM82.6037 24.6932C82.0506 24.6932 81.5506 24.5909 81.1037 24.3864C80.6567 24.178 80.3025 23.8769 80.0412 23.4829C79.7836 23.089 79.6548 22.6061 79.6548 22.0341C79.6548 21.5417 79.7495 21.1364 79.9389 20.8182C80.1283 20.5 80.384 20.2481 80.7059 20.0625C81.0279 19.8769 81.3878 19.7367 81.7855 19.642C82.1832 19.5473 82.5885 19.4754 83.0014 19.4261C83.5241 19.3655 83.9484 19.3163 84.2741 19.2784C84.5999 19.2367 84.8366 19.1704 84.9844 19.0795C85.1321 18.9886 85.2059 18.8409 85.2059 18.6364V18.5966C85.2059 18.1004 85.0658 17.7159 84.7855 17.4432C84.509 17.1704 84.0961 17.0341 83.5469 17.0341C82.9749 17.0341 82.5241 17.161 82.1946 17.4148C81.8688 17.6648 81.6434 17.9432 81.5184 18.25L79.9219 17.8864C80.1112 17.3561 80.3878 16.928 80.7514 16.6023C81.1188 16.2727 81.5412 16.0341 82.0184 15.8864C82.4957 15.7348 82.9976 15.6591 83.5241 15.6591C83.8726 15.6591 84.2419 15.7008 84.6321 15.7841C85.026 15.8636 85.3934 16.0114 85.7344 16.2273C86.079 16.4432 86.3612 16.7519 86.5809 17.1534C86.8006 17.5511 86.9105 18.0682 86.9105 18.7045V24.5H85.2514V23.3068H85.1832C85.0734 23.5265 84.9086 23.7424 84.6889 23.9545C84.4692 24.1667 84.187 24.3428 83.8423 24.4829C83.4976 24.6231 83.0847 24.6932 82.6037 24.6932ZM82.973 23.3295C83.4427 23.3295 83.8442 23.2367 84.1775 23.0511C84.5147 22.8655 84.7703 22.6231 84.9446 22.3239C85.1226 22.0208 85.2116 21.697 85.2116 21.3523V20.2273C85.151 20.2879 85.0336 20.3447 84.8594 20.3977C84.6889 20.447 84.4938 20.4905 84.2741 20.5284C84.0544 20.5625 83.8404 20.5947 83.6321 20.625C83.4237 20.6515 83.2495 20.6742 83.1094 20.6932C82.7798 20.7348 82.4787 20.8049 82.2059 20.9034C81.937 21.0019 81.7211 21.1439 81.5582 21.3295C81.3991 21.5114 81.3196 21.7538 81.3196 22.0568C81.3196 22.4773 81.4749 22.7954 81.7855 23.0114C82.0961 23.2235 82.4919 23.3295 82.973 23.3295ZM89.1733 24.5V15.7727H90.8721V24.5H89.1733ZM90.0312 14.4261C89.7358 14.4261 89.482 14.3276 89.2699 14.1307C89.0615 13.9299 88.9574 13.6913 88.9574 13.4148C88.9574 13.1345 89.0615 12.8958 89.2699 12.6989C89.482 12.4981 89.7358 12.3977 90.0312 12.3977C90.3267 12.3977 90.5786 12.4981 90.7869 12.6989C90.999 12.8958 91.1051 13.1345 91.1051 13.4148C91.1051 13.6913 90.999 13.9299 90.7869 14.1307C90.5786 14.3276 90.3267 14.4261 90.0312 14.4261ZM94.8565 12.8636V24.5H93.1576V12.8636H94.8565ZM99.6818 24.6932C99.1288 24.6932 98.6288 24.5909 98.1818 24.3864C97.7348 24.178 97.3807 23.8769 97.1193 23.4829C96.8617 23.089 96.7329 22.6061 96.7329 22.0341C96.7329 21.5417 96.8276 21.1364 97.017 20.8182C97.2064 20.5 97.4621 20.2481 97.7841 20.0625C98.106 19.8769 98.4659 19.7367 98.8636 19.642C99.2613 19.5473 99.6666 19.4754 100.08 19.4261C100.602 19.3655 101.026 19.3163 101.352 19.2784C101.678 19.2367 101.915 19.1704 102.062 19.0795C102.21 18.9886 102.284 18.8409 102.284 18.6364V18.5966C102.284 18.1004 102.144 17.7159 101.864 17.4432C101.587 17.1704 101.174 17.0341 100.625 17.0341C100.053 17.0341 99.6022 17.161 99.2727 17.4148C98.9469 17.6648 98.7216 17.9432 98.5966 18.25L97 17.8864C97.1894 17.3561 97.4659 16.928 97.8295 16.6023C98.1969 16.2727 98.6193 16.0341 99.0966 15.8864C99.5738 15.7348 100.076 15.6591 100.602 15.6591C100.951 15.6591 101.32 15.7008 101.71 15.7841C102.104 15.8636 102.472 16.0114 102.812 16.2273C103.157 16.4432 103.439 16.7519 103.659 17.1534C103.879 17.5511 103.989 18.0682 103.989 18.7045V24.5H102.33V23.3068H102.261C102.151 23.5265 101.987 23.7424 101.767 23.9545C101.547 24.1667 101.265 24.3428 100.92 24.4829C100.576 24.6231 100.163 24.6932 99.6818 24.6932ZM100.051 23.3295C100.521 23.3295 100.922 23.2367 101.256 23.0511C101.593 22.8655 101.848 22.6231 102.023 22.3239C102.201 22.0208 102.29 21.697 102.29 21.3523V20.2273C102.229 20.2879 102.112 20.3447 101.937 20.3977C101.767 20.447 101.572 20.4905 101.352 20.5284C101.133 20.5625 100.919 20.5947 100.71 20.625C100.502 20.6515 100.328 20.6742 100.187 20.6932C99.8579 20.7348 99.5568 20.8049 99.2841 20.9034C99.0151 21.0019 98.7992 21.1439 98.6363 21.3295C98.4772 21.5114 98.3977 21.7538 98.3977 22.0568C98.3977 22.4773 98.553 22.7954 98.8636 23.0114C99.1742 23.2235 99.57 23.3295 100.051 23.3295ZM106.388 24.5V12.8636H108.087V17.1875H108.189C108.287 17.0057 108.429 16.7954 108.615 16.5568C108.801 16.3182 109.058 16.1098 109.388 15.9318C109.717 15.75 110.153 15.6591 110.695 15.6591C111.399 15.6591 112.028 15.8371 112.581 16.1932C113.134 16.5492 113.568 17.0625 113.882 17.7329C114.2 18.4034 114.359 19.2102 114.359 20.1534C114.359 21.0966 114.202 21.9053 113.888 22.5795C113.573 23.25 113.142 23.767 112.592 24.1307C112.043 24.4905 111.416 24.6704 110.712 24.6704C110.181 24.6704 109.748 24.5814 109.41 24.4034C109.077 24.2254 108.816 24.017 108.626 23.7784C108.437 23.5398 108.291 23.3276 108.189 23.142H108.047V24.5H106.388ZM108.053 20.1364C108.053 20.75 108.142 21.2879 108.32 21.75C108.498 22.2121 108.755 22.5739 109.092 22.8352C109.429 23.0928 109.842 23.2216 110.331 23.2216C110.839 23.2216 111.263 23.0871 111.604 22.8182C111.945 22.5454 112.202 22.1761 112.376 21.7102C112.554 21.2443 112.643 20.7197 112.643 20.1364C112.643 19.5606 112.556 19.0436 112.382 18.5852C112.212 18.1269 111.954 17.7651 111.609 17.5C111.268 17.2348 110.842 17.1023 110.331 17.1023C109.839 17.1023 109.422 17.2292 109.081 17.4829C108.744 17.7367 108.488 18.0909 108.314 18.5454C108.14 19 108.053 19.5303 108.053 20.1364ZM117.966 12.8636V24.5H116.267V12.8636H117.966ZM124.013 24.6761C123.153 24.6761 122.412 24.4924 121.791 24.125C121.174 23.7538 120.696 23.2329 120.359 22.5625C120.026 21.8883 119.859 21.0985 119.859 20.1932C119.859 19.2992 120.026 18.5114 120.359 17.8295C120.696 17.1477 121.166 16.6155 121.768 16.2329C122.374 15.8504 123.083 15.6591 123.893 15.6591C124.386 15.6591 124.863 15.7405 125.325 15.9034C125.787 16.0663 126.202 16.322 126.57 16.6704C126.937 17.0189 127.227 17.4716 127.439 18.0284C127.651 18.5814 127.757 19.2538 127.757 20.0454V20.6477H120.82V19.375H126.092C126.092 18.928 126.001 18.5322 125.82 18.1875C125.638 17.839 125.382 17.5644 125.053 17.3636C124.727 17.1629 124.344 17.0625 123.905 17.0625C123.428 17.0625 123.011 17.1799 122.655 17.4148C122.303 17.6458 122.03 17.9489 121.837 18.3239C121.647 18.6951 121.553 19.0985 121.553 19.5341V20.5284C121.553 21.1117 121.655 21.6079 121.859 22.017C122.068 22.4261 122.357 22.7386 122.729 22.9545C123.1 23.1667 123.534 23.2727 124.03 23.2727C124.352 23.2727 124.645 23.2273 124.91 23.1364C125.176 23.0417 125.405 22.9015 125.598 22.7159C125.791 22.5303 125.939 22.3011 126.041 22.0284L127.649 22.3182C127.52 22.7917 127.289 23.2064 126.956 23.5625C126.626 23.9148 126.212 24.1894 125.712 24.3864C125.215 24.5795 124.649 24.6761 124.013 24.6761ZM137.553 24.6761C136.734 24.6761 136.02 24.4886 135.41 24.1136C134.801 23.7386 134.327 23.214 133.99 22.5398C133.653 21.8655 133.484 21.0776 133.484 20.1761C133.484 19.2708 133.653 18.4792 133.99 17.8011C134.327 17.1231 134.801 16.5966 135.41 16.2216C136.02 15.8466 136.734 15.6591 137.553 15.6591C138.371 15.6591 139.085 15.8466 139.695 16.2216C140.304 16.5966 140.778 17.1231 141.115 17.8011C141.452 18.4792 141.621 19.2708 141.621 20.1761C141.621 21.0776 141.452 21.8655 141.115 22.5398C140.778 23.214 140.304 23.7386 139.695 24.1136C139.085 24.4886 138.371 24.6761 137.553 24.6761ZM137.558 23.25C138.089 23.25 138.528 23.1098 138.876 22.8295C139.225 22.5492 139.482 22.1761 139.649 21.7102C139.82 21.2443 139.905 20.7311 139.905 20.1704C139.905 19.6136 139.82 19.1023 139.649 18.6364C139.482 18.1667 139.225 17.7898 138.876 17.5057C138.528 17.2216 138.089 17.0795 137.558 17.0795C137.024 17.0795 136.581 17.2216 136.229 17.5057C135.88 17.7898 135.621 18.1667 135.45 18.6364C135.284 19.1023 135.2 19.6136 135.2 20.1704C135.2 20.7311 135.284 21.2443 135.45 21.7102C135.621 22.1761 135.88 22.5492 136.229 22.8295C136.581 23.1098 137.024 23.25 137.558 23.25ZM145.216 19.3182V24.5H143.517V15.7727H145.148V17.1932H145.256C145.456 16.7311 145.771 16.3598 146.199 16.0795C146.631 15.7992 147.174 15.6591 147.83 15.6591C148.424 15.6591 148.945 15.7841 149.392 16.0341C149.839 16.2803 150.186 16.6477 150.432 17.1364C150.678 17.625 150.801 18.2292 150.801 18.9489V24.5H149.102V19.1534C149.102 18.5208 148.937 18.0265 148.608 17.6704C148.278 17.3106 147.826 17.1307 147.25 17.1307C146.856 17.1307 146.506 17.2159 146.199 17.3864C145.896 17.5568 145.655 17.8068 145.477 18.1364C145.303 18.4621 145.216 18.8561 145.216 19.3182Z" fill="#E8E8E8"/>
<path d="M63.6101 43.5H60.3984L64.5699 31.1364H68.5483L72.7198 43.5H69.5081L66.6044 34.2514H66.5078L63.6101 43.5ZM63.1814 38.6342H69.8945V40.9041H63.1814V38.6342ZM77.003 31.1364V43.5H74.0509V31.1364H77.003ZM78.882 46.9773V34.2273H81.8039V35.815H81.8944C82.0152 35.5333 82.1862 35.2616 82.4076 35C82.6329 34.7384 82.9187 34.5251 83.2648 34.3601C83.6149 34.191 84.0335 34.1065 84.5205 34.1065C85.1644 34.1065 85.7661 34.2756 86.3255 34.6136C86.889 34.9517 87.3438 35.4729 87.6899 36.1772C88.036 36.8815 88.209 37.779 88.209 38.8697C88.209 39.9201 88.042 40.7995 87.708 41.5078C87.378 42.2161 86.9312 42.7474 86.3678 43.1016C85.8084 43.4557 85.1866 43.6328 84.5024 43.6328C84.0355 43.6328 83.631 43.5563 83.289 43.4034C82.9469 43.2505 82.6591 43.0492 82.4257 42.7997C82.1963 42.5502 82.0192 42.2825 81.8944 41.9968H81.8341V46.9773H78.882ZM81.7737 38.8636C81.7737 39.3627 81.8401 39.7973 81.9729 40.1676C82.1097 40.5379 82.3049 40.8256 82.5585 41.0309C82.8161 41.2321 83.1239 41.3327 83.4821 41.3327C83.8443 41.3327 84.1522 41.2321 84.4058 41.0309C84.6593 40.8256 84.8505 40.5379 84.9793 40.1676C85.1121 39.7973 85.1785 39.3627 85.1785 38.8636C85.1785 38.3646 85.1121 37.9319 84.9793 37.5657C84.8505 37.1994 84.6593 36.9157 84.4058 36.7145C84.1563 36.5132 83.8484 36.4126 83.4821 36.4126C83.1199 36.4126 82.812 36.5112 82.5585 36.7084C82.3049 36.9056 82.1097 37.1874 81.9729 37.5536C81.8401 37.9199 81.7737 38.3565 81.7737 38.8636ZM89.756 43.5V34.2273H92.7081V43.5H89.756ZM91.2351 33.1467C90.8205 33.1467 90.4643 33.0098 90.1665 32.7361C89.8687 32.4584 89.7198 32.1244 89.7198 31.734C89.7198 31.3476 89.8687 31.0176 90.1665 30.744C90.4643 30.4663 90.8205 30.3274 91.2351 30.3274C91.6536 30.3274 92.0098 30.4663 92.3036 30.744C92.6014 31.0176 92.7503 31.3476 92.7503 31.734C92.7503 32.1244 92.6014 32.4584 92.3036 32.7361C92.0098 33.0098 91.6536 33.1467 91.2351 33.1467ZM97.5391 38.2116V43.5H94.5871V34.2273H97.3942V35.9297H97.4969C97.7021 35.3622 98.0523 34.9175 98.5473 34.5955C99.0423 34.2695 99.6319 34.1065 100.316 34.1065C100.968 34.1065 101.534 34.2534 102.012 34.5472C102.495 34.837 102.87 35.2435 103.135 35.7667C103.405 36.2859 103.538 36.8936 103.534 37.5898V43.5H100.582V38.1694C100.586 37.6542 100.455 37.2518 100.189 36.962C99.9277 36.6722 99.5635 36.5273 99.0967 36.5273C98.7868 36.5273 98.5131 36.5958 98.2756 36.7326C98.0422 36.8654 97.8611 37.0566 97.7323 37.3061C97.6075 37.5556 97.5431 37.8575 97.5391 38.2116ZM109.696 43.6751C108.726 43.6751 107.889 43.4839 107.185 43.1016C106.484 42.7152 105.945 42.1658 105.567 41.4535C105.192 40.7371 105.005 39.8859 105.005 38.8998C105.005 37.942 105.194 37.1049 105.573 36.3885C105.951 35.6681 106.484 35.1087 107.173 34.7102C107.861 34.3078 108.672 34.1065 109.605 34.1065C110.265 34.1065 110.869 34.2092 111.417 34.4144C111.964 34.6197 112.437 34.9235 112.835 35.326C113.234 35.7284 113.544 36.2255 113.765 36.8171C113.986 37.4047 114.097 38.0788 114.097 38.8395V39.576H106.038V37.8615H111.35C111.346 37.5476 111.272 37.2679 111.127 37.0224C110.982 36.7769 110.783 36.5857 110.529 36.4489C110.28 36.308 109.992 36.2376 109.666 36.2376C109.336 36.2376 109.04 36.312 108.778 36.4609C108.517 36.6058 108.31 36.805 108.157 37.0586C108.004 37.3081 107.923 37.5918 107.915 37.9098V39.6545C107.915 40.0328 107.99 40.3648 108.138 40.6506C108.287 40.9323 108.499 41.1516 108.772 41.3086C109.046 41.4655 109.372 41.544 109.75 41.544C110.012 41.544 110.249 41.5078 110.463 41.4354C110.676 41.3629 110.859 41.2563 111.012 41.1154C111.165 40.9745 111.28 40.8015 111.356 40.5962L114.067 40.6747C113.954 41.2824 113.707 41.8117 113.324 42.2624C112.946 42.7092 112.449 43.0573 111.833 43.3068C111.217 43.5523 110.505 43.6751 109.696 43.6751ZM119.257 43.5V31.1364H122.245V41.0731H127.389V43.5H119.257ZM128.936 43.5V34.2273H131.888V43.5H128.936ZM130.415 33.1467C130 33.1467 129.644 33.0098 129.346 32.7361C129.048 32.4584 128.899 32.1244 128.899 31.734C128.899 31.3476 129.048 31.0176 129.346 30.744C129.644 30.4663 130 30.3274 130.415 30.3274C130.833 30.3274 131.189 30.4663 131.483 30.744C131.781 31.0176 131.93 31.3476 131.93 31.734C131.93 32.1244 131.781 32.4584 131.483 32.7361C131.189 33.0098 130.833 33.1467 130.415 33.1467ZM136.719 38.2116V43.5H133.767V34.2273H136.574V35.9297H136.677C136.882 35.3622 137.232 34.9175 137.727 34.5955C138.222 34.2695 138.812 34.1065 139.496 34.1065C140.148 34.1065 140.713 34.2534 141.192 34.5472C141.675 34.837 142.049 35.2435 142.315 35.7667C142.585 36.2859 142.717 36.8936 142.713 37.5898V43.5H139.761V38.1694C139.765 37.6542 139.635 37.2518 139.369 36.962C139.107 36.6722 138.743 36.5273 138.276 36.5273C137.966 36.5273 137.693 36.5958 137.455 36.7326C137.222 36.8654 137.041 37.0566 136.912 37.3061C136.787 37.5556 136.723 37.8575 136.719 38.2116ZM150.524 39.4975V34.2273H153.47V43.5H150.657V41.7734H150.56C150.355 42.3409 150.005 42.7917 149.51 43.1257C149.019 43.4557 148.425 43.6207 147.729 43.6207C147.097 43.6207 146.541 43.4758 146.062 43.1861C145.584 42.8963 145.211 42.4918 144.946 41.9726C144.68 41.4494 144.545 40.8377 144.541 40.1374V34.2273H147.493V39.5579C147.497 40.061 147.63 40.4574 147.892 40.7471C148.153 41.0369 148.509 41.1818 148.96 41.1818C149.254 41.1818 149.518 41.1174 149.751 40.9886C149.988 40.8558 150.176 40.6646 150.312 40.4151C150.453 40.1616 150.524 39.8557 150.524 39.4975ZM157.86 34.2273L159.387 37.2819L160.969 34.2273H163.945L161.356 38.8636L164.042 43.5H161.09L159.387 40.4212L157.727 43.5H154.733L157.425 38.8636L154.866 34.2273H157.86Z" fill="#0D597F"/>
</g>
<defs>
<filter id="filter0_d_1_50" x="6.28571" y="2.28571" width="51.4286" height="51.4286" filterUnits="userSpaceOnUse" color-interpolation-filters="sRGB">
<feFlood flood-opacity="0" result="BackgroundImageFix"/>
<feColorMatrix in="SourceAlpha" type="matrix" values="0 0 0 0 0 0 0 0 0 0 0 0 0 0 0 0 0 0 127 0" result="hardAlpha"/>
<feOffset/>
<feGaussianBlur stdDeviation="2.85714"/>
<feComposite in2="hardAlpha" operator="out"/>
<feColorMatrix type="matrix" values="0 0 0 0 0 0 0 0 0 0 0 0 0 0 0 0 0 0 0.25 0"/>
<feBlend mode="normal" in2="BackgroundImageFix" result="effect1_dropShadow_1_50"/>
<feBlend mode="normal" in="SourceGraphic" in2="effect1_dropShadow_1_50" result="shape"/>
</filter>
<filter id="filter1_d_1_50" x="54.4" y="3.9" width="116.2" height="48.6773" filterUnits="userSpaceOnUse" color-interpolation-filters="sRGB">
<feFlood flood-opacity="0" result="BackgroundImageFix"/>
<feColorMatrix in="SourceAlpha" type="matrix" values="0 0 0 0 0 0 0 0 0 0 0 0 0 0 0 0 0 0 127 0" result="hardAlpha"/>
<feOffset/>
<feGaussianBlur stdDeviation="2.8"/>
<feComposite in2="hardAlpha" operator="out"/>
<feColorMatrix type="matrix" values="0 0 0 0 0 0 0 0 0 0 0 0 0 0 0 0 0 0 0.25 0"/>
<feBlend mode="normal" in2="BackgroundImageFix" result="effect1_dropShadow_1_50"/>
<feBlend mode="normal" in="SourceGraphic" in2="effect1_dropShadow_1_50" result="shape"/>
</filter>
<linearGradient id="paint0_linear_1_50" x1="88.5" y1="0" x2="88.5" y2="56" gradientUnits="userSpaceOnUse">
<stop stop-color="#052433"/>
<stop offset="1" stop-color="#020D13"/>
</linearGradient>
</defs>
</svg>
