<svg width="208" height="40" viewBox="0 0 208 40" fill="none" xmlns="http://www.w3.org/2000/svg">
<rect width="208.001" height="40.0014" rx="8" fill="url(#paint0_linear_1_56)"/>
<rect x="1.07143" y="1.07143" width="205.858" height="37.8585" rx="6.92857" stroke="white" stroke-opacity="0.15" stroke-width="2.14286"/>
<g filter="url(#filter0_d_1_56)">
<path d="M31.9765 9.70492C29.3901 5.9795 24.2409 4.88797 20.5392 7.23712L14.0138 11.4134C12.2341 12.5286 11.0002 14.3558 10.6443 16.4202C10.3358 18.1524 10.5969 19.932 11.4274 21.4744C10.8579 22.3286 10.4782 23.2778 10.3121 24.2744C9.93245 26.3863 10.4308 28.5693 11.6647 30.3015C14.2748 34.027 19.4002 35.1185 23.1019 32.7693L29.6274 28.6168C31.407 27.5015 32.6409 25.6744 32.9969 23.61C33.3053 21.8778 33.0443 20.0981 32.2138 18.5558C32.7833 17.7015 33.163 16.7524 33.3291 15.7558C33.7324 13.6202 33.2341 11.4371 31.9765 9.70492Z" fill="#FF3E00"/>
<path d="M19.8985 30.6575C17.7867 31.2032 15.5799 30.3727 14.346 28.5931C13.5867 27.549 13.3019 26.2439 13.5155 24.9625C13.563 24.749 13.6104 24.5592 13.6579 24.3456L13.7765 23.9659L14.1087 24.2032C14.8918 24.7727 15.746 25.1998 16.6714 25.4846L16.9087 25.5558L16.885 25.7931C16.8613 26.1253 16.9562 26.4812 17.146 26.7659C17.5257 27.3117 18.1901 27.5727 18.8308 27.4066C18.9731 27.3592 19.1155 27.3117 19.2341 27.2405L25.7358 23.088C26.068 22.8744 26.2816 22.5659 26.3528 22.1863C26.424 21.8066 26.3291 21.4032 26.1155 21.0947C25.7358 20.549 25.0714 20.3117 24.4308 20.4778C24.2884 20.5253 24.146 20.5727 24.0274 20.6439L21.5358 22.2337C21.1324 22.4947 20.6816 22.6846 20.207 22.8032C18.0952 23.349 15.8884 22.5185 14.6545 20.7388C13.9189 19.6947 13.6104 18.3897 13.8477 17.1083C14.0613 15.8744 14.8206 14.7592 15.8884 14.0947L22.4138 9.94221C22.8172 9.68119 23.268 9.49136 23.7426 9.34898C25.8545 8.80322 28.0613 9.63373 29.2952 11.4134C30.0545 12.4575 30.3392 13.7625 30.1257 15.0439C30.0782 15.2575 30.0308 15.4473 29.9596 15.6608L29.8409 16.0405L29.5087 15.8032C28.7257 15.2337 27.8714 14.8066 26.946 14.5219L26.7087 14.4507L26.7324 14.2134C26.7562 13.8812 26.6613 13.5253 26.4714 13.2405C26.0918 12.6947 25.4274 12.4575 24.7867 12.6236C24.6443 12.671 24.5019 12.7185 24.3833 12.7897L17.8816 16.9422C17.5494 17.1558 17.3358 17.4642 17.2646 17.8439C17.1935 18.2236 17.2884 18.627 17.5019 18.9354C17.8816 19.4812 18.546 19.7185 19.1867 19.5524C19.3291 19.5049 19.4714 19.4575 19.5901 19.3863L22.0816 17.7964C22.485 17.5354 22.9358 17.3456 23.4104 17.2032C25.5223 16.6575 27.7291 17.488 28.963 19.2676C29.7223 20.3117 30.007 21.6168 29.7935 22.8981C29.5799 24.132 28.8206 25.2473 27.7528 25.9117L21.2274 30.0642C20.824 30.3253 20.3731 30.5151 19.8985 30.6575Z" fill="white"/>
</g>
<g filter="url(#filter1_d_1_56)">
<path d="M43.3597 26.5007V14.1371H47.8874C48.7648 14.1371 49.4912 14.282 50.0667 14.5717C50.6423 14.8575 51.0729 15.2458 51.3586 15.7369C51.6444 16.2238 51.7873 16.7732 51.7873 17.3849C51.7873 17.9001 51.6927 18.3347 51.5035 18.6889C51.3144 19.0391 51.0608 19.3208 50.7429 19.5341C50.429 19.7434 50.0828 19.8963 49.7045 19.9929V20.1136C50.115 20.1337 50.5155 20.2666 50.9059 20.5121C51.3003 20.7535 51.6263 21.0976 51.8839 21.5444C52.1414 21.9911 52.2702 22.5344 52.2702 23.1743C52.2702 23.8062 52.1213 24.3737 51.8235 24.8768C51.5297 25.3758 51.0749 25.7722 50.4591 26.066C49.8434 26.3558 49.0566 26.5007 48.0987 26.5007H43.3597ZM45.2251 24.9009H47.9176C48.8111 24.9009 49.451 24.7279 49.8373 24.3817C50.2237 24.0356 50.4169 23.603 50.4169 23.0838C50.4169 22.6934 50.3183 22.3352 50.1211 22.0092C49.9239 21.6832 49.6421 21.4236 49.2759 21.2305C48.9137 21.0373 48.483 20.9407 47.984 20.9407H45.2251V24.9009ZM45.2251 19.4858H47.7244C48.143 19.4858 48.5193 19.4053 48.8533 19.2443C49.1914 19.0833 49.459 18.8579 49.6562 18.5682C49.8575 18.2744 49.9581 17.9283 49.9581 17.5298C49.9581 17.0187 49.779 16.5901 49.4208 16.244C49.0626 15.8978 48.5132 15.7248 47.7727 15.7248H45.2251V19.4858ZM60.2118 22.6552V17.228H62.0229V26.5007H60.248V24.8949H60.1514C59.9381 25.3899 59.596 25.8024 59.1251 26.1324C58.6583 26.4584 58.0767 26.6214 57.3805 26.6214C56.7848 26.6214 56.2576 26.4906 55.7988 26.229C55.344 25.9634 54.9858 25.571 54.7242 25.0518C54.4667 24.5327 54.3379 23.8907 54.3379 23.1261V17.228H56.1429V22.9087C56.1429 23.5406 56.318 24.0437 56.6681 24.418C57.0183 24.7922 57.473 24.9794 58.0325 24.9794C58.3705 24.9794 58.7066 24.8949 59.0406 24.7258C59.3787 24.5568 59.6584 24.3012 59.8798 23.9591C60.1051 23.6171 60.2158 23.1824 60.2118 22.6552ZM64.4482 26.5007V17.228H66.2533V26.5007H64.4482ZM65.3598 15.7972C65.0459 15.7972 64.7762 15.6926 64.5508 15.4833C64.3295 15.27 64.2188 15.0164 64.2188 14.7226C64.2188 14.4248 64.3295 14.1713 64.5508 13.962C64.7762 13.7487 65.0459 13.642 65.3598 13.642C65.6737 13.642 65.9413 13.7487 66.1627 13.962C66.3881 14.1713 66.5008 14.4248 66.5008 14.7226C66.5008 15.0164 66.3881 15.27 66.1627 15.4833C65.9413 15.6926 65.6737 15.7972 65.3598 15.7972ZM70.4867 14.1371V26.5007H68.6816V14.1371H70.4867ZM77.2435 17.228V18.6768H72.1785V17.228H77.2435ZM73.5368 15.0064H75.3419V23.778C75.3419 24.1282 75.3942 24.3918 75.4988 24.5689C75.6035 24.7419 75.7383 24.8607 75.9033 24.9251C76.0723 24.9854 76.2554 25.0156 76.4526 25.0156C76.5975 25.0156 76.7243 25.0056 76.833 24.9854C76.9416 24.9653 77.0262 24.9492 77.0865 24.9371L77.4125 26.4283C77.3079 26.4685 77.159 26.5087 76.9658 26.549C76.7726 26.5933 76.5311 26.6174 76.2414 26.6214C75.7664 26.6295 75.3237 26.545 74.9132 26.3679C74.5027 26.1908 74.1707 25.9171 73.9171 25.5469C73.6636 25.1766 73.5368 24.7118 73.5368 24.1523V15.0064ZM85.7495 26.5007L83.0208 17.228H84.8862L86.7034 24.0376H86.7939L88.6171 17.228H90.4825L92.2936 24.0074H92.3841L94.1891 17.228H96.0546L93.3319 26.5007H91.4906L89.6071 19.8057H89.4683L87.5847 26.5007H85.7495ZM97.7675 26.5007V17.228H99.5726V26.5007H97.7675ZM98.6791 15.7972C98.3652 15.7972 98.0955 15.6926 97.8702 15.4833C97.6488 15.27 97.5381 15.0164 97.5381 14.7226C97.5381 14.4248 97.6488 14.1713 97.8702 13.962C98.0955 13.7487 98.3652 13.642 98.6791 13.642C98.993 13.642 99.2607 13.7487 99.482 13.962C99.7074 14.1713 99.8201 14.4248 99.8201 14.7226C99.8201 15.0164 99.7074 15.27 99.482 15.4833C99.2607 15.6926 98.993 15.7972 98.6791 15.7972ZM106.329 17.228V18.6768H101.264V17.228H106.329ZM102.623 15.0064H104.428V23.778C104.428 24.1282 104.48 24.3918 104.585 24.5689C104.689 24.7419 104.824 24.8607 104.989 24.9251C105.158 24.9854 105.341 25.0156 105.539 25.0156C105.683 25.0156 105.81 25.0056 105.919 24.9854C106.028 24.9653 106.112 24.9492 106.172 24.9371L106.498 26.4283C106.394 26.4685 106.245 26.5087 106.052 26.549C105.859 26.5933 105.617 26.6174 105.327 26.6214C104.852 26.6295 104.41 26.545 103.999 26.3679C103.589 26.1908 103.257 25.9171 103.003 25.5469C102.75 25.1766 102.623 24.7118 102.623 24.1523V15.0064ZM110.33 20.995V26.5007H108.525V14.1371H110.306V18.7372H110.421C110.638 18.2382 110.97 17.8417 111.417 17.5479C111.864 17.2541 112.447 17.1072 113.168 17.1072C113.804 17.1072 114.359 17.238 114.834 17.4996C115.313 17.7612 115.683 18.1516 115.945 18.6708C116.21 19.1859 116.343 19.8299 116.343 20.6026V26.5007H114.538V20.8199C114.538 20.1398 114.363 19.6126 114.013 19.2383C113.663 18.86 113.176 18.6708 112.552 18.6708C112.125 18.6708 111.743 18.7614 111.405 18.9425C111.071 19.1236 110.807 19.3892 110.614 19.7393C110.425 20.0855 110.33 20.504 110.33 20.995Z" fill="#E8E8E8"/>
<path d="M129.62 17.3437C129.58 16.901 129.401 16.5569 129.083 16.3114C128.769 16.0619 128.32 15.9371 127.736 15.9371C127.35 15.9371 127.028 15.9874 126.771 16.0881C126.513 16.1887 126.32 16.3275 126.191 16.5046C126.062 16.6777 125.996 16.8769 125.992 17.1023C125.984 17.2874 126.02 17.4504 126.1 17.5913C126.185 17.7321 126.306 17.8569 126.463 17.9655C126.624 18.0702 126.817 18.1627 127.042 18.2432C127.268 18.3237 127.521 18.3942 127.803 18.4545L128.865 18.696C129.477 18.8288 130.016 19.0059 130.483 19.2273C130.954 19.4486 131.349 19.7122 131.666 20.0181C131.988 20.324 132.232 20.6761 132.397 21.0746C132.562 21.473 132.646 21.9197 132.651 22.4148C132.646 23.1955 132.449 23.8656 132.059 24.4251C131.669 24.9845 131.107 25.4131 130.375 25.7109C129.646 26.0087 128.767 26.1577 127.736 26.1577C126.702 26.1577 125.801 26.0027 125.032 25.6928C124.263 25.3829 123.666 24.912 123.239 24.2802C122.812 23.6483 122.593 22.8494 122.581 21.8835H125.442C125.467 22.2819 125.573 22.614 125.762 22.8796C125.952 23.1452 126.211 23.3465 126.541 23.4833C126.875 23.6201 127.262 23.6886 127.7 23.6886C128.103 23.6886 128.445 23.6342 128.727 23.5256C129.012 23.4169 129.232 23.266 129.385 23.0728C129.537 22.8796 129.616 22.6583 129.62 22.4087C129.616 22.1753 129.544 21.9761 129.403 21.8111C129.262 21.642 129.044 21.4971 128.751 21.3764C128.461 21.2516 128.091 21.1369 127.64 21.0323L126.348 20.7305C125.277 20.485 124.434 20.0885 123.818 19.5412C123.203 18.9898 122.897 18.2453 122.901 17.3075C122.897 16.5428 123.102 15.8727 123.517 15.2972C123.931 14.7217 124.505 14.273 125.237 13.951C125.97 13.629 126.805 13.468 127.742 13.468C128.7 13.468 129.531 13.631 130.236 13.957C130.944 14.279 131.493 14.7318 131.884 15.3153C132.274 15.8989 132.473 16.575 132.481 17.3437H129.62ZM143.155 16.728L139.973 26.0007H136.593L133.417 16.728H136.526L138.235 23.115H138.331L140.046 16.728H143.155ZM148.322 26.1758C147.352 26.1758 146.515 25.9846 145.811 25.6023C145.111 25.2159 144.571 24.6665 144.193 23.9542C143.819 23.2378 143.632 22.3866 143.632 21.4006C143.632 20.4427 143.821 19.6056 144.199 18.8892C144.577 18.1688 145.111 17.6094 145.799 17.2109C146.487 16.8085 147.298 16.6072 148.232 16.6072C148.892 16.6072 149.496 16.7099 150.043 16.9151C150.59 17.1204 151.063 17.4242 151.462 17.8267C151.86 18.2292 152.17 18.7262 152.391 19.3178C152.613 19.9054 152.723 20.5795 152.723 21.3402V22.0767H144.664V20.3622H149.977C149.972 20.0483 149.898 19.7686 149.753 19.5231C149.608 19.2776 149.409 19.0864 149.155 18.9496C148.906 18.8087 148.618 18.7383 148.292 18.7383C147.962 18.7383 147.666 18.8127 147.405 18.9616C147.143 19.1065 146.936 19.3057 146.783 19.5593C146.63 19.8088 146.55 20.0926 146.541 20.4105V22.1552C146.541 22.5335 146.616 22.8655 146.765 23.1513C146.914 23.433 147.125 23.6523 147.399 23.8093C147.672 23.9663 147.998 24.0447 148.377 24.0447C148.638 24.0447 148.876 24.0085 149.089 23.9361C149.302 23.8636 149.486 23.757 149.638 23.6161C149.791 23.4752 149.906 23.3022 149.983 23.0969L152.693 23.1754C152.58 23.7831 152.333 24.3124 151.951 24.7631C151.572 25.2099 151.075 25.558 150.459 25.8075C149.844 26.053 149.131 26.1758 148.322 26.1758ZM157.183 13.6371V26.0007H154.231V13.6371H157.183ZM164.296 16.728V18.9013H158.446V16.728H164.296ZM159.672 14.5064H162.624V23.0849C162.624 23.266 162.652 23.4129 162.708 23.5256C162.769 23.6342 162.855 23.7127 162.968 23.761C163.081 23.8053 163.215 23.8274 163.372 23.8274C163.485 23.8274 163.604 23.8173 163.729 23.7972C163.857 23.7731 163.954 23.7529 164.018 23.7368L164.465 25.8679C164.324 25.9081 164.125 25.9584 163.867 26.0188C163.614 26.0792 163.31 26.1174 162.956 26.1335C162.264 26.1657 161.67 26.0852 161.175 25.892C160.684 25.6948 160.308 25.389 160.046 24.9744C159.789 24.5599 159.664 24.0387 159.672 23.4109V14.5064ZM170.037 26.1758C169.067 26.1758 168.23 25.9846 167.526 25.6023C166.826 25.2159 166.286 24.6665 165.908 23.9542C165.534 23.2378 165.347 22.3866 165.347 21.4006C165.347 20.4427 165.536 19.6056 165.914 18.8892C166.292 18.1688 166.826 17.6094 167.514 17.2109C168.202 16.8085 169.013 16.6072 169.947 16.6072C170.607 16.6072 171.21 16.7099 171.758 16.9151C172.305 17.1204 172.778 17.4242 173.176 17.8267C173.575 18.2292 173.885 18.7262 174.106 19.3178C174.327 19.9054 174.438 20.5795 174.438 21.3402V22.0767H166.379V20.3622H171.691C171.687 20.0483 171.613 19.7686 171.468 19.5231C171.323 19.2776 171.124 19.0864 170.87 18.9496C170.621 18.8087 170.333 18.7383 170.007 18.7383C169.677 18.7383 169.381 18.8127 169.12 18.9616C168.858 19.1065 168.651 19.3057 168.498 19.5593C168.345 19.8088 168.264 20.0926 168.256 20.4105V22.1552C168.256 22.5335 168.331 22.8655 168.48 23.1513C168.629 23.433 168.84 23.6523 169.114 23.8093C169.387 23.9663 169.713 24.0447 170.092 24.0447C170.353 24.0447 170.591 24.0085 170.804 23.9361C171.017 23.8636 171.2 23.757 171.353 23.6161C171.506 23.4752 171.621 23.3022 171.697 23.0969L174.408 23.1754C174.295 23.7831 174.048 24.3124 173.665 24.7631C173.287 25.2099 172.79 25.558 172.174 25.8075C171.559 26.053 170.846 26.1758 170.037 26.1758ZM175.946 26.0007V13.6371H178.934V18.865H179.097L183.184 13.6371H186.704L182.321 19.1548L186.782 26.0007H183.208L180.129 21.141L178.934 22.6502V26.0007H175.946ZM188.463 26.0007V16.728H191.416V26.0007H188.463ZM189.942 15.6474C189.528 15.6474 189.172 15.5105 188.874 15.2369C188.576 14.9592 188.427 14.6251 188.427 14.2347C188.427 13.8484 188.576 13.5183 188.874 13.2447C189.172 12.967 189.528 12.8281 189.942 12.8281C190.361 12.8281 190.717 12.967 191.011 13.2447C191.309 13.5183 191.458 13.8484 191.458 14.2347C191.458 14.6251 191.309 14.9592 191.011 15.2369C190.717 15.5105 190.361 15.6474 189.942 15.6474ZM198.529 16.728V18.9013H192.679V16.728H198.529ZM193.904 14.5064H196.856V23.0849C196.856 23.266 196.884 23.4129 196.941 23.5256C197.001 23.6342 197.088 23.7127 197.2 23.761C197.313 23.8053 197.448 23.8274 197.605 23.8274C197.718 23.8274 197.836 23.8173 197.961 23.7972C198.09 23.7731 198.186 23.7529 198.251 23.7368L198.698 25.8679C198.557 25.9081 198.357 25.9584 198.1 26.0188C197.846 26.0792 197.542 26.1174 197.188 26.1335C196.496 26.1657 195.902 26.0852 195.407 25.892C194.916 25.6948 194.54 25.389 194.279 24.9744C194.021 24.5599 193.896 24.0387 193.904 23.4109V14.5064Z" fill="#FF3E00"/>
</g>
<defs>
<filter id="filter0_d_1_56" x="2.39972" y="0.39972" width="39.202" height="39.207" filterUnits="userSpaceOnUse" color-interpolation-filters="sRGB">
<feFlood flood-opacity="0" result="BackgroundImageFix"/>
<feColorMatrix in="SourceAlpha" type="matrix" values="0 0 0 0 0 0 0 0 0 0 0 0 0 0 0 0 0 0 127 0" result="hardAlpha"/>
<feOffset/>
<feGaussianBlur stdDeviation="2.80014"/>
<feComposite in2="hardAlpha" operator="out"/>
<feColorMatrix type="matrix" values="0 0 0 0 0 0 0 0 0 0 0 0 0 0 0 0 0 0 0.25 0"/>
<feBlend mode="normal" in2="BackgroundImageFix" result="effect1_dropShadow_1_56"/>
<feBlend mode="normal" in="SourceGraphic" in2="effect1_dropShadow_1_56" result="shape"/>
</filter>
<filter id="filter1_d_1_56" x="36.2871" y="3.78642" width="169.429" height="32.4286" filterUnits="userSpaceOnUse" color-interpolation-filters="sRGB">
<feFlood flood-opacity="0" result="BackgroundImageFix"/>
<feColorMatrix in="SourceAlpha" type="matrix" values="0 0 0 0 0 0 0 0 0 0 0 0 0 0 0 0 0 0 127 0" result="hardAlpha"/>
<feOffset/>
<feGaussianBlur stdDeviation="2.85714"/>
<feComposite in2="hardAlpha" operator="out"/>
<feColorMatrix type="matrix" values="0 0 0 0 0 0 0 0 0 0 0 0 0 0 0 0 0 0 0.25 0"/>
<feBlend mode="normal" in2="BackgroundImageFix" result="effect1_dropShadow_1_56"/>
<feBlend mode="normal" in="SourceGraphic" in2="effect1_dropShadow_1_56" result="shape"/>
</filter>
<linearGradient id="paint0_linear_1_56" x1="104.001" y1="0" x2="104.001" y2="40.0014" gradientUnits="userSpaceOnUse">
<stop stop-color="#801F00"/>
<stop offset="1" stop-color="#4D1300"/>
</linearGradient>
</defs>
</svg>
