<svg width="150" height="56" viewBox="0 0 150 56" fill="none" xmlns="http://www.w3.org/2000/svg">
<rect width="150" height="56" rx="8" fill="url(#paint0_linear_1_50)"/>
<rect x="1.05" y="1.05" width="147.9" height="53.9" rx="6.95" stroke="white" stroke-opacity="0.15" stroke-width="2.1"/>
<g filter="url(#filter0_d_1_50)">
<path d="M46.2522 13.2927C42.5573 7.97071 35.2013 6.41139 29.9132 9.76732L20.5912 15.7334C18.0488 17.3266 16.2861 19.9368 15.7776 22.886C15.3369 25.3605 15.7098 27.9029 16.8962 30.1063C16.0827 31.3266 15.5403 32.6826 15.303 34.1063C14.7606 37.1232 15.4725 40.2419 17.2352 42.7165C20.964 48.0385 28.2861 49.5978 33.5742 46.2419L42.8962 40.3097C45.4386 38.7165 47.2013 36.1063 47.7098 33.1571C48.1505 30.6826 47.7776 28.1402 46.5912 25.9368C47.4047 24.7165 47.9471 23.3605 48.1844 21.9368C48.7606 18.886 48.0488 15.7673 46.2522 13.2927Z" fill="#FF3E00"/>
<path d="M28.9979 43.2249C25.981 44.0046 22.8284 42.8182 21.0657 40.2758C19.981 38.7843 19.5742 36.9199 19.8793 35.0894C19.9471 34.7843 20.0149 34.5131 20.0827 34.208L20.2522 33.6656L20.7267 34.0046C21.8454 34.8182 23.0657 35.4283 24.3878 35.8351L24.7267 35.9368L24.6928 36.2758C24.6589 36.7504 24.7945 37.2588 25.0657 37.6656C25.6081 38.4453 26.5573 38.8182 27.4725 38.5809C27.6759 38.5131 27.8793 38.4453 28.0488 38.3436L37.3369 32.4114C37.8115 32.1063 38.1166 31.6656 38.2183 31.1233C38.32 30.5809 38.1844 30.0046 37.8793 29.5639C37.3369 28.7843 36.3878 28.4453 35.4725 28.6826C35.2691 28.7504 35.0657 28.8182 34.8962 28.9199L31.3369 31.191C30.7606 31.5639 30.1166 31.8351 29.4386 32.0046C26.4217 32.7843 23.2691 31.5978 21.5064 29.0555C20.4556 27.5639 20.0149 25.6995 20.3539 23.869C20.6589 22.1063 21.7437 20.5131 23.2691 19.5639L32.5911 13.6317C33.1674 13.2588 33.8115 12.9877 34.4895 12.7843C37.5064 12.0046 40.6589 13.191 42.4217 15.7334C43.5064 17.2249 43.9132 19.0894 43.6081 20.9199C43.5403 21.2249 43.4725 21.4961 43.3708 21.8012L43.2013 22.3436L42.7267 22.0046C41.6081 21.191 40.3878 20.5809 39.0657 20.1741L38.7267 20.0724L38.7606 19.7334C38.7945 19.2588 38.6589 18.7504 38.3878 18.3436C37.8454 17.5639 36.8962 17.2249 35.981 17.4622C35.7776 17.53 35.5742 17.5978 35.4047 17.6995L26.1166 23.6317C25.642 23.9368 25.3369 24.3775 25.2352 24.9199C25.1335 25.4622 25.2691 26.0385 25.5742 26.4792C26.1166 27.2588 27.0657 27.5978 27.981 27.3605C28.1844 27.2927 28.3878 27.2249 28.5572 27.1233L32.1166 24.8521C32.6928 24.4792 33.3369 24.208 34.0149 24.0046C37.0318 23.2249 40.1844 24.4114 41.9471 26.9538C43.0318 28.4453 43.4386 30.3097 43.1335 32.1402C42.8284 33.9029 41.7437 35.4961 40.2183 36.4453L30.8962 42.3775C30.32 42.7504 29.6759 43.0216 28.9979 43.2249Z" fill="white"/>
</g>
<g filter="url(#filter1_d_1_50)">
<path d="M61.2784 24.5V12.8636H65.5398C66.3655 12.8636 67.0492 13 67.5909 13.2727C68.1326 13.5417 68.5379 13.9072 68.8068 14.3693C69.0757 14.8276 69.2102 15.3447 69.2102 15.9204C69.2102 16.4053 69.1212 16.8144 68.9432 17.1477C68.7651 17.4773 68.5265 17.7424 68.2273 17.9432C67.9318 18.1401 67.606 18.2841 67.25 18.375V18.4886C67.6363 18.5076 68.0132 18.6326 68.3807 18.8636C68.7519 19.0909 69.0587 19.4148 69.3011 19.8352C69.5435 20.2557 69.6648 20.767 69.6648 21.3693C69.6648 21.964 69.5246 22.4981 69.2443 22.9716C68.9678 23.4413 68.5398 23.8144 67.9602 24.0909C67.3807 24.3636 66.6401 24.5 65.7386 24.5H61.2784ZM63.0341 22.9943H65.5682C66.4091 22.9943 67.0113 22.8314 67.375 22.5057C67.7386 22.1799 67.9204 21.7727 67.9204 21.2841C67.9204 20.9167 67.8276 20.5795 67.642 20.2727C67.4564 19.9659 67.1913 19.7216 66.8466 19.5398C66.5057 19.3579 66.1004 19.267 65.6307 19.267H63.0341V22.9943ZM63.0341 17.8977H65.3863C65.7803 17.8977 66.1345 17.822 66.4488 17.6704C66.767 17.5189 67.0189 17.3068 67.2045 17.0341C67.3939 16.7576 67.4886 16.4318 67.4886 16.0568C67.4886 15.5758 67.3201 15.1723 66.9829 14.8466C66.6458 14.5208 66.1288 14.3579 65.4318 14.3579H63.0341V17.8977ZM77.1392 20.8807V15.7727H78.8437V24.5H77.1733V22.9886H77.0824C76.8816 23.4545 76.5596 23.8428 76.1165 24.1534C75.6771 24.4602 75.1297 24.6136 74.4744 24.6136C73.9138 24.6136 73.4176 24.4905 72.9858 24.2443C72.5577 23.9943 72.2206 23.625 71.9744 23.1364C71.732 22.6477 71.6108 22.0436 71.6108 21.3239V15.7727H73.3096V21.1193C73.3096 21.714 73.4744 22.1875 73.804 22.5398C74.1335 22.892 74.5615 23.0682 75.088 23.0682C75.4062 23.0682 75.7225 22.9886 76.0369 22.8295C76.3551 22.6704 76.6184 22.4299 76.8267 22.1079C77.0388 21.786 77.143 21.3769 77.1392 20.8807ZM81.1264 24.5V15.7727H82.8253V24.5H81.1264ZM81.9844 14.4261C81.6889 14.4261 81.4351 14.3276 81.223 14.1307C81.0147 13.9299 80.9105 13.6913 80.9105 13.4148C80.9105 13.1345 81.0147 12.8958 81.223 12.6989C81.4351 12.4981 81.6889 12.3977 81.9844 12.3977C82.2798 12.3977 82.5317 12.4981 82.74 12.6989C82.9522 12.8958 83.0582 13.1345 83.0582 13.4148C83.0582 13.6913 82.9522 13.9299 82.74 14.1307C82.5317 14.3276 82.2798 14.4261 81.9844 14.4261ZM86.8096 12.8636V24.5H85.1108V12.8636H86.8096ZM93.169 15.7727V17.1364H88.402V15.7727H93.169ZM89.6804 13.6818H91.3792V21.9375C91.3792 22.267 91.4285 22.5151 91.527 22.6818C91.6254 22.8447 91.7523 22.9564 91.9076 23.017C92.0667 23.0739 92.2391 23.1023 92.4247 23.1023C92.5611 23.1023 92.6804 23.0928 92.7826 23.0739C92.8849 23.0549 92.9645 23.0398 93.0213 23.0284L93.3281 24.4318C93.2296 24.4697 93.0895 24.5076 92.9076 24.5454C92.7258 24.5871 92.4986 24.6098 92.2258 24.6136C91.7789 24.6212 91.3622 24.5417 90.9758 24.375C90.5895 24.2083 90.277 23.9508 90.0383 23.6023C89.7997 23.2538 89.6804 22.8163 89.6804 22.2898V13.6818ZM101.175 24.5L98.6065 15.7727H100.362L102.072 22.1818H102.158L103.874 15.7727H105.629L107.334 22.1534H107.419L109.118 15.7727H110.874L108.311 24.5H106.578L104.805 18.1989H104.675L102.902 24.5H101.175ZM112.486 24.5V15.7727H114.185V24.5H112.486ZM113.344 14.4261C113.048 14.4261 112.794 14.3276 112.582 14.1307C112.374 13.9299 112.27 13.6913 112.27 13.4148C112.27 13.1345 112.374 12.8958 112.582 12.6989C112.794 12.4981 113.048 12.3977 113.344 12.3977C113.639 12.3977 113.891 12.4981 114.099 12.6989C114.312 12.8958 114.418 13.1345 114.418 13.4148C114.418 13.6913 114.312 13.9299 114.099 14.1307C113.891 14.3276 113.639 14.4261 113.344 14.4261ZM120.544 15.7727V17.1364H115.777V15.7727H120.544ZM117.055 13.6818H118.754V21.9375C118.754 22.267 118.803 22.5151 118.902 22.6818C119 22.8447 119.127 22.9564 119.283 23.017C119.442 23.0739 119.614 23.1023 119.8 23.1023C119.936 23.1023 120.055 23.0928 120.158 23.0739C120.26 23.0549 120.339 23.0398 120.396 23.0284L120.703 24.4318C120.605 24.4697 120.464 24.5076 120.283 24.5454C120.101 24.5871 119.874 24.6098 119.601 24.6136C119.154 24.6212 118.737 24.5417 118.351 24.375C117.964 24.2083 117.652 23.9508 117.413 23.6023C117.175 23.2538 117.055 22.8163 117.055 22.2898V13.6818ZM124.31 19.3182V24.5H122.611V12.8636H124.287V17.1932H124.395C124.599 16.7235 124.912 16.3504 125.332 16.0739C125.753 15.7973 126.302 15.6591 126.98 15.6591C127.579 15.6591 128.101 15.7822 128.548 16.0284C128.999 16.2746 129.348 16.642 129.594 17.1307C129.844 17.6155 129.969 18.2216 129.969 18.9489V24.5H128.27V19.1534C128.27 18.5133 128.105 18.017 127.776 17.6648C127.446 17.3087 126.988 17.1307 126.401 17.1307C125.999 17.1307 125.639 17.2159 125.321 17.3864C125.007 17.5568 124.758 17.8068 124.577 18.1364C124.399 18.4621 124.31 18.8561 124.31 19.3182Z" fill="#E8E8E8"/>
<path d="M67.6186 34.843C67.5783 34.4003 67.3992 34.0562 67.0813 33.8107C66.7674 33.5612 66.3186 33.4364 65.7351 33.4364C65.3487 33.4364 65.0267 33.4867 64.7692 33.5873C64.5116 33.688 64.3184 33.8268 64.1896 34.0039C64.0608 34.177 63.9944 34.3762 63.9904 34.6016C63.9823 34.7867 64.0186 34.9497 64.0991 35.0905C64.1836 35.2314 64.3043 35.3562 64.4613 35.4648C64.6223 35.5695 64.8154 35.662 65.0408 35.7425C65.2662 35.823 65.5198 35.8935 65.8015 35.9538L66.864 36.1953C67.4757 36.3281 68.015 36.5052 68.4819 36.7266C68.9528 36.9479 69.3472 37.2115 69.6651 37.5174C69.9871 37.8233 70.2306 38.1754 70.3956 38.5739C70.5606 38.9723 70.6451 39.419 70.6491 39.9141C70.6451 40.6948 70.4479 41.3649 70.0575 41.9243C69.6671 42.4838 69.1057 42.9124 68.3732 43.2102C67.6448 43.508 66.7654 43.6569 65.7351 43.6569C64.7007 43.6569 63.7992 43.502 63.0305 43.1921C62.2618 42.8822 61.6642 42.4113 61.2376 41.7795C60.8109 41.1476 60.5916 40.3487 60.5795 39.3828H63.441C63.4652 39.7812 63.5718 40.1133 63.761 40.3789C63.9501 40.6445 64.2097 40.8458 64.5398 40.9826C64.8738 41.1194 65.2602 41.1878 65.6988 41.1878C66.1013 41.1878 66.4434 41.1335 66.7251 41.0248C67.0109 40.9162 67.2302 40.7653 67.3832 40.5721C67.5361 40.3789 67.6146 40.1575 67.6186 39.908C67.6146 39.6746 67.5421 39.4754 67.4013 39.3104C67.2604 39.1413 67.0431 38.9964 66.7493 38.8757C66.4595 38.7509 66.0892 38.6362 65.6385 38.5316L64.3466 38.2297C63.276 37.9842 62.4329 37.5878 61.8171 37.0405C61.2013 36.4891 60.8955 35.7445 60.8995 34.8068C60.8955 34.0421 61.1007 33.372 61.5153 32.7965C61.9298 32.221 62.5033 31.7722 63.2358 31.4503C63.9683 31.1283 64.8034 30.9673 65.7411 30.9673C66.699 30.9673 67.53 31.1303 68.2344 31.4563C68.9427 31.7783 69.4921 32.2311 69.8824 32.8146C70.2728 33.3982 70.472 34.0743 70.4801 34.843H67.6186ZM81.1534 34.2273L77.9719 43.5H74.5912L71.4158 34.2273H74.5248L76.2333 40.6143H76.3299L78.0444 34.2273H81.1534ZM86.321 43.6751C85.3511 43.6751 84.5139 43.4839 83.8096 43.1016C83.1094 42.7152 82.5701 42.1658 82.1917 41.4535C81.8174 40.7371 81.6303 39.8859 81.6303 38.8998C81.6303 37.942 81.8195 37.1049 82.1978 36.3885C82.5761 35.6681 83.1094 35.1087 83.7976 34.7102C84.4858 34.3078 85.2967 34.1065 86.2304 34.1065C86.8905 34.1065 87.4942 34.2092 88.0415 34.4144C88.5889 34.6197 89.0618 34.9235 89.4602 35.326C89.8586 35.7284 90.1685 36.2255 90.3899 36.8171C90.6112 37.4047 90.7219 38.0788 90.7219 38.8395V39.576H82.6626V37.8615H87.9751C87.9711 37.5476 87.8966 37.2679 87.7518 37.0224C87.6069 36.7769 87.4076 36.5857 87.1541 36.4489C86.9046 36.308 86.6168 36.2376 86.2908 36.2376C85.9608 36.2376 85.665 36.312 85.4034 36.4609C85.1418 36.6058 84.9345 36.805 84.7816 37.0586C84.6286 37.3081 84.5482 37.5918 84.5401 37.9098V39.6545C84.5401 40.0328 84.6146 40.3648 84.7635 40.6506C84.9124 40.9323 85.1237 41.1516 85.3973 41.3086C85.671 41.4655 85.997 41.544 86.3753 41.544C86.6369 41.544 86.8744 41.5078 87.0877 41.4354C87.301 41.3629 87.4841 41.2563 87.6371 41.1154C87.79 40.9745 87.9047 40.8015 87.9812 40.5962L90.6917 40.6747C90.579 41.2824 90.3315 41.8117 89.9492 42.2624C89.5709 42.7092 89.0738 43.0573 88.4581 43.3068C87.8423 43.5523 87.1299 43.6751 86.321 43.6751ZM95.1817 31.1364V43.5H92.2296V31.1364H95.1817ZM102.295 34.2273V36.4006H96.4449V34.2273H102.295ZM97.6704 32.0057H100.622V40.5842C100.622 40.7653 100.651 40.9122 100.707 41.0248C100.767 41.1335 100.854 41.212 100.967 41.2603C101.079 41.3046 101.214 41.3267 101.371 41.3267C101.484 41.3267 101.602 41.3166 101.727 41.2965C101.856 41.2724 101.953 41.2522 102.017 41.2361L102.464 43.3672C102.323 43.4074 102.124 43.4577 101.866 43.5181C101.613 43.5785 101.309 43.6167 100.955 43.6328C100.262 43.665 99.6687 43.5845 99.1736 43.3913C98.6826 43.1941 98.3063 42.8882 98.0447 42.4737C97.7871 42.0592 97.6624 41.538 97.6704 40.9101V32.0057ZM108.036 43.6751C107.066 43.6751 106.229 43.4839 105.524 43.1016C104.824 42.7152 104.285 42.1658 103.907 41.4535C103.532 40.7371 103.345 39.8859 103.345 38.8998C103.345 37.942 103.534 37.1049 103.913 36.3885C104.291 35.6681 104.824 35.1087 105.512 34.7102C106.201 34.3078 107.012 34.1065 107.945 34.1065C108.605 34.1065 109.209 34.2092 109.756 34.4144C110.304 34.6197 110.777 34.9235 111.175 35.326C111.573 35.7284 111.883 36.2255 112.105 36.8171C112.326 37.4047 112.437 38.0788 112.437 38.8395V39.576H104.377V37.8615H109.69C109.686 37.5476 109.611 37.2679 109.467 37.0224C109.322 36.7769 109.122 36.5857 108.869 36.4489C108.619 36.308 108.332 36.2376 108.006 36.2376C107.676 36.2376 107.38 36.312 107.118 36.4609C106.857 36.6058 106.649 36.805 106.496 37.0586C106.343 37.3081 106.263 37.5918 106.255 37.9098V39.6545C106.255 40.0328 106.329 40.3648 106.478 40.6506C106.627 40.9323 106.839 41.1516 107.112 41.3086C107.386 41.4655 107.712 41.544 108.09 41.544C108.352 41.544 108.589 41.5078 108.803 41.4354C109.016 41.3629 109.199 41.2563 109.352 41.1154C109.505 40.9745 109.62 40.8015 109.696 40.5962L112.407 40.6747C112.294 41.2824 112.046 41.8117 111.664 42.2624C111.286 42.7092 110.789 43.0573 110.173 43.3068C109.557 43.5523 108.845 43.6751 108.036 43.6751ZM113.944 43.5V31.1364H116.933V36.3643H117.096L121.183 31.1364H124.702L120.319 36.6541L124.781 43.5H121.207L118.128 38.6403L116.933 40.1495V43.5H113.944ZM126.462 43.5V34.2273H129.414V43.5H126.462ZM127.941 33.1467C127.527 33.1467 127.17 33.0098 126.873 32.7361C126.575 32.4584 126.426 32.1244 126.426 31.734C126.426 31.3476 126.575 31.0176 126.873 30.744C127.17 30.4663 127.527 30.3274 127.941 30.3274C128.36 30.3274 128.716 30.4663 129.01 30.744C129.307 31.0176 129.456 31.3476 129.456 31.734C129.456 32.1244 129.307 32.4584 129.01 32.7361C128.716 33.0098 128.36 33.1467 127.941 33.1467ZM136.527 34.2273V36.4006H130.677V34.2273H136.527ZM131.903 32.0057H134.855V40.5842C134.855 40.7653 134.883 40.9122 134.939 41.0248C135 41.1335 135.086 41.212 135.199 41.2603C135.312 41.3046 135.447 41.3267 135.603 41.3267C135.716 41.3267 135.835 41.3166 135.96 41.2965C136.088 41.2724 136.185 41.2522 136.249 41.2361L136.696 43.3672C136.555 43.4074 136.356 43.4577 136.099 43.5181C135.845 43.5785 135.541 43.6167 135.187 43.6328C134.495 43.665 133.901 43.5845 133.406 43.3913C132.915 43.1941 132.539 42.8882 132.277 42.4737C132.02 42.0592 131.895 41.538 131.903 40.9101V32.0057Z" fill="#FF3E00"/>
</g>
<defs>
<filter id="filter0_d_1_50" x="6.28571" y="2.28571" width="51.4286" height="51.4378" filterUnits="userSpaceOnUse" color-interpolation-filters="sRGB">
<feFlood flood-opacity="0" result="BackgroundImageFix"/>
<feColorMatrix in="SourceAlpha" type="matrix" values="0 0 0 0 0 0 0 0 0 0 0 0 0 0 0 0 0 0 127 0" result="hardAlpha"/>
<feOffset/>
<feGaussianBlur stdDeviation="2.85714"/>
<feComposite in2="hardAlpha" operator="out"/>
<feColorMatrix type="matrix" values="0 0 0 0 0 0 0 0 0 0 0 0 0 0 0 0 0 0 0.25 0"/>
<feBlend mode="normal" in2="BackgroundImageFix" result="effect1_dropShadow_1_50"/>
<feBlend mode="normal" in="SourceGraphic" in2="effect1_dropShadow_1_50" result="shape"/>
</filter>
<filter id="filter1_d_1_50" x="54.4" y="3.9" width="89.2" height="48.2" filterUnits="userSpaceOnUse" color-interpolation-filters="sRGB">
<feFlood flood-opacity="0" result="BackgroundImageFix"/>
<feColorMatrix in="SourceAlpha" type="matrix" values="0 0 0 0 0 0 0 0 0 0 0 0 0 0 0 0 0 0 127 0" result="hardAlpha"/>
<feOffset/>
<feGaussianBlur stdDeviation="2.8"/>
<feComposite in2="hardAlpha" operator="out"/>
<feColorMatrix type="matrix" values="0 0 0 0 0 0 0 0 0 0 0 0 0 0 0 0 0 0 0.25 0"/>
<feBlend mode="normal" in2="BackgroundImageFix" result="effect1_dropShadow_1_50"/>
<feBlend mode="normal" in="SourceGraphic" in2="effect1_dropShadow_1_50" result="shape"/>
</filter>
<linearGradient id="paint0_linear_1_50" x1="75" y1="0" x2="75" y2="56" gradientUnits="userSpaceOnUse">
<stop stop-color="#801F00"/>
<stop offset="1" stop-color="#4D1300"/>
</linearGradient>
</defs>
</svg>
