<svg width="40" height="40" viewBox="0 0 40 40" fill="none" xmlns="http://www.w3.org/2000/svg">
<rect width="40" height="40" rx="8" fill="url(#paint0_linear_1_68)"/>
<rect x="1.05" y="1.05" width="37.9" height="37.9" rx="6.95" stroke="white" stroke-opacity="0.15" stroke-width="2.1"/>
<g filter="url(#filter0_d_1_68)">
<path d="M20 6C27.7 6 34 12.3 34 20C34 27.7 27.7 34 20 34C12.3 34 6 27.7 6 20C6 12.3 12.3 6 20 6ZM23.43 22.73C24.97 20.77 24.76 17.97 22.8 16.5C20.91 15.03 18.11 15.38 16.5 17.34C14.96 19.3 15.17 22.1 17.13 23.57C19.09 25.04 21.89 24.69 23.43 22.73ZM15.94 31.83C16.78 32.18 18.6 32.53 19.51 32.53L25.6 23.71C27.56 20.77 27.07 16.78 24.34 14.61C21.89 12.65 18.46 12.72 16.01 14.61L7.54 21.12C7.75 23.36 8.38 24.48 8.38 24.55L13.21 19.3C12.86 21.61 13.7 23.99 15.66 25.46C17.34 26.79 19.37 27.14 21.33 26.72L15.94 31.83Z" fill="#00B3E0"/>
</g>
<defs>
<filter id="filter0_d_1_68" x="2" y="2" width="36" height="36" filterUnits="userSpaceOnUse" color-interpolation-filters="sRGB">
<feFlood flood-opacity="0" result="BackgroundImageFix"/>
<feColorMatrix in="SourceAlpha" type="matrix" values="0 0 0 0 0 0 0 0 0 0 0 0 0 0 0 0 0 0 127 0" result="hardAlpha"/>
<feOffset/>
<feGaussianBlur stdDeviation="2"/>
<feComposite in2="hardAlpha" operator="out"/>
<feColorMatrix type="matrix" values="0 0 0 0 0 0 0 0 0 0 0 0 0 0 0 0 0 0 0.25 0"/>
<feBlend mode="normal" in2="BackgroundImageFix" result="effect1_dropShadow_1_68"/>
<feBlend mode="normal" in="SourceGraphic" in2="effect1_dropShadow_1_68" result="shape"/>
</filter>
<linearGradient id="paint0_linear_1_68" x1="20" y1="0" x2="20" y2="40" gradientUnits="userSpaceOnUse">
<stop stop-color="#007492"/>
<stop offset="1" stop-color="#005970"/>
</linearGradient>
</defs>
</svg>
