<svg width="236" height="40" viewBox="0 0 236 40" fill="none" xmlns="http://www.w3.org/2000/svg">
<rect width="236.001" height="40.0014" rx="8" fill="url(#paint0_linear_1_56)"/>
<rect x="1.07143" y="1.07143" width="233.858" height="37.8585" rx="6.92857" stroke="white" stroke-opacity="0.15" stroke-width="2.14286"/>
<g filter="url(#filter0_d_1_56)">
<path d="M22 6C29.7 6 36 12.3 36 20C36 27.7 29.7 34 22 34C14.3 34 8 27.7 8 20C8 12.3 14.3 6 22 6ZM25.43 22.73C26.97 20.77 26.76 17.97 24.8 16.5C22.91 15.03 20.11 15.38 18.5 17.34C16.96 19.3 17.17 22.1 19.13 23.57C21.09 25.04 23.89 24.69 25.43 22.73ZM17.94 31.83C18.78 32.18 20.6 32.53 21.51 32.53L27.6 23.71C29.56 20.77 29.07 16.78 26.34 14.61C23.89 12.65 20.46 12.72 18.01 14.61L9.54 21.12C9.75 23.36 10.38 24.48 10.38 24.55L15.21 19.3C14.86 21.61 15.7 23.99 17.66 25.46C19.34 26.79 21.37 27.14 23.33 26.72L17.94 31.83Z" fill="#00B3E0"/>
</g>
<g filter="url(#filter1_d_1_56)">
<path d="M44.4041 26.5007H42.424L46.8732 14.1371H49.0284L53.4776 26.5007H51.4975L48.0021 16.3828H47.9055L44.4041 26.5007ZM44.7361 21.6591H51.1594V23.2287H44.7361V21.6591ZM61.8886 17.228L58.526 26.5007H56.5942L53.2256 17.228H55.1634L57.5118 24.3636H57.6084L59.9507 17.228H61.8886ZM66.0178 26.706C65.4302 26.706 64.899 26.5973 64.4241 26.38C63.9492 26.1586 63.5729 25.8386 63.2952 25.4201C63.0215 25.0015 62.8846 24.4884 62.8846 23.8807C62.8846 23.3575 62.9853 22.9268 63.1865 22.5888C63.3877 22.2507 63.6594 21.9831 64.0015 21.7859C64.3436 21.5886 64.7259 21.4397 65.1485 21.3391C65.5711 21.2385 66.0017 21.162 66.4404 21.1097C66.9958 21.0453 67.4466 20.993 67.7927 20.9528C68.1388 20.9085 68.3903 20.8381 68.5473 20.7415C68.7042 20.6449 68.7827 20.4879 68.7827 20.2706V20.2283C68.7827 19.7011 68.6338 19.2926 68.336 19.0028C68.0422 18.7131 67.6035 18.5682 67.0199 18.5682C66.4122 18.5682 65.9333 18.703 65.5832 18.9726C65.237 19.2383 64.9976 19.5341 64.8648 19.8601L63.1684 19.4737C63.3696 18.9103 63.6634 18.4555 64.0498 18.1094C64.4402 17.7592 64.8889 17.5057 65.396 17.3487C65.9031 17.1877 66.4364 17.1072 66.9958 17.1072C67.3661 17.1072 67.7585 17.1515 68.173 17.24C68.5916 17.3246 68.9819 17.4815 69.3442 17.7109C69.7104 17.9403 70.0102 18.2683 70.2437 18.6949C70.4771 19.1175 70.5938 19.6669 70.5938 20.343V26.5007H68.831V25.2329H68.7586C68.6419 25.4664 68.4668 25.6958 68.2334 25.9212C67.9999 26.1465 67.7001 26.3337 67.3339 26.4826C66.9676 26.6315 66.5289 26.706 66.0178 26.706ZM66.4102 25.2571C66.9093 25.2571 67.3359 25.1585 67.69 24.9613C68.0482 24.7641 68.3199 24.5065 68.505 24.1886C68.6942 23.8666 68.7888 23.5225 68.7888 23.1562V21.9609C68.7244 22.0253 68.5996 22.0857 68.4145 22.142C68.2334 22.1944 68.0261 22.2406 67.7927 22.2809C67.5592 22.3171 67.3319 22.3513 67.1105 22.3835C66.8891 22.4117 66.704 22.4358 66.5551 22.456C66.205 22.5002 65.885 22.5747 65.5952 22.6793C65.3095 22.784 65.0801 22.9349 64.907 23.1321C64.738 23.3253 64.6535 23.5828 64.6535 23.9048C64.6535 24.3515 64.8185 24.6896 65.1485 24.919C65.4785 25.1444 65.8991 25.2571 66.4102 25.2571ZM72.998 26.5007V17.228H74.8031V26.5007H72.998ZM73.9096 15.7972C73.5957 15.7972 73.326 15.6926 73.1006 15.4833C72.8793 15.27 72.7686 15.0164 72.7686 14.7226C72.7686 14.4248 72.8793 14.1713 73.1006 13.962C73.326 13.7487 73.5957 13.642 73.9096 13.642C74.2235 13.642 74.4911 13.7487 74.7125 13.962C74.9379 14.1713 75.0506 14.4248 75.0506 14.7226C75.0506 15.0164 74.9379 15.27 74.7125 15.4833C74.4911 15.6926 74.2235 15.7972 73.9096 15.7972ZM79.0365 14.1371V26.5007H77.2314V14.1371H79.0365ZM84.1633 26.706C83.5757 26.706 83.0445 26.5973 82.5696 26.38C82.0947 26.1586 81.7184 25.8386 81.4407 25.4201C81.167 25.0015 81.0301 24.4884 81.0301 23.8807C81.0301 23.3575 81.1308 22.9268 81.332 22.5888C81.5332 22.2507 81.8049 21.9831 82.147 21.7859C82.4891 21.5886 82.8714 21.4397 83.294 21.3391C83.7166 21.2385 84.1472 21.162 84.5859 21.1097C85.1413 21.0453 85.5921 20.993 85.9382 20.9528C86.2843 20.9085 86.5358 20.8381 86.6928 20.7415C86.8497 20.6449 86.9282 20.4879 86.9282 20.2706V20.2283C86.9282 19.7011 86.7793 19.2926 86.4815 19.0028C86.1877 18.7131 85.749 18.5682 85.1654 18.5682C84.5577 18.5682 84.0788 18.703 83.7287 18.9726C83.3825 19.2383 83.1431 19.5341 83.0103 19.8601L81.3139 19.4737C81.5151 18.9103 81.8089 18.4555 82.1953 18.1094C82.5857 17.7592 83.0344 17.5057 83.5415 17.3487C84.0486 17.1877 84.5819 17.1072 85.1413 17.1072C85.5116 17.1072 85.904 17.1515 86.3185 17.24C86.7371 17.3246 87.1274 17.4815 87.4897 17.7109C87.8559 17.9403 88.1557 18.2683 88.3892 18.6949C88.6226 19.1175 88.7393 19.6669 88.7393 20.343V26.5007H86.9765V25.2329H86.9041C86.7874 25.4664 86.6123 25.6958 86.3789 25.9212C86.1454 26.1465 85.8456 26.3337 85.4794 26.4826C85.1131 26.6315 84.6744 26.706 84.1633 26.706ZM84.5557 25.2571C85.0548 25.2571 85.4814 25.1585 85.8355 24.9613C86.1937 24.7641 86.4654 24.5065 86.6505 24.1886C86.8397 23.8666 86.9343 23.5225 86.9343 23.1562V21.9609C86.8699 22.0253 86.7451 22.0857 86.56 22.142C86.3789 22.1944 86.1716 22.2406 85.9382 22.2809C85.7047 22.3171 85.4774 22.3513 85.256 22.3835C85.0346 22.4117 84.8495 22.4358 84.7006 22.456C84.3505 22.5002 84.0305 22.5747 83.7407 22.6793C83.455 22.784 83.2256 22.9349 83.0525 23.1321C82.8835 23.3253 82.799 23.5828 82.799 23.9048C82.799 24.3515 82.964 24.6896 83.294 24.919C83.624 25.1444 84.0446 25.2571 84.5557 25.2571ZM91.2884 26.5007V14.1371H93.0934V18.7312H93.2021C93.3067 18.538 93.4577 18.3146 93.6549 18.0611C93.8521 17.8075 94.1258 17.5862 94.4759 17.397C94.826 17.2038 95.2889 17.1072 95.8644 17.1072C96.613 17.1072 97.2811 17.2964 97.8687 17.6747C98.4563 18.053 98.9171 18.5984 99.2511 19.3107C99.5892 20.0231 99.7582 20.8803 99.7582 21.8824C99.7582 22.8846 99.5912 23.7438 99.2571 24.4602C98.9231 25.1726 98.4643 25.7219 97.8807 26.1083C97.2972 26.4906 96.6311 26.6818 95.8825 26.6818C95.3191 26.6818 94.8582 26.5872 94.5 26.3981C94.1459 26.2089 93.8682 25.9876 93.667 25.734C93.4657 25.4805 93.3108 25.2551 93.2021 25.0579H93.0512V26.5007H91.2884ZM93.0572 21.8643C93.0572 22.5163 93.1518 23.0878 93.341 23.5788C93.5301 24.0698 93.8038 24.4542 94.162 24.7319C94.5202 25.0056 94.9589 25.1424 95.478 25.1424C96.0173 25.1424 96.4681 24.9995 96.8303 24.7138C97.1925 24.424 97.4662 24.0316 97.6513 23.5366C97.8405 23.0415 97.9351 22.4841 97.9351 21.8643C97.9351 21.2526 97.8425 20.7032 97.6574 20.2163C97.4763 19.7293 97.2026 19.3449 96.8363 19.0632C96.4741 18.7815 96.0214 18.6406 95.478 18.6406C94.9548 18.6406 94.5121 18.7754 94.1499 19.0451C93.7917 19.3147 93.5201 19.691 93.3349 20.174C93.1498 20.6569 93.0572 21.2204 93.0572 21.8643ZM103.59 14.1371V26.5007H101.785V14.1371H103.59ZM110.015 26.6878C109.101 26.6878 108.315 26.4926 107.655 26.1023C106.999 25.7078 106.491 25.1545 106.133 24.4421C105.779 23.7257 105.602 22.8866 105.602 21.9247C105.602 20.9749 105.779 20.1378 106.133 19.4133C106.491 18.6889 106.99 18.1234 107.63 17.717C108.274 17.3105 109.027 17.1072 109.888 17.1072C110.411 17.1072 110.918 17.1938 111.409 17.3668C111.9 17.5399 112.341 17.8115 112.732 18.1818C113.122 18.5521 113.43 19.033 113.655 19.6246C113.881 20.2122 113.993 20.9266 113.993 21.7677V22.4077H106.622V21.0554H112.224C112.224 20.5805 112.128 20.1599 111.935 19.7937C111.742 19.4234 111.47 19.1316 111.12 18.9183C110.774 18.705 110.367 18.5984 109.9 18.5984C109.393 18.5984 108.95 18.7231 108.572 18.9726C108.198 19.2181 107.908 19.5401 107.703 19.9386C107.502 20.333 107.401 20.7616 107.401 21.2244V22.2809C107.401 22.9007 107.51 23.4279 107.727 23.8626C107.948 24.2972 108.256 24.6292 108.651 24.8587C109.045 25.084 109.506 25.1967 110.033 25.1967C110.375 25.1967 110.687 25.1484 110.969 25.0518C111.251 24.9512 111.494 24.8023 111.699 24.6051C111.905 24.4079 112.061 24.1644 112.17 23.8746L113.879 24.1825C113.742 24.6856 113.496 25.1263 113.142 25.5046C112.792 25.8789 112.351 26.1707 111.82 26.38C111.293 26.5852 110.691 26.6878 110.015 26.6878ZM124.401 26.6878C123.532 26.6878 122.773 26.4886 122.125 26.0902C121.477 25.6917 120.974 25.1343 120.616 24.418C120.258 23.7016 120.079 22.8645 120.079 21.9066C120.079 20.9447 120.258 20.1036 120.616 19.3832C120.974 18.6627 121.477 18.1033 122.125 17.7049C122.773 17.3065 123.532 17.1072 124.401 17.1072C125.27 17.1072 126.029 17.3065 126.677 17.7049C127.325 18.1033 127.828 18.6627 128.186 19.3832C128.544 20.1036 128.723 20.9447 128.723 21.9066C128.723 22.8645 128.544 23.7016 128.186 24.418C127.828 25.1343 127.325 25.6917 126.677 26.0902C126.029 26.4886 125.27 26.6878 124.401 26.6878ZM124.407 25.1726C124.97 25.1726 125.437 25.0237 125.808 24.7258C126.178 24.428 126.452 24.0316 126.629 23.5366C126.81 23.0415 126.9 22.4962 126.9 21.9006C126.9 21.3089 126.81 20.7656 126.629 20.2706C126.452 19.7715 126.178 19.3711 125.808 19.0692C125.437 18.7674 124.97 18.6165 124.407 18.6165C123.84 18.6165 123.369 18.7674 122.994 19.0692C122.624 19.3711 122.348 19.7715 122.167 20.2706C121.99 20.7656 121.902 21.3089 121.902 21.9006C121.902 22.4962 121.99 23.0415 122.167 23.5366C122.348 24.0316 122.624 24.428 122.994 24.7258C123.369 25.0237 123.84 25.1726 124.407 25.1726ZM132.543 20.995V26.5007H130.738V17.228H132.471V18.7372H132.586C132.799 18.2462 133.133 17.8518 133.588 17.554C134.046 17.2561 134.624 17.1072 135.32 17.1072C135.952 17.1072 136.506 17.24 136.98 17.5057C137.455 17.7673 137.824 18.1577 138.085 18.6768C138.347 19.196 138.478 19.8379 138.478 20.6026V26.5007H136.673V20.8199C136.673 20.1478 136.497 19.6226 136.147 19.2443C135.797 18.862 135.316 18.6708 134.704 18.6708C134.286 18.6708 133.914 18.7614 133.588 18.9425C133.266 19.1236 133.01 19.3892 132.821 19.7393C132.636 20.0855 132.543 20.504 132.543 20.995Z" fill="#E8E8E8"/>
<path d="M147.611 26.0007H144.4L148.571 13.6371H152.55L156.721 26.0007H153.51L150.606 16.7521H150.509L147.611 26.0007ZM147.183 21.1349H153.896V23.4048H147.183V21.1349ZM158.052 29.478V16.728H160.974V18.3157H161.065C161.185 18.034 161.357 17.7623 161.578 17.5007C161.803 17.2391 162.089 17.0258 162.435 16.8608C162.785 16.6918 163.204 16.6072 163.691 16.6072C164.335 16.6072 164.936 16.7763 165.496 17.1143C166.059 17.4524 166.514 17.9736 166.86 18.6779C167.206 19.3822 167.379 20.2797 167.379 21.3704C167.379 22.4208 167.212 23.3002 166.878 24.0085C166.548 24.7168 166.102 25.2481 165.538 25.6023C164.979 25.9564 164.357 26.1335 163.673 26.1335C163.206 26.1335 162.801 26.057 162.459 25.9041C162.117 25.7512 161.829 25.5499 161.596 25.3004C161.367 25.0509 161.19 24.7832 161.065 24.4975H161.004V29.478H158.052ZM160.944 21.3643C160.944 21.8634 161.01 22.298 161.143 22.6683C161.28 23.0386 161.475 23.3263 161.729 23.5316C161.986 23.7328 162.294 23.8334 162.652 23.8334C163.015 23.8334 163.323 23.7328 163.576 23.5316C163.83 23.3263 164.021 23.0386 164.15 22.6683C164.282 22.298 164.349 21.8634 164.349 21.3643C164.349 20.8653 164.282 20.4326 164.15 20.0664C164.021 19.7002 163.83 19.4164 163.576 19.2152C163.327 19.014 163.019 18.9133 162.652 18.9133C162.29 18.9133 161.982 19.0119 161.729 19.2092C161.475 19.4064 161.28 19.6881 161.143 20.0543C161.01 20.4206 160.944 20.8572 160.944 21.3643ZM168.926 29.478V16.728H171.848V18.3157H171.939C172.06 18.034 172.231 17.7623 172.452 17.5007C172.677 17.2391 172.963 17.0258 173.309 16.8608C173.659 16.6918 174.078 16.6072 174.565 16.6072C175.209 16.6072 175.81 16.7763 176.37 17.1143C176.933 17.4524 177.388 17.9736 177.734 18.6779C178.08 19.3822 178.253 20.2797 178.253 21.3704C178.253 22.4208 178.086 23.3002 177.752 24.0085C177.422 24.7168 176.976 25.2481 176.412 25.6023C175.853 25.9564 175.231 26.1335 174.547 26.1335C174.08 26.1335 173.675 26.057 173.333 25.9041C172.991 25.7512 172.703 25.5499 172.47 25.3004C172.241 25.0509 172.064 24.7832 171.939 24.4975H171.878V29.478H168.926ZM171.818 21.3643C171.818 21.8634 171.884 22.298 172.017 22.6683C172.154 23.0386 172.349 23.3263 172.603 23.5316C172.86 23.7328 173.168 23.8334 173.526 23.8334C173.889 23.8334 174.197 23.7328 174.45 23.5316C174.704 23.3263 174.895 23.0386 175.024 22.6683C175.156 22.298 175.223 21.8634 175.223 21.3643C175.223 20.8653 175.156 20.4326 175.024 20.0664C174.895 19.7002 174.704 19.4164 174.45 19.2152C174.201 19.014 173.893 18.9133 173.526 18.9133C173.164 18.9133 172.856 19.0119 172.603 19.2092C172.349 19.4064 172.154 19.6881 172.017 20.0543C171.884 20.4206 171.818 20.8572 171.818 21.3643ZM181.495 13.6371L184.26 22.6925H184.363L187.128 13.6371H190.472L186.301 26.0007H182.322L178.151 13.6371H181.495ZM195.026 26.1758C194.056 26.1758 193.218 25.9846 192.514 25.6023C191.814 25.2159 191.275 24.6665 190.896 23.9542C190.522 23.2378 190.335 22.3866 190.335 21.4006C190.335 20.4427 190.524 19.6056 190.902 18.8892C191.281 18.1688 191.814 17.6094 192.502 17.2109C193.19 16.8085 194.001 16.6072 194.935 16.6072C195.595 16.6072 196.199 16.7099 196.746 16.9151C197.293 17.1204 197.766 17.4242 198.165 17.8267C198.563 18.2292 198.873 18.7262 199.094 19.3178C199.316 19.9054 199.426 20.5795 199.426 21.3402V22.0767H191.367V20.3622H196.68C196.676 20.0483 196.601 19.7686 196.456 19.5231C196.311 19.2776 196.112 19.0864 195.859 18.9496C195.609 18.8087 195.321 18.7383 194.995 18.7383C194.665 18.7383 194.369 18.8127 194.108 18.9616C193.846 19.1065 193.639 19.3057 193.486 19.5593C193.333 19.8088 193.253 20.0926 193.245 20.4105V22.1552C193.245 22.5335 193.319 22.8655 193.468 23.1513C193.617 23.433 193.828 23.6523 194.102 23.8093C194.376 23.9663 194.702 24.0447 195.08 24.0447C195.341 24.0447 195.579 24.0085 195.792 23.9361C196.006 23.8636 196.189 23.757 196.342 23.6161C196.494 23.4752 196.609 23.3022 196.686 23.0969L199.396 23.1754C199.284 23.7831 199.036 24.3124 198.654 24.7631C198.275 25.2099 197.778 25.558 197.163 25.8075C196.547 26.053 195.834 26.1758 195.026 26.1758ZM202.49 29.478C202.136 29.478 201.802 29.4498 201.488 29.3935C201.174 29.3411 200.904 29.2707 200.679 29.1822L201.331 27.039C201.621 27.1356 201.882 27.192 202.116 27.2081C202.353 27.2242 202.557 27.1859 202.726 27.0934C202.899 27.0048 203.031 26.8459 203.124 26.6165L203.239 26.3388L199.943 16.728H203.033L204.742 23.3444H204.839L206.571 16.728H209.68L206.185 26.8881C206.016 27.3952 205.776 27.842 205.466 28.2283C205.161 28.6187 204.764 28.9246 204.277 29.1459C203.794 29.3673 203.199 29.478 202.49 29.478ZM214.842 26.1758C213.868 26.1758 213.031 25.9765 212.33 25.5781C211.634 25.1757 211.097 24.6162 210.719 23.8998C210.344 23.1794 210.157 22.3443 210.157 21.3945C210.157 20.4407 210.344 19.6056 210.719 18.8892C211.097 18.1688 211.634 17.6094 212.33 17.2109C213.031 16.8085 213.868 16.6072 214.842 16.6072C215.816 16.6072 216.651 16.8085 217.347 17.2109C218.047 17.6094 218.585 18.1688 218.959 18.8892C219.337 19.6056 219.526 20.4407 219.526 21.3945C219.526 22.3443 219.337 23.1794 218.959 23.8998C218.585 24.6162 218.047 25.1757 217.347 25.5781C216.651 25.9765 215.816 26.1758 214.842 26.1758ZM214.86 23.9481C215.214 23.9481 215.514 23.8395 215.759 23.6221C216.005 23.4048 216.192 23.103 216.321 22.7166C216.454 22.3302 216.52 21.8835 216.52 21.3764C216.52 20.8613 216.454 20.4105 216.321 20.0241C216.192 19.6378 216.005 19.3359 215.759 19.1186C215.514 18.9013 215.214 18.7926 214.86 18.7926C214.494 18.7926 214.184 18.9013 213.93 19.1186C213.681 19.3359 213.489 19.6378 213.357 20.0241C213.228 20.4105 213.163 20.8613 213.163 21.3764C213.163 21.8835 213.228 22.3302 213.357 22.7166C213.489 23.103 213.681 23.4048 213.93 23.6221C214.184 23.8395 214.494 23.9481 214.86 23.9481ZM221.039 26.0007V16.728H223.906V18.4183H224.003C224.172 17.8066 224.447 17.3518 224.83 17.054C225.212 16.7521 225.657 16.6012 226.164 16.6012C226.301 16.6012 226.442 16.6113 226.587 16.6314C226.731 16.6475 226.866 16.6736 226.991 16.7099V19.2756C226.85 19.2273 226.665 19.189 226.436 19.1609C226.21 19.1327 226.009 19.1186 225.832 19.1186C225.482 19.1186 225.166 19.1971 224.884 19.354C224.606 19.507 224.387 19.7223 224.226 20C224.069 20.2737 223.991 20.5956 223.991 20.9659V26.0007H221.039Z" fill="#00B3E0"/>
</g>
<defs>
<filter id="filter0_d_1_56" x="2.39972" y="0.39972" width="39.202" height="39.202" filterUnits="userSpaceOnUse" color-interpolation-filters="sRGB">
<feFlood flood-opacity="0" result="BackgroundImageFix"/>
<feColorMatrix in="SourceAlpha" type="matrix" values="0 0 0 0 0 0 0 0 0 0 0 0 0 0 0 0 0 0 127 0" result="hardAlpha"/>
<feOffset/>
<feGaussianBlur stdDeviation="2.80014"/>
<feComposite in2="hardAlpha" operator="out"/>
<feColorMatrix type="matrix" values="0 0 0 0 0 0 0 0 0 0 0 0 0 0 0 0 0 0 0.25 0"/>
<feBlend mode="normal" in2="BackgroundImageFix" result="effect1_dropShadow_1_56"/>
<feBlend mode="normal" in="SourceGraphic" in2="effect1_dropShadow_1_56" result="shape"/>
</filter>
<filter id="filter1_d_1_56" x="36.2871" y="3.78642" width="197.429" height="32.4286" filterUnits="userSpaceOnUse" color-interpolation-filters="sRGB">
<feFlood flood-opacity="0" result="BackgroundImageFix"/>
<feColorMatrix in="SourceAlpha" type="matrix" values="0 0 0 0 0 0 0 0 0 0 0 0 0 0 0 0 0 0 127 0" result="hardAlpha"/>
<feOffset/>
<feGaussianBlur stdDeviation="2.85714"/>
<feComposite in2="hardAlpha" operator="out"/>
<feColorMatrix type="matrix" values="0 0 0 0 0 0 0 0 0 0 0 0 0 0 0 0 0 0 0.25 0"/>
<feBlend mode="normal" in2="BackgroundImageFix" result="effect1_dropShadow_1_56"/>
<feBlend mode="normal" in="SourceGraphic" in2="effect1_dropShadow_1_56" result="shape"/>
</filter>
<linearGradient id="paint0_linear_1_56" x1="118.001" y1="0" x2="118.001" y2="40.0014" gradientUnits="userSpaceOnUse">
<stop stop-color="#007492"/>
<stop offset="1" stop-color="#005970"/>
</linearGradient>
</defs>
</svg>
