<svg width="156" height="56" viewBox="0 0 156 56" fill="none" xmlns="http://www.w3.org/2000/svg">
<rect width="156" height="56" rx="8" fill="url(#paint0_linear_1_50)"/>
<rect x="1.05" y="1.05" width="153.9" height="53.9" rx="6.95" stroke="white" stroke-opacity="0.15" stroke-width="2.1"/>
<g filter="url(#filter0_d_1_50)">
<path d="M32 8C43 8 52 17 52 28C52 39 43 48 32 48C21 48 12 39 12 28C12 17 21 8 32 8ZM36.9 31.9C39.1 29.1 38.8 25.1 36 23C33.3 20.9 29.3 21.4 27 24.2C24.8 27 25.1 31 27.9 33.1C30.7 35.2 34.7 34.7 36.9 31.9ZM26.2 44.9C27.4 45.4 30 45.9 31.3 45.9L40 33.3C42.8 29.1 42.1 23.4 38.2 20.3C34.7 17.5 29.8 17.6 26.3 20.3L14.2 29.6C14.5 32.8 15.4 34.4 15.4 34.5L22.3 27C21.8 30.3 23 33.7 25.8 35.8C28.2 37.7 31.1 38.2 33.9 37.6L26.2 44.9Z" fill="#00B3E0"/>
</g>
<g filter="url(#filter1_d_1_50)">
<path d="M61.2784 24.5V12.8636H65.5398C66.3655 12.8636 67.0492 13 67.5909 13.2727C68.1326 13.5417 68.5379 13.9072 68.8068 14.3693C69.0757 14.8276 69.2102 15.3447 69.2102 15.9204C69.2102 16.4053 69.1212 16.8144 68.9432 17.1477C68.7651 17.4773 68.5265 17.7424 68.2273 17.9432C67.9318 18.1401 67.606 18.2841 67.25 18.375V18.4886C67.6363 18.5076 68.0132 18.6326 68.3807 18.8636C68.7519 19.0909 69.0587 19.4148 69.3011 19.8352C69.5435 20.2557 69.6648 20.767 69.6648 21.3693C69.6648 21.964 69.5246 22.4981 69.2443 22.9716C68.9678 23.4413 68.5398 23.8144 67.9602 24.0909C67.3807 24.3636 66.6401 24.5 65.7386 24.5H61.2784ZM63.0341 22.9943H65.5682C66.4091 22.9943 67.0113 22.8314 67.375 22.5057C67.7386 22.1799 67.9204 21.7727 67.9204 21.2841C67.9204 20.9167 67.8276 20.5795 67.642 20.2727C67.4564 19.9659 67.1913 19.7216 66.8466 19.5398C66.5057 19.3579 66.1004 19.267 65.6307 19.267H63.0341V22.9943ZM63.0341 17.8977H65.3863C65.7803 17.8977 66.1345 17.822 66.4488 17.6704C66.767 17.5189 67.0189 17.3068 67.2045 17.0341C67.3939 16.7576 67.4886 16.4318 67.4886 16.0568C67.4886 15.5758 67.3201 15.1723 66.9829 14.8466C66.6458 14.5208 66.1288 14.3579 65.4318 14.3579H63.0341V17.8977ZM77.1392 20.8807V15.7727H78.8437V24.5H77.1733V22.9886H77.0824C76.8816 23.4545 76.5596 23.8428 76.1165 24.1534C75.6771 24.4602 75.1297 24.6136 74.4744 24.6136C73.9138 24.6136 73.4176 24.4905 72.9858 24.2443C72.5577 23.9943 72.2206 23.625 71.9744 23.1364C71.732 22.6477 71.6108 22.0436 71.6108 21.3239V15.7727H73.3096V21.1193C73.3096 21.714 73.4744 22.1875 73.804 22.5398C74.1335 22.892 74.5615 23.0682 75.088 23.0682C75.4062 23.0682 75.7225 22.9886 76.0369 22.8295C76.3551 22.6704 76.6184 22.4299 76.8267 22.1079C77.0388 21.786 77.143 21.3769 77.1392 20.8807ZM81.1264 24.5V15.7727H82.8253V24.5H81.1264ZM81.9844 14.4261C81.6889 14.4261 81.4351 14.3276 81.223 14.1307C81.0147 13.9299 80.9105 13.6913 80.9105 13.4148C80.9105 13.1345 81.0147 12.8958 81.223 12.6989C81.4351 12.4981 81.6889 12.3977 81.9844 12.3977C82.2798 12.3977 82.5317 12.4981 82.74 12.6989C82.9522 12.8958 83.0582 13.1345 83.0582 13.4148C83.0582 13.6913 82.9522 13.9299 82.74 14.1307C82.5317 14.3276 82.2798 14.4261 81.9844 14.4261ZM86.8096 12.8636V24.5H85.1108V12.8636H86.8096ZM93.169 15.7727V17.1364H88.402V15.7727H93.169ZM89.6804 13.6818H91.3792V21.9375C91.3792 22.267 91.4285 22.5151 91.527 22.6818C91.6254 22.8447 91.7523 22.9564 91.9076 23.017C92.0667 23.0739 92.2391 23.1023 92.4247 23.1023C92.5611 23.1023 92.6804 23.0928 92.7826 23.0739C92.8849 23.0549 92.9645 23.0398 93.0213 23.0284L93.3281 24.4318C93.2296 24.4697 93.0895 24.5076 92.9076 24.5454C92.7258 24.5871 92.4986 24.6098 92.2258 24.6136C91.7789 24.6212 91.3622 24.5417 90.9758 24.375C90.5895 24.2083 90.277 23.9508 90.0383 23.6023C89.7997 23.2538 89.6804 22.8163 89.6804 22.2898V13.6818ZM101.175 24.5L98.6065 15.7727H100.362L102.072 22.1818H102.158L103.874 15.7727H105.629L107.334 22.1534H107.419L109.118 15.7727H110.874L108.311 24.5H106.578L104.805 18.1989H104.675L102.902 24.5H101.175ZM112.486 24.5V15.7727H114.185V24.5H112.486ZM113.344 14.4261C113.048 14.4261 112.794 14.3276 112.582 14.1307C112.374 13.9299 112.27 13.6913 112.27 13.4148C112.27 13.1345 112.374 12.8958 112.582 12.6989C112.794 12.4981 113.048 12.3977 113.344 12.3977C113.639 12.3977 113.891 12.4981 114.099 12.6989C114.312 12.8958 114.418 13.1345 114.418 13.4148C114.418 13.6913 114.312 13.9299 114.099 14.1307C113.891 14.3276 113.639 14.4261 113.344 14.4261ZM120.544 15.7727V17.1364H115.777V15.7727H120.544ZM117.055 13.6818H118.754V21.9375C118.754 22.267 118.803 22.5151 118.902 22.6818C119 22.8447 119.127 22.9564 119.283 23.017C119.442 23.0739 119.614 23.1023 119.8 23.1023C119.936 23.1023 120.055 23.0928 120.158 23.0739C120.26 23.0549 120.339 23.0398 120.396 23.0284L120.703 24.4318C120.605 24.4697 120.464 24.5076 120.283 24.5454C120.101 24.5871 119.874 24.6098 119.601 24.6136C119.154 24.6212 118.737 24.5417 118.351 24.375C117.964 24.2083 117.652 23.9508 117.413 23.6023C117.175 23.2538 117.055 22.8163 117.055 22.2898V13.6818ZM124.31 19.3182V24.5H122.611V12.8636H124.287V17.1932H124.395C124.599 16.7235 124.912 16.3504 125.332 16.0739C125.753 15.7973 126.302 15.6591 126.98 15.6591C127.579 15.6591 128.101 15.7822 128.548 16.0284C128.999 16.2746 129.348 16.642 129.594 17.1307C129.844 17.6155 129.969 18.2216 129.969 18.9489V24.5H128.27V19.1534C128.27 18.5133 128.105 18.017 127.776 17.6648C127.446 17.3087 126.988 17.1307 126.401 17.1307C125.999 17.1307 125.639 17.2159 125.321 17.3864C125.007 17.5568 124.758 17.8068 124.577 18.1364C124.399 18.4621 124.31 18.8561 124.31 19.3182Z" fill="#E8E8E8"/>
<path d="M63.6101 43.5H60.3984L64.5699 31.1364H68.5483L72.7198 43.5H69.5081L66.6044 34.2514H66.5078L63.6101 43.5ZM63.1814 38.6342H69.8945V40.9041H63.1814V38.6342ZM74.0509 46.9773V34.2273H76.9728V35.815H77.0634C77.1841 35.5333 77.3552 35.2616 77.5765 35C77.8019 34.7384 78.0876 34.5251 78.4338 34.3601C78.7839 34.191 79.2025 34.1065 79.6894 34.1065C80.3334 34.1065 80.9351 34.2756 81.4945 34.6136C82.0579 34.9517 82.5127 35.4729 82.8588 36.1772C83.2049 36.8815 83.378 37.779 83.378 38.8697C83.378 39.9201 83.211 40.7995 82.8769 41.5078C82.5469 42.2161 82.1002 42.7474 81.5367 43.1016C80.9773 43.4557 80.3555 43.6328 79.6713 43.6328C79.2045 43.6328 78.8 43.5563 78.4579 43.4034C78.1158 43.2505 77.828 43.0492 77.5946 42.7997C77.3652 42.5502 77.1881 42.2825 77.0634 41.9968H77.003V46.9773H74.0509ZM76.9426 38.8636C76.9426 39.3627 77.009 39.7973 77.1418 40.1676C77.2787 40.5379 77.4739 40.8256 77.7274 41.0309C77.985 41.2321 78.2929 41.3327 78.6511 41.3327C79.0133 41.3327 79.3212 41.2321 79.5747 41.0309C79.8283 40.8256 80.0195 40.5379 80.1482 40.1676C80.2811 39.7973 80.3475 39.3627 80.3475 38.8636C80.3475 38.3646 80.2811 37.9319 80.1482 37.5657C80.0195 37.1994 79.8283 36.9157 79.5747 36.7145C79.3252 36.5132 79.0173 36.4126 78.6511 36.4126C78.2889 36.4126 77.981 36.5112 77.7274 36.7084C77.4739 36.9056 77.2787 37.1874 77.1418 37.5536C77.009 37.9199 76.9426 38.3565 76.9426 38.8636ZM84.925 46.9773V34.2273H87.8468V35.815H87.9374C88.0581 35.5333 88.2292 35.2616 88.4505 35C88.6759 34.7384 88.9617 34.5251 89.3078 34.3601C89.6579 34.191 90.0765 34.1065 90.5635 34.1065C91.2074 34.1065 91.8091 34.2756 92.3685 34.6136C92.9319 34.9517 93.3867 35.4729 93.7328 36.1772C94.079 36.8815 94.252 37.779 94.252 38.8697C94.252 39.9201 94.085 40.7995 93.751 41.5078C93.4209 42.2161 92.9742 42.7474 92.4108 43.1016C91.8513 43.4557 91.2295 43.6328 90.5453 43.6328C90.0785 43.6328 89.674 43.5563 89.3319 43.4034C88.9898 43.2505 88.7021 43.0492 88.4686 42.7997C88.2392 42.5502 88.0622 42.2825 87.9374 41.9968H87.877V46.9773H84.925ZM87.8166 38.8636C87.8166 39.3627 87.8831 39.7973 88.0159 40.1676C88.1527 40.5379 88.3479 40.8256 88.6014 41.0309C88.859 41.2321 89.1669 41.3327 89.5251 41.3327C89.8873 41.3327 90.1952 41.2321 90.4488 41.0309C90.7023 40.8256 90.8935 40.5379 91.0223 40.1676C91.1551 39.7973 91.2215 39.3627 91.2215 38.8636C91.2215 38.3646 91.1551 37.9319 91.0223 37.5657C90.8935 37.1994 90.7023 36.9157 90.4488 36.7145C90.1992 36.5132 89.8913 36.4126 89.5251 36.4126C89.1629 36.4126 88.855 36.5112 88.6014 36.7084C88.3479 36.9056 88.1527 37.1874 88.0159 37.5536C87.8831 37.9199 87.8166 38.3565 87.8166 38.8636ZM97.4938 31.1364L100.259 40.1918H100.361L103.126 31.1364H106.471L102.299 43.5H98.3209L94.1494 31.1364H97.4938ZM111.024 43.6751C110.054 43.6751 109.217 43.4839 108.513 43.1016C107.812 42.7152 107.273 42.1658 106.895 41.4535C106.521 40.7371 106.333 39.8859 106.333 38.8998C106.333 37.942 106.523 37.1049 106.901 36.3885C107.279 35.6681 107.812 35.1087 108.501 34.7102C109.189 34.3078 110 34.1065 110.934 34.1065C111.594 34.1065 112.197 34.2092 112.745 34.4144C113.292 34.6197 113.765 34.9235 114.163 35.326C114.562 35.7284 114.872 36.2255 115.093 36.8171C115.314 37.4047 115.425 38.0788 115.425 38.8395V39.576H107.366V37.8615H112.678C112.674 37.5476 112.6 37.2679 112.455 37.0224C112.31 36.7769 112.111 36.5857 111.857 36.4489C111.608 36.308 111.32 36.2376 110.994 36.2376C110.664 36.2376 110.368 36.312 110.107 36.4609C109.845 36.6058 109.638 36.805 109.485 37.0586C109.332 37.3081 109.251 37.5918 109.243 37.9098V39.6545C109.243 40.0328 109.318 40.3648 109.467 40.6506C109.616 40.9323 109.827 41.1516 110.1 41.3086C110.374 41.4655 110.7 41.544 111.078 41.544C111.34 41.544 111.578 41.5078 111.791 41.4354C112.004 41.3629 112.187 41.2563 112.34 41.1154C112.493 40.9745 112.608 40.8015 112.684 40.5962L115.395 40.6747C115.282 41.2824 115.035 41.8117 114.652 42.2624C114.274 42.7092 113.777 43.0573 113.161 43.3068C112.545 43.5523 111.833 43.6751 111.024 43.6751ZM118.489 46.9773C118.135 46.9773 117.801 46.9491 117.487 46.8927C117.173 46.8404 116.903 46.77 116.678 46.6815L117.33 44.5383C117.619 44.6349 117.881 44.6913 118.114 44.7074C118.352 44.7235 118.555 44.6852 118.724 44.5927C118.897 44.5041 119.03 44.3452 119.123 44.1158L119.237 43.8381L115.941 34.2273H119.032L120.741 40.8437H120.837L122.57 34.2273H125.679L122.183 44.3874C122.014 44.8945 121.775 45.3413 121.465 45.7276C121.159 46.118 120.763 46.4239 120.276 46.6452C119.793 46.8666 119.197 46.9773 118.489 46.9773ZM130.84 43.6751C129.866 43.6751 129.029 43.4758 128.329 43.0774C127.633 42.6749 127.095 42.1155 126.717 41.3991C126.343 40.6787 126.156 39.8436 126.156 38.8938C126.156 37.94 126.343 37.1049 126.717 36.3885C127.095 35.6681 127.633 35.1087 128.329 34.7102C129.029 34.3078 129.866 34.1065 130.84 34.1065C131.814 34.1065 132.649 34.3078 133.346 34.7102C134.046 35.1087 134.583 35.6681 134.958 36.3885C135.336 37.1049 135.525 37.94 135.525 38.8938C135.525 39.8436 135.336 40.6787 134.958 41.3991C134.583 42.1155 134.046 42.6749 133.346 43.0774C132.649 43.4758 131.814 43.6751 130.84 43.6751ZM130.858 41.4474C131.213 41.4474 131.512 41.3388 131.758 41.1214C132.003 40.9041 132.191 40.6023 132.319 40.2159C132.452 39.8295 132.519 39.3828 132.519 38.8757C132.519 38.3605 132.452 37.9098 132.319 37.5234C132.191 37.1371 132.003 36.8352 131.758 36.6179C131.512 36.4006 131.213 36.2919 130.858 36.2919C130.492 36.2919 130.182 36.4006 129.929 36.6179C129.679 36.8352 129.488 37.1371 129.355 37.5234C129.226 37.9098 129.162 38.3605 129.162 38.8757C129.162 39.3828 129.226 39.8295 129.355 40.2159C129.488 40.6023 129.679 40.9041 129.929 41.1214C130.182 41.3388 130.492 41.4474 130.858 41.4474ZM137.037 43.5V34.2273H139.905V35.9176H140.001C140.17 35.3059 140.446 34.8511 140.828 34.5533C141.211 34.2514 141.656 34.1005 142.163 34.1005C142.299 34.1005 142.44 34.1105 142.585 34.1307C142.73 34.1468 142.865 34.1729 142.99 34.2092V36.7748C142.849 36.7266 142.664 36.6883 142.434 36.6601C142.209 36.632 142.008 36.6179 141.831 36.6179C141.48 36.6179 141.164 36.6964 140.883 36.8533C140.605 37.0063 140.386 37.2216 140.225 37.4993C140.068 37.773 139.989 38.0949 139.989 38.4652V43.5H137.037Z" fill="#00B3E0"/>
</g>
<defs>
<filter id="filter0_d_1_50" x="6.28571" y="2.28571" width="51.4286" height="51.4286" filterUnits="userSpaceOnUse" color-interpolation-filters="sRGB">
<feFlood flood-opacity="0" result="BackgroundImageFix"/>
<feColorMatrix in="SourceAlpha" type="matrix" values="0 0 0 0 0 0 0 0 0 0 0 0 0 0 0 0 0 0 127 0" result="hardAlpha"/>
<feOffset/>
<feGaussianBlur stdDeviation="2.85714"/>
<feComposite in2="hardAlpha" operator="out"/>
<feColorMatrix type="matrix" values="0 0 0 0 0 0 0 0 0 0 0 0 0 0 0 0 0 0 0.25 0"/>
<feBlend mode="normal" in2="BackgroundImageFix" result="effect1_dropShadow_1_50"/>
<feBlend mode="normal" in="SourceGraphic" in2="effect1_dropShadow_1_50" result="shape"/>
</filter>
<filter id="filter1_d_1_50" x="54.4" y="3.9" width="95.2" height="48.6773" filterUnits="userSpaceOnUse" color-interpolation-filters="sRGB">
<feFlood flood-opacity="0" result="BackgroundImageFix"/>
<feColorMatrix in="SourceAlpha" type="matrix" values="0 0 0 0 0 0 0 0 0 0 0 0 0 0 0 0 0 0 127 0" result="hardAlpha"/>
<feOffset/>
<feGaussianBlur stdDeviation="2.8"/>
<feComposite in2="hardAlpha" operator="out"/>
<feColorMatrix type="matrix" values="0 0 0 0 0 0 0 0 0 0 0 0 0 0 0 0 0 0 0.25 0"/>
<feBlend mode="normal" in2="BackgroundImageFix" result="effect1_dropShadow_1_50"/>
<feBlend mode="normal" in="SourceGraphic" in2="effect1_dropShadow_1_50" result="shape"/>
</filter>
<linearGradient id="paint0_linear_1_50" x1="78" y1="0" x2="78" y2="56" gradientUnits="userSpaceOnUse">
<stop stop-color="#007492"/>
<stop offset="1" stop-color="#005970"/>
</linearGradient>
</defs>
</svg>
