<svg width="56" height="56" viewBox="0 0 56 56" fill="none" xmlns="http://www.w3.org/2000/svg">
<rect width="56" height="56" rx="8.4" fill="url(#paint0_linear_1_62)"/>
<rect x="1.05" y="1.05" width="53.9" height="53.9" rx="7.35" stroke="white" stroke-opacity="0.15" stroke-width="2.1"/>
<g filter="url(#filter0_d_1_62)">
<path d="M28 8C39 8 48 17 48 28C48 39 39 48 28 48C17 48 8 39 8 28C8 17 17 8 28 8ZM32.9 31.9C35.1 29.1 34.8 25.1 32 23C29.3 20.9 25.3 21.4 23 24.2C20.8 27 21.1 31 23.9 33.1C26.7 35.2 30.7 34.7 32.9 31.9ZM22.2 44.9C23.4 45.4 26 45.9 27.3 45.9L36 33.3C38.8 29.1 38.1 23.4 34.2 20.3C30.7 17.5 25.8 17.6 22.3 20.3L10.2 29.6C10.5 32.8 11.4 34.4 11.4 34.5L18.3 27C17.8 30.3 19 33.7 21.8 35.8C24.2 37.7 27.1 38.2 29.9 37.6L22.2 44.9Z" fill="#00B3E0"/>
</g>
<defs>
<filter id="filter0_d_1_62" x="2.28571" y="2.28571" width="51.4286" height="51.4286" filterUnits="userSpaceOnUse" color-interpolation-filters="sRGB">
<feFlood flood-opacity="0" result="BackgroundImageFix"/>
<feColorMatrix in="SourceAlpha" type="matrix" values="0 0 0 0 0 0 0 0 0 0 0 0 0 0 0 0 0 0 127 0" result="hardAlpha"/>
<feOffset/>
<feGaussianBlur stdDeviation="2.85714"/>
<feComposite in2="hardAlpha" operator="out"/>
<feColorMatrix type="matrix" values="0 0 0 0 0 0 0 0 0 0 0 0 0 0 0 0 0 0 0.25 0"/>
<feBlend mode="normal" in2="BackgroundImageFix" result="effect1_dropShadow_1_62"/>
<feBlend mode="normal" in="SourceGraphic" in2="effect1_dropShadow_1_62" result="shape"/>
</filter>
<linearGradient id="paint0_linear_1_62" x1="28" y1="0" x2="28" y2="56" gradientUnits="userSpaceOnUse">
<stop stop-color="#007492"/>
<stop offset="1" stop-color="#005970"/>
</linearGradient>
</defs>
</svg>
