<svg width="40" height="40" viewBox="0 0 40 40" fill="none" xmlns="http://www.w3.org/2000/svg">
<rect width="40" height="40" rx="8" fill="url(#paint0_linear_1_68)"/>
<rect x="1.05" y="1.05" width="37.9" height="37.9" rx="6.95" stroke="white" stroke-opacity="0.15" stroke-width="2.1"/>
<g filter="url(#filter0_d_1_68)">
<mask id="mask0_1_68" style="mask-type:luminance" maskUnits="userSpaceOnUse" x="6" y="6" width="28" height="28">
<path d="M6 6.875H8.26039C11.78 6.875 15.1554 8.27315 17.6442 10.7619C20.1329 13.2506 21.531 16.6261 21.531 20.1457C21.531 23.6653 20.1329 27.0407 17.6442 29.5294C15.1554 32.0182 11.78 33.4163 8.26039 33.4163H6V27.5831H8.26039C10.2329 27.5831 12.1246 26.7995 13.5194 25.4047C14.9142 24.0099 15.6978 22.1182 15.6978 20.1457C15.6978 18.1731 14.9142 16.2814 13.5194 14.8866C12.1246 13.4918 10.2329 12.7083 8.26039 12.7083H6V6.875ZM16.5731 6.875H25.9063C27.4441 6.87498 28.9501 7.3131 30.248 8.13805C31.5459 8.96299 32.5818 10.1406 33.2346 11.533C33.8874 12.9255 34.13 14.4751 33.934 16.0004C33.7379 17.5257 33.1114 18.9635 32.1277 20.1457C33.1114 21.3278 33.7379 22.7656 33.934 24.2909C34.13 25.8163 33.8874 27.3658 33.2346 28.7583C32.5818 30.1507 31.5459 31.3283 30.248 32.1533C28.9501 32.9782 27.4441 33.4163 25.9063 33.4163H16.5731C18.8696 31.9778 20.7536 29.9678 22.0407 27.5831H25.906C26.2028 27.5831 26.4968 27.5246 26.771 27.411C27.0452 27.2974 27.2944 27.1309 27.5043 26.921C27.7142 26.7111 27.8807 26.4619 27.9943 26.1877C28.1079 25.9134 28.1664 25.6195 28.1664 25.3227C28.1664 25.0258 28.1079 24.7319 27.9943 24.4577C27.8807 24.1834 27.7142 23.9342 27.5043 23.7243C27.2944 23.5144 27.0452 23.3479 26.771 23.2343C26.4968 23.1207 26.2028 23.0623 25.906 23.0623H23.6456C24.011 21.135 24.011 19.1563 23.6456 17.229H25.906C26.2028 17.229 26.4968 17.1706 26.771 17.057C27.0452 16.9434 27.2944 16.7769 27.5043 16.567C27.7142 16.3571 27.8807 16.1079 27.9943 15.8337C28.1079 15.5594 28.1664 15.2655 28.1664 14.9686C28.1664 14.6718 28.1079 14.3779 27.9943 14.1036C27.8807 13.8294 27.7142 13.5802 27.5043 13.3703C27.2944 13.1604 27.0452 12.9939 26.771 12.8803C26.4968 12.7667 26.2028 12.7083 25.906 12.7083H22.0407C20.7536 10.3235 18.8696 8.31356 16.5731 6.875Z" fill="white"/>
</mask>
<g mask="url(#mask0_1_68)">
<path d="M-31.3328 -22.8746V64.6242H56.166L-31.3328 -22.8746Z" fill="url(#paint1_linear_1_68)"/>
<path d="M-14.9997 -22.8746H72.4991V64.6242L-14.9997 -22.8746Z" fill="url(#paint2_linear_1_68)"/>
<path d="M-23.1663 -22.8746L64.3325 64.6242" stroke="url(#paint3_linear_1_68)" stroke-width="40"/>
</g>
</g>
<defs>
<filter id="filter0_d_1_68" x="2" y="2" width="36" height="36" filterUnits="userSpaceOnUse" color-interpolation-filters="sRGB">
<feFlood flood-opacity="0" result="BackgroundImageFix"/>
<feColorMatrix in="SourceAlpha" type="matrix" values="0 0 0 0 0 0 0 0 0 0 0 0 0 0 0 0 0 0 127 0" result="hardAlpha"/>
<feOffset/>
<feGaussianBlur stdDeviation="2"/>
<feComposite in2="hardAlpha" operator="out"/>
<feColorMatrix type="matrix" values="0 0 0 0 0 0 0 0 0 0 0 0 0 0 0 0 0 0 0.25 0"/>
<feBlend mode="normal" in2="BackgroundImageFix" result="effect1_dropShadow_1_68"/>
<feBlend mode="normal" in="SourceGraphic" in2="effect1_dropShadow_1_68" result="shape"/>
</filter>
<linearGradient id="paint0_linear_1_68" x1="20" y1="0" x2="20" y2="40" gradientUnits="userSpaceOnUse">
<stop stop-color="#8A200A"/>
<stop offset="1" stop-color="#4D1205"/>
</linearGradient>
<linearGradient id="paint1_linear_1_68" x1="8.04164" y1="25.5414" x2="20.5831" y2="38.0829" gradientUnits="userSpaceOnUse">
<stop stop-color="#F9A03C"/>
<stop offset="1" stop-color="#F7974E"/>
</linearGradient>
<linearGradient id="paint2_linear_1_68" x1="19.1248" y1="3.95837" x2="37.4996" y2="22.3331" gradientUnits="userSpaceOnUse">
<stop stop-color="#B84E51"/>
<stop offset="1" stop-color="#F68E48"/>
</linearGradient>
<linearGradient id="paint3_linear_1_68" x1="6.58333" y1="6.29167" x2="31.3747" y2="31.3747" gradientUnits="userSpaceOnUse">
<stop stop-color="#F26D58"/>
<stop offset="1" stop-color="#F9A03C"/>
</linearGradient>
</defs>
</svg>
