<svg width="154" height="40" viewBox="0 0 154 40" fill="none" xmlns="http://www.w3.org/2000/svg">
<rect width="154.001" height="40.0014" rx="8" fill="url(#paint0_linear_1_56)"/>
<rect x="1.07143" y="1.07143" width="151.859" height="37.8585" rx="6.92857" stroke="white" stroke-opacity="0.15" stroke-width="2.14286"/>
<g filter="url(#filter0_d_1_56)">
<mask id="mask0_1_56" style="mask-type:luminance" maskUnits="userSpaceOnUse" x="8" y="6" width="28" height="28">
<path d="M8 6.875H10.2604C13.78 6.875 17.1554 8.27315 19.6442 10.7619C22.1329 13.2506 23.531 16.6261 23.531 20.1457C23.531 23.6653 22.1329 27.0407 19.6442 29.5294C17.1554 32.0182 13.78 33.4163 10.2604 33.4163H8V27.5831H10.2604C12.2329 27.5831 14.1246 26.7995 15.5194 25.4047C16.9142 24.0099 17.6978 22.1182 17.6978 20.1457C17.6978 18.1731 16.9142 16.2814 15.5194 14.8866C14.1246 13.4918 12.2329 12.7083 10.2604 12.7083H8V6.875ZM18.5731 6.875H27.9063C29.4441 6.87498 30.9501 7.3131 32.248 8.13805C33.5459 8.96299 34.5818 10.1406 35.2346 11.533C35.8874 12.9255 36.13 14.4751 35.934 16.0004C35.7379 17.5257 35.1114 18.9635 34.1277 20.1457C35.1114 21.3278 35.7379 22.7656 35.934 24.2909C36.13 25.8163 35.8874 27.3658 35.2346 28.7583C34.5818 30.1507 33.5459 31.3283 32.248 32.1533C30.9501 32.9782 29.4441 33.4163 27.9063 33.4163H18.5731C20.8696 31.9778 22.7536 29.9678 24.0407 27.5831H27.906C28.2028 27.5831 28.4968 27.5246 28.771 27.411C29.0452 27.2974 29.2944 27.1309 29.5043 26.921C29.7142 26.7111 29.8807 26.4619 29.9943 26.1877C30.1079 25.9134 30.1664 25.6195 30.1664 25.3227C30.1664 25.0258 30.1079 24.7319 29.9943 24.4577C29.8807 24.1834 29.7142 23.9342 29.5043 23.7243C29.2944 23.5144 29.0452 23.3479 28.771 23.2343C28.4968 23.1207 28.2028 23.0623 27.906 23.0623H25.6456C26.011 21.135 26.011 19.1563 25.6456 17.229H27.906C28.2028 17.229 28.4968 17.1706 28.771 17.057C29.0452 16.9434 29.2944 16.7769 29.5043 16.567C29.7142 16.3571 29.8807 16.1079 29.9943 15.8337C30.1079 15.5594 30.1664 15.2655 30.1664 14.9686C30.1664 14.6718 30.1079 14.3779 29.9943 14.1036C29.8807 13.8294 29.7142 13.5802 29.5043 13.3703C29.2944 13.1604 29.0452 12.9939 28.771 12.8803C28.4968 12.7667 28.2028 12.7083 27.906 12.7083H24.0407C22.7536 10.3235 20.8696 8.31356 18.5731 6.875Z" fill="white"/>
</mask>
<g mask="url(#mask0_1_56)">
<path d="M-29.3328 -22.8746V64.6242H58.166L-29.3328 -22.8746Z" fill="url(#paint1_linear_1_56)"/>
<path d="M-12.9997 -22.8746H74.4991V64.6242L-12.9997 -22.8746Z" fill="url(#paint2_linear_1_56)"/>
<path d="M-21.1663 -22.8746L66.3325 64.6242" stroke="url(#paint3_linear_1_56)" stroke-width="40"/>
</g>
</g>
<g filter="url(#filter1_d_1_56)">
<path d="M43.3597 26.5007V14.1371H47.8874C48.7648 14.1371 49.4912 14.282 50.0667 14.5717C50.6423 14.8575 51.0729 15.2458 51.3586 15.7369C51.6444 16.2238 51.7873 16.7732 51.7873 17.3849C51.7873 17.9001 51.6927 18.3347 51.5035 18.6889C51.3144 19.0391 51.0608 19.3208 50.7429 19.5341C50.429 19.7434 50.0828 19.8963 49.7045 19.9929V20.1136C50.115 20.1337 50.5155 20.2666 50.9059 20.5121C51.3003 20.7535 51.6263 21.0976 51.8839 21.5444C52.1414 21.9911 52.2702 22.5344 52.2702 23.1743C52.2702 23.8062 52.1213 24.3737 51.8235 24.8768C51.5297 25.3758 51.0749 25.7722 50.4591 26.066C49.8434 26.3558 49.0566 26.5007 48.0987 26.5007H43.3597ZM45.2251 24.9009H47.9176C48.8111 24.9009 49.451 24.7279 49.8373 24.3817C50.2237 24.0356 50.4169 23.603 50.4169 23.0838C50.4169 22.6934 50.3183 22.3352 50.1211 22.0092C49.9239 21.6832 49.6421 21.4236 49.2759 21.2305C48.9137 21.0373 48.483 20.9407 47.984 20.9407H45.2251V24.9009ZM45.2251 19.4858H47.7244C48.143 19.4858 48.5193 19.4053 48.8533 19.2443C49.1914 19.0833 49.459 18.8579 49.6562 18.5682C49.8575 18.2744 49.9581 17.9283 49.9581 17.5298C49.9581 17.0187 49.779 16.5901 49.4208 16.244C49.0626 15.8978 48.5132 15.7248 47.7727 15.7248H45.2251V19.4858ZM60.2118 22.6552V17.228H62.0229V26.5007H60.248V24.8949H60.1514C59.9381 25.3899 59.596 25.8024 59.1251 26.1324C58.6583 26.4584 58.0767 26.6214 57.3805 26.6214C56.7848 26.6214 56.2576 26.4906 55.7988 26.229C55.344 25.9634 54.9858 25.571 54.7242 25.0518C54.4667 24.5327 54.3379 23.8907 54.3379 23.1261V17.228H56.1429V22.9087C56.1429 23.5406 56.318 24.0437 56.6681 24.418C57.0183 24.7922 57.473 24.9794 58.0325 24.9794C58.3705 24.9794 58.7066 24.8949 59.0406 24.7258C59.3787 24.5568 59.6584 24.3012 59.8798 23.9591C60.1051 23.6171 60.2158 23.1824 60.2118 22.6552ZM64.4482 26.5007V17.228H66.2533V26.5007H64.4482ZM65.3598 15.7972C65.0459 15.7972 64.7762 15.6926 64.5508 15.4833C64.3295 15.27 64.2188 15.0164 64.2188 14.7226C64.2188 14.4248 64.3295 14.1713 64.5508 13.962C64.7762 13.7487 65.0459 13.642 65.3598 13.642C65.6737 13.642 65.9413 13.7487 66.1627 13.962C66.3881 14.1713 66.5008 14.4248 66.5008 14.7226C66.5008 15.0164 66.3881 15.27 66.1627 15.4833C65.9413 15.6926 65.6737 15.7972 65.3598 15.7972ZM70.4867 14.1371V26.5007H68.6816V14.1371H70.4867ZM77.2435 17.228V18.6768H72.1785V17.228H77.2435ZM73.5368 15.0064H75.3419V23.778C75.3419 24.1282 75.3942 24.3918 75.4988 24.5689C75.6035 24.7419 75.7383 24.8607 75.9033 24.9251C76.0723 24.9854 76.2554 25.0156 76.4526 25.0156C76.5975 25.0156 76.7243 25.0056 76.833 24.9854C76.9416 24.9653 77.0262 24.9492 77.0865 24.9371L77.4125 26.4283C77.3079 26.4685 77.159 26.5087 76.9658 26.549C76.7726 26.5933 76.5311 26.6174 76.2414 26.6214C75.7664 26.6295 75.3237 26.545 74.9132 26.3679C74.5027 26.1908 74.1707 25.9171 73.9171 25.5469C73.6636 25.1766 73.5368 24.7118 73.5368 24.1523V15.0064ZM85.7495 26.5007L83.0208 17.228H84.8862L86.7034 24.0376H86.7939L88.6171 17.228H90.4825L92.2936 24.0074H92.3841L94.1891 17.228H96.0546L93.3319 26.5007H91.4906L89.6071 19.8057H89.4683L87.5847 26.5007H85.7495ZM97.7675 26.5007V17.228H99.5726V26.5007H97.7675ZM98.6791 15.7972C98.3652 15.7972 98.0955 15.6926 97.8702 15.4833C97.6488 15.27 97.5381 15.0164 97.5381 14.7226C97.5381 14.4248 97.6488 14.1713 97.8702 13.962C98.0955 13.7487 98.3652 13.642 98.6791 13.642C98.993 13.642 99.2607 13.7487 99.482 13.962C99.7074 14.1713 99.8201 14.4248 99.8201 14.7226C99.8201 15.0164 99.7074 15.27 99.482 15.4833C99.2607 15.6926 98.993 15.7972 98.6791 15.7972ZM106.329 17.228V18.6768H101.264V17.228H106.329ZM102.623 15.0064H104.428V23.778C104.428 24.1282 104.48 24.3918 104.585 24.5689C104.689 24.7419 104.824 24.8607 104.989 24.9251C105.158 24.9854 105.341 25.0156 105.539 25.0156C105.683 25.0156 105.81 25.0056 105.919 24.9854C106.028 24.9653 106.112 24.9492 106.172 24.9371L106.498 26.4283C106.394 26.4685 106.245 26.5087 106.052 26.549C105.859 26.5933 105.617 26.6174 105.327 26.6214C104.852 26.6295 104.41 26.545 103.999 26.3679C103.589 26.1908 103.257 25.9171 103.003 25.5469C102.75 25.1766 102.623 24.7118 102.623 24.1523V15.0064ZM110.33 20.995V26.5007H108.525V14.1371H110.306V18.7372H110.421C110.638 18.2382 110.97 17.8417 111.417 17.5479C111.864 17.2541 112.447 17.1072 113.168 17.1072C113.804 17.1072 114.359 17.238 114.834 17.4996C115.313 17.7612 115.683 18.1516 115.945 18.6708C116.21 19.1859 116.343 19.8299 116.343 20.6026V26.5007H114.538V20.8199C114.538 20.1398 114.363 19.6126 114.013 19.2383C113.663 18.86 113.176 18.6708 112.552 18.6708C112.125 18.6708 111.743 18.7614 111.405 18.9425C111.071 19.1236 110.807 19.3892 110.614 19.7393C110.425 20.0855 110.33 20.504 110.33 20.995Z" fill="#E8E8E8"/>
<path d="M127.507 26.0007H122.937V13.6371H127.501C128.761 13.6371 129.845 13.8846 130.755 14.3796C131.669 14.8706 132.373 15.5789 132.868 16.5046C133.363 17.4262 133.61 18.529 133.61 19.8128C133.61 21.1007 133.363 22.2075 132.868 23.1332C132.377 24.0588 131.675 24.7692 130.761 25.2642C129.847 25.7552 128.763 26.0007 127.507 26.0007ZM125.925 23.4531H127.392C128.085 23.4531 128.67 23.3364 129.149 23.103C129.632 22.8655 129.996 22.4812 130.242 21.9499C130.491 21.4146 130.616 20.7023 130.616 19.8128C130.616 18.9234 130.491 18.2151 130.242 17.6878C129.992 17.1566 129.624 16.7743 129.137 16.5408C128.654 16.3034 128.058 16.1846 127.35 16.1846H125.925V23.4531ZM140.034 26.1697C139.092 26.1697 138.257 26.0087 137.528 25.6868C136.804 25.3608 136.232 24.912 135.814 24.3405C135.395 23.769 135.182 23.111 135.174 22.3665H138.18C138.192 22.6361 138.279 22.8756 138.44 23.0849C138.601 23.2901 138.82 23.4511 139.098 23.5678C139.376 23.6845 139.692 23.7429 140.046 23.7429C140.4 23.7429 140.712 23.6805 140.981 23.5557C141.255 23.427 141.468 23.2519 141.621 23.0305C141.774 22.8051 141.849 22.5476 141.845 22.2578C141.849 21.968 141.766 21.7105 141.597 21.4851C141.428 21.2597 141.189 21.0846 140.879 20.9599C140.573 20.8351 140.211 20.7727 139.792 20.7727H138.591V18.6477H139.792C140.158 18.6477 140.48 18.5873 140.758 18.4666C141.04 18.3459 141.259 18.1768 141.416 17.9595C141.573 17.7382 141.65 17.4846 141.646 17.1989C141.65 16.9212 141.583 16.6777 141.446 16.4684C141.314 16.2551 141.126 16.0901 140.885 15.9734C140.647 15.8566 140.372 15.7983 140.058 15.7983C139.728 15.7983 139.428 15.8566 139.158 15.9734C138.893 16.0901 138.681 16.2551 138.524 16.4684C138.367 16.6817 138.285 16.9292 138.277 17.2109H135.421C135.43 16.4744 135.635 15.8265 136.037 15.267C136.44 14.7036 136.987 14.2629 137.679 13.9449C138.376 13.627 139.168 13.468 140.058 13.468C140.943 13.468 141.722 13.623 142.394 13.9329C143.066 14.2428 143.589 14.6654 143.964 15.2006C144.338 15.7319 144.525 16.3336 144.525 17.0057C144.529 17.7019 144.302 18.2754 143.843 18.7262C143.388 19.177 142.803 19.4547 142.086 19.5593V19.6559C143.044 19.7686 143.767 20.0785 144.253 20.5856C144.745 21.0927 144.988 21.7266 144.984 22.4872C144.984 23.2036 144.773 23.8395 144.35 24.3949C143.932 24.9462 143.348 25.3809 142.599 25.6989C141.855 26.0128 141 26.1697 140.034 26.1697Z" fill="#F9A03C"/>
</g>
<defs>
<filter id="filter0_d_1_56" x="2.39972" y="0.39972" width="39.202" height="39.202" filterUnits="userSpaceOnUse" color-interpolation-filters="sRGB">
<feFlood flood-opacity="0" result="BackgroundImageFix"/>
<feColorMatrix in="SourceAlpha" type="matrix" values="0 0 0 0 0 0 0 0 0 0 0 0 0 0 0 0 0 0 127 0" result="hardAlpha"/>
<feOffset/>
<feGaussianBlur stdDeviation="2.80014"/>
<feComposite in2="hardAlpha" operator="out"/>
<feColorMatrix type="matrix" values="0 0 0 0 0 0 0 0 0 0 0 0 0 0 0 0 0 0 0.25 0"/>
<feBlend mode="normal" in2="BackgroundImageFix" result="effect1_dropShadow_1_56"/>
<feBlend mode="normal" in="SourceGraphic" in2="effect1_dropShadow_1_56" result="shape"/>
</filter>
<filter id="filter1_d_1_56" x="36.2871" y="3.78642" width="115.429" height="32.4286" filterUnits="userSpaceOnUse" color-interpolation-filters="sRGB">
<feFlood flood-opacity="0" result="BackgroundImageFix"/>
<feColorMatrix in="SourceAlpha" type="matrix" values="0 0 0 0 0 0 0 0 0 0 0 0 0 0 0 0 0 0 127 0" result="hardAlpha"/>
<feOffset/>
<feGaussianBlur stdDeviation="2.85714"/>
<feComposite in2="hardAlpha" operator="out"/>
<feColorMatrix type="matrix" values="0 0 0 0 0 0 0 0 0 0 0 0 0 0 0 0 0 0 0.25 0"/>
<feBlend mode="normal" in2="BackgroundImageFix" result="effect1_dropShadow_1_56"/>
<feBlend mode="normal" in="SourceGraphic" in2="effect1_dropShadow_1_56" result="shape"/>
</filter>
<linearGradient id="paint0_linear_1_56" x1="77.0007" y1="0" x2="77.0007" y2="40.0014" gradientUnits="userSpaceOnUse">
<stop stop-color="#8A200A"/>
<stop offset="1" stop-color="#4D1205"/>
</linearGradient>
<linearGradient id="paint1_linear_1_56" x1="10.0416" y1="25.5414" x2="22.5831" y2="38.0829" gradientUnits="userSpaceOnUse">
<stop stop-color="#F9A03C"/>
<stop offset="1" stop-color="#F7974E"/>
</linearGradient>
<linearGradient id="paint2_linear_1_56" x1="21.1248" y1="3.95837" x2="39.4996" y2="22.3331" gradientUnits="userSpaceOnUse">
<stop stop-color="#B84E51"/>
<stop offset="1" stop-color="#F68E48"/>
</linearGradient>
<linearGradient id="paint3_linear_1_56" x1="8.58332" y1="6.29167" x2="33.3747" y2="31.3747" gradientUnits="userSpaceOnUse">
<stop stop-color="#F26D58"/>
<stop offset="1" stop-color="#F9A03C"/>
</linearGradient>
</defs>
</svg>
