<svg width="144" height="56" viewBox="0 0 144 56" fill="none" xmlns="http://www.w3.org/2000/svg">
<rect width="144" height="56" rx="8" fill="url(#paint0_linear_1_50)"/>
<rect x="1.05" y="1.05" width="141.9" height="53.9" rx="6.95" stroke="white" stroke-opacity="0.15" stroke-width="2.1"/>
<g filter="url(#filter0_d_1_50)">
<mask id="mask0_1_50" style="mask-type:luminance" maskUnits="userSpaceOnUse" x="12" y="9" width="40" height="39">
<path d="M12 9.25H15.2291C20.2571 9.25 25.0792 11.2474 28.6345 14.8027C32.1898 18.358 34.1872 23.1801 34.1872 28.2081C34.1872 33.2361 32.1898 38.0581 28.6345 41.6135C25.0792 45.1688 20.2571 47.1662 15.2291 47.1662H12V38.8329H15.2291C18.047 38.8329 20.7495 37.7135 22.742 35.721C24.7346 33.7284 25.854 31.026 25.854 28.2081C25.854 25.3902 24.7346 22.6877 22.742 20.6952C20.7495 18.7026 18.047 17.5832 15.2291 17.5832H12V9.25ZM27.1044 9.25H40.4375C42.6345 9.24998 44.7859 9.87586 46.64 11.0544C48.4941 12.2328 49.9741 13.9152 50.9066 15.9044C51.8392 17.8935 52.1857 20.1072 51.9057 22.2862C51.6256 24.4652 50.7306 26.5194 49.3253 28.2081C50.7306 29.8968 51.6256 31.9509 51.9057 34.1299C52.1857 36.3089 51.8392 38.5226 50.9066 40.5118C49.9741 42.501 48.4941 44.1833 46.64 45.3618C44.7859 46.5403 42.6345 47.1662 40.4375 47.1662H27.1044C30.3852 45.1111 33.0766 42.2397 34.9153 38.8329H40.4371C40.8612 38.8329 41.2811 38.7494 41.6729 38.5871C42.0646 38.4249 42.4206 38.187 42.7205 37.8871C43.0203 37.5873 43.2582 37.2313 43.4204 36.8395C43.5827 36.4478 43.6662 36.0279 43.6662 35.6038C43.6662 35.1798 43.5827 34.7599 43.4204 34.3681C43.2582 33.9763 43.0203 33.6203 42.7205 33.3205C42.4206 33.0206 42.0646 32.7828 41.6729 32.6205C41.2811 32.4582 40.8612 32.3747 40.4371 32.3747H37.208C37.7299 29.6215 37.7299 26.7947 37.208 24.0415H40.4371C40.8612 24.0415 41.2811 23.9579 41.6729 23.7957C42.0646 23.6334 42.4206 23.3955 42.7205 23.0957C43.0203 22.7958 43.2582 22.4399 43.4204 22.0481C43.5827 21.6563 43.6662 21.2364 43.6662 20.8123C43.6662 20.3883 43.5827 19.9684 43.4204 19.5766C43.2582 19.1848 43.0203 18.8289 42.7205 18.529C42.4206 18.2292 42.0646 17.9913 41.6729 17.829C41.2811 17.6667 40.8612 17.5832 40.4371 17.5832H34.9153C33.0766 14.1764 30.3852 11.3051 27.1044 9.25Z" fill="white"/>
</mask>
<g mask="url(#mask0_1_50)">
<path d="M-41.3326 -33.2494V91.7489H83.6657L-41.3326 -33.2494Z" fill="url(#paint1_linear_1_50)"/>
<path d="M-17.9996 -33.2494H106.999V91.7489L-17.9996 -33.2494Z" fill="url(#paint2_linear_1_50)"/>
<path d="M-29.6661 -33.2494L95.3322 91.7489" stroke="url(#paint3_linear_1_50)" stroke-width="40"/>
</g>
</g>
<g filter="url(#filter1_d_1_50)">
<path d="M61.2784 24.5V12.8636H65.5398C66.3655 12.8636 67.0492 13 67.5909 13.2727C68.1326 13.5417 68.5379 13.9072 68.8068 14.3693C69.0757 14.8276 69.2102 15.3447 69.2102 15.9204C69.2102 16.4053 69.1212 16.8144 68.9432 17.1477C68.7651 17.4773 68.5265 17.7424 68.2273 17.9432C67.9318 18.1401 67.606 18.2841 67.25 18.375V18.4886C67.6363 18.5076 68.0132 18.6326 68.3807 18.8636C68.7519 19.0909 69.0587 19.4148 69.3011 19.8352C69.5435 20.2557 69.6648 20.767 69.6648 21.3693C69.6648 21.964 69.5246 22.4981 69.2443 22.9716C68.9678 23.4413 68.5398 23.8144 67.9602 24.0909C67.3807 24.3636 66.6401 24.5 65.7386 24.5H61.2784ZM63.0341 22.9943H65.5682C66.4091 22.9943 67.0113 22.8314 67.375 22.5057C67.7386 22.1799 67.9204 21.7727 67.9204 21.2841C67.9204 20.9167 67.8276 20.5795 67.642 20.2727C67.4564 19.9659 67.1913 19.7216 66.8466 19.5398C66.5057 19.3579 66.1004 19.267 65.6307 19.267H63.0341V22.9943ZM63.0341 17.8977H65.3863C65.7803 17.8977 66.1345 17.822 66.4488 17.6704C66.767 17.5189 67.0189 17.3068 67.2045 17.0341C67.3939 16.7576 67.4886 16.4318 67.4886 16.0568C67.4886 15.5758 67.3201 15.1723 66.9829 14.8466C66.6458 14.5208 66.1288 14.3579 65.4318 14.3579H63.0341V17.8977ZM77.1392 20.8807V15.7727H78.8437V24.5H77.1733V22.9886H77.0824C76.8816 23.4545 76.5596 23.8428 76.1165 24.1534C75.6771 24.4602 75.1297 24.6136 74.4744 24.6136C73.9138 24.6136 73.4176 24.4905 72.9858 24.2443C72.5577 23.9943 72.2206 23.625 71.9744 23.1364C71.732 22.6477 71.6108 22.0436 71.6108 21.3239V15.7727H73.3096V21.1193C73.3096 21.714 73.4744 22.1875 73.804 22.5398C74.1335 22.892 74.5615 23.0682 75.088 23.0682C75.4062 23.0682 75.7225 22.9886 76.0369 22.8295C76.3551 22.6704 76.6184 22.4299 76.8267 22.1079C77.0388 21.786 77.143 21.3769 77.1392 20.8807ZM81.1264 24.5V15.7727H82.8253V24.5H81.1264ZM81.9844 14.4261C81.6889 14.4261 81.4351 14.3276 81.223 14.1307C81.0147 13.9299 80.9105 13.6913 80.9105 13.4148C80.9105 13.1345 81.0147 12.8958 81.223 12.6989C81.4351 12.4981 81.6889 12.3977 81.9844 12.3977C82.2798 12.3977 82.5317 12.4981 82.74 12.6989C82.9522 12.8958 83.0582 13.1345 83.0582 13.4148C83.0582 13.6913 82.9522 13.9299 82.74 14.1307C82.5317 14.3276 82.2798 14.4261 81.9844 14.4261ZM86.8096 12.8636V24.5H85.1108V12.8636H86.8096ZM93.169 15.7727V17.1364H88.402V15.7727H93.169ZM89.6804 13.6818H91.3792V21.9375C91.3792 22.267 91.4285 22.5151 91.527 22.6818C91.6254 22.8447 91.7523 22.9564 91.9076 23.017C92.0667 23.0739 92.2391 23.1023 92.4247 23.1023C92.5611 23.1023 92.6804 23.0928 92.7826 23.0739C92.8849 23.0549 92.9645 23.0398 93.0213 23.0284L93.3281 24.4318C93.2296 24.4697 93.0895 24.5076 92.9076 24.5454C92.7258 24.5871 92.4986 24.6098 92.2258 24.6136C91.7789 24.6212 91.3622 24.5417 90.9758 24.375C90.5895 24.2083 90.277 23.9508 90.0383 23.6023C89.7997 23.2538 89.6804 22.8163 89.6804 22.2898V13.6818ZM101.175 24.5L98.6065 15.7727H100.362L102.072 22.1818H102.158L103.874 15.7727H105.629L107.334 22.1534H107.419L109.118 15.7727H110.874L108.311 24.5H106.578L104.805 18.1989H104.675L102.902 24.5H101.175ZM112.486 24.5V15.7727H114.185V24.5H112.486ZM113.344 14.4261C113.048 14.4261 112.794 14.3276 112.582 14.1307C112.374 13.9299 112.27 13.6913 112.27 13.4148C112.27 13.1345 112.374 12.8958 112.582 12.6989C112.794 12.4981 113.048 12.3977 113.344 12.3977C113.639 12.3977 113.891 12.4981 114.099 12.6989C114.312 12.8958 114.418 13.1345 114.418 13.4148C114.418 13.6913 114.312 13.9299 114.099 14.1307C113.891 14.3276 113.639 14.4261 113.344 14.4261ZM120.544 15.7727V17.1364H115.777V15.7727H120.544ZM117.055 13.6818H118.754V21.9375C118.754 22.267 118.803 22.5151 118.902 22.6818C119 22.8447 119.127 22.9564 119.283 23.017C119.442 23.0739 119.614 23.1023 119.8 23.1023C119.936 23.1023 120.055 23.0928 120.158 23.0739C120.26 23.0549 120.339 23.0398 120.396 23.0284L120.703 24.4318C120.605 24.4697 120.464 24.5076 120.283 24.5454C120.101 24.5871 119.874 24.6098 119.601 24.6136C119.154 24.6212 118.737 24.5417 118.351 24.375C117.964 24.2083 117.652 23.9508 117.413 23.6023C117.175 23.2538 117.055 22.8163 117.055 22.2898V13.6818ZM124.31 19.3182V24.5H122.611V12.8636H124.287V17.1932H124.395C124.599 16.7235 124.912 16.3504 125.332 16.0739C125.753 15.7973 126.302 15.6591 126.98 15.6591C127.579 15.6591 128.101 15.7822 128.548 16.0284C128.999 16.2746 129.348 16.642 129.594 17.1307C129.844 17.6155 129.969 18.2216 129.969 18.9489V24.5H128.27V19.1534C128.27 18.5133 128.105 18.017 127.776 17.6648C127.446 17.3087 126.988 17.1307 126.401 17.1307C125.999 17.1307 125.639 17.2159 125.321 17.3864C125.007 17.5568 124.758 17.8068 124.577 18.1364C124.399 18.4621 124.31 18.8561 124.31 19.3182Z" fill="#E8E8E8"/>
<path d="M65.5057 43.5H60.9357V31.1364H65.4996C66.7593 31.1364 67.844 31.3839 68.7535 31.8789C69.6671 32.3699 70.3714 33.0782 70.8665 34.0039C71.3615 34.9255 71.609 36.0283 71.609 37.3121C71.609 38.6 71.3615 39.7068 70.8665 40.6324C70.3755 41.5581 69.6732 42.2685 68.7596 42.7635C67.846 43.2545 66.7613 43.5 65.5057 43.5ZM63.924 40.9524H65.391C66.0832 40.9524 66.6688 40.8357 67.1477 40.6023C67.6307 40.3648 67.9949 39.9805 68.2404 39.4492C68.4899 38.9139 68.6147 38.2016 68.6147 37.3121C68.6147 36.4227 68.4899 35.7144 68.2404 35.1871C67.9909 34.6559 67.6226 34.2735 67.1356 34.0401C66.6527 33.8027 66.057 33.6839 65.3487 33.6839H63.924V40.9524ZM78.0323 43.669C77.0905 43.669 76.2554 43.508 75.527 43.1861C74.8025 42.8601 74.231 42.4113 73.8125 41.8398C73.3939 41.2683 73.1806 40.6103 73.1726 39.8658H76.179C76.191 40.1354 76.2776 40.3749 76.4385 40.5842C76.5995 40.7894 76.8189 40.9504 77.0966 41.0671C77.3743 41.1838 77.6902 41.2422 78.0444 41.2422C78.3985 41.2422 78.7104 41.1798 78.9801 41.055C79.2538 40.9262 79.4671 40.7512 79.62 40.5298C79.7729 40.3044 79.8474 40.0469 79.8434 39.7571C79.8474 39.4673 79.7649 39.2097 79.5959 38.9844C79.4268 38.759 79.1874 38.5839 78.8775 38.4592C78.5716 38.3344 78.2094 38.272 77.7908 38.272H76.5895V36.147H77.7908C78.1571 36.147 78.479 36.0866 78.7567 35.9659C79.0384 35.8452 79.2578 35.6761 79.4148 35.4588C79.5717 35.2374 79.6482 34.9839 79.6442 34.6981C79.6482 34.4204 79.5818 34.177 79.4449 33.9677C79.3121 33.7544 79.125 33.5894 78.8835 33.4726C78.646 33.3559 78.3704 33.2976 78.0564 33.2976C77.7264 33.2976 77.4266 33.3559 77.1569 33.4726C76.8913 33.5894 76.68 33.7544 76.5231 33.9677C76.3661 34.181 76.2836 34.4285 76.2755 34.7102H73.4201C73.4281 33.9737 73.6334 33.3257 74.0358 32.7663C74.4383 32.2029 74.9857 31.7622 75.6779 31.4442C76.3742 31.1263 77.167 30.9673 78.0564 30.9673C78.9419 30.9673 79.7206 31.1223 80.3927 31.4322C81.0648 31.7421 81.588 32.1646 81.9623 32.6999C82.3366 33.2312 82.5238 33.8329 82.5238 34.505C82.5278 35.2012 82.3004 35.7747 81.8416 36.2255C81.3868 36.6762 80.8012 36.9539 80.0849 37.0586V37.1552C81.0427 37.2679 81.7651 37.5778 82.2521 38.0849C82.7431 38.592 82.9866 39.2258 82.9826 39.9865C82.9826 40.7029 82.7713 41.3388 82.3487 41.8942C81.9301 42.4455 81.3466 42.8802 80.598 43.1981C79.8534 43.5121 78.9982 43.669 78.0323 43.669Z" fill="#F9A03C"/>
</g>
<defs>
<filter id="filter0_d_1_50" x="6.28571" y="2.28571" width="51.4286" height="51.4286" filterUnits="userSpaceOnUse" color-interpolation-filters="sRGB">
<feFlood flood-opacity="0" result="BackgroundImageFix"/>
<feColorMatrix in="SourceAlpha" type="matrix" values="0 0 0 0 0 0 0 0 0 0 0 0 0 0 0 0 0 0 127 0" result="hardAlpha"/>
<feOffset/>
<feGaussianBlur stdDeviation="2.85714"/>
<feComposite in2="hardAlpha" operator="out"/>
<feColorMatrix type="matrix" values="0 0 0 0 0 0 0 0 0 0 0 0 0 0 0 0 0 0 0.25 0"/>
<feBlend mode="normal" in2="BackgroundImageFix" result="effect1_dropShadow_1_50"/>
<feBlend mode="normal" in="SourceGraphic" in2="effect1_dropShadow_1_50" result="shape"/>
</filter>
<filter id="filter1_d_1_50" x="54.4" y="3.9" width="83.2" height="48.2" filterUnits="userSpaceOnUse" color-interpolation-filters="sRGB">
<feFlood flood-opacity="0" result="BackgroundImageFix"/>
<feColorMatrix in="SourceAlpha" type="matrix" values="0 0 0 0 0 0 0 0 0 0 0 0 0 0 0 0 0 0 127 0" result="hardAlpha"/>
<feOffset/>
<feGaussianBlur stdDeviation="2.8"/>
<feComposite in2="hardAlpha" operator="out"/>
<feColorMatrix type="matrix" values="0 0 0 0 0 0 0 0 0 0 0 0 0 0 0 0 0 0 0.25 0"/>
<feBlend mode="normal" in2="BackgroundImageFix" result="effect1_dropShadow_1_50"/>
<feBlend mode="normal" in="SourceGraphic" in2="effect1_dropShadow_1_50" result="shape"/>
</filter>
<linearGradient id="paint0_linear_1_50" x1="72" y1="0" x2="72" y2="56" gradientUnits="userSpaceOnUse">
<stop stop-color="#8A200A"/>
<stop offset="0.0001" stop-color="#8A200A"/>
<stop offset="1" stop-color="#4D1205"/>
</linearGradient>
<linearGradient id="paint1_linear_1_50" x1="14.9166" y1="35.9163" x2="32.8331" y2="53.8327" gradientUnits="userSpaceOnUse">
<stop stop-color="#F9A03C"/>
<stop offset="1" stop-color="#F7974E"/>
</linearGradient>
<linearGradient id="paint2_linear_1_50" x1="30.7497" y1="5.08339" x2="56.9994" y2="31.333" gradientUnits="userSpaceOnUse">
<stop stop-color="#B84E51"/>
<stop offset="1" stop-color="#F68E48"/>
</linearGradient>
<linearGradient id="paint3_linear_1_50" x1="12.8333" y1="8.41668" x2="48.2495" y2="44.2495" gradientUnits="userSpaceOnUse">
<stop stop-color="#F26D58"/>
<stop offset="1" stop-color="#F9A03C"/>
</linearGradient>
</defs>
</svg>
