<svg width="159" height="40" viewBox="0 0 159 40" fill="none" xmlns="http://www.w3.org/2000/svg">
<rect width="159.001" height="40.0014" rx="8" fill="url(#paint0_linear_1_56)"/>
<rect x="1.07143" y="1.07143" width="156.859" height="37.8585" rx="6.92857" stroke="white" stroke-opacity="0.15" stroke-width="2.14286"/>
<g filter="url(#filter0_d_1_56)">
<path d="M31.7022 11.2452C29.9086 10.4358 28.0029 9.84723 26.0001 9.50143C25.9627 9.50143 25.9254 9.50143 25.9104 9.54557C25.6638 9.97967 25.3873 10.5388 25.2005 10.9803C23.0332 10.6639 20.9033 10.6639 18.7959 10.9803C18.6016 10.5241 18.3251 9.97231 18.0485 9.54557C18.0261 9.51614 17.9962 9.49407 17.9589 9.50143C16.24 9.83988 14.0429 10.4579 12.2792 11.2452C12.2642 11.2452 12.2493 11.2599 12.2418 11.2746C8.5799 16.6456 7.60838 21.796 8.1315 26.9463C8.1315 26.9684 8.14645 26.9978 8.16887 27.0199C10.5603 28.7562 12.877 29.8157 15.1639 30.5C15.2012 30.5 15.2386 30.5 15.261 30.4706C15.7991 29.7495 16.2774 28.9843 16.6959 28.175C16.7183 28.1309 16.6959 28.072 16.6436 28.0573C15.8962 27.763 15.1489 27.4245 14.4539 27.0272C14.4016 26.9978 14.3941 26.9169 14.4539 26.8801C14.6034 26.7697 14.7528 26.6593 14.8873 26.549C14.9098 26.5269 14.9471 26.5269 14.977 26.5343C19.5656 28.5944 24.5428 28.5944 29.0268 26.5343C29.0567 26.5195 29.094 26.5269 29.1165 26.5416C29.2585 26.6593 29.4004 26.7697 29.5499 26.8801C29.6022 26.9169 29.5948 26.9978 29.5499 27.0272C28.8549 27.4319 28.13 27.763 27.3602 28.0573C27.3079 28.0794 27.2855 28.1309 27.3154 28.1824C27.7339 28.9917 28.2197 29.7495 28.7353 30.4632C28.7577 30.4926 28.7951 30.5074 28.8325 30.4926C31.1193 29.7937 33.4435 28.7415 35.8424 27.0125C35.8648 26.9978 35.8798 26.9757 35.8798 26.9389C36.4627 20.9866 34.9008 15.829 31.7396 11.2672C31.7396 11.2525 31.7172 11.2378 31.7022 11.2378V11.2452ZM17.3535 23.8267C15.9336 23.8267 14.8126 22.5759 14.8126 21.0308C14.8126 19.4857 15.9336 18.2349 17.3535 18.2349C18.7734 18.2349 19.8944 19.4857 19.8944 21.0308C19.8944 22.5759 18.7734 23.8267 17.3535 23.8267ZM26.6951 23.8267C25.2752 23.8267 24.1542 22.5759 24.1542 21.0308C24.1542 19.4857 25.2752 18.2349 26.6951 18.2349C28.115 18.2349 29.236 19.4857 29.236 21.0308C29.236 22.5759 28.115 23.8267 26.6951 23.8267Z" fill="#5865F2"/>
</g>
<g filter="url(#filter1_d_1_56)">
<path d="M45.2251 14.1371V26.5007H43.3597V14.1371H45.2251ZM49.6019 20.995V26.5007H47.7968V17.228H49.5294V18.7372H49.6441C49.8575 18.2462 50.1915 17.8518 50.6463 17.554C51.1051 17.2561 51.6826 17.1072 52.3789 17.1072C53.0107 17.1072 53.5641 17.24 54.039 17.5057C54.5139 17.7673 54.8822 18.1577 55.1438 18.6768C55.4054 19.196 55.5362 19.8379 55.5362 20.6026V26.5007H53.7312V20.8199C53.7312 20.1478 53.5561 19.6226 53.2059 19.2443C52.8558 18.862 52.3749 18.6708 51.7631 18.6708C51.3446 18.6708 50.9723 18.7614 50.6463 18.9425C50.3243 19.1236 50.0687 19.3892 49.8796 19.7393C49.6945 20.0855 49.6019 20.504 49.6019 20.995ZM65.5575 17.228L62.1949 26.5007H60.2631L56.8945 17.228H58.8324L61.1807 24.3636H61.2773L63.6196 17.228H65.5575ZM67.2539 26.5007V17.228H69.0589V26.5007H67.2539ZM68.1655 15.7972C67.8515 15.7972 67.5819 15.6926 67.3565 15.4833C67.1351 15.27 67.0245 15.0164 67.0245 14.7226C67.0245 14.4248 67.1351 14.1713 67.3565 13.962C67.5819 13.7487 67.8515 13.642 68.1655 13.642C68.4794 13.642 68.747 13.7487 68.9684 13.962C69.1937 14.1713 69.3064 14.4248 69.3064 14.7226C69.3064 15.0164 69.1937 15.27 68.9684 15.4833C68.747 15.6926 68.4794 15.7972 68.1655 15.7972ZM75.8158 17.228V18.6768H70.7508V17.228H75.8158ZM72.1091 15.0064H73.9141V23.778C73.9141 24.1282 73.9664 24.3918 74.0711 24.5689C74.1757 24.7419 74.3105 24.8607 74.4756 24.9251C74.6446 24.9854 74.8277 25.0156 75.0249 25.0156C75.1698 25.0156 75.2966 25.0056 75.4052 24.9854C75.5139 24.9653 75.5984 24.9492 75.6588 24.9371L75.9848 26.4283C75.8801 26.4685 75.7312 26.5087 75.5381 26.549C75.3449 26.5933 75.1034 26.6174 74.8136 26.6214C74.3387 26.6295 73.896 26.545 73.4855 26.3679C73.075 26.1908 72.743 25.9171 72.4894 25.5469C72.2359 25.1766 72.1091 24.7118 72.1091 24.1523V15.0064ZM81.7093 26.6878C80.7957 26.6878 80.0089 26.4926 79.3489 26.1023C78.6929 25.7078 78.1857 25.1545 77.8276 24.4421C77.4734 23.7257 77.2963 22.8866 77.2963 21.9247C77.2963 20.9749 77.4734 20.1378 77.8276 19.4133C78.1857 18.6889 78.6848 18.1234 79.3247 17.717C79.9687 17.3105 80.7213 17.1072 81.5825 17.1072C82.1057 17.1072 82.6128 17.1938 83.1038 17.3668C83.5948 17.5399 84.0355 17.8115 84.4259 18.1818C84.8163 18.5521 85.1242 19.033 85.3496 19.6246C85.575 20.2122 85.6876 20.9266 85.6876 21.7677V22.4077H78.3165V21.0554H83.9188C83.9188 20.5805 83.8222 20.1599 83.629 19.7937C83.4359 19.4234 83.1642 19.1316 82.8141 18.9183C82.4679 18.705 82.0615 18.5984 81.5946 18.5984C81.0875 18.5984 80.6448 18.7231 80.2665 18.9726C79.8922 19.2181 79.6024 19.5401 79.3972 19.9386C79.1959 20.333 79.0953 20.7616 79.0953 21.2244V22.2809C79.0953 22.9007 79.204 23.4279 79.4213 23.8626C79.6427 24.2972 79.9505 24.6292 80.345 24.8587C80.7394 25.084 81.2002 25.1967 81.7274 25.1967C82.0695 25.1967 82.3814 25.1484 82.6631 25.0518C82.9449 24.9512 83.1884 24.8023 83.3936 24.6051C83.5989 24.4079 83.7558 24.1644 83.8645 23.8746L85.5729 24.1825C85.4361 24.6856 85.1906 25.1263 84.8364 25.5046C84.4863 25.8789 84.0456 26.1707 83.5143 26.38C82.9871 26.5852 82.3854 26.6878 81.7093 26.6878ZM96.5179 17.228V18.6768H91.4529V17.228H96.5179ZM92.8112 15.0064H94.6163V23.778C94.6163 24.1282 94.6686 24.3918 94.7732 24.5689C94.8779 24.7419 95.0127 24.8607 95.1777 24.9251C95.3467 24.9854 95.5298 25.0156 95.7271 25.0156C95.8719 25.0156 95.9987 25.0056 96.1074 24.9854C96.216 24.9653 96.3006 24.9492 96.3609 24.9371L96.6869 26.4283C96.5823 26.4685 96.4334 26.5087 96.2402 26.549C96.047 26.5933 95.8055 26.6174 95.5158 26.6214C95.0409 26.6295 94.5981 26.545 94.1876 26.3679C93.7771 26.1908 93.4451 25.9171 93.1915 25.5469C92.938 25.1766 92.8112 24.7118 92.8112 24.1523V15.0064ZM100.519 20.995V26.5007H98.7138V14.1371H100.495V18.7372H100.609C100.827 18.2382 101.159 17.8417 101.606 17.5479C102.052 17.2541 102.636 17.1072 103.356 17.1072C103.992 17.1072 104.548 17.238 105.022 17.4996C105.501 17.7612 105.872 18.1516 106.133 18.6708C106.399 19.1859 106.532 19.8299 106.532 20.6026V26.5007H104.727V20.8199C104.727 20.1398 104.552 19.6126 104.201 19.2383C103.851 18.86 103.364 18.6708 102.74 18.6708C102.314 18.6708 101.932 18.7614 101.593 18.9425C101.259 19.1236 100.996 19.3892 100.803 19.7393C100.613 20.0855 100.519 20.504 100.519 20.995ZM112.937 26.6878C112.023 26.6878 111.236 26.4926 110.576 26.1023C109.92 25.7078 109.413 25.1545 109.055 24.4421C108.701 23.7257 108.524 22.8866 108.524 21.9247C108.524 20.9749 108.701 20.1378 109.055 19.4133C109.413 18.6889 109.912 18.1234 110.552 17.717C111.196 17.3105 111.949 17.1072 112.81 17.1072C113.333 17.1072 113.84 17.1938 114.331 17.3668C114.822 17.5399 115.263 17.8115 115.653 18.1818C116.044 18.5521 116.352 19.033 116.577 19.6246C116.802 20.2122 116.915 20.9266 116.915 21.7677V22.4077H109.544V21.0554H115.146C115.146 20.5805 115.05 20.1599 114.857 19.7937C114.663 19.4234 114.392 19.1316 114.042 18.9183C113.695 18.705 113.289 18.5984 112.822 18.5984C112.315 18.5984 111.872 18.7231 111.494 18.9726C111.12 19.2181 110.83 19.5401 110.625 19.9386C110.423 20.333 110.323 20.7616 110.323 21.2244V22.2809C110.323 22.9007 110.432 23.4279 110.649 23.8626C110.87 24.2972 111.178 24.6292 111.572 24.8587C111.967 25.084 112.428 25.1967 112.955 25.1967C113.297 25.1967 113.609 25.1484 113.891 25.0518C114.172 24.9512 114.416 24.8023 114.621 24.6051C114.826 24.4079 114.983 24.1644 115.092 23.8746L116.8 24.1825C116.664 24.6856 116.418 25.1263 116.064 25.5046C115.714 25.8789 115.273 26.1707 114.742 26.38C114.215 26.5852 113.613 26.6878 112.937 26.6878Z" fill="#E8E8E8"/>
<path d="M122.937 26.0007V13.6371H128.093C129.018 13.6371 129.793 13.7679 130.417 14.0295C131.045 14.2911 131.516 14.6573 131.829 15.1282C132.147 15.5991 132.306 16.1444 132.306 16.7642C132.306 17.2351 132.208 17.6556 132.011 18.0259C131.813 18.3922 131.542 18.696 131.196 18.9375C130.85 19.179 130.449 19.348 129.994 19.4446V19.5653C130.493 19.5895 130.954 19.7243 131.377 19.9698C131.803 20.2153 132.145 20.5574 132.403 20.9961C132.661 21.4307 132.789 21.9459 132.789 22.5415C132.789 23.2056 132.62 23.7992 132.282 24.3224C131.944 24.8416 131.455 25.2521 130.815 25.554C130.175 25.8518 129.399 26.0007 128.485 26.0007H122.937ZM125.925 23.592H127.773C128.421 23.592 128.898 23.4692 129.203 23.2237C129.513 22.9782 129.668 22.6361 129.668 22.1974C129.668 21.8795 129.594 21.6058 129.445 21.3764C129.296 21.143 129.085 20.9639 128.811 20.8391C128.537 20.7103 128.209 20.6459 127.827 20.6459H125.925V23.592ZM125.925 18.7202H127.579C127.905 18.7202 128.195 18.6658 128.449 18.5572C128.702 18.4485 128.9 18.2915 129.04 18.0863C129.185 17.881 129.258 17.6335 129.258 17.3437C129.258 16.9292 129.111 16.6032 128.817 16.3658C128.523 16.1283 128.127 16.0096 127.628 16.0096H125.925V18.7202ZM138.555 26.1758C137.581 26.1758 136.744 25.9765 136.043 25.5781C135.347 25.1757 134.81 24.6162 134.431 23.8998C134.057 23.1794 133.87 22.3443 133.87 21.3945C133.87 20.4407 134.057 19.6056 134.431 18.8892C134.81 18.1688 135.347 17.6094 136.043 17.2109C136.744 16.8085 137.581 16.6072 138.555 16.6072C139.529 16.6072 140.364 16.8085 141.06 17.2109C141.76 17.6094 142.298 18.1688 142.672 18.8892C143.05 19.6056 143.239 20.4407 143.239 21.3945C143.239 22.3443 143.05 23.1794 142.672 23.8998C142.298 24.6162 141.76 25.1757 141.06 25.5781C140.364 25.9765 139.529 26.1758 138.555 26.1758ZM138.573 23.9481C138.927 23.9481 139.227 23.8395 139.472 23.6221C139.718 23.4048 139.905 23.103 140.034 22.7166C140.166 22.3302 140.233 21.8835 140.233 21.3764C140.233 20.8613 140.166 20.4105 140.034 20.0241C139.905 19.6378 139.718 19.3359 139.472 19.1186C139.227 18.9013 138.927 18.7926 138.573 18.7926C138.207 18.7926 137.897 18.9013 137.643 19.1186C137.394 19.3359 137.202 19.6378 137.07 20.0241C136.941 20.4105 136.876 20.8613 136.876 21.3764C136.876 21.8835 136.941 22.3302 137.07 22.7166C137.202 23.103 137.394 23.4048 137.643 23.6221C137.897 23.8395 138.207 23.9481 138.573 23.9481ZM149.986 16.728V18.9013H144.136V16.728H149.986ZM145.361 14.5064H148.313V23.0849C148.313 23.266 148.342 23.4129 148.398 23.5256C148.458 23.6342 148.545 23.7127 148.657 23.761C148.77 23.8053 148.905 23.8274 149.062 23.8274C149.175 23.8274 149.293 23.8173 149.418 23.7972C149.547 23.7731 149.643 23.7529 149.708 23.7368L150.155 25.8679C150.014 25.9081 149.815 25.9584 149.557 26.0188C149.303 26.0792 149 26.1174 148.645 26.1335C147.953 26.1657 147.359 26.0852 146.864 25.892C146.373 25.6948 145.997 25.389 145.736 24.9744C145.478 24.5599 145.353 24.0387 145.361 23.4109V14.5064Z" fill="#5865F2"/>
</g>
<defs>
<filter id="filter0_d_1_56" x="2.39972" y="0.39972" width="39.202" height="39.202" filterUnits="userSpaceOnUse" color-interpolation-filters="sRGB">
<feFlood flood-opacity="0" result="BackgroundImageFix"/>
<feColorMatrix in="SourceAlpha" type="matrix" values="0 0 0 0 0 0 0 0 0 0 0 0 0 0 0 0 0 0 127 0" result="hardAlpha"/>
<feOffset/>
<feGaussianBlur stdDeviation="2.80014"/>
<feComposite in2="hardAlpha" operator="out"/>
<feColorMatrix type="matrix" values="0 0 0 0 0 0 0 0 0 0 0 0 0 0 0 0 0 0 0.25 0"/>
<feBlend mode="normal" in2="BackgroundImageFix" result="effect1_dropShadow_1_56"/>
<feBlend mode="normal" in="SourceGraphic" in2="effect1_dropShadow_1_56" result="shape"/>
</filter>
<filter id="filter1_d_1_56" x="36.2871" y="3.78642" width="120.429" height="32.4286" filterUnits="userSpaceOnUse" color-interpolation-filters="sRGB">
<feFlood flood-opacity="0" result="BackgroundImageFix"/>
<feColorMatrix in="SourceAlpha" type="matrix" values="0 0 0 0 0 0 0 0 0 0 0 0 0 0 0 0 0 0 127 0" result="hardAlpha"/>
<feOffset/>
<feGaussianBlur stdDeviation="2.85714"/>
<feComposite in2="hardAlpha" operator="out"/>
<feColorMatrix type="matrix" values="0 0 0 0 0 0 0 0 0 0 0 0 0 0 0 0 0 0 0.25 0"/>
<feBlend mode="normal" in2="BackgroundImageFix" result="effect1_dropShadow_1_56"/>
<feBlend mode="normal" in="SourceGraphic" in2="effect1_dropShadow_1_56" result="shape"/>
</filter>
<linearGradient id="paint0_linear_1_56" x1="79.5007" y1="0" x2="79.5007" y2="40.0014" gradientUnits="userSpaceOnUse">
<stop stop-color="#1B1D31"/>
<stop offset="1" stop-color="#11121F"/>
</linearGradient>
</defs>
</svg>
