<svg width="144" height="56" viewBox="0 0 144 56" fill="none" xmlns="http://www.w3.org/2000/svg">
<rect width="144" height="56" rx="8" fill="url(#paint0_linear_1_50)"/>
<rect x="1.05" y="1.05" width="141.9" height="53.9" rx="6.95" stroke="white" stroke-opacity="0.15" stroke-width="2.1"/>
<g filter="url(#filter0_d_1_50)">
<path d="M45.8603 15.4931C43.298 14.3369 40.5756 13.496 37.7144 13.002C37.6611 13.002 37.6077 13.002 37.5863 13.0651C37.234 13.6852 36.839 14.4841 36.5721 15.1147C33.476 14.6628 30.4333 14.6628 27.4227 15.1147C27.1451 14.463 26.7501 13.6747 26.3551 13.0651C26.323 13.0231 26.2803 12.9915 26.2269 13.002C23.7714 13.4855 20.6327 14.3684 18.1131 15.4931C18.0918 15.4931 18.0704 15.5141 18.0597 15.5352C12.8284 23.2081 11.4405 30.5657 12.1879 37.9233C12.1879 37.9548 12.2092 37.9968 12.2412 38.0284C15.6576 40.5089 18.9672 42.0225 22.2341 43C22.2875 43 22.3408 43 22.3729 42.958C23.1416 41.9279 23.8248 40.8348 24.4227 39.6786C24.4547 39.6155 24.4227 39.5314 24.348 39.5104C23.2803 39.09 22.2127 38.6065 21.2199 38.0389C21.1451 37.9968 21.1344 37.8812 21.2199 37.8287C21.4334 37.671 21.6469 37.5133 21.8391 37.3557C21.8711 37.3241 21.9245 37.3241 21.9672 37.3346C28.5223 40.2777 35.6326 40.2777 42.0383 37.3346C42.081 37.3136 42.1343 37.3241 42.1664 37.3452C42.3692 37.5133 42.5721 37.671 42.7856 37.8287C42.8603 37.8812 42.8496 37.9968 42.7856 38.0389C41.7927 38.617 40.7571 39.09 39.6575 39.5104C39.5828 39.5419 39.5507 39.6155 39.5934 39.6891C40.1913 40.8453 40.8852 41.9279 41.6219 42.9474C41.6539 42.9895 41.7073 43.0105 41.7607 42.9895C45.0276 41.991 48.3478 40.4879 51.7749 38.0179C51.8069 37.9968 51.8283 37.9653 51.8283 37.9127C52.661 29.4095 50.4297 22.0414 45.9137 15.5246C45.9137 15.5036 45.8817 15.4826 45.8603 15.4826V15.4931ZM25.3622 33.4667C23.3337 33.4667 21.7323 31.6798 21.7323 29.4725C21.7323 27.2653 23.3337 25.4784 25.3622 25.4784C27.3906 25.4784 28.9921 27.2653 28.9921 29.4725C28.9921 31.6798 27.3906 33.4667 25.3622 33.4667ZM38.7073 33.4667C36.6789 33.4667 35.0774 31.6798 35.0774 29.4725C35.0774 27.2653 36.6789 25.4784 38.7073 25.4784C40.7358 25.4784 42.3372 27.2653 42.3372 29.4725C42.3372 31.6798 40.7358 33.4667 38.7073 33.4667Z" fill="#5865F2"/>
</g>
<g filter="url(#filter1_d_1_50)">
<path d="M63.0341 12.8636V24.5H61.2784V12.8636H63.0341ZM67.1534 19.3182V24.5H65.4545V15.7727H67.0852V17.1932H67.1932C67.3939 16.7311 67.7083 16.3598 68.1363 16.0795C68.5682 15.7992 69.1117 15.6591 69.767 15.6591C70.3617 15.6591 70.8826 15.7841 71.3295 16.0341C71.7765 16.2803 72.1231 16.6477 72.3693 17.1364C72.6155 17.625 72.7386 18.2292 72.7386 18.9489V24.5H71.0398V19.1534C71.0398 18.5208 70.875 18.0265 70.5454 17.6704C70.2159 17.3106 69.7632 17.1307 69.1875 17.1307C68.7935 17.1307 68.4432 17.2159 68.1363 17.3864C67.8333 17.5568 67.5928 17.8068 67.4148 18.1364C67.2405 18.4621 67.1534 18.8561 67.1534 19.3182ZM82.1704 15.7727L79.0057 24.5H77.1875L74.017 15.7727H75.8409L78.0511 22.4886H78.142L80.3466 15.7727H82.1704ZM83.767 24.5V15.7727H85.4659V24.5H83.767ZM84.625 14.4261C84.3295 14.4261 84.0757 14.3276 83.8636 14.1307C83.6553 13.9299 83.5511 13.6913 83.5511 13.4148C83.5511 13.1345 83.6553 12.8958 83.8636 12.6989C84.0757 12.4981 84.3295 12.3977 84.625 12.3977C84.9204 12.3977 85.1723 12.4981 85.3807 12.6989C85.5928 12.8958 85.6988 13.1345 85.6988 13.4148C85.6988 13.6913 85.5928 13.9299 85.3807 14.1307C85.1723 14.3276 84.9204 14.4261 84.625 14.4261ZM91.8253 15.7727V17.1364H87.0582V15.7727H91.8253ZM88.3366 13.6818H90.0355V21.9375C90.0355 22.267 90.0847 22.5151 90.1832 22.6818C90.2817 22.8447 90.4086 22.9564 90.5639 23.017C90.723 23.0739 90.8953 23.1023 91.0809 23.1023C91.2173 23.1023 91.3366 23.0928 91.4389 23.0739C91.5412 23.0549 91.6207 23.0398 91.6775 23.0284L91.9844 24.4318C91.8859 24.4697 91.7457 24.5076 91.5639 24.5454C91.3821 24.5871 91.1548 24.6098 90.8821 24.6136C90.4351 24.6212 90.0184 24.5417 89.6321 24.375C89.2457 24.2083 88.9332 23.9508 88.6946 23.6023C88.4559 23.2538 88.3366 22.8163 88.3366 22.2898V13.6818ZM97.3721 24.6761C96.5123 24.6761 95.7718 24.4924 95.1505 24.125C94.5331 23.7538 94.0558 23.2329 93.7187 22.5625C93.3854 21.8883 93.2187 21.0985 93.2187 20.1932C93.2187 19.2992 93.3854 18.5114 93.7187 17.8295C94.0558 17.1477 94.5255 16.6155 95.1278 16.2329C95.7339 15.8504 96.4422 15.6591 97.2528 15.6591C97.7452 15.6591 98.2225 15.7405 98.6846 15.9034C99.1468 16.0663 99.5615 16.322 99.929 16.6704C100.296 17.0189 100.586 17.4716 100.798 18.0284C101.01 18.5814 101.116 19.2538 101.116 20.0454V20.6477H94.179V19.375H99.4517C99.4517 18.928 99.3608 18.5322 99.179 18.1875C98.9971 17.839 98.7415 17.5644 98.4119 17.3636C98.0861 17.1629 97.7036 17.0625 97.2642 17.0625C96.7869 17.0625 96.3702 17.1799 96.0142 17.4148C95.6619 17.6458 95.3892 17.9489 95.196 18.3239C95.0066 18.6951 94.9119 19.0985 94.9119 19.5341V20.5284C94.9119 21.1117 95.0142 21.6079 95.2187 22.017C95.4271 22.4261 95.7168 22.7386 96.088 22.9545C96.4593 23.1667 96.893 23.2727 97.3892 23.2727C97.7111 23.2727 98.0047 23.2273 98.2699 23.1364C98.535 23.0417 98.7642 22.9015 98.9574 22.7159C99.1505 22.5303 99.2983 22.3011 99.4005 22.0284L101.008 22.3182C100.88 22.7917 100.649 23.2064 100.315 23.5625C99.9858 23.9148 99.571 24.1894 99.071 24.3864C98.5748 24.5795 98.0085 24.6761 97.3721 24.6761ZM111.31 15.7727V17.1364H106.543V15.7727H111.31ZM107.821 13.6818H109.52V21.9375C109.52 22.267 109.569 22.5151 109.668 22.6818C109.766 22.8447 109.893 22.9564 110.048 23.017C110.207 23.0739 110.38 23.1023 110.565 23.1023C110.702 23.1023 110.821 23.0928 110.923 23.0739C111.026 23.0549 111.105 23.0398 111.162 23.0284L111.469 24.4318C111.37 24.4697 111.23 24.5076 111.048 24.5454C110.866 24.5871 110.639 24.6098 110.366 24.6136C109.919 24.6212 109.503 24.5417 109.116 24.375C108.73 24.2083 108.418 23.9508 108.179 23.6023C107.94 23.2538 107.821 22.8163 107.821 22.2898V13.6818ZM115.075 19.3182V24.5H113.376V12.8636H115.053V17.1932H115.16C115.365 16.7235 115.678 16.3504 116.098 16.0739C116.518 15.7973 117.068 15.6591 117.746 15.6591C118.344 15.6591 118.867 15.7822 119.314 16.0284C119.765 16.2746 120.113 16.642 120.359 17.1307C120.609 17.6155 120.734 18.2216 120.734 18.9489V24.5H119.035V19.1534C119.035 18.5133 118.871 18.017 118.541 17.6648C118.212 17.3087 117.753 17.1307 117.166 17.1307C116.765 17.1307 116.405 17.2159 116.087 17.3864C115.772 17.5568 115.524 17.8068 115.342 18.1364C115.164 18.4621 115.075 18.8561 115.075 19.3182ZM126.763 24.6761C125.903 24.6761 125.162 24.4924 124.541 24.125C123.924 23.7538 123.446 23.2329 123.109 22.5625C122.776 21.8883 122.609 21.0985 122.609 20.1932C122.609 19.2992 122.776 18.5114 123.109 17.8295C123.446 17.1477 123.916 16.6155 124.518 16.2329C125.124 15.8504 125.833 15.6591 126.643 15.6591C127.136 15.6591 127.613 15.7405 128.075 15.9034C128.537 16.0663 128.952 16.322 129.32 16.6704C129.687 17.0189 129.977 17.4716 130.189 18.0284C130.401 18.5814 130.507 19.2538 130.507 20.0454V20.6477H123.57V19.375H128.842C128.842 18.928 128.751 18.5322 128.57 18.1875C128.388 17.839 128.132 17.5644 127.803 17.3636C127.477 17.1629 127.094 17.0625 126.655 17.0625C126.178 17.0625 125.761 17.1799 125.405 17.4148C125.053 17.6458 124.78 17.9489 124.587 18.3239C124.397 18.6951 124.303 19.0985 124.303 19.5341V20.5284C124.303 21.1117 124.405 21.6079 124.609 22.017C124.818 22.4261 125.107 22.7386 125.479 22.9545C125.85 23.1667 126.284 23.2727 126.78 23.2727C127.102 23.2727 127.395 23.2273 127.66 23.1364C127.926 23.0417 128.155 22.9015 128.348 22.7159C128.541 22.5303 128.689 22.3011 128.791 22.0284L130.399 22.3182C130.27 22.7917 130.039 23.2064 129.706 23.5625C129.376 23.9148 128.962 24.1894 128.462 24.3864C127.965 24.5795 127.399 24.6761 126.763 24.6761Z" fill="#E8E8E8"/>
<path d="M60.9357 43.5V31.1364H66.0912C67.0169 31.1364 67.7916 31.2672 68.4155 31.5288C69.0433 31.7904 69.5142 32.1566 69.8281 32.6275C70.1461 33.0984 70.305 33.6437 70.305 34.2635C70.305 34.7344 70.2064 35.1549 70.0092 35.5252C69.812 35.8914 69.5403 36.1953 69.1942 36.4368C68.8481 36.6783 68.4477 36.8473 67.9929 36.9439V37.0646C68.4919 37.0888 68.9528 37.2236 69.3753 37.4691C69.8019 37.7146 70.144 38.0567 70.4016 38.4954C70.6592 38.93 70.788 39.4452 70.788 40.0408C70.788 40.7049 70.6189 41.2985 70.2809 41.8217C69.9428 42.3409 69.4538 42.7514 68.8139 43.0533C68.174 43.3511 67.3972 43.5 66.4836 43.5H60.9357ZM63.924 41.0913H65.7713C66.4193 41.0913 66.8962 40.9685 67.202 40.723C67.5119 40.4775 67.6669 40.1354 67.6669 39.6967C67.6669 39.3788 67.5924 39.1051 67.4435 38.8757C67.2946 38.6423 67.0833 38.4632 66.8096 38.3384C66.536 38.2096 66.208 38.1452 65.8256 38.1452H63.924V41.0913ZM63.924 36.2195H65.5781C65.9041 36.2195 66.1939 36.1651 66.4474 36.0565C66.701 35.9478 66.8982 35.7908 67.039 35.5856C67.1839 35.3803 67.2564 35.1328 67.2564 34.843C67.2564 34.4285 67.1095 34.1025 66.8157 33.865C66.5219 33.6276 66.1255 33.5089 65.6264 33.5089H63.924V36.2195ZM76.5532 43.6751C75.5793 43.6751 74.7422 43.4758 74.0419 43.0774C73.3456 42.6749 72.8083 42.1155 72.43 41.3991C72.0557 40.6787 71.8686 39.8436 71.8686 38.8938C71.8686 37.94 72.0557 37.1049 72.43 36.3885C72.8083 35.6681 73.3456 35.1087 74.0419 34.7102C74.7422 34.3078 75.5793 34.1065 76.5532 34.1065C77.5272 34.1065 78.3623 34.3078 79.0586 34.7102C79.7589 35.1087 80.2961 35.6681 80.6704 36.3885C81.0487 37.1049 81.2379 37.94 81.2379 38.8938C81.2379 39.8436 81.0487 40.6787 80.6704 41.3991C80.2961 42.1155 79.7589 42.6749 79.0586 43.0774C78.3623 43.4758 77.5272 43.6751 76.5532 43.6751ZM76.5714 41.4474C76.9255 41.4474 77.2254 41.3388 77.4709 41.1214C77.7164 40.9041 77.9035 40.6023 78.0323 40.2159C78.1651 39.8295 78.2315 39.3828 78.2315 38.8757C78.2315 38.3605 78.1651 37.9098 78.0323 37.5234C77.9035 37.1371 77.7164 36.8352 77.4709 36.6179C77.2254 36.4006 76.9255 36.2919 76.5714 36.2919C76.2051 36.2919 75.8952 36.4006 75.6417 36.6179C75.3921 36.8352 75.201 37.1371 75.0682 37.5234C74.9394 37.9098 74.875 38.3605 74.875 38.8757C74.875 39.3828 74.9394 39.8295 75.0682 40.2159C75.201 40.6023 75.3921 40.9041 75.6417 41.1214C75.8952 41.3388 76.2051 41.4474 76.5714 41.4474ZM87.9842 34.2273V36.4006H82.1344V34.2273H87.9842ZM83.3599 32.0057H86.3119V40.5842C86.3119 40.7653 86.3401 40.9122 86.3965 41.0248C86.4568 41.1335 86.5434 41.212 86.656 41.2603C86.7687 41.3046 86.9036 41.3267 87.0605 41.3267C87.1732 41.3267 87.2919 41.3166 87.4167 41.2965C87.5455 41.2724 87.6421 41.2522 87.7065 41.2361L88.1532 43.3672C88.0123 43.4074 87.8131 43.4577 87.5556 43.5181C87.302 43.5785 86.9981 43.6167 86.644 43.6328C85.9517 43.665 85.3581 43.5845 84.8631 43.3913C84.3721 43.1941 83.9958 42.8882 83.7342 42.4737C83.4766 42.0592 83.3518 41.538 83.3599 40.9101V32.0057Z" fill="#5865F2"/>
</g>
<defs>
<filter id="filter0_d_1_50" x="6.28571" y="2.28571" width="51.4286" height="51.4286" filterUnits="userSpaceOnUse" color-interpolation-filters="sRGB">
<feFlood flood-opacity="0" result="BackgroundImageFix"/>
<feColorMatrix in="SourceAlpha" type="matrix" values="0 0 0 0 0 0 0 0 0 0 0 0 0 0 0 0 0 0 127 0" result="hardAlpha"/>
<feOffset/>
<feGaussianBlur stdDeviation="2.85714"/>
<feComposite in2="hardAlpha" operator="out"/>
<feColorMatrix type="matrix" values="0 0 0 0 0 0 0 0 0 0 0 0 0 0 0 0 0 0 0.25 0"/>
<feBlend mode="normal" in2="BackgroundImageFix" result="effect1_dropShadow_1_50"/>
<feBlend mode="normal" in="SourceGraphic" in2="effect1_dropShadow_1_50" result="shape"/>
</filter>
<filter id="filter1_d_1_50" x="54.4" y="3.9" width="83.2" height="48.2" filterUnits="userSpaceOnUse" color-interpolation-filters="sRGB">
<feFlood flood-opacity="0" result="BackgroundImageFix"/>
<feColorMatrix in="SourceAlpha" type="matrix" values="0 0 0 0 0 0 0 0 0 0 0 0 0 0 0 0 0 0 127 0" result="hardAlpha"/>
<feOffset/>
<feGaussianBlur stdDeviation="2.8"/>
<feComposite in2="hardAlpha" operator="out"/>
<feColorMatrix type="matrix" values="0 0 0 0 0 0 0 0 0 0 0 0 0 0 0 0 0 0 0.25 0"/>
<feBlend mode="normal" in2="BackgroundImageFix" result="effect1_dropShadow_1_50"/>
<feBlend mode="normal" in="SourceGraphic" in2="effect1_dropShadow_1_50" result="shape"/>
</filter>
<linearGradient id="paint0_linear_1_50" x1="72" y1="0" x2="72" y2="56" gradientUnits="userSpaceOnUse">
<stop stop-color="#1B1D31"/>
<stop offset="1" stop-color="#11121F"/>
</linearGradient>
</defs>
</svg>
