<svg width="174" height="40" viewBox="0 0 174 40" fill="none" xmlns="http://www.w3.org/2000/svg">
<rect width="174.001" height="40.0014" rx="8" fill="url(#paint0_linear_1_56)"/>
<rect x="1.07143" y="1.07143" width="171.859" height="37.8585" rx="6.92857" stroke="white" stroke-opacity="0.15" stroke-width="2.14286"/>
<g filter="url(#filter0_d_1_56)">
<path fill-rule="evenodd" clip-rule="evenodd" d="M21.834 30.885L31.8554 33.9729L26.9823 29.4432L15.148 18.4428L17.915 15.676L16.6411 6.89185L8.46196 16.7187C7.846 17.7856 7.84602 19.1 8.46199 20.1669L13.6548 29.1609C14.2708 30.2278 15.4092 30.885 16.641 30.885H21.834Z" fill="#18B6F6"/>
<path d="M27.0269 6L16.6411 6C15.4092 6 14.2708 6.65723 13.6549 7.72412L8.46196 16.7187L16.6411 6.89185L28.52 18.4428L26.3067 20.6563L26.9823 29.4432L31.8554 33.9729C32.1364 34.0595 32.383 33.7651 32.2484 33.5037L30.0131 29.1609L35.206 20.1669C35.822 19.1 35.822 17.7856 35.206 16.7187L30.0131 7.72411C29.3972 6.65723 28.2588 6 27.0269 6Z" fill="#AC7EF4"/>
<path d="M28.52 18.4428L16.6411 6.89185L17.915 15.676L15.148 18.4428L26.9823 29.4432L26.3067 20.6563L28.52 18.4428Z" fill="white"/>
</g>
<g filter="url(#filter1_d_1_56)">
<path d="M43.3597 26.5007V14.1371H47.8874C48.7648 14.1371 49.4912 14.282 50.0667 14.5717C50.6423 14.8575 51.0729 15.2458 51.3586 15.7369C51.6444 16.2238 51.7873 16.7732 51.7873 17.3849C51.7873 17.9001 51.6927 18.3347 51.5035 18.6889C51.3144 19.0391 51.0608 19.3208 50.7429 19.5341C50.429 19.7434 50.0828 19.8963 49.7045 19.9929V20.1136C50.115 20.1337 50.5155 20.2666 50.9059 20.5121C51.3003 20.7535 51.6263 21.0976 51.8839 21.5444C52.1414 21.9911 52.2702 22.5344 52.2702 23.1743C52.2702 23.8062 52.1213 24.3737 51.8235 24.8768C51.5297 25.3758 51.0749 25.7722 50.4591 26.066C49.8434 26.3558 49.0566 26.5007 48.0987 26.5007H43.3597ZM45.2251 24.9009H47.9176C48.8111 24.9009 49.451 24.7279 49.8373 24.3817C50.2237 24.0356 50.4169 23.603 50.4169 23.0838C50.4169 22.6934 50.3183 22.3352 50.1211 22.0092C49.9239 21.6832 49.6421 21.4236 49.2759 21.2305C48.9137 21.0373 48.483 20.9407 47.984 20.9407H45.2251V24.9009ZM45.2251 19.4858H47.7244C48.143 19.4858 48.5193 19.4053 48.8533 19.2443C49.1914 19.0833 49.459 18.8579 49.6562 18.5682C49.8575 18.2744 49.9581 17.9283 49.9581 17.5298C49.9581 17.0187 49.779 16.5901 49.4208 16.244C49.0626 15.8978 48.5132 15.7248 47.7727 15.7248H45.2251V19.4858ZM60.2118 22.6552V17.228H62.0229V26.5007H60.248V24.8949H60.1514C59.9381 25.3899 59.596 25.8024 59.1251 26.1324C58.6583 26.4584 58.0767 26.6214 57.3805 26.6214C56.7848 26.6214 56.2576 26.4906 55.7988 26.229C55.344 25.9634 54.9858 25.571 54.7242 25.0518C54.4667 24.5327 54.3379 23.8907 54.3379 23.1261V17.228H56.1429V22.9087C56.1429 23.5406 56.318 24.0437 56.6681 24.418C57.0183 24.7922 57.473 24.9794 58.0325 24.9794C58.3705 24.9794 58.7066 24.8949 59.0406 24.7258C59.3787 24.5568 59.6584 24.3012 59.8798 23.9591C60.1051 23.6171 60.2158 23.1824 60.2118 22.6552ZM64.4482 26.5007V17.228H66.2533V26.5007H64.4482ZM65.3598 15.7972C65.0459 15.7972 64.7762 15.6926 64.5508 15.4833C64.3295 15.27 64.2188 15.0164 64.2188 14.7226C64.2188 14.4248 64.3295 14.1713 64.5508 13.962C64.7762 13.7487 65.0459 13.642 65.3598 13.642C65.6737 13.642 65.9413 13.7487 66.1627 13.962C66.3881 14.1713 66.5008 14.4248 66.5008 14.7226C66.5008 15.0164 66.3881 15.27 66.1627 15.4833C65.9413 15.6926 65.6737 15.7972 65.3598 15.7972ZM70.4867 14.1371V26.5007H68.6816V14.1371H70.4867ZM77.2435 17.228V18.6768H72.1785V17.228H77.2435ZM73.5368 15.0064H75.3419V23.778C75.3419 24.1282 75.3942 24.3918 75.4988 24.5689C75.6035 24.7419 75.7383 24.8607 75.9033 24.9251C76.0723 24.9854 76.2554 25.0156 76.4526 25.0156C76.5975 25.0156 76.7243 25.0056 76.833 24.9854C76.9416 24.9653 77.0262 24.9492 77.0865 24.9371L77.4125 26.4283C77.3079 26.4685 77.159 26.5087 76.9658 26.549C76.7726 26.5933 76.5311 26.6174 76.2414 26.6214C75.7664 26.6295 75.3237 26.545 74.9132 26.3679C74.5027 26.1908 74.1707 25.9171 73.9171 25.5469C73.6636 25.1766 73.5368 24.7118 73.5368 24.1523V15.0064ZM85.7495 26.5007L83.0208 17.228H84.8862L86.7034 24.0376H86.7939L88.6171 17.228H90.4825L92.2936 24.0074H92.3841L94.1891 17.228H96.0546L93.3319 26.5007H91.4906L89.6071 19.8057H89.4683L87.5847 26.5007H85.7495ZM97.7675 26.5007V17.228H99.5726V26.5007H97.7675ZM98.6791 15.7972C98.3652 15.7972 98.0955 15.6926 97.8702 15.4833C97.6488 15.27 97.5381 15.0164 97.5381 14.7226C97.5381 14.4248 97.6488 14.1713 97.8702 13.962C98.0955 13.7487 98.3652 13.642 98.6791 13.642C98.993 13.642 99.2607 13.7487 99.482 13.962C99.7074 14.1713 99.8201 14.4248 99.8201 14.7226C99.8201 15.0164 99.7074 15.27 99.482 15.4833C99.2607 15.6926 98.993 15.7972 98.6791 15.7972ZM106.329 17.228V18.6768H101.264V17.228H106.329ZM102.623 15.0064H104.428V23.778C104.428 24.1282 104.48 24.3918 104.585 24.5689C104.689 24.7419 104.824 24.8607 104.989 24.9251C105.158 24.9854 105.341 25.0156 105.539 25.0156C105.683 25.0156 105.81 25.0056 105.919 24.9854C106.028 24.9653 106.112 24.9492 106.172 24.9371L106.498 26.4283C106.394 26.4685 106.245 26.5087 106.052 26.549C105.859 26.5933 105.617 26.6174 105.327 26.6214C104.852 26.6295 104.41 26.545 103.999 26.3679C103.589 26.1908 103.257 25.9171 103.003 25.5469C102.75 25.1766 102.623 24.7118 102.623 24.1523V15.0064ZM110.33 20.995V26.5007H108.525V14.1371H110.306V18.7372H110.421C110.638 18.2382 110.97 17.8417 111.417 17.5479C111.864 17.2541 112.447 17.1072 113.168 17.1072C113.804 17.1072 114.359 17.238 114.834 17.4996C115.313 17.7612 115.683 18.1516 115.945 18.6708C116.21 19.1859 116.343 19.8299 116.343 20.6026V26.5007H114.538V20.8199C114.538 20.1398 114.363 19.6126 114.013 19.2383C113.663 18.86 113.176 18.6708 112.552 18.6708C112.125 18.6708 111.743 18.7614 111.405 18.9425C111.071 19.1236 110.807 19.3892 110.614 19.7393C110.425 20.0855 110.33 20.504 110.33 20.995Z" fill="#E8E8E8"/>
<path d="M127.664 22.0575H130.079L131.105 23.3675L132.451 24.913L134.522 27.4666H131.817L130.369 25.734L129.511 24.5025L127.664 22.0575ZM134.606 20.3189C134.606 21.6792 134.345 22.8323 133.822 23.778C133.298 24.7238 132.59 25.4422 131.697 25.9332C130.807 26.4242 129.809 26.6697 128.702 26.6697C127.592 26.6697 126.591 26.4222 125.702 25.9272C124.813 25.4322 124.106 24.7138 123.583 23.772C123.064 22.8262 122.804 21.6752 122.804 20.3189C122.804 18.9586 123.064 17.8055 123.583 16.8597C124.106 15.9139 124.813 15.1955 125.702 14.7045C126.591 14.2135 127.592 13.968 128.702 13.968C129.809 13.968 130.807 14.2135 131.697 14.7045C132.59 15.1955 133.298 15.9139 133.822 16.8597C134.345 17.8055 134.606 18.9586 134.606 20.3189ZM131.552 20.3189C131.552 19.514 131.437 18.8338 131.208 18.2784C130.982 17.723 130.656 17.3024 130.23 17.0167C129.807 16.7309 129.298 16.5881 128.702 16.5881C128.111 16.5881 127.602 16.7309 127.175 17.0167C126.748 17.3024 126.42 17.723 126.191 18.2784C125.966 18.8338 125.853 19.514 125.853 20.3189C125.853 21.1238 125.966 21.804 126.191 22.3594C126.42 22.9148 126.748 23.3353 127.175 23.6211C127.602 23.9068 128.111 24.0497 128.702 24.0497C129.298 24.0497 129.807 23.9068 130.23 23.6211C130.656 23.3353 130.982 22.9148 131.208 22.3594C131.437 21.804 131.552 21.1238 131.552 20.3189ZM138.1 26.5007L135.686 17.228H138.65L139.899 23.1683H139.978L141.318 17.228H144.21L145.586 23.1261H145.665L146.878 17.228H149.842L147.421 26.5007H144.264L142.815 21.0976H142.713L141.264 26.5007H138.1ZM151.027 26.5007V17.228H153.979V26.5007H151.027ZM152.506 16.1474C152.091 16.1474 151.735 16.0105 151.437 15.7369C151.14 15.4592 150.991 15.1251 150.991 14.7347C150.991 14.3484 151.14 14.0183 151.437 13.7447C151.735 13.467 152.091 13.3281 152.506 13.3281C152.925 13.3281 153.281 13.467 153.575 13.7447C153.872 14.0183 154.021 14.3484 154.021 14.7347C154.021 15.1251 153.872 15.4592 153.575 15.7369C153.281 16.0105 152.925 16.1474 152.506 16.1474ZM158.52 24.0678L158.532 20.5483H158.943L161.551 17.228H164.895L161.02 21.9851H160.241L158.52 24.0678ZM155.858 26.5007V14.1371H158.81V26.5007H155.858ZM161.617 26.5007L159.19 22.6491L161.134 20.5543L165.028 26.5007H161.617Z" fill="#18B6F6"/>
</g>
<defs>
<filter id="filter0_d_1_56" x="2.39972" y="0.39972" width="39.202" height="39.202" filterUnits="userSpaceOnUse" color-interpolation-filters="sRGB">
<feFlood flood-opacity="0" result="BackgroundImageFix"/>
<feColorMatrix in="SourceAlpha" type="matrix" values="0 0 0 0 0 0 0 0 0 0 0 0 0 0 0 0 0 0 127 0" result="hardAlpha"/>
<feOffset/>
<feGaussianBlur stdDeviation="2.80014"/>
<feComposite in2="hardAlpha" operator="out"/>
<feColorMatrix type="matrix" values="0 0 0 0 0 0 0 0 0 0 0 0 0 0 0 0 0 0 0.25 0"/>
<feBlend mode="normal" in2="BackgroundImageFix" result="effect1_dropShadow_1_56"/>
<feBlend mode="normal" in="SourceGraphic" in2="effect1_dropShadow_1_56" result="shape"/>
</filter>
<filter id="filter1_d_1_56" x="36.2871" y="3.78642" width="135.429" height="32.4286" filterUnits="userSpaceOnUse" color-interpolation-filters="sRGB">
<feFlood flood-opacity="0" result="BackgroundImageFix"/>
<feColorMatrix in="SourceAlpha" type="matrix" values="0 0 0 0 0 0 0 0 0 0 0 0 0 0 0 0 0 0 127 0" result="hardAlpha"/>
<feOffset/>
<feGaussianBlur stdDeviation="2.85714"/>
<feComposite in2="hardAlpha" operator="out"/>
<feColorMatrix type="matrix" values="0 0 0 0 0 0 0 0 0 0 0 0 0 0 0 0 0 0 0.25 0"/>
<feBlend mode="normal" in2="BackgroundImageFix" result="effect1_dropShadow_1_56"/>
<feBlend mode="normal" in="SourceGraphic" in2="effect1_dropShadow_1_56" result="shape"/>
</filter>
<linearGradient id="paint0_linear_1_56" x1="87.0007" y1="0" x2="87.0007" y2="40.0014" gradientUnits="userSpaceOnUse">
<stop stop-color="#5310BB"/>
<stop offset="1" stop-color="#06678F"/>
</linearGradient>
</defs>
</svg>
