<svg width="144" height="56" viewBox="0 0 144 56" fill="none" xmlns="http://www.w3.org/2000/svg">
<rect width="144" height="56" rx="8" fill="url(#paint0_linear_1_50)"/>
<rect x="1.05" y="1.05" width="141.9" height="53.9" rx="6.95" stroke="white" stroke-opacity="0.15" stroke-width="2.1"/>
<g filter="url(#filter0_d_1_50)">
<path fill-rule="evenodd" clip-rule="evenodd" d="M31.7628 43.55L46.0792 47.9613L39.1176 41.4903L22.2114 25.7754L26.1643 21.8229L24.3444 9.27407L12.6599 23.3124C11.78 24.8365 11.78 26.7143 12.66 28.2384L20.0783 41.087C20.9583 42.6111 22.5845 43.55 24.3443 43.55H31.7628Z" fill="#18B6F6"/>
<path d="M39.1813 8L24.3444 8C22.5845 8 20.9583 8.9389 20.0784 10.463L12.6599 23.3124L24.3444 9.27407L41.3143 25.7754L38.1524 28.9375L39.1175 41.4903L46.0792 47.9613C46.4806 48.085 46.8328 47.6644 46.6406 47.291L43.4473 41.087L50.8657 28.2384C51.7457 26.7143 51.7457 24.8365 50.8658 23.3124L43.4473 10.463C42.5674 8.9389 40.9412 8 39.1813 8Z" fill="#AC7EF4"/>
<path d="M41.3143 25.7754L24.3444 9.27407L26.1643 21.8229L22.2114 25.7754L39.1175 41.4903L38.1524 28.9375L41.3143 25.7754Z" fill="white"/>
</g>
<g filter="url(#filter1_d_1_50)">
<path d="M61.2784 24.5V12.8636H65.5398C66.3655 12.8636 67.0492 13 67.5909 13.2727C68.1326 13.5417 68.5379 13.9072 68.8068 14.3693C69.0757 14.8276 69.2102 15.3447 69.2102 15.9204C69.2102 16.4053 69.1212 16.8144 68.9432 17.1477C68.7651 17.4773 68.5265 17.7424 68.2273 17.9432C67.9318 18.1401 67.606 18.2841 67.25 18.375V18.4886C67.6363 18.5076 68.0132 18.6326 68.3807 18.8636C68.7519 19.0909 69.0587 19.4148 69.3011 19.8352C69.5435 20.2557 69.6648 20.767 69.6648 21.3693C69.6648 21.964 69.5246 22.4981 69.2443 22.9716C68.9678 23.4413 68.5398 23.8144 67.9602 24.0909C67.3807 24.3636 66.6401 24.5 65.7386 24.5H61.2784ZM63.0341 22.9943H65.5682C66.4091 22.9943 67.0113 22.8314 67.375 22.5057C67.7386 22.1799 67.9204 21.7727 67.9204 21.2841C67.9204 20.9167 67.8276 20.5795 67.642 20.2727C67.4564 19.9659 67.1913 19.7216 66.8466 19.5398C66.5057 19.3579 66.1004 19.267 65.6307 19.267H63.0341V22.9943ZM63.0341 17.8977H65.3863C65.7803 17.8977 66.1345 17.822 66.4488 17.6704C66.767 17.5189 67.0189 17.3068 67.2045 17.0341C67.3939 16.7576 67.4886 16.4318 67.4886 16.0568C67.4886 15.5758 67.3201 15.1723 66.9829 14.8466C66.6458 14.5208 66.1288 14.3579 65.4318 14.3579H63.0341V17.8977ZM77.1392 20.8807V15.7727H78.8437V24.5H77.1733V22.9886H77.0824C76.8816 23.4545 76.5596 23.8428 76.1165 24.1534C75.6771 24.4602 75.1297 24.6136 74.4744 24.6136C73.9138 24.6136 73.4176 24.4905 72.9858 24.2443C72.5577 23.9943 72.2206 23.625 71.9744 23.1364C71.732 22.6477 71.6108 22.0436 71.6108 21.3239V15.7727H73.3096V21.1193C73.3096 21.714 73.4744 22.1875 73.804 22.5398C74.1335 22.892 74.5615 23.0682 75.088 23.0682C75.4062 23.0682 75.7225 22.9886 76.0369 22.8295C76.3551 22.6704 76.6184 22.4299 76.8267 22.1079C77.0388 21.786 77.143 21.3769 77.1392 20.8807ZM81.1264 24.5V15.7727H82.8253V24.5H81.1264ZM81.9844 14.4261C81.6889 14.4261 81.4351 14.3276 81.223 14.1307C81.0147 13.9299 80.9105 13.6913 80.9105 13.4148C80.9105 13.1345 81.0147 12.8958 81.223 12.6989C81.4351 12.4981 81.6889 12.3977 81.9844 12.3977C82.2798 12.3977 82.5317 12.4981 82.74 12.6989C82.9522 12.8958 83.0582 13.1345 83.0582 13.4148C83.0582 13.6913 82.9522 13.9299 82.74 14.1307C82.5317 14.3276 82.2798 14.4261 81.9844 14.4261ZM86.8096 12.8636V24.5H85.1108V12.8636H86.8096ZM93.169 15.7727V17.1364H88.402V15.7727H93.169ZM89.6804 13.6818H91.3792V21.9375C91.3792 22.267 91.4285 22.5151 91.527 22.6818C91.6254 22.8447 91.7523 22.9564 91.9076 23.017C92.0667 23.0739 92.2391 23.1023 92.4247 23.1023C92.5611 23.1023 92.6804 23.0928 92.7826 23.0739C92.8849 23.0549 92.9645 23.0398 93.0213 23.0284L93.3281 24.4318C93.2296 24.4697 93.0895 24.5076 92.9076 24.5454C92.7258 24.5871 92.4986 24.6098 92.2258 24.6136C91.7789 24.6212 91.3622 24.5417 90.9758 24.375C90.5895 24.2083 90.277 23.9508 90.0383 23.6023C89.7997 23.2538 89.6804 22.8163 89.6804 22.2898V13.6818ZM101.175 24.5L98.6065 15.7727H100.362L102.072 22.1818H102.158L103.874 15.7727H105.629L107.334 22.1534H107.419L109.118 15.7727H110.874L108.311 24.5H106.578L104.805 18.1989H104.675L102.902 24.5H101.175ZM112.486 24.5V15.7727H114.185V24.5H112.486ZM113.344 14.4261C113.048 14.4261 112.794 14.3276 112.582 14.1307C112.374 13.9299 112.27 13.6913 112.27 13.4148C112.27 13.1345 112.374 12.8958 112.582 12.6989C112.794 12.4981 113.048 12.3977 113.344 12.3977C113.639 12.3977 113.891 12.4981 114.099 12.6989C114.312 12.8958 114.418 13.1345 114.418 13.4148C114.418 13.6913 114.312 13.9299 114.099 14.1307C113.891 14.3276 113.639 14.4261 113.344 14.4261ZM120.544 15.7727V17.1364H115.777V15.7727H120.544ZM117.055 13.6818H118.754V21.9375C118.754 22.267 118.803 22.5151 118.902 22.6818C119 22.8447 119.127 22.9564 119.283 23.017C119.442 23.0739 119.614 23.1023 119.8 23.1023C119.936 23.1023 120.055 23.0928 120.158 23.0739C120.26 23.0549 120.339 23.0398 120.396 23.0284L120.703 24.4318C120.605 24.4697 120.464 24.5076 120.283 24.5454C120.101 24.5871 119.874 24.6098 119.601 24.6136C119.154 24.6212 118.737 24.5417 118.351 24.375C117.964 24.2083 117.652 23.9508 117.413 23.6023C117.175 23.2538 117.055 22.8163 117.055 22.2898V13.6818ZM124.31 19.3182V24.5H122.611V12.8636H124.287V17.1932H124.395C124.599 16.7235 124.912 16.3504 125.332 16.0739C125.753 15.7973 126.302 15.6591 126.98 15.6591C127.579 15.6591 128.101 15.7822 128.548 16.0284C128.999 16.2746 129.348 16.642 129.594 17.1307C129.844 17.6155 129.969 18.2216 129.969 18.9489V24.5H128.27V19.1534C128.27 18.5133 128.105 18.017 127.776 17.6648C127.446 17.3087 126.988 17.1307 126.401 17.1307C125.999 17.1307 125.639 17.2159 125.321 17.3864C125.007 17.5568 124.758 17.8068 124.577 18.1364C124.399 18.4621 124.31 18.8561 124.31 19.3182Z" fill="#E8E8E8"/>
<path d="M65.6626 39.0568H68.0774L69.1037 40.3668L70.4499 41.9123L72.5206 44.4659H69.816L68.3672 42.7333L67.5099 41.5018L65.6626 39.0568ZM72.6051 37.3182C72.6051 38.6785 72.3435 39.8315 71.8203 40.7773C71.2971 41.7231 70.5888 42.4415 69.6953 42.9325C68.8059 43.4235 67.8077 43.669 66.701 43.669C65.5902 43.669 64.5901 43.4215 63.7006 42.9265C62.8112 42.4315 62.1049 41.7131 61.5817 40.7713C61.0625 39.8255 60.8029 38.6745 60.8029 37.3182C60.8029 35.9578 61.0625 34.8048 61.5817 33.859C62.1049 32.9132 62.8112 32.1948 63.7006 31.7038C64.5901 31.2128 65.5902 30.9673 66.701 30.9673C67.8077 30.9673 68.8059 31.2128 69.6953 31.7038C70.5888 32.1948 71.2971 32.9132 71.8203 33.859C72.3435 34.8048 72.6051 35.9578 72.6051 37.3182ZM69.5504 37.3182C69.5504 36.5132 69.4357 35.8331 69.2063 35.2777C68.9809 34.7223 68.6549 34.3017 68.2283 34.016C67.8057 33.7302 67.2966 33.5873 66.701 33.5873C66.1094 33.5873 65.6002 33.7302 65.1736 34.016C64.747 34.3017 64.419 34.7223 64.1896 35.2777C63.9642 35.8331 63.8515 36.5132 63.8515 37.3182C63.8515 38.1231 63.9642 38.8033 64.1896 39.3587C64.419 39.9141 64.747 40.3346 65.1736 40.6204C65.6002 40.9061 66.1094 41.049 66.701 41.049C67.2966 41.049 67.8057 40.9061 68.2283 40.6204C68.6549 40.3346 68.9809 39.9141 69.2063 39.3587C69.4357 38.8033 69.5504 38.1231 69.5504 37.3182ZM76.099 43.5L73.6842 34.2273H76.6483L77.898 40.1676H77.9765L79.3167 34.2273H82.2083L83.5848 40.1253H83.6632L84.8767 34.2273H87.8408L85.42 43.5H82.2627L80.8138 38.0969H80.7112L79.2623 43.5H76.099ZM89.0255 43.5V34.2273H91.9776V43.5H89.0255ZM90.5046 33.1467C90.0901 33.1467 89.7339 33.0098 89.4361 32.7361C89.1382 32.4584 88.9893 32.1244 88.9893 31.734C88.9893 31.3476 89.1382 31.0176 89.4361 30.744C89.7339 30.4663 90.0901 30.3274 90.5046 30.3274C90.9232 30.3274 91.2793 30.4663 91.5731 30.744C91.871 31.0176 92.0199 31.3476 92.0199 31.734C92.0199 32.1244 91.871 32.4584 91.5731 32.7361C91.2793 33.0098 90.9232 33.1467 90.5046 33.1467ZM96.5189 41.0671L96.531 37.5476H96.9415L99.5494 34.2273H102.894L99.0182 38.9844H98.2394L96.5189 41.0671ZM93.8566 43.5V31.1364H96.8087V43.5H93.8566ZM99.6158 43.5L97.189 39.6484L99.1329 37.5536L103.027 43.5H99.6158Z" fill="#18B6F6"/>
</g>
<defs>
<filter id="filter0_d_1_50" x="6.28571" y="2.28571" width="51.4286" height="51.4286" filterUnits="userSpaceOnUse" color-interpolation-filters="sRGB">
<feFlood flood-opacity="0" result="BackgroundImageFix"/>
<feColorMatrix in="SourceAlpha" type="matrix" values="0 0 0 0 0 0 0 0 0 0 0 0 0 0 0 0 0 0 127 0" result="hardAlpha"/>
<feOffset/>
<feGaussianBlur stdDeviation="2.85714"/>
<feComposite in2="hardAlpha" operator="out"/>
<feColorMatrix type="matrix" values="0 0 0 0 0 0 0 0 0 0 0 0 0 0 0 0 0 0 0.25 0"/>
<feBlend mode="normal" in2="BackgroundImageFix" result="effect1_dropShadow_1_50"/>
<feBlend mode="normal" in="SourceGraphic" in2="effect1_dropShadow_1_50" result="shape"/>
</filter>
<filter id="filter1_d_1_50" x="54.4" y="3.9" width="83.2" height="48.2" filterUnits="userSpaceOnUse" color-interpolation-filters="sRGB">
<feFlood flood-opacity="0" result="BackgroundImageFix"/>
<feColorMatrix in="SourceAlpha" type="matrix" values="0 0 0 0 0 0 0 0 0 0 0 0 0 0 0 0 0 0 127 0" result="hardAlpha"/>
<feOffset/>
<feGaussianBlur stdDeviation="2.8"/>
<feComposite in2="hardAlpha" operator="out"/>
<feColorMatrix type="matrix" values="0 0 0 0 0 0 0 0 0 0 0 0 0 0 0 0 0 0 0.25 0"/>
<feBlend mode="normal" in2="BackgroundImageFix" result="effect1_dropShadow_1_50"/>
<feBlend mode="normal" in="SourceGraphic" in2="effect1_dropShadow_1_50" result="shape"/>
</filter>
<linearGradient id="paint0_linear_1_50" x1="72" y1="0" x2="72" y2="56" gradientUnits="userSpaceOnUse">
<stop stop-color="#5310BB"/>
<stop offset="1" stop-color="#06678F"/>
</linearGradient>
</defs>
</svg>
