<svg width="191" height="40" viewBox="0 0 191 40" fill="none" xmlns="http://www.w3.org/2000/svg">
<rect width="191.001" height="40.0014" rx="8" fill="url(#paint0_linear_1_56)"/>
<rect x="1.07143" y="1.07143" width="188.858" height="37.8585" rx="6.92857" stroke="white" stroke-opacity="0.15" stroke-width="2.14286"/>
<g filter="url(#filter0_d_1_56)">
<path d="M21.8333 6.00023C20.6787 6.00554 19.5761 6.10293 18.606 6.27272C15.748 6.77211 15.2291 7.81738 15.2291 9.74504V12.2909H21.9828V13.1395H15.2291H12.6945C10.7317 13.1395 9.01303 14.3064 8.47544 16.5262C7.85535 19.0706 7.82784 20.6583 8.47544 23.3151C8.95552 25.2927 10.102 26.7018 12.0648 26.7018H14.3869V23.6499C14.3869 21.445 16.3156 19.5002 18.606 19.5002H25.3518C27.2296 19.5002 28.7287 17.971 28.7287 16.1058V9.74504C28.7287 7.93474 27.1846 6.57485 25.3518 6.27272C24.1916 6.0817 22.9878 5.99492 21.8333 6.00023ZM18.1809 8.0478C18.8785 8.0478 19.4482 8.62048 19.4482 9.32462C19.4482 10.0263 18.8785 10.5937 18.1809 10.5937C17.4808 10.5936 16.9136 10.0263 16.9136 9.32462C16.9136 8.62048 17.4808 8.0478 18.1809 8.0478Z" fill="url(#paint1_linear_1_56)"/>
<path d="M29.5709 13.1395V16.1058C29.5709 18.4055 27.5997 20.341 25.3518 20.341H18.606C16.7582 20.341 15.2291 21.9052 15.2291 23.7355V30.0962C15.2291 31.9065 16.8207 32.9713 18.606 33.4907C20.7438 34.1124 22.7939 34.2248 25.3518 33.4907C27.0521 33.0038 28.7287 32.0239 28.7287 30.0962V27.5504H21.9828V26.7018H28.7287H32.1055C34.0683 26.7018 34.7997 25.3476 35.4824 23.3151C36.1875 21.2226 36.1575 19.2104 35.4824 16.5262C34.9973 14.5935 34.0708 13.1395 32.1055 13.1395H29.5709ZM25.7769 29.2476C26.477 29.2476 27.0442 29.815 27.0442 30.5166C27.0442 31.2208 26.477 31.7935 25.7769 31.7935C25.0793 31.7935 24.5096 31.2208 24.5096 30.5166C24.5096 29.815 25.0793 29.2476 25.7769 29.2476Z" fill="url(#paint2_linear_1_56)"/>
</g>
<g filter="url(#filter1_d_1_56)">
<path d="M43.3597 26.5007V14.1371H47.8874C48.7648 14.1371 49.4912 14.282 50.0667 14.5717C50.6423 14.8575 51.0729 15.2458 51.3586 15.7369C51.6444 16.2238 51.7873 16.7732 51.7873 17.3849C51.7873 17.9001 51.6927 18.3347 51.5035 18.6889C51.3144 19.0391 51.0608 19.3208 50.7429 19.5341C50.429 19.7434 50.0828 19.8963 49.7045 19.9929V20.1136C50.115 20.1337 50.5155 20.2666 50.9059 20.5121C51.3003 20.7535 51.6263 21.0976 51.8839 21.5444C52.1414 21.9911 52.2702 22.5344 52.2702 23.1743C52.2702 23.8062 52.1213 24.3737 51.8235 24.8768C51.5297 25.3758 51.0749 25.7722 50.4591 26.066C49.8434 26.3558 49.0566 26.5007 48.0987 26.5007H43.3597ZM45.2251 24.9009H47.9176C48.8111 24.9009 49.451 24.7279 49.8373 24.3817C50.2237 24.0356 50.4169 23.603 50.4169 23.0838C50.4169 22.6934 50.3183 22.3352 50.1211 22.0092C49.9239 21.6832 49.6421 21.4236 49.2759 21.2305C48.9137 21.0373 48.483 20.9407 47.984 20.9407H45.2251V24.9009ZM45.2251 19.4858H47.7244C48.143 19.4858 48.5193 19.4053 48.8533 19.2443C49.1914 19.0833 49.459 18.8579 49.6562 18.5682C49.8575 18.2744 49.9581 17.9283 49.9581 17.5298C49.9581 17.0187 49.779 16.5901 49.4208 16.244C49.0626 15.8978 48.5132 15.7248 47.7727 15.7248H45.2251V19.4858ZM60.2118 22.6552V17.228H62.0229V26.5007H60.248V24.8949H60.1514C59.9381 25.3899 59.596 25.8024 59.1251 26.1324C58.6583 26.4584 58.0767 26.6214 57.3805 26.6214C56.7848 26.6214 56.2576 26.4906 55.7988 26.229C55.344 25.9634 54.9858 25.571 54.7242 25.0518C54.4667 24.5327 54.3379 23.8907 54.3379 23.1261V17.228H56.1429V22.9087C56.1429 23.5406 56.318 24.0437 56.6681 24.418C57.0183 24.7922 57.473 24.9794 58.0325 24.9794C58.3705 24.9794 58.7066 24.8949 59.0406 24.7258C59.3787 24.5568 59.6584 24.3012 59.8798 23.9591C60.1051 23.6171 60.2158 23.1824 60.2118 22.6552ZM64.4482 26.5007V17.228H66.2533V26.5007H64.4482ZM65.3598 15.7972C65.0459 15.7972 64.7762 15.6926 64.5508 15.4833C64.3295 15.27 64.2188 15.0164 64.2188 14.7226C64.2188 14.4248 64.3295 14.1713 64.5508 13.962C64.7762 13.7487 65.0459 13.642 65.3598 13.642C65.6737 13.642 65.9413 13.7487 66.1627 13.962C66.3881 14.1713 66.5008 14.4248 66.5008 14.7226C66.5008 15.0164 66.3881 15.27 66.1627 15.4833C65.9413 15.6926 65.6737 15.7972 65.3598 15.7972ZM70.4867 14.1371V26.5007H68.6816V14.1371H70.4867ZM77.2435 17.228V18.6768H72.1785V17.228H77.2435ZM73.5368 15.0064H75.3419V23.778C75.3419 24.1282 75.3942 24.3918 75.4988 24.5689C75.6035 24.7419 75.7383 24.8607 75.9033 24.9251C76.0723 24.9854 76.2554 25.0156 76.4526 25.0156C76.5975 25.0156 76.7243 25.0056 76.833 24.9854C76.9416 24.9653 77.0262 24.9492 77.0865 24.9371L77.4125 26.4283C77.3079 26.4685 77.159 26.5087 76.9658 26.549C76.7726 26.5933 76.5311 26.6174 76.2414 26.6214C75.7664 26.6295 75.3237 26.545 74.9132 26.3679C74.5027 26.1908 74.1707 25.9171 73.9171 25.5469C73.6636 25.1766 73.5368 24.7118 73.5368 24.1523V15.0064ZM85.7495 26.5007L83.0208 17.228H84.8862L86.7034 24.0376H86.7939L88.6171 17.228H90.4825L92.2936 24.0074H92.3841L94.1891 17.228H96.0546L93.3319 26.5007H91.4906L89.6071 19.8057H89.4683L87.5847 26.5007H85.7495ZM97.7675 26.5007V17.228H99.5726V26.5007H97.7675ZM98.6791 15.7972C98.3652 15.7972 98.0955 15.6926 97.8702 15.4833C97.6488 15.27 97.5381 15.0164 97.5381 14.7226C97.5381 14.4248 97.6488 14.1713 97.8702 13.962C98.0955 13.7487 98.3652 13.642 98.6791 13.642C98.993 13.642 99.2607 13.7487 99.482 13.962C99.7074 14.1713 99.8201 14.4248 99.8201 14.7226C99.8201 15.0164 99.7074 15.27 99.482 15.4833C99.2607 15.6926 98.993 15.7972 98.6791 15.7972ZM106.329 17.228V18.6768H101.264V17.228H106.329ZM102.623 15.0064H104.428V23.778C104.428 24.1282 104.48 24.3918 104.585 24.5689C104.689 24.7419 104.824 24.8607 104.989 24.9251C105.158 24.9854 105.341 25.0156 105.539 25.0156C105.683 25.0156 105.81 25.0056 105.919 24.9854C106.028 24.9653 106.112 24.9492 106.172 24.9371L106.498 26.4283C106.394 26.4685 106.245 26.5087 106.052 26.549C105.859 26.5933 105.617 26.6174 105.327 26.6214C104.852 26.6295 104.41 26.545 103.999 26.3679C103.589 26.1908 103.257 25.9171 103.003 25.5469C102.75 25.1766 102.623 24.7118 102.623 24.1523V15.0064ZM110.33 20.995V26.5007H108.525V14.1371H110.306V18.7372H110.421C110.638 18.2382 110.97 17.8417 111.417 17.5479C111.864 17.2541 112.447 17.1072 113.168 17.1072C113.804 17.1072 114.359 17.238 114.834 17.4996C115.313 17.7612 115.683 18.1516 115.945 18.6708C116.21 19.1859 116.343 19.8299 116.343 20.6026V26.5007H114.538V20.8199C114.538 20.1398 114.363 19.6126 114.013 19.2383C113.663 18.86 113.176 18.6708 112.552 18.6708C112.125 18.6708 111.743 18.7614 111.405 18.9425C111.071 19.1236 110.807 19.3892 110.614 19.7393C110.425 20.0855 110.33 20.504 110.33 20.995Z" fill="#E8E8E8"/>
<path d="M122.937 26.0007V13.6371H128.044C128.97 13.6371 129.769 13.8182 130.441 14.1804C131.117 14.5386 131.638 15.0396 132.005 15.6836C132.371 16.3235 132.554 17.0681 132.554 17.9172C132.554 18.7705 132.367 19.517 131.992 20.1569C131.622 20.7928 131.093 21.2859 130.405 21.636C129.717 21.9861 128.9 22.1612 127.954 22.1612H124.803V19.8068H127.398C127.849 19.8068 128.225 19.7283 128.527 19.5714C128.833 19.4144 129.065 19.1951 129.222 18.9133C129.379 18.6276 129.457 18.2956 129.457 17.9172C129.457 17.5349 129.379 17.2049 129.222 16.9272C129.065 16.6455 128.833 16.4281 128.527 16.2752C128.221 16.1223 127.845 16.0458 127.398 16.0458H125.925V26.0007H122.937ZM135.832 29.478C135.478 29.478 135.144 29.4498 134.83 29.3935C134.516 29.3411 134.246 29.2707 134.021 29.1822L134.673 27.039C134.963 27.1356 135.224 27.192 135.458 27.2081C135.695 27.2242 135.898 27.1859 136.067 27.0934C136.24 27.0048 136.373 26.8459 136.466 26.6165L136.581 26.3388L133.284 16.728H136.375L138.084 23.3444H138.18L139.913 16.728H143.022L139.527 26.8881C139.358 27.3952 139.118 27.842 138.808 28.2283C138.502 28.6187 138.106 28.9246 137.619 29.1459C137.136 29.3673 136.54 29.478 135.832 29.478ZM149.388 16.728V18.9013H143.538V16.728H149.388ZM144.764 14.5064H147.716V23.0849C147.716 23.266 147.744 23.4129 147.8 23.5256C147.861 23.6342 147.947 23.7127 148.06 23.761C148.172 23.8053 148.307 23.8274 148.464 23.8274C148.577 23.8274 148.696 23.8173 148.82 23.7972C148.949 23.7731 149.046 23.7529 149.11 23.7368L149.557 25.8679C149.416 25.9081 149.217 25.9584 148.959 26.0188C148.706 26.0792 148.402 26.1174 148.048 26.1335C147.355 26.1657 146.762 26.0852 146.267 25.892C145.776 25.6948 145.4 25.389 145.138 24.9744C144.88 24.5599 144.756 24.0387 144.764 23.4109V14.5064ZM154.045 20.7123V26.0007H151.093V13.6371H153.949V18.4304H154.051C154.261 17.8589 154.603 17.4122 155.078 17.0902C155.557 16.7682 156.142 16.6072 156.834 16.6072C157.486 16.6072 158.054 16.7521 158.537 17.0419C159.02 17.3276 159.394 17.7321 159.66 18.2553C159.929 18.7785 160.062 19.3903 160.058 20.0905V26.0007H157.106V20.6701C157.11 20.1549 156.981 19.7525 156.72 19.4627C156.458 19.1729 156.09 19.028 155.615 19.028C155.305 19.028 155.031 19.0965 154.794 19.2333C154.561 19.3661 154.377 19.5573 154.245 19.8068C154.116 20.0563 154.049 20.3582 154.045 20.7123ZM166.229 26.1758C165.255 26.1758 164.418 25.9765 163.718 25.5781C163.022 25.1757 162.485 24.6162 162.106 23.8998C161.732 23.1794 161.545 22.3443 161.545 21.3945C161.545 20.4407 161.732 19.6056 162.106 18.8892C162.485 18.1688 163.022 17.6094 163.718 17.2109C164.418 16.8085 165.255 16.6072 166.229 16.6072C167.203 16.6072 168.038 16.8085 168.735 17.2109C169.435 17.6094 169.972 18.1688 170.347 18.8892C170.725 19.6056 170.914 20.4407 170.914 21.3945C170.914 22.3443 170.725 23.1794 170.347 23.8998C169.972 24.6162 169.435 25.1757 168.735 25.5781C168.038 25.9765 167.203 26.1758 166.229 26.1758ZM166.248 23.9481C166.602 23.9481 166.902 23.8395 167.147 23.6221C167.393 23.4048 167.58 23.103 167.708 22.7166C167.841 22.3302 167.908 21.8835 167.908 21.3764C167.908 20.8613 167.841 20.4105 167.708 20.0241C167.58 19.6378 167.393 19.3359 167.147 19.1186C166.902 18.9013 166.602 18.7926 166.248 18.7926C165.881 18.7926 165.571 18.9013 165.318 19.1186C165.068 19.3359 164.877 19.6378 164.744 20.0241C164.616 20.4105 164.551 20.8613 164.551 21.3764C164.551 21.8835 164.616 22.3302 164.744 22.7166C164.877 23.103 165.068 23.4048 165.318 23.6221C165.571 23.8395 165.881 23.9481 166.248 23.9481ZM175.378 20.7123V26.0007H172.426V16.728H175.234V18.4304H175.336C175.541 17.8629 175.892 17.4182 176.387 17.0962C176.882 16.7702 177.471 16.6072 178.155 16.6072C178.807 16.6072 179.373 16.7541 179.852 17.0479C180.335 17.3377 180.709 17.7442 180.975 18.2674C181.244 18.7866 181.377 19.3943 181.373 20.0905V26.0007H178.421V20.6701C178.425 20.1549 178.294 19.7525 178.029 19.4627C177.767 19.1729 177.403 19.028 176.936 19.028C176.626 19.028 176.352 19.0965 176.115 19.2333C175.881 19.3661 175.7 19.5573 175.572 19.8068C175.447 20.0563 175.382 20.3582 175.378 20.7123Z" fill="url(#paint3_linear_1_56)"/>
</g>
<defs>
<filter id="filter0_d_1_56" x="2.39972" y="0.39972" width="39.202" height="39.202" filterUnits="userSpaceOnUse" color-interpolation-filters="sRGB">
<feFlood flood-opacity="0" result="BackgroundImageFix"/>
<feColorMatrix in="SourceAlpha" type="matrix" values="0 0 0 0 0 0 0 0 0 0 0 0 0 0 0 0 0 0 127 0" result="hardAlpha"/>
<feOffset/>
<feGaussianBlur stdDeviation="2.80014"/>
<feComposite in2="hardAlpha" operator="out"/>
<feColorMatrix type="matrix" values="0 0 0 0 0 0 0 0 0 0 0 0 0 0 0 0 0 0 0.25 0"/>
<feBlend mode="normal" in2="BackgroundImageFix" result="effect1_dropShadow_1_56"/>
<feBlend mode="normal" in="SourceGraphic" in2="effect1_dropShadow_1_56" result="shape"/>
</filter>
<filter id="filter1_d_1_56" x="36.2871" y="3.78642" width="152.429" height="32.4286" filterUnits="userSpaceOnUse" color-interpolation-filters="sRGB">
<feFlood flood-opacity="0" result="BackgroundImageFix"/>
<feColorMatrix in="SourceAlpha" type="matrix" values="0 0 0 0 0 0 0 0 0 0 0 0 0 0 0 0 0 0 127 0" result="hardAlpha"/>
<feOffset/>
<feGaussianBlur stdDeviation="2.85714"/>
<feComposite in2="hardAlpha" operator="out"/>
<feColorMatrix type="matrix" values="0 0 0 0 0 0 0 0 0 0 0 0 0 0 0 0 0 0 0.25 0"/>
<feBlend mode="normal" in2="BackgroundImageFix" result="effect1_dropShadow_1_56"/>
<feBlend mode="normal" in="SourceGraphic" in2="effect1_dropShadow_1_56" result="shape"/>
</filter>
<linearGradient id="paint0_linear_1_56" x1="95.5007" y1="0" x2="95.5007" y2="40.0014" gradientUnits="userSpaceOnUse">
<stop stop-color="#152938"/>
<stop offset="1" stop-color="#443600"/>
</linearGradient>
<linearGradient id="paint1_linear_1_56" x1="8" y1="6" x2="23.4291" y2="19.293" gradientUnits="userSpaceOnUse">
<stop stop-color="#5A9FD4"/>
<stop offset="1" stop-color="#306998"/>
</linearGradient>
<linearGradient id="paint2_linear_1_56" x1="25.6146" y1="30.3026" x2="20.1085" y2="22.5017" gradientUnits="userSpaceOnUse">
<stop stop-color="#FFD43B"/>
<stop offset="1" stop-color="#FFE873"/>
</linearGradient>
<linearGradient id="paint3_linear_1_56" x1="123" y1="19.5" x2="181.5" y2="19.5" gradientUnits="userSpaceOnUse">
<stop offset="0.177083" stop-color="#3772A2"/>
<stop offset="1" stop-color="#FFD94A"/>
</linearGradient>
</defs>
</svg>
