<svg width="56" height="56" viewBox="0 0 56 56" fill="none" xmlns="http://www.w3.org/2000/svg">
<rect width="56" height="56" rx="8.4" fill="url(#paint0_linear_1_62)"/>
<rect x="1.05" y="1.05" width="53.9" height="53.9" rx="7.35" stroke="white" stroke-opacity="0.15" stroke-width="2.1"/>
<g filter="url(#filter0_d_1_62)">
<path d="M27.7618 8.00033C26.1125 8.00791 24.5373 8.14704 23.1514 8.3896C19.0686 9.10302 18.3273 10.5963 18.3273 13.3501V16.987H27.9755V18.1993H18.3273H14.7065C11.9025 18.1993 9.44719 19.8662 8.67921 23.0374C7.79335 26.6723 7.75406 28.9405 8.67921 32.7358C9.36503 35.561 11.0029 37.574 13.8069 37.574H17.1241V33.2141C17.1241 30.0644 19.8795 27.286 23.1514 27.286H32.7883C35.4709 27.286 37.6124 25.1014 37.6124 22.4368V13.3501C37.6124 10.7639 35.4066 8.82122 32.7883 8.3896C31.1309 8.11672 29.4112 7.99275 27.7618 8.00033ZM22.5442 10.9254C23.5408 10.9254 24.3546 11.7435 24.3546 12.7495C24.3546 13.7518 23.5408 14.5624 22.5442 14.5624C21.544 14.5624 20.7338 13.7518 20.7338 12.7495C20.7338 11.7435 21.544 10.9254 22.5442 10.9254Z" fill="url(#paint1_linear_1_62)"/>
<path d="M38.8156 18.1993V22.4368C38.8156 25.7221 35.9995 28.4872 32.7883 28.4872H23.1514C20.5117 28.4872 18.3273 30.7218 18.3273 33.3364V42.4232C18.3273 45.0093 20.601 46.5305 23.1514 47.2724C26.2055 48.1606 29.1341 48.3211 32.7883 47.2724C35.2173 46.5768 37.6124 45.177 37.6124 42.4232V38.7863H27.9755V37.5739H37.6124H42.4364C45.2405 37.5739 46.2853 35.6395 47.2605 32.7358C48.2678 29.7466 48.2249 26.872 47.2605 23.0374C46.5675 20.2765 45.244 18.1993 42.4364 18.1993H38.8156ZM33.3955 41.2109C34.3957 41.2109 35.206 42.0214 35.206 43.0238C35.206 44.0297 34.3957 44.8478 33.3955 44.8478C32.3989 44.8478 31.5851 44.0297 31.5851 43.0238C31.5851 42.0214 32.3989 41.2109 33.3955 41.2109Z" fill="url(#paint2_linear_1_62)"/>
</g>
<defs>
<filter id="filter0_d_1_62" x="2.28571" y="2.28571" width="51.4286" height="51.4286" filterUnits="userSpaceOnUse" color-interpolation-filters="sRGB">
<feFlood flood-opacity="0" result="BackgroundImageFix"/>
<feColorMatrix in="SourceAlpha" type="matrix" values="0 0 0 0 0 0 0 0 0 0 0 0 0 0 0 0 0 0 127 0" result="hardAlpha"/>
<feOffset/>
<feGaussianBlur stdDeviation="2.85714"/>
<feComposite in2="hardAlpha" operator="out"/>
<feColorMatrix type="matrix" values="0 0 0 0 0 0 0 0 0 0 0 0 0 0 0 0 0 0 0.25 0"/>
<feBlend mode="normal" in2="BackgroundImageFix" result="effect1_dropShadow_1_62"/>
<feBlend mode="normal" in="SourceGraphic" in2="effect1_dropShadow_1_62" result="shape"/>
</filter>
<linearGradient id="paint0_linear_1_62" x1="28" y1="0" x2="28" y2="56" gradientUnits="userSpaceOnUse">
<stop stop-color="#152938"/>
<stop offset="1" stop-color="#443600"/>
</linearGradient>
<linearGradient id="paint1_linear_1_62" x1="8" y1="8" x2="30.0416" y2="26.9899" gradientUnits="userSpaceOnUse">
<stop stop-color="#5A9FD4"/>
<stop offset="1" stop-color="#306998"/>
</linearGradient>
<linearGradient id="paint2_linear_1_62" x1="33.1637" y1="42.718" x2="25.2978" y2="31.5739" gradientUnits="userSpaceOnUse">
<stop stop-color="#FFD43B"/>
<stop offset="1" stop-color="#FFE873"/>
</linearGradient>
</defs>
</svg>
