<svg width="223" height="40" viewBox="0 0 223 40" fill="none" xmlns="http://www.w3.org/2000/svg">
<rect width="223.001" height="40.0014" rx="8" fill="url(#paint0_linear_1_56)"/>
<rect x="1.07143" y="1.07143" width="220.858" height="37.8585" rx="6.92857" stroke="white" stroke-opacity="0.15" stroke-width="2.14286"/>
<g filter="url(#filter0_d_1_56)">
<path d="M33.2687 9.0625H21.2297C21.2297 10.5038 21.8022 11.8862 22.8214 12.9053C23.8406 13.9245 25.2229 14.4971 26.6643 14.4971H28.882V16.6383C28.8839 19.637 31.3143 22.0675 34.3131 22.0695V10.1069C34.3131 9.53025 33.8456 9.0625 33.2687 9.0625Z" fill="#2684FF"/>
<path d="M27.3118 15.0611H15.2729C15.2748 18.0598 17.7052 20.4903 20.704 20.4923H22.9217V22.6404C22.9255 25.6391 25.3576 28.0679 28.3563 28.0679V16.1057C28.3563 15.5288 27.8886 15.0611 27.3118 15.0611Z" fill="url(#paint1_linear_1_56)"/>
<path d="M21.3515 21.0563H9.3125C9.3125 24.0577 11.7457 26.4908 14.7471 26.4908H16.9718V28.632C16.9737 31.628 19.3999 34.0574 22.396 34.0631V22.1007C22.396 21.5239 21.9283 21.0563 21.3515 21.0563Z" fill="url(#paint2_linear_1_56)"/>
</g>
<g filter="url(#filter1_d_1_56)">
<g filter="url(#filter2_d_1_56)">
<path d="M43.3597 26.5007V14.1371H47.7667C48.7245 14.1371 49.5194 14.3021 50.1513 14.6321C50.7871 14.9621 51.262 15.4189 51.576 16.0025C51.8899 16.582 52.0468 17.2521 52.0468 18.0128C52.0468 18.7694 51.8879 19.4355 51.5699 20.011C51.256 20.5825 50.7811 21.0272 50.1452 21.3452C49.5133 21.6631 48.7185 21.8221 47.7606 21.8221H44.4222V20.2163H47.5916C48.1953 20.2163 48.6863 20.1297 49.0646 19.9567C49.4469 19.7836 49.7267 19.5321 49.9037 19.202C50.0808 18.872 50.1694 18.4756 50.1694 18.0128C50.1694 17.5459 50.0788 17.1414 49.8977 16.7994C49.7206 16.4573 49.4409 16.1957 49.0586 16.0145C48.6803 15.8294 48.1832 15.7369 47.5674 15.7369H45.2251V26.5007H43.3597ZM49.463 20.9226L52.5177 26.5007H50.3927L47.3984 20.9226H49.463ZM58.0521 26.6878C57.1385 26.6878 56.3517 26.4926 55.6916 26.1023C55.0356 25.7078 54.5285 25.1545 54.1703 24.4421C53.8162 23.7257 53.6391 22.8866 53.6391 21.9247C53.6391 20.9749 53.8162 20.1378 54.1703 19.4133C54.5285 18.6889 55.0276 18.1234 55.6675 17.717C56.3114 17.3105 57.064 17.1072 57.9253 17.1072C58.4485 17.1072 58.9556 17.1938 59.4466 17.3668C59.9376 17.5399 60.3783 17.8115 60.7687 18.1818C61.1591 18.5521 61.467 19.033 61.6924 19.6246C61.9177 20.2122 62.0304 20.9266 62.0304 21.7677V22.4077H54.6593V21.0554H60.2616C60.2616 20.5805 60.165 20.1599 59.9718 19.7937C59.7786 19.4234 59.507 19.1316 59.1568 18.9183C58.8107 18.705 58.4042 18.5984 57.9374 18.5984C57.4303 18.5984 56.9876 18.7231 56.6093 18.9726C56.235 19.2181 55.9452 19.5401 55.7399 19.9386C55.5387 20.333 55.4381 20.7616 55.4381 21.2244V22.2809C55.4381 22.9007 55.5468 23.4279 55.7641 23.8626C55.9854 24.2972 56.2933 24.6292 56.6877 24.8587C57.0822 25.084 57.543 25.1967 58.0702 25.1967C58.4123 25.1967 58.7242 25.1484 59.0059 25.0518C59.2876 24.9512 59.5311 24.8023 59.7364 24.6051C59.9416 24.4079 60.0986 24.1644 60.2073 23.8746L61.9157 24.1825C61.7789 24.6856 61.5334 25.1263 61.1792 25.5046C60.8291 25.8789 60.3884 26.1707 59.8571 26.38C59.3299 26.5852 58.7282 26.6878 58.0521 26.6878ZM64.0332 29.978V17.228H65.796V18.7312H65.9469C66.0515 18.538 66.2024 18.3146 66.3996 18.0611C66.5969 17.8075 66.8705 17.5862 67.2207 17.397C67.5708 17.2038 68.0336 17.1072 68.6092 17.1072C69.3577 17.1072 70.0258 17.2964 70.6134 17.6747C71.201 18.053 71.6618 18.5984 71.9959 19.3107C72.334 20.0231 72.503 20.8803 72.503 21.8824C72.503 22.8846 72.336 23.7438 72.0019 24.4602C71.6679 25.1726 71.2091 25.7219 70.6255 26.1083C70.0419 26.4906 69.3759 26.6818 68.6273 26.6818C68.0638 26.6818 67.603 26.5872 67.2448 26.3981C66.8907 26.2089 66.613 25.9876 66.4117 25.734C66.2105 25.4805 66.0555 25.2551 65.9469 25.0579H65.8382V29.978H64.0332ZM65.802 21.8643C65.802 22.5163 65.8966 23.0878 66.0857 23.5788C66.2749 24.0698 66.5486 24.4542 66.9068 24.7319C67.2649 25.0056 67.7036 25.1424 68.2228 25.1424C68.7621 25.1424 69.2129 24.9995 69.5751 24.7138C69.9373 24.424 70.211 24.0316 70.3961 23.5366C70.5853 23.0415 70.6798 22.4841 70.6798 21.8643C70.6798 21.2526 70.5873 20.7032 70.4021 20.2163C70.221 19.7293 69.9474 19.3449 69.5811 19.0632C69.2189 18.7815 68.7661 18.6406 68.2228 18.6406C67.6996 18.6406 67.2569 18.7754 66.8947 19.0451C66.5365 19.3147 66.2648 19.691 66.0797 20.174C65.8946 20.6569 65.802 21.2204 65.802 21.8643ZM78.4313 26.6878C77.5619 26.6878 76.8033 26.4886 76.1553 26.0902C75.5074 25.6917 75.0043 25.1343 74.6461 24.418C74.2879 23.7016 74.1088 22.8645 74.1088 21.9066C74.1088 20.9447 74.2879 20.1036 74.6461 19.3832C75.0043 18.6627 75.5074 18.1033 76.1553 17.7049C76.8033 17.3065 77.5619 17.1072 78.4313 17.1072C79.3006 17.1072 80.0592 17.3065 80.7072 17.7049C81.3551 18.1033 81.8582 18.6627 82.2164 19.3832C82.5746 20.1036 82.7537 20.9447 82.7537 21.9066C82.7537 22.8645 82.5746 23.7016 82.2164 24.418C81.8582 25.1343 81.3551 25.6917 80.7072 26.0902C80.0592 26.4886 79.3006 26.6878 78.4313 26.6878ZM78.4373 25.1726C79.0007 25.1726 79.4676 25.0237 79.8379 24.7258C80.2081 24.428 80.4818 24.0316 80.6589 23.5366C80.84 23.0415 80.9305 22.4962 80.9305 21.9006C80.9305 21.3089 80.84 20.7656 80.6589 20.2706C80.4818 19.7715 80.2081 19.3711 79.8379 19.0692C79.4676 18.7674 79.0007 18.6165 78.4373 18.6165C77.8698 18.6165 77.3989 18.7674 77.0246 19.0692C76.6544 19.3711 76.3787 19.7715 76.1976 20.2706C76.0205 20.7656 75.932 21.3089 75.932 21.9006C75.932 22.4962 76.0205 23.0415 76.1976 23.5366C76.3787 24.0316 76.6544 24.428 77.0246 24.7258C77.3989 25.0237 77.8698 25.1726 78.4373 25.1726ZM84.7685 26.5007V17.228H86.5132V18.701H86.6098C86.7788 18.2019 87.0766 17.8095 87.5032 17.5238C87.9339 17.234 88.4209 17.0891 88.9642 17.0891C89.0769 17.0891 89.2097 17.0931 89.3626 17.1012C89.5196 17.1092 89.6423 17.1193 89.7309 17.1314V18.8579C89.6584 18.8378 89.5296 18.8157 89.3445 18.7915C89.1594 18.7634 88.9742 18.7493 88.7891 18.7493C88.3625 18.7493 87.9822 18.8398 87.6481 19.0209C87.3181 19.198 87.0565 19.4455 86.8633 19.7635C86.6702 20.0774 86.5736 20.4356 86.5736 20.8381V26.5007H84.7685ZM96.1693 17.228V18.6768H91.1043V17.228H96.1693ZM92.4626 15.0064H94.2676V23.778C94.2676 24.1282 94.3199 24.3918 94.4246 24.5689C94.5292 24.7419 94.6641 24.8607 94.8291 24.9251C94.9981 24.9854 95.1812 25.0156 95.3784 25.0156C95.5233 25.0156 95.6501 25.0056 95.7587 24.9854C95.8674 24.9653 95.9519 24.9492 96.0123 24.9371L96.3383 26.4283C96.2337 26.4685 96.0847 26.5087 95.8916 26.549C95.6984 26.5933 95.4569 26.6174 95.1671 26.6214C94.6922 26.6295 94.2495 26.545 93.839 26.3679C93.4285 26.1908 93.0965 25.9171 92.8429 25.5469C92.5894 25.1766 92.4626 24.7118 92.4626 24.1523V15.0064ZM102.665 26.5007V17.228H104.47V26.5007H102.665ZM103.577 15.7972C103.263 15.7972 102.993 15.6926 102.768 15.4833C102.546 15.27 102.436 15.0164 102.436 14.7226C102.436 14.4248 102.546 14.1713 102.768 13.962C102.993 13.7487 103.263 13.642 103.577 13.642C103.89 13.642 104.158 13.7487 104.379 13.962C104.605 14.1713 104.718 14.4248 104.718 14.7226C104.718 15.0164 104.605 15.27 104.379 15.4833C104.158 15.6926 103.89 15.7972 103.577 15.7972ZM113.847 19.4918L112.211 19.7816C112.142 19.5723 112.034 19.3731 111.885 19.1839C111.74 18.9948 111.543 18.8398 111.293 18.7191C111.044 18.5984 110.732 18.538 110.358 18.538C109.846 18.538 109.42 18.6527 109.078 18.8821C108.736 19.1075 108.565 19.3993 108.565 19.7574C108.565 20.0673 108.679 20.3169 108.909 20.506C109.138 20.6952 109.508 20.8501 110.019 20.9709L111.492 21.3089C112.346 21.5061 112.982 21.81 113.4 22.2205C113.819 22.631 114.028 23.1643 114.028 23.8203C114.028 24.3757 113.867 24.8707 113.545 25.3054C113.227 25.736 112.782 26.0741 112.211 26.3196C111.643 26.5651 110.985 26.6878 110.237 26.6878C109.198 26.6878 108.351 26.4665 107.695 26.0238C107.039 25.577 106.637 24.9432 106.488 24.1221L108.233 23.8565C108.341 24.3113 108.565 24.6554 108.903 24.8888C109.241 25.1182 109.681 25.2329 110.225 25.2329C110.816 25.2329 111.289 25.1102 111.643 24.8647C111.998 24.6152 112.175 24.3113 112.175 23.9531C112.175 23.6633 112.066 23.4199 111.849 23.2226C111.635 23.0254 111.307 22.8765 110.865 22.7759L109.295 22.4318C108.43 22.2346 107.79 21.9207 107.375 21.49C106.965 21.0594 106.76 20.5141 106.76 19.854C106.76 19.3067 106.912 18.8278 107.218 18.4172C107.524 18.0067 107.947 17.6868 108.486 17.4574C109.025 17.2239 109.643 17.1072 110.339 17.1072C111.342 17.1072 112.13 17.3246 112.706 17.7592C113.281 18.1899 113.662 18.7674 113.847 19.4918ZM122.961 19.4918L121.325 19.7816C121.257 19.5723 121.148 19.3731 120.999 19.1839C120.854 18.9948 120.657 18.8398 120.408 18.7191C120.158 18.5984 119.846 18.538 119.472 18.538C118.961 18.538 118.534 18.6527 118.192 18.8821C117.85 19.1075 117.679 19.3993 117.679 19.7574C117.679 20.0673 117.794 20.3169 118.023 20.506C118.252 20.6952 118.623 20.8501 119.134 20.9709L120.607 21.3089C121.46 21.5061 122.096 21.81 122.514 22.2205C122.933 22.631 123.142 23.1643 123.142 23.8203C123.142 24.3757 122.981 24.8707 122.659 25.3054C122.341 25.736 121.897 26.0741 121.325 26.3196C120.758 26.5651 120.1 26.6878 119.351 26.6878C118.313 26.6878 117.466 26.4665 116.81 26.0238C116.154 25.577 115.751 24.9432 115.602 24.1221L117.347 23.8565C117.455 24.3113 117.679 24.6554 118.017 24.8888C118.355 25.1182 118.796 25.2329 119.339 25.2329C119.931 25.2329 120.404 25.1102 120.758 24.8647C121.112 24.6152 121.289 24.3113 121.289 23.9531C121.289 23.6633 121.18 23.4199 120.963 23.2226C120.75 23.0254 120.422 22.8765 119.979 22.7759L118.409 22.4318C117.544 22.2346 116.904 21.9207 116.49 21.49C116.079 21.0594 115.874 20.5141 115.874 19.854C115.874 19.3067 116.027 18.8278 116.333 18.4172C116.638 18.0067 117.061 17.6868 117.6 17.4574C118.14 17.2239 118.757 17.1072 119.454 17.1072C120.456 17.1072 121.245 17.3246 121.82 17.7592C122.396 18.1899 122.776 18.7674 122.961 19.4918ZM131.001 22.6552V17.228H132.812V26.5007H131.037V24.8949H130.94C130.727 25.3899 130.385 25.8024 129.914 26.1324C129.447 26.4584 128.866 26.6214 128.17 26.6214C127.574 26.6214 127.047 26.4906 126.588 26.229C126.133 25.9634 125.775 25.571 125.513 25.0518C125.256 24.5327 125.127 23.8907 125.127 23.1261V17.228H126.932V22.9087C126.932 23.5406 127.107 24.0437 127.457 24.418C127.807 24.7922 128.262 24.9794 128.822 24.9794C129.16 24.9794 129.496 24.8949 129.83 24.7258C130.168 24.5568 130.447 24.3012 130.669 23.9591C130.894 23.6171 131.005 23.1824 131.001 22.6552ZM139.234 26.6878C138.32 26.6878 137.533 26.4926 136.873 26.1023C136.217 25.7078 135.71 25.1545 135.352 24.4421C134.998 23.7257 134.821 22.8866 134.821 21.9247C134.821 20.9749 134.998 20.1378 135.352 19.4133C135.71 18.6889 136.209 18.1234 136.849 17.717C137.493 17.3105 138.246 17.1072 139.107 17.1072C139.63 17.1072 140.137 17.1938 140.628 17.3668C141.119 17.5399 141.56 17.8115 141.95 18.1818C142.341 18.5521 142.649 19.033 142.874 19.6246C143.099 20.2122 143.212 20.9266 143.212 21.7677V22.4077H135.841V21.0554H141.443C141.443 20.5805 141.347 20.1599 141.153 19.7937C140.96 19.4234 140.689 19.1316 140.338 18.9183C139.992 18.705 139.586 18.5984 139.119 18.5984C138.612 18.5984 138.169 18.7231 137.791 18.9726C137.417 19.2181 137.127 19.5401 136.922 19.9386C136.72 20.333 136.62 20.7616 136.62 21.2244V22.2809C136.62 22.9007 136.728 23.4279 136.946 23.8626C137.167 24.2972 137.475 24.6292 137.869 24.8587C138.264 25.084 138.725 25.1967 139.252 25.1967C139.594 25.1967 139.906 25.1484 140.188 25.0518C140.469 24.9512 140.713 24.8023 140.918 24.6051C141.123 24.4079 141.28 24.1644 141.389 23.8746L143.097 24.1825C142.96 24.6856 142.715 25.1263 142.361 25.5046C142.011 25.8789 141.57 26.1707 141.039 26.38C140.512 26.5852 139.91 26.6878 139.234 26.6878ZM152.163 19.4918L150.527 19.7816C150.459 19.5723 150.35 19.3731 150.201 19.1839C150.056 18.9948 149.859 18.8398 149.61 18.7191C149.36 18.5984 149.048 18.538 148.674 18.538C148.163 18.538 147.736 18.6527 147.394 18.8821C147.052 19.1075 146.881 19.3993 146.881 19.7574C146.881 20.0673 146.996 20.3169 147.225 20.506C147.454 20.6952 147.825 20.8501 148.336 20.9709L149.809 21.3089C150.662 21.5061 151.298 21.81 151.717 22.2205C152.135 22.631 152.344 23.1643 152.344 23.8203C152.344 24.3757 152.183 24.8707 151.861 25.3054C151.544 25.736 151.099 26.0741 150.527 26.3196C149.96 26.5651 149.302 26.6878 148.553 26.6878C147.515 26.6878 146.668 26.4665 146.012 26.0238C145.356 25.577 144.953 24.9432 144.804 24.1221L146.549 23.8565C146.658 24.3113 146.881 24.6554 147.219 24.8888C147.557 25.1182 147.998 25.2329 148.541 25.2329C149.133 25.2329 149.606 25.1102 149.96 24.8647C150.314 24.6152 150.491 24.3113 150.491 23.9531C150.491 23.6633 150.382 23.4199 150.165 23.2226C149.952 23.0254 149.624 22.8765 149.181 22.7759L147.611 22.4318C146.746 22.2346 146.106 21.9207 145.692 21.49C145.281 21.0594 145.076 20.5141 145.076 19.854C145.076 19.3067 145.229 18.8278 145.535 18.4172C145.841 18.0067 146.263 17.6868 146.803 17.4574C147.342 17.2239 147.96 17.1072 148.656 17.1072C149.658 17.1072 150.447 17.3246 151.022 17.7592C151.598 18.1899 151.978 18.7674 152.163 19.4918ZM162.734 26.6878C161.865 26.6878 161.106 26.4886 160.458 26.0902C159.81 25.6917 159.307 25.1343 158.949 24.418C158.591 23.7016 158.412 22.8645 158.412 21.9066C158.412 20.9447 158.591 20.1036 158.949 19.3832C159.307 18.6627 159.81 18.1033 160.458 17.7049C161.106 17.3065 161.865 17.1072 162.734 17.1072C163.603 17.1072 164.362 17.3065 165.01 17.7049C165.658 18.1033 166.161 18.6627 166.519 19.3832C166.877 20.1036 167.056 20.9447 167.056 21.9066C167.056 22.8645 166.877 23.7016 166.519 24.418C166.161 25.1343 165.658 25.6917 165.01 26.0902C164.362 26.4886 163.603 26.6878 162.734 26.6878ZM162.74 25.1726C163.303 25.1726 163.77 25.0237 164.141 24.7258C164.511 24.428 164.785 24.0316 164.962 23.5366C165.143 23.0415 165.233 22.4962 165.233 21.9006C165.233 21.3089 165.143 20.7656 164.962 20.2706C164.785 19.7715 164.511 19.3711 164.141 19.0692C163.77 18.7674 163.303 18.6165 162.74 18.6165C162.173 18.6165 161.702 18.7674 161.327 19.0692C160.957 19.3711 160.681 19.7715 160.5 20.2706C160.323 20.7656 160.235 21.3089 160.235 21.9006C160.235 22.4962 160.323 23.0415 160.5 23.5366C160.681 24.0316 160.957 24.428 161.327 24.7258C161.702 25.0237 162.173 25.1726 162.74 25.1726ZM170.876 20.995V26.5007H169.071V17.228H170.804V18.7372H170.919C171.132 18.2462 171.466 17.8518 171.921 17.554C172.379 17.2561 172.957 17.1072 173.653 17.1072C174.285 17.1072 174.839 17.24 175.313 17.5057C175.788 17.7673 176.157 18.1577 176.418 18.6768C176.68 19.196 176.811 19.8379 176.811 20.6026V26.5007H175.006V20.8199C175.006 20.1478 174.83 19.6226 174.48 19.2443C174.13 18.862 173.649 18.6708 173.037 18.6708C172.619 18.6708 172.247 18.7614 171.921 18.9425C171.599 19.1236 171.343 19.3892 171.154 19.7393C170.969 20.0855 170.876 20.504 170.876 20.995Z" fill="#E8E8E8"/>
</g>
<path d="M188.96 14.1371H191.906V22.6854C191.902 23.4863 191.711 24.1865 191.332 24.7862C190.954 25.3819 190.431 25.8447 189.763 26.1747C189.099 26.5047 188.33 26.6697 187.457 26.6697C186.684 26.6697 185.982 26.5349 185.35 26.2653C184.722 25.9956 184.221 25.577 183.847 25.0096C183.476 24.4421 183.293 23.7157 183.297 22.8302H186.273C186.285 23.1482 186.346 23.4199 186.454 23.6452C186.567 23.8666 186.722 24.0336 186.919 24.1463C187.117 24.259 187.352 24.3153 187.626 24.3153C187.911 24.3153 188.153 24.255 188.35 24.1342C188.547 24.0095 188.696 23.8263 188.797 23.5849C188.901 23.3434 188.956 23.0435 188.96 22.6854V14.1371ZM193.782 26.5007V17.228H196.734V26.5007H193.782ZM195.261 16.1474C194.846 16.1474 194.49 16.0105 194.192 15.7369C193.894 15.4592 193.746 15.1251 193.746 14.7347C193.746 14.3484 193.894 14.0183 194.192 13.7447C194.49 13.467 194.846 13.3281 195.261 13.3281C195.679 13.3281 196.036 13.467 196.329 13.7447C196.627 14.0183 196.776 14.3484 196.776 14.7347C196.776 15.1251 196.627 15.4592 196.329 15.7369C196.036 16.0105 195.679 16.1474 195.261 16.1474ZM198.613 26.5007V17.228H201.48V18.9183H201.577C201.746 18.3066 202.022 17.8518 202.404 17.554C202.786 17.2521 203.231 17.1012 203.738 17.1012C203.875 17.1012 204.016 17.1113 204.161 17.1314C204.306 17.1475 204.441 17.1736 204.565 17.2099V19.7756C204.424 19.7273 204.239 19.689 204.01 19.6609C203.784 19.6327 203.583 19.6186 203.406 19.6186C203.056 19.6186 202.74 19.6971 202.458 19.854C202.181 20.007 201.961 20.2223 201.8 20.5C201.643 20.7737 201.565 21.0956 201.565 21.4659V26.5007H198.613ZM208.033 26.6577C207.442 26.6577 206.917 26.5591 206.458 26.3618C206.003 26.1606 205.643 25.8588 205.377 25.4563C205.116 25.0498 204.985 24.5407 204.985 23.929C204.985 23.4138 205.075 22.9792 205.257 22.625C205.438 22.2708 205.687 21.9831 206.005 21.7617C206.323 21.5404 206.689 21.3733 207.104 21.2606C207.518 21.1439 207.961 21.0654 208.432 21.0252C208.959 20.9769 209.384 20.9266 209.706 20.8743C210.028 20.8179 210.261 20.7395 210.406 20.6388C210.555 20.5342 210.629 20.3873 210.629 20.1981V20.168C210.629 19.8581 210.523 19.6186 210.309 19.4496C210.096 19.2805 209.808 19.196 209.446 19.196C209.056 19.196 208.742 19.2805 208.504 19.4496C208.267 19.6186 208.116 19.852 208.052 20.1498L205.329 20.0533C205.409 19.4898 205.617 18.9867 205.951 18.544C206.289 18.0973 206.752 17.7471 207.339 17.4936C207.931 17.236 208.641 17.1072 209.47 17.1072C210.062 17.1072 210.607 17.1777 211.106 17.3185C211.605 17.4554 212.04 17.6566 212.41 17.9222C212.781 18.1838 213.066 18.5058 213.268 18.8881C213.473 19.2705 213.575 19.7071 213.575 20.1981V26.5007H210.798V25.2088H210.726C210.561 25.5227 210.35 25.7883 210.092 26.0057C209.839 26.223 209.539 26.386 209.193 26.4947C208.85 26.6033 208.464 26.6577 208.033 26.6577ZM208.945 24.7258C209.263 24.7258 209.549 24.6614 209.802 24.5327C210.06 24.4039 210.265 24.2268 210.418 24.0014C210.571 23.772 210.647 23.5064 210.647 23.2045V22.3231C210.563 22.3674 210.46 22.4077 210.34 22.4439C210.223 22.4801 210.094 22.5143 209.953 22.5465C209.812 22.5787 209.667 22.6069 209.519 22.631C209.37 22.6552 209.227 22.6773 209.09 22.6974C208.812 22.7417 208.575 22.8101 208.378 22.9027C208.184 22.9953 208.036 23.116 207.931 23.2649C207.83 23.4098 207.78 23.5828 207.78 23.7841C207.78 24.0899 207.889 24.3234 208.106 24.4844C208.327 24.6453 208.607 24.7258 208.945 24.7258Z" fill="#EFEFEF"/>
</g>
<defs>
<filter id="filter0_d_1_56" x="2.39972" y="0.39972" width="39.202" height="39.2636" filterUnits="userSpaceOnUse" color-interpolation-filters="sRGB">
<feFlood flood-opacity="0" result="BackgroundImageFix"/>
<feColorMatrix in="SourceAlpha" type="matrix" values="0 0 0 0 0 0 0 0 0 0 0 0 0 0 0 0 0 0 127 0" result="hardAlpha"/>
<feOffset/>
<feGaussianBlur stdDeviation="2.80014"/>
<feComposite in2="hardAlpha" operator="out"/>
<feColorMatrix type="matrix" values="0 0 0 0 0 0 0 0 0 0 0 0 0 0 0 0 0 0 0.25 0"/>
<feBlend mode="normal" in2="BackgroundImageFix" result="effect1_dropShadow_1_56"/>
<feBlend mode="normal" in="SourceGraphic" in2="effect1_dropShadow_1_56" result="shape"/>
</filter>
<filter id="filter1_d_1_56" x="36.2871" y="3.78642" width="184.429" height="32.4286" filterUnits="userSpaceOnUse" color-interpolation-filters="sRGB">
<feFlood flood-opacity="0" result="BackgroundImageFix"/>
<feColorMatrix in="SourceAlpha" type="matrix" values="0 0 0 0 0 0 0 0 0 0 0 0 0 0 0 0 0 0 127 0" result="hardAlpha"/>
<feOffset/>
<feGaussianBlur stdDeviation="2.85714"/>
<feComposite in2="hardAlpha" operator="out"/>
<feColorMatrix type="matrix" values="0 0 0 0 0 0 0 0 0 0 0 0 0 0 0 0 0 0 0.25 0"/>
<feBlend mode="normal" in2="BackgroundImageFix" result="effect1_dropShadow_1_56"/>
<feBlend mode="normal" in="SourceGraphic" in2="effect1_dropShadow_1_56" result="shape"/>
</filter>
<filter id="filter2_d_1_56" x="39.3597" y="13.642" width="141.451" height="24.3359" filterUnits="userSpaceOnUse" color-interpolation-filters="sRGB">
<feFlood flood-opacity="0" result="BackgroundImageFix"/>
<feColorMatrix in="SourceAlpha" type="matrix" values="0 0 0 0 0 0 0 0 0 0 0 0 0 0 0 0 0 0 127 0" result="hardAlpha"/>
<feOffset dy="4"/>
<feGaussianBlur stdDeviation="2"/>
<feComposite in2="hardAlpha" operator="out"/>
<feColorMatrix type="matrix" values="0 0 0 0 0 0 0 0 0 0 0 0 0 0 0 0 0 0 0.25 0"/>
<feBlend mode="normal" in2="BackgroundImageFix" result="effect1_dropShadow_1_56"/>
<feBlend mode="normal" in="SourceGraphic" in2="effect1_dropShadow_1_56" result="shape"/>
</filter>
<linearGradient id="paint0_linear_1_56" x1="111.501" y1="0" x2="111.501" y2="40.0014" gradientUnits="userSpaceOnUse">
<stop stop-color="#003F92"/>
<stop offset="1" stop-color="#00132C"/>
</linearGradient>
<linearGradient id="paint1_linear_1_56" x1="3290" y1="21.0494" x2="1991.24" y2="1538.84" gradientUnits="userSpaceOnUse">
<stop offset="0.18" stop-color="#0052CC"/>
<stop offset="1" stop-color="#2684FF"/>
</linearGradient>
<linearGradient id="paint2_linear_1_56" x1="3372.05" y1="37.9795" x2="1869.72" y2="1693.42" gradientUnits="userSpaceOnUse">
<stop offset="0.18" stop-color="#0052CC"/>
<stop offset="1" stop-color="#2684FF"/>
</linearGradient>
</defs>
</svg>
