<svg width="173" height="40" viewBox="0 0 173 40" fill="none" xmlns="http://www.w3.org/2000/svg">
<rect width="173.001" height="40.0014" rx="8" fill="url(#paint0_linear_1_56)"/>
<rect x="1.07143" y="1.07143" width="170.859" height="37.8585" rx="6.92857" stroke="white" stroke-opacity="0.15" stroke-width="2.14286"/>
<g filter="url(#filter0_d_1_56)">
<path fill-rule="evenodd" clip-rule="evenodd" d="M29.6928 24.481L13.7066 34L34.4058 32.5915L36 11.6615L29.6928 24.481Z" fill="url(#paint1_linear_1_56)"/>
<path fill-rule="evenodd" clip-rule="evenodd" d="M34.4397 32.5772L32.6606 20.2636L27.8145 26.6804L34.4397 32.5772Z" fill="url(#paint2_linear_1_56)"/>
<path fill-rule="evenodd" clip-rule="evenodd" d="M34.4637 32.5772L21.4298 31.5512L13.7758 33.9732L34.4637 32.5772Z" fill="url(#paint3_linear_1_56)"/>
<path fill-rule="evenodd" clip-rule="evenodd" d="M13.7942 33.9759L17.0502 23.2793L9.88522 24.8156L13.7942 33.9759Z" fill="url(#paint4_linear_1_56)"/>
<path fill-rule="evenodd" clip-rule="evenodd" d="M27.8133 26.7159L24.8172 14.9479L16.2433 23.0072L27.8133 26.7159Z" fill="url(#paint5_linear_1_56)"/>
<path fill-rule="evenodd" clip-rule="evenodd" d="M35.3202 15.1137L27.2155 8.47575L24.9586 15.7925L35.3202 15.1137Z" fill="url(#paint6_linear_1_56)"/>
<path fill-rule="evenodd" clip-rule="evenodd" d="M31.53 6.10912L26.7632 8.75068L23.7559 6.07369L31.53 6.10912Z" fill="url(#paint7_linear_1_56)"/>
<path fill-rule="evenodd" clip-rule="evenodd" d="M8 28.4037L9.99687 24.7517L8.38157 20.4011L8 28.4037Z" fill="url(#paint8_linear_1_56)"/>
<path fill-rule="evenodd" clip-rule="evenodd" d="M8.27416 20.2636L9.89936 24.8863L16.9612 23.2976L25.0236 15.7838L27.2988 8.53669L23.7162 6L17.6253 8.28586C15.7063 10.0757 11.9824 13.6172 11.8482 13.6838C11.7153 13.7518 9.38919 18.1605 8.27416 20.2636Z" fill="white"/>
<path fill-rule="evenodd" clip-rule="evenodd" d="M13.9807 11.9591C18.1398 7.82387 23.5015 5.38071 25.5592 7.4625C27.6155 9.54429 25.4348 14.6035 21.2757 18.7373C17.1166 22.8711 11.8213 25.4489 9.7651 23.3671C7.70746 21.2868 9.82163 16.0929 13.9807 11.9591Z" fill="url(#paint9_linear_1_56)"/>
<path fill-rule="evenodd" clip-rule="evenodd" d="M13.7942 33.9717L17.0248 23.241L27.7539 26.6974C23.8746 30.3452 19.5601 33.4289 13.7942 33.9717Z" fill="url(#paint10_linear_1_56)"/>
<path fill-rule="evenodd" clip-rule="evenodd" d="M25.0377 15.7627L27.7921 26.7031C31.0325 23.2864 33.9409 19.6131 35.3653 15.0697L25.0377 15.7627Z" fill="url(#paint11_linear_1_56)"/>
<path fill-rule="evenodd" clip-rule="evenodd" d="M35.3372 15.125C36.4395 11.789 36.6939 7.00334 31.4959 6.11478L27.2309 8.47717L35.3372 15.125Z" fill="url(#paint12_linear_1_56)"/>
<path fill-rule="evenodd" clip-rule="evenodd" d="M8 28.3555C8.15263 33.8613 12.1139 33.9433 13.8012 33.9916L9.9036 24.8636L8 28.3555Z" fill="#9E1209"/>
<path fill-rule="evenodd" clip-rule="evenodd" d="M25.0531 15.7797C27.5432 17.3145 32.5617 20.3968 32.6634 20.4535C32.8215 20.5428 34.827 17.0622 35.2821 15.0952L25.0531 15.7797Z" fill="url(#paint13_radial_1_56)"/>
<path fill-rule="evenodd" clip-rule="evenodd" d="M17.0205 23.241L21.3393 31.5965C23.893 30.2077 25.8927 28.5156 27.7242 26.7031L17.0205 23.241Z" fill="url(#paint14_radial_1_56)"/>
<path fill-rule="evenodd" clip-rule="evenodd" d="M9.88664 24.875L9.27472 32.1818C10.4293 33.7633 12.0178 33.9008 13.6839 33.7775C12.4785 30.7689 10.0704 24.7531 9.88664 24.875Z" fill="url(#paint15_linear_1_56)"/>
<path fill-rule="evenodd" clip-rule="evenodd" d="M27.2056 8.4956L35.7852 9.70301C35.3273 7.75727 33.9212 6.50167 31.5244 6.10912L27.2056 8.4956Z" fill="url(#paint16_linear_1_56)"/>
</g>
<g filter="url(#filter1_d_1_56)">
<path d="M43.3597 26.5007V14.1371H47.8874C48.7648 14.1371 49.4912 14.282 50.0667 14.5717C50.6423 14.8575 51.0729 15.2458 51.3586 15.7369C51.6444 16.2238 51.7873 16.7732 51.7873 17.3849C51.7873 17.9001 51.6927 18.3347 51.5035 18.6889C51.3144 19.0391 51.0608 19.3208 50.7429 19.5341C50.429 19.7434 50.0828 19.8963 49.7045 19.9929V20.1136C50.115 20.1337 50.5155 20.2666 50.9059 20.5121C51.3003 20.7535 51.6263 21.0976 51.8839 21.5444C52.1414 21.9911 52.2702 22.5344 52.2702 23.1743C52.2702 23.8062 52.1213 24.3737 51.8235 24.8768C51.5297 25.3758 51.0749 25.7722 50.4591 26.066C49.8434 26.3558 49.0566 26.5007 48.0987 26.5007H43.3597ZM45.2251 24.9009H47.9176C48.8111 24.9009 49.451 24.7279 49.8373 24.3817C50.2237 24.0356 50.4169 23.603 50.4169 23.0838C50.4169 22.6934 50.3183 22.3352 50.1211 22.0092C49.9239 21.6832 49.6421 21.4236 49.2759 21.2305C48.9137 21.0373 48.483 20.9407 47.984 20.9407H45.2251V24.9009ZM45.2251 19.4858H47.7244C48.143 19.4858 48.5193 19.4053 48.8533 19.2443C49.1914 19.0833 49.459 18.8579 49.6562 18.5682C49.8575 18.2744 49.9581 17.9283 49.9581 17.5298C49.9581 17.0187 49.779 16.5901 49.4208 16.244C49.0626 15.8978 48.5132 15.7248 47.7727 15.7248H45.2251V19.4858ZM60.2118 22.6552V17.228H62.0229V26.5007H60.248V24.8949H60.1514C59.9381 25.3899 59.596 25.8024 59.1251 26.1324C58.6583 26.4584 58.0767 26.6214 57.3805 26.6214C56.7848 26.6214 56.2576 26.4906 55.7988 26.229C55.344 25.9634 54.9858 25.571 54.7242 25.0518C54.4667 24.5327 54.3379 23.8907 54.3379 23.1261V17.228H56.1429V22.9087C56.1429 23.5406 56.318 24.0437 56.6681 24.418C57.0183 24.7922 57.473 24.9794 58.0325 24.9794C58.3705 24.9794 58.7066 24.8949 59.0406 24.7258C59.3787 24.5568 59.6584 24.3012 59.8798 23.9591C60.1051 23.6171 60.2158 23.1824 60.2118 22.6552ZM64.4482 26.5007V17.228H66.2533V26.5007H64.4482ZM65.3598 15.7972C65.0459 15.7972 64.7762 15.6926 64.5508 15.4833C64.3295 15.27 64.2188 15.0164 64.2188 14.7226C64.2188 14.4248 64.3295 14.1713 64.5508 13.962C64.7762 13.7487 65.0459 13.642 65.3598 13.642C65.6737 13.642 65.9413 13.7487 66.1627 13.962C66.3881 14.1713 66.5008 14.4248 66.5008 14.7226C66.5008 15.0164 66.3881 15.27 66.1627 15.4833C65.9413 15.6926 65.6737 15.7972 65.3598 15.7972ZM70.4867 14.1371V26.5007H68.6816V14.1371H70.4867ZM77.2435 17.228V18.6768H72.1785V17.228H77.2435ZM73.5368 15.0064H75.3419V23.778C75.3419 24.1282 75.3942 24.3918 75.4988 24.5689C75.6035 24.7419 75.7383 24.8607 75.9033 24.9251C76.0723 24.9854 76.2554 25.0156 76.4526 25.0156C76.5975 25.0156 76.7243 25.0056 76.833 24.9854C76.9416 24.9653 77.0262 24.9492 77.0865 24.9371L77.4125 26.4283C77.3079 26.4685 77.159 26.5087 76.9658 26.549C76.7726 26.5933 76.5311 26.6174 76.2414 26.6214C75.7664 26.6295 75.3237 26.545 74.9132 26.3679C74.5027 26.1908 74.1707 25.9171 73.9171 25.5469C73.6636 25.1766 73.5368 24.7118 73.5368 24.1523V15.0064ZM85.7495 26.5007L83.0208 17.228H84.8862L86.7034 24.0376H86.7939L88.6171 17.228H90.4825L92.2936 24.0074H92.3841L94.1891 17.228H96.0546L93.3319 26.5007H91.4906L89.6071 19.8057H89.4683L87.5847 26.5007H85.7495ZM97.7675 26.5007V17.228H99.5726V26.5007H97.7675ZM98.6791 15.7972C98.3652 15.7972 98.0955 15.6926 97.8702 15.4833C97.6488 15.27 97.5381 15.0164 97.5381 14.7226C97.5381 14.4248 97.6488 14.1713 97.8702 13.962C98.0955 13.7487 98.3652 13.642 98.6791 13.642C98.993 13.642 99.2607 13.7487 99.482 13.962C99.7074 14.1713 99.8201 14.4248 99.8201 14.7226C99.8201 15.0164 99.7074 15.27 99.482 15.4833C99.2607 15.6926 98.993 15.7972 98.6791 15.7972ZM106.329 17.228V18.6768H101.264V17.228H106.329ZM102.623 15.0064H104.428V23.778C104.428 24.1282 104.48 24.3918 104.585 24.5689C104.689 24.7419 104.824 24.8607 104.989 24.9251C105.158 24.9854 105.341 25.0156 105.539 25.0156C105.683 25.0156 105.81 25.0056 105.919 24.9854C106.028 24.9653 106.112 24.9492 106.172 24.9371L106.498 26.4283C106.394 26.4685 106.245 26.5087 106.052 26.549C105.859 26.5933 105.617 26.6174 105.327 26.6214C104.852 26.6295 104.41 26.545 103.999 26.3679C103.589 26.1908 103.257 25.9171 103.003 25.5469C102.75 25.1766 102.623 24.7118 102.623 24.1523V15.0064ZM110.33 20.995V26.5007H108.525V14.1371H110.306V18.7372H110.421C110.638 18.2382 110.97 17.8417 111.417 17.5479C111.864 17.2541 112.447 17.1072 113.168 17.1072C113.804 17.1072 114.359 17.238 114.834 17.4996C115.313 17.7612 115.683 18.1516 115.945 18.6708C116.21 19.1859 116.343 19.8299 116.343 20.6026V26.5007H114.538V20.8199C114.538 20.1398 114.363 19.6126 114.013 19.2383C113.663 18.86 113.176 18.6708 112.552 18.6708C112.125 18.6708 111.743 18.7614 111.405 18.9425C111.071 19.1236 110.807 19.3892 110.614 19.7393C110.425 20.0855 110.33 20.504 110.33 20.995Z" fill="#E8E8E8"/>
<path d="M122.937 26.0007V13.6371H128.044C128.97 13.6371 129.769 13.8041 130.441 14.1381C131.117 14.4681 131.638 14.9431 132.005 15.5628C132.371 16.1786 132.554 16.9091 132.554 17.7543C132.554 18.6115 132.367 19.34 131.992 19.9396C131.618 20.5353 131.087 20.99 130.399 21.304C129.711 21.6139 128.896 21.7688 127.954 21.7688H124.724V19.4144H127.398C127.849 19.4144 128.225 19.356 128.527 19.2393C128.833 19.1186 129.065 18.9375 129.222 18.696C129.379 18.4505 129.457 18.1366 129.457 17.7543C129.457 17.3719 129.379 17.056 129.222 16.8065C129.065 16.5529 128.833 16.3637 128.527 16.239C128.221 16.1102 127.845 16.0458 127.398 16.0458H125.925V26.0007H122.937ZM129.898 20.3501L132.977 26.0007H129.717L126.698 20.3501H129.898ZM140.176 21.9982V16.728H143.122V26.0007H140.308V24.2741H140.212C140.007 24.8416 139.656 25.2924 139.161 25.6264C138.67 25.9564 138.077 26.1214 137.38 26.1214C136.749 26.1214 136.193 25.9765 135.714 25.6868C135.235 25.397 134.863 24.9925 134.597 24.4734C134.332 23.9502 134.197 23.3384 134.193 22.6381V16.728H137.145V22.0586C137.149 22.5617 137.282 22.9581 137.543 23.2479C137.805 23.5376 138.161 23.6825 138.612 23.6825C138.906 23.6825 139.169 23.6181 139.403 23.4893C139.64 23.3565 139.827 23.1654 139.964 22.9158C140.105 22.6623 140.176 22.3564 140.176 21.9982ZM145.001 26.0007V13.6371H147.953V18.3157H148.013C148.134 18.034 148.305 17.7623 148.526 17.5007C148.752 17.2391 149.037 17.0258 149.383 16.8608C149.734 16.6918 150.152 16.6072 150.639 16.6072C151.283 16.6072 151.885 16.7763 152.444 17.1143C153.008 17.4524 153.462 17.9736 153.808 18.6779C154.155 19.3822 154.328 20.2797 154.328 21.3704C154.328 22.4208 154.161 23.3002 153.827 24.0085C153.497 24.7168 153.05 25.2481 152.486 25.6023C151.927 25.9564 151.305 26.1335 150.621 26.1335C150.154 26.1335 149.75 26.057 149.408 25.9041C149.065 25.7512 148.778 25.5499 148.544 25.3004C148.315 25.0509 148.138 24.7832 148.013 24.4975H147.922V26.0007H145.001ZM147.892 21.3643C147.892 21.8634 147.959 22.298 148.091 22.6683C148.228 23.0386 148.424 23.3263 148.677 23.5316C148.935 23.7328 149.243 23.8334 149.601 23.8334C149.963 23.8334 150.271 23.7328 150.524 23.5316C150.778 23.3263 150.969 23.0386 151.098 22.6683C151.231 22.298 151.297 21.8634 151.297 21.3643C151.297 20.8653 151.231 20.4326 151.098 20.0664C150.969 19.7002 150.778 19.4164 150.524 19.2152C150.275 19.014 149.967 18.9133 149.601 18.9133C149.238 18.9133 148.931 19.0119 148.677 19.2092C148.424 19.4064 148.228 19.6881 148.091 20.0543C147.959 20.4206 147.892 20.8572 147.892 21.3643ZM157.381 29.478C157.027 29.478 156.693 29.4498 156.379 29.3935C156.065 29.3411 155.795 29.2707 155.57 29.1822L156.222 27.039C156.511 27.1356 156.773 27.192 157.007 27.2081C157.244 27.2242 157.447 27.1859 157.616 27.0934C157.789 27.0048 157.922 26.8459 158.015 26.6165L158.129 26.3388L154.833 16.728H157.924L159.633 23.3444H159.729L161.462 16.728H164.571L161.075 26.8881C160.906 27.3952 160.667 27.842 160.357 28.2283C160.051 28.6187 159.655 28.9246 159.168 29.1459C158.685 29.3673 158.089 29.478 157.381 29.478Z" fill="#CC342D"/>
</g>
<defs>
<filter id="filter0_d_1_56" x="2.39972" y="0.39972" width="39.202" height="39.202" filterUnits="userSpaceOnUse" color-interpolation-filters="sRGB">
<feFlood flood-opacity="0" result="BackgroundImageFix"/>
<feColorMatrix in="SourceAlpha" type="matrix" values="0 0 0 0 0 0 0 0 0 0 0 0 0 0 0 0 0 0 127 0" result="hardAlpha"/>
<feOffset/>
<feGaussianBlur stdDeviation="2.80014"/>
<feComposite in2="hardAlpha" operator="out"/>
<feColorMatrix type="matrix" values="0 0 0 0 0 0 0 0 0 0 0 0 0 0 0 0 0 0 0.25 0"/>
<feBlend mode="normal" in2="BackgroundImageFix" result="effect1_dropShadow_1_56"/>
<feBlend mode="normal" in="SourceGraphic" in2="effect1_dropShadow_1_56" result="shape"/>
</filter>
<filter id="filter1_d_1_56" x="36.2871" y="3.78642" width="134.429" height="32.4286" filterUnits="userSpaceOnUse" color-interpolation-filters="sRGB">
<feFlood flood-opacity="0" result="BackgroundImageFix"/>
<feColorMatrix in="SourceAlpha" type="matrix" values="0 0 0 0 0 0 0 0 0 0 0 0 0 0 0 0 0 0 127 0" result="hardAlpha"/>
<feOffset/>
<feGaussianBlur stdDeviation="2.85714"/>
<feComposite in2="hardAlpha" operator="out"/>
<feColorMatrix type="matrix" values="0 0 0 0 0 0 0 0 0 0 0 0 0 0 0 0 0 0 0.25 0"/>
<feBlend mode="normal" in2="BackgroundImageFix" result="effect1_dropShadow_1_56"/>
<feBlend mode="normal" in="SourceGraphic" in2="effect1_dropShadow_1_56" result="shape"/>
</filter>
<linearGradient id="paint0_linear_1_56" x1="86.5007" y1="0" x2="86.5007" y2="40.0014" gradientUnits="userSpaceOnUse">
<stop stop-color="#8F0C03"/>
<stop offset="1" stop-color="#2D0400"/>
</linearGradient>
<linearGradient id="paint1_linear_1_56" x1="32.6003" y1="36.5464" x2="26.6686" y2="26.1027" gradientUnits="userSpaceOnUse">
<stop stop-color="#FB7655"/>
<stop offset="0.41" stop-color="#E42B1E"/>
<stop offset="0.99" stop-color="#990000"/>
<stop offset="1" stop-color="#990000"/>
</linearGradient>
<linearGradient id="paint2_linear_1_56" x1="35.5428" y1="27.7614" x2="27.9171" y2="22.6583" gradientUnits="userSpaceOnUse">
<stop stop-color="#871101"/>
<stop offset="0.99" stop-color="#911209"/>
<stop offset="1" stop-color="#911209"/>
</linearGradient>
<linearGradient id="paint3_linear_1_56" x1="29.4519" y1="36.8634" x2="21.8264" y2="31.7604" gradientUnits="userSpaceOnUse">
<stop stop-color="#871101"/>
<stop offset="0.99" stop-color="#911209"/>
<stop offset="1" stop-color="#911209"/>
</linearGradient>
<linearGradient id="paint4_linear_1_56" x1="13.4686" y1="24.0531" x2="14.6552" y2="31.7431" gradientUnits="userSpaceOnUse">
<stop stop-color="white"/>
<stop offset="0.23" stop-color="#E57252"/>
<stop offset="0.46" stop-color="#DE3B20"/>
<stop offset="0.99" stop-color="#A60003"/>
<stop offset="1" stop-color="#A60003"/>
</linearGradient>
<linearGradient id="paint5_linear_1_56" x1="21.5856" y1="16.8717" x2="22.0228" y2="24.7207" gradientUnits="userSpaceOnUse">
<stop stop-color="white"/>
<stop offset="0.23" stop-color="#E4714E"/>
<stop offset="0.56" stop-color="#BE1A0D"/>
<stop offset="0.99" stop-color="#A80D00"/>
<stop offset="1" stop-color="#A80D00"/>
</linearGradient>
<linearGradient id="paint6_linear_1_56" x1="28.7888" y1="9.6167" x2="30.0974" y2="15.2405" gradientUnits="userSpaceOnUse">
<stop stop-color="white"/>
<stop offset="0.18" stop-color="#E46342"/>
<stop offset="0.4" stop-color="#C82410"/>
<stop offset="0.99" stop-color="#A80D00"/>
<stop offset="1" stop-color="#A80D00"/>
</linearGradient>
<linearGradient id="paint7_linear_1_56" x1="24.8139" y1="7.6356" x2="30.4295" y2="4.83558" gradientUnits="userSpaceOnUse">
<stop stop-color="white"/>
<stop offset="0.54" stop-color="#C81F11"/>
<stop offset="0.99" stop-color="#BF0905"/>
<stop offset="1" stop-color="#BF0905"/>
</linearGradient>
<linearGradient id="paint8_linear_1_56" x1="8.55162" y1="22.0924" x2="9.01585" y2="26.7273" gradientUnits="userSpaceOnUse">
<stop stop-color="white"/>
<stop offset="0.31" stop-color="#DE4024"/>
<stop offset="0.99" stop-color="#BF190B"/>
<stop offset="1" stop-color="#BF190B"/>
</linearGradient>
<linearGradient id="paint9_linear_1_56" x1="5.37768" y1="27.9806" x2="27.1425" y2="5.66237" gradientUnits="userSpaceOnUse">
<stop stop-color="#BD0012"/>
<stop offset="0.07" stop-color="white"/>
<stop offset="0.17" stop-color="white"/>
<stop offset="0.27" stop-color="#C82F1C"/>
<stop offset="0.33" stop-color="#820C01"/>
<stop offset="0.46" stop-color="#A31601"/>
<stop offset="0.72" stop-color="#B31301"/>
<stop offset="0.99" stop-color="#E82609"/>
<stop offset="1" stop-color="#E82609"/>
</linearGradient>
<linearGradient id="paint10_linear_1_56" x1="22.0014" y1="30.2379" x2="15.4622" y2="28.6285" gradientUnits="userSpaceOnUse">
<stop stop-color="#8C0C01"/>
<stop offset="0.54" stop-color="#990C00"/>
<stop offset="0.99" stop-color="#A80D0E"/>
<stop offset="1" stop-color="#A80D0E"/>
</linearGradient>
<linearGradient id="paint11_linear_1_56" x1="33.2295" y1="22.3701" x2="27.4078" y2="17.1668" gradientUnits="userSpaceOnUse">
<stop stop-color="#7E110B"/>
<stop offset="0.99" stop-color="#9E0C00"/>
<stop offset="1" stop-color="#9E0C00"/>
</linearGradient>
<linearGradient id="paint12_linear_1_56" x1="35.3631" y1="12.7934" x2="32.4618" y2="9.70025" gradientUnits="userSpaceOnUse">
<stop stop-color="#79130D"/>
<stop offset="0.99" stop-color="#9E120B"/>
<stop offset="1" stop-color="#9E120B"/>
</linearGradient>
<radialGradient id="paint13_radial_1_56" cx="0" cy="0" r="1" gradientUnits="userSpaceOnUse" gradientTransform="translate(28.3265 17.2505) scale(7.1166 7.13641)">
<stop stop-color="#A80D00"/>
<stop offset="0.99" stop-color="#7E0E08"/>
<stop offset="1" stop-color="#7E0E08"/>
</radialGradient>
<radialGradient id="paint14_radial_1_56" cx="0" cy="0" r="1" gradientUnits="userSpaceOnUse" gradientTransform="translate(18.4708 26.6551) scale(9.46057 9.48691)">
<stop stop-color="#A30C00"/>
<stop offset="0.99" stop-color="#800E08"/>
<stop offset="1" stop-color="#800E08"/>
</radialGradient>
<linearGradient id="paint15_linear_1_56" x1="11.769" y1="33.9654" x2="9.39953" y2="25.9488" gradientUnits="userSpaceOnUse">
<stop stop-color="#8B2114"/>
<stop offset="0.43" stop-color="#9E100A"/>
<stop offset="0.99" stop-color="#B3100C"/>
<stop offset="1" stop-color="#B3100C"/>
</linearGradient>
<linearGradient id="paint16_linear_1_56" x1="29.8541" y1="7.38851" x2="35.144" y2="9.71707" gradientUnits="userSpaceOnUse">
<stop stop-color="#B31000"/>
<stop offset="0.44" stop-color="#910F08"/>
<stop offset="0.99" stop-color="#791C12"/>
<stop offset="1" stop-color="#791C12"/>
</linearGradient>
</defs>
</svg>
