<svg width="144" height="56" viewBox="0 0 144 56" fill="none" xmlns="http://www.w3.org/2000/svg">
<rect width="144" height="56" rx="8" fill="url(#paint0_linear_1_50)"/>
<rect x="1.05" y="1.05" width="141.9" height="53.9" rx="6.95" stroke="white" stroke-opacity="0.15" stroke-width="2.1"/>
<g filter="url(#filter0_d_1_50)">
<path fill-rule="evenodd" clip-rule="evenodd" d="M42.9897 34.4015L20.1522 48L49.7225 45.9879L52 16.0879L42.9897 34.4015Z" fill="url(#paint1_linear_1_50)"/>
<path fill-rule="evenodd" clip-rule="evenodd" d="M49.771 45.9674L47.2294 28.3766L40.3065 37.5435L49.771 45.9674Z" fill="url(#paint2_linear_1_50)"/>
<path fill-rule="evenodd" clip-rule="evenodd" d="M49.8053 45.9674L31.1854 44.5017L20.2511 47.9617L49.8053 45.9674Z" fill="url(#paint3_linear_1_50)"/>
<path fill-rule="evenodd" clip-rule="evenodd" d="M20.2774 47.9656L24.9289 32.6847L14.6932 34.8794L20.2774 47.9656Z" fill="url(#paint4_linear_1_50)"/>
<path fill-rule="evenodd" clip-rule="evenodd" d="M40.3046 37.5941L36.0246 20.7827L23.7761 32.296L40.3046 37.5941Z" fill="url(#paint5_linear_1_50)"/>
<path fill-rule="evenodd" clip-rule="evenodd" d="M51.0289 21.0195L39.4507 11.5368L36.2265 21.9893L51.0289 21.0195Z" fill="url(#paint6_linear_1_50)"/>
<path fill-rule="evenodd" clip-rule="evenodd" d="M45.6143 8.15588L38.8046 11.9295L34.5084 8.10527L45.6143 8.15588Z" fill="url(#paint7_linear_1_50)"/>
<path fill-rule="evenodd" clip-rule="evenodd" d="M12 40.0053L14.8527 34.7881L12.5451 28.5729L12 40.0053Z" fill="url(#paint8_linear_1_50)"/>
<path fill-rule="evenodd" clip-rule="evenodd" d="M12.3917 28.3766L14.7134 34.9805L24.8017 32.7108L36.3194 21.9769L39.5698 11.6238L34.4517 8L25.7504 11.2655C23.0089 13.8225 17.6892 18.8817 17.4974 18.9768C17.3076 19.074 13.9846 25.3722 12.3917 28.3766Z" fill="white"/>
<path fill-rule="evenodd" clip-rule="evenodd" d="M20.5439 16.513C26.4854 10.6055 34.1451 7.1153 37.0845 10.0893C40.0222 13.0633 36.9069 20.2907 30.9653 26.1962C25.0238 32.1016 17.459 35.7842 14.5216 32.8102C11.5821 29.8382 14.6023 22.4185 20.5439 16.513Z" fill="url(#paint9_linear_1_50)"/>
<path fill-rule="evenodd" clip-rule="evenodd" d="M20.2774 47.9595L24.8925 32.63L40.2199 37.5678C34.678 42.7788 28.5144 47.1841 20.2774 47.9595Z" fill="url(#paint10_linear_1_50)"/>
<path fill-rule="evenodd" clip-rule="evenodd" d="M36.3396 21.9468L40.2744 37.5759C44.9036 32.6948 49.0585 27.4473 51.0933 20.9568L36.3396 21.9468Z" fill="url(#paint11_linear_1_50)"/>
<path fill-rule="evenodd" clip-rule="evenodd" d="M51.0531 21.0357C52.6279 16.2701 52.9913 9.43334 45.5656 8.16398L39.4727 11.5388L51.0531 21.0357Z" fill="url(#paint12_linear_1_50)"/>
<path fill-rule="evenodd" clip-rule="evenodd" d="M12 39.9364C12.218 47.8018 17.8769 47.919 20.2875 47.9881L14.7194 34.9481L12 39.9364Z" fill="#9E1209"/>
<path fill-rule="evenodd" clip-rule="evenodd" d="M36.3616 21.971C39.9188 24.1636 47.0881 28.5669 47.2334 28.6478C47.4593 28.7754 50.3243 23.8032 50.9744 20.9932L36.3616 21.971Z" fill="url(#paint13_radial_1_50)"/>
<path fill-rule="evenodd" clip-rule="evenodd" d="M24.8865 32.63L31.0562 44.5665C34.7043 42.5824 37.561 40.1652 40.1775 37.5759L24.8865 32.63Z" fill="url(#paint14_radial_1_50)"/>
<path fill-rule="evenodd" clip-rule="evenodd" d="M14.6952 34.9643L13.821 45.4026C15.4705 47.6619 17.7397 47.8583 20.1199 47.6821C18.3978 43.3841 14.9577 34.7902 14.6952 34.9643Z" fill="url(#paint15_linear_1_50)"/>
<path fill-rule="evenodd" clip-rule="evenodd" d="M39.4365 11.5651L51.6931 13.29C51.039 10.5104 49.0302 8.71668 45.6062 8.15589L39.4365 11.5651Z" fill="url(#paint16_linear_1_50)"/>
</g>
<g filter="url(#filter1_d_1_50)">
<path d="M61.2784 24.5V12.8636H65.5398C66.3655 12.8636 67.0492 13 67.5909 13.2727C68.1326 13.5417 68.5379 13.9072 68.8068 14.3693C69.0757 14.8276 69.2102 15.3447 69.2102 15.9204C69.2102 16.4053 69.1212 16.8144 68.9432 17.1477C68.7651 17.4773 68.5265 17.7424 68.2273 17.9432C67.9318 18.1401 67.606 18.2841 67.25 18.375V18.4886C67.6363 18.5076 68.0132 18.6326 68.3807 18.8636C68.7519 19.0909 69.0587 19.4148 69.3011 19.8352C69.5435 20.2557 69.6648 20.767 69.6648 21.3693C69.6648 21.964 69.5246 22.4981 69.2443 22.9716C68.9678 23.4413 68.5398 23.8144 67.9602 24.0909C67.3807 24.3636 66.6401 24.5 65.7386 24.5H61.2784ZM63.0341 22.9943H65.5682C66.4091 22.9943 67.0113 22.8314 67.375 22.5057C67.7386 22.1799 67.9204 21.7727 67.9204 21.2841C67.9204 20.9167 67.8276 20.5795 67.642 20.2727C67.4564 19.9659 67.1913 19.7216 66.8466 19.5398C66.5057 19.3579 66.1004 19.267 65.6307 19.267H63.0341V22.9943ZM63.0341 17.8977H65.3863C65.7803 17.8977 66.1345 17.822 66.4488 17.6704C66.767 17.5189 67.0189 17.3068 67.2045 17.0341C67.3939 16.7576 67.4886 16.4318 67.4886 16.0568C67.4886 15.5758 67.3201 15.1723 66.9829 14.8466C66.6458 14.5208 66.1288 14.3579 65.4318 14.3579H63.0341V17.8977ZM77.1392 20.8807V15.7727H78.8437V24.5H77.1733V22.9886H77.0824C76.8816 23.4545 76.5596 23.8428 76.1165 24.1534C75.6771 24.4602 75.1297 24.6136 74.4744 24.6136C73.9138 24.6136 73.4176 24.4905 72.9858 24.2443C72.5577 23.9943 72.2206 23.625 71.9744 23.1364C71.732 22.6477 71.6108 22.0436 71.6108 21.3239V15.7727H73.3096V21.1193C73.3096 21.714 73.4744 22.1875 73.804 22.5398C74.1335 22.892 74.5615 23.0682 75.088 23.0682C75.4062 23.0682 75.7225 22.9886 76.0369 22.8295C76.3551 22.6704 76.6184 22.4299 76.8267 22.1079C77.0388 21.786 77.143 21.3769 77.1392 20.8807ZM81.1264 24.5V15.7727H82.8253V24.5H81.1264ZM81.9844 14.4261C81.6889 14.4261 81.4351 14.3276 81.223 14.1307C81.0147 13.9299 80.9105 13.6913 80.9105 13.4148C80.9105 13.1345 81.0147 12.8958 81.223 12.6989C81.4351 12.4981 81.6889 12.3977 81.9844 12.3977C82.2798 12.3977 82.5317 12.4981 82.74 12.6989C82.9522 12.8958 83.0582 13.1345 83.0582 13.4148C83.0582 13.6913 82.9522 13.9299 82.74 14.1307C82.5317 14.3276 82.2798 14.4261 81.9844 14.4261ZM86.8096 12.8636V24.5H85.1108V12.8636H86.8096ZM93.169 15.7727V17.1364H88.402V15.7727H93.169ZM89.6804 13.6818H91.3792V21.9375C91.3792 22.267 91.4285 22.5151 91.527 22.6818C91.6254 22.8447 91.7523 22.9564 91.9076 23.017C92.0667 23.0739 92.2391 23.1023 92.4247 23.1023C92.5611 23.1023 92.6804 23.0928 92.7826 23.0739C92.8849 23.0549 92.9645 23.0398 93.0213 23.0284L93.3281 24.4318C93.2296 24.4697 93.0895 24.5076 92.9076 24.5454C92.7258 24.5871 92.4986 24.6098 92.2258 24.6136C91.7789 24.6212 91.3622 24.5417 90.9758 24.375C90.5895 24.2083 90.277 23.9508 90.0383 23.6023C89.7997 23.2538 89.6804 22.8163 89.6804 22.2898V13.6818ZM101.175 24.5L98.6065 15.7727H100.362L102.072 22.1818H102.158L103.874 15.7727H105.629L107.334 22.1534H107.419L109.118 15.7727H110.874L108.311 24.5H106.578L104.805 18.1989H104.675L102.902 24.5H101.175ZM112.486 24.5V15.7727H114.185V24.5H112.486ZM113.344 14.4261C113.048 14.4261 112.794 14.3276 112.582 14.1307C112.374 13.9299 112.27 13.6913 112.27 13.4148C112.27 13.1345 112.374 12.8958 112.582 12.6989C112.794 12.4981 113.048 12.3977 113.344 12.3977C113.639 12.3977 113.891 12.4981 114.099 12.6989C114.312 12.8958 114.418 13.1345 114.418 13.4148C114.418 13.6913 114.312 13.9299 114.099 14.1307C113.891 14.3276 113.639 14.4261 113.344 14.4261ZM120.544 15.7727V17.1364H115.777V15.7727H120.544ZM117.055 13.6818H118.754V21.9375C118.754 22.267 118.803 22.5151 118.902 22.6818C119 22.8447 119.127 22.9564 119.283 23.017C119.442 23.0739 119.614 23.1023 119.8 23.1023C119.936 23.1023 120.055 23.0928 120.158 23.0739C120.26 23.0549 120.339 23.0398 120.396 23.0284L120.703 24.4318C120.605 24.4697 120.464 24.5076 120.283 24.5454C120.101 24.5871 119.874 24.6098 119.601 24.6136C119.154 24.6212 118.737 24.5417 118.351 24.375C117.964 24.2083 117.652 23.9508 117.413 23.6023C117.175 23.2538 117.055 22.8163 117.055 22.2898V13.6818ZM124.31 19.3182V24.5H122.611V12.8636H124.287V17.1932H124.395C124.599 16.7235 124.912 16.3504 125.332 16.0739C125.753 15.7973 126.302 15.6591 126.98 15.6591C127.579 15.6591 128.101 15.7822 128.548 16.0284C128.999 16.2746 129.348 16.642 129.594 17.1307C129.844 17.6155 129.969 18.2216 129.969 18.9489V24.5H128.27V19.1534C128.27 18.5133 128.105 18.017 127.776 17.6648C127.446 17.3087 126.988 17.1307 126.401 17.1307C125.999 17.1307 125.639 17.2159 125.321 17.3864C125.007 17.5568 124.758 17.8068 124.577 18.1364C124.399 18.4621 124.31 18.8561 124.31 19.3182Z" fill="#E8E8E8"/>
<path d="M60.9357 43.5V31.1364H66.043C66.9686 31.1364 67.7675 31.3034 68.4396 31.6374C69.1157 31.9674 69.6369 32.4423 70.0032 33.0621C70.3694 33.6779 70.5525 34.4084 70.5525 35.2535C70.5525 36.1108 70.3654 36.8392 69.9911 37.4389C69.6168 38.0346 69.0856 38.4893 68.3974 38.8033C67.7091 39.1132 66.8942 39.2681 65.9524 39.2681H62.7226V36.9137H65.397C65.8478 36.9137 66.2241 36.8553 66.5259 36.7386C66.8318 36.6179 67.0632 36.4368 67.2202 36.1953C67.3771 35.9498 67.4556 35.6359 67.4556 35.2535C67.4556 34.8712 67.3771 34.5553 67.2202 34.3057C67.0632 34.0522 66.8318 33.863 66.5259 33.7383C66.22 33.6095 65.8437 33.5451 65.397 33.5451H63.924V43.5H60.9357ZM67.8963 37.8494L70.9751 43.5H67.7152L64.6967 37.8494H67.8963ZM78.1742 39.4975V34.2273H81.1202V43.5H78.307V41.7734H78.2104C78.0051 42.3409 77.655 42.7917 77.16 43.1257C76.669 43.4557 76.0753 43.6207 75.3791 43.6207C74.7472 43.6207 74.1918 43.4758 73.7129 43.1861C73.2339 42.8963 72.8617 42.4918 72.596 41.9726C72.3304 41.4494 72.1956 40.8377 72.1916 40.1374V34.2273H75.1436V39.5579C75.1476 40.061 75.2805 40.4574 75.5421 40.7471C75.8037 41.0369 76.1598 41.1818 76.6106 41.1818C76.9044 41.1818 77.168 41.1174 77.4014 40.9886C77.6389 40.8558 77.826 40.6646 77.9629 40.4151C78.1037 40.1616 78.1742 39.8557 78.1742 39.4975ZM82.9992 43.5V31.1364H85.9512V35.815H86.0116C86.1323 35.5333 86.3034 35.2616 86.5247 35C86.7501 34.7384 87.0359 34.5251 87.382 34.3601C87.7321 34.191 88.1507 34.1065 88.6377 34.1065C89.2816 34.1065 89.8833 34.2756 90.4427 34.6136C91.0062 34.9517 91.4609 35.4729 91.8071 36.1772C92.1532 36.8815 92.3262 37.779 92.3262 38.8697C92.3262 39.9201 92.1592 40.7995 91.8252 41.5078C91.4952 42.2161 91.0484 42.7474 90.485 43.1016C89.9256 43.4557 89.3037 43.6328 88.6196 43.6328C88.1527 43.6328 87.7482 43.5563 87.4061 43.4034C87.064 43.2505 86.7763 43.0492 86.5429 42.7997C86.3135 42.5502 86.1364 42.2825 86.0116 41.9968H85.9211V43.5H82.9992ZM85.8909 38.8636C85.8909 39.3627 85.9573 39.7973 86.0901 40.1676C86.2269 40.5379 86.4221 40.8256 86.6757 41.0309C86.9332 41.2321 87.2411 41.3327 87.5993 41.3327C87.9615 41.3327 88.2694 41.2321 88.523 41.0309C88.7765 40.8256 88.9677 40.5379 89.0965 40.1676C89.2293 39.7973 89.2957 39.3627 89.2957 38.8636C89.2957 38.3646 89.2293 37.9319 89.0965 37.5657C88.9677 37.1994 88.7765 36.9157 88.523 36.7145C88.2734 36.5132 87.9656 36.4126 87.5993 36.4126C87.2371 36.4126 86.9292 36.5112 86.6757 36.7084C86.4221 36.9056 86.2269 37.1874 86.0901 37.5536C85.9573 37.9199 85.8909 38.3565 85.8909 38.8636ZM95.3794 46.9773C95.0252 46.9773 94.6912 46.9491 94.3773 46.8927C94.0634 46.8404 93.7937 46.77 93.5683 46.6815L94.2203 44.5383C94.5101 44.6349 94.7717 44.6913 95.0051 44.7074C95.2426 44.7235 95.4458 44.6852 95.6149 44.5927C95.7879 44.5041 95.9207 44.3452 96.0133 44.1158L96.128 43.8381L92.8318 34.2273H95.9227L97.6312 40.8437H97.7278L99.4604 34.2273H102.569L99.074 44.3874C98.905 44.8945 98.6655 45.3413 98.3556 45.7276C98.0497 46.118 97.6533 46.4239 97.1663 46.6452C96.6834 46.8666 96.0877 46.9773 95.3794 46.9773Z" fill="#CC342D"/>
</g>
<defs>
<filter id="filter0_d_1_50" x="6.28571" y="2.28571" width="51.4286" height="51.4286" filterUnits="userSpaceOnUse" color-interpolation-filters="sRGB">
<feFlood flood-opacity="0" result="BackgroundImageFix"/>
<feColorMatrix in="SourceAlpha" type="matrix" values="0 0 0 0 0 0 0 0 0 0 0 0 0 0 0 0 0 0 127 0" result="hardAlpha"/>
<feOffset/>
<feGaussianBlur stdDeviation="2.85714"/>
<feComposite in2="hardAlpha" operator="out"/>
<feColorMatrix type="matrix" values="0 0 0 0 0 0 0 0 0 0 0 0 0 0 0 0 0 0 0.25 0"/>
<feBlend mode="normal" in2="BackgroundImageFix" result="effect1_dropShadow_1_50"/>
<feBlend mode="normal" in="SourceGraphic" in2="effect1_dropShadow_1_50" result="shape"/>
</filter>
<filter id="filter1_d_1_50" x="54.4" y="3.9" width="83.2" height="48.6773" filterUnits="userSpaceOnUse" color-interpolation-filters="sRGB">
<feFlood flood-opacity="0" result="BackgroundImageFix"/>
<feColorMatrix in="SourceAlpha" type="matrix" values="0 0 0 0 0 0 0 0 0 0 0 0 0 0 0 0 0 0 127 0" result="hardAlpha"/>
<feOffset/>
<feGaussianBlur stdDeviation="2.8"/>
<feComposite in2="hardAlpha" operator="out"/>
<feColorMatrix type="matrix" values="0 0 0 0 0 0 0 0 0 0 0 0 0 0 0 0 0 0 0.25 0"/>
<feBlend mode="normal" in2="BackgroundImageFix" result="effect1_dropShadow_1_50"/>
<feBlend mode="normal" in="SourceGraphic" in2="effect1_dropShadow_1_50" result="shape"/>
</filter>
<linearGradient id="paint0_linear_1_50" x1="72" y1="0" x2="72" y2="56" gradientUnits="userSpaceOnUse">
<stop stop-color="#8F0C03"/>
<stop offset="1" stop-color="#2D0400"/>
</linearGradient>
<linearGradient id="paint1_linear_1_50" x1="47.1433" y1="51.6378" x2="38.6694" y2="36.7181" gradientUnits="userSpaceOnUse">
<stop stop-color="#FB7655"/>
<stop offset="0.41" stop-color="#E42B1E"/>
<stop offset="0.99" stop-color="#990000"/>
<stop offset="1" stop-color="#990000"/>
</linearGradient>
<linearGradient id="paint2_linear_1_50" x1="51.3469" y1="39.0877" x2="40.453" y2="31.7975" gradientUnits="userSpaceOnUse">
<stop stop-color="#871101"/>
<stop offset="0.99" stop-color="#911209"/>
<stop offset="1" stop-color="#911209"/>
</linearGradient>
<linearGradient id="paint3_linear_1_50" x1="42.6456" y1="52.0905" x2="31.752" y2="44.8006" gradientUnits="userSpaceOnUse">
<stop stop-color="#871101"/>
<stop offset="0.99" stop-color="#911209"/>
<stop offset="1" stop-color="#911209"/>
</linearGradient>
<linearGradient id="paint4_linear_1_50" x1="19.8123" y1="33.7902" x2="21.5074" y2="44.7759" gradientUnits="userSpaceOnUse">
<stop stop-color="white"/>
<stop offset="0.23" stop-color="#E57252"/>
<stop offset="0.46" stop-color="#DE3B20"/>
<stop offset="0.99" stop-color="#A60003"/>
<stop offset="1" stop-color="#A60003"/>
</linearGradient>
<linearGradient id="paint5_linear_1_50" x1="31.408" y1="23.531" x2="32.0326" y2="34.7438" gradientUnits="userSpaceOnUse">
<stop stop-color="white"/>
<stop offset="0.23" stop-color="#E4714E"/>
<stop offset="0.56" stop-color="#BE1A0D"/>
<stop offset="0.99" stop-color="#A80D00"/>
<stop offset="1" stop-color="#A80D00"/>
</linearGradient>
<linearGradient id="paint6_linear_1_50" x1="41.6983" y1="13.1667" x2="43.5677" y2="21.2007" gradientUnits="userSpaceOnUse">
<stop stop-color="white"/>
<stop offset="0.18" stop-color="#E46342"/>
<stop offset="0.4" stop-color="#C82410"/>
<stop offset="0.99" stop-color="#A80D00"/>
<stop offset="1" stop-color="#A80D00"/>
</linearGradient>
<linearGradient id="paint7_linear_1_50" x1="36.0198" y1="10.3366" x2="44.0421" y2="6.33653" gradientUnits="userSpaceOnUse">
<stop stop-color="white"/>
<stop offset="0.54" stop-color="#C81F11"/>
<stop offset="0.99" stop-color="#BF0905"/>
<stop offset="1" stop-color="#BF0905"/>
</linearGradient>
<linearGradient id="paint8_linear_1_50" x1="12.788" y1="30.9891" x2="13.4512" y2="37.6105" gradientUnits="userSpaceOnUse">
<stop stop-color="white"/>
<stop offset="0.31" stop-color="#DE4024"/>
<stop offset="0.99" stop-color="#BF190B"/>
<stop offset="1" stop-color="#BF190B"/>
</linearGradient>
<linearGradient id="paint9_linear_1_50" x1="8.25384" y1="39.4009" x2="39.3465" y2="7.51766" gradientUnits="userSpaceOnUse">
<stop stop-color="#BD0012"/>
<stop offset="0.07" stop-color="white"/>
<stop offset="0.17" stop-color="white"/>
<stop offset="0.27" stop-color="#C82F1C"/>
<stop offset="0.33" stop-color="#820C01"/>
<stop offset="0.46" stop-color="#A31601"/>
<stop offset="0.72" stop-color="#B31301"/>
<stop offset="0.99" stop-color="#E82609"/>
<stop offset="1" stop-color="#E82609"/>
</linearGradient>
<linearGradient id="paint10_linear_1_50" x1="32.002" y1="42.6256" x2="22.6603" y2="40.3264" gradientUnits="userSpaceOnUse">
<stop stop-color="#8C0C01"/>
<stop offset="0.54" stop-color="#990C00"/>
<stop offset="0.99" stop-color="#A80D0E"/>
<stop offset="1" stop-color="#A80D0E"/>
</linearGradient>
<linearGradient id="paint11_linear_1_50" x1="48.0422" y1="31.3859" x2="39.7254" y2="23.9525" gradientUnits="userSpaceOnUse">
<stop stop-color="#7E110B"/>
<stop offset="0.99" stop-color="#9E0C00"/>
<stop offset="1" stop-color="#9E0C00"/>
</linearGradient>
<linearGradient id="paint12_linear_1_50" x1="51.0902" y1="17.7048" x2="46.9454" y2="13.2861" gradientUnits="userSpaceOnUse">
<stop stop-color="#79130D"/>
<stop offset="0.99" stop-color="#9E120B"/>
<stop offset="1" stop-color="#9E120B"/>
</linearGradient>
<radialGradient id="paint13_radial_1_50" cx="0" cy="0" r="1" gradientUnits="userSpaceOnUse" gradientTransform="translate(41.0378 24.0721) scale(10.1666 10.1949)">
<stop stop-color="#A80D00"/>
<stop offset="0.99" stop-color="#7E0E08"/>
<stop offset="1" stop-color="#7E0E08"/>
</radialGradient>
<radialGradient id="paint14_radial_1_50" cx="0" cy="0" r="1" gradientUnits="userSpaceOnUse" gradientTransform="translate(26.9583 37.5072) scale(13.5151 13.5527)">
<stop stop-color="#A30C00"/>
<stop offset="0.99" stop-color="#800E08"/>
<stop offset="1" stop-color="#800E08"/>
</radialGradient>
<linearGradient id="paint15_linear_1_50" x1="17.3843" y1="47.9506" x2="13.9993" y2="36.4983" gradientUnits="userSpaceOnUse">
<stop stop-color="#8B2114"/>
<stop offset="0.43" stop-color="#9E100A"/>
<stop offset="0.99" stop-color="#B3100C"/>
<stop offset="1" stop-color="#B3100C"/>
</linearGradient>
<linearGradient id="paint16_linear_1_50" x1="43.2201" y1="9.98359" x2="50.7771" y2="13.3101" gradientUnits="userSpaceOnUse">
<stop stop-color="#B31000"/>
<stop offset="0.44" stop-color="#910F08"/>
<stop offset="0.99" stop-color="#791C12"/>
<stop offset="1" stop-color="#791C12"/>
</linearGradient>
</defs>
</svg>
