<svg width="193" height="40" viewBox="0 0 193 40" fill="none" xmlns="http://www.w3.org/2000/svg">
<rect width="193.001" height="40.0014" rx="8" fill="url(#paint0_linear_1_56)"/>
<rect x="1.07143" y="1.07143" width="190.858" height="37.8585" rx="6.92857" stroke="white" stroke-opacity="0.15" stroke-width="2.14286"/>
<g filter="url(#filter0_d_1_56)">
<mask id="mask0_1_56" style="mask-type:luminance" maskUnits="userSpaceOnUse" x="9" y="6" width="26" height="28">
<path d="M21.3873 6.17713L10.4132 12.5113C10.0021 12.7483 9.75 13.1859 9.75 13.6589V26.336C9.75 26.8093 10.0021 27.2467 10.4132 27.4837L21.388 33.8228C21.7983 34.0591 22.3042 34.0591 22.7139 33.8228L33.6869 27.4837C34.0959 27.2467 34.3486 26.8091 34.3486 26.336V13.6589C34.3486 13.1859 34.0959 12.7483 33.6843 12.5113L22.7129 6.17713C22.5071 6.05913 22.2779 6 22.0486 6C21.8194 6 21.5902 6.05913 21.3844 6.17713" fill="white"/>
</mask>
<g mask="url(#mask0_1_56)">
<path d="M45.4383 11.4357L14.5152 -3.72169L-1.34026 28.6233L29.582 43.7815L45.4383 11.4357Z" fill="url(#paint1_linear_1_56)"/>
</g>
<mask id="mask1_1_56" style="mask-type:luminance" maskUnits="userSpaceOnUse" x="10" y="6" width="24" height="28">
<path d="M10.0219 27.1409C10.1269 27.2772 10.2582 27.3952 10.4127 27.4837L19.8265 32.9213L21.3946 33.8225C21.629 33.958 21.8963 34.0153 22.1588 33.9958C22.2463 33.9887 22.3339 33.9723 22.4193 33.9481L33.9935 12.7553C33.905 12.659 33.8013 12.5782 33.6851 12.5105L26.4995 8.36101L22.7011 6.17557C22.5933 6.11305 22.4763 6.06877 22.3573 6.03751L10.0219 27.1409Z" fill="white"/>
</mask>
<g mask="url(#mask1_1_56)">
<path d="M-3.34805 15.9189L18.4868 45.4713L47.3638 24.1363L25.5276 -5.41534L-3.34805 15.9189Z" fill="url(#paint2_linear_1_56)"/>
</g>
<mask id="mask2_1_56" style="mask-type:luminance" maskUnits="userSpaceOnUse" x="10" y="6" width="25" height="28">
<path d="M21.9176 6.0073C21.7334 6.02553 21.5535 6.08284 21.3875 6.17713L10.4447 12.493L22.2445 33.9854C22.4086 33.9619 22.5701 33.9072 22.716 33.8228L33.6901 27.4837C34.0287 27.2873 34.2605 26.955 34.3309 26.5783L22.3018 6.02892C22.2133 6.01146 22.1247 6.00235 22.0335 6.00235C21.9971 6.00235 21.9606 6.00417 21.9241 6.00756" fill="white"/>
</mask>
<g mask="url(#mask2_1_56)">
<path d="M10.4444 6.00235V33.9859H34.3262V6.00235H10.4444Z" fill="url(#paint3_linear_1_56)"/>
</g>
</g>
<g filter="url(#filter1_d_1_56)">
<path d="M50.103 17.3849C50.0386 16.8134 49.7729 16.3707 49.3061 16.0568C48.8392 15.7389 48.2516 15.5799 47.5433 15.5799C47.0362 15.5799 46.5975 15.6604 46.2272 15.8214C45.857 15.9783 45.5692 16.1957 45.364 16.4734C45.1627 16.747 45.0621 17.0589 45.0621 17.4091C45.0621 17.7029 45.1305 17.9564 45.2674 18.1697C45.4082 18.383 45.5914 18.5621 45.8167 18.707C46.0461 18.8479 46.2916 18.9666 46.5532 19.0632C46.8148 19.1558 47.0664 19.2322 47.3079 19.2926L48.5152 19.6065C48.9097 19.7031 49.3141 19.8339 49.7287 19.9989C50.1432 20.1639 50.5276 20.3813 50.8817 20.6509C51.2359 20.9206 51.5216 21.2546 51.739 21.653C51.9603 22.0515 52.071 22.5284 52.071 23.0838C52.071 23.7841 51.8899 24.4059 51.5277 24.9492C51.1695 25.4925 50.6483 25.9212 49.9641 26.2351C49.2839 26.549 48.4609 26.706 47.495 26.706C46.5693 26.706 45.7684 26.5591 45.0923 26.2653C44.4162 25.9715 43.8869 25.5549 43.5046 25.0156C43.1223 24.4723 42.911 23.8283 42.8707 23.0838H44.7422C44.7784 23.5305 44.9233 23.9028 45.1768 24.2006C45.4344 24.4944 45.7624 24.7138 46.1608 24.8587C46.5633 24.9995 47.004 25.0699 47.4829 25.0699C48.0102 25.0699 48.479 24.9874 48.8895 24.8224C49.3041 24.6534 49.6301 24.42 49.8675 24.1221C50.105 23.8203 50.2237 23.4681 50.2237 23.0657C50.2237 22.6994 50.1191 22.3996 49.9098 22.1662C49.7045 21.9328 49.4248 21.7396 49.0706 21.5866C48.7205 21.4337 48.3241 21.2989 47.8814 21.1822L46.4204 20.7837C45.4304 20.5141 44.6456 20.1176 44.066 19.5944C43.4905 19.0712 43.2027 18.379 43.2027 17.5177C43.2027 16.8054 43.3959 16.1836 43.7823 15.6523C44.1687 15.1211 44.6919 14.7086 45.3519 14.4148C46.0119 14.1169 46.7565 13.968 47.5856 13.968C48.4227 13.968 49.1612 14.1149 49.8011 14.4087C50.445 14.7025 50.9522 15.107 51.3224 15.6221C51.6927 16.1333 51.8859 16.7209 51.902 17.3849H50.103ZM60.0292 22.6552V17.228H61.8403V26.5007H60.0654V24.8949H59.9688C59.7555 25.3899 59.4134 25.8024 58.9425 26.1324C58.4757 26.4584 57.8941 26.6214 57.1979 26.6214C56.6022 26.6214 56.075 26.4906 55.6162 26.229C55.1614 25.9634 54.8032 25.571 54.5416 25.0518C54.284 24.5327 54.1552 23.8907 54.1552 23.1261V17.228H55.9603V22.9087C55.9603 23.5406 56.1354 24.0437 56.4855 24.418C56.8356 24.7922 57.2904 24.9794 57.8498 24.9794C58.1879 24.9794 58.524 24.8949 58.858 24.7258C59.1961 24.5568 59.4758 24.3012 59.6971 23.9591C59.9225 23.6171 60.0332 23.1824 60.0292 22.6552ZM64.2656 29.978V17.228H66.0284V18.7312H66.1793C66.2839 18.538 66.4349 18.3146 66.6321 18.0611C66.8293 17.8075 67.103 17.5862 67.4531 17.397C67.8032 17.2038 68.2661 17.1072 68.8416 17.1072C69.5902 17.1072 70.2583 17.2964 70.8458 17.6747C71.4334 18.053 71.8943 18.5984 72.2283 19.3107C72.5664 20.0231 72.7354 20.8803 72.7354 21.8824C72.7354 22.8846 72.5684 23.7438 72.2343 24.4602C71.9003 25.1726 71.4415 25.7219 70.8579 26.1083C70.2744 26.4906 69.6083 26.6818 68.8597 26.6818C68.2963 26.6818 67.8354 26.5872 67.4772 26.3981C67.1231 26.2089 66.8454 25.9876 66.6441 25.734C66.4429 25.4805 66.288 25.2551 66.1793 25.0579H66.0706V29.978H64.2656ZM66.0344 21.8643C66.0344 22.5163 66.129 23.0878 66.3182 23.5788C66.5073 24.0698 66.781 24.4542 67.1392 24.7319C67.4974 25.0056 67.936 25.1424 68.4552 25.1424C68.9945 25.1424 69.4453 24.9995 69.8075 24.7138C70.1697 24.424 70.4434 24.0316 70.6285 23.5366C70.8177 23.0415 70.9123 22.4841 70.9123 21.8643C70.9123 21.2526 70.8197 20.7032 70.6346 20.2163C70.4534 19.7293 70.1798 19.3449 69.8135 19.0632C69.4513 18.7815 68.9985 18.6406 68.4552 18.6406C67.932 18.6406 67.4893 18.7754 67.1271 19.0451C66.7689 19.3147 66.4972 19.691 66.3121 20.174C66.127 20.6569 66.0344 21.2204 66.0344 21.8643ZM74.7578 29.978V17.228H76.5206V18.7312H76.6715C76.7761 18.538 76.927 18.3146 77.1243 18.0611C77.3215 17.8075 77.5951 17.5862 77.9453 17.397C78.2954 17.2038 78.7583 17.1072 79.3338 17.1072C80.0824 17.1072 80.7504 17.2964 81.338 17.6747C81.9256 18.053 82.3864 18.5984 82.7205 19.3107C83.0586 20.0231 83.2276 20.8803 83.2276 21.8824C83.2276 22.8846 83.0606 23.7438 82.7265 24.4602C82.3925 25.1726 81.9337 25.7219 81.3501 26.1083C80.7665 26.4906 80.1005 26.6818 79.3519 26.6818C78.7884 26.6818 78.3276 26.5872 77.9694 26.3981C77.6153 26.2089 77.3376 25.9876 77.1363 25.734C76.9351 25.4805 76.7802 25.2551 76.6715 25.0579H76.5628V29.978H74.7578ZM76.5266 21.8643C76.5266 22.5163 76.6212 23.0878 76.8103 23.5788C76.9995 24.0698 77.2732 24.4542 77.6314 24.7319C77.9895 25.0056 78.4282 25.1424 78.9474 25.1424C79.4867 25.1424 79.9375 24.9995 80.2997 24.7138C80.6619 24.424 80.9356 24.0316 81.1207 23.5366C81.3099 23.0415 81.4044 22.4841 81.4044 21.8643C81.4044 21.2526 81.3119 20.7032 81.1267 20.2163C80.9456 19.7293 80.672 19.3449 80.3057 19.0632C79.9435 18.7815 79.4907 18.6406 78.9474 18.6406C78.4242 18.6406 77.9815 18.7754 77.6193 19.0451C77.2611 19.3147 76.9894 19.691 76.8043 20.174C76.6192 20.6569 76.5266 21.2204 76.5266 21.8643ZM89.1559 26.6878C88.2865 26.6878 87.5279 26.4886 86.8799 26.0902C86.232 25.6917 85.7289 25.1343 85.3707 24.418C85.0125 23.7016 84.8334 22.8645 84.8334 21.9066C84.8334 20.9447 85.0125 20.1036 85.3707 19.3832C85.7289 18.6627 86.232 18.1033 86.8799 17.7049C87.5279 17.3065 88.2865 17.1072 89.1559 17.1072C90.0252 17.1072 90.7838 17.3065 91.4318 17.7049C92.0797 18.1033 92.5828 18.6627 92.941 19.3832C93.2992 20.1036 93.4783 20.9447 93.4783 21.9066C93.4783 22.8645 93.2992 23.7016 92.941 24.418C92.5828 25.1343 92.0797 25.6917 91.4318 26.0902C90.7838 26.4886 90.0252 26.6878 89.1559 26.6878ZM89.1619 25.1726C89.7253 25.1726 90.1922 25.0237 90.5625 24.7258C90.9327 24.428 91.2064 24.0316 91.3835 23.5366C91.5646 23.0415 91.6551 22.4962 91.6551 21.9006C91.6551 21.3089 91.5646 20.7656 91.3835 20.2706C91.2064 19.7715 90.9327 19.3711 90.5625 19.0692C90.1922 18.7674 89.7253 18.6165 89.1619 18.6165C88.5944 18.6165 88.1235 18.7674 87.7493 19.0692C87.379 19.3711 87.1033 19.7715 86.9222 20.2706C86.7451 20.7656 86.6566 21.3089 86.6566 21.9006C86.6566 22.4962 86.7451 23.0415 86.9222 23.5366C87.1033 24.0316 87.379 24.428 87.7493 24.7258C88.1235 25.0237 88.5944 25.1726 89.1619 25.1726ZM95.4931 26.5007V17.228H97.2378V18.701H97.3344C97.5034 18.2019 97.8012 17.8095 98.2279 17.5238C98.6585 17.234 99.1455 17.0891 99.6888 17.0891C99.8015 17.0891 99.9343 17.0931 100.087 17.1012C100.244 17.1092 100.367 17.1193 100.455 17.1314V18.8579C100.383 18.8378 100.254 18.8157 100.069 18.7915C99.884 18.7634 99.6989 18.7493 99.5137 18.7493C99.0871 18.7493 98.7068 18.8398 98.3727 19.0209C98.0427 19.198 97.7811 19.4455 97.5879 19.7635C97.3948 20.0774 97.2982 20.4356 97.2982 20.8381V26.5007H95.4931ZM106.894 17.228V18.6768H101.829V17.228H106.894ZM103.187 15.0064H104.992V23.778C104.992 24.1282 105.045 24.3918 105.149 24.5689C105.254 24.7419 105.389 24.8607 105.554 24.9251C105.723 24.9854 105.906 25.0156 106.103 25.0156C106.248 25.0156 106.375 25.0056 106.483 24.9854C106.592 24.9653 106.677 24.9492 106.737 24.9371L107.063 26.4283C106.958 26.4685 106.809 26.5087 106.616 26.549C106.423 26.5933 106.182 26.6174 105.892 26.6214C105.417 26.6295 104.974 26.545 104.564 26.3679C104.153 26.1908 103.821 25.9171 103.568 25.5469C103.314 25.1766 103.187 24.7118 103.187 24.1523V15.0064ZM115.69 19.4918L114.054 19.7816C113.985 19.5723 113.877 19.3731 113.728 19.1839C113.583 18.9948 113.386 18.8398 113.136 18.7191C112.887 18.5984 112.575 18.538 112.2 18.538C111.689 18.538 111.263 18.6527 110.92 18.8821C110.578 19.1075 110.407 19.3993 110.407 19.7574C110.407 20.0673 110.522 20.3169 110.751 20.506C110.981 20.6952 111.351 20.8501 111.862 20.9709L113.335 21.3089C114.188 21.5061 114.824 21.81 115.243 22.2205C115.662 22.631 115.871 23.1643 115.871 23.8203C115.871 24.3757 115.71 24.8707 115.388 25.3054C115.07 25.736 114.625 26.0741 114.054 26.3196C113.486 26.5651 112.828 26.6878 112.08 26.6878C111.041 26.6878 110.194 26.4665 109.538 26.0238C108.882 25.577 108.48 24.9432 108.331 24.1221L110.075 23.8565C110.184 24.3113 110.407 24.6554 110.745 24.8888C111.083 25.1182 111.524 25.2329 112.068 25.2329C112.659 25.2329 113.132 25.1102 113.486 24.8647C113.84 24.6152 114.017 24.3113 114.017 23.9531C114.017 23.6633 113.909 23.4199 113.691 23.2226C113.478 23.0254 113.15 22.8765 112.707 22.7759L111.138 22.4318C110.273 22.2346 109.633 21.9207 109.218 21.49C108.808 21.0594 108.602 20.5141 108.602 19.854C108.602 19.3067 108.755 18.8278 109.061 18.4172C109.367 18.0067 109.79 17.6868 110.329 17.4574C110.868 17.2239 111.486 17.1072 112.182 17.1072C113.184 17.1072 113.973 17.3246 114.549 17.7592C115.124 18.1899 115.505 18.7674 115.69 19.4918Z" fill="#E8E8E8"/>
<path d="M132.459 14.6371V27.0007H129.924L125.004 19.865H124.925V27.0007H121.937V14.6371H124.509L129.375 21.7606H129.477V14.6371H132.459ZM138.667 27.1758C137.693 27.1758 136.856 26.9765 136.156 26.5781C135.459 26.1757 134.922 25.6162 134.544 24.8998C134.169 24.1794 133.982 23.3443 133.982 22.3945C133.982 21.4407 134.169 20.6056 134.544 19.8892C134.922 19.1688 135.459 18.6094 136.156 18.2109C136.856 17.8085 137.693 17.6072 138.667 17.6072C139.641 17.6072 140.476 17.8085 141.172 18.2109C141.873 18.6094 142.41 19.1688 142.784 19.8892C143.162 20.6056 143.352 21.4407 143.352 22.3945C143.352 23.3443 143.162 24.1794 142.784 24.8998C142.41 25.6162 141.873 26.1757 141.172 26.5781C140.476 26.9765 139.641 27.1758 138.667 27.1758ZM138.685 24.9481C139.039 24.9481 139.339 24.8395 139.585 24.6221C139.83 24.4048 140.017 24.103 140.146 23.7166C140.279 23.3302 140.345 22.8835 140.345 22.3764C140.345 21.8613 140.279 21.4105 140.146 21.0241C140.017 20.6378 139.83 20.3359 139.585 20.1186C139.339 19.9013 139.039 19.7926 138.685 19.7926C138.319 19.7926 138.009 19.9013 137.755 20.1186C137.506 20.3359 137.315 20.6378 137.182 21.0241C137.053 21.4105 136.989 21.8613 136.989 22.3764C136.989 22.8835 137.053 23.3302 137.182 23.7166C137.315 24.103 137.506 24.4048 137.755 24.6221C138.009 24.8395 138.319 24.9481 138.685 24.9481ZM148.251 27.1335C147.566 27.1335 146.945 26.9564 146.385 26.6023C145.826 26.2481 145.379 25.7168 145.045 25.0085C144.711 24.3002 144.544 23.4208 144.544 22.3704C144.544 21.2797 144.717 20.3822 145.063 19.6779C145.409 18.9736 145.862 18.4524 146.421 18.1143C146.985 17.7763 147.591 17.6072 148.238 17.6072C148.725 17.6072 149.142 17.6918 149.488 17.8608C149.834 18.0258 150.12 18.2391 150.345 18.5007C150.571 18.7623 150.742 19.034 150.859 19.3157H150.919V14.6371H153.871V27.0007H150.949V25.4975H150.859C150.734 25.7832 150.557 26.0509 150.327 26.3004C150.098 26.5499 149.81 26.7512 149.464 26.9041C149.122 27.057 148.717 27.1335 148.251 27.1335ZM149.277 24.8334C149.635 24.8334 149.941 24.7328 150.194 24.5316C150.448 24.3263 150.643 24.0386 150.78 23.6683C150.917 23.298 150.985 22.8634 150.985 22.3643C150.985 21.8572 150.917 21.4206 150.78 21.0543C150.647 20.6881 150.452 20.4064 150.194 20.2092C149.941 20.0119 149.635 19.9133 149.277 19.9133C148.911 19.9133 148.601 20.014 148.347 20.2152C148.094 20.4164 147.9 20.7002 147.768 21.0664C147.639 21.4326 147.574 21.8653 147.574 22.3643C147.574 22.8634 147.641 23.298 147.774 23.6683C147.906 24.0386 148.098 24.3263 148.347 24.5316C148.601 24.7328 148.911 24.8334 149.277 24.8334ZM160.072 27.1758C159.102 27.1758 158.265 26.9846 157.561 26.6023C156.861 26.2159 156.321 25.6665 155.943 24.9542C155.569 24.2378 155.382 23.3866 155.382 22.4006C155.382 21.4427 155.571 20.6056 155.949 19.8892C156.327 19.1688 156.861 18.6094 157.549 18.2109C158.237 17.8085 159.048 17.6072 159.982 17.6072C160.642 17.6072 161.246 17.7099 161.793 17.9151C162.34 18.1204 162.813 18.4242 163.212 18.8267C163.61 19.2292 163.92 19.7262 164.141 20.3178C164.363 20.9054 164.473 21.5795 164.473 22.3402V23.0767H156.414V21.3622H161.727C161.722 21.0483 161.648 20.7686 161.503 20.5231C161.358 20.2776 161.159 20.0864 160.905 19.9496C160.656 19.8087 160.368 19.7383 160.042 19.7383C159.712 19.7383 159.416 19.8127 159.155 19.9616C158.893 20.1065 158.686 20.3057 158.533 20.5593C158.38 20.8088 158.3 21.0926 158.291 21.4105V23.1552C158.291 23.5335 158.366 23.8655 158.515 24.1513C158.664 24.433 158.875 24.6523 159.149 24.8093C159.422 24.9663 159.748 25.0447 160.127 25.0447C160.388 25.0447 160.626 25.0085 160.839 24.9361C161.052 24.8636 161.235 24.757 161.388 24.6161C161.541 24.4752 161.656 24.3022 161.733 24.0969L164.443 24.1754C164.33 24.7831 164.083 25.3124 163.701 25.7631C163.322 26.2099 162.825 26.558 162.209 26.8075C161.594 27.053 160.881 27.1758 160.072 27.1758ZM167.641 27.1758C167.207 27.1758 166.834 27.0228 166.524 26.717C166.218 26.4111 166.068 26.0408 166.072 25.6062C166.068 25.1796 166.218 24.8153 166.524 24.5135C166.834 24.2076 167.207 24.0547 167.641 24.0547C168.052 24.0547 168.414 24.2076 168.728 24.5135C169.046 24.8153 169.207 25.1796 169.211 25.6062C169.207 25.8959 169.13 26.1596 168.981 26.397C168.836 26.6345 168.645 26.8236 168.408 26.9645C168.174 27.1053 167.919 27.1758 167.641 27.1758ZM171.161 17.728H174.113V27.3871C174.113 28.1517 173.956 28.7595 173.642 29.2102C173.332 29.661 172.893 29.985 172.326 30.1822C171.758 30.3794 171.088 30.478 170.316 30.478C170.211 30.478 170.112 30.476 170.02 30.4719C169.927 30.4679 169.827 30.4639 169.718 30.4599V28.2202C169.79 28.2282 169.855 28.2342 169.911 28.2383C169.967 28.2423 170.024 28.2443 170.08 28.2443C170.487 28.2443 170.768 28.1678 170.925 28.0149C171.082 27.866 171.161 27.6366 171.161 27.3267V17.728ZM172.634 16.6474C172.219 16.6474 171.863 16.5105 171.565 16.2369C171.267 15.9592 171.118 15.6251 171.118 15.2347C171.118 14.8484 171.267 14.5183 171.565 14.2447C171.863 13.967 172.219 13.8281 172.634 13.8281C173.052 13.8281 173.408 13.967 173.702 14.2447C174 14.5183 174.149 14.8484 174.149 15.2347C174.149 15.6251 174 15.9592 173.702 16.2369C173.408 16.5105 173.052 16.6474 172.634 16.6474ZM184.087 20.5593L181.377 20.6317C181.349 20.4386 181.272 20.2675 181.147 20.1186C181.023 19.9657 180.86 19.8469 180.658 19.7624C180.461 19.6739 180.232 19.6296 179.97 19.6296C179.628 19.6296 179.336 19.698 179.095 19.8349C178.857 19.9717 178.741 20.1568 178.745 20.3903C178.741 20.5714 178.813 20.7283 178.962 20.8611C179.115 20.994 179.387 21.1006 179.777 21.1811L181.564 21.5192C182.49 21.6962 183.178 21.99 183.628 22.4006C184.083 22.8111 184.313 23.3544 184.317 24.0305C184.313 24.6664 184.124 25.2198 183.749 25.6907C183.379 26.1616 182.872 26.5278 182.228 26.7894C181.584 27.047 180.847 27.1758 180.018 27.1758C178.694 27.1758 177.65 26.9041 176.885 26.3608C176.125 25.8134 175.69 25.081 175.581 24.1633L178.497 24.0909C178.561 24.429 178.729 24.6865 178.998 24.8636C179.268 25.0407 179.612 25.1292 180.03 25.1292C180.409 25.1292 180.717 25.0588 180.954 24.918C181.192 24.7771 181.312 24.5899 181.316 24.3565C181.312 24.1472 181.22 23.9802 181.039 23.8555C180.858 23.7267 180.574 23.6261 180.187 23.5536L178.57 23.2457C177.64 23.0767 176.948 22.7648 176.493 22.31C176.038 21.8512 175.813 21.2676 175.817 20.5593C175.813 19.9395 175.978 19.4103 176.312 18.9716C176.646 18.5289 177.121 18.1908 177.736 17.9574C178.352 17.7239 179.079 17.6072 179.916 17.6072C181.171 17.6072 182.162 17.8708 182.886 18.3981C183.61 18.9213 184.011 19.6417 184.087 20.5593Z" fill="#74AC64"/>
</g>
<defs>
<filter id="filter0_d_1_56" x="2.39972" y="0.39972" width="39.202" height="39.202" filterUnits="userSpaceOnUse" color-interpolation-filters="sRGB">
<feFlood flood-opacity="0" result="BackgroundImageFix"/>
<feColorMatrix in="SourceAlpha" type="matrix" values="0 0 0 0 0 0 0 0 0 0 0 0 0 0 0 0 0 0 127 0" result="hardAlpha"/>
<feOffset/>
<feGaussianBlur stdDeviation="2.80014"/>
<feComposite in2="hardAlpha" operator="out"/>
<feColorMatrix type="matrix" values="0 0 0 0 0 0 0 0 0 0 0 0 0 0 0 0 0 0 0.25 0"/>
<feBlend mode="normal" in2="BackgroundImageFix" result="effect1_dropShadow_1_56"/>
<feBlend mode="normal" in="SourceGraphic" in2="effect1_dropShadow_1_56" result="shape"/>
</filter>
<filter id="filter1_d_1_56" x="36.2871" y="3.78642" width="154.429" height="32.4286" filterUnits="userSpaceOnUse" color-interpolation-filters="sRGB">
<feFlood flood-opacity="0" result="BackgroundImageFix"/>
<feColorMatrix in="SourceAlpha" type="matrix" values="0 0 0 0 0 0 0 0 0 0 0 0 0 0 0 0 0 0 127 0" result="hardAlpha"/>
<feOffset/>
<feGaussianBlur stdDeviation="2.85714"/>
<feComposite in2="hardAlpha" operator="out"/>
<feColorMatrix type="matrix" values="0 0 0 0 0 0 0 0 0 0 0 0 0 0 0 0 0 0 0.25 0"/>
<feBlend mode="normal" in2="BackgroundImageFix" result="effect1_dropShadow_1_56"/>
<feBlend mode="normal" in="SourceGraphic" in2="effect1_dropShadow_1_56" result="shape"/>
</filter>
<linearGradient id="paint0_linear_1_56" x1="96.5007" y1="0" x2="96.5007" y2="40.0014" gradientUnits="userSpaceOnUse">
<stop stop-color="#3F692E"/>
<stop offset="1" stop-color="#2E4C21"/>
</linearGradient>
<linearGradient id="paint1_linear_1_56" x1="29.9675" y1="3.83318" x2="14.1131" y2="36.1761" gradientUnits="userSpaceOnUse">
<stop offset="0.3" stop-color="#3E863D"/>
<stop offset="0.5" stop-color="#55934F"/>
<stop offset="0.8" stop-color="#5AAD45"/>
</linearGradient>
<linearGradient id="paint2_linear_1_56" x1="7.70023" y1="30.8645" x2="36.5783" y2="9.52698" gradientUnits="userSpaceOnUse">
<stop offset="0.57" stop-color="#3E863D"/>
<stop offset="0.72" stop-color="#619857"/>
<stop offset="1" stop-color="#76AC64"/>
</linearGradient>
<linearGradient id="paint3_linear_1_56" x1="10.4525" y1="19.9949" x2="34.3307" y2="19.9949" gradientUnits="userSpaceOnUse">
<stop offset="0.16" stop-color="#6BBF47"/>
<stop offset="0.38" stop-color="#79B461"/>
<stop offset="0.47" stop-color="#75AC64"/>
<stop offset="0.7" stop-color="#659E5A"/>
<stop offset="0.9" stop-color="#3E863D"/>
</linearGradient>
</defs>
</svg>
