<svg width="187" height="40" viewBox="0 0 187 40" fill="none" xmlns="http://www.w3.org/2000/svg">
<rect width="187.001" height="40.0014" rx="8" fill="url(#paint0_linear_1_56)"/>
<rect x="1.07143" y="1.07143" width="184.858" height="37.8585" rx="6.92857" stroke="white" stroke-opacity="0.15" stroke-width="2.14286"/>
<g filter="url(#filter0_d_1_56)">
<mask id="mask0_1_56" style="mask-type:luminance" maskUnits="userSpaceOnUse" x="8" y="7" width="28" height="26">
<path d="M36 7.75H8V32.3889H36V7.75Z" fill="white"/>
</mask>
<g mask="url(#mask0_1_56)">
<path d="M15.5672 28.3236H15.3028L13.9831 27.0039V26.7396L16.0006 24.7221H17.3984L17.5847 24.9084V26.3061L15.5672 28.3236Z" fill="#32E6E2"/>
<path d="M13.9831 13.3972V13.1329L15.3028 11.8131H15.5672L17.5847 13.8306V15.2284L17.3984 15.4147H16.0006L13.9831 13.3972Z" fill="#32E6E2"/>
<path d="M25.6005 24.0698H23.6805L23.5202 23.9094V19.415C23.5202 18.6154 23.2059 17.9956 22.2416 17.974C21.7454 17.961 21.1776 17.974 20.5709 17.9978L20.4798 18.091V23.9073L20.3195 24.0676H18.3995L18.2391 23.9073V16.2295L18.3995 16.0692H22.7205C24.4 16.0692 25.7609 17.4301 25.7609 19.1095V23.9094L25.6005 24.0698Z" fill="white"/>
<path d="M15.8403 21.192H8.16036L8 21.0316V19.1073L8.16036 18.947H15.8403L16.0006 19.1073V21.0316L15.8403 21.192Z" fill="#32E6E2"/>
<path d="M35.8418 21.192H28.1619L28.0015 21.0316V19.1073L28.1619 18.947H35.8418L36.0022 19.1073V21.0316L35.8418 21.192Z" fill="#32E6E2"/>
<path d="M20.8937 13.6703V7.91036L21.0541 7.75H22.9784L23.1388 7.91036V13.6703L22.9784 13.8306H21.0541L20.8937 13.6703Z" fill="#32E6E2"/>
<path d="M20.8937 32.2286V26.4687L21.0541 26.3083H22.9784L23.1388 26.4687V32.2286L22.9784 32.3889H21.0541L20.8937 32.2286Z" fill="#32E6E2"/>
</g>
</g>
<g filter="url(#filter1_d_1_56)">
<path d="M43.3597 26.5007V14.1371H47.8874C48.7648 14.1371 49.4912 14.282 50.0667 14.5717C50.6423 14.8575 51.0729 15.2458 51.3586 15.7369C51.6444 16.2238 51.7873 16.7732 51.7873 17.3849C51.7873 17.9001 51.6927 18.3347 51.5035 18.6889C51.3144 19.0391 51.0608 19.3208 50.7429 19.5341C50.429 19.7434 50.0828 19.8963 49.7045 19.9929V20.1136C50.115 20.1337 50.5155 20.2666 50.9059 20.5121C51.3003 20.7535 51.6263 21.0976 51.8839 21.5444C52.1414 21.9911 52.2702 22.5344 52.2702 23.1743C52.2702 23.8062 52.1213 24.3737 51.8235 24.8768C51.5297 25.3758 51.0749 25.7722 50.4591 26.066C49.8434 26.3558 49.0566 26.5007 48.0987 26.5007H43.3597ZM45.2251 24.9009H47.9176C48.8111 24.9009 49.451 24.7279 49.8373 24.3817C50.2237 24.0356 50.4169 23.603 50.4169 23.0838C50.4169 22.6934 50.3183 22.3352 50.1211 22.0092C49.9239 21.6832 49.6421 21.4236 49.2759 21.2305C48.9137 21.0373 48.483 20.9407 47.984 20.9407H45.2251V24.9009ZM45.2251 19.4858H47.7244C48.143 19.4858 48.5193 19.4053 48.8533 19.2443C49.1914 19.0833 49.459 18.8579 49.6562 18.5682C49.8575 18.2744 49.9581 17.9283 49.9581 17.5298C49.9581 17.0187 49.779 16.5901 49.4208 16.244C49.0626 15.8978 48.5132 15.7248 47.7727 15.7248H45.2251V19.4858ZM60.2118 22.6552V17.228H62.0229V26.5007H60.248V24.8949H60.1514C59.9381 25.3899 59.596 25.8024 59.1251 26.1324C58.6583 26.4584 58.0767 26.6214 57.3805 26.6214C56.7848 26.6214 56.2576 26.4906 55.7988 26.229C55.344 25.9634 54.9858 25.571 54.7242 25.0518C54.4667 24.5327 54.3379 23.8907 54.3379 23.1261V17.228H56.1429V22.9087C56.1429 23.5406 56.318 24.0437 56.6681 24.418C57.0183 24.7922 57.473 24.9794 58.0325 24.9794C58.3705 24.9794 58.7066 24.8949 59.0406 24.7258C59.3787 24.5568 59.6584 24.3012 59.8798 23.9591C60.1051 23.6171 60.2158 23.1824 60.2118 22.6552ZM64.4482 26.5007V17.228H66.2533V26.5007H64.4482ZM65.3598 15.7972C65.0459 15.7972 64.7762 15.6926 64.5508 15.4833C64.3295 15.27 64.2188 15.0164 64.2188 14.7226C64.2188 14.4248 64.3295 14.1713 64.5508 13.962C64.7762 13.7487 65.0459 13.642 65.3598 13.642C65.6737 13.642 65.9413 13.7487 66.1627 13.962C66.3881 14.1713 66.5008 14.4248 66.5008 14.7226C66.5008 15.0164 66.3881 15.27 66.1627 15.4833C65.9413 15.6926 65.6737 15.7972 65.3598 15.7972ZM70.4867 14.1371V26.5007H68.6816V14.1371H70.4867ZM77.2435 17.228V18.6768H72.1785V17.228H77.2435ZM73.5368 15.0064H75.3419V23.778C75.3419 24.1282 75.3942 24.3918 75.4988 24.5689C75.6035 24.7419 75.7383 24.8607 75.9033 24.9251C76.0723 24.9854 76.2554 25.0156 76.4526 25.0156C76.5975 25.0156 76.7243 25.0056 76.833 24.9854C76.9416 24.9653 77.0262 24.9492 77.0865 24.9371L77.4125 26.4283C77.3079 26.4685 77.159 26.5087 76.9658 26.549C76.7726 26.5933 76.5311 26.6174 76.2414 26.6214C75.7664 26.6295 75.3237 26.545 74.9132 26.3679C74.5027 26.1908 74.1707 25.9171 73.9171 25.5469C73.6636 25.1766 73.5368 24.7118 73.5368 24.1523V15.0064ZM85.7495 26.5007L83.0208 17.228H84.8862L86.7034 24.0376H86.7939L88.6171 17.228H90.4825L92.2936 24.0074H92.3841L94.1891 17.228H96.0546L93.3319 26.5007H91.4906L89.6071 19.8057H89.4683L87.5847 26.5007H85.7495ZM97.7675 26.5007V17.228H99.5726V26.5007H97.7675ZM98.6791 15.7972C98.3652 15.7972 98.0955 15.6926 97.8702 15.4833C97.6488 15.27 97.5381 15.0164 97.5381 14.7226C97.5381 14.4248 97.6488 14.1713 97.8702 13.962C98.0955 13.7487 98.3652 13.642 98.6791 13.642C98.993 13.642 99.2607 13.7487 99.482 13.962C99.7074 14.1713 99.8201 14.4248 99.8201 14.7226C99.8201 15.0164 99.7074 15.27 99.482 15.4833C99.2607 15.6926 98.993 15.7972 98.6791 15.7972ZM106.329 17.228V18.6768H101.264V17.228H106.329ZM102.623 15.0064H104.428V23.778C104.428 24.1282 104.48 24.3918 104.585 24.5689C104.689 24.7419 104.824 24.8607 104.989 24.9251C105.158 24.9854 105.341 25.0156 105.539 25.0156C105.683 25.0156 105.81 25.0056 105.919 24.9854C106.028 24.9653 106.112 24.9492 106.172 24.9371L106.498 26.4283C106.394 26.4685 106.245 26.5087 106.052 26.549C105.859 26.5933 105.617 26.6174 105.327 26.6214C104.852 26.6295 104.41 26.545 103.999 26.3679C103.589 26.1908 103.257 25.9171 103.003 25.5469C102.75 25.1766 102.623 24.7118 102.623 24.1523V15.0064ZM110.33 20.995V26.5007H108.525V14.1371H110.306V18.7372H110.421C110.638 18.2382 110.97 17.8417 111.417 17.5479C111.864 17.2541 112.447 17.1072 113.168 17.1072C113.804 17.1072 114.359 17.238 114.834 17.4996C115.313 17.7612 115.683 18.1516 115.945 18.6708C116.21 19.1859 116.343 19.8299 116.343 20.6026V26.5007H114.538V20.8199C114.538 20.1398 114.363 19.6126 114.013 19.2383C113.663 18.86 113.176 18.6708 112.552 18.6708C112.125 18.6708 111.743 18.7614 111.405 18.9425C111.071 19.1236 110.807 19.3892 110.614 19.7393C110.425 20.0855 110.33 20.504 110.33 20.995Z" fill="#E8E8E8"/>
<path d="M133.459 13.6371V26.0007H130.924L126.004 18.865H125.925V26.0007H122.937V13.6371H125.509L130.375 20.7606H130.477V13.6371H133.459ZM139.673 26.1758C138.703 26.1758 137.866 25.9846 137.162 25.6023C136.461 25.2159 135.922 24.6665 135.544 23.9542C135.169 23.2378 134.982 22.3866 134.982 21.4006C134.982 20.4427 135.171 19.6056 135.55 18.8892C135.928 18.1688 136.461 17.6094 137.15 17.2109C137.838 16.8085 138.649 16.6072 139.582 16.6072C140.242 16.6072 140.846 16.7099 141.394 16.9151C141.941 17.1204 142.414 17.4242 142.812 17.8267C143.211 18.2292 143.521 18.7262 143.742 19.3178C143.963 19.9054 144.074 20.5795 144.074 21.3402V22.0767H136.015V20.3622H141.327C141.323 20.0483 141.249 19.7686 141.104 19.5231C140.959 19.2776 140.76 19.0864 140.506 18.9496C140.257 18.8087 139.969 18.7383 139.643 18.7383C139.313 18.7383 139.017 18.8127 138.755 18.9616C138.494 19.1065 138.286 19.3057 138.134 19.5593C137.981 19.8088 137.9 20.0926 137.892 20.4105V22.1552C137.892 22.5335 137.967 22.8655 138.115 23.1513C138.264 23.433 138.476 23.6523 138.749 23.8093C139.023 23.9663 139.349 24.0447 139.727 24.0447C139.989 24.0447 140.226 24.0085 140.44 23.9361C140.653 23.8636 140.836 23.757 140.989 23.6161C141.142 23.4752 141.257 23.3022 141.333 23.0969L144.044 23.1754C143.931 23.7831 143.684 24.3124 143.301 24.7631C142.923 25.2099 142.426 25.558 141.81 25.8075C141.194 26.053 140.482 26.1758 139.673 26.1758ZM150.816 16.728V18.9013H144.966V16.728H150.816ZM146.191 14.5064H149.143V23.0849C149.143 23.266 149.172 23.4129 149.228 23.5256C149.288 23.6342 149.375 23.7127 149.488 23.761C149.6 23.8053 149.735 23.8274 149.892 23.8274C150.005 23.8274 150.123 23.8173 150.248 23.7972C150.377 23.7731 150.474 23.7529 150.538 23.7368L150.985 25.8679C150.844 25.9081 150.645 25.9584 150.387 26.0188C150.133 26.0792 149.83 26.1174 149.475 26.1335C148.783 26.1657 148.19 26.0852 147.695 25.892C147.204 25.6948 146.827 25.389 146.566 24.9744C146.308 24.5599 146.183 24.0387 146.191 23.4109V14.5064ZM155.473 13.6371V26.0007H152.521V13.6371H155.473ZM157.352 26.0007V16.728H160.304V26.0007H157.352ZM158.831 15.6474C158.417 15.6474 158.06 15.5105 157.763 15.2369C157.465 14.9592 157.316 14.6251 157.316 14.2347C157.316 13.8484 157.465 13.5183 157.763 13.2447C158.06 12.967 158.417 12.8281 158.831 12.8281C159.25 12.8281 159.606 12.967 159.9 13.2447C160.198 13.5183 160.346 13.8484 160.346 14.2347C160.346 14.6251 160.198 14.9592 159.9 15.2369C159.606 15.5105 159.25 15.6474 158.831 15.6474ZM167.453 16.728V18.9013H161.489V16.728H167.453ZM162.733 26.0007V16.2571C162.733 15.5407 162.867 14.9471 163.137 14.4762C163.407 14.0013 163.781 13.6471 164.26 13.4137C164.739 13.1762 165.292 13.0575 165.92 13.0575C166.331 13.0575 166.717 13.0897 167.079 13.1541C167.445 13.2145 167.717 13.2688 167.894 13.3171L167.423 15.4783C167.315 15.4421 167.182 15.4119 167.025 15.3878C166.872 15.3636 166.727 15.3516 166.59 15.3516C166.244 15.3516 166.007 15.428 165.878 15.581C165.749 15.7339 165.685 15.9432 165.685 16.2088V26.0007H162.733ZM170.679 29.478C170.324 29.478 169.99 29.4498 169.677 29.3935C169.363 29.3411 169.093 29.2707 168.868 29.1822L169.52 27.039C169.809 27.1356 170.071 27.192 170.304 27.2081C170.542 27.2242 170.745 27.1859 170.914 27.0934C171.087 27.0048 171.22 26.8459 171.313 26.6165L171.427 26.3388L168.131 16.728H171.222L172.93 23.3444H173.027L174.76 16.728H177.869L174.373 26.8881C174.204 27.3952 173.965 27.842 173.655 28.2283C173.349 28.6187 172.953 28.9246 172.466 29.1459C171.983 29.3673 171.387 29.478 170.679 29.478Z" fill="white"/>
</g>
<defs>
<filter id="filter0_d_1_56" x="2.39972" y="0.39972" width="39.202" height="39.202" filterUnits="userSpaceOnUse" color-interpolation-filters="sRGB">
<feFlood flood-opacity="0" result="BackgroundImageFix"/>
<feColorMatrix in="SourceAlpha" type="matrix" values="0 0 0 0 0 0 0 0 0 0 0 0 0 0 0 0 0 0 127 0" result="hardAlpha"/>
<feOffset/>
<feGaussianBlur stdDeviation="2.80014"/>
<feComposite in2="hardAlpha" operator="out"/>
<feColorMatrix type="matrix" values="0 0 0 0 0 0 0 0 0 0 0 0 0 0 0 0 0 0 0.25 0"/>
<feBlend mode="normal" in2="BackgroundImageFix" result="effect1_dropShadow_1_56"/>
<feBlend mode="normal" in="SourceGraphic" in2="effect1_dropShadow_1_56" result="shape"/>
</filter>
<filter id="filter1_d_1_56" x="36.2871" y="3.78642" width="148.429" height="32.4286" filterUnits="userSpaceOnUse" color-interpolation-filters="sRGB">
<feFlood flood-opacity="0" result="BackgroundImageFix"/>
<feColorMatrix in="SourceAlpha" type="matrix" values="0 0 0 0 0 0 0 0 0 0 0 0 0 0 0 0 0 0 127 0" result="hardAlpha"/>
<feOffset/>
<feGaussianBlur stdDeviation="2.85714"/>
<feComposite in2="hardAlpha" operator="out"/>
<feColorMatrix type="matrix" values="0 0 0 0 0 0 0 0 0 0 0 0 0 0 0 0 0 0 0.25 0"/>
<feBlend mode="normal" in2="BackgroundImageFix" result="effect1_dropShadow_1_56"/>
<feBlend mode="normal" in="SourceGraphic" in2="effect1_dropShadow_1_56" result="shape"/>
</filter>
<linearGradient id="paint0_linear_1_56" x1="93.5007" y1="0" x2="93.5007" y2="40.0014" gradientUnits="userSpaceOnUse">
<stop stop-color="#016968"/>
<stop offset="1" stop-color="#0C2A2A"/>
</linearGradient>
</defs>
</svg>
