<svg width="144" height="56" viewBox="0 0 144 56" fill="none" xmlns="http://www.w3.org/2000/svg">
<rect width="144" height="56" rx="8" fill="url(#paint0_linear_1_50)"/>
<rect x="1.05" y="1.05" width="141.9" height="53.9" rx="6.95" stroke="white" stroke-opacity="0.15" stroke-width="2.1"/>
<g filter="url(#filter0_d_1_50)">
<mask id="mask0_1_50" style="mask-type:luminance" maskUnits="userSpaceOnUse" x="12" y="10" width="40" height="36">
<path d="M52 10.5H12V45.6984H52V10.5Z" fill="white"/>
</mask>
<g mask="url(#mask0_1_50)">
<path d="M22.8103 39.8909H22.4326L20.5473 38.0056V37.6279L23.4295 34.7458H25.4262L25.6924 35.012V37.0088L22.8103 39.8909Z" fill="#32E6E2"/>
<path d="M20.5473 18.5675V18.1898L22.4326 16.3045H22.8103L25.6924 19.1866V21.1834L25.4262 21.4496H23.4295L20.5473 18.5675Z" fill="#32E6E2"/>
<path d="M37.1436 33.814H34.4007L34.1717 33.5849V27.1643C34.1717 26.022 33.7228 25.1366 32.3452 25.1057C31.6362 25.0871 30.8252 25.1057 29.9584 25.1397L29.8283 25.2728V33.5818L29.5992 33.8109H26.8564L26.6273 33.5818V22.6136L26.8564 22.3845H33.0293C35.4285 22.3845 37.3727 24.3287 37.3727 26.7278V33.5849L37.1436 33.814Z" fill="white"/>
<path d="M23.2004 29.7028H12.2291L12 29.4737V26.7247L12.2291 26.4957H23.2004L23.4295 26.7247V29.4737L23.2004 29.7028Z" fill="#32E6E2"/>
<path d="M51.7741 29.7028H40.8027L40.5736 29.4737V26.7247L40.8027 26.4957H51.7741L52.0031 26.7247V29.4737L51.7741 29.7028Z" fill="#32E6E2"/>
<path d="M30.4196 18.9576V10.7291L30.6487 10.5H33.3977L33.6268 10.7291V18.9576L33.3977 19.1866H30.6487L30.4196 18.9576Z" fill="#32E6E2"/>
<path d="M30.4196 45.4694V37.241L30.6487 37.0119H33.3977L33.6268 37.241V45.4694L33.3977 45.6984H30.6487L30.4196 45.4694Z" fill="#32E6E2"/>
</g>
</g>
<g filter="url(#filter1_d_1_50)">
<path d="M61.2784 24.5V12.8636H65.5398C66.3655 12.8636 67.0492 13 67.5909 13.2727C68.1326 13.5417 68.5379 13.9072 68.8068 14.3693C69.0757 14.8276 69.2102 15.3447 69.2102 15.9204C69.2102 16.4053 69.1212 16.8144 68.9432 17.1477C68.7651 17.4773 68.5265 17.7424 68.2273 17.9432C67.9318 18.1401 67.606 18.2841 67.25 18.375V18.4886C67.6363 18.5076 68.0132 18.6326 68.3807 18.8636C68.7519 19.0909 69.0587 19.4148 69.3011 19.8352C69.5435 20.2557 69.6648 20.767 69.6648 21.3693C69.6648 21.964 69.5246 22.4981 69.2443 22.9716C68.9678 23.4413 68.5398 23.8144 67.9602 24.0909C67.3807 24.3636 66.6401 24.5 65.7386 24.5H61.2784ZM63.0341 22.9943H65.5682C66.4091 22.9943 67.0113 22.8314 67.375 22.5057C67.7386 22.1799 67.9204 21.7727 67.9204 21.2841C67.9204 20.9167 67.8276 20.5795 67.642 20.2727C67.4564 19.9659 67.1913 19.7216 66.8466 19.5398C66.5057 19.3579 66.1004 19.267 65.6307 19.267H63.0341V22.9943ZM63.0341 17.8977H65.3863C65.7803 17.8977 66.1345 17.822 66.4488 17.6704C66.767 17.5189 67.0189 17.3068 67.2045 17.0341C67.3939 16.7576 67.4886 16.4318 67.4886 16.0568C67.4886 15.5758 67.3201 15.1723 66.9829 14.8466C66.6458 14.5208 66.1288 14.3579 65.4318 14.3579H63.0341V17.8977ZM77.1392 20.8807V15.7727H78.8437V24.5H77.1733V22.9886H77.0824C76.8816 23.4545 76.5596 23.8428 76.1165 24.1534C75.6771 24.4602 75.1297 24.6136 74.4744 24.6136C73.9138 24.6136 73.4176 24.4905 72.9858 24.2443C72.5577 23.9943 72.2206 23.625 71.9744 23.1364C71.732 22.6477 71.6108 22.0436 71.6108 21.3239V15.7727H73.3096V21.1193C73.3096 21.714 73.4744 22.1875 73.804 22.5398C74.1335 22.892 74.5615 23.0682 75.088 23.0682C75.4062 23.0682 75.7225 22.9886 76.0369 22.8295C76.3551 22.6704 76.6184 22.4299 76.8267 22.1079C77.0388 21.786 77.143 21.3769 77.1392 20.8807ZM81.1264 24.5V15.7727H82.8253V24.5H81.1264ZM81.9844 14.4261C81.6889 14.4261 81.4351 14.3276 81.223 14.1307C81.0147 13.9299 80.9105 13.6913 80.9105 13.4148C80.9105 13.1345 81.0147 12.8958 81.223 12.6989C81.4351 12.4981 81.6889 12.3977 81.9844 12.3977C82.2798 12.3977 82.5317 12.4981 82.74 12.6989C82.9522 12.8958 83.0582 13.1345 83.0582 13.4148C83.0582 13.6913 82.9522 13.9299 82.74 14.1307C82.5317 14.3276 82.2798 14.4261 81.9844 14.4261ZM86.8096 12.8636V24.5H85.1108V12.8636H86.8096ZM93.169 15.7727V17.1364H88.402V15.7727H93.169ZM89.6804 13.6818H91.3792V21.9375C91.3792 22.267 91.4285 22.5151 91.527 22.6818C91.6254 22.8447 91.7523 22.9564 91.9076 23.017C92.0667 23.0739 92.2391 23.1023 92.4247 23.1023C92.5611 23.1023 92.6804 23.0928 92.7826 23.0739C92.8849 23.0549 92.9645 23.0398 93.0213 23.0284L93.3281 24.4318C93.2296 24.4697 93.0895 24.5076 92.9076 24.5454C92.7258 24.5871 92.4986 24.6098 92.2258 24.6136C91.7789 24.6212 91.3622 24.5417 90.9758 24.375C90.5895 24.2083 90.277 23.9508 90.0383 23.6023C89.7997 23.2538 89.6804 22.8163 89.6804 22.2898V13.6818ZM101.175 24.5L98.6065 15.7727H100.362L102.072 22.1818H102.158L103.874 15.7727H105.629L107.334 22.1534H107.419L109.118 15.7727H110.874L108.311 24.5H106.578L104.805 18.1989H104.675L102.902 24.5H101.175ZM112.486 24.5V15.7727H114.185V24.5H112.486ZM113.344 14.4261C113.048 14.4261 112.794 14.3276 112.582 14.1307C112.374 13.9299 112.27 13.6913 112.27 13.4148C112.27 13.1345 112.374 12.8958 112.582 12.6989C112.794 12.4981 113.048 12.3977 113.344 12.3977C113.639 12.3977 113.891 12.4981 114.099 12.6989C114.312 12.8958 114.418 13.1345 114.418 13.4148C114.418 13.6913 114.312 13.9299 114.099 14.1307C113.891 14.3276 113.639 14.4261 113.344 14.4261ZM120.544 15.7727V17.1364H115.777V15.7727H120.544ZM117.055 13.6818H118.754V21.9375C118.754 22.267 118.803 22.5151 118.902 22.6818C119 22.8447 119.127 22.9564 119.283 23.017C119.442 23.0739 119.614 23.1023 119.8 23.1023C119.936 23.1023 120.055 23.0928 120.158 23.0739C120.26 23.0549 120.339 23.0398 120.396 23.0284L120.703 24.4318C120.605 24.4697 120.464 24.5076 120.283 24.5454C120.101 24.5871 119.874 24.6098 119.601 24.6136C119.154 24.6212 118.737 24.5417 118.351 24.375C117.964 24.2083 117.652 23.9508 117.413 23.6023C117.175 23.2538 117.055 22.8163 117.055 22.2898V13.6818ZM124.31 19.3182V24.5H122.611V12.8636H124.287V17.1932H124.395C124.599 16.7235 124.912 16.3504 125.332 16.0739C125.753 15.7973 126.302 15.6591 126.98 15.6591C127.579 15.6591 128.101 15.7822 128.548 16.0284C128.999 16.2746 129.348 16.642 129.594 17.1307C129.844 17.6155 129.969 18.2216 129.969 18.9489V24.5H128.27V19.1534C128.27 18.5133 128.105 18.017 127.776 17.6648C127.446 17.3087 126.988 17.1307 126.401 17.1307C125.999 17.1307 125.639 17.2159 125.321 17.3864C125.007 17.5568 124.758 17.8068 124.577 18.1364C124.399 18.4621 124.31 18.8561 124.31 19.3182Z" fill="#E8E8E8"/>
<path d="M71.4581 31.1364V43.5H68.9226L64.0025 36.3643H63.924V43.5H60.9357V31.1364H63.5074L68.3732 38.2599H68.4758V31.1364H71.4581ZM77.6716 43.6751C76.7017 43.6751 75.8645 43.4839 75.1602 43.1016C74.4599 42.7152 73.9206 42.1658 73.5423 41.4535C73.168 40.7371 72.9809 39.8859 72.9809 38.8998C72.9809 37.942 73.1701 37.1049 73.5484 36.3885C73.9267 35.6681 74.4599 35.1087 75.1482 34.7102C75.8364 34.3078 76.6473 34.1065 77.581 34.1065C78.2411 34.1065 78.8448 34.2092 79.3921 34.4144C79.9395 34.6197 80.4124 34.9235 80.8108 35.326C81.2092 35.7284 81.5191 36.2255 81.7405 36.8171C81.9618 37.4047 82.0725 38.0788 82.0725 38.8395V39.576H74.0132V37.8615H79.3257C79.3217 37.5476 79.2472 37.2679 79.1023 37.0224C78.9575 36.7769 78.7582 36.5857 78.5047 36.4489C78.2552 36.308 77.9674 36.2376 77.6414 36.2376C77.3114 36.2376 77.0156 36.312 76.754 36.4609C76.4924 36.6058 76.2851 36.805 76.1322 37.0586C75.9792 37.3081 75.8987 37.5918 75.8907 37.9098V39.6545C75.8907 40.0328 75.9651 40.3648 76.1141 40.6506C76.263 40.9323 76.4743 41.1516 76.7479 41.3086C77.0216 41.4655 77.3476 41.544 77.7259 41.544C77.9875 41.544 78.225 41.5078 78.4383 41.4354C78.6516 41.3629 78.8347 41.2563 78.9876 41.1154C79.1406 40.9745 79.2553 40.8015 79.3317 40.5962L82.0423 40.6747C81.9296 41.2824 81.6821 41.8117 81.2998 42.2624C80.9215 42.7092 80.4244 43.0573 79.8087 43.3068C79.1929 43.5523 78.4805 43.6751 77.6716 43.6751ZM88.8143 34.2273V36.4006H82.9645V34.2273H88.8143ZM84.19 32.0057H87.142V40.5842C87.142 40.7653 87.1702 40.9122 87.2265 41.0248C87.2869 41.1335 87.3734 41.212 87.4861 41.2603C87.5988 41.3046 87.7336 41.3267 87.8906 41.3267C88.0033 41.3267 88.122 41.3166 88.2468 41.2965C88.3756 41.2724 88.4722 41.2522 88.5366 41.2361L88.9833 43.3672C88.8424 43.4074 88.6432 43.4577 88.3856 43.5181C88.1321 43.5785 87.8282 43.6167 87.4741 43.6328C86.7818 43.665 86.1882 43.5845 85.6932 43.3913C85.2022 43.1941 84.8259 42.8882 84.5643 42.4737C84.3067 42.0592 84.1819 41.538 84.19 40.9101V32.0057ZM93.4717 31.1364V43.5H90.5197V31.1364H93.4717ZM95.3507 43.5V34.2273H98.3028V43.5H95.3507ZM96.8298 33.1467C96.4152 33.1467 96.0591 33.0098 95.7612 32.7361C95.4634 32.4584 95.3145 32.1244 95.3145 31.734C95.3145 31.3476 95.4634 31.0176 95.7612 30.744C96.0591 30.4663 96.4152 30.3274 96.8298 30.3274C97.2483 30.3274 97.6045 30.4663 97.8983 30.744C98.1961 31.0176 98.3451 31.3476 98.3451 31.734C98.3451 32.1244 98.1961 32.4584 97.8983 32.7361C97.6045 33.0098 97.2483 33.1467 96.8298 33.1467ZM105.452 34.2273V36.4006H99.4875V34.2273H105.452ZM100.731 43.5V33.7564C100.731 33.04 100.866 32.4464 101.136 31.9755C101.405 31.5006 101.78 31.1464 102.258 30.913C102.737 30.6755 103.291 30.5568 103.919 30.5568C104.329 30.5568 104.716 30.589 105.078 30.6534C105.444 30.7138 105.716 30.7681 105.893 30.8164L105.422 32.9776C105.313 32.9414 105.18 32.9112 105.023 32.8871C104.87 32.8629 104.726 32.8508 104.589 32.8508C104.243 32.8508 104.005 32.9273 103.876 33.0802C103.748 33.2332 103.683 33.4425 103.683 33.7081V43.5H100.731ZM108.677 46.9773C108.323 46.9773 107.989 46.9491 107.675 46.8927C107.361 46.8404 107.092 46.77 106.866 46.6815L107.518 44.5383C107.808 44.6349 108.07 44.6913 108.303 44.7074C108.54 44.7235 108.744 44.6852 108.913 44.5927C109.086 44.5041 109.219 44.3452 109.311 44.1158L109.426 43.8381L106.13 34.2273H109.221L110.929 40.8437H111.026L112.758 34.2273H115.867L112.372 44.3874C112.203 44.8945 111.963 45.3413 111.653 45.7276C111.348 46.118 110.951 46.4239 110.464 46.6452C109.981 46.8666 109.386 46.9773 108.677 46.9773Z" fill="white"/>
</g>
<defs>
<filter id="filter0_d_1_50" x="6.28571" y="2.28571" width="51.4286" height="51.4286" filterUnits="userSpaceOnUse" color-interpolation-filters="sRGB">
<feFlood flood-opacity="0" result="BackgroundImageFix"/>
<feColorMatrix in="SourceAlpha" type="matrix" values="0 0 0 0 0 0 0 0 0 0 0 0 0 0 0 0 0 0 127 0" result="hardAlpha"/>
<feOffset/>
<feGaussianBlur stdDeviation="2.85714"/>
<feComposite in2="hardAlpha" operator="out"/>
<feColorMatrix type="matrix" values="0 0 0 0 0 0 0 0 0 0 0 0 0 0 0 0 0 0 0.25 0"/>
<feBlend mode="normal" in2="BackgroundImageFix" result="effect1_dropShadow_1_50"/>
<feBlend mode="normal" in="SourceGraphic" in2="effect1_dropShadow_1_50" result="shape"/>
</filter>
<filter id="filter1_d_1_50" x="54.4" y="3.9" width="83.2" height="48.6773" filterUnits="userSpaceOnUse" color-interpolation-filters="sRGB">
<feFlood flood-opacity="0" result="BackgroundImageFix"/>
<feColorMatrix in="SourceAlpha" type="matrix" values="0 0 0 0 0 0 0 0 0 0 0 0 0 0 0 0 0 0 127 0" result="hardAlpha"/>
<feOffset/>
<feGaussianBlur stdDeviation="2.8"/>
<feComposite in2="hardAlpha" operator="out"/>
<feColorMatrix type="matrix" values="0 0 0 0 0 0 0 0 0 0 0 0 0 0 0 0 0 0 0.25 0"/>
<feBlend mode="normal" in2="BackgroundImageFix" result="effect1_dropShadow_1_50"/>
<feBlend mode="normal" in="SourceGraphic" in2="effect1_dropShadow_1_50" result="shape"/>
</filter>
<linearGradient id="paint0_linear_1_50" x1="72" y1="0" x2="72" y2="56" gradientUnits="userSpaceOnUse">
<stop stop-color="#016968"/>
<stop offset="1" stop-color="#0C2A2A"/>
</linearGradient>
</defs>
</svg>
