<svg width="40" height="40" viewBox="0 0 40 40" fill="none" xmlns="http://www.w3.org/2000/svg">
<rect width="40" height="40" rx="8" fill="url(#paint0_linear_1_68)"/>
<rect x="1.05" y="1.05" width="37.9" height="37.9" rx="6.95" stroke="white" stroke-opacity="0.15" stroke-width="2.1"/>
<g filter="url(#filter0_d_1_68)">
<path d="M19.7536 6.47656C27.0862 6.47656 33.0306 12.421 33.0306 19.7536C33.0306 27.0862 27.0862 33.0306 19.7536 33.0306C12.421 33.0306 6.47656 27.0862 6.47656 19.7536C6.47656 12.421 12.421 6.47656 19.7536 6.47656ZM19.7536 6C12.1701 6 6 12.1701 6 19.7536C6 27.3371 12.1701 33.5072 19.7536 33.5072C27.3371 33.5072 33.5072 27.3371 33.5072 19.7536C33.5072 12.1701 27.3371 6 19.7536 6Z" fill="#0C9EF0"/>
<path d="M27.2139 26.7866C27.1926 26.7911 27.1714 26.7962 27.1501 26.8006C27.1893 26.9367 27.2257 27.0661 27.2582 27.196C27.3354 27.5062 27.4127 27.8165 27.49 28.1262C28.0147 27.6395 28.4941 27.1047 28.9208 26.5285C28.5714 26.5699 28.2135 26.6125 27.863 26.6623C27.6474 26.6926 27.4368 26.7385 27.2139 26.7866Z" fill="#0C9EF0"/>
<path d="M28.2807 21.8637C23.9452 21.162 19.3851 22.5665 15.6858 24.7992C14.8183 25.3228 13.8635 25.8419 13.2453 26.6696C12.8242 27.2352 12.603 27.9083 12.4674 28.5949C12.8225 28.8855 13.1954 29.1549 13.5846 29.4018C13.5852 29.3638 13.5858 29.3257 13.5869 29.2882C13.602 28.8183 13.6608 28.3406 13.8495 27.9061C14.0584 27.4245 14.3972 27.1282 14.8155 26.8309C15.6818 26.2143 16.6473 25.7226 17.5802 25.2349C17.6441 25.2013 17.7348 25.2018 17.8126 25.1867C17.83 25.2573 17.867 25.329 17.8619 25.3984C17.8384 25.7221 17.8457 26.048 17.853 26.3728C17.8782 27.537 17.9543 28.7013 18.0327 29.8644C18.0596 30.2654 18.0876 30.6663 18.115 31.0667C18.6364 31.1395 19.1684 31.1776 19.7099 31.1776C22.3391 31.1776 24.7611 30.2906 26.6937 28.8004C26.5318 28.2382 26.3694 27.6765 26.207 27.1148C26.2003 27.0907 26.1919 27.0672 26.1835 27.0431C26.1589 27.0487 26.1342 27.0549 26.1102 27.0616C24.6922 27.4553 23.2508 28.0086 21.703 28.7534C21.6895 28.7601 21.6761 28.7674 21.6621 28.7741C21.5943 28.8099 21.5019 28.8586 21.3905 28.8592H21.3882C21.2522 28.8592 21.0696 28.7836 20.9985 28.6425C20.9251 28.4958 20.9794 28.2919 21.0718 28.1866C21.1474 28.1004 21.2454 28.0478 21.3244 28.0058L21.3681 27.9822C22.7479 27.2094 24.2151 26.5934 25.7288 26.1522C25.7702 26.1398 25.8111 26.1275 25.8526 26.1146C25.8262 26.0469 25.7994 25.9786 25.773 25.9097C25.6577 25.6112 25.5378 25.3021 25.4057 25.0047C25.236 24.6234 25.0434 24.2414 24.8563 23.8724L24.76 23.6814C24.6978 23.5582 24.6346 23.3964 24.6973 23.2362C24.7247 23.1657 24.788 23.0705 24.9319 23.0167C25.1324 22.9422 25.4309 23.0912 25.5177 23.262C25.9926 24.1972 26.3997 25.0327 26.7626 25.8167C26.7782 25.8509 26.7894 25.8705 26.7967 25.8811C26.8074 25.88 26.8247 25.8778 26.8499 25.8722C27.7605 25.665 28.6638 25.5765 29.534 25.6095C29.9491 24.9178 30.2896 24.184 30.5498 23.4205C29.9254 22.6191 29.1812 22.0098 28.2807 21.8637Z" fill="#0C9EF0"/>
<path d="M31.0639 18.6235C31.0387 18.3743 30.9984 18.1268 30.9519 17.8798C30.9172 17.6967 30.8791 17.5142 30.8416 17.3322C30.8007 17.1356 30.7654 16.9379 30.7173 16.743C30.6484 16.4614 30.5683 16.1825 30.4765 15.9075C30.3863 15.6365 30.2844 15.3694 30.1724 15.1062C30.0615 14.8463 29.94 14.591 29.809 14.3412C29.6785 14.0931 29.5385 13.8506 29.3895 13.6138C29.2411 13.3786 29.0838 13.149 28.9174 12.9261C28.7517 12.7038 28.5781 12.4882 28.3961 12.2793C28.2146 12.071 28.0254 11.8694 27.8288 11.675C27.6328 11.4813 27.4295 11.2942 27.2195 11.1156C27.0101 10.9364 26.7934 10.7656 26.5716 10.6021C26.3493 10.4386 26.1214 10.2834 25.8884 10.1362C25.6549 9.98888 25.4163 9.85 25.1733 9.72008C24.9297 9.5896 24.6816 9.46808 24.4296 9.35496C23.9243 9.12847 23.4037 8.93778 22.8717 8.78432C22.3374 8.6305 21.7928 8.51504 21.2421 8.4388C20.9654 8.40072 20.6877 8.37216 20.4094 8.35424C20.1294 8.33632 19.8494 8.32848 19.5688 8.33072C19.2871 8.33352 19.0049 8.3464 18.7243 8.36992C18.4415 8.394 18.1593 8.42816 17.8793 8.47408C17.3101 8.56638 16.7489 8.70287 16.201 8.88232C15.9215 8.9736 15.646 9.07608 15.375 9.18976C15.0989 9.30512 14.8278 9.43112 14.5624 9.56832C14.437 9.63272 14.3138 9.7016 14.19 9.7688C10.9297 11.6487 8.78543 14.9953 8.44047 18.7434C8.38335 19.823 8.45895 20.9055 8.66279 21.9673L8.66111 21.9678C8.66111 21.9678 8.88007 23.2564 9.00327 23.4972C9.60639 25.7758 10.657 27.7879 12.0374 27.415C12.0635 27.4071 12.0877 27.3938 12.1083 27.3758C12.1288 27.3578 12.1453 27.3356 12.1566 27.3107C12.1678 27.2858 12.1736 27.2588 12.1735 27.2315C12.1734 27.2041 12.1675 27.1771 12.1561 27.1523C11.9122 27.0822 11.7001 26.9298 11.5558 26.7211C10.7925 25.441 14.6766 22.6992 19.9821 20.6815C24.8546 18.8257 29.2551 18.2242 30.257 19.2087C30.4552 19.3711 30.5319 19.6399 30.449 19.8824C30.2567 20.5202 29.8853 21.0893 29.3789 21.5221C29.3369 21.5624 29.3128 21.6178 29.3128 21.6755C29.3128 21.7338 29.3363 21.7892 29.3783 21.8295C29.415 21.8664 29.4641 21.8881 29.516 21.8906C29.5679 21.8931 29.6189 21.8761 29.6589 21.843C30.2856 21.3463 30.7519 20.6758 30.9995 19.9154C31.0314 19.8174 31.0382 19.7015 31.051 19.599C31.0645 19.491 31.074 19.3829 31.0796 19.2742C31.0908 19.0581 31.0858 18.8402 31.0639 18.6235ZM13.1674 22.8118C12.5184 23.2721 11.3866 24.097 10.9129 25.0176C10.7281 25.3726 10.555 25.096 10.4475 24.8944C10.1933 24.3329 9.986 23.7513 9.82759 23.1556C9.82693 23.1543 9.82637 23.153 9.82591 23.1517C9.74975 22.875 9.50279 21.96 9.47871 21.6884C9.47927 21.6878 9.47983 21.6867 9.48039 21.6867C9.28459 20.6918 9.21255 19.6765 9.26591 18.6638C9.58847 15.2047 11.5692 12.1169 14.5781 10.3809C14.8497 10.2291 15.123 10.0908 15.3979 9.96536C15.6673 9.84272 16.7626 9.43448 15.679 10.3949C13.8854 12.0227 12.7698 14.2656 12.5537 16.6781C12.4484 17.9118 12.8068 20.2212 13.4396 21.9158C13.639 22.4466 13.476 22.5945 13.1674 22.8118ZM26.011 17.1177C25.973 17.1761 25.9233 17.2259 25.8649 17.264C25.8066 17.3021 25.741 17.3276 25.6722 17.3389C24.4482 17.5089 23.2431 17.7949 22.0731 18.1929C21.9365 18.2343 21.7886 18.2158 21.666 18.1419C21.6057 18.1051 21.5537 18.056 21.5136 17.9979C21.4735 17.9397 21.446 17.8737 21.433 17.8042L21.3406 17.382C21.3182 17.275 21.372 17.167 21.4711 17.121C22.8394 16.5739 24.2838 16.2406 25.7534 16.1326C25.8065 16.1301 25.8587 16.1468 25.9004 16.1798C25.9421 16.2127 25.9704 16.2596 25.9802 16.3118L26.0766 16.7184C26.1118 16.855 26.0883 17.0001 26.011 17.1177ZM28.3406 14.9678C28.3251 15.0092 28.2956 15.0439 28.2573 15.066C28.219 15.0881 28.1742 15.0961 28.1306 15.0888C24.7522 14.5865 20.0291 16.3191 20.0291 16.3191C18.3953 16.8502 16.8356 17.5865 15.3873 18.5104C15.3097 18.5613 15.2208 18.5923 15.1284 18.6006C15.036 18.6089 14.943 18.5943 14.8576 18.5581C14.7722 18.5219 14.6971 18.4652 14.6388 18.393C14.5806 18.3208 14.5411 18.2353 14.5238 18.1442C14.4426 17.713 14.3927 17.2767 14.3737 16.8388C14.2795 15.6494 14.507 14.4566 15.0322 13.3853C15.0642 13.3259 15.0961 13.2666 15.1325 13.2094C15.137 13.1943 15.1442 13.1803 15.1532 13.1674L15.1694 13.1378L15.2103 13.0689L15.2299 13.0386C16.8674 10.3568 20.5432 9.2872 23.4776 10.1608C24.9483 10.6118 26.2694 11.4527 27.3007 12.594C27.462 12.7833 28.5501 14.2964 28.3406 14.9678Z" fill="#0C9EF0"/>
<path d="M26.5839 13.135L26.5811 13.1411C26.0783 12.284 25.3118 11.6123 24.396 11.2265C23.3746 10.7964 22.2624 10.6273 21.1592 10.7342C20.7672 10.765 20.3819 10.8502 20.0134 10.9862C19.9778 10.9965 19.947 11.0192 19.9267 11.0503C19.9063 11.0813 19.8978 11.1186 19.9026 11.1554C19.9074 11.1921 19.9252 11.226 19.9529 11.2508C19.9805 11.2755 20.0161 11.2895 20.0532 11.2903C20.8842 11.2024 21.7231 11.2248 22.5486 11.357C25.5877 11.9646 26.5604 13.4267 26.6668 13.4844C26.697 13.4995 26.7334 13.4693 26.7183 13.439C26.6786 13.3355 26.6337 13.234 26.5839 13.135Z" fill="#0C9EF0"/>
</g>
<defs>
<filter id="filter0_d_1_68" x="2" y="2" width="36" height="36" filterUnits="userSpaceOnUse" color-interpolation-filters="sRGB">
<feFlood flood-opacity="0" result="BackgroundImageFix"/>
<feColorMatrix in="SourceAlpha" type="matrix" values="0 0 0 0 0 0 0 0 0 0 0 0 0 0 0 0 0 0 127 0" result="hardAlpha"/>
<feOffset/>
<feGaussianBlur stdDeviation="2"/>
<feComposite in2="hardAlpha" operator="out"/>
<feColorMatrix type="matrix" values="0 0 0 0 0 0 0 0 0 0 0 0 0 0 0 0 0 0 0.25 0"/>
<feBlend mode="normal" in2="BackgroundImageFix" result="effect1_dropShadow_1_68"/>
<feBlend mode="normal" in="SourceGraphic" in2="effect1_dropShadow_1_68" result="shape"/>
</filter>
<linearGradient id="paint0_linear_1_68" x1="20" y1="0" x2="20" y2="40" gradientUnits="userSpaceOnUse">
<stop stop-color="#075F90"/>
<stop offset="1" stop-color="#03273C"/>
</linearGradient>
</defs>
</svg>
