<svg width="253" height="40" viewBox="0 0 253 40" fill="none" xmlns="http://www.w3.org/2000/svg">
<rect width="253.001" height="40.0014" rx="8" fill="url(#paint0_linear_1_56)"/>
<rect x="1.07143" y="1.07143" width="250.858" height="37.8585" rx="6.92857" stroke="white" stroke-opacity="0.15" stroke-width="2.14286"/>
<g filter="url(#filter0_d_1_56)">
<path d="M21.7536 6.47656C29.0862 6.47656 35.0306 12.421 35.0306 19.7536C35.0306 27.0862 29.0862 33.0306 21.7536 33.0306C14.421 33.0306 8.47656 27.0862 8.47656 19.7536C8.47656 12.421 14.421 6.47656 21.7536 6.47656ZM21.7536 6C14.1701 6 8 12.1701 8 19.7536C8 27.3371 14.1701 33.5072 21.7536 33.5072C29.3371 33.5072 35.5072 27.3371 35.5072 19.7536C35.5072 12.1701 29.3371 6 21.7536 6Z" fill="#0C9EF0"/>
<path d="M29.2139 26.7866C29.1926 26.7911 29.1714 26.7962 29.1501 26.8006C29.1893 26.9367 29.2257 27.0661 29.2582 27.196C29.3354 27.5062 29.4127 27.8165 29.49 28.1262C30.0147 27.6395 30.4941 27.1047 30.9208 26.5285C30.5714 26.5699 30.2135 26.6125 29.863 26.6623C29.6474 26.6926 29.4368 26.7385 29.2139 26.7866Z" fill="#0C9EF0"/>
<path d="M30.2807 21.8637C25.9452 21.162 21.3851 22.5665 17.6858 24.7992C16.8183 25.3228 15.8635 25.8419 15.2453 26.6696C14.8242 27.2352 14.603 27.9083 14.4674 28.5949C14.8225 28.8855 15.1954 29.1549 15.5846 29.4018C15.5852 29.3638 15.5858 29.3257 15.5869 29.2882C15.602 28.8183 15.6608 28.3406 15.8495 27.9061C16.0584 27.4245 16.3972 27.1282 16.8155 26.8309C17.6818 26.2143 18.6473 25.7226 19.5802 25.2349C19.6441 25.2013 19.7348 25.2018 19.8126 25.1867C19.83 25.2573 19.867 25.329 19.8619 25.3984C19.8384 25.7221 19.8457 26.048 19.853 26.3728C19.8782 27.537 19.9543 28.7013 20.0327 29.8644C20.0596 30.2654 20.0876 30.6663 20.115 31.0667C20.6364 31.1395 21.1684 31.1776 21.7099 31.1776C24.3391 31.1776 26.7611 30.2906 28.6937 28.8004C28.5318 28.2382 28.3694 27.6765 28.207 27.1148C28.2003 27.0907 28.1919 27.0672 28.1835 27.0431C28.1589 27.0487 28.1342 27.0549 28.1102 27.0616C26.6922 27.4553 25.2508 28.0086 23.703 28.7534C23.6895 28.7601 23.6761 28.7674 23.6621 28.7741C23.5943 28.8099 23.5019 28.8586 23.3905 28.8592H23.3882C23.2522 28.8592 23.0696 28.7836 22.9985 28.6425C22.9251 28.4958 22.9794 28.2919 23.0718 28.1866C23.1474 28.1004 23.2454 28.0478 23.3244 28.0058L23.3681 27.9822C24.7479 27.2094 26.2151 26.5934 27.7288 26.1522C27.7702 26.1398 27.8111 26.1275 27.8526 26.1146C27.8262 26.0469 27.7994 25.9786 27.773 25.9097C27.6577 25.6112 27.5378 25.3021 27.4057 25.0047C27.236 24.6234 27.0434 24.2414 26.8563 23.8724L26.76 23.6814C26.6978 23.5582 26.6346 23.3964 26.6973 23.2362C26.7247 23.1657 26.788 23.0705 26.9319 23.0167C27.1324 22.9422 27.4309 23.0912 27.5177 23.262C27.9926 24.1972 28.3997 25.0327 28.7626 25.8167C28.7782 25.8509 28.7894 25.8705 28.7967 25.8811C28.8074 25.88 28.8247 25.8778 28.8499 25.8722C29.7605 25.665 30.6638 25.5765 31.534 25.6095C31.9491 24.9178 32.2896 24.184 32.5498 23.4205C31.9254 22.6191 31.1812 22.0098 30.2807 21.8637Z" fill="#0C9EF0"/>
<path d="M33.0639 18.6235C33.0387 18.3743 32.9984 18.1268 32.9519 17.8798C32.9172 17.6967 32.8791 17.5142 32.8416 17.3322C32.8007 17.1356 32.7654 16.9379 32.7173 16.743C32.6484 16.4614 32.5683 16.1825 32.4765 15.9075C32.3863 15.6365 32.2844 15.3694 32.1724 15.1062C32.0615 14.8463 31.94 14.591 31.809 14.3412C31.6785 14.0931 31.5385 13.8506 31.3895 13.6138C31.2411 13.3786 31.0838 13.149 30.9174 12.9261C30.7517 12.7038 30.5781 12.4882 30.3961 12.2793C30.2146 12.071 30.0254 11.8694 29.8288 11.675C29.6328 11.4813 29.4295 11.2942 29.2195 11.1156C29.0101 10.9364 28.7934 10.7656 28.5716 10.6021C28.3493 10.4386 28.1214 10.2834 27.8884 10.1362C27.6549 9.98888 27.4163 9.85 27.1733 9.72008C26.9297 9.5896 26.6816 9.46808 26.4296 9.35496C25.9243 9.12847 25.4037 8.93778 24.8717 8.78432C24.3374 8.6305 23.7928 8.51504 23.2421 8.4388C22.9654 8.40072 22.6877 8.37216 22.4094 8.35424C22.1294 8.33632 21.8494 8.32848 21.5688 8.33072C21.2871 8.33352 21.0049 8.3464 20.7243 8.36992C20.4415 8.394 20.1593 8.42816 19.8793 8.47408C19.3101 8.56638 18.7489 8.70287 18.201 8.88232C17.9215 8.9736 17.646 9.07608 17.375 9.18976C17.0989 9.30512 16.8278 9.43112 16.5624 9.56832C16.437 9.63272 16.3138 9.7016 16.19 9.7688C12.9297 11.6487 10.7854 14.9953 10.4405 18.7434C10.3834 19.823 10.459 20.9055 10.6628 21.9673L10.6611 21.9678C10.6611 21.9678 10.8801 23.2564 11.0033 23.4972C11.6064 25.7758 12.657 27.7879 14.0374 27.415C14.0635 27.4071 14.0877 27.3938 14.1083 27.3758C14.1288 27.3578 14.1453 27.3356 14.1566 27.3107C14.1678 27.2858 14.1736 27.2588 14.1735 27.2315C14.1734 27.2041 14.1675 27.1771 14.1561 27.1523C13.9122 27.0822 13.7001 26.9298 13.5558 26.7211C12.7925 25.441 16.6766 22.6992 21.9821 20.6815C26.8546 18.8257 31.2551 18.2242 32.257 19.2087C32.4552 19.3711 32.5319 19.6399 32.449 19.8824C32.2567 20.5202 31.8853 21.0893 31.3789 21.5221C31.3369 21.5624 31.3128 21.6178 31.3128 21.6755C31.3128 21.7338 31.3363 21.7892 31.3783 21.8295C31.415 21.8664 31.4641 21.8881 31.516 21.8906C31.5679 21.8931 31.6189 21.8761 31.6589 21.843C32.2856 21.3463 32.7519 20.6758 32.9995 19.9154C33.0314 19.8174 33.0382 19.7015 33.051 19.599C33.0645 19.491 33.074 19.3829 33.0796 19.2742C33.0908 19.0581 33.0858 18.8402 33.0639 18.6235ZM15.1674 22.8118C14.5184 23.2721 13.3866 24.097 12.9129 25.0176C12.7281 25.3726 12.555 25.096 12.4475 24.8944C12.1933 24.3329 11.986 23.7513 11.8276 23.1556C11.8269 23.1543 11.8264 23.153 11.8259 23.1517C11.7498 22.875 11.5028 21.96 11.4787 21.6884C11.4793 21.6878 11.4798 21.6867 11.4804 21.6867C11.2846 20.6918 11.2125 19.6765 11.2659 18.6638C11.5885 15.2047 13.5692 12.1169 16.5781 10.3809C16.8497 10.2291 17.123 10.0908 17.3979 9.96536C17.6673 9.84272 18.7626 9.43448 17.679 10.3949C15.8854 12.0227 14.7698 14.2656 14.5537 16.6781C14.4484 17.9118 14.8068 20.2212 15.4396 21.9158C15.639 22.4466 15.476 22.5945 15.1674 22.8118ZM28.011 17.1177C27.973 17.1761 27.9233 17.2259 27.8649 17.264C27.8066 17.3021 27.741 17.3276 27.6722 17.3389C26.4482 17.5089 25.2431 17.7949 24.0731 18.1929C23.9365 18.2343 23.7886 18.2158 23.666 18.1419C23.6057 18.1051 23.5537 18.056 23.5136 17.9979C23.4735 17.9397 23.446 17.8737 23.433 17.8042L23.3406 17.382C23.3182 17.275 23.372 17.167 23.4711 17.121C24.8394 16.5739 26.2838 16.2406 27.7534 16.1326C27.8065 16.1301 27.8587 16.1468 27.9004 16.1798C27.9421 16.2127 27.9704 16.2596 27.9802 16.3118L28.0766 16.7184C28.1118 16.855 28.0883 17.0001 28.011 17.1177ZM30.3406 14.9678C30.3251 15.0092 30.2956 15.0439 30.2573 15.066C30.219 15.0881 30.1742 15.0961 30.1306 15.0888C26.7522 14.5865 22.0291 16.3191 22.0291 16.3191C20.3953 16.8502 18.8356 17.5865 17.3873 18.5104C17.3097 18.5613 17.2208 18.5923 17.1284 18.6006C17.036 18.6089 16.943 18.5943 16.8576 18.5581C16.7722 18.5219 16.6971 18.4652 16.6388 18.393C16.5806 18.3208 16.5411 18.2353 16.5238 18.1442C16.4426 17.713 16.3927 17.2767 16.3737 16.8388C16.2795 15.6494 16.507 14.4566 17.0322 13.3853C17.0642 13.3259 17.0961 13.2666 17.1325 13.2094C17.137 13.1943 17.1442 13.1803 17.1532 13.1674L17.1694 13.1378L17.2103 13.0689L17.2299 13.0386C18.8674 10.3568 22.5432 9.2872 25.4776 10.1608C26.9483 10.6118 28.2694 11.4527 29.3007 12.594C29.462 12.7833 30.5501 14.2964 30.3406 14.9678Z" fill="#0C9EF0"/>
<path d="M28.5839 13.135L28.5811 13.1411C28.0783 12.284 27.3118 11.6123 26.396 11.2265C25.3746 10.7964 24.2624 10.6273 23.1592 10.7342C22.7672 10.765 22.3819 10.8502 22.0134 10.9862C21.9778 10.9965 21.947 11.0192 21.9267 11.0503C21.9063 11.0813 21.8978 11.1186 21.9026 11.1554C21.9074 11.1921 21.9252 11.226 21.9529 11.2508C21.9805 11.2755 22.0161 11.2895 22.0532 11.2903C22.8842 11.2024 23.7231 11.2248 24.5486 11.357C27.5877 11.9646 28.5604 13.4267 28.6668 13.4844C28.697 13.4995 28.7334 13.4693 28.7183 13.439C28.6786 13.3355 28.6337 13.234 28.5839 13.135Z" fill="#0C9EF0"/>
</g>
<g filter="url(#filter1_d_1_56)">
<path d="M43.3597 26.5007V14.1371H47.7667C48.7245 14.1371 49.5194 14.3021 50.1513 14.6321C50.7871 14.9621 51.262 15.4189 51.576 16.0025C51.8899 16.582 52.0468 17.2521 52.0468 18.0128C52.0468 18.7694 51.8879 19.4355 51.5699 20.011C51.256 20.5825 50.7811 21.0272 50.1452 21.3452C49.5133 21.6631 48.7185 21.8221 47.7606 21.8221H44.4222V20.2163H47.5916C48.1953 20.2163 48.6863 20.1297 49.0646 19.9567C49.4469 19.7836 49.7267 19.5321 49.9037 19.202C50.0808 18.872 50.1694 18.4756 50.1694 18.0128C50.1694 17.5459 50.0788 17.1414 49.8977 16.7994C49.7206 16.4573 49.4409 16.1957 49.0586 16.0145C48.6803 15.8294 48.1832 15.7369 47.5674 15.7369H45.2251V26.5007H43.3597ZM49.463 20.9226L52.5177 26.5007H50.3927L47.3984 20.9226H49.463ZM58.0521 26.6878C57.1385 26.6878 56.3517 26.4926 55.6916 26.1023C55.0356 25.7078 54.5285 25.1545 54.1703 24.4421C53.8162 23.7257 53.6391 22.8866 53.6391 21.9247C53.6391 20.9749 53.8162 20.1378 54.1703 19.4133C54.5285 18.6889 55.0276 18.1234 55.6675 17.717C56.3114 17.3105 57.064 17.1072 57.9253 17.1072C58.4485 17.1072 58.9556 17.1938 59.4466 17.3668C59.9376 17.5399 60.3783 17.8115 60.7687 18.1818C61.1591 18.5521 61.467 19.033 61.6924 19.6246C61.9177 20.2122 62.0304 20.9266 62.0304 21.7677V22.4077H54.6593V21.0554H60.2616C60.2616 20.5805 60.165 20.1599 59.9718 19.7937C59.7786 19.4234 59.507 19.1316 59.1568 18.9183C58.8107 18.705 58.4042 18.5984 57.9374 18.5984C57.4303 18.5984 56.9876 18.7231 56.6093 18.9726C56.235 19.2181 55.9452 19.5401 55.7399 19.9386C55.5387 20.333 55.4381 20.7616 55.4381 21.2244V22.2809C55.4381 22.9007 55.5468 23.4279 55.7641 23.8626C55.9854 24.2972 56.2933 24.6292 56.6877 24.8587C57.0822 25.084 57.543 25.1967 58.0702 25.1967C58.4123 25.1967 58.7242 25.1484 59.0059 25.0518C59.2876 24.9512 59.5311 24.8023 59.7364 24.6051C59.9416 24.4079 60.0986 24.1644 60.2073 23.8746L61.9157 24.1825C61.7789 24.6856 61.5334 25.1263 61.1792 25.5046C60.8291 25.8789 60.3884 26.1707 59.8571 26.38C59.3299 26.5852 58.7282 26.6878 58.0521 26.6878ZM71.7001 17.228L68.3375 26.5007H66.4057L63.0371 17.228H64.9749L67.3233 24.3636H67.4199L69.7622 17.228H71.7001ZM73.3965 26.5007V17.228H75.2015V26.5007H73.3965ZM74.308 15.7972C73.9941 15.7972 73.7245 15.6926 73.4991 15.4833C73.2777 15.27 73.167 15.0164 73.167 14.7226C73.167 14.4248 73.2777 14.1713 73.4991 13.962C73.7245 13.7487 73.9941 13.642 74.308 13.642C74.6219 13.642 74.8896 13.7487 75.1109 13.962C75.3363 14.1713 75.449 14.4248 75.449 14.7226C75.449 15.0164 75.3363 15.27 75.1109 15.4833C74.8896 15.6926 74.6219 15.7972 74.308 15.7972ZM81.6263 26.6878C80.7127 26.6878 79.9259 26.4926 79.2659 26.1023C78.6098 25.7078 78.1027 25.1545 77.7445 24.4421C77.3904 23.7257 77.2133 22.8866 77.2133 21.9247C77.2133 20.9749 77.3904 20.1378 77.7445 19.4133C78.1027 18.6889 78.6018 18.1234 79.2417 17.717C79.8856 17.3105 80.6383 17.1072 81.4995 17.1072C82.0227 17.1072 82.5298 17.1938 83.0208 17.3668C83.5118 17.5399 83.9525 17.8115 84.3429 18.1818C84.7333 18.5521 85.0412 19.033 85.2666 19.6246C85.4919 20.2122 85.6046 20.9266 85.6046 21.7677V22.4077H78.2335V21.0554H83.8358C83.8358 20.5805 83.7392 20.1599 83.546 19.7937C83.3529 19.4234 83.0812 19.1316 82.7311 18.9183C82.3849 18.705 81.9784 18.5984 81.5116 18.5984C81.0045 18.5984 80.5618 18.7231 80.1835 18.9726C79.8092 19.2181 79.5194 19.5401 79.3142 19.9386C79.1129 20.333 79.0123 20.7616 79.0123 21.2244V22.2809C79.0123 22.9007 79.121 23.4279 79.3383 23.8626C79.5597 24.2972 79.8675 24.6292 80.2619 24.8587C80.6564 25.084 81.1172 25.1967 81.6444 25.1967C81.9865 25.1967 82.2984 25.1484 82.5801 25.0518C82.8619 24.9512 83.1053 24.8023 83.3106 24.6051C83.5159 24.4079 83.6728 24.1644 83.7815 23.8746L85.4899 24.1825C85.3531 24.6856 85.1076 25.1263 84.7534 25.5046C84.4033 25.8789 83.9626 26.1707 83.4313 26.38C82.9041 26.5852 82.3024 26.6878 81.6263 26.6878ZM89.6011 26.5007L86.8724 17.228H88.7378L90.5549 24.0376H90.6455L92.4686 17.228H94.334L96.1451 24.0074H96.2357L98.0407 17.228H99.9061L97.1835 26.5007H95.3422L93.4587 19.8057H93.3198L91.4363 26.5007H89.6011ZM110.024 26.6878C109.155 26.6878 108.396 26.4886 107.748 26.0902C107.1 25.6917 106.597 25.1343 106.239 24.418C105.881 23.7016 105.702 22.8645 105.702 21.9066C105.702 20.9447 105.881 20.1036 106.239 19.3832C106.597 18.6627 107.1 18.1033 107.748 17.7049C108.396 17.3065 109.155 17.1072 110.024 17.1072C110.893 17.1072 111.652 17.3065 112.3 17.7049C112.948 18.1033 113.451 18.6627 113.809 19.3832C114.167 20.1036 114.346 20.9447 114.346 21.9066C114.346 22.8645 114.167 23.7016 113.809 24.418C113.451 25.1343 112.948 25.6917 112.3 26.0902C111.652 26.4886 110.893 26.6878 110.024 26.6878ZM110.03 25.1726C110.593 25.1726 111.06 25.0237 111.431 24.7258C111.801 24.428 112.075 24.0316 112.252 23.5366C112.433 23.0415 112.523 22.4962 112.523 21.9006C112.523 21.3089 112.433 20.7656 112.252 20.2706C112.075 19.7715 111.801 19.3711 111.431 19.0692C111.06 18.7674 110.593 18.6165 110.03 18.6165C109.463 18.6165 108.992 18.7674 108.617 19.0692C108.247 19.3711 107.971 19.7715 107.79 20.2706C107.613 20.7656 107.525 21.3089 107.525 21.9006C107.525 22.4962 107.613 23.0415 107.79 23.5366C107.971 24.0316 108.247 24.428 108.617 24.7258C108.992 25.0237 109.463 25.1726 110.03 25.1726ZM118.166 20.995V26.5007H116.361V17.228H118.094V18.7372H118.209C118.422 18.2462 118.756 17.8518 119.211 17.554C119.67 17.2561 120.247 17.1072 120.943 17.1072C121.575 17.1072 122.129 17.24 122.603 17.5057C123.078 17.7673 123.447 18.1577 123.708 18.6768C123.97 19.196 124.101 19.8379 124.101 20.6026V26.5007H122.296V20.8199C122.296 20.1478 122.121 19.6226 121.77 19.2443C121.42 18.862 120.939 18.6708 120.328 18.6708C119.909 18.6708 119.537 18.7614 119.211 18.9425C118.889 19.1236 118.633 19.3892 118.444 19.7393C118.259 20.0855 118.166 20.504 118.166 20.995Z" fill="#E8E8E8"/>
<path d="M133.611 26.0007H130.4L134.571 13.6371H138.55L142.721 26.0007H139.51L136.606 16.7521H136.509L133.611 26.0007ZM133.183 21.1349H139.896V23.4048H133.183V21.1349ZM147.004 13.6371V26.0007H144.052V13.6371H147.004ZM154.117 16.728V18.9013H148.268V16.728H154.117ZM149.493 14.5064H152.445V23.0849C152.445 23.266 152.473 23.4129 152.53 23.5256C152.59 23.6342 152.677 23.7127 152.789 23.761C152.902 23.8053 153.037 23.8274 153.194 23.8274C153.306 23.8274 153.425 23.8173 153.55 23.7972C153.679 23.7731 153.775 23.7529 153.84 23.7368L154.286 25.8679C154.146 25.9081 153.946 25.9584 153.689 26.0188C153.435 26.0792 153.131 26.1174 152.777 26.1335C152.085 26.1657 151.491 26.0852 150.996 25.892C150.505 25.6948 150.129 25.389 149.867 24.9744C149.61 24.5599 149.485 24.0387 149.493 23.4109V14.5064ZM159.859 26.1758C158.889 26.1758 158.051 25.9846 157.347 25.6023C156.647 25.2159 156.108 24.6665 155.729 23.9542C155.355 23.2378 155.168 22.3866 155.168 21.4006C155.168 20.4427 155.357 19.6056 155.735 18.8892C156.114 18.1688 156.647 17.6094 157.335 17.2109C158.023 16.8085 158.834 16.6072 159.768 16.6072C160.428 16.6072 161.032 16.7099 161.579 16.9151C162.126 17.1204 162.599 17.4242 162.998 17.8267C163.396 18.2292 163.706 18.7262 163.927 19.3178C164.149 19.9054 164.259 20.5795 164.259 21.3402V22.0767H156.2V20.3622H161.513C161.509 20.0483 161.434 19.7686 161.289 19.5231C161.144 19.2776 160.945 19.0864 160.692 18.9496C160.442 18.8087 160.154 18.7383 159.828 18.7383C159.498 18.7383 159.203 18.8127 158.941 18.9616C158.679 19.1065 158.472 19.3057 158.319 19.5593C158.166 19.8088 158.086 20.0926 158.078 20.4105V22.1552C158.078 22.5335 158.152 22.8655 158.301 23.1513C158.45 23.433 158.661 23.6523 158.935 23.8093C159.209 23.9663 159.535 24.0447 159.913 24.0447C160.174 24.0447 160.412 24.0085 160.625 23.9361C160.839 23.8636 161.022 23.757 161.175 23.6161C161.328 23.4752 161.442 23.3022 161.519 23.0969L164.229 23.1754C164.117 23.7831 163.869 24.3124 163.487 24.7631C163.108 25.2099 162.611 25.558 161.996 25.8075C161.38 26.053 160.667 26.1758 159.859 26.1758ZM165.767 26.0007V16.728H168.635V18.4183H168.731C168.9 17.8066 169.176 17.3518 169.558 17.054C169.941 16.7521 170.385 16.6012 170.893 16.6012C171.029 16.6012 171.17 16.6113 171.315 16.6314C171.46 16.6475 171.595 16.6736 171.72 16.7099V19.2756C171.579 19.2273 171.394 19.189 171.164 19.1609C170.939 19.1327 170.738 19.1186 170.56 19.1186C170.21 19.1186 169.894 19.1971 169.613 19.354C169.335 19.507 169.116 19.7223 168.955 20C168.798 20.2737 168.719 20.5956 168.719 20.9659V26.0007H165.767ZM175.874 20.7123V26.0007H172.922V16.728H175.73V18.4304H175.832C176.037 17.8629 176.388 17.4182 176.883 17.0962C177.378 16.7702 177.967 16.6072 178.651 16.6072C179.303 16.6072 179.869 16.7541 180.348 17.0479C180.831 17.3377 181.205 17.7442 181.471 18.2674C181.74 18.7866 181.873 19.3943 181.869 20.0905V26.0007H178.917V20.6701C178.921 20.1549 178.79 19.7525 178.525 19.4627C178.263 19.1729 177.899 19.028 177.432 19.028C177.122 19.028 176.848 19.0965 176.611 19.2333C176.378 19.3661 176.196 19.5573 176.068 19.8068C175.943 20.0563 175.879 20.3582 175.874 20.7123ZM186.311 26.1577C185.719 26.1577 185.194 26.0591 184.735 25.8618C184.28 25.6606 183.92 25.3588 183.655 24.9563C183.393 24.5498 183.262 24.0407 183.262 23.429C183.262 22.9138 183.353 22.4792 183.534 22.125C183.715 21.7708 183.964 21.4831 184.282 21.2617C184.6 21.0404 184.967 20.8733 185.381 20.7606C185.796 20.6439 186.238 20.5654 186.709 20.5252C187.237 20.4769 187.661 20.4266 187.983 20.3743C188.305 20.3179 188.538 20.2395 188.683 20.1388C188.832 20.0342 188.907 19.8873 188.907 19.6981V19.668C188.907 19.3581 188.8 19.1186 188.587 18.9496C188.373 18.7805 188.086 18.696 187.723 18.696C187.333 18.696 187.019 18.7805 186.782 18.9496C186.544 19.1186 186.393 19.352 186.329 19.6498L183.606 19.5533C183.687 18.9898 183.894 18.4867 184.228 18.044C184.566 17.5973 185.029 17.2471 185.617 16.9936C186.208 16.736 186.919 16.6072 187.748 16.6072C188.339 16.6072 188.885 16.6777 189.384 16.8185C189.883 16.9554 190.317 17.1566 190.688 17.4222C191.058 17.6838 191.344 18.0058 191.545 18.3881C191.75 18.7705 191.853 19.2071 191.853 19.6981V26.0007H189.076V24.7088H189.003C188.838 25.0227 188.627 25.2883 188.369 25.5057C188.116 25.723 187.816 25.886 187.47 25.9947C187.128 26.1033 186.741 26.1577 186.311 26.1577ZM187.222 24.2258C187.54 24.2258 187.826 24.1614 188.08 24.0327C188.337 23.9039 188.542 23.7268 188.695 23.5014C188.848 23.272 188.925 23.0064 188.925 22.7045V21.8231C188.84 21.8674 188.738 21.9077 188.617 21.9439C188.5 21.9801 188.371 22.0143 188.231 22.0465C188.09 22.0787 187.945 22.1069 187.796 22.131C187.647 22.1552 187.504 22.1773 187.367 22.1974C187.09 22.2417 186.852 22.3101 186.655 22.4027C186.462 22.4953 186.313 22.616 186.208 22.7649C186.108 22.9098 186.057 23.0828 186.057 23.2841C186.057 23.59 186.166 23.8234 186.383 23.9844C186.605 24.1453 186.884 24.2258 187.222 24.2258ZM198.892 16.728V18.9013H193.042V16.728H198.892ZM194.268 14.5064H197.22V23.0849C197.22 23.266 197.248 23.4129 197.304 23.5256C197.364 23.6342 197.451 23.7127 197.564 23.761C197.676 23.8053 197.811 23.8274 197.968 23.8274C198.081 23.8274 198.2 23.8173 198.324 23.7972C198.453 23.7731 198.55 23.7529 198.614 23.7368L199.061 25.8679C198.92 25.9081 198.721 25.9584 198.463 26.0188C198.21 26.0792 197.906 26.1174 197.552 26.1335C196.859 26.1657 196.266 26.0852 195.771 25.892C195.28 25.6948 194.903 25.389 194.642 24.9744C194.384 24.5599 194.259 24.0387 194.268 23.4109V14.5064ZM200.398 26.0007V16.728H203.35V26.0007H200.398ZM201.877 15.6474C201.463 15.6474 201.106 15.5105 200.809 15.2369C200.511 14.9592 200.362 14.6251 200.362 14.2347C200.362 13.8484 200.511 13.5183 200.809 13.2447C201.106 12.967 201.463 12.8281 201.877 12.8281C202.296 12.8281 202.652 12.967 202.946 13.2447C203.243 13.5183 203.392 13.8484 203.392 14.2347C203.392 14.6251 203.243 14.9592 202.946 15.2369C202.652 15.5105 202.296 15.6474 201.877 15.6474ZM214.224 16.728L211.043 26.0007H207.662L204.487 16.728H207.596L209.304 23.115H209.401L211.115 16.728H214.224ZM219.392 26.1758C218.422 26.1758 217.585 25.9846 216.88 25.6023C216.18 25.2159 215.641 24.6665 215.262 23.9542C214.888 23.2378 214.701 22.3866 214.701 21.4006C214.701 20.4427 214.89 19.6056 215.268 18.8892C215.647 18.1688 216.18 17.6094 216.868 17.2109C217.556 16.8085 218.367 16.6072 219.301 16.6072C219.961 16.6072 220.565 16.7099 221.112 16.9151C221.66 17.1204 222.132 17.4242 222.531 17.8267C222.929 18.2292 223.239 18.7262 223.461 19.3178C223.682 19.9054 223.793 20.5795 223.793 21.3402V22.0767H215.733V20.3622H221.046C221.042 20.0483 220.967 19.7686 220.822 19.5231C220.678 19.2776 220.478 19.0864 220.225 18.9496C219.975 18.8087 219.688 18.7383 219.362 18.7383C219.032 18.7383 218.736 18.8127 218.474 18.9616C218.212 19.1065 218.005 19.3057 217.852 19.5593C217.699 19.8088 217.619 20.0926 217.611 20.4105V22.1552C217.611 22.5335 217.685 22.8655 217.834 23.1513C217.983 23.433 218.194 23.6523 218.468 23.8093C218.742 23.9663 219.068 24.0447 219.446 24.0447C219.708 24.0447 219.945 24.0085 220.158 23.9361C220.372 23.8636 220.555 23.757 220.708 23.6161C220.861 23.4752 220.975 23.3022 221.052 23.0969L223.762 23.1754C223.65 23.7831 223.402 24.3124 223.02 24.7631C222.642 25.2099 222.145 25.558 221.529 25.8075C220.913 26.053 220.201 26.1758 219.392 26.1758ZM224.033 16.0639V13.6371H234.483V16.0639H230.734V26.0007H227.788V16.0639H224.033ZM238.926 26.1758C237.952 26.1758 237.115 25.9765 236.414 25.5781C235.718 25.1757 235.181 24.6162 234.802 23.8998C234.428 23.1794 234.241 22.3443 234.241 21.3945C234.241 20.4407 234.428 19.6056 234.802 18.8892C235.181 18.1688 235.718 17.6094 236.414 17.2109C237.115 16.8085 237.952 16.6072 238.926 16.6072C239.9 16.6072 240.735 16.8085 241.431 17.2109C242.131 17.6094 242.669 18.1688 243.043 18.8892C243.421 19.6056 243.61 20.4407 243.61 21.3945C243.61 22.3443 243.421 23.1794 243.043 23.8998C242.669 24.6162 242.131 25.1757 241.431 25.5781C240.735 25.9765 239.9 26.1758 238.926 26.1758ZM238.944 23.9481C239.298 23.9481 239.598 23.8395 239.843 23.6221C240.089 23.4048 240.276 23.103 240.405 22.7166C240.538 22.3302 240.604 21.8835 240.604 21.3764C240.604 20.8613 240.538 20.4105 240.405 20.0241C240.276 19.6378 240.089 19.3359 239.843 19.1186C239.598 18.9013 239.298 18.7926 238.944 18.7926C238.578 18.7926 238.268 18.9013 238.014 19.1186C237.765 19.3359 237.573 19.6378 237.441 20.0241C237.312 20.4105 237.247 20.8613 237.247 21.3764C237.247 21.8835 237.312 22.3302 237.441 22.7166C237.573 23.103 237.765 23.4048 238.014 23.6221C238.268 23.8395 238.578 23.9481 238.944 23.9481Z" fill="#0C9EF0"/>
</g>
<defs>
<filter id="filter0_d_1_56" x="2.39972" y="0.39972" width="39.202" height="39.202" filterUnits="userSpaceOnUse" color-interpolation-filters="sRGB">
<feFlood flood-opacity="0" result="BackgroundImageFix"/>
<feColorMatrix in="SourceAlpha" type="matrix" values="0 0 0 0 0 0 0 0 0 0 0 0 0 0 0 0 0 0 127 0" result="hardAlpha"/>
<feOffset/>
<feGaussianBlur stdDeviation="2.80014"/>
<feComposite in2="hardAlpha" operator="out"/>
<feColorMatrix type="matrix" values="0 0 0 0 0 0 0 0 0 0 0 0 0 0 0 0 0 0 0.25 0"/>
<feBlend mode="normal" in2="BackgroundImageFix" result="effect1_dropShadow_1_56"/>
<feBlend mode="normal" in="SourceGraphic" in2="effect1_dropShadow_1_56" result="shape"/>
</filter>
<filter id="filter1_d_1_56" x="36.2871" y="3.78642" width="214.429" height="32.4286" filterUnits="userSpaceOnUse" color-interpolation-filters="sRGB">
<feFlood flood-opacity="0" result="BackgroundImageFix"/>
<feColorMatrix in="SourceAlpha" type="matrix" values="0 0 0 0 0 0 0 0 0 0 0 0 0 0 0 0 0 0 127 0" result="hardAlpha"/>
<feOffset/>
<feGaussianBlur stdDeviation="2.85714"/>
<feComposite in2="hardAlpha" operator="out"/>
<feColorMatrix type="matrix" values="0 0 0 0 0 0 0 0 0 0 0 0 0 0 0 0 0 0 0.25 0"/>
<feBlend mode="normal" in2="BackgroundImageFix" result="effect1_dropShadow_1_56"/>
<feBlend mode="normal" in="SourceGraphic" in2="effect1_dropShadow_1_56" result="shape"/>
</filter>
<linearGradient id="paint0_linear_1_56" x1="126.501" y1="0" x2="126.501" y2="40.0014" gradientUnits="userSpaceOnUse">
<stop stop-color="#075F90"/>
<stop offset="1" stop-color="#03273C"/>
</linearGradient>
</defs>
</svg>
