<svg width="187" height="56" viewBox="0 0 187 56" fill="none" xmlns="http://www.w3.org/2000/svg">
<rect width="187" height="56" rx="8" fill="url(#paint0_linear_1_50)"/>
<rect x="1.05" y="1.05" width="184.9" height="53.9" rx="6.95" stroke="white" stroke-opacity="0.15" stroke-width="2.1"/>
<g filter="url(#filter0_d_1_50)">
<path d="M31.648 8.6808C42.1232 8.6808 50.6152 17.1728 50.6152 27.648C50.6152 38.1232 42.1232 46.6152 31.648 46.6152C21.1728 46.6152 12.6808 38.1232 12.6808 27.648C12.6808 17.1728 21.1728 8.6808 31.648 8.6808ZM31.648 8C20.8144 8 12 16.8144 12 27.648C12 38.4816 20.8144 47.296 31.648 47.296C42.4816 47.296 51.296 38.4816 51.296 27.648C51.296 16.8144 42.4816 8 31.648 8Z" fill="#0C9EF0"/>
<path d="M42.3056 37.6952C42.2752 37.7016 42.2448 37.7088 42.2144 37.7152C42.2704 37.9096 42.3224 38.0944 42.3688 38.28C42.4792 38.7232 42.5896 39.1664 42.7 39.6088C43.4496 38.9136 44.1344 38.1496 44.744 37.3264C44.2448 37.3856 43.7336 37.4464 43.2328 37.5176C42.9248 37.5608 42.624 37.6264 42.3056 37.6952Z" fill="#0C9EF0"/>
<path d="M43.8296 30.6624C37.636 29.66 31.1216 31.6664 25.8368 34.856C24.5976 35.604 23.2336 36.3456 22.3504 37.528C21.7488 38.336 21.4328 39.2976 21.2392 40.2784C21.7464 40.6936 22.2792 41.0784 22.8352 41.4312C22.836 41.3768 22.8368 41.3224 22.8384 41.2688C22.86 40.5976 22.944 39.9152 23.2136 39.2944C23.512 38.6064 23.996 38.1832 24.5936 37.7584C25.8312 36.8776 27.2104 36.1752 28.5432 35.4784C28.6344 35.4304 28.764 35.4312 28.8752 35.4096C28.9 35.5104 28.9528 35.6128 28.9456 35.712C28.912 36.1744 28.9224 36.64 28.9328 37.104C28.9688 38.7672 29.0776 40.4304 29.1896 42.092C29.228 42.6648 29.268 43.2376 29.3072 43.8096C30.052 43.9136 30.812 43.968 31.5856 43.968C35.3416 43.968 38.8016 42.7008 41.5624 40.572C41.3312 39.7688 41.0992 38.9664 40.8672 38.164C40.8576 38.1296 40.8456 38.096 40.8336 38.0616C40.7984 38.0696 40.7632 38.0784 40.7288 38.088C38.7032 38.6504 36.644 39.4408 34.4328 40.5048C34.4136 40.5144 34.3944 40.5248 34.3744 40.5344C34.2776 40.5856 34.1456 40.6552 33.9864 40.656H33.9832C33.7888 40.656 33.528 40.548 33.4264 40.3464C33.3216 40.1368 33.3992 39.8456 33.5312 39.6952C33.6392 39.572 33.7792 39.4968 33.892 39.4368L33.9544 39.4032C35.9256 38.2992 38.0216 37.4192 40.184 36.7888C40.2432 36.7712 40.3016 36.7536 40.3608 36.7352C40.3232 36.6384 40.2848 36.5408 40.2472 36.4424C40.0824 36.016 39.9112 35.5744 39.7224 35.1496C39.48 34.6048 39.2048 34.0592 38.9376 33.532L38.8 33.2592C38.7112 33.0832 38.6208 32.852 38.7104 32.6232C38.7496 32.5224 38.84 32.3864 39.0456 32.3096C39.332 32.2032 39.7584 32.416 39.8824 32.66C40.5608 33.996 41.1424 35.1896 41.6608 36.3096C41.6832 36.3584 41.6992 36.3864 41.7096 36.4016C41.7248 36.4 41.7496 36.3968 41.7856 36.3888C43.0864 36.0928 44.3768 35.9664 45.62 36.0136C46.213 35.0255 46.6995 33.9772 47.0712 32.8864C46.1792 31.7416 45.116 30.8712 43.8296 30.6624Z" fill="#0C9EF0"/>
<path d="M47.8056 26.0336C47.7696 25.6776 47.712 25.324 47.6456 24.9712C47.596 24.7096 47.5416 24.4488 47.488 24.1888C47.4296 23.908 47.3792 23.6256 47.3104 23.3472C47.212 22.9448 47.0976 22.5464 46.9664 22.1536C46.8376 21.7664 46.692 21.3848 46.532 21.0088C46.3736 20.6376 46.2 20.2728 46.0128 19.916C45.8264 19.5616 45.6264 19.2152 45.4136 18.8768C45.2016 18.5408 44.9768 18.2128 44.7392 17.8944C44.5024 17.5768 44.2544 17.2688 43.9944 16.9704C43.7352 16.6728 43.4648 16.3848 43.184 16.1072C42.904 15.8304 42.6136 15.5632 42.3136 15.308C42.0144 15.052 41.7048 14.808 41.388 14.5744C41.0704 14.3408 40.7448 14.1192 40.412 13.9088C40.0784 13.6984 39.7376 13.5 39.3904 13.3144C39.0424 13.128 38.688 12.9544 38.328 12.7928C37.6061 12.4692 36.8624 12.1968 36.1024 11.9776C35.3391 11.7579 34.5611 11.5929 33.7744 11.484C33.3792 11.4296 32.9824 11.3888 32.5848 11.3632C32.1848 11.3376 31.7848 11.3264 31.384 11.3296C30.9816 11.3336 30.5784 11.352 30.1776 11.3856C29.7736 11.42 29.3704 11.4688 28.9704 11.5344C28.1573 11.6663 27.3556 11.8612 26.5728 12.1176C26.1736 12.248 25.78 12.3944 25.3928 12.5568C24.9984 12.7216 24.6112 12.9016 24.232 13.0976C24.0528 13.1896 23.8768 13.288 23.7 13.384C19.0424 16.0696 15.9792 20.8504 15.4864 26.2048C15.4048 27.7472 15.5128 29.2936 15.804 30.8104L15.8016 30.8112C15.8016 30.8112 16.1144 32.652 16.2904 32.996C17.152 36.2512 18.6528 39.1256 20.6248 38.5928C20.6622 38.5816 20.6967 38.5625 20.7261 38.5368C20.7555 38.5111 20.779 38.4794 20.7951 38.4438C20.8112 38.4083 20.8194 38.3697 20.8193 38.3306C20.8192 38.2916 20.8107 38.2531 20.7944 38.2176C20.446 38.1174 20.143 37.8998 19.9368 37.6016C18.8464 35.7728 24.3952 31.856 31.9744 28.9736C38.9352 26.3224 45.2216 25.4632 46.6528 26.8696C46.936 27.1016 47.0456 27.4856 46.9272 27.832C46.6525 28.7431 46.1218 29.5562 45.3984 30.1744C45.3384 30.232 45.304 30.3112 45.304 30.3936C45.304 30.4768 45.3376 30.556 45.3976 30.6136C45.45 30.6662 45.5201 30.6974 45.5943 30.7009C45.6684 30.7045 45.7412 30.6802 45.7984 30.6328C46.6937 29.9233 47.3599 28.9655 47.7136 27.8792C47.7592 27.7392 47.7688 27.5736 47.7872 27.4272C47.8064 27.2728 47.82 27.1184 47.828 26.9632C47.844 26.6544 47.8368 26.3432 47.8056 26.0336ZM22.2392 32.0168C21.312 32.6744 19.6952 33.8528 19.0184 35.168C18.7544 35.6752 18.5072 35.28 18.3536 34.992C17.9905 34.1898 17.6943 33.359 17.468 32.508C17.467 32.5062 17.4662 32.5043 17.4656 32.5024C17.3568 32.1072 17.004 30.8 16.9696 30.412C16.9704 30.4112 16.9712 30.4096 16.972 30.4096C16.6923 28.9883 16.5893 27.5378 16.6656 26.0912C17.1264 21.1496 19.956 16.7384 24.2544 14.2584C24.6424 14.0416 25.0328 13.844 25.4256 13.6648C25.8104 13.4896 27.3752 12.9064 25.8272 14.2784C23.2649 16.6038 21.6711 19.808 21.3624 23.2544C21.212 25.0168 21.724 28.316 22.628 30.7368C22.9128 31.4952 22.68 31.7064 22.2392 32.0168ZM40.5872 23.8824C40.5329 23.9658 40.4618 24.037 40.3785 24.0914C40.2951 24.1458 40.2014 24.1823 40.1032 24.1984C38.3545 24.4413 36.6329 24.8498 34.9616 25.4184C34.7664 25.4776 34.5552 25.4512 34.38 25.3456C34.2938 25.293 34.2196 25.2229 34.1623 25.1398C34.1049 25.0567 34.0657 24.9624 34.0472 24.8632L33.9152 24.26C33.8832 24.1072 33.96 23.9528 34.1016 23.8872C36.0563 23.1056 38.1196 22.6294 40.2192 22.4752C40.295 22.4716 40.3696 22.4955 40.4291 22.5426C40.4887 22.5896 40.5292 22.6566 40.5432 22.7312L40.6808 23.312C40.7312 23.5072 40.6976 23.7144 40.5872 23.8824ZM43.9152 20.8112C43.893 20.8703 43.8509 20.9199 43.7962 20.9514C43.7415 20.9829 43.6775 20.9945 43.6152 20.984C38.7888 20.2664 32.0416 22.7416 32.0416 22.7416C29.7076 23.5003 27.4794 24.5522 25.4104 25.872C25.2996 25.9447 25.1726 25.989 25.0406 26.0009C24.9086 26.0128 24.7757 25.9919 24.6537 25.9402C24.5317 25.8884 24.4244 25.8074 24.3412 25.7042C24.258 25.6011 24.2015 25.479 24.1768 25.3488C24.0608 24.7328 23.9896 24.1096 23.9624 23.484C23.8279 21.7849 24.1529 20.0808 24.9032 18.5504C24.9488 18.4656 24.9944 18.3808 25.0464 18.2992C25.0528 18.2776 25.0632 18.2576 25.076 18.2392L25.0992 18.1968L25.1576 18.0984L25.1856 18.0552C27.5248 14.224 32.776 12.696 36.968 13.944C39.0689 14.5884 40.9562 15.7895 42.4296 17.42C42.66 17.6904 44.2144 19.852 43.9152 20.8112Z" fill="#0C9EF0"/>
<path d="M41.4056 18.1928L41.4016 18.2016C40.6833 16.9771 39.5883 16.0176 38.28 15.4664C36.8208 14.852 35.232 14.6104 33.656 14.7632C33.096 14.8072 32.5456 14.9288 32.0192 15.1232C31.9683 15.1379 31.9243 15.1703 31.8953 15.2147C31.8662 15.259 31.854 15.3122 31.8608 15.3648C31.8677 15.4173 31.8932 15.4657 31.9327 15.5011C31.9721 15.5364 32.023 15.5565 32.076 15.5576C33.2632 15.432 34.4616 15.464 35.6408 15.6528C39.9824 16.5208 41.372 18.6096 41.524 18.692C41.5672 18.7136 41.6192 18.6704 41.5976 18.6272C41.5408 18.4793 41.4768 18.3343 41.4056 18.1928Z" fill="#0C9EF0"/>
</g>
<g filter="url(#filter1_d_1_50)">
<path d="M61.2784 24.5V12.8636H65.4261C66.3276 12.8636 67.0757 13.0189 67.6704 13.3295C68.2689 13.6401 68.7159 14.0701 69.0113 14.6193C69.3068 15.1648 69.4545 15.7954 69.4545 16.5114C69.4545 17.2235 69.3049 17.8504 69.0057 18.392C68.7102 18.9299 68.2632 19.3485 67.6648 19.6477C67.0701 19.947 66.322 20.0966 65.4204 20.0966H62.2784V18.5852H65.2613C65.8295 18.5852 66.2916 18.5038 66.6477 18.3409C67.0076 18.178 67.2708 17.9413 67.4375 17.6307C67.6041 17.3201 67.6875 16.947 67.6875 16.5114C67.6875 16.072 67.6023 15.6913 67.4318 15.3693C67.2651 15.0473 67.0019 14.8011 66.642 14.6307C66.286 14.4564 65.8182 14.3693 65.2386 14.3693H63.0341V24.5H61.2784ZM67.0227 19.25L69.8977 24.5H67.8977L65.0795 19.25H67.0227ZM75.1065 24.6761C74.2467 24.6761 73.5061 24.4924 72.8849 24.125C72.2675 23.7538 71.7902 23.2329 71.4531 22.5625C71.1198 21.8883 70.9531 21.0985 70.9531 20.1932C70.9531 19.2992 71.1198 18.5114 71.4531 17.8295C71.7902 17.1477 72.2599 16.6155 72.8622 16.2329C73.4683 15.8504 74.1766 15.6591 74.9872 15.6591C75.4796 15.6591 75.9569 15.7405 76.419 15.9034C76.8811 16.0663 77.2959 16.322 77.6633 16.6704C78.0308 17.0189 78.3205 17.4716 78.5327 18.0284C78.7448 18.5814 78.8508 19.2538 78.8508 20.0454V20.6477H71.9133V19.375H77.1861C77.1861 18.928 77.0952 18.5322 76.9133 18.1875C76.7315 17.839 76.4758 17.5644 76.1463 17.3636C75.8205 17.1629 75.438 17.0625 74.9986 17.0625C74.5213 17.0625 74.1046 17.1799 73.7486 17.4148C73.3963 17.6458 73.1236 17.9489 72.9304 18.3239C72.741 18.6951 72.6463 19.0985 72.6463 19.5341V20.5284C72.6463 21.1117 72.7486 21.6079 72.9531 22.017C73.1614 22.4261 73.4512 22.7386 73.8224 22.9545C74.1936 23.1667 74.6273 23.2727 75.1236 23.2727C75.4455 23.2727 75.7391 23.2273 76.0042 23.1364C76.2694 23.0417 76.4986 22.9015 76.6917 22.7159C76.8849 22.5303 77.0327 22.3011 77.1349 22.0284L78.7429 22.3182C78.6141 22.7917 78.383 23.2064 78.0497 23.5625C77.7202 23.9148 77.3054 24.1894 76.8054 24.3864C76.3092 24.5795 75.7429 24.6761 75.1065 24.6761ZM87.9517 15.7727L84.7869 24.5H82.9687L79.7983 15.7727H81.6221L83.8324 22.4886H83.9233L86.1278 15.7727H87.9517ZM89.5483 24.5V15.7727H91.2471V24.5H89.5483ZM90.4062 14.4261C90.1108 14.4261 89.857 14.3276 89.6449 14.1307C89.4365 13.9299 89.3324 13.6913 89.3324 13.4148C89.3324 13.1345 89.4365 12.8958 89.6449 12.6989C89.857 12.4981 90.1108 12.3977 90.4062 12.3977C90.7017 12.3977 90.9536 12.4981 91.1619 12.6989C91.374 12.8958 91.4801 13.1345 91.4801 13.4148C91.4801 13.6913 91.374 13.9299 91.1619 14.1307C90.9536 14.3276 90.7017 14.4261 90.4062 14.4261ZM97.294 24.6761C96.4342 24.6761 95.6936 24.4924 95.0724 24.125C94.455 23.7538 93.9777 23.2329 93.6406 22.5625C93.3073 21.8883 93.1406 21.0985 93.1406 20.1932C93.1406 19.2992 93.3073 18.5114 93.6406 17.8295C93.9777 17.1477 94.4474 16.6155 95.0497 16.2329C95.6558 15.8504 96.3641 15.6591 97.1747 15.6591C97.6671 15.6591 98.1444 15.7405 98.6065 15.9034C99.0686 16.0663 99.4834 16.322 99.8508 16.6704C100.218 17.0189 100.508 17.4716 100.72 18.0284C100.932 18.5814 101.038 19.2538 101.038 20.0454V20.6477H94.1008V19.375H99.3736C99.3736 18.928 99.2826 18.5322 99.1008 18.1875C98.919 17.839 98.6633 17.5644 98.3338 17.3636C98.008 17.1629 97.6254 17.0625 97.1861 17.0625C96.7088 17.0625 96.2921 17.1799 95.9361 17.4148C95.5838 17.6458 95.3111 17.9489 95.1179 18.3239C94.9285 18.6951 94.8338 19.0985 94.8338 19.5341V20.5284C94.8338 21.1117 94.9361 21.6079 95.1406 22.017C95.3489 22.4261 95.6387 22.7386 96.0099 22.9545C96.3811 23.1667 96.8148 23.2727 97.3111 23.2727C97.633 23.2727 97.9266 23.2273 98.1917 23.1364C98.4569 23.0417 98.6861 22.9015 98.8792 22.7159C99.0724 22.5303 99.2201 22.3011 99.3224 22.0284L100.93 22.3182C100.802 22.7917 100.571 23.2064 100.237 23.5625C99.9076 23.9148 99.4929 24.1894 98.9929 24.3864C98.4967 24.5795 97.9304 24.6761 97.294 24.6761ZM104.8 24.5L102.232 15.7727H103.987L105.697 22.1818H105.783L107.499 15.7727H109.254L110.959 22.1534H111.044L112.743 15.7727H114.499L111.936 24.5H110.203L108.43 18.1989H108.3L106.527 24.5H104.8ZM124.021 24.6761C123.203 24.6761 122.489 24.4886 121.879 24.1136C121.269 23.7386 120.796 23.214 120.459 22.5398C120.122 21.8655 119.953 21.0776 119.953 20.1761C119.953 19.2708 120.122 18.4792 120.459 17.8011C120.796 17.1231 121.269 16.5966 121.879 16.2216C122.489 15.8466 123.203 15.6591 124.021 15.6591C124.839 15.6591 125.553 15.8466 126.163 16.2216C126.773 16.5966 127.247 17.1231 127.584 17.8011C127.921 18.4792 128.089 19.2708 128.089 20.1761C128.089 21.0776 127.921 21.8655 127.584 22.5398C127.247 23.214 126.773 23.7386 126.163 24.1136C125.553 24.4886 124.839 24.6761 124.021 24.6761ZM124.027 23.25C124.557 23.25 124.997 23.1098 125.345 22.8295C125.694 22.5492 125.951 22.1761 126.118 21.7102C126.288 21.2443 126.374 20.7311 126.374 20.1704C126.374 19.6136 126.288 19.1023 126.118 18.6364C125.951 18.1667 125.694 17.7898 125.345 17.5057C124.997 17.2216 124.557 17.0795 124.027 17.0795C123.493 17.0795 123.05 17.2216 122.697 17.5057C122.349 17.7898 122.089 18.1667 121.919 18.6364C121.752 19.1023 121.669 19.6136 121.669 20.1704C121.669 20.7311 121.752 21.2443 121.919 21.7102C122.089 22.1761 122.349 22.5492 122.697 22.8295C123.05 23.1098 123.493 23.25 124.027 23.25ZM131.685 19.3182V24.5H129.986V15.7727H131.616V17.1932H131.724C131.925 16.7311 132.24 16.3598 132.668 16.0795C133.099 15.7992 133.643 15.6591 134.298 15.6591C134.893 15.6591 135.414 15.7841 135.861 16.0341C136.308 16.2803 136.654 16.6477 136.901 17.1364C137.147 17.625 137.27 18.2292 137.27 18.9489V24.5H135.571V19.1534C135.571 18.5208 135.406 18.0265 135.077 17.6704C134.747 17.3106 134.294 17.1307 133.719 17.1307C133.325 17.1307 132.974 17.2159 132.668 17.3864C132.365 17.5568 132.124 17.8068 131.946 18.1364C131.772 18.4621 131.685 18.8561 131.685 19.3182Z" fill="#E8E8E8"/>
<path d="M63.6101 43.5H60.3984L64.5699 31.1364H68.5483L72.7198 43.5H69.5081L66.6044 34.2514H66.5078L63.6101 43.5ZM63.1814 38.6342H69.8945V40.9041H63.1814V38.6342ZM77.003 31.1364V43.5H74.0509V31.1364H77.003ZM84.116 34.2273V36.4006H78.2662V34.2273H84.116ZM79.4917 32.0057H82.4438V40.5842C82.4438 40.7653 82.472 40.9122 82.5283 41.0248C82.5887 41.1335 82.6752 41.212 82.7879 41.2603C82.9006 41.3046 83.0354 41.3267 83.1924 41.3267C83.3051 41.3267 83.4238 41.3166 83.5485 41.2965C83.6773 41.2724 83.7739 41.2522 83.8383 41.2361L84.285 43.3672C84.1442 43.4074 83.945 43.4577 83.6874 43.5181C83.4338 43.5785 83.13 43.6167 82.7758 43.6328C82.0836 43.665 81.4899 43.5845 80.9949 43.3913C80.5039 43.1941 80.1276 42.8882 79.866 42.4737C79.6084 42.0592 79.4837 41.538 79.4917 40.9101V32.0057ZM89.8571 43.6751C88.8872 43.6751 88.0501 43.4839 87.3458 43.1016C86.6455 42.7152 86.1062 42.1658 85.7279 41.4535C85.3536 40.7371 85.1664 39.8859 85.1664 38.8998C85.1664 37.942 85.3556 37.1049 85.7339 36.3885C86.1122 35.6681 86.6455 35.1087 87.3337 34.7102C88.0219 34.3078 88.8329 34.1065 89.7666 34.1065C90.4266 34.1065 91.0303 34.2092 91.5777 34.4144C92.125 34.6197 92.5979 34.9235 92.9963 35.326C93.3948 35.7284 93.7047 36.2255 93.926 36.8171C94.1474 37.4047 94.2581 38.0788 94.2581 38.8395V39.576H86.1988V37.8615H91.5113C91.5072 37.5476 91.4328 37.2679 91.2879 37.0224C91.143 36.7769 90.9438 36.5857 90.6902 36.4489C90.4407 36.308 90.1529 36.2376 89.8269 36.2376C89.4969 36.2376 89.2011 36.312 88.9395 36.4609C88.6779 36.6058 88.4706 36.805 88.3177 37.0586C88.1648 37.3081 88.0843 37.5918 88.0762 37.9098V39.6545C88.0762 40.0328 88.1507 40.3648 88.2996 40.6506C88.4485 40.9323 88.6598 41.1516 88.9335 41.3086C89.2072 41.4655 89.5331 41.544 89.9115 41.544C90.1731 41.544 90.4105 41.5078 90.6238 41.4354C90.8371 41.3629 91.0202 41.2563 91.1732 41.1154C91.3261 40.9745 91.4408 40.8015 91.5173 40.5962L94.2279 40.6747C94.1152 41.2824 93.8677 41.8117 93.4853 42.2624C93.107 42.7092 92.61 43.0573 91.9942 43.3068C91.3784 43.5523 90.6661 43.6751 89.8571 43.6751ZM95.7658 43.5V34.2273H98.6333V35.9176H98.7299C98.8989 35.3059 99.1746 34.8511 99.557 34.5533C99.9393 34.2514 100.384 34.1005 100.891 34.1005C101.028 34.1005 101.169 34.1105 101.314 34.1307C101.459 34.1468 101.593 34.1729 101.718 34.2092V36.7748C101.577 36.7266 101.392 36.6883 101.163 36.6601C100.937 36.632 100.736 36.6179 100.559 36.6179C100.209 36.6179 99.893 36.6964 99.6113 36.8533C99.3336 37.0063 99.1143 37.2216 98.9533 37.4993C98.7963 37.773 98.7178 38.0949 98.7178 38.4652V43.5H95.7658ZM105.873 38.2116V43.5H102.921V34.2273H105.728V35.9297H105.831C106.036 35.3622 106.386 34.9175 106.881 34.5955C107.376 34.2695 107.966 34.1065 108.65 34.1065C109.302 34.1065 109.868 34.2534 110.346 34.5472C110.829 34.837 111.204 35.2435 111.469 35.7667C111.739 36.2859 111.872 36.8936 111.868 37.5898V43.5H108.916V38.1694C108.92 37.6542 108.789 37.2518 108.523 36.962C108.262 36.6722 107.897 36.5273 107.431 36.5273C107.121 36.5273 106.847 36.5958 106.61 36.7326C106.376 36.8654 106.195 37.0566 106.066 37.3061C105.942 37.5556 105.877 37.8575 105.873 38.2116ZM116.309 43.6569C115.718 43.6569 115.193 43.5583 114.734 43.3611C114.279 43.1599 113.919 42.8581 113.653 42.4556C113.392 42.0491 113.261 41.54 113.261 40.9283C113.261 40.4131 113.351 39.9784 113.532 39.6243C113.714 39.2701 113.963 38.9824 114.281 38.761C114.599 38.5396 114.965 38.3726 115.38 38.2599C115.794 38.1432 116.237 38.0647 116.708 38.0245C117.235 37.9762 117.66 37.9259 117.982 37.8736C118.304 37.8172 118.537 37.7387 118.682 37.6381C118.831 37.5335 118.905 37.3866 118.905 37.1974V37.1672C118.905 36.8574 118.799 36.6179 118.585 36.4489C118.372 36.2798 118.084 36.1953 117.722 36.1953C117.332 36.1953 117.018 36.2798 116.78 36.4489C116.543 36.6179 116.392 36.8513 116.328 37.1491L113.605 37.0525C113.685 36.4891 113.893 35.986 114.227 35.5433C114.565 35.0966 115.028 34.7464 115.615 34.4929C116.207 34.2353 116.917 34.1065 117.746 34.1065C118.338 34.1065 118.883 34.177 119.382 34.3178C119.881 34.4547 120.316 34.6559 120.686 34.9215C121.056 35.1831 121.342 35.5051 121.543 35.8874C121.749 36.2698 121.851 36.7064 121.851 37.1974V43.5H119.074V42.2081H119.002C118.837 42.522 118.626 42.7876 118.368 43.005C118.114 43.2223 117.815 43.3853 117.469 43.494C117.126 43.6026 116.74 43.6569 116.309 43.6569ZM117.221 41.7251C117.539 41.7251 117.825 41.6607 118.078 41.5319C118.336 41.4032 118.541 41.2261 118.694 41.0007C118.847 40.7713 118.923 40.5057 118.923 40.2038V39.3224C118.839 39.3667 118.736 39.4069 118.616 39.4432C118.499 39.4794 118.37 39.5136 118.229 39.5458C118.088 39.578 117.943 39.6062 117.795 39.6303C117.646 39.6545 117.503 39.6766 117.366 39.6967C117.088 39.741 116.851 39.8094 116.654 39.902C116.46 39.9945 116.311 40.1153 116.207 40.2642C116.106 40.4091 116.056 40.5821 116.056 40.7834C116.056 41.0892 116.165 41.3227 116.382 41.4837C116.603 41.6446 116.883 41.7251 117.221 41.7251ZM128.89 34.2273V36.4006H123.041V34.2273H128.89ZM124.266 32.0057H127.218V40.5842C127.218 40.7653 127.246 40.9122 127.303 41.0248C127.363 41.1335 127.45 41.212 127.562 41.2603C127.675 41.3046 127.81 41.3267 127.967 41.3267C128.079 41.3267 128.198 41.3166 128.323 41.2965C128.452 41.2724 128.548 41.2522 128.613 41.2361L129.059 43.3672C128.919 43.4074 128.719 43.4577 128.462 43.5181C128.208 43.5785 127.904 43.6167 127.55 43.6328C126.858 43.665 126.264 43.5845 125.769 43.3913C125.278 43.1941 124.902 42.8882 124.64 42.4737C124.383 42.0592 124.258 41.538 124.266 40.9101V32.0057ZM130.397 43.5V34.2273H133.349V43.5H130.397ZM131.876 33.1467C131.461 33.1467 131.105 33.0098 130.807 32.7361C130.509 32.4584 130.36 32.1244 130.36 31.734C130.36 31.3476 130.509 31.0176 130.807 30.744C131.105 30.4663 131.461 30.3274 131.876 30.3274C132.294 30.3274 132.65 30.4663 132.944 30.744C133.242 31.0176 133.391 31.3476 133.391 31.734C133.391 32.1244 133.242 32.4584 132.944 32.7361C132.65 33.0098 132.294 33.1467 131.876 33.1467ZM144.223 34.2273L141.041 43.5H137.661L134.485 34.2273H137.594L139.303 40.6143H139.399L141.114 34.2273H144.223ZM149.39 43.6751C148.42 43.6751 147.583 43.4839 146.879 43.1016C146.179 42.7152 145.639 42.1658 145.261 41.4535C144.887 40.7371 144.7 39.8859 144.7 38.8998C144.7 37.942 144.889 37.1049 145.267 36.3885C145.645 35.6681 146.179 35.1087 146.867 34.7102C147.555 34.3078 148.366 34.1065 149.3 34.1065C149.96 34.1065 150.563 34.2092 151.111 34.4144C151.658 34.6197 152.131 34.9235 152.53 35.326C152.928 35.7284 153.238 36.2255 153.459 36.8171C153.681 37.4047 153.791 38.0788 153.791 38.8395V39.576H145.732V37.8615H151.044C151.04 37.5476 150.966 37.2679 150.821 37.0224C150.676 36.7769 150.477 36.5857 150.223 36.4489C149.974 36.308 149.686 36.2376 149.36 36.2376C149.03 36.2376 148.734 36.312 148.473 36.4609C148.211 36.6058 148.004 36.805 147.851 37.0586C147.698 37.3081 147.617 37.5918 147.609 37.9098V39.6545C147.609 40.0328 147.684 40.3648 147.833 40.6506C147.982 40.9323 148.193 41.1516 148.467 41.3086C148.74 41.4655 149.066 41.544 149.445 41.544C149.706 41.544 149.944 41.5078 150.157 41.4354C150.37 41.3629 150.553 41.2563 150.706 41.1154C150.859 40.9745 150.974 40.8015 151.05 40.5962L153.761 40.6747C153.648 41.2824 153.401 41.8117 153.019 42.2624C152.64 42.7092 152.143 43.0573 151.527 43.3068C150.912 43.5523 150.199 43.6751 149.39 43.6751ZM154.031 33.5632V31.1364H164.481V33.5632H160.732V43.5H157.786V33.5632H154.031ZM168.924 43.6751C167.95 43.6751 167.113 43.4758 166.413 43.0774C165.717 42.6749 165.179 42.1155 164.801 41.3991C164.427 40.6787 164.24 39.8436 164.24 38.8938C164.24 37.94 164.427 37.1049 164.801 36.3885C165.179 35.6681 165.717 35.1087 166.413 34.7102C167.113 34.3078 167.95 34.1065 168.924 34.1065C169.898 34.1065 170.733 34.3078 171.43 34.7102C172.13 35.1087 172.667 35.6681 173.041 36.3885C173.42 37.1049 173.609 37.94 173.609 38.8938C173.609 39.8436 173.42 40.6787 173.041 41.3991C172.667 42.1155 172.13 42.6749 171.43 43.0774C170.733 43.4758 169.898 43.6751 168.924 43.6751ZM168.942 41.4474C169.297 41.4474 169.596 41.3388 169.842 41.1214C170.087 40.9041 170.275 40.6023 170.403 40.2159C170.536 39.8295 170.603 39.3828 170.603 38.8757C170.603 38.3605 170.536 37.9098 170.403 37.5234C170.275 37.1371 170.087 36.8352 169.842 36.6179C169.596 36.4006 169.297 36.2919 168.942 36.2919C168.576 36.2919 168.266 36.4006 168.013 36.6179C167.763 36.8352 167.572 37.1371 167.439 37.5234C167.31 37.9098 167.246 38.3605 167.246 38.8757C167.246 39.3828 167.31 39.8295 167.439 40.2159C167.572 40.6023 167.763 40.9041 168.013 41.1214C168.266 41.3388 168.576 41.4474 168.942 41.4474Z" fill="#0C9EF0"/>
</g>
<defs>
<filter id="filter0_d_1_50" x="6.28571" y="2.28571" width="51.4286" height="51.4286" filterUnits="userSpaceOnUse" color-interpolation-filters="sRGB">
<feFlood flood-opacity="0" result="BackgroundImageFix"/>
<feColorMatrix in="SourceAlpha" type="matrix" values="0 0 0 0 0 0 0 0 0 0 0 0 0 0 0 0 0 0 127 0" result="hardAlpha"/>
<feOffset/>
<feGaussianBlur stdDeviation="2.85714"/>
<feComposite in2="hardAlpha" operator="out"/>
<feColorMatrix type="matrix" values="0 0 0 0 0 0 0 0 0 0 0 0 0 0 0 0 0 0 0.25 0"/>
<feBlend mode="normal" in2="BackgroundImageFix" result="effect1_dropShadow_1_50"/>
<feBlend mode="normal" in="SourceGraphic" in2="effect1_dropShadow_1_50" result="shape"/>
</filter>
<filter id="filter1_d_1_50" x="54.4" y="3.9" width="126.2" height="48.2" filterUnits="userSpaceOnUse" color-interpolation-filters="sRGB">
<feFlood flood-opacity="0" result="BackgroundImageFix"/>
<feColorMatrix in="SourceAlpha" type="matrix" values="0 0 0 0 0 0 0 0 0 0 0 0 0 0 0 0 0 0 127 0" result="hardAlpha"/>
<feOffset/>
<feGaussianBlur stdDeviation="2.8"/>
<feComposite in2="hardAlpha" operator="out"/>
<feColorMatrix type="matrix" values="0 0 0 0 0 0 0 0 0 0 0 0 0 0 0 0 0 0 0.25 0"/>
<feBlend mode="normal" in2="BackgroundImageFix" result="effect1_dropShadow_1_50"/>
<feBlend mode="normal" in="SourceGraphic" in2="effect1_dropShadow_1_50" result="shape"/>
</filter>
<linearGradient id="paint0_linear_1_50" x1="93.5" y1="0" x2="93.5" y2="56" gradientUnits="userSpaceOnUse">
<stop stop-color="#075F90"/>
<stop offset="1" stop-color="#03273C"/>
</linearGradient>
</defs>
</svg>
