<svg width="56" height="56" viewBox="0 0 56 56" fill="none" xmlns="http://www.w3.org/2000/svg">
<rect width="56" height="56" rx="8.4" fill="url(#paint0_linear_1_62)"/>
<rect x="1.05" y="1.05" width="53.9" height="53.9" rx="7.35" stroke="white" stroke-opacity="0.15" stroke-width="2.1"/>
<g filter="url(#filter0_d_1_62)">
<path d="M27.648 8.6808C38.1232 8.6808 46.6152 17.1728 46.6152 27.648C46.6152 38.1232 38.1232 46.6152 27.648 46.6152C17.1728 46.6152 8.6808 38.1232 8.6808 27.648C8.6808 17.1728 17.1728 8.6808 27.648 8.6808ZM27.648 8C16.8144 8 8 16.8144 8 27.648C8 38.4816 16.8144 47.296 27.648 47.296C38.4816 47.296 47.296 38.4816 47.296 27.648C47.296 16.8144 38.4816 8 27.648 8Z" fill="#0C9EF0"/>
<path d="M38.3056 37.6952C38.2752 37.7016 38.2448 37.7088 38.2144 37.7152C38.2704 37.9096 38.3224 38.0944 38.3688 38.28C38.4792 38.7232 38.5896 39.1664 38.7 39.6088C39.4496 38.9136 40.1344 38.1496 40.744 37.3264C40.2448 37.3856 39.7336 37.4464 39.2328 37.5176C38.9248 37.5608 38.624 37.6264 38.3056 37.6952Z" fill="#0C9EF0"/>
<path d="M39.8296 30.6624C33.636 29.66 27.1216 31.6664 21.8368 34.856C20.5976 35.604 19.2336 36.3456 18.3504 37.528C17.7488 38.336 17.4328 39.2976 17.2392 40.2784C17.7464 40.6936 18.2792 41.0784 18.8352 41.4312C18.836 41.3768 18.8368 41.3224 18.8384 41.2688C18.86 40.5976 18.944 39.9152 19.2136 39.2944C19.512 38.6064 19.996 38.1832 20.5936 37.7584C21.8312 36.8776 23.2104 36.1752 24.5432 35.4784C24.6344 35.4304 24.764 35.4312 24.8752 35.4096C24.9 35.5104 24.9528 35.6128 24.9456 35.712C24.912 36.1744 24.9224 36.64 24.9328 37.104C24.9688 38.7672 25.0776 40.4304 25.1896 42.092C25.228 42.6648 25.268 43.2376 25.3072 43.8096C26.052 43.9136 26.812 43.968 27.5856 43.968C31.3416 43.968 34.8016 42.7008 37.5624 40.572C37.3312 39.7688 37.0992 38.9664 36.8672 38.164C36.8576 38.1296 36.8456 38.096 36.8336 38.0616C36.7984 38.0696 36.7632 38.0784 36.7288 38.088C34.7032 38.6504 32.644 39.4408 30.4328 40.5048C30.4136 40.5144 30.3944 40.5248 30.3744 40.5344C30.2776 40.5856 30.1456 40.6552 29.9864 40.656H29.9832C29.7888 40.656 29.528 40.548 29.4264 40.3464C29.3216 40.1368 29.3992 39.8456 29.5312 39.6952C29.6392 39.572 29.7792 39.4968 29.892 39.4368L29.9544 39.4032C31.9256 38.2992 34.0216 37.4192 36.184 36.7888C36.2432 36.7712 36.3016 36.7536 36.3608 36.7352C36.3232 36.6384 36.2848 36.5408 36.2472 36.4424C36.0824 36.016 35.9112 35.5744 35.7224 35.1496C35.48 34.6048 35.2048 34.0592 34.9376 33.532L34.8 33.2592C34.7112 33.0832 34.6208 32.852 34.7104 32.6232C34.7496 32.5224 34.84 32.3864 35.0456 32.3096C35.332 32.2032 35.7584 32.416 35.8824 32.66C36.5608 33.996 37.1424 35.1896 37.6608 36.3096C37.6832 36.3584 37.6992 36.3864 37.7096 36.4016C37.7248 36.4 37.7496 36.3968 37.7856 36.3888C39.0864 36.0928 40.3768 35.9664 41.62 36.0136C42.213 35.0255 42.6995 33.9772 43.0712 32.8864C42.1792 31.7416 41.116 30.8712 39.8296 30.6624Z" fill="#0C9EF0"/>
<path d="M43.8056 26.0336C43.7696 25.6776 43.712 25.324 43.6456 24.9712C43.596 24.7096 43.5416 24.4488 43.488 24.1888C43.4296 23.908 43.3792 23.6256 43.3104 23.3472C43.212 22.9448 43.0976 22.5464 42.9664 22.1536C42.8376 21.7664 42.692 21.3848 42.532 21.0088C42.3736 20.6376 42.2 20.2728 42.0128 19.916C41.8264 19.5616 41.6264 19.2152 41.4136 18.8768C41.2016 18.5408 40.9768 18.2128 40.7392 17.8944C40.5024 17.5768 40.2544 17.2688 39.9944 16.9704C39.7352 16.6728 39.4648 16.3848 39.184 16.1072C38.904 15.8304 38.6136 15.5632 38.3136 15.308C38.0144 15.052 37.7048 14.808 37.388 14.5744C37.0704 14.3408 36.7448 14.1192 36.412 13.9088C36.0784 13.6984 35.7376 13.5 35.3904 13.3144C35.0424 13.128 34.688 12.9544 34.328 12.7928C33.6061 12.4692 32.8624 12.1968 32.1024 11.9776C31.3391 11.7579 30.5611 11.5929 29.7744 11.484C29.3792 11.4296 28.9824 11.3888 28.5848 11.3632C28.1848 11.3376 27.7848 11.3264 27.384 11.3296C26.9816 11.3336 26.5784 11.352 26.1776 11.3856C25.7736 11.42 25.3704 11.4688 24.9704 11.5344C24.1573 11.6663 23.3556 11.8612 22.5728 12.1176C22.1736 12.248 21.78 12.3944 21.3928 12.5568C20.9984 12.7216 20.6112 12.9016 20.232 13.0976C20.0528 13.1896 19.8768 13.288 19.7 13.384C15.0424 16.0696 11.9792 20.8504 11.4864 26.2048C11.4048 27.7472 11.5128 29.2936 11.804 30.8104L11.8016 30.8112C11.8016 30.8112 12.1144 32.652 12.2904 32.996C13.152 36.2512 14.6528 39.1256 16.6248 38.5928C16.6622 38.5816 16.6967 38.5625 16.7261 38.5368C16.7555 38.5111 16.779 38.4794 16.7951 38.4438C16.8112 38.4083 16.8194 38.3697 16.8193 38.3306C16.8192 38.2916 16.8107 38.2531 16.7944 38.2176C16.446 38.1174 16.143 37.8998 15.9368 37.6016C14.8464 35.7728 20.3952 31.856 27.9744 28.9736C34.9352 26.3224 41.2216 25.4632 42.6528 26.8696C42.936 27.1016 43.0456 27.4856 42.9272 27.832C42.6525 28.7431 42.1218 29.5562 41.3984 30.1744C41.3384 30.232 41.304 30.3112 41.304 30.3936C41.304 30.4768 41.3376 30.556 41.3976 30.6136C41.45 30.6662 41.5201 30.6974 41.5943 30.7009C41.6684 30.7045 41.7412 30.6802 41.7984 30.6328C42.6937 29.9233 43.3599 28.9655 43.7136 27.8792C43.7592 27.7392 43.7688 27.5736 43.7872 27.4272C43.8064 27.2728 43.82 27.1184 43.828 26.9632C43.844 26.6544 43.8368 26.3432 43.8056 26.0336ZM18.2392 32.0168C17.312 32.6744 15.6952 33.8528 15.0184 35.168C14.7544 35.6752 14.5072 35.28 14.3536 34.992C13.9905 34.1898 13.6943 33.359 13.468 32.508C13.467 32.5062 13.4662 32.5043 13.4656 32.5024C13.3568 32.1072 13.004 30.8 12.9696 30.412C12.9704 30.4112 12.9712 30.4096 12.972 30.4096C12.6923 28.9883 12.5894 27.5378 12.6656 26.0912C13.1264 21.1496 15.956 16.7384 20.2544 14.2584C20.6424 14.0416 21.0328 13.844 21.4256 13.6648C21.8104 13.4896 23.3752 12.9064 21.8272 14.2784C19.2649 16.6038 17.6711 19.808 17.3624 23.2544C17.212 25.0168 17.724 28.316 18.628 30.7368C18.9128 31.4952 18.68 31.7064 18.2392 32.0168ZM36.5872 23.8824C36.5329 23.9658 36.4618 24.037 36.3785 24.0914C36.2952 24.1458 36.2014 24.1823 36.1032 24.1984C34.3546 24.4413 32.633 24.8498 30.9616 25.4184C30.7664 25.4776 30.5552 25.4512 30.38 25.3456C30.2938 25.293 30.2196 25.2229 30.1623 25.1398C30.105 25.0567 30.0657 24.9624 30.0472 24.8632L29.9152 24.26C29.8832 24.1072 29.96 23.9528 30.1016 23.8872C32.0563 23.1056 34.1197 22.6294 36.2192 22.4752C36.295 22.4716 36.3696 22.4955 36.4291 22.5426C36.4887 22.5896 36.5292 22.6566 36.5432 22.7312L36.6808 23.312C36.7312 23.5072 36.6976 23.7144 36.5872 23.8824ZM39.9152 20.8112C39.893 20.8703 39.8509 20.9199 39.7962 20.9514C39.7415 20.9829 39.6775 20.9945 39.6152 20.984C34.7888 20.2664 28.0416 22.7416 28.0416 22.7416C25.7076 23.5003 23.4794 24.5522 21.4104 25.872C21.2996 25.9447 21.1726 25.989 21.0406 26.0009C20.9086 26.0128 20.7757 25.9919 20.6537 25.9402C20.5317 25.8884 20.4244 25.8074 20.3412 25.7042C20.258 25.6011 20.2015 25.479 20.1768 25.3488C20.0608 24.7328 19.9896 24.1096 19.9624 23.484C19.8279 21.7849 20.1529 20.0808 20.9032 18.5504C20.9488 18.4656 20.9944 18.3808 21.0464 18.2992C21.0528 18.2776 21.0632 18.2576 21.076 18.2392L21.0992 18.1968L21.1576 18.0984L21.1856 18.0552C23.5248 14.224 28.776 12.696 32.968 13.944C35.0689 14.5884 36.9562 15.7895 38.4296 17.42C38.66 17.6904 40.2144 19.852 39.9152 20.8112Z" fill="#0C9EF0"/>
<path d="M37.4056 18.1928L37.4016 18.2016C36.6833 16.9771 35.5883 16.0176 34.28 15.4664C32.8208 14.852 31.232 14.6104 29.656 14.7632C29.096 14.8072 28.5456 14.9288 28.0192 15.1232C27.9683 15.1379 27.9243 15.1703 27.8953 15.2147C27.8662 15.259 27.854 15.3122 27.8608 15.3648C27.8677 15.4173 27.8932 15.4657 27.9327 15.5011C27.9722 15.5364 28.023 15.5565 28.076 15.5576C29.2632 15.432 30.4616 15.464 31.6408 15.6528C35.9824 16.5208 37.372 18.6096 37.524 18.692C37.5672 18.7136 37.6192 18.6704 37.5976 18.6272C37.5408 18.4793 37.4768 18.3343 37.4056 18.1928Z" fill="#0C9EF0"/>
</g>
<defs>
<filter id="filter0_d_1_62" x="2.28571" y="2.28571" width="51.4286" height="51.4286" filterUnits="userSpaceOnUse" color-interpolation-filters="sRGB">
<feFlood flood-opacity="0" result="BackgroundImageFix"/>
<feColorMatrix in="SourceAlpha" type="matrix" values="0 0 0 0 0 0 0 0 0 0 0 0 0 0 0 0 0 0 127 0" result="hardAlpha"/>
<feOffset/>
<feGaussianBlur stdDeviation="2.85714"/>
<feComposite in2="hardAlpha" operator="out"/>
<feColorMatrix type="matrix" values="0 0 0 0 0 0 0 0 0 0 0 0 0 0 0 0 0 0 0.25 0"/>
<feBlend mode="normal" in2="BackgroundImageFix" result="effect1_dropShadow_1_62"/>
<feBlend mode="normal" in="SourceGraphic" in2="effect1_dropShadow_1_62" result="shape"/>
</filter>
<linearGradient id="paint0_linear_1_62" x1="28" y1="0" x2="28" y2="56" gradientUnits="userSpaceOnUse">
<stop stop-color="#075F90"/>
<stop offset="1" stop-color="#03273C"/>
</linearGradient>
</defs>
</svg>
