<svg width="347" height="40" viewBox="0 0 347 40" fill="none" xmlns="http://www.w3.org/2000/svg">
<rect width="347.001" height="40.0014" rx="8" fill="url(#paint0_linear_1_56)"/>
<rect x="1.07143" y="1.07143" width="344.858" height="37.8585" rx="6.92857" stroke="white" stroke-opacity="0.15" stroke-width="2.14286"/>
<g filter="url(#filter0_d_1_56)">
<path fill-rule="evenodd" clip-rule="evenodd" d="M33.509 12.0265C35.0796 14.2891 36 17.0371 36 20C36 22.9629 35.0796 25.7109 33.509 27.9735L29.8825 24.347C30.5947 23.0583 31 21.5765 31 20C31 18.4235 30.5947 16.9417 29.8825 15.653L33.509 12.0265ZM29.9735 8.49095L26.347 12.1175C25.0583 11.4053 23.5765 11 22 11C17.0294 11 13 15.0294 13 20C13 24.9706 17.0294 29 22 29C23.5765 29 25.0583 28.5947 26.347 27.8825L29.9735 31.509C27.7109 33.0796 24.9629 34 22 34C14.268 34 8 27.732 8 20C8 12.268 14.268 6 22 6C24.9629 6 27.7109 6.92043 29.9735 8.49095Z" fill="#7FADF2"/>
<path fill-rule="evenodd" clip-rule="evenodd" d="M33.5091 12.0265C35.0796 14.2891 36 17.0371 36 20C36 22.9629 35.0796 25.7109 33.5091 27.9735L29.8825 24.347C30.5947 23.0583 31 21.5765 31 20C31 18.4235 30.5947 16.9417 29.8825 15.653L33.5091 12.0265Z" fill="#B8D3F4"/>
</g>
<g filter="url(#filter1_d_1_56)">
<path d="M50.103 17.3849C50.0386 16.8134 49.7729 16.3707 49.3061 16.0568C48.8392 15.7389 48.2516 15.5799 47.5433 15.5799C47.0362 15.5799 46.5975 15.6604 46.2272 15.8214C45.857 15.9783 45.5692 16.1957 45.364 16.4734C45.1627 16.747 45.0621 17.0589 45.0621 17.4091C45.0621 17.7029 45.1305 17.9564 45.2674 18.1697C45.4082 18.383 45.5914 18.5621 45.8167 18.707C46.0461 18.8479 46.2916 18.9666 46.5532 19.0632C46.8148 19.1558 47.0664 19.2322 47.3079 19.2926L48.5152 19.6065C48.9097 19.7031 49.3141 19.8339 49.7287 19.9989C50.1432 20.1639 50.5276 20.3813 50.8817 20.6509C51.2359 20.9206 51.5216 21.2546 51.739 21.653C51.9603 22.0515 52.071 22.5284 52.071 23.0838C52.071 23.7841 51.8899 24.4059 51.5277 24.9492C51.1695 25.4925 50.6483 25.9212 49.9641 26.2351C49.2839 26.549 48.4609 26.706 47.495 26.706C46.5693 26.706 45.7684 26.5591 45.0923 26.2653C44.4162 25.9715 43.8869 25.5549 43.5046 25.0156C43.1223 24.4723 42.911 23.8283 42.8707 23.0838H44.7422C44.7784 23.5305 44.9233 23.9028 45.1768 24.2006C45.4344 24.4944 45.7624 24.7138 46.1608 24.8587C46.5633 24.9995 47.004 25.0699 47.4829 25.0699C48.0102 25.0699 48.479 24.9874 48.8895 24.8224C49.3041 24.6534 49.6301 24.42 49.8675 24.1221C50.105 23.8203 50.2237 23.4681 50.2237 23.0657C50.2237 22.6994 50.1191 22.3996 49.9098 22.1662C49.7045 21.9328 49.4248 21.7396 49.0706 21.5866C48.7205 21.4337 48.3241 21.2989 47.8814 21.1822L46.4204 20.7837C45.4304 20.5141 44.6456 20.1176 44.066 19.5944C43.4905 19.0712 43.2027 18.379 43.2027 17.5177C43.2027 16.8054 43.3959 16.1836 43.7823 15.6523C44.1687 15.1211 44.6919 14.7086 45.3519 14.4148C46.0119 14.1169 46.7565 13.968 47.5856 13.968C48.4227 13.968 49.1612 14.1149 49.8011 14.4087C50.445 14.7025 50.9522 15.107 51.3224 15.6221C51.6927 16.1333 51.8859 16.7209 51.902 17.3849H50.103ZM60.0292 22.6552V17.228H61.8403V26.5007H60.0654V24.8949H59.9688C59.7555 25.3899 59.4134 25.8024 58.9425 26.1324C58.4757 26.4584 57.8941 26.6214 57.1979 26.6214C56.6022 26.6214 56.075 26.4906 55.6162 26.229C55.1614 25.9634 54.8032 25.571 54.5416 25.0518C54.284 24.5327 54.1552 23.8907 54.1552 23.1261V17.228H55.9603V22.9087C55.9603 23.5406 56.1354 24.0437 56.4855 24.418C56.8356 24.7922 57.2904 24.9794 57.8498 24.9794C58.1879 24.9794 58.524 24.8949 58.858 24.7258C59.1961 24.5568 59.4758 24.3012 59.6971 23.9591C59.9225 23.6171 60.0332 23.1824 60.0292 22.6552ZM64.2656 29.978V17.228H66.0284V18.7312H66.1793C66.2839 18.538 66.4349 18.3146 66.6321 18.0611C66.8293 17.8075 67.103 17.5862 67.4531 17.397C67.8032 17.2038 68.2661 17.1072 68.8416 17.1072C69.5902 17.1072 70.2583 17.2964 70.8458 17.6747C71.4334 18.053 71.8943 18.5984 72.2283 19.3107C72.5664 20.0231 72.7354 20.8803 72.7354 21.8824C72.7354 22.8846 72.5684 23.7438 72.2343 24.4602C71.9003 25.1726 71.4415 25.7219 70.8579 26.1083C70.2744 26.4906 69.6083 26.6818 68.8597 26.6818C68.2963 26.6818 67.8354 26.5872 67.4772 26.3981C67.1231 26.2089 66.8454 25.9876 66.6441 25.734C66.4429 25.4805 66.288 25.2551 66.1793 25.0579H66.0706V29.978H64.2656ZM66.0344 21.8643C66.0344 22.5163 66.129 23.0878 66.3182 23.5788C66.5073 24.0698 66.781 24.4542 67.1392 24.7319C67.4974 25.0056 67.936 25.1424 68.4552 25.1424C68.9945 25.1424 69.4453 24.9995 69.8075 24.7138C70.1697 24.424 70.4434 24.0316 70.6285 23.5366C70.8177 23.0415 70.9123 22.4841 70.9123 21.8643C70.9123 21.2526 70.8197 20.7032 70.6346 20.2163C70.4534 19.7293 70.1798 19.3449 69.8135 19.0632C69.4513 18.7815 68.9985 18.6406 68.4552 18.6406C67.932 18.6406 67.4893 18.7754 67.1271 19.0451C66.7689 19.3147 66.4972 19.691 66.3121 20.174C66.127 20.6569 66.0344 21.2204 66.0344 21.8643ZM74.7578 29.978V17.228H76.5206V18.7312H76.6715C76.7761 18.538 76.927 18.3146 77.1243 18.0611C77.3215 17.8075 77.5951 17.5862 77.9453 17.397C78.2954 17.2038 78.7583 17.1072 79.3338 17.1072C80.0824 17.1072 80.7504 17.2964 81.338 17.6747C81.9256 18.053 82.3864 18.5984 82.7205 19.3107C83.0586 20.0231 83.2276 20.8803 83.2276 21.8824C83.2276 22.8846 83.0606 23.7438 82.7265 24.4602C82.3925 25.1726 81.9337 25.7219 81.3501 26.1083C80.7665 26.4906 80.1005 26.6818 79.3519 26.6818C78.7884 26.6818 78.3276 26.5872 77.9694 26.3981C77.6153 26.2089 77.3376 25.9876 77.1363 25.734C76.9351 25.4805 76.7802 25.2551 76.6715 25.0579H76.5628V29.978H74.7578ZM76.5266 21.8643C76.5266 22.5163 76.6212 23.0878 76.8103 23.5788C76.9995 24.0698 77.2732 24.4542 77.6314 24.7319C77.9895 25.0056 78.4282 25.1424 78.9474 25.1424C79.4867 25.1424 79.9375 24.9995 80.2997 24.7138C80.6619 24.424 80.9356 24.0316 81.1207 23.5366C81.3099 23.0415 81.4044 22.4841 81.4044 21.8643C81.4044 21.2526 81.3119 20.7032 81.1267 20.2163C80.9456 19.7293 80.672 19.3449 80.3057 19.0632C79.9435 18.7815 79.4907 18.6406 78.9474 18.6406C78.4242 18.6406 77.9815 18.7754 77.6193 19.0451C77.2611 19.3147 76.9894 19.691 76.8043 20.174C76.6192 20.6569 76.5266 21.2204 76.5266 21.8643ZM89.1559 26.6878C88.2865 26.6878 87.5279 26.4886 86.8799 26.0902C86.232 25.6917 85.7289 25.1343 85.3707 24.418C85.0125 23.7016 84.8334 22.8645 84.8334 21.9066C84.8334 20.9447 85.0125 20.1036 85.3707 19.3832C85.7289 18.6627 86.232 18.1033 86.8799 17.7049C87.5279 17.3065 88.2865 17.1072 89.1559 17.1072C90.0252 17.1072 90.7838 17.3065 91.4318 17.7049C92.0797 18.1033 92.5828 18.6627 92.941 19.3832C93.2992 20.1036 93.4783 20.9447 93.4783 21.9066C93.4783 22.8645 93.2992 23.7016 92.941 24.418C92.5828 25.1343 92.0797 25.6917 91.4318 26.0902C90.7838 26.4886 90.0252 26.6878 89.1559 26.6878ZM89.1619 25.1726C89.7253 25.1726 90.1922 25.0237 90.5625 24.7258C90.9327 24.428 91.2064 24.0316 91.3835 23.5366C91.5646 23.0415 91.6551 22.4962 91.6551 21.9006C91.6551 21.3089 91.5646 20.7656 91.3835 20.2706C91.2064 19.7715 90.9327 19.3711 90.5625 19.0692C90.1922 18.7674 89.7253 18.6165 89.1619 18.6165C88.5944 18.6165 88.1235 18.7674 87.7493 19.0692C87.379 19.3711 87.1033 19.7715 86.9222 20.2706C86.7451 20.7656 86.6566 21.3089 86.6566 21.9006C86.6566 22.4962 86.7451 23.0415 86.9222 23.5366C87.1033 24.0316 87.379 24.428 87.7493 24.7258C88.1235 25.0237 88.5944 25.1726 89.1619 25.1726ZM95.4931 26.5007V17.228H97.2378V18.701H97.3344C97.5034 18.2019 97.8012 17.8095 98.2279 17.5238C98.6585 17.234 99.1455 17.0891 99.6888 17.0891C99.8015 17.0891 99.9343 17.0931 100.087 17.1012C100.244 17.1092 100.367 17.1193 100.455 17.1314V18.8579C100.383 18.8378 100.254 18.8157 100.069 18.7915C99.884 18.7634 99.6989 18.7493 99.5137 18.7493C99.0871 18.7493 98.7068 18.8398 98.3727 19.0209C98.0427 19.198 97.7811 19.4455 97.5879 19.7635C97.3948 20.0774 97.2982 20.4356 97.2982 20.8381V26.5007H95.4931ZM106.894 17.228V18.6768H101.829V17.228H106.894ZM103.187 15.0064H104.992V23.778C104.992 24.1282 105.045 24.3918 105.149 24.5689C105.254 24.7419 105.389 24.8607 105.554 24.9251C105.723 24.9854 105.906 25.0156 106.103 25.0156C106.248 25.0156 106.375 25.0056 106.483 24.9854C106.592 24.9653 106.677 24.9492 106.737 24.9371L107.063 26.4283C106.958 26.4685 106.809 26.5087 106.616 26.549C106.423 26.5933 106.182 26.6174 105.892 26.6214C105.417 26.6295 104.974 26.545 104.564 26.3679C104.153 26.1908 103.821 25.9171 103.568 25.5469C103.314 25.1766 103.187 24.7118 103.187 24.1523V15.0064ZM119.264 22.6552V17.228H121.075V26.5007H119.3V24.8949H119.203C118.99 25.3899 118.648 25.8024 118.177 26.1324C117.71 26.4584 117.128 26.6214 116.432 26.6214C115.837 26.6214 115.309 26.4906 114.851 26.229C114.396 25.9634 114.038 25.571 113.776 25.0518C113.518 24.5327 113.39 23.8907 113.39 23.1261V17.228H115.195V22.9087C115.195 23.5406 115.37 24.0437 115.72 24.418C116.07 24.7922 116.525 24.9794 117.084 24.9794C117.422 24.9794 117.758 24.8949 118.092 24.7258C118.43 24.5568 118.71 24.3012 118.932 23.9591C119.157 23.6171 119.268 23.1824 119.264 22.6552ZM130.448 19.4918L128.812 19.7816C128.744 19.5723 128.635 19.3731 128.486 19.1839C128.342 18.9948 128.144 18.8398 127.895 18.7191C127.645 18.5984 127.333 18.538 126.959 18.538C126.448 18.538 126.021 18.6527 125.679 18.8821C125.337 19.1075 125.166 19.3993 125.166 19.7574C125.166 20.0673 125.281 20.3169 125.51 20.506C125.74 20.6952 126.11 20.8501 126.621 20.9709L128.094 21.3089C128.947 21.5061 129.583 21.81 130.002 22.2205C130.42 22.631 130.63 23.1643 130.63 23.8203C130.63 24.3757 130.469 24.8707 130.147 25.3054C129.829 25.736 129.384 26.0741 128.812 26.3196C128.245 26.5651 127.587 26.6878 126.838 26.6878C125.8 26.6878 124.953 26.4665 124.297 26.0238C123.641 25.577 123.238 24.9432 123.089 24.1221L124.834 23.8565C124.943 24.3113 125.166 24.6554 125.504 24.8888C125.842 25.1182 126.283 25.2329 126.826 25.2329C127.418 25.2329 127.891 25.1102 128.245 24.8647C128.599 24.6152 128.776 24.3113 128.776 23.9531C128.776 23.6633 128.668 23.4199 128.45 23.2226C128.237 23.0254 127.909 22.8765 127.466 22.7759L125.897 22.4318C125.031 22.2346 124.391 21.9207 123.977 21.49C123.566 21.0594 123.361 20.5141 123.361 19.854C123.361 19.3067 123.514 18.8278 123.82 18.4172C124.126 18.0067 124.548 17.6868 125.088 17.4574C125.627 17.2239 126.245 17.1072 126.941 17.1072C127.943 17.1072 128.732 17.3246 129.307 17.7592C129.883 18.1899 130.263 18.7674 130.448 19.4918ZM141.442 17.228V18.6768H136.377V17.228H141.442ZM137.735 15.0064H139.54V23.778C139.54 24.1282 139.592 24.3918 139.697 24.5689C139.802 24.7419 139.936 24.8607 140.102 24.9251C140.271 24.9854 140.454 25.0156 140.651 25.0156C140.796 25.0156 140.923 25.0056 141.031 24.9854C141.14 24.9653 141.224 24.9492 141.285 24.9371L141.611 26.4283C141.506 26.4685 141.357 26.5087 141.164 26.549C140.971 26.5933 140.729 26.6174 140.44 26.6214C139.965 26.6295 139.522 26.545 139.111 26.3679C138.701 26.1908 138.369 25.9171 138.115 25.5469C137.862 25.1766 137.735 24.7118 137.735 24.1523V15.0064ZM145.443 20.995V26.5007H143.638V14.1371H145.419V18.7372H145.533C145.751 18.2382 146.083 17.8417 146.529 17.5479C146.976 17.2541 147.56 17.1072 148.28 17.1072C148.916 17.1072 149.471 17.238 149.946 17.4996C150.425 17.7612 150.795 18.1516 151.057 18.6708C151.323 19.1859 151.455 19.8299 151.455 20.6026V26.5007H149.65V20.8199C149.65 20.1398 149.475 19.6126 149.125 19.2383C148.775 18.86 148.288 18.6708 147.664 18.6708C147.238 18.6708 146.855 18.7614 146.517 18.9425C146.183 19.1236 145.92 19.3892 145.726 19.7393C145.537 20.0855 145.443 20.504 145.443 20.995ZM153.864 26.5007V17.228H155.609V18.701H155.705C155.874 18.2019 156.172 17.8095 156.599 17.5238C157.03 17.234 157.517 17.0891 158.06 17.0891C158.173 17.0891 158.305 17.0931 158.458 17.1012C158.615 17.1092 158.738 17.1193 158.827 17.1314V18.8579C158.754 18.8378 158.625 18.8157 158.44 18.7915C158.255 18.7634 158.07 18.7493 157.885 18.7493C157.458 18.7493 157.078 18.8398 156.744 19.0209C156.414 19.198 156.152 19.4455 155.959 19.7635C155.766 20.0774 155.669 20.4356 155.669 20.8381V26.5007H153.864ZM163.962 26.6878C163.093 26.6878 162.335 26.4886 161.687 26.0902C161.039 25.6917 160.536 25.1343 160.177 24.418C159.819 23.7016 159.64 22.8645 159.64 21.9066C159.64 20.9447 159.819 20.1036 160.177 19.3832C160.536 18.6627 161.039 18.1033 161.687 17.7049C162.335 17.3065 163.093 17.1072 163.962 17.1072C164.832 17.1072 165.59 17.3065 166.238 17.7049C166.886 18.1033 167.389 18.6627 167.748 19.3832C168.106 20.1036 168.285 20.9447 168.285 21.9066C168.285 22.8645 168.106 23.7016 167.748 24.418C167.389 25.1343 166.886 25.6917 166.238 26.0902C165.59 26.4886 164.832 26.6878 163.962 26.6878ZM163.969 25.1726C164.532 25.1726 164.999 25.0237 165.369 24.7258C165.739 24.428 166.013 24.0316 166.19 23.5366C166.371 23.0415 166.462 22.4962 166.462 21.9006C166.462 21.3089 166.371 20.7656 166.19 20.2706C166.013 19.7715 165.739 19.3711 165.369 19.0692C164.999 18.7674 164.532 18.6165 163.969 18.6165C163.401 18.6165 162.93 18.7674 162.556 19.0692C162.186 19.3711 161.91 19.7715 161.729 20.2706C161.552 20.7656 161.463 21.3089 161.463 21.9006C161.463 22.4962 161.552 23.0415 161.729 23.5366C161.91 24.0316 162.186 24.428 162.556 24.7258C162.93 25.0237 163.401 25.1726 163.969 25.1726ZM176.174 22.6552V17.228H177.985V26.5007H176.21V24.8949H176.113C175.9 25.3899 175.558 25.8024 175.087 26.1324C174.62 26.4584 174.039 26.6214 173.342 26.6214C172.747 26.6214 172.219 26.4906 171.761 26.229C171.306 25.9634 170.948 25.571 170.686 25.0518C170.429 24.5327 170.3 23.8907 170.3 23.1261V17.228H172.105V22.9087C172.105 23.5406 172.28 24.0437 172.63 24.418C172.98 24.7922 173.435 24.9794 173.994 24.9794C174.332 24.9794 174.668 24.8949 175.003 24.7258C175.341 24.5568 175.62 24.3012 175.842 23.9591C176.067 23.6171 176.178 23.1824 176.174 22.6552ZM184.298 30.1712C183.561 30.1712 182.927 30.0746 182.396 29.8814C181.869 29.6882 181.438 29.4326 181.104 29.1147C180.77 28.7967 180.521 28.4486 180.356 28.0703L181.907 27.4304C182.016 27.6075 182.161 27.7946 182.342 27.9918C182.527 28.193 182.777 28.3641 183.09 28.505C183.408 28.6458 183.817 28.7163 184.316 28.7163C185 28.7163 185.566 28.5492 186.012 28.2152C186.459 27.8852 186.682 27.3579 186.682 26.6335V24.8104H186.568C186.459 25.0076 186.302 25.2269 186.097 25.4684C185.896 25.7099 185.618 25.9191 185.264 26.0962C184.91 26.2733 184.449 26.3618 183.881 26.3618C183.149 26.3618 182.489 26.1908 181.901 25.8487C181.318 25.5026 180.855 24.9935 180.513 24.3214C180.175 23.6452 180.006 22.8141 180.006 21.8281C180.006 20.8421 180.173 19.9969 180.507 19.2926C180.845 18.5883 181.308 18.049 181.895 17.6747C182.483 17.2964 183.149 17.1072 183.893 17.1072C184.469 17.1072 184.934 17.2038 185.288 17.397C185.642 17.5862 185.918 17.8075 186.115 18.0611C186.316 18.3146 186.471 18.538 186.58 18.7312H186.713V17.228H188.481V26.706C188.481 27.5028 188.296 28.1568 187.926 28.668C187.556 29.1791 187.055 29.5574 186.423 29.8029C185.795 30.0484 185.087 30.1712 184.298 30.1712ZM184.28 24.8647C184.799 24.8647 185.238 24.744 185.596 24.5025C185.958 24.257 186.232 23.9068 186.417 23.452C186.606 22.9932 186.701 22.4439 186.701 21.804C186.701 21.1801 186.608 20.6308 186.423 20.1559C186.238 19.681 185.966 19.3107 185.608 19.0451C185.25 18.7754 184.807 18.6406 184.28 18.6406C183.736 18.6406 183.284 18.7815 182.921 19.0632C182.559 19.3409 182.286 19.7192 182.1 20.1981C181.919 20.6771 181.829 21.2123 181.829 21.804C181.829 22.4117 181.921 22.9449 182.106 23.4038C182.292 23.8626 182.565 24.2207 182.927 24.4783C183.294 24.7359 183.744 24.8647 184.28 24.8647ZM192.707 20.995V26.5007H190.902V14.1371H192.683V18.7372H192.798C193.015 18.2382 193.347 17.8417 193.794 17.5479C194.241 17.2541 194.824 17.1072 195.545 17.1072C196.181 17.1072 196.736 17.238 197.211 17.4996C197.69 17.7612 198.06 18.1516 198.322 18.6708C198.587 19.1859 198.72 19.8299 198.72 20.6026V26.5007H196.915V20.8199C196.915 20.1398 196.74 19.6126 196.39 19.2383C196.04 18.86 195.553 18.6708 194.929 18.6708C194.502 18.6708 194.12 18.7614 193.782 18.9425C193.448 19.1236 193.184 19.3892 192.991 19.7393C192.802 20.0855 192.707 20.504 192.707 20.995Z" fill="#E8E8E8"/>
<path d="M216.606 20.3189C216.606 21.6792 216.345 22.8323 215.822 23.778C215.298 24.7238 214.59 25.4422 213.697 25.9332C212.807 26.4242 211.809 26.6697 210.702 26.6697C209.592 26.6697 208.591 26.4222 207.702 25.9272C206.813 25.4322 206.106 24.7138 205.583 23.772C205.064 22.8262 204.804 21.6752 204.804 20.3189C204.804 18.9586 205.064 17.8055 205.583 16.8597C206.106 15.9139 206.813 15.1955 207.702 14.7045C208.591 14.2135 209.592 13.968 210.702 13.968C211.809 13.968 212.807 14.2135 213.697 14.7045C214.59 15.1955 215.298 15.9139 215.822 16.8597C216.345 17.8055 216.606 18.9586 216.606 20.3189ZM213.552 20.3189C213.552 19.514 213.437 18.8338 213.208 18.2784C212.982 17.723 212.656 17.3024 212.23 17.0167C211.807 16.7309 211.298 16.5881 210.702 16.5881C210.111 16.5881 209.602 16.7309 209.175 17.0167C208.748 17.3024 208.42 17.723 208.191 18.2784C207.966 18.8338 207.853 19.514 207.853 20.3189C207.853 21.1238 207.966 21.804 208.191 22.3594C208.42 22.9148 208.748 23.3353 209.175 23.6211C209.602 23.9068 210.111 24.0497 210.702 24.0497C211.298 24.0497 211.807 23.9068 212.23 23.6211C212.656 23.3353 212.982 22.9148 213.208 22.3594C213.437 21.804 213.552 21.1238 213.552 20.3189ZM218.351 29.978V17.228H221.273V18.8157H221.364C221.484 18.534 221.655 18.2623 221.877 18.0007C222.102 17.7391 222.388 17.5258 222.734 17.3608C223.084 17.1918 223.503 17.1072 223.99 17.1072C224.634 17.1072 225.235 17.2763 225.795 17.6143C226.358 17.9524 226.813 18.4736 227.159 19.1779C227.505 19.8822 227.678 20.7797 227.678 21.8704C227.678 22.9208 227.511 23.8002 227.177 24.5085C226.847 25.2168 226.4 25.7481 225.837 26.1023C225.277 26.4564 224.656 26.6335 223.972 26.6335C223.505 26.6335 223.1 26.557 222.758 26.4041C222.416 26.2512 222.128 26.0499 221.895 25.8004C221.665 25.5509 221.488 25.2832 221.364 24.9975H221.303V29.978H218.351ZM221.243 21.8643C221.243 22.3634 221.309 22.798 221.442 23.1683C221.579 23.5386 221.774 23.8263 222.028 24.0316C222.285 24.2328 222.593 24.3334 222.951 24.3334C223.313 24.3334 223.621 24.2328 223.875 24.0316C224.128 23.8263 224.32 23.5386 224.448 23.1683C224.581 22.798 224.648 22.3634 224.648 21.8643C224.648 21.3653 224.581 20.9326 224.448 20.5664C224.32 20.2002 224.128 19.9164 223.875 19.7152C223.625 19.514 223.318 19.4133 222.951 19.4133C222.589 19.4133 222.281 19.5119 222.028 19.7092C221.774 19.9064 221.579 20.1881 221.442 20.5543C221.309 20.9206 221.243 21.3572 221.243 21.8643ZM233.56 26.6758C232.59 26.6758 231.753 26.4846 231.048 26.1023C230.348 25.7159 229.809 25.1665 229.43 24.4542C229.056 23.7378 228.869 22.8866 228.869 21.9006C228.869 20.9427 229.058 20.1056 229.436 19.3892C229.815 18.6688 230.348 18.1094 231.036 17.7109C231.724 17.3085 232.535 17.1072 233.469 17.1072C234.129 17.1072 234.733 17.2099 235.28 17.4151C235.828 17.6204 236.3 17.9242 236.699 18.3267C237.097 18.7292 237.407 19.2262 237.629 19.8178C237.85 20.4054 237.961 21.0795 237.961 21.8402V22.5767H229.901V20.8622H235.214C235.21 20.5483 235.135 20.2686 234.99 20.0231C234.846 19.7776 234.646 19.5864 234.393 19.4496C234.143 19.3087 233.855 19.2383 233.529 19.2383C233.199 19.2383 232.904 19.3127 232.642 19.4616C232.38 19.6065 232.173 19.8057 232.02 20.0593C231.867 20.3088 231.787 20.5926 231.779 20.9105V22.6552C231.779 23.0335 231.853 23.3655 232.002 23.6513C232.151 23.933 232.362 24.1523 232.636 24.3093C232.91 24.4663 233.236 24.5447 233.614 24.5447C233.876 24.5447 234.113 24.5085 234.326 24.4361C234.54 24.3636 234.723 24.257 234.876 24.1161C235.029 23.9752 235.143 23.8022 235.22 23.5969L237.93 23.6754C237.818 24.2831 237.57 24.8124 237.188 25.2631C236.81 25.7099 236.313 26.058 235.697 26.3075C235.081 26.553 234.369 26.6758 233.56 26.6758ZM242.42 21.2123V26.5007H239.468V17.228H242.275V18.9304H242.378C242.583 18.3629 242.934 17.9182 243.429 17.5962C243.924 17.2702 244.513 17.1072 245.197 17.1072C245.849 17.1072 246.415 17.2541 246.894 17.5479C247.377 17.8377 247.751 18.2442 248.017 18.7674C248.286 19.2866 248.419 19.8943 248.415 20.5905V26.5007H245.463V21.1701C245.467 20.6549 245.336 20.2525 245.071 19.9627C244.809 19.6729 244.445 19.528 243.978 19.528C243.668 19.528 243.394 19.5965 243.157 19.7333C242.923 19.8661 242.742 20.0573 242.614 20.3068C242.489 20.5563 242.424 20.8582 242.42 21.2123ZM265.118 18.6165H262.099C262.059 18.3066 261.976 18.0269 261.852 17.7773C261.727 17.5278 261.562 17.3145 261.357 17.1374C261.151 16.9603 260.908 16.8255 260.626 16.7329C260.349 16.6364 260.041 16.5881 259.703 16.5881C259.103 16.5881 258.586 16.735 258.151 17.0288C257.72 17.3226 257.388 17.7471 257.155 18.3025C256.926 18.8579 256.811 19.5301 256.811 20.3189C256.811 21.1399 256.928 21.8281 257.161 22.3835C257.398 22.9349 257.731 23.3514 258.157 23.6332C258.588 23.9109 259.097 24.0497 259.684 24.0497C260.014 24.0497 260.314 24.0074 260.584 23.9229C260.858 23.8384 261.097 23.7157 261.302 23.5547C261.512 23.3897 261.683 23.1904 261.816 22.957C261.952 22.7196 262.047 22.4519 262.099 22.1541L265.118 22.1722C265.065 22.7196 264.906 23.2589 264.641 23.7901C264.379 24.3214 264.019 24.8063 263.56 25.245C263.101 25.6797 262.542 26.0258 261.882 26.2834C261.226 26.5409 260.473 26.6697 259.624 26.6697C258.505 26.6697 257.503 26.4242 256.618 25.9332C255.736 25.4382 255.04 24.7178 254.529 23.772C254.018 22.8262 253.762 21.6752 253.762 20.3189C253.762 18.9586 254.022 17.8055 254.541 16.8597C255.06 15.9139 255.762 15.1955 256.648 14.7045C257.533 14.2135 258.525 13.968 259.624 13.968C260.373 13.968 261.065 14.0727 261.701 14.282C262.337 14.4872 262.896 14.7891 263.379 15.1875C263.862 15.5819 264.254 16.0669 264.556 16.6424C264.858 17.2179 265.045 17.8759 265.118 18.6165ZM271.156 26.6758C270.182 26.6758 269.345 26.4765 268.645 26.0781C267.949 25.6756 267.411 25.1162 267.033 24.3998C266.659 23.6794 266.471 22.8443 266.471 21.8945C266.471 20.9407 266.659 20.1056 267.033 19.3892C267.411 18.6688 267.949 18.1094 268.645 17.7109C269.345 17.3085 270.182 17.1072 271.156 17.1072C272.13 17.1072 272.965 17.3085 273.661 17.7109C274.362 18.1094 274.899 18.6688 275.273 19.3892C275.652 20.1056 275.841 20.9407 275.841 21.8945C275.841 22.8443 275.652 23.6794 275.273 24.3998C274.899 25.1162 274.362 25.6756 273.661 26.0781C272.965 26.4765 272.13 26.6758 271.156 26.6758ZM271.174 24.4481C271.528 24.4481 271.828 24.3395 272.074 24.1221C272.319 23.9048 272.506 23.603 272.635 23.2166C272.768 22.8302 272.834 22.3835 272.834 21.8764C272.834 21.3613 272.768 20.9105 272.635 20.5241C272.506 20.1378 272.319 19.8359 272.074 19.6186C271.828 19.4013 271.528 19.2926 271.174 19.2926C270.808 19.2926 270.498 19.4013 270.245 19.6186C269.995 19.8359 269.804 20.1378 269.671 20.5241C269.542 20.9105 269.478 21.3613 269.478 21.8764C269.478 22.3835 269.542 22.8302 269.671 23.2166C269.804 23.603 269.995 23.9048 270.245 24.1221C270.498 24.3395 270.808 24.4481 271.174 24.4481ZM280.305 14.1371V26.5007H277.353V14.1371H280.305ZM285.136 14.1371V26.5007H282.184V14.1371H285.136ZM291.35 26.6758C290.38 26.6758 289.543 26.4846 288.838 26.1023C288.138 25.7159 287.599 25.1665 287.22 24.4542C286.846 23.7378 286.659 22.8866 286.659 21.9006C286.659 20.9427 286.848 20.1056 287.226 19.3892C287.605 18.6688 288.138 18.1094 288.826 17.7109C289.514 17.3085 290.325 17.1072 291.259 17.1072C291.919 17.1072 292.523 17.2099 293.07 17.4151C293.618 17.6204 294.09 17.9242 294.489 18.3267C294.887 18.7292 295.197 19.2262 295.419 19.8178C295.64 20.4054 295.751 21.0795 295.751 21.8402V22.5767H287.691V20.8622H293.004C293 20.5483 292.925 20.2686 292.78 20.0231C292.636 19.7776 292.436 19.5864 292.183 19.4496C291.933 19.3087 291.645 19.2383 291.319 19.2383C290.989 19.2383 290.694 19.3127 290.432 19.4616C290.17 19.6065 289.963 19.8057 289.81 20.0593C289.657 20.3088 289.577 20.5926 289.569 20.9105V22.6552C289.569 23.0335 289.643 23.3655 289.792 23.6513C289.941 23.933 290.152 24.1523 290.426 24.3093C290.7 24.4663 291.026 24.5447 291.404 24.5447C291.666 24.5447 291.903 24.5085 292.116 24.4361C292.33 24.3636 292.513 24.257 292.666 24.1161C292.819 23.9752 292.933 23.8022 293.01 23.5969L295.72 23.6754C295.608 24.2831 295.36 24.8124 294.978 25.2631C294.6 25.7099 294.103 26.058 293.487 26.3075C292.871 26.553 292.159 26.6758 291.35 26.6758ZM301.587 26.6758C300.609 26.6758 299.77 26.4745 299.069 26.0721C298.373 25.6696 297.838 25.1102 297.464 24.3938C297.089 23.6734 296.902 22.8403 296.902 21.8945C296.902 20.9447 297.089 20.1116 297.464 19.3952C297.842 18.6748 298.379 18.1134 299.075 17.7109C299.776 17.3085 300.611 17.1072 301.581 17.1072C302.438 17.1072 303.185 17.2622 303.82 17.5721C304.46 17.882 304.959 18.3207 305.318 18.8881C305.68 19.4516 305.871 20.1136 305.891 20.8743H303.132C303.076 20.3994 302.915 20.0271 302.649 19.7574C302.388 19.4878 302.046 19.353 301.623 19.353C301.281 19.353 300.981 19.4496 300.724 19.6427C300.466 19.8319 300.265 20.1136 300.12 20.4879C299.979 20.8582 299.909 21.317 299.909 21.8643C299.909 22.4117 299.979 22.8745 300.12 23.2528C300.265 23.6271 300.466 23.9109 300.724 24.104C300.981 24.2932 301.281 24.3878 301.623 24.3878C301.897 24.3878 302.138 24.3294 302.347 24.2127C302.561 24.096 302.736 23.9249 302.873 23.6996C303.01 23.4702 303.096 23.1925 303.132 22.8665H305.891C305.863 23.6311 305.672 24.2992 305.318 24.8707C304.967 25.4422 304.474 25.8869 303.839 26.2049C303.207 26.5188 302.456 26.6758 301.587 26.6758ZM312.636 17.228V19.4013H306.786V17.228H312.636ZM308.012 15.0064H310.964V23.5849C310.964 23.766 310.992 23.9129 311.048 24.0256C311.109 24.1342 311.195 24.2127 311.308 24.261C311.42 24.3053 311.555 24.3274 311.712 24.3274C311.825 24.3274 311.944 24.3173 312.068 24.2972C312.197 24.2731 312.294 24.2529 312.358 24.2368L312.805 26.3679C312.664 26.4081 312.465 26.4584 312.207 26.5188C311.954 26.5792 311.65 26.6174 311.296 26.6335C310.603 26.6657 310.01 26.5852 309.515 26.392C309.024 26.1948 308.648 25.889 308.386 25.4744C308.128 25.0599 308.004 24.5387 308.012 23.9109V15.0064ZM314.142 26.5007V17.228H317.094V26.5007H314.142ZM315.621 16.1474C315.207 16.1474 314.85 16.0105 314.553 15.7369C314.255 15.4592 314.106 15.1251 314.106 14.7347C314.106 14.3484 314.255 14.0183 314.553 13.7447C314.85 13.467 315.207 13.3281 315.621 13.3281C316.04 13.3281 316.396 13.467 316.69 13.7447C316.988 14.0183 317.136 14.3484 317.136 14.7347C317.136 15.1251 316.988 15.4592 316.69 15.7369C316.396 16.0105 316.04 16.1474 315.621 16.1474ZM327.968 17.228L324.787 26.5007H321.406L318.231 17.228H321.34L323.048 23.615H323.145L324.859 17.228H327.968ZM333.136 26.6758C332.166 26.6758 331.329 26.4846 330.624 26.1023C329.924 25.7159 329.385 25.1665 329.007 24.4542C328.632 23.7378 328.445 22.8866 328.445 21.9006C328.445 20.9427 328.634 20.1056 329.013 19.3892C329.391 18.6688 329.924 18.1094 330.612 17.7109C331.301 17.3085 332.112 17.1072 333.045 17.1072C333.705 17.1072 334.309 17.2099 334.856 17.4151C335.404 17.6204 335.877 17.9242 336.275 18.3267C336.673 18.7292 336.983 19.2262 337.205 19.8178C337.426 20.4054 337.537 21.0795 337.537 21.8402V22.5767H329.477V20.8622H334.79C334.786 20.5483 334.711 20.2686 334.567 20.0231C334.422 19.7776 334.222 19.5864 333.969 19.4496C333.719 19.3087 333.432 19.2383 333.106 19.2383C332.776 19.2383 332.48 19.3127 332.218 19.4616C331.957 19.6065 331.749 19.8057 331.596 20.0593C331.443 20.3088 331.363 20.5926 331.355 20.9105V22.6552C331.355 23.0335 331.429 23.3655 331.578 23.6513C331.727 23.933 331.938 24.1523 332.212 24.3093C332.486 24.4663 332.812 24.5447 333.19 24.5447C333.452 24.5447 333.689 24.5085 333.902 24.4361C334.116 24.3636 334.299 24.257 334.452 24.1161C334.605 23.9752 334.719 23.8022 334.796 23.5969L337.507 23.6754C337.394 24.2831 337.146 24.8124 336.764 25.2631C336.386 25.7099 335.889 26.058 335.273 26.3075C334.657 26.553 333.945 26.6758 333.136 26.6758Z" fill="#7FADF2"/>
</g>
<defs>
<filter id="filter0_d_1_56" x="2.39972" y="0.39972" width="39.202" height="39.202" filterUnits="userSpaceOnUse" color-interpolation-filters="sRGB">
<feFlood flood-opacity="0" result="BackgroundImageFix"/>
<feColorMatrix in="SourceAlpha" type="matrix" values="0 0 0 0 0 0 0 0 0 0 0 0 0 0 0 0 0 0 127 0" result="hardAlpha"/>
<feOffset/>
<feGaussianBlur stdDeviation="2.80014"/>
<feComposite in2="hardAlpha" operator="out"/>
<feColorMatrix type="matrix" values="0 0 0 0 0 0 0 0 0 0 0 0 0 0 0 0 0 0 0.25 0"/>
<feBlend mode="normal" in2="BackgroundImageFix" result="effect1_dropShadow_1_56"/>
<feBlend mode="normal" in="SourceGraphic" in2="effect1_dropShadow_1_56" result="shape"/>
</filter>
<filter id="filter1_d_1_56" x="36.2871" y="3.78642" width="308.428" height="32.4286" filterUnits="userSpaceOnUse" color-interpolation-filters="sRGB">
<feFlood flood-opacity="0" result="BackgroundImageFix"/>
<feColorMatrix in="SourceAlpha" type="matrix" values="0 0 0 0 0 0 0 0 0 0 0 0 0 0 0 0 0 0 127 0" result="hardAlpha"/>
<feOffset/>
<feGaussianBlur stdDeviation="2.85714"/>
<feComposite in2="hardAlpha" operator="out"/>
<feColorMatrix type="matrix" values="0 0 0 0 0 0 0 0 0 0 0 0 0 0 0 0 0 0 0.25 0"/>
<feBlend mode="normal" in2="BackgroundImageFix" result="effect1_dropShadow_1_56"/>
<feBlend mode="normal" in="SourceGraphic" in2="effect1_dropShadow_1_56" result="shape"/>
</filter>
<linearGradient id="paint0_linear_1_56" x1="173.501" y1="0" x2="173.501" y2="40.0014" gradientUnits="userSpaceOnUse">
<stop stop-color="#445A7A"/>
<stop offset="0.9982" stop-color="#222D3D"/>
<stop offset="0.9983" stop-color="#346725"/>
<stop offset="0.9984" stop-color="#161616"/>
</linearGradient>
</defs>
</svg>
