<svg width="221" height="56" viewBox="0 0 221 56" fill="none" xmlns="http://www.w3.org/2000/svg">
<rect width="221" height="56" rx="8" fill="url(#paint0_linear_1_50)"/>
<rect x="1.05" y="1.05" width="218.9" height="53.9" rx="6.95" stroke="white" stroke-opacity="0.15" stroke-width="2.1"/>
<g filter="url(#filter0_d_1_50)">
<path fill-rule="evenodd" clip-rule="evenodd" d="M48.4415 16.6093C50.6851 19.8416 52 23.7672 52 28C52 32.2328 50.6851 36.1584 48.4415 39.3907L43.2607 34.21C44.2781 32.3691 44.8571 30.2522 44.8571 28C44.8571 25.7478 44.2781 23.6309 43.2607 21.79L48.4415 16.6093ZM43.3907 11.5585L38.21 16.7393C36.3691 15.7219 34.2522 15.1429 32 15.1429C24.8992 15.1429 19.1429 20.8992 19.1429 28C19.1429 35.1008 24.8992 40.8571 32 40.8571C34.2522 40.8571 36.3691 40.2781 38.21 39.2607L43.3907 44.4415C40.1584 46.6851 36.2328 48 32 48C20.9543 48 12 39.0457 12 28C12 16.9543 20.9543 8 32 8C36.2328 8 40.1584 9.3149 43.3907 11.5585Z" fill="#7FADF2"/>
<path fill-rule="evenodd" clip-rule="evenodd" d="M48.4415 16.6093C50.6851 19.8416 52 23.7673 52 28C52 32.2328 50.6851 36.1584 48.4415 39.3907L43.2607 34.21C44.2781 32.3691 44.8572 30.2522 44.8572 28C44.8572 25.7478 44.2781 23.6309 43.2607 21.7901L48.4415 16.6093Z" fill="#B8D3F4"/>
</g>
<g filter="url(#filter1_d_1_50)">
<path d="M67.625 15.9204C67.5644 15.3826 67.3144 14.9659 66.875 14.6704C66.4356 14.3712 65.8826 14.2216 65.2159 14.2216C64.7386 14.2216 64.3257 14.2973 63.9773 14.4489C63.6288 14.5966 63.3579 14.8011 63.1648 15.0625C62.9754 15.3201 62.8807 15.6136 62.8807 15.9432C62.8807 16.2197 62.9451 16.4583 63.0738 16.6591C63.2064 16.8598 63.3788 17.0284 63.5909 17.1648C63.8068 17.2973 64.0379 17.4091 64.2841 17.5C64.5303 17.5871 64.767 17.6591 64.9943 17.7159L66.1307 18.0114C66.5019 18.1023 66.8826 18.2254 67.2727 18.3807C67.6629 18.536 68.0246 18.7405 68.3579 18.9943C68.6913 19.2481 68.9602 19.5625 69.1648 19.9375C69.3731 20.3125 69.4773 20.7614 69.4773 21.2841C69.4773 21.9432 69.3068 22.5284 68.9659 23.0398C68.6288 23.5511 68.1382 23.9545 67.4943 24.25C66.8541 24.5454 66.0795 24.6932 65.1704 24.6932C64.2992 24.6932 63.5454 24.5549 62.9091 24.2784C62.2727 24.0019 61.7746 23.6098 61.4148 23.1023C61.0549 22.5909 60.856 21.9848 60.8182 21.2841H62.5795C62.6136 21.7045 62.75 22.0549 62.9886 22.3352C63.231 22.6117 63.5398 22.8182 63.9148 22.9545C64.2935 23.0871 64.7083 23.1534 65.1591 23.1534C65.6553 23.1534 66.0966 23.0758 66.4829 22.9204C66.8731 22.7614 67.1799 22.5417 67.4034 22.2614C67.6269 21.9773 67.7386 21.6458 67.7386 21.267C67.7386 20.9223 67.6401 20.6401 67.4432 20.4204C67.25 20.2008 66.9867 20.0189 66.6534 19.875C66.3238 19.7311 65.9507 19.6042 65.5341 19.4943L64.1591 19.1193C63.2273 18.8655 62.4886 18.4924 61.9432 18C61.4015 17.5076 61.1307 16.8561 61.1307 16.0454C61.1307 15.375 61.3125 14.7898 61.6761 14.2898C62.0398 13.7898 62.5322 13.4015 63.1534 13.125C63.7746 12.8447 64.4754 12.7045 65.2557 12.7045C66.0435 12.7045 66.7386 12.8428 67.3409 13.1193C67.947 13.3958 68.4242 13.7765 68.7727 14.2614C69.1212 14.7424 69.303 15.2954 69.3182 15.9204H67.625ZM76.9673 20.8807V15.7727H78.6719V24.5H77.0014V22.9886H76.9105C76.7097 23.4545 76.3878 23.8428 75.9446 24.1534C75.5052 24.4602 74.9578 24.6136 74.3025 24.6136C73.7419 24.6136 73.2457 24.4905 72.8139 24.2443C72.3859 23.9943 72.0488 23.625 71.8025 23.1364C71.5601 22.6477 71.4389 22.0436 71.4389 21.3239V15.7727H73.1378V21.1193C73.1378 21.714 73.3025 22.1875 73.6321 22.5398C73.9616 22.892 74.3897 23.0682 74.9162 23.0682C75.2344 23.0682 75.5506 22.9886 75.865 22.8295C76.1832 22.6704 76.4465 22.4299 76.6548 22.1079C76.8669 21.786 76.9711 21.3769 76.9673 20.8807ZM80.9545 27.7727V15.7727H82.6136V17.1875H82.7557C82.8541 17.0057 82.9962 16.7954 83.1818 16.5568C83.3674 16.3182 83.625 16.1098 83.9545 15.9318C84.2841 15.75 84.7197 15.6591 85.2613 15.6591C85.9659 15.6591 86.5947 15.8371 87.1477 16.1932C87.7007 16.5492 88.1344 17.0625 88.4488 17.7329C88.767 18.4034 88.9261 19.2102 88.9261 20.1534C88.9261 21.0966 88.7689 21.9053 88.4545 22.5795C88.1401 23.25 87.7083 23.767 87.1591 24.1307C86.6098 24.4905 85.9829 24.6704 85.2784 24.6704C84.7481 24.6704 84.3144 24.5814 83.9773 24.4034C83.6439 24.2254 83.3826 24.017 83.1932 23.7784C83.0038 23.5398 82.8579 23.3276 82.7557 23.142H82.6534V27.7727H80.9545ZM82.6193 20.1364C82.6193 20.75 82.7083 21.2879 82.8863 21.75C83.0644 22.2121 83.3219 22.5739 83.6591 22.8352C83.9962 23.0928 84.4091 23.2216 84.8977 23.2216C85.4053 23.2216 85.8295 23.0871 86.1704 22.8182C86.5113 22.5454 86.7689 22.1761 86.9432 21.7102C87.1212 21.2443 87.2102 20.7197 87.2102 20.1364C87.2102 19.5606 87.1231 19.0436 86.9488 18.5852C86.7784 18.1269 86.5208 17.7651 86.1761 17.5C85.8352 17.2348 85.4091 17.1023 84.8977 17.1023C84.4053 17.1023 83.9886 17.2292 83.6477 17.4829C83.3106 17.7367 83.0549 18.0909 82.8807 18.5454C82.7064 19 82.6193 19.5303 82.6193 20.1364ZM90.8295 27.7727V15.7727H92.4886V17.1875H92.6307C92.7291 17.0057 92.8712 16.7954 93.0568 16.5568C93.2424 16.3182 93.5 16.1098 93.8295 15.9318C94.1591 15.75 94.5947 15.6591 95.1363 15.6591C95.8409 15.6591 96.4697 15.8371 97.0227 16.1932C97.5757 16.5492 98.0094 17.0625 98.3238 17.7329C98.642 18.4034 98.8011 19.2102 98.8011 20.1534C98.8011 21.0966 98.6439 21.9053 98.3295 22.5795C98.0151 23.25 97.5833 23.767 97.0341 24.1307C96.4848 24.4905 95.8579 24.6704 95.1534 24.6704C94.6231 24.6704 94.1894 24.5814 93.8522 24.4034C93.5189 24.2254 93.2576 24.017 93.0682 23.7784C92.8788 23.5398 92.7329 23.3276 92.6307 23.142H92.5284V27.7727H90.8295ZM92.4943 20.1364C92.4943 20.75 92.5833 21.2879 92.7613 21.75C92.9394 22.2121 93.1969 22.5739 93.5341 22.8352C93.8712 23.0928 94.2841 23.2216 94.7727 23.2216C95.2803 23.2216 95.7045 23.0871 96.0454 22.8182C96.3863 22.5454 96.6439 22.1761 96.8182 21.7102C96.9962 21.2443 97.0852 20.7197 97.0852 20.1364C97.0852 19.5606 96.9981 19.0436 96.8238 18.5852C96.6534 18.1269 96.3958 17.7651 96.0511 17.5C95.7102 17.2348 95.2841 17.1023 94.7727 17.1023C94.2803 17.1023 93.8636 17.2292 93.5227 17.4829C93.1856 17.7367 92.9299 18.0909 92.7557 18.5454C92.5814 19 92.4943 19.5303 92.4943 20.1364ZM104.381 24.6761C103.562 24.6761 102.848 24.4886 102.239 24.1136C101.629 23.7386 101.155 23.214 100.818 22.5398C100.481 21.8655 100.312 21.0776 100.312 20.1761C100.312 19.2708 100.481 18.4792 100.818 17.8011C101.155 17.1231 101.629 16.5966 102.239 16.2216C102.848 15.8466 103.562 15.6591 104.381 15.6591C105.199 15.6591 105.913 15.8466 106.523 16.2216C107.133 16.5966 107.606 17.1231 107.943 17.8011C108.28 18.4792 108.449 19.2708 108.449 20.1761C108.449 21.0776 108.28 21.8655 107.943 22.5398C107.606 23.214 107.133 23.7386 106.523 24.1136C105.913 24.4886 105.199 24.6761 104.381 24.6761ZM104.386 23.25C104.917 23.25 105.356 23.1098 105.705 22.8295C106.053 22.5492 106.311 22.1761 106.477 21.7102C106.648 21.2443 106.733 20.7311 106.733 20.1704C106.733 19.6136 106.648 19.1023 106.477 18.6364C106.311 18.1667 106.053 17.7898 105.705 17.5057C105.356 17.2216 104.917 17.0795 104.386 17.0795C103.852 17.0795 103.409 17.2216 103.057 17.5057C102.708 17.7898 102.449 18.1667 102.278 18.6364C102.112 19.1023 102.028 19.6136 102.028 20.1704C102.028 20.7311 102.112 21.2443 102.278 21.7102C102.449 22.1761 102.708 22.5492 103.057 22.8295C103.409 23.1098 103.852 23.25 104.386 23.25ZM110.345 24.5V15.7727H111.987V17.1591H112.078C112.237 16.6894 112.517 16.3201 112.919 16.0511C113.324 15.7784 113.783 15.642 114.294 15.642C114.4 15.642 114.525 15.6458 114.669 15.6534C114.817 15.661 114.932 15.6704 115.016 15.6818V17.3068C114.947 17.2879 114.826 17.267 114.652 17.2443C114.478 17.2178 114.303 17.2045 114.129 17.2045C113.728 17.2045 113.37 17.2898 113.055 17.4602C112.745 17.6269 112.499 17.8598 112.317 18.1591C112.135 18.4545 112.044 18.7917 112.044 19.1704V24.5H110.345ZM121.075 15.7727V17.1364H116.308V15.7727H121.075ZM117.587 13.6818H119.285V21.9375C119.285 22.267 119.335 22.5151 119.433 22.6818C119.532 22.8447 119.659 22.9564 119.814 23.017C119.973 23.0739 120.145 23.1023 120.331 23.1023C120.467 23.1023 120.587 23.0928 120.689 23.0739C120.791 23.0549 120.871 23.0398 120.928 23.0284L121.234 24.4318C121.136 24.4697 120.996 24.5076 120.814 24.5454C120.632 24.5871 120.405 24.6098 120.132 24.6136C119.685 24.6212 119.268 24.5417 118.882 24.375C118.496 24.2083 118.183 23.9508 117.945 23.6023C117.706 23.2538 117.587 22.8163 117.587 22.2898V13.6818ZM132.717 20.8807V15.7727H134.422V24.5H132.751V22.9886H132.66C132.46 23.4545 132.138 23.8428 131.695 24.1534C131.255 24.4602 130.708 24.6136 130.053 24.6136C129.492 24.6136 128.996 24.4905 128.564 24.2443C128.136 23.9943 127.799 23.625 127.553 23.1364C127.31 22.6477 127.189 22.0436 127.189 21.3239V15.7727H128.888V21.1193C128.888 21.714 129.053 22.1875 129.382 22.5398C129.712 22.892 130.14 23.0682 130.666 23.0682C130.984 23.0682 131.301 22.9886 131.615 22.8295C131.933 22.6704 132.196 22.4299 132.405 22.1079C132.617 21.786 132.721 21.3769 132.717 20.8807ZM143.244 17.9034L141.705 18.1761C141.64 17.9792 141.538 17.7917 141.398 17.6136C141.261 17.4356 141.076 17.2898 140.841 17.1761C140.606 17.0625 140.312 17.0057 139.96 17.0057C139.479 17.0057 139.078 17.1136 138.756 17.3295C138.434 17.5417 138.273 17.8163 138.273 18.1534C138.273 18.4451 138.381 18.6799 138.597 18.8579C138.812 19.036 139.161 19.1818 139.642 19.2954L141.028 19.6136C141.831 19.7992 142.43 20.0852 142.824 20.4716C143.218 20.8579 143.415 21.3598 143.415 21.9773C143.415 22.5 143.263 22.9659 142.96 23.375C142.661 23.7803 142.242 24.0985 141.705 24.3295C141.17 24.5606 140.551 24.6761 139.847 24.6761C138.869 24.6761 138.072 24.4678 137.455 24.0511C136.837 23.6307 136.458 23.0341 136.318 22.2614L137.96 22.0114C138.062 22.4394 138.273 22.7633 138.591 22.9829C138.909 23.1989 139.324 23.3068 139.835 23.3068C140.392 23.3068 140.837 23.1913 141.17 22.9602C141.504 22.7254 141.67 22.4394 141.67 22.1023C141.67 21.8295 141.568 21.6004 141.364 21.4148C141.163 21.2292 140.854 21.089 140.437 20.9943L138.96 20.6704C138.146 20.4848 137.544 20.1894 137.153 19.7841C136.767 19.3788 136.574 18.8655 136.574 18.2443C136.574 17.7292 136.718 17.2784 137.006 16.892C137.294 16.5057 137.691 16.2045 138.199 15.9886C138.706 15.7689 139.288 15.6591 139.943 15.6591C140.886 15.6591 141.629 15.8636 142.17 16.2727C142.712 16.678 143.07 17.2216 143.244 17.9034ZM153.591 15.7727V17.1364H148.824V15.7727H153.591ZM150.102 13.6818H151.801V21.9375C151.801 22.267 151.85 22.5151 151.949 22.6818C152.047 22.8447 152.174 22.9564 152.33 23.017C152.489 23.0739 152.661 23.1023 152.847 23.1023C152.983 23.1023 153.102 23.0928 153.205 23.0739C153.307 23.0549 153.386 23.0398 153.443 23.0284L153.75 24.4318C153.651 24.4697 153.511 24.5076 153.33 24.5454C153.148 24.5871 152.92 24.6098 152.648 24.6136C152.201 24.6212 151.784 24.5417 151.398 24.375C151.011 24.2083 150.699 23.9508 150.46 23.6023C150.222 23.2538 150.102 22.8163 150.102 22.2898V13.6818ZM157.356 19.3182V24.5H155.658V12.8636H157.334V17.1932H157.442C157.646 16.7235 157.959 16.3504 158.379 16.0739C158.8 15.7973 159.349 15.6591 160.027 15.6591C160.625 15.6591 161.148 15.7822 161.595 16.0284C162.046 16.2746 162.394 16.642 162.641 17.1307C162.891 17.6155 163.016 18.2216 163.016 18.9489V24.5H161.317V19.1534C161.317 18.5133 161.152 18.017 160.822 17.6648C160.493 17.3087 160.035 17.1307 159.447 17.1307C159.046 17.1307 158.686 17.2159 158.368 17.3864C158.053 17.5568 157.805 17.8068 157.624 18.1364C157.446 18.4621 157.356 18.8561 157.356 19.3182ZM165.283 24.5V15.7727H166.925V17.1591H167.016C167.175 16.6894 167.455 16.3201 167.856 16.0511C168.262 15.7784 168.72 15.642 169.231 15.642C169.338 15.642 169.463 15.6458 169.606 15.6534C169.754 15.661 169.87 15.6704 169.953 15.6818V17.3068C169.885 17.2879 169.764 17.267 169.589 17.2443C169.415 17.2178 169.241 17.2045 169.067 17.2045C168.665 17.2045 168.307 17.2898 167.993 17.4602C167.682 17.6269 167.436 17.8598 167.254 18.1591C167.072 18.4545 166.981 18.7917 166.981 19.1704V24.5H165.283ZM174.787 24.6761C173.969 24.6761 173.255 24.4886 172.645 24.1136C172.035 23.7386 171.562 23.214 171.224 22.5398C170.887 21.8655 170.719 21.0776 170.719 20.1761C170.719 19.2708 170.887 18.4792 171.224 17.8011C171.562 17.1231 172.035 16.5966 172.645 16.2216C173.255 15.8466 173.969 15.6591 174.787 15.6591C175.605 15.6591 176.319 15.8466 176.929 16.2216C177.539 16.5966 178.012 17.1231 178.349 17.8011C178.687 18.4792 178.855 19.2708 178.855 20.1761C178.855 21.0776 178.687 21.8655 178.349 22.5398C178.012 23.214 177.539 23.7386 176.929 24.1136C176.319 24.4886 175.605 24.6761 174.787 24.6761ZM174.793 23.25C175.323 23.25 175.762 23.1098 176.111 22.8295C176.459 22.5492 176.717 22.1761 176.883 21.7102C177.054 21.2443 177.139 20.7311 177.139 20.1704C177.139 19.6136 177.054 19.1023 176.883 18.6364C176.717 18.1667 176.459 17.7898 176.111 17.5057C175.762 17.2216 175.323 17.0795 174.793 17.0795C174.258 17.0795 173.815 17.2216 173.463 17.5057C173.115 17.7898 172.855 18.1667 172.685 18.6364C172.518 19.1023 172.435 19.6136 172.435 20.1704C172.435 20.7311 172.518 21.2443 172.685 21.7102C172.855 22.1761 173.115 22.5492 173.463 22.8295C173.815 23.1098 174.258 23.25 174.793 23.25ZM186.28 20.8807V15.7727H187.984V24.5H186.314V22.9886H186.223C186.022 23.4545 185.7 23.8428 185.257 24.1534C184.818 24.4602 184.27 24.6136 183.615 24.6136C183.054 24.6136 182.558 24.4905 182.126 24.2443C181.698 23.9943 181.361 23.625 181.115 23.1364C180.873 22.6477 180.751 22.0436 180.751 21.3239V15.7727H182.45V21.1193C182.45 21.714 182.615 22.1875 182.945 22.5398C183.274 22.892 183.702 23.0682 184.229 23.0682C184.547 23.0682 184.863 22.9886 185.178 22.8295C185.496 22.6704 185.759 22.4299 185.967 22.1079C186.179 21.786 186.284 21.3769 186.28 20.8807ZM193.926 27.9545C193.233 27.9545 192.636 27.8636 192.136 27.6818C191.64 27.5 191.235 27.2595 190.92 26.9602C190.606 26.661 190.371 26.3333 190.216 25.9773L191.676 25.375C191.778 25.5417 191.915 25.7178 192.085 25.9034C192.259 26.0928 192.494 26.2538 192.79 26.3864C193.089 26.5189 193.473 26.5852 193.943 26.5852C194.587 26.5852 195.119 26.428 195.54 26.1136C195.96 25.803 196.17 25.3068 196.17 24.625V22.9091H196.062C195.96 23.0947 195.812 23.3011 195.619 23.5284C195.43 23.7557 195.169 23.9526 194.835 24.1193C194.502 24.286 194.068 24.3693 193.534 24.3693C192.845 24.3693 192.223 24.2083 191.67 23.8864C191.121 23.5606 190.686 23.0814 190.364 22.4489C190.045 21.8125 189.886 21.0303 189.886 20.1023C189.886 19.1742 190.044 18.3788 190.358 17.7159C190.676 17.053 191.112 16.5454 191.665 16.1932C192.218 15.8371 192.845 15.6591 193.545 15.6591C194.087 15.6591 194.525 15.75 194.858 15.9318C195.191 16.1098 195.451 16.3182 195.636 16.5568C195.826 16.7954 195.972 17.0057 196.074 17.1875H196.199V15.7727H197.864V24.6932C197.864 25.4432 197.689 26.0587 197.341 26.5398C196.992 27.0208 196.521 27.3769 195.926 27.6079C195.335 27.839 194.669 27.9545 193.926 27.9545ZM193.909 22.9602C194.398 22.9602 194.811 22.8466 195.148 22.6193C195.489 22.3883 195.746 22.0587 195.92 21.6307C196.098 21.1989 196.187 20.6818 196.187 20.0795C196.187 19.4924 196.1 18.9754 195.926 18.5284C195.752 18.0814 195.496 17.7329 195.159 17.4829C194.822 17.2292 194.405 17.1023 193.909 17.1023C193.398 17.1023 192.972 17.2348 192.631 17.5C192.29 17.7614 192.032 18.1174 191.858 18.5682C191.687 19.0189 191.602 19.5227 191.602 20.0795C191.602 20.6515 191.689 21.1534 191.864 21.5852C192.038 22.017 192.295 22.3542 192.636 22.5966C192.981 22.839 193.405 22.9602 193.909 22.9602ZM201.841 19.3182V24.5H200.142V12.8636H201.818V17.1932H201.926C202.131 16.7235 202.443 16.3504 202.864 16.0739C203.284 15.7973 203.833 15.6591 204.511 15.6591C205.11 15.6591 205.633 15.7822 206.079 16.0284C206.53 16.2746 206.879 16.642 207.125 17.1307C207.375 17.6155 207.5 18.2216 207.5 18.9489V24.5H205.801V19.1534C205.801 18.5133 205.636 18.017 205.307 17.6648C204.977 17.3087 204.519 17.1307 203.932 17.1307C203.53 17.1307 203.17 17.2159 202.852 17.3864C202.538 17.5568 202.29 17.8068 202.108 18.1364C201.93 18.4621 201.841 18.8561 201.841 19.3182Z" fill="#E8E8E8"/>
<path d="M72.6051 37.3182C72.6051 38.6785 72.3435 39.8315 71.8203 40.7773C71.2971 41.7231 70.5888 42.4415 69.6953 42.9325C68.8059 43.4235 67.8077 43.669 66.701 43.669C65.5902 43.669 64.5901 43.4215 63.7006 42.9265C62.8112 42.4315 62.1049 41.7131 61.5817 40.7713C61.0625 39.8255 60.8029 38.6745 60.8029 37.3182C60.8029 35.9578 61.0625 34.8048 61.5817 33.859C62.1049 32.9132 62.8112 32.1948 63.7006 31.7038C64.5901 31.2128 65.5902 30.9673 66.701 30.9673C67.8077 30.9673 68.8059 31.2128 69.6953 31.7038C70.5888 32.1948 71.2971 32.9132 71.8203 33.859C72.3435 34.8048 72.6051 35.9578 72.6051 37.3182ZM69.5504 37.3182C69.5504 36.5132 69.4357 35.8331 69.2063 35.2777C68.9809 34.7223 68.6549 34.3017 68.2283 34.016C67.8057 33.7302 67.2966 33.5873 66.701 33.5873C66.1094 33.5873 65.6002 33.7302 65.1736 34.016C64.747 34.3017 64.419 34.7223 64.1896 35.2777C63.9642 35.8331 63.8515 36.5132 63.8515 37.3182C63.8515 38.1231 63.9642 38.8033 64.1896 39.3587C64.419 39.9141 64.747 40.3346 65.1736 40.6204C65.6002 40.9061 66.1094 41.049 66.701 41.049C67.2966 41.049 67.8057 40.9061 68.2283 40.6204C68.6549 40.3346 68.9809 39.9141 69.2063 39.3587C69.4357 38.8033 69.5504 38.1231 69.5504 37.3182ZM74.3498 46.9773V34.2273H77.2716V35.815H77.3622C77.4829 35.5333 77.654 35.2616 77.8753 35C78.1007 34.7384 78.3865 34.5251 78.7326 34.3601C79.0827 34.191 79.5013 34.1065 79.9883 34.1065C80.6322 34.1065 81.2339 34.2756 81.7933 34.6136C82.3567 34.9517 82.8115 35.4729 83.1576 36.1772C83.5038 36.8815 83.6768 37.779 83.6768 38.8697C83.6768 39.9201 83.5098 40.7995 83.1758 41.5078C82.8457 42.2161 82.399 42.7474 81.8356 43.1016C81.2761 43.4557 80.6543 43.6328 79.9701 43.6328C79.5033 43.6328 79.0988 43.5563 78.7567 43.4034C78.4146 43.2505 78.1269 43.0492 77.8934 42.7997C77.664 42.5502 77.487 42.2825 77.3622 41.9968H77.3018V46.9773H74.3498ZM77.2415 38.8636C77.2415 39.3627 77.3079 39.7973 77.4407 40.1676C77.5775 40.5379 77.7727 40.8256 78.0263 41.0309C78.2838 41.2321 78.5917 41.3327 78.9499 41.3327C79.3121 41.3327 79.62 41.2321 79.8736 41.0309C80.1271 40.8256 80.3183 40.5379 80.4471 40.1676C80.5799 39.7973 80.6463 39.3627 80.6463 38.8636C80.6463 38.3646 80.5799 37.9319 80.4471 37.5657C80.3183 37.1994 80.1271 36.9157 79.8736 36.7145C79.624 36.5132 79.3161 36.4126 78.9499 36.4126C78.5877 36.4126 78.2798 36.5112 78.0263 36.7084C77.7727 36.9056 77.5775 37.1874 77.4407 37.5536C77.3079 37.9199 77.2415 38.3565 77.2415 38.8636ZM89.5583 43.6751C88.5884 43.6751 87.7512 43.4839 87.0469 43.1016C86.3467 42.7152 85.8074 42.1658 85.429 41.4535C85.0548 40.7371 84.8676 39.8859 84.8676 38.8998C84.8676 37.942 85.0568 37.1049 85.4351 36.3885C85.8134 35.6681 86.3467 35.1087 87.0349 34.7102C87.7231 34.3078 88.534 34.1065 89.4677 34.1065C90.1278 34.1065 90.7315 34.2092 91.2788 34.4144C91.8262 34.6197 92.2991 34.9235 92.6975 35.326C93.0959 35.7284 93.4058 36.2255 93.6272 36.8171C93.8485 37.4047 93.9592 38.0788 93.9592 38.8395V39.576H85.8999V37.8615H91.2124C91.2084 37.5476 91.1339 37.2679 90.9891 37.0224C90.8442 36.7769 90.645 36.5857 90.3914 36.4489C90.1419 36.308 89.8541 36.2376 89.5281 36.2376C89.1981 36.2376 88.9023 36.312 88.6407 36.4609C88.3791 36.6058 88.1718 36.805 88.0189 37.0586C87.866 37.3081 87.7855 37.5918 87.7774 37.9098V39.6545C87.7774 40.0328 87.8519 40.3648 88.0008 40.6506C88.1497 40.9323 88.361 41.1516 88.6347 41.3086C88.9083 41.4655 89.2343 41.544 89.6126 41.544C89.8742 41.544 90.1117 41.5078 90.325 41.4354C90.5383 41.3629 90.7214 41.2563 90.8744 41.1154C91.0273 40.9745 91.142 40.8015 91.2185 40.5962L93.929 40.6747C93.8164 41.2824 93.5688 41.8117 93.1865 42.2624C92.8082 42.7092 92.3111 43.0573 91.6954 43.3068C91.0796 43.5523 90.3673 43.6751 89.5583 43.6751ZM98.419 38.2116V43.5H95.4669V34.2273H98.2741V35.9297H98.3767C98.582 35.3622 98.9321 34.9175 99.4272 34.5955C99.9222 34.2695 100.512 34.1065 101.196 34.1065C101.848 34.1065 102.413 34.2534 102.892 34.5472C103.375 34.837 103.75 35.2435 104.015 35.7667C104.285 36.2859 104.418 36.8936 104.414 37.5898V43.5H101.462V38.1694C101.466 37.6542 101.335 37.2518 101.069 36.962C100.808 36.6722 100.443 36.5273 99.9765 36.5273C99.6666 36.5273 99.393 36.5958 99.1555 36.7326C98.9221 36.8654 98.741 37.0566 98.6122 37.3061C98.4874 37.5556 98.423 37.8575 98.419 38.2116ZM121.116 35.6158H118.098C118.058 35.3059 117.975 35.0261 117.85 34.7766C117.726 34.5271 117.561 34.3138 117.355 34.1367C117.15 33.9596 116.907 33.8248 116.625 33.7322C116.347 33.6356 116.039 33.5873 115.701 33.5873C115.102 33.5873 114.584 33.7342 114.15 34.028C113.719 34.3218 113.387 34.7464 113.154 35.3018C112.924 35.8572 112.81 36.5293 112.81 37.3182C112.81 38.1392 112.926 38.8274 113.16 39.3828C113.397 39.9342 113.729 40.3507 114.156 40.6324C114.586 40.9101 115.096 41.049 115.683 41.049C116.013 41.049 116.313 41.0067 116.583 40.9222C116.856 40.8377 117.096 40.715 117.301 40.554C117.51 40.389 117.681 40.1897 117.814 39.9563C117.951 39.7189 118.046 39.4512 118.098 39.1534L121.116 39.1715C121.064 39.7189 120.905 40.2582 120.639 40.7894C120.378 41.3207 120.018 41.8056 119.559 42.2443C119.1 42.679 118.541 43.0251 117.881 43.2827C117.225 43.5402 116.472 43.669 115.623 43.669C114.504 43.669 113.502 43.4235 112.616 42.9325C111.735 42.4375 111.039 41.7171 110.528 40.7713C110.016 39.8255 109.761 38.6745 109.761 37.3182C109.761 35.9578 110.02 34.8048 110.54 33.859C111.059 32.9132 111.761 32.1948 112.647 31.7038C113.532 31.2128 114.524 30.9673 115.623 30.9673C116.371 30.9673 117.064 31.072 117.699 31.2812C118.335 31.4865 118.895 31.7883 119.378 32.1868C119.861 32.5812 120.253 33.0662 120.555 33.6417C120.857 34.2172 121.044 34.8752 121.116 35.6158ZM127.155 43.6751C126.181 43.6751 125.344 43.4758 124.643 43.0774C123.947 42.6749 123.41 42.1155 123.032 41.3991C122.657 40.6787 122.47 39.8436 122.47 38.8938C122.47 37.94 122.657 37.1049 123.032 36.3885C123.41 35.6681 123.947 35.1087 124.643 34.7102C125.344 34.3078 126.181 34.1065 127.155 34.1065C128.129 34.1065 128.964 34.3078 129.66 34.7102C130.36 35.1087 130.898 35.6681 131.272 36.3885C131.65 37.1049 131.839 37.94 131.839 38.8938C131.839 39.8436 131.65 40.6787 131.272 41.3991C130.898 42.1155 130.36 42.6749 129.66 43.0774C128.964 43.4758 128.129 43.6751 127.155 43.6751ZM127.173 41.4474C127.527 41.4474 127.827 41.3388 128.072 41.1214C128.318 40.9041 128.505 40.6023 128.634 40.2159C128.767 39.8295 128.833 39.3828 128.833 38.8757C128.833 38.3605 128.767 37.9098 128.634 37.5234C128.505 37.1371 128.318 36.8352 128.072 36.6179C127.827 36.4006 127.527 36.2919 127.173 36.2919C126.807 36.2919 126.497 36.4006 126.243 36.6179C125.994 36.8352 125.803 37.1371 125.67 37.5234C125.541 37.9098 125.477 38.3605 125.477 38.8757C125.477 39.3828 125.541 39.8295 125.67 40.2159C125.803 40.6023 125.994 40.9041 126.243 41.1214C126.497 41.3388 126.807 41.4474 127.173 41.4474ZM136.304 31.1364V43.5H133.352V31.1364H136.304ZM141.135 31.1364V43.5H138.183V31.1364H141.135ZM147.348 43.6751C146.378 43.6751 145.541 43.4839 144.837 43.1016C144.137 42.7152 143.597 42.1658 143.219 41.4535C142.845 40.7371 142.658 39.8859 142.658 38.8998C142.658 37.942 142.847 37.1049 143.225 36.3885C143.603 35.6681 144.137 35.1087 144.825 34.7102C145.513 34.3078 146.324 34.1065 147.258 34.1065C147.918 34.1065 148.522 34.2092 149.069 34.4144C149.616 34.6197 150.089 34.9235 150.488 35.326C150.886 35.7284 151.196 36.2255 151.417 36.8171C151.639 37.4047 151.749 38.0788 151.749 38.8395V39.576H143.69V37.8615H149.002C148.998 37.5476 148.924 37.2679 148.779 37.0224C148.634 36.7769 148.435 36.5857 148.181 36.4489C147.932 36.308 147.644 36.2376 147.318 36.2376C146.988 36.2376 146.692 36.312 146.431 36.4609C146.169 36.6058 145.962 36.805 145.809 37.0586C145.656 37.3081 145.575 37.5918 145.567 37.9098V39.6545C145.567 40.0328 145.642 40.3648 145.791 40.6506C145.94 40.9323 146.151 41.1516 146.425 41.3086C146.698 41.4655 147.024 41.544 147.403 41.544C147.664 41.544 147.902 41.5078 148.115 41.4354C148.328 41.3629 148.511 41.2563 148.664 41.1154C148.817 40.9745 148.932 40.8015 149.008 40.5962L151.719 40.6747C151.606 41.2824 151.359 41.8117 150.977 42.2624C150.598 42.7092 150.101 43.0573 149.485 43.3068C148.87 43.5523 148.157 43.6751 147.348 43.6751ZM157.585 43.6751C156.607 43.6751 155.768 43.4738 155.068 43.0714C154.372 42.6689 153.837 42.1095 153.462 41.3931C153.088 40.6727 152.901 39.8396 152.901 38.8938C152.901 37.944 153.088 37.1109 153.462 36.3945C153.841 35.6741 154.378 35.1127 155.074 34.7102C155.774 34.3078 156.609 34.1065 157.579 34.1065C158.437 34.1065 159.183 34.2615 159.819 34.5714C160.459 34.8813 160.958 35.3199 161.316 35.8874C161.678 36.4509 161.87 37.1129 161.89 37.8736H159.131C159.075 37.3987 158.914 37.0264 158.648 36.7567C158.386 36.4871 158.044 36.3523 157.622 36.3523C157.28 36.3523 156.98 36.4489 156.722 36.642C156.465 36.8312 156.263 37.1129 156.118 37.4872C155.978 37.8575 155.907 38.3163 155.907 38.8636C155.907 39.411 155.978 39.8738 156.118 40.2521C156.263 40.6264 156.465 40.9101 156.722 41.1033C156.98 41.2925 157.28 41.3871 157.622 41.3871C157.895 41.3871 158.137 41.3287 158.346 41.212C158.559 41.0953 158.734 40.9242 158.871 40.6989C159.008 40.4694 159.095 40.1918 159.131 39.8658H161.89C161.862 40.6304 161.67 41.2985 161.316 41.87C160.966 42.4415 160.473 42.8862 159.837 43.2042C159.205 43.5181 158.455 43.6751 157.585 43.6751ZM168.635 34.2273V36.4006H162.785V34.2273H168.635ZM164.01 32.0057H166.962V40.5842C166.962 40.7653 166.99 40.9122 167.047 41.0248C167.107 41.1335 167.194 41.212 167.306 41.2603C167.419 41.3046 167.554 41.3267 167.711 41.3267C167.824 41.3267 167.942 41.3166 168.067 41.2965C168.196 41.2724 168.292 41.2522 168.357 41.2361L168.804 43.3672C168.663 43.4074 168.463 43.4577 168.206 43.5181C167.952 43.5785 167.649 43.6167 167.294 43.6328C166.602 43.665 166.008 43.5845 165.513 43.3913C165.022 43.1941 164.646 42.8882 164.385 42.4737C164.127 42.0592 164.002 41.538 164.01 40.9101V32.0057ZM170.141 43.5V34.2273H173.093V43.5H170.141ZM171.62 33.1467C171.205 33.1467 170.849 33.0098 170.551 32.7361C170.253 32.4584 170.105 32.1244 170.105 31.734C170.105 31.3476 170.253 31.0176 170.551 30.744C170.849 30.4663 171.205 30.3274 171.62 30.3274C172.038 30.3274 172.395 30.4663 172.688 30.744C172.986 31.0176 173.135 31.3476 173.135 31.734C173.135 32.1244 172.986 32.4584 172.688 32.7361C172.395 33.0098 172.038 33.1467 171.62 33.1467ZM183.967 34.2273L180.785 43.5H177.405L174.229 34.2273H177.338L179.047 40.6143H179.143L180.858 34.2273H183.967ZM189.134 43.6751C188.165 43.6751 187.327 43.4839 186.623 43.1016C185.923 42.7152 185.383 42.1658 185.005 41.4535C184.631 40.7371 184.444 39.8859 184.444 38.8998C184.444 37.942 184.633 37.1049 185.011 36.3885C185.39 35.6681 185.923 35.1087 186.611 34.7102C187.299 34.3078 188.11 34.1065 189.044 34.1065C189.704 34.1065 190.308 34.2092 190.855 34.4144C191.402 34.6197 191.875 34.9235 192.274 35.326C192.672 35.7284 192.982 36.2255 193.203 36.8171C193.425 37.4047 193.535 38.0788 193.535 38.8395V39.576H185.476V37.8615H190.789C190.785 37.5476 190.71 37.2679 190.565 37.0224C190.42 36.7769 190.221 36.5857 189.968 36.4489C189.718 36.308 189.43 36.2376 189.104 36.2376C188.774 36.2376 188.478 36.312 188.217 36.4609C187.955 36.6058 187.748 36.805 187.595 37.0586C187.442 37.3081 187.362 37.5918 187.354 37.9098V39.6545C187.354 40.0328 187.428 40.3648 187.577 40.6506C187.726 40.9323 187.937 41.1516 188.211 41.3086C188.484 41.4655 188.81 41.544 189.189 41.544C189.45 41.544 189.688 41.5078 189.901 41.4354C190.114 41.3629 190.298 41.2563 190.45 41.1154C190.603 40.9745 190.718 40.8015 190.795 40.5962L193.505 40.6747C193.392 41.2824 193.145 41.8117 192.763 42.2624C192.384 42.7092 191.887 43.0573 191.272 43.3068C190.656 43.5523 189.943 43.6751 189.134 43.6751Z" fill="#7FADF2"/>
</g>
<defs>
<filter id="filter0_d_1_50" x="6.28571" y="2.28571" width="51.4286" height="51.4286" filterUnits="userSpaceOnUse" color-interpolation-filters="sRGB">
<feFlood flood-opacity="0" result="BackgroundImageFix"/>
<feColorMatrix in="SourceAlpha" type="matrix" values="0 0 0 0 0 0 0 0 0 0 0 0 0 0 0 0 0 0 127 0" result="hardAlpha"/>
<feOffset/>
<feGaussianBlur stdDeviation="2.85714"/>
<feComposite in2="hardAlpha" operator="out"/>
<feColorMatrix type="matrix" values="0 0 0 0 0 0 0 0 0 0 0 0 0 0 0 0 0 0 0.25 0"/>
<feBlend mode="normal" in2="BackgroundImageFix" result="effect1_dropShadow_1_50"/>
<feBlend mode="normal" in="SourceGraphic" in2="effect1_dropShadow_1_50" result="shape"/>
</filter>
<filter id="filter1_d_1_50" x="54.4" y="3.9" width="160.2" height="48.6773" filterUnits="userSpaceOnUse" color-interpolation-filters="sRGB">
<feFlood flood-opacity="0" result="BackgroundImageFix"/>
<feColorMatrix in="SourceAlpha" type="matrix" values="0 0 0 0 0 0 0 0 0 0 0 0 0 0 0 0 0 0 127 0" result="hardAlpha"/>
<feOffset/>
<feGaussianBlur stdDeviation="2.8"/>
<feComposite in2="hardAlpha" operator="out"/>
<feColorMatrix type="matrix" values="0 0 0 0 0 0 0 0 0 0 0 0 0 0 0 0 0 0 0.25 0"/>
<feBlend mode="normal" in2="BackgroundImageFix" result="effect1_dropShadow_1_50"/>
<feBlend mode="normal" in="SourceGraphic" in2="effect1_dropShadow_1_50" result="shape"/>
</filter>
<linearGradient id="paint0_linear_1_50" x1="110.5" y1="0" x2="110.5" y2="56" gradientUnits="userSpaceOnUse">
<stop offset="0.0018" stop-color="#691230"/>
<stop offset="0.0019" stop-color="#64461A"/>
<stop offset="0.002" stop-color="#1A1711"/>
<stop offset="0.0021" stop-color="#2D2D2D"/>
<stop offset="0.0022" stop-color="#457F35"/>
<stop offset="0.0023" stop-color="#445A7A"/>
<stop offset="0.9971" stop-color="#222D3D"/>
<stop offset="0.9972" stop-color="#346725"/>
</linearGradient>
</defs>
</svg>
