<svg width="40" height="40" viewBox="0 0 40 40" fill="none" xmlns="http://www.w3.org/2000/svg">
<rect width="40" height="40" rx="8" fill="url(#paint0_linear_1_68)"/>
<rect x="1.05" y="1.05" width="37.9" height="37.9" rx="6.95" stroke="white" stroke-opacity="0.15" stroke-width="2.1"/>
<g filter="url(#filter0_d_1_68)">
<path fill-rule="evenodd" clip-rule="evenodd" d="M9.11111 34H30.8889C32.6071 34 34 32.6071 34 30.8889V9.11111C34 7.39289 32.6071 6 30.8889 6H9.11111C7.39289 6 6 7.39289 6 9.11111V30.8889C6 32.6071 7.39289 34 9.11111 34Z" fill="#007EBB"/>
<path fill-rule="evenodd" clip-rule="evenodd" d="M30.1111 30.1111H25.9561V23.0342C25.9561 21.0938 25.2188 20.0095 23.683 20.0095C22.0123 20.0095 21.1395 21.1379 21.1395 23.0342V30.1111H17.1352V16.6296H21.1395V18.4456C21.1395 18.4456 22.3435 16.2177 25.2043 16.2177C28.0639 16.2177 30.1111 17.964 30.1111 21.5755V30.1111ZM12.3581 14.8643C10.9941 14.8643 9.88889 13.7504 9.88889 12.3766C9.88889 11.0028 10.9941 9.88889 12.3581 9.88889C13.722 9.88889 14.8266 11.0028 14.8266 12.3766C14.8266 13.7504 13.722 14.8643 12.3581 14.8643ZM10.2904 30.1111H14.4659V16.6296H10.2904V30.1111Z" fill="white"/>
</g>
<defs>
<filter id="filter0_d_1_68" x="2" y="2" width="36" height="36" filterUnits="userSpaceOnUse" color-interpolation-filters="sRGB">
<feFlood flood-opacity="0" result="BackgroundImageFix"/>
<feColorMatrix in="SourceAlpha" type="matrix" values="0 0 0 0 0 0 0 0 0 0 0 0 0 0 0 0 0 0 127 0" result="hardAlpha"/>
<feOffset/>
<feGaussianBlur stdDeviation="2"/>
<feComposite in2="hardAlpha" operator="out"/>
<feColorMatrix type="matrix" values="0 0 0 0 0 0 0 0 0 0 0 0 0 0 0 0 0 0 0.25 0"/>
<feBlend mode="normal" in2="BackgroundImageFix" result="effect1_dropShadow_1_68"/>
<feBlend mode="normal" in="SourceGraphic" in2="effect1_dropShadow_1_68" result="shape"/>
</filter>
<linearGradient id="paint0_linear_1_68" x1="20" y1="0" x2="20" y2="40" gradientUnits="userSpaceOnUse">
<stop stop-color="#004667"/>
<stop offset="1" stop-color="#001F2E"/>
</linearGradient>
</defs>
</svg>
