<svg width="289" height="40" viewBox="0 0 289 40" fill="none" xmlns="http://www.w3.org/2000/svg">
<rect width="289.001" height="40.0014" rx="8" fill="url(#paint0_linear_1_56)"/>
<rect x="1.07143" y="1.07143" width="286.858" height="37.8585" rx="6.92857" stroke="white" stroke-opacity="0.15" stroke-width="2.14286"/>
<g filter="url(#filter0_d_1_56)">
<path fill-rule="evenodd" clip-rule="evenodd" d="M11.1111 34H32.8889C34.6071 34 36 32.6071 36 30.8889V9.11111C36 7.39289 34.6071 6 32.8889 6H11.1111C9.39289 6 8 7.39289 8 9.11111V30.8889C8 32.6071 9.39289 34 11.1111 34Z" fill="#007EBB"/>
<path fill-rule="evenodd" clip-rule="evenodd" d="M32.1111 30.1111H27.9561V23.0342C27.9561 21.0938 27.2188 20.0095 25.683 20.0095C24.0123 20.0095 23.1395 21.1379 23.1395 23.0342V30.1111H19.1352V16.6296H23.1395V18.4456C23.1395 18.4456 24.3435 16.2177 27.2043 16.2177C30.0639 16.2177 32.1111 17.964 32.1111 21.5755V30.1111ZM14.3581 14.8643C12.9941 14.8643 11.8889 13.7504 11.8889 12.3766C11.8889 11.0028 12.9941 9.88889 14.3581 9.88889C15.722 9.88889 16.8266 11.0028 16.8266 12.3766C16.8266 13.7504 15.722 14.8643 14.3581 14.8643ZM12.2904 30.1111H16.4659V16.6296H12.2904V30.1111Z" fill="white"/>
</g>
<g filter="url(#filter1_d_1_56)">
<g filter="url(#filter2_d_1_56)">
<path d="M53.6285 18.1577H51.745C51.6726 17.7552 51.5377 17.401 51.3405 17.0952C51.1433 16.7893 50.9018 16.5297 50.6161 16.3164C50.3303 16.1031 50.0104 15.9421 49.6562 15.8334C49.3061 15.7248 48.9338 15.6704 48.5394 15.6704C47.827 15.6704 47.1891 15.8495 46.6257 16.2077C46.0663 16.5659 45.6236 17.0911 45.2976 17.7834C44.9756 18.4756 44.8146 19.3208 44.8146 20.3189C44.8146 21.325 44.9756 22.1742 45.2976 22.8665C45.6236 23.5587 46.0683 24.0819 46.6317 24.4361C47.1952 24.7902 47.829 24.9673 48.5334 24.9673C48.9237 24.9673 49.294 24.915 49.6441 24.8104C49.9983 24.7017 50.3183 24.5427 50.604 24.3334C50.8898 24.1242 51.1312 23.8686 51.3285 23.5667C51.5297 23.2609 51.6685 22.9107 51.745 22.5163L53.6285 22.5224C53.5279 23.1301 53.3327 23.6895 53.0429 24.2006C52.7572 24.7077 52.3889 25.1464 51.9382 25.5167C51.4915 25.8829 50.9803 26.1667 50.4048 26.3679C49.8293 26.5691 49.2014 26.6697 48.5213 26.6697C47.4507 26.6697 46.4969 26.4162 45.6598 25.9091C44.8227 25.398 44.1626 24.6675 43.6797 23.7177C43.2007 22.7679 42.9613 21.6349 42.9613 20.3189C42.9613 18.9988 43.2027 17.8659 43.6857 16.9201C44.1687 15.9703 44.8287 15.2418 45.6658 14.7347C46.5029 14.2236 47.4548 13.968 48.5213 13.968C49.1773 13.968 49.789 14.0626 50.3565 14.2518C50.928 14.4369 51.4411 14.7106 51.8959 15.0728C52.3507 15.431 52.727 15.8697 53.0248 16.3888C53.3227 16.904 53.5239 17.4936 53.6285 18.1577ZM59.6217 26.6878C58.7524 26.6878 57.9937 26.4886 57.3458 26.0902C56.6978 25.6917 56.1947 25.1343 55.8365 24.418C55.4783 23.7016 55.2992 22.8645 55.2992 21.9066C55.2992 20.9447 55.4783 20.1036 55.8365 19.3832C56.1947 18.6627 56.6978 18.1033 57.3458 17.7049C57.9937 17.3065 58.7524 17.1072 59.6217 17.1072C60.491 17.1072 61.2496 17.3065 61.8976 17.7049C62.5456 18.1033 63.0486 18.6627 63.4068 19.3832C63.765 20.1036 63.9441 20.9447 63.9441 21.9066C63.9441 22.8645 63.765 23.7016 63.4068 24.418C63.0486 25.1343 62.5456 25.6917 61.8976 26.0902C61.2496 26.4886 60.491 26.6878 59.6217 26.6878ZM59.6277 25.1726C60.1912 25.1726 60.658 25.0237 61.0283 24.7258C61.3986 24.428 61.6722 24.0316 61.8493 23.5366C62.0304 23.0415 62.121 22.4962 62.121 21.9006C62.121 21.3089 62.0304 20.7656 61.8493 20.2706C61.6722 19.7715 61.3986 19.3711 61.0283 19.0692C60.658 18.7674 60.1912 18.6165 59.6277 18.6165C59.0603 18.6165 58.5894 18.7674 58.2151 19.0692C57.8448 19.3711 57.5691 19.7715 57.388 20.2706C57.2109 20.7656 57.1224 21.3089 57.1224 21.9006C57.1224 22.4962 57.2109 23.0415 57.388 23.5366C57.5691 24.0316 57.8448 24.428 58.2151 24.7258C58.5894 25.0237 59.0603 25.1726 59.6277 25.1726ZM67.764 20.995V26.5007H65.959V17.228H67.6916V18.7372H67.8063C68.0196 18.2462 68.3536 17.8518 68.8084 17.554C69.2672 17.2561 69.8447 17.1072 70.541 17.1072C71.1728 17.1072 71.7262 17.24 72.2011 17.5057C72.676 17.7673 73.0443 18.1577 73.3059 18.6768C73.5675 19.196 73.6983 19.8379 73.6983 20.6026V26.5007H71.8933V20.8199C71.8933 20.1478 71.7182 19.6226 71.368 19.2443C71.0179 18.862 70.537 18.6708 69.9252 18.6708C69.5067 18.6708 69.1344 18.7614 68.8084 18.9425C68.4864 19.1236 68.2309 19.3892 68.0417 19.7393C67.8566 20.0855 67.764 20.504 67.764 20.995ZM77.9241 20.995V26.5007H76.1191V17.228H77.8517V18.7372H77.9664C78.1797 18.2462 78.5138 17.8518 78.9685 17.554C79.4273 17.2561 80.0049 17.1072 80.7011 17.1072C81.333 17.1072 81.8864 17.24 82.3613 17.5057C82.8362 17.7673 83.2044 18.1577 83.466 18.6768C83.7277 19.196 83.8585 19.8379 83.8585 20.6026V26.5007H82.0534V20.8199C82.0534 20.1478 81.8783 19.6226 81.5282 19.2443C81.1781 18.862 80.6971 18.6708 80.0854 18.6708C79.6668 18.6708 79.2945 18.7614 78.9685 18.9425C78.6466 19.1236 78.391 19.3892 78.2018 19.7393C78.0167 20.0855 77.9241 20.504 77.9241 20.995ZM90.2757 26.6878C89.3621 26.6878 88.5753 26.4926 87.9153 26.1023C87.2593 25.7078 86.7522 25.1545 86.394 24.4421C86.0398 23.7257 85.8627 22.8866 85.8627 21.9247C85.8627 20.9749 86.0398 20.1378 86.394 19.4133C86.7522 18.6889 87.2512 18.1234 87.8911 17.717C88.5351 17.3105 89.2877 17.1072 90.1489 17.1072C90.6721 17.1072 91.1792 17.1938 91.6702 17.3668C92.1612 17.5399 92.6019 17.8115 92.9923 18.1818C93.3827 18.5521 93.6906 19.033 93.916 19.6246C94.1414 20.2122 94.254 20.9266 94.254 21.7677V22.4077H86.883V21.0554H92.4852C92.4852 20.5805 92.3886 20.1599 92.1955 19.7937C92.0023 19.4234 91.7306 19.1316 91.3805 18.9183C91.0343 18.705 90.6279 18.5984 90.161 18.5984C89.6539 18.5984 89.2112 18.7231 88.8329 18.9726C88.4586 19.2181 88.1688 19.5401 87.9636 19.9386C87.7623 20.333 87.6617 20.7616 87.6617 21.2244V22.2809C87.6617 22.9007 87.7704 23.4279 87.9877 23.8626C88.2091 24.2972 88.5169 24.6292 88.9114 24.8587C89.3058 25.084 89.7666 25.1967 90.2938 25.1967C90.6359 25.1967 90.9478 25.1484 91.2295 25.0518C91.5113 24.9512 91.7548 24.8023 91.96 24.6051C92.1653 24.4079 92.3222 24.1644 92.4309 23.8746L94.1393 24.1825C94.0025 24.6856 93.757 25.1263 93.4028 25.5046C93.0527 25.8789 92.612 26.1707 92.0807 26.38C91.5535 26.5852 90.9518 26.6878 90.2757 26.6878ZM100.163 26.6878C99.2652 26.6878 98.4925 26.4846 97.8445 26.0781C97.2006 25.6676 96.7055 25.1021 96.3594 24.3817C96.0133 23.6613 95.8402 22.8363 95.8402 21.9066C95.8402 20.9648 96.0173 20.1337 96.3715 19.4133C96.7257 18.6889 97.2247 18.1234 97.8687 17.717C98.5126 17.3105 99.2712 17.1072 100.145 17.1072C100.849 17.1072 101.477 17.238 102.028 17.4996C102.579 17.7572 103.024 18.1194 103.362 18.5863C103.704 19.0531 103.908 19.5985 103.972 20.2223H102.215C102.119 19.7876 101.897 19.4133 101.551 19.0994C101.209 18.7855 100.75 18.6285 100.175 18.6285C99.6717 18.6285 99.231 18.7614 98.8527 19.027C98.4784 19.2886 98.1866 19.6629 97.9773 20.1498C97.768 20.6328 97.6634 21.2043 97.6634 21.8643C97.6634 22.5405 97.766 23.124 97.9713 23.615C98.1765 24.106 98.4663 24.4864 98.8406 24.756C99.2189 25.0257 99.6636 25.1605 100.175 25.1605C100.517 25.1605 100.827 25.0981 101.104 24.9734C101.386 24.8446 101.622 24.6614 101.811 24.424C102.004 24.1865 102.139 23.9008 102.215 23.5667H103.972C103.908 24.1664 103.712 24.7017 103.386 25.1726C103.06 25.6435 102.624 26.0137 102.076 26.2834C101.533 26.553 100.895 26.6878 100.163 26.6878ZM110.231 17.228V18.6768H105.166V17.228H110.231ZM106.524 15.0064H108.329V23.778C108.329 24.1282 108.381 24.3918 108.486 24.5689C108.591 24.7419 108.726 24.8607 108.891 24.9251C109.06 24.9854 109.243 25.0156 109.44 25.0156C109.585 25.0156 109.712 25.0056 109.82 24.9854C109.929 24.9653 110.013 24.9492 110.074 24.9371L110.4 26.4283C110.295 26.4685 110.146 26.5087 109.953 26.549C109.76 26.5933 109.518 26.6174 109.229 26.6214C108.754 26.6295 108.311 26.545 107.901 26.3679C107.49 26.1908 107.158 25.9171 106.904 25.5469C106.651 25.1766 106.524 24.7118 106.524 24.1523V15.0064ZM118.737 26.5007L116.008 17.228H117.874L119.691 24.0376H119.781L121.604 17.228H123.47L125.281 24.0074H125.371L127.176 17.228H129.042L126.319 26.5007H124.478L122.594 19.8057H122.456L120.572 26.5007H118.737ZM130.755 26.5007V17.228H132.56V26.5007H130.755ZM131.666 15.7972C131.352 15.7972 131.083 15.6926 130.857 15.4833C130.636 15.27 130.525 15.0164 130.525 14.7226C130.525 14.4248 130.636 14.1713 130.857 13.962C131.083 13.7487 131.352 13.642 131.666 13.642C131.98 13.642 132.248 13.7487 132.469 13.962C132.695 14.1713 132.807 14.4248 132.807 14.7226C132.807 15.0164 132.695 15.27 132.469 15.4833C132.248 15.6926 131.98 15.7972 131.666 15.7972ZM139.317 17.228V18.6768H134.252V17.228H139.317ZM135.61 15.0064H137.415V23.778C137.415 24.1282 137.467 24.3918 137.572 24.5689C137.677 24.7419 137.812 24.8607 137.977 24.9251C138.146 24.9854 138.329 25.0156 138.526 25.0156C138.671 25.0156 138.798 25.0056 138.906 24.9854C139.015 24.9653 139.099 24.9492 139.16 24.9371L139.486 26.4283C139.381 26.4685 139.232 26.5087 139.039 26.549C138.846 26.5933 138.604 26.6174 138.315 26.6214C137.84 26.6295 137.397 26.545 136.986 26.3679C136.576 26.1908 136.244 25.9171 135.99 25.5469C135.737 25.1766 135.61 24.7118 135.61 24.1523V15.0064ZM143.318 20.995V26.5007H141.513V14.1371H143.294V18.7372H143.408C143.626 18.2382 143.958 17.8417 144.404 17.5479C144.851 17.2541 145.435 17.1072 146.155 17.1072C146.791 17.1072 147.346 17.238 147.821 17.4996C148.3 17.7612 148.67 18.1516 148.932 18.6708C149.198 19.1859 149.33 19.8299 149.33 20.6026V26.5007H147.525V20.8199C147.525 20.1398 147.35 19.6126 147 19.2383C146.65 18.86 146.163 18.6708 145.539 18.6708C145.113 18.6708 144.73 18.7614 144.392 18.9425C144.058 19.1236 143.795 19.3892 143.601 19.7393C143.412 20.0855 143.318 20.504 143.318 20.995ZM156.238 26.5007V17.228H157.971V18.7372H158.086C158.279 18.2261 158.595 17.8276 159.033 17.5419C159.472 17.2521 159.997 17.1072 160.609 17.1072C161.229 17.1072 161.748 17.2521 162.166 17.5419C162.589 17.8317 162.901 18.2301 163.102 18.7372H163.199C163.42 18.2422 163.772 17.8478 164.255 17.554C164.738 17.2561 165.314 17.1072 165.982 17.1072C166.823 17.1072 167.509 17.3708 168.04 17.8981C168.576 18.4253 168.843 19.2202 168.843 20.2827V26.5007H167.038V20.4517C167.038 19.8239 166.867 19.3691 166.525 19.0873C166.183 18.8056 165.775 18.6648 165.3 18.6648C164.712 18.6648 164.255 18.8459 163.929 19.2081C163.603 19.5663 163.44 20.0271 163.44 20.5905V26.5007H161.641V20.337C161.641 19.8339 161.484 19.4294 161.17 19.1236C160.856 18.8177 160.448 18.6648 159.945 18.6648C159.603 18.6648 159.287 18.7553 158.997 18.9364C158.711 19.1135 158.48 19.361 158.303 19.679C158.13 19.9969 158.043 20.3652 158.043 20.7837V26.5007H156.238ZM175.259 26.6878C174.345 26.6878 173.559 26.4926 172.899 26.1023C172.243 25.7078 171.736 25.1545 171.377 24.4421C171.023 23.7257 170.846 22.8866 170.846 21.9247C170.846 20.9749 171.023 20.1378 171.377 19.4133C171.736 18.6889 172.235 18.1234 172.874 17.717C173.518 17.3105 174.271 17.1072 175.132 17.1072C175.656 17.1072 176.163 17.1938 176.654 17.3668C177.145 17.5399 177.585 17.8115 177.976 18.1818C178.366 18.5521 178.674 19.033 178.899 19.6246C179.125 20.2122 179.237 20.9266 179.237 21.7677V22.4077H171.866V21.0554H177.469C177.469 20.5805 177.372 20.1599 177.179 19.7937C176.986 19.4234 176.714 19.1316 176.364 18.9183C176.018 18.705 175.611 18.5984 175.144 18.5984C174.637 18.5984 174.195 18.7231 173.816 18.9726C173.442 19.2181 173.152 19.5401 172.947 19.9386C172.746 20.333 172.645 20.7616 172.645 21.2244V22.2809C172.645 22.9007 172.754 23.4279 172.971 23.8626C173.192 24.2972 173.5 24.6292 173.895 24.8587C174.289 25.084 174.75 25.1967 175.277 25.1967C175.619 25.1967 175.931 25.1484 176.213 25.0518C176.495 24.9512 176.738 24.8023 176.943 24.6051C177.149 24.4079 177.306 24.1644 177.414 23.8746L179.123 24.1825C178.986 24.6856 178.74 25.1263 178.386 25.5046C178.036 25.8789 177.595 26.1707 177.064 26.38C176.537 26.5852 175.935 26.6878 175.259 26.6878ZM189.645 26.6878C188.776 26.6878 188.017 26.4886 187.369 26.0902C186.721 25.6917 186.218 25.1343 185.86 24.418C185.502 23.7016 185.323 22.8645 185.323 21.9066C185.323 20.9447 185.502 20.1036 185.86 19.3832C186.218 18.6627 186.721 18.1033 187.369 17.7049C188.017 17.3065 188.776 17.1072 189.645 17.1072C190.514 17.1072 191.273 17.3065 191.921 17.7049C192.569 18.1033 193.072 18.6627 193.43 19.3832C193.788 20.1036 193.968 20.9447 193.968 21.9066C193.968 22.8645 193.788 23.7016 193.43 24.418C193.072 25.1343 192.569 25.6917 191.921 26.0902C191.273 26.4886 190.514 26.6878 189.645 26.6878ZM189.651 25.1726C190.215 25.1726 190.681 25.0237 191.052 24.7258C191.422 24.428 191.696 24.0316 191.873 23.5366C192.054 23.0415 192.144 22.4962 192.144 21.9006C192.144 21.3089 192.054 20.7656 191.873 20.2706C191.696 19.7715 191.422 19.3711 191.052 19.0692C190.681 18.7674 190.215 18.6165 189.651 18.6165C189.084 18.6165 188.613 18.7674 188.238 19.0692C187.868 19.3711 187.593 19.7715 187.411 20.2706C187.234 20.7656 187.146 21.3089 187.146 21.9006C187.146 22.4962 187.234 23.0415 187.411 23.5366C187.593 24.0316 187.868 24.428 188.238 24.7258C188.613 25.0237 189.084 25.1726 189.651 25.1726ZM197.787 20.995V26.5007H195.982V17.228H197.715V18.7372H197.83C198.043 18.2462 198.377 17.8518 198.832 17.554C199.291 17.2561 199.868 17.1072 200.564 17.1072C201.196 17.1072 201.75 17.24 202.225 17.5057C202.699 17.7673 203.068 18.1577 203.329 18.6768C203.591 19.196 203.722 19.8379 203.722 20.6026V26.5007H201.917V20.8199C201.917 20.1478 201.742 19.6226 201.391 19.2443C201.041 18.862 200.56 18.6708 199.949 18.6708C199.53 18.6708 199.158 18.7614 198.832 18.9425C198.51 19.1236 198.254 19.3892 198.065 19.7393C197.88 20.0855 197.787 20.504 197.787 20.995Z" fill="#E8E8E8"/>
</g>
<path d="M209.937 26.5007V14.1371H212.925V24.0739H218.069V26.5007H209.937ZM219.616 26.5007V17.228H222.568V26.5007H219.616ZM221.095 16.1474C220.68 16.1474 220.324 16.0105 220.026 15.7369C219.728 15.4592 219.58 15.1251 219.58 14.7347C219.58 14.3484 219.728 14.0183 220.026 13.7447C220.324 13.467 220.68 13.3281 221.095 13.3281C221.513 13.3281 221.87 13.467 222.163 13.7447C222.461 14.0183 222.61 14.3484 222.61 14.7347C222.61 15.1251 222.461 15.4592 222.163 15.7369C221.87 16.0105 221.513 16.1474 221.095 16.1474ZM227.399 21.2123V26.5007H224.447V17.228H227.254V18.9304H227.357C227.562 18.3629 227.912 17.9182 228.407 17.5962C228.902 17.2702 229.492 17.1072 230.176 17.1072C230.828 17.1072 231.393 17.2541 231.872 17.5479C232.355 17.8377 232.729 18.2442 232.995 18.7674C233.265 19.2866 233.398 19.8943 233.394 20.5905V26.5007H230.441V21.1701C230.446 20.6549 230.315 20.2525 230.049 19.9627C229.787 19.6729 229.423 19.528 228.956 19.528C228.647 19.528 228.373 19.5965 228.135 19.7333C227.902 19.8661 227.721 20.0573 227.592 20.3068C227.467 20.5563 227.403 20.8582 227.399 21.2123ZM237.884 24.0678L237.896 20.5483H238.306L240.914 17.228H244.259L240.383 21.9851H239.604L237.884 24.0678ZM235.221 26.5007V14.1371H238.173V26.5007H235.221ZM240.98 26.5007L238.554 22.6491L240.498 20.5543L244.391 26.5007H240.98ZM249.268 26.6758C248.298 26.6758 247.461 26.4846 246.756 26.1023C246.056 25.7159 245.517 25.1665 245.138 24.4542C244.764 23.7378 244.577 22.8866 244.577 21.9006C244.577 20.9427 244.766 20.1056 245.144 19.3892C245.523 18.6688 246.056 18.1094 246.744 17.7109C247.432 17.3085 248.243 17.1072 249.177 17.1072C249.837 17.1072 250.441 17.2099 250.988 17.4151C251.536 17.6204 252.008 17.9242 252.407 18.3267C252.805 18.7292 253.115 19.2262 253.337 19.8178C253.558 20.4054 253.669 21.0795 253.669 21.8402V22.5767H245.609V20.8622H250.922C250.918 20.5483 250.843 20.2686 250.698 20.0231C250.554 19.7776 250.354 19.5864 250.101 19.4496C249.851 19.3087 249.563 19.2383 249.237 19.2383C248.907 19.2383 248.612 19.3127 248.35 19.4616C248.088 19.6065 247.881 19.8057 247.728 20.0593C247.575 20.3088 247.495 20.5926 247.487 20.9105V22.6552C247.487 23.0335 247.561 23.3655 247.71 23.6513C247.859 23.933 248.07 24.1523 248.344 24.3093C248.618 24.4663 248.944 24.5447 249.322 24.5447C249.584 24.5447 249.821 24.5085 250.034 24.4361C250.248 24.3636 250.431 24.257 250.584 24.1161C250.737 23.9752 250.851 23.8022 250.928 23.5969L253.638 23.6754C253.526 24.2831 253.278 24.8124 252.896 25.2631C252.518 25.7099 252.021 26.058 251.405 26.3075C250.789 26.553 250.077 26.6758 249.268 26.6758ZM258.563 26.6335C257.879 26.6335 257.257 26.4564 256.698 26.1023C256.138 25.7481 255.691 25.2168 255.357 24.5085C255.023 23.8002 254.856 22.9208 254.856 21.8704C254.856 20.7797 255.029 19.8822 255.376 19.1779C255.722 18.4736 256.174 17.9524 256.734 17.6143C257.297 17.2763 257.903 17.1072 258.551 17.1072C259.038 17.1072 259.454 17.1918 259.801 17.3608C260.147 17.5258 260.432 17.7391 260.658 18.0007C260.883 18.2623 261.054 18.534 261.171 18.8157H261.231V14.1371H264.183V26.5007H261.262V24.9975H261.171C261.046 25.2832 260.869 25.5509 260.64 25.8004C260.41 26.0499 260.123 26.2512 259.776 26.4041C259.434 26.557 259.03 26.6335 258.563 26.6335ZM259.589 24.3334C259.947 24.3334 260.253 24.2328 260.507 24.0316C260.76 23.8263 260.956 23.5386 261.093 23.1683C261.229 22.798 261.298 22.3634 261.298 21.8643C261.298 21.3572 261.229 20.9206 261.093 20.5543C260.96 20.1881 260.764 19.9064 260.507 19.7092C260.253 19.5119 259.947 19.4133 259.589 19.4133C259.223 19.4133 258.913 19.514 258.66 19.7152C258.406 19.9164 258.213 20.2002 258.08 20.5664C257.951 20.9326 257.887 21.3653 257.887 21.8643C257.887 22.3634 257.953 22.798 258.086 23.1683C258.219 23.5386 258.41 23.8263 258.66 24.0316C258.913 24.2328 259.223 24.3334 259.589 24.3334ZM269.039 14.1371V26.5007H266.05V14.1371H269.039ZM273.867 21.2123V26.5007H270.915V17.228H273.722V18.9304H273.824C274.03 18.3629 274.38 17.9182 274.875 17.5962C275.37 17.2702 275.959 17.1072 276.644 17.1072C277.296 17.1072 277.861 17.2541 278.34 17.5479C278.823 17.8377 279.197 18.2442 279.463 18.7674C279.733 19.2866 279.865 19.8943 279.861 20.5905V26.5007H276.909V21.1701C276.913 20.6549 276.782 20.2525 276.517 19.9627C276.255 19.6729 275.891 19.528 275.424 19.528C275.114 19.528 274.841 19.5965 274.603 19.7333C274.37 19.8661 274.189 20.0573 274.06 20.3068C273.935 20.5563 273.871 20.8582 273.867 21.2123Z" fill="#369FEA"/>
</g>
<defs>
<filter id="filter0_d_1_56" x="2.39972" y="0.39972" width="39.202" height="39.202" filterUnits="userSpaceOnUse" color-interpolation-filters="sRGB">
<feFlood flood-opacity="0" result="BackgroundImageFix"/>
<feColorMatrix in="SourceAlpha" type="matrix" values="0 0 0 0 0 0 0 0 0 0 0 0 0 0 0 0 0 0 127 0" result="hardAlpha"/>
<feOffset/>
<feGaussianBlur stdDeviation="2.80014"/>
<feComposite in2="hardAlpha" operator="out"/>
<feColorMatrix type="matrix" values="0 0 0 0 0 0 0 0 0 0 0 0 0 0 0 0 0 0 0.25 0"/>
<feBlend mode="normal" in2="BackgroundImageFix" result="effect1_dropShadow_1_56"/>
<feBlend mode="normal" in="SourceGraphic" in2="effect1_dropShadow_1_56" result="shape"/>
</filter>
<filter id="filter1_d_1_56" x="36.2871" y="3.78642" width="250.428" height="32.4286" filterUnits="userSpaceOnUse" color-interpolation-filters="sRGB">
<feFlood flood-opacity="0" result="BackgroundImageFix"/>
<feColorMatrix in="SourceAlpha" type="matrix" values="0 0 0 0 0 0 0 0 0 0 0 0 0 0 0 0 0 0 127 0" result="hardAlpha"/>
<feOffset/>
<feGaussianBlur stdDeviation="2.85714"/>
<feComposite in2="hardAlpha" operator="out"/>
<feColorMatrix type="matrix" values="0 0 0 0 0 0 0 0 0 0 0 0 0 0 0 0 0 0 0.25 0"/>
<feBlend mode="normal" in2="BackgroundImageFix" result="effect1_dropShadow_1_56"/>
<feBlend mode="normal" in="SourceGraphic" in2="effect1_dropShadow_1_56" result="shape"/>
</filter>
<filter id="filter2_d_1_56" x="38.9613" y="13.642" width="168.76" height="21.0458" filterUnits="userSpaceOnUse" color-interpolation-filters="sRGB">
<feFlood flood-opacity="0" result="BackgroundImageFix"/>
<feColorMatrix in="SourceAlpha" type="matrix" values="0 0 0 0 0 0 0 0 0 0 0 0 0 0 0 0 0 0 127 0" result="hardAlpha"/>
<feOffset dy="4"/>
<feGaussianBlur stdDeviation="2"/>
<feComposite in2="hardAlpha" operator="out"/>
<feColorMatrix type="matrix" values="0 0 0 0 0 0 0 0 0 0 0 0 0 0 0 0 0 0 0.25 0"/>
<feBlend mode="normal" in2="BackgroundImageFix" result="effect1_dropShadow_1_56"/>
<feBlend mode="normal" in="SourceGraphic" in2="effect1_dropShadow_1_56" result="shape"/>
</filter>
<linearGradient id="paint0_linear_1_56" x1="144.501" y1="0" x2="144.501" y2="40.0014" gradientUnits="userSpaceOnUse">
<stop stop-color="#004667"/>
<stop offset="1" stop-color="#001F2E"/>
</linearGradient>
</defs>
</svg>
