<svg width="226" height="56" viewBox="0 0 226 56" fill="none" xmlns="http://www.w3.org/2000/svg">
<rect width="226" height="56" rx="8" fill="url(#paint0_linear_1_50)"/>
<rect x="1.05" y="1.05" width="223.9" height="53.9" rx="6.95" stroke="white" stroke-opacity="0.15" stroke-width="2.1"/>
<g filter="url(#filter0_d_1_50)">
<path fill-rule="evenodd" clip-rule="evenodd" d="M16.4444 48H47.5556C50.0102 48 52 46.0102 52 43.5556V12.4444C52 9.98985 50.0102 8 47.5556 8H16.4444C13.9898 8 12 9.98985 12 12.4444V43.5556C12 46.0102 13.9898 48 16.4444 48Z" fill="#007EBB"/>
<path fill-rule="evenodd" clip-rule="evenodd" d="M46.4444 42.4444H40.5087V32.3345C40.5087 29.5626 39.4554 28.0136 37.2615 28.0136C34.8748 28.0136 33.6278 29.6256 33.6278 32.3345V42.4444H27.9074V23.1852H33.6278V25.7794C33.6278 25.7794 35.3478 22.5968 39.4347 22.5968C43.5198 22.5968 46.4444 25.0914 46.4444 30.2507V42.4444ZM21.083 20.6633C19.1345 20.6633 17.5555 19.072 17.5555 17.1094C17.5555 15.1469 19.1345 13.5556 21.083 13.5556C23.0315 13.5556 24.6094 15.1469 24.6094 17.1094C24.6094 19.072 23.0315 20.6633 21.083 20.6633ZM18.1292 42.4444H24.0941V23.1852H18.1292V42.4444Z" fill="white"/>
</g>
<g filter="url(#filter1_d_1_50)">
<path d="M70.9432 16.6477H69.1704C69.1023 16.2689 68.9754 15.9356 68.7898 15.6477C68.6041 15.3598 68.3769 15.1155 68.1079 14.9148C67.839 14.714 67.5379 14.5625 67.2045 14.4602C66.875 14.358 66.5246 14.3068 66.1534 14.3068C65.4829 14.3068 64.8826 14.4754 64.3523 14.8125C63.8257 15.1496 63.4091 15.6439 63.1023 16.2954C62.7992 16.947 62.6477 17.7424 62.6477 18.6818C62.6477 19.6288 62.7992 20.428 63.1023 21.0795C63.4091 21.7311 63.8276 22.2235 64.3579 22.5568C64.8882 22.8901 65.4848 23.0568 66.1477 23.0568C66.5151 23.0568 66.8636 23.0076 67.1932 22.9091C67.5265 22.8068 67.8276 22.6572 68.0966 22.4602C68.3655 22.2633 68.5928 22.0227 68.7784 21.7386C68.9678 21.4508 69.0985 21.1212 69.1704 20.75L70.9432 20.7557C70.8485 21.3276 70.6648 21.8542 70.392 22.3352C70.1231 22.8125 69.7765 23.2254 69.3523 23.5739C68.9318 23.9186 68.4507 24.1856 67.9091 24.375C67.3674 24.5644 66.7765 24.6591 66.1363 24.6591C65.1288 24.6591 64.231 24.4204 63.4432 23.9432C62.6553 23.4621 62.0341 22.7746 61.5795 21.8807C61.1288 20.9867 60.9034 19.9204 60.9034 18.6818C60.9034 17.4394 61.1307 16.3731 61.5852 15.4829C62.0398 14.589 62.661 13.9034 63.4488 13.4261C64.2367 12.9451 65.1326 12.7045 66.1363 12.7045C66.7538 12.7045 67.3295 12.7936 67.8636 12.9716C68.4015 13.1458 68.8845 13.4034 69.3125 13.7443C69.7405 14.0814 70.0947 14.4943 70.375 14.9829C70.6553 15.4678 70.8447 16.0227 70.9432 16.6477ZM76.5838 24.6761C75.7656 24.6761 75.0516 24.4886 74.4417 24.1136C73.8319 23.7386 73.3584 23.214 73.0213 22.5398C72.6842 21.8655 72.5156 21.0776 72.5156 20.1761C72.5156 19.2708 72.6842 18.4792 73.0213 17.8011C73.3584 17.1231 73.8319 16.5966 74.4417 16.2216C75.0516 15.8466 75.7656 15.6591 76.5838 15.6591C77.402 15.6591 78.116 15.8466 78.7258 16.2216C79.3357 16.5966 79.8092 17.1231 80.1463 17.8011C80.4834 18.4792 80.652 19.2708 80.652 20.1761C80.652 21.0776 80.4834 21.8655 80.1463 22.5398C79.8092 23.214 79.3357 23.7386 78.7258 24.1136C78.116 24.4886 77.402 24.6761 76.5838 24.6761ZM76.5895 23.25C77.1198 23.25 77.5592 23.1098 77.9076 22.8295C78.2561 22.5492 78.5137 22.1761 78.6804 21.7102C78.8508 21.2443 78.9361 20.7311 78.9361 20.1704C78.9361 19.6136 78.8508 19.1023 78.6804 18.6364C78.5137 18.1667 78.2561 17.7898 77.9076 17.5057C77.5592 17.2216 77.1198 17.0795 76.5895 17.0795C76.0554 17.0795 75.6122 17.2216 75.2599 17.5057C74.9114 17.7898 74.652 18.1667 74.4815 18.6364C74.3148 19.1023 74.2315 19.6136 74.2315 20.1704C74.2315 20.7311 74.3148 21.2443 74.4815 21.7102C74.652 22.1761 74.9114 22.5492 75.2599 22.8295C75.6122 23.1098 76.0554 23.25 76.5895 23.25ZM84.2471 19.3182V24.5H82.5483V15.7727H84.179V17.1932H84.2869C84.4877 16.7311 84.8021 16.3598 85.2301 16.0795C85.6619 15.7992 86.2055 15.6591 86.8608 15.6591C87.4555 15.6591 87.9763 15.7841 88.4233 16.0341C88.8702 16.2803 89.2168 16.6477 89.463 17.1364C89.7093 17.625 89.8324 18.2292 89.8324 18.9489V24.5H88.1335V19.1534C88.1335 18.5208 87.9687 18.0265 87.6392 17.6704C87.3096 17.3106 86.857 17.1307 86.2812 17.1307C85.8873 17.1307 85.5369 17.2159 85.2301 17.3864C84.9271 17.5568 84.6865 17.8068 84.5085 18.1364C84.3343 18.4621 84.2471 18.8561 84.2471 19.3182ZM93.8096 19.3182V24.5H92.1108V15.7727H93.7415V17.1932H93.8494C94.0502 16.7311 94.3646 16.3598 94.7926 16.0795C95.2244 15.7992 95.768 15.6591 96.4233 15.6591C97.018 15.6591 97.5388 15.7841 97.9858 16.0341C98.4327 16.2803 98.7793 16.6477 99.0255 17.1364C99.2718 17.625 99.3949 18.2292 99.3949 18.9489V24.5H97.696V19.1534C97.696 18.5208 97.5312 18.0265 97.2017 17.6704C96.8721 17.3106 96.4195 17.1307 95.8437 17.1307C95.4498 17.1307 95.0994 17.2159 94.7926 17.3864C94.4896 17.5568 94.249 17.8068 94.071 18.1364C93.8968 18.4621 93.8096 18.8561 93.8096 19.3182ZM105.435 24.6761C104.575 24.6761 103.834 24.4924 103.213 24.125C102.596 23.7538 102.118 23.2329 101.781 22.5625C101.448 21.8883 101.281 21.0985 101.281 20.1932C101.281 19.2992 101.448 18.5114 101.781 17.8295C102.118 17.1477 102.588 16.6155 103.19 16.2329C103.796 15.8504 104.505 15.6591 105.315 15.6591C105.808 15.6591 106.285 15.7405 106.747 15.9034C107.209 16.0663 107.624 16.322 107.991 16.6704C108.359 17.0189 108.649 17.4716 108.861 18.0284C109.073 18.5814 109.179 19.2538 109.179 20.0454V20.6477H102.241V19.375H107.514C107.514 18.928 107.423 18.5322 107.241 18.1875C107.06 17.839 106.804 17.5644 106.474 17.3636C106.149 17.1629 105.766 17.0625 105.327 17.0625C104.849 17.0625 104.433 17.1799 104.077 17.4148C103.724 17.6458 103.452 17.9489 103.258 18.3239C103.069 18.6951 102.974 19.0985 102.974 19.5341V20.5284C102.974 21.1117 103.077 21.6079 103.281 22.017C103.49 22.4261 103.779 22.7386 104.151 22.9545C104.522 23.1667 104.955 23.2727 105.452 23.2727C105.774 23.2727 106.067 23.2273 106.332 23.1364C106.598 23.0417 106.827 22.9015 107.02 22.7159C107.213 22.5303 107.361 22.3011 107.463 22.0284L109.071 22.3182C108.942 22.7917 108.711 23.2064 108.378 23.5625C108.048 23.9148 107.633 24.1894 107.133 24.3864C106.637 24.5795 106.071 24.6761 105.435 24.6761ZM114.74 24.6761C113.895 24.6761 113.168 24.4848 112.558 24.1023C111.952 23.7159 111.486 23.1837 111.16 22.5057C110.835 21.8276 110.672 21.0511 110.672 20.1761C110.672 19.2898 110.839 18.5076 111.172 17.8295C111.505 17.1477 111.975 16.6155 112.581 16.2329C113.187 15.8504 113.901 15.6591 114.723 15.6591C115.386 15.6591 115.977 15.7822 116.496 16.0284C117.015 16.2708 117.433 16.6117 117.751 17.0511C118.073 17.4905 118.265 18.0038 118.325 18.5909H116.672C116.581 18.1818 116.373 17.8295 116.047 17.5341C115.725 17.2386 115.293 17.0909 114.751 17.0909C114.278 17.0909 113.863 17.2159 113.507 17.4659C113.155 17.7121 112.88 18.0644 112.683 18.5227C112.486 18.9773 112.388 19.5151 112.388 20.1364C112.388 20.7727 112.484 21.322 112.678 21.7841C112.871 22.2462 113.143 22.6042 113.496 22.8579C113.852 23.1117 114.27 23.2386 114.751 23.2386C115.073 23.2386 115.365 23.1799 115.626 23.0625C115.892 22.9413 116.113 22.7689 116.291 22.5454C116.473 22.322 116.6 22.053 116.672 21.7386H118.325C118.265 22.303 118.081 22.8068 117.774 23.25C117.467 23.6932 117.056 24.0417 116.541 24.2954C116.03 24.5492 115.429 24.6761 114.74 24.6761ZM124.216 15.7727V17.1364H119.449V15.7727H124.216ZM120.727 13.6818H122.426V21.9375C122.426 22.267 122.475 22.5151 122.574 22.6818C122.672 22.8447 122.799 22.9564 122.955 23.017C123.114 23.0739 123.286 23.1023 123.472 23.1023C123.608 23.1023 123.727 23.0928 123.83 23.0739C123.932 23.0549 124.011 23.0398 124.068 23.0284L124.375 24.4318C124.276 24.4697 124.136 24.5076 123.955 24.5454C123.773 24.5871 123.545 24.6098 123.273 24.6136C122.826 24.6212 122.409 24.5417 122.023 24.375C121.636 24.2083 121.324 23.9508 121.085 23.6023C120.847 23.2538 120.727 22.8163 120.727 22.2898V13.6818ZM132.222 24.5L129.653 15.7727H131.409L133.119 22.1818H133.205L134.92 15.7727H136.676L138.381 22.1534H138.466L140.165 15.7727H141.92L139.358 24.5H137.625L135.852 18.1989H135.722L133.949 24.5H132.222ZM143.533 24.5V15.7727H145.231V24.5H143.533ZM144.391 14.4261C144.095 14.4261 143.841 14.3276 143.629 14.1307C143.421 13.9299 143.317 13.6913 143.317 13.4148C143.317 13.1345 143.421 12.8958 143.629 12.6989C143.841 12.4981 144.095 12.3977 144.391 12.3977C144.686 12.3977 144.938 12.4981 145.146 12.6989C145.358 12.8958 145.464 13.1345 145.464 13.4148C145.464 13.6913 145.358 13.9299 145.146 14.1307C144.938 14.3276 144.686 14.4261 144.391 14.4261ZM151.591 15.7727V17.1364H146.824V15.7727H151.591ZM148.102 13.6818H149.801V21.9375C149.801 22.267 149.85 22.5151 149.949 22.6818C150.047 22.8447 150.174 22.9564 150.33 23.017C150.489 23.0739 150.661 23.1023 150.847 23.1023C150.983 23.1023 151.102 23.0928 151.205 23.0739C151.307 23.0549 151.386 23.0398 151.443 23.0284L151.75 24.4318C151.651 24.4697 151.511 24.5076 151.33 24.5454C151.148 24.5871 150.92 24.6098 150.648 24.6136C150.201 24.6212 149.784 24.5417 149.398 24.375C149.011 24.2083 148.699 23.9508 148.46 23.6023C148.222 23.2538 148.102 22.8163 148.102 22.2898V13.6818ZM155.356 19.3182V24.5H153.658V12.8636H155.334V17.1932H155.442C155.646 16.7235 155.959 16.3504 156.379 16.0739C156.8 15.7973 157.349 15.6591 158.027 15.6591C158.625 15.6591 159.148 15.7822 159.595 16.0284C160.046 16.2746 160.394 16.642 160.641 17.1307C160.891 17.6155 161.016 18.2216 161.016 18.9489V24.5H159.317V19.1534C159.317 18.5133 159.152 18.017 158.822 17.6648C158.493 17.3087 158.035 17.1307 157.447 17.1307C157.046 17.1307 156.686 17.2159 156.368 17.3864C156.053 17.5568 155.805 17.8068 155.624 18.1364C155.446 18.4621 155.356 18.8561 155.356 19.3182ZM167.517 24.5V15.7727H169.148V17.1932H169.256C169.437 16.7121 169.735 16.3371 170.148 16.0682C170.561 15.7954 171.055 15.6591 171.631 15.6591C172.214 15.6591 172.703 15.7954 173.097 16.0682C173.494 16.3409 173.788 16.7159 173.977 17.1932H174.068C174.276 16.7273 174.608 16.3561 175.062 16.0795C175.517 15.7992 176.059 15.6591 176.687 15.6591C177.479 15.6591 178.125 15.9072 178.625 16.4034C179.129 16.8996 179.381 17.6477 179.381 18.6477V24.5H177.682V18.8068C177.682 18.2159 177.521 17.7879 177.199 17.5227C176.877 17.2576 176.492 17.125 176.045 17.125C175.492 17.125 175.062 17.2954 174.756 17.6364C174.449 17.9735 174.295 18.4072 174.295 18.9375V24.5H172.602V18.6989C172.602 18.2254 172.454 17.8447 172.159 17.5568C171.864 17.2689 171.479 17.125 171.006 17.125C170.684 17.125 170.386 17.2102 170.114 17.3807C169.845 17.5473 169.627 17.7803 169.46 18.0795C169.297 18.3788 169.216 18.7254 169.216 19.1193V24.5H167.517ZM185.419 24.6761C184.559 24.6761 183.819 24.4924 183.197 24.125C182.58 23.7538 182.103 23.2329 181.766 22.5625C181.432 21.8883 181.266 21.0985 181.266 20.1932C181.266 19.2992 181.432 18.5114 181.766 17.8295C182.103 17.1477 182.572 16.6155 183.175 16.2329C183.781 15.8504 184.489 15.6591 185.3 15.6591C185.792 15.6591 186.269 15.7405 186.731 15.9034C187.194 16.0663 187.608 16.322 187.976 16.6704C188.343 17.0189 188.633 17.4716 188.845 18.0284C189.057 18.5814 189.163 19.2538 189.163 20.0454V20.6477H182.226V19.375H187.499C187.499 18.928 187.408 18.5322 187.226 18.1875C187.044 17.839 186.788 17.5644 186.459 17.3636C186.133 17.1629 185.75 17.0625 185.311 17.0625C184.834 17.0625 184.417 17.1799 184.061 17.4148C183.709 17.6458 183.436 17.9489 183.243 18.3239C183.053 18.6951 182.959 19.0985 182.959 19.5341V20.5284C182.959 21.1117 183.061 21.6079 183.266 22.017C183.474 22.4261 183.764 22.7386 184.135 22.9545C184.506 23.1667 184.94 23.2727 185.436 23.2727C185.758 23.2727 186.052 23.2273 186.317 23.1364C186.582 23.0417 186.811 22.9015 187.004 22.7159C187.197 22.5303 187.345 22.3011 187.447 22.0284L189.055 22.3182C188.927 22.7917 188.695 23.2064 188.362 23.5625C188.033 23.9148 187.618 24.1894 187.118 24.3864C186.622 24.5795 186.055 24.6761 185.419 24.6761ZM198.959 24.6761C198.141 24.6761 197.427 24.4886 196.817 24.1136C196.207 23.7386 195.733 23.214 195.396 22.5398C195.059 21.8655 194.891 21.0776 194.891 20.1761C194.891 19.2708 195.059 18.4792 195.396 17.8011C195.733 17.1231 196.207 16.5966 196.817 16.2216C197.427 15.8466 198.141 15.6591 198.959 15.6591C199.777 15.6591 200.491 15.8466 201.101 16.2216C201.711 16.5966 202.184 17.1231 202.521 17.8011C202.858 18.4792 203.027 19.2708 203.027 20.1761C203.027 21.0776 202.858 21.8655 202.521 22.5398C202.184 23.214 201.711 23.7386 201.101 24.1136C200.491 24.4886 199.777 24.6761 198.959 24.6761ZM198.964 23.25C199.495 23.25 199.934 23.1098 200.283 22.8295C200.631 22.5492 200.889 22.1761 201.055 21.7102C201.226 21.2443 201.311 20.7311 201.311 20.1704C201.311 19.6136 201.226 19.1023 201.055 18.6364C200.889 18.1667 200.631 17.7898 200.283 17.5057C199.934 17.2216 199.495 17.0795 198.964 17.0795C198.43 17.0795 197.987 17.2216 197.635 17.5057C197.286 17.7898 197.027 18.1667 196.856 18.6364C196.69 19.1023 196.606 19.6136 196.606 20.1704C196.606 20.7311 196.69 21.2443 196.856 21.7102C197.027 22.1761 197.286 22.5492 197.635 22.8295C197.987 23.1098 198.43 23.25 198.964 23.25ZM206.622 19.3182V24.5H204.923V15.7727H206.554V17.1932H206.662C206.863 16.7311 207.177 16.3598 207.605 16.0795C208.037 15.7992 208.58 15.6591 209.236 15.6591C209.83 15.6591 210.351 15.7841 210.798 16.0341C211.245 16.2803 211.592 16.6477 211.838 17.1364C212.084 17.625 212.207 18.2292 212.207 18.9489V24.5H210.508V19.1534C210.508 18.5208 210.344 18.0265 210.014 17.6704C209.685 17.3106 209.232 17.1307 208.656 17.1307C208.262 17.1307 207.912 17.2159 207.605 17.3864C207.302 17.5568 207.061 17.8068 206.883 18.1364C206.709 18.4621 206.622 18.8561 206.622 19.3182Z" fill="#E8E8E8"/>
<path d="M60.9357 43.5V31.1364H63.924V41.0731H69.0675V43.5H60.9357ZM70.6144 43.5V34.2273H73.5665V43.5H70.6144ZM72.0935 33.1467C71.6789 33.1467 71.3228 33.0098 71.0249 32.7361C70.7271 32.4584 70.5782 32.1244 70.5782 31.734C70.5782 31.3476 70.7271 31.0176 71.0249 30.744C71.3228 30.4663 71.6789 30.3274 72.0935 30.3274C72.512 30.3274 72.8682 30.4663 73.162 30.744C73.4598 31.0176 73.6087 31.3476 73.6087 31.734C73.6087 32.1244 73.4598 32.4584 73.162 32.7361C72.8682 33.0098 72.512 33.1467 72.0935 33.1467ZM78.3975 38.2116V43.5H75.4455V34.2273H78.2526V35.9297H78.3553C78.5605 35.3622 78.9107 34.9175 79.4057 34.5955C79.9007 34.2695 80.4903 34.1065 81.1745 34.1065C81.8265 34.1065 82.392 34.2534 82.8709 34.5472C83.3538 34.837 83.7281 35.2435 83.9938 35.7667C84.2634 36.2859 84.3962 36.8936 84.3922 37.5898V43.5H81.4401V38.1694C81.4442 37.6542 81.3134 37.2518 81.0477 36.962C80.7861 36.6722 80.4219 36.5273 79.9551 36.5273C79.6452 36.5273 79.3715 36.5958 79.134 36.7326C78.9006 36.8654 78.7195 37.0566 78.5907 37.3061C78.4659 37.5556 78.4016 37.8575 78.3975 38.2116ZM88.8822 41.0671L88.8942 37.5476H89.3048L91.9127 34.2273H95.2572L91.3815 38.9844H90.6027L88.8822 41.0671ZM86.2199 43.5V31.1364H89.1719V43.5H86.2199ZM91.9791 43.5L89.5523 39.6484L91.4962 37.5536L95.39 43.5H91.9791ZM100.266 43.6751C99.2964 43.6751 98.4593 43.4839 97.7549 43.1016C97.0547 42.7152 96.5154 42.1658 96.137 41.4535C95.7628 40.7371 95.5756 39.8859 95.5756 38.8998C95.5756 37.942 95.7648 37.1049 96.1431 36.3885C96.5214 35.6681 97.0547 35.1087 97.7429 34.7102C98.4311 34.3078 99.242 34.1065 100.176 34.1065C100.836 34.1065 101.439 34.2092 101.987 34.4144C102.534 34.6197 103.007 34.9235 103.406 35.326C103.804 35.7284 104.114 36.2255 104.335 36.8171C104.557 37.4047 104.667 38.0788 104.667 38.8395V39.576H96.6079V37.8615H101.92C101.916 37.5476 101.842 37.2679 101.697 37.0224C101.552 36.7769 101.353 36.5857 101.099 36.4489C100.85 36.308 100.562 36.2376 100.236 36.2376C99.9061 36.2376 99.6103 36.312 99.3487 36.4609C99.0871 36.6058 98.8798 36.805 98.7269 37.0586C98.574 37.3081 98.4935 37.5918 98.4854 37.9098V39.6545C98.4854 40.0328 98.5599 40.3648 98.7088 40.6506C98.8577 40.9323 99.069 41.1516 99.3427 41.3086C99.6163 41.4655 99.9423 41.544 100.321 41.544C100.582 41.544 100.82 41.5078 101.033 41.4354C101.246 41.3629 101.429 41.2563 101.582 41.1154C101.735 40.9745 101.85 40.8015 101.926 40.5962L104.637 40.6747C104.524 41.2824 104.277 41.8117 103.895 42.2624C103.516 42.7092 103.019 43.0573 102.403 43.3068C101.788 43.5523 101.075 43.6751 100.266 43.6751ZM109.562 43.6328C108.877 43.6328 108.256 43.4557 107.696 43.1016C107.137 42.7474 106.69 42.2161 106.356 41.5078C106.022 40.7995 105.855 39.9201 105.855 38.8697C105.855 37.779 106.028 36.8815 106.374 36.1772C106.72 35.4729 107.173 34.9517 107.732 34.6136C108.296 34.2756 108.902 34.1065 109.55 34.1065C110.037 34.1065 110.453 34.191 110.799 34.3601C111.145 34.5251 111.431 34.7384 111.656 35C111.882 35.2616 112.053 35.5333 112.17 35.815H112.23V31.1364H115.182V43.5H112.26V41.9968H112.17C112.045 42.2825 111.868 42.5502 111.638 42.7997C111.409 43.0492 111.121 43.2505 110.775 43.4034C110.433 43.5563 110.029 43.6328 109.562 43.6328ZM110.588 41.3327C110.946 41.3327 111.252 41.2321 111.506 41.0309C111.759 40.8256 111.954 40.5379 112.091 40.1676C112.228 39.7973 112.296 39.3627 112.296 38.8636C112.296 38.3565 112.228 37.9199 112.091 37.5536C111.958 37.1874 111.763 36.9056 111.506 36.7084C111.252 36.5112 110.946 36.4126 110.588 36.4126C110.222 36.4126 109.912 36.5132 109.658 36.7145C109.405 36.9157 109.212 37.1994 109.079 37.5657C108.95 37.9319 108.886 38.3646 108.886 38.8636C108.886 39.3627 108.952 39.7973 109.085 40.1676C109.218 40.5379 109.409 40.8256 109.658 41.0309C109.912 41.2321 110.222 41.3327 110.588 41.3327ZM120.037 31.1364V43.5H117.049V31.1364H120.037ZM124.865 38.2116V43.5H121.913V34.2273H124.72V35.9297H124.823C125.028 35.3622 125.378 34.9175 125.873 34.5955C126.368 34.2695 126.958 34.1065 127.642 34.1065C128.294 34.1065 128.86 34.2534 129.339 34.5472C129.822 34.837 130.196 35.2435 130.462 35.7667C130.731 36.2859 130.864 36.8936 130.86 37.5898V43.5H127.908V38.1694C127.912 37.6542 127.781 37.2518 127.516 36.962C127.254 36.6722 126.89 36.5273 126.423 36.5273C126.113 36.5273 125.839 36.5958 125.602 36.7326C125.368 36.8654 125.187 37.0566 125.058 37.3061C124.934 37.5556 124.869 37.8575 124.865 38.2116Z" fill="#009FEB"/>
</g>
<defs>
<filter id="filter0_d_1_50" x="6.28571" y="2.28571" width="51.4286" height="51.4286" filterUnits="userSpaceOnUse" color-interpolation-filters="sRGB">
<feFlood flood-opacity="0" result="BackgroundImageFix"/>
<feColorMatrix in="SourceAlpha" type="matrix" values="0 0 0 0 0 0 0 0 0 0 0 0 0 0 0 0 0 0 127 0" result="hardAlpha"/>
<feOffset/>
<feGaussianBlur stdDeviation="2.85714"/>
<feComposite in2="hardAlpha" operator="out"/>
<feColorMatrix type="matrix" values="0 0 0 0 0 0 0 0 0 0 0 0 0 0 0 0 0 0 0.25 0"/>
<feBlend mode="normal" in2="BackgroundImageFix" result="effect1_dropShadow_1_50"/>
<feBlend mode="normal" in="SourceGraphic" in2="effect1_dropShadow_1_50" result="shape"/>
</filter>
<filter id="filter1_d_1_50" x="54.4" y="3.9" width="165.2" height="48.2" filterUnits="userSpaceOnUse" color-interpolation-filters="sRGB">
<feFlood flood-opacity="0" result="BackgroundImageFix"/>
<feColorMatrix in="SourceAlpha" type="matrix" values="0 0 0 0 0 0 0 0 0 0 0 0 0 0 0 0 0 0 127 0" result="hardAlpha"/>
<feOffset/>
<feGaussianBlur stdDeviation="2.8"/>
<feComposite in2="hardAlpha" operator="out"/>
<feColorMatrix type="matrix" values="0 0 0 0 0 0 0 0 0 0 0 0 0 0 0 0 0 0 0.25 0"/>
<feBlend mode="normal" in2="BackgroundImageFix" result="effect1_dropShadow_1_50"/>
<feBlend mode="normal" in="SourceGraphic" in2="effect1_dropShadow_1_50" result="shape"/>
</filter>
<linearGradient id="paint0_linear_1_50" x1="113" y1="0" x2="113" y2="56" gradientUnits="userSpaceOnUse">
<stop stop-color="#004667"/>
<stop offset="1" stop-color="#001F2E"/>
</linearGradient>
</defs>
</svg>
