<svg width="40" height="40" viewBox="0 0 40 40" fill="none" xmlns="http://www.w3.org/2000/svg">
<rect width="40" height="40" rx="8" fill="url(#paint0_linear_1_68)"/>
<rect x="1.05" y="1.05" width="37.9" height="37.9" rx="6.95" stroke="white" stroke-opacity="0.15" stroke-width="2.1"/>
<g filter="url(#filter0_d_1_68)">
<path d="M8.11308 17.9175C8.05855 17.9175 8.04491 17.8902 8.07218 17.8493L8.35847 17.4812C8.38573 17.4403 8.4539 17.4131 8.50843 17.4131H13.3753C13.4298 17.4131 13.4435 17.454 13.4162 17.4949L13.1845 17.8493C13.1572 17.8902 13.089 17.9311 13.0481 17.9311L8.11308 17.9175Z" fill="#00ACD7"/>
<path d="M6.05453 19.1717C6 19.1717 5.98637 19.1444 6.01363 19.1035L6.29992 18.7354C6.32719 18.6945 6.39535 18.6673 6.44988 18.6673H12.6664C12.7209 18.6673 12.7482 18.7082 12.7346 18.7491L12.6255 19.0763C12.6119 19.1308 12.5574 19.1581 12.5028 19.1581L6.05453 19.1717Z" fill="#00ACD7"/>
<path d="M9.35366 20.4259C9.29912 20.4259 9.28549 20.385 9.31276 20.3441L9.50362 20.0033C9.53088 19.9624 9.58541 19.9215 9.63994 19.9215H12.3665C12.421 19.9215 12.4483 19.9624 12.4483 20.0169L12.421 20.3441C12.421 20.3986 12.3665 20.4395 12.3256 20.4395L9.35366 20.4259Z" fill="#00ACD7"/>
<path d="M23.5045 17.6721C22.6456 17.8902 22.0594 18.0538 21.2142 18.2719C21.0097 18.3265 20.996 18.3401 20.8188 18.1356C20.6143 17.9038 20.4643 17.7539 20.1781 17.6176C19.3192 17.1949 18.4876 17.3176 17.7105 17.822C16.7835 18.4219 16.3064 19.308 16.32 20.4123C16.3336 21.5029 17.0834 22.4027 18.1604 22.5526C19.0874 22.6753 19.8645 22.3481 20.478 21.6529C20.6007 21.5029 20.7097 21.3393 20.8461 21.1484C20.3553 21.1484 19.7418 21.1484 18.2149 21.1484C17.9287 21.1484 17.8605 20.9712 17.9559 20.7395C18.1331 20.3168 18.4603 19.6079 18.6512 19.2535C18.6921 19.1717 18.7875 19.0354 18.992 19.0354C19.6873 19.0354 22.2502 19.0354 23.9543 19.0354C23.9271 19.4034 23.9271 19.7715 23.8725 20.1396C23.7226 21.1212 23.3545 22.0209 22.7547 22.8116C21.7731 24.1067 20.4916 24.9111 18.8693 25.1292C17.5333 25.3064 16.2927 25.0474 15.2021 24.2294C14.1933 23.466 13.6207 22.4572 13.4707 21.203C13.2935 19.717 13.7298 18.381 14.6295 17.2086C15.5975 15.9407 16.8789 15.1364 18.4467 14.8501C19.7282 14.6184 20.9551 14.7683 22.0594 15.5181C22.7819 15.9953 23.3 16.6496 23.6408 17.4403C23.7226 17.563 23.668 17.6312 23.5045 17.6721Z" fill="#00ACD7"/>
<path d="M28.0169 25.211C26.7763 25.1837 25.6448 24.8293 24.6905 24.0113C23.8862 23.316 23.3818 22.4299 23.2182 21.3802C22.9728 19.8397 23.3954 18.4764 24.3224 17.2631C25.3176 15.9544 26.5173 15.2727 28.1396 14.9864C29.5301 14.741 30.8389 14.8774 32.0249 15.6817C33.1019 16.4179 33.7699 17.4131 33.9471 18.7218C34.1789 20.5622 33.6472 22.0618 32.3794 23.3433C31.4796 24.2567 30.3754 24.8293 29.1075 25.0883C28.7394 25.1565 28.3713 25.1701 28.0169 25.211ZM31.2615 19.7034C31.2479 19.5261 31.2479 19.3898 31.2206 19.2535C30.9752 17.9038 29.7346 17.1404 28.4395 17.4403C27.1717 17.7266 26.3537 18.531 26.0538 19.8124C25.8084 20.8758 26.3264 21.9528 27.308 22.389C28.0578 22.7162 28.8076 22.6753 29.5301 22.3072C30.6071 21.7483 31.1933 20.8758 31.2615 19.7034Z" fill="#00ACD7"/>
</g>
<defs>
<filter id="filter0_d_1_68" x="2" y="2" width="36" height="36" filterUnits="userSpaceOnUse" color-interpolation-filters="sRGB">
<feFlood flood-opacity="0" result="BackgroundImageFix"/>
<feColorMatrix in="SourceAlpha" type="matrix" values="0 0 0 0 0 0 0 0 0 0 0 0 0 0 0 0 0 0 127 0" result="hardAlpha"/>
<feOffset/>
<feGaussianBlur stdDeviation="2"/>
<feComposite in2="hardAlpha" operator="out"/>
<feColorMatrix type="matrix" values="0 0 0 0 0 0 0 0 0 0 0 0 0 0 0 0 0 0 0.25 0"/>
<feBlend mode="normal" in2="BackgroundImageFix" result="effect1_dropShadow_1_68"/>
<feBlend mode="normal" in="SourceGraphic" in2="effect1_dropShadow_1_68" result="shape"/>
</filter>
<linearGradient id="paint0_linear_1_68" x1="20" y1="0" x2="20" y2="40" gradientUnits="userSpaceOnUse">
<stop stop-color="#00566B"/>
<stop offset="1" stop-color="#002B36"/>
</linearGradient>
</defs>
</svg>
