<svg width="154" height="40" viewBox="0 0 154 40" fill="none" xmlns="http://www.w3.org/2000/svg">
<rect width="154.001" height="40.0014" rx="8" fill="url(#paint0_linear_1_56)"/>
<rect x="1.07143" y="1.07143" width="151.859" height="37.8585" rx="6.92857" stroke="white" stroke-opacity="0.15" stroke-width="2.14286"/>
<g filter="url(#filter0_d_1_56)">
<path d="M10.1131 17.9175C10.0585 17.9175 10.0449 17.8902 10.0722 17.8493L10.3585 17.4812C10.3857 17.4403 10.4539 17.4131 10.5084 17.4131H15.3753C15.4299 17.4131 15.4435 17.454 15.4162 17.4949L15.1845 17.8493C15.1572 17.8902 15.089 17.9311 15.0481 17.9311L10.1131 17.9175Z" fill="#00ACD7"/>
<path d="M8.05453 19.1717C8 19.1717 7.98637 19.1444 8.01363 19.1035L8.29992 18.7354C8.32719 18.6945 8.39535 18.6673 8.44988 18.6673H14.6664C14.7209 18.6673 14.7482 18.7082 14.7346 18.7491L14.6255 19.0763C14.6119 19.1308 14.5574 19.1581 14.5028 19.1581L8.05453 19.1717Z" fill="#00ACD7"/>
<path d="M11.3537 20.4259C11.2991 20.4259 11.2855 20.385 11.3128 20.3441L11.5036 20.0033C11.5309 19.9624 11.5854 19.9215 11.6399 19.9215H14.3665C14.421 19.9215 14.4483 19.9624 14.4483 20.0169L14.421 20.3441C14.421 20.3986 14.3665 20.4395 14.3256 20.4395L11.3537 20.4259Z" fill="#00ACD7"/>
<path d="M25.5045 17.6721C24.6456 17.8902 24.0594 18.0538 23.2142 18.2719C23.0097 18.3265 22.996 18.3401 22.8188 18.1356C22.6143 17.9038 22.4643 17.7539 22.1781 17.6176C21.3192 17.1949 20.4876 17.3176 19.7105 17.822C18.7835 18.4219 18.3064 19.308 18.32 20.4123C18.3336 21.5029 19.0834 22.4027 20.1604 22.5526C21.0874 22.6753 21.8645 22.3481 22.478 21.6529C22.6007 21.5029 22.7097 21.3393 22.8461 21.1484C22.3553 21.1484 21.7418 21.1484 20.2149 21.1484C19.9287 21.1484 19.8605 20.9712 19.9559 20.7395C20.1331 20.3168 20.4603 19.6079 20.6512 19.2535C20.6921 19.1717 20.7875 19.0354 20.992 19.0354C21.6873 19.0354 24.2502 19.0354 25.9543 19.0354C25.9271 19.4034 25.9271 19.7715 25.8725 20.1396C25.7226 21.1212 25.3545 22.0209 24.7547 22.8116C23.7731 24.1067 22.4916 24.9111 20.8693 25.1292C19.5333 25.3064 18.2927 25.0474 17.2021 24.2294C16.1933 23.466 15.6207 22.4572 15.4707 21.203C15.2935 19.717 15.7298 18.381 16.6295 17.2086C17.5975 15.9407 18.8789 15.1364 20.4467 14.8501C21.7282 14.6184 22.9551 14.7683 24.0594 15.5181C24.7819 15.9953 25.3 16.6496 25.6408 17.4403C25.7226 17.563 25.668 17.6312 25.5045 17.6721Z" fill="#00ACD7"/>
<path d="M30.0169 25.211C28.7763 25.1837 27.6448 24.8293 26.6905 24.0113C25.8862 23.316 25.3818 22.4299 25.2182 21.3802C24.9728 19.8397 25.3954 18.4764 26.3224 17.2631C27.3176 15.9544 28.5173 15.2727 30.1396 14.9864C31.5301 14.741 32.8389 14.8774 34.0249 15.6817C35.1019 16.4179 35.7699 17.4131 35.9471 18.7218C36.1789 20.5622 35.6472 22.0618 34.3794 23.3433C33.4796 24.2567 32.3754 24.8293 31.1075 25.0883C30.7394 25.1565 30.3713 25.1701 30.0169 25.211ZM33.2615 19.7034C33.2479 19.5261 33.2479 19.3898 33.2206 19.2535C32.9752 17.9038 31.7346 17.1404 30.4395 17.4403C29.1717 17.7266 28.3537 18.531 28.0538 19.8124C27.8084 20.8758 28.3264 21.9528 29.308 22.389C30.0578 22.7162 30.8076 22.6753 31.5301 22.3072C32.6071 21.7483 33.1933 20.8758 33.2615 19.7034Z" fill="#00ACD7"/>
</g>
<g filter="url(#filter1_d_1_56)">
<path d="M43.3597 26.5007V14.1371H47.8874C48.7648 14.1371 49.4912 14.282 50.0667 14.5717C50.6423 14.8575 51.0729 15.2458 51.3586 15.7369C51.6444 16.2238 51.7873 16.7732 51.7873 17.3849C51.7873 17.9001 51.6927 18.3347 51.5035 18.6889C51.3144 19.0391 51.0608 19.3208 50.7429 19.5341C50.429 19.7434 50.0828 19.8963 49.7045 19.9929V20.1136C50.115 20.1337 50.5155 20.2666 50.9059 20.5121C51.3003 20.7535 51.6263 21.0976 51.8839 21.5444C52.1414 21.9911 52.2702 22.5344 52.2702 23.1743C52.2702 23.8062 52.1213 24.3737 51.8235 24.8768C51.5297 25.3758 51.0749 25.7722 50.4591 26.066C49.8434 26.3558 49.0566 26.5007 48.0987 26.5007H43.3597ZM45.2251 24.9009H47.9176C48.8111 24.9009 49.451 24.7279 49.8373 24.3817C50.2237 24.0356 50.4169 23.603 50.4169 23.0838C50.4169 22.6934 50.3183 22.3352 50.1211 22.0092C49.9239 21.6832 49.6421 21.4236 49.2759 21.2305C48.9137 21.0373 48.483 20.9407 47.984 20.9407H45.2251V24.9009ZM45.2251 19.4858H47.7244C48.143 19.4858 48.5193 19.4053 48.8533 19.2443C49.1914 19.0833 49.459 18.8579 49.6562 18.5682C49.8575 18.2744 49.9581 17.9283 49.9581 17.5298C49.9581 17.0187 49.779 16.5901 49.4208 16.244C49.0626 15.8978 48.5132 15.7248 47.7727 15.7248H45.2251V19.4858ZM60.2118 22.6552V17.228H62.0229V26.5007H60.248V24.8949H60.1514C59.9381 25.3899 59.596 25.8024 59.1251 26.1324C58.6583 26.4584 58.0767 26.6214 57.3805 26.6214C56.7848 26.6214 56.2576 26.4906 55.7988 26.229C55.344 25.9634 54.9858 25.571 54.7242 25.0518C54.4667 24.5327 54.3379 23.8907 54.3379 23.1261V17.228H56.1429V22.9087C56.1429 23.5406 56.318 24.0437 56.6681 24.418C57.0183 24.7922 57.473 24.9794 58.0325 24.9794C58.3705 24.9794 58.7066 24.8949 59.0406 24.7258C59.3787 24.5568 59.6584 24.3012 59.8798 23.9591C60.1051 23.6171 60.2158 23.1824 60.2118 22.6552ZM64.4482 26.5007V17.228H66.2533V26.5007H64.4482ZM65.3598 15.7972C65.0459 15.7972 64.7762 15.6926 64.5508 15.4833C64.3295 15.27 64.2188 15.0164 64.2188 14.7226C64.2188 14.4248 64.3295 14.1713 64.5508 13.962C64.7762 13.7487 65.0459 13.642 65.3598 13.642C65.6737 13.642 65.9413 13.7487 66.1627 13.962C66.3881 14.1713 66.5008 14.4248 66.5008 14.7226C66.5008 15.0164 66.3881 15.27 66.1627 15.4833C65.9413 15.6926 65.6737 15.7972 65.3598 15.7972ZM70.4867 14.1371V26.5007H68.6816V14.1371H70.4867ZM77.2435 17.228V18.6768H72.1785V17.228H77.2435ZM73.5368 15.0064H75.3419V23.778C75.3419 24.1282 75.3942 24.3918 75.4988 24.5689C75.6035 24.7419 75.7383 24.8607 75.9033 24.9251C76.0723 24.9854 76.2554 25.0156 76.4526 25.0156C76.5975 25.0156 76.7243 25.0056 76.833 24.9854C76.9416 24.9653 77.0262 24.9492 77.0865 24.9371L77.4125 26.4283C77.3079 26.4685 77.159 26.5087 76.9658 26.549C76.7726 26.5933 76.5311 26.6174 76.2414 26.6214C75.7664 26.6295 75.3237 26.545 74.9132 26.3679C74.5027 26.1908 74.1707 25.9171 73.9171 25.5469C73.6636 25.1766 73.5368 24.7118 73.5368 24.1523V15.0064ZM85.7495 26.5007L83.0208 17.228H84.8862L86.7034 24.0376H86.7939L88.6171 17.228H90.4825L92.2936 24.0074H92.3841L94.1891 17.228H96.0546L93.3319 26.5007H91.4906L89.6071 19.8057H89.4683L87.5847 26.5007H85.7495ZM97.7675 26.5007V17.228H99.5726V26.5007H97.7675ZM98.6791 15.7972C98.3652 15.7972 98.0955 15.6926 97.8702 15.4833C97.6488 15.27 97.5381 15.0164 97.5381 14.7226C97.5381 14.4248 97.6488 14.1713 97.8702 13.962C98.0955 13.7487 98.3652 13.642 98.6791 13.642C98.993 13.642 99.2607 13.7487 99.482 13.962C99.7074 14.1713 99.8201 14.4248 99.8201 14.7226C99.8201 15.0164 99.7074 15.27 99.482 15.4833C99.2607 15.6926 98.993 15.7972 98.6791 15.7972ZM106.329 17.228V18.6768H101.264V17.228H106.329ZM102.623 15.0064H104.428V23.778C104.428 24.1282 104.48 24.3918 104.585 24.5689C104.689 24.7419 104.824 24.8607 104.989 24.9251C105.158 24.9854 105.341 25.0156 105.539 25.0156C105.683 25.0156 105.81 25.0056 105.919 24.9854C106.028 24.9653 106.112 24.9492 106.172 24.9371L106.498 26.4283C106.394 26.4685 106.245 26.5087 106.052 26.549C105.859 26.5933 105.617 26.6174 105.327 26.6214C104.852 26.6295 104.41 26.545 103.999 26.3679C103.589 26.1908 103.257 25.9171 103.003 25.5469C102.75 25.1766 102.623 24.7118 102.623 24.1523V15.0064ZM110.33 20.995V26.5007H108.525V14.1371H110.306V18.7372H110.421C110.638 18.2382 110.97 17.8417 111.417 17.5479C111.864 17.2541 112.447 17.1072 113.168 17.1072C113.804 17.1072 114.359 17.238 114.834 17.4996C115.313 17.7612 115.683 18.1516 115.945 18.6708C116.21 19.1859 116.343 19.8299 116.343 20.6026V26.5007H114.538V20.8199C114.538 20.1398 114.363 19.6126 114.013 19.2383C113.663 18.86 113.176 18.6708 112.552 18.6708C112.125 18.6708 111.743 18.7614 111.405 18.9425C111.071 19.1236 110.807 19.3892 110.614 19.7393C110.425 20.0855 110.33 20.504 110.33 20.995Z" fill="#E8E8E8"/>
<path d="M131.051 17.6758C130.982 17.4222 130.882 17.1989 130.749 17.0057C130.616 16.8085 130.453 16.6414 130.26 16.5046C130.067 16.3678 129.845 16.2651 129.596 16.1967C129.346 16.1243 129.073 16.0881 128.775 16.0881C128.175 16.0881 127.656 16.2329 127.217 16.5227C126.783 16.8125 126.447 17.2351 126.209 17.7905C125.972 18.3418 125.853 19.0119 125.853 19.8008C125.853 20.5936 125.968 21.2698 126.197 21.8292C126.426 22.3886 126.758 22.8152 127.193 23.109C127.628 23.4028 128.155 23.5497 128.775 23.5497C129.322 23.5497 129.785 23.4612 130.163 23.2841C130.546 23.103 130.835 22.8474 131.033 22.5174C131.23 22.1874 131.328 21.799 131.328 21.3523L131.884 21.4187H128.877V19.2393H134.208V20.8753C134.208 21.9821 133.973 22.9299 133.502 23.7187C133.035 24.5076 132.391 25.1133 131.57 25.5359C130.753 25.9584 129.813 26.1697 128.751 26.1697C127.571 26.1697 126.535 25.9142 125.642 25.403C124.748 24.8919 124.052 24.1635 123.553 23.2177C123.054 22.2679 122.804 21.141 122.804 19.837C122.804 18.8228 122.955 17.9233 123.257 17.1385C123.559 16.3497 123.979 15.6816 124.519 15.1342C125.062 14.5869 125.69 14.1723 126.402 13.8906C127.119 13.6089 127.889 13.468 128.714 13.468C129.431 13.468 130.097 13.5707 130.713 13.7759C131.332 13.9812 131.88 14.2709 132.355 14.6452C132.834 15.0195 133.222 15.4642 133.52 15.9794C133.818 16.4945 134.003 17.06 134.075 17.6758H131.051ZM140.298 26.1758C139.324 26.1758 138.487 25.9765 137.786 25.5781C137.09 25.1757 136.553 24.6162 136.175 23.8998C135.8 23.1794 135.613 22.3443 135.613 21.3945C135.613 20.4407 135.8 19.6056 136.175 18.8892C136.553 18.1688 137.09 17.6094 137.786 17.2109C138.487 16.8085 139.324 16.6072 140.298 16.6072C141.272 16.6072 142.107 16.8085 142.803 17.2109C143.503 17.6094 144.041 18.1688 144.415 18.8892C144.793 19.6056 144.982 20.4407 144.982 21.3945C144.982 22.3443 144.793 23.1794 144.415 23.8998C144.041 24.6162 143.503 25.1757 142.803 25.5781C142.107 25.9765 141.272 26.1758 140.298 26.1758ZM140.316 23.9481C140.67 23.9481 140.97 23.8395 141.215 23.6221C141.461 23.4048 141.648 23.103 141.777 22.7166C141.91 22.3302 141.976 21.8835 141.976 21.3764C141.976 20.8613 141.91 20.4105 141.777 20.0241C141.648 19.6378 141.461 19.3359 141.215 19.1186C140.97 18.9013 140.67 18.7926 140.316 18.7926C139.95 18.7926 139.64 18.9013 139.386 19.1186C139.137 19.3359 138.946 19.6378 138.813 20.0241C138.684 20.4105 138.62 20.8613 138.62 21.3764C138.62 21.8835 138.684 22.3302 138.813 22.7166C138.946 23.103 139.137 23.4048 139.386 23.6221C139.64 23.8395 139.95 23.9481 140.316 23.9481Z" fill="#00ACD7"/>
</g>
<defs>
<filter id="filter0_d_1_56" x="2.39972" y="0.39972" width="39.202" height="39.202" filterUnits="userSpaceOnUse" color-interpolation-filters="sRGB">
<feFlood flood-opacity="0" result="BackgroundImageFix"/>
<feColorMatrix in="SourceAlpha" type="matrix" values="0 0 0 0 0 0 0 0 0 0 0 0 0 0 0 0 0 0 127 0" result="hardAlpha"/>
<feOffset/>
<feGaussianBlur stdDeviation="2.80014"/>
<feComposite in2="hardAlpha" operator="out"/>
<feColorMatrix type="matrix" values="0 0 0 0 0 0 0 0 0 0 0 0 0 0 0 0 0 0 0.25 0"/>
<feBlend mode="normal" in2="BackgroundImageFix" result="effect1_dropShadow_1_56"/>
<feBlend mode="normal" in="SourceGraphic" in2="effect1_dropShadow_1_56" result="shape"/>
</filter>
<filter id="filter1_d_1_56" x="36.2871" y="3.78642" width="115.429" height="32.4286" filterUnits="userSpaceOnUse" color-interpolation-filters="sRGB">
<feFlood flood-opacity="0" result="BackgroundImageFix"/>
<feColorMatrix in="SourceAlpha" type="matrix" values="0 0 0 0 0 0 0 0 0 0 0 0 0 0 0 0 0 0 127 0" result="hardAlpha"/>
<feOffset/>
<feGaussianBlur stdDeviation="2.85714"/>
<feComposite in2="hardAlpha" operator="out"/>
<feColorMatrix type="matrix" values="0 0 0 0 0 0 0 0 0 0 0 0 0 0 0 0 0 0 0.25 0"/>
<feBlend mode="normal" in2="BackgroundImageFix" result="effect1_dropShadow_1_56"/>
<feBlend mode="normal" in="SourceGraphic" in2="effect1_dropShadow_1_56" result="shape"/>
</filter>
<linearGradient id="paint0_linear_1_56" x1="77.0007" y1="0" x2="77.0007" y2="40.0014" gradientUnits="userSpaceOnUse">
<stop stop-color="#1F0354"/>
<stop offset="0.0001" stop-color="#00566B"/>
<stop offset="1" stop-color="#002B36"/>
</linearGradient>
</defs>
</svg>
