<svg width="56" height="56" viewBox="0 0 56 56" fill="none" xmlns="http://www.w3.org/2000/svg">
<rect width="56" height="56" rx="8.4" fill="url(#paint0_linear_1_62)"/>
<rect x="1.05" y="1.05" width="53.9" height="53.9" rx="7.35" stroke="white" stroke-opacity="0.15" stroke-width="2.1"/>
<g filter="url(#filter0_d_1_62)">
<path d="M11.0187 25.025C10.9408 25.025 10.9213 24.986 10.9603 24.9276L11.3692 24.4018C11.4082 24.3433 11.5056 24.3044 11.5835 24.3044H18.5362C18.6141 24.3044 18.6335 24.3628 18.5946 24.4212L18.2635 24.9276C18.2246 24.986 18.1272 25.0444 18.0688 25.0444L11.0187 25.025Z" fill="#00ACD7"/>
<path d="M8.0779 26.8167C8 26.8167 7.98052 26.7778 8.01948 26.7193L8.42846 26.1935C8.46741 26.1351 8.56479 26.0961 8.64269 26.0961H17.5234C17.6014 26.0961 17.6403 26.1545 17.6208 26.213L17.465 26.6804C17.4455 26.7583 17.3676 26.7972 17.2897 26.7972L8.0779 26.8167Z" fill="#00ACD7"/>
<path d="M12.7909 28.6084C12.713 28.6084 12.6936 28.55 12.7325 28.4916L13.0052 28.0047C13.0441 27.9463 13.122 27.8878 13.1999 27.8878H17.095C17.1729 27.8878 17.2118 27.9463 17.2118 28.0242L17.1729 28.4916C17.1729 28.5695 17.095 28.6279 17.0366 28.6279L12.7909 28.6084Z" fill="#00ACD7"/>
<path d="M33.0064 24.6744C31.7794 24.986 30.942 25.2197 29.7345 25.5313C29.4424 25.6092 29.4229 25.6287 29.1697 25.3366C28.8776 25.0055 28.6634 24.7913 28.2544 24.5965C27.0274 23.9928 25.8394 24.1681 24.7293 24.8886C23.405 25.7456 22.7234 27.0115 22.7428 28.589C22.7623 30.147 23.8335 31.4324 25.372 31.6466C26.6963 31.8219 27.8064 31.3545 28.6828 30.3612C28.8581 30.147 29.0139 29.9133 29.2087 29.6406C28.5076 29.6406 27.6312 29.6406 25.4499 29.6406C25.0409 29.6406 24.9436 29.3874 25.0799 29.0564C25.3331 28.4526 25.8005 27.4399 26.0731 26.9336C26.1316 26.8167 26.2679 26.6219 26.56 26.6219C27.5533 26.6219 31.2146 26.6219 33.649 26.6219C33.6101 27.1478 33.6101 27.6736 33.5322 28.1995C33.318 29.6017 32.7921 30.887 31.9352 32.0166C30.533 33.8668 28.7023 35.0158 26.3847 35.3274C24.4762 35.5806 22.7039 35.2106 21.1459 34.0421C19.7047 32.9514 18.8867 31.5103 18.6725 29.7185C18.4193 27.5957 19.0425 25.6871 20.3279 24.0123C21.7107 22.201 23.5413 21.052 25.781 20.643C27.6117 20.3119 29.3645 20.5262 30.942 21.5973C31.9742 22.2789 32.7142 23.2138 33.2011 24.3433C33.318 24.5186 33.2401 24.616 33.0064 24.6744Z" fill="#00ACD7"/>
<path d="M39.4527 35.4443C37.6804 35.4053 36.064 34.899 34.7007 33.7305C33.5517 32.7372 32.8311 31.4713 32.5974 29.9717C32.2468 27.771 32.8506 25.8235 34.1749 24.0902C35.5966 22.2205 37.3104 21.2467 39.628 20.8378C41.6145 20.4872 43.4841 20.682 45.1785 21.831C46.717 22.8827 47.6713 24.3044 47.9245 26.174C48.2556 28.8032 47.496 30.9455 45.6848 32.7762C44.3994 34.081 42.8219 34.899 41.0107 35.269C40.4849 35.3664 39.9591 35.3859 39.4527 35.4443ZM44.0878 27.5762C44.0684 27.3231 44.0684 27.1283 44.0294 26.9336C43.6789 25.0055 41.9066 23.9149 40.0564 24.3433C38.2452 24.7523 37.0767 25.9014 36.6483 27.732C36.2977 29.2511 37.0378 30.7897 38.44 31.4129C39.5111 31.8803 40.5823 31.8219 41.6145 31.296C43.153 30.4975 43.9905 29.2511 44.0878 27.5762Z" fill="#00ACD7"/>
</g>
<defs>
<filter id="filter0_d_1_62" x="2.28571" y="2.28571" width="51.4286" height="51.4286" filterUnits="userSpaceOnUse" color-interpolation-filters="sRGB">
<feFlood flood-opacity="0" result="BackgroundImageFix"/>
<feColorMatrix in="SourceAlpha" type="matrix" values="0 0 0 0 0 0 0 0 0 0 0 0 0 0 0 0 0 0 127 0" result="hardAlpha"/>
<feOffset/>
<feGaussianBlur stdDeviation="2.85714"/>
<feComposite in2="hardAlpha" operator="out"/>
<feColorMatrix type="matrix" values="0 0 0 0 0 0 0 0 0 0 0 0 0 0 0 0 0 0 0.25 0"/>
<feBlend mode="normal" in2="BackgroundImageFix" result="effect1_dropShadow_1_62"/>
<feBlend mode="normal" in="SourceGraphic" in2="effect1_dropShadow_1_62" result="shape"/>
</filter>
<linearGradient id="paint0_linear_1_62" x1="28" y1="0" x2="28" y2="56" gradientUnits="userSpaceOnUse">
<stop stop-color="#00566B"/>
<stop offset="1" stop-color="#002B36"/>
</linearGradient>
</defs>
</svg>
