<svg width="144" height="56" viewBox="0 0 144 56" fill="none" xmlns="http://www.w3.org/2000/svg">
<rect width="144" height="56" rx="8" fill="url(#paint0_linear_1_50)"/>
<rect x="1.05" y="1.05" width="141.9" height="53.9" rx="6.95" stroke="white" stroke-opacity="0.15" stroke-width="2.1"/>
<g filter="url(#filter0_d_1_50)">
<path d="M15.0187 25.025C14.9408 25.025 14.9213 24.986 14.9603 24.9276L15.3692 24.4018C15.4082 24.3433 15.5056 24.3044 15.5835 24.3044H22.5362C22.6141 24.3044 22.6335 24.3628 22.5946 24.4212L22.2635 24.9276C22.2246 24.986 22.1272 25.0444 22.0688 25.0444L15.0187 25.025Z" fill="#00ACD7"/>
<path d="M12.0779 26.8167C12 26.8167 11.9805 26.7778 12.0195 26.7193L12.4285 26.1935C12.4674 26.1351 12.5648 26.0961 12.6427 26.0961H21.5234C21.6014 26.0961 21.6403 26.1545 21.6208 26.213L21.465 26.6804C21.4455 26.7583 21.3676 26.7972 21.2897 26.7972L12.0779 26.8167Z" fill="#00ACD7"/>
<path d="M16.7909 28.6084C16.713 28.6084 16.6936 28.55 16.7325 28.4916L17.0052 28.0047C17.0441 27.9463 17.122 27.8878 17.1999 27.8878H21.095C21.1729 27.8878 21.2118 27.9463 21.2118 28.0242L21.1729 28.4916C21.1729 28.5695 21.095 28.6279 21.0366 28.6279L16.7909 28.6084Z" fill="#00ACD7"/>
<path d="M37.0064 24.6744C35.7794 24.986 34.942 25.2197 33.7345 25.5313C33.4424 25.6092 33.4229 25.6287 33.1697 25.3366C32.8776 25.0055 32.6634 24.7913 32.2544 24.5965C31.0274 23.9928 29.8394 24.1681 28.7293 24.8886C27.405 25.7456 26.7234 27.0115 26.7429 28.589C26.7623 30.147 27.8335 31.4324 29.372 31.6466C30.6963 31.8219 31.8064 31.3545 32.6828 30.3612C32.8581 30.147 33.0139 29.9133 33.2087 29.6406C32.5076 29.6406 31.6312 29.6406 29.4499 29.6406C29.0409 29.6406 28.9436 29.3874 29.0799 29.0564C29.3331 28.4526 29.8005 27.4399 30.0731 26.9336C30.1316 26.8167 30.2679 26.6219 30.56 26.6219C31.5533 26.6219 35.2146 26.6219 37.649 26.6219C37.6101 27.1478 37.6101 27.6736 37.5322 28.1995C37.318 29.6017 36.7921 30.887 35.9352 32.0166C34.533 33.8668 32.7023 35.0158 30.3847 35.3274C28.4762 35.5806 26.7039 35.2106 25.1459 34.0421C23.7047 32.9514 22.8867 31.5103 22.6725 29.7185C22.4193 27.5957 23.0425 25.6871 24.3279 24.0123C25.7107 22.201 27.5413 21.052 29.781 20.643C31.6117 20.3119 33.3645 20.5262 34.942 21.5973C35.9742 22.2789 36.7142 23.2138 37.2011 24.3433C37.318 24.5186 37.2401 24.616 37.0064 24.6744Z" fill="#00ACD7"/>
<path d="M43.4527 35.4443C41.6804 35.4053 40.064 34.899 38.7007 33.7305C37.5517 32.7372 36.8311 31.4713 36.5974 29.9717C36.2468 27.771 36.8506 25.8235 38.1749 24.0902C39.5966 22.2205 41.3104 21.2467 43.628 20.8378C45.6145 20.4872 47.4841 20.682 49.1785 21.831C50.717 22.8827 51.6713 24.3044 51.9245 26.174C52.2556 28.8032 51.496 30.9455 49.6848 32.7762C48.3994 34.081 46.8219 34.899 45.0107 35.269C44.4849 35.3664 43.9591 35.3859 43.4527 35.4443ZM48.0878 27.5762C48.0684 27.3231 48.0684 27.1283 48.0294 26.9336C47.6789 25.0055 45.9066 23.9149 44.0564 24.3433C42.2452 24.7523 41.0767 25.9014 40.6483 27.732C40.2977 29.2511 41.0378 30.7897 42.44 31.4129C43.5111 31.8803 44.5823 31.8219 45.6145 31.296C47.153 30.4975 47.9905 29.2511 48.0878 27.5762Z" fill="#00ACD7"/>
</g>
<g filter="url(#filter1_d_1_50)">
<path d="M61.2784 24.5V12.8636H65.5398C66.3655 12.8636 67.0492 13 67.5909 13.2727C68.1326 13.5417 68.5379 13.9072 68.8068 14.3693C69.0757 14.8276 69.2102 15.3447 69.2102 15.9204C69.2102 16.4053 69.1212 16.8144 68.9432 17.1477C68.7651 17.4773 68.5265 17.7424 68.2273 17.9432C67.9318 18.1401 67.606 18.2841 67.25 18.375V18.4886C67.6363 18.5076 68.0132 18.6326 68.3807 18.8636C68.7519 19.0909 69.0587 19.4148 69.3011 19.8352C69.5435 20.2557 69.6648 20.767 69.6648 21.3693C69.6648 21.964 69.5246 22.4981 69.2443 22.9716C68.9678 23.4413 68.5398 23.8144 67.9602 24.0909C67.3807 24.3636 66.6401 24.5 65.7386 24.5H61.2784ZM63.0341 22.9943H65.5682C66.4091 22.9943 67.0113 22.8314 67.375 22.5057C67.7386 22.1799 67.9204 21.7727 67.9204 21.2841C67.9204 20.9167 67.8276 20.5795 67.642 20.2727C67.4564 19.9659 67.1913 19.7216 66.8466 19.5398C66.5057 19.3579 66.1004 19.267 65.6307 19.267H63.0341V22.9943ZM63.0341 17.8977H65.3863C65.7803 17.8977 66.1345 17.822 66.4488 17.6704C66.767 17.5189 67.0189 17.3068 67.2045 17.0341C67.3939 16.7576 67.4886 16.4318 67.4886 16.0568C67.4886 15.5758 67.3201 15.1723 66.9829 14.8466C66.6458 14.5208 66.1288 14.3579 65.4318 14.3579H63.0341V17.8977ZM77.1392 20.8807V15.7727H78.8437V24.5H77.1733V22.9886H77.0824C76.8816 23.4545 76.5596 23.8428 76.1165 24.1534C75.6771 24.4602 75.1297 24.6136 74.4744 24.6136C73.9138 24.6136 73.4176 24.4905 72.9858 24.2443C72.5577 23.9943 72.2206 23.625 71.9744 23.1364C71.732 22.6477 71.6108 22.0436 71.6108 21.3239V15.7727H73.3096V21.1193C73.3096 21.714 73.4744 22.1875 73.804 22.5398C74.1335 22.892 74.5615 23.0682 75.088 23.0682C75.4062 23.0682 75.7225 22.9886 76.0369 22.8295C76.3551 22.6704 76.6184 22.4299 76.8267 22.1079C77.0388 21.786 77.143 21.3769 77.1392 20.8807ZM81.1264 24.5V15.7727H82.8253V24.5H81.1264ZM81.9844 14.4261C81.6889 14.4261 81.4351 14.3276 81.223 14.1307C81.0147 13.9299 80.9105 13.6913 80.9105 13.4148C80.9105 13.1345 81.0147 12.8958 81.223 12.6989C81.4351 12.4981 81.6889 12.3977 81.9844 12.3977C82.2798 12.3977 82.5317 12.4981 82.74 12.6989C82.9522 12.8958 83.0582 13.1345 83.0582 13.4148C83.0582 13.6913 82.9522 13.9299 82.74 14.1307C82.5317 14.3276 82.2798 14.4261 81.9844 14.4261ZM86.8096 12.8636V24.5H85.1108V12.8636H86.8096ZM93.169 15.7727V17.1364H88.402V15.7727H93.169ZM89.6804 13.6818H91.3792V21.9375C91.3792 22.267 91.4285 22.5151 91.527 22.6818C91.6254 22.8447 91.7523 22.9564 91.9076 23.017C92.0667 23.0739 92.2391 23.1023 92.4247 23.1023C92.5611 23.1023 92.6804 23.0928 92.7826 23.0739C92.8849 23.0549 92.9645 23.0398 93.0213 23.0284L93.3281 24.4318C93.2296 24.4697 93.0895 24.5076 92.9076 24.5454C92.7258 24.5871 92.4986 24.6098 92.2258 24.6136C91.7789 24.6212 91.3622 24.5417 90.9758 24.375C90.5895 24.2083 90.277 23.9508 90.0383 23.6023C89.7997 23.2538 89.6804 22.8163 89.6804 22.2898V13.6818ZM101.175 24.5L98.6065 15.7727H100.362L102.072 22.1818H102.158L103.874 15.7727H105.629L107.334 22.1534H107.419L109.118 15.7727H110.874L108.311 24.5H106.578L104.805 18.1989H104.675L102.902 24.5H101.175ZM112.486 24.5V15.7727H114.185V24.5H112.486ZM113.344 14.4261C113.048 14.4261 112.794 14.3276 112.582 14.1307C112.374 13.9299 112.27 13.6913 112.27 13.4148C112.27 13.1345 112.374 12.8958 112.582 12.6989C112.794 12.4981 113.048 12.3977 113.344 12.3977C113.639 12.3977 113.891 12.4981 114.099 12.6989C114.312 12.8958 114.418 13.1345 114.418 13.4148C114.418 13.6913 114.312 13.9299 114.099 14.1307C113.891 14.3276 113.639 14.4261 113.344 14.4261ZM120.544 15.7727V17.1364H115.777V15.7727H120.544ZM117.055 13.6818H118.754V21.9375C118.754 22.267 118.803 22.5151 118.902 22.6818C119 22.8447 119.127 22.9564 119.283 23.017C119.442 23.0739 119.614 23.1023 119.8 23.1023C119.936 23.1023 120.055 23.0928 120.158 23.0739C120.26 23.0549 120.339 23.0398 120.396 23.0284L120.703 24.4318C120.605 24.4697 120.464 24.5076 120.283 24.5454C120.101 24.5871 119.874 24.6098 119.601 24.6136C119.154 24.6212 118.737 24.5417 118.351 24.375C117.964 24.2083 117.652 23.9508 117.413 23.6023C117.175 23.2538 117.055 22.8163 117.055 22.2898V13.6818ZM124.31 19.3182V24.5H122.611V12.8636H124.287V17.1932H124.395C124.599 16.7235 124.912 16.3504 125.332 16.0739C125.753 15.7973 126.302 15.6591 126.98 15.6591C127.579 15.6591 128.101 15.7822 128.548 16.0284C128.999 16.2746 129.348 16.642 129.594 17.1307C129.844 17.6155 129.969 18.2216 129.969 18.9489V24.5H128.27V19.1534C128.27 18.5133 128.105 18.017 127.776 17.6648C127.446 17.3087 126.988 17.1307 126.401 17.1307C125.999 17.1307 125.639 17.2159 125.321 17.3864C125.007 17.5568 124.758 17.8068 124.577 18.1364C124.399 18.4621 124.31 18.8561 124.31 19.3182Z" fill="#E8E8E8"/>
<path d="M69.0493 35.1751C68.9809 34.9215 68.8803 34.6981 68.7475 34.505C68.6147 34.3078 68.4517 34.1407 68.2585 34.0039C68.0653 33.8671 67.844 33.7644 67.5944 33.696C67.3449 33.6236 67.0712 33.5873 66.7734 33.5873C66.1738 33.5873 65.6546 33.7322 65.2159 34.022C64.7812 34.3118 64.4452 34.7344 64.2077 35.2898C63.9703 35.8411 63.8515 36.5112 63.8515 37.3001C63.8515 38.0929 63.9662 38.769 64.1957 39.3285C64.4251 39.8879 64.7571 40.3145 65.1917 40.6083C65.6264 40.9021 66.1536 41.049 66.7734 41.049C67.3208 41.049 67.7836 40.9605 68.1619 40.7834C68.5443 40.6023 68.834 40.3467 69.0312 40.0167C69.2284 39.6867 69.327 39.2983 69.327 38.8516L69.8824 38.918H66.876V36.7386H72.2067V38.3746C72.2067 39.4814 71.9712 40.4292 71.5003 41.218C71.0335 42.0069 70.3895 42.6126 69.5685 43.0351C68.7515 43.4577 67.8118 43.669 66.7493 43.669C65.5701 43.669 64.5337 43.4135 63.6403 42.9023C62.7468 42.3912 62.0505 41.6627 61.5515 40.717C61.0524 39.7672 60.8029 38.6403 60.8029 37.3363C60.8029 36.3221 60.9538 35.4226 61.2557 34.6378C61.5575 33.8489 61.9781 33.1809 62.5174 32.6335C63.0607 32.0862 63.6885 31.6716 64.4009 31.3899C65.1173 31.1082 65.888 30.9673 66.7131 30.9673C67.4294 30.9673 68.0955 31.0699 68.7113 31.2752C69.3311 31.4805 69.8784 31.7702 70.3533 32.1445C70.8322 32.5188 71.2206 32.9635 71.5184 33.4787C71.8163 33.9938 72.0014 34.5593 72.0738 35.1751H69.0493ZM78.2964 43.6751C77.3225 43.6751 76.4853 43.4758 75.785 43.0774C75.0888 42.6749 74.5515 42.1155 74.1732 41.3991C73.7989 40.6787 73.6118 39.8436 73.6118 38.8938C73.6118 37.94 73.7989 37.1049 74.1732 36.3885C74.5515 35.6681 75.0888 35.1087 75.785 34.7102C76.4853 34.3078 77.3225 34.1065 78.2964 34.1065C79.2704 34.1065 80.1055 34.3078 80.8017 34.7102C81.502 35.1087 82.0393 35.6681 82.4136 36.3885C82.7919 37.1049 82.9811 37.94 82.9811 38.8938C82.9811 39.8436 82.7919 40.6787 82.4136 41.3991C82.0393 42.1155 81.502 42.6749 80.8017 43.0774C80.1055 43.4758 79.2704 43.6751 78.2964 43.6751ZM78.3145 41.4474C78.6687 41.4474 78.9685 41.3388 79.214 41.1214C79.4595 40.9041 79.6467 40.6023 79.7755 40.2159C79.9083 39.8295 79.9747 39.3828 79.9747 38.8757C79.9747 38.3605 79.9083 37.9098 79.7755 37.5234C79.6467 37.1371 79.4595 36.8352 79.214 36.6179C78.9685 36.4006 78.6687 36.2919 78.3145 36.2919C77.9483 36.2919 77.6384 36.4006 77.3848 36.6179C77.1353 36.8352 76.9441 37.1371 76.8113 37.5234C76.6825 37.9098 76.6181 38.3605 76.6181 38.8757C76.6181 39.3828 76.6825 39.8295 76.8113 40.2159C76.9441 40.6023 77.1353 40.9041 77.3848 41.1214C77.6384 41.3388 77.9483 41.4474 78.3145 41.4474Z" fill="#00ACD7"/>
</g>
<defs>
<filter id="filter0_d_1_50" x="6.28571" y="2.28571" width="51.4286" height="51.4286" filterUnits="userSpaceOnUse" color-interpolation-filters="sRGB">
<feFlood flood-opacity="0" result="BackgroundImageFix"/>
<feColorMatrix in="SourceAlpha" type="matrix" values="0 0 0 0 0 0 0 0 0 0 0 0 0 0 0 0 0 0 127 0" result="hardAlpha"/>
<feOffset/>
<feGaussianBlur stdDeviation="2.85714"/>
<feComposite in2="hardAlpha" operator="out"/>
<feColorMatrix type="matrix" values="0 0 0 0 0 0 0 0 0 0 0 0 0 0 0 0 0 0 0.25 0"/>
<feBlend mode="normal" in2="BackgroundImageFix" result="effect1_dropShadow_1_50"/>
<feBlend mode="normal" in="SourceGraphic" in2="effect1_dropShadow_1_50" result="shape"/>
</filter>
<filter id="filter1_d_1_50" x="54.4" y="3.9" width="83.2" height="48.2" filterUnits="userSpaceOnUse" color-interpolation-filters="sRGB">
<feFlood flood-opacity="0" result="BackgroundImageFix"/>
<feColorMatrix in="SourceAlpha" type="matrix" values="0 0 0 0 0 0 0 0 0 0 0 0 0 0 0 0 0 0 127 0" result="hardAlpha"/>
<feOffset/>
<feGaussianBlur stdDeviation="2.8"/>
<feComposite in2="hardAlpha" operator="out"/>
<feColorMatrix type="matrix" values="0 0 0 0 0 0 0 0 0 0 0 0 0 0 0 0 0 0 0.25 0"/>
<feBlend mode="normal" in2="BackgroundImageFix" result="effect1_dropShadow_1_50"/>
<feBlend mode="normal" in="SourceGraphic" in2="effect1_dropShadow_1_50" result="shape"/>
</filter>
<linearGradient id="paint0_linear_1_50" x1="72" y1="0" x2="72" y2="56" gradientUnits="userSpaceOnUse">
<stop stop-color="#00566B"/>
<stop offset="1" stop-color="#002B36"/>
</linearGradient>
</defs>
</svg>
