<svg width="40" height="40" viewBox="0 0 40 40" fill="none" xmlns="http://www.w3.org/2000/svg">
<rect width="40" height="40" rx="8" fill="url(#paint0_linear_1_68)"/>
<rect x="1.05" y="1.05" width="37.9" height="37.9" rx="6.95" stroke="white" stroke-opacity="0.15" stroke-width="2.1"/>
<g filter="url(#filter0_d_1_68)">
<path d="M31.0192 14.9237C30.9625 14.8634 30.9023 14.8032 30.842 14.7465C30.7818 14.6897 30.7251 14.626 30.6648 14.5692C30.6046 14.5125 30.5478 14.4487 30.4876 14.392C30.4273 14.3353 30.3706 14.2715 30.3104 14.2148C30.2501 14.1581 30.1934 14.0943 30.1332 14.0376C30.0729 13.9809 30.0162 13.9171 29.9559 13.8604C29.8957 13.8037 29.839 13.7399 29.7787 13.6832C31.5368 15.4109 32.5439 17.7613 32.5823 20.226C32.5823 26.0989 26.6208 30.8766 19.2911 30.8766C15.1868 30.8766 11.5149 29.3773 9.07291 27.0275L9.25013 27.2047L9.42734 27.3819L9.60456 27.5591L9.78177 27.7363L9.95899 27.9135L10.1362 28.0908L10.3134 28.268C12.7519 30.7171 16.5053 32.2943 20.7089 32.2943C28.0385 32.2943 34 27.5166 34 21.6614C34 19.1591 32.9225 16.788 31.0192 14.9237Z" fill="black"/>
<path d="M31.6962 20.226C31.6962 25.6168 26.1423 29.987 19.2911 29.987C12.44 29.987 6.88608 25.6168 6.88608 20.226C6.88608 16.8837 9.01266 13.9313 12.2805 12.1804C15.5484 10.4295 17.5828 8.63608 19.2911 8.63608C20.9995 8.63608 22.4597 10.0999 26.3018 12.1804C29.5696 13.9313 31.6962 16.8837 31.6962 20.226Z" fill="#FBF0DF"/>
<path d="M31.6962 20.2259C31.6945 19.5334 31.5991 18.8443 31.4127 18.1773C30.4451 29.9799 16.0481 30.547 10.3878 27.0168C12.9323 28.989 16.0722 30.0365 19.2911 29.987C26.1316 29.987 31.6962 25.6097 31.6962 20.2259Z" fill="#F6DECE"/>
<path d="M14.517 11.5318C16.1013 10.5819 18.2066 8.79912 20.2765 8.79557C19.958 8.69264 19.6258 8.63886 19.2911 8.63608C18.4334 8.63608 17.519 9.07912 16.3671 9.74544C15.9666 9.97937 15.5519 10.2381 15.1124 10.5075C14.2866 11.0178 13.3403 11.5956 12.277 12.1733C8.90278 13.9986 6.88608 17.0077 6.88608 20.226C6.88608 20.3677 6.88608 20.5095 6.88608 20.6477C9.03392 13.0594 12.9362 12.4816 14.517 11.5318Z" fill="#FFFEFC"/>
<path fill-rule="evenodd" clip-rule="evenodd" d="M18.2704 9.53278C18.2753 10.3697 18.0996 11.1978 17.7553 11.9605C17.4109 12.7233 16.9059 13.4028 16.2749 13.9525C16.1757 14.0411 16.2537 14.2113 16.3813 14.1616C17.5757 13.6973 19.1884 12.308 18.5078 9.50443C18.4795 9.34494 18.2704 9.38747 18.2704 9.53278ZM19.0749 9.53278C19.5086 10.2404 19.7841 11.0334 19.8826 11.8574C19.9811 12.6815 19.9003 13.5171 19.6456 14.307C19.603 14.431 19.7554 14.5373 19.8405 14.4346C20.6167 13.4422 21.2937 11.4715 19.2663 9.34494C19.1635 9.25278 19.004 9.39456 19.0749 9.51861V9.53278ZM20.0532 9.47253C20.7323 9.95334 21.3004 10.5742 21.7193 11.2932C22.1381 12.0122 22.3978 12.8127 22.481 13.6406C22.4774 13.6705 22.4855 13.7005 22.5034 13.7246C22.5214 13.7487 22.548 13.7649 22.5776 13.7699C22.6072 13.7749 22.6377 13.7684 22.6626 13.7515C22.6875 13.7347 22.705 13.709 22.7114 13.6796C23.0375 12.4427 22.8532 10.3338 20.1701 9.23861C20.0284 9.1819 19.9362 9.37329 20.0532 9.45835V9.47253ZM13.5104 13.1586C14.3182 12.9173 15.0662 12.5085 15.7055 11.9589C16.3449 11.4093 16.8614 10.7312 17.2213 9.96873C17.2851 9.84114 17.4871 9.89076 17.4552 10.0325C16.842 12.868 14.7899 13.4599 13.5139 13.3819C13.3792 13.3854 13.3828 13.1976 13.5104 13.1586Z" fill="#CCBEA7"/>
<path d="M19.2911 30.8766C11.9615 30.8766 6 26.0989 6 20.2259C6 16.6816 8.19038 13.3748 11.8587 11.3935C12.922 10.8265 13.8329 10.2558 14.6446 9.75608C15.0911 9.47962 15.5129 9.22089 15.9205 8.97987C17.1646 8.24266 18.2278 7.75 19.2911 7.75C20.3544 7.75 21.283 8.17532 22.4456 8.86291C22.8 9.06494 23.1544 9.28468 23.5337 9.5257C24.4162 10.0715 25.4122 10.6882 26.7235 11.3935C30.3919 13.3748 32.5823 16.6781 32.5823 20.2259C32.5823 26.0989 26.6208 30.8766 19.2911 30.8766ZM19.2911 8.63608C18.4334 8.63608 17.519 9.07911 16.3671 9.74544C15.9666 9.97937 15.5519 10.2381 15.1124 10.5075C14.2866 11.0178 13.3403 11.5956 12.277 12.1733C8.90278 13.9986 6.88608 17.0077 6.88608 20.2259C6.88608 25.6097 12.4506 29.9905 19.2911 29.9905C26.1316 29.9905 31.6962 25.6097 31.6962 20.2259C31.6962 17.0077 29.6795 13.9986 26.3018 12.1804C24.962 11.4715 23.9165 10.8052 23.0694 10.2806C22.683 10.0432 22.3286 9.82342 22.0061 9.62848C20.9322 8.99051 20.1489 8.63608 19.2911 8.63608Z" fill="black"/>
<path d="M21.7899 22.8133C21.6307 23.4654 21.2682 24.05 20.7549 24.4827C20.3696 24.8562 19.8707 25.0907 19.3372 25.149C18.7877 25.0999 18.2713 24.8649 17.8734 24.4827C17.3654 24.048 17.008 23.4636 16.8527 22.8133C16.8475 22.7747 16.8513 22.7354 16.8636 22.6985C16.876 22.6615 16.8967 22.6279 16.924 22.6002C16.9514 22.5725 16.9848 22.5514 17.0215 22.5386C17.0583 22.5258 17.0975 22.5215 17.1362 22.5262H21.5099C21.5483 22.5221 21.5871 22.5268 21.6234 22.5399C21.6597 22.553 21.6926 22.5741 21.7196 22.6018C21.7465 22.6294 21.7668 22.6628 21.779 22.6995C21.7912 22.7361 21.7949 22.775 21.7899 22.8133Z" fill="#B71422"/>
<path d="M17.8734 24.511C18.2705 24.8934 18.785 25.1307 19.3337 25.1844C19.8811 25.1299 20.3942 24.8927 20.7904 24.511C20.9171 24.3929 21.0355 24.2662 21.1448 24.1318C20.9265 23.8841 20.6598 23.6837 20.3611 23.5429C20.0624 23.4021 19.7381 23.3238 19.4081 23.313C19.055 23.3214 18.7092 23.4154 18.4005 23.5871C18.0918 23.7587 17.8294 24.0028 17.6359 24.2983C17.7175 24.3728 17.7883 24.4437 17.8734 24.511Z" fill="#FF6164"/>
<path d="M17.9301 24.231C18.1058 24.0039 18.3308 23.8195 18.588 23.6918C18.8452 23.5642 19.128 23.4964 19.4152 23.4938C19.946 23.5094 20.4517 23.7231 20.8329 24.0928C20.9144 24.0042 20.9924 23.912 21.0668 23.8199C20.6159 23.3904 20.02 23.1463 19.3975 23.1358C19.0647 23.1387 18.7368 23.2152 18.4371 23.3598C18.1375 23.5044 17.8735 23.7136 17.6643 23.9723C17.7481 24.0633 17.8368 24.1497 17.9301 24.231Z" fill="black"/>
<path d="M19.323 25.3616C18.7324 25.3099 18.1766 25.0601 17.7458 24.6528C17.1972 24.1887 16.811 23.5617 16.6435 22.8629C16.6315 22.8007 16.6336 22.7366 16.6495 22.6753C16.6655 22.6139 16.6949 22.557 16.7357 22.5085C16.7843 22.4498 16.8456 22.403 16.915 22.3717C16.9844 22.3404 17.0601 22.3253 17.1362 22.3277H21.5099C21.5859 22.3261 21.6613 22.3415 21.7306 22.3728C21.7999 22.4041 21.8613 22.4504 21.9104 22.5085C21.9508 22.5571 21.9797 22.6143 21.995 22.6756C22.0104 22.737 22.0117 22.801 21.999 22.8629C21.8315 23.5617 21.4453 24.1887 20.8967 24.6528C20.4668 25.0594 19.9124 25.3091 19.323 25.3616ZM17.1362 22.7389C17.0795 22.7389 17.0653 22.7637 17.0618 22.7708C17.2116 23.3767 17.5505 23.9192 18.0294 24.3196C18.3795 24.6646 18.8348 24.8829 19.323 24.9399C19.81 24.8835 20.2648 24.668 20.6167 24.3267C21.0941 23.9256 21.4317 23.3833 21.5808 22.7778C21.573 22.7665 21.5623 22.7575 21.5498 22.7519C21.5373 22.7463 21.5235 22.7442 21.5099 22.7459L17.1362 22.7389Z" fill="black"/>
<path d="M24.6856 23.033C25.8307 23.033 26.759 22.4872 26.759 21.8138C26.759 21.1404 25.8307 20.5946 24.6856 20.5946C23.5405 20.5946 22.6122 21.1404 22.6122 21.8138C22.6122 22.4872 23.5405 23.033 24.6856 23.033Z" fill="#FEBBD0"/>
<path d="M13.957 23.033C15.1021 23.033 16.0304 22.4872 16.0304 21.8138C16.0304 21.1404 15.1021 20.5946 13.957 20.5946C12.8118 20.5946 11.8835 21.1404 11.8835 21.8138C11.8835 22.4872 12.8118 23.033 13.957 23.033Z" fill="#FEBBD0"/>
<path fill-rule="evenodd" clip-rule="evenodd" d="M14.9316 21.3247C15.318 21.3254 15.696 21.2114 16.0176 20.9973C16.3392 20.7831 16.5901 20.4784 16.7384 20.1216C16.8868 19.7648 16.926 19.372 16.851 18.993C16.7761 18.6139 16.5903 18.2656 16.3174 17.9921C16.0444 17.7186 15.6964 17.5323 15.3175 17.4566C14.9386 17.381 14.5457 17.4195 14.1887 17.5672C13.8316 17.7149 13.5264 17.9652 13.3117 18.2864C13.0969 18.6077 12.9823 18.9854 12.9823 19.3718C12.9823 19.8891 13.1875 20.3853 13.553 20.7514C13.9185 21.1176 14.4143 21.3237 14.9316 21.3247ZM23.7109 21.3247C24.0977 21.3275 24.4767 21.2153 24.7997 21.0025C25.1227 20.7896 25.3752 20.4856 25.5252 20.129C25.6752 19.7724 25.7159 19.3793 25.6422 18.9995C25.5684 18.6198 25.3836 18.2705 25.111 17.9959C24.8385 17.7214 24.4905 17.534 24.1113 17.4575C23.7321 17.381 23.3387 17.4188 22.981 17.5662C22.6234 17.7136 22.3175 17.9639 22.1023 18.2853C21.8871 18.6068 21.7722 18.9849 21.7722 19.3718C21.7712 19.8876 21.9747 20.3827 22.3381 20.7487C22.7015 21.1148 23.1951 21.3219 23.7109 21.3247Z" fill="black"/>
<path fill-rule="evenodd" clip-rule="evenodd" d="M14.3291 19.4958C14.4744 19.4965 14.6166 19.4541 14.7377 19.3739C14.8588 19.2937 14.9534 19.1794 15.0095 19.0454C15.0655 18.9114 15.0806 18.7638 15.0527 18.6212C15.0248 18.4787 14.9552 18.3476 14.8527 18.2446C14.7502 18.1417 14.6195 18.0714 14.4771 18.0428C14.3347 18.0142 14.187 18.0286 14.0527 18.084C13.9185 18.1394 13.8037 18.2335 13.7229 18.3542C13.6421 18.4749 13.599 18.6169 13.599 18.7622C13.599 18.9561 13.6758 19.1422 13.8126 19.2797C13.9494 19.4172 14.1351 19.4949 14.3291 19.4958ZM23.1084 19.4958C23.2536 19.4965 23.3958 19.4541 23.5169 19.3739C23.638 19.2937 23.7326 19.1794 23.7887 19.0454C23.8448 18.9114 23.8598 18.7638 23.8319 18.6212C23.804 18.4787 23.7344 18.3476 23.6319 18.2446C23.5295 18.1417 23.3988 18.0714 23.2563 18.0428C23.1139 18.0142 22.9662 18.0286 22.832 18.084C22.6977 18.1394 22.5829 18.2335 22.5021 18.3542C22.4213 18.4749 22.3782 18.6169 22.3782 18.7622C22.3782 18.9549 22.454 19.1399 22.5893 19.2772C22.7246 19.4145 22.9085 19.493 23.1013 19.4958H23.1084Z" fill="white"/>
</g>
<defs>
<filter id="filter0_d_1_68" x="2" y="2" width="36" height="36" filterUnits="userSpaceOnUse" color-interpolation-filters="sRGB">
<feFlood flood-opacity="0" result="BackgroundImageFix"/>
<feColorMatrix in="SourceAlpha" type="matrix" values="0 0 0 0 0 0 0 0 0 0 0 0 0 0 0 0 0 0 127 0" result="hardAlpha"/>
<feOffset/>
<feGaussianBlur stdDeviation="2"/>
<feComposite in2="hardAlpha" operator="out"/>
<feColorMatrix type="matrix" values="0 0 0 0 0 0 0 0 0 0 0 0 0 0 0 0 0 0 0.25 0"/>
<feBlend mode="normal" in2="BackgroundImageFix" result="effect1_dropShadow_1_68"/>
<feBlend mode="normal" in="SourceGraphic" in2="effect1_dropShadow_1_68" result="shape"/>
</filter>
<linearGradient id="paint0_linear_1_68" x1="20" y1="0" x2="20" y2="40" gradientUnits="userSpaceOnUse">
<stop stop-color="#947C56"/>
<stop offset="1" stop-color="#6A593D"/>
</linearGradient>
</defs>
</svg>
