<svg width="162" height="40" viewBox="0 0 162 40" fill="none" xmlns="http://www.w3.org/2000/svg">
<rect width="162.001" height="40.0014" rx="8" fill="url(#paint0_linear_1_56)"/>
<rect x="1.07143" y="1.07143" width="159.859" height="37.8585" rx="6.92857" stroke="white" stroke-opacity="0.15" stroke-width="2.14286"/>
<g filter="url(#filter0_d_1_56)">
<path d="M33.0192 14.9237C32.9625 14.8634 32.9023 14.8032 32.842 14.7465C32.7818 14.6897 32.7251 14.626 32.6648 14.5692C32.6046 14.5125 32.5478 14.4487 32.4876 14.392C32.4273 14.3353 32.3706 14.2715 32.3104 14.2148C32.2501 14.1581 32.1934 14.0943 32.1332 14.0376C32.0729 13.9809 32.0162 13.9171 31.956 13.8604C31.8957 13.8037 31.839 13.7399 31.7787 13.6832C33.5368 15.4109 34.5439 17.7613 34.5823 20.226C34.5823 26.0989 28.6208 30.8766 21.2911 30.8766C17.1868 30.8766 13.5149 29.3773 11.0729 27.0275L11.2501 27.2047L11.4273 27.3819L11.6046 27.5591L11.7818 27.7363L11.959 27.9135L12.1362 28.0908L12.3134 28.268C14.7519 30.7171 18.5053 32.2943 22.7089 32.2943C30.0385 32.2943 36 27.5166 36 21.6614C36 19.1591 34.9225 16.788 33.0192 14.9237Z" fill="black"/>
<path d="M33.6962 20.226C33.6962 25.6168 28.1423 29.987 21.2911 29.987C14.44 29.987 8.88608 25.6168 8.88608 20.226C8.88608 16.8837 11.0127 13.9313 14.2805 12.1804C17.5484 10.4295 19.5828 8.63608 21.2911 8.63608C22.9995 8.63608 24.4597 10.0999 28.3018 12.1804C31.5696 13.9313 33.6962 16.8837 33.6962 20.226Z" fill="#FBF0DF"/>
<path d="M33.6962 20.2259C33.6945 19.5334 33.5991 18.8443 33.4127 18.1773C32.4451 29.9799 18.0481 30.547 12.3878 27.0168C14.9323 28.989 18.0722 30.0365 21.2911 29.987C28.1316 29.987 33.6962 25.6097 33.6962 20.2259Z" fill="#F6DECE"/>
<path d="M16.517 11.5318C18.1013 10.5819 20.2066 8.79912 22.2765 8.79557C21.958 8.69264 21.6258 8.63886 21.2911 8.63608C20.4334 8.63608 19.519 9.07912 18.3671 9.74544C17.9666 9.97937 17.5519 10.2381 17.1124 10.5075C16.2866 11.0178 15.3403 11.5956 14.277 12.1733C10.9028 13.9986 8.88608 17.0077 8.88608 20.226C8.88608 20.3677 8.88608 20.5095 8.88608 20.6477C11.0339 13.0594 14.9362 12.4816 16.517 11.5318Z" fill="#FFFEFC"/>
<path fill-rule="evenodd" clip-rule="evenodd" d="M20.2704 9.53278C20.2753 10.3697 20.0996 11.1978 19.7553 11.9605C19.4109 12.7233 18.9059 13.4028 18.2749 13.9525C18.1757 14.0411 18.2537 14.2113 18.3813 14.1616C19.5757 13.6973 21.1884 12.308 20.5078 9.50443C20.4795 9.34494 20.2704 9.38747 20.2704 9.53278ZM21.0749 9.53278C21.5086 10.2404 21.7841 11.0334 21.8826 11.8574C21.9811 12.6815 21.9003 13.5171 21.6456 14.307C21.603 14.431 21.7554 14.5373 21.8405 14.4346C22.6167 13.4422 23.2937 11.4715 21.2663 9.34494C21.1635 9.25278 21.004 9.39456 21.0749 9.51861V9.53278ZM22.0532 9.47253C22.7323 9.95334 23.3004 10.5742 23.7193 11.2932C24.1381 12.0122 24.3978 12.8127 24.481 13.6406C24.4774 13.6705 24.4855 13.7005 24.5034 13.7246C24.5214 13.7487 24.548 13.7649 24.5776 13.7699C24.6072 13.7749 24.6377 13.7684 24.6626 13.7515C24.6875 13.7347 24.705 13.709 24.7114 13.6796C25.0375 12.4427 24.8532 10.3338 22.1701 9.23861C22.0284 9.1819 21.9362 9.37329 22.0532 9.45835V9.47253ZM15.5104 13.1586C16.3182 12.9173 17.0662 12.5085 17.7055 11.9589C18.3449 11.4093 18.8614 10.7312 19.2213 9.96873C19.2851 9.84114 19.4871 9.89076 19.4552 10.0325C18.842 12.868 16.7899 13.4599 15.5139 13.3819C15.3792 13.3854 15.3828 13.1976 15.5104 13.1586Z" fill="#CCBEA7"/>
<path d="M21.2911 30.8766C13.9615 30.8766 8 26.0989 8 20.2259C8 16.6816 10.1904 13.3748 13.8587 11.3935C14.922 10.8265 15.8329 10.2558 16.6446 9.75608C17.0911 9.47962 17.5129 9.22089 17.9205 8.97987C19.1646 8.24266 20.2278 7.75 21.2911 7.75C22.3544 7.75 23.283 8.17532 24.4456 8.86291C24.8 9.06494 25.1544 9.28468 25.5337 9.5257C26.4162 10.0715 27.4122 10.6882 28.7235 11.3935C32.3919 13.3748 34.5823 16.6781 34.5823 20.2259C34.5823 26.0989 28.6208 30.8766 21.2911 30.8766ZM21.2911 8.63608C20.4334 8.63608 19.519 9.07911 18.3671 9.74544C17.9666 9.97937 17.5519 10.2381 17.1124 10.5075C16.2866 11.0178 15.3403 11.5956 14.277 12.1733C10.9028 13.9986 8.88608 17.0077 8.88608 20.2259C8.88608 25.6097 14.4506 29.9905 21.2911 29.9905C28.1316 29.9905 33.6962 25.6097 33.6962 20.2259C33.6962 17.0077 31.6795 13.9986 28.3018 12.1804C26.962 11.4715 25.9165 10.8052 25.0694 10.2806C24.683 10.0432 24.3286 9.82342 24.0061 9.62848C22.9322 8.99051 22.1489 8.63608 21.2911 8.63608Z" fill="black"/>
<path d="M23.7899 22.8133C23.6307 23.4654 23.2682 24.05 22.7549 24.4827C22.3696 24.8562 21.8707 25.0907 21.3372 25.149C20.7877 25.0999 20.2713 24.8649 19.8734 24.4827C19.3654 24.048 19.008 23.4636 18.8527 22.8133C18.8475 22.7747 18.8513 22.7354 18.8636 22.6985C18.876 22.6615 18.8967 22.6279 18.924 22.6002C18.9514 22.5725 18.9848 22.5514 19.0215 22.5386C19.0583 22.5258 19.0975 22.5215 19.1362 22.5262H23.5099C23.5483 22.5221 23.5871 22.5268 23.6234 22.5399C23.6597 22.553 23.6926 22.5741 23.7196 22.6018C23.7465 22.6294 23.7668 22.6628 23.779 22.6995C23.7912 22.7361 23.7949 22.775 23.7899 22.8133Z" fill="#B71422"/>
<path d="M19.8734 24.511C20.2705 24.8934 20.785 25.1307 21.3337 25.1844C21.8811 25.1299 22.3942 24.8927 22.7904 24.511C22.9171 24.3929 23.0355 24.2662 23.1448 24.1318C22.9265 23.8841 22.6598 23.6837 22.3611 23.5429C22.0624 23.4021 21.7381 23.3238 21.4081 23.313C21.055 23.3214 20.7092 23.4154 20.4005 23.5871C20.0918 23.7587 19.8294 24.0028 19.6359 24.2983C19.7175 24.3728 19.7884 24.4437 19.8734 24.511Z" fill="#FF6164"/>
<path d="M19.9301 24.231C20.1058 24.0039 20.3308 23.8195 20.588 23.6918C20.8452 23.5642 21.128 23.4964 21.4152 23.4938C21.946 23.5094 22.4517 23.7231 22.8329 24.0928C22.9144 24.0042 22.9924 23.912 23.0668 23.8199C22.6159 23.3904 22.02 23.1463 21.3975 23.1358C21.0647 23.1387 20.7368 23.2152 20.4371 23.3598C20.1375 23.5044 19.8736 23.7136 19.6643 23.9723C19.7481 24.0633 19.8368 24.1497 19.9301 24.231Z" fill="black"/>
<path d="M21.323 25.3616C20.7324 25.3099 20.1766 25.0601 19.7458 24.6528C19.1972 24.1887 18.811 23.5617 18.6435 22.8629C18.6315 22.8007 18.6336 22.7366 18.6495 22.6753C18.6655 22.6139 18.6949 22.557 18.7357 22.5085C18.7843 22.4498 18.8456 22.403 18.915 22.3717C18.9844 22.3404 19.0601 22.3253 19.1362 22.3277H23.5099C23.5859 22.3261 23.6613 22.3415 23.7306 22.3728C23.7999 22.4041 23.8613 22.4504 23.9104 22.5085C23.9508 22.5571 23.9797 22.6143 23.995 22.6756C24.0104 22.737 24.0117 22.801 23.999 22.8629C23.8315 23.5617 23.4453 24.1887 22.8967 24.6528C22.4668 25.0594 21.9124 25.3091 21.323 25.3616ZM19.1362 22.7389C19.0795 22.7389 19.0653 22.7637 19.0618 22.7708C19.2116 23.3767 19.5505 23.9192 20.0294 24.3196C20.3795 24.6646 20.8348 24.8829 21.323 24.9399C21.81 24.8835 22.2648 24.668 22.6167 24.3267C23.0941 23.9256 23.4317 23.3833 23.5808 22.7778C23.573 22.7665 23.5623 22.7575 23.5498 22.7519C23.5373 22.7463 23.5235 22.7442 23.5099 22.7459L19.1362 22.7389Z" fill="black"/>
<path d="M26.6856 23.033C27.8307 23.033 28.759 22.4872 28.759 21.8138C28.759 21.1404 27.8307 20.5946 26.6856 20.5946C25.5405 20.5946 24.6122 21.1404 24.6122 21.8138C24.6122 22.4872 25.5405 23.033 26.6856 23.033Z" fill="#FEBBD0"/>
<path d="M15.957 23.033C17.1021 23.033 18.0304 22.4872 18.0304 21.8138C18.0304 21.1404 17.1021 20.5946 15.957 20.5946C14.8118 20.5946 13.8835 21.1404 13.8835 21.8138C13.8835 22.4872 14.8118 23.033 15.957 23.033Z" fill="#FEBBD0"/>
<path fill-rule="evenodd" clip-rule="evenodd" d="M16.9317 21.3247C17.3181 21.3254 17.696 21.2114 18.0176 20.9973C18.3392 20.7831 18.5901 20.4784 18.7384 20.1216C18.8868 19.7648 18.926 19.372 18.851 18.993C18.7761 18.6139 18.5903 18.2656 18.3174 17.9921C18.0444 17.7186 17.6964 17.5323 17.3175 17.4566C16.9386 17.381 16.5457 17.4195 16.1887 17.5672C15.8316 17.7149 15.5264 17.9652 15.3117 18.2864C15.0969 18.6077 14.9823 18.9854 14.9823 19.3718C14.9823 19.8891 15.1875 20.3853 15.553 20.7514C15.9185 21.1176 16.4143 21.3237 16.9317 21.3247ZM25.7109 21.3247C26.0977 21.3275 26.4767 21.2153 26.7997 21.0025C27.1227 20.7896 27.3752 20.4856 27.5252 20.129C27.6752 19.7724 27.7159 19.3793 27.6422 18.9995C27.5684 18.6198 27.3836 18.2705 27.111 17.9959C26.8385 17.7214 26.4905 17.534 26.1113 17.4575C25.7321 17.381 25.3387 17.4188 24.981 17.5662C24.6234 17.7136 24.3175 17.9639 24.1023 18.2853C23.8871 18.6068 23.7722 18.9849 23.7722 19.3718C23.7712 19.8876 23.9747 20.3827 24.3381 20.7487C24.7015 21.1148 25.1951 21.3219 25.7109 21.3247Z" fill="black"/>
<path fill-rule="evenodd" clip-rule="evenodd" d="M16.3291 19.4958C16.4744 19.4965 16.6166 19.4541 16.7377 19.3739C16.8588 19.2937 16.9534 19.1794 17.0095 19.0454C17.0655 18.9114 17.0806 18.7638 17.0527 18.6212C17.0248 18.4787 16.9552 18.3476 16.8527 18.2446C16.7502 18.1417 16.6195 18.0714 16.4771 18.0428C16.3347 18.0142 16.187 18.0286 16.0527 18.084C15.9184 18.1394 15.8037 18.2335 15.7229 18.3542C15.6421 18.4749 15.599 18.6169 15.599 18.7622C15.599 18.9561 15.6758 19.1422 15.8126 19.2797C15.9494 19.4172 16.1351 19.4949 16.3291 19.4958ZM25.1084 19.4958C25.2536 19.4965 25.3958 19.4541 25.5169 19.3739C25.638 19.2937 25.7326 19.1794 25.7887 19.0454C25.8448 18.9114 25.8598 18.7638 25.8319 18.6212C25.804 18.4787 25.7344 18.3476 25.6319 18.2446C25.5295 18.1417 25.3987 18.0714 25.2563 18.0428C25.1139 18.0142 24.9662 18.0286 24.832 18.084C24.6977 18.1394 24.5829 18.2335 24.5021 18.3542C24.4213 18.4749 24.3782 18.6169 24.3782 18.7622C24.3782 18.9549 24.454 19.1399 24.5893 19.2772C24.7246 19.4145 24.9085 19.493 25.1013 19.4958H25.1084Z" fill="white"/>
</g>
<g filter="url(#filter1_d_1_56)">
<path d="M50.103 17.3849C50.0386 16.8134 49.7729 16.3707 49.3061 16.0568C48.8392 15.7389 48.2516 15.5799 47.5433 15.5799C47.0362 15.5799 46.5975 15.6604 46.2272 15.8214C45.857 15.9783 45.5692 16.1957 45.364 16.4734C45.1627 16.747 45.0621 17.0589 45.0621 17.4091C45.0621 17.7029 45.1305 17.9564 45.2674 18.1697C45.4082 18.383 45.5914 18.5621 45.8167 18.707C46.0461 18.8479 46.2916 18.9666 46.5532 19.0632C46.8148 19.1558 47.0664 19.2322 47.3079 19.2926L48.5152 19.6065C48.9097 19.7031 49.3141 19.8339 49.7287 19.9989C50.1432 20.1639 50.5276 20.3813 50.8817 20.6509C51.2359 20.9206 51.5216 21.2546 51.739 21.653C51.9603 22.0515 52.071 22.5284 52.071 23.0838C52.071 23.7841 51.8899 24.4059 51.5277 24.9492C51.1695 25.4925 50.6483 25.9212 49.9641 26.2351C49.2839 26.549 48.4609 26.706 47.495 26.706C46.5693 26.706 45.7684 26.5591 45.0923 26.2653C44.4162 25.9715 43.8869 25.5549 43.5046 25.0156C43.1223 24.4723 42.911 23.8283 42.8707 23.0838H44.7422C44.7784 23.5305 44.9233 23.9028 45.1768 24.2006C45.4344 24.4944 45.7624 24.7138 46.1608 24.8587C46.5633 24.9995 47.004 25.0699 47.4829 25.0699C48.0102 25.0699 48.479 24.9874 48.8895 24.8224C49.3041 24.6534 49.6301 24.42 49.8675 24.1221C50.105 23.8203 50.2237 23.4681 50.2237 23.0657C50.2237 22.6994 50.1191 22.3996 49.9098 22.1662C49.7045 21.9328 49.4248 21.7396 49.0706 21.5866C48.7205 21.4337 48.3241 21.2989 47.8814 21.1822L46.4204 20.7837C45.4304 20.5141 44.6456 20.1176 44.066 19.5944C43.4905 19.0712 43.2027 18.379 43.2027 17.5177C43.2027 16.8054 43.3959 16.1836 43.7823 15.6523C44.1687 15.1211 44.6919 14.7086 45.3519 14.4148C46.0119 14.1169 46.7565 13.968 47.5856 13.968C48.4227 13.968 49.1612 14.1149 49.8011 14.4087C50.445 14.7025 50.9522 15.107 51.3224 15.6221C51.6927 16.1333 51.8859 16.7209 51.902 17.3849H50.103ZM60.0292 22.6552V17.228H61.8403V26.5007H60.0654V24.8949H59.9688C59.7555 25.3899 59.4134 25.8024 58.9425 26.1324C58.4757 26.4584 57.8941 26.6214 57.1979 26.6214C56.6022 26.6214 56.075 26.4906 55.6162 26.229C55.1614 25.9634 54.8032 25.571 54.5416 25.0518C54.284 24.5327 54.1552 23.8907 54.1552 23.1261V17.228H55.9603V22.9087C55.9603 23.5406 56.1354 24.0437 56.4855 24.418C56.8356 24.7922 57.2904 24.9794 57.8498 24.9794C58.1879 24.9794 58.524 24.8949 58.858 24.7258C59.1961 24.5568 59.4758 24.3012 59.6971 23.9591C59.9225 23.6171 60.0332 23.1824 60.0292 22.6552ZM64.2656 29.978V17.228H66.0284V18.7312H66.1793C66.2839 18.538 66.4349 18.3146 66.6321 18.0611C66.8293 17.8075 67.103 17.5862 67.4531 17.397C67.8032 17.2038 68.2661 17.1072 68.8416 17.1072C69.5902 17.1072 70.2583 17.2964 70.8458 17.6747C71.4334 18.053 71.8943 18.5984 72.2283 19.3107C72.5664 20.0231 72.7354 20.8803 72.7354 21.8824C72.7354 22.8846 72.5684 23.7438 72.2343 24.4602C71.9003 25.1726 71.4415 25.7219 70.8579 26.1083C70.2744 26.4906 69.6083 26.6818 68.8597 26.6818C68.2963 26.6818 67.8354 26.5872 67.4772 26.3981C67.1231 26.2089 66.8454 25.9876 66.6441 25.734C66.4429 25.4805 66.288 25.2551 66.1793 25.0579H66.0706V29.978H64.2656ZM66.0344 21.8643C66.0344 22.5163 66.129 23.0878 66.3182 23.5788C66.5073 24.0698 66.781 24.4542 67.1392 24.7319C67.4974 25.0056 67.936 25.1424 68.4552 25.1424C68.9945 25.1424 69.4453 24.9995 69.8075 24.7138C70.1697 24.424 70.4434 24.0316 70.6285 23.5366C70.8177 23.0415 70.9123 22.4841 70.9123 21.8643C70.9123 21.2526 70.8197 20.7032 70.6346 20.2163C70.4534 19.7293 70.1798 19.3449 69.8135 19.0632C69.4513 18.7815 68.9985 18.6406 68.4552 18.6406C67.932 18.6406 67.4893 18.7754 67.1271 19.0451C66.7689 19.3147 66.4972 19.691 66.3121 20.174C66.127 20.6569 66.0344 21.2204 66.0344 21.8643ZM74.7578 29.978V17.228H76.5206V18.7312H76.6715C76.7761 18.538 76.927 18.3146 77.1243 18.0611C77.3215 17.8075 77.5951 17.5862 77.9453 17.397C78.2954 17.2038 78.7583 17.1072 79.3338 17.1072C80.0824 17.1072 80.7504 17.2964 81.338 17.6747C81.9256 18.053 82.3864 18.5984 82.7205 19.3107C83.0586 20.0231 83.2276 20.8803 83.2276 21.8824C83.2276 22.8846 83.0606 23.7438 82.7265 24.4602C82.3925 25.1726 81.9337 25.7219 81.3501 26.1083C80.7665 26.4906 80.1005 26.6818 79.3519 26.6818C78.7884 26.6818 78.3276 26.5872 77.9694 26.3981C77.6153 26.2089 77.3376 25.9876 77.1363 25.734C76.9351 25.4805 76.7802 25.2551 76.6715 25.0579H76.5628V29.978H74.7578ZM76.5266 21.8643C76.5266 22.5163 76.6212 23.0878 76.8103 23.5788C76.9995 24.0698 77.2732 24.4542 77.6314 24.7319C77.9895 25.0056 78.4282 25.1424 78.9474 25.1424C79.4867 25.1424 79.9375 24.9995 80.2997 24.7138C80.6619 24.424 80.9356 24.0316 81.1207 23.5366C81.3099 23.0415 81.4044 22.4841 81.4044 21.8643C81.4044 21.2526 81.3119 20.7032 81.1267 20.2163C80.9456 19.7293 80.672 19.3449 80.3057 19.0632C79.9435 18.7815 79.4907 18.6406 78.9474 18.6406C78.4242 18.6406 77.9815 18.7754 77.6193 19.0451C77.2611 19.3147 76.9894 19.691 76.8043 20.174C76.6192 20.6569 76.5266 21.2204 76.5266 21.8643ZM89.1559 26.6878C88.2865 26.6878 87.5279 26.4886 86.8799 26.0902C86.232 25.6917 85.7289 25.1343 85.3707 24.418C85.0125 23.7016 84.8334 22.8645 84.8334 21.9066C84.8334 20.9447 85.0125 20.1036 85.3707 19.3832C85.7289 18.6627 86.232 18.1033 86.8799 17.7049C87.5279 17.3065 88.2865 17.1072 89.1559 17.1072C90.0252 17.1072 90.7838 17.3065 91.4318 17.7049C92.0797 18.1033 92.5828 18.6627 92.941 19.3832C93.2992 20.1036 93.4783 20.9447 93.4783 21.9066C93.4783 22.8645 93.2992 23.7016 92.941 24.418C92.5828 25.1343 92.0797 25.6917 91.4318 26.0902C90.7838 26.4886 90.0252 26.6878 89.1559 26.6878ZM89.1619 25.1726C89.7253 25.1726 90.1922 25.0237 90.5625 24.7258C90.9327 24.428 91.2064 24.0316 91.3835 23.5366C91.5646 23.0415 91.6551 22.4962 91.6551 21.9006C91.6551 21.3089 91.5646 20.7656 91.3835 20.2706C91.2064 19.7715 90.9327 19.3711 90.5625 19.0692C90.1922 18.7674 89.7253 18.6165 89.1619 18.6165C88.5944 18.6165 88.1235 18.7674 87.7493 19.0692C87.379 19.3711 87.1033 19.7715 86.9222 20.2706C86.7451 20.7656 86.6566 21.3089 86.6566 21.9006C86.6566 22.4962 86.7451 23.0415 86.9222 23.5366C87.1033 24.0316 87.379 24.428 87.7493 24.7258C88.1235 25.0237 88.5944 25.1726 89.1619 25.1726ZM95.4931 26.5007V17.228H97.2378V18.701H97.3344C97.5034 18.2019 97.8012 17.8095 98.2279 17.5238C98.6585 17.234 99.1455 17.0891 99.6888 17.0891C99.8015 17.0891 99.9343 17.0931 100.087 17.1012C100.244 17.1092 100.367 17.1193 100.455 17.1314V18.8579C100.383 18.8378 100.254 18.8157 100.069 18.7915C99.884 18.7634 99.6989 18.7493 99.5137 18.7493C99.0871 18.7493 98.7068 18.8398 98.3727 19.0209C98.0427 19.198 97.7811 19.4455 97.5879 19.7635C97.3948 20.0774 97.2982 20.4356 97.2982 20.8381V26.5007H95.4931ZM106.894 17.228V18.6768H101.829V17.228H106.894ZM103.187 15.0064H104.992V23.778C104.992 24.1282 105.045 24.3918 105.149 24.5689C105.254 24.7419 105.389 24.8607 105.554 24.9251C105.723 24.9854 105.906 25.0156 106.103 25.0156C106.248 25.0156 106.375 25.0056 106.483 24.9854C106.592 24.9653 106.677 24.9492 106.737 24.9371L107.063 26.4283C106.958 26.4685 106.809 26.5087 106.616 26.549C106.423 26.5933 106.182 26.6174 105.892 26.6214C105.417 26.6295 104.974 26.545 104.564 26.3679C104.153 26.1908 103.821 25.9171 103.568 25.5469C103.314 25.1766 103.187 24.7118 103.187 24.1523V15.0064ZM115.69 19.4918L114.054 19.7816C113.985 19.5723 113.877 19.3731 113.728 19.1839C113.583 18.9948 113.386 18.8398 113.136 18.7191C112.887 18.5984 112.575 18.538 112.2 18.538C111.689 18.538 111.263 18.6527 110.92 18.8821C110.578 19.1075 110.407 19.3993 110.407 19.7574C110.407 20.0673 110.522 20.3169 110.751 20.506C110.981 20.6952 111.351 20.8501 111.862 20.9709L113.335 21.3089C114.188 21.5061 114.824 21.81 115.243 22.2205C115.662 22.631 115.871 23.1643 115.871 23.8203C115.871 24.3757 115.71 24.8707 115.388 25.3054C115.07 25.736 114.625 26.0741 114.054 26.3196C113.486 26.5651 112.828 26.6878 112.08 26.6878C111.041 26.6878 110.194 26.4665 109.538 26.0238C108.882 25.577 108.48 24.9432 108.331 24.1221L110.075 23.8565C110.184 24.3113 110.407 24.6554 110.745 24.8888C111.083 25.1182 111.524 25.2329 112.068 25.2329C112.659 25.2329 113.132 25.1102 113.486 24.8647C113.84 24.6152 114.017 24.3113 114.017 23.9531C114.017 23.6633 113.909 23.4199 113.691 23.2226C113.478 23.0254 113.15 22.8765 112.707 22.7759L111.138 22.4318C110.273 22.2346 109.633 21.9207 109.218 21.49C108.808 21.0594 108.602 20.5141 108.602 19.854C108.602 19.3067 108.755 18.8278 109.061 18.4172C109.367 18.0067 109.79 17.6868 110.329 17.4574C110.868 17.2239 111.486 17.1072 112.182 17.1072C113.184 17.1072 113.973 17.3246 114.549 17.7592C115.124 18.1899 115.505 18.7674 115.69 19.4918Z" fill="#E8E8E8"/>
<path d="M121.937 26.0007V13.6371H127.093C128.018 13.6371 128.793 13.7679 129.417 14.0295C130.045 14.2911 130.516 14.6573 130.829 15.1282C131.147 15.5991 131.306 16.1444 131.306 16.7642C131.306 17.2351 131.208 17.6556 131.011 18.0259C130.813 18.3922 130.542 18.696 130.196 18.9375C129.85 19.179 129.449 19.348 128.994 19.4446V19.5653C129.493 19.5895 129.954 19.7243 130.377 19.9698C130.803 20.2153 131.145 20.5574 131.403 20.9961C131.661 21.4307 131.789 21.9459 131.789 22.5415C131.789 23.2056 131.62 23.7992 131.282 24.3224C130.944 24.8416 130.455 25.2521 129.815 25.554C129.175 25.8518 128.399 26.0007 127.485 26.0007H121.937ZM124.925 23.592H126.773C127.421 23.592 127.898 23.4692 128.203 23.2237C128.513 22.9782 128.668 22.6361 128.668 22.1974C128.668 21.8795 128.594 21.6058 128.445 21.3764C128.296 21.143 128.085 20.9639 127.811 20.8391C127.537 20.7103 127.209 20.6459 126.827 20.6459H124.925V23.592ZM124.925 18.7202H126.579C126.905 18.7202 127.195 18.6658 127.449 18.5572C127.702 18.4485 127.9 18.2915 128.04 18.0863C128.185 17.881 128.258 17.6335 128.258 17.3437C128.258 16.9292 128.111 16.6032 127.817 16.3658C127.523 16.1283 127.127 16.0096 126.628 16.0096H124.925V18.7202ZM139.209 21.9982V16.728H142.155V26.0007H139.342V24.2741H139.245C139.04 24.8416 138.69 25.2924 138.195 25.6264C137.704 25.9564 137.11 26.1214 136.414 26.1214C135.782 26.1214 135.226 25.9765 134.747 25.6868C134.269 25.397 133.896 24.9925 133.631 24.4734C133.365 23.9502 133.23 23.3384 133.226 22.6381V16.728H136.178V22.0586C136.182 22.5617 136.315 22.9581 136.577 23.2479C136.838 23.5376 137.194 23.6825 137.645 23.6825C137.939 23.6825 138.203 23.6181 138.436 23.4893C138.673 23.3565 138.861 23.1654 138.997 22.9158C139.138 22.6623 139.209 22.3564 139.209 21.9982ZM146.986 20.7123V26.0007H144.034V16.728H146.841V18.4304H146.944C147.149 17.8629 147.499 17.4182 147.994 17.0962C148.489 16.7702 149.079 16.6072 149.763 16.6072C150.415 16.6072 150.98 16.7541 151.459 17.0479C151.942 17.3377 152.316 17.7442 152.582 18.2674C152.852 18.7866 152.985 19.3943 152.981 20.0905V26.0007H150.028V20.6701C150.032 20.1549 149.902 19.7525 149.636 19.4627C149.374 19.1729 149.01 19.028 148.543 19.028C148.233 19.028 147.96 19.0965 147.722 19.2333C147.489 19.3661 147.308 19.5573 147.179 19.8068C147.054 20.0563 146.99 20.3582 146.986 20.7123Z" fill="#FBF0DF"/>
</g>
<defs>
<filter id="filter0_d_1_56" x="2.39972" y="0.39972" width="39.202" height="39.202" filterUnits="userSpaceOnUse" color-interpolation-filters="sRGB">
<feFlood flood-opacity="0" result="BackgroundImageFix"/>
<feColorMatrix in="SourceAlpha" type="matrix" values="0 0 0 0 0 0 0 0 0 0 0 0 0 0 0 0 0 0 127 0" result="hardAlpha"/>
<feOffset/>
<feGaussianBlur stdDeviation="2.80014"/>
<feComposite in2="hardAlpha" operator="out"/>
<feColorMatrix type="matrix" values="0 0 0 0 0 0 0 0 0 0 0 0 0 0 0 0 0 0 0.25 0"/>
<feBlend mode="normal" in2="BackgroundImageFix" result="effect1_dropShadow_1_56"/>
<feBlend mode="normal" in="SourceGraphic" in2="effect1_dropShadow_1_56" result="shape"/>
</filter>
<filter id="filter1_d_1_56" x="36.2871" y="3.78642" width="123.429" height="32.4286" filterUnits="userSpaceOnUse" color-interpolation-filters="sRGB">
<feFlood flood-opacity="0" result="BackgroundImageFix"/>
<feColorMatrix in="SourceAlpha" type="matrix" values="0 0 0 0 0 0 0 0 0 0 0 0 0 0 0 0 0 0 127 0" result="hardAlpha"/>
<feOffset/>
<feGaussianBlur stdDeviation="2.85714"/>
<feComposite in2="hardAlpha" operator="out"/>
<feColorMatrix type="matrix" values="0 0 0 0 0 0 0 0 0 0 0 0 0 0 0 0 0 0 0.25 0"/>
<feBlend mode="normal" in2="BackgroundImageFix" result="effect1_dropShadow_1_56"/>
<feBlend mode="normal" in="SourceGraphic" in2="effect1_dropShadow_1_56" result="shape"/>
</filter>
<linearGradient id="paint0_linear_1_56" x1="81.0007" y1="0" x2="81.0007" y2="40.0014" gradientUnits="userSpaceOnUse">
<stop stop-color="#947C56"/>
<stop offset="1" stop-color="#6A593D"/>
</linearGradient>
</defs>
</svg>
