<svg width="56" height="56" viewBox="0 0 56 56" fill="none" xmlns="http://www.w3.org/2000/svg">
<rect width="56" height="56" rx="8.4" fill="url(#paint0_linear_1_62)"/>
<rect x="1.05" y="1.05" width="53.9" height="53.9" rx="7.35" stroke="white" stroke-opacity="0.15" stroke-width="2.1"/>
<g filter="url(#filter0_d_1_62)">
<path d="M43.7418 20.7481C43.6608 20.662 43.5747 20.5759 43.4886 20.4949C43.4025 20.4139 43.3215 20.3228 43.2354 20.2418C43.1494 20.1608 43.0684 20.0696 42.9823 19.9886C42.8962 19.9076 42.8152 19.8165 42.7291 19.7354C42.643 19.6544 42.562 19.5633 42.4759 19.4823C42.3899 19.4013 42.3089 19.3101 42.2228 19.2291C42.1367 19.1481 42.0557 19.057 41.9696 18.9759C44.4811 21.4442 45.9199 24.8019 45.9747 28.3228C45.9747 36.7127 37.4582 43.538 26.9873 43.538C21.124 43.538 15.8785 41.3962 12.3899 38.0392L12.643 38.2924L12.8962 38.5456L13.1494 38.7987L13.4025 39.0519L13.6557 39.3051L13.9089 39.5582L14.162 39.8114C17.6456 43.3101 23.0076 45.5633 29.0127 45.5633C39.4835 45.5633 48 38.738 48 30.3734C48 26.7987 46.4608 23.4114 43.7418 20.7481Z" fill="black"/>
<path d="M44.7089 28.3228C44.7089 36.024 36.7747 42.2671 26.9873 42.2671C17.2 42.2671 9.26582 36.024 9.26582 28.3228C9.26582 23.5481 12.3038 19.3304 16.9722 16.8291C21.6405 14.3278 24.5468 11.7658 26.9873 11.7658C29.4278 11.7658 31.5139 13.857 37.0025 16.8291C41.6709 19.3304 44.7089 23.5481 44.7089 28.3228Z" fill="#FBF0DF"/>
<path d="M44.7089 28.3228C44.7064 27.3335 44.5701 26.349 44.3038 25.3962C42.9215 42.257 22.3544 43.0671 14.2684 38.024C17.9033 40.8415 22.3889 42.3378 26.9873 42.2671C36.7595 42.2671 44.7089 36.0139 44.7089 28.3228Z" fill="#F6DECE"/>
<path d="M20.1671 15.9025C22.4304 14.5456 25.438 11.9987 28.3949 11.9937C27.94 11.8466 27.4654 11.7698 26.9873 11.7658C25.762 11.7658 24.4557 12.3987 22.8101 13.3506C22.238 13.6848 21.6456 14.0544 21.0177 14.4392C19.838 15.1684 18.4861 15.9937 16.9671 16.819C12.1468 19.4266 9.26582 23.7253 9.26582 28.3228C9.26582 28.5253 9.26582 28.7278 9.26582 28.9253C12.3342 18.0848 17.9089 17.2595 20.1671 15.9025Z" fill="#FFFEFC"/>
<path fill-rule="evenodd" clip-rule="evenodd" d="M25.5291 13.0468C25.5362 14.2424 25.2852 15.4254 24.7932 16.5151C24.3012 17.6047 23.5799 18.5754 22.6785 19.3608C22.5367 19.4873 22.6481 19.7304 22.8304 19.6595C24.5367 18.9962 26.8405 17.0114 25.8684 13.0063C25.8278 12.7785 25.5291 12.8392 25.5291 13.0468ZM26.6785 13.0468C27.298 14.0577 27.6916 15.1906 27.8323 16.3678C27.973 17.545 27.8575 18.7387 27.4937 19.8671C27.4329 20.0443 27.6506 20.1962 27.7721 20.0494C28.881 18.6316 29.8481 15.8165 26.9519 12.7785C26.8051 12.6468 26.5772 12.8494 26.6785 13.0266V13.0468ZM28.0759 12.9608C29.0461 13.6476 29.8578 14.5345 30.4561 15.5617C31.0544 16.5889 31.4255 17.7324 31.5443 18.9152C31.5392 18.9578 31.5506 19.0008 31.5763 19.0352C31.602 19.0695 31.64 19.0927 31.6823 19.0999C31.7246 19.1071 31.7681 19.0977 31.8037 19.0736C31.8393 19.0496 31.8642 19.0128 31.8734 18.9709C32.3392 17.2038 32.0759 14.1911 28.243 12.6266C28.0405 12.5456 27.9089 12.819 28.0759 12.9405V12.9608ZM18.7291 18.2266C19.8832 17.8818 20.9517 17.2978 21.8651 16.5127C22.7784 15.7275 23.5162 14.7588 24.0304 13.6696C24.1215 13.4873 24.4101 13.5582 24.3646 13.7608C23.4886 17.8114 20.557 18.657 18.7342 18.5456C18.5418 18.5506 18.5468 18.2823 18.7291 18.2266Z" fill="#CCBEA7"/>
<path d="M26.9873 43.538C16.5165 43.538 8 36.7127 8 28.3228C8 23.2595 11.1291 18.5354 16.3696 15.7051C17.8886 14.8949 19.1899 14.0797 20.3494 13.3658C20.9873 12.9709 21.5899 12.6013 22.1722 12.257C23.9494 11.2038 25.4684 10.5 26.9873 10.5C28.5063 10.5 29.8329 11.1076 31.4937 12.0899C32 12.3785 32.5063 12.6924 33.0481 13.0367C34.3089 13.8165 35.7316 14.6975 37.6051 15.7051C42.8456 18.5354 45.9747 23.2544 45.9747 28.3228C45.9747 36.7127 37.4582 43.538 26.9873 43.538ZM26.9873 11.7658C25.762 11.7658 24.4557 12.3987 22.8101 13.3506C22.238 13.6848 21.6456 14.0544 21.0177 14.4392C19.838 15.1684 18.4861 15.9937 16.9671 16.819C12.1468 19.4266 9.26582 23.7253 9.26582 28.3228C9.26582 36.0139 17.2152 42.2722 26.9873 42.2722C36.7595 42.2722 44.7089 36.0139 44.7089 28.3228C44.7089 23.7253 41.8278 19.4266 37.0025 16.8291C35.0886 15.8165 33.5949 14.8646 32.3848 14.1152C31.8329 13.7759 31.3266 13.462 30.8658 13.1835C29.3316 12.2722 28.2127 11.7658 26.9873 11.7658Z" fill="black"/>
<path d="M30.557 32.019C30.3295 32.9506 29.8117 33.7858 29.0785 34.4038C28.528 34.9374 27.8153 35.2724 27.0532 35.3557C26.2681 35.2856 25.5304 34.9498 24.962 34.4038C24.2363 33.7828 23.7258 32.948 23.5038 32.019C23.4964 31.9638 23.5018 31.9077 23.5195 31.855C23.5372 31.8022 23.5667 31.7542 23.6058 31.7146C23.6449 31.675 23.6925 31.6449 23.7451 31.6266C23.7976 31.6083 23.8536 31.6022 23.9089 31.6089H30.157C30.2118 31.603 30.2673 31.6097 30.3191 31.6284C30.371 31.6471 30.418 31.6774 30.4565 31.7168C30.495 31.7563 30.5241 31.804 30.5415 31.8564C30.5589 31.9087 30.5642 31.9643 30.557 32.019Z" fill="#B71422"/>
<path d="M24.962 34.4443C25.5293 34.9906 26.2643 35.3296 27.0481 35.4063C27.8301 35.3285 28.5632 34.9896 29.1291 34.4443C29.3101 34.2756 29.4793 34.0946 29.6354 33.9025C29.3235 33.5487 28.9425 33.2624 28.5158 33.0612C28.0892 32.8601 27.6259 32.7484 27.1544 32.7329C26.65 32.7449 26.156 32.8792 25.715 33.1244C25.274 33.3696 24.8991 33.7183 24.6228 34.1405C24.7392 34.2468 24.8405 34.3481 24.962 34.4443Z" fill="#FF6164"/>
<path d="M25.043 34.0443C25.2941 33.7198 25.6154 33.4565 25.9828 33.2741C26.3503 33.0917 26.7543 32.9949 27.1645 32.9911C27.9228 33.0135 28.6453 33.3187 29.1899 33.8468C29.3063 33.7203 29.4177 33.5886 29.524 33.457C28.8799 32.8435 28.0286 32.4947 27.1392 32.4797C26.6639 32.4838 26.1954 32.5931 25.7673 32.7997C25.3393 33.0063 24.9622 33.3051 24.6633 33.6747C24.783 33.8048 24.9098 33.9281 25.043 34.0443Z" fill="black"/>
<path d="M27.0329 35.6595C26.1892 35.5856 25.3952 35.2287 24.7797 34.6468C23.996 33.9839 23.4443 33.0881 23.2051 32.0899C23.1879 32.001 23.1908 31.9094 23.2136 31.8218C23.2364 31.7342 23.2784 31.6528 23.3367 31.5835C23.4061 31.4998 23.4937 31.4329 23.5929 31.3882C23.692 31.3434 23.8001 31.3219 23.9089 31.3253H30.157C30.2655 31.323 30.3733 31.345 30.4722 31.3897C30.5712 31.4344 30.659 31.5006 30.7291 31.5835C30.7868 31.6531 30.8282 31.7347 30.8501 31.8223C30.872 31.9099 30.8739 32.0014 30.8557 32.0899C30.6165 33.0881 30.0648 33.9839 29.281 34.6468C28.6669 35.2277 27.8749 35.5845 27.0329 35.6595ZM23.9089 31.9127C23.8278 31.9127 23.8076 31.9481 23.8025 31.9582C24.0166 32.8239 24.5007 33.5989 25.1848 34.1709C25.685 34.6637 26.3354 34.9755 27.0329 35.057C27.7286 34.9765 28.3782 34.6686 28.881 34.181C29.563 33.608 30.0452 32.8332 30.2582 31.9684C30.2472 31.9522 30.2319 31.9393 30.214 31.9313C30.1961 31.9233 30.1764 31.9203 30.157 31.9228L23.9089 31.9127Z" fill="black"/>
<path d="M34.6937 32.3329C36.3296 32.3329 37.6557 31.5531 37.6557 30.5911C37.6557 29.6292 36.3296 28.8494 34.6937 28.8494C33.0578 28.8494 31.7316 29.6292 31.7316 30.5911C31.7316 31.5531 33.0578 32.3329 34.6937 32.3329Z" fill="#FEBBD0"/>
<path d="M19.3671 32.3329C21.003 32.3329 22.3291 31.5531 22.3291 30.5911C22.3291 29.6292 21.003 28.8494 19.3671 28.8494C17.7312 28.8494 16.4051 29.6292 16.4051 30.5911C16.4051 31.5531 17.7312 32.3329 19.3671 32.3329Z" fill="#FEBBD0"/>
<path fill-rule="evenodd" clip-rule="evenodd" d="M20.7595 29.8924C21.3115 29.8934 21.8514 29.7306 22.3108 29.4247C22.7703 29.1187 23.1287 28.6834 23.3406 28.1737C23.5525 27.664 23.6085 27.1029 23.5014 26.5614C23.3944 26.0198 23.1291 25.5223 22.7391 25.1316C22.3491 24.7409 21.852 24.4747 21.3107 24.3666C20.7694 24.2586 20.2082 24.3135 19.6981 24.5245C19.188 24.7356 18.752 25.0931 18.4452 25.552C18.1384 26.0109 17.9747 26.5505 17.9747 27.1025C17.9747 27.8416 18.2679 28.5504 18.79 29.0735C19.3121 29.5965 20.0205 29.8911 20.7595 29.8924ZM33.3013 29.8924C33.8539 29.8964 34.3953 29.7362 34.8567 29.4321C35.3182 29.128 35.6789 28.6937 35.8932 28.1843C36.1074 27.6749 36.1656 27.1133 36.0602 26.5708C35.9549 26.0283 35.6908 25.5293 35.3014 25.1371C34.9121 24.7449 34.415 24.4771 33.8733 24.3678C33.3316 24.2585 32.7696 24.3126 32.2586 24.5231C31.7477 24.7337 31.3107 25.0913 31.0033 25.5505C30.6958 26.0097 30.5317 26.5499 30.5317 27.1025C30.5303 27.8394 30.821 28.5467 31.3401 29.0696C31.8593 29.5925 32.5645 29.8884 33.3013 29.8924Z" fill="black"/>
<path fill-rule="evenodd" clip-rule="evenodd" d="M19.8987 27.2797C20.1062 27.2807 20.3094 27.2201 20.4824 27.1056C20.6554 26.991 20.7906 26.8277 20.8707 26.6363C20.9508 26.4448 20.9722 26.2339 20.9324 26.0303C20.8925 25.8266 20.7931 25.6394 20.6467 25.4923C20.5003 25.3452 20.3136 25.2449 20.1101 25.2041C19.9067 25.1632 19.6957 25.1837 19.5039 25.2629C19.3121 25.342 19.1481 25.4764 19.0327 25.6488C18.9173 25.8213 18.8557 26.0241 18.8557 26.2316C18.8557 26.5087 18.9654 26.7746 19.1609 26.971C19.3564 27.1674 19.6216 27.2784 19.8987 27.2797ZM32.4405 27.2797C32.648 27.2807 32.8511 27.2201 33.0242 27.1056C33.1972 26.991 33.3323 26.8277 33.4124 26.6363C33.4925 26.4448 33.514 26.2339 33.4741 26.0303C33.4343 25.8266 33.3349 25.6394 33.1885 25.4923C33.0421 25.3452 32.8554 25.2449 32.6519 25.2041C32.4485 25.1632 32.2375 25.1837 32.0457 25.2629C31.8538 25.342 31.6899 25.4764 31.5745 25.6488C31.4591 25.8213 31.3975 26.0241 31.3975 26.2316C31.3974 26.507 31.5058 26.7713 31.6991 26.9674C31.8923 27.1636 32.155 27.2758 32.4304 27.2797H32.4405Z" fill="white"/>
</g>
<defs>
<filter id="filter0_d_1_62" x="2.28571" y="2.28571" width="51.4286" height="51.4286" filterUnits="userSpaceOnUse" color-interpolation-filters="sRGB">
<feFlood flood-opacity="0" result="BackgroundImageFix"/>
<feColorMatrix in="SourceAlpha" type="matrix" values="0 0 0 0 0 0 0 0 0 0 0 0 0 0 0 0 0 0 127 0" result="hardAlpha"/>
<feOffset/>
<feGaussianBlur stdDeviation="2.85714"/>
<feComposite in2="hardAlpha" operator="out"/>
<feColorMatrix type="matrix" values="0 0 0 0 0 0 0 0 0 0 0 0 0 0 0 0 0 0 0.25 0"/>
<feBlend mode="normal" in2="BackgroundImageFix" result="effect1_dropShadow_1_62"/>
<feBlend mode="normal" in="SourceGraphic" in2="effect1_dropShadow_1_62" result="shape"/>
</filter>
<linearGradient id="paint0_linear_1_62" x1="28" y1="0" x2="28" y2="56" gradientUnits="userSpaceOnUse">
<stop stop-color="#947C56"/>
<stop offset="1" stop-color="#6A593D"/>
</linearGradient>
</defs>
</svg>
