<svg width="238" height="40" viewBox="0 0 238 40" fill="none" xmlns="http://www.w3.org/2000/svg">
<rect width="238.001" height="40.0014" rx="8" fill="url(#paint0_linear_1_56)"/>
<rect x="1.07143" y="1.07143" width="235.858" height="37.8585" rx="6.92857" stroke="white" stroke-opacity="0.15" stroke-width="2.14286"/>
<g filter="url(#filter0_d_1_56)">
<path d="M20.7307 22.5457H12.375L27.6502 6L23.5377 17.4543H31.8933L16.6182 34L20.7295 22.5457H20.7307Z" fill="#0098FB"/>
</g>
<g filter="url(#filter1_d_1_56)">
<path d="M44.4041 26.5007H42.424L46.8732 14.1371H49.0284L53.4776 26.5007H51.4975L48.0021 16.3828H47.9055L44.4041 26.5007ZM44.7361 21.6591H51.1594V23.2287H44.7361V21.6591ZM61.8886 17.228L58.526 26.5007H56.5942L53.2256 17.228H55.1634L57.5118 24.3636H57.6084L59.9507 17.228H61.8886ZM66.0178 26.706C65.4302 26.706 64.899 26.5973 64.4241 26.38C63.9492 26.1586 63.5729 25.8386 63.2952 25.4201C63.0215 25.0015 62.8846 24.4884 62.8846 23.8807C62.8846 23.3575 62.9853 22.9268 63.1865 22.5888C63.3877 22.2507 63.6594 21.9831 64.0015 21.7859C64.3436 21.5886 64.7259 21.4397 65.1485 21.3391C65.5711 21.2385 66.0017 21.162 66.4404 21.1097C66.9958 21.0453 67.4466 20.993 67.7927 20.9528C68.1388 20.9085 68.3903 20.8381 68.5473 20.7415C68.7042 20.6449 68.7827 20.4879 68.7827 20.2706V20.2283C68.7827 19.7011 68.6338 19.2926 68.336 19.0028C68.0422 18.7131 67.6035 18.5682 67.0199 18.5682C66.4122 18.5682 65.9333 18.703 65.5832 18.9726C65.237 19.2383 64.9976 19.5341 64.8648 19.8601L63.1684 19.4737C63.3696 18.9103 63.6634 18.4555 64.0498 18.1094C64.4402 17.7592 64.8889 17.5057 65.396 17.3487C65.9031 17.1877 66.4364 17.1072 66.9958 17.1072C67.3661 17.1072 67.7585 17.1515 68.173 17.24C68.5916 17.3246 68.9819 17.4815 69.3442 17.7109C69.7104 17.9403 70.0102 18.2683 70.2437 18.6949C70.4771 19.1175 70.5938 19.6669 70.5938 20.343V26.5007H68.831V25.2329H68.7586C68.6419 25.4664 68.4668 25.6958 68.2334 25.9212C67.9999 26.1465 67.7001 26.3337 67.3339 26.4826C66.9676 26.6315 66.5289 26.706 66.0178 26.706ZM66.4102 25.2571C66.9093 25.2571 67.3359 25.1585 67.69 24.9613C68.0482 24.7641 68.3199 24.5065 68.505 24.1886C68.6942 23.8666 68.7888 23.5225 68.7888 23.1562V21.9609C68.7244 22.0253 68.5996 22.0857 68.4145 22.142C68.2334 22.1944 68.0261 22.2406 67.7927 22.2809C67.5592 22.3171 67.3319 22.3513 67.1105 22.3835C66.8891 22.4117 66.704 22.4358 66.5551 22.456C66.205 22.5002 65.885 22.5747 65.5952 22.6793C65.3095 22.784 65.0801 22.9349 64.907 23.1321C64.738 23.3253 64.6535 23.5828 64.6535 23.9048C64.6535 24.3515 64.8185 24.6896 65.1485 24.919C65.4785 25.1444 65.8991 25.2571 66.4102 25.2571ZM72.998 26.5007V17.228H74.8031V26.5007H72.998ZM73.9096 15.7972C73.5957 15.7972 73.326 15.6926 73.1006 15.4833C72.8793 15.27 72.7686 15.0164 72.7686 14.7226C72.7686 14.4248 72.8793 14.1713 73.1006 13.962C73.326 13.7487 73.5957 13.642 73.9096 13.642C74.2235 13.642 74.4911 13.7487 74.7125 13.962C74.9379 14.1713 75.0506 14.4248 75.0506 14.7226C75.0506 15.0164 74.9379 15.27 74.7125 15.4833C74.4911 15.6926 74.2235 15.7972 73.9096 15.7972ZM79.0365 14.1371V26.5007H77.2314V14.1371H79.0365ZM84.1633 26.706C83.5757 26.706 83.0445 26.5973 82.5696 26.38C82.0947 26.1586 81.7184 25.8386 81.4407 25.4201C81.167 25.0015 81.0301 24.4884 81.0301 23.8807C81.0301 23.3575 81.1308 22.9268 81.332 22.5888C81.5332 22.2507 81.8049 21.9831 82.147 21.7859C82.4891 21.5886 82.8714 21.4397 83.294 21.3391C83.7166 21.2385 84.1472 21.162 84.5859 21.1097C85.1413 21.0453 85.5921 20.993 85.9382 20.9528C86.2843 20.9085 86.5358 20.8381 86.6928 20.7415C86.8497 20.6449 86.9282 20.4879 86.9282 20.2706V20.2283C86.9282 19.7011 86.7793 19.2926 86.4815 19.0028C86.1877 18.7131 85.749 18.5682 85.1654 18.5682C84.5577 18.5682 84.0788 18.703 83.7287 18.9726C83.3825 19.2383 83.1431 19.5341 83.0103 19.8601L81.3139 19.4737C81.5151 18.9103 81.8089 18.4555 82.1953 18.1094C82.5857 17.7592 83.0344 17.5057 83.5415 17.3487C84.0486 17.1877 84.5819 17.1072 85.1413 17.1072C85.5116 17.1072 85.904 17.1515 86.3185 17.24C86.7371 17.3246 87.1274 17.4815 87.4897 17.7109C87.8559 17.9403 88.1557 18.2683 88.3892 18.6949C88.6226 19.1175 88.7393 19.6669 88.7393 20.343V26.5007H86.9765V25.2329H86.9041C86.7874 25.4664 86.6123 25.6958 86.3789 25.9212C86.1454 26.1465 85.8456 26.3337 85.4794 26.4826C85.1131 26.6315 84.6744 26.706 84.1633 26.706ZM84.5557 25.2571C85.0548 25.2571 85.4814 25.1585 85.8355 24.9613C86.1937 24.7641 86.4654 24.5065 86.6505 24.1886C86.8397 23.8666 86.9343 23.5225 86.9343 23.1562V21.9609C86.8699 22.0253 86.7451 22.0857 86.56 22.142C86.3789 22.1944 86.1716 22.2406 85.9382 22.2809C85.7047 22.3171 85.4774 22.3513 85.256 22.3835C85.0346 22.4117 84.8495 22.4358 84.7006 22.456C84.3505 22.5002 84.0305 22.5747 83.7407 22.6793C83.455 22.784 83.2256 22.9349 83.0525 23.1321C82.8835 23.3253 82.799 23.5828 82.799 23.9048C82.799 24.3515 82.964 24.6896 83.294 24.919C83.624 25.1444 84.0446 25.2571 84.5557 25.2571ZM91.2884 26.5007V14.1371H93.0934V18.7312H93.2021C93.3067 18.538 93.4577 18.3146 93.6549 18.0611C93.8521 17.8075 94.1258 17.5862 94.4759 17.397C94.826 17.2038 95.2889 17.1072 95.8644 17.1072C96.613 17.1072 97.2811 17.2964 97.8687 17.6747C98.4563 18.053 98.9171 18.5984 99.2511 19.3107C99.5892 20.0231 99.7582 20.8803 99.7582 21.8824C99.7582 22.8846 99.5912 23.7438 99.2571 24.4602C98.9231 25.1726 98.4643 25.7219 97.8807 26.1083C97.2972 26.4906 96.6311 26.6818 95.8825 26.6818C95.3191 26.6818 94.8582 26.5872 94.5 26.3981C94.1459 26.2089 93.8682 25.9876 93.667 25.734C93.4657 25.4805 93.3108 25.2551 93.2021 25.0579H93.0512V26.5007H91.2884ZM93.0572 21.8643C93.0572 22.5163 93.1518 23.0878 93.341 23.5788C93.5301 24.0698 93.8038 24.4542 94.162 24.7319C94.5202 25.0056 94.9589 25.1424 95.478 25.1424C96.0173 25.1424 96.4681 24.9995 96.8303 24.7138C97.1925 24.424 97.4662 24.0316 97.6513 23.5366C97.8405 23.0415 97.9351 22.4841 97.9351 21.8643C97.9351 21.2526 97.8425 20.7032 97.6574 20.2163C97.4763 19.7293 97.2026 19.3449 96.8363 19.0632C96.4741 18.7815 96.0214 18.6406 95.478 18.6406C94.9548 18.6406 94.5121 18.7754 94.1499 19.0451C93.7917 19.3147 93.5201 19.691 93.3349 20.174C93.1498 20.6569 93.0572 21.2204 93.0572 21.8643ZM103.59 14.1371V26.5007H101.785V14.1371H103.59ZM110.015 26.6878C109.101 26.6878 108.315 26.4926 107.655 26.1023C106.999 25.7078 106.491 25.1545 106.133 24.4421C105.779 23.7257 105.602 22.8866 105.602 21.9247C105.602 20.9749 105.779 20.1378 106.133 19.4133C106.491 18.6889 106.99 18.1234 107.63 17.717C108.274 17.3105 109.027 17.1072 109.888 17.1072C110.411 17.1072 110.918 17.1938 111.409 17.3668C111.9 17.5399 112.341 17.8115 112.732 18.1818C113.122 18.5521 113.43 19.033 113.655 19.6246C113.881 20.2122 113.993 20.9266 113.993 21.7677V22.4077H106.622V21.0554H112.224C112.224 20.5805 112.128 20.1599 111.935 19.7937C111.742 19.4234 111.47 19.1316 111.12 18.9183C110.774 18.705 110.367 18.5984 109.9 18.5984C109.393 18.5984 108.95 18.7231 108.572 18.9726C108.198 19.2181 107.908 19.5401 107.703 19.9386C107.502 20.333 107.401 20.7616 107.401 21.2244V22.2809C107.401 22.9007 107.51 23.4279 107.727 23.8626C107.948 24.2972 108.256 24.6292 108.651 24.8587C109.045 25.084 109.506 25.1967 110.033 25.1967C110.375 25.1967 110.687 25.1484 110.969 25.0518C111.251 24.9512 111.494 24.8023 111.699 24.6051C111.905 24.4079 112.061 24.1644 112.17 23.8746L113.879 24.1825C113.742 24.6856 113.496 25.1263 113.142 25.5046C112.792 25.8789 112.351 26.1707 111.82 26.38C111.293 26.5852 110.691 26.6878 110.015 26.6878ZM124.401 26.6878C123.532 26.6878 122.773 26.4886 122.125 26.0902C121.477 25.6917 120.974 25.1343 120.616 24.418C120.258 23.7016 120.079 22.8645 120.079 21.9066C120.079 20.9447 120.258 20.1036 120.616 19.3832C120.974 18.6627 121.477 18.1033 122.125 17.7049C122.773 17.3065 123.532 17.1072 124.401 17.1072C125.27 17.1072 126.029 17.3065 126.677 17.7049C127.325 18.1033 127.828 18.6627 128.186 19.3832C128.544 20.1036 128.723 20.9447 128.723 21.9066C128.723 22.8645 128.544 23.7016 128.186 24.418C127.828 25.1343 127.325 25.6917 126.677 26.0902C126.029 26.4886 125.27 26.6878 124.401 26.6878ZM124.407 25.1726C124.97 25.1726 125.437 25.0237 125.808 24.7258C126.178 24.428 126.452 24.0316 126.629 23.5366C126.81 23.0415 126.9 22.4962 126.9 21.9006C126.9 21.3089 126.81 20.7656 126.629 20.2706C126.452 19.7715 126.178 19.3711 125.808 19.0692C125.437 18.7674 124.97 18.6165 124.407 18.6165C123.84 18.6165 123.369 18.7674 122.994 19.0692C122.624 19.3711 122.348 19.7715 122.167 20.2706C121.99 20.7656 121.902 21.3089 121.902 21.9006C121.902 22.4962 121.99 23.0415 122.167 23.5366C122.348 24.0316 122.624 24.428 122.994 24.7258C123.369 25.0237 123.84 25.1726 124.407 25.1726ZM132.543 20.995V26.5007H130.738V17.228H132.471V18.7372H132.586C132.799 18.2462 133.133 17.8518 133.588 17.554C134.046 17.2561 134.624 17.1072 135.32 17.1072C135.952 17.1072 136.506 17.24 136.98 17.5057C137.455 17.7673 137.824 18.1577 138.085 18.6768C138.347 19.196 138.478 19.8379 138.478 20.6026V26.5007H136.673V20.8199C136.673 20.1478 136.497 19.6226 136.147 19.2443C135.797 18.862 135.316 18.6708 134.704 18.6708C134.286 18.6708 133.914 18.7614 133.588 18.9425C133.266 19.1236 133.01 19.3892 132.821 19.7393C132.636 20.0855 132.543 20.504 132.543 20.995Z" fill="#E8E8E8"/>
<path d="M151.62 17.3437C151.58 16.901 151.401 16.5569 151.083 16.3114C150.769 16.0619 150.32 15.9371 149.736 15.9371C149.35 15.9371 149.028 15.9874 148.771 16.0881C148.513 16.1887 148.32 16.3275 148.191 16.5046C148.062 16.6777 147.996 16.8769 147.992 17.1023C147.984 17.2874 148.02 17.4504 148.1 17.5913C148.185 17.7321 148.306 17.8569 148.463 17.9655C148.624 18.0702 148.817 18.1627 149.042 18.2432C149.268 18.3237 149.521 18.3942 149.803 18.4545L150.865 18.696C151.477 18.8288 152.016 19.0059 152.483 19.2273C152.954 19.4486 153.349 19.7122 153.666 20.0181C153.988 20.324 154.232 20.6761 154.397 21.0746C154.562 21.473 154.646 21.9197 154.651 22.4148C154.646 23.1955 154.449 23.8656 154.059 24.4251C153.669 24.9845 153.107 25.4131 152.375 25.7109C151.646 26.0087 150.767 26.1577 149.736 26.1577C148.702 26.1577 147.801 26.0027 147.032 25.6928C146.263 25.3829 145.666 24.912 145.239 24.2802C144.812 23.6483 144.593 22.8494 144.581 21.8835H147.442C147.467 22.2819 147.573 22.614 147.762 22.8796C147.952 23.1452 148.211 23.3465 148.541 23.4833C148.875 23.6201 149.262 23.6886 149.7 23.6886C150.103 23.6886 150.445 23.6342 150.727 23.5256C151.012 23.4169 151.232 23.266 151.385 23.0728C151.537 22.8796 151.616 22.6583 151.62 22.4087C151.616 22.1753 151.544 21.9761 151.403 21.8111C151.262 21.642 151.044 21.4971 150.751 21.3764C150.461 21.2516 150.091 21.1369 149.64 21.0323L148.348 20.7305C147.277 20.485 146.434 20.0885 145.818 19.5412C145.203 18.9898 144.897 18.2453 144.901 17.3075C144.897 16.5428 145.102 15.8727 145.517 15.2972C145.931 14.7217 146.505 14.273 147.237 13.951C147.97 13.629 148.805 13.468 149.742 13.468C150.7 13.468 151.531 13.631 152.236 13.957C152.944 14.279 153.493 14.7318 153.884 15.3153C154.274 15.8989 154.473 16.575 154.481 17.3437H151.62ZM161.394 16.728V18.9013H155.544V16.728H161.394ZM156.769 14.5064H159.722V23.0849C159.722 23.266 159.75 23.4129 159.806 23.5256C159.866 23.6342 159.953 23.7127 160.066 23.761C160.178 23.8053 160.313 23.8274 160.47 23.8274C160.583 23.8274 160.702 23.8173 160.826 23.7972C160.955 23.7731 161.052 23.7529 161.116 23.7368L161.563 25.8679C161.422 25.9081 161.223 25.9584 160.965 26.0188C160.712 26.0792 160.408 26.1174 160.054 26.1335C159.361 26.1657 158.768 26.0852 158.273 25.892C157.782 25.6948 157.405 25.389 157.144 24.9744C156.886 24.5599 156.761 24.0387 156.769 23.4109V14.5064ZM165.514 26.1577C164.922 26.1577 164.397 26.0591 163.938 25.8618C163.484 25.6606 163.123 25.3588 162.858 24.9563C162.596 24.5498 162.465 24.0407 162.465 23.429C162.465 22.9138 162.556 22.4792 162.737 22.125C162.918 21.7708 163.168 21.4831 163.486 21.2617C163.804 21.0404 164.17 20.8733 164.584 20.7606C164.999 20.6439 165.442 20.5654 165.912 20.5252C166.44 20.4769 166.864 20.4266 167.186 20.3743C167.508 20.3179 167.742 20.2395 167.886 20.1388C168.035 20.0342 168.11 19.8873 168.11 19.6981V19.668C168.11 19.3581 168.003 19.1186 167.79 18.9496C167.577 18.7805 167.289 18.696 166.927 18.696C166.536 18.696 166.222 18.7805 165.985 18.9496C165.747 19.1186 165.596 19.352 165.532 19.6498L162.809 19.5533C162.89 18.9898 163.097 18.4867 163.431 18.044C163.769 17.5973 164.232 17.2471 164.82 16.9936C165.411 16.736 166.122 16.6072 166.951 16.6072C167.542 16.6072 168.088 16.6777 168.587 16.8185C169.086 16.9554 169.52 17.1566 169.891 17.4222C170.261 17.6838 170.547 18.0058 170.748 18.3881C170.953 18.7705 171.056 19.2071 171.056 19.6981V26.0007H168.279V24.7088H168.206C168.041 25.0227 167.83 25.2883 167.573 25.5057C167.319 25.723 167.019 25.886 166.673 25.9947C166.331 26.1033 165.945 26.1577 165.514 26.1577ZM166.426 24.2258C166.743 24.2258 167.029 24.1614 167.283 24.0327C167.54 23.9039 167.746 23.7268 167.899 23.5014C168.051 23.272 168.128 23.0064 168.128 22.7045V21.8231C168.043 21.8674 167.941 21.9077 167.82 21.9439C167.703 21.9801 167.575 22.0143 167.434 22.0465C167.293 22.0787 167.148 22.1069 166.999 22.131C166.85 22.1552 166.707 22.1773 166.57 22.1974C166.293 22.2417 166.055 22.3101 165.858 22.4027C165.665 22.4953 165.516 22.616 165.411 22.7649C165.311 22.9098 165.26 23.0828 165.26 23.2841C165.26 23.59 165.369 23.8234 165.586 23.9844C165.808 24.1453 166.087 24.2258 166.426 24.2258ZM177.189 26.1758C176.211 26.1758 175.372 25.9745 174.672 25.5721C173.976 25.1696 173.44 24.6102 173.066 23.8938C172.692 23.1734 172.505 22.3403 172.505 21.3945C172.505 20.4447 172.692 19.6116 173.066 18.8952C173.444 18.1748 173.982 17.6134 174.678 17.2109C175.378 16.8085 176.213 16.6072 177.183 16.6072C178.041 16.6072 178.787 16.7622 179.423 17.0721C180.063 17.382 180.562 17.8207 180.92 18.3881C181.282 18.9516 181.474 19.6136 181.494 20.3743H178.735C178.679 19.8994 178.518 19.5271 178.252 19.2574C177.99 18.9878 177.648 18.853 177.226 18.853C176.884 18.853 176.584 18.9496 176.326 19.1427C176.069 19.3319 175.867 19.6136 175.722 19.9879C175.582 20.3582 175.511 20.817 175.511 21.3643C175.511 21.9117 175.582 22.3745 175.722 22.7528C175.867 23.1271 176.069 23.4109 176.326 23.604C176.584 23.7932 176.884 23.8878 177.226 23.8878C177.499 23.8878 177.741 23.8294 177.95 23.7127C178.163 23.596 178.338 23.4249 178.475 23.1996C178.612 22.9702 178.699 22.6925 178.735 22.3665H181.494C181.466 23.1311 181.274 23.7992 180.92 24.3707C180.57 24.9422 180.077 25.3869 179.441 25.7049C178.809 26.0188 178.059 26.1758 177.189 26.1758ZM185.667 23.5678L185.679 20.0483H186.089L188.697 16.728H192.042L188.166 21.4851H187.387L185.667 23.5678ZM183.004 26.0007V13.6371H185.957V26.0007H183.004ZM188.764 26.0007L186.337 22.1491L188.281 20.0543L192.175 26.0007H188.764ZM193.098 26.0007V13.6371H198.254C199.179 13.6371 199.954 13.7679 200.578 14.0295C201.206 14.2911 201.677 14.6573 201.991 15.1282C202.309 15.5991 202.468 16.1444 202.468 16.7642C202.468 17.2351 202.369 17.6556 202.172 18.0259C201.975 18.3922 201.703 18.696 201.357 18.9375C201.011 19.179 200.61 19.348 200.155 19.4446V19.5653C200.654 19.5895 201.115 19.7243 201.538 19.9698C201.964 20.2153 202.307 20.5574 202.564 20.9961C202.822 21.4307 202.95 21.9459 202.95 22.5415C202.95 23.2056 202.781 23.7992 202.443 24.3224C202.105 24.8416 201.616 25.2521 200.976 25.554C200.336 25.8518 199.56 26.0007 198.646 26.0007H193.098ZM196.086 23.592H197.934C198.582 23.592 199.059 23.4692 199.365 23.2237C199.674 22.9782 199.829 22.6361 199.829 22.1974C199.829 21.8795 199.755 21.6058 199.606 21.3764C199.457 21.143 199.246 20.9639 198.972 20.8391C198.698 20.7103 198.37 20.6459 197.988 20.6459H196.086V23.592ZM196.086 18.7202H197.741C198.067 18.7202 198.356 18.6658 198.61 18.5572C198.863 18.4485 199.061 18.2915 199.202 18.0863C199.346 17.881 199.419 17.6335 199.419 17.3437C199.419 16.9292 199.272 16.6032 198.978 16.3658C198.684 16.1283 198.288 16.0096 197.789 16.0096H196.086V18.7202ZM207.339 13.6371V26.0007H204.387V13.6371H207.339ZM209.218 26.0007V16.728H212.17V26.0007H209.218ZM210.697 15.6474C210.283 15.6474 209.927 15.5105 209.629 15.2369C209.331 14.9592 209.182 14.6251 209.182 14.2347C209.182 13.8484 209.331 13.5183 209.629 13.2447C209.927 12.967 210.283 12.8281 210.697 12.8281C211.116 12.8281 211.472 12.967 211.766 13.2447C212.064 13.5183 212.213 13.8484 212.213 14.2347C212.213 14.6251 212.064 14.9592 211.766 15.2369C211.472 15.5105 211.116 15.6474 210.697 15.6474ZM219.283 16.728V18.9013H213.434V16.728H219.283ZM214.659 14.5064H217.611V23.0849C217.611 23.266 217.639 23.4129 217.696 23.5256C217.756 23.6342 217.843 23.7127 217.955 23.761C218.068 23.8053 218.203 23.8274 218.36 23.8274C218.472 23.8274 218.591 23.8173 218.716 23.7972C218.845 23.7731 218.941 23.7529 219.006 23.7368L219.452 25.8679C219.312 25.9081 219.112 25.9584 218.855 26.0188C218.601 26.0792 218.297 26.1174 217.943 26.1335C217.251 26.1657 216.657 26.0852 216.162 25.892C215.671 25.6948 215.295 25.389 215.033 24.9744C214.776 24.5599 214.651 24.0387 214.659 23.4109V14.5064ZM220.814 26.0007V24.3164L225.112 19.0824V19.022H220.965V16.728H228.632V18.5753L224.647 23.6463V23.7067H228.776V26.0007H220.814Z" fill="#0098FB"/>
</g>
<defs>
<filter id="filter0_d_1_56" x="2.39972" y="0.39972" width="39.202" height="39.202" filterUnits="userSpaceOnUse" color-interpolation-filters="sRGB">
<feFlood flood-opacity="0" result="BackgroundImageFix"/>
<feColorMatrix in="SourceAlpha" type="matrix" values="0 0 0 0 0 0 0 0 0 0 0 0 0 0 0 0 0 0 127 0" result="hardAlpha"/>
<feOffset/>
<feGaussianBlur stdDeviation="2.80014"/>
<feComposite in2="hardAlpha" operator="out"/>
<feColorMatrix type="matrix" values="0 0 0 0 0 0 0 0 0 0 0 0 0 0 0 0 0 0 0.25 0"/>
<feBlend mode="normal" in2="BackgroundImageFix" result="effect1_dropShadow_1_56"/>
<feBlend mode="normal" in="SourceGraphic" in2="effect1_dropShadow_1_56" result="shape"/>
</filter>
<filter id="filter1_d_1_56" x="36.2871" y="3.78642" width="199.429" height="32.4286" filterUnits="userSpaceOnUse" color-interpolation-filters="sRGB">
<feFlood flood-opacity="0" result="BackgroundImageFix"/>
<feColorMatrix in="SourceAlpha" type="matrix" values="0 0 0 0 0 0 0 0 0 0 0 0 0 0 0 0 0 0 127 0" result="hardAlpha"/>
<feOffset/>
<feGaussianBlur stdDeviation="2.85714"/>
<feComposite in2="hardAlpha" operator="out"/>
<feColorMatrix type="matrix" values="0 0 0 0 0 0 0 0 0 0 0 0 0 0 0 0 0 0 0.25 0"/>
<feBlend mode="normal" in2="BackgroundImageFix" result="effect1_dropShadow_1_56"/>
<feBlend mode="normal" in="SourceGraphic" in2="effect1_dropShadow_1_56" result="shape"/>
</filter>
<linearGradient id="paint0_linear_1_56" x1="119.001" y1="0" x2="119.001" y2="40.0014" gradientUnits="userSpaceOnUse">
<stop stop-color="#003D64"/>
<stop offset="1" stop-color="#001E32"/>
</linearGradient>
</defs>
</svg>
