<svg width="164" height="56" viewBox="0 0 164 56" fill="none" xmlns="http://www.w3.org/2000/svg">
<rect width="164" height="56" rx="8" fill="url(#paint0_linear_1_50)"/>
<rect x="1.05" y="1.05" width="161.9" height="53.9" rx="6.95" stroke="white" stroke-opacity="0.15" stroke-width="2.1"/>
<g filter="url(#filter0_d_1_50)">
<path d="M30.1867 31.6367H18.25L40.0717 8L34.1967 24.3633H46.1333L24.3117 48L30.185 31.6367H30.1867Z" fill="#0098FB"/>
</g>
<g filter="url(#filter1_d_1_50)">
<path d="M62.2613 24.5H60.3977L64.5852 12.8636H66.6136L70.8011 24.5H68.9375L65.6477 14.9773H65.5568L62.2613 24.5ZM62.5738 19.9432H68.6193V21.4204H62.5738V19.9432ZM78.7173 15.7727L75.5525 24.5H73.7344L70.5639 15.7727H72.3878L74.598 22.4886H74.6889L76.8934 15.7727H78.7173ZM82.6037 24.6932C82.0506 24.6932 81.5506 24.5909 81.1037 24.3864C80.6567 24.178 80.3025 23.8769 80.0412 23.4829C79.7836 23.089 79.6548 22.6061 79.6548 22.0341C79.6548 21.5417 79.7495 21.1364 79.9389 20.8182C80.1283 20.5 80.384 20.2481 80.7059 20.0625C81.0279 19.8769 81.3878 19.7367 81.7855 19.642C82.1832 19.5473 82.5885 19.4754 83.0014 19.4261C83.5241 19.3655 83.9484 19.3163 84.2741 19.2784C84.5999 19.2367 84.8366 19.1704 84.9844 19.0795C85.1321 18.9886 85.2059 18.8409 85.2059 18.6364V18.5966C85.2059 18.1004 85.0658 17.7159 84.7855 17.4432C84.509 17.1704 84.0961 17.0341 83.5469 17.0341C82.9749 17.0341 82.5241 17.161 82.1946 17.4148C81.8688 17.6648 81.6434 17.9432 81.5184 18.25L79.9219 17.8864C80.1112 17.3561 80.3878 16.928 80.7514 16.6023C81.1188 16.2727 81.5412 16.0341 82.0184 15.8864C82.4957 15.7348 82.9976 15.6591 83.5241 15.6591C83.8726 15.6591 84.2419 15.7008 84.6321 15.7841C85.026 15.8636 85.3934 16.0114 85.7344 16.2273C86.079 16.4432 86.3612 16.7519 86.5809 17.1534C86.8006 17.5511 86.9105 18.0682 86.9105 18.7045V24.5H85.2514V23.3068H85.1832C85.0734 23.5265 84.9086 23.7424 84.6889 23.9545C84.4692 24.1667 84.187 24.3428 83.8423 24.4829C83.4976 24.6231 83.0847 24.6932 82.6037 24.6932ZM82.973 23.3295C83.4427 23.3295 83.8442 23.2367 84.1775 23.0511C84.5147 22.8655 84.7703 22.6231 84.9446 22.3239C85.1226 22.0208 85.2116 21.697 85.2116 21.3523V20.2273C85.151 20.2879 85.0336 20.3447 84.8594 20.3977C84.6889 20.447 84.4938 20.4905 84.2741 20.5284C84.0544 20.5625 83.8404 20.5947 83.6321 20.625C83.4237 20.6515 83.2495 20.6742 83.1094 20.6932C82.7798 20.7348 82.4787 20.8049 82.2059 20.9034C81.937 21.0019 81.7211 21.1439 81.5582 21.3295C81.3991 21.5114 81.3196 21.7538 81.3196 22.0568C81.3196 22.4773 81.4749 22.7954 81.7855 23.0114C82.0961 23.2235 82.4919 23.3295 82.973 23.3295ZM89.1733 24.5V15.7727H90.8721V24.5H89.1733ZM90.0312 14.4261C89.7358 14.4261 89.482 14.3276 89.2699 14.1307C89.0615 13.9299 88.9574 13.6913 88.9574 13.4148C88.9574 13.1345 89.0615 12.8958 89.2699 12.6989C89.482 12.4981 89.7358 12.3977 90.0312 12.3977C90.3267 12.3977 90.5786 12.4981 90.7869 12.6989C90.999 12.8958 91.1051 13.1345 91.1051 13.4148C91.1051 13.6913 90.999 13.9299 90.7869 14.1307C90.5786 14.3276 90.3267 14.4261 90.0312 14.4261ZM94.8565 12.8636V24.5H93.1576V12.8636H94.8565ZM99.6818 24.6932C99.1288 24.6932 98.6288 24.5909 98.1818 24.3864C97.7348 24.178 97.3807 23.8769 97.1193 23.4829C96.8617 23.089 96.7329 22.6061 96.7329 22.0341C96.7329 21.5417 96.8276 21.1364 97.017 20.8182C97.2064 20.5 97.4621 20.2481 97.7841 20.0625C98.106 19.8769 98.4659 19.7367 98.8636 19.642C99.2613 19.5473 99.6666 19.4754 100.08 19.4261C100.602 19.3655 101.026 19.3163 101.352 19.2784C101.678 19.2367 101.915 19.1704 102.062 19.0795C102.21 18.9886 102.284 18.8409 102.284 18.6364V18.5966C102.284 18.1004 102.144 17.7159 101.864 17.4432C101.587 17.1704 101.174 17.0341 100.625 17.0341C100.053 17.0341 99.6022 17.161 99.2727 17.4148C98.9469 17.6648 98.7216 17.9432 98.5966 18.25L97 17.8864C97.1894 17.3561 97.4659 16.928 97.8295 16.6023C98.1969 16.2727 98.6193 16.0341 99.0966 15.8864C99.5738 15.7348 100.076 15.6591 100.602 15.6591C100.951 15.6591 101.32 15.7008 101.71 15.7841C102.104 15.8636 102.472 16.0114 102.812 16.2273C103.157 16.4432 103.439 16.7519 103.659 17.1534C103.879 17.5511 103.989 18.0682 103.989 18.7045V24.5H102.33V23.3068H102.261C102.151 23.5265 101.987 23.7424 101.767 23.9545C101.547 24.1667 101.265 24.3428 100.92 24.4829C100.576 24.6231 100.163 24.6932 99.6818 24.6932ZM100.051 23.3295C100.521 23.3295 100.922 23.2367 101.256 23.0511C101.593 22.8655 101.848 22.6231 102.023 22.3239C102.201 22.0208 102.29 21.697 102.29 21.3523V20.2273C102.229 20.2879 102.112 20.3447 101.937 20.3977C101.767 20.447 101.572 20.4905 101.352 20.5284C101.133 20.5625 100.919 20.5947 100.71 20.625C100.502 20.6515 100.328 20.6742 100.187 20.6932C99.8579 20.7348 99.5568 20.8049 99.2841 20.9034C99.0151 21.0019 98.7992 21.1439 98.6363 21.3295C98.4772 21.5114 98.3977 21.7538 98.3977 22.0568C98.3977 22.4773 98.553 22.7954 98.8636 23.0114C99.1742 23.2235 99.57 23.3295 100.051 23.3295ZM106.388 24.5V12.8636H108.087V17.1875H108.189C108.287 17.0057 108.429 16.7954 108.615 16.5568C108.801 16.3182 109.058 16.1098 109.388 15.9318C109.717 15.75 110.153 15.6591 110.695 15.6591C111.399 15.6591 112.028 15.8371 112.581 16.1932C113.134 16.5492 113.568 17.0625 113.882 17.7329C114.2 18.4034 114.359 19.2102 114.359 20.1534C114.359 21.0966 114.202 21.9053 113.888 22.5795C113.573 23.25 113.142 23.767 112.592 24.1307C112.043 24.4905 111.416 24.6704 110.712 24.6704C110.181 24.6704 109.748 24.5814 109.41 24.4034C109.077 24.2254 108.816 24.017 108.626 23.7784C108.437 23.5398 108.291 23.3276 108.189 23.142H108.047V24.5H106.388ZM108.053 20.1364C108.053 20.75 108.142 21.2879 108.32 21.75C108.498 22.2121 108.755 22.5739 109.092 22.8352C109.429 23.0928 109.842 23.2216 110.331 23.2216C110.839 23.2216 111.263 23.0871 111.604 22.8182C111.945 22.5454 112.202 22.1761 112.376 21.7102C112.554 21.2443 112.643 20.7197 112.643 20.1364C112.643 19.5606 112.556 19.0436 112.382 18.5852C112.212 18.1269 111.954 17.7651 111.609 17.5C111.268 17.2348 110.842 17.1023 110.331 17.1023C109.839 17.1023 109.422 17.2292 109.081 17.4829C108.744 17.7367 108.488 18.0909 108.314 18.5454C108.14 19 108.053 19.5303 108.053 20.1364ZM117.966 12.8636V24.5H116.267V12.8636H117.966ZM124.013 24.6761C123.153 24.6761 122.412 24.4924 121.791 24.125C121.174 23.7538 120.696 23.2329 120.359 22.5625C120.026 21.8883 119.859 21.0985 119.859 20.1932C119.859 19.2992 120.026 18.5114 120.359 17.8295C120.696 17.1477 121.166 16.6155 121.768 16.2329C122.374 15.8504 123.083 15.6591 123.893 15.6591C124.386 15.6591 124.863 15.7405 125.325 15.9034C125.787 16.0663 126.202 16.322 126.57 16.6704C126.937 17.0189 127.227 17.4716 127.439 18.0284C127.651 18.5814 127.757 19.2538 127.757 20.0454V20.6477H120.82V19.375H126.092C126.092 18.928 126.001 18.5322 125.82 18.1875C125.638 17.839 125.382 17.5644 125.053 17.3636C124.727 17.1629 124.344 17.0625 123.905 17.0625C123.428 17.0625 123.011 17.1799 122.655 17.4148C122.303 17.6458 122.03 17.9489 121.837 18.3239C121.647 18.6951 121.553 19.0985 121.553 19.5341V20.5284C121.553 21.1117 121.655 21.6079 121.859 22.017C122.068 22.4261 122.357 22.7386 122.729 22.9545C123.1 23.1667 123.534 23.2727 124.03 23.2727C124.352 23.2727 124.645 23.2273 124.91 23.1364C125.176 23.0417 125.405 22.9015 125.598 22.7159C125.791 22.5303 125.939 22.3011 126.041 22.0284L127.649 22.3182C127.52 22.7917 127.289 23.2064 126.956 23.5625C126.626 23.9148 126.212 24.1894 125.712 24.3864C125.215 24.5795 124.649 24.6761 124.013 24.6761ZM137.553 24.6761C136.734 24.6761 136.02 24.4886 135.41 24.1136C134.801 23.7386 134.327 23.214 133.99 22.5398C133.653 21.8655 133.484 21.0776 133.484 20.1761C133.484 19.2708 133.653 18.4792 133.99 17.8011C134.327 17.1231 134.801 16.5966 135.41 16.2216C136.02 15.8466 136.734 15.6591 137.553 15.6591C138.371 15.6591 139.085 15.8466 139.695 16.2216C140.304 16.5966 140.778 17.1231 141.115 17.8011C141.452 18.4792 141.621 19.2708 141.621 20.1761C141.621 21.0776 141.452 21.8655 141.115 22.5398C140.778 23.214 140.304 23.7386 139.695 24.1136C139.085 24.4886 138.371 24.6761 137.553 24.6761ZM137.558 23.25C138.089 23.25 138.528 23.1098 138.876 22.8295C139.225 22.5492 139.482 22.1761 139.649 21.7102C139.82 21.2443 139.905 20.7311 139.905 20.1704C139.905 19.6136 139.82 19.1023 139.649 18.6364C139.482 18.1667 139.225 17.7898 138.876 17.5057C138.528 17.2216 138.089 17.0795 137.558 17.0795C137.024 17.0795 136.581 17.2216 136.229 17.5057C135.88 17.7898 135.621 18.1667 135.45 18.6364C135.284 19.1023 135.2 19.6136 135.2 20.1704C135.2 20.7311 135.284 21.2443 135.45 21.7102C135.621 22.1761 135.88 22.5492 136.229 22.8295C136.581 23.1098 137.024 23.25 137.558 23.25ZM145.216 19.3182V24.5H143.517V15.7727H145.148V17.1932H145.256C145.456 16.7311 145.771 16.3598 146.199 16.0795C146.631 15.7992 147.174 15.6591 147.83 15.6591C148.424 15.6591 148.945 15.7841 149.392 16.0341C149.839 16.2803 150.186 16.6477 150.432 17.1364C150.678 17.625 150.801 18.2292 150.801 18.9489V24.5H149.102V19.1534C149.102 18.5208 148.937 18.0265 148.608 17.6704C148.278 17.3106 147.826 17.1307 147.25 17.1307C146.856 17.1307 146.506 17.2159 146.199 17.3864C145.896 17.5568 145.655 17.8068 145.477 18.1364C145.303 18.4621 145.216 18.8561 145.216 19.3182Z" fill="#E8E8E8"/>
<path d="M67.6186 34.843C67.5783 34.4003 67.3992 34.0562 67.0813 33.8107C66.7674 33.5612 66.3186 33.4364 65.7351 33.4364C65.3487 33.4364 65.0267 33.4867 64.7692 33.5873C64.5116 33.688 64.3184 33.8268 64.1896 34.0039C64.0608 34.177 63.9944 34.3762 63.9904 34.6016C63.9823 34.7867 64.0186 34.9497 64.0991 35.0905C64.1836 35.2314 64.3043 35.3562 64.4613 35.4648C64.6223 35.5695 64.8154 35.662 65.0408 35.7425C65.2662 35.823 65.5198 35.8935 65.8015 35.9538L66.864 36.1953C67.4757 36.3281 68.015 36.5052 68.4819 36.7266C68.9528 36.9479 69.3472 37.2115 69.6651 37.5174C69.9871 37.8233 70.2306 38.1754 70.3956 38.5739C70.5606 38.9723 70.6451 39.419 70.6491 39.9141C70.6451 40.6948 70.4479 41.3649 70.0575 41.9243C69.6671 42.4838 69.1057 42.9124 68.3732 43.2102C67.6448 43.508 66.7654 43.6569 65.7351 43.6569C64.7007 43.6569 63.7992 43.502 63.0305 43.1921C62.2618 42.8822 61.6642 42.4113 61.2376 41.7795C60.8109 41.1476 60.5916 40.3487 60.5795 39.3828H63.441C63.4652 39.7812 63.5718 40.1133 63.761 40.3789C63.9501 40.6445 64.2097 40.8458 64.5398 40.9826C64.8738 41.1194 65.2602 41.1878 65.6988 41.1878C66.1013 41.1878 66.4434 41.1335 66.7251 41.0248C67.0109 40.9162 67.2302 40.7653 67.3832 40.5721C67.5361 40.3789 67.6146 40.1575 67.6186 39.908C67.6146 39.6746 67.5421 39.4754 67.4013 39.3104C67.2604 39.1413 67.0431 38.9964 66.7493 38.8757C66.4595 38.7509 66.0892 38.6362 65.6385 38.5316L64.3466 38.2297C63.276 37.9842 62.4329 37.5878 61.8171 37.0405C61.2013 36.4891 60.8955 35.7445 60.8995 34.8068C60.8955 34.0421 61.1007 33.372 61.5153 32.7965C61.9298 32.221 62.5033 31.7722 63.2358 31.4503C63.9683 31.1283 64.8034 30.9673 65.7411 30.9673C66.699 30.9673 67.53 31.1303 68.2344 31.4563C68.9427 31.7783 69.4921 32.2311 69.8824 32.8146C70.2728 33.3982 70.472 34.0743 70.4801 34.843H67.6186ZM77.3924 34.2273V36.4006H71.5426V34.2273H77.3924ZM72.7681 32.0057H75.7202V40.5842C75.7202 40.7653 75.7483 40.9122 75.8047 41.0248C75.865 41.1335 75.9516 41.212 76.0643 41.2603C76.1769 41.3046 76.3118 41.3267 76.4687 41.3267C76.5814 41.3267 76.7001 41.3166 76.8249 41.2965C76.9537 41.2724 77.0503 41.2522 77.1147 41.2361L77.5614 43.3672C77.4206 43.4074 77.2213 43.4577 76.9638 43.5181C76.7102 43.5785 76.4063 43.6167 76.0522 43.6328C75.3599 43.665 74.7663 43.5845 74.2713 43.3913C73.7803 43.1941 73.404 42.8882 73.1424 42.4737C72.8848 42.0592 72.76 41.538 72.7681 40.9101V32.0057ZM81.5126 43.6569C80.921 43.6569 80.3958 43.5583 79.9369 43.3611C79.4822 43.1599 79.122 42.8581 78.8563 42.4556C78.5947 42.0491 78.4639 41.54 78.4639 40.9283C78.4639 40.4131 78.5545 39.9784 78.7356 39.6243C78.9167 39.2701 79.1662 38.9824 79.4842 38.761C79.8021 38.5396 80.1684 38.3726 80.5829 38.2599C80.9974 38.1432 81.4401 38.0647 81.911 38.0245C82.4382 37.9762 82.8628 37.9259 83.1848 37.8736C83.5068 37.8172 83.7402 37.7387 83.8851 37.6381C84.034 37.5335 84.1085 37.3866 84.1085 37.1974V37.1672C84.1085 36.8574 84.0018 36.6179 83.7885 36.4489C83.5752 36.2798 83.2874 36.1953 82.9252 36.1953C82.5348 36.1953 82.2209 36.2798 81.9835 36.4489C81.746 36.6179 81.5951 36.8513 81.5307 37.1491L78.808 37.0525C78.8885 36.4891 79.0958 35.986 79.4298 35.5433C79.7679 35.0966 80.2307 34.7464 80.8183 34.4929C81.41 34.2353 82.1203 34.1065 82.9494 34.1065C83.541 34.1065 84.0863 34.177 84.5854 34.3178C85.0844 34.4547 85.5191 34.6559 85.8894 34.9215C86.2596 35.1831 86.5454 35.5051 86.7466 35.8874C86.9519 36.2698 87.0545 36.7064 87.0545 37.1974V43.5H84.2775V42.2081H84.2051C84.04 42.522 83.8288 42.7876 83.5712 43.005C83.3176 43.2223 83.0178 43.3853 82.6717 43.494C82.3296 43.6026 81.9432 43.6569 81.5126 43.6569ZM82.4242 41.7251C82.7421 41.7251 83.0279 41.6607 83.2814 41.5319C83.539 41.4032 83.7442 41.2261 83.8972 41.0007C84.0501 40.7713 84.1266 40.5057 84.1266 40.2038V39.3224C84.0421 39.3667 83.9394 39.4069 83.8187 39.4432C83.702 39.4794 83.5732 39.5136 83.4323 39.5458C83.2915 39.578 83.1466 39.6062 82.9977 39.6303C82.8488 39.6545 82.7059 39.6766 82.569 39.6967C82.2913 39.741 82.0539 39.8094 81.8567 39.902C81.6635 39.9945 81.5146 40.1153 81.41 40.2642C81.3093 40.4091 81.259 40.5821 81.259 40.7834C81.259 41.0892 81.3677 41.3227 81.585 41.4837C81.8064 41.6446 82.0861 41.7251 82.4242 41.7251ZM93.188 43.6751C92.21 43.6751 91.3709 43.4738 90.6706 43.0714C89.9743 42.6689 89.4391 42.1095 89.0648 41.3931C88.6905 40.6727 88.5033 39.8396 88.5033 38.8938C88.5033 37.944 88.6905 37.1109 89.0648 36.3945C89.4431 35.6741 89.9804 35.1127 90.6766 34.7102C91.3769 34.3078 92.212 34.1065 93.182 34.1065C94.0392 34.1065 94.7858 34.2615 95.4217 34.5714C96.0616 34.8813 96.5606 35.3199 96.9188 35.8874C97.281 36.4509 97.4722 37.1129 97.4923 37.8736H94.7335C94.6771 37.3987 94.5161 37.0264 94.2505 36.7567C93.9889 36.4871 93.6468 36.3523 93.2242 36.3523C92.8821 36.3523 92.5823 36.4489 92.3247 36.642C92.0672 36.8312 91.8659 37.1129 91.721 37.4872C91.5802 37.8575 91.5097 38.3163 91.5097 38.8636C91.5097 39.411 91.5802 39.8738 91.721 40.2521C91.8659 40.6264 92.0672 40.9101 92.3247 41.1033C92.5823 41.2925 92.8821 41.3871 93.2242 41.3871C93.4979 41.3871 93.7394 41.3287 93.9487 41.212C94.162 41.0953 94.337 40.9242 94.4739 40.6989C94.6107 40.4694 94.6972 40.1918 94.7335 39.8658H97.4923C97.4642 40.6304 97.273 41.2985 96.9188 41.87C96.5687 42.4415 96.0757 42.8862 95.4398 43.2042C94.8079 43.5181 94.0573 43.6751 93.188 43.6751ZM101.665 41.0671L101.677 37.5476H102.088L104.696 34.2273H108.04L104.165 38.9844H103.386L101.665 41.0671ZM99.0031 43.5V31.1364H101.955V43.5H99.0031ZM104.762 43.5L102.335 39.6484L104.279 37.5536L108.173 43.5H104.762ZM109.097 43.5V31.1364H114.252C115.178 31.1364 115.953 31.2672 116.577 31.5288C117.204 31.7904 117.675 32.1566 117.989 32.6275C118.307 33.0984 118.466 33.6437 118.466 34.2635C118.466 34.7344 118.368 35.1549 118.17 35.5252C117.973 35.8914 117.701 36.1953 117.355 36.4368C117.009 36.6783 116.609 36.8473 116.154 36.9439V37.0646C116.653 37.0888 117.114 37.2236 117.536 37.4691C117.963 37.7146 118.305 38.0567 118.563 38.4954C118.82 38.93 118.949 39.4452 118.949 40.0408C118.949 40.7049 118.78 41.2985 118.442 41.8217C118.104 42.3409 117.615 42.7514 116.975 43.0533C116.335 43.3511 115.558 43.5 114.645 43.5H109.097ZM112.085 41.0913H113.932C114.58 41.0913 115.057 40.9685 115.363 40.723C115.673 40.4775 115.828 40.1354 115.828 39.6967C115.828 39.3788 115.754 39.1051 115.605 38.8757C115.456 38.6423 115.244 38.4632 114.971 38.3384C114.697 38.2096 114.369 38.1452 113.987 38.1452H112.085V41.0913ZM112.085 36.2195H113.739C114.065 36.2195 114.355 36.1651 114.609 36.0565C114.862 35.9478 115.059 35.7908 115.2 35.5856C115.345 35.3803 115.417 35.1328 115.417 34.843C115.417 34.4285 115.271 34.1025 114.977 33.865C114.683 33.6276 114.287 33.5089 113.788 33.5089H112.085V36.2195ZM123.338 31.1364V43.5H120.386V31.1364H123.338ZM125.217 43.5V34.2273H128.169V43.5H125.217ZM126.696 33.1467C126.281 33.1467 125.925 33.0098 125.627 32.7361C125.33 32.4584 125.181 32.1244 125.181 31.734C125.181 31.3476 125.33 31.0176 125.627 30.744C125.925 30.4663 126.281 30.3274 126.696 30.3274C127.115 30.3274 127.471 30.4663 127.765 30.744C128.062 31.0176 128.211 31.3476 128.211 31.734C128.211 32.1244 128.062 32.4584 127.765 32.7361C127.471 33.0098 127.115 33.1467 126.696 33.1467ZM135.282 34.2273V36.4006H129.432V34.2273H135.282ZM130.658 32.0057H133.61V40.5842C133.61 40.7653 133.638 40.9122 133.694 41.0248C133.755 41.1335 133.841 41.212 133.954 41.2603C134.067 41.3046 134.201 41.3267 134.358 41.3267C134.471 41.3267 134.59 41.3166 134.715 41.2965C134.843 41.2724 134.94 41.2522 135.004 41.2361L135.451 43.3672C135.31 43.4074 135.111 43.4577 134.853 43.5181C134.6 43.5785 134.296 43.6167 133.942 43.6328C133.25 43.665 132.656 43.5845 132.161 43.3913C131.67 43.1941 131.294 42.8882 131.032 42.4737C130.774 42.0592 130.65 41.538 130.658 40.9101V32.0057ZM136.812 43.5V41.8157L141.111 36.5817V36.5213H136.963V34.2273H144.63V36.0746L140.646 41.1456V41.206H144.775V43.5H136.812Z" fill="#0098FB"/>
</g>
<defs>
<filter id="filter0_d_1_50" x="6.28571" y="2.28571" width="51.4286" height="51.4286" filterUnits="userSpaceOnUse" color-interpolation-filters="sRGB">
<feFlood flood-opacity="0" result="BackgroundImageFix"/>
<feColorMatrix in="SourceAlpha" type="matrix" values="0 0 0 0 0 0 0 0 0 0 0 0 0 0 0 0 0 0 127 0" result="hardAlpha"/>
<feOffset/>
<feGaussianBlur stdDeviation="2.85714"/>
<feComposite in2="hardAlpha" operator="out"/>
<feColorMatrix type="matrix" values="0 0 0 0 0 0 0 0 0 0 0 0 0 0 0 0 0 0 0.25 0"/>
<feBlend mode="normal" in2="BackgroundImageFix" result="effect1_dropShadow_1_50"/>
<feBlend mode="normal" in="SourceGraphic" in2="effect1_dropShadow_1_50" result="shape"/>
</filter>
<filter id="filter1_d_1_50" x="54.4" y="3.9" width="103.2" height="48.2" filterUnits="userSpaceOnUse" color-interpolation-filters="sRGB">
<feFlood flood-opacity="0" result="BackgroundImageFix"/>
<feColorMatrix in="SourceAlpha" type="matrix" values="0 0 0 0 0 0 0 0 0 0 0 0 0 0 0 0 0 0 127 0" result="hardAlpha"/>
<feOffset/>
<feGaussianBlur stdDeviation="2.8"/>
<feComposite in2="hardAlpha" operator="out"/>
<feColorMatrix type="matrix" values="0 0 0 0 0 0 0 0 0 0 0 0 0 0 0 0 0 0 0.25 0"/>
<feBlend mode="normal" in2="BackgroundImageFix" result="effect1_dropShadow_1_50"/>
<feBlend mode="normal" in="SourceGraphic" in2="effect1_dropShadow_1_50" result="shape"/>
</filter>
<linearGradient id="paint0_linear_1_50" x1="82" y1="0" x2="82" y2="56" gradientUnits="userSpaceOnUse">
<stop stop-color="#003D64"/>
<stop offset="1" stop-color="#001E32"/>
</linearGradient>
</defs>
</svg>
