<svg width="40" height="40" viewBox="0 0 40 40" fill="none" xmlns="http://www.w3.org/2000/svg">
<rect width="40" height="40" rx="8" fill="url(#paint0_linear_1_68)"/>
<rect x="1.05" y="1.05" width="37.9" height="37.9" rx="6.95" stroke="white" stroke-opacity="0.15" stroke-width="2.1"/>
<g filter="url(#filter0_d_1_68)">
<path d="M20.0046 6C14.1597 6 12.4503 6.00603 12.118 6.03359C10.9186 6.1333 10.1722 6.32215 9.35903 6.727C8.73238 7.03817 8.23817 7.39888 7.75041 7.9045C6.86212 8.82661 6.32376 9.96104 6.12887 11.3095C6.03412 11.9642 6.00656 12.0977 6.00096 15.4415C5.9988 16.5562 6.00096 18.0231 6.00096 19.9907C6.00096 25.8308 6.00742 27.5385 6.03541 27.8701C6.13232 29.0373 6.31536 29.7716 6.70298 30.5749C7.44376 32.1124 8.85857 33.2667 10.5253 33.6973C11.1025 33.8459 11.7399 33.9278 12.5582 33.9665C12.9049 33.9816 16.4387 33.9924 19.9746 33.9924C23.5106 33.9924 27.0465 33.9881 27.3846 33.9708C28.3321 33.9263 28.8823 33.8524 29.4907 33.6952C31.1682 33.2623 32.5572 32.1253 33.3131 30.5662C33.6931 29.7824 33.8859 29.0201 33.9731 27.9138C33.992 27.6727 34 23.8273 34 19.987C34 16.1462 33.9914 12.3079 33.9724 12.0667C33.8841 10.9426 33.6914 10.1867 33.2991 9.38779C32.9771 8.73379 32.6196 8.24539 32.1007 7.74601C31.1745 6.86138 30.0418 6.32302 28.692 6.12835C28.038 6.03381 27.9077 6.00581 24.5613 6H20.0046Z" fill="url(#paint1_radial_1_68)"/>
<path d="M20.0046 6C14.1597 6 12.4503 6.00603 12.118 6.03359C10.9186 6.1333 10.1722 6.32215 9.35903 6.727C8.73238 7.03817 8.23817 7.39888 7.75041 7.9045C6.86212 8.82661 6.32376 9.96104 6.12887 11.3095C6.03412 11.9642 6.00656 12.0977 6.00096 15.4415C5.9988 16.5562 6.00096 18.0231 6.00096 19.9907C6.00096 25.8308 6.00742 27.5385 6.03541 27.8701C6.13232 29.0373 6.31536 29.7716 6.70298 30.5749C7.44376 32.1124 8.85857 33.2667 10.5253 33.6973C11.1025 33.8459 11.7399 33.9278 12.5582 33.9665C12.9049 33.9816 16.4387 33.9924 19.9746 33.9924C23.5106 33.9924 27.0465 33.9881 27.3846 33.9708C28.3321 33.9263 28.8823 33.8524 29.4907 33.6952C31.1682 33.2623 32.5572 32.1253 33.3131 30.5662C33.6931 29.7824 33.8859 29.0201 33.9731 27.9138C33.992 27.6727 34 23.8273 34 19.987C34 16.1462 33.9914 12.3079 33.9724 12.0667C33.8841 10.9426 33.6914 10.1867 33.2991 9.38779C32.9771 8.73379 32.6196 8.24539 32.1007 7.74601C31.1745 6.86138 30.0418 6.32302 28.692 6.12835C28.038 6.03381 27.9077 6.00581 24.5613 6H20.0046Z" fill="url(#paint2_radial_1_68)"/>
<path d="M19.9981 9.66085C17.1909 9.66085 16.8386 9.67313 15.736 9.7233C14.6356 9.77369 13.8845 9.9479 13.2273 10.2035C12.5474 10.4675 11.9707 10.8207 11.3962 11.3954C10.8212 11.97 10.4681 12.5467 10.2032 13.2263C9.94692 13.8837 9.77249 14.6351 9.72296 15.7351C9.67365 16.8376 9.66073 17.1901 9.66073 19.9974C9.66073 22.8046 9.67322 23.1558 9.72318 24.2584C9.77378 25.3588 9.948 26.1099 10.2034 26.7671C10.4676 27.447 10.8208 28.0237 11.3955 28.5982C11.9699 29.1732 12.5466 29.5272 13.226 29.7912C13.8836 30.0468 14.635 30.221 15.7352 30.2714C16.8377 30.3216 17.1898 30.3339 19.9968 30.3339C22.8043 30.3339 23.1555 30.3216 24.258 30.2714C25.3585 30.221 26.1104 30.0468 26.7681 29.7912C27.4477 29.5272 28.0236 29.1732 28.5979 28.5982C29.1728 28.0237 29.526 27.447 29.7909 26.7674C30.045 26.1099 30.2194 25.3586 30.2711 24.2586C30.3206 23.156 30.3335 22.8046 30.3335 19.9974C30.3335 17.1901 30.3206 16.8378 30.2711 15.7353C30.2194 14.6349 30.045 13.8837 29.7909 13.2265C29.526 12.5467 29.1728 11.97 28.5979 11.3954C28.0229 10.8205 27.4479 10.4673 26.7675 10.2035C26.1085 9.9479 25.3569 9.77369 24.2565 9.7233C23.154 9.67313 22.803 9.66085 19.9949 9.66085H19.9981ZM19.0708 11.5236C19.346 11.5231 19.6531 11.5236 19.9981 11.5236C22.758 11.5236 23.0851 11.5335 24.1749 11.583C25.1827 11.6291 25.7297 11.7975 26.0941 11.939C26.5764 12.1263 26.9203 12.3503 27.2819 12.7121C27.6437 13.0738 27.8676 13.4184 28.0554 13.9008C28.1969 14.2647 28.3655 14.8117 28.4114 15.8195C28.4609 16.9091 28.4717 17.2364 28.4717 19.995C28.4717 22.7536 28.4609 23.0809 28.4114 24.1705C28.3653 25.1783 28.1969 25.7253 28.0554 26.0892C27.8681 26.5716 27.6437 26.9151 27.2819 27.2766C26.9201 27.6384 26.5767 27.8624 26.0941 28.0497C25.7301 28.1919 25.1827 28.3598 24.1749 28.4059C23.0853 28.4554 22.758 28.4662 19.9981 28.4662C17.238 28.4662 16.9109 28.4554 15.8213 28.4059C14.8135 28.3594 14.2665 28.191 13.9019 28.0495C13.4196 27.8622 13.075 27.6382 12.7132 27.2764C12.3515 26.9147 12.1275 26.571 11.9397 26.0884C11.7982 25.7244 11.6296 25.1775 11.5838 24.1697C11.5342 23.08 11.5243 22.7527 11.5243 19.9924C11.5243 17.2321 11.5342 16.9065 11.5838 15.8169C11.6298 14.8091 11.7982 14.2621 11.9397 13.8977C12.1271 13.4154 12.3515 13.0708 12.7132 12.709C13.075 12.3473 13.4196 12.1233 13.9019 11.9355C14.2663 11.7934 14.8135 11.6254 15.8213 11.5791C16.7748 11.5361 17.1444 11.5231 19.0708 11.521V11.5236ZM25.5157 13.2399C24.8309 13.2399 24.2753 13.7948 24.2753 14.4798C24.2753 15.1646 24.8309 15.7202 25.5157 15.7202C26.2004 15.7202 26.756 15.1646 26.756 14.4798C26.756 13.795 26.2004 13.2394 25.5157 13.2394V13.2399ZM19.9981 14.6891C17.0666 14.6891 14.6899 17.0659 14.6899 19.9974C14.6899 22.9288 17.0666 25.3045 19.9981 25.3045C22.9296 25.3045 25.3055 22.9288 25.3055 19.9974C25.3055 17.0659 22.9296 14.6891 19.9981 14.6891ZM19.9981 16.5519C21.9009 16.5519 23.4436 18.0944 23.4436 19.9974C23.4436 21.9001 21.9009 23.4429 19.9981 23.4429C18.0951 23.4429 16.5526 21.9001 16.5526 19.9974C16.5526 18.0944 18.0951 16.5519 19.9981 16.5519Z" fill="white"/>
</g>
<defs>
<filter id="filter0_d_1_68" x="2" y="2" width="36" height="36" filterUnits="userSpaceOnUse" color-interpolation-filters="sRGB">
<feFlood flood-opacity="0" result="BackgroundImageFix"/>
<feColorMatrix in="SourceAlpha" type="matrix" values="0 0 0 0 0 0 0 0 0 0 0 0 0 0 0 0 0 0 127 0" result="hardAlpha"/>
<feOffset/>
<feGaussianBlur stdDeviation="2"/>
<feComposite in2="hardAlpha" operator="out"/>
<feColorMatrix type="matrix" values="0 0 0 0 0 0 0 0 0 0 0 0 0 0 0 0 0 0 0.25 0"/>
<feBlend mode="normal" in2="BackgroundImageFix" result="effect1_dropShadow_1_68"/>
<feBlend mode="normal" in="SourceGraphic" in2="effect1_dropShadow_1_68" result="shape"/>
</filter>
<linearGradient id="paint0_linear_1_68" x1="20" y1="0" x2="20" y2="40" gradientUnits="userSpaceOnUse">
<stop stop-color="#50227A"/>
<stop offset="1" stop-color="#1B0B29"/>
</linearGradient>
<radialGradient id="paint1_radial_1_68" cx="0" cy="0" r="1" gradientUnits="userSpaceOnUse" gradientTransform="translate(13.4375 36.1484) rotate(-90) scale(27.7425 25.8097)">
<stop stop-color="#FFDD55"/>
<stop offset="0.1" stop-color="#FFDD55"/>
<stop offset="0.5" stop-color="#FF543E"/>
<stop offset="1" stop-color="#C837AB"/>
</radialGradient>
<radialGradient id="paint2_radial_1_68" cx="0" cy="0" r="1" gradientUnits="userSpaceOnUse" gradientTransform="translate(1.30985 8.01652) rotate(78.6776) scale(12.4011 51.1309)">
<stop stop-color="#3771C8"/>
<stop offset="0.128" stop-color="#3771C8"/>
<stop offset="1" stop-color="#6600FF" stop-opacity="0"/>
</radialGradient>
</defs>
</svg>
