<svg width="226" height="40" viewBox="0 0 226 40" fill="none" xmlns="http://www.w3.org/2000/svg">
<rect width="226.001" height="40.0014" rx="8" fill="url(#paint0_linear_1_56)"/>
<rect x="1.07143" y="1.07143" width="223.858" height="37.8585" rx="6.92857" stroke="white" stroke-opacity="0.15" stroke-width="2.14286"/>
<g filter="url(#filter0_d_1_56)">
<path d="M22.0046 6C16.1597 6 14.4503 6.00603 14.118 6.03359C12.9186 6.1333 12.1722 6.32215 11.359 6.727C10.7324 7.03817 10.2382 7.39888 9.75041 7.9045C8.86212 8.82661 8.32376 9.96104 8.12887 11.3095C8.03412 11.9642 8.00656 12.0977 8.00096 15.4415C7.9988 16.5562 8.00096 18.0231 8.00096 19.9907C8.00096 25.8308 8.00742 27.5385 8.03541 27.8701C8.13232 29.0373 8.31536 29.7716 8.70298 30.5749C9.44376 32.1124 10.8586 33.2667 12.5253 33.6973C13.1025 33.8459 13.7399 33.9278 14.5582 33.9665C14.9049 33.9816 18.4387 33.9924 21.9746 33.9924C25.5106 33.9924 29.0465 33.9881 29.3846 33.9708C30.3321 33.9263 30.8823 33.8524 31.4907 33.6952C33.1682 33.2623 34.5572 32.1253 35.3131 30.5662C35.6931 29.7824 35.8859 29.0201 35.9731 27.9138C35.992 27.6727 36 23.8273 36 19.987C36 16.1462 35.9914 12.3079 35.9724 12.0667C35.8841 10.9426 35.6914 10.1867 35.2991 9.38779C34.9771 8.73379 34.6196 8.24539 34.1007 7.74601C33.1745 6.86138 32.0418 6.32302 30.692 6.12835C30.038 6.03381 29.9077 6.00581 26.5613 6H22.0046Z" fill="url(#paint1_radial_1_56)"/>
<path d="M22.0046 6C16.1597 6 14.4503 6.00603 14.118 6.03359C12.9186 6.1333 12.1722 6.32215 11.359 6.727C10.7324 7.03817 10.2382 7.39888 9.75041 7.9045C8.86212 8.82661 8.32376 9.96104 8.12887 11.3095C8.03412 11.9642 8.00656 12.0977 8.00096 15.4415C7.9988 16.5562 8.00096 18.0231 8.00096 19.9907C8.00096 25.8308 8.00742 27.5385 8.03541 27.8701C8.13232 29.0373 8.31536 29.7716 8.70298 30.5749C9.44376 32.1124 10.8586 33.2667 12.5253 33.6973C13.1025 33.8459 13.7399 33.9278 14.5582 33.9665C14.9049 33.9816 18.4387 33.9924 21.9746 33.9924C25.5106 33.9924 29.0465 33.9881 29.3846 33.9708C30.3321 33.9263 30.8823 33.8524 31.4907 33.6952C33.1682 33.2623 34.5572 32.1253 35.3131 30.5662C35.6931 29.7824 35.8859 29.0201 35.9731 27.9138C35.992 27.6727 36 23.8273 36 19.987C36 16.1462 35.9914 12.3079 35.9724 12.0667C35.8841 10.9426 35.6914 10.1867 35.2991 9.38779C34.9771 8.73379 34.6196 8.24539 34.1007 7.74601C33.1745 6.86138 32.0418 6.32302 30.692 6.12835C30.038 6.03381 29.9077 6.00581 26.5613 6H22.0046Z" fill="url(#paint2_radial_1_56)"/>
<path d="M21.9981 9.66085C19.1909 9.66085 18.8386 9.67313 17.736 9.7233C16.6356 9.77369 15.8845 9.9479 15.2273 10.2035C14.5474 10.4675 13.9707 10.8207 13.3962 11.3954C12.8212 11.97 12.4681 12.5467 12.2032 13.2263C11.9469 13.8837 11.7725 14.6351 11.723 15.7351C11.6736 16.8376 11.6607 17.1901 11.6607 19.9974C11.6607 22.8046 11.6732 23.1558 11.7232 24.2584C11.7738 25.3588 11.948 26.1099 12.2034 26.7671C12.4676 27.447 12.8208 28.0237 13.3955 28.5982C13.9699 29.1732 14.5466 29.5272 15.226 29.7912C15.8836 30.0468 16.635 30.221 17.7352 30.2714C18.8377 30.3216 19.1898 30.3339 21.9968 30.3339C24.8043 30.3339 25.1555 30.3216 26.258 30.2714C27.3585 30.221 28.1104 30.0468 28.7681 29.7912C29.4477 29.5272 30.0236 29.1732 30.5979 28.5982C31.1728 28.0237 31.526 27.447 31.7909 26.7674C32.045 26.1099 32.2194 25.3586 32.2711 24.2586C32.3206 23.156 32.3335 22.8046 32.3335 19.9974C32.3335 17.1901 32.3206 16.8378 32.2711 15.7353C32.2194 14.6349 32.045 13.8837 31.7909 13.2265C31.526 12.5467 31.1728 11.97 30.5979 11.3954C30.0229 10.8205 29.4479 10.4673 28.7675 10.2035C28.1085 9.9479 27.3569 9.77369 26.2565 9.7233C25.154 9.67313 24.803 9.66085 21.9949 9.66085H21.9981ZM21.0708 11.5236C21.346 11.5231 21.6531 11.5236 21.9981 11.5236C24.758 11.5236 25.0851 11.5335 26.1749 11.583C27.1827 11.6291 27.7297 11.7975 28.0941 11.939C28.5764 12.1263 28.9203 12.3503 29.2819 12.7121C29.6437 13.0738 29.8676 13.4184 30.0554 13.9008C30.1969 14.2647 30.3655 14.8117 30.4114 15.8195C30.4609 16.9091 30.4717 17.2364 30.4717 19.995C30.4717 22.7536 30.4609 23.0809 30.4114 24.1705C30.3653 25.1783 30.1969 25.7253 30.0554 26.0892C29.8681 26.5716 29.6437 26.9151 29.2819 27.2766C28.9201 27.6384 28.5767 27.8624 28.0941 28.0497C27.7301 28.1919 27.1827 28.3598 26.1749 28.4059C25.0853 28.4554 24.758 28.4662 21.9981 28.4662C19.238 28.4662 18.9109 28.4554 17.8213 28.4059C16.8135 28.3594 16.2665 28.191 15.9019 28.0495C15.4196 27.8622 15.075 27.6382 14.7132 27.2764C14.3515 26.9147 14.1275 26.571 13.9397 26.0884C13.7982 25.7244 13.6296 25.1775 13.5838 24.1697C13.5342 23.08 13.5243 22.7527 13.5243 19.9924C13.5243 17.2321 13.5342 16.9065 13.5838 15.8169C13.6298 14.8091 13.7982 14.2621 13.9397 13.8977C14.1271 13.4154 14.3515 13.0708 14.7132 12.709C15.075 12.3473 15.4196 12.1233 15.9019 11.9355C16.2663 11.7934 16.8135 11.6254 17.8213 11.5791C18.7748 11.5361 19.1444 11.5231 21.0708 11.521V11.5236ZM27.5157 13.2399C26.8309 13.2399 26.2753 13.7948 26.2753 14.4798C26.2753 15.1646 26.8309 15.7202 27.5157 15.7202C28.2004 15.7202 28.756 15.1646 28.756 14.4798C28.756 13.795 28.2004 13.2394 27.5157 13.2394V13.2399ZM21.9981 14.6891C19.0666 14.6891 16.6899 17.0659 16.6899 19.9974C16.6899 22.9288 19.0666 25.3045 21.9981 25.3045C24.9296 25.3045 27.3055 22.9288 27.3055 19.9974C27.3055 17.0659 24.9296 14.6891 21.9981 14.6891ZM21.9981 16.5519C23.9009 16.5519 25.4436 18.0944 25.4436 19.9974C25.4436 21.9001 23.9009 23.4429 21.9981 23.4429C20.0951 23.4429 18.5526 21.9001 18.5526 19.9974C18.5526 18.0944 20.0951 16.5519 21.9981 16.5519Z" fill="white"/>
</g>
<g filter="url(#filter1_d_1_56)">
<path d="M50.103 17.3849C50.0386 16.8134 49.7729 16.3707 49.3061 16.0568C48.8392 15.7389 48.2516 15.5799 47.5433 15.5799C47.0362 15.5799 46.5975 15.6604 46.2272 15.8214C45.857 15.9783 45.5692 16.1957 45.364 16.4734C45.1627 16.747 45.0621 17.0589 45.0621 17.4091C45.0621 17.7029 45.1305 17.9564 45.2674 18.1697C45.4082 18.383 45.5914 18.5621 45.8167 18.707C46.0461 18.8479 46.2916 18.9666 46.5532 19.0632C46.8148 19.1558 47.0664 19.2322 47.3079 19.2926L48.5152 19.6065C48.9097 19.7031 49.3141 19.8339 49.7287 19.9989C50.1432 20.1639 50.5276 20.3813 50.8817 20.6509C51.2359 20.9206 51.5216 21.2546 51.739 21.653C51.9603 22.0515 52.071 22.5284 52.071 23.0838C52.071 23.7841 51.8899 24.4059 51.5277 24.9492C51.1695 25.4925 50.6483 25.9212 49.9641 26.2351C49.2839 26.549 48.4609 26.706 47.495 26.706C46.5693 26.706 45.7684 26.5591 45.0923 26.2653C44.4162 25.9715 43.8869 25.5549 43.5046 25.0156C43.1223 24.4723 42.911 23.8283 42.8707 23.0838H44.7422C44.7784 23.5305 44.9233 23.9028 45.1768 24.2006C45.4344 24.4944 45.7624 24.7138 46.1608 24.8587C46.5633 24.9995 47.004 25.0699 47.4829 25.0699C48.0102 25.0699 48.479 24.9874 48.8895 24.8224C49.3041 24.6534 49.6301 24.42 49.8675 24.1221C50.105 23.8203 50.2237 23.4681 50.2237 23.0657C50.2237 22.6994 50.1191 22.3996 49.9098 22.1662C49.7045 21.9328 49.4248 21.7396 49.0706 21.5866C48.7205 21.4337 48.3241 21.2989 47.8814 21.1822L46.4204 20.7837C45.4304 20.5141 44.6456 20.1176 44.066 19.5944C43.4905 19.0712 43.2027 18.379 43.2027 17.5177C43.2027 16.8054 43.3959 16.1836 43.7823 15.6523C44.1687 15.1211 44.6919 14.7086 45.3519 14.4148C46.0119 14.1169 46.7565 13.968 47.5856 13.968C48.4227 13.968 49.1612 14.1149 49.8011 14.4087C50.445 14.7025 50.9522 15.107 51.3224 15.6221C51.6927 16.1333 51.8859 16.7209 51.902 17.3849H50.103ZM58.1517 26.6878C57.2381 26.6878 56.4513 26.4926 55.7913 26.1023C55.1352 25.7078 54.6281 25.1545 54.2699 24.4421C53.9158 23.7257 53.7387 22.8866 53.7387 21.9247C53.7387 20.9749 53.9158 20.1378 54.2699 19.4133C54.6281 18.6889 55.1272 18.1234 55.7671 17.717C56.411 17.3105 57.1636 17.1072 58.0249 17.1072C58.5481 17.1072 59.0552 17.1938 59.5462 17.3668C60.0372 17.5399 60.4779 17.8115 60.8683 18.1818C61.2587 18.5521 61.5666 19.033 61.792 19.6246C62.0173 20.2122 62.13 20.9266 62.13 21.7677V22.4077H54.7589V21.0554H60.3612C60.3612 20.5805 60.2646 20.1599 60.0714 19.7937C59.8783 19.4234 59.6066 19.1316 59.2565 18.9183C58.9103 18.705 58.5038 18.5984 58.037 18.5984C57.5299 18.5984 57.0872 18.7231 56.7089 18.9726C56.3346 19.2181 56.0448 19.5401 55.8395 19.9386C55.6383 20.333 55.5377 20.7616 55.5377 21.2244V22.2809C55.5377 22.9007 55.6464 23.4279 55.8637 23.8626C56.0851 24.2972 56.3929 24.6292 56.7873 24.8587C57.1818 25.084 57.6426 25.1967 58.1698 25.1967C58.5119 25.1967 58.8238 25.1484 59.1055 25.0518C59.3873 24.9512 59.6307 24.8023 59.836 24.6051C60.0413 24.4079 60.1982 24.1644 60.3069 23.8746L62.0153 24.1825C61.8785 24.6856 61.633 25.1263 61.2788 25.5046C60.9287 25.8789 60.488 26.1707 59.9567 26.38C59.4295 26.5852 58.8278 26.6878 58.1517 26.6878ZM68.1292 26.6878C67.2156 26.6878 66.4288 26.4926 65.7688 26.1023C65.1128 25.7078 64.6057 25.1545 64.2475 24.4421C63.8933 23.7257 63.7162 22.8866 63.7162 21.9247C63.7162 20.9749 63.8933 20.1378 64.2475 19.4133C64.6057 18.6889 65.1047 18.1234 65.7446 17.717C66.3886 17.3105 67.1412 17.1072 68.0025 17.1072C68.5257 17.1072 69.0328 17.1938 69.5238 17.3668C70.0148 17.5399 70.4555 17.8115 70.8458 18.1818C71.2362 18.5521 71.5441 19.033 71.7695 19.6246C71.9949 20.2122 72.1076 20.9266 72.1076 21.7677V22.4077H64.7365V21.0554H70.3387C70.3387 20.5805 70.2422 20.1599 70.049 19.7937C69.8558 19.4234 69.5841 19.1316 69.234 18.9183C68.8879 18.705 68.4814 18.5984 68.0145 18.5984C67.5074 18.5984 67.0647 18.7231 66.6864 18.9726C66.3121 19.2181 66.0223 19.5401 65.8171 19.9386C65.6159 20.333 65.5152 20.7616 65.5152 21.2244V22.2809C65.5152 22.9007 65.6239 23.4279 65.8412 23.8626C66.0626 24.2972 66.3705 24.6292 66.7649 24.8587C67.1593 25.084 67.6201 25.1967 68.1473 25.1967C68.4894 25.1967 68.8013 25.1484 69.0831 25.0518C69.3648 24.9512 69.6083 24.8023 69.8135 24.6051C70.0188 24.4079 70.1757 24.1644 70.2844 23.8746L71.9929 24.1825C71.856 24.6856 71.6105 25.1263 71.2564 25.5046C70.9062 25.8789 70.4655 26.1707 69.9343 26.38C69.407 26.5852 68.8054 26.6878 68.1292 26.6878ZM78.6093 26.5007V17.228H80.3419V18.7372H80.4566C80.6498 18.2261 80.9658 17.8276 81.4044 17.5419C81.8431 17.2521 82.3683 17.1072 82.9801 17.1072C83.5999 17.1072 84.119 17.2521 84.5376 17.5419C84.9602 17.8317 85.2721 18.2301 85.4733 18.7372H85.5699C85.7913 18.2422 86.1434 17.8478 86.6264 17.554C87.1093 17.2561 87.6849 17.1072 88.3529 17.1072C89.1941 17.1072 89.8803 17.3708 90.4115 17.8981C90.9468 18.4253 91.2144 19.2202 91.2144 20.2827V26.5007H89.4094V20.4517C89.4094 19.8239 89.2384 19.3691 88.8963 19.0873C88.5542 18.8056 88.1457 18.6648 87.6708 18.6648C87.0832 18.6648 86.6264 18.8459 86.3004 19.2081C85.9744 19.5663 85.8114 20.0271 85.8114 20.5905V26.5007H84.0124V20.337C84.0124 19.8339 83.8554 19.4294 83.5415 19.1236C83.2276 18.8177 82.8191 18.6648 82.316 18.6648C81.9739 18.6648 81.658 18.7553 81.3682 18.9364C81.0825 19.1135 80.8511 19.361 80.674 19.679C80.5009 19.9969 80.4144 20.3652 80.4144 20.7837V26.5007H78.6093ZM97.6302 26.6878C96.7166 26.6878 95.9298 26.4926 95.2698 26.1023C94.6137 25.7078 94.1066 25.1545 93.7485 24.4421C93.3943 23.7257 93.2172 22.8866 93.2172 21.9247C93.2172 20.9749 93.3943 20.1378 93.7485 19.4133C94.1066 18.6889 94.6057 18.1234 95.2456 17.717C95.8895 17.3105 96.6422 17.1072 97.5034 17.1072C98.0266 17.1072 98.5337 17.1938 99.0247 17.3668C99.5157 17.5399 99.9564 17.8115 100.347 18.1818C100.737 18.5521 101.045 19.033 101.27 19.6246C101.496 20.2122 101.609 20.9266 101.609 21.7677V22.4077H94.2374V21.0554H99.8397C99.8397 20.5805 99.7431 20.1599 99.5499 19.7937C99.3568 19.4234 99.0851 19.1316 98.735 18.9183C98.3888 18.705 97.9824 18.5984 97.5155 18.5984C97.0084 18.5984 96.5657 18.7231 96.1874 18.9726C95.8131 19.2181 95.5233 19.5401 95.3181 19.9386C95.1168 20.333 95.0162 20.7616 95.0162 21.2244V22.2809C95.0162 22.9007 95.1249 23.4279 95.3422 23.8626C95.5636 24.2972 95.8714 24.6292 96.2659 24.8587C96.6603 25.084 97.1211 25.1967 97.6483 25.1967C97.9904 25.1967 98.3023 25.1484 98.584 25.0518C98.8658 24.9512 99.1092 24.8023 99.3145 24.6051C99.5198 24.4079 99.6767 24.1644 99.7854 23.8746L101.494 24.1825C101.357 24.6856 101.111 25.1263 100.757 25.5046C100.407 25.8789 99.9665 26.1707 99.4352 26.38C98.908 26.5852 98.3063 26.6878 97.6302 26.6878ZM112.016 26.6878C111.147 26.6878 110.388 26.4886 109.74 26.0902C109.092 25.6917 108.589 25.1343 108.231 24.418C107.873 23.7016 107.694 22.8645 107.694 21.9066C107.694 20.9447 107.873 20.1036 108.231 19.3832C108.589 18.6627 109.092 18.1033 109.74 17.7049C110.388 17.3065 111.147 17.1072 112.016 17.1072C112.886 17.1072 113.644 17.3065 114.292 17.7049C114.94 18.1033 115.443 18.6627 115.801 19.3832C116.16 20.1036 116.339 20.9447 116.339 21.9066C116.339 22.8645 116.16 23.7016 115.801 24.418C115.443 25.1343 114.94 25.6917 114.292 26.0902C113.644 26.4886 112.886 26.6878 112.016 26.6878ZM112.022 25.1726C112.586 25.1726 113.053 25.0237 113.423 24.7258C113.793 24.428 114.067 24.0316 114.244 23.5366C114.425 23.0415 114.515 22.4962 114.515 21.9006C114.515 21.3089 114.425 20.7656 114.244 20.2706C114.067 19.7715 113.793 19.3711 113.423 19.0692C113.053 18.7674 112.586 18.6165 112.022 18.6165C111.455 18.6165 110.984 18.7674 110.61 19.0692C110.239 19.3711 109.964 19.7715 109.783 20.2706C109.605 20.7656 109.517 21.3089 109.517 21.9006C109.517 22.4962 109.605 23.0415 109.783 23.5366C109.964 24.0316 110.239 24.428 110.61 24.7258C110.984 25.0237 111.455 25.1726 112.022 25.1726ZM120.159 20.995V26.5007H118.353V17.228H120.086V18.7372H120.201C120.414 18.2462 120.748 17.8518 121.203 17.554C121.662 17.2561 122.239 17.1072 122.935 17.1072C123.567 17.1072 124.121 17.24 124.596 17.5057C125.071 17.7673 125.439 18.1577 125.7 18.6768C125.962 19.196 126.093 19.8379 126.093 20.6026V26.5007H124.288V20.8199C124.288 20.1478 124.113 19.6226 123.763 19.2443C123.412 18.862 122.931 18.6708 122.32 18.6708C121.901 18.6708 121.529 18.7614 121.203 18.9425C120.881 19.1236 120.625 19.3892 120.436 19.7393C120.251 20.0855 120.159 20.504 120.159 20.995Z" fill="#E8E8E8"/>
<path d="M135.925 13.6371V26.0007H132.937V13.6371H135.925ZM140.753 20.7123V26.0007H137.801V16.728H140.609V18.4304H140.711C140.916 17.8629 141.267 17.4182 141.762 17.0962C142.257 16.7702 142.846 16.6072 143.53 16.6072C144.182 16.6072 144.748 16.7541 145.227 17.0479C145.71 17.3377 146.084 17.7442 146.35 18.2674C146.619 18.7866 146.752 19.3943 146.748 20.0905V26.0007H143.796V20.6701C143.8 20.1549 143.669 19.7525 143.404 19.4627C143.142 19.1729 142.778 19.028 142.311 19.028C142.001 19.028 141.727 19.0965 141.49 19.2333C141.256 19.3661 141.075 19.5573 140.947 19.8068C140.822 20.0563 140.757 20.3582 140.753 20.7123ZM156.671 19.5593L153.961 19.6317C153.933 19.4386 153.856 19.2675 153.731 19.1186C153.607 18.9657 153.444 18.8469 153.242 18.7624C153.045 18.6739 152.816 18.6296 152.554 18.6296C152.212 18.6296 151.92 18.698 151.679 18.8349C151.441 18.9717 151.325 19.1568 151.329 19.3903C151.325 19.5714 151.397 19.7283 151.546 19.8611C151.699 19.994 151.971 20.1006 152.361 20.1811L154.148 20.5192C155.074 20.6962 155.762 20.99 156.212 21.4006C156.667 21.8111 156.897 22.3544 156.901 23.0305C156.897 23.6664 156.708 24.2198 156.333 24.6907C155.963 25.1616 155.456 25.5278 154.812 25.7894C154.168 26.047 153.431 26.1758 152.602 26.1758C151.278 26.1758 150.234 25.9041 149.469 25.3608C148.709 24.8134 148.274 24.081 148.165 23.1633L151.081 23.0909C151.145 23.429 151.313 23.6865 151.582 23.8636C151.852 24.0407 152.196 24.1292 152.614 24.1292C152.993 24.1292 153.301 24.0588 153.538 23.918C153.776 23.7771 153.896 23.5899 153.9 23.3565C153.896 23.1472 153.804 22.9802 153.623 22.8555C153.442 22.7267 153.158 22.6261 152.771 22.5536L151.154 22.2457C150.224 22.0767 149.532 21.7648 149.077 21.31C148.622 20.8512 148.397 20.2676 148.401 19.5593C148.397 18.9395 148.562 18.4103 148.896 17.9716C149.23 17.5289 149.705 17.1908 150.32 16.9574C150.936 16.7239 151.663 16.6072 152.5 16.6072C153.755 16.6072 154.746 16.8708 155.47 17.3981C156.194 17.9213 156.595 18.6417 156.671 19.5593ZM163.588 16.728V18.9013H157.738V16.728H163.588ZM158.964 14.5064H161.916V23.0849C161.916 23.266 161.944 23.4129 162 23.5256C162.061 23.6342 162.147 23.7127 162.26 23.761C162.373 23.8053 162.507 23.8274 162.664 23.8274C162.777 23.8274 162.896 23.8173 163.021 23.7972C163.149 23.7731 163.246 23.7529 163.31 23.7368L163.757 25.8679C163.616 25.9081 163.417 25.9584 163.159 26.0188C162.906 26.0792 162.602 26.1174 162.248 26.1335C161.556 26.1657 160.962 26.0852 160.467 25.892C159.976 25.6948 159.6 25.389 159.338 24.9744C159.081 24.5599 158.956 24.0387 158.964 23.4109V14.5064ZM167.708 26.1577C167.117 26.1577 166.591 26.0591 166.133 25.8618C165.678 25.6606 165.318 25.3588 165.052 24.9563C164.79 24.5498 164.66 24.0407 164.66 23.429C164.66 22.9138 164.75 22.4792 164.931 22.125C165.112 21.7708 165.362 21.4831 165.68 21.2617C165.998 21.0404 166.364 20.8733 166.779 20.7606C167.193 20.6439 167.636 20.5654 168.107 20.5252C168.634 20.4769 169.059 20.4266 169.381 20.3743C169.703 20.3179 169.936 20.2395 170.081 20.1388C170.23 20.0342 170.304 19.8873 170.304 19.6981V19.668C170.304 19.3581 170.198 19.1186 169.984 18.9496C169.771 18.7805 169.483 18.696 169.121 18.696C168.731 18.696 168.417 18.7805 168.179 18.9496C167.942 19.1186 167.791 19.352 167.726 19.6498L165.004 19.5533C165.084 18.9898 165.292 18.4867 165.626 18.044C165.964 17.5973 166.426 17.2471 167.014 16.9936C167.606 16.736 168.316 16.6072 169.145 16.6072C169.737 16.6072 170.282 16.6777 170.781 16.8185C171.28 16.9554 171.715 17.1566 172.085 17.4222C172.455 17.6838 172.741 18.0058 172.942 18.3881C173.148 18.7705 173.25 19.2071 173.25 19.6981V26.0007H170.473V24.7088H170.401C170.236 25.0227 170.024 25.2883 169.767 25.5057C169.513 25.723 169.214 25.886 168.867 25.9947C168.525 26.1033 168.139 26.1577 167.708 26.1577ZM168.62 24.2258C168.938 24.2258 169.224 24.1614 169.477 24.0327C169.735 23.9039 169.94 23.7268 170.093 23.5014C170.246 23.272 170.322 23.0064 170.322 22.7045V21.8231C170.238 21.8674 170.135 21.9077 170.014 21.9439C169.898 21.9801 169.769 22.0143 169.628 22.0465C169.487 22.0787 169.342 22.1069 169.193 22.131C169.044 22.1552 168.902 22.1773 168.765 22.1974C168.487 22.2417 168.25 22.3101 168.052 22.4027C167.859 22.4953 167.71 22.616 167.606 22.7649C167.505 22.9098 167.455 23.0828 167.455 23.2841C167.455 23.59 167.563 23.8234 167.781 23.9844C168.002 24.1453 168.282 24.2258 168.62 24.2258ZM179.378 29.6712C178.496 29.6712 177.742 29.5484 177.114 29.3029C176.486 29.0574 175.993 28.7213 175.635 28.2947C175.277 27.8681 175.061 27.3852 174.989 26.8459L177.784 26.6889C177.836 26.8781 177.933 27.0431 178.074 27.1839C178.219 27.3248 178.406 27.4335 178.635 27.5099C178.869 27.5864 179.142 27.6246 179.456 27.6246C179.951 27.6246 180.36 27.5039 180.682 27.2624C181.008 27.025 181.171 26.6084 181.171 26.0128V24.3828H181.068C180.951 24.6685 180.774 24.9241 180.537 25.1495C180.299 25.3749 180.004 25.552 179.649 25.6807C179.299 25.8095 178.897 25.8739 178.442 25.8739C177.766 25.8739 177.146 25.717 176.583 25.403C176.023 25.0851 175.574 24.5941 175.236 23.93C174.902 23.2619 174.735 22.4027 174.735 21.3523C174.735 20.2696 174.908 19.3782 175.254 18.6779C175.601 17.9736 176.053 17.4524 176.613 17.1143C177.176 16.7763 177.782 16.6072 178.43 16.6072C178.917 16.6072 179.333 16.6918 179.68 16.8608C180.03 17.0258 180.317 17.2391 180.543 17.5007C180.768 17.7623 180.939 18.034 181.056 18.3157H181.14V16.728H184.08V26.0369C184.08 26.8217 183.883 27.4838 183.489 28.0231C183.094 28.5624 182.543 28.9709 181.835 29.2486C181.126 29.5303 180.307 29.6712 179.378 29.6712ZM179.468 23.7248C179.826 23.7248 180.132 23.6302 180.386 23.441C180.639 23.2519 180.835 22.9802 180.971 22.6261C181.108 22.2719 181.177 21.8473 181.177 21.3523C181.177 20.8492 181.108 20.4165 180.971 20.0543C180.839 19.6881 180.643 19.4064 180.386 19.2092C180.132 19.0119 179.826 18.9133 179.468 18.9133C179.102 18.9133 178.792 19.014 178.539 19.2152C178.285 19.4164 178.092 19.7002 177.959 20.0664C177.83 20.4286 177.766 20.8572 177.766 21.3523C177.766 21.8473 177.832 22.2719 177.965 22.6261C178.098 22.9802 178.289 23.2519 178.539 23.441C178.792 23.6302 179.102 23.7248 179.468 23.7248ZM185.962 26.0007V16.728H188.83V18.4183H188.927C189.096 17.8066 189.371 17.3518 189.754 17.054C190.136 16.7521 190.581 16.6012 191.088 16.6012C191.225 16.6012 191.366 16.6113 191.51 16.6314C191.655 16.6475 191.79 16.6736 191.915 16.7099V19.2756C191.774 19.2273 191.589 19.189 191.359 19.1609C191.134 19.1327 190.933 19.1186 190.756 19.1186C190.406 19.1186 190.09 19.1971 189.808 19.354C189.53 19.507 189.311 19.7223 189.15 20C188.993 20.2737 188.915 20.5956 188.915 20.9659V26.0007H185.962ZM195.383 26.1577C194.791 26.1577 194.266 26.0591 193.807 25.8618C193.353 25.6606 192.992 25.3588 192.727 24.9563C192.465 24.5498 192.334 24.0407 192.334 23.429C192.334 22.9138 192.425 22.4792 192.606 22.125C192.787 21.7708 193.037 21.4831 193.355 21.2617C193.673 21.0404 194.039 20.8733 194.453 20.7606C194.868 20.6439 195.311 20.5654 195.782 20.5252C196.309 20.4769 196.733 20.4266 197.055 20.3743C197.377 20.3179 197.611 20.2395 197.756 20.1388C197.905 20.0342 197.979 19.8873 197.979 19.6981V19.668C197.979 19.3581 197.872 19.1186 197.659 18.9496C197.446 18.7805 197.158 18.696 196.796 18.696C196.405 18.696 196.091 18.7805 195.854 18.9496C195.617 19.1186 195.466 19.352 195.401 19.6498L192.679 19.5533C192.759 18.9898 192.966 18.4867 193.3 18.044C193.638 17.5973 194.101 17.2471 194.689 16.9936C195.28 16.736 195.991 16.6072 196.82 16.6072C197.412 16.6072 197.957 16.6777 198.456 16.8185C198.955 16.9554 199.39 17.1566 199.76 17.4222C200.13 17.6838 200.416 18.0058 200.617 18.3881C200.822 18.7705 200.925 19.2071 200.925 19.6981V26.0007H198.148V24.7088H198.076C197.911 25.0227 197.699 25.2883 197.442 25.5057C197.188 25.723 196.888 25.886 196.542 25.9947C196.2 26.1033 195.814 26.1577 195.383 26.1577ZM196.295 24.2258C196.613 24.2258 196.898 24.1614 197.152 24.0327C197.409 23.9039 197.615 23.7268 197.768 23.5014C197.921 23.272 197.997 23.0064 197.997 22.7045V21.8231C197.913 21.8674 197.81 21.9077 197.689 21.9439C197.572 21.9801 197.444 22.0143 197.303 22.0465C197.162 22.0787 197.017 22.1069 196.868 22.131C196.719 22.1552 196.576 22.1773 196.44 22.1974C196.162 22.2417 195.924 22.3101 195.727 22.4027C195.534 22.4953 195.385 22.616 195.28 22.7649C195.18 22.9098 195.13 23.0828 195.13 23.2841C195.13 23.59 195.238 23.8234 195.456 23.9844C195.677 24.1453 195.957 24.2258 196.295 24.2258ZM202.73 26.0007V16.728H205.537V18.4304H205.64C205.833 17.8669 206.159 17.4222 206.618 17.0962C207.077 16.7702 207.624 16.6072 208.26 16.6072C208.904 16.6072 209.455 16.7722 209.914 17.1023C210.373 17.4323 210.665 17.875 210.789 18.4304H210.886C211.059 17.879 211.397 17.4383 211.9 17.1083C212.403 16.7743 212.997 16.6072 213.681 16.6072C214.558 16.6072 215.271 16.889 215.818 17.4524C216.365 18.0118 216.639 18.7805 216.639 19.7585V26.0007H213.687V20.4346C213.687 19.9718 213.568 19.6197 213.331 19.3782C213.093 19.1327 212.786 19.0099 212.407 19.0099C212.001 19.0099 211.681 19.1427 211.447 19.4084C211.218 19.67 211.103 20.0221 211.103 20.4648V26.0007H208.266V20.4045C208.266 19.9738 208.149 19.6337 207.916 19.3842C207.682 19.1347 207.374 19.0099 206.992 19.0099C206.735 19.0099 206.507 19.0723 206.31 19.1971C206.113 19.3178 205.958 19.4909 205.845 19.7163C205.736 19.9416 205.682 20.2073 205.682 20.5131V26.0007H202.73Z" fill="url(#paint3_linear_1_56)"/>
</g>
<defs>
<filter id="filter0_d_1_56" x="2.39972" y="0.39972" width="39.202" height="39.202" filterUnits="userSpaceOnUse" color-interpolation-filters="sRGB">
<feFlood flood-opacity="0" result="BackgroundImageFix"/>
<feColorMatrix in="SourceAlpha" type="matrix" values="0 0 0 0 0 0 0 0 0 0 0 0 0 0 0 0 0 0 127 0" result="hardAlpha"/>
<feOffset/>
<feGaussianBlur stdDeviation="2.80014"/>
<feComposite in2="hardAlpha" operator="out"/>
<feColorMatrix type="matrix" values="0 0 0 0 0 0 0 0 0 0 0 0 0 0 0 0 0 0 0.25 0"/>
<feBlend mode="normal" in2="BackgroundImageFix" result="effect1_dropShadow_1_56"/>
<feBlend mode="normal" in="SourceGraphic" in2="effect1_dropShadow_1_56" result="shape"/>
</filter>
<filter id="filter1_d_1_56" x="36.2871" y="3.78642" width="187.429" height="32.4286" filterUnits="userSpaceOnUse" color-interpolation-filters="sRGB">
<feFlood flood-opacity="0" result="BackgroundImageFix"/>
<feColorMatrix in="SourceAlpha" type="matrix" values="0 0 0 0 0 0 0 0 0 0 0 0 0 0 0 0 0 0 127 0" result="hardAlpha"/>
<feOffset/>
<feGaussianBlur stdDeviation="2.85714"/>
<feComposite in2="hardAlpha" operator="out"/>
<feColorMatrix type="matrix" values="0 0 0 0 0 0 0 0 0 0 0 0 0 0 0 0 0 0 0.25 0"/>
<feBlend mode="normal" in2="BackgroundImageFix" result="effect1_dropShadow_1_56"/>
<feBlend mode="normal" in="SourceGraphic" in2="effect1_dropShadow_1_56" result="shape"/>
</filter>
<linearGradient id="paint0_linear_1_56" x1="113.001" y1="0" x2="113.001" y2="40.0014" gradientUnits="userSpaceOnUse">
<stop stop-color="#50227A"/>
<stop offset="1" stop-color="#1B0B29"/>
</linearGradient>
<radialGradient id="paint1_radial_1_56" cx="0" cy="0" r="1" gradientUnits="userSpaceOnUse" gradientTransform="translate(15.4375 36.1484) rotate(-90) scale(27.7425 25.8097)">
<stop stop-color="#FFDD55"/>
<stop offset="0.1" stop-color="#FFDD55"/>
<stop offset="0.5" stop-color="#FF543E"/>
<stop offset="1" stop-color="#C837AB"/>
</radialGradient>
<radialGradient id="paint2_radial_1_56" cx="0" cy="0" r="1" gradientUnits="userSpaceOnUse" gradientTransform="translate(3.30985 8.01652) rotate(78.6776) scale(12.4011 51.1309)">
<stop stop-color="#3771C8"/>
<stop offset="0.128" stop-color="#3771C8"/>
<stop offset="1" stop-color="#6600FF" stop-opacity="0"/>
</radialGradient>
<linearGradient id="paint3_linear_1_56" x1="133.409" y1="19.5" x2="215.885" y2="19.5" gradientUnits="userSpaceOnUse">
<stop stop-color="#F9CE34"/>
<stop offset="0.5" stop-color="#EE2A7B"/>
<stop offset="1" stop-color="#6228D7"/>
</linearGradient>
</defs>
</svg>
