<svg width="56" height="56" viewBox="0 0 56 56" fill="none" xmlns="http://www.w3.org/2000/svg">
<rect width="56" height="56" rx="8.4" fill="url(#paint0_linear_1_62)"/>
<rect x="1.05" y="1.05" width="53.9" height="53.9" rx="7.35" stroke="white" stroke-opacity="0.15" stroke-width="2.1"/>
<g filter="url(#filter0_d_1_62)">
<path d="M28.0065 8C19.6567 8 17.2147 8.00861 16.74 8.04799C15.0265 8.19043 13.9602 8.46022 12.7986 9.03857C11.9034 9.48311 11.1974 9.99839 10.5006 10.7207C9.2316 12.038 8.46251 13.6586 8.1841 15.585C8.04874 16.5202 8.00937 16.711 8.00137 21.4879C7.99829 23.0802 8.00137 25.1758 8.00137 27.9867C8.00137 36.3297 8.0106 38.7693 8.05059 39.243C8.18902 40.9104 8.45051 41.9595 9.00426 43.1069C10.0625 45.3034 12.0837 46.9524 14.4648 47.5676C15.2892 47.7799 16.1998 47.8968 17.3688 47.9522C17.8641 47.9737 22.9124 47.9891 27.9638 47.9891C33.0151 47.9891 38.0665 47.9829 38.5495 47.9583C39.9031 47.8947 40.6891 47.7891 41.5581 47.5646C43.9546 46.9462 45.9388 45.3219 47.0186 43.0946C47.5616 41.9748 47.837 40.8858 47.9615 39.3055C47.9886 38.9609 48 33.4675 48 27.9815C48 22.4945 47.9877 17.0112 47.9606 16.6667C47.8345 15.0608 47.5592 13.981 46.9986 12.8397C46.5387 11.9054 46.0281 11.2077 45.2867 10.4943C43.9635 9.23054 42.3454 8.46145 40.4171 8.18335C39.4828 8.0483 39.2967 8.00831 34.5161 8H28.0065Z" fill="url(#paint1_radial_1_62)"/>
<path d="M28.0065 8C19.6567 8 17.2147 8.00861 16.74 8.04799C15.0265 8.19043 13.9602 8.46022 12.7986 9.03857C11.9034 9.48311 11.1974 9.99839 10.5006 10.7207C9.2316 12.038 8.46251 13.6586 8.1841 15.585C8.04874 16.5202 8.00937 16.711 8.00137 21.4879C7.99829 23.0802 8.00137 25.1758 8.00137 27.9867C8.00137 36.3297 8.0106 38.7693 8.05059 39.243C8.18902 40.9104 8.45051 41.9595 9.00426 43.1069C10.0625 45.3034 12.0837 46.9524 14.4648 47.5676C15.2892 47.7799 16.1998 47.8968 17.3688 47.9522C17.8641 47.9737 22.9124 47.9891 27.9638 47.9891C33.0151 47.9891 38.0665 47.9829 38.5495 47.9583C39.9031 47.8947 40.6891 47.7891 41.5581 47.5646C43.9546 46.9462 45.9388 45.3219 47.0186 43.0946C47.5616 41.9748 47.837 40.8858 47.9615 39.3055C47.9886 38.9609 48 33.4675 48 27.9815C48 22.4945 47.9877 17.0112 47.9606 16.6667C47.8345 15.0608 47.5592 13.981 46.9986 12.8397C46.5387 11.9054 46.0281 11.2077 45.2867 10.4943C43.9635 9.23054 42.3454 8.46145 40.4171 8.18335C39.4828 8.0483 39.2967 8.00831 34.5161 8H28.0065Z" fill="url(#paint2_radial_1_62)"/>
<path d="M27.9973 13.2298C23.987 13.2298 23.4837 13.2473 21.9086 13.319C20.3366 13.391 19.2636 13.6399 18.3247 14.005C17.3535 14.3822 16.5296 14.8867 15.7088 15.7078C14.8875 16.5285 14.3829 17.3524 14.0045 18.3233C13.6385 19.2625 13.3893 20.3358 13.3185 21.9072C13.2481 23.4823 13.2296 23.9859 13.2296 27.9962C13.2296 32.0066 13.2475 32.5083 13.3188 34.0834C13.3911 35.6554 13.64 36.7284 14.0048 37.6673C14.3823 38.6385 14.8868 39.4624 15.7079 40.2832C16.5284 41.1045 17.3522 41.6103 18.3228 41.9875C19.2623 42.3526 20.3357 42.6015 21.9074 42.6735C23.4825 42.7452 23.9854 42.7627 27.9955 42.7627C32.0061 42.7627 32.5078 42.7452 34.0829 42.6735C35.6549 42.6015 36.7292 42.3526 37.6687 41.9875C38.6396 41.6103 39.4622 41.1045 40.2827 40.2832C41.1041 39.4624 41.6086 38.6385 41.987 37.6677C42.35 36.7284 42.5992 35.6551 42.673 34.0837C42.7438 32.5086 42.7622 32.0066 42.7622 27.9962C42.7622 23.9859 42.7438 23.4826 42.673 21.9075C42.5992 20.3355 42.35 19.2625 41.987 18.3236C41.6086 17.3524 41.1041 16.5285 40.2827 15.7078C39.4613 14.8864 38.6399 14.3819 37.6678 14.005C36.7264 13.6399 35.6528 13.391 34.0808 13.319C32.5057 13.2473 32.0042 13.2298 27.9927 13.2298H27.9973ZM26.6726 15.8908C27.0658 15.8902 27.5045 15.8908 27.9973 15.8908C31.9399 15.8908 32.4072 15.905 33.9642 15.9757C35.4039 16.0416 36.1853 16.2821 36.7058 16.4842C37.3949 16.7519 37.8862 17.0718 38.4027 17.5887C38.9196 18.1055 39.2395 18.5977 39.5077 19.2868C39.7099 19.8067 39.9507 20.5881 40.0163 22.0278C40.087 23.5845 40.1024 24.0521 40.1024 27.9929C40.1024 31.9337 40.087 32.4013 40.0163 33.9579C39.9504 35.3976 39.7099 36.179 39.5077 36.6989C39.2401 37.388 38.9196 37.8787 38.4027 38.3952C37.8859 38.912 37.3952 39.232 36.7058 39.4996C36.1859 39.7027 35.4039 39.9426 33.9642 40.0084C32.4075 40.0792 31.9399 40.0946 27.9973 40.0946C24.0543 40.0946 23.587 40.0792 22.0304 40.0084C20.5907 39.942 19.8093 39.7014 19.2885 39.4993C18.5994 39.2317 18.1072 38.9117 17.5903 38.3949C17.0735 37.8781 16.7536 37.3871 16.4853 36.6977C16.2832 36.1778 16.0423 35.3964 15.9768 33.9567C15.906 32.4 15.8919 31.9324 15.8919 27.9892C15.8919 24.0459 15.906 23.5808 15.9768 22.0241C16.0426 20.5844 16.2832 19.803 16.4853 19.2825C16.7529 18.5934 17.0735 18.1012 17.5903 17.5843C18.1072 17.0675 18.5994 16.7476 19.2885 16.4793C19.809 16.2763 20.5907 16.0363 22.0304 15.9702C23.3926 15.9087 23.9205 15.8902 26.6726 15.8871V15.8908ZM35.8795 18.3427C34.9012 18.3427 34.1075 19.1354 34.1075 20.114C34.1075 21.0923 34.9012 21.886 35.8795 21.886C36.8578 21.886 37.6515 21.0923 37.6515 20.114C37.6515 19.1358 36.8578 18.3421 35.8795 18.3421V18.3427ZM27.9973 20.413C23.8095 20.413 20.4141 23.8084 20.4141 27.9962C20.4141 32.1841 23.8095 35.5779 27.9973 35.5779C32.1851 35.5779 35.5793 32.1841 35.5793 27.9962C35.5793 23.8084 32.1851 20.413 27.9973 20.413ZM27.9973 23.0741C30.7156 23.0741 32.9194 25.2777 32.9194 27.9962C32.9194 30.7145 30.7156 32.9184 27.9973 32.9184C25.2787 32.9184 23.0751 30.7145 23.0751 27.9962C23.0751 25.2777 25.2787 23.0741 27.9973 23.0741Z" fill="white"/>
</g>
<defs>
<filter id="filter0_d_1_62" x="2.28571" y="2.28571" width="51.4286" height="51.4286" filterUnits="userSpaceOnUse" color-interpolation-filters="sRGB">
<feFlood flood-opacity="0" result="BackgroundImageFix"/>
<feColorMatrix in="SourceAlpha" type="matrix" values="0 0 0 0 0 0 0 0 0 0 0 0 0 0 0 0 0 0 127 0" result="hardAlpha"/>
<feOffset/>
<feGaussianBlur stdDeviation="2.85714"/>
<feComposite in2="hardAlpha" operator="out"/>
<feColorMatrix type="matrix" values="0 0 0 0 0 0 0 0 0 0 0 0 0 0 0 0 0 0 0.25 0"/>
<feBlend mode="normal" in2="BackgroundImageFix" result="effect1_dropShadow_1_62"/>
<feBlend mode="normal" in="SourceGraphic" in2="effect1_dropShadow_1_62" result="shape"/>
</filter>
<linearGradient id="paint0_linear_1_62" x1="28" y1="0" x2="28" y2="56" gradientUnits="userSpaceOnUse">
<stop stop-color="#50227A"/>
<stop offset="1" stop-color="#1B0B29"/>
</linearGradient>
<radialGradient id="paint1_radial_1_62" cx="0" cy="0" r="1" gradientUnits="userSpaceOnUse" gradientTransform="translate(18.6251 51.0691) rotate(-90) scale(39.6321 36.8711)">
<stop stop-color="#FFDD55"/>
<stop offset="0.1" stop-color="#FFDD55"/>
<stop offset="0.5" stop-color="#FF543E"/>
<stop offset="1" stop-color="#C837AB"/>
</radialGradient>
<radialGradient id="paint2_radial_1_62" cx="0" cy="0" r="1" gradientUnits="userSpaceOnUse" gradientTransform="translate(1.29979 10.8807) rotate(78.6776) scale(17.7159 73.0442)">
<stop stop-color="#3771C8"/>
<stop offset="0.128" stop-color="#3771C8"/>
<stop offset="1" stop-color="#6600FF" stop-opacity="0"/>
</radialGradient>
</defs>
</svg>
