<svg width="158" height="56" viewBox="0 0 158 56" fill="none" xmlns="http://www.w3.org/2000/svg">
<rect width="158" height="56" rx="8" fill="url(#paint0_linear_1_50)"/>
<rect x="1.05" y="1.05" width="155.9" height="53.9" rx="6.95" stroke="white" stroke-opacity="0.15" stroke-width="2.1"/>
<g filter="url(#filter0_d_1_50)">
<path d="M32.0065 8C23.6567 8 21.2147 8.00861 20.74 8.04799C19.0265 8.19043 17.9602 8.46022 16.7986 9.03857C15.9034 9.48311 15.1974 9.99839 14.5006 10.7207C13.2316 12.038 12.4625 13.6586 12.1841 15.585C12.0487 16.5202 12.0094 16.711 12.0014 21.4879C11.9983 23.0802 12.0014 25.1758 12.0014 27.9867C12.0014 36.3297 12.0106 38.7693 12.0506 39.243C12.189 40.9104 12.4505 41.9595 13.0043 43.1069C14.0625 45.3034 16.0837 46.9524 18.4648 47.5676C19.2892 47.7799 20.1998 47.8968 21.3688 47.9522C21.8641 47.9737 26.9124 47.9891 31.9638 47.9891C37.0151 47.9891 42.0665 47.9829 42.5495 47.9583C43.9031 47.8947 44.6891 47.7891 45.5581 47.5646C47.9546 46.9462 49.9388 45.3219 51.0186 43.0946C51.5616 41.9748 51.837 40.8858 51.9615 39.3055C51.9886 38.9609 52 33.4675 52 27.9815C52 22.4945 51.9877 17.0112 51.9606 16.6667C51.8345 15.0608 51.5592 13.981 50.9986 12.8397C50.5387 11.9054 50.0281 11.2077 49.2867 10.4943C47.9635 9.23054 46.3454 8.46145 44.4171 8.18335C43.4828 8.0483 43.2967 8.00831 38.5161 8H32.0065Z" fill="url(#paint1_radial_1_50)"/>
<path d="M32.0065 8C23.6567 8 21.2147 8.00861 20.74 8.04799C19.0265 8.19043 17.9602 8.46022 16.7986 9.03857C15.9034 9.48311 15.1974 9.99839 14.5006 10.7207C13.2316 12.038 12.4625 13.6586 12.1841 15.585C12.0487 16.5202 12.0094 16.711 12.0014 21.4879C11.9983 23.0802 12.0014 25.1758 12.0014 27.9867C12.0014 36.3297 12.0106 38.7693 12.0506 39.243C12.189 40.9104 12.4505 41.9595 13.0043 43.1069C14.0625 45.3034 16.0837 46.9524 18.4648 47.5676C19.2892 47.7799 20.1998 47.8968 21.3688 47.9522C21.8641 47.9737 26.9124 47.9891 31.9638 47.9891C37.0151 47.9891 42.0665 47.9829 42.5495 47.9583C43.9031 47.8947 44.6891 47.7891 45.5581 47.5646C47.9546 46.9462 49.9388 45.3219 51.0186 43.0946C51.5616 41.9748 51.837 40.8858 51.9615 39.3055C51.9886 38.9609 52 33.4675 52 27.9815C52 22.4945 51.9877 17.0112 51.9606 16.6667C51.8345 15.0608 51.5592 13.981 50.9986 12.8397C50.5387 11.9054 50.0281 11.2077 49.2867 10.4943C47.9635 9.23054 46.3454 8.46145 44.4171 8.18335C43.4828 8.0483 43.2967 8.00831 38.5161 8H32.0065Z" fill="url(#paint2_radial_1_50)"/>
<path d="M31.9973 13.2298C27.987 13.2298 27.4837 13.2473 25.9086 13.319C24.3366 13.391 23.2635 13.6399 22.3246 14.005C21.3534 14.3822 20.5296 14.8867 19.7088 15.7078C18.8874 16.5285 18.3829 17.3524 18.0045 18.3233C17.6385 19.2625 17.3893 20.3358 17.3185 21.9072C17.2481 23.4823 17.2296 23.9859 17.2296 27.9962C17.2296 32.0066 17.2474 32.5083 17.3188 34.0834C17.3911 35.6554 17.64 36.7284 18.0048 37.6673C18.3823 38.6385 18.8868 39.4624 19.7079 40.2832C20.5284 41.1045 21.3522 41.6103 22.3228 41.9875C23.2623 42.3526 24.3357 42.6015 25.9074 42.6735C27.4824 42.7452 27.9854 42.7627 31.9954 42.7627C36.0061 42.7627 36.5078 42.7452 38.0829 42.6735C39.6549 42.6015 40.7292 42.3526 41.6687 41.9875C42.6396 41.6103 43.4622 41.1045 44.2827 40.2832C45.1041 39.4624 45.6086 38.6385 45.987 37.6677C46.35 36.7284 46.5992 35.6551 46.673 34.0837C46.7437 32.5086 46.7622 32.0066 46.7622 27.9962C46.7622 23.9859 46.7437 23.4826 46.673 21.9075C46.5992 20.3355 46.35 19.2625 45.987 18.3236C45.6086 17.3524 45.1041 16.5285 44.2827 15.7078C43.4613 14.8864 42.6399 14.3819 41.6678 14.005C40.7264 13.6399 39.6528 13.391 38.0808 13.319C36.5057 13.2473 36.0042 13.2298 31.9927 13.2298H31.9973ZM30.6726 15.8908C31.0658 15.8902 31.5045 15.8908 31.9973 15.8908C35.9399 15.8908 36.4072 15.905 37.9642 15.9757C39.4039 16.0416 40.1853 16.2821 40.7058 16.4842C41.3949 16.7519 41.8862 17.0718 42.4027 17.5887C42.9195 18.1055 43.2395 18.5977 43.5077 19.2868C43.7099 19.8067 43.9507 20.5881 44.0163 22.0278C44.087 23.5845 44.1024 24.0521 44.1024 27.9929C44.1024 31.9337 44.087 32.4013 44.0163 33.9579C43.9504 35.3976 43.7099 36.179 43.5077 36.6989C43.2401 37.388 42.9195 37.8787 42.4027 38.3952C41.8859 38.912 41.3952 39.232 40.7058 39.4996C40.1859 39.7027 39.4039 39.9426 37.9642 40.0084C36.4075 40.0792 35.9399 40.0946 31.9973 40.0946C28.0543 40.0946 27.587 40.0792 26.0304 40.0084C24.5907 39.942 23.8093 39.7014 23.2885 39.4993C22.5994 39.2317 22.1072 38.9117 21.5903 38.3949C21.0735 37.8781 20.7536 37.3871 20.4853 36.6977C20.2832 36.1778 20.0423 35.3964 19.9768 33.9567C19.906 32.4 19.8919 31.9324 19.8919 27.9892C19.8919 24.0459 19.906 23.5808 19.9768 22.0241C20.0426 20.5844 20.2832 19.803 20.4853 19.2825C20.7529 18.5934 21.0735 18.1012 21.5903 17.5843C22.1072 17.0675 22.5994 16.7476 23.2885 16.4793C23.809 16.2763 24.5907 16.0363 26.0304 15.9702C27.3926 15.9087 27.9205 15.8902 30.6726 15.8871V15.8908ZM39.8795 18.3427C38.9012 18.3427 38.1075 19.1354 38.1075 20.114C38.1075 21.0923 38.9012 21.886 39.8795 21.886C40.8578 21.886 41.6515 21.0923 41.6515 20.114C41.6515 19.1358 40.8578 18.3421 39.8795 18.3421V18.3427ZM31.9973 20.413C27.8095 20.413 24.4141 23.8084 24.4141 27.9962C24.4141 32.1841 27.8095 35.5779 31.9973 35.5779C36.1851 35.5779 39.5793 32.1841 39.5793 27.9962C39.5793 23.8084 36.1851 20.413 31.9973 20.413ZM31.9973 23.0741C34.7155 23.0741 36.9194 25.2777 36.9194 27.9962C36.9194 30.7145 34.7155 32.9184 31.9973 32.9184C29.2787 32.9184 27.0751 30.7145 27.0751 27.9962C27.0751 25.2777 29.2787 23.0741 31.9973 23.0741Z" fill="white"/>
</g>
<g filter="url(#filter1_d_1_50)">
<path d="M67.625 15.9204C67.5644 15.3826 67.3144 14.9659 66.875 14.6704C66.4356 14.3712 65.8826 14.2216 65.2159 14.2216C64.7386 14.2216 64.3257 14.2973 63.9773 14.4489C63.6288 14.5966 63.3579 14.8011 63.1648 15.0625C62.9754 15.3201 62.8807 15.6136 62.8807 15.9432C62.8807 16.2197 62.9451 16.4583 63.0738 16.6591C63.2064 16.8598 63.3788 17.0284 63.5909 17.1648C63.8068 17.2973 64.0379 17.4091 64.2841 17.5C64.5303 17.5871 64.767 17.6591 64.9943 17.7159L66.1307 18.0114C66.5019 18.1023 66.8826 18.2254 67.2727 18.3807C67.6629 18.536 68.0246 18.7405 68.3579 18.9943C68.6913 19.2481 68.9602 19.5625 69.1648 19.9375C69.3731 20.3125 69.4773 20.7614 69.4773 21.2841C69.4773 21.9432 69.3068 22.5284 68.9659 23.0398C68.6288 23.5511 68.1382 23.9545 67.4943 24.25C66.8541 24.5454 66.0795 24.6932 65.1704 24.6932C64.2992 24.6932 63.5454 24.5549 62.9091 24.2784C62.2727 24.0019 61.7746 23.6098 61.4148 23.1023C61.0549 22.5909 60.856 21.9848 60.8182 21.2841H62.5795C62.6136 21.7045 62.75 22.0549 62.9886 22.3352C63.231 22.6117 63.5398 22.8182 63.9148 22.9545C64.2935 23.0871 64.7083 23.1534 65.1591 23.1534C65.6553 23.1534 66.0966 23.0758 66.4829 22.9204C66.8731 22.7614 67.1799 22.5417 67.4034 22.2614C67.6269 21.9773 67.7386 21.6458 67.7386 21.267C67.7386 20.9223 67.6401 20.6401 67.4432 20.4204C67.25 20.2008 66.9867 20.0189 66.6534 19.875C66.3238 19.7311 65.9507 19.6042 65.5341 19.4943L64.1591 19.1193C63.2273 18.8655 62.4886 18.4924 61.9432 18C61.4015 17.5076 61.1307 16.8561 61.1307 16.0454C61.1307 15.375 61.3125 14.7898 61.6761 14.2898C62.0398 13.7898 62.5322 13.4015 63.1534 13.125C63.7746 12.8447 64.4754 12.7045 65.2557 12.7045C66.0435 12.7045 66.7386 12.8428 67.3409 13.1193C67.947 13.3958 68.4242 13.7765 68.7727 14.2614C69.1212 14.7424 69.303 15.2954 69.3182 15.9204H67.625ZM75.2003 24.6761C74.3404 24.6761 73.5999 24.4924 72.9787 24.125C72.3613 23.7538 71.884 23.2329 71.5469 22.5625C71.2135 21.8883 71.0469 21.0985 71.0469 20.1932C71.0469 19.2992 71.2135 18.5114 71.5469 17.8295C71.884 17.1477 72.3537 16.6155 72.9559 16.2329C73.562 15.8504 74.2703 15.6591 75.0809 15.6591C75.5734 15.6591 76.0506 15.7405 76.5128 15.9034C76.9749 16.0663 77.3897 16.322 77.7571 16.6704C78.1245 17.0189 78.4143 17.4716 78.6264 18.0284C78.8385 18.5814 78.9446 19.2538 78.9446 20.0454V20.6477H72.0071V19.375H77.2798C77.2798 18.928 77.1889 18.5322 77.0071 18.1875C76.8253 17.839 76.5696 17.5644 76.24 17.3636C75.9143 17.1629 75.5317 17.0625 75.0923 17.0625C74.615 17.0625 74.1984 17.1799 73.8423 17.4148C73.49 17.6458 73.2173 17.9489 73.0241 18.3239C72.8347 18.6951 72.74 19.0985 72.74 19.5341V20.5284C72.74 21.1117 72.8423 21.6079 73.0469 22.017C73.2552 22.4261 73.545 22.7386 73.9162 22.9545C74.2874 23.1667 74.7211 23.2727 75.2173 23.2727C75.5393 23.2727 75.8328 23.2273 76.098 23.1364C76.3631 23.0417 76.5923 22.9015 76.7855 22.7159C76.9787 22.5303 77.1264 22.3011 77.2287 22.0284L78.8366 22.3182C78.7078 22.7917 78.4768 23.2064 78.1434 23.5625C77.8139 23.9148 77.3991 24.1894 76.8991 24.3864C76.4029 24.5795 75.8366 24.6761 75.2003 24.6761ZM84.5909 24.6761C83.731 24.6761 82.9905 24.4924 82.3693 24.125C81.7519 23.7538 81.2746 23.2329 80.9375 22.5625C80.6041 21.8883 80.4375 21.0985 80.4375 20.1932C80.4375 19.2992 80.6041 18.5114 80.9375 17.8295C81.2746 17.1477 81.7443 16.6155 82.3466 16.2329C82.9526 15.8504 83.661 15.6591 84.4716 15.6591C84.964 15.6591 85.4413 15.7405 85.9034 15.9034C86.3655 16.0663 86.7803 16.322 87.1477 16.6704C87.5151 17.0189 87.8049 17.4716 88.017 18.0284C88.2291 18.5814 88.3352 19.2538 88.3352 20.0454V20.6477H81.3977V19.375H86.6704C86.6704 18.928 86.5795 18.5322 86.3977 18.1875C86.2159 17.839 85.9602 17.5644 85.6307 17.3636C85.3049 17.1629 84.9223 17.0625 84.4829 17.0625C84.0057 17.0625 83.589 17.1799 83.2329 17.4148C82.8807 17.6458 82.6079 17.9489 82.4148 18.3239C82.2254 18.6951 82.1307 19.0985 82.1307 19.5341V20.5284C82.1307 21.1117 82.2329 21.6079 82.4375 22.017C82.6458 22.4261 82.9356 22.7386 83.3068 22.9545C83.678 23.1667 84.1117 23.2727 84.6079 23.2727C84.9299 23.2727 85.2235 23.2273 85.4886 23.1364C85.7538 23.0417 85.9829 22.9015 86.1761 22.7159C86.3693 22.5303 86.517 22.3011 86.6193 22.0284L88.2272 22.3182C88.0985 22.7917 87.8674 23.2064 87.5341 23.5625C87.2045 23.9148 86.7897 24.1894 86.2897 24.3864C85.7935 24.5795 85.2272 24.6761 84.5909 24.6761ZM94.4545 24.5V15.7727H96.0852V17.1932H96.1932C96.375 16.7121 96.6723 16.3371 97.0852 16.0682C97.4981 15.7954 97.9924 15.6591 98.5682 15.6591C99.1515 15.6591 99.6401 15.7954 100.034 16.0682C100.432 16.3409 100.725 16.7159 100.915 17.1932H101.006C101.214 16.7273 101.545 16.3561 102 16.0795C102.455 15.7992 102.996 15.6591 103.625 15.6591C104.417 15.6591 105.062 15.9072 105.562 16.4034C106.066 16.8996 106.318 17.6477 106.318 18.6477V24.5H104.619V18.8068C104.619 18.2159 104.458 17.7879 104.136 17.5227C103.814 17.2576 103.43 17.125 102.983 17.125C102.43 17.125 102 17.2954 101.693 17.6364C101.386 17.9735 101.233 18.4072 101.233 18.9375V24.5H99.5397V18.6989C99.5397 18.2254 99.392 17.8447 99.0966 17.5568C98.8011 17.2689 98.4166 17.125 97.9432 17.125C97.6212 17.125 97.3238 17.2102 97.0511 17.3807C96.7822 17.5473 96.5644 17.7803 96.3977 18.0795C96.2348 18.3788 96.1534 18.7254 96.1534 19.1193V24.5H94.4545ZM112.357 24.6761C111.497 24.6761 110.756 24.4924 110.135 24.125C109.517 23.7538 109.04 23.2329 108.703 22.5625C108.37 21.8883 108.203 21.0985 108.203 20.1932C108.203 19.2992 108.37 18.5114 108.703 17.8295C109.04 17.1477 109.51 16.6155 110.112 16.2329C110.718 15.8504 111.427 15.6591 112.237 15.6591C112.73 15.6591 113.207 15.7405 113.669 15.9034C114.131 16.0663 114.546 16.322 114.913 16.6704C115.281 17.0189 115.571 17.4716 115.783 18.0284C115.995 18.5814 116.101 19.2538 116.101 20.0454V20.6477H109.163V19.375H114.436C114.436 18.928 114.345 18.5322 114.163 18.1875C113.982 17.839 113.726 17.5644 113.396 17.3636C113.071 17.1629 112.688 17.0625 112.249 17.0625C111.771 17.0625 111.355 17.1799 110.999 17.4148C110.646 17.6458 110.374 17.9489 110.18 18.3239C109.991 18.6951 109.896 19.0985 109.896 19.5341V20.5284C109.896 21.1117 109.999 21.6079 110.203 22.017C110.411 22.4261 110.701 22.7386 111.072 22.9545C111.444 23.1667 111.877 23.2727 112.374 23.2727C112.696 23.2727 112.989 23.2273 113.254 23.1364C113.519 23.0417 113.749 22.9015 113.942 22.7159C114.135 22.5303 114.283 22.3011 114.385 22.0284L115.993 22.3182C115.864 22.7917 115.633 23.2064 115.3 23.5625C114.97 23.9148 114.555 24.1894 114.055 24.3864C113.559 24.5795 112.993 24.6761 112.357 24.6761ZM125.896 24.6761C125.078 24.6761 124.364 24.4886 123.754 24.1136C123.144 23.7386 122.671 23.214 122.334 22.5398C121.997 21.8655 121.828 21.0776 121.828 20.1761C121.828 19.2708 121.997 18.4792 122.334 17.8011C122.671 17.1231 123.144 16.5966 123.754 16.2216C124.364 15.8466 125.078 15.6591 125.896 15.6591C126.714 15.6591 127.428 15.8466 128.038 16.2216C128.648 16.5966 129.122 17.1231 129.459 17.8011C129.796 18.4792 129.964 19.2708 129.964 20.1761C129.964 21.0776 129.796 21.8655 129.459 22.5398C129.122 23.214 128.648 23.7386 128.038 24.1136C127.428 24.4886 126.714 24.6761 125.896 24.6761ZM125.902 23.25C126.432 23.25 126.872 23.1098 127.22 22.8295C127.569 22.5492 127.826 22.1761 127.993 21.7102C128.163 21.2443 128.249 20.7311 128.249 20.1704C128.249 19.6136 128.163 19.1023 127.993 18.6364C127.826 18.1667 127.569 17.7898 127.22 17.5057C126.872 17.2216 126.432 17.0795 125.902 17.0795C125.368 17.0795 124.925 17.2216 124.572 17.5057C124.224 17.7898 123.964 18.1667 123.794 18.6364C123.627 19.1023 123.544 19.6136 123.544 20.1704C123.544 20.7311 123.627 21.2443 123.794 21.7102C123.964 22.1761 124.224 22.5492 124.572 22.8295C124.925 23.1098 125.368 23.25 125.902 23.25ZM133.56 19.3182V24.5H131.861V15.7727H133.491V17.1932H133.599C133.8 16.7311 134.115 16.3598 134.543 16.0795C134.974 15.7992 135.518 15.6591 136.173 15.6591C136.768 15.6591 137.289 15.7841 137.736 16.0341C138.183 16.2803 138.529 16.6477 138.776 17.1364C139.022 17.625 139.145 18.2292 139.145 18.9489V24.5H137.446V19.1534C137.446 18.5208 137.281 18.0265 136.952 17.6704C136.622 17.3106 136.169 17.1307 135.594 17.1307C135.2 17.1307 134.849 17.2159 134.543 17.3864C134.24 17.5568 133.999 17.8068 133.821 18.1364C133.647 18.4621 133.56 18.8561 133.56 19.3182Z" fill="#E8E8E8"/>
<path d="M63.924 31.1364V43.5H60.9357V31.1364H63.924ZM68.752 38.2116V43.5H65.8V34.2273H68.6071V35.9297H68.7098C68.915 35.3622 69.2652 34.9175 69.7602 34.5955C70.2552 34.2695 70.8448 34.1065 71.529 34.1065C72.181 34.1065 72.7465 34.2534 73.2254 34.5472C73.7083 34.837 74.0826 35.2435 74.3483 35.7667C74.6179 36.2859 74.7507 36.8936 74.7467 37.5898V43.5H71.7946V38.1694C71.7987 37.6542 71.6679 37.2518 71.4022 36.962C71.1406 36.6722 70.7764 36.5273 70.3096 36.5273C69.9997 36.5273 69.726 36.5958 69.4885 36.7326C69.2551 36.8654 69.074 37.0566 68.9452 37.3061C68.8204 37.5556 68.756 37.8575 68.752 38.2116ZM84.6699 37.0586L81.9593 37.131C81.9311 36.9378 81.8547 36.7668 81.7299 36.6179C81.6052 36.465 81.4422 36.3462 81.2409 36.2617C81.0437 36.1732 80.8143 36.1289 80.5527 36.1289C80.2106 36.1289 79.9188 36.1973 79.6774 36.3342C79.4399 36.471 79.3232 36.6561 79.3272 36.8895C79.3232 37.0707 79.3956 37.2276 79.5445 37.3604C79.6975 37.4932 79.9691 37.5999 80.3595 37.6804L82.1465 38.0185C83.0721 38.1955 83.7603 38.4893 84.2111 38.8998C84.6659 39.3104 84.8953 39.8537 84.8993 40.5298C84.8953 41.1657 84.7061 41.7191 84.3318 42.19C83.9616 42.6609 83.4545 43.0271 82.8105 43.2887C82.1666 43.5463 81.4301 43.6751 80.601 43.6751C79.2769 43.6751 78.2325 43.4034 77.4678 42.8601C76.7072 42.3127 76.2725 41.5802 76.1639 40.6626L79.0797 40.5902C79.1441 40.9283 79.3111 41.1858 79.5808 41.3629C79.8504 41.54 80.1945 41.6285 80.6131 41.6285C80.9914 41.6285 81.2993 41.5581 81.5367 41.4172C81.7742 41.2764 81.8949 41.0892 81.8989 40.8558C81.8949 40.6465 81.8024 40.4795 81.6212 40.3547C81.4401 40.226 81.1564 40.1253 80.77 40.0529L79.1521 39.745C78.2225 39.576 77.5302 39.2641 77.0754 38.8093C76.6207 38.3505 76.3953 37.7669 76.3993 37.0586C76.3953 36.4388 76.5603 35.9096 76.8943 35.4709C77.2284 35.0282 77.7033 34.6901 78.319 34.4567C78.9348 34.2232 79.6613 34.1065 80.4984 34.1065C81.7541 34.1065 82.7441 34.3701 83.4686 34.8974C84.193 35.4206 84.5934 36.141 84.6699 37.0586ZM91.5867 34.2273V36.4006H85.7369V34.2273H91.5867ZM86.9624 32.0057H89.9145V40.5842C89.9145 40.7653 89.9427 40.9122 89.999 41.0248C90.0594 41.1335 90.1459 41.212 90.2586 41.2603C90.3713 41.3046 90.5061 41.3267 90.6631 41.3267C90.7758 41.3267 90.8945 41.3166 91.0192 41.2965C91.148 41.2724 91.2446 41.2522 91.309 41.2361L91.7557 43.3672C91.6149 43.4074 91.4157 43.4577 91.1581 43.5181C90.9045 43.5785 90.6007 43.6167 90.2465 43.6328C89.5543 43.665 88.9606 43.5845 88.4656 43.3913C87.9746 43.1941 87.5983 42.8882 87.3367 42.4737C87.0791 42.0592 86.9544 41.538 86.9624 40.9101V32.0057ZM95.7069 43.6569C95.1153 43.6569 94.5901 43.5583 94.1313 43.3611C93.6765 43.1599 93.3163 42.8581 93.0507 42.4556C92.7891 42.0491 92.6583 41.54 92.6583 40.9283C92.6583 40.4131 92.7488 39.9784 92.9299 39.6243C93.111 39.2701 93.3606 38.9824 93.6785 38.761C93.9965 38.5396 94.3627 38.3726 94.7772 38.2599C95.1918 38.1432 95.6345 38.0647 96.1054 38.0245C96.6326 37.9762 97.0572 37.9259 97.3791 37.8736C97.7011 37.8172 97.9345 37.7387 98.0794 37.6381C98.2283 37.5335 98.3028 37.3866 98.3028 37.1974V37.1672C98.3028 36.8574 98.1961 36.6179 97.9828 36.4489C97.7695 36.2798 97.4818 36.1953 97.1196 36.1953C96.7292 36.1953 96.4152 36.2798 96.1778 36.4489C95.9403 36.6179 95.7894 36.8513 95.725 37.1491L93.0024 37.0525C93.0829 36.4891 93.2901 35.986 93.6242 35.5433C93.9622 35.0966 94.4251 34.7464 95.0127 34.4929C95.6043 34.2353 96.3146 34.1065 97.1437 34.1065C97.7353 34.1065 98.2807 34.177 98.7797 34.3178C99.2788 34.4547 99.7134 34.6559 100.084 34.9215C100.454 35.1831 100.74 35.5051 100.941 35.8874C101.146 36.2698 101.249 36.7064 101.249 37.1974V43.5H98.4718V42.2081H98.3994C98.2344 42.522 98.0231 42.7876 97.7655 43.005C97.512 43.2223 97.2121 43.3853 96.866 43.494C96.5239 43.6026 96.1376 43.6569 95.7069 43.6569ZM96.6185 41.7251C96.9364 41.7251 97.2222 41.6607 97.4757 41.5319C97.7333 41.4032 97.9386 41.2261 98.0915 41.0007C98.2444 40.7713 98.3209 40.5057 98.3209 40.2038V39.3224C98.2364 39.3667 98.1338 39.4069 98.013 39.4432C97.8963 39.4794 97.7675 39.5136 97.6267 39.5458C97.4858 39.578 97.3409 39.6062 97.192 39.6303C97.0431 39.6545 96.9002 39.6766 96.7634 39.6967C96.4857 39.741 96.2482 39.8094 96.051 39.902C95.8578 39.9945 95.7089 40.1153 95.6043 40.2642C95.5037 40.4091 95.4534 40.5821 95.4534 40.7834C95.4534 41.0892 95.562 41.3227 95.7794 41.4837C96.0007 41.6446 96.2804 41.7251 96.6185 41.7251ZM107.376 47.1704C106.495 47.1704 105.74 47.0477 105.112 46.8022C104.485 46.5567 103.992 46.2206 103.633 45.794C103.275 45.3674 103.06 44.8845 102.987 44.3452L105.783 44.1882C105.835 44.3774 105.931 44.5424 106.072 44.6832C106.217 44.8241 106.404 44.9328 106.634 45.0092C106.867 45.0857 107.141 45.1239 107.455 45.1239C107.95 45.1239 108.358 45.0032 108.68 44.7617C109.006 44.5243 109.169 44.1077 109.169 43.5121V41.8821H109.067C108.95 42.1678 108.773 42.4234 108.535 42.6488C108.298 42.8742 108.002 43.0512 107.648 43.18C107.298 43.3088 106.895 43.3732 106.441 43.3732C105.764 43.3732 105.145 43.2163 104.581 42.9023C104.022 42.5844 103.573 42.0934 103.235 41.4293C102.901 40.7612 102.734 39.902 102.734 38.8516C102.734 37.7689 102.907 36.8775 103.253 36.1772C103.599 35.4729 104.052 34.9517 104.611 34.6136C105.175 34.2756 105.781 34.1065 106.429 34.1065C106.915 34.1065 107.332 34.191 107.678 34.3601C108.028 34.5251 108.316 34.7384 108.541 35C108.767 35.2616 108.938 35.5333 109.055 35.815H109.139V34.2273H112.079V43.5362C112.079 44.321 111.882 44.9831 111.487 45.5224C111.093 46.0617 110.542 46.4702 109.833 46.7479C109.125 47.0296 108.306 47.1704 107.376 47.1704ZM107.467 41.2241C107.825 41.2241 108.131 41.1295 108.384 40.9403C108.638 40.7512 108.833 40.4795 108.97 40.1253C109.107 39.7712 109.175 39.3466 109.175 38.8516C109.175 38.3485 109.107 37.9158 108.97 37.5536C108.837 37.1874 108.642 36.9056 108.384 36.7084C108.131 36.5112 107.825 36.4126 107.467 36.4126C107.101 36.4126 106.791 36.5132 106.537 36.7145C106.284 36.9157 106.09 37.1994 105.958 37.5657C105.829 37.9279 105.764 38.3565 105.764 38.8516C105.764 39.3466 105.831 39.7712 105.964 40.1253C106.096 40.4795 106.288 40.7512 106.537 40.9403C106.791 41.1295 107.101 41.2241 107.467 41.2241ZM113.961 43.5V34.2273H116.829V35.9176H116.925C117.094 35.3059 117.37 34.8511 117.752 34.5533C118.135 34.2514 118.579 34.1005 119.086 34.1005C119.223 34.1005 119.364 34.1105 119.509 34.1307C119.654 34.1468 119.789 34.1729 119.913 34.2092V36.7748C119.773 36.7266 119.588 36.6883 119.358 36.6601C119.133 36.632 118.931 36.6179 118.754 36.6179C118.404 36.6179 118.088 36.6964 117.807 36.8533C117.529 37.0063 117.31 37.2216 117.149 37.4993C116.992 37.773 116.913 38.0949 116.913 38.4652V43.5H113.961ZM123.382 43.6569C122.79 43.6569 122.265 43.5583 121.806 43.3611C121.351 43.1599 120.991 42.8581 120.725 42.4556C120.464 42.0491 120.333 41.54 120.333 40.9283C120.333 40.4131 120.424 39.9784 120.605 39.6243C120.786 39.2701 121.035 38.9824 121.353 38.761C121.671 38.5396 122.037 38.3726 122.452 38.2599C122.867 38.1432 123.309 38.0647 123.78 38.0245C124.307 37.9762 124.732 37.9259 125.054 37.8736C125.376 37.8172 125.609 37.7387 125.754 37.6381C125.903 37.5335 125.978 37.3866 125.978 37.1974V37.1672C125.978 36.8574 125.871 36.6179 125.658 36.4489C125.444 36.2798 125.157 36.1953 124.794 36.1953C124.404 36.1953 124.09 36.2798 123.853 36.4489C123.615 36.6179 123.464 36.8513 123.4 37.1491L120.677 37.0525C120.758 36.4891 120.965 35.986 121.299 35.5433C121.637 35.0966 122.1 34.7464 122.687 34.4929C123.279 34.2353 123.989 34.1065 124.819 34.1065C125.41 34.1065 125.955 34.177 126.455 34.3178C126.954 34.4547 127.388 34.6559 127.758 34.9215C128.129 35.1831 128.415 35.5051 128.616 35.8874C128.821 36.2698 128.924 36.7064 128.924 37.1974V43.5H126.147V42.2081H126.074C125.909 42.522 125.698 42.7876 125.44 43.005C125.187 43.2223 124.887 43.3853 124.541 43.494C124.199 43.6026 123.812 43.6569 123.382 43.6569ZM124.293 41.7251C124.611 41.7251 124.897 41.6607 125.151 41.5319C125.408 41.4032 125.613 41.2261 125.766 41.0007C125.919 40.7713 125.996 40.5057 125.996 40.2038V39.3224C125.911 39.3667 125.809 39.4069 125.688 39.4432C125.571 39.4794 125.442 39.5136 125.301 39.5458C125.161 39.578 125.016 39.6062 124.867 39.6303C124.718 39.6545 124.575 39.6766 124.438 39.6967C124.16 39.741 123.923 39.8094 123.726 39.902C123.533 39.9945 123.384 40.1153 123.279 40.2642C123.178 40.4091 123.128 40.5821 123.128 40.7834C123.128 41.0892 123.237 41.3227 123.454 41.4837C123.676 41.6446 123.955 41.7251 124.293 41.7251ZM130.729 43.5V34.2273H133.536V35.9297H133.638C133.832 35.3662 134.158 34.9215 134.616 34.5955C135.075 34.2695 135.623 34.1065 136.258 34.1065C136.902 34.1065 137.454 34.2715 137.913 34.6016C138.371 34.9316 138.663 35.3743 138.788 35.9297H138.885C139.058 35.3783 139.396 34.9376 139.899 34.6076C140.402 34.2735 140.995 34.1065 141.68 34.1065C142.557 34.1065 143.269 34.3882 143.817 34.9517C144.364 35.5111 144.638 36.2798 144.638 37.2578V43.5H141.686V37.9339C141.686 37.4711 141.567 37.119 141.33 36.8775C141.092 36.632 140.784 36.5092 140.406 36.5092C139.999 36.5092 139.679 36.642 139.446 36.9077C139.217 37.1693 139.102 37.5214 139.102 37.9641V43.5H136.265V37.9038C136.265 37.4731 136.148 37.133 135.914 36.8835C135.681 36.634 135.373 36.5092 134.991 36.5092C134.733 36.5092 134.506 36.5716 134.309 36.6964C134.111 36.8171 133.956 36.9902 133.844 37.2155C133.735 37.4409 133.681 37.7065 133.681 38.0124V43.5H130.729Z" fill="url(#paint3_linear_1_50)"/>
</g>
<defs>
<filter id="filter0_d_1_50" x="6.28571" y="2.28571" width="51.4286" height="51.4286" filterUnits="userSpaceOnUse" color-interpolation-filters="sRGB">
<feFlood flood-opacity="0" result="BackgroundImageFix"/>
<feColorMatrix in="SourceAlpha" type="matrix" values="0 0 0 0 0 0 0 0 0 0 0 0 0 0 0 0 0 0 127 0" result="hardAlpha"/>
<feOffset/>
<feGaussianBlur stdDeviation="2.85714"/>
<feComposite in2="hardAlpha" operator="out"/>
<feColorMatrix type="matrix" values="0 0 0 0 0 0 0 0 0 0 0 0 0 0 0 0 0 0 0.25 0"/>
<feBlend mode="normal" in2="BackgroundImageFix" result="effect1_dropShadow_1_50"/>
<feBlend mode="normal" in="SourceGraphic" in2="effect1_dropShadow_1_50" result="shape"/>
</filter>
<filter id="filter1_d_1_50" x="54.4" y="3.9" width="97.2" height="48.8704" filterUnits="userSpaceOnUse" color-interpolation-filters="sRGB">
<feFlood flood-opacity="0" result="BackgroundImageFix"/>
<feColorMatrix in="SourceAlpha" type="matrix" values="0 0 0 0 0 0 0 0 0 0 0 0 0 0 0 0 0 0 127 0" result="hardAlpha"/>
<feOffset/>
<feGaussianBlur stdDeviation="2.8"/>
<feComposite in2="hardAlpha" operator="out"/>
<feColorMatrix type="matrix" values="0 0 0 0 0 0 0 0 0 0 0 0 0 0 0 0 0 0 0.25 0"/>
<feBlend mode="normal" in2="BackgroundImageFix" result="effect1_dropShadow_1_50"/>
<feBlend mode="normal" in="SourceGraphic" in2="effect1_dropShadow_1_50" result="shape"/>
</filter>
<linearGradient id="paint0_linear_1_50" x1="79" y1="0" x2="79" y2="56" gradientUnits="userSpaceOnUse">
<stop stop-color="#50227A"/>
<stop offset="1" stop-color="#1B0B29"/>
</linearGradient>
<radialGradient id="paint1_radial_1_50" cx="0" cy="0" r="1" gradientUnits="userSpaceOnUse" gradientTransform="translate(22.6251 51.0691) rotate(-90) scale(39.6321 36.8711)">
<stop stop-color="#FFDD55"/>
<stop offset="0.1" stop-color="#FFDD55"/>
<stop offset="0.5" stop-color="#FF543E"/>
<stop offset="1" stop-color="#C837AB"/>
</radialGradient>
<radialGradient id="paint2_radial_1_50" cx="0" cy="0" r="1" gradientUnits="userSpaceOnUse" gradientTransform="translate(5.29979 10.8807) rotate(78.6776) scale(17.7159 73.0442)">
<stop stop-color="#3771C8"/>
<stop offset="0.128" stop-color="#3771C8"/>
<stop offset="1" stop-color="#6600FF" stop-opacity="0"/>
</radialGradient>
<linearGradient id="paint3_linear_1_50" x1="61.4098" y1="37" x2="143.885" y2="37" gradientUnits="userSpaceOnUse">
<stop stop-color="#F9CE34"/>
<stop offset="0.5" stop-color="#EE2A7B"/>
<stop offset="1" stop-color="#6228D7"/>
</linearGradient>
</defs>
</svg>
