<svg width="40" height="40" viewBox="0 0 40 40" fill="none" xmlns="http://www.w3.org/2000/svg">
<rect width="40" height="40" rx="8" fill="url(#paint0_linear_1_68)"/>
<rect x="1.05" y="1.05" width="37.9" height="37.9" rx="6.95" stroke="white" stroke-opacity="0.15" stroke-width="2.1"/>
<g filter="url(#filter0_d_1_68)">
<path d="M30.0963 21.5641C29.12 21.5693 28.2715 21.8044 27.561 22.152C27.3004 21.6357 27.0397 21.1757 26.9937 20.8383C26.9426 20.4448 26.8812 20.2045 26.9426 19.7343C27.0039 19.264 27.2799 18.5944 27.2748 18.5433C27.2697 18.4922 27.2135 18.252 26.6512 18.2469C26.089 18.2418 25.6034 18.3542 25.5472 18.5024C25.4909 18.6507 25.3836 18.988 25.312 19.3356C25.2149 19.8467 24.1875 21.6715 23.5997 22.6273C23.4106 22.2542 23.2471 21.9271 23.2113 21.6664C23.1602 21.2728 23.0988 21.0326 23.1602 20.5623C23.2215 20.0921 23.4975 19.4225 23.4924 19.3714C23.4873 19.3203 23.4311 19.08 22.8688 19.0749C22.3066 19.0698 21.821 19.1823 21.7648 19.3305C21.7085 19.4787 21.6472 19.8263 21.5296 20.1636C21.4121 20.501 20.0473 23.5473 19.6895 24.3345C19.5055 24.7383 19.3471 25.0603 19.2346 25.2801C19.2346 25.2801 19.2295 25.2954 19.2142 25.321C19.1171 25.5101 19.0609 25.6123 19.0609 25.6123C19.0609 25.6123 19.0609 25.6123 19.0609 25.6174C18.9842 25.7555 18.9024 25.8832 18.8615 25.8832C18.8308 25.8832 18.7746 25.5152 18.8717 25.0143C19.0762 23.9563 19.5618 22.3104 19.5567 22.2542C19.5567 22.2235 19.6487 21.9373 19.2397 21.789C18.8411 21.6408 18.6979 21.8862 18.6622 21.8862C18.6264 21.8862 18.6008 21.9731 18.6008 21.9731C18.6008 21.9731 19.0455 20.1227 17.7523 20.1227C16.9447 20.1227 15.8305 21.007 15.2784 21.8044C14.9309 21.9935 14.1897 22.3973 13.3975 22.8318C13.0959 23.0004 12.7841 23.1691 12.4928 23.3276C12.4723 23.3071 12.4519 23.2816 12.4314 23.2611C10.8673 21.5897 7.97432 20.409 8.097 18.1651C8.143 17.3473 8.42412 15.2005 13.653 12.5937C17.9568 10.4725 21.3814 11.0603 21.9743 12.3637C22.8228 14.2242 20.1393 17.6795 15.6925 18.1804C13.9955 18.3695 13.1061 17.7153 12.8812 17.4699C12.6461 17.2144 12.6103 17.199 12.5234 17.2502C12.3803 17.3268 12.4723 17.5568 12.5234 17.6897C12.6563 18.0373 13.2032 18.6507 14.1284 18.9522C14.9462 19.218 16.9345 19.3663 19.342 18.436C22.0357 17.3933 24.1415 14.4951 23.5231 12.0672C22.9046 9.60358 18.8155 8.79087 14.9462 10.1658C12.6461 10.9836 10.1518 12.2717 8.35767 13.9482C6.22624 15.9417 5.88889 17.6744 6.0269 18.4002C6.5227 20.9763 10.0751 22.6529 11.496 23.8949C11.4245 23.9358 11.358 23.9716 11.3018 24.0023C10.5913 24.3549 7.88232 25.7708 7.20762 27.2684C6.44092 28.9654 7.33029 30.1819 7.9181 30.3454C9.74285 30.8515 11.6187 29.9417 12.6257 28.4389C13.6326 26.9362 13.5099 24.9836 13.0448 24.0892C13.0397 24.0789 13.0346 24.0687 13.0243 24.0585C13.2083 23.9511 13.3975 23.8387 13.5815 23.7314C13.9444 23.5167 14.3022 23.3173 14.6089 23.1538C14.4351 23.6291 14.3073 24.1965 14.246 25.0143C14.1693 25.9752 14.5629 27.2224 15.0791 27.7131C15.3091 27.9278 15.58 27.9329 15.7538 27.9329C16.3569 27.9329 16.6278 27.432 16.9294 26.8391C17.2974 26.1132 17.6297 25.2699 17.6297 25.2699C17.6297 25.2699 17.2157 27.5495 18.3401 27.5495C18.7491 27.5495 19.1631 27.018 19.3471 26.7471C19.3471 26.7522 19.3471 26.7522 19.3471 26.7522C19.3471 26.7522 19.3573 26.7368 19.3778 26.7011C19.4186 26.6346 19.4442 26.5937 19.4442 26.5937C19.4442 26.5937 19.4442 26.5886 19.4442 26.5835C19.6078 26.2973 19.9758 25.6481 20.5227 24.5696C21.2281 23.1793 21.9079 21.4415 21.9079 21.4415C21.9079 21.4415 21.9692 21.8657 22.1788 22.5711C22.3014 22.9851 22.557 23.44 22.7615 23.8796C22.5979 24.1096 22.4957 24.2374 22.4957 24.2374C22.4957 24.2374 22.4957 24.2374 22.5008 24.2425C22.3679 24.4163 22.2248 24.6054 22.0663 24.7894C21.5092 25.4539 20.8447 26.2155 20.7527 26.4353C20.6454 26.6959 20.6709 26.8851 20.8754 27.0384C21.0236 27.1509 21.2894 27.1662 21.5603 27.1509C22.0612 27.1151 22.4139 26.9924 22.5877 26.9157C22.8586 26.8186 23.1755 26.6704 23.4719 26.4506C24.0189 26.0468 24.3511 25.4692 24.3204 24.7076C24.3051 24.2885 24.1671 23.8694 23.9984 23.4758C24.0495 23.4042 24.0955 23.3327 24.1466 23.2611C25.0105 21.9986 25.6801 20.6134 25.6801 20.6134C25.6801 20.6134 25.7414 21.0377 25.951 21.743C26.0532 22.1008 26.2627 22.4893 26.4468 22.8675C25.6341 23.5269 25.1331 24.2936 24.9542 24.7945C24.6322 25.7248 24.8827 26.1439 25.358 26.241C25.5727 26.287 25.8794 26.1848 26.1043 26.0877C26.3905 25.9957 26.7279 25.8372 27.0499 25.6021C27.5968 25.1983 28.1233 24.6361 28.0926 23.8745C28.0773 23.5269 27.9853 23.1844 27.8575 22.8522C28.5475 22.566 29.4369 22.4075 30.5716 22.5404C33.0046 22.8266 33.4851 24.3447 33.3931 24.9836C33.3011 25.6226 32.79 25.9701 32.6213 26.0775C32.4526 26.1848 32.3964 26.2206 32.4117 26.2973C32.4322 26.4097 32.5139 26.4046 32.6571 26.3841C32.8564 26.3484 33.9349 25.8679 33.9809 24.6923C34.0576 23.1896 32.6264 21.5488 30.0963 21.5641ZM11.3274 27.892C10.5198 28.7712 9.39528 29.1034 8.9097 28.8223C8.38834 28.5207 8.5928 27.2224 9.5844 26.2921C10.1875 25.7248 10.9645 25.1983 11.4807 24.8763C11.5983 24.8047 11.7721 24.7025 11.9816 24.5747C12.0174 24.5543 12.0378 24.5441 12.0378 24.5441C12.0787 24.5185 12.1196 24.4929 12.1605 24.4674C12.5234 25.7963 12.1759 26.9668 11.3274 27.892ZM17.2054 23.8949C16.9243 24.5798 16.3365 26.333 15.9787 26.2359C15.672 26.1541 15.4829 24.8252 15.9174 23.5116C16.1372 22.8522 16.6023 22.0651 16.8732 21.7584C17.3128 21.2677 17.7983 21.1041 17.9159 21.3035C18.0641 21.5641 17.3792 23.4656 17.2054 23.8949ZM22.0561 26.2155C21.9385 26.2768 21.8261 26.3177 21.775 26.287C21.7392 26.2666 21.8261 26.1848 21.8261 26.1848C21.8261 26.1848 22.4343 25.5306 22.6746 25.2341C22.8126 25.0603 22.9761 24.8559 23.1499 24.6258C23.1499 24.6463 23.1499 24.6718 23.1499 24.6923C23.1499 25.4743 22.3935 26.0008 22.0561 26.2155ZM25.7976 25.3619C25.7107 25.3005 25.7261 25.0961 26.0174 24.4572C26.1299 24.2067 26.3956 23.7876 26.8506 23.3838C26.9017 23.5473 26.9374 23.7058 26.9323 23.854C26.9272 24.8405 26.2219 25.2085 25.7976 25.3619Z" fill="#CD6799"/>
</g>
<defs>
<filter id="filter0_d_1_68" x="2" y="2" width="36" height="36" filterUnits="userSpaceOnUse" color-interpolation-filters="sRGB">
<feFlood flood-opacity="0" result="BackgroundImageFix"/>
<feColorMatrix in="SourceAlpha" type="matrix" values="0 0 0 0 0 0 0 0 0 0 0 0 0 0 0 0 0 0 127 0" result="hardAlpha"/>
<feOffset/>
<feGaussianBlur stdDeviation="2"/>
<feComposite in2="hardAlpha" operator="out"/>
<feColorMatrix type="matrix" values="0 0 0 0 0 0 0 0 0 0 0 0 0 0 0 0 0 0 0.25 0"/>
<feBlend mode="normal" in2="BackgroundImageFix" result="effect1_dropShadow_1_68"/>
<feBlend mode="normal" in="SourceGraphic" in2="effect1_dropShadow_1_68" result="shape"/>
</filter>
<linearGradient id="paint0_linear_1_68" x1="20" y1="0" x2="20" y2="40" gradientUnits="userSpaceOnUse">
<stop stop-color="#7F2A54"/>
<stop offset="1" stop-color="#511B35"/>
</linearGradient>
</defs>
</svg>
