<svg width="171" height="40" viewBox="0 0 171 40" fill="none" xmlns="http://www.w3.org/2000/svg">
<rect width="171.001" height="40.0014" rx="8" fill="url(#paint0_linear_1_56)"/>
<rect x="1.07143" y="1.07143" width="168.859" height="37.8585" rx="6.92857" stroke="white" stroke-opacity="0.15" stroke-width="2.14286"/>
<g filter="url(#filter0_d_1_56)">
<path d="M32.0963 21.5641C31.12 21.5693 30.2715 21.8044 29.561 22.152C29.3004 21.6357 29.0397 21.1757 28.9937 20.8383C28.9426 20.4448 28.8812 20.2045 28.9426 19.7343C29.0039 19.264 29.2799 18.5944 29.2748 18.5433C29.2697 18.4922 29.2135 18.252 28.6512 18.2469C28.089 18.2418 27.6034 18.3542 27.5472 18.5024C27.4909 18.6507 27.3836 18.988 27.312 19.3356C27.2149 19.8467 26.1875 21.6715 25.5997 22.6273C25.4106 22.2542 25.2471 21.9271 25.2113 21.6664C25.1602 21.2728 25.0988 21.0326 25.1602 20.5623C25.2215 20.0921 25.4975 19.4225 25.4924 19.3714C25.4873 19.3203 25.4311 19.08 24.8688 19.0749C24.3066 19.0698 23.821 19.1823 23.7648 19.3305C23.7085 19.4787 23.6472 19.8263 23.5296 20.1636C23.4121 20.501 22.0473 23.5473 21.6895 24.3345C21.5055 24.7383 21.3471 25.0603 21.2346 25.2801C21.2346 25.2801 21.2295 25.2954 21.2142 25.321C21.1171 25.5101 21.0609 25.6123 21.0609 25.6123C21.0609 25.6123 21.0609 25.6123 21.0609 25.6174C20.9842 25.7555 20.9024 25.8832 20.8615 25.8832C20.8308 25.8832 20.7746 25.5152 20.8717 25.0143C21.0762 23.9563 21.5618 22.3104 21.5567 22.2542C21.5567 22.2235 21.6487 21.9373 21.2397 21.789C20.8411 21.6408 20.6979 21.8862 20.6622 21.8862C20.6264 21.8862 20.6008 21.9731 20.6008 21.9731C20.6008 21.9731 21.0455 20.1227 19.7523 20.1227C18.9447 20.1227 17.8305 21.007 17.2784 21.8044C16.9309 21.9935 16.1897 22.3973 15.3975 22.8318C15.0959 23.0004 14.7841 23.1691 14.4928 23.3276C14.4723 23.3071 14.4519 23.2816 14.4314 23.2611C12.8673 21.5897 9.97432 20.409 10.097 18.1651C10.143 17.3473 10.4241 15.2005 15.653 12.5937C19.9568 10.4725 23.3814 11.0603 23.9743 12.3637C24.8228 14.2242 22.1393 17.6795 17.6925 18.1804C15.9955 18.3695 15.1061 17.7153 14.8812 17.4699C14.6461 17.2144 14.6103 17.199 14.5234 17.2502C14.3803 17.3268 14.4723 17.5568 14.5234 17.6897C14.6563 18.0373 15.2032 18.6507 16.1284 18.9522C16.9462 19.218 18.9345 19.3663 21.342 18.436C24.0357 17.3933 26.1415 14.4951 25.5231 12.0672C24.9046 9.60358 20.8155 8.79087 16.9462 10.1658C14.6461 10.9836 12.1518 12.2717 10.3577 13.9482C8.22624 15.9417 7.88889 17.6744 8.0269 18.4002C8.5227 20.9763 12.0751 22.6529 13.496 23.8949C13.4245 23.9358 13.358 23.9716 13.3018 24.0023C12.5913 24.3549 9.88232 25.7708 9.20762 27.2684C8.44092 28.9654 9.33029 30.1819 9.9181 30.3454C11.7429 30.8515 13.6187 29.9417 14.6257 28.4389C15.6326 26.9362 15.5099 24.9836 15.0448 24.0892C15.0397 24.0789 15.0346 24.0687 15.0243 24.0585C15.2083 23.9511 15.3975 23.8387 15.5815 23.7314C15.9444 23.5167 16.3022 23.3173 16.6089 23.1538C16.4351 23.6291 16.3073 24.1965 16.246 25.0143C16.1693 25.9752 16.5629 27.2224 17.0791 27.7131C17.3091 27.9278 17.58 27.9329 17.7538 27.9329C18.3569 27.9329 18.6278 27.432 18.9294 26.8391C19.2974 26.1132 19.6297 25.2699 19.6297 25.2699C19.6297 25.2699 19.2157 27.5495 20.3401 27.5495C20.7491 27.5495 21.1631 27.018 21.3471 26.7471C21.3471 26.7522 21.3471 26.7522 21.3471 26.7522C21.3471 26.7522 21.3573 26.7368 21.3778 26.7011C21.4186 26.6346 21.4442 26.5937 21.4442 26.5937C21.4442 26.5937 21.4442 26.5886 21.4442 26.5835C21.6078 26.2973 21.9758 25.6481 22.5227 24.5696C23.2281 23.1793 23.9079 21.4415 23.9079 21.4415C23.9079 21.4415 23.9692 21.8657 24.1788 22.5711C24.3014 22.9851 24.557 23.44 24.7615 23.8796C24.5979 24.1096 24.4957 24.2374 24.4957 24.2374C24.4957 24.2374 24.4957 24.2374 24.5008 24.2425C24.3679 24.4163 24.2248 24.6054 24.0663 24.7894C23.5092 25.4539 22.8447 26.2155 22.7527 26.4353C22.6454 26.6959 22.6709 26.8851 22.8754 27.0384C23.0236 27.1509 23.2894 27.1662 23.5603 27.1509C24.0612 27.1151 24.4139 26.9924 24.5877 26.9157C24.8586 26.8186 25.1755 26.6704 25.4719 26.4506C26.0189 26.0468 26.3511 25.4692 26.3204 24.7076C26.3051 24.2885 26.1671 23.8694 25.9984 23.4758C26.0495 23.4042 26.0955 23.3327 26.1466 23.2611C27.0105 21.9986 27.6801 20.6134 27.6801 20.6134C27.6801 20.6134 27.7414 21.0377 27.951 21.743C28.0532 22.1008 28.2627 22.4893 28.4468 22.8675C27.6341 23.5269 27.1331 24.2936 26.9542 24.7945C26.6322 25.7248 26.8827 26.1439 27.358 26.241C27.5727 26.287 27.8794 26.1848 28.1043 26.0877C28.3905 25.9957 28.7279 25.8372 29.0499 25.6021C29.5968 25.1983 30.1233 24.6361 30.0926 23.8745C30.0773 23.5269 29.9853 23.1844 29.8575 22.8522C30.5475 22.566 31.4369 22.4075 32.5716 22.5404C35.0046 22.8266 35.4851 24.3447 35.3931 24.9836C35.3011 25.6226 34.79 25.9701 34.6213 26.0775C34.4526 26.1848 34.3964 26.2206 34.4117 26.2973C34.4322 26.4097 34.5139 26.4046 34.6571 26.3841C34.8564 26.3484 35.9349 25.8679 35.9809 24.6923C36.0576 23.1896 34.6264 21.5488 32.0963 21.5641ZM13.3274 27.892C12.5198 28.7712 11.3953 29.1034 10.9097 28.8223C10.3883 28.5207 10.5928 27.2224 11.5844 26.2921C12.1875 25.7248 12.9645 25.1983 13.4807 24.8763C13.5983 24.8047 13.7721 24.7025 13.9816 24.5747C14.0174 24.5543 14.0378 24.5441 14.0378 24.5441C14.0787 24.5185 14.1196 24.4929 14.1605 24.4674C14.5234 25.7963 14.1759 26.9668 13.3274 27.892ZM19.2054 23.8949C18.9243 24.5798 18.3365 26.333 17.9787 26.2359C17.672 26.1541 17.4829 24.8252 17.9174 23.5116C18.1372 22.8522 18.6023 22.0651 18.8732 21.7584C19.3128 21.2677 19.7983 21.1041 19.9159 21.3035C20.0641 21.5641 19.3792 23.4656 19.2054 23.8949ZM24.0561 26.2155C23.9385 26.2768 23.8261 26.3177 23.775 26.287C23.7392 26.2666 23.8261 26.1848 23.8261 26.1848C23.8261 26.1848 24.4343 25.5306 24.6746 25.2341C24.8126 25.0603 24.9761 24.8559 25.1499 24.6258C25.1499 24.6463 25.1499 24.6718 25.1499 24.6923C25.1499 25.4743 24.3935 26.0008 24.0561 26.2155ZM27.7976 25.3619C27.7107 25.3005 27.7261 25.0961 28.0174 24.4572C28.1299 24.2067 28.3956 23.7876 28.8506 23.3838C28.9017 23.5473 28.9374 23.7058 28.9323 23.854C28.9272 24.8405 28.2219 25.2085 27.7976 25.3619Z" fill="#CD6799"/>
</g>
<g filter="url(#filter1_d_1_56)">
<path d="M43.3597 26.5007V14.1371H47.8874C48.7648 14.1371 49.4912 14.282 50.0667 14.5717C50.6423 14.8575 51.0729 15.2458 51.3586 15.7369C51.6444 16.2238 51.7873 16.7732 51.7873 17.3849C51.7873 17.9001 51.6927 18.3347 51.5035 18.6889C51.3144 19.0391 51.0608 19.3208 50.7429 19.5341C50.429 19.7434 50.0828 19.8963 49.7045 19.9929V20.1136C50.115 20.1337 50.5155 20.2666 50.9059 20.5121C51.3003 20.7535 51.6263 21.0976 51.8839 21.5444C52.1414 21.9911 52.2702 22.5344 52.2702 23.1743C52.2702 23.8062 52.1213 24.3737 51.8235 24.8768C51.5297 25.3758 51.0749 25.7722 50.4591 26.066C49.8434 26.3558 49.0566 26.5007 48.0987 26.5007H43.3597ZM45.2251 24.9009H47.9176C48.8111 24.9009 49.451 24.7279 49.8373 24.3817C50.2237 24.0356 50.4169 23.603 50.4169 23.0838C50.4169 22.6934 50.3183 22.3352 50.1211 22.0092C49.9239 21.6832 49.6421 21.4236 49.2759 21.2305C48.9137 21.0373 48.483 20.9407 47.984 20.9407H45.2251V24.9009ZM45.2251 19.4858H47.7244C48.143 19.4858 48.5193 19.4053 48.8533 19.2443C49.1914 19.0833 49.459 18.8579 49.6562 18.5682C49.8575 18.2744 49.9581 17.9283 49.9581 17.5298C49.9581 17.0187 49.779 16.5901 49.4208 16.244C49.0626 15.8978 48.5132 15.7248 47.7727 15.7248H45.2251V19.4858ZM60.2118 22.6552V17.228H62.0229V26.5007H60.248V24.8949H60.1514C59.9381 25.3899 59.596 25.8024 59.1251 26.1324C58.6583 26.4584 58.0767 26.6214 57.3805 26.6214C56.7848 26.6214 56.2576 26.4906 55.7988 26.229C55.344 25.9634 54.9858 25.571 54.7242 25.0518C54.4667 24.5327 54.3379 23.8907 54.3379 23.1261V17.228H56.1429V22.9087C56.1429 23.5406 56.318 24.0437 56.6681 24.418C57.0183 24.7922 57.473 24.9794 58.0325 24.9794C58.3705 24.9794 58.7066 24.8949 59.0406 24.7258C59.3787 24.5568 59.6584 24.3012 59.8798 23.9591C60.1051 23.6171 60.2158 23.1824 60.2118 22.6552ZM64.4482 26.5007V17.228H66.2533V26.5007H64.4482ZM65.3598 15.7972C65.0459 15.7972 64.7762 15.6926 64.5508 15.4833C64.3295 15.27 64.2188 15.0164 64.2188 14.7226C64.2188 14.4248 64.3295 14.1713 64.5508 13.962C64.7762 13.7487 65.0459 13.642 65.3598 13.642C65.6737 13.642 65.9413 13.7487 66.1627 13.962C66.3881 14.1713 66.5008 14.4248 66.5008 14.7226C66.5008 15.0164 66.3881 15.27 66.1627 15.4833C65.9413 15.6926 65.6737 15.7972 65.3598 15.7972ZM70.4867 14.1371V26.5007H68.6816V14.1371H70.4867ZM77.2435 17.228V18.6768H72.1785V17.228H77.2435ZM73.5368 15.0064H75.3419V23.778C75.3419 24.1282 75.3942 24.3918 75.4988 24.5689C75.6035 24.7419 75.7383 24.8607 75.9033 24.9251C76.0723 24.9854 76.2554 25.0156 76.4526 25.0156C76.5975 25.0156 76.7243 25.0056 76.833 24.9854C76.9416 24.9653 77.0262 24.9492 77.0865 24.9371L77.4125 26.4283C77.3079 26.4685 77.159 26.5087 76.9658 26.549C76.7726 26.5933 76.5311 26.6174 76.2414 26.6214C75.7664 26.6295 75.3237 26.545 74.9132 26.3679C74.5027 26.1908 74.1707 25.9171 73.9171 25.5469C73.6636 25.1766 73.5368 24.7118 73.5368 24.1523V15.0064ZM85.7495 26.5007L83.0208 17.228H84.8862L86.7034 24.0376H86.7939L88.6171 17.228H90.4825L92.2936 24.0074H92.3841L94.1891 17.228H96.0546L93.3319 26.5007H91.4906L89.6071 19.8057H89.4683L87.5847 26.5007H85.7495ZM97.7675 26.5007V17.228H99.5726V26.5007H97.7675ZM98.6791 15.7972C98.3652 15.7972 98.0955 15.6926 97.8702 15.4833C97.6488 15.27 97.5381 15.0164 97.5381 14.7226C97.5381 14.4248 97.6488 14.1713 97.8702 13.962C98.0955 13.7487 98.3652 13.642 98.6791 13.642C98.993 13.642 99.2607 13.7487 99.482 13.962C99.7074 14.1713 99.8201 14.4248 99.8201 14.7226C99.8201 15.0164 99.7074 15.27 99.482 15.4833C99.2607 15.6926 98.993 15.7972 98.6791 15.7972ZM106.329 17.228V18.6768H101.264V17.228H106.329ZM102.623 15.0064H104.428V23.778C104.428 24.1282 104.48 24.3918 104.585 24.5689C104.689 24.7419 104.824 24.8607 104.989 24.9251C105.158 24.9854 105.341 25.0156 105.539 25.0156C105.683 25.0156 105.81 25.0056 105.919 24.9854C106.028 24.9653 106.112 24.9492 106.172 24.9371L106.498 26.4283C106.394 26.4685 106.245 26.5087 106.052 26.549C105.859 26.5933 105.617 26.6174 105.327 26.6214C104.852 26.6295 104.41 26.545 103.999 26.3679C103.589 26.1908 103.257 25.9171 103.003 25.5469C102.75 25.1766 102.623 24.7118 102.623 24.1523V15.0064ZM110.33 20.995V26.5007H108.525V14.1371H110.306V18.7372H110.421C110.638 18.2382 110.97 17.8417 111.417 17.5479C111.864 17.2541 112.447 17.1072 113.168 17.1072C113.804 17.1072 114.359 17.238 114.834 17.4996C115.313 17.7612 115.683 18.1516 115.945 18.6708C116.21 19.1859 116.343 19.8299 116.343 20.6026V26.5007H114.538V20.8199C114.538 20.1398 114.363 19.6126 114.013 19.2383C113.663 18.86 113.176 18.6708 112.552 18.6708C112.125 18.6708 111.743 18.7614 111.405 18.9425C111.071 19.1236 110.807 19.3892 110.614 19.7393C110.425 20.0855 110.33 20.504 110.33 20.995Z" fill="#E8E8E8"/>
<path d="M129.62 17.3437C129.58 16.901 129.401 16.5569 129.083 16.3114C128.769 16.0619 128.32 15.9371 127.736 15.9371C127.35 15.9371 127.028 15.9874 126.771 16.0881C126.513 16.1887 126.32 16.3275 126.191 16.5046C126.062 16.6777 125.996 16.8769 125.992 17.1023C125.984 17.2874 126.02 17.4504 126.1 17.5913C126.185 17.7321 126.306 17.8569 126.463 17.9655C126.624 18.0702 126.817 18.1627 127.042 18.2432C127.268 18.3237 127.521 18.3942 127.803 18.4545L128.865 18.696C129.477 18.8288 130.016 19.0059 130.483 19.2273C130.954 19.4486 131.349 19.7122 131.666 20.0181C131.988 20.324 132.232 20.6761 132.397 21.0746C132.562 21.473 132.646 21.9197 132.651 22.4148C132.646 23.1955 132.449 23.8656 132.059 24.4251C131.669 24.9845 131.107 25.4131 130.375 25.7109C129.646 26.0087 128.767 26.1577 127.736 26.1577C126.702 26.1577 125.801 26.0027 125.032 25.6928C124.263 25.3829 123.666 24.912 123.239 24.2802C122.812 23.6483 122.593 22.8494 122.581 21.8835H125.442C125.467 22.2819 125.573 22.614 125.762 22.8796C125.952 23.1452 126.211 23.3465 126.541 23.4833C126.875 23.6201 127.262 23.6886 127.7 23.6886C128.103 23.6886 128.445 23.6342 128.727 23.5256C129.012 23.4169 129.232 23.266 129.385 23.0728C129.537 22.8796 129.616 22.6583 129.62 22.4087C129.616 22.1753 129.544 21.9761 129.403 21.8111C129.262 21.642 129.044 21.4971 128.751 21.3764C128.461 21.2516 128.091 21.1369 127.64 21.0323L126.348 20.7305C125.277 20.485 124.434 20.0885 123.818 19.5412C123.203 18.9898 122.897 18.2453 122.901 17.3075C122.897 16.5428 123.102 15.8727 123.517 15.2972C123.931 14.7217 124.505 14.273 125.237 13.951C125.97 13.629 126.805 13.468 127.742 13.468C128.7 13.468 129.531 13.631 130.236 13.957C130.944 14.279 131.493 14.7318 131.884 15.3153C132.274 15.8989 132.473 16.575 132.481 17.3437H129.62ZM136.774 26.1577C136.182 26.1577 135.657 26.0591 135.198 25.8618C134.743 25.6606 134.383 25.3588 134.117 24.9563C133.856 24.5498 133.725 24.0407 133.725 23.429C133.725 22.9138 133.816 22.4792 133.997 22.125C134.178 21.7708 134.427 21.4831 134.745 21.2617C135.063 21.0404 135.43 20.8733 135.844 20.7606C136.259 20.6439 136.701 20.5654 137.172 20.5252C137.699 20.4769 138.124 20.4266 138.446 20.3743C138.768 20.3179 139.001 20.2395 139.146 20.1388C139.295 20.0342 139.37 19.8873 139.37 19.6981V19.668C139.37 19.3581 139.263 19.1186 139.05 18.9496C138.836 18.7805 138.549 18.696 138.186 18.696C137.796 18.696 137.482 18.7805 137.245 18.9496C137.007 19.1186 136.856 19.352 136.792 19.6498L134.069 19.5533C134.15 18.9898 134.357 18.4867 134.691 18.044C135.029 17.5973 135.492 17.2471 136.079 16.9936C136.671 16.736 137.381 16.6072 138.211 16.6072C138.802 16.6072 139.347 16.6777 139.847 16.8185C140.346 16.9554 140.78 17.1566 141.151 17.4222C141.521 17.6838 141.807 18.0058 142.008 18.3881C142.213 18.7705 142.316 19.2071 142.316 19.6981V26.0007H139.539V24.7088H139.466C139.301 25.0227 139.09 25.2883 138.832 25.5057C138.579 25.723 138.279 25.886 137.933 25.9947C137.591 26.1033 137.204 26.1577 136.774 26.1577ZM137.685 24.2258C138.003 24.2258 138.289 24.1614 138.543 24.0327C138.8 23.9039 139.005 23.7268 139.158 23.5014C139.311 23.272 139.388 23.0064 139.388 22.7045V21.8231C139.303 21.8674 139.201 21.9077 139.08 21.9439C138.963 21.9801 138.834 22.0143 138.693 22.0465C138.553 22.0787 138.408 22.1069 138.259 22.131C138.11 22.1552 137.967 22.1773 137.83 22.1974C137.553 22.2417 137.315 22.3101 137.118 22.4027C136.925 22.4953 136.776 22.616 136.671 22.7649C136.57 22.9098 136.52 23.0828 136.52 23.2841C136.52 23.59 136.629 23.8234 136.846 23.9844C137.068 24.1453 137.347 24.2258 137.685 24.2258ZM152.216 19.5593L149.506 19.6317C149.477 19.4386 149.401 19.2675 149.276 19.1186C149.151 18.9657 148.988 18.8469 148.787 18.7624C148.59 18.6739 148.361 18.6296 148.099 18.6296C147.757 18.6296 147.465 18.698 147.224 18.8349C146.986 18.9717 146.87 19.1568 146.874 19.3903C146.87 19.5714 146.942 19.7283 147.091 19.8611C147.244 19.994 147.515 20.1006 147.906 20.1811L149.693 20.5192C150.618 20.6962 151.307 20.99 151.757 21.4006C152.212 21.8111 152.442 22.3544 152.446 23.0305C152.442 23.6664 152.252 24.2198 151.878 24.6907C151.508 25.1616 151.001 25.5278 150.357 25.7894C149.713 26.047 148.976 26.1758 148.147 26.1758C146.823 26.1758 145.779 25.9041 145.014 25.3608C144.253 24.8134 143.819 24.081 143.71 23.1633L146.626 23.0909C146.69 23.429 146.857 23.6865 147.127 23.8636C147.397 24.0407 147.741 24.1292 148.159 24.1292C148.538 24.1292 148.846 24.0588 149.083 23.918C149.32 23.7771 149.441 23.5899 149.445 23.3565C149.441 23.1472 149.349 22.9802 149.168 22.8555C148.986 22.7267 148.703 22.6261 148.316 22.5536L146.698 22.2457C145.769 22.0767 145.077 21.7648 144.622 21.31C144.167 20.8512 143.942 20.2676 143.946 19.5593C143.942 18.9395 144.107 18.4103 144.441 17.9716C144.775 17.5289 145.25 17.1908 145.865 16.9574C146.481 16.7239 147.208 16.6072 148.045 16.6072C149.3 16.6072 150.29 16.8708 151.015 17.3981C151.739 17.9213 152.14 18.6417 152.216 19.5593ZM161.995 19.5593L159.284 19.6317C159.256 19.4386 159.179 19.2675 159.055 19.1186C158.93 18.9657 158.767 18.8469 158.566 18.7624C158.368 18.6739 158.139 18.6296 157.877 18.6296C157.535 18.6296 157.243 18.698 157.002 18.8349C156.765 18.9717 156.648 19.1568 156.652 19.3903C156.648 19.5714 156.72 19.7283 156.869 19.8611C157.022 19.994 157.294 20.1006 157.684 20.1811L159.471 20.5192C160.397 20.6962 161.085 20.99 161.536 21.4006C161.991 21.8111 162.22 22.3544 162.224 23.0305C162.22 23.6664 162.031 24.2198 161.656 24.6907C161.286 25.1616 160.779 25.5278 160.135 25.7894C159.491 26.047 158.755 26.1758 157.926 26.1758C156.602 26.1758 155.557 25.9041 154.792 25.3608C154.032 24.8134 153.597 24.081 153.488 23.1633L156.404 23.0909C156.469 23.429 156.636 23.6865 156.905 23.8636C157.175 24.0407 157.519 24.1292 157.938 24.1292C158.316 24.1292 158.624 24.0588 158.861 23.918C159.099 23.7771 159.22 23.5899 159.224 23.3565C159.22 23.1472 159.127 22.9802 158.946 22.8555C158.765 22.7267 158.481 22.6261 158.095 22.5536L156.477 22.2457C155.547 22.0767 154.855 21.7648 154.4 21.31C153.945 20.8512 153.72 20.2676 153.724 19.5593C153.72 18.9395 153.885 18.4103 154.219 17.9716C154.553 17.5289 155.028 17.1908 155.644 16.9574C156.259 16.7239 156.986 16.6072 157.823 16.6072C159.079 16.6072 160.069 16.8708 160.793 17.3981C161.518 17.9213 161.918 18.6417 161.995 19.5593Z" fill="#CD6799"/>
</g>
<defs>
<filter id="filter0_d_1_56" x="2.39972" y="0.39972" width="39.202" height="39.202" filterUnits="userSpaceOnUse" color-interpolation-filters="sRGB">
<feFlood flood-opacity="0" result="BackgroundImageFix"/>
<feColorMatrix in="SourceAlpha" type="matrix" values="0 0 0 0 0 0 0 0 0 0 0 0 0 0 0 0 0 0 127 0" result="hardAlpha"/>
<feOffset/>
<feGaussianBlur stdDeviation="2.80014"/>
<feComposite in2="hardAlpha" operator="out"/>
<feColorMatrix type="matrix" values="0 0 0 0 0 0 0 0 0 0 0 0 0 0 0 0 0 0 0.25 0"/>
<feBlend mode="normal" in2="BackgroundImageFix" result="effect1_dropShadow_1_56"/>
<feBlend mode="normal" in="SourceGraphic" in2="effect1_dropShadow_1_56" result="shape"/>
</filter>
<filter id="filter1_d_1_56" x="36.2871" y="3.78642" width="132.429" height="32.4286" filterUnits="userSpaceOnUse" color-interpolation-filters="sRGB">
<feFlood flood-opacity="0" result="BackgroundImageFix"/>
<feColorMatrix in="SourceAlpha" type="matrix" values="0 0 0 0 0 0 0 0 0 0 0 0 0 0 0 0 0 0 127 0" result="hardAlpha"/>
<feOffset/>
<feGaussianBlur stdDeviation="2.85714"/>
<feComposite in2="hardAlpha" operator="out"/>
<feColorMatrix type="matrix" values="0 0 0 0 0 0 0 0 0 0 0 0 0 0 0 0 0 0 0.25 0"/>
<feBlend mode="normal" in2="BackgroundImageFix" result="effect1_dropShadow_1_56"/>
<feBlend mode="normal" in="SourceGraphic" in2="effect1_dropShadow_1_56" result="shape"/>
</filter>
<linearGradient id="paint0_linear_1_56" x1="85.5007" y1="0" x2="85.5007" y2="40.0014" gradientUnits="userSpaceOnUse">
<stop stop-color="#7F2A54"/>
<stop offset="1" stop-color="#511B35"/>
</linearGradient>
</defs>
</svg>
