<svg width="144" height="56" viewBox="0 0 144 56" fill="none" xmlns="http://www.w3.org/2000/svg">
<rect width="144" height="56" rx="8" fill="url(#paint0_linear_1_50)"/>
<rect x="1.05" y="1.05" width="141.9" height="53.9" rx="6.95" stroke="white" stroke-opacity="0.15" stroke-width="2.1"/>
<g filter="url(#filter0_d_1_50)">
<path d="M46.4232 30.2345C45.0286 30.2418 43.8164 30.5777 42.8015 31.0742C42.4291 30.3367 42.0567 29.6795 41.991 29.1976C41.9179 28.6354 41.8303 28.2922 41.9179 27.6204C42.0056 26.9486 42.3999 25.9921 42.3926 25.919C42.3853 25.846 42.3049 25.5028 41.5017 25.4955C40.6985 25.4882 40.0048 25.6489 39.9245 25.8606C39.8442 26.0724 39.6909 26.5543 39.5886 27.0508C39.4499 27.781 37.9822 30.3878 37.1425 31.7533C36.8723 31.2203 36.6386 30.7529 36.5875 30.3805C36.5145 29.8183 36.4269 29.4751 36.5145 28.8033C36.6021 28.1315 36.9964 27.175 36.9891 27.102C36.9818 27.0289 36.9015 26.6858 36.0983 26.6785C35.2951 26.6711 34.6014 26.8318 34.5211 27.0435C34.4408 27.2553 34.3531 27.7518 34.1852 28.2338C34.0172 28.7157 32.0676 33.0676 31.5565 34.1921C31.2936 34.769 31.0673 35.229 30.9066 35.543C30.9066 35.543 30.8993 35.5649 30.8774 35.6014C30.7387 35.8716 30.6584 36.0176 30.6584 36.0176C30.6584 36.0176 30.6584 36.0176 30.6584 36.0249C30.5488 36.2221 30.432 36.4046 30.3736 36.4046C30.3298 36.4046 30.2495 35.8789 30.3882 35.1633C30.6803 33.6518 31.374 31.3006 31.3666 31.2203C31.3666 31.1764 31.4981 30.7675 30.9139 30.5558C30.3444 30.344 30.1399 30.6945 30.0888 30.6945C30.0377 30.6945 30.0012 30.8186 30.0012 30.8186C30.0012 30.8186 30.6365 28.1753 28.7891 28.1753C27.6354 28.1753 26.0435 29.4386 25.2549 30.5777C24.7584 30.8479 23.6996 31.4247 22.5678 32.0454C22.137 32.2863 21.6916 32.5273 21.2754 32.7537C21.2462 32.7245 21.217 32.6879 21.1877 32.6587C18.9534 30.271 14.8205 28.5843 14.9957 25.3787C15.0614 24.2104 15.463 21.1436 22.9329 17.4196C29.0811 14.3893 33.9734 15.229 34.8205 17.091C36.0326 19.7489 32.1991 24.685 25.8464 25.4006C23.4221 25.6708 22.1516 24.7361 21.8303 24.3856C21.4944 24.0205 21.4433 23.9986 21.3192 24.0717C21.1147 24.1812 21.2462 24.5098 21.3192 24.6996C21.509 25.1962 22.2903 26.0724 23.612 26.5032C24.7803 26.8829 27.6208 27.0947 31.06 25.7657C34.9081 24.2761 37.9165 20.1359 37.0329 16.6675C36.1494 13.148 30.3079 11.987 24.7803 13.9512C21.4944 15.1195 17.9311 16.9596 15.3681 19.3546C12.3232 22.2024 11.8413 24.6777 12.0384 25.7146C12.7467 29.3948 17.8216 31.7898 19.8515 33.5642C19.7493 33.6226 19.6543 33.6737 19.574 33.7175C18.5591 34.2213 14.689 36.244 13.7252 38.3835C12.6299 40.8077 13.9004 42.5456 14.7401 42.7792C17.3469 43.5021 20.0267 42.2024 21.4652 40.0556C22.9037 37.9088 22.7285 35.1195 22.064 33.8416C22.0567 33.827 22.0494 33.8124 22.0348 33.7978C22.2976 33.6445 22.5678 33.4839 22.8307 33.3305C23.3491 33.0238 23.8603 32.7391 24.2984 32.5054C24.0501 33.1845 23.8676 33.995 23.7799 35.1633C23.6704 36.5361 24.2327 38.3177 24.9702 39.0187C25.2987 39.3254 25.6857 39.3327 25.934 39.3327C26.7956 39.3327 27.1826 38.6171 27.6135 37.7701C28.1392 36.7332 28.6138 35.5284 28.6138 35.5284C28.6138 35.5284 28.0224 38.7851 29.6288 38.7851C30.2129 38.7851 30.8044 38.0257 31.0673 37.6387C31.0673 37.646 31.0673 37.646 31.0673 37.646C31.0673 37.646 31.0819 37.624 31.1111 37.5729C31.1695 37.478 31.206 37.4196 31.206 37.4196C31.206 37.4196 31.206 37.4123 31.206 37.405C31.4397 36.9961 31.9654 36.0687 32.7467 34.528C33.7544 32.5419 34.7255 30.0592 34.7255 30.0592C34.7255 30.0592 34.8132 30.6653 35.1125 31.673C35.2878 32.2644 35.6529 32.9143 35.945 33.5423C35.7113 33.8709 35.5653 34.0534 35.5653 34.0534C35.5653 34.0534 35.5653 34.0534 35.5726 34.0607C35.3827 34.309 35.1783 34.5791 34.9519 34.842C34.156 35.7913 33.2067 36.8793 33.0753 37.1932C32.922 37.5656 32.9585 37.8358 33.2505 38.0549C33.4623 38.2155 33.842 38.2374 34.229 38.2155C34.9446 38.1644 35.4484 37.9891 35.6967 37.8796C36.0837 37.7409 36.5364 37.5291 36.9599 37.2151C37.7412 36.6383 38.2159 35.8132 38.1721 34.7252C38.1501 34.1264 37.953 33.5277 37.712 32.9654C37.785 32.8632 37.8508 32.761 37.9238 32.6587C39.1578 30.8552 40.1144 28.8763 40.1144 28.8763C40.1144 28.8763 40.202 29.4824 40.5014 30.4901C40.6474 31.0012 40.9468 31.5561 41.2097 32.0965C40.0486 33.0384 39.3331 34.1337 39.0775 34.8493C38.6175 36.1783 38.9753 36.777 39.6543 36.9158C39.961 36.9815 40.3991 36.8354 40.7204 36.6967C41.1293 36.5653 41.6113 36.3389 42.0713 36.003C42.8526 35.4262 43.6047 34.623 43.5609 33.535C43.539 33.0384 43.4075 32.5492 43.225 32.0746C44.2108 31.6657 45.4813 31.4393 47.1023 31.6292C50.578 32.0381 51.2644 34.2067 51.133 35.1195C51.0016 36.0322 50.2714 36.5288 50.0304 36.6821C49.7894 36.8354 49.7091 36.8866 49.731 36.9961C49.7602 37.1567 49.8771 37.1494 50.0815 37.1202C50.3663 37.0691 51.907 36.3827 51.9727 34.7033C52.0822 32.5565 50.0377 30.2126 46.4232 30.2345ZM19.6105 39.2743C18.4568 40.5302 16.8504 41.0048 16.1567 40.6032C15.4119 40.1724 15.704 38.3177 17.1206 36.9888C17.9822 36.1783 19.0921 35.4262 19.8296 34.9661C19.9975 34.8639 20.2458 34.7179 20.5452 34.5353C20.5963 34.5061 20.6255 34.4915 20.6255 34.4915C20.6839 34.455 20.7423 34.4185 20.8007 34.382C21.3192 36.2805 20.8227 37.9526 19.6105 39.2743ZM28.0078 33.5642C27.6062 34.5426 26.7664 37.0472 26.2553 36.9085C25.8172 36.7916 25.547 34.8931 26.1677 33.0165C26.4817 32.0746 27.1461 30.9501 27.5331 30.512C28.1611 29.811 28.8548 29.5773 29.0227 29.8621C29.2345 30.2345 28.256 32.9508 28.0078 33.5642ZM34.9373 36.8793C34.7693 36.9669 34.6087 37.0253 34.5357 36.9815C34.4846 36.9523 34.6087 36.8354 34.6087 36.8354C34.6087 36.8354 35.4776 35.9008 35.8208 35.4773C36.018 35.229 36.2516 34.9369 36.4999 34.6084C36.4999 34.6376 36.4999 34.6741 36.4999 34.7033C36.4999 35.8205 35.4192 36.5726 34.9373 36.8793ZM40.2823 35.6598C40.1582 35.5722 40.1801 35.2801 40.5963 34.3674C40.7569 34.0096 41.1366 33.4108 41.7865 32.834C41.8595 33.0676 41.9106 33.294 41.9033 33.5058C41.896 34.915 40.8884 35.4408 40.2823 35.6598Z" fill="#CD6799"/>
</g>
<g filter="url(#filter1_d_1_50)">
<path d="M61.2784 24.5V12.8636H65.5398C66.3655 12.8636 67.0492 13 67.5909 13.2727C68.1326 13.5417 68.5379 13.9072 68.8068 14.3693C69.0757 14.8276 69.2102 15.3447 69.2102 15.9204C69.2102 16.4053 69.1212 16.8144 68.9432 17.1477C68.7651 17.4773 68.5265 17.7424 68.2273 17.9432C67.9318 18.1401 67.606 18.2841 67.25 18.375V18.4886C67.6363 18.5076 68.0132 18.6326 68.3807 18.8636C68.7519 19.0909 69.0587 19.4148 69.3011 19.8352C69.5435 20.2557 69.6648 20.767 69.6648 21.3693C69.6648 21.964 69.5246 22.4981 69.2443 22.9716C68.9678 23.4413 68.5398 23.8144 67.9602 24.0909C67.3807 24.3636 66.6401 24.5 65.7386 24.5H61.2784ZM63.0341 22.9943H65.5682C66.4091 22.9943 67.0113 22.8314 67.375 22.5057C67.7386 22.1799 67.9204 21.7727 67.9204 21.2841C67.9204 20.9167 67.8276 20.5795 67.642 20.2727C67.4564 19.9659 67.1913 19.7216 66.8466 19.5398C66.5057 19.3579 66.1004 19.267 65.6307 19.267H63.0341V22.9943ZM63.0341 17.8977H65.3863C65.7803 17.8977 66.1345 17.822 66.4488 17.6704C66.767 17.5189 67.0189 17.3068 67.2045 17.0341C67.3939 16.7576 67.4886 16.4318 67.4886 16.0568C67.4886 15.5758 67.3201 15.1723 66.9829 14.8466C66.6458 14.5208 66.1288 14.3579 65.4318 14.3579H63.0341V17.8977ZM77.1392 20.8807V15.7727H78.8437V24.5H77.1733V22.9886H77.0824C76.8816 23.4545 76.5596 23.8428 76.1165 24.1534C75.6771 24.4602 75.1297 24.6136 74.4744 24.6136C73.9138 24.6136 73.4176 24.4905 72.9858 24.2443C72.5577 23.9943 72.2206 23.625 71.9744 23.1364C71.732 22.6477 71.6108 22.0436 71.6108 21.3239V15.7727H73.3096V21.1193C73.3096 21.714 73.4744 22.1875 73.804 22.5398C74.1335 22.892 74.5615 23.0682 75.088 23.0682C75.4062 23.0682 75.7225 22.9886 76.0369 22.8295C76.3551 22.6704 76.6184 22.4299 76.8267 22.1079C77.0388 21.786 77.143 21.3769 77.1392 20.8807ZM81.1264 24.5V15.7727H82.8253V24.5H81.1264ZM81.9844 14.4261C81.6889 14.4261 81.4351 14.3276 81.223 14.1307C81.0147 13.9299 80.9105 13.6913 80.9105 13.4148C80.9105 13.1345 81.0147 12.8958 81.223 12.6989C81.4351 12.4981 81.6889 12.3977 81.9844 12.3977C82.2798 12.3977 82.5317 12.4981 82.74 12.6989C82.9522 12.8958 83.0582 13.1345 83.0582 13.4148C83.0582 13.6913 82.9522 13.9299 82.74 14.1307C82.5317 14.3276 82.2798 14.4261 81.9844 14.4261ZM86.8096 12.8636V24.5H85.1108V12.8636H86.8096ZM93.169 15.7727V17.1364H88.402V15.7727H93.169ZM89.6804 13.6818H91.3792V21.9375C91.3792 22.267 91.4285 22.5151 91.527 22.6818C91.6254 22.8447 91.7523 22.9564 91.9076 23.017C92.0667 23.0739 92.2391 23.1023 92.4247 23.1023C92.5611 23.1023 92.6804 23.0928 92.7826 23.0739C92.8849 23.0549 92.9645 23.0398 93.0213 23.0284L93.3281 24.4318C93.2296 24.4697 93.0895 24.5076 92.9076 24.5454C92.7258 24.5871 92.4986 24.6098 92.2258 24.6136C91.7789 24.6212 91.3622 24.5417 90.9758 24.375C90.5895 24.2083 90.277 23.9508 90.0383 23.6023C89.7997 23.2538 89.6804 22.8163 89.6804 22.2898V13.6818ZM101.175 24.5L98.6065 15.7727H100.362L102.072 22.1818H102.158L103.874 15.7727H105.629L107.334 22.1534H107.419L109.118 15.7727H110.874L108.311 24.5H106.578L104.805 18.1989H104.675L102.902 24.5H101.175ZM112.486 24.5V15.7727H114.185V24.5H112.486ZM113.344 14.4261C113.048 14.4261 112.794 14.3276 112.582 14.1307C112.374 13.9299 112.27 13.6913 112.27 13.4148C112.27 13.1345 112.374 12.8958 112.582 12.6989C112.794 12.4981 113.048 12.3977 113.344 12.3977C113.639 12.3977 113.891 12.4981 114.099 12.6989C114.312 12.8958 114.418 13.1345 114.418 13.4148C114.418 13.6913 114.312 13.9299 114.099 14.1307C113.891 14.3276 113.639 14.4261 113.344 14.4261ZM120.544 15.7727V17.1364H115.777V15.7727H120.544ZM117.055 13.6818H118.754V21.9375C118.754 22.267 118.803 22.5151 118.902 22.6818C119 22.8447 119.127 22.9564 119.283 23.017C119.442 23.0739 119.614 23.1023 119.8 23.1023C119.936 23.1023 120.055 23.0928 120.158 23.0739C120.26 23.0549 120.339 23.0398 120.396 23.0284L120.703 24.4318C120.605 24.4697 120.464 24.5076 120.283 24.5454C120.101 24.5871 119.874 24.6098 119.601 24.6136C119.154 24.6212 118.737 24.5417 118.351 24.375C117.964 24.2083 117.652 23.9508 117.413 23.6023C117.175 23.2538 117.055 22.8163 117.055 22.2898V13.6818ZM124.31 19.3182V24.5H122.611V12.8636H124.287V17.1932H124.395C124.599 16.7235 124.912 16.3504 125.332 16.0739C125.753 15.7973 126.302 15.6591 126.98 15.6591C127.579 15.6591 128.101 15.7822 128.548 16.0284C128.999 16.2746 129.348 16.642 129.594 17.1307C129.844 17.6155 129.969 18.2216 129.969 18.9489V24.5H128.27V19.1534C128.27 18.5133 128.105 18.017 127.776 17.6648C127.446 17.3087 126.988 17.1307 126.401 17.1307C125.999 17.1307 125.639 17.2159 125.321 17.3864C125.007 17.5568 124.758 17.8068 124.577 18.1364C124.399 18.4621 124.31 18.8561 124.31 19.3182Z" fill="#E8E8E8"/>
<path d="M67.6186 34.843C67.5783 34.4003 67.3992 34.0562 67.0813 33.8107C66.7674 33.5612 66.3186 33.4364 65.7351 33.4364C65.3487 33.4364 65.0267 33.4867 64.7692 33.5873C64.5116 33.688 64.3184 33.8268 64.1896 34.0039C64.0608 34.177 63.9944 34.3762 63.9904 34.6016C63.9823 34.7867 64.0186 34.9497 64.0991 35.0905C64.1836 35.2314 64.3043 35.3562 64.4613 35.4648C64.6223 35.5695 64.8154 35.662 65.0408 35.7425C65.2662 35.823 65.5198 35.8935 65.8015 35.9538L66.864 36.1953C67.4757 36.3281 68.015 36.5052 68.4819 36.7266C68.9528 36.9479 69.3472 37.2115 69.6651 37.5174C69.9871 37.8233 70.2306 38.1754 70.3956 38.5739C70.5606 38.9723 70.6451 39.419 70.6491 39.9141C70.6451 40.6948 70.4479 41.3649 70.0575 41.9243C69.6671 42.4838 69.1057 42.9124 68.3732 43.2102C67.6448 43.508 66.7654 43.6569 65.7351 43.6569C64.7007 43.6569 63.7992 43.502 63.0305 43.1921C62.2618 42.8822 61.6642 42.4113 61.2376 41.7795C60.8109 41.1476 60.5916 40.3487 60.5795 39.3828H63.441C63.4652 39.7812 63.5718 40.1133 63.761 40.3789C63.9501 40.6445 64.2097 40.8458 64.5398 40.9826C64.8738 41.1194 65.2602 41.1878 65.6988 41.1878C66.1013 41.1878 66.4434 41.1335 66.7251 41.0248C67.0109 40.9162 67.2302 40.7653 67.3832 40.5721C67.5361 40.3789 67.6146 40.1575 67.6186 39.908C67.6146 39.6746 67.5421 39.4754 67.4013 39.3104C67.2604 39.1413 67.0431 38.9964 66.7493 38.8757C66.4595 38.7509 66.0892 38.6362 65.6385 38.5316L64.3466 38.2297C63.276 37.9842 62.4329 37.5878 61.8171 37.0405C61.2013 36.4891 60.8955 35.7445 60.8995 34.8068C60.8955 34.0421 61.1007 33.372 61.5153 32.7965C61.9298 32.221 62.5033 31.7722 63.2358 31.4503C63.9683 31.1283 64.8034 30.9673 65.7411 30.9673C66.699 30.9673 67.53 31.1303 68.2344 31.4563C68.9427 31.7783 69.4921 32.2311 69.8824 32.8146C70.2728 33.3982 70.472 34.0743 70.4801 34.843H67.6186ZM74.7724 43.6569C74.1807 43.6569 73.6555 43.5583 73.1967 43.3611C72.7419 43.1599 72.3817 42.8581 72.1161 42.4556C71.8545 42.0491 71.7237 41.54 71.7237 40.9283C71.7237 40.4131 71.8143 39.9784 71.9954 39.6243C72.1765 39.2701 72.426 38.9824 72.7439 38.761C73.0619 38.5396 73.4281 38.3726 73.8427 38.2599C74.2572 38.1432 74.6999 38.0647 75.1708 38.0245C75.698 37.9762 76.1226 37.9259 76.4446 37.8736C76.7666 37.8172 77 37.7387 77.1449 37.6381C77.2938 37.5335 77.3682 37.3866 77.3682 37.1974V37.1672C77.3682 36.8574 77.2616 36.6179 77.0483 36.4489C76.835 36.2798 76.5472 36.1953 76.185 36.1953C75.7946 36.1953 75.4807 36.2798 75.2432 36.4489C75.0058 36.6179 74.8549 36.8513 74.7905 37.1491L72.0678 37.0525C72.1483 36.4891 72.3556 35.986 72.6896 35.5433C73.0277 35.0966 73.4905 34.7464 74.0781 34.4929C74.6697 34.2353 75.3801 34.1065 76.2091 34.1065C76.8008 34.1065 77.3461 34.177 77.8451 34.3178C78.3442 34.4547 78.7789 34.6559 79.1491 34.9215C79.5194 35.1831 79.8051 35.5051 80.0064 35.8874C80.2116 36.2698 80.3143 36.7064 80.3143 37.1974V43.5H77.5373V42.2081H77.4648C77.2998 42.522 77.0885 42.7876 76.8309 43.005C76.5774 43.2223 76.2776 43.3853 75.9314 43.494C75.5894 43.6026 75.203 43.6569 74.7724 43.6569ZM75.6839 41.7251C76.0019 41.7251 76.2876 41.6607 76.5412 41.5319C76.7987 41.4032 77.004 41.2261 77.1569 41.0007C77.3099 40.7713 77.3863 40.5057 77.3863 40.2038V39.3224C77.3018 39.3667 77.1992 39.4069 77.0785 39.4432C76.9617 39.4794 76.833 39.5136 76.6921 39.5458C76.5512 39.578 76.4063 39.6062 76.2574 39.6303C76.1085 39.6545 75.9657 39.6766 75.8288 39.6967C75.5511 39.741 75.3137 39.8094 75.1165 39.902C74.9233 39.9945 74.7744 40.1153 74.6697 40.2642C74.5691 40.4091 74.5188 40.5821 74.5188 40.7834C74.5188 41.0892 74.6275 41.3227 74.8448 41.4837C75.0661 41.6446 75.3459 41.7251 75.6839 41.7251ZM90.2148 37.0586L87.5042 37.131C87.4761 36.9378 87.3996 36.7668 87.2748 36.6179C87.1501 36.465 86.9871 36.3462 86.7858 36.2617C86.5886 36.1732 86.3592 36.1289 86.0976 36.1289C85.7555 36.1289 85.4638 36.1973 85.2223 36.3342C84.9848 36.471 84.8681 36.6561 84.8721 36.8895C84.8681 37.0707 84.9406 37.2276 85.0895 37.3604C85.2424 37.4932 85.5141 37.5999 85.9045 37.6804L87.6914 38.0185C88.617 38.1955 89.3053 38.4893 89.756 38.8998C90.2108 39.3104 90.4402 39.8537 90.4442 40.5298C90.4402 41.1657 90.251 41.7191 89.8768 42.19C89.5065 42.6609 88.9994 43.0271 88.3554 43.2887C87.7115 43.5463 86.975 43.6751 86.1459 43.6751C84.8218 43.6751 83.7774 43.4034 83.0128 42.8601C82.2521 42.3127 81.8174 41.5802 81.7088 40.6626L84.6246 40.5902C84.689 40.9283 84.856 41.1858 85.1257 41.3629C85.3953 41.54 85.7394 41.6285 86.158 41.6285C86.5363 41.6285 86.8442 41.5581 87.0817 41.4172C87.3191 41.2764 87.4398 41.0892 87.4439 40.8558C87.4398 40.6465 87.3473 40.4795 87.1662 40.3547C86.9851 40.226 86.7013 40.1253 86.315 40.0529L84.6971 39.745C83.7674 39.576 83.0751 39.2641 82.6204 38.8093C82.1656 38.3505 81.9402 37.7669 81.9442 37.0586C81.9402 36.4388 82.1052 35.9096 82.4393 35.4709C82.7733 35.0282 83.2482 34.6901 83.864 34.4567C84.4797 34.2232 85.2062 34.1065 86.0433 34.1065C87.299 34.1065 88.289 34.3701 89.0135 34.8974C89.7379 35.4206 90.1384 36.141 90.2148 37.0586ZM99.9931 37.0586L97.2826 37.131C97.2544 36.9378 97.1779 36.7668 97.0532 36.6179C96.9284 36.465 96.7654 36.3462 96.5642 36.2617C96.367 36.1732 96.1376 36.1289 95.876 36.1289C95.5339 36.1289 95.2421 36.1973 95.0006 36.3342C94.7631 36.471 94.6464 36.6561 94.6505 36.8895C94.6464 37.0707 94.7189 37.2276 94.8678 37.3604C95.0207 37.4932 95.2924 37.5999 95.6828 37.6804L97.4697 38.0185C98.3954 38.1955 99.0836 38.4893 99.5343 38.8998C99.9891 39.3104 100.219 39.8537 100.223 40.5298C100.219 41.1657 100.029 41.7191 99.6551 42.19C99.2848 42.6609 98.7777 43.0271 98.1338 43.2887C97.4898 43.5463 96.7533 43.6751 95.9242 43.6751C94.6001 43.6751 93.5558 43.4034 92.7911 42.8601C92.0304 42.3127 91.5958 41.5802 91.4871 40.6626L94.4029 40.5902C94.4673 40.9283 94.6344 41.1858 94.904 41.3629C95.1737 41.54 95.5178 41.6285 95.9363 41.6285C96.3146 41.6285 96.6225 41.5581 96.86 41.4172C97.0974 41.2764 97.2182 41.0892 97.2222 40.8558C97.2182 40.6465 97.1256 40.4795 96.9445 40.3547C96.7634 40.226 96.4796 40.1253 96.0933 40.0529L94.4754 39.745C93.5457 39.576 92.8535 39.2641 92.3987 38.8093C91.9439 38.3505 91.7185 37.7669 91.7225 37.0586C91.7185 36.4388 91.8835 35.9096 92.2176 35.4709C92.5516 35.0282 93.0265 34.6901 93.6423 34.4567C94.2581 34.2232 94.9845 34.1065 95.8216 34.1065C97.0773 34.1065 98.0674 34.3701 98.7918 34.8974C99.5162 35.4206 99.9167 36.141 99.9931 37.0586Z" fill="#CD6799"/>
</g>
<defs>
<filter id="filter0_d_1_50" x="6.28571" y="2.28571" width="51.4286" height="51.4286" filterUnits="userSpaceOnUse" color-interpolation-filters="sRGB">
<feFlood flood-opacity="0" result="BackgroundImageFix"/>
<feColorMatrix in="SourceAlpha" type="matrix" values="0 0 0 0 0 0 0 0 0 0 0 0 0 0 0 0 0 0 127 0" result="hardAlpha"/>
<feOffset/>
<feGaussianBlur stdDeviation="2.85714"/>
<feComposite in2="hardAlpha" operator="out"/>
<feColorMatrix type="matrix" values="0 0 0 0 0 0 0 0 0 0 0 0 0 0 0 0 0 0 0.25 0"/>
<feBlend mode="normal" in2="BackgroundImageFix" result="effect1_dropShadow_1_50"/>
<feBlend mode="normal" in="SourceGraphic" in2="effect1_dropShadow_1_50" result="shape"/>
</filter>
<filter id="filter1_d_1_50" x="54.4" y="3.9" width="83.2" height="48.2" filterUnits="userSpaceOnUse" color-interpolation-filters="sRGB">
<feFlood flood-opacity="0" result="BackgroundImageFix"/>
<feColorMatrix in="SourceAlpha" type="matrix" values="0 0 0 0 0 0 0 0 0 0 0 0 0 0 0 0 0 0 127 0" result="hardAlpha"/>
<feOffset/>
<feGaussianBlur stdDeviation="2.8"/>
<feComposite in2="hardAlpha" operator="out"/>
<feColorMatrix type="matrix" values="0 0 0 0 0 0 0 0 0 0 0 0 0 0 0 0 0 0 0.25 0"/>
<feBlend mode="normal" in2="BackgroundImageFix" result="effect1_dropShadow_1_50"/>
<feBlend mode="normal" in="SourceGraphic" in2="effect1_dropShadow_1_50" result="shape"/>
</filter>
<linearGradient id="paint0_linear_1_50" x1="72" y1="0" x2="72" y2="56" gradientUnits="userSpaceOnUse">
<stop stop-color="#7F2A54"/>
<stop offset="1" stop-color="#3A1326"/>
</linearGradient>
</defs>
</svg>
