<svg width="56" height="56" viewBox="0 0 56 56" fill="none" xmlns="http://www.w3.org/2000/svg">
<rect width="56" height="56" rx="8.4" fill="url(#paint0_linear_1_62)"/>
<rect x="1.05" y="1.05" width="53.9" height="53.9" rx="7.35" stroke="white" stroke-opacity="0.15" stroke-width="2.1"/>
<g filter="url(#filter0_d_1_62)">
<path d="M42.4232 30.2345C41.0286 30.2418 39.8164 30.5777 38.8015 31.0742C38.4291 30.3367 38.0567 29.6795 37.991 29.1976C37.9179 28.6354 37.8303 28.2922 37.9179 27.6204C38.0056 26.9486 38.3999 25.9921 38.3926 25.919C38.3853 25.846 38.3049 25.5028 37.5017 25.4955C36.6985 25.4882 36.0048 25.6489 35.9245 25.8606C35.8442 26.0724 35.6909 26.5543 35.5886 27.0508C35.4499 27.781 33.9822 30.3878 33.1425 31.7533C32.8723 31.2203 32.6386 30.7529 32.5875 30.3805C32.5145 29.8183 32.4269 29.4751 32.5145 28.8033C32.6021 28.1315 32.9964 27.175 32.9891 27.102C32.9818 27.0289 32.9015 26.6858 32.0983 26.6785C31.2951 26.6711 30.6014 26.8318 30.5211 27.0435C30.4408 27.2553 30.3531 27.7518 30.1852 28.2338C30.0172 28.7157 28.0676 33.0676 27.5565 34.1921C27.2936 34.769 27.0673 35.229 26.9066 35.543C26.9066 35.543 26.8993 35.5649 26.8774 35.6014C26.7387 35.8716 26.6584 36.0176 26.6584 36.0176C26.6584 36.0176 26.6584 36.0176 26.6584 36.0249C26.5488 36.2221 26.432 36.4046 26.3736 36.4046C26.3298 36.4046 26.2495 35.8789 26.3882 35.1633C26.6803 33.6518 27.374 31.3006 27.3666 31.2203C27.3666 31.1764 27.4981 30.7675 26.9139 30.5558C26.3444 30.344 26.1399 30.6945 26.0888 30.6945C26.0377 30.6945 26.0012 30.8186 26.0012 30.8186C26.0012 30.8186 26.6365 28.1753 24.7891 28.1753C23.6354 28.1753 22.0435 29.4386 21.2549 30.5777C20.7584 30.8479 19.6996 31.4247 18.5678 32.0454C18.137 32.2863 17.6916 32.5273 17.2754 32.7537C17.2462 32.7245 17.217 32.6879 17.1877 32.6587C14.9534 30.271 10.8205 28.5843 10.9957 25.3787C11.0614 24.2104 11.463 21.1436 18.9329 17.4196C25.0811 14.3893 29.9734 15.229 30.8205 17.091C32.0326 19.7489 28.1991 24.685 21.8464 25.4006C19.4221 25.6708 18.1516 24.7361 17.8303 24.3856C17.4944 24.0205 17.4433 23.9986 17.3192 24.0717C17.1147 24.1812 17.2462 24.5098 17.3192 24.6996C17.509 25.1962 18.2903 26.0724 19.612 26.5032C20.7803 26.8829 23.6208 27.0947 27.06 25.7657C30.9081 24.2761 33.9165 20.1359 33.0329 16.6675C32.1494 13.148 26.3079 11.987 20.7803 13.9512C17.4944 15.1195 13.9311 16.9596 11.3681 19.3546C8.3232 22.2024 7.84127 24.6777 8.03842 25.7146C8.74671 29.3948 13.8216 31.7898 15.8515 33.5642C15.7493 33.6226 15.6543 33.6737 15.574 33.7175C14.5591 34.2213 10.689 36.244 9.72517 38.3835C8.62988 40.8077 9.90042 42.5456 10.7401 42.7792C13.3469 43.5021 16.0267 42.2024 17.4652 40.0556C18.9037 37.9088 18.7285 35.1195 18.064 33.8416C18.0567 33.827 18.0494 33.8124 18.0348 33.7978C18.2976 33.6445 18.5678 33.4839 18.8307 33.3305C19.3491 33.0238 19.8603 32.7391 20.2984 32.5054C20.0501 33.1845 19.8676 33.995 19.7799 35.1633C19.6704 36.5361 20.2327 38.3177 20.9702 39.0187C21.2987 39.3254 21.6857 39.3327 21.934 39.3327C22.7956 39.3327 23.1826 38.6171 23.6135 37.7701C24.1392 36.7332 24.6138 35.5284 24.6138 35.5284C24.6138 35.5284 24.0224 38.7851 25.6288 38.7851C26.2129 38.7851 26.8044 38.0257 27.0673 37.6387C27.0673 37.646 27.0673 37.646 27.0673 37.646C27.0673 37.646 27.0819 37.624 27.1111 37.5729C27.1695 37.478 27.206 37.4196 27.206 37.4196C27.206 37.4196 27.206 37.4123 27.206 37.405C27.4397 36.9961 27.9654 36.0687 28.7467 34.528C29.7544 32.5419 30.7255 30.0592 30.7255 30.0592C30.7255 30.0592 30.8132 30.6653 31.1125 31.673C31.2878 32.2644 31.6529 32.9143 31.945 33.5423C31.7113 33.8709 31.5653 34.0534 31.5653 34.0534C31.5653 34.0534 31.5653 34.0534 31.5726 34.0607C31.3827 34.309 31.1783 34.5791 30.9519 34.842C30.156 35.7913 29.2067 36.8793 29.0753 37.1932C28.922 37.5656 28.9585 37.8358 29.2505 38.0549C29.4623 38.2155 29.842 38.2374 30.229 38.2155C30.9446 38.1644 31.4484 37.9891 31.6967 37.8796C32.0837 37.7409 32.5364 37.5291 32.9599 37.2151C33.7412 36.6383 34.2159 35.8132 34.1721 34.7252C34.1501 34.1264 33.953 33.5277 33.712 32.9654C33.785 32.8632 33.8508 32.761 33.9238 32.6587C35.1578 30.8552 36.1144 28.8763 36.1144 28.8763C36.1144 28.8763 36.202 29.4824 36.5014 30.4901C36.6474 31.0012 36.9468 31.5561 37.2097 32.0965C36.0486 33.0384 35.3331 34.1337 35.0775 34.8493C34.6175 36.1783 34.9753 36.777 35.6543 36.9158C35.961 36.9815 36.3991 36.8354 36.7204 36.6967C37.1293 36.5653 37.6113 36.3389 38.0713 36.003C38.8526 35.4262 39.6047 34.623 39.5609 33.535C39.539 33.0384 39.4075 32.5492 39.225 32.0746C40.2108 31.6657 41.4813 31.4393 43.1023 31.6292C46.578 32.0381 47.2644 34.2067 47.133 35.1195C47.0016 36.0322 46.2714 36.5288 46.0304 36.6821C45.7894 36.8354 45.7091 36.8866 45.731 36.9961C45.7602 37.1567 45.8771 37.1494 46.0815 37.1202C46.3663 37.0691 47.907 36.3827 47.9727 34.7033C48.0822 32.5565 46.0377 30.2126 42.4232 30.2345ZM15.6105 39.2743C14.4568 40.5302 12.8504 41.0048 12.1567 40.6032C11.4119 40.1724 11.704 38.3177 13.1206 36.9888C13.9822 36.1783 15.0921 35.4262 15.8296 34.9661C15.9975 34.8639 16.2458 34.7179 16.5452 34.5353C16.5963 34.5061 16.6255 34.4915 16.6255 34.4915C16.6839 34.455 16.7423 34.4185 16.8007 34.382C17.3192 36.2805 16.8227 37.9526 15.6105 39.2743ZM24.0078 33.5642C23.6062 34.5426 22.7664 37.0472 22.2553 36.9085C21.8172 36.7916 21.547 34.8931 22.1677 33.0165C22.4817 32.0746 23.1461 30.9501 23.5331 30.512C24.1611 29.811 24.8548 29.5773 25.0227 29.8621C25.2345 30.2345 24.256 32.9508 24.0078 33.5642ZM30.9373 36.8793C30.7693 36.9669 30.6087 37.0253 30.5357 36.9815C30.4846 36.9523 30.6087 36.8354 30.6087 36.8354C30.6087 36.8354 31.4776 35.9008 31.8208 35.4773C32.018 35.229 32.2516 34.9369 32.4999 34.6084C32.4999 34.6376 32.4999 34.6741 32.4999 34.7033C32.4999 35.8205 31.4192 36.5726 30.9373 36.8793ZM36.2823 35.6598C36.1582 35.5722 36.1801 35.2801 36.5963 34.3674C36.7569 34.0096 37.1366 33.4108 37.7865 32.834C37.8595 33.0676 37.9106 33.294 37.9033 33.5058C37.896 34.915 36.8884 35.4408 36.2823 35.6598Z" fill="#CD6799"/>
</g>
<defs>
<filter id="filter0_d_1_62" x="2.28571" y="2.28571" width="51.4286" height="51.4286" filterUnits="userSpaceOnUse" color-interpolation-filters="sRGB">
<feFlood flood-opacity="0" result="BackgroundImageFix"/>
<feColorMatrix in="SourceAlpha" type="matrix" values="0 0 0 0 0 0 0 0 0 0 0 0 0 0 0 0 0 0 127 0" result="hardAlpha"/>
<feOffset/>
<feGaussianBlur stdDeviation="2.85714"/>
<feComposite in2="hardAlpha" operator="out"/>
<feColorMatrix type="matrix" values="0 0 0 0 0 0 0 0 0 0 0 0 0 0 0 0 0 0 0.25 0"/>
<feBlend mode="normal" in2="BackgroundImageFix" result="effect1_dropShadow_1_62"/>
<feBlend mode="normal" in="SourceGraphic" in2="effect1_dropShadow_1_62" result="shape"/>
</filter>
<linearGradient id="paint0_linear_1_62" x1="28" y1="0" x2="28" y2="56" gradientUnits="userSpaceOnUse">
<stop stop-color="#7F2A54"/>
<stop offset="1" stop-color="#511B35"/>
</linearGradient>
</defs>
</svg>
