<svg width="361" height="40" viewBox="0 0 361 40" fill="none" xmlns="http://www.w3.org/2000/svg">
<rect width="361.001" height="40.0014" rx="8" fill="url(#paint0_linear_1_56)"/>
<rect x="1.07143" y="1.07143" width="358.858" height="37.8585" rx="6.92857" stroke="white" stroke-opacity="0.15" stroke-width="2.14286"/>
<g filter="url(#filter0_d_1_56)">
<path d="M16.4776 6C15.9134 6 15.454 6.11877 15.0982 6.35023C14.7431 6.58392 14.5625 6.89005 14.5625 7.26V32.7038C14.5625 33.0265 14.747 33.3195 15.1169 33.5915C15.4844 33.864 15.9372 34 16.4777 34C16.9942 34 17.4467 33.864 17.8401 33.5915C18.2312 33.322 18.4302 33.0265 18.4302 32.7037V7.26175C18.4302 6.88958 18.2409 6.5887 17.8594 6.35023C17.4779 6.11877 17.018 6 16.4776 6ZM27.5882 16.1057C27.024 16.1057 26.5712 16.2201 26.2252 16.4565L21.0464 19.7024C20.8144 19.9195 20.7149 20.2492 20.7579 20.6999C20.7978 21.1462 21.0038 21.5714 21.369 21.9724C21.7359 22.376 22.1462 22.6287 22.6154 22.7362C23.0778 22.8411 23.4289 22.784 23.661 22.5693L25.7086 21.2917V32.7037C25.7086 33.0265 25.8862 33.3195 26.2461 33.5915C26.5969 33.864 27.0479 34 27.5882 34C28.1284 34 28.5951 33.864 28.9862 33.5915C29.3795 33.3195 29.5763 33.0265 29.5763 32.7037V17.3611C29.5763 16.9886 29.3838 16.6879 29.0049 16.4565C28.6255 16.2201 28.1546 16.1057 27.5882 16.1057Z" fill="white"/>
</g>
<g filter="url(#filter1_d_1_56)">
<path d="M47.3622 26.5007H43.3597V14.1371H47.489C48.7004 14.1371 49.7407 14.3846 50.6101 14.8796C51.4794 15.3706 52.1455 16.0769 52.6083 16.9986C53.0751 17.9162 53.3086 19.0169 53.3086 20.3008C53.3086 21.5886 53.0731 22.6954 52.6022 23.6211C52.1354 24.5467 51.4593 25.2591 50.5738 25.7582C49.6884 26.2532 48.6179 26.5007 47.3622 26.5007ZM45.2251 24.8707H47.2596C48.2013 24.8707 48.9841 24.6936 49.6079 24.3395C50.2317 23.9813 50.6986 23.4641 51.0085 22.788C51.3184 22.1078 51.4733 21.2788 51.4733 20.3008C51.4733 19.3308 51.3184 18.5078 51.0085 17.8317C50.7026 17.1555 50.2458 16.6424 49.6381 16.2922C49.0304 15.9421 48.2758 15.767 47.3743 15.767H45.2251V24.8707ZM55.4834 26.5007V17.228H57.2884V26.5007H55.4834ZM56.3949 15.7972C56.081 15.7972 55.8114 15.6926 55.586 15.4833C55.3646 15.27 55.254 15.0164 55.254 14.7226C55.254 14.4248 55.3646 14.1713 55.586 13.962C55.8114 13.7487 56.081 13.642 56.3949 13.642C56.7089 13.642 56.9765 13.7487 57.1979 13.962C57.4232 14.1713 57.5359 14.4248 57.5359 14.7226C57.5359 15.0164 57.4232 15.27 57.1979 15.4833C56.9765 15.6926 56.7089 15.7972 56.3949 15.7972ZM66.6653 19.4918L65.0293 19.7816C64.9608 19.5723 64.8522 19.3731 64.7033 19.1839C64.5584 18.9948 64.3612 18.8398 64.1117 18.7191C63.8621 18.5984 63.5502 18.538 63.1759 18.538C62.6648 18.538 62.2382 18.6527 61.8961 18.8821C61.554 19.1075 61.383 19.3993 61.383 19.7574C61.383 20.0673 61.4977 20.3169 61.7271 20.506C61.9565 20.6952 62.3267 20.8501 62.8379 20.9709L64.3109 21.3089C65.1641 21.5061 65.8 21.81 66.2185 22.2205C66.6371 22.631 66.8464 23.1643 66.8464 23.8203C66.8464 24.3757 66.6854 24.8707 66.3634 25.3054C66.0455 25.736 65.6008 26.0741 65.0293 26.3196C64.4618 26.5651 63.8038 26.6878 63.0552 26.6878C62.0168 26.6878 61.1697 26.4665 60.5136 26.0238C59.8576 25.577 59.4552 24.9432 59.3063 24.1221L61.0509 23.8565C61.1596 24.3113 61.383 24.6554 61.721 24.8888C62.0591 25.1182 62.4998 25.2329 63.0431 25.2329C63.6347 25.2329 64.1076 25.1102 64.4618 24.8647C64.816 24.6152 64.993 24.3113 64.993 23.9531C64.993 23.6633 64.8844 23.4199 64.6671 23.2226C64.4537 23.0254 64.1257 22.8765 63.683 22.7759L62.1134 22.4318C61.2481 22.2346 60.6082 21.9207 60.1937 21.49C59.7832 21.0594 59.5779 20.5141 59.5779 19.854C59.5779 19.3067 59.7309 18.8278 60.0367 18.4172C60.3426 18.0067 60.7652 17.6868 61.3045 17.4574C61.8438 17.2239 62.4616 17.1072 63.1578 17.1072C64.1599 17.1072 64.9488 17.3246 65.5243 17.7592C66.0998 18.1899 66.4801 18.7674 66.6653 19.4918ZM72.7369 26.6878C71.8394 26.6878 71.0667 26.4846 70.4187 26.0781C69.7748 25.6676 69.2798 25.1021 68.9337 24.3817C68.5875 23.6613 68.4145 22.8363 68.4145 21.9066C68.4145 20.9648 68.5916 20.1337 68.9457 19.4133C69.2999 18.6889 69.7989 18.1234 70.4429 17.717C71.0868 17.3105 71.8455 17.1072 72.7188 17.1072C73.4231 17.1072 74.051 17.238 74.6023 17.4996C75.1537 17.7572 75.5984 18.1194 75.9365 18.5863C76.2786 19.0531 76.4818 19.5985 76.5462 20.2223H74.7895C74.6929 19.7876 74.4715 19.4133 74.1254 19.0994C73.7833 18.7855 73.3245 18.6285 72.749 18.6285C72.2459 18.6285 71.8052 18.7614 71.4269 19.027C71.0526 19.2886 70.7608 19.6629 70.5515 20.1498C70.3423 20.6328 70.2376 21.2043 70.2376 21.8643C70.2376 22.5405 70.3403 23.124 70.5455 23.615C70.7508 24.106 71.0405 24.4864 71.4148 24.756C71.7931 25.0257 72.2379 25.1605 72.749 25.1605C73.0911 25.1605 73.401 25.0981 73.6787 24.9734C73.9604 24.8446 74.1958 24.6614 74.385 24.424C74.5782 24.1865 74.713 23.9008 74.7895 23.5667H76.5462C76.4818 24.1664 76.2866 24.7017 75.9606 25.1726C75.6346 25.6435 75.198 26.0137 74.6506 26.2834C74.1073 26.553 73.4694 26.6878 72.7369 26.6878ZM80.2816 14.1371V26.5007H78.4765V14.1371H80.2816ZM86.6158 26.6878C85.7465 26.6878 84.9879 26.4886 84.3399 26.0902C83.6919 25.6917 83.1889 25.1343 82.8307 24.418C82.4725 23.7016 82.2934 22.8645 82.2934 21.9066C82.2934 20.9447 82.4725 20.1036 82.8307 19.3832C83.1889 18.6627 83.6919 18.1033 84.3399 17.7049C84.9879 17.3065 85.7465 17.1072 86.6158 17.1072C87.4851 17.1072 88.2438 17.3065 88.8917 17.7049C89.5397 18.1033 90.0428 18.6627 90.401 19.3832C90.7592 20.1036 90.9383 20.9447 90.9383 21.9066C90.9383 22.8645 90.7592 23.7016 90.401 24.418C90.0428 25.1343 89.5397 25.6917 88.8917 26.0902C88.2438 26.4886 87.4851 26.6878 86.6158 26.6878ZM86.6219 25.1726C87.1853 25.1726 87.6522 25.0237 88.0224 24.7258C88.3927 24.428 88.6664 24.0316 88.8434 23.5366C89.0246 23.0415 89.1151 22.4962 89.1151 21.9006C89.1151 21.3089 89.0246 20.7656 88.8434 20.2706C88.6664 19.7715 88.3927 19.3711 88.0224 19.0692C87.6522 18.7674 87.1853 18.6165 86.6219 18.6165C86.0544 18.6165 85.5835 18.7674 85.2092 19.0692C84.8389 19.3711 84.5633 19.7715 84.3822 20.2706C84.2051 20.7656 84.1165 21.3089 84.1165 21.9006C84.1165 22.4962 84.2051 23.0415 84.3822 23.5366C84.5633 24.0316 84.8389 24.428 85.2092 24.7258C85.5835 25.0237 86.0544 25.1726 86.6219 25.1726ZM99.9016 19.4918L98.2656 19.7816C98.1972 19.5723 98.0885 19.3731 97.9396 19.1839C97.7947 18.9948 97.5975 18.8398 97.348 18.7191C97.0984 18.5984 96.7865 18.538 96.4122 18.538C95.9011 18.538 95.4745 18.6527 95.1324 18.8821C94.7903 19.1075 94.6193 19.3993 94.6193 19.7574C94.6193 20.0673 94.734 20.3169 94.9634 20.506C95.1928 20.6952 95.5631 20.8501 96.0742 20.9709L97.5472 21.3089C98.4004 21.5061 99.0363 21.81 99.4549 22.2205C99.8734 22.631 100.083 23.1643 100.083 23.8203C100.083 24.3757 99.9217 24.8707 99.5997 25.3054C99.2818 25.736 98.8371 26.0741 98.2656 26.3196C97.6981 26.5651 97.0401 26.6878 96.2915 26.6878C95.2532 26.6878 94.406 26.4665 93.75 26.0238C93.0939 25.577 92.6915 24.9432 92.5426 24.1221L94.2872 23.8565C94.3959 24.3113 94.6193 24.6554 94.9573 24.8888C95.2954 25.1182 95.7361 25.2329 96.2794 25.2329C96.8711 25.2329 97.3439 25.1102 97.6981 24.8647C98.0523 24.6152 98.2294 24.3113 98.2294 23.9531C98.2294 23.6633 98.1207 23.4199 97.9034 23.2226C97.6901 23.0254 97.3621 22.8765 96.9193 22.7759L95.3497 22.4318C94.4845 22.2346 93.8445 21.9207 93.43 21.49C93.0195 21.0594 92.8142 20.5141 92.8142 19.854C92.8142 19.3067 92.9672 18.8278 93.273 18.4172C93.5789 18.0067 94.0015 17.6868 94.5408 17.4574C95.0801 17.2239 95.6979 17.1072 96.3941 17.1072C97.3963 17.1072 98.1851 17.3246 98.7606 17.7592C99.3361 18.1899 99.7165 18.7674 99.9016 19.4918ZM106.064 26.6878C105.15 26.6878 104.363 26.4926 103.703 26.1023C103.047 25.7078 102.54 25.1545 102.182 24.4421C101.828 23.7257 101.651 22.8866 101.651 21.9247C101.651 20.9749 101.828 20.1378 102.182 19.4133C102.54 18.6889 103.039 18.1234 103.679 17.717C104.323 17.3105 105.076 17.1072 105.937 17.1072C106.46 17.1072 106.967 17.1938 107.458 17.3668C107.949 17.5399 108.39 17.8115 108.78 18.1818C109.171 18.5521 109.479 19.033 109.704 19.6246C109.929 20.2122 110.042 20.9266 110.042 21.7677V22.4077H102.671V21.0554H108.273C108.273 20.5805 108.177 20.1599 107.984 19.7937C107.79 19.4234 107.519 19.1316 107.169 18.9183C106.822 18.705 106.416 18.5984 105.949 18.5984C105.442 18.5984 104.999 18.7231 104.621 18.9726C104.247 19.2181 103.957 19.5401 103.752 19.9386C103.55 20.333 103.45 20.7616 103.45 21.2244V22.2809C103.45 22.9007 103.558 23.4279 103.776 23.8626C103.997 24.2972 104.305 24.6292 104.699 24.8587C105.094 25.084 105.555 25.1967 106.082 25.1967C106.424 25.1967 106.736 25.1484 107.018 25.0518C107.299 24.9512 107.543 24.8023 107.748 24.6051C107.953 24.4079 108.11 24.1644 108.219 23.8746L109.927 24.1825C109.791 24.6856 109.545 25.1263 109.191 25.5046C108.841 25.8789 108.4 26.1707 107.869 26.38C107.342 26.5852 106.74 26.6878 106.064 26.6878ZM124.476 17.228L121.114 26.5007H119.182L115.813 17.228H117.751L120.1 24.3636H120.196L122.539 17.228H124.476ZM132.047 22.6552V17.228H133.858V26.5007H132.083V24.8949H131.986C131.773 25.3899 131.431 25.8024 130.96 26.1324C130.493 26.4584 129.912 26.6214 129.215 26.6214C128.62 26.6214 128.093 26.4906 127.634 26.229C127.179 25.9634 126.821 25.571 126.559 25.0518C126.302 24.5327 126.173 23.8907 126.173 23.1261V17.228H127.978V22.9087C127.978 23.5406 128.153 24.0437 128.503 24.418C128.853 24.7922 129.308 24.9794 129.867 24.9794C130.205 24.9794 130.542 24.8949 130.876 24.7258C131.214 24.5568 131.493 24.3012 131.715 23.9591C131.94 23.6171 132.051 23.1824 132.047 22.6552ZM138.088 14.1371V26.5007H136.283V14.1371H138.088ZM142.322 20.995V26.5007H140.517V17.228H142.249V18.7372H142.364C142.577 18.2462 142.911 17.8518 143.366 17.554C143.825 17.2561 144.402 17.1072 145.099 17.1072C145.73 17.1072 146.284 17.24 146.759 17.5057C147.234 17.7673 147.602 18.1577 147.863 18.6768C148.125 19.196 148.256 19.8379 148.256 20.6026V26.5007H146.451V20.8199C146.451 20.1478 146.276 19.6226 145.926 19.2443C145.575 18.862 145.095 18.6708 144.483 18.6708C144.064 18.6708 143.692 18.7614 143.366 18.9425C143.044 19.1236 142.788 19.3892 142.599 19.7393C142.414 20.0855 142.322 20.504 142.322 20.995ZM154.673 26.6878C153.76 26.6878 152.973 26.4926 152.313 26.1023C151.657 25.7078 151.15 25.1545 150.791 24.4421C150.437 23.7257 150.26 22.8866 150.26 21.9247C150.26 20.9749 150.437 20.1378 150.791 19.4133C151.15 18.6889 151.649 18.1234 152.289 17.717C152.933 17.3105 153.685 17.1072 154.546 17.1072C155.07 17.1072 155.577 17.1938 156.068 17.3668C156.559 17.5399 156.999 17.8115 157.39 18.1818C157.78 18.5521 158.088 19.033 158.313 19.6246C158.539 20.2122 158.651 20.9266 158.651 21.7677V22.4077H151.28V21.0554H156.883C156.883 20.5805 156.786 20.1599 156.593 19.7937C156.4 19.4234 156.128 19.1316 155.778 18.9183C155.432 18.705 155.025 18.5984 154.558 18.5984C154.051 18.5984 153.609 18.7231 153.23 18.9726C152.856 19.2181 152.566 19.5401 152.361 19.9386C152.16 20.333 152.059 20.7616 152.059 21.2244V22.2809C152.059 22.9007 152.168 23.4279 152.385 23.8626C152.607 24.2972 152.914 24.6292 153.309 24.8587C153.703 25.084 154.164 25.1967 154.691 25.1967C155.033 25.1967 155.345 25.1484 155.627 25.0518C155.909 24.9512 156.152 24.8023 156.357 24.6051C156.563 24.4079 156.72 24.1644 156.828 23.8746L158.537 24.1825C158.4 24.6856 158.154 25.1263 157.8 25.5046C157.45 25.8789 157.009 26.1707 156.478 26.38C155.951 26.5852 155.349 26.6878 154.673 26.6878ZM160.654 26.5007V17.228H162.399V18.701H162.496C162.665 18.2019 162.962 17.8095 163.389 17.5238C163.82 17.234 164.307 17.0891 164.85 17.0891C164.963 17.0891 165.095 17.0931 165.248 17.1012C165.405 17.1092 165.528 17.1193 165.617 17.1314V18.8579C165.544 18.8378 165.415 18.8157 165.23 18.7915C165.045 18.7634 164.86 18.7493 164.675 18.7493C164.248 18.7493 163.868 18.8398 163.534 19.0209C163.204 19.198 162.942 19.4455 162.749 19.7635C162.556 20.0774 162.459 20.4356 162.459 20.8381V26.5007H160.654ZM169.794 26.706C169.207 26.706 168.675 26.5973 168.2 26.38C167.725 26.1586 167.349 25.8386 167.071 25.4201C166.798 25.0015 166.661 24.4884 166.661 23.8807C166.661 23.3575 166.762 22.9268 166.963 22.5888C167.164 22.2507 167.436 21.9831 167.778 21.7859C168.12 21.5886 168.502 21.4397 168.925 21.3391C169.347 21.2385 169.778 21.162 170.217 21.1097C170.772 21.0453 171.223 20.993 171.569 20.9528C171.915 20.9085 172.167 20.8381 172.324 20.7415C172.481 20.6449 172.559 20.4879 172.559 20.2706V20.2283C172.559 19.7011 172.41 19.2926 172.112 19.0028C171.819 18.7131 171.38 18.5682 170.796 18.5682C170.189 18.5682 169.71 18.703 169.359 18.9726C169.013 19.2383 168.774 19.5341 168.641 19.8601L166.945 19.4737C167.146 18.9103 167.44 18.4555 167.826 18.1094C168.216 17.7592 168.665 17.5057 169.172 17.3487C169.679 17.1877 170.213 17.1072 170.772 17.1072C171.142 17.1072 171.535 17.1515 171.949 17.24C172.368 17.3246 172.758 17.4815 173.12 17.7109C173.487 17.9403 173.787 18.2683 174.02 18.6949C174.253 19.1175 174.37 19.6669 174.37 20.343V26.5007H172.607V25.2329H172.535C172.418 25.4664 172.243 25.6958 172.01 25.9212C171.776 26.1465 171.476 26.3337 171.11 26.4826C170.744 26.6315 170.305 26.706 169.794 26.706ZM170.187 25.2571C170.686 25.2571 171.112 25.1585 171.466 24.9613C171.825 24.7641 172.096 24.5065 172.281 24.1886C172.471 23.8666 172.565 23.5225 172.565 23.1562V21.9609C172.501 22.0253 172.376 22.0857 172.191 22.142C172.01 22.1944 171.802 22.2406 171.569 22.2809C171.336 22.3171 171.108 22.3513 170.887 22.3835C170.665 22.4117 170.48 22.4358 170.331 22.456C169.981 22.5002 169.661 22.5747 169.372 22.6793C169.086 22.784 168.856 22.9349 168.683 23.1321C168.514 23.3253 168.43 23.5828 168.43 23.9048C168.43 24.3515 168.595 24.6896 168.925 24.919C169.255 25.1444 169.675 25.2571 170.187 25.2571ZM176.919 26.5007V14.1371H178.724V18.7312H178.833C178.938 18.538 179.089 18.3146 179.286 18.0611C179.483 17.8075 179.757 17.5862 180.107 17.397C180.457 17.2038 180.92 17.1072 181.495 17.1072C182.244 17.1072 182.912 17.2964 183.499 17.6747C184.087 18.053 184.548 18.5984 184.882 19.3107C185.22 20.0231 185.389 20.8803 185.389 21.8824C185.389 22.8846 185.222 23.7438 184.888 24.4602C184.554 25.1726 184.095 25.7219 183.512 26.1083C182.928 26.4906 182.262 26.6818 181.513 26.6818C180.95 26.6818 180.489 26.5872 180.131 26.3981C179.777 26.2089 179.499 25.9876 179.298 25.734C179.097 25.4805 178.942 25.2551 178.833 25.0579H178.682V26.5007H176.919ZM178.688 21.8643C178.688 22.5163 178.783 23.0878 178.972 23.5788C179.161 24.0698 179.435 24.4542 179.793 24.7319C180.151 25.0056 180.59 25.1424 181.109 25.1424C181.648 25.1424 182.099 24.9995 182.461 24.7138C182.823 24.424 183.097 24.0316 183.282 23.5366C183.471 23.0415 183.566 22.4841 183.566 21.8643C183.566 21.2526 183.473 20.7032 183.288 20.2163C183.107 19.7293 182.833 19.3449 182.467 19.0632C182.105 18.7815 181.652 18.6406 181.109 18.6406C180.586 18.6406 180.143 18.7754 179.781 19.0451C179.423 19.3147 179.151 19.691 178.966 20.174C178.781 20.6569 178.688 21.2204 178.688 21.8643ZM187.416 26.5007V17.228H189.221V26.5007H187.416ZM188.328 15.7972C188.014 15.7972 187.744 15.6926 187.519 15.4833C187.297 15.27 187.187 15.0164 187.187 14.7226C187.187 14.4248 187.297 14.1713 187.519 13.962C187.744 13.7487 188.014 13.642 188.328 13.642C188.641 13.642 188.909 13.7487 189.13 13.962C189.356 14.1713 189.469 14.4248 189.469 14.7226C189.469 15.0164 189.356 15.27 189.13 15.4833C188.909 15.6926 188.641 15.7972 188.328 15.7972ZM193.454 14.1371V26.5007H191.649V14.1371H193.454ZM195.883 26.5007V17.228H197.688V26.5007H195.883ZM196.794 15.7972C196.48 15.7972 196.211 15.6926 195.985 15.4833C195.764 15.27 195.653 15.0164 195.653 14.7226C195.653 14.4248 195.764 14.1713 195.985 13.962C196.211 13.7487 196.48 13.642 196.794 13.642C197.108 13.642 197.376 13.7487 197.597 13.962C197.823 14.1713 197.935 14.4248 197.935 14.7226C197.935 15.0164 197.823 15.27 197.597 15.4833C197.376 15.6926 197.108 15.7972 196.794 15.7972ZM204.445 17.228V18.6768H199.38V17.228H204.445ZM200.738 15.0064H202.543V23.778C202.543 24.1282 202.595 24.3918 202.7 24.5689C202.805 24.7419 202.939 24.8607 203.104 24.9251C203.273 24.9854 203.457 25.0156 203.654 25.0156C203.799 25.0156 203.925 25.0056 204.034 24.9854C204.143 24.9653 204.227 24.9492 204.288 24.9371L204.614 26.4283C204.509 26.4685 204.36 26.5087 204.167 26.549C203.974 26.5933 203.732 26.6174 203.442 26.6214C202.968 26.6295 202.525 26.545 202.114 26.3679C201.704 26.1908 201.372 25.9171 201.118 25.5469C200.865 25.1766 200.738 24.7118 200.738 24.1523V15.0064ZM206.441 26.5007V17.228H208.246V26.5007H206.441ZM207.353 15.7972C207.039 15.7972 206.769 15.6926 206.544 15.4833C206.323 15.27 206.212 15.0164 206.212 14.7226C206.212 14.4248 206.323 14.1713 206.544 13.962C206.769 13.7487 207.039 13.642 207.353 13.642C207.667 13.642 207.934 13.7487 208.156 13.962C208.381 14.1713 208.494 14.4248 208.494 14.7226C208.494 15.0164 208.381 15.27 208.156 15.4833C207.934 15.6926 207.667 15.7972 207.353 15.7972ZM214.671 26.6878C213.758 26.6878 212.971 26.4926 212.311 26.1023C211.655 25.7078 211.148 25.1545 210.789 24.4421C210.435 23.7257 210.258 22.8866 210.258 21.9247C210.258 20.9749 210.435 20.1378 210.789 19.4133C211.148 18.6889 211.647 18.1234 212.287 17.717C212.931 17.3105 213.683 17.1072 214.544 17.1072C215.068 17.1072 215.575 17.1938 216.066 17.3668C216.557 17.5399 216.997 17.8115 217.388 18.1818C217.778 18.5521 218.086 19.033 218.311 19.6246C218.537 20.2122 218.65 20.9266 218.65 21.7677V22.4077H211.278V21.0554H216.881C216.881 20.5805 216.784 20.1599 216.591 19.7937C216.398 19.4234 216.126 19.1316 215.776 18.9183C215.43 18.705 215.023 18.5984 214.556 18.5984C214.049 18.5984 213.607 18.7231 213.228 18.9726C212.854 19.2181 212.564 19.5401 212.359 19.9386C212.158 20.333 212.057 20.7616 212.057 21.2244V22.2809C212.057 22.9007 212.166 23.4279 212.383 23.8626C212.605 24.2972 212.912 24.6292 213.307 24.8587C213.701 25.084 214.162 25.1967 214.689 25.1967C215.031 25.1967 215.343 25.1484 215.625 25.0518C215.907 24.9512 216.15 24.8023 216.355 24.6051C216.561 24.4079 216.718 24.1644 216.826 23.8746L218.535 24.1825C218.398 24.6856 218.152 25.1263 217.798 25.5046C217.448 25.8789 217.007 26.1707 216.476 26.38C215.949 26.5852 215.347 26.6878 214.671 26.6878ZM227.601 19.4918L225.965 19.7816C225.896 19.5723 225.788 19.3731 225.639 19.1839C225.494 18.9948 225.297 18.8398 225.047 18.7191C224.798 18.5984 224.486 18.538 224.111 18.538C223.6 18.538 223.174 18.6527 222.832 18.8821C222.49 19.1075 222.318 19.3993 222.318 19.7574C222.318 20.0673 222.433 20.3169 222.663 20.506C222.892 20.6952 223.262 20.8501 223.773 20.9709L225.246 21.3089C226.1 21.5061 226.735 21.81 227.154 22.2205C227.573 22.631 227.782 23.1643 227.782 23.8203C227.782 24.3757 227.621 24.8707 227.299 25.3054C226.981 25.736 226.536 26.0741 225.965 26.3196C225.397 26.5651 224.739 26.6878 223.991 26.6878C222.952 26.6878 222.105 26.4665 221.449 26.0238C220.793 25.577 220.391 24.9432 220.242 24.1221L221.986 23.8565C222.095 24.3113 222.318 24.6554 222.657 24.8888C222.995 25.1182 223.435 25.2329 223.979 25.2329C224.57 25.2329 225.043 25.1102 225.397 24.8647C225.751 24.6152 225.929 24.3113 225.929 23.9531C225.929 23.6633 225.82 23.4199 225.603 23.2226C225.389 23.0254 225.061 22.8765 224.619 22.7759L223.049 22.4318C222.184 22.2346 221.544 21.9207 221.129 21.49C220.719 21.0594 220.513 20.5141 220.513 19.854C220.513 19.3067 220.666 18.8278 220.972 18.4172C221.278 18.0067 221.701 17.6868 222.24 17.4574C222.779 17.2239 223.397 17.1072 224.093 17.1072C225.095 17.1072 225.884 17.3246 226.46 17.7592C227.035 18.1899 227.416 18.7674 227.601 19.4918ZM238.171 26.6878C237.302 26.6878 236.543 26.4886 235.896 26.0902C235.248 25.6917 234.744 25.1343 234.386 24.418C234.028 23.7016 233.849 22.8645 233.849 21.9066C233.849 20.9447 234.028 20.1036 234.386 19.3832C234.744 18.6627 235.248 18.1033 235.896 17.7049C236.543 17.3065 237.302 17.1072 238.171 17.1072C239.041 17.1072 239.799 17.3065 240.447 17.7049C241.095 18.1033 241.598 18.6627 241.957 19.3832C242.315 20.1036 242.494 20.9447 242.494 21.9066C242.494 22.8645 242.315 23.7016 241.957 24.418C241.598 25.1343 241.095 25.6917 240.447 26.0902C239.799 26.4886 239.041 26.6878 238.171 26.6878ZM238.177 25.1726C238.741 25.1726 239.208 25.0237 239.578 24.7258C239.948 24.428 240.222 24.0316 240.399 23.5366C240.58 23.0415 240.671 22.4962 240.671 21.9006C240.671 21.3089 240.58 20.7656 240.399 20.2706C240.222 19.7715 239.948 19.3711 239.578 19.0692C239.208 18.7674 238.741 18.6165 238.177 18.6165C237.61 18.6165 237.139 18.7674 236.765 19.0692C236.395 19.3711 236.119 19.7715 235.938 20.2706C235.761 20.7656 235.672 21.3089 235.672 21.9006C235.672 22.4962 235.761 23.0415 235.938 23.5366C236.119 24.0316 236.395 24.428 236.765 24.7258C237.139 25.0237 237.61 25.1726 238.177 25.1726ZM246.314 20.995V26.5007H244.509V17.228H246.241V18.7372H246.356C246.569 18.2462 246.903 17.8518 247.358 17.554C247.817 17.2561 248.394 17.1072 249.091 17.1072C249.723 17.1072 250.276 17.24 250.751 17.5057C251.226 17.7673 251.594 18.1577 251.856 18.6768C252.117 19.196 252.248 19.8379 252.248 20.6026V26.5007H250.443V20.8199C250.443 20.1478 250.268 19.6226 249.918 19.2443C249.568 18.862 249.087 18.6708 248.475 18.6708C248.056 18.6708 247.684 18.7614 247.358 18.9425C247.036 19.1236 246.781 19.3892 246.591 19.7393C246.406 20.0855 246.314 20.504 246.314 20.995Z" fill="#E8E8E8"/>
<path d="M258.937 26.0007V13.6371H261.925V18.5994H266.797V13.6371H269.779V26.0007H266.797V21.0323H261.925V26.0007H258.937ZM274.268 26.1577C273.676 26.1577 273.151 26.0591 272.692 25.8618C272.237 25.6606 271.877 25.3588 271.612 24.9563C271.35 24.5498 271.219 24.0407 271.219 23.429C271.219 22.9138 271.31 22.4792 271.491 22.125C271.672 21.7708 271.921 21.4831 272.239 21.2617C272.557 21.0404 272.924 20.8733 273.338 20.7606C273.753 20.6439 274.195 20.5654 274.666 20.5252C275.194 20.4769 275.618 20.4266 275.94 20.3743C276.262 20.3179 276.495 20.2395 276.64 20.1388C276.789 20.0342 276.864 19.8873 276.864 19.6981V19.668C276.864 19.3581 276.757 19.1186 276.544 18.9496C276.33 18.7805 276.043 18.696 275.68 18.696C275.29 18.696 274.976 18.7805 274.739 18.9496C274.501 19.1186 274.35 19.352 274.286 19.6498L271.563 19.5533C271.644 18.9898 271.851 18.4867 272.185 18.044C272.523 17.5973 272.986 17.2471 273.574 16.9936C274.165 16.736 274.876 16.6072 275.705 16.6072C276.296 16.6072 276.842 16.6777 277.341 16.8185C277.84 16.9554 278.274 17.1566 278.645 17.4222C279.015 17.6838 279.301 18.0058 279.502 18.3881C279.707 18.7705 279.81 19.2071 279.81 19.6981V26.0007H277.033V24.7088H276.96C276.795 25.0227 276.584 25.2883 276.326 25.5057C276.073 25.723 275.773 25.886 275.427 25.9947C275.085 26.1033 274.698 26.1577 274.268 26.1577ZM275.179 24.2258C275.497 24.2258 275.783 24.1614 276.037 24.0327C276.294 23.9039 276.5 23.7268 276.652 23.5014C276.805 23.272 276.882 23.0064 276.882 22.7045V21.8231C276.797 21.8674 276.695 21.9077 276.574 21.9439C276.457 21.9801 276.328 22.0143 276.188 22.0465C276.047 22.0787 275.902 22.1069 275.753 22.131C275.604 22.1552 275.461 22.1773 275.324 22.1974C275.047 22.2417 274.809 22.3101 274.612 22.4027C274.419 22.4953 274.27 22.616 274.165 22.7649C274.065 22.9098 274.014 23.0828 274.014 23.2841C274.014 23.59 274.123 23.8234 274.34 23.9844C274.562 24.1453 274.841 24.2258 275.179 24.2258ZM285.943 26.1758C284.965 26.1758 284.126 25.9745 283.426 25.5721C282.73 25.1696 282.194 24.6102 281.82 23.8938C281.446 23.1734 281.259 22.3403 281.259 21.3945C281.259 20.4447 281.446 19.6116 281.82 18.8952C282.198 18.1748 282.736 17.6134 283.432 17.2109C284.132 16.8085 284.967 16.6072 285.937 16.6072C286.794 16.6072 287.541 16.7622 288.177 17.0721C288.817 17.382 289.316 17.8207 289.674 18.3881C290.036 18.9516 290.227 19.6136 290.248 20.3743H287.489C287.432 19.8994 287.271 19.5271 287.006 19.2574C286.744 18.9878 286.402 18.853 285.979 18.853C285.637 18.853 285.338 18.9496 285.08 19.1427C284.822 19.3319 284.621 19.6136 284.476 19.9879C284.335 20.3582 284.265 20.817 284.265 21.3643C284.265 21.9117 284.335 22.3745 284.476 22.7528C284.621 23.1271 284.822 23.4109 285.08 23.604C285.338 23.7932 285.637 23.8878 285.979 23.8878C286.253 23.8878 286.495 23.8294 286.704 23.7127C286.917 23.596 287.092 23.4249 287.229 23.1996C287.366 22.9702 287.453 22.6925 287.489 22.3665H290.248C290.219 23.1311 290.028 23.7992 289.674 24.3707C289.324 24.9422 288.831 25.3869 288.195 25.7049C287.563 26.0188 286.813 26.1758 285.943 26.1758ZM294.421 23.5678L294.433 20.0483H294.843L297.451 16.728H300.796L296.92 21.4851H296.141L294.421 23.5678ZM291.758 26.0007V13.6371H294.71V26.0007H291.758ZM297.518 26.0007L295.091 22.1491L297.035 20.0543L300.928 26.0007H297.518ZM305.805 26.1758C304.835 26.1758 303.998 25.9846 303.293 25.6023C302.593 25.2159 302.054 24.6665 301.676 23.9542C301.301 23.2378 301.114 22.3866 301.114 21.4006C301.114 20.4427 301.303 19.6056 301.682 18.8892C302.06 18.1688 302.593 17.6094 303.281 17.2109C303.97 16.8085 304.781 16.6072 305.714 16.6072C306.374 16.6072 306.978 16.7099 307.525 16.9151C308.073 17.1204 308.546 17.4242 308.944 17.8267C309.342 18.2292 309.652 18.7262 309.874 19.3178C310.095 19.9054 310.206 20.5795 310.206 21.3402V22.0767H302.146V20.3622H307.459C307.455 20.0483 307.38 19.7686 307.236 19.5231C307.091 19.2776 306.891 19.0864 306.638 18.9496C306.388 18.8087 306.101 18.7383 305.775 18.7383C305.445 18.7383 305.149 18.8127 304.887 18.9616C304.626 19.1065 304.418 19.3057 304.265 19.5593C304.112 19.8088 304.032 20.0926 304.024 20.4105V22.1552C304.024 22.5335 304.098 22.8655 304.247 23.1513C304.396 23.433 304.607 23.6523 304.881 23.8093C305.155 23.9663 305.481 24.0447 305.859 24.0447C306.121 24.0447 306.358 24.0085 306.571 23.9361C306.785 23.8636 306.968 23.757 307.121 23.6161C307.274 23.4752 307.388 23.3022 307.465 23.0969L310.176 23.1754C310.063 23.7831 309.815 24.3124 309.433 24.7631C309.055 25.2099 308.558 25.558 307.942 25.8075C307.326 26.053 306.614 26.1758 305.805 26.1758ZM311.713 26.0007V16.728H314.581V18.4183H314.678C314.847 17.8066 315.122 17.3518 315.505 17.054C315.887 16.7521 316.332 16.6012 316.839 16.6012C316.976 16.6012 317.116 16.6113 317.261 16.6314C317.406 16.6475 317.541 16.6736 317.666 16.7099V19.2756C317.525 19.2273 317.34 19.189 317.11 19.1609C316.885 19.1327 316.684 19.1186 316.507 19.1186C316.157 19.1186 315.841 19.1971 315.559 19.354C315.281 19.507 315.062 19.7223 314.901 20C314.744 20.2737 314.665 20.5956 314.665 20.9659V26.0007H311.713ZM330.538 19.8189C330.538 21.1792 330.276 22.3323 329.753 23.278C329.23 24.2238 328.522 24.9422 327.628 25.4332C326.739 25.9242 325.741 26.1697 324.634 26.1697C323.523 26.1697 322.523 25.9222 321.634 25.4272C320.744 24.9322 320.038 24.2138 319.515 23.272C318.995 22.3262 318.736 21.1752 318.736 19.8189C318.736 18.4586 318.995 17.3055 319.515 16.3597C320.038 15.4139 320.744 14.6955 321.634 14.2045C322.523 13.7135 323.523 13.468 324.634 13.468C325.741 13.468 326.739 13.7135 327.628 14.2045C328.522 14.6955 329.23 15.4139 329.753 16.3597C330.276 17.3055 330.538 18.4586 330.538 19.8189ZM327.483 19.8189C327.483 19.014 327.369 18.3338 327.139 17.7784C326.914 17.223 326.588 16.8024 326.161 16.5167C325.739 16.2309 325.23 16.0881 324.634 16.0881C324.042 16.0881 323.533 16.2309 323.107 16.5167C322.68 16.8024 322.352 17.223 322.123 17.7784C321.897 18.3338 321.785 19.014 321.785 19.8189C321.785 20.6238 321.897 21.304 322.123 21.8594C322.352 22.4148 322.68 22.8353 323.107 23.1211C323.533 23.4068 324.042 23.5497 324.634 23.5497C325.23 23.5497 325.739 23.4068 326.161 23.1211C326.588 22.8353 326.914 22.4148 327.139 21.8594C327.369 21.304 327.483 20.6238 327.483 19.8189ZM335.235 20.7123V26.0007H332.283V16.728H335.09V18.4304H335.193C335.398 17.8629 335.748 17.4182 336.243 17.0962C336.738 16.7702 337.328 16.6072 338.012 16.6072C338.664 16.6072 339.229 16.7541 339.708 17.0479C340.191 17.3377 340.565 17.7442 340.831 18.2674C341.101 18.7866 341.234 19.3943 341.229 20.0905V26.0007H338.277V20.6701C338.281 20.1549 338.151 19.7525 337.885 19.4627C337.623 19.1729 337.259 19.028 336.792 19.028C336.482 19.028 336.209 19.0965 335.971 19.2333C335.738 19.3661 335.557 19.5573 335.428 19.8068C335.303 20.0563 335.239 20.3582 335.235 20.7123ZM347.392 26.1758C346.422 26.1758 345.585 25.9846 344.88 25.6023C344.18 25.2159 343.641 24.6665 343.262 23.9542C342.888 23.2378 342.701 22.3866 342.701 21.4006C342.701 20.4427 342.89 19.6056 343.268 18.8892C343.647 18.1688 344.18 17.6094 344.868 17.2109C345.556 16.8085 346.367 16.6072 347.301 16.6072C347.961 16.6072 348.565 16.7099 349.112 16.9151C349.66 17.1204 350.132 17.4242 350.531 17.8267C350.929 18.2292 351.239 18.7262 351.461 19.3178C351.682 19.9054 351.793 20.5795 351.793 21.3402V22.0767H343.733V20.3622H349.046C349.042 20.0483 348.967 19.7686 348.822 19.5231C348.678 19.2776 348.478 19.0864 348.225 18.9496C347.975 18.8087 347.687 18.7383 347.361 18.7383C347.031 18.7383 346.736 18.8127 346.474 18.9616C346.212 19.1065 346.005 19.3057 345.852 19.5593C345.699 19.8088 345.619 20.0926 345.611 20.4105V22.1552C345.611 22.5335 345.685 22.8655 345.834 23.1513C345.983 23.433 346.194 23.6523 346.468 23.8093C346.742 23.9663 347.068 24.0447 347.446 24.0447C347.708 24.0447 347.945 24.0085 348.158 23.9361C348.372 23.8636 348.555 23.757 348.708 23.6161C348.861 23.4752 348.975 23.3022 349.052 23.0969L351.762 23.1754C351.65 23.7831 351.402 24.3124 351.02 24.7631C350.642 25.2099 350.145 25.558 349.529 25.8075C348.913 26.053 348.201 26.1758 347.392 26.1758Z" fill="white"/>
</g>
<defs>
<filter id="filter0_d_1_56" x="2.39972" y="0.39972" width="39.202" height="39.202" filterUnits="userSpaceOnUse" color-interpolation-filters="sRGB">
<feFlood flood-opacity="0" result="BackgroundImageFix"/>
<feColorMatrix in="SourceAlpha" type="matrix" values="0 0 0 0 0 0 0 0 0 0 0 0 0 0 0 0 0 0 127 0" result="hardAlpha"/>
<feOffset/>
<feGaussianBlur stdDeviation="2.80014"/>
<feComposite in2="hardAlpha" operator="out"/>
<feColorMatrix type="matrix" values="0 0 0 0 0 0 0 0 0 0 0 0 0 0 0 0 0 0 0.25 0"/>
<feBlend mode="normal" in2="BackgroundImageFix" result="effect1_dropShadow_1_56"/>
<feBlend mode="normal" in="SourceGraphic" in2="effect1_dropShadow_1_56" result="shape"/>
</filter>
<filter id="filter1_d_1_56" x="36.2871" y="3.78642" width="322.428" height="32.4286" filterUnits="userSpaceOnUse" color-interpolation-filters="sRGB">
<feFlood flood-opacity="0" result="BackgroundImageFix"/>
<feColorMatrix in="SourceAlpha" type="matrix" values="0 0 0 0 0 0 0 0 0 0 0 0 0 0 0 0 0 0 127 0" result="hardAlpha"/>
<feOffset/>
<feGaussianBlur stdDeviation="2.85714"/>
<feComposite in2="hardAlpha" operator="out"/>
<feColorMatrix type="matrix" values="0 0 0 0 0 0 0 0 0 0 0 0 0 0 0 0 0 0 0.25 0"/>
<feBlend mode="normal" in2="BackgroundImageFix" result="effect1_dropShadow_1_56"/>
<feBlend mode="normal" in="SourceGraphic" in2="effect1_dropShadow_1_56" result="shape"/>
</filter>
<linearGradient id="paint0_linear_1_56" x1="180.501" y1="0" x2="180.501" y2="40.0014" gradientUnits="userSpaceOnUse">
<stop stop-color="#1E1E1E"/>
<stop offset="1" stop-color="#0D0D0D"/>
</linearGradient>
</defs>
</svg>
