<svg width="272" height="56" viewBox="0 0 272 56" fill="none" xmlns="http://www.w3.org/2000/svg">
<rect width="272" height="56" rx="8" fill="url(#paint0_linear_1_50)"/>
<rect x="1.05" y="1.05" width="269.9" height="53.9" rx="6.95" stroke="white" stroke-opacity="0.15" stroke-width="2.1"/>
<g filter="url(#filter0_d_1_50)">
<path d="M24.1108 8C23.3048 8 22.6485 8.16967 22.1403 8.50033C21.633 8.83417 21.375 9.2715 21.375 9.8V46.1483C21.375 46.6093 21.6385 47.0278 22.167 47.4165C22.692 47.8057 23.3388 48 24.111 48C24.8488 48 25.4953 47.8057 26.0573 47.4165C26.616 47.0315 26.9003 46.6093 26.9003 46.1482V9.8025C26.9003 9.27083 26.6298 8.841 26.0848 8.50033C25.5398 8.16967 24.8828 8 24.1108 8ZM39.9832 22.4367C39.1772 22.4367 38.5303 22.6002 38.036 22.9378L30.6377 27.5748C30.3063 27.885 30.1642 28.356 30.2255 28.9998C30.2825 29.6375 30.5768 30.2448 31.0985 30.8177C31.6227 31.3943 32.2088 31.7553 32.8792 31.9088C33.5397 32.0587 34.0413 31.9772 34.3728 31.6705L37.298 29.8453V46.1482C37.298 46.6093 37.5517 47.0278 38.0658 47.4165C38.567 47.8057 39.2113 48 39.9832 48C40.7548 48 41.4215 47.8057 41.9803 47.4165C42.5422 47.0278 42.8233 46.6093 42.8233 46.1482V24.2302C42.8233 23.698 42.5483 23.2685 42.007 22.9378C41.465 22.6002 40.7923 22.4367 39.9832 22.4367Z" fill="white"/>
</g>
<g filter="url(#filter1_d_1_50)">
<path d="M65.0454 24.5H61.2784V12.8636H65.1648C66.3049 12.8636 67.2841 13.0966 68.1023 13.5625C68.9204 14.0246 69.5473 14.6894 69.9829 15.5568C70.4223 16.4204 70.642 17.4564 70.642 18.6648C70.642 19.8769 70.4204 20.9186 69.9773 21.7898C69.5379 22.661 68.9015 23.3314 68.0682 23.8011C67.2348 24.267 66.2273 24.5 65.0454 24.5ZM63.0341 22.9659H64.9488C65.8352 22.9659 66.572 22.7992 67.1591 22.4659C67.7462 22.1288 68.1856 21.642 68.4773 21.0057C68.7689 20.3655 68.9148 19.5852 68.9148 18.6648C68.9148 17.7519 68.7689 16.9773 68.4773 16.3409C68.1894 15.7045 67.7595 15.2216 67.1875 14.892C66.6155 14.5625 65.9053 14.3977 65.0568 14.3977H63.0341V22.9659ZM72.6889 24.5V15.7727H74.3878V24.5H72.6889ZM73.5469 14.4261C73.2514 14.4261 72.9976 14.3276 72.7855 14.1307C72.5772 13.9299 72.473 13.6913 72.473 13.4148C72.473 13.1345 72.5772 12.8958 72.7855 12.6989C72.9976 12.4981 73.2514 12.3977 73.5469 12.3977C73.8423 12.3977 74.0942 12.4981 74.3025 12.6989C74.5147 12.8958 74.6207 13.1345 74.6207 13.4148C74.6207 13.6913 74.5147 13.9299 74.3025 14.1307C74.0942 14.3276 73.8423 14.4261 73.5469 14.4261ZM83.213 17.9034L81.6733 18.1761C81.6089 17.9792 81.5066 17.7917 81.3665 17.6136C81.2301 17.4356 81.0445 17.2898 80.8096 17.1761C80.5748 17.0625 80.2812 17.0057 79.929 17.0057C79.4479 17.0057 79.0464 17.1136 78.7244 17.3295C78.4024 17.5417 78.2415 17.8163 78.2415 18.1534C78.2415 18.4451 78.3494 18.6799 78.5653 18.8579C78.7812 19.036 79.1297 19.1818 79.6108 19.2954L80.9971 19.6136C81.8002 19.7992 82.3987 20.0852 82.7926 20.4716C83.1865 20.8579 83.3835 21.3598 83.3835 21.9773C83.3835 22.5 83.232 22.9659 82.929 23.375C82.6297 23.7803 82.2112 24.0985 81.6733 24.3295C81.1392 24.5606 80.5199 24.6761 79.8153 24.6761C78.838 24.6761 78.0407 24.4678 77.4233 24.0511C76.8059 23.6307 76.4271 23.0341 76.2869 22.2614L77.929 22.0114C78.0312 22.4394 78.2415 22.7633 78.5596 22.9829C78.8778 23.1989 79.2926 23.3068 79.804 23.3068C80.3608 23.3068 80.8058 23.1913 81.1392 22.9602C81.4725 22.7254 81.6392 22.4394 81.6392 22.1023C81.6392 21.8295 81.5369 21.6004 81.3324 21.4148C81.1316 21.2292 80.8229 21.089 80.4062 20.9943L78.929 20.6704C78.1146 20.4848 77.5123 20.1894 77.1221 19.7841C76.7358 19.3788 76.5426 18.8655 76.5426 18.2443C76.5426 17.7292 76.6865 17.2784 76.9744 16.892C77.2623 16.5057 77.66 16.2045 78.1676 15.9886C78.6752 15.7689 79.2566 15.6591 79.9119 15.6591C80.8551 15.6591 81.5975 15.8636 82.1392 16.2727C82.6808 16.678 83.0388 17.2216 83.213 17.9034ZM88.9275 24.6761C88.0828 24.6761 87.3556 24.4848 86.7457 24.1023C86.1397 23.7159 85.6737 23.1837 85.348 22.5057C85.0222 21.8276 84.8594 21.0511 84.8594 20.1761C84.8594 19.2898 85.026 18.5076 85.3594 17.8295C85.6927 17.1477 86.1624 16.6155 86.7684 16.2329C87.3745 15.8504 88.0885 15.6591 88.9105 15.6591C89.5734 15.6591 90.1643 15.7822 90.6832 16.0284C91.2022 16.2708 91.6207 16.6117 91.9389 17.0511C92.2609 17.4905 92.4522 18.0038 92.5128 18.5909H90.8594C90.7684 18.1818 90.5601 17.8295 90.2344 17.5341C89.9124 17.2386 89.4806 17.0909 88.9389 17.0909C88.4654 17.0909 88.0506 17.2159 87.6946 17.4659C87.3423 17.7121 87.0677 18.0644 86.8707 18.5227C86.6737 18.9773 86.5753 19.5151 86.5753 20.1364C86.5753 20.7727 86.6719 21.322 86.865 21.7841C87.0582 22.2462 87.3309 22.6042 87.6832 22.8579C88.0393 23.1117 88.4578 23.2386 88.9389 23.2386C89.2609 23.2386 89.5525 23.1799 89.8139 23.0625C90.079 22.9413 90.3006 22.7689 90.4787 22.5454C90.6605 22.322 90.7874 22.053 90.8594 21.7386H92.5128C92.4522 22.303 92.2684 22.8068 91.9616 23.25C91.6548 23.6932 91.2438 24.0417 90.7287 24.2954C90.2173 24.5492 89.6169 24.6761 88.9275 24.6761ZM96.0284 12.8636V24.5H94.3295V12.8636H96.0284ZM101.99 24.6761C101.172 24.6761 100.458 24.4886 99.848 24.1136C99.2381 23.7386 98.7647 23.214 98.4275 22.5398C98.0904 21.8655 97.9218 21.0776 97.9218 20.1761C97.9218 19.2708 98.0904 18.4792 98.4275 17.8011C98.7647 17.1231 99.2381 16.5966 99.848 16.2216C100.458 15.8466 101.172 15.6591 101.99 15.6591C102.808 15.6591 103.522 15.8466 104.132 16.2216C104.742 16.5966 105.215 17.1231 105.553 17.8011C105.89 18.4792 106.058 19.2708 106.058 20.1761C106.058 21.0776 105.89 21.8655 105.553 22.5398C105.215 23.214 104.742 23.7386 104.132 24.1136C103.522 24.4886 102.808 24.6761 101.99 24.6761ZM101.996 23.25C102.526 23.25 102.965 23.1098 103.314 22.8295C103.662 22.5492 103.92 22.1761 104.087 21.7102C104.257 21.2443 104.342 20.7311 104.342 20.1704C104.342 19.6136 104.257 19.1023 104.087 18.6364C103.92 18.1667 103.662 17.7898 103.314 17.5057C102.965 17.2216 102.526 17.0795 101.996 17.0795C101.462 17.0795 101.018 17.2216 100.666 17.5057C100.318 17.7898 100.058 18.1667 99.8878 18.6364C99.7211 19.1023 99.6378 19.6136 99.6378 20.1704C99.6378 20.7311 99.7211 21.2443 99.8878 21.7102C100.058 22.1761 100.318 22.5492 100.666 22.8295C101.018 23.1098 101.462 23.25 101.996 23.25ZM114.494 17.9034L112.955 18.1761C112.89 17.9792 112.788 17.7917 112.648 17.6136C112.511 17.4356 112.326 17.2898 112.091 17.1761C111.856 17.0625 111.562 17.0057 111.21 17.0057C110.729 17.0057 110.328 17.1136 110.006 17.3295C109.684 17.5417 109.523 17.8163 109.523 18.1534C109.523 18.4451 109.631 18.6799 109.847 18.8579C110.062 19.036 110.411 19.1818 110.892 19.2954L112.278 19.6136C113.081 19.7992 113.68 20.0852 114.074 20.4716C114.468 20.8579 114.665 21.3598 114.665 21.9773C114.665 22.5 114.513 22.9659 114.21 23.375C113.911 23.7803 113.492 24.0985 112.955 24.3295C112.42 24.5606 111.801 24.6761 111.097 24.6761C110.119 24.6761 109.322 24.4678 108.705 24.0511C108.087 23.6307 107.708 23.0341 107.568 22.2614L109.21 22.0114C109.312 22.4394 109.523 22.7633 109.841 22.9829C110.159 23.1989 110.574 23.3068 111.085 23.3068C111.642 23.3068 112.087 23.1913 112.42 22.9602C112.754 22.7254 112.92 22.4394 112.92 22.1023C112.92 21.8295 112.818 21.6004 112.614 21.4148C112.413 21.2292 112.104 21.089 111.687 20.9943L110.21 20.6704C109.396 20.4848 108.794 20.1894 108.403 19.7841C108.017 19.3788 107.824 18.8655 107.824 18.2443C107.824 17.7292 107.968 17.2784 108.256 16.892C108.544 16.5057 108.941 16.2045 109.449 15.9886C109.956 15.7689 110.538 15.6591 111.193 15.6591C112.136 15.6591 112.879 15.8636 113.42 16.2727C113.962 16.678 114.32 17.2216 114.494 17.9034ZM120.294 24.6761C119.434 24.6761 118.694 24.4924 118.072 24.125C117.455 23.7538 116.978 23.2329 116.641 22.5625C116.307 21.8883 116.141 21.0985 116.141 20.1932C116.141 19.2992 116.307 18.5114 116.641 17.8295C116.978 17.1477 117.447 16.6155 118.05 16.2329C118.656 15.8504 119.364 15.6591 120.175 15.6591C120.667 15.6591 121.144 15.7405 121.607 15.9034C122.069 16.0663 122.483 16.322 122.851 16.6704C123.218 17.0189 123.508 17.4716 123.72 18.0284C123.932 18.5814 124.038 19.2538 124.038 20.0454V20.6477H117.101V19.375H122.374C122.374 18.928 122.283 18.5322 122.101 18.1875C121.919 17.839 121.663 17.5644 121.334 17.3636C121.008 17.1629 120.625 17.0625 120.186 17.0625C119.709 17.0625 119.292 17.1799 118.936 17.4148C118.584 17.6458 118.311 17.9489 118.118 18.3239C117.928 18.6951 117.834 19.0985 117.834 19.5341V20.5284C117.834 21.1117 117.936 21.6079 118.141 22.017C118.349 22.4261 118.639 22.7386 119.01 22.9545C119.381 23.1667 119.815 23.2727 120.311 23.2727C120.633 23.2727 120.927 23.2273 121.192 23.1364C121.457 23.0417 121.686 22.9015 121.879 22.7159C122.072 22.5303 122.22 22.3011 122.322 22.0284L123.93 22.3182C123.802 22.7917 123.571 23.2064 123.237 23.5625C122.908 23.9148 122.493 24.1894 121.993 24.3864C121.497 24.5795 120.93 24.6761 120.294 24.6761ZM137.624 15.7727L134.459 24.5H132.641L129.47 15.7727H131.294L133.504 22.4886H133.595L135.8 15.7727H137.624ZM144.749 20.8807V15.7727H146.453V24.5H144.783V22.9886H144.692C144.491 23.4545 144.169 23.8428 143.726 24.1534C143.286 24.4602 142.739 24.6136 142.084 24.6136C141.523 24.6136 141.027 24.4905 140.595 24.2443C140.167 23.9943 139.83 23.625 139.584 23.1364C139.341 22.6477 139.22 22.0436 139.22 21.3239V15.7727H140.919V21.1193C140.919 21.714 141.084 22.1875 141.413 22.5398C141.743 22.892 142.171 23.0682 142.697 23.0682C143.016 23.0682 143.332 22.9886 143.646 22.8295C143.964 22.6704 144.228 22.4299 144.436 22.1079C144.648 21.786 144.752 21.3769 144.749 20.8807ZM150.435 12.8636V24.5H148.736V12.8636H150.435ZM154.419 19.3182V24.5H152.72V15.7727H154.351V17.1932H154.459C154.66 16.7311 154.974 16.3598 155.402 16.0795C155.834 15.7992 156.377 15.6591 157.033 15.6591C157.627 15.6591 158.148 15.7841 158.595 16.0341C159.042 16.2803 159.389 16.6477 159.635 17.1364C159.881 17.625 160.004 18.2292 160.004 18.9489V24.5H158.305V19.1534C158.305 18.5208 158.141 18.0265 157.811 17.6704C157.481 17.3106 157.029 17.1307 156.453 17.1307C156.059 17.1307 155.709 17.2159 155.402 17.3864C155.099 17.5568 154.858 17.8068 154.68 18.1364C154.506 18.4621 154.419 18.8561 154.419 19.3182ZM166.044 24.6761C165.184 24.6761 164.444 24.4924 163.822 24.125C163.205 23.7538 162.728 23.2329 162.391 22.5625C162.057 21.8883 161.891 21.0985 161.891 20.1932C161.891 19.2992 162.057 18.5114 162.391 17.8295C162.728 17.1477 163.197 16.6155 163.8 16.2329C164.406 15.8504 165.114 15.6591 165.925 15.6591C166.417 15.6591 166.894 15.7405 167.356 15.9034C167.819 16.0663 168.233 16.322 168.601 16.6704C168.968 17.0189 169.258 17.4716 169.47 18.0284C169.682 18.5814 169.788 19.2538 169.788 20.0454V20.6477H162.851V19.375H168.124C168.124 18.928 168.033 18.5322 167.851 18.1875C167.669 17.839 167.413 17.5644 167.084 17.3636C166.758 17.1629 166.375 17.0625 165.936 17.0625C165.459 17.0625 165.042 17.1799 164.686 17.4148C164.334 17.6458 164.061 17.9489 163.868 18.3239C163.678 18.6951 163.584 19.0985 163.584 19.5341V20.5284C163.584 21.1117 163.686 21.6079 163.891 22.017C164.099 22.4261 164.389 22.7386 164.76 22.9545C165.131 23.1667 165.565 23.2727 166.061 23.2727C166.383 23.2727 166.677 23.2273 166.942 23.1364C167.207 23.0417 167.436 22.9015 167.629 22.7159C167.822 22.5303 167.97 22.3011 168.072 22.0284L169.68 22.3182C169.552 22.7917 169.321 23.2064 168.987 23.5625C168.658 23.9148 168.243 24.1894 167.743 24.3864C167.247 24.5795 166.68 24.6761 166.044 24.6761ZM171.673 24.5V15.7727H173.315V17.1591H173.406C173.565 16.6894 173.846 16.3201 174.247 16.0511C174.652 15.7784 175.111 15.642 175.622 15.642C175.728 15.642 175.853 15.6458 175.997 15.6534C176.145 15.661 176.26 15.6704 176.344 15.6818V17.3068C176.276 17.2879 176.154 17.267 175.98 17.2443C175.806 17.2178 175.632 17.2045 175.457 17.2045C175.056 17.2045 174.698 17.2898 174.383 17.4602C174.073 17.6269 173.827 17.8598 173.645 18.1591C173.463 18.4545 173.372 18.7917 173.372 19.1704V24.5H171.673ZM180.276 24.6932C179.722 24.6932 179.222 24.5909 178.776 24.3864C178.329 24.178 177.974 23.8769 177.713 23.4829C177.455 23.089 177.327 22.6061 177.327 22.0341C177.327 21.5417 177.421 21.1364 177.611 20.8182C177.8 20.5 178.056 20.2481 178.378 20.0625C178.7 19.8769 179.06 19.7367 179.457 19.642C179.855 19.5473 180.26 19.4754 180.673 19.4261C181.196 19.3655 181.62 19.3163 181.946 19.2784C182.272 19.2367 182.508 19.1704 182.656 19.0795C182.804 18.9886 182.878 18.8409 182.878 18.6364V18.5966C182.878 18.1004 182.738 17.7159 182.457 17.4432C182.181 17.1704 181.768 17.0341 181.219 17.0341C180.647 17.0341 180.196 17.161 179.866 17.4148C179.541 17.6648 179.315 17.9432 179.19 18.25L177.594 17.8864C177.783 17.3561 178.06 16.928 178.423 16.6023C178.791 16.2727 179.213 16.0341 179.69 15.8864C180.168 15.7348 180.669 15.6591 181.196 15.6591C181.544 15.6591 181.914 15.7008 182.304 15.7841C182.698 15.8636 183.065 16.0114 183.406 16.2273C183.751 16.4432 184.033 16.7519 184.253 17.1534C184.472 17.5511 184.582 18.0682 184.582 18.7045V24.5H182.923V23.3068H182.855C182.745 23.5265 182.58 23.7424 182.361 23.9545C182.141 24.1667 181.859 24.3428 181.514 24.4829C181.169 24.6231 180.757 24.6932 180.276 24.6932ZM180.645 23.3295C181.115 23.3295 181.516 23.2367 181.849 23.0511C182.187 22.8655 182.442 22.6231 182.616 22.3239C182.794 22.0208 182.883 21.697 182.883 21.3523V20.2273C182.823 20.2879 182.705 20.3447 182.531 20.3977C182.361 20.447 182.166 20.4905 181.946 20.5284C181.726 20.5625 181.512 20.5947 181.304 20.625C181.096 20.6515 180.921 20.6742 180.781 20.6932C180.452 20.7348 180.151 20.8049 179.878 20.9034C179.609 21.0019 179.393 21.1439 179.23 21.3295C179.071 21.5114 178.991 21.7538 178.991 22.0568C178.991 22.4773 179.147 22.7954 179.457 23.0114C179.768 23.2235 180.164 23.3295 180.645 23.3295ZM186.981 24.5V12.8636H188.68V17.1875H188.783C188.881 17.0057 189.023 16.7954 189.209 16.5568C189.394 16.3182 189.652 16.1098 189.981 15.9318C190.311 15.75 190.747 15.6591 191.288 15.6591C191.993 15.6591 192.622 15.8371 193.175 16.1932C193.728 16.5492 194.161 17.0625 194.476 17.7329C194.794 18.4034 194.953 19.2102 194.953 20.1534C194.953 21.0966 194.796 21.9053 194.481 22.5795C194.167 23.25 193.735 23.767 193.186 24.1307C192.637 24.4905 192.01 24.6704 191.305 24.6704C190.775 24.6704 190.341 24.5814 190.004 24.4034C189.671 24.2254 189.41 24.017 189.22 23.7784C189.031 23.5398 188.885 23.3276 188.783 23.142H188.641V24.5H186.981ZM188.646 20.1364C188.646 20.75 188.735 21.2879 188.913 21.75C189.091 22.2121 189.349 22.5739 189.686 22.8352C190.023 23.0928 190.436 23.2216 190.925 23.2216C191.432 23.2216 191.856 23.0871 192.197 22.8182C192.538 22.5454 192.796 22.1761 192.97 21.7102C193.148 21.2443 193.237 20.7197 193.237 20.1364C193.237 19.5606 193.15 19.0436 192.976 18.5852C192.805 18.1269 192.548 17.7651 192.203 17.5C191.862 17.2348 191.436 17.1023 190.925 17.1023C190.432 17.1023 190.016 17.2292 189.675 17.4829C189.338 17.7367 189.082 18.0909 188.908 18.5454C188.733 19 188.646 19.5303 188.646 20.1364ZM196.861 24.5V15.7727H198.56V24.5H196.861ZM197.719 14.4261C197.423 14.4261 197.169 14.3276 196.957 14.1307C196.749 13.9299 196.645 13.6913 196.645 13.4148C196.645 13.1345 196.749 12.8958 196.957 12.6989C197.169 12.4981 197.423 12.3977 197.719 12.3977C198.014 12.3977 198.266 12.4981 198.474 12.6989C198.686 12.8958 198.793 13.1345 198.793 13.4148C198.793 13.6913 198.686 13.9299 198.474 14.1307C198.266 14.3276 198.014 14.4261 197.719 14.4261ZM202.544 12.8636V24.5H200.845V12.8636H202.544ZM204.829 24.5V15.7727H206.528V24.5H204.829ZM205.687 14.4261C205.392 14.4261 205.138 14.3276 204.926 14.1307C204.718 13.9299 204.614 13.6913 204.614 13.4148C204.614 13.1345 204.718 12.8958 204.926 12.6989C205.138 12.4981 205.392 12.3977 205.687 12.3977C205.983 12.3977 206.235 12.4981 206.443 12.6989C206.655 12.8958 206.761 13.1345 206.761 13.4148C206.761 13.6913 206.655 13.9299 206.443 14.1307C206.235 14.3276 205.983 14.4261 205.687 14.4261ZM212.888 15.7727V17.1364H208.121V15.7727H212.888ZM209.399 13.6818H211.098V21.9375C211.098 22.267 211.147 22.5151 211.246 22.6818C211.344 22.8447 211.471 22.9564 211.626 23.017C211.785 23.0739 211.958 23.1023 212.143 23.1023C212.28 23.1023 212.399 23.0928 212.501 23.0739C212.604 23.0549 212.683 23.0398 212.74 23.0284L213.047 24.4318C212.948 24.4697 212.808 24.5076 212.626 24.5454C212.445 24.5871 212.217 24.6098 211.945 24.6136C211.498 24.6212 211.081 24.5417 210.695 24.375C210.308 24.2083 209.996 23.9508 209.757 23.6023C209.518 23.2538 209.399 22.8163 209.399 22.2898V13.6818ZM214.767 24.5V15.7727H216.466V24.5H214.767ZM215.625 14.4261C215.329 14.4261 215.076 14.3276 214.864 14.1307C214.655 13.9299 214.551 13.6913 214.551 13.4148C214.551 13.1345 214.655 12.8958 214.864 12.6989C215.076 12.4981 215.329 12.3977 215.625 12.3977C215.92 12.3977 216.172 12.4981 216.381 12.6989C216.593 12.8958 216.699 13.1345 216.699 13.4148C216.699 13.6913 216.593 13.9299 216.381 14.1307C216.172 14.3276 215.92 14.4261 215.625 14.4261ZM222.513 24.6761C221.653 24.6761 220.912 24.4924 220.291 24.125C219.674 23.7538 219.196 23.2329 218.859 22.5625C218.526 21.8883 218.359 21.0985 218.359 20.1932C218.359 19.2992 218.526 18.5114 218.859 17.8295C219.196 17.1477 219.666 16.6155 220.268 16.2329C220.874 15.8504 221.583 15.6591 222.393 15.6591C222.886 15.6591 223.363 15.7405 223.825 15.9034C224.287 16.0663 224.702 16.322 225.07 16.6704C225.437 17.0189 225.727 17.4716 225.939 18.0284C226.151 18.5814 226.257 19.2538 226.257 20.0454V20.6477H219.32V19.375H224.592C224.592 18.928 224.501 18.5322 224.32 18.1875C224.138 17.839 223.882 17.5644 223.552 17.3636C223.227 17.1629 222.844 17.0625 222.405 17.0625C221.927 17.0625 221.511 17.1799 221.155 17.4148C220.802 17.6458 220.53 17.9489 220.337 18.3239C220.147 18.6951 220.052 19.0985 220.052 19.5341V20.5284C220.052 21.1117 220.155 21.6079 220.359 22.017C220.568 22.4261 220.857 22.7386 221.229 22.9545C221.6 23.1667 222.034 23.2727 222.53 23.2727C222.852 23.2727 223.145 23.2273 223.41 23.1364C223.676 23.0417 223.905 22.9015 224.098 22.7159C224.291 22.5303 224.439 22.3011 224.541 22.0284L226.149 22.3182C226.02 22.7917 225.789 23.2064 225.456 23.5625C225.126 23.9148 224.712 24.1894 224.212 24.3864C223.715 24.5795 223.149 24.6761 222.513 24.6761ZM234.682 17.9034L233.142 18.1761C233.078 17.9792 232.975 17.7917 232.835 17.6136C232.699 17.4356 232.513 17.2898 232.278 17.1761C232.043 17.0625 231.75 17.0057 231.398 17.0057C230.917 17.0057 230.515 17.1136 230.193 17.3295C229.871 17.5417 229.71 17.8163 229.71 18.1534C229.71 18.4451 229.818 18.6799 230.034 18.8579C230.25 19.036 230.598 19.1818 231.079 19.2954L232.466 19.6136C233.269 19.7992 233.867 20.0852 234.261 20.4716C234.655 20.8579 234.852 21.3598 234.852 21.9773C234.852 22.5 234.701 22.9659 234.398 23.375C234.098 23.7803 233.68 24.0985 233.142 24.3295C232.608 24.5606 231.989 24.6761 231.284 24.6761C230.307 24.6761 229.509 24.4678 228.892 24.0511C228.275 23.6307 227.896 23.0341 227.756 22.2614L229.398 22.0114C229.5 22.4394 229.71 22.7633 230.028 22.9829C230.347 23.1989 230.761 23.3068 231.273 23.3068C231.829 23.3068 232.275 23.1913 232.608 22.9602C232.941 22.7254 233.108 22.4394 233.108 22.1023C233.108 21.8295 233.006 21.6004 232.801 21.4148C232.6 21.2292 232.292 21.089 231.875 20.9943L230.398 20.6704C229.583 20.4848 228.981 20.1894 228.591 19.7841C228.204 19.3788 228.011 18.8655 228.011 18.2443C228.011 17.7292 228.155 17.2784 228.443 16.892C228.731 16.5057 229.129 16.2045 229.636 15.9886C230.144 15.7689 230.725 15.6591 231.381 15.6591C232.324 15.6591 233.066 15.8636 233.608 16.2727C234.15 16.678 234.508 17.2216 234.682 17.9034ZM244.631 24.6761C243.812 24.6761 243.098 24.4886 242.489 24.1136C241.879 23.7386 241.405 23.214 241.068 22.5398C240.731 21.8655 240.562 21.0776 240.562 20.1761C240.562 19.2708 240.731 18.4792 241.068 17.8011C241.405 17.1231 241.879 16.5966 242.489 16.2216C243.098 15.8466 243.812 15.6591 244.631 15.6591C245.449 15.6591 246.163 15.8466 246.773 16.2216C247.383 16.5966 247.856 17.1231 248.193 17.8011C248.53 18.4792 248.699 19.2708 248.699 20.1761C248.699 21.0776 248.53 21.8655 248.193 22.5398C247.856 23.214 247.383 23.7386 246.773 24.1136C246.163 24.4886 245.449 24.6761 244.631 24.6761ZM244.636 23.25C245.167 23.25 245.606 23.1098 245.954 22.8295C246.303 22.5492 246.561 22.1761 246.727 21.7102C246.898 21.2443 246.983 20.7311 246.983 20.1704C246.983 19.6136 246.898 19.1023 246.727 18.6364C246.561 18.1667 246.303 17.7898 245.954 17.5057C245.606 17.2216 245.167 17.0795 244.636 17.0795C244.102 17.0795 243.659 17.2216 243.307 17.5057C242.958 17.7898 242.699 18.1667 242.528 18.6364C242.362 19.1023 242.278 19.6136 242.278 20.1704C242.278 20.7311 242.362 21.2443 242.528 21.7102C242.699 22.1761 242.958 22.5492 243.307 22.8295C243.659 23.1098 244.102 23.25 244.636 23.25ZM252.294 19.3182V24.5H250.595V15.7727H252.226V17.1932H252.334C252.534 16.7311 252.849 16.3598 253.277 16.0795C253.709 15.7992 254.252 15.6591 254.908 15.6591C255.502 15.6591 256.023 15.7841 256.47 16.0341C256.917 16.2803 257.264 16.6477 257.51 17.1364C257.756 17.625 257.879 18.2292 257.879 18.9489V24.5H256.18V19.1534C256.18 18.5208 256.016 18.0265 255.686 17.6704C255.356 17.3106 254.904 17.1307 254.328 17.1307C253.934 17.1307 253.584 17.2159 253.277 17.3864C252.974 17.5568 252.733 17.8068 252.555 18.1364C252.381 18.4621 252.294 18.8561 252.294 19.3182Z" fill="#E8E8E8"/>
<path d="M60.9357 43.5V31.1364H63.924V36.0987H68.7958V31.1364H71.778V43.5H68.7958V38.5316H63.924V43.5H60.9357ZM76.2665 43.6569C75.6749 43.6569 75.1497 43.5583 74.6909 43.3611C74.2361 43.1599 73.8759 42.8581 73.6102 42.4556C73.3486 42.0491 73.2178 41.54 73.2178 40.9283C73.2178 40.4131 73.3084 39.9784 73.4895 39.6243C73.6706 39.2701 73.9201 38.9824 74.2381 38.761C74.556 38.5396 74.9223 38.3726 75.3368 38.2599C75.7513 38.1432 76.194 38.0647 76.6649 38.0245C77.1922 37.9762 77.6168 37.9259 77.9387 37.8736C78.2607 37.8172 78.4941 37.7387 78.639 37.6381C78.7879 37.5335 78.8624 37.3866 78.8624 37.1974V37.1672C78.8624 36.8574 78.7557 36.6179 78.5424 36.4489C78.3291 36.2798 78.0414 36.1953 77.6791 36.1953C77.2887 36.1953 76.9748 36.2798 76.7374 36.4489C76.4999 36.6179 76.349 36.8513 76.2846 37.1491L73.5619 37.0525C73.6424 36.4891 73.8497 35.986 74.1838 35.5433C74.5218 35.0966 74.9847 34.7464 75.5722 34.4929C76.1639 34.2353 76.8742 34.1065 77.7033 34.1065C78.2949 34.1065 78.8402 34.177 79.3393 34.3178C79.8383 34.4547 80.273 34.6559 80.6433 34.9215C81.0135 35.1831 81.2993 35.5051 81.5005 35.8874C81.7058 36.2698 81.8084 36.7064 81.8084 37.1974V43.5H79.0314V42.2081H78.959C78.794 42.522 78.5827 42.7876 78.3251 43.005C78.0715 43.2223 77.7717 43.3853 77.4256 43.494C77.0835 43.6026 76.6971 43.6569 76.2665 43.6569ZM77.1781 41.7251C77.496 41.7251 77.7818 41.6607 78.0353 41.5319C78.2929 41.4032 78.4981 41.2261 78.6511 41.0007C78.804 40.7713 78.8805 40.5057 78.8805 40.2038V39.3224C78.796 39.3667 78.6933 39.4069 78.5726 39.4432C78.4559 39.4794 78.3271 39.5136 78.1862 39.5458C78.0454 39.578 77.9005 39.6062 77.7516 39.6303C77.6027 39.6545 77.4598 39.6766 77.323 39.6967C77.0453 39.741 76.8078 39.8094 76.6106 39.902C76.4174 39.9945 76.2685 40.1153 76.1639 40.2642C76.0632 40.4091 76.0129 40.5821 76.0129 40.7834C76.0129 41.0892 76.1216 41.3227 76.3389 41.4837C76.5603 41.6446 76.84 41.7251 77.1781 41.7251ZM87.9419 43.6751C86.9639 43.6751 86.1248 43.4738 85.4245 43.0714C84.7283 42.6689 84.193 42.1095 83.8187 41.3931C83.4444 40.6727 83.2573 39.8396 83.2573 38.8938C83.2573 37.944 83.4444 37.1109 83.8187 36.3945C84.197 35.6741 84.7343 35.1127 85.4306 34.7102C86.1308 34.3078 86.9659 34.1065 87.9359 34.1065C88.7931 34.1065 89.5397 34.2615 90.1756 34.5714C90.8155 34.8813 91.3145 35.3199 91.6727 35.8874C92.035 36.4509 92.2261 37.1129 92.2462 37.8736H89.4874C89.431 37.3987 89.27 37.0264 89.0044 36.7567C88.7428 36.4871 88.4007 36.3523 87.9781 36.3523C87.636 36.3523 87.3362 36.4489 87.0786 36.642C86.8211 36.8312 86.6198 37.1129 86.4749 37.4872C86.3341 37.8575 86.2636 38.3163 86.2636 38.8636C86.2636 39.411 86.3341 39.8738 86.4749 40.2521C86.6198 40.6264 86.8211 40.9101 87.0786 41.1033C87.3362 41.2925 87.636 41.3871 87.9781 41.3871C88.2518 41.3871 88.4933 41.3287 88.7026 41.212C88.9159 41.0953 89.0909 40.9242 89.2278 40.6989C89.3646 40.4694 89.4511 40.1918 89.4874 39.8658H92.2462C92.2181 40.6304 92.0269 41.2985 91.6727 41.87C91.3226 42.4415 90.8296 42.8862 90.1937 43.2042C89.5618 43.5181 88.8112 43.6751 87.9419 43.6751ZM96.4193 41.0671L96.4313 37.5476H96.8419L99.4498 34.2273H102.794L98.9186 38.9844H98.1398L96.4193 41.0671ZM93.757 43.5V31.1364H96.709V43.5H93.757ZM99.5162 43.5L97.0894 39.6484L99.0333 37.5536L102.927 43.5H99.5162ZM107.803 43.6751C106.833 43.6751 105.996 43.4839 105.292 43.1016C104.592 42.7152 104.052 42.1658 103.674 41.4535C103.3 40.7371 103.113 39.8859 103.113 38.8998C103.113 37.942 103.302 37.1049 103.68 36.3885C104.059 35.6681 104.592 35.1087 105.28 34.7102C105.968 34.3078 106.779 34.1065 107.713 34.1065C108.373 34.1065 108.977 34.2092 109.524 34.4144C110.071 34.6197 110.544 34.9235 110.943 35.326C111.341 35.7284 111.651 36.2255 111.872 36.8171C112.094 37.4047 112.204 38.0788 112.204 38.8395V39.576H104.145V37.8615H109.458C109.454 37.5476 109.379 37.2679 109.234 37.0224C109.089 36.7769 108.89 36.5857 108.637 36.4489C108.387 36.308 108.099 36.2376 107.773 36.2376C107.443 36.2376 107.147 36.312 106.886 36.4609C106.624 36.6058 106.417 36.805 106.264 37.0586C106.111 37.3081 106.031 37.5918 106.023 37.9098V39.6545C106.023 40.0328 106.097 40.3648 106.246 40.6506C106.395 40.9323 106.606 41.1516 106.88 41.3086C107.153 41.4655 107.479 41.544 107.858 41.544C108.119 41.544 108.357 41.5078 108.57 41.4354C108.783 41.3629 108.967 41.2563 109.119 41.1154C109.272 40.9745 109.387 40.8015 109.464 40.5962L112.174 40.6747C112.061 41.2824 111.814 41.8117 111.432 42.2624C111.053 42.7092 110.556 43.0573 109.94 43.3068C109.325 43.5523 108.612 43.6751 107.803 43.6751ZM113.712 43.5V34.2273H116.58V35.9176H116.676C116.845 35.3059 117.121 34.8511 117.503 34.5533C117.886 34.2514 118.33 34.1005 118.837 34.1005C118.974 34.1005 119.115 34.1105 119.26 34.1307C119.405 34.1468 119.54 34.1729 119.664 34.2092V36.7748C119.524 36.7266 119.338 36.6883 119.109 36.6601C118.884 36.632 118.682 36.6179 118.505 36.6179C118.155 36.6179 117.839 36.6964 117.558 36.8533C117.28 37.0063 117.061 37.2216 116.9 37.4993C116.743 37.773 116.664 38.0949 116.664 38.4652V43.5H113.712ZM132.537 37.3182C132.537 38.6785 132.275 39.8315 131.752 40.7773C131.229 41.7231 130.52 42.4415 129.627 42.9325C128.737 43.4235 127.739 43.669 126.633 43.669C125.522 43.669 124.522 43.4215 123.632 42.9265C122.743 42.4315 122.036 41.7131 121.513 40.7713C120.994 39.8255 120.735 38.6745 120.735 37.3182C120.735 35.9578 120.994 34.8048 121.513 33.859C122.036 32.9132 122.743 32.1948 123.632 31.7038C124.522 31.2128 125.522 30.9673 126.633 30.9673C127.739 30.9673 128.737 31.2128 129.627 31.7038C130.52 32.1948 131.229 32.9132 131.752 33.859C132.275 34.8048 132.537 35.9578 132.537 37.3182ZM129.482 37.3182C129.482 36.5132 129.367 35.8331 129.138 35.2777C128.913 34.7223 128.587 34.3017 128.16 34.016C127.737 33.7302 127.228 33.5873 126.633 33.5873C126.041 33.5873 125.532 33.7302 125.105 34.016C124.679 34.3017 124.351 34.7223 124.121 35.2777C123.896 35.8331 123.783 36.5132 123.783 37.3182C123.783 38.1231 123.896 38.8033 124.121 39.3587C124.351 39.9141 124.679 40.3346 125.105 40.6204C125.532 40.9061 126.041 41.049 126.633 41.049C127.228 41.049 127.737 40.9061 128.16 40.6204C128.587 40.3346 128.913 39.9141 129.138 39.3587C129.367 38.8033 129.482 38.1231 129.482 37.3182ZM137.233 38.2116V43.5H134.281V34.2273H137.089V35.9297H137.191C137.396 35.3622 137.747 34.9175 138.242 34.5955C138.737 34.2695 139.326 34.1065 140.01 34.1065C140.662 34.1065 141.228 34.2534 141.707 34.5472C142.19 34.837 142.564 35.2435 142.83 35.7667C143.099 36.2859 143.232 36.8936 143.228 37.5898V43.5H140.276V38.1694C140.28 37.6542 140.149 37.2518 139.884 36.962C139.622 36.6722 139.258 36.5273 138.791 36.5273C138.481 36.5273 138.207 36.5958 137.97 36.7326C137.737 36.8654 137.555 37.0566 137.427 37.3061C137.302 37.5556 137.237 37.8575 137.233 38.2116ZM149.39 43.6751C148.42 43.6751 147.583 43.4839 146.879 43.1016C146.179 42.7152 145.639 42.1658 145.261 41.4535C144.887 40.7371 144.7 39.8859 144.7 38.8998C144.7 37.942 144.889 37.1049 145.267 36.3885C145.645 35.6681 146.179 35.1087 146.867 34.7102C147.555 34.3078 148.366 34.1065 149.3 34.1065C149.96 34.1065 150.563 34.2092 151.111 34.4144C151.658 34.6197 152.131 34.9235 152.53 35.326C152.928 35.7284 153.238 36.2255 153.459 36.8171C153.681 37.4047 153.791 38.0788 153.791 38.8395V39.576H145.732V37.8615H151.044C151.04 37.5476 150.966 37.2679 150.821 37.0224C150.676 36.7769 150.477 36.5857 150.223 36.4489C149.974 36.308 149.686 36.2376 149.36 36.2376C149.03 36.2376 148.734 36.312 148.473 36.4609C148.211 36.6058 148.004 36.805 147.851 37.0586C147.698 37.3081 147.617 37.5918 147.609 37.9098V39.6545C147.609 40.0328 147.684 40.3648 147.833 40.6506C147.982 40.9323 148.193 41.1516 148.467 41.3086C148.74 41.4655 149.066 41.544 149.445 41.544C149.706 41.544 149.944 41.5078 150.157 41.4354C150.37 41.3629 150.553 41.2563 150.706 41.1154C150.859 40.9745 150.974 40.8015 151.05 40.5962L153.761 40.6747C153.648 41.2824 153.401 41.8117 153.019 42.2624C152.64 42.7092 152.143 43.0573 151.527 43.3068C150.912 43.5523 150.199 43.6751 149.39 43.6751Z" fill="white"/>
</g>
<defs>
<filter id="filter0_d_1_50" x="6.28571" y="2.28571" width="51.4286" height="51.4286" filterUnits="userSpaceOnUse" color-interpolation-filters="sRGB">
<feFlood flood-opacity="0" result="BackgroundImageFix"/>
<feColorMatrix in="SourceAlpha" type="matrix" values="0 0 0 0 0 0 0 0 0 0 0 0 0 0 0 0 0 0 127 0" result="hardAlpha"/>
<feOffset/>
<feGaussianBlur stdDeviation="2.85714"/>
<feComposite in2="hardAlpha" operator="out"/>
<feColorMatrix type="matrix" values="0 0 0 0 0 0 0 0 0 0 0 0 0 0 0 0 0 0 0.25 0"/>
<feBlend mode="normal" in2="BackgroundImageFix" result="effect1_dropShadow_1_50"/>
<feBlend mode="normal" in="SourceGraphic" in2="effect1_dropShadow_1_50" result="shape"/>
</filter>
<filter id="filter1_d_1_50" x="54.4" y="3.9" width="211.2" height="48.2" filterUnits="userSpaceOnUse" color-interpolation-filters="sRGB">
<feFlood flood-opacity="0" result="BackgroundImageFix"/>
<feColorMatrix in="SourceAlpha" type="matrix" values="0 0 0 0 0 0 0 0 0 0 0 0 0 0 0 0 0 0 127 0" result="hardAlpha"/>
<feOffset/>
<feGaussianBlur stdDeviation="2.8"/>
<feComposite in2="hardAlpha" operator="out"/>
<feColorMatrix type="matrix" values="0 0 0 0 0 0 0 0 0 0 0 0 0 0 0 0 0 0 0.25 0"/>
<feBlend mode="normal" in2="BackgroundImageFix" result="effect1_dropShadow_1_50"/>
<feBlend mode="normal" in="SourceGraphic" in2="effect1_dropShadow_1_50" result="shape"/>
</filter>
<linearGradient id="paint0_linear_1_50" x1="136" y1="0" x2="136" y2="56" gradientUnits="userSpaceOnUse">
<stop stop-color="#1E1E1E"/>
<stop offset="1" stop-color="#0D0D0D"/>
</linearGradient>
</defs>
</svg>
