<svg width="266" height="40" viewBox="0 0 266 40" fill="none" xmlns="http://www.w3.org/2000/svg">
<rect width="266.001" height="40.0014" rx="8" fill="url(#paint0_linear_1_56)"/>
<rect x="1.07143" y="1.07143" width="263.858" height="37.8585" rx="6.92857" stroke="white" stroke-opacity="0.15" stroke-width="2.14286"/>
<g filter="url(#filter0_d_1_56)">
<path d="M8 6V34H36V6H25.2375C25.2375 7.64062 24.0234 9.28125 22.0219 9.28125C21.5917 9.28423 21.1652 9.20115 20.7676 9.03689C20.37 8.87263 20.0092 8.63052 19.7066 8.3248C19.4039 8.01907 19.1654 7.6559 19.0052 7.25665C18.8449 6.85741 18.7661 6.43015 18.7734 6L8 6Z" fill="#007ACC"/>
<path d="M18.9758 18.8086H19.1973L24.9401 31.4762H22.2256L21.6348 30.0543H16.5381L15.9473 31.4762H13.4544L18.9758 18.8086ZM20.7116 27.8938L19.8066 25.7148C19.7082 25.4686 19.6158 25.2224 19.5297 24.9762C19.4435 24.73 19.3634 24.4899 19.2896 24.256C19.2034 23.9852 19.1234 23.7205 19.0495 23.4619C18.9634 23.7698 18.8834 24.0407 18.8095 24.2746C18.7357 24.5084 18.6556 24.7608 18.5695 25.0316C18.4833 25.2901 18.3971 25.5179 18.3109 25.7148L17.406 27.8938H20.7116ZM29.3857 31.6424C28.7824 31.6424 28.2346 31.5747 27.7422 31.4393C27.2498 31.3038 26.8066 31.1192 26.4126 30.8853C26.0187 30.6514 25.6741 30.3744 25.3786 30.0543C25.0955 29.7219 24.8615 29.3711 24.6768 29.0018L26.782 27.783C27.0651 28.2385 27.3975 28.614 27.7792 28.9095C28.1731 29.2049 28.6901 29.3527 29.3302 29.3527C29.8719 29.3527 30.2966 29.2357 30.6044 29.0018C30.9245 28.7555 31.0846 28.4478 31.0846 28.0784C31.0846 27.6353 30.9183 27.303 30.5858 27.0814C30.2535 26.8597 29.7919 26.6196 29.201 26.3611L28.5546 26.0842C28.0869 25.8872 27.6622 25.6717 27.2805 25.4378C26.8989 25.204 26.5726 24.9331 26.3018 24.6254C26.031 24.3177 25.8217 23.9668 25.674 23.5728C25.5263 23.1789 25.4524 22.7172 25.4524 22.1878C25.4524 21.7077 25.5386 21.2584 25.711 20.8399C25.8956 20.4214 26.148 20.0582 26.4681 19.7504C26.8004 19.4427 27.2005 19.2026 27.6684 19.0302C28.1361 18.8579 28.6593 18.7717 29.2379 18.7717C30.0627 18.7717 30.7706 18.9318 31.3615 19.2519C31.9647 19.5596 32.4817 20.0889 32.9127 20.8399L30.8998 22.1325C30.6782 21.7385 30.4382 21.4554 30.1797 21.2831C29.9212 21.1107 29.6072 21.0245 29.238 21.0245C28.8564 21.0245 28.5547 21.1292 28.3331 21.3384C28.1115 21.5477 28.0006 21.8124 28.0006 22.1325C28.0006 22.5265 28.1238 22.8281 28.37 23.0373C28.6286 23.2343 29.0348 23.4559 29.5888 23.7021L30.2352 23.9791C30.789 24.213 31.2753 24.4592 31.6939 24.7177C32.1248 24.9639 32.4818 25.247 32.7649 25.5671C33.0604 25.8749 33.282 26.2319 33.4297 26.6382C33.5897 27.0321 33.6698 27.4998 33.6698 28.0415C33.6698 28.6201 33.5589 29.1372 33.3373 29.5927C33.128 30.0359 32.8326 30.4113 32.451 30.7191C32.0694 31.0269 31.6138 31.2608 31.0845 31.4208C30.5675 31.5686 30.0012 31.6424 29.3857 31.6424Z" fill="white"/>
</g>
<g filter="url(#filter1_d_1_56)">
<path d="M43.3597 26.5007V14.1371H47.8874C48.7648 14.1371 49.4912 14.282 50.0667 14.5717C50.6423 14.8575 51.0729 15.2458 51.3586 15.7369C51.6444 16.2238 51.7873 16.7732 51.7873 17.3849C51.7873 17.9001 51.6927 18.3347 51.5035 18.6889C51.3144 19.0391 51.0608 19.3208 50.7429 19.5341C50.429 19.7434 50.0828 19.8963 49.7045 19.9929V20.1136C50.115 20.1337 50.5155 20.2666 50.9059 20.5121C51.3003 20.7535 51.6263 21.0976 51.8839 21.5444C52.1414 21.9911 52.2702 22.5344 52.2702 23.1743C52.2702 23.8062 52.1213 24.3737 51.8235 24.8768C51.5297 25.3758 51.0749 25.7722 50.4591 26.066C49.8434 26.3558 49.0566 26.5007 48.0987 26.5007H43.3597ZM45.2251 24.9009H47.9176C48.8111 24.9009 49.451 24.7279 49.8373 24.3817C50.2237 24.0356 50.4169 23.603 50.4169 23.0838C50.4169 22.6934 50.3183 22.3352 50.1211 22.0092C49.9239 21.6832 49.6421 21.4236 49.2759 21.2305C48.9137 21.0373 48.483 20.9407 47.984 20.9407H45.2251V24.9009ZM45.2251 19.4858H47.7244C48.143 19.4858 48.5193 19.4053 48.8533 19.2443C49.1914 19.0833 49.459 18.8579 49.6562 18.5682C49.8575 18.2744 49.9581 17.9283 49.9581 17.5298C49.9581 17.0187 49.779 16.5901 49.4208 16.244C49.0626 15.8978 48.5132 15.7248 47.7727 15.7248H45.2251V19.4858ZM60.2118 22.6552V17.228H62.0229V26.5007H60.248V24.8949H60.1514C59.9381 25.3899 59.596 25.8024 59.1251 26.1324C58.6583 26.4584 58.0767 26.6214 57.3805 26.6214C56.7848 26.6214 56.2576 26.4906 55.7988 26.229C55.344 25.9634 54.9858 25.571 54.7242 25.0518C54.4667 24.5327 54.3379 23.8907 54.3379 23.1261V17.228H56.1429V22.9087C56.1429 23.5406 56.318 24.0437 56.6681 24.418C57.0183 24.7922 57.473 24.9794 58.0325 24.9794C58.3705 24.9794 58.7066 24.8949 59.0406 24.7258C59.3787 24.5568 59.6584 24.3012 59.8798 23.9591C60.1051 23.6171 60.2158 23.1824 60.2118 22.6552ZM64.4482 26.5007V17.228H66.2533V26.5007H64.4482ZM65.3598 15.7972C65.0459 15.7972 64.7762 15.6926 64.5508 15.4833C64.3295 15.27 64.2188 15.0164 64.2188 14.7226C64.2188 14.4248 64.3295 14.1713 64.5508 13.962C64.7762 13.7487 65.0459 13.642 65.3598 13.642C65.6737 13.642 65.9413 13.7487 66.1627 13.962C66.3881 14.1713 66.5008 14.4248 66.5008 14.7226C66.5008 15.0164 66.3881 15.27 66.1627 15.4833C65.9413 15.6926 65.6737 15.7972 65.3598 15.7972ZM70.4867 14.1371V26.5007H68.6816V14.1371H70.4867ZM77.2435 17.228V18.6768H72.1785V17.228H77.2435ZM73.5368 15.0064H75.3419V23.778C75.3419 24.1282 75.3942 24.3918 75.4988 24.5689C75.6035 24.7419 75.7383 24.8607 75.9033 24.9251C76.0723 24.9854 76.2554 25.0156 76.4526 25.0156C76.5975 25.0156 76.7243 25.0056 76.833 24.9854C76.9416 24.9653 77.0262 24.9492 77.0865 24.9371L77.4125 26.4283C77.3079 26.4685 77.159 26.5087 76.9658 26.549C76.7726 26.5933 76.5311 26.6174 76.2414 26.6214C75.7664 26.6295 75.3237 26.545 74.9132 26.3679C74.5027 26.1908 74.1707 25.9171 73.9171 25.5469C73.6636 25.1766 73.5368 24.7118 73.5368 24.1523V15.0064ZM85.7495 26.5007L83.0208 17.228H84.8862L86.7034 24.0376H86.7939L88.6171 17.228H90.4825L92.2936 24.0074H92.3841L94.1891 17.228H96.0546L93.3319 26.5007H91.4906L89.6071 19.8057H89.4683L87.5847 26.5007H85.7495ZM97.7675 26.5007V17.228H99.5726V26.5007H97.7675ZM98.6791 15.7972C98.3652 15.7972 98.0955 15.6926 97.8702 15.4833C97.6488 15.27 97.5381 15.0164 97.5381 14.7226C97.5381 14.4248 97.6488 14.1713 97.8702 13.962C98.0955 13.7487 98.3652 13.642 98.6791 13.642C98.993 13.642 99.2607 13.7487 99.482 13.962C99.7074 14.1713 99.8201 14.4248 99.8201 14.7226C99.8201 15.0164 99.7074 15.27 99.482 15.4833C99.2607 15.6926 98.993 15.7972 98.6791 15.7972ZM106.329 17.228V18.6768H101.264V17.228H106.329ZM102.623 15.0064H104.428V23.778C104.428 24.1282 104.48 24.3918 104.585 24.5689C104.689 24.7419 104.824 24.8607 104.989 24.9251C105.158 24.9854 105.341 25.0156 105.539 25.0156C105.683 25.0156 105.81 25.0056 105.919 24.9854C106.028 24.9653 106.112 24.9492 106.172 24.9371L106.498 26.4283C106.394 26.4685 106.245 26.5087 106.052 26.549C105.859 26.5933 105.617 26.6174 105.327 26.6214C104.852 26.6295 104.41 26.545 103.999 26.3679C103.589 26.1908 103.257 25.9171 103.003 25.5469C102.75 25.1766 102.623 24.7118 102.623 24.1523V15.0064ZM110.33 20.995V26.5007H108.525V14.1371H110.306V18.7372H110.421C110.638 18.2382 110.97 17.8417 111.417 17.5479C111.864 17.2541 112.447 17.1072 113.168 17.1072C113.804 17.1072 114.359 17.238 114.834 17.4996C115.313 17.7612 115.683 18.1516 115.945 18.6708C116.21 19.1859 116.343 19.8299 116.343 20.6026V26.5007H114.538V20.8199C114.538 20.1398 114.363 19.6126 114.013 19.2383C113.663 18.86 113.176 18.6708 112.552 18.6708C112.125 18.6708 111.743 18.7614 111.405 18.9425C111.071 19.1236 110.807 19.3892 110.614 19.7393C110.425 20.0855 110.33 20.504 110.33 20.995Z" fill="#E8E8E8"/>
<path d="M125.611 26.0007H122.4L126.571 13.6371H130.55L134.721 26.0007H131.51L128.606 16.7521H128.509L125.611 26.0007ZM125.183 21.1349H131.896V23.4048H125.183V21.1349ZM143.866 19.5593L141.155 19.6317C141.127 19.4386 141.05 19.2675 140.926 19.1186C140.801 18.9657 140.638 18.8469 140.437 18.7624C140.239 18.6739 140.01 18.6296 139.748 18.6296C139.406 18.6296 139.115 18.698 138.873 18.8349C138.636 18.9717 138.519 19.1568 138.523 19.3903C138.519 19.5714 138.591 19.7283 138.74 19.8611C138.893 19.994 139.165 20.1006 139.555 20.1811L141.342 20.5192C142.268 20.6962 142.956 20.99 143.407 21.4006C143.862 21.8111 144.091 22.3544 144.095 23.0305C144.091 23.6664 143.902 24.2198 143.528 24.6907C143.157 25.1616 142.65 25.5278 142.006 25.7894C141.362 26.047 140.626 26.1758 139.797 26.1758C138.473 26.1758 137.428 25.9041 136.664 25.3608C135.903 24.8134 135.468 24.081 135.36 23.1633L138.275 23.0909C138.34 23.429 138.507 23.6865 138.776 23.8636C139.046 24.0407 139.39 24.1292 139.809 24.1292C140.187 24.1292 140.495 24.0588 140.732 23.918C140.97 23.7771 141.091 23.5899 141.095 23.3565C141.091 23.1472 140.998 22.9802 140.817 22.8555C140.636 22.7267 140.352 22.6261 139.966 22.5536L138.348 22.2457C137.418 22.0767 136.726 21.7648 136.271 21.31C135.816 20.8512 135.591 20.2676 135.595 19.5593C135.591 18.9395 135.756 18.4103 136.09 17.9716C136.424 17.5289 136.899 17.1908 137.515 16.9574C138.131 16.7239 138.857 16.6072 139.694 16.6072C140.95 16.6072 141.94 16.8708 142.664 17.3981C143.389 17.9213 143.789 18.6417 143.866 19.5593ZM153.644 19.5593L150.933 19.6317C150.905 19.4386 150.829 19.2675 150.704 19.1186C150.579 18.9657 150.416 18.8469 150.215 18.7624C150.018 18.6739 149.788 18.6296 149.527 18.6296C149.185 18.6296 148.893 18.698 148.651 18.8349C148.414 18.9717 148.297 19.1568 148.301 19.3903C148.297 19.5714 148.37 19.7283 148.519 19.8611C148.672 19.994 148.943 20.1006 149.334 20.1811L151.121 20.5192C152.046 20.6962 152.734 20.99 153.185 21.4006C153.64 21.8111 153.869 22.3544 153.873 23.0305C153.869 23.6664 153.68 24.2198 153.306 24.6907C152.936 25.1616 152.429 25.5278 151.785 25.7894C151.141 26.047 150.404 26.1758 149.575 26.1758C148.251 26.1758 147.207 25.9041 146.442 25.3608C145.681 24.8134 145.247 24.081 145.138 23.1633L148.054 23.0909C148.118 23.429 148.285 23.6865 148.555 23.8636C148.824 24.0407 149.169 24.1292 149.587 24.1292C149.965 24.1292 150.273 24.0588 150.511 23.918C150.748 23.7771 150.869 23.5899 150.873 23.3565C150.869 23.1472 150.776 22.9802 150.595 22.8555C150.414 22.7267 150.13 22.6261 149.744 22.5536L148.126 22.2457C147.197 22.0767 146.504 21.7648 146.049 21.31C145.595 20.8512 145.369 20.2676 145.373 19.5593C145.369 18.9395 145.534 18.4103 145.868 17.9716C146.202 17.5289 146.677 17.1908 147.293 16.9574C147.909 16.7239 148.635 16.6072 149.472 16.6072C150.728 16.6072 151.718 16.8708 152.443 17.3981C153.167 17.9213 153.567 18.6417 153.644 19.5593ZM159.661 26.1758C158.691 26.1758 157.854 25.9846 157.15 25.6023C156.45 25.2159 155.91 24.6665 155.532 23.9542C155.158 23.2378 154.971 22.3866 154.971 21.4006C154.971 20.4427 155.16 19.6056 155.538 18.8892C155.916 18.1688 156.45 17.6094 157.138 17.2109C157.826 16.8085 158.637 16.6072 159.571 16.6072C160.231 16.6072 160.834 16.7099 161.382 16.9151C161.929 17.1204 162.402 17.4242 162.8 17.8267C163.199 18.2292 163.509 18.7262 163.73 19.3178C163.951 19.9054 164.062 20.5795 164.062 21.3402V22.0767H156.003V20.3622H161.315C161.311 20.0483 161.237 19.7686 161.092 19.5231C160.947 19.2776 160.748 19.0864 160.494 18.9496C160.245 18.8087 159.957 18.7383 159.631 18.7383C159.301 18.7383 159.005 18.8127 158.744 18.9616C158.482 19.1065 158.275 19.3057 158.122 19.5593C157.969 19.8088 157.888 20.0926 157.88 20.4105V22.1552C157.88 22.5335 157.955 22.8655 158.104 23.1513C158.253 23.433 158.464 23.6523 158.738 23.8093C159.011 23.9663 159.337 24.0447 159.716 24.0447C159.977 24.0447 160.215 24.0085 160.428 23.9361C160.641 23.8636 160.824 23.757 160.977 23.6161C161.13 23.4752 161.245 23.3022 161.321 23.0969L164.032 23.1754C163.919 23.7831 163.672 24.3124 163.289 24.7631C162.911 25.2099 162.414 25.558 161.798 25.8075C161.183 26.053 160.47 26.1758 159.661 26.1758ZM165.57 26.0007V16.728H168.377V18.4304H168.48C168.673 17.8669 168.999 17.4222 169.458 17.0962C169.916 16.7702 170.464 16.6072 171.1 16.6072C171.744 16.6072 172.295 16.7722 172.754 17.1023C173.213 17.4323 173.504 17.875 173.629 18.4304H173.726C173.899 17.879 174.237 17.4383 174.74 17.1083C175.243 16.7743 175.837 16.6072 176.521 16.6072C177.398 16.6072 178.111 16.889 178.658 17.4524C179.205 18.0118 179.479 18.7805 179.479 19.7585V26.0007H176.527V20.4346C176.527 19.9718 176.408 19.6197 176.171 19.3782C175.933 19.1327 175.625 19.0099 175.247 19.0099C174.841 19.0099 174.521 19.1427 174.287 19.4084C174.058 19.67 173.943 20.0221 173.943 20.4648V26.0007H171.106V20.4045C171.106 19.9738 170.989 19.6337 170.756 19.3842C170.522 19.1347 170.214 19.0099 169.832 19.0099C169.574 19.0099 169.347 19.0723 169.15 19.1971C168.953 19.3178 168.798 19.4909 168.685 19.7163C168.576 19.9416 168.522 20.2073 168.522 20.5131V26.0007H165.57ZM181.308 26.0007V13.6371H184.26V18.3157H184.321C184.441 18.034 184.612 17.7623 184.834 17.5007C185.059 17.2391 185.345 17.0258 185.691 16.8608C186.041 16.6918 186.46 16.6072 186.947 16.6072C187.591 16.6072 188.192 16.7763 188.752 17.1143C189.315 17.4524 189.77 17.9736 190.116 18.6779C190.462 19.3822 190.635 20.2797 190.635 21.3704C190.635 22.4208 190.468 23.3002 190.134 24.0085C189.804 24.7168 189.357 25.2481 188.794 25.6023C188.235 25.9564 187.613 26.1335 186.929 26.1335C186.462 26.1335 186.057 26.057 185.715 25.9041C185.373 25.7512 185.085 25.5499 184.852 25.3004C184.622 25.0509 184.445 24.7832 184.321 24.4975H184.23V26.0007H181.308ZM184.2 21.3643C184.2 21.8634 184.266 22.298 184.399 22.6683C184.536 23.0386 184.731 23.3263 184.985 23.5316C185.242 23.7328 185.55 23.8334 185.908 23.8334C186.271 23.8334 186.578 23.7328 186.832 23.5316C187.086 23.3263 187.277 23.0386 187.405 22.6683C187.538 22.298 187.605 21.8634 187.605 21.3643C187.605 20.8653 187.538 20.4326 187.405 20.0664C187.277 19.7002 187.086 19.4164 186.832 19.2152C186.582 19.014 186.275 18.9133 185.908 18.9133C185.546 18.9133 185.238 19.0119 184.985 19.2092C184.731 19.4064 184.536 19.6881 184.399 20.0543C184.266 20.4206 184.2 20.8572 184.2 21.3643ZM195.134 13.6371V26.0007H192.182V13.6371H195.134ZM198.818 29.478C198.464 29.478 198.13 29.4498 197.816 29.3935C197.502 29.3411 197.233 29.2707 197.007 29.1822L197.659 27.039C197.949 27.1356 198.211 27.192 198.444 27.2081C198.681 27.2242 198.885 27.1859 199.054 27.0934C199.227 27.0048 199.36 26.8459 199.452 26.6165L199.567 26.3388L196.271 16.728H199.362L201.07 23.3444H201.167L202.899 16.728H206.008L202.513 26.8881C202.344 27.3952 202.104 27.842 201.794 28.2283C201.489 28.6187 201.092 28.9246 200.605 29.1459C200.122 29.3673 199.527 29.478 198.818 29.478ZM213.823 17.3437C213.783 16.901 213.604 16.5569 213.286 16.3114C212.972 16.0619 212.523 15.9371 211.94 15.9371C211.553 15.9371 211.231 15.9874 210.974 16.0881C210.716 16.1887 210.523 16.3275 210.394 16.5046C210.265 16.6777 210.199 16.8769 210.195 17.1023C210.187 17.2874 210.223 17.4504 210.304 17.5913C210.388 17.7321 210.509 17.8569 210.666 17.9655C210.827 18.0702 211.02 18.1627 211.245 18.2432C211.471 18.3237 211.724 18.3942 212.006 18.4545L213.068 18.696C213.68 18.8288 214.22 19.0059 214.686 19.2273C215.157 19.4486 215.552 19.7122 215.87 20.0181C216.192 20.324 216.435 20.6761 216.6 21.0746C216.765 21.473 216.85 21.9197 216.854 22.4148C216.85 23.1955 216.652 23.8656 216.262 24.4251C215.872 24.9845 215.31 25.4131 214.578 25.7109C213.849 26.0087 212.97 26.1577 211.94 26.1577C210.905 26.1577 210.004 26.0027 209.235 25.6928C208.466 25.3829 207.869 24.912 207.442 24.2802C207.015 23.6483 206.796 22.8494 206.784 21.8835H209.646C209.67 22.2819 209.776 22.614 209.965 22.8796C210.155 23.1452 210.414 23.3465 210.744 23.4833C211.078 23.6201 211.465 23.6886 211.903 23.6886C212.306 23.6886 212.648 23.6342 212.93 23.5256C213.215 23.4169 213.435 23.266 213.588 23.0728C213.741 22.8796 213.819 22.6583 213.823 22.4087C213.819 22.1753 213.747 21.9761 213.606 21.8111C213.465 21.642 213.248 21.4971 212.954 21.3764C212.664 21.2516 212.294 21.1369 211.843 21.0323L210.551 20.7305C209.481 20.485 208.637 20.0885 208.022 19.5412C207.406 18.9898 207.1 18.2453 207.104 17.3075C207.1 16.5428 207.305 15.8727 207.72 15.2972C208.134 14.7217 208.708 14.273 209.44 13.951C210.173 13.629 211.008 13.468 211.946 13.468C212.903 13.468 213.735 13.631 214.439 13.957C215.147 14.279 215.697 14.7318 216.087 15.3153C216.477 15.8989 216.677 16.575 216.685 17.3437H213.823ZM222.691 26.1758C221.713 26.1758 220.874 25.9745 220.174 25.5721C219.478 25.1696 218.942 24.6102 218.568 23.8938C218.194 23.1734 218.007 22.3403 218.007 21.3945C218.007 20.4447 218.194 19.6116 218.568 18.8952C218.946 18.1748 219.484 17.6134 220.18 17.2109C220.88 16.8085 221.715 16.6072 222.685 16.6072C223.543 16.6072 224.289 16.7622 224.925 17.0721C225.565 17.382 226.064 17.8207 226.422 18.3881C226.784 18.9516 226.976 19.6136 226.996 20.3743H224.237C224.18 19.8994 224.019 19.5271 223.754 19.2574C223.492 18.9878 223.15 18.853 222.728 18.853C222.385 18.853 222.086 18.9496 221.828 19.1427C221.57 19.3319 221.369 19.6136 221.224 19.9879C221.083 20.3582 221.013 20.817 221.013 21.3643C221.013 21.9117 221.083 22.3745 221.224 22.7528C221.369 23.1271 221.57 23.4109 221.828 23.604C222.086 23.7932 222.385 23.8878 222.728 23.8878C223.001 23.8878 223.243 23.8294 223.452 23.7127C223.665 23.596 223.84 23.4249 223.977 23.1996C224.114 22.9702 224.201 22.6925 224.237 22.3665H226.996C226.967 23.1311 226.776 23.7992 226.422 24.3707C226.072 24.9422 225.579 25.3869 224.943 25.7049C224.311 26.0188 223.561 26.1758 222.691 26.1758ZM228.506 26.0007V16.728H231.374V18.4183H231.471C231.64 17.8066 231.915 17.3518 232.298 17.054C232.68 16.7521 233.125 16.6012 233.632 16.6012C233.769 16.6012 233.909 16.6113 234.054 16.6314C234.199 16.6475 234.334 16.6736 234.459 16.7099V19.2756C234.318 19.2273 234.133 19.189 233.903 19.1609C233.678 19.1327 233.477 19.1186 233.3 19.1186C232.95 19.1186 232.634 19.1971 232.352 19.354C232.074 19.507 231.855 19.7223 231.694 20C231.537 20.2737 231.458 20.5956 231.458 20.9659V26.0007H228.506ZM235.662 26.0007V16.728H238.614V26.0007H235.662ZM237.141 15.6474C236.726 15.6474 236.37 15.5105 236.072 15.2369C235.774 14.9592 235.625 14.6251 235.625 14.2347C235.625 13.8484 235.774 13.5183 236.072 13.2447C236.37 12.967 236.726 12.8281 237.141 12.8281C237.559 12.8281 237.915 12.967 238.209 13.2447C238.507 13.5183 238.656 13.8484 238.656 14.2347C238.656 14.6251 238.507 14.9592 238.209 15.2369C237.915 15.5105 237.559 15.6474 237.141 15.6474ZM240.493 29.478V16.728H243.415V18.3157H243.505C243.626 18.034 243.797 17.7623 244.018 17.5007C244.244 17.2391 244.529 17.0258 244.876 16.8608C245.226 16.6918 245.644 16.6072 246.131 16.6072C246.775 16.6072 247.377 16.7763 247.936 17.1143C248.5 17.4524 248.954 17.9736 249.301 18.6779C249.647 19.3822 249.82 20.2797 249.82 21.3704C249.82 22.4208 249.653 23.3002 249.319 24.0085C248.989 24.7168 248.542 25.2481 247.979 25.6023C247.419 25.9564 246.797 26.1335 246.113 26.1335C245.646 26.1335 245.242 26.057 244.9 25.9041C244.558 25.7512 244.27 25.5499 244.036 25.3004C243.807 25.0509 243.63 24.7832 243.505 24.4975H243.445V29.478H240.493ZM243.384 21.3643C243.384 21.8634 243.451 22.298 243.584 22.6683C243.72 23.0386 243.916 23.3263 244.169 23.5316C244.427 23.7328 244.735 23.8334 245.093 23.8334C245.455 23.8334 245.763 23.7328 246.017 23.5316C246.27 23.3263 246.461 23.0386 246.59 22.6683C246.723 22.298 246.789 21.8634 246.789 21.3643C246.789 20.8653 246.723 20.4326 246.59 20.0664C246.461 19.7002 246.27 19.4164 246.017 19.2152C245.767 19.014 245.459 18.9133 245.093 18.9133C244.731 18.9133 244.423 19.0119 244.169 19.2092C243.916 19.4064 243.72 19.6881 243.584 20.0543C243.451 20.4206 243.384 20.8572 243.384 21.3643ZM256.601 16.728V18.9013H250.751V16.728H256.601ZM251.976 14.5064H254.929V23.0849C254.929 23.266 254.957 23.4129 255.013 23.5256C255.073 23.6342 255.16 23.7127 255.273 23.761C255.385 23.8053 255.52 23.8274 255.677 23.8274C255.79 23.8274 255.909 23.8173 256.033 23.7972C256.162 23.7731 256.259 23.7529 256.323 23.7368L256.77 25.8679C256.629 25.9081 256.43 25.9584 256.172 26.0188C255.919 26.0792 255.615 26.1174 255.261 26.1335C254.568 26.1657 253.975 26.0852 253.48 25.892C252.989 25.6948 252.612 25.389 252.351 24.9744C252.093 24.5599 251.968 24.0387 251.976 23.4109V14.5064Z" fill="#007ACC"/>
</g>
<defs>
<filter id="filter0_d_1_56" x="2.39972" y="0.39972" width="39.202" height="39.202" filterUnits="userSpaceOnUse" color-interpolation-filters="sRGB">
<feFlood flood-opacity="0" result="BackgroundImageFix"/>
<feColorMatrix in="SourceAlpha" type="matrix" values="0 0 0 0 0 0 0 0 0 0 0 0 0 0 0 0 0 0 127 0" result="hardAlpha"/>
<feOffset/>
<feGaussianBlur stdDeviation="2.80014"/>
<feComposite in2="hardAlpha" operator="out"/>
<feColorMatrix type="matrix" values="0 0 0 0 0 0 0 0 0 0 0 0 0 0 0 0 0 0 0.25 0"/>
<feBlend mode="normal" in2="BackgroundImageFix" result="effect1_dropShadow_1_56"/>
<feBlend mode="normal" in="SourceGraphic" in2="effect1_dropShadow_1_56" result="shape"/>
</filter>
<filter id="filter1_d_1_56" x="36.2871" y="3.78642" width="227.429" height="32.4286" filterUnits="userSpaceOnUse" color-interpolation-filters="sRGB">
<feFlood flood-opacity="0" result="BackgroundImageFix"/>
<feColorMatrix in="SourceAlpha" type="matrix" values="0 0 0 0 0 0 0 0 0 0 0 0 0 0 0 0 0 0 127 0" result="hardAlpha"/>
<feOffset/>
<feGaussianBlur stdDeviation="2.85714"/>
<feComposite in2="hardAlpha" operator="out"/>
<feColorMatrix type="matrix" values="0 0 0 0 0 0 0 0 0 0 0 0 0 0 0 0 0 0 0.25 0"/>
<feBlend mode="normal" in2="BackgroundImageFix" result="effect1_dropShadow_1_56"/>
<feBlend mode="normal" in="SourceGraphic" in2="effect1_dropShadow_1_56" result="shape"/>
</filter>
<linearGradient id="paint0_linear_1_56" x1="133.001" y1="0" x2="133.001" y2="40.0014" gradientUnits="userSpaceOnUse">
<stop stop-color="#003152"/>
<stop offset="1" stop-color="#001829"/>
</linearGradient>
</defs>
</svg>
