<svg width="40" height="40" viewBox="0 0 40 40" fill="none" xmlns="http://www.w3.org/2000/svg">
<rect width="40" height="40" rx="8" fill="url(#paint0_linear_1_68)"/>
<rect x="1.05" y="1.05" width="37.9" height="37.9" rx="6.95" stroke="white" stroke-opacity="0.15" stroke-width="2.1"/>
<g filter="url(#filter0_d_1_68)">
<path d="M6 6V34H34V6H23.2375C23.2375 7.64062 22.0234 9.28125 20.0219 9.28125C19.5917 9.28423 19.1652 9.20115 18.7676 9.03689C18.37 8.87263 18.0092 8.63052 17.7066 8.3248C17.4039 8.01907 17.1654 7.6559 17.0052 7.25665C16.8449 6.85741 16.7661 6.43015 16.7734 6L6 6Z" fill="#007ACC"/>
<path d="M16.9758 18.8086H17.1973L22.9401 31.4762H20.2256L19.6348 30.0543H14.5381L13.9473 31.4762H11.4544L16.9758 18.8086ZM18.7116 27.8938L17.8066 25.7148C17.7082 25.4686 17.6158 25.2224 17.5297 24.9762C17.4435 24.73 17.3634 24.4899 17.2896 24.256C17.2034 23.9852 17.1234 23.7205 17.0495 23.4619C16.9634 23.7698 16.8834 24.0407 16.8095 24.2746C16.7357 24.5084 16.6556 24.7608 16.5695 25.0316C16.4833 25.2901 16.3971 25.5179 16.3109 25.7148L15.406 27.8938H18.7116ZM27.3857 31.6424C26.7824 31.6424 26.2346 31.5747 25.7422 31.4393C25.2498 31.3038 24.8066 31.1192 24.4126 30.8853C24.0187 30.6514 23.6741 30.3744 23.3786 30.0543C23.0955 29.7219 22.8615 29.3711 22.6768 29.0018L24.782 27.783C25.0651 28.2385 25.3975 28.614 25.7792 28.9095C26.1731 29.2049 26.6901 29.3527 27.3302 29.3527C27.8719 29.3527 28.2966 29.2357 28.6044 29.0018C28.9245 28.7555 29.0846 28.4478 29.0846 28.0784C29.0846 27.6353 28.9183 27.303 28.5858 27.0814C28.2535 26.8597 27.7919 26.6196 27.201 26.3611L26.5546 26.0842C26.0869 25.8872 25.6622 25.6717 25.2805 25.4378C24.8989 25.204 24.5726 24.9331 24.3018 24.6254C24.031 24.3177 23.8217 23.9668 23.674 23.5728C23.5263 23.1789 23.4524 22.7172 23.4524 22.1878C23.4524 21.7077 23.5386 21.2584 23.711 20.8399C23.8956 20.4214 24.148 20.0582 24.4681 19.7504C24.8004 19.4427 25.2005 19.2026 25.6684 19.0302C26.1361 18.8579 26.6593 18.7717 27.2379 18.7717C28.0627 18.7717 28.7706 18.9318 29.3615 19.2519C29.9647 19.5596 30.4817 20.0889 30.9127 20.8399L28.8998 22.1325C28.6782 21.7385 28.4382 21.4554 28.1797 21.2831C27.9212 21.1107 27.6072 21.0245 27.238 21.0245C26.8564 21.0245 26.5547 21.1292 26.3331 21.3384C26.1115 21.5477 26.0006 21.8124 26.0006 22.1325C26.0006 22.5265 26.1238 22.8281 26.37 23.0373C26.6286 23.2343 27.0348 23.4559 27.5888 23.7021L28.2352 23.9791C28.789 24.213 29.2753 24.4592 29.6939 24.7177C30.1248 24.9639 30.4818 25.247 30.7649 25.5671C31.0604 25.8749 31.282 26.2319 31.4297 26.6382C31.5897 27.0321 31.6698 27.4998 31.6698 28.0415C31.6698 28.6201 31.5589 29.1372 31.3373 29.5927C31.128 30.0359 30.8326 30.4113 30.451 30.7191C30.0694 31.0269 29.6138 31.2608 29.0845 31.4208C28.5675 31.5686 28.0012 31.6424 27.3857 31.6424Z" fill="white"/>
</g>
<defs>
<filter id="filter0_d_1_68" x="2" y="2" width="36" height="36" filterUnits="userSpaceOnUse" color-interpolation-filters="sRGB">
<feFlood flood-opacity="0" result="BackgroundImageFix"/>
<feColorMatrix in="SourceAlpha" type="matrix" values="0 0 0 0 0 0 0 0 0 0 0 0 0 0 0 0 0 0 127 0" result="hardAlpha"/>
<feOffset/>
<feGaussianBlur stdDeviation="2"/>
<feComposite in2="hardAlpha" operator="out"/>
<feColorMatrix type="matrix" values="0 0 0 0 0 0 0 0 0 0 0 0 0 0 0 0 0 0 0.25 0"/>
<feBlend mode="normal" in2="BackgroundImageFix" result="effect1_dropShadow_1_68"/>
<feBlend mode="normal" in="SourceGraphic" in2="effect1_dropShadow_1_68" result="shape"/>
</filter>
<linearGradient id="paint0_linear_1_68" x1="20" y1="0" x2="20" y2="40" gradientUnits="userSpaceOnUse">
<stop stop-color="#003152"/>
<stop offset="1" stop-color="#001829"/>
</linearGradient>
</defs>
</svg>
