<svg width="208" height="56" viewBox="0 0 208 56" fill="none" xmlns="http://www.w3.org/2000/svg">
<rect width="208" height="56" rx="8" fill="url(#paint0_linear_1_50)"/>
<rect x="1.05" y="1.05" width="205.9" height="53.9" rx="6.95" stroke="white" stroke-opacity="0.15" stroke-width="2.1"/>
<g filter="url(#filter0_d_1_50)">
<path d="M12 8V48H52V8H36.625C36.625 10.3437 34.8906 12.6875 32.0312 12.6875C31.4167 12.6918 30.8075 12.5731 30.2394 12.3384C29.6714 12.1038 29.1561 11.7579 28.7237 11.3211C28.2913 10.8844 27.9506 10.3656 27.7217 9.79522C27.4928 9.22487 27.3802 8.61449 27.3906 8L12 8Z" fill="#007ACC"/>
<path d="M27.6797 26.298H27.9961L36.2002 44.3945H32.3223L31.4783 42.3633H24.1973L23.3533 44.3945H19.792L27.6797 26.298ZM30.1594 39.2769L28.8666 36.1641C28.7259 35.8123 28.5941 35.4606 28.4709 35.1089C28.3478 34.7571 28.2335 34.4142 28.128 34.08C28.0048 33.6931 27.8905 33.315 27.785 32.9456C27.662 33.3854 27.5477 33.7724 27.4422 34.1066C27.3367 34.4406 27.2223 34.8011 27.0992 35.188C26.9761 35.5573 26.853 35.8827 26.7298 36.1641L25.4372 39.2769H30.1594ZM42.5509 44.632C41.6892 44.632 40.9066 44.5353 40.2031 44.3419C39.4997 44.1483 38.8666 43.8845 38.3037 43.5505C37.741 43.2163 37.2486 42.8206 36.8266 42.3633C36.4221 41.8885 36.0879 41.3873 35.8241 40.8597L38.8314 39.1186C39.2359 39.7693 39.7107 40.3057 40.2559 40.7278C40.8186 41.1499 41.5572 41.3609 42.4717 41.3609C43.2456 41.3609 43.8523 41.1939 44.292 40.8597C44.7493 40.5079 44.978 40.0682 44.978 39.5406C44.978 38.9076 44.7405 38.4328 44.2655 38.1162C43.7907 37.7996 43.1312 37.4566 42.2872 37.0873L41.3637 36.6917C40.6955 36.4103 40.0888 36.1024 39.5436 35.7683C38.9984 35.4342 38.5323 35.0473 38.1455 34.6077C37.7586 34.1681 37.4596 33.6669 37.2486 33.1041C37.0376 32.5412 36.932 31.8817 36.932 31.1255C36.932 30.4396 37.0552 29.7978 37.3014 29.1998C37.5652 28.6019 37.9257 28.0831 38.383 27.6434C38.8578 27.2039 39.4293 26.8609 40.0977 26.6145C40.7659 26.3684 41.5133 26.2453 42.3398 26.2453C43.5182 26.2453 44.5294 26.474 45.3736 26.9312C46.2353 27.3708 46.9739 28.127 47.5895 29.1998L44.7141 31.0464C44.3975 30.4836 44.0546 30.0791 43.6853 29.833C43.3159 29.5867 42.8675 29.4636 42.34 29.4636C41.7948 29.4636 41.3639 29.6131 41.0473 29.912C40.7307 30.211 40.5723 30.5891 40.5723 31.0464C40.5723 31.6092 40.7482 32.0401 41.1 32.3391C41.4694 32.6204 42.0497 32.937 42.8411 33.2887L43.7645 33.6844C44.5558 34.0185 45.2504 34.3703 45.8484 34.7395C46.464 35.0913 46.974 35.4958 47.3784 35.953C47.8005 36.3927 48.1171 36.9027 48.3281 37.4831C48.5568 38.0458 48.6711 38.7141 48.6711 39.4878C48.6711 40.3145 48.5128 41.0532 48.1961 41.7039C47.8971 42.3369 47.4751 42.8733 46.93 43.313C46.3848 43.7527 45.7341 44.0868 44.9778 44.3155C44.2393 44.5265 43.4303 44.632 42.5509 44.632Z" fill="white"/>
</g>
<g filter="url(#filter1_d_1_50)">
<path d="M61.2784 24.5V12.8636H65.5398C66.3655 12.8636 67.0492 13 67.5909 13.2727C68.1326 13.5417 68.5379 13.9072 68.8068 14.3693C69.0757 14.8276 69.2102 15.3447 69.2102 15.9204C69.2102 16.4053 69.1212 16.8144 68.9432 17.1477C68.7651 17.4773 68.5265 17.7424 68.2273 17.9432C67.9318 18.1401 67.606 18.2841 67.25 18.375V18.4886C67.6363 18.5076 68.0132 18.6326 68.3807 18.8636C68.7519 19.0909 69.0587 19.4148 69.3011 19.8352C69.5435 20.2557 69.6648 20.767 69.6648 21.3693C69.6648 21.964 69.5246 22.4981 69.2443 22.9716C68.9678 23.4413 68.5398 23.8144 67.9602 24.0909C67.3807 24.3636 66.6401 24.5 65.7386 24.5H61.2784ZM63.0341 22.9943H65.5682C66.4091 22.9943 67.0113 22.8314 67.375 22.5057C67.7386 22.1799 67.9204 21.7727 67.9204 21.2841C67.9204 20.9167 67.8276 20.5795 67.642 20.2727C67.4564 19.9659 67.1913 19.7216 66.8466 19.5398C66.5057 19.3579 66.1004 19.267 65.6307 19.267H63.0341V22.9943ZM63.0341 17.8977H65.3863C65.7803 17.8977 66.1345 17.822 66.4488 17.6704C66.767 17.5189 67.0189 17.3068 67.2045 17.0341C67.3939 16.7576 67.4886 16.4318 67.4886 16.0568C67.4886 15.5758 67.3201 15.1723 66.9829 14.8466C66.6458 14.5208 66.1288 14.3579 65.4318 14.3579H63.0341V17.8977ZM77.1392 20.8807V15.7727H78.8437V24.5H77.1733V22.9886H77.0824C76.8816 23.4545 76.5596 23.8428 76.1165 24.1534C75.6771 24.4602 75.1297 24.6136 74.4744 24.6136C73.9138 24.6136 73.4176 24.4905 72.9858 24.2443C72.5577 23.9943 72.2206 23.625 71.9744 23.1364C71.732 22.6477 71.6108 22.0436 71.6108 21.3239V15.7727H73.3096V21.1193C73.3096 21.714 73.4744 22.1875 73.804 22.5398C74.1335 22.892 74.5615 23.0682 75.088 23.0682C75.4062 23.0682 75.7225 22.9886 76.0369 22.8295C76.3551 22.6704 76.6184 22.4299 76.8267 22.1079C77.0388 21.786 77.143 21.3769 77.1392 20.8807ZM81.1264 24.5V15.7727H82.8253V24.5H81.1264ZM81.9844 14.4261C81.6889 14.4261 81.4351 14.3276 81.223 14.1307C81.0147 13.9299 80.9105 13.6913 80.9105 13.4148C80.9105 13.1345 81.0147 12.8958 81.223 12.6989C81.4351 12.4981 81.6889 12.3977 81.9844 12.3977C82.2798 12.3977 82.5317 12.4981 82.74 12.6989C82.9522 12.8958 83.0582 13.1345 83.0582 13.4148C83.0582 13.6913 82.9522 13.9299 82.74 14.1307C82.5317 14.3276 82.2798 14.4261 81.9844 14.4261ZM86.8096 12.8636V24.5H85.1108V12.8636H86.8096ZM93.169 15.7727V17.1364H88.402V15.7727H93.169ZM89.6804 13.6818H91.3792V21.9375C91.3792 22.267 91.4285 22.5151 91.527 22.6818C91.6254 22.8447 91.7523 22.9564 91.9076 23.017C92.0667 23.0739 92.2391 23.1023 92.4247 23.1023C92.5611 23.1023 92.6804 23.0928 92.7826 23.0739C92.8849 23.0549 92.9645 23.0398 93.0213 23.0284L93.3281 24.4318C93.2296 24.4697 93.0895 24.5076 92.9076 24.5454C92.7258 24.5871 92.4986 24.6098 92.2258 24.6136C91.7789 24.6212 91.3622 24.5417 90.9758 24.375C90.5895 24.2083 90.277 23.9508 90.0383 23.6023C89.7997 23.2538 89.6804 22.8163 89.6804 22.2898V13.6818ZM101.175 24.5L98.6065 15.7727H100.362L102.072 22.1818H102.158L103.874 15.7727H105.629L107.334 22.1534H107.419L109.118 15.7727H110.874L108.311 24.5H106.578L104.805 18.1989H104.675L102.902 24.5H101.175ZM112.486 24.5V15.7727H114.185V24.5H112.486ZM113.344 14.4261C113.048 14.4261 112.794 14.3276 112.582 14.1307C112.374 13.9299 112.27 13.6913 112.27 13.4148C112.27 13.1345 112.374 12.8958 112.582 12.6989C112.794 12.4981 113.048 12.3977 113.344 12.3977C113.639 12.3977 113.891 12.4981 114.099 12.6989C114.312 12.8958 114.418 13.1345 114.418 13.4148C114.418 13.6913 114.312 13.9299 114.099 14.1307C113.891 14.3276 113.639 14.4261 113.344 14.4261ZM120.544 15.7727V17.1364H115.777V15.7727H120.544ZM117.055 13.6818H118.754V21.9375C118.754 22.267 118.803 22.5151 118.902 22.6818C119 22.8447 119.127 22.9564 119.283 23.017C119.442 23.0739 119.614 23.1023 119.8 23.1023C119.936 23.1023 120.055 23.0928 120.158 23.0739C120.26 23.0549 120.339 23.0398 120.396 23.0284L120.703 24.4318C120.605 24.4697 120.464 24.5076 120.283 24.5454C120.101 24.5871 119.874 24.6098 119.601 24.6136C119.154 24.6212 118.737 24.5417 118.351 24.375C117.964 24.2083 117.652 23.9508 117.413 23.6023C117.175 23.2538 117.055 22.8163 117.055 22.2898V13.6818ZM124.31 19.3182V24.5H122.611V12.8636H124.287V17.1932H124.395C124.599 16.7235 124.912 16.3504 125.332 16.0739C125.753 15.7973 126.302 15.6591 126.98 15.6591C127.579 15.6591 128.101 15.7822 128.548 16.0284C128.999 16.2746 129.348 16.642 129.594 17.1307C129.844 17.6155 129.969 18.2216 129.969 18.9489V24.5H128.27V19.1534C128.27 18.5133 128.105 18.017 127.776 17.6648C127.446 17.3087 126.988 17.1307 126.401 17.1307C125.999 17.1307 125.639 17.2159 125.321 17.3864C125.007 17.5568 124.758 17.8068 124.577 18.1364C124.399 18.4621 124.31 18.8561 124.31 19.3182Z" fill="#E8E8E8"/>
<path d="M63.6101 43.5H60.3984L64.5699 31.1364H68.5483L72.7198 43.5H69.5081L66.6044 34.2514H66.5078L63.6101 43.5ZM63.1814 38.6342H69.8945V40.9041H63.1814V38.6342ZM81.8642 37.0586L79.1537 37.131C79.1255 36.9378 79.049 36.7668 78.9243 36.6179C78.7995 36.465 78.6365 36.3462 78.4353 36.2617C78.2381 36.1732 78.0087 36.1289 77.747 36.1289C77.405 36.1289 77.1132 36.1973 76.8717 36.3342C76.6342 36.471 76.5175 36.6561 76.5216 36.8895C76.5175 37.0707 76.59 37.2276 76.7389 37.3604C76.8918 37.4932 77.1635 37.5999 77.5539 37.6804L79.3408 38.0185C80.2665 38.1955 80.9547 38.4893 81.4054 38.8998C81.8602 39.3104 82.0896 39.8537 82.0936 40.5298C82.0896 41.1657 81.9005 41.7191 81.5262 42.19C81.1559 42.6609 80.6488 43.0271 80.0049 43.2887C79.3609 43.5463 78.6244 43.6751 77.7953 43.6751C76.4712 43.6751 75.4269 43.4034 74.6622 42.8601C73.9015 42.3127 73.4669 41.5802 73.3582 40.6626L76.274 40.5902C76.3384 40.9283 76.5055 41.1858 76.7751 41.3629C77.0448 41.54 77.3889 41.6285 77.8074 41.6285C78.1857 41.6285 78.4936 41.5581 78.7311 41.4172C78.9685 41.2764 79.0893 41.0892 79.0933 40.8558C79.0893 40.6465 78.9967 40.4795 78.8156 40.3547C78.6345 40.226 78.3507 40.1253 77.9644 40.0529L76.3465 39.745C75.4168 39.576 74.7246 39.2641 74.2698 38.8093C73.815 38.3505 73.5896 37.7669 73.5936 37.0586C73.5896 36.4388 73.7546 35.9096 74.0887 35.4709C74.4227 35.0282 74.8976 34.6901 75.5134 34.4567C76.1292 34.2232 76.8556 34.1065 77.6927 34.1065C78.9484 34.1065 79.9385 34.3701 80.6629 34.8974C81.3873 35.4206 81.7878 36.141 81.8642 37.0586ZM91.6426 37.0586L88.932 37.131C88.9038 36.9378 88.8273 36.7668 88.7026 36.6179C88.5778 36.465 88.4148 36.3462 88.2136 36.2617C88.0164 36.1732 87.787 36.1289 87.5254 36.1289C87.1833 36.1289 86.8915 36.1973 86.65 36.3342C86.4126 36.471 86.2958 36.6561 86.2999 36.8895C86.2958 37.0707 86.3683 37.2276 86.5172 37.3604C86.6701 37.4932 86.9418 37.5999 87.3322 37.6804L89.1191 38.0185C90.0448 38.1955 90.733 38.4893 91.1837 38.8998C91.6385 39.3104 91.8679 39.8537 91.872 40.5298C91.8679 41.1657 91.6788 41.7191 91.3045 42.19C90.9342 42.6609 90.4271 43.0271 89.7832 43.2887C89.1392 43.5463 88.4027 43.6751 87.5737 43.6751C86.2496 43.6751 85.2052 43.4034 84.4405 42.8601C83.6798 42.3127 83.2452 41.5802 83.1365 40.6626L86.0524 40.5902C86.1168 40.9283 86.2838 41.1858 86.5534 41.3629C86.8231 41.54 87.1672 41.6285 87.5857 41.6285C87.9641 41.6285 88.2719 41.5581 88.5094 41.4172C88.7468 41.2764 88.8676 41.0892 88.8716 40.8558C88.8676 40.6465 88.775 40.4795 88.5939 40.3547C88.4128 40.226 88.1291 40.1253 87.7427 40.0529L86.1248 39.745C85.1951 39.576 84.5029 39.2641 84.0481 38.8093C83.5933 38.3505 83.3679 37.7669 83.372 37.0586C83.3679 36.4388 83.5329 35.9096 83.867 35.4709C84.201 35.0282 84.6759 34.6901 85.2917 34.4567C85.9075 34.2232 86.6339 34.1065 87.471 34.1065C88.7267 34.1065 89.7168 34.3701 90.4412 34.8974C91.1656 35.4206 91.5661 36.141 91.6426 37.0586ZM97.6599 43.6751C96.6899 43.6751 95.8528 43.4839 95.1485 43.1016C94.4482 42.7152 93.9089 42.1658 93.5306 41.4535C93.1563 40.7371 92.9692 39.8859 92.9692 38.8998C92.9692 37.942 93.1583 37.1049 93.5366 36.3885C93.915 35.6681 94.4482 35.1087 95.1364 34.7102C95.8246 34.3078 96.6356 34.1065 97.5693 34.1065C98.2293 34.1065 98.833 34.2092 99.3804 34.4144C99.9277 34.6197 100.401 34.9235 100.799 35.326C101.198 35.7284 101.507 36.2255 101.729 36.8171C101.95 37.4047 102.061 38.0788 102.061 38.8395V39.576H94.0015V37.8615H99.314C99.31 37.5476 99.2355 37.2679 99.0906 37.0224C98.9457 36.7769 98.7465 36.5857 98.493 36.4489C98.2434 36.308 97.9557 36.2376 97.6297 36.2376C97.2997 36.2376 97.0039 36.312 96.7423 36.4609C96.4806 36.6058 96.2734 36.805 96.1204 37.0586C95.9675 37.3081 95.887 37.5918 95.879 37.9098V39.6545C95.879 40.0328 95.9534 40.3648 96.1023 40.6506C96.2512 40.9323 96.4625 41.1516 96.7362 41.3086C97.0099 41.4655 97.3359 41.544 97.7142 41.544C97.9758 41.544 98.2132 41.5078 98.4266 41.4354C98.6399 41.3629 98.823 41.2563 98.9759 41.1154C99.1289 40.9745 99.2436 40.8015 99.32 40.5962L102.031 40.6747C101.918 41.2824 101.67 41.8117 101.288 42.2624C100.91 42.7092 100.413 43.0573 99.7969 43.3068C99.1812 43.5523 98.4688 43.6751 97.6599 43.6751ZM103.569 43.5V34.2273H106.376V35.9297H106.478C106.671 35.3662 106.997 34.9215 107.456 34.5955C107.915 34.2695 108.462 34.1065 109.098 34.1065C109.742 34.1065 110.294 34.2715 110.752 34.6016C111.211 34.9316 111.503 35.3743 111.628 35.9297H111.724C111.897 35.3783 112.236 34.9376 112.739 34.6076C113.242 34.2735 113.835 34.1065 114.519 34.1065C115.397 34.1065 116.109 34.3882 116.657 34.9517C117.204 35.5111 117.478 36.2798 117.478 37.2578V43.5H114.526V37.9339C114.526 37.4711 114.407 37.119 114.169 36.8775C113.932 36.632 113.624 36.5092 113.246 36.5092C112.839 36.5092 112.519 36.642 112.286 36.9077C112.056 37.1693 111.942 37.5214 111.942 37.9641V43.5H109.104V37.9038C109.104 37.4731 108.988 37.133 108.754 36.8835C108.521 36.634 108.213 36.5092 107.831 36.5092C107.573 36.5092 107.346 36.5716 107.148 36.6964C106.951 36.8171 106.796 36.9902 106.684 37.2155C106.575 37.4409 106.521 37.7065 106.521 38.0124V43.5H103.569ZM119.307 43.5V31.1364H122.259V35.815H122.319C122.44 35.5333 122.611 35.2616 122.832 35C123.058 34.7384 123.343 34.5251 123.69 34.3601C124.04 34.191 124.458 34.1065 124.945 34.1065C125.589 34.1065 126.191 34.2756 126.75 34.6136C127.314 34.9517 127.769 35.4729 128.115 36.1772C128.461 36.8815 128.634 37.779 128.634 38.8697C128.634 39.9201 128.467 40.7995 128.133 41.5078C127.803 42.2161 127.356 42.7474 126.793 43.1016C126.233 43.4557 125.611 43.6328 124.927 43.6328C124.46 43.6328 124.056 43.5563 123.714 43.4034C123.372 43.2505 123.084 43.0492 122.85 42.7997C122.621 42.5502 122.444 42.2825 122.319 41.9968H122.229V43.5H119.307ZM122.198 38.8636C122.198 39.3627 122.265 39.7973 122.398 40.1676C122.535 40.5379 122.73 40.8256 122.983 41.0309C123.241 41.2321 123.549 41.3327 123.907 41.3327C124.269 41.3327 124.577 41.2321 124.831 41.0309C125.084 40.8256 125.275 40.5379 125.404 40.1676C125.537 39.7973 125.603 39.3627 125.603 38.8636C125.603 38.3646 125.537 37.9319 125.404 37.5657C125.275 37.1994 125.084 36.9157 124.831 36.7145C124.581 36.5132 124.273 36.4126 123.907 36.4126C123.545 36.4126 123.237 36.5112 122.983 36.7084C122.73 36.9056 122.535 37.1874 122.398 37.5536C122.265 37.9199 122.198 38.3565 122.198 38.8636ZM133.133 31.1364V43.5H130.181V31.1364H133.133ZM136.817 46.9773C136.463 46.9773 136.129 46.9491 135.815 46.8927C135.501 46.8404 135.231 46.77 135.006 46.6815L135.658 44.5383C135.948 44.6349 136.209 44.6913 136.443 44.7074C136.68 44.7235 136.883 44.6852 137.052 44.5927C137.225 44.5041 137.358 44.3452 137.451 44.1158L137.565 43.8381L134.269 34.2273H137.36L139.069 40.8437H139.165L140.898 34.2273H144.007L140.512 44.3874C140.342 44.8945 140.103 45.3413 139.793 45.7276C139.487 46.118 139.091 46.4239 138.604 46.6452C138.121 46.8666 137.525 46.9773 136.817 46.9773ZM151.822 34.843C151.781 34.4003 151.602 34.0562 151.284 33.8107C150.97 33.5612 150.522 33.4364 149.938 33.4364C149.552 33.4364 149.23 33.4867 148.972 33.5873C148.715 33.688 148.522 33.8268 148.393 34.0039C148.264 34.177 148.198 34.3762 148.193 34.6016C148.185 34.7867 148.222 34.9497 148.302 35.0905C148.387 35.2314 148.507 35.3562 148.664 35.4648C148.825 35.5695 149.019 35.662 149.244 35.7425C149.469 35.823 149.723 35.8935 150.005 35.9538L151.067 36.1953C151.679 36.3281 152.218 36.5052 152.685 36.7266C153.156 36.9479 153.55 37.2115 153.868 37.5174C154.19 37.8233 154.434 38.1754 154.599 38.5739C154.764 38.9723 154.848 39.419 154.852 39.9141C154.848 40.6948 154.651 41.3649 154.261 41.9243C153.87 42.4838 153.309 42.9124 152.576 43.2102C151.848 43.508 150.968 43.6569 149.938 43.6569C148.904 43.6569 148.002 43.502 147.234 43.1921C146.465 42.8822 145.867 42.4113 145.441 41.7795C145.014 41.1476 144.795 40.3487 144.783 39.3828H147.644C147.668 39.7812 147.775 40.1133 147.964 40.3789C148.153 40.6445 148.413 40.8458 148.743 40.9826C149.077 41.1194 149.463 41.1878 149.902 41.1878C150.304 41.1878 150.647 41.1335 150.928 41.0248C151.214 40.9162 151.433 40.7653 151.586 40.5721C151.739 40.3789 151.818 40.1575 151.822 39.908C151.818 39.6746 151.745 39.4754 151.604 39.3104C151.463 39.1413 151.246 38.9964 150.952 38.8757C150.663 38.7509 150.292 38.6362 149.842 38.5316L148.55 38.2297C147.479 37.9842 146.636 37.5878 146.02 37.0405C145.404 36.4891 145.099 35.7445 145.103 34.8068C145.099 34.0421 145.304 33.372 145.718 32.7965C146.133 32.221 146.706 31.7722 147.439 31.4503C148.171 31.1283 149.006 30.9673 149.944 30.9673C150.902 30.9673 151.733 31.1303 152.437 31.4563C153.146 31.7783 153.695 32.2311 154.086 32.8146C154.476 33.3982 154.675 34.0743 154.683 34.843H151.822ZM160.69 43.6751C159.712 43.6751 158.873 43.4738 158.173 43.0714C157.476 42.6689 156.941 42.1095 156.567 41.3931C156.192 40.6727 156.005 39.8396 156.005 38.8938C156.005 37.944 156.192 37.1109 156.567 36.3945C156.945 35.6741 157.482 35.1127 158.179 34.7102C158.879 34.3078 159.714 34.1065 160.684 34.1065C161.541 34.1065 162.288 34.2615 162.924 34.5714C163.564 34.8813 164.063 35.3199 164.421 35.8874C164.783 36.4509 164.974 37.1129 164.994 37.8736H162.235C162.179 37.3987 162.018 37.0264 161.752 36.7567C161.491 36.4871 161.149 36.3523 160.726 36.3523C160.384 36.3523 160.084 36.4489 159.827 36.642C159.569 36.8312 159.368 37.1129 159.223 37.4872C159.082 37.8575 159.012 38.3163 159.012 38.8636C159.012 39.411 159.082 39.8738 159.223 40.2521C159.368 40.6264 159.569 40.9101 159.827 41.1033C160.084 41.2925 160.384 41.3871 160.726 41.3871C161 41.3871 161.241 41.3287 161.451 41.212C161.664 41.0953 161.839 40.9242 161.976 40.6989C162.113 40.4694 162.199 40.1918 162.235 39.8658H164.994C164.966 40.6304 164.775 41.2985 164.421 41.87C164.071 42.4415 163.578 42.8862 162.942 43.2042C162.31 43.5181 161.559 43.6751 160.69 43.6751ZM166.505 43.5V34.2273H169.373V35.9176H169.469C169.638 35.3059 169.914 34.8511 170.296 34.5533C170.679 34.2514 171.123 34.1005 171.63 34.1005C171.767 34.1005 171.908 34.1105 172.053 34.1307C172.198 34.1468 172.333 34.1729 172.457 34.2092V36.7748C172.317 36.7266 172.131 36.6883 171.902 36.6601C171.677 36.632 171.475 36.6179 171.298 36.6179C170.948 36.6179 170.632 36.6964 170.351 36.8533C170.073 37.0063 169.853 37.2216 169.693 37.4993C169.536 37.773 169.457 38.0949 169.457 38.4652V43.5H166.505ZM173.66 43.5V34.2273H176.612V43.5H173.66ZM175.139 33.1467C174.725 33.1467 174.369 33.0098 174.071 32.7361C173.773 32.4584 173.624 32.1244 173.624 31.734C173.624 31.3476 173.773 31.0176 174.071 30.744C174.369 30.4663 174.725 30.3274 175.139 30.3274C175.558 30.3274 175.914 30.4663 176.208 30.744C176.506 31.0176 176.655 31.3476 176.655 31.734C176.655 32.1244 176.506 32.4584 176.208 32.7361C175.914 33.0098 175.558 33.1467 175.139 33.1467ZM178.491 46.9773V34.2273H181.413V35.815H181.504C181.625 35.5333 181.796 35.2616 182.017 35C182.242 34.7384 182.528 34.5251 182.874 34.3601C183.224 34.191 183.643 34.1065 184.13 34.1065C184.774 34.1065 185.375 34.2756 185.935 34.6136C186.498 34.9517 186.953 35.4729 187.299 36.1772C187.645 36.8815 187.818 37.779 187.818 38.8697C187.818 39.9201 187.651 40.7995 187.317 41.5078C186.987 42.2161 186.541 42.7474 185.977 43.1016C185.418 43.4557 184.796 43.6328 184.112 43.6328C183.645 43.6328 183.24 43.5563 182.898 43.4034C182.556 43.2505 182.268 43.0492 182.035 42.7997C181.806 42.5502 181.629 42.2825 181.504 41.9968H181.443V46.9773H178.491ZM181.383 38.8636C181.383 39.3627 181.449 39.7973 181.582 40.1676C181.719 40.5379 181.914 40.8256 182.168 41.0309C182.425 41.2321 182.733 41.3327 183.091 41.3327C183.454 41.3327 183.762 41.2321 184.015 41.0309C184.269 40.8256 184.46 40.5379 184.589 40.1676C184.721 39.7973 184.788 39.3627 184.788 38.8636C184.788 38.3646 184.721 37.9319 184.589 37.5657C184.46 37.1994 184.269 36.9157 184.015 36.7145C183.766 36.5132 183.458 36.4126 183.091 36.4126C182.729 36.4126 182.421 36.5112 182.168 36.7084C181.914 36.9056 181.719 37.1874 181.582 37.5536C181.449 37.9199 181.383 38.3565 181.383 38.8636ZM194.599 34.2273V36.4006H188.75V34.2273H194.599ZM189.975 32.0057H192.927V40.5842C192.927 40.7653 192.955 40.9122 193.012 41.0248C193.072 41.1335 193.159 41.212 193.271 41.2603C193.384 41.3046 193.519 41.3267 193.676 41.3267C193.788 41.3267 193.907 41.3166 194.032 41.2965C194.161 41.2724 194.257 41.2522 194.322 41.2361L194.768 43.3672C194.628 43.4074 194.428 43.4577 194.171 43.5181C193.917 43.5785 193.613 43.6167 193.259 43.6328C192.567 43.665 191.973 43.5845 191.478 43.3913C190.987 43.1941 190.611 42.8882 190.349 42.4737C190.092 42.0592 189.967 41.538 189.975 40.9101V32.0057Z" fill="#007ACC"/>
</g>
<defs>
<filter id="filter0_d_1_50" x="6.28571" y="2.28571" width="51.4286" height="51.4286" filterUnits="userSpaceOnUse" color-interpolation-filters="sRGB">
<feFlood flood-opacity="0" result="BackgroundImageFix"/>
<feColorMatrix in="SourceAlpha" type="matrix" values="0 0 0 0 0 0 0 0 0 0 0 0 0 0 0 0 0 0 127 0" result="hardAlpha"/>
<feOffset/>
<feGaussianBlur stdDeviation="2.85714"/>
<feComposite in2="hardAlpha" operator="out"/>
<feColorMatrix type="matrix" values="0 0 0 0 0 0 0 0 0 0 0 0 0 0 0 0 0 0 0.25 0"/>
<feBlend mode="normal" in2="BackgroundImageFix" result="effect1_dropShadow_1_50"/>
<feBlend mode="normal" in="SourceGraphic" in2="effect1_dropShadow_1_50" result="shape"/>
</filter>
<filter id="filter1_d_1_50" x="54.4" y="3.9" width="147.2" height="48.6773" filterUnits="userSpaceOnUse" color-interpolation-filters="sRGB">
<feFlood flood-opacity="0" result="BackgroundImageFix"/>
<feColorMatrix in="SourceAlpha" type="matrix" values="0 0 0 0 0 0 0 0 0 0 0 0 0 0 0 0 0 0 127 0" result="hardAlpha"/>
<feOffset/>
<feGaussianBlur stdDeviation="2.8"/>
<feComposite in2="hardAlpha" operator="out"/>
<feColorMatrix type="matrix" values="0 0 0 0 0 0 0 0 0 0 0 0 0 0 0 0 0 0 0.25 0"/>
<feBlend mode="normal" in2="BackgroundImageFix" result="effect1_dropShadow_1_50"/>
<feBlend mode="normal" in="SourceGraphic" in2="effect1_dropShadow_1_50" result="shape"/>
</filter>
<linearGradient id="paint0_linear_1_50" x1="104" y1="0" x2="104" y2="56" gradientUnits="userSpaceOnUse">
<stop stop-color="#003152"/>
<stop offset="1" stop-color="#001829"/>
</linearGradient>
</defs>
</svg>
