<svg width="56" height="56" viewBox="0 0 56 56" fill="none" xmlns="http://www.w3.org/2000/svg">
<rect width="56" height="56" rx="8.4" fill="url(#paint0_linear_1_62)"/>
<rect x="1.05" y="1.05" width="53.9" height="53.9" rx="7.35" stroke="white" stroke-opacity="0.15" stroke-width="2.1"/>
<g filter="url(#filter0_d_1_62)">
<path d="M8 8V48H48V8H32.625C32.625 10.3437 30.8906 12.6875 28.0312 12.6875C27.4167 12.6918 26.8075 12.5731 26.2394 12.3384C25.6714 12.1038 25.1561 11.7579 24.7237 11.3211C24.2913 10.8844 23.9506 10.3656 23.7217 9.79522C23.4928 9.22487 23.3802 8.61449 23.3906 8L8 8Z" fill="#007ACC"/>
<path d="M23.6797 26.298H23.9961L32.2002 44.3945H28.3223L27.4783 42.3633H20.1973L19.3533 44.3945H15.792L23.6797 26.298ZM26.1594 39.2769L24.8666 36.1641C24.7259 35.8123 24.5941 35.4606 24.4709 35.1089C24.3478 34.7571 24.2335 34.4142 24.128 34.08C24.0048 33.6931 23.8905 33.315 23.785 32.9456C23.662 33.3854 23.5477 33.7724 23.4422 34.1066C23.3367 34.4406 23.2223 34.8011 23.0992 35.188C22.9761 35.5573 22.853 35.8827 22.7298 36.1641L21.4372 39.2769H26.1594ZM38.5509 44.632C37.6892 44.632 36.9066 44.5353 36.2031 44.3419C35.4997 44.1483 34.8666 43.8845 34.3037 43.5505C33.741 43.2163 33.2486 42.8206 32.8266 42.3633C32.4221 41.8885 32.0879 41.3873 31.8241 40.8597L34.8314 39.1186C35.2359 39.7693 35.7107 40.3057 36.2559 40.7278C36.8186 41.1499 37.5572 41.3609 38.4717 41.3609C39.2456 41.3609 39.8523 41.1939 40.292 40.8597C40.7493 40.5079 40.978 40.0682 40.978 39.5406C40.978 38.9076 40.7405 38.4328 40.2655 38.1162C39.7907 37.7996 39.1312 37.4566 38.2872 37.0873L37.3637 36.6917C36.6955 36.4103 36.0888 36.1024 35.5436 35.7683C34.9984 35.4342 34.5323 35.0473 34.1455 34.6077C33.7586 34.1681 33.4596 33.6669 33.2486 33.1041C33.0376 32.5412 32.932 31.8817 32.932 31.1255C32.932 30.4396 33.0552 29.7978 33.3014 29.1998C33.5652 28.6019 33.9257 28.0831 34.383 27.6434C34.8578 27.2039 35.4293 26.8609 36.0977 26.6145C36.7659 26.3684 37.5133 26.2453 38.3398 26.2453C39.5182 26.2453 40.5294 26.474 41.3736 26.9312C42.2353 27.3708 42.9739 28.127 43.5895 29.1998L40.7141 31.0464C40.3975 30.4836 40.0546 30.0791 39.6853 29.833C39.3159 29.5867 38.8675 29.4636 38.34 29.4636C37.7948 29.4636 37.3639 29.6131 37.0473 29.912C36.7307 30.211 36.5723 30.5891 36.5723 31.0464C36.5723 31.6092 36.7482 32.0401 37.1 32.3391C37.4694 32.6204 38.0497 32.937 38.8411 33.2887L39.7645 33.6844C40.5558 34.0185 41.2504 34.3703 41.8484 34.7395C42.464 35.0913 42.974 35.4958 43.3784 35.953C43.8005 36.3927 44.1171 36.9027 44.3281 37.4831C44.5568 38.0458 44.6711 38.7141 44.6711 39.4878C44.6711 40.3145 44.5128 41.0532 44.1961 41.7039C43.8971 42.3369 43.4751 42.8733 42.93 43.313C42.3848 43.7527 41.7341 44.0868 40.9778 44.3155C40.2393 44.5265 39.4303 44.632 38.5509 44.632Z" fill="white"/>
</g>
<defs>
<filter id="filter0_d_1_62" x="2.28571" y="2.28571" width="51.4286" height="51.4286" filterUnits="userSpaceOnUse" color-interpolation-filters="sRGB">
<feFlood flood-opacity="0" result="BackgroundImageFix"/>
<feColorMatrix in="SourceAlpha" type="matrix" values="0 0 0 0 0 0 0 0 0 0 0 0 0 0 0 0 0 0 127 0" result="hardAlpha"/>
<feOffset/>
<feGaussianBlur stdDeviation="2.85714"/>
<feComposite in2="hardAlpha" operator="out"/>
<feColorMatrix type="matrix" values="0 0 0 0 0 0 0 0 0 0 0 0 0 0 0 0 0 0 0.25 0"/>
<feBlend mode="normal" in2="BackgroundImageFix" result="effect1_dropShadow_1_62"/>
<feBlend mode="normal" in="SourceGraphic" in2="effect1_dropShadow_1_62" result="shape"/>
</filter>
<linearGradient id="paint0_linear_1_62" x1="28" y1="0" x2="28" y2="56" gradientUnits="userSpaceOnUse">
<stop stop-color="#003152"/>
<stop offset="1" stop-color="#001829"/>
</linearGradient>
</defs>
</svg>
