<svg width="321" height="40" viewBox="0 0 321 40" fill="none" xmlns="http://www.w3.org/2000/svg">
<rect width="321.001" height="40.0014" rx="8" fill="url(#paint0_linear_1_56)"/>
<rect x="1.07143" y="1.07143" width="318.858" height="37.8585" rx="6.92857" stroke="white" stroke-opacity="0.15" stroke-width="2.14286"/>
<g filter="url(#filter0_d_1_56)">
<g filter="url(#filter1_d_1_56)">
<path d="M22.0009 6.50087C14.2663 6.50087 8.00002 12.7008 8.00002 20.3418C8.00002 26.4604 12.0113 31.6464 17.5705 33.476C18.2732 33.6066 18.5269 33.1784 18.5269 32.8082C18.5269 32.4795 18.519 31.6101 18.5138 30.4561C14.6172 31.29 13.7964 28.5953 13.7964 28.5953C13.1585 27.0002 12.2379 26.572 12.2379 26.572C10.9708 25.7164 12.3385 25.7346 12.3385 25.7346C13.7421 25.8289 14.4807 27.1576 14.4807 27.1576C15.7294 29.2753 17.7569 28.6628 18.5593 28.3064C18.6818 27.4145 19.0467 26.8012 19.444 26.4595C16.3358 26.1126 13.0675 24.9232 13.0675 19.6195C13.0675 18.1048 13.61 16.8712 14.5069 15.9023C14.352 15.5554 13.8778 14.1454 14.6303 12.2388C14.6303 12.2388 15.802 11.8694 18.4805 13.6584C19.6015 13.3513 20.7916 13.1982 21.9808 13.1904C23.1708 13.1982 24.36 13.3521 25.481 13.6584C28.1438 11.8694 29.3146 12.2388 29.3146 12.2388C30.0663 14.1454 29.592 15.5546 29.4555 15.9023C30.3437 16.8712 30.8862 18.1056 30.8862 19.6195C30.8862 24.9353 27.6135 26.1074 24.5018 26.4457C24.9883 26.86 25.4442 27.7121 25.4442 29.0054C25.4442 30.8566 25.4267 32.348 25.4267 32.7987C25.4267 33.1585 25.6717 33.5911 26.3928 33.4518C31.9931 31.6412 36 26.4509 36 20.341C36 12.6999 29.7337 6.50001 21.9991 6.50001L22.0009 6.50087Z" fill="white"/>
</g>
</g>
<g filter="url(#filter2_d_1_56)">
<path d="M44.4041 26.5007H42.424L46.8732 14.1371H49.0284L53.4776 26.5007H51.4975L48.0021 16.3828H47.9055L44.4041 26.5007ZM44.7361 21.6591H51.1594V23.2287H44.7361V21.6591ZM61.8886 17.228L58.526 26.5007H56.5942L53.2256 17.228H55.1634L57.5118 24.3636H57.6084L59.9507 17.228H61.8886ZM66.0178 26.706C65.4302 26.706 64.899 26.5973 64.4241 26.38C63.9492 26.1586 63.5729 25.8386 63.2952 25.4201C63.0215 25.0015 62.8846 24.4884 62.8846 23.8807C62.8846 23.3575 62.9853 22.9268 63.1865 22.5888C63.3877 22.2507 63.6594 21.9831 64.0015 21.7859C64.3436 21.5886 64.7259 21.4397 65.1485 21.3391C65.5711 21.2385 66.0017 21.162 66.4404 21.1097C66.9958 21.0453 67.4466 20.993 67.7927 20.9528C68.1388 20.9085 68.3903 20.8381 68.5473 20.7415C68.7042 20.6449 68.7827 20.4879 68.7827 20.2706V20.2283C68.7827 19.7011 68.6338 19.2926 68.336 19.0028C68.0422 18.7131 67.6035 18.5682 67.0199 18.5682C66.4122 18.5682 65.9333 18.703 65.5832 18.9726C65.237 19.2383 64.9976 19.5341 64.8648 19.8601L63.1684 19.4737C63.3696 18.9103 63.6634 18.4555 64.0498 18.1094C64.4402 17.7592 64.8889 17.5057 65.396 17.3487C65.9031 17.1877 66.4364 17.1072 66.9958 17.1072C67.3661 17.1072 67.7585 17.1515 68.173 17.24C68.5916 17.3246 68.9819 17.4815 69.3442 17.7109C69.7104 17.9403 70.0102 18.2683 70.2437 18.6949C70.4771 19.1175 70.5938 19.6669 70.5938 20.343V26.5007H68.831V25.2329H68.7586C68.6419 25.4664 68.4668 25.6958 68.2334 25.9212C67.9999 26.1465 67.7001 26.3337 67.3339 26.4826C66.9676 26.6315 66.5289 26.706 66.0178 26.706ZM66.4102 25.2571C66.9093 25.2571 67.3359 25.1585 67.69 24.9613C68.0482 24.7641 68.3199 24.5065 68.505 24.1886C68.6942 23.8666 68.7888 23.5225 68.7888 23.1562V21.9609C68.7244 22.0253 68.5996 22.0857 68.4145 22.142C68.2334 22.1944 68.0261 22.2406 67.7927 22.2809C67.5592 22.3171 67.3319 22.3513 67.1105 22.3835C66.8891 22.4117 66.704 22.4358 66.5551 22.456C66.205 22.5002 65.885 22.5747 65.5952 22.6793C65.3095 22.784 65.0801 22.9349 64.907 23.1321C64.738 23.3253 64.6535 23.5828 64.6535 23.9048C64.6535 24.3515 64.8185 24.6896 65.1485 24.919C65.4785 25.1444 65.8991 25.2571 66.4102 25.2571ZM72.998 26.5007V17.228H74.8031V26.5007H72.998ZM73.9096 15.7972C73.5957 15.7972 73.326 15.6926 73.1006 15.4833C72.8793 15.27 72.7686 15.0164 72.7686 14.7226C72.7686 14.4248 72.8793 14.1713 73.1006 13.962C73.326 13.7487 73.5957 13.642 73.9096 13.642C74.2235 13.642 74.4911 13.7487 74.7125 13.962C74.9379 14.1713 75.0506 14.4248 75.0506 14.7226C75.0506 15.0164 74.9379 15.27 74.7125 15.4833C74.4911 15.6926 74.2235 15.7972 73.9096 15.7972ZM79.0365 14.1371V26.5007H77.2314V14.1371H79.0365ZM84.1633 26.706C83.5757 26.706 83.0445 26.5973 82.5696 26.38C82.0947 26.1586 81.7184 25.8386 81.4407 25.4201C81.167 25.0015 81.0301 24.4884 81.0301 23.8807C81.0301 23.3575 81.1308 22.9268 81.332 22.5888C81.5332 22.2507 81.8049 21.9831 82.147 21.7859C82.4891 21.5886 82.8714 21.4397 83.294 21.3391C83.7166 21.2385 84.1472 21.162 84.5859 21.1097C85.1413 21.0453 85.5921 20.993 85.9382 20.9528C86.2843 20.9085 86.5358 20.8381 86.6928 20.7415C86.8497 20.6449 86.9282 20.4879 86.9282 20.2706V20.2283C86.9282 19.7011 86.7793 19.2926 86.4815 19.0028C86.1877 18.7131 85.749 18.5682 85.1654 18.5682C84.5577 18.5682 84.0788 18.703 83.7287 18.9726C83.3825 19.2383 83.1431 19.5341 83.0103 19.8601L81.3139 19.4737C81.5151 18.9103 81.8089 18.4555 82.1953 18.1094C82.5857 17.7592 83.0344 17.5057 83.5415 17.3487C84.0486 17.1877 84.5819 17.1072 85.1413 17.1072C85.5116 17.1072 85.904 17.1515 86.3185 17.24C86.7371 17.3246 87.1274 17.4815 87.4897 17.7109C87.8559 17.9403 88.1557 18.2683 88.3892 18.6949C88.6226 19.1175 88.7393 19.6669 88.7393 20.343V26.5007H86.9765V25.2329H86.9041C86.7874 25.4664 86.6123 25.6958 86.3789 25.9212C86.1454 26.1465 85.8456 26.3337 85.4794 26.4826C85.1131 26.6315 84.6744 26.706 84.1633 26.706ZM84.5557 25.2571C85.0548 25.2571 85.4814 25.1585 85.8355 24.9613C86.1937 24.7641 86.4654 24.5065 86.6505 24.1886C86.8397 23.8666 86.9343 23.5225 86.9343 23.1562V21.9609C86.8699 22.0253 86.7451 22.0857 86.56 22.142C86.3789 22.1944 86.1716 22.2406 85.9382 22.2809C85.7047 22.3171 85.4774 22.3513 85.256 22.3835C85.0346 22.4117 84.8495 22.4358 84.7006 22.456C84.3505 22.5002 84.0305 22.5747 83.7407 22.6793C83.455 22.784 83.2256 22.9349 83.0525 23.1321C82.8835 23.3253 82.799 23.5828 82.799 23.9048C82.799 24.3515 82.964 24.6896 83.294 24.919C83.624 25.1444 84.0446 25.2571 84.5557 25.2571ZM91.2884 26.5007V14.1371H93.0934V18.7312H93.2021C93.3067 18.538 93.4577 18.3146 93.6549 18.0611C93.8521 17.8075 94.1258 17.5862 94.4759 17.397C94.826 17.2038 95.2889 17.1072 95.8644 17.1072C96.613 17.1072 97.2811 17.2964 97.8687 17.6747C98.4563 18.053 98.9171 18.5984 99.2511 19.3107C99.5892 20.0231 99.7582 20.8803 99.7582 21.8824C99.7582 22.8846 99.5912 23.7438 99.2571 24.4602C98.9231 25.1726 98.4643 25.7219 97.8807 26.1083C97.2972 26.4906 96.6311 26.6818 95.8825 26.6818C95.3191 26.6818 94.8582 26.5872 94.5 26.3981C94.1459 26.2089 93.8682 25.9876 93.667 25.734C93.4657 25.4805 93.3108 25.2551 93.2021 25.0579H93.0512V26.5007H91.2884ZM93.0572 21.8643C93.0572 22.5163 93.1518 23.0878 93.341 23.5788C93.5301 24.0698 93.8038 24.4542 94.162 24.7319C94.5202 25.0056 94.9589 25.1424 95.478 25.1424C96.0173 25.1424 96.4681 24.9995 96.8303 24.7138C97.1925 24.424 97.4662 24.0316 97.6513 23.5366C97.8405 23.0415 97.9351 22.4841 97.9351 21.8643C97.9351 21.2526 97.8425 20.7032 97.6574 20.2163C97.4763 19.7293 97.2026 19.3449 96.8363 19.0632C96.4741 18.7815 96.0214 18.6406 95.478 18.6406C94.9548 18.6406 94.5121 18.7754 94.1499 19.0451C93.7917 19.3147 93.5201 19.691 93.3349 20.174C93.1498 20.6569 93.0572 21.2204 93.0572 21.8643ZM103.59 14.1371V26.5007H101.785V14.1371H103.59ZM110.015 26.6878C109.101 26.6878 108.315 26.4926 107.655 26.1023C106.999 25.7078 106.491 25.1545 106.133 24.4421C105.779 23.7257 105.602 22.8866 105.602 21.9247C105.602 20.9749 105.779 20.1378 106.133 19.4133C106.491 18.6889 106.99 18.1234 107.63 17.717C108.274 17.3105 109.027 17.1072 109.888 17.1072C110.411 17.1072 110.918 17.1938 111.409 17.3668C111.9 17.5399 112.341 17.8115 112.732 18.1818C113.122 18.5521 113.43 19.033 113.655 19.6246C113.881 20.2122 113.993 20.9266 113.993 21.7677V22.4077H106.622V21.0554H112.224C112.224 20.5805 112.128 20.1599 111.935 19.7937C111.742 19.4234 111.47 19.1316 111.12 18.9183C110.774 18.705 110.367 18.5984 109.9 18.5984C109.393 18.5984 108.95 18.7231 108.572 18.9726C108.198 19.2181 107.908 19.5401 107.703 19.9386C107.502 20.333 107.401 20.7616 107.401 21.2244V22.2809C107.401 22.9007 107.51 23.4279 107.727 23.8626C107.948 24.2972 108.256 24.6292 108.651 24.8587C109.045 25.084 109.506 25.1967 110.033 25.1967C110.375 25.1967 110.687 25.1484 110.969 25.0518C111.251 24.9512 111.494 24.8023 111.699 24.6051C111.905 24.4079 112.061 24.1644 112.17 23.8746L113.879 24.1825C113.742 24.6856 113.496 25.1263 113.142 25.5046C112.792 25.8789 112.351 26.1707 111.82 26.38C111.293 26.5852 110.691 26.6878 110.015 26.6878ZM124.401 26.6878C123.532 26.6878 122.773 26.4886 122.125 26.0902C121.477 25.6917 120.974 25.1343 120.616 24.418C120.258 23.7016 120.079 22.8645 120.079 21.9066C120.079 20.9447 120.258 20.1036 120.616 19.3832C120.974 18.6627 121.477 18.1033 122.125 17.7049C122.773 17.3065 123.532 17.1072 124.401 17.1072C125.27 17.1072 126.029 17.3065 126.677 17.7049C127.325 18.1033 127.828 18.6627 128.186 19.3832C128.544 20.1036 128.723 20.9447 128.723 21.9066C128.723 22.8645 128.544 23.7016 128.186 24.418C127.828 25.1343 127.325 25.6917 126.677 26.0902C126.029 26.4886 125.27 26.6878 124.401 26.6878ZM124.407 25.1726C124.97 25.1726 125.437 25.0237 125.808 24.7258C126.178 24.428 126.452 24.0316 126.629 23.5366C126.81 23.0415 126.9 22.4962 126.9 21.9006C126.9 21.3089 126.81 20.7656 126.629 20.2706C126.452 19.7715 126.178 19.3711 125.808 19.0692C125.437 18.7674 124.97 18.6165 124.407 18.6165C123.84 18.6165 123.369 18.7674 122.994 19.0692C122.624 19.3711 122.348 19.7715 122.167 20.2706C121.99 20.7656 121.902 21.3089 121.902 21.9006C121.902 22.4962 121.99 23.0415 122.167 23.5366C122.348 24.0316 122.624 24.428 122.994 24.7258C123.369 25.0237 123.84 25.1726 124.407 25.1726ZM132.543 20.995V26.5007H130.738V17.228H132.471V18.7372H132.586C132.799 18.2462 133.133 17.8518 133.588 17.554C134.046 17.2561 134.624 17.1072 135.32 17.1072C135.952 17.1072 136.506 17.24 136.98 17.5057C137.455 17.7673 137.824 18.1577 138.085 18.6768C138.347 19.196 138.478 19.8379 138.478 20.6026V26.5007H136.673V20.8199C136.673 20.1478 136.497 19.6226 136.147 19.2443C135.797 18.862 135.316 18.6708 134.704 18.6708C134.286 18.6708 133.914 18.7614 133.588 18.9425C133.266 19.1236 133.01 19.3892 132.821 19.7393C132.636 20.0855 132.543 20.504 132.543 20.995Z" fill="#E8E8E8"/>
<path d="M153.051 17.6758C152.982 17.4222 152.882 17.1989 152.749 17.0057C152.616 16.8085 152.453 16.6414 152.26 16.5046C152.067 16.3678 151.845 16.2651 151.596 16.1967C151.346 16.1243 151.073 16.0881 150.775 16.0881C150.175 16.0881 149.656 16.2329 149.217 16.5227C148.783 16.8125 148.447 17.2351 148.209 17.7905C147.972 18.3418 147.853 19.0119 147.853 19.8008C147.853 20.5936 147.968 21.2698 148.197 21.8292C148.426 22.3886 148.758 22.8152 149.193 23.109C149.628 23.4028 150.155 23.5497 150.775 23.5497C151.322 23.5497 151.785 23.4612 152.163 23.2841C152.546 23.103 152.835 22.8474 153.033 22.5174C153.23 22.1874 153.328 21.799 153.328 21.3523L153.884 21.4187H150.877V19.2393H156.208V20.8753C156.208 21.9821 155.973 22.9299 155.502 23.7187C155.035 24.5076 154.391 25.1133 153.57 25.5359C152.753 25.9584 151.813 26.1697 150.751 26.1697C149.571 26.1697 148.535 25.9142 147.642 25.403C146.748 24.8919 146.052 24.1635 145.553 23.2177C145.054 22.2679 144.804 21.141 144.804 19.837C144.804 18.8228 144.955 17.9233 145.257 17.1385C145.559 16.3497 145.979 15.6816 146.519 15.1342C147.062 14.5869 147.69 14.1723 148.402 13.8906C149.119 13.6089 149.889 13.468 150.714 13.468C151.431 13.468 152.097 13.5707 152.713 13.7759C153.332 13.9812 153.88 14.2709 154.355 14.6452C154.834 15.0195 155.222 15.4642 155.52 15.9794C155.818 16.4945 156.003 17.06 156.075 17.6758H153.051ZM158.55 26.0007V16.728H161.502V26.0007H158.55ZM160.029 15.6474C159.615 15.6474 159.259 15.5105 158.961 15.2369C158.663 14.9592 158.514 14.6251 158.514 14.2347C158.514 13.8484 158.663 13.5183 158.961 13.2447C159.259 12.967 159.615 12.8281 160.029 12.8281C160.448 12.8281 160.804 12.967 161.098 13.2447C161.396 13.5183 161.545 13.8484 161.545 14.2347C161.545 14.6251 161.396 14.9592 161.098 15.2369C160.804 15.5105 160.448 15.6474 160.029 15.6474ZM168.615 16.728V18.9013H162.766V16.728H168.615ZM163.991 14.5064H166.943V23.0849C166.943 23.266 166.971 23.4129 167.028 23.5256C167.088 23.6342 167.175 23.7127 167.287 23.761C167.4 23.8053 167.535 23.8274 167.692 23.8274C167.804 23.8274 167.923 23.8173 168.048 23.7972C168.177 23.7731 168.273 23.7529 168.338 23.7368L168.784 25.8679C168.644 25.9081 168.444 25.9584 168.187 26.0188C167.933 26.0792 167.629 26.1174 167.275 26.1335C166.583 26.1657 165.989 26.0852 165.494 25.892C165.003 25.6948 164.627 25.389 164.365 24.9744C164.108 24.5599 163.983 24.0387 163.991 23.4109V14.5064ZM170.321 26.0007V13.6371H173.309V18.5994H178.181V13.6371H181.163V26.0007H178.181V21.0323H173.309V26.0007H170.321ZM189.02 21.9982V16.728H191.966V26.0007H189.153V24.2741H189.056C188.851 24.8416 188.501 25.2924 188.006 25.6264C187.515 25.9564 186.921 26.1214 186.225 26.1214C185.593 26.1214 185.038 25.9765 184.559 25.6868C184.08 25.397 183.708 24.9925 183.442 24.4734C183.177 23.9502 183.042 23.3384 183.038 22.6381V16.728H185.99V22.0586C185.994 22.5617 186.127 22.9581 186.388 23.2479C186.65 23.5376 187.006 23.6825 187.457 23.6825C187.751 23.6825 188.014 23.6181 188.248 23.4893C188.485 23.3565 188.672 23.1654 188.809 22.9158C188.95 22.6623 189.02 22.3564 189.02 21.9982ZM193.845 26.0007V13.6371H196.797V18.3157H196.858C196.978 18.034 197.149 17.7623 197.371 17.5007C197.596 17.2391 197.882 17.0258 198.228 16.8608C198.578 16.6918 198.997 16.6072 199.484 16.6072C200.128 16.6072 200.729 16.7763 201.289 17.1143C201.852 17.4524 202.307 17.9736 202.653 18.6779C202.999 19.3822 203.172 20.2797 203.172 21.3704C203.172 22.4208 203.005 23.3002 202.671 24.0085C202.341 24.7168 201.895 25.2481 201.331 25.6023C200.772 25.9564 200.15 26.1335 199.466 26.1335C198.999 26.1335 198.594 26.057 198.252 25.9041C197.91 25.7512 197.622 25.5499 197.389 25.3004C197.16 25.0509 196.982 24.7832 196.858 24.4975H196.767V26.0007H193.845ZM196.737 21.3643C196.737 21.8634 196.803 22.298 196.936 22.6683C197.073 23.0386 197.268 23.3263 197.522 23.5316C197.779 23.7328 198.087 23.8334 198.445 23.8334C198.808 23.8334 199.116 23.7328 199.369 23.5316C199.623 23.3263 199.814 23.0386 199.943 22.6683C200.075 22.298 200.142 21.8634 200.142 21.3643C200.142 20.8653 200.075 20.4326 199.943 20.0664C199.814 19.7002 199.623 19.4164 199.369 19.2152C199.12 19.014 198.812 18.9133 198.445 18.9133C198.083 18.9133 197.775 19.0119 197.522 19.2092C197.268 19.4064 197.073 19.6881 196.936 20.0543C196.803 20.4206 196.737 20.8572 196.737 21.3643ZM208.372 13.6371H212.072L215.211 21.2919H215.356L218.496 13.6371H222.196V26.0007H219.286V18.4062H219.184L216.214 25.9222H214.354L211.384 18.364H211.281V26.0007H208.372V13.6371ZM226.674 26.1577C226.082 26.1577 225.557 26.0591 225.098 25.8618C224.644 25.6606 224.283 25.3588 224.018 24.9563C223.756 24.5498 223.625 24.0407 223.625 23.429C223.625 22.9138 223.716 22.4792 223.897 22.125C224.078 21.7708 224.328 21.4831 224.646 21.2617C224.964 21.0404 225.33 20.8733 225.744 20.7606C226.159 20.6439 226.602 20.5654 227.073 20.5252C227.6 20.4769 228.024 20.4266 228.346 20.3743C228.668 20.3179 228.902 20.2395 229.047 20.1388C229.196 20.0342 229.27 19.8873 229.27 19.6981V19.668C229.27 19.3581 229.163 19.1186 228.95 18.9496C228.737 18.7805 228.449 18.696 228.087 18.696C227.696 18.696 227.382 18.7805 227.145 18.9496C226.908 19.1186 226.757 19.352 226.692 19.6498L223.97 19.5533C224.05 18.9898 224.257 18.4867 224.591 18.044C224.929 17.5973 225.392 17.2471 225.98 16.9936C226.571 16.736 227.282 16.6072 228.111 16.6072C228.703 16.6072 229.248 16.6777 229.747 16.8185C230.246 16.9554 230.681 17.1566 231.051 17.4222C231.421 17.6838 231.707 18.0058 231.908 18.3881C232.113 18.7705 232.216 19.2071 232.216 19.6981V26.0007H229.439V24.7088H229.367C229.202 25.0227 228.99 25.2883 228.733 25.5057C228.479 25.723 228.179 25.886 227.833 25.9947C227.491 26.1033 227.105 26.1577 226.674 26.1577ZM227.586 24.2258C227.904 24.2258 228.189 24.1614 228.443 24.0327C228.701 23.9039 228.906 23.7268 229.059 23.5014C229.212 23.272 229.288 23.0064 229.288 22.7045V21.8231C229.204 21.8674 229.101 21.9077 228.98 21.9439C228.864 21.9801 228.735 22.0143 228.594 22.0465C228.453 22.0787 228.308 22.1069 228.159 22.131C228.01 22.1552 227.867 22.1773 227.731 22.1974C227.453 22.2417 227.215 22.3101 227.018 22.4027C226.825 22.4953 226.676 22.616 226.571 22.7649C226.471 22.9098 226.421 23.0828 226.421 23.2841C226.421 23.59 226.529 23.8234 226.747 23.9844C226.968 24.1453 227.248 24.2258 227.586 24.2258ZM234.021 26.0007V16.728H236.889V18.4183H236.985C237.154 17.8066 237.43 17.3518 237.812 17.054C238.195 16.7521 238.639 16.6012 239.146 16.6012C239.283 16.6012 239.424 16.6113 239.569 16.6314C239.714 16.6475 239.849 16.6736 239.973 16.7099V19.2756C239.833 19.2273 239.647 19.189 239.418 19.1609C239.193 19.1327 238.991 19.1186 238.814 19.1186C238.464 19.1186 238.148 19.1971 237.867 19.354C237.589 19.507 237.37 19.7223 237.209 20C237.052 20.2737 236.973 20.5956 236.973 20.9659V26.0007H234.021ZM243.839 23.5678L243.851 20.0483H244.261L246.869 16.728H250.214L246.338 21.4851H245.559L243.839 23.5678ZM241.176 26.0007V13.6371H244.128V26.0007H241.176ZM246.936 26.0007L244.509 22.1491L246.453 20.0543L250.346 26.0007H246.936ZM255.223 26.1758C254.253 26.1758 253.416 25.9846 252.711 25.6023C252.011 25.2159 251.472 24.6665 251.093 23.9542C250.719 23.2378 250.532 22.3866 250.532 21.4006C250.532 20.4427 250.721 19.6056 251.1 18.8892C251.478 18.1688 252.011 17.6094 252.699 17.2109C253.388 16.8085 254.198 16.6072 255.132 16.6072C255.792 16.6072 256.396 16.7099 256.943 16.9151C257.491 17.1204 257.964 17.4242 258.362 17.8267C258.76 18.2292 259.07 18.7262 259.292 19.3178C259.513 19.9054 259.624 20.5795 259.624 21.3402V22.0767H251.564V20.3622H256.877C256.873 20.0483 256.798 19.7686 256.654 19.5231C256.509 19.2776 256.309 19.0864 256.056 18.9496C255.806 18.8087 255.519 18.7383 255.193 18.7383C254.863 18.7383 254.567 18.8127 254.305 18.9616C254.044 19.1065 253.836 19.3057 253.683 19.5593C253.53 19.8088 253.45 20.0926 253.442 20.4105V22.1552C253.442 22.5335 253.516 22.8655 253.665 23.1513C253.814 23.433 254.025 23.6523 254.299 23.8093C254.573 23.9663 254.899 24.0447 255.277 24.0447C255.539 24.0447 255.776 24.0085 255.989 23.9361C256.203 23.8636 256.386 23.757 256.539 23.6161C256.692 23.4752 256.806 23.3022 256.883 23.0969L259.593 23.1754C259.481 23.7831 259.233 24.3124 258.851 24.7631C258.473 25.2099 257.976 25.558 257.36 25.8075C256.744 26.053 256.032 26.1758 255.223 26.1758ZM266.365 16.728V18.9013H260.516V16.728H266.365ZM261.741 14.5064H264.693V23.0849C264.693 23.266 264.721 23.4129 264.778 23.5256C264.838 23.6342 264.925 23.7127 265.037 23.761C265.15 23.8053 265.285 23.8274 265.442 23.8274C265.554 23.8274 265.673 23.8173 265.798 23.7972C265.927 23.7731 266.023 23.7529 266.088 23.7368L266.534 25.8679C266.394 25.9081 266.194 25.9584 265.937 26.0188C265.683 26.0792 265.379 26.1174 265.025 26.1335C264.333 26.1657 263.739 26.0852 263.244 25.892C262.753 25.6948 262.377 25.389 262.115 24.9744C261.858 24.5599 261.733 24.0387 261.741 23.4109V14.5064ZM267.872 29.478V16.728H270.794V18.3157H270.884C271.005 18.034 271.176 17.7623 271.397 17.5007C271.623 17.2391 271.908 17.0258 272.254 16.8608C272.605 16.6918 273.023 16.6072 273.51 16.6072C274.154 16.6072 274.756 16.7763 275.315 17.1143C275.879 17.4524 276.333 17.9736 276.68 18.6779C277.026 19.3822 277.199 20.2797 277.199 21.3704C277.199 22.4208 277.032 23.3002 276.698 24.0085C276.368 24.7168 275.921 25.2481 275.357 25.6023C274.798 25.9564 274.176 26.1335 273.492 26.1335C273.025 26.1335 272.621 26.057 272.279 25.9041C271.936 25.7512 271.649 25.5499 271.415 25.3004C271.186 25.0509 271.009 24.7832 270.884 24.4975H270.824V29.478H267.872ZM270.763 21.3643C270.763 21.8634 270.83 22.298 270.963 22.6683C271.099 23.0386 271.295 23.3263 271.548 23.5316C271.806 23.7328 272.114 23.8334 272.472 23.8334C272.834 23.8334 273.142 23.7328 273.395 23.5316C273.649 23.3263 273.84 23.0386 273.969 22.6683C274.102 22.298 274.168 21.8634 274.168 21.3643C274.168 20.8653 274.102 20.4326 273.969 20.0664C273.84 19.7002 273.649 19.4164 273.395 19.2152C273.146 19.014 272.838 18.9133 272.472 18.9133C272.11 18.9133 271.802 19.0119 271.548 19.2092C271.295 19.4064 271.099 19.6881 270.963 20.0543C270.83 20.4206 270.763 20.8572 270.763 21.3643ZM281.698 13.6371V26.0007H278.746V13.6371H281.698ZM286.191 26.1577C285.599 26.1577 285.074 26.0591 284.615 25.8618C284.16 25.6606 283.8 25.3588 283.534 24.9563C283.273 24.5498 283.142 24.0407 283.142 23.429C283.142 22.9138 283.233 22.4792 283.414 22.125C283.595 21.7708 283.844 21.4831 284.162 21.2617C284.48 21.0404 284.846 20.8733 285.261 20.7606C285.676 20.6439 286.118 20.5654 286.589 20.5252C287.116 20.4769 287.541 20.4266 287.863 20.3743C288.185 20.3179 288.418 20.2395 288.563 20.1388C288.712 20.0342 288.787 19.8873 288.787 19.6981V19.668C288.787 19.3581 288.68 19.1186 288.467 18.9496C288.253 18.7805 287.966 18.696 287.603 18.696C287.213 18.696 286.899 18.7805 286.662 18.9496C286.424 19.1186 286.273 19.352 286.209 19.6498L283.486 19.5533C283.567 18.9898 283.774 18.4867 284.108 18.044C284.446 17.5973 284.909 17.2471 285.496 16.9936C286.088 16.736 286.798 16.6072 287.627 16.6072C288.219 16.6072 288.764 16.6777 289.263 16.8185C289.763 16.9554 290.197 17.1566 290.567 17.4222C290.938 17.6838 291.223 18.0058 291.425 18.3881C291.63 18.7705 291.733 19.2071 291.733 19.6981V26.0007H288.956V24.7088H288.883C288.718 25.0227 288.507 25.2883 288.249 25.5057C287.996 25.723 287.696 25.886 287.35 25.9947C287.008 26.1033 286.621 26.1577 286.191 26.1577ZM287.102 24.2258C287.42 24.2258 287.706 24.1614 287.96 24.0327C288.217 23.9039 288.422 23.7268 288.575 23.5014C288.728 23.272 288.805 23.0064 288.805 22.7045V21.8231C288.72 21.8674 288.618 21.9077 288.497 21.9439C288.38 21.9801 288.251 22.0143 288.11 22.0465C287.97 22.0787 287.825 22.1069 287.676 22.131C287.527 22.1552 287.384 22.1773 287.247 22.1974C286.969 22.2417 286.732 22.3101 286.535 22.4027C286.342 22.4953 286.193 22.616 286.088 22.7649C285.987 22.9098 285.937 23.0828 285.937 23.2841C285.937 23.59 286.046 23.8234 286.263 23.9844C286.484 24.1453 286.764 24.2258 287.102 24.2258ZM297.866 26.1758C296.888 26.1758 296.049 25.9745 295.349 25.5721C294.652 25.1696 294.117 24.6102 293.743 23.8938C293.369 23.1734 293.181 22.3403 293.181 21.3945C293.181 20.4447 293.369 19.6116 293.743 18.8952C294.121 18.1748 294.658 17.6134 295.355 17.2109C296.055 16.8085 296.89 16.6072 297.86 16.6072C298.717 16.6072 299.464 16.7622 300.1 17.0721C300.74 17.382 301.239 17.8207 301.597 18.3881C301.959 18.9516 302.15 19.6136 302.17 20.3743H299.412C299.355 19.8994 299.194 19.5271 298.929 19.2574C298.667 18.9878 298.325 18.853 297.902 18.853C297.56 18.853 297.26 18.9496 297.003 19.1427C296.745 19.3319 296.544 19.6136 296.399 19.9879C296.258 20.3582 296.188 20.817 296.188 21.3643C296.188 21.9117 296.258 22.3745 296.399 22.7528C296.544 23.1271 296.745 23.4109 297.003 23.604C297.26 23.7932 297.56 23.8878 297.902 23.8878C298.176 23.8878 298.417 23.8294 298.627 23.7127C298.84 23.596 299.015 23.4249 299.152 23.1996C299.289 22.9702 299.375 22.6925 299.412 22.3665H302.17C302.142 23.1311 301.951 23.7992 301.597 24.3707C301.247 24.9422 300.754 25.3869 300.118 25.7049C299.486 26.0188 298.735 26.1758 297.866 26.1758ZM308.016 26.1758C307.046 26.1758 306.209 25.9846 305.504 25.6023C304.804 25.2159 304.265 24.6665 303.886 23.9542C303.512 23.2378 303.325 22.3866 303.325 21.4006C303.325 20.4427 303.514 19.6056 303.892 18.8892C304.271 18.1688 304.804 17.6094 305.492 17.2109C306.18 16.8085 306.991 16.6072 307.925 16.6072C308.585 16.6072 309.189 16.7099 309.736 16.9151C310.284 17.1204 310.756 17.4242 311.155 17.8267C311.553 18.2292 311.863 18.7262 312.085 19.3178C312.306 19.9054 312.417 20.5795 312.417 21.3402V22.0767H304.357V20.3622H309.67C309.666 20.0483 309.591 19.7686 309.446 19.5231C309.302 19.2776 309.102 19.0864 308.849 18.9496C308.599 18.8087 308.312 18.7383 307.986 18.7383C307.656 18.7383 307.36 18.8127 307.098 18.9616C306.836 19.1065 306.629 19.3057 306.476 19.5593C306.323 19.8088 306.243 20.0926 306.235 20.4105V22.1552C306.235 22.5335 306.309 22.8655 306.458 23.1513C306.607 23.433 306.818 23.6523 307.092 23.8093C307.366 23.9663 307.692 24.0447 308.07 24.0447C308.332 24.0447 308.569 24.0085 308.782 23.9361C308.996 23.8636 309.179 23.757 309.332 23.6161C309.485 23.4752 309.599 23.3022 309.676 23.0969L312.386 23.1754C312.274 23.7831 312.026 24.3124 311.644 24.7631C311.266 25.2099 310.769 25.558 310.153 25.8075C309.537 26.053 308.825 26.1758 308.016 26.1758Z" fill="white"/>
</g>
<defs>
<filter id="filter0_d_1_56" x="2.39972" y="0.39972" width="39.202" height="39.202" filterUnits="userSpaceOnUse" color-interpolation-filters="sRGB">
<feFlood flood-opacity="0" result="BackgroundImageFix"/>
<feColorMatrix in="SourceAlpha" type="matrix" values="0 0 0 0 0 0 0 0 0 0 0 0 0 0 0 0 0 0 127 0" result="hardAlpha"/>
<feOffset/>
<feGaussianBlur stdDeviation="2.80014"/>
<feComposite in2="hardAlpha" operator="out"/>
<feColorMatrix type="matrix" values="0 0 0 0 0 0 0 0 0 0 0 0 0 0 0 0 0 0 0.25 0"/>
<feBlend mode="normal" in2="BackgroundImageFix" result="effect1_dropShadow_1_56"/>
<feBlend mode="normal" in="SourceGraphic" in2="effect1_dropShadow_1_56" result="shape"/>
</filter>
<filter id="filter1_d_1_56" x="2.28571" y="0.285715" width="39.4286" height="39.4286" filterUnits="userSpaceOnUse" color-interpolation-filters="sRGB">
<feFlood flood-opacity="0" result="BackgroundImageFix"/>
<feColorMatrix in="SourceAlpha" type="matrix" values="0 0 0 0 0 0 0 0 0 0 0 0 0 0 0 0 0 0 127 0" result="hardAlpha"/>
<feOffset/>
<feGaussianBlur stdDeviation="2.85714"/>
<feComposite in2="hardAlpha" operator="out"/>
<feColorMatrix type="matrix" values="0 0 0 0 0 0 0 0 0 0 0 0 0 0 0 0 0 0 0.25 0"/>
<feBlend mode="normal" in2="BackgroundImageFix" result="effect1_dropShadow_1_56"/>
<feBlend mode="normal" in="SourceGraphic" in2="effect1_dropShadow_1_56" result="shape"/>
</filter>
<filter id="filter2_d_1_56" x="36.2871" y="3.78642" width="282.428" height="32.4286" filterUnits="userSpaceOnUse" color-interpolation-filters="sRGB">
<feFlood flood-opacity="0" result="BackgroundImageFix"/>
<feColorMatrix in="SourceAlpha" type="matrix" values="0 0 0 0 0 0 0 0 0 0 0 0 0 0 0 0 0 0 127 0" result="hardAlpha"/>
<feOffset/>
<feGaussianBlur stdDeviation="2.85714"/>
<feComposite in2="hardAlpha" operator="out"/>
<feColorMatrix type="matrix" values="0 0 0 0 0 0 0 0 0 0 0 0 0 0 0 0 0 0 0.25 0"/>
<feBlend mode="normal" in2="BackgroundImageFix" result="effect1_dropShadow_1_56"/>
<feBlend mode="normal" in="SourceGraphic" in2="effect1_dropShadow_1_56" result="shape"/>
</filter>
<linearGradient id="paint0_linear_1_56" x1="160.501" y1="0" x2="160.501" y2="40.0014" gradientUnits="userSpaceOnUse">
<stop stop-color="#181F29"/>
<stop offset="1" stop-color="#0F131A"/>
</linearGradient>
</defs>
</svg>
