<svg width="241" height="56" viewBox="0 0 241 56" fill="none" xmlns="http://www.w3.org/2000/svg">
<rect width="241" height="56" rx="8" fill="url(#paint0_linear_1_50)"/>
<rect x="1.05" y="1.05" width="238.9" height="53.9" rx="6.95" stroke="white" stroke-opacity="0.15" stroke-width="2.1"/>
<g filter="url(#filter0_d_1_50)">
<g filter="url(#filter1_d_1_50)">
<path d="M32.0013 8.71553C20.9518 8.71553 12 17.5725 12 28.4883C12 37.2291 17.7304 44.6377 25.6721 47.2514C26.6759 47.438 27.0385 46.8263 27.0385 46.2974C27.0385 45.8278 27.0272 44.5858 27.0197 42.9373C21.4531 44.1286 20.2805 40.2791 20.2805 40.2791C19.3692 38.0003 18.0542 37.3885 18.0542 37.3885C16.244 36.1663 18.1979 36.1923 18.1979 36.1923C20.203 36.327 21.2581 38.2252 21.2581 38.2252C23.042 41.2504 25.9384 40.3755 27.0847 39.8663C27.2597 38.5922 27.781 37.716 28.3485 37.2279C23.9083 36.7323 19.2392 35.0331 19.2392 27.4564C19.2392 25.2925 20.0143 23.5303 21.2956 22.1462C21.0743 21.6506 20.3968 19.6363 21.4719 16.9126C21.4719 16.9126 23.1457 16.3849 26.9722 18.9405C28.5736 18.5018 30.2737 18.2831 31.9725 18.272C33.6726 18.2831 35.3715 18.5031 36.9728 18.9405C40.7768 16.3849 42.4494 16.9126 42.4494 16.9126C43.5232 19.6363 42.8457 21.6494 42.6507 22.1462C43.9195 23.5303 44.6946 25.2938 44.6946 27.4564C44.6946 35.0504 40.0193 36.7249 35.574 37.2081C36.269 37.8001 36.9203 39.0173 36.9203 40.8648C36.9203 43.5094 36.8953 45.64 36.8953 46.2838C36.8953 46.7979 37.2453 47.4158 38.2754 47.2168C46.2759 44.6303 52 37.2155 52 28.4871C52 17.5713 43.0482 8.71429 31.9988 8.71429L32.0013 8.71553Z" fill="white"/>
</g>
</g>
<g filter="url(#filter2_d_1_50)">
<path d="M62.2613 24.5H60.3977L64.5852 12.8636H66.6136L70.8011 24.5H68.9375L65.6477 14.9773H65.5568L62.2613 24.5ZM62.5738 19.9432H68.6193V21.4204H62.5738V19.9432ZM78.7173 15.7727L75.5525 24.5H73.7344L70.5639 15.7727H72.3878L74.598 22.4886H74.6889L76.8934 15.7727H78.7173ZM82.6037 24.6932C82.0506 24.6932 81.5506 24.5909 81.1037 24.3864C80.6567 24.178 80.3025 23.8769 80.0412 23.4829C79.7836 23.089 79.6548 22.6061 79.6548 22.0341C79.6548 21.5417 79.7495 21.1364 79.9389 20.8182C80.1283 20.5 80.384 20.2481 80.7059 20.0625C81.0279 19.8769 81.3878 19.7367 81.7855 19.642C82.1832 19.5473 82.5885 19.4754 83.0014 19.4261C83.5241 19.3655 83.9484 19.3163 84.2741 19.2784C84.5999 19.2367 84.8366 19.1704 84.9844 19.0795C85.1321 18.9886 85.2059 18.8409 85.2059 18.6364V18.5966C85.2059 18.1004 85.0658 17.7159 84.7855 17.4432C84.509 17.1704 84.0961 17.0341 83.5469 17.0341C82.9749 17.0341 82.5241 17.161 82.1946 17.4148C81.8688 17.6648 81.6434 17.9432 81.5184 18.25L79.9219 17.8864C80.1112 17.3561 80.3878 16.928 80.7514 16.6023C81.1188 16.2727 81.5412 16.0341 82.0184 15.8864C82.4957 15.7348 82.9976 15.6591 83.5241 15.6591C83.8726 15.6591 84.2419 15.7008 84.6321 15.7841C85.026 15.8636 85.3934 16.0114 85.7344 16.2273C86.079 16.4432 86.3612 16.7519 86.5809 17.1534C86.8006 17.5511 86.9105 18.0682 86.9105 18.7045V24.5H85.2514V23.3068H85.1832C85.0734 23.5265 84.9086 23.7424 84.6889 23.9545C84.4692 24.1667 84.187 24.3428 83.8423 24.4829C83.4976 24.6231 83.0847 24.6932 82.6037 24.6932ZM82.973 23.3295C83.4427 23.3295 83.8442 23.2367 84.1775 23.0511C84.5147 22.8655 84.7703 22.6231 84.9446 22.3239C85.1226 22.0208 85.2116 21.697 85.2116 21.3523V20.2273C85.151 20.2879 85.0336 20.3447 84.8594 20.3977C84.6889 20.447 84.4938 20.4905 84.2741 20.5284C84.0544 20.5625 83.8404 20.5947 83.6321 20.625C83.4237 20.6515 83.2495 20.6742 83.1094 20.6932C82.7798 20.7348 82.4787 20.8049 82.2059 20.9034C81.937 21.0019 81.7211 21.1439 81.5582 21.3295C81.3991 21.5114 81.3196 21.7538 81.3196 22.0568C81.3196 22.4773 81.4749 22.7954 81.7855 23.0114C82.0961 23.2235 82.4919 23.3295 82.973 23.3295ZM89.1733 24.5V15.7727H90.8721V24.5H89.1733ZM90.0312 14.4261C89.7358 14.4261 89.482 14.3276 89.2699 14.1307C89.0615 13.9299 88.9574 13.6913 88.9574 13.4148C88.9574 13.1345 89.0615 12.8958 89.2699 12.6989C89.482 12.4981 89.7358 12.3977 90.0312 12.3977C90.3267 12.3977 90.5786 12.4981 90.7869 12.6989C90.999 12.8958 91.1051 13.1345 91.1051 13.4148C91.1051 13.6913 90.999 13.9299 90.7869 14.1307C90.5786 14.3276 90.3267 14.4261 90.0312 14.4261ZM94.8565 12.8636V24.5H93.1576V12.8636H94.8565ZM99.6818 24.6932C99.1288 24.6932 98.6288 24.5909 98.1818 24.3864C97.7348 24.178 97.3807 23.8769 97.1193 23.4829C96.8617 23.089 96.7329 22.6061 96.7329 22.0341C96.7329 21.5417 96.8276 21.1364 97.017 20.8182C97.2064 20.5 97.4621 20.2481 97.7841 20.0625C98.106 19.8769 98.4659 19.7367 98.8636 19.642C99.2613 19.5473 99.6666 19.4754 100.08 19.4261C100.602 19.3655 101.026 19.3163 101.352 19.2784C101.678 19.2367 101.915 19.1704 102.062 19.0795C102.21 18.9886 102.284 18.8409 102.284 18.6364V18.5966C102.284 18.1004 102.144 17.7159 101.864 17.4432C101.587 17.1704 101.174 17.0341 100.625 17.0341C100.053 17.0341 99.6022 17.161 99.2727 17.4148C98.9469 17.6648 98.7216 17.9432 98.5966 18.25L97 17.8864C97.1894 17.3561 97.4659 16.928 97.8295 16.6023C98.1969 16.2727 98.6193 16.0341 99.0966 15.8864C99.5738 15.7348 100.076 15.6591 100.602 15.6591C100.951 15.6591 101.32 15.7008 101.71 15.7841C102.104 15.8636 102.472 16.0114 102.812 16.2273C103.157 16.4432 103.439 16.7519 103.659 17.1534C103.879 17.5511 103.989 18.0682 103.989 18.7045V24.5H102.33V23.3068H102.261C102.151 23.5265 101.987 23.7424 101.767 23.9545C101.547 24.1667 101.265 24.3428 100.92 24.4829C100.576 24.6231 100.163 24.6932 99.6818 24.6932ZM100.051 23.3295C100.521 23.3295 100.922 23.2367 101.256 23.0511C101.593 22.8655 101.848 22.6231 102.023 22.3239C102.201 22.0208 102.29 21.697 102.29 21.3523V20.2273C102.229 20.2879 102.112 20.3447 101.937 20.3977C101.767 20.447 101.572 20.4905 101.352 20.5284C101.133 20.5625 100.919 20.5947 100.71 20.625C100.502 20.6515 100.328 20.6742 100.187 20.6932C99.8579 20.7348 99.5568 20.8049 99.2841 20.9034C99.0151 21.0019 98.7992 21.1439 98.6363 21.3295C98.4772 21.5114 98.3977 21.7538 98.3977 22.0568C98.3977 22.4773 98.553 22.7954 98.8636 23.0114C99.1742 23.2235 99.57 23.3295 100.051 23.3295ZM106.388 24.5V12.8636H108.087V17.1875H108.189C108.287 17.0057 108.429 16.7954 108.615 16.5568C108.801 16.3182 109.058 16.1098 109.388 15.9318C109.717 15.75 110.153 15.6591 110.695 15.6591C111.399 15.6591 112.028 15.8371 112.581 16.1932C113.134 16.5492 113.568 17.0625 113.882 17.7329C114.2 18.4034 114.359 19.2102 114.359 20.1534C114.359 21.0966 114.202 21.9053 113.888 22.5795C113.573 23.25 113.142 23.767 112.592 24.1307C112.043 24.4905 111.416 24.6704 110.712 24.6704C110.181 24.6704 109.748 24.5814 109.41 24.4034C109.077 24.2254 108.816 24.017 108.626 23.7784C108.437 23.5398 108.291 23.3276 108.189 23.142H108.047V24.5H106.388ZM108.053 20.1364C108.053 20.75 108.142 21.2879 108.32 21.75C108.498 22.2121 108.755 22.5739 109.092 22.8352C109.429 23.0928 109.842 23.2216 110.331 23.2216C110.839 23.2216 111.263 23.0871 111.604 22.8182C111.945 22.5454 112.202 22.1761 112.376 21.7102C112.554 21.2443 112.643 20.7197 112.643 20.1364C112.643 19.5606 112.556 19.0436 112.382 18.5852C112.212 18.1269 111.954 17.7651 111.609 17.5C111.268 17.2348 110.842 17.1023 110.331 17.1023C109.839 17.1023 109.422 17.2292 109.081 17.4829C108.744 17.7367 108.488 18.0909 108.314 18.5454C108.14 19 108.053 19.5303 108.053 20.1364ZM117.966 12.8636V24.5H116.267V12.8636H117.966ZM124.013 24.6761C123.153 24.6761 122.412 24.4924 121.791 24.125C121.174 23.7538 120.696 23.2329 120.359 22.5625C120.026 21.8883 119.859 21.0985 119.859 20.1932C119.859 19.2992 120.026 18.5114 120.359 17.8295C120.696 17.1477 121.166 16.6155 121.768 16.2329C122.374 15.8504 123.083 15.6591 123.893 15.6591C124.386 15.6591 124.863 15.7405 125.325 15.9034C125.787 16.0663 126.202 16.322 126.57 16.6704C126.937 17.0189 127.227 17.4716 127.439 18.0284C127.651 18.5814 127.757 19.2538 127.757 20.0454V20.6477H120.82V19.375H126.092C126.092 18.928 126.001 18.5322 125.82 18.1875C125.638 17.839 125.382 17.5644 125.053 17.3636C124.727 17.1629 124.344 17.0625 123.905 17.0625C123.428 17.0625 123.011 17.1799 122.655 17.4148C122.303 17.6458 122.03 17.9489 121.837 18.3239C121.647 18.6951 121.553 19.0985 121.553 19.5341V20.5284C121.553 21.1117 121.655 21.6079 121.859 22.017C122.068 22.4261 122.357 22.7386 122.729 22.9545C123.1 23.1667 123.534 23.2727 124.03 23.2727C124.352 23.2727 124.645 23.2273 124.91 23.1364C125.176 23.0417 125.405 22.9015 125.598 22.7159C125.791 22.5303 125.939 22.3011 126.041 22.0284L127.649 22.3182C127.52 22.7917 127.289 23.2064 126.956 23.5625C126.626 23.9148 126.212 24.1894 125.712 24.3864C125.215 24.5795 124.649 24.6761 124.013 24.6761ZM137.553 24.6761C136.734 24.6761 136.02 24.4886 135.41 24.1136C134.801 23.7386 134.327 23.214 133.99 22.5398C133.653 21.8655 133.484 21.0776 133.484 20.1761C133.484 19.2708 133.653 18.4792 133.99 17.8011C134.327 17.1231 134.801 16.5966 135.41 16.2216C136.02 15.8466 136.734 15.6591 137.553 15.6591C138.371 15.6591 139.085 15.8466 139.695 16.2216C140.304 16.5966 140.778 17.1231 141.115 17.8011C141.452 18.4792 141.621 19.2708 141.621 20.1761C141.621 21.0776 141.452 21.8655 141.115 22.5398C140.778 23.214 140.304 23.7386 139.695 24.1136C139.085 24.4886 138.371 24.6761 137.553 24.6761ZM137.558 23.25C138.089 23.25 138.528 23.1098 138.876 22.8295C139.225 22.5492 139.482 22.1761 139.649 21.7102C139.82 21.2443 139.905 20.7311 139.905 20.1704C139.905 19.6136 139.82 19.1023 139.649 18.6364C139.482 18.1667 139.225 17.7898 138.876 17.5057C138.528 17.2216 138.089 17.0795 137.558 17.0795C137.024 17.0795 136.581 17.2216 136.229 17.5057C135.88 17.7898 135.621 18.1667 135.45 18.6364C135.284 19.1023 135.2 19.6136 135.2 20.1704C135.2 20.7311 135.284 21.2443 135.45 21.7102C135.621 22.1761 135.88 22.5492 136.229 22.8295C136.581 23.1098 137.024 23.25 137.558 23.25ZM145.216 19.3182V24.5H143.517V15.7727H145.148V17.1932H145.256C145.456 16.7311 145.771 16.3598 146.199 16.0795C146.631 15.7992 147.174 15.6591 147.83 15.6591C148.424 15.6591 148.945 15.7841 149.392 16.0341C149.839 16.2803 150.186 16.6477 150.432 17.1364C150.678 17.625 150.801 18.2292 150.801 18.9489V24.5H149.102V19.1534C149.102 18.5208 148.937 18.0265 148.608 17.6704C148.278 17.3106 147.826 17.1307 147.25 17.1307C146.856 17.1307 146.506 17.2159 146.199 17.3864C145.896 17.5568 145.655 17.8068 145.477 18.1364C145.303 18.4621 145.216 18.8561 145.216 19.3182Z" fill="#E8E8E8"/>
<path d="M69.0493 35.1751C68.9809 34.9215 68.8803 34.6981 68.7475 34.505C68.6147 34.3078 68.4517 34.1407 68.2585 34.0039C68.0653 33.8671 67.844 33.7644 67.5944 33.696C67.3449 33.6236 67.0712 33.5873 66.7734 33.5873C66.1738 33.5873 65.6546 33.7322 65.2159 34.022C64.7812 34.3118 64.4452 34.7344 64.2077 35.2898C63.9703 35.8411 63.8515 36.5112 63.8515 37.3001C63.8515 38.0929 63.9662 38.769 64.1957 39.3285C64.4251 39.8879 64.7571 40.3145 65.1917 40.6083C65.6264 40.9021 66.1536 41.049 66.7734 41.049C67.3208 41.049 67.7836 40.9605 68.1619 40.7834C68.5443 40.6023 68.834 40.3467 69.0312 40.0167C69.2284 39.6867 69.327 39.2983 69.327 38.8516L69.8824 38.918H66.876V36.7386H72.2067V38.3746C72.2067 39.4814 71.9712 40.4292 71.5003 41.218C71.0335 42.0069 70.3895 42.6126 69.5685 43.0351C68.7515 43.4577 67.8118 43.669 66.7493 43.669C65.5701 43.669 64.5337 43.4135 63.6403 42.9023C62.7468 42.3912 62.0505 41.6627 61.5515 40.717C61.0524 39.7672 60.8029 38.6403 60.8029 37.3363C60.8029 36.3221 60.9538 35.4226 61.2557 34.6378C61.5575 33.8489 61.9781 33.1809 62.5174 32.6335C63.0607 32.0862 63.6885 31.6716 64.4009 31.3899C65.1173 31.1082 65.888 30.9673 66.7131 30.9673C67.4294 30.9673 68.0955 31.0699 68.7113 31.2752C69.3311 31.4805 69.8784 31.7702 70.3533 32.1445C70.8322 32.5188 71.2206 32.9635 71.5184 33.4787C71.8163 33.9938 72.0014 34.5593 72.0738 35.1751H69.0493ZM74.549 43.5V34.2273H77.501V43.5H74.549ZM76.028 33.1467C75.6135 33.1467 75.2573 33.0098 74.9595 32.7361C74.6617 32.4584 74.5128 32.1244 74.5128 31.734C74.5128 31.3476 74.6617 31.0176 74.9595 30.744C75.2573 30.4663 75.6135 30.3274 76.028 30.3274C76.4466 30.3274 76.8028 30.4663 77.0966 30.744C77.3944 31.0176 77.5433 31.3476 77.5433 31.734C77.5433 32.1244 77.3944 32.4584 77.0966 32.7361C76.8028 33.0098 76.4466 33.1467 76.028 33.1467ZM84.6141 34.2273V36.4006H78.7643V34.2273H84.6141ZM79.9898 32.0057H82.9418V40.5842C82.9418 40.7653 82.97 40.9122 83.0263 41.0248C83.0867 41.1335 83.1732 41.212 83.2859 41.2603C83.3986 41.3046 83.5334 41.3267 83.6904 41.3267C83.8031 41.3267 83.9218 41.3166 84.0466 41.2965C84.1754 41.2724 84.272 41.2522 84.3364 41.2361L84.7831 43.3672C84.6422 43.4074 84.443 43.4577 84.1854 43.5181C83.9319 43.5785 83.628 43.6167 83.2739 43.6328C82.5816 43.665 81.988 43.5845 81.493 43.3913C81.002 43.1941 80.6257 42.8882 80.3641 42.4737C80.1065 42.0592 79.9817 41.538 79.9898 40.9101V32.0057ZM86.3195 43.5V31.1364H89.3078V36.0987H94.1796V31.1364H97.1618V43.5H94.1796V38.5316H89.3078V43.5H86.3195ZM105.019 39.4975V34.2273H107.965V43.5H105.152V41.7734H105.055C104.85 42.3409 104.5 42.7917 104.005 43.1257C103.514 43.4557 102.92 43.6207 102.224 43.6207C101.592 43.6207 101.037 43.4758 100.558 43.1861C100.079 42.8963 99.7064 42.4918 99.4408 41.9726C99.1751 41.4494 99.0403 40.8377 99.0363 40.1374V34.2273H101.988V39.5579C101.992 40.061 102.125 40.4574 102.387 40.7471C102.648 41.0369 103.005 41.1818 103.455 41.1818C103.749 41.1818 104.013 41.1174 104.246 40.9886C104.484 40.8558 104.671 40.6646 104.808 40.4151C104.948 40.1616 105.019 39.8557 105.019 39.4975ZM109.844 43.5V31.1364H112.796V35.815H112.856C112.977 35.5333 113.148 35.2616 113.369 35C113.595 34.7384 113.881 34.5251 114.227 34.3601C114.577 34.191 114.995 34.1065 115.482 34.1065C116.126 34.1065 116.728 34.2756 117.287 34.6136C117.851 34.9517 118.306 35.4729 118.652 36.1772C118.998 36.8815 119.171 37.779 119.171 38.8697C119.171 39.9201 119.004 40.7995 118.67 41.5078C118.34 42.2161 117.893 42.7474 117.33 43.1016C116.77 43.4557 116.148 43.6328 115.464 43.6328C114.997 43.6328 114.593 43.5563 114.251 43.4034C113.909 43.2505 113.621 43.0492 113.388 42.7997C113.158 42.5502 112.981 42.2825 112.856 41.9968H112.766V43.5H109.844ZM112.736 38.8636C112.736 39.3627 112.802 39.7973 112.935 40.1676C113.072 40.5379 113.267 40.8256 113.52 41.0309C113.778 41.2321 114.086 41.3327 114.444 41.3327C114.806 41.3327 115.114 41.2321 115.368 41.0309C115.621 40.8256 115.812 40.5379 115.941 40.1676C116.074 39.7973 116.14 39.3627 116.14 38.8636C116.14 38.3646 116.074 37.9319 115.941 37.5657C115.812 37.1994 115.621 36.9157 115.368 36.7145C115.118 36.5132 114.81 36.4126 114.444 36.4126C114.082 36.4126 113.774 36.5112 113.52 36.7084C113.267 36.9056 113.072 37.1874 112.935 37.5536C112.802 37.9199 112.736 38.3565 112.736 38.8636ZM124.37 31.1364H128.071L131.21 38.7912H131.355L134.494 31.1364H138.195V43.5H135.285V35.9055H135.182L132.212 43.4215H130.353L127.383 35.8633H127.28V43.5H124.37V31.1364ZM142.673 43.6569C142.081 43.6569 141.556 43.5583 141.097 43.3611C140.642 43.1599 140.282 42.8581 140.016 42.4556C139.755 42.0491 139.624 41.54 139.624 40.9283C139.624 40.4131 139.715 39.9784 139.896 39.6243C140.077 39.2701 140.326 38.9824 140.644 38.761C140.962 38.5396 141.328 38.3726 141.743 38.2599C142.158 38.1432 142.6 38.0647 143.071 38.0245C143.598 37.9762 144.023 37.9259 144.345 37.8736C144.667 37.8172 144.9 37.7387 145.045 37.6381C145.194 37.5335 145.269 37.3866 145.269 37.1974V37.1672C145.269 36.8574 145.162 36.6179 144.949 36.4489C144.735 36.2798 144.448 36.1953 144.085 36.1953C143.695 36.1953 143.381 36.2798 143.144 36.4489C142.906 36.6179 142.755 36.8513 142.691 37.1491L139.968 37.0525C140.049 36.4891 140.256 35.986 140.59 35.5433C140.928 35.0966 141.391 34.7464 141.978 34.4929C142.57 34.2353 143.28 34.1065 144.11 34.1065C144.701 34.1065 145.246 34.177 145.746 34.3178C146.245 34.4547 146.679 34.6559 147.049 34.9215C147.42 35.1831 147.706 35.5051 147.907 35.8874C148.112 36.2698 148.215 36.7064 148.215 37.1974V43.5H145.438V42.2081H145.365C145.2 42.522 144.989 42.7876 144.731 43.005C144.478 43.2223 144.178 43.3853 143.832 43.494C143.49 43.6026 143.103 43.6569 142.673 43.6569ZM143.584 41.7251C143.902 41.7251 144.188 41.6607 144.442 41.5319C144.699 41.4032 144.904 41.2261 145.057 41.0007C145.21 40.7713 145.287 40.5057 145.287 40.2038V39.3224C145.202 39.3667 145.1 39.4069 144.979 39.4432C144.862 39.4794 144.733 39.5136 144.592 39.5458C144.452 39.578 144.307 39.6062 144.158 39.6303C144.009 39.6545 143.866 39.6766 143.729 39.6967C143.451 39.741 143.214 39.8094 143.017 39.902C142.824 39.9945 142.675 40.1153 142.57 40.2642C142.469 40.4091 142.419 40.5821 142.419 40.7834C142.419 41.0892 142.528 41.3227 142.745 41.4837C142.967 41.6446 143.246 41.7251 143.584 41.7251ZM150.02 43.5V34.2273H152.887V35.9176H152.984C153.153 35.3059 153.429 34.8511 153.811 34.5533C154.193 34.2514 154.638 34.1005 155.145 34.1005C155.282 34.1005 155.423 34.1105 155.568 34.1307C155.712 34.1468 155.847 34.1729 155.972 34.2092V36.7748C155.831 36.7266 155.646 36.6883 155.417 36.6601C155.191 36.632 154.99 36.6179 154.813 36.6179C154.463 36.6179 154.147 36.6964 153.865 36.8533C153.587 37.0063 153.368 37.2216 153.207 37.4993C153.05 37.773 152.972 38.0949 152.972 38.4652V43.5H150.02ZM159.837 41.0671L159.849 37.5476H160.26L162.868 34.2273H166.212L162.337 38.9844H161.558L159.837 41.0671ZM157.175 43.5V31.1364H160.127V43.5H157.175ZM162.934 43.5L160.507 39.6484L162.451 37.5536L166.345 43.5H162.934ZM171.221 43.6751C170.251 43.6751 169.414 43.4839 168.71 43.1016C168.01 42.7152 167.47 42.1658 167.092 41.4535C166.718 40.7371 166.531 39.8859 166.531 38.8998C166.531 37.942 166.72 37.1049 167.098 36.3885C167.476 35.6681 168.01 35.1087 168.698 34.7102C169.386 34.3078 170.197 34.1065 171.131 34.1065C171.791 34.1065 172.395 34.2092 172.942 34.4144C173.489 34.6197 173.962 34.9235 174.361 35.326C174.759 35.7284 175.069 36.2255 175.29 36.8171C175.512 37.4047 175.622 38.0788 175.622 38.8395V39.576H167.563V37.8615H172.875C172.871 37.5476 172.797 37.2679 172.652 37.0224C172.507 36.7769 172.308 36.5857 172.054 36.4489C171.805 36.308 171.517 36.2376 171.191 36.2376C170.861 36.2376 170.565 36.312 170.304 36.4609C170.042 36.6058 169.835 36.805 169.682 37.0586C169.529 37.3081 169.449 37.5918 169.44 37.9098V39.6545C169.44 40.0328 169.515 40.3648 169.664 40.6506C169.813 40.9323 170.024 41.1516 170.298 41.3086C170.571 41.4655 170.897 41.544 171.276 41.544C171.537 41.544 171.775 41.5078 171.988 41.4354C172.201 41.3629 172.384 41.2563 172.537 41.1154C172.69 40.9745 172.805 40.8015 172.882 40.5962L175.592 40.6747C175.479 41.2824 175.232 41.8117 174.85 42.2624C174.471 42.7092 173.974 43.0573 173.358 43.3068C172.743 43.5523 172.03 43.6751 171.221 43.6751ZM182.364 34.2273V36.4006H176.514V34.2273H182.364ZM177.74 32.0057H180.692V40.5842C180.692 40.7653 180.72 40.9122 180.776 41.0248C180.837 41.1335 180.923 41.212 181.036 41.2603C181.149 41.3046 181.283 41.3267 181.44 41.3267C181.553 41.3267 181.672 41.3166 181.797 41.2965C181.925 41.2724 182.022 41.2522 182.086 41.2361L182.533 43.3672C182.392 43.4074 182.193 43.4577 181.935 43.5181C181.682 43.5785 181.378 43.6167 181.024 43.6328C180.332 43.665 179.738 43.5845 179.243 43.3913C178.752 43.1941 178.376 42.8882 178.114 42.4737C177.856 42.0592 177.732 41.538 177.74 40.9101V32.0057ZM183.87 46.9773V34.2273H186.792V35.815H186.883C187.003 35.5333 187.174 35.2616 187.396 35C187.621 34.7384 187.907 34.5251 188.253 34.3601C188.603 34.191 189.022 34.1065 189.509 34.1065C190.153 34.1065 190.754 34.2756 191.314 34.6136C191.877 34.9517 192.332 35.4729 192.678 36.1772C193.024 36.8815 193.197 37.779 193.197 38.8697C193.197 39.9201 193.03 40.7995 192.696 41.5078C192.366 42.2161 191.919 42.7474 191.356 43.1016C190.797 43.4557 190.175 43.6328 189.491 43.6328C189.024 43.6328 188.619 43.5563 188.277 43.4034C187.935 43.2505 187.647 43.0492 187.414 42.7997C187.185 42.5502 187.007 42.2825 186.883 41.9968H186.822V46.9773H183.87ZM186.762 38.8636C186.762 39.3627 186.828 39.7973 186.961 40.1676C187.098 40.5379 187.293 40.8256 187.547 41.0309C187.804 41.2321 188.112 41.3327 188.47 41.3327C188.833 41.3327 189.14 41.2321 189.394 41.0309C189.648 40.8256 189.839 40.5379 189.968 40.1676C190.1 39.7973 190.167 39.3627 190.167 38.8636C190.167 38.3646 190.1 37.9319 189.968 37.5657C189.839 37.1994 189.648 36.9157 189.394 36.7145C189.145 36.5132 188.837 36.4126 188.47 36.4126C188.108 36.4126 187.8 36.5112 187.547 36.7084C187.293 36.9056 187.098 37.1874 186.961 37.5536C186.828 37.9199 186.762 38.3565 186.762 38.8636ZM197.696 31.1364V43.5H194.744V31.1364H197.696ZM202.189 43.6569C201.598 43.6569 201.072 43.5583 200.614 43.3611C200.159 43.1599 199.799 42.8581 199.533 42.4556C199.271 42.0491 199.141 41.54 199.141 40.9283C199.141 40.4131 199.231 39.9784 199.412 39.6243C199.593 39.2701 199.843 38.9824 200.161 38.761C200.479 38.5396 200.845 38.3726 201.26 38.2599C201.674 38.1432 202.117 38.0647 202.588 38.0245C203.115 37.9762 203.54 37.9259 203.862 37.8736C204.184 37.8172 204.417 37.7387 204.562 37.6381C204.711 37.5335 204.785 37.3866 204.785 37.1974V37.1672C204.785 36.8574 204.679 36.6179 204.465 36.4489C204.252 36.2798 203.964 36.1953 203.602 36.1953C203.212 36.1953 202.898 36.2798 202.66 36.4489C202.423 36.6179 202.272 36.8513 202.207 37.1491L199.485 37.0525C199.565 36.4891 199.773 35.986 200.107 35.5433C200.445 35.0966 200.907 34.7464 201.495 34.4929C202.087 34.2353 202.797 34.1065 203.626 34.1065C204.218 34.1065 204.763 34.177 205.262 34.3178C205.761 34.4547 206.196 34.6559 206.566 34.9215C206.936 35.1831 207.222 35.5051 207.423 35.8874C207.629 36.2698 207.731 36.7064 207.731 37.1974V43.5H204.954V42.2081H204.882C204.717 42.522 204.505 42.7876 204.248 43.005C203.994 43.2223 203.695 43.3853 203.348 43.494C203.006 43.6026 202.62 43.6569 202.189 43.6569ZM203.101 41.7251C203.419 41.7251 203.705 41.6607 203.958 41.5319C204.216 41.4032 204.421 41.2261 204.574 41.0007C204.727 40.7713 204.803 40.5057 204.803 40.2038V39.3224C204.719 39.3667 204.616 39.4069 204.495 39.4432C204.379 39.4794 204.25 39.5136 204.109 39.5458C203.968 39.578 203.823 39.6062 203.674 39.6303C203.525 39.6545 203.383 39.6766 203.246 39.6967C202.968 39.741 202.731 39.8094 202.533 39.902C202.34 39.9945 202.191 40.1153 202.087 40.2642C201.986 40.4091 201.936 40.5821 201.936 40.7834C201.936 41.0892 202.044 41.3227 202.262 41.4837C202.483 41.6446 202.763 41.7251 203.101 41.7251ZM213.865 43.6751C212.887 43.6751 212.048 43.4738 211.347 43.0714C210.651 42.6689 210.116 42.1095 209.742 41.3931C209.367 40.6727 209.18 39.8396 209.18 38.8938C209.18 37.944 209.367 37.1109 209.742 36.3945C210.12 35.6741 210.657 35.1127 211.353 34.7102C212.054 34.3078 212.889 34.1065 213.859 34.1065C214.716 34.1065 215.463 34.2615 216.098 34.5714C216.738 34.8813 217.237 35.3199 217.596 35.8874C217.958 36.4509 218.149 37.1129 218.169 37.8736H215.41C215.354 37.3987 215.193 37.0264 214.927 36.7567C214.666 36.4871 214.324 36.3523 213.901 36.3523C213.559 36.3523 213.259 36.4489 213.001 36.642C212.744 36.8312 212.543 37.1129 212.398 37.4872C212.257 37.8575 212.186 38.3163 212.186 38.8636C212.186 39.411 212.257 39.8738 212.398 40.2521C212.543 40.6264 212.744 40.9101 213.001 41.1033C213.259 41.2925 213.559 41.3871 213.901 41.3871C214.175 41.3871 214.416 41.3287 214.625 41.212C214.839 41.0953 215.014 40.9242 215.151 40.6989C215.287 40.4694 215.374 40.1918 215.41 39.8658H218.169C218.141 40.6304 217.95 41.2985 217.596 41.87C217.245 42.4415 216.752 42.8862 216.117 43.2042C215.485 43.5181 214.734 43.6751 213.865 43.6751ZM224.014 43.6751C223.044 43.6751 222.207 43.4839 221.503 43.1016C220.803 42.7152 220.263 42.1658 219.885 41.4535C219.511 40.7371 219.324 39.8859 219.324 38.8998C219.324 37.942 219.513 37.1049 219.891 36.3885C220.269 35.6681 220.803 35.1087 221.491 34.7102C222.179 34.3078 222.99 34.1065 223.924 34.1065C224.584 34.1065 225.187 34.2092 225.735 34.4144C226.282 34.6197 226.755 34.9235 227.154 35.326C227.552 35.7284 227.862 36.2255 228.083 36.8171C228.305 37.4047 228.415 38.0788 228.415 38.8395V39.576H220.356V37.8615H225.668C225.664 37.5476 225.59 37.2679 225.445 37.0224C225.3 36.7769 225.101 36.5857 224.847 36.4489C224.598 36.308 224.31 36.2376 223.984 36.2376C223.654 36.2376 223.358 36.312 223.097 36.4609C222.835 36.6058 222.628 36.805 222.475 37.0586C222.322 37.3081 222.241 37.5918 222.233 37.9098V39.6545C222.233 40.0328 222.308 40.3648 222.457 40.6506C222.606 40.9323 222.817 41.1516 223.091 41.3086C223.364 41.4655 223.69 41.544 224.069 41.544C224.33 41.544 224.568 41.5078 224.781 41.4354C224.994 41.3629 225.177 41.2563 225.33 41.1154C225.483 40.9745 225.598 40.8015 225.674 40.5962L228.385 40.6747C228.272 41.2824 228.025 41.8117 227.643 42.2624C227.264 42.7092 226.767 43.0573 226.151 43.3068C225.536 43.5523 224.823 43.6751 224.014 43.6751Z" fill="white"/>
</g>
<defs>
<filter id="filter0_d_1_50" x="6.28571" y="2.28571" width="51.4286" height="51.4286" filterUnits="userSpaceOnUse" color-interpolation-filters="sRGB">
<feFlood flood-opacity="0" result="BackgroundImageFix"/>
<feColorMatrix in="SourceAlpha" type="matrix" values="0 0 0 0 0 0 0 0 0 0 0 0 0 0 0 0 0 0 127 0" result="hardAlpha"/>
<feOffset/>
<feGaussianBlur stdDeviation="2.85714"/>
<feComposite in2="hardAlpha" operator="out"/>
<feColorMatrix type="matrix" values="0 0 0 0 0 0 0 0 0 0 0 0 0 0 0 0 0 0 0.25 0"/>
<feBlend mode="normal" in2="BackgroundImageFix" result="effect1_dropShadow_1_50"/>
<feBlend mode="normal" in="SourceGraphic" in2="effect1_dropShadow_1_50" result="shape"/>
</filter>
<filter id="filter1_d_1_50" x="6.28571" y="2.28571" width="51.4286" height="51.4286" filterUnits="userSpaceOnUse" color-interpolation-filters="sRGB">
<feFlood flood-opacity="0" result="BackgroundImageFix"/>
<feColorMatrix in="SourceAlpha" type="matrix" values="0 0 0 0 0 0 0 0 0 0 0 0 0 0 0 0 0 0 127 0" result="hardAlpha"/>
<feOffset/>
<feGaussianBlur stdDeviation="2.85714"/>
<feComposite in2="hardAlpha" operator="out"/>
<feColorMatrix type="matrix" values="0 0 0 0 0 0 0 0 0 0 0 0 0 0 0 0 0 0 0.25 0"/>
<feBlend mode="normal" in2="BackgroundImageFix" result="effect1_dropShadow_1_50"/>
<feBlend mode="normal" in="SourceGraphic" in2="effect1_dropShadow_1_50" result="shape"/>
</filter>
<filter id="filter2_d_1_50" x="54.4" y="3.9" width="180.2" height="48.6773" filterUnits="userSpaceOnUse" color-interpolation-filters="sRGB">
<feFlood flood-opacity="0" result="BackgroundImageFix"/>
<feColorMatrix in="SourceAlpha" type="matrix" values="0 0 0 0 0 0 0 0 0 0 0 0 0 0 0 0 0 0 127 0" result="hardAlpha"/>
<feOffset/>
<feGaussianBlur stdDeviation="2.8"/>
<feComposite in2="hardAlpha" operator="out"/>
<feColorMatrix type="matrix" values="0 0 0 0 0 0 0 0 0 0 0 0 0 0 0 0 0 0 0.25 0"/>
<feBlend mode="normal" in2="BackgroundImageFix" result="effect1_dropShadow_1_50"/>
<feBlend mode="normal" in="SourceGraphic" in2="effect1_dropShadow_1_50" result="shape"/>
</filter>
<linearGradient id="paint0_linear_1_50" x1="120.5" y1="0" x2="120.5" y2="56" gradientUnits="userSpaceOnUse">
<stop stop-color="#181F29"/>
<stop offset="1" stop-color="#0F131A"/>
</linearGradient>
</defs>
</svg>
