<svg width="40" height="40" viewBox="0 0 40 40" fill="none" xmlns="http://www.w3.org/2000/svg">
<rect width="40" height="40" rx="8" fill="url(#paint0_linear_1_68)"/>
<rect x="1.05" y="1.05" width="37.9" height="37.9" rx="6.95" stroke="white" stroke-opacity="0.15" stroke-width="2.1"/>
<g filter="url(#filter0_d_1_68)">
<path fill-rule="evenodd" clip-rule="evenodd" d="M19.796 6.07047C17.7617 6.79152 15.798 8.8961 13.9048 12.3842C11.065 17.6163 7.39729 25.0513 12.4478 30.938C14.7843 33.6614 18.6422 35.2687 23.7051 32.7231C27.7723 30.678 28.9034 24.8093 27.4432 22.0515C24.4312 16.3628 21.3753 14.9596 20.5569 11.4317C20.0114 9.07973 19.7578 7.29266 19.796 6.07047Z" fill="url(#paint1_linear_1_68)"/>
<path fill-rule="evenodd" clip-rule="evenodd" d="M19.796 6C17.7514 6.72849 15.7877 8.83307 13.9048 12.3137C11.0805 17.5347 7.39729 24.9809 12.4478 30.8676C14.7843 33.5909 18.5925 34.471 20.7056 32.8558C22.0832 31.8028 23.0201 30.7991 23.5599 28.6843C24.161 26.3296 23.6998 23.1594 23.3838 21.703C22.984 19.8601 22.8531 17.8375 22.9912 15.635C22.9425 15.5757 22.9062 15.5313 22.8821 15.5019C21.782 14.1556 20.9331 12.9829 20.5569 11.3612C20.0114 9.00927 19.7578 7.22219 19.796 6Z" fill="url(#paint2_linear_1_68)"/>
<path fill-rule="evenodd" clip-rule="evenodd" d="M18.1031 6.916C16.1987 8.42107 14.7828 10.9456 13.8553 14.4896C12.464 19.8055 12.3132 24.7077 12.8039 27.559C13.7551 33.0865 18.6865 35.1847 23.7447 32.6119C26.8575 31.0285 28.1541 27.6298 28.0854 23.9407C28.0143 20.1209 20.6327 15.7918 19.3255 12.6039C18.454 10.4786 18.0465 8.58267 18.1031 6.916Z" fill="url(#paint3_linear_1_68)"/>
<path fill-rule="evenodd" clip-rule="evenodd" d="M22.931 16.8824C25.2149 19.8114 25.7128 21.8504 24.4245 22.9993C22.4922 24.7226 17.7669 25.8471 14.8273 23.7624C12.8675 22.3726 12.126 19.3912 12.6028 14.8183C11.7938 16.5078 11.1098 18.2192 10.5507 19.9527C9.99172 21.6861 9.82847 23.5002 10.061 25.3948C10.7616 26.8121 12.465 27.7588 15.1712 28.2347C19.2305 28.9485 23.0725 28.5958 25.6505 27.2962C27.3692 26.4298 28.1821 25.5673 28.0893 24.7088C28.1513 23.441 27.7603 22.2341 26.9164 21.0882C26.0725 19.9422 24.744 18.5403 22.931 16.8824Z" fill="url(#paint4_linear_1_68)"/>
<path fill-rule="evenodd" clip-rule="evenodd" d="M14.0059 13.9577C13.9868 16.0731 14.5307 18.084 15.6377 19.9904C17.2981 22.8501 19.2362 25.6758 22.1365 28.0181C24.07 29.5796 25.6149 30.0841 26.7713 29.5316C25.8215 31.2314 24.8116 32.0644 23.7415 32.0304C22.1365 31.9794 20.1793 31.278 17.0436 27.5097C14.953 24.9975 13.5229 22.6211 12.7532 20.3806C12.8752 19.4917 13.0047 18.6064 13.1415 17.7246C13.2783 16.8428 13.5664 15.5872 14.0059 13.9577Z" fill="url(#paint5_linear_1_68)"/>
<path fill-rule="evenodd" clip-rule="evenodd" d="M18.9112 16.8607C19.0886 18.5839 19.7591 21.3405 18.9112 23.1758C18.0632 25.0111 14.1465 28.3267 15.2277 31.2474C16.3088 34.1682 18.9436 33.5124 20.5964 32.1664C22.2491 30.8204 23.1338 28.6317 23.3299 27.0925C23.526 25.5533 22.8607 22.5916 22.6444 20.0155C22.5001 18.2981 22.598 16.8256 22.938 15.5981L22.4315 14.9608L19.4506 14.0782C18.9727 14.7844 18.7929 15.7119 18.9112 16.8607Z" fill="url(#paint6_linear_1_68)"/>
<path fill-rule="evenodd" clip-rule="evenodd" d="M19.9752 8.32523C19.0104 8.73291 18.0964 9.5407 17.233 10.7486C15.9379 12.5605 15.2783 13.6466 15.7665 17.2381C16.092 19.6325 16.325 21.8353 16.4654 23.8465L20.6405 11.7159C20.487 11.0978 20.3594 10.5396 20.2575 10.0412C20.1557 9.54287 20.0616 8.97087 19.9752 8.32523Z" fill="url(#paint7_linear_1_68)"/>
<path fill-rule="evenodd" clip-rule="evenodd" d="M20.6325 11.6918C19.5727 12.3104 18.7514 13.5778 18.1687 15.494C17.5861 17.4102 17.0531 20.089 16.5696 23.5303C17.2144 21.3415 17.6421 19.7561 17.8528 18.7742C18.1687 17.3014 18.2767 15.2186 19.1156 13.8046C19.675 12.8619 20.1806 12.1576 20.6325 11.6918Z" fill="#330A4C" fill-opacity="0.316321"/>
<path fill-rule="evenodd" clip-rule="evenodd" d="M15.7251 32.2229C17.4693 32.4721 18.3813 32.6936 18.4612 32.8875C18.581 33.1783 18.2404 33.4443 17.2722 33.2655C16.6268 33.1464 16.1111 32.7988 15.7251 32.2229Z" fill="white"/>
<path fill-rule="evenodd" clip-rule="evenodd" d="M16.6013 8.32523C15.642 9.4713 14.8107 10.6863 14.1075 11.9703C13.4043 13.2542 12.9018 14.2121 12.6 14.8439C12.5065 15.3151 12.4609 16.0104 12.4631 16.9298C12.4653 17.8492 12.5449 18.8715 12.7017 19.9966C12.839 17.7934 13.2593 15.6548 13.9626 13.5808C14.6659 11.5068 15.5455 9.75498 16.6013 8.32523Z" fill="#EDEDED" fill-opacity="0.603261"/>
</g>
<defs>
<filter id="filter0_d_1_68" x="2" y="2" width="36" height="36" filterUnits="userSpaceOnUse" color-interpolation-filters="sRGB">
<feFlood flood-opacity="0" result="BackgroundImageFix"/>
<feColorMatrix in="SourceAlpha" type="matrix" values="0 0 0 0 0 0 0 0 0 0 0 0 0 0 0 0 0 0 127 0" result="hardAlpha"/>
<feOffset/>
<feGaussianBlur stdDeviation="2"/>
<feComposite in2="hardAlpha" operator="out"/>
<feColorMatrix type="matrix" values="0 0 0 0 0 0 0 0 0 0 0 0 0 0 0 0 0 0 0.25 0"/>
<feBlend mode="normal" in2="BackgroundImageFix" result="effect1_dropShadow_1_68"/>
<feBlend mode="normal" in="SourceGraphic" in2="effect1_dropShadow_1_68" result="shape"/>
</filter>
<linearGradient id="paint0_linear_1_68" x1="20" y1="0" x2="20" y2="40" gradientUnits="userSpaceOnUse">
<stop stop-color="#4B2A60"/>
<stop offset="0.9999" stop-color="#3D1756"/>
<stop offset="1" stop-color="#023E6D"/>
</linearGradient>
<linearGradient id="paint1_linear_1_68" x1="19.4041" y1="8.13418" x2="18.4328" y2="33.9789" gradientUnits="userSpaceOnUse">
<stop stop-color="#D9D8DC"/>
<stop offset="1" stop-color="white" stop-opacity="0.385275"/>
</linearGradient>
<linearGradient id="paint2_linear_1_68" x1="19.8432" y1="8.12766" x2="9.69199" y2="30.3762" gradientUnits="userSpaceOnUse">
<stop stop-color="#8D67AF" stop-opacity="0.671932"/>
<stop offset="1" stop-color="#9F8DAF"/>
</linearGradient>
<linearGradient id="paint3_linear_1_68" x1="20.9764" y1="15.3361" x2="20.9764" y2="33.2275" gradientUnits="userSpaceOnUse">
<stop stop-color="#26053D" stop-opacity="0.761634"/>
<stop offset="1" stop-color="#B7B4B4" stop-opacity="0.277683"/>
</linearGradient>
<linearGradient id="paint4_linear_1_68" x1="11.7964" y1="16.546" x2="16.3512" y2="28.6114" gradientUnits="userSpaceOnUse">
<stop stop-color="#91739F" stop-opacity="0.45955"/>
<stop offset="1" stop-color="#32054F" stop-opacity="0.539912"/>
</linearGradient>
<linearGradient id="paint5_linear_1_68" x1="23.9709" y1="31.3826" x2="11.4457" y2="21.0042" gradientUnits="userSpaceOnUse">
<stop stop-color="#463D49" stop-opacity="0.331182"/>
<stop offset="1" stop-color="#340A50" stop-opacity="0.821388"/>
</linearGradient>
<linearGradient id="paint6_linear_1_68" x1="21.3964" y1="15.5048" x2="12.5626" y2="28.9435" gradientUnits="userSpaceOnUse">
<stop stop-color="#715383" stop-opacity="0.145239"/>
<stop offset="1" stop-color="#F4F4F4" stop-opacity="0.233639"/>
</linearGradient>
<linearGradient id="paint7_linear_1_68" x1="22.2413" y1="19.6038" x2="15.9853" y2="19.2219" gradientUnits="userSpaceOnUse">
<stop stop-color="#A5A1A8" stop-opacity="0.356091"/>
<stop offset="1" stop-color="#370C50" stop-opacity="0.581975"/>
</linearGradient>
</defs>
</svg>
