<svg width="173" height="40" viewBox="0 0 173 40" fill="none" xmlns="http://www.w3.org/2000/svg">
<rect width="173.001" height="40.0014" rx="8" fill="url(#paint0_linear_1_56)"/>
<rect x="1.07143" y="1.07143" width="170.859" height="37.8585" rx="6.92857" stroke="white" stroke-opacity="0.15" stroke-width="2.14286"/>
<g filter="url(#filter0_d_1_56)">
<path fill-rule="evenodd" clip-rule="evenodd" d="M21.796 6.07047C19.7617 6.79152 17.798 8.8961 15.9048 12.3842C13.065 17.6163 9.39729 25.0513 14.4478 30.938C16.7843 33.6614 20.6422 35.2687 25.7051 32.7231C29.7723 30.678 30.9034 24.8093 29.4432 22.0515C26.4312 16.3628 23.3753 14.9596 22.5569 11.4317C22.0114 9.07973 21.7578 7.29266 21.796 6.07047Z" fill="url(#paint1_linear_1_56)"/>
<path fill-rule="evenodd" clip-rule="evenodd" d="M21.796 6C19.7514 6.72849 17.7877 8.83307 15.9048 12.3137C13.0805 17.5347 9.3973 24.9809 14.4478 30.8676C16.7843 33.5909 20.5925 34.471 22.7056 32.8558C24.0832 31.8028 25.0201 30.7991 25.5599 28.6843C26.161 26.3296 25.6998 23.1594 25.3838 21.703C24.984 19.8601 24.8531 17.8375 24.9912 15.635C24.9425 15.5757 24.9062 15.5313 24.8821 15.5019C23.782 14.1556 22.9331 12.9829 22.5569 11.3612C22.0114 9.00927 21.7578 7.22219 21.796 6Z" fill="url(#paint2_linear_1_56)"/>
<path fill-rule="evenodd" clip-rule="evenodd" d="M20.1031 6.916C18.1987 8.42107 16.7828 10.9456 15.8553 14.4896C14.464 19.8055 14.3132 24.7077 14.8039 27.559C15.7551 33.0865 20.6865 35.1847 25.7447 32.6119C28.8575 31.0285 30.1541 27.6298 30.0854 23.9407C30.0143 20.1209 22.6327 15.7918 21.3255 12.6039C20.454 10.4786 20.0465 8.58267 20.1031 6.916Z" fill="url(#paint3_linear_1_56)"/>
<path fill-rule="evenodd" clip-rule="evenodd" d="M24.931 16.8824C27.2149 19.8114 27.7128 21.8504 26.4245 22.9993C24.4922 24.7226 19.7669 25.8471 16.8273 23.7624C14.8675 22.3726 14.126 19.3912 14.6028 14.8183C13.7938 16.5078 13.1098 18.2192 12.5507 19.9527C11.9917 21.6861 11.8285 23.5002 12.061 25.3948C12.7616 26.8121 14.465 27.7588 17.1712 28.2347C21.2305 28.9485 25.0725 28.5958 27.6505 27.2962C29.3692 26.4298 30.1821 25.5673 30.0893 24.7088C30.1513 23.441 29.7603 22.2341 28.9164 21.0882C28.0725 19.9422 26.744 18.5403 24.931 16.8824Z" fill="url(#paint4_linear_1_56)"/>
<path fill-rule="evenodd" clip-rule="evenodd" d="M16.0059 13.9577C15.9868 16.0731 16.5307 18.084 17.6377 19.9904C19.2981 22.8501 21.2362 25.6758 24.1365 28.0181C26.07 29.5796 27.6149 30.0841 28.7713 29.5316C27.8215 31.2314 26.8116 32.0644 25.7415 32.0304C24.1365 31.9794 22.1793 31.278 19.0436 27.5097C16.953 24.9975 15.5229 22.6211 14.7532 20.3806C14.8752 19.4917 15.0047 18.6064 15.1415 17.7246C15.2783 16.8428 15.5664 15.5872 16.0059 13.9577Z" fill="url(#paint5_linear_1_56)"/>
<path fill-rule="evenodd" clip-rule="evenodd" d="M20.9112 16.8607C21.0886 18.5839 21.7591 21.3405 20.9112 23.1758C20.0632 25.0111 16.1465 28.3267 17.2277 31.2474C18.3088 34.1682 20.9436 33.5124 22.5964 32.1664C24.2491 30.8204 25.1338 28.6317 25.3299 27.0925C25.526 25.5533 24.8607 22.5916 24.6444 20.0155C24.5001 18.2981 24.598 16.8256 24.938 15.5981L24.4315 14.9608L21.4506 14.0782C20.9727 14.7844 20.7929 15.7119 20.9112 16.8607Z" fill="url(#paint6_linear_1_56)"/>
<path fill-rule="evenodd" clip-rule="evenodd" d="M21.9752 8.32523C21.0104 8.73291 20.0963 9.5407 19.233 10.7486C17.9379 12.5605 17.2782 13.6466 17.7665 17.2381C18.092 19.6325 18.325 21.8353 18.4654 23.8465L22.6405 11.7159C22.487 11.0978 22.3594 10.5396 22.2575 10.0412C22.1557 9.54287 22.0616 8.97087 21.9752 8.32523Z" fill="url(#paint7_linear_1_56)"/>
<path fill-rule="evenodd" clip-rule="evenodd" d="M22.6325 11.6918C21.5727 12.3104 20.7514 13.5778 20.1687 15.494C19.5861 17.4102 19.0531 20.089 18.5696 23.5303C19.2144 21.3415 19.6421 19.7561 19.8528 18.7742C20.1687 17.3014 20.2767 15.2186 21.1156 13.8046C21.675 12.8619 22.1806 12.1576 22.6325 11.6918Z" fill="#330A4C" fill-opacity="0.316321"/>
<path fill-rule="evenodd" clip-rule="evenodd" d="M17.7251 32.2229C19.4693 32.4721 20.3813 32.6936 20.4612 32.8875C20.581 33.1783 20.2404 33.4443 19.2722 33.2655C18.6268 33.1464 18.1111 32.7988 17.7251 32.2229Z" fill="white"/>
<path fill-rule="evenodd" clip-rule="evenodd" d="M18.6013 8.32523C17.642 9.4713 16.8107 10.6863 16.1075 11.9703C15.4043 13.2542 14.9018 14.2121 14.6 14.8439C14.5065 15.3151 14.4609 16.0104 14.4631 16.9298C14.4653 17.8492 14.5449 18.8715 14.7017 19.9966C14.839 17.7934 15.2593 15.6548 15.9626 13.5808C16.6659 11.5068 17.5455 9.75498 18.6013 8.32523Z" fill="#EDEDED" fill-opacity="0.603261"/>
</g>
<g filter="url(#filter1_d_1_56)">
<path d="M43.3597 26.5007V14.1371H47.8874C48.7648 14.1371 49.4912 14.282 50.0667 14.5717C50.6423 14.8575 51.0729 15.2458 51.3586 15.7369C51.6444 16.2238 51.7873 16.7732 51.7873 17.3849C51.7873 17.9001 51.6927 18.3347 51.5035 18.6889C51.3144 19.0391 51.0608 19.3208 50.7429 19.5341C50.429 19.7434 50.0828 19.8963 49.7045 19.9929V20.1136C50.115 20.1337 50.5155 20.2666 50.9059 20.5121C51.3003 20.7535 51.6263 21.0976 51.8839 21.5444C52.1414 21.9911 52.2702 22.5344 52.2702 23.1743C52.2702 23.8062 52.1213 24.3737 51.8235 24.8768C51.5297 25.3758 51.0749 25.7722 50.4591 26.066C49.8434 26.3558 49.0566 26.5007 48.0987 26.5007H43.3597ZM45.2251 24.9009H47.9176C48.8111 24.9009 49.451 24.7279 49.8373 24.3817C50.2237 24.0356 50.4169 23.603 50.4169 23.0838C50.4169 22.6934 50.3183 22.3352 50.1211 22.0092C49.9239 21.6832 49.6421 21.4236 49.2759 21.2305C48.9137 21.0373 48.483 20.9407 47.984 20.9407H45.2251V24.9009ZM45.2251 19.4858H47.7244C48.143 19.4858 48.5193 19.4053 48.8533 19.2443C49.1914 19.0833 49.459 18.8579 49.6562 18.5682C49.8575 18.2744 49.9581 17.9283 49.9581 17.5298C49.9581 17.0187 49.779 16.5901 49.4208 16.244C49.0626 15.8978 48.5132 15.7248 47.7727 15.7248H45.2251V19.4858ZM60.2118 22.6552V17.228H62.0229V26.5007H60.248V24.8949H60.1514C59.9381 25.3899 59.596 25.8024 59.1251 26.1324C58.6583 26.4584 58.0767 26.6214 57.3805 26.6214C56.7848 26.6214 56.2576 26.4906 55.7988 26.229C55.344 25.9634 54.9858 25.571 54.7242 25.0518C54.4667 24.5327 54.3379 23.8907 54.3379 23.1261V17.228H56.1429V22.9087C56.1429 23.5406 56.318 24.0437 56.6681 24.418C57.0183 24.7922 57.473 24.9794 58.0325 24.9794C58.3705 24.9794 58.7066 24.8949 59.0406 24.7258C59.3787 24.5568 59.6584 24.3012 59.8798 23.9591C60.1051 23.6171 60.2158 23.1824 60.2118 22.6552ZM64.4482 26.5007V17.228H66.2533V26.5007H64.4482ZM65.3598 15.7972C65.0459 15.7972 64.7762 15.6926 64.5508 15.4833C64.3295 15.27 64.2188 15.0164 64.2188 14.7226C64.2188 14.4248 64.3295 14.1713 64.5508 13.962C64.7762 13.7487 65.0459 13.642 65.3598 13.642C65.6737 13.642 65.9413 13.7487 66.1627 13.962C66.3881 14.1713 66.5008 14.4248 66.5008 14.7226C66.5008 15.0164 66.3881 15.27 66.1627 15.4833C65.9413 15.6926 65.6737 15.7972 65.3598 15.7972ZM70.4867 14.1371V26.5007H68.6816V14.1371H70.4867ZM77.2435 17.228V18.6768H72.1785V17.228H77.2435ZM73.5368 15.0064H75.3419V23.778C75.3419 24.1282 75.3942 24.3918 75.4988 24.5689C75.6035 24.7419 75.7383 24.8607 75.9033 24.9251C76.0723 24.9854 76.2554 25.0156 76.4526 25.0156C76.5975 25.0156 76.7243 25.0056 76.833 24.9854C76.9416 24.9653 77.0262 24.9492 77.0865 24.9371L77.4125 26.4283C77.3079 26.4685 77.159 26.5087 76.9658 26.549C76.7726 26.5933 76.5311 26.6174 76.2414 26.6214C75.7664 26.6295 75.3237 26.545 74.9132 26.3679C74.5027 26.1908 74.1707 25.9171 73.9171 25.5469C73.6636 25.1766 73.5368 24.7118 73.5368 24.1523V15.0064ZM85.7495 26.5007L83.0208 17.228H84.8862L86.7034 24.0376H86.7939L88.6171 17.228H90.4825L92.2936 24.0074H92.3841L94.1891 17.228H96.0546L93.3319 26.5007H91.4906L89.6071 19.8057H89.4683L87.5847 26.5007H85.7495ZM97.7675 26.5007V17.228H99.5726V26.5007H97.7675ZM98.6791 15.7972C98.3652 15.7972 98.0955 15.6926 97.8702 15.4833C97.6488 15.27 97.5381 15.0164 97.5381 14.7226C97.5381 14.4248 97.6488 14.1713 97.8702 13.962C98.0955 13.7487 98.3652 13.642 98.6791 13.642C98.993 13.642 99.2607 13.7487 99.482 13.962C99.7074 14.1713 99.8201 14.4248 99.8201 14.7226C99.8201 15.0164 99.7074 15.27 99.482 15.4833C99.2607 15.6926 98.993 15.7972 98.6791 15.7972ZM106.329 17.228V18.6768H101.264V17.228H106.329ZM102.623 15.0064H104.428V23.778C104.428 24.1282 104.48 24.3918 104.585 24.5689C104.689 24.7419 104.824 24.8607 104.989 24.9251C105.158 24.9854 105.341 25.0156 105.539 25.0156C105.683 25.0156 105.81 25.0056 105.919 24.9854C106.028 24.9653 106.112 24.9492 106.172 24.9371L106.498 26.4283C106.394 26.4685 106.245 26.5087 106.052 26.549C105.859 26.5933 105.617 26.6174 105.327 26.6214C104.852 26.6295 104.41 26.545 103.999 26.3679C103.589 26.1908 103.257 25.9171 103.003 25.5469C102.75 25.1766 102.623 24.7118 102.623 24.1523V15.0064ZM110.33 20.995V26.5007H108.525V14.1371H110.306V18.7372H110.421C110.638 18.2382 110.97 17.8417 111.417 17.5479C111.864 17.2541 112.447 17.1072 113.168 17.1072C113.804 17.1072 114.359 17.238 114.834 17.4996C115.313 17.7612 115.683 18.1516 115.945 18.6708C116.21 19.1859 116.343 19.8299 116.343 20.6026V26.5007H114.538V20.8199C114.538 20.1398 114.363 19.6126 114.013 19.2383C113.663 18.86 113.176 18.6708 112.552 18.6708C112.125 18.6708 111.743 18.7614 111.405 18.9425C111.071 19.1236 110.807 19.3892 110.614 19.7393C110.425 20.0855 110.33 20.504 110.33 20.995Z" fill="#E8E8E8"/>
<path d="M122.937 26.5007V14.1371H131.558V16.5639H125.925V19.0994H131.117V21.5323H125.925V24.0739H131.558V26.5007H122.937ZM136.381 14.1371V26.5007H133.429V14.1371H136.381ZM138.26 26.5007V17.228H141.212V26.5007H138.26ZM139.739 16.1474C139.325 16.1474 138.969 16.0105 138.671 15.7369C138.373 15.4592 138.224 15.1251 138.224 14.7347C138.224 14.3484 138.373 14.0183 138.671 13.7447C138.969 13.467 139.325 13.3281 139.739 13.3281C140.158 13.3281 140.514 13.467 140.808 13.7447C141.106 14.0183 141.255 14.3484 141.255 14.7347C141.255 15.1251 141.106 15.4592 140.808 15.7369C140.514 16.0105 140.158 16.1474 139.739 16.1474ZM145.603 17.228L147.13 20.2827L148.712 17.228H151.688L149.098 21.8643L151.785 26.5007H148.833L147.13 23.4219L145.47 26.5007H142.476L145.168 21.8643L142.608 17.228H145.603ZM153.036 26.5007V17.228H155.988V26.5007H153.036ZM154.515 16.1474C154.1 16.1474 153.744 16.0105 153.446 15.7369C153.148 15.4592 152.999 15.1251 152.999 14.7347C152.999 14.3484 153.148 14.0183 153.446 13.7447C153.744 13.467 154.1 13.3281 154.515 13.3281C154.933 13.3281 155.29 13.467 155.583 13.7447C155.881 14.0183 156.03 14.3484 156.03 14.7347C156.03 15.1251 155.881 15.4592 155.583 15.7369C155.29 16.0105 154.933 16.1474 154.515 16.1474ZM157.867 26.5007V17.228H160.734V18.9183H160.831C161 18.3066 161.276 17.8518 161.658 17.554C162.04 17.2521 162.485 17.1012 162.992 17.1012C163.129 17.1012 163.27 17.1113 163.415 17.1314C163.56 17.1475 163.694 17.1736 163.819 17.2099V19.7756C163.678 19.7273 163.493 19.689 163.264 19.6609C163.038 19.6327 162.837 19.6186 162.66 19.6186C162.31 19.6186 161.994 19.6971 161.712 19.854C161.435 20.007 161.215 20.2223 161.054 20.5C160.897 20.7737 160.819 21.0956 160.819 21.4659V26.5007H157.867Z" fill="#A58BBD"/>
</g>
<defs>
<filter id="filter0_d_1_56" x="2.39972" y="0.39972" width="39.202" height="39.202" filterUnits="userSpaceOnUse" color-interpolation-filters="sRGB">
<feFlood flood-opacity="0" result="BackgroundImageFix"/>
<feColorMatrix in="SourceAlpha" type="matrix" values="0 0 0 0 0 0 0 0 0 0 0 0 0 0 0 0 0 0 127 0" result="hardAlpha"/>
<feOffset/>
<feGaussianBlur stdDeviation="2.80014"/>
<feComposite in2="hardAlpha" operator="out"/>
<feColorMatrix type="matrix" values="0 0 0 0 0 0 0 0 0 0 0 0 0 0 0 0 0 0 0.25 0"/>
<feBlend mode="normal" in2="BackgroundImageFix" result="effect1_dropShadow_1_56"/>
<feBlend mode="normal" in="SourceGraphic" in2="effect1_dropShadow_1_56" result="shape"/>
</filter>
<filter id="filter1_d_1_56" x="36.2871" y="3.78642" width="134.429" height="32.4286" filterUnits="userSpaceOnUse" color-interpolation-filters="sRGB">
<feFlood flood-opacity="0" result="BackgroundImageFix"/>
<feColorMatrix in="SourceAlpha" type="matrix" values="0 0 0 0 0 0 0 0 0 0 0 0 0 0 0 0 0 0 127 0" result="hardAlpha"/>
<feOffset/>
<feGaussianBlur stdDeviation="2.85714"/>
<feComposite in2="hardAlpha" operator="out"/>
<feColorMatrix type="matrix" values="0 0 0 0 0 0 0 0 0 0 0 0 0 0 0 0 0 0 0.25 0"/>
<feBlend mode="normal" in2="BackgroundImageFix" result="effect1_dropShadow_1_56"/>
<feBlend mode="normal" in="SourceGraphic" in2="effect1_dropShadow_1_56" result="shape"/>
</filter>
<linearGradient id="paint0_linear_1_56" x1="86.5007" y1="0" x2="86.5007" y2="40.0014" gradientUnits="userSpaceOnUse">
<stop stop-color="#4B2A60"/>
<stop offset="1" stop-color="#3D1756"/>
</linearGradient>
<linearGradient id="paint1_linear_1_56" x1="21.4041" y1="8.13418" x2="20.4328" y2="33.9789" gradientUnits="userSpaceOnUse">
<stop stop-color="#D9D8DC"/>
<stop offset="1" stop-color="white" stop-opacity="0.385275"/>
</linearGradient>
<linearGradient id="paint2_linear_1_56" x1="21.8432" y1="8.12766" x2="11.692" y2="30.3762" gradientUnits="userSpaceOnUse">
<stop stop-color="#8D67AF" stop-opacity="0.671932"/>
<stop offset="1" stop-color="#9F8DAF"/>
</linearGradient>
<linearGradient id="paint3_linear_1_56" x1="22.9764" y1="15.3361" x2="22.9764" y2="33.2275" gradientUnits="userSpaceOnUse">
<stop stop-color="#26053D" stop-opacity="0.761634"/>
<stop offset="1" stop-color="#B7B4B4" stop-opacity="0.277683"/>
</linearGradient>
<linearGradient id="paint4_linear_1_56" x1="13.7964" y1="16.546" x2="18.3512" y2="28.6114" gradientUnits="userSpaceOnUse">
<stop stop-color="#91739F" stop-opacity="0.45955"/>
<stop offset="1" stop-color="#32054F" stop-opacity="0.539912"/>
</linearGradient>
<linearGradient id="paint5_linear_1_56" x1="25.9709" y1="31.3826" x2="13.4457" y2="21.0042" gradientUnits="userSpaceOnUse">
<stop stop-color="#463D49" stop-opacity="0.331182"/>
<stop offset="1" stop-color="#340A50" stop-opacity="0.821388"/>
</linearGradient>
<linearGradient id="paint6_linear_1_56" x1="23.3964" y1="15.5048" x2="14.5626" y2="28.9435" gradientUnits="userSpaceOnUse">
<stop stop-color="#715383" stop-opacity="0.145239"/>
<stop offset="1" stop-color="#F4F4F4" stop-opacity="0.233639"/>
</linearGradient>
<linearGradient id="paint7_linear_1_56" x1="24.2413" y1="19.6038" x2="17.9853" y2="19.2219" gradientUnits="userSpaceOnUse">
<stop stop-color="#A5A1A8" stop-opacity="0.356091"/>
<stop offset="1" stop-color="#370C50" stop-opacity="0.581975"/>
</linearGradient>
</defs>
</svg>
