<svg width="144" height="56" viewBox="0 0 144 56" fill="none" xmlns="http://www.w3.org/2000/svg">
<rect width="144" height="56" rx="8" fill="url(#paint0_linear_1_50)"/>
<rect x="1.05" y="1.05" width="141.9" height="53.9" rx="6.95" stroke="white" stroke-opacity="0.15" stroke-width="2.1"/>
<g filter="url(#filter0_d_1_50)">
<path fill-rule="evenodd" clip-rule="evenodd" d="M31.7086 8.10066C28.8025 9.13074 25.9972 12.1373 23.2926 17.1203C19.2358 24.5948 13.9961 35.2162 21.2111 43.6257C24.549 47.5163 30.0603 49.8124 37.293 46.1758C43.1033 43.2544 44.7192 34.8705 42.6332 30.9308C38.3302 22.8039 33.9646 20.7995 32.7956 15.7596C32.0163 12.3996 31.6539 9.84665 31.7086 8.10066Z" fill="url(#paint1_linear_1_50)"/>
<path fill-rule="evenodd" clip-rule="evenodd" d="M31.7086 8C28.7878 9.0407 25.9824 12.0472 23.2926 17.0196C19.2579 24.4782 13.9961 35.1155 21.2111 43.5251C24.549 47.4156 29.9893 48.6728 33.0081 46.3654C34.976 44.8612 36.3145 43.4273 37.0856 40.4062C37.9442 37.0423 37.2854 32.5134 36.834 30.4329C36.2628 27.8002 36.0758 24.9107 36.2731 21.7643C36.2036 21.6796 36.1517 21.6162 36.1173 21.5741C34.5457 19.6508 33.333 17.9755 32.7956 15.6589C32.0163 12.299 31.6539 9.74599 31.7086 8Z" fill="url(#paint2_linear_1_50)"/>
<path fill-rule="evenodd" clip-rule="evenodd" d="M29.2901 9.30857C26.5696 11.4587 24.5468 15.0651 23.2218 20.1279C21.2343 27.7222 21.0189 34.7253 21.7199 38.7986C23.0787 46.695 30.1235 49.6924 37.3495 46.0169C41.7965 43.755 43.6487 38.8997 43.5505 33.6296C43.4489 28.1727 32.9039 21.9882 31.0364 17.4341C29.7914 14.398 29.2093 11.6895 29.2901 9.30857Z" fill="url(#paint3_linear_1_50)"/>
<path fill-rule="evenodd" clip-rule="evenodd" d="M36.1871 23.5463C39.4499 27.7306 40.1611 30.6434 38.3208 32.2847C35.5603 34.7466 28.8099 36.3529 24.6104 33.3748C21.8107 31.3895 20.7515 27.1303 21.4325 20.5975C20.2768 23.0111 19.2997 25.4561 18.5011 27.9324C17.7025 30.4088 17.4692 33.0002 17.8014 35.7068C18.8023 37.7316 21.2357 39.0839 25.1017 39.7638C30.9007 40.7835 36.3893 40.2797 40.0721 38.4231C42.5274 37.1854 43.6887 35.9533 43.5561 34.7269C43.6447 32.9157 43.0862 31.1916 41.8806 29.5545C40.6749 27.9174 38.7771 25.9147 36.1871 23.5463Z" fill="url(#paint4_linear_1_50)"/>
<path fill-rule="evenodd" clip-rule="evenodd" d="M23.437 19.3681C23.4098 22.3901 24.1868 25.2628 25.7681 27.9863C28.1401 32.0716 30.9089 36.1083 35.0521 39.4544C37.8142 41.6851 40.0213 42.4058 41.6733 41.6165C40.3164 44.0449 38.8737 45.2348 37.345 45.1863C35.0521 45.1135 32.2562 44.1114 27.7765 38.7281C24.79 35.1393 22.747 31.7445 21.6474 28.5437C21.8217 27.2739 22.0067 26.0091 22.2021 24.7494C22.3975 23.4897 22.8092 21.6959 23.437 19.3681Z" fill="url(#paint5_linear_1_50)"/>
<path fill-rule="evenodd" clip-rule="evenodd" d="M30.4445 23.5153C30.698 25.977 31.6559 29.915 30.4445 32.5369C29.2332 35.1588 23.6379 39.8953 25.1824 44.0678C26.7269 48.2402 30.4909 47.3035 32.852 45.3806C35.2131 43.4577 36.4769 40.331 36.757 38.1322C37.0371 35.9333 36.0868 31.7023 35.7777 28.0222C35.5716 25.5687 35.7114 23.4652 36.1971 21.7115L35.4736 20.8011L31.2152 19.5403C30.5325 20.5491 30.2756 21.8741 30.4445 23.5153Z" fill="url(#paint6_linear_1_50)"/>
<path fill-rule="evenodd" clip-rule="evenodd" d="M31.9646 11.3218C30.5863 11.9042 29.2805 13.0581 28.0471 14.7837C26.197 17.3721 25.2546 18.9237 25.9521 24.0545C26.4172 27.475 26.75 30.6218 26.9506 33.4949L32.915 16.1656C32.6958 15.2826 32.5134 14.4851 32.3679 13.7732C32.2224 13.0612 32.088 12.2441 31.9646 11.3218Z" fill="url(#paint7_linear_1_50)"/>
<path fill-rule="evenodd" clip-rule="evenodd" d="M32.9036 16.1311C31.3895 17.0149 30.2163 18.8254 29.3839 21.5629C28.5516 24.3003 27.7901 28.1271 27.0995 33.0433C28.0206 29.9164 28.6316 27.6516 28.9325 26.2489C29.3839 24.1448 29.5381 21.1694 30.7366 19.1494C31.5357 17.8027 32.258 16.7966 32.9036 16.1311Z" fill="#330A4C" fill-opacity="0.316321"/>
<path fill-rule="evenodd" clip-rule="evenodd" d="M25.893 45.4612C28.3847 45.8172 29.6876 46.1337 29.8017 46.4107C29.9729 46.8261 29.4863 47.2062 28.1032 46.9508C27.1811 46.7805 26.4444 46.284 25.893 45.4612Z" fill="white"/>
<path fill-rule="evenodd" clip-rule="evenodd" d="M27.1448 11.3218C25.7743 12.959 24.5867 14.6947 23.5821 16.529C22.5775 18.3632 21.8597 19.7316 21.4286 20.6342C21.295 21.3073 21.2298 22.3006 21.233 23.6141C21.2362 24.9275 21.3498 26.3878 21.5738 27.9952C21.77 24.8477 22.3704 21.7925 23.3751 18.8297C24.3799 15.8669 25.6364 13.3643 27.1448 11.3218Z" fill="#EDEDED" fill-opacity="0.603261"/>
</g>
<g filter="url(#filter1_d_1_50)">
<path d="M61.2784 24.5V12.8636H65.5398C66.3655 12.8636 67.0492 13 67.5909 13.2727C68.1326 13.5417 68.5379 13.9072 68.8068 14.3693C69.0757 14.8276 69.2102 15.3447 69.2102 15.9204C69.2102 16.4053 69.1212 16.8144 68.9432 17.1477C68.7651 17.4773 68.5265 17.7424 68.2273 17.9432C67.9318 18.1401 67.606 18.2841 67.25 18.375V18.4886C67.6363 18.5076 68.0132 18.6326 68.3807 18.8636C68.7519 19.0909 69.0587 19.4148 69.3011 19.8352C69.5435 20.2557 69.6648 20.767 69.6648 21.3693C69.6648 21.964 69.5246 22.4981 69.2443 22.9716C68.9678 23.4413 68.5398 23.8144 67.9602 24.0909C67.3807 24.3636 66.6401 24.5 65.7386 24.5H61.2784ZM63.0341 22.9943H65.5682C66.4091 22.9943 67.0113 22.8314 67.375 22.5057C67.7386 22.1799 67.9204 21.7727 67.9204 21.2841C67.9204 20.9167 67.8276 20.5795 67.642 20.2727C67.4564 19.9659 67.1913 19.7216 66.8466 19.5398C66.5057 19.3579 66.1004 19.267 65.6307 19.267H63.0341V22.9943ZM63.0341 17.8977H65.3863C65.7803 17.8977 66.1345 17.822 66.4488 17.6704C66.767 17.5189 67.0189 17.3068 67.2045 17.0341C67.3939 16.7576 67.4886 16.4318 67.4886 16.0568C67.4886 15.5758 67.3201 15.1723 66.9829 14.8466C66.6458 14.5208 66.1288 14.3579 65.4318 14.3579H63.0341V17.8977ZM77.1392 20.8807V15.7727H78.8437V24.5H77.1733V22.9886H77.0824C76.8816 23.4545 76.5596 23.8428 76.1165 24.1534C75.6771 24.4602 75.1297 24.6136 74.4744 24.6136C73.9138 24.6136 73.4176 24.4905 72.9858 24.2443C72.5577 23.9943 72.2206 23.625 71.9744 23.1364C71.732 22.6477 71.6108 22.0436 71.6108 21.3239V15.7727H73.3096V21.1193C73.3096 21.714 73.4744 22.1875 73.804 22.5398C74.1335 22.892 74.5615 23.0682 75.088 23.0682C75.4062 23.0682 75.7225 22.9886 76.0369 22.8295C76.3551 22.6704 76.6184 22.4299 76.8267 22.1079C77.0388 21.786 77.143 21.3769 77.1392 20.8807ZM81.1264 24.5V15.7727H82.8253V24.5H81.1264ZM81.9844 14.4261C81.6889 14.4261 81.4351 14.3276 81.223 14.1307C81.0147 13.9299 80.9105 13.6913 80.9105 13.4148C80.9105 13.1345 81.0147 12.8958 81.223 12.6989C81.4351 12.4981 81.6889 12.3977 81.9844 12.3977C82.2798 12.3977 82.5317 12.4981 82.74 12.6989C82.9522 12.8958 83.0582 13.1345 83.0582 13.4148C83.0582 13.6913 82.9522 13.9299 82.74 14.1307C82.5317 14.3276 82.2798 14.4261 81.9844 14.4261ZM86.8096 12.8636V24.5H85.1108V12.8636H86.8096ZM93.169 15.7727V17.1364H88.402V15.7727H93.169ZM89.6804 13.6818H91.3792V21.9375C91.3792 22.267 91.4285 22.5151 91.527 22.6818C91.6254 22.8447 91.7523 22.9564 91.9076 23.017C92.0667 23.0739 92.2391 23.1023 92.4247 23.1023C92.5611 23.1023 92.6804 23.0928 92.7826 23.0739C92.8849 23.0549 92.9645 23.0398 93.0213 23.0284L93.3281 24.4318C93.2296 24.4697 93.0895 24.5076 92.9076 24.5454C92.7258 24.5871 92.4986 24.6098 92.2258 24.6136C91.7789 24.6212 91.3622 24.5417 90.9758 24.375C90.5895 24.2083 90.277 23.9508 90.0383 23.6023C89.7997 23.2538 89.6804 22.8163 89.6804 22.2898V13.6818ZM101.175 24.5L98.6065 15.7727H100.362L102.072 22.1818H102.158L103.874 15.7727H105.629L107.334 22.1534H107.419L109.118 15.7727H110.874L108.311 24.5H106.578L104.805 18.1989H104.675L102.902 24.5H101.175ZM112.486 24.5V15.7727H114.185V24.5H112.486ZM113.344 14.4261C113.048 14.4261 112.794 14.3276 112.582 14.1307C112.374 13.9299 112.27 13.6913 112.27 13.4148C112.27 13.1345 112.374 12.8958 112.582 12.6989C112.794 12.4981 113.048 12.3977 113.344 12.3977C113.639 12.3977 113.891 12.4981 114.099 12.6989C114.312 12.8958 114.418 13.1345 114.418 13.4148C114.418 13.6913 114.312 13.9299 114.099 14.1307C113.891 14.3276 113.639 14.4261 113.344 14.4261ZM120.544 15.7727V17.1364H115.777V15.7727H120.544ZM117.055 13.6818H118.754V21.9375C118.754 22.267 118.803 22.5151 118.902 22.6818C119 22.8447 119.127 22.9564 119.283 23.017C119.442 23.0739 119.614 23.1023 119.8 23.1023C119.936 23.1023 120.055 23.0928 120.158 23.0739C120.26 23.0549 120.339 23.0398 120.396 23.0284L120.703 24.4318C120.605 24.4697 120.464 24.5076 120.283 24.5454C120.101 24.5871 119.874 24.6098 119.601 24.6136C119.154 24.6212 118.737 24.5417 118.351 24.375C117.964 24.2083 117.652 23.9508 117.413 23.6023C117.175 23.2538 117.055 22.8163 117.055 22.2898V13.6818ZM124.31 19.3182V24.5H122.611V12.8636H124.287V17.1932H124.395C124.599 16.7235 124.912 16.3504 125.332 16.0739C125.753 15.7973 126.302 15.6591 126.98 15.6591C127.579 15.6591 128.101 15.7822 128.548 16.0284C128.999 16.2746 129.348 16.642 129.594 17.1307C129.844 17.6155 129.969 18.2216 129.969 18.9489V24.5H128.27V19.1534C128.27 18.5133 128.105 18.017 127.776 17.6648C127.446 17.3087 126.988 17.1307 126.401 17.1307C125.999 17.1307 125.639 17.2159 125.321 17.3864C125.007 17.5568 124.758 17.8068 124.577 18.1364C124.399 18.4621 124.31 18.8561 124.31 19.3182Z" fill="#E8E8E8"/>
<path d="M60.9357 43.5V31.1364H69.5564V33.5632H63.924V36.0987H69.1157V38.5316H63.924V41.0731H69.5564V43.5H60.9357ZM74.38 31.1364V43.5H71.4279V31.1364H74.38ZM76.2589 43.5V34.2273H79.211V43.5H76.2589ZM77.738 33.1467C77.3235 33.1467 76.9673 33.0098 76.6695 32.7361C76.3716 32.4584 76.2227 32.1244 76.2227 31.734C76.2227 31.3476 76.3716 31.0176 76.6695 30.744C76.9673 30.4663 77.3235 30.3274 77.738 30.3274C78.1566 30.3274 78.5127 30.4663 78.8065 30.744C79.1044 31.0176 79.2533 31.3476 79.2533 31.734C79.2533 32.1244 79.1044 32.4584 78.8065 32.7361C78.5127 33.0098 78.1566 33.1467 77.738 33.1467ZM83.6014 34.2273L85.1287 37.2819L86.7104 34.2273H89.6866L87.0967 38.8636L89.7832 43.5H86.8311L85.1287 40.4212L83.4686 43.5H80.4742L83.1667 38.8636L80.607 34.2273H83.6014ZM91.0343 43.5V34.2273H93.9864V43.5H91.0343ZM92.5134 33.1467C92.0988 33.1467 91.7427 33.0098 91.4448 32.7361C91.147 32.4584 90.9981 32.1244 90.9981 31.734C90.9981 31.3476 91.147 31.0176 91.4448 30.744C91.7427 30.4663 92.0988 30.3274 92.5134 30.3274C92.9319 30.3274 93.2881 30.4663 93.5819 30.744C93.8797 31.0176 94.0287 31.3476 94.0287 31.734C94.0287 32.1244 93.8797 32.4584 93.5819 32.7361C93.2881 33.0098 92.9319 33.1467 92.5134 33.1467ZM95.8654 43.5V34.2273H98.7329V35.9176H98.8295C98.9986 35.3059 99.2742 34.8511 99.6566 34.5533C100.039 34.2514 100.484 34.1005 100.991 34.1005C101.128 34.1005 101.268 34.1105 101.413 34.1307C101.558 34.1468 101.693 34.1729 101.818 34.2092V36.7748C101.677 36.7266 101.492 36.6883 101.262 36.6601C101.037 36.632 100.836 36.6179 100.659 36.6179C100.309 36.6179 99.9926 36.6964 99.7109 36.8533C99.4332 37.0063 99.2139 37.2216 99.0529 37.4993C98.8959 37.773 98.8174 38.0949 98.8174 38.4652V43.5H95.8654Z" fill="#A58BBD"/>
</g>
<defs>
<filter id="filter0_d_1_50" x="6.28571" y="2.28571" width="51.4286" height="51.4286" filterUnits="userSpaceOnUse" color-interpolation-filters="sRGB">
<feFlood flood-opacity="0" result="BackgroundImageFix"/>
<feColorMatrix in="SourceAlpha" type="matrix" values="0 0 0 0 0 0 0 0 0 0 0 0 0 0 0 0 0 0 127 0" result="hardAlpha"/>
<feOffset/>
<feGaussianBlur stdDeviation="2.85714"/>
<feComposite in2="hardAlpha" operator="out"/>
<feColorMatrix type="matrix" values="0 0 0 0 0 0 0 0 0 0 0 0 0 0 0 0 0 0 0.25 0"/>
<feBlend mode="normal" in2="BackgroundImageFix" result="effect1_dropShadow_1_50"/>
<feBlend mode="normal" in="SourceGraphic" in2="effect1_dropShadow_1_50" result="shape"/>
</filter>
<filter id="filter1_d_1_50" x="54.4" y="3.9" width="83.2" height="48.2" filterUnits="userSpaceOnUse" color-interpolation-filters="sRGB">
<feFlood flood-opacity="0" result="BackgroundImageFix"/>
<feColorMatrix in="SourceAlpha" type="matrix" values="0 0 0 0 0 0 0 0 0 0 0 0 0 0 0 0 0 0 127 0" result="hardAlpha"/>
<feOffset/>
<feGaussianBlur stdDeviation="2.8"/>
<feComposite in2="hardAlpha" operator="out"/>
<feColorMatrix type="matrix" values="0 0 0 0 0 0 0 0 0 0 0 0 0 0 0 0 0 0 0.25 0"/>
<feBlend mode="normal" in2="BackgroundImageFix" result="effect1_dropShadow_1_50"/>
<feBlend mode="normal" in="SourceGraphic" in2="effect1_dropShadow_1_50" result="shape"/>
</filter>
<linearGradient id="paint0_linear_1_50" x1="72" y1="0" x2="72" y2="56" gradientUnits="userSpaceOnUse">
<stop stop-color="#06628B"/>
<stop offset="0.0001" stop-color="#4B2A60"/>
<stop offset="0.0002" stop-color="#4B2A60"/>
<stop offset="1" stop-color="#3D1756"/>
</linearGradient>
<linearGradient id="paint1_linear_1_50" x1="31.1488" y1="11.0488" x2="29.7612" y2="47.9698" gradientUnits="userSpaceOnUse">
<stop stop-color="#D9D8DC"/>
<stop offset="1" stop-color="white" stop-opacity="0.385275"/>
</linearGradient>
<linearGradient id="paint2_linear_1_50" x1="31.776" y1="11.0395" x2="17.2743" y2="42.8232" gradientUnits="userSpaceOnUse">
<stop stop-color="#8D67AF" stop-opacity="0.671932"/>
<stop offset="1" stop-color="#9F8DAF"/>
</linearGradient>
<linearGradient id="paint3_linear_1_50" x1="33.3948" y1="21.3374" x2="33.3948" y2="46.8965" gradientUnits="userSpaceOnUse">
<stop stop-color="#26053D" stop-opacity="0.761634"/>
<stop offset="1" stop-color="#B7B4B4" stop-opacity="0.277683"/>
</linearGradient>
<linearGradient id="paint4_linear_1_50" x1="20.2806" y1="23.0658" x2="26.7874" y2="40.3019" gradientUnits="userSpaceOnUse">
<stop stop-color="#91739F" stop-opacity="0.45955"/>
<stop offset="1" stop-color="#32054F" stop-opacity="0.539912"/>
</linearGradient>
<linearGradient id="paint5_linear_1_50" x1="37.6727" y1="44.2608" x2="19.7796" y2="29.4346" gradientUnits="userSpaceOnUse">
<stop stop-color="#463D49" stop-opacity="0.331182"/>
<stop offset="1" stop-color="#340A50" stop-opacity="0.821388"/>
</linearGradient>
<linearGradient id="paint6_linear_1_50" x1="33.9949" y1="21.5783" x2="21.3751" y2="40.7764" gradientUnits="userSpaceOnUse">
<stop stop-color="#715383" stop-opacity="0.145239"/>
<stop offset="1" stop-color="#F4F4F4" stop-opacity="0.233639"/>
</linearGradient>
<linearGradient id="paint7_linear_1_50" x1="35.2018" y1="27.4339" x2="26.2648" y2="26.8884" gradientUnits="userSpaceOnUse">
<stop stop-color="#A5A1A8" stop-opacity="0.356091"/>
<stop offset="1" stop-color="#370C50" stop-opacity="0.581975"/>
</linearGradient>
</defs>
</svg>
