<svg width="56" height="56" viewBox="0 0 56 56" fill="none" xmlns="http://www.w3.org/2000/svg">
<rect width="56" height="56" rx="8.4" fill="url(#paint0_linear_1_62)"/>
<rect x="1.05" y="1.05" width="53.9" height="53.9" rx="7.35" stroke="white" stroke-opacity="0.15" stroke-width="2.1"/>
<g filter="url(#filter0_d_1_62)">
<path d="M47.9972 19.0792C47.9949 18.6769 47.9904 18.2748 47.9793 17.8721C47.9559 16.996 47.9041 16.112 47.7483 15.2452C47.5903 14.365 47.3321 13.5466 46.925 12.747C46.5254 11.9618 46.003 11.2432 45.3799 10.6201C44.7569 9.99694 44.0384 9.47464 43.2528 9.07485C42.4539 8.66825 41.6353 8.41003 40.7559 8.25203C39.8887 8.09584 39.0047 8.04438 38.1279 8.02068C37.7253 8.00977 37.3232 8.00519 36.9208 8.00269C36.4431 8 35.9651 8 35.4876 8H24.899H20.5125C20.0345 8 19.557 8 19.0795 8.00276C18.677 8.00525 18.2743 8.00983 17.8724 8.02074C17.6532 8.02667 17.4336 8.03435 17.2138 8.04492C16.5546 8.07671 15.8944 8.13497 15.2443 8.25209C14.5847 8.37063 13.9593 8.54547 13.3509 8.79702C13.1481 8.88081 12.9471 8.97321 12.7474 9.07485C12.1582 9.37469 11.6066 9.74343 11.1049 10.1719C10.9376 10.3148 10.7759 10.4642 10.6202 10.62C9.99697 11.2431 9.4746 11.9617 9.07501 12.7469C8.66794 13.5465 8.40999 14.3649 8.25185 15.2452C8.09627 16.1119 8.04454 16.9959 8.02097 17.872C8.00993 18.2748 8.00528 18.6769 8.00265 19.0791C7.99962 19.5569 8.00003 20.0348 8.00003 20.5124V27.0332V35.4874C8.00003 35.9655 7.99955 36.4429 8.00265 36.921C8.00528 37.3233 8.00993 37.7254 8.02097 38.1275C8.04454 39.004 8.0962 39.8883 8.25185 40.7546C8.40999 41.6345 8.66794 42.4537 9.07501 43.2531C9.4746 44.0385 9.99697 44.7569 10.6202 45.3797C11.243 46.0031 11.9618 46.5254 12.7474 46.9254C13.5464 47.3321 14.3649 47.59 15.2445 47.748C16.1112 47.904 16.9959 47.9558 17.8725 47.9793C18.2744 47.99 18.677 47.9948 19.0796 47.997C19.5571 48.0005 20.0345 48 20.5125 48H35.4876C35.9651 48 36.4431 48.0005 36.9207 47.997C37.3231 47.9948 37.7253 47.99 38.1278 47.9793C39.0046 47.9558 39.8886 47.9039 40.7558 47.748C41.6352 47.59 42.4538 47.332 43.2527 46.9254C44.0383 46.5254 44.7568 46.0031 45.3798 45.3797C46.003 44.7568 46.5254 44.0385 46.9249 43.2531C47.332 42.4537 47.5903 41.6346 47.7483 40.7546C47.904 39.8883 47.9558 39.004 47.9792 38.1275C47.9903 37.7254 47.9947 37.3234 47.9971 36.921C48.0002 36.4429 48 35.9655 48 35.4874V20.5124C48 20.0348 48.0002 19.5569 47.9972 19.0792Z" fill="#F05138"/>
<path d="M39.6955 32.6911C39.6946 32.6899 39.6937 32.689 39.6927 32.6879C39.7369 32.5373 39.7826 32.3876 39.8213 32.2333C41.4815 25.6189 37.4296 17.7988 30.573 13.6813C33.5777 17.7546 34.9063 22.6883 33.7259 27.0029C33.6206 27.3878 33.4941 27.7571 33.3542 28.1161C33.2024 28.0163 33.0111 27.9031 32.7542 27.7615C32.7542 27.7615 25.9337 23.5503 18.5414 16.1016C18.3474 15.9061 22.4833 22.013 27.177 26.9719C24.9656 25.7309 18.8028 21.2469 14.9013 17.676C15.3807 18.4754 15.9508 19.2452 16.5775 19.9862C19.8356 24.1181 24.0845 29.2162 29.1749 33.1309C25.5983 35.3197 20.5446 35.4899 15.5127 33.1332C14.2682 32.55 13.0982 31.8462 12.0151 31.0466C14.1451 34.4536 17.4255 37.393 21.4181 39.109C26.1794 41.1552 30.9142 41.0164 34.4407 39.1426L34.4379 39.1466C34.454 39.1364 34.4745 39.1253 34.4912 39.115C34.636 39.0372 34.7797 38.9579 34.9203 38.8742C36.6146 37.9947 39.9613 37.1024 41.7576 40.5975C42.1975 41.4529 43.1323 36.9199 39.6955 32.6911Z" fill="white"/>
</g>
<defs>
<filter id="filter0_d_1_62" x="2.28571" y="2.28571" width="51.4286" height="51.4286" filterUnits="userSpaceOnUse" color-interpolation-filters="sRGB">
<feFlood flood-opacity="0" result="BackgroundImageFix"/>
<feColorMatrix in="SourceAlpha" type="matrix" values="0 0 0 0 0 0 0 0 0 0 0 0 0 0 0 0 0 0 127 0" result="hardAlpha"/>
<feOffset/>
<feGaussianBlur stdDeviation="2.85714"/>
<feComposite in2="hardAlpha" operator="out"/>
<feColorMatrix type="matrix" values="0 0 0 0 0 0 0 0 0 0 0 0 0 0 0 0 0 0 0.25 0"/>
<feBlend mode="normal" in2="BackgroundImageFix" result="effect1_dropShadow_1_62"/>
<feBlend mode="normal" in="SourceGraphic" in2="effect1_dropShadow_1_62" result="shape"/>
</filter>
<linearGradient id="paint0_linear_1_62" x1="28" y1="0" x2="28" y2="56" gradientUnits="userSpaceOnUse">
<stop stop-color="#A5210C"/>
<stop offset="0.9995" stop-color="#6E1608"/>
<stop offset="0.9996" stop-color="#3D1756"/>
<stop offset="0.9997" stop-color="#023E6D"/>
<stop offset="0.9998" stop-color="#2B253E"/>
<stop offset="0.9999" stop-color="#260300"/>
<stop offset="1" stop-color="#00002D"/>
<stop offset="1" stop-color="#6E1608"/>
</linearGradient>
</defs>
</svg>
