<svg width="40" height="40" viewBox="0 0 40 40" fill="none" xmlns="http://www.w3.org/2000/svg">
<rect width="40" height="40" rx="8" fill="url(#paint0_linear_1_68)"/>
<rect x="1.05" y="1.05" width="37.9" height="37.9" rx="6.95" stroke="white" stroke-opacity="0.15" stroke-width="2.1"/>
<g filter="url(#filter0_d_1_68)">
<path d="M29.9765 9.70492C27.3901 5.9795 22.2409 4.88797 18.5392 7.23712L12.0138 11.4134C10.2341 12.5286 9.00025 14.3558 8.64431 16.4202C8.33584 18.1524 8.59686 19.932 9.42737 21.4744C8.85787 22.3286 8.47821 23.2778 8.31211 24.2744C7.93245 26.3863 8.43076 28.5693 9.66465 30.3015C12.2748 34.027 17.4002 35.1185 21.1019 32.7693L27.6274 28.6168C29.407 27.5015 30.6409 25.6744 30.9969 23.61C31.3053 21.8778 31.0443 20.0981 30.2138 18.5558C30.7833 17.7015 31.163 16.7524 31.3291 15.7558C31.7324 13.6202 31.2341 11.4371 29.9765 9.70492Z" fill="#FF3E00"/>
<path d="M17.8986 30.6575C15.7867 31.2032 13.5799 30.3727 12.346 28.5931C11.5867 27.549 11.3019 26.2439 11.5155 24.9625C11.563 24.749 11.6104 24.5592 11.6579 24.3456L11.7765 23.9659L12.1087 24.2032C12.8918 24.7727 13.746 25.1998 14.6714 25.4846L14.9087 25.5558L14.885 25.7931C14.8613 26.1253 14.9562 26.4812 15.146 26.7659C15.5257 27.3117 16.1901 27.5727 16.8308 27.4066C16.9731 27.3592 17.1155 27.3117 17.2341 27.2405L23.7358 23.088C24.068 22.8744 24.2816 22.5659 24.3528 22.1863C24.424 21.8066 24.3291 21.4032 24.1155 21.0947C23.7358 20.549 23.0714 20.3117 22.4308 20.4778C22.2884 20.5253 22.146 20.5727 22.0274 20.6439L19.5358 22.2337C19.1324 22.4947 18.6816 22.6846 18.207 22.8032C16.0952 23.349 13.8884 22.5185 12.6545 20.7388C11.9189 19.6947 11.6104 18.3897 11.8477 17.1083C12.0613 15.8744 12.8206 14.7592 13.8884 14.0947L20.4138 9.94221C20.8172 9.68119 21.268 9.49136 21.7426 9.34898C23.8545 8.80322 26.0613 9.63373 27.2952 11.4134C28.0545 12.4575 28.3392 13.7625 28.1257 15.0439C28.0782 15.2575 28.0308 15.4473 27.9596 15.6608L27.8409 16.0405L27.5087 15.8032C26.7257 15.2337 25.8714 14.8066 24.946 14.5219L24.7087 14.4507L24.7324 14.2134C24.7562 13.8812 24.6613 13.5253 24.4714 13.2405C24.0918 12.6947 23.4274 12.4575 22.7867 12.6236C22.6443 12.671 22.5019 12.7185 22.3833 12.7897L15.8816 16.9422C15.5494 17.1558 15.3358 17.4642 15.2647 17.8439C15.1935 18.2236 15.2884 18.627 15.5019 18.9354C15.8816 19.4812 16.546 19.7185 17.1867 19.5524C17.3291 19.5049 17.4714 19.4575 17.5901 19.3863L20.0816 17.7964C20.485 17.5354 20.9358 17.3456 21.4104 17.2032C23.5223 16.6575 25.7291 17.488 26.963 19.2676C27.7223 20.3117 28.007 21.6168 27.7935 22.8981C27.5799 24.132 26.8206 25.2473 25.7528 25.9117L19.2274 30.0642C18.824 30.3253 18.3731 30.5151 17.8986 30.6575Z" fill="white"/>
</g>
<defs>
<filter id="filter0_d_1_68" x="2" y="2" width="36" height="36.0064" filterUnits="userSpaceOnUse" color-interpolation-filters="sRGB">
<feFlood flood-opacity="0" result="BackgroundImageFix"/>
<feColorMatrix in="SourceAlpha" type="matrix" values="0 0 0 0 0 0 0 0 0 0 0 0 0 0 0 0 0 0 127 0" result="hardAlpha"/>
<feOffset/>
<feGaussianBlur stdDeviation="2"/>
<feComposite in2="hardAlpha" operator="out"/>
<feColorMatrix type="matrix" values="0 0 0 0 0 0 0 0 0 0 0 0 0 0 0 0 0 0 0.25 0"/>
<feBlend mode="normal" in2="BackgroundImageFix" result="effect1_dropShadow_1_68"/>
<feBlend mode="normal" in="SourceGraphic" in2="effect1_dropShadow_1_68" result="shape"/>
</filter>
<linearGradient id="paint0_linear_1_68" x1="20" y1="0" x2="20" y2="40" gradientUnits="userSpaceOnUse">
<stop stop-color="#801F00"/>
<stop offset="1" stop-color="#4D1300"/>
</linearGradient>
</defs>
</svg>
