<svg width="56" height="56" viewBox="0 0 56 56" fill="none" xmlns="http://www.w3.org/2000/svg">
<rect width="56" height="56" rx="8.4" fill="url(#paint0_linear_1_62)"/>
<rect x="1.05" y="1.05" width="53.9" height="53.9" rx="7.35" stroke="white" stroke-opacity="0.15" stroke-width="2.1"/>
<g filter="url(#filter0_d_1_62)">
<path d="M42.2522 13.2927C38.5573 7.97071 31.2013 6.41139 25.9132 9.76732L16.5912 15.7334C14.0488 17.3266 12.2861 19.9368 11.7776 22.886C11.3369 25.3605 11.7098 27.9029 12.8962 30.1063C12.0827 31.3266 11.5403 32.6826 11.303 34.1063C10.7606 37.1232 11.4725 40.2419 13.2352 42.7165C16.964 48.0385 24.2861 49.5978 29.5742 46.2419L38.8962 40.3097C41.4386 38.7165 43.2013 36.1063 43.7098 33.1571C44.1505 30.6826 43.7776 28.1402 42.5912 25.9368C43.4047 24.7165 43.9471 23.3605 44.1844 21.9368C44.7606 18.886 44.0488 15.7673 42.2522 13.2927Z" fill="#FF3E00"/>
<path d="M24.9979 43.2249C21.981 44.0046 18.8284 42.8182 17.0657 40.2758C15.981 38.7843 15.5742 36.9199 15.8793 35.0894C15.9471 34.7843 16.0149 34.5131 16.0827 34.208L16.2522 33.6656L16.7267 34.0046C17.8454 34.8182 19.0657 35.4283 20.3878 35.8351L20.7267 35.9368L20.6928 36.2758C20.6589 36.7504 20.7945 37.2588 21.0657 37.6656C21.6081 38.4453 22.5573 38.8182 23.4725 38.5809C23.6759 38.5131 23.8793 38.4453 24.0488 38.3436L33.3369 32.4114C33.8115 32.1063 34.1166 31.6656 34.2183 31.1233C34.32 30.5809 34.1844 30.0046 33.8793 29.5639C33.3369 28.7843 32.3878 28.4453 31.4725 28.6826C31.2691 28.7504 31.0657 28.8182 30.8962 28.9199L27.3369 31.191C26.7606 31.5639 26.1166 31.8351 25.4386 32.0046C22.4217 32.7843 19.2691 31.5978 17.5064 29.0555C16.4556 27.5639 16.0149 25.6995 16.3539 23.869C16.6589 22.1063 17.7437 20.5131 19.2691 19.5639L28.5911 13.6317C29.1674 13.2588 29.8115 12.9877 30.4895 12.7843C33.5064 12.0046 36.6589 13.191 38.4217 15.7334C39.5064 17.2249 39.9132 19.0894 39.6081 20.9199C39.5403 21.2249 39.4725 21.4961 39.3708 21.8012L39.2013 22.3436L38.7267 22.0046C37.6081 21.191 36.3878 20.5809 35.0657 20.1741L34.7267 20.0724L34.7606 19.7334C34.7945 19.2588 34.6589 18.7504 34.3878 18.3436C33.8454 17.5639 32.8962 17.2249 31.981 17.4622C31.7776 17.53 31.5742 17.5978 31.4047 17.6995L22.1166 23.6317C21.642 23.9368 21.3369 24.3775 21.2352 24.9199C21.1335 25.4622 21.2691 26.0385 21.5742 26.4792C22.1166 27.2588 23.0657 27.5978 23.981 27.3605C24.1844 27.2927 24.3878 27.2249 24.5573 27.1233L28.1166 24.8521C28.6928 24.4792 29.3369 24.208 30.0149 24.0046C33.0318 23.2249 36.1844 24.4114 37.9471 26.9538C39.0318 28.4453 39.4386 30.3097 39.1335 32.1402C38.8284 33.9029 37.7437 35.4961 36.2183 36.4453L26.8962 42.3775C26.32 42.7504 25.6759 43.0216 24.9979 43.2249Z" fill="white"/>
</g>
<defs>
<filter id="filter0_d_1_62" x="2.28571" y="2.28571" width="51.4286" height="51.4378" filterUnits="userSpaceOnUse" color-interpolation-filters="sRGB">
<feFlood flood-opacity="0" result="BackgroundImageFix"/>
<feColorMatrix in="SourceAlpha" type="matrix" values="0 0 0 0 0 0 0 0 0 0 0 0 0 0 0 0 0 0 127 0" result="hardAlpha"/>
<feOffset/>
<feGaussianBlur stdDeviation="2.85714"/>
<feComposite in2="hardAlpha" operator="out"/>
<feColorMatrix type="matrix" values="0 0 0 0 0 0 0 0 0 0 0 0 0 0 0 0 0 0 0.25 0"/>
<feBlend mode="normal" in2="BackgroundImageFix" result="effect1_dropShadow_1_62"/>
<feBlend mode="normal" in="SourceGraphic" in2="effect1_dropShadow_1_62" result="shape"/>
</filter>
<linearGradient id="paint0_linear_1_62" x1="28" y1="0" x2="28" y2="56" gradientUnits="userSpaceOnUse">
<stop stop-color="#801F00"/>
<stop offset="1" stop-color="#4D1300"/>
</linearGradient>
</defs>
</svg>
