<svg width="191" height="40" viewBox="0 0 191 40" fill="none" xmlns="http://www.w3.org/2000/svg">
<rect width="191.001" height="40.0014" rx="8" fill="url(#paint0_linear_1_56)"/>
<rect x="1.07143" y="1.07143" width="188.858" height="37.8585" rx="6.92857" stroke="white" stroke-opacity="0.15" stroke-width="2.14286"/>
<g filter="url(#filter0_d_1_56)">
<path d="M32.2115 17.0616C32.0648 15.9965 31.4781 15.0717 30.4193 14.2362L29.807 13.8216L29.3989 14.4403C28.8759 15.2375 28.6144 16.3473 28.6973 17.4124C28.7356 17.7823 28.8567 18.4584 29.233 19.0388C28.8567 19.2493 28.1105 19.5299 27.1156 19.5107H8.10939L8.07112 19.734C7.89254 20.7991 7.89254 24.1347 10.0291 26.6923C11.6555 28.6375 14.0855 29.6261 17.2617 29.6261C24.1498 29.6261 29.2394 26.418 31.6311 20.5759C32.5687 20.595 34.5905 20.5822 35.6301 18.5732C35.6556 18.5285 35.7194 18.4074 35.898 18.0247L36 17.8142L35.4196 17.4188C34.7818 17.0042 33.334 16.8448 32.2115 17.0616ZM23.308 9.9375H20.4188V12.5971H23.308V9.9375ZM23.308 13.1328H20.4188V15.7924H23.308V13.1328ZM19.8894 13.1328H17.0002V15.7924H19.8894V13.1328ZM16.4772 13.1328H13.588V15.7924H16.4772V13.1328ZM13.0586 16.3282H10.1695V18.9878H13.0586V16.3282ZM16.4772 16.3282H13.588V18.9878H16.4772V16.3282ZM19.8894 16.3282H17.0002V18.9878H19.8894V16.3282ZM23.308 16.3282H20.4188V18.9878H23.308V16.3282ZM26.7265 16.3282H23.8373V18.9878H26.7265V16.3282Z" fill="#1D63ED"/>
</g>
<g filter="url(#filter1_d_1_56)">
<path d="M43.3597 26.5007V14.1371H47.8874C48.7648 14.1371 49.4912 14.282 50.0667 14.5717C50.6423 14.8575 51.0729 15.2458 51.3586 15.7369C51.6444 16.2238 51.7873 16.7732 51.7873 17.3849C51.7873 17.9001 51.6927 18.3347 51.5035 18.6889C51.3144 19.0391 51.0608 19.3208 50.7429 19.5341C50.429 19.7434 50.0828 19.8963 49.7045 19.9929V20.1136C50.115 20.1337 50.5155 20.2666 50.9059 20.5121C51.3003 20.7535 51.6263 21.0976 51.8839 21.5444C52.1414 21.9911 52.2702 22.5344 52.2702 23.1743C52.2702 23.8062 52.1213 24.3737 51.8235 24.8768C51.5297 25.3758 51.0749 25.7722 50.4591 26.066C49.8434 26.3558 49.0566 26.5007 48.0987 26.5007H43.3597ZM45.2251 24.9009H47.9176C48.8111 24.9009 49.451 24.7279 49.8373 24.3817C50.2237 24.0356 50.4169 23.603 50.4169 23.0838C50.4169 22.6934 50.3183 22.3352 50.1211 22.0092C49.9239 21.6832 49.6421 21.4236 49.2759 21.2305C48.9137 21.0373 48.483 20.9407 47.984 20.9407H45.2251V24.9009ZM45.2251 19.4858H47.7244C48.143 19.4858 48.5193 19.4053 48.8533 19.2443C49.1914 19.0833 49.459 18.8579 49.6562 18.5682C49.8575 18.2744 49.9581 17.9283 49.9581 17.5298C49.9581 17.0187 49.779 16.5901 49.4208 16.244C49.0626 15.8978 48.5132 15.7248 47.7727 15.7248H45.2251V19.4858ZM60.2118 22.6552V17.228H62.0229V26.5007H60.248V24.8949H60.1514C59.9381 25.3899 59.596 25.8024 59.1251 26.1324C58.6583 26.4584 58.0767 26.6214 57.3805 26.6214C56.7848 26.6214 56.2576 26.4906 55.7988 26.229C55.344 25.9634 54.9858 25.571 54.7242 25.0518C54.4667 24.5327 54.3379 23.8907 54.3379 23.1261V17.228H56.1429V22.9087C56.1429 23.5406 56.318 24.0437 56.6681 24.418C57.0183 24.7922 57.473 24.9794 58.0325 24.9794C58.3705 24.9794 58.7066 24.8949 59.0406 24.7258C59.3787 24.5568 59.6584 24.3012 59.8798 23.9591C60.1051 23.6171 60.2158 23.1824 60.2118 22.6552ZM64.4482 26.5007V17.228H66.2533V26.5007H64.4482ZM65.3598 15.7972C65.0459 15.7972 64.7762 15.6926 64.5508 15.4833C64.3295 15.27 64.2188 15.0164 64.2188 14.7226C64.2188 14.4248 64.3295 14.1713 64.5508 13.962C64.7762 13.7487 65.0459 13.642 65.3598 13.642C65.6737 13.642 65.9413 13.7487 66.1627 13.962C66.3881 14.1713 66.5008 14.4248 66.5008 14.7226C66.5008 15.0164 66.3881 15.27 66.1627 15.4833C65.9413 15.6926 65.6737 15.7972 65.3598 15.7972ZM70.4867 14.1371V26.5007H68.6816V14.1371H70.4867ZM77.2435 17.228V18.6768H72.1785V17.228H77.2435ZM73.5368 15.0064H75.3419V23.778C75.3419 24.1282 75.3942 24.3918 75.4988 24.5689C75.6035 24.7419 75.7383 24.8607 75.9033 24.9251C76.0723 24.9854 76.2554 25.0156 76.4526 25.0156C76.5975 25.0156 76.7243 25.0056 76.833 24.9854C76.9416 24.9653 77.0262 24.9492 77.0865 24.9371L77.4125 26.4283C77.3079 26.4685 77.159 26.5087 76.9658 26.549C76.7726 26.5933 76.5311 26.6174 76.2414 26.6214C75.7664 26.6295 75.3237 26.545 74.9132 26.3679C74.5027 26.1908 74.1707 25.9171 73.9171 25.5469C73.6636 25.1766 73.5368 24.7118 73.5368 24.1523V15.0064ZM85.7495 26.5007L83.0208 17.228H84.8862L86.7034 24.0376H86.7939L88.6171 17.228H90.4825L92.2936 24.0074H92.3841L94.1891 17.228H96.0546L93.3319 26.5007H91.4906L89.6071 19.8057H89.4683L87.5847 26.5007H85.7495ZM97.7675 26.5007V17.228H99.5726V26.5007H97.7675ZM98.6791 15.7972C98.3652 15.7972 98.0955 15.6926 97.8702 15.4833C97.6488 15.27 97.5381 15.0164 97.5381 14.7226C97.5381 14.4248 97.6488 14.1713 97.8702 13.962C98.0955 13.7487 98.3652 13.642 98.6791 13.642C98.993 13.642 99.2607 13.7487 99.482 13.962C99.7074 14.1713 99.8201 14.4248 99.8201 14.7226C99.8201 15.0164 99.7074 15.27 99.482 15.4833C99.2607 15.6926 98.993 15.7972 98.6791 15.7972ZM106.329 17.228V18.6768H101.264V17.228H106.329ZM102.623 15.0064H104.428V23.778C104.428 24.1282 104.48 24.3918 104.585 24.5689C104.689 24.7419 104.824 24.8607 104.989 24.9251C105.158 24.9854 105.341 25.0156 105.539 25.0156C105.683 25.0156 105.81 25.0056 105.919 24.9854C106.028 24.9653 106.112 24.9492 106.172 24.9371L106.498 26.4283C106.394 26.4685 106.245 26.5087 106.052 26.549C105.859 26.5933 105.617 26.6174 105.327 26.6214C104.852 26.6295 104.41 26.545 103.999 26.3679C103.589 26.1908 103.257 25.9171 103.003 25.5469C102.75 25.1766 102.623 24.7118 102.623 24.1523V15.0064ZM110.33 20.995V26.5007H108.525V14.1371H110.306V18.7372H110.421C110.638 18.2382 110.97 17.8417 111.417 17.5479C111.864 17.2541 112.447 17.1072 113.168 17.1072C113.804 17.1072 114.359 17.238 114.834 17.4996C115.313 17.7612 115.683 18.1516 115.945 18.6708C116.21 19.1859 116.343 19.8299 116.343 20.6026V26.5007H114.538V20.8199C114.538 20.1398 114.363 19.6126 114.013 19.2383C113.663 18.86 113.176 18.6708 112.552 18.6708C112.125 18.6708 111.743 18.7614 111.405 18.9425C111.071 19.1236 110.807 19.3892 110.614 19.7393C110.425 20.0855 110.33 20.504 110.33 20.995Z" fill="#E8E8E8"/>
<path d="M127.507 26.0007H122.937V13.6371H127.501C128.761 13.6371 129.845 13.8846 130.755 14.3796C131.669 14.8706 132.373 15.5789 132.868 16.5046C133.363 17.4262 133.61 18.529 133.61 19.8128C133.61 21.1007 133.363 22.2075 132.868 23.1332C132.377 24.0588 131.675 24.7692 130.761 25.2642C129.847 25.7552 128.763 26.0007 127.507 26.0007ZM125.925 23.4531H127.392C128.085 23.4531 128.67 23.3364 129.149 23.103C129.632 22.8655 129.996 22.4812 130.242 21.9499C130.491 21.4146 130.616 20.7023 130.616 19.8128C130.616 18.9234 130.491 18.2151 130.242 17.6878C129.992 17.1566 129.624 16.7743 129.137 16.5408C128.654 16.3034 128.058 16.1846 127.35 16.1846H125.925V23.4531ZM139.684 26.1758C138.71 26.1758 137.872 25.9765 137.172 25.5781C136.476 25.1757 135.939 24.6162 135.56 23.8998C135.186 23.1794 134.999 22.3443 134.999 21.3945C134.999 20.4407 135.186 19.6056 135.56 18.8892C135.939 18.1688 136.476 17.6094 137.172 17.2109C137.872 16.8085 138.71 16.6072 139.684 16.6072C140.657 16.6072 141.493 16.8085 142.189 17.2109C142.889 17.6094 143.426 18.1688 143.801 18.8892C144.179 19.6056 144.368 20.4407 144.368 21.3945C144.368 22.3443 144.179 23.1794 143.801 23.8998C143.426 24.6162 142.889 25.1757 142.189 25.5781C141.493 25.9765 140.657 26.1758 139.684 26.1758ZM139.702 23.9481C140.056 23.9481 140.356 23.8395 140.601 23.6221C140.847 23.4048 141.034 23.103 141.163 22.7166C141.295 22.3302 141.362 21.8835 141.362 21.3764C141.362 20.8613 141.295 20.4105 141.163 20.0241C141.034 19.6378 140.847 19.3359 140.601 19.1186C140.356 18.9013 140.056 18.7926 139.702 18.7926C139.335 18.7926 139.026 18.9013 138.772 19.1186C138.522 19.3359 138.331 19.6378 138.198 20.0241C138.07 20.4105 138.005 20.8613 138.005 21.3764C138.005 21.8835 138.07 22.3302 138.198 22.7166C138.331 23.103 138.522 23.4048 138.772 23.6221C139.026 23.8395 139.335 23.9481 139.702 23.9481ZM150.209 26.1758C149.231 26.1758 148.392 25.9745 147.692 25.5721C146.995 25.1696 146.46 24.6102 146.086 23.8938C145.711 23.1734 145.524 22.3403 145.524 21.3945C145.524 20.4447 145.711 19.6116 146.086 18.8952C146.464 18.1748 147.001 17.6134 147.698 17.2109C148.398 16.8085 149.233 16.6072 150.203 16.6072C151.06 16.6072 151.807 16.7622 152.443 17.0721C153.083 17.382 153.582 17.8207 153.94 18.3881C154.302 18.9516 154.493 19.6136 154.513 20.3743H151.754C151.698 19.8994 151.537 19.5271 151.271 19.2574C151.01 18.9878 150.668 18.853 150.245 18.853C149.903 18.853 149.603 18.9496 149.346 19.1427C149.088 19.3319 148.887 19.6136 148.742 19.9879C148.601 20.3582 148.531 20.817 148.531 21.3643C148.531 21.9117 148.601 22.3745 148.742 22.7528C148.887 23.1271 149.088 23.4109 149.346 23.604C149.603 23.7932 149.903 23.8878 150.245 23.8878C150.519 23.8878 150.76 23.8294 150.97 23.7127C151.183 23.596 151.358 23.4249 151.495 23.1996C151.632 22.9702 151.718 22.6925 151.754 22.3665H154.513C154.485 23.1311 154.294 23.7992 153.94 24.3707C153.59 24.9422 153.097 25.3869 152.461 25.7049C151.829 26.0188 151.078 26.1758 150.209 26.1758ZM158.686 23.5678L158.698 20.0483H159.109L161.717 16.728H165.061L161.186 21.4851H160.407L158.686 23.5678ZM156.024 26.0007V13.6371H158.976V26.0007H156.024ZM161.783 26.0007L159.356 22.1491L161.3 20.0543L165.194 26.0007H161.783ZM170.07 26.1758C169.1 26.1758 168.263 25.9846 167.559 25.6023C166.859 25.2159 166.319 24.6665 165.941 23.9542C165.567 23.2378 165.38 22.3866 165.38 21.4006C165.38 20.4427 165.569 19.6056 165.947 18.8892C166.326 18.1688 166.859 17.6094 167.547 17.2109C168.235 16.8085 169.046 16.6072 169.98 16.6072C170.64 16.6072 171.244 16.7099 171.791 16.9151C172.338 17.1204 172.811 17.4242 173.21 17.8267C173.608 18.2292 173.918 18.7262 174.139 19.3178C174.361 19.9054 174.471 20.5795 174.471 21.3402V22.0767H166.412V20.3622H171.725C171.721 20.0483 171.646 19.7686 171.501 19.5231C171.356 19.2776 171.157 19.0864 170.904 18.9496C170.654 18.8087 170.366 18.7383 170.04 18.7383C169.71 18.7383 169.414 18.8127 169.153 18.9616C168.891 19.1065 168.684 19.3057 168.531 19.5593C168.378 19.8088 168.298 20.0926 168.29 20.4105V22.1552C168.29 22.5335 168.364 22.8655 168.513 23.1513C168.662 23.433 168.873 23.6523 169.147 23.8093C169.42 23.9663 169.746 24.0447 170.125 24.0447C170.386 24.0447 170.624 24.0085 170.837 23.9361C171.05 23.8636 171.234 23.757 171.386 23.6161C171.539 23.4752 171.654 23.3022 171.731 23.0969L174.441 23.1754C174.328 23.7831 174.081 24.3124 173.699 24.7631C173.32 25.2099 172.823 25.558 172.208 25.8075C171.592 26.053 170.879 26.1758 170.07 26.1758ZM175.979 26.0007V16.728H178.847V18.4183H178.943C179.112 17.8066 179.388 17.3518 179.77 17.054C180.153 16.7521 180.597 16.6012 181.104 16.6012C181.241 16.6012 181.382 16.6113 181.527 16.6314C181.672 16.6475 181.807 16.6736 181.931 16.7099V19.2756C181.791 19.2273 181.605 19.189 181.376 19.1609C181.151 19.1327 180.949 19.1186 180.772 19.1186C180.422 19.1186 180.106 19.1971 179.825 19.354C179.547 19.507 179.328 19.7223 179.167 20C179.01 20.2737 178.931 20.5956 178.931 20.9659V26.0007H175.979Z" fill="#E5F2FC"/>
</g>
<defs>
<filter id="filter0_d_1_56" x="2.39972" y="0.39972" width="39.202" height="39.202" filterUnits="userSpaceOnUse" color-interpolation-filters="sRGB">
<feFlood flood-opacity="0" result="BackgroundImageFix"/>
<feColorMatrix in="SourceAlpha" type="matrix" values="0 0 0 0 0 0 0 0 0 0 0 0 0 0 0 0 0 0 127 0" result="hardAlpha"/>
<feOffset/>
<feGaussianBlur stdDeviation="2.80014"/>
<feComposite in2="hardAlpha" operator="out"/>
<feColorMatrix type="matrix" values="0 0 0 0 0 0 0 0 0 0 0 0 0 0 0 0 0 0 0.25 0"/>
<feBlend mode="normal" in2="BackgroundImageFix" result="effect1_dropShadow_1_56"/>
<feBlend mode="normal" in="SourceGraphic" in2="effect1_dropShadow_1_56" result="shape"/>
</filter>
<filter id="filter1_d_1_56" x="36.2871" y="3.78642" width="152.429" height="32.4286" filterUnits="userSpaceOnUse" color-interpolation-filters="sRGB">
<feFlood flood-opacity="0" result="BackgroundImageFix"/>
<feColorMatrix in="SourceAlpha" type="matrix" values="0 0 0 0 0 0 0 0 0 0 0 0 0 0 0 0 0 0 127 0" result="hardAlpha"/>
<feOffset/>
<feGaussianBlur stdDeviation="2.85714"/>
<feComposite in2="hardAlpha" operator="out"/>
<feColorMatrix type="matrix" values="0 0 0 0 0 0 0 0 0 0 0 0 0 0 0 0 0 0 0.25 0"/>
<feBlend mode="normal" in2="BackgroundImageFix" result="effect1_dropShadow_1_56"/>
<feBlend mode="normal" in="SourceGraphic" in2="effect1_dropShadow_1_56" result="shape"/>
</filter>
<linearGradient id="paint0_linear_1_56" x1="95.5007" y1="0" x2="95.5007" y2="40.0014" gradientUnits="userSpaceOnUse">
<stop stop-color="#0A307B"/>
<stop offset="1" stop-color="#061D4A"/>
</linearGradient>
</defs>
</svg>
