<svg width="144" height="56" viewBox="0 0 144 56" fill="none" xmlns="http://www.w3.org/2000/svg">
<rect width="144" height="56" rx="8" fill="url(#paint0_linear_1_50)"/>
<rect x="1.05" y="1.05" width="141.9" height="53.9" rx="6.95" stroke="white" stroke-opacity="0.15" stroke-width="2.1"/>
<g filter="url(#filter0_d_1_50)">
<path d="M46.5879 23.8023C46.3783 22.2807 45.5401 20.9596 44.0276 19.766L43.1529 19.1738L42.5698 20.0576C41.8227 21.1965 41.4491 22.7819 41.5676 24.3034C41.6222 24.8319 41.7953 25.7977 42.3329 26.6268C41.7953 26.9275 40.7293 27.3284 39.308 27.3011H12.1563L12.1016 27.62C11.8465 29.1416 11.8465 33.9068 14.8988 37.5604C17.2222 40.3393 20.6936 41.7516 25.231 41.7516C35.0712 41.7516 42.342 37.1686 45.7588 28.8227C47.0981 28.85 49.9864 28.8318 51.4715 25.9617C51.508 25.8979 51.5991 25.7248 51.8542 25.1781L52 24.8775L51.1709 24.3126C50.2597 23.7203 48.1915 23.4925 46.5879 23.8023ZM33.8685 13.625H29.7411V17.4244H33.8685V13.625ZM33.8685 18.1898H29.7411V21.9892H33.8685V18.1898ZM28.9848 18.1898H24.8574V21.9892H28.9848V18.1898ZM24.1103 18.1898H19.9829V21.9892H24.1103V18.1898ZM19.2266 22.7545H15.0992V26.5539H19.2266V22.7545ZM24.1103 22.7545H19.9829V26.5539H24.1103V22.7545ZM28.9848 22.7545H24.8574V26.5539H28.9848V22.7545ZM33.8685 22.7545H29.7411V26.5539H33.8685V22.7545ZM38.7522 22.7545H34.6247V26.5539H38.7522V22.7545Z" fill="#1D63ED"/>
</g>
<g filter="url(#filter1_d_1_50)">
<path d="M61.2784 24.5V12.8636H65.5398C66.3655 12.8636 67.0492 13 67.5909 13.2727C68.1326 13.5417 68.5379 13.9072 68.8068 14.3693C69.0757 14.8276 69.2102 15.3447 69.2102 15.9204C69.2102 16.4053 69.1212 16.8144 68.9432 17.1477C68.7651 17.4773 68.5265 17.7424 68.2273 17.9432C67.9318 18.1401 67.606 18.2841 67.25 18.375V18.4886C67.6363 18.5076 68.0132 18.6326 68.3807 18.8636C68.7519 19.0909 69.0587 19.4148 69.3011 19.8352C69.5435 20.2557 69.6648 20.767 69.6648 21.3693C69.6648 21.964 69.5246 22.4981 69.2443 22.9716C68.9678 23.4413 68.5398 23.8144 67.9602 24.0909C67.3807 24.3636 66.6401 24.5 65.7386 24.5H61.2784ZM63.0341 22.9943H65.5682C66.4091 22.9943 67.0113 22.8314 67.375 22.5057C67.7386 22.1799 67.9204 21.7727 67.9204 21.2841C67.9204 20.9167 67.8276 20.5795 67.642 20.2727C67.4564 19.9659 67.1913 19.7216 66.8466 19.5398C66.5057 19.3579 66.1004 19.267 65.6307 19.267H63.0341V22.9943ZM63.0341 17.8977H65.3863C65.7803 17.8977 66.1345 17.822 66.4488 17.6704C66.767 17.5189 67.0189 17.3068 67.2045 17.0341C67.3939 16.7576 67.4886 16.4318 67.4886 16.0568C67.4886 15.5758 67.3201 15.1723 66.9829 14.8466C66.6458 14.5208 66.1288 14.3579 65.4318 14.3579H63.0341V17.8977ZM77.1392 20.8807V15.7727H78.8437V24.5H77.1733V22.9886H77.0824C76.8816 23.4545 76.5596 23.8428 76.1165 24.1534C75.6771 24.4602 75.1297 24.6136 74.4744 24.6136C73.9138 24.6136 73.4176 24.4905 72.9858 24.2443C72.5577 23.9943 72.2206 23.625 71.9744 23.1364C71.732 22.6477 71.6108 22.0436 71.6108 21.3239V15.7727H73.3096V21.1193C73.3096 21.714 73.4744 22.1875 73.804 22.5398C74.1335 22.892 74.5615 23.0682 75.088 23.0682C75.4062 23.0682 75.7225 22.9886 76.0369 22.8295C76.3551 22.6704 76.6184 22.4299 76.8267 22.1079C77.0388 21.786 77.143 21.3769 77.1392 20.8807ZM81.1264 24.5V15.7727H82.8253V24.5H81.1264ZM81.9844 14.4261C81.6889 14.4261 81.4351 14.3276 81.223 14.1307C81.0147 13.9299 80.9105 13.6913 80.9105 13.4148C80.9105 13.1345 81.0147 12.8958 81.223 12.6989C81.4351 12.4981 81.6889 12.3977 81.9844 12.3977C82.2798 12.3977 82.5317 12.4981 82.74 12.6989C82.9522 12.8958 83.0582 13.1345 83.0582 13.4148C83.0582 13.6913 82.9522 13.9299 82.74 14.1307C82.5317 14.3276 82.2798 14.4261 81.9844 14.4261ZM86.8096 12.8636V24.5H85.1108V12.8636H86.8096ZM93.169 15.7727V17.1364H88.402V15.7727H93.169ZM89.6804 13.6818H91.3792V21.9375C91.3792 22.267 91.4285 22.5151 91.527 22.6818C91.6254 22.8447 91.7523 22.9564 91.9076 23.017C92.0667 23.0739 92.2391 23.1023 92.4247 23.1023C92.5611 23.1023 92.6804 23.0928 92.7826 23.0739C92.8849 23.0549 92.9645 23.0398 93.0213 23.0284L93.3281 24.4318C93.2296 24.4697 93.0895 24.5076 92.9076 24.5454C92.7258 24.5871 92.4986 24.6098 92.2258 24.6136C91.7789 24.6212 91.3622 24.5417 90.9758 24.375C90.5895 24.2083 90.277 23.9508 90.0383 23.6023C89.7997 23.2538 89.6804 22.8163 89.6804 22.2898V13.6818ZM101.175 24.5L98.6065 15.7727H100.362L102.072 22.1818H102.158L103.874 15.7727H105.629L107.334 22.1534H107.419L109.118 15.7727H110.874L108.311 24.5H106.578L104.805 18.1989H104.675L102.902 24.5H101.175ZM112.486 24.5V15.7727H114.185V24.5H112.486ZM113.344 14.4261C113.048 14.4261 112.794 14.3276 112.582 14.1307C112.374 13.9299 112.27 13.6913 112.27 13.4148C112.27 13.1345 112.374 12.8958 112.582 12.6989C112.794 12.4981 113.048 12.3977 113.344 12.3977C113.639 12.3977 113.891 12.4981 114.099 12.6989C114.312 12.8958 114.418 13.1345 114.418 13.4148C114.418 13.6913 114.312 13.9299 114.099 14.1307C113.891 14.3276 113.639 14.4261 113.344 14.4261ZM120.544 15.7727V17.1364H115.777V15.7727H120.544ZM117.055 13.6818H118.754V21.9375C118.754 22.267 118.803 22.5151 118.902 22.6818C119 22.8447 119.127 22.9564 119.283 23.017C119.442 23.0739 119.614 23.1023 119.8 23.1023C119.936 23.1023 120.055 23.0928 120.158 23.0739C120.26 23.0549 120.339 23.0398 120.396 23.0284L120.703 24.4318C120.605 24.4697 120.464 24.5076 120.283 24.5454C120.101 24.5871 119.874 24.6098 119.601 24.6136C119.154 24.6212 118.737 24.5417 118.351 24.375C117.964 24.2083 117.652 23.9508 117.413 23.6023C117.175 23.2538 117.055 22.8163 117.055 22.2898V13.6818ZM124.31 19.3182V24.5H122.611V12.8636H124.287V17.1932H124.395C124.599 16.7235 124.912 16.3504 125.332 16.0739C125.753 15.7973 126.302 15.6591 126.98 15.6591C127.579 15.6591 128.101 15.7822 128.548 16.0284C128.999 16.2746 129.348 16.642 129.594 17.1307C129.844 17.6155 129.969 18.2216 129.969 18.9489V24.5H128.27V19.1534C128.27 18.5133 128.105 18.017 127.776 17.6648C127.446 17.3087 126.988 17.1307 126.401 17.1307C125.999 17.1307 125.639 17.2159 125.321 17.3864C125.007 17.5568 124.758 17.8068 124.577 18.1364C124.399 18.4621 124.31 18.8561 124.31 19.3182Z" fill="#E8E8E8"/>
<path d="M65.5057 43.5H60.9357V31.1364H65.4996C66.7593 31.1364 67.844 31.3839 68.7535 31.8789C69.6671 32.3699 70.3714 33.0782 70.8665 34.0039C71.3615 34.9255 71.609 36.0283 71.609 37.3121C71.609 38.6 71.3615 39.7068 70.8665 40.6324C70.3755 41.5581 69.6732 42.2685 68.7596 42.7635C67.846 43.2545 66.7613 43.5 65.5057 43.5ZM63.924 40.9524H65.391C66.0832 40.9524 66.6688 40.8357 67.1477 40.6023C67.6307 40.3648 67.9949 39.9805 68.2404 39.4492C68.4899 38.9139 68.6147 38.2016 68.6147 37.3121C68.6147 36.4227 68.4899 35.7144 68.2404 35.1871C67.9909 34.6559 67.6226 34.2735 67.1356 34.0401C66.6527 33.8027 66.057 33.6839 65.3487 33.6839H63.924V40.9524ZM77.6822 43.6751C76.7082 43.6751 75.8711 43.4758 75.1708 43.0774C74.4745 42.6749 73.9372 42.1155 73.5589 41.3991C73.1846 40.6787 72.9975 39.8436 72.9975 38.8938C72.9975 37.94 73.1846 37.1049 73.5589 36.3885C73.9372 35.6681 74.4745 35.1087 75.1708 34.7102C75.8711 34.3078 76.7082 34.1065 77.6822 34.1065C78.6561 34.1065 79.4912 34.3078 80.1875 34.7102C80.8878 35.1087 81.425 35.6681 81.7993 36.3885C82.1777 37.1049 82.3668 37.94 82.3668 38.8938C82.3668 39.8436 82.1777 40.6787 81.7993 41.3991C81.425 42.1155 80.8878 42.6749 80.1875 43.0774C79.4912 43.4758 78.6561 43.6751 77.6822 43.6751ZM77.7003 41.4474C78.0544 41.4474 78.3543 41.3388 78.5998 41.1214C78.8453 40.9041 79.0324 40.6023 79.1612 40.2159C79.294 39.8295 79.3604 39.3828 79.3604 38.8757C79.3604 38.3605 79.294 37.9098 79.1612 37.5234C79.0324 37.1371 78.8453 36.8352 78.5998 36.6179C78.3543 36.4006 78.0544 36.2919 77.7003 36.2919C77.334 36.2919 77.0241 36.4006 76.7706 36.6179C76.521 36.8352 76.3299 37.1371 76.1971 37.5234C76.0683 37.9098 76.0039 38.3605 76.0039 38.8757C76.0039 39.3828 76.0683 39.8295 76.1971 40.2159C76.3299 40.6023 76.521 40.9041 76.7706 41.1214C77.0241 41.3388 77.334 41.4474 77.7003 41.4474ZM88.2075 43.6751C87.2296 43.6751 86.3904 43.4738 85.6901 43.0714C84.9939 42.6689 84.4586 42.1095 84.0843 41.3931C83.71 40.6727 83.5229 39.8396 83.5229 38.8938C83.5229 37.944 83.71 37.1109 84.0843 36.3945C84.4626 35.6741 84.9999 35.1127 85.6962 34.7102C86.3965 34.3078 87.2316 34.1065 88.2015 34.1065C89.0587 34.1065 89.8053 34.2615 90.4412 34.5714C91.0811 34.8813 91.5802 35.3199 91.9384 35.8874C92.3006 36.4509 92.4917 37.1129 92.5119 37.8736H89.753C89.6966 37.3987 89.5357 37.0264 89.27 36.7567C89.0084 36.4871 88.6663 36.3523 88.2438 36.3523C87.9017 36.3523 87.6018 36.4489 87.3443 36.642C87.0867 36.8312 86.8855 37.1129 86.7406 37.4872C86.5997 37.8575 86.5293 38.3163 86.5293 38.8636C86.5293 39.411 86.5997 39.8738 86.7406 40.2521C86.8855 40.6264 87.0867 40.9101 87.3443 41.1033C87.6018 41.2925 87.9017 41.3871 88.2438 41.3871C88.5174 41.3871 88.7589 41.3287 88.9682 41.212C89.1815 41.0953 89.3566 40.9242 89.4934 40.6989C89.6302 40.4694 89.7168 40.1918 89.753 39.8658H92.5119C92.4837 40.6304 92.2925 41.2985 91.9384 41.87C91.5882 42.4415 91.0952 42.8862 90.4593 43.2042C89.8275 43.5181 89.0769 43.6751 88.2075 43.6751ZM96.6849 41.0671L96.697 37.5476H97.1075L99.7154 34.2273H103.06L99.1842 38.9844H98.4054L96.6849 41.0671ZM94.0226 43.5V31.1364H96.9747V43.5H94.0226ZM99.7818 43.5L97.355 39.6484L99.2989 37.5536L103.193 43.5H99.7818ZM108.069 43.6751C107.099 43.6751 106.262 43.4839 105.558 43.1016C104.857 42.7152 104.318 42.1658 103.94 41.4535C103.565 40.7371 103.378 39.8859 103.378 38.8998C103.378 37.942 103.568 37.1049 103.946 36.3885C104.324 35.6681 104.857 35.1087 105.546 34.7102C106.234 34.3078 107.045 34.1065 107.978 34.1065C108.639 34.1065 109.242 34.2092 109.79 34.4144C110.337 34.6197 110.81 34.9235 111.208 35.326C111.607 35.7284 111.917 36.2255 112.138 36.8171C112.359 37.4047 112.47 38.0788 112.47 38.8395V39.576H104.411V37.8615H109.723C109.719 37.5476 109.645 37.2679 109.5 37.0224C109.355 36.7769 109.156 36.5857 108.902 36.4489C108.653 36.308 108.365 36.2376 108.039 36.2376C107.709 36.2376 107.413 36.312 107.151 36.4609C106.89 36.6058 106.683 36.805 106.53 37.0586C106.377 37.3081 106.296 37.5918 106.288 37.9098V39.6545C106.288 40.0328 106.363 40.3648 106.512 40.6506C106.66 40.9323 106.872 41.1516 107.145 41.3086C107.419 41.4655 107.745 41.544 108.123 41.544C108.385 41.544 108.622 41.5078 108.836 41.4354C109.049 41.3629 109.232 41.2563 109.385 41.1154C109.538 40.9745 109.653 40.8015 109.729 40.5962L112.44 40.6747C112.327 41.2824 112.08 41.8117 111.697 42.2624C111.319 42.7092 110.822 43.0573 110.206 43.3068C109.59 43.5523 108.878 43.6751 108.069 43.6751ZM113.978 43.5V34.2273H116.845V35.9176H116.942C117.111 35.3059 117.387 34.8511 117.769 34.5533C118.151 34.2514 118.596 34.1005 119.103 34.1005C119.24 34.1005 119.381 34.1105 119.526 34.1307C119.671 34.1468 119.805 34.1729 119.93 34.2092V36.7748C119.789 36.7266 119.604 36.6883 119.375 36.6601C119.149 36.632 118.948 36.6179 118.771 36.6179C118.421 36.6179 118.105 36.6964 117.823 36.8533C117.546 37.0063 117.326 37.2216 117.165 37.4993C117.008 37.773 116.93 38.0949 116.93 38.4652V43.5H113.978Z" fill="#E5F2FC"/>
</g>
<defs>
<filter id="filter0_d_1_50" x="6.28571" y="2.28571" width="51.4286" height="51.4286" filterUnits="userSpaceOnUse" color-interpolation-filters="sRGB">
<feFlood flood-opacity="0" result="BackgroundImageFix"/>
<feColorMatrix in="SourceAlpha" type="matrix" values="0 0 0 0 0 0 0 0 0 0 0 0 0 0 0 0 0 0 127 0" result="hardAlpha"/>
<feOffset/>
<feGaussianBlur stdDeviation="2.85714"/>
<feComposite in2="hardAlpha" operator="out"/>
<feColorMatrix type="matrix" values="0 0 0 0 0 0 0 0 0 0 0 0 0 0 0 0 0 0 0.25 0"/>
<feBlend mode="normal" in2="BackgroundImageFix" result="effect1_dropShadow_1_50"/>
<feBlend mode="normal" in="SourceGraphic" in2="effect1_dropShadow_1_50" result="shape"/>
</filter>
<filter id="filter1_d_1_50" x="54.4" y="3.9" width="83.2" height="48.2" filterUnits="userSpaceOnUse" color-interpolation-filters="sRGB">
<feFlood flood-opacity="0" result="BackgroundImageFix"/>
<feColorMatrix in="SourceAlpha" type="matrix" values="0 0 0 0 0 0 0 0 0 0 0 0 0 0 0 0 0 0 127 0" result="hardAlpha"/>
<feOffset/>
<feGaussianBlur stdDeviation="2.8"/>
<feComposite in2="hardAlpha" operator="out"/>
<feColorMatrix type="matrix" values="0 0 0 0 0 0 0 0 0 0 0 0 0 0 0 0 0 0 0.25 0"/>
<feBlend mode="normal" in2="BackgroundImageFix" result="effect1_dropShadow_1_50"/>
<feBlend mode="normal" in="SourceGraphic" in2="effect1_dropShadow_1_50" result="shape"/>
</filter>
<linearGradient id="paint0_linear_1_50" x1="72" y1="0" x2="72" y2="56" gradientUnits="userSpaceOnUse">
<stop stop-color="#0A307B"/>
<stop offset="1" stop-color="#061D4A"/>
</linearGradient>
</defs>
</svg>
