<svg width="194" height="40" viewBox="0 0 194 40" fill="none" xmlns="http://www.w3.org/2000/svg">
<rect width="194.001" height="40.0014" rx="8" fill="url(#paint0_linear_1_56)"/>
<rect x="1.07143" y="1.07143" width="191.858" height="37.8585" rx="6.92857" stroke="white" stroke-opacity="0.15" stroke-width="2.14286"/>
<g filter="url(#filter0_d_1_56)">
<path d="M24.6665 17.8575L35.0919 6H32.6223L23.5661 16.2936L16.3384 6H8L18.9321 21.5672L8 34H10.4696L20.0269 23.1273L27.6616 34H36M11.3609 7.82221H15.1549L32.6204 32.2673H28.8255" fill="white"/>
</g>
<g filter="url(#filter1_d_1_56)">
<g filter="url(#filter2_d_1_56)">
<path d="M53.6285 18.1577H51.745C51.6726 17.7552 51.5377 17.401 51.3405 17.0952C51.1433 16.7893 50.9018 16.5297 50.6161 16.3164C50.3303 16.1031 50.0104 15.9421 49.6562 15.8334C49.3061 15.7248 48.9338 15.6704 48.5394 15.6704C47.827 15.6704 47.1891 15.8495 46.6257 16.2077C46.0663 16.5659 45.6236 17.0911 45.2976 17.7834C44.9756 18.4756 44.8146 19.3208 44.8146 20.3189C44.8146 21.325 44.9756 22.1742 45.2976 22.8665C45.6236 23.5587 46.0683 24.0819 46.6317 24.4361C47.1952 24.7902 47.829 24.9673 48.5334 24.9673C48.9237 24.9673 49.294 24.915 49.6441 24.8104C49.9983 24.7017 50.3183 24.5427 50.604 24.3334C50.8898 24.1242 51.1312 23.8686 51.3285 23.5667C51.5297 23.2609 51.6685 22.9107 51.745 22.5163L53.6285 22.5224C53.5279 23.1301 53.3327 23.6895 53.0429 24.2006C52.7572 24.7077 52.3889 25.1464 51.9382 25.5167C51.4915 25.8829 50.9803 26.1667 50.4048 26.3679C49.8293 26.5691 49.2014 26.6697 48.5213 26.6697C47.4507 26.6697 46.4969 26.4162 45.6598 25.9091C44.8227 25.398 44.1626 24.6675 43.6797 23.7177C43.2007 22.7679 42.9613 21.6349 42.9613 20.3189C42.9613 18.9988 43.2027 17.8659 43.6857 16.9201C44.1687 15.9703 44.8287 15.2418 45.6658 14.7347C46.5029 14.2236 47.4548 13.968 48.5213 13.968C49.1773 13.968 49.789 14.0626 50.3565 14.2518C50.928 14.4369 51.4411 14.7106 51.8959 15.0728C52.3507 15.431 52.727 15.8697 53.0248 16.3888C53.3227 16.904 53.5239 17.4936 53.6285 18.1577ZM57.5208 20.995V26.5007H55.7158V14.1371H57.4967V18.7372H57.6114C57.8287 18.2382 58.1607 17.8417 58.6075 17.5479C59.0542 17.2541 59.6378 17.1072 60.3582 17.1072C60.9941 17.1072 61.5495 17.238 62.0244 17.4996C62.5033 17.7612 62.8736 18.1516 63.1352 18.6708C63.4008 19.1859 63.5336 19.8299 63.5336 20.6026V26.5007H61.7286V20.8199C61.7286 20.1398 61.5535 19.6126 61.2034 19.2383C60.8532 18.86 60.3662 18.6708 59.7424 18.6708C59.3158 18.6708 58.9335 18.7614 58.5954 18.9425C58.2614 19.1236 57.9978 19.3892 57.8046 19.7393C57.6154 20.0855 57.5208 20.504 57.5208 20.995ZM68.6409 26.706C68.0533 26.706 67.522 26.5973 67.0471 26.38C66.5722 26.1586 66.1959 25.8386 65.9182 25.4201C65.6445 25.0015 65.5077 24.4884 65.5077 23.8807C65.5077 23.3575 65.6083 22.9268 65.8095 22.5888C66.0108 22.2507 66.2824 21.9831 66.6245 21.7859C66.9666 21.5886 67.349 21.4397 67.7715 21.3391C68.1941 21.2385 68.6248 21.162 69.0634 21.1097C69.6188 21.0453 70.0696 20.993 70.4157 20.9528C70.7618 20.9085 71.0134 20.8381 71.1703 20.7415C71.3273 20.6449 71.4058 20.4879 71.4058 20.2706V20.2283C71.4058 19.7011 71.2569 19.2926 70.959 19.0028C70.6652 18.7131 70.2266 18.5682 69.643 18.5682C69.0353 18.5682 68.5563 18.703 68.2062 18.9726C67.8601 19.2383 67.6206 19.5341 67.4878 19.8601L65.7914 19.4737C65.9927 18.9103 66.2865 18.4555 66.6728 18.1094C67.0632 17.7592 67.512 17.5057 68.0191 17.3487C68.5262 17.1877 69.0594 17.1072 69.6188 17.1072C69.9891 17.1072 70.3815 17.1515 70.796 17.24C71.2146 17.3246 71.605 17.4815 71.9672 17.7109C72.3334 17.9403 72.6333 18.2683 72.8667 18.6949C73.1001 19.1175 73.2169 19.6669 73.2169 20.343V26.5007H71.4541V25.2329H71.3816C71.2649 25.4664 71.0898 25.6958 70.8564 25.9212C70.623 26.1465 70.3232 26.3337 69.9569 26.4826C69.5907 26.6315 69.152 26.706 68.6409 26.706ZM69.0333 25.2571C69.5323 25.2571 69.9589 25.1585 70.3131 24.9613C70.6713 24.7641 70.9429 24.5065 71.1281 24.1886C71.3172 23.8666 71.4118 23.5225 71.4118 23.1562V21.9609C71.3474 22.0253 71.2227 22.0857 71.0375 22.142C70.8564 22.1944 70.6491 22.2406 70.4157 22.2809C70.1823 22.3171 69.9549 22.3513 69.7335 22.3835C69.5122 22.4117 69.3271 22.4358 69.1781 22.456C68.828 22.5002 68.508 22.5747 68.2183 22.6793C67.9325 22.784 67.7031 22.9349 67.5301 23.1321C67.361 23.3253 67.2765 23.5828 67.2765 23.9048C67.2765 24.3515 67.4415 24.6896 67.7715 24.919C68.1016 25.1444 68.5221 25.2571 69.0333 25.2571ZM79.9495 17.228V18.6768H74.8846V17.228H79.9495ZM76.2429 15.0064H78.0479V23.778C78.0479 24.1282 78.1002 24.3918 78.2049 24.5689C78.3095 24.7419 78.4443 24.8607 78.6093 24.9251C78.7784 24.9854 78.9615 25.0156 79.1587 25.0156C79.3036 25.0156 79.4304 25.0056 79.539 24.9854C79.6477 24.9653 79.7322 24.9492 79.7926 24.9371L80.1186 26.4283C80.0139 26.4685 79.865 26.5087 79.6718 26.549C79.4787 26.5933 79.2372 26.6174 78.9474 26.6214C78.4725 26.6295 78.0298 26.545 77.6193 26.3679C77.2088 26.1908 76.8767 25.9171 76.6232 25.5469C76.3696 25.1766 76.2429 24.7118 76.2429 24.1523V15.0064ZM88.4556 26.5007L85.7269 17.228H87.5923L89.4094 24.0376H89.5L91.3231 17.228H93.1885L94.9996 24.0074H95.0902L96.8952 17.228H98.7606L96.038 26.5007H94.1967L92.3132 19.8057H92.1743L90.2908 26.5007H88.4556ZM100.474 26.5007V17.228H102.279V26.5007H100.474ZM101.385 15.7972C101.071 15.7972 100.802 15.6926 100.576 15.4833C100.355 15.27 100.244 15.0164 100.244 14.7226C100.244 14.4248 100.355 14.1713 100.576 13.962C100.802 13.7487 101.071 13.642 101.385 13.642C101.699 13.642 101.967 13.7487 102.188 13.962C102.413 14.1713 102.526 14.4248 102.526 14.7226C102.526 15.0164 102.413 15.27 102.188 15.4833C101.967 15.6926 101.699 15.7972 101.385 15.7972ZM109.035 17.228V18.6768H103.97V17.228H109.035ZM105.329 15.0064H107.134V23.778C107.134 24.1282 107.186 24.3918 107.291 24.5689C107.395 24.7419 107.53 24.8607 107.695 24.9251C107.864 24.9854 108.047 25.0156 108.245 25.0156C108.39 25.0156 108.516 25.0056 108.625 24.9854C108.734 24.9653 108.818 24.9492 108.879 24.9371L109.205 26.4283C109.1 26.4685 108.951 26.5087 108.758 26.549C108.565 26.5933 108.323 26.6174 108.033 26.6214C107.558 26.6295 107.116 26.545 106.705 26.3679C106.295 26.1908 105.963 25.9171 105.709 25.5469C105.456 25.1766 105.329 24.7118 105.329 24.1523V15.0064ZM113.036 20.995V26.5007H111.231V14.1371H113.012V18.7372H113.127C113.344 18.2382 113.676 17.8417 114.123 17.5479C114.57 17.2541 115.153 17.1072 115.874 17.1072C116.51 17.1072 117.065 17.238 117.54 17.4996C118.019 17.7612 118.389 18.1516 118.651 18.6708C118.916 19.1859 119.049 19.8299 119.049 20.6026V26.5007H117.244V20.8199C117.244 20.1398 117.069 19.6126 116.719 19.2383C116.369 18.86 115.882 18.6708 115.258 18.6708C114.831 18.6708 114.449 18.7614 114.111 18.9425C113.777 19.1236 113.513 19.3892 113.32 19.7393C113.131 20.0855 113.036 20.504 113.036 20.995ZM131.831 22.6552V17.228H133.642V26.5007H131.867V24.8949H131.771C131.557 25.3899 131.215 25.8024 130.744 26.1324C130.277 26.4584 129.696 26.6214 129 26.6214C128.404 26.6214 127.877 26.4906 127.418 26.229C126.963 25.9634 126.605 25.571 126.343 25.0518C126.086 24.5327 125.957 23.8907 125.957 23.1261V17.228H127.762V22.9087C127.762 23.5406 127.937 24.0437 128.287 24.418C128.637 24.7922 129.092 24.9794 129.652 24.9794C129.99 24.9794 130.326 24.8949 130.66 24.7258C130.998 24.5568 131.278 24.3012 131.499 23.9591C131.724 23.6171 131.835 23.1824 131.831 22.6552ZM143.016 19.4918L141.38 19.7816C141.311 19.5723 141.203 19.3731 141.054 19.1839C140.909 18.9948 140.712 18.8398 140.462 18.7191C140.213 18.5984 139.901 18.538 139.526 18.538C139.015 18.538 138.589 18.6527 138.247 18.8821C137.905 19.1075 137.734 19.3993 137.734 19.7574C137.734 20.0673 137.848 20.3169 138.078 20.506C138.307 20.6952 138.677 20.8501 139.188 20.9709L140.661 21.3089C141.515 21.5061 142.151 21.81 142.569 22.2205C142.988 22.631 143.197 23.1643 143.197 23.8203C143.197 24.3757 143.036 24.8707 142.714 25.3054C142.396 25.736 141.951 26.0741 141.38 26.3196C140.812 26.5651 140.154 26.6878 139.406 26.6878C138.367 26.6878 137.52 26.4665 136.864 26.0238C136.208 25.577 135.806 24.9432 135.657 24.1221L137.401 23.8565C137.51 24.3113 137.734 24.6554 138.072 24.8888C138.41 25.1182 138.85 25.2329 139.394 25.2329C139.985 25.2329 140.458 25.1102 140.812 24.8647C141.167 24.6152 141.344 24.3113 141.344 23.9531C141.344 23.6633 141.235 23.4199 141.018 23.2226C140.804 23.0254 140.476 22.8765 140.034 22.7759L138.464 22.4318C137.599 22.2346 136.959 21.9207 136.544 21.49C136.134 21.0594 135.928 20.5141 135.928 19.854C135.928 19.3067 136.081 18.8278 136.387 18.4172C136.693 18.0067 137.116 17.6868 137.655 17.4574C138.194 17.2239 138.812 17.1072 139.508 17.1072C140.511 17.1072 141.299 17.3246 141.875 17.7592C142.45 18.1899 142.831 18.7674 143.016 19.4918ZM153.587 26.6878C152.717 26.6878 151.959 26.4886 151.311 26.0902C150.663 25.6917 150.16 25.1343 149.801 24.418C149.443 23.7016 149.264 22.8645 149.264 21.9066C149.264 20.9447 149.443 20.1036 149.801 19.3832C150.16 18.6627 150.663 18.1033 151.311 17.7049C151.959 17.3065 152.717 17.1072 153.587 17.1072C154.456 17.1072 155.214 17.3065 155.862 17.7049C156.51 18.1033 157.013 18.6627 157.372 19.3832C157.73 20.1036 157.909 20.9447 157.909 21.9066C157.909 22.8645 157.73 23.7016 157.372 24.418C157.013 25.1343 156.51 25.6917 155.862 26.0902C155.214 26.4886 154.456 26.6878 153.587 26.6878ZM153.593 25.1726C154.156 25.1726 154.623 25.0237 154.993 24.7258C155.363 24.428 155.637 24.0316 155.814 23.5366C155.995 23.0415 156.086 22.4962 156.086 21.9006C156.086 21.3089 155.995 20.7656 155.814 20.2706C155.637 19.7715 155.363 19.3711 154.993 19.0692C154.623 18.7674 154.156 18.6165 153.593 18.6165C153.025 18.6165 152.554 18.7674 152.18 19.0692C151.81 19.3711 151.534 19.7715 151.353 20.2706C151.176 20.7656 151.087 21.3089 151.087 21.9006C151.087 22.4962 151.176 23.0415 151.353 23.5366C151.534 24.0316 151.81 24.428 152.18 24.7258C152.554 25.0237 153.025 25.1726 153.593 25.1726ZM161.729 20.995V26.5007H159.924V17.228H161.656V18.7372H161.771C161.984 18.2462 162.318 17.8518 162.773 17.554C163.232 17.2561 163.81 17.1072 164.506 17.1072C165.138 17.1072 165.691 17.24 166.166 17.5057C166.641 17.7673 167.009 18.1577 167.271 18.6768C167.532 19.196 167.663 19.8379 167.663 20.6026V26.5007H165.858V20.8199C165.858 20.1478 165.683 19.6226 165.333 19.2443C164.983 18.862 164.502 18.6708 163.89 18.6708C163.471 18.6708 163.099 18.7614 162.773 18.9425C162.451 19.1236 162.196 19.3892 162.007 19.7393C161.821 20.0855 161.729 20.504 161.729 20.995Z" fill="#E8E8E8"/>
</g>
<path d="M176.962 14.1371L179.219 18.043H179.316L181.598 14.1371H184.942L181.212 20.3189L185.063 26.5007H181.634L179.316 22.5525H179.219L176.901 26.5007H173.496L177.33 20.3189L173.593 14.1371H176.962Z" fill="white"/>
</g>
<defs>
<filter id="filter0_d_1_56" x="2.39972" y="0.39972" width="39.202" height="39.202" filterUnits="userSpaceOnUse" color-interpolation-filters="sRGB">
<feFlood flood-opacity="0" result="BackgroundImageFix"/>
<feColorMatrix in="SourceAlpha" type="matrix" values="0 0 0 0 0 0 0 0 0 0 0 0 0 0 0 0 0 0 127 0" result="hardAlpha"/>
<feOffset/>
<feGaussianBlur stdDeviation="2.80014"/>
<feComposite in2="hardAlpha" operator="out"/>
<feColorMatrix type="matrix" values="0 0 0 0 0 0 0 0 0 0 0 0 0 0 0 0 0 0 0.25 0"/>
<feBlend mode="normal" in2="BackgroundImageFix" result="effect1_dropShadow_1_56"/>
<feBlend mode="normal" in="SourceGraphic" in2="effect1_dropShadow_1_56" result="shape"/>
</filter>
<filter id="filter1_d_1_56" x="36.2871" y="3.78642" width="155.429" height="32.4286" filterUnits="userSpaceOnUse" color-interpolation-filters="sRGB">
<feFlood flood-opacity="0" result="BackgroundImageFix"/>
<feColorMatrix in="SourceAlpha" type="matrix" values="0 0 0 0 0 0 0 0 0 0 0 0 0 0 0 0 0 0 127 0" result="hardAlpha"/>
<feOffset/>
<feGaussianBlur stdDeviation="2.85714"/>
<feComposite in2="hardAlpha" operator="out"/>
<feColorMatrix type="matrix" values="0 0 0 0 0 0 0 0 0 0 0 0 0 0 0 0 0 0 0.25 0"/>
<feBlend mode="normal" in2="BackgroundImageFix" result="effect1_dropShadow_1_56"/>
<feBlend mode="normal" in="SourceGraphic" in2="effect1_dropShadow_1_56" result="shape"/>
</filter>
<filter id="filter2_d_1_56" x="38.9613" y="13.642" width="132.702" height="21.0639" filterUnits="userSpaceOnUse" color-interpolation-filters="sRGB">
<feFlood flood-opacity="0" result="BackgroundImageFix"/>
<feColorMatrix in="SourceAlpha" type="matrix" values="0 0 0 0 0 0 0 0 0 0 0 0 0 0 0 0 0 0 127 0" result="hardAlpha"/>
<feOffset dy="4"/>
<feGaussianBlur stdDeviation="2"/>
<feComposite in2="hardAlpha" operator="out"/>
<feColorMatrix type="matrix" values="0 0 0 0 0 0 0 0 0 0 0 0 0 0 0 0 0 0 0.25 0"/>
<feBlend mode="normal" in2="BackgroundImageFix" result="effect1_dropShadow_1_56"/>
<feBlend mode="normal" in="SourceGraphic" in2="effect1_dropShadow_1_56" result="shape"/>
</filter>
<linearGradient id="paint0_linear_1_56" x1="97.0007" y1="0" x2="97.0007" y2="40.0014" gradientUnits="userSpaceOnUse">
<stop stop-color="#202020"/>
<stop offset="1"/>
</linearGradient>
</defs>
</svg>
