<svg width="275" height="40" viewBox="0 0 275 40" fill="none" xmlns="http://www.w3.org/2000/svg">
<rect width="275.001" height="40.0014" rx="8" fill="url(#paint0_linear_1_56)"/>
<rect x="1.07143" y="1.07143" width="272.858" height="37.8585" rx="6.92857" stroke="white" stroke-opacity="0.15" stroke-width="2.14286"/>
<g filter="url(#filter0_d_1_56)">
<path fill-rule="evenodd" clip-rule="evenodd" d="M8 9.50381C8 9.1547 8.13827 8.8199 8.3844 8.57304C8.63052 8.32619 8.96434 8.18751 9.31242 8.18751H16.7547C18.9018 8.18751 20.8092 9.223 22.0044 10.8219C22.6154 10.0028 23.4086 9.33817 24.3209 8.88083C25.2332 8.42348 26.2394 8.18607 27.2593 8.18751H34.6876C35.0357 8.18751 35.3695 8.32619 35.6156 8.57304C35.8617 8.8199 36 9.1547 36 9.50381V27.9321C36 28.2812 35.8617 28.616 35.6156 28.8628C35.3695 29.1097 35.0357 29.2484 34.6876 29.2484H26.8008C26.2838 29.2484 25.7718 29.3505 25.2941 29.5489C24.8164 29.7474 24.3824 30.0383 24.0167 30.405L22.9283 31.4948C22.6822 31.7413 22.3487 31.8798 22.0009 31.8798C21.6531 31.8798 21.3195 31.7413 21.0734 31.4948L19.985 30.405C19.6194 30.0383 19.1853 29.7474 18.7077 29.5489C18.23 29.3505 17.718 29.2484 17.2009 29.2484H9.31242C8.96434 29.2484 8.63052 29.1097 8.3844 28.8628C8.13827 28.616 8 28.2812 8 27.9321V9.50381ZM23.3203 14.769C23.3203 13.7217 23.7351 12.7173 24.4735 11.9767C25.2119 11.2362 26.2133 10.8201 27.2575 10.8201H33.3734V26.6158H26.7991C25.5567 26.6158 24.3492 26.9685 23.3133 27.6197L23.3203 14.769V14.769ZM20.6885 27.6232L20.6955 18.7197L20.692 14.7655C20.691 13.7188 20.2758 12.7153 19.5375 11.9755C18.7992 11.2357 17.7983 10.8201 16.7547 10.8201H10.6248V26.6158H17.1992C18.4336 26.6157 19.643 26.9649 20.6885 27.6232V27.6232Z" fill="#E8E8E8"/>
</g>
<g filter="url(#filter1_d_1_56)">
<path d="M44.4403 14.1371L47.8814 24.2067H48.0202L51.4613 14.1371H53.4776L49.0284 26.5007H46.8732L42.424 14.1371H44.4403ZM55.1181 26.5007V17.228H56.9232V26.5007H55.1181ZM56.0297 15.7972C55.7158 15.7972 55.4461 15.6926 55.2208 15.4833C54.9994 15.27 54.8887 15.0164 54.8887 14.7226C54.8887 14.4248 54.9994 14.1713 55.2208 13.962C55.4461 13.7487 55.7158 13.642 56.0297 13.642C56.3436 13.642 56.6113 13.7487 56.8326 13.962C57.058 14.1713 57.1707 14.4248 57.1707 14.7226C57.1707 15.0164 57.058 15.27 56.8326 15.4833C56.6113 15.6926 56.3436 15.7972 56.0297 15.7972ZM63.348 26.6878C62.4344 26.6878 61.6476 26.4926 60.9875 26.1023C60.3315 25.7078 59.8244 25.1545 59.4662 24.4421C59.1121 23.7257 58.935 22.8866 58.935 21.9247C58.935 20.9749 59.1121 20.1378 59.4662 19.4133C59.8244 18.6889 60.3235 18.1234 60.9634 17.717C61.6073 17.3105 62.3599 17.1072 63.2212 17.1072C63.7444 17.1072 64.2515 17.1938 64.7425 17.3668C65.2335 17.5399 65.6742 17.8115 66.0646 18.1818C66.455 18.5521 66.7629 19.033 66.9883 19.6246C67.2136 20.2122 67.3263 20.9266 67.3263 21.7677V22.4077H59.9552V21.0554H65.5575C65.5575 20.5805 65.4609 20.1599 65.2677 19.7937C65.0745 19.4234 64.8029 19.1316 64.4527 18.9183C64.1066 18.705 63.7001 18.5984 63.2333 18.5984C62.7262 18.5984 62.2835 18.7231 61.9052 18.9726C61.5309 19.2181 61.2411 19.5401 61.0358 19.9386C60.8346 20.333 60.734 20.7616 60.734 21.2244V22.2809C60.734 22.9007 60.8427 23.4279 61.06 23.8626C61.2813 24.2972 61.5892 24.6292 61.9836 24.8587C62.378 25.084 62.8389 25.1967 63.3661 25.1967C63.7082 25.1967 64.0201 25.1484 64.3018 25.0518C64.5835 24.9512 64.827 24.8023 65.0323 24.6051C65.2375 24.4079 65.3945 24.1644 65.5032 23.8746L67.2116 24.1825C67.0748 24.6856 66.8293 25.1263 66.4751 25.5046C66.125 25.8789 65.6843 26.1707 65.153 26.38C64.6258 26.5852 64.0241 26.6878 63.348 26.6878ZM71.3228 26.5007L68.5941 17.228H70.4595L72.2766 24.0376H72.3672L74.1903 17.228H76.0557L77.8668 24.0074H77.9574L79.7624 17.228H81.6278L78.9051 26.5007H77.0639L75.1804 19.8057H75.0415L73.158 26.5007H71.3228ZM92.1683 17.228V18.6768H87.1033V17.228H92.1683ZM88.4616 15.0064H90.2667V23.778C90.2667 24.1282 90.319 24.3918 90.4236 24.5689C90.5283 24.7419 90.6631 24.8607 90.8281 24.9251C90.9971 24.9854 91.1802 25.0156 91.3774 25.0156C91.5223 25.0156 91.6491 25.0056 91.7578 24.9854C91.8664 24.9653 91.951 24.9492 92.0113 24.9371L92.3373 26.4283C92.2327 26.4685 92.0838 26.5087 91.8906 26.549C91.6974 26.5933 91.4559 26.6174 91.1662 26.6214C90.6912 26.6295 90.2485 26.545 89.838 26.3679C89.4275 26.1908 89.0955 25.9171 88.8419 25.5469C88.5884 25.1766 88.4616 24.7118 88.4616 24.1523V15.0064ZM96.1693 20.995V26.5007H94.3642V14.1371H96.1451V18.7372H96.2598C96.4771 18.2382 96.8092 17.8417 97.2559 17.5479C97.7026 17.2541 98.2862 17.1072 99.0066 17.1072C99.6425 17.1072 100.198 17.238 100.673 17.4996C101.152 17.7612 101.522 18.1516 101.784 18.6708C102.049 19.1859 102.182 19.8299 102.182 20.6026V26.5007H100.377V20.8199C100.377 20.1398 100.202 19.6126 99.8518 19.2383C99.5016 18.86 99.0147 18.6708 98.3909 18.6708C97.9642 18.6708 97.5819 18.7614 97.2438 18.9425C96.9098 19.1236 96.6462 19.3892 96.453 19.7393C96.2638 20.0855 96.1693 20.504 96.1693 20.995ZM108.587 26.6878C107.674 26.6878 106.887 26.4926 106.227 26.1023C105.571 25.7078 105.064 25.1545 104.705 24.4421C104.351 23.7257 104.174 22.8866 104.174 21.9247C104.174 20.9749 104.351 20.1378 104.705 19.4133C105.064 18.6889 105.563 18.1234 106.203 17.717C106.847 17.3105 107.599 17.1072 108.46 17.1072C108.984 17.1072 109.491 17.1938 109.982 17.3668C110.473 17.5399 110.913 17.8115 111.304 18.1818C111.694 18.5521 112.002 19.033 112.227 19.6246C112.453 20.2122 112.566 20.9266 112.566 21.7677V22.4077H105.194V21.0554H110.797C110.797 20.5805 110.7 20.1599 110.507 19.7937C110.314 19.4234 110.042 19.1316 109.692 18.9183C109.346 18.705 108.939 18.5984 108.473 18.5984C107.965 18.5984 107.523 18.7231 107.144 18.9726C106.77 19.2181 106.48 19.5401 106.275 19.9386C106.074 20.333 105.973 20.7616 105.973 21.2244V22.2809C105.973 22.9007 106.082 23.4279 106.299 23.8626C106.521 24.2972 106.828 24.6292 107.223 24.8587C107.617 25.084 108.078 25.1967 108.605 25.1967C108.947 25.1967 109.259 25.1484 109.541 25.0518C109.823 24.9512 110.066 24.8023 110.272 24.6051C110.477 24.4079 110.634 24.1644 110.742 23.8746L112.451 24.1825C112.314 24.6856 112.069 25.1263 111.714 25.5046C111.364 25.8789 110.924 26.1707 110.392 26.38C109.865 26.5852 109.263 26.6878 108.587 26.6878Z" fill="#E8E8E8"/>
<path d="M121.925 13.6371V26.0007H118.937V13.6371H121.925ZM126.753 20.7123V26.0007H123.801V16.728H126.609V18.4304H126.711C126.916 17.8629 127.267 17.4182 127.762 17.0962C128.257 16.7702 128.846 16.6072 129.53 16.6072C130.182 16.6072 130.748 16.7541 131.227 17.0479C131.71 17.3377 132.084 17.7442 132.35 18.2674C132.619 18.7866 132.752 19.3943 132.748 20.0905V26.0007H129.796V20.6701C129.8 20.1549 129.669 19.7525 129.404 19.4627C129.142 19.1729 128.778 19.028 128.311 19.028C128.001 19.028 127.727 19.0965 127.49 19.2333C127.256 19.3661 127.075 19.5573 126.947 19.8068C126.822 20.0563 126.757 20.3582 126.753 20.7123ZM142.671 19.5593L139.961 19.6317C139.933 19.4386 139.856 19.2675 139.731 19.1186C139.607 18.9657 139.444 18.8469 139.242 18.7624C139.045 18.6739 138.816 18.6296 138.554 18.6296C138.212 18.6296 137.92 18.698 137.679 18.8349C137.441 18.9717 137.325 19.1568 137.329 19.3903C137.325 19.5714 137.397 19.7283 137.546 19.8611C137.699 19.994 137.971 20.1006 138.361 20.1811L140.148 20.5192C141.074 20.6962 141.762 20.99 142.212 21.4006C142.667 21.8111 142.897 22.3544 142.901 23.0305C142.897 23.6664 142.708 24.2198 142.333 24.6907C141.963 25.1616 141.456 25.5278 140.812 25.7894C140.168 26.047 139.431 26.1758 138.602 26.1758C137.278 26.1758 136.234 25.9041 135.469 25.3608C134.709 24.8134 134.274 24.081 134.165 23.1633L137.081 23.0909C137.145 23.429 137.313 23.6865 137.582 23.8636C137.852 24.0407 138.196 24.1292 138.614 24.1292C138.993 24.1292 139.301 24.0588 139.538 23.918C139.776 23.7771 139.896 23.5899 139.9 23.3565C139.896 23.1472 139.804 22.9802 139.623 22.8555C139.442 22.7267 139.158 22.6261 138.771 22.5536L137.154 22.2457C136.224 22.0767 135.532 21.7648 135.077 21.31C134.622 20.8512 134.397 20.2676 134.401 19.5593C134.397 18.9395 134.562 18.4103 134.896 17.9716C135.23 17.5289 135.705 17.1908 136.32 16.9574C136.936 16.7239 137.663 16.6072 138.5 16.6072C139.755 16.6072 140.746 16.8708 141.47 17.3981C142.194 17.9213 142.595 18.6417 142.671 19.5593ZM149.588 16.728V18.9013H143.738V16.728H149.588ZM144.964 14.5064H147.916V23.0849C147.916 23.266 147.944 23.4129 148 23.5256C148.061 23.6342 148.147 23.7127 148.26 23.761C148.373 23.8053 148.507 23.8274 148.664 23.8274C148.777 23.8274 148.896 23.8173 149.021 23.7972C149.149 23.7731 149.246 23.7529 149.31 23.7368L149.757 25.8679C149.616 25.9081 149.417 25.9584 149.159 26.0188C148.906 26.0792 148.602 26.1174 148.248 26.1335C147.556 26.1657 146.962 26.0852 146.467 25.892C145.976 25.6948 145.6 25.389 145.338 24.9744C145.081 24.5599 144.956 24.0387 144.964 23.4109V14.5064ZM153.708 26.1577C153.117 26.1577 152.591 26.0591 152.133 25.8618C151.678 25.6606 151.318 25.3588 151.052 24.9563C150.79 24.5498 150.66 24.0407 150.66 23.429C150.66 22.9138 150.75 22.4792 150.931 22.125C151.112 21.7708 151.362 21.4831 151.68 21.2617C151.998 21.0404 152.364 20.8733 152.779 20.7606C153.193 20.6439 153.636 20.5654 154.107 20.5252C154.634 20.4769 155.059 20.4266 155.381 20.3743C155.703 20.3179 155.936 20.2395 156.081 20.1388C156.23 20.0342 156.304 19.8873 156.304 19.6981V19.668C156.304 19.3581 156.198 19.1186 155.984 18.9496C155.771 18.7805 155.483 18.696 155.121 18.696C154.731 18.696 154.417 18.7805 154.179 18.9496C153.942 19.1186 153.791 19.352 153.726 19.6498L151.004 19.5533C151.084 18.9898 151.292 18.4867 151.626 18.044C151.964 17.5973 152.426 17.2471 153.014 16.9936C153.606 16.736 154.316 16.6072 155.145 16.6072C155.737 16.6072 156.282 16.6777 156.781 16.8185C157.28 16.9554 157.715 17.1566 158.085 17.4222C158.455 17.6838 158.741 18.0058 158.942 18.3881C159.148 18.7705 159.25 19.2071 159.25 19.6981V26.0007H156.473V24.7088H156.401C156.236 25.0227 156.024 25.2883 155.767 25.5057C155.513 25.723 155.214 25.886 154.867 25.9947C154.525 26.1033 154.139 26.1577 153.708 26.1577ZM154.62 24.2258C154.938 24.2258 155.224 24.1614 155.477 24.0327C155.735 23.9039 155.94 23.7268 156.093 23.5014C156.246 23.272 156.322 23.0064 156.322 22.7045V21.8231C156.238 21.8674 156.135 21.9077 156.014 21.9439C155.898 21.9801 155.769 22.0143 155.628 22.0465C155.487 22.0787 155.342 22.1069 155.193 22.131C155.044 22.1552 154.902 22.1773 154.765 22.1974C154.487 22.2417 154.25 22.3101 154.052 22.4027C153.859 22.4953 153.71 22.616 153.606 22.7649C153.505 22.9098 153.455 23.0828 153.455 23.2841C153.455 23.59 153.563 23.8234 153.781 23.9844C154.002 24.1453 154.282 24.2258 154.62 24.2258ZM164.007 13.6371V26.0007H161.055V13.6371H164.007ZM168.838 13.6371V26.0007H165.886V13.6371H168.838ZM173.331 26.1577C172.74 26.1577 172.215 26.0591 171.756 25.8618C171.301 25.6606 170.941 25.3588 170.675 24.9563C170.413 24.5498 170.283 24.0407 170.283 23.429C170.283 22.9138 170.373 22.4792 170.554 22.125C170.735 21.7708 170.985 21.4831 171.303 21.2617C171.621 21.0404 171.987 20.8733 172.402 20.7606C172.816 20.6439 173.259 20.5654 173.73 20.5252C174.257 20.4769 174.682 20.4266 175.004 20.3743C175.326 20.3179 175.559 20.2395 175.704 20.1388C175.853 20.0342 175.927 19.8873 175.927 19.6981V19.668C175.927 19.3581 175.821 19.1186 175.607 18.9496C175.394 18.7805 175.106 18.696 174.744 18.696C174.354 18.696 174.04 18.7805 173.802 18.9496C173.565 19.1186 173.414 19.352 173.349 19.6498L170.627 19.5533C170.707 18.9898 170.915 18.4867 171.249 18.044C171.587 17.5973 172.05 17.2471 172.637 16.9936C173.229 16.736 173.939 16.6072 174.768 16.6072C175.36 16.6072 175.905 16.6777 176.404 16.8185C176.903 16.9554 177.338 17.1566 177.708 17.4222C178.078 17.6838 178.364 18.0058 178.565 18.3881C178.771 18.7705 178.873 19.2071 178.873 19.6981V26.0007H176.096V24.7088H176.024C175.859 25.0227 175.648 25.2883 175.39 25.5057C175.136 25.723 174.837 25.886 174.49 25.9947C174.148 26.1033 173.762 26.1577 173.331 26.1577ZM174.243 24.2258C174.561 24.2258 174.847 24.1614 175.1 24.0327C175.358 23.9039 175.563 23.7268 175.716 23.5014C175.869 23.272 175.945 23.0064 175.945 22.7045V21.8231C175.861 21.8674 175.758 21.9077 175.637 21.9439C175.521 21.9801 175.392 22.0143 175.251 22.0465C175.11 22.0787 174.965 22.1069 174.816 22.131C174.668 22.1552 174.525 22.1773 174.388 22.1974C174.11 22.2417 173.873 22.3101 173.675 22.4027C173.482 22.4953 173.333 22.616 173.229 22.7649C173.128 22.9098 173.078 23.0828 173.078 23.2841C173.078 23.59 173.186 23.8234 173.404 23.9844C173.625 24.1453 173.905 24.2258 174.243 24.2258ZM185.912 16.728V18.9013H180.063V16.728H185.912ZM181.288 14.5064H184.24V23.0849C184.24 23.266 184.268 23.4129 184.325 23.5256C184.385 23.6342 184.471 23.7127 184.584 23.761C184.697 23.8053 184.832 23.8274 184.989 23.8274C185.101 23.8274 185.22 23.8173 185.345 23.7972C185.474 23.7731 185.57 23.7529 185.635 23.7368L186.081 25.8679C185.94 25.9081 185.741 25.9584 185.484 26.0188C185.23 26.0792 184.926 26.1174 184.572 26.1335C183.88 26.1657 183.286 26.0852 182.791 25.892C182.3 25.6948 181.924 25.389 181.662 24.9744C181.405 24.5599 181.28 24.0387 181.288 23.4109V14.5064ZM187.419 26.0007V16.728H190.371V26.0007H187.419ZM188.898 15.6474C188.483 15.6474 188.127 15.5105 187.829 15.2369C187.531 14.9592 187.382 14.6251 187.382 14.2347C187.382 13.8484 187.531 13.5183 187.829 13.2447C188.127 12.967 188.483 12.8281 188.898 12.8281C189.316 12.8281 189.672 12.967 189.966 13.2447C190.264 13.5183 190.413 13.8484 190.413 14.2347C190.413 14.6251 190.264 14.9592 189.966 15.2369C189.672 15.5105 189.316 15.6474 188.898 15.6474ZM196.578 26.1758C195.604 26.1758 194.767 25.9765 194.067 25.5781C193.37 25.1757 192.833 24.6162 192.455 23.8998C192.081 23.1794 191.893 22.3443 191.893 21.3945C191.893 20.4407 192.081 19.6056 192.455 18.8892C192.833 18.1688 193.37 17.6094 194.067 17.2109C194.767 16.8085 195.604 16.6072 196.578 16.6072C197.552 16.6072 198.387 16.8085 199.083 17.2109C199.784 17.6094 200.321 18.1688 200.695 18.8892C201.074 19.6056 201.263 20.4407 201.263 21.3945C201.263 22.3443 201.074 23.1794 200.695 23.8998C200.321 24.6162 199.784 25.1757 199.083 25.5781C198.387 25.9765 197.552 26.1758 196.578 26.1758ZM196.596 23.9481C196.95 23.9481 197.25 23.8395 197.496 23.6221C197.741 23.4048 197.928 23.103 198.057 22.7166C198.19 22.3302 198.256 21.8835 198.256 21.3764C198.256 20.8613 198.19 20.4105 198.057 20.0241C197.928 19.6378 197.741 19.3359 197.496 19.1186C197.25 18.9013 196.95 18.7926 196.596 18.7926C196.23 18.7926 195.92 18.9013 195.666 19.1186C195.417 19.3359 195.226 19.6378 195.093 20.0241C194.964 20.4105 194.9 20.8613 194.9 21.3764C194.9 21.8835 194.964 22.3302 195.093 22.7166C195.226 23.103 195.417 23.4048 195.666 23.6221C195.92 23.8395 196.23 23.9481 196.596 23.9481ZM205.727 20.7123V26.0007H202.775V16.728H205.582V18.4304H205.685C205.89 17.8629 206.24 17.4182 206.735 17.0962C207.23 16.7702 207.82 16.6072 208.504 16.6072C209.156 16.6072 209.721 16.7541 210.2 17.0479C210.683 17.3377 211.058 17.7442 211.323 18.2674C211.593 18.7866 211.726 19.3943 211.722 20.0905V26.0007H208.77V20.6701C208.774 20.1549 208.643 19.7525 208.377 19.4627C208.116 19.1729 207.751 19.028 207.285 19.028C206.975 19.028 206.701 19.0965 206.464 19.2333C206.23 19.3661 206.049 19.5573 205.92 19.8068C205.795 20.0563 205.731 20.3582 205.727 20.7123ZM225.315 17.6758C225.247 17.4222 225.146 17.1989 225.014 17.0057C224.881 16.8085 224.718 16.6414 224.525 16.5046C224.331 16.3678 224.11 16.2651 223.86 16.1967C223.611 16.1243 223.337 16.0881 223.039 16.0881C222.44 16.0881 221.921 16.2329 221.482 16.5227C221.047 16.8125 220.711 17.2351 220.474 17.7905C220.236 18.3418 220.118 19.0119 220.118 19.8008C220.118 20.5936 220.232 21.2698 220.462 21.8292C220.691 22.3886 221.023 22.8152 221.458 23.109C221.892 23.4028 222.42 23.5497 223.039 23.5497C223.587 23.5497 224.05 23.4612 224.428 23.2841C224.81 23.103 225.1 22.8474 225.297 22.5174C225.494 22.1874 225.593 21.799 225.593 21.3523L226.148 21.4187H223.142V19.2393H228.473V20.8753C228.473 21.9821 228.237 22.9299 227.766 23.7187C227.299 24.5076 226.656 25.1133 225.835 25.5359C225.018 25.9584 224.078 26.1697 223.015 26.1697C221.836 26.1697 220.8 25.9142 219.906 25.403C219.013 24.8919 218.317 24.1635 217.817 23.2177C217.318 22.2679 217.069 21.141 217.069 19.837C217.069 18.8228 217.22 17.9233 217.522 17.1385C217.824 16.3497 218.244 15.6816 218.783 15.1342C219.327 14.5869 219.955 14.1723 220.667 13.8906C221.383 13.6089 222.154 13.468 222.979 13.468C223.695 13.468 224.362 13.5707 224.977 13.7759C225.597 13.9812 226.144 14.2709 226.619 14.6452C227.098 15.0195 227.487 15.4642 227.784 15.9794C228.082 16.4945 228.267 17.06 228.34 17.6758H225.315ZM236.217 21.9982V16.728H239.163V26.0007H236.349V24.2741H236.253C236.048 24.8416 235.697 25.2924 235.202 25.6264C234.711 25.9564 234.118 26.1214 233.421 26.1214C232.79 26.1214 232.234 25.9765 231.755 25.6868C231.276 25.397 230.904 24.9925 230.638 24.4734C230.373 23.9502 230.238 23.3384 230.234 22.6381V16.728H233.186V22.0586C233.19 22.5617 233.323 22.9581 233.584 23.2479C233.846 23.5376 234.202 23.6825 234.653 23.6825C234.947 23.6825 235.21 23.6181 235.444 23.4893C235.681 23.3565 235.868 23.1654 236.005 22.9158C236.146 22.6623 236.217 22.3564 236.217 21.9982ZM241.042 26.0007V16.728H243.994V26.0007H241.042ZM242.521 15.6474C242.106 15.6474 241.75 15.5105 241.452 15.2369C241.154 14.9592 241.005 14.6251 241.005 14.2347C241.005 13.8484 241.154 13.5183 241.452 13.2447C241.75 12.967 242.106 12.8281 242.521 12.8281C242.939 12.8281 243.295 12.967 243.589 13.2447C243.887 13.5183 244.036 13.8484 244.036 14.2347C244.036 14.6251 243.887 14.9592 243.589 15.2369C243.295 15.5105 242.939 15.6474 242.521 15.6474ZM249.259 26.1335C248.575 26.1335 247.953 25.9564 247.394 25.6023C246.834 25.2481 246.388 24.7168 246.054 24.0085C245.72 23.3002 245.553 22.4208 245.553 21.3704C245.553 20.2797 245.726 19.3822 246.072 18.6779C246.418 17.9736 246.871 17.4524 247.43 17.1143C247.994 16.7763 248.599 16.6072 249.247 16.6072C249.734 16.6072 250.151 16.6918 250.497 16.8608C250.843 17.0258 251.129 17.2391 251.354 17.5007C251.58 17.7623 251.751 18.034 251.867 18.3157H251.928V13.6371H254.88V26.0007H251.958V24.4975H251.867C251.743 24.7832 251.565 25.0509 251.336 25.3004C251.107 25.5499 250.819 25.7512 250.473 25.9041C250.131 26.057 249.726 26.1335 249.259 26.1335ZM250.286 23.8334C250.644 23.8334 250.95 23.7328 251.203 23.5316C251.457 23.3263 251.652 23.0386 251.789 22.6683C251.926 22.298 251.994 21.8634 251.994 21.3643C251.994 20.8572 251.926 20.4206 251.789 20.0543C251.656 19.6881 251.461 19.4064 251.203 19.2092C250.95 19.0119 250.644 18.9133 250.286 18.9133C249.919 18.9133 249.609 19.014 249.356 19.2152C249.102 19.4164 248.909 19.7002 248.776 20.0664C248.648 20.4326 248.583 20.8653 248.583 21.3643C248.583 21.8634 248.65 22.298 248.782 22.6683C248.915 23.0386 249.106 23.3263 249.356 23.5316C249.609 23.7328 249.919 23.8334 250.286 23.8334ZM261.081 26.1758C260.111 26.1758 259.274 25.9846 258.57 25.6023C257.869 25.2159 257.33 24.6665 256.952 23.9542C256.578 23.2378 256.39 22.3866 256.39 21.4006C256.39 20.4427 256.58 19.6056 256.958 18.8892C257.336 18.1688 257.869 17.6094 258.558 17.2109C259.246 16.8085 260.057 16.6072 260.991 16.6072C261.651 16.6072 262.254 16.7099 262.802 16.9151C263.349 17.1204 263.822 17.4242 264.22 17.8267C264.619 18.2292 264.929 18.7262 265.15 19.3178C265.371 19.9054 265.482 20.5795 265.482 21.3402V22.0767H257.423V20.3622H262.735C262.731 20.0483 262.657 19.7686 262.512 19.5231C262.367 19.2776 262.168 19.0864 261.914 18.9496C261.665 18.8087 261.377 18.7383 261.051 18.7383C260.721 18.7383 260.425 18.8127 260.164 18.9616C259.902 19.1065 259.695 19.3057 259.542 19.5593C259.389 19.8088 259.308 20.0926 259.3 20.4105V22.1552C259.3 22.5335 259.375 22.8655 259.524 23.1513C259.673 23.433 259.884 23.6523 260.157 23.8093C260.431 23.9663 260.757 24.0447 261.135 24.0447C261.397 24.0447 261.635 24.0085 261.848 23.9361C262.061 23.8636 262.244 23.757 262.397 23.6161C262.55 23.4752 262.665 23.3022 262.741 23.0969L265.452 23.1754C265.339 23.7831 265.092 24.3124 264.709 24.7631C264.331 25.2099 263.834 25.558 263.218 25.8075C262.602 26.053 261.89 26.1758 261.081 26.1758Z" fill="#F1F1F1"/>
</g>
<defs>
<filter id="filter0_d_1_56" x="2.39972" y="0.39972" width="39.202" height="39.202" filterUnits="userSpaceOnUse" color-interpolation-filters="sRGB">
<feFlood flood-opacity="0" result="BackgroundImageFix"/>
<feColorMatrix in="SourceAlpha" type="matrix" values="0 0 0 0 0 0 0 0 0 0 0 0 0 0 0 0 0 0 127 0" result="hardAlpha"/>
<feOffset/>
<feGaussianBlur stdDeviation="2.80014"/>
<feComposite in2="hardAlpha" operator="out"/>
<feColorMatrix type="matrix" values="0 0 0 0 0 0 0 0 0 0 0 0 0 0 0 0 0 0 0.25 0"/>
<feBlend mode="normal" in2="BackgroundImageFix" result="effect1_dropShadow_1_56"/>
<feBlend mode="normal" in="SourceGraphic" in2="effect1_dropShadow_1_56" result="shape"/>
</filter>
<filter id="filter1_d_1_56" x="36.2871" y="3.78642" width="236.429" height="32.4286" filterUnits="userSpaceOnUse" color-interpolation-filters="sRGB">
<feFlood flood-opacity="0" result="BackgroundImageFix"/>
<feColorMatrix in="SourceAlpha" type="matrix" values="0 0 0 0 0 0 0 0 0 0 0 0 0 0 0 0 0 0 127 0" result="hardAlpha"/>
<feOffset/>
<feGaussianBlur stdDeviation="2.85714"/>
<feComposite in2="hardAlpha" operator="out"/>
<feColorMatrix type="matrix" values="0 0 0 0 0 0 0 0 0 0 0 0 0 0 0 0 0 0 0.25 0"/>
<feBlend mode="normal" in2="BackgroundImageFix" result="effect1_dropShadow_1_56"/>
<feBlend mode="normal" in="SourceGraphic" in2="effect1_dropShadow_1_56" result="shape"/>
</filter>
<linearGradient id="paint0_linear_1_56" x1="137.501" y1="0" x2="137.501" y2="40.0014" gradientUnits="userSpaceOnUse">
<stop stop-color="#303030"/>
<stop offset="1" stop-color="#1D1D1D"/>
</linearGradient>
</defs>
</svg>
