<svg width="221" height="56" viewBox="0 0 221 56" fill="none" xmlns="http://www.w3.org/2000/svg">
<rect width="221" height="56" rx="8" fill="url(#paint0_linear_1_50)"/>
<rect x="1.05" y="1.05" width="218.9" height="53.9" rx="6.95" stroke="white" stroke-opacity="0.15" stroke-width="2.1"/>
<g filter="url(#filter0_d_1_50)">
<path fill-rule="evenodd" clip-rule="evenodd" d="M12 13.0054C12 12.5067 12.1975 12.0284 12.5491 11.6758C12.9007 11.3231 13.3776 11.125 13.8749 11.125H24.5067C27.574 11.125 30.2989 12.6043 32.0063 14.8884C32.8791 13.7183 34.0123 12.7688 35.3156 12.1155C36.6189 11.4621 38.0563 11.123 39.5133 11.125H50.1251C50.6224 11.125 51.0993 11.3231 51.4509 11.6758C51.8025 12.0284 52 12.5067 52 13.0054V39.3315C52 39.8302 51.8025 40.3085 51.4509 40.6612C51.0993 41.0138 50.6224 41.2119 50.1251 41.2119H38.8583C38.1197 41.2119 37.3883 41.3578 36.7059 41.6413C36.0234 41.9248 35.4034 42.3404 34.8811 42.8642L33.3262 44.4212C32.9746 44.7734 32.4981 44.9712 32.0013 44.9712C31.5044 44.9712 31.0279 44.7734 30.6763 44.4212L29.1214 42.8642C28.5991 42.3404 27.9791 41.9248 27.2966 41.6413C26.6142 41.3578 25.8828 41.2119 25.1442 41.2119H13.8749C13.3776 41.2119 12.9007 41.0138 12.5491 40.6612C12.1975 40.3085 12 39.8302 12 39.3315V13.0054ZM33.8861 20.5272C33.8861 19.031 34.4787 17.5961 35.5336 16.5382C36.5884 15.4802 38.019 14.8859 39.5108 14.8859H48.2477V37.4511H38.8558C37.0809 37.4511 35.356 37.955 33.8761 38.8852L33.8861 20.5272V20.5272ZM30.1264 38.8902L30.1364 26.171L30.1314 20.5222C30.13 19.0269 29.5369 17.5933 28.4822 16.5364C27.4275 15.4795 25.9976 14.8859 24.5067 14.8859H15.7498V37.4511H25.1417C26.9051 37.451 28.6328 37.9498 30.1264 38.8902V38.8902Z" fill="#E8E8E8"/>
</g>
<g filter="url(#filter1_d_1_50)">
<path d="M62.2954 12.8636L65.5341 22.3409H65.6648L68.9034 12.8636H70.8011L66.6136 24.5H64.5852L60.3977 12.8636H62.2954ZM72.3452 24.5V15.7727H74.044V24.5H72.3452ZM73.2031 14.4261C72.9077 14.4261 72.6539 14.3276 72.4417 14.1307C72.2334 13.9299 72.1292 13.6913 72.1292 13.4148C72.1292 13.1345 72.2334 12.8958 72.4417 12.6989C72.6539 12.4981 72.9077 12.3977 73.2031 12.3977C73.4986 12.3977 73.7505 12.4981 73.9588 12.6989C74.1709 12.8958 74.277 13.1345 74.277 13.4148C74.277 13.6913 74.1709 13.9299 73.9588 14.1307C73.7505 14.3276 73.4986 14.4261 73.2031 14.4261ZM80.0909 24.6761C79.231 24.6761 78.4905 24.4924 77.8693 24.125C77.2519 23.7538 76.7746 23.2329 76.4375 22.5625C76.1041 21.8883 75.9375 21.0985 75.9375 20.1932C75.9375 19.2992 76.1041 18.5114 76.4375 17.8295C76.7746 17.1477 77.2443 16.6155 77.8466 16.2329C78.4526 15.8504 79.161 15.6591 79.9716 15.6591C80.464 15.6591 80.9413 15.7405 81.4034 15.9034C81.8655 16.0663 82.2803 16.322 82.6477 16.6704C83.0151 17.0189 83.3049 17.4716 83.517 18.0284C83.7291 18.5814 83.8352 19.2538 83.8352 20.0454V20.6477H76.8977V19.375H82.1704C82.1704 18.928 82.0795 18.5322 81.8977 18.1875C81.7159 17.839 81.4602 17.5644 81.1307 17.3636C80.8049 17.1629 80.4223 17.0625 79.9829 17.0625C79.5057 17.0625 79.089 17.1799 78.7329 17.4148C78.3807 17.6458 78.1079 17.9489 77.9148 18.3239C77.7254 18.6951 77.6307 19.0985 77.6307 19.5341V20.5284C77.6307 21.1117 77.7329 21.6079 77.9375 22.017C78.1458 22.4261 78.4356 22.7386 78.8068 22.9545C79.178 23.1667 79.6117 23.2727 80.1079 23.2727C80.4299 23.2727 80.7235 23.2273 80.9886 23.1364C81.2538 23.0417 81.4829 22.9015 81.6761 22.7159C81.8693 22.5303 82.017 22.3011 82.1193 22.0284L83.7273 22.3182C83.5985 22.7917 83.3674 23.2064 83.0341 23.5625C82.7045 23.9148 82.2898 24.1894 81.7898 24.3864C81.2935 24.5795 80.7273 24.6761 80.0909 24.6761ZM87.5966 24.5L85.0284 15.7727H86.7841L88.4943 22.1818H88.5795L90.2954 15.7727H92.0511L93.7557 22.1534H93.8409L95.5397 15.7727H97.2954L94.7329 24.5H93L91.2272 18.1989H91.0966L89.3238 24.5H87.5966ZM107.216 15.7727V17.1364H102.449V15.7727H107.216ZM103.727 13.6818H105.426V21.9375C105.426 22.267 105.475 22.5151 105.574 22.6818C105.672 22.8447 105.799 22.9564 105.955 23.017C106.114 23.0739 106.286 23.1023 106.472 23.1023C106.608 23.1023 106.727 23.0928 106.83 23.0739C106.932 23.0549 107.011 23.0398 107.068 23.0284L107.375 24.4318C107.276 24.4697 107.136 24.5076 106.955 24.5454C106.773 24.5871 106.545 24.6098 106.273 24.6136C105.826 24.6212 105.409 24.5417 105.023 24.375C104.636 24.2083 104.324 23.9508 104.085 23.6023C103.847 23.2538 103.727 22.8163 103.727 22.2898V13.6818ZM110.982 19.3182V24.5H109.283V12.8636H110.959V17.1932H111.067C111.271 16.7235 111.584 16.3504 112.004 16.0739C112.425 15.7973 112.974 15.6591 113.652 15.6591C114.25 15.6591 114.773 15.7822 115.22 16.0284C115.671 16.2746 116.019 16.642 116.266 17.1307C116.516 17.6155 116.641 18.2216 116.641 18.9489V24.5H114.942V19.1534C114.942 18.5133 114.777 18.017 114.447 17.6648C114.118 17.3087 113.66 17.1307 113.072 17.1307C112.671 17.1307 112.311 17.2159 111.993 17.3864C111.678 17.5568 111.43 17.8068 111.249 18.1364C111.071 18.4621 110.982 18.8561 110.982 19.3182ZM122.669 24.6761C121.809 24.6761 121.069 24.4924 120.447 24.125C119.83 23.7538 119.353 23.2329 119.016 22.5625C118.682 21.8883 118.516 21.0985 118.516 20.1932C118.516 19.2992 118.682 18.5114 119.016 17.8295C119.353 17.1477 119.822 16.6155 120.425 16.2329C121.031 15.8504 121.739 15.6591 122.55 15.6591C123.042 15.6591 123.519 15.7405 123.982 15.9034C124.444 16.0663 124.858 16.322 125.226 16.6704C125.593 17.0189 125.883 17.4716 126.095 18.0284C126.307 18.5814 126.413 19.2538 126.413 20.0454V20.6477H119.476V19.375H124.749C124.749 18.928 124.658 18.5322 124.476 18.1875C124.294 17.839 124.038 17.5644 123.709 17.3636C123.383 17.1629 123 17.0625 122.561 17.0625C122.084 17.0625 121.667 17.1799 121.311 17.4148C120.959 17.6458 120.686 17.9489 120.493 18.3239C120.303 18.6951 120.209 19.0985 120.209 19.5341V20.5284C120.209 21.1117 120.311 21.6079 120.516 22.017C120.724 22.4261 121.014 22.7386 121.385 22.9545C121.756 23.1667 122.19 23.2727 122.686 23.2727C123.008 23.2727 123.302 23.2273 123.567 23.1364C123.832 23.0417 124.061 22.9015 124.254 22.7159C124.447 22.5303 124.595 22.3011 124.697 22.0284L126.305 22.3182C126.177 22.7917 125.946 23.2064 125.612 23.5625C125.283 23.9148 124.868 24.1894 124.368 24.3864C123.872 24.5795 123.305 24.6761 122.669 24.6761Z" fill="#E8E8E8"/>
<path d="M63.924 31.1364V43.5H60.9357V31.1364H63.924ZM68.752 38.2116V43.5H65.8V34.2273H68.6071V35.9297H68.7098C68.915 35.3622 69.2652 34.9175 69.7602 34.5955C70.2552 34.2695 70.8448 34.1065 71.529 34.1065C72.181 34.1065 72.7465 34.2534 73.2254 34.5472C73.7083 34.837 74.0826 35.2435 74.3483 35.7667C74.6179 36.2859 74.7507 36.8936 74.7467 37.5898V43.5H71.7946V38.1694C71.7987 37.6542 71.6679 37.2518 71.4022 36.962C71.1406 36.6722 70.7764 36.5273 70.3096 36.5273C69.9997 36.5273 69.726 36.5958 69.4885 36.7326C69.2551 36.8654 69.074 37.0566 68.9452 37.3061C68.8204 37.5556 68.756 37.8575 68.752 38.2116ZM84.6699 37.0586L81.9593 37.131C81.9311 36.9378 81.8547 36.7668 81.7299 36.6179C81.6052 36.465 81.4422 36.3462 81.2409 36.2617C81.0437 36.1732 80.8143 36.1289 80.5527 36.1289C80.2106 36.1289 79.9188 36.1973 79.6774 36.3342C79.4399 36.471 79.3232 36.6561 79.3272 36.8895C79.3232 37.0707 79.3956 37.2276 79.5445 37.3604C79.6975 37.4932 79.9691 37.5999 80.3595 37.6804L82.1465 38.0185C83.0721 38.1955 83.7603 38.4893 84.2111 38.8998C84.6659 39.3104 84.8953 39.8537 84.8993 40.5298C84.8953 41.1657 84.7061 41.7191 84.3318 42.19C83.9616 42.6609 83.4545 43.0271 82.8105 43.2887C82.1666 43.5463 81.4301 43.6751 80.601 43.6751C79.2769 43.6751 78.2325 43.4034 77.4678 42.8601C76.7072 42.3127 76.2725 41.5802 76.1639 40.6626L79.0797 40.5902C79.1441 40.9283 79.3111 41.1858 79.5808 41.3629C79.8504 41.54 80.1945 41.6285 80.6131 41.6285C80.9914 41.6285 81.2993 41.5581 81.5367 41.4172C81.7742 41.2764 81.8949 41.0892 81.8989 40.8558C81.8949 40.6465 81.8024 40.4795 81.6212 40.3547C81.4401 40.226 81.1564 40.1253 80.77 40.0529L79.1521 39.745C78.2225 39.576 77.5302 39.2641 77.0754 38.8093C76.6207 38.3505 76.3953 37.7669 76.3993 37.0586C76.3953 36.4388 76.5603 35.9096 76.8943 35.4709C77.2284 35.0282 77.7033 34.6901 78.319 34.4567C78.9348 34.2232 79.6613 34.1065 80.4984 34.1065C81.7541 34.1065 82.7441 34.3701 83.4686 34.8974C84.193 35.4206 84.5934 36.141 84.6699 37.0586ZM91.5867 34.2273V36.4006H85.7369V34.2273H91.5867ZM86.9624 32.0057H89.9145V40.5842C89.9145 40.7653 89.9427 40.9122 89.999 41.0248C90.0594 41.1335 90.1459 41.212 90.2586 41.2603C90.3713 41.3046 90.5061 41.3267 90.6631 41.3267C90.7758 41.3267 90.8945 41.3166 91.0192 41.2965C91.148 41.2724 91.2446 41.2522 91.309 41.2361L91.7557 43.3672C91.6149 43.4074 91.4157 43.4577 91.1581 43.5181C90.9045 43.5785 90.6007 43.6167 90.2465 43.6328C89.5543 43.665 88.9606 43.5845 88.4656 43.3913C87.9746 43.1941 87.5983 42.8882 87.3367 42.4737C87.0791 42.0592 86.9544 41.538 86.9624 40.9101V32.0057ZM95.7069 43.6569C95.1153 43.6569 94.5901 43.5583 94.1313 43.3611C93.6765 43.1599 93.3163 42.8581 93.0507 42.4556C92.7891 42.0491 92.6583 41.54 92.6583 40.9283C92.6583 40.4131 92.7488 39.9784 92.9299 39.6243C93.111 39.2701 93.3606 38.9824 93.6785 38.761C93.9965 38.5396 94.3627 38.3726 94.7772 38.2599C95.1918 38.1432 95.6345 38.0647 96.1054 38.0245C96.6326 37.9762 97.0572 37.9259 97.3791 37.8736C97.7011 37.8172 97.9345 37.7387 98.0794 37.6381C98.2283 37.5335 98.3028 37.3866 98.3028 37.1974V37.1672C98.3028 36.8574 98.1961 36.6179 97.9828 36.4489C97.7695 36.2798 97.4818 36.1953 97.1196 36.1953C96.7292 36.1953 96.4152 36.2798 96.1778 36.4489C95.9403 36.6179 95.7894 36.8513 95.725 37.1491L93.0024 37.0525C93.0829 36.4891 93.2901 35.986 93.6242 35.5433C93.9622 35.0966 94.4251 34.7464 95.0127 34.4929C95.6043 34.2353 96.3146 34.1065 97.1437 34.1065C97.7353 34.1065 98.2807 34.177 98.7797 34.3178C99.2788 34.4547 99.7134 34.6559 100.084 34.9215C100.454 35.1831 100.74 35.5051 100.941 35.8874C101.146 36.2698 101.249 36.7064 101.249 37.1974V43.5H98.4718V42.2081H98.3994C98.2344 42.522 98.0231 42.7876 97.7655 43.005C97.512 43.2223 97.2121 43.3853 96.866 43.494C96.5239 43.6026 96.1376 43.6569 95.7069 43.6569ZM96.6185 41.7251C96.9364 41.7251 97.2222 41.6607 97.4757 41.5319C97.7333 41.4032 97.9386 41.2261 98.0915 41.0007C98.2444 40.7713 98.3209 40.5057 98.3209 40.2038V39.3224C98.2364 39.3667 98.1338 39.4069 98.013 39.4432C97.8963 39.4794 97.7675 39.5136 97.6267 39.5458C97.4858 39.578 97.3409 39.6062 97.192 39.6303C97.0431 39.6545 96.9002 39.6766 96.7634 39.6967C96.4857 39.741 96.2482 39.8094 96.051 39.902C95.8578 39.9945 95.7089 40.1153 95.6043 40.2642C95.5037 40.4091 95.4534 40.5821 95.4534 40.7834C95.4534 41.0892 95.562 41.3227 95.7794 41.4837C96.0007 41.6446 96.2804 41.7251 96.6185 41.7251ZM106.006 31.1364V43.5H103.054V31.1364H106.006ZM110.837 31.1364V43.5H107.885V31.1364H110.837ZM115.33 43.6569C114.738 43.6569 114.213 43.5583 113.754 43.3611C113.3 43.1599 112.939 42.8581 112.674 42.4556C112.412 42.0491 112.281 41.54 112.281 40.9283C112.281 40.4131 112.372 39.9784 112.553 39.6243C112.734 39.2701 112.984 38.9824 113.302 38.761C113.619 38.5396 113.986 38.3726 114.4 38.2599C114.815 38.1432 115.258 38.0647 115.728 38.0245C116.256 37.9762 116.68 37.9259 117.002 37.8736C117.324 37.8172 117.558 37.7387 117.702 37.6381C117.851 37.5335 117.926 37.3866 117.926 37.1974V37.1672C117.926 36.8574 117.819 36.6179 117.606 36.4489C117.393 36.2798 117.105 36.1953 116.743 36.1953C116.352 36.1953 116.038 36.2798 115.801 36.4489C115.563 36.6179 115.412 36.8513 115.348 37.1491L112.625 37.0525C112.706 36.4891 112.913 35.986 113.247 35.5433C113.585 35.0966 114.048 34.7464 114.636 34.4929C115.227 34.2353 115.938 34.1065 116.767 34.1065C117.358 34.1065 117.904 34.177 118.403 34.3178C118.902 34.4547 119.336 34.6559 119.707 34.9215C120.077 35.1831 120.363 35.5051 120.564 35.8874C120.769 36.2698 120.872 36.7064 120.872 37.1974V43.5H118.095V42.2081H118.022C117.857 42.522 117.646 42.7876 117.389 43.005C117.135 43.2223 116.835 43.3853 116.489 43.494C116.147 43.6026 115.761 43.6569 115.33 43.6569ZM116.242 41.7251C116.559 41.7251 116.845 41.6607 117.099 41.5319C117.356 41.4032 117.562 41.2261 117.715 41.0007C117.867 40.7713 117.944 40.5057 117.944 40.2038V39.3224C117.859 39.3667 117.757 39.4069 117.636 39.4432C117.519 39.4794 117.391 39.5136 117.25 39.5458C117.109 39.578 116.964 39.6062 116.815 39.6303C116.666 39.6545 116.523 39.6766 116.386 39.6967C116.109 39.741 115.871 39.8094 115.674 39.902C115.481 39.9945 115.332 40.1153 115.227 40.2642C115.127 40.4091 115.076 40.5821 115.076 40.7834C115.076 41.0892 115.185 41.3227 115.402 41.4837C115.624 41.6446 115.903 41.7251 116.242 41.7251ZM127.911 34.2273V36.4006H122.061V34.2273H127.911ZM123.287 32.0057H126.239V40.5842C126.239 40.7653 126.267 40.9122 126.323 41.0248C126.384 41.1335 126.47 41.212 126.583 41.2603C126.695 41.3046 126.83 41.3267 126.987 41.3267C127.1 41.3267 127.219 41.3166 127.343 41.2965C127.472 41.2724 127.569 41.2522 127.633 41.2361L128.08 43.3672C127.939 43.4074 127.74 43.4577 127.482 43.5181C127.229 43.5785 126.925 43.6167 126.571 43.6328C125.878 43.665 125.285 43.5845 124.79 43.3913C124.299 43.1941 123.923 42.8882 123.661 42.4737C123.403 42.0592 123.279 41.538 123.287 40.9101V32.0057ZM129.417 43.5V34.2273H132.369V43.5H129.417ZM130.896 33.1467C130.482 33.1467 130.125 33.0098 129.828 32.7361C129.53 32.4584 129.381 32.1244 129.381 31.734C129.381 31.3476 129.53 31.0176 129.828 30.744C130.125 30.4663 130.482 30.3274 130.896 30.3274C131.315 30.3274 131.671 30.4663 131.965 30.744C132.263 31.0176 132.411 31.3476 132.411 31.734C132.411 32.1244 132.263 32.4584 131.965 32.7361C131.671 33.0098 131.315 33.1467 130.896 33.1467ZM138.577 43.6751C137.603 43.6751 136.766 43.4758 136.065 43.0774C135.369 42.6749 134.832 42.1155 134.453 41.3991C134.079 40.6787 133.892 39.8436 133.892 38.8938C133.892 37.94 134.079 37.1049 134.453 36.3885C134.832 35.6681 135.369 35.1087 136.065 34.7102C136.766 34.3078 137.603 34.1065 138.577 34.1065C139.551 34.1065 140.386 34.3078 141.082 34.7102C141.782 35.1087 142.32 35.6681 142.694 36.3885C143.072 37.1049 143.261 37.94 143.261 38.8938C143.261 39.8436 143.072 40.6787 142.694 41.3991C142.32 42.1155 141.782 42.6749 141.082 43.0774C140.386 43.4758 139.551 43.6751 138.577 43.6751ZM138.595 41.4474C138.949 41.4474 139.249 41.3388 139.494 41.1214C139.74 40.9041 139.927 40.6023 140.056 40.2159C140.189 39.8295 140.255 39.3828 140.255 38.8757C140.255 38.3605 140.189 37.9098 140.056 37.5234C139.927 37.1371 139.74 36.8352 139.494 36.6179C139.249 36.4006 138.949 36.2919 138.595 36.2919C138.229 36.2919 137.919 36.4006 137.665 36.6179C137.416 36.8352 137.224 37.1371 137.092 37.5234C136.963 37.9098 136.898 38.3605 136.898 38.8757C136.898 39.3828 136.963 39.8295 137.092 40.2159C137.224 40.6023 137.416 40.9041 137.665 41.1214C137.919 41.3388 138.229 41.4474 138.595 41.4474ZM147.726 38.2116V43.5H144.774V34.2273H147.581V35.9297H147.683C147.889 35.3622 148.239 34.9175 148.734 34.5955C149.229 34.2695 149.818 34.1065 150.503 34.1065C151.155 34.1065 151.72 34.2534 152.199 34.5472C152.682 34.837 153.056 35.2435 153.322 35.7667C153.592 36.2859 153.724 36.8936 153.72 37.5898V43.5H150.768V38.1694C150.772 37.6542 150.641 37.2518 150.376 36.962C150.114 36.6722 149.75 36.5273 149.283 36.5273C148.973 36.5273 148.7 36.5958 148.462 36.7326C148.229 36.8654 148.048 37.0566 147.919 37.3061C147.794 37.5556 147.73 37.8575 147.726 38.2116ZM167.314 35.1751C167.246 34.9215 167.145 34.6981 167.012 34.505C166.879 34.3078 166.716 34.1407 166.523 34.0039C166.33 33.8671 166.109 33.7644 165.859 33.696C165.61 33.6236 165.336 33.5873 165.038 33.5873C164.438 33.5873 163.919 33.7322 163.481 34.022C163.046 34.3118 162.71 34.7344 162.472 35.2898C162.235 35.8411 162.116 36.5112 162.116 37.3001C162.116 38.0929 162.231 38.769 162.46 39.3285C162.69 39.8879 163.022 40.3145 163.456 40.6083C163.891 40.9021 164.418 41.049 165.038 41.049C165.585 41.049 166.048 40.9605 166.427 40.7834C166.809 40.6023 167.099 40.3467 167.296 40.0167C167.493 39.6867 167.592 39.2983 167.592 38.8516L168.147 38.918H165.141V36.7386H170.471V38.3746C170.471 39.4814 170.236 40.4292 169.765 41.218C169.298 42.0069 168.654 42.6126 167.833 43.0351C167.016 43.4577 166.076 43.669 165.014 43.669C163.835 43.669 162.798 43.4135 161.905 42.9023C161.011 42.3912 160.315 41.6627 159.816 40.717C159.317 39.7672 159.068 38.6403 159.068 37.3363C159.068 36.3221 159.218 35.4226 159.52 34.6378C159.822 33.8489 160.243 33.1809 160.782 32.6335C161.325 32.0862 161.953 31.6716 162.666 31.3899C163.382 31.1082 164.153 30.9673 164.978 30.9673C165.694 30.9673 166.36 31.0699 166.976 31.2752C167.596 31.4805 168.143 31.7702 168.618 32.1445C169.097 32.5188 169.485 32.9635 169.783 33.4787C170.081 33.9938 170.266 34.5593 170.338 35.1751H167.314ZM178.215 39.4975V34.2273H181.161V43.5H178.348V41.7734H178.251C178.046 42.3409 177.696 42.7917 177.201 43.1257C176.71 43.4557 176.116 43.6207 175.42 43.6207C174.788 43.6207 174.233 43.4758 173.754 43.1861C173.275 42.8963 172.903 42.4918 172.637 41.9726C172.371 41.4494 172.237 40.8377 172.233 40.1374V34.2273H175.185V39.5579C175.189 40.061 175.321 40.4574 175.583 40.7471C175.845 41.0369 176.201 41.1818 176.652 41.1818C176.945 41.1818 177.209 41.1174 177.442 40.9886C177.68 40.8558 177.867 40.6646 178.004 40.4151C178.145 40.1616 178.215 39.8557 178.215 39.4975ZM183.04 43.5V34.2273H185.992V43.5H183.04ZM184.519 33.1467C184.105 33.1467 183.748 33.0098 183.451 32.7361C183.153 32.4584 183.004 32.1244 183.004 31.734C183.004 31.3476 183.153 31.0176 183.451 30.744C183.748 30.4663 184.105 30.3274 184.519 30.3274C184.938 30.3274 185.294 30.4663 185.588 30.744C185.886 31.0176 186.034 31.3476 186.034 31.734C186.034 32.1244 185.886 32.4584 185.588 32.7361C185.294 33.0098 184.938 33.1467 184.519 33.1467ZM191.258 43.6328C190.574 43.6328 189.952 43.4557 189.393 43.1016C188.833 42.7474 188.386 42.2161 188.052 41.5078C187.718 40.7995 187.551 39.9201 187.551 38.8697C187.551 37.779 187.724 36.8815 188.07 36.1772C188.417 35.4729 188.869 34.9517 189.429 34.6136C189.992 34.2756 190.598 34.1065 191.246 34.1065C191.733 34.1065 192.149 34.191 192.496 34.3601C192.842 34.5251 193.127 34.7384 193.353 35C193.578 35.2616 193.749 35.5333 193.866 35.815H193.926V31.1364H196.878V43.5H193.956V41.9968H193.866C193.741 42.2825 193.564 42.5502 193.335 42.7997C193.105 43.0492 192.817 43.2505 192.471 43.4034C192.129 43.5563 191.725 43.6328 191.258 43.6328ZM192.284 41.3327C192.642 41.3327 192.948 41.2321 193.202 41.0309C193.455 40.8256 193.651 40.5379 193.787 40.1676C193.924 39.7973 193.993 39.3627 193.993 38.8636C193.993 38.3565 193.924 37.9199 193.787 37.5536C193.655 37.1874 193.459 36.9056 193.202 36.7084C192.948 36.5112 192.642 36.4126 192.284 36.4126C191.918 36.4126 191.608 36.5132 191.355 36.7145C191.101 36.9157 190.908 37.1994 190.775 37.5657C190.646 37.9319 190.582 38.3646 190.582 38.8636C190.582 39.3627 190.648 39.7973 190.781 40.1676C190.914 40.5379 191.105 40.8256 191.355 41.0309C191.608 41.2321 191.918 41.3327 192.284 41.3327ZM203.08 43.6751C202.11 43.6751 201.273 43.4839 200.568 43.1016C199.868 42.7152 199.329 42.1658 198.95 41.4535C198.576 40.7371 198.389 39.8859 198.389 38.8998C198.389 37.942 198.578 37.1049 198.957 36.3885C199.335 35.6681 199.868 35.1087 200.556 34.7102C201.245 34.3078 202.055 34.1065 202.989 34.1065C203.649 34.1065 204.253 34.2092 204.8 34.4144C205.348 34.6197 205.821 34.9235 206.219 35.326C206.617 35.7284 206.927 36.2255 207.149 36.8171C207.37 37.4047 207.481 38.0788 207.481 38.8395V39.576H199.421V37.8615H204.734C204.73 37.5476 204.655 37.2679 204.511 37.0224C204.366 36.7769 204.166 36.5857 203.913 36.4489C203.663 36.308 203.376 36.2376 203.05 36.2376C202.72 36.2376 202.424 36.312 202.162 36.4609C201.901 36.6058 201.693 36.805 201.54 37.0586C201.387 37.3081 201.307 37.5918 201.299 37.9098V39.6545C201.299 40.0328 201.373 40.3648 201.522 40.6506C201.671 40.9323 201.882 41.1516 202.156 41.3086C202.43 41.4655 202.756 41.544 203.134 41.544C203.396 41.544 203.633 41.5078 203.846 41.4354C204.06 41.3629 204.243 41.2563 204.396 41.1154C204.549 40.9745 204.663 40.8015 204.74 40.5962L207.45 40.6747C207.338 41.2824 207.09 41.8117 206.708 42.2624C206.33 42.7092 205.833 43.0573 205.217 43.3068C204.601 43.5523 203.889 43.6751 203.08 43.6751Z" fill="#F1F1F1"/>
</g>
<defs>
<filter id="filter0_d_1_50" x="6.28571" y="2.28571" width="51.4286" height="51.4286" filterUnits="userSpaceOnUse" color-interpolation-filters="sRGB">
<feFlood flood-opacity="0" result="BackgroundImageFix"/>
<feColorMatrix in="SourceAlpha" type="matrix" values="0 0 0 0 0 0 0 0 0 0 0 0 0 0 0 0 0 0 127 0" result="hardAlpha"/>
<feOffset/>
<feGaussianBlur stdDeviation="2.85714"/>
<feComposite in2="hardAlpha" operator="out"/>
<feColorMatrix type="matrix" values="0 0 0 0 0 0 0 0 0 0 0 0 0 0 0 0 0 0 0.25 0"/>
<feBlend mode="normal" in2="BackgroundImageFix" result="effect1_dropShadow_1_50"/>
<feBlend mode="normal" in="SourceGraphic" in2="effect1_dropShadow_1_50" result="shape"/>
</filter>
<filter id="filter1_d_1_50" x="54.4" y="3.9" width="160.2" height="48.2" filterUnits="userSpaceOnUse" color-interpolation-filters="sRGB">
<feFlood flood-opacity="0" result="BackgroundImageFix"/>
<feColorMatrix in="SourceAlpha" type="matrix" values="0 0 0 0 0 0 0 0 0 0 0 0 0 0 0 0 0 0 127 0" result="hardAlpha"/>
<feOffset/>
<feGaussianBlur stdDeviation="2.8"/>
<feComposite in2="hardAlpha" operator="out"/>
<feColorMatrix type="matrix" values="0 0 0 0 0 0 0 0 0 0 0 0 0 0 0 0 0 0 0.25 0"/>
<feBlend mode="normal" in2="BackgroundImageFix" result="effect1_dropShadow_1_50"/>
<feBlend mode="normal" in="SourceGraphic" in2="effect1_dropShadow_1_50" result="shape"/>
</filter>
<linearGradient id="paint0_linear_1_50" x1="110.5" y1="0" x2="110.5" y2="56" gradientUnits="userSpaceOnUse">
<stop stop-color="#303030"/>
<stop offset="1" stop-color="#1D1D1D"/>
</linearGradient>
</defs>
</svg>
