<svg width="180" height="40" viewBox="0 0 180 40" fill="none" xmlns="http://www.w3.org/2000/svg">
<rect width="180.001" height="40.0014" rx="8" fill="url(#paint0_linear_1_56)"/>
<rect x="1.07143" y="1.07143" width="177.858" height="37.8585" rx="6.92857" stroke="white" stroke-opacity="0.15" stroke-width="2.14286"/>
<g filter="url(#filter0_d_1_56)">
<path d="M36 34H8V6H36L22 20L36 34Z" fill="url(#paint1_linear_1_56)"/>
</g>
<g filter="url(#filter1_d_1_56)">
<g filter="url(#filter2_d_1_56)">
<path d="M43.3597 26.5007V14.1371H47.8874C48.7648 14.1371 49.4912 14.282 50.0667 14.5717C50.6423 14.8575 51.0729 15.2458 51.3586 15.7369C51.6444 16.2238 51.7873 16.7732 51.7873 17.3849C51.7873 17.9001 51.6927 18.3347 51.5035 18.6889C51.3144 19.0391 51.0608 19.3208 50.7429 19.5341C50.429 19.7434 50.0828 19.8963 49.7045 19.9929V20.1136C50.115 20.1337 50.5155 20.2666 50.9059 20.5121C51.3003 20.7535 51.6263 21.0976 51.8839 21.5444C52.1414 21.9911 52.2702 22.5344 52.2702 23.1743C52.2702 23.8062 52.1213 24.3737 51.8235 24.8768C51.5297 25.3758 51.0749 25.7722 50.4591 26.066C49.8434 26.3558 49.0566 26.5007 48.0987 26.5007H43.3597ZM45.2251 24.9009H47.9176C48.8111 24.9009 49.451 24.7279 49.8373 24.3817C50.2237 24.0356 50.4169 23.603 50.4169 23.0838C50.4169 22.6934 50.3183 22.3352 50.1211 22.0092C49.9239 21.6832 49.6421 21.4236 49.2759 21.2305C48.9137 21.0373 48.483 20.9407 47.984 20.9407H45.2251V24.9009ZM45.2251 19.4858H47.7244C48.143 19.4858 48.5193 19.4053 48.8533 19.2443C49.1914 19.0833 49.459 18.8579 49.6562 18.5682C49.8575 18.2744 49.9581 17.9283 49.9581 17.5298C49.9581 17.0187 49.779 16.5901 49.4208 16.244C49.0626 15.8978 48.5132 15.7248 47.7727 15.7248H45.2251V19.4858ZM60.2118 22.6552V17.228H62.0229V26.5007H60.248V24.8949H60.1514C59.9381 25.3899 59.596 25.8024 59.1251 26.1324C58.6583 26.4584 58.0767 26.6214 57.3805 26.6214C56.7848 26.6214 56.2576 26.4906 55.7988 26.229C55.344 25.9634 54.9858 25.571 54.7242 25.0518C54.4667 24.5327 54.3379 23.8907 54.3379 23.1261V17.228H56.1429V22.9087C56.1429 23.5406 56.318 24.0437 56.6681 24.418C57.0183 24.7922 57.473 24.9794 58.0325 24.9794C58.3705 24.9794 58.7066 24.8949 59.0406 24.7258C59.3787 24.5568 59.6584 24.3012 59.8798 23.9591C60.1051 23.6171 60.2158 23.1824 60.2118 22.6552ZM64.4482 26.5007V17.228H66.2533V26.5007H64.4482ZM65.3598 15.7972C65.0459 15.7972 64.7762 15.6926 64.5508 15.4833C64.3295 15.27 64.2188 15.0164 64.2188 14.7226C64.2188 14.4248 64.3295 14.1713 64.5508 13.962C64.7762 13.7487 65.0459 13.642 65.3598 13.642C65.6737 13.642 65.9413 13.7487 66.1627 13.962C66.3881 14.1713 66.5008 14.4248 66.5008 14.7226C66.5008 15.0164 66.3881 15.27 66.1627 15.4833C65.9413 15.6926 65.6737 15.7972 65.3598 15.7972ZM70.4867 14.1371V26.5007H68.6816V14.1371H70.4867ZM77.2435 17.228V18.6768H72.1785V17.228H77.2435ZM73.5368 15.0064H75.3419V23.778C75.3419 24.1282 75.3942 24.3918 75.4988 24.5689C75.6035 24.7419 75.7383 24.8607 75.9033 24.9251C76.0723 24.9854 76.2554 25.0156 76.4526 25.0156C76.5975 25.0156 76.7243 25.0056 76.833 24.9854C76.9416 24.9653 77.0262 24.9492 77.0865 24.9371L77.4125 26.4283C77.3079 26.4685 77.159 26.5087 76.9658 26.549C76.7726 26.5933 76.5311 26.6174 76.2414 26.6214C75.7664 26.6295 75.3237 26.545 74.9132 26.3679C74.5027 26.1908 74.1707 25.9171 73.9171 25.5469C73.6636 25.1766 73.5368 24.7118 73.5368 24.1523V15.0064ZM85.7495 26.5007L83.0208 17.228H84.8862L86.7034 24.0376H86.7939L88.6171 17.228H90.4825L92.2936 24.0074H92.3841L94.1891 17.228H96.0546L93.3319 26.5007H91.4906L89.6071 19.8057H89.4683L87.5847 26.5007H85.7495ZM97.7675 26.5007V17.228H99.5726V26.5007H97.7675ZM98.6791 15.7972C98.3652 15.7972 98.0955 15.6926 97.8702 15.4833C97.6488 15.27 97.5381 15.0164 97.5381 14.7226C97.5381 14.4248 97.6488 14.1713 97.8702 13.962C98.0955 13.7487 98.3652 13.642 98.6791 13.642C98.993 13.642 99.2607 13.7487 99.482 13.962C99.7074 14.1713 99.8201 14.4248 99.8201 14.7226C99.8201 15.0164 99.7074 15.27 99.482 15.4833C99.2607 15.6926 98.993 15.7972 98.6791 15.7972ZM106.329 17.228V18.6768H101.264V17.228H106.329ZM102.623 15.0064H104.428V23.778C104.428 24.1282 104.48 24.3918 104.585 24.5689C104.689 24.7419 104.824 24.8607 104.989 24.9251C105.158 24.9854 105.341 25.0156 105.539 25.0156C105.683 25.0156 105.81 25.0056 105.919 24.9854C106.028 24.9653 106.112 24.9492 106.172 24.9371L106.498 26.4283C106.394 26.4685 106.245 26.5087 106.052 26.549C105.859 26.5933 105.617 26.6174 105.327 26.6214C104.852 26.6295 104.41 26.545 103.999 26.3679C103.589 26.1908 103.257 25.9171 103.003 25.5469C102.75 25.1766 102.623 24.7118 102.623 24.1523V15.0064ZM110.33 20.995V26.5007H108.525V14.1371H110.306V18.7372H110.421C110.638 18.2382 110.97 17.8417 111.417 17.5479C111.864 17.2541 112.447 17.1072 113.168 17.1072C113.804 17.1072 114.359 17.238 114.834 17.4996C115.313 17.7612 115.683 18.1516 115.945 18.6708C116.21 19.1859 116.343 19.8299 116.343 20.6026V26.5007H114.538V20.8199C114.538 20.1398 114.363 19.6126 114.013 19.2383C113.663 18.86 113.176 18.6708 112.552 18.6708C112.125 18.6708 111.743 18.7614 111.405 18.9425C111.071 19.1236 110.807 19.3892 110.614 19.7393C110.425 20.0855 110.33 20.504 110.33 20.995Z" fill="#E8E8E8"/>
</g>
<path d="M122.937 26.0007V13.6371H125.925V18.865H126.088L130.175 13.6371H133.695L129.312 19.1548L133.773 26.0007H130.2L127.121 21.141L125.925 22.6502V26.0007H122.937ZM138.521 26.1758C137.547 26.1758 136.71 25.9765 136.01 25.5781C135.314 25.1757 134.777 24.6162 134.398 23.8998C134.024 23.1794 133.837 22.3443 133.837 21.3945C133.837 20.4407 134.024 19.6056 134.398 18.8892C134.777 18.1688 135.314 17.6094 136.01 17.2109C136.71 16.8085 137.547 16.6072 138.521 16.6072C139.495 16.6072 140.33 16.8085 141.027 17.2109C141.727 17.6094 142.264 18.1688 142.639 18.8892C143.017 19.6056 143.206 20.4407 143.206 21.3945C143.206 22.3443 143.017 23.1794 142.639 23.8998C142.264 24.6162 141.727 25.1757 141.027 25.5781C140.33 25.9765 139.495 26.1758 138.521 26.1758ZM138.54 23.9481C138.894 23.9481 139.194 23.8395 139.439 23.6221C139.685 23.4048 139.872 23.103 140 22.7166C140.133 22.3302 140.2 21.8835 140.2 21.3764C140.2 20.8613 140.133 20.4105 140 20.0241C139.872 19.6378 139.685 19.3359 139.439 19.1186C139.194 18.9013 138.894 18.7926 138.54 18.7926C138.173 18.7926 137.863 18.9013 137.61 19.1186C137.36 19.3359 137.169 19.6378 137.036 20.0241C136.908 20.4105 136.843 20.8613 136.843 21.3764C136.843 21.8835 136.908 22.3302 137.036 22.7166C137.169 23.103 137.36 23.4048 137.61 23.6221C137.863 23.8395 138.173 23.9481 138.54 23.9481ZM149.952 16.728V18.9013H144.103V16.728H149.952ZM145.328 14.5064H148.28V23.0849C148.28 23.266 148.308 23.4129 148.365 23.5256C148.425 23.6342 148.512 23.7127 148.624 23.761C148.737 23.8053 148.872 23.8274 149.029 23.8274C149.141 23.8274 149.26 23.8173 149.385 23.7972C149.514 23.7731 149.61 23.7529 149.675 23.7368L150.121 25.8679C149.981 25.9081 149.781 25.9584 149.524 26.0188C149.27 26.0792 148.966 26.1174 148.612 26.1335C147.92 26.1657 147.326 26.0852 146.831 25.892C146.34 25.6948 145.964 25.389 145.702 24.9744C145.445 24.5599 145.32 24.0387 145.328 23.4109V14.5064ZM154.61 13.6371V26.0007H151.658V13.6371H154.61ZM156.489 26.0007V16.728H159.441V26.0007H156.489ZM157.968 15.6474C157.553 15.6474 157.197 15.5105 156.899 15.2369C156.602 14.9592 156.453 14.6251 156.453 14.2347C156.453 13.8484 156.602 13.5183 156.899 13.2447C157.197 12.967 157.553 12.8281 157.968 12.8281C158.386 12.8281 158.743 12.967 159.036 13.2447C159.334 13.5183 159.483 13.8484 159.483 14.2347C159.483 14.6251 159.334 14.9592 159.036 15.2369C158.743 15.5105 158.386 15.6474 157.968 15.6474ZM164.272 20.7123V26.0007H161.32V16.728H164.127V18.4304H164.23C164.435 17.8629 164.785 17.4182 165.28 17.0962C165.775 16.7702 166.365 16.6072 167.049 16.6072C167.701 16.6072 168.266 16.7541 168.745 17.0479C169.228 17.3377 169.603 17.7442 169.868 18.2674C170.138 18.7866 170.271 19.3943 170.267 20.0905V26.0007H167.315V20.6701C167.319 20.1549 167.188 19.7525 166.922 19.4627C166.661 19.1729 166.296 19.028 165.829 19.028C165.52 19.028 165.246 19.0965 165.008 19.2333C164.775 19.3661 164.594 19.5573 164.465 19.8068C164.34 20.0563 164.276 20.3582 164.272 20.7123Z" fill="url(#paint2_linear_1_56)"/>
</g>
<defs>
<filter id="filter0_d_1_56" x="2.39972" y="0.39972" width="39.202" height="39.202" filterUnits="userSpaceOnUse" color-interpolation-filters="sRGB">
<feFlood flood-opacity="0" result="BackgroundImageFix"/>
<feColorMatrix in="SourceAlpha" type="matrix" values="0 0 0 0 0 0 0 0 0 0 0 0 0 0 0 0 0 0 127 0" result="hardAlpha"/>
<feOffset/>
<feGaussianBlur stdDeviation="2.80014"/>
<feComposite in2="hardAlpha" operator="out"/>
<feColorMatrix type="matrix" values="0 0 0 0 0 0 0 0 0 0 0 0 0 0 0 0 0 0 0.25 0"/>
<feBlend mode="normal" in2="BackgroundImageFix" result="effect1_dropShadow_1_56"/>
<feBlend mode="normal" in="SourceGraphic" in2="effect1_dropShadow_1_56" result="shape"/>
</filter>
<filter id="filter1_d_1_56" x="36.2871" y="3.78642" width="141.429" height="32.4286" filterUnits="userSpaceOnUse" color-interpolation-filters="sRGB">
<feFlood flood-opacity="0" result="BackgroundImageFix"/>
<feColorMatrix in="SourceAlpha" type="matrix" values="0 0 0 0 0 0 0 0 0 0 0 0 0 0 0 0 0 0 127 0" result="hardAlpha"/>
<feOffset/>
<feGaussianBlur stdDeviation="2.85714"/>
<feComposite in2="hardAlpha" operator="out"/>
<feColorMatrix type="matrix" values="0 0 0 0 0 0 0 0 0 0 0 0 0 0 0 0 0 0 0.25 0"/>
<feBlend mode="normal" in2="BackgroundImageFix" result="effect1_dropShadow_1_56"/>
<feBlend mode="normal" in="SourceGraphic" in2="effect1_dropShadow_1_56" result="shape"/>
</filter>
<filter id="filter2_d_1_56" x="39.3597" y="13.642" width="80.9835" height="20.9915" filterUnits="userSpaceOnUse" color-interpolation-filters="sRGB">
<feFlood flood-opacity="0" result="BackgroundImageFix"/>
<feColorMatrix in="SourceAlpha" type="matrix" values="0 0 0 0 0 0 0 0 0 0 0 0 0 0 0 0 0 0 127 0" result="hardAlpha"/>
<feOffset dy="4"/>
<feGaussianBlur stdDeviation="2"/>
<feComposite in2="hardAlpha" operator="out"/>
<feColorMatrix type="matrix" values="0 0 0 0 0 0 0 0 0 0 0 0 0 0 0 0 0 0 0.25 0"/>
<feBlend mode="normal" in2="BackgroundImageFix" result="effect1_dropShadow_1_56"/>
<feBlend mode="normal" in="SourceGraphic" in2="effect1_dropShadow_1_56" result="shape"/>
</filter>
<linearGradient id="paint0_linear_1_56" x1="90.0007" y1="0" x2="90.0007" y2="40.0014" gradientUnits="userSpaceOnUse">
<stop stop-color="#5C183B"/>
<stop offset="1" stop-color="#372469"/>
</linearGradient>
<linearGradient id="paint1_linear_1_56" x1="36" y1="6" x2="8" y2="34" gradientUnits="userSpaceOnUse">
<stop offset="0.00343514" stop-color="#E44857"/>
<stop offset="0.4689" stop-color="#C711E1"/>
<stop offset="1" stop-color="#7F52FF"/>
</linearGradient>
<linearGradient id="paint2_linear_1_56" x1="147.001" y1="11.0007" x2="147.001" y2="29.0007" gradientUnits="userSpaceOnUse">
<stop stop-color="#E2445F"/>
<stop offset="1" stop-color="#834EFD"/>
</linearGradient>
</defs>
</svg>
