<svg width="291" height="56" viewBox="0 0 291 56" fill="none" xmlns="http://www.w3.org/2000/svg">
<rect width="291" height="56" rx="8" fill="url(#paint0_linear_1_50)"/>
<rect x="1.05" y="1.05" width="288.9" height="53.9" rx="6.95" stroke="white" stroke-opacity="0.15" stroke-width="2.1"/>
<g filter="url(#filter0_d_1_50)">
<path d="M32.0028 48V40.2438C40.2126 40.2438 46.5854 32.1021 43.433 23.4614C42.2764 20.2863 39.7137 17.7236 36.516 16.567C27.8753 13.4373 19.7335 19.7874 19.7335 27.9972H12C12 14.9114 24.6549 4.70587 38.3756 8.99219C44.3629 10.8745 49.1481 15.6371 51.0078 21.6244C55.2941 35.3451 45.0886 48 32.0028 48Z" fill="#0080FF"/>
<path fill-rule="evenodd" clip-rule="evenodd" d="M32.0255 40.2892H24.292V32.5556H32.0255V40.2892Z" fill="#0080FF"/>
<path fill-rule="evenodd" clip-rule="evenodd" d="M24.292 46.2084H18.3728V40.2892H24.292V46.2084Z" fill="#0080FF"/>
<path fill-rule="evenodd" clip-rule="evenodd" d="M18.3728 40.2892H13.4061V35.3225H18.3728V40.2892Z" fill="#0080FF"/>
</g>
<g filter="url(#filter1_d_1_50)">
<path d="M62.2613 24.5H60.3977L64.5852 12.8636H66.6136L70.8011 24.5H68.9375L65.6477 14.9773H65.5568L62.2613 24.5ZM62.5738 19.9432H68.6193V21.4204H62.5738V19.9432ZM78.7173 15.7727L75.5525 24.5H73.7344L70.5639 15.7727H72.3878L74.598 22.4886H74.6889L76.8934 15.7727H78.7173ZM82.6037 24.6932C82.0506 24.6932 81.5506 24.5909 81.1037 24.3864C80.6567 24.178 80.3025 23.8769 80.0412 23.4829C79.7836 23.089 79.6548 22.6061 79.6548 22.0341C79.6548 21.5417 79.7495 21.1364 79.9389 20.8182C80.1283 20.5 80.384 20.2481 80.7059 20.0625C81.0279 19.8769 81.3878 19.7367 81.7855 19.642C82.1832 19.5473 82.5885 19.4754 83.0014 19.4261C83.5241 19.3655 83.9484 19.3163 84.2741 19.2784C84.5999 19.2367 84.8366 19.1704 84.9844 19.0795C85.1321 18.9886 85.2059 18.8409 85.2059 18.6364V18.5966C85.2059 18.1004 85.0658 17.7159 84.7855 17.4432C84.509 17.1704 84.0961 17.0341 83.5469 17.0341C82.9749 17.0341 82.5241 17.161 82.1946 17.4148C81.8688 17.6648 81.6434 17.9432 81.5184 18.25L79.9219 17.8864C80.1112 17.3561 80.3878 16.928 80.7514 16.6023C81.1188 16.2727 81.5412 16.0341 82.0184 15.8864C82.4957 15.7348 82.9976 15.6591 83.5241 15.6591C83.8726 15.6591 84.2419 15.7008 84.6321 15.7841C85.026 15.8636 85.3934 16.0114 85.7344 16.2273C86.079 16.4432 86.3612 16.7519 86.5809 17.1534C86.8006 17.5511 86.9105 18.0682 86.9105 18.7045V24.5H85.2514V23.3068H85.1832C85.0734 23.5265 84.9086 23.7424 84.6889 23.9545C84.4692 24.1667 84.187 24.3428 83.8423 24.4829C83.4976 24.6231 83.0847 24.6932 82.6037 24.6932ZM82.973 23.3295C83.4427 23.3295 83.8442 23.2367 84.1775 23.0511C84.5147 22.8655 84.7703 22.6231 84.9446 22.3239C85.1226 22.0208 85.2116 21.697 85.2116 21.3523V20.2273C85.151 20.2879 85.0336 20.3447 84.8594 20.3977C84.6889 20.447 84.4938 20.4905 84.2741 20.5284C84.0544 20.5625 83.8404 20.5947 83.6321 20.625C83.4237 20.6515 83.2495 20.6742 83.1094 20.6932C82.7798 20.7348 82.4787 20.8049 82.2059 20.9034C81.937 21.0019 81.7211 21.1439 81.5582 21.3295C81.3991 21.5114 81.3196 21.7538 81.3196 22.0568C81.3196 22.4773 81.4749 22.7954 81.7855 23.0114C82.0961 23.2235 82.4919 23.3295 82.973 23.3295ZM89.1733 24.5V15.7727H90.8721V24.5H89.1733ZM90.0312 14.4261C89.7358 14.4261 89.482 14.3276 89.2699 14.1307C89.0615 13.9299 88.9574 13.6913 88.9574 13.4148C88.9574 13.1345 89.0615 12.8958 89.2699 12.6989C89.482 12.4981 89.7358 12.3977 90.0312 12.3977C90.3267 12.3977 90.5786 12.4981 90.7869 12.6989C90.999 12.8958 91.1051 13.1345 91.1051 13.4148C91.1051 13.6913 90.999 13.9299 90.7869 14.1307C90.5786 14.3276 90.3267 14.4261 90.0312 14.4261ZM94.8565 12.8636V24.5H93.1576V12.8636H94.8565ZM99.6818 24.6932C99.1288 24.6932 98.6288 24.5909 98.1818 24.3864C97.7348 24.178 97.3807 23.8769 97.1193 23.4829C96.8617 23.089 96.7329 22.6061 96.7329 22.0341C96.7329 21.5417 96.8276 21.1364 97.017 20.8182C97.2064 20.5 97.4621 20.2481 97.7841 20.0625C98.106 19.8769 98.4659 19.7367 98.8636 19.642C99.2613 19.5473 99.6666 19.4754 100.08 19.4261C100.602 19.3655 101.026 19.3163 101.352 19.2784C101.678 19.2367 101.915 19.1704 102.062 19.0795C102.21 18.9886 102.284 18.8409 102.284 18.6364V18.5966C102.284 18.1004 102.144 17.7159 101.864 17.4432C101.587 17.1704 101.174 17.0341 100.625 17.0341C100.053 17.0341 99.6022 17.161 99.2727 17.4148C98.9469 17.6648 98.7216 17.9432 98.5966 18.25L97 17.8864C97.1894 17.3561 97.4659 16.928 97.8295 16.6023C98.1969 16.2727 98.6193 16.0341 99.0966 15.8864C99.5738 15.7348 100.076 15.6591 100.602 15.6591C100.951 15.6591 101.32 15.7008 101.71 15.7841C102.104 15.8636 102.472 16.0114 102.812 16.2273C103.157 16.4432 103.439 16.7519 103.659 17.1534C103.879 17.5511 103.989 18.0682 103.989 18.7045V24.5H102.33V23.3068H102.261C102.151 23.5265 101.987 23.7424 101.767 23.9545C101.547 24.1667 101.265 24.3428 100.92 24.4829C100.576 24.6231 100.163 24.6932 99.6818 24.6932ZM100.051 23.3295C100.521 23.3295 100.922 23.2367 101.256 23.0511C101.593 22.8655 101.848 22.6231 102.023 22.3239C102.201 22.0208 102.29 21.697 102.29 21.3523V20.2273C102.229 20.2879 102.112 20.3447 101.937 20.3977C101.767 20.447 101.572 20.4905 101.352 20.5284C101.133 20.5625 100.919 20.5947 100.71 20.625C100.502 20.6515 100.328 20.6742 100.187 20.6932C99.8579 20.7348 99.5568 20.8049 99.2841 20.9034C99.0151 21.0019 98.7992 21.1439 98.6363 21.3295C98.4772 21.5114 98.3977 21.7538 98.3977 22.0568C98.3977 22.4773 98.553 22.7954 98.8636 23.0114C99.1742 23.2235 99.57 23.3295 100.051 23.3295ZM106.388 24.5V12.8636H108.087V17.1875H108.189C108.287 17.0057 108.429 16.7954 108.615 16.5568C108.801 16.3182 109.058 16.1098 109.388 15.9318C109.717 15.75 110.153 15.6591 110.695 15.6591C111.399 15.6591 112.028 15.8371 112.581 16.1932C113.134 16.5492 113.568 17.0625 113.882 17.7329C114.2 18.4034 114.359 19.2102 114.359 20.1534C114.359 21.0966 114.202 21.9053 113.888 22.5795C113.573 23.25 113.142 23.767 112.592 24.1307C112.043 24.4905 111.416 24.6704 110.712 24.6704C110.181 24.6704 109.748 24.5814 109.41 24.4034C109.077 24.2254 108.816 24.017 108.626 23.7784C108.437 23.5398 108.291 23.3276 108.189 23.142H108.047V24.5H106.388ZM108.053 20.1364C108.053 20.75 108.142 21.2879 108.32 21.75C108.498 22.2121 108.755 22.5739 109.092 22.8352C109.429 23.0928 109.842 23.2216 110.331 23.2216C110.839 23.2216 111.263 23.0871 111.604 22.8182C111.945 22.5454 112.202 22.1761 112.376 21.7102C112.554 21.2443 112.643 20.7197 112.643 20.1364C112.643 19.5606 112.556 19.0436 112.382 18.5852C112.212 18.1269 111.954 17.7651 111.609 17.5C111.268 17.2348 110.842 17.1023 110.331 17.1023C109.839 17.1023 109.422 17.2292 109.081 17.4829C108.744 17.7367 108.488 18.0909 108.314 18.5454C108.14 19 108.053 19.5303 108.053 20.1364ZM117.966 12.8636V24.5H116.267V12.8636H117.966ZM124.013 24.6761C123.153 24.6761 122.412 24.4924 121.791 24.125C121.174 23.7538 120.696 23.2329 120.359 22.5625C120.026 21.8883 119.859 21.0985 119.859 20.1932C119.859 19.2992 120.026 18.5114 120.359 17.8295C120.696 17.1477 121.166 16.6155 121.768 16.2329C122.374 15.8504 123.083 15.6591 123.893 15.6591C124.386 15.6591 124.863 15.7405 125.325 15.9034C125.787 16.0663 126.202 16.322 126.57 16.6704C126.937 17.0189 127.227 17.4716 127.439 18.0284C127.651 18.5814 127.757 19.2538 127.757 20.0454V20.6477H120.82V19.375H126.092C126.092 18.928 126.001 18.5322 125.82 18.1875C125.638 17.839 125.382 17.5644 125.053 17.3636C124.727 17.1629 124.344 17.0625 123.905 17.0625C123.428 17.0625 123.011 17.1799 122.655 17.4148C122.303 17.6458 122.03 17.9489 121.837 18.3239C121.647 18.6951 121.553 19.0985 121.553 19.5341V20.5284C121.553 21.1117 121.655 21.6079 121.859 22.017C122.068 22.4261 122.357 22.7386 122.729 22.9545C123.1 23.1667 123.534 23.2727 124.03 23.2727C124.352 23.2727 124.645 23.2273 124.91 23.1364C125.176 23.0417 125.405 22.9015 125.598 22.7159C125.791 22.5303 125.939 22.3011 126.041 22.0284L127.649 22.3182C127.52 22.7917 127.289 23.2064 126.956 23.5625C126.626 23.9148 126.212 24.1894 125.712 24.3864C125.215 24.5795 124.649 24.6761 124.013 24.6761ZM137.553 24.6761C136.734 24.6761 136.02 24.4886 135.41 24.1136C134.801 23.7386 134.327 23.214 133.99 22.5398C133.653 21.8655 133.484 21.0776 133.484 20.1761C133.484 19.2708 133.653 18.4792 133.99 17.8011C134.327 17.1231 134.801 16.5966 135.41 16.2216C136.02 15.8466 136.734 15.6591 137.553 15.6591C138.371 15.6591 139.085 15.8466 139.695 16.2216C140.304 16.5966 140.778 17.1231 141.115 17.8011C141.452 18.4792 141.621 19.2708 141.621 20.1761C141.621 21.0776 141.452 21.8655 141.115 22.5398C140.778 23.214 140.304 23.7386 139.695 24.1136C139.085 24.4886 138.371 24.6761 137.553 24.6761ZM137.558 23.25C138.089 23.25 138.528 23.1098 138.876 22.8295C139.225 22.5492 139.482 22.1761 139.649 21.7102C139.82 21.2443 139.905 20.7311 139.905 20.1704C139.905 19.6136 139.82 19.1023 139.649 18.6364C139.482 18.1667 139.225 17.7898 138.876 17.5057C138.528 17.2216 138.089 17.0795 137.558 17.0795C137.024 17.0795 136.581 17.2216 136.229 17.5057C135.88 17.7898 135.621 18.1667 135.45 18.6364C135.284 19.1023 135.2 19.6136 135.2 20.1704C135.2 20.7311 135.284 21.2443 135.45 21.7102C135.621 22.1761 135.88 22.5492 136.229 22.8295C136.581 23.1098 137.024 23.25 137.558 23.25ZM145.216 19.3182V24.5H143.517V15.7727H145.148V17.1932H145.256C145.456 16.7311 145.771 16.3598 146.199 16.0795C146.631 15.7992 147.174 15.6591 147.83 15.6591C148.424 15.6591 148.945 15.7841 149.392 16.0341C149.839 16.2803 150.186 16.6477 150.432 17.1364C150.678 17.625 150.801 18.2292 150.801 18.9489V24.5H149.102V19.1534C149.102 18.5208 148.937 18.0265 148.608 17.6704C148.278 17.3106 147.826 17.1307 147.25 17.1307C146.856 17.1307 146.506 17.2159 146.199 17.3864C145.896 17.5568 145.655 17.8068 145.477 18.1364C145.303 18.4621 145.216 18.8561 145.216 19.3182Z" fill="#E8E8E8"/>
<path d="M65.5057 43.5H60.9357V31.1364H65.4996C66.7593 31.1364 67.844 31.3839 68.7535 31.8789C69.6671 32.3699 70.3714 33.0782 70.8665 34.0039C71.3615 34.9255 71.609 36.0283 71.609 37.3121C71.609 38.6 71.3615 39.7068 70.8665 40.6324C70.3755 41.5581 69.6732 42.2685 68.7596 42.7635C67.846 43.2545 66.7613 43.5 65.5057 43.5ZM63.924 40.9524H65.391C66.0832 40.9524 66.6688 40.8357 67.1477 40.6023C67.6307 40.3648 67.9949 39.9805 68.2404 39.4492C68.4899 38.9139 68.6147 38.2016 68.6147 37.3121C68.6147 36.4227 68.4899 35.7144 68.2404 35.1871C67.9909 34.6559 67.6226 34.2735 67.1356 34.0401C66.6527 33.8027 66.057 33.6839 65.3487 33.6839H63.924V40.9524ZM73.3537 43.5V34.2273H76.3057V43.5H73.3537ZM74.8327 33.1467C74.4182 33.1467 74.062 33.0098 73.7642 32.7361C73.4664 32.4584 73.3175 32.1244 73.3175 31.734C73.3175 31.3476 73.4664 31.0176 73.7642 30.744C74.062 30.4663 74.4182 30.3274 74.8327 30.3274C75.2513 30.3274 75.6075 30.4663 75.9013 30.744C76.1991 31.0176 76.348 31.3476 76.348 31.734C76.348 32.1244 76.1991 32.4584 75.9013 32.7361C75.6075 33.0098 75.2513 33.1467 74.8327 33.1467ZM82.5072 47.1704C81.6258 47.1704 80.8712 47.0477 80.2433 46.8022C79.6155 46.5567 79.1225 46.2206 78.7643 45.794C78.4061 45.3674 78.1908 44.8845 78.1183 44.3452L80.9134 44.1882C80.9657 44.3774 81.0623 44.5424 81.2032 44.6832C81.3481 44.8241 81.5352 44.9328 81.7646 45.0092C81.9981 45.0857 82.2717 45.1239 82.5856 45.1239C83.0807 45.1239 83.4892 45.0032 83.8111 44.7617C84.1371 44.5243 84.3001 44.1077 84.3001 43.5121V41.8821H84.1975C84.0808 42.1678 83.9037 42.4234 83.6663 42.6488C83.4288 42.8742 83.133 43.0512 82.7788 43.18C82.4287 43.3088 82.0262 43.3732 81.5714 43.3732C80.8953 43.3732 80.2755 43.2163 79.7121 42.9023C79.1526 42.5844 78.7039 42.0934 78.3658 41.4293C78.0318 40.7612 77.8648 39.902 77.8648 38.8516C77.8648 37.7689 78.0378 36.8775 78.3839 36.1772C78.7301 35.4729 79.1828 34.9517 79.7423 34.6136C80.3057 34.2756 80.9114 34.1065 81.5594 34.1065C82.0464 34.1065 82.4629 34.191 82.809 34.3601C83.1592 34.5251 83.4469 34.7384 83.6723 35C83.8977 35.2616 84.0687 35.5333 84.1854 35.815H84.27V34.2273H87.2099V43.5362C87.2099 44.321 87.0127 44.9831 86.6183 45.5224C86.2239 46.0617 85.6725 46.4702 84.9642 46.7479C84.2559 47.0296 83.4369 47.1704 82.5072 47.1704ZM82.5977 41.2241C82.9559 41.2241 83.2618 41.1295 83.5153 40.9403C83.7689 40.7512 83.9641 40.4795 84.1009 40.1253C84.2378 39.7712 84.3062 39.3466 84.3062 38.8516C84.3062 38.3485 84.2378 37.9158 84.1009 37.5536C83.9681 37.1874 83.7729 36.9056 83.5153 36.7084C83.2618 36.5112 82.9559 36.4126 82.5977 36.4126C82.2315 36.4126 81.9216 36.5132 81.668 36.7145C81.4145 36.9157 81.2213 37.1994 81.0885 37.5657C80.9597 37.9279 80.8953 38.3565 80.8953 38.8516C80.8953 39.3466 80.9617 39.7712 81.0945 40.1253C81.2273 40.4795 81.4185 40.7512 81.668 40.9403C81.9216 41.1295 82.2315 41.2241 82.5977 41.2241ZM89.092 43.5V34.2273H92.044V43.5H89.092ZM90.571 33.1467C90.1565 33.1467 89.8003 33.0098 89.5025 32.7361C89.2046 32.4584 89.0557 32.1244 89.0557 31.734C89.0557 31.3476 89.2046 31.0176 89.5025 30.744C89.8003 30.4663 90.1565 30.3274 90.571 30.3274C90.9896 30.3274 91.3457 30.4663 91.6395 30.744C91.9374 31.0176 92.0863 31.3476 92.0863 31.734C92.0863 32.1244 91.9374 32.4584 91.6395 32.7361C91.3457 33.0098 90.9896 33.1467 90.571 33.1467ZM99.157 34.2273V36.4006H93.3072V34.2273H99.157ZM94.5327 32.0057H97.4848V40.5842C97.4848 40.7653 97.513 40.9122 97.5693 41.0248C97.6297 41.1335 97.7162 41.212 97.8289 41.2603C97.9416 41.3046 98.0764 41.3267 98.2334 41.3267C98.3461 41.3267 98.4648 41.3166 98.5896 41.2965C98.7183 41.2724 98.8149 41.2522 98.8793 41.2361L99.3261 43.3672C99.1852 43.4074 98.986 43.4577 98.7284 43.5181C98.4748 43.5785 98.171 43.6167 97.8168 43.6328C97.1246 43.665 96.531 43.5845 96.0359 43.3913C95.5449 43.1941 95.1686 42.8882 94.907 42.4737C94.6494 42.0592 94.5247 41.538 94.5327 40.9101V32.0057ZM103.277 43.6569C102.686 43.6569 102.16 43.5583 101.702 43.3611C101.247 43.1599 100.887 42.8581 100.621 42.4556C100.359 42.0491 100.229 41.54 100.229 40.9283C100.229 40.4131 100.319 39.9784 100.5 39.6243C100.681 39.2701 100.931 38.9824 101.249 38.761C101.567 38.5396 101.933 38.3726 102.348 38.2599C102.762 38.1432 103.205 38.0647 103.676 38.0245C104.203 37.9762 104.627 37.9259 104.949 37.8736C105.271 37.8172 105.505 37.7387 105.65 37.6381C105.799 37.5335 105.873 37.3866 105.873 37.1974V37.1672C105.873 36.8574 105.766 36.6179 105.553 36.4489C105.34 36.2798 105.052 36.1953 104.69 36.1953C104.299 36.1953 103.986 36.2798 103.748 36.4489C103.511 36.6179 103.36 36.8513 103.295 37.1491L100.573 37.0525C100.653 36.4891 100.86 35.986 101.194 35.5433C101.533 35.0966 101.995 34.7464 102.583 34.4929C103.175 34.2353 103.885 34.1065 104.714 34.1065C105.306 34.1065 105.851 34.177 106.35 34.3178C106.849 34.4547 107.284 34.6559 107.654 34.9215C108.024 35.1831 108.31 35.5051 108.511 35.8874C108.717 36.2698 108.819 36.7064 108.819 37.1974V43.5H106.042V42.2081H105.97C105.805 42.522 105.593 42.7876 105.336 43.005C105.082 43.2223 104.782 43.3853 104.436 43.494C104.094 43.6026 103.708 43.6569 103.277 43.6569ZM104.189 41.7251C104.507 41.7251 104.792 41.6607 105.046 41.5319C105.304 41.4032 105.509 41.2261 105.662 41.0007C105.815 40.7713 105.891 40.5057 105.891 40.2038V39.3224C105.807 39.3667 105.704 39.4069 105.583 39.4432C105.467 39.4794 105.338 39.5136 105.197 39.5458C105.056 39.578 104.911 39.6062 104.762 39.6303C104.613 39.6545 104.471 39.6766 104.334 39.6967C104.056 39.741 103.819 39.8094 103.621 39.902C103.428 39.9945 103.279 40.1153 103.175 40.2642C103.074 40.4091 103.024 40.5821 103.024 40.7834C103.024 41.0892 103.132 41.3227 103.35 41.4837C103.571 41.6446 103.851 41.7251 104.189 41.7251ZM113.576 31.1364V43.5H110.624V31.1364H113.576ZM127.125 37.3182C127.125 38.6785 126.863 39.8315 126.34 40.7773C125.817 41.7231 125.108 42.4415 124.215 42.9325C123.325 43.4235 122.327 43.669 121.22 43.669C120.11 43.669 119.11 43.4215 118.22 42.9265C117.331 42.4315 116.624 41.7131 116.101 40.7713C115.582 39.8255 115.322 38.6745 115.322 37.3182C115.322 35.9578 115.582 34.8048 116.101 33.859C116.624 32.9132 117.331 32.1948 118.22 31.7038C119.11 31.2128 120.11 30.9673 121.22 30.9673C122.327 30.9673 123.325 31.2128 124.215 31.7038C125.108 32.1948 125.817 32.9132 126.34 33.859C126.863 34.8048 127.125 35.9578 127.125 37.3182ZM124.07 37.3182C124.07 36.5132 123.955 35.8331 123.726 35.2777C123.5 34.7223 123.174 34.3017 122.748 34.016C122.325 33.7302 121.816 33.5873 121.22 33.5873C120.629 33.5873 120.12 33.7302 119.693 34.016C119.267 34.3017 118.939 34.7223 118.709 35.2777C118.484 35.8331 118.371 36.5132 118.371 37.3182C118.371 38.1231 118.484 38.8033 118.709 39.3587C118.939 39.9141 119.267 40.3346 119.693 40.6204C120.12 40.9061 120.629 41.049 121.22 41.049C121.816 41.049 122.325 40.9061 122.748 40.6204C123.174 40.3346 123.5 39.9141 123.726 39.3587C123.955 38.8033 124.07 38.1231 124.07 37.3182ZM133.198 43.6751C132.22 43.6751 131.381 43.4738 130.68 43.0714C129.984 42.6689 129.449 42.1095 129.075 41.3931C128.7 40.6727 128.513 39.8396 128.513 38.8938C128.513 37.944 128.7 37.1109 129.075 36.3945C129.453 35.6741 129.99 35.1127 130.686 34.7102C131.387 34.3078 132.222 34.1065 133.192 34.1065C134.049 34.1065 134.796 34.2615 135.431 34.5714C136.071 34.8813 136.57 35.3199 136.929 35.8874C137.291 36.4509 137.482 37.1129 137.502 37.8736H134.743C134.687 37.3987 134.526 37.0264 134.26 36.7567C133.999 36.4871 133.657 36.3523 133.234 36.3523C132.892 36.3523 132.592 36.4489 132.334 36.642C132.077 36.8312 131.876 37.1129 131.731 37.4872C131.59 37.8575 131.519 38.3163 131.519 38.8636C131.519 39.411 131.59 39.8738 131.731 40.2521C131.876 40.6264 132.077 40.9101 132.334 41.1033C132.592 41.2925 132.892 41.3871 133.234 41.3871C133.508 41.3871 133.749 41.3287 133.958 41.212C134.172 41.0953 134.347 40.9242 134.484 40.6989C134.62 40.4694 134.707 40.1918 134.743 39.8658H137.502C137.474 40.6304 137.283 41.2985 136.929 41.87C136.578 42.4415 136.085 42.8862 135.45 43.2042C134.818 43.5181 134.067 43.6751 133.198 43.6751ZM143.347 43.6751C142.377 43.6751 141.54 43.4839 140.836 43.1016C140.136 42.7152 139.596 42.1658 139.218 41.4535C138.844 40.7371 138.657 39.8859 138.657 38.8998C138.657 37.942 138.846 37.1049 139.224 36.3885C139.602 35.6681 140.136 35.1087 140.824 34.7102C141.512 34.3078 142.323 34.1065 143.257 34.1065C143.917 34.1065 144.521 34.2092 145.068 34.4144C145.615 34.6197 146.088 34.9235 146.487 35.326C146.885 35.7284 147.195 36.2255 147.416 36.8171C147.638 37.4047 147.748 38.0788 147.748 38.8395V39.576H139.689V37.8615H145.001C144.997 37.5476 144.923 37.2679 144.778 37.0224C144.633 36.7769 144.434 36.5857 144.18 36.4489C143.931 36.308 143.643 36.2376 143.317 36.2376C142.987 36.2376 142.691 36.312 142.43 36.4609C142.168 36.6058 141.961 36.805 141.808 37.0586C141.655 37.3081 141.575 37.5918 141.566 37.9098V39.6545C141.566 40.0328 141.641 40.3648 141.79 40.6506C141.939 40.9323 142.15 41.1516 142.424 41.3086C142.697 41.4655 143.023 41.544 143.402 41.544C143.663 41.544 143.901 41.5078 144.114 41.4354C144.327 41.3629 144.51 41.2563 144.663 41.1154C144.816 40.9745 144.931 40.8015 145.008 40.5962L147.718 40.6747C147.605 41.2824 147.358 41.8117 146.976 42.2624C146.597 42.7092 146.1 43.0573 145.484 43.3068C144.869 43.5523 144.156 43.6751 143.347 43.6751ZM151.87 43.6569C151.278 43.6569 150.753 43.5583 150.294 43.3611C149.84 43.1599 149.479 42.8581 149.214 42.4556C148.952 42.0491 148.821 41.54 148.821 40.9283C148.821 40.4131 148.912 39.9784 149.093 39.6243C149.274 39.2701 149.524 38.9824 149.842 38.761C150.16 38.5396 150.526 38.3726 150.94 38.2599C151.355 38.1432 151.798 38.0647 152.268 38.0245C152.796 37.9762 153.22 37.9259 153.542 37.8736C153.864 37.8172 154.098 37.7387 154.242 37.6381C154.391 37.5335 154.466 37.3866 154.466 37.1974V37.1672C154.466 36.8574 154.359 36.6179 154.146 36.4489C153.933 36.2798 153.645 36.1953 153.283 36.1953C152.892 36.1953 152.578 36.2798 152.341 36.4489C152.103 36.6179 151.952 36.8513 151.888 37.1491L149.165 37.0525C149.246 36.4891 149.453 35.986 149.787 35.5433C150.125 35.0966 150.588 34.7464 151.176 34.4929C151.767 34.2353 152.478 34.1065 153.307 34.1065C153.898 34.1065 154.444 34.177 154.943 34.3178C155.442 34.4547 155.876 34.6559 156.247 34.9215C156.617 35.1831 156.903 35.5051 157.104 35.8874C157.309 36.2698 157.412 36.7064 157.412 37.1974V43.5H154.635V42.2081H154.562C154.397 42.522 154.186 42.7876 153.929 43.005C153.675 43.2223 153.375 43.3853 153.029 43.494C152.687 43.6026 152.301 43.6569 151.87 43.6569ZM152.782 41.7251C153.1 41.7251 153.385 41.6607 153.639 41.5319C153.896 41.4032 154.102 41.2261 154.255 41.0007C154.408 40.7713 154.484 40.5057 154.484 40.2038V39.3224C154.399 39.3667 154.297 39.4069 154.176 39.4432C154.059 39.4794 153.931 39.5136 153.79 39.5458C153.649 39.578 153.504 39.6062 153.355 39.6303C153.206 39.6545 153.063 39.6766 152.926 39.6967C152.649 39.741 152.411 39.8094 152.214 39.902C152.021 39.9945 151.872 40.1153 151.767 40.2642C151.667 40.4091 151.616 40.5821 151.616 40.7834C151.616 41.0892 151.725 41.3227 151.942 41.4837C152.164 41.6446 152.443 41.7251 152.782 41.7251ZM162.169 38.2116V43.5H159.217V34.2273H162.024V35.9297H162.127C162.332 35.3622 162.682 34.9175 163.177 34.5955C163.672 34.2695 164.262 34.1065 164.946 34.1065C165.598 34.1065 166.163 34.2534 166.642 34.5472C167.125 34.837 167.5 35.2435 167.765 35.7667C168.035 36.2859 168.168 36.8936 168.164 37.5898V43.5H165.212V38.1694C165.216 37.6542 165.085 37.2518 164.819 36.962C164.558 36.6722 164.193 36.5273 163.727 36.5273C163.417 36.5273 163.143 36.5958 162.905 36.7326C162.672 36.8654 162.491 37.0566 162.362 37.3061C162.237 37.5556 162.173 37.8575 162.169 38.2116ZM173.644 31.1364H177.344L180.484 38.7912H180.628L183.768 31.1364H187.468V43.5H184.558V35.9055H184.456L181.486 43.4215H179.626L176.656 35.8633H176.553V43.5H173.644V31.1364ZM191.946 43.6569C191.355 43.6569 190.829 43.5583 190.371 43.3611C189.916 43.1599 189.556 42.8581 189.29 42.4556C189.028 42.0491 188.897 41.54 188.897 40.9283C188.897 40.4131 188.988 39.9784 189.169 39.6243C189.35 39.2701 189.6 38.9824 189.918 38.761C190.236 38.5396 190.602 38.3726 191.016 38.2599C191.431 38.1432 191.874 38.0647 192.345 38.0245C192.872 37.9762 193.296 37.9259 193.618 37.8736C193.94 37.8172 194.174 37.7387 194.319 37.6381C194.468 37.5335 194.542 37.3866 194.542 37.1974V37.1672C194.542 36.8574 194.435 36.6179 194.222 36.4489C194.009 36.2798 193.721 36.1953 193.359 36.1953C192.968 36.1953 192.654 36.2798 192.417 36.4489C192.18 36.6179 192.029 36.8513 191.964 37.1491L189.242 37.0525C189.322 36.4891 189.529 35.986 189.863 35.5433C190.201 35.0966 190.664 34.7464 191.252 34.4929C191.844 34.2353 192.554 34.1065 193.383 34.1065C193.975 34.1065 194.52 34.177 195.019 34.3178C195.518 34.4547 195.953 34.6559 196.323 34.9215C196.693 35.1831 196.979 35.5051 197.18 35.8874C197.385 36.2698 197.488 36.7064 197.488 37.1974V43.5H194.711V42.2081H194.639C194.474 42.522 194.262 42.7876 194.005 43.005C193.751 43.2223 193.451 43.3853 193.105 43.494C192.763 43.6026 192.377 43.6569 191.946 43.6569ZM192.858 41.7251C193.176 41.7251 193.461 41.6607 193.715 41.5319C193.973 41.4032 194.178 41.2261 194.331 41.0007C194.484 40.7713 194.56 40.5057 194.56 40.2038V39.3224C194.476 39.3667 194.373 39.4069 194.252 39.4432C194.136 39.4794 194.007 39.5136 193.866 39.5458C193.725 39.578 193.58 39.6062 193.431 39.6303C193.282 39.6545 193.139 39.6766 193.003 39.6967C192.725 39.741 192.487 39.8094 192.29 39.902C192.097 39.9945 191.948 40.1153 191.844 40.2642C191.743 40.4091 191.693 40.5821 191.693 40.7834C191.693 41.0892 191.801 41.3227 192.019 41.4837C192.24 41.6446 192.52 41.7251 192.858 41.7251ZM199.293 43.5V34.2273H202.161V35.9176H202.257C202.426 35.3059 202.702 34.8511 203.084 34.5533C203.467 34.2514 203.911 34.1005 204.418 34.1005C204.555 34.1005 204.696 34.1105 204.841 34.1307C204.986 34.1468 205.121 34.1729 205.246 34.2092V36.7748C205.105 36.7266 204.92 36.6883 204.69 36.6601C204.465 36.632 204.263 36.6179 204.086 36.6179C203.736 36.6179 203.42 36.6964 203.139 36.8533C202.861 37.0063 202.642 37.2216 202.481 37.4993C202.324 37.773 202.245 38.0949 202.245 38.4652V43.5H199.293ZM209.111 41.0671L209.123 37.5476H209.533L212.141 34.2273H215.486L211.61 38.9844H210.831L209.111 41.0671ZM206.448 43.5V31.1364H209.4V43.5H206.448ZM212.208 43.5L209.781 39.6484L211.725 37.5536L215.618 43.5H212.208ZM220.495 43.6751C219.525 43.6751 218.688 43.4839 217.983 43.1016C217.283 42.7152 216.744 42.1658 216.366 41.4535C215.991 40.7371 215.804 39.8859 215.804 38.8998C215.804 37.942 215.993 37.1049 216.372 36.3885C216.75 35.6681 217.283 35.1087 217.971 34.7102C218.66 34.3078 219.471 34.1065 220.404 34.1065C221.064 34.1065 221.668 34.2092 222.215 34.4144C222.763 34.6197 223.236 34.9235 223.634 35.326C224.032 35.7284 224.342 36.2255 224.564 36.8171C224.785 37.4047 224.896 38.0788 224.896 38.8395V39.576H216.836V37.8615H222.149C222.145 37.5476 222.07 37.2679 221.926 37.0224C221.781 36.7769 221.581 36.5857 221.328 36.4489C221.078 36.308 220.791 36.2376 220.465 36.2376C220.135 36.2376 219.839 36.312 219.577 36.4609C219.316 36.6058 219.108 36.805 218.955 37.0586C218.802 37.3081 218.722 37.5918 218.714 37.9098V39.6545C218.714 40.0328 218.788 40.3648 218.937 40.6506C219.086 40.9323 219.297 41.1516 219.571 41.3086C219.845 41.4655 220.171 41.544 220.549 41.544C220.811 41.544 221.048 41.5078 221.261 41.4354C221.475 41.3629 221.658 41.2563 221.811 41.1154C221.964 40.9745 222.078 40.8015 222.155 40.5962L224.866 40.6747C224.753 41.2824 224.505 41.8117 224.123 42.2624C223.745 42.7092 223.248 43.0573 222.632 43.3068C222.016 43.5523 221.304 43.6751 220.495 43.6751ZM231.637 34.2273V36.4006H225.788V34.2273H231.637ZM227.013 32.0057H229.965V40.5842C229.965 40.7653 229.993 40.9122 230.05 41.0248C230.11 41.1335 230.197 41.212 230.309 41.2603C230.422 41.3046 230.557 41.3267 230.714 41.3267C230.826 41.3267 230.945 41.3166 231.07 41.2965C231.199 41.2724 231.295 41.2522 231.36 41.2361L231.806 43.3672C231.666 43.4074 231.466 43.4577 231.209 43.5181C230.955 43.5785 230.651 43.6167 230.297 43.6328C229.605 43.665 229.011 43.5845 228.516 43.3913C228.025 43.1941 227.649 42.8882 227.387 42.4737C227.13 42.0592 227.005 41.538 227.013 40.9101V32.0057ZM233.144 46.9773V34.2273H236.066V35.815H236.156C236.277 35.5333 236.448 35.2616 236.669 35C236.895 34.7384 237.18 34.5251 237.526 34.3601C237.877 34.191 238.295 34.1065 238.782 34.1065C239.426 34.1065 240.028 34.2756 240.587 34.6136C241.151 34.9517 241.605 35.4729 241.952 36.1772C242.298 36.8815 242.471 37.779 242.471 38.8697C242.471 39.9201 242.304 40.7995 241.97 41.5078C241.64 42.2161 241.193 42.7474 240.629 43.1016C240.07 43.4557 239.448 43.6328 238.764 43.6328C238.297 43.6328 237.893 43.5563 237.551 43.4034C237.209 43.2505 236.921 43.0492 236.687 42.7997C236.458 42.5502 236.281 42.2825 236.156 41.9968H236.096V46.9773H233.144ZM236.035 38.8636C236.035 39.3627 236.102 39.7973 236.235 40.1676C236.371 40.5379 236.567 40.8256 236.82 41.0309C237.078 41.2321 237.386 41.3327 237.744 41.3327C238.106 41.3327 238.414 41.2321 238.667 41.0309C238.921 40.8256 239.112 40.5379 239.241 40.1676C239.374 39.7973 239.44 39.3627 239.44 38.8636C239.44 38.3646 239.374 37.9319 239.241 37.5657C239.112 37.1994 238.921 36.9157 238.667 36.7145C238.418 36.5132 238.11 36.4126 237.744 36.4126C237.382 36.4126 237.074 36.5112 236.82 36.7084C236.567 36.9056 236.371 37.1874 236.235 37.5536C236.102 37.9199 236.035 38.3565 236.035 38.8636ZM246.97 31.1364V43.5H244.018V31.1364H246.97ZM251.463 43.6569C250.871 43.6569 250.346 43.5583 249.887 43.3611C249.432 43.1599 249.072 42.8581 248.806 42.4556C248.545 42.0491 248.414 41.54 248.414 40.9283C248.414 40.4131 248.505 39.9784 248.686 39.6243C248.867 39.2701 249.116 38.9824 249.434 38.761C249.752 38.5396 250.119 38.3726 250.533 38.2599C250.948 38.1432 251.39 38.0647 251.861 38.0245C252.388 37.9762 252.813 37.9259 253.135 37.8736C253.457 37.8172 253.69 37.7387 253.835 37.6381C253.984 37.5335 254.059 37.3866 254.059 37.1974V37.1672C254.059 36.8574 253.952 36.6179 253.739 36.4489C253.525 36.2798 253.238 36.1953 252.875 36.1953C252.485 36.1953 252.171 36.2798 251.934 36.4489C251.696 36.6179 251.545 36.8513 251.481 37.1491L248.758 37.0525C248.839 36.4891 249.046 35.986 249.38 35.5433C249.718 35.0966 250.181 34.7464 250.768 34.4929C251.36 34.2353 252.07 34.1065 252.9 34.1065C253.491 34.1065 254.036 34.177 254.536 34.3178C255.035 34.4547 255.469 34.6559 255.84 34.9215C256.21 35.1831 256.496 35.5051 256.697 35.8874C256.902 36.2698 257.005 36.7064 257.005 37.1974V43.5H254.228V42.2081H254.155C253.99 42.522 253.779 42.7876 253.521 43.005C253.268 43.2223 252.968 43.3853 252.622 43.494C252.28 43.6026 251.893 43.6569 251.463 43.6569ZM252.374 41.7251C252.692 41.7251 252.978 41.6607 253.232 41.5319C253.489 41.4032 253.694 41.2261 253.847 41.0007C254 40.7713 254.077 40.5057 254.077 40.2038V39.3224C253.992 39.3667 253.89 39.4069 253.769 39.4432C253.652 39.4794 253.523 39.5136 253.382 39.5458C253.242 39.578 253.097 39.6062 252.948 39.6303C252.799 39.6545 252.656 39.6766 252.519 39.6967C252.241 39.741 252.004 39.8094 251.807 39.902C251.614 39.9945 251.465 40.1153 251.36 40.2642C251.259 40.4091 251.209 40.5821 251.209 40.7834C251.209 41.0892 251.318 41.3227 251.535 41.4837C251.757 41.6446 252.036 41.7251 252.374 41.7251ZM263.138 43.6751C262.16 43.6751 261.321 43.4738 260.621 43.0714C259.924 42.6689 259.389 42.1095 259.015 41.3931C258.641 40.6727 258.453 39.8396 258.453 38.8938C258.453 37.944 258.641 37.1109 259.015 36.3945C259.393 35.6741 259.931 35.1127 260.627 34.7102C261.327 34.3078 262.162 34.1065 263.132 34.1065C263.989 34.1065 264.736 34.2615 265.372 34.5714C266.012 34.8813 266.511 35.3199 266.869 35.8874C267.231 36.4509 267.422 37.1129 267.442 37.8736H264.684C264.627 37.3987 264.466 37.0264 264.201 36.7567C263.939 36.4871 263.597 36.3523 263.174 36.3523C262.832 36.3523 262.532 36.4489 262.275 36.642C262.017 36.8312 261.816 37.1129 261.671 37.4872C261.53 37.8575 261.46 38.3163 261.46 38.8636C261.46 39.411 261.53 39.8738 261.671 40.2521C261.816 40.6264 262.017 40.9101 262.275 41.1033C262.532 41.2925 262.832 41.3871 263.174 41.3871C263.448 41.3871 263.69 41.3287 263.899 41.212C264.112 41.0953 264.287 40.9242 264.424 40.6989C264.561 40.4694 264.647 40.1918 264.684 39.8658H267.442C267.414 40.6304 267.223 41.2985 266.869 41.87C266.519 42.4415 266.026 42.8862 265.39 43.2042C264.758 43.5181 264.007 43.6751 263.138 43.6751ZM273.288 43.6751C272.318 43.6751 271.481 43.4839 270.776 43.1016C270.076 42.7152 269.537 42.1658 269.158 41.4535C268.784 40.7371 268.597 39.8859 268.597 38.8998C268.597 37.942 268.786 37.1049 269.165 36.3885C269.543 35.6681 270.076 35.1087 270.764 34.7102C271.453 34.3078 272.263 34.1065 273.197 34.1065C273.857 34.1065 274.461 34.2092 275.008 34.4144C275.556 34.6197 276.029 34.9235 276.427 35.326C276.825 35.7284 277.135 36.2255 277.357 36.8171C277.578 37.4047 277.689 38.0788 277.689 38.8395V39.576H269.629V37.8615H274.942C274.938 37.5476 274.863 37.2679 274.718 37.0224C274.574 36.7769 274.374 36.5857 274.121 36.4489C273.871 36.308 273.584 36.2376 273.258 36.2376C272.928 36.2376 272.632 36.312 272.37 36.4609C272.109 36.6058 271.901 36.805 271.748 37.0586C271.595 37.3081 271.515 37.5918 271.507 37.9098V39.6545C271.507 40.0328 271.581 40.3648 271.73 40.6506C271.879 40.9323 272.09 41.1516 272.364 41.3086C272.638 41.4655 272.964 41.544 273.342 41.544C273.604 41.544 273.841 41.5078 274.054 41.4354C274.268 41.3629 274.451 41.2563 274.604 41.1154C274.757 40.9745 274.871 40.8015 274.948 40.5962L277.658 40.6747C277.546 41.2824 277.298 41.8117 276.916 42.2624C276.538 42.7092 276.041 43.0573 275.425 43.3068C274.809 43.5523 274.097 43.6751 273.288 43.6751Z" fill="#0080FF"/>
</g>
<defs>
<filter id="filter0_d_1_50" x="6.28571" y="2.28571" width="51.4286" height="51.4286" filterUnits="userSpaceOnUse" color-interpolation-filters="sRGB">
<feFlood flood-opacity="0" result="BackgroundImageFix"/>
<feColorMatrix in="SourceAlpha" type="matrix" values="0 0 0 0 0 0 0 0 0 0 0 0 0 0 0 0 0 0 127 0" result="hardAlpha"/>
<feOffset/>
<feGaussianBlur stdDeviation="2.85714"/>
<feComposite in2="hardAlpha" operator="out"/>
<feColorMatrix type="matrix" values="0 0 0 0 0 0 0 0 0 0 0 0 0 0 0 0 0 0 0.25 0"/>
<feBlend mode="normal" in2="BackgroundImageFix" result="effect1_dropShadow_1_50"/>
<feBlend mode="normal" in="SourceGraphic" in2="effect1_dropShadow_1_50" result="shape"/>
</filter>
<filter id="filter1_d_1_50" x="54.4" y="3.9" width="230.2" height="48.8704" filterUnits="userSpaceOnUse" color-interpolation-filters="sRGB">
<feFlood flood-opacity="0" result="BackgroundImageFix"/>
<feColorMatrix in="SourceAlpha" type="matrix" values="0 0 0 0 0 0 0 0 0 0 0 0 0 0 0 0 0 0 127 0" result="hardAlpha"/>
<feOffset/>
<feGaussianBlur stdDeviation="2.8"/>
<feComposite in2="hardAlpha" operator="out"/>
<feColorMatrix type="matrix" values="0 0 0 0 0 0 0 0 0 0 0 0 0 0 0 0 0 0 0.25 0"/>
<feBlend mode="normal" in2="BackgroundImageFix" result="effect1_dropShadow_1_50"/>
<feBlend mode="normal" in="SourceGraphic" in2="effect1_dropShadow_1_50" result="shape"/>
</filter>
<linearGradient id="paint0_linear_1_50" x1="145.5" y1="0" x2="145.5" y2="56" gradientUnits="userSpaceOnUse">
<stop stop-color="#003366"/>
<stop offset="1" stop-color="#001F3D"/>
</linearGradient>
</defs>
</svg>
